<svg xmlns="http://www.w3.org/2000/svg" width="200" height="200" viewBox="0 0 200 200" version="1.1">
	<path d="M 123.653 10.753 C 122.446 12.705, 112.909 53.172, 110.514 66.500 C 109.032 74.750, 107.468 81.869, 107.040 82.319 C 106.612 82.770, 106.489 85.156, 106.767 87.622 L 107.272 92.105 102.271 91.442 C 95.517 90.546, 90.661 92.888, 86.865 98.874 C 83.170 104.701, 83.018 106.873, 86.465 104.615 C 90.451 102.003, 95.519 102.511, 97.801 105.750 C 98.866 107.263, 100.052 109.513, 100.436 110.750 C 101.047 112.717, 100.780 112.999, 98.317 112.993 C 96.768 112.990, 92.022 113.516, 87.772 114.163 L 80.044 115.339 77.570 112.670 C 73.030 107.771, 63.874 109.593, 52.706 117.616 C 47.283 121.512, 41.788 124.095, 34.001 126.407 C 29.865 127.635, 29.093 127.660, 29.727 126.543 C 30.152 125.793, 37.925 119.015, 47 111.480 C 64.555 96.903, 81.372 80.927, 85.671 74.742 C 88.238 71.048, 99.417 64.247, 100.374 65.796 C 100.621 66.197, 101.391 70.231, 102.085 74.762 C 102.934 80.307, 103.780 83, 104.673 83 C 105.403 83, 105.996 82.213, 105.991 81.250 C 105.972 77.377, 99.941 50.017, 97.559 42.999 C 96.159 38.874, 95.011 35.166, 95.007 34.758 C 95.003 34.350, 98.168 31.909, 102.040 29.335 C 109.921 24.094, 110.426 22.442, 104.963 19.769 C 95.808 15.290, 50.736 10.881, 33.268 12.756 C 24.421 13.705, 19 15.735, 19 18.099 C 19 18.678, 20.072 20.107, 21.383 21.274 C 23.761 23.392, 23.762 23.403, 21.840 26.003 C 20.686 27.564, 20.180 29.306, 20.580 30.347 C 21.997 34.040, 33.216 37.597, 49.500 39.516 L 55.500 40.224 50 45.180 C 42.741 51.721, 34.557 56.623, 28.452 58.086 C 25.728 58.739, 22.887 59.442, 22.138 59.648 C 21.105 59.933, 20.945 61.149, 21.477 64.692 C 23.361 77.259, 29.179 89.259, 35.229 93.058 C 39.423 95.691, 46.581 95.261, 50.551 92.138 C 59.820 84.847, 66 67.556, 66 48.912 L 66 41 73.583 41 C 79.142 41, 81.057 40.671, 80.756 39.769 C 80.531 39.092, 78.693 38.148, 76.673 37.670 C 72.584 36.703, 72.052 35.168, 74.909 32.583 C 75.958 31.633, 77.363 29.538, 78.030 27.928 C 79.982 23.215, 85.434 24.377, 89.016 30.267 L 90.926 33.407 84.963 39.617 C 78.878 45.954, 77.787 48.866, 79.971 52.945 C 81.067 54.993, 85.984 57.138, 93.796 58.976 C 96.867 59.698, 98.942 60.700, 98.735 61.361 C 98.538 61.987, 95.743 63.913, 92.524 65.641 C 88.587 67.753, 85.528 70.373, 83.184 73.641 C 78.119 80.701, 67.424 90.846, 47.776 107.227 C 30.160 121.915, 24.538 127.444, 25.552 129.085 C 27.427 132.118, 43.229 127.072, 54.003 119.998 C 63.798 113.568, 70.173 111.302, 73.812 112.960 C 76.953 114.391, 75.772 115.345, 69.500 116.445 C 62.491 117.674, 51.345 123.745, 44.718 129.945 C 35.191 138.857, 31.520 147.522, 34.375 154.355 C 36.601 159.684, 41.184 161.402, 51.327 160.711 C 55.632 160.418, 59.390 159.943, 59.678 159.656 C 59.965 159.368, 59.469 156.218, 58.576 152.656 C 57.277 147.475, 57.167 145.217, 58.029 141.372 C 59.903 133.007, 65.395 126.390, 74.183 121.906 L 78.311 119.801 77.682 128.150 C 77.336 132.743, 75.241 144.519, 73.026 154.319 C 70.812 164.120, 69 172.974, 69 173.996 C 69 175.018, 70.237 176.500, 71.750 177.290 C 73.263 178.081, 75.850 179.461, 77.500 180.357 C 88.749 186.470, 98.898 177.066, 103.994 155.810 C 105.089 151.240, 106.020 145.475, 106.062 143 L 106.138 138.500 108.731 146.378 C 112.035 156.419, 116.880 162, 122.289 162 C 130.076 162, 134.234 153.992, 131.468 144.323 C 129.617 137.854, 122.252 129.513, 113.923 124.453 C 109.427 121.722, 108 120.296, 108 118.534 C 108 116.339, 108.219 116.262, 112.041 117.121 C 127.167 120.519, 136.759 130.790, 139.369 146.382 L 140.556 153.471 149.528 155.663 C 160.317 158.300, 168.234 158.628, 169.989 156.513 C 172.536 153.444, 169.840 149.585, 153.682 133.175 C 139.945 119.223, 138.337 117.288, 143.039 120.371 C 154.131 127.644, 165.504 129.824, 172.835 126.084 C 177.456 123.727, 184.136 116.614, 186.999 111.003 C 188.176 108.695, 188.996 106.678, 188.820 106.521 C 188.644 106.365, 181.525 104.814, 173 103.075 C 147.710 97.917, 132 93.314, 132 91.064 C 132 88.981, 144.925 86.491, 161 85.477 C 174.436 84.629, 174.682 84.542, 177.142 79.734 C 180.174 73.810, 180.158 67.863, 177.103 64.610 C 172.921 60.158, 169.090 59.487, 149.569 59.784 L 131.638 60.058 133.503 57.997 C 134.529 56.863, 140.123 52.929, 145.934 49.254 C 164.412 37.570, 170.891 32.251, 169.461 29.937 C 168.688 28.686, 165.127 28.871, 149.057 30.995 C 140.157 32.171, 134.284 31.677, 129.780 29.371 C 125.628 27.247, 124.665 24.540, 125.312 16.823 C 125.812 10.854, 125.131 8.361, 123.653 10.753 M 28.230 15.945 C 22.433 16.888, 21.238 18.271, 24.419 20.355 C 26.728 21.868, 27.271 21.875, 30.851 20.443 C 33.001 19.583, 38.752 18.038, 43.630 17.010 L 52.500 15.141 42.500 15.196 C 37 15.226, 30.579 15.563, 28.230 15.945 M 77 19.324 C 78.375 20.777, 80.310 21.973, 81.300 21.983 C 84.491 22.013, 88.751 24.861, 90.964 28.442 L 93.121 31.932 99.529 27.716 C 104.920 24.169, 105.693 23.316, 104.403 22.342 C 102.889 21.198, 90.695 18.716, 80 17.374 L 74.500 16.683 77 19.324 M 42.849 19.965 C 30.250 22.623, 29.601 23.239, 36.655 25.843 C 39.870 27.030, 46.971 29.331, 52.435 30.957 L 62.370 33.913 66.687 29.934 C 69.061 27.746, 72.145 25.435, 73.541 24.799 C 74.987 24.140, 75.949 22.968, 75.777 22.072 C 74.980 17.916, 57.782 16.816, 42.849 19.965 M 24.687 26.793 C 22.278 29.455, 22.497 29.890, 27.318 32.023 C 34.120 35.031, 61.080 38.746, 58.677 36.344 C 58.316 35.983, 51.604 33.555, 43.761 30.948 C 35.917 28.341, 28.797 25.920, 27.937 25.569 C 27.021 25.194, 25.676 25.701, 24.687 26.793 M 119.167 38.562 C 116.558 49.657, 113.095 67.521, 110.509 83.223 C 110.152 85.389, 111.243 87.432, 115.849 93.223 C 123.153 102.407, 125.527 104.625, 136.553 112.564 C 148.929 121.477, 155.031 124.344, 162.667 124.830 C 168.020 125.171, 169.572 124.855, 173.311 122.663 C 177.194 120.388, 186.062 109.659, 184.916 108.623 C 184.687 108.416, 177.689 106.826, 169.364 105.088 C 150.593 101.170, 138.112 97.771, 133.236 95.249 C 129.237 93.180, 127.979 90.092, 130.339 88.134 C 132.587 86.268, 144.229 84.136, 159.388 82.814 L 173.276 81.602 175.116 77.551 C 177.575 72.138, 177.466 68.780, 174.750 66.264 C 170.735 62.544, 164.935 61.746, 147.499 62.515 C 133.399 63.137, 131.267 63.027, 130.097 61.617 C 127.966 59.049, 130.818 55.852, 141.239 49.131 C 158.494 38.002, 166.030 32.506, 164.490 32.175 C 163.659 31.996, 159.860 32.333, 156.048 32.925 C 139.516 35.490, 127.551 33.598, 124.067 27.869 L 122.347 25.041 119.167 38.562 M 69.818 30.876 C 66.035 34.446, 65.772 34.953, 67.699 34.975 C 69.059 34.990, 70.925 33.654, 72.589 31.473 C 76.436 26.429, 74.885 26.095, 69.818 30.876 M 62.750 37.662 C 63.438 37.940, 64.563 37.940, 65.250 37.662 C 65.938 37.385, 65.375 37.158, 64 37.158 C 62.625 37.158, 62.063 37.385, 62.750 37.662 M 86.709 41.449 C 84.262 43.896, 82.010 46.854, 81.704 48.023 C 80.974 50.816, 83.821 53.613, 88.697 54.892 C 97.955 57.320, 98 57.322, 98 55.410 C 98 52.439, 93.007 37, 92.047 37 C 91.558 37, 89.156 39.002, 86.709 41.449 M 53.500 45.613 C 45.345 53.160, 36.898 58.515, 29.787 60.645 L 23.856 62.421 24.477 65.961 C 26.643 78.319, 32.574 89.088, 38.601 91.607 C 41.757 92.925, 42.478 92.882, 46.414 91.141 C 51.899 88.715, 56.038 82.842, 59.645 72.366 C 61.975 65.601, 62.364 62.824, 62.427 52.522 C 62.515 38.026, 62.071 37.681, 53.500 45.613 M 109.006 92.250 C 109.010 92.938, 110.386 94.282, 112.065 95.237 L 115.118 96.975 112.991 93.987 C 110.776 90.877, 108.995 90.101, 109.006 92.250 M 92.635 96.073 C 89.257 98.730, 89.293 99.994, 92.750 100.022 C 96.592 100.053, 99.674 102.739, 102.431 108.459 L 104.791 113.356 105.523 104.566 C 106.357 94.550, 106.061 94.040, 99.385 94.015 C 96.718 94.005, 94.343 94.729, 92.635 96.073 M 108.625 100.125 C 108.281 101.844, 108 105.562, 108 108.388 L 108 113.527 113.163 114.753 C 129.130 118.546, 140.421 130.529, 141.741 145.081 L 142.278 150.998 146.389 152.121 C 153.007 153.929, 164.353 155.695, 166.250 155.212 C 167.213 154.967, 168 154.063, 168 153.203 C 168 151.008, 123.787 106.452, 116.500 101.304 C 113.200 98.972, 110.219 97.050, 109.875 97.032 C 109.531 97.015, 108.969 98.406, 108.625 100.125 M 96 116.657 C 102.434 118.800, 102.881 118.854, 102.334 117.427 C 101.989 116.530, 100.435 116.029, 98.143 116.079 C 96.139 116.122, 95.175 116.383, 96 116.657 M 68.112 119.581 C 60.058 121.747, 51.515 126.703, 45.546 132.672 C 36.851 141.367, 33.868 150.145, 37.912 155.139 C 39.606 157.232, 40.816 157.541, 48.560 157.859 C 56.763 158.195, 57.249 158.104, 56.502 156.359 C 54.774 152.320, 54.761 142.235, 56.478 137.067 C 58.418 131.226, 65.387 123.421, 71.574 120.159 C 76.184 117.728, 75.454 117.606, 68.112 119.581 M 81.427 118.603 C 80.837 118.848, 80.550 120.390, 80.791 122.030 C 81.416 126.286, 79.382 139.205, 75.423 156.130 C 73.540 164.177, 72 171.430, 72 172.247 C 72 174.793, 79.906 179.273, 84.399 179.273 C 87.913 179.273, 88.958 178.689, 92.557 174.714 C 99.192 167.385, 104 149.646, 104 132.493 C 104 122.941, 103.191 121.598, 96.268 119.655 C 90.711 118.096, 83.825 117.608, 81.427 118.603 M 108.008 126.759 C 108.035 136.569, 112.478 151.265, 116.920 156.236 C 121.605 161.480, 128.257 159.476, 129.581 152.422 C 131.086 144.398, 124.395 134.080, 113.250 127.241 L 108 124.018 108.008 126.759" stroke="none" fill="black" fill-rule="evenodd"/>
</svg>