<svg xmlns="http://www.w3.org/2000/svg" width="200" height="200" viewBox="0 0 200 200" version="1.1">
	<path d="M 62.292 14.449 C 52.769 17.425, 24.640 34.214, 25.345 36.500 C 25.515 37.050, 27.194 37.614, 29.077 37.754 C 30.960 37.893, 34.401 38.256, 36.725 38.561 L 40.949 39.115 33.723 46.307 C 21.115 58.856, 18.222 68.463, 22.925 82.166 L 25.213 88.833 24.047 118.166 C 23.188 139.774, 23.172 149.841, 23.986 156.387 C 24.975 164.348, 27.081 171, 28.613 171 C 28.921 171, 34.647 170.340, 41.337 169.533 C 58.139 167.506, 88.534 166.014, 113.196 166.006 L 133.892 166 141.196 169.877 C 145.213 172.009, 151.425 175.374, 155 177.354 C 158.575 179.334, 162.677 180.965, 164.115 180.977 C 168.114 181.012, 171.761 177.473, 173.682 171.695 C 175.228 167.045, 175.443 160.045, 175.728 105 C 175.903 71.175, 175.810 42.519, 175.522 41.320 C 174.790 38.279, 172.265 36, 169.627 36 C 168.401 36, 163.183 38.490, 158.032 41.534 C 142.084 50.958, 135.433 51.953, 128.584 45.940 L 125.211 42.978 123.107 46.544 C 121.636 49.036, 119.272 50.920, 115.251 52.805 C 109.598 55.454, 109.100 55.506, 86.002 55.833 C 58.004 56.230, 56.408 56.840, 63.176 64.548 C 66.725 68.590, 66.302 68.593, 77.982 64.450 C 88.111 60.857, 97.070 61.218, 100.635 65.362 C 104.060 69.344, 103.737 73.463, 99.679 77.521 C 97.742 79.458, 94.860 81.123, 92.763 81.517 C 87.602 82.485, 79.316 79.777, 71.596 74.601 C 66.358 71.088, 64.846 70.481, 63.968 71.538 C 62.345 73.495, 64.615 77.164, 73.536 87 C 90.769 105.999, 93.502 114.498, 85.085 122.915 C 81.261 126.739, 73.041 131.104, 66.189 132.949 C 62.485 133.946, 61.946 134.529, 60.064 139.559 C 57.616 146.102, 57.396 150.831, 59.502 151.639 C 62.380 152.744, 65.913 150.947, 78.228 142.117 C 99.952 126.540, 106.702 123.837, 108.804 129.868 C 109.954 133.167, 119.491 139.441, 126.617 141.585 C 138.265 145.091, 139.649 138.289, 132.433 113 C 130.472 106.125, 128.612 97.076, 128.300 92.890 C 127.753 85.550, 127.875 84.984, 131.724 76.890 C 136.625 66.586, 139.359 63.009, 141.057 64.678 C 144.049 67.618, 145.205 76.661, 145.731 101.250 C 146.184 122.425, 146.478 126, 147.770 126 C 149.092 126, 149.205 123.033, 148.676 102.250 C 147.955 73.878, 146.384 64.346, 142.050 62.027 C 138.649 60.207, 135.665 63.209, 130.133 74.015 C 124.823 84.389, 124.772 84.574, 125.291 91.560 C 125.581 95.443, 127.687 105.718, 129.972 114.395 C 134.213 130.494, 135.085 137.315, 133.151 139.249 C 130.460 141.940, 115.075 134.330, 110.981 128.284 C 107.495 123.134, 104.226 122.915, 95.866 127.273 C 92.305 129.129, 86.716 132.627, 83.446 135.046 C 64.923 148.747, 59.116 151.707, 60.488 146.750 C 63.142 137.155, 63.741 136.395, 70.194 134.441 C 78.047 132.064, 87.073 126.236, 89.842 121.756 C 94.837 113.674, 91.793 103.798, 80.218 90.529 C 76.523 86.293, 71.925 80.973, 70 78.706 L 66.500 74.584 69.700 76.824 C 79.862 83.940, 91.551 86.198, 98.180 82.327 C 102.266 79.940, 106.001 74.576, 105.996 71.102 C 105.991 67.335, 102.444 62.090, 98.891 60.596 C 95.851 59.318, 95.882 59.300, 102.161 58.694 C 111.628 57.781, 118.448 55.387, 122.520 51.546 L 126.128 48.143 129.761 50.286 C 134.098 52.845, 141.652 52.999, 147.126 50.640 C 149.120 49.780, 154.520 46.811, 159.126 44.040 C 168.426 38.447, 171.655 37.774, 172.525 41.250 C 172.835 42.487, 172.949 71.400, 172.778 105.500 C 172.455 170.035, 172.364 171.439, 168.203 176.250 C 165.642 179.211, 161.946 178.244, 150 171.488 C 143.675 167.911, 136.925 164.540, 135 163.998 C 127.985 162.021, 69.288 163.623, 43.340 166.500 C 32.363 167.717, 29.474 167.769, 28.844 166.760 C 26.499 163, 26.076 149.477, 26.899 104.500 C 27.267 84.393, 27.187 83.291, 25.027 78.596 C 22.172 72.392, 22.743 67.139, 27.175 58.824 C 30.268 53.020, 41.922 41, 44.455 41 C 46.730 41, 51.948 47.206, 52.602 50.690 C 53.716 56.628, 52.366 65.310, 49.134 73.003 L 46.047 80.350 49.138 86.629 L 52.229 92.908 51.630 106.704 C 51.300 114.292, 50.745 126.482, 50.396 133.793 C 49.863 144.938, 50.034 147.801, 51.452 151.514 C 54.441 159.341, 63.081 164.144, 70.909 162.331 C 72.884 161.874, 87.550 161.500, 103.500 161.500 C 131.490 161.500, 132.644 161.423, 136.624 159.294 C 138.893 158.080, 141.926 155.688, 143.366 153.977 C 146.139 150.681, 149.563 140.719, 148.508 139.013 C 147.510 137.397, 146.001 137.840, 145.994 139.750 C 145.983 143.380, 143.832 149.046, 141.342 152.005 C 135.298 159.188, 128.086 160.453, 102.302 158.853 C 86.827 157.893, 81.478 157.914, 74.724 158.965 C 64.827 160.505, 60.472 159.538, 56.606 154.943 C 52.251 149.768, 51.557 142.884, 53.512 124.238 C 55.798 102.444, 55.307 92.158, 51.661 85.468 L 48.920 80.436 51.115 75.473 C 55.721 65.061, 57.225 54.384, 54.940 48.315 C 54.358 46.767, 52.301 43.874, 50.370 41.886 L 46.860 38.272 58.180 32.599 C 64.406 29.478, 72.558 26.068, 76.297 25.020 L 83.093 23.115 83.989 25.472 C 84.482 26.769, 85.785 32.573, 86.884 38.371 C 89.178 50.471, 90.149 52.726, 93.637 54.052 C 97.130 55.380, 102.408 52.858, 110.487 46 C 116.591 40.819, 116.967 40.251, 116.983 36.200 C 117.029 24.601, 106.657 17.908, 90.905 19.372 C 84.873 19.933, 83.957 19.788, 83.072 18.134 C 80.595 13.506, 70.841 11.777, 62.292 14.449 M 61.989 17.435 C 53.367 20.614, 31.093 33.427, 32.224 34.557 C 32.472 34.805, 35.259 35.486, 38.418 36.070 C 44.127 37.125, 44.204 37.107, 51.007 33.065 C 57.852 28.999, 68.750 24.286, 76.750 21.933 C 81.659 20.490, 81.928 19.838, 78.535 17.615 C 75.564 15.668, 67.033 15.576, 61.989 17.435 M 86.731 22.603 C 86.399 22.934, 86.533 24.271, 87.028 25.574 C 87.523 26.876, 88.636 32.018, 89.500 37 C 91.385 47.863, 92.427 50.843, 94.640 51.692 C 96.892 52.556, 103.330 48.955, 109.838 43.189 C 114.996 38.620, 115.152 38.329, 114.455 34.613 C 113.511 29.579, 109.075 24.639, 104.182 23.173 C 100.112 21.953, 87.783 21.551, 86.731 22.603 M 65.250 58.663 C 62.384 59.270, 62.417 60.104, 65.421 62.926 L 67.842 65.200 74.171 62.697 C 77.652 61.319, 81.400 59.977, 82.500 59.712 C 83.600 59.448, 82.250 59.175, 79.500 59.105 C 76.750 59.035, 72.925 58.800, 71 58.582 C 69.075 58.364, 66.487 58.400, 65.250 58.663" stroke="none" fill="black" fill-rule="evenodd"/>
</svg>