<svg xmlns="http://www.w3.org/2000/svg" width="200" height="200" viewBox="0 0 200 200" version="1.1">
	<path d="M 99 12.039 C 73.589 13.991, 30.452 22.093, 19.250 27.019 C 13.504 29.545, 13.840 32.999, 19.832 33 C 21.128 33.001, 21.545 34.063, 21.700 37.759 C 22.050 46.064, 26.863 54.326, 33.285 57.647 C 37.737 59.950, 44.242 58.919, 49.747 55.039 C 52.890 52.824, 54.576 52.176, 55.306 52.906 C 56.035 53.635, 55.883 54.491, 54.805 55.726 C 53.955 56.702, 52.298 60.109, 51.125 63.297 C 49.952 66.486, 43.867 80.661, 37.602 94.797 C 22.979 127.794, 19.959 137.961, 20.037 153.934 C 20.073 161.358, 22.056 174.389, 23.346 175.679 C 24.945 177.278, 25.134 174.506, 23.962 166.631 C 22.237 155.037, 23.191 140.741, 26.423 129.742 C 28.530 122.571, 41.592 91, 42.452 91 C 42.586 91, 42.490 95.388, 42.239 100.750 C 41.953 106.874, 42.608 118.683, 44.002 132.500 C 47.083 163.045, 45.874 173.298, 38.253 181.257 C 36.395 183.197, 35.927 184.327, 36.672 185.072 C 38.346 186.746, 44.469 178.800, 46.578 172.218 C 48.889 165.002, 48.907 150.183, 46.628 130.293 C 44.632 112.874, 44.550 96.280, 46.425 89.236 C 47.970 83.432, 51.707 76.480, 54.774 73.705 C 56.724 71.940, 56.789 72.053, 59.016 81.067 C 60.987 89.043, 61.204 91.848, 60.701 102.861 C 60.383 109.812, 58.572 124.950, 56.677 136.500 C 52.308 163.112, 51.618 169.866, 52.919 173.286 C 54.284 176.878, 57.831 176.863, 61.160 173.250 C 64.740 169.364, 77.291 152.136, 84.141 141.703 C 91.796 130.046, 92.155 127.831, 87.872 118.693 C 84.596 111.705, 84.495 111.109, 84.329 97.760 C 84.235 90.203, 84.538 83.785, 85.003 83.498 C 86.727 82.432, 104.656 82.775, 108.940 83.955 C 111.444 84.646, 114.822 86.622, 116.690 88.490 C 119.473 91.273, 120 92.529, 120 96.381 C 120 101.628, 117.871 115, 117.035 115 C 116.728 115, 115.475 110.411, 114.249 104.801 C 110.534 87.800, 105.648 81.029, 101.577 87.242 C 97.753 93.079, 96.192 100.484, 96.226 112.627 C 96.267 127.402, 94.676 135.059, 86.929 157.369 C 80.378 176.236, 80.703 174.982, 81.883 176.844 C 83.488 179.377, 88.388 175.465, 103.797 159.349 L 118.829 143.628 113.425 157.064 C 107.738 171.203, 107.013 174.936, 109.546 177.038 C 110.832 178.106, 112.322 177.780, 118.420 175.101 C 132.232 169.031, 139.114 167.797, 146.101 170.140 C 151.139 171.828, 157.385 176.880, 161.044 182.224 L 164.278 186.949 167.181 185.234 C 176.204 179.904, 184.300 170.037, 186.063 162.221 C 188.624 150.868, 177.100 138.040, 164.314 138.010 L 160.128 138 167.503 122.750 C 176.201 104.766, 180.006 93.966, 179.985 87.324 C 179.967 81.638, 179.367 80.470, 175.764 79.100 C 172.188 77.741, 166.592 79.458, 155.687 85.259 L 147.234 89.755 148.636 83.628 C 150.732 74.465, 155.005 66.615, 163.947 55.500 C 172.053 45.424, 175 40.624, 175 37.499 C 175 34.040, 168.661 29.258, 160.987 26.928 C 155.775 25.344, 153.492 25.025, 153.219 25.843 C 152.573 27.780, 151.252 27.139, 150.609 24.577 C 149.776 21.258, 145.411 16.264, 141.631 14.306 C 139.505 13.205, 135.426 12.612, 128.922 12.460 C 123.654 12.336, 117.129 12.010, 114.422 11.734 C 111.715 11.459, 104.775 11.596, 99 12.039 M 91.038 15.580 C 76.503 17.164, 53.456 21.008, 40.201 24.061 L 30.901 26.202 34.823 28.142 C 38.611 30.017, 39.280 30.031, 54.569 28.572 C 63.273 27.741, 70.579 27.246, 70.804 27.471 C 71.506 28.173, 64.868 39.084, 60.412 44.555 C 57.403 48.250, 56.478 50.078, 57.234 50.834 C 57.991 51.591, 59.059 51.324, 60.901 49.918 C 78.854 36.210, 96.698 24.582, 108.500 18.899 L 118.500 14.083 111 14.153 C 106.875 14.191, 97.892 14.834, 91.038 15.580 M 127.092 18.250 C 126.291 20.183, 125.696 25.755, 125.623 32 C 125.517 41.042, 125.185 43.006, 123.234 46.144 C 118.720 53.402, 109.668 54.705, 89.500 51 C 74.301 48.208, 68.563 48.333, 64.344 51.551 C 62.505 52.954, 61 54.560, 61 55.121 C 61 55.681, 62.393 58.165, 64.096 60.640 C 65.799 63.115, 67.037 65.277, 66.846 65.443 C 66.656 65.610, 65.037 66.489, 63.250 67.399 C 59.334 69.390, 59.227 70.717, 62.111 81.562 C 64.970 92.317, 64.250 107.599, 59.560 135.708 C 55.606 159.410, 54.406 170.011, 55.390 172.573 C 55.989 174.134, 56.291 174.075, 58.544 171.959 C 61.499 169.183, 81.529 141.492, 85.342 134.912 C 88.629 129.239, 88.677 126.269, 85.578 120.154 C 82.304 113.693, 80.756 104.350, 81.162 93.509 L 81.500 84.500 76.250 84.198 C 69.333 83.800, 69.088 81.511, 75.866 80.612 L 80.733 79.967 81.348 75.480 C 82.727 65.420, 88.624 59.119, 98.669 56.973 C 109.237 54.716, 123.423 59.776, 126.092 66.754 C 127.977 71.684, 123.674 76.072, 114.004 79.082 L 108.500 80.795 112.754 82.507 C 117.978 84.611, 121.694 88.854, 122.616 93.769 C 123.032 95.984, 122.586 101.950, 121.508 108.582 C 120.516 114.689, 120.003 120.875, 120.368 122.330 C 121.290 126.004, 124.775 127.979, 131.782 128.800 L 137.763 129.500 135.568 136 C 132.514 145.046, 130.403 148, 126.992 148 C 125.445 148, 123.959 147.335, 123.638 146.500 C 122.486 143.497, 121.197 145.193, 117.113 155.081 C 112.593 166.025, 110.273 173.606, 111.171 174.504 C 111.483 174.817, 115.483 173.426, 120.060 171.414 C 131.751 166.273, 138.831 165.208, 146.471 167.440 C 151.528 168.917, 153.474 170.235, 159.185 176.049 L 165.929 182.914 170.714 179.091 C 177.465 173.698, 179.598 171.163, 182.048 165.625 C 184.825 159.347, 184.114 153.807, 179.870 148.659 C 175.230 143.029, 169.968 140.742, 162.607 141.157 C 159.248 141.345, 156.383 141.160, 156.239 140.745 C 156.096 140.329, 159.303 133.277, 163.366 125.074 C 172.237 107.163, 177.022 94.353, 177.297 87.782 C 177.659 79.114, 173.324 79.103, 156.861 87.727 C 144.398 94.255, 142.418 94.266, 144.417 87.798 C 145.148 85.434, 146.469 81.013, 147.353 77.973 C 149.353 71.101, 154.029 63.255, 161.773 53.778 C 168.637 45.377, 171.991 40.177, 171.996 37.924 C 172.002 35.349, 167.794 32.165, 161.538 30.013 C 158.312 28.903, 155.524 28.143, 155.343 28.324 C 154.658 29.009, 153 39.432, 153 43.055 C 153 47.892, 152.174 50, 150.278 50 C 149.017 50, 148.899 49.058, 149.559 44.250 C 152.088 25.841, 145.401 15.031, 131.469 15.006 C 128.990 15.001, 128.193 15.592, 127.092 18.250 M 114.250 19.380 C 104.826 23.202, 94.642 29.164, 81.074 38.804 C 72.312 45.029, 71.854 45.520, 74.574 45.783 C 76.183 45.938, 82.450 47.003, 88.500 48.149 C 102.571 50.813, 112.443 51.033, 116.615 48.774 C 121.800 45.968, 123.328 41.269, 122.778 29.830 C 122.417 22.339, 122.626 19.726, 123.652 18.874 C 125.344 17.470, 125.394 15.995, 123.750 16.017 C 123.063 16.026, 118.787 17.539, 114.250 19.380 M 21.500 29 C 19.870 29.701, 19.812 29.872, 21.191 29.930 C 22.121 29.968, 23.160 29.550, 23.500 29 C 24.211 27.850, 24.176 27.850, 21.500 29 M 27.750 29.662 C 28.438 29.940, 29.563 29.940, 30.250 29.662 C 30.938 29.385, 30.375 29.158, 29 29.158 C 27.625 29.158, 27.063 29.385, 27.750 29.662 M 53.500 31.302 C 47.450 31.839, 42.336 32.417, 42.136 32.586 C 41.936 32.756, 44.627 36.045, 48.116 39.894 C 55.444 47.979, 55.146 48.026, 62.052 37.684 C 65.892 31.934, 66.787 29.829, 65.250 30.163 C 64.838 30.252, 59.550 30.765, 53.500 31.302 M 24.329 34.586 C 23.994 35.458, 24.273 38.642, 24.949 41.661 C 25.889 45.863, 27.200 48.217, 30.543 51.706 C 34.793 56.142, 35.043 56.250, 39.913 55.782 C 44.771 55.316, 52 51.231, 52 48.952 C 52 48.432, 48.793 44.630, 44.873 40.503 L 37.746 33 31.341 33 C 26.417 33, 24.797 33.366, 24.329 34.586 M 59 62.500 C 59 66.109, 59.524 66.588, 61.855 65.110 C 62.972 64.403, 62.908 63.789, 61.490 61.626 C 60.544 60.182, 59.597 59, 59.385 59 C 59.173 59, 59 60.575, 59 62.500 M 95.684 60.449 C 93.585 61.197, 90.934 62.640, 89.793 63.655 C 86.931 66.199, 84.048 72.814, 84.022 76.895 L 84 80.291 93.750 79.706 C 109.058 78.788, 121.176 74.902, 123.307 70.227 C 124.299 68.048, 124.067 67.449, 121.254 64.936 C 115.390 59.696, 103.597 57.627, 95.684 60.449 M 52.767 66.441 C 51.263 70.250, 50.171 73.504, 50.339 73.673 C 50.508 73.841, 51.879 72.692, 53.387 71.118 C 55.671 68.734, 56.075 67.529, 55.814 63.886 L 55.500 59.515 52.767 66.441 M 101.756 92.750 C 99.996 96.673, 99.497 100.372, 98.891 114 C 98.078 132.289, 96.758 138.359, 88.619 161.250 C 86.125 168.262, 84.482 174, 84.966 174 C 86.516 174, 119.514 138.982, 119.158 137.716 C 118.969 137.047, 116.643 127.234, 113.987 115.909 C 108.970 94.509, 106.873 88, 104.995 88 C 104.386 88, 102.928 90.138, 101.756 92.750 M 120.376 131.315 C 121.043 133.617, 122.093 135.500, 122.711 135.500 C 124.631 135.500, 125.226 136.774, 124.179 138.644 C 123.077 140.613, 125.200 146, 127.078 146 C 127.643 146, 129.496 143.029, 131.195 139.397 C 134.602 132.116, 134.259 131.048, 128.500 131.012 C 126.850 131.001, 124.074 130.123, 122.332 129.061 L 119.164 127.129 120.376 131.315" stroke="none" fill="black" fill-rule="evenodd"/>
</svg>