<svg xmlns="http://www.w3.org/2000/svg" width="200" height="200" viewBox="0 0 200 200" version="1.1">
	<path d="M 48.500 10.858 C 44.100 12.470, 39.100 14.362, 37.388 15.062 C 34.628 16.191, 33.878 16.088, 30.742 14.150 L 27.207 11.965 24.567 15.102 C 13.531 28.218, 16.081 42.283, 30.963 50.383 C 36.859 53.593, 46.350 54.953, 49.834 53.089 C 55.864 49.862, 48.874 39.843, 33.367 29.486 C 30.140 27.331, 27.109 25.252, 26.631 24.865 C 26.153 24.478, 27.647 23.200, 29.951 22.025 L 34.140 19.888 46.320 27.765 C 53.019 32.097, 61.745 37.634, 65.712 40.071 L 72.924 44.500 66.712 46.046 C 57.832 48.256, 56.516 49.403, 53.844 57.256 C 51.850 63.118, 51.100 64.229, 48.824 64.685 C 47.011 65.048, 46.327 65.687, 46.703 66.668 C 47.008 67.464, 47.929 67.858, 48.748 67.543 C 49.925 67.091, 50.111 67.553, 49.633 69.736 C 45.766 87.374, 44.702 97.474, 44.604 117.500 C 44.547 129.050, 44.883 146.713, 45.350 156.750 C 46.320 177.557, 46.810 176.517, 37.522 173.353 C 31.181 171.192, 23.572 163.862, 22.105 158.500 C 18.637 145.820, 22.517 130.738, 37.131 100.099 C 40.909 92.179, 44 85.541, 44 85.349 C 44 85.157, 43.396 85, 42.657 85 C 41.160 85, 29.891 107.871, 24.617 121.615 C 15.463 145.470, 16.102 160.736, 26.640 169.989 C 30.849 173.684, 36.671 176.505, 42.181 177.519 C 44.205 177.892, 46.104 178.827, 46.399 179.598 C 47.262 181.846, 52.074 181.221, 56.264 178.317 C 58.393 176.842, 66.358 168.629, 73.963 160.067 C 81.569 151.505, 89.864 142.494, 92.396 140.042 L 97 135.584 97 138.539 C 97 142.522, 91.160 159.837, 89.126 161.884 C 82.320 168.735, 81.260 173.485, 85.750 177.020 C 88.134 178.898, 89.499 179.138, 96 178.827 C 109.113 178.200, 119.651 170.832, 124.041 159.221 C 127.039 151.291, 126.425 137.558, 122.627 127.631 C 119.563 119.618, 119.391 113.166, 121.333 78.938 L 122.500 58.375 132.357 45.188 C 137.779 37.934, 142.329 32, 142.468 32 C 142.608 32, 141.249 35.938, 139.448 40.750 C 135.120 52.319, 134.483 57.160, 136.319 64.539 C 139.594 77.702, 139.481 91.873, 136.113 90.406 C 135.226 90.020, 132.395 89.238, 129.823 88.669 C 126.216 87.872, 124.785 87.934, 123.573 88.940 C 120.525 91.469, 121.829 96.203, 130.477 114 C 143.480 140.757, 144.639 148.596, 136.758 156.477 C 131.923 161.312, 131.013 163.529, 130.808 170.978 C 130.558 180.045, 133.753 185.025, 139.797 184.990 C 143.561 184.969, 152.444 179.722, 157.520 174.523 C 172.130 159.559, 176.610 139.973, 169.420 122.500 C 166.806 116.147, 166.558 114.531, 166.737 105.015 C 167.009 90.569, 168.530 81.607, 173.187 67 C 179.005 48.755, 178.410 40.781, 170.451 30.347 C 168.423 27.688, 168.076 26.376, 168.576 23.250 C 169.487 17.556, 167.482 11.159, 164.557 10.425 C 162.005 9.784, 158.755 11.109, 155.398 14.160 C 153.345 16.026, 152.599 16.033, 122.786 14.474 C 89.801 12.750, 82.887 12.800, 82.240 14.766 C 81.988 15.531, 84.134 17.048, 87.661 18.599 C 100.725 24.344, 101.361 29.002, 89.942 35.293 C 87.780 36.484, 87.021 37.421, 87.683 38.083 C 88.344 38.744, 90.329 38.254, 93.589 36.623 C 107.809 29.511, 115.068 33.863, 118.055 51.286 C 119.432 59.320, 120.426 57.419, 102.127 81.737 C 88.926 99.281, 80.371 108.170, 78.884 105.889 C 77.617 103.946, 79.194 93.694, 82.674 81.250 C 84.126 76.057, 84.184 76, 88.071 76 C 90.232 76, 92 75.543, 92 74.985 C 92 73.341, 85.991 70.107, 78.867 67.916 L 72.235 65.876 74.468 57.688 C 76.002 52.064, 77.218 49.399, 78.351 49.177 C 79.258 48.999, 82.466 49.982, 85.481 51.362 C 88.550 52.768, 91.216 53.460, 91.540 52.936 C 92.520 51.350, 91.333 50.441, 84.467 47.524 C 78.710 45.077, 77.924 44.433, 78.464 42.604 C 78.805 41.447, 79.351 36.192, 79.678 30.926 C 80.367 19.809, 79.358 15.675, 74.916 11.420 C 72.178 8.797, 71.120 8.481, 64.189 8.218 C 57.715 7.973, 55.235 8.390, 48.500 10.858 M 56.500 11.443 C 53.200 12.184, 47.440 14.019, 43.699 15.521 L 36.899 18.253 43.199 22.479 C 54.248 29.889, 73.864 42, 74.817 42 C 77.081 42, 77.847 21.206, 75.735 17.096 C 72.726 11.242, 66.091 9.292, 56.500 11.443 M 155.970 17.118 C 150.165 21.707, 146.442 28.598, 141.011 44.809 C 137.619 54.933, 137.390 58.140, 139.500 66 C 140.405 69.371, 140.981 76.090, 140.988 83.357 C 140.999 94.257, 140.859 95.156, 139.250 94.501 C 128.624 90.173, 124.322 90.024, 124.802 94 C 124.968 95.375, 128.874 104.375, 133.483 114 C 142.835 133.532, 143.986 136.962, 143.994 145.300 C 144.001 151.947, 142.335 155.811, 137.998 159.205 C 132.901 163.193, 131.408 176.265, 135.573 180.430 C 140.480 185.337, 153.358 177.703, 161.998 164.765 C 170.545 151.966, 172.441 134.985, 166.672 122.904 C 164.280 117.894, 164 116.163, 164.004 106.404 C 164.009 92.662, 166.070 79.849, 170.473 66.187 C 176.298 48.111, 176.171 44.484, 169.335 33.569 C 166.303 28.729, 165.669 26.842, 165.886 23.305 C 166.279 16.912, 165.188 13, 163.010 13 C 162.003 13, 158.835 14.853, 155.970 17.118 M 25 19 C 22.550 22.441, 22.864 22.628, 27.300 20.373 C 31.552 18.211, 31.683 18.043, 29.971 16.961 C 27.759 15.562, 27.320 15.742, 25 19 M 93 17.949 C 98.614 20.932, 101.316 24.397, 100.795 27.944 C 100.348 30.986, 100.368 31, 105.096 31 C 113.283 31, 118.140 36.656, 120.381 48.799 L 121.594 55.373 127.691 46.937 C 131.044 42.296, 136.998 34.490, 140.923 29.588 C 144.848 24.687, 147.897 20.187, 147.699 19.588 C 147.349 18.529, 113.824 16.247, 97 16.137 L 89.500 16.088 93 17.949 M 20.448 28.425 C 18.662 37.944, 27.667 48.138, 40.367 50.974 C 50.077 53.142, 51.635 49.731, 44.443 42.043 C 40.335 37.651, 28.978 29.106, 23.297 26.133 C 21.266 25.070, 21.044 25.249, 20.448 28.425 M 63.625 49.469 C 61.493 50.229, 59.411 51.222, 58.998 51.675 C 58.035 52.731, 54.681 63.015, 55.148 63.480 C 55.342 63.673, 58.678 64.144, 62.563 64.526 L 69.626 65.222 71.813 57.240 C 73.016 52.851, 74 48.976, 74 48.630 C 74 47.525, 67.636 48.039, 63.625 49.469 M 111.445 73.776 C 101.515 87.674, 89.978 101.961, 85.582 105.807 C 82.936 108.121, 81.005 109.022, 79.150 108.807 C 76.664 108.519, 76.481 108.141, 76.199 102.698 C 75.870 96.382, 80.399 75.743, 82.596 73.547 C 83.576 72.567, 82.747 71.970, 78.578 70.656 C 75.688 69.745, 72.819 69, 72.201 69 C 71.583 69, 70.575 70.912, 69.962 73.250 C 69.348 75.588, 66.582 82.051, 63.816 87.614 C 58.848 97.600, 57.133 104.411, 58.358 109.291 C 58.691 110.616, 61.429 114.709, 64.443 118.386 C 70.320 125.556, 71.665 129.441, 70.592 136.152 C 69.647 142.058, 63.771 153.310, 55.892 164.298 C 51.693 170.155, 49 174.905, 49 176.455 C 49 177.855, 49.385 179, 49.856 179 C 52.211 179, 61.054 170.601, 73.724 156.331 C 92.890 134.743, 94.319 133.462, 98.750 133.882 C 100.985 134.093, 100.104 140.883, 96.394 152.053 C 93.779 159.924, 92.135 163.337, 90.414 164.464 C 87.470 166.393, 84.813 171.350, 85.611 173.428 C 85.939 174.282, 88.020 175.525, 90.235 176.189 C 98.915 178.789, 113.580 172.086, 119.237 162.932 C 124.853 153.847, 124.890 143.041, 119.363 126.776 L 116.657 118.812 117.969 91.880 C 118.691 77.067, 119.081 64.747, 118.835 64.502 C 118.590 64.257, 115.264 68.430, 111.445 73.776 M 51.743 74.131 C 47.637 92.156, 47.498 93.967, 47.647 127.500 C 47.728 145.650, 48.199 162.300, 48.693 164.500 L 49.593 168.500 54.912 161 C 57.837 156.875, 62.010 149.900, 64.183 145.500 C 67.676 138.430, 68.091 136.835, 67.756 131.779 C 67.421 126.725, 66.883 125.501, 63.146 121.279 C 53.311 110.168, 52.876 103.728, 60.864 87.500 C 66.041 76.984, 68.744 69.411, 67.696 68.363 C 67.352 68.019, 64 67.518, 60.247 67.250 L 53.422 66.761 51.743 74.131" stroke="none" fill="black" fill-rule="evenodd"/>
</svg>