<svg xmlns="http://www.w3.org/2000/svg" width="200" height="200" viewBox="0 0 200 200" version="1.1">
	<path d="M 142.500 11.681 C 133.051 11.982, 92.657 15.085, 92.149 15.548 C 91.956 15.724, 93.031 17.485, 94.538 19.462 C 96.046 21.438, 97.104 23.178, 96.889 23.330 C 93.053 26.044, 90.736 26.844, 87.855 26.450 C 86.010 26.197, 77.997 25.044, 70.048 23.887 C 43.781 20.064, 30.518 22.173, 26.412 30.826 C 24.699 34.436, 24.789 38.193, 26.932 52.500 C 28.703 64.318, 28.129 84.226, 25.487 102.687 C 22.275 125.127, 21.739 148.828, 24.331 153.740 C 29.744 163.996, 49.947 163.455, 72.719 152.444 C 81.566 148.166, 84.865 145.209, 83.414 142.861 C 82.417 141.247, 75.372 142.477, 64.455 146.169 L 55.015 149.363 52.410 146.931 C 50.978 145.594, 48.971 142.872, 47.950 140.883 L 46.095 137.266 52.602 136.600 C 67.241 135.100, 82.542 128.126, 85.693 121.517 C 87.263 118.226, 87.263 117.774, 85.694 114.484 C 83.935 110.796, 74.383 103.815, 69.376 102.558 C 65.093 101.483, 68.017 99.849, 75.263 99.267 C 83.358 98.617, 88.274 100.173, 91.233 104.322 C 93.178 107.048, 93.491 108.708, 93.438 116 C 93.363 126.194, 91.212 134.297, 82.901 155.689 C 79.656 164.043, 77 171.547, 77 172.365 C 77 174.223, 86.303 179.614, 91.010 180.484 C 100.497 182.237, 108.387 173.720, 112.943 156.809 C 115.190 148.470, 118 130.272, 118 124.063 C 118 121.530, 118.394 120.126, 119 120.500 C 119.550 120.840, 120 121.887, 120 122.826 C 120 125.379, 128.398 134.487, 132.584 136.473 C 139.356 139.686, 143.106 135.719, 144.993 123.350 C 145.567 119.582, 146.423 102.100, 146.894 84.500 C 147.559 59.676, 148.103 51.506, 149.321 48.067 C 150.185 45.629, 150.637 43.222, 150.326 42.718 C 149.201 40.899, 137.425 36.002, 134.173 36.001 C 129.980 36, 125.636 40.111, 124.054 45.579 C 123.429 47.735, 122.511 57.686, 122.013 67.692 C 121.034 87.381, 119.965 93.265, 116.736 96.750 C 113.868 99.845, 110.285 99.586, 102.823 95.747 C 96.720 92.606, 96.309 92.533, 91 93.650 C 78.617 96.255, 66.017 94.380, 62.055 89.343 C 59.388 85.952, 59.464 84.445, 62.455 81.455 C 67.394 76.515, 81.589 78.684, 95.597 86.517 L 101.894 90.038 104.902 80.649 C 110.076 64.494, 112.216 51.845, 111.693 40.500 C 111.439 35, 111.067 29.631, 110.866 28.568 C 110.560 26.952, 111.723 26.250, 117.977 24.270 C 135.340 18.773, 147.021 18.821, 152.611 24.411 C 157.251 29.051, 157.770 33.349, 154.963 43.868 C 151.884 55.407, 151.547 63.885, 152.991 93.500 C 154.759 129.786, 152.631 143.583, 144.074 151.314 C 140.587 154.465, 133.620 157, 128.451 157 C 127.653 157, 127 157.450, 127 158 C 127 159.552, 135.638 159.178, 139.782 157.447 C 150.489 152.975, 155.572 141.487, 156.133 120.500 C 156.280 115, 156.025 98.125, 155.566 83 C 154.756 56.344, 154.797 55.286, 156.904 48.519 C 159.506 40.162, 159.811 30.469, 157.606 26.205 C 152.474 16.281, 137.754 14.758, 116.360 21.939 C 109.007 24.407, 107.959 24.535, 105.527 23.260 C 104.046 22.484, 102.231 22.081, 101.493 22.364 C 100.755 22.648, 99.445 21.801, 98.581 20.484 C 97.048 18.144, 97.087 18.076, 100.256 17.564 C 109.160 16.123, 132.483 14.713, 149 14.618 C 170.728 14.492, 177.826 15.672, 182.307 20.153 C 185.970 23.816, 185.702 26.265, 180.052 40.751 C 172.149 61.015, 171.071 71.400, 175.500 84.595 C 177.815 91.490, 177.999 93.431, 177.990 110.771 C 177.964 158.254, 172.238 180, 159.761 180 C 156.369 180, 150.972 176.985, 144.564 171.511 C 137.028 165.073, 135.987 166.777, 143.293 173.591 C 150.583 180.389, 154.278 182.320, 160.193 182.420 C 164.225 182.489, 165.378 182.024, 168.377 179.118 C 177.138 170.630, 180.986 148.905, 180.996 107.877 C 181 92.745, 180.798 90.817, 178.750 86.377 C 176.808 82.168, 176.502 79.855, 176.517 69.500 L 176.534 57.500 181.767 43.747 C 189.229 24.136, 188.696 18.496, 179.015 14.623 C 173.775 12.526, 157.392 11.206, 142.500 11.681 M 42 25.069 C 35.372 25.813, 30.887 27.975, 29.119 31.278 C 27.754 33.829, 27.805 35.309, 30.007 57 C 31.416 70.875, 30.709 88.069, 28.034 104.974 C 26.949 111.834, 25.764 124.209, 25.401 132.474 C 24.636 149.880, 25.534 153.641, 31.171 156.635 C 38.969 160.778, 58.458 157.203, 74.400 148.706 C 82.681 144.293, 79.409 144.209, 66.148 148.496 C 53.802 152.488, 52.932 152.399, 48.591 146.708 C 43.637 140.213, 42.045 135.128, 42.022 125.718 C 41.981 109.505, 49.823 94.195, 54.086 102.161 C 55.682 105.143, 53.596 122.245, 50.414 132.270 C 49.823 134.132, 50.094 134.213, 54.641 133.533 C 62.707 132.326, 74.427 128.198, 78.819 125.016 C 83.364 121.724, 84.789 118.342, 83.021 115.040 C 81.547 112.285, 73.180 106.998, 65.500 103.968 C 62.200 102.666, 59.126 101.294, 58.669 100.919 C 58.212 100.545, 60.126 99.689, 62.922 99.019 C 68.770 97.616, 70.011 96.471, 66.610 95.617 C 65.303 95.289, 62.831 93.710, 61.117 92.109 C 58.694 89.846, 58 88.358, 58 85.428 C 58 83.354, 58.703 80.881, 59.562 79.931 C 61.019 78.322, 60.764 78.156, 55.812 77.488 C 52.891 77.094, 50.176 76.580, 49.781 76.346 C 49.048 75.912, 55.966 65.727, 63.446 56.229 L 67.597 50.959 66.597 44.911 C 65.089 35.793, 68.021 32.625, 73.617 37.328 L 76.500 39.751 82.412 34.376 C 85.731 31.358, 87.639 29, 86.761 29 C 85.902 29, 79.192 28.136, 71.849 27.081 C 55.309 24.703, 49.034 24.280, 42 25.069 M 98.750 27.083 C 97.787 28.137, 95.987 29.017, 94.750 29.038 C 93.513 29.058, 90.700 30.652, 88.500 32.579 L 84.500 36.083 94.246 31.292 C 99.607 28.656, 103.994 26.163, 103.996 25.750 C 104.004 24.295, 100.478 25.191, 98.750 27.083 M 95 34.072 C 88.675 37.370, 82.410 40.902, 81.077 41.919 L 78.654 43.769 80.737 48.635 C 85.209 59.081, 84.529 68.695, 78.987 73.358 L 76.011 75.861 81.756 77.515 C 84.915 78.425, 90.325 80.661, 93.778 82.484 L 100.057 85.799 101.473 82.411 C 105.989 71.603, 110.439 45.591, 109.354 36.352 C 108.288 27.283, 108.081 27.250, 95 34.072 M 69 41.833 C 69 46.585, 69.810 47.482, 72.169 45.347 C 74.483 43.253, 74.484 41.748, 72.171 39.655 C 69.495 37.233, 69 37.573, 69 41.833 M 129.131 41.561 C 126.356 45.088, 125.252 51.901, 124.548 69.824 C 123.775 89.529, 122.716 94.484, 118.339 98.861 C 115.290 101.910, 114.524 102.200, 110.824 101.703 C 108.558 101.399, 104.184 99.845, 101.102 98.249 C 96.010 95.611, 95.114 95.445, 91.266 96.423 L 87.032 97.500 89.829 99.096 C 98.060 103.794, 98.608 119.043, 91.331 140.943 C 90.498 143.449, 87.566 151.254, 84.816 158.286 C 80.869 168.374, 80.062 171.370, 80.988 172.486 C 82.886 174.772, 90.374 178, 93.781 178 C 97.677 178, 103.276 173.339, 106.153 167.699 C 109.439 161.260, 112.832 146.039, 114.507 130.227 C 116.910 107.541, 117.002 107, 118.454 107 C 120.168 107, 120.660 108.379, 121.524 115.593 C 122.323 122.269, 124.529 126.501, 129.473 130.842 C 134.344 135.119, 136.981 135.741, 139.108 133.116 C 142.268 129.213, 143.157 120.807, 143.984 87 C 144.601 61.786, 145.177 52.318, 146.313 48.722 L 147.821 43.943 142.944 41.472 C 136.454 38.183, 131.764 38.213, 129.131 41.561 M 71.011 51.250 C 59.411 66.277, 54.016 73.575, 54.008 74.250 C 54.004 74.662, 57.983 75, 62.852 75 C 70.411 75, 72.199 74.667, 75.088 72.720 C 79.870 69.497, 81.180 66.504, 80.655 60 C 80.191 54.251, 77.402 46, 75.923 46 C 75.450 46, 73.239 48.362, 71.011 51.250 M 48.051 108.103 C 46.844 110.910, 45.411 115.968, 44.867 119.344 C 43.865 125.564, 44.503 134.575, 46.012 135.507 C 47.320 136.316, 52 113.893, 52 106.816 C 52 101.595, 50.663 102.030, 48.051 108.103" stroke="none" fill="black" fill-rule="evenodd"/>
</svg>