<svg xmlns="http://www.w3.org/2000/svg" width="200" height="200" viewBox="0 0 200 200" version="1.1">
	<path d="M 150.175 26.750 L 136.850 33.500 117.675 33.654 C 107.128 33.739, 92.182 33.171, 84.457 32.391 C 66.236 30.551, 60.117 31.614, 50.673 38.257 C 45.762 41.711, 49.185 42.473, 54.492 39.107 C 61.799 34.473, 67.880 33.487, 80.434 34.900 C 86.245 35.554, 97.411 36.138, 105.249 36.198 C 113.087 36.258, 123.325 36.350, 128 36.403 C 136.497 36.500, 136.504 36.498, 149.500 30.116 C 156.650 26.605, 163.767 23.365, 165.315 22.917 C 169.571 21.685, 172.828 23.727, 175.732 29.449 C 179.230 36.340, 179.569 43.489, 177.531 67.320 C 176.599 78.221, 175.959 91.496, 176.109 96.820 C 176.259 102.144, 175.879 108.750, 175.265 111.500 C 174.651 114.250, 173.435 123.339, 172.563 131.697 C 170.777 148.818, 168.683 156.702, 163.974 164.041 C 160.661 169.203, 151.347 177.157, 146.423 179.029 C 140.486 181.287, 127.217 171.277, 122.080 160.665 C 117.870 151.968, 119.909 149.983, 128.410 154.503 C 133.843 157.392, 135.222 157.019, 139.407 151.533 C 147.090 141.460, 149.572 130.453, 150.915 100.500 C 151.564 86.016, 152.344 78.142, 153.428 75.124 C 156.715 65.975, 154.540 53.006, 148.168 43.744 C 144.719 38.731, 141.435 36.705, 137.511 37.168 C 131.753 37.848, 129 45.908, 129 62.085 C 129 79.740, 124.500 104.243, 117.919 122.415 C 110.366 143.275, 90.990 164.076, 71.143 172.633 C 69.139 173.497, 63.675 175.511, 59 177.108 L 50.500 180.012 55.480 175.756 C 85.229 150.330, 92.495 139.293, 98.878 109.827 C 102.023 95.312, 104.021 78.119, 104.696 59.764 L 105.311 43.028 101.406 41.392 C 93.402 38.039, 75.853 41.678, 68.380 48.240 C 63.601 52.436, 62.682 54.451, 61.882 62.500 C 61.499 66.350, 60.429 72.875, 59.505 77 C 55.428 95.192, 60.731 102.794, 76.778 101.764 C 88.546 101.009, 88.774 100.689, 65.148 118.096 C 46.195 132.060, 40.828 135.497, 33.817 138.162 C 26.700 140.866, 23.576 139.977, 19.916 134.206 C 14.553 125.750, 16.095 122.206, 28.500 114.475 C 43.666 105.023, 46.326 97.875, 39.881 83.892 L 36.761 77.125 38.881 72.747 C 43.462 63.283, 40.594 55.598, 29.593 47.859 L 22.686 43 30.843 43 C 37.427 43, 39 42.711, 39 41.500 C 39 39.434, 20.830 39.295, 19.126 41.348 C 17.794 42.953, 18.650 43.799, 27.814 49.934 C 36.026 55.432, 38.229 58.908, 37.737 65.592 C 37.507 68.707, 36.525 71.858, 35.206 73.711 L 33.050 76.738 35.964 82.119 C 41.270 91.917, 41.575 99.569, 36.863 104.708 C 35.563 106.125, 30.850 109.659, 26.388 112.559 C 13.865 120.702, 11.779 124.727, 15.899 132.803 C 19.264 139.398, 22.660 142.001, 27.886 141.990 C 35.840 141.973, 43.298 137.707, 69.303 118.301 C 76.894 112.635, 83.476 108, 83.928 108 C 84.380 108, 85.453 106.549, 86.312 104.776 C 88.695 99.856, 87.288 99, 76.812 99 C 71.893 99, 67.003 98.537, 65.945 97.970 C 60.799 95.216, 59.712 86.354, 62.963 73.644 C 64.043 69.422, 64.886 63.958, 64.837 61.501 C 64.697 54.524, 67.713 50.694, 76.760 46.363 C 82.274 43.723, 94.388 42.128, 99.390 43.383 L 102 44.038 101.989 55.769 C 101.961 86.769, 94.548 125.190, 85.845 139.445 C 80.078 148.892, 71.738 158.054, 58.354 169.645 C 46.618 179.808, 42.963 184, 45.835 184 C 46.294 184, 51.582 182.438, 57.585 180.530 C 69.427 176.765, 81.573 170.952, 89.022 165.484 C 95.857 160.466, 106.473 148.868, 112.049 140.328 C 122.967 123.603, 130.448 94.789, 131.606 65 C 132.216 49.332, 133.395 42.857, 136.084 40.424 C 138.729 38.031, 141.949 39.612, 145.784 45.187 C 151.920 54.106, 153.790 65.960, 150.562 75.468 C 149.460 78.714, 148.658 86.904, 147.977 101.838 C 147.435 113.752, 146.321 126.650, 145.502 130.500 C 143.792 138.539, 139.190 148.534, 135.679 151.832 L 133.272 154.093 129.886 152.143 C 122.494 147.887, 117 148.838, 117 154.375 C 117 160.918, 129.177 176.583, 137.151 180.299 C 143.837 183.414, 147.736 182.641, 155.014 176.758 C 169.668 164.912, 172.616 158.190, 175.513 130 C 176.389 121.475, 177.599 112.700, 178.202 110.500 C 178.804 108.300, 179.203 101.051, 179.087 94.390 C 178.971 87.730, 179.631 74.230, 180.553 64.390 C 181.476 54.551, 181.956 43.871, 181.621 40.657 C 180.904 33.789, 177.951 26.605, 174.259 22.750 C 169.887 18.184, 165.718 18.876, 150.175 26.750" stroke="none" fill="black" fill-rule="evenodd"/>
</svg>