<svg xmlns="http://www.w3.org/2000/svg" width="200" height="200" viewBox="0 0 200 200" version="1.1">
	<path d="M 145.578 16.914 C 142.454 20.366, 132.121 25.073, 124.443 26.542 C 113.268 28.680, 94.374 28.323, 70 25.512 C 48.725 23.058, 36.628 22.457, 32.229 23.636 L 29.959 24.244 30.154 68.372 C 30.370 117.036, 30.077 121.153, 24.349 150 C 19.667 173.578, 20.244 178.411, 27.522 176.584 C 34.718 174.778, 50.516 144.349, 56.427 120.907 C 59.566 108.460, 59.737 98.448, 56.987 88.107 C 50.526 63.813, 53.171 47.086, 64.526 40.432 C 73.002 35.465, 78.500 34.632, 102 34.755 C 113.825 34.816, 126.125 35.171, 129.334 35.541 L 135.167 36.216 132.334 39.192 C 128.950 42.747, 122.269 47.686, 115.776 51.433 L 111.052 54.160 108.851 49.630 C 106.733 45.271, 106.440 45.070, 101.075 44.313 C 98.009 43.880, 91.205 43.520, 85.956 43.513 C 70.950 43.493, 68.685 45.974, 66.473 64.858 C 65.724 71.261, 64.793 78.477, 64.404 80.894 L 63.698 85.288 70.849 84.584 C 74.781 84.196, 82.742 83.071, 88.538 82.083 L 99.078 80.288 96.979 82.522 C 95.825 83.751, 89.694 88.299, 83.354 92.628 C 65.011 105.156, 64 105.932, 64 107.487 C 64 109.753, 67.890 110.159, 74.492 108.582 C 77.787 107.794, 80.606 107.273, 80.756 107.422 C 81.419 108.086, 76.653 113.058, 74.241 114.218 C 72.553 115.031, 71.353 116.599, 70.964 118.500 C 70.626 120.150, 68.500 124.848, 66.239 128.939 L 62.128 136.378 70.814 139.640 C 76.145 141.642, 80.392 143.934, 81.808 145.575 L 84.117 148.247 81.931 150.573 C 79.041 153.649, 72.800 156.505, 59.816 160.691 C 48.425 164.363, 45.565 166.189, 48.685 167.794 C 49.683 168.307, 64.472 169.019, 81.548 169.376 C 107.113 169.910, 114.146 169.754, 121.374 168.494 C 132.341 166.582, 138.254 163.786, 137.813 160.723 C 137.268 156.938, 133.550 156.031, 118.528 156.015 L 104.556 156 106.569 153.987 C 107.676 152.879, 111.939 150.498, 116.041 148.695 C 127.017 143.870, 128 143.203, 128 140.581 C 128 138.024, 122.248 132.214, 117.060 129.531 C 112.304 127.072, 112.905 123.784, 118.895 119.480 C 121.619 117.523, 124.584 114.309, 125.582 112.232 C 127.639 107.952, 127.915 97.827, 126.148 91.515 C 125.039 87.558, 125.065 87.497, 129.901 82.515 C 135.633 76.612, 137 74.215, 137 70.069 C 137 66.733, 131.398 59.579, 127.922 58.475 C 126.865 58.140, 126 57.425, 126 56.886 C 126 56.348, 128.588 52.560, 131.750 48.470 L 137.500 41.034 138.162 75.267 C 138.843 110.439, 140.156 125.389, 143.990 141.641 C 148.370 160.206, 152.826 169.156, 161.484 176.777 C 166.675 181.346, 170.197 182.362, 174.545 180.546 C 178.189 179.023, 180.479 175.745, 183.203 168.151 C 186.071 160.155, 186.918 137.671, 184.646 129.853 C 181.851 120.238, 177.338 118.665, 172.591 125.651 L 170.208 129.159 169.169 125.829 C 165.979 115.598, 165.532 110.166, 165.970 87 C 166.766 44.901, 166.563 36.056, 164.658 29.709 C 162.962 24.057, 157.082 16.010, 154.634 15.991 C 154.010 15.986, 152.268 17.449, 150.762 19.241 L 148.024 22.500 148.613 19.371 C 149.329 15.564, 147.869 14.382, 145.578 16.914 M 147.568 27.750 L 140.848 36.500 141.335 74.500 C 141.603 95.400, 142.334 116.100, 142.959 120.500 C 145.718 139.933, 150.978 159.226, 155.204 165.412 C 160.415 173.040, 167.585 179, 171.549 179 C 174.251 179, 178.872 173.169, 180.492 167.715 C 185.386 151.236, 183.822 123.117, 178.074 124.224 C 177.211 124.391, 175.073 126.922, 173.323 129.851 L 170.142 135.175 168.651 132.293 C 163.693 122.704, 161.764 102.300, 163.202 74.636 C 164.906 41.865, 163.413 28.161, 157.440 21.719 C 156.054 20.223, 154.777 19, 154.603 19 C 154.430 19, 151.264 22.938, 147.568 27.750 M 141.985 23.046 C 138.603 25.643, 129.058 28.708, 120 30.105 C 110.535 31.564, 89.125 30.724, 67 28.025 C 57.925 26.918, 46.563 26.010, 41.750 26.006 L 33 26 33 67.826 C 33 114.236, 32.310 124.606, 27.764 146.500 C 24.254 163.404, 23.289 172.689, 24.877 174.277 C 26.406 175.806, 32.101 169.453, 37.556 160.133 C 47.595 142.984, 55.904 118.212, 56.200 104.549 C 56.301 99.916, 55.404 93.387, 53.583 85.500 C 50.107 70.443, 50.166 55.239, 53.727 48.432 C 56.682 42.783, 62.673 37.671, 69.619 34.871 C 75.379 32.549, 76.158 32.500, 107.380 32.500 L 139.259 32.500 142.252 27.205 C 143.897 24.293, 145.070 21.736, 144.857 21.524 C 144.644 21.311, 143.352 21.996, 141.985 23.046 M 123.346 49.763 C 119.411 52.368, 115.361 55.010, 114.346 55.633 C 111.465 57.400, 113.089 57.952, 118.054 56.893 C 121.864 56.080, 123.261 55.059, 126.850 50.463 C 129.197 47.459, 130.979 45.006, 130.809 45.013 C 130.639 45.020, 127.281 47.158, 123.346 49.763 M 76 47.197 C 72.163 49.221, 70.267 54.466, 69.023 66.500 C 68.398 72.550, 67.623 78.572, 67.302 79.882 L 66.717 82.263 73.609 81.530 C 77.399 81.127, 83.802 80.168, 87.838 79.399 C 96.605 77.728, 101.222 77.622, 102.661 79.061 C 103.409 79.809, 105.263 78.160, 108.946 73.474 C 113.873 67.205, 114.102 66.660, 112.967 63.920 C 111.836 61.189, 111.515 61.055, 107.632 61.690 C 98.189 63.234, 96.434 61.639, 103.469 57.907 C 105.961 56.585, 108 55.143, 108 54.702 C 108 52.845, 104.938 48.188, 103.287 47.535 C 99.605 46.076, 78.618 45.817, 76 47.197 M 120.613 62.837 C 117.437 67.419, 117.441 67.248, 120.351 74.578 C 121.645 77.835, 122.988 81.306, 123.336 82.291 C 123.925 83.959, 124.181 83.926, 127.048 81.806 C 131.159 78.767, 134 73.977, 134 70.087 C 134 66.586, 131.232 63.205, 126.261 60.635 C 123.237 59.071, 123.218 59.078, 120.613 62.837 M 115 61.441 C 115 63.764, 116.501 64.028, 117.808 61.935 C 118.853 60.263, 118.744 60, 117.008 60 C 115.904 60, 115 60.648, 115 61.441 M 103.865 84.173 C 97.557 92.053, 92.072 99.035, 91.677 99.688 C 90.442 101.731, 112.630 91.909, 119.664 87.300 L 121.859 85.863 119.353 79.207 C 117.976 75.546, 116.508 71.943, 116.092 71.199 C 115.565 70.258, 111.846 74.205, 103.865 84.173 M 97.006 86.067 C 95.084 87.709, 88.109 92.710, 81.506 97.180 C 66.887 107.075, 66.514 107.407, 71 106.515 C 83.222 104.086, 84.699 103.245, 91.796 94.675 C 102.625 81.598, 103.043 80.908, 97.006 86.067 M 113.500 93.601 C 109.100 95.991, 101.336 99.580, 96.246 101.578 C 87.674 104.942, 86.526 105.736, 80.671 112.355 C 77.194 116.285, 72.486 122.938, 70.209 127.141 L 66.068 134.782 72.072 137.027 C 75.374 138.262, 79.885 140.583, 82.097 142.186 C 85.510 144.657, 86.072 145.569, 85.810 148.199 C 85.333 152.970, 79.944 156.565, 65.975 161.429 L 53.717 165.698 84.108 166.399 C 116.277 167.141, 125.467 166.395, 133.159 162.418 L 136.456 160.713 133.978 159.662 C 132.581 159.069, 124.850 158.642, 116.250 158.682 C 107.862 158.722, 101.002 158.472, 101.004 158.127 C 101.006 157.782, 101.915 156.011, 103.025 154.191 C 104.906 151.106, 110.171 148.085, 122.250 143.163 C 126.628 141.379, 125.719 138.723, 119.250 134.404 C 112.115 129.640, 111 128.344, 111 124.807 C 111 122.588, 112.031 121.256, 115.899 118.477 C 121.782 114.251, 123.742 111.464, 124.598 106.112 C 125.244 102.074, 123.333 88.888, 122.137 89.128 C 121.787 89.198, 117.900 91.211, 113.500 93.601" stroke="none" fill="black" fill-rule="evenodd"/>
</svg>