<svg xmlns="http://www.w3.org/2000/svg" width="200" height="200" viewBox="0 0 200 200" version="1.1">
	<path d="M 72.605 12.872 C 70.589 15.113, 67.394 15.114, 58.484 12.879 C 55.583 12.151, 53.641 12.207, 51.484 13.080 L 48.500 14.289 52.374 15.273 L 56.248 16.257 55.685 21.015 C 55.097 25.973, 51.011 38.742, 39.209 72.500 C 32.726 91.043, 27.344 111.037, 28.854 110.972 C 29.209 110.957, 31.261 109.612, 33.414 107.983 C 43.172 100.599, 54.370 98.999, 79.563 101.390 C 103.532 103.665, 110.219 102.044, 114.798 92.854 C 117.313 87.805, 118.716 76.631, 117.589 70.624 C 116.346 63.997, 115.226 66.873, 114.815 77.750 C 114.355 89.894, 112.890 93.880, 107.734 97.016 C 102.941 99.931, 97.350 100.352, 82.445 98.922 L 68.872 97.619 73.186 95.883 C 75.559 94.929, 85.360 90.098, 94.967 85.147 C 109.134 77.847, 111.968 76.049, 109.967 75.626 C 107.457 75.096, 86.735 72.995, 84 72.994 C 83.175 72.993, 84.031 72.059, 85.903 70.918 C 92.890 66.658, 95.082 61.170, 92.634 54.063 L 91.213 49.938 94.680 48.489 C 100.347 46.122, 113.949 42, 116.097 42 C 117.856 42, 118.010 42.441, 117.405 45.750 C 117.028 47.813, 116.330 50.550, 115.853 51.834 C 114.924 54.333, 115.575 56.381, 117.015 55.491 C 118.014 54.874, 119.299 59.031, 121.625 70.396 C 123.827 81.158, 123.179 98.658, 120.345 105 C 118.112 109.996, 112.327 115.629, 108.422 116.609 C 101.205 118.420, 91.122 114.678, 82.714 107.067 L 77.500 102.348 74.256 104.570 C 70.600 107.075, 63.048 109.843, 42 116.393 C 25.548 121.513, 22.864 122.926, 24.910 125.392 C 25.964 126.661, 28.229 127, 35.658 127 C 44.357 127, 44.990 127.133, 44.015 128.750 C 43.435 129.713, 38.716 136.350, 33.529 143.500 C 28.342 150.650, 22.883 158.891, 21.398 161.813 C 19.072 166.390, 18.893 167.322, 20.111 168.539 C 21.328 169.756, 23.120 169.200, 33.053 164.521 C 47.003 157.950, 51.522 156.983, 55.026 159.818 C 57.251 161.620, 57.500 162.558, 57.500 169.160 C 57.500 173.197, 57.167 177.997, 56.760 179.827 C 56.021 183.146, 56.027 183.153, 59.260 182.525 C 61.042 182.179, 65.405 180.457, 68.956 178.698 C 77.362 174.534, 81.083 169.643, 84.512 158.253 C 85.961 153.439, 87.875 148.938, 88.765 148.250 C 92.265 145.546, 99.821 147.145, 113.735 153.534 C 117.813 155.406, 121.227 156.442, 121.558 155.906 C 121.881 155.383, 119.118 151.703, 115.417 147.728 C 107.454 139.174, 100 129.341, 100 127.390 C 100 124.166, 107.294 126.033, 131.294 135.398 C 137.781 137.929, 143.294 140, 143.544 140 C 143.795 140, 144 137.630, 144 134.734 C 144 131.838, 145.176 120.025, 146.612 108.484 C 149.903 82.051, 150.331 60.188, 147.723 51.754 C 145.568 44.785, 140.992 39.326, 135.130 36.733 L 130.760 34.800 135.130 32.186 C 138.222 30.336, 140.941 29.561, 144.427 29.536 C 149.011 29.502, 149.498 29.743, 151.427 33 C 153.421 36.367, 153.500 37.869, 153.500 72.500 C 153.500 92.300, 153.873 113.225, 154.329 119 C 155.372 132.218, 153.642 139.528, 145.600 155.898 C 138.343 170.669, 138.215 174.543, 144.873 177.931 C 149.288 180.177, 160.456 182, 169.804 182 L 176.725 182 177.330 176.750 C 179.349 159.247, 180.213 133.239, 180.348 85.979 L 180.500 32.458 183.858 25.637 C 185.705 21.885, 186.830 18.448, 186.358 17.999 C 185.886 17.550, 182.800 17.675, 179.500 18.278 C 169.991 20.014, 122.443 19.649, 100 17.668 C 75.922 15.543, 75.203 15.404, 74.811 12.817 L 74.500 10.766 72.605 12.872 M 58.579 21.214 C 58.209 24.175, 54.965 35.125, 51.371 45.548 C 42.645 70.849, 33.365 98.864, 32.603 102.201 L 31.987 104.901 38.243 101.995 C 44.628 99.029, 54.106 97.021, 61.785 97.008 C 65.743 97.001, 65.990 96.849, 65.012 95.022 C 64.253 93.604, 64.330 90.665, 65.286 84.630 L 66.619 76.215 60.745 75.551 C 52.960 74.670, 53.547 72.603, 61.695 72.206 L 67.732 71.912 68.357 66.706 C 69.373 58.246, 69.412 58.353, 65.510 58.809 C 59.062 59.562, 59.438 54.342, 66.404 46.411 C 69.028 43.424, 71.003 40.119, 71.187 38.411 C 71.464 35.832, 71.158 35.462, 68.500 35.166 C 61.427 34.380, 60.693 30.426, 66.008 21.750 L 68.917 17 66.209 16.986 C 64.719 16.979, 62.544 16.716, 61.376 16.403 C 59.455 15.887, 59.187 16.349, 58.579 21.214 M 68.250 23.223 C 64.165 29.978, 64.133 31.651, 68.072 32.516 C 69.761 32.887, 71.357 32.977, 71.618 32.716 C 71.879 32.454, 71.959 29.003, 71.796 25.045 L 71.500 17.850 68.250 23.223 M 75 25 C 75 29.926, 75.370 32.004, 76.250 32.013 C 76.938 32.020, 83.429 31.266, 90.675 30.337 C 106.751 28.276, 113.315 29.208, 117.465 34.141 C 118.859 35.798, 120 37.686, 120 38.336 C 120 38.987, 120.900 40.081, 122 40.768 C 124.415 42.276, 124.626 46.566, 122.530 51.581 C 121.192 54.786, 121.253 55.873, 123.218 63.799 C 126.162 75.678, 126.368 96.007, 123.624 103.886 C 119.895 114.596, 110.882 120.936, 101.250 119.625 C 95.140 118.794, 87.353 114.972, 81.890 110.124 L 77.576 106.296 73.038 108.561 C 68.769 110.691, 65.218 111.904, 39 120.184 L 28.500 123.500 39.250 123.784 C 45.163 123.940, 50 124.311, 50 124.609 C 50 124.907, 45.518 131.379, 40.041 138.992 C 29.659 153.421, 23.763 162.336, 22.736 165.159 C 22.308 166.335, 25.455 165.220, 33.538 161.334 C 46.148 155.270, 51.713 154.271, 56.265 157.254 C 59.761 159.545, 61.361 165.579, 60.482 173.155 C 59.688 179.993, 59.999 180.145, 67.571 176.619 C 74.662 173.317, 78.551 168.187, 81.660 158.034 C 84.691 148.137, 85.578 146.513, 88.743 145.071 C 92.407 143.402, 95.837 143.796, 104.809 146.919 C 114.184 150.182, 114.166 150.547, 105.154 139.951 C 95.002 128.015, 94.574 123.397, 103.640 123.619 C 106.998 123.702, 113.452 125.644, 124.418 129.874 C 133.166 133.248, 140.424 135.894, 140.545 135.754 C 140.666 135.614, 142.227 122.239, 144.014 106.032 C 148.504 65.305, 147.663 51.518, 140.211 43.675 C 136.563 39.835, 132.811 38, 128.609 38 C 123.250 38, 123.487 36.535, 129.491 32.550 C 143.017 23.572, 150.501 23.798, 154.665 33.309 C 156.349 37.155, 156.474 40.301, 156.189 71.500 C 155.988 93.396, 156.300 109.088, 157.064 115.579 C 158.700 129.477, 156.910 138.162, 148.929 155.043 C 142.147 169.389, 141.555 173.202, 145.770 175.381 C 149.663 177.394, 159.157 179, 167.165 179 C 173.403 179, 174.002 178.815, 174.450 176.750 C 176.387 167.809, 177.394 139.218, 177.504 90 C 177.573 59.475, 178.001 33.150, 178.456 31.500 C 178.911 29.850, 180.158 26.756, 181.226 24.625 L 183.169 20.749 175.834 21.356 C 150.723 23.436, 123.692 22.838, 90 19.459 C 82.025 18.659, 75.388 18.003, 75.250 18.002 C 75.112 18.001, 75 21.150, 75 25 M 89 33.145 C 85.425 33.639, 81.925 34.250, 81.222 34.501 C 80.163 34.880, 83.479 39.788, 89.565 46.850 C 89.731 47.043, 94.284 45.641, 99.683 43.735 C 105.083 41.829, 111.188 39.963, 113.250 39.589 C 117.522 38.815, 117.872 37.890, 114.931 35.150 C 111.424 31.883, 102.899 31.224, 89 33.145 M 74 36.059 C 74 36.641, 74.450 36.840, 75 36.500 C 75.550 36.160, 76 35.684, 76 35.441 C 76 35.198, 75.550 35, 75 35 C 74.450 35, 74 35.477, 74 36.059 M 75.731 39.750 C 74.862 40.712, 73.832 44.331, 73.442 47.792 L 72.732 54.084 79.485 51.542 C 83.199 50.144, 86.461 49, 86.734 49 C 87.514 49, 84.004 43.782, 81.183 40.750 C 78.174 37.514, 77.809 37.447, 75.731 39.750 M 119.704 47.171 C 118.966 52.675, 119.557 53.266, 120.907 48.374 C 121.486 46.276, 121.582 44.182, 121.120 43.720 C 120.658 43.258, 120.020 44.810, 119.704 47.171 M 67.115 49.676 C 63.210 54.414, 63.095 56.238, 66.728 55.816 C 69.102 55.541, 69.552 54.926, 70.207 51.063 C 70.621 48.623, 70.795 46.462, 70.595 46.262 C 70.394 46.061, 68.829 47.598, 67.115 49.676 M 79.865 54.234 L 72.231 57.244 71.558 63.190 C 71.188 66.460, 70.638 69.780, 70.336 70.568 C 68.995 74.062, 82.781 70.786, 87.389 66.515 C 88.781 65.226, 90.221 62.966, 90.591 61.495 C 91.280 58.749, 89.482 50.911, 88.210 51.112 C 87.819 51.174, 84.064 52.579, 79.865 54.234 M 69.692 75.750 C 68.504 77.843, 66.827 93.227, 67.693 94.093 C 68.632 95.032, 102 79.329, 102 77.948 C 102 77.599, 95.789 76.792, 88.198 76.156 C 71.947 74.795, 70.256 74.758, 69.692 75.750" stroke="none" fill="black" fill-rule="evenodd"/>
</svg>