<svg xmlns="http://www.w3.org/2000/svg" width="200" height="200" viewBox="0 0 200 200" version="1.1">
	<path d="M 47.517 13.973 C 47.138 14.586, 47.317 15.677, 47.916 16.398 C 50.423 19.419, 45.645 34.164, 34.273 58.500 C 24.831 78.704, 23 83.345, 23 87.068 C 23 90.435, 24.727 91.536, 28.514 90.586 C 32.126 89.679, 48.299 73.259, 57.665 60.991 C 70.062 44.751, 74.567 41.625, 79.594 45.772 C 82.449 48.128, 86.254 53.482, 89.408 59.584 C 91.973 64.546, 91.997 64.763, 90.396 68.584 C 89.165 71.524, 88.892 74.309, 89.301 79.756 C 89.776 86.068, 89.612 87.138, 88.038 87.980 C 84.389 89.932, 75.691 89.334, 67 86.533 C 55.944 82.970, 43.376 82.464, 40.065 85.449 C 38.560 86.805, 37.994 88.326, 38.201 90.449 L 38.500 93.500 57.694 93.134 C 75.933 92.786, 77.119 92.879, 81.519 95.009 L 86.149 97.251 83.007 100.492 C 81.279 102.275, 78.883 104.204, 77.683 104.777 C 76.482 105.351, 72.110 107.441, 67.968 109.422 C 60.670 112.911, 50.883 120.004, 50.131 122.350 C 49.928 122.982, 47.158 128.900, 43.974 135.500 C 34.458 155.229, 31.238 168.847, 34.335 176.259 C 37.374 183.532, 44.196 183.114, 53.757 175.071 C 56.916 172.413, 61.750 167.286, 64.500 163.677 C 67.250 160.068, 69.765 157.089, 70.089 157.058 C 70.414 157.026, 71.167 158.012, 71.763 159.250 C 73.764 163.405, 82.007 172.993, 86.173 176.010 C 93.860 181.579, 100.432 179.291, 104.390 169.668 C 106.918 163.522, 108.946 150.623, 109.919 134.500 C 110.773 120.358, 110.706 119.248, 108.749 115.097 C 106.612 110.564, 101.309 104.629, 94.770 99.453 L 91.040 96.500 103.146 86 C 109.804 80.225, 115.870 75.140, 116.626 74.700 C 117.780 74.028, 118 79.424, 118 108.450 L 118 143 120.874 143 C 125.709 143, 132.305 140.104, 136.256 136.248 C 143.746 128.938, 145.952 116.845, 144.054 93.500 C 143.428 85.800, 142.922 73.900, 142.930 67.055 C 142.946 53.433, 143.521 51.937, 149.250 50.602 L 152 49.962 152.013 73.731 C 152.025 96.279, 152.153 97.900, 154.513 105.288 C 157.672 115.179, 157.854 125.521, 154.981 131.852 C 152.287 137.790, 149.270 141.167, 139.714 148.940 C 130.146 156.724, 128.525 159.981, 131.714 165.017 C 134.082 168.757, 146.755 178.460, 152.897 181.236 C 161.455 185.104, 169.033 181.852, 173.509 172.388 C 178.166 162.546, 179.173 155.470, 179.718 128.795 C 180.201 105.150, 180.132 103.904, 178.111 99.730 C 175.293 93.909, 175.431 89.285, 178.999 69.842 C 183.315 46.327, 182.939 38.660, 177.343 36.110 C 173.744 34.471, 171.535 34.722, 164.372 37.588 C 160.813 39.012, 157.249 39.926, 156.451 39.620 C 155.329 39.189, 154.997 36.960, 154.985 29.781 C 154.968 19.759, 153.904 16.276, 151.724 19.109 C 150.663 20.488, 146.470 20.823, 122.493 21.449 L 94.500 22.179 75.500 18.178 C 50.761 12.968, 48.361 12.608, 47.517 13.973 M 51 20.165 C 51 26.003, 46.234 39.368, 37.465 58.115 C 30.775 72.419, 25 86.043, 25 87.523 C 25 87.785, 25.931 88, 27.070 88 C 29.843 88, 46.872 70.918, 54.983 60 C 66.387 44.648, 71.558 40.305, 77.005 41.501 C 80.546 42.279, 86.505 48.632, 90.894 56.309 C 92.720 59.504, 94.279 61.968, 94.357 61.783 C 94.436 61.599, 97.352 58.483, 100.837 54.859 L 107.175 48.270 100.337 43.768 C 96.577 41.291, 89.675 37.561, 85 35.477 C 74.241 30.681, 72 29.211, 72 26.952 C 72 25.038, 73.011 24.557, 79.500 23.383 C 83.220 22.710, 82.619 22.472, 70.923 19.988 C 64.006 18.520, 56.693 17.050, 54.673 16.722 L 51 16.126 51 20.165 M 109.297 24.795 C 108.602 25.237, 112.193 26.548, 117.797 27.898 C 123.134 29.184, 133.012 31.921, 139.750 33.981 L 152 37.725 152 30.863 L 152 24 131.250 24.015 C 119.838 24.024, 109.959 24.375, 109.297 24.795 M 81.311 25.913 C 78.458 26.260, 75.882 26.785, 75.587 27.079 C 75.293 27.374, 80.814 30.405, 87.856 33.816 C 94.898 37.227, 102.528 41.616, 104.810 43.570 L 108.960 47.122 113.671 43.525 C 117.488 40.611, 118.535 40.204, 119.194 41.383 C 119.642 42.183, 120.298 48.230, 120.653 54.821 L 121.297 66.806 131.128 59.254 C 136.536 55.101, 141.224 50.869, 141.547 49.851 C 141.882 48.797, 143.075 47.998, 144.317 47.995 C 147.293 47.988, 152.486 43.709, 151.773 41.851 C 151.101 40.099, 136.140 35.377, 112.179 29.354 C 95.106 25.062, 91.557 24.666, 81.311 25.913 M 165.220 39.987 C 161.362 41.738, 161.059 42.122, 162.159 43.884 C 163.739 46.414, 162.126 48.525, 157.978 49.354 L 155 49.950 155 73.818 C 155 95.793, 155.172 98.156, 157.162 103.593 C 158.803 108.079, 159.344 111.905, 159.412 119.500 C 159.491 128.512, 159.236 129.994, 156.832 134.500 C 154.132 139.561, 149.202 144.710, 138.750 153.383 C 129.820 160.793, 130.838 163.446, 146.806 174.394 C 152.384 178.218, 155.046 179.394, 158.983 179.772 C 163.720 180.228, 164.220 180.046, 167.331 176.748 C 174.243 169.419, 177.324 153.381, 177.371 124.482 C 177.401 105.512, 177.281 104.211, 175.067 99.638 C 172.290 93.902, 172.501 89.222, 176.489 68.057 C 179.429 52.457, 179.776 41.919, 177.429 39.571 C 175.316 37.458, 170.423 37.625, 165.220 39.987 M 156.029 44.961 C 155.220 45.473, 154.848 46.182, 155.204 46.537 C 156.167 47.501, 160.121 46.005, 159.456 44.928 C 158.738 43.768, 157.903 43.776, 156.029 44.961 M 113.308 47.231 C 111.817 48.861, 111.461 50.063, 112.046 51.500 C 114.082 56.505, 111.680 67.226, 108.014 69.491 C 105.762 70.883, 105.029 68.779, 106.925 66.368 C 110.171 62.242, 111.385 57.344, 109.995 53.987 L 108.795 51.091 105.795 53.296 C 104.144 54.508, 101.064 57.667, 98.949 60.316 C 95.560 64.560, 95.235 65.422, 96.214 67.570 C 97.531 70.462, 96.652 71.786, 94.565 70.054 C 92.426 68.279, 91.573 72.493, 92.359 80.954 C 93.074 88.649, 92.134 90.214, 86 91.527 L 82.500 92.276 85.602 93.749 L 88.704 95.223 103.381 82.383 L 118.058 69.543 117.779 57.603 C 117.609 50.340, 117.086 45.526, 116.442 45.312 C 115.861 45.119, 114.450 45.983, 113.308 47.231 M 130.389 63.262 L 121.278 70.500 120.813 94.210 C 120.557 107.251, 120.554 122.933, 120.806 129.059 L 121.265 140.197 124.212 139.608 C 138.139 136.822, 142.979 125.771, 141.526 100.073 C 141.103 92.608, 140.475 79.643, 140.129 71.262 L 139.500 56.025 130.389 63.262 M 42.250 86.662 C 41.563 86.940, 41 88.029, 41 89.083 C 41 90.825, 41.752 90.991, 49.250 90.901 C 53.788 90.847, 59.975 90.492, 63 90.113 L 68.500 89.423 61.303 87.711 C 54.476 86.088, 44.970 85.565, 42.250 86.662 M 86.122 101.370 C 83.909 103.726, 83.908 103.743, 85.948 104.276 C 89.675 105.251, 88.090 107.735, 81.592 111.104 C 75.564 114.230, 75.268 114.545, 76.592 116.436 C 78.929 119.772, 78.205 124.358, 74.023 132.715 C 69.836 141.080, 59.883 152.975, 54.926 155.538 C 47.910 159.166, 44.534 155.666, 45.185 145.441 L 45.602 138.886 43.671 142.649 C 40.077 149.654, 36.877 160.467, 36.317 167.500 C 35.842 173.451, 36.048 174.855, 37.687 176.872 C 39.283 178.834, 40.169 179.122, 42.823 178.539 C 47.685 177.471, 55.313 170.870, 63.152 160.945 L 70.208 152.012 74.123 158.069 C 79.402 166.236, 86.758 173.974, 90.906 175.722 C 94.006 177.028, 94.546 176.987, 96.906 175.264 C 100.470 172.663, 102.790 167.603, 104.488 158.726 C 106.285 149.335, 108.304 121.544, 107.400 118.653 C 106.088 114.462, 100.762 107.843, 95.167 103.450 C 92.050 101.003, 89.241 99.001, 88.924 99.001 C 88.608 99, 87.347 100.066, 86.122 101.370 M 77.861 109.049 L 75.500 111.099 79 109.422 C 83.346 107.340, 83.736 107, 81.777 107 C 80.922 107, 79.159 107.922, 77.861 109.049 M 65.500 113.526 C 63.300 114.881, 61.852 115.992, 62.282 115.995 C 63.846 116.005, 69.773 113.176, 70.437 112.102 C 71.506 110.372, 69.842 110.852, 65.500 113.526 M 68.500 117.638 C 59.623 119.440, 54.616 121.583, 52.974 124.283 C 50.573 128.231, 47.759 142.406, 48.166 148.500 C 48.460 152.906, 48.786 153.540, 50.906 153.840 C 52.798 154.107, 54.851 152.584, 60.534 146.695 C 71.467 135.364, 78.474 119.547, 73.418 117.607 C 72.548 117.273, 71.536 117.052, 71.168 117.116 C 70.801 117.180, 69.600 117.415, 68.500 117.638" stroke="none" fill="black" fill-rule="evenodd"/>
</svg>