<svg xmlns="http://www.w3.org/2000/svg" width="200" height="200" viewBox="0 0 200 200" version="1.1">
	<path d="M 62 17 C 61.135 18.616, 61.240 19, 62.544 19 C 63.842 19, 64.020 19.631, 63.454 22.210 C 61.499 31.112, 55.764 39.460, 49.593 42.389 C 45.326 44.414, 36.061 44.470, 31.346 42.500 C 29.371 41.675, 27.638 41, 27.493 41 C 27.349 41, 26.993 60.688, 26.703 84.750 C 26.160 129.703, 25.929 132.929, 21.421 158.500 C 19.338 170.312, 19.007 174.085, 19.863 176.250 C 22.495 182.907, 28.300 177.917, 36.440 162 C 46.857 141.634, 52.669 118.744, 50.172 107.926 C 49.509 105.052, 49.103 102.564, 49.270 102.397 C 50.249 101.418, 73.826 97.943, 77.769 98.196 L 82.500 98.500 71.270 105.476 C 65.094 109.312, 59.820 113.027, 59.550 113.731 C 59.275 114.448, 60.804 116.166, 63.030 117.639 C 71.780 123.429, 73.667 132.040, 68.504 142.606 C 66.268 147.180, 62.083 152.003, 49.812 164.145 C 41.115 172.749, 34 180.287, 34 180.895 C 34 181.503, 34.961 182, 36.135 182 C 39.967 182, 58.012 174.124, 62.379 170.546 C 64.722 168.625, 69.308 165.819, 72.570 164.310 C 77.962 161.815, 79.865 161.518, 93.546 161.033 C 113.994 160.309, 116.005 158.888, 114.669 146.106 C 114.341 142.969, 112.723 136.271, 111.072 131.221 L 108.072 122.039 109.952 114.689 C 110.985 110.647, 112.574 105.575, 113.481 103.420 C 114.999 99.812, 115.237 99.644, 116.469 101.310 C 117.205 102.305, 119.434 109.730, 121.422 117.810 C 125.086 132.706, 128.203 140.609, 131.095 142.340 C 135.520 144.988, 140.406 140.102, 145.545 127.894 C 148.123 121.768, 148.168 121.329, 146.953 114.223 C 146.012 108.724, 145.920 101.938, 146.586 87.191 C 148.215 51.108, 147.821 45.317, 143.371 40.029 C 141.277 37.540, 140.080 37.004, 136.661 37.022 C 134.372 37.034, 130.478 37.961, 128.006 39.082 C 123.190 41.267, 117.488 41.097, 111.500 38.589 L 108.500 37.333 112.384 36.596 C 114.520 36.191, 124.090 33.641, 133.650 30.930 C 143.210 28.218, 151.445 26, 151.951 26 C 152.706 26, 153.572 64.059, 154.162 123.137 C 154.262 133.104, 151.488 141.363, 144.973 150.500 C 137.475 161.015, 135.630 165.349, 136.949 169.344 C 138.851 175.107, 153.281 187.202, 155.463 184.862 C 156.182 184.091, 156.154 183.622, 155.375 183.333 C 152.615 182.311, 143.291 174.674, 141.250 171.764 C 138.159 167.357, 138.409 165.064, 142.662 158.850 C 157.934 136.536, 156.828 143.216, 156.226 76.907 L 155.731 22.314 162.615 21.664 C 166.402 21.307, 173.025 21.011, 177.334 21.007 L 185.168 21 182.221 24.750 C 176.578 31.931, 175.526 34.893, 175.560 43.500 C 175.581 48.904, 176.237 53.285, 177.579 57 C 179.385 61.996, 179.448 63.050, 178.261 68.500 C 177.352 72.676, 177.038 81.188, 177.228 96.500 C 177.898 150.652, 177.021 160.091, 170.034 173.932 C 168.105 177.755, 167.402 180.131, 168.078 180.548 C 169.670 181.532, 171.617 178.352, 174.842 169.500 C 179.613 156.407, 180.443 149.093, 179.953 124.500 C 179.282 90.848, 179.513 77.168, 180.884 69.380 C 182.037 62.826, 181.962 61.686, 179.940 55.027 C 178.298 49.624, 177.868 46.228, 178.240 41.602 C 178.805 34.566, 180.580 30.578, 185.639 24.978 C 187.578 22.832, 188.876 20.608, 188.523 20.038 C 188.107 19.365, 178.891 19, 162.287 19 C 127.974 19, 67.733 17.060, 66.550 15.917 C 65.001 14.422, 63.143 14.864, 62 17 M 66.637 20.146 C 62.685 34.212, 59.838 39.093, 52.917 43.673 C 48.240 46.769, 39.814 47.871, 33.710 46.186 L 30 45.161 29.996 74.331 C 29.991 115.966, 28.264 139.355, 23.531 161.853 C 19.397 181.506, 24.215 180.496, 34.754 159.500 C 43.341 142.390, 48.648 122.659, 47.732 111.244 C 47.448 107.708, 46.717 104.317, 46.108 103.708 C 43.716 101.316, 45.158 100.153, 52.046 98.922 L 59.093 97.663 54.603 93.082 C 52.134 90.562, 49.638 87.233, 49.057 85.685 C 46.332 78.427, 48.943 70.182, 56.539 62.062 L 61.192 57.087 57.846 55.005 C 56.006 53.859, 53.273 52.661, 51.772 52.341 C 48.407 51.623, 46.113 49.244, 48.137 48.571 C 48.887 48.322, 54.450 47.192, 60.500 46.060 C 81.286 42.171, 86.795 40.531, 89.159 37.525 C 91.243 34.876, 91.569 34.798, 97.912 35.420 C 103.888 36.007, 106.357 35.557, 124.500 30.567 C 157.256 21.557, 155.743 22.424, 140 21.682 C 132.575 21.332, 113.732 20.775, 98.126 20.444 C 82.520 20.113, 69.137 19.606, 68.384 19.317 C 67.632 19.029, 66.846 19.402, 66.637 20.146 M 92.813 38.683 C 93.534 38.972, 94.397 38.936, 94.729 38.604 C 95.061 38.272, 94.471 38.036, 93.417 38.079 C 92.252 38.127, 92.015 38.364, 92.813 38.683 M 96 40.897 C 90.184 42.412, 89.467 42.875, 89.184 45.295 C 88.955 47.250, 89.315 48, 90.483 48 C 93.352 48, 97.578 50.779, 98.805 53.472 C 100.237 56.615, 100.339 61.331, 99.071 65.754 C 98.215 68.738, 98.290 68.915, 100.015 67.992 C 101.045 67.441, 102.169 66.535, 102.512 65.980 C 103.635 64.164, 110.855 61, 113.878 61 C 118.202 61, 119.898 61.901, 121.537 65.072 C 125.144 72.047, 122.128 85.744, 115.451 92.713 C 111.858 96.462, 110.803 97, 107.039 97 C 101.557 97, 97.090 94.263, 92.672 88.197 C 85.371 78.172, 84.892 76.429, 85.632 62.581 L 86.297 50.146 81.899 51.100 C 79.479 51.624, 74.756 53.386, 71.401 55.015 L 65.302 57.976 67.256 63.738 C 69.628 70.733, 69.123 78.388, 65.547 89.649 C 63.848 94.998, 63.542 97.006, 64.480 96.646 C 67.051 95.660, 79.922 94.764, 82.440 95.396 C 87.968 96.783, 84.973 100.466, 72 108.236 C 67.325 111.036, 63.353 113.438, 63.174 113.573 C 62.995 113.708, 64.857 115.671, 67.313 117.934 C 72.998 123.175, 74.350 126.489, 73.815 133.878 C 73.177 142.694, 68.826 149.208, 53.190 164.750 C 45.859 172.038, 40.148 178, 40.500 178 C 43.012 178, 57.506 170.831, 62 167.366 C 71.228 160.252, 76.243 158.780, 93.600 158.096 C 112.347 157.356, 112.427 157.309, 111.743 147.530 C 111.472 143.664, 109.884 136.312, 108.213 131.193 L 105.175 121.886 107.630 112.713 C 111.498 98.260, 114.999 94.017, 118.566 99.461 C 119.497 100.882, 121.988 108.840, 124.102 117.147 C 128.893 135.979, 128.675 135.317, 131.112 138.415 C 134.107 142.222, 136.421 140.398, 141.181 130.479 L 145.192 122.119 143.929 112.876 C 142.906 105.394, 142.914 99.099, 143.967 79.854 C 145.650 49.080, 144.816 42.409, 138.980 39.992 C 136.640 39.023, 135.182 39.264, 129.410 41.573 L 122.600 44.297 113.550 42.050 C 108.573 40.815, 104.050 39.669, 103.500 39.504 C 102.950 39.339, 99.575 39.966, 96 40.897 M 74.500 45.998 C 70.100 46.997, 63.884 48.344, 60.687 48.991 L 54.873 50.168 59.295 52.972 L 63.716 55.776 70.686 52.316 C 74.520 50.413, 79.534 48.604, 81.828 48.296 C 85.036 47.866, 86 47.305, 86 45.868 C 86 43.606, 84.982 43.617, 74.500 45.998 M 88.627 53.842 C 88.294 55.854, 88.017 61.460, 88.011 66.300 C 87.999 76.010, 88.743 78.161, 95.033 86.596 C 103.366 97.772, 111.730 96.996, 117.623 84.500 C 120.763 77.841, 120.954 67.954, 118 65 C 116.900 63.900, 115.438 63.010, 114.750 63.022 C 111.950 63.071, 105.196 66.979, 100.353 71.352 C 95.559 75.681, 92.999 77.038, 93.001 75.250 C 93.001 74.838, 93.901 72.133, 95.001 69.239 C 97.154 63.574, 97.596 56.983, 96.021 54.039 C 95.483 53.033, 93.735 51.755, 92.137 51.198 C 89.324 50.217, 89.212 50.301, 88.627 53.842 M 58.247 64.348 C 52.763 70.298, 51 74.003, 51 79.582 C 51 84.953, 53.332 89.390, 57.947 92.802 L 61.021 95.075 62.080 92.290 C 66.610 80.375, 67.063 65.247, 63.026 60.712 C 62.640 60.279, 60.490 61.915, 58.247 64.348" stroke="none" fill="black" fill-rule="evenodd"/>
</svg>