<svg xmlns="http://www.w3.org/2000/svg" width="200" height="200" viewBox="0 0 200 200" version="1.1">
	<path d="M 82 12.526 C 81.175 12.688, 77.125 13.348, 73 13.994 C 68.875 14.640, 58.376 16.968, 49.668 19.169 C 34.510 22.999, 33.511 23.126, 26.168 22.141 C 18.307 21.087, 15.402 21.802, 17.800 24.200 C 18.460 24.860, 19 26.364, 19 27.543 C 19 28.722, 21.187 32.794, 23.860 36.593 C 29.585 44.728, 53.807 71.238, 54.898 70.563 C 55.312 70.307, 57.192 67.062, 59.076 63.351 C 62.040 57.511, 62.500 55.630, 62.500 49.354 L 62.500 42.103 67 44.698 C 69.475 46.125, 71.645 47.410, 71.823 47.553 C 72 47.696, 70.150 51.342, 67.711 55.656 C 65.271 59.970, 59.642 70.925, 55.201 80 C 42.886 105.167, 34.341 117.064, 21.820 126.476 C 18.477 128.989, 15.063 131.425, 14.233 131.889 C 11.105 133.640, 19.075 153.697, 28.665 168.208 C 39.413 184.471, 48.985 187.525, 52.466 175.801 C 54.477 169.032, 54.431 154.838, 52.373 146.831 C 48.887 133.267, 52.033 116.541, 63.563 87.343 C 73.612 61.893, 77.238 50.765, 75.777 49.862 C 75.107 49.448, 74.826 48.840, 75.155 48.512 C 75.483 48.184, 78.315 49.049, 81.449 50.435 C 85.404 52.184, 86.919 53.344, 86.403 54.227 C 85.994 54.927, 84.448 57.300, 82.967 59.500 C 79.067 65.292, 76 71.623, 76 73.880 C 76 74.958, 73.750 79.106, 71 83.098 C 65.467 91.130, 64.578 95, 68.268 95 C 72.396 95, 83.160 86.730, 99 71.388 L 108.500 62.187 113.749 64.343 C 120.024 66.921, 120.280 68.236, 115.971 75.749 C 110.851 84.676, 101.517 88.823, 89.629 87.453 C 81.113 86.471, 82.632 88.366, 94.022 92.937 C 99.235 95.029, 105.190 97.481, 107.257 98.386 L 111.013 100.032 109.454 103.766 C 104.800 114.911, 97.784 122.879, 89.332 126.617 C 85.386 128.362, 83.952 129.510, 84.188 130.735 C 84.368 131.670, 89.309 136.499, 95.169 141.467 C 105.422 150.160, 105.826 150.655, 105.912 154.602 C 106.042 160.653, 102.801 164.846, 94.940 168.796 C 91.329 170.611, 84.386 172.902, 79.492 173.892 C 70.654 175.682, 67.743 177.482, 72.179 178.414 C 79.585 179.971, 105.310 181.094, 113.500 180.217 C 118.450 179.687, 132.421 179.479, 144.547 179.753 C 173.598 180.411, 181 178.860, 181 172.114 C 181 170.248, 179.249 167.876, 174.656 163.519 C 171.167 160.208, 166.907 156.696, 165.189 155.713 L 162.066 153.926 159.101 159.800 C 155.706 166.525, 150.052 172, 146.500 172 C 140.438 172, 133.251 160.911, 132.276 150.053 C 131.203 138.097, 135.897 131.005, 145.407 130.216 C 148.908 129.926, 152.557 130.342, 155.603 131.380 C 160.040 132.892, 160.471 132.884, 162.276 131.251 C 165.114 128.682, 167.188 124.168, 166.511 122.034 C 165.589 119.131, 160.660 118.005, 148.601 117.944 C 130.441 117.851, 127.346 115.608, 132.477 106.261 C 136.220 99.443, 141.668 93.931, 145.788 92.793 C 147.743 92.253, 150.534 90.616, 151.991 89.156 L 154.640 86.500 157.968 88.750 C 165.590 93.903, 174.248 90.416, 181.935 79.096 C 184.171 75.803, 186 72.900, 186 72.644 C 186 72.388, 184.088 71.252, 181.750 70.120 C 175.692 67.187, 164.123 57.638, 144 38.961 C 125.177 21.491, 119.658 17, 117.013 17 C 115.478 17, 115.557 18.114, 117.887 29.397 C 120.818 43.585, 120.969 42.883, 112.834 52.817 L 107.883 58.861 100.692 55.831 C 96.736 54.164, 93.157 52.479, 92.737 52.087 C 92.317 51.695, 94.886 47.018, 98.446 41.694 C 109.364 25.366, 110.129 17.269, 101.096 13.655 C 97.425 12.186, 86.908 11.564, 82 12.526 M 74 16.479 C 66.358 17.777, 40 23.959, 40 24.454 C 40 24.603, 42.813 26.117, 46.250 27.817 C 49.688 29.517, 54.075 32.361, 56 34.138 C 60.325 38.129, 72.738 45.280, 73.994 44.504 C 74.502 44.190, 78.089 45.530, 81.965 47.482 L 89.013 51.032 95.985 40.453 C 106.066 25.157, 107.165 19.220, 100.436 16.409 C 96.316 14.687, 84.361 14.719, 74 16.479 M 119.659 23.750 C 120.042 25.262, 120.842 29.199, 121.435 32.498 C 122.169 36.577, 122.993 38.529, 124.008 38.596 C 124.828 38.651, 126.044 38.764, 126.710 38.848 C 129.097 39.148, 133.137 44.670, 138.163 54.500 C 149.760 77.180, 156.108 85.891, 162.604 88.034 C 165.515 88.995, 166.626 88.873, 169.774 87.246 C 173.104 85.525, 182.012 76.023, 181.992 74.213 C 181.988 73.821, 180.191 72.476, 177.999 71.224 C 172.380 68.015, 159.406 56.977, 138.529 37.643 C 128.644 28.489, 120.198 21, 119.760 21 C 119.321 21, 119.275 22.238, 119.659 23.750 M 21.676 25.750 C 20.879 27.105, 22.698 30.467, 28.139 37.689 C 35.531 47.503, 52.999 66.165, 54.373 65.717 C 56.316 65.083, 59.937 54.719, 59.969 49.700 C 60.020 41.834, 58.197 39.619, 47.091 34.046 C 33.244 27.097, 22.876 23.713, 21.676 25.750 M 123.871 41.250 C 123.800 41.388, 123.659 46.949, 123.557 53.609 L 123.372 65.717 129.651 68.452 C 133.104 69.957, 138.474 72.720, 141.586 74.594 C 144.697 76.467, 147.401 78, 147.595 78 C 147.789 78, 146.673 75.837, 145.114 73.194 C 143.556 70.551, 139.732 63.404, 136.616 57.314 C 131.101 46.532, 127.178 41, 125.048 41 C 124.471 41, 123.942 41.112, 123.871 41.250 M 115.712 53.495 C 113.078 56.701, 111.278 59.677, 111.712 60.109 C 112.145 60.542, 114.168 61.592, 116.206 62.443 L 119.911 63.990 120.521 60.742 C 120.856 58.956, 120.988 55.283, 120.815 52.581 L 120.500 47.667 115.712 53.495 M 70.478 56 C 69.464 57.925, 64.104 68.500, 58.567 79.500 C 53.030 90.500, 46.250 102.849, 43.500 106.943 C 37.762 115.485, 27.667 126.085, 20.744 130.839 C 15.268 134.599, 15.266 134.652, 20.213 146.736 C 26.255 161.497, 38.678 178.898, 44.206 180.344 C 47.029 181.082, 49.753 177.828, 50.503 172.822 C 51.418 166.716, 50.593 150.659, 48.980 143.167 C 46.142 129.987, 50.310 113.160, 66.933 70.685 C 72.752 55.817, 74.594 48.189, 70.478 56 M 86.835 58.319 C 83.374 63.020, 78.002 73.741, 78.001 75.948 C 78 76.745, 75.928 80.485, 73.395 84.260 C 70.862 88.035, 69.042 91.375, 69.349 91.682 C 70.418 92.751, 82.921 82.939, 93.926 72.393 C 100.017 66.557, 104.993 61.493, 104.984 61.141 C 104.974 60.788, 101.580 59.068, 97.440 57.319 L 89.913 54.137 86.835 58.319 M 120.098 73.476 C 116.286 82.673, 108.065 88.926, 98.112 90.195 C 96.369 90.418, 98.194 91.554, 104.862 94.400 C 109.888 96.545, 114 98.855, 114 99.534 C 114 100.213, 112.208 104.348, 110.019 108.722 C 105.374 118.002, 97.909 126.017, 91.429 128.682 C 88.998 129.682, 87.119 130.762, 87.254 131.081 C 87.389 131.401, 92.337 135.802, 98.250 140.861 C 108.805 149.893, 109 150.138, 109 154.334 C 109 163.368, 100.111 171.594, 86.500 175.156 L 81.500 176.465 94.500 177.597 C 102.086 178.257, 108.464 178.369, 109.815 177.864 C 111.088 177.389, 125.390 177, 141.597 177 C 173.234 177, 178 176.365, 178 172.151 C 178 170.282, 168.873 161.073, 164.929 158.962 C 163.345 158.114, 162.758 158.555, 161.078 161.847 C 156.170 171.467, 149.583 176.007, 143.464 173.988 C 134.138 170.910, 127.121 153.974, 129.944 141.358 C 132.639 129.318, 142.193 124.445, 155.345 128.403 C 159.906 129.776, 160.050 129.751, 162.004 127.268 C 166.338 121.758, 165.239 121.284, 146.812 120.708 C 133.175 120.282, 129.979 119.244, 127.837 114.543 C 126.972 112.644, 127.241 111.161, 129.230 106.845 C 132.068 100.690, 140.058 91.397, 143.295 90.486 C 148.470 89.031, 151 87.666, 151 86.331 C 151 83.226, 140.977 76.415, 127.901 70.634 L 122.302 68.159 120.098 73.476" stroke="none" fill="black" fill-rule="evenodd"/>
</svg>