<svg xmlns="http://www.w3.org/2000/svg" width="200" height="200" viewBox="0 0 200 200" version="1.1">
	<path d="M 45.500 15.358 C 34.833 20.357, 29.426 34.682, 30.156 56.010 C 30.469 65.172, 30.851 67.418, 32.272 68.457 C 34.936 70.405, 36.516 84.214, 35.043 92.675 C 33.705 100.357, 32.251 103.550, 26.882 110.592 C 24.747 113.393, 23 116.595, 23 117.708 C 23 120.882, 26.495 124.553, 34.549 129.841 L 41.984 134.722 37.175 141.111 C 24.393 158.088, 17.693 170.134, 18.187 175.249 C 18.645 180.009, 21.909 180.084, 28.583 175.487 C 39.419 168.025, 50.785 150.516, 51.776 139.763 C 52.137 135.841, 53.132 133.301, 55.682 129.795 C 60.382 123.333, 64.965 119.566, 66.394 120.991 C 67.107 121.702, 67.716 130.863, 68.110 146.797 C 68.593 166.364, 69.071 172.461, 70.411 176.124 C 72.506 181.852, 75.653 184.907, 80.223 185.649 C 83.347 186.156, 84.018 185.842, 86.346 182.790 C 91.679 175.799, 94.393 164.187, 95.963 141.642 C 97.798 115.293, 99.199 111.729, 108.133 110.671 C 114.025 109.973, 116.339 108.490, 113.992 106.917 C 112.577 105.969, 108.791 106.195, 102.810 107.585 C 100.741 108.066, 99.528 107.619, 97.560 105.651 C 92.531 100.622, 94.606 85.231, 102.886 66.140 C 105.055 61.140, 107.780 55.714, 108.941 54.083 L 111.053 51.117 106.684 49.185 C 104.282 48.122, 101.269 45.782, 99.990 43.986 C 97.744 40.832, 97.728 40.672, 99.522 39.360 C 101.904 37.618, 110.638 34.346, 115.178 33.494 C 121.864 32.240, 123.351 37.237, 120.983 53 C 119.237 64.627, 119.648 77.017, 122.013 84.039 C 124.018 89.990, 124.049 90.567, 122.540 93.929 C 118.297 103.384, 116.778 117.061, 119.060 125.277 C 120.443 130.258, 125.352 135.727, 129.458 136.861 C 134.230 138.178, 137.759 137.174, 141.499 133.434 C 148.237 126.696, 149.716 114.677, 146.473 93 C 145.143 84.114, 144.907 78.476, 145.434 68.194 C 146.424 48.856, 149.740 29.849, 151.399 34 C 152.775 37.442, 153.626 53.023, 152.819 60 C 152.299 64.501, 152.386 78.097, 153.037 94 C 154.441 128.282, 153.073 143.222, 147.553 153.898 C 146.140 156.629, 145.441 157, 141.697 157 C 136.665 157, 133 159.244, 133 162.325 C 133 170.405, 151.711 183, 163.714 183 C 171.087 183, 177.894 177.644, 179.956 170.219 C 182.175 162.229, 180.884 38.534, 178.590 39.308 C 177.927 39.531, 177.523 42.580, 177.558 47.088 C 177.590 51.164, 177.741 79.997, 177.895 111.160 C 178.164 165.960, 178.108 167.968, 176.174 172.339 C 173.534 178.309, 169.643 180.359, 162.005 179.807 C 151.452 179.043, 135.370 168.484, 136.168 162.843 C 136.465 160.745, 137.089 160.469, 142.134 160.204 L 147.769 159.907 150.302 154.204 C 155.560 142.365, 155.504 143.093, 155.440 87.500 C 155.377 32.761, 155.164 30.040, 150.870 29.214 C 144.524 27.991, 140.276 74.244, 144.423 99.414 C 147.260 116.631, 144.907 128.599, 137.818 133.012 C 133.705 135.573, 129.654 135.001, 125.809 131.317 C 118.792 124.595, 118.892 110.066, 126.076 92.374 C 127.161 89.701, 127.090 88.710, 125.589 85.546 C 122.221 78.449, 121.610 70.474, 123.379 56.685 C 125.692 38.656, 125.380 34.289, 121.600 31.765 C 119.266 30.207, 111.320 31.125, 105.500 33.625 C 96.153 37.640, 96.079 37.613, 92.347 28.750 L 89.083 21 94.291 21.016 C 97.156 21.025, 117.050 20.509, 138.500 19.868 C 175.754 18.756, 197 19.185, 197 21.050 C 197 21.934, 182.058 27, 179.448 27 C 178.652 27, 178 27.675, 178 28.500 C 178 29.325, 178.347 30, 178.770 30 C 180.617 30, 194.506 25.790, 197.122 24.437 C 200.117 22.888, 200.963 19.720, 198.750 18.337 C 195.997 16.617, 176.362 16.310, 133.437 17.317 L 88.374 18.374 86.187 16.187 C 83.493 13.493, 82.790 13.470, 80.500 16 C 78.282 18.451, 71.249 18.811, 70.369 16.518 C 69.938 15.397, 69.338 15.284, 67.900 16.053 C 65.629 17.269, 65.369 20, 67.525 20 C 72.995 20, 70.551 37.439, 64.013 45.057 C 61.518 47.965, 60.890 48.267, 59.977 47 C 58.690 45.214, 59.324 36.964, 61.652 25.197 C 62.804 19.373, 62.980 16.580, 62.240 15.840 C 60.502 14.102, 48.894 13.768, 45.500 15.358 M 45.324 18.612 C 41.614 20.442, 37.708 25.723, 35.565 31.808 C 32.029 41.849, 31.381 64.442, 34.594 65.675 C 36.765 66.508, 38.235 76.689, 37.804 87.914 C 37.362 99.428, 35.692 104.125, 29.101 112.388 C 27.395 114.526, 26 117.067, 26 118.034 C 26 120.286, 30.969 124.637, 39.095 129.501 C 42.618 131.609, 45.656 133.453, 45.848 133.598 C 46.039 133.743, 43.531 137.380, 40.275 141.681 C 29.446 155.983, 22.631 167.070, 20.562 173.750 C 18.517 180.351, 31.001 172.045, 38.686 161.690 C 44.568 153.765, 47.816 146.709, 49.225 138.796 C 50.976 128.958, 60.205 117.534, 65.866 118.197 C 70.426 118.731, 70.968 121.557, 71.001 145 C 71.034 168.590, 72.153 176.405, 76.100 180.606 C 84.088 189.110, 90.813 174.174, 93.033 143 C 94.301 125.192, 95.591 117.449, 97.971 113.364 C 99.780 110.258, 99.777 110.219, 97.557 109.208 C 88.814 105.224, 90.929 83.888, 102.373 60.633 L 106.500 52.247 103.649 50.995 C 102.081 50.306, 99.606 48.018, 98.149 45.909 C 96.692 43.801, 95.064 42.059, 94.531 42.038 C 93.997 42.017, 88.766 44.745, 82.905 48.099 L 72.249 54.198 68.535 73.219 C 63.716 97.900, 62.494 102, 59.961 102 C 58.105 102, 58 101.237, 57.993 87.750 C 57.989 79.912, 57.714 70.575, 57.382 67 L 56.778 60.500 63.263 56.729 L 69.748 52.958 70.932 46.729 C 71.582 43.303, 73.214 36.297, 74.558 31.161 C 75.901 26.024, 77 21.637, 77 21.411 C 77 21.185, 76.100 21, 75 21 C 73.251 21, 73 21.667, 73 26.318 C 73 33.532, 70.615 41.037, 66.680 46.206 C 63.089 50.923, 60.086 52.014, 57.912 49.394 C 56.073 47.175, 56.323 37.048, 58.472 26.727 C 59.362 22.453, 59.818 18.515, 59.486 17.977 C 58.538 16.444, 48.840 16.878, 45.324 18.612 M 78.741 26.201 C 76.754 32.567, 72.985 49.319, 73.439 49.773 C 73.617 49.950, 78.254 47.576, 83.745 44.496 L 93.729 38.898 89.987 30.199 C 86.605 22.335, 85.965 21.471, 83.321 21.201 C 80.589 20.923, 80.287 21.253, 78.741 26.201 M 63.750 59.573 L 60 62.029 60.063 79.265 C 60.137 99.237, 60.603 98.948, 65.052 76.178 C 66.737 67.555, 68.345 59.712, 68.625 58.750 C 69.298 56.441, 68.268 56.614, 63.750 59.573" stroke="none" fill="black" fill-rule="evenodd"/>
</svg>