<svg xmlns="http://www.w3.org/2000/svg" width="200" height="200" viewBox="0 0 200 200" version="1.1">
	<path d="M 99.500 10.472 C 89.864 11.821, 78.822 14.487, 75.523 16.260 C 74.411 16.858, 64.725 17.879, 54 18.529 C 37.394 19.535, 34.255 19.500, 32.852 18.293 C 31.496 17.126, 30.079 17.072, 24.852 17.989 C 21.358 18.602, 17.713 19.336, 16.750 19.619 C 15.004 20.133, 14.328 22.534, 15.750 23.167 C 16.163 23.350, 17.400 25.300, 18.500 27.500 C 20.947 32.393, 36.666 48.314, 43.481 52.800 C 51.771 58.257, 55.334 55.495, 50.989 46.979 L 48.860 42.804 58.680 49.580 C 64.081 53.307, 68.668 56.482, 68.873 56.634 C 69.078 56.787, 66.325 60.420, 62.756 64.706 C 55.083 73.922, 47.788 84.908, 42.429 95.319 C 38.824 102.321, 38.147 103.040, 32.713 105.637 C 21.923 110.794, 15 121.087, 15 131.971 C 15 145.747, 25.493 164.158, 36.378 169.484 C 41.329 171.906, 42.148 172.039, 44.685 170.834 C 51.278 167.704, 52.691 156.728, 48.829 138.657 C 45.191 121.634, 46.421 100.111, 51.473 92.401 C 52.372 91.028, 54.547 88.992, 56.304 87.876 C 59.252 86.005, 60.392 85.909, 71 86.639 C 86.489 87.704, 95.182 87.369, 99.563 85.538 C 103.796 83.770, 104.540 84.032, 105.438 87.608 C 106.319 91.117, 104.379 93.108, 96.737 96.537 C 91.912 98.703, 88.571 99.406, 81.290 99.787 C 76.180 100.054, 72 100.469, 72 100.708 C 72 100.948, 73.104 103.028, 74.454 105.331 C 77.534 110.587, 82.625 115.547, 86.399 116.971 L 89.298 118.064 82.694 122.623 C 74.760 128.101, 72 132.872, 72 141.106 C 72 151.715, 67.869 162.705, 59.381 174.679 C 55.093 180.727, 54.132 183, 55.862 183 C 56.336 183, 59.720 181.641, 63.382 179.981 C 75.163 174.639, 81.382 173.697, 100.500 174.360 C 115.826 174.891, 117.912 174.762, 121.688 173.051 C 126.703 170.778, 131.180 164.954, 134.130 156.864 L 136.256 151.033 142.766 158.064 C 157.471 173.948, 175 181.751, 175 172.415 C 175 166.602, 167.578 157.050, 153.584 144.851 C 147.974 139.961, 143.714 137, 142.288 137 C 141.030 137, 140 136.611, 140 136.136 C 140 135.662, 144.753 134.955, 150.563 134.565 C 168.253 133.380, 178.144 129.664, 175.394 125.236 C 171.088 118.304, 151.518 118.437, 133.959 125.516 C 129.317 127.388, 125.199 128.599, 124.807 128.207 C 122.971 126.371, 133.732 113.890, 144.087 105.849 C 148.768 102.214, 147.668 100.768, 135.143 94.100 C 129.564 91.130, 125 88.308, 125 87.829 C 125 87.350, 129.177 80.555, 134.281 72.729 C 147.601 52.310, 148.210 51.248, 147.026 50.516 C 146.435 50.151, 140.753 57.881, 133.867 68.419 L 121.747 86.964 118.854 85.255 C 116.901 84.101, 116.175 83.050, 116.620 82.023 C 119.819 74.642, 122.693 65.228, 125.511 52.900 C 129.307 36.291, 131.011 31.643, 134.728 27.762 C 138.131 24.209, 142.592 23.437, 148.946 25.299 C 153.674 26.686, 154.526 26.648, 160.771 24.783 C 164.472 23.677, 168.667 22.174, 170.093 21.442 C 172.381 20.267, 173.026 20.354, 175.598 22.181 C 182.920 27.382, 184.538 34.622, 180.217 42.843 C 178.962 45.232, 176.091 52.207, 173.837 58.343 C 168.572 72.675, 163.302 83.465, 159.668 87.355 C 156.936 90.280, 156.723 90.342, 155.439 88.586 C 152.580 84.675, 151.732 75.841, 152.239 55.250 C 152.705 36.361, 152.117 31.142, 150.269 37.750 C 149.846 39.263, 149.500 49.950, 149.500 61.500 C 149.500 81.008, 149.656 82.837, 151.694 87.250 C 153.506 91.173, 154.350 92, 156.543 92 C 162.019 92, 168.720 80.917, 176.493 59 C 178.542 53.225, 181.027 47.150, 182.017 45.500 C 183.007 43.850, 184.326 40.587, 184.947 38.250 C 187.025 30.435, 184.389 25.627, 173.230 16.879 C 171.213 15.298, 154.303 11.205, 145.026 10.053 C 133.925 8.674, 110.828 8.886, 99.500 10.472 M 97 13.567 C 92.325 14.322, 87.150 15.403, 85.500 15.969 C 82.639 16.950, 82.685 16.977, 86.500 16.553 C 88.700 16.309, 104 15.533, 120.500 14.829 C 139.976 13.999, 148.921 13.304, 146 12.849 C 138.238 11.640, 106.001 12.113, 97 13.567 M 111.750 17.746 C 105.838 17.923, 101 18.400, 101 18.806 C 101 19.213, 102.628 20.422, 104.617 21.493 C 108.763 23.726, 112.440 28.241, 113.393 32.270 C 113.839 34.157, 113.047 37.933, 110.907 44.114 C 108.307 51.624, 107.958 53.612, 108.883 55.644 C 109.880 57.831, 116.776 61.920, 119.564 61.978 C 120.149 61.990, 121.874 56.488, 123.398 49.750 C 128.314 28.002, 132.614 22, 143.279 22 C 146.354 22, 150.019 22.437, 151.424 22.971 C 153.334 23.697, 155.680 23.418, 160.739 21.863 C 169.114 19.288, 169.859 18.847, 167.434 17.898 C 165.570 17.168, 133.963 17.082, 111.750 17.746 M 78.329 19.902 C 73.711 20.350, 71.510 21.110, 69.579 22.924 C 66.113 26.182, 66.309 27.963, 70.985 35.717 C 75.827 43.745, 76.734 47.820, 74.787 52.793 L 73.335 56.500 87.381 65.703 C 95.106 70.765, 101.599 74.734, 101.811 74.522 C 102.022 74.311, 101.687 71.765, 101.065 68.866 C 99.113 59.765, 97 38.916, 97 28.756 L 97 19 90.750 19.152 C 87.313 19.236, 81.723 19.574, 78.329 19.902 M 43.182 21.744 C 39.157 21.934, 36.007 22.423, 36.182 22.830 C 36.357 23.236, 38.516 26.603, 40.980 30.312 C 44.793 36.051, 47.269 38.314, 57.624 45.527 C 64.314 50.187, 70.277 54, 70.875 54 C 72.406 54, 73.333 49.588, 72.610 45.743 C 72.275 43.960, 70.201 39.575, 68.001 36 C 63.635 28.905, 63.193 26.597, 65.557 23.223 L 67.113 21 58.807 21.199 C 54.238 21.308, 47.207 21.553, 43.182 21.744 M 99.448 25.750 C 99.707 27.813, 100.170 34.548, 100.476 40.718 C 101.050 52.298, 104.574 75.879, 105.945 77.310 C 106.901 78.309, 111.415 73.068, 114.054 67.895 L 116.011 64.057 113.035 62.518 C 105.300 58.518, 104.379 54.156, 108.696 41.969 C 111.149 35.043, 111.269 34.062, 110.026 31.063 C 108.789 28.078, 101.957 22, 99.838 22 C 99.364 22, 99.189 23.688, 99.448 25.750 M 28 25.109 C 29.925 26.265, 33.042 28.149, 34.927 29.296 C 38.487 31.463, 38.448 30.999, 34.626 25.750 C 33.009 23.528, 31.843 23.001, 28.562 23.004 L 24.500 23.007 28 25.109 M 21.130 27.250 C 22.912 30.589, 39.847 47.226, 44.770 50.475 C 47.119 52.025, 49.359 52.974, 49.749 52.584 C 50.139 52.195, 48.945 48.959, 47.097 45.394 C 43.649 38.744, 38.833 34.509, 26.912 27.642 C 21.082 24.284, 19.490 24.176, 21.130 27.250 M 65.524 65.603 C 58.209 74.225, 51.351 84.456, 45.207 95.911 C 40.542 104.608, 39.924 105.309, 34.873 107.638 C 22.705 113.247, 17.241 122.410, 18.329 135.384 C 19.338 147.423, 28.301 162.562, 37.068 167.034 C 42.131 169.617, 43.447 169.518, 45.927 166.365 C 48.763 162.761, 48.745 150.391, 45.885 137.233 C 44.131 129.167, 43.852 125.273, 44.251 114.500 C 44.972 95.037, 48.648 87.251, 58.678 83.941 C 61.644 82.962, 65.306 82.976, 76.592 84.008 C 89.862 85.222, 91.157 85.183, 96.639 83.403 C 100.112 82.275, 102.500 80.926, 102.500 80.092 C 102.500 78.990, 73.135 59, 71.517 59 C 71.302 59, 68.605 61.971, 65.524 65.603 M 117.089 67.754 C 115.830 70.344, 113.484 74.126, 111.876 76.157 C 108.958 79.841, 108.956 79.851, 111.149 80.547 C 112.654 81.025, 113.730 80.722, 114.560 79.588 C 116.047 77.554, 120.443 64.110, 119.824 63.491 C 119.578 63.245, 118.347 65.163, 117.089 67.754 M 107.070 83.250 C 107.109 83.938, 107.463 85.317, 107.856 86.315 C 108.537 88.042, 108.659 88.034, 110.369 86.145 C 112.103 84.229, 112.095 84.121, 110.149 83.080 C 107.549 81.688, 106.984 81.719, 107.070 83.250 M 111.808 88.750 C 109.441 91.287, 109.336 91.771, 110.460 95 C 111.130 96.925, 112.048 98.442, 112.500 98.371 C 112.952 98.300, 114.805 96.275, 116.618 93.871 L 119.914 89.500 117.707 87.772 C 114.838 85.526, 114.813 85.530, 111.808 88.750 M 117.731 96.911 C 114.486 101.090, 113.301 103.434, 113.687 104.911 C 114.339 107.403, 113.907 107.355, 118.473 105.447 C 121.850 104.036, 122.413 104.040, 124.634 105.496 C 125.979 106.377, 127.823 108.658, 128.732 110.564 L 130.385 114.030 133.942 110.672 C 135.899 108.825, 138.997 106.288, 140.827 105.034 C 142.742 103.722, 143.781 102.381, 143.274 101.874 C 142.222 100.822, 123.872 91, 122.958 91 C 122.608 91, 120.255 93.660, 117.731 96.911 M 100.231 97.750 C 95.636 100.228, 91.698 101.439, 85.481 102.287 C 80.816 102.923, 77 103.804, 77 104.244 C 77 104.684, 78.847 107.048, 81.103 109.496 C 88.152 117.143, 95.067 116.601, 104.612 107.654 C 110.072 102.536, 110.102 102.475, 108.919 99 C 108.263 97.075, 107.451 95.246, 107.114 94.935 C 106.776 94.624, 103.679 95.891, 100.231 97.750 M 108.479 108.024 C 106.442 110.274, 107.697 110.673, 110.460 108.653 C 111.557 107.850, 111.891 107.051, 111.285 106.676 C 110.725 106.330, 109.462 106.937, 108.479 108.024 M 118.750 108.162 C 117.237 108.715, 116.022 109.692, 116.049 110.333 C 116.075 110.975, 117.553 114.330, 119.332 117.788 L 122.567 124.076 124.784 121.079 C 127.560 117.323, 127.614 113.050, 124.927 109.635 C 122.642 106.729, 122.661 106.734, 118.750 108.162 M 100.766 115.951 C 87.703 121.939, 79.377 127.335, 76.880 131.429 C 75.721 133.330, 74.999 136.406, 74.986 139.500 C 74.940 150.439, 70.776 162.793, 63.595 173.294 C 62.168 175.381, 61 177.278, 61 177.509 C 61 177.740, 62.954 177.091, 65.342 176.068 C 75.225 171.831, 84.229 170.680, 101.604 171.430 C 119.029 172.182, 120.103 171.990, 125.224 167.215 C 127.784 164.828, 134.026 151.710, 133.978 148.820 C 133.966 148.094, 133.135 146.433, 132.131 145.128 L 130.307 142.756 114.404 146.346 C 94.457 150.849, 91.828 151.259, 90.122 150.133 C 88.035 148.756, 89.161 147.710, 99.748 141.197 C 111.627 133.889, 119.958 127.843, 120.002 126.500 C 120.064 124.595, 113.496 111.069, 112.500 111.050 C 111.950 111.039, 106.670 113.245, 100.766 115.951 M 145.208 124.556 C 138.928 126.247, 129.999 129.867, 128.269 131.425 C 127.304 132.293, 127.472 133.247, 129.043 135.831 C 130.637 138.452, 131.601 139.064, 133.742 138.814 C 135.780 138.576, 136.652 137.744, 137.322 135.394 L 138.207 132.287 149.354 131.713 C 162.103 131.056, 170.337 129.503, 172.057 127.431 C 175.291 123.535, 156.485 121.521, 145.208 124.556 M 106.755 139.871 C 100.845 143.603, 95.748 146.918, 95.429 147.238 C 94.924 147.743, 102.344 146.251, 122.750 141.746 C 128.487 140.480, 128.910 139.742, 126.044 136.013 L 124.133 133.525 121.317 135.601 C 117.888 138.128, 115.528 137.751, 117.043 134.919 C 117.608 133.864, 117.942 133.019, 117.785 133.043 C 117.628 133.066, 112.665 136.139, 106.755 139.871 M 138.219 144.036 L 137.194 148.072 145.188 156.517 C 156.247 168.200, 169.128 176.272, 172.050 173.350 C 174.614 170.786, 164.432 157.649, 150.724 145.838 C 142.350 138.622, 139.690 138.239, 138.219 144.036 M 134.114 141.929 C 133.255 142.461, 133.152 142.976, 133.824 143.391 C 134.395 143.744, 135.163 143.545, 135.531 142.950 C 136.449 141.464, 135.719 140.938, 134.114 141.929" stroke="none" fill="black" fill-rule="evenodd"/>
</svg>