<svg xmlns="http://www.w3.org/2000/svg" width="200" height="200" viewBox="0 0 200 200" version="1.1">
	<path d="M 179.500 18.705 C 152.401 22.366, 113.761 26.653, 111.282 26.274 C 109.512 26.004, 106.587 26.331, 104.782 27.001 C 96.565 30.053, 85.259 30.960, 55 30.995 C 38.225 31.015, 23.872 31.428, 23.104 31.914 C 20.486 33.572, 22.750 35.498, 31.824 39.328 C 48.641 46.427, 53.847 51.527, 50.630 57.749 C 49.790 59.374, 47.975 61.442, 46.597 62.345 C 44.236 63.892, 43.884 63.864, 40.493 61.864 C 35.532 58.936, 29.787 58.912, 26.708 61.804 C 21.567 66.634, 20.268 77.617, 21.965 101.906 C 23.549 124.598, 23.564 134.615, 22.015 136.482 C 20.021 138.884, 21.074 167.557, 23.310 171.741 C 27.540 179.655, 32.314 179.722, 48.318 172.091 C 66.996 163.186, 72.534 163.093, 82.029 171.525 C 93.226 181.470, 99.745 181.300, 105.037 170.927 C 109.352 162.469, 110.435 154.746, 110.425 132.500 C 110.420 120.528, 109.944 109.681, 109.319 107.270 C 108.378 103.645, 108.569 101.856, 110.652 94.770 C 111.989 90.221, 113.326 82.900, 113.623 78.500 C 114.075 71.802, 113.845 69.896, 112.209 66.788 L 110.255 63.077 112.857 54.538 C 114.288 49.842, 115.806 46, 116.230 46 C 116.653 46, 117 67.327, 117 93.393 C 117 145.699, 116.521 142.025, 123.332 141.978 C 127.135 141.952, 133.842 139.023, 136.212 136.355 C 142.852 128.877, 144.572 115.634, 142.946 84.500 C 141.771 62.020, 141.794 61.300, 143.957 52.668 C 145.175 47.811, 146.881 42.186, 147.749 40.168 L 149.328 36.500 150.254 40.500 C 150.764 42.705, 150.970 56.303, 150.712 70.804 C 150.289 94.546, 150.426 97.696, 152.122 103.143 C 157.152 119.304, 152.761 135.802, 138.587 154 C 130.857 163.924, 130.830 163.137, 139.181 171.146 C 146.898 178.548, 154.179 183, 158.566 183 C 167.492 183, 173.846 174.421, 177.621 157.272 C 179.120 150.461, 179.342 142.329, 179.416 91.500 C 179.502 31.835, 179.912 24.978, 183.569 21.943 C 185.332 20.480, 185.453 17.946, 183.750 18.150 C 183.063 18.232, 181.150 18.482, 179.500 18.705 M 144.438 25.737 L 116.375 29.252 116.375 35.634 C 116.375 41.341, 116.567 41.955, 118.188 41.440 C 119.921 40.890, 120 43.012, 120 89.933 L 120 139 123.852 139 C 129.057 139, 133.976 135.551, 136.758 129.952 C 140.675 122.068, 141.517 111.812, 140.301 86.819 C 139.660 73.643, 139.566 62.009, 140.071 58.419 C 141.197 50.410, 145.628 36.515, 147.723 34.420 C 149.273 32.870, 149.501 32.901, 151.099 34.874 C 153.552 37.903, 154.397 52.150, 153.561 76.372 C 152.967 93.585, 153.100 97.152, 154.481 101 C 156.983 107.976, 157.477 119.366, 155.619 127.250 C 153.554 136.017, 149.743 143.435, 141.704 154.340 L 135.187 163.181 141.622 169.585 C 155.307 183.202, 164.330 183.452, 170.512 170.383 C 176.151 158.462, 176.368 155.658, 176.497 93 C 176.609 38.507, 176.964 30.411, 179.538 23.750 C 180.460 21.363, 178.451 21.477, 144.438 25.737 M 105.013 30.741 C 100.275 31.313, 90.919 38.178, 78.256 50.375 C 67.955 60.297, 67.847 60.449, 70.466 61.322 C 72.079 61.860, 76.825 61.771, 82.545 61.096 L 91.967 59.985 100.103 53.417 C 104.578 49.804, 109.286 46.371, 110.565 45.789 C 112.415 44.946, 113.024 43.655, 113.547 39.473 C 113.908 36.582, 113.902 33.268, 113.534 32.108 C 112.852 29.960, 112.265 29.865, 105.013 30.741 M 89 33.077 C 86.525 33.531, 71.450 33.939, 55.500 33.982 L 26.500 34.061 32 36.371 C 47.321 42.804, 54 48.095, 54 53.799 C 54 57.817, 51.890 61.603, 47.823 64.880 L 44.869 67.261 39.512 64.551 C 32.961 61.236, 30.232 61.513, 27.360 65.785 C 24.320 70.308, 23.552 79.165, 24.617 97.400 C 25.733 116.489, 25.562 134.224, 24.164 144.500 C 22.787 154.612, 24.119 168.338, 26.831 171.987 C 29.925 176.151, 34.404 175.821, 44.660 170.675 C 65.240 160.351, 75.241 160.181, 84.500 169.998 C 95.783 181.961, 103.476 176.016, 107.141 152.500 C 108.407 144.378, 107.743 111.121, 106.220 106.389 C 105.426 103.920, 105.723 101.549, 107.660 94.889 C 110.465 85.249, 111.578 75.896, 110.564 70.488 C 109.675 65.750, 108.911 66.573, 104.987 76.500 C 98.107 93.900, 88.719 113.587, 86.345 115.591 L 83.867 117.681 84.993 129.925 C 86.238 143.460, 86.319 143.142, 79.749 150.642 C 72.823 158.548, 63.348 162.206, 59.573 158.430 C 53.635 152.492, 60.046 137.224, 74.439 123.029 C 81.936 115.635, 82.898 113.309, 77.532 115.551 C 73.504 117.234, 59.504 117.480, 50.614 116.024 C 47.376 115.494, 44.525 114.858, 44.278 114.612 C 43.630 113.963, 53.357 99.714, 60.167 91.335 C 68.852 80.648, 75.938 77.218, 79.328 82.058 C 80.686 83.997, 80.890 83.723, 82.853 77.308 C 83.998 73.564, 86.133 68.752, 87.596 66.615 L 90.256 62.729 86.794 63.379 C 77.387 65.144, 64 63.836, 64 61.152 C 64 60.213, 81.322 43.324, 89 36.777 C 92.025 34.198, 94.275 32.124, 94 32.169 C 93.725 32.214, 91.475 32.622, 89 33.077 M 104.150 53.546 C 96.418 59.359, 96.056 60, 100.507 60 C 102.500 60, 104.936 60.431, 105.920 60.957 C 107.478 61.791, 107.942 61.144, 109.515 55.951 C 110.508 52.671, 111.085 49.752, 110.798 49.465 C 110.510 49.177, 107.519 51.014, 104.150 53.546 M 94.963 62.714 C 92.885 63.188, 87.622 71.400, 85.624 77.285 C 84.389 80.923, 84 85.947, 84 98.249 C 84 116.961, 84.117 117.024, 91.001 102 C 100.202 81.917, 106.903 64.524, 105.685 63.886 C 104.110 63.061, 96.900 62.273, 94.963 62.714 M 66.214 88.710 C 63.071 91.927, 57.682 98.680, 54.238 103.717 L 47.976 112.874 52.238 113.394 C 63.770 114.800, 66.914 114.914, 71.945 114.109 C 80.200 112.787, 81.410 110.769, 80.581 99.710 C 79.669 87.548, 78.264 83.588, 74.714 83.180 C 72.438 82.919, 70.884 83.929, 66.214 88.710 M 75.385 125.621 C 65.111 136.236, 58.844 148.256, 60.384 154.393 C 61.853 160.248, 69.456 157.658, 77.892 148.427 L 83.091 142.739 82.412 131.620 C 82.039 125.504, 81.586 120.329, 81.404 120.121 C 81.223 119.912, 78.515 122.387, 75.385 125.621" stroke="none" fill="black" fill-rule="evenodd"/>
</svg>