<svg xmlns="http://www.w3.org/2000/svg" width="200" height="200" viewBox="0 0 200 200" version="1.1">
	<path d="M 91 4.647 C 73.045 7.069, 61.573 13.195, 56.708 22.958 C 54.308 27.774, 54.240 27.822, 53.152 25.434 C 52.542 24.095, 51.361 23, 50.528 23 C 46.761 23, 30.774 30.447, 26.540 34.174 C 21.395 38.703, 20.683 42.056, 23.978 46.245 C 28.225 51.644, 45.555 57.028, 65.972 59.291 L 77.444 60.562 73.972 62.708 C 72.062 63.889, 67.350 65.380, 63.500 66.022 C 46.236 68.903, 31.723 73.923, 24.310 79.577 C 20.473 82.504, 16.739 89.172, 17.191 92.291 C 17.594 95.080, 25.857 101.265, 32.919 104.064 C 40.722 107.156, 58.147 107.851, 70.363 105.557 C 75.238 104.642, 79.386 104.052, 79.581 104.247 C 79.775 104.442, 80.528 109.877, 81.254 116.326 C 82.212 124.838, 82.265 127.932, 81.449 127.619 C 78.407 126.452, 57.774 121.025, 52.500 120.004 C 49.200 119.366, 44.700 118.992, 42.500 119.172 C 39.120 119.449, 38.446 119.882, 38.152 121.966 C 37.961 123.323, 34.508 128.809, 30.479 134.157 C 18.664 149.842, 15.451 156.284, 17.152 160.882 C 17.952 163.045, 18.476 163.208, 23.322 162.806 C 26.382 162.553, 31.491 161.023, 35.421 159.184 C 43.896 155.218, 44.478 155.203, 39.197 159.087 L 35 162.173 40.071 169.509 C 46.101 178.232, 54.689 186.633, 58.572 187.607 C 65.245 189.282, 69.548 183.533, 75.076 165.557 C 81.178 145.716, 84.186 138.179, 85.059 140.545 C 90.744 155.965, 91.577 157.630, 95.636 161.689 C 101.252 167.305, 105.587 167.615, 110.445 162.750 C 120.540 152.638, 112.217 136.321, 94.222 130.945 L 89.945 129.667 92.615 126.880 C 94.084 125.347, 96.752 123.397, 98.544 122.546 C 102.702 120.573, 112.488 120.555, 118.030 122.511 C 120.385 123.342, 122.563 123.770, 122.871 123.463 C 124.659 121.674, 114.277 112.877, 101.439 105.305 L 92.731 100.168 96.616 99.066 C 105.107 96.657, 113.853 95.611, 117.589 96.558 C 123.914 98.160, 125.466 101.419, 125.707 113.599 C 125.898 123.257, 126.160 124.520, 129.130 130.093 C 132.553 136.516, 136.079 140, 139.154 140 C 140.729 140, 140.912 140.451, 140.269 142.750 C 139.846 144.262, 139.538 148.875, 139.584 153 C 139.651 158.999, 140.189 161.519, 142.270 165.590 C 145.141 171.207, 150.677 176.630, 154.525 177.596 C 165.060 180.240, 175.813 168.120, 180.942 147.820 C 182.701 140.859, 182.797 138.521, 181.966 122.820 C 180.751 99.865, 180.782 45.894, 182.017 34.176 C 183.264 22.340, 183.869 20, 185.682 20 C 188.312 20, 186.661 16.507, 183.986 16.413 C 182.619 16.365, 174.393 14.654, 165.706 12.610 C 157.020 10.567, 143.970 8.009, 136.706 6.927 C 123.775 5, 97.939 3.711, 91 4.647 M 85.390 8.401 C 71.019 11.152, 60.854 17.852, 58.020 26.441 C 56.767 30.235, 56.989 34.124, 58.772 39.616 C 59.389 41.516, 59.428 43.272, 58.873 44.116 C 57.602 46.048, 55.221 42.816, 54.424 38.076 C 53.591 33.128, 50.906 26, 49.875 26 C 48.062 26, 35.278 31.509, 30.919 34.169 C 14.811 43.997, 31.119 52.792, 74.193 57.506 L 79.885 58.130 80.405 54.815 C 80.691 52.992, 81.210 46.663, 81.559 40.750 C 81.907 34.837, 82.544 30, 82.974 30 C 83.404 30, 84.415 30.992, 85.220 32.205 L 86.684 34.410 99.592 32.194 C 114.165 29.694, 119.064 29.464, 120.800 31.200 C 122.434 32.834, 122.308 36.115, 120.513 38.678 C 119.055 40.759, 119.122 40.798, 123.858 40.651 C 126.515 40.568, 129.855 41.123, 131.279 41.884 C 139.565 46.311, 135.957 61.195, 123.616 73.499 C 109.578 87.494, 95.308 85.948, 88.518 69.696 C 87.515 67.296, 86.315 66, 85.096 66 C 83.459 66, 83.163 66.990, 82.782 73.750 C 82.542 78.013, 82.400 81.594, 82.466 81.710 C 82.532 81.825, 87.967 82.417, 94.543 83.025 C 111.339 84.579, 111.293 84.567, 109.897 87.275 C 109.266 88.499, 107.916 90.418, 106.897 91.541 C 105.047 93.578, 105.056 93.582, 112.315 93.541 C 125.030 93.469, 128.404 97.611, 128.611 113.550 C 128.748 124.109, 129.615 126.998, 134.669 133.750 C 137.918 138.090, 140.299 137.934, 142.290 133.250 C 146.378 123.633, 147.147 114.768, 147.907 68.500 C 148.296 44.850, 148.974 24.712, 149.414 23.750 C 150.540 21.288, 152.888 21.575, 153.924 24.301 C 156.649 31.468, 159.571 82.803, 158.711 108.411 C 158.262 121.788, 157.915 124.468, 156.528 125.244 C 152.665 127.406, 148.193 132.223, 145.446 137.181 C 142.797 141.964, 142.500 143.407, 142.500 151.500 C 142.500 159.577, 142.800 161.041, 145.423 165.775 C 150.689 175.281, 158.808 177.742, 165.503 171.863 C 170.028 167.891, 173.322 162.272, 176.626 152.894 C 179.724 144.101, 179.731 143.901, 178.569 91 C 177.743 53.357, 178.517 30.659, 180.911 22.309 C 181.936 18.738, 183.038 19.188, 161.500 14.376 C 132.995 8.007, 100.697 5.471, 85.390 8.401 M 150.993 32 C 150.920 34.475, 150.911 49.100, 150.973 64.500 C 151.081 91.294, 150.056 111.253, 147.973 122.919 C 147.441 125.900, 147.154 128.488, 147.336 128.669 C 147.518 128.851, 149.610 127.206, 151.985 125.014 L 156.303 121.028 155.698 88.264 C 155.112 56.510, 153.662 33.758, 151.956 29.548 C 151.322 27.981, 151.095 28.557, 150.993 32 M 102 34.570 C 98.425 35.302, 93.085 36.023, 90.134 36.170 C 87.183 36.318, 84.632 36.903, 84.466 37.470 C 84.299 38.036, 83.885 42.665, 83.545 47.756 L 82.927 57.013 92.214 52.078 C 97.321 49.364, 104.545 45.935, 108.266 44.459 C 115.114 41.742, 119 38.269, 119 34.865 C 119 33.267, 118.249 33.017, 113.750 33.119 C 110.862 33.185, 105.575 33.838, 102 34.570 M 119 43.996 C 117.625 44.449, 112.748 48.460, 108.162 52.910 L 99.823 61 91.412 61 C 83.353 61, 79.633 62.534, 86.107 63.187 C 88.812 63.459, 89.455 64.136, 91.070 68.406 C 96.613 83.063, 108.852 84.370, 121.495 71.656 C 130.404 62.695, 135.350 51.065, 132.235 46.400 C 130.179 43.321, 124.292 42.252, 119 43.996 M 97.841 52.250 L 87.500 57.500 93.434 57.805 L 99.367 58.111 104.923 52.555 C 107.978 49.500, 109.961 47, 109.330 47 C 108.698 47, 103.528 49.362, 97.841 52.250 M 78.500 63 C 78.160 63.550, 78.359 64, 78.941 64 C 79.523 64, 80 63.550, 80 63 C 80 62.450, 79.802 62, 79.559 62 C 79.316 62, 78.840 62.450, 78.500 63 M 71.187 68.055 C 69.915 68.565, 65.481 71.349, 61.334 74.241 L 53.794 79.500 61.147 80.143 C 65.191 80.497, 71.088 80.984, 74.250 81.225 L 80 81.665 80 74.332 L 80 67 76.750 67.063 C 74.963 67.098, 72.459 67.544, 71.187 68.055 M 52.500 70.991 C 42.305 73.313, 34.647 76.204, 28.699 79.976 C 24.024 82.941, 20.011 88.063, 20.004 91.076 C 19.994 95.310, 33.370 102.293, 44.878 104.060 C 50.476 104.920, 54.635 104.902, 62.118 103.986 C 67.542 103.321, 71.770 102.437, 71.513 102.021 C 71.255 101.604, 68.897 100.973, 66.272 100.618 C 58.984 99.631, 45.451 94.583, 39.497 90.630 C 29.893 84.253, 31.221 79.719, 42.787 79.404 C 49.140 79.230, 50.038 78.906, 56.296 74.532 C 59.983 71.954, 63 69.655, 63 69.423 C 63 68.752, 61.046 69.044, 52.500 70.991 M 37.250 82.662 C 36.563 82.940, 36 83.575, 36 84.073 C 36 86.001, 46.921 92.046, 55.664 94.958 C 65.166 98.124, 80 100.142, 80 98.269 C 80 97.706, 74.051 94.616, 66.781 91.403 C 59.510 88.190, 52.760 84.760, 51.781 83.781 C 50.462 82.462, 48.507 82.021, 44.250 82.079 C 41.087 82.122, 37.938 82.385, 37.250 82.662 M 56.035 83.328 C 56.525 83.855, 79.025 94, 79.705 94 C 80.374 94, 79.940 85.081, 79.250 84.657 C 78.120 83.963, 55.418 82.663, 56.035 83.328 M 82.332 87.106 C 82.684 88.423, 82.979 90.908, 82.986 92.629 C 83.019 100.204, 96.255 98.706, 104.319 90.215 L 107.137 87.248 101.819 86.646 C 98.893 86.315, 93.168 85.745, 89.096 85.378 L 81.691 84.711 82.332 87.106 M 85.250 102.031 C 83.932 102.561, 83 103.793, 83 105.007 C 83 108.197, 85.019 126.330, 85.542 127.840 C 85.857 128.750, 87.622 127.727, 91.038 124.656 C 97.243 119.077, 101.331 117.661, 109.696 118.193 L 116.194 118.607 112.847 115.851 C 109.674 113.237, 88.966 100.929, 87.969 101.063 C 87.711 101.098, 86.487 101.534, 85.250 102.031 M 41.391 122.177 C 40.789 123.150, 45.582 127.884, 47.250 127.964 C 47.663 127.984, 48 128.450, 48 129 C 48 130.472, 44.793 130.158, 42.559 128.468 C 41.491 127.661, 40.285 127, 39.879 127 C 38.646 127, 25.174 145.467, 21.986 151.527 C 18.810 157.564, 18.385 159.502, 20.013 160.508 C 21.774 161.596, 31.959 158.038, 43.155 152.422 C 49.102 149.440, 54.424 147, 54.983 147 C 57.951 147, 55.065 150.513, 47.488 156.125 C 42.807 159.592, 39.099 162.796, 39.248 163.244 C 40.064 165.693, 50.808 178.968, 54.225 181.750 C 62.804 188.735, 65.851 185.504, 73.607 161.197 C 76.713 151.464, 80.319 141.089, 81.620 138.142 C 82.921 135.196, 83.742 132.391, 83.444 131.910 C 82.411 130.238, 56.516 123.195, 45.768 121.664 C 43.660 121.363, 41.756 121.586, 41.391 122.177 M 87.313 133.626 C 86.549 135.618, 89.397 145.849, 92.603 152.626 C 98.151 164.353, 108.191 166.771, 111.094 157.080 C 112.752 151.546, 111.497 146.556, 107.269 141.876 C 103.140 137.306, 100.666 135.859, 93.203 133.649 C 88.430 132.235, 87.848 132.233, 87.313 133.626" stroke="none" fill="black" fill-rule="evenodd"/>
</svg>