<svg xmlns="http://www.w3.org/2000/svg" width="200" height="200" viewBox="0 0 200 200" version="1.1">
	<path d="M 54 13.714 C 54 14.251, 54.900 15.505, 56 16.500 C 60.319 20.408, 57.723 27.068, 48.386 36.034 C 42.381 41.800, 41.666 42.203, 38.457 41.624 C 36.556 41.281, 33.433 40.717, 31.518 40.372 C 26.316 39.434, 25.771 42.126, 30.214 46.821 C 42.676 59.989, 43.808 68.402, 34.354 77.590 C 29.830 81.987, 13.723 90.804, 5.974 93.126 C 3.788 93.781, 2 94.922, 2 95.662 C 2 96.753, 4.418 96.887, 14.750 96.372 C 23.222 95.949, 29.430 96.139, 33.253 96.939 C 43.278 99.037, 42.963 102.193, 31.332 116.179 C 27.819 120.403, 24.449 125.282, 23.843 127.022 C 22.881 129.780, 23.017 130.461, 24.904 132.342 C 26.886 134.319, 28.097 134.499, 39.326 134.490 L 51.584 134.480 44.015 143.490 C 30.620 159.435, 22 172.893, 22 177.860 C 22 180.814, 25.420 182.398, 29.059 181.129 C 40.270 177.221, 60.458 155.218, 64.155 142.877 C 64.794 140.744, 65.624 139, 66 139 C 66.376 139, 67.189 140.689, 67.808 142.753 C 69.583 148.679, 77.792 164.948, 81.676 170.239 C 85.643 175.644, 90.074 178.429, 93.150 177.452 C 94.287 177.091, 96.157 174.731, 97.350 172.151 C 99.326 167.876, 99.500 165.862, 99.500 147.250 C 99.500 136.112, 99.580 127, 99.678 127 C 99.776 127, 102.552 128.606, 105.846 130.568 C 109.140 132.530, 114.910 135.221, 118.668 136.547 C 138.176 143.431, 148.922 135.840, 149.796 114.556 C 150.002 109.547, 149.531 101.550, 148.743 96.660 C 147.435 88.547, 147.469 87.189, 149.151 80.160 C 151.427 70.651, 151.571 56.870, 149.457 50.879 C 146.583 42.732, 139.116 37.559, 133.021 39.493 C 128.882 40.807, 124.122 46.059, 122.049 51.598 C 119.187 59.249, 119.344 70.551, 122.500 84 C 126.330 100.321, 125.519 109.422, 119.883 113.369 C 113.859 117.589, 101.691 113.429, 98.897 106.194 C 96.941 101.128, 103.190 95.763, 113.612 93.560 C 117.312 92.777, 118.957 89.759, 119.727 82.336 C 120.148 78.275, 119.786 76.190, 118.033 72.569 C 115.033 66.372, 106.103 58.576, 95.481 52.880 L 86.733 48.189 89.930 46.536 C 92.977 44.961, 93.339 44.986, 97.648 47.072 C 101.317 48.848, 103.331 49.164, 108.335 48.751 C 115.375 48.169, 122.089 45.396, 121.319 43.389 C 120.952 42.434, 117.887 41.987, 110.293 41.783 L 99.776 41.500 114.138 35.802 C 132.131 28.664, 146.029 25, 155.109 25 C 168.628 25, 169.372 31.360, 157.821 48.200 L 153.500 54.500 153.500 70.500 C 153.500 79.300, 154.109 95.050, 154.854 105.500 C 157.310 139.971, 152.695 153.594, 137.230 157.520 C 131.042 159.091, 130.087 161.520, 135.968 160.731 C 145.699 159.426, 154.511 150.171, 156.979 138.664 C 158.397 132.049, 158.406 109.694, 156.996 95 C 156.389 88.675, 155.873 77.282, 155.849 69.681 L 155.806 55.863 159.768 50.181 C 169.581 36.109, 171.033 27.259, 164.144 23.516 C 161.692 22.185, 162.216 22.077, 171.344 22.040 L 181.188 22 180.582 26.750 C 177.750 48.973, 177.057 105.281, 179.500 114.661 C 183.462 129.873, 178.254 156.739, 168.491 171.447 C 163.415 179.095, 159.791 181.500, 153.343 181.500 C 146.860 181.500, 142.474 178.266, 136 168.712 C 133.525 165.059, 130.938 162.055, 130.250 162.035 C 128.184 161.977, 128.771 163.360, 133.928 170.704 C 144.979 186.440, 155.864 189.023, 166.340 178.397 C 176.143 168.454, 183.086 147.848, 183.322 128 C 183.417 120.067, 183.003 115.259, 181.990 112.500 C 180.269 107.813, 180.287 70.599, 182.024 43.500 C 183.290 23.745, 183.615 22, 186.027 22 C 187.669 22, 187.769 21.636, 186.850 19 C 185.739 15.813, 183.319 15.004, 182.362 17.500 C 180.937 21.212, 84.628 18.033, 57.750 13.387 C 55.536 13.004, 54 13.138, 54 13.714 M 60.717 19.301 C 61.662 24.244, 58.950 29.171, 50.796 37.325 C 42.251 45.870, 42.290 45.857, 33.059 43.334 C 30.914 42.748, 31.204 43.383, 35.454 48.584 C 41.442 55.911, 43 59.514, 43 66.036 L 43 71.136 45.905 69.067 C 47.503 67.930, 52.643 65.160, 57.328 62.912 L 65.845 58.825 68.545 47.162 C 73.624 25.222, 76.326 19.037, 80.185 20.517 C 80.996 20.829, 83.532 24.552, 85.820 28.792 C 88.109 33.031, 90.820 37.572, 91.845 38.882 L 93.708 41.264 107.104 35.747 C 124.856 28.437, 127.825 27.393, 139 24.531 C 144.225 23.193, 147.600 22.070, 146.500 22.036 C 111.593 20.952, 80.965 19.185, 65.365 17.354 C 60.282 16.758, 60.235 16.778, 60.717 19.301 M 75.581 31.250 C 72.608 41.124, 69.807 53.141, 70.352 53.685 C 71.268 54.601, 80.825 47.706, 80.351 46.472 C 79.664 44.682, 83.097 43, 87.434 43 C 89.395 43, 91 42.820, 91 42.600 C 91 42.381, 89.537 40.016, 87.750 37.346 C 85.963 34.676, 83.376 30.356, 82.002 27.746 C 80.628 25.135, 79.180 23, 78.784 23 C 78.388 23, 76.947 26.712, 75.581 31.250 M 129.600 45.047 C 122.231 51.516, 120.613 65.078, 125.072 83 C 127.984 94.707, 128.245 106.048, 125.709 110.741 C 120.924 119.597, 108.562 120.259, 100.002 112.117 C 96.618 108.897, 96 107.684, 96 104.258 C 96 100.904, 96.584 99.694, 99.395 97.226 C 102.233 94.735, 107.603 92.189, 113.765 90.415 C 115.856 89.813, 117.201 84.823, 116.760 79.302 C 116.023 70.085, 109.575 63.441, 92.603 54.413 C 83.859 49.762, 83.770 49.739, 80.436 51.329 L 77.077 52.931 79.288 56.791 C 80.505 58.914, 83.210 62.146, 85.301 63.974 C 95.667 73.036, 93.602 82.862, 80.344 87.571 L 75.250 89.380 75.767 106.598 C 76.315 124.832, 75.955 128.038, 73.584 126.070 C 72.214 124.933, 70.189 115.342, 67.947 99.377 L 66.807 91.254 56.653 90.794 C 44.713 90.253, 37.615 87.747, 36 83.500 L 35.008 80.892 31.583 83.505 C 29.699 84.942, 24.781 87.779, 20.655 89.809 L 13.153 93.500 23.326 93.566 C 38.113 93.661, 43.007 95.805, 42.996 102.184 C 42.991 105.194, 40.375 109.399, 32.452 119.134 C 28.903 123.493, 26 127.706, 26 128.495 C 26 131.511, 30.025 132.292, 42.441 131.684 C 49.073 131.359, 55.625 130.766, 57 130.367 C 59.117 129.752, 58.658 130.605, 54 135.934 C 35.029 157.640, 22.687 176.021, 25.317 178.650 C 26.439 179.773, 33.892 175.760, 40.130 170.675 C 51.218 161.637, 60.870 147.092, 63.170 135.956 C 63.847 132.680, 64.903 130, 65.517 130 C 66.131 130, 67.675 133.394, 68.948 137.543 C 74.113 154.376, 86.473 175, 91.396 175 C 92.399 175, 93.803 173.454, 94.801 171.250 C 96.245 168.062, 96.496 164.038, 96.473 144.415 L 96.446 121.329 103.450 125.859 C 112.722 131.858, 123.933 136.155, 130.465 136.213 C 141.934 136.316, 146.211 130.477, 146.735 114 C 146.919 108.225, 146.488 99.900, 145.778 95.500 C 144.624 88.347, 144.680 86.759, 146.303 80.500 C 148.549 71.844, 148.902 59.084, 147.075 52.676 C 144.155 42.442, 136.415 39.062, 129.600 45.047 M 103.750 45.723 C 105.537 45.945, 108.463 45.945, 110.250 45.723 C 112.037 45.502, 110.575 45.320, 107 45.320 C 103.425 45.320, 101.963 45.502, 103.750 45.723 M 71.020 57.476 C 70.324 58.314, 70.121 59, 70.569 59 C 71.016 59, 70.509 59.639, 69.441 60.419 C 67.806 61.615, 67.500 63.071, 67.500 69.669 C 67.500 79.651, 68.734 87, 70.409 87 C 71.377 87, 71.842 83.216, 72.282 71.767 C 72.604 63.389, 72.736 56.403, 72.576 56.243 C 72.416 56.083, 71.716 56.638, 71.020 57.476 M 75.675 59.875 C 75.304 61.731, 75 68.418, 75 74.733 L 75 86.217 77.750 85.539 C 81.782 84.545, 86.023 81.859, 88.224 78.906 C 89.986 76.542, 90.031 76.011, 88.732 72.906 C 87.947 71.033, 85.324 67.721, 82.903 65.548 C 80.481 63.374, 78.016 60.449, 77.425 59.048 L 76.351 56.500 75.675 59.875 M 54.523 67.265 C 45.385 72.080, 37.647 78.890, 38.160 81.665 C 38.790 85.065, 45.654 87.394, 56.342 87.834 L 66.185 88.240 65.342 81.370 C 64.879 77.592, 64.528 71.912, 64.563 68.750 C 64.600 65.300, 64.200 63.012, 63.563 63.031 C 62.978 63.048, 58.910 64.954, 54.523 67.265 M 70.075 92.750 C 70.116 94.263, 70.738 99.100, 71.455 103.500 L 72.761 111.500 72.880 100.750 C 72.980 91.808, 72.748 90, 71.500 90 C 70.512 90, 70.026 90.939, 70.075 92.750" stroke="none" fill="black" fill-rule="evenodd"/>
</svg>