<svg xmlns="http://www.w3.org/2000/svg" width="200" height="200" viewBox="0 0 200 200" version="1.1">
	<path d="M 70.034 11.094 C 67.578 11.576, 63.386 13.326, 60.718 14.985 C 55.078 18.490, 52.930 18.610, 40.232 16.128 L 30.964 14.316 26.892 18.733 C 24.653 21.162, 21.624 25.704, 20.160 28.825 C 17.831 33.793, 17.500 35.755, 17.500 44.578 C 17.500 54.412, 17.602 54.860, 21.700 63.078 C 29.769 79.261, 44.719 91.881, 49.800 86.800 C 50.460 86.140, 51 84.903, 50.999 84.050 C 50.998 81.216, 45.319 70.591, 40.125 63.704 C 37.306 59.967, 35 56.521, 35 56.047 C 35 54.594, 43.764 34.174, 45.375 31.875 L 46.890 29.712 47.429 32.106 C 47.726 33.423, 49.099 40.217, 50.481 47.204 C 53.165 60.776, 55.383 67.379, 60.066 75.735 C 64.842 84.256, 64.294 86.596, 55.733 94.259 L 48.466 100.763 37.425 101.141 C 25.194 101.559, 21.750 102.874, 20.571 107.575 C 20.089 109.492, 20.648 111.751, 22.514 115.440 L 25.133 120.616 22.166 130.603 C 14.593 156.095, 15.856 168.859, 26.500 174.413 C 30.237 176.363, 31.842 176.481, 50.878 176.206 C 62.795 176.033, 73.409 176.358, 76.441 176.988 L 81.627 178.064 83.966 185.282 C 86.440 192.917, 86.635 192.893, 88.434 184.741 C 89.012 182.122, 89.159 182.058, 91.325 183.477 C 93.058 184.613, 94.407 184.744, 96.927 184.021 C 110.722 180.065, 115.958 167.367, 116.044 137.662 C 116.088 122.189, 116.928 114.672, 118.825 112.775 C 120.753 110.847, 125.465 113.845, 133.975 122.416 C 138.493 126.966, 142.572 131.308, 143.040 132.065 C 143.508 132.822, 144.164 133.169, 144.498 132.836 C 144.831 132.502, 145.167 116.540, 145.244 97.365 C 145.391 60.640, 144.500 48.810, 141.053 41.712 L 139.214 37.925 144.626 34.462 C 147.603 32.558, 150.233 31, 150.470 31 C 150.707 31, 150.752 54.513, 150.570 83.250 L 150.239 135.500 147.550 147.500 C 143.178 167.015, 142.498 171.669, 143.569 174.731 C 144.409 177.131, 145.139 177.539, 149.053 177.796 C 152.907 178.049, 155.241 177.232, 164.981 172.226 C 174.641 167.261, 176.516 165.910, 177.191 163.430 C 178.410 158.947, 178.596 127.213, 177.623 89.500 C 176.697 53.635, 177.354 40.749, 180.871 25.814 C 182.183 20.240, 182.971 18.564, 184.183 18.768 C 185.057 18.915, 186.035 18.352, 186.355 17.518 C 186.675 16.683, 186.789 16, 186.609 16 C 186.428 16, 179.580 15.337, 171.390 14.526 C 128.884 10.319, 82.079 8.734, 70.034 11.094 M 77.303 13.066 C 69.701 13.802, 64.985 15.381, 58 19.530 C 55.289 21.140, 49.777 20.857, 38.255 18.516 L 32.010 17.246 28.548 21.078 C 21.299 29.102, 18.111 39.930, 19.999 50.114 C 21.194 56.560, 26.671 68.017, 31.107 73.348 C 35.419 78.533, 43.736 85, 46.090 85 C 50.044 85, 47.265 78.335, 37.890 65.331 C 34.650 60.838, 32 56.705, 32 56.145 C 32 53.945, 42.175 31.189, 44.067 29.159 C 48.202 24.720, 49.235 26.445, 52.408 43.091 C 55.101 57.221, 57.358 64.893, 60.786 71.573 L 62.801 75.500 63.432 71 C 63.779 68.525, 64.202 62, 64.372 56.500 C 64.683 46.428, 66.830 39.449, 70.277 37.304 C 70.988 36.862, 73.286 34.128, 75.385 31.229 C 84.179 19.083, 97.814 14.765, 105.897 21.567 C 113.059 27.593, 109.325 37.104, 96.305 46 L 94.109 47.500 98.806 52.753 L 103.503 58.006 116.002 49.665 C 122.876 45.077, 133.337 38.289, 139.250 34.581 C 149.571 28.108, 150 27.700, 150 24.354 C 150 20.004, 151.845 16.132, 153.016 18.026 C 154.267 20.049, 153.372 130.297, 152.038 138.500 C 151.412 142.350, 149.775 150.403, 148.400 156.396 C 147.024 162.389, 146.034 169.139, 146.200 171.396 C 146.494 175.419, 146.569 175.495, 150 175.241 C 151.925 175.099, 158.225 172.581, 164 169.646 L 174.500 164.310 175.306 154.405 C 175.768 148.735, 175.596 126.543, 174.904 102.500 C 173.616 57.747, 174.179 43.341, 177.883 26.270 L 179.631 18.217 174.066 17.600 C 151.691 15.119, 102.278 11.873, 91 12.141 C 87.975 12.214, 81.811 12.630, 77.303 13.066 M 88.500 23.328 C 83.697 25.652, 80.012 28.938, 76.799 33.765 C 75.384 35.890, 75.496 36.246, 78.635 39.575 C 80.933 42.011, 82.630 45.370, 84.058 50.310 C 88.926 67.141, 89.490 67.728, 96.239 62.971 L 100.875 59.703 98.268 56.284 C 96.833 54.404, 94.074 51.558, 92.136 49.960 C 90.197 48.363, 88.811 46.898, 89.056 46.706 C 89.300 46.513, 91.525 45.194, 94 43.774 C 100.501 40.043, 105.852 34.308, 106.612 30.253 C 108.066 22.505, 98.087 18.689, 88.500 23.328 M 71.922 43.443 C 70.781 46.023, 69.279 50.916, 68.586 54.317 C 67.149 61.361, 67.793 65.623, 71.532 73.827 L 73.960 79.153 78.230 76.076 C 80.578 74.383, 83.828 71.933, 85.452 70.632 L 88.404 68.266 86.484 65.383 C 85.429 63.797, 83.794 59.506, 82.852 55.847 C 80.962 48.505, 77.995 42.071, 75.572 40.059 C 74.203 38.924, 73.725 39.367, 71.922 43.443 M 132.806 42.734 C 131.376 44.255, 128.360 49.203, 126.103 53.728 L 122 61.956 122 80.919 C 122 105.996, 120.445 107.294, 113.512 88 C 108.754 74.760, 103.245 63, 101.799 63 C 100.916 63, 97.454 65.251, 93.095 68.660 C 92.872 68.835, 94.196 71.945, 96.037 75.573 C 100.099 83.577, 101.198 92.522, 98.605 96.480 C 95.817 100.736, 89.641 103.103, 78.345 104.245 L 68 105.291 68 108.587 C 68 110.399, 68.410 112.135, 68.911 112.445 C 69.412 112.755, 74.587 113.300, 80.411 113.656 C 87.149 114.068, 91 114.710, 91 115.420 C 91 116.033, 88.188 117.281, 84.750 118.193 C 73.771 121.106, 70.987 122.650, 71.096 125.763 C 71.295 131.428, 73.559 138.512, 75.054 138.143 C 87.336 135.111, 91.996 139.832, 91.998 155.308 C 91.999 160.153, 91.510 167.274, 90.912 171.132 C 89.938 177.408, 90.012 178.356, 91.618 180.130 C 93.681 182.410, 96.555 182.043, 101.759 178.835 C 109.768 173.897, 112.562 163.529, 113.366 135.760 C 113.795 120.949, 114.317 115.287, 115.458 113.081 C 118.695 106.822, 123.623 108.400, 134.641 119.221 L 141.783 126.234 142.533 112.367 C 143.414 96.097, 142.507 61.309, 140.959 52.010 C 139.813 45.122, 138.174 40.866, 136.452 40.308 C 135.876 40.121, 134.235 41.213, 132.806 42.734 M 116.452 52.583 C 110.978 56.204, 106.154 59.498, 105.731 59.902 C 105.308 60.307, 106.699 64.432, 108.822 69.069 C 110.944 73.706, 113.951 81.100, 115.502 85.500 C 117.054 89.900, 118.632 93.859, 119.009 94.297 C 119.386 94.735, 119.650 87.310, 119.597 77.797 L 119.500 60.500 123.066 53.250 C 125.028 49.263, 126.581 46, 126.518 46 C 126.455 46, 121.925 48.963, 116.452 52.583 M 66.047 74.595 C 66.013 78.331, 66.495 80.138, 67.857 81.370 C 69.340 82.712, 69.924 82.794, 70.759 81.775 C 71.517 80.852, 71.018 78.983, 68.950 75 L 66.094 69.500 66.047 74.595 M 82.750 76.010 C 79.037 78.749, 76 81.267, 76 81.606 C 76 81.945, 77.864 84.449, 80.142 87.169 C 85.841 93.976, 84.265 95.105, 75.467 90.519 C 66.785 85.993, 65.683 86.670, 66.651 95.933 L 67.314 102.281 76.710 101.664 C 86.461 101.023, 93.231 98.862, 96 95.507 C 98.549 92.418, 97.738 85.276, 93.983 77.750 C 92.131 74.037, 90.364 71.007, 90.058 71.015 C 89.751 71.023, 86.463 73.271, 82.750 76.010 M 72.500 84 C 72.115 84.623, 72.632 85.764, 73.650 86.535 C 76.510 88.701, 77.522 88.252, 75.416 85.750 C 74.374 84.513, 73.449 83.358, 73.361 83.183 C 73.273 83.009, 72.885 83.377, 72.500 84 M 57.473 96.455 L 52.500 100.910 56 100.969 C 57.925 101.001, 60.513 101.299, 61.750 101.630 C 63.869 102.198, 64 101.935, 64 97.117 C 64 94.302, 63.650 92, 63.223 92 C 62.795 92, 60.208 94.005, 57.473 96.455 M 31.231 104.018 C 28.334 104.440, 25.257 105.372, 24.395 106.087 C 22.416 107.730, 23.162 112.014, 26.161 116.226 C 28.119 118.976, 28.219 119.696, 27.160 123.391 C 21.026 144.786, 20.616 146.786, 20.559 155.542 C 20.492 165.746, 21.715 168.699, 27.259 171.729 C 30.085 173.273, 33.384 173.503, 53 173.522 C 65.375 173.534, 76.662 173.902, 78.083 174.339 L 80.666 175.133 76.185 159.317 C 73.720 150.617, 71.601 143.368, 71.475 143.207 C 71.350 143.046, 66.363 145.876, 60.394 149.496 C 48.394 156.772, 45.684 157.813, 43.487 155.989 C 41.585 154.411, 41.610 151.700, 43.586 144.932 C 45.464 138.499, 50.306 133.076, 60.250 126.268 C 65.013 123.007, 67 121.022, 67 119.523 C 67 116.229, 65.026 115, 59.733 115 C 55.404 115, 54.932 115.210, 55.469 116.902 C 55.855 118.118, 55.219 119.797, 53.706 121.556 C 51.802 123.769, 50.279 124.395, 45.918 124.757 C 41.365 125.134, 40.198 124.876, 38.630 123.143 C 36.050 120.293, 37.125 115.300, 41.571 109.475 C 43.489 106.962, 44.794 104.476, 44.471 103.952 C 43.802 102.870, 38.938 102.894, 31.231 104.018 M 44.498 110.110 C 39.221 117.279, 38.518 121.590, 42.464 122.580 C 45.171 123.260, 52.131 120.338, 52.779 118.251 C 52.992 117.564, 51.781 116.214, 50.089 115.251 C 48.397 114.288, 47.010 112.905, 47.006 112.178 C 47 110.870, 50.663 110.980, 62.242 112.638 L 65.985 113.173 65.406 109.837 C 64.374 103.889, 64.543 104, 56.529 104 L 48.996 104 44.498 110.110 M 69.015 116.750 C 69.024 117.162, 69.414 118.105, 69.883 118.845 C 70.579 119.944, 71.540 119.822, 75.118 118.180 L 79.500 116.169 74.250 116.084 C 71.362 116.038, 69.007 116.338, 69.015 116.750 M 60 129.879 C 56.425 132.545, 52.280 136.032, 50.789 137.628 C 46.299 142.432, 43.151 154, 46.334 154 C 47.525 154, 68.367 141.889, 70.264 140.094 C 71.116 139.289, 68.155 124.991, 67.141 125.015 C 66.789 125.023, 63.575 127.212, 60 129.879 M 76.105 140.914 C 74.397 141.996, 74.746 144.033, 79.636 161.500 C 83.167 174.111, 84.363 177, 86.055 177 C 87.288 177, 87.881 174.361, 88.928 164.219 C 90.010 153.722, 88.986 144.747, 86.375 141.862 C 84.584 139.883, 78.604 139.331, 76.105 140.914" stroke="none" fill="black" fill-rule="evenodd"/>
</svg>