<svg xmlns="http://www.w3.org/2000/svg" width="200" height="200" viewBox="0 0 200 200" version="1.1">
	<path d="M 137.400 12.832 C 130.912 17.542, 119.133 33.707, 112.503 47 C 110.994 50.025, 109.618 52.658, 109.445 52.851 C 109.273 53.044, 107.596 52.031, 105.721 50.600 C 101.741 47.565, 93.739 44.606, 82.500 42.014 L 74.500 40.169 92.177 40.084 L 109.854 40 112.948 36.250 C 121.808 25.509, 117.287 17.108, 100.965 13.984 C 84.455 10.824, 34.382 14.873, 23.100 20.281 C 20.930 21.321, 20.454 22.298, 20.207 26.226 C 19.853 31.844, 21.381 35.163, 28.229 43.654 C 34.214 51.073, 44.077 59.262, 50.395 62.057 L 55.023 64.104 52.551 67.344 C 48.344 72.860, 45.010 81.417, 43.780 89.853 C 43.132 94.299, 42.887 98.220, 43.235 98.568 C 44.575 99.908, 46 97.727, 46 94.335 C 46 86.117, 50.818 73.084, 55.860 67.661 C 58.376 64.955, 63.835 61.490, 64.499 62.176 C 64.672 62.354, 61.743 71.950, 57.991 83.500 C 49.796 108.726, 48 116.953, 48 129.276 C 48 139.983, 49.761 147.164, 54.152 154.361 C 56.938 158.926, 57.054 159.523, 56.059 164.161 C 54.020 173.669, 50.254 179, 45.577 179 C 36.210 179, 25.386 163.022, 21.286 143.141 C 19.622 135.078, 20.510 126.923, 23.557 122.273 C 25.651 119.078, 30.886 116.008, 34.250 116.004 C 36.026 116.001, 37 115.469, 37 114.500 C 37 111.347, 26.567 114.390, 22.788 118.645 C 17.926 124.121, 16.536 136.820, 19.515 148.540 C 22.820 161.541, 32.558 176.652, 40.169 180.587 C 48.640 184.968, 55.917 178.453, 58.950 163.771 C 60.088 158.259, 60.034 157.911, 57.528 154.625 C 52.731 148.336, 50.676 140.649, 50.678 129 C 50.680 116.516, 52.270 109.386, 60.930 83.021 C 64.269 72.858, 67 63.959, 67 63.246 C 67 61.257, 71.013 60.205, 76 60.886 L 80.500 61.500 76.327 63.139 C 67.531 66.595, 65.299 77.315, 67.074 107.600 C 68.567 133.084, 67.999 151.139, 65.548 156.104 L 63.769 159.707 67.130 166.460 C 70.627 173.488, 75.846 180.312, 79.023 182.012 C 82.251 183.740, 85.895 181.492, 88.158 176.376 C 94.149 162.831, 95.583 121.769, 90.897 97.896 C 89.982 93.233, 90.060 91.785, 91.362 89.266 C 93.178 85.755, 97.851 80, 98.887 80 C 99.277 80, 99.575 83.564, 99.548 87.919 C 99.509 94.390, 99.875 96.342, 101.550 98.592 C 103.186 100.789, 106.044 103.088, 107.732 103.566 C 107.860 103.602, 106.444 106.527, 104.586 110.066 C 100.254 118.315, 99.441 122.172, 101.263 125.826 C 102.577 128.460, 102.501 128.879, 100.220 131.531 C 98.058 134.044, 97.820 135.077, 98.266 140.002 C 99.231 150.641, 108.822 165.165, 117.500 169.129 C 123.109 171.691, 125.412 171.455, 129.454 167.906 C 133.514 164.342, 135.684 158.254, 136.667 147.668 C 137.032 143.746, 137.630 141.376, 138.060 142.148 C 138.474 142.892, 140.232 150.465, 141.965 158.977 C 146.144 179.497, 148.983 183.858, 156.340 181.061 C 160.185 179.599, 167.906 171.282, 173.915 162.130 C 178.766 154.740, 178.929 154.270, 177.786 150.958 C 176.961 148.566, 176.550 136.555, 176.452 112 C 176.296 73.046, 175.660 67.846, 170.449 62.954 C 166.561 59.303, 160.168 59.673, 152.288 64.005 L 146.162 67.373 142.041 64.646 C 128.883 55.939, 138.406 49.470, 173 43.615 C 182.504 42.007, 185.500 41.141, 185.500 40 C 185.500 38.734, 182.766 38.458, 167.985 38.228 L 150.470 37.956 150.790 27.228 C 151.071 17.820, 150.859 16.100, 149.070 13.250 C 146.455 9.085, 142.744 8.952, 137.400 12.832 M 137.281 16.492 C 135.037 18.412, 130.951 23.024, 128.199 26.742 C 122.347 34.647, 111 54.699, 111 57.135 C 111 58.059, 109.908 60.994, 108.573 63.658 C 107.238 66.321, 105.836 69.581, 105.457 70.901 C 104.866 72.966, 105.031 73.194, 106.635 72.525 C 107.661 72.098, 112.015 71.520, 116.311 71.242 C 139.316 69.752, 157.985 84.757, 158.174 104.892 C 158.243 112.232, 157.128 116.704, 153.347 124.250 C 151.100 128.733, 150.740 129, 146.951 129 C 141.623 129, 136.557 126.780, 134.411 123.505 C 132.010 119.841, 132.247 114.182, 135.270 103 C 138.629 90.575, 140 84.450, 140 81.877 C 140 77.643, 133.124 81.210, 122.825 90.786 C 118.442 94.862, 118.215 95.319, 119.191 98.118 C 120.447 101.720, 120.044 102.204, 114.680 103.544 C 110.808 104.511, 110.220 105.131, 106.699 111.962 C 102.361 120.378, 102.068 124.872, 105.750 126.487 C 108.535 127.709, 108.660 129.656, 106.006 130.498 C 102.364 131.654, 101 133.954, 101 138.937 C 101 148.554, 112.639 165.616, 120.554 167.603 C 128.904 169.699, 134 159.944, 134 141.864 C 134 134.614, 134.087 134.441, 136.945 135.971 C 139.650 137.418, 141.743 143.596, 144.881 159.401 C 147.670 173.452, 149.874 179, 152.665 179 C 157.141 179, 163.256 173.056, 171.903 160.302 C 176.070 154.155, 176.094 154.068, 174.802 149.802 C 173.839 146.620, 173.500 136.384, 173.500 110.500 C 173.500 73.461, 173.146 70.125, 168.703 65.250 C 165.228 61.439, 158.597 62.783, 148.957 69.253 C 146.475 70.918, 146.287 70.874, 141.225 67.465 C 135.653 63.713, 132.526 59.069, 133.502 55.994 C 135.119 50.899, 144.496 46.380, 160.252 43.103 L 169.500 41.179 158.500 40.840 L 147.500 40.500 147.689 38 C 148.381 28.871, 148.063 16.987, 147.078 15.146 C 145.404 12.018, 141.953 12.492, 137.281 16.492 M 62.500 16.066 C 50.218 17.214, 30.382 20.499, 27 21.945 C 25.090 22.761, 27.411 22.939, 36.833 22.699 L 49.166 22.385 52.085 28.168 C 56.424 36.763, 56.707 36.844, 84.392 37.343 L 108.044 37.769 110.982 34.206 C 120.529 22.624, 111.900 16.295, 85.500 15.516 C 78.350 15.305, 68 15.552, 62.500 16.066 M 39.687 25.647 C 39.331 26.002, 41.346 27.362, 44.165 28.668 C 46.984 29.974, 49.467 30.866, 49.683 30.651 C 49.898 30.435, 49.536 29.075, 48.877 27.629 C 47.900 25.485, 47.002 25, 44.006 25 C 41.986 25, 40.042 25.291, 39.687 25.647 M 22.467 27.053 C 22.110 27.632, 23.041 30.607, 24.536 33.664 C 29.445 43.698, 48.864 60.957, 55.282 60.991 C 59.286 61.012, 59.116 53.509, 54.849 41.805 C 52.892 36.439, 52.205 35.631, 47.629 33.312 C 35.410 27.120, 24.156 24.321, 22.467 27.053 M 57.013 38.635 C 57.020 39.111, 57.920 42.353, 59.013 45.839 C 60.106 49.326, 61 53.938, 61 56.089 C 61 60.338, 61.181 60.509, 64.066 58.965 C 66.742 57.533, 66.874 46.226, 64.250 43.212 C 62.042 40.676, 56.996 37.485, 57.013 38.635 M 68.149 44.997 C 68.723 46.645, 69.037 50.245, 68.847 52.997 L 68.500 58.001 73.215 58.001 C 79.161 58, 86.009 60.305, 92.615 64.531 L 97.762 67.823 100.890 65.921 C 103.671 64.229, 107.986 58.685, 107.996 56.790 C 108.005 55.071, 102.174 50.936, 97.069 49.043 C 91.923 47.134, 71.048 42.030, 68.302 42.009 C 67.405 42.002, 67.367 42.754, 68.149 44.997 M 75.306 66.498 C 74.129 67.322, 72.342 70.135, 71.333 72.748 C 69.707 76.962, 69.552 79.820, 69.958 98 C 70.888 139.692, 70.659 150.088, 68.698 155.171 L 66.895 159.842 70.359 166.721 C 74.387 174.719, 79.204 180.300, 81.670 179.825 C 84.315 179.316, 86.887 174.021, 88.697 165.362 C 91.075 153.980, 91.075 114.154, 88.697 101.220 C 87.034 92.181, 87.041 91.840, 88.960 88.078 C 91.083 83.917, 96.268 78.053, 99.500 76.157 C 101.419 75.031, 101.360 74.862, 98.021 71.978 C 93.968 68.476, 85.332 65, 80.685 65 C 78.903 65, 76.482 65.674, 75.306 66.498 M 101.143 68.907 C 100.137 69.532, 100.090 69.937, 100.960 70.475 C 102.332 71.323, 103.362 70.572, 102.854 69.095 C 102.646 68.489, 101.940 68.412, 101.143 68.907 M 116 73.549 C 115.175 73.724, 112.813 74.142, 110.750 74.479 C 106.327 75.200, 106.125 76.171, 109.548 80.239 C 110.949 81.905, 113.029 85.119, 114.171 87.384 C 115.312 89.648, 116.396 91.668, 116.579 91.873 C 116.763 92.078, 119.745 89.770, 123.206 86.743 C 126.668 83.716, 131.047 80.307, 132.938 79.167 L 136.376 77.093 133.675 76.066 C 131.204 75.127, 119.175 72.869, 118 73.124 C 117.725 73.183, 116.825 73.375, 116 73.549 M 102.450 83.554 C 101.480 91.320, 102.441 96.073, 105.522 98.750 C 108.856 101.647, 109.996 101.527, 112.792 97.986 L 115.083 95.083 112.908 90.792 C 110.247 85.543, 104.937 78, 103.902 78 C 103.485 78, 102.832 80.499, 102.450 83.554 M 142.013 87.750 C 141.391 90.912, 139.774 97.447, 138.419 102.270 C 137.065 107.094, 135.683 113.033, 135.349 115.468 C 134.801 119.466, 135.039 120.193, 137.794 122.948 C 140.283 125.437, 141.668 126, 145.300 126 C 149.681 126, 149.788 125.920, 151.870 121.080 C 156.519 110.275, 156.885 102.050, 153.099 93.492 C 151.244 89.297, 145.446 82, 143.968 82 C 143.515 82, 142.635 84.588, 142.013 87.750 M 114.500 100 C 114.160 100.550, 114.332 101, 114.882 101 C 115.432 101, 116.160 100.550, 116.500 100 C 116.840 99.450, 116.668 99, 116.118 99 C 115.568 99, 114.840 99.450, 114.500 100" stroke="none" fill="black" fill-rule="evenodd"/>
</svg>