<svg xmlns="http://www.w3.org/2000/svg" width="200" height="200" viewBox="0 0 200 200" version="1.1">
	<path d="M 135.500 16.609 C 127.800 17.368, 108.501 19.600, 92.613 21.570 L 63.727 25.151 53.415 23.075 C 43.225 21.024, 31.854 20.525, 27 21.915 C 25.399 22.374, 23.077 22.003, 20.544 20.884 C 14.294 18.123, 12.519 20.447, 18.646 23.368 C 21.388 24.676, 22.008 25.392, 21.146 26.254 C 17.803 29.597, 21.565 40.690, 29.816 51.817 L 34.500 58.133 41.505 57.600 C 53.150 56.714, 60 53.292, 60 48.360 C 60 45.231, 54.684 39.412, 47.684 34.881 L 41.868 31.115 45.184 30.584 C 62.154 27.864, 62.229 27.865, 71.103 30.893 C 78.718 33.492, 88.052 36.999, 88.793 37.539 C 88.954 37.656, 88.282 39.437, 87.300 41.496 L 85.515 45.241 75.264 44.785 C 66.236 44.383, 64.814 44.548, 63.351 46.164 C 61.779 47.901, 61.833 48, 64.345 48 C 68.069 48, 67.650 49.565, 63.167 52.395 C 55.808 57.040, 51.410 63.936, 48.032 76.128 C 45.612 84.858, 45.672 84, 47.481 84 C 48.295 84, 49.235 82.763, 49.570 81.250 C 50.623 76.485, 53.215 68.610, 54.692 65.690 C 56.305 62.501, 62.837 55, 64.002 55 C 64.425 55, 62.086 63.212, 58.805 73.250 C 50.445 98.823, 48.013 109.903, 47.337 125.500 C 46.726 139.613, 48.072 147.752, 52.254 155.223 C 54.175 158.654, 54.229 159.277, 52.945 163.166 C 50.958 169.186, 45.167 175, 41.158 175 C 33.724 175, 24.561 161.121, 21.406 145.081 C 19.564 135.712, 19.945 127.871, 22.669 119.144 C 24.958 111.810, 32.484 103.621, 39.093 101.273 C 41.792 100.315, 44 99.213, 44 98.824 C 44 94.908, 32.764 100.244, 26.620 107.078 C 20.403 113.993, 17.718 122.323, 17.815 134.393 C 18.022 160.038, 33.307 183.064, 45.827 176.590 C 49.683 174.596, 53.636 169.467, 55.885 163.543 L 57.620 158.972 54.197 152.074 C 46.272 136.108, 48.508 113.534, 62.102 72.270 C 65.538 61.841, 68.782 53.637, 69.594 53.326 C 70.381 53.024, 73.088 53.086, 75.609 53.464 C 79.304 54.018, 80.084 54.476, 79.627 55.826 C 79.316 56.747, 77.723 61.310, 76.087 65.966 C 72.154 77.162, 71.423 84.931, 72.955 99.272 L 74.213 111.044 71.577 116.433 C 70.127 119.396, 67.198 123.395, 65.068 125.320 C 61.437 128.600, 61.330 128.854, 63.348 129.395 C 64.532 129.713, 69.112 129.979, 73.526 129.986 C 88.782 130.012, 105.526 132.888, 104.728 135.345 C 104.070 137.373, 96.874 140.727, 83.017 145.465 C 75.602 148, 68.436 150.795, 67.094 151.674 C 64.758 153.204, 64.733 153.332, 66.507 154.629 C 67.875 155.629, 70.474 155.835, 76.430 155.414 L 84.500 154.844 89.766 161.369 C 98.929 172.719, 107.778 178.594, 113.878 177.374 C 115.529 177.044, 119.494 174.607, 122.690 171.958 C 139.589 157.949, 146.772 154.925, 164.800 154.230 C 175.447 153.819, 177.058 153.538, 176.788 152.135 C 176.354 149.884, 173.350 148.630, 158.985 144.703 C 143.976 140.600, 138.271 138.329, 139.609 136.991 C 141.247 135.353, 154.880 132.291, 168.500 130.502 C 175.650 129.564, 182.169 128.590, 182.986 128.338 C 183.880 128.064, 181.911 126.513, 178.051 124.451 C 164.883 117.415, 163.154 113.664, 168.117 102.897 C 171.150 96.318, 171.285 95.594, 169.946 93.145 C 169.102 91.600, 165.977 89.252, 162.434 87.500 L 156.368 84.500 158.666 78.794 C 159.930 75.655, 162.776 70.705, 164.990 67.794 C 170.735 60.239, 173.003 53.551, 172.986 44.212 C 172.970 35.205, 172.292 32, 170.402 32 C 169.652 32, 168.814 33.012, 168.541 34.250 C 166.485 43.558, 162.451 59.560, 160.868 64.689 C 159.277 69.843, 158.040 71.695, 153.477 75.763 C 150.462 78.450, 143.834 82.821, 138.748 85.478 C 127.871 91.160, 128.654 90.631, 129.378 91.802 C 129.710 92.340, 134.062 91.517, 139.605 89.869 C 144.913 88.291, 149.901 87, 150.691 87 C 152.996 87, 148.332 94.532, 142 101.033 C 135.541 107.666, 129.320 110.371, 118.044 111.449 C 113.943 111.841, 109.290 112.833, 107.704 113.653 C 105.015 115.044, 104.854 115.021, 105.324 113.322 C 107.021 107.193, 109.258 93.115, 108.747 91.782 C 108.378 90.821, 104.084 88.947, 97.819 87.013 C 92.144 85.260, 87.109 83.452, 86.631 82.994 C 84.315 80.776, 101.229 75.066, 128 69.028 C 138.175 66.733, 147.619 64.322, 148.988 63.670 C 153.010 61.754, 152.714 59.297, 148.311 58.040 C 140.283 55.750, 93 51.825, 93 53.450 C 93 53.857, 93.975 55.561, 95.167 57.235 C 97.636 60.702, 97.534 60.682, 89.802 56.183 C 84.442 53.065, 84.169 52.723, 85.212 50.434 C 86.318 48.007, 86.366 48, 101.911 47.999 C 126.531 47.998, 145.255 45.808, 147.901 42.620 C 152.146 37.504, 137.408 32.715, 117 32.578 C 105.118 32.497, 100.359 33.750, 98.254 37.510 C 97.515 38.831, 97.165 38.840, 95.455 37.577 C 94.141 36.608, 93.829 35.800, 94.503 35.114 C 95.055 34.553, 101.580 32.920, 109.003 31.486 C 126.220 28.159, 150.255 22.469, 155.750 20.420 C 160.088 18.802, 161.256 16.696, 158.418 15.607 C 156.293 14.791, 152.053 14.977, 135.500 16.609 M 133 19.622 C 125.575 20.384, 108.590 22.356, 95.255 24.004 C 81.920 25.652, 70.670 27.014, 70.255 27.031 C 69.840 27.048, 74.195 28.849, 79.932 31.034 C 90.206 34.946, 90.396 34.977, 92.432 33.119 C 93.645 32.013, 97.396 30.752, 101.500 30.072 C 110.765 28.536, 148.334 20.202, 151.227 19.040 C 153.229 18.236, 153.082 18.133, 150 18.182 C 148.075 18.212, 140.425 18.861, 133 19.622 M 32.735 25.941 C 38.255 28.501, 38.258 28.502, 46.915 27.566 C 57.407 26.431, 53.813 24.854, 39.612 24.361 L 28.500 23.975 32.735 25.941 M 23.678 26.656 C 23.305 27.028, 23.008 29.171, 23.018 31.417 C 23.037 35.762, 26.391 42.772, 32.235 50.687 L 35.500 55.108 42.124 54.696 C 49.928 54.212, 56.365 51.445, 56.801 48.389 C 57.238 45.331, 49.261 38.552, 37.919 32.345 C 27.807 26.810, 24.746 25.587, 23.678 26.656 M 105.203 36.131 C 100.902 37.371, 100.186 39.505, 103.048 42.551 C 105.134 44.771, 106.130 45, 113.714 45 C 123.819 45, 140.229 43.263, 143.862 41.810 L 146.500 40.754 143 39.260 C 134.560 35.659, 113.024 33.876, 105.203 36.131 M 90.534 41.255 C 88.179 44.617, 88.581 45, 94.469 45 C 100.782 45, 101.162 43.401, 95.490 40.697 C 92.186 39.121, 92.015 39.140, 90.534 41.255 M 167.787 50.072 C 166.295 55.886, 164.790 61.511, 164.444 62.572 C 164.097 63.632, 164.741 63.130, 165.875 61.456 C 168.431 57.681, 171.230 47.065, 170.812 42.733 C 170.575 40.273, 169.852 42.027, 167.787 50.072 M 69.667 48.667 C 68.413 49.920, 68.998 50.813, 70.770 50.350 C 71.744 50.095, 74.546 50.337, 76.996 50.888 C 81.294 51.854, 82.933 51.269, 82.985 48.750 C 83.004 47.823, 70.588 47.745, 69.667 48.667 M 81.008 60.250 C 79.975 62.587, 78.139 68.100, 76.929 72.500 C 74.946 79.708, 74.802 81.786, 75.479 93.500 C 76.661 113.952, 76.367 115.680, 70.345 123.603 L 67.987 126.706 79.548 127.397 C 98.714 128.543, 108 130.982, 108 134.871 C 108 138.606, 103.010 141.366, 84 148.149 L 70.500 152.966 78 152.448 L 85.500 151.931 92.005 159.669 C 99.018 168.009, 105.648 173.623, 109.684 174.636 C 112.949 175.455, 117.342 173.332, 123.573 167.926 C 135.818 157.301, 146.529 152.585, 161.517 151.219 L 169.500 150.491 157.500 147.199 C 141.210 142.729, 137 140.771, 137 137.663 C 137 133.621, 142.230 131.711, 161.792 128.612 L 175.155 126.494 170.645 123.316 C 161.928 117.171, 160.679 112.086, 165.441 102.123 C 167.004 98.853, 168.018 95.490, 167.695 94.647 C 166.994 92.822, 163.849 90.665, 158.833 88.573 L 155.167 87.043 152.200 92.271 C 144.447 105.938, 134.958 112.253, 119.621 113.955 C 108.838 115.151, 106.388 116.575, 104.892 122.516 C 104.246 125.081, 103.180 127, 102.400 127 C 100.858 127, 101.104 123.578, 103.727 108.500 C 104.588 103.550, 105.490 97.904, 105.732 95.954 L 106.171 92.408 97.336 89.760 C 92.476 88.304, 86.766 86.387, 84.646 85.500 C 80.844 83.908, 80.817 83.859, 82.646 81.835 C 87.178 76.820, 100.147 72.347, 128.500 66.022 C 138.400 63.813, 146.927 62.005, 147.450 62.003 C 148.050 62.001, 148.050 61.658, 147.450 61.071 C 145.816 59.474, 105.679 55.284, 100.250 56.144 C 98 56.500, 98.001 56.501, 100.996 61 C 106.286 68.946, 104.393 69.066, 93.089 61.500 C 88.570 58.475, 84.425 56, 83.880 56 C 83.334 56, 82.042 57.913, 81.008 60.250 M 150.497 81.628 C 146.894 84.244, 146.197 85.085, 148 84.642 C 149.375 84.304, 151.243 84.021, 152.152 84.014 C 153.082 84.006, 154.261 82.689, 154.850 81 C 155.425 79.350, 155.805 78, 155.695 78 C 155.584 78, 153.245 79.633, 150.497 81.628" stroke="none" fill="black" fill-rule="evenodd"/>
</svg>