<svg xmlns="http://www.w3.org/2000/svg" width="200" height="200" viewBox="0 0 200 200" version="1.1">
	<path d="M 131.054 14.087 C 126.409 14.606, 117.634 16.130, 111.554 17.475 C 105.474 18.819, 93.975 20.407, 86 21.003 C 78.025 21.599, 67.450 22.714, 62.500 23.480 C 53.522 24.870, 48.708 24.541, 42.685 22.128 C 34.978 19.040, 27.710 21.952, 23.944 29.636 C 20.497 36.668, 20.481 52.447, 23.910 62.444 C 26.761 70.755, 34.012 78.925, 38.702 79.111 C 47.609 79.463, 51.739 77.273, 60.887 67.345 L 68.018 59.605 78.409 64.860 C 84.123 67.750, 90.498 71.583, 92.575 73.378 C 99.634 79.481, 95.923 81.345, 73.196 83.113 C 59.988 84.141, 54.647 84.019, 41.696 82.393 C 36.180 81.701, 29.943 83.043, 21.821 86.672 C 18.012 88.374, 16.316 89.660, 16.669 90.580 C 17.111 91.731, 17.646 91.717, 20.007 90.496 C 22.916 88.992, 37.063 87.023, 45.063 87.008 C 50.027 86.999, 53.251 89.443, 56.264 95.500 C 61.327 105.677, 60.920 130.519, 55.519 140.964 C 52.481 146.838, 51.561 144.016, 50.127 124.435 C 49.186 111.590, 47.567 106.632, 43.937 105.480 C 38.659 103.805, 32.589 109.814, 25.736 123.500 C 16.396 142.150, 13.773 164.925, 19.653 176.297 L 21.192 179.273 28.846 178.714 C 38.141 178.035, 49.972 174.655, 68.332 167.433 C 102.767 153.890, 120.750 141, 105.210 141 C 98.965 141, 91.886 138.572, 88.917 135.412 C 86.700 133.052, 86.663 132.788, 88.178 130.213 C 89.057 128.721, 93.988 124.680, 99.138 121.233 C 112.284 112.434, 115 110.179, 115 108.064 C 115 105.149, 112.527 104.624, 96.035 104.044 L 80.569 103.500 93.613 97.703 C 100.788 94.515, 108.322 90.534, 110.358 88.857 C 118.083 82.489, 119.912 74.584, 120.044 47 C 120.090 37.312, 120.480 30.393, 120.917 31.500 C 122.267 34.914, 124.060 54.195, 124.934 74.694 C 125.687 92.352, 124.842 122.491, 123.558 123.775 C 122.709 124.624, 129.134 132.084, 133.336 135.128 C 135.516 136.708, 138.332 138, 139.594 138 L 141.888 138 139.751 142.750 C 134.043 155.441, 139.670 173.544, 151.200 179.585 C 155.012 181.582, 162.403 181.345, 166.835 179.084 C 173.673 175.595, 185.621 160.221, 183.298 157.898 C 182.672 157.272, 181.045 159.008, 178.704 162.800 C 174.070 170.308, 167.255 176.585, 162.285 177.923 C 154.797 179.940, 147.621 176.014, 143.537 167.665 C 137.886 156.114, 139.485 144.456, 147.852 136.204 C 150.475 133.617, 153.543 130.825, 154.669 130 C 156.701 128.511, 156.711 128.113, 156.108 74 L 155.500 19.500 137.500 19 L 119.500 18.500 131.413 17.113 C 139.243 16.201, 147.162 15.955, 154.515 16.395 C 165.444 17.048, 181.526 19.193, 182.454 20.121 C 182.710 20.376, 182.065 23.329, 181.022 26.681 C 179.979 30.034, 178.635 37.227, 178.037 42.666 C 176.644 55.326, 177.050 142.150, 178.500 141.667 C 179.139 141.455, 179.710 122.784, 180.083 89.917 C 180.692 36.229, 180.910 33.480, 185.489 21.808 C 187.224 17.387, 187.727 17.658, 174 15.602 C 160.975 13.650, 141.217 12.953, 131.054 14.087 M 126.500 22.026 C 106.258 22.569, 99.502 23.122, 91 24.933 C 84.433 26.332, 74.591 27.447, 64.726 27.908 C 51.135 28.544, 48.574 28.927, 46.226 30.679 C 44.727 31.797, 43.357 33.439, 43.182 34.326 C 43.008 35.214, 44.996 38.219, 47.600 41.003 L 52.335 46.066 58.433 39.533 C 67.444 29.880, 70.671 30.682, 71.689 42.828 C 72.012 46.678, 72.625 50.394, 73.052 51.085 C 74.359 53.199, 78.444 49.704, 86.287 39.761 L 93.500 30.617 94.004 36.558 C 94.410 41.345, 94.673 42.041, 95.356 40.139 C 97.734 33.526, 107.922 26.069, 114.643 26.022 C 116.498 26.009, 118.022 25.385, 118.362 24.500 C 119.186 22.352, 121.754 22.649, 122.493 24.978 C 122.838 26.065, 125.443 28.122, 128.280 29.547 C 139.580 35.222, 151.968 45.668, 150.365 48.169 C 149.896 48.901, 149.256 67.050, 148.944 88.500 C 148.563 114.669, 147.994 128.404, 147.214 130.247 L 146.052 132.994 150.176 130.265 L 154.300 127.536 153.653 109.018 C 153.297 98.833, 153.004 74.863, 153.003 55.750 C 153.001 36.637, 152.662 21.080, 152.250 21.178 C 151.838 21.276, 140.250 21.658, 126.500 22.026 M 33.010 24.371 C 27.800 26.063, 24.773 32.213, 24.189 42.292 C 23.454 54.997, 26.677 65.776, 33.294 72.740 C 40.547 80.372, 50.821 76.688, 61.422 62.654 L 66.298 56.199 70.899 58.167 C 87.235 65.155, 99.444 73.877, 98.830 78.120 C 98.107 83.111, 91.143 84.749, 62.748 86.607 L 53.996 87.180 55.957 89.673 C 59.387 94.033, 62.009 102.787, 62.594 111.832 C 63.599 127.368, 58.608 146.059, 53.252 146.819 C 49.965 147.286, 48.924 143.681, 47.874 128.183 C 46.863 113.273, 45.307 108, 41.919 108 C 36.668 108, 27.316 123.192, 22.394 139.718 C 17.921 154.736, 18.805 174.931, 23.995 176.288 C 32.768 178.583, 79.197 162.105, 101.288 148.858 L 108.500 144.533 103 143.924 C 92.937 142.811, 84.750 137.770, 84.750 132.689 C 84.750 127.622, 86.901 125.732, 108.743 111.599 C 115.444 107.263, 112.788 106.500, 91 106.500 C 79.642 106.500, 72.321 106.114, 72.037 105.500 C 71.782 104.950, 79.114 101.125, 88.331 97 C 107.149 88.578, 111.365 85.690, 114.201 79.278 C 116.224 74.705, 116.500 71.557, 117.402 42.750 L 117.832 29 114.166 29.005 C 105.920 29.017, 98.502 36.939, 94.728 49.765 C 93.552 53.761, 92.120 56.873, 91.545 56.680 C 90.889 56.461, 90.631 53.110, 90.852 47.665 C 91.045 42.899, 90.999 39, 90.749 39 C 90.499 39, 88.202 41.665, 85.643 44.921 C 75.416 57.938, 69.047 57.443, 68.986 43.625 C 68.966 39.079, 67.953 36, 66.476 36 C 64.831 36, 56.491 45.241, 53.660 50.201 C 51.549 53.899, 49.697 54.937, 48.543 53.069 C 48.226 52.557, 48.425 51.856, 48.984 51.510 C 50.966 50.285, 49.944 47.731, 45.489 42.776 C 39.297 35.889, 38.819 33.445, 42.944 29.758 C 44.730 28.163, 45.967 26.634, 45.694 26.361 C 45.421 26.087, 43.237 25.274, 40.842 24.553 C 37.490 23.544, 35.685 23.502, 33.010 24.371 M 124.456 34.750 C 127.206 51.064, 129.009 104.839, 127.231 117.500 L 126.248 124.500 131.472 129.750 C 135.119 133.415, 137.486 135, 139.313 135 C 145.096 135, 146.205 127.841, 146.131 91 C 146.097 74.225, 146.448 57.575, 146.910 54 C 147.880 46.503, 147.745 46.256, 139 39.520 C 134.008 35.675, 126.026 31, 124.452 31 C 124.107 31, 124.109 32.688, 124.456 34.750" stroke="none" fill="black" fill-rule="evenodd"/>
</svg>