<svg xmlns="http://www.w3.org/2000/svg" width="200" height="200" viewBox="0 0 200 200" version="1.1">
	<path d="M 184.740 18.812 C 175.665 23.508, 162.821 32.974, 142.768 49.744 L 127.430 62.571 124.170 60.667 C 121.079 58.862, 120.686 58.848, 116.614 60.403 C 114.252 61.305, 109.208 64.663, 105.404 67.865 C 100.952 71.612, 97.189 73.930, 94.841 74.370 C 92.835 74.746, 90.957 75.669, 90.669 76.421 C 90.045 78.047, 93.173 81.095, 97.944 83.509 L 101.388 85.252 94.444 91.523 C 87.276 97.997, 83.678 99.426, 77.513 98.247 C 73.921 97.561, 57.933 81.885, 55.118 76.290 C 50.974 68.052, 51.048 68, 67 68 C 79.738 68, 83.676 67.241, 79.418 65.607 C 78.548 65.273, 72.447 65, 65.859 65 C 52.780 65, 51.795 64.305, 59.832 60.750 C 63.327 59.204, 66.544 58.727, 73.478 58.727 C 83.902 58.727, 94.258 61.165, 93.394 63.416 C 92.649 65.356, 94.539 66.260, 95.904 64.616 C 97.752 62.389, 96.118 60.211, 91.162 58.299 C 87.566 56.912, 83.640 56.500, 74 56.500 C 62.973 56.500, 61.007 56.764, 57.316 58.737 C 55.015 59.967, 52.477 61.909, 51.676 63.053 C 50.474 64.768, 49.589 65.013, 46.618 64.456 C 44.551 64.068, 43.286 63.346, 43.648 62.761 C 44.679 61.093, 61.659 53.502, 74 49.192 C 80.325 46.983, 86.360 44.835, 87.411 44.419 C 88.986 43.796, 89.228 44.019, 88.792 45.689 C 87.261 51.544, 93.137 52.504, 105.874 48.480 L 113.852 45.960 117.565 48.480 C 119.621 49.875, 122.708 51, 124.480 51 C 133.266 51, 151.087 36.528, 157.359 24.300 C 161.188 16.834, 158.017 14.761, 150.663 19.922 C 147.890 21.869, 138.988 25.184, 124 29.853 C 111.625 33.708, 100.600 37.202, 99.500 37.617 C 98.346 38.053, 99.931 35.732, 103.250 32.129 C 106.412 28.695, 109 25.012, 109 23.943 C 109 20.916, 103.733 21.486, 94.510 25.512 C 90.116 27.430, 86.178 29, 85.760 29 C 85.342 29, 84.998 27.988, 84.996 26.750 C 84.991 23.555, 81.456 18.165, 78.476 16.807 C 76.427 15.873, 75.247 15.989, 72.258 17.414 C 65.968 20.414, 61.353 24.724, 46.967 41.038 C 37.049 52.285, 31.899 57.335, 29.007 58.653 L 24.952 60.500 25.668 65.500 C 27.009 74.871, 26.081 104.444, 23.538 133.403 C 22.142 149.300, 21 165.332, 21 169.031 C 21 179.542, 23.810 180.380, 31.293 172.098 C 40.451 161.960, 44.125 149.267, 47.964 114.500 C 50.439 92.082, 51.765 87, 55.142 87 C 58.078 87, 61.317 89.519, 66.118 95.536 C 69.394 99.641, 71.127 101, 73.084 101 C 74.517 101, 76.472 101.865, 77.429 102.921 C 79.109 104.778, 78.909 105.048, 71.489 110.945 C 62.524 118.069, 58.727 120.216, 56.563 119.386 C 54.700 118.671, 54.471 120.359, 56.250 121.692 C 56.938 122.207, 60.626 123.925, 64.446 125.510 C 68.266 127.095, 72.242 129.242, 73.282 130.282 C 75.440 132.440, 75.455 132.331, 70.798 148.775 L 67.606 160.049 55.269 168.032 C 38.325 178.995, 37.272 182.051, 51.809 178.071 C 72.069 172.525, 80.630 170.881, 90 170.737 C 101.418 170.561, 106.286 171.841, 111.645 176.428 L 115.683 179.885 114.686 174.692 C 114.138 171.837, 113.647 157.555, 113.595 142.957 C 113.509 119.028, 113.320 116.138, 111.672 113.623 C 109.046 109.614, 103.986 107.828, 96.134 108.138 C 91.055 108.338, 88.848 107.969, 86.718 106.564 C 84.174 104.885, 84.069 104.582, 85.486 103.016 C 86.712 101.661, 89.484 101.180, 98.768 100.711 C 112.857 99.999, 118.360 98.486, 118.827 95.194 C 119.257 92.157, 117.636 90.356, 111.813 87.405 C 109.166 86.064, 107 84.780, 107 84.553 C 107 84.326, 111.142 80.517, 116.203 76.090 C 122.619 70.479, 125.644 68.413, 126.188 69.270 C 126.618 69.947, 126.980 81.075, 126.992 94 C 127.005 106.925, 127.484 120.425, 128.056 124 C 129.982 136.029, 134.441 141.371, 142.452 141.249 C 144.953 141.212, 147 141.279, 147 141.399 C 147 141.519, 145.598 145.416, 143.884 150.059 C 140.222 159.982, 139.598 169.533, 142.280 174.630 C 145.548 180.839, 148.964 184, 152.407 184 C 157.981 184, 165.423 181.186, 169.834 177.410 C 181.791 167.176, 184.482 148.375, 180.486 103 C 179.521 92.041, 179.023 80.135, 179.348 75.818 C 179.865 68.963, 180.484 67.134, 185.110 58.818 C 198.284 35.131, 202.730 20.780, 198.171 16.655 C 195.447 14.189, 192.876 14.602, 184.740 18.812 M 185.602 21.410 C 177.211 25.784, 165.912 33.993, 149.106 47.924 C 130.099 63.681, 127.794 65.868, 128.711 67.283 C 129.145 67.952, 129.725 81.550, 130 97.500 C 130.490 125.949, 130.548 126.595, 133 131.497 C 136.023 137.538, 139.613 139.873, 143.682 138.444 C 147.533 137.091, 147.682 135.749, 149.056 90 C 149.692 68.825, 150.614 51.072, 151.106 50.550 C 152.998 48.540, 153.954 51.930, 155.467 66.004 C 156.324 73.977, 157.434 82.300, 157.933 84.500 C 162.006 102.441, 160.365 112.338, 147.072 150 C 144.839 156.325, 143.010 163.202, 143.006 165.282 C 142.999 169.965, 145.308 175.667, 148.607 179.111 C 150.886 181.490, 151.507 181.647, 155.612 180.880 C 170.003 178.192, 176.899 168.463, 179.213 147.585 C 180.157 139.068, 179.986 132.978, 178.109 108.417 C 176.860 92.073, 176.175 76.961, 176.545 73.917 C 177.022 69.984, 179.389 64.162, 185.185 52.662 C 194.161 34.854, 197 27.449, 197 21.843 C 197 18.441, 196.721 18, 194.573 18 C 193.238 18, 189.201 19.535, 185.602 21.410 M 69.946 21.880 C 65.143 24.992, 59.071 31.119, 46.043 46 C 38.506 54.608, 30.686 61.998, 29.109 62.001 C 28.774 62.002, 28.467 73.589, 28.427 87.751 C 28.374 106.105, 27.728 119.997, 26.177 136.123 C 24.979 148.565, 24 162.491, 24 167.069 L 24 175.392 27.585 171.946 C 37.250 162.656, 41.154 149.997, 44.993 115.500 C 46.156 105.050, 47.535 94.871, 48.057 92.881 C 49.266 88.272, 52.606 84, 55 84 C 56.621 84, 56.424 83.286, 53.427 78.309 C 51.542 75.179, 50 71.354, 50 69.809 C 50 67.296, 49.651 67, 46.691 67 C 42.165 67, 39.161 64.713, 40.528 62.309 C 42.152 59.453, 60.521 50.875, 77.335 45.120 L 92.723 39.854 98.671 33.177 C 101.942 29.505, 104.961 25.930, 105.380 25.232 C 106.217 23.837, 96.106 27.375, 89.223 30.886 C 84.185 33.457, 83.002 33.526, 82.994 31.250 C 82.984 28.120, 80.962 22.105, 79.391 20.534 C 77.171 18.314, 74.965 18.628, 69.946 21.880 M 151.362 22.589 C 149.297 24.231, 139.040 27.978, 121.362 33.551 C 100.995 39.972, 94.082 42.561, 92.772 44.259 C 91.822 45.492, 91.034 46.837, 91.022 47.250 C 90.978 48.746, 97.965 47.945, 106.471 45.480 L 115.165 42.961 118.159 45.480 C 122.025 48.733, 126.178 48.712, 132.811 45.407 C 138.832 42.407, 148.775 33, 153.048 26.264 C 157.423 19.365, 156.887 18.196, 151.362 22.589 M 113.946 64.843 C 111.501 66.406, 107.184 69.781, 104.353 72.343 C 100.877 75.488, 98.321 77, 96.481 77 C 92.902 77, 94.443 78.994, 99.935 81.471 L 103.881 83.250 114.530 73.927 C 124.186 65.473, 125.013 64.482, 123.398 63.302 C 120.768 61.378, 118.883 61.686, 113.946 64.843 M 151.713 96.500 C 151.316 113, 150.741 127.850, 150.435 129.500 C 149.373 135.224, 151.785 129.713, 153.953 121.463 C 157.289 108.765, 157.623 98.353, 155.157 83.911 C 153.992 77.085, 152.902 70.375, 152.736 69 C 152.570 67.625, 152.110 80, 151.713 96.500 M 97.500 92.592 L 91.500 98.135 101.541 97.622 C 107.064 97.340, 112.851 96.627, 114.400 96.038 C 116.808 95.122, 117.029 94.740, 115.922 93.405 C 114.623 91.841, 105.755 86.979, 104.283 87.024 C 103.852 87.038, 100.800 89.543, 97.500 92.592 M 80.813 101.683 C 81.534 101.972, 82.397 101.936, 82.729 101.604 C 83.061 101.272, 82.471 101.036, 81.417 101.079 C 80.252 101.127, 80.015 101.364, 80.813 101.683 M 71.882 113.861 L 62.264 121.397 67.382 123.765 C 77.561 128.474, 78.808 131.770, 75.091 144.145 C 74.040 147.640, 72.464 153.050, 71.587 156.167 C 69.993 161.833, 69.990 161.836, 59.461 168.549 C 53.668 172.241, 49.057 175.387, 49.214 175.539 C 49.372 175.692, 55.575 174.200, 63 172.225 C 75.200 168.980, 77.800 168.628, 90 168.567 C 101.901 168.508, 104.010 168.755, 107.808 170.653 L 112.116 172.807 111.349 169.653 C 110.926 167.919, 110.563 155.099, 110.540 141.165 L 110.500 115.831 107.624 113.355 C 105.029 111.121, 103.976 110.900, 96.822 111.089 C 90.309 111.261, 88.414 110.949, 86.198 109.335 C 84.714 108.255, 83.050 107.136, 82.500 106.849 C 81.950 106.561, 77.172 109.717, 71.882 113.861" stroke="none" fill="black" fill-rule="evenodd"/>
</svg>