<svg xmlns="http://www.w3.org/2000/svg" width="200" height="200" viewBox="0 0 200 200" version="1.1">
	<path d="M 156.500 16.054 C 141.650 16.429, 113.525 16.852, 94 16.994 C 43.899 17.357, 29.607 18.051, 29.209 20.138 C 28.943 21.531, 30.401 21.885, 38.941 22.496 C 44.465 22.891, 48.768 23.566, 48.502 23.996 C 48.029 24.762, 25.438 26.676, 21.500 26.284 C 16.906 25.827, 10 27.214, 10 28.594 C 10 29.409, 11.002 30, 12.385 30 C 14.613 30, 14.845 30.542, 15.911 38.250 C 18.507 57.026, 23.904 67, 31.467 67 C 39.771 67, 45.390 54.530, 41.876 43.899 C 41.258 42.030, 39.437 38.813, 37.829 36.750 L 34.906 33 42.918 33 C 52.314 33, 53 33.635, 53 42.329 C 53 55.448, 46.530 67.052, 32.813 78.534 C 28.455 82.182, 25.066 85.692, 25.282 86.334 C 25.685 87.533, 27.567 87.566, 55 86.852 C 66.027 86.564, 69.436 86.827, 73.606 88.283 C 82.667 91.446, 85.545 96.739, 82.241 104.161 C 78.606 112.329, 65.837 121.412, 56.182 122.699 C 54.157 122.969, 49.031 122.472, 44.792 121.595 C 36.579 119.895, 20.939 119.390, 22.550 120.877 C 25.630 123.718, 36.042 126.313, 45.763 126.660 C 53.597 126.940, 57.585 127.614, 62.618 129.508 C 84.415 137.713, 89.999 146.925, 77.830 154.607 C 69.097 160.120, 62.690 161.668, 43 163.023 C 14.967 164.951, 12.012 167.228, 36 168.415 C 59.916 169.598, 73.693 171.829, 82.500 175.945 C 88.774 178.878, 90.436 179.135, 95.612 177.975 C 105.844 175.682, 111 168.233, 113.028 152.816 C 113.943 145.863, 113.840 138.889, 112.512 117.816 C 111.320 98.899, 111.130 89.813, 111.836 85.500 C 112.389 82.121, 112.440 79.104, 111.953 78.594 C 111.446 78.064, 109.435 79.181, 107.101 81.290 C 98.026 89.489, 87.705 87.698, 80.069 76.601 C 73.332 66.809, 70.965 51.078, 74.918 42.373 C 77.233 37.274, 79.427 35.532, 78.325 39.666 C 76.957 44.803, 77.685 58.221, 79.640 63.904 C 81.976 70.691, 84.753 72.837, 87.889 70.277 C 90.179 68.406, 92.968 59.709, 92.988 54.372 C 92.995 52.652, 93.562 50.821, 94.250 50.303 C 94.938 49.786, 100.418 48.597, 106.429 47.662 C 115.199 46.298, 117.535 46.213, 118.253 47.231 C 118.775 47.971, 118.808 59.141, 118.333 74 C 117.284 106.846, 117.436 122.490, 118.856 127.599 C 120.236 132.563, 123.552 137.614, 127.209 140.322 C 130.153 142.503, 140.328 143.897, 141.341 142.258 C 141.670 141.725, 142.660 137.287, 143.540 132.395 C 144.714 125.873, 145.347 112.961, 145.912 84 C 146.335 62.275, 147.013 43.747, 147.418 42.827 C 147.823 41.907, 148.759 40.923, 149.499 40.639 C 150.619 40.209, 150.746 49.621, 150.264 97.062 C 149.730 149.639, 149.813 154, 151.343 154 C 152.867 154, 153 149.170, 153 93.640 C 153 60.441, 153.279 31.247, 153.619 28.762 C 154.196 24.551, 154.504 24.165, 158.172 23.067 C 160.336 22.418, 162.355 21.238, 162.660 20.444 C 163.082 19.344, 165.214 19, 171.607 19 C 176.223 19, 179.995 19.113, 179.989 19.250 C 179.983 19.387, 179.332 21.629, 178.543 24.230 C 175.751 33.432, 174.771 52.274, 175.437 84 C 175.797 101.174, 175.677 116.861, 175.163 119.905 C 174.479 123.953, 174.633 126.840, 175.776 131.405 C 176.658 134.926, 177.345 142.357, 177.401 149 C 177.489 159.196, 177.231 161.046, 175.129 165.316 C 171.927 171.820, 166.642 175.254, 158.980 175.808 C 151.061 176.381, 142.843 173.722, 137.848 168.970 C 132.781 164.150, 132.827 163.493, 138.500 159.537 C 140.385 158.223, 140.396 158.103, 138.699 157.445 C 136.161 156.461, 132 160.593, 132 164.098 C 132 167.998, 136.162 172.450, 142.796 175.646 C 147.521 177.922, 149.886 178.403, 156.576 178.447 C 163.873 178.495, 165.127 178.207, 169.561 175.467 C 179.551 169.293, 182.978 155.980, 179.463 137 C 178.496 131.775, 177.748 126.375, 177.803 125 C 177.857 123.625, 178.080 102.925, 178.298 79 C 178.550 51.388, 179.112 33.674, 179.838 30.500 C 181.406 23.644, 184.031 18, 185.652 18 C 186.393 18, 187 17.325, 187 16.500 C 187 15.667, 186.222 15.083, 185.250 15.186 C 184.287 15.289, 171.350 15.679, 156.500 16.054 M 51 21.531 C 51 22.374, 51.628 23.304, 52.394 23.598 C 54.005 24.216, 89.982 21.351, 90.793 20.540 C 91.090 20.243, 82.258 20, 71.167 20 C 53.724 20, 51 20.207, 51 21.531 M 135 21.041 C 128.675 21.424, 123.287 21.796, 123.028 21.868 C 122.768 21.941, 125.994 23.759, 130.197 25.908 C 134.400 28.058, 140.551 31.658, 143.865 33.908 C 147.179 36.159, 150.140 38, 150.445 38 C 150.750 38, 151 34.438, 151 30.083 C 151 22.357, 151.066 22.143, 153.750 21.162 C 156.200 20.267, 155.955 20.168, 151.500 20.252 C 148.750 20.304, 141.325 20.659, 135 21.041 M 101.505 23.068 C 91.069 23.962, 88.174 24.891, 86.257 27.961 C 85.179 29.686, 85.464 29.768, 90.820 29.283 C 96.706 28.749, 104.860 30.327, 114.500 33.867 C 117.250 34.877, 121.525 36.332, 124 37.101 C 129.393 38.778, 129.807 40.847, 125.207 43.144 L 121.915 44.789 121.264 70.144 C 120.906 84.090, 120.607 102.250, 120.601 110.500 C 120.590 124.580, 120.749 125.848, 123.207 131.179 C 126.212 137.700, 129.996 140.290, 135.808 139.807 C 139.495 139.500, 139.495 139.500, 140.787 133 C 141.611 128.858, 142.375 111.808, 142.895 86 C 143.467 57.625, 144.088 44.512, 144.971 42.199 C 145.664 40.383, 146.067 38.769, 145.866 38.611 C 139.023 33.242, 119.492 23.279, 114.500 22.612 C 112.850 22.392, 107.002 22.597, 101.505 23.068 M 70 25.554 C 62.575 26.259, 55.755 26.873, 54.844 26.918 C 53.737 26.973, 53.348 27.617, 53.673 28.858 C 54.078 30.406, 55.520 30.822, 62.329 31.352 C 66.823 31.702, 72.750 31.985, 75.500 31.982 C 80.106 31.976, 80.677 31.701, 82.750 28.502 C 85.146 24.802, 85.450 23.919, 84.250 24.135 C 83.838 24.210, 77.425 24.848, 70 25.554 M 39.271 27.942 C 29.358 28.879, 28.987 29.997, 38.583 30.014 C 42.938 30.021, 47.558 30.311, 48.851 30.657 C 50.778 31.173, 51.137 30.945, 50.841 29.393 C 50.420 27.189, 49.053 27.018, 39.271 27.942 M 18 32.335 C 18 33.106, 18.695 37.734, 19.545 42.619 C 21.385 53.191, 24.795 61.164, 28.521 63.606 C 30.934 65.187, 31.507 65.223, 33.758 63.941 C 39.930 60.424, 41.964 48.991, 37.734 41.595 C 34.407 35.779, 29.429 32.336, 23.250 31.576 C 19.104 31.067, 18 31.226, 18 32.335 M 87.083 32.372 C 87.313 32.576, 91.325 33.002, 96 33.318 C 101.162 33.667, 103.518 33.560, 102 33.046 C 99.577 32.226, 86.244 31.623, 87.083 32.372 M 55.633 39.765 C 56.343 46.560, 54.242 55.950, 50.458 62.895 C 47.664 68.021, 42.036 74.336, 34.500 80.800 L 29.500 85.088 42 84.323 C 64.800 82.927, 75.713 84.363, 81.904 89.573 C 91.599 97.731, 84.481 113.365, 67.311 121.623 L 59.857 125.208 67.551 128.554 C 84.306 135.837, 90.480 143.760, 85.419 151.483 C 81.272 157.812, 64.713 164.944, 54.083 164.979 C 50.554 164.991, 47.918 165.251, 48.225 165.558 C 48.531 165.865, 53.617 166.750, 59.525 167.526 C 71.698 169.124, 79.975 171.269, 84.807 174.077 C 88.944 176.482, 93.324 176.490, 98.579 174.104 C 110.208 168.822, 111.674 159.856, 109.580 106.800 L 108.684 84.101 104.504 86.550 C 92.837 93.388, 80.009 86.221, 72.847 68.864 C 71.121 64.679, 70.620 61.412, 70.567 54 C 70.507 45.537, 70.785 43.995, 73.111 39.873 L 75.722 35.246 70.611 34.632 C 67.800 34.294, 63.144 34.013, 60.265 34.009 L 55.031 34 55.633 39.765 M 81.589 37.501 C 79.367 46.354, 80.124 59.313, 83.242 65.820 C 85.856 71.273, 88.442 67.295, 90.154 55.183 L 91.285 47.188 99.392 46.016 C 113.880 43.922, 117 43.029, 117 40.976 C 117 39.954, 116.639 38.895, 116.198 38.623 C 115.468 38.171, 104.195 36.939, 88.352 35.580 C 82.469 35.075, 82.177 35.158, 81.589 37.501 M 120 40.500 C 120 42.151, 121.761 42.438, 123.834 41.124 C 124.898 40.449, 124.831 40.149, 123.502 39.639 C 120.915 38.646, 120 38.871, 120 40.500" stroke="none" fill="black" fill-rule="evenodd"/>
</svg>