<svg xmlns="http://www.w3.org/2000/svg" width="200" height="200" viewBox="0 0 200 200" version="1.1">
	<path d="M 175.117 15.525 C 172.157 16.903, 166.848 20.049, 163.319 22.516 C 159.791 24.982, 156.701 27, 156.452 27 C 156.203 27, 156 25.533, 156 23.741 C 156 19.386, 154.004 18.312, 144.341 17.469 C 130.164 16.233, 119.969 19.575, 111.849 28.122 L 107.197 33.017 96.849 30.510 C 84.398 27.493, 81.597 27.403, 79.063 29.937 C 77.372 31.628, 77.267 32.357, 78.235 35.687 C 78.844 37.784, 79.356 44.450, 79.372 50.500 L 79.402 61.500 74.026 70.250 C 70.497 75.994, 68.034 79, 66.858 79 C 64.316 79, 58.379 72.743, 57.705 69.353 C 57.299 67.311, 57.822 65.499, 59.547 62.978 C 63.108 57.772, 64.740 45.939, 63.164 36.750 C 61.077 24.580, 56.059 19.505, 48.559 21.981 C 44.900 23.188, 29.864 36.226, 26.757 40.886 C 23.919 45.140, 24.537 51.062, 28.725 59.762 C 35.141 73.089, 33.396 78.178, 19.558 86.500 C 18.020 87.425, 18.047 87.988, 19.918 94 C 22.330 101.750, 26.855 107.575, 32.429 110.107 C 38.493 112.861, 42.766 112.562, 55.750 108.475 C 57.759 107.843, 58 108.106, 58 110.936 C 58 113.537, 56.893 115.128, 51.833 119.803 C 47.916 123.422, 44.794 125.500, 43.277 125.500 C 41.511 125.500, 38.293 128.349, 30.944 136.418 C 21.490 146.799, 19.439 150.003, 22.250 149.998 C 22.938 149.996, 28.332 145.464, 34.238 139.927 C 45.841 129.048, 46.984 128.622, 50.974 133.694 C 52.088 135.111, 53 137.712, 53 139.475 C 53 147.491, 40.902 163.579, 25.441 176.123 C 16.675 183.235, 18.425 184.839, 28.191 178.644 C 32.211 176.094, 43.600 168.895, 53.500 162.647 L 71.500 151.287 74.551 153.611 C 82.063 159.331, 103.039 165.993, 113.550 165.997 C 123.414 166.002, 124.552 162.882, 117.250 155.853 C 111.716 150.526, 106.774 147.109, 91.004 137.706 C 84.677 133.933, 80.400 131.070, 81.500 131.344 C 82.600 131.618, 88.900 132.583, 95.500 133.488 C 108.507 135.273, 117.113 135.200, 117.739 133.300 C 117.973 132.587, 112.724 129.490, 104.817 125.675 C 97.493 122.142, 90.600 118.498, 89.500 117.578 C 87.568 115.963, 87.615 115.928, 90.851 116.555 C 96.830 117.712, 102.936 115.191, 109.004 109.061 C 115.293 102.707, 118.968 96.352, 122.977 84.899 L 125.782 76.884 126.459 93.692 C 127.922 130.006, 131.340 143.444, 138.305 140.271 C 140.870 139.102, 145.804 130.448, 149.385 120.838 C 151.490 115.187, 151.647 113.741, 150.833 107.500 C 149.611 98.139, 149.294 71.711, 150.329 65.629 C 150.963 61.910, 151.435 61.035, 152.329 61.928 C 153.158 62.756, 153.595 72.069, 153.825 93.799 C 154.212 130.333, 153.880 132.551, 145.105 152.105 C 141.747 159.588, 139 166.705, 139 167.921 C 139 174.254, 143.532 176.144, 158.571 176.082 C 167.157 176.047, 178.539 175.237, 179.113 174.621 C 179.175 174.555, 179.541 142.100, 179.926 102.500 C 180.617 31.441, 180.654 30.441, 182.791 26 C 185.555 20.255, 185.666 15.427, 183.066 14.035 C 180.643 12.738, 181.415 12.594, 175.117 15.525 M 174.248 18.932 C 166.178 23.381, 156.198 30.799, 155.555 32.827 C 154.655 35.661, 149.831 39.757, 146.314 40.671 C 144.561 41.127, 140.198 43.927, 136.618 46.894 C 130.355 52.083, 130.081 52.500, 129.405 57.894 C 128.332 66.459, 129.749 112.269, 131.423 123.100 C 133.995 139.748, 136.283 141.613, 141.721 131.494 C 147.501 120.739, 149.064 114.513, 147.997 106.500 C 146.696 96.728, 146.916 67.442, 148.330 62.009 C 149.891 56.015, 152.424 55.490, 154.769 60.673 C 156.296 64.050, 156.500 68.323, 156.500 97 C 156.500 134.083, 156.689 132.906, 147.425 153.647 C 141.403 167.130, 140.864 170.281, 144.250 172.215 C 147.158 173.876, 173.677 173.723, 175.365 172.036 C 176.178 171.222, 176.670 151.017, 177.099 100.700 C 177.687 31.793, 177.738 30.417, 179.827 26 C 182.206 20.971, 182.667 15.990, 180.750 16.018 C 180.063 16.028, 177.136 17.339, 174.248 18.932 M 128.734 21.021 C 122.799 22.525, 117.586 25.569, 114.052 29.594 C 110.071 34.128, 110.130 34.174, 123.714 36.942 C 139.258 40.109, 140.795 39.917, 148.038 33.888 C 153.974 28.949, 154.158 28.654, 153.501 25.138 C 153.127 23.137, 152.671 21.347, 152.487 21.160 C 151.632 20.289, 132.074 20.175, 128.734 21.021 M 47.732 25.456 C 46.210 26.250, 41.363 30.185, 36.960 34.200 C 25.890 44.295, 25.457 45.968, 30.875 57.729 C 37.371 71.831, 36.290 78.326, 26.326 85.062 C 23.671 86.856, 21.389 88.400, 21.253 88.492 C 20.514 88.996, 24.630 98.985, 26.751 101.835 C 32.235 109.208, 39.290 110.699, 51.234 107.010 C 57.421 105.098, 57.728 104.850, 58.940 100.760 C 59.634 98.417, 61.699 93.243, 63.530 89.263 L 66.858 82.026 63.514 80.440 C 56.196 76.967, 52.746 67.135, 56.964 61.773 C 62.535 54.691, 62.193 32.102, 56.428 26.337 C 53.733 23.642, 51.620 23.428, 47.732 25.456 M 80.500 32 C 80.160 32.550, 80.246 33.563, 80.691 34.250 C 81.136 34.938, 81.725 40.377, 82 46.338 L 82.500 57.175 87.500 50.346 C 90.250 46.590, 93.784 42.050, 95.354 40.258 C 98.414 36.763, 102 35.904, 102 38.665 C 102 40.706, 96.079 51.596, 87.972 64.464 L 81.900 74.102 86.067 79.080 L 90.235 84.058 95.367 79.654 L 100.500 75.250 101.122 63.375 C 101.659 53.137, 102.600 47.613, 105.540 37.434 C 106.086 35.544, 105.324 35.181, 96.631 33.184 C 86.266 30.803, 81.458 30.450, 80.500 32 M 107.887 39.750 C 105.748 45.280, 104.034 55.690, 104.017 63.250 C 104.008 67.513, 104.236 71, 104.524 71 C 104.813 71, 109.988 66.635, 116.024 61.299 C 123.210 54.948, 127.005 50.890, 127.015 49.549 C 127.026 48.058, 127.259 47.860, 127.870 48.823 C 128.508 49.830, 129.819 49.186, 133.346 46.133 L 137.983 42.120 133.241 41.461 C 130.634 41.098, 124.471 39.946, 119.547 38.901 C 114.623 37.855, 110.224 37, 109.772 37 C 109.320 37, 108.472 38.237, 107.887 39.750 M 89.954 51.561 C 83.882 59.639, 79.001 69.335, 80.335 70.668 C 80.521 70.854, 83.383 66.618, 86.695 61.253 C 94.840 48.061, 98.294 42, 97.665 42 C 97.377 42, 93.906 46.303, 89.954 51.561 M 115 65.541 L 104.500 74.976 103.759 81.738 C 103.351 85.457, 102.573 89.513, 102.030 90.750 C 100.706 93.768, 96.946 93.667, 93.199 90.514 L 90.245 88.029 82.212 95.264 C 77.793 99.244, 74.286 102.950, 74.417 103.500 C 74.549 104.050, 76.567 105.961, 78.901 107.746 C 82.258 110.314, 83.535 110.784, 85.007 109.996 C 87.599 108.609, 87.884 108.726, 87.306 110.936 C 86.895 112.510, 87.473 112.998, 90.400 113.547 C 96.334 114.660, 100.470 113.282, 105.933 108.370 C 115.585 99.692, 122.402 83.338, 126.409 59.250 C 126.707 57.462, 126.624 56.024, 126.225 56.053 C 125.826 56.082, 120.775 60.352, 115 65.541 M 74.643 74.250 L 72.854 77.500 74.927 75.139 C 76.718 73.100, 77.625 71, 76.716 71 C 76.559 71, 75.626 72.463, 74.643 74.250 M 76.654 77.596 C 75.639 78.990, 73.690 80.640, 72.324 81.262 C 69.627 82.491, 67.090 86.867, 63.419 96.618 L 61.066 102.870 64.675 101.362 C 66.660 100.533, 69.233 100.077, 70.392 100.349 C 71.980 100.721, 74.442 99.037, 80.381 93.515 L 88.263 86.186 83.895 80.593 C 81.492 77.517, 79.295 75.014, 79.013 75.031 C 78.731 75.049, 77.669 76.203, 76.654 77.596 M 96.500 82.259 L 92.500 86.014 95.322 88.521 C 96.875 89.900, 98.545 90.781, 99.034 90.479 C 100.179 89.771, 101.272 83.955, 100.837 80.883 C 100.507 78.550, 100.420 78.578, 96.500 82.259 M 64 104.752 C 61.827 105.837, 60.379 107.353, 60.180 108.750 C 59.721 111.986, 61.062 111.545, 65.500 107 C 69.763 102.635, 69.381 102.063, 64 104.752 M 66.576 109.922 C 62.712 113.846, 62.149 114.843, 63.504 115.363 C 66.051 116.340, 68.998 116.035, 74.901 114.183 L 80.302 112.489 75.805 108.804 L 71.308 105.119 66.576 109.922 M 77.544 116.161 C 72.108 118.307, 64.325 118.780, 61.278 117.149 C 59.619 116.261, 58.493 116.954, 53.647 121.852 L 47.962 127.596 50.941 129.798 C 59.464 136.099, 56.417 148.300, 42.403 163.988 C 38.431 168.435, 38.070 169.108, 40.500 167.535 C 51.908 160.149, 73.459 147, 74.156 147 C 74.620 147, 75 147.881, 75 148.958 C 75 152.698, 90.156 159.350, 105.983 162.557 C 114.048 164.191, 119 163.934, 119 161.882 C 119 158.845, 101.076 146.241, 81.573 135.564 C 67.393 127.800, 67.308 126.362, 81.162 128.583 C 91.583 130.253, 112.121 132.787, 111.682 132.349 C 111.510 132.177, 106.449 129.611, 100.435 126.647 C 89.949 121.480, 84 117.281, 84 115.048 C 84 113.714, 83.544 113.793, 77.544 116.161" stroke="none" fill="black" fill-rule="evenodd"/>
</svg>