<svg xmlns="http://www.w3.org/2000/svg" width="200" height="200" viewBox="0 0 200 200" version="1.1">
	<path d="M 134.500 18.114 C 99.213 19.249, 69.416 23.453, 49.550 30.101 C 21.661 39.433, 9.905 54.749, 18.084 71.095 C 20.878 76.679, 26.555 81.174, 30.349 80.806 C 33.356 80.514, 33.503 80.295, 33.577 76.018 C 33.642 72.189, 34.293 70.819, 38.035 66.626 C 45.751 57.981, 52.360 55.568, 54.969 60.443 C 58.234 66.543, 54.103 82.859, 47.808 88.728 L 45.418 90.956 41.016 88.778 C 35.012 85.808, 26.410 85.322, 18.369 87.498 L 11.902 89.249 15.638 91.787 C 19.662 94.522, 29.692 98, 33.554 98 C 34.861 98, 38.022 97.290, 40.579 96.422 C 45.206 94.851, 45.240 94.856, 48.021 97.520 C 49.558 98.993, 52.043 102.933, 53.543 106.276 C 58.659 117.675, 57.837 136.878, 51.861 145.571 C 50.488 147.569, 50.017 147.864, 50.381 146.500 C 56.268 124.392, 51.074 104.955, 39.196 104.644 C 33.324 104.490, 27.852 108.564, 24.348 115.699 C 21.719 121.054, 21.487 122.460, 21.334 134 C 21.243 140.875, 20.681 148.072, 20.084 149.993 C 18.495 155.113, 18.748 164.612, 20.566 168.128 C 22.321 171.521, 27.253 174.004, 32.218 173.993 C 38.388 173.980, 51.715 170.099, 69.806 163.048 C 79.752 159.172, 88.101 156, 88.359 156 C 88.616 156, 90.468 159.323, 92.475 163.384 C 98.340 175.253, 102.956 178.197, 107.920 173.234 C 113.249 167.905, 116.769 150.642, 117.699 125.280 C 118.360 107.265, 118.353 107.241, 111.857 103.927 C 99.154 97.446, 91.270 105.763, 87.644 129.469 L 86.425 137.437 84.696 127.469 C 82.492 114.756, 82.561 108.564, 84.964 103.271 C 87.473 97.743, 91.973 95.002, 98.500 95.026 C 107.768 95.059, 117.017 101.482, 121.377 110.911 C 124.414 117.481, 124.336 132.080, 121.218 140.465 C 119.998 143.746, 119 146.518, 119 146.625 C 119 147.648, 130.367 143.418, 133.461 141.244 C 144.607 133.410, 146.762 121.669, 143.893 84.422 C 142.727 69.279, 143.559 59.688, 146.538 53.926 C 147.887 51.317, 147.752 50.856, 143.969 45.191 C 135.990 33.243, 128.287 28.907, 124.532 34.250 C 122.018 37.826, 121.131 42.479, 119.514 60.551 C 118.680 69.873, 117.721 78.513, 117.382 79.750 C 116.536 82.843, 114.590 82.568, 111.764 78.957 L 109.382 75.915 105.441 79.057 C 97.234 85.600, 89.878 87.735, 86.653 84.510 C 82.845 80.702, 83.453 71.415, 88.122 62.072 C 93.534 51.242, 103.181 45.533, 112.202 47.823 C 114.530 48.414, 116.642 48.691, 116.895 48.439 C 117.977 47.356, 111.337 41.962, 107.178 40.545 C 100.695 38.336, 91.917 38.629, 76.910 41.555 C 69.704 42.960, 63.078 43.969, 62.187 43.798 C 60.933 43.556, 61.440 42.519, 64.426 39.214 C 73.379 29.304, 73.073 29.421, 100.121 25.515 C 138.348 19.994, 149.375 19.840, 151.580 24.798 C 152.228 26.255, 153.327 102.717, 153.063 128 C 152.958 138.116, 150.977 145.685, 147.288 150.069 C 144.351 153.560, 139.514 156, 135.532 156 C 133.886 156, 133 156.555, 133 157.588 C 133 158.900, 133.738 159.053, 137.250 158.470 C 145.274 157.137, 149.369 153.803, 153.200 145.488 C 155.319 140.888, 155.497 139.140, 155.499 123 C 155.499 113.375, 155.317 99.200, 155.093 91.500 C 154.870 83.800, 154.840 65.702, 155.028 51.282 C 155.333 27.806, 155.192 24.870, 153.684 23.204 C 152.758 22.180, 152 21.040, 152 20.671 C 152 20.302, 157.901 20, 165.114 20 L 178.227 20 177.670 24.250 C 177.363 26.587, 177.019 51.225, 176.905 79 C 176.750 116.469, 177.028 131.392, 177.981 136.832 C 181.647 157.752, 169.112 181, 154.166 181 C 146.028 181, 140.901 176.623, 132.367 162.389 C 130.136 158.667, 129.667 162.135, 131.807 166.539 C 136.566 176.336, 146.276 183.956, 154 183.956 C 161.473 183.956, 171.086 176.632, 175.837 167.319 C 180.811 157.570, 182.794 140.239, 179.994 131 C 178.716 126.783, 178.686 55.770, 179.953 33.500 C 180.422 25.250, 180.737 18.447, 180.653 18.382 C 179.829 17.746, 151.121 17.580, 134.500 18.114 M 61.500 29.433 C 41.746 34.556, 28.849 41.242, 22.394 49.705 C 16.249 57.762, 17.040 67.304, 24.470 74.733 C 29.844 80.107, 31.372 80.233, 30.752 75.250 C 30.339 71.936, 30.816 70.871, 34.852 66.095 C 40.110 59.873, 47.211 55, 51.021 55 C 52.557 55, 54.660 56.075, 56.076 57.583 C 58.247 59.897, 58.493 61.020, 58.436 68.333 C 58.363 77.573, 56.356 83.247, 51.002 89.344 L 47.808 92.983 50.459 96.134 C 60.802 108.426, 62.978 129.231, 55.520 144.530 C 53.019 149.661, 46.515 158, 45.014 158 C 44.557 158, 45.019 155.240, 46.041 151.866 C 52.385 130.911, 50.635 111.577, 42.072 108.030 C 37.944 106.320, 34.256 107.449, 30.314 111.628 C 25.652 116.572, 23.820 123.702, 24.126 135.718 C 24.263 141.098, 23.877 147.075, 23.268 149 C 20.204 158.694, 21.347 167.362, 26 169.709 C 32.362 172.919, 42.921 170.581, 70.357 159.888 C 80.210 156.048, 88.940 153.039, 89.756 153.203 C 90.572 153.366, 92.110 155.717, 93.173 158.427 C 95.415 164.144, 99.756 170.851, 102.191 172.365 C 108.300 176.161, 113.721 156.424, 114.715 126.768 C 115.343 108.009, 115.360 108.067, 108.516 105.453 C 103.212 103.427, 99.814 104.659, 96.298 109.882 C 93.297 114.340, 92.243 118.211, 90.273 132 C 88.725 142.841, 87.557 145.957, 85.729 144.129 C 84.009 142.409, 79.786 116.503, 80.294 110.793 C 81.379 98.610, 89.125 91.368, 100.072 92.302 C 107.201 92.911, 112.492 95.640, 117.884 101.490 C 124.677 108.859, 126.461 113.788, 126.396 125 C 126.359 131.291, 125.784 135.956, 124.693 138.810 L 123.046 143.120 125.273 142.433 C 132.640 140.161, 137.917 134.778, 140.552 126.843 C 142.628 120.592, 142.824 112.407, 141.602 83 C 140.806 63.857, 140.882 62.115, 142.743 56.681 L 144.736 50.862 140.546 45.169 C 135.855 38.798, 130.326 33.739, 128.624 34.263 C 125.642 35.181, 123.955 42.043, 122.436 59.439 C 120.608 80.358, 119.584 84.374, 115.967 84.795 C 114.298 84.990, 112.641 84.247, 111.110 82.617 L 108.786 80.143 104.643 83.154 C 95.505 89.797, 88.688 90.795, 84.714 86.071 C 80.135 80.630, 80.404 71.056, 85.413 61.171 C 90.334 51.461, 96.405 46.408, 104.753 45.075 C 109.487 44.320, 109.492 44.314, 106.685 43.159 C 102.052 41.252, 90.369 41.817, 75.226 44.681 C 62.031 47.176, 60.828 47.257, 59.321 45.750 C 57.815 44.243, 57.822 43.907, 59.418 41.310 C 60.368 39.764, 63.925 35.920, 67.322 32.766 C 70.720 29.613, 72.825 27.048, 72 27.066 C 71.175 27.084, 66.450 28.149, 61.500 29.433 M 20.079 89.930 C 17.569 91.519, 25.738 94.307, 33.197 94.409 C 41.620 94.523, 44.100 92.775, 38.709 90.523 C 34.731 88.861, 22.389 88.468, 20.079 89.930" stroke="none" fill="black" fill-rule="evenodd"/>
</svg>