<svg xmlns="http://www.w3.org/2000/svg" width="200" height="200" viewBox="0 0 200 200" version="1.1">
	<path d="M 148.500 16.048 C 143.550 17.079, 133.425 18.851, 126 19.987 C 110.244 22.396, 98.497 25.059, 90.910 27.943 C 82.543 31.123, 72.618 30.782, 64.049 27.022 C 56.239 23.594, 46.958 21, 42.502 21 C 38.015 21, 30.863 24.978, 28.232 28.937 C 22.553 37.480, 21.869 45.959, 22.942 94.500 C 23.372 113.944, 23.296 114.917, 20.235 129.500 C 14.565 156.508, 13.805 169.002, 17.491 174.626 C 19.724 178.035, 22.453 177.566, 26.869 173.015 C 34.840 164.802, 43.727 142.773, 46.505 124.341 C 48.511 111.029, 48.387 106.372, 45.767 96.724 C 44.022 90.295, 43.531 85.772, 43.517 76 C 43.502 64.594, 43.728 63.013, 46.111 57.933 C 50.091 49.447, 58.323 42.485, 67.885 39.519 L 70.270 38.780 67.635 42.234 C 66.186 44.134, 65 46.244, 65 46.923 C 65 47.602, 63.185 49.954, 60.967 52.150 C 56.529 56.544, 52.559 62.265, 51.529 65.753 C 50.931 67.779, 51.691 68.406, 59.070 71.974 C 63.583 74.157, 67.456 76.123, 67.676 76.342 C 67.895 76.562, 66.279 82.693, 64.085 89.966 C 61.890 97.239, 59.807 105.285, 59.455 107.845 C 59.104 110.405, 56.548 117.052, 53.775 122.615 C 48.170 133.858, 46.371 142.438, 49.377 143.591 C 52.613 144.833, 56.607 142.761, 62.163 136.957 C 70.461 128.289, 73.016 119.159, 68.427 114.570 C 67.001 113.143, 67.040 113, 68.856 113 C 69.955 113, 71.823 114.231, 73.006 115.735 C 77.851 121.894, 72.901 134.792, 51.688 171.285 C 45.854 181.323, 44.759 185, 47.606 185 C 48.489 185, 55.352 178.961, 62.856 171.580 L 76.500 158.159 82.500 162.724 C 98.476 174.878, 105.929 173.557, 109.410 157.953 C 113.394 140.101, 116.119 136, 123.999 136 C 127.745 136, 129.508 136.622, 132.500 139 C 142.085 146.617, 148.253 139.937, 150.966 119 C 151.501 114.875, 152.002 98.450, 152.079 82.500 L 152.220 53.500 154.182 61 C 156.780 70.931, 157.744 95.632, 156.025 108.214 C 154.825 116.996, 152.017 128.888, 146.397 149 C 144.643 155.276, 143.701 161.215, 143.621 166.500 C 143.514 173.577, 143.822 175.048, 146.292 179.250 C 148.084 182.298, 149.772 184, 151.005 184 C 155.095 184, 164.122 179.696, 168.739 175.545 C 174.698 170.187, 178.405 163.541, 181.133 153.325 C 183.852 143.143, 183.991 121.722, 181.526 92.500 C 179.210 65.038, 179.751 54.428, 184.050 43 C 189.608 28.228, 188.372 20.057, 179.929 15.752 C 175.325 13.404, 160.530 13.544, 148.500 16.048 M 160.571 16.806 C 158.468 17.304, 157.427 18.308, 156.877 20.366 C 154.840 27.989, 146.190 35.910, 125.212 49.364 C 118.496 53.672, 113.032 57.490, 113.072 57.848 C 113.112 58.207, 114.714 59.805, 116.632 61.401 L 120.119 64.301 124.065 62.083 C 127.458 60.177, 128.094 60.081, 128.599 61.397 C 128.922 62.240, 128.248 64.248, 127.100 65.860 L 125.013 68.791 128.853 74.646 C 139.176 90.382, 139.463 104.649, 129.679 115.636 C 127.296 118.311, 123.493 123.252, 121.227 126.616 C 111.389 141.221, 103.271 142.579, 98.639 130.396 C 94.950 120.692, 95.490 94.081, 99.457 90.115 C 100.680 88.891, 101.150 88.880, 102.547 90.039 C 103.955 91.208, 104.327 91.167, 105.115 89.758 C 105.622 88.852, 109.453 83.786, 113.629 78.499 C 117.804 73.212, 120.993 68.660, 120.715 68.382 C 119.863 67.530, 70 108.530, 70 110.083 C 70 110.588, 70.597 111, 71.326 111 C 72.055 111, 73.630 112.042, 74.826 113.314 C 76.485 115.080, 77 116.866, 77 120.846 C 77 129.665, 72.457 140.804, 60.361 161.643 C 48.529 182.028, 48.410 181.792, 63.165 167.207 C 76.520 154.006, 76.625 153.929, 78.460 155.956 C 82.333 160.235, 93.720 167.153, 97.791 167.699 C 101.585 168.208, 102.022 168.011, 103.874 164.967 C 104.971 163.162, 106.617 158.269, 107.530 154.093 C 110.812 139.094, 114.566 134.036, 123.019 133.224 C 127.529 132.791, 128.597 133.090, 132.465 135.868 C 137.659 139.598, 141.367 139.896, 143.426 136.750 C 147.961 129.819, 150.543 102.095, 149.424 72.346 C 148.662 52.086, 149.172 46.700, 151.807 47.190 C 154.909 47.767, 159.049 67.082, 159.697 84 C 160.400 102.381, 158.747 114.138, 151.958 139.031 C 145.771 161.716, 144.885 169.691, 147.814 176.312 C 150.276 181.877, 151.707 182.143, 159.455 178.478 C 169.083 173.923, 176.137 163.966, 178.920 151 C 181.263 140.082, 181.279 126.941, 178.985 96.066 C 176.446 61.896, 176.827 53.500, 181.425 42.308 C 188.259 25.675, 184.715 17.341, 170.457 16.515 C 166.631 16.293, 162.182 16.424, 160.571 16.806 M 143.500 20.685 C 141.300 20.876, 136.302 21.717, 132.393 22.553 C 125.824 23.958, 125.050 24.403, 122.143 28.450 C 120.415 30.857, 119 33.091, 119 33.413 C 119 33.736, 120.688 34.005, 122.750 34.011 C 128.818 34.029, 134.109 35.179, 133.680 36.387 C 133.463 36.999, 132.658 37.456, 131.892 37.403 C 131.127 37.350, 127.322 36.994, 123.437 36.611 L 116.374 35.916 110.107 44.099 C 103.624 52.564, 103.647 52.432, 108.224 55.055 C 111.429 56.891, 146.366 32.771, 151.549 25.143 C 152.897 23.159, 154 21.190, 154 20.768 C 154 20.013, 151.438 19.993, 143.500 20.685 M 34.913 26.280 C 33.053 27.533, 30.542 30.321, 29.334 32.475 C 25.368 39.545, 24.789 47.017, 25.492 82 L 26.145 114.500 22.550 131.500 C 18.360 151.314, 16.896 169.318, 19.228 172.377 C 20.408 173.925, 21.032 174.053, 22.791 173.112 C 29.765 169.379, 40.358 145.071, 43.529 125.523 C 45.501 113.359, 45.377 106.687, 42.992 96.813 C 34.900 63.303, 44.478 42.683, 71.402 35.652 C 78.534 33.789, 79.482 33, 74.584 33 C 72.522 33, 67.610 31.582, 63.668 29.849 C 49.320 23.540, 40.587 22.456, 34.913 26.280 M 115.500 26.594 C 112.750 27.372, 105.325 29.103, 99 30.439 L 87.500 32.869 101.500 32.913 L 115.500 32.957 118.315 28.979 C 119.863 26.790, 120.988 25.040, 120.815 25.089 C 120.642 25.139, 118.250 25.816, 115.500 26.594 M 84.858 35.977 C 76.980 36.969, 75.281 37.777, 71.137 42.497 C 67.130 47.060, 67.155 48.103, 71.243 46.930 C 73.027 46.419, 76.416 46, 78.775 46 C 81.710 46, 83.249 45.515, 83.653 44.463 C 83.977 43.618, 85.439 42.307, 86.902 41.551 C 90.323 39.782, 92.701 41.041, 94.622 45.638 C 96.034 49.017, 100.615 51.903, 102.001 50.287 C 105.918 45.722, 112.083 36.750, 111.621 36.287 C 110.636 35.302, 91.940 35.086, 84.858 35.977 M 87.718 44.138 C 85.431 45.418, 86.448 47, 89.559 47 C 92.225 47, 92.715 45.838, 90.739 44.199 C 89.899 43.501, 88.893 43.481, 87.718 44.138 M 69.111 50.549 C 65.752 52.007, 65.727 52.067, 66.284 57.260 C 66.593 60.142, 67.603 64.287, 68.529 66.472 L 70.212 70.443 75.106 60.077 C 77.798 54.376, 80 49.551, 80 49.356 C 80 48.391, 72.085 49.258, 69.111 50.549 M 78.619 58.955 C 72.030 72.964, 60.730 107.610, 63.765 104.500 C 64.302 103.950, 68.477 97.875, 73.043 91 C 77.610 84.125, 84.193 74.612, 87.673 69.859 C 93.218 62.286, 94 60.664, 94 56.731 C 94 51.535, 92.906 50.328, 87.397 49.447 L 83.392 48.807 78.619 58.955 M 96.728 54.066 C 97.080 55.414, 97.608 55.792, 98.247 55.153 C 99.282 54.118, 98.468 52, 97.035 52 C 96.569 52, 96.430 52.930, 96.728 54.066 M 59.793 57.027 C 58.330 58.944, 56.428 61.860, 55.564 63.507 L 53.994 66.500 60.684 69.729 C 64.364 71.506, 67.504 72.829, 67.663 72.670 C 67.822 72.511, 67.021 69.933, 65.883 66.940 C 64.745 63.948, 63.508 59.709, 63.133 57.521 L 62.452 53.541 59.793 57.027 M 99.155 58.643 C 97.510 61.182, 97.063 62.804, 97.655 64.081 C 98.412 65.711, 98.958 65.472, 102.887 61.787 C 106.985 57.943, 107.153 57.585, 105.445 56.336 C 102.697 54.326, 101.721 54.684, 99.155 58.643 M 104.662 63.635 C 102.096 65.635, 98.984 68.897, 97.748 70.885 L 95.500 74.500 95 69.589 L 94.500 64.679 83.460 80.589 C 77.388 89.340, 71.277 98.300, 69.879 100.500 C 68.482 102.700, 66.475 105.833, 65.419 107.461 C 62.709 111.644, 63.886 110.791, 84 93.997 C 93.625 85.961, 105.100 76.546, 109.500 73.075 C 113.900 69.604, 117.655 66.624, 117.845 66.453 C 118.408 65.948, 111.598 60.061, 110.414 60.029 C 109.817 60.013, 107.228 61.636, 104.662 63.635 M 115.746 80.198 C 105.994 92.765, 105.709 93.315, 106.507 98.043 C 107.194 102.106, 107.169 102.149, 104.351 101.826 C 101.604 101.512, 101.508 101.318, 101.729 96.500 C 101.926 92.203, 101.788 91.781, 100.747 93.500 C 100.040 94.666, 99.382 100.541, 99.169 107.591 C 98.646 124.878, 101.759 136, 107.120 136 C 109.746 136, 115.295 130.772, 119.638 124.206 C 121.714 121.068, 124.414 117.704, 125.638 116.732 C 126.861 115.759, 129.243 112.200, 130.931 108.822 C 134.423 101.834, 134.861 96.254, 132.531 88.432 C 130.906 82.972, 125.150 72.845, 123.345 72.267 C 122.709 72.063, 119.290 75.632, 115.746 80.198 M 57.289 121.750 C 52.590 130.639, 49.673 138.707, 50.438 140.699 C 51.235 142.775, 55.707 140.126, 60.878 134.516 C 65.480 129.524, 68 124.576, 68 120.532 C 68 117.844, 64.877 114, 62.693 114 C 61.974 114, 59.542 117.487, 57.289 121.750" stroke="none" fill="black" fill-rule="evenodd"/>
</svg>