<svg xmlns="http://www.w3.org/2000/svg" width="200" height="200" viewBox="0 0 200 200" version="1.1">
	<path d="M 80.795 17.836 C 71.241 20.469, 67.852 22.173, 69.789 23.369 C 70.318 23.697, 76.213 23.257, 82.888 22.394 L 95.024 20.823 101.198 26.161 L 107.372 31.500 103.121 31.811 C 100.782 31.982, 94.630 31.399, 89.448 30.517 C 78.142 28.591, 48.589 28.316, 38.662 30.045 C 27.189 32.043, 24.979 36.178, 33.195 40.273 C 36.146 41.744, 36.883 42.766, 37.522 46.273 C 38.542 51.870, 38.647 51.439, 32.382 67.418 C 26.599 82.168, 26.595 82.366, 32 83.578 C 41.466 85.701, 46 88.996, 46 93.756 C 46 100.387, 35.998 112.497, 20.773 124.298 C 16.498 127.612, 13 130.658, 13 131.068 C 13 132.279, 22.054 135.020, 28.208 135.671 C 36.201 136.518, 43.196 133.072, 48.950 125.450 C 51.235 122.423, 53.478 120.178, 53.934 120.459 C 55.467 121.407, 61.288 137.114, 60.388 137.872 C 59.899 138.283, 54.306 140.322, 47.958 142.403 C 41.609 144.485, 33.284 147.833, 29.458 149.844 C 23.781 152.827, 22.443 153.994, 22.190 156.183 C 21.779 159.745, 23.902 160.785, 34.223 162.078 C 38.775 162.649, 44.525 163.378, 47 163.699 L 51.500 164.283 48 165.185 C 41.339 166.900, 41.363 166.785, 46.561 172.062 C 59.120 184.812, 70.337 183.983, 82.581 169.400 C 89.716 160.900, 94.598 156, 95.930 156 C 98.039 156, 101.494 160.688, 103.403 166.140 C 104.435 169.088, 105.597 171.858, 105.985 172.296 C 106.843 173.262, 109.658 160.483, 111.020 149.447 C 112.597 136.656, 110.046 127.803, 104.372 126.379 C 102.941 126.019, 98.166 126.548, 93.762 127.554 C 85.891 129.352, 85.729 129.350, 84.302 127.442 C 82.903 125.571, 83.004 121.231, 84.634 113.080 C 85.078 110.862, 84.629 110.160, 81.831 108.694 L 78.500 106.949 81.500 107.566 C 83.150 107.905, 89.827 109.289, 96.338 110.641 C 115.285 114.575, 123.066 112.957, 116.879 106.372 C 113.136 102.386, 99.945 94.393, 90.127 90.161 C 78.202 85.020, 75.148 83.057, 77.246 81.882 C 78.101 81.404, 85.033 79.871, 92.650 78.476 C 105.459 76.130, 117 72.139, 117 70.056 C 117 69.618, 113.513 68.036, 109.250 66.540 C 98.494 62.765, 89.954 58.884, 90.491 58.015 C 90.739 57.613, 94.218 56.492, 98.221 55.524 C 112.343 52.109, 117.202 47.954, 115.319 40.901 C 114.455 37.665, 114.528 37, 115.746 37 C 118.141 37, 129.229 42.667, 132.937 45.785 L 136.375 48.676 129.101 58.995 C 122.930 67.749, 121.598 70.390, 120.317 76.407 C 118.445 85.198, 119.011 103.175, 121.501 114 C 124.796 128.326, 131.737 140, 136.961 140 C 139.710 140, 142.713 135.899, 144.498 129.706 C 146.103 124.137, 148.201 103.297, 147.313 101.750 C 145.958 99.391, 145.136 102.118, 144.492 111.110 C 143.358 126.952, 140.315 137, 136.651 137 C 132.576 137, 126.709 125.212, 123.824 111.224 C 121.454 99.741, 121.643 79.390, 124.183 72.379 C 126.059 67.206, 137.827 50.775, 139.096 51.559 C 139.614 51.879, 141.225 54.472, 142.675 57.321 C 146.027 63.903, 146.851 74.230, 144.602 81.479 C 142.891 86.997, 144.121 90.443, 146.019 85.450 C 150.760 72.980, 149.393 61.529, 141.890 50.875 L 140.042 48.250 148.111 39.625 C 152.549 34.881, 156.874 31, 157.722 31 C 160.200 31, 158.671 38.403, 154.962 44.361 C 152.067 49.014, 151.716 50.446, 151.254 59.500 C 150.970 65.083, 151.520 79.438, 152.500 92 C 154.413 116.518, 154.113 131.346, 151.534 139.748 C 148.409 149.933, 139.555 155.886, 129.260 154.726 C 126.917 154.462, 125 154.469, 125 154.742 C 125 156.507, 133.124 168.062, 137.558 172.603 C 143.535 178.725, 148.007 181, 154.067 181 C 165.213 181, 173.750 170.567, 179.099 150.410 C 181.648 140.800, 182.166 120.752, 180.103 111.532 C 179.129 107.179, 178.961 102.060, 179.483 92.623 C 179.877 85.506, 180.189 71.992, 180.176 62.592 C 180.149 41.291, 178.427 32.227, 173.467 27.267 C 170.036 23.836, 165.751 22.992, 161.988 25.006 C 160.533 25.785, 159.272 25.445, 156.407 23.502 C 148.595 18.200, 144.469 17.533, 119 17.451 C 102.881 17.399, 94.814 17.002, 93.316 16.188 C 92.114 15.535, 90.989 15.036, 90.816 15.080 C 90.642 15.124, 86.133 16.364, 80.795 17.836 M 107.750 19.743 C 103.487 19.931, 100.003 20.403, 100.007 20.792 C 100.010 21.181, 102.598 24.017, 105.757 27.094 C 110.313 31.532, 112.913 33.157, 118.336 34.954 C 122.096 36.201, 128.094 39.180, 131.666 41.575 L 138.161 45.930 147.513 36.409 L 156.865 26.888 153.682 24.932 C 149.403 22.301, 144.396 21.024, 134.112 19.942 C 125.700 19.057, 123.708 19.042, 107.750 19.743 M 162.401 27.765 C 161.797 28.169, 161.309 30.594, 161.318 33.154 C 161.329 36.519, 160.318 39.863, 157.667 45.228 C 154.076 52.496, 154 52.891, 154 64.356 C 154 70.795, 154.719 85.162, 155.598 96.282 C 159.056 140.045, 154.049 154.051, 133.723 157.466 L 129.946 158.101 131.723 161.232 C 132.700 162.954, 136.200 167.126, 139.500 170.504 C 147.048 178.230, 152.227 180.093, 158.820 177.455 C 171.177 172.511, 180.009 148.715, 178.661 124 C 178.345 118.225, 177.620 111.934, 177.047 110.019 C 176.321 107.590, 176.352 99.221, 177.150 82.313 C 178.633 50.856, 177.001 34.598, 171.797 29.013 C 169.918 26.996, 164.606 26.291, 162.401 27.765 M 43.997 31.991 C 35.357 32.994, 30.597 34.539, 31.525 36.040 C 31.880 36.614, 33.872 37.765, 35.953 38.598 C 39.647 40.076, 39.750 40.258, 40.383 46.435 C 40.997 52.426, 40.747 53.490, 35.643 66.629 L 30.255 80.500 34.878 81.564 C 47.105 84.379, 51.272 91.547, 46.469 101.500 C 44.051 106.509, 32.126 119.055, 24.132 125 C 20.803 127.475, 18.062 129.784, 18.040 130.131 C 18.018 130.478, 19.999 131.266, 22.443 131.881 C 33.289 134.612, 40.609 132.151, 46.877 123.667 C 51.588 117.290, 52.238 116.771, 54.452 117.620 C 56.423 118.376, 58.886 123.079, 62.311 132.625 L 64.867 139.750 53.183 143.471 C 40.924 147.375, 25.770 153.945, 24.579 155.872 C 23.449 157.701, 27.986 158.832, 42.518 160.342 C 49.980 161.117, 56.346 162.013, 56.666 162.332 C 58.141 163.808, 55.655 166.058, 51.351 167.142 L 46.620 168.333 51.194 172.473 C 56.922 177.660, 62.082 179.364, 67.540 177.873 C 71.459 176.802, 76.201 172.521, 88.207 159.216 C 91.919 155.102, 93.556 154, 95.957 154 C 99.403 154, 102.531 156.656, 104.444 161.205 C 105.698 164.188, 105.733 164.200, 106.293 161.872 C 107.816 155.546, 109.193 142.408, 108.748 138.456 C 107.683 129.004, 104.669 127.554, 92.463 130.620 C 86.613 132.089, 85.794 132.095, 83.635 130.681 C 80.669 128.737, 79.929 125.083, 81.075 118.039 C 81.565 115.029, 81.636 112.246, 81.233 111.854 C 80.830 111.463, 78.025 110.180, 75 109.003 C 68.574 106.503, 65 104.349, 65 102.977 C 65 101.309, 69.476 101.872, 85.769 105.587 C 94.421 107.559, 104.875 109.425, 109 109.732 L 116.500 110.290 114.588 108.138 C 111.545 104.711, 97.463 96.078, 89.687 92.871 C 78.593 88.296, 74 85.294, 74 82.618 C 74 79.495, 76.684 78.443, 90.775 76.038 C 100.911 74.309, 112 71.434, 112 70.536 C 112 70.384, 108.513 69.024, 104.250 67.514 C 91.653 63.051, 86.820 60.276, 87.187 57.716 C 87.453 55.857, 88.970 55.136, 97.341 52.893 C 102.753 51.442, 108.378 49.365, 109.841 48.278 C 113.056 45.889, 113.669 42.194, 111.534 38.066 C 110.218 35.520, 109.348 35, 106.407 35 C 103.384 35, 102.953 35.278, 103.468 36.898 C 104.449 39.991, 97.955 44.431, 87.268 47.975 C 82.053 49.704, 77.537 50.870, 77.233 50.566 C 76.227 49.560, 79.011 42.141, 81.506 39.175 C 82.856 37.571, 85.431 35.648, 87.230 34.900 L 90.500 33.542 86.500 32.825 C 79.748 31.615, 51.935 31.069, 43.997 31.991 M 90.684 36.449 C 88.585 37.197, 85.951 38.639, 84.831 39.653 C 82.398 41.854, 79.588 47, 80.818 47 C 82.435 47, 92.570 43.260, 96.798 41.103 C 101.444 38.733, 101.959 37.583, 99.066 36.035 C 96.601 34.716, 95.373 34.776, 90.684 36.449" stroke="none" fill="black" fill-rule="evenodd"/>
</svg>