<svg xmlns="http://www.w3.org/2000/svg" width="200" height="200" viewBox="0 0 200 200" version="1.1">
	<path d="M 66.397 12.511 C 66.729 13.330, 67.301 14.747, 67.669 15.661 C 68.220 17.030, 67.914 17.198, 65.919 16.614 C 64.588 16.225, 60.852 15.635, 57.616 15.302 C 52.833 14.811, 51.820 14.960, 52.199 16.099 C 52.464 16.896, 54.894 17.856, 57.833 18.326 C 62.306 19.041, 63 19.459, 63 21.435 C 63 26.808, 44.096 42.961, 33.790 46.395 C 30.662 47.437, 27.862 48.917, 27.568 49.683 C 26.559 52.314, 30.238 52.300, 35.638 49.651 C 50.169 42.525, 59.459 50.002, 60.667 69.798 C 61.252 79.378, 59.133 92.296, 56.553 94.876 C 55.259 96.170, 54.968 96.046, 54.130 93.841 C 53.606 92.463, 52.684 86.423, 52.082 80.418 C 50.744 67.093, 49.621 62.823, 46.512 59.252 C 44.220 56.618, 43.996 56.566, 41.308 58.028 C 34.023 61.991, 23.665 93.360, 21.422 118.250 C 20.616 127.195, 21.812 128.426, 24.823 121.750 C 30.194 109.842, 43.240 106.815, 51.017 115.672 C 54.091 119.173, 54.186 119.552, 53.834 126.898 C 53.246 139.157, 49.459 145.968, 35.693 159.516 C 20.654 174.317, 17.328 181, 25.001 181 C 33.915 181, 52.587 167.555, 64.283 152.714 L 70.420 144.928 72.192 148.384 C 75.573 154.972, 84.096 159, 94.658 159 C 105.629 159, 111.210 155, 109.553 148.324 C 108.524 144.178, 99.703 136.162, 90 130.555 C 85.325 127.854, 81.360 125.547, 81.189 125.428 C 81.018 125.309, 81.436 122.509, 82.118 119.206 C 82.903 115.408, 83.788 113.365, 84.528 113.649 C 85.171 113.896, 88.128 112.141, 91.098 109.749 C 94.069 107.357, 97.920 104.410, 99.655 103.200 L 102.810 100.999 105.544 105.750 C 109.153 112.020, 110.949 114, 113.030 114 C 115.590 114, 116.043 109.750, 114.910 96.346 C 114.360 89.831, 113.846 78.635, 113.769 71.466 C 113.651 60.421, 113.925 57.826, 115.565 54.466 C 116.860 51.812, 118.162 50.500, 119.500 50.500 C 122.296 50.500, 122.490 55.168, 120.945 85.230 C 119.978 104.022, 119.944 112.162, 120.802 119.128 C 122.750 134.951, 128.117 142, 138.216 142 L 143.136 142 141.186 144.750 C 138.502 148.536, 135.996 156.319, 136.022 160.785 C 136.034 162.828, 136.877 166.300, 137.896 168.500 C 141.673 176.659, 149.075 180.685, 158.508 179.711 C 164.853 179.056, 173.748 175.388, 174.439 173.141 C 174.717 172.238, 175.744 165.875, 176.722 159 C 178.259 148.194, 178.463 140.208, 178.229 100.063 C 178.080 74.522, 177.718 53.385, 177.425 53.092 C 175.339 51.005, 175.006 58.744, 175.598 95.500 C 176.233 134.869, 175.758 147.052, 172.856 165.728 L 171.733 172.956 166.329 174.978 C 155.001 179.216, 145.316 176.894, 141.250 168.964 C 136.699 160.089, 139.632 149.056, 149.105 139.418 L 154.100 134.336 154.026 79.817 L 153.952 25.299 163.226 24.624 C 168.327 24.253, 174.121 23.573, 176.101 23.114 L 179.702 22.278 177.828 27.209 C 176.798 29.922, 175.676 34.809, 175.335 38.070 C 174.803 43.155, 174.949 44, 176.358 44 C 177.594 44, 178 43.056, 178 40.182 C 178 35.320, 180.664 26.287, 183.112 22.846 C 185.512 19.471, 185.573 17.556, 183.250 18.489 C 179.171 20.128, 165.011 22.080, 159 21.832 C 155.425 21.684, 151.883 21.947, 151.129 22.415 C 149.441 23.464, 125.894 22.516, 100.500 20.376 C 86.271 19.176, 80.706 18.322, 78.339 16.973 C 76.600 15.982, 73.066 14.238, 70.486 13.097 C 66.779 11.457, 65.921 11.334, 66.397 12.511 M 66 21.504 C 66 24.704, 59.370 32.791, 51.999 38.582 L 45.844 43.418 49.642 44.733 C 54.984 46.582, 58.644 50.464, 61.148 56.934 C 66.291 70.228, 62.338 99, 55.368 99 C 52.568 99, 50.912 94.057, 49.465 81.375 C 47.918 67.813, 45.733 60, 43.490 60 C 38.519 60, 29.321 84.545, 25.603 107.729 L 24.284 115.958 27.753 112.912 C 32.163 109.040, 34.950 108, 40.917 108 C 49.590 108, 56.026 114.263, 56.787 123.443 C 57.860 136.389, 52.666 146.707, 37.626 161.500 C 27.307 171.649, 22.895 177.229, 24.176 178.509 C 25.208 179.541, 33.395 175.892, 40.354 171.299 C 49.672 165.148, 62.585 152.037, 67 144.243 C 68.925 140.845, 70.948 138.200, 71.496 138.364 C 72.044 138.529, 72.766 140.344, 73.099 142.397 C 74.474 150.851, 82.706 156.238, 94.501 156.402 C 102.971 156.519, 107 154.545, 107 150.276 C 107 146.210, 97.349 137.516, 85.784 131.163 L 76.068 125.826 77.784 123.211 C 79.252 120.973, 79.589 116.759, 80.118 94.048 C 80.581 74.172, 81.143 66.058, 82.353 61.760 L 83.969 56.021 80.591 45.760 C 75.655 30.766, 70.696 20.415, 68.125 19.743 C 66.410 19.294, 66 19.634, 66 21.504 M 74 20.709 C 74 20.983, 76.250 26.826, 79 33.694 C 81.750 40.562, 84 46.561, 84 47.026 C 84 47.490, 84.429 48.999, 84.954 50.379 L 85.908 52.888 89.045 49.958 C 92.907 46.351, 99.037 44.596, 104.949 45.407 C 107.469 45.752, 109.001 45.644, 108.460 45.159 C 89.298 27.992, 81.497 21.902, 77.526 21.006 C 75.586 20.568, 74 20.435, 74 20.709 M 95.243 30.179 C 111.130 44.216, 115.792 47.500, 119.826 47.500 C 123.280 47.500, 123.453 47.673, 124.339 52 C 124.931 54.893, 124.801 65.283, 123.974 81.094 C 122.099 116.944, 123.433 130.300, 129.454 135.957 C 132.345 138.672, 138.537 140.264, 139.884 138.638 C 142.020 136.059, 143 120.126, 143 87.963 C 143 58.564, 143.255 52.774, 144.925 44.285 C 145.984 38.903, 147.559 32.531, 148.425 30.124 C 149.291 27.718, 150 25.580, 150 25.374 C 150 25.168, 143.363 24.987, 135.250 24.971 C 127.138 24.955, 113.300 24.289, 104.500 23.492 C 95.700 22.695, 87.934 22.033, 87.243 22.022 C 86.552 22.010, 90.152 25.680, 95.243 30.179 M 149.518 36.250 C 146.053 47.917, 145.589 54.206, 145.835 86.183 C 146.052 114.377, 145.516 125.725, 143.388 138 L 142.781 141.500 147.032 137.344 L 151.283 133.187 151.392 82.094 C 151.451 53.993, 151.405 31.001, 151.289 31.001 C 151.173 31, 150.376 33.362, 149.518 36.250 M 94.218 49.663 C 92.413 50.553, 90.030 52.554, 88.922 54.110 C 86.952 56.876, 86.945 57.115, 88.602 64.720 C 90.781 74.719, 90.873 96.284, 88.769 103.759 L 87.288 109.017 90.394 106.668 C 92.102 105.376, 95.846 102.642, 98.713 100.592 L 103.926 96.866 106.713 102.028 C 108.246 104.868, 110.318 108.161, 111.318 109.346 C 113.096 111.453, 113.123 111.325, 112.546 103.500 C 112.222 99.100, 111.683 87.625, 111.348 78 C 110.784 61.750, 111.125 57.545, 113.472 51.819 C 114.919 48.290, 100.321 46.655, 94.218 49.663 M 84.535 64.500 C 84.038 65.600, 83.495 76.850, 83.327 89.500 C 83.007 113.670, 83.487 115.168, 86.611 99.750 C 88.281 91.509, 88.090 76.788, 86.180 66.500 C 85.544 63.074, 85.308 62.787, 84.535 64.500" stroke="none" fill="black" fill-rule="evenodd"/>
</svg>