<svg xmlns="http://www.w3.org/2000/svg" width="200" height="200" viewBox="0 0 200 200" version="1.1">
	<path d="M 50.321 17.983 C 48.987 25.002, 40.659 42.438, 29.560 61.449 C 25.402 68.572, 22.007 74.647, 22.015 74.949 C 22.024 75.252, 22.432 76.134, 22.923 76.910 C 24.526 79.442, 29.358 76.469, 49.325 60.668 L 52.903 57.836 56.574 61.507 C 61.924 66.858, 65.939 68.992, 70.661 68.996 C 74.083 68.999, 75.282 68.453, 77.412 65.923 C 78.836 64.230, 80.286 61.063, 80.635 58.884 C 80.983 56.705, 81.568 55.053, 81.935 55.211 C 91.460 59.331, 96 61.601, 96 62.242 C 96 62.680, 94.312 65.254, 92.250 67.962 L 88.500 72.886 80.822 72.943 C 63.894 73.069, 50.308 76.353, 46.702 81.193 C 44.839 83.692, 44.809 84.059, 46.277 86.299 C 48.216 89.259, 54.709 92.402, 63.386 94.582 L 69.921 96.223 67.356 101.283 C 64.311 107.294, 63.870 112.701, 66.283 114.465 C 67.210 115.143, 67.777 115.889, 67.543 116.124 C 67.308 116.358, 61.152 116.006, 53.862 115.342 C 35.026 113.625, 28.448 115.291, 25.416 122.546 C 23.377 127.427, 23.659 132.600, 26.500 142.403 C 27.875 147.148, 29 153.513, 29 156.547 C 29 164.326, 31.070 168.713, 35.640 170.623 C 39.908 172.406, 43.301 172.078, 58.500 168.414 C 81.370 162.900, 92.216 166.860, 96.136 182.154 C 96.819 184.819, 97.648 187, 97.978 187 C 98.308 187, 100.234 182.162, 102.259 176.250 C 111.856 148.213, 111.998 137.792, 103.072 116.430 C 100.832 111.070, 99.011 106.193, 99.025 105.592 C 99.039 104.992, 103.021 100.238, 107.874 95.029 L 116.697 85.559 116.215 108.128 L 115.732 130.697 119.616 135.002 C 129.903 146.402, 137.698 142.908, 141.613 125.144 C 143.500 116.581, 144.431 85.678, 143.228 71.500 C 142.195 59.311, 142.417 58.641, 147.813 57.640 C 150.642 57.115, 151.050 57.279, 150.601 58.762 C 148.852 64.534, 148.046 70.495, 148.024 77.805 C 148.004 84.768, 148.468 87.210, 150.898 92.920 C 154.928 102.390, 156.304 109.396, 155.837 118.068 C 155.332 127.439, 152.086 134.761, 144.230 144.248 C 132.061 158.946, 132 159.041, 132 163.307 C 132 166.752, 132.624 167.940, 136.261 171.421 C 138.604 173.665, 143.628 177.027, 147.424 178.893 C 163.280 186.687, 172.696 181.670, 177.659 162.781 C 179.081 157.372, 179.341 149.001, 179.531 102.500 C 179.661 70.553, 179.366 47.479, 178.809 46 C 176.079 38.757, 170.721 37.284, 162.419 41.496 C 159.714 42.869, 157.455 43.994, 157.400 43.996 C 157.345 43.998, 157.486 40.737, 157.713 36.750 C 158.202 28.160, 156.149 23.796, 150.510 21.440 C 144.984 19.131, 132.344 19.630, 119.120 22.680 C 112.729 24.154, 106.600 25.351, 105.500 25.341 C 103.967 25.327, 65.607 15.820, 53.489 12.451 C 51.712 11.957, 51.343 12.601, 50.321 17.983 M 52.032 22.630 C 49.436 30.664, 42.899 43.876, 34.525 58.011 C 31.101 63.792, 27.521 70.026, 26.570 71.864 L 24.842 75.206 28.029 73.353 C 29.782 72.334, 36.190 67.526, 42.270 62.669 L 53.325 53.839 57.165 58.331 C 61.494 63.396, 68.885 67.489, 71.947 66.517 C 73.047 66.168, 74.860 64.723, 75.974 63.306 C 78.731 59.801, 78.724 50.193, 75.960 44.101 C 74.863 41.682, 74.236 39.432, 74.568 39.101 C 75.643 38.031, 79.010 43.153, 80.114 47.539 C 81.142 51.622, 81.533 51.965, 89.056 55.404 C 93.382 57.382, 97.531 59, 98.274 59 C 99.018 59, 100.828 57.745, 102.298 56.211 L 104.969 53.422 100.235 47.747 C 97.631 44.625, 92.424 38.699, 88.665 34.578 C 81.682 26.921, 80.222 22.354, 86.529 27.891 L 89.898 30.849 95.002 29.216 C 99.520 27.772, 99.849 27.488, 97.860 26.753 C 95.077 25.723, 56.432 16, 55.123 16 C 54.601 16, 53.210 18.983, 52.032 22.630 M 134 22.648 C 127.591 23.610, 119.133 25.226, 115.500 26.181 L 111.500 27.233 127.578 32.531 C 136.421 35.445, 145.960 38.941, 148.777 40.300 C 151.593 41.658, 154.145 42.522, 154.448 42.218 C 154.752 41.915, 155 38.842, 155 35.389 C 155 30.318, 154.567 28.610, 152.750 26.503 C 149.603 22.855, 142.434 21.381, 134 22.648 M 97.676 31.268 L 90.852 33.500 94.018 36.500 C 95.759 38.150, 99.416 42.293, 102.143 45.706 C 106.734 51.452, 107.293 51.839, 109.683 50.930 C 116.179 48.461, 119.208 53.349, 119.811 67.279 L 120.235 77.059 129.367 68.279 C 134.390 63.451, 138.644 58.712, 138.820 57.750 C 138.995 56.788, 139.845 56, 140.707 56 C 142.622 56, 152.887 47.939, 152.953 46.384 C 153.022 44.759, 141.551 39.895, 125.358 34.683 C 106.797 28.709, 105.856 28.593, 97.676 31.268 M 162.678 44.105 C 159.617 45.720, 159.085 46.397, 160.005 47.506 C 162.011 49.923, 160.739 53.390, 157.255 55 C 153.548 56.713, 152.634 59.081, 150.890 71.505 C 149.639 80.413, 150.348 84.328, 155.598 97.500 C 158.012 103.557, 158.396 105.922, 158.444 115.052 C 158.498 125.252, 158.377 125.852, 154.812 133.052 C 152.696 137.325, 147.724 144.480, 143.149 149.837 C 134.429 160.045, 133.085 162.955, 135.434 166.539 C 138.827 171.717, 150.829 178.613, 158.158 179.595 C 166.928 180.769, 172.880 173.347, 175.582 157.865 C 176.685 151.550, 177.056 139.170, 177.135 106.034 C 177.271 48.775, 177.293 49.638, 175.583 45.544 C 174.249 42.351, 173.725 42.004, 170.301 42.044 C 168.210 42.069, 164.780 42.996, 162.678 44.105 M 155.493 50.023 C 154.602 52.829, 155.664 53.764, 157.574 51.855 C 158.913 50.516, 158.920 50.178, 157.634 49.111 C 156.436 48.117, 156.045 48.284, 155.493 50.023 M 149.427 53.479 C 148.367 54.280, 147.950 54.944, 148.500 54.953 C 149.986 54.977, 152.526 53.192, 151.898 52.565 C 151.599 52.265, 150.487 52.677, 149.427 53.479 M 110.262 53.817 C 109.295 54.431, 109.282 55.286, 110.201 57.721 C 111.982 62.440, 109.946 64.391, 103.977 63.684 C 99.658 63.172, 99.224 63.346, 96.596 66.639 C 95.061 68.563, 93.961 70.280, 94.152 70.453 C 94.344 70.626, 96.841 71.766, 99.702 72.987 C 109.081 76.986, 110.884 84.382, 104.704 93.500 C 103.586 95.150, 105.874 93.125, 109.788 89 L 116.905 81.500 116.953 70.718 C 117.015 56.445, 114.827 50.917, 110.262 53.817 M 104.010 58.489 L 101.651 61 104.826 61 C 107.997 61, 108.769 59.760, 107.169 57.239 C 106.574 56.302, 105.764 56.623, 104.010 58.489 M 129.279 72.250 L 120.098 81.500 119.043 99.463 C 117.919 118.606, 118.403 129.171, 120.565 132.637 C 122.685 136.036, 128.688 139.295, 131.519 138.585 C 137.577 137.064, 140.989 120.818, 140.987 93.500 C 140.986 75.950, 140.178 63, 139.086 63 C 138.742 63, 134.329 67.162, 129.279 72.250 M 89.009 73.671 C 89.025 75.093, 93.802 93.350, 94.946 96.359 C 95.878 98.809, 96.257 99.031, 97.601 97.916 C 100.327 95.654, 105.008 88.209, 105.616 85.169 C 106.437 81.066, 104.517 78.110, 99.664 76.007 C 94.506 73.772, 88.997 72.564, 89.009 73.671 M 72.872 76.060 C 56.019 77.485, 45.667 81.484, 48.864 85.336 C 50.637 87.473, 59.320 90.962, 66.710 92.508 C 70.279 93.255, 73.354 94.021, 73.544 94.210 C 73.733 94.400, 72.319 97.672, 70.401 101.483 C 66.380 109.472, 66.299 112.360, 70.085 112.800 C 73.468 113.194, 82.048 109.767, 87.816 105.720 C 90.339 103.949, 92.772 102.243, 93.221 101.929 C 93.670 101.615, 93.323 99.365, 92.450 96.929 C 91.577 94.493, 89.839 88.675, 88.588 84 C 85.983 74.263, 87.149 74.853, 72.872 76.060 M 89.481 115.877 C 83.703 122.621, 82.435 124.801, 81.020 130.422 C 77.913 142.763, 71.248 149, 61.166 149 C 56.397 149, 55.422 148.622, 52.400 145.600 C 49.779 142.979, 49 141.366, 49 138.560 C 49 133.478, 52.120 127.908, 57.581 123.240 L 62.230 119.266 58.865 118.680 C 57.014 118.357, 51.900 117.799, 47.500 117.440 C 37.746 116.644, 31.937 118, 28.948 121.774 C 27.070 124.145, 26.850 125.412, 27.262 131.500 C 27.522 135.350, 28.695 141.298, 29.868 144.718 C 31.198 148.597, 32 153.412, 32 157.514 C 32 163.164, 32.346 164.437, 34.455 166.545 C 37.712 169.803, 41.400 169.714, 57 166 C 70.505 162.785, 77.938 162.302, 84.352 164.224 C 88.933 165.596, 95.075 171.354, 97.053 176.128 L 98.355 179.272 99.287 176.886 C 102.219 169.382, 106.051 153.826, 106.605 147.183 C 107.399 137.660, 106.091 131.012, 100.924 118.314 C 98.765 113.007, 96.836 108.503, 96.638 108.305 C 96.440 108.107, 93.220 111.515, 89.481 115.877 M 80.231 113.191 C 76.233 114.898, 73.130 116.463, 73.335 116.668 C 74.352 117.685, 84.445 114.514, 86.804 112.437 C 90.371 109.297, 88.973 109.457, 80.231 113.191 M 80.868 118.466 C 80.612 118.722, 77.499 119.026, 73.951 119.142 C 67.103 119.366, 64.442 120.590, 58.165 126.409 C 49.300 134.625, 50.002 144.784, 59.558 146.577 C 63.860 147.384, 71.016 144.190, 73.863 140.192 C 76.507 136.480, 79 129.678, 79 126.179 C 79 124.753, 80.196 122.361, 81.687 120.805 C 83.602 118.806, 83.937 118, 82.854 118 C 82.018 118, 81.124 118.210, 80.868 118.466" stroke="none" fill="black" fill-rule="evenodd"/>
</svg>