<svg xmlns="http://www.w3.org/2000/svg" width="200" height="200" viewBox="0 0 200 200" version="1.1">
	<path d="M 32.625 12.798 C 31.455 14.690, 34.144 16.124, 41.502 17.532 C 45.830 18.360, 49.459 19.141, 49.568 19.269 C 49.676 19.396, 49.146 21.975, 48.390 25 C 47.061 30.320, 42.377 40.142, 28.989 65.679 C 23.496 76.156, 22.549 78.742, 22.214 84.179 C 21.883 89.561, 22.176 91.017, 24.186 93.976 C 27.220 98.442, 33.068 102.508, 34.087 100.859 C 34.531 100.141, 33.613 98.858, 31.751 97.589 C 20.913 90.207, 22.008 82.473, 37.822 54.701 C 47 38.582, 51.271 28.113, 52.182 19.500 C 52.471 16.772, 52.183 16.444, 49 15.882 C 43.890 14.979, 55.950 14.841, 68.331 15.661 C 77.335 16.258, 77.916 16.416, 75.231 17.545 C 71.306 19.195, 70.740 20.813, 70.037 32.386 C 69.444 42.132, 69.387 42.313, 66.006 45.136 C 64.119 46.711, 62.037 48, 61.379 48 C 59.911 48, 46.992 64.898, 43.975 70.766 C 42.225 74.169, 42.026 75.326, 42.990 76.488 C 45.213 79.166, 51.838 75.379, 71.253 60.333 C 77.168 55.750, 82.423 52, 82.932 52 C 83.441 52, 85.522 53.570, 87.557 55.489 C 91.052 58.785, 91.230 59.253, 90.780 63.941 C 90.020 71.852, 85.063 78.783, 66.465 97.947 C 43.833 121.266, 38.136 128.584, 39.614 132.437 C 41.240 136.673, 55.327 130.820, 70.400 119.643 L 78.374 113.731 80.579 116.496 C 84.641 121.591, 92 136.665, 92 139.892 C 92 144.746, 89.219 145.535, 76.998 144.145 C 57.246 141.899, 50.871 142.894, 44.557 149.208 L 40.568 153.197 33.335 152.832 C 27.977 152.561, 25.375 151.926, 23.301 150.384 C 17.184 145.836, 19.761 138.234, 34.446 117.500 C 38.731 111.450, 43.074 104.700, 44.097 102.500 C 46.265 97.836, 46.633 92.622, 44.750 93.250 C 43.514 93.662, 43.369 94.086, 43.125 98.003 C 43.056 99.105, 38.337 106.878, 32.637 115.275 C 19.652 134.405, 17.688 138.197, 17.583 144.335 C 17.513 148.425, 17.924 149.536, 20.252 151.539 C 23.760 154.558, 28.941 155.987, 36.404 155.994 C 42.040 156, 42.461 155.821, 45.670 152.072 C 50.547 146.375, 54.007 145.553, 68.952 146.543 C 75.853 147.001, 83.862 147.332, 86.750 147.279 C 89.638 147.226, 92 147.311, 92 147.469 C 92 149.714, 87.407 156.967, 81.467 164.105 C 73.508 173.667, 71 177.699, 71 180.931 C 71 184.033, 75.028 184.523, 80.527 182.091 C 91.088 177.419, 111.525 160.054, 116.528 151.500 C 120.860 144.094, 127.690 121.007, 129.989 106 C 130.965 99.629, 132.847 61.429, 132.964 45.623 L 133 40.746 138.010 41.227 C 143.938 41.797, 146.520 43.798, 149.327 50 C 151.042 53.790, 151.344 56.392, 151.239 66.500 C 151.171 73.100, 150.602 81.875, 149.975 86 C 149.348 90.125, 148.482 101.825, 148.052 112 C 147.408 127.225, 146.890 131.488, 145.127 136.079 C 142.462 143.019, 137.259 149.201, 131.166 152.671 C 124.826 156.281, 120.999 159.958, 121.004 162.437 C 121.009 165.552, 124.156 170.105, 132.036 178.402 L 139.165 185.906 144.290 183.886 C 159.300 177.969, 168.560 164.801, 172.448 143.847 C 174.795 131.195, 178.621 56.530, 177.513 45 C 176.290 32.275, 172.141 23.287, 165.965 19.981 C 163.215 18.509, 62.869 12, 42.930 12 C 37.533 12, 32.896 12.359, 32.625 12.798 M 108.500 20.977 C 132.726 27.361, 147.443 32.348, 147.819 34.300 C 148.120 35.862, 146.169 36.002, 123.823 36.024 C 94.072 36.053, 88.899 36.957, 90.454 41.855 C 91.027 43.659, 97.788 49.354, 104.960 54.072 L 107.350 55.644 105.627 78.572 C 102.910 114.731, 98.786 139.003, 93.108 152.247 C 91.999 154.836, 87.948 160.644, 84.107 165.155 C 76.955 173.554, 73.131 179.465, 74.176 180.509 C 76.337 182.670, 93.295 172.166, 103.573 162.301 C 112.903 153.345, 115.584 148.963, 119.900 135.610 C 126.906 113.934, 128.643 101.451, 129.515 66.500 C 129.845 53.300, 130.335 41.435, 130.605 40.133 C 131.069 37.902, 131.437 37.791, 137.062 38.198 C 144.156 38.711, 147.452 40.816, 150.984 47.089 C 154.549 53.419, 154.868 67.567, 152.015 92.871 C 150.652 104.964, 150.077 114.356, 150.485 117.871 C 151.321 125.079, 148.970 135.725, 145.010 142.660 C 141.907 148.092, 136.623 152.873, 128.750 157.371 C 121.439 161.548, 122.131 164.095, 133.880 176.250 C 136.936 179.413, 140.063 182, 140.829 182 C 143.738 182, 154.300 175.470, 157.700 171.570 C 161.938 166.709, 166.359 157.686, 168.425 149.680 C 171.021 139.622, 173.312 109.345, 174.606 68 C 175.318 45.283, 174.325 35.129, 170.774 28.812 C 167.018 22.128, 166.515 21.998, 136.642 19.966 C 121.714 18.950, 105.900 17.873, 101.500 17.571 L 93.500 17.024 108.500 20.977 M 77 19.630 C 73.868 20.883, 73 23.414, 73 31.290 C 73 41.083, 71.193 45.287, 65.408 48.956 C 63.078 50.434, 60.066 52.961, 58.715 54.572 C 54.416 59.695, 45 73.172, 45 74.200 C 45 75.874, 53.849 70.166, 68.329 59.150 L 82.158 48.631 85.651 50.511 C 92.834 54.380, 95.511 61.755, 92.548 69.514 C 89.805 76.696, 82.834 85.318, 65.070 103.500 C 50.272 118.645, 42 128.592, 42 131.239 C 42 132.586, 45.647 131.233, 54.270 126.688 C 65.298 120.876, 75.517 112.974, 75.432 110.324 C 75.374 108.534, 75.685 108.355, 77.455 109.162 C 79.972 110.308, 90.651 126.571, 93.068 132.939 L 94.793 137.483 95.820 133.491 C 98.727 122.194, 100.407 109.601, 102.486 83.510 C 104.641 56.480, 104.661 56.820, 100.750 54.522 C 95.212 51.267, 87 42.899, 87 40.510 C 87 34.713, 94.277 33.061, 120.500 32.904 L 138.500 32.797 129.500 29.843 C 107.251 22.541, 82 17.629, 77 19.630" stroke="none" fill="black" fill-rule="evenodd"/>
</svg>