<svg xmlns="http://www.w3.org/2000/svg" width="200" height="200" viewBox="0 0 200 200" version="1.1">
	<path d="M 124 12.474 C 105.241 15.532, 90.519 22.157, 89.335 28.073 C 88.821 30.643, 88.365 31.054, 86.609 30.528 C 46.739 18.585, 29.884 21.098, 24.646 39.765 C 21.813 49.863, 22.414 95.999, 25.379 96.001 C 26.195 96.001, 26.284 91.165, 25.708 78.251 C 24.158 43.538, 26.652 32.787, 37.384 27.913 C 42.711 25.494, 53.649 25.419, 65 27.725 L 73.500 29.452 66.885 30.130 C 59.306 30.907, 55.691 32.514, 51.215 37.091 C 45.837 42.592, 44.500 48.347, 44.500 66 C 44.500 74.525, 44.888 88.925, 45.362 98 C 46.357 117.045, 46.318 117.266, 37.569 142.500 C 31.888 158.886, 26.231 171.500, 24.564 171.500 C 21.605 171.500, 21.380 148.815, 24.079 122.732 C 25.184 112.051, 25.011 108.656, 23.440 110.227 C 22.550 111.117, 21.226 122.195, 19.941 139.500 C 18.234 162.497, 19.666 175, 24.006 175 C 28.017 175, 31.728 167.499, 40.990 140.669 C 47.685 121.275, 48.178 119.255, 48.716 109.054 C 49.363 96.800, 49.178 97.040, 58 97.014 C 62.056 97.003, 75 101.893, 75 103.437 C 75 105.888, 71.301 111.886, 68.795 113.500 C 67.087 114.600, 64.297 117.975, 62.595 121 C 59.851 125.876, 59.500 127.408, 59.500 134.500 C 59.500 141.633, 59.807 142.952, 62.329 146.669 C 65.689 151.619, 72.311 156.517, 74.191 155.443 C 78.980 152.705, 85.592 146.821, 88.173 143 C 90.196 140.004, 90.967 139.335, 90.479 141 C 89.355 144.835, 87.077 149.038, 83.328 154.192 L 79.915 158.884 81.538 165.147 C 83.613 173.156, 85.184 176.136, 89.041 179.381 C 92.633 182.403, 95.784 182.671, 100.642 180.366 C 107.789 176.974, 116.464 162.293, 119.570 148.332 C 121.730 138.620, 121.195 119.950, 118.522 111.774 C 116.680 106.139, 116.685 105.629, 118.846 79.274 C 120.054 64.548, 121.033 50.186, 121.021 47.358 C 121.002 42.626, 121.210 42.164, 123.645 41.553 C 128.945 40.223, 128.976 42.087, 124.039 65 C 121.627 76.198, 121.281 90.725, 123.289 96.500 C 124.100 98.833, 124.759 105.253, 124.871 111.908 C 125.217 132.529, 129.254 141.926, 135.992 137.798 C 139.384 135.719, 144.869 123.394, 147.029 113 C 149.739 99.956, 149.764 82.211, 147.088 71.802 L 145.108 64.103 148.540 49.399 C 150.428 41.311, 152.170 34.497, 152.411 34.256 C 153.502 33.164, 153.964 45.505, 154.329 85.500 C 154.780 134.900, 154.800 134.738, 146.077 153.832 C 138.669 170.046, 139.141 174.022, 148.882 177.458 C 152.859 178.862, 176.009 181.324, 176.895 180.439 C 178.364 178.969, 179.132 157.781, 179.627 105 L 180.194 44.500 184.195 39.280 C 193.346 27.343, 190.197 18.804, 174.781 13.751 C 166.609 11.073, 137.140 10.331, 124 12.474 M 134.458 14.084 C 108.737 16.383, 88.231 24.958, 91.929 31.867 C 93.504 34.810, 93.268 35.284, 90.566 34.606 C 88.181 34.007, 88.201 34.098, 91.548 39.071 C 93.427 41.863, 95.491 45.905, 96.134 48.054 L 97.305 51.961 101.902 43.780 C 107.263 34.241, 113.048 27.670, 115.644 28.170 C 117.588 28.544, 119.583 31.889, 120.486 36.290 C 121.011 38.851, 121.336 39.028, 124.444 38.445 C 127.338 37.902, 128.073 38.181, 129.508 40.372 C 131.401 43.261, 131.245 44.899, 127.456 62 C 124.398 75.799, 123.607 85.293, 124.999 91.500 C 125.615 94.250, 126.522 102.125, 127.015 109 C 128.533 130.194, 130.132 136.502, 133.808 135.803 C 138.263 134.955, 145.124 114.419, 146.456 97.941 C 147.194 88.810, 145.859 75.685, 143.516 69.044 C 142.262 65.492, 142.367 64.046, 144.622 53.810 C 148.313 37.052, 150.787 30, 152.975 30 C 153.971 30, 155.127 30.788, 155.545 31.750 C 155.962 32.712, 156.630 54.200, 157.029 79.500 C 157.846 131.270, 157.583 134.498, 151.437 148.336 C 142.779 167.829, 142.531 168.636, 144.342 171.400 C 145.248 172.782, 147.663 174.378, 149.741 174.967 C 153.774 176.111, 173.924 178.410, 174.537 177.796 C 175.910 176.424, 176.982 140.740, 176.990 96.159 L 177 43.818 180.436 39.804 C 184.443 35.122, 187 30.122, 187 26.967 C 187 23.669, 181.133 18.722, 174.887 16.753 C 169.311 14.996, 153.354 12.937, 147 13.155 C 145.075 13.221, 139.431 13.639, 134.458 14.084 M 110.828 34.940 C 108.998 37.107, 105.775 42.078, 103.666 45.986 L 99.832 53.093 108.916 46.840 C 118.456 40.273, 119.146 39.144, 117.025 33.565 C 115.708 30.102, 114.731 30.319, 110.828 34.940 M 64.326 33.098 C 56.395 34.565, 52.694 37.561, 49.010 45.500 C 47.510 48.734, 46.226 80.547, 47.466 83.765 C 48.471 86.373, 49.243 84.509, 53.898 68.239 C 59.915 47.204, 64.263 40, 70.941 40 C 74.207 40, 79.430 43.726, 83.674 49.083 L 86.848 53.090 84.521 58.295 C 83.240 61.158, 81.865 64.625, 81.464 66 C 80.776 68.356, 80.843 68.410, 82.617 66.941 C 83.653 66.083, 86.899 63.423, 89.831 61.030 C 94.902 56.890, 95.130 56.503, 94.502 53.089 C 93.513 47.710, 90.673 41.836, 87.087 37.752 C 83.846 34.060, 83.111 33.819, 71.500 32.632 C 69.850 32.464, 66.622 32.673, 64.326 33.098 M 66.223 45.262 C 65.054 46.507, 63.209 49.544, 62.124 52.012 C 59.978 56.889, 52.599 81.950, 53.157 82.463 C 53.346 82.636, 56.257 82.265, 59.627 81.639 C 64.468 80.739, 67.012 79.511, 71.743 75.789 C 76.669 71.914, 77.844 70.405, 78.361 67.289 C 78.706 65.205, 80.093 61.143, 81.443 58.263 L 83.896 53.026 79.013 48.013 C 73.418 42.269, 69.772 41.485, 66.223 45.262 M 114.500 46.241 C 100.783 55.816, 97.262 58.940, 96.631 62.097 C 96.272 63.891, 94.664 67.416, 93.058 69.929 C 91.452 72.443, 88.937 77.281, 87.469 80.679 L 84.800 86.858 88.365 91.527 C 93.623 98.413, 96.151 105.981, 96.748 116.619 C 97.559 131.100, 93.026 146.912, 85.509 155.817 L 82.709 159.134 84.428 165.317 C 87.501 176.371, 91.229 180.163, 97.482 178.594 C 104.207 176.906, 112.019 165.112, 116.119 150.455 C 119.280 139.159, 119.276 124.289, 116.111 113.895 L 113.794 106.289 115.972 80.395 C 117.169 66.153, 118.003 52.170, 117.825 49.323 L 117.500 44.146 114.500 46.241 M 89.276 64.976 C 81.871 70.979, 80.764 72.164, 81.693 73.093 C 83.518 74.918, 87.830 72.254, 90.029 67.943 C 92.491 63.118, 92.333 62.497, 89.276 64.976 M 74.186 77.345 L 70.068 80.785 74.784 82.447 C 77.378 83.360, 80.224 84.345, 81.109 84.634 C 82.274 85.014, 83.172 84.027, 84.359 81.060 C 86.453 75.827, 86.493 76, 83.200 76 C 81.660 76, 79.928 75.528, 79.352 74.952 C 78.621 74.221, 77.057 74.946, 74.186 77.345 M 54.500 85.523 C 51.750 86.287, 49.163 86.932, 48.750 86.956 C 48.337 86.980, 48 88.816, 48 91.035 C 48 95.822, 48.640 95.637, 56.500 88.571 C 61.969 83.655, 61.855 83.481, 54.500 85.523 M 60.460 88.750 L 54.690 93.500 59.869 94.245 C 62.717 94.655, 67.272 96.118, 69.991 97.495 C 72.709 98.873, 75.336 100, 75.828 100 C 76.320 100, 77.708 97.424, 78.913 94.275 C 80.990 88.849, 81.012 88.482, 79.348 87.265 C 77.287 85.758, 71.409 84.014, 68.365 84.006 C 67.191 84.003, 63.633 86.137, 60.460 88.750 M 81.143 96.052 L 78.835 102.005 83.020 106.753 C 88.238 112.671, 91.016 117.922, 92.677 125 C 93.931 130.347, 93.959 130.162, 93.683 118.377 C 93.419 107.070, 93.186 105.821, 90.225 99.805 C 88.478 96.257, 86.240 92.622, 85.250 91.727 C 83.551 90.189, 83.324 90.428, 81.143 96.052 M 75.447 110.500 C 74.283 113.547, 73.143 115, 71.915 115 C 70.918 115, 68.968 116.487, 67.582 118.304 C 59.173 129.328, 59.980 143.307, 69.442 150.524 L 72.903 153.163 77.508 149.994 C 82.727 146.404, 87.338 140.536, 89.074 135.277 C 90.616 130.603, 89.702 122.296, 87.079 117.155 C 84.840 112.766, 79.320 106, 77.979 106 C 77.532 106, 76.392 108.025, 75.447 110.500" stroke="none" fill="black" fill-rule="evenodd"/>
</svg>