<svg xmlns="http://www.w3.org/2000/svg" width="200" height="200" viewBox="0 0 200 200" version="1.1">
	<path d="M 75.779 13.083 C 67.261 13.985, 48.567 18.223, 40 21.195 L 34.500 23.103 27.770 20.832 C 22.610 19.090, 20.766 18.834, 19.863 19.737 C 18.961 20.639, 19.395 21.320, 21.724 22.656 L 24.762 24.400 22.381 26.272 C 18.950 28.971, 19.259 34.025, 23.374 42.528 C 26.970 49.960, 38.618 66.916, 40.668 67.703 C 42.659 68.467, 52.959 61.019, 55.755 56.794 C 57.172 54.653, 58.619 51.236, 58.971 49.201 L 59.610 45.500 61.798 49.696 C 63.001 52.003, 63.583 54.140, 63.091 54.444 C 61.091 55.680, 47.717 76.426, 43.392 85 C 40.037 91.654, 38.726 95.465, 38.631 98.841 C 38.470 104.573, 40.349 106.049, 40.743 100.500 C 41.099 95.476, 48.445 80.067, 55.640 69.250 C 58.658 64.713, 61.298 61, 61.507 61 C 61.716 61, 60.534 64.263, 58.881 68.250 C 46.988 96.938, 44.908 127.439, 52.531 161.354 C 54.280 169.138, 53.953 169.985, 48.067 172.931 C 37.674 178.132, 31.532 175.385, 27.379 163.680 C 22.049 148.657, 24.696 121.330, 31.917 116.820 C 34.643 115.117, 34.576 113.778, 31.784 114.180 C 29.157 114.559, 25.489 119.680, 23.748 125.401 C 22.975 127.939, 22.521 135.211, 22.555 144.500 C 22.621 162.286, 24.347 168.370, 31.046 174.422 C 34.360 177.417, 35.744 178, 39.536 178 C 44.455 178, 52.210 174.644, 55.368 171.149 C 57.151 169.176, 57.162 168.773, 55.618 162.291 C 50.798 142.060, 49.611 117.523, 52.602 99.926 C 54.517 88.660, 58.993 74.194, 63.626 64.298 C 65.482 60.335, 67.013 56.284, 67.029 55.296 C 67.045 54.308, 68.466 51.951, 70.186 50.059 L 73.314 46.618 79.891 48.343 C 95.159 52.347, 100.378 56.721, 96.660 62.397 C 94.604 65.534, 84.461 72.100, 75.323 76.209 C 68.821 79.132, 68.002 79.805, 68.001 82.230 C 67.999 88.089, 71.073 92.746, 81.574 102.791 C 93.709 114.400, 95.468 117.580, 94.744 126.601 C 94.374 131.210, 93.216 134.701, 90.023 140.839 C 86.354 147.892, 84.487 150.102, 75.971 157.476 C 59.112 172.075, 53.743 180.514, 60.043 182.514 C 66.289 184.496, 92.056 171.364, 104.589 159.811 C 111.503 153.438, 117.492 140.056, 124.644 115 L 126.500 108.500 127.133 115 C 127.481 118.575, 127.819 126.028, 127.883 131.562 C 127.979 139.854, 127.636 142.379, 125.929 145.912 C 121.403 155.279, 124.153 166.095, 132.718 172.619 C 140.296 178.392, 147.129 180.432, 159 180.468 C 168.787 180.498, 169.862 180.300, 174.825 177.550 C 185.062 171.880, 187.184 163.896, 182.400 149.062 C 179.379 139.696, 178.782 139.437, 169.596 143.500 C 161.749 146.970, 157.239 146.578, 155.528 142.278 C 153.093 136.154, 153.130 118.483, 155.606 105.287 C 156.150 102.389, 156.431 102.160, 158.255 103.136 C 162.820 105.580, 172.551 99.543, 176.687 91.703 C 177.620 89.934, 178.388 86.207, 178.402 83.375 C 178.434 77.202, 175.293 72.428, 168.630 68.523 C 163.060 65.259, 150.792 62.149, 140.304 61.343 C 129.163 60.487, 129.359 62.167, 141.054 67.798 C 154.215 74.134, 154.990 77.409, 144.119 80.745 C 136.994 82.931, 101.933 83.331, 99.851 81.250 C 98.850 80.250, 98.900 80, 100.103 80 C 102.723 80, 118.329 71.971, 122.751 68.347 C 127.872 64.152, 128.990 62.205, 130.410 55.016 C 131.460 49.705, 131.628 49.488, 134.954 49.171 C 136.853 48.991, 145.816 49.850, 154.871 51.080 L 171.335 53.318 173.720 50.409 C 177.441 45.871, 179.148 42.107, 178.810 39.184 C 178.521 36.685, 178.126 36.479, 173.079 36.192 C 170.097 36.022, 163.181 36.842, 157.709 38.014 C 132.798 43.347, 129.740 42.665, 136.648 33.317 C 137.942 31.566, 139 29.711, 139 29.194 C 139 27.292, 130.242 20.258, 125.726 18.533 C 122.348 17.243, 119.343 16.887, 114.784 17.236 C 109.914 17.609, 107.652 17.293, 104.732 15.829 C 102.659 14.790, 97.709 13.518, 93.732 13.001 C 85.693 11.957, 86.453 11.953, 75.779 13.083 M 70.658 16.503 C 65.796 17.296, 57.471 19.134, 52.158 20.588 C 46.846 22.042, 41.488 23.457, 40.250 23.732 C 36.992 24.457, 37.427 25.202, 42.744 28.002 C 48.526 31.046, 60.949 42.633, 63.489 47.350 L 65.343 50.793 75.033 40.967 C 83.781 32.095, 96.969 22.097, 102.049 20.485 C 107.782 18.665, 100.606 16.005, 88.500 15.464 C 83.351 15.233, 75.717 15.678, 70.658 16.503 M 112.032 20.750 C 112.049 21.163, 112.724 22.374, 113.532 23.441 C 114.382 24.565, 115 27.553, 115 30.541 C 115 40.912, 104.975 48.958, 95.641 46.077 C 90.135 44.378, 83.384 43.633, 81.236 44.487 C 79.976 44.989, 81.029 45.658, 85.075 46.927 C 93.270 49.497, 98.704 52.871, 100.109 56.262 C 102.652 62.403, 96.962 68.287, 80.255 76.793 C 72.316 80.835, 71.009 81.853, 71.008 84 C 71.007 87.701, 74.029 92.020, 81.602 99.139 C 92.227 109.127, 94.087 111.228, 96.085 115.500 C 99.559 122.926, 97.959 132.664, 91.313 144.556 C 88.431 149.712, 86.010 152.292, 73.640 163.387 C 64.928 171.201, 59.077 178.411, 60.386 179.719 C 61.445 180.778, 69.802 178.224, 77.500 174.490 C 86.462 170.142, 95.446 164.202, 102.102 158.222 C 108.763 152.238, 113.146 143.132, 119.532 122 C 126.947 97.464, 128.781 97.717, 130.306 123.483 C 131.312 140.487, 131.275 141.255, 129.240 145.443 C 123.009 158.269, 127.245 168.069, 141.954 174.857 C 146.360 176.890, 149.486 177.499, 157.164 177.821 C 165.882 178.186, 167.371 177.977, 172.387 175.680 C 182.141 171.215, 184.406 163.224, 179.718 149.818 L 177.436 143.292 170.468 146.117 C 166.636 147.670, 162.522 148.955, 161.327 148.971 C 157.911 149.017, 153.172 144.346, 151.896 139.677 C 149.594 131.253, 153.554 88.527, 156.500 90 C 157.050 90.275, 157.396 92.007, 157.268 93.850 C 157.141 95.692, 157.494 98.055, 158.054 99.100 C 161.588 105.704, 176 93.284, 176 83.635 C 176 74.996, 166.971 68.626, 150.162 65.406 C 140.455 63.546, 139.800 63.622, 144.515 66.063 C 148.697 68.228, 155 74.220, 155 76.031 C 155 78.055, 150.209 81.867, 146.365 82.900 C 135.057 85.941, 115.947 86.861, 104 84.939 C 93.705 83.283, 92.283 79.683, 100.830 76.913 C 107.012 74.910, 117.709 69.195, 121.490 65.874 C 126.053 61.869, 127.116 59.827, 127.881 53.608 C 128.859 45.654, 130.412 45.183, 148.136 47.474 C 173.129 50.705, 170.461 50.919, 173.960 45.402 C 175.632 42.765, 177 40.255, 177 39.823 C 177 37.785, 171.113 38.121, 157.496 40.934 C 141.719 44.193, 134.152 44.752, 132.200 42.800 C 130.263 40.863, 130.812 36.741, 133.542 32.723 L 136.084 28.982 133.292 26.356 C 129.084 22.397, 123.131 20.047, 117.250 20.022 C 114.362 20.010, 112.014 20.337, 112.032 20.750 M 101.500 23.846 C 95.792 26.552, 82.175 36.612, 79.024 40.451 C 77.623 42.158, 77.858 42.213, 83.660 41.539 C 88.355 40.995, 90.481 41.197, 92.836 42.415 C 104.022 48.200, 117.010 35.990, 111.298 25.060 C 110.309 23.167, 109.050 21.480, 108.500 21.310 C 107.950 21.141, 104.800 22.282, 101.500 23.846 M 23.667 28.667 C 22.280 30.053, 23.107 35.689, 25.430 40.677 C 27.630 45.403, 35.216 57.122, 39.755 62.809 L 41.598 65.118 46.522 61.809 C 54.965 56.136, 58.156 48.507, 54.693 42.275 C 50.600 34.910, 27.538 24.795, 23.667 28.667" stroke="none" fill="black" fill-rule="evenodd"/>
</svg>