<svg xmlns="http://www.w3.org/2000/svg" width="200" height="200" viewBox="0 0 200 200" version="1.1">
	<path d="M 48.461 6.063 C 47.663 7.354, 47.300 7.051, 53.842 10.556 C 59.840 13.769, 63 17.195, 63 20.484 C 63 22.574, 62.454 22.735, 53.250 23.344 C 34.952 24.556, 29.902 24.256, 27.294 21.806 C 25.128 19.771, 24.840 19.731, 23.315 21.256 C 21.958 22.613, 21.896 23.170, 22.958 24.450 C 23.666 25.302, 25.142 26, 26.239 26 C 27.818 26, 36.667 32.839, 43.500 39.342 C 44.879 40.654, 42.836 39.465, 34.693 34.217 C 28.328 30.114, 25 29.384, 25 32.090 C 25 32.724, 28.600 36.842, 33 41.242 C 37.400 45.642, 41 49.395, 41 49.581 C 41 49.767, 38.741 52.033, 35.980 54.615 C 26.927 63.083, 28.278 67, 40.249 67 L 47.115 67 40.880 71.750 C 37.340 74.447, 33.793 78.165, 32.672 80.351 C 30.783 84.039, 30.769 84.426, 32.349 89.439 C 36.609 102.952, 32.858 112.512, 16.490 129.863 C 12.695 133.886, 10.361 137.105, 10.968 137.480 C 11.546 137.837, 16 135.831, 20.866 133.023 C 31.360 126.967, 39.312 123.781, 42.898 124.198 C 44.957 124.437, 45.571 125.122, 45.839 127.482 C 46.370 132.157, 44.533 137.145, 34.882 157.221 C 29.933 167.517, 25.619 177.574, 25.295 179.571 C 24.218 186.207, 28.339 186.002, 37.675 178.955 C 42.066 175.640, 43.540 173.592, 47.410 165.423 C 52.894 153.844, 59.142 144.856, 65.976 138.712 C 74.170 131.345, 83.245 127.868, 84.659 131.554 C 85.942 134.897, 81.419 141.661, 70.790 152.295 C 64.855 158.232, 60 163.413, 60 163.808 C 60 165.246, 67.360 175.610, 71.378 179.830 C 76.425 185.132, 79.822 187, 84.416 187 C 92.297 187, 98.408 177.466, 107.494 151 C 113.396 133.806, 116.348 127.396, 119.171 125.646 C 120.536 124.800, 121.914 125.712, 126.671 130.608 C 136.317 140.536, 141.881 141.214, 146.137 132.982 C 149.459 126.555, 150.170 115.424, 149.828 75.213 L 149.500 36.777 143.746 37.374 C 132.506 38.539, 125.444 43.925, 118.414 56.692 C 113.463 65.683, 108.140 73, 106.548 73 C 105.843 73, 104.085 71.216, 102.642 69.036 L 100.019 65.072 104.260 64.002 C 110.645 62.391, 113.201 61.106, 112.751 59.736 C 112.528 59.056, 111.030 58.360, 109.423 58.189 C 107.815 58.019, 104.813 57.439, 102.750 56.901 C 95.432 54.992, 98.732 49.045, 113.039 38.361 C 125.359 29.162, 123.731 28.232, 106.776 34.783 C 88.344 41.905, 89 41.785, 89 38.035 C 89 34.535, 86.683 28.412, 84.405 25.896 C 82.993 24.334, 84.054 24.162, 99.694 23.407 C 136.290 21.642, 161.347 22.668, 168.820 26.238 C 174.905 29.146, 171.414 35.490, 159.750 42.720 C 156.588 44.680, 154 46.895, 154 47.642 C 154 49.655, 154.604 49.417, 162.029 44.481 C 177.791 34.002, 179.251 26.493, 166.345 22.279 C 160.006 20.210, 121.398 19.410, 97.065 20.844 C 80.332 21.831, 79.516 21.791, 76.811 19.866 C 75.261 18.762, 71.611 16.878, 68.699 15.680 C 65.788 14.481, 62.134 12.565, 60.579 11.422 C 57.754 9.345, 57.757 9.345, 74.127 11.643 C 101.433 15.477, 129.121 17.997, 157 19.187 C 171.575 19.809, 183.652 20.436, 183.838 20.580 C 184.023 20.724, 183.011 24.215, 181.588 28.338 C 178.142 38.321, 176.888 51.170, 178.101 64.057 C 178.798 71.469, 178.742 75.250, 177.899 77.807 C 177.047 80.387, 176.930 90.221, 177.463 114.490 C 177.985 138.275, 177.856 149.888, 177.008 155.574 C 174.289 173.811, 167.623 180.614, 155.102 177.928 C 152.296 177.327, 150.001 176.534, 150.003 176.167 C 150.005 175.800, 150.868 171, 151.921 165.500 C 155.414 147.260, 158 112.923, 157.983 85 C 157.973 68.854, 157.520 64, 156.024 64 C 155.615 64, 155.018 78.063, 154.697 95.250 C 154.083 128.114, 152.275 150.178, 148.901 166 C 147.786 171.225, 146.790 176.124, 146.687 176.887 C 146.423 178.842, 152.507 180.834, 159.016 180.924 C 166.446 181.026, 170.700 178.633, 174.641 172.133 C 180.465 162.529, 181.212 152.525, 179.992 100.500 C 179.628 84.970, 179.819 78.943, 180.726 77.360 C 181.685 75.687, 181.700 72.803, 180.792 64.125 C 179.388 50.699, 180.607 39.339, 184.684 27.843 C 186.827 21.801, 187.149 19.884, 186.210 18.753 C 185.274 17.625, 180.274 17.181, 162.760 16.671 C 141.479 16.052, 116.249 14.210, 98 11.943 C 84.413 10.256, 53.703 6, 51.311 5.474 C 50.107 5.209, 48.825 5.474, 48.461 6.063 M 67.643 20.087 C 68.963 21.407, 70.607 22.022, 72.115 21.759 C 74.312 21.377, 74.207 21.212, 70.782 19.672 C 65.871 17.464, 65.119 17.563, 67.643 20.087 M 64.114 29.250 C 62.979 31.587, 59.946 35.900, 57.375 38.833 L 52.700 44.166 55.350 46.624 C 60.141 51.066, 58.052 52.548, 52.108 48.924 C 49.153 47.123, 48.529 47.042, 47.274 48.298 C 46.018 49.553, 47.327 51.094, 57.410 60.227 L 68.987 70.716 81.744 67.266 C 88.760 65.368, 94.636 63.683, 94.803 63.521 C 95.312 63.027, 67.853 25, 66.987 25 C 66.542 25, 65.249 26.913, 64.114 29.250 M 84.613 43.867 L 98.207 62.735 102.354 61.670 L 106.500 60.606 103.209 59.921 C 99.076 59.061, 96 56.338, 96 53.539 C 96 50.831, 99.830 45.587, 105.287 40.822 L 109.500 37.145 99.591 40.522 C 87.843 44.527, 86 44.171, 86 37.899 C 86 30.227, 81.678 25, 75.335 25 L 71.019 25 84.613 43.867 M 38.162 26.900 L 33.823 27.500 42.162 34.680 L 50.500 41.859 52.841 39.680 C 55.992 36.746, 62 28.504, 62 27.116 C 62 25.923, 46.258 25.781, 38.162 26.900 M 36.469 40.871 C 42.290 46.848, 44.271 47.988, 45.469 46.050 C 45.792 45.527, 42.556 42.769, 38.278 39.921 L 30.500 34.742 36.469 40.871 M 138.994 40.934 C 130.926 43.388, 126.265 47.961, 119.798 59.764 C 117.467 64.019, 113.795 69.419, 111.638 71.765 L 107.717 76.031 113.608 84.504 C 124.861 100.688, 127.052 105, 124.021 105 C 123.547 105, 118.082 100.302, 111.875 94.559 C 105.669 88.817, 99.594 83.586, 98.377 82.934 C 95.794 81.552, 85 82.547, 85 84.168 C 85 84.731, 85.946 86.519, 87.101 88.142 C 92.595 95.857, 89.883 102.815, 80.298 105.602 C 71.373 108.196, 58.857 105.339, 56.033 100.062 C 53.527 95.379, 55.043 90.777, 61.199 84.378 L 65.165 80.256 58.083 78.520 C 54.187 77.566, 51 76.470, 51 76.085 C 51 75.700, 54.168 74.564, 58.039 73.560 C 61.910 72.556, 64.948 71.397, 64.789 70.985 C 64.312 69.748, 44.204 52, 43.280 52 C 41.924 52, 33 61.429, 33 62.862 C 33 63.857, 35.486 64.094, 43.750 63.888 C 51.120 63.705, 54.500 63.970, 54.500 64.731 C 54.500 65.342, 51.118 68.049, 46.985 70.747 C 38.989 75.967, 34 81.027, 34 83.918 C 34 84.888, 34.670 87.891, 35.489 90.591 C 38.735 101.289, 36.128 110.627, 26.645 122.269 C 24.090 125.405, 22 128.181, 22 128.437 C 22 128.692, 25.418 127.278, 29.595 125.294 C 41.981 119.412, 49 120.472, 49 128.223 C 49 132.898, 45.292 142.558, 36.802 160 C 28.563 176.928, 26.524 182, 27.960 182 C 28.411 182, 31.444 180.039, 34.699 177.642 C 40.088 173.675, 41.122 172.263, 46.228 161.892 C 49.418 155.413, 54.191 147.664, 57.296 143.925 C 65.396 134.169, 75.993 127, 82.313 127 C 85.105 127, 88.004 129.848, 87.991 132.579 C 87.971 136.545, 81.444 145.804, 72.350 154.766 L 62.947 164.031 66.927 169.892 C 74.380 180.867, 81.329 185.987, 86.202 184.094 C 92.327 181.714, 96.393 174.367, 104.516 151 C 115.353 119.828, 118.016 117.393, 128.783 128.813 C 135.515 135.951, 139.387 137.475, 142.144 134.071 C 146.702 128.441, 147.596 115.479, 146.513 70.718 C 145.775 40.214, 145.755 40.001, 143.635 40.086 C 142.461 40.133, 140.372 40.515, 138.994 40.934 M 85 69.085 C 70.717 73.021, 71.398 72.677, 73.429 74.922 C 74.793 76.429, 74.870 76.966, 73.815 77.630 C 72.892 78.211, 73.394 78.652, 75.500 79.110 C 81.070 80.323, 82.841 80.078, 83.499 78.002 C 84.432 75.064, 88.466 74.455, 93.113 76.551 C 97.195 78.392, 101.891 77.843, 102.691 75.432 C 103.094 74.218, 97.383 65.949, 96.244 66.096 C 95.835 66.148, 90.775 67.493, 85 69.085 M 63.250 74.706 C 59.881 75.355, 60.536 76.663, 64.558 77.316 C 69.226 78.073, 71.464 77.264, 69.903 75.383 C 68.760 74.006, 67.532 73.881, 63.250 74.706 M 86 79 C 86 79.550, 87.377 80, 89.059 80 C 90.844 80, 91.861 79.583, 91.500 79 C 91.160 78.450, 89.784 78, 88.441 78 C 87.098 78, 86 78.450, 86 79 M 102.325 79.285 C 100.250 80.444, 100.597 80.892, 109.825 88.975 C 119.248 97.230, 119.407 97.321, 115.921 92.475 C 113.952 89.739, 110.838 85.362, 109.001 82.750 C 105.320 77.515, 105.411 77.562, 102.325 79.285 M 63.689 85.575 C 53.205 95.911, 57.222 103.500, 73.177 103.500 C 81.719 103.500, 86.196 101.364, 86.842 96.981 C 87.336 93.629, 81.952 83.025, 79.500 82.521 C 69.645 80.493, 68.649 80.685, 63.689 85.575" stroke="none" fill="black" fill-rule="evenodd"/>
</svg>