<svg xmlns="http://www.w3.org/2000/svg" width="200" height="200" viewBox="0 0 200 200" version="1.1">
	<path d="M 62.185 11.728 L 58.134 17.693 47.317 19.844 C 41.368 21.027, 32.362 22.286, 27.304 22.643 L 18.107 23.292 17.417 28.816 C 17.038 31.855, 16.992 38.098, 17.316 42.690 C 18.337 57.157, 24.079 66.493, 34.899 71.279 L 39.399 73.270 36.450 75.666 C 34.827 76.984, 29.501 80.602, 24.613 83.707 L 15.726 89.352 16.340 98.015 C 17.472 113.963, 22.043 123.768, 32.212 132.064 C 41.601 139.725, 42.549 142.044, 39.384 149.628 C 37.441 154.286, 30.375 165.353, 24.298 173.257 C 20.688 177.953, 20.165 179.126, 21.462 179.624 C 26.417 181.525, 95.841 162.040, 108.500 155.196 C 117.333 150.420, 113.521 146.147, 101.729 147.604 L 96.958 148.194 108.287 125.771 C 120.871 100.865, 123.795 96.068, 125.117 98.158 C 125.585 98.896, 125.776 100.850, 125.543 102.500 C 122.646 122.976, 122.628 123.661, 124.874 127.295 C 126.050 129.200, 129.055 132.639, 131.550 134.939 C 135.227 138.329, 136.693 139.062, 139.293 138.810 C 141.977 138.551, 142.867 137.761, 144.750 133.971 C 148.056 127.314, 148.931 117.656, 149.003 87 C 149.064 60.937, 150.061 41.611, 151.543 37.747 C 152.961 34.053, 146.007 36.518, 138.612 42.330 C 136.473 44.011, 129.385 51.814, 122.860 59.669 C 111.166 73.746, 107.388 77, 102.737 77 C 99.462 77, 93 69.744, 93 66.066 C 93 65.480, 94.463 64.993, 96.250 64.985 C 100.942 64.964, 111.437 62.328, 115.906 60.048 C 121.568 57.160, 125 52.626, 125 48.036 C 125 36.683, 105.466 22.605, 87.839 21.254 C 79.204 20.593, 74.767 21.483, 71.029 24.629 L 68 27.178 68 23.244 L 68 19.310 84.383 18.639 C 93.393 18.269, 112.962 18.271, 127.868 18.643 L 154.971 19.319 154.761 78.910 L 154.552 138.500 148.656 142.405 C 140.677 147.688, 136.704 153.860, 137.264 160.098 C 137.930 167.506, 143.299 172.787, 152.527 175.111 C 163.109 177.776, 174.120 171.824, 179.137 160.727 C 181.456 155.598, 181.491 155.068, 181 132.500 C 179.692 72.320, 180.808 33.585, 184.126 24.069 C 185.086 21.314, 185.617 21, 189.312 21 C 193.161 21, 193.320 20.891, 191.754 19.326 C 189.631 17.202, 169.261 16.500, 109.750 16.500 L 67.999 16.500 67.984 12.500 C 67.957 5.339, 66.642 5.164, 62.185 11.728 M 63.232 15 C 62.190 16.668, 62.233 17, 63.492 17 C 64.333 17, 65 16.116, 65 15 C 65 13.900, 64.883 13, 64.741 13 C 64.598 13, 63.919 13.900, 63.232 15 M 156.936 80 L 156.875 140.500 150.702 144.500 C 143.450 149.199, 139.998 153.844, 140.004 158.898 C 140.012 167.247, 146.972 172.505, 158 172.493 C 165.944 172.485, 170.846 169.850, 174.427 163.663 C 178.789 156.126, 178.974 153.704, 178.141 115 C 177.212 71.854, 178.102 37.529, 180.406 27.688 C 181.283 23.941, 182 20.705, 182 20.495 C 182 20.286, 176.374 19.976, 169.498 19.807 L 156.996 19.500 156.936 80 M 50.862 32.297 C 46.111 39.009, 42.337 44.627, 42.477 44.781 C 42.616 44.936, 46.053 43.298, 50.115 41.140 C 54.177 38.982, 59.188 36.683, 61.250 36.031 L 65 34.845 65 27.422 L 65 20 62.250 20.047 C 59.890 20.087, 58.274 21.826, 50.862 32.297 M 45.500 23.029 C 41.100 24.021, 35.650 24.870, 33.390 24.916 C 31.129 24.962, 27.147 25.292, 24.541 25.649 L 19.803 26.299 20.195 38.399 C 20.518 48.340, 21.004 51.439, 22.920 55.757 C 25.560 61.708, 30.324 66.352, 36.503 69.001 C 44.619 72.480, 43.032 75.334, 27.565 85.076 L 19 90.470 19 95.598 C 19 102.840, 20.607 110.441, 23.509 116.927 C 25.372 121.090, 28.217 124.566, 34.751 130.664 C 43.180 138.529, 43.500 138.988, 43.500 143.216 C 43.500 148.625, 39.311 157.189, 31.007 168.759 C 26.048 175.668, 25.441 176.940, 27.290 176.541 C 62.399 168.968, 110 154.113, 110 150.729 C 110 150.055, 106.752 149.933, 100.500 150.373 C 92.373 150.944, 91 150.821, 91 149.520 C 91 148.684, 91.635 148, 92.411 148 C 93.246 148, 98.797 138.228, 106.022 124.037 C 112.733 110.858, 119.690 98.379, 121.481 96.306 C 124.322 93.020, 124.947 92.711, 126.369 93.891 C 128.357 95.541, 128.510 102.441, 126.838 114.998 L 125.677 123.723 129.038 128.403 C 132.600 133.363, 138.278 137.565, 139.989 136.507 C 141.973 135.281, 143.933 130.180, 145.035 123.376 C 145.970 117.602, 148.095 41.237, 147.351 40.136 C 147.216 39.936, 145.580 40.714, 143.716 41.866 C 139.529 44.454, 132.987 51.386, 122.076 64.796 C 110.420 79.123, 103.716 82.711, 97.596 77.897 C 94.948 75.814, 89.027 66.512, 89.009 64.406 C 89.004 63.802, 92.471 62.812, 96.750 62.196 C 107.885 60.594, 114.528 58.353, 118.514 54.853 C 126.704 47.663, 120.401 36.599, 103.500 28.498 C 94.515 24.192, 85.850 22.577, 79.438 24.014 C 73.174 25.418, 73.140 25.449, 73.904 29.186 C 74.550 32.341, 74.662 32.400, 79.549 32.141 C 87.036 31.744, 98.152 34.446, 106.002 38.571 C 109.851 40.593, 113 42.552, 113 42.923 C 113 43.294, 111.312 44.184, 109.250 44.899 C 102.503 47.240, 91.975 54.059, 85.114 60.531 C 76.712 68.458, 72.764 75.316, 73.192 81.242 C 73.476 85.174, 73.845 85.675, 78 87.785 C 82.025 89.828, 83.800 90.054, 94.805 89.923 C 101.573 89.843, 107.373 90.040, 107.694 90.360 C 108.015 90.681, 105.818 93.364, 102.812 96.323 C 97.894 101.163, 91.483 109.535, 77.789 129 C 71.916 137.349, 68.595 140.442, 66.408 139.603 C 64.933 139.037, 64.810 138.018, 65.453 131.726 C 65.860 127.752, 66.262 123.458, 66.346 122.185 C 66.485 120.098, 65.241 119.407, 53.755 115.185 C 41.656 110.737, 37 108.203, 37 106.066 C 37 105.542, 38.861 103.625, 41.135 101.806 C 54.776 90.900, 59.537 84.784, 63.698 72.819 C 66.082 65.964, 66.170 64.933, 65.490 51.805 C 65.097 44.212, 64.413 38, 63.970 38 C 62.262 38, 53.161 42.323, 45.780 46.640 C 38.535 50.877, 35.200 51.528, 36.371 48.476 C 36.650 47.749, 40.956 41.546, 45.939 34.692 C 50.923 27.838, 55 21.953, 55 21.615 C 55 20.865, 55.307 20.819, 45.500 23.029 M 70 32 C 70 32.550, 70.477 33, 71.059 33 C 71.641 33, 71.840 32.550, 71.500 32 C 71.160 31.450, 70.684 31, 70.441 31 C 70.198 31, 70 31.450, 70 32 M 74.667 35.667 C 74.300 36.033, 74 38.880, 74 41.993 C 74 49.796, 72.015 68.830, 70.894 71.779 C 70.298 73.346, 69.446 74.001, 68.482 73.632 C 67.406 73.219, 66.204 74.786, 64.151 79.280 C 60.323 87.660, 54.302 94.991, 46.530 100.735 C 42.984 103.356, 40.064 105.796, 40.041 106.157 C 39.989 106.982, 52.252 112.037, 61.500 115.003 C 65.350 116.237, 68.893 117.607, 69.373 118.047 C 69.867 118.499, 69.541 122.649, 68.624 127.591 C 66.143 140.967, 65.934 141.108, 81.591 118.808 C 86.878 111.277, 93.671 102.390, 96.686 99.058 L 102.168 93 93.527 93 C 82.537 93, 76.668 91.514, 72.944 87.790 C 63.954 78.801, 77.222 58.835, 100.909 45.706 L 107.272 42.179 103.166 40.085 C 100.908 38.933, 96.478 37.318, 93.320 36.495 C 87.475 34.973, 75.876 34.457, 74.667 35.667 M 69.158 63 C 69.158 64.375, 69.385 64.938, 69.662 64.250 C 69.940 63.563, 69.940 62.438, 69.662 61.750 C 69.385 61.063, 69.158 61.625, 69.158 63" stroke="none" fill="black" fill-rule="evenodd"/>
</svg>