<svg xmlns="http://www.w3.org/2000/svg" width="200" height="200" viewBox="0 0 200 200" version="1.1">
	<path d="M 47.736 9.649 C 44.606 10.541, 43 15.374, 43 23.901 C 43 35.384, 41.396 41.827, 37.673 45.306 C 35.124 47.687, 34.089 48.049, 31.553 47.448 C 26.357 46.218, 23.841 46.703, 21.120 49.462 L 18.500 52.119 25.424 51.887 C 32.177 51.660, 32.417 51.737, 35.157 55.020 C 40.088 60.926, 43.063 73.249, 41.039 79.382 C 38.637 86.660, 32.158 88.695, 21.591 85.489 C 15.547 83.656, 15 83.647, 15 85.389 C 15 86.261, 17.510 87.440, 21.750 88.557 C 34.773 91.989, 45 98.838, 45 104.126 C 45 109.319, 38.893 115.877, 26.895 123.568 C 20.298 127.796, 18.313 130.871, 22.608 130.208 C 23.648 130.047, 27.425 129.662, 31 129.353 C 37.110 128.824, 37.650 128.951, 40 131.474 C 42.359 134.006, 42.499 134.787, 42.488 145.329 C 42.482 151.473, 42.112 161.450, 41.665 167.500 C 40.950 177.199, 41.069 178.914, 42.677 182 C 46.011 188.401, 54.994 188.190, 66.650 181.437 L 70.800 179.033 68.962 173.127 C 63.828 156.630, 66.326 141.189, 75.420 133.205 C 82.178 127.271, 89.883 128.047, 97.597 135.438 C 100.019 137.759, 102 140.114, 102 140.673 C 102 141.232, 99.670 144.346, 96.822 147.594 C 84.752 161.362, 77.382 173.401, 78.441 177.621 C 80.664 186.479, 105.177 169.619, 115.361 152.228 C 128.093 130.484, 133.656 108.748, 134.616 77 C 135.080 61.665, 135.467 58.542, 137.744 51.754 C 140.379 43.901, 143.236 39.579, 145.330 40.277 C 152.423 42.641, 155.630 77.690, 150.081 92.186 L 147.904 97.873 150.081 105.039 C 153.156 115.163, 152.437 122.708, 147.431 132.839 C 144.353 139.069, 141.717 142.388, 133.323 150.602 C 124.041 159.685, 121.486 163, 123.764 163 C 124.184 163, 125.565 165.186, 126.834 167.857 C 135.211 185.502, 148.871 187.835, 161.508 173.779 C 171.442 162.730, 177.294 147.882, 177.185 134 C 177.148 129.325, 177.549 120.325, 178.075 114 C 178.601 107.675, 179.500 88.550, 180.072 71.500 C 180.644 54.450, 181.461 38.098, 181.888 35.161 C 182.632 30.044, 182.557 29.778, 180.082 28.748 C 175.054 26.656, 159.314 27.576, 140.500 31.063 C 125.051 33.927, 120.268 34.403, 106.750 34.426 C 98.088 34.440, 91 34.779, 91 35.179 C 91 35.579, 92.627 36.678, 94.616 37.622 C 96.605 38.566, 99.498 41.085, 101.044 43.220 C 106.818 51.190, 107.315 62.274, 103.346 94.536 L 100.634 116.572 88.067 114.725 C 81.155 113.710, 73.925 112.119, 72 111.190 C 65.640 108.119, 66.995 103.429, 76.314 96.258 C 80.270 93.214, 81.832 91.432, 81.145 90.745 C 79.955 89.555, 74.250 93.767, 68.642 99.974 C 62.503 106.770, 64.489 112.452, 73.881 114.960 C 79.191 116.378, 102.374 119.813, 103.250 119.312 C 103.662 119.075, 104 117.166, 104 115.070 C 104 112.973, 105.125 102.411, 106.500 91.598 C 107.875 80.786, 109 68.673, 109 64.680 C 109 55.573, 106.771 46.684, 103.187 41.500 L 100.421 37.500 110.461 37.339 C 116.686 37.238, 128.858 35.773, 142.500 33.481 C 158.631 30.771, 166.310 29.913, 171.286 30.262 C 175.018 30.524, 178.278 30.945, 178.531 31.198 C 179.025 31.692, 177.696 65.186, 175.799 100 C 175.155 111.825, 174.576 126.450, 174.511 132.500 C 174.415 141.612, 173.950 144.740, 171.805 150.728 C 168.504 159.943, 164.814 166.216, 159.101 172.323 C 153.462 178.352, 150.345 180, 144.584 180 C 140.942 180, 139.373 179.389, 136.467 176.837 C 133.008 173.800, 126.936 163.436, 127.059 160.779 C 127.091 160.075, 129.969 157.127, 133.455 154.228 C 151.750 139.005, 158.536 120.668, 152.467 102.856 C 150.980 98.492, 151.011 97.906, 153.050 91.873 C 158.771 74.945, 155.126 42.349, 147.028 38.015 C 142.889 35.800, 138.613 40.214, 134.881 50.553 C 133.107 55.468, 132.601 59.883, 131.968 76 C 130.674 108.946, 126.048 127.619, 113.838 149.189 C 110.250 155.527, 106.847 159.813, 101.255 165.035 C 93.980 171.829, 84.972 177.970, 82.250 177.991 C 77.464 178.027, 85.397 164.686, 100.140 147.903 L 105.935 141.306 102.995 137.308 C 97.020 129.183, 88.058 125.129, 80.517 127.140 C 74.908 128.636, 68.818 135.104, 66.054 142.500 C 63.286 149.908, 63.001 161.658, 65.367 170.831 C 66.265 174.313, 67 177.374, 67 177.633 C 67 177.893, 64.104 179.460, 60.564 181.117 C 52.593 184.847, 47.241 184.806, 45.215 181 C 43.877 178.487, 43.906 176.369, 45.661 147.898 C 46.354 136.663, 45.255 132.234, 40.857 128.533 C 38.604 126.638, 36.705 126, 33.313 126 L 28.780 126 34.640 121.642 C 42.037 116.141, 44.499 113.444, 46.502 108.651 C 49.151 102.310, 45.994 96.422, 37.275 91.441 L 34.050 89.598 37.005 88.356 C 41.547 86.446, 43.992 81.577, 43.996 74.432 C 44.001 66.791, 41.861 59.489, 38.094 54.288 L 35.167 50.248 37.618 48.937 C 42.694 46.220, 44.380 41.594, 45.076 28.478 C 45.429 21.833, 46.276 15.353, 46.958 14.079 C 48.038 12.060, 48.759 11.825, 52.566 12.255 C 54.969 12.525, 60.335 14.362, 64.490 16.335 L 72.046 19.923 68.564 24.484 C 64.285 30.090, 63.259 34.666, 65.367 38.744 C 67.337 42.552, 72.263 44.868, 82.695 46.891 C 87.259 47.776, 90.995 48.797, 90.997 49.160 C 90.999 49.523, 88.044 50.873, 84.432 52.160 C 79.050 54.078, 76.714 55.690, 71.491 61.092 C 60.543 72.415, 61.605 75.908, 76.586 77.842 C 85.713 79.020, 89.933 80.872, 90.099 83.773 C 90.377 88.652, 90.580 89.522, 91.500 89.771 C 92.923 90.156, 93.327 83.480, 92.028 81.053 C 90.361 77.937, 86.186 76.258, 76.971 74.996 C 72.343 74.362, 68.206 73.627, 67.778 73.363 C 65.900 72.202, 67.411 69.399, 73.118 63.456 C 78.049 58.320, 80.575 56.573, 86.144 54.445 C 99.058 49.510, 98.683 47.123, 84.587 44.520 C 66.123 41.111, 63.059 36.574, 71.486 25.126 L 75.973 19.031 66.736 14.554 C 57.838 10.241, 51.448 8.591, 47.736 9.649" stroke="none" fill="black" fill-rule="evenodd"/>
</svg>