<svg xmlns="http://www.w3.org/2000/svg" width="200" height="200" viewBox="0 0 200 200" version="1.1">
	<path d="M 40.416 18.917 C 39.210 20.124, 40.411 21.042, 43.934 21.605 L 47.867 22.234 48.184 58.867 C 48.358 79.015, 48.461 95.614, 48.414 95.752 C 48.367 95.891, 45.667 94.676, 42.414 93.052 C 31.003 87.355, 24.484 88.417, 20.432 96.632 C 18.673 100.199, 18.514 103.247, 18.391 135.793 C 18.260 170.380, 18.300 171.150, 20.411 174.293 C 22.163 176.901, 23.333 177.556, 26.673 177.802 C 30.037 178.050, 32.568 177.156, 40.641 172.867 C 59.251 162.982, 61.410 162.045, 65.628 162.022 C 67.928 162.010, 70.258 162.607, 70.892 163.370 C 72.786 165.652, 83.639 170.055, 88.723 170.603 C 95.432 171.326, 99.709 168.902, 102.958 162.536 C 105.423 157.704, 105.507 156.860, 106.110 131.036 C 106.483 115.039, 107.180 103.382, 107.865 101.685 C 108.489 100.137, 109 98.553, 109 98.165 C 109 97.778, 105.737 97.594, 101.750 97.757 C 96.397 97.975, 93.519 97.588, 90.748 96.276 L 86.996 94.500 93.073 83.500 C 104.963 61.975, 114.202 45.869, 114.480 46.182 C 114.635 46.357, 114.164 50.100, 113.434 54.500 C 111.657 65.206, 111.679 73.986, 113.498 79.341 C 114.667 82.787, 114.777 84.904, 113.998 89.013 C 112.480 97.017, 112.791 116.074, 114.582 124.742 C 117.161 137.230, 120.417 142, 126.361 142 C 129.797 142, 134.260 136.324, 138.143 127.018 L 141.281 119.500 140.728 96.265 C 140.101 69.869, 141.048 55.478, 144.267 42.500 L 146.500 33.500 147.230 81 C 147.632 107.125, 147.972 130.655, 147.986 133.288 C 148.027 140.782, 144.778 145.295, 133.823 152.961 C 127.387 157.465, 126.249 160.515, 128.829 166.345 C 129.928 168.831, 133.229 173.331, 136.164 176.346 C 140.448 180.747, 142.653 182.160, 147.346 183.513 C 152.821 185.091, 153.472 185.091, 157.586 183.520 C 163.840 181.132, 168.536 175.193, 171.440 165.999 C 174.778 155.433, 176.422 139.863, 175.555 127.019 C 175.164 121.234, 174.796 97.825, 174.737 75 C 174.636 36.361, 174.762 33.121, 176.564 28 C 178.006 23.904, 179.011 22.474, 180.500 22.398 C 181.600 22.342, 184.412 22.229, 186.750 22.148 C 191.764 21.973, 192.397 20.325, 187.750 19.545 C 183.957 18.907, 41.034 18.298, 40.416 18.917 M 51 61.500 C 51 83.225, 50.830 101, 50.621 101 C 50.413 101, 47.601 99.410, 44.373 97.466 C 33.003 90.619, 27.378 90.495, 23.553 97.005 C 21.654 100.238, 21.488 102.259, 21.344 124 C 21.258 136.925, 21.108 152.585, 21.011 158.800 C 20.869 167.918, 21.160 170.595, 22.518 172.668 C 25.203 176.765, 30.663 175.532, 44.849 167.625 C 51.387 163.981, 57.245 161, 57.868 161 C 60.501 161, 58.542 159.323, 52.967 156.805 C 49.548 155.262, 47 153.474, 47 152.619 C 47 151.799, 50.611 145.586, 55.025 138.814 C 64.926 123.621, 72.122 109.163, 75.326 98.026 C 77.744 89.618, 77.749 89.524, 75.882 86.040 C 72.602 79.922, 73.853 70.856, 78.511 66.991 C 80.915 64.996, 79.587 54.496, 76.460 50.774 C 75.200 49.275, 73.865 46.662, 73.493 44.968 C 72.642 41.093, 73.920 29.520, 75.073 30.673 C 75.543 31.143, 77.163 35.924, 78.674 41.297 C 81.909 52.809, 82.241 53.020, 93.924 50.985 C 98.091 50.260, 103.205 49.579, 105.290 49.472 C 108.542 49.305, 109.460 48.691, 111.763 45.139 C 114.510 40.903, 118.014 39.557, 117.983 42.750 C 117.973 43.712, 117.300 48.550, 116.486 53.500 C 114.596 65.007, 114.595 75.095, 116.485 79.618 C 117.679 82.475, 117.754 84.087, 116.871 87.836 C 115.153 95.124, 115.439 117.353, 117.353 125.290 C 121.515 142.555, 127.062 143.840, 134.224 129.198 L 137.500 122.500 138.093 87.500 C 138.665 53.785, 138.784 52.135, 141.335 42.554 C 144.872 29.273, 146.973 24, 148.725 24 C 149.978 24, 150.158 30.582, 150.026 71.750 C 149.942 98.013, 150.186 123.139, 150.568 127.586 C 151.670 140.405, 148.770 146.007, 136.836 154.111 C 133.287 156.522, 130.784 159.014, 130.407 160.513 C 129.080 165.801, 140.076 178.817, 147.645 180.919 C 152.744 182.334, 154.569 182.276, 157.800 180.595 C 163.913 177.414, 168.174 170.039, 170.715 158.244 C 172.619 149.402, 172.770 140.009, 171.908 84 C 171.311 45.179, 171.795 33.502, 174.299 26.250 L 175.766 22 113.383 22 L 51 22 51 61.500 M 76.079 44.583 C 76.127 45.748, 76.364 45.985, 76.683 45.188 C 76.972 44.466, 76.936 43.603, 76.604 43.271 C 76.272 42.939, 76.036 43.529, 76.079 44.583 M 98.500 53.121 C 96.850 53.643, 92.463 54.167, 88.751 54.285 L 82.001 54.500 82.001 58.691 C 82 60.996, 82.338 63.086, 82.750 63.336 C 83.162 63.586, 86.270 63.111, 89.655 62.280 C 94.586 61.070, 96.665 59.898, 100.113 56.385 C 104.423 51.993, 104.104 51.348, 98.500 53.121 M 100.246 59.930 C 97.618 62.308, 94.560 64.028, 92.246 64.430 C 86.639 65.405, 83 67.070, 83 68.661 C 83 69.441, 82.518 74.404, 81.928 79.690 C 80.929 88.656, 80.986 89.431, 82.790 91.235 C 84.701 93.146, 84.807 93.015, 92.005 79.834 C 96.010 72.500, 100.615 64.138, 102.239 61.250 C 103.862 58.362, 105.035 56.018, 104.845 56.041 C 104.655 56.064, 102.586 57.814, 100.246 59.930 M 77.643 73.287 C 76.196 76.508, 76.123 77.702, 77.149 81.287 L 78.355 85.500 79.194 79.500 C 80.399 70.875, 79.801 68.482, 77.643 73.287 M 79.505 94.267 C 79.274 94.945, 78.132 98.425, 76.967 102 C 73.553 112.476, 66.844 125.614, 58.131 138.889 C 53.659 145.702, 50 151.609, 50 152.015 C 50 153.330, 60.370 157.296, 65 157.753 C 70.934 158.338, 74.254 155.763, 76.575 148.774 C 78.074 144.262, 78.221 140.954, 77.690 123.787 C 77.314 111.654, 77.441 104, 78.018 104 C 78.976 104, 83 96.848, 83 95.147 C 83 93.665, 79.969 92.902, 79.505 94.267 M 82.762 102.252 L 80.025 107.500 80.658 125 C 81.393 145.271, 80.181 151.973, 74.811 157.343 L 71.764 160.390 73.923 162.139 C 77.152 164.753, 86.557 168, 90.903 168 C 96.189 168, 99.596 165.033, 101.588 158.695 C 102.861 154.642, 103.275 148.443, 103.471 130.500 C 103.608 117.850, 104.045 106.037, 104.440 104.250 L 105.159 101 99.829 100.978 C 96.699 100.965, 92.701 100.140, 90.141 98.978 C 87.743 97.890, 85.718 97.001, 85.641 97.002 C 85.563 97.004, 84.268 99.366, 82.762 102.252" stroke="none" fill="black" fill-rule="evenodd"/>
</svg>