<svg xmlns="http://www.w3.org/2000/svg" width="200" height="200" viewBox="0 0 200 200" version="1.1">
	<path d="M 67 13.984 C 48.878 15.043, 45.613 18.617, 59.107 22.625 L 64.472 24.218 56.986 26.966 C 46.543 30.799, 40.551 33.760, 37.488 36.599 C 34.944 38.957, 34.886 39.269, 35.563 47.029 C 36.230 54.676, 36.121 55.312, 33.085 61.480 C 31.142 65.426, 26.955 71.070, 22.304 76.015 C 17.188 81.454, 15.029 84.429, 15.708 85.108 C 17.362 86.762, 31.490 70.740, 35.599 62.551 C 38.945 55.883, 39.120 55.040, 38.819 47.023 L 38.500 38.546 43.500 35.808 C 47.950 33.372, 66.612 26, 68.331 26 C 70.085 26, 68.429 66.437, 65.910 85.143 L 64.745 93.785 60.899 94.400 C 52.527 95.739, 47.231 103.898, 44.529 119.621 C 41.996 134.360, 42.026 134.267, 40.326 132.855 C 39.504 132.173, 37.498 129.677, 35.868 127.308 C 33.699 124.156, 32.228 123, 30.386 123 C 27.004 123, 24 121.285, 24 119.355 C 24 116.261, 30.235 106.169, 39.092 94.926 C 51.880 78.694, 55.220 73.583, 54.831 70.841 C 54.551 68.858, 53.949 68.515, 50.897 68.601 C 46.281 68.730, 26 78.553, 26 80.660 C 26 81.489, 26.352 82.017, 26.783 81.833 C 27.214 81.650, 31.879 79.363, 37.151 76.751 C 42.423 74.140, 48.212 71.708, 50.016 71.347 L 53.296 70.691 51.398 73.926 C 50.354 75.706, 45.517 82.188, 40.648 88.331 C 19.746 114.706, 16.931 122.739, 27.640 125.454 C 30.744 126.241, 32.612 127.615, 35.176 131 C 37.422 133.965, 39.476 135.605, 41.196 135.807 C 44.285 136.170, 45.113 134.135, 47.016 121.500 C 48.607 110.938, 51.425 103.662, 55.133 100.541 C 58.033 98.102, 62.613 96.279, 63.533 97.200 C 64.307 97.973, 60.053 111.927, 56.972 118.721 C 52.632 128.293, 47.745 134.113, 37.834 141.515 C 24.647 151.363, 22 155.815, 22 168.153 L 22 175.008 33.250 165.913 C 44.184 157.075, 52.659 151.326, 53.507 152.174 C 53.736 152.403, 52.793 156.620, 51.410 161.545 C 48.341 172.483, 48.657 177.448, 52.644 180.877 C 55.169 183.050, 56.026 183.206, 62.455 182.671 C 66.330 182.348, 71.128 181.558, 73.117 180.915 L 76.734 179.746 76.685 172.082 C 76.571 154.427, 84.060 150.392, 104 157.366 C 113.930 160.838, 116 160.968, 116 158.117 C 116 156.333, 108.881 146.944, 101.350 138.793 C 98.957 136.204, 97 133.693, 97 133.212 C 97 132.732, 99.023 130.886, 101.496 129.110 C 105.841 125.990, 107.902 122.268, 106.522 120.035 C 106.065 119.296, 101.674 119.166, 92.576 119.623 C 83.229 120.092, 79.093 119.959, 78.608 119.174 C 77.604 117.550, 80.252 113.064, 84.833 108.630 L 88.830 104.760 99.363 106.880 C 111.915 109.406, 114.347 109.491, 116.030 107.464 C 117.097 106.178, 116.832 105.427, 114.402 102.855 C 112.806 101.166, 108.237 97.568, 104.250 94.861 C 100.263 92.154, 97 89.719, 97 89.450 C 97 89.180, 98.977 85.032, 101.394 80.230 C 104.081 74.892, 106.995 70.614, 108.894 69.220 C 111.256 67.486, 112 66.167, 112 63.712 C 112 60.230, 117.832 50.379, 122.469 46.026 C 124.687 43.945, 125.253 43.786, 126.037 45.026 C 127.405 47.190, 127.148 64.410, 125.500 81 C 124.708 88.975, 124.046 101.282, 124.030 108.349 C 123.995 123.253, 124.786 125.705, 131.682 132.061 C 135.180 135.285, 136.782 136.112, 138.923 135.798 L 141.672 135.395 138.627 140.292 C 127.768 157.762, 142.576 183.116, 161.558 179.555 C 167.098 178.516, 174.021 171.470, 178.069 162.753 L 181.437 155.500 181.486 91.500 C 181.513 56.300, 181.917 26.059, 182.383 24.298 C 183.180 21.289, 183.534 21.079, 188.287 20.798 C 193.278 20.504, 195.556 18.811, 192.526 17.648 C 189.931 16.653, 162.271 15.041, 130 14.005 C 97.035 12.946, 84.830 12.942, 67 13.984 M 71.775 16.591 C 70.628 18.522, 73.132 22.128, 77.580 24.948 C 80.133 26.568, 88.744 30.020, 96.714 32.621 C 111.005 37.284, 115.029 39.371, 113.219 41.181 C 112.108 42.292, 97.064 43.947, 87.500 44.012 L 80.500 44.059 89.603 47.904 C 94.609 50.019, 101.205 53.349, 104.260 55.303 L 109.814 58.856 113.922 52.504 C 118.500 45.425, 123.446 40.747, 125.858 41.211 C 129.940 41.997, 131.003 52.669, 129.024 73 C 127.037 93.406, 126.025 112.361, 126.642 117.608 C 127.188 122.257, 127.973 123.866, 131.736 128.052 C 140.422 137.712, 143.424 133.783, 145.001 110.689 C 145.534 102.885, 145.977 84.488, 145.985 69.807 C 145.999 44.445, 146.105 42.936, 148.114 39.531 C 150.850 34.895, 153.139 33.651, 155.612 35.457 C 157.747 37.017, 157.835 41.380, 156.913 99.813 L 156.434 130.126 152.467 131.909 C 138.705 138.091, 133.643 152.154, 140.563 164.983 C 144.738 172.724, 150.661 177, 157.210 177 C 163.272 177, 167.614 174.615, 171.312 169.254 C 174.818 164.171, 178.978 154.875, 179.070 151.916 C 179.112 150.587, 178.826 128.125, 178.435 102 C 177.937 68.726, 178.081 49.299, 178.914 37.135 C 179.568 27.584, 179.928 19.595, 179.714 19.381 C 178.014 17.681, 72.744 14.959, 71.775 16.591 M 56.558 17.901 C 55.083 18.478, 56.213 19.062, 61.264 20.330 C 69.542 22.410, 69 22.468, 69 19.500 C 69 17.142, 68.702 17.004, 63.750 17.070 C 60.862 17.109, 57.626 17.483, 56.558 17.901 M 71.164 51.348 C 70.497 65.731, 69.383 81.183, 68.689 85.685 L 67.425 93.870 71.722 94.952 C 74.085 95.547, 78.546 97.151, 81.634 98.517 C 84.722 99.883, 87.439 101, 87.670 101 C 87.902 101, 89.162 98.691, 90.469 95.869 L 92.846 90.739 85.173 85.310 C 76.303 79.035, 73 75.680, 73 72.944 C 73 70.595, 71.814 70.801, 87 70.514 C 101.264 70.244, 104.232 69.385, 106.578 64.849 C 108.234 61.646, 108.223 61.589, 105.458 59.384 C 101.880 56.532, 90.666 51.084, 80.761 47.388 C 76.504 45.800, 73.017 43.996, 73.011 43.381 C 72.996 41.855, 78.746 41.026, 89.500 41.002 C 94.450 40.991, 100.934 40.690, 103.909 40.333 L 109.319 39.684 96.022 35.360 C 88.709 32.982, 80.398 29.722, 77.551 28.116 L 72.377 25.196 71.164 51.348 M 151.341 39.602 C 148.808 43.468, 148.158 52.641, 148.051 86 C 147.959 114.872, 147.089 126.110, 144.553 131.194 C 143.102 134.103, 143.918 135.008, 145.872 132.654 C 146.486 131.914, 148.679 130.544, 150.744 129.610 L 154.500 127.911 154.500 83.045 C 154.500 58.369, 154.198 37.875, 153.830 37.503 C 153.461 37.131, 152.341 38.076, 151.341 39.602 M 99.749 72.584 C 99.427 72.906, 93.952 73.179, 87.582 73.192 C 81.212 73.205, 76 73.587, 76 74.041 C 76 75.517, 93.658 88.728, 94.453 87.846 C 95.030 87.207, 102 73.056, 102 72.525 C 102 71.817, 100.476 71.857, 99.749 72.584 M 93.124 96.682 C 91.905 99.190, 91.137 101.470, 91.416 101.749 C 92.261 102.595, 107.306 105.984, 110.250 105.992 C 111.763 105.996, 113 105.599, 113 105.109 C 113 104.619, 109.026 101.497, 104.170 98.170 L 95.339 92.122 93.124 96.682 M 66.511 98.250 C 66.277 98.938, 65.364 102.425, 64.483 106 C 63.601 109.575, 60.926 116.550, 58.538 121.500 C 53.952 131.006, 48.572 136.944, 35.417 147.022 C 32.171 149.510, 28.554 153.335, 27.380 155.522 C 25.439 159.142, 23.353 169, 24.529 169 C 24.798 169, 29.547 165.393, 35.082 160.984 C 54.967 145.142, 58.874 145.455, 54 162.500 C 51.482 171.304, 51.430 176.174, 53.829 178.345 C 55.985 180.297, 62.988 180.536, 69.557 178.881 L 74 177.763 74 170.593 C 74 165.125, 74.534 162.383, 76.250 159.036 C 80.667 150.421, 88.364 149.156, 103.962 154.479 C 108.066 155.879, 111.755 156.907, 112.160 156.763 C 112.859 156.513, 108.593 151.182, 97.515 138.459 L 92.529 132.734 95.980 130.117 C 97.878 128.678, 100.797 126.242, 102.466 124.705 L 105.500 121.911 92.894 122.567 C 78.619 123.311, 76 122.632, 76 118.187 C 76 115.163, 77.737 112.171, 82.349 107.248 C 84.272 105.196, 85.046 103.646, 84.447 103.047 C 83.235 101.835, 70.442 97, 68.446 97 C 67.616 97, 66.745 97.563, 66.511 98.250" stroke="none" fill="black" fill-rule="evenodd"/>
</svg>