<svg xmlns="http://www.w3.org/2000/svg" width="200" height="200" viewBox="0 0 200 200" version="1.1">
	<path d="M 99 15.441 C 99 16.234, 99.450 17.160, 100 17.500 C 101.996 18.733, 100.906 19.870, 96.250 21.413 C 82.119 26.093, 35.795 29.120, 18.750 26.476 C 16.871 26.185, 16 26.488, 16 27.432 C 16 28.321, 20.195 30.131, 27.750 32.502 C 41.024 36.667, 49 39.870, 49 41.035 C 49 41.469, 45.063 43.461, 40.250 45.461 C 29.729 49.835, 22.982 54.559, 19.290 60.138 C 15.497 65.870, 14.985 75.040, 17.895 85.159 C 19.056 89.197, 20.886 96.667, 21.961 101.761 C 23.036 106.854, 24.814 113.052, 25.912 115.534 L 27.908 120.046 22.972 123.273 C 16.872 127.261, 16.343 129.560, 21.750 128.585 C 30.375 127.030, 40.947 126.736, 43.922 127.968 C 51.217 130.989, 48.862 139.791, 35.618 159 C 25.718 173.359, 22.053 179.472, 21.763 182.109 C 21.540 184.133, 21.989 184.547, 24.686 184.809 C 29.670 185.291, 33.469 182.611, 39.652 174.250 C 51.872 157.727, 59.730 151, 66.813 151 C 71.249 151, 71.515 151.194, 82.413 162.372 C 94.925 175.206, 97.261 176.442, 107.841 175.830 C 112.598 175.555, 116.370 174.566, 121.048 172.370 L 127.596 169.294 132.548 173.620 C 148.966 187.959, 164.212 188.196, 173.057 174.249 C 181.700 160.620, 183.274 149.843, 182.437 110 C 181.800 79.632, 182.608 56.244, 185.028 35 C 186.529 21.824, 186.956 20, 188.545 20 C 190.384 20, 190.390 18.911, 188.567 16.441 C 187.493 14.985, 186.846 14.785, 185.978 15.639 C 181.896 19.660, 177.477 90.592, 179.726 116 C 182.227 144.263, 176.289 170.338, 165.474 178.588 C 159.892 182.846, 153.516 183.029, 145.733 179.157 C 137.724 175.172, 129.307 168.061, 131.173 166.857 C 132.272 166.147, 132.273 165.853, 131.179 165.147 C 130.326 164.596, 131.848 164.089, 135.476 163.715 C 146.594 162.567, 154.579 154.969, 157.114 143.125 C 158.617 136.106, 158.754 122.615, 157.605 94.990 C 156.830 76.360, 156.948 71.907, 158.486 61.732 C 162.801 33.187, 156.979 21.683, 139.069 23.363 C 135.456 23.702, 124.175 26.243, 114 29.009 C 103.825 31.776, 91.369 34.568, 86.320 35.213 L 77.140 36.387 76.083 40.583 C 73.795 49.671, 78.204 54.010, 89.700 53.985 C 97.218 53.969, 102.792 52.821, 123.500 47.023 C 131.200 44.868, 139.125 42.817, 141.111 42.467 L 144.723 41.829 145.375 57.165 C 147.751 113.024, 147.389 123.059, 142.691 131.521 C 139.988 136.390, 134.693 139.289, 130.158 138.382 L 127 137.750 127 118.429 C 127 89, 124.515 65.315, 121.318 64.266 C 118.494 63.340, 116.689 72.172, 115.077 94.802 C 114.181 107.377, 114.242 108.296, 116.194 111.604 C 117.330 113.529, 118.307 116.926, 118.365 119.152 C 118.547 126.094, 114.037 128.294, 96 130.062 C 83.117 131.324, 80 132.404, 80 135.607 C 80 139.026, 88.019 144.926, 106.197 154.880 C 121.126 163.056, 125 165.559, 125 167.032 C 125 168.085, 116.088 171.748, 110.450 173.011 C 106.867 173.814, 104.261 173.794, 100.544 172.936 C 96.016 171.891, 94.426 170.672, 85 161.017 C 79.225 155.101, 73.517 149.753, 72.316 149.131 C 68.433 147.121, 62.718 147.793, 57.946 150.821 C 52.553 154.244, 42.629 164.909, 36.793 173.556 C 33.701 178.138, 31.446 180.348, 28.730 181.458 C 26.656 182.306, 24.744 183, 24.480 183 C 23.090 183, 24.984 179.745, 35.354 164.304 C 45.871 148.644, 51 138.713, 51 134.010 C 51 126.850, 45.092 123.502, 33.823 124.275 C 29.520 124.570, 26 124.693, 26 124.550 C 26 123.718, 41.676 116.639, 46.161 115.445 C 51.515 114.020, 67.453 113.469, 70.418 114.607 C 71.431 114.995, 72 116.435, 72 118.607 C 72 122.861, 74.279 123.154, 75.952 119.116 L 77.147 116.231 84.637 119.116 C 94.945 123.085, 96.056 122.994, 95.187 118.250 C 94.392 113.908, 94.264 84.520, 95 75.097 C 95.335 70.801, 95.126 68.564, 94.363 68.301 C 93.685 68.067, 89.571 77.113, 84.175 90.704 L 75.124 113.500 75.026 99 C 74.973 91.025, 74.532 80.060, 74.047 74.633 C 72.482 57.113, 69.751 58.972, 63.489 81.821 C 58.740 99.146, 56.448 104.848, 54.868 103.268 C 53.084 101.484, 50.026 83.565, 50.013 74.815 C 50.006 70.038, 49.516 64.863, 48.925 63.315 C 47.913 60.664, 47.772 60.607, 46.498 62.342 C 45.753 63.355, 44.846 66.055, 44.480 68.342 C 42.286 82.068, 36.793 107.479, 34.963 112.370 C 31.195 122.440, 28.321 118.499, 23.489 96.634 C 22.135 90.510, 20.297 82.815, 19.404 79.532 C 18.061 74.599, 17.979 72.671, 18.932 68.413 C 20.814 60.003, 25.215 55.855, 39.638 48.894 C 47.166 45.262, 52 42.352, 52 41.455 C 52 38.961, 48.363 36.637, 39.244 33.303 L 30.500 30.107 42.828 30.053 C 58.608 29.985, 76.963 28.365, 88.828 25.993 C 101.837 23.392, 106.251 20.145, 102.466 15.963 C 100.367 13.643, 99 13.437, 99 15.441 M 134 26.704 C 132.625 26.941, 124.300 29.110, 115.500 31.524 C 101.405 35.390, 94.515 36.861, 82.288 38.616 C 79.569 39.006, 78.980 39.591, 78.447 42.433 C 76.628 52.128, 86.540 53.968, 109 48.104 C 113.125 47.027, 122.314 44.538, 129.420 42.573 C 136.527 40.608, 143.781 39, 145.541 39 L 148.742 39 147.905 43.480 C 147.393 46.221, 147.629 55.824, 148.513 68.230 C 150.234 92.370, 150.399 113.047, 148.939 121.418 C 146.771 133.845, 140.786 141.014, 132.602 140.986 C 123.937 140.958, 124.517 142.492, 124.365 119.197 C 124.229 98.303, 122.549 73.803, 121.070 71.161 C 120.593 70.307, 119.822 74.334, 119.165 81.114 C 116.768 105.847, 116.765 106.262, 118.937 111.050 C 121.600 116.919, 121.614 122.964, 118.971 125.801 C 114.774 130.306, 109.394 131.779, 90.761 133.525 C 87.054 133.873, 83.747 134.600, 83.413 135.141 C 81.970 137.475, 90.561 143.448, 112 155.019 C 122.907 160.906, 123.861 161.229, 130.500 161.276 C 146.130 161.386, 153.468 153.665, 155.594 134.872 C 155.977 131.491, 155.699 117.112, 154.977 102.919 C 153.896 81.667, 153.895 75.471, 154.970 67.806 C 155.689 62.688, 156.479 53.930, 156.727 48.344 C 157.287 35.698, 155.284 29.852, 149.573 27.466 C 146.254 26.079, 139.530 25.750, 134 26.704 M 68.777 73 C 67.875 76.025, 66.410 81.425, 65.521 85 C 60.244 106.220, 55.480 112.181, 51.470 102.583 C 49.879 98.774, 47.071 82.759, 46.897 76.500 L 46.786 72.500 45.852 77 C 45.339 79.475, 43.797 87.224, 42.426 94.219 C 41.055 101.215, 39.275 108.804, 38.470 111.085 C 37.019 115.199, 37.025 115.226, 39.254 114.587 C 50.864 111.259, 53.994 110.805, 62.705 111.186 L 72 111.592 71.912 94.546 C 71.864 85.171, 71.508 75.250, 71.121 72.500 L 70.417 67.500 68.777 73 M 84.842 96.750 C 81.208 105.963, 78.294 113.574, 78.367 113.665 C 78.440 113.756, 81.425 114.931, 85 116.277 L 91.500 118.723 91.500 99.362 C 91.500 88.714, 91.488 80.001, 91.474 80.001 C 91.460 80, 88.476 87.537, 84.842 96.750" stroke="none" fill="black" fill-rule="evenodd"/>
</svg>