<svg xmlns="http://www.w3.org/2000/svg" width="200" height="200" viewBox="0 0 200 200" version="1.1">
	<path d="M 105.500 18.591 C 100.094 19.353, 94.533 21.168, 92.750 22.754 C 90.730 24.550, 90.456 28.056, 92.200 29.800 C 93.133 30.733, 90.967 30.997, 82.450 30.985 C 76.427 30.976, 71.050 30.639, 70.500 30.235 C 69.950 29.831, 68.748 28.150, 67.829 26.500 C 66.910 24.850, 64.210 22.489, 61.829 21.253 C 55.745 18.096, 51.208 19.442, 44.394 26.426 C 33.050 38.055, 22.054 65.384, 22.015 82.050 C 21.999 89.074, 22.999 91, 26.661 91 C 32.131 91, 32.259 109.976, 26.959 135 C 19.711 169.217, 18.619 175.868, 19.817 178.498 C 21.756 182.753, 24.709 181.651, 32.545 173.750 C 38.994 167.248, 40.009 165.674, 42.385 158.500 C 45.348 149.549, 48.655 143.218, 51.191 141.638 C 54.001 139.888, 56.659 143.389, 64.105 158.646 C 74.294 179.523, 79.400 183.110, 87.221 174.888 L 91.133 170.776 93.316 172.783 C 99.380 178.356, 106.467 180.426, 111.062 177.967 C 113.724 176.542, 116.586 170.584, 118.026 163.468 C 118.690 160.186, 119.388 147.207, 119.577 134.627 C 119.850 116.415, 120.223 111.320, 121.407 109.627 C 122.857 107.555, 122.897 107.552, 122.973 109.500 C 123.611 125.806, 126.864 139.243, 130.513 140.643 C 135.027 142.376, 140.078 135.986, 144.543 122.894 C 148.359 111.703, 150.118 99.941, 149.873 87.256 C 149.753 81.071, 149.921 75.746, 150.245 75.422 C 151.614 74.053, 152.497 88.063, 152.456 110.500 C 152.422 129.229, 152.027 136.443, 150.656 143.347 C 147.356 159.968, 142.374 169.250, 136.753 169.250 C 131.775 169.250, 132.777 171.847, 139.725 176.949 C 155.258 188.355, 165.950 186.992, 172.962 172.712 C 174.640 169.295, 176.722 163.350, 177.588 159.500 C 179.619 150.474, 180.575 116.749, 179.154 104.256 L 178.102 95.012 183.025 83.540 C 194.021 57.914, 197.640 44.152, 194.603 39.518 C 191.595 34.926, 186.129 36.912, 174.250 46.911 L 167 53.014 167 47.823 C 167 34.776, 156.850 25.800, 136.636 20.972 C 128.679 19.072, 111.446 17.754, 105.500 18.591 M 101 22.346 C 98.525 22.981, 95.600 24.038, 94.500 24.697 C 92.516 25.884, 92.517 25.910, 94.706 28.124 C 96.840 30.284, 97.598 30.361, 118.206 30.503 C 142.113 30.669, 147.547 31.701, 152.946 37.100 C 158.301 42.455, 156.766 51.672, 148.785 62.080 C 145.305 66.618, 145.288 66.689, 146.921 69.848 L 148.570 73.036 155.690 65.073 C 161.386 58.704, 163.018 56.141, 163.849 52.270 C 165.049 46.673, 164.064 40.926, 161.244 37.077 C 158.629 33.507, 151.039 28.533, 144.443 26.065 C 132.319 21.529, 111.228 19.723, 101 22.346 M 52.500 23.424 C 44.820 26.870, 35.435 41.401, 29.657 58.795 C 23.317 77.880, 22.589 90.896, 28.025 87.986 C 33.879 84.854, 35.266 107.108, 30.676 130.500 C 29.272 137.650, 26.748 150.025, 25.066 158 C 20.277 180.707, 20.993 182.352, 31.062 171.771 C 35.712 166.884, 37.452 164.136, 39.135 159.021 C 41.744 151.089, 46.270 141.851, 48.421 140.065 C 50.679 138.191, 54.723 138.440, 57.108 140.598 C 58.231 141.614, 62.284 148.782, 66.115 156.526 C 73.652 171.764, 76.771 176, 80.452 176 C 82.653 176, 86.538 172.435, 88.861 168.283 C 89.638 166.896, 90.405 167.198, 94.376 170.452 C 99.661 174.783, 105.483 177.107, 108.456 176.072 C 114.337 174.025, 117.311 157.956, 116.796 131 L 116.500 115.500 105.841 129.722 C 95.825 143.087, 95.213 144.172, 95.692 147.741 C 96.166 151.272, 95.847 151.869, 91.144 156.269 C 88.362 158.871, 85.643 161, 85.102 161 C 82.026 161, 83.363 156.767, 89.077 148.412 L 91.873 144.324 91.281 122.162 C 90.956 109.973, 90.488 100, 90.242 100 C 89.995 100, 84.328 103.087, 77.647 106.859 C 62.875 115.201, 56.650 118, 52.873 118 C 46.128 118, 50.316 111.071, 68.420 92.279 L 80.915 79.310 77.707 76.306 C 70.619 69.667, 65.863 68.283, 62.586 71.905 C 60.568 74.134, 58 82.096, 58 86.120 C 58 88.646, 54.777 93, 52.908 93 C 51.546 93, 50.769 72.673, 51.897 66.582 C 53.468 58.106, 55.053 56.694, 62.082 57.510 C 68.742 58.283, 68.749 58.274, 69.662 47.468 L 70.274 40.231 78.887 37.665 C 83.624 36.254, 88.400 34.904, 89.500 34.665 C 90.600 34.427, 87.405 34.180, 82.399 34.116 C 71.131 33.972, 67.479 32.812, 66.132 28.949 C 65.110 26.016, 59.770 21.978, 57 22.043 C 56.175 22.062, 54.150 22.684, 52.500 23.424 M 110.752 34.880 C 117.200 37.107, 119.524 39.135, 122.616 45.232 C 126.213 52.326, 127.322 62.915, 126.520 82.500 C 126.136 91.850, 126.033 99.275, 126.290 99 C 126.547 98.725, 131.086 93.338, 136.376 87.029 C 146.436 75.032, 146.492 74.891, 143.491 69.048 C 142.340 66.805, 142.651 65.999, 147.122 59.632 C 160.812 40.139, 153.408 33.013, 119.500 33.050 L 105.500 33.065 110.752 34.880 M 90 37.526 C 86.425 38.261, 81.025 39.723, 78 40.773 L 72.500 42.683 71.889 49.591 C 70.925 60.483, 69.795 61.692, 61.706 60.479 C 55.284 59.516, 54.658 60.776, 54.324 75.342 L 54.044 87.500 55.915 80.738 C 58.101 72.834, 60.164 69.338, 63.550 67.795 C 67.148 66.156, 72.791 68.184, 78.419 73.138 L 83.127 77.282 86.949 73.550 C 89.050 71.498, 90.998 70.197, 91.277 70.659 C 92.537 72.748, 96 85.495, 96 88.046 C 96 92.791, 94.063 92.493, 88.341 86.869 L 82.877 81.500 70.559 94.090 C 58.969 105.934, 52.091 114.425, 53.193 115.526 C 53.845 116.178, 73.414 106.397, 84 100.128 L 92.500 95.095 93.192 98.797 C 93.573 100.834, 93.956 109.700, 94.042 118.500 C 94.129 127.300, 94.496 135.557, 94.859 136.849 C 95.482 139.066, 95.714 138.925, 98.979 134.349 C 100.883 131.682, 105.716 125.262, 109.720 120.083 L 117 110.665 117.109 101.083 C 117.168 95.812, 117.509 88.800, 117.866 85.500 C 118.689 77.892, 117.582 70.263, 115.184 67.021 C 111.813 62.462, 108.471 61.500, 96 61.500 L 84.500 61.500 84.178 58.689 C 83.900 56.268, 85.279 54.499, 94.112 45.939 L 104.369 36 100.435 36.094 C 98.271 36.146, 93.575 36.790, 90 37.526 M 98.394 45.475 C 93.386 50.115, 88.493 55.125, 87.520 56.610 L 85.752 59.308 93.762 58.640 C 108.385 57.421, 116.197 60.713, 119.557 69.511 C 120.996 73.278, 121.153 76.015, 120.575 87.233 C 120.200 94.530, 119.640 102.075, 119.332 104 L 118.773 107.500 120.893 105.466 C 122.867 103.572, 123.056 102.057, 123.648 83.466 C 124.351 61.368, 123.383 52.102, 119.682 45.504 C 117.381 41.401, 111.875 36.986, 109.102 37.019 C 108.221 37.030, 103.402 40.835, 98.394 45.475 M 183.557 43.064 C 177.208 47.093, 163.731 60.819, 158.200 68.890 L 153.899 75.165 155.083 87.332 C 156.526 102.164, 155.743 129.986, 153.536 142.347 C 150.634 158.594, 146.756 167.353, 140.882 170.926 L 138.040 172.654 141.078 174.900 C 145.788 178.382, 154.172 181.979, 157.602 181.990 C 164.726 182.013, 171.008 174.020, 174.493 160.500 C 176.899 151.165, 178.041 128.995, 176.951 112.779 C 176.425 104.957, 175.760 97.818, 175.472 96.913 C 175.185 96.009, 177.379 89.696, 180.348 82.884 C 188.201 64.866, 192.264 52.422, 192.391 46 C 192.486 41.218, 192.239 40.463, 190.500 40.214 C 189.400 40.057, 186.276 41.340, 183.557 43.064 M 87.335 77.173 L 85.176 79.500 89.236 84 L 93.296 88.500 92.751 84.994 C 92.451 83.066, 91.595 79.994, 90.850 78.167 L 89.494 74.845 87.335 77.173 M 136.175 91.282 L 125.851 103.500 126.404 115 C 126.709 121.325, 127.667 128.886, 128.533 131.802 C 131.130 140.541, 134.066 139.921, 138.886 129.617 C 144.605 117.391, 148.795 94.319, 147.210 83.782 L 146.500 79.064 136.175 91.282 M 90.140 151.790 L 87.779 155.500 90.509 152.858 C 92.010 151.405, 93.072 149.735, 92.869 149.148 C 92.666 148.561, 91.438 149.750, 90.140 151.790" stroke="none" fill="black" fill-rule="evenodd"/>
</svg>