<svg xmlns="http://www.w3.org/2000/svg" width="200" height="200" viewBox="0 0 200 200" version="1.1">
	<path d="M 58.500 15.540 C 44.153 16.986, 26.155 19.568, 21.500 20.848 C 18.547 21.660, 18.501 21.776, 18.572 28.195 C 18.629 33.369, 19.194 35.656, 21.306 39.260 C 26.283 47.752, 36.134 54.677, 46.562 57.014 C 59.733 59.966, 65.213 52.297, 58.104 40.860 L 55.015 35.890 61.057 39.111 C 64.381 40.883, 68.036 43.646, 69.180 45.253 L 71.260 48.174 66.267 53.337 C 62.764 56.959, 60.762 60.122, 59.556 63.936 C 57.111 71.672, 52.030 81.397, 41.969 97.604 C 22.790 128.495, 18.968 139.104, 24.361 146.479 C 26.555 149.480, 28.072 147.452, 26.297 143.893 C 22.891 137.065, 26.499 127.806, 42.872 101.363 C 54.139 83.167, 59.935 72.109, 62.516 63.889 C 63.750 59.959, 65.284 57.476, 67.639 55.597 C 72.859 51.431, 72.026 54.632, 64.106 69.164 C 56.583 82.968, 52.725 91.883, 50.958 99.545 C 50.280 102.485, 49.727 115.889, 49.598 132.500 C 49.327 167.313, 47.277 179.421, 41.263 181.729 C 39.049 182.579, 34.190 176.792, 29.956 168.266 C 25.839 159.976, 26.178 160.422, 24.940 161.660 C 24.237 162.363, 25.039 164.848, 27.479 169.528 C 34.447 182.897, 38.781 186.684, 43.543 183.564 C 50.097 179.270, 52.273 166.714, 52.478 132 C 52.591 112.789, 53.054 102.691, 54.014 98.500 C 54.798 95.076, 59.383 84.618, 64.694 74.143 C 70.830 62.040, 74 54.666, 74 52.497 C 74 49.993, 74.831 48.477, 77.481 46.150 L 80.963 43.094 86.547 45.563 C 105.500 53.945, 109.638 58.273, 103.131 62.907 C 98.943 65.889, 95.846 66.934, 82.500 69.871 C 75.900 71.323, 70.500 72.959, 70.500 73.506 C 70.500 74.061, 74.131 74.628, 78.717 74.790 L 86.934 75.080 86.406 77.790 C 86.116 79.280, 86.276 83.775, 86.762 87.778 L 87.645 95.056 82.497 98.002 C 76.948 101.176, 72 105.338, 72 106.830 C 72 108.735, 74.748 109.848, 83.448 111.470 C 97.810 114.148, 103.725 117.608, 106.066 124.700 C 107.348 128.583, 106.394 137.912, 104.646 138.581 C 104.016 138.823, 95.957 139.353, 86.737 139.760 C 77.013 140.189, 69.875 140.920, 69.737 141.500 C 69.607 142.050, 71.525 142.611, 74 142.746 C 96.656 143.983, 108.922 153.578, 106.579 168.229 C 105.991 171.908, 106.327 172.957, 109.621 177.740 C 113.141 182.851, 117.218 186, 120.314 186 C 122.021 186, 126.145 182.020, 127.753 178.820 C 128.395 177.544, 131.359 171.261, 134.339 164.858 C 142.975 146.309, 150.441 140.043, 162.433 141.281 C 165.412 141.588, 169.844 142.722, 172.280 143.800 L 176.711 145.760 178.355 142.976 C 179.260 141.444, 180 138.550, 180 136.545 C 180 133.277, 179.611 132.735, 176.250 131.327 C 173.342 130.109, 170.593 129.900, 164 130.397 C 137.588 132.387, 134 132.395, 134 130.464 C 134 129.464, 137.263 125.417, 141.250 121.472 L 148.500 114.300 160 112.095 C 174.206 109.372, 178.213 108.142, 177.721 106.655 C 177.461 105.871, 172.012 105.339, 160.750 105 C 151.626 104.725, 143.828 104.165, 143.420 103.756 C 142.223 102.555, 145.624 99.518, 150.969 97.014 L 155.937 94.688 150.053 88.397 C 143.858 81.775, 141.973 78.253, 143.966 77.021 C 144.615 76.620, 149.371 76.015, 154.535 75.675 C 169.898 74.666, 174.853 71.239, 173.649 62.456 C 173.160 58.889, 170.981 52.969, 169.514 51.225 C 169.387 51.074, 167.082 51.893, 164.392 53.047 C 157.163 56.146, 140.049 62, 138.216 62 C 135.968 62, 140.199 57.728, 153.268 46.803 C 163.990 37.840, 166.639 34.843, 165.487 32.979 C 164.501 31.384, 162.680 31.824, 156.575 35.131 C 149.946 38.721, 144.134 39.336, 141.277 36.751 C 140.237 35.810, 137.466 31.200, 135.119 26.507 C 129.985 16.242, 127.414 14.413, 119.584 15.453 C 112.261 16.426, 111.094 16.401, 105.114 15.138 C 98.163 13.670, 75.084 13.869, 58.500 15.540 M 54.527 18.677 C 46.841 19.467, 40.372 20.294, 40.151 20.516 C 39.225 21.442, 51.641 31.639, 55.629 33.226 C 61.375 35.514, 66.841 39.075, 70.400 42.848 L 73.300 45.923 76.126 43.910 C 78.578 42.164, 78.791 41.638, 77.734 39.945 C 75.909 37.023, 77.865 34.768, 83.597 33.184 C 89.584 31.529, 90.720 30.927, 100.947 24 C 108.737 18.724, 108.954 18.474, 106.284 17.868 C 101.189 16.712, 68.696 17.220, 54.527 18.677 M 118.750 17.716 C 116.315 18.085, 116 18.561, 116 21.870 C 116 24.791, 115.274 26.312, 112.677 28.829 C 109.692 31.722, 108.456 32.152, 100.537 33.051 C 93.042 33.903, 91.142 34.512, 87.860 37.111 C 85.737 38.792, 84 40.335, 84 40.540 C 84 40.745, 88.491 43.219, 93.981 46.039 C 108.731 53.616, 111.944 58.448, 105.952 64.045 C 102.901 66.894, 93.876 70.853, 89.712 71.167 C 88.496 71.259, 94.700 71.657, 103.500 72.052 C 120.966 72.836, 127.931 74.388, 132.953 78.614 C 135.456 80.720, 136 81.926, 136 85.366 C 136 87.670, 135.391 90.443, 134.648 91.527 C 133.904 92.612, 132.984 95.506, 132.603 97.958 C 131.494 105.090, 128.531 110.829, 125.573 111.571 C 119.318 113.141, 114.119 108.729, 101.919 91.500 C 97.635 85.450, 93.088 79.381, 91.815 78.012 L 89.500 75.525 89.195 79.166 C 89.028 81.169, 89.293 85.813, 89.785 89.486 C 90.617 95.689, 90.532 96.256, 88.590 97.462 C 72.415 107.507, 72.580 106.975, 85 108.987 C 104.789 112.192, 112.216 121.207, 108.588 137.621 C 107.967 140.430, 107.438 140.805, 103.309 141.371 C 100.786 141.717, 96.871 142.016, 94.610 142.037 L 90.500 142.073 95.667 144.574 C 105.656 149.408, 110.853 158.166, 109.512 167.910 C 108.928 172.162, 109.174 172.941, 112.476 177.265 C 115.998 181.877, 119.726 183.906, 122.045 182.472 C 122.683 182.078, 126.468 174.948, 130.457 166.628 C 138.795 149.236, 143.350 143.386, 151.177 140.019 C 155.443 138.184, 157.514 137.873, 162.208 138.364 C 165.387 138.696, 169.645 139.661, 171.671 140.507 C 175.709 142.194, 176.533 141.817, 177.517 137.832 C 178.567 133.579, 175.540 132.611, 163.565 133.369 C 134.085 135.235, 134.561 135.229, 132.603 133.747 C 129.698 131.549, 131.254 127.634, 137.732 120.842 C 145.076 113.143, 147.966 111.495, 157 109.859 L 164.500 108.500 154.443 107.888 C 148.911 107.552, 143.398 106.748, 142.193 106.103 C 137.961 103.838, 140.357 99.328, 147.788 95.571 L 151.077 93.909 146.675 88.704 C 136.259 76.391, 137.850 73.778, 156.467 72.623 C 169.672 71.804, 172.944 68.433, 170.018 58.665 C 168.646 54.085, 169.262 54.035, 153.543 60.003 C 141.117 64.720, 134.797 65.585, 134.195 62.651 C 133.712 60.300, 136.803 57.059, 150.250 45.818 C 156.162 40.875, 161 36.665, 161 36.462 C 161 36.258, 158.637 37.192, 155.750 38.536 C 149.260 41.558, 143.198 41.730, 139.717 38.992 C 138.313 37.888, 135.329 33.140, 133.086 28.443 C 129.658 21.262, 128.455 19.670, 125.536 18.451 C 123.627 17.653, 121.937 17.067, 121.782 17.150 C 121.627 17.232, 120.263 17.487, 118.750 17.716 M 106.447 23.554 C 103.176 25.512, 99.723 27.879, 98.772 28.813 C 97.143 30.414, 97.315 30.493, 101.772 30.203 C 107.793 29.811, 110.221 28.589, 112.440 24.831 C 115.274 20.035, 113.099 19.571, 106.447 23.554 M 33.500 23.953 L 29.500 24.500 36.819 26.655 C 43.999 28.769, 44.104 28.772, 42.330 26.813 C 39.693 23.898, 37.974 23.342, 33.500 23.953 M 21.022 28.817 C 21.034 30.843, 21.881 34.300, 22.905 36.500 C 28.463 48.445, 49.829 59.008, 56.882 53.296 C 60.073 50.712, 59.158 46.793, 53.599 39.242 C 48.988 32.979, 48.564 32.773, 29.250 27.420 L 21 25.134 21.022 28.817 M 80.459 37.067 C 79.293 38.953, 80.802 39.252, 83.158 37.602 L 85.445 36 83.282 36 C 82.092 36, 80.821 36.480, 80.459 37.067 M 97.790 81.329 C 100.381 84.810, 105.197 91.396, 108.493 95.964 C 116.985 107.732, 122.473 111.527, 125.958 108.042 C 127.855 106.145, 129.984 100.161, 129.994 96.695 C 129.997 95.702, 130.942 92.823, 132.093 90.296 C 133.732 86.698, 133.959 85.204, 133.138 83.404 C 130.604 77.842, 120.963 75.039, 104.290 75.016 L 93.080 75 97.790 81.329" stroke="none" fill="black" fill-rule="evenodd"/>
</svg>