<svg xmlns="http://www.w3.org/2000/svg" width="200" height="200" viewBox="0 0 200 200" version="1.1">
	<path d="M 157.527 15.146 C 153.692 15.638, 144.917 17.216, 138.027 18.654 C 119.785 22.460, 120.045 22.433, 118.699 20.690 C 116.025 17.229, 111.382 18.193, 102.800 23.991 L 95.412 28.982 71.956 29.397 C 48.582 29.812, 30.202 31.758, 27.356 34.120 C 23.288 37.495, 27.816 38.837, 47.384 40.056 C 65.954 41.213, 70.259 41.773, 69.540 42.935 C 69.257 43.394, 67.103 44.057, 64.755 44.409 C 59.502 45.197, 51.531 48.819, 47.430 52.282 C 44.352 54.882, 41.718 59.894, 40.485 65.500 L 39.826 68.500 38.450 64.500 C 35.865 56.980, 30.163 55.052, 22.485 59.102 C 20.293 60.259, 18.135 61.546, 17.689 61.964 C 17.242 62.381, 21.292 64.304, 26.689 66.237 L 36.500 69.750 36.798 75.894 L 37.096 82.037 31.798 78.657 C 27.094 75.657, 18.567 70.997, 17.790 71.002 C 17.630 71.003, 17.503 90.015, 17.507 113.252 C 17.514 151.684, 17.682 155.994, 19.362 160.972 C 21.636 167.707, 27.058 173.400, 32.627 174.899 C 40.597 177.046, 54.553 172.446, 71.268 162.163 C 74.990 159.873, 78.310 158, 78.646 158 C 78.982 158, 82.350 160.918, 86.130 164.484 C 94.028 171.934, 101.194 175.944, 107.019 176.172 C 117.982 176.601, 123.481 163.650, 124.861 134.148 L 125.500 120.500 128.844 127 C 133.107 135.286, 136.562 139.843, 139.645 141.248 C 141.687 142.178, 142.421 142.023, 144.146 140.298 C 147.297 137.148, 148.870 128.330, 149.998 107.500 C 152.998 52.100, 153.636 46.537, 157.708 40.322 L 159.429 37.697 155.710 38.395 C 152.586 38.981, 125.239 40.867, 118.391 40.969 L 116.282 41 118.262 33.750 C 119.351 29.762, 120.693 26.214, 121.244 25.865 C 122.804 24.876, 133.397 23.876, 142.108 23.895 C 162.730 23.940, 165.815 31.728, 157.996 64 C 155.797 73.075, 153.494 84.402, 152.878 89.171 C 150.842 104.940, 154.649 116.822, 164.670 125.981 C 167.740 128.787, 170.082 131.219, 169.876 131.386 C 169.669 131.554, 166.575 133.646, 163 136.037 C 154.772 141.538, 145.874 150.366, 143.125 155.755 C 140.284 161.323, 140.268 168.800, 143.088 172.385 C 147.406 177.874, 155.332 179.918, 163.304 177.599 C 179.588 172.860, 187.352 156.115, 184.051 132.856 C 182.787 123.954, 181.854 121.354, 180.274 122.331 C 179.689 122.692, 179.871 125.532, 180.746 129.709 C 181.609 133.832, 182.019 140.110, 181.790 145.686 C 181.458 153.781, 181.002 155.682, 177.948 161.686 C 175.294 166.906, 173.368 169.247, 169.714 171.693 C 161.802 176.990, 152.829 177.252, 147.010 172.355 C 137.872 164.666, 146.308 150.007, 167.998 135.879 L 175.934 130.710 171.381 127.822 C 158.113 119.408, 153.116 106.312, 155.902 87.255 C 156.545 82.859, 158.854 71.891, 161.032 62.881 C 165.673 43.689, 166.119 35.763, 162.882 30.004 C 160.257 25.334, 154.715 22.120, 147.788 21.252 L 142.500 20.590 149 19.316 C 152.575 18.616, 160.450 17.750, 166.500 17.392 C 175.368 16.867, 178.228 17.047, 181.256 18.322 C 188.322 21.296, 188.234 24.752, 180.543 46.435 C 172.415 69.347, 171.144 82.997, 175.887 96.442 C 178.174 102.923, 179.296 104.553, 180.821 103.611 C 181.438 103.230, 181.111 101.536, 179.964 99.161 C 176.706 92.418, 175.715 86.362, 176.205 76.184 C 176.621 67.551, 177.360 64.463, 182.837 48.477 C 189.863 27.967, 190.559 22.468, 186.628 18.537 C 182.237 14.146, 173.383 13.115, 157.527 15.146 M 109.074 23.179 C 106.640 24.391, 105.065 25.513, 105.574 25.671 C 107.227 26.186, 116.119 23.496, 116.112 22.483 C 116.100 20.694, 113.558 20.945, 109.074 23.179 M 105.079 29.147 C 98.932 30.774, 96.730 31.960, 92.249 36.056 C 86.955 40.894, 86.695 41.003, 80.169 41.136 C 76.501 41.211, 74.400 41.438, 75.500 41.640 C 76.600 41.842, 85.556 41.668, 95.402 41.254 L 113.303 40.500 114.525 36.964 C 115.197 35.019, 116.065 31.982, 116.453 30.214 C 117.093 27.299, 116.942 27.008, 114.829 27.091 C 113.548 27.141, 109.161 28.066, 105.079 29.147 M 48.418 33.019 C 44.522 33.430, 38.897 34.112, 35.918 34.536 C 30.924 35.245, 30.728 35.368, 33.414 36.110 C 35.017 36.553, 42.892 37.184, 50.914 37.513 C 65.170 38.098, 65.704 38.045, 74.500 35.149 L 83.500 32.187 69.500 32.229 C 61.800 32.253, 52.313 32.608, 48.418 33.019 M 82.500 35.516 L 75.500 37.825 81.076 37.913 C 85.793 37.987, 87.013 37.615, 89 35.500 C 91.787 32.534, 91.541 32.534, 82.500 35.516 M 130 42.729 C 114.814 43.088, 112.547 43.780, 120.450 45.642 C 128.273 47.486, 134.289 51.113, 137.119 55.693 C 138.931 58.624, 139.397 60.780, 139.336 65.952 C 139.245 73.705, 136.569 80.902, 129.662 91.974 C 125.321 98.933, 125 99.909, 125 106.143 C 125 112.247, 125.478 113.791, 130.425 123.673 C 136.481 135.771, 140.035 140.046, 142.402 138.081 C 145.395 135.597, 146.401 126.216, 149.006 76.500 C 149.582 65.500, 150.717 53.350, 151.527 49.500 C 152.337 45.651, 153 42.388, 153 42.250 C 153 42.113, 150.637 42.097, 147.750 42.216 C 144.863 42.335, 136.875 42.566, 130 42.729 M 83.083 44.875 L 80.666 45.551 83.338 47.302 C 85.822 48.929, 86.390 48.942, 91.388 47.489 C 94.346 46.630, 100.306 45.553, 104.633 45.096 C 112.151 44.303, 111.901 44.265, 99 44.233 C 91.575 44.214, 84.412 44.503, 83.083 44.875 M 67.963 46.492 C 52.750 49.525, 45.377 55.144, 43.503 65.130 L 42.836 68.690 48.733 70.345 C 56.460 72.513, 56.550 72.500, 58.007 68.983 C 59.814 64.619, 68.754 56.859, 75.863 53.483 C 79.238 51.880, 81.997 50.328, 81.993 50.034 C 81.985 49.422, 75.602 44.952, 74.938 45.094 C 74.697 45.146, 71.558 45.775, 67.963 46.492 M 94.368 49.631 L 88.235 51.086 92.539 57.503 C 94.905 61.033, 97.418 65.514, 98.122 67.460 C 98.826 69.407, 99.697 71, 100.057 71 C 100.767 71, 110 50.531, 110 48.957 C 110 47.573, 101.497 47.940, 94.368 49.631 M 111.092 54.095 C 109.131 59.224, 108.945 60.478, 110.092 60.841 C 112.180 61.503, 118.527 68.377, 122.506 74.285 C 125.599 78.878, 126.003 80.221, 126.023 85.987 L 126.045 92.500 129.474 87 C 134.181 79.448, 137.389 69.142, 136.762 63.581 C 135.813 55.161, 128.910 49.350, 118.622 48.312 L 113.500 47.795 111.092 54.095 M 76 56.547 C 72.425 58.472, 68.375 61.186, 67 62.576 L 64.500 65.104 67.500 63.558 C 71.609 61.441, 75.564 61.610, 80.761 64.126 C 83.711 65.554, 85.697 67.393, 86.810 69.727 C 88.461 73.189, 88.456 73.211, 85.517 75.739 C 82.657 78.199, 82.251 78.259, 72.283 77.694 L 62 77.112 61.911 79.806 C 61.862 81.288, 61.872 84.750, 61.932 87.500 C 62.037 92.265, 61.965 92.406, 60.414 90.500 C 57.859 87.361, 56 82.376, 56 78.664 C 56 75.356, 55.834 75.217, 49.910 73.555 C 46.561 72.615, 43.654 72.013, 43.451 72.216 C 43.247 72.419, 43.796 75.492, 44.669 79.043 C 45.543 82.594, 46.312 86.452, 46.379 87.616 C 46.446 88.780, 48.021 91.255, 49.880 93.116 C 55.116 98.359, 58.802 104.731, 60.036 110.672 L 61.161 116.094 64.331 114.063 C 66.074 112.946, 71.602 109.462, 76.616 106.321 L 85.732 100.609 91.911 88.205 C 97.817 76.347, 98.037 75.640, 96.909 72.150 C 94.053 63.315, 87.169 52.982, 84.166 53.023 C 83.250 53.035, 79.575 54.621, 76 56.547 M 24.566 60.898 C 23.503 61.314, 23.053 61.898, 23.566 62.194 C 25.821 63.497, 35.183 66.150, 35.700 65.633 C 36.014 65.319, 35.525 63.923, 34.612 62.531 C 32.894 59.909, 28.794 59.242, 24.566 60.898 M 107.345 64.191 C 106.880 64.911, 106.450 79, 106.388 95.500 C 106.266 128.221, 105.396 135.582, 100.456 145.680 C 97.381 151.965, 93.365 155.555, 87.706 157.079 L 83.502 158.211 89.442 163.740 C 95.422 169.306, 103.695 173.972, 107.615 173.990 C 110.339 174.003, 114.631 170.615, 116.520 166.961 C 119.332 161.523, 120.976 151.431, 122.053 133 L 123.133 114.500 120.650 108.911 L 118.168 103.322 120.548 100.411 C 122.655 97.834, 122.932 96.467, 122.964 88.500 L 123 79.500 117.750 72.582 C 111.704 64.615, 108.658 62.159, 107.345 64.191 M 65.901 68.106 C 62.185 72.084, 62.239 73.598, 66.125 74.375 C 70.785 75.307, 82.292 75.101, 83.943 74.056 C 86.168 72.649, 83.864 68.638, 79.692 66.658 C 74.037 63.975, 69.295 64.472, 65.901 68.106 M 59.564 71.707 C 59.022 73.132, 59.136 73.247, 60.124 72.267 C 60.808 71.588, 61.115 70.781, 60.807 70.474 C 60.499 70.166, 59.940 70.721, 59.564 71.707 M 40.110 78.509 C 40.018 83.507, 40.337 84.729, 42 85.768 C 44.317 87.215, 44.367 87.083, 42.917 83.315 C 42.321 81.767, 41.470 78.700, 41.026 76.500 C 40.248 72.642, 40.215 72.713, 40.110 78.509 M 102.097 73.500 C 101.969 74.050, 101.671 82.375, 101.435 92 C 100.505 129.873, 100.476 130.267, 98.344 135 C 94.284 144.010, 87.256 149.952, 77.792 152.374 C 73.525 153.466, 73.067 153.780, 75.156 154.179 C 76.547 154.445, 80.198 154.626, 83.270 154.581 C 97.800 154.370, 104.204 138.650, 103.874 104 C 103.766 92.579, 102.543 71.585, 102.097 73.500 M 20.155 112.353 C 19.856 144.535, 20.036 150.479, 21.502 156.826 C 24.459 169.623, 31.121 174.437, 42.710 172.150 C 47.960 171.114, 67.700 162.027, 72.427 158.470 C 75.696 156.011, 73.233 155.520, 66.552 157.300 C 54.162 160.601, 46.531 159.208, 41.641 152.751 C 35.673 144.870, 34.257 130.336, 36.292 97.866 L 37.084 85.232 30.792 81.272 C 19.145 73.943, 20.550 69.839, 20.155 112.353 M 58.158 78 C 58.158 79.375, 58.385 79.938, 58.662 79.250 C 58.940 78.563, 58.940 77.438, 58.662 76.750 C 58.385 76.063, 58.158 76.625, 58.158 78 M 95.063 88.101 C 93.173 92.170, 91.442 95.857, 91.215 96.294 C 90.989 96.730, 91.973 96.794, 93.402 96.435 C 95.061 96.019, 96 96.195, 96 96.922 C 96 98.250, 78.691 124.576, 75.940 127.433 C 74.314 129.122, 74.001 129.167, 73.474 127.794 C 73.131 126.900, 75.060 121.859, 77.945 116.111 C 80.735 110.550, 82.776 106, 82.480 106 C 82.184 106, 77.400 108.947, 71.849 112.550 C 66.297 116.152, 61.028 118.959, 60.138 118.788 C 59.044 118.577, 58.301 116.940, 57.841 113.720 C 56.965 107.597, 54.032 101.647, 49.105 96 L 45.180 91.500 43.201 96.073 C 38.143 107.765, 37.559 124.500, 41.902 133.358 C 51.099 152.121, 77.135 156.426, 90.927 141.464 C 96.078 135.875, 98.230 128.678, 97.864 118.260 C 97.714 113.992, 98.085 106, 98.689 100.500 C 99.293 95, 99.498 88.295, 99.144 85.601 L 98.500 80.702 95.063 88.101 M 39.477 91.270 C 38.386 97.086, 39.343 99.020, 40.931 94.208 C 41.956 91.103, 42.040 89.640, 41.240 88.840 C 40.439 88.039, 39.959 88.702, 39.477 91.270 M 85.463 107.250 C 83.521 111.214, 83.368 111.904, 84.839 110.066 C 88.058 106.043, 90.180 102, 89.073 102 C 88.502 102, 86.877 104.362, 85.463 107.250 M 122.079 104.583 C 122.127 105.748, 122.364 105.985, 122.683 105.188 C 122.972 104.466, 122.936 103.603, 122.604 103.271 C 122.272 102.939, 122.036 103.529, 122.079 104.583 M 38.401 135 C 41.935 153.222, 47.255 158.417, 59.924 156.014 C 67.853 154.511, 69.059 153.417, 63.613 152.671 C 54.703 151.449, 45.534 144.960, 40.056 136 C 38.239 133.029, 37.989 132.878, 38.401 135" stroke="none" fill="black" fill-rule="evenodd"/>
</svg>