<svg xmlns="http://www.w3.org/2000/svg" width="200" height="200" viewBox="0 0 200 200" version="1.1">
	<path d="M 57.547 13.250 C 57.333 13.938, 56.951 16.655, 56.697 19.288 C 55.743 29.211, 47.548 41.761, 30.900 58.795 C 22.543 67.346, 20.915 69.506, 21.464 71.314 C 22.774 75.625, 24.104 128.947, 23.462 151.366 C 22.919 170.303, 23.038 174.154, 24.153 173.780 C 25.259 173.409, 25.500 163.931, 25.500 120.731 L 25.500 68.134 34.598 58.817 C 49.876 43.172, 58.259 30.059, 59.641 19.645 L 60.286 14.790 64.393 15.448 C 66.652 15.809, 70.401 16.366, 72.724 16.685 L 76.947 17.265 72.424 22.295 C 69.937 25.062, 66.178 30.965, 64.071 35.413 C 60.595 42.752, 54.781 59.686, 53.558 66.035 C 53.082 68.508, 52.900 68.560, 46.049 68.173 C 37.204 67.673, 34 68.423, 34 70.995 C 34 72.459, 36.010 73.904, 41.973 76.726 C 46.358 78.802, 49.958 80.981, 49.973 81.569 C 49.988 82.156, 48.571 83.314, 46.824 84.141 L 43.647 85.646 43.796 101.573 C 43.878 110.333, 43.957 118.287, 43.972 119.250 C 43.988 120.213, 44.616 121, 45.370 121 C 46.912 121, 48.017 116.007, 50.568 97.500 C 51.478 90.900, 52.821 84.868, 53.552 84.096 C 54.687 82.896, 56.237 83.211, 64.190 86.256 L 73.500 89.820 74.998 87.660 C 75.823 86.472, 78.090 83.767, 80.038 81.649 L 83.579 77.797 87.228 79.322 C 90.362 80.631, 91.103 81.599, 92.476 86.173 C 96.475 99.492, 96.454 128.374, 92.436 141.903 C 90.450 148.590, 88.782 149.809, 86.166 146.484 C 82.495 141.818, 80.177 132.237, 79.032 117 C 77.725 99.606, 77.260 97, 75.466 97 C 73.566 97, 73.251 99.870, 72 128.500 C 70.989 151.665, 69.899 165.854, 68.402 175.333 C 67.844 178.863, 67.592 179.114, 65.209 178.516 C 57.719 176.636, 53.031 169.150, 50.805 155.510 C 49.209 145.737, 47.297 144.540, 43.902 151.187 C 38.527 161.712, 29.016 186.416, 29.971 187.371 C 31.249 188.649, 31.189 188.741, 34.433 180.500 C 40.583 164.874, 46.247 152, 46.972 152 C 47.396 152, 48.043 154.665, 48.412 157.922 C 49.324 165.988, 54.126 175.393, 58.966 178.596 C 64.127 182.012, 69.604 182.862, 70.348 180.364 C 72.103 174.474, 75 138.498, 75 122.600 C 75 118.237, 75.230 114.897, 75.511 115.178 C 75.792 115.459, 76.424 119.936, 76.915 125.128 C 77.823 134.720, 81.270 145.431, 84.654 149.170 C 86.928 151.683, 90.647 151.481, 92.392 148.750 C 95.949 143.183, 97.237 135.616, 97.708 117.500 C 98.061 103.925, 97.812 97.779, 96.695 92.500 C 95.880 88.650, 95.310 85.393, 95.429 85.261 C 96.081 84.539, 100.154 93.495, 101.468 98.540 C 106.552 118.058, 98.734 151.901, 87.379 159.530 L 84.257 161.627 86.534 167.684 C 90.868 179.211, 96.866 185.986, 102.747 185.996 C 106.234 186.002, 112.310 179.763, 115.812 172.580 C 124.641 154.472, 128.485 120.581, 123.760 102.500 C 122.632 98.180, 122.729 95.120, 124.477 80 L 126.500 62.500 126.763 98.157 L 127.025 133.815 130.629 136.979 C 132.611 138.720, 135.786 140.884, 137.684 141.789 C 140.764 143.258, 141.423 143.276, 143.817 141.953 C 145.293 141.139, 147.400 138.678, 148.500 136.486 C 150.391 132.717, 150.506 130.376, 150.616 93.500 C 150.728 55.758, 151.521 44.032, 154.067 42.458 C 154.640 42.105, 155 62.748, 155 95.921 L 155 149.959 150.905 152.049 C 145.284 154.916, 138.363 162.071, 137.526 165.880 C 135.851 173.506, 144.405 180, 156.125 180 C 168.759 180, 179.919 171.747, 183.474 159.774 C 185.578 152.690, 185.422 138.996, 183.134 129.910 C 180.590 119.807, 179.715 88.973, 181.022 55.500 C 182.279 23.312, 182.327 23, 186.113 23 C 189.407 23, 189.635 22.351, 187.443 19.223 C 185.605 16.598, 183.194 16.331, 182.303 18.652 C 181.726 20.158, 179.175 20.242, 153.585 19.600 C 114.907 18.629, 103.479 17.693, 98.539 15.088 C 94.199 12.801, 86.204 12.285, 82.855 14.078 C 81.374 14.870, 78.207 14.738, 70.881 13.578 C 58.870 11.675, 58.045 11.655, 57.547 13.250 M 88.813 15.683 C 89.534 15.972, 90.397 15.936, 90.729 15.604 C 91.061 15.272, 90.471 15.036, 89.417 15.079 C 88.252 15.127, 88.015 15.364, 88.813 15.683 M 77.467 20.687 C 72.730 25.080, 68.030 32.521, 64.417 41.345 C 62.595 45.796, 61.308 49.641, 61.556 49.890 C 61.805 50.138, 63.019 49.415, 64.254 48.283 C 68.483 44.409, 75.295 41.714, 82 41.263 C 90.447 40.696, 96.024 43.444, 100.862 50.557 C 102.710 53.276, 104.680 55.368, 105.239 55.207 C 105.809 55.043, 106.018 55.821, 105.716 56.977 C 105.120 59.258, 107.971 61.215, 113.685 62.445 C 117.842 63.340, 121 60.420, 121 55.682 C 121 47.142, 114.223 32.499, 106.676 24.734 C 102.040 19.964, 103.172 20.305, 85.750 18.437 C 80.988 17.927, 80.218 18.136, 77.467 20.687 M 107 20.636 C 107 20.716, 108.821 22.969, 111.046 25.641 C 116.528 32.224, 121.802 43.179, 123.116 50.713 C 124.063 56.138, 123.966 57.405, 122.350 60.713 C 120.704 64.083, 120.042 64.533, 116.344 64.803 C 114.059 64.969, 110.535 64.415, 108.514 63.570 C 104.924 62.070, 104.755 62.102, 101.170 64.936 C 95.346 69.540, 88.375 71.098, 70.799 71.723 L 55.097 72.281 54.475 75.116 C 54.132 76.675, 54.108 78.365, 54.420 78.871 C 54.741 79.389, 58.283 78.745, 62.533 77.396 C 68.127 75.619, 72.357 75, 78.901 75 C 87.078 75, 87.985 75.207, 91.280 77.825 C 99.288 84.189, 103.073 90.948, 105.069 102.451 C 108.313 121.142, 100.740 152.151, 90.912 160.420 C 87.445 163.338, 87.506 164.002, 92.094 173.148 C 96.962 182.857, 102.372 185.356, 107.474 180.254 C 119.042 168.685, 126.181 130.033, 121.379 104.968 C 119.872 97.102, 119.869 95.341, 121.346 82.432 C 123.802 60.972, 125.107 53.228, 126.598 51.281 C 129.580 47.388, 129.969 52.145, 129.985 92.646 L 130 132.793 133.518 135.882 C 138.079 139.886, 141.506 140.757, 143.960 138.536 C 147.898 134.973, 148.467 128.505, 148.158 90.836 C 147.838 51.772, 148.453 44.991, 152.790 39.838 C 154.614 37.670, 155.576 37.176, 156.390 37.989 C 157.169 38.768, 157.600 55.789, 157.836 95.047 L 158.172 150.994 154.949 152.747 C 148.680 156.157, 143.475 160.623, 141.500 164.286 C 139.664 167.691, 139.625 168.221, 141.020 170.748 C 143.293 174.862, 148.421 176.998, 156 176.989 C 177.567 176.961, 187.371 157.305, 180.036 128.792 C 177.834 120.230, 177.806 119.337, 178.346 75.292 C 178.649 50.657, 179.188 28.864, 179.544 26.864 L 180.192 23.229 157.346 22.556 C 144.781 22.186, 128.313 21.570, 120.750 21.186 C 113.188 20.803, 107 20.556, 107 20.636 M 72.287 46.447 C 62.667 50.925, 54.456 61.874, 58.045 65.437 C 58.637 66.025, 62.555 66.449, 66.808 66.386 C 72.997 66.294, 76.995 65.440, 87.267 62.013 C 94.289 59.670, 100.294 57.333, 100.612 56.819 C 101.518 55.352, 96.260 48.129, 92.710 45.965 C 88.022 43.107, 79.004 43.319, 72.287 46.447 M 95.519 62.129 C 92.780 63.239, 86.930 65.216, 82.519 66.521 C 73.985 69.046, 75.401 69.650, 85.871 67.951 C 92.527 66.871, 98.717 64.251, 100.939 61.573 C 102.618 59.550, 101.629 59.651, 95.519 62.129 M 38.550 71.947 C 39.072 72.467, 42.048 74.019, 45.163 75.395 C 51.180 78.054, 52 77.757, 52 72.918 C 52 71.205, 51.231 71, 44.800 71 C 40.269 71, 37.952 71.351, 38.550 71.947 M 69 78.371 C 65.975 79.033, 62.678 80.045, 61.674 80.620 C 60.109 81.515, 60.656 81.974, 65.513 83.832 C 68.629 85.024, 71.493 86, 71.877 86 C 72.262 86, 74.269 83.975, 76.338 81.500 L 80.100 77 77.300 77.084 C 75.760 77.130, 72.025 77.709, 69 78.371 M 47.209 86.850 C 46.273 87.443, 45.998 90.127, 46.209 96.585 L 46.500 105.500 48.062 95.750 C 49.633 85.944, 49.576 85.348, 47.209 86.850" stroke="none" fill="black" fill-rule="evenodd"/>
</svg>