<svg xmlns="http://www.w3.org/2000/svg" width="200" height="200" viewBox="0 0 200 200" version="1.1">
	<path d="M 46.919 14.514 C 41.649 15.233, 34.224 16.608, 30.419 17.568 C 22.515 19.562, 22.413 19.571, 18.732 18.648 C 16.484 18.083, 16 18.294, 16 19.836 C 16 21.092, 14.930 22.018, 12.757 22.641 C 10.973 23.152, 9.366 24.338, 9.185 25.276 C 8.902 26.746, 9.468 26.898, 13.276 26.376 L 17.695 25.770 20.431 32.635 C 30.228 57.217, 45.173 67.540, 54.909 56.451 C 58.473 52.392, 59.360 49.568, 58.826 43.976 C 58.448 40.013, 58.474 39.976, 60.106 42.141 C 61.022 43.355, 62.244 45.889, 62.822 47.772 C 63.790 50.927, 63.319 52.425, 56.820 66.848 C 46.056 90.738, 30.856 121.690, 26.054 129.500 C 22.441 135.375, 21.673 137.544, 21.276 143 C 20.303 156.364, 25.735 169.788, 34.385 175.396 C 41.633 180.096, 51.301 178.232, 55.643 171.298 C 56.606 169.759, 57.493 168.350, 57.614 168.167 C 57.735 167.983, 58.742 168.742, 59.852 169.852 C 60.962 170.962, 63.587 172.364, 65.685 172.969 C 71.692 174.698, 100.658 175.948, 135.354 175.975 L 167.208 176 174.203 172.324 C 180.918 168.795, 183.056 166.721, 181.539 165.207 C 181.150 164.818, 171.982 164.500, 161.166 164.500 C 143.329 164.500, 141.081 164.306, 137 162.413 C 134.525 161.264, 131.825 159.508, 131 158.509 C 128.888 155.952, 129.208 149.331, 131.709 143.811 C 133.506 139.844, 134.347 139.045, 137.167 138.620 C 139 138.344, 145.442 137.409, 151.481 136.542 C 162.189 135.005, 166.578 133.156, 164.457 131.075 C 163.931 130.559, 157.926 128.734, 151.114 127.019 C 137.996 123.717, 132.683 121.521, 129.618 118.132 C 127.983 116.324, 127.899 115.659, 128.974 113.062 C 130.259 109.961, 129.300 107.415, 123.584 98.750 L 121.770 96 125.487 96 C 131.800 96, 146.555 101.670, 165.143 111.239 C 174.929 116.276, 183.144 120.189, 183.399 119.934 C 184.244 119.090, 176.040 102.770, 172.318 97.889 C 168.046 92.287, 161.848 87.589, 155.799 85.366 C 152.849 84.282, 145.536 83.528, 132.500 82.964 C 112.765 82.109, 109 81.569, 109 79.593 C 109 78.721, 116.512 78.430, 138.250 78.460 C 169.415 78.503, 171.521 78.213, 174.627 73.465 C 176.653 70.369, 173.703 65.528, 166.231 59.686 L 159.962 54.784 148.061 59.892 C 141.515 62.701, 135.834 65, 135.436 65 C 135.038 65, 136.915 63.348, 139.606 61.329 C 161.209 45.124, 165.795 35.989, 153.177 34.297 C 150.457 33.932, 148.478 34.296, 146.645 35.497 C 142.719 38.069, 139.772 36.763, 133.804 29.805 C 124.402 18.844, 123.239 17.839, 120.358 18.183 C 114.985 18.824, 112.216 26.247, 109.610 47 C 108.816 53.325, 107.857 62.212, 107.479 66.750 L 106.792 75 101.412 75 C 96.882 75, 95.516 74.539, 92.771 72.087 L 89.510 69.173 92.505 66.890 C 94.152 65.634, 97.638 62.509, 100.250 59.946 C 108.113 52.231, 106.012 47.016, 95.027 46.983 L 89.500 46.967 96.637 43.494 C 110.109 36.939, 113.545 29.435, 106.138 22.744 C 96.842 14.345, 72.715 10.992, 46.919 14.514 M 50.500 16.627 C 43.005 17.754, 30.493 20.195, 29.699 20.686 C 29.217 20.984, 32.374 22.431, 36.714 23.903 C 50.165 28.463, 60.020 35.420, 63.771 43.003 L 65.713 46.926 66.927 44.261 L 68.141 41.596 70.169 44.798 C 72.559 48.573, 72.496 48.566, 81.715 46.012 C 111.094 37.870, 115.572 25.249, 91.472 18.508 C 85.595 16.864, 57.503 15.575, 50.500 16.627 M 119.189 20.883 C 116.164 22.753, 112.071 43.570, 110.486 65.154 L 109.777 74.808 117.602 75.542 C 121.906 75.945, 134.219 76.291, 144.964 76.311 C 171.778 76.361, 176.836 74.439, 170.095 66.761 C 168.437 64.873, 165.347 62.126, 163.227 60.658 L 159.374 57.987 149.937 62.108 C 133.120 69.451, 128 70.816, 128 67.958 C 128 67.450, 133.299 62.824, 139.775 57.679 C 153.074 47.113, 157.241 42.691, 156.801 39.612 C 156.402 36.810, 151.886 36.297, 147.003 38.499 C 141.461 40.998, 137.704 38.990, 129.607 29.203 C 122.824 21.004, 121.153 19.670, 119.189 20.883 M 21 26.220 C 21 27.954, 27.372 41.677, 30.308 46.268 C 40.551 62.280, 56 61.687, 56 45.282 C 56 38.134, 52.874 34.160, 44.053 30.094 C 38.580 27.571, 35.064 26.678, 28.959 26.260 C 24.582 25.960, 21 25.942, 21 26.220 M 67.614 50.105 C 67.340 51.422, 66.836 55.373, 66.493 58.885 C 66.151 62.397, 64.386 70.272, 62.572 76.385 C 56.334 97.406, 51.691 112.501, 51.329 112.933 C 51.130 113.172, 50.561 112.947, 50.066 112.433 C 49.193 111.530, 51.025 104.635, 59.212 78 C 62.591 67.008, 64.729 57.936, 63.690 59 C 63.422 59.275, 59.277 68.050, 54.479 78.500 C 43.141 103.195, 31.623 126.188, 27.377 132.604 C 24.356 137.169, 24 138.438, 24 144.643 C 24 162.627, 31.863 175, 43.291 175 C 52.482 175, 56.545 168.378, 55.794 154.625 C 55.381 147.071, 53.424 140.726, 47.349 127.250 C 47.039 126.561, 47.447 126, 48.259 126 C 50.045 126, 55.228 137.232, 57.515 146.059 C 58.501 149.862, 59.021 155.064, 58.825 159.161 C 58.506 165.828, 58.551 165.967, 61.187 166.543 C 66.215 167.643, 92.420 167.374, 96.591 166.180 C 101.972 164.639, 104.300 162.045, 103.427 158.565 C 102.581 155.196, 95.240 147.127, 86.078 139.495 C 74.261 129.651, 76.954 127.511, 93.648 133.478 C 99 135.390, 103.478 136.853, 103.599 136.728 C 103.721 136.602, 104.148 128.287, 104.548 118.250 C 105.037 105.989, 104.940 100, 104.252 100 C 100.388 100, 81.827 116.422, 73.738 126.996 C 71.172 130.351, 70.992 130.420, 69.282 128.708 C 66.559 125.981, 66.928 115.073, 69.981 108 C 77.333 90.973, 90.003 80.795, 101.875 82.380 L 106.500 82.997 101.151 80.498 C 94.989 77.620, 89.138 77.322, 81.055 79.473 C 77.081 80.530, 75.255 80.626, 74.293 79.828 C 72.617 78.437, 73.785 76.932, 79.692 72.868 C 82.062 71.238, 84 69.329, 84 68.626 C 84 67.924, 82.826 66.258, 81.392 64.924 C 79.957 63.591, 76.729 59.575, 74.219 56 C 68.114 47.307, 68.182 47.368, 67.614 50.105 M 85.500 49.600 C 83.850 49.829, 80.580 50.266, 78.234 50.572 L 73.967 51.127 77.026 55.314 C 78.709 57.616, 81.602 61.276, 83.457 63.446 L 86.828 67.391 90.909 64.563 C 93.153 63.008, 96.842 59.725, 99.108 57.267 C 102.747 53.319, 103.054 52.626, 101.745 51.316 C 100.223 49.794, 91.076 48.828, 85.500 49.600 M 82.500 74.167 C 80.300 75.879, 79.230 77.027, 80.122 76.720 C 81.014 76.412, 83.848 75.845, 86.418 75.460 C 90.916 74.786, 91.028 74.688, 89.391 72.880 C 87.220 70.481, 87.245 70.476, 82.500 74.167 M 103 78.383 C 103 78.594, 103.900 79.002, 105 79.290 C 106.100 79.577, 107 79.405, 107 78.906 C 107 78.408, 106.100 78, 105 78 C 103.900 78, 103 78.173, 103 78.383 M 111 85.540 C 112.375 86.509, 114.850 88.527, 116.500 90.025 C 118.905 92.207, 120.796 92.860, 126.029 93.315 C 134.567 94.058, 144.332 97.649, 161.500 106.359 C 180.836 116.168, 179.465 115.859, 176.377 109.718 C 170.633 98.295, 163.678 91.235, 155 88.021 C 152.991 87.276, 143.832 86.401, 133.500 85.965 C 123.600 85.548, 113.925 84.885, 112 84.492 L 108.500 83.778 111 85.540 M 89.345 87.976 C 79.595 93.567, 71.218 107.417, 70.244 119.554 C 69.959 123.099, 70.125 125.989, 70.613 125.976 C 71.101 125.963, 72.850 124.111, 74.500 121.859 C 79.421 115.145, 93.562 102.512, 99.996 99.083 L 106 95.883 106 91.048 C 106 85.587, 105.280 84.994, 98.668 85.009 C 95.892 85.016, 92.778 86.007, 89.345 87.976 M 109 91.484 C 109 94.854, 109.142 95.004, 111.750 94.378 C 113.263 94.016, 114.677 93.568, 114.893 93.383 C 115.491 92.873, 112.897 90.015, 110.832 88.910 C 109.216 88.045, 109 88.348, 109 91.484 M 111.405 97.079 L 108.310 97.977 107.659 110.738 C 107.301 117.757, 107.006 126.726, 107.004 130.668 C 106.998 141.701, 107.535 141.428, 94.791 136.882 C 88.708 134.712, 83.597 133.070, 83.433 133.234 C 83.269 133.397, 87.043 136.928, 91.818 141.079 C 101.702 149.672, 106.088 155.406, 106.216 159.899 C 106.421 167.090, 98.975 169.944, 79.568 170.115 C 69.039 170.208, 67.277 170.413, 70.500 171.174 C 72.700 171.693, 95.225 172.368, 120.556 172.674 L 166.612 173.231 171.806 170.598 C 174.663 169.151, 177 167.776, 177 167.543 C 177 167.310, 169.688 167.205, 160.750 167.310 C 141.608 167.534, 135.615 166.389, 130.454 161.521 C 127.343 158.587, 127.001 157.729, 127.010 152.882 C 127.019 147.733, 130.412 138.100, 132.717 136.675 C 133.225 136.361, 139.437 135.390, 146.522 134.517 C 153.608 133.643, 159.572 132.761, 159.778 132.556 C 160.244 132.089, 158.239 131.488, 149.950 129.607 C 140.588 127.484, 132.455 124.254, 128.867 121.235 C 126.001 118.823, 125.808 118.267, 126.324 113.915 C 126.830 109.638, 126.496 108.596, 122.693 102.602 C 118.288 95.658, 117.548 95.296, 111.405 97.079" stroke="none" fill="black" fill-rule="evenodd"/>
</svg>