<svg xmlns="http://www.w3.org/2000/svg" width="200" height="200" viewBox="0 0 200 200" version="1.1">
	<path d="M 146.500 14.617 C 141.550 15.433, 128.951 17.679, 118.501 19.608 C 101.614 22.725, 96.613 23.214, 73.501 24.013 C 37.327 25.263, 30.571 27.359, 24.667 39.164 C 19.664 49.166, 19.215 59.612, 22.697 85 C 24.554 98.543, 24.076 115.426, 21.025 144 C 17.833 173.902, 18.422 181.183, 23.684 176.862 C 27.687 173.575, 41.718 137.912, 45.465 121.500 C 47.925 110.726, 47.976 110.748, 50.017 123.500 C 50.633 127.350, 52.006 132.470, 53.069 134.877 C 55.453 140.280, 55.475 140, 52.655 140 C 49.051 140, 46.612 143.308, 47.380 147.152 C 49.658 158.542, 72.109 178.673, 84.561 180.491 C 89.144 181.161, 92.393 179.732, 95.353 175.745 C 96.972 173.563, 97.413 171.405, 97.471 165.378 L 97.544 157.766 105.831 155.373 C 126.359 149.447, 128.991 144.542, 115.741 136.902 C 111.758 134.606, 107.487 131.810, 106.250 130.689 C 101.878 126.729, 103.877 122.824, 112.773 117.948 C 116.032 116.161, 116.697 115.410, 115.574 114.781 C 114.444 114.149, 86.100 108, 84.314 108 C 84.109 108, 84.966 106.157, 86.220 103.905 C 88.740 99.378, 89.899 98.713, 98.188 97.036 C 109.595 94.727, 112.838 90.325, 112.951 77 C 113.038 66.718, 116.243 54.195, 121.460 43.759 C 123.985 38.706, 125.417 34.757, 124.849 34.407 C 124.309 34.073, 123.723 33.957, 123.547 34.150 C 123.371 34.342, 117.388 44.850, 110.251 57.500 C 89.313 94.614, 88.845 95.345, 85.472 96.152 C 83.838 96.543, 79.463 97.256, 75.750 97.737 L 69 98.612 69 83.848 L 69 69.084 73.731 66.312 C 79.854 62.723, 89.389 61.993, 97.364 64.501 C 100.373 65.447, 103.402 66.033, 104.095 65.802 C 104.788 65.571, 100.887 62.433, 95.427 58.830 C 89.967 55.226, 82.457 50.036, 78.738 47.296 L 71.975 42.315 79.363 40.169 C 88.231 37.592, 92.051 34.971, 90.195 32.735 C 89.513 31.913, 87.503 30.903, 85.728 30.490 C 81.500 29.506, 81.505 29.505, 110 25.967 C 138.871 22.382, 158 21.133, 158 22.832 C 158 23.458, 152.938 27.733, 146.750 32.333 C 127.487 46.654, 121 54.883, 121 64.999 C 121 71.277, 122.761 75.623, 127.375 80.730 L 130.945 84.682 129.473 96.553 C 127.023 116.300, 127.894 128.362, 132.094 132.871 C 134.686 135.652, 136.185 135.556, 139.976 132.367 C 144.046 128.942, 148.372 120.264, 151.210 109.837 C 155.498 94.073, 153.423 58.965, 148.098 57.198 C 147.051 56.850, 146.860 57.335, 147.345 59.116 C 153.270 80.916, 151.737 106.797, 143.571 122.839 C 140.711 128.457, 136.652 132.464, 134.613 131.682 C 130.869 130.245, 129.929 113.843, 132.488 94.612 L 133.937 83.724 129.613 78.915 C 124.254 72.954, 122.364 67.077, 123.932 61.254 C 126.275 52.552, 133.634 44.918, 153.582 30.500 C 161.152 25.029, 162.688 21.974, 158.892 19.942 C 157.349 19.116, 153.095 18.916, 145.081 19.293 L 133.500 19.836 141 18.497 C 145.125 17.760, 153.675 16.613, 160 15.948 C 172.222 14.663, 178.267 15.409, 181.455 18.598 C 183.629 20.772, 183.405 28.317, 180.776 41.500 C 178.728 51.769, 178.573 55.490, 178.449 97.500 C 178.306 145.889, 177.498 156.233, 172.893 168.570 C 170.189 175.818, 165.359 181.009, 161.350 180.978 C 156.228 180.939, 150.051 177.195, 142.208 169.377 L 134.500 161.694 138.605 160.817 C 147.887 158.833, 154.843 148.534, 157.622 132.659 C 160.262 117.579, 159.302 85.534, 155.487 61.415 C 153.077 46.178, 151.971 42, 150.350 42 C 149.404 42, 149.054 42.635, 149.386 43.750 C 150.536 47.613, 153.053 63.199, 154.434 75 C 156.775 95.013, 157.309 110.517, 156.080 122.728 C 153.612 147.231, 146.968 158, 134.317 158 C 129.236 158, 128.991 158.114, 130.002 160.004 C 132.160 164.036, 147.627 178.822, 152 181.034 C 157.857 183.996, 163.973 184.147, 167.676 181.422 C 171.872 178.334, 175.908 170.071, 178.285 159.706 C 180.242 151.169, 180.405 147.377, 180.538 107.500 C 180.686 62.859, 180.951 57.802, 184.096 39.500 C 186.780 23.886, 186.640 20.749, 183.084 16.766 L 180.169 13.500 167.834 13.316 C 160.710 13.210, 151.699 13.759, 146.500 14.617 M 129.750 20.662 C 130.438 20.940, 131.563 20.940, 132.250 20.662 C 132.938 20.385, 132.375 20.158, 131 20.158 C 129.625 20.158, 129.063 20.385, 129.750 20.662 M 49 28 C 45.841 28.491, 48.077 28.722, 56.500 28.776 C 63.100 28.818, 70.525 28.491, 73 28.051 C 78.818 27.016, 55.647 26.967, 49 28 M 36.587 31.032 C 31.446 33.598, 29.180 35.730, 26.949 40.102 C 22.523 48.773, 22.093 64.204, 25.654 86.500 C 27.538 98.290, 27.151 111.182, 23.986 142.165 C 22.834 153.448, 22.036 165.339, 22.213 168.590 L 22.535 174.500 26.203 166.836 C 32.324 154.046, 40.762 130.172, 43.447 118.044 C 44.842 111.743, 46.643 105.928, 47.450 105.121 C 48.740 103.831, 49.044 103.985, 49.959 106.392 C 50.532 107.898, 51 110.176, 51 111.455 C 51 115.919, 54.182 130.537, 56.153 135.126 C 58.099 139.659, 58.309 139.807, 66.570 142.494 C 71.206 144.002, 75 145.576, 75 145.990 C 75 146.405, 73.135 147.043, 70.856 147.407 C 67.437 147.954, 65.598 147.533, 60.351 145.002 C 55.114 142.477, 53.619 142.133, 51.889 143.060 C 43.089 147.769, 73.022 178, 86.485 178 C 88.596 178, 90.460 177.140, 92.076 175.419 C 94.245 173.110, 94.503 171.940, 94.527 164.301 L 94.553 155.763 103.027 153.340 C 113.474 150.353, 120.401 147.037, 120.808 144.828 C 121.023 143.664, 118.896 141.862, 113.808 138.895 C 99.185 130.368, 97.285 124.956, 106.674 118.576 C 110.904 115.701, 112.270 116.332, 93.806 112.633 L 82.111 110.290 78.867 113.638 C 77.082 115.479, 74.722 117.271, 73.623 117.620 C 70.987 118.456, 68.183 114.999, 67.369 109.908 C 66.963 107.370, 66.114 105.853, 64.877 105.461 C 62.637 104.750, 62.373 101.178, 64.500 100.362 C 65.730 99.889, 65.994 97.424, 65.968 86.643 C 65.939 74.522, 65.815 73.655, 64.369 75.500 C 61.740 78.854, 59.113 85.716, 59.659 87.803 C 60.187 89.822, 58.559 91.714, 57.612 90.182 C 57.323 89.714, 55.046 80.594, 52.553 69.915 C 50.059 59.237, 47.505 49.518, 46.877 48.317 C 45.452 45.595, 46.384 42.827, 48.459 43.622 C 50.134 44.266, 70.696 39.942, 80.872 36.807 C 91.294 33.596, 87.838 32.633, 63.731 32.031 C 47.502 31.625, 42.559 31.205, 42.750 30.250 C 43.099 28.505, 41.159 28.751, 36.587 31.032 M 58.688 45.140 C 54.392 46.048, 50.671 46.996, 50.420 47.247 C 50.044 47.623, 56.085 74.348, 57.556 78.820 C 57.800 79.560, 59.984 77.229, 62.526 73.516 L 67.061 66.892 66.780 55.191 L 66.500 43.491 58.688 45.140 M 69.802 54.699 C 69.585 60.090, 69.497 64.644, 69.607 64.820 C 69.717 64.996, 71.718 64.164, 74.054 62.973 C 76.390 61.781, 81.220 60.512, 84.788 60.153 L 91.275 59.500 81.397 52.500 C 75.964 48.650, 71.221 45.365, 70.857 45.199 C 70.494 45.034, 70.019 49.309, 69.802 54.699 M 101.968 77.630 C 96.761 86.720, 92.362 94.538, 92.192 95.002 C 91.722 96.291, 102.575 93.509, 105.506 91.588 C 108.876 89.380, 109.984 86.250, 110.073 78.685 C 110.113 75.283, 110.507 70.025, 110.947 67 C 111.388 63.975, 111.678 61.411, 111.592 61.301 C 111.506 61.192, 107.175 68.540, 101.968 77.630 M 77 100.174 C 67.043 101.594, 66.258 103.903, 75.018 106.004 C 80.604 107.344, 81.415 107.001, 84.307 102.077 C 85.620 99.840, 85.756 99.034, 84.807 99.123 C 84.088 99.191, 80.575 99.664, 77 100.174 M 70.428 110.612 C 71.571 115.237, 72.744 115.710, 75.711 112.744 C 77.186 111.268, 78.193 109.862, 77.947 109.619 C 77.701 109.377, 75.748 108.851, 73.607 108.451 L 69.714 107.724 70.428 110.612" stroke="none" fill="black" fill-rule="evenodd"/>
</svg>