<svg xmlns="http://www.w3.org/2000/svg" width="200" height="200" viewBox="0 0 200 200" version="1.1">
	<path d="M 88 18.734 C 88 19.247, 90.369 21.299, 93.265 23.294 C 96.161 25.288, 100.074 28.513, 101.961 30.460 L 105.392 34 63.446 34.015 C 38.921 34.024, 20.880 34.422, 20.008 34.974 C 17.666 36.455, 19.890 37.908, 27.615 39.946 C 36.850 42.382, 39.050 43.330, 42.804 46.488 C 48.874 51.596, 50.460 64.346, 46.821 78.795 C 45.961 82.211, 45.980 87.391, 46.899 99.911 C 48.267 118.550, 47.505 125.759, 43.738 129.794 C 40.062 133.733, 32.037 132.186, 21.107 125.431 L 16.714 122.716 17.204 134.618 C 17.744 147.739, 19.519 153.469, 24.447 158 C 26.791 160.155, 28.087 160.495, 33.833 160.466 C 39.346 160.437, 41.971 159.775, 49 156.637 C 53.675 154.550, 65.719 149.532, 75.765 145.486 C 94.001 138.141, 103.627 133.360, 106.047 130.443 C 107.101 129.173, 107.043 128.615, 105.719 127.291 C 104.297 125.868, 103.146 125.822, 95.805 126.887 C 91.237 127.550, 86.322 128.338, 84.883 128.637 C 82.556 129.122, 82.003 128.648, 79.883 124.341 C 77.590 119.682, 77.474 118.372, 76.808 89.500 C 76.427 73, 75.823 57.410, 75.466 54.857 C 74.279 46.384, 77.904 43.738, 93.059 42.013 C 105.011 40.652, 106.549 40.308, 108.242 38.615 C 109.326 37.531, 111.837 37.370, 119.899 37.867 L 130.176 38.500 120.838 45.545 L 111.500 52.590 111.666 84.545 C 111.757 102.120, 111.869 120.646, 111.916 125.714 L 112 134.928 115.732 137.464 C 120.431 140.657, 126.618 140.875, 130.302 137.977 C 133.984 135.081, 136.746 126.745, 137.971 114.835 C 139.366 101.271, 138.248 85, 135.921 85 C 135.220 85, 135.098 88.846, 135.547 96.750 C 136.609 115.429, 133.534 131.862, 128.190 136.065 C 125.082 138.510, 121.416 138.144, 116.916 134.940 L 114 132.864 114 93.497 L 114 54.130 124.043 46.565 C 134.261 38.868, 136.630 37.990, 142.759 39.633 C 144.865 40.197, 144.582 40.700, 138.561 47.082 C 129.389 56.806, 128.726 62.425, 135.680 71.532 C 138.207 74.841, 139.534 75.866, 140.299 75.101 C 141.065 74.335, 140.779 73.376, 139.304 71.763 C 136.354 68.537, 134 63.532, 134 60.484 C 134 56.653, 135.535 54.207, 142.252 47.333 C 148.834 40.597, 149.220 38.394, 144.003 37.351 C 142.328 37.016, 140.726 36.366, 140.442 35.906 C 139.910 35.045, 147.274 30.865, 154.750 27.784 C 160.554 25.393, 160.488 27.550, 154.600 32.672 L 150.200 36.500 149.953 77.500 C 149.712 117.659, 149.752 118.621, 151.917 124.402 C 153.880 129.645, 153.996 130.849, 152.954 135.191 C 151.445 141.483, 144.471 149.251, 136.123 153.937 C 130.447 157.124, 128.179 160, 131.342 160 C 132.080 160, 133.239 161.912, 133.918 164.250 C 135.848 170.896, 141.448 178.678, 145.955 180.977 C 154.312 185.241, 163.442 182.849, 170.824 174.462 C 178.386 165.871, 178.213 167.689, 178.198 97.174 C 178.190 62.703, 178.143 33.481, 178.092 32.235 C 178.041 30.990, 176.460 28.290, 174.577 26.235 C 171.309 22.670, 170.843 22.492, 164.327 22.328 C 160.572 22.234, 155.025 21.381, 152 20.432 C 147.490 19.018, 141.233 18.626, 117.250 18.254 C 99.474 17.978, 88 18.166, 88 18.734 M 103.003 27.800 L 110.287 34.801 122.393 35.127 L 134.500 35.453 141.500 31.330 C 145.350 29.062, 150.075 26.551, 152 25.749 L 155.500 24.290 151.500 23.006 C 148.852 22.156, 138.747 21.566, 121.610 21.260 L 95.719 20.800 103.003 27.800 M 162 27.171 C 162 28.428, 160.171 31.095, 157.661 33.500 L 153.323 37.657 152.722 77.354 C 152.150 115.065, 152.216 117.262, 154.038 121.275 C 156.318 126.298, 156.577 134.684, 154.597 139.422 C 152.662 144.054, 146.881 150.221, 140.509 154.450 L 135.161 158 136.194 161.750 C 137.813 167.632, 141.682 174.604, 144.597 176.898 C 154.668 184.820, 167.956 178.997, 174.035 164 C 176.077 158.963, 176.267 35.105, 174.241 30.389 C 172.756 26.933, 169.424 25, 164.953 25 C 162.589 25, 162 25.433, 162 27.171 M 34.273 38.953 C 46.629 42.902, 51.460 49.838, 51.370 63.500 C 51.341 67.900, 50.755 74.130, 50.068 77.345 C 49.152 81.631, 49.040 87.235, 49.650 98.345 C 50.938 121.838, 50.045 128.102, 44.777 132.535 C 42.043 134.835, 40.912 135.150, 36.801 134.755 C 34.167 134.502, 29.208 132.905, 25.781 131.206 C 22.353 129.507, 19.422 128.245, 19.266 128.400 C 19.111 128.556, 19.413 132.838, 19.939 137.916 C 21.888 156.753, 27.604 161.186, 43.181 155.939 C 46.545 154.806, 51.942 152.544, 55.174 150.912 C 58.406 149.281, 65.201 146.443, 70.275 144.606 C 80.277 140.984, 94.419 134.766, 99.987 131.542 C 104.720 128.801, 102.358 128.487, 91.331 130.390 C 81.113 132.153, 80.239 131.774, 76.608 124 C 74.676 119.863, 74.452 117.078, 73.831 89.500 C 73.460 73, 72.847 57.573, 72.470 55.218 C 71.067 46.466, 75.696 41.804, 87.574 40.005 C 91.384 39.428, 96.975 38.569, 100 38.097 C 103.613 37.532, 92.292 37.215, 67 37.173 L 28.500 37.108 34.273 38.953" stroke="none" fill="black" fill-rule="evenodd"/>
</svg>