<svg xmlns="http://www.w3.org/2000/svg" width="200" height="200" viewBox="0 0 200 200" version="1.1">
	<path d="M 114 14.935 C 103.522 16.056, 96.279 17.683, 86.193 21.179 C 74.667 25.175, 62.048 25.971, 50 23.463 C 45.325 22.490, 38.656 21.498, 35.179 21.259 C 28.899 20.826, 28.835 20.848, 25.076 24.799 C 20.753 29.344, 19 34.847, 19 43.875 C 19 49.200, 18.750 49.948, 16.750 50.609 L 14.500 51.353 16.904 51.949 C 18.961 52.459, 19.573 53.667, 21.139 60.301 C 23.492 70.275, 27.323 78.310, 32.298 83.708 C 35.073 86.718, 35.769 88, 34.627 88 C 33.732 88, 33 88.647, 33 89.439 C 33 91.352, 37.073 91.783, 61.834 92.490 C 83.386 93.105, 96.779 94.379, 98.364 95.964 C 99.585 97.185, 96.465 98.444, 83.283 102.050 C 73.339 104.770, 72.857 104.807, 65.283 103.457 C 41.602 99.236, 23.985 106.039, 24.007 119.398 C 24.016 125.510, 28.495 131.192, 35.632 134.147 C 37.210 134.801, 46.369 135.628, 56 135.988 C 75.685 136.722, 79 137.603, 79 142.101 C 79 144.038, 77.104 147.177, 72.750 152.447 C 59.487 168.502, 57.718 172.586, 62.250 176.687 C 65.439 179.572, 70.123 180.921, 79.444 181.637 L 87.547 182.260 95.212 174.113 C 111.932 156.339, 115.858 143.116, 107.400 133.063 C 104.023 129.050, 92.626 123.581, 81.500 120.633 L 72.500 118.249 77.500 117.619 C 98.063 115.028, 102.111 114.085, 107.026 110.740 C 117.310 103.740, 116.948 94.372, 105.753 77.781 C 101.397 71.325, 101.330 71.119, 104.060 72.531 C 108.460 74.806, 110.973 74.308, 114.621 70.440 C 117.884 66.981, 119.998 61.474, 121.510 52.502 L 122.184 48.503 123.720 51.435 C 124.984 53.848, 125.158 57.039, 124.700 69.434 C 124.395 77.720, 123.612 90.125, 122.962 97 C 121.708 110.273, 122.130 122.948, 124.043 129.453 C 125.629 134.843, 130.912 140, 134.849 140 C 141.625 140, 147.783 124.412, 148.082 106.500 C 148.147 102.650, 148.520 98.375, 148.912 97 C 149.522 94.864, 149.723 95.192, 150.294 99.253 C 151.050 104.627, 153.661 110.256, 157.534 114.859 L 160.165 117.984 154.608 124.678 C 144.444 136.924, 138.679 150.847, 138.743 163 C 138.783 170.603, 139.976 174.146, 143.636 177.538 C 146.821 180.491, 151.564 180.763, 156.849 178.296 C 161.238 176.248, 171.336 166.371, 175.945 159.619 L 179.277 154.738 178.388 120.119 C 176.865 60.751, 177.671 40.793, 182.184 26.154 C 183.260 22.663, 183.928 19.256, 183.670 18.583 C 182.690 16.027, 129.709 13.253, 114 14.935 M 114.026 17.900 L 109.552 18.500 112.408 19.789 C 114.778 20.858, 116.477 20.820, 122.382 19.563 C 126.297 18.730, 130.850 17.880, 132.500 17.674 C 134.150 17.468, 131.675 17.300, 127 17.300 C 122.325 17.300, 116.487 17.570, 114.026 17.900 M 147.831 18.481 C 160.284 22.379, 162.077 31.909, 155.923 61.500 C 151.582 82.369, 151.226 97.584, 154.887 105.742 C 156.181 108.625, 158.941 112.521, 161.020 114.400 L 164.802 117.816 161.814 120.658 C 145.366 136.302, 136.789 161.902, 144.014 173.783 C 145.629 176.438, 146.593 177, 149.535 177 C 156.083 177, 163.824 171.260, 171.754 160.526 L 176.168 154.552 175.464 104.026 C 174.725 50.911, 175.180 41.019, 179.001 27.240 C 180.025 23.549, 180.743 20.409, 180.597 20.264 C 180.263 19.930, 162.091 18.280, 151.500 17.622 C 143.611 17.132, 143.560 17.144, 147.831 18.481 M 87.664 23.464 L 77.828 26.738 83.604 27.217 C 88.993 27.664, 89.687 27.464, 93.940 24.237 C 96.448 22.335, 98.688 20.603, 98.917 20.389 C 99.778 19.585, 97.221 20.284, 87.664 23.464 M 125.560 21.563 C 121.193 22.379, 117.448 23.219, 117.236 23.430 C 117.025 23.641, 117.549 25.161, 118.400 26.807 L 119.948 29.800 136.995 30.529 C 153.693 31.242, 157.555 32.078, 152.697 33.925 C 151.364 34.432, 149.947 35.894, 149.548 37.173 C 148.347 41.023, 147.781 73.093, 148.809 79 C 149.620 83.657, 149.784 83.949, 149.883 80.906 C 149.947 78.929, 151.401 70.604, 153.113 62.406 C 157.072 43.455, 157.535 30.555, 154.410 26.327 C 153.261 24.772, 151.011 22.845, 149.410 22.044 C 145.354 20.015, 134.967 19.806, 125.560 21.563 M 101.764 22.439 C 100.260 23.224, 98.010 24.627, 96.764 25.556 C 94.794 27.026, 94.760 27.157, 96.500 26.558 C 97.600 26.180, 101.088 25.151, 104.250 24.271 C 107.412 23.392, 110 22.296, 110 21.836 C 110 20.498, 104.749 20.883, 101.764 22.439 M 30.500 23.945 C 25.474 26.002, 22 33.285, 22 41.762 L 22 47.589 30.114 43.709 C 36.080 40.857, 37.934 39.534, 37.114 38.714 C 35.228 36.828, 35.860 33.138, 38.350 31.506 C 39.642 30.660, 44.705 29.442, 49.600 28.801 L 58.500 27.635 50.500 26.399 C 46.100 25.720, 40.928 24.677, 39.007 24.082 C 34.975 22.833, 33.284 22.806, 30.500 23.945 M 107.659 26.058 C 104.446 27.043, 101.559 28.108, 101.242 28.424 C 100.926 28.741, 104.117 29, 108.333 29 C 116.135 29, 116.967 28.588, 114.750 25.824 C 113.622 24.418, 112.932 24.440, 107.659 26.058 M 73.813 27.683 C 74.534 27.972, 75.397 27.936, 75.729 27.604 C 76.061 27.272, 75.471 27.036, 74.417 27.079 C 73.252 27.127, 73.015 27.364, 73.813 27.683 M 48 31.649 C 42.523 32.474, 37.892 34.177, 38.246 35.238 C 39.273 38.318, 41.770 38.203, 50.566 34.674 C 59.395 31.131, 59.447 31.090, 55 31.181 C 52.525 31.231, 49.375 31.442, 48 31.649 M 61 33.926 C 50.778 37.270, 44 40.008, 44 40.794 C 44 41.111, 44.942 42.374, 46.094 43.600 C 51.104 48.933, 45.518 51.985, 30.731 51.994 L 21.962 52 22.568 54.750 C 25.355 67.390, 29.319 76.511, 34.301 81.750 C 40.935 88.725, 47.344 84.647, 52.561 70.133 C 56.457 59.294, 63.345 44.750, 65.368 43.092 C 67.460 41.377, 68.986 42.575, 70.543 47.158 L 71.587 50.227 77.543 42.392 C 80.819 38.083, 84.088 33.757, 84.807 32.779 C 86.032 31.110, 85.598 31.004, 77.807 31.072 C 71.573 31.127, 67.379 31.839, 61 33.926 M 96.150 32.683 C 98.654 35.560, 99.184 39.624, 97.562 43.506 C 94.248 51.437, 90.025 48.412, 89.957 38.059 L 89.915 31.500 85.935 36 C 83.746 38.475, 79.770 43.650, 77.100 47.500 L 72.245 54.500 73.808 59.376 C 75.988 66.174, 80.725 71, 85.219 71 C 89.013 71, 95 69.226, 95 68.102 C 95 67.716, 94.524 66.924, 93.941 66.341 C 92.446 64.846, 107.974 50.611, 114.236 47.738 L 119.113 45.500 118.667 39.194 C 118.422 35.726, 118.059 32.748, 117.861 32.577 C 117.662 32.406, 112.340 31.951, 106.034 31.566 C 95.008 30.892, 94.629 30.935, 96.150 32.683 M 121.544 38.836 C 121.983 43.107, 122.882 46.218, 124.048 47.500 C 128.443 52.333, 129.021 61.629, 126.500 87 C 123.782 114.356, 124.798 128.605, 129.855 134.052 C 133.648 138.138, 135.920 138.148, 138.690 134.088 C 144.496 125.582, 146.124 110.952, 145.841 69.840 C 145.699 49.159, 145.990 38.653, 146.758 36.839 L 147.883 34.178 138.191 33.568 C 132.861 33.233, 126.781 32.782, 124.680 32.565 L 120.859 32.171 121.544 38.836 M 93.067 39 C 93.064 44.930, 93.192 45.330, 94.532 43.559 C 96.363 41.138, 96.352 38.240, 94.500 35 C 93.151 32.640, 93.071 32.865, 93.067 39 M 33.595 45.047 C 30.347 46.658, 27.422 48.253, 27.095 48.591 C 26.768 48.929, 30.400 49.047, 35.167 48.853 C 39.934 48.659, 44.173 48.161, 44.588 47.746 C 45.308 47.025, 41.271 41.937, 40.076 42.058 C 39.759 42.091, 36.843 43.435, 33.595 45.047 M 62.734 52.771 C 60.795 57.022, 57.567 64.758, 55.561 69.962 C 53.555 75.167, 50.785 80.904, 49.406 82.712 C 47.054 85.796, 47.020 86, 48.863 86 C 50.253 86, 51.919 84.027, 54.561 79.250 C 56.614 75.537, 60.745 68.358, 63.742 63.296 C 68.696 54.929, 69.129 53.725, 68.509 50.051 C 68.133 47.829, 67.473 45.793, 67.043 45.526 C 66.612 45.260, 64.673 48.520, 62.734 52.771 M 111.900 52.119 C 105.873 56.392, 96.977 65.153, 97.615 66.187 C 97.903 66.652, 98.566 66.768, 99.090 66.445 C 99.613 66.121, 101.416 67.014, 103.097 68.428 C 104.778 69.843, 107.165 71, 108.402 71 C 112.851 71, 116.996 63.878, 118.540 53.583 C 119.389 47.922, 118.193 47.658, 111.900 52.119 M 69.339 59.154 C 68.752 59.894, 64.794 66.663, 60.542 74.195 C 56.290 81.727, 52.066 88.061, 51.156 88.271 C 50.245 88.481, 54.450 88.949, 60.500 89.312 C 97.533 91.534, 102.377 92.369, 101.796 96.431 C 101.396 99.225, 96.669 101.380, 83.469 104.786 C 72.927 107.507, 72.227 107.564, 65.500 106.250 C 54.924 104.186, 41.634 104.978, 35.525 108.036 C 27.104 112.252, 24.374 119.063, 28.550 125.436 C 32.274 131.119, 36.792 132.370, 56 133.037 C 69.867 133.518, 74.281 134.017, 77.261 135.441 C 83.738 138.536, 83.581 143.679, 76.755 151.985 C 64.602 166.774, 62.894 169.273, 63.196 171.828 C 63.668 175.828, 68.445 177.988, 78.366 178.688 L 86.901 179.290 92.474 173.395 C 98.914 166.582, 106.203 156.018, 107.857 151.101 C 112.960 135.926, 102.347 127.788, 67.250 119.968 C 60.477 118.458, 57 117.228, 57 116.342 C 57 115.312, 59.265 114.998, 66.750 114.992 C 86.987 114.977, 101.563 112.079, 107.465 106.897 C 114.152 101.025, 113.106 93.894, 103.420 79.337 C 99.155 72.926, 97.386 71.022, 96.143 71.502 C 95.239 71.850, 92.626 72.638, 90.337 73.252 C 82.063 75.471, 74.982 71.028, 71.705 61.563 C 70.691 58.633, 70.171 58.103, 69.339 59.154" stroke="none" fill="black" fill-rule="evenodd"/>
</svg>