<svg xmlns="http://www.w3.org/2000/svg" width="200" height="200" viewBox="0 0 200 200" version="1.1">
	<path d="M 125 15.657 C 57.603 17.994, 21.900 18.610, 17.739 17.508 C 14.357 16.613, 14.291 16.372, 21.659 31.800 C 27.930 44.931, 35.575 54, 40.372 54 C 46.705 54, 49.980 49.358, 50.036 40.300 L 50.073 34.500 55.536 40.297 C 58.541 43.485, 61 46.809, 61 47.685 C 61 48.560, 59.261 51.163, 57.135 53.469 C 52.448 58.554, 49.816 65.321, 45.858 82.464 C 39.674 109.245, 34.612 118.382, 24.250 121.465 C 21.437 122.302, 21.303 124, 24.050 124 C 29.482 124, 37.664 116.270, 41.563 107.454 C 42.851 104.542, 45.321 96.161, 47.053 88.829 C 52.730 64.790, 56.400 55.462, 61.186 52.900 C 63.280 51.780, 63.302 51.863, 62.723 58.766 C 62.326 63.501, 60.778 69.287, 57.944 76.634 C 49.993 97.243, 46.994 106.694, 45.858 114.730 L 44.718 122.792 48.498 132.128 C 51.535 139.630, 52.374 143.154, 52.768 150.074 C 53.341 160.116, 52.159 164.687, 47.883 168.963 C 43.741 173.105, 39.199 173.759, 33.555 171.026 C 24.615 166.699, 18.956 155.665, 16.839 138.432 C 15.519 127.692, 13.488 125.979, 13.895 135.949 C 14.523 151.337, 20.830 165.824, 29.482 171.750 C 33.424 174.451, 35.158 175, 39.745 175 C 44.907 175, 45.538 174.725, 49.530 170.733 C 57.475 162.788, 58.120 150.237, 51.493 132.548 C 48.120 123.543, 47.827 121.992, 48.416 116.244 C 49.173 108.852, 52.512 97.779, 58.439 83 C 62.179 73.674, 63.988 68.047, 65.351 61.500 C 65.581 60.400, 65.820 87.737, 65.884 122.250 L 66 185 70.184 185 C 76.848 185, 85.535 182.090, 89.819 178.423 C 91.963 176.588, 94.793 172.705, 96.108 169.794 C 98.235 165.086, 98.493 163.117, 98.440 152 C 98.390 141.713, 97.726 136.275, 94.690 121.283 C 89.874 97.506, 89.833 91.775, 94.466 90.013 C 95.672 89.554, 99.504 84.976, 102.981 79.840 C 106.458 74.703, 109.648 70.109, 110.069 69.632 C 110.491 69.155, 114.221 71.370, 118.360 74.556 L 125.883 80.347 120.906 85.794 C 110.606 97.063, 102.659 118.449, 102.558 135.164 C 102.505 144.056, 102.694 145.035, 104.924 147.414 C 106.539 149.136, 108.402 150, 110.503 150 C 113.844 150, 120.863 145.903, 124.919 141.587 C 127.081 139.285, 127.796 139.114, 132.988 139.657 C 140.075 140.397, 142.972 138.755, 146.145 132.201 C 147.938 128.496, 148.474 125.328, 148.816 116.393 C 149.597 95.980, 144.065 75.836, 136.945 73.167 C 135.247 72.530, 135.249 72.399, 136.990 70.255 L 138.813 68.009 143.770 75.755 C 150.287 85.940, 152.328 90.080, 154.979 98.500 C 157.560 106.699, 158.056 120.267, 156.103 129.267 C 154.939 134.630, 154.489 135.267, 149.676 138.371 C 143.449 142.385, 141.562 144.411, 139.538 149.254 C 134.499 161.316, 142.993 177.398, 156.352 181.087 C 171.716 185.329, 182.831 163.816, 179.895 135.516 C 179.380 130.557, 179.081 105.125, 179.230 79 C 179.438 42.465, 179.203 30.519, 178.211 27.250 C 177.503 24.913, 176.611 23, 176.230 23 C 175.849 23, 171.454 27.067, 166.462 32.038 L 157.386 41.076 150.943 38.083 C 147.399 36.437, 140.679 33.996, 136.010 32.659 L 127.520 30.227 134.122 30.189 C 143.001 30.138, 147.836 28.687, 152.553 24.657 C 156.266 21.485, 157.179 21.214, 167.963 20.089 C 178.954 18.941, 182.612 17.800, 181.430 15.887 C 180.945 15.102, 145.215 14.957, 125 15.657 M 105 18.964 C 95.316 19.261, 88.617 19.820, 90 20.217 C 94.770 21.586, 123.532 26.933, 129.568 27.573 C 138.604 28.532, 145.664 26.721, 151.414 21.970 L 156.218 18 139.359 18.214 C 130.086 18.332, 114.625 18.669, 105 18.964 M 50.188 20.745 L 41.875 21.083 44.688 24.653 C 46.234 26.617, 50.142 30.760, 53.371 33.862 C 56.599 36.963, 60.322 41.075, 61.643 43 L 64.046 46.500 63.448 39.500 C 62.929 33.422, 63.156 31.907, 65.175 28 C 66.674 25.100, 68.744 22.878, 71 21.752 L 74.500 20.003 66.500 20.205 C 62.100 20.316, 54.759 20.559, 50.188 20.745 M 32.033 21.750 C 32.051 22.163, 34.833 23.751, 38.214 25.279 C 43.836 27.820, 44.197 27.875, 42.434 25.927 C 39.192 22.345, 31.931 19.429, 32.033 21.750 M 23.488 29.544 C 33.355 51.195, 44.492 57.601, 47.463 43.334 C 48.471 38.493, 47.090 33.105, 44.387 31.334 C 40.616 28.863, 24.162 22, 22.009 22 C 20.195 22, 20.304 22.557, 23.488 29.544 M 75.031 23.342 C 67.418 25.315, 64.382 32.662, 66.600 43.749 C 67.156 46.531, 67.591 46.794, 72.618 47.385 C 75.597 47.735, 80.390 48.917, 83.268 50.010 C 86.145 51.104, 88.663 51.999, 88.861 51.999 C 89.060 52, 88.928 50.432, 88.569 48.515 C 87.589 43.291, 89.530 37.620, 93.487 34.146 C 97.691 30.455, 102.422 29.042, 111 28.916 C 117.443 28.821, 117.383 28.796, 104 26.065 C 86.483 22.489, 80.492 21.926, 75.031 23.342 M 167.085 35.414 C 162.127 40.406, 159.915 43.337, 160.318 44.385 C 161.058 46.315, 158.512 49, 155.941 49 C 154.081 49, 141.857 62.689, 141.194 65.514 C 141.026 66.231, 143.006 69.896, 145.594 73.659 C 151.411 82.116, 156.450 92.606, 158.468 100.460 C 161.576 112.554, 159.356 137.117, 155.032 138.490 C 151.694 139.549, 144.962 145.014, 142.971 148.280 C 136.619 158.697, 145.615 176.603, 158.228 178.650 C 169.049 180.406, 177.325 166.798, 177.173 147.500 C 177.139 143.100, 177.108 117.900, 177.106 91.500 C 177.101 45.383, 176.558 28, 175.121 28 C 174.752 28, 171.136 31.336, 167.085 35.414 M 104.729 32.028 C 97.690 33.226, 93.742 35.902, 92.104 40.584 C 90.425 45.383, 91.346 53.812, 93.645 54.694 C 94.473 55.012, 99.300 53.142, 104.372 50.540 C 115.101 45.034, 118.336 44.819, 118.801 49.580 C 118.999 51.609, 117.888 54.988, 115.545 59.482 C 112.232 65.840, 112.109 66.389, 113.745 67.542 C 114.710 68.223, 118.166 70.855, 121.425 73.390 C 124.683 75.926, 127.608 77.984, 127.925 77.964 C 128.241 77.944, 130.377 75.157, 132.672 71.771 L 136.843 65.613 134.818 61.643 C 132.141 56.396, 132.093 51.684, 134.682 48.254 C 136.706 45.571, 136.981 45.509, 145.268 45.836 C 151.263 46.073, 154.001 45.807, 154.540 44.935 C 155.597 43.226, 153.002 41.531, 144.056 38.086 C 131.212 33.140, 113.877 30.470, 104.729 32.028 M 136.557 50.223 C 134.589 53.032, 134.629 54.557, 136.796 59.382 L 138.541 63.264 144.401 56.399 C 150.091 49.734, 150.192 49.514, 147.881 48.867 C 142.615 47.391, 138.167 47.923, 136.557 50.223 M 106.103 52.654 C 102.196 54.663, 99 56.641, 99 57.049 C 99 57.808, 108.172 64, 109.295 64 C 110.246 64, 114.980 55.557, 115.976 52.084 C 116.734 49.441, 116.599 49, 115.033 49 C 114.028 49, 110.009 50.644, 106.103 52.654 M 68.333 51.425 C 68.700 52.381, 69 82.215, 69 117.722 L 69 182.280 74.387 181.724 C 83.237 180.810, 89.398 176.838, 93.347 169.500 C 95.255 165.955, 95.495 163.963, 95.457 152 C 95.421 140.788, 94.859 135.788, 92.140 122.500 C 86.801 96.406, 86.976 90.218, 93.139 87.263 C 95.485 86.138, 108.833 67.448, 107.896 66.600 C 107.678 66.403, 104.949 64.622, 101.830 62.642 C 97.494 59.888, 95.259 59.095, 92.330 59.271 C 89.005 59.470, 88.457 59.195, 88.172 57.181 C 87.758 54.265, 80.798 51.071, 73.083 50.257 C 68.224 49.745, 67.734 49.865, 68.333 51.425 M 65.079 52.583 C 65.127 53.748, 65.364 53.985, 65.683 53.188 C 65.972 52.466, 65.936 51.603, 65.604 51.271 C 65.272 50.939, 65.036 51.529, 65.079 52.583 M 132.535 76.943 C 132.176 77.524, 132.553 78, 133.374 78 C 135.119 78, 135.569 79.256, 136.955 88 C 139.900 106.580, 134.964 123.610, 125.486 127.570 C 113.124 132.736, 110.150 113.118, 120.169 92.500 L 122.113 88.500 120.086 91 C 113.122 99.587, 106.131 118.978, 105.283 132.057 C 104.549 143.390, 105.802 147, 110.471 147 C 113.896 147, 119.348 143.551, 124.347 138.223 C 127.191 135.191, 127.200 135.189, 131.549 136.671 C 137.024 138.537, 140.485 137.141, 143.134 132 C 145.572 127.266, 147.164 115.201, 146.417 107.121 C 145.487 97.069, 142.116 83.468, 139.641 79.787 C 137.409 76.466, 133.738 74.997, 132.535 76.943 M 128.878 83.122 C 123.208 88.792, 115.107 112.313, 116.603 118.762 C 117.577 122.960, 119.838 126, 121.988 126 C 125.334 126, 130.735 120.294, 132.682 114.703 C 135.527 106.531, 134.976 81, 131.955 81 C 131.430 81, 130.045 81.955, 128.878 83.122" stroke="none" fill="black" fill-rule="evenodd"/>
</svg>