<svg xmlns="http://www.w3.org/2000/svg" width="200" height="200" viewBox="0 0 200 200" version="1.1">
	<path d="M 76.855 18.971 C 75.400 19.411, 71.575 21.131, 68.355 22.793 C 65.135 24.455, 60.787 26.057, 58.694 26.354 C 56.601 26.650, 52.659 28.495, 49.933 30.453 L 44.977 34.013 39.020 32.007 C 23.371 26.735, 15.375 32.033, 14.200 48.449 C 13.924 52.310, 14.284 65.844, 15.001 78.526 C 16.101 97.964, 16.088 102.832, 14.921 109.541 C 12.506 123.432, 13.746 142.871, 17.386 148.200 C 20.654 152.981, 23.812 152.469, 34.358 145.451 C 41.596 140.634, 43.953 139.585, 48.367 139.219 C 54.259 138.731, 57.938 140.138, 61.924 144.405 C 65.115 147.820, 65.999 147.678, 66.005 143.750 C 66.018 134.483, 72.182 100.594, 74.236 98.500 C 75.290 97.425, 74.560 137.895, 73.421 143.672 C 72.864 146.500, 73.141 147.022, 75.989 148.495 C 79.691 150.409, 95.311 150.641, 112.945 149.045 C 123.638 148.077, 130.913 147.760, 138.905 147.915 C 143.036 147.995, 143.211 148.109, 141.724 149.750 C 140.851 150.713, 137.519 153.068, 134.319 154.984 C 127.081 159.317, 126.072 160.564, 126.032 165.217 C 125.967 172.769, 136.125 179, 148.500 179 C 164.237 179, 174.510 169.903, 177.140 153.638 C 177.905 148.903, 177.743 144.767, 176.431 135.544 C 174.448 121.605, 174.810 113.397, 178.432 90.158 C 181.945 67.620, 182.365 62.075, 181.043 55.706 C 179.638 48.939, 176.989 45.354, 171.579 42.896 C 166.039 40.380, 158.881 40.546, 150.500 43.385 C 140.229 46.863, 132.893 47.455, 124.292 45.498 C 114.582 43.290, 111.799 43.695, 110.559 47.500 C 110.020 49.150, 109.517 50.620, 109.439 50.767 C 109.283 51.065, 89.178 48.091, 87.319 47.495 C 86.512 47.236, 87.057 44.961, 89.042 40.308 C 94.629 27.211, 92.217 17.884, 83.295 18.086 C 81.208 18.133, 78.310 18.532, 76.855 18.971 M 73.042 23.560 C 65.016 27.296, 64.783 27.595, 67.031 31.291 C 68.082 33.020, 69.229 36.342, 69.578 38.672 C 70.451 44.493, 71.692 45.672, 77.630 46.319 L 82.760 46.877 85.814 40.189 C 89.925 31.181, 90.674 26.677, 88.589 23.496 C 86.377 20.120, 80.380 20.145, 73.042 23.560 M 52.946 31.829 C 50.501 33.385, 47.927 35.356, 47.228 36.209 C 46.089 37.596, 45.355 37.512, 40.228 35.403 C 34.113 32.888, 26.202 32.286, 22.849 34.081 C 21.739 34.675, 19.978 37.038, 18.937 39.331 C 16.657 44.353, 16.391 58.468, 18.102 83.693 C 18.986 96.724, 18.937 101.579, 17.852 108.220 C 16.218 118.229, 16.416 138.092, 18.204 143.432 C 20.219 149.451, 21.967 149.949, 27.924 146.197 C 30.716 144.439, 35.323 141.537, 38.162 139.750 C 42.633 136.935, 44.204 136.500, 49.912 136.500 C 55.233 136.500, 57.136 136.954, 59.808 138.859 C 61.627 140.157, 63.239 141.057, 63.391 140.859 C 63.542 140.662, 64.200 135.775, 64.852 130 C 66.295 117.225, 69.189 102.843, 71.357 97.673 C 73.297 93.047, 76.151 92.968, 77.124 97.512 C 78.055 101.862, 78.033 123.904, 77.087 135.500 C 76.513 142.534, 76.599 145.710, 77.377 146.208 C 80.113 147.960, 90.319 148.091, 108.282 146.606 C 138.001 144.149, 146 144.539, 146 148.446 C 146 150.238, 140.952 154.446, 134.298 158.201 C 129.478 160.921, 129 161.507, 129 164.694 C 129 174.327, 147.742 179.639, 160.500 173.623 C 166.501 170.793, 169.231 167.993, 171.922 161.909 C 175.031 154.880, 175.444 147.790, 173.518 134.479 C 171.552 120.889, 171.817 115.704, 175.741 91 C 178.780 71.868, 179.284 56.049, 177 51.537 C 173.065 43.765, 163.709 42.043, 149.712 46.513 C 140.583 49.428, 128.709 49.830, 120.020 47.518 C 114.281 45.991, 113.381 46.235, 112.834 49.473 C 112.544 51.186, 113.293 51.555, 118.500 52.264 C 125.124 53.167, 142.219 52.699, 145.750 51.519 C 147.417 50.962, 148 51.155, 148 52.265 C 148 53.980, 141.232 55.986, 135.307 56.026 L 131.500 56.051 136.500 58.610 C 139.250 60.017, 142.245 61.836, 143.155 62.653 C 144.626 63.973, 145.258 63.909, 148.850 62.076 C 151.681 60.632, 153.099 60.352, 153.586 61.139 C 153.968 61.757, 153.655 62.623, 152.890 63.063 C 152.126 63.503, 150.600 64.616, 149.500 65.537 C 147.614 67.115, 147.654 67.120, 150.198 65.617 C 153.488 63.672, 155 65.238, 152.499 68.001 C 150.895 69.774, 150.939 70.054, 153.318 73.188 C 160.261 82.332, 161.695 96.612, 156.762 107.500 C 155.268 110.800, 153.621 116.242, 153.103 119.593 C 151.193 131.953, 148.975 137, 145.452 137 C 141.669 137, 138.311 126.539, 137.338 111.719 L 136.695 101.938 132.015 113.219 C 129.441 119.424, 126.298 126.525, 125.030 129 C 119.030 140.719, 113.631 145.479, 109.094 143.050 C 106.388 141.602, 103 134.924, 103 131.040 C 103 128.685, 102.557 128, 101.035 128 C 97.371 128, 96.680 124.381, 95.977 101.500 C 95.234 77.362, 94.457 73.417, 90.633 74.377 C 87.451 75.176, 86.822 74.237, 88.456 71.123 C 90.888 66.490, 98.343 59.789, 103.957 57.190 C 108.543 55.067, 109.101 54.539, 107.457 53.883 C 104.056 52.526, 84.674 49.921, 83.977 50.728 C 83.611 51.153, 82.255 54.425, 80.964 58 C 75.321 73.633, 72.168 78.454, 69.914 74.896 C 69.428 74.128, 69.020 70.125, 69.007 66 C 68.993 61.875, 68.699 56.138, 68.352 53.250 L 67.721 48 59.416 48 C 52.123 48, 50.776 48.288, 48.358 50.368 C 45.703 52.652, 45.650 52.888, 46.865 56.944 C 47.558 59.258, 47.836 62.470, 47.482 64.081 C 47.084 65.893, 47.495 68.729, 48.559 71.516 C 50.023 75.348, 50.201 78.443, 49.753 92.260 C 49.210 109.027, 47.879 117.025, 45.274 119.187 C 43.112 120.982, 40.301 117.187, 39.414 111.277 C 38.467 104.961, 39.545 88.323, 41.570 78 C 42.487 73.325, 43.297 65.225, 43.369 60 C 43.527 48.525, 45.454 43.864, 53.737 34.918 C 59.804 28.365, 59.605 27.591, 52.946 31.829 M 57.111 34.886 C 54.279 37.793, 51.330 41.395, 50.557 42.890 L 49.151 45.609 58.325 45.187 C 63.371 44.955, 67.622 44.659, 67.771 44.529 C 68.552 43.845, 65.586 33.710, 64.049 31.812 L 62.259 29.601 57.111 34.886 M 71.118 57.133 C 71.183 62.285, 71.521 67.785, 71.868 69.354 C 72.432 71.901, 72.891 71.199, 76.120 62.854 C 81.685 48.476, 81.601 49.002, 78.317 48.986 C 76.768 48.979, 74.487 48.701, 73.250 48.370 C 71.028 47.774, 71.001 47.884, 71.118 57.133 M 111.592 58.145 C 111.358 58.890, 110.934 62.108, 110.650 65.296 C 110.197 70.391, 110.339 71.033, 111.818 70.603 C 112.743 70.334, 115.750 69.830, 118.500 69.483 C 129.652 68.076, 141 65.736, 141 64.844 C 141 64.322, 137.963 62.463, 134.250 60.713 C 128.919 58.200, 125.873 57.453, 119.759 57.160 C 113.872 56.878, 111.916 57.114, 111.592 58.145 M 103.701 60.093 C 101.611 61.196, 98.061 63.939, 95.811 66.189 C 91.745 70.255, 91.733 70.290, 93.809 71.890 C 97.498 74.734, 98.200 78.839, 98.907 101.713 C 99.284 113.931, 99.947 124.280, 100.378 124.712 C 102.415 126.748, 103.737 121.029, 104.903 105.134 C 106.008 90.075, 105.971 87.845, 104.573 85.142 C 102.266 80.679, 102.598 76.267, 105.500 72.818 C 107.551 70.380, 108 68.782, 108 63.923 C 108 60.665, 107.888 58.020, 107.750 58.044 C 107.612 58.069, 105.790 58.991, 103.701 60.093 M 137 69.085 C 132.875 70.041, 125.645 71.348, 120.934 71.989 C 116.223 72.630, 111.882 73.457, 111.288 73.827 C 110.694 74.197, 109.892 77.465, 109.505 81.089 L 108.801 87.678 113.452 93.389 C 118.884 100.058, 118.975 99.149, 111.397 114.052 C 105.250 126.142, 104.374 131.531, 107.646 137.134 C 110.273 141.631, 112.430 141.821, 116.112 137.880 C 120.939 132.713, 135.854 99.526, 138.979 87 C 140.560 80.664, 142.815 75.068, 145.057 71.920 C 148.019 67.760, 145.912 67.019, 137 69.085 M 43.636 82.372 C 41.926 93.349, 41.553 111.067, 42.960 114.500 C 44.842 119.092, 46.288 110.616, 46.769 92.174 C 47.338 70.395, 46.103 66.532, 43.636 82.372 M 145.950 79.610 C 140.124 92.598, 139.673 94.946, 140.255 109.323 C 140.794 122.657, 143.081 132.914, 145.702 133.751 C 147.099 134.197, 149.539 126.225, 150.525 118 C 150.888 114.975, 152.381 110.025, 153.842 107 C 156.089 102.351, 156.496 100.185, 156.476 93 C 156.456 85.730, 156.060 83.751, 153.745 79.321 C 152.256 76.472, 150.574 73.855, 150.007 73.504 C 149.419 73.141, 147.676 75.764, 145.950 79.610 M 105.605 77.586 C 105.271 78.458, 105.434 79.921, 105.968 80.836 C 106.741 82.160, 106.945 81.835, 106.970 79.250 C 107.003 75.691, 106.546 75.134, 105.605 77.586 M 108.738 93.669 C 108.474 94.126, 107.993 99.450, 107.668 105.500 L 107.079 116.500 111.009 108.500 C 113.171 104.100, 114.935 100.275, 114.929 100 C 114.903 98.786, 109.169 92.922, 108.738 93.669" stroke="none" fill="black" fill-rule="evenodd"/>
</svg>