<svg xmlns="http://www.w3.org/2000/svg" width="200" height="200" viewBox="0 0 200 200" version="1.1">
	<path d="M 139.285 30.903 C 133.666 31.924, 128.345 33.037, 127.461 33.377 C 126.576 33.716, 110.999 33.325, 92.844 32.508 C 64.007 31.210, 59.499 31.205, 57.168 32.471 C 54.519 33.909, 54.535 33.920, 59.250 33.960 C 64.932 34.008, 67.139 35.845, 70.529 43.352 C 74.309 51.723, 74.522 51.303, 63.750 56.716 C 57.550 59.832, 54 61.140, 54 60.308 C 54 59.589, 53.325 59, 52.500 59 C 51.582 59, 51 59.934, 51 61.405 C 51 63.198, 49.855 64.481, 46.504 66.445 C 39.813 70.366, 30.539 78.392, 28.055 82.410 C 22.359 91.627, 27.401 98.539, 42 101.528 L 47.500 102.654 48.666 111.443 C 49.859 120.439, 51.060 123.280, 52.637 120.837 C 53.112 120.102, 53.725 107.138, 54 92.029 L 54.500 64.557 63.880 59.800 C 69.039 57.183, 73.651 55.285, 74.130 55.580 C 75.510 56.433, 75.110 76.901, 73.587 83.373 C 72.371 88.543, 72.394 89.681, 73.780 92.873 C 76.219 98.490, 76.666 120.608, 74.551 131.047 C 70.474 151.167, 62.700 155.718, 53.576 143.325 C 51.622 140.671, 49.473 137.023, 48.799 135.218 C 48.044 133.194, 46.994 132.047, 46.060 132.227 C 45.227 132.387, 41.610 136.766, 38.023 141.958 C 29.467 154.340, 21.872 162.548, 19.730 161.727 C 17.134 160.730, 16.603 154.447, 17.993 141.189 C 19.285 128.875, 18.853 67.774, 17.339 48.596 L 16.715 40.692 19.107 41.405 C 23.924 42.838, 38.795 43.224, 46.953 42.126 C 51.561 41.506, 55.594 41.266, 55.916 41.592 C 56.237 41.919, 54.749 43.660, 52.609 45.461 C 50.148 47.533, 48.998 49.187, 49.478 49.964 C 50.006 50.818, 51.721 49.730, 55.118 46.383 C 57.803 43.739, 60 41.026, 60 40.355 C 60 38.341, 56.556 37.866, 49.845 38.955 C 40.386 40.490, 26.172 40.240, 20.083 38.432 C 17.179 37.570, 14.642 37.025, 14.444 37.222 C 14.247 37.419, 14.560 48.812, 15.139 62.540 C 15.750 77.026, 15.900 100.089, 15.496 117.500 C 14.465 161.894, 14.439 160.722, 16.509 163.010 C 17.500 164.105, 19.150 165, 20.177 165 C 23.067 165, 30.183 157.820, 37.161 147.865 C 40.647 142.890, 43.956 138.169, 44.514 137.373 C 45.318 136.225, 46.404 137.260, 49.777 142.390 C 62.033 161.032, 73.809 154.629, 78.084 127 C 79.504 117.822, 78.767 99.031, 76.764 93.347 C 75.486 89.719, 75.482 88.329, 76.738 82.347 C 77.684 77.845, 78.039 71.671, 77.776 64.320 L 77.377 53.141 88.938 48.683 C 105.470 42.308, 104.322 42.466, 108.357 46.009 C 114.633 51.519, 115.203 57.830, 110.413 68.750 L 108.110 73.999 110.655 79.559 C 116.013 91.261, 111.244 97.226, 92.660 102.066 C 85.009 104.058, 84.157 104.557, 85.724 106.124 C 86.549 106.949, 103.612 109.732, 109.284 109.967 C 109.716 109.985, 109.777 112.204, 109.419 114.898 C 109.062 117.592, 109.308 127.513, 109.967 136.944 C 111.361 156.898, 110.398 166.264, 106.485 170.811 C 104.179 173.491, 104.125 173.500, 89.836 173.556 C 73.103 173.622, 68 174.425, 68 176.995 C 68 177.969, 69.012 179.113, 70.250 179.537 C 71.487 179.961, 85.325 180.503, 101 180.742 C 116.675 180.981, 135.125 181.405, 142 181.685 C 159.577 182.400, 172.777 179.022, 176.009 172.983 C 178.449 168.425, 174.666 165.994, 163.996 165.262 C 156.038 164.717, 156.334 164.641, 146.869 169.639 C 143.321 171.512, 141.449 170.579, 139.629 166.031 C 137.143 159.817, 136.645 148.190, 138 128.001 L 139.276 109 144.565 109 C 152.682 109, 165.105 107.060, 169 105.185 C 171.555 103.955, 172.500 102.854, 172.500 101.108 C 172.500 93.449, 151.692 90.701, 141.481 97.012 L 138.313 98.969 137.693 81.735 C 136.462 47.571, 139.580 40.996, 157 41.009 C 163.472 41.013, 176.678 43.382, 182.250 45.537 C 183.711 46.102, 184 45.640, 184 42.742 C 184 38.405, 181.111 34.616, 175.655 31.798 C 169.781 28.764, 153.286 28.358, 139.285 30.903 M 145 32.731 C 140.250 33.289, 138.654 35, 142.883 35 C 145.070 35, 146.025 35.417, 145.741 36.250 C 145.428 37.171, 142.698 37.406, 135.376 37.142 C 127.432 36.856, 123.786 37.229, 117.218 39.002 C 112.698 40.221, 109 41.536, 109 41.922 C 109 42.309, 110.327 43.897, 111.948 45.451 C 117.353 50.628, 117.570 61.196, 112.474 71.051 C 111.092 73.723, 111.107 74.305, 112.633 77.250 C 115.139 82.085, 115.925 86.689, 114.886 90.451 C 113.603 95.098, 107.256 100.502, 100.628 102.591 C 97.582 103.551, 95.285 104.652, 95.523 105.037 C 95.761 105.423, 99.623 106.058, 104.104 106.449 C 115.035 107.402, 115.122 107.447, 113.250 111.202 C 111.936 113.834, 111.845 116.932, 112.609 132.887 C 114.022 162.395, 112.658 170.730, 105.701 175.099 C 103.079 176.746, 101.414 177.011, 96.500 176.561 C 88.109 175.794, 78.650 175.966, 77.703 176.904 C 76.540 178.057, 106.049 179.178, 117.099 178.401 C 122.567 178.016, 130.759 178.226, 136.540 178.898 C 151.052 180.585, 165.572 178.331, 171.641 173.449 C 175.828 170.081, 173.775 168.735, 163.644 168.203 C 155.854 167.794, 154.964 167.952, 151.390 170.381 C 141.766 176.921, 136.506 172.036, 134.512 154.708 C 133.756 148.138, 135.708 111.605, 136.986 108.396 C 137.746 106.489, 138.841 106.241, 148.662 105.751 C 160.450 105.164, 168.283 103.569, 170.092 101.389 C 171.018 100.273, 170.566 99.717, 167.790 98.557 C 157.962 94.450, 146.193 95.841, 140.414 101.792 C 138.020 104.257, 136.634 105.034, 135.915 104.315 C 135.232 103.632, 134.982 94.381, 135.188 77.388 C 135.495 51.921, 135.541 51.427, 138 47 C 143.471 37.153, 156.788 35.387, 178.750 41.597 C 180.379 42.058, 181 41.812, 181 40.706 C 181 38.509, 175.564 34.251, 171.219 33.044 C 167.653 32.054, 152.324 31.871, 145 32.731 M 69 34.465 C 69 34.864, 69.845 36.386, 70.879 37.846 C 71.912 39.306, 73.566 42.788, 74.555 45.585 L 76.352 50.671 87.853 46.085 C 100.468 41.055, 100.447 40.378, 87.667 40.118 C 80.024 39.963, 80.519 37.942, 88.578 36.394 L 94.500 35.256 85.500 35.117 C 80.550 35.041, 74.813 34.699, 72.750 34.358 C 70.688 34.017, 69 34.065, 69 34.465 M 100.500 37.929 C 96.462 39.520, 104.227 40.169, 108.517 38.599 L 112.500 37.141 107.500 37.141 C 104.750 37.141, 101.600 37.495, 100.500 37.929 M 43.367 71.878 C 32.012 79.853, 26.777 87.019, 28.900 91.681 C 30.220 94.576, 35.953 97.451, 43.500 99.001 C 46.800 99.679, 49.831 100.743, 50.235 101.367 C 50.639 101.990, 50.976 94.513, 50.985 84.750 C 50.993 74.987, 50.846 67, 50.657 67 C 50.468 67, 47.188 69.195, 43.367 71.878" stroke="none" fill="black" fill-rule="evenodd"/>
</svg>