<svg xmlns="http://www.w3.org/2000/svg" width="200" height="200" viewBox="0 0 200 200" version="1.1">
	<path d="M 78.275 13.539 C 72.287 15.152, 62.508 19.888, 56.122 24.269 L 51.743 27.273 54.622 28.509 C 58.341 30.106, 61.431 33.627, 62.861 37.899 C 65.145 44.717, 64.879 45.002, 56.250 44.985 C 51.987 44.976, 47.939 44.613, 47.253 44.178 C 46.568 43.742, 45.291 40.975, 44.416 38.029 C 41.632 28.655, 35.813 24.977, 29.187 28.403 C 25.886 30.110, 17.349 39.004, 13.659 44.580 C 11.085 48.470, 11.028 48.823, 12.430 52.177 C 15.528 59.592, 16.117 71.258, 14.834 99.789 C 13.505 129.333, 14.065 137.287, 18.018 145.036 C 20.553 150.004, 23.763 152.114, 29.764 152.755 C 32.369 153.034, 35.034 153.684, 35.686 154.200 C 37.738 155.824, 41.013 153.277, 54.672 139.430 C 67.035 126.897, 71.297 123.830, 74.015 125.509 C 74.828 126.012, 74.946 131.294, 74.436 144.439 C 73.619 165.492, 74.250 172.586, 77.348 177.200 C 81.770 183.783, 88.378 181.396, 93.778 171.265 C 103.320 153.363, 104.017 128.667, 95.420 113.124 C 94.089 110.717, 93 108.387, 93 107.946 C 93 107.504, 94.626 104.415, 96.612 101.079 C 107.778 82.336, 109.300 59.553, 99.659 55.499 C 87.986 50.590, 77.603 68.272, 74.783 97.861 C 73.711 109.114, 73.405 110.314, 71.367 111.243 C 65.050 114.121, 64.266 109.544, 66.369 82.086 C 67.279 70.214, 68.018 57.846, 68.012 54.603 L 68 48.706 79.750 49.393 C 92.647 50.146, 106.037 51.423, 118.750 53.111 C 126.174 54.097, 127.001 54.422, 127.014 56.353 C 127.021 57.534, 127.299 59.512, 127.630 60.750 C 128.189 62.835, 127.909 63, 123.804 63 C 120.257 63, 118.866 63.548, 116.823 65.750 C 113.806 69.003, 112 73.918, 112 78.879 C 112 81.148, 110.325 85.768, 107.427 91.491 C 104.040 98.178, 102.711 102.092, 102.305 106.575 C 101.581 114.558, 103.071 117.289, 112.185 124.681 C 121.433 132.181, 123.391 135.479, 123.302 143.409 C 123.223 150.547, 121.931 155.811, 117.828 165.720 C 115.088 172.337, 114.552 172.993, 111.408 173.583 C 107.303 174.353, 106.492 175.334, 108.548 177.040 C 110.523 178.679, 136.040 177.725, 150.907 175.456 C 163.169 173.585, 175.666 169.837, 179.377 166.918 C 182.994 164.073, 181.641 162.447, 177.671 164.870 C 169.754 169.701, 150.440 173.641, 129.581 174.681 C 118.662 175.225, 116.756 175.106, 117.274 173.913 C 124.158 158.047, 125.980 151.671, 125.966 143.500 C 125.951 134.713, 123.560 130.330, 115.096 123.576 C 105.608 116.006, 104.657 114.420, 105.190 107.049 C 105.517 102.531, 106.740 98.869, 110.310 91.726 C 113.325 85.691, 115 81.035, 115 78.690 C 115 70.148, 119.778 64.153, 125.451 65.577 C 127.770 66.159, 128.941 69.598, 129.002 76 C 129.015 77.375, 130.370 81.151, 132.013 84.391 C 135.371 91.013, 135.912 97.336, 133.517 101.967 C 132.702 103.544, 129.327 106.479, 126.017 108.490 C 116.154 114.481, 118.001 117.678, 135.298 124.550 C 141.891 127.170, 142.139 127.194, 143.516 125.376 C 149.905 116.939, 151.829 102.380, 148.153 90.279 C 145.718 82.261, 139.952 72.900, 134.520 68.143 C 131.252 65.281, 130.615 64.047, 130.205 59.781 L 129.724 54.778 134.112 55.501 C 136.525 55.898, 139.971 56.829, 141.769 57.569 C 144.861 58.841, 145.004 59.124, 144.414 62.810 C 143.639 67.660, 144.087 67.875, 157.492 69.068 C 169.259 70.116, 172.581 71.289, 174.547 75.091 C 177.594 80.982, 176.295 86.992, 166.821 110.849 C 159.940 128.175, 157.043 137.826, 157.015 143.516 C 156.982 150.289, 163.602 157, 170.318 157 C 174.025 157, 173.370 154.761, 169.425 153.949 C 162.509 152.526, 159.995 149.386, 160.006 142.185 C 160.014 136.923, 161.313 132.724, 169.089 112.840 C 177.270 91.922, 179.437 84.136, 178.578 78.761 C 177.230 70.334, 172.614 67.484, 158.840 66.574 C 149.509 65.958, 144.876 64.813, 146.829 63.606 C 147.473 63.208, 148 61.777, 148 60.426 C 148 57.224, 143.755 54.637, 135.675 52.914 L 129.500 51.598 141.500 50.835 C 149.515 50.326, 155.041 50.446, 158.140 51.197 C 161.665 52.051, 163.827 52.028, 167.140 51.100 C 172.844 49.501, 181.615 43.215, 180.164 41.764 C 179.422 41.022, 177.678 41.314, 174.304 42.746 C 171.662 43.867, 166.214 45.327, 162.199 45.991 C 155.094 47.166, 154.795 47.130, 151.091 44.679 C 148.998 43.294, 143.959 38.230, 139.893 33.426 C 127.674 18.989, 126.500 19.263, 126.500 36.547 L 126.500 47.997 115.637 47.999 L 104.774 48 109.637 44.750 C 119.044 38.464, 119.235 28.961, 110.138 19.861 C 102.768 12.489, 90.909 10.136, 78.275 13.539 M 77 16.828 C 71.487 18.668, 64.507 21.977, 60.198 24.793 L 57.896 26.298 60.906 29.403 C 64.042 32.638, 67 39.542, 67 43.626 C 67 45.831, 67.384 46, 72.383 46 C 76.869 46, 77.851 45.677, 78.274 44.062 C 78.756 42.219, 79.045 42.194, 84.140 43.550 C 90.946 45.361, 102.106 45.406, 106.282 43.638 C 111.419 41.464, 113.500 38.439, 113.500 33.145 C 113.500 27.065, 110.212 21.795, 104.233 18.291 C 98.130 14.714, 85.385 14.030, 77 16.828 M 129 36.917 L 129 48 139.750 47.997 L 150.500 47.995 146.347 44.247 C 144.063 42.186, 139.598 37.350, 136.426 33.500 C 133.253 29.650, 130.285 26.350, 129.829 26.167 C 129.373 25.983, 129 30.821, 129 36.917 M 25.908 34.682 C 23.155 37.258, 19.373 41.448, 17.504 43.995 L 14.105 48.625 15.802 53.063 C 17.297 56.969, 17.500 62.284, 17.500 97.500 C 17.500 134.351, 17.647 137.836, 19.366 141.769 C 21.953 147.687, 25.204 150, 30.935 150 C 33.501 150, 36.135 150.535, 36.788 151.188 C 37.706 152.106, 41.006 149.363, 51.280 139.145 C 65.503 124.999, 69.229 122.017, 72.693 122.007 C 77.894 121.991, 79.019 128.517, 76.906 146.434 C 75.740 156.318, 76.790 170.249, 79.078 175.272 C 81.896 181.456, 86.740 178.830, 92.105 168.211 C 96.775 158.970, 98.509 150.866, 98.463 138.500 C 98.421 127.129, 96.656 119.979, 92.131 112.859 L 89.182 108.218 92.717 102.359 C 100.694 89.137, 105.156 73.005, 103.025 65.092 C 100.574 55.992, 95.377 54.902, 88.791 62.107 C 82.504 68.985, 78.526 82.436, 77.350 100.792 C 76.726 110.537, 76.545 111.188, 73.941 113.042 C 70.235 115.681, 66.402 115.561, 64.619 112.750 C 62.134 108.831, 61.899 102.998, 63.464 84 C 64.302 73.825, 64.990 61.629, 64.994 56.898 L 65 48.296 55.782 47.699 C 50.713 47.370, 46.506 47.191, 46.435 47.301 C 46.363 47.410, 46.723 51.775, 47.235 57 C 49.196 77.024, 46.670 105.398, 41.871 117.250 C 40.493 120.653, 38.419 120.807, 37.606 117.565 C 36.846 114.540, 38.375 91.860, 41.115 65.500 C 42.819 49.109, 42.985 44.564, 42.039 40.311 C 39.492 28.866, 34.128 26.994, 25.908 34.682 M 164.813 48.683 C 165.534 48.972, 166.397 48.936, 166.729 48.604 C 167.061 48.272, 166.471 48.036, 165.417 48.079 C 164.252 48.127, 164.015 48.364, 164.813 48.683 M 42.739 78 C 41.797 88.175, 40.801 100.325, 40.526 105 L 40.026 113.500 42.096 106.500 C 43.706 101.054, 44.283 95.615, 44.693 82 C 45.427 57.643, 44.752 56.261, 42.739 78 M 131.441 73.269 C 131.819 75.892, 133.271 80.535, 134.668 83.587 C 137.493 89.757, 138.574 95.577, 137.609 99.421 C 136.712 102.996, 131.714 108.391, 126.434 111.486 C 123.926 112.956, 122.240 114.580, 122.607 115.173 C 123.240 116.197, 135.304 122.021, 139.604 123.378 C 141.428 123.954, 142.084 123.209, 144.540 117.771 C 146.933 112.472, 147.357 110.261, 147.280 103.500 C 147.140 91.315, 142.058 79.133, 133.918 71.476 L 130.754 68.500 131.441 73.269" stroke="none" fill="black" fill-rule="evenodd"/>
</svg>