<svg xmlns="http://www.w3.org/2000/svg" width="200" height="200" viewBox="0 0 200 200" version="1.1">
	<path d="M 115.500 14.555 C 109.450 15.277, 102.131 15.898, 99.236 15.934 C 96.341 15.970, 93.191 16.422, 92.236 16.938 C 91.281 17.454, 83.750 18.837, 75.500 20.011 C 56.578 22.706, 56.291 22.779, 55.688 25.085 C 55.364 26.323, 54.310 27, 52.705 27 C 51.341 27, 46.461 28.077, 41.862 29.394 C 37.263 30.711, 32.132 32.076, 30.460 32.427 C 24.730 33.632, 20.991 36.784, 18.183 42.776 L 15.500 48.500 15.308 90 C 15.203 112.825, 15.036 132.625, 14.938 134 C 14.695 137.405, 18.613 147.387, 21.575 150.906 C 27.017 157.374, 31.759 156.071, 48.454 143.515 C 59.733 135.033, 63.952 132.675, 69.408 131.804 C 72.408 131.326, 73.231 135.704, 73.895 155.678 C 74.440 172.059, 74.708 174.135, 76.606 176.678 C 82.260 184.254, 88.025 180.199, 109.723 153.391 C 126.393 132.794, 124.807 133.806, 129.570 140.724 C 131.731 143.863, 134.728 147.119, 136.229 147.959 C 138.767 149.380, 139.104 149.341, 141.050 147.394 C 144.047 144.397, 144.929 139.530, 145.653 122 C 146.503 101.374, 146.901 100.528, 150.887 110.862 C 155.842 123.713, 155.854 123.360, 150.059 136.862 C 143.103 153.072, 140.259 164.584, 141.878 169.986 C 143.162 174.272, 146.844 177, 151.345 177 C 154.702 177, 166.519 173.269, 172.095 170.448 L 176.689 168.124 177.595 150.812 C 178.093 141.290, 178.500 126.075, 178.500 117 C 178.500 100.994, 178.418 100.335, 175.747 95 C 174.233 91.975, 171.883 88.701, 170.526 87.725 C 167.202 85.334, 160.189 84.137, 154.537 84.994 L 149.900 85.698 152.776 82.599 C 164.849 69.586, 172.067 54.224, 172.149 41.365 C 172.223 29.903, 167.479 21.610, 157.612 15.951 C 152.640 13.099, 152.143 13.022, 139.500 13.130 C 132.350 13.191, 121.550 13.832, 115.500 14.555 M 135 15.646 C 133.075 15.826, 125.875 16.477, 119 17.093 C 112.125 17.709, 105.971 18.503, 105.325 18.857 C 104.548 19.282, 105.354 20.813, 107.702 23.374 L 111.254 27.247 124.877 23.999 C 141.600 20.011, 149.801 17.122, 147.870 15.899 C 146.542 15.057, 142.224 14.973, 135 15.646 M 152.656 17.750 C 152.403 18.163, 148.575 26.643, 144.151 36.596 C 137.272 52.071, 136.123 55.436, 136.223 59.829 C 136.345 65.160, 134.627 68.349, 131.016 69.495 C 129.919 69.843, 127.217 75.172, 123.565 84.186 C 118.633 96.361, 117.793 99.388, 117.531 105.916 C 117.183 114.594, 113.764 125.851, 108.338 136.176 C 104.685 143.128, 102.375 145.141, 101.291 142.316 C 100.286 139.697, 102.390 131.571, 107.978 116.491 C 110.829 108.796, 113.385 101.783, 113.657 100.907 C 113.979 99.868, 112.369 97.821, 109.031 95.026 L 103.911 90.740 95.397 93.028 C 78.402 97.595, 72 104.031, 72 116.552 C 72 119.922, 72.975 126.240, 74.167 130.590 C 75.941 137.067, 76.351 141.399, 76.429 154.500 C 76.536 172.501, 77.506 176.267, 82.172 176.808 C 85.643 177.211, 92.917 170.095, 107.019 152.500 C 112.750 145.350, 119.432 137.357, 121.868 134.737 L 126.298 129.974 129.744 135.737 C 139.555 152.143, 141.458 149.903, 142.987 120.145 C 143.873 102.889, 144.637 99, 147.137 99 C 148.780 99, 151.983 105.416, 155.158 115.068 L 158.306 124.636 153.091 136.788 C 144.019 157.928, 142.028 168.028, 146.127 172.127 C 147.930 173.930, 149.051 174.171, 153.488 173.713 C 156.368 173.416, 162.092 171.771, 166.209 170.057 L 173.695 166.940 174.358 154.220 C 174.723 147.224, 175.449 135.260, 175.971 127.632 C 177.065 111.663, 176.089 101.055, 172.963 94.927 C 169.019 87.196, 158.792 85.117, 146.733 89.593 C 140.561 91.884, 138.249 92.312, 136.267 91.531 C 134.912 90.997, 135.650 90.394, 139.435 88.944 C 151.219 84.428, 165.750 63.927, 169.047 47.166 C 171.248 35.979, 167.216 25.617, 158.307 19.563 C 154.303 16.842, 153.395 16.550, 152.656 17.750 M 95.436 19.709 C 92.015 20.144, 87.652 25.683, 90.189 26.372 C 110.996 32.024, 124.401 39.281, 131 48.465 C 132.375 50.379, 133.725 51.941, 134 51.937 C 134.427 51.930, 145.794 26.670, 147.542 21.843 C 148.054 20.429, 146.848 20.592, 139.321 22.951 C 134.470 24.472, 125.810 26.737, 120.079 27.983 L 109.658 30.250 107.606 27.375 C 105.107 23.872, 100.027 18.941, 99.144 19.160 C 98.790 19.248, 97.121 19.495, 95.436 19.709 M 74.314 22.864 C 68.711 23.764, 63.913 24.725, 63.651 25 C 63.390 25.275, 68.349 25.465, 74.672 25.423 C 83.461 25.364, 86.380 25.011, 87.069 23.923 C 89.227 20.513, 89.049 20.498, 74.314 22.864 M 53.844 29.550 C 44.596 31.039, 31.786 34.505, 27 36.812 C 18.812 40.760, 16.735 52.449, 18.259 86 C 18.746 96.725, 18.799 111.125, 18.377 118 C 17.332 135.011, 17.458 136.986, 19.940 142.598 C 25.313 154.745, 29.781 154.921, 44 143.548 C 54.414 135.219, 61.079 130.971, 65.657 129.747 L 69.928 128.604 69.242 122.552 C 68.298 114.230, 68.336 94.393, 69.329 76.837 L 70.159 62.175 63.329 56.540 C 59.573 53.441, 55.038 50.042, 53.250 48.986 L 50 47.067 49.995 62.284 C 49.987 90.985, 47.470 119.974, 44.846 121.595 C 42.790 122.866, 41.925 120.101, 40.807 108.680 C 39.843 98.847, 39.918 95.239, 41.285 85.755 C 42.177 79.565, 43.213 68.650, 43.587 61.500 C 44.093 51.819, 44.733 47.629, 46.093 45.090 C 47.098 43.214, 47.726 41.366, 47.489 40.983 C 47.016 40.217, 55.304 35.395, 61.297 32.949 C 64.871 31.490, 64.990 31.306, 63.299 29.857 C 61.736 28.519, 60.496 28.479, 53.844 29.550 M 66.722 29.122 C 67.525 29.925, 69.219 29.959, 72.672 29.241 L 77.500 28.236 71.550 28.118 C 67.151 28.031, 65.893 28.293, 66.722 29.122 M 73.500 31.713 C 70.262 32.492, 70.068 33.220, 71.571 38.968 C 72.357 41.975, 73 48.118, 73 52.619 L 73 60.802 78.886 65.901 C 82.123 68.705, 84.972 71, 85.216 71 C 85.461 71, 85.072 68.188, 84.351 64.750 C 82.889 57.774, 82.650 41.762, 83.909 35.250 L 84.731 31 80.116 31.116 C 77.577 31.180, 74.600 31.448, 73.500 31.713 M 86.468 36.414 C 86.077 39.541, 85.970 47.365, 86.231 53.800 C 86.804 67.969, 88.799 74.226, 94.254 78.958 C 98.884 82.974, 101.304 82.605, 107.444 76.945 L 111.769 72.958 112.420 76.426 C 113.177 80.461, 111.129 86.228, 108.344 87.907 C 106.646 88.930, 106.810 89.294, 110.417 92.509 C 112.571 94.429, 114.648 96, 115.032 96 C 115.417 96, 118.007 90.487, 120.788 83.750 L 125.846 71.500 121.673 71 C 118.196 70.583, 117.550 70.166, 117.800 68.500 C 119.009 60.431, 119.096 51.822, 118.002 48.506 C 115.083 39.663, 104.692 32.363, 93.539 31.321 L 87.178 30.727 86.468 36.414 M 56.750 38.147 C 52.487 40.394, 49 42.608, 49 43.069 C 49 43.529, 50.462 44.605, 52.250 45.459 C 54.038 46.314, 58.650 49.461, 62.500 52.453 C 70.648 58.785, 70.895 58.610, 69.879 47.196 C 69.112 38.583, 67.679 33.985, 65.775 34.031 C 65.074 34.048, 61.013 35.900, 56.750 38.147 M 118.810 43.731 C 121.231 48.023, 121.496 49.475, 121.461 58.250 L 121.422 68 124.461 67.983 C 127.166 67.968, 127.748 67.391, 129.756 62.733 C 130.997 59.855, 132.009 56.777, 132.006 55.894 C 131.997 53.391, 125.747 45.843, 120.693 42.231 L 116.119 38.961 118.810 43.731 M 45.994 63.750 C 45.991 69.112, 45.316 77.961, 44.494 83.413 C 42.879 94.126, 42.600 104.144, 43.739 110.500 L 44.455 114.500 45.162 109 C 46.164 101.191, 47.448 54, 46.657 54 C 46.296 54, 45.997 58.388, 45.994 63.750 M 132.144 63.750 C 131.053 66.300, 131.078 66.359, 132.484 64.559 C 133.318 63.491, 134 62.254, 134 61.809 C 134 60.289, 133.322 60.999, 132.144 63.750 M 72.669 69.772 C 72.348 72.372, 71.799 81.475, 71.448 90 L 70.810 105.500 73.379 101.841 C 76.372 97.579, 84.560 93.153, 94.363 90.500 C 101.536 88.558, 101.800 87.499, 95.871 84.433 C 94.345 83.644, 89.957 79.903, 86.120 76.119 C 82.284 72.335, 77.819 68.295, 76.198 67.141 L 73.252 65.043 72.669 69.772 M 105.247 82.019 C 101.610 84.354, 101.211 84.930, 102.492 85.993 C 103.699 86.995, 104.461 86.928, 106.419 85.645 C 108.565 84.239, 110.767 80.329, 109.841 79.569 C 109.654 79.414, 107.586 80.517, 105.247 82.019 M 113.057 110.199 C 107.159 126.776, 104.006 136.518, 104.276 137.328 C 104.850 139.049, 111.159 123.740, 113.200 115.674 C 115.235 107.634, 115.148 104.321, 113.057 110.199" stroke="none" fill="black" fill-rule="evenodd"/>
</svg>