<svg xmlns="http://www.w3.org/2000/svg" width="200" height="200" viewBox="0 0 200 200" version="1.1">
	<path d="M 140.402 13.997 C 131.523 15.299, 124.944 18.105, 120.343 22.552 C 119.707 23.167, 115.657 24.423, 111.343 25.343 C 92.265 29.413, 83.499 30.238, 55 30.650 C 23.578 31.103, 23.616 31.095, 19.717 37.753 C 15.416 45.096, 14.576 53.630, 15.016 85.500 C 15.243 102, 15.445 123.061, 15.465 132.302 C 15.499 148.649, 15.554 149.086, 17.500 148.447 C 18.600 148.086, 26.475 147.468, 35 147.073 C 52.111 146.282, 56.119 145.181, 61.838 139.699 C 63.673 137.940, 66.069 134.765, 67.162 132.644 C 69.450 128.204, 71.957 117.279, 71.983 111.642 C 71.999 107.940, 72.112 107.810, 74.750 108.450 C 83.959 110.684, 92.672 117.937, 96.849 126.845 C 99.163 131.782, 99.500 133.770, 99.500 142.500 C 99.500 151.215, 99.161 153.222, 96.865 158.120 C 90.993 170.642, 83.069 176.565, 66.224 181.022 C 57.624 183.298, 54 184.691, 54 185.722 C 54 187.724, 62.132 186.633, 71.500 183.374 C 96.566 174.655, 131.826 171.123, 161.500 174.359 C 170.094 175.296, 175.860 175.528, 176.433 174.960 C 176.947 174.450, 177.172 173.913, 176.933 173.767 C 176.695 173.620, 173.898 172.200, 170.717 170.610 C 163.016 166.762, 156.570 159.546, 155.005 153.019 C 152.765 143.684, 154.725 136.160, 166.622 108.433 C 172.832 93.960, 174.334 89.473, 174.408 85.175 C 174.492 80.314, 174.195 79.570, 171 76.642 C 168.819 74.643, 164.768 72.573, 160.250 71.147 C 154.301 69.271, 153 68.486, 153 66.776 C 153 64.255, 158.749 58.765, 169.368 51.146 L 177.237 45.500 172.966 44.576 C 168.909 43.698, 161.640 44.588, 156.594 46.581 C 154.936 47.236, 155.037 46.759, 157.376 42.917 C 168.061 25.361, 171.143 17.248, 166.103 19.945 C 165.044 20.512, 160.279 25.616, 155.514 31.287 L 146.851 41.598 140.022 39.307 C 136.266 38.047, 129.779 36.509, 125.607 35.888 C 118.117 34.774, 118.030 34.727, 118.649 32.130 C 119.847 27.109, 120.984 26.233, 130.219 23.221 C 143.354 18.936, 149 16.325, 149 14.536 C 149 12.889, 148.269 12.844, 140.402 13.997 M 132.676 18.452 C 128.332 20.001, 126.191 21.640, 130 20.501 C 133.712 19.390, 138.648 17.169, 137.500 17.125 C 136.950 17.105, 134.779 17.702, 132.676 18.452 M 155.474 35.500 C 151.228 40.725, 147.622 45, 147.460 45 C 147.298 45, 145.093 44.112, 142.560 43.026 C 137.293 40.768, 123.076 37.684, 120.189 38.172 C 118.343 38.484, 118.319 38.761, 119.667 43.991 C 121.110 49.589, 127.544 63.379, 129.449 64.955 C 130.105 65.498, 133.679 63.229, 138.967 58.913 C 143.623 55.111, 147.771 52, 148.184 52 C 148.597 52, 151.487 47.612, 154.607 42.250 C 157.727 36.888, 161.154 31.038, 162.222 29.250 C 165.502 23.759, 163.532 25.584, 155.474 35.500 M 106.500 29.064 C 101.550 30.070, 92.191 31.450, 85.702 32.131 L 73.904 33.369 82.138 36.045 C 89.859 38.554, 90.689 38.637, 95.436 37.374 C 98.221 36.633, 103.987 35.731, 108.250 35.369 C 114.419 34.847, 116.003 34.385, 116.014 33.106 C 116.021 32.223, 116.299 30.488, 116.630 29.250 C 116.962 28.012, 116.843 27.053, 116.367 27.117 C 115.890 27.182, 111.450 28.057, 106.500 29.064 M 24.643 36.157 C 17.636 43.164, 16.625 56.098, 18 121.155 L 18.500 144.811 32.786 144.474 C 49.478 144.080, 55.029 142.638, 60.356 137.311 C 65.300 132.367, 68.105 124.465, 68.756 113.645 L 69.289 104.791 73.056 105.393 C 88.889 107.925, 101.419 122.275, 102.711 139.356 C 103.603 151.154, 99.910 161.435, 91.366 170.938 C 88.141 174.525, 87.214 176.077, 88.536 175.680 C 92.676 174.433, 109.002 172.003, 120.500 170.922 C 131.711 169.867, 152.858 170.263, 162.500 171.707 L 166.500 172.306 161.329 167.631 C 154.215 161.200, 151.769 155.823, 151.809 146.705 C 151.849 137.710, 153.848 131.230, 163.666 108.264 C 167.844 98.494, 171.476 88.679, 171.738 86.454 C 172.448 80.418, 168.865 76.624, 159.876 73.894 C 152.369 71.614, 150 69.943, 150 66.931 C 150 64.365, 156.011 57.834, 164 51.721 L 170.500 46.748 165.720 47.254 C 163.090 47.533, 158.873 48.827, 156.349 50.131 C 152.222 52.261, 150.967 53.863, 143.929 66 C 139.623 73.425, 136.084 79.950, 136.065 80.500 C 136.045 81.050, 138.282 82.743, 141.036 84.262 C 147.499 87.826, 150.212 92.750, 147.942 96.795 C 145.010 102.018, 137.732 105.497, 127.250 106.685 C 124.362 107.012, 122 107.602, 122 107.997 C 122 108.391, 128.412 110.612, 136.250 112.933 C 144.088 115.254, 151.328 117.470, 152.340 117.857 C 153.824 118.423, 152.346 119.861, 144.726 125.262 C 127.839 137.233, 119.279 140.723, 114.496 137.589 C 111.010 135.305, 111.128 128.608, 114.842 118.115 L 117.683 110.085 114.692 109.043 C 113.047 108.469, 108.823 108, 105.304 108 C 99.698 108, 97.984 107.494, 91.458 103.912 C 87.361 101.664, 83.732 99.375, 83.392 98.825 C 81.575 95.885, 85.628 96.350, 98.006 100.502 C 105.463 103.003, 113.290 105, 115.636 105 L 119.855 105 125.436 94.314 C 129.438 86.651, 130.674 83.417, 129.807 82.880 C 127.317 81.342, 113.385 80.738, 106.005 81.849 C 89.520 84.331, 89 84.355, 89 82.614 C 89 81.681, 88.178 81, 87.054 81 C 84.247 81, 73.138 74.292, 68.750 69.948 C 65.611 66.840, 65 65.557, 65 62.068 C 65 56.704, 66.927 53.075, 72.147 48.607 C 74.456 46.630, 76.155 44.839, 75.923 44.626 C 74.371 43.210, 64.689 39, 62.984 39 C 57.494 39, 52.192 44.598, 48.525 54.265 C 46.886 58.583, 46.800 60.785, 47.608 77.765 C 48.625 99.126, 48.403 113.810, 47.008 117.480 C 45.543 121.333, 43.246 120.569, 41.812 115.750 C 39.876 109.244, 40.152 76.657, 42.233 66 C 43.146 61.325, 44.164 55.093, 44.494 52.151 C 45.307 44.911, 47.623 39.495, 51.187 36.496 L 54.153 34 44.827 33.989 C 39.697 33.983, 33.824 33.701, 31.777 33.362 C 28.477 32.817, 27.664 33.136, 24.643 36.157 M 56.500 36.336 C 52.811 38.046, 50.492 40.572, 49.003 44.502 C 47.959 47.259, 48.163 47.156, 51.534 43.224 C 55.471 38.633, 59.641 36, 62.975 36 C 64.116 36, 68.236 37.604, 72.130 39.565 C 78.963 43.006, 79.336 43.080, 82.846 41.680 L 86.483 40.229 79.491 38.052 C 70.437 35.232, 60.483 34.489, 56.500 36.336 M 100.112 39.081 C 97.698 39.555, 95.549 40.117, 95.336 40.331 C 95.123 40.544, 98.897 42.445, 103.724 44.556 C 110.352 47.455, 113.668 49.626, 117.274 53.428 L 122.047 58.462 119.548 52.312 C 118.174 48.929, 116.756 44.325, 116.397 42.081 L 115.744 38 110.122 38.110 C 107.030 38.170, 102.525 38.607, 100.112 39.081 M 85.500 43.369 L 82.500 44.648 91.571 49.333 C 107.460 57.539, 108.563 60.452, 96.173 61.482 C 85.336 62.383, 83.447 62.848, 81.383 65.129 C 79.611 67.087, 79.630 67.279, 82.029 71.820 C 85.422 78.240, 88.419 79.538, 99.382 79.337 C 107.403 79.190, 108.954 78.827, 115.382 75.600 C 119.297 73.635, 123.597 71.167, 124.938 70.117 L 127.376 68.208 119.701 59.753 C 112.461 51.779, 111.427 51.035, 101.470 46.649 C 89.880 41.544, 89.813 41.531, 85.500 43.369 M 73.529 51.080 C 64.538 59.368, 65.658 66.159, 77.193 73.304 L 79.886 74.971 78.870 72.056 C 75.961 63.713, 80.050 59.849, 92.477 59.197 C 97.165 58.951, 101 58.397, 101 57.967 C 101 56.921, 81.608 47, 79.563 47 C 78.679 47, 75.963 48.836, 73.529 51.080 M 137.500 63.558 C 133.100 67.161, 126.937 71.833, 123.804 73.941 C 120.672 76.050, 118.384 78.051, 118.721 78.388 C 119.058 78.724, 121.171 79.045, 123.417 79.100 C 125.662 79.155, 128.625 79.517, 130 79.904 C 132.295 80.551, 132.854 79.989, 136.814 73.055 C 139.187 68.900, 142.244 63.587, 143.606 61.250 C 144.969 58.913, 145.953 57.002, 145.792 57.005 C 145.631 57.007, 141.900 59.956, 137.500 63.558 M 43.750 77.577 C 42.772 78.563, 42.885 106.311, 43.888 111.500 C 44.661 115.499, 44.662 115.498, 45.418 109 C 46.264 101.733, 44.919 76.398, 43.750 77.577 M 131.720 88.250 C 128.533 93.732, 124 102.743, 124 103.596 C 124 104.992, 134.743 102.804, 139.749 100.387 C 145.765 97.483, 147.222 94.514, 144.596 90.506 C 143.273 88.487, 136.403 84, 134.635 84 C 134.390 84, 133.078 85.912, 131.720 88.250 M 97.500 104 C 97.840 104.550, 99.104 104.968, 100.309 104.930 C 102.421 104.862, 102.428 104.829, 100.500 104 C 97.748 102.817, 96.769 102.817, 97.500 104 M 118.201 116.701 C 111.930 133.997, 113.709 138.900, 124.628 134.407 C 128.481 132.821, 148.423 120.038, 147.818 119.542 C 147.643 119.398, 141.875 117.585, 135 115.511 C 128.125 113.438, 122.006 111.553, 121.402 111.322 C 120.798 111.091, 119.357 113.512, 118.201 116.701" stroke="none" fill="black" fill-rule="evenodd"/>
</svg>