<svg xmlns="http://www.w3.org/2000/svg" width="200" height="200" viewBox="0 0 200 200" version="1.1">
	<path d="M 135.500 13.661 C 126.424 14.887, 64.624 21.081, 60.671 21.160 C 57.051 21.233, 56 21.622, 56 22.890 C 56 23.790, 56.982 24.970, 58.183 25.513 C 60.230 26.439, 66.037 35.928, 67.422 40.610 C 67.939 42.359, 66.548 43.938, 59.310 49.814 C 54.506 53.716, 50.419 56.752, 50.228 56.562 C 50.038 56.371, 50.584 52.517, 51.441 47.997 C 53.500 37.145, 53.413 34.795, 50.832 31.514 C 48.733 28.845, 48.444 28.778, 41.582 29.369 C 24.700 30.824, 20.404 32.384, 17.427 38.142 C 14.349 44.093, 13.881 53.045, 15.490 75.179 C 17.046 96.598, 16.963 99.166, 14.303 111.831 C 11.103 127.065, 13.842 142.097, 21.203 149.704 C 29.604 158.386, 38.386 152.450, 41.171 136.208 L 42.389 129.105 45.589 133.856 C 50.084 140.531, 55.445 145, 58.958 145 C 63.443 145, 67.595 140.099, 70.242 131.681 C 72.216 125.404, 72.500 122.360, 72.500 107.500 C 72.500 96.155, 72.049 88.949, 71.145 85.838 C 69.956 81.748, 70.002 80.336, 71.526 74.338 C 73.415 66.902, 73.729 52.626, 72.122 47.273 C 71.157 44.059, 71.181 44.029, 78.338 39.568 C 92.426 30.788, 108.097 24.906, 121.500 23.368 L 127.500 22.680 120.500 28.002 C 114.589 32.495, 111.399 34.005, 100 37.704 C 81.694 43.643, 80.747 44.813, 90.321 49.661 C 93.169 51.103, 96.890 53.343, 98.589 54.638 C 102.758 57.815, 107.077 66.017, 107.310 71.201 L 107.500 75.410 96.500 82.142 C 90.450 85.845, 85.362 89.539, 85.193 90.350 C 85.018 91.195, 86.942 93.219, 89.693 95.085 C 92.337 96.877, 96.607 100.082, 99.181 102.207 C 104.572 106.657, 104.590 106.959, 100.356 121.782 C 95.188 139.875, 87.172 151.952, 67.537 171.235 C 52.136 186.359, 51.890 188.040, 65.900 182.432 C 89.718 172.899, 109.429 156.548, 120.066 137.500 C 123.950 130.545, 125.327 126.965, 128.516 115.536 C 129.787 110.981, 130.395 109.954, 131.086 111.189 C 131.584 112.079, 133.819 120.990, 136.053 130.992 C 140.491 150.866, 144.068 162.028, 148.329 169.299 C 151.942 175.463, 154.954 177.404, 159.883 176.743 C 165.158 176.035, 168.597 173.542, 171.791 168.108 C 175.444 161.893, 175.660 150.854, 172.262 143.960 C 169.114 137.572, 162.602 131.350, 155 127.467 C 148.212 123.999, 142.034 117.760, 137.449 109.741 C 131.775 99.817, 135.281 97.297, 157.935 95.018 C 170.674 93.736, 174.366 91.968, 174.796 86.942 C 175.013 84.405, 174.254 82.217, 171.951 78.740 L 168.810 73.997 164.155 78.103 C 151.242 89.491, 141.746 89.735, 136.978 78.799 C 135.014 74.294, 134.673 71.851, 134.706 62.500 C 134.737 53.610, 137.058 36.645, 138.435 35.237 C 138.577 35.092, 141.295 36.125, 144.475 37.531 C 153.622 41.577, 162.505 43.345, 165.796 41.775 C 174.993 37.388, 162.410 25.202, 145.021 21.655 L 138.959 20.418 143.555 18.185 C 146.097 16.951, 147.970 15.405, 147.747 14.726 C 147.335 13.473, 140.982 12.920, 135.500 13.661 M 100.500 20.056 C 81.250 22.165, 64.753 23.914, 63.841 23.945 C 62.478 23.990, 62.851 25.294, 65.929 31.250 C 67.989 35.237, 69.879 39.117, 70.128 39.872 C 70.463 40.885, 72.097 40.273, 76.387 37.529 C 91.254 28.019, 110.008 21.404, 125.149 20.329 C 130.191 19.971, 135.513 18.956, 137.701 17.935 L 141.500 16.162 138.500 16.193 C 136.850 16.209, 119.750 17.948, 100.500 20.056 M 129 25.517 C 126.525 26.961, 122.462 29.853, 119.972 31.943 C 116.366 34.971, 112.650 36.619, 101.722 40.040 C 94.175 42.402, 88 44.633, 88 44.997 C 88 45.360, 90.216 46.696, 92.925 47.965 C 102.191 52.305, 109.218 61.924, 110.599 72.159 L 111.185 76.500 101.343 82.430 C 86.241 91.528, 87.192 90.272, 92.712 93.822 C 95.345 95.516, 99.583 99.062, 102.129 101.701 L 106.759 106.500 105.302 113.500 C 102.369 127.592, 96.613 141.199, 89.250 151.448 C 87.254 154.227, 80.193 162.045, 73.560 168.822 L 61.500 181.145 67 179.006 C 83.501 172.591, 101.429 159.186, 111.596 145.660 C 117.870 137.315, 121.529 129.763, 124.631 118.757 C 127.622 108.148, 129.075 105.941, 131.904 107.708 C 133.656 108.802, 133.709 108.661, 132.736 105.493 C 131.893 102.745, 132.023 101.615, 133.427 99.471 C 135.965 95.598, 140.354 94.196, 155.022 92.572 C 167.687 91.170, 173 89.482, 173 86.863 C 173 86.263, 172.022 84.033, 170.828 81.907 L 168.655 78.042 164.498 81.448 C 154.334 89.777, 144.739 91.906, 139.483 87 C 138.010 85.625, 135.837 82.700, 134.653 80.500 C 132.696 76.864, 132.511 75.090, 132.618 61 C 132.710 48.811, 133.160 44.005, 134.723 38.500 C 135.817 34.650, 137.114 31.602, 137.606 31.728 C 138.098 31.853, 142.485 33.584, 147.356 35.575 C 152.566 37.704, 158.124 39.257, 160.856 39.347 C 165.159 39.489, 165.500 39.320, 165.500 37.051 C 165.500 31.869, 151.356 24.591, 139 23.415 C 134.309 22.969, 132.838 23.279, 129 25.517 M 34 32.695 C 23.976 34.666, 21.855 35.811, 19.524 40.514 C 17.226 45.148, 17.020 53.329, 18.402 85 C 19.154 102.245, 19.051 105.184, 17.507 110.415 C 15.023 118.836, 15.194 131.904, 17.882 139 C 22.478 151.132, 31.061 154.584, 35.463 146.072 C 38.037 141.094, 38.873 134.988, 39.374 117.500 C 40.003 95.526, 42.789 67.374, 44.718 63.500 C 46.516 59.888, 49.992 42.969, 49.997 37.807 C 49.999 35.121, 49.393 33.689, 47.777 32.557 C 45.166 30.728, 43.943 30.740, 34 32.695 M 64.984 48.738 C 56.558 55.157, 49.742 61.550, 48.866 63.852 C 47.741 66.811, 47.450 85.219, 48.455 89.797 C 49.004 92.292, 48.827 93, 47.656 93 C 46.619 93, 45.883 91.370, 45.285 87.750 C 44.468 82.804, 44.347 83.314, 43.209 96.552 C 42.544 104.281, 42.047 112.381, 42.104 114.552 L 42.208 118.500 43.545 114 C 44.280 111.525, 45.375 107.587, 45.979 105.250 C 46.608 102.816, 47.671 101, 48.466 101 C 49.579 101, 49.388 102.748, 47.505 109.783 C 46.212 114.614, 44.618 119.745, 43.962 121.185 C 42.926 123.458, 43.129 124.467, 45.499 128.820 C 49.369 135.932, 55.626 142, 59.088 142 C 68.555 142, 74.013 109.266, 68.332 86.557 C 66.970 81.113, 66.996 80.103, 68.635 74.557 C 70.587 67.955, 71.086 50.763, 69.414 47.775 C 68.557 46.243, 68.138 46.335, 64.984 48.738 M 134.386 111.545 C 134.726 112.670, 136.584 120.770, 138.515 129.545 C 142.857 149.283, 147.207 162.587, 151.339 168.771 C 153.987 172.733, 155.068 173.544, 158 173.772 C 166.379 174.425, 172.561 165.843, 171.802 154.612 C 171.071 143.791, 165.309 135.734, 154.279 130.113 C 148.284 127.057, 141.160 120.409, 136.479 113.500 C 134.988 111.300, 134.046 110.420, 134.386 111.545" stroke="none" fill="black" fill-rule="evenodd"/>
</svg>