<svg xmlns="http://www.w3.org/2000/svg" width="200" height="200" viewBox="0 0 200 200" version="1.1">
	<path d="M 114.606 16.152 C 113.777 17.335, 112.346 21.499, 111.425 25.404 L 109.751 32.505 99.893 31.611 L 90.035 30.717 90.197 24.824 C 90.507 13.592, 84.944 13.183, 78.225 23.945 L 74.500 29.910 46.219 29.955 C 24.517 29.989, 17.839 30.291, 17.517 31.250 C 16.109 35.433, 13.703 71.752, 13.657 89.500 C 13.598 112.686, 15.125 124.703, 19.342 134.238 C 22.643 141.703, 30 147.525, 30 142.673 C 30 140.175, 35.011 134.222, 38.514 132.560 C 40.514 131.611, 46.417 130.431, 51.631 129.938 C 56.845 129.445, 62.702 128.286, 64.645 127.364 C 68.998 125.298, 72.694 119.882, 73.581 114.268 C 74.339 109.472, 75.437 109.436, 76.385 114.175 C 76.739 115.944, 77.506 119.165, 78.090 121.333 L 79.151 125.275 85.415 124.690 L 91.680 124.105 93.340 127.587 C 96.335 133.867, 95.691 135.682, 89.750 137.707 C 74.930 142.759, 66 149.520, 66 155.688 C 66 168.789, 91.491 182.807, 113.500 181.810 C 123.554 181.354, 126.894 179.748, 128.701 174.500 C 131.393 166.680, 133.259 152.251, 133.875 134.500 L 134.500 116.500 136.816 128 C 139.753 142.582, 145.084 153.845, 152.970 162.132 C 158.719 168.174, 161.702 169.300, 165.945 167.029 C 172.903 163.306, 173.630 137.905, 167.155 124.728 L 164.319 118.956 169.382 116.228 C 172.166 114.728, 175.132 112.235, 175.972 110.689 C 177.416 108.033, 177.371 107.773, 175.155 105.952 C 172.037 103.390, 167.982 102.404, 152.500 100.439 C 145.350 99.531, 138.904 98.462, 138.175 98.063 C 137.375 97.624, 139.951 96.453, 144.675 95.107 C 148.979 93.881, 157.675 90.993, 164 88.689 C 177.986 83.594, 178.995 81.812, 168.428 80.868 C 160.632 80.171, 155.664 78.109, 153.918 74.846 C 151.991 71.246, 153.360 62.876, 157.181 54.895 C 160.260 48.464, 164.211 42.426, 173.899 29.345 C 178.604 22.992, 174.883 24.553, 167.108 32.195 C 155.742 43.364, 148.378 46.172, 140.391 42.381 C 136.247 40.415, 132.466 35.777, 127.443 26.500 C 120.358 13.417, 117.906 11.440, 114.606 16.152 M 116.664 17.750 C 115.788 19.199, 113 29.383, 113 31.136 C 113 32.407, 114.062 33.086, 116.750 33.535 C 118.813 33.879, 122.631 34.748, 125.235 35.466 L 129.971 36.772 126.334 30.136 C 119.102 16.939, 118.005 15.534, 116.664 17.750 M 81.581 23.686 C 79.639 26.333, 78.038 28.780, 78.025 29.122 C 77.994 29.888, 86.082 31.251, 86.742 30.592 C 87.826 29.508, 87.448 19.689, 86.307 19.289 C 85.650 19.059, 83.524 21.038, 81.581 23.686 M 19.643 37.250 C 16.334 61.339, 15.379 105.368, 17.871 119 C 19.633 128.643, 22.431 136.122, 25.260 138.754 L 27.500 140.837 29.804 137.150 C 34.076 130.317, 41.958 127, 53.925 127 C 60.537 127, 66.854 123.536, 69.428 118.500 C 71.014 115.397, 71.557 112.072, 71.850 103.668 L 72.227 92.835 61.280 81.668 C 50.740 70.915, 46.515 65.600, 41.407 56.667 L 39.024 52.500 39.012 55.643 C 39.005 57.382, 39.608 59.019, 40.362 59.309 C 41.262 59.654, 42.496 64.695, 44.001 74.166 C 47.645 97.106, 47.046 109.475, 42.512 104.940 C 38.177 100.606, 34.633 70.588, 36.451 53.610 L 37.182 46.785 45.341 42.975 C 52.598 39.585, 58.198 37.595, 70 34.208 C 72.580 33.468, 66.497 33.177, 46.864 33.102 L 20.227 33 19.643 37.250 M 78.250 33.716 C 79.763 33.945, 82.237 33.945, 83.750 33.716 C 85.263 33.487, 84.025 33.300, 81 33.300 C 77.975 33.300, 76.737 33.487, 78.250 33.716 M 89 34.260 C 89 34.569, 91.025 35.802, 93.501 37 C 95.976 38.199, 99.973 41.432, 102.381 44.186 L 106.761 49.193 107.930 42.479 C 108.573 38.787, 108.919 35.586, 108.699 35.366 C 108.049 34.716, 89 33.646, 89 34.260 M 75.342 36.768 C 72.228 38.749, 69.302 58.011, 70.902 66 C 72.455 73.755, 73.815 81.743, 74.481 87.010 C 74.993 91.068, 75.669 92.020, 81.217 96.510 C 84.608 99.254, 89.747 103.660, 92.637 106.300 L 97.890 111.101 98.513 107.300 C 98.855 105.210, 99.347 102.347, 99.605 100.939 C 99.991 98.838, 99.214 97.653, 95.288 94.355 C 92.655 92.143, 88.588 89.074, 86.250 87.534 C 82.136 84.824, 80.859 83, 83.076 83 C 83.667 83, 87.296 84.837, 91.140 87.082 C 94.985 89.327, 98.731 90.934, 99.465 90.652 C 100.200 90.370, 101.100 88.195, 101.466 85.820 C 101.833 83.444, 102.377 80.037, 102.677 78.250 L 103.223 75 95.361 74.994 C 91.038 74.991, 85.841 74.528, 83.814 73.965 C 78.834 72.582, 75 67.887, 75.001 63.173 C 75.002 59.575, 79.209 49.382, 82.856 44.143 C 83.868 42.689, 84.934 40.537, 85.225 39.361 C 85.676 37.539, 85.216 37.133, 82.127 36.622 C 77.491 35.855, 76.751 35.871, 75.342 36.768 M 111.542 38.250 C 111.269 39.487, 110.563 43.325, 109.974 46.777 C 108.992 52.530, 109.079 53.302, 111.018 56.025 C 113.561 59.597, 117.269 60.729, 120.595 58.949 C 124.507 56.855, 134 46.340, 134 44.100 C 134 41.617, 130.625 39.735, 122.311 37.581 C 113.974 35.420, 112.141 35.534, 111.542 38.250 M 62.908 39.024 C 54.139 41.528, 41 47.578, 41 49.112 C 41 54.030, 57.994 76.657, 67.597 84.526 L 71.880 88.036 71.368 84.268 C 71.086 82.196, 70.403 78.250, 69.850 75.500 C 66.873 60.696, 67.064 50.739, 70.513 40.964 C 72.149 36.326, 72.259 36.354, 62.908 39.024 M 88 39.768 C 88 40.740, 86.845 43.236, 85.433 45.314 C 81.239 51.485, 78.020 59.247, 78.010 63.211 C 77.991 70.344, 84.052 72.865, 99.570 72.180 L 103.640 72 104.842 62.975 C 105.724 56.349, 105.750 53.401, 104.939 51.886 C 102.871 48.022, 96.646 41.860, 92.858 39.928 C 88.230 37.567, 88 37.559, 88 39.768 M 157.526 43.504 C 152.111 46.829, 145.893 47.654, 140.930 45.705 C 137.558 44.380, 137 44.365, 137 45.600 C 137 48.153, 122.795 61.683, 119.323 62.437 C 116.033 63.151, 110 60.911, 110 58.974 C 110 58.438, 109.600 58, 109.110 58 C 108.404 58, 105.824 70.978, 106.389 71.685 C 106.471 71.787, 109.904 71.444, 114.019 70.921 C 132.195 68.614, 131.293 73.792, 111.240 86.876 C 103.967 91.621, 103 92.602, 103 95.232 C 103 96.966, 104.065 99.477, 105.548 101.239 C 115.059 112.543, 114.569 124.440, 104.240 132.954 L 100.629 135.930 103.326 143.715 C 106.423 152.654, 106.663 155.532, 104.382 156.407 C 103.298 156.823, 101.318 155.581, 98.382 152.645 C 94.502 148.765, 94 147.747, 94 143.756 L 94 139.248 87.474 141.617 C 74.217 146.429, 68.996 150.462, 69.004 155.885 C 69.015 163.805, 81.516 173.280, 97.500 177.484 C 104.277 179.266, 118.262 179.611, 122.251 178.095 C 127.729 176.012, 130.955 156.509, 130.982 125.309 C 130.999 105.512, 131.542 101.209, 133.746 103.412 C 134.082 103.749, 136.311 112.655, 138.699 123.202 C 143.219 143.168, 145.716 149.333, 152.997 158.500 C 160.396 167.816, 164.856 167.743, 167.613 158.259 C 171.349 145.407, 167.183 124.339, 160.216 120.860 L 156.933 119.220 163.701 116.053 C 170.564 112.841, 174 110.419, 174 108.794 C 174 106.939, 167.002 105.154, 151.500 103.056 C 133.902 100.674, 130.708 99.341, 134.713 96.055 C 135.931 95.056, 140.642 93.236, 145.184 92.011 C 149.726 90.785, 156.830 88.529, 160.971 86.998 L 168.500 84.213 164.500 83.471 C 153.982 81.521, 149.258 75.910, 150.353 66.665 C 150.951 61.619, 156.177 49.369, 160.056 43.921 C 162.549 40.421, 162.545 40.420, 157.526 43.504 M 39.115 72.119 C 38.999 80.792, 41.253 96.904, 43 99.892 C 44.450 102.375, 44.242 95.866, 42.451 82.801 C 39.883 64.060, 39.250 62.033, 39.115 72.119 M 111.756 73.735 C 106.272 74.168, 105.547 75.095, 104.681 82.782 C 104.234 86.758, 104.385 87.889, 105.293 87.355 C 110.211 84.466, 120.846 76.865, 122.405 75.125 L 124.310 73 120.405 73.180 C 118.257 73.279, 114.365 73.529, 111.756 73.735 M 75 96.899 C 75 98.209, 75.487 98.750, 76.364 98.414 C 78.298 97.672, 82.755 102.743, 88.084 111.751 C 92.923 119.930, 96.158 121.918, 96.835 117.130 C 97.225 114.373, 93.401 110.110, 82.250 100.869 C 76.254 95.900, 75 95.214, 75 96.899 M 77 102.935 C 77 104.724, 79.884 117.565, 80.866 120.148 C 81.681 122.292, 82.353 122.670, 84.678 122.294 C 90.168 121.406, 90.211 121.334, 87.909 116.821 C 83.065 107.328, 77 99.606, 77 102.935 M 101.953 103.128 C 101.928 103.882, 101.074 110.575, 100.057 118 C 99.039 125.425, 98.555 131.872, 98.981 132.327 C 100.098 133.521, 106.496 127.581, 108.389 123.593 C 110.587 118.961, 110.400 115.400, 107.649 109.500 C 105.131 104.098, 102.038 100.638, 101.953 103.128 M 95.667 122.667 C 95.300 123.033, 95 123.798, 95 124.367 C 95 124.993, 95.466 124.934, 96.183 124.217 C 96.834 123.566, 97.134 122.801, 96.850 122.517 C 96.566 122.233, 96.033 122.300, 95.667 122.667 M 96.815 142.148 C 96.454 145.932, 96.809 146.905, 99.674 149.984 C 103.621 154.225, 104.004 152.637, 100.928 144.787 C 98.111 137.597, 97.298 137.076, 96.815 142.148" stroke="none" fill="black" fill-rule="evenodd"/>
</svg>