<svg xmlns="http://www.w3.org/2000/svg" width="200" height="200" viewBox="0 0 200 200" version="1.1">
	<path d="M 173 22.330 C 169.975 23.585, 165.700 25.749, 163.500 27.138 C 161.300 28.527, 151.309 33.843, 141.297 38.951 C 122.463 48.561, 118.743 51.143, 120.790 53.190 C 121.648 54.048, 124.628 54.041, 132.717 53.165 C 150.403 51.249, 164.654 52.264, 165.641 55.510 C 165.806 56.054, 158.631 66.175, 149.696 78 L 133.450 99.500 126.896 99.202 C 121.621 98.962, 119.877 99.279, 117.967 100.825 L 115.594 102.747 118.586 105.624 C 120.231 107.206, 122.317 108.950, 123.222 109.500 C 124.623 110.352, 122.719 113.195, 110.330 128.750 C 97.334 145.068, 95.480 147, 92.820 147 C 88.979 147, 84.546 142.630, 83.101 137.421 C 81.137 130.338, 80.780 118.824, 81.831 96.500 C 82.401 84.400, 82.546 71.283, 82.154 67.350 L 81.441 60.201 88.470 59.743 C 98.081 59.116, 101.945 61.229, 107.232 70 C 114.180 81.528, 119.625 85.724, 125.139 83.802 C 129.715 82.207, 130.697 75.192, 127.060 70.084 C 124.357 66.288, 117.453 63, 112.184 63 C 106.819 63, 106.763 64.547, 112.098 65.400 C 114.352 65.760, 117.717 66.690, 119.576 67.467 C 123.005 68.900, 126.989 74.115, 126.996 77.179 C 127.001 79.228, 124.376 82, 122.431 82 C 119.908 82, 113.539 75.342, 109.571 68.556 C 107.448 64.926, 104.564 61.121, 103.163 60.100 L 100.614 58.244 103.672 57.572 C 107.857 56.653, 111 53.480, 111 50.173 C 111 46.462, 107.030 42.122, 98.072 36.042 C 93.987 33.269, 90.837 30.906, 91.072 30.790 C 91.307 30.675, 103.875 30.338, 119 30.040 C 151.609 29.400, 155.821 27.868, 128 26.769 C 117.825 26.367, 98.250 25.385, 84.500 24.588 C 70.750 23.791, 59.128 23.501, 58.674 23.945 C 58.219 24.389, 60.057 26.961, 62.757 29.661 C 65.914 32.818, 68.260 36.314, 69.330 39.455 C 70.245 42.141, 70.806 44.527, 70.576 44.757 C 70.347 44.987, 67.611 44.646, 64.498 43.999 C 59.361 42.933, 57.032 43.046, 51.750 44.615 C 50.243 45.062, 50 44.422, 50 40.012 L 50 34.890 44.250 32.311 C 36.664 28.908, 27.438 28.574, 23.330 31.552 C 21.774 32.681, 19.473 35.648, 18.219 38.146 C 14.653 45.247, 13.986 55.410, 15.252 83.330 C 16.115 102.364, 16.098 110.091, 15.181 116.435 C 14.320 122.392, 14.261 127.378, 14.973 134.238 C 16.076 144.877, 17.152 148.452, 20.241 151.750 C 23.926 155.684, 27.674 154.771, 39.168 147.142 C 51.109 139.217, 54.270 137.506, 58.750 136.541 C 63.419 135.536, 67.642 136.747, 71.608 140.229 C 73.510 141.899, 75.196 143.094, 75.354 142.883 C 75.512 142.672, 75.189 137.550, 74.637 131.500 C 73.934 123.790, 73.994 111.825, 74.840 91.500 C 75.504 75.550, 75.747 59.688, 75.381 56.250 C 75.008 52.748, 75.107 50.017, 75.608 50.039 C 76.098 50.060, 79.650 51.596, 83.500 53.453 L 90.500 56.828 84.142 56.914 C 77.978 56.997, 77.801 57.072, 78.375 59.357 C 79.799 65.032, 80.108 79.989, 79.194 99 C 77.557 133.036, 79.713 144.201, 88.764 148.548 L 93.028 150.596 84.893 161.048 C 69.978 180.211, 65.095 188.704, 67.971 190.482 C 69.174 191.225, 73.773 188.904, 77.786 185.527 C 79.477 184.104, 86.477 181.069, 93.656 178.646 C 122.723 168.836, 127.082 164.160, 113.151 157.735 C 105.185 154.062, 101 151.288, 101.001 149.682 C 101.003 148.007, 118.677 139.276, 123.623 138.508 C 130.297 137.471, 134.592 139.859, 137.481 146.215 C 138.802 149.122, 140.613 154.433, 141.505 158.018 C 146.191 176.852, 155.138 182.275, 172.645 176.892 C 176.415 175.733, 179.853 174.572, 180.285 174.311 C 180.717 174.051, 178.805 171.995, 176.035 169.742 C 173.266 167.490, 169.325 163.215, 167.278 160.242 C 164.061 155.571, 163.509 153.935, 163.210 148.169 C 162.907 142.314, 163.482 139.636, 167.924 126.225 C 173.822 108.421, 175.421 97.808, 173.962 86.169 C 173.432 81.939, 172.614 77.133, 172.144 75.489 C 171.675 73.845, 171.644 71.600, 172.075 70.500 C 173.445 67.008, 173.079 59.558, 171.422 57.193 C 169.929 55.061, 170.047 54.636, 173.642 49.220 C 179.787 39.964, 185 29.144, 185 25.646 C 185 19.515, 181.868 18.650, 173 22.330 M 168.892 27.419 C 164.276 29.907, 152.506 36.074, 142.735 41.123 C 132.964 46.172, 125.166 50.500, 125.407 50.741 C 125.648 50.982, 130.943 50.639, 137.173 49.979 C 149.375 48.687, 159.232 49.234, 164.666 51.505 L 168.071 52.928 171.482 47.595 C 173.359 44.662, 176.464 39.391, 178.384 35.881 C 185.713 22.479, 182.828 19.906, 168.892 27.419 M 67.410 30.449 C 69.402 33.060, 71.812 37.851, 72.766 41.096 C 73.720 44.342, 74.898 46.998, 75.384 46.999 C 75.871 46.999, 80.543 49.025, 85.768 51.500 C 90.993 53.975, 96.445 55.990, 97.884 55.978 C 101.591 55.947, 109 52.379, 109 50.626 C 109 47.788, 103.819 43.047, 93.456 36.401 C 87.705 32.714, 83 29.090, 83 28.348 C 83 27.375, 81.401 26.997, 77.250 26.989 C 74.088 26.983, 69.765 26.691, 67.644 26.341 L 63.787 25.704 67.410 30.449 M 24.289 34.410 C 18.336 39.420, 17.440 44.436, 17.938 70 C 18.396 93.556, 18.391 103.949, 17.912 125.500 C 17.510 143.629, 19.843 151, 25.984 151 C 27.625 151, 32.471 148.433, 38.522 144.359 C 43.947 140.706, 50.393 136.829, 52.848 135.743 C 58.118 133.412, 66.082 133.169, 69.249 135.243 L 71.500 136.716 71.950 109.108 C 72.702 62.983, 72.590 50.187, 71.421 49.020 C 69.567 47.168, 58.492 45.570, 54.817 46.624 L 51.500 47.575 51.455 77.038 C 51.404 110.365, 50.559 116.126, 44.969 121.250 C 41.704 124.242, 41.188 124.405, 39.119 123.094 C 37.960 122.361, 38.028 121.434, 39.538 117.360 C 41.050 113.278, 41.432 108.012, 41.919 84.454 C 42.499 56.445, 42.504 56.401, 45.203 51.203 C 47.459 46.857, 47.809 45.182, 47.320 41.054 C 46.767 36.386, 46.506 36.019, 42.617 34.450 C 40.353 33.536, 36.011 32.558, 32.968 32.275 C 28.044 31.818, 27.091 32.053, 24.289 34.410 M 46.181 55.500 C 45.440 58.033, 44.988 68.304, 44.948 83.500 C 44.897 102.891, 44.552 108.775, 43.152 114.138 C 41.965 118.689, 41.786 120.636, 42.585 120.329 C 44.419 119.625, 46.877 113.095, 47.977 106 C 49.145 98.466, 49.249 61.401, 48.118 55.500 L 47.352 51.500 46.181 55.500 M 166.732 59.208 C 166.449 59.918, 162.044 66.125, 156.942 73 C 148.221 84.753, 147.679 85.769, 147.867 90 C 147.976 92.475, 147.445 96.554, 146.686 99.065 L 145.307 103.631 153.653 106.524 C 158.244 108.115, 162 109.736, 162 110.126 C 162 111.851, 145.898 127.721, 139.811 131.997 L 133.089 136.717 135.502 138.815 C 138.794 141.677, 141.360 147.029, 143.898 156.323 C 148.006 171.369, 152.094 175.989, 161.307 175.996 C 166.092 176, 175 174.219, 175 173.259 C 175 172.982, 172.358 169.930, 169.128 166.478 C 162.740 159.648, 160 153.599, 160 146.321 C 160 143.861, 162.174 135.260, 165.043 126.366 C 171.580 106.105, 172.786 97.809, 170.958 85.662 C 170.200 80.623, 169.562 72.492, 169.540 67.593 C 169.515 61.914, 169.092 58.546, 168.373 58.300 C 167.753 58.089, 167.015 58.497, 166.732 59.208 M 140.756 94.316 C 138.697 97.167, 137.018 99.950, 137.025 100.500 C 137.032 101.050, 138.190 101.808, 139.597 102.184 C 141.841 102.785, 142.339 102.434, 143.633 99.336 C 144.445 97.393, 144.972 94.302, 144.805 92.468 L 144.500 89.132 140.756 94.316 M 121.306 104.532 C 124.648 107.472, 127.555 107.700, 128.930 105.131 C 130.326 102.523, 129.415 101.995, 123.583 102.032 L 118.500 102.063 121.306 104.532 M 132.200 105.200 C 131.540 105.860, 131 106.760, 131 107.200 C 131 108.378, 135.808 108.173, 138.201 106.893 C 139.861 106.004, 139.996 105.611, 138.885 104.908 C 136.905 103.654, 133.602 103.798, 132.200 105.200 M 140.791 108.218 C 139.102 109.534, 136.091 110.501, 132.791 110.786 L 127.500 111.244 119.750 121.014 C 115.487 126.387, 112 131.047, 112 131.370 C 112 132.672, 120.858 126.202, 125.036 121.848 C 127.991 118.768, 130.891 116.824, 133.615 116.096 C 137.584 115.035, 144 115.544, 144 116.919 C 144 117.287, 139.892 119.594, 134.870 122.044 C 125.309 126.710, 122.391 129.506, 123.484 132.951 C 124.338 135.639, 128.075 135.626, 133.675 132.915 C 138.635 130.514, 158.500 112.064, 157.300 110.973 C 156.655 110.387, 150.841 108.313, 144.500 106.408 C 143.950 106.243, 142.281 107.057, 140.791 108.218 M 131.750 119.572 C 127.873 121.675, 128.312 122.401, 132.250 120.399 C 136.020 118.481, 136.687 117.985, 135.417 118.040 C 134.912 118.062, 133.262 118.751, 131.750 119.572 M 111.782 135.538 C 107.537 138.549, 103.545 141.981, 102.912 143.164 C 101.898 145.058, 102.521 144.898, 108.131 141.816 C 111.634 139.891, 116.108 137.787, 118.074 137.139 C 121.283 136.081, 121.603 135.657, 121.210 132.981 C 120.970 131.341, 120.487 130.014, 120.137 130.032 C 119.786 130.049, 116.027 132.527, 111.782 135.538 M 88.977 160.182 C 78.685 173.494, 69.853 186.186, 70.460 186.793 C 70.705 187.039, 73.065 185.683, 75.703 183.782 C 78.598 181.695, 85.565 178.591, 93.275 175.952 C 106.564 171.405, 117.099 166.382, 117.763 164.276 C 117.990 163.556, 114.596 161.364, 109.513 158.950 C 103.749 156.211, 100.308 153.911, 99.166 152.032 L 97.454 149.217 88.977 160.182" stroke="none" fill="black" fill-rule="evenodd"/>
</svg>