<svg xmlns="http://www.w3.org/2000/svg" width="200" height="200" viewBox="0 0 200 200" version="1.1">
	<path d="M 129.865 12.839 C 122.514 17.757, 113.669 24.048, 110.209 26.821 C 104.521 31.378, 103.564 31.804, 100.209 31.266 C 98.169 30.939, 94.925 29.423, 93 27.898 C 87.536 23.568, 79.647 20.027, 71.842 18.400 C 64.358 16.840, 59.916 17.192, 58.002 19.497 C 55.151 22.933, 66.439 27.817, 85.698 31.479 C 91.901 32.658, 95.470 33.862, 96.658 35.175 C 98.178 36.854, 98.219 37.257, 96.960 38.097 C 96.157 38.634, 93.925 38.835, 92 38.545 C 73.283 35.722, 45.782 35.466, 36.750 38.029 C 28.940 40.247, 34.149 44.345, 46.369 45.597 C 50.838 46.055, 53 45.927, 53 45.205 C 53 43.921, 51.204 43.361, 44.251 42.479 C 31.615 40.875, 40.652 39.023, 61.178 39.009 C 72.411 39.001, 87.089 40.253, 90.822 41.538 C 91.687 41.835, 89.958 44.510, 85.822 49.272 C 82.345 53.276, 78.115 58.293, 76.422 60.422 L 73.343 64.293 70.054 56.133 C 68.244 51.644, 66.398 47.746, 65.951 47.470 C 63.822 46.154, 64.355 49.456, 67.508 57.111 C 69.409 61.725, 70.972 66.106, 70.982 66.846 C 71.008 68.780, 67.758 74.002, 66.534 73.991 C 64.784 73.976, 53.060 64.420, 41.331 53.448 C 30.906 43.695, 28 41.623, 28 43.940 C 28 44.847, 35.653 54.576, 48.778 70.353 L 55.055 77.899 51.778 78.405 C 49.975 78.684, 44.675 79.419, 40 80.039 C 29.246 81.466, 22.344 85.511, 24.556 89.090 C 25.459 90.552, 33.637 90.136, 46 88 C 52.325 86.907, 58.445 86.010, 59.600 86.007 L 61.700 86 59.350 94.113 C 58.057 98.576, 57 103.076, 57 104.113 C 57 105.760, 56.206 106.001, 50.750 106.006 C 38.381 106.017, 32.037 109.426, 27.500 118.500 C 24.508 124.483, 24.499 124.556, 24.189 144.500 C 23.791 170.060, 24.131 171.803, 30.090 174.772 C 37.522 178.474, 49.771 180.294, 63.500 179.736 C 76.846 179.193, 83.232 177.454, 87.905 173.089 C 91.356 169.865, 92.565 165.861, 94.012 152.864 C 95.596 138.635, 93.331 123.859, 87.557 110.750 C 86.932 109.331, 87.285 109, 89.425 109 C 93.433 109, 98.407 111.430, 100.909 114.612 C 103.737 118.207, 103.377 124.237, 99.514 138 C 96.226 149.714, 96.493 158.092, 100.399 165.801 C 108.671 182.125, 134.236 187.992, 166.614 180.997 L 171.728 179.893 173.884 168.442 C 177.448 149.509, 177.565 148, 175.459 148 C 174.462 148, 171.363 149.571, 168.573 151.491 C 159.917 157.446, 153.056 159.386, 141 159.287 C 135.225 159.240, 129.259 158.815, 127.743 158.344 L 124.985 157.486 127.496 153.791 C 131.284 148.216, 140.922 141.904, 158.325 133.599 C 167.061 129.431, 174.312 125.351, 174.677 124.399 C 176.208 120.409, 170.395 118.493, 152.500 117.090 C 144.606 116.472, 144.447 116.506, 140.495 119.651 C 138.293 121.404, 135.231 123.155, 133.690 123.542 C 130.311 124.390, 127.645 122.215, 121.994 114 C 119.913 110.975, 116.925 107.286, 115.355 105.803 C 109.200 99.989, 99.931 98.513, 88.940 101.597 L 83.250 103.194 79.138 100.473 C 76.877 98.977, 72.776 95.004, 70.025 91.644 C 65.590 86.229, 65.234 85.458, 66.886 84.847 C 70.389 83.550, 92.373 81.829, 96.940 82.493 C 103.287 83.416, 105.231 84.960, 107.303 90.723 C 109.632 97.198, 114.265 102, 118.184 102 C 123.781 102, 128.321 98.396, 142.491 82.704 C 153.848 70.127, 160.107 65, 164.103 65 C 169.444 65, 182.134 62.735, 181.318 61.927 C 180.868 61.481, 178.451 60.571, 175.946 59.904 C 172.041 58.863, 170.563 58.951, 165.564 60.524 C 160.537 62.105, 158.961 62.196, 154.117 61.184 C 134.838 57.160, 130.439 39.469, 141.682 11.180 C 143.063 7.704, 143.977 4.643, 143.712 4.379 C 143.447 4.114, 137.216 7.921, 129.865 12.839 M 129.560 16.127 C 114.364 26.409, 108.800 31.036, 109.485 32.821 C 109.823 33.702, 110.565 37.882, 111.134 42.109 C 111.983 48.419, 111.878 50.931, 110.547 56.147 C 107.004 70.032, 98.024 75.304, 70.750 79.512 C 68.688 79.830, 67 80.529, 67 81.064 C 67 81.600, 68.013 81.804, 69.250 81.518 C 75.206 80.142, 92.596 79.236, 98.108 80.015 C 105.283 81.029, 107.153 82.468, 109.532 88.799 C 112.349 96.299, 114.661 99, 118.264 99 C 122.910 99, 127.820 95.058, 139.667 81.814 C 145.521 75.269, 151.591 69.004, 153.155 67.890 C 156.925 65.205, 156.745 64.375, 152.237 63.654 C 146.456 62.730, 139.567 57.822, 136.338 52.328 C 133.677 47.801, 133.502 46.815, 133.537 36.500 C 133.567 27.358, 134.014 24.191, 136.180 17.750 C 137.614 13.487, 138.723 10.017, 138.644 10.039 C 138.565 10.060, 134.477 12.800, 129.560 16.127 M 61 20.891 C 61 21.382, 62.688 22.453, 64.750 23.272 C 69.828 25.289, 87.932 29.402, 88.635 28.699 C 89.531 27.803, 79.588 23.128, 73.307 21.492 C 66.906 19.825, 61 19.536, 61 20.891 M 103.151 36.318 C 102.254 37.398, 102.347 38.586, 103.552 41.469 C 104.413 43.530, 104.870 45.463, 104.569 45.765 C 104.267 46.066, 102.155 45.472, 99.875 44.444 L 95.729 42.574 89.933 48.741 C 86.746 52.132, 81.952 57.794, 79.280 61.324 C 74.929 67.072, 74.464 68.178, 74.823 71.939 L 75.223 76.138 79.362 75.449 C 86.237 74.304, 95.470 71.158, 99.063 68.736 C 107.312 63.177, 110.539 52.829, 108.177 39.511 C 107.426 35.274, 105.194 33.857, 103.151 36.318 M 45.054 61.534 C 46.280 63.085, 53.418 71.743, 58.093 77.351 C 58.483 77.819, 60.211 77.893, 61.932 77.515 L 65.062 76.827 60.781 73.768 C 58.426 72.085, 53.575 68.202, 50 65.139 C 46.425 62.075, 44.199 60.453, 45.054 61.534 M 70.583 73.866 C 70.152 74.563, 70.070 75.403, 70.400 75.733 C 71.295 76.628, 72.271 75.312, 71.787 73.862 C 71.449 72.846, 71.213 72.846, 70.583 73.866 M 61.500 81 C 61.840 81.550, 62.541 82, 63.059 82 C 63.577 82, 64 81.550, 64 81 C 64 80.450, 63.298 80, 62.441 80 C 61.584 80, 61.160 80.450, 61.500 81 M 47.500 81.666 C 35.029 83.191, 28 85.137, 28 87.067 C 28 87.741, 30.605 87.478, 44.500 85.404 C 57.974 83.393, 59.178 83.097, 58.482 81.971 C 57.900 81.030, 53.667 80.913, 47.500 81.666 M 62.987 91.533 C 61.482 95.492, 59.056 106, 59.647 106 C 59.906 106, 63.206 106.479, 66.982 107.065 C 72.896 107.983, 74.307 107.893, 77.161 106.416 C 80.276 104.806, 80.357 104.636, 78.501 103.601 C 75.956 102.182, 70.151 96.461, 66.764 92.036 L 64.114 88.571 62.987 91.533 M 89 104.500 C 85.884 105.700, 85.774 105.857, 88 105.929 C 92.938 106.091, 98.251 108.203, 101.723 111.385 C 106.734 115.977, 107.183 121.649, 103.437 133.047 C 99.710 144.388, 99.363 158.393, 102.658 164.500 C 106.826 172.223, 113.815 176.803, 125.729 179.620 C 133.506 181.459, 154.506 180.987, 163.940 178.763 L 169.380 177.480 171.648 165.490 C 172.895 158.895, 173.934 152.963, 173.958 152.307 C 173.981 151.652, 171.637 152.676, 168.750 154.585 C 161.129 159.622, 152.204 162.160, 141.961 162.203 C 132.831 162.241, 122 160.328, 122 158.679 C 122 155.855, 127.689 148.647, 133.237 144.441 C 136.681 141.830, 146.841 136.165, 155.813 131.852 C 164.784 127.540, 171.870 123.598, 171.557 123.093 C 170.889 122.012, 166.801 121.290, 154.500 120.082 L 145.500 119.197 140.594 122.799 C 132.253 128.921, 128.381 127.776, 120.979 117 C 116.356 110.269, 111.427 105.472, 107.685 104.061 C 103.836 102.610, 93.262 102.859, 89 104.500 M 45.461 108.990 C 29.431 111.345, 25.224 121.601, 26.656 154.825 C 27.427 172.695, 26.805 171.719, 39.565 175.072 C 55.987 179.386, 78.503 177.478, 85.933 171.141 C 88.749 168.740, 89.164 167.592, 90.509 158.500 C 91.323 153, 91.975 146.025, 91.959 143 C 91.901 131.955, 87.065 112.959, 83.574 110.062 C 81.717 108.520, 74.385 110.233, 65.622 114.256 L 58.744 117.414 59.289 125.457 C 59.589 129.881, 61.001 137.775, 62.425 143 C 68.327 164.642, 68.236 164.186, 67.129 166.617 C 65.626 169.916, 61.867 170.501, 54.254 168.623 C 46.242 166.645, 44.982 165.580, 41.512 157.846 C 39.153 152.591, 38.846 150.796, 39.171 144.149 C 39.645 134.452, 42.340 128.888, 50.193 121.397 C 54.992 116.820, 56 115.282, 56 112.536 C 56 110.429, 55.421 108.992, 54.418 108.607 C 52.670 107.936, 52.619 107.938, 45.461 108.990 M 59 111.500 C 59 114.468, 58.965 114.461, 63.471 112.312 C 67.347 110.464, 66.604 109.042, 61.750 109.015 C 59.479 109.003, 59 109.436, 59 111.500 M 50.833 124.733 C 44.099 131.673, 41.638 137.101, 41.646 145 C 41.653 151.844, 44.575 160.468, 47.842 163.288 C 49.686 164.879, 57.476 167, 61.474 167 C 62.908 167, 64.333 166.297, 64.667 165.424 C 65 164.558, 63.629 157.892, 61.622 150.612 C 59.614 143.331, 57.406 133.457, 56.715 128.670 L 55.459 119.966 50.833 124.733" stroke="none" fill="black" fill-rule="evenodd"/>
</svg>