<svg xmlns="http://www.w3.org/2000/svg" width="200" height="200" viewBox="0 0 200 200" version="1.1">
	<path d="M 54.603 22.247 C 52.041 24.194, 52.985 27.597, 57.627 33.147 L 61.268 37.500 56.884 38.176 C 49.260 39.351, 48.012 39.163, 47.074 36.694 C 45.548 32.682, 41.062 28.176, 37.385 26.962 C 29.875 24.483, 21.057 31.060, 14.475 44.049 C 12.156 48.625, 12.143 48.811, 13.783 53.608 C 15.244 57.882, 15.421 62.952, 15.186 93.766 C 14.905 130.773, 15.442 137.707, 19.212 145.727 C 21.658 150.932, 27.151 155, 31.732 155 C 34.562 155, 35 154.661, 35 152.468 C 35 148.505, 37.469 143.578, 40.426 141.640 C 41.910 140.668, 46.809 138.946, 51.312 137.814 C 55.816 136.682, 61.150 134.921, 63.166 133.901 C 73.283 128.780, 74.928 116.248, 68.470 93.485 L 65.728 83.818 68.364 81.182 C 70.344 79.201, 71 78.943, 71 80.142 C 71 81.021, 71.944 84.611, 73.099 88.120 C 75.160 94.388, 75.175 95.011, 73.949 123.500 C 73.262 139.450, 72.921 157.048, 73.191 162.606 C 74.209 183.582, 81.651 188.570, 94.461 176.862 L 100 171.799 100.100 129.650 C 100.155 106.467, 100.502 86.420, 100.871 85.100 L 101.543 82.701 102.815 85.494 C 103.835 87.731, 103.853 91.518, 102.908 104.537 C 102.009 116.927, 102.003 124.436, 102.886 136.144 C 104.639 159.383, 107.542 169.499, 112.263 168.811 C 115.282 168.371, 117.661 163.721, 120.679 152.354 C 123.158 143.021, 123.302 141.153, 123.398 117 C 123.476 97.501, 123.827 90.794, 124.891 88.500 L 126.282 85.500 127.233 89.500 C 127.803 91.900, 127.868 99.499, 127.395 108.500 C 126.386 127.673, 126.588 133.912, 128.514 143.072 C 130.641 153.186, 132.822 157.421, 136.101 157.802 C 139.293 158.173, 141.046 155.761, 143.899 147.070 C 147.250 136.863, 149.263 120.829, 149.370 103.500 L 149.468 87.500 150.670 95 C 151.331 99.125, 152.186 108.575, 152.571 116 C 153.970 143.043, 149.079 159.986, 139.500 161.272 C 136.859 161.627, 136.541 162.017, 136.846 164.527 C 137.441 169.422, 141.557 177.450, 144.926 180.285 C 156.132 189.714, 173.112 173.249, 178.046 148.171 C 179.923 138.629, 178.860 125.867, 175.531 117.997 C 174.020 114.424, 172.780 110.825, 172.776 110 C 172.773 109.175, 174.477 104.675, 176.563 100 C 179.587 93.225, 180.448 89.937, 180.804 83.802 C 181.207 76.864, 180.993 75.664, 178.640 71.648 C 173.705 63.228, 162.286 60.104, 143.201 61.953 C 136.987 62.555, 128.745 63.712, 124.886 64.524 C 115.815 66.432, 116.330 66.531, 115.048 62.644 C 113.825 58.940, 114.822 54.979, 117.820 51.622 C 124.353 44.307, 145.627 36.989, 166.182 34.987 C 181.555 33.490, 184 32.999, 184 31.412 C 184 29.598, 180.253 29.602, 168 31.426 C 158.976 32.770, 145.298 33.815, 108.008 36.010 C 93.255 36.878, 91.040 36.797, 87.008 35.240 C 82.544 33.517, 82.825 33.495, 115.417 33 C 140.501 32.619, 148.434 32.203, 148.751 31.250 C 149.064 30.309, 146.840 30, 139.757 30 C 133.331 30, 122.763 28.708, 106.424 25.925 C 79.081 21.267, 57.874 19.762, 54.603 22.247 M 57.750 23.640 C 55.017 24.431, 55.638 26.373, 60.555 32.408 C 64.942 37.794, 65.283 37.997, 69.805 37.926 C 72.387 37.885, 76.432 37.548, 78.793 37.176 L 83.086 36.500 77.098 34.190 C 66.954 30.276, 69.582 29.474, 91.760 29.713 C 102.617 29.830, 111.050 29.737, 110.500 29.506 C 109.950 29.274, 102.075 27.969, 93 26.604 C 75.905 24.033, 60.786 22.762, 57.750 23.640 M 28.280 30.971 C 24.907 33.027, 20.082 39.042, 16.999 45.033 C 15.306 48.322, 15.287 48.945, 16.718 54.033 C 17.970 58.487, 18.278 66.730, 18.378 98.500 C 18.500 137.349, 18.509 137.520, 20.889 142.787 C 23.407 148.359, 27.045 152, 30.096 152 C 31.377 152, 32.241 150.820, 32.986 148.053 C 34.499 142.434, 39.043 138.320, 45.819 136.435 C 48.944 135.566, 53.929 134.180, 56.898 133.356 C 70.679 129.531, 73.140 116.985, 65.046 91.814 L 62.196 82.952 65.607 80.351 C 69.261 77.564, 75.004 66.861, 74.994 62.857 C 74.984 58.418, 72.945 53.146, 68.891 47.074 L 64.835 41 57.490 41 L 50.146 41 50.717 53.856 C 51.386 68.884, 49.712 83, 47.261 83 C 46.154 83, 45.920 82.288, 46.360 80.250 C 47.844 73.375, 49.036 57.272, 48.224 55.077 C 47.541 53.229, 47.083 54.900, 46.164 62.601 C 43.603 84.066, 41.966 115.367, 43.484 113.849 C 43.751 113.582, 44.678 109.795, 45.545 105.432 C 47.628 94.946, 47.822 94.422, 49.137 95.737 C 49.898 96.498, 49.563 99.865, 47.977 107.387 C 45.696 118.207, 43.987 121.398, 41.708 119.095 C 38.948 116.307, 41.526 68.380, 45.463 49.273 C 46.664 43.442, 46.603 42.737, 44.498 38.194 C 40.491 29.545, 34.786 27.004, 28.280 30.971 M 114.182 38.282 L 96.865 39.240 100.182 41.225 C 105.059 44.143, 108 47.112, 108 49.118 C 108 51.579, 105.112 53.362, 94.424 57.504 C 83.008 61.927, 77.422 65.802, 76.516 69.928 C 76.148 71.605, 75.431 73.234, 74.923 73.548 C 73.395 74.492, 73.883 82.809, 75.700 86.782 C 77.167 89.991, 77.339 93.104, 76.951 109.500 C 76.704 119.950, 76.502 138.625, 76.501 151 C 76.500 170.667, 76.724 173.909, 78.276 176.750 C 81.109 181.936, 87.002 180.822, 93.695 173.835 L 96.890 170.500 97.195 127.500 C 97.509 83.283, 97.807 80, 101.515 80 C 102.309 80, 103.906 81.855, 105.063 84.123 C 107.085 88.088, 107.119 88.724, 105.932 100.789 C 103.402 126.520, 107.379 167.374, 112.256 165.748 C 114.059 165.147, 116.866 157.033, 119.443 144.973 C 121.352 136.038, 121.551 133.317, 120.763 126.973 C 119.339 115.510, 120.325 92.414, 122.460 87.250 C 124.556 82.180, 127.453 81.532, 129.166 85.750 C 130.339 88.639, 130.634 101.417, 130.048 124 C 129.751 135.463, 130.026 138.705, 131.868 145.483 C 134.513 155.216, 136.014 157.154, 138.256 153.732 C 143.356 145.949, 146.366 126.399, 146.440 100.584 C 146.499 79.925, 146.997 76.873, 149.761 80.217 C 151.528 82.355, 153.864 95.764, 155.088 110.793 C 156.384 126.707, 155.365 141.545, 152.331 150.937 C 150.472 156.694, 144.501 164, 141.655 164 C 139.587 164, 139.557 166.003, 141.553 170.782 C 146.947 183.695, 157.374 183.090, 166.626 169.328 C 172.692 160.305, 175.117 152.469, 175.728 139.923 C 176.280 128.575, 174.888 121.202, 170.814 113.907 L 168.808 110.313 171.339 105.318 C 177.727 92.712, 179.896 79.568, 176.631 73.254 C 171.397 63.132, 152.693 61.631, 118.332 68.577 C 115.522 69.145, 114.985 68.871, 113.582 66.158 C 108.352 56.044, 115.015 46.732, 132.388 39.875 C 140.673 36.606, 142.146 36.735, 114.182 38.282 M 70.279 40.702 C 68.104 41.123, 68.131 41.239, 71.574 46.244 C 73.508 49.056, 75.804 53.923, 76.676 57.059 L 78.262 62.762 81.690 60.436 C 83.575 59.157, 89.369 56.463, 94.565 54.449 C 99.761 52.436, 104.279 50.358, 104.604 49.831 C 105.543 48.312, 102.419 45.530, 96.548 42.655 C 91.768 40.314, 90.023 40.016, 81.813 40.136 C 76.691 40.211, 71.500 40.466, 70.279 40.702" stroke="none" fill="black" fill-rule="evenodd"/>
</svg>