<svg xmlns="http://www.w3.org/2000/svg" width="200" height="200" viewBox="0 0 200 200" version="1.1">
	<path d="M 80.384 20.689 C 79.771 21.135, 78.348 23.300, 77.222 25.500 C 70.158 39.310, 50.904 60.365, 40.580 65.570 C 33.685 69.046, 32.198 71.850, 32.076 81.602 C 31.987 88.729, 34.335 93.122, 40.003 96.436 C 45.242 99.499, 56.215 99.125, 66 95.551 C 70.125 94.045, 75.479 92.579, 77.897 92.294 L 82.293 91.775 81.746 95.857 C 81.064 100.942, 77.014 107.584, 65.526 122.457 C 57.182 133.260, 56.058 134.314, 49.526 137.465 C 40.578 141.780, 35.161 146.452, 31.675 152.855 C 28.015 159.581, 27.206 166.631, 29.426 172.447 C 30.978 176.510, 36.826 183, 38.935 183 C 39.411 183, 45.551 181.424, 52.579 179.498 C 59.608 177.571, 76.548 173.763, 90.224 171.034 C 108.042 167.479, 115.928 165.476, 118.048 163.965 C 126.430 157.997, 131.607 159.629, 142.599 171.704 C 146.888 176.416, 151.771 181.109, 153.449 182.132 C 159.947 186.095, 174.403 183.191, 175.182 177.766 C 175.361 176.520, 175.189 172.396, 174.799 168.602 C 172.840 149.532, 158.557 136.792, 131.468 129.950 C 118.375 126.643, 114.786 126.348, 113.053 128.436 C 111.499 130.309, 112.236 131.609, 120.444 141.476 C 124.698 146.590, 126.976 150.179, 126.790 151.476 C 126.522 153.343, 125.880 153.478, 118.500 153.214 C 114.100 153.057, 99.250 152.960, 85.500 153 C 71.750 153.039, 58.964 152.796, 57.086 152.460 C 53.678 151.849, 53.687 151.840, 62.091 147.622 C 66.721 145.298, 74.332 140.846, 79.005 137.728 C 87.738 131.901, 112.551 112.748, 116.995 108.403 C 119.352 106.100, 119.406 105.813, 117.964 103.245 C 117.085 101.679, 112.239 97.977, 106.536 94.513 C 101.090 91.206, 96.468 87.980, 96.265 87.345 C 95.728 85.661, 100.986 84.232, 114 82.524 C 127.108 80.804, 125.817 80.450, 142.661 90.363 C 155.184 97.734, 161.565 97.679, 164.701 90.174 C 167.037 84.582, 166.779 73.416, 164.197 68.372 C 158.324 56.901, 139.534 47.272, 119.363 45.397 C 112.375 44.748, 105 46.105, 105 48.040 C 105 48.527, 107.733 50.781, 111.073 53.050 C 119.541 58.800, 126.257 65.429, 125.835 67.621 C 125.307 70.361, 122.075 70.792, 101.250 70.900 C 85.607 70.981, 82 71.258, 82 72.379 C 82 73.510, 85.729 73.734, 102.795 73.629 C 120.879 73.517, 123.942 73.269, 126.295 71.727 C 131.473 68.333, 128.686 62.822, 117.554 54.443 C 113.399 51.316, 110 48.524, 110 48.238 C 110 47.235, 126.563 48.877, 132.500 50.468 C 147.124 54.389, 159.279 62.927, 162.594 71.606 C 164.590 76.833, 163.962 86.882, 161.396 90.800 C 158.819 94.732, 153.092 93.450, 140.783 86.183 C 127.316 78.234, 125.685 77.660, 120.049 78.887 C 117.547 79.432, 112.575 80.156, 109 80.496 C 89.840 82.318, 88.256 86.958, 103.697 96.034 C 112.925 101.459, 116 103.741, 116 105.164 C 116 106.379, 87.415 128.933, 77.664 135.413 C 73.174 138.396, 65.338 142.907, 60.250 145.435 C 55.162 147.964, 51 150.645, 51 151.394 C 51 155.151, 53.520 155.499, 80.905 155.523 C 95.532 155.535, 111.417 155.938, 116.204 156.418 C 123.634 157.163, 125.280 157.046, 127.454 155.622 C 132.152 152.544, 131.084 149.700, 120.642 137.500 C 115.255 131.206, 114.870 130.468, 116.822 130.181 C 119.742 129.752, 132.958 132.718, 141.130 135.638 C 150.424 138.958, 156.759 142.693, 162.043 147.966 C 167.910 153.821, 170.997 160.333, 172.346 169.693 C 173.582 178.276, 173.100 179.088, 165.570 181.116 C 159.308 182.802, 155.054 180.990, 148.287 173.756 C 134.535 159.055, 133.052 158, 126.131 158 C 123.750 158, 120.777 159.023, 117.946 160.816 C 114.297 163.127, 109.109 164.494, 89 168.447 C 75.525 171.096, 59.177 174.779, 52.670 176.631 C 46.164 178.484, 40.248 180, 39.524 180 C 37.689 180, 32.162 173.493, 31.392 170.427 C 30.193 165.650, 31.607 158.170, 34.634 153.274 C 38.121 147.634, 45.679 141.612, 52.240 139.247 C 56.157 137.834, 58.166 136.060, 63.820 129.019 C 74.510 115.707, 78.608 109.965, 81.926 103.648 C 85.327 97.175, 85.812 92.955, 83.429 90.571 C 81.127 88.270, 77.401 88.628, 68.014 92.054 C 53.183 97.467, 42.764 97.073, 37.573 90.904 C 34.158 86.846, 33.488 82.264, 35.371 75.834 C 36.826 70.862, 37.322 70.298, 42.664 67.524 C 52.888 62.215, 73.120 39.991, 79.328 27.250 L 81.399 23 87.252 23 C 98.484 23, 112.072 27.419, 113.674 31.593 C 114.718 34.312, 109.713 38.019, 101.089 40.912 C 94.503 43.122, 92.515 44.269, 91.027 46.715 C 88.985 50.073, 82.887 54.177, 67 62.887 C 58.130 67.750, 56.500 69.021, 56.500 71.072 C 56.500 73.436, 56.732 73.508, 65.250 73.789 C 72.843 74.040, 74 73.859, 74 72.422 C 74 70.991, 73.154 70.852, 67.750 71.399 C 57.380 72.447, 57.802 70.969, 69.723 64.502 C 82.884 57.361, 91.002 51.841, 93.691 48.205 C 95.065 46.346, 97.640 44.887, 101.687 43.675 C 112.714 40.372, 118.349 35.256, 116.187 30.512 C 114.774 27.410, 111.278 25.159, 104.191 22.789 C 98.092 20.749, 82.227 19.349, 80.384 20.689" stroke="none" fill="black" fill-rule="evenodd"/>
</svg>