<svg xmlns="http://www.w3.org/2000/svg" width="200" height="200" viewBox="0 0 200 200" version="1.1">
	<path d="M 75.531 29 C 72.552 41.410, 71.333 44.996, 70.095 44.980 C 69.218 44.970, 62.650 44.299, 55.500 43.490 C 39.945 41.731, 25.398 41.546, 24.441 43.096 C 22.226 46.679, 33.904 49.421, 56.321 50.582 C 69.692 51.275, 70.126 51.367, 69.638 53.399 C 69.362 54.555, 68.565 58.311, 67.868 61.746 C 66.952 66.265, 66.086 68.155, 64.737 68.584 C 61.741 69.534, 51.483 80.132, 49.170 84.667 C 46.039 90.803, 44.882 96.988, 46.063 101.266 C 47.233 105.502, 52.132 110, 55.577 110 C 56.910 110, 58 110.430, 58 110.955 C 58 112.126, 54.152 112.742, 42.719 113.401 C 32.129 114.011, 27.355 116.282, 23.868 122.368 C 21.665 126.213, 21.505 127.508, 21.572 141 C 21.647 156.039, 25.035 179.735, 27.318 181.180 C 27.909 181.554, 29.117 181.473, 30.002 180.999 C 31.706 180.087, 43.513 177.768, 56 175.892 C 60.125 175.272, 69.350 174.481, 76.500 174.133 L 89.500 173.500 92.941 163.500 C 96.057 154.443, 96.387 152.415, 96.441 142 C 96.500 130.510, 96.497 130.493, 92.332 121.825 C 87.730 112.247, 87.799 112, 95.059 112 C 98.192 112, 99.301 112.530, 100.727 114.711 C 102.316 117.141, 102.469 119.754, 102.198 139.961 C 101.867 164.731, 102.515 169.053, 107.550 175.654 C 111.196 180.435, 117.028 182.951, 124.527 182.978 C 127.902 182.990, 131.423 183.593, 132.527 184.347 C 136.172 186.835, 144.310 189, 150.021 189 C 164.135 189, 175.106 175.306, 175.258 157.500 C 175.402 140.526, 166.571 139.140, 158.687 154.899 L 155.266 161.738 146.008 159.398 C 134.197 156.412, 128 153.474, 128 150.862 C 128 148.811, 133.908 145.651, 150.086 139.046 C 160.690 134.718, 168.088 130.052, 170.250 126.328 C 171.917 123.460, 171.955 122.828, 170.652 119.710 C 169.277 116.419, 165.169 112.629, 160.188 110.057 C 158.103 108.980, 157.324 109.336, 152.262 113.682 C 139.470 124.661, 138.043 125.094, 135.541 118.750 C 134.619 116.412, 132.570 112.870, 130.988 110.878 L 128.112 107.257 132.758 106.620 C 146.618 104.720, 157.918 92.462, 158.825 78.341 C 159.399 69.415, 156.968 62.938, 150.617 56.476 L 145.500 51.270 156.195 50.251 C 169.053 49.026, 175.022 46.580, 177.403 41.562 C 178.986 38.228, 178.694 32.547, 176.883 31.428 C 176.411 31.136, 172.757 32.434, 168.762 34.313 C 156.719 39.977, 151.239 41.471, 142.500 41.470 C 132.912 41.470, 129.355 40.047, 114 30.067 C 102.221 22.411, 93.112 17.619, 85.098 14.862 C 82.122 13.838, 79.616 13, 79.529 13 C 79.442 13, 77.643 20.200, 75.531 29 M 82 17.271 C 82 17.538, 82.698 19.425, 83.550 21.466 C 87.007 29.738, 87.384 38.334, 84.586 45.047 C 84.025 46.394, 85.146 46.547, 93.221 46.223 C 98.324 46.019, 109.250 46.285, 117.500 46.814 C 125.750 47.343, 132.635 47.654, 132.800 47.505 C 133.168 47.172, 86.175 18.388, 83.738 17.453 C 82.782 17.086, 82 17.004, 82 17.271 M 77.675 31.769 C 74.304 45.971, 74.304 46, 77.965 46 C 83.431 46, 85.476 36.695, 82.249 26.500 L 80.350 20.500 77.675 31.769 M 165.672 38.661 C 155.910 43, 145.084 45.367, 138.750 44.546 C 136.137 44.208, 134 44.160, 134 44.440 C 134 44.720, 135.447 45.697, 137.216 46.612 C 139.887 47.993, 142.384 48.178, 151.966 47.705 C 168.836 46.871, 176 43.763, 176 37.277 C 176 34.349, 175.100 34.470, 165.672 38.661 M 36.500 46.051 C 38.700 46.502, 46.575 47.100, 54 47.379 L 67.500 47.886 57 46.537 C 44.973 44.992, 29.558 44.626, 36.500 46.051 M 79.539 49.918 C 73.594 50.498, 73.574 50.511, 72.436 54.500 C 71.808 56.700, 70.991 60.144, 70.620 62.154 L 69.946 65.807 75.723 64.021 C 90.530 59.443, 121.332 58.694, 130.164 62.698 C 142.179 68.143, 137.912 77.943, 118.386 89.750 C 113.610 92.637, 108.558 95, 107.157 95 C 104.655 95, 104.669 95.042, 108.002 97.502 C 113.360 101.454, 121.342 104, 128.378 104 C 139.844 104, 149.976 97.090, 154.583 86.128 C 156.448 81.689, 156.391 71.181, 154.477 66.600 C 152.618 62.149, 146.985 55.772, 142.425 52.954 C 139.630 51.227, 136.480 50.707, 124.272 49.959 C 108.451 48.990, 89.225 48.973, 79.539 49.918 M 101.500 62.631 C 90.052 63.827, 76.647 66.157, 73.142 67.560 C 69.369 69.070, 69.115 69.454, 67.691 75.822 C 64.787 88.809, 61.772 106.105, 62.318 106.651 C 63.233 107.566, 72.106 104.204, 78.500 100.518 L 84.500 97.061 79.500 97.025 C 72.155 96.972, 67 95.316, 67 93.010 C 67 90.384, 73.289 86.844, 86.500 82.033 C 129.148 66.501, 128.054 66.853, 128.641 68.500 C 128.837 69.050, 126.636 70.826, 123.749 72.448 C 116.436 76.554, 95.243 90.798, 94.389 92.180 C 93.872 93.017, 95.755 93.145, 101.466 92.662 C 109.967 91.944, 115.612 89.397, 125.812 81.680 C 136.589 73.526, 136.644 67.053, 125.962 63.989 C 122.055 62.869, 107.146 62.041, 101.500 62.631 M 58.083 77.757 C 53.992 81.848, 51.699 85.188, 50.163 89.295 C 47.621 96.087, 47.468 99.071, 49.463 102.928 C 51.030 105.960, 52.814 107, 56.442 107 C 58.596 107, 58.905 106.049, 62.125 89.500 C 63.998 79.875, 65.150 72, 64.685 72 C 64.220 72, 61.249 74.591, 58.083 77.757 M 96 81.463 C 77.188 88.326, 69.700 91.705, 70.486 92.977 C 70.837 93.545, 74.908 94, 79.630 94 C 88.064 94, 88.184 93.964, 92.821 90.088 C 95.394 87.936, 100.843 83.886, 104.928 81.088 C 109.013 78.290, 111.938 76.039, 111.428 76.087 C 110.918 76.134, 103.975 78.554, 96 81.463 M 88.783 97.750 C 87.944 98.713, 86.726 100.527, 86.076 101.782 C 84.988 103.884, 85.077 104.019, 87.198 103.491 C 88.464 103.175, 93.971 102.598, 99.435 102.208 L 109.370 101.500 105.206 98.750 C 100.092 95.372, 91.323 94.838, 88.783 97.750 M 77.500 104.065 C 74.750 105.632, 69.912 107.694, 66.750 108.647 C 60.999 110.379, 58.561 112.610, 63.750 111.393 C 68.994 110.162, 83 103.519, 83 102.263 C 83 101.568, 82.888 101.048, 82.750 101.107 C 82.612 101.166, 80.250 102.497, 77.500 104.065 M 89.717 105.892 C 87.636 106.226, 85.949 106.838, 85.967 107.250 C 85.985 107.662, 86 108.664, 86 109.475 C 86 110.646, 86.530 110.749, 88.565 109.975 C 91.961 108.684, 97.638 108.736, 100.150 110.080 C 104.444 112.378, 105.097 116.609, 104.895 140.818 C 104.736 159.942, 104.970 164.201, 106.387 167.972 C 109.606 176.536, 114.768 180.018, 124.852 180.426 C 129.531 180.616, 132.833 181.401, 136 183.076 C 139.723 185.045, 141.993 185.460, 149.154 185.478 C 157.335 185.499, 158.019 185.332, 161.654 182.422 C 169.471 176.165, 174.679 160.616, 172.095 151.250 C 169.995 143.638, 165.066 146.818, 159.518 159.364 C 157.553 163.807, 156.573 165.008, 155.235 164.612 C 154.281 164.329, 149.683 163.140, 145.018 161.969 C 134.540 159.338, 126.305 155.537, 125.485 152.952 C 123.935 148.068, 127.172 145.501, 143 139.064 C 161.217 131.656, 169 126.680, 169 122.442 C 169 120.598, 164.709 115.794, 161.281 113.799 L 158.358 112.099 150.642 118.540 C 139.173 128.113, 136.207 128.268, 132.837 119.466 C 128.795 108.911, 120.603 104.902, 103.568 105.142 C 98.031 105.220, 91.798 105.557, 89.717 105.892 M 74.500 110.049 C 71.200 111.655, 66.647 113.428, 64.383 113.988 L 60.266 115.005 59.076 123.753 C 56.221 144.743, 56.694 164, 60.063 164 C 61.613 164, 65.757 156.809, 68.132 150 C 69.944 144.804, 70.432 141.093, 70.563 131.500 L 70.728 119.500 77.300 115.665 C 83.017 112.328, 83.771 111.554, 83.091 109.716 C 81.988 106.734, 81.249 106.763, 74.500 110.049 M 44 115.979 C 26.469 117.217, 24.493 119.755, 24.516 141 C 24.531 154.453, 27.032 175.301, 28.854 177.159 C 29.209 177.521, 33.775 176.995, 39 175.990 C 52.900 173.314, 72.127 171, 80.451 171 L 87.719 171 89.765 164.750 C 95.429 147.451, 95.416 134.619, 89.722 122.630 C 87.729 118.434, 85.514 115.004, 84.799 115.009 C 84.085 115.015, 81.196 116.340, 78.380 117.956 L 73.259 120.892 73.753 127.786 C 74.725 141.383, 68.288 162.248, 62.139 165.428 C 59.034 167.034, 57.914 166.598, 55.900 163 C 54.095 159.776, 54.299 136.197, 56.240 123.750 C 57.584 115.135, 57.573 115.002, 55.552 115.154 C 54.424 115.238, 49.225 115.610, 44 115.979" stroke="none" fill="black" fill-rule="evenodd"/>
</svg>