<svg xmlns="http://www.w3.org/2000/svg" width="200" height="200" viewBox="0 0 200 200" version="1.1">
	<path d="M 107.487 18.379 C 106.085 20.519, 105.051 20.801, 97.214 21.178 C 90.001 21.525, 87.595 22.090, 83.246 24.460 C 77.734 27.463, 73.591 32.007, 71.873 36.934 L 70.852 39.862 66.176 36.890 C 58.373 31.929, 48.946 29.500, 37.500 29.500 C 28.999 29.500, 26.778 29.855, 22.684 31.871 C 12.303 36.982, 9.653 47.021, 14.507 62.845 C 17.147 71.451, 17.206 72.132, 16.124 81.311 C 13.718 101.714, 15.364 125.879, 20.005 138.283 C 22.568 145.133, 28.023 151.523, 32.598 153.032 C 40 155.475, 45.700 151.365, 59.742 133.460 C 63.175 129.082, 68.437 122.800, 71.437 119.500 L 76.890 113.500 75.033 120 C 74.012 123.575, 70.641 135.500, 67.541 146.500 C 64.442 157.500, 60.971 168.446, 59.828 170.825 C 58.365 173.868, 58.063 175.463, 58.808 176.208 C 59.553 176.953, 60.474 176.270, 61.914 173.901 C 64.341 169.911, 73.859 161.631, 83.183 155.401 C 90.392 150.584, 102.872 144.538, 103.764 145.431 C 104.065 145.732, 103.133 150.596, 101.692 156.239 C 97.945 170.917, 97.754 172.372, 98.976 176.910 C 101.035 184.556, 110.037 185.970, 124.731 180.955 L 130.963 178.829 129.372 175.752 C 126.161 169.544, 124 161.541, 124 155.864 C 124 150.420, 126.368 142, 127.898 142 C 130.299 142, 140.840 145.392, 145.015 147.508 C 151.500 150.794, 162.570 161.305, 167 168.383 C 168.925 171.458, 170.805 173.980, 171.178 173.987 C 172.321 174.009, 173.286 163.156, 172.743 156.389 C 172.423 152.396, 171.248 147.983, 169.619 144.655 C 167.023 139.347, 160.042 131.636, 154.607 128.070 L 151.757 126.201 156.506 124.100 C 159.117 122.945, 161.492 122, 161.783 122 C 162.073 122, 163.816 120.852, 165.656 119.449 C 171.985 114.622, 168.962 109.093, 156.018 101.822 C 149.914 98.394, 149.911 98.390, 151.991 96.508 C 153.795 94.876, 154.511 94.783, 157.357 95.812 C 159.164 96.465, 162.568 97, 164.921 97 C 168.482 97, 169.790 96.410, 172.716 93.484 C 176.113 90.087, 176.217 89.760, 175.820 83.734 C 175.339 76.440, 172.162 68.973, 166.177 61.069 L 162.064 55.639 166.589 50.801 C 174.498 42.346, 176.290 35.410, 171.649 31.218 C 167.437 27.414, 163.134 26.608, 146.500 26.511 C 132.855 26.431, 129.310 26.072, 122.417 24.071 C 115.400 22.033, 114.192 21.346, 113.254 18.862 C 111.939 15.378, 109.583 15.181, 107.487 18.379 M 109.500 20 C 109.160 20.550, 109.359 21, 109.941 21 C 110.523 21, 111 20.550, 111 20 C 111 19.450, 110.802 19, 110.559 19 C 110.316 19, 109.840 19.450, 109.500 20 M 92.920 24.010 C 83.931 25.532, 77.538 30.382, 74.237 38.186 C 73.129 40.806, 73.224 40.914, 78.035 42.512 C 82.286 43.924, 83.998 43.984, 90.402 42.951 L 97.836 41.752 100.918 32.926 C 102.613 28.072, 104 23.852, 104 23.550 C 104 22.822, 98.619 23.046, 92.920 24.010 M 104.088 32.085 C 102.389 36.532, 101 40.268, 101 40.387 C 101 40.506, 103.736 40.151, 107.079 39.598 C 111.826 38.813, 114.841 38.938, 120.829 40.166 C 126.410 41.310, 128.706 41.433, 129.257 40.619 C 129.771 39.860, 130.575 40.171, 131.757 41.587 C 134.758 45.180, 143.450 48.205, 148.570 47.437 C 153.717 46.665, 154.540 45.838, 152.850 43.132 C 151.410 40.826, 141.277 34.152, 135.245 31.537 C 131.276 29.816, 130.386 29.789, 121.983 31.134 C 111.943 32.741, 111 32.412, 111 27.300 C 111 24.717, 110.584 24, 109.088 24 C 107.617 24, 106.462 25.866, 104.088 32.085 M 114 27.366 C 114 29.611, 114.216 29.690, 118.250 28.909 C 120.588 28.457, 123.175 28.037, 124 27.977 C 125.627 27.857, 117.304 25.040, 115.250 25.015 C 114.563 25.007, 114 26.065, 114 27.366 M 144.134 32.919 C 150.438 36.771, 157 42.950, 157 45.035 C 157 45.566, 156.100 46.900, 155 48 C 152.281 50.719, 142.892 50.749, 136.883 48.059 C 134.499 46.992, 132.405 46.262, 132.229 46.438 C 132.053 46.614, 132.790 51.071, 133.867 56.342 C 136.309 68.295, 141.742 80.013, 146.257 83.067 C 148.041 84.274, 151.122 87.081, 153.105 89.306 C 156.409 93.014, 157.203 93.386, 162.605 93.771 C 167.946 94.151, 168.729 93.945, 170.941 91.578 C 176.057 86.101, 173.166 74.886, 163.277 61.851 L 158.233 55.202 163.518 49.982 C 169.670 43.907, 172.937 37.713, 171.335 35.164 C 168.641 30.879, 164.078 29.574, 150.531 29.213 L 137.500 28.866 144.134 32.919 M 26.500 33.222 C 21.992 34.820, 18.145 37.819, 16.485 41.029 C 14.160 45.526, 14.618 55.058, 17.572 63.615 C 20.004 70.662, 20.086 71.541, 19.075 79.783 C 17.600 91.806, 17.790 115.959, 19.431 125 C 20.968 133.471, 24.193 142.485, 26.792 145.576 C 34.362 154.575, 42.138 152.074, 53.459 137 C 56.970 132.325, 64.153 123.645, 69.421 117.711 C 74.690 111.777, 79 106.601, 79 106.208 C 79 105.815, 79.861 102.484, 80.913 98.805 L 82.826 92.116 80.348 93.058 C 76.923 94.360, 70.087 94.160, 66.559 92.655 L 63.619 91.401 66.799 90.083 C 72.609 87.677, 76.471 82.183, 78.866 72.919 C 81.561 62.498, 83.493 58.552, 86.594 57.139 C 89.767 55.693, 89.639 54.820, 85.632 50.571 C 83.258 48.055, 81.398 47, 79.333 47 C 76.616 47, 76.429 47.237, 76.776 50.250 C 77.161 53.585, 73.836 59.907, 71.250 60.756 C 70.082 61.140, 69.410 56.087, 69.737 49.381 C 69.831 47.464, 69.150 47.199, 62.603 46.606 C 57.155 46.112, 54.454 46.330, 51.682 47.488 L 48 49.027 47.875 60.263 C 47.807 66.444, 47.469 79.600, 47.125 89.500 C 46.617 104.138, 46.233 107.500, 45.072 107.500 C 43.112 107.500, 42.451 104.577, 39.075 81 C 34.623 49.911, 34.274 53.341, 42.334 48.963 L 49.167 45.251 43.584 44.554 C 39.531 44.047, 38 43.435, 38 42.320 C 38 41.232, 38.657 40.942, 40.250 41.327 C 46.209 42.766, 56.864 42.969, 62 41.740 L 67.500 40.425 62 37.743 C 58.975 36.268, 53.818 34.372, 50.540 33.530 C 43.783 31.795, 30.987 31.631, 26.500 33.222 M 103.040 43.306 C 100.165 44.298, 99.365 45.243, 98.313 48.890 C 97.616 51.305, 96.780 54.117, 96.456 55.140 C 96.045 56.435, 96.361 57, 97.498 57 C 98.396 57, 102.589 58.598, 106.816 60.552 L 114.500 64.104 116.585 61.493 C 118.604 58.964, 127 45.350, 127 44.606 C 127 44.403, 125.001 43.734, 122.557 43.119 C 116.864 41.685, 107.478 41.776, 103.040 43.306 M 89.153 45.882 L 85.806 46.500 88.903 50.388 C 90.606 52.526, 92 54.753, 92 55.338 C 92 57.423, 93.740 54.482, 95.306 49.750 C 97.071 44.419, 97.071 44.419, 89.153 45.882 M 72 51 C 72 53.491, 72.395 54.874, 73 54.500 C 73.550 54.160, 74 52.585, 74 51 C 74 49.415, 73.550 47.840, 73 47.500 C 72.395 47.126, 72 48.509, 72 51 M 127.814 49.005 C 126.959 50.377, 124.216 54.715, 121.719 58.644 L 117.177 65.788 126.839 71.741 C 132.152 75.015, 137.096 78.035, 137.824 78.451 C 138.688 78.946, 138.475 77.871, 137.211 75.355 C 134.362 69.685, 131.938 61.761, 130.573 53.663 C 129.388 46.629, 129.342 46.551, 127.814 49.005 M 40.973 52.668 C 39.613 53.586, 38.413 54.385, 38.308 54.444 C 37.913 54.664, 43.979 96.312, 44.479 96.812 C 44.765 97.099, 45 86.908, 45 74.167 C 45 61.425, 44.650 51, 44.223 51 C 43.795 51, 42.332 51.751, 40.973 52.668 M 86.766 60.071 C 85.812 60.627, 84.317 63.651, 83.443 66.791 C 82.570 69.931, 81.194 74.881, 80.387 77.791 C 79.480 81.063, 77.504 84.653, 75.210 87.196 L 71.500 91.310 76.353 90.766 C 79.022 90.467, 81.838 89.590, 82.611 88.818 C 84.194 87.234, 91 64.941, 91 61.338 C 91 58.849, 89.589 58.426, 86.766 60.071 M 94.697 60.347 C 94.400 61.121, 94.395 63.524, 94.685 65.688 C 95.411 71.100, 92.505 81.763, 89.148 86 C 86.693 89.100, 82.442 100.775, 83.415 101.748 C 83.867 102.200, 103.411 79.482, 109.072 71.925 L 113.135 66.500 106.317 63.370 C 96.983 59.084, 95.345 58.658, 94.697 60.347 M 113.546 70.570 C 112.605 72.006, 108.365 77.308, 104.123 82.354 C 94.155 94.209, 94.227 94.082, 98.153 92.956 C 99.908 92.453, 107.608 91.350, 115.263 90.506 L 129.183 88.970 136.967 92.485 C 145.513 96.344, 148.131 96.753, 149.985 94.518 C 151.004 93.290, 150.382 92.196, 146.357 88.132 C 143.686 85.434, 139.475 82.214, 137 80.977 C 134.525 79.739, 130.700 77.509, 128.500 76.021 C 126.300 74.533, 122.420 72.111, 119.878 70.638 L 115.256 67.960 113.546 70.570 M 90.079 76.583 C 90.127 77.748, 90.364 77.985, 90.683 77.188 C 90.972 76.466, 90.936 75.603, 90.604 75.271 C 90.272 74.939, 90.036 75.529, 90.079 76.583 M 116.397 93.021 C 105.035 94.219, 94.954 96.117, 95.475 96.959 C 95.739 97.387, 97.847 98.040, 100.159 98.409 C 105.945 99.335, 134.839 99.179, 138.401 98.203 C 141.256 97.422, 141.205 97.365, 135.276 94.704 C 128.989 91.883, 128.011 91.796, 116.397 93.021 M 85.900 103.305 C 81.787 107.951, 78.060 115.393, 79.251 116.584 C 79.498 116.832, 82.806 116.585, 86.600 116.037 C 105.583 113.293, 128.601 116.034, 145.664 123.069 C 148.528 124.250, 149.466 124.102, 155.562 121.511 C 159.266 119.937, 163.404 117.696, 164.758 116.532 L 167.220 114.414 164.722 111.457 C 163.348 109.831, 158.765 106.538, 154.538 104.139 L 146.851 99.779 139.385 100.889 C 124.975 103.033, 95.437 101.804, 92.550 98.942 C 91.123 97.527, 90.868 97.695, 85.900 103.305 M 103.973 121.750 C 108.036 125.826, 109.773 132.202, 108.456 138.199 C 107.854 140.943, 107.990 141.216, 109.638 140.569 C 110.662 140.167, 114.875 139.585, 119 139.277 C 125.963 138.756, 126.803 138.439, 130.733 134.853 C 133.060 132.729, 136.998 130.003, 139.483 128.796 C 141.967 127.589, 144 126.278, 144 125.882 C 144 124.758, 131.786 120.974, 123.239 119.450 C 118.982 118.691, 112.065 118.054, 107.868 118.035 L 100.235 118 103.973 121.750 M 82.599 119.983 C 77.770 120.492, 77.679 120.567, 76.439 125 C 68.452 153.547, 65.857 162.777, 65.389 164.295 C 65.065 165.347, 68.136 163.427, 72.804 159.658 C 81.281 152.814, 90.128 147.476, 99.037 143.831 C 102.041 142.601, 104.831 141.124, 105.235 140.547 C 106.548 138.675, 106.041 129.888, 104.423 126.478 C 101.854 121.065, 94.133 118.767, 82.599 119.983 M 141.007 131.063 C 137.987 132.728, 134.263 135.290, 132.734 136.755 L 129.953 139.420 135.726 141.005 C 147.066 144.119, 159.638 153.098, 166.477 162.967 C 168.028 165.205, 169.536 166.798, 169.827 166.506 C 170.885 165.449, 169.971 153.169, 168.531 149.087 C 167.719 146.786, 165.580 142.846, 163.777 140.331 C 160.303 135.485, 150.749 127.988, 148.087 128.018 C 147.214 128.028, 144.028 129.398, 141.007 131.063 M 111.199 142.986 C 109.384 143.416, 107.754 143.933, 107.577 144.134 C 107.400 144.335, 105.803 150.549, 104.028 157.942 C 100.621 172.131, 100.533 177.454, 103.668 179.747 C 106.025 181.470, 112.829 181.316, 120.600 179.365 C 125.922 178.028, 126.979 177.434, 126.392 176.115 C 121.119 164.253, 119.665 153.131, 122.500 146.346 C 123.325 144.371, 124 142.586, 124 142.378 C 124 141.724, 114.651 142.169, 111.199 142.986" stroke="none" fill="black" fill-rule="evenodd"/>
</svg>