<svg xmlns="http://www.w3.org/2000/svg" width="200" height="200" viewBox="0 0 200 200" version="1.1">
	<path d="M 152.500 16.684 C 151.400 16.926, 146.475 18.280, 141.557 19.693 C 133.591 21.981, 131.405 22.203, 121.557 21.727 C 115.367 21.428, 108.608 20.502, 106.203 19.624 C 101.934 18.066, 101.879 18.075, 97.789 21.038 C 90.514 26.308, 85.725 27.191, 60 28.009 C 34.133 28.832, 29.130 29.795, 22.543 35.226 C 13.964 42.297, 12.859 48.714, 14.040 84.604 C 15.016 114.250, 16.197 127.787, 18.653 137.500 C 23.471 156.552, 33.507 159.104, 49.659 145.383 C 52.497 142.972, 55.231 141, 55.735 141 C 57.358 141, 60.722 136.602, 61.854 133 C 64.006 126.155, 64.985 111.123, 65.078 83.500 C 65.176 54.307, 65.544 53.060, 68.586 71.600 C 70.002 80.230, 70.099 83.161, 69.150 88.754 C 66.781 102.725, 65.682 130.223, 66.864 145.925 C 68.569 168.566, 71.169 177.753, 76.570 180.214 C 78.638 181.156, 79.517 181.009, 81.779 179.342 C 85.278 176.764, 90.199 168.597, 94.277 158.601 L 97.500 150.702 107.500 145.899 C 113 143.258, 120.142 139.500, 123.371 137.548 C 126.600 135.597, 129.413 134, 129.621 134 C 129.830 134, 130.007 138.162, 130.015 143.250 C 130.027 151.173, 131.612 161.674, 133.597 167 C 133.905 167.825, 136.104 161.750, 138.485 153.500 C 143.312 136.768, 147.626 124.507, 150.799 118.500 C 155.851 108.935, 150.988 132.881, 142.782 157.978 C 139.944 166.659, 139.776 167.899, 140.784 172.706 C 143.181 184.133, 148.122 189.435, 154.078 186.968 C 158.193 185.263, 164.385 178.161, 168 170.999 C 180.396 146.444, 183.090 112.817, 174.076 95.149 L 172.110 91.296 176.004 79.357 C 188.845 39.985, 189.161 24.072, 176.935 32.545 C 172.099 35.896, 164.630 44.567, 152.194 61.264 C 143.170 73.380, 142.595 73.944, 140.865 72.378 C 139.117 70.796, 139.210 70.527, 143.102 65.878 C 145.336 63.210, 150.121 58.317, 153.738 55.003 C 157.354 51.690, 160.076 48.742, 159.786 48.453 C 159.497 48.164, 155.855 49.070, 151.694 50.467 C 140.957 54.071, 129.130 55.828, 127.993 53.988 C 126.675 51.856, 125.746 43.435, 126.466 40.155 L 127.108 37.230 136.804 36.551 C 148.124 35.758, 150 35.331, 150 33.549 C 150 31.537, 146.233 30.997, 143.206 32.576 C 139.365 34.580, 127 34.522, 127 32.500 C 127 30.343, 124.325 30.648, 123.744 32.872 C 123.322 34.487, 121.969 34.809, 113.877 35.224 C 108.720 35.488, 104.370 35.604, 104.212 35.481 C 103.461 34.898, 137.110 23.979, 141.500 23.381 C 148.983 22.362, 156.500 19.707, 156.500 18.083 C 156.500 16.458, 155.352 16.057, 152.500 16.684 M 97.952 24.144 C 90.230 29.330, 85.582 30.150, 59.500 30.933 C 37.730 31.587, 35.023 31.862, 30.368 33.899 C 24.361 36.528, 20.807 39.945, 18.303 45.500 C 16.699 49.058, 16.527 52.205, 16.746 74 C 17.236 122.871, 20.766 146.128, 28.305 150.163 C 33.257 152.813, 40.182 150.238, 48.699 142.581 C 51.501 140.061, 54.461 138, 55.276 138 C 56.825 138, 58.453 134.813, 60.215 128.335 C 60.793 126.211, 61.535 107.656, 61.879 86.749 L 62.500 48.998 59.932 48.999 C 56.240 49, 47.221 51.835, 46.323 53.276 C 45.903 53.949, 45.322 69.800, 45.030 88.500 C 44.583 117.162, 44.274 122.500, 43.062 122.500 C 41.299 122.500, 37.776 113.969, 34.214 101.074 C 32.048 93.236, 31.562 89.324, 31.534 79.500 C 31.502 68.333, 31.695 67.102, 34.312 61.774 C 35.858 58.625, 38.333 55.099, 39.812 53.939 C 42.309 51.979, 42.535 51.161, 43 42.406 C 43.626 30.599, 45.396 29.549, 45.790 40.750 C 45.950 45.288, 46.251 49, 46.460 49 C 46.668 49, 49.687 48.268, 53.169 47.373 C 64.950 44.346, 87.281 47.511, 100.033 54.017 C 102.998 55.530, 105.917 56, 112.341 56 L 120.763 56 121.881 51.557 C 122.497 49.114, 123 44.846, 123 42.073 L 123 37.031 116.750 37.577 C 106.549 38.469, 94.728 39.861, 91.250 40.579 C 88.807 41.083, 88 40.901, 88 39.844 C 88 38.944, 93.303 36.500, 102.750 33.047 C 126.099 24.512, 124.568 25.428, 117 24.525 C 113.425 24.099, 108.641 23.191, 106.368 22.508 C 102.468 21.336, 101.995 21.428, 97.952 24.144 M 175.860 36.892 C 171.522 40.711, 160.509 54.291, 149.942 68.850 C 145.270 75.288, 144.817 76.318, 146.292 77.143 C 147.218 77.662, 148.462 78.995, 149.057 80.107 C 150.848 83.453, 148.208 85.347, 138.910 87.389 C 137.185 87.768, 134.863 90.055, 131.962 94.229 C 123.178 106.874, 113.082 119.755, 111.472 120.372 C 107.962 121.719, 107.215 118.375, 109.492 111.500 C 110.733 107.753, 103.027 117.246, 100.295 122.830 C 98.243 127.024, 97.524 130.230, 97.184 136.713 C 96.926 141.636, 97.159 145.559, 97.744 146.144 C 98.806 147.206, 114.453 139.867, 125.265 133.234 C 128.436 131.289, 131.339 130.006, 131.716 130.383 C 132.094 130.760, 132.459 135.891, 132.527 141.785 C 132.732 159.375, 133.546 159.522, 138.694 142.903 C 144.386 124.530, 150.241 111.709, 152.722 112.181 C 154.140 112.451, 154.561 113.700, 154.803 118.353 C 155.135 124.759, 152.330 137.310, 146.339 156.231 C 143.611 164.846, 142.925 168.434, 143.376 171.725 C 144.141 177.306, 147.437 183.687, 149.971 184.491 C 154.792 186.021, 162.620 177.269, 168.009 164.323 C 178.177 139.898, 179.572 112.908, 171.516 96.443 L 169.018 91.338 172.566 80.919 C 180.951 56.290, 185.361 33, 181.641 33 C 180.893 33, 178.292 34.752, 175.860 36.892 M 67.351 51.091 C 67.717 52.416, 69.176 59.717, 70.592 67.315 L 73.166 81.131 71.392 92.815 C 69.166 107.472, 68.847 148.216, 70.861 160.500 C 72.346 169.550, 75.126 176.727, 77.500 177.638 C 80.820 178.912, 87.109 169.607, 92.957 154.772 L 95.214 149.044 92.636 138.772 C 91.218 133.122, 89.546 124.510, 88.920 119.634 C 87.874 111.487, 87.980 108.469, 89.638 99.250 C 90.209 96.075, 90.139 96, 86.611 96 C 84.191 96, 83 95.541, 83 94.607 C 83 92.946, 85.147 92, 88.914 92 C 90.959 92, 92.524 90.909, 95.010 87.750 C 96.850 85.412, 101.594 80.476, 105.553 76.781 C 111.755 70.992, 119 61.769, 119 59.662 C 119 59.298, 114.050 59, 108 59 C 97.980 59, 97 58.836, 97 57.158 C 97 55.711, 95.120 54.743, 88.250 52.651 C 83.438 51.185, 76.616 49.692, 73.092 49.334 L 66.684 48.682 67.351 51.091 M 124.079 54.583 C 124.127 55.748, 124.364 55.985, 124.683 55.188 C 124.972 54.466, 124.936 53.603, 124.604 53.271 C 124.272 52.939, 124.036 53.529, 124.079 54.583 M 143 55.542 C 139.975 56.281, 135.813 57.157, 133.750 57.488 C 131.688 57.820, 130 58.453, 130 58.895 C 130 60.109, 135.896 68, 136.802 68 C 137.237 68, 140.413 64.850, 143.860 61 C 147.307 57.150, 149.761 54.045, 149.313 54.099 C 148.866 54.154, 146.025 54.803, 143 55.542 M 39.757 58.074 C 32.112 68.098, 31.948 85.092, 39.277 108 L 41.677 115.500 42.455 86.977 C 42.884 71.289, 43.063 57.566, 42.854 56.482 C 42.525 54.772, 42.114 54.983, 39.757 58.074 M 119.989 63.674 C 118.133 66.962, 112.371 73.716, 106.287 79.734 C 100.512 85.447, 95.962 90.295, 96.176 90.509 C 96.389 90.723, 102.400 90.031, 109.532 88.972 C 116.664 87.913, 122.798 87.036, 123.162 87.023 C 123.727 87.003, 131.927 76.177, 134.276 72.349 C 134.754 71.570, 133.729 69.352, 131.600 66.563 C 129.701 64.075, 127.859 61.131, 127.506 60.020 C 126.315 56.268, 123.357 57.706, 119.989 63.674 M 132.728 79.207 C 128.615 84.935, 128.392 85.530, 130.248 85.838 C 132.750 86.254, 136.478 83.533, 139.062 79.405 C 140.957 76.379, 140.958 76.272, 139.124 74.612 C 137.327 72.986, 137.054 73.182, 132.728 79.207 M 141.636 80.433 C 139.394 83.854, 139.563 84.325, 142.750 83.538 C 146.701 82.562, 147.305 81.586, 145.160 79.644 C 143.365 78.021, 143.191 78.060, 141.636 80.433 M 124.003 92.235 L 122.036 95.469 124.229 96.281 C 126.429 97.094, 128.272 95.602, 131.064 90.750 C 131.929 89.246, 131.642 89, 129.020 89 C 126.655 89, 125.529 89.725, 124.003 92.235 M 108.500 91.936 L 97.500 93.626 107.679 94.416 C 118.390 95.247, 119.358 95.068, 121.030 91.944 C 122.251 89.663, 123.291 89.664, 108.500 91.936 M 92.595 98.478 C 91.094 104.457, 90.845 113.254, 91.942 121.546 C 93.078 130.127, 95 135.354, 95 129.860 C 95 124.881, 100.845 115.331, 107.897 108.790 C 111.626 105.330, 115.197 101.523, 115.832 100.329 C 116.951 98.223, 116.783 98.140, 110.243 97.561 C 106.534 97.233, 101.186 96.749, 98.357 96.486 C 93.545 96.039, 93.175 96.167, 92.595 98.478 M 120 99.059 C 120 99.641, 120.450 99.840, 121 99.500 C 121.550 99.160, 122 98.684, 122 98.441 C 122 98.198, 121.550 98, 121 98 C 120.450 98, 120 98.477, 120 99.059 M 118.362 104.110 C 115.534 105.861, 110.104 115.437, 111.274 116.608 C 111.613 116.947, 115.410 112.346, 122.298 103.250 C 123.634 101.486, 122.033 101.835, 118.362 104.110" stroke="none" fill="black" fill-rule="evenodd"/>
</svg>