<svg xmlns="http://www.w3.org/2000/svg" width="200" height="200" viewBox="0 0 200 200" version="1.1">
	<path d="M 125.500 15.681 C 119.366 17.059, 116.127 18.737, 111.814 22.771 L 107.017 27.258 89.445 25.565 C 70.478 23.738, 63.995 24.046, 54.682 27.220 C 49.772 28.893, 48.180 29.031, 44.489 28.101 C 34.273 25.529, 26.124 27.349, 21.661 33.200 C 16.515 39.947, 15.833 45.872, 16.183 80.788 C 16.422 104.705, 16.175 113.763, 15.177 117.637 C 14.058 121.985, 14.084 124.103, 15.347 131.421 C 17.143 141.829, 19.583 146.961, 23.745 149.088 C 28.383 151.456, 32.443 150.343, 40.910 144.383 C 61.690 129.754, 62.128 129.500, 66.523 129.500 L 70.736 129.500 71.368 120.596 C 71.716 115.699, 72 109.460, 72 106.730 L 72 101.767 75.943 105.330 C 80.245 109.216, 86.819 111.513, 90.789 110.517 C 93.941 109.726, 94.964 111.202, 94.985 116.568 C 95.022 126.497, 88.049 141.400, 72.501 164.616 C 65.874 174.512, 62.310 180.710, 62.905 181.305 C 65.299 183.699, 77.038 178.899, 86.752 171.554 C 90.191 168.954, 100.091 159.410, 108.752 150.344 C 126.253 132.025, 129.793 128.957, 133.741 128.686 C 136.003 128.531, 136.648 129.075, 137.667 132 C 138.338 133.925, 138.913 140.085, 138.944 145.689 L 139 155.877 134.250 156.570 C 123.055 158.201, 118.871 162.115, 122.125 167.913 C 123.994 171.243, 132.951 175.733, 140.438 177.092 C 154.993 179.736, 167.425 173.499, 172.006 161.253 C 173.509 157.238, 173.991 153.532, 173.965 146.212 C 173.929 136.431, 172.045 124.645, 170.226 122.826 C 169.687 122.287, 163.452 120.729, 156.372 119.366 C 137.235 115.681, 128.899 113.611, 128.702 112.497 C 128.606 111.949, 130.321 110.909, 132.513 110.187 C 136.955 108.724, 161.730 104.790, 178.250 102.923 C 185.824 102.068, 189 101.322, 189 100.400 C 189 99.671, 187.337 98.797, 185.250 98.429 C 167.144 95.235, 145.733 89.244, 133.158 83.853 C 128.975 82.060, 128.769 81.803, 130.295 80.276 C 131.760 78.811, 132.910 78.761, 140.833 79.816 C 152.664 81.391, 163.332 81.313, 167.282 79.623 C 169.052 78.866, 171.683 76.953, 173.129 75.373 C 177.686 70.394, 178.452 66.144, 178.155 47.500 C 177.851 28.392, 177.007 25.383, 172.213 26.300 C 170.635 26.601, 167.406 25.810, 164.051 24.300 C 148.613 17.352, 133.303 13.929, 125.500 15.681 M 122.764 18.996 C 118.725 20.212, 113.688 23.579, 112.148 26.093 L 110.796 28.299 132.148 27.674 C 143.892 27.331, 155.062 26.685, 156.972 26.240 L 160.443 25.430 154.472 23.257 C 141.521 18.546, 129.586 16.942, 122.764 18.996 M 61.344 28.041 C 59.058 28.494, 55.458 29.719, 53.344 30.765 C 49.968 32.435, 49.013 32.513, 45.500 31.410 C 43.300 30.719, 38.748 30.119, 35.385 30.077 C 28.210 29.987, 25.226 31.793, 21.722 38.345 C 19.553 42.401, 19.499 43.319, 19.443 77 C 19.401 102.151, 19.023 113.043, 18.047 117.193 C 15.727 127.053, 19.290 143.179, 24.551 146.625 C 28.406 149.151, 32.738 147.304, 46 137.482 C 54.241 131.378, 59.100 128.506, 63.145 127.347 L 68.790 125.731 69.308 91.615 C 69.593 72.852, 70.136 56.295, 70.516 54.823 C 71.131 52.434, 70.772 51.924, 67.189 50.096 C 61.893 47.394, 54.648 45.825, 51.999 46.805 C 49.903 47.580, 49.872 47.998, 49.658 78.545 C 49.469 105.471, 49.209 110.105, 47.661 114.149 C 45.714 119.235, 43.776 121.374, 40.099 122.497 C 38.024 123.131, 37.804 122.977, 38.483 121.365 C 42.544 111.728, 42.488 112.273, 42.494 82.500 C 42.500 54.226, 42.556 53.405, 44.750 49.693 C 46.181 47.272, 47 44.257, 47 41.411 C 47 36.126, 49.262 34.427, 51.878 37.746 L 53.500 39.804 68.133 36.501 C 76.181 34.685, 86.868 32.618, 91.883 31.908 C 96.897 31.198, 101 30.336, 101 29.993 C 101 29.205, 77.196 26.951, 70.500 27.105 C 67.750 27.168, 63.630 27.589, 61.344 28.041 M 156.500 29.046 C 153.750 29.474, 149.250 29.882, 146.500 29.952 L 141.500 30.080 145.470 32.060 C 147.654 33.149, 149.802 34.402, 150.245 34.845 C 150.687 35.287, 153.709 35.220, 156.959 34.697 C 161.414 33.980, 163.548 33.037, 165.622 30.873 L 168.374 28 164.937 28.134 C 163.047 28.207, 159.250 28.618, 156.500 29.046 M 169.750 30.378 C 167.360 32.211, 167.554 32.928, 170.250 32.232 C 171.906 31.804, 170.590 33.773, 165.268 39.688 C 161.290 44.109, 157.319 48.320, 156.445 49.046 C 155.570 49.772, 153.984 52.071, 152.921 54.155 C 150.511 58.878, 145.211 65, 143.532 65 C 142.838 65, 140.428 67.362, 138.175 70.250 L 134.080 75.500 136.790 76.190 C 143.013 77.773, 157.722 78.798, 162.200 77.959 C 168.401 76.798, 170.781 75.246, 173.029 70.895 C 175.619 65.885, 176.117 59.731, 175.249 43.511 C 174.458 28.742, 173.832 27.246, 169.750 30.378 M 108.379 33.453 C 107.594 35.501, 106.975 35.078, 117 39.342 L 125.500 42.957 134.500 40.080 C 139.450 38.498, 144.400 37, 145.500 36.752 C 147.127 36.385, 146.754 35.953, 143.500 34.434 C 137.752 31.750, 109.337 30.957, 108.379 33.453 M 89.892 35.031 C 84.058 36.059, 73.070 38.265, 65.475 39.934 C 55.196 42.192, 51.325 42.685, 50.333 41.861 C 49.324 41.024, 49 41.117, 49 42.243 C 49 43.365, 50.660 43.851, 55.750 44.220 C 65.774 44.946, 79.162 52.156, 100.208 68.163 L 107.915 74.025 119.708 74.263 L 131.500 74.500 142.259 60.210 C 151.522 47.907, 152.929 45.543, 152.380 43.210 C 152.029 41.720, 151.382 40.104, 150.942 39.621 C 150.133 38.732, 133.680 42.343, 131.006 43.997 C 130.224 44.480, 129.566 46.140, 129.542 47.687 C 129.510 49.847, 128.965 50.576, 127.195 50.827 C 124.212 51.250, 121.849 49.253, 122.213 46.617 C 122.451 44.894, 121.271 44.039, 115.268 41.586 C 111.291 39.960, 107.691 38.976, 107.268 39.398 C 106.846 39.820, 106.442 44.272, 106.371 49.292 C 106.291 55.010, 105.826 58.558, 105.128 58.791 C 103.057 59.481, 102.042 54.384, 103.038 48.301 C 104.488 39.452, 104.295 37.310, 101.996 36.709 C 100.659 36.360, 100.195 35.655, 100.603 34.593 C 100.939 33.717, 101.053 33.036, 100.857 33.081 C 100.661 33.125, 95.726 34.003, 89.892 35.031 M 102 33.393 C 102 33.609, 102.675 34.045, 103.500 34.362 C 104.325 34.678, 105 34.501, 105 33.969 C 105 33.436, 104.325 33, 103.500 33 C 102.675 33, 102 33.177, 102 33.393 M 155.750 37.689 C 153.876 38.179, 153.759 38.607, 154.820 41.091 C 155.384 42.412, 155.896 42.199, 157.826 39.841 C 160.114 37.046, 159.731 36.649, 155.750 37.689 M 45.676 54.582 C 45.258 56.277, 45.047 69.666, 45.207 84.334 C 45.503 111.282, 46.400 114.507, 47.480 92.500 C 48.182 78.178, 46.836 49.887, 45.676 54.582 M 72.653 61.045 C 72.294 64.481, 72 74.427, 72 83.147 L 72 99 76.750 99.006 C 83.449 99.013, 88.522 100.641, 92.365 104.016 L 95.676 106.923 101.729 103.342 C 105.058 101.373, 111.480 96.044, 116 91.500 L 124.220 83.237 116.356 80.619 C 107.202 77.570, 105.876 77.482, 99.872 79.528 C 94.599 81.324, 88.880 85.802, 84.978 91.188 L 82.188 95.041 81.013 87.771 C 79.453 78.110, 74.994 57.848, 74.054 56.148 C 73.622 55.367, 73.030 57.435, 72.653 61.045 M 78.527 61.250 C 79.262 64.138, 80.611 70.550, 81.525 75.500 C 83.863 88.176, 83.427 87.646, 88.173 83.584 C 92.696 79.712, 99.619 76, 102.316 76 C 103.242 76, 104 75.586, 104 75.080 C 104 73.740, 79.468 56, 77.615 56 C 77.381 56, 77.792 58.362, 78.527 61.250 M 120.870 79.167 C 125.303 80.869, 126.389 80.991, 127.090 79.865 C 128.120 78.211, 125.351 77.221, 119.500 77.152 L 115.500 77.104 120.870 79.167 M 117.398 93.891 C 112.392 98.799, 105.745 104.255, 102.628 106.015 L 96.959 109.214 97.574 113.857 C 98.957 124.312, 92.318 139.909, 76.336 163.755 C 67.079 177.566, 66.367 178.949, 68.806 178.363 C 77.675 176.233, 87.486 168.509, 106.500 148.688 C 127.803 126.480, 132.469 123.222, 137.407 127.106 C 141.268 130.143, 143.226 143.952, 141.379 155.119 C 140.787 158.700, 140.721 158.744, 134.995 159.343 C 128.443 160.028, 124.372 161.588, 123.550 163.730 C 121.999 167.772, 136.668 175, 146.424 175 C 155.941 175, 164.785 170.184, 168.515 162.971 C 171.202 157.775, 172.277 147.664, 171.086 138.779 C 169.050 123.583, 170.162 124.839, 156.439 122.230 C 138.956 118.906, 127.990 116.236, 126.400 114.917 C 120.480 110.004, 131.247 106.107, 161.250 102.304 C 168.813 101.346, 175 100.293, 175 99.964 C 175 99.636, 172.142 98.799, 168.649 98.105 C 165.156 97.410, 155.143 94.372, 146.399 91.354 C 137.655 88.335, 129.600 85.663, 128.500 85.415 C 127.023 85.083, 124.121 87.298, 117.398 93.891 M 78.128 103.655 C 79.999 105.911, 85.269 108, 89.090 108 C 91.912 108, 92.100 107.825, 90.872 106.345 C 89.001 104.089, 83.731 102, 79.910 102 C 77.088 102, 76.900 102.175, 78.128 103.655 M 44.079 113.583 C 44.127 114.748, 44.364 114.985, 44.683 114.188 C 44.972 113.466, 44.936 112.603, 44.604 112.271 C 44.272 111.939, 44.036 112.529, 44.079 113.583" stroke="none" fill="black" fill-rule="evenodd"/>
</svg>