<svg xmlns="http://www.w3.org/2000/svg" width="200" height="200" viewBox="0 0 200 200" version="1.1">
	<path d="M 28.077 27.250 C 21.850 40.018, 21.566 43.113, 21.447 99.500 C 21.367 137.394, 21.007 151.871, 20.049 155.836 C 17.583 166.038, 19.942 173.281, 27.105 177.500 C 31.913 180.332, 49.377 180.128, 70.500 176.994 C 89.148 174.227, 109.458 173.754, 118.146 175.885 C 124.791 177.515, 152.233 176.968, 160.713 175.037 C 169.600 173.014, 175.307 167.906, 177.043 160.423 C 177.543 158.265, 177.963 146.680, 177.976 134.677 C 178.003 110.167, 177.786 109.594, 171.828 118.443 C 169.998 121.162, 168.079 123.412, 167.564 123.443 C 166.044 123.535, 165.217 118.443, 164.046 101.776 C 162.276 76.579, 160.110 68.567, 153.681 63.437 L 150.199 60.659 159.470 51.579 C 173.538 37.802, 177.560 30.960, 173.800 27.200 C 171.947 25.347, 163.463 25.776, 153 28.252 C 143.700 30.453, 142.607 30.488, 101 29.927 C 55.096 29.308, 48.438 28.626, 37.404 23.409 C 34.600 22.084, 32.041 21, 31.716 21 C 31.391 21, 29.754 23.813, 28.077 27.250 M 30.147 28.881 C 24.915 41.041, 24.757 42.881, 23.878 101.500 C 23.425 131.750, 22.783 159.208, 22.450 162.517 C 21.922 167.772, 22.130 168.896, 24.091 171.388 C 29.166 177.841, 38.855 178.499, 68.645 174.415 C 85.703 172.076, 91.370 171, 86.627 171 C 83.957 171, 77.177 167.200, 76.033 165.062 C 74.351 161.920, 74.844 157.527, 77.286 153.898 C 80.112 149.698, 90.898 143.991, 97.394 143.259 C 99.952 142.971, 102.254 142.398, 102.508 141.987 C 102.982 141.221, 91.667 135.350, 82.197 131.448 C 79.280 130.246, 76.923 128.866, 76.960 128.381 C 76.997 127.897, 80.609 127.658, 84.988 127.851 C 91.607 128.143, 93.713 127.833, 97.472 126.013 C 105.935 121.917, 111.818 112.361, 113.848 99.415 C 114.539 95.011, 114.436 93.721, 113.360 93.308 C 112.604 93.018, 107.781 96.175, 102.538 100.392 C 97.336 104.577, 92.139 108, 90.990 108 C 89.841 108, 87.532 108.708, 85.860 109.572 C 82.132 111.500, 80 110.825, 80 107.718 C 80 105.490, 86.098 94.356, 90.252 89 L 92.191 86.500 87.845 85.824 C 85.455 85.452, 81.573 85.115, 79.219 85.074 C 76.331 85.024, 74.744 84.497, 74.344 83.455 C 74.018 82.606, 75.801 77.768, 78.306 72.705 C 80.811 67.642, 83.167 62.258, 83.541 60.741 C 83.915 59.223, 84.573 57.764, 85.003 57.498 C 85.432 57.233, 88.401 58.592, 91.601 60.519 C 100.497 65.876, 107 67.076, 107 63.361 C 107 57.773, 96.969 45.616, 89.437 42.076 C 81.825 38.497, 74.470 39.629, 69.291 45.175 C 66.779 47.866, 61.587 58.886, 60.541 63.750 C 60.145 65.588, 59.216 67, 58.401 67 C 56.730 67, 57.143 64.605, 60.297 56 C 63.840 46.334, 69.186 39.826, 75.393 37.624 C 79.059 36.324, 76.225 35.976, 69.605 36.914 C 51.084 39.537, 46.069 50.283, 48.331 82.500 C 50.052 107.004, 49.804 129.481, 47.739 136.174 C 45.874 142.218, 46.154 145.309, 49.710 157.914 C 51.018 162.551, 51.388 163.058, 52.287 161.452 C 53.493 159.296, 54.930 108.874, 54.211 93.940 C 53.707 83.471, 54.447 77, 56.147 77 C 57.884 77, 56.726 157.414, 54.916 162.500 C 52.104 170.395, 48.428 165.932, 45.065 150.542 C 43.161 141.833, 43.162 141.740, 45.198 133.689 C 47.385 125.042, 47.380 126.518, 45.381 76.195 C 44.606 56.697, 45.923 49.787, 51.699 43.039 C 57.469 36.298, 61.735 34.653, 74.649 34.190 C 85.099 33.816, 85.839 33.916, 86.433 35.788 C 87.477 39.077, 92.187 40.334, 101.291 39.753 C 109.283 39.243, 131.676 34.533, 133.321 33.016 C 133.772 32.599, 120.947 32.486, 104.821 32.764 C 63.079 33.482, 45.792 31.440, 32.889 24.266 C 32.553 24.079, 31.319 26.156, 30.147 28.881 M 160 29.563 C 145.148 32.302, 135.267 35.579, 132.621 38.643 L 130.155 41.500 133.235 42.156 C 137.924 43.155, 139.742 47.027, 139.900 56.358 C 140 62.203, 140.006 62.215, 142.692 61.541 C 147.518 60.330, 164.704 43.938, 170.790 34.742 C 173.337 30.893, 173.358 30.735, 171.516 29.388 C 169.311 27.776, 169.721 27.770, 160 29.563 M 119.500 39.520 C 114.550 40.784, 107.456 42.143, 103.735 42.540 L 96.971 43.261 101.378 47.973 C 105.995 52.909, 109 57.828, 109 60.450 C 109 61.303, 109.365 62, 109.811 62 C 110.471 62, 123.630 45.929, 128.807 38.800 C 130.355 36.667, 130.817 36.631, 119.500 39.520 M 127.582 46.937 C 121.009 51.270, 113.227 64.156, 110.898 74.564 C 109.687 79.978, 110.592 87.031, 112.584 87.695 C 113.542 88.014, 139 67.453, 139 66.360 C 139 66.097, 138.550 66.160, 138 66.500 C 137.363 66.893, 137 64.032, 137 58.624 C 137 53.952, 136.561 48.976, 136.025 47.565 C 134.834 44.434, 131.729 44.203, 127.582 46.937 M 86 61.899 C 86 62.708, 79.695 76.586, 77.245 81.171 C 77.047 81.540, 79.499 82.119, 82.693 82.458 C 85.887 82.797, 89.697 83.263, 91.161 83.494 C 93.485 83.861, 94.530 82.974, 99.411 76.489 C 102.485 72.405, 105 68.824, 105 68.532 C 105 68.239, 103.987 68, 102.750 67.999 C 100.877 67.999, 97.758 66.674, 86.750 61.206 C 86.338 61.001, 86 61.313, 86 61.899 M 134.933 73.750 C 128.630 79.112, 121.968 84.675, 120.127 86.111 C 117.134 88.446, 116.908 88.959, 117.980 90.963 C 119.095 93.046, 119.735 93.178, 127.090 92.844 C 131.440 92.647, 134.997 92.714, 134.993 92.993 C 134.990 93.272, 134.067 94.850, 132.944 96.500 C 128.665 102.783, 115.014 126.022, 111.479 133.041 C 108.175 139.602, 107.956 140.495, 109.394 141.546 C 111.789 143.297, 111.336 145, 108.475 145 C 105.633 145, 104.305 147.494, 103.320 154.680 C 102.825 158.293, 103.003 159, 104.407 159 C 106.970 159, 115.544 150.455, 120.576 142.886 C 130.237 128.354, 135.665 112.797, 136.685 96.714 C 137.674 81.141, 139.808 82.757, 142.344 101 C 146.089 127.929, 149.255 162.308, 148.320 165.885 C 147.662 168.402, 146.164 168.607, 144.550 166.399 C 143.488 164.946, 142.419 165.036, 132.940 167.372 C 127.198 168.786, 120.025 170.260, 117 170.645 L 111.500 171.346 116.500 172.708 C 123.627 174.649, 155.524 173.911, 162.611 171.642 C 168.703 169.691, 172.605 166.082, 173.982 161.127 C 174.536 159.132, 174.986 148.950, 174.983 138.500 L 174.978 119.500 172.416 122.750 C 169.116 126.938, 165.393 127.157, 163.899 123.250 C 163.320 121.737, 162.189 112.400, 161.386 102.500 C 159.391 77.932, 157.223 69.263, 152.075 65.282 C 148.884 62.814, 146.269 64.105, 134.933 73.750 M 103.621 75.468 C 100.530 79.576, 98 83.351, 98 83.857 C 98 84.363, 99.688 85.076, 101.750 85.442 C 103.813 85.808, 106.263 86.330, 107.194 86.603 C 108.671 87.036, 108.767 86.674, 107.941 83.800 C 107.051 80.700, 108.056 71.336, 109.536 68.942 C 109.856 68.424, 109.921 68, 109.680 68 C 109.439 68, 106.713 71.361, 103.621 75.468 M 91.773 91.666 C 87.593 97.405, 81.542 108, 82.444 108 C 82.794 108, 84.844 107.100, 87 106 C 89.156 104.900, 91.568 104, 92.360 104 C 93.152 104, 97.543 100.978, 102.118 97.285 L 110.435 90.569 106.039 89.296 C 95.786 86.328, 95.644 86.352, 91.773 91.666 M 116.194 101.651 C 113.166 117.618, 104.338 128.585, 92.967 130.506 L 89.089 131.161 97.114 135.177 C 101.528 137.386, 105.281 139.038, 105.453 138.847 C 105.626 138.656, 107.578 134.900, 109.790 130.500 C 112.002 126.100, 117.402 116.537, 121.790 109.250 L 129.768 96 125.634 95.986 C 123.360 95.979, 120.595 95.729, 119.488 95.432 C 117.699 94.951, 117.335 95.638, 116.194 101.651 M 139 103.645 C 139 108.638, 134.445 122.487, 129.509 132.500 C 119.834 152.127, 106.524 165.381, 101.516 160.373 C 100.177 159.034, 99.966 157.714, 100.509 154.089 C 100.888 151.565, 101.639 148.674, 102.180 147.664 C 102.720 146.655, 102.976 145.642, 102.748 145.414 C 102.520 145.186, 99.766 145.516, 96.629 146.146 C 85.337 148.413, 75.834 156.655, 77.933 162.359 C 80.040 168.084, 92.517 170.827, 108.351 169.046 C 118.137 167.946, 142.209 162.736, 144.725 161.173 C 146.143 160.293, 145.273 147.542, 141.880 119.500 C 140.004 103.993, 139 98.465, 139 103.645" stroke="none" fill="black" fill-rule="evenodd"/>
</svg>