<svg xmlns="http://www.w3.org/2000/svg" width="200" height="200" viewBox="0 0 200 200" version="1.1">
	<path d="M 35.299 23.960 C 29.604 27.432, 27.146 35.449, 28.723 45.414 C 29.960 53.237, 31.464 50.873, 31.483 41.075 C 31.497 33.606, 31.841 31.695, 33.594 29.327 C 36.551 25.334, 41.221 23.892, 49 24.572 C 54.675 25.068, 86.331 30.662, 85 30.934 C 84.725 30.990, 80.675 31.460, 76 31.978 C 71.325 32.497, 65.874 33.393, 63.888 33.970 C 58.534 35.523, 52.587 40.251, 50.474 44.634 C 47.936 49.899, 48.173 60.375, 51.036 69.497 C 53.150 76.229, 53.189 77.080, 52.061 91.997 C 48.786 135.312, 40.863 157.353, 22.045 175.500 L 17.897 179.500 19.388 175.928 C 21.842 170.047, 26.864 150.189, 28.600 139.500 C 29.769 132.307, 30.366 120.025, 30.728 95.750 C 31.168 66.162, 31.045 62, 29.727 62 C 28.428 62, 28.154 66.780, 27.705 97.250 C 27.267 126.960, 26.864 134.229, 25.141 143.500 C 22.948 155.300, 18.615 170.641, 14.619 180.750 C 13.260 184.188, 12.490 187, 12.908 187 C 14.851 187, 30.189 171.365, 34.827 164.656 C 46.912 147.175, 51.672 130.298, 54.547 94.734 C 56.045 76.212, 56.033 75.609, 54.062 69.628 C 50.974 60.261, 50.408 52.838, 52.388 47.654 C 56.890 35.866, 66.504 33.464, 104.808 34.556 L 129.115 35.248 126.942 37.562 C 121.959 42.865, 123.781 52.942, 131.275 61.541 L 134.797 65.581 144.112 64.837 C 149.234 64.428, 153.587 64.254, 153.784 64.451 C 153.981 64.648, 152.014 68.010, 149.413 71.923 C 144.439 79.402, 143.997 79.668, 131.741 82.569 C 127.549 83.561, 127.689 84.405, 132.560 87.484 L 137.028 90.308 135.325 92.904 C 134.388 94.332, 129.607 101.688, 124.700 109.250 C 119.793 116.812, 115.314 123, 114.746 123 C 114.071 123, 113.925 120.311, 114.325 115.250 C 114.661 110.987, 114.534 104.372, 114.041 100.550 C 113.449 95.962, 113.496 92.941, 114.180 91.663 C 114.750 90.598, 115.505 85.642, 115.858 80.648 L 116.500 71.570 120.250 70.686 C 122.313 70.199, 124 69.322, 124 68.735 C 124 67.292, 113.141 46.872, 111.401 45.043 C 108.580 42.078, 108.107 45.342, 110.031 54.500 C 113.164 69.417, 112.774 70.607, 105.718 67.653 C 101.183 65.754, 96.225 59.842, 91.062 50.177 C 85.847 40.416, 83.916 38.926, 80.137 41.747 C 76.670 44.336, 73.342 50.191, 67.776 63.500 C 57.460 88.168, 56.546 94.601, 60.883 112.031 C 63.512 122.593, 63.997 126.431, 63.982 136.528 C 63.972 143.112, 63.301 153.163, 62.491 158.861 C 61.681 164.560, 61.302 170.410, 61.649 171.861 C 64.586 184.134, 71.331 185.458, 98 178.995 C 126.686 172.044, 138.045 171.772, 151.307 177.720 L 157.114 180.324 165.307 176.007 C 179.842 168.348, 182.117 166.845, 181.779 165.126 C 181.498 163.692, 179.695 163.543, 166.480 163.864 C 145.931 164.364, 139.264 162.239, 137.129 154.506 C 136.179 151.065, 137.270 143.352, 138.946 141.661 C 139.403 141.200, 146.465 139.966, 154.639 138.919 C 171.283 136.787, 172 136.612, 172 134.702 C 172 133.805, 169.188 132.746, 163.750 131.596 C 149.907 128.669, 140.997 123.664, 137.411 116.800 C 136.635 115.314, 136 113.709, 136 113.233 C 136 112.756, 139.438 111.555, 143.640 110.565 C 165.714 105.361, 174.443 100.448, 167.869 96.930 C 166.697 96.303, 160.735 94.454, 154.619 92.823 C 148.504 91.191, 143.124 89.490, 142.665 89.043 C 142.206 88.596, 142.833 86.700, 144.059 84.830 C 145.942 81.958, 147.655 80.988, 155.091 78.581 C 176.488 71.655, 180.423 64.584, 164.086 62.417 L 159.092 61.755 162.882 56.127 C 164.966 53.032, 168.826 46.929, 171.459 42.564 C 180.803 27.075, 179.817 25.206, 164.711 29.784 C 152.169 33.585, 148.041 34.286, 143.370 33.410 L 139.740 32.729 142.957 31.376 C 144.736 30.628, 145.988 29.459, 145.756 28.762 C 145.230 27.172, 116.910 25.703, 113.294 27.078 C 105.585 30.009, 91.411 29.211, 66.743 24.458 C 50.816 21.389, 39.801 21.214, 35.299 23.960 M 114.852 29.482 C 114.587 29.746, 111.924 30.369, 108.935 30.865 C 104.493 31.601, 106.332 31.775, 119 31.813 C 136.031 31.864, 142.665 30.773, 132.061 29.664 C 124.634 28.888, 115.542 28.791, 114.852 29.482 M 165.500 32.747 C 159.433 34.999, 156.794 35.365, 145.697 35.495 L 132.894 35.645 129.828 38.711 C 125.905 42.634, 125.733 48.169, 129.343 54.307 C 133.825 61.926, 135.177 62.559, 146.195 62.190 L 155.889 61.865 162.831 51.124 C 171.422 37.830, 175.504 29.972, 173.767 30.074 C 173.070 30.115, 169.350 31.318, 165.500 32.747 M 80.303 45.231 C 76.171 49.734, 66.188 72.569, 62.955 84.913 C 60.348 94.866, 60.487 99.709, 63.717 111.545 C 66.098 120.270, 66.438 123.354, 66.467 136.500 C 66.485 144.750, 65.881 155.598, 65.125 160.607 C 62.032 181.100, 67.668 183.649, 99 175.927 C 124.267 169.699, 140.432 169.432, 152.375 175.046 L 156.792 177.123 166.896 172.052 C 172.453 169.263, 177 166.837, 177 166.660 C 177 166.484, 170.363 166.375, 162.250 166.420 C 149.098 166.491, 146.988 166.264, 142.777 164.318 C 136.684 161.504, 133.983 157.211, 134.080 150.500 C 134.120 147.750, 134.720 143.925, 135.413 142 L 136.674 138.500 146.087 137.285 C 151.264 136.618, 157.525 135.777, 160 135.419 L 164.500 134.766 159.066 133.356 C 145.205 129.761, 136.382 123.345, 133.899 115.056 C 133.228 112.818, 132.864 110.843, 133.090 110.668 C 133.315 110.492, 139.125 108.883, 146 107.091 C 160.958 103.193, 168.212 100.273, 166 99.039 C 165.175 98.579, 159.775 96.973, 154 95.470 C 148.225 93.967, 142.706 92.327, 141.737 91.826 C 140.233 91.049, 138.138 93.712, 127.487 109.941 L 115 128.968 115 135.896 C 115 143.454, 113.034 155.017, 110.592 161.816 C 105.779 175.220, 98.883 175.538, 93.479 162.605 L 92.012 159.094 101.563 144.481 C 106.816 136.444, 111.361 129.110, 111.663 128.184 C 111.965 127.258, 111.289 127.934, 110.160 129.686 C 106.614 135.189, 101.728 136.436, 95.700 133.375 C 90.074 130.518, 89.936 130.224, 92.314 126.187 C 93.508 124.159, 96.544 120.362, 99.059 117.750 C 103.797 112.828, 108.121 111.521, 110.800 114.200 C 111.733 115.133, 111.978 113.967, 111.900 108.950 C 111.845 105.402, 111.500 101.428, 111.133 100.117 C 110.530 97.965, 110.335 97.892, 109.116 99.360 C 107.155 101.723, 100.319 103.275, 95.231 102.512 C 91.059 101.886, 90.855 101.706, 91.465 99.175 C 92.789 93.672, 97.907 84.107, 100.401 82.473 C 104.078 80.064, 107.672 81.244, 109.716 85.532 C 111.966 90.249, 112.966 88.327, 112.985 79.250 C 112.999 72.400, 112.876 71.999, 110.750 71.978 C 106.782 71.939, 100.411 68.355, 96.921 64.198 C 95.056 61.976, 91.463 56.436, 88.937 51.887 C 86.411 47.337, 83.904 43.468, 83.365 43.288 C 82.826 43.109, 81.448 43.983, 80.303 45.231 M 113.387 57 C 113.695 58.925, 114.241 62.413, 114.601 64.750 C 115.298 69.275, 115.315 69.290, 118.715 68.379 L 120.931 67.785 118.916 63.835 C 117.808 61.663, 115.984 58.449, 114.864 56.693 L 112.827 53.500 113.387 57 M 154.196 69.250 C 152.601 71.588, 150.766 74.508, 150.119 75.739 L 148.941 77.978 156.221 75.366 C 165.348 72.091, 171 69.257, 171 67.955 C 171 66.431, 166.392 65, 161.483 65 C 157.444 65, 156.866 65.337, 154.196 69.250 M 136.614 84.323 L 133.728 85.555 136.286 86.721 C 138.555 87.754, 139.026 87.610, 140.445 85.443 C 142.285 82.635, 141.264 82.337, 136.614 84.323 M 100.811 85.706 C 99.022 87.740, 95.623 94.317, 94.519 97.883 C 93.791 100.234, 93.856 100.260, 99.455 99.795 C 103.871 99.429, 105.714 98.740, 107.762 96.692 L 110.395 94.060 108.418 89.280 C 106.231 83.992, 103.463 82.691, 100.811 85.706 M 101.364 119.250 C 97.595 123.295, 94 128.042, 94 128.974 C 94 130.141, 98.898 132, 101.974 132 C 105.254 132, 108.239 128.835, 110.004 123.486 C 112.408 116.204, 106.776 113.442, 101.364 119.250 M 104 145.625 C 99.875 152.040, 96.177 157.833, 95.782 158.498 C 95.387 159.163, 96.062 161.686, 97.282 164.104 C 101.892 173.243, 107.175 168.168, 110.510 151.397 C 111.396 146.940, 111.982 141.194, 111.811 138.627 L 111.500 133.960 104 145.625" stroke="none" fill="black" fill-rule="evenodd"/>
</svg>