<svg xmlns="http://www.w3.org/2000/svg" width="200" height="200" viewBox="0 0 200 200" version="1.1">
	<path d="M 123.500 19.639 C 118.550 20.425, 106.311 22.416, 96.302 24.064 L 78.104 27.059 68.085 25.017 C 62.574 23.894, 56.897 22.531, 55.468 21.988 C 50.867 20.238, 46.110 20.799, 43.513 23.397 C 38.995 27.915, 37.696 35.458, 38.256 53.930 C 38.784 71.360, 41.679 96, 43.198 96 C 43.689 96, 47.558 94.879, 51.796 93.509 C 56.033 92.138, 63.411 90.164, 68.191 89.120 L 76.882 87.224 77.928 90.224 C 78.657 92.314, 79.433 93.038, 80.487 92.612 C 81.319 92.275, 82.765 91.692, 83.700 91.316 C 85.512 90.587, 78.079 100.726, 71.689 107.697 C 64.689 115.335, 56.821 116.583, 43.835 112.115 C 38.443 110.260, 36.972 110.261, 24.827 112.129 C 17.843 113.203, 15.529 115.143, 19.011 117.006 C 21.815 118.506, 44.181 120.059, 61 119.920 L 75.500 119.801 75.148 122.650 C 74.667 126.546, 71.725 134.087, 68.616 139.392 C 60.669 152.952, 42.472 168.259, 22.250 178.392 C 14.097 182.478, 12.310 185.563, 18.750 184.433 C 60.569 177.098, 84.934 161.900, 98.171 134.895 C 103.882 123.242, 104.435 123.541, 114.986 144 C 124.991 163.399, 132.087 171.913, 140 174.013 C 142.475 174.670, 146.289 175.948, 148.475 176.854 C 160.736 181.932, 175.608 175.717, 179.102 164.053 C 180.755 158.537, 178.089 153.325, 172 150.164 C 167.785 147.976, 166.709 147.862, 155.020 148.364 C 142.658 148.894, 142.482 148.870, 136.390 145.871 C 128.968 142.217, 122.432 136.163, 119.907 130.602 C 117.384 125.047, 117.525 123.321, 120.768 120.079 C 124.662 116.184, 132.929 115.335, 145.130 117.578 C 151.348 118.720, 157.324 119.106, 163.879 118.788 C 174.998 118.247, 180 116.337, 180 112.629 C 180 107.299, 172.589 104.604, 159.503 105.177 C 151.284 105.536, 149.388 105.999, 142.825 109.242 C 137.694 111.778, 133.404 113.108, 128.851 113.574 C 116.833 114.806, 112.641 111.806, 107.593 98.366 C 104.534 90.222, 102.897 88.405, 96.831 86.420 C 92.709 85.071, 93.135 85.016, 105.694 85.286 L 118.888 85.570 126.986 89.810 C 137.428 95.277, 142.281 96.004, 146.985 92.809 C 151.154 89.976, 154.513 84.325, 156.085 77.500 C 156.973 73.644, 159.132 28.397, 158.482 27.255 C 158.245 26.837, 135.842 42.007, 129.500 46.879 C 126.200 49.414, 120.487 54.079, 116.804 57.244 C 113.122 60.410, 109.828 63, 109.485 63 C 108.293 63, 99.435 56.564, 87.213 46.817 C 80.455 41.428, 73.811 36.740, 72.450 36.398 C 69.406 35.634, 67.263 37.276, 66.674 40.823 C 66.430 42.295, 66.291 41.476, 66.365 39.003 C 66.499 34.529, 66.527 34.495, 72 32.243 C 77.056 30.162, 78.509 30.028, 90 30.588 C 103.427 31.243, 118.305 29.994, 126.654 27.512 C 131.375 26.108, 139.825 20.539, 139.948 18.750 C 140.023 17.665, 133.814 18, 123.500 19.639 M 116.500 23.525 C 108.250 24.803, 99.250 26.283, 96.500 26.813 C 91.589 27.759, 91.651 27.778, 100 27.868 C 113.313 28.012, 130.753 24.827, 132.547 21.924 C 132.861 21.416, 132.754 21.045, 132.309 21.101 C 131.864 21.156, 124.750 22.247, 116.500 23.525 M 47.302 24.012 C 40.158 26.889, 38.632 43.831, 42.574 76.500 C 43.371 83.100, 44.245 89.487, 44.516 90.694 L 45.010 92.889 50.255 91.091 C 53.140 90.103, 60 88.239, 65.500 86.950 C 71 85.661, 75.654 84.504, 75.841 84.378 C 76.029 84.253, 75.886 83.217, 75.524 82.075 C 74.955 80.282, 74.059 80, 68.933 80 C 65.670 80, 63 79.797, 63 79.549 C 63 79.301, 63.675 76.506, 64.500 73.339 C 66.476 65.752, 66.406 55.413, 64.310 45.299 C 62.359 35.885, 63.122 33.021, 68.134 30.945 C 71.592 29.512, 71.871 28, 68.676 28 C 67.398 28, 62.594 26.875, 58 25.500 C 53.406 24.125, 49.614 23.029, 49.574 23.063 C 49.533 23.098, 48.511 23.525, 47.302 24.012 M 144.629 39.381 C 134.438 46.297, 117.887 59.237, 114.674 62.801 C 112.880 64.790, 112.926 64.872, 117.234 67.397 C 122.891 70.712, 126.273 74.346, 125.832 76.636 C 125.364 79.062, 121.361 80.967, 116.691 80.985 C 111.827 81.004, 112.698 82.536, 118.060 83.394 C 120.318 83.755, 125.541 85.839, 129.668 88.025 C 139.221 93.086, 142.972 93.228, 147.503 88.697 C 152.815 83.385, 154.174 77.241, 154.732 56 C 154.999 45.825, 155.056 36.416, 154.859 35.090 C 154.513 32.768, 154.142 32.924, 144.629 39.381 M 70.283 46.250 C 70.733 51.948, 76.239 76.572, 77.300 77.634 C 77.428 77.761, 81.496 77.960, 86.341 78.077 L 95.150 78.289 101.075 72.426 C 104.334 69.201, 107 66.293, 107 65.963 C 107 65.633, 102.162 61.678, 96.250 57.174 C 90.338 52.669, 82.662 46.737, 79.193 43.992 C 70.378 37.014, 69.571 37.219, 70.283 46.250 M 68.663 65 C 68.283 68.575, 67.701 72.737, 67.370 74.250 C 66.798 76.856, 66.957 77, 70.402 77 C 73.674 77, 73.981 76.774, 73.473 74.750 C 73.162 73.513, 72.108 69.350, 71.130 65.500 L 69.354 58.500 68.663 65 M 104.468 72.750 L 98.981 78.500 105.881 78.792 C 109.675 78.952, 114.963 78.717, 117.631 78.270 C 124.600 77.102, 124.477 75.042, 117.172 70.605 C 113.909 68.622, 110.950 67, 110.597 67 C 110.244 67, 107.486 69.588, 104.468 72.750 M 78.326 81.408 C 78.697 82.374, 79 83.356, 79 83.591 C 79 84.287, 90.369 82.806, 92 81.897 C 92.936 81.375, 91.181 81.049, 87.332 81.030 C 83.939 81.014, 80.374 80.697, 79.408 80.326 C 78.031 79.798, 77.798 80.031, 78.326 81.408 M 96.813 81.683 C 97.534 81.972, 98.397 81.936, 98.729 81.604 C 99.061 81.272, 98.471 81.036, 97.417 81.079 C 96.252 81.127, 96.015 81.364, 96.813 81.683 M 84.578 85.892 C 80.879 86.465, 78.180 89, 81.267 89 C 83.665 89, 89 86.863, 89 85.902 C 89 85.406, 88.888 85.064, 88.750 85.142 C 88.612 85.220, 86.735 85.557, 84.578 85.892 M 81.401 100.126 C 76.128 106.847, 70.857 112.429, 68.086 114.226 L 63.500 117.201 71.194 116.754 L 78.888 116.308 78.383 119.404 C 76.137 133.172, 71.421 142.309, 60.735 153.598 C 52.246 162.567, 43.406 169.555, 32.456 175.954 C 24.424 180.647, 25.184 180.890, 37.500 177.565 C 66.440 169.750, 84.814 155.774, 96.043 133.034 C 102.771 119.410, 106.312 120.720, 116.217 140.500 C 124.598 157.238, 130.362 165.640, 135.854 169.122 C 138.350 170.705, 141.379 172, 142.587 172 C 143.794 172, 146.743 172.890, 149.141 173.978 C 154.593 176.452, 161.287 176.507, 166.541 174.120 C 174.492 170.509, 179.014 161.723, 175.603 156.516 C 172.615 151.956, 168.444 150.594, 158.500 150.931 C 153.550 151.098, 147.691 151.286, 145.481 151.348 C 137.305 151.578, 122.350 141.526, 117.905 132.814 C 115.407 127.918, 115.443 121.978, 117.989 118.741 L 119.979 116.211 117.508 115.591 C 113.121 114.490, 108.376 108.640, 105.945 101.335 C 103.040 92.606, 99.590 89, 94.142 89 C 90.223 89, 89.928 89.257, 81.401 100.126 M 154.201 108.010 C 151.836 108.506, 147.561 109.981, 144.701 111.288 L 139.500 113.663 148.148 115.280 C 160.574 117.604, 179.623 115.436, 177.465 111.943 C 175.317 108.468, 162.409 106.286, 154.201 108.010 M 31 113.699 C 21.239 114.754, 29.049 116.631, 44 116.822 L 49.500 116.892 43.500 114.961 C 40.200 113.899, 36.825 113.095, 36 113.175 C 35.175 113.255, 32.925 113.490, 31 113.699" stroke="none" fill="black" fill-rule="evenodd"/>
</svg>