<svg xmlns="http://www.w3.org/2000/svg" width="200" height="200" viewBox="0 0 200 200" version="1.1">
	<path d="M 34.533 20.690 C 23.468 45.955, 22.614 51.459, 26.926 69.730 C 30.362 84.294, 31.935 97.472, 31.974 112.040 C 32.005 123.513, 33.827 131.069, 38.718 140.013 L 42.378 146.706 39.691 152.103 C 38.213 155.071, 32.953 163.236, 28.002 170.247 C 23.051 177.258, 19 183.221, 19 183.497 C 19 183.774, 20.161 184, 21.579 184 C 25.896 184, 36.862 179.087, 49.534 171.475 C 72.916 157.431, 79.343 155.171, 86.389 158.514 C 91.490 160.935, 94.996 167.051, 97.990 178.750 C 98.588 181.087, 99.445 183, 99.894 183 C 100.344 183, 100.970 179.581, 101.286 175.403 C 102.403 160.627, 108.029 153.622, 128.707 141.257 C 140.837 134.004, 147.488 128.488, 151.061 122.718 L 153.054 119.500 152.467 126.500 C 151.476 138.306, 149.997 150.848, 149.436 152.208 C 149.143 152.919, 146.949 154.740, 144.562 156.256 C 142.043 157.856, 139.498 160.539, 138.495 162.651 C 136.904 166.004, 136.893 166.552, 138.350 169.608 C 140.923 175.004, 146.808 177.491, 157 177.489 C 164.660 177.488, 166.043 177.181, 171 174.382 C 174.229 172.559, 177.828 169.434, 179.717 166.815 C 183.137 162.070, 186 152.987, 186 146.878 C 186 141.733, 183.421 128.776, 180.874 121.120 C 178.785 114.844, 178.763 114.116, 179.810 85.606 C 181.346 43.789, 179.562 25.947, 173.356 21.066 C 171.912 19.930, 169.733 19, 168.515 19 C 166.198 19, 159.857 23.178, 156.595 26.854 C 155.404 28.195, 153.504 29, 151.527 29 C 145.013 29, 138.427 31.813, 134.197 36.402 C 126.408 44.852, 124.002 59.395, 124.001 98.040 C 124 115.179, 123.628 122.008, 122.448 126.540 C 121.595 129.818, 120.486 132.912, 119.984 133.415 C 119.481 133.918, 116.589 134.535, 113.557 134.787 C 108.438 135.211, 107.977 135.070, 107.116 132.806 C 105.823 129.404, 107.079 123.644, 112.888 106.341 C 119.742 85.929, 121.216 79.716, 121.296 70.908 C 121.350 65.012, 120.876 62.330, 119.179 58.908 L 116.992 54.500 119.442 52.706 C 122.935 50.148, 126 44.775, 126 41.209 C 126 32.331, 107.736 23.361, 88.492 22.787 C 81.963 22.593, 80.997 22.824, 78.071 25.286 C 76.298 26.779, 74.380 28, 73.810 28 C 73.240 28, 68.887 25.810, 64.137 23.134 C 59.387 20.458, 51.829 16.424, 47.342 14.169 L 39.184 10.070 34.533 20.690 M 36.174 23.750 C 26.432 46.668, 25.417 53.267, 29.337 68.237 C 32.674 80.982, 33.822 89.797, 34.897 110.928 L 35.783 128.356 39.891 136.259 C 42.251 140.798, 44 145.553, 44 147.429 C 44 150.829, 38.030 161.186, 28.724 173.931 C 26.141 177.468, 24.230 180.563, 24.476 180.810 C 25.277 181.610, 39.474 174.387, 53.421 166.083 C 68.766 156.947, 77.935 153.390, 83.464 154.427 C 88.237 155.323, 93.806 160.383, 96.560 166.328 L 98.804 171.170 99.509 167.835 C 100.676 162.318, 105.143 155.055, 110.077 150.652 C 112.636 148.368, 120.303 143.135, 127.115 139.022 C 147.438 126.752, 152.388 120.170, 152.328 105.500 C 152.294 97.060, 150.387 88.374, 146.432 78.641 C 143.832 72.243, 144.118 67.873, 147.666 59.750 C 149.471 55.617, 151.376 54.966, 152.967 57.937 C 156.926 65.336, 156.880 125.743, 152.898 148.654 C 151.884 154.487, 151.585 154.960, 147.164 157.718 C 138.350 163.217, 137.988 169.277, 146.251 173.027 C 151.269 175.305, 160.679 175.562, 166.252 173.573 C 182.748 167.686, 187.093 149.484, 178.376 122.782 L 175.857 115.063 177.053 87.282 C 178.333 57.543, 177.839 40.642, 175.419 31.349 C 172.572 20.419, 168.740 19.295, 160.594 27 C 156.112 31.238, 154.712 32.001, 151.403 32.006 C 139.184 32.023, 132.534 38.565, 129.016 54.029 C 128.265 57.331, 127.484 72.384, 127.047 92 C 126.418 120.231, 126.072 125.213, 124.412 129.928 C 122.790 134.534, 121.970 135.545, 119 136.602 C 113.632 138.513, 107.597 138.318, 105.655 136.171 C 102.589 132.784, 103.622 126.159, 110.547 104.779 C 118.277 80.916, 119.896 72.393, 118.143 64.798 C 117.477 61.916, 115.963 58.525, 114.778 57.264 L 112.623 54.969 117.811 50.174 C 122.259 46.064, 123 44.852, 123 41.690 C 123 37.178, 120.711 34.670, 113.648 31.445 C 106.691 28.268, 98.307 26.187, 89.673 25.494 C 82.898 24.950, 82.334 25.067, 79.516 27.612 L 76.531 30.307 79.516 32.404 C 81.157 33.557, 84.477 36.418, 86.893 38.761 L 91.286 43.023 95.721 40.423 C 98.161 38.993, 100.409 38.075, 100.716 38.383 C 101.680 39.347, 98.853 47.830, 96.261 51.750 C 91.224 59.370, 82.311 63.905, 72.250 63.967 C 69.362 63.985, 67 64.170, 67 64.378 C 67 64.586, 67.684 66.392, 68.519 68.392 C 69.761 71.363, 70.447 71.936, 72.269 71.522 C 80.925 69.556, 84.245 69.033, 85.021 69.513 C 86.907 70.679, 84.634 72.916, 79.409 75.037 C 76.415 76.252, 73.728 77.631, 73.437 78.102 C 72.314 79.919, 75.087 83, 77.844 83 C 79.370 83, 81.466 83.620, 82.503 84.379 C 84.309 85.699, 84.259 85.879, 81.312 88.629 L 78.236 91.500 80.025 95.628 C 81.636 99.345, 82.321 99.878, 86.907 100.978 C 92.871 102.408, 93.633 104.603, 88.500 105.566 C 86.575 105.927, 85 106.406, 85 106.631 C 85 106.856, 86.129 109.817, 87.508 113.212 C 90.802 121.318, 89.127 123.605, 85.651 115.746 C 84.302 112.695, 82.931 109.357, 82.605 108.329 C 82.079 106.673, 81.129 106.501, 74.256 106.816 C 65.573 107.214, 64.528 107.917, 63.491 114.055 C 62.018 122.772, 68.728 135, 74.984 135 C 78.445 135, 82.032 132.213, 84.522 127.589 C 85.585 125.615, 87.027 124, 87.727 124 C 89.648 124, 89.299 125.206, 85.883 130.364 C 80.059 139.156, 73.081 140.152, 66.712 133.102 C 61.955 127.838, 60.618 123.228, 61.287 114.394 C 61.833 107.162, 61.821 107.115, 59.269 106.809 C 57.857 106.639, 56.225 105.739, 55.643 104.809 C 54.145 102.416, 56.648 99.955, 66.159 94.469 C 74.375 89.730, 76.180 87, 71.096 87 C 69.499 87, 61.833 88.167, 54.060 89.593 C 41.024 91.986, 35.282 92.168, 37.583 90.116 C 38.087 89.667, 45.362 86.441, 53.750 82.948 C 62.138 79.455, 69 76.233, 69 75.790 C 69 75.346, 66.596 75.265, 63.657 75.610 C 57.960 76.280, 54 75.004, 54 72.500 C 54 71.713, 55.410 69.464, 57.133 67.501 C 58.856 65.539, 60.094 63.816, 59.883 63.674 C 59.672 63.532, 57.360 62.873, 54.744 62.210 C 43.672 59.404, 37.346 54.698, 40.131 51.342 C 41.132 50.136, 43.165 49.884, 49.712 50.156 C 55.001 50.375, 57.864 50.136, 57.586 49.500 C 53.741 40.681, 50 30.607, 50 29.073 C 50 26.043, 51.266 25.883, 57.801 28.090 C 61.134 29.216, 65.304 29.994, 67.067 29.819 C 69.940 29.533, 68.774 28.696, 55.832 21.750 C 47.890 17.487, 41.151 14, 40.856 14 C 40.561 14, 38.454 18.387, 36.174 23.750 M 53.485 31.811 C 53.855 33.290, 55.750 38.212, 57.697 42.750 L 61.237 51 69.354 51 C 76.161 51, 78.321 50.570, 82.736 48.336 C 85.631 46.872, 88 45.160, 88 44.533 C 88 43.241, 83.268 38.613, 77.875 34.630 C 74.646 32.246, 73.663 32.021, 68.875 32.577 C 64.750 33.055, 62.257 32.726, 58.157 31.161 L 52.814 29.121 53.485 31.811 M 93.936 44.674 C 92.526 45.534, 90.951 47.197, 90.436 48.369 C 89.870 49.657, 87.658 51.112, 84.844 52.046 C 80.441 53.508, 69 60.386, 69 61.571 C 69 62.387, 77.921 60.918, 82.316 59.379 C 87.979 57.395, 91.684 54.396, 94.584 49.447 C 97.669 44.183, 97.445 42.534, 93.936 44.674 M 43.095 52.886 C 42.030 53.586, 42.875 54.400, 46.595 56.256 C 51.411 58.658, 60.873 61.460, 61.626 60.707 C 61.837 60.497, 61.523 58.930, 60.929 57.225 C 59.785 53.946, 58.989 53.619, 49.500 52.534 C 46.750 52.220, 43.868 52.378, 43.095 52.886 M 65.875 54.868 C 63.602 55.415, 63.368 55.816, 64.133 57.860 C 65.001 60.178, 65.064 60.189, 67.758 58.456 C 74.777 53.943, 74.739 53.988, 71.473 54.118 C 69.838 54.183, 67.319 54.521, 65.875 54.868 M 148.947 64.043 C 147.105 70.656, 147.359 73.764, 150.374 81.500 L 153.102 88.500 152.569 75.693 C 151.949 60.797, 150.843 57.238, 148.947 64.043 M 60.196 68.298 C 58.438 70.111, 57 71.911, 57 72.298 C 57 73.379, 65.802 73.130, 66.482 72.029 C 66.988 71.210, 64.505 65, 63.670 65 C 63.518 65, 61.954 66.484, 60.196 68.298 M 61.232 82.804 C 56.684 84.725, 53.084 86.404, 53.232 86.535 C 53.811 87.048, 72 83.665, 72 83.044 C 72 82.680, 71.438 81.691, 70.750 80.847 C 69.644 79.489, 68.548 79.714, 61.232 82.804 M 76.473 86.956 C 76.798 87.482, 77.725 87.659, 78.532 87.349 C 80.599 86.556, 80.356 86, 77.941 86 C 76.809 86, 76.148 86.430, 76.473 86.956 M 68.179 96.438 C 64.152 98.790, 60.144 101.427, 59.273 102.299 C 57.826 103.745, 57.928 103.944, 60.437 104.574 C 62.386 105.063, 64.314 104.630, 67.063 103.085 C 69.195 101.886, 72.684 100.590, 74.816 100.203 L 78.693 99.500 77.097 95.831 L 75.500 92.162 68.179 96.438 M 73.750 103.706 C 74.987 103.944, 77.013 103.944, 78.250 103.706 C 79.487 103.467, 78.475 103.272, 76 103.272 C 73.525 103.272, 72.513 103.467, 73.750 103.706" stroke="none" fill="black" fill-rule="evenodd"/>
</svg>