<svg xmlns="http://www.w3.org/2000/svg" width="200" height="200" viewBox="0 0 200 200" version="1.1">
	<path d="M 43.275 15.971 C 34.166 18.135, 32.504 22.205, 36.897 31.593 C 38.603 35.240, 40 38.849, 40 39.612 C 40 41.392, 33.923 41.395, 24.750 39.620 C 21.038 38.901, 18 38.478, 18 38.679 C 18 38.880, 19.806 42.637, 22.014 47.029 C 29.575 62.066, 30.714 72.317, 26.512 87.507 C 25.144 92.453, 24.019 98.045, 24.012 99.934 C 23.993 105.278, 27.500 111.256, 34.454 117.734 C 40.117 123.009, 40.911 124.221, 41.570 128.586 C 42.613 135.493, 40.683 145.403, 35.929 157.563 C 31.045 170.056, 30.337 173.804, 32.354 176.500 C 34.723 179.666, 44.889 178.958, 59 174.645 C 65.325 172.711, 76.125 169.722, 83 168.002 C 107.068 161.980, 115 158.869, 115 155.452 C 115 154.471, 112.446 152.724, 108.250 150.835 C 100.689 147.429, 98 145.415, 98 143.155 C 98 142.311, 100.265 139.528, 103.033 136.969 L 108.067 132.318 109.192 123.179 C 110.674 111.144, 109.188 99.783, 105.083 91.750 L 102.145 85.999 106.322 86.750 C 114.063 88.140, 119.831 87.508, 122.529 84.973 L 125 82.651 125.035 85.576 C 125.055 87.184, 125.465 97.983, 125.948 109.572 C 126.989 134.602, 128.445 139.934, 134.251 139.985 C 136.803 140.007, 143.331 132.855, 148.441 124.438 C 152.580 117.620, 152.812 116.877, 151.752 113.804 C 151.008 111.646, 150.558 99.573, 150.456 79 C 150.293 46.084, 150.025 43.006, 146.757 36.553 L 144.758 32.605 147.895 29.803 C 151.608 26.485, 157 25.891, 157 28.801 C 157 29.791, 156.081 34.629, 154.957 39.551 C 153.833 44.473, 152.658 54.125, 152.345 61 C 151.823 72.463, 152.008 74.412, 154.571 84.500 C 156.719 92.950, 157.364 97.818, 157.357 105.500 C 157.345 118.363, 155.568 124.845, 147.216 142.500 C 141.566 154.444, 140.534 157.478, 140.189 163.159 C 139.967 166.821, 140.320 171.440, 140.975 173.423 C 142.642 178.475, 149.906 187.494, 151.236 186.164 C 151.946 185.454, 151.123 183.793, 148.597 180.843 C 146.522 178.418, 144.257 174.250, 143.385 171.253 C 141.303 164.089, 142.491 158.972, 149.935 143.058 C 159.049 123.574, 159.503 121.765, 159.482 105 C 159.467 92.692, 159.106 89.290, 157.093 82.500 C 153.805 71.412, 153.934 58.823, 157.511 41.500 C 158.987 34.350, 160.362 28.228, 160.566 27.896 C 160.770 27.564, 164.439 26.995, 168.719 26.631 C 172.998 26.268, 177.588 25.679, 178.919 25.324 C 181.013 24.765, 181.229 24.935, 180.528 26.589 C 176.081 37.090, 175.024 61.388, 177.492 96.447 C 180.415 137.990, 178.895 154.031, 170.346 171.847 C 163.990 185.092, 166.286 186.102, 172.966 173 C 181.263 156.728, 183.111 139.787, 180.664 102.459 C 177.418 52.960, 178.807 32.935, 186.190 22.798 C 188.078 20.205, 186.761 19.819, 181.906 21.545 C 179.483 22.407, 173.852 23.374, 169.393 23.694 L 161.286 24.277 160.624 21.638 C 160.260 20.187, 159.491 19, 158.915 19 C 157.370 19, 153.795 20.982, 151.380 23.177 C 149.358 25.015, 148.475 25.054, 132.380 24.021 C 112.494 22.744, 110.703 22.477, 101.403 19.401 C 92.285 16.385, 84.229 15.439, 79.880 16.875 C 77.263 17.738, 74.556 17.652, 67.996 16.498 C 59.014 14.917, 48.641 14.696, 43.275 15.971 M 42.686 19.017 C 36.141 20.981, 35.583 23.720, 40.039 32 C 43.812 39.010, 43.864 41.719, 40.250 43.102 C 37.743 44.062, 29.191 43.662, 24.764 42.377 C 23.306 41.955, 23.519 42.970, 26.083 48.685 C 29.706 56.760, 31.965 65.729, 31.985 72.122 C 31.993 74.664, 30.875 81.178, 29.500 86.599 C 25.369 102.885, 26.213 106.353, 36.636 115.903 C 42.394 121.180, 43.128 122.302, 44.151 127.398 C 45.725 135.236, 44.037 144.501, 38.415 158.879 C 35.935 165.221, 34.040 171.555, 34.203 172.955 C 34.754 177.679, 40.332 177.018, 69.500 168.774 C 74.450 167.375, 84.125 164.774, 91 162.995 C 97.875 161.217, 105.525 158.862, 108 157.763 L 112.500 155.765 105.311 152.441 C 93.473 146.966, 92.541 143.133, 101.044 134.875 C 105.705 130.348, 105.821 130.084, 106.534 122.485 C 107.972 107.139, 105.493 95.150, 99.477 88.346 L 96.076 84.500 90.788 90.431 C 86.674 95.046, 85.218 97.586, 84.229 101.876 C 82.788 108.125, 80.678 111, 77.531 111 C 75.386 111, 75.374 111.112, 75.813 127.981 C 76.193 142.577, 76.023 145.316, 74.604 147.481 C 72.412 150.828, 69.819 150.658, 65.522 146.885 C 61.395 143.262, 52 130.273, 52 128.190 C 52 124.299, 63.831 111.652, 69.233 109.769 C 72.018 108.798, 72.128 108.537, 71.602 104.125 C 71.298 101.581, 70.764 96.050, 70.415 91.833 L 69.781 84.166 65.770 85.581 C 63.565 86.359, 58.147 88.805, 53.730 91.015 C 49.314 93.225, 45.497 94.830, 45.248 94.581 C 44.999 94.332, 45.107 91.854, 45.490 89.075 C 46.856 79.143, 52.911 74.004, 63.250 74.002 C 70.324 74, 70.719 72.559, 65.111 67.210 C 56.943 59.419, 57.771 49.417, 67.715 35.750 C 71.655 30.334, 74.597 29.339, 73.630 33.750 C 73.299 35.263, 72.516 41.530, 71.890 47.678 C 70.723 59.137, 71.253 67.420, 73.232 68.643 C 75.435 70.005, 85.488 69.329, 88.829 67.595 C 92.974 65.443, 95.279 60.461, 94.074 56.258 C 92.696 51.453, 91.120 49.078, 84.799 42.284 C 78.225 35.217, 73.471 26.244, 74.381 22.620 C 74.923 20.460, 74.541 20.276, 67.227 19.163 C 58.468 17.830, 46.870 17.761, 42.686 19.017 M 88.750 19.662 C 89.438 19.940, 90.563 19.940, 91.250 19.662 C 91.938 19.385, 91.375 19.158, 90 19.158 C 88.625 19.158, 88.063 19.385, 88.750 19.662 M 77.667 21.667 C 75.199 24.135, 79.329 32.493, 86.984 40.520 C 90.141 43.831, 93.687 48.426, 94.862 50.730 C 101.041 62.842, 93.472 72.607, 78.505 71.836 C 73.227 71.563, 71.996 71.785, 71.998 73.005 C 71.999 74.074, 75.112 75.335, 82.750 77.360 C 88.662 78.927, 93.991 80.401, 94.592 80.636 C 95.193 80.870, 100.703 75.614, 106.837 68.955 C 116.234 58.754, 117.833 56.556, 116.995 54.990 C 115.466 52.134, 115.807 51.515, 117.877 53.388 C 119.674 55.015, 120.170 54.638, 129.627 44.439 C 135.057 38.583, 139.500 33.508, 139.500 33.160 C 139.500 31.889, 135.459 31.803, 130.276 32.963 C 125.656 33.997, 124.780 34.590, 123.557 37.517 C 121.856 41.588, 116.461 44.605, 109.145 45.575 C 105.107 46.111, 104.002 45.961, 104.009 44.879 C 104.017 43.643, 111.708 38.165, 117.833 35.034 C 120.106 33.871, 120.119 33.789, 118.334 31.817 C 113.860 26.873, 108.769 25.074, 93.428 23.016 C 85.218 21.915, 78.463 21.011, 78.417 21.007 C 78.371 21.003, 78.033 21.300, 77.667 21.667 M 155.441 23.468 C 153.549 24.900, 153.556 24.937, 155.750 24.968 C 157.097 24.987, 158 24.398, 158 23.500 C 158 21.647, 157.852 21.645, 155.441 23.468 M 116.500 26.637 C 123.110 32.541, 122.141 32.247, 128.867 30.377 C 133.875 28.985, 135.705 28.881, 138.748 29.815 C 142.041 30.825, 142.718 30.727, 144.464 28.981 C 146.438 27.006, 146.422 27, 139.472 26.994 C 135.637 26.991, 128.675 26.708, 124 26.366 C 118.985 25.999, 115.910 26.110, 116.500 26.637 M 136.487 41.225 C 133.184 44.676, 128.579 49.537, 126.252 52.026 L 122.022 56.553 124.062 61.920 C 126.432 68.157, 127.639 79.988, 128.919 109.500 C 129.839 130.726, 130.936 137, 133.730 137 C 135.968 137, 141.404 130.853, 145.984 123.144 C 149.718 116.858, 149.903 116.190, 148.804 112.959 C 148.009 110.621, 147.597 99.287, 147.534 78 C 147.441 46.680, 146.924 41.013, 143.766 36.695 C 142.609 35.113, 141.933 35.534, 136.487 41.225 M 115.500 39.474 C 113.300 40.829, 112.175 41.950, 113 41.965 C 114.563 41.994, 121 38.413, 121 37.515 C 121 36.494, 119.429 37.054, 115.500 39.474 M 66.646 42.171 C 63.425 47.682, 61.499 54.869, 62.343 58.232 C 62.704 59.670, 64.237 62.320, 65.750 64.121 L 68.500 67.396 69.019 52.948 C 69.305 45.002, 69.457 38.352, 69.358 38.171 C 69.258 37.991, 68.038 39.791, 66.646 42.171 M 112 67.257 C 108.425 71.127, 104.024 76.003, 102.220 78.091 L 98.939 81.889 102.720 83 C 104.799 83.610, 109.049 84.369, 112.164 84.686 C 117.316 85.210, 118.063 85.028, 120.414 82.677 C 123.425 79.666, 123.637 76.864, 121.481 68.586 C 119.105 59.466, 119.186 59.477, 112 67.257 M 58.728 76.926 C 53.982 77.890, 50.286 81.311, 49.004 85.926 C 47.604 90.967, 47.708 91.238, 50.371 89.493 C 51.675 88.638, 56.512 86.389, 61.121 84.495 C 67.684 81.797, 69.425 80.666, 69.155 79.275 C 68.965 78.299, 68.707 77.392, 68.582 77.260 C 67.835 76.474, 61.937 76.274, 58.728 76.926 M 72 78.639 C 72 79.490, 73.145 80, 75.059 80 C 78.596 80, 78.223 78.467, 74.515 77.758 C 72.825 77.435, 72 77.724, 72 78.639 M 75.127 82.722 L 72.754 83.171 73.472 94.252 C 74.304 107.090, 74.548 108, 77.158 108 C 79.358 108, 82 102.746, 82 98.373 C 82 96.463, 83.662 93.938, 87.722 89.682 C 92.882 84.273, 93.251 83.606, 91.472 82.911 C 89.374 82.091, 79.086 81.972, 75.127 82.722 M 63.602 116.992 C 60.699 119.738, 57.500 123.513, 56.494 125.381 L 54.665 128.777 59.231 135.138 C 64.953 143.111, 69.456 147.423, 71.315 146.709 C 73.361 145.924, 74.240 138.365, 73.527 127.690 C 72.313 109.515, 71.937 109.110, 63.602 116.992" stroke="none" fill="black" fill-rule="evenodd"/>
</svg>