<svg xmlns="http://www.w3.org/2000/svg" width="200" height="200" viewBox="0 0 200 200" version="1.1">
	<path d="M 47.939 21.365 C 41.373 23.135, 37.480 26.315, 34.581 32.274 C 30.709 40.233, 30.038 48.445, 30.684 79.937 C 31.357 112.773, 30.813 118.176, 23.448 151.811 C 18.365 175.021, 18.083 178, 20.968 178 C 23.595 178, 28.670 171.106, 40.405 151.596 C 55.335 126.775, 55.836 124.747, 56.980 84.500 C 57.823 54.826, 58.571 49.865, 63.241 43.004 C 66.225 38.619, 69.717 36.158, 74 35.422 L 77.500 34.820 74.500 36.477 C 69.749 39.100, 67.154 41.986, 64.298 47.824 C 60.524 55.536, 60.104 68.799, 62.892 92.154 C 66.125 119.229, 65.857 121.670, 58.948 128.048 C 55.031 131.664, 55 131.751, 55.012 139.096 C 55.030 150.228, 58.664 161.950, 63.740 167.250 C 70.600 174.412, 76.146 166.557, 79.059 145.552 C 79.665 141.180, 80.993 135.975, 82.008 133.984 C 84.651 128.804, 90.883 123.557, 97.119 121.260 C 102.516 119.273, 111 117.558, 111 118.455 C 111 119.433, 100.775 135, 100.132 135 C 99.765 135, 97.732 133.823, 95.616 132.385 C 93.499 130.946, 90.357 129.709, 88.633 129.635 C 85.841 129.515, 85.468 129.830, 85.203 132.534 C 85.031 134.288, 86.219 138.655, 88.018 142.883 L 91.131 150.198 87.102 156.813 C 84.323 161.376, 83.433 163.650, 84.234 164.145 C 84.966 164.597, 86.770 162.626, 89.120 158.805 L 92.844 152.749 95.999 158.998 C 98.102 163.164, 99.487 164.913, 100.153 164.247 C 100.820 163.580, 100.128 161.215, 98.077 157.152 C 96.384 153.800, 95 150.682, 95 150.224 C 95 149.766, 96.349 147.264, 97.999 144.663 L 100.997 139.935 110.153 147.011 C 115.189 150.903, 120.027 153.950, 120.905 153.783 C 123.548 153.280, 123.307 149.290, 120.299 143.742 L 117.457 138.500 123.611 138.830 C 134.022 139.389, 142.074 133.814, 138.574 128.472 C 136.691 125.598, 132.269 124.302, 121.250 123.393 C 116.713 123.019, 113 122.523, 113 122.290 C 113 122.058, 113.497 120.941, 114.103 119.807 C 115.098 117.949, 115.814 117.808, 121.353 118.385 C 136.050 119.914, 147.937 126.037, 152.118 134.231 C 155.811 141.470, 153.659 148.321, 144.338 159.004 C 136.835 167.604, 135.008 170.769, 135.004 175.179 C 134.997 181.645, 139.659 184.068, 148.357 182.117 C 165.489 178.274, 180.389 160.855, 183.197 141.388 C 184.198 134.448, 184.116 131.998, 182.627 124.423 C 180.742 114.826, 180.111 113.626, 175.774 111.383 C 172.196 109.533, 155.636 109.378, 137.918 111.028 C 131.088 111.665, 124.037 112.031, 122.248 111.843 L 118.996 111.500 122.986 105.500 L 126.975 99.500 139.238 98.933 C 154.554 98.224, 159.166 96.816, 165.153 91.019 C 171.723 84.658, 173.501 78.242, 172.635 64.020 C 171.782 50.006, 171.282 48.004, 168.633 47.985 C 163.581 47.948, 163.598 46.526, 168.737 39.377 C 177.358 27.386, 176.765 26.243, 163.674 29.604 C 158.628 30.900, 154.036 31.969, 153.469 31.980 C 152.902 31.991, 151.931 30.654, 151.310 29.010 C 149.502 24.222, 146.419 23.683, 134.688 26.106 C 129.084 27.263, 124.212 28.384, 123.860 28.596 C 122.418 29.466, 110.006 30.488, 103 30.313 C 97.521 30.177, 92.401 29.142, 84 26.472 C 72.595 22.848, 59.808 20.040, 55 20.102 C 53.625 20.120, 50.447 20.688, 47.939 21.365 M 46.684 24.449 C 41.945 26.139, 39.312 28.473, 36.973 33.054 C 33.435 39.987, 32.851 47.700, 33.545 78.328 C 34.301 111.661, 33.449 120.131, 26 153.319 C 21.359 173.993, 21.201 175.539, 24.085 172.076 C 26.828 168.780, 41.452 145.165, 46.206 136.355 C 52.088 125.451, 53.024 119.437, 53.960 86.500 C 54.846 55.323, 55.776 49.010, 60.552 41.759 C 61.908 39.701, 64.893 36.776, 67.185 35.259 C 70.800 32.866, 72.622 32.434, 80.926 32 L 90.500 31.500 80 28.241 C 62.524 22.815, 53.988 21.844, 46.684 24.449 M 140.500 27.515 C 139.950 27.712, 135.900 28.664, 131.500 29.631 L 123.500 31.390 127.500 32.137 C 129.700 32.548, 135.438 32.911, 140.250 32.942 C 148.031 32.994, 149 32.801, 149 31.200 C 149 27.813, 144.782 25.985, 140.500 27.515 M 159.606 33.382 L 151.712 35.500 150.399 39.960 C 149.677 42.413, 149.299 44.632, 149.558 44.891 C 149.817 45.150, 152.314 45.655, 155.107 46.014 L 160.184 46.665 163.922 41.583 C 165.977 38.787, 168.462 35.263, 169.444 33.750 C 171.169 31.094, 171.166 31.004, 169.365 31.132 C 168.339 31.204, 163.948 32.217, 159.606 33.382 M 91.473 32.956 C 92.545 34.691, 90.252 35.964, 86 35.994 C 84.075 36.008, 80.164 37.107, 77.310 38.436 C 70.989 41.379, 66.578 47.056, 64.946 54.350 C 63.476 60.921, 64.104 79.601, 66.465 99.500 C 68.744 118.703, 67.891 124.386, 62.021 129.104 C 57.381 132.832, 56.529 136.289, 57.992 145.449 C 59.881 157.272, 64.632 167, 68.519 167 C 71.032 167, 73.951 159.421, 75.923 147.777 C 76.974 141.575, 78.301 135.286, 78.872 133.802 C 81.788 126.228, 93.739 117.918, 103.932 116.377 L 108.500 115.687 102.085 114.373 C 91.814 112.268, 87.818 107.102, 90.051 98.811 L 91.159 94.697 107.076 95.289 C 121.370 95.821, 123.085 95.709, 123.898 94.191 C 124.728 92.639, 123.599 92.500, 110.151 92.500 C 97.500 92.500, 94.954 92.227, 91.500 90.500 C 84.383 86.941, 86.322 81.838, 97 76.029 C 100.025 74.383, 101.668 73.028, 100.650 73.018 C 99.633 73.008, 97.270 71.470, 95.400 69.600 C 92.458 66.658, 92 65.540, 92 61.296 C 92 54.705, 95.749 47.411, 103.267 39.374 L 109.229 33 103.240 33 C 99.945 33, 95.774 32.705, 93.970 32.344 C 91.461 31.842, 90.873 31.986, 91.473 32.956 M 107.943 38.636 C 101.464 44.816, 96.889 51.424, 95.019 57.303 C 92.631 64.814, 95.953 69.300, 105.261 71.131 L 111.181 72.296 102.333 76.552 C 88.783 83.068, 86.732 86.688, 95.358 88.860 C 100.157 90.068, 118.676 90.415, 123.791 89.392 C 126.352 88.880, 127.240 87.843, 129.416 82.826 C 130.837 79.549, 132 76.708, 132 76.512 C 132 76.099, 127.364 74.593, 121.250 73.018 C 114.903 71.383, 115.882 69.520, 123.837 68.098 C 131.433 66.741, 137 63.898, 137 61.375 C 137 60.466, 135.650 57.527, 134 54.846 C 132.350 52.164, 131 49.318, 131 48.520 C 131 46.266, 134.358 45, 140.336 45 C 145.570 45, 145.851 44.865, 146.902 41.851 C 148.867 36.214, 148.647 36.003, 140.750 35.965 C 136.762 35.946, 129.900 35.280, 125.500 34.485 C 121.100 33.690, 116.679 33.030, 115.676 33.020 C 114.672 33.009, 111.193 35.536, 107.943 38.636 M 136.250 47.685 C 133.380 48.264, 133.421 49.254, 136.500 53.785 C 137.875 55.809, 139 58.125, 139 58.932 C 139 61.221, 140.442 59.052, 142.777 53.250 C 144.212 49.684, 144.506 47.996, 143.695 47.986 C 143.038 47.979, 141.600 47.806, 140.500 47.602 C 139.400 47.398, 137.488 47.436, 136.250 47.685 M 147.064 50.141 C 146.518 51.438, 143.832 57.587, 141.094 63.804 C 136.826 73.495, 136.347 75.196, 137.735 75.729 C 138.788 76.133, 139.906 75.519, 140.928 73.976 C 141.792 72.671, 146.003 66.682, 150.284 60.668 C 154.565 54.655, 157.940 49.611, 157.784 49.461 C 157.628 49.310, 155.375 48.871, 152.778 48.484 C 148.443 47.839, 147.976 47.974, 147.064 50.141 M 153.223 61.250 C 140.907 78.711, 141.428 77.711, 143.458 79.954 C 144.561 81.172, 144.942 82.608, 144.517 83.945 C 143.858 86.021, 137.378 90, 134.655 90 C 133.360 90, 130 94.022, 130 95.573 C 130 95.926, 135.063 96.053, 141.250 95.854 C 151.143 95.535, 153.194 95.152, 158.251 92.672 C 162.716 90.483, 164.618 88.805, 166.751 85.176 C 169.403 80.665, 169.500 79.996, 169.500 66.213 C 169.500 50.717, 169.265 50.046, 163.829 50.015 C 161.557 50.002, 159.973 51.680, 153.223 61.250 M 133.500 68.052 C 132.400 68.556, 130.150 69.475, 128.500 70.094 L 125.500 71.221 129.413 72.614 C 131.565 73.381, 133.420 73.894, 133.536 73.754 C 133.651 73.614, 134.489 72.037, 135.399 70.250 C 137.122 66.861, 136.832 66.525, 133.500 68.052 M 132.314 83.024 C 129.618 89.160, 130.572 89.466, 134.250 83.643 C 137.337 78.757, 137.542 77.990, 135.750 78.024 C 135.063 78.037, 133.516 80.287, 132.314 83.024 M 137.639 83.428 C 135.336 86.943, 135.568 87.275, 139.064 85.467 C 140.749 84.596, 141.958 83.375, 141.751 82.754 C 141.045 80.634, 139.280 80.923, 137.639 83.428 M 92.408 100.638 C 92.079 102.391, 92.122 104.810, 92.504 106.013 C 93.430 108.932, 99.925 111.626, 108.009 112.447 L 114.518 113.108 117.759 106.535 C 119.541 102.920, 121 99.766, 121 99.526 C 121 98.723, 114.584 98.064, 103.753 97.756 L 93.006 97.450 92.408 100.638 M 141.500 113.481 C 133.800 114.219, 125.925 114.930, 124 115.061 C 120.591 115.293, 120.578 115.310, 123.500 115.698 C 134.729 117.187, 147.872 123.460, 152.157 129.376 C 158.957 138.763, 157.854 147.042, 148.294 158.369 C 137.407 171.268, 135.457 175.314, 138.609 178.466 C 142.950 182.807, 157.343 177.550, 166.917 168.128 C 176.949 158.254, 181.764 145.261, 180.676 131 C 179.918 121.057, 178.427 116.326, 175.433 114.364 C 172.046 112.145, 158.991 111.805, 141.500 113.481 M 108.820 127.750 C 108 128.713, 106.271 131.264, 104.978 133.421 L 102.626 137.342 107.063 141.173 C 114.679 147.749, 120 151.265, 120 149.722 C 120 148.950, 117.737 144.555, 114.972 139.954 C 109.337 130.577, 108.973 126.722, 114.247 132.278 C 119.447 137.756, 128.987 138.109, 135.155 133.051 C 137.255 131.330, 137.342 130.968, 135.982 129.583 C 132.460 125.993, 111.519 124.580, 108.820 127.750 M 88.010 134.250 C 88.015 135.488, 89.172 138.975, 90.580 142 C 92.893 146.968, 93.245 147.307, 94.223 145.500 C 94.818 144.400, 96.147 142.291, 97.175 140.814 L 99.045 138.127 94.593 135.064 C 89.283 131.411, 87.997 131.252, 88.010 134.250" stroke="none" fill="black" fill-rule="evenodd"/>
</svg>