<svg xmlns="http://www.w3.org/2000/svg" width="200" height="200" viewBox="0 0 200 200" version="1.1">
	<path d="M 128.500 19.678 C 115.763 24.112, 115.227 24.207, 102 24.378 C 89.168 24.543, 88.104 24.716, 80.500 27.880 C 69.307 32.537, 63.944 32.830, 50.500 29.521 C 31.734 24.902, 21.744 26.698, 17.598 35.436 C 14.517 41.927, 13.733 49.715, 14.570 65.500 C 15.008 73.750, 15.404 94.900, 15.451 112.500 C 15.524 139.566, 15.793 145.247, 17.199 149.345 C 20.625 159.331, 25.257 160.699, 31.759 153.646 C 33.966 151.251, 36.836 147.429, 38.136 145.153 C 40.393 141.202, 42 139.880, 42 141.974 C 42 143.455, 47.535 146, 50.754 146 C 58.152 146, 72.338 134.565, 75.020 126.440 C 76.967 120.541, 77.198 123.216, 75.556 132.634 C 72.292 151.355, 65.892 173.376, 60.818 183.347 C 59.741 185.463, 59.110 187.443, 59.415 187.748 C 60.374 188.707, 70.256 181.544, 76.236 175.555 C 92.848 158.919, 102.685 133.854, 105.261 101.602 C 106.215 89.652, 106.606 87.470, 107.231 90.598 C 109.143 100.163, 113.459 112.102, 116.213 115.442 C 120.309 120.412, 123.745 120.284, 128.273 114.994 L 131.703 110.987 132.345 119.244 C 133.362 132.307, 133.136 136.184, 131 142.260 C 126.511 155.033, 129.769 167.265, 139.386 173.741 C 154.681 184.040, 176.063 181.277, 181.623 168.282 C 183.563 163.748, 183.342 159.956, 180.750 153.288 C 179.131 149.123, 178.500 145.396, 178.500 140 C 178.500 133.109, 178.338 132.514, 176.500 132.674 C 175.400 132.769, 172.925 134.794, 171 137.174 C 169.075 139.553, 165.993 143.052, 164.151 144.949 C 160.974 148.221, 160.746 148.298, 159.709 146.449 C 158.323 143.975, 158.446 131.172, 159.988 117.605 C 160.891 109.658, 160.905 105.789, 160.045 101.792 C 159.244 98.066, 159.107 87.030, 159.582 64.500 C 160.287 31.031, 159.797 25.032, 156.200 23.107 C 155.069 22.502, 151.037 22.790, 144.566 23.939 L 134.663 25.698 139.082 21.879 C 141.512 19.778, 143.838 18.046, 144.250 18.030 C 144.662 18.013, 145 17.325, 145 16.500 C 145 14.277, 142.802 14.700, 128.500 19.678 M 126.009 23.410 C 117.623 26.284, 116.844 26.744, 119.319 27.365 C 123.731 28.472, 128.242 27.142, 132.537 23.466 C 134.717 21.601, 136.275 20.094, 136 20.116 C 135.725 20.139, 131.229 21.621, 126.009 23.410 M 140.866 27.366 C 134.467 28.574, 128.569 30.113, 127.759 30.785 C 126.879 31.515, 124.920 31.776, 122.893 31.432 C 119.652 30.883, 119.700 30.952, 123.972 32.979 C 126.431 34.146, 129.918 36.226, 131.722 37.601 L 135 40.102 135 63.051 L 135 86 138 86 C 141.812 86, 141.802 86.945, 137.888 96.724 L 134.775 104.500 135.264 121 C 135.702 135.759, 135.546 138.027, 133.786 142.500 C 132.299 146.279, 131.906 149.255, 132.175 154.687 C 132.623 163.694, 135.847 168.795, 144 173.396 C 149.082 176.264, 150.222 176.500, 159 176.500 C 169.930 176.500, 174.963 174.683, 178.174 169.580 C 180.659 165.630, 180.233 158.179, 177.160 151.829 C 175.350 148.092, 175.056 146.204, 175.534 141.384 L 176.118 135.500 172.309 139.996 C 165.402 148.149, 163.226 150, 160.552 150 C 156.337 150, 155.664 146.602, 156.594 130 C 157.041 122.025, 157.237 111.450, 157.031 106.500 C 156.507 93.946, 156.493 79.186, 156.982 53 C 157.406 30.266, 156.788 24.884, 153.775 25.085 C 153.074 25.132, 147.265 26.158, 140.866 27.366 M 81.500 30.698 C 70.235 35.234, 61 35.611, 48.537 32.042 C 38.676 29.218, 29.707 28.937, 25.260 31.311 C 23.455 32.275, 21.027 34.914, 19.778 37.271 C 17.757 41.085, 17.535 42.924, 17.518 56 C 17.508 63.975, 17.708 76.125, 17.963 83 C 18.217 89.875, 18.298 104.950, 18.141 116.500 C 17.744 145.794, 19.987 156.224, 26.338 154.630 C 28.873 153.994, 35.891 144.532, 39.568 136.793 C 41.477 132.775, 43 132.671, 43 136.559 C 43 140.027, 46.363 143.004, 50.250 142.978 C 58.223 142.924, 67.353 135.559, 72.235 125.242 C 74.684 120.067, 75.191 117.730, 75.167 111.732 C 75.151 107.688, 74.406 102.321, 73.483 99.602 C 72.256 95.989, 71.810 90.936, 71.759 80.112 C 71.664 59.625, 74.253 48.889, 78.640 51.577 C 79.606 52.169, 80.769 53.969, 81.223 55.577 C 82.298 59.381, 81.353 111.127, 80.020 121.500 C 77.780 138.927, 73.023 159.399, 68.046 173.038 C 66.447 177.417, 65.553 181, 66.058 181 C 68.246 181, 81.880 165.639, 86.122 158.394 C 96.809 140.141, 102.975 115.826, 103.011 91.789 C 103.025 82.289, 103.938 77, 105.563 77 C 107.070 77, 106.921 76.547, 110.950 93.395 C 115.923 114.194, 120.158 119.707, 126.199 113.250 C 130.979 108.141, 132.105 104.638, 131.790 95.858 L 131.500 87.771 126.257 85.818 C 119.464 83.288, 110.815 75.368, 107.553 68.690 C 102.177 57.685, 102.168 45.452, 107.530 37.551 C 108.855 35.598, 109.576 34, 109.132 34 C 108.687 34, 103.188 35.513, 96.912 37.362 C 77.251 43.154, 63.919 49.176, 56 55.839 L 52.500 58.785 52.500 83.642 C 52.500 101.462, 52.123 109.748, 51.169 112.908 C 49.460 118.568, 45.101 123, 41.244 123 C 37.119 123, 36.858 122.298, 39.525 118.368 C 43.164 113.006, 44.374 105.325, 43.087 95.762 C 42.489 91.318, 42 83.961, 42 79.414 C 42 71.982, 42.339 70.496, 45.346 64.725 C 47.723 60.165, 48.896 56.306, 49.395 51.403 C 50.567 39.884, 50.210 40.372, 58.838 38.492 C 70.122 36.034, 102.403 27.930, 102.903 27.431 C 103.140 27.194, 100.446 27.017, 96.917 27.037 C 91.922 27.066, 88.506 27.877, 81.500 30.698 M 98.500 31.573 C 91.900 33.448, 79.300 36.629, 70.500 38.640 C 61.700 40.651, 54.137 42.616, 53.692 43.006 C 53.248 43.396, 52.618 46.304, 52.291 49.469 L 51.697 55.222 57.712 51.116 C 68.508 43.747, 87.717 36.279, 108.342 31.433 C 113.866 30.136, 115.640 29.376, 114.342 28.866 C 111.697 27.825, 111.678 27.828, 98.500 31.573 M 115.500 34.744 C 107.935 36.492, 104.162 48.818, 107.524 60.800 C 110.507 71.431, 118.274 80.069, 127.909 83.468 L 132.038 84.925 131.769 62.754 L 131.500 40.584 127 37.893 C 122.120 34.976, 118.633 34.021, 115.500 34.744 M 75.886 59.144 C 73.712 67.673, 74.260 93.895, 76.772 101.500 L 78.753 107.500 78.854 82 C 78.910 67.975, 78.572 55.890, 78.103 55.144 C 77.517 54.211, 76.824 55.462, 75.886 59.144 M 46.519 68.348 C 44.429 73.780, 44.289 77.600, 45.468 97.030 C 46.233 109.646, 46.145 110.883, 44.167 115.355 C 42.928 118.155, 42.531 119.990, 43.212 119.763 C 45.508 118.997, 47.998 114.409, 48.991 109.114 C 50.118 103.099, 50.196 69.896, 49.092 66 C 48.435 63.680, 48.250 63.849, 46.519 68.348 M 135 92.198 C 135 96.847, 135.243 96.864, 136.773 92.327 C 137.629 89.786, 137.559 89.045, 136.421 88.608 C 135.334 88.191, 135 89.035, 135 92.198" stroke="none" fill="black" fill-rule="evenodd"/>
</svg>