<svg xmlns="http://www.w3.org/2000/svg" width="200" height="200" viewBox="0 0 200 200" version="1.1">
	<path d="M 160 24.155 C 156.425 26.429, 150.239 30.013, 146.254 32.118 L 139.008 35.945 135.454 33.533 C 130.145 29.931, 122.250 28.677, 108.500 29.253 C 98.631 29.666, 95.089 29.400, 88.551 27.756 C 79.689 25.527, 71.175 25.824, 65.913 28.545 C 62.005 30.566, 54.869 29.219, 43.874 24.385 C 34.637 20.323, 31.172 20.143, 27.166 23.514 C 20.549 29.082, 18.166 46.324, 19.960 75.657 C 22.207 112.380, 22.311 121.802, 20.606 133.784 C 17.293 157.061, 18.897 169.964, 25.887 176.279 C 32.316 182.087, 36.567 182.209, 61.500 177.295 C 74.313 174.769, 75.097 174.735, 116.004 174.938 C 160.020 175.157, 167.488 174.613, 174.499 170.681 C 182.992 165.917, 184.578 156.121, 179.223 141.500 C 176.778 134.825, 175.953 133.537, 174.243 133.721 C 170.435 134.132, 163.722 122.770, 160.547 110.540 C 157.157 97.478, 159.331 77.175, 165.403 65.192 C 167.365 61.319, 167.659 59.962, 166.706 59.171 C 164.107 57.014, 150.698 51.125, 146.941 50.490 C 144.773 50.124, 143 49.520, 143 49.148 C 143 48.776, 148.850 42.634, 156 35.500 C 163.150 28.366, 169 21.960, 169 21.264 C 169 19.130, 166.773 19.845, 160 24.155 M 28.268 26.250 C 22.286 32.720, 21.005 49.957, 23.532 89.970 C 25.270 117.470, 25.277 119.654, 23.678 131.253 C 21.709 145.529, 21.493 161.575, 23.193 167.250 C 24.749 172.443, 29.144 176.747, 33.789 177.626 C 37.812 178.388, 46.956 177.329, 67.982 173.667 C 80.938 171.411, 81.269 171.293, 76.482 170.658 C 73.742 170.294, 68.774 168.708, 65.442 167.132 C 50.828 160.220, 45.022 145.102, 46.381 117.500 C 47.333 98.154, 48.408 92.137, 51.460 89.086 C 53.505 87.040, 54.368 86.742, 55.739 87.607 C 58.625 89.428, 59.005 94.609, 57.938 117.650 C 56.037 158.725, 59.582 168.350, 72.989 158.508 C 75.605 156.588, 79.408 152.988, 81.440 150.508 C 83.472 148.029, 85.456 146, 85.849 146 C 86.242 146, 87.156 148.007, 87.880 150.460 C 90.601 159.676, 96.487 162.830, 103.761 158.971 C 116.167 152.390, 129.097 127.572, 131.970 104.828 C 133.206 95.050, 132.337 82.480, 130.284 80.427 C 128.322 78.465, 115.682 78.461, 113.722 80.421 C 110.757 83.386, 110.718 96.820, 113.598 123.602 C 114.251 129.679, 114.239 129.716, 110.808 132.333 C 105.520 136.367, 99.671 138.002, 90.624 137.978 C 79.890 137.949, 73.704 135.425, 74.182 131.268 C 74.614 127.508, 79.473 125.255, 90.115 123.882 C 103.161 122.198, 102.992 122.262, 104.618 118.372 C 108.643 108.738, 108.751 98.409, 104.894 92.066 L 102.845 88.696 93.892 97.598 C 88.968 102.494, 83.790 108.154, 82.385 110.175 C 80.981 112.197, 79.154 114.111, 78.325 114.429 C 75.253 115.608, 75.021 113.741, 77.841 110.529 C 79.517 108.619, 81.292 104.948, 82.032 101.858 C 83.974 93.752, 85.830 89.861, 89.647 85.898 L 93.117 82.296 87.308 80.697 C 84.114 79.818, 78.670 78.791, 75.211 78.416 C 67.705 77.601, 67.309 75.620, 74.578 75.249 C 83.273 74.805, 86.227 74.034, 85.591 72.376 C 84.701 70.058, 87.371 65.883, 92.416 61.700 C 98.169 56.931, 98.386 54.288, 93.365 50.150 C 91.366 48.502, 85.742 45.206, 80.866 42.827 C 75.991 40.447, 72.001 37.938, 72.001 37.250 C 72 36.563, 72.283 36, 72.629 36 C 74.922 36, 92.921 45.956, 96.106 48.986 C 101.811 54.413, 101.450 56.867, 93.880 64.115 C 87.780 69.956, 87.552 70.534, 89.494 75.250 C 90.025 76.541, 89.727 77.012, 88.357 77.047 C 87.336 77.073, 88.670 77.941, 91.321 78.977 C 95.521 80.618, 96.617 80.695, 99.821 79.576 C 101.845 78.870, 105.188 77.981, 107.250 77.601 C 109.494 77.187, 111 76.340, 111 75.492 C 111 71.992, 115.428 62.796, 119.148 58.569 C 123.828 53.252, 127.430 51.141, 134.500 49.571 C 139.957 48.359, 140.961 46.658, 139.103 41.771 L 138.116 39.174 131.969 41.087 C 123.180 43.822, 114.557 43.610, 109.500 40.534 C 96.816 32.819, 97.710 33.039, 79.159 33.054 L 62.172 33.067 58.473 37.161 C 52.856 43.379, 50.693 49.136, 50.269 59 C 49.865 68.369, 50.802 71.196, 53.722 69.415 C 56.102 67.964, 60.469 59.934, 63.058 52.250 C 65.128 46.103, 67 44.081, 67 47.989 C 67 50.635, 62.241 62.539, 59.285 67.288 C 57.988 69.372, 55.799 71.590, 54.421 72.218 C 52.279 73.194, 51.595 73.039, 49.708 71.150 C 47.750 69.190, 47.500 67.895, 47.501 59.720 C 47.501 51.880, 47.890 49.670, 50.102 44.954 C 51.532 41.904, 54.105 37.811, 55.819 35.859 L 58.935 32.310 52.876 30.625 C 49.543 29.699, 44.622 27.829, 41.941 26.470 C 35.754 23.335, 31.034 23.259, 28.268 26.250 M 150 33.119 C 142.972 37.177, 141.548 38.410, 141.779 40.242 C 141.932 41.461, 142.399 42.799, 142.815 43.215 C 143.232 43.632, 147.146 40.379, 151.513 35.987 C 155.880 31.594, 159.239 28.047, 158.977 28.105 C 158.714 28.163, 154.675 30.419, 150 33.119 M 70.500 30 C 69.159 30.576, 71.237 30.883, 76.809 30.930 C 82.110 30.975, 84.894 30.638, 84.500 30 C 83.754 28.793, 73.308 28.793, 70.500 30 M 106.574 35.527 C 109.283 37.466, 112.519 39.317, 113.764 39.639 C 117.088 40.498, 129.029 39.505, 132.500 38.081 C 135.393 36.894, 135.431 36.800, 133.546 35.416 C 130.117 32.898, 124.794 32.011, 113.074 32.006 L 101.648 32 106.574 35.527 M 127.147 64.339 L 114.795 76.735 123.551 76.854 C 128.367 76.920, 132.515 77.182, 132.769 77.436 C 133.024 77.690, 133.560 79.384, 133.960 81.199 C 134.637 84.263, 134.744 84.069, 135.455 78.500 C 135.876 75.200, 137.099 69.234, 138.173 65.242 C 139.247 61.250, 139.985 56.625, 139.813 54.964 C 139.507 52.015, 139.211 52.234, 127.147 64.339 M 126.360 55.501 C 122.268 57.954, 116.881 65.150, 115.505 70 C 114.994 71.803, 117.474 69.856, 124.398 63.020 C 129.679 57.806, 134 53.418, 134 53.270 C 134 52.211, 129.803 53.437, 126.360 55.501 M 142.314 58.659 C 141.665 61.872, 140.383 67.875, 139.463 72 C 137.460 80.984, 137.866 93.680, 141.076 122.500 C 145.368 161.032, 142.068 172.742, 127.571 170.426 C 121.510 169.457, 114.006 169.600, 104.500 170.866 C 99.409 171.544, 106.907 171.758, 132 171.649 C 165.058 171.506, 166.695 171.410, 171.166 169.344 C 177.385 166.469, 179.515 163.046, 179.443 156.040 C 179.378 149.646, 175.455 137, 173.537 137 C 171.425 137, 166.397 131.222, 163.059 124.960 C 156.099 111.900, 154.179 94.156, 158.001 78.212 C 159.094 73.654, 160.609 68.704, 161.367 67.212 C 164.663 60.732, 164.594 60.570, 157.070 57.102 C 153.239 55.336, 148.617 53.650, 146.798 53.355 L 143.492 52.818 142.314 58.659 M 101.250 81.662 C 99.586 82.334, 99.664 83.657, 101.406 84.326 C 102.179 84.622, 103.599 83.995, 104.561 82.933 C 106.232 81.087, 106.225 81.004, 104.405 81.079 C 103.357 81.122, 101.938 81.385, 101.250 81.662 M 107.045 84.452 L 104.742 86.903 106.770 90.105 L 108.797 93.307 109.149 87.652 C 109.342 84.542, 109.466 81.998, 109.424 81.999 C 109.383 81.999, 108.312 83.103, 107.045 84.452 M 91.830 87.750 C 88.423 91.324, 84.382 99.804, 85.142 101.785 C 85.339 102.297, 88.824 99.162, 92.886 94.818 C 99.866 87.355, 100.169 86.841, 98.386 85.492 C 95.808 83.540, 95.862 83.522, 91.830 87.750 M 52.772 91.744 C 48.910 96.121, 47.913 135.361, 51.380 146.517 C 55.170 158.712, 55.500 156.834, 55.500 123.095 C 55.500 105.538, 55.235 90.906, 54.911 90.580 C 54.586 90.254, 53.624 90.778, 52.772 91.744 M 134.745 104.030 C 133.284 120.150, 124.752 141.187, 114.846 153.090 C 109.159 159.923, 100.969 164.507, 96.383 163.424 C 92.642 162.540, 88.130 158.380, 86.320 154.146 L 84.886 150.792 78.693 156.732 C 75.287 159.999, 71.385 163.266, 70.022 163.993 L 67.544 165.314 71.522 166.730 C 77.584 168.888, 93.124 169.445, 105.017 167.930 C 116.390 166.481, 119.746 166.421, 127.734 167.527 C 134.276 168.432, 137.143 166.804, 138.812 161.234 C 140.575 155.350, 140.123 137.983, 137.635 116 L 135.427 96.500 134.745 104.030 M 109.129 113.815 C 109.058 114.538, 108.066 117.301, 106.923 119.956 L 104.847 124.783 98.173 125.468 C 88.513 126.459, 78.323 128.905, 76.947 130.564 C 74.979 132.935, 82.074 135.363, 91 135.373 C 96.644 135.379, 99.782 134.816, 103.679 133.098 C 111.432 129.680, 111.834 128.902, 110.436 120 C 109.789 115.875, 109.201 113.092, 109.129 113.815" stroke="none" fill="black" fill-rule="evenodd"/>
</svg>