<svg xmlns="http://www.w3.org/2000/svg" width="200" height="200" viewBox="0 0 200 200" version="1.1">
	<path d="M 133.544 16.250 C 133.328 16.938, 132.916 27.400, 132.628 39.500 C 132.340 51.600, 131.810 62.488, 131.450 63.696 C 130.957 65.348, 129.893 65.967, 127.148 66.196 C 124.240 66.438, 123.435 66.956, 123.181 68.748 C 122.889 70.804, 126.344 77.040, 128.214 77.833 C 128.646 78.017, 129 79.448, 129 81.014 C 129 83.205, 128.482 83.935, 126.750 84.180 C 124.750 84.465, 124.518 85.027, 124.662 89.250 C 124.751 91.862, 124.684 94, 124.513 94 C 124.342 94, 119.164 88.262, 113.006 81.250 C 97.934 64.088, 76.774 42.732, 72.631 40.500 C 66.549 37.225, 64.550 40.192, 67.421 48.235 C 68.200 50.419, 68.478 53.319, 68.089 55.221 L 67.424 58.472 60.441 51.914 C 56.600 48.307, 52.567 44.820, 51.479 44.165 C 49.613 43.043, 49.787 42.715, 54.500 38.438 C 58.909 34.438, 59.892 33.973, 62.815 34.508 C 65.651 35.027, 66.707 34.594, 70.117 31.513 C 76.688 25.577, 81.821 24.498, 86.393 28.095 C 89.598 30.616, 92.026 35.203, 96.073 46.387 C 101.357 60.990, 104.470 61.544, 110.767 49 C 115.375 39.821, 117.718 30.996, 116.662 26.790 C 115.552 22.365, 111.407 18.374, 106.494 16.998 C 97.469 14.472, 80.720 18.394, 66.961 26.257 C 59.512 30.514, 59.368 30.550, 54.961 29.270 C 46.975 26.951, 37.906 26.595, 31.828 28.362 C 24.522 30.486, 18.827 36.475, 16.317 44.673 C 14.197 51.598, 13.964 72.697, 15.896 82.783 C 16.830 87.658, 16.834 90.887, 15.911 97.199 C 13.415 114.267, 16.244 142.836, 21.421 152.847 C 27.007 163.649, 34.680 160.200, 40.904 144.093 C 43.231 138.067, 43.893 137.089, 44.452 138.848 C 45.845 143.237, 49.993 147, 53.439 147 C 58.805 147, 64.796 141.750, 83.356 120.782 C 91.012 112.133, 97.986 107, 102.083 107 C 104.665 107, 110 111.734, 110 114.026 C 110 114.506, 111.463 116.285, 113.250 117.979 L 116.500 121.059 112.289 125.029 C 108.610 128.498, 107.483 129, 103.370 129 C 99.962 129, 97.158 128.152, 93.221 125.929 L 87.780 122.858 85.298 125.179 C 80.676 129.501, 80.126 133.003, 83.827 134.540 C 84.747 134.921, 94.090 135.559, 104.588 135.957 C 120.337 136.554, 124.361 137.015, 127.588 138.590 C 132.557 141.016, 133.152 144.365, 129.667 150.292 C 127.350 154.231, 116.796 165.031, 109.100 171.337 L 105.701 174.123 107.692 176.811 C 119.372 192.580, 140.869 181.427, 154.723 152.411 C 158.248 145.028, 158.500 143.884, 158.500 135.275 C 158.500 126.690, 158.321 125.871, 155.917 123.465 C 154.496 122.043, 151.600 120.283, 149.481 119.554 C 145.870 118.313, 146.190 118.261, 154.564 118.717 C 162.768 119.164, 163.787 119.008, 167 116.819 C 177.396 109.737, 166.358 94.135, 142.080 81.595 C 133.206 77.012, 133 76.825, 133 73.328 C 133 69.949, 133.153 69.783, 135.750 70.337 C 137.262 70.660, 141.650 71.609, 145.500 72.445 C 163.997 76.462, 173.586 72.361, 174.781 59.923 C 175.352 53.985, 173.527 36.496, 171.711 30.500 C 170.795 27.474, 169.916 26.417, 168.101 26.161 C 163.928 25.571, 160.967 28.159, 150.754 41.317 C 145.281 48.369, 140.142 54.392, 139.334 54.702 C 136.212 55.900, 135.779 53.279, 135.932 34.090 C 136.036 21.064, 135.743 15, 135.011 15 C 134.420 15, 133.760 15.563, 133.544 16.250 M 87.114 20.688 L 80.728 22.199 84.851 24.045 C 90.046 26.370, 93.503 31.677, 98.498 44.995 C 100.830 51.212, 102.789 55, 103.672 55 C 104.466 55, 106.861 51.314, 109.104 46.639 C 113.944 36.553, 115.200 28.481, 112.559 24.449 C 109.023 19.053, 99.790 17.688, 87.114 20.688 M 65.500 30 C 63.631 31.237, 63.102 31.989, 64.095 31.993 C 64.972 31.997, 66.505 31.100, 67.500 30 C 69.776 27.485, 69.297 27.485, 65.500 30 M 163.750 29.982 C 162.365 31.072, 157.916 36.340, 153.865 41.690 C 143.964 54.765, 140.350 58.300, 137.451 57.746 C 134.975 57.273, 134.040 59.032, 134.014 64.211 C 133.999 67.093, 134.461 67.313, 146 69.930 C 152.191 71.335, 162.998 71.229, 165.904 69.735 C 170.084 67.587, 172.088 63.852, 172.229 57.945 C 172.394 51.019, 170.159 32.166, 168.893 29.799 C 167.667 27.509, 166.857 27.538, 163.750 29.982 M 31.436 31.070 C 26.938 32.377, 21.334 38.516, 19.287 44.379 C 17.126 50.571, 16.841 73.572, 18.795 84.148 C 19.730 89.209, 19.753 92.055, 18.890 96.078 C 17.242 103.762, 18.311 133.671, 20.531 142 C 22.673 150.034, 25.381 155.548, 27.602 156.401 C 30.989 157.701, 35.538 151.399, 39.952 139.292 C 41.514 135.007, 43.352 131.500, 44.036 131.500 C 44.720 131.500, 45.855 133.449, 46.558 135.831 C 49.160 144.643, 53.896 146.287, 60.730 140.750 C 62.936 138.963, 69.347 132.325, 74.977 126 C 90.052 109.062, 96.358 104, 102.383 104 C 105.481 104, 110.357 108.034, 111.971 111.931 C 112.648 113.565, 114.297 115.620, 115.636 116.497 C 118.055 118.082, 118.084 118.059, 120.456 112.696 C 121.768 109.728, 123.350 105.413, 123.971 103.108 L 125.100 98.916 113.884 86.208 C 107.715 79.219, 102.344 73.124, 101.949 72.665 C 101.553 72.206, 99.850 72.543, 98.165 73.415 C 91.792 76.711, 83.908 75.039, 75.008 68.506 C 72.381 66.578, 69.915 65, 69.528 65 C 69.141 65, 68.976 72.088, 69.162 80.750 C 69.472 95.178, 69.710 96.920, 72 101.500 C 73.965 105.431, 75.083 106.567, 77.225 106.814 C 81.456 107.302, 87.808 99.996, 94.460 86.992 C 97.552 80.946, 100.514 76, 101.041 76 C 102.700 76, 102.124 77.794, 97.587 86.770 C 90.059 101.662, 84.327 108.385, 78.096 109.631 C 75.550 110.140, 74.551 109.731, 72.202 107.216 C 67.445 102.123, 66.506 97.368, 66.441 78.027 L 66.383 60.553 58.214 53.277 C 53.721 49.275, 49.408 46, 48.631 46 C 46.767 46, 44 53.055, 44 57.809 C 44 59.881, 44.975 63.360, 46.166 65.539 C 48.143 69.154, 48.340 71.029, 48.416 87 C 48.505 105.477, 47.559 111.441, 43.970 115.030 C 37.413 121.587, 35.233 105.720, 39.568 83 C 40.356 78.875, 41.002 70.550, 41.005 64.500 C 41.013 49.738, 41.716 47.696, 49.449 39.970 C 53.012 36.412, 55.943 33.200, 55.963 32.833 C 56.086 30.605, 37.608 29.277, 31.436 31.070 M 69.585 45.250 C 70.045 47.038, 70.444 51.250, 70.472 54.610 C 70.531 61.757, 71.279 62.905, 79.226 68.057 C 86.330 72.662, 90.666 73.584, 95.574 71.533 L 99.254 69.996 91.779 61.748 C 84.180 53.363, 71.488 42, 69.722 42 C 69.121 42, 69.069 43.240, 69.585 45.250 M 44 70.734 C 44 72.421, 43.100 79.066, 42 85.500 C 39.945 97.522, 39.507 108.969, 40.968 112.500 C 41.703 114.277, 41.981 114.069, 43.457 110.640 C 45.718 105.387, 46.876 90.046, 45.891 78.373 C 45.100 69.004, 44 64.559, 44 70.734 M 126 69.468 C 126 70.349, 126.777 72.255, 127.726 73.704 L 129.451 76.338 130.149 72.926 C 130.533 71.049, 130.769 69.454, 130.673 69.381 C 130.578 69.308, 129.488 68.937, 128.250 68.557 C 126.565 68.039, 126 68.268, 126 69.468 M 131.630 82.250 C 130.405 86.824, 131.139 89.307, 137.438 101.877 C 144.701 116.371, 144.190 116, 156.902 116 C 164.977 116, 168 114.314, 168 109.811 C 168 102.865, 157.786 92.933, 142.185 84.707 C 137.275 82.118, 133.028 80, 132.746 80 C 132.464 80, 131.962 81.013, 131.630 82.250 M 128.708 95.749 C 128.285 97.962, 129.057 99.522, 132.668 103.749 C 135.136 106.637, 137.350 109, 137.588 109 C 137.827 109, 136.212 105.400, 134 101 C 131.788 96.600, 129.810 93, 129.605 93 C 129.401 93, 128.997 94.237, 128.708 95.749 M 129 109.317 C 129 112.532, 128.326 116.403, 127.482 118.035 C 126.074 120.757, 122.711 122.547, 120.384 121.812 C 119.841 121.640, 117.852 123.255, 115.964 125.399 C 109.595 132.633, 101.973 133.879, 93.311 129.103 L 88.122 126.241 85.890 128.617 C 84.663 129.923, 83.996 131.329, 84.408 131.741 C 84.820 132.153, 93.397 132.777, 103.469 133.128 C 116.580 133.585, 123.231 134.248, 126.890 135.463 C 139.604 139.686, 137.258 149.107, 119.306 165.913 L 109.500 175.093 112.766 178.046 C 122.156 186.539, 139.374 176.307, 149.973 155.934 C 156.929 142.564, 158.648 130.584, 154.301 125.780 C 153.024 124.369, 152.401 124.252, 151.249 125.208 C 150.062 126.194, 148.782 125.340, 144.125 120.455 C 141.003 117.180, 136.323 112.033, 133.724 109.017 L 129 103.534 129 109.317 M 123.518 112.160 C 122.427 115.097, 121.377 117.838, 121.184 118.250 C 120.991 118.662, 121.530 119, 122.381 119 C 124.667 119, 126.153 115.473, 125.806 110.872 L 125.500 106.820 123.518 112.160" stroke="none" fill="black" fill-rule="evenodd"/>
</svg>