<svg xmlns="http://www.w3.org/2000/svg" width="200" height="200" viewBox="0 0 200 200" version="1.1">
	<path d="M 45.212 16.124 C 35.182 16.949, 30.425 18.261, 31.450 19.920 C 31.729 20.371, 33.879 20.378, 36.228 19.936 C 38.578 19.495, 45.900 18.873, 52.500 18.555 C 64.002 18, 64.334 18.039, 60.500 19.494 C 51.058 23.076, 38.031 29.598, 38.016 30.750 C 37.991 32.687, 39.450 32.297, 47.772 28.141 C 62.327 20.873, 67.892 19.495, 82.500 19.540 C 95.891 19.582, 101.222 20.824, 108.507 25.597 C 110.791 27.093, 110.857 27.375, 109.527 29.947 C 108.136 32.638, 107.861 32.711, 96.803 33.309 C 90.586 33.646, 84.150 34.317, 82.500 34.801 C 79.988 35.537, 79.142 35.299, 77.298 33.340 C 75.846 31.797, 73.962 31, 71.770 31 C 67.868 31, 57.404 35.824, 47.429 42.223 L 40.357 46.758 37.587 42.379 C 36.063 39.971, 34.447 38, 33.996 38 C 32.910 38, 24.576 49.725, 22.363 54.365 C 21.106 57.001, 20.924 58.324, 21.709 59.109 C 23.187 60.587, 25.668 59.660, 33.106 54.853 L 39.411 50.778 41.641 53.575 L 43.871 56.372 38.409 62.272 C 35.405 65.516, 31.774 70.487, 30.340 73.316 C 27.306 79.303, 26.175 88.971, 27.898 94.190 C 30.267 101.369, 37.218 105.120, 45.332 103.597 C 49.665 102.785, 56.719 97.455, 60.298 92.292 C 62.973 88.432, 63.001 88.246, 61.461 84.560 C 60.593 82.483, 60.041 80.625, 60.235 80.432 C 60.428 80.238, 64.743 85.288, 69.822 91.653 C 76.876 100.491, 78.802 103.534, 77.973 104.532 C 77.170 105.501, 77.302 106.070, 78.485 106.732 C 79.377 107.231, 79.824 108.296, 79.497 109.147 C 78.838 110.863, 42.010 118, 33.810 118 L 29.167 118 26.880 127.250 C 25.134 134.313, 24.582 139.460, 24.547 149.024 C 24.504 160.540, 24.705 161.947, 27.055 166.514 C 30.513 173.239, 35.652 176.663, 44.934 178.426 C 51.805 179.731, 53.847 179.654, 71.851 177.419 C 82.566 176.089, 92.644 175, 94.247 175 L 97.161 175 96.831 151.609 L 96.500 128.217 99.062 130.043 C 107.422 136, 114.560 147.489, 115.657 156.756 C 116.298 162.160, 114.165 171.229, 110.956 176.750 L 109.067 180 113.784 182.383 C 135.141 193.170, 155.727 191.389, 169.558 177.558 C 176.607 170.510, 180.465 162.295, 180.484 154.291 C 180.503 146.726, 178.156 143.543, 172.673 143.698 C 167.769 143.837, 163.813 146.234, 155.581 154.053 C 151.559 157.874, 147.740 161, 147.094 161 C 146.448 161, 144.138 160.091, 141.960 158.980 C 138.598 157.264, 138 156.478, 138 153.773 C 138 151.177, 139.160 149.461, 144.250 144.521 C 147.688 141.185, 155.090 135.361, 160.700 131.580 C 166.309 127.799, 171.139 124.079, 171.433 123.315 C 172.866 119.579, 166.518 120.539, 143.781 127.498 C 135.941 129.898, 129.437 131.770, 129.326 131.659 C 129.215 131.548, 129.846 129.262, 130.730 126.579 C 132.144 122.283, 132.166 121.212, 130.918 117.601 C 129.753 114.232, 128.608 113.054, 124.500 111 C 119.785 108.643, 118.578 108.500, 103.334 108.500 C 94.443 108.500, 86.831 108.162, 86.418 107.750 C 86.005 107.338, 97.329 106.992, 111.583 106.982 C 133.039 106.967, 140.750 106.547, 156.386 104.546 C 166.773 103.217, 175.769 101.631, 176.377 101.023 C 178.095 99.305, 175.662 98.324, 167.756 97.545 C 150.850 95.879, 138.996 90.789, 139.004 85.199 C 139.008 82.466, 142.330 76.003, 143.735 75.996 C 146.248 75.984, 161.957 73.011, 164.276 72.110 C 168.096 70.624, 168.857 68.113, 166.152 65.922 C 164.951 64.950, 159.589 62.708, 154.235 60.939 C 142.853 57.179, 136.708 54.282, 137.476 53.038 C 138.807 50.885, 155.007 47.323, 176.340 44.493 C 180.986 43.876, 181.153 43.744, 180.512 41.175 C 178.049 31.306, 160.739 22.927, 134.500 18.903 C 130.100 18.228, 125.518 17.042, 124.317 16.267 C 122.761 15.262, 121.601 15.143, 120.277 15.852 C 119.073 16.496, 113.863 16.534, 105.460 15.960 C 89.743 14.886, 59.260 14.969, 45.212 16.124 M 106.238 21.348 L 112.353 24.283 114.293 21.891 C 116.507 19.163, 116.790 19.281, 106.812 18.761 L 100.123 18.413 106.238 21.348 M 117.046 22.669 C 115.891 24.137, 115.071 25.664, 115.223 26.062 C 115.375 26.460, 117.975 28.839, 121 31.348 C 126.404 35.830, 126.506 35.867, 126.818 33.440 C 126.993 32.082, 126.623 28.502, 125.997 25.485 C 124.938 20.384, 124.658 20, 122.002 20 C 120.098 20, 118.445 20.890, 117.046 22.669 M 128.391 23.250 C 128.734 24.488, 129.303 28.107, 129.655 31.293 C 130.116 35.471, 130.811 37.364, 132.147 38.079 C 134.474 39.324, 134.513 41.246, 132.250 43.206 C 130.858 44.413, 128.004 44.677, 118.287 44.497 L 106.073 44.272 102.950 51.774 C 101.041 56.360, 100.217 59.516, 100.830 59.895 C 103.296 61.419, 108 68.501, 108 70.689 C 108 72.535, 107.118 73.467, 104.250 74.656 C 102.188 75.511, 100.380 76.321, 100.232 76.456 C 100.085 76.592, 100.863 78.682, 101.960 81.101 C 104.357 86.384, 104.513 90.107, 102.501 93.998 C 100.882 97.130, 95.936 101.305, 91.970 102.887 C 87.432 104.699, 135.582 104.235, 152 102.310 L 166.500 100.609 157.562 98.803 C 143.422 95.945, 136 91.306, 136 85.325 C 136 82.570, 139.355 75.527, 141.236 74.334 C 141.931 73.892, 146.872 72.791, 152.215 71.886 C 163.252 70.017, 165.353 69.380, 164.584 68.136 C 164.285 67.653, 158.356 65.292, 151.408 62.889 C 134.295 56.971, 130.680 53.285, 138.184 49.405 C 141.893 47.487, 155.591 44.522, 168.190 42.910 L 177.881 41.670 176.385 38.778 C 173.235 32.686, 161.266 27.172, 143 23.397 C 128.351 20.370, 127.590 20.363, 128.391 23.250 M 112.053 30.900 C 110.870 33.112, 112.332 34, 117.159 34 L 120.153 34 117.182 31.500 C 113.617 28.500, 113.354 28.469, 112.053 30.900 M 62.216 36.975 C 58.759 38.610, 52.785 41.983, 48.940 44.470 L 41.949 48.993 43.590 51.496 C 45.662 54.659, 46.221 54.632, 51.327 51.119 C 55.985 47.914, 73.810 37.230, 75.361 36.713 C 75.907 36.531, 76.023 35.846, 75.618 35.191 C 74.350 33.139, 68.747 33.885, 62.216 36.975 M 85 37.202 C 82.525 37.745, 79.825 38.750, 79 39.434 C 78.175 40.119, 74.914 41.703, 71.753 42.955 C 64.760 45.723, 60.618 50.180, 58.543 57.167 C 55.348 67.925, 56.417 70.591, 71.500 89.495 C 79.469 99.482, 81.647 101.669, 82.224 100.264 C 82.622 99.294, 86.081 89.788, 89.910 79.139 L 96.874 59.778 91.946 54.851 C 87.063 49.967, 85.268 46.350, 86.341 43.555 C 87.155 41.433, 94.737 39.707, 100.110 40.420 C 104.714 41.031, 106 40.266, 106 36.918 C 106 35.722, 90.805 35.928, 85 37.202 M 108.954 38.086 C 108.340 39.233, 108.136 40.470, 108.501 40.836 C 108.866 41.201, 113.218 41.659, 118.172 41.853 C 126.915 42.195, 127.149 42.147, 126.112 40.209 C 125.339 38.765, 123.286 37.907, 118.690 37.106 C 110.339 35.652, 110.252 35.661, 108.954 38.086 M 29.362 48.214 C 23.188 57.592, 23.154 57.697, 27.061 55.388 C 33.064 51.839, 37.975 48.517, 37.983 48 C 37.987 47.725, 36.980 46.246, 35.745 44.714 L 33.500 41.928 29.362 48.214 M 90.188 44.054 C 87.900 44.972, 87.895 45.013, 89.671 48.021 C 90.659 49.692, 92.920 52.469, 94.697 54.191 L 97.927 57.322 98.845 54.911 C 99.349 53.585, 100.491 50.758, 101.381 48.628 C 102.272 46.498, 103 44.361, 103 43.878 C 103 42.727, 93.160 42.862, 90.188 44.054 M 52.694 53.268 C 50.123 55.045, 48.015 56.831, 48.010 57.237 C 47.995 58.364, 53.398 65.919, 54.250 65.962 C 54.663 65.983, 55 64.186, 55 61.968 C 55 59.750, 55.681 56.306, 56.513 54.314 C 57.345 52.323, 57.878 50.545, 57.697 50.364 C 57.517 50.183, 55.265 51.490, 52.694 53.268 M 40.255 64.323 C 29.027 76.196, 26.189 90.369, 33.511 98.011 C 38.968 103.707, 46.789 102.341, 54.845 94.285 C 58.797 90.334, 60 88.491, 59.459 87.220 C 59.057 86.274, 57.887 82.578, 56.860 79.008 C 55.766 75.207, 53.061 69.714, 50.333 65.758 C 47.770 62.041, 45.587 59, 45.482 59 C 45.376 59, 43.025 61.396, 40.255 64.323 M 98.435 63.500 C 98.033 64.600, 97.096 67.017, 96.352 68.872 C 94.599 73.245, 94.476 73, 98.418 73 C 105.744 73, 106.836 70.604, 102.083 64.962 C 99.381 61.756, 99.111 61.648, 98.435 63.500 M 90.243 86.222 C 84.792 101.651, 84.697 102, 85.944 102 C 88.430 102, 96.196 97.556, 98.506 94.810 C 101.557 91.184, 101.756 86.402, 99.073 81.143 C 95.179 73.511, 94.621 73.832, 90.243 86.222 M 82 109 C 82 109.550, 82.477 110, 83.059 110 C 83.641 110, 83.840 109.550, 83.500 109 C 83.160 108.450, 82.684 108, 82.441 108 C 82.198 108, 82 108.450, 82 109 M 92.250 111.706 C 91.013 111.944, 90.002 112.220, 90.004 112.320 C 90.006 112.419, 91.131 114.714, 92.504 117.419 C 93.877 120.125, 95.012 122.825, 95.027 123.419 C 95.042 124.014, 96.892 125.625, 99.138 127 C 101.384 128.375, 105.355 131.826, 107.962 134.668 C 118.736 146.413, 121.264 160.572, 115.082 174.547 L 113.053 179.134 118.777 181.682 C 127.978 185.780, 138.978 187.581, 146.711 186.257 C 163.418 183.395, 176.719 170.029, 177.806 155.012 C 178.141 150.369, 177.871 149.193, 176.100 147.590 C 172.506 144.338, 167.240 146.765, 157.411 156.200 L 149.013 164.263 144.515 163.004 C 142.041 162.311, 138.888 160.699, 137.508 159.420 C 130.985 153.375, 136.784 144.824, 156.749 131.048 C 161.836 127.537, 165.868 124.535, 165.709 124.376 C 165.392 124.059, 147.624 129.124, 133.713 133.497 C 128.880 135.016, 124.708 136.041, 124.441 135.775 C 124.175 135.509, 125.088 132.863, 126.469 129.895 C 130.974 120.217, 129.014 114.486, 120.378 112.088 C 116.678 111.061, 96.988 110.793, 92.250 111.706 M 80.373 114.681 C 80.112 115.681, 79.808 116.869, 79.699 117.319 C 79.470 118.260, 90.223 122.110, 90.977 121.357 C 91.250 121.083, 90.518 119.203, 89.349 117.179 C 87.709 114.341, 86.495 113.427, 84.036 113.181 C 81.630 112.940, 80.732 113.308, 80.373 114.681 M 59 117.015 C 51.025 118.573, 41.537 120.158, 37.916 120.537 L 31.333 121.226 29.548 128.363 C 27.141 137.991, 26.350 155.608, 28.052 161.685 C 30.307 169.739, 38.708 176, 47.258 176 L 49.784 176 50.187 164.250 C 50.454 156.446, 50.155 151.019, 49.295 148.091 C 47.727 142.754, 47.608 133.169, 49.061 129.315 C 51.910 121.758, 61.673 116.521, 71.756 117.141 C 75.572 117.376, 76.549 117.101, 76.816 115.716 C 77.240 113.515, 76.718 113.553, 59 117.015 M 61.968 120.941 C 54.323 123.264, 50.619 128.651, 50.638 137.421 C 50.645 140.765, 51.227 145.226, 51.931 147.336 C 52.719 149.696, 53.117 155.082, 52.965 161.336 C 52.619 175.619, 52.708 176.487, 54.367 175.110 C 56.474 173.362, 75 124.727, 75 120.944 C 75 119.833, 65.625 119.830, 61.968 120.941 M 71.484 140.180 C 67.733 150.806, 63.154 163.052, 61.309 167.393 C 59.463 171.735, 58.173 175.506, 58.442 175.775 C 58.854 176.187, 80.057 173.965, 90.750 172.389 L 94 171.909 94 152.080 C 94 126.704, 93.994 126.673, 88.140 124.157 C 77.774 119.700, 79.197 118.331, 71.484 140.180" stroke="none" fill="black" fill-rule="evenodd"/>
</svg>