<svg xmlns="http://www.w3.org/2000/svg" width="200" height="200" viewBox="0 0 200 200" version="1.1">
	<path d="M 128.885 11.380 C 123.633 13.256, 119.490 16.491, 115.858 21.549 C 114.099 23.997, 112.519 26, 112.345 26 C 112.171 26, 111.517 23.967, 110.891 21.483 C 110.266 18.999, 109.406 16.751, 108.980 16.488 C 107.869 15.801, 92.113 18.644, 81 21.537 C 75.775 22.897, 67.795 25.825, 63.267 28.045 L 55.034 32.080 40.267 29.113 C 32.145 27.481, 23.636 25.857, 21.359 25.503 L 17.217 24.861 16.368 40.680 C 15.319 60.237, 15.348 127.659, 16.413 146.209 L 17.200 159.918 24.350 152.600 C 32.345 144.417, 36.973 142.146, 50 140.014 C 59.276 138.495, 63.261 136.157, 65.914 130.677 C 68.909 124.490, 70 117.277, 70 103.655 C 70 92.156, 69.838 91.200, 66.589 83.541 C 60.044 68.109, 59.481 57.851, 64.850 51.842 L 67.558 48.811 72.305 51.117 C 75.792 52.811, 76.876 53.832, 76.389 54.962 C 73.803 60.972, 72.001 70.443, 72.012 77.978 C 72.026 87.829, 73.615 94.685, 77.571 101.953 C 80.156 106.703, 86.182 113.214, 88.830 114.119 C 89.616 114.388, 89.524 115.673, 88.515 118.500 C 87.730 120.700, 87.068 123.477, 87.044 124.670 C 87.005 126.614, 86.294 126.908, 80.250 127.481 C 70.587 128.396, 70.710 128.367, 70.211 129.866 C 69.838 130.987, 71.369 131.104, 78.768 130.518 L 87.781 129.805 89.008 133.523 C 89.804 135.935, 90.002 139.605, 89.571 143.973 L 88.908 150.705 98.992 152.853 C 109.881 155.171, 115 155.554, 115 154.048 C 115 153.525, 111.876 151.076, 108.057 148.606 C 98.187 142.221, 93 136.793, 93 132.849 L 93 129.698 102.250 130.317 C 114.375 131.128, 121.146 133.197, 124.425 137.093 C 127.609 140.878, 127.730 144.829, 125.007 156.187 C 122.665 165.956, 122.497 170.860, 124.351 175.298 C 125.867 178.925, 132.591 185.303, 134.299 184.734 C 136.206 184.098, 162.777 143.981, 167.601 134.455 C 172.298 125.179, 173.514 119.114, 171.150 116.750 C 170.464 116.064, 167.972 115.577, 165.613 115.669 L 161.323 115.835 163.199 110.167 C 166.449 100.347, 168.225 87.277, 167.841 76 C 167.534 67.008, 167.088 64.693, 164.731 59.879 C 161.979 54.258, 156.191 49, 152.755 49 C 148.042 49, 151.264 47.013, 160.626 44.148 C 167.386 42.079, 171.001 40.495, 170.746 39.714 C 170.528 39.047, 167.233 38.050, 163.425 37.500 L 156.500 36.500 156.814 32.697 C 157.637 22.712, 144.963 9.849, 134.500 10.049 C 133.400 10.071, 130.873 10.669, 128.885 11.380 M 127.230 15.115 C 121.389 18.006, 116.644 23.836, 111.452 34.500 C 106.751 44.157, 100.291 65.710, 101.306 68.355 C 101.844 69.756, 103.563 69.892, 114.711 69.417 C 130.364 68.750, 132.108 68.444, 131.358 66.490 C 130.744 64.891, 132.044 64.637, 135.750 65.630 C 137.007 65.967, 138 67.013, 138 68 C 138 70.621, 135.166 71.117, 116.777 71.713 C 102.518 72.175, 99.982 72.494, 99.565 73.877 C 99.107 75.397, 97.024 87.791, 97.008 89.095 C 97.003 89.423, 99.556 88.401, 102.680 86.826 C 106.479 84.909, 108.693 84.293, 109.364 84.964 C 110.615 86.215, 110.572 86.251, 104.500 89.025 L 99.500 91.308 102.500 91.986 C 108.576 93.358, 116.150 91.836, 123.811 87.704 C 130.803 83.932, 131.369 83.794, 135.147 84.926 C 138.332 85.880, 139.062 86.534, 138.812 88.213 C 138.427 90.797, 133.883 92.493, 123.454 93.943 C 117.218 94.810, 114.848 95.708, 109.876 99.084 C 102.914 103.812, 95 111.124, 95 112.829 C 95 114.412, 100.321 114.311, 104.282 112.653 C 106.052 111.912, 109.245 109.372, 111.378 107.008 L 115.256 102.711 124.443 104.213 C 134.820 105.908, 139.317 107.690, 139.820 110.306 C 140.659 114.662, 132.999 118.523, 113.721 123.461 C 101.589 126.568, 99.596 128, 107.400 128 C 112.235 128, 121.072 130.869, 124.718 133.623 C 130.001 137.613, 130.745 142.085, 128.166 154.374 C 126.975 160.052, 126 166.385, 126 168.447 C 126 173.110, 128.432 178.398, 131.502 180.409 C 133.817 181.926, 133.919 181.804, 148.322 160.218 C 164.257 136.336, 168.959 127.811, 169.285 122.210 C 169.488 118.700, 169.339 118.502, 166.500 118.536 C 164.850 118.555, 162.208 118.915, 160.629 119.335 C 157.895 120.062, 157.785 119.965, 158.316 117.299 C 158.622 115.760, 160.008 110.508, 161.395 105.629 C 166.442 87.876, 166.685 70.178, 162.014 60.528 C 158.879 54.052, 154.978 51.619, 147.022 51.178 C 141.299 50.861, 139.224 51.312, 130.083 54.864 C 120.347 58.647, 118 59.076, 118 57.072 C 118 55.788, 128.118 51.829, 146.440 45.942 C 162.988 40.626, 163.277 40.486, 158.940 39.877 C 156.498 39.534, 153.639 39.702, 152.586 40.250 C 148.901 42.167, 140.062 40.302, 130.169 35.519 C 123.102 32.103, 120.962 30.638, 121.804 29.796 C 122.646 28.954, 125.182 29.339, 131.718 31.299 C 142.690 34.590, 152.728 36.605, 153.635 35.699 C 154.779 34.554, 154.158 28.204, 152.613 25.260 C 150.626 21.474, 144.098 15.344, 140.685 14.060 C 136.378 12.439, 131.932 12.788, 127.230 15.115 M 93.370 21.432 C 81.508 23.908, 68.699 27.917, 63.057 30.919 L 59.613 32.751 64.557 33.807 C 73.729 35.766, 90.779 37.258, 96.224 36.578 C 102.872 35.747, 107.728 32.932, 108.616 29.394 C 109.507 25.843, 107.880 19.574, 106 19.315 C 105.175 19.201, 99.492 20.154, 93.370 21.432 M 19.342 36.722 C 18.352 47.047, 18.262 150.596, 19.243 151.577 C 19.612 151.945, 22.070 150.328, 24.707 147.983 C 31.069 142.324, 37.629 139.445, 48.385 137.587 C 58.928 135.767, 61.558 134.254, 64.076 128.560 C 67.738 120.282, 68.427 93.109, 65.126 87.152 C 64.410 85.861, 62.940 82.261, 61.859 79.152 C 57.387 66.294, 57.286 57.806, 61.530 51.551 L 63.823 48.172 61.577 47.609 C 56.563 46.350, 50.185 49.807, 47.328 55.332 C 46.035 57.834, 46.047 59.693, 47.430 71.043 C 50.358 95.055, 49.238 109.721, 43.411 123.686 C 38.905 134.483, 38.443 131.996, 39.047 100.240 C 39.611 70.551, 39.541 71.176, 45.073 47 C 45.639 44.525, 47.475 40.783, 49.152 38.684 C 50.829 36.585, 52.043 34.712, 51.850 34.521 C 51.503 34.178, 30.859 29.798, 23.842 28.579 L 20.184 27.944 19.342 36.722 M 53.605 37.304 C 51.154 39.756, 47 47.066, 47 48.930 C 47 49.485, 48.677 48.802, 50.727 47.411 C 53.941 45.230, 55.421 44.909, 61.477 45.082 C 65.340 45.193, 70.671 44.708, 73.325 44.004 C 79.855 42.273, 92.407 43.202, 98.417 45.860 C 101.823 47.367, 103.209 47.598, 103.529 46.714 C 104.957 42.755, 107 36.701, 107 36.425 C 107 36.248, 105.313 36.825, 103.250 37.708 C 98.351 39.806, 84.022 39.728, 70 37.525 C 64.225 36.618, 58.720 35.651, 57.767 35.376 C 56.753 35.083, 55.025 35.884, 53.605 37.304 M 72.688 46.799 C 68.856 48.429, 77.346 50.879, 89.297 51.594 C 101.994 52.353, 104.701 51.343, 97.744 48.443 C 93.184 46.542, 75.951 45.411, 72.688 46.799 M 87.656 57.692 C 90.320 59.680, 93.724 62.434, 95.220 63.812 C 97.298 65.725, 98.053 65.985, 98.416 64.909 C 99.101 62.878, 100.990 55.590, 100.984 55 C 100.982 54.725, 96.892 54.405, 91.896 54.288 L 82.813 54.077 87.656 57.692 M 77.155 61.234 C 72.844 75.192, 73.742 89.244, 79.640 100.079 C 82.219 104.819, 88.981 112, 90.865 112 C 91.338 112, 92.029 108.513, 92.401 104.250 C 93.031 97.034, 95.318 80.884, 96.560 74.880 C 96.998 72.763, 96.660 72.136, 94.801 71.614 C 92.633 71.004, 92.603 70.888, 94.289 69.595 C 95.945 68.325, 95.682 67.889, 90.789 63.785 C 87.880 61.345, 84.060 58.356, 82.300 57.142 L 79.100 54.935 77.155 61.234 M 42.669 72.069 C 42.311 75.056, 42.058 86.950, 42.108 98.500 C 42.191 118.030, 42.296 119.187, 43.597 115.036 C 46.305 106.399, 47.118 94.820, 45.897 82.290 C 44.461 67.565, 43.555 64.695, 42.669 72.069 M 127 89 C 125.075 90.054, 124.088 90.935, 124.807 90.958 C 127.391 91.041, 135 88.744, 135 87.881 C 135 86.383, 130.676 86.988, 127 89 M 95.595 99.651 C 95.223 103.281, 95.056 106.389, 95.223 106.556 C 95.390 106.724, 98.765 104.305, 102.721 101.180 L 109.915 95.500 104.208 94.996 C 101.068 94.719, 97.999 94.168, 97.386 93.771 C 96.626 93.279, 96.056 95.152, 95.595 99.651 M 111.888 110.447 C 107.160 114.960, 100.750 117.568, 96.421 116.740 C 94.445 116.362, 94.130 116.795, 93.751 120.406 C 93.515 122.658, 93.447 124.661, 93.602 124.857 C 94.133 125.535, 114.522 120.809, 123.663 117.889 C 133.580 114.721, 138.220 111.877, 136.438 110.059 C 135.421 109.022, 121.623 105.975, 118.162 106.023 C 117.248 106.036, 114.425 108.027, 111.888 110.447 M 90.195 123.500 C 90.215 125.150, 90.439 125.704, 90.693 124.731 C 90.947 123.758, 90.930 122.408, 90.656 121.731 C 90.382 121.054, 90.175 121.850, 90.195 123.500 M 92 144.291 L 92 148.583 99.750 150.186 C 106.948 151.675, 107.322 151.672, 105 150.147 C 103.625 149.245, 100.428 146.592, 97.896 144.253 C 95.364 141.914, 93.002 140, 92.646 140 C 92.291 140, 92 141.931, 92 144.291" stroke="none" fill="black" fill-rule="evenodd"/>
</svg>