<svg xmlns="http://www.w3.org/2000/svg" width="200" height="200" viewBox="0 0 200 200" version="1.1">
	<path d="M 115.401 18.618 C 109.991 30.053, 105.204 30.673, 89.797 21.938 C 77.075 14.725, 72.666 14.030, 68.001 18.499 C 64.181 22.159, 61.132 29.547, 58.929 40.480 C 57.324 48.449, 55.013 68.603, 55.003 74.719 C 55.001 76.279, 54.555 76.767, 53.500 76.362 C 52.675 76.045, 52.006 74.597, 52.013 73.143 C 52.020 71.689, 50.820 66.552, 49.348 61.726 L 46.670 52.951 48.977 48.331 C 51.794 42.692, 51.024 39.465, 46.155 36.506 C 43.714 35.023, 41.822 32.307, 38.895 26.082 C 35.787 19.471, 34.676 17.924, 33.720 18.880 C 32.765 19.835, 33.668 23.524, 37.928 36.064 L 43.353 52.032 40.933 55.266 C 25.378 76.058, 21.307 87.126, 22.283 105.974 C 22.788 115.746, 23.374 118.750, 26.265 126.390 L 27.359 129.280 41.429 128.710 C 57.549 128.056, 67.876 125.782, 77.135 120.847 C 84.148 117.110, 90.523 110.325, 92.161 104.856 C 93.374 100.809, 94.661 99.953, 95.652 102.536 C 96.466 104.658, 106.649 111.724, 118 118.044 C 130.364 124.928, 136.175 128.908, 135.487 130.022 C 135.164 130.543, 116.022 130.678, 89.716 130.342 C 42.698 129.743, 38.473 130.025, 39.183 133.714 C 39.638 136.074, 49.668 139.067, 70.673 143.111 L 87.847 146.417 73.673 153.801 C 45.515 168.471, 33.622 176.930, 34.196 181.882 C 34.464 184.186, 35.006 184.537, 38.724 184.806 C 45.485 185.296, 58.110 181.261, 73.249 173.773 C 87.090 166.925, 87.489 166.635, 97.909 155.793 C 103.734 149.731, 110.425 143.443, 112.778 141.819 C 122.333 135.223, 127.816 137.809, 126.723 148.397 C 125.315 162.035, 115.104 173.650, 109.965 167.458 C 109.017 166.316, 108.401 166.209, 107.592 167.045 C 106.030 168.660, 115.705 177.036, 124.487 181.671 C 130.330 184.754, 132.704 185.423, 138.987 185.756 C 146.071 186.131, 146.812 185.964, 151.969 182.827 C 168.294 172.895, 175.244 142.218, 165.515 123.033 C 162.993 118.060, 160.947 115.891, 156.693 113.685 L 153.891 112.231 157.695 109.956 C 163.069 106.744, 167 102.920, 167 100.906 C 167 99.960, 164.750 97.302, 162 95 C 155.729 89.750, 155.571 87.523, 161.114 82.516 C 164.828 79.161, 165.077 78.649, 163.680 77.251 C 161.803 75.374, 154.853 74.140, 145.708 74.060 C 138.524 73.997, 125.616 71.688, 120.535 69.558 C 117.735 68.384, 118.351 68.231, 128.500 67.580 C 156.141 65.807, 166 64.221, 166 61.545 C 166 59.616, 164.323 58.563, 155.500 54.954 C 143.717 50.135, 140.044 47.395, 140.015 43.405 C 139.988 39.704, 142.953 38.256, 152 37.552 C 169.346 36.202, 176.001 33.728, 174.553 29.167 C 172.751 23.491, 146.062 15.446, 123.212 13.692 L 117.923 13.286 115.401 18.618 M 118.160 19.433 C 116.510 23.998, 111.164 29.670, 107.690 30.542 C 103.287 31.647, 98.907 30.281, 89.442 24.853 C 77.778 18.163, 75.699 17.468, 71.973 19.011 C 65.374 21.745, 60.082 40.315, 58.440 66.500 L 57.750 77.500 62.300 78.838 C 70.500 81.250, 71.757 85.308, 65.561 89.368 C 61.979 91.715, 59.733 96.506, 60.524 100.111 C 60.882 101.741, 63.611 105.706, 66.588 108.921 C 69.564 112.137, 72 115.045, 72 115.384 C 72 119.329, 59.336 106.694, 58.197 101.612 C 57.724 99.500, 57.339 102.008, 57 109.420 C 56.632 117.464, 56.137 120.460, 55.123 120.795 C 53.974 121.176, 53.817 117.760, 54.172 100.169 C 54.586 79.659, 54.543 79.078, 52.589 78.793 C 51.133 78.580, 50.360 77.402, 49.775 74.500 C 48.497 68.156, 44.768 55.999, 44.104 56.012 C 43.394 56.026, 36.687 65.440, 32.748 71.951 C 31.235 74.453, 28.834 80.100, 27.412 84.500 C 24.204 94.427, 23.923 107.748, 26.695 118.500 L 28.500 125.500 42 125.419 C 67.134 125.268, 83.083 118.264, 89.089 104.742 C 90.976 100.492, 91.396 97.892, 91.306 91 C 91.246 86.325, 90.590 80.255, 89.848 77.512 L 88.500 72.523 83.121 71.751 C 77.241 70.907, 69.675 67.903, 66.649 65.212 C 65.590 64.270, 64.131 62.098, 63.405 60.385 C 58.067 47.779, 80.894 34.042, 107.240 34.008 L 112.980 34 116.699 39.602 C 119.762 44.215, 120.488 46.294, 120.812 51.388 C 121.075 55.512, 120.689 58.809, 119.654 61.286 L 118.102 65 122.801 64.984 C 133.616 64.948, 162.002 62.160, 161.996 61.135 C 161.994 60.786, 158.234 59.023, 153.640 57.219 C 143.448 53.215, 137 48.092, 137 43.999 C 137 42.397, 138.131 39.809, 139.589 38.077 C 141.802 35.447, 142.859 35, 146.865 35 C 153.502 35, 167.978 33.082, 170.162 31.913 C 173.026 30.381, 172.385 29.229, 167.206 26.604 C 159.167 22.531, 143.020 18.704, 124.474 16.477 L 119.447 15.874 118.160 19.433 M 43.227 43.206 C 45.217 49.100, 45.319 49.210, 46.604 46.891 C 47.333 45.576, 47.945 43.782, 47.965 42.905 C 48.003 41.182, 45.512 38.661, 42.838 37.717 C 41.353 37.193, 41.395 37.781, 43.227 43.206 M 91.500 38.480 C 82.814 40.448, 77.563 42.516, 72.624 45.914 C 68.527 48.733, 65 53.985, 65 57.266 C 65 59.641, 68.904 63.910, 72.974 65.987 C 75.966 67.513, 86.428 69.950, 90.170 69.992 C 91.258 70.005, 94.092 83.882, 94.262 90.035 L 94.420 95.715 97.460 93.861 C 99.132 92.842, 101.354 92.006, 102.398 92.004 C 103.828 92.001, 103.460 91.437, 100.905 89.715 C 99.040 88.458, 97.363 86.646, 97.179 85.689 C 96.970 84.606, 99.580 81.126, 104.090 76.475 C 108.075 72.365, 111.148 68.843, 110.918 68.649 C 110.688 68.454, 109.661 67.844, 108.635 67.294 C 107.050 66.442, 107.364 66.197, 110.727 65.660 C 114.142 65.114, 114.933 64.475, 116.500 60.999 C 119.170 55.079, 118.744 48.976, 115.224 42.739 L 112.268 37.500 104.884 37.310 C 100.823 37.206, 94.800 37.732, 91.500 38.480 M 107.128 77.371 C 103.208 81.318, 100 85.082, 100 85.735 C 100 86.927, 108.777 90, 112.182 90 C 113.182 90, 114 90.617, 114 91.371 C 114 92.267, 112.210 92.980, 108.832 93.428 C 90.897 95.807, 93.337 100.999, 119.251 115.598 C 134.240 124.043, 139 127.504, 139 129.959 C 139 133.465, 133.993 133.821, 96.353 132.991 C 60.918 132.210, 41.529 132.605, 44.150 134.055 C 46.060 135.112, 67.164 139.768, 82.296 142.472 C 89.333 143.729, 95.306 144.973, 95.568 145.235 C 95.831 145.497, 88.497 149.502, 79.273 154.135 C 57.391 165.125, 46.832 171.423, 40.585 177.212 L 35.500 181.924 40.352 181.962 C 46.866 182.013, 60.666 177.276, 74.259 170.323 C 84.442 165.114, 86.215 163.741, 97.884 152.022 C 114.067 135.769, 120.436 132.409, 126.308 137.028 C 129.863 139.824, 130.658 145.876, 128.554 154.113 C 126.570 161.881, 123.050 167.448, 118.381 170.203 L 114.882 172.267 119.448 175.513 C 134.768 186.406, 148.949 185.742, 158.040 173.708 C 164.251 165.485, 166.500 157.457, 166.500 143.500 C 166.500 132.167, 166.333 131.167, 163.500 125.500 C 160.091 118.682, 155.481 115, 150.352 115 C 145.076 115, 146.283 112.663, 153.435 109.033 C 156.975 107.236, 160.909 104.661, 162.178 103.310 L 164.486 100.854 159.243 96.337 C 152.708 90.706, 152.356 87.825, 157.509 82.122 C 160.955 78.307, 160.978 78.227, 158.759 77.633 C 157.517 77.300, 152.827 77.021, 148.338 77.014 C 139.267 76.998, 128.405 75.147, 119.878 72.163 L 114.256 70.196 107.128 77.371 M 57.627 80.706 C 57.282 81.051, 57.010 84.746, 57.023 88.917 L 57.046 96.500 58.630 93.287 C 59.501 91.520, 61.779 88.881, 63.692 87.422 C 65.604 85.963, 66.794 84.395, 66.335 83.937 C 64.896 82.502, 58.284 80.049, 57.627 80.706" stroke="none" fill="black" fill-rule="evenodd"/>
</svg>