<svg xmlns="http://www.w3.org/2000/svg" width="200" height="200" viewBox="0 0 200 200" version="1.1">
	<path d="M 145.500 16.045 C 141.650 16.964, 123.201 21.653, 104.503 26.465 L 70.505 35.215 54.503 34.194 C 45.394 33.613, 36.015 33.531, 32.731 34.003 C 25.072 35.104, 19.094 38.728, 15.989 44.152 C 13.690 48.169, 13.505 49.452, 13.561 61 C 13.595 67.875, 14.181 75.434, 14.863 77.798 C 15.832 81.157, 15.850 84.271, 14.945 92.057 C 14.308 97.536, 13.959 108.877, 14.169 117.259 C 14.516 131.118, 14.786 133.007, 17.147 138.091 C 18.694 141.421, 21.109 144.655, 23.122 146.091 C 26.374 148.410, 27.074 148.493, 41.935 148.307 C 59.531 148.087, 60.774 147.629, 64.747 139.897 C 69.102 131.420, 69.964 123.668, 69.983 92.799 C 70 64.352, 70.679 56.565, 73.647 50.750 L 75.051 48 91.464 48 L 107.877 48 108.512 52.250 C 109.166 56.626, 107.817 61.860, 105.687 63.214 C 103.397 64.670, 98.423 63.973, 89.208 60.903 C 78.008 57.171, 75 57.461, 75.001 62.269 C 75.001 64.046, 76.450 68.425, 78.220 72 C 81.371 78.366, 81.449 78.852, 81.969 95.546 C 82.388 108.994, 82.846 113.120, 84.137 115.089 C 85.754 117.554, 85.680 117.700, 78.408 126.444 C 56.432 152.869, 50.129 168.683, 59.043 175.031 L 61.933 177.088 61.326 170.591 C 60.792 164.866, 61.037 163.444, 63.392 158.631 C 66.369 152.546, 75.983 142.954, 82.976 139.092 C 86.913 136.917, 87.247 136.868, 86.418 138.592 C 85.913 139.641, 85.509 144.100, 85.520 148.500 C 85.538 155.703, 85.887 157.148, 89.020 163 C 93.755 171.843, 102.962 180.871, 111.567 185.109 C 117.763 188.160, 119.309 188.500, 126.977 188.500 C 133.988 188.500, 136.387 188.066, 140.500 186.055 C 147.116 182.819, 154.923 174.578, 159.346 166.161 L 162.927 159.346 169.714 161.115 C 178.021 163.281, 181.069 163.401, 183.456 161.656 C 186.419 159.489, 184.578 155.328, 177.666 148.568 C 166.214 137.369, 143.661 123.513, 128.824 118.562 C 120.029 115.627, 116.104 115.378, 112.007 117.496 C 110.291 118.384, 108.875 118.606, 108.527 118.043 C 108.204 117.521, 109.866 116.594, 112.220 115.985 C 114.574 115.375, 120.100 113.944, 124.500 112.805 C 128.900 111.666, 132.850 110.422, 133.278 110.039 C 133.706 109.657, 133.153 107.354, 132.050 104.922 C 130.947 102.490, 130.034 99.431, 130.022 98.125 C 129.980 93.621, 134.827 95.658, 157.978 109.871 C 167.371 115.638, 170.585 116.815, 172.291 115.109 C 173.751 113.649, 171.753 109.814, 164.929 100.973 C 153.020 85.546, 153.079 85.984, 161.730 77.402 C 166.957 72.216, 167.198 71.769, 165.616 70.187 C 164.207 68.778, 161.794 68.500, 150.965 68.500 C 143.835 68.500, 138.001 68.216, 138 67.869 C 138 67.521, 139.688 65.946, 141.750 64.369 C 144.935 61.932, 146.486 61.481, 152.045 61.375 C 159.101 61.240, 166.223 58.468, 167.401 55.398 C 168.301 53.052, 165.542 50.327, 161.237 49.309 L 157.640 48.458 163.671 41.979 C 170.635 34.498, 172.203 31.947, 171.017 30.027 C 169.780 28.025, 163.897 30.523, 149.538 39.146 L 137.632 46.296 122.748 45.685 C 110.287 45.173, 106.618 44.644, 100.205 42.430 C 95.514 40.811, 90.290 39.765, 86.729 39.731 C 81.764 39.685, 80.256 40.139, 76.427 42.838 C 71.999 45.960, 71.785 46.001, 59.721 46.058 C 46.540 46.120, 40.034 46.914, 39.707 48.500 C 39.593 49.050, 41.012 49.645, 42.861 49.822 C 46.065 50.128, 46.191 50.291, 45.568 53.322 C 41.898 71.182, 40.757 80.820, 40.634 95 C 40.497 110.851, 41.299 115, 44.500 115 C 48.906 115, 50.665 99.609, 49.041 75.248 C 48.372 65.210, 48.122 55.237, 48.485 53.087 L 49.146 49.178 59.823 48.805 C 65.695 48.599, 70.645 48.517, 70.822 48.621 C 70.999 48.725, 70.342 50.991, 69.361 53.655 C 67.815 57.859, 67.543 62.735, 67.303 90.500 C 67.020 123.268, 66.373 130.066, 62.817 137.654 C 59.792 144.107, 58.696 144.637, 46.139 145.715 C 28.842 147.201, 23.443 145.517, 19.913 137.537 C 15.914 128.495, 15.246 111.829, 17.993 89.626 C 18.606 84.673, 18.451 80.901, 17.439 76.126 C 15.333 66.190, 15.591 51.497, 17.964 46.271 C 21.730 37.973, 30.625 35.257, 49.485 36.645 L 61.500 37.529 53.771 39.442 C 45.315 41.536, 43.161 42.494, 44.316 43.649 C 44.733 44.066, 51.020 42.956, 58.287 41.183 C 68.453 38.703, 73.691 37.961, 81 37.963 C 93.861 37.966, 99.603 36.559, 127.260 26.623 C 153.659 17.140, 154.201 16.906, 153.205 15.422 C 152.724 14.707, 150.272 14.905, 145.500 16.045 M 100 30.585 C 83.981 34.854, 83.709 34.970, 90.664 34.557 C 96.831 34.190, 116.873 28.460, 118.829 26.504 C 119.854 25.480, 116.117 26.289, 100 30.585 M 155.972 38.516 C 142.460 46.226, 141.521 47, 145.675 47 C 147.366 47, 150.079 47.266, 151.704 47.591 C 154.395 48.129, 155.263 47.505, 161.472 40.568 C 165.220 36.380, 168.077 32.744, 167.821 32.487 C 167.564 32.231, 162.232 34.944, 155.972 38.516 M 80.500 43.406 C 77.687 44.748, 78.154 44.839, 88 44.855 C 95.526 44.868, 97.836 44.607, 96.157 43.934 C 91.760 42.173, 83.658 41.899, 80.500 43.406 M 111 54.577 C 111 60.513, 110.715 61.439, 108.077 64.077 C 104.301 67.852, 100.973 67.838, 90 64 C 85.325 62.365, 80.479 61.021, 79.231 61.013 C 77.260 61.002, 77.049 61.361, 77.625 63.750 C 77.990 65.263, 79.686 69.200, 81.394 72.500 C 84.435 78.374, 84.511 78.862, 85 95.703 C 85.323 106.831, 85.911 113.316, 86.664 114.067 C 88.161 115.560, 105.277 97.976, 111.107 88.955 C 113.307 85.552, 117.437 80.303, 120.286 77.291 L 125.466 71.814 111.483 72.523 C 101.936 73.006, 97.817 72.906, 98.500 72.205 C 99.050 71.642, 107.050 66.255, 116.277 60.235 L 133.054 49.291 126.880 48.645 C 123.485 48.290, 118.523 48, 115.853 48 L 111 48 111 54.577 M 122.500 59.474 L 106.500 70.072 117.800 69.404 L 129.100 68.736 136.300 63.929 C 140.260 61.284, 145.506 57.069, 147.958 54.560 L 152.416 50 148.958 49.989 C 147.056 49.983, 143.925 49.730, 142 49.427 C 138.835 48.930, 136.967 49.892, 122.500 59.474 M 152.110 54.387 L 148.827 57.773 153.164 58.228 C 157.108 58.642, 165 56.109, 165 54.429 C 165 53.724, 158.428 51, 156.728 51 C 155.994 51, 153.915 52.524, 152.110 54.387 M 44.684 73 C 43.479 80.451, 42.663 104.398, 43.471 108.587 C 44.204 112.388, 44.255 112.428, 45.242 110 C 46.614 106.623, 47.324 81.961, 46.264 74.500 L 45.411 68.500 44.684 73 M 122.335 83.203 C 112.200 93.223, 109.635 96.360, 107.996 100.740 C 105.463 107.510, 105.303 114, 107.669 114 C 109.360 114, 129.185 109.008, 129.875 108.409 C 130.082 108.230, 129.519 106.255, 128.625 104.021 C 126.602 98.965, 126.556 95.613, 128.489 94.009 C 131.619 91.411, 137.280 93.900, 159.915 107.824 C 164.543 110.671, 168.716 113, 169.188 113 C 170.402 113, 167.669 108.848, 159.810 98.750 C 151.004 87.436, 150.816 85.190, 158.032 77.559 C 162.059 73.301, 162.742 72.115, 161.450 71.619 C 160.563 71.279, 154.176 71, 147.257 71 L 134.678 71 122.335 83.203 M 126.405 75.250 L 124.500 77.500 126.750 75.595 C 128.864 73.805, 129.455 73, 128.655 73 C 128.465 73, 127.453 74.013, 126.405 75.250 M 97.027 109.473 C 93.499 113.033, 90.903 116.237, 91.260 116.593 C 91.616 116.949, 94.435 116.849, 97.524 116.370 L 103.140 115.500 103.390 109.250 C 103.528 105.813, 103.596 103, 103.541 103 C 103.487 103, 100.555 105.913, 97.027 109.473 M 95.322 118.741 L 88.144 119.085 81.235 127.292 C 73.920 135.983, 67.813 144.162, 64.210 150.097 C 62.500 152.913, 63.617 152.129, 69.356 146.482 C 77.478 138.490, 89.125 131.905, 101.250 128.449 C 107.366 126.706, 108 126.280, 108 123.917 C 108 121.329, 105.188 117.818, 103.421 118.199 C 102.915 118.308, 99.270 118.552, 95.322 118.741 M 113.250 119.662 C 108.559 121.555, 119.201 125, 129.741 125 C 133.798 125, 136.876 125.392, 136.579 125.872 C 136.283 126.351, 137.989 127.488, 140.370 128.397 C 149.051 131.712, 155.293 138.948, 157.934 148.756 C 158.959 152.562, 159.389 153, 162.106 153 C 164.605 153, 165.031 153.326, 164.544 154.862 C 164.047 156.427, 164.883 156.984, 169.792 158.362 C 177.598 160.552, 182 160.527, 182 158.293 C 182 154.029, 161.189 137.550, 144 128.204 C 131.502 121.408, 118.129 117.694, 113.250 119.662 M 111 125.031 C 111 125.564, 111.675 126, 112.500 126 C 113.325 126, 114 125.823, 114 125.607 C 114 125.391, 113.325 124.955, 112.500 124.638 C 111.675 124.322, 111 124.499, 111 125.031 M 111.643 129.500 C 110.818 130.325, 108.648 131.003, 106.821 131.006 C 97.874 131.021, 89.830 136.203, 87.957 143.159 C 84.676 155.346, 96.962 174.928, 112.750 182.674 C 117.145 184.830, 120.280 185.577, 126.055 185.845 C 135.504 186.282, 141.229 183.900, 148.500 176.505 C 154.095 170.816, 161.057 158.852, 159.145 158.215 C 158.496 157.999, 157.329 157.187, 156.554 156.411 C 154.983 154.840, 142.005 154.572, 129.286 155.847 C 121.631 156.615, 118 155.927, 118 153.709 C 118 152.963, 121.104 147.128, 124.898 140.742 C 128.692 134.355, 131.542 128.876, 131.232 128.565 C 130.921 128.254, 126.724 128, 121.905 128 C 115.450 128, 112.748 128.395, 111.643 129.500 M 133.635 131.277 C 127.426 141.313, 121 152.515, 121 153.303 C 121 153.854, 122.595 153.999, 124.750 153.643 C 126.813 153.303, 134.679 152.725, 142.231 152.359 L 155.961 151.694 155.340 149.097 C 153.283 140.494, 146.778 133.527, 137.512 130.005 C 135.427 129.212, 134.782 129.424, 133.635 131.277" stroke="none" fill="black" fill-rule="evenodd"/>
</svg>