<svg xmlns="http://www.w3.org/2000/svg" width="200" height="200" viewBox="0 0 200 200" version="1.1">
	<path d="M 131.500 16.980 C 121.050 19.687, 105.442 23.880, 96.815 26.298 L 81.129 30.693 67.315 29.175 C 45.788 26.810, 28.730 29.512, 18.500 36.908 L 14.500 39.800 14.505 84.650 C 14.509 124.011, 14.730 130.521, 16.305 137.846 C 18.255 146.913, 21.204 155.529, 23.372 158.494 C 24.647 160.238, 24.885 160.049, 26.759 155.812 C 29.455 149.717, 35.591 143.075, 40.500 140.938 C 42.700 139.981, 46.975 138.911, 50 138.562 C 69.224 136.341, 72.908 130.536, 71.620 104.500 C 69.515 61.954, 69.515 62, 71.712 62 C 74.303 62, 75.001 66.650, 74.998 83.890 C 74.994 106.874, 72.105 128.375, 65.416 155.199 C 58.739 181.977, 62.019 185.335, 77.203 167.267 C 93.735 147.594, 93.903 147.198, 98.992 116 C 101.264 102.073, 103.276 94.340, 106.033 88.935 C 108.021 85.038, 114.273 79, 116.321 79 C 118.389 79, 129.197 83.442, 129.095 84.250 C 129.043 84.662, 129 87.860, 129 91.355 L 129 97.711 122.384 98.329 C 118.689 98.674, 114.965 98.517, 113.950 97.973 C 111.268 96.538, 107.339 98.395, 105.032 102.187 C 96.697 115.894, 97.457 166.989, 106.180 179.250 C 108.848 183, 111.894 182.743, 116.054 178.415 C 120.761 173.518, 126.497 170.302, 133.023 168.900 C 137.537 167.931, 140.883 168.038, 152.057 169.509 C 167.209 171.504, 169.383 171.114, 173.410 165.680 C 175.131 163.356, 175.561 161.087, 175.847 152.809 C 176.334 138.729, 174.627 128.024, 170.536 119.500 C 165.694 109.413, 165.256 105.375, 168.487 100.614 C 170.377 97.830, 170.792 96.454, 170.023 95.527 C 169.443 94.829, 160.876 91.451, 150.984 88.022 C 134.418 82.278, 133 81.598, 133 79.393 C 133 76.527, 133.911 76.453, 142.531 78.618 C 148.473 80.111, 149.724 80.110, 158.618 78.607 C 168.499 76.938, 177 73.919, 177 72.079 C 177 71.511, 175.823 70.275, 174.385 69.333 C 171.443 67.405, 156.381 66.886, 143.229 68.259 L 135.957 69.018 138.374 64.259 C 143.716 53.743, 156.618 43.005, 169.863 38.051 C 173.238 36.789, 176 35.436, 176 35.045 C 176 33.398, 174.603 33.229, 171.128 34.455 C 167.534 35.723, 158.528 36.863, 135 39.030 C 115.792 40.799, 104.842 44.023, 100.496 49.187 C 97.095 53.229, 97.101 59.885, 100.512 65.852 C 101.880 68.246, 103 70.336, 103 70.498 C 103 70.659, 96.961 68.485, 89.579 65.667 L 76.158 60.542 75.538 56.406 C 74.325 48.319, 69.763 46.416, 68.444 53.447 C 68.077 55.401, 67.646 57, 67.486 57 C 67.326 57, 63.223 55.465, 58.369 53.588 C 50.370 50.495, 49.466 49.876, 48.715 46.978 C 48.259 45.220, 48.063 43.603, 48.280 43.386 C 48.497 43.169, 55.835 40.898, 64.587 38.339 L 80.500 33.686 89.877 35.257 L 99.254 36.829 111.877 32.504 C 141.313 22.419, 158 15.494, 158 13.363 C 158 10.948, 151.210 11.874, 131.500 16.980 M 131 19.917 C 88.295 31.157, 86.468 31.842, 95.078 33.385 C 98.741 34.041, 113.721 29.444, 136.967 20.530 C 152.090 14.731, 151.092 14.628, 131 19.917 M 38.763 32.033 C 28.090 33.830, 14.919 40.443, 16.599 43.161 C 16.971 43.762, 17.209 61.859, 17.129 83.377 C 16.962 127.958, 17.828 137.897, 23.085 151.723 L 24.093 154.376 26.146 150.938 C 29.128 145.945, 33.973 141.097, 38.114 138.961 C 40.102 137.937, 45.929 136.422, 51.064 135.595 C 66.865 133.052, 68.505 130.690, 68.489 110.500 C 68.483 102.800, 68.258 88.321, 67.989 78.324 L 67.500 60.148 58.481 56.574 C 53.520 54.608, 49.132 53, 48.731 53 C 48.329 53, 48 65.759, 48 81.353 C 48 110.898, 47.368 122.289, 45.757 121.752 C 45.189 121.563, 44.810 110.997, 44.814 95.468 L 44.821 69.500 43.006 87 C 39.346 122.284, 38.808 126, 37.366 126 C 35.684 126, 35.680 126.444, 37.485 111.663 C 38.302 104.973, 39.873 89.600, 40.977 77.500 C 43.202 53.115, 43.619 49.637, 45.142 42.766 C 46.057 38.640, 46.424 38.156, 47.997 38.999 C 49.133 39.606, 50.860 39.619, 52.651 39.032 C 54.218 38.519, 59.550 36.856, 64.500 35.337 L 73.500 32.575 68 31.886 C 60.637 30.965, 44.630 31.045, 38.763 32.033 M 145 40.701 C 134.542 41.517, 117.131 44.067, 112.388 45.477 C 99.494 49.308, 97.236 56.464, 105.221 68.188 C 109.924 75.094, 112.528 75.708, 123.557 72.512 C 128.409 71.106, 132.464 69.853, 132.569 69.728 C 132.674 69.602, 133.903 67.223, 135.300 64.441 C 138.992 57.089, 145.025 49.873, 151.145 45.489 C 154.090 43.379, 156.928 41.281, 157.450 40.826 C 158.373 40.023, 154.213 39.981, 145 40.701 M 71.015 55.750 C 71.007 57.538, 71.450 59, 72 59 C 73.270 59, 73.270 55.965, 72 54 C 71.264 52.862, 71.027 53.284, 71.015 55.750 M 77.708 76.395 C 78.746 98.355, 75.919 122.964, 69.025 152 C 66.870 161.075, 64.799 170.235, 64.422 172.355 C 63.765 176.058, 63.822 176.165, 65.870 175.070 C 68.027 173.915, 77.635 163.076, 84.861 153.645 C 89.767 147.241, 92.143 139.642, 95.432 119.826 C 99.402 95.910, 101.545 89.260, 107.602 82.061 C 110.251 78.913, 110.266 78.821, 108.400 76.967 C 107.028 75.605, 79.235 64, 77.343 64 C 77.222 64, 77.386 69.578, 77.708 76.395 M 142.037 71.170 C 138.482 71.677, 135.345 72.321, 135.066 72.601 C 134.110 73.556, 137.142 74.706, 144.060 76.011 C 150.064 77.144, 152.096 77.097, 159.430 75.656 C 164.078 74.743, 169.145 73.484, 170.691 72.858 L 173.500 71.719 171 70.959 C 167.571 69.917, 149.913 70.045, 142.037 71.170 M 123.053 76.882 C 120.818 77.506, 120.983 77.678, 124.943 78.865 C 128.472 79.922, 129.428 79.925, 130.074 78.880 C 131.747 76.174, 128.698 75.307, 123.053 76.882 M 132 90.960 L 132 96.919 140.170 97.210 C 145.184 97.388, 148.485 97.943, 148.718 98.646 C 148.927 99.276, 145.715 102.556, 141.581 105.934 C 132.768 113.136, 132.923 110.113, 140.056 135.500 C 145.978 156.578, 146.481 159.233, 145.056 161.895 C 143.450 164.897, 139.308 164.581, 132.352 160.925 C 124.382 156.736, 123.354 155.630, 121.896 149.667 C 119.032 137.952, 121.338 124.933, 127.897 115.787 C 130.701 111.877, 130.915 111.033, 130.338 106.180 L 129.705 100.859 122.102 100.985 C 117.921 101.054, 113.435 100.973, 112.132 100.805 C 108.930 100.392, 106.482 103.885, 104.286 112 C 101.787 121.234, 101.783 156.380, 104.279 166.290 C 106.208 173.946, 108.531 179, 110.122 179 C 110.711 179, 113.287 177.154, 115.847 174.897 C 126.070 165.884, 133.422 164.224, 152.222 166.682 C 166.345 168.529, 168.544 168.152, 171.697 163.339 C 173.170 161.090, 173.478 158.657, 173.380 150.043 C 173.226 136.541, 171.632 128.101, 167.729 120.134 C 163.836 112.186, 162.913 103.588, 165.525 99.602 C 166.485 98.137, 167.097 96.785, 166.885 96.598 C 166.249 96.037, 133.937 85, 132.931 85 C 132.419 85, 132 87.682, 132 90.960 M 133 104.620 L 133 109.241 137.750 105.450 C 140.363 103.364, 142.928 101.285, 143.450 100.829 C 143.972 100.373, 141.835 100, 138.700 100 L 133 100 133 104.620 M 129.716 118.035 C 125.118 125.066, 123.562 130.411, 123.616 139 C 123.685 150.013, 125.297 153.812, 131.429 157.405 C 133.997 158.910, 137.651 160.394, 139.549 160.702 C 142.672 161.209, 143.001 161.036, 143.010 158.881 C 143.019 156.771, 133.970 122.572, 132.070 117.535 C 131.364 115.662, 131.252 115.686, 129.716 118.035" stroke="none" fill="black" fill-rule="evenodd"/>
</svg>