<svg xmlns="http://www.w3.org/2000/svg" width="200" height="200" viewBox="0 0 200 200" version="1.1">
	<path d="M 112.472 22.478 C 109.593 29.252, 109.133 29.733, 107.299 27.899 C 106.498 27.098, 106.030 27.329, 105.580 28.747 C 105.021 30.510, 103.994 30.696, 94.776 30.696 C 85.297 30.696, 84.278 30.498, 80.099 27.848 C 74.749 24.455, 72.177 24.286, 68.609 27.093 C 66.454 28.788, 64.287 29.240, 57.224 29.467 C 43.773 29.899, 33.654 34.033, 27.829 41.476 C 25.888 43.956, 25.500 45.635, 25.500 51.564 C 25.500 57.890, 25.870 59.271, 28.844 64.055 L 32.187 69.434 28.654 86.967 C 26.711 96.610, 24.852 106.564, 24.523 109.088 C 23.850 114.257, 25.226 119, 27.397 119 C 29.494 119, 35.027 112.160, 39.436 104.117 C 41.539 100.280, 44.836 95.646, 46.761 93.820 L 50.261 90.500 49.664 94.500 C 49.335 96.700, 48.758 101.140, 48.382 104.366 C 47.580 111.237, 46.038 111.551, 62.711 101.441 C 68.553 97.898, 73.665 95, 74.072 95 C 75.496 95, 76.109 104.550, 75.003 109.502 C 72.905 118.897, 67.844 125.412, 59.921 128.917 L 55.368 130.931 50.934 128.715 C 45.653 126.077, 32.990 125.665, 26.516 127.921 L 22.532 129.310 26.516 130.736 C 33.038 133.071, 45.711 135.001, 50.348 134.366 C 54.224 133.834, 54.901 134.059, 56.835 136.517 C 63.643 145.172, 61.307 157.025, 50.808 167.091 C 45.287 172.384, 33.031 178.874, 23.228 181.695 C 15.162 184.016, 15.072 186.238, 23.010 187.088 C 30.691 187.911, 40.794 186.506, 47.867 183.632 C 58.134 179.460, 63.352 175.523, 87.825 153.482 C 104.962 138.047, 115.323 133.466, 127.474 135.950 C 130.760 136.621, 134.484 137.714, 135.751 138.377 C 137.888 139.497, 137.526 139.739, 130.712 141.744 C 117.067 145.758, 109 153.214, 109 161.810 C 109 173.678, 121.542 183.304, 137 183.299 C 150.056 183.295, 161.157 177.429, 165.953 168 C 173.763 152.644, 176.014 139.815, 172.040 133.299 C 167.862 126.446, 159.312 124.863, 135.480 126.532 C 126.691 127.147, 118.825 127.531, 118 127.385 C 111.485 126.235, 111 125.952, 111 123.297 C 111 120.239, 114.721 112, 116.102 112 C 116.610 112, 120.223 112.886, 124.131 113.969 C 139.671 118.276, 153.467 117.510, 164.325 111.738 C 174.342 106.413, 179.332 98.124, 176.541 91.445 C 175.787 89.639, 174.261 87.675, 173.150 87.080 C 167.928 84.286, 156.310 86.881, 146.666 92.997 C 141.016 96.580, 140.971 96.582, 129.798 93.842 C 121.329 91.765, 118.390 90, 123.401 90 C 128.404 90, 149.762 85.902, 155.866 83.771 C 163.933 80.954, 170.681 75.216, 171.584 70.406 C 171.943 68.489, 171.695 64.981, 171.031 62.611 C 169.475 57.055, 163.329 48.928, 159.198 46.968 C 157.276 46.055, 153.247 41.832, 149.235 36.526 C 140.318 24.729, 131.396 18.878, 118.872 16.612 L 115.244 15.955 112.472 22.478 M 115.350 22.721 C 114.485 24.800, 113.172 27.678, 112.431 29.119 C 111.091 31.725, 111.121 31.756, 118.469 35.387 C 126.125 39.171, 131 43.731, 131 47.108 C 131 48.183, 130.324 49.322, 129.498 49.639 C 126.365 50.841, 122.597 48.689, 115.841 41.839 L 108.860 34.760 105.989 37.510 C 103.814 39.594, 95.617 52.149, 93.235 57.044 C 93.090 57.343, 95.442 57.646, 98.463 57.717 C 101.485 57.788, 106.441 58.568, 109.478 59.451 C 114.271 60.844, 115 61.386, 115 63.553 C 115 66.669, 118.109 68, 125.384 68 C 131.106 68, 140.513 65.597, 141.585 63.862 C 142.198 62.870, 140.919 61.530, 138.573 60.707 C 138.063 60.528, 137.976 59.848, 138.380 59.195 C 138.932 58.302, 139.859 58.393, 142.119 59.561 C 146.630 61.894, 145.694 64.906, 139.500 67.989 C 135.338 70.060, 133.047 70.479, 125.832 70.489 C 118.027 70.499, 116.907 70.259, 114.582 68.076 C 113.162 66.742, 112 65.090, 112 64.403 C 112 62.465, 105.176 60.591, 97.944 60.543 C 92.195 60.505, 90.981 60.843, 88.069 63.291 C 86.242 64.827, 84.242 65.914, 83.624 65.708 C 81.527 65.009, 82.488 62.549, 85.651 60.521 C 88.570 58.648, 91.204 55.193, 96.864 45.809 L 99.090 42.119 95.587 41.152 C 93.660 40.620, 90.110 38.767, 87.697 37.034 C 83.058 33.703, 83.125 33.706, 73 36.238 C 63.191 38.690, 62.130 40.720, 56.917 67 C 53.671 83.362, 53.558 84.391, 55.118 83.427 C 57.601 81.893, 63.295 81.243, 66.500 82.128 C 68.410 82.655, 71.348 84.742, 73.201 86.889 C 75.935 90.057, 77.308 90.800, 81.222 91.230 L 85.943 91.748 82.722 87.132 C 80.950 84.594, 76.902 79.879, 73.727 76.656 C 68.852 71.706, 67.562 70.893, 65.431 71.428 C 64.043 71.776, 62.498 71.808, 61.998 71.499 C 60.711 70.704, 61.937 68, 63.584 68 C 64.337 68, 65.728 66.763, 66.674 65.250 C 67.621 63.737, 68.501 62.342, 68.631 62.150 C 68.761 61.957, 69.345 62.095, 69.930 62.457 C 70.656 62.905, 70.545 63.980, 69.580 65.845 C 68.225 68.466, 68.305 68.670, 71.566 70.905 C 79.656 76.448, 101.801 108.599, 99.271 111.129 C 98.739 111.661, 96.412 109.159, 93.569 104.999 C 88.125 97.030, 84.476 94, 80.326 94 L 77.461 94 77.836 101.424 C 78.494 114.452, 73.499 124.444, 63.510 130.081 L 58.021 133.179 60.510 137.427 C 63.864 143.151, 63.919 151.487, 60.649 158.500 C 57.313 165.656, 47.774 174.111, 37.695 178.846 C 33.188 180.964, 28.375 183.225, 27 183.871 C 22.250 186.102, 38.474 184.158, 45.308 181.677 C 54.534 178.329, 63.573 171.869, 80 156.886 C 102.403 136.453, 109.727 132.487, 123.818 133.163 C 129.867 133.452, 132.935 134.207, 138.250 136.713 C 141.963 138.463, 145 140.281, 145 140.752 C 145 141.224, 141.706 142.164, 137.680 142.840 C 128.420 144.396, 119.414 148.625, 115.241 153.378 C 108.369 161.205, 112.108 171.960, 123.677 177.641 C 128.512 180.015, 130.773 180.500, 137 180.500 C 145.105 180.500, 148.799 179.386, 156.410 174.645 C 160.700 171.972, 161.811 170.525, 165.198 163.194 C 178.309 134.815, 171.973 126.202, 139.948 128.871 C 119.425 130.581, 113.777 130.399, 110.635 127.927 C 107.428 125.405, 107.251 122.141, 110.018 116.566 C 114.128 108.287, 113.771 108.435, 123.200 111.096 C 129.671 112.922, 134.034 113.445, 143 113.467 C 153.602 113.494, 154.989 113.271, 160.762 110.606 C 173.897 104.544, 179.277 92.337, 170.316 88.930 C 165.768 87.201, 155.679 90.472, 144.792 97.206 L 141.084 99.500 130.395 96.769 C 110.939 91.798, 110.621 89.084, 129.197 86.545 C 163.671 81.831, 174.205 74.134, 166.593 59.217 C 163.957 54.050, 159.669 49.576, 156.414 48.597 C 155.267 48.252, 151.742 44.357, 148.581 39.943 C 140.215 28.257, 132.192 22.607, 119.711 19.612 C 117.191 19.007, 116.771 19.306, 115.350 22.721 M 70.143 28.890 C 68.260 30.083, 69.658 34.345, 71.678 33.570 C 72.501 33.254, 74.964 32.710, 77.151 32.360 L 81.128 31.724 78.314 29.869 C 75.285 27.871, 72.313 27.515, 70.143 28.890 M 46.024 33.603 C 31.187 37.590, 24.850 46.012, 28.475 56.925 C 30.565 63.217, 32.521 65.044, 33.404 61.527 C 33.754 60.132, 34.760 59, 35.650 59 C 37.575 59, 37.647 58.497, 32.106 84 C 27.732 104.136, 26.106 116, 27.720 116 C 28.861 116, 34.679 107.509, 38.003 100.993 C 39.239 98.571, 42.623 94.094, 45.522 91.045 L 50.795 85.500 53.518 70.544 C 55.015 62.318, 57.034 52.728, 58.003 49.232 C 59.610 43.439, 59.621 42.939, 58.133 43.594 C 53.083 45.813, 34.421 51.760, 33.770 51.358 C 33.346 51.096, 33 50.471, 33 49.969 C 33 48.935, 47.301 41.923, 56.350 38.521 C 60.297 37.038, 62.629 35.531, 63.147 34.131 C 63.900 32.096, 63.654 32.003, 57.718 32.066 C 54.298 32.102, 49.036 32.794, 46.024 33.603 M 89.508 35.009 C 90.508 36.113, 93.111 37.552, 95.294 38.206 C 98.966 39.306, 99.401 39.223, 101.126 37.093 C 102.151 35.827, 102.740 34.389, 102.436 33.896 C 102.131 33.403, 98.689 33, 94.786 33 C 87.743 33, 87.704 33.015, 89.508 35.009 M 119.820 42.038 C 124.680 46.571, 128 48.255, 128 46.187 C 128 44.148, 117.954 36.912, 115.300 37.038 C 114.860 37.059, 116.894 39.309, 119.820 42.038 M 57 85.702 C 53.623 87.437, 53.455 87.794, 52.225 95.892 C 51.524 100.508, 51.123 104.457, 51.334 104.668 C 52.002 105.335, 72.884 92.550, 72.943 91.437 C 73.052 89.400, 67.288 84.921, 63.906 84.415 C 61.717 84.087, 59.250 84.547, 57 85.702 M 34.500 130.075 C 36.150 130.572, 40.425 131.211, 44 131.495 C 50.243 131.992, 50.381 131.954, 47.500 130.551 C 45.771 129.709, 41.747 129.108, 38 129.131 C 32.546 129.165, 31.983 129.317, 34.500 130.075" stroke="none" fill="black" fill-rule="evenodd"/>
</svg>