<svg xmlns="http://www.w3.org/2000/svg" width="200" height="200" viewBox="0 0 200 200" version="1.1">
	<path d="M 156.994 16.934 C 153.121 18.112, 148.164 20.847, 140.295 26.147 L 133.090 31 118.795 30.994 C 110.933 30.991, 94.825 30.094, 83 29 C 44.650 25.454, 29.344 26.502, 22.718 33.128 C 19.953 35.894, 19.802 36.443, 20.339 41.790 C 20.655 44.931, 21.356 49.750, 21.897 52.500 C 23.494 60.615, 23.138 84.063, 21.079 106.536 C 18.076 139.293, 17.729 147.709, 18.993 157.013 C 20.790 170.227, 24.095 176.475, 31.210 180.106 C 36.208 182.657, 42.493 182.489, 51.229 179.571 C 63.725 175.397, 72.292 174.819, 116.471 175.172 C 153.039 175.464, 158.103 175.313, 163.046 173.781 C 170.528 171.463, 173.529 168.167, 173.404 162.406 C 173.351 159.969, 173.049 157.716, 172.733 157.400 C 172.417 157.084, 169.690 157.338, 166.673 157.964 C 160.398 159.267, 156.114 158.421, 137.750 152.256 L 127 148.647 127 144.343 C 127 140.672, 127.331 139.975, 129.250 139.610 C 130.488 139.375, 137.575 138.243, 145 137.094 C 165.568 133.911, 172.603 129.591, 170.571 121.390 C 169.657 117.703, 162.092 110.583, 153.888 105.690 C 148.177 102.283, 147 101.942, 142.786 102.469 L 138.072 103.059 139.433 99.822 C 140.588 97.075, 141.562 96.412, 145.873 95.441 C 161.682 91.881, 167.441 78.388, 161.906 57.876 L 159.812 50.116 162.910 40.949 C 164.614 35.907, 166.289 29.393, 166.632 26.473 C 167.197 21.671, 167.010 20.919, 164.673 18.583 C 161.967 15.876, 161.091 15.688, 156.994 16.934 M 152.152 22.082 L 145.984 25.164 148.551 29.332 C 149.962 31.624, 152.537 36.313, 154.273 39.750 C 156.009 43.188, 157.717 46, 158.069 46 C 158.973 46, 163.201 31.394, 163.778 26.280 C 164.297 21.672, 162.924 19, 160.037 19 C 159.092 19, 155.544 20.387, 152.152 22.082 M 37.336 30.040 C 30.951 30.889, 26.258 32.779, 24.112 35.365 C 22.418 37.406, 22.482 41.019, 24.384 50.860 C 26.578 62.213, 26.424 78.244, 23.866 104.552 C 21.096 133.049, 20.841 157.373, 23.232 165.092 C 27.278 178.154, 35.772 182.003, 49.821 177.141 C 53.170 175.982, 59.193 174.548, 63.205 173.955 C 67.217 173.361, 72.075 172.619, 74 172.305 L 77.500 171.734 72.500 170.528 C 61.285 167.823, 53.233 161.991, 49.677 154 C 47.815 149.814, 47.649 146.877, 47.295 111.905 C 46.887 71.450, 47.657 61.070, 51.895 49.921 C 55.371 40.776, 64.385 32.161, 70.710 31.937 C 72.274 31.881, 72.247 31.773, 70.500 31.080 C 67.400 29.851, 44.221 29.123, 37.336 30.040 M 139.274 32.008 C 136.399 33.028, 132.379 35.131, 130.340 36.681 L 126.633 39.500 133.988 40 C 138.433 40.302, 141.499 40.976, 141.739 41.702 C 142.168 43.005, 135.741 45.094, 125.122 47.104 L 118.744 48.311 124.734 50.479 C 132.736 53.377, 139.469 57.423, 145.185 62.769 L 149.898 67.179 151.464 63.431 C 152.325 61.370, 153.811 57.476, 154.765 54.777 L 156.500 49.870 151.500 40.257 C 148.750 34.969, 146.050 30.533, 145.500 30.399 C 144.950 30.264, 142.148 30.989, 139.274 32.008 M 107 36.460 C 118.576 40.771, 121.415 40.846, 125.962 36.959 L 129.424 34 117.462 33.989 C 110.883 33.983, 103.700 33.740, 101.500 33.450 C 98.651 33.074, 100.233 33.940, 107 36.460 M 68 35.537 C 60.401 38.943, 55.592 45.546, 52.327 57.060 C 50.684 62.850, 50.500 67.893, 50.500 107 L 50.500 150.500 53.192 155.078 C 61.430 169.092, 84.260 172.908, 123.431 166.818 L 131.010 165.640 129.053 163.556 C 126.726 161.080, 124 154.875, 124 152.058 C 124 150.865, 122.848 149.456, 121.160 148.583 C 119.598 147.775, 117.235 145.971, 115.910 144.574 C 111.794 140.237, 105.151 141.733, 100.709 147.997 C 91.801 160.560, 77.024 166.094, 66.279 160.893 C 57.684 156.732, 54.232 146.052, 58.971 138.280 C 60.980 134.985, 67.702 129.547, 71.100 128.468 C 72.743 127.947, 72.329 127.217, 67.998 122.998 C 62.849 117.983, 61.875 115.178, 64.521 112.983 C 66.764 111.121, 80.412 112.268, 93 115.376 C 98.775 116.803, 109.228 118.782, 116.230 119.776 L 128.960 121.582 131.411 114.291 C 132.759 110.281, 133.515 107, 133.091 107 C 132.666 107, 127.859 107.950, 122.409 109.111 C 109.379 111.886, 97.955 111.961, 91.983 109.310 C 87.419 107.285, 80 100.076, 80 97.667 C 80 96.936, 78.049 94.938, 75.665 93.226 C 70.020 89.172, 63.912 81.175, 59.879 72.554 C 55.503 63.205, 54.649 51.922, 57.915 46.637 C 61.885 40.214, 72.925 38.275, 83.826 42.086 C 88.938 43.873, 86.296 45.564, 80.622 44.135 C 73.740 42.402, 66.965 42.724, 63.301 44.958 C 56.772 48.939, 56.823 60.068, 63.431 73.500 C 66.562 79.865, 76.250 92.207, 77.167 91 C 77.376 90.725, 77.390 87.301, 77.197 83.392 L 76.847 76.284 71.423 75.070 C 68.440 74.403, 65.275 73.132, 64.389 72.246 C 62.908 70.765, 62.908 70.540, 64.393 69.455 C 66.739 67.739, 81.609 66.773, 93.460 67.567 L 103.721 68.254 104.242 60.877 C 104.528 56.820, 105.057 52.795, 105.418 51.934 C 106.003 50.534, 104.663 50.564, 92.786 52.217 C 78.703 54.177, 75.886 54.198, 75.277 52.347 C 74.342 49.505, 92.753 45.927, 107.274 46.129 C 116.840 46.262, 120.469 45.526, 117.943 43.965 C 117.244 43.532, 115.283 43.346, 113.586 43.549 C 102.520 44.878, 100 44.877, 100 43.547 C 100 42.670, 101.864 41.918, 105.250 41.429 L 110.500 40.671 101.500 37.675 C 90.354 33.964, 73.858 32.911, 68 35.537 M 121.461 44.064 C 121.013 44.788, 122.031 44.905, 124.652 44.431 C 129.758 43.507, 130.139 43, 125.726 43 C 123.741 43, 121.822 43.479, 121.461 44.064 M 109.322 58.750 C 108.772 63.563, 108.385 67.599, 108.463 67.719 C 108.967 68.497, 147 68.878, 147 68.105 C 147 66.600, 134.976 57.930, 129.161 55.241 C 123.757 52.742, 114.823 50.034, 111.911 50.012 C 110.655 50.002, 110.113 51.832, 109.322 58.750 M 154.872 62.250 C 153.567 65.688, 152.500 70.525, 152.500 73 C 152.500 76.793, 152.174 77.547, 150.425 77.797 C 148.888 78.016, 147.542 80.028, 145.238 85.547 C 142.305 92.573, 142.240 93, 144.096 93 C 146.727 93, 152.970 90.337, 155.320 88.212 C 159.124 84.772, 161 79.411, 161 71.983 C 161 64.723, 159.364 56, 158.003 56 C 157.586 56, 156.176 58.813, 154.872 62.250 M 70.500 70.951 C 68.834 71.625, 69.169 71.887, 72.500 72.512 C 77.940 73.534, 80.265 74.868, 79.604 76.590 C 78.715 78.906, 80.882 93.307, 82.250 94.175 C 82.937 94.612, 85.482 94.976, 87.905 94.985 C 91.742 94.998, 92.793 94.492, 96.062 91.055 C 99.471 87.472, 102.692 80.790, 104.350 73.864 C 104.867 71.705, 104.576 71.120, 102.740 70.628 C 99.432 69.741, 72.828 70.008, 70.500 70.951 M 110.591 75.989 C 115.174 84.410, 124.752 90.977, 134.791 92.583 L 138.997 93.255 141.471 87.661 C 145.801 77.871, 145.806 77.896, 138.735 74.546 C 133.115 71.883, 131.280 71.551, 120.120 71.171 L 107.739 70.750 110.591 75.989 M 142 73.500 C 145.259 75.363, 147 75.363, 147 73.500 C 147 72.427, 145.932 72.010, 143.250 72.035 L 139.500 72.071 142 73.500 M 105.120 80.459 C 101.881 91.429, 94.777 98.317, 87.250 97.786 C 84.912 97.621, 83 97.811, 83 98.209 C 83 98.608, 84.578 100.512, 86.508 102.441 C 93.621 109.554, 104.072 110.424, 125.451 105.682 C 135.257 103.507, 135.305 103.481, 136.578 99.805 L 137.857 96.112 132.678 95.036 C 129.830 94.444, 125.155 92.620, 122.289 90.982 C 116.762 87.824, 109.393 80.812, 108.438 77.804 C 107.517 74.901, 106.527 75.693, 105.120 80.459 M 138.830 105.674 C 137.193 106.107, 131.178 120.512, 132.206 121.539 C 132.476 121.809, 135.353 122.720, 138.599 123.562 C 141.844 124.404, 145.175 125.775, 146 126.608 C 147.334 127.955, 147.282 128.284, 145.531 129.582 C 144.448 130.384, 141.748 131.512, 139.531 132.088 C 137.314 132.664, 133.813 133.572, 131.750 134.106 C 126.576 135.446, 126.947 137.171, 132.250 136.430 C 155.356 133.201, 164.973 130.497, 167.597 126.492 C 168.976 124.388, 168.974 123.850, 167.581 121.156 C 165.875 117.857, 160.172 112.907, 152.554 108.113 C 147.833 105.141, 143.651 104.398, 138.830 105.674 M 67.750 114.701 C 66.787 114.946, 66 115.736, 66 116.457 C 66 117.790, 71.131 122.791, 76.422 126.614 L 79.343 128.725 74.080 130.473 C 64.517 133.650, 58.097 141.559, 59.568 148.354 C 61.813 158.728, 73.020 163.181, 84.312 158.186 C 89.376 155.946, 98.577 147.907, 99.537 144.884 C 100.280 142.544, 104.264 140.395, 109.535 139.492 C 111.716 139.119, 114.625 138.025, 116 137.062 C 117.375 136.098, 120.138 134.718, 122.140 133.994 C 125.021 132.952, 126.011 131.906, 126.890 128.973 C 127.500 126.935, 128 125.025, 128 124.728 C 128 124.034, 118.966 122.720, 112.500 122.474 C 109.750 122.369, 101.425 120.699, 94 118.764 C 80.707 115.298, 71.186 113.825, 67.750 114.701 M 130.697 125.750 C 130.466 126.162, 129.972 127.773, 129.599 129.330 C 129.024 131.733, 129.192 132.081, 130.711 131.639 C 131.695 131.353, 134.525 130.597, 137 129.958 C 143.715 128.226, 143.912 127.738, 138.467 126.326 C 132.684 124.827, 131.274 124.722, 130.697 125.750 M 122 137 C 121.175 137.533, 120.950 137.969, 121.500 137.969 C 122.050 137.969, 123.175 137.533, 124 137 C 124.825 136.467, 125.050 136.031, 124.500 136.031 C 123.950 136.031, 122.825 136.467, 122 137 M 119.192 140.713 C 116.244 141.277, 116.706 142.578, 120.767 145.149 L 124 147.196 124 143.598 C 124 139.931, 123.827 139.828, 119.192 140.713 M 127 153.550 C 127 155.997, 129.778 160.731, 132.217 162.439 C 134.982 164.376, 138.530 164.310, 147.497 162.155 L 154.493 160.473 141.381 156.236 C 134.169 153.906, 127.983 152, 127.634 152 C 127.285 152, 127 152.697, 127 153.550 M 167.450 160.903 C 165.090 163.147, 149.096 167.260, 141.500 167.576 C 137.100 167.760, 127.875 168.765, 121 169.810 L 108.500 171.711 117.223 172.471 C 129.103 173.507, 158.653 172.579, 163 171.033 C 167.418 169.462, 171 165.616, 171 162.444 C 171 159.990, 169.222 159.218, 167.450 160.903" stroke="none" fill="black" fill-rule="evenodd"/>
</svg>