<svg xmlns="http://www.w3.org/2000/svg" width="200" height="200" viewBox="0 0 200 200" version="1.1">
	<path d="M 149.189 19.250 C 146.962 25.234, 141 43.713, 141 44.634 C 141 44.970, 141.675 44.685, 142.500 44 C 144.480 42.357, 144.420 44.077, 142.139 54.415 L 140.392 62.330 138.230 58.665 C 136.113 55.078, 132.860 53.799, 131.490 56.016 C 130.374 57.821, 129 55.971, 129 52.663 C 129 50.893, 128.266 48.397, 127.369 47.117 C 125.515 44.470, 120.284 42, 116.532 42 C 111.321 42, 114.604 37.836, 121.591 35.585 C 131.366 32.436, 133.771 27.454, 127.148 24.075 C 121.241 21.062, 111.085 19.699, 98.641 20.249 C 85.992 20.808, 80.553 22.339, 77.740 26.130 C 75.121 29.660, 76.103 32.429, 81.859 37.750 L 86.456 42 81.978 41.998 C 77.799 41.997, 77.321 41.713, 74.816 37.748 C 70.175 30.402, 66.516 27.554, 61.953 27.736 C 59.755 27.824, 56.109 27.244, 53.852 26.448 C 48.359 24.510, 36.513 24.606, 30.553 26.637 C 27.871 27.550, 23.861 30.090, 21.473 32.387 C 16.234 37.425, 14.497 42.916, 15.429 51.500 C 17.134 67.215, 17.214 73.336, 16.055 99.459 C 14.352 137.845, 15.884 148.382, 23.639 151.622 C 26.474 152.807, 27.556 152.788, 31.398 151.483 C 35.450 150.107, 36.184 150.120, 39.326 151.618 C 43.805 153.754, 46.968 152.927, 52.118 148.274 C 57.400 143.503, 63.527 132.932, 70.607 116.377 C 73.792 108.932, 76.737 103.337, 77.292 103.680 C 77.908 104.061, 78.064 108.318, 77.704 114.897 C 77.032 127.189, 74.337 137.431, 66.947 155.785 C 64.226 162.542, 62 169.180, 62 170.535 C 62 174.733, 66.011 173.565, 75.844 166.504 L 84.891 160.009 92.434 165.421 C 105.898 175.081, 120.759 181, 136.969 183.158 C 152.800 185.265, 166.824 181.254, 175.130 172.243 C 179.368 167.645, 183.506 159.722, 184.646 154.020 C 185.252 150.991, 185.131 150.743, 183.409 151.468 C 175.515 154.792, 164.225 158.048, 157.500 158.940 C 141.204 161.103, 127.044 155.682, 128.187 147.719 C 128.951 142.403, 139.934 143.191, 152.500 149.463 L 159.500 152.957 161.787 150.229 C 163.045 148.728, 165.970 143.709, 168.287 139.075 C 172.359 130.932, 172.500 130.331, 172.496 121.075 C 172.492 112.652, 172.160 110.823, 169.732 105.874 C 168.214 102.779, 164.711 98.133, 161.948 95.548 L 156.925 90.850 160.125 87.205 C 166.318 80.152, 171.006 66.563, 170.994 55.701 C 170.986 48.148, 169.256 43.056, 165.381 39.181 C 162.078 35.878, 161.762 35.782, 155.484 36.182 C 151.355 36.445, 149.015 36.214, 149.041 35.547 C 149.063 34.971, 150.135 30.225, 151.423 25 C 152.710 19.775, 153.565 15.162, 153.323 14.750 C 152.277 12.970, 151.017 14.341, 149.189 19.250 M 85.603 24.477 C 77.187 27.476, 77.218 31.207, 85.711 37.437 C 90.442 40.908, 90.624 40.951, 100.724 40.975 L 110.949 41 112.439 38.117 C 113.276 36.498, 115.090 34.943, 116.575 34.570 C 121.254 33.396, 128 29.818, 128 28.511 C 128 27.057, 124.486 25.489, 118 24.048 C 111.245 22.548, 90.235 22.826, 85.603 24.477 M 35.326 27.997 C 29.520 29.211, 25.815 31.308, 22.198 35.428 C 18.038 40.166, 17.465 44.245, 18.960 58.497 C 19.978 68.205, 19.980 75.485, 18.969 95.831 C 17.493 125.521, 17.970 137.883, 20.842 144.376 C 23.343 150.030, 26.064 150.950, 32.224 148.225 C 36.520 146.325, 36.680 146.323, 38.923 148.139 C 43.821 152.105, 49.225 149.408, 55.619 139.808 C 60.038 133.173, 62.786 127.617, 71.005 108.698 C 73.347 103.307, 76.060 97.912, 77.034 96.709 C 78.797 94.532, 78.810 94.545, 79.653 99.511 C 82.357 115.435, 79.456 131.915, 69.649 156.352 C 66.406 164.434, 64.654 170, 65.355 170 C 66.005 170, 70.731 166.850, 75.858 163.001 L 85.179 156.001 90.202 160.396 C 96.855 166.215, 112.332 174.209, 123.500 177.595 C 131.026 179.876, 134.465 180.338, 144.500 180.412 C 155.714 180.494, 156.909 180.311, 162.747 177.615 C 166.408 175.924, 170.654 172.929, 173.002 170.382 C 177.100 165.936, 181.833 157.500, 180.805 156.472 C 180.491 156.157, 177.593 156.783, 174.367 157.863 C 159.697 162.772, 142.368 163.361, 134.376 159.223 C 126.180 154.980, 122.839 148.161, 126.944 144.056 C 131.177 139.823, 139.997 140.573, 152.274 146.208 C 160.269 149.879, 159.834 150.143, 165.801 138 C 168.870 131.753, 169.546 129.216, 169.846 122.818 C 170.349 112.067, 168.305 106.442, 161.115 98.793 L 155.452 92.767 150.530 94.438 C 147.415 95.496, 144.262 95.882, 141.942 95.490 C 138.444 94.899, 138.247 95.017, 137.638 98.060 C 136.630 103.101, 136.906 123.122, 138.040 127.205 C 138.606 129.242, 140.087 131.717, 141.331 132.705 C 145.507 136.018, 145.463 137, 141.136 137 C 129.394 137, 123.148 119.511, 124.352 90 C 124.678 82.025, 125.584 72.865, 126.365 69.645 C 128.055 62.683, 126.979 50.739, 124.406 47.896 C 122.291 45.559, 113.818 43.679, 112.797 45.321 C 109.569 50.516, 107.773 74.999, 108.566 103 C 109.248 127.074, 108.292 143.502, 105.625 153.500 L 104.291 158.500 103.040 154 C 100.450 144.686, 99.023 135.978, 97.466 119.983 C 94.746 92.031, 92.085 83.719, 84.195 78.522 C 79.820 75.640, 70.303 73, 64.290 73 C 61.930 73, 60 72.705, 60 72.344 C 60 71.984, 61.142 70.191, 62.538 68.361 C 66.630 62.996, 69.980 54.856, 69.990 50.250 C 70 46.002, 69.998 46, 66.250 46.009 C 64.188 46.013, 60.194 46.294, 57.375 46.633 L 52.251 47.249 49.412 59.624 C 47.763 66.811, 46.081 72, 45.400 72 C 43.799 72, 43.171 77.611, 42.601 97 C 42.090 114.394, 43.150 112.251, 44.716 92.723 C 45.645 81.141, 47.632 79.782, 47.235 91 C 46.823 102.616, 44.899 120.301, 43.827 122.315 C 43.019 123.832, 42.605 123.917, 41.300 122.834 C 38.248 120.301, 40.752 62.789, 44.577 47.550 C 45.039 45.710, 45.880 45, 47.598 45 C 49.555 45, 50.552 43.796, 53.188 38.250 C 54.952 34.538, 56.561 31.188, 56.762 30.806 C 57.807 28.831, 41.538 26.699, 35.326 27.997 M 66.759 34.354 C 68.967 36.749, 71.079 39.674, 71.454 40.854 C 72.096 42.879, 74 43.902, 74 42.223 C 74 40.153, 65.424 30, 63.676 30 C 63.164 30, 64.551 31.959, 66.759 34.354 M 57.149 35.750 C 56.108 37.813, 54.928 40.563, 54.525 41.862 L 53.794 44.224 61.147 43.500 C 65.191 43.102, 68.673 42.615, 68.885 42.419 C 70.014 41.375, 61.907 32.141, 59.770 32.036 C 59.369 32.016, 58.189 33.688, 57.149 35.750 M 152.376 39.050 C 150.657 39.568, 148.807 40.556, 148.264 41.246 C 147.721 41.936, 146.052 48.464, 144.556 55.753 C 142.217 67.149, 141.987 69.714, 142.918 74.053 C 143.513 76.828, 144 80.046, 144 81.204 C 144 83.214, 143.913 83.231, 142.088 81.580 C 140.272 79.936, 140.158 79.941, 139.815 81.675 C 139.526 83.136, 140.942 84.048, 146.922 86.250 L 154.390 89.001 157.076 86.428 C 168.106 75.859, 171.867 48.364, 163.322 40.762 C 160.830 38.544, 156.367 37.847, 152.376 39.050 M 82.311 44.719 L 79.121 45.118 82.120 50.203 C 88.526 61.067, 91.550 63.846, 94.975 62.013 C 96.885 60.991, 101.002 53.419, 100.998 50.934 C 100.995 49.060, 91.185 43.954, 87.984 44.160 C 86.618 44.248, 84.065 44.500, 82.311 44.719 M 100.754 46.261 C 105.547 48.669, 105.558 48.883, 101.338 57.767 C 98.164 64.450, 94.669 66.569, 90.413 64.391 C 86.861 62.573, 85.110 60.462, 79.927 51.750 C 77.719 48.038, 75.319 45, 74.595 45 C 73.714 45, 73.100 46.965, 72.739 50.937 C 72.368 55.035, 71.126 58.898, 68.727 63.415 L 65.254 69.957 68.877 70.560 C 83.654 73.021, 90.850 78.006, 94.905 88.595 C 97.360 95.006, 98.637 102.291, 99.971 117.500 C 101.357 133.296, 103.146 145, 104.173 145 C 104.628 145, 105.055 144.887, 105.123 144.750 C 105.191 144.613, 105.591 124.700, 106.013 100.500 C 106.713 60.301, 107.132 53.910, 109.605 45.750 C 110.075 44.199, 109.361 44.007, 103.317 44.062 L 96.500 44.124 100.754 46.261 M 47.664 47.735 C 46.801 49.131, 44.770 61.811, 45.202 63.107 C 45.419 63.758, 46.394 60.582, 47.368 56.048 C 48.975 48.569, 49.087 45.432, 47.664 47.735 M 132.068 59.873 C 131.480 60.971, 131 62.731, 131 63.784 C 131 66.284, 136.781 74.253, 138.034 73.479 C 139.474 72.589, 139.109 68.068, 137.196 63.083 C 135.257 58.032, 133.606 56.999, 132.068 59.873 M 44.079 67.583 C 44.127 68.748, 44.364 68.985, 44.683 68.188 C 44.972 67.466, 44.936 66.603, 44.604 66.271 C 44.272 65.939, 44.036 66.529, 44.079 67.583 M 128.543 73.233 C 128.186 76.130, 127.657 79.737, 127.368 81.250 C 126.849 83.958, 126.918 84, 131.921 84 L 137 84 137 80.559 C 137 78.666, 136.520 76.822, 135.934 76.459 C 135.348 76.097, 133.591 74.037, 132.030 71.883 L 129.192 67.966 128.543 73.233 M 132.500 88 C 133.495 89.100, 134.690 90, 135.155 90 C 135.620 90, 136 89.100, 136 88 C 136 86.502, 135.333 86, 133.345 86 C 130.753 86, 130.733 86.048, 132.500 88 M 127.262 100.528 C 127.833 115.502, 129.542 123.784, 133.235 129.469 C 136.227 134.075, 138.641 135.075, 136.262 130.723 C 134.774 128.002, 134.500 124.845, 134.500 110.439 L 134.500 93.378 130.615 89.967 L 126.729 86.555 127.262 100.528 M 139 87.839 C 139 88.387, 138.737 89.521, 138.416 90.357 C 137.644 92.369, 143.925 93.608, 148.320 92.311 L 151.500 91.372 148.500 89.806 C 144.472 87.704, 139 86.571, 139 87.839" stroke="none" fill="black" fill-rule="evenodd"/>
</svg>