<svg xmlns="http://www.w3.org/2000/svg" width="200" height="200" viewBox="0 0 200 200" version="1.1">
	<path d="M 119.832 14.502 C 119.336 14.998, 112.694 16.007, 83.500 20.022 C 53.560 24.140, 49.845 25.159, 35.660 33.148 C 31.899 35.267, 27.467 37, 25.812 37 C 21.986 37, 17.505 41.611, 15.764 47.341 C 14.429 51.735, 14.226 73.317, 15.062 122.048 L 15.500 147.596 19.815 144.307 C 25.066 140.304, 31.765 138.337, 43 137.498 C 53.608 136.706, 56.976 135.678, 60.282 132.227 C 64.900 127.406, 66.247 122.553, 66.731 109 C 67.088 98.985, 67.689 95.009, 69.752 89 C 71.702 83.322, 72.349 79.376, 72.414 72.756 C 72.461 67.947, 72.664 64.010, 72.864 64.006 C 73.386 63.997, 88 73.151, 88 73.487 C 88 77.222, 80.398 125.569, 79.012 130.649 C 77.491 136.225, 77 141.724, 76.781 155.649 C 76.626 165.467, 76.868 174.512, 77.317 175.750 C 79.099 180.654, 83.287 177.508, 91.814 164.863 C 96.762 157.525, 104.860 149.167, 109.883 146.214 C 112.751 144.528, 116.554 143.311, 119.921 143 C 122.978 142.718, 125.522 141.955, 125.755 141.250 C 126.058 140.328, 124.293 140, 119.034 140 C 114.856 140, 110.782 139.418, 109.200 138.595 C 97.474 132.494, 95.370 113.683, 105.744 107.695 C 110.179 105.136, 115.357 106.139, 122.909 111.020 C 131.834 116.788, 132.501 118.245, 132.493 131.956 C 132.483 148.222, 129.407 156.701, 118.044 171.781 C 114.720 176.193, 112 180.297, 112 180.901 C 112 183.392, 115.985 182.657, 133.533 176.932 L 148.567 172.028 153.794 174.014 C 159.224 176.077, 164.582 176.552, 166.768 175.164 C 169.019 173.736, 169.786 168.519, 168.937 160.414 C 166.282 135.072, 169.318 119.315, 179.298 106.644 C 182.203 102.956, 182.267 102.674, 180.763 100.144 C 176.917 93.675, 163.960 89.150, 153.150 90.500 C 148.330 91.103, 147.790 90.991, 148.359 89.508 C 148.711 88.589, 149 86.532, 149 84.937 C 149 82.602, 149.535 81.909, 151.750 81.376 C 168.687 77.298, 183.186 54.858, 179.953 37.728 C 179.410 34.853, 177.720 30.475, 176.196 28 C 173.337 23.356, 164.515 16.558, 159.956 15.485 L 157.411 14.886 152.464 46.025 C 149.743 63.152, 147.224 77.638, 146.866 78.217 C 145.860 79.844, 140.044 77.435, 136.364 73.868 L 133.193 70.794 139.369 64.647 C 147.383 56.669, 151.159 48.987, 151.783 39.387 C 152.333 30.929, 150.996 26.203, 146.653 21.257 C 142.067 16.034, 136.924 14.048, 127.917 14.022 C 123.746 14.010, 120.108 14.226, 119.832 14.502 M 124.205 16.743 L 120.910 17.133 123.900 20.539 C 127.746 24.919, 128.988 29.563, 128.994 39.590 C 129.005 54.968, 122.956 71.277, 114.010 79.990 L 109.205 84.670 116.811 90.182 C 124.031 95.415, 124.612 95.650, 128.293 94.823 C 130.637 94.296, 133.160 92.775, 134.674 90.976 C 137.561 87.545, 142.291 86.910, 143.875 89.742 C 145.157 92.032, 145.614 91.367, 146.266 86.262 L 146.806 82.025 142.653 80.919 C 139.813 80.163, 136.943 78.206, 133.575 74.729 L 128.650 69.644 131.075 68.072 C 137.069 64.186, 142.246 58.281, 145.589 51.517 C 150.171 42.247, 150.594 33.573, 146.823 26.245 C 143.233 19.269, 134.356 15.539, 124.205 16.743 M 108.903 22.250 C 105.409 26.056, 100.996 33.283, 101.009 35.178 C 101.014 35.905, 102.125 38.750, 103.478 41.500 C 106.073 46.776, 106.700 51.449, 104.956 52.527 C 103.442 53.463, 100.911 51.025, 99.218 47 L 97.746 43.500 96.784 46 C 95.226 50.044, 90.925 71.070, 91.474 71.958 C 91.750 72.405, 95.075 74.889, 98.863 77.476 C 105.635 82.103, 105.798 82.156, 108.755 80.627 C 121.610 73.979, 131.138 40.217, 124.199 25.904 C 120.532 18.340, 113.939 16.765, 108.903 22.250 M 159.510 20.250 C 158.731 22.533, 150.075 78.408, 150.444 78.777 C 150.643 78.976, 153.078 78.162, 155.855 76.967 C 162.508 74.105, 170.248 65.823, 174.274 57.259 C 176.974 51.513, 177.446 49.376, 177.423 43 C 177.384 32.527, 173.861 26.306, 164.785 20.682 C 161.551 18.678, 160.088 18.558, 159.510 20.250 M 95.500 21.088 C 92.200 21.552, 87.956 22.208, 86.069 22.545 L 82.638 23.159 86.634 24.948 C 88.832 25.932, 92.304 28.206, 94.349 30.002 C 96.394 31.797, 98.199 33.094, 98.360 32.883 C 98.521 32.672, 99.704 30.700, 100.988 28.500 C 102.273 26.300, 104.229 23.488, 105.336 22.250 L 107.349 20 104.424 20.122 C 102.816 20.189, 98.800 20.624, 95.500 21.088 M 65.633 26.058 C 60.007 27.454, 55 30.031, 55 31.532 C 55 35.543, 55.913 35.909, 64.426 35.308 C 70.138 34.905, 75.884 35.269, 83.090 36.491 C 96.341 38.738, 96.203 38.730, 96.721 37.265 C 97.313 35.586, 91.495 30.425, 86 27.756 C 80.949 25.303, 71.764 24.537, 65.633 26.058 M 40.832 33.713 C 34.599 36.855, 28.168 39.507, 26.540 39.606 C 17.202 40.177, 14.855 55.250, 17.411 98.238 C 18.285 112.944, 19 128.557, 19 132.933 L 19 140.889 24.408 138.414 C 28.393 136.589, 32.767 135.679, 41.040 134.953 C 54.925 133.735, 58.184 132.311, 61.176 126.157 C 63.061 122.279, 63.547 119.157, 64.082 107.500 C 64.592 96.367, 65.180 92.374, 66.955 88 C 69.367 82.058, 70.681 70.441, 69.595 64.657 C 68.962 61.282, 68.310 60.758, 58.870 56.032 C 53.342 53.264, 48.244 51, 47.540 51 C 45.670 51, 45.023 56.675, 45.011 73.181 C 45.001 86.361, 45.269 88.678, 47.630 95.845 C 50.499 104.552, 50.313 108.227, 46.910 110.048 C 42.555 112.379, 41.821 110.801, 42.561 100.711 C 43.239 91.482, 43.212 91.326, 39.235 81.453 C 30.510 59.789, 29.281 52.628, 33.554 48.355 C 35.659 46.250, 36.838 45.870, 40.249 46.195 C 44.104 46.563, 44.714 46.252, 49.121 41.681 C 53.409 37.231, 53.748 36.541, 52.732 34.312 C 51.890 32.464, 51.911 31.373, 52.814 29.926 C 53.476 28.867, 53.600 28, 53.090 28 C 52.580 28, 47.064 30.571, 40.832 33.713 M 60 38.868 C 60 39.345, 61.989 42.702, 64.421 46.328 C 66.852 49.954, 69.392 54.441, 70.064 56.300 C 71.015 58.931, 73.058 60.765, 79.294 64.589 C 83.698 67.290, 87.610 69.625, 87.986 69.778 C 88.362 69.931, 89.254 66.781, 89.969 62.778 C 90.684 58.775, 92.081 52.575, 93.074 49 C 94.068 45.425, 94.570 42.196, 94.190 41.824 C 91.628 39.313, 60 36.578, 60 38.868 M 51.034 43.120 C 49.318 44.836, 48.045 46.622, 48.207 47.089 C 48.539 48.051, 67 57.214, 67 56.417 C 67 53.826, 57.200 40, 55.363 40 C 54.698 40, 52.750 41.404, 51.034 43.120 M 100.031 41.500 C 100.031 42.050, 100.467 43.175, 101 44 C 101.533 44.825, 101.969 45.050, 101.969 44.500 C 101.969 43.950, 101.533 42.825, 101 42 C 100.467 41.175, 100.031 40.950, 100.031 41.500 M 35.026 50.468 C 33.043 52.858, 34.331 61.171, 38.281 71.487 L 41.723 80.474 42.304 66.987 C 42.624 59.569, 43.023 52.600, 43.193 51.500 C 43.445 49.857, 42.859 49.446, 39.914 49.199 C 37.579 49.004, 35.875 49.446, 35.026 50.468 M 87.193 99.250 C 85.410 112.037, 83.072 125.875, 81.998 130 C 79.714 138.769, 78.137 171.452, 79.876 173.971 C 80.434 174.780, 81.081 175.230, 81.313 174.971 C 81.545 174.712, 84.593 170.450, 88.087 165.500 C 96.055 154.208, 101.306 148.439, 106.810 144.924 C 110.647 142.474, 110.893 142.101, 109.054 141.517 C 105.697 140.452, 101.055 136.028, 98.937 131.877 C 94.569 123.315, 95.622 113.178, 101.490 107.310 C 104.421 104.379, 105.413 104.003, 110.150 104.022 C 116.491 104.048, 121.588 106.189, 128.636 111.787 C 133.461 115.619, 133.839 116.253, 134.886 122.265 C 136.363 130.750, 136.268 136.070, 134.489 144.471 C 132.575 153.504, 127.627 163.795, 121.131 172.250 C 118.278 175.962, 116.519 178.991, 117.222 178.980 C 117.925 178.969, 125.395 176.749, 133.822 174.047 L 149.143 169.132 153.362 170.941 C 164.622 175.768, 167.626 174.321, 166.616 164.557 C 163.449 133.959, 165.561 121.186, 176.244 106.309 L 179.498 101.779 175.999 98.856 C 170.305 94.098, 157.914 91.576, 150.283 93.622 C 147.430 94.386, 147.345 94.728, 145.590 112.528 C 144.086 127.772, 143.451 131, 141.952 131 C 140.299 131, 140.243 129.343, 141.562 119.500 C 143.400 105.797, 143.427 95, 141.625 95 C 136.409 95, 133.660 96.482, 131.142 100.650 C 128.630 104.808, 126.205 105.988, 126.763 102.780 C 127.335 99.495, 124.501 98.747, 115.780 99.880 C 103.104 101.527, 97.422 99.511, 94.362 92.282 C 93.154 89.429, 92.399 80, 93.378 80 C 93.586 80, 95.386 80.681, 97.378 81.513 C 99.370 82.346, 101 82.817, 101 82.561 C 101 81.883, 92.292 76, 91.287 76 C 90.819 76, 88.976 86.463, 87.193 99.250 M 96 87.288 C 96 92.933, 99.189 96.481, 105.196 97.519 C 109.159 98.204, 120.021 97.186, 119.968 96.135 C 119.951 95.786, 116.688 93.250, 112.718 90.500 C 107.316 86.758, 104.305 85.367, 100.750 84.972 C 96.073 84.453, 96 84.488, 96 87.288 M 137.872 91.687 C 136.664 93.172, 136.719 93.292, 138.332 92.687 C 139.339 92.309, 140.603 92, 141.141 92 C 141.678 92, 141.840 91.550, 141.500 91 C 140.602 89.547, 139.433 89.769, 137.872 91.687 M 45.070 102.809 C 45.027 106.110, 45.378 107.884, 46 107.500 C 47.198 106.760, 47.198 102.287, 46 99.500 C 45.370 98.035, 45.122 98.920, 45.070 102.809" stroke="none" fill="black" fill-rule="evenodd"/>
</svg>