<svg xmlns="http://www.w3.org/2000/svg" width="200" height="200" viewBox="0 0 200 200" version="1.1">
	<path d="M 35.319 25.101 C 31.157 26.305, 25.481 33.024, 24.161 38.309 C 22.109 46.520, 21.771 57.961, 22.943 79.579 C 23.963 98.392, 23.902 104.194, 22.515 120.500 C 20.599 143.016, 20.347 161.913, 21.886 167.599 C 23.299 172.819, 26.858 178.116, 30.030 179.721 C 32.976 181.211, 40.402 181.390, 42.940 180.032 C 43.935 179.500, 48.743 177.889, 53.624 176.452 C 64.298 173.312, 70.142 173.003, 124.500 172.710 C 165.658 172.488, 171.564 171.918, 176.054 167.735 C 177.896 166.019, 177.967 165.579, 176.712 163.656 C 175.938 162.470, 171.152 158.125, 166.076 154 C 156.495 146.213, 151.129 139.565, 150.820 135.100 C 150.252 126.884, 152.157 121.680, 159.096 112.490 C 164.425 105.432, 166 101.111, 166 93.555 C 166 86.191, 163.296 77.931, 157.485 67.539 L 153.897 61.124 156.386 57.180 C 160.564 50.562, 168.979 33.356, 169.630 30.100 C 170.091 27.797, 169.837 26.875, 168.614 26.405 C 166.451 25.575, 164.143 27.215, 153.770 36.950 C 148.969 41.456, 144.647 44.900, 144.166 44.603 C 143.686 44.306, 142.777 45.195, 142.146 46.578 C 140.656 49.849, 140.682 49.998, 142.750 50.012 C 143.842 50.019, 145.689 52.189, 147.663 55.784 L 150.826 61.545 144.821 71.523 C 141.518 77.010, 134.307 88.777, 128.797 97.672 L 118.778 113.844 92.563 134.422 C 64.019 156.829, 61.450 159.125, 62.338 161.439 C 62.838 162.740, 64.909 162.273, 75.715 158.423 C 82.747 155.917, 92.325 152.844, 97 151.595 C 104.845 149.498, 106.066 149.420, 112.842 150.582 C 127.866 153.157, 143.204 160.111, 140.330 163.045 C 137.640 165.792, 120.940 166.759, 105 165.092 C 98.133 164.373, 97.078 164.518, 92.500 166.808 C 88.533 168.793, 85.537 169.402, 78 169.755 C 69.263 170.164, 68.222 170.011, 65.042 167.839 C 59.721 164.204, 55.230 157.569, 52.899 149.894 C 51.154 144.148, 50.850 141.038, 51.173 132.211 C 51.630 119.698, 54.263 112.553, 60.802 106.079 L 64.675 102.245 72.032 104.643 C 82.116 107.931, 97.711 111.005, 104.157 110.976 C 114.740 110.929, 120.339 108.491, 124.750 102.010 C 129.594 94.893, 126.767 78.575, 117.733 61.500 L 113.500 53.500 108.500 53.232 C 101.527 52.859, 76.695 50.028, 76.218 49.552 C 76.003 49.336, 77.038 48.366, 78.520 47.395 C 80.352 46.195, 83.818 45.500, 89.357 45.224 C 96.949 44.845, 100.852 45.406, 120.652 49.726 C 122.199 50.064, 122.990 49.606, 123.469 48.098 C 125.291 42.357, 119.279 38.317, 107.186 37.157 L 99.500 36.420 110.500 35.678 C 133.912 34.097, 136 33.813, 136 32.205 C 136 30.865, 132.480 30.768, 106.064 31.383 C 79.819 31.994, 75.657 31.883, 72.314 30.479 C 60.095 25.349, 43.033 22.869, 35.319 25.101 M 35.418 27.903 C 32.455 29.196, 28.398 34.310, 26.836 38.725 C 25.467 42.594, 25.172 60.487, 25.893 96 C 26.077 105.075, 25.658 117.900, 24.962 124.500 C 24.265 131.100, 23.658 143.025, 23.612 151 C 23.538 163.811, 23.777 166.043, 25.670 170.166 C 29.782 179.119, 34.816 180.174, 49.500 175.162 C 54.450 173.473, 59.792 171.823, 61.372 171.495 L 64.244 170.901 60.340 167.559 C 51.885 160.322, 47.535 147.346, 48.222 131.415 C 48.598 122.695, 49.089 120.408, 51.845 114.517 C 53.598 110.771, 56.495 106.309, 58.282 104.603 C 60.069 102.896, 64.852 95.425, 68.910 88 C 77.628 72.051, 84.187 61.880, 88.599 57.468 L 91.796 54.270 85.148 53.642 C 73.853 52.575, 73.214 52.686, 71.496 56.007 C 70.641 57.661, 68.376 64.749, 66.464 71.757 C 61.049 91.600, 57.789 101, 56.324 101 C 54.588 101, 54.641 100.448, 56.962 94.341 C 58.040 91.503, 60.736 82.377, 62.951 74.060 C 65.167 65.744, 67.706 57.535, 68.594 55.819 L 70.207 52.699 64.562 53.281 C 58.164 53.942, 53.673 56.206, 50.609 60.318 C 47.387 64.640, 47.144 76.645, 50.037 88.652 C 52.061 97.056, 52.178 100.512, 50.378 98.711 C 48.912 97.245, 45.879 83.866, 45.344 76.500 C 44.117 59.620, 50 51.883, 65.238 50.337 C 70.051 49.848, 72.227 49.071, 74.642 46.976 C 81.712 40.843, 95.452 40.698, 118.250 46.515 C 122.153 47.511, 121.949 44.542, 117.973 42.486 C 111.995 39.394, 99.101 38.677, 73.162 39.991 C 54.466 40.939, 48.555 40.951, 47.662 40.045 C 45.633 37.985, 49.796 36.011, 56.441 35.883 C 59.774 35.819, 65.425 35.465, 69 35.097 L 75.500 34.428 65.500 31.128 C 54.985 27.659, 39.731 26.024, 35.418 27.903 M 156.444 38.267 L 146.500 47.871 149.183 52.685 C 150.659 55.333, 152.213 57.500, 152.637 57.500 C 153.778 57.500, 167.224 31.173, 166.774 29.821 C 166.561 29.184, 161.913 32.985, 156.444 38.267 M 96 58.829 C 96 68.661, 87.966 85.017, 78.411 94.637 L 71.322 101.775 78.911 103.820 C 96.938 108.681, 111.269 109.317, 117.660 105.542 C 127.248 99.878, 126.637 85.157, 115.932 63.864 C 112.178 56.398, 111.808 56, 108.628 56 C 106.786 56, 103.191 55.714, 100.640 55.364 L 96 54.728 96 58.829 M 87.637 62.596 C 83.614 67.722, 68.210 93.643, 66.460 98.233 C 65.225 101.471, 71.485 98.229, 76.874 92.840 C 82.593 87.121, 90.150 73.361, 92.476 64.432 C 94.616 56.215, 93.098 55.638, 87.637 62.596 M 149.032 69.809 C 147.181 72.939, 141.242 82.633, 135.833 91.351 C 130.425 100.069, 126 107.451, 126 107.756 C 126 108.061, 126.911 107.486, 128.024 106.479 C 130.988 103.796, 132.171 105.653, 132.762 113.916 C 133.451 123.542, 131.774 128.923, 126.128 135.203 C 121.610 140.228, 111.862 145.914, 107.500 146.070 C 106.400 146.109, 109.550 146.992, 114.500 148.032 C 131.676 151.641, 144 157.635, 144 162.378 C 144 167.315, 130.407 169.691, 110.717 168.196 C 103.448 167.644, 96.864 167.546, 96.087 167.977 C 93.175 169.594, 98.933 170.001, 127.536 170.199 C 155.497 170.391, 165.446 169.682, 172.527 166.990 C 175.970 165.681, 175.109 164.367, 166.572 157.906 C 152.010 146.886, 147.359 139.743, 148.194 129.678 C 148.698 123.598, 150.983 118.686, 156.936 110.883 C 161.945 104.319, 164.442 96.605, 163.465 90.713 C 162.536 85.113, 158.863 75.441, 155.291 69.185 L 152.397 64.118 149.032 69.809 M 125.245 112.194 C 122.912 114.041, 120.328 116.514, 119.504 117.690 C 118.680 118.867, 114.503 122.284, 110.221 125.284 C 101.523 131.379, 96 137.094, 96 140 C 96 146.515, 111.064 144.372, 121.589 136.360 C 127.829 131.609, 132.009 119.927, 130.245 112.169 L 129.487 108.837 125.245 112.194 M 81.500 146.572 C 74.900 151.834, 68.879 156.745, 68.119 157.486 C 67.360 158.226, 72.085 156.904, 78.619 154.546 C 85.154 152.189, 92.862 149.666, 95.750 148.941 C 100.991 147.624, 102.786 146, 99 146 C 95.872 146, 92.716 142.266, 93.432 139.413 C 93.766 138.086, 93.917 137.001, 93.769 137.003 C 93.621 137.005, 88.100 141.311, 81.500 146.572" stroke="none" fill="black" fill-rule="evenodd"/>
</svg>