<svg xmlns="http://www.w3.org/2000/svg" width="200" height="200" viewBox="0 0 200 200" version="1.1">
	<path d="M 159.987 22.517 C 154.387 29.775, 144.881 38.507, 139.672 41.178 C 133.949 44.112, 125.948 44.052, 120 41.031 C 117.525 39.773, 111.114 36.060, 105.754 32.778 C 95.622 26.574, 88.623 23.453, 83.500 22.852 C 80.706 22.524, 80.479 22.745, 80.201 26.065 L 79.901 29.631 73.201 28.814 C 65.494 27.875, 49.947 29.212, 42.412 31.462 C 36.277 33.294, 30.639 36.921, 30.174 39.334 C 29.607 42.277, 32.637 45.673, 37.984 48.090 L 43.055 50.381 39.777 51.441 C 37.247 52.258, 36.427 53.141, 36.178 55.311 C 35.756 58.986, 38.992 63.113, 47.302 69.500 C 50.879 72.250, 54.069 75.400, 54.390 76.500 C 54.710 77.600, 54.979 81.482, 54.986 85.128 C 55.006 94.607, 54.091 95.056, 44.028 90.513 C 32.498 85.307, 29.810 85.036, 26.132 88.714 C 22.262 92.584, 21.536 97.642, 22.334 115.176 C 22.799 125.393, 22.552 131.563, 21.373 139.211 C 20.500 144.870, 19.722 153.591, 19.643 158.591 C 19.429 172.190, 21.837 173.829, 32.500 167.348 C 36.420 164.965, 40.169 163.533, 43.315 163.217 C 47.695 162.777, 48.429 163.024, 51.452 165.954 C 53.280 167.725, 55.569 170.935, 56.539 173.087 C 59.415 179.464, 61 178.189, 61 169.500 C 61 165.375, 61.361 162, 61.803 162 C 62.245 162, 64.501 163.394, 66.817 165.097 C 71.928 168.856, 77.942 169.923, 81.366 167.680 C 82.690 166.812, 84.790 164.457, 86.033 162.446 L 88.293 158.791 89.701 162.145 C 92.720 169.332, 99.377 173.223, 102.800 169.800 C 103.642 168.958, 104 168.935, 104 169.723 C 104 170.341, 105.165 172.231, 106.589 173.923 C 116.377 185.555, 124.194 163.202, 124.224 123.500 C 124.242 98.672, 121.602 86.406, 115.359 82.316 C 112.892 80.699, 112.577 80.711, 109.138 82.556 C 107.008 83.699, 104.654 86.148, 103.424 88.500 C 101.411 92.352, 101.151 92.499, 96.403 92.470 C 90.677 92.435, 81.678 88.465, 81.177 85.753 C 80.670 83.006, 85.347 81.838, 97.570 81.661 L 108.641 81.500 112.812 72.932 C 117.340 63.632, 121.308 58.908, 123.091 60.691 C 125.031 62.631, 125.907 69.286, 126.948 90 C 128.730 125.444, 129.885 134.112, 133.574 139.750 C 136.185 143.740, 140.609 142.788, 146.146 137.043 L 150.923 132.086 150.712 104.793 C 150.500 77.478, 151.360 62.960, 153.087 64.687 C 154.935 66.535, 158.486 100.928, 159.139 123.318 L 159.338 130.136 154.115 133.119 C 148.557 136.293, 143.778 142.541, 141.993 148.965 C 139.305 158.640, 141.910 171.433, 147.924 178.097 C 154.064 184.901, 160.966 184.968, 167.645 178.288 C 171.938 173.995, 177.941 161.616, 180.894 150.967 C 182.886 143.784, 182.911 143.087, 181.432 135.997 C 180.127 129.735, 179.931 120.820, 180.191 79.530 L 180.500 30.500 178.106 25.201 C 175.529 19.498, 172.199 17, 167.171 17 C 164.802 17, 163.431 18.053, 159.987 22.517 M 160.972 25.537 C 150.864 38.638, 139.855 45.972, 130.270 45.990 C 123.566 46.003, 118.937 44.122, 106 36.131 C 95.909 29.897, 87.634 26, 84.489 26 C 83.585 26, 83 26.940, 83 28.392 C 83 30.088, 83.704 30.960, 85.423 31.391 C 89.153 32.328, 93.781 36.726, 94.505 40.024 C 94.864 41.657, 94.646 44.542, 94.021 46.435 C 93.118 49.173, 93.178 50.453, 94.315 52.689 C 95.101 54.235, 95.464 56.257, 95.122 57.182 C 94.780 58.107, 90.675 61.747, 86 65.270 C 77.518 71.664, 77.496 71.692, 75.666 78.589 C 74.658 82.390, 72.295 89.612, 70.416 94.638 C 68.537 99.664, 67 104.052, 67 104.388 C 67 104.725, 68.688 105.002, 70.750 105.004 C 76.479 105.010, 92.484 107.810, 96.907 109.579 C 106.184 113.291, 102.103 118.216, 87.514 120.913 C 80.102 122.283, 80 122.279, 80 120.636 C 80 119.792, 81.620 119.044, 84.250 118.673 C 90.401 117.807, 99 115.076, 99 113.989 C 99 112.243, 85.655 109.229, 70.475 107.548 L 65.450 106.991 61.283 115.245 C 58.991 119.785, 55.921 125.443, 54.460 127.818 C 51.959 131.886, 52.492 131.567, 63.653 122.304 C 79.809 108.896, 78.670 109.697, 79.289 111.311 C 79.605 112.134, 77.669 114.347, 74.395 116.904 C 71.416 119.230, 63.746 125.631, 57.351 131.128 C 49.828 137.594, 45.380 140.780, 44.751 140.151 C 44.123 139.523, 44.821 137.648, 46.729 134.840 C 50.467 129.340, 57.177 117.813, 56.792 117.555 C 56.631 117.447, 53.808 116.354, 50.518 115.125 C 37.388 110.221, 37.750 105.602, 51.364 104.330 L 57.718 103.737 59.480 98.119 C 61.878 90.477, 66.537 81.357, 70.605 76.346 C 72.459 74.061, 74.416 71.037, 74.952 69.625 C 76.420 65.766, 78.877 50.619, 79.621 40.848 L 80.280 32.197 72.442 31.462 C 62.896 30.568, 48.140 32.228, 40.618 35.042 C 31.117 38.597, 30.717 41.619, 39.238 45.491 C 42.132 46.807, 47.537 48.639, 51.250 49.563 C 61.013 51.993, 60.091 53.684, 49.058 53.582 C 43.449 53.531, 39.675 53.937, 38.935 54.673 C 37.111 56.485, 40.888 61.023, 50.404 68.453 L 58.674 74.912 58.233 83.206 C 57.492 97.127, 54.889 98.591, 41.706 92.500 C 33.111 88.529, 30.051 88.181, 27.594 90.897 C 24.966 93.800, 23.977 103.846, 25.081 116.411 C 25.850 125.159, 25.740 129.506, 24.560 137 C 22.539 149.833, 21.589 162.227, 22.384 165.394 C 23.260 168.883, 25.091 168.684, 32.147 164.328 C 36.529 161.624, 39.534 160.537, 43.555 160.204 C 48.917 159.759, 49.095 159.831, 53.507 164.244 L 58 168.737 58 165.803 C 58 162.015, 59.636 159, 61.691 159 C 62.582 159, 64.816 160.148, 66.656 161.551 C 72.138 165.733, 76.205 167.080, 79.063 165.661 C 83.060 163.676, 86.949 155.431, 86.977 148.886 C 87.006 141.767, 88.303 134.919, 90.938 127.966 C 93.664 120.773, 94.667 119.263, 95.894 120.508 C 96.999 121.629, 95.144 133.854, 92.013 146.087 C 90.448 152.202, 90.277 154.432, 91.133 157.587 C 93.766 167.294, 99.304 171.114, 102.341 165.319 L 103.746 162.637 105.715 167.090 C 106.799 169.539, 108.484 172.342, 109.461 173.319 C 111.121 174.978, 111.359 174.985, 113.078 173.430 C 115.465 171.269, 117.544 164.799, 119.641 153 C 122.007 139.689, 122.036 107.453, 119.691 97 C 117.986 89.398, 115.483 84.736, 112.827 84.212 C 110.769 83.806, 106 87.792, 106 89.918 C 106 93.309, 102.199 95.510, 96.570 95.376 C 91.282 95.250, 83.075 92.282, 79.787 89.307 C 77.141 86.912, 77.549 83.342, 80.705 81.273 C 82.806 79.896, 86.025 79.421, 95.104 79.148 L 106.797 78.795 110.484 71.335 C 117.488 57.163, 122.691 53.801, 126.275 61.131 C 128.081 64.824, 128.662 70.804, 130.974 109.500 C 132.077 127.963, 134.085 137.440, 137.251 139.134 C 138.902 140.018, 139.891 139.442, 143.767 135.338 L 148.337 130.500 148.115 102.966 C 147.886 74.579, 148.849 62.745, 151.612 60 C 155.059 56.576, 157.128 63.638, 159.430 86.682 C 160.243 94.832, 161.218 108.475, 161.594 117 L 162.279 132.500 158.639 133.815 C 149.247 137.208, 144.012 145.875, 144.032 158 C 144.057 173.237, 153.063 184.122, 161.875 179.564 C 167.725 176.540, 174.025 165.221, 178.074 150.462 C 179.958 143.596, 180.032 142.340, 178.834 137.674 C 177.406 132.113, 177.135 106.511, 178.020 60.500 C 178.444 38.425, 178.291 34.823, 176.711 29.711 C 174.594 22.861, 172.063 20, 168.122 20 C 165.811 20, 164.400 21.093, 160.972 25.537 M 82.501 40.750 C 82.139 44.462, 81.203 51.658, 80.421 56.739 C 79.640 61.821, 79 66.201, 79 66.474 C 79 66.746, 82.150 64.671, 86 61.862 C 89.850 59.053, 93 56.420, 93 56.012 C 93 55.604, 92.103 54.129, 91.007 52.736 C 89.178 50.410, 89.136 49.968, 90.501 47.351 C 92.870 42.807, 92.386 39.503, 88.923 36.589 C 84.122 32.549, 83.245 33.116, 82.501 40.750 M 69.642 82.171 C 66.248 87.967, 62.421 96.754, 61.550 100.750 C 60.470 105.700, 63.391 104.963, 65.512 99.750 C 68.471 92.477, 73.010 78.676, 72.583 78.250 C 72.359 78.026, 71.036 79.791, 69.642 82.171 M 46.117 107.867 C 44.191 108.407, 43.999 108.741, 45.117 109.609 C 46.689 110.830, 55.129 114.236, 55.481 113.792 C 55.609 113.631, 55.991 112.037, 56.331 110.250 L 56.950 107 52.725 107.100 C 50.401 107.155, 47.428 107.500, 46.117 107.867 M 59.667 107.667 C 59.300 108.033, 59.016 109.496, 59.035 110.917 L 59.071 113.500 60.500 111 C 61.286 109.625, 61.945 108.162, 61.965 107.750 C 62.008 106.820, 60.565 106.768, 59.667 107.667" stroke="none" fill="black" fill-rule="evenodd"/>
</svg>