<svg xmlns="http://www.w3.org/2000/svg" width="200" height="200" viewBox="0 0 200 200" version="1.1">
	<path d="M 142.500 24.112 C 129.534 25.325, 113.439 27.876, 106.500 29.820 C 101.427 31.240, 95.170 31.507, 66 31.544 C 47.025 31.568, 30.712 31.681, 29.750 31.794 C 25.817 32.257, 28.243 35.162, 35.250 38.378 C 47.056 43.795, 46.212 40.593, 46.097 79.557 C 46.015 107.395, 45.725 114.043, 44.423 117.870 C 39.642 131.923, 42.796 149.768, 51.729 159.207 L 54.291 161.913 60.396 156.620 C 69.619 148.621, 76.219 143.990, 90.500 135.497 C 97.650 131.245, 105.632 126.209, 108.237 124.307 C 116.265 118.446, 116.400 118.685, 117.149 140.012 C 117.515 150.445, 117.406 159.234, 116.899 160.184 C 115.241 163.291, 115.874 172.281, 117.995 175.759 C 121.954 182.253, 130.488 184.867, 136.901 181.551 C 140.051 179.922, 145.966 173.574, 146.065 171.715 C 146.101 171.047, 146.073 143.376, 146.004 110.223 C 145.920 70.356, 145.516 48.909, 144.809 46.881 C 143.900 44.274, 144.040 43.515, 145.748 41.808 C 147.424 40.132, 149.660 39.684, 159.291 39.094 C 175.577 38.098, 177.185 36.319, 169.363 27.957 L 164.726 23 158.113 23.135 C 154.476 23.209, 147.450 23.649, 142.500 24.112 M 140.500 27.087 C 136.100 27.538, 128.675 28.491, 124 29.204 L 115.500 30.500 126.420 31 C 142.038 31.715, 141.574 33.553, 125.542 34.478 C 118.644 34.876, 113 35.534, 113 35.940 C 113 36.347, 114.148 37.202, 115.552 37.842 C 116.957 38.482, 118.796 40.661, 119.644 42.691 C 121.343 46.756, 121.430 49.495, 120.879 81.544 C 120.381 110.536, 120.434 110.455, 96.666 118.385 C 80.301 123.845, 77.034 124.113, 73.948 120.250 C 71.815 117.580, 71.777 117.081, 72.609 103 C 73.081 95.025, 73.489 80.175, 73.515 70 C 73.567 49.695, 73.906 48.248, 80.048 42.106 L 83.154 39 78.577 39 C 76.060 39, 74 38.536, 74 37.969 C 74 36.566, 75.353 36.160, 83.500 35.120 C 90.332 34.248, 90.235 34.230, 79.500 34.363 C 73.450 34.439, 62.875 34.352, 56 34.171 C 49.125 33.990, 41.025 33.878, 38 33.922 L 32.500 34.002 38.500 36.869 C 41.800 38.447, 45.555 40.883, 46.845 42.284 L 49.189 44.831 49.053 79.394 C 48.934 109.274, 48.690 114.469, 47.250 117.729 C 46.052 120.440, 45.572 124.451, 45.542 132 C 45.504 141.494, 45.774 143.094, 48.363 148.697 C 49.937 152.106, 51.984 155.581, 52.911 156.420 C 54.444 157.807, 55.046 157.556, 59.548 153.654 C 67.366 146.878, 74.519 141.900, 88.500 133.504 C 95.650 129.210, 103.936 123.965, 106.913 121.848 C 113.094 117.454, 116.318 117.005, 118.391 120.250 C 120.285 123.214, 120.814 157.334, 119.068 163.966 C 115.117 178.980, 133.040 186.371, 141.932 173.394 C 144.109 170.218, 144.229 169.332, 143.649 160.739 C 143.306 155.658, 142.955 126.538, 142.870 96.028 L 142.714 40.556 145.215 38.688 C 147.151 37.243, 150.274 36.671, 159.028 36.160 C 165.546 35.780, 170.488 35.050, 170.690 34.438 C 170.884 33.853, 169.382 31.716, 167.354 29.688 C 163.718 26.052, 163.560 26.002, 156.083 26.133 C 151.912 26.206, 144.900 26.635, 140.500 27.087 M 105 37.500 C 105 38.714, 103.406 39, 96.650 39 C 89.017 39, 87.955 39.250, 84.283 41.910 C 82.073 43.511, 79.317 46.780, 78.157 49.176 C 76.255 53.104, 76.088 54.858, 76.451 67.016 C 76.675 74.506, 76.213 87.349, 75.411 95.909 C 73.804 113.083, 74.186 117.420, 77.497 119.590 C 79.562 120.943, 80.894 120.687, 93.536 116.506 C 115.228 109.332, 118.260 106.830, 118.202 96.149 C 118.185 93.042, 118.219 84.200, 118.278 76.500 C 118.512 45.770, 118.494 45.404, 116.692 42.653 C 115.747 41.211, 113.855 39.751, 112.487 39.407 C 111.119 39.064, 110 38.157, 110 37.392 C 110 36.574, 108.969 36, 107.500 36 C 105.944 36, 105 36.567, 105 37.500" stroke="none" fill="black" fill-rule="evenodd"/>
</svg>