<svg xmlns="http://www.w3.org/2000/svg" width="200" height="200" viewBox="0 0 200 200" version="1.1">
	<path d="M 94 14.610 C 81.705 18.232, 69.401 23.444, 63.040 27.723 L 57.500 31.450 42.500 31.165 C 29.264 30.912, 27.088 31.104, 24 32.796 C 15.420 37.497, 12.336 52.350, 14.152 80.222 C 14.699 88.625, 15.324 105.816, 15.540 118.425 L 15.933 141.350 18.775 144.860 C 23.750 151.008, 26.531 152.507, 32.826 152.436 C 41.612 152.336, 47.580 148.728, 60.378 135.781 L 71.257 124.776 70.630 119.138 C 68.428 99.315, 68.966 66.464, 71.605 59.587 C 72.004 58.546, 74.791 59.410, 83.315 63.216 C 89.467 65.962, 94.677 68.377, 94.892 68.581 C 95.108 68.784, 93.083 71.453, 90.392 74.512 C 76.745 90.022, 74.149 95.744, 79.627 98.240 C 81.793 99.227, 85.173 98.937, 98.877 96.590 C 108.020 95.023, 119.414 93.514, 124.197 93.235 C 134.118 92.657, 132.948 91.496, 135.044 104 C 135.643 107.575, 136.391 111.566, 136.705 112.868 C 137.245 115.106, 137.062 115.210, 133.388 114.756 C 131.250 114.493, 126.020 113.335, 121.767 112.183 C 112.082 109.562, 84.687 109.046, 81.436 111.423 C 79.561 112.795, 79.560 112.857, 81.425 114.917 C 82.468 116.070, 87.056 119.049, 91.619 121.536 C 96.183 124.024, 100.650 126.793, 101.547 127.690 C 103.055 129.198, 103.039 129.399, 101.339 130.353 C 100.328 130.921, 94.391 131.582, 88.146 131.823 L 76.792 132.260 72.173 139.380 C 65.676 149.396, 59 162.637, 59 165.506 C 59 166.911, 59.846 168.382, 61.012 169.006 C 63.805 170.501, 68.398 168.265, 85.500 157.083 C 104.433 144.703, 107.108 144.123, 103.072 153.272 C 96.895 167.275, 96.046 169.796, 96.024 174.193 C 95.998 179.274, 98.281 182, 102.563 182 C 110.002 182, 125.195 169.443, 131.771 157.858 C 137.462 147.835, 139.641 134.209, 137.017 125.060 C 136.099 121.859, 136.336 120.003, 137.513 121.179 C 137.795 121.462, 139.778 128.624, 141.919 137.096 C 144.060 145.568, 146.766 154.750, 147.932 157.500 C 150.745 164.133, 153.323 169, 154.022 169 C 155.712 169, 165.637 162.093, 167.419 159.677 C 170.088 156.056, 170.135 148.910, 167.525 143.573 C 164.800 138.003, 155.726 129.083, 146.980 123.378 L 139.500 118.500 150.419 117.772 C 162.585 116.960, 166.903 115.870, 169.554 112.940 C 171.237 111.080, 171.248 110.743, 169.718 107.534 C 168.693 105.384, 165.509 102.326, 161.154 99.306 C 149.171 90.999, 150.212 91.811, 152.500 92.551 C 160.514 95.141, 168.326 93.607, 173.507 88.426 C 176.249 85.684, 176.999 84.134, 176.993 81.217 C 176.980 73.550, 171.105 68.575, 156.475 63.839 C 136.352 57.325, 137.073 52.653, 159.881 41.770 C 176.625 33.782, 175.263 32.614, 154.572 37.218 L 138.992 40.684 137.942 36.592 C 135.620 27.549, 131.802 17.080, 130.400 15.917 C 127.285 13.332, 126.500 16.440, 126.500 31.366 L 126.500 45.613 120.130 53.002 C 116.627 57.066, 112.186 62.763, 110.262 65.660 L 106.764 70.929 103.768 69.380 L 100.772 67.831 104.136 64.319 L 107.500 60.807 101.177 55.044 C 93.511 48.058, 87.685 45, 82.040 45 C 78.587 45, 77.198 45.604, 74.561 48.250 C 72.779 50.038, 71.099 52.175, 70.826 53 C 70.318 54.541, 68.086 53.837, 54.249 47.769 C 50.052 45.929, 50.016 45.870, 51.446 43.203 C 52.243 41.716, 53.951 39.213, 55.242 37.639 L 57.589 34.778 72.044 35.784 C 86.611 36.798, 96.873 36.209, 100.746 34.136 C 104.367 32.198, 107.001 27.962, 106.978 24.115 C 106.960 21.088, 103.770 11.880, 102.799 12.053 C 102.635 12.082, 98.675 13.233, 94 14.610 M 92 18.067 C 82.411 20.890, 71.081 25.636, 66.171 28.887 C 62.135 31.558, 62.005 31.782, 64.176 32.300 C 65.454 32.605, 71.467 33.164, 77.538 33.542 C 95.706 34.674, 104 31.848, 104 24.526 C 104 19.685, 102.369 15.986, 100.275 16.076 C 99.299 16.118, 95.575 17.014, 92 18.067 M 129.101 28.500 C 129.123 34, 129.477 39.359, 129.889 40.409 C 130.573 42.152, 130.825 42.055, 132.792 39.292 L 134.946 36.266 132.918 28.945 C 129.726 17.427, 129.056 17.349, 129.101 28.500 M 24.401 35.897 C 20.464 38.298, 18.200 43.893, 16.811 54.655 C 15.973 61.143, 16.123 69.563, 17.491 92.742 C 18.490 109.688, 18.966 126.213, 18.597 131.124 L 17.947 139.748 22.224 144.470 C 25.907 148.536, 27.160 149.265, 31.262 149.727 C 35.222 150.173, 37.078 149.744, 42.286 147.180 C 48.525 144.109, 59.674 134.261, 65.321 126.835 L 68.107 123.171 66.910 104.217 C 65.963 89.228, 65.975 82.777, 66.965 73.381 C 67.653 66.847, 68.281 60.479, 68.358 59.230 C 68.479 57.296, 67.180 56.374, 59.549 52.980 C 54.625 50.791, 50.302 49, 49.941 49 C 49.579 49, 48.738 52.994, 48.071 57.875 C 46.970 65.937, 47.067 67.931, 49.130 79.625 C 53.418 103.925, 51.998 116.699, 43.923 126.471 L 40.250 130.915 39.593 124.208 C 38.931 117.446, 40.271 94.430, 42.079 81.527 C 42.616 77.692, 43.482 69.344, 44.002 62.977 C 45.069 49.919, 46.745 44.164, 51.040 38.809 C 52.668 36.778, 54 34.866, 54 34.559 C 54 34.251, 48.038 34.002, 40.750 34.004 C 29.522 34.007, 27.027 34.296, 24.401 35.897 M 145.076 42.061 C 140.992 43.074, 137.331 43.705, 136.940 43.463 C 134.669 42.060, 135.767 62.729, 138.431 71.545 C 140.431 78.162, 145.012 84.889, 149.637 88 C 154.665 91.382, 165.366 91.601, 169.677 88.410 C 179.494 81.143, 173.946 72.050, 156.500 66.817 C 135.722 60.585, 133.657 53.878, 149.434 43.868 C 156.186 39.584, 155.766 39.410, 145.076 42.061 M 131.222 44.736 C 129.929 46.999, 129.943 47.195, 133.592 78.195 L 134.262 83.890 141.381 87.576 L 148.500 91.261 144.355 86.881 C 136.633 78.721, 134.012 71.058, 133.109 54 C 132.578 43.992, 132.334 42.790, 131.222 44.736 M 76.521 50.279 C 74.584 52.216, 73 54.230, 73 54.755 C 73 55.713, 95.551 66.045, 97.576 66.016 C 98.167 66.007, 99.742 64.827, 101.076 63.394 L 103.500 60.788 98.116 55.944 C 92.429 50.829, 88.136 48.377, 83.101 47.370 C 80.519 46.854, 79.492 47.308, 76.521 50.279 M 122.400 54.566 C 116.979 60.874, 110 70.326, 110 71.360 C 110 72.272, 130.118 82.216, 130.728 81.606 C 131.012 81.321, 130.490 74.656, 129.567 66.794 C 128.644 58.932, 127.801 51.630, 127.694 50.566 C 127.544 49.074, 126.332 49.990, 122.400 54.566 M 91.259 77.750 C 83.075 86.872, 78.552 93.466, 79.464 94.942 C 80.451 96.539, 84.807 96.244, 100.867 93.495 C 108.915 92.117, 119.423 90.654, 124.218 90.245 C 135.750 89.260, 134.737 87.501, 121.277 85.143 C 108.034 82.822, 105.347 81.039, 105.914 74.949 C 106.027 73.739, 100.480 70, 98.572 70 C 98.374 70, 95.083 73.487, 91.259 77.750 M 108 76.477 C 108 78.527, 111.744 80.733, 116.500 81.484 C 118.700 81.831, 121.625 82.311, 123 82.551 C 124.375 82.790, 122.125 81.212, 118 79.043 C 109.766 74.713, 108 74.260, 108 76.477 M 44.128 87.154 C 42.598 100.606, 41.501 124, 42.400 124 C 44.398 124, 48.380 112.136, 48.770 105.020 C 49.111 98.788, 46.796 78.463, 45.610 77.276 C 45.433 77.099, 44.766 81.544, 44.128 87.154 M 135.500 90 C 135.840 90.550, 136.793 91, 137.618 91 C 138.443 91, 138.840 90.550, 138.500 90 C 138.160 89.450, 137.207 89, 136.382 89 C 135.557 89, 135.160 89.450, 135.500 90 M 136 93.870 C 136 95.126, 138.982 111.099, 139.617 113.250 C 140.053 114.725, 141.374 115, 148.018 115 C 156.044 115, 164.294 113.693, 167 111.993 C 169.664 110.319, 166.128 106.014, 156.978 99.792 C 148.864 94.274, 146.214 92.920, 147.452 94.922 C 147.795 95.477, 146.721 95.515, 144.761 95.020 C 137.616 93.211, 136 92.999, 136 93.870 M 84.527 114.334 C 85.612 115.067, 89.886 117.518, 94.025 119.779 C 111.167 129.147, 109.311 133.558, 87.669 134.888 L 77.702 135.500 70.852 146.879 C 64.431 157.547, 61.003 165.336, 62.201 166.534 C 63.242 167.576, 68.513 164.783, 81.873 156.109 C 97.418 146.017, 101.088 144, 103.901 144 C 108.713 144, 108.241 148.999, 102.199 162.042 C 96.772 173.757, 96.981 179.012, 102.872 178.991 C 110.128 178.965, 125.471 165.135, 130.834 153.787 C 136.306 142.206, 137.002 133.798, 133.398 122.770 L 131.853 118.040 123.875 115.520 C 116.677 113.246, 114.267 113, 99.226 113 C 85.011 113, 82.846 113.197, 84.527 114.334 M 142.003 125.250 C 142.014 130.529, 151.634 161.735, 154.069 164.394 C 155.369 165.813, 160.705 163.100, 164.005 159.342 C 170.781 151.624, 165.117 139.607, 149.424 128.409 C 142.770 123.660, 141.999 123.332, 142.003 125.250" stroke="none" fill="black" fill-rule="evenodd"/>
</svg>