<svg xmlns="http://www.w3.org/2000/svg" width="200" height="200" viewBox="0 0 200 200" version="1.1">
	<path d="M 129.500 27.579 C 127.850 27.808, 123.328 28.464, 119.451 29.038 C 114.498 29.771, 107.735 29.754, 96.706 28.983 C 64.976 26.764, 35.633 31.423, 25.642 40.267 L 21.989 43.500 21.265 78 C 19.842 145.796, 20.346 157.830, 25.145 170.658 C 28.911 180.724, 36.707 186.931, 45.645 186.978 C 51.441 187.009, 61.117 183.772, 70.335 178.718 L 78.170 174.423 86.835 176.277 C 99.698 179.030, 122.452 179.683, 133.057 177.604 C 149.307 174.417, 165 164.304, 165 157.020 C 165 148.846, 155.895 151.133, 144.368 162.202 C 137.444 168.851, 135.026 169.770, 117 172.603 C 92.211 176.500, 73.643 172.202, 62.638 160.021 C 50.498 146.584, 45.896 122.259, 48.066 83 C 48.659 72.275, 49.449 61.039, 49.822 58.031 L 50.500 52.562 58 49.352 C 62.125 47.586, 65.929 46.110, 66.453 46.071 C 66.977 46.032, 65.762 47.688, 63.752 49.750 C 52.913 60.874, 54.667 79.499, 67.296 87.367 L 72.091 90.356 67.632 92.049 C 46.422 100.099, 43.097 125.433, 60.683 144.992 C 66.914 151.923, 71.836 154.348, 78.132 153.588 C 80.809 153.264, 85.248 152.732, 87.995 152.404 C 91.353 152.003, 96.679 152.554, 104.245 154.084 C 117.764 156.818, 123.815 156.949, 130.622 154.652 C 136.921 152.527, 147.973 145.013, 159.948 134.714 L 169 126.929 169 117.214 C 169 111.871, 169.931 101.875, 171.068 95 C 173.023 83.181, 173.770 73.238, 173.208 66.500 C 173.070 64.850, 173.250 59.780, 173.608 55.233 C 174.689 41.497, 170.542 34.591, 158.507 30.088 C 152.920 27.998, 136.637 26.590, 129.500 27.579 M 125 30.843 L 120.500 31.500 127.331 33.383 C 138.352 36.421, 142.579 41.421, 138 46 C 136.788 47.212, 136.492 48.008, 137.250 48.020 C 141.047 48.080, 153.156 50.251, 157.301 51.615 C 159.941 52.484, 164.053 54.684, 166.438 56.504 L 170.774 59.814 171.379 56.028 C 172.181 51.019, 170.689 43.405, 168.265 40.132 C 165.752 36.738, 160.695 33.316, 156.118 31.910 C 151.852 30.600, 131.452 29.901, 125 30.843 M 61.500 32.098 C 45.035 33.811, 30.711 38.223, 26.604 42.845 C 24.876 44.791, 24.693 46.947, 24.536 67.240 C 24.442 79.483, 23.994 101.650, 23.541 116.500 C 22.656 145.540, 23.345 155.431, 27.101 167.590 C 29.321 174.780, 34.106 180.973, 39.008 183.004 C 45.411 185.655, 57.972 182.760, 69.942 175.872 L 75.384 172.740 71.479 170.737 C 65.406 167.621, 56.863 158.301, 53.309 150.915 C 47.032 137.870, 44.966 124.625, 45.082 98.178 C 45.127 87.905, 45.689 73.200, 46.332 65.500 L 47.500 51.500 54 48.281 C 60.745 44.940, 90.496 34.755, 97.500 33.389 L 101.500 32.608 97.500 31.862 C 92.326 30.896, 71.758 31.031, 61.500 32.098 M 98.500 35.951 C 92.450 37.545, 84.125 39.959, 80 41.316 C 72.567 43.761, 72.545 43.779, 77.533 43.278 C 83.729 42.656, 92.818 44.870, 100.975 48.987 C 104.289 50.660, 107 52.241, 107 52.501 C 107 52.761, 105.313 54.542, 103.250 56.459 L 99.500 59.946 103 59.959 C 108.798 59.981, 111 59.017, 111 56.455 C 111 53.543, 113.482 51, 116.321 51.001 C 117.520 51.001, 121.366 52.357, 124.868 54.014 C 130.737 56.791, 131.836 56.982, 138.868 56.458 C 150.759 55.571, 152.676 58.907, 142.745 63.202 L 137.990 65.259 133.934 62.575 C 130.149 60.070, 129.398 59.937, 122.689 60.575 C 118.735 60.951, 115.215 61.420, 114.866 61.616 C 114.518 61.813, 115.185 65.566, 116.350 69.955 L 118.467 77.935 125.983 81.357 C 133.990 85.002, 145.458 88.450, 153.249 89.554 L 157.998 90.227 163.490 78.863 C 166.510 72.614, 168.986 66.428, 168.991 65.118 C 169.016 58.490, 155.904 52.400, 139.256 51.306 C 128.908 50.627, 127.747 49.556, 133.500 46 C 139.817 42.096, 137.582 39.264, 125.355 35.679 C 115.431 32.769, 110.381 32.820, 98.500 35.951 M 72.914 46.956 C 63.173 49.908, 57.037 61.997, 59.895 72.609 C 62.321 81.618, 68.131 86.739, 77.205 87.864 C 82.627 88.536, 84.732 90.598, 80.821 91.406 C 70.748 93.487, 67.569 94.522, 63.693 96.980 C 51.421 104.763, 48.813 118.533, 56.601 134.437 C 60.025 141.431, 68.294 149.409, 73.842 151.071 C 77.428 152.145, 78.517 152.071, 81.967 150.515 C 86.613 148.420, 93.043 148.798, 108.800 152.096 C 120.097 154.459, 125.859 154.071, 133.562 150.427 C 139.523 147.607, 149.569 140.316, 159.096 131.896 L 165.693 126.066 166.330 113.783 C 166.681 107.027, 167.875 96.100, 168.983 89.500 C 170.092 82.900, 170.984 75.700, 170.964 73.500 L 170.928 69.500 168.104 76 C 164.639 83.975, 156.500 97.929, 149.351 108.152 C 146.408 112.361, 144 116.463, 144 117.267 C 144 118.072, 143.165 119.803, 142.145 121.115 C 141.125 122.427, 139.988 125.142, 139.619 127.149 C 138.761 131.810, 135.564 135.867, 131.364 137.621 C 121.980 141.542, 100.914 136.010, 90.537 126.898 C 83.505 120.724, 86.910 117.371, 99.176 118.394 L 107 119.047 107 116.375 L 107 113.703 92.026 114.401 C 77.323 115.085, 73 114.519, 73 111.908 C 73 111.346, 75.350 109.849, 78.223 108.582 C 82.812 106.557, 83.176 106.191, 81.223 105.571 C 79.973 105.174, 79 104.049, 79 103.001 C 79 100.514, 82.963 97.857, 91.781 94.431 C 97.355 92.266, 98.921 91.239, 98.463 90.051 C 95.882 83.367, 93.840 73.013, 94.254 68.707 L 94.728 63.773 90.614 64.373 C 88.351 64.703, 81.055 65.270, 74.400 65.633 C 65.223 66.134, 62.113 65.992, 61.528 65.046 C 60.057 62.665, 64.690 59.869, 77.512 55.400 C 87.506 51.916, 90.526 51.213, 91.187 52.214 C 91.654 52.921, 92.983 54.992, 94.140 56.816 L 96.244 60.132 99.082 56.816 C 100.642 54.992, 101.937 53.218, 101.959 52.873 C 102.011 52.079, 93.757 48.541, 88.500 47.104 C 83.958 45.863, 76.746 45.794, 72.914 46.956 M 114 56.453 C 114 58.821, 114.182 58.885, 119.250 58.313 C 122.138 57.987, 124.682 57.564, 124.904 57.373 C 125.573 56.798, 118.215 54, 116.032 54 C 114.542 54, 114 54.654, 114 56.453 M 78.500 57.939 C 64.291 63.015, 64.272 63.103, 77.500 62.503 C 84.100 62.203, 90.491 61.696, 91.703 61.375 L 93.906 60.791 91.765 57.896 C 90.587 56.303, 88.921 55.018, 88.062 55.040 C 87.203 55.063, 82.900 56.367, 78.500 57.939 M 136.263 60.692 C 137.835 62.264, 138.188 62.268, 141.228 60.756 L 144.500 59.128 139.536 59.064 C 134.873 59.004, 134.674 59.103, 136.263 60.692 M 103.191 62.882 L 99.881 63.500 103.691 67.098 C 109.221 72.322, 115.491 76.773, 114.821 75 C 114.510 74.175, 113.676 70.912, 112.968 67.750 C 111.564 61.473, 111.336 61.360, 103.191 62.882 M 97.050 71.250 C 97.101 76.571, 100.873 90.232, 102.250 90.082 C 102.662 90.037, 106.150 90, 110 90 L 117 90 116.986 86.750 C 116.963 81.268, 116.023 79.613, 111.173 76.522 C 108.603 74.885, 104.650 71.847, 102.388 69.772 C 100.127 67.698, 97.989 66, 97.638 66 C 97.287 66, 97.023 68.362, 97.050 71.250 M 119.829 86 L 120.210 90 129.855 89.932 C 136.338 89.887, 138.844 89.575, 137.500 88.980 C 135.201 87.963, 119.950 82, 119.648 82 C 119.538 82, 119.619 83.800, 119.829 86 M 122.762 92.715 C 121.256 92.944, 118.703 94.451, 117.089 96.065 C 114.242 98.912, 110 100.055, 110 97.975 C 110 97.412, 111.081 96.539, 112.403 96.037 C 117.349 94.156, 116.267 93, 109.559 93 C 105.952 93, 103 93.239, 103 93.532 C 103 93.825, 103.652 95.625, 104.449 97.532 L 105.898 101 123.390 101 C 139.528 101, 143.715 101.618, 141.640 103.694 C 140.540 104.793, 132.319 105.946, 120.750 106.621 C 110.240 107.235, 109 107.502, 109 109.154 C 109 110.850, 110.036 111.004, 121.750 111.044 C 129.799 111.072, 135.893 111.585, 138.277 112.435 L 142.054 113.783 146.395 107.641 C 148.783 104.264, 151.890 99.645, 153.301 97.377 L 155.865 93.253 151.293 92.627 C 146.431 91.960, 127.347 92.019, 122.762 92.715 M 93.945 96.450 C 87.556 98.805, 81.917 102.057, 82.524 103.038 C 83.460 104.554, 90.971 104.136, 97.081 102.228 C 102.507 100.533, 102.636 100.409, 101.747 97.742 C 100.735 94.706, 99.317 94.472, 93.945 96.450 M 120.269 103.693 C 121.242 103.947, 122.592 103.930, 123.269 103.656 C 123.946 103.382, 123.150 103.175, 121.500 103.195 C 119.850 103.215, 119.296 103.439, 120.269 103.693 M 99.250 104.689 C 100.213 104.941, 101.787 104.941, 102.750 104.689 C 103.713 104.438, 102.925 104.232, 101 104.232 C 99.075 104.232, 98.287 104.438, 99.250 104.689 M 108.762 104.707 C 110.006 104.946, 111.806 104.937, 112.762 104.687 C 113.718 104.437, 112.700 104.241, 110.500 104.252 C 108.300 104.263, 107.518 104.468, 108.762 104.707 M 83.688 109.183 C 80.491 110.297, 78.108 111.442, 78.394 111.727 C 78.679 112.012, 85.007 111.919, 92.456 111.521 C 103.041 110.954, 106 110.490, 106 109.398 C 106 108.335, 104.339 108, 99.082 108 C 95.277 108, 91.564 107.811, 90.832 107.579 C 90.099 107.348, 86.884 108.070, 83.688 109.183 M 109.840 116.245 L 109.427 119.782 120.907 122.812 C 133.840 126.226, 134.599 126.084, 138.081 119.588 L 140.025 115.960 137.263 114.908 C 135.743 114.330, 129.044 113.598, 122.376 113.282 L 110.253 112.708 109.840 116.245 M 90 121.961 C 90 123.534, 94.186 127.017, 99.088 129.524 C 115.529 137.930, 132.274 138.278, 135.915 130.288 C 137.553 126.691, 137.221 125.490, 135.115 127.396 C 133.333 129.009, 132.746 128.964, 124.365 126.571 C 106.787 121.553, 90 119.301, 90 121.961 M 153.946 157.848 C 151.501 159.414, 147.214 162.964, 144.419 165.737 C 139.574 170.544, 138.878 170.878, 129.419 172.945 C 113.949 176.324, 112.591 176.839, 120.500 176.326 C 140.009 175.062, 156.896 167.903, 161.536 158.931 C 162.341 157.373, 163 155.852, 163 155.550 C 163 154.029, 157.878 155.329, 153.946 157.848" stroke="none" fill="black" fill-rule="evenodd"/>
</svg>