<svg xmlns="http://www.w3.org/2000/svg" width="200" height="200" viewBox="0 0 200 200" version="1.1">
	<path d="M 21.401 33.897 C 19.529 35.039, 17.603 37.511, 16.535 40.143 C 14.924 44.113, 14.778 48.742, 14.884 92.313 C 14.976 130.534, 15.300 141.568, 16.495 147.313 C 18.295 155.962, 20.566 159.387, 24.781 159.808 C 28.431 160.173, 34.279 155.430, 38.599 148.601 L 41.284 144.358 43.788 146.679 C 51.954 154.248, 71.131 143.521, 77.182 128 C 79.820 121.234, 80.061 109.961, 77.738 102 C 76.855 98.975, 75.836 93.707, 75.473 90.292 C 74.780 83.772, 75.785 67, 76.868 67.001 C 77.216 67.001, 80.068 69.017, 83.207 71.481 L 88.913 75.961 85.957 81.582 C 82.382 88.378, 82.246 92.215, 85.186 103.276 C 87.876 113.393, 88.108 124.977, 85.812 134.500 C 84.884 138.350, 83.687 144.537, 83.152 148.248 C 81.950 156.591, 79.144 162.522, 72.780 170.168 C 67.374 176.664, 67.045 178.967, 71.356 180.120 C 73.699 180.746, 124.769 181.313, 162.260 181.128 C 180.140 181.040, 183.559 174.927, 172.401 162.998 C 168.464 158.789, 167.483 158.206, 165.823 159.095 C 163.231 160.482, 161.334 158.861, 160.023 154.142 C 158.512 148.703, 158.790 129.979, 160.636 112.759 C 163.254 88.348, 163.531 90.138, 156.573 86.553 C 150.991 83.678, 149.987 83.500, 139.324 83.500 C 133.097 83.500, 128.002 83.219, 128.001 82.877 C 128 82.164, 151.873 53.386, 162.147 41.716 C 165.916 37.434, 169 33.497, 169 32.966 C 169 31.113, 166.905 32.029, 161.721 36.146 C 150.131 45.350, 138.409 48.376, 131.250 44.011 C 129.463 42.921, 128 41.678, 128 41.249 C 128 40.820, 130.137 39.693, 132.750 38.745 C 139.285 36.372, 140.739 35.339, 139.413 34.013 C 138.653 33.253, 136.498 33.374, 131.973 34.429 C 127.744 35.416, 125.205 35.585, 124.418 34.932 C 123.613 34.264, 123.065 34.387, 122.708 35.317 C 122.398 36.125, 119.127 37.208, 114.723 37.962 C 108.125 39.090, 105.309 38.992, 90.381 37.113 C 69.068 34.429, 57.974 34.375, 52.354 36.926 C 50.074 37.962, 47.824 38.458, 47.354 38.029 C 46.884 37.601, 43.498 36.069, 39.829 34.625 C 31.932 31.517, 25.707 31.271, 21.401 33.897 M 22.327 36.434 C 17.877 39.652, 17.620 42.686, 17.619 92 C 17.618 141.265, 18.282 150.546, 22.159 155.475 C 23.251 156.864, 24.561 158, 25.070 158 C 27.054 158, 34.129 150.512, 38.128 144.181 L 42.330 137.526 43.415 140.719 C 44.955 145.251, 46.298 146.245, 50.797 146.183 C 63.045 146.014, 75.114 132.974, 76.614 118.288 C 77.043 114.085, 76.605 110.037, 75.016 103.507 C 72.981 95.143, 72.328 81.063, 73.302 66.552 C 73.481 63.881, 72.628 63.012, 64.221 57.302 C 59.118 53.836, 54.307 51, 53.530 51 C 52.337 51, 52.192 54.934, 52.602 76.250 C 53.107 102.530, 52.210 112.804, 48.673 121.250 C 46.519 126.392, 43.480 126.392, 42.053 121.250 C 40.932 117.217, 40.607 99.188, 41.607 96.582 C 43.189 92.458, 44.001 96.055, 44.015 107.250 C 44.034 121.957, 44.978 124.436, 47.466 116.307 C 48.793 111.969, 49.337 106.073, 49.614 93 C 49.851 81.828, 49.652 76.223, 49.063 77.500 C 48.556 78.600, 48.109 80.513, 48.070 81.750 C 48.027 83.126, 47.372 84, 46.383 84 C 45.143 84, 44.905 83.360, 45.359 81.250 C 45.685 79.737, 46.423 71.300, 46.998 62.500 C 47.574 53.700, 48.245 45.938, 48.491 45.250 C 48.808 44.361, 51.888 44, 59.166 44 C 70.420 44, 91.738 42.191, 93.822 41.059 C 95.555 40.117, 73.647 37.606, 63.884 37.627 C 57.927 37.640, 55.481 38.109, 52.652 39.778 L 49.036 41.912 42.285 38.753 C 34.249 34.992, 25.695 33.999, 22.327 36.434 M 116 41.714 C 110.241 41.988, 92.732 44.135, 91.759 44.686 C 91.352 44.917, 91.934 46.344, 93.052 47.856 C 94.170 49.369, 96.386 54.632, 97.976 59.553 L 100.868 68.500 97.232 72.249 C 95.035 74.514, 93.973 76.334, 94.549 76.848 C 95.072 77.316, 99.950 81.242, 105.389 85.571 L 115.279 93.442 118.608 89.591 L 121.938 85.739 119.493 83.816 C 114.244 79.687, 114.006 71.030, 118.622 52.159 C 120.013 46.472, 121.005 41.747, 120.826 41.659 C 120.647 41.572, 118.475 41.596, 116 41.714 M 124 41.427 C 124 41.698, 122.815 46.550, 121.368 52.210 C 117.997 65.384, 117.582 77.755, 120.405 80.886 C 121.453 82.049, 122.646 83, 123.057 83 C 123.469 83, 129.333 76.362, 136.090 68.250 C 142.847 60.138, 150.371 51.137, 152.810 48.250 L 157.244 42.999 151.554 45.604 C 140.943 50.462, 133.144 50.078, 127.485 44.419 C 125.568 42.502, 124 41.155, 124 41.427 M 83.783 46.750 C 81.457 49.418, 79.844 52.904, 78.393 58.407 C 77.667 61.157, 77.170 63.453, 77.287 63.509 C 77.404 63.565, 80.563 66.008, 84.308 68.938 L 91.115 74.264 94.138 71.382 C 96.743 68.898, 97.081 67.996, 96.585 64.850 C 95.263 56.479, 89.259 45, 86.203 45 C 85.712 45, 84.623 45.788, 83.783 46.750 M 51 47.250 C 51 47.663, 51.693 48, 52.540 48 C 54.880 48, 60.799 51.273, 67.847 56.464 C 71.338 59.035, 74.315 60.995, 74.462 60.819 C 74.610 60.644, 75.521 58.025, 76.488 55 C 77.455 51.975, 78.641 49.073, 79.123 48.550 C 79.605 48.028, 80 47.292, 80 46.916 C 80 46.540, 73.475 46.293, 65.500 46.366 C 57.525 46.440, 51 46.837, 51 47.250 M 88.553 82.319 C 85.403 87.694, 85.291 92.390, 88.054 103.211 C 90.578 113.096, 90.819 124.300, 88.720 134.092 C 87.846 138.166, 86.644 144.518, 86.049 148.206 C 84.608 157.130, 81.965 163.005, 75.937 170.675 C 71.786 175.957, 71.217 177.146, 72.591 177.673 C 73.501 178.022, 85.553 178.022, 99.373 177.673 C 114.284 177.296, 132.428 177.495, 144 178.163 C 159.051 179.031, 164.808 179.011, 169.233 178.076 C 172.385 177.410, 175.240 176.420, 175.577 175.876 C 176.713 174.037, 174.968 169.970, 171.300 165.910 C 168.514 162.827, 167.129 162.002, 165.446 162.424 C 164.072 162.769, 162.284 162.225, 160.702 160.980 C 154.809 156.345, 154.512 139.372, 159.580 96.835 L 160.255 91.171 155.878 88.865 C 152.101 86.875, 149.706 86.507, 138.422 86.185 L 125.344 85.812 121.172 90.795 C 114.975 98.196, 115.135 99.874, 125.186 133 C 133.153 159.257, 132.960 170.419, 124.470 174.447 C 120.766 176.205, 114.768 176.481, 112.039 175.021 C 107.077 172.365, 106.818 146.947, 111.449 117 C 112.852 107.925, 113.984 99.375, 113.965 98 C 113.938 96.042, 111.840 93.873, 104.291 88 C 98.989 83.875, 93.854 79.929, 92.879 79.231 C 91.315 78.111, 90.807 78.473, 88.553 82.319 M 114.682 113.646 C 110.900 137.669, 109.694 162.513, 111.975 169.425 C 113.065 172.727, 113.459 173, 117.127 173 C 122.076 173, 126.620 170.731, 127.619 167.761 C 129.778 161.340, 128.008 151.654, 119.650 124.146 C 115.598 110.808, 115.246 110.065, 114.682 113.646" stroke="none" fill="black" fill-rule="evenodd"/>
</svg>