<svg xmlns="http://www.w3.org/2000/svg" width="200" height="200" viewBox="0 0 200 200" version="1.1">
	<path d="M 161 13.016 C 161 13.575, 159.006 18.300, 156.568 23.516 L 152.137 33 141.318 32.902 L 130.500 32.804 136.500 31.617 C 148.661 29.211, 147.510 27, 134.097 27 C 116.009 27, 103 28.145, 103 29.736 C 103 30.926, 104.906 31.079, 114.250 30.638 L 125.500 30.108 116.500 31.579 C 111.550 32.389, 104.125 32.975, 100 32.882 C 74.950 32.318, 73.707 32.398, 68.637 34.894 C 63.487 37.429, 58.986 43.195, 56.871 49.965 C 56.264 51.909, 55.413 66.550, 54.981 82.500 C 54.137 113.598, 53.470 118.250, 47.447 135 C 40.849 153.350, 29.745 169.978, 21.106 174.445 L 18.243 175.926 21.246 168.213 C 28.876 148.616, 32.555 125.521, 33.784 89.500 C 34.323 73.693, 34.172 66.769, 33.175 61.500 C 31.313 51.669, 31.169 37.285, 32.891 33.203 C 35.720 26.495, 41.541 25.719, 64.529 28.984 C 81.903 31.452, 91 31.629, 91 29.500 C 91 28.309, 89.555 28, 83.992 28 C 80.138 28, 70.350 27.061, 62.242 25.913 C 40.589 22.849, 34.885 23.964, 30.752 32.071 C 28.584 36.323, 28.433 49.932, 30.431 61.129 C 31.503 67.140, 31.604 73.612, 30.909 91.629 C 29.325 132.675, 25.617 151.939, 14.333 177.750 C 13.667 179.272, 16.800 179.407, 20.462 178.014 C 24.185 176.599, 32.637 168.411, 36.992 162 C 42.116 154.457, 47.196 144.130, 50.764 134 C 56.261 118.397, 57.134 111.892, 57.878 81 C 58.549 53.147, 58.623 52.373, 61.154 46.909 C 65.162 38.257, 71.196 35, 83.221 35 C 89.514 35, 90 35.143, 88.571 36.571 C 84.231 40.912, 89.051 47.723, 100.784 53.827 C 111.117 59.203, 120.119 61.722, 123.495 60.184 C 127.652 58.290, 126.598 55.404, 118.820 47.383 C 110.553 38.856, 109.515 39.239, 129.235 43.541 C 143.945 46.751, 143.838 46.661, 139.302 51.960 C 133.652 58.561, 124.626 64.726, 117.299 66.989 C 108.564 69.687, 99.196 69.545, 84.522 66.492 C 70.589 63.593, 68.866 63.501, 65.091 65.453 C 62.491 66.798, 59.101 72.434, 60.219 73.553 C 60.488 73.822, 63.082 73.532, 65.984 72.910 C 73.165 71.370, 82.376 72.125, 84.963 74.466 C 90.589 79.558, 83.716 93.672, 62.604 120.387 C 57.872 126.375, 54 132.113, 54 133.137 C 54 135.488, 53.969 135.492, 59.596 132.500 C 65.305 129.464, 67.131 129.382, 69.547 132.052 C 71.601 134.321, 71.845 139.900, 70.965 164.500 C 70.391 180.550, 71.670 183.948, 78.300 183.985 C 81.883 184.004, 83.965 182.896, 98.657 173.146 C 110.508 165.282, 115 161.196, 115 158.279 C 115 157.480, 112.314 154.030, 109.031 150.611 C 100.862 142.104, 98.549 136.715, 98.681 126.500 C 98.767 119.867, 99.470 116.572, 102.797 107.220 C 106.798 95.968, 111.154 88.551, 113.332 89.277 C 115.973 90.158, 118.498 97.235, 123.615 118.108 C 126.592 130.250, 129.505 141.075, 130.087 142.163 C 130.670 143.252, 131.805 146.670, 132.609 149.759 C 134.847 158.349, 137.410 163.404, 142.116 168.510 C 148.378 175.303, 153.017 177.441, 161.500 177.441 C 172.985 177.441, 180.987 171.596, 180.996 163.200 C 181.004 156.048, 177.247 152.222, 163.034 144.908 C 152.174 139.320, 146 133.582, 146 129.076 C 146 124.187, 148.828 121.060, 160.615 112.921 C 170.857 105.847, 174.988 101.500, 174.996 97.785 C 175.003 94.805, 169.356 89.491, 162.813 86.320 C 151.968 81.064, 152.380 80.990, 151.626 88.343 C 150.692 97.462, 148.340 104.588, 145.047 108.273 L 142.196 111.464 138.626 109.761 C 133.809 107.464, 129.379 101.060, 126.851 92.735 C 124.025 83.433, 124.628 76.577, 128.568 73.188 C 131.174 70.946, 131.863 70.821, 137.447 71.575 C 140.776 72.025, 148.675 72.417, 155 72.447 C 164.847 72.492, 167.003 72.205, 170 70.451 C 174.746 67.673, 175.320 62.723, 171.433 58.103 C 168.938 55.137, 152.093 46, 149.121 46 C 147.641 46, 147.679 45.881, 150.911 40.444 L 153.321 36.388 164.638 35.324 C 177.035 34.158, 181 32.534, 181 28.623 C 181 25.487, 177.540 21.956, 169.147 16.527 C 161.720 11.722, 161 11.412, 161 13.016 M 161.131 20.194 C 160.104 22.591, 158.313 26.519, 157.151 28.923 L 155.040 33.293 163.770 32.723 C 174.164 32.043, 178 30.800, 178 28.109 C 178 26.145, 173.600 22.230, 166.750 18.098 L 162.999 15.836 161.131 20.194 M 113.227 36.839 C 112.455 37.329, 115.035 38.119, 119.782 38.845 C 124.088 39.504, 131.557 41.097, 136.379 42.385 L 145.148 44.727 147.574 40.883 C 148.908 38.769, 150 36.806, 150 36.520 C 150 35.659, 114.601 35.966, 113.227 36.839 M 89.686 39.377 C 88.191 43.272, 99.606 51.564, 112.631 56.045 C 124.288 60.056, 125.923 57.966, 117.623 49.666 C 108.231 40.275, 106.353 39.206, 97.893 38.439 C 91.408 37.852, 90.219 37.987, 89.686 39.377 M 139 55.819 C 123.817 71.393, 110.735 74.738, 85.522 69.492 C 71.831 66.643, 68.150 66.439, 65.498 68.378 C 63.852 69.582, 64.831 69.740, 73.220 69.628 C 81.539 69.517, 83.206 69.782, 85.655 71.602 C 94.057 77.845, 88.904 91.221, 67.674 118.281 C 63.453 123.661, 60 128.226, 60 128.426 C 60 128.626, 61.482 128.455, 63.294 128.046 C 73.135 125.827, 75.461 132.317, 73.767 157.271 C 72.629 174.020, 73.358 180.156, 76.634 181.413 C 78.828 182.255, 86.633 178.278, 97.798 170.629 C 108.412 163.357, 112 160.238, 112 158.283 C 112 157.530, 109.753 154.844, 107.007 152.314 C 104.171 149.702, 100.714 145.115, 99.007 141.698 C 96.377 136.436, 96 134.622, 96 127.242 C 96 120.198, 96.606 116.979, 99.667 107.765 C 101.684 101.694, 104.721 94.650, 106.417 92.113 C 109.086 88.120, 109.963 87.500, 112.941 87.500 C 118.435 87.500, 120.546 92.488, 127.120 121 C 128.832 128.425, 131.266 137.425, 132.528 141 C 133.790 144.575, 135.563 149.911, 136.467 152.858 C 140.644 166.470, 150.231 174.929, 161.538 174.978 C 167.965 175.006, 174.790 171.658, 177.331 167.230 C 180.995 160.844, 177.101 155.323, 164.243 148.676 C 148.608 140.592, 143.012 135.205, 143.004 128.228 C 142.999 123.819, 148.546 117.900, 160.096 109.989 C 175.012 99.773, 175.527 96.337, 163.144 89.676 C 154.773 85.174, 154.599 85.249, 153.596 93.777 C 152.854 100.091, 149.918 107.394, 146.777 110.738 C 139.993 117.958, 127.593 107.508, 123.418 91.051 C 120.558 79.774, 123.302 71.376, 130.638 68.955 C 133.572 67.986, 136.142 68.091, 144.463 69.517 C 152.862 70.957, 155.807 71.072, 160.978 70.161 C 167.744 68.969, 172 66.804, 172 64.554 C 172 61.569, 166.438 56.788, 158.641 53.070 C 146.414 47.240, 147.513 47.086, 139 55.819" stroke="none" fill="black" fill-rule="evenodd"/>
</svg>