<svg xmlns="http://www.w3.org/2000/svg" width="200" height="200" viewBox="0 0 200 200" version="1.1">
	<path d="M 80.109 24.750 C 74.862 35.083, 67.264 39.939, 56.285 39.978 C 48.639 40.005, 42.557 38.014, 34.243 32.764 C 28.355 29.045, 27.669 28.839, 25.335 30.088 C 22.271 31.728, 18 36.638, 18 38.520 C 18 39.272, 19 40.587, 20.223 41.443 C 22.089 42.751, 26.422 43, 47.296 43 C 66.688 43, 72.073 43.275, 71.812 44.250 C 71.628 44.938, 70.401 48.701, 69.086 52.614 L 66.694 59.727 61.839 56.709 C 55.686 52.884, 49.848 52.538, 45.367 55.734 C 35.078 63.074, 34.013 91.368, 43.625 102.007 L 46.936 105.671 41.778 106.862 C 34.912 108.447, 30.259 112.186, 27.432 118.393 C 23.913 126.116, 23.016 134.340, 23.008 158.945 L 23 181.391 26.328 177.758 C 28.158 175.759, 30.898 173.813, 32.417 173.431 C 37.063 172.266, 45.945 173.667, 58 177.468 C 64.325 179.462, 72.650 181.344, 76.500 181.649 C 82.718 182.142, 83.891 181.941, 87 179.851 C 89 178.506, 91.562 175.355, 92.977 172.499 C 95.067 168.282, 95.479 165.935, 95.610 157.500 C 95.714 150.787, 96.296 146.278, 97.382 143.782 C 100 137.765, 99.127 130.667, 94.360 119.212 C 92.920 115.754, 91.971 112.696, 92.249 112.417 C 92.892 111.775, 106 116.982, 106 117.879 C 106 118.246, 104.851 123.036, 103.446 128.523 C 98.775 146.769, 100.503 164.582, 107.882 174.259 C 118.537 188.233, 137.871 192.278, 161.587 185.494 C 165.892 184.262, 167.396 183.121, 171.364 178.069 C 177.295 170.521, 182 161.629, 182 157.971 C 182 156.083, 181.088 154.423, 179.250 152.969 C 176.828 151.051, 175.735 150.869, 170.082 151.441 C 163.936 152.063, 149.289 156.388, 138.333 160.817 C 132.653 163.113, 131.728 162.750, 130.467 157.725 C 128.295 149.069, 137.201 142.860, 162.926 135.097 C 177.727 130.630, 180.235 129.460, 179.805 127.225 C 179.379 125.015, 173.720 123.502, 158.213 121.453 L 145.328 119.750 141.014 122.875 C 133.618 128.233, 132.546 127.726, 122.325 114.037 C 115.701 105.166, 110.582 101.732, 103.255 101.248 C 99.800 101.019, 95.502 101.489, 92.500 102.422 C 86.948 104.149, 86.701 104.019, 83.325 97.609 L 81.802 94.717 91.151 95.268 C 97.080 95.618, 105.621 97.149, 114.500 99.453 C 132.205 104.048, 142.169 104.963, 147.413 102.474 C 152.864 99.888, 155.971 94.580, 157.158 85.826 C 157.704 81.797, 158.855 76.226, 159.716 73.447 C 161.162 68.775, 161.150 68.118, 159.547 64.741 C 156.515 58.350, 146.004 55.088, 128 54.950 C 123.325 54.914, 117.725 54.570, 115.556 54.185 L 111.612 53.484 114.082 51.866 C 115.440 50.976, 120.140 48.445, 124.526 46.242 C 131.928 42.523, 132.859 42.295, 137.500 43.058 C 144.784 44.256, 157.439 44.170, 162.534 42.887 C 173.340 40.166, 175.123 31.456, 165.680 27.511 C 158.618 24.560, 148.616 26.339, 137.434 32.532 C 131.399 35.875, 131.344 35.884, 126.934 34.350 C 121.779 32.557, 114.728 33.055, 109.897 35.553 C 102.674 39.289, 92.733 50.711, 87.150 61.692 C 85.241 65.446, 84.597 65.916, 80.992 66.192 C 76.058 66.569, 75.258 68.381, 79.830 68.819 C 81.922 69.020, 82.974 69.578, 82.660 70.319 C 82.385 70.969, 80.959 74.425, 79.492 78 C 78.025 81.575, 76.512 84.829, 76.130 85.232 C 75.748 85.635, 73.481 83.947, 71.092 81.482 C 64.179 74.349, 61.285 76.174, 64.502 85.638 C 66.470 91.427, 66.565 91.496, 70.519 89.993 C 71.976 89.439, 73.538 89.214, 73.990 89.494 C 75.697 90.549, 73.736 93.694, 70.679 94.801 C 68.931 95.435, 65.092 97.764, 62.150 99.977 C 55.145 105.244, 50.223 105.520, 45.897 100.890 C 37.646 92.057, 38.076 64.991, 46.581 57.933 C 49.503 55.508, 56.124 56.155, 60.931 59.336 C 64.735 61.853, 65.150 62.498, 64.633 65.086 C 64.212 67.188, 64.438 68, 65.442 68 C 66.207 68, 67.030 67.437, 67.271 66.750 C 67.582 65.860, 68.353 66.074, 69.952 67.494 L 72.197 69.488 79.040 62.311 C 89.083 51.779, 89.543 45.900, 80.592 42.482 L 76.161 40.790 77.941 36.645 C 78.919 34.365, 81.133 30.274, 82.860 27.554 C 84.587 24.834, 86 21.797, 86 20.804 C 86 17.126, 82.939 19.176, 80.109 24.750 M 147.326 30.986 C 141.504 33.057, 133 37.790, 133 38.959 C 133 40.110, 141.131 41.003, 151.390 40.978 C 162.637 40.951, 169 38.637, 169 34.575 C 169 29.185, 157.666 27.309, 147.326 30.986 M 23.766 34.933 C 19.126 39.100, 20.776 40.173, 32.686 40.734 L 42.500 41.197 35.155 36.598 C 31.116 34.069, 27.635 32, 27.421 32 C 27.207 32, 25.562 33.320, 23.766 34.933 M 111.500 37.875 C 109.300 38.881, 105.564 41.594, 103.197 43.903 C 99.097 47.902, 89 62.287, 89 64.128 C 89 64.608, 94.371 65, 100.935 65 C 114.571 65, 118.298 65.920, 117.819 69.168 C 117.376 72.172, 108.131 77.047, 92.327 82.611 C 85.272 85.095, 79.148 87.473, 78.717 87.896 C 78.287 88.319, 78.200 89.357, 78.524 90.202 C 78.978 91.386, 81.333 91.851, 88.807 92.233 C 95.373 92.568, 104.138 94.095, 115.974 96.964 C 143.059 103.531, 150.036 102.353, 153.518 90.627 C 154.333 87.883, 155 83.821, 155 81.602 C 155 79.383, 155.729 75.659, 156.619 73.327 C 160.843 62.268, 154.158 58.931, 124.808 57.447 C 111.689 56.784, 108.386 55.763, 109.549 52.733 C 110.320 50.724, 119.188 45.202, 126.939 41.905 L 132.378 39.591 128.439 37.822 C 123.360 35.540, 116.554 35.562, 111.500 37.875 M 71.721 38.414 C 70.195 39.571, 70.157 39.846, 71.455 40.344 C 72.362 40.692, 73.391 40.138, 74.020 38.963 C 75.232 36.698, 74.282 36.471, 71.721 38.414 M 73.206 49.250 C 68.832 61.102, 68.644 62.072, 70.385 63.814 C 71.863 65.292, 72.366 65.060, 76.577 60.961 C 84.561 53.190, 86.035 48.104, 81.050 45.526 C 76.345 43.093, 75.295 43.591, 73.206 49.250 M 83.408 75.632 C 81.495 79.829, 80.093 83.426, 80.292 83.625 C 80.864 84.198, 103.944 75.587, 109.750 72.635 C 112.638 71.167, 115 69.524, 115 68.983 C 115 68.386, 109.487 68, 100.943 68 L 86.886 68 83.408 75.632 M 66.086 81 C 66.088 81.825, 66.632 83.684, 67.295 85.131 C 68.169 87.039, 68.985 87.583, 70.266 87.112 C 71.842 86.532, 71.713 86.089, 69.057 82.981 C 67.298 80.924, 66.083 80.113, 66.086 81 M 76.868 95.752 C 75.536 96.037, 72 105.119, 72 108.253 C 72 109.138, 79.070 108.049, 81.750 106.751 C 84.612 105.366, 84.579 104.898, 81.250 99.698 C 79.498 96.961, 77.908 95.529, 76.868 95.752 M 69.492 98.235 C 68.396 98.832, 66.150 100.441, 64.500 101.810 C 62.850 103.180, 60.217 104.841, 58.650 105.502 C 55.822 106.694, 55.847 106.715, 61.909 108.242 C 65.268 109.089, 68.178 109.493, 68.376 109.141 C 69.270 107.541, 72.165 97.832, 71.844 97.510 C 71.645 97.312, 70.587 97.638, 69.492 98.235 M 92.218 105.256 C 90.413 105.834, 89.084 106.751, 89.265 107.294 C 89.445 107.836, 92.497 109.264, 96.047 110.468 C 101.159 112.201, 108.320 115.321, 109.710 116.420 C 109.825 116.511, 108.838 119.990, 107.517 124.150 C 98.399 152.863, 104.672 175.613, 123.779 183.128 C 131.400 186.125, 147.143 186.360, 157.780 183.635 C 164.699 181.862, 165.280 181.484, 169.490 176.012 C 187.656 152.405, 180.220 148.183, 144.204 161.657 C 130.383 166.827, 130.379 166.826, 127.881 158.838 C 126.889 155.663, 127.027 154.575, 128.924 150.656 C 132.457 143.358, 140.703 138.850, 162.185 132.469 C 168.958 130.457, 174.881 128.450, 175.346 128.009 C 176.443 126.970, 169.211 125.448, 155.755 123.888 C 145.404 122.687, 144.928 122.716, 142.755 124.696 C 139.778 127.407, 136.592 129, 134.142 129 C 131.339 129, 126.547 124.687, 122.047 118.116 C 117.370 111.286, 112.453 106.482, 108.685 105.061 C 105.202 103.748, 96.606 103.850, 92.218 105.256 M 37.970 111.250 C 33.223 113.648, 29.744 117.998, 27.867 123.882 C 26.756 127.363, 25.285 173, 26.283 173 C 26.543 173, 28.371 172.325, 30.346 171.500 C 34.945 169.578, 39.825 169.678, 48.216 171.867 C 53.856 173.338, 55.018 173.396, 55.466 172.228 C 56.570 169.352, 55.908 167.406, 52.839 164.510 C 47.668 159.629, 45.516 153.722, 45.522 144.421 C 45.526 137.101, 45.880 135.627, 49.290 128.727 C 51.979 123.288, 54.628 119.709, 58.563 116.201 L 64.073 111.291 58.370 110.145 C 49.442 108.352, 43.017 108.700, 37.970 111.250 M 76.669 112.958 C 75.112 113.955, 73.008 114.553, 71.993 114.288 C 69.880 113.735, 69.658 114.366, 65.043 134 C 60.824 151.949, 58.701 165.101, 59.838 166.238 C 60.437 166.837, 60.431 168.478, 59.821 170.687 C 59.289 172.612, 59.092 174.425, 59.382 174.716 C 60.652 175.985, 73.880 179, 78.181 179 C 84.588 179, 87.317 177.547, 90.116 172.647 C 92.180 169.032, 92.508 167.047, 92.672 157.186 C 92.789 150.163, 93.313 145.328, 94.053 144.436 C 97.366 140.444, 95.805 128.278, 90.499 116.750 C 87.882 111.063, 87.808 111.001, 83.677 111.073 C 81.380 111.113, 78.226 111.962, 76.669 112.958 M 60.139 118.565 C 56.884 121.491, 53.883 125.523, 51.781 129.794 C 48.844 135.759, 48.500 137.360, 48.500 145.057 C 48.500 152.872, 48.774 154.098, 51.500 158.490 C 53.150 161.149, 54.930 163.268, 55.455 163.199 C 55.980 163.131, 57.387 157.771, 58.580 151.287 C 60.477 140.988, 65.015 120.860, 66.594 115.750 C 67.482 112.875, 65.512 113.734, 60.139 118.565" stroke="none" fill="black" fill-rule="evenodd"/>
</svg>