<svg xmlns="http://www.w3.org/2000/svg" width="200" height="200" viewBox="0 0 200 200" version="1.1">
	<path d="M 81 14.023 C 51.074 15.955, 39 17.972, 39 21.036 C 39 23.592, 46.004 24.884, 64.102 25.667 L 79 26.312 78.985 30.906 C 78.959 38.585, 78.965 38.583, 64.313 37.249 C 53.598 36.274, 33.053 32.045, 26.885 29.544 C 23.005 27.971, 23.819 49.828, 27.940 57.863 C 30.612 63.072, 33.480 65.381, 42.201 69.343 C 48.965 72.416, 50.008 73.246, 50.778 76.171 C 51.260 78.002, 51.480 80.193, 51.266 81.039 C 51.045 81.914, 47.558 83.761, 43.189 85.318 C 33.624 88.726, 28.252 91.739, 25.769 95.088 C 23.941 97.555, 23.885 99.025, 24.576 126.414 C 25.400 159.084, 25.286 158.632, 34.257 164.661 C 50.761 175.754, 94.915 180.439, 111.947 172.905 C 116.625 170.836, 121 167.359, 121 165.710 C 121 165.192, 122.587 162.606, 124.526 159.964 C 131.904 149.914, 136.935 135.275, 142.040 109 C 147.151 82.696, 149.078 74.860, 150.335 75.270 C 150.976 75.480, 152.479 78.317, 153.676 81.575 C 155.839 87.464, 164 119.529, 164 122.138 C 164 122.889, 161.874 124.628, 159.276 126.002 C 152.846 129.403, 143.896 138.431, 140.937 144.500 C 138.968 148.539, 138.500 151.052, 138.500 157.573 C 138.500 164.734, 138.815 166.122, 141.290 169.862 C 150.475 183.742, 165.937 179.148, 172.928 160.462 C 174.081 157.381, 175.696 150.729, 176.517 145.680 C 177.338 140.631, 178.678 132.900, 179.494 128.500 C 183.700 105.831, 183.523 91.818, 178.874 79.393 C 177.075 74.584, 174.681 71.504, 164.995 61.535 C 158.557 54.910, 152.310 47.567, 151.112 45.219 C 147.981 39.082, 145.296 26.735, 146.970 26.177 C 147.673 25.942, 149.654 24.482, 151.374 22.932 L 154.500 20.113 152.486 18.070 C 151.379 16.947, 148.229 15.563, 145.486 14.994 C 138.652 13.577, 97.501 12.957, 81 14.023 M 83.500 16.618 C 75.677 17.088, 55.819 18.874, 49.687 19.658 C 41.764 20.672, 45.725 21.879, 59.008 22.499 C 65.879 22.820, 73.923 23.328, 76.885 23.630 L 82.271 24.178 81.628 31.089 L 80.986 38 83.908 38 C 87.080 38, 96.914 33.086, 112.263 23.831 C 120.367 18.944, 122.362 18.123, 124.001 19.001 C 128.765 21.550, 127.181 27.871, 120.786 31.823 C 116.624 34.396, 102.387 38.565, 94.490 39.523 C 91.195 39.923, 87.600 40.727, 86.500 41.309 C 84.858 42.178, 86.058 42.595, 93.203 43.636 C 97.990 44.334, 104.099 45.847, 106.777 46.999 L 111.647 49.095 116.922 46.445 C 123.923 42.929, 125.615 44.462, 120.019 49.252 L 115.906 52.772 118.439 56.505 C 122.116 61.924, 123.130 66.164, 123.695 78.500 C 124.245 90.477, 122.732 104.680, 118.377 128.432 C 114.379 150.240, 110.468 160.643, 107.060 158.537 C 103.463 156.314, 101.827 144.431, 100.378 110 C 99.996 100.925, 99.492 94.063, 99.259 94.750 C 99.025 95.437, 98.160 96, 97.337 96 C 96.174 96, 95.995 95.276, 96.532 92.750 C 96.912 90.963, 97.840 88.798, 98.594 87.941 C 99.794 86.576, 99.420 86.117, 95.593 84.258 C 93.189 83.090, 89.693 80.792, 87.825 79.151 C 84.593 76.313, 84.327 76.249, 82.347 77.834 C 81.202 78.750, 80.009 80.565, 79.696 81.868 C 78.636 86.269, 80.968 130.404, 82.977 143.965 C 84.236 152.468, 84.621 157.779, 84.021 158.379 C 83.421 158.979, 80.517 158.152, 76.140 156.134 C 66.318 151.607, 57.358 149.933, 46.899 150.671 C 36.882 151.378, 31 150.558, 31 148.455 C 31 147.258, 33.265 146.998, 43.750 146.989 C 51.793 146.982, 58.205 146.461, 61.119 145.577 C 70.614 142.695, 78.425 137.338, 77.769 134.159 C 77.008 130.467, 64.765 133.155, 48.309 140.628 C 45.994 141.679, 38 122.848, 38 116.343 C 38 114.267, 38.806 112.194, 40.127 110.873 C 41.965 109.035, 43.054 108.818, 48.127 109.278 C 53.977 109.808, 54 109.800, 54 107.101 C 54 102.946, 59.357 95.337, 68.609 86.349 C 73.517 81.581, 77 77.382, 77 76.233 C 77 74.460, 76.587 74.348, 72.750 75.091 C 67.012 76.201, 67 76.200, 67 74.562 C 67 73.772, 69.186 71.935, 71.858 70.481 L 76.716 67.837 77.398 57.291 C 77.773 51.492, 77.908 46.574, 77.698 46.365 C 77.488 46.155, 74.023 47.341, 69.998 49.001 C 59.017 53.529, 50.308 56, 45.329 56 C 31.119 56, 35.996 45.408, 52.474 40.482 L 56.449 39.294 51.474 38.551 C 48.738 38.142, 42.332 36.726, 37.237 35.404 C 32.143 34.082, 27.693 33, 27.349 33 C 26.092 33, 27.788 50.613, 29.418 54.486 C 31.908 60.403, 34.643 62.819, 43.509 66.932 C 52.320 71.020, 54 73.129, 54 80.098 C 54 84.553, 54.904 83.941, 40.107 89.505 C 36.040 91.034, 31.355 93.498, 29.694 94.982 C 26.159 98.141, 26.254 96.687, 27.320 131.444 C 27.859 148.996, 28.369 154.915, 29.492 156.628 C 33.485 162.721, 43.968 167.681, 60.117 171.117 C 74.003 174.070, 98.601 174.397, 107.183 171.741 C 112.621 170.059, 119 165.833, 119 163.913 C 119 163.414, 120.572 160.817, 122.493 158.143 C 129.943 147.773, 134.120 134.866, 140.500 102.500 C 145.680 76.225, 146.478 73.350, 148.954 72.025 C 152.984 69.868, 156.120 77.109, 162.569 103.467 C 164.996 113.385, 166.986 122.245, 166.991 123.155 C 166.996 124.128, 164.666 126.126, 161.331 128.009 C 154.138 132.068, 146.055 140.143, 143.149 146.173 C 136.857 159.226, 143.204 175, 154.748 175 C 158.874 175, 159.774 174.550, 163.564 170.594 C 166.004 168.048, 168.670 163.826, 169.879 160.593 C 171.897 155.200, 172.539 152.165, 176.981 127 C 181.117 103.572, 180.670 89.520, 175.437 78.458 C 173.812 75.024, 169.383 69.676, 162.141 62.404 C 150.198 50.412, 146.710 44.841, 144.440 34.131 C 142.470 24.834, 142.523 24.595, 147.011 22.615 C 151.619 20.582, 151.441 19.538, 146.214 17.936 C 142.580 16.822, 96.291 15.850, 83.500 16.618 M 120.418 21.982 C 119.864 22.536, 114.281 25.916, 108.010 29.494 C 101.739 33.072, 97.419 36, 98.410 36 C 104.425 36, 120.094 30.001, 122.895 26.626 C 125.203 23.845, 122.891 19.509, 120.418 21.982 M 57.871 41.968 C 49.484 43.475, 40 48.554, 40 51.538 C 40 55.038, 50.902 53.349, 66.250 47.470 C 75.854 43.792, 78.274 42, 73.640 42 C 72.341 42, 69.304 41.806, 66.890 41.568 C 64.475 41.330, 60.417 41.510, 57.871 41.968 M 80.510 50.177 C 80.145 53.654, 79.993 58.605, 80.173 61.177 L 80.500 65.855 93.673 58.677 C 100.918 54.730, 107.134 51.208, 107.487 50.852 C 108.483 49.848, 99.271 47.149, 91.500 46.168 C 87.650 45.682, 83.752 44.962, 82.837 44.569 C 81.421 43.959, 81.076 44.790, 80.510 50.177 M 94.020 61.493 C 86.607 65.554, 80.400 69.299, 80.229 69.814 C 80.057 70.329, 81.134 70.984, 82.622 71.268 C 84.854 71.695, 87.312 70.294, 96.664 63.270 C 106.368 55.981, 109.015 53.781, 107.750 54.054 C 107.612 54.084, 101.434 57.431, 94.020 61.493 M 101.905 62.619 C 96.182 66.809, 90.485 71.165, 89.244 72.298 L 86.989 74.359 89.244 76.780 C 91.823 79.547, 99.276 83.450, 109.670 87.476 C 114.651 89.405, 116.680 90.671, 116.315 91.621 C 116.027 92.373, 115.481 92.798, 115.104 92.564 C 114.726 92.331, 111.351 90.986, 107.604 89.575 C 101.737 87.367, 100.881 87.247, 101.443 88.712 C 101.802 89.647, 102.744 102.383, 103.537 117.013 C 104.330 131.644, 105.433 146.012, 105.989 148.944 C 106.545 151.875, 107 154.437, 107 154.636 C 107 154.836, 107.413 155, 107.918 155 C 109.448 155, 112.838 143.287, 115.445 129 C 119.897 104.600, 121.224 92.249, 120.820 78.959 C 120.478 67.690, 120.156 65.840, 117.646 60.709 C 116.110 57.569, 114.281 55, 113.582 55 C 112.882 55, 107.628 58.428, 101.905 62.619 M 80 75.059 C 80 75.641, 80.450 75.840, 81 75.500 C 81.550 75.160, 82 74.684, 82 74.441 C 82 74.198, 81.550 74, 81 74 C 80.450 74, 80 74.477, 80 75.059 M 68.128 90.622 C 55.957 103.191, 53.395 110.862, 60.779 112.627 C 64.606 113.541, 77.335 123.065, 76.220 124.180 C 75.686 124.714, 72.400 123.280, 68.144 120.656 C 58.881 114.945, 50.367 111.774, 45.392 112.181 L 41.500 112.500 41.619 118 C 41.702 121.856, 42.700 125.637, 44.957 130.647 L 48.176 137.795 54.608 134.878 C 62.078 131.491, 73.348 128.658, 76.003 129.501 C 77.760 130.059, 77.815 129.074, 77.285 106.792 C 76.981 93.981, 76.547 83.293, 76.323 83.040 C 76.098 82.787, 72.410 86.199, 68.128 90.622 M 76.863 140.681 C 76.113 141.593, 72.386 143.786, 68.580 145.553 L 61.660 148.767 65.724 149.453 C 67.960 149.831, 72.586 151.463, 76.005 153.080 L 82.222 156.020 81.644 153.718 C 81.326 152.452, 80.763 148.835, 80.392 145.680 C 79.643 139.305, 78.881 138.226, 76.863 140.681" stroke="none" fill="black" fill-rule="evenodd"/>
</svg>