<svg xmlns="http://www.w3.org/2000/svg" width="200" height="200" viewBox="0 0 200 200" version="1.1">
	<path d="M 95.040 14.469 C 89.018 15.946, 71.179 24.642, 66.563 28.350 L 63.626 30.710 58.711 28.160 C 52.913 25.152, 44.641 24.751, 33.500 26.939 C 24.975 28.613, 21.085 31.980, 18.347 40.053 C 16.665 45.014, 16.499 49.333, 16.490 88.500 C 16.485 112.150, 16.099 134.056, 15.634 137.180 L 14.787 142.859 19.929 144.386 C 30.840 147.627, 36.837 148.355, 42.385 147.113 C 47.008 146.079, 57.599 139.977, 76.140 127.667 L 78.780 125.914 79.895 130.707 C 80.508 133.343, 82.110 142.085, 83.455 150.133 C 88.109 177.988, 93.306 186.163, 106.338 186.130 C 112.708 186.114, 118.475 184.122, 127.281 178.898 L 134.061 174.874 138.918 178.440 C 145.581 183.331, 149.153 183.938, 152.364 180.727 C 155.912 177.179, 156.734 173.096, 158.511 150.218 C 161.150 116.219, 165.563 108.146, 179.749 111.371 C 182.085 111.902, 184.305 112.028, 184.682 111.651 C 185.985 110.348, 183.382 109.003, 177.454 107.917 C 168.544 106.286, 150.487 100.227, 147.831 97.977 C 145.661 96.137, 145.618 95.909, 147.217 94.665 C 148.161 93.929, 154.318 91.861, 160.898 90.069 C 172.442 86.924, 177.001 84.429, 175.535 82.056 C 174.444 80.292, 169.663 78.188, 162.889 76.493 C 156.551 74.907, 156.405 74.919, 144.682 77.947 C 121.108 84.037, 116.475 80.224, 136.222 70.983 C 147.513 65.699, 157.879 63.666, 170.480 64.264 C 176.541 64.552, 182.229 65.086, 183.121 65.451 C 184.117 65.859, 184.964 65.537, 185.317 64.617 C 185.948 62.971, 186.588 63.125, 160.500 58.655 C 140.649 55.253, 126.622 51.971, 127.660 50.970 C 128.122 50.525, 133.581 49.420, 139.792 48.515 C 160.878 45.441, 167.235 42.914, 167.796 37.382 C 168.019 35.180, 167.318 33.730, 164.944 31.481 L 161.795 28.500 160.147 30.991 C 155.799 37.567, 151.790 41, 148.460 41 C 143.618 41, 139.962 37.368, 132.263 24.907 C 123.785 11.186, 121.071 9.914, 118.864 18.628 C 118.313 20.803, 117.901 37.535, 117.924 56.812 L 117.965 91.125 108.232 84.422 C 102.880 80.736, 97.612 76.883, 96.528 75.860 C 94.578 74.021, 94.590 74, 97.528 73.968 L 100.500 73.937 97.722 71.865 C 93.932 69.037, 92.135 65.208, 90.439 56.343 C 88.048 43.848, 88.173 43.362, 95.664 36 C 112.126 19.821, 111.852 10.346, 95.040 14.469 M 92 18.354 C 83.818 21.264, 69.506 28.812, 65.238 32.466 C 65.094 32.590, 65.894 34.766, 67.016 37.303 C 68.202 39.985, 69.317 45.300, 69.680 50.004 L 70.304 58.093 79.902 64.681 C 85.181 68.304, 90.329 71.496, 91.342 71.775 C 93.075 72.251, 93.062 72.041, 91.110 68.216 C 88.997 64.075, 86 49.486, 86 43.344 C 86 40.704, 86.521 39.753, 88.346 39.059 C 91.051 38.030, 101.114 27.060, 103.619 22.410 C 107.187 15.783, 103.171 14.381, 92 18.354 M 121.610 18.750 C 120.568 23.350, 119.663 64.042, 120.441 71.301 L 121.170 78.103 123.834 75.438 C 128.641 70.632, 141.744 64.830, 153 62.523 L 158.500 61.396 149.500 59.643 C 137.654 57.335, 125.889 54.153, 124.285 52.822 C 120.474 49.658, 124.248 47.796, 138.368 45.872 L 147.235 44.664 143.641 42.820 C 139.674 40.785, 134.499 34.301, 128.022 23.250 C 125.684 19.262, 123.426 16, 123.003 16 C 122.579 16, 121.953 17.238, 121.610 18.750 M 34.500 29.558 C 19.621 32.775, 17.708 40.503, 19.165 91.500 C 19.558 105.250, 19.479 121.884, 18.988 128.465 C 18.498 135.046, 18.268 140.601, 18.477 140.811 C 19.493 141.826, 33.854 145, 37.432 144.999 C 42.767 144.998, 50.365 141.272, 66.500 130.745 C 76.841 123.998, 79.672 122.558, 80.341 123.705 C 81.898 126.375, 83.050 131.428, 85.539 146.500 C 86.901 154.750, 88.988 164.598, 90.177 168.386 C 92.819 176.803, 97.718 182.481, 103.231 183.515 C 108.506 184.505, 118.981 181.088, 127.524 175.592 L 134.499 171.104 137 173.391 C 141.680 177.672, 145.999 180.139, 148.252 179.819 C 152.498 179.216, 153.922 173.919, 155.514 152.812 C 157.620 124.894, 159.513 117.136, 165.597 111.497 C 167.091 110.113, 168.130 108.856, 167.907 108.705 C 167.683 108.554, 163.611 107.196, 158.858 105.688 C 149.408 102.690, 143.702 99.408, 143.174 96.667 C 142.470 93.011, 144.706 91.912, 164.750 86.059 C 168.738 84.895, 172 83.523, 172 83.011 C 172 81.946, 159.878 77.996, 156.645 78.008 C 155.465 78.012, 151.599 78.897, 148.054 79.975 C 137.467 83.195, 127.380 84.582, 123.956 83.289 L 121 82.174 121.013 87.837 L 121.026 93.500 128.263 98.192 C 132.243 100.773, 136.811 103.377, 138.413 103.979 C 140.543 104.780, 141.028 105.372, 140.218 106.182 C 138.781 107.619, 135.347 106.214, 127.460 100.964 L 121.500 96.996 121.186 100.009 C 120.958 102.194, 121.713 104.041, 123.936 106.738 C 126.986 110.439, 127.854 113, 126.057 113 C 125.538 113, 124.413 112, 123.557 110.777 C 122.098 108.695, 122 109.122, 122.003 117.527 C 122.006 126.393, 122.042 126.524, 125.016 128.500 C 126.672 129.600, 129.840 132.721, 132.056 135.437 C 136.848 141.308, 135.949 142.627, 128.124 141.204 L 123.237 140.316 121.654 150.549 C 119.317 165.655, 116.747 170.991, 112.578 169.391 C 108.323 167.759, 105.429 146.598, 107.931 135.419 C 109.090 130.239, 109.016 129.777, 106.055 123.762 C 100.404 112.285, 101.051 98.757, 107.387 95.869 C 109.442 94.933, 110.588 95.105, 113.939 96.851 L 118 98.968 118 96.707 C 118 94.943, 115.198 92.488, 105.250 85.539 C 98.238 80.640, 91.600 76.459, 90.500 76.247 C 87.731 75.714, 82.088 79.797, 79.786 84 C 78.174 86.943, 77.952 88.852, 78.393 96 C 78.682 100.675, 79.218 106.862, 79.586 109.750 C 80.229 114.800, 80.164 115, 77.877 114.994 C 76.570 114.990, 73.091 113.078, 70.147 110.744 L 64.794 106.500 65.403 90.500 C 65.738 81.700, 66.295 71.073, 66.640 66.884 L 67.268 59.268 58.926 54.134 C 54.338 51.310, 50.011 49, 49.311 49 C 48.611 49, 47.846 50.013, 47.612 51.250 C 47.377 52.487, 46.693 55.897, 46.093 58.826 C 44.463 66.772, 44.738 69.535, 47.485 72.800 L 49.971 75.754 48.999 89.127 C 47.226 113.512, 45.951 120.330, 43.258 119.811 C 42.360 119.638, 41.209 117.923, 40.698 115.998 C 39.866 112.864, 40.269 84.853, 41.467 62.500 C 42.030 51.997, 42.029 52.059, 41.745 48 C 41.511 44.659, 41.649 44.501, 44.782 44.512 C 47.466 44.521, 49.234 43.382, 54.482 38.261 L 60.900 32 57.708 30.349 C 53.341 28.091, 42.929 27.736, 34.500 29.558 M 158.060 38.133 C 153.877 43.013, 153.773 43.274, 156.266 42.648 C 164.513 40.578, 166.904 38.324, 164.265 35.106 L 162.500 32.953 158.060 38.133 M 56.234 40.515 C 53.080 43.624, 50.995 46.370, 51.600 46.617 C 52.205 46.865, 55.918 49.050, 59.850 51.475 L 67 55.883 67 51.123 C 67 45.948, 64.548 36.457, 62.958 35.474 C 62.413 35.137, 59.387 37.406, 56.234 40.515 M 44 48 C 44 48.550, 44.450 49, 45 49 C 45.550 49, 46 48.550, 46 48 C 46 47.450, 45.550 47, 45 47 C 44.450 47, 44 47.450, 44 48 M 69.617 65.750 C 69.262 67.813, 68.698 77.600, 68.365 87.500 L 67.758 105.500 72.052 108.743 C 74.414 110.527, 76.559 111.775, 76.818 111.515 C 77.078 111.255, 76.712 107.661, 76.005 103.527 C 73.586 89.387, 76.193 80.384, 84.067 75.688 L 87.986 73.351 79.631 67.676 C 75.035 64.554, 71.047 62, 70.768 62 C 70.490 62, 69.971 63.688, 69.617 65.750 M 43.627 78.117 C 42.533 87.065, 42.148 101.699, 42.840 108 L 43.554 114.500 44.280 109.592 C 44.679 106.893, 45.479 98.384, 46.058 90.684 C 46.960 78.700, 46.900 76.471, 45.637 75.209 C 44.338 73.909, 44.099 74.254, 43.627 78.117 M 106.391 100.527 C 102.838 105.949, 107.519 127.293, 112 126.101 C 112.825 125.881, 114.737 125.493, 116.250 125.237 L 119 124.773 119 114.561 C 119 103.618, 118.415 102.266, 112.316 99.125 C 109.145 97.492, 108.238 97.706, 106.391 100.527 M 113.595 128.847 C 112.951 129.888, 118.741 135.593, 119.585 134.749 C 119.918 134.416, 119.887 132.761, 119.516 131.072 C 118.995 128.700, 118.303 128, 116.480 128 C 115.181 128, 113.882 128.381, 113.595 128.847 M 122 133.426 C 122 136.674, 122.292 137.002, 126.101 138.027 C 128.356 138.635, 130.400 138.933, 130.642 138.691 C 131.279 138.055, 126.123 132.136, 123.892 130.942 C 122.204 130.039, 122 130.306, 122 133.426 M 110.551 135.655 C 108.546 143.640, 111.086 167, 113.958 167 C 115.344 167, 117.813 158.328, 119.176 148.677 L 120.422 139.854 116.461 136.464 C 114.282 134.600, 112.211 133.058, 111.858 133.038 C 111.506 133.017, 110.917 134.195, 110.551 135.655" stroke="none" fill="black" fill-rule="evenodd"/>
</svg>