<svg xmlns="http://www.w3.org/2000/svg" width="200" height="200" viewBox="0 0 200 200" version="1.1">
	<path d="M 67.987 34.592 L 53.500 49.184 42.259 48.552 C 30.358 47.882, 27 48.615, 27 51.880 C 27 52.876, 27.895 54.500, 28.989 55.490 C 30.670 57.011, 32.143 57.202, 38.489 56.722 C 42.620 56.410, 46 56.302, 46 56.483 C 46 56.663, 44.405 58.720, 42.455 61.054 C 38.336 65.984, 38.349 68.075, 42.510 69.439 C 46.622 70.788, 46.598 70.734, 44.233 73.254 C 38.708 79.139, 36.411 90.429, 39.524 96.399 C 40.355 97.993, 40.915 99.378, 40.768 99.475 C 40.621 99.573, 36.730 100.493, 32.123 101.519 C 27.516 102.546, 22.793 104.156, 21.629 105.099 L 19.512 106.813 22.887 108.657 C 38.944 117.428, 42.913 124.313, 40.058 138.437 C 39.384 141.772, 38.394 146.667, 37.859 149.316 C 35.787 159.565, 40.532 170.209, 49.791 176.084 C 60.122 182.639, 78.904 185.942, 95.667 184.153 C 102.054 183.471, 109.004 183.423, 115.500 184.016 C 121 184.518, 131.873 184.945, 139.662 184.964 C 166.673 185.032, 180.128 180.088, 184.568 168.462 C 186.240 164.082, 186.225 163.903, 183.517 156.258 C 178.120 141.027, 174.116 135.252, 169.717 136.356 C 168.417 136.683, 165.178 139.661, 162.519 142.976 C 156.906 149.974, 152.807 153.313, 146.291 156.195 C 141.937 158.121, 139.651 158.270, 113.058 158.349 C 80.634 158.445, 76.660 157.793, 71.101 151.462 C 65.969 145.617, 65.107 139.783, 67.218 125.182 C 68.160 118.664, 68.894 116.460, 70.468 115.431 C 76.400 111.550, 97.718 109.011, 108.835 110.862 C 121.523 112.974, 125.556 117.051, 121.023 123.183 C 118.914 126.036, 118.905 126.198, 120.574 131.297 C 126.617 149.761, 134.058 155.459, 141.636 147.425 C 143.490 145.458, 148.153 137.696, 151.997 130.175 C 155.842 122.654, 159.777 115.531, 160.744 114.346 C 161.710 113.161, 166.099 110.767, 170.497 109.027 C 178.723 105.772, 182 103.614, 182 101.452 C 182 99.725, 180.177 99.179, 168.620 97.444 C 163.054 96.608, 156.925 95.154, 155 94.212 C 151.291 92.398, 151.347 92.648, 152.659 83.728 C 153.453 78.332, 152.305 73.515, 149.400 70.063 C 142.328 61.659, 127.632 67.825, 121.188 81.901 C 119.129 86.398, 118.646 88.969, 118.686 95.212 C 118.727 101.516, 118.436 103.032, 117.118 103.398 C 112.993 104.543, 91.702 104.986, 84.761 104.071 C 76.415 102.972, 69.687 100.153, 68.033 97.062 C 65.298 91.951, 68.082 81.682, 75.031 71.250 C 76.617 68.870, 76.835 67.967, 75.848 67.877 C 75.107 67.810, 69.832 67.473, 64.127 67.127 L 53.753 66.500 60.127 61.708 C 65.715 57.507, 66.971 56.973, 70.322 57.373 C 76.007 58.051, 81.330 62.054, 84.007 67.665 C 85.829 71.484, 86.413 74.759, 86.786 83.250 C 87.250 93.837, 87.294 94, 89.686 94 C 94.717 94, 100.920 91.707, 103.980 88.715 C 108.167 84.622, 109.378 82.106, 112.495 71.018 C 116.015 58.498, 118.105 54.653, 122.531 52.552 C 124.528 51.604, 126.403 51.070, 126.697 51.363 C 126.991 51.657, 126.723 53.355, 126.102 55.136 C 124.333 60.211, 126.424 60.797, 129.129 55.984 C 131.445 51.864, 131.555 51.804, 135.833 52.391 C 138.224 52.718, 142.174 53.868, 144.611 54.946 C 150.482 57.543, 159.458 58.492, 164.726 57.074 C 172.347 55.022, 174.240 48.621, 168.994 42.646 C 164.877 37.957, 160.289 36, 153.415 36 C 146.445 36, 140.817 38.471, 135.057 44.060 C 131.668 47.349, 131 47.671, 131 46.015 C 131 44.924, 129.686 42.562, 128.080 40.766 L 125.160 37.500 114.830 37.546 C 106.045 37.586, 103.137 38.049, 95.390 40.646 L 86.280 43.699 87.239 40.574 C 87.885 38.469, 87.827 36.070, 87.060 33.224 C 85.367 26.936, 83.777 27.901, 84.547 34.750 C 85.113 39.779, 84.910 40.860, 82.929 43.371 C 79.755 47.395, 75.158 49.024, 65.148 49.671 L 56.500 50.230 70.250 36.352 C 82.536 23.952, 85.674 20, 83.237 20 C 82.817 20, 75.955 26.566, 67.987 34.592 M 147 39.546 C 144.525 40.320, 140.545 42.651, 138.156 44.727 L 133.811 48.500 143.656 51.768 C 158.807 56.797, 168.161 55.908, 168.802 49.377 C 169.045 46.909, 168.406 45.685, 165.580 43.204 C 162.285 40.311, 156.440 37.928, 153 38.075 C 152.175 38.110, 149.475 38.772, 147 39.546 M 108.622 40.053 C 101.254 41.288, 88.442 45.772, 79.593 50.212 L 71.686 54.180 75.593 55.968 C 84.604 60.091, 88.747 67.803, 89.712 82.250 C 90.377 92.210, 90.882 92.599, 98.595 89.096 C 104.013 86.636, 106.128 82.933, 110.358 68.504 C 113.490 57.819, 114.314 56.097, 117.898 52.754 C 120.720 50.122, 122.831 49, 124.961 49 C 127.469 49, 128 48.596, 128 46.691 C 128 43.185, 125.867 40.987, 121.473 39.969 C 116.918 38.913, 115.363 38.923, 108.622 40.053 M 30.244 52.250 C 30.788 53.907, 36.016 54.346, 44 53.407 L 50.500 52.642 46 51.895 C 38.378 50.630, 29.776 50.824, 30.244 52.250 M 55.269 52.693 C 56.242 52.947, 57.592 52.930, 58.269 52.656 C 58.946 52.382, 58.150 52.175, 56.500 52.195 C 54.850 52.215, 54.296 52.439, 55.269 52.693 M 64 52.393 C 64 53.364, 66.817 53.729, 68.091 52.923 C 69.116 52.273, 68.751 52.026, 66.750 52.015 C 65.237 52.007, 64 52.177, 64 52.393 M 46.084 60.750 C 43.845 63.362, 42.010 65.838, 42.006 66.250 C 42.003 66.662, 43.608 67, 45.573 67 C 48.385 67, 50.643 65.829, 56.175 61.500 L 63.204 56 56.680 56 L 50.156 56 46.084 60.750 M 132.386 72.250 C 123.604 78.146, 119.331 91.037, 122.308 102.652 L 123.116 105.805 113.308 106.594 L 103.500 107.383 109.500 108.186 C 117.329 109.234, 124.193 112.763, 125.471 116.397 C 126.253 118.621, 126.016 119.972, 124.290 123.123 C 122.154 127.023, 122.150 127.122, 123.942 132.331 C 128.207 144.727, 132.767 150.265, 136.892 148.058 C 140.079 146.352, 143.249 141.499, 150.336 127.476 C 153.956 120.314, 158.174 113.271, 159.709 111.827 C 161.244 110.383, 165.799 107.898, 169.831 106.305 C 173.863 104.711, 177.187 102.978, 177.216 102.454 C 177.245 101.929, 173.046 100.915, 167.885 100.201 C 157.642 98.783, 150.051 95.682, 148.928 92.456 C 148.537 91.331, 148.829 88.631, 149.578 86.456 C 151.434 81.066, 150.373 75.219, 146.910 71.756 C 143.078 67.924, 138.601 68.076, 132.386 72.250 M 47.221 73.750 C 39.931 83.026, 38.570 91.959, 43.546 97.872 L 46.092 100.898 42.296 101.900 C 40.208 102.451, 35.180 103.648, 31.123 104.560 L 23.746 106.218 29.062 109.125 C 35.715 112.763, 37.611 114.477, 40.543 119.499 C 44.114 125.617, 44.549 132.004, 42.096 142.332 C 40.943 147.186, 40 152.533, 40 154.213 C 40 166.155, 49.576 175.794, 65.087 179.465 C 73.929 181.557, 89.018 182.378, 98 181.257 C 102.396 180.708, 109.018 180.673, 114 181.172 C 129.488 182.724, 154.788 182.450, 162.271 180.649 C 173.784 177.878, 181.004 172.817, 182.618 166.388 C 183.800 161.678, 174.437 139, 171.310 139 C 170.400 139, 166.539 142.382, 162.730 146.515 C 155.760 154.079, 149.992 158.229, 143.834 160.109 C 138.343 161.786, 85.138 161.230, 79.085 159.433 C 66.284 155.631, 61.872 146.078, 64.104 127 C 64.816 120.909, 65.944 115.780, 66.789 114.786 C 68.773 112.450, 75.148 110.140, 84.060 108.527 C 90.848 107.298, 91.100 107.173, 86.932 107.090 C 81.328 106.980, 72.406 104.421, 68.882 101.914 C 62.859 97.629, 62.597 88.564, 68.186 77.835 C 70.001 74.351, 71.639 71.162, 71.826 70.750 C 72.013 70.338, 67.217 70, 61.167 70 L 50.168 70 47.221 73.750" stroke="none" fill="black" fill-rule="evenodd"/>
</svg>