<svg xmlns="http://www.w3.org/2000/svg" width="200" height="200" viewBox="0 0 200 200" version="1.1">
	<path d="M 66.282 13.537 C 60.997 14.961, 48.579 20.794, 44 24.004 C 42.625 24.967, 39.691 26.058, 37.481 26.427 C 27.265 28.132, 21 35.388, 21 45.514 C 21 48.313, 22.123 56.880, 23.496 64.552 C 27.875 89.026, 26.630 99.746, 18.338 108.969 L 13.696 114.132 14.331 127.372 C 15.861 159.267, 20.362 171.883, 29.401 169.614 C 30.920 169.233, 35.259 166.014, 39.042 162.460 C 42.825 158.907, 46.563 156, 47.347 156 C 49.374 156, 50.288 163.481, 49.530 173.872 L 48.900 182.500 51.480 179.500 C 59.268 170.446, 65.829 157.693, 69.183 145.093 C 71.460 136.538, 72.003 117.194, 70.208 108.541 C 69.388 104.586, 69.471 103.168, 70.614 101.541 C 72.047 99.503, 72.050 99.503, 72.633 101.718 C 73.381 104.560, 91.090 113.510, 99.127 115.108 C 113.503 117.966, 116.600 107.723, 107.623 87.008 C 105.633 82.417, 104.120 78.547, 104.260 78.407 C 104.400 78.267, 108.561 77.434, 113.507 76.556 L 122.500 74.960 125.284 78.230 C 128.206 81.662, 131 89.435, 131 94.132 C 131 99.877, 128.604 107.868, 123.543 119 C 120.668 125.325, 116.619 135.342, 114.545 141.261 C 112.471 147.179, 110.441 152.228, 110.033 152.480 C 109.624 152.732, 109.041 148.761, 108.736 143.656 C 107.793 127.847, 104.874 123.784, 94.018 123.171 C 85.936 122.714, 81.263 124.041, 77.801 127.773 C 72.372 133.627, 71.620 142.530, 75.514 154.856 C 80.825 171.666, 93.687 184.904, 104.782 184.978 C 112.703 185.031, 120.822 178.263, 126.186 167.136 C 127.945 163.486, 129.503 160.333, 129.647 160.129 C 129.791 159.925, 132.452 162.026, 135.562 164.797 C 146.712 174.735, 157.271 178.316, 163.891 174.405 C 172.791 169.148, 176.148 154.638, 177.983 113.500 C 179.185 86.538, 180.351 75.092, 182.519 68.945 C 183.334 66.637, 184 64.576, 184 64.366 C 184 64.155, 181.637 65.308, 178.750 66.928 C 171.703 70.882, 165.281 72.438, 161.673 71.066 C 156.602 69.138, 154.860 62.991, 153.493 42.196 C 152.460 26.487, 151.997 23.478, 150.261 21.181 C 147.273 17.229, 141.735 17.576, 135.358 22.116 L 130.500 25.575 124 23.786 C 120.425 22.803, 113.435 21.620, 108.467 21.157 C 101.181 20.478, 98.637 19.788, 95.314 17.589 C 87.086 12.144, 76.789 10.707, 66.282 13.537 M 65 16.889 C 59.202 18.767, 49.540 23.505, 44.500 26.941 C 42.850 28.066, 40.375 29, 39 29.015 C 34.756 29.064, 28.160 32.694, 25.962 36.192 C 24.143 39.085, 23.940 40.629, 24.343 48.500 C 24.596 53.450, 25.781 62.675, 26.976 69 C 30.754 89.001, 28.813 101.667, 20.570 110.791 C 17.055 114.681, 17 114.876, 17 123.411 C 17 140.320, 19.963 159.242, 23.441 164.551 C 26.174 168.721, 29.222 167.739, 37.569 160 C 45.060 153.054, 48.844 151.396, 50.691 154.250 C 51.136 154.938, 51.725 159.775, 52 165 L 52.500 174.500 57.236 166.544 C 65.678 152.365, 69.753 135.703, 68.645 119.894 C 67.607 105.075, 67.757 105.075, 56.961 119.926 C 51.758 127.085, 46.938 132.955, 46.250 132.971 C 45.424 132.990, 44.994 131.390, 44.983 128.250 C 44.973 125.638, 44.081 120.125, 43 116 C 41.919 111.875, 41.027 106.566, 41.017 104.202 C 41.002 100.376, 41.326 99.766, 43.968 98.656 L 46.935 97.408 42.468 93.078 C 34.858 85.703, 36.812 81.899, 49.289 79.802 L 57.035 78.500 53.524 73.172 C 50.818 69.066, 50.234 67.432, 50.977 66.043 C 53.338 61.631, 68.511 58.484, 83.682 59.258 C 93.989 59.784, 94 59.782, 94 57.439 C 94 53.762, 92.021 50.331, 89.140 49.015 C 87.688 48.351, 81.814 47.473, 76.087 47.063 C 66.965 46.409, 65.447 46.035, 63.837 44.048 C 62.827 42.800, 62 41.146, 62 40.372 C 62 39.304, 60.858 39.544, 57.250 41.370 C 51.424 44.318, 45.332 46.065, 43.425 45.333 C 40.611 44.253, 41.892 40.248, 46.250 36.505 C 54.805 29.156, 72.369 22.576, 86.751 21.333 C 95.034 20.617, 95.178 19.271, 87.260 16.573 C 81.245 14.523, 71.893 14.656, 65 16.889 M 139 22.617 C 134.914 25.372, 130 30.301, 130 31.645 C 130 34.817, 124.678 49.263, 122.634 51.639 C 120.050 54.643, 118.099 54.174, 115.183 49.848 L 113.500 47.351 107.592 54.260 L 101.684 61.170 106.592 60.335 C 109.291 59.876, 116.450 59.544, 122.500 59.597 C 131.338 59.675, 134.679 60.140, 139.500 61.963 C 142.800 63.210, 146.738 64.243, 148.250 64.259 C 150.140 64.278, 151 64.809, 151 65.955 C 151 66.873, 152.243 68.543, 153.761 69.665 C 155.280 70.788, 157.868 74.135, 159.511 77.103 C 162.146 81.862, 162.495 83.447, 162.460 90.500 C 162.424 97.546, 161.968 99.514, 158.635 107 C 156.553 111.675, 153.527 120.450, 151.909 126.500 C 145.840 149.198, 142.090 158.003, 140.383 153.556 C 139.224 150.536, 140.667 131.977, 144.528 100.248 C 146.619 83.060, 148.143 68.811, 147.915 68.585 C 147.687 68.358, 142.728 69.559, 136.895 71.253 L 126.289 74.332 129.130 78.916 C 135.676 89.480, 134.770 102.406, 126.297 119.353 C 124.413 123.123, 121.507 130.098, 119.839 134.853 C 114.047 151.374, 110.943 158, 108.996 158 C 107.425 158, 107.097 156.816, 106.569 149.250 C 105.732 137.240, 104.289 130.687, 101.922 128.147 C 100.224 126.324, 98.803 126, 92.508 126 C 83.439 126, 80.408 127.279, 77.920 132.157 C 72.926 141.945, 78.034 161.148, 88.823 173.148 C 102.312 188.151, 117.059 183.589, 125.656 161.755 L 128.312 155.009 133.406 159.551 C 140.520 165.895, 149.631 171.823, 154.127 173.034 C 161.747 175.086, 167.124 170.447, 170.394 159 C 172.856 150.383, 173.845 141.236, 174.991 116.483 C 176.023 94.194, 177.431 77.116, 178.631 72.332 L 179.217 70.001 174.858 71.978 C 172.353 73.115, 168.301 73.965, 165.327 73.978 C 160.949 73.997, 159.713 73.559, 157.285 71.131 C 153.070 66.916, 152.020 62.356, 150.949 43.620 C 150.415 34.279, 149.427 25.570, 148.735 24.120 C 147.194 20.888, 142.613 20.181, 139 22.617 M 84.663 24.132 C 70.364 25.969, 51.495 34.095, 45.500 40.997 L 43.500 43.299 46.500 42.608 C 48.150 42.228, 53.164 40.179, 57.642 38.056 L 65.783 34.196 65.288 37.890 C 64.956 40.368, 65.261 41.971, 66.215 42.764 C 66.998 43.413, 72.678 44.336, 78.837 44.815 C 88.524 45.568, 90.373 46.002, 92.529 48.028 C 94.953 50.304, 97.320 56.531, 96.771 59.186 C 96.122 62.331, 99.309 59.943, 105.597 52.573 L 112.361 44.646 109.038 38.427 C 107.210 35.006, 103.944 30.136, 101.780 27.604 C 97.430 22.516, 97.356 22.501, 84.663 24.132 M 106.382 29.217 C 108.780 32.673, 111.517 37.020, 112.463 38.878 L 114.184 42.256 121.010 35.378 C 124.765 31.595, 127.529 28.179, 127.154 27.786 C 126.359 26.954, 114.836 24.518, 107.260 23.582 L 102.021 22.934 106.382 29.217 M 120.953 39.054 C 115.733 45.079, 115.672 45.223, 117.244 47.814 C 119.434 51.424, 120.435 51.522, 121.959 48.276 C 123.643 44.692, 127.039 33.705, 126.599 33.265 C 126.413 33.080, 123.872 35.684, 120.953 39.054 M 62.500 63.399 C 59.750 64.075, 56.457 65.194, 55.182 65.886 C 52.939 67.102, 52.919 67.227, 54.562 69.735 C 55.496 71.161, 57.137 73.812, 58.207 75.626 L 60.154 78.926 68.327 78.321 C 76.357 77.728, 76.577 77.640, 80.909 73.298 C 83.333 70.867, 87.046 67.997, 89.159 66.919 C 93.285 64.814, 93.935 63.573, 91.418 62.607 C 88.655 61.547, 67.700 62.121, 62.500 63.399 M 109.182 62.685 C 108.433 62.984, 110.027 64.214, 112.874 65.533 C 115.629 66.810, 119.153 68.793, 120.705 69.940 L 123.526 72.026 131.092 70.044 C 145.187 66.352, 145.349 66.107, 135.419 63.521 C 129.865 62.074, 112.123 61.509, 109.182 62.685 M 94.577 70.358 C 92.060 73.305, 90 76.025, 90 76.403 C 90 77.102, 96.261 76.316, 99 75.273 C 99.825 74.959, 101.541 74.805, 102.813 74.931 C 104.085 75.057, 108.339 74.617, 112.268 73.955 C 119.388 72.754, 119.403 72.745, 117.164 70.932 C 114.356 68.658, 104.721 65, 101.540 65 C 99.893 65, 97.738 66.658, 94.577 70.358 M 85.657 72.536 C 83.096 74.492, 81 76.296, 81 76.546 C 81 76.796, 82.102 77, 83.449 77 C 85.077 77, 86.801 75.817, 88.589 73.473 C 90.068 71.533, 91.062 69.728, 90.796 69.463 C 90.531 69.197, 88.218 70.580, 85.657 72.536 M 150.614 73.138 C 150.180 75.271, 143.700 131.358, 142.486 143.500 C 141.707 151.279, 143.352 147.221, 147.958 130 C 150.238 121.475, 152.941 112.925, 153.965 111 C 157.281 104.767, 160 95.191, 159.990 89.782 C 159.979 83.968, 156.736 75.791, 153.189 72.638 C 151.131 70.808, 151.086 70.817, 150.614 73.138 M 89.004 79.894 C 85.338 80.914, 75.013 94.666, 75.006 98.540 C 75.001 101.275, 75.693 101.953, 81.916 105.314 C 90.276 109.830, 99.179 113, 103.502 113 C 111.871 113, 112.048 103.437, 104.009 85.520 L 101.084 79 96.292 79.100 C 93.656 79.155, 90.377 79.512, 89.004 79.894 M 77.591 82.250 C 76.790 83.487, 75.846 85.850, 75.491 87.500 L 74.847 90.500 77.948 87 C 79.653 85.075, 81.504 82.713, 82.060 81.750 C 83.648 79, 79.384 79.477, 77.591 82.250 M 62.020 81.750 C 62.031 82.162, 63.506 86.368, 65.297 91.096 C 68.538 99.649, 68.563 99.681, 70.277 97.408 C 71.225 96.152, 72 93.803, 72 92.188 C 72 90.573, 72.655 87.395, 73.456 85.126 L 74.911 81 68.456 81 C 64.905 81, 62.009 81.338, 62.020 81.750 M 45.517 83.133 C 43.327 83.646, 41.134 84.466, 40.644 84.956 C 39.234 86.366, 43.275 91.185, 49.929 96.031 C 56.123 100.541, 58.054 103.844, 53.750 102.565 C 48.847 101.107, 44.241 100.801, 43.570 101.887 C 43.190 102.501, 44.124 108.362, 45.644 114.912 L 48.408 126.821 57.228 114.856 L 66.048 102.890 64.919 98.695 C 64.298 96.388, 62.664 91.688, 61.289 88.250 L 58.787 82 54.144 82.100 C 51.590 82.156, 47.708 82.620, 45.517 83.133" stroke="none" fill="black" fill-rule="evenodd"/>
</svg>