<svg xmlns="http://www.w3.org/2000/svg" width="200" height="200" viewBox="0 0 200 200" version="1.1">
	<path d="M 46.867 14.594 C 47.373 16.487, 47.039 18.462, 45.802 20.888 C 44.264 23.905, 43.999 27.064, 43.994 42.461 C 43.989 61.048, 43.266 66.215, 40.132 70.085 C 38.530 72.063, 37.493 72.306, 31.407 72.128 C 19.801 71.789, 15.266 75.815, 12.900 88.558 C 12.081 92.970, 12.115 99.541, 13.034 114.076 C 14.581 138.561, 14.012 153.399, 11.216 161.496 L 9.145 167.491 12.221 173.264 C 15.705 179.800, 21.975 186, 25.102 186 C 28.219 186, 32.323 180.988, 34.275 174.797 C 36.206 168.672, 38.985 151.530, 38.994 145.691 C 38.998 143.408, 39.401 142.129, 40 142.500 C 40.550 142.840, 41 144.128, 41 145.363 C 41 148.507, 46.479 156.805, 49.447 158.158 C 54.694 160.549, 58.517 154.791, 62.680 138.227 C 64.247 131.993, 64.426 131.720, 65.120 134.500 C 65.532 136.150, 66.594 143.541, 67.481 150.924 C 69.292 166.002, 69.048 165.595, 78.438 169.142 C 90.382 173.653, 98.338 171.421, 103.343 162.154 C 107.993 153.544, 108.926 145.043, 108.965 110.946 L 109 80.392 105.750 77.250 C 102.389 74.001, 96.719 71.173, 84.257 66.529 C 80.273 65.045, 76.768 63.434, 76.469 62.951 C 76.170 62.467, 82.130 59.095, 89.713 55.457 C 109.717 45.861, 110.705 45.504, 113.358 46.924 C 115.367 47.999, 115.550 48.728, 115.210 54.309 C 114.788 61.214, 116.302 71.276, 121.108 93.500 C 123.895 106.390, 124.360 110.539, 124.411 123 C 124.485 141.172, 123.707 143.329, 109.986 163.020 C 101.050 175.844, 98.411 181, 100.783 181 C 101.214 181, 105.601 178.025, 110.533 174.390 C 134.780 156.515, 148.060 156.813, 151.530 175.308 C 151.913 177.351, 152.521 179.204, 152.880 179.426 C 153.997 180.116, 162.940 178.122, 166.676 176.349 C 175.656 172.088, 175.861 165.319, 167.643 144.500 C 158.136 120.415, 158.038 108.813, 167.228 95.238 C 174.540 84.436, 180.093 54.097, 176.881 42.500 C 172.582 26.978, 154.924 24.709, 126.449 36.020 C 120.858 38.241, 117.309 39, 112.509 39 C 106.464 39, 105.511 38.661, 96.927 33.456 C 84.179 25.725, 71.573 19.548, 64.500 17.563 C 58.371 15.843, 49.444 13.104, 47.314 12.289 C 46.475 11.968, 46.344 12.640, 46.867 14.594 M 51.453 19.261 C 50.929 20.626, 60.293 63.627, 61.343 64.676 C 62.382 65.716, 70.350 61.826, 72.342 59.307 C 75.250 55.627, 82.255 52.017, 95.296 47.476 C 108.432 42.902, 108.902 41.883, 98.414 40.705 C 90.330 39.796, 82.542 36.558, 73.411 30.307 C 55.845 18.282, 52.479 16.589, 51.453 19.261 M 64 20.354 C 64 20.549, 68.388 23.660, 73.750 27.269 C 82.686 33.283, 93.299 38.026, 97.718 37.982 C 99.992 37.960, 88.430 31.138, 75.500 24.874 C 66.111 20.325, 64 19.495, 64 20.354 M 47.454 23.049 C 46.953 23.847, 46.533 33.275, 46.521 44 C 46.501 63.016, 46.435 63.632, 43.873 68.810 C 42.429 71.730, 41.754 73.917, 42.373 73.671 C 52.413 69.673, 57.321 67.327, 57.699 66.343 C 57.953 65.681, 56.086 55.770, 53.549 44.319 C 48.022 19.365, 48.569 21.276, 47.454 23.049 M 149.167 32.074 C 140.458 33.599, 124.674 39.241, 122.196 41.716 C 119.261 44.647, 120.343 46.948, 123.355 44.181 C 127.074 40.765, 133.328 38, 137.335 38 C 142.260 38, 147.250 42.681, 149.127 49.060 C 151.051 55.605, 150.771 73.935, 148.600 83.500 C 144.310 102.401, 137.154 109.209, 132.122 99.177 C 127.681 90.327, 120.060 62.394, 120.016 54.809 C 120.007 53.329, 119.550 51.840, 119 51.500 C 116.678 50.065, 118.176 65.152, 122.465 86.391 C 129.252 120.003, 129.469 133.614, 123.427 146.902 C 121.465 151.218, 112.902 164.207, 105.592 173.956 C 104.991 174.757, 107.425 173.267, 111 170.646 C 121.350 163.058, 131.453 158.533, 138 158.554 C 141.676 158.566, 144.431 159.191, 146.308 160.439 C 149.308 162.434, 152.919 168.588, 153.971 173.500 C 154.553 176.218, 154.935 176.468, 158.031 176.156 C 162.425 175.714, 168.640 172.541, 169.967 170.062 C 171.945 166.366, 170.970 160.858, 166.099 148.219 C 159.199 130.312, 158 125.687, 158 116.977 C 158 107.619, 159.816 101.245, 164.385 94.574 C 169.868 86.566, 175 66.303, 175 52.663 C 175 43.038, 172.461 36.664, 167.500 33.835 C 163.636 31.631, 155.927 30.890, 149.167 32.074 M 131.500 42.443 C 128.750 43.777, 125.417 45.740, 124.092 46.807 C 121.704 48.731, 121.695 48.810, 122.944 56.623 C 124.752 67.929, 129.353 85.364, 132.676 93.500 C 136.189 102.103, 138.234 102.674, 141.635 96 C 145.555 88.309, 147.487 77.754, 147.494 64 C 147.499 52.969, 147.230 50.951, 145.200 46.830 C 143.559 43.500, 142.011 41.851, 139.800 41.080 C 136.094 39.788, 137.430 39.569, 131.500 42.443 M 66.500 66.170 C 64.300 67.314, 62.342 68.390, 62.149 68.560 C 61.955 68.730, 62.684 72.611, 63.767 77.185 C 65.645 85.110, 66.049 85.821, 72.369 92.345 C 79.461 99.666, 80.718 99.335, 77.392 91.022 C 75.795 87.032, 76.028 84, 77.930 84 C 78.476 84, 79.391 85.738, 79.963 87.862 C 80.535 89.987, 82.605 95.191, 84.562 99.428 C 88.278 107.471, 88.624 110.705, 85.714 110.206 C 84.771 110.045, 84.009 110.270, 84.020 110.706 C 84.030 111.143, 84.701 117.350, 85.510 124.500 C 87.311 140.424, 87.439 153.161, 85.814 154.786 C 82.414 158.186, 78.104 146.817, 68.669 109.560 C 65.753 98.044, 62.834 88.445, 62.183 88.228 C 60.311 87.604, 60.745 97.376, 63.007 106.813 C 65.378 116.704, 65.396 117, 63.609 117 C 62.690 117, 61.761 114.706, 60.874 110.250 C 60.135 106.537, 59.373 104.312, 59.181 105.305 C 58.525 108.695, 56.937 106.483, 54.058 98.168 C 48.412 81.863, 45.227 82.039, 39.517 98.973 C 38.029 103.387, 36.730 105.614, 35.504 105.853 C 33.796 106.186, 33.733 105.381, 34.401 91.890 C 34.790 84.016, 35.541 77.053, 36.069 76.417 C 37.491 74.704, 29.761 73.718, 24.988 75.003 C 16.017 77.419, 14.103 85.632, 15.827 114.334 C 16.492 125.425, 17.029 137.498, 17.019 141.162 C 16.998 148.393, 14.766 161.701, 13.028 164.948 C 12.178 166.535, 12.391 167.847, 14.016 171.031 C 17.122 177.120, 22.938 183.153, 25.360 182.799 C 30.127 182.101, 34.020 169.491, 35.986 148.381 C 36.646 141.297, 37.481 132.387, 37.843 128.581 C 38.510 121.555, 40.266 118.938, 41.367 123.327 C 41.700 124.654, 42.275 130.355, 42.645 135.994 C 43.249 145.212, 43.629 146.715, 46.408 150.865 C 52.014 159.234, 54.541 157.221, 59.181 140.693 C 62.125 130.207, 64.116 126.716, 66.049 128.649 C 67.382 129.982, 69.641 142.764, 70.564 154.203 L 71.267 162.905 75.627 164.955 C 83.774 168.784, 88.541 169.598, 93.237 167.963 C 100.753 165.344, 104.270 157.348, 106.007 138.923 C 107.250 125.750, 107.122 84.362, 105.831 81.528 C 104.369 78.319, 98.910 75.090, 87.878 70.906 C 82.306 68.793, 76.695 66.375, 75.409 65.532 C 72.409 63.567, 71.358 63.642, 66.500 66.170 M 47.859 74.217 C 37.054 78.754, 37.036 78.782, 37.011 90.905 L 37 96.310 40.250 89.905 C 43.833 82.844, 46.571 81.397, 50.175 84.658 C 52.747 86.986, 53.818 89.014, 56.697 97 L 59.039 103.500 58.397 97.307 C 57.626 89.871, 58.365 86.336, 60.857 85.545 C 62.633 84.982, 62.643 84.666, 61.085 77.806 C 60.192 73.872, 59.020 70.545, 58.481 70.411 C 57.941 70.278, 53.162 71.991, 47.859 74.217 M 67.591 93.500 C 69.264 101.900, 78.316 135.575, 80.896 143 L 83.849 151.500 83.924 143.500 C 83.990 136.350, 81.707 111.654, 80.504 106.500 C 80.247 105.400, 77.102 101.350, 73.515 97.500 C 67.624 91.178, 67.051 90.790, 67.591 93.500" stroke="none" fill="black" fill-rule="evenodd"/>
</svg>