<svg xmlns="http://www.w3.org/2000/svg" width="200" height="200" viewBox="0 0 200 200" version="1.1">
	<path d="M 142.021 14.116 C 132.973 17.726, 127.159 33.764, 120.952 72.240 C 113.996 115.359, 112.849 121.828, 110.831 129.354 C 109.672 133.674, 107.704 138.395, 106.457 139.845 C 104.219 142.447, 104.162 142.456, 102.095 140.586 C 99.568 138.299, 99.446 136.703, 101.658 134.872 C 106.932 130.508, 108.558 117.383, 105.059 107.426 C 102.895 101.272, 97.046 92.500, 95.105 92.500 C 94.413 92.500, 93.050 94.750, 92.077 97.500 C 88.040 108.904, 82.387 117.746, 79.774 116.743 C 76.984 115.673, 75.271 102.211, 75.838 85.820 L 76 81.141 80.637 83.733 C 83.188 85.158, 85.097 85.914, 84.879 85.412 C 84.662 84.911, 82.783 81.216, 80.705 77.203 C 77.591 71.188, 77.044 69.281, 77.593 66.354 C 78.068 63.825, 78.513 63.191, 79.139 64.151 C 79.801 65.166, 81.175 64.140, 84.697 60 C 95.202 47.648, 102.953 41.617, 105.943 43.465 C 107.623 44.503, 107.104 53.516, 104.617 66.500 C 102.258 78.820, 102.245 81, 104.535 81 C 107.059 81, 118.825 59.425, 117.192 57.792 C 116.572 57.172, 114.515 60.075, 111.440 65.907 C 108.807 70.900, 106.466 74.799, 106.237 74.571 C 106.009 74.342, 106.539 70.685, 107.416 66.445 C 108.293 62.204, 109.301 55.612, 109.656 51.796 C 110.347 44.356, 110.415 44.303, 116.407 46.603 C 117.446 47.001, 118 46.670, 118 45.650 C 118 42.482, 95.165 36.697, 82.500 36.657 C 72.623 36.627, 67.362 38.077, 61.712 42.390 C 57.852 45.337, 57.127 45.566, 55.481 44.362 C 53.190 42.687, 45.830 42.570, 44.217 44.183 C 42.004 46.396, 41.764 44.118, 43.854 40.737 C 47.184 35.348, 49.197 34.106, 56.200 33.114 C 62.788 32.181, 67.374 30.075, 68.348 27.534 C 68.632 26.794, 70.232 25.888, 71.903 25.521 C 74.276 25, 75.673 25.411, 78.275 27.396 C 82.896 30.921, 88.249 32.999, 92.718 33.004 C 94.798 33.006, 102.125 31.890, 109 30.523 C 115.875 29.156, 123.188 27.784, 125.250 27.473 C 130.894 26.624, 130.021 24.379, 123.750 23.613 C 120.862 23.260, 108.825 22.702, 97 22.372 C 76.771 21.808, 75.352 21.643, 73 19.586 C 66.847 14.206, 66.621 14.142, 67.327 18 C 68.144 22.469, 67.494 23.311, 62 24.895 C 59.525 25.608, 55.475 27.251, 53 28.544 C 49.119 30.573, 46.780 30.943, 36 31.235 C 22.593 31.598, 18.163 32.950, 13.298 38.166 C 6.990 44.929, 5.987 59.294, 10.622 76.500 C 13.053 85.522, 13.388 88.896, 14.051 111 C 14.455 124.475, 15.302 137.414, 15.932 139.753 C 17.732 146.431, 19.248 146.947, 36.514 146.752 C 45.089 146.656, 54.545 147.129, 58.618 147.860 L 65.736 149.136 66.405 156.509 C 67.731 171.148, 71.715 179, 77.815 179 C 81.513 179, 86.671 175.525, 95.500 167.088 C 104.317 158.662, 108.130 156, 111.381 156 C 116.037 156, 118.407 162.433, 119.634 178.401 C 119.995 183.097, 120.647 186.718, 121.084 186.448 C 122.814 185.379, 127.989 175.094, 130.366 168 C 131.748 163.875, 133.537 156.225, 134.341 151 L 135.804 141.500 136.020 149.500 C 136.329 160.925, 136.865 162.378, 142.281 166.501 C 161.477 181.109, 177.054 176.947, 176.978 157.230 C 176.920 141.994, 165.204 133.300, 154.511 140.557 C 152.061 142.220, 150.942 142.593, 151.314 141.623 C 157.158 126.394, 166.625 90.947, 168.126 78.674 C 169.353 68.643, 168.973 66.397, 163.435 51 C 161.486 45.581, 160.604 40.864, 160.257 34 L 159.777 24.500 155.639 20.136 C 152.324 16.641, 146.307 12.721, 144.782 13.063 C 144.627 13.098, 143.384 13.572, 142.021 14.116 M 141.137 17.617 C 139.867 18.506, 138.044 20.524, 137.085 22.100 C 135.396 24.878, 135.422 25.194, 137.921 32.234 C 140.480 39.442, 140.500 39.742, 140.483 70 C 140.474 86.775, 139.917 109.836, 139.244 121.246 C 138.572 132.657, 138.312 146.087, 138.667 151.092 C 139.271 159.592, 139.517 160.382, 142.407 163.087 C 144.108 164.679, 148.003 167.317, 151.061 168.949 C 165.255 176.522, 174.065 172.315, 174.133 157.931 C 174.186 146.860, 168.093 138.942, 160.760 140.553 C 159.058 140.926, 155.498 143.260, 152.849 145.738 C 149.049 149.292, 147.904 149.914, 147.431 148.682 C 147.101 147.822, 149.154 139.779, 151.994 130.809 C 159.433 107.306, 164.894 85.236, 165.620 75.743 C 166.185 68.356, 165.967 66.721, 163.523 60 C 159.137 47.935, 157.961 43.020, 157.306 34 C 156.608 24.395, 154.478 20.404, 148.549 17.590 C 144.392 15.618, 143.989 15.619, 141.137 17.617 M 70 22 C 70 22.550, 70.477 23, 71.059 23 C 71.641 23, 71.840 22.550, 71.500 22 C 71.160 21.450, 70.684 21, 70.441 21 C 70.198 21, 70 21.450, 70 22 M 82.007 24.854 C 79.625 25.554, 79.716 25.684, 84.073 27.793 C 86.936 29.179, 90.466 29.988, 93.566 29.969 C 100.042 29.928, 115.218 26.544, 112.500 25.747 C 109.208 24.781, 84.696 24.063, 82.007 24.854 M 60 28.256 C 57.719 28.957, 57.090 29.470, 58.192 29.728 C 59.123 29.946, 61.148 29.439, 62.692 28.602 C 65.935 26.844, 64.990 26.722, 60 28.256 M 131.586 35.147 C 128.226 46.191, 125.831 58.191, 122.037 83 C 114.311 133.506, 111.191 144, 103.896 144 C 101.878 144, 100.360 143.028, 98.433 140.501 L 95.765 137.003 99.248 133.148 C 103.855 128.048, 105.606 121.052, 104.069 113.886 C 103.002 108.912, 97.380 96.990, 96.111 97.009 C 95.775 97.014, 93.785 100.769, 91.690 105.352 C 84.914 120.171, 79.491 123.581, 75.549 115.501 C 73.956 112.238, 73.496 108.567, 73.049 95.562 L 72.500 79.622 69.333 78.804 C 64.407 77.531, 61.309 79.236, 59.880 84.005 C 58.348 89.120, 59.669 99.950, 64.027 118 C 66.009 126.211, 67.535 136.334, 68.474 147.500 C 70.332 169.616, 72.463 176, 77.988 176 C 81.153 176, 84.138 173.934, 92.500 165.954 C 106.058 153.017, 111.642 150.551, 116.463 155.372 C 119.336 158.245, 120.865 163.223, 121.693 172.397 L 122.315 179.294 124.627 174.745 C 128.143 167.826, 130.889 156.710, 132.147 144.300 C 133.066 135.237, 132.950 126.740, 131.537 99.775 C 129.695 64.635, 130.117 50.737, 133.515 34.569 C 134.316 30.757, 134.781 27.448, 134.549 27.216 C 134.317 26.984, 132.984 30.553, 131.586 35.147 M 30 33.961 C 19.367 35.069, 13.881 39.160, 11.349 47.872 C 9.365 54.695, 10.075 62.992, 14.007 78.947 C 16.639 89.630, 16.882 92.270, 17.238 114 C 17.530 131.851, 17.971 138.221, 19.072 140.500 L 20.522 143.500 38.214 144 C 49.389 144.316, 55.555 144.150, 54.953 143.550 C 54.429 143.027, 54 138.952, 54 134.493 C 54 130.034, 53.038 118.986, 51.861 109.943 C 49.042 88.267, 48.821 66.773, 51.334 58.500 C 52.336 55.200, 53.780 51.529, 54.541 50.342 C 55.618 48.663, 55.657 47.968, 54.713 47.214 C 50.057 43.493, 44.276 45.732, 40.986 52.529 C 38.824 56.996, 38.776 57.841, 39.133 85.517 C 39.474 111.889, 39.370 114.048, 37.689 115.710 C 35.948 117.430, 35.824 117.428, 34.508 115.654 C 33.755 114.638, 32.824 110.869, 32.439 107.277 C 31.411 97.680, 32.618 71.533, 34.447 63.754 C 35.320 60.043, 36.700 53.974, 37.514 50.268 C 38.328 46.561, 40.306 41.418, 41.910 38.838 C 45.795 32.589, 45.263 32.371, 30 33.961 M 135.583 38.645 C 135.217 39.597, 134.397 46.126, 133.761 53.153 C 132.872 62.953, 132.887 71.586, 133.823 90.214 C 134.494 103.572, 135.088 116.750, 135.143 119.500 L 135.244 124.500 136.024 119 C 137.885 105.890, 139.169 62.529, 138.066 50.067 C 137.461 43.228, 136.805 37.471, 136.607 37.273 C 136.409 37.076, 135.948 37.693, 135.583 38.645 M 74.500 39.614 C 68.552 41.149, 65.658 42.417, 62.997 44.656 L 60.044 47.141 64.830 52.891 C 67.462 56.054, 70.650 60.316, 71.914 62.361 L 74.213 66.081 75.861 62.790 C 76.843 60.829, 78.152 59.605, 79.103 59.759 C 80.006 59.906, 84.652 56.001, 89.811 50.759 C 98.844 41.581, 98.900 41.493, 96.212 40.745 C 92.681 39.761, 77.079 38.949, 74.500 39.614 M 55.990 54.290 C 54.868 56.825, 53.458 61.510, 52.857 64.700 C 51.513 71.828, 52.289 92.030, 54.540 108.500 C 55.441 115.100, 56.477 125.426, 56.840 131.447 L 57.500 142.395 60.849 144.347 C 67.245 148.076, 67.243 145.350, 60.830 116.541 C 53.603 84.074, 55.550 74.469, 68.993 76.272 C 72.978 76.807, 73.995 75.974, 74.004 72.168 C 74.009 70.166, 64.189 55.465, 60.584 52.079 L 58.029 49.679 55.990 54.290 M 35.174 92 C 35.093 101.869, 35.453 110.154, 36 111 C 37.150 112.780, 37.180 97.290, 36.053 83.500 C 35.396 75.473, 35.301 76.393, 35.174 92 M 76 76.882 C 76 77.432, 76.450 78.160, 77 78.500 C 77.550 78.840, 78 78.668, 78 78.118 C 78 77.568, 77.550 76.840, 77 76.500 C 76.450 76.160, 76 76.332, 76 76.882" stroke="none" fill="black" fill-rule="evenodd"/>
</svg>