<svg xmlns="http://www.w3.org/2000/svg" width="200" height="200" viewBox="0 0 200 200" version="1.1">
	<path d="M 149.911 20.250 C 146.019 25.936, 140.726 30.935, 137.456 32.014 C 133.172 33.428, 130.366 32.218, 123.490 25.991 C 120.387 23.181, 117.120 21.023, 116.229 21.194 C 113.497 21.721, 111.015 27.355, 109.053 37.482 C 108.023 42.801, 107.013 47.321, 106.808 47.525 C 106.603 47.730, 104.590 47.429, 102.334 46.857 C 98.341 45.843, 98.215 45.682, 97.554 40.699 C 95.538 25.500, 86.330 17.706, 76.414 22.804 C 71.587 25.286, 67.873 29.197, 65.113 34.704 C 63.332 38.259, 62.426 38.998, 59.253 39.491 C 57.189 39.812, 54.030 40.467, 52.234 40.948 L 48.968 41.823 49.621 33.996 L 50.273 26.170 46.387 25.090 C 35.177 21.978, 23.959 24.987, 18.758 32.500 C 12.894 40.970, 11.909 54.370, 14.610 88.908 C 16.156 108.665, 16.074 134.393, 14.450 139.747 C 13.778 141.961, 13.821 141.973, 17.299 140.519 C 19.242 139.708, 25.650 137.905, 31.541 136.513 C 48.583 132.486, 55.185 128.929, 60.155 121.097 C 64.559 114.156, 66.965 104.934, 68.147 90.467 C 69.190 77.692, 69.156 77.220, 66.607 69.150 C 64.670 63.019, 64.004 58.789, 64.015 52.698 C 64.034 42.501, 64.547 41.579, 69.708 42.451 L 73.664 43.119 72.369 49.810 C 70.757 58.133, 70.687 63.441, 72.100 70.030 C 73.373 75.968, 77.749 81.566, 81.816 82.459 C 84.316 83.009, 84.515 83.394, 84.171 87.006 C 83.858 90.281, 84.395 91.764, 87.325 95.726 C 89.267 98.352, 93.138 102.733, 95.928 105.462 C 98.717 108.192, 101 110.988, 101 111.677 C 101 113.551, 97.853 114.882, 91.724 115.603 L 86.238 116.247 83.724 122.374 C 82.340 125.743, 78.824 133.900, 75.908 140.500 C 69.541 154.913, 68.489 161.833, 71.991 166.270 C 76.104 171.482, 79.353 172.476, 92.624 172.585 C 103.081 172.671, 105.143 172.962, 107.624 174.708 C 115.741 180.418, 122.082 181.467, 127.720 178.029 C 131.327 175.830, 136.054 169.763, 138.034 164.791 C 138.755 162.981, 139.463 161.342, 139.607 161.149 C 139.751 160.955, 144.653 162.668, 150.499 164.953 C 156.346 167.239, 163.264 169.362, 165.873 169.671 C 169.964 170.156, 171.022 169.884, 173.559 167.701 C 176.205 165.423, 176.494 164.584, 176.445 159.335 C 176.390 153.516, 172.057 137.828, 169.563 134.417 C 168.418 132.852, 167.629 132.959, 158.911 135.863 C 153.732 137.588, 148.938 139, 148.256 139 C 147.398 139, 147.786 136.957, 149.521 132.348 C 155.836 115.572, 160.624 113.709, 170.321 124.256 L 175.142 129.500 174.502 125 C 173.271 116.340, 170.938 111.093, 165.837 105.513 C 161.425 100.684, 153.660 95.831, 146.946 93.705 C 146.091 93.435, 143.959 89.969, 142.208 86.004 C 139.601 80.103, 139.339 78.922, 140.762 79.495 C 144.308 80.923, 158.641 81.274, 162.424 80.025 C 169.853 77.573, 176.820 68.807, 178.513 59.781 L 179.190 56.172 173.200 56.716 C 164.191 57.532, 163.936 56.630, 166.830 34.211 C 167.899 25.930, 167.312 22.585, 164.254 19.527 C 162.254 17.527, 160.727 17, 156.932 17 C 152.644 17, 151.900 17.344, 149.911 20.250 M 149.641 25.027 C 143.939 32.369, 139.894 34.991, 134.263 34.996 C 130.578 35, 129.183 34.284, 123.544 29.500 C 119.978 26.475, 116.799 24, 116.479 24 C 114.490 24, 109.030 47.491, 110.667 49.005 C 111.125 49.429, 112.541 50.090, 113.814 50.475 C 115.699 51.046, 116.070 50.835, 115.814 49.338 C 115.340 46.565, 118.005 47.233, 124.426 51.494 C 130.117 55.272, 131.220 57.723, 127.010 57.239 C 124.839 56.989, 124.811 57.075, 126.351 59.239 C 127.236 60.482, 129.997 64.691, 132.485 68.592 C 136.870 75.464, 137.182 75.722, 142.545 76.923 C 149.364 78.449, 158.602 78.480, 162.545 76.990 C 166.908 75.341, 170.948 71.146, 173.611 65.500 L 175.970 60.500 171.121 59.985 C 162.082 59.025, 161.068 56.182, 163.527 38.688 C 165.447 25.027, 164.896 21.671, 160.453 19.982 C 155.835 18.226, 154.402 18.895, 149.641 25.027 M 77.500 25.164 C 73.957 27.119, 69.867 31.403, 67.908 35.210 C 66.859 37.251, 66 39.163, 66 39.460 C 66 39.757, 67.948 40, 70.329 40 C 74.558 40, 74.714 39.881, 77.052 34.889 C 78.369 32.078, 81.023 28.478, 82.951 26.889 L 86.456 24 82.978 24.030 C 81.065 24.047, 78.600 24.557, 77.500 25.164 M 25.990 29.250 C 15.877 36.133, 14.272 48.206, 17.614 92.238 C 18.586 105.046, 19.002 118.193, 18.661 125.303 C 18.141 136.105, 18.238 137.062, 19.797 136.592 C 20.734 136.310, 26.450 134.881, 32.500 133.416 C 38.550 131.951, 45.579 129.705, 48.120 128.425 C 59.191 122.849, 64.163 111.343, 65.621 87.925 C 66.216 78.370, 66.049 76.682, 63.890 70.425 C 61.945 64.790, 61.500 61.488, 61.500 52.704 L 61.500 41.908 57.500 42.579 C 50.012 43.836, 49.256 44.442, 48.636 49.686 C 48.324 52.334, 47.805 58.325, 47.485 63 C 45.077 98.120, 43.319 110.644, 41.107 108.444 C 40.773 108.112, 40.197 99.214, 39.827 88.670 C 39.456 78.127, 38.840 66.443, 38.457 62.707 C 37.647 54.792, 39.558 48.280, 43.631 45.075 C 45.716 43.435, 46.200 42.002, 46.706 35.968 C 47.172 30.414, 46.991 28.608, 45.903 27.919 C 45.131 27.430, 41.079 27.024, 36.898 27.015 C 30.644 27.003, 28.709 27.399, 25.990 29.250 M 83.583 29.560 C 81.831 31.312, 78 38.331, 78 39.790 C 78 40.268, 81.178 41.342, 85.062 42.176 L 92.124 43.692 91.474 39.596 C 90.714 34.805, 87.990 28.760, 86.366 28.260 C 85.742 28.068, 84.490 28.653, 83.583 29.560 M 75.162 49.547 C 72.598 62.316, 74.203 73.310, 79.253 77.559 C 82.735 80.490, 86.181 80.659, 90.382 78.105 C 92.097 77.062, 96.031 75.423, 99.124 74.462 L 104.748 72.714 105.433 64.107 C 105.809 59.373, 106.350 54.544, 106.636 53.375 C 107.050 51.676, 106.507 51.024, 103.928 50.125 C 98.509 48.236, 98.336 48.424, 97.623 56.973 C 96.855 66.172, 96.320 68, 94.393 68 C 93.291 68, 93 65.815, 93 57.547 L 93 47.094 89.250 46.013 C 87.188 45.419, 83.435 44.668, 80.912 44.346 L 76.324 43.760 75.162 49.547 M 42.994 50.137 C 41.131 53.100, 40.945 54.510, 41.425 62 C 42.660 81.251, 43.427 81.726, 44.697 64.023 C 45.347 54.961, 45.706 47.372, 45.494 47.160 C 45.281 46.948, 44.157 48.288, 42.994 50.137 M 108.990 54.183 C 108.985 55.457, 108.113 65.050, 107.052 75.500 C 105.992 85.950, 104.200 106.875, 103.071 122 C 101.942 137.125, 100.831 151.192, 100.603 153.260 L 100.188 157.020 103.123 154.550 C 108.546 149.987, 117.603 149.943, 130.753 154.416 C 134.762 155.780, 138.214 156.462, 138.529 155.953 C 139.619 154.190, 142.887 144, 142.363 144 C 142.072 144, 138.339 144.892, 134.068 145.983 C 117.317 150.260, 108.017 150.421, 105.406 146.481 C 103.407 143.465, 106.474 137.683, 114.267 129.774 L 120.823 123.120 117.662 122.445 C 115.923 122.073, 113.938 121.316, 113.250 120.762 C 111.393 119.266, 111.737 117.684, 113.750 118.464 C 114.713 118.837, 117.368 119.494, 119.651 119.924 C 123.672 120.680, 123.992 120.536, 129.812 115.352 C 135.553 110.238, 138 108.914, 138 110.922 C 138 111.429, 135.863 113.676, 133.250 115.916 L 128.500 119.987 131.500 119.990 C 135.232 119.993, 140.316 116.974, 142.696 113.341 C 143.982 111.378, 144.479 108.771, 144.427 104.256 C 144.318 94.876, 143.880 94.621, 127.086 94.160 L 113.201 93.779 111.601 88.074 C 109.440 80.373, 109.523 74.741, 111.829 72.655 C 114.105 70.595, 120.077 70.517, 126.544 72.463 C 129.219 73.268, 131.626 73.708, 131.893 73.440 C 132.161 73.173, 129.707 69.071, 126.440 64.326 C 120.469 55.654, 120.103 55.370, 111.250 52.575 C 109.361 51.979, 108.998 52.237, 108.990 54.183 M 114.594 74.306 C 112.402 75.911, 112.223 80.153, 114.070 86.750 L 115.260 91 123.990 91 C 128.792 91, 134.811 91.286, 137.365 91.636 L 142.008 92.273 139.868 87.386 C 136.149 78.897, 134.684 77.476, 127.797 75.681 C 117.210 72.921, 116.577 72.855, 114.594 74.306 M 99 79.014 C 97.075 80.075, 93.792 81.429, 91.706 82.023 C 87.183 83.308, 85.406 86.307, 86.875 90.172 C 87.884 92.826, 99.613 106, 100.967 106 C 101.373 106, 102.004 101.612, 102.371 96.250 C 102.737 90.888, 103.311 84.362, 103.647 81.750 C 103.983 79.138, 103.862 77.019, 103.379 77.042 C 102.895 77.065, 100.925 77.952, 99 79.014 M 146.820 104.202 C 147.095 110.492, 146.818 111.984, 144.812 115 C 141.871 119.422, 134.919 123, 129.268 123 C 125.262 123, 124.446 123.508, 117.618 130.250 C 113.580 134.238, 109.486 139.042, 108.521 140.928 C 106.832 144.223, 106.837 144.409, 108.633 145.765 C 111.081 147.613, 119.086 146.833, 133.107 143.378 L 143.713 140.764 146.010 134.132 C 149.175 124.996, 150.728 122.023, 154.308 118.250 C 158.158 114.193, 162.064 114, 167.368 117.604 L 171.201 120.209 170.522 117.854 C 170.149 116.559, 168.191 113.081, 166.172 110.125 C 162.508 104.762, 154.378 98.785, 149 97.501 L 146.500 96.904 146.820 104.202 M 93.652 118.049 C 90.986 118.496, 88.674 119.006, 88.513 119.181 C 88.353 119.356, 85.654 125.125, 82.516 132 C 67.376 165.165, 69.163 170.349, 95.591 169.927 C 104.864 169.779, 106.375 169.997, 108.307 171.763 C 114.670 177.576, 122.874 178.660, 127.982 174.362 C 131.047 171.782, 136.972 162.594, 136.991 160.391 C 137.006 158.556, 124.023 154.774, 115.920 154.251 C 108.549 153.776, 108.242 153.849, 104.776 156.892 C 102.815 158.613, 100.930 161.142, 100.587 162.511 C 99.880 165.326, 96.967 165.937, 97.061 163.250 C 97.095 162.287, 97.892 151.488, 98.832 139.250 C 99.956 124.624, 100.191 117.040, 99.521 117.118 C 98.959 117.182, 96.319 117.601, 93.652 118.049 M 157 139.156 C 151.775 140.811, 146.994 142.690, 146.376 143.332 C 144.654 145.121, 140.893 157.293, 141.786 158.186 C 142.220 158.620, 147.366 160.780, 153.223 162.987 C 170.126 169.357, 174.674 168.263, 173.728 158.057 C 173.205 152.420, 168.249 135.939, 167.118 136.074 C 166.778 136.114, 162.225 137.501, 157 139.156" stroke="none" fill="black" fill-rule="evenodd"/>
</svg>