<svg xmlns="http://www.w3.org/2000/svg" width="200" height="200" viewBox="0 0 200 200" version="1.1">
	<path d="M 87 17.567 C 73.777 20.431, 67.173 28.683, 66.249 43.496 L 65.731 51.793 60.116 52.904 C 57.027 53.515, 53.150 54.906, 51.500 55.996 L 48.500 57.977 48 47.746 L 47.500 37.515 41.177 36.155 C 24.557 32.580, 16.211 40.216, 14.505 60.559 C 14.118 65.171, 14.502 77.474, 15.419 89.902 C 17.124 112.979, 17.404 133.963, 16.098 140.711 C 15.304 144.812, 15.381 144.986, 19.065 147.424 C 27.833 153.226, 41.938 155.597, 51.193 152.824 C 56.852 151.128, 63.317 145.008, 66.017 138.788 C 69.081 131.730, 70.366 109.747, 69.555 78.250 C 69.226 65.463, 69.136 55, 69.356 55 C 69.576 55, 71.458 55.711, 73.539 56.581 C 78.338 58.586, 90.844 60.997, 92.717 60.278 C 93.863 59.839, 93.807 60.485, 92.428 63.616 C 90.001 69.127, 86 82.790, 86 85.569 C 86 87.784, 85.603 87.928, 78.750 88.206 C 66.122 88.718, 70.570 92.399, 88.250 96.067 C 91.412 96.723, 93.982 97.539, 93.959 97.880 C 93.936 98.221, 91.725 99.528, 89.045 100.784 C 82.489 103.856, 76.274 110.023, 75.482 114.242 C 74.367 120.186, 77.290 125.077, 88.095 135.346 C 93.543 140.524, 98 145.244, 98 145.835 C 98 147.534, 91.390 148.500, 79.761 148.500 C 72.139 148.500, 68.884 148.860, 68.546 149.740 C 68.052 151.028, 68.496 151.175, 78.500 153.039 C 95.106 156.133, 104.732 160.822, 102.415 164.689 C 100.767 167.441, 92.761 171.466, 79.779 176.069 C 60.495 182.908, 61.477 184.703, 83.854 183.517 C 101.477 182.582, 99.427 182.549, 110.754 183.959 C 129.490 186.292, 169.077 179.992, 174.696 173.783 C 176.402 171.898, 176.396 171.763, 174.546 170.410 C 172.053 168.587, 156.092 168.596, 139 170.431 C 132.125 171.169, 126.376 171.662, 126.225 171.528 C 125.712 171.071, 135.236 163.528, 143.306 158 C 152.007 152.040, 153.670 150.187, 152.666 147.572 C 152.307 146.637, 146.948 143.441, 140.757 140.471 L 129.500 135.071 135.072 135.035 C 143.207 134.984, 149.201 132.590, 153.863 127.532 C 160.296 120.554, 160.547 110.370, 154.387 106.334 C 151.077 104.165, 146.829 105.429, 142.143 109.977 C 138.718 113.301, 137.241 113.964, 131.152 114.909 C 122.428 116.262, 112.954 116.313, 109.565 115.025 C 101.366 111.907, 115.152 100.958, 132.999 96.412 C 137.716 95.211, 142.154 94.885, 149.180 95.223 L 158.862 95.689 163.894 81.095 C 170.404 62.215, 171.237 58.839, 171.333 50.946 C 171.429 43.090, 169.171 38.412, 163.966 35.682 C 159.338 33.255, 149.102 33.977, 139.075 37.437 C 134.991 38.847, 131.551 40, 131.431 40 C 131.310 40, 131.050 36.446, 130.853 32.102 C 130.243 18.665, 125.628 16.455, 116.402 25.181 C 113.389 28.031, 111.214 29.605, 111.570 28.679 C 112.527 26.184, 111.331 22.547, 108.411 19.077 C 106.017 16.232, 105.358 16.006, 99.661 16.079 C 96.272 16.123, 90.575 16.793, 87 17.567 M 87.734 20.088 C 75.511 22.968, 70.593 29.035, 68.973 43.234 C 68.462 47.713, 68.234 51.567, 68.465 51.798 C 68.696 52.029, 70.178 51.297, 71.759 50.172 C 73.340 49.046, 78.170 46.720, 82.493 45.003 C 100.410 37.885, 109 32.119, 109 27.208 C 109 25.888, 108.228 23.502, 107.284 21.904 C 105.638 19.118, 105.284 19.004, 98.534 19.100 C 94.665 19.156, 89.806 19.600, 87.734 20.088 M 118.081 27.250 C 112.589 32.660, 100.037 51.384, 101.162 52.489 C 101.348 52.672, 104.875 51.661, 109 50.241 C 114.337 48.405, 119.297 47.533, 126.198 47.216 C 134.747 46.824, 136.445 47.037, 140.525 49.012 C 145.702 51.518, 148.672 56.185, 147.659 60.222 C 146.989 62.892, 143.467 67.080, 140.491 68.745 C 138.713 69.740, 138.827 70.066, 142.297 73.906 C 151.958 84.600, 143.845 89.654, 115.500 90.597 C 101.452 91.064, 93 92.361, 93 94.049 C 93 94.450, 94.688 95.076, 96.750 95.442 C 104.498 96.815, 104.496 97.055, 96.714 100.438 C 83.051 106.378, 78.013 110.864, 78.004 117.100 C 77.998 120.943, 82.691 127.255, 90.972 134.542 C 95.010 138.096, 98.948 141.908, 99.721 143.012 C 102.779 147.378, 98.302 150.937, 89.601 151.056 C 85.632 151.110, 85.751 151.203, 93.299 153.928 C 112.926 161.014, 110.167 167.705, 83.500 177.698 L 74.500 181.071 86.495 180.480 C 93.575 180.131, 102.853 180.387, 109.136 181.105 C 117.397 182.048, 122.664 182.057, 132.641 181.144 C 146.474 179.878, 165.108 176.087, 169.681 173.608 L 172.500 172.080 168.500 171.964 C 159.388 171.700, 149.721 172.178, 136.500 173.547 C 128.800 174.344, 121.600 174.976, 120.500 174.951 C 117.587 174.885, 129.098 164.519, 141.269 156.249 C 149.149 150.895, 150.793 149.366, 149.769 148.349 C 149.071 147.655, 141.075 143.662, 132 139.476 C 122.925 135.290, 115.080 131.452, 114.567 130.949 C 112.599 129.019, 115.176 128.801, 121.419 130.369 C 131.192 132.824, 141.660 132.541, 147.093 129.675 C 154.778 125.621, 158.485 115.291, 154.169 109.960 C 151.702 106.914, 147.969 107.896, 142.818 112.946 C 139.064 116.625, 138.473 116.840, 128.838 118.020 C 117.688 119.386, 109.972 118.867, 106.374 116.509 C 100.602 112.728, 105.756 105.189, 118.358 98.976 C 128.541 93.956, 138.963 91.681, 149.206 92.242 L 156.911 92.664 161.027 81.082 C 168.777 59.279, 170.464 49.061, 167.315 43.014 C 166.317 41.097, 164.375 38.937, 163 38.215 C 159.159 36.197, 147.774 37.248, 139 40.430 C 134.875 41.926, 130.765 43.380, 129.867 43.661 C 128.434 44.109, 128.245 43.069, 128.330 35.196 C 128.474 21.880, 125.708 19.736, 118.081 27.250 M 103.500 38.042 C 101.300 39.625, 93.875 43.240, 87 46.075 C 80.125 48.910, 74.373 51.342, 74.218 51.480 C 74.063 51.618, 78.113 52.263, 83.218 52.915 C 88.323 53.566, 93.470 54.340, 94.656 54.634 C 96.211 55.020, 96.987 54.617, 97.441 53.185 C 97.788 52.094, 100.262 47.556, 102.940 43.101 C 105.617 38.645, 107.739 35.037, 107.654 35.082 C 107.569 35.127, 105.700 36.459, 103.500 38.042 M 27.418 38.969 C 24.375 40.200, 20.237 45.511, 18.995 49.781 C 16.981 56.704, 16.774 71.415, 18.390 92.762 C 20.122 115.636, 20.359 131.592, 19.081 139.368 L 18.281 144.237 24.891 147.331 C 30.427 149.924, 32.961 150.481, 40.500 150.765 C 48.965 151.085, 49.799 150.929, 54.535 148.155 C 63.815 142.718, 66.714 133.807, 66.894 110.164 C 66.946 103.380, 67.204 97.479, 67.468 97.051 C 68.001 96.190, 66 55.744, 65.393 55.089 C 64.420 54.041, 53.664 57.412, 51.100 59.569 L 48.224 61.989 47.824 90.245 C 47.510 112.510, 47.112 119.136, 45.949 121.500 C 45.137 123.150, 44.029 124.487, 43.487 124.472 C 42.192 124.435, 40.397 120.438, 39.570 115.750 C 39.056 112.830, 39.232 112, 40.367 112 C 41.294 112, 42.104 113.546, 42.594 116.250 L 43.363 120.500 44.071 116.500 C 44.461 114.300, 45.069 101.925, 45.423 89 C 46.046 66.226, 46.011 65.593, 44.299 68.500 C 42.921 70.841, 42.513 73.904, 42.440 82.442 C 42.332 95.151, 40.603 97.985, 39.523 87.226 C 38.723 79.265, 40.109 70.322, 43.003 64.770 C 44.626 61.656, 45 58.988, 45 50.516 L 45 40.094 41.250 39.053 C 36.825 37.824, 30.346 37.785, 27.418 38.969 M 120.757 49.980 C 113.662 51.255, 102.704 55.113, 103.661 55.999 C 104.122 56.426, 110.013 57.788, 116.750 59.027 C 123.487 60.265, 129 61.575, 129 61.938 C 129 62.302, 123.224 68.314, 116.164 75.299 L 103.328 88 113.914 87.960 C 130.777 87.897, 144 84.743, 144 80.784 C 144 80.140, 141.572 77.262, 138.605 74.388 L 133.210 69.162 137.848 66.775 C 153.488 58.727, 140.905 46.361, 120.757 49.980 M 81 55.876 C 84.604 57.033, 92.945 58.109, 90.500 57.102 C 89.400 56.648, 86.250 56.006, 83.500 55.675 C 80.421 55.304, 79.461 55.381, 81 55.876 M 95.521 63.549 C 92.134 71.206, 89 81.568, 89 85.105 C 89 87.893, 89.176 88, 93.761 88 C 98.242 88, 99.022 87.567, 107.011 80.644 C 111.680 76.598, 117.390 71.032, 119.700 68.274 L 123.899 63.260 112.700 61.072 C 106.540 59.869, 100.719 58.657, 99.765 58.380 C 98.432 57.992, 97.449 59.188, 95.521 63.549 M 83 92 C 86.591 93.150, 88.211 93.150, 87.500 92 C 87.160 91.450, 85.446 91.045, 83.691 91.100 C 80.644 91.195, 80.613 91.235, 83 92" stroke="none" fill="black" fill-rule="evenodd"/>
</svg>