<svg xmlns="http://www.w3.org/2000/svg" width="200" height="200" viewBox="0 0 200 200" version="1.1">
	<path d="M 107.097 15.521 C 103.056 17.457, 98.512 19.923, 96.998 21.001 C 95.484 22.079, 87.839 25.483, 80.009 28.566 L 65.772 34.171 60.136 31.653 C 51.710 27.888, 45.682 26.682, 38.027 27.230 C 29.558 27.836, 22.351 31.581, 16.604 38.361 C 12.783 42.870, 12.703 43.117, 13.886 46.754 C 15.831 52.730, 16.330 72.699, 15.140 97 C 13.237 135.851, 16.365 149.422, 27.883 152.289 C 31.416 153.169, 45.457 151.332, 48.930 149.536 C 53.876 146.978, 59.709 140.132, 64.050 131.787 C 68.056 124.087, 76.118 101.282, 77.553 93.589 L 78.283 89.679 79.957 96.328 C 80.917 100.141, 82.669 104.107, 84.065 105.625 C 87.440 109.294, 93.813 111.948, 99.882 112.212 C 102.697 112.335, 105 112.710, 105 113.046 C 105 114.205, 98.919 122.834, 95.214 126.931 L 91.500 131.039 85.500 130.087 C 82.200 129.564, 77.738 129.444, 75.584 129.821 L 71.669 130.506 75.203 134.253 C 79.175 138.465, 82.949 139.112, 88.079 136.459 C 91.808 134.531, 93 135.234, 93 139.363 C 93 144.501, 88.682 151.864, 78.478 164.123 C 69.814 174.532, 67.283 179, 70.050 179 C 71.800 179, 76.808 176.154, 92.373 166.315 C 100.553 161.143, 107.333 157.045, 107.440 157.206 C 107.546 157.368, 108.153 161.775, 108.787 167 C 112.116 194.405, 119.754 196.037, 129.858 171.500 C 131.443 167.650, 133.963 161.238, 135.458 157.250 C 136.952 153.263, 138.571 150, 139.056 150 C 139.860 150, 139.629 158.855, 138.500 171.400 L 138.059 176.300 148.398 175.668 C 165.163 174.642, 173.734 172.234, 176.055 167.897 C 178.554 163.228, 175.213 158.598, 159.719 145.258 C 153.673 140.053, 150.010 136.188, 150.198 135.212 C 150.662 132.799, 156.592 131.713, 165.848 132.346 L 174.196 132.916 173.520 130.208 C 172.440 125.882, 169.163 121.264, 165.617 119.072 C 163.530 117.782, 158.465 116.501, 151.707 115.552 C 145.862 114.731, 139.374 113.262, 137.290 112.286 L 133.500 110.511 142 110.211 C 146.675 110.045, 154.307 110.376, 158.961 110.945 C 163.649 111.518, 167.802 111.598, 168.277 111.123 C 168.751 110.649, 166.539 108.501, 163.316 106.304 C 160.117 104.125, 156.454 100.802, 155.175 98.921 C 152.974 95.683, 152.887 94.940, 153.549 85 C 153.934 79.225, 154.647 74.348, 155.135 74.163 C 155.624 73.977, 156.487 72.959, 157.053 71.900 C 157.873 70.369, 157.359 68.679, 154.542 63.641 C 152.594 60.158, 151 56.633, 151 55.809 C 151 53.431, 154.216 51.135, 160.592 48.960 C 168.590 46.231, 171.862 43.671, 170.393 41.292 C 168.876 38.836, 165.449 38.256, 151.643 38.118 C 142.039 38.022, 139.886 37.739, 140.313 36.628 C 141.411 33.766, 142.199 25.929, 141.620 23.623 C 140.832 20.482, 138.284 19.584, 135.441 21.447 C 133.696 22.590, 127.914 29.503, 123.417 35.823 C 123.290 36.001, 119.882 36.822, 115.843 37.647 C 108.253 39.197, 104.267 41.398, 107.087 42.480 C 107.880 42.784, 114.710 42.685, 122.265 42.260 C 129.819 41.834, 136 41.804, 136 42.191 C 136 45.244, 126.317 71.366, 119.971 85.431 L 117.746 90.363 116.269 87.545 L 114.793 84.727 112.536 87.558 L 110.278 90.389 109.026 88.049 C 107.267 84.761, 108.171 68.987, 110.540 61.648 C 111.579 58.430, 113.450 54.830, 114.697 53.648 C 117.045 51.424, 117.692 48.546, 116.068 47.542 C 115.556 47.226, 114.477 47.909, 113.670 49.061 L 112.202 51.156 95.851 49.458 C 86.858 48.524, 79.126 47.418, 78.669 46.999 C 77.132 45.592, 82.228 37.549, 88.490 31.500 C 93.310 26.843, 96.693 24.649, 103.600 21.701 C 113.672 17.402, 117.614 14.802, 116.585 13.137 C 115.588 11.525, 115.267 11.606, 107.097 15.521 M 132.818 27.958 C 130.433 30.685, 127.672 34.285, 126.684 35.958 L 124.887 39 130.836 39 C 137.705 39, 137.807 38.874, 138.704 29.262 C 139.091 25.126, 138.927 23, 138.222 23 C 137.635 23, 135.203 25.231, 132.818 27.958 M 76.878 32.714 L 68.256 36.236 72.154 39.758 C 74.298 41.695, 76.205 43.105, 76.391 42.890 C 76.577 42.676, 77.310 41.375, 78.020 40 C 78.730 38.625, 80.870 35.587, 82.776 33.250 C 84.682 30.913, 86.074 29.043, 85.870 29.096 C 85.667 29.149, 81.620 30.777, 76.878 32.714 M 28.500 32.353 C 22.091 35.344, 15.581 42.348, 16.419 45.352 C 18.874 54.152, 19.192 63.745, 18 93 C 16.652 126.082, 17.224 135.598, 21.004 143.007 C 24.091 149.059, 27.357 150.281, 37.471 149.170 C 47.447 148.073, 51.381 145.974, 56.485 139.021 C 63.539 129.411, 69.442 113.927, 76.438 86.680 C 78.672 77.978, 80.950 70.896, 81.500 70.942 C 82.125 70.993, 82.366 75.234, 82.143 82.262 C 81.707 96.024, 82.837 100.772, 87.532 104.894 C 91.625 108.488, 94.487 109.393, 101.954 109.455 L 107.408 109.500 111.694 102 C 116.429 93.714, 116.315 94.045, 115.112 92.147 C 114.425 91.063, 113.806 91.033, 112.005 91.997 C 110.088 93.023, 109.442 92.886, 107.628 91.070 C 105.707 89.146, 105.510 87.897, 105.604 78.219 C 105.681 70.239, 106.248 65.844, 107.821 61.018 C 108.984 57.452, 109.612 54.254, 109.218 53.910 C 108.626 53.394, 86.165 50.950, 82.373 50.989 C 81.640 50.996, 81.412 52.486, 81.720 55.250 C 82.092 58.577, 81.724 60.097, 80.025 62.250 C 78.831 63.763, 77.482 65, 77.025 65 C 75.730 65, 74 59.118, 74 54.713 L 74 50.725 68.733 51.344 C 65.836 51.684, 61.448 52.664, 58.983 53.520 C 50.677 56.406, 50.997 55.588, 49.959 76.651 C 49.038 95.345, 47.396 114.424, 46.335 118.750 C 45.622 121.657, 43.178 121.657, 42.560 118.750 C 42.298 117.513, 41.849 110.425, 41.563 103 C 41.277 95.575, 40.751 86.396, 40.395 82.602 C 39.586 73.970, 41.123 66.775, 45.125 60.463 C 47.890 56.104, 48.135 55.039, 47.841 48.666 C 47.410 39.336, 49.545 38.239, 50.515 47.293 L 51.200 53.695 56.845 51.401 C 59.950 50.139, 65.305 48.805, 68.745 48.437 C 72.185 48.068, 75 47.427, 75 47.011 C 75 45.667, 66.094 38, 64.533 38 C 63.702 38, 60.654 38.900, 57.761 39.999 C 51.581 42.348, 51 42.411, 51 40.735 C 51 40.039, 53.303 38.652, 56.117 37.652 C 62.043 35.547, 61.729 34.808, 53.717 31.992 C 45.619 29.146, 35.048 29.297, 28.500 32.353 M 137.974 45.750 C 136.010 53.001, 128.740 72.312, 123.691 83.688 L 119.169 93.876 122.016 98.188 C 128.582 108.133, 126.880 107.423, 144.394 107.516 L 159.952 107.598 156.471 104.410 C 151.029 99.425, 150.080 96.057, 150.575 83.477 C 150.961 73.673, 151.212 72.466, 153.003 71.803 C 155.631 70.831, 155.547 70.255, 151.953 64.587 C 150.278 61.945, 148.668 58.588, 148.375 57.126 C 147.665 53.573, 150.941 49.498, 155.766 47.935 C 163.144 45.545, 168.225 42.758, 166.824 41.870 C 166.096 41.408, 159.596 41.024, 152.380 41.015 L 139.260 41 137.974 45.750 M 77 55.441 C 77 57.948, 77.450 60, 78 60 C 78.550 60, 79 58.227, 79 56.059 C 79 53.891, 78.550 51.840, 78 51.500 C 77.389 51.122, 77 52.656, 77 55.441 M 45.714 64.657 C 44.926 66.221, 43.957 68.844, 43.562 70.487 C 42.580 74.568, 44.071 107.266, 45.091 104 C 45.955 101.232, 48.225 62.891, 47.563 62.230 C 47.335 62.001, 46.502 63.093, 45.714 64.657 M 114.277 103 L 111.053 109 116.945 109 C 125.779 109, 126.588 108.438, 123.257 104.617 C 121.741 102.876, 119.825 100.451, 119 99.227 C 117.525 97.038, 117.446 97.102, 114.277 103 M 115.362 111.737 L 109.224 112.090 105.463 117.795 C 103.395 120.933, 99.944 125.619, 97.794 128.208 C 94.537 132.129, 94.061 133.246, 94.942 134.892 C 98.325 141.214, 93.610 150.767, 78.157 168.903 C 75.768 171.706, 74.103 174, 74.456 174 C 74.984 174, 97.319 160.092, 107.110 153.666 L 109.721 151.953 110.899 162.425 C 111.547 168.185, 112.773 175.283, 113.624 178.198 C 117.428 191.232, 120.151 188.605, 130.932 161.500 C 137.714 144.448, 138.244 143.496, 140.472 144.351 C 142.008 144.940, 142.155 146.502, 141.846 159.006 L 141.500 173.001 147.500 172.966 C 155.517 172.918, 168.547 170.527, 171.566 168.549 C 176.642 165.223, 173.948 160.813, 159.267 148.410 C 147.534 138.499, 145.331 135.241, 148.330 132.241 C 150.357 130.214, 158.923 129.001, 165.950 129.745 L 171.401 130.322 169.262 126.911 C 165.631 121.117, 163.195 119.954, 151.401 118.384 C 143.344 117.312, 138.963 116.159, 134.610 113.967 C 130.825 112.061, 127.428 111.069, 125.110 111.193 C 123.124 111.299, 118.738 111.544, 115.362 111.737 M 78 133.500 C 79.345 135.120, 84.669 135.496, 86.835 134.123 C 88.481 133.079, 85.158 132.034, 80.128 132.014 C 77.243 132.002, 76.935 132.217, 78 133.500" stroke="none" fill="black" fill-rule="evenodd"/>
</svg>