<svg xmlns="http://www.w3.org/2000/svg" width="200" height="200" viewBox="0 0 200 200" version="1.1">
	<path d="M 156.500 22.765 C 149.760 23.210, 133.413 26, 113.892 30.035 L 95.285 33.881 86.731 29.588 C 73.037 22.715, 62.705 21.603, 53.918 26.054 C 48.778 28.658, 40.099 38.450, 34.568 47.884 C 29.360 56.768, 18 81.221, 18 83.548 C 18 85.691, 19.830 85.321, 23.182 82.500 C 26.977 79.307, 28.529 79.350, 30.727 82.710 C 32.336 85.169, 32.507 88.702, 32.578 120.960 C 32.658 157.030, 33.115 162.306, 36.640 167.804 C 39.444 172.178, 41.628 172.054, 52.446 166.903 C 82.097 152.788, 106.383 154.105, 122.819 170.722 C 125.963 173.900, 130.016 179.313, 131.826 182.750 L 135.117 189 140.377 189 C 155.204 189, 168.079 180.371, 173.085 167.079 C 177.683 154.870, 178.226 149.387, 178.384 113.500 L 178.534 79.500 181.863 71 C 186.872 58.208, 187.977 54.041, 187.989 47.905 C 188.002 41.304, 186.173 39, 180.921 39.001 C 177.148 39.002, 168.037 42.996, 159.820 48.252 L 154.500 51.655 150.648 48.861 C 145.288 44.974, 136.978 42.059, 128.602 41.127 C 120.505 40.227, 121.011 39.867, 133.500 37.636 C 161.647 32.610, 179.194 21.264, 156.500 22.765 M 148 26.514 C 134.778 28.334, 101.701 35.020, 100.550 36.105 C 98.238 38.283, 120.439 37.453, 133.380 34.876 C 144.509 32.660, 161.617 27.429, 162.522 25.965 C 163.277 24.742, 159.957 24.868, 148 26.514 M 58.634 26.971 C 49.511 29.894, 41.153 40.067, 31.086 60.500 C 27.292 68.200, 23.900 75.481, 23.549 76.680 C 22.944 78.742, 23.075 78.798, 25.961 77.709 C 28.691 76.678, 29.273 76.818, 31.496 79.041 C 35.488 83.033, 36.110 89.721, 35.791 125.196 C 35.485 159.125, 35.943 163.828, 39.894 167.404 C 41.707 169.045, 42.161 168.942, 49.648 165.185 C 59.523 160.230, 71.488 156.287, 80.356 155.065 C 89.127 153.857, 89.945 153.015, 82.417 152.944 C 73.999 152.863, 69.577 151.168, 69.196 147.874 C 68.947 145.729, 69.955 144.363, 74.696 140.421 C 77.888 137.766, 80.912 135.252, 81.415 134.833 C 81.917 134.414, 82.411 133.043, 82.510 131.785 C 82.730 129.017, 84.571 128.973, 94.218 131.507 C 100.327 133.112, 101.151 133.131, 103.308 131.718 C 105.459 130.308, 105.781 129.067, 106.771 118.332 C 107.371 111.824, 108.136 105.791, 108.471 104.925 C 108.992 103.576, 107.937 103.337, 101.136 103.263 L 93.193 103.178 84.346 109.710 C 79.481 113.303, 73.123 117.589, 70.219 119.235 C 66.511 121.335, 65.071 122.714, 65.387 123.863 C 65.634 124.763, 66.130 128.088, 66.490 131.250 C 67.034 136.032, 66.886 137, 65.612 137 C 64.601 137, 63.403 134.808, 62.087 130.547 C 60.991 126.998, 59.131 123.131, 57.953 121.953 C 56.213 120.213, 55.941 119.129, 56.498 116.156 C 57.736 109.549, 58.685 109.149, 60.338 114.539 L 61.861 119.500 61.974 109.500 C 62.041 103.610, 62.679 97.856, 63.526 95.500 C 64.763 92.060, 64.767 91.352, 63.554 90.442 C 61.296 88.749, 63.258 86.533, 65.807 87.897 C 66.941 88.504, 69.429 89, 71.335 89 C 73.897 89, 76.385 90.190, 80.864 93.557 C 84.200 96.065, 88.499 98.369, 90.425 98.682 C 93.478 99.177, 94.600 98.697, 99.212 94.923 C 102.121 92.543, 104.712 90.438, 104.971 90.244 C 106.745 88.916, 93.060 84.085, 84.424 82.990 C 77.618 82.127, 65.362 82.867, 58.681 84.544 C 56.695 85.042, 56 84.840, 56 83.765 C 56 82.258, 72.345 77.313, 92.250 72.799 C 97.612 71.583, 102 70.302, 102 69.952 C 102 69.603, 100.088 68.745, 97.750 68.047 C 95.412 67.349, 91.774 65.899, 89.665 64.825 L 85.830 62.873 78.964 66.952 C 54.085 81.732, 44.736 81.827, 47.789 67.268 C 48.906 61.945, 59.270 39.569, 61.160 38.401 C 61.653 38.097, 62.858 38.839, 63.839 40.050 C 65.336 41.898, 65.935 42.061, 67.561 41.064 C 68.628 40.411, 73.838 38.892, 79.140 37.688 C 84.442 36.485, 88.886 35.050, 89.015 34.500 C 89.144 33.950, 85.746 31.980, 81.464 30.122 C 73.183 26.529, 63.977 25.258, 58.634 26.971 M 84.206 39.239 C 79.644 40.342, 76.044 41.331, 76.206 41.437 C 76.368 41.543, 82.575 41.347, 90 41.002 C 99.963 40.539, 102.643 40.160, 100.229 39.558 C 98.430 39.109, 96.716 38.350, 96.420 37.871 C 95.693 36.694, 93.907 36.894, 84.206 39.239 M 178.474 41.988 C 174.802 42.799, 162.565 49.149, 158.696 52.252 C 155.926 54.472, 155.911 54.546, 157.446 58.218 C 159.404 62.903, 159.480 74.955, 157.592 81.568 C 156.705 84.677, 156 93.710, 155.684 106 C 155.158 126.452, 153.011 142.351, 149.049 155.130 C 146.567 163.136, 144.506 165.371, 142.287 162.462 C 141.036 160.822, 140.897 157.875, 141.438 144.500 C 142.650 114.541, 143.072 67.525, 142.141 66.125 C 141.434 65.061, 137.708 67.541, 125.682 77.080 L 110.138 89.410 113.336 92.955 C 118.044 98.173, 120.614 102.775, 122.533 109.423 C 124.869 117.518, 124.107 133.476, 120.858 144.500 L 118.500 152.500 106 153.432 C 94.021 154.324, 93.729 154.398, 99 155.200 C 105.893 156.249, 117.172 161.597, 122.765 166.467 C 125.111 168.510, 129.382 173.793, 132.258 178.208 L 137.485 186.234 143.993 185.765 C 159.354 184.658, 169.558 174.359, 173.736 155.746 C 175.052 149.880, 175.382 141.929, 175.468 114 L 175.575 79.500 179.676 69 C 187.910 47.921, 187.556 39.982, 178.474 41.988 M 56.678 52.250 C 51.403 63.093, 49.694 68.408, 50.161 72.518 C 50.473 75.258, 50.784 75.478, 54 75.226 C 57.828 74.926, 68.274 70.249, 77.166 64.853 L 82.833 61.414 75.931 56.018 C 72.136 53.049, 67.652 48.906, 65.968 46.810 C 64.284 44.715, 62.517 43, 62.042 43 C 61.567 43, 59.153 47.163, 56.678 52.250 M 83.250 43.683 C 74.862 43.886, 68 44.446, 68 44.927 C 68 45.864, 77.540 54.270, 82.504 57.706 L 85.508 59.786 93.004 55.391 C 100.979 50.715, 109.142 47.733, 111.495 48.636 C 113.278 49.321, 114.246 52.194, 113.420 54.348 C 112.876 55.764, 113.388 55.716, 117.314 53.979 C 122.941 51.490, 130.633 49.996, 134.225 50.694 C 137.108 51.254, 140.976 54.348, 142.745 57.508 C 143.760 59.323, 143.986 59.282, 147.909 56.563 C 151.256 54.244, 151.793 53.456, 150.823 52.287 C 149.135 50.253, 142.360 46.939, 136.500 45.279 C 131.032 43.731, 108.777 43.064, 83.250 43.683 M 105 52.442 C 103.075 53.158, 98.582 55.460, 95.014 57.558 L 88.529 61.372 93.698 63.638 C 96.542 64.884, 101.416 66.569, 104.531 67.382 C 114.706 70.039, 113.696 70.854, 95.142 74.964 C 77.218 78.934, 74.711 79.851, 81.540 79.937 C 87.907 80.017, 96.618 82.266, 102.909 85.454 L 107.785 87.925 124.142 74.930 C 133.139 67.782, 140.630 61.357, 140.788 60.651 C 141.304 58.351, 137.026 54.096, 133.541 53.442 C 129.644 52.711, 120.941 54.983, 113.826 58.588 C 111.208 59.915, 108.849 61, 108.584 61 C 108.319 61, 108.754 59.439, 109.551 57.532 C 112.301 50.952, 111.479 50.033, 105 52.442 M 149.166 58.820 L 145.832 61.586 145.504 88.187 C 145.324 102.817, 144.894 125.073, 144.548 137.644 C 143.991 157.873, 144.082 160.146, 145.341 157.415 C 149.293 148.849, 153.085 122.419, 153.508 100.500 C 153.703 90.350, 154.424 81.758, 155.479 77 C 157.165 69.394, 156.923 63.119, 154.759 58.370 C 153.415 55.421, 153.247 55.434, 149.166 58.820 M 102.664 95.634 C 100.099 97.632, 98 99.715, 98 100.261 C 98 102.130, 108.018 100.426, 110.270 98.174 C 112.318 96.126, 112.325 96.017, 110.532 94.035 C 109.519 92.916, 108.384 92, 108.009 92 C 107.635 92, 105.229 93.635, 102.664 95.634 M 66.098 96.149 C 65.494 97.881, 65 103.777, 65 109.251 L 65 119.203 68.971 116.852 C 76.762 112.238, 89.855 102.575, 89.373 101.794 C 89.103 101.357, 88.071 101, 87.081 101 C 86.090 101, 81.384 99.200, 76.622 97 C 71.860 94.800, 67.791 93, 67.580 93 C 67.368 93, 66.702 94.417, 66.098 96.149 M 112.094 102.750 C 110.281 109.666, 109.994 111.457, 109.131 121.271 C 108.082 133.198, 106.884 135, 100.004 135 C 97.427 135, 93.334 134.438, 90.909 133.750 L 86.500 132.500 78.529 140.191 L 70.559 147.882 73.529 149.056 C 77.299 150.547, 108.350 151.530, 112.976 150.305 C 116.111 149.476, 116.625 148.820, 118.202 143.641 C 120.916 134.727, 122.035 123.314, 120.949 115.642 C 120.008 109, 115.846 99, 114.022 99 C 113.502 99, 112.635 100.688, 112.094 102.750" stroke="none" fill="black" fill-rule="evenodd"/>
</svg>