<svg xmlns="http://www.w3.org/2000/svg" width="200" height="200" viewBox="0 0 200 200" version="1.1">
	<path d="M 43.411 15.371 C 43.074 16.248, 43.518 21.889, 44.398 27.905 C 46.024 39.030, 45.828 42.255, 43.579 41.392 C 41.431 40.568, 32.408 27.730, 30.652 23 C 28.265 16.571, 27.319 15.281, 25.977 16.623 C 25.169 17.431, 25.896 22.144, 28.674 34.114 C 30.975 44.032, 32.351 52.276, 32.158 55 C 31.569 63.349, 31.662 71.449, 32.469 82 C 33.209 91.674, 33.095 92.911, 31.026 97.719 C 29.791 100.589, 28.158 103.454, 27.397 104.086 C 24.874 106.179, 21 120.618, 21 127.926 C 21 136.732, 22.561 140.946, 29.949 152.085 C 37.945 164.140, 37.826 168.231, 29.220 177.216 C 26.244 180.322, 25.931 181.036, 27.311 181.566 C 31.510 183.177, 51.185 163.813, 62.713 146.724 L 69.925 136.031 72.788 140.265 C 74.363 142.594, 78.308 149, 81.556 154.500 C 84.804 160, 89.967 167.088, 93.029 170.250 C 98.309 175.701, 98.851 176, 103.470 176 C 107.959 176, 108.692 175.636, 112.776 171.374 C 115.391 168.645, 119.068 162.900, 121.745 157.364 L 126.281 147.981 123.065 139.240 C 117.615 124.432, 117.698 125, 120.995 125 C 123.722 125, 149.779 133.511, 151.166 134.855 C 151.532 135.210, 149.855 141.800, 147.440 149.500 C 140.619 171.242, 141.636 176.954, 152.588 178.429 C 157.809 179.132, 170.707 177.693, 172.154 176.246 C 173.927 174.473, 178.026 153.027, 179.165 139.571 C 180.083 128.711, 180.061 117.917, 179.065 90.571 C 178.061 63.022, 178.043 52.497, 178.982 41.500 L 180.177 27.500 176.411 24.241 C 161.671 11.484, 140.402 24.808, 131.300 52.500 C 128.992 59.519, 128.660 62.217, 128.585 74.500 C 128.538 82.200, 128.834 89.691, 129.243 91.146 C 129.795 93.113, 129.582 93.946, 128.411 94.396 C 127.545 94.728, 118.324 94.704, 107.918 94.342 L 89 93.684 89 88.397 L 89 83.110 93.750 82.805 L 98.500 82.500 102.719 74 C 105.743 67.906, 107.226 63.377, 107.957 58 C 108.518 53.875, 109.276 48.752, 109.641 46.616 C 110.159 43.586, 110.007 42.831, 108.949 43.184 C 107.297 43.734, 106.392 47.085, 105.140 57.290 C 104.480 62.666, 103.086 67.393, 100.641 72.540 C 97.126 79.942, 97.068 80, 93.192 80 L 89.285 80 88.642 73.853 C 88.289 70.473, 88 62.163, 88 55.388 C 88 43.627, 88.102 43.018, 90.250 41.902 C 91.487 41.259, 95.480 38.543, 99.122 35.867 C 102.765 33.190, 106.027 31, 106.372 31 C 107.714 31, 106.804 33.562, 101.500 44.722 C 98.475 51.086, 96 56.452, 96 56.646 C 96 56.841, 96.595 57, 97.321 57 C 98.788 57, 108.643 37.256, 109.579 32.444 C 109.972 30.417, 109.695 28.992, 108.755 28.211 C 107.274 26.983, 105.764 27.802, 93.500 36.491 L 88.500 40.033 88 29.267 C 87.725 23.345, 87.091 18.500, 86.591 18.500 C 85.249 18.500, 82.008 30.807, 82.004 35.921 C 82.002 38.383, 82.642 41.052, 83.448 41.943 C 84.539 43.148, 85.069 48.016, 85.596 61.646 L 86.295 79.749 70.897 80.206 C 55.182 80.672, 50.114 81.777, 45.807 85.674 C 44.353 86.990, 43.957 87.028, 43.561 85.886 C 42.740 83.518, 37 58.309, 37 57.070 C 37 54.942, 43.933 52.951, 53.538 52.320 C 58.742 51.978, 63 51.374, 63 50.978 C 63 49.953, 54.605 31.151, 50.568 23.134 C 46.643 15.341, 44.369 12.874, 43.411 15.371 M 46.457 22.385 C 46.778 23.422, 47.323 28.246, 47.668 33.105 C 48.279 41.716, 47.510 45, 44.880 45 C 43.384 45, 36.151 37.980, 33.908 34.351 C 32.733 32.450, 31.558 31.109, 31.296 31.370 C 30.684 31.982, 35.027 51.227, 36.028 52.343 C 36.445 52.806, 37.761 52.663, 38.954 52.025 C 40.146 51.387, 44.972 50.467, 49.678 49.982 C 54.384 49.496, 58.431 48.902, 58.671 48.662 C 58.912 48.421, 56.876 43.277, 54.147 37.229 C 49.178 26.216, 45.360 18.847, 46.457 22.385 M 155.500 24.358 C 146.736 28.458, 139.002 38.633, 134.289 52.267 C 131.214 61.164, 130.046 79.471, 131.939 89.095 C 132.773 93.337, 132.828 95.572, 132.115 96.285 C 130.803 97.597, 120.199 97.735, 103.250 96.659 L 90 95.819 90 101.949 C 90 107.740, 91.445 124.203, 92.488 130.288 C 93.309 135.083, 90.517 134.673, 84.425 129.105 C 81.352 126.297, 78.488 124, 78.058 124 C 77.629 124, 76.324 126.492, 75.158 129.539 L 73.039 135.077 80.624 147.789 C 93.392 169.183, 99.051 175.029, 105.438 173.426 C 109.278 172.462, 114.768 165.676, 119.230 156.376 L 123.258 147.982 119.549 137.572 C 117.509 131.846, 115.988 126.112, 116.170 124.831 C 116.711 121.008, 121.833 121.390, 136.250 126.329 L 149 130.696 149.029 104.098 C 149.061 75.367, 150.333 52.267, 151.974 50.626 C 154.472 48.128, 155.221 52.441, 156.143 74.647 C 156.666 87.216, 157.337 101.793, 157.636 107.040 C 158.330 119.231, 156.424 130.510, 150.598 148.703 C 144.825 166.729, 144.356 169.369, 146.380 172.458 C 148.425 175.579, 152.903 176.431, 162.519 175.530 L 169.994 174.830 171.471 169.665 C 176.439 152.298, 177.870 126.544, 176.161 85.273 C 175.461 68.361, 175.441 54.888, 176.100 44.398 C 177.200 26.912, 177.005 26.207, 170.282 23.362 C 165.635 21.395, 161.195 21.695, 155.500 24.358 M 34.378 68 C 34.731 72.675, 35.295 79.068, 35.630 82.206 C 36.517 90.497, 35.373 95.997, 31.388 102.616 C 26.533 110.679, 23.914 119.026, 23.778 126.877 C 23.630 135.389, 25.113 139.828, 31.074 148.716 C 39.514 161.301, 40.506 164.589, 37.565 170.227 L 36.142 172.955 39.146 170.734 C 43.020 167.870, 54.698 153.850, 60.862 144.664 C 65.647 137.534, 74 123.565, 74 122.694 C 74 121.567, 64.430 120, 57.548 120 L 49.983 120 50.574 125.250 C 51.222 131.009, 49.647 134.569, 46.914 133.521 C 46.071 133.197, 43.968 130.585, 42.239 127.716 C 37.187 119.330, 37.189 119.244, 42.421 118.460 C 44.939 118.082, 47 117.648, 47 117.495 C 47 114.731, 35.042 60.722, 34.270 60 C 33.976 59.725, 34.025 63.325, 34.378 68 M 152.234 100.500 C 152.188 124.003, 152.450 131.703, 153.221 129.500 C 154.603 125.548, 154.673 100.087, 153.350 82.500 C 152.334 68.993, 152.294 69.628, 152.234 100.500 M 54.534 84.468 C 48.221 86.162, 44.565 90.074, 45.399 94.243 C 46.502 99.762, 49.141 104.167, 50.889 103.410 C 57.932 100.364, 72.854 95.841, 79.012 94.885 L 86.500 93.723 86.157 88.361 L 85.815 83 72.657 83.067 C 65.071 83.106, 57.398 83.699, 54.534 84.468 M 74.500 98.474 C 68.951 99.690, 65.681 100.772, 52.707 105.685 L 47.914 107.500 48.572 111.500 C 48.934 113.700, 49.430 115.838, 49.674 116.250 C 49.918 116.662, 53.368 117, 57.341 117 C 61.314 117, 67.024 117.638, 70.031 118.418 C 73.037 119.198, 75.555 119.760, 75.626 119.668 C 75.696 119.576, 76.719 117.588, 77.897 115.250 C 79.076 112.912, 80.482 111, 81.020 111 C 82.357 111, 82.268 111.732, 80.299 116.888 C 78.669 121.156, 78.675 121.389, 80.453 122.422 C 81.474 123.015, 83.889 124.850, 85.821 126.500 L 89.334 129.500 88.643 122.071 C 88.264 117.986, 87.671 110.673, 87.327 105.821 L 86.701 97 83.600 97.079 C 81.895 97.123, 77.800 97.751, 74.500 98.474 M 44.250 120.804 C 41.416 121.226, 41.427 121.369, 44.750 126.912 L 47.500 131.500 47.807 127.263 C 48.180 122.110, 47.218 120.363, 44.250 120.804" stroke="none" fill="black" fill-rule="evenodd"/>
</svg>