<svg xmlns="http://www.w3.org/2000/svg" width="200" height="200" viewBox="0 0 200 200" version="1.1">
	<path d="M 125.500 13.474 C 117.815 14.958, 111.562 17.033, 99.664 22.047 L 91.829 25.349 78.664 23.662 C 57.528 20.953, 47.379 21.769, 29.510 27.617 C 18.897 31.090, 17.918 32.045, 20.875 36.045 C 29.486 47.692, 32.005 53.639, 32.730 64.027 C 33.433 74.109, 30.542 85.477, 24.002 98.337 C 21.251 103.748, 19 108.360, 19 108.587 C 19 108.814, 19.583 109, 20.296 109 C 21.009 109, 22.936 106.646, 24.578 103.768 C 28.113 97.574, 32.941 94, 37.772 94 C 39.684 94, 44.803 95.605, 49.148 97.567 C 59.399 102.195, 62.614 102.650, 66.759 100.057 C 71.073 97.359, 73.500 93.226, 76.651 83.213 C 78.085 78.655, 79.452 75.119, 79.688 75.355 C 79.925 75.591, 79.416 79.483, 78.559 84.003 C 75.742 98.853, 77.073 106.637, 81.982 104.010 C 84.049 102.904, 93 92.958, 93 91.767 C 93 91.345, 93.450 91, 94 91 C 95.940 91, 94.979 99.296, 92.363 105.125 L 89.727 111 66.679 111 C 40.487 111, 34.260 112.030, 29.333 117.177 C 26.829 119.792, 26.506 120.855, 26.555 126.318 C 26.595 130.957, 27.307 133.951, 29.407 138.314 C 31.950 143.596, 32.105 144.527, 31.103 148.506 C 29.584 154.539, 29.720 164.411, 31.377 168.282 C 37.542 182.690, 59.987 184.757, 92.494 173.910 C 99.098 171.706, 107.200 168.463, 110.500 166.702 L 116.500 163.500 117.190 157 C 117.570 153.425, 118.593 138.125, 119.464 123 C 121.229 92.349, 122.544 80.143, 124.624 75.096 C 125.395 73.225, 126.171 71.875, 126.347 72.096 C 126.524 72.318, 126.264 77.675, 125.769 84 C 123.692 110.545, 129.264 132, 138.235 132 C 141.930 132, 146.674 125.875, 149.128 117.935 C 151.505 110.242, 151.634 107.443, 151.245 72 C 151.181 66.225, 151.213 56.847, 151.315 51.160 C 151.490 41.389, 151.370 40.715, 149.139 38.910 C 144.564 35.208, 136.958 36.767, 126.282 43.597 C 123.355 45.468, 120.772 47, 120.540 47 C 120.309 47, 121.217 43.771, 122.560 39.825 C 125.367 31.570, 125.445 30.995, 123.750 31.013 C 122.525 31.026, 114.839 42.238, 111.530 48.840 C 109.709 52.472, 110.076 55, 112.425 55 C 113.542 55, 112.558 58.277, 108.477 68.147 C 105.487 75.377, 102.796 81.538, 102.497 81.836 C 102.198 82.135, 101.232 81.348, 100.349 80.088 C 99.116 78.328, 98.554 78.103, 97.926 79.120 C 96.785 80.966, 96.440 79.541, 95.117 67.500 C 94.512 62, 93.730 55.813, 93.378 53.750 C 92.773 50.205, 92.882 50, 95.369 50 C 97.041 50, 98 49.453, 98 48.500 C 98 46.945, 95.600 46.648, 85.773 46.984 C 83.172 47.073, 80.626 46.887, 80.114 46.570 C 79.578 46.239, 80.093 43.194, 81.328 39.397 C 83.225 33.563, 83.938 32.559, 87.487 30.721 C 91.123 28.837, 93.002 28.663, 107.500 28.860 C 117.077 28.991, 128.518 28.469, 136 27.559 C 142.875 26.723, 149.478 26.031, 150.672 26.020 C 155.169 25.979, 155.524 29.935, 155.206 76.500 C 154.888 122.929, 154.613 126.128, 148.855 150.500 C 145.109 166.352, 144.734 172.934, 147.405 175.891 C 149.670 178.398, 152.226 178.535, 158.124 176.463 C 164.420 174.251, 178.993 165.724, 178.997 164.250 C 179.002 162.375, 178.328 162.617, 170.055 167.468 C 161.846 172.280, 155.125 175, 151.442 175 C 147.052 175, 147.093 170.348, 151.655 151 C 156.985 128.394, 157.047 127.774, 158.094 86.500 C 159.147 45.007, 158.910 35.671, 156.642 29.087 L 155.300 25.190 168.400 22.707 C 175.605 21.341, 181.565 20.286, 181.644 20.362 C 181.723 20.438, 181.113 23.425, 180.287 27 C 179.148 31.937, 178.691 42.276, 178.388 70 C 178.169 90.075, 177.879 115.163, 177.745 125.750 C 177.573 139.223, 177.830 145, 178.599 145 C 180.354 145, 180.989 128.941, 180.995 84.474 C 181 42.869, 181.752 29.958, 184.620 22.189 C 185.496 19.818, 185.960 17.627, 185.653 17.320 C 185.346 17.012, 178.870 17.940, 171.262 19.380 C 163.654 20.821, 156.610 22, 155.608 22 C 154.607 22, 152.893 20.862, 151.799 19.472 C 147.107 13.507, 137.122 11.230, 125.500 13.474 M 122 17.059 C 117.875 18.131, 110.900 20.469, 106.500 22.254 L 98.500 25.500 110 25.822 C 120.993 26.130, 143.220 24.571, 148.691 23.107 L 151.281 22.415 148.110 19.746 C 142.062 14.657, 134.313 13.860, 122 17.059 M 48.500 25.654 C 39.128 27.634, 31.674 29.583, 27.257 31.209 L 22.014 33.138 25.495 37.697 C 36.335 51.894, 38.475 67.814, 32.088 86.734 C 31.021 89.895, 30.301 92.634, 30.488 92.822 C 30.676 93.009, 31.835 92.624, 33.064 91.966 C 36.270 90.250, 42.226 91.378, 51.500 95.457 C 55.900 97.392, 60.558 98.981, 61.850 98.988 C 66.298 99.011, 70.460 93.326, 73.950 82.459 C 79.325 65.726, 85 56.136, 85 63.786 C 85 65.410, 83.875 72.169, 82.500 78.806 C 79.566 92.968, 79.159 102.260, 81.513 101.357 C 82.345 101.037, 85.545 97.339, 88.623 93.138 L 94.221 85.500 93.603 78 C 92.869 69.084, 90.197 50.864, 89.525 50.192 C 89.265 49.931, 84.877 49.616, 79.776 49.491 C 74.674 49.366, 64.753 48.918, 57.730 48.495 C 46.197 47.801, 44.767 47.901, 42.976 49.522 C 41.317 51.023, 40.570 51.125, 38.417 50.144 C 35.183 48.671, 35.754 46.605, 39.517 46.165 C 41.092 45.981, 44.142 44.322, 46.295 42.479 C 51.307 38.189, 55.953 36, 60.044 36 C 62.604 36, 64.345 37.060, 68.324 41.038 C 71.095 43.810, 74.031 45.947, 74.848 45.788 C 75.706 45.622, 77.365 42.407, 78.774 38.180 C 80.577 32.769, 81.838 30.575, 83.607 29.769 C 84.923 29.170, 86 28.373, 86 28 C 86 26.167, 55.194 24.241, 48.500 25.654 M 52.250 41.566 C 49.913 42.967, 48 44.538, 48 45.057 C 48 45.589, 52.633 46, 58.622 46 C 68.579 46, 69.162 45.890, 67.916 44.250 C 63.467 38.393, 58.861 37.604, 52.250 41.566 M 138.500 40.394 C 133.852 41.859, 119.036 50.932, 117.825 53.054 C 117.371 53.850, 114.055 61.652, 110.455 70.394 L 103.910 86.288 105.455 90.822 C 108.607 100.074, 106.805 107.441, 100.677 110.349 C 97.614 111.802, 97.144 112.591, 96.063 118.085 C 95.401 121.450, 94.674 124.719, 94.448 125.351 C 94.201 126.042, 97.595 127.658, 102.962 129.406 C 107.871 131.004, 112.432 132.649, 113.098 133.060 C 115.776 134.716, 81.925 168.109, 72.502 173.108 C 68.315 175.329, 67.942 175.370, 66.353 173.782 C 64.866 172.294, 64.806 171.451, 65.859 166.795 C 66.518 163.883, 69.007 156.926, 71.390 151.336 L 75.724 141.172 72.980 139.143 C 67.891 135.381, 67.342 128.493, 71.934 126.035 C 73.060 125.433, 76.090 124.774, 78.669 124.571 C 83.052 124.225, 83.505 123.918, 85.633 119.851 C 86.885 117.458, 87.930 115.162, 87.955 114.750 C 88.024 113.600, 43.012 113.869, 38.781 115.044 C 36.736 115.612, 33.698 117.225, 32.031 118.627 C 27.858 122.138, 27.854 128.073, 32.016 136.872 L 35.031 143.244 33.463 150.833 C 30.897 163.257, 33.198 170.456, 41.201 175.038 C 45.157 177.304, 46.496 177.496, 58 177.446 C 68.870 177.400, 72.038 176.973, 82.289 174.173 C 93.274 171.172, 111.156 164.244, 113.206 162.194 C 114.151 161.249, 114.982 151.365, 117.508 111 C 119.632 77.072, 121.584 69, 127.667 69 C 129.886 69, 129.982 69.249, 129.305 73.250 C 128.009 80.913, 128.405 109.073, 129.904 115.830 C 131.521 123.126, 134.652 128.367, 137.652 128.802 C 140.505 129.216, 144.549 124.189, 146.579 117.703 C 148.736 110.815, 149.576 88.915, 148.107 77.879 C 147.158 70.745, 147.239 67.713, 148.598 59.673 C 150.389 49.070, 149.936 43.936, 146.944 40.944 C 144.715 38.715, 143.981 38.667, 138.500 40.394 M 114.996 48.008 C 113.817 50.318, 113.339 51.908, 113.933 51.541 C 115.361 50.659, 118.288 44.954, 117.643 44.310 C 117.366 44.033, 116.175 45.697, 114.996 48.008 M 97.503 85.130 C 97.141 86.576, 96.991 89.013, 97.172 90.546 L 97.500 93.333 99.185 89.769 C 100.619 86.736, 100.668 85.929, 99.517 84.354 C 98.239 82.606, 98.126 82.649, 97.503 85.130 M 99.929 94.750 C 98.739 97.362, 97.531 101.681, 97.246 104.346 L 96.727 109.193 99.755 107.627 C 103.870 105.499, 105.249 101.262, 103.891 94.926 C 103.310 92.217, 102.668 90, 102.464 90 C 102.260 90, 101.120 92.138, 99.929 94.750 M 88.805 119.033 C 86.825 123.418, 86.472 125, 87.474 125 C 88.223 125, 89.482 125.248, 90.270 125.550 C 91.343 125.962, 91.993 124.661, 92.852 120.383 C 94.283 113.256, 94.280 112.993, 92.750 113.033 C 92.063 113.051, 90.287 115.751, 88.805 119.033 M 74.009 128.290 C 72.639 128.983, 71.384 130.244, 71.221 131.092 C 70.900 132.760, 74.567 138, 76.056 138 C 76.854 138, 82 128.939, 82 127.533 C 82 126.515, 76.486 127.037, 74.009 128.290 M 82.517 132.967 C 79.488 138.944, 79.487 138.947, 81.998 138.290 C 84.421 137.657, 90 131.503, 90 129.465 C 90 128.572, 89.031 128, 87.517 128 C 85.544 128, 84.517 129.020, 82.517 132.967 M 92.015 131.963 C 90.335 136.020, 85.671 140.115, 81.839 140.899 C 78.739 141.533, 78.235 142.246, 74.318 151.539 C 69.616 162.697, 67.253 170.587, 68.301 171.634 C 69.691 173.024, 80.603 164.254, 95.399 149.857 L 110.500 135.163 107 133.684 C 105.075 132.870, 101.177 131.520, 98.338 130.683 L 93.176 129.160 92.015 131.963" stroke="none" fill="black" fill-rule="evenodd"/>
</svg>