<svg xmlns="http://www.w3.org/2000/svg" width="200" height="200" viewBox="0 0 200 200" version="1.1">
	<path d="M 134.905 7.058 C 124.210 8.080, 96.438 12.611, 94.849 13.594 C 94.286 13.941, 94.203 14.603, 94.663 15.063 C 95.124 15.524, 101.801 14.792, 109.501 13.437 C 130.316 9.774, 149.898 8.355, 160.346 9.753 C 173.562 11.521, 179.775 15.559, 181.964 23.804 C 183.398 29.206, 182.831 33.339, 177.755 54.500 C 174.365 68.634, 173.670 73.270, 173.630 82 C 173.588 91.394, 173.881 93.185, 176.417 99 C 186.829 122.879, 187.431 137.027, 178.730 153.357 C 171.690 166.572, 155.280 178.455, 147.045 176.302 C 142.935 175.227, 143.795 169.206, 149.220 161.072 C 156.140 150.695, 158.567 129.016, 157.531 86.845 L 156.826 58.190 159.024 57.492 C 162.686 56.330, 169 49.989, 169 47.473 C 169 44.879, 164.921 41.038, 160.002 39.001 L 156.738 37.649 157.333 30.574 C 157.661 26.683, 158.204 22.556, 158.541 21.402 C 159.110 19.455, 158.660 19.257, 152.327 18.659 C 148.572 18.304, 134.175 18.011, 120.333 18.007 C 102.965 18.002, 95.053 17.660, 94.801 16.903 C 94.536 16.107, 93.319 16.106, 90.374 16.899 C 88.141 17.501, 78.824 19.345, 69.670 20.999 C 49.999 24.552, 41.069 27.296, 35.656 31.452 C 29.297 36.334, 27.639 39.248, 27.229 46.261 C 26.774 54.029, 29.191 61.422, 35.727 72.256 L 40.406 80.013 48.203 79.363 C 52.491 79.005, 56 78.953, 56 79.246 C 56 79.540, 51.270 81.681, 45.490 84.004 C 39.709 86.327, 33.824 89.138, 32.410 90.249 C 30.078 92.084, 29.986 92.414, 31.408 93.837 C 32.397 94.825, 35.375 95.556, 39.478 95.818 L 45.980 96.232 42.240 98.943 C 34.848 104.301, 31.261 114.225, 28.482 137 C 26.398 154.071, 24.676 161.732, 21.522 167.956 C 20.146 170.672, 19.381 173.117, 19.822 173.390 C 20.263 173.663, 23.850 170.786, 27.792 166.997 C 40.260 155.014, 47.867 152.223, 52.192 158.044 C 53.267 159.490, 54.876 164.885, 55.921 170.544 C 56.932 176.020, 58.073 181.253, 58.457 182.173 C 60.910 188.055, 66.797 182.374, 76 165.243 C 79.949 157.893, 83.488 152.559, 85.017 151.653 C 86.402 150.833, 89.674 148.279, 92.288 145.978 C 96.089 142.632, 97.545 141.920, 99.555 142.424 C 100.937 142.771, 102.464 144.055, 102.949 145.278 C 103.433 146.500, 104.338 155.825, 104.960 166 C 105.582 176.175, 106.351 185.826, 106.668 187.447 L 107.245 190.393 109.079 186.947 C 112.932 179.703, 116.291 167.721, 116.336 161.058 C 116.385 153.673, 115.391 151.228, 110.007 145.500 C 105.448 140.649, 104.263 134.100, 106.561 126.462 C 108.895 118.710, 107.962 104.834, 104.504 95.864 C 104.017 94.600, 104.739 94.024, 107.687 93.327 C 112.715 92.138, 112.568 90.007, 107.286 87.500 L 103.072 85.500 103.036 79.623 C 103.008 75.064, 103.675 72.372, 106.008 67.623 C 108.083 63.397, 109.245 59.177, 109.758 54.003 L 110.500 46.506 114.500 45.175 C 119.398 43.545, 125.986 44.260, 127.702 46.607 C 131.110 51.268, 130.359 57.224, 123.500 79.950 C 120.009 91.518, 119.250 103.531, 121.400 113.196 C 125.140 130.005, 136.305 138.663, 144.907 131.425 C 153.390 124.287, 152.918 101.948, 143.717 75.074 C 141.362 68.196, 140.591 64.718, 141.359 64.438 C 141.987 64.209, 145.041 63.157, 148.146 62.100 L 153.792 60.179 154.531 77.840 C 155.947 111.675, 153.716 147.209, 149.711 154.637 C 149.045 155.871, 147.199 159.010, 145.608 161.611 C 141.928 167.629, 141.029 174.270, 143.522 177.025 C 148.088 182.070, 161.594 177.246, 171.979 166.861 C 187.137 151.703, 191.413 130.175, 183.403 109.341 C 173.753 84.240, 173.756 84.745, 182.980 45 C 185.292 35.036, 185.565 24.289, 183.624 19.643 C 181.667 14.959, 175.737 10.470, 169.013 8.584 C 161.673 6.524, 147.245 5.879, 134.905 7.058 M 87.500 21.701 C 77.726 22.593, 65.073 25.280, 60.250 27.487 C 57.362 28.808, 55 30.092, 55 30.339 C 55 30.587, 56.688 30.398, 58.750 29.919 C 60.813 29.440, 71.315 29.037, 82.089 29.024 L 101.679 29 102.818 26.500 C 104.330 23.182, 106.869 23.326, 108.080 26.798 C 109.048 29.576, 109.165 29.610, 124.009 31.369 C 132.234 32.345, 142.290 33.935, 146.357 34.904 L 153.750 36.665 154.375 30.686 C 154.719 27.397, 155 23.873, 155 22.853 C 155 21.084, 153.556 21.008, 123.250 21.168 C 105.787 21.261, 89.700 21.500, 87.500 21.701 M 45.626 29.354 C 38.868 31.943, 32.323 37.040, 30.846 40.863 C 28.055 48.089, 30.904 59.693, 38.315 71.277 L 41.906 76.892 50.360 76.696 C 64.515 76.368, 63.453 79.322, 46.899 86.318 C 40.630 88.967, 35.050 91.605, 34.500 92.179 C 33.806 92.903, 37.636 93.034, 47 92.607 C 54.425 92.269, 69.350 91.708, 80.167 91.361 L 99.834 90.730 98.792 88.442 C 98.218 87.183, 96.575 85.859, 95.141 85.499 C 89.426 84.065, 78.133 78.117, 76.958 75.922 C 75.873 73.894, 76.042 73.361, 78.421 71.314 C 81.509 68.658, 83.683 68.446, 86.441 70.532 C 90.601 73.678, 91.024 72.086, 87.776 65.500 C 86.013 61.925, 84.251 59, 83.860 59 C 83.469 59, 79.427 60.800, 74.877 63 C 65.907 67.338, 63.867 67.750, 62.073 65.587 C 61.167 64.497, 61.245 63.349, 62.413 60.555 C 64.016 56.718, 73.309 42.819, 75.470 41.025 C 76.455 40.207, 77.738 41.684, 81.011 47.405 L 85.271 54.850 92.567 51.239 L 99.864 47.629 100.554 40.269 C 100.933 36.222, 100.961 32.627, 100.615 32.282 C 99.497 31.164, 60.635 31.534, 58.593 32.683 C 56.991 33.584, 57.904 34.043, 64.302 35.551 C 72.546 37.494, 73.959 38.887, 71.500 42.641 C 68.661 46.974, 57.882 44.952, 52.583 39.094 C 50.163 36.417, 50.118 31.632, 52.488 29.013 C 54.896 26.352, 53.246 26.434, 45.626 29.354 M 103.458 38.545 C 103.073 42.145, 102.998 45.332, 103.293 45.626 C 103.588 45.921, 104.819 45.632, 106.030 44.984 C 108.013 43.923, 108.165 43.299, 107.556 38.710 C 107.184 35.908, 106.655 33.252, 106.381 32.807 C 105.064 30.677, 104.098 32.575, 103.458 38.545 M 110.189 37.607 C 110.478 42.151, 110.679 42.483, 113 42.267 C 125.376 41.115, 128.973 42.107, 131.107 47.259 C 133.598 53.273, 132.675 58.936, 125.197 83.500 C 122.890 91.079, 122.980 111.008, 125.352 117.815 C 127.911 125.161, 133.589 131, 138.171 131 C 144.999 131, 148 124.959, 148 111.214 C 148 100.919, 146.023 90.976, 140.919 75.599 C 138.746 69.054, 137.232 63.429, 137.554 63.099 C 137.876 62.770, 141.596 61.338, 145.820 59.918 L 153.500 57.336 153.789 48.658 C 154.075 40.074, 154.049 39.969, 151.420 38.970 C 148.050 37.688, 127.382 34.299, 117.446 33.399 L 109.879 32.713 110.189 37.607 M 53.991 35.983 C 55.861 39.478, 61.028 42.077, 65.500 41.772 C 71.001 41.398, 69.931 39.756, 63.187 38.224 C 60.098 37.523, 56.510 36.253, 55.212 35.403 C 52.938 33.913, 52.894 33.934, 53.991 35.983 M 157 48 C 157 51.850, 157.284 55, 157.632 55 C 157.980 55, 159.756 54.078, 161.580 52.950 C 167.283 49.426, 167.221 45.430, 161.422 42.664 C 159.503 41.749, 157.722 41, 157.466 41 C 157.210 41, 157 44.150, 157 48 M 69.701 53.586 C 63.816 62.450, 63.147 64, 65.206 64 C 67.247 64, 82 56.744, 82 55.740 C 82 54.489, 76.656 45.002, 75.951 45.001 C 75.649 45, 72.836 48.864, 69.701 53.586 M 104.209 48.850 C 103.273 49.443, 102.998 52.127, 103.209 58.585 L 103.500 67.500 105.163 62 C 108.671 50.398, 108.367 46.212, 104.209 48.850 M 92.750 54.064 C 89.588 55.696, 87 57.271, 87 57.563 C 87 58.841, 95.263 73, 96.009 73 C 99.595 73, 100 71.821, 100 61.393 C 100 55.677, 99.662 51.022, 99.250 51.048 C 98.838 51.075, 95.912 52.432, 92.750 54.064 M 80.122 72.875 C 79.364 73.371, 79.057 74.283, 79.440 74.902 C 80.278 76.259, 86.817 79.671, 92.257 81.591 C 95.922 82.884, 96.156 82.858, 95.491 81.242 C 95.096 80.284, 94.557 78.752, 94.293 77.838 C 93.888 76.435, 90 74.575, 83 72.433 C 82.175 72.181, 80.880 72.380, 80.122 72.875 M 97.035 76.750 C 97.055 77.713, 97.714 79.625, 98.500 81 C 99.909 83.464, 99.930 83.439, 99.965 79.250 C 99.991 76.123, 99.604 75, 98.500 75 C 97.675 75, 97.016 75.787, 97.035 76.750 M 103 90 C 103 90.550, 104.237 90.993, 105.750 90.985 C 107.893 90.973, 108.169 90.755, 107 90 C 105.043 88.736, 103 88.736, 103 90 M 67.500 94.719 C 68.600 94.987, 73.662 96.531, 78.750 98.150 C 91.584 102.235, 91.041 103.562, 76.250 104.261 C 63.570 104.860, 55.752 106.389, 53.888 108.635 C 52.258 110.599, 53.404 111.389, 55.755 109.921 C 57.421 108.881, 58.901 109.340, 65.904 113.071 C 75.962 118.430, 80.639 122.158, 79.538 123.938 C 78.170 126.152, 70.611 124.533, 61.800 120.140 L 53.555 116.029 49.695 119.765 C 42.585 126.646, 41.041 132.272, 45.750 134.141 C 47.263 134.742, 57.275 135.589, 68 136.024 C 78.725 136.458, 89.410 137.138, 91.745 137.534 C 96.523 138.344, 98.211 137.427, 100.661 132.689 C 101.951 130.194, 102.077 126.941, 101.467 111.866 L 100.745 94 83.122 94.116 C 73.430 94.180, 66.400 94.451, 67.500 94.719 M 49.211 98.129 C 44.433 99.507, 38.560 105.886, 36.157 112.309 C 33.966 118.167, 33.283 121.808, 30.027 145 C 28.908 152.975, 27.694 160.625, 27.330 162 C 26.732 164.258, 27.111 164.095, 31.235 160.321 C 42.187 150.298, 51.075 149.442, 55.493 157.986 C 56.308 159.562, 57.697 165.047, 58.581 170.176 C 59.464 175.304, 60.526 180.107, 60.939 180.849 C 62.104 182.941, 66.578 176.863, 73.949 163.173 C 78.130 155.408, 81.350 150.634, 83.107 149.596 C 84.597 148.716, 87.647 146.466, 89.885 144.596 C 93.300 141.743, 93.677 141.086, 92.227 140.507 C 91.277 140.127, 81.275 139.436, 70 138.971 C 46.868 138.017, 42.071 136.993, 40.558 132.687 C 39.316 129.152, 42.293 123.073, 47.991 117.509 C 51.304 114.273, 51.721 113.396, 50.931 111.319 C 49.106 106.518, 57.277 102.211, 68.799 101.900 C 70.835 101.845, 73.625 101.472, 75 101.071 C 77.078 100.465, 76.287 100.060, 70.303 98.671 C 62.459 96.850, 54.367 96.642, 49.211 98.129 M 104.300 112 C 104.300 115.025, 104.487 116.263, 104.716 114.750 C 104.945 113.237, 104.945 110.763, 104.716 109.250 C 104.487 107.737, 104.300 108.975, 104.300 112 M 56.553 112.915 C 55.840 114.068, 60.894 117.211, 67.885 119.960 C 76.409 123.312, 75.898 121.862, 66.744 116.724 C 57.688 111.641, 57.405 111.535, 56.553 112.915 M 101.158 137.100 C 100.035 138.914, 100.035 139.405, 101.158 140.108 C 102.593 141.006, 103.406 139.230, 102.823 136.466 C 102.572 135.274, 102.202 135.414, 101.158 137.100 M 106.374 148.751 C 106.667 150.263, 107.203 157.181, 107.566 164.124 C 107.929 171.067, 108.589 177.335, 109.033 178.053 C 110.335 180.159, 113.408 168.312, 113.457 161 C 113.490 155.930, 113.001 153.697, 111.230 150.849 C 108.242 146.044, 105.631 144.916, 106.374 148.751" stroke="none" fill="black" fill-rule="evenodd"/>
</svg>