<svg xmlns="http://www.w3.org/2000/svg" width="200" height="200" viewBox="0 0 200 200" version="1.1">
	<path d="M 82.500 17.864 C 72.694 25.703, 69.001 32.254, 68.998 41.815 L 68.996 47.500 59.564 54.746 C 49.323 62.615, 49.835 62.626, 48.534 54.500 C 48.182 52.300, 47.662 49.712, 47.379 48.750 C 47.049 47.625, 47.408 47, 48.386 47 C 49.222 47, 51.074 46.468, 52.502 45.817 C 59.851 42.469, 49.941 34.573, 36.857 33.351 C 28.217 32.544, 21.130 34.267, 17.173 38.135 C 11.356 43.823, 10.749 51.327, 15.111 63.658 C 17.320 69.905, 17.320 71.052, 15.095 106.317 C 13.684 128.664, 16.074 142.136, 22.209 146.434 C 25.011 148.397, 31.978 148.454, 36.532 146.551 C 39.902 145.143, 40 144.945, 40 139.519 C 40 132.424, 42.089 127.267, 45.287 126.464 C 46.856 126.070, 50.952 127.111, 56.953 129.429 C 66.731 133.205, 69.012 133.599, 71.961 132.021 C 75.806 129.963, 77.231 117.761, 74.999 105.993 C 74.222 101.898, 74.364 98.902, 75.633 92.642 C 77.596 82.955, 77.077 71.932, 74.009 58.120 C 72.864 52.961, 72.099 48.568, 72.310 48.356 C 74.426 46.240, 93.574 34.290, 93.802 34.943 C 93.967 35.419, 92.102 42.040, 89.657 49.655 C 87.212 57.270, 84.974 64.540, 84.683 65.811 C 84.072 68.486, 86.275 69.846, 88.385 68.096 C 90.290 66.514, 91 70.719, 91 83.590 C 91 106.707, 80.031 142.714, 66.038 165.532 C 60.351 174.805, 59.678 178, 63.410 178 C 70.441 178, 93.998 151.906, 102.490 134.711 C 104.941 129.749, 106.826 123.601, 108.535 115 C 111.507 100.037, 113.741 92, 114.928 92 C 115.720 92, 116.982 96.472, 118.455 104.500 C 118.758 106.150, 119.911 114.475, 121.016 123 C 122.122 131.525, 123.269 139.679, 123.564 141.119 C 124.034 143.411, 123.254 144.400, 117.301 149.052 C 103.002 160.226, 90 174.383, 90 178.777 C 90 185.495, 102.276 178.861, 124.250 160.268 L 133 152.864 133 156.283 C 133 164.471, 137.228 171.266, 144.401 174.606 C 159.142 181.470, 178.635 172.636, 175.583 160.475 C 174.737 157.106, 168.421 150.228, 164.583 148.497 C 160.341 146.583, 158.603 145.038, 156.130 140.982 C 151.998 134.203, 153.746 126.468, 164.069 105.862 C 172.223 89.586, 173.792 84.436, 171.845 80.338 C 168.737 73.794, 158.613 72.343, 151.037 77.357 C 146.347 80.460, 142.983 85.945, 137.545 99.351 C 135.318 104.842, 132.975 109.508, 132.339 109.720 C 130.827 110.224, 127.785 101.957, 123.476 85.639 C 119.518 70.651, 119.315 68.511, 121.750 67.455 C 122.713 67.037, 134.300 66.407, 147.500 66.055 C 173.536 65.360, 176.824 64.675, 179.203 59.455 C 181.339 54.765, 178.788 50.130, 166.852 37.016 C 156.072 25.172, 148.527 19, 144.827 19 C 143.848 19, 142.304 20.133, 141.396 21.518 C 139.308 24.705, 139.947 31.097, 143.913 46.704 L 146.760 57.908 141.208 59.061 C 134.340 60.486, 128.982 59.148, 126.521 55.392 C 125.587 53.966, 123.977 48.021, 122.944 42.182 C 119.865 24.777, 116.217 22.409, 100.318 27.499 C 98.463 28.093, 98.217 27.885, 98.681 26.111 C 99.522 22.894, 98.103 17.103, 95.944 14.944 C 92.782 11.782, 89.111 12.580, 82.500 17.864 M 83.800 20.300 C 80.898 22.665, 77.283 26.378, 75.766 28.550 C 73.162 32.281, 70.057 43.391, 71.279 44.612 C 71.589 44.923, 76.629 42.016, 82.478 38.153 C 88.327 34.290, 93.595 30.968, 94.183 30.772 C 95.752 30.249, 96.430 20.673, 95.078 18.146 C 93.298 14.821, 89.672 15.513, 83.800 20.300 M 143.344 23.545 C 142.396 26.015, 143.835 35.634, 146.928 47.500 C 148.583 53.847, 149.426 58.892, 148.922 59.426 C 148.441 59.935, 145.450 60.876, 142.274 61.517 L 136.500 62.681 145.500 63.388 C 156.073 64.218, 171.257 62.717, 174.629 60.507 C 177.509 58.620, 177.743 54.646, 175.200 50.791 C 174.218 49.301, 168.724 43.048, 162.993 36.896 C 150.151 23.112, 144.884 19.532, 143.344 23.545 M 102.235 29.980 C 99.889 31.045, 97.792 32.497, 97.574 33.208 C 94.581 42.984, 88.795 61.381, 88.286 62.737 C 87.709 64.278, 87.837 64.328, 89.301 63.137 C 90.715 61.987, 91.052 61.987, 91.461 63.137 C 94.274 71.037, 94.759 86.776, 92.600 100.077 C 88.964 122.478, 78.228 151.662, 67.394 168.598 C 65.435 171.660, 64.074 174.408, 64.370 174.703 C 66.194 176.527, 85.544 156.459, 93.573 144.417 C 101.197 132.982, 103.373 127.416, 106.443 111.500 C 110.287 91.574, 113.380 85.281, 117.082 89.852 C 119.340 92.642, 120.412 97.796, 123.506 120.749 C 124.896 131.062, 126.267 140.850, 126.552 142.500 C 127.025 145.232, 126.568 145.847, 121.443 149.375 C 110.645 156.808, 91.382 176.715, 93.214 178.547 C 94.533 179.866, 113.824 165.769, 131.750 150.388 L 136 146.741 136.016 154.121 C 136.037 163.133, 138.549 168.331, 144.520 171.713 C 154.684 177.470, 173 172.336, 173 163.730 C 173 159.178, 170.008 155.161, 163.807 151.388 C 156.993 147.243, 153.463 143.279, 151.880 137.995 C 149.994 131.700, 152.093 124.354, 161.021 106 C 170.085 87.367, 171.134 83.622, 168.280 80.098 C 165.372 76.506, 157.640 76.049, 153 79.194 C 149.044 81.876, 143.761 90.068, 141.212 97.474 C 138.022 106.740, 134.664 112.477, 132.228 112.822 C 130.340 113.090, 129.544 112.244, 127.520 107.822 C 124.686 101.631, 117 73.858, 117 69.809 C 117 66.577, 120.918 64.060, 126.200 63.900 C 128.015 63.845, 130.625 63.481, 132 63.090 C 134.460 62.391, 134.449 62.369, 131.328 61.730 C 124.927 60.420, 122.047 55.119, 119.902 40.702 C 118.424 30.762, 116.409 27.992, 110.677 28.022 C 108.380 28.034, 104.581 28.915, 102.235 29.980 M 22.212 37.990 C 14.608 41.441, 13.318 48.127, 17.567 62.074 L 20.134 70.500 18.412 95.753 C 17.019 116.166, 16.910 122.567, 17.842 129.155 C 19.759 142.713, 23.811 147.084, 32.445 144.910 L 37 143.763 37 138.902 C 37 133.190, 39.483 126.347, 42.055 124.971 C 45.269 123.250, 50.769 123.929, 58.500 127 C 67.313 130.501, 70.525 130.755, 71.965 128.066 C 73.167 125.819, 73.242 111.696, 72.088 104.679 C 71.565 101.494, 71.749 97.931, 72.632 94.179 C 74.583 85.890, 74.299 73.336, 71.898 61.692 C 70.742 56.087, 69.637 51.333, 69.443 51.128 C 69.248 50.924, 64.882 54.049, 59.740 58.074 L 50.391 65.392 50.819 79.627 C 51.417 99.499, 49.978 109.378, 46.929 106.329 C 45.505 104.905, 44.391 99.085, 43.443 88.120 C 42.844 81.184, 42.959 79.819, 44.110 80.201 C 45.052 80.513, 45.733 83.212, 46.225 88.581 C 47.405 101.471, 47.761 100.408, 47.884 83.635 L 48 67.770 45.552 69.374 C 42.119 71.623, 41.135 69.468, 44.416 66.887 C 47.518 64.448, 47.657 61.462, 45.124 51.750 C 43.988 47.392, 43.742 44.998, 44.432 44.994 C 45.019 44.991, 47.289 44.492, 49.475 43.885 L 53.449 42.782 51.125 40.900 C 45.132 36.047, 29.877 34.511, 22.212 37.990" stroke="none" fill="black" fill-rule="evenodd"/>
</svg>