<svg xmlns="http://www.w3.org/2000/svg" width="200" height="200" viewBox="0 0 200 200" version="1.1">
	<path d="M 89.785 12.978 C 74.913 16.114, 63.485 20.587, 59.732 24.741 C 58.085 26.563, 57.606 26.605, 52.764 25.349 C 22.964 17.619, 9.163 42.465, 14.083 94.986 C 14.675 101.304, 15.235 114.579, 15.329 124.486 C 15.524 145.050, 16.357 147.998, 22.724 150.658 C 27.550 152.674, 31.479 151.614, 49.614 143.398 C 67.915 135.106, 78 131.587, 78 133.492 C 78 135.487, 72.578 156.133, 69.528 165.752 C 68.089 170.291, 66.020 174.836, 64.929 175.851 C 63.728 176.971, 63.196 178.348, 63.580 179.349 C 64.411 181.513, 65.580 181.437, 67.209 179.112 C 67.936 178.074, 70.943 175.802, 73.892 174.064 C 90.788 164.101, 100.302 155.756, 106.120 145.794 C 108.286 142.085, 112.073 137.352, 114.536 135.275 C 119.121 131.409, 136.055 120.721, 136.651 121.318 C 136.833 121.500, 133.083 128.140, 128.317 136.074 C 112.245 162.827, 105.540 177.535, 108.041 180.550 C 109.919 182.812, 114.139 179.940, 121.343 171.497 C 129.704 161.697, 136.345 151.757, 142.554 139.745 L 147.607 129.969 149.390 141.234 C 152.712 162.232, 159.230 176.331, 164.797 174.564 C 172.020 172.272, 172.557 153.577, 165.968 133.797 C 162.460 123.263, 155.755 109.664, 152.432 106.341 C 151.094 105.003, 150 103.074, 150 102.054 C 150 100.124, 154.128 94.434, 165.999 80 C 173.338 71.076, 178 63.089, 178 59.439 C 178 52.866, 168.842 49.218, 155.483 50.469 L 148.274 51.145 149.585 43.822 C 151.452 33.384, 151.408 24.094, 149.487 23.357 C 146.839 22.341, 144.805 25.165, 137.861 39.500 C 133.690 48.110, 131.064 52.563, 131.040 51.066 C 130.979 47.363, 126.960 39.640, 125.733 40.867 C 125.045 41.555, 125.211 42.951, 126.247 45.192 C 129.785 52.840, 129.822 52.762, 122.291 53.473 C 114.410 54.216, 111 55.389, 111 57.356 C 111 61.126, 120.689 63.299, 125.901 60.699 C 129.408 58.950, 129.427 58.968, 127.837 62.458 C 127.038 64.212, 125.396 65.350, 122.587 66.096 C 112.999 68.642, 97.200 74.172, 93.500 76.278 C 86.289 80.382, 87.864 84.101, 97.584 85.917 C 101.790 86.703, 102.943 86.428, 110.679 82.803 C 115.344 80.617, 119.418 79.084, 119.731 79.398 C 120.405 80.072, 113.717 95.612, 106.991 109 C 101.301 120.326, 100.563 123.024, 102.451 125.588 C 103.835 127.468, 103.920 127.467, 107.560 125.522 C 114.124 122.015, 125.917 106.697, 132.075 93.680 C 136.956 83.362, 135.356 75, 128.500 75 C 125.633 75, 125.419 74.024, 127.433 70.129 C 128.636 67.804, 130.203 67.003, 137.183 65.146 C 141.757 63.930, 148.988 62, 153.250 60.858 C 157.897 59.612, 161 58.258, 161 57.476 C 161 56.581, 158.564 55.928, 153.250 55.399 C 145.965 54.673, 145.740 54.581, 149.500 53.871 C 156.950 52.463, 167.265 52.886, 171 54.752 C 177.898 58.198, 175.922 63.522, 160.890 82 C 155.297 88.875, 149.885 95.850, 148.864 97.500 C 146.236 101.747, 146.468 105.422, 149.490 107.402 C 152.775 109.554, 161.187 126.968, 164.512 138.500 C 168.954 153.904, 168.700 171.500, 164.035 171.500 C 158.600 171.500, 151.575 147.577, 150.381 125 C 149.743 112.944, 149.327 111, 147.387 111 C 146.074 111, 145.926 111.825, 146.496 115.971 C 147.353 122.205, 145.567 128.018, 138.740 141.209 C 131.496 155.205, 112.474 179.808, 110.457 177.790 C 108.882 176.215, 119.713 155.348, 135.650 129.250 C 140.772 120.862, 144.712 114, 144.405 114 C 143.406 114, 123.624 125.172, 119.012 128.340 C 112.570 132.766, 106.479 139.141, 103.944 144.110 C 99.749 152.333, 85.226 165.036, 72.098 171.965 C 69.915 173.118, 69.767 173.063, 70.466 171.366 C 72.533 166.351, 79.108 142.051, 81.525 130.500 C 85.046 113.669, 86.015 94.863, 83.602 90.197 C 82.243 87.569, 81.354 87, 78.609 87 C 76.745 87, 74.106 87.916, 72.635 89.073 C 71.186 90.212, 70 90.937, 70 90.683 C 70 89.260, 74.269 69.662, 75.595 65 C 76.566 61.584, 78.434 58.174, 80.525 56 C 82.376 54.075, 84.802 50.475, 85.917 48 C 87.785 43.850, 87.814 43.404, 86.296 42.262 C 84.836 41.164, 84.811 40.718, 86.075 38.331 C 88.606 33.551, 93.578 29, 96.270 29 C 98.214 29, 99.060 29.734, 99.902 32.149 C 101.199 35.869, 101.265 44.680, 100.043 51 C 99.565 53.475, 99.281 55.609, 99.413 55.743 C 99.863 56.200, 114.875 45.514, 121.825 39.790 C 137.679 26.733, 139.178 15.548, 125.534 12.113 C 118.770 10.410, 99.788 10.869, 89.785 12.978 M 100 14.023 C 83.540 16.301, 66.287 21.815, 62.490 26.011 C 60.823 27.853, 60.868 27.980, 63.627 29.165 C 65.207 29.844, 70.010 32.387, 74.300 34.816 C 78.590 37.245, 82.225 39.068, 82.377 38.866 C 82.529 38.665, 84.123 36.411, 85.919 33.858 C 89.410 28.895, 94.408 25.543, 97.433 26.136 C 98.453 26.336, 100.236 27.771, 101.394 29.325 C 103.164 31.699, 103.500 33.560, 103.497 40.986 L 103.495 49.821 106.348 48.160 C 111.843 44.963, 125.530 33.319, 128.750 29.101 C 130.978 26.183, 132 23.751, 132 21.366 C 132 18.204, 131.590 17.706, 127.495 15.895 C 122.166 13.538, 109.658 12.686, 100 14.023 M 146.570 28.252 C 144.580 31.291, 135 51.661, 135 52.856 C 135 53.379, 137.218 53.963, 139.928 54.153 L 144.856 54.500 146.387 45.500 C 148.473 33.235, 149.301 26, 148.617 26 C 148.303 26, 147.382 27.014, 146.570 28.252 M 31.907 29.307 C 19.909 35.588, 15.132 52.612, 16.562 84 C 17 93.625, 17.417 110.050, 17.488 120.500 C 17.710 153.206, 19.387 154.200, 50.500 140.066 C 58.750 136.318, 67.234 132.695, 69.354 132.014 L 73.208 130.776 70.412 128.942 C 64.473 125.046, 60.810 115.776, 58.962 99.962 C 57.889 90.781, 58.357 72.011, 59.952 60.255 L 60.682 54.880 54.670 49.440 C 51.364 46.448, 48.312 44, 47.889 44 C 45.916 44, 45.459 48.185, 44.884 71.500 C 44.099 103.387, 41.355 122.573, 37.887 120.430 C 36.675 119.681, 36.771 93.898, 38.065 72.284 C 39.514 48.076, 40.266 41.741, 41.750 41.248 C 42.483 41.005, 43 41.695, 43 42.917 C 43 44.992, 43.008 44.992, 44.977 43.023 C 47.465 40.535, 49.117 41.119, 55.389 46.703 C 58.078 49.097, 60.440 50.893, 60.638 50.696 C 60.836 50.498, 61.412 48.123, 61.918 45.418 C 62.816 40.617, 62.757 40.426, 59.419 37.365 C 57.228 35.356, 56 33.308, 56 31.662 C 56 29.546, 55.340 28.911, 52.250 28.053 C 45.597 26.205, 36.797 26.748, 31.907 29.307 M 59 31.915 C 59 33.618, 62.496 37.286, 64.975 38.183 C 65.462 38.360, 65.352 41.935, 64.727 46.245 C 63.678 53.476, 63.732 54.086, 65.552 55.447 C 68.276 57.486, 72.992 58.408, 74.252 57.148 C 74.832 56.568, 76.547 52.903, 78.065 49.004 L 80.823 41.914 77.108 39.568 C 75.065 38.279, 70.155 35.592, 66.197 33.599 C 59.653 30.304, 59 30.151, 59 31.915 M 81.630 47.404 C 80.719 49.550, 80.171 51.505, 80.413 51.746 C 81.131 52.465, 84.158 45.968, 83.704 44.682 C 83.474 44.032, 82.541 45.257, 81.630 47.404 M 116.500 56.896 C 114.011 57.443, 113.812 57.678, 115.332 58.277 C 119.174 59.793, 127 58.865, 127 56.893 C 127 55.891, 121.067 55.892, 116.500 56.896 M 62.323 62.744 C 61.870 65.910, 61.520 76.600, 61.543 86.500 C 61.591 106.132, 62.874 113.583, 67.613 121.744 C 71.147 127.830, 78.256 131.163, 79.358 127.250 C 82.243 117.011, 83.358 95.117, 81.190 91.250 C 79.390 88.038, 77.798 88.413, 71.511 93.534 C 66.698 97.454, 66.014 97.759, 66.457 95.784 C 66.739 94.528, 67.646 89.450, 68.473 84.500 C 69.785 76.651, 71.859 67.445, 73.600 61.750 C 74.035 60.326, 73.513 60, 70.790 60 C 68.950 60, 66.478 59.322, 65.295 58.494 C 63.189 57.019, 63.129 57.106, 62.323 62.744 M 131.645 60.250 C 130.897 62.038, 130.344 63.586, 130.416 63.691 C 130.489 63.796, 135.487 62.639, 141.524 61.120 C 152.016 58.480, 152.324 58.329, 148.500 57.690 C 146.300 57.323, 141.914 57.017, 138.753 57.011 C 133.211 57, 132.957 57.116, 131.645 60.250 M 40.732 73.907 C 40.329 80.731, 40.059 89.731, 40.130 93.907 L 40.261 101.500 41.505 91.784 C 42.266 85.840, 42.500 78.077, 42.107 71.784 L 41.464 61.500 40.732 73.907 M 114 71.443 C 102.301 74.953, 92 79.370, 92 80.877 C 92 81.902, 93.292 82.407, 98.660 83.485 C 101.043 83.963, 103.257 83.394, 107.660 81.173 C 110.872 79.553, 115.440 77.647, 117.810 76.937 C 121.250 75.908, 122.414 74.945, 123.573 72.170 C 124.372 70.258, 124.908 68.603, 124.763 68.493 C 124.618 68.383, 119.775 69.711, 114 71.443 M 123.081 80.250 C 120.721 86.354, 113.376 102.338, 108.956 110.991 C 102.258 124.102, 102.304 126.671, 109.136 121.039 C 117.042 114.523, 129.917 94.870, 131.793 86.455 C 133.125 80.485, 131.865 78, 127.507 78 C 124.743 78, 123.757 78.501, 123.081 80.250 M 39.195 104.500 C 39.215 106.150, 39.439 106.704, 39.693 105.731 C 39.947 104.758, 39.930 103.408, 39.656 102.731 C 39.382 102.054, 39.175 102.850, 39.195 104.500" stroke="none" fill="black" fill-rule="evenodd"/>
</svg>