<svg xmlns="http://www.w3.org/2000/svg" width="200" height="200" viewBox="0 0 200 200" version="1.1">
	<path d="M 91 13.905 C 91 14.402, 93.362 16.149, 96.250 17.786 C 104.693 22.572, 113.893 29.776, 116.021 33.266 C 118.472 37.287, 118.469 37.485, 115.916 39.864 C 113.590 42.031, 101.292 44.762, 100.098 43.377 C 99.682 42.895, 96.796 38.614, 93.684 33.865 C 87.359 24.211, 82.077 19, 78.620 19 C 72.803 19, 71.015 26.376, 71.006 50.410 L 71 66.320 63.547 58.410 L 56.094 50.500 56.047 44.270 C 55.988 36.510, 53.715 30.647, 49.636 27.737 C 45.710 24.937, 36.067 24.777, 28.298 27.384 C 23.352 29.043, 22.992 29.406, 20.994 34.744 C 16.241 47.450, 15.603 56.770, 15.850 109.956 C 15.976 137.157, 16.237 159.570, 16.430 159.763 C 16.622 159.956, 19.186 157.569, 22.126 154.460 C 30.655 145.442, 37.362 142.213, 53.320 139.445 C 65.447 137.340, 69.323 135.082, 72.717 128.146 C 75.640 122.172, 75.938 116.719, 74.925 87.750 C 74.680 80.737, 74.715 75, 75.004 75 C 75.292 75, 81.568 81.053, 88.951 88.450 L 102.373 101.901 98.183 107.700 C 88.827 120.651, 72.859 145.102, 67.620 154.500 C 59.585 168.916, 56.259 179.847, 58.765 183.600 C 60.151 185.675, 63.838 186.982, 66.668 186.403 C 71.031 185.509, 82.329 169.306, 91.932 150.172 C 94.531 144.993, 95.363 144.056, 96.515 145.012 C 97.289 145.655, 98.227 147.152, 98.598 148.340 C 99.539 151.347, 117.062 193.395, 117.597 193.931 C 117.837 194.170, 118.483 193.917, 119.032 193.368 C 119.696 192.704, 119.356 184.779, 118.015 169.670 C 116.907 157.185, 116.014 145.514, 116.030 143.735 C 116.059 140.622, 116.188 140.727, 119.425 146.500 C 128.754 163.136, 142.464 181, 145.903 181 C 147.937 181, 147.020 178.888, 143.814 176.190 C 139.206 172.312, 129.914 159.429, 123.555 148.098 C 117.203 136.781, 115.847 135.274, 114.009 137.489 C 112.999 138.706, 113.087 143.120, 114.460 160.085 C 115.398 171.680, 115.967 181.366, 115.723 181.610 C 115.479 181.854, 111.758 173.485, 107.453 163.012 C 103.148 152.539, 98.783 143.209, 97.754 142.278 C 94.890 139.685, 93.150 141.461, 87.142 153.108 C 81.053 164.914, 72.409 178.358, 68.649 181.872 C 66.766 183.632, 65.451 184.079, 63.555 183.603 C 56.712 181.886, 63.092 165.349, 81.640 136.723 L 87.975 126.947 91.738 128.851 C 97.644 131.841, 101.722 132.412, 104.441 130.631 C 106.265 129.436, 110.075 129.054, 121.241 128.948 C 135.367 128.813, 135.810 128.875, 141.591 131.766 C 144.841 133.392, 149.857 135.494, 152.737 136.437 C 159.774 138.742, 163.172 142.926, 172.024 160.185 C 178.481 172.772, 178.974 174.127, 176.857 173.464 C 170.302 171.411, 158.732 160.369, 144.151 142.250 C 136.200 132.371, 134.711 131.040, 133.608 132.826 C 133.227 133.442, 148.830 163.826, 150.566 165.850 C 150.732 166.043, 151.359 165.896, 151.961 165.524 C 152.673 165.084, 151.274 161.473, 147.952 155.174 L 142.850 145.500 147.170 150.500 C 156.246 161.004, 162.704 167.453, 168.315 171.618 C 173.961 175.808, 179.746 177.893, 181.951 176.530 C 183.378 175.648, 168.075 145.616, 163.438 140.199 C 160.870 137.199, 158.367 135.608, 153.739 134.034 C 146.611 131.611, 139.757 128.104, 142.026 128.042 C 151.402 127.784, 172.985 124.096, 175.923 122.250 C 178.249 120.788, 178.271 120.671, 176.482 119.363 C 175.123 118.369, 170.909 118, 160.929 118 L 147.241 118 143.121 114.001 C 139.874 110.850, 139 109.276, 139 106.578 C 139 100.899, 142.861 97.537, 157.471 90.496 C 172.798 83.109, 174.268 81.877, 170.609 79.479 C 168.624 78.179, 163.456 77.576, 146.466 76.662 L 124.848 75.500 137.674 68.026 C 144.728 63.916, 154.056 58.178, 158.403 55.276 C 162.750 52.374, 167.137 50, 168.153 50 C 171.685 50, 169.971 47.043, 165.250 44.991 C 162.637 43.856, 158.796 42.156, 156.713 41.214 L 152.926 39.500 159.463 30.647 C 165.791 22.078, 167.221 19, 164.876 19 C 164.258 19, 159.870 23.042, 155.126 27.982 L 146.500 36.964 139.908 34.092 C 136.283 32.512, 124.283 27.120, 113.242 22.110 C 93.193 13.012, 91 12.203, 91 13.905 M 75.786 24.250 C 74.884 25.831, 74.401 32.851, 74.164 47.849 L 73.826 69.198 83.163 78.750 C 88.298 84.004, 94.825 90.514, 97.668 93.218 L 102.835 98.134 100.935 90.817 C 98.510 81.483, 98.511 80, 100.941 80 C 102.009 80, 103.165 80.457, 103.510 81.016 C 104.554 82.706, 105.659 81.289, 106.982 76.566 C 109.512 67.526, 106.010 61.053, 95.799 55.899 C 92.513 54.240, 90.043 52.367, 90.264 51.702 C 90.548 50.845, 97.094 50.281, 113.081 49.738 L 135.500 48.976 139.875 44.413 C 142.371 41.811, 143.875 39.477, 143.375 38.980 C 142.894 38.500, 135.769 35.149, 127.543 31.533 C 114.197 25.666, 112.864 25.256, 115.171 27.729 C 118.533 31.334, 120 34.269, 120 37.395 C 120 42.072, 114.978 44.829, 103.358 46.532 L 99.217 47.139 93.696 38.669 C 86.905 28.251, 81.363 22, 78.919 22 C 77.902 22, 76.492 23.012, 75.786 24.250 M 34.500 28.525 C 33.950 28.727, 31.661 29.364, 29.413 29.941 C 24.662 31.160, 23.627 32.890, 21.448 43.248 C 18.470 57.403, 17.801 73.556, 18.527 113.769 L 19.235 153.038 23.688 148.934 C 30.013 143.103, 39.069 139.196, 51.422 136.969 C 63.571 134.778, 67.371 133.117, 69.456 129.085 C 72.570 123.063, 73.061 117.143, 72.370 93.949 L 71.688 71.089 63.981 62.794 L 56.273 54.500 55.658 57.500 C 51.224 79.121, 49.087 115.696, 51.747 124.444 C 52.406 126.613, 52.726 128.608, 52.457 128.877 C 51.316 130.018, 46.312 125.022, 44.015 120.448 C 39.274 111.010, 40.254 88.251, 46.608 60.251 C 48.074 53.788, 49.244 47.825, 49.207 47 C 49.171 46.175, 49.828 43.569, 50.668 41.209 C 52.624 35.717, 51.765 32.437, 47.723 29.973 C 44.815 28.200, 37.552 27.405, 34.500 28.525 M 145.319 42.254 C 142.554 45.325, 141.691 47, 142.873 47 C 144.019 47, 148.435 41.102, 147.780 40.446 C 147.539 40.205, 146.431 41.019, 145.319 42.254 M 148.703 44.531 L 146.907 47 150.328 47 C 152.210 47, 155.181 46.714, 156.929 46.364 L 160.109 45.728 155.945 43.864 C 150.776 41.550, 150.880 41.540, 148.703 44.531 M 51.853 50.500 C 50.876 52.010, 47.219 69.553, 45.512 80.922 C 43.796 92.343, 43.526 110.754, 44.996 116.046 C 45.538 117.997, 46.588 120.421, 47.329 121.435 C 48.478 123.006, 48.545 122.265, 47.783 116.389 C 46.679 107.864, 47.335 97.880, 50.588 73.677 C 52.950 56.112, 53.385 48.132, 51.853 50.500 M 150.541 50.927 L 143.582 51.500 137.334 59.500 C 133.897 63.900, 131.066 67.823, 131.042 68.218 C 130.993 69.063, 154.677 54.918, 158.133 52.038 C 159.665 50.762, 159.971 50.117, 159 50.210 C 158.175 50.289, 154.369 50.611, 150.541 50.927 M 123 52.050 C 115.025 52.434, 105.824 52.805, 102.554 52.874 L 96.608 53 101.148 55.879 C 110.199 61.619, 112.650 70.970, 107.960 81.871 C 105.641 87.263, 104.625 88.071, 103.583 85.357 C 103.237 84.453, 102.750 83.917, 102.501 84.166 C 102.253 84.414, 102.850 87.457, 103.829 90.927 L 105.608 97.238 112.242 88.369 C 118.424 80.104, 118.726 79.463, 116.688 78.955 C 114.745 78.471, 114.990 78.134, 118.867 75.955 C 121.809 74.301, 125.741 70.240, 130.926 63.500 C 140.147 51.514, 140.510 50.948, 138.809 51.175 C 138.089 51.272, 130.975 51.665, 123 52.050 M 114.750 89.429 C 110.487 95.274, 107 100.654, 107 101.385 C 107 102.857, 123.664 117.191, 131.500 122.458 L 136.500 125.819 149.693 124.406 C 170.161 122.213, 172.835 121.221, 158.598 121.100 L 146.696 121 141.348 115.652 C 137.111 111.415, 136 109.639, 136 107.103 C 136 99.577, 140.522 95.462, 157.813 87.254 C 168.993 81.946, 169.370 81.669, 166.500 80.844 C 164.850 80.370, 154.275 79.716, 143 79.391 L 122.500 78.801 114.750 89.429 M 96.627 114.577 C 92.883 119.844, 90.010 124.343, 90.242 124.575 C 90.474 124.807, 94.046 125.283, 98.180 125.632 L 105.696 126.268 106.334 123.080 C 107.016 119.670, 105.200 105, 104.096 105 C 103.732 105, 100.371 109.309, 96.627 114.577 M 108.328 109.889 C 108.698 111.738, 109 116.119, 109 119.625 L 109 126 120.090 126 L 131.180 126 125.840 121.838 C 122.903 119.549, 117.610 115.168, 114.078 112.103 L 107.656 106.529 108.328 109.889" stroke="none" fill="black" fill-rule="evenodd"/>
</svg>