<svg xmlns="http://www.w3.org/2000/svg" width="200" height="200" viewBox="0 0 200 200" version="1.1">
	<path d="M 143 15.699 C 137.066 16.712, 122.844 20.214, 114.909 22.616 L 106.318 25.218 98.648 23.227 L 90.979 21.237 90.402 23.533 C 89.387 27.577, 86.040 28.059, 60.993 27.771 C 34.296 27.463, 29.490 28.321, 22.006 34.727 C 15.301 40.466, 14.703 42.435, 16.148 54.014 C 17.137 61.937, 17.134 70.083, 16.130 94.225 C 14.487 133.755, 15.581 143.806, 22.199 149.971 C 24.585 152.193, 29.268 152.609, 33.556 150.979 C 35.458 150.255, 37.201 150.305, 39.533 151.148 C 42.273 152.139, 43.595 152.044, 47.419 150.584 C 63.972 144.262, 76.325 113.772, 73.081 87.241 C 72.493 82.434, 71.060 75.292, 69.896 71.370 L 67.780 64.240 70.527 58.120 C 72.037 54.754, 73.613 52, 74.028 52 C 75.877 52, 76.317 59.957, 76.518 97 C 76.636 118.725, 77.049 137.666, 77.435 139.091 C 77.821 140.517, 77.431 145.404, 76.569 149.952 C 73.601 165.593, 75.056 175.930, 80.517 178.006 C 85.122 179.757, 88.832 179.109, 104.828 173.755 C 119.754 168.760, 121 168.510, 131 168.505 C 140.658 168.500, 141.875 168.720, 146.176 171.249 C 148.748 172.761, 152.199 175.631, 153.845 177.628 L 156.837 181.257 161.395 179.051 C 172.753 173.553, 177.991 160.188, 178.008 136.662 C 178.013 130.523, 177.494 115.560, 176.855 103.411 C 175.844 84.190, 175.903 79.841, 177.306 69.911 C 179.623 53.508, 180.435 37.099, 179.097 33.677 C 176.391 26.753, 172.015 33.324, 163.439 57.183 C 160.412 65.608, 157.121 74.725, 156.128 77.444 L 154.321 82.387 153.633 76.537 C 153.038 71.469, 153.217 70.398, 154.973 68.529 C 160.838 62.286, 154.377 56.919, 135.754 52.567 C 130.114 51.249, 123.700 49.849, 121.500 49.457 L 117.500 48.744 123.303 45.971 C 126.495 44.447, 134.257 41.714, 140.553 39.899 C 149.369 37.357, 152 36.208, 152 34.897 C 152 32.954, 148.412 32.437, 128.500 31.507 C 121.900 31.199, 113.125 30.669, 109 30.329 C 96.618 29.308, 104.043 28.278, 120.076 28.793 C 131.673 29.165, 136.363 28.899, 142.611 27.514 C 156.313 24.477, 162.649 20.049, 158.800 16.200 C 157.649 15.049, 148.509 14.759, 143 15.699 M 140 19.062 C 137.525 19.526, 130.775 21.143, 125 22.655 C 115.113 25.245, 114.704 25.452, 118 26.197 C 121.913 27.082, 133.637 26.417, 142 24.835 C 148.275 23.648, 157 20.182, 157 18.877 C 157 17.797, 146.118 17.916, 140 19.062 M 91.534 26.962 C 88.123 30.732, 84.006 31.242, 63.163 30.481 C 36.530 29.509, 28.373 31.255, 21.155 39.476 C 17.612 43.512, 17.571 43.817, 19.106 54.678 C 19.931 60.515, 19.885 70.685, 18.927 94.752 C 17.551 129.277, 18.114 139.101, 21.829 145.434 C 23.520 148.315, 23.956 148.487, 29.064 148.278 C 32.054 148.155, 35.400 148.024, 36.500 147.987 C 37.600 147.949, 40.081 148.199, 42.014 148.541 C 49.737 149.909, 60.265 138.831, 65.891 123.416 C 71.641 107.663, 72.324 90.746, 67.847 75 C 65.006 65.010, 65.101 62.539, 68.593 55.484 C 71.018 50.584, 72.003 49.500, 74.027 49.500 C 78.433 49.500, 78.876 53.238, 79.006 91.500 C 79.072 110.750, 79.495 130.325, 79.947 135 C 80.541 141.139, 80.389 145.305, 79.402 150 C 77.500 159.044, 77.577 170.952, 79.557 173.777 C 81.963 177.213, 87.600 176.609, 104.210 171.138 L 118.919 166.292 115.095 165.147 C 109.974 163.612, 106.357 160.620, 103.972 155.945 C 99.019 146.236, 104.257 128, 112 128 C 117.586 128, 119.986 134.378, 119.994 149.250 C 119.998 154.731, 120.416 159, 120.949 159 C 123.851 159, 132.035 143.471, 139.982 122.882 L 145.239 109.264 141.119 101.346 C 137.091 93.603, 136.074 90, 137.918 90 C 138.424 90, 139.745 91.470, 140.856 93.267 C 143.392 97.370, 147.637 101.416, 148.261 100.325 C 148.521 99.871, 149.507 97.132, 150.451 94.238 C 151.790 90.137, 152.013 87.322, 151.465 81.474 C 151.079 77.347, 150.371 73.729, 149.893 73.434 C 149.414 73.138, 146.993 73.794, 144.512 74.892 L 140 76.888 140 73.493 C 140 69.208, 141.942 59.864, 143.144 58.364 C 144.187 57.064, 135.801 54.760, 122 52.555 C 113.171 51.145, 111.764 51.394, 108.559 54.935 C 106.779 56.902, 106.657 58.561, 106.877 77.778 C 107.113 98.409, 105.749 119.900, 103.893 124.782 C 103.026 127.061, 102.751 127.180, 101.418 125.847 C 99.260 123.688, 98.008 99.505, 100.090 100.192 C 101.085 100.521, 101.647 102.991, 102 108.579 L 102.500 116.500 103.226 108.500 C 103.626 104.100, 104.188 94.200, 104.475 86.500 L 104.998 72.500 102.934 78.194 C 101.528 82.075, 100.439 83.722, 99.515 83.368 C 98.412 82.944, 98.517 81.811, 100.080 77.267 C 103.295 67.923, 102.273 57.266, 97.624 51.652 C 95.674 49.297, 94.518 49, 83.500 48.020 C 76.900 47.434, 67 46.851, 61.500 46.727 L 51.500 46.500 49.250 50.962 C 46.408 56.598, 46.356 62.867, 49.089 70.593 C 50.940 75.828, 51.107 77.908, 50.565 88.888 C 49.978 100.791, 48.556 113.573, 47.410 117.250 C 47.111 118.212, 46.023 119, 44.994 119 C 43.004 119, 42.731 117.833, 41.477 103.957 C 40.748 95.892, 42.605 66.526, 44.550 55.373 C 45.341 50.840, 45.724 46.445, 45.403 45.607 C 44.989 44.528, 45.647 43.904, 47.659 43.466 C 49.222 43.126, 52.975 41.645, 56 40.174 C 60.272 38.097, 63.337 37.421, 69.727 37.148 C 79.173 36.745, 84.432 38.159, 93 43.407 C 97.290 46.034, 100.063 46.929, 105.606 47.475 C 112.328 48.136, 113.058 47.998, 119.106 44.915 C 122.623 43.122, 129.968 40.229, 135.429 38.486 L 145.358 35.318 134.929 34.676 C 129.193 34.323, 118.425 33.774, 111 33.456 C 95.958 32.811, 93 32.406, 93 30.994 C 93 30.462, 94.688 29.286, 96.750 28.380 C 100.440 26.760, 100.460 26.721, 98 25.966 C 94.089 24.766, 93.429 24.868, 91.534 26.962 M 173.825 38.570 C 169.639 46.502, 155.327 87.854, 154.551 94.260 C 154.102 97.973, 153.051 100.994, 151.597 102.760 C 148.056 107.059, 147.918 108.542, 150.430 115.232 C 157.256 133.410, 155.657 149.348, 145.890 160.472 C 144.187 162.412, 141.939 164, 140.896 164 C 137.529 164, 138.876 165.486, 143.842 167.250 C 146.506 168.196, 150.836 170.864, 153.464 173.178 L 158.244 177.385 161.872 175.442 C 166.912 172.743, 171.520 165.408, 173.417 157.063 C 175.253 148.994, 175.484 128.032, 174.031 101.500 C 173.473 91.314, 173.459 81.093, 173.998 76 C 176.688 50.540, 177.073 45.574, 176.799 39.809 L 176.500 33.500 173.825 38.570 M 68 39.665 C 63.100 40.372, 57.950 42.110, 58.435 42.894 C 58.706 43.333, 64.681 43.999, 71.714 44.374 C 78.746 44.750, 86.300 45.292, 88.500 45.579 L 92.500 46.100 89 44.078 C 83.491 40.895, 73.713 38.840, 68 39.665 M 101.786 52.950 L 103.479 55.899 105.739 53.775 C 108.926 50.782, 108.575 50, 104.047 50 L 100.093 50 101.786 52.950 M 144.687 61.372 C 143.793 63.704, 142.740 72, 143.339 72 C 143.651 72, 145.052 71.478, 146.453 70.839 C 149.249 69.565, 149.561 67.909, 147.902 63.149 C 146.732 59.792, 145.546 59.136, 144.687 61.372 M 150 60.900 C 150 63.184, 152.079 67.069, 152.998 66.501 C 154.705 65.446, 154.102 62.125, 152 61 C 150.777 60.345, 150 60.306, 150 60.900 M 44.667 80.418 C 43.825 94.164, 43.900 104.370, 44.878 109.500 C 45.608 113.324, 45.677 113.170, 46.452 106 C 48.406 87.920, 48.558 77.215, 46.917 73.301 L 45.333 69.525 44.667 80.418 M 142.067 125.247 C 132.574 149.931, 124.897 162.548, 119.809 161.827 C 117.578 161.511, 117.494 161.148, 117.331 151.032 C 117.139 139.087, 116.597 135.560, 114.451 132.285 C 113.181 130.346, 112.595 130.146, 110.881 131.064 C 105.215 134.096, 102.968 149.653, 107.263 156.102 C 110.780 161.382, 116.031 163.479, 125.500 163.383 C 136.032 163.276, 141.189 161.749, 144.585 157.731 C 151.637 149.389, 153.567 137.635, 150.123 124.016 C 148.952 119.384, 147.634 115.234, 147.194 114.794 C 146.755 114.355, 144.447 119.058, 142.067 125.247" stroke="none" fill="black" fill-rule="evenodd"/>
</svg>