<svg xmlns="http://www.w3.org/2000/svg" width="200" height="200" viewBox="0 0 200 200" version="1.1">
	<path d="M 51.636 3.779 C 51.294 4.334, 56.400 9.043, 62.984 14.243 C 74.555 23.384, 74.873 23.737, 72.505 24.816 C 71.158 25.430, 69.769 27.072, 69.419 28.466 C 69.069 29.860, 68.719 30.993, 68.642 30.985 C 68.564 30.977, 64.900 29.819, 60.500 28.412 C 49.749 24.975, 36.639 24.102, 30.570 26.420 C 24.520 28.730, 19.476 34.573, 17.371 41.709 C 15.393 48.416, 15.258 56.801, 16.327 106.500 C 17.009 138.191, 17.128 139.678, 19.328 144 C 26.219 157.539, 45.010 158.297, 57.413 145.536 C 65.451 137.266, 68.935 127.358, 68.976 112.654 C 68.994 106.127, 69.450 103.047, 70.716 100.904 C 71.659 99.307, 72.784 98, 73.216 98 C 74.651 98, 74.027 112.337, 71.500 137.401 C 68.911 163.081, 68.414 175.527, 69.885 177.848 C 71.668 180.662, 74.411 178.429, 78.016 171.229 C 81.534 164.202, 81.712 164.024, 83.383 165.871 C 90.972 174.256, 120.911 182, 145.742 182 C 167.950 182, 178.784 177.245, 176.580 168.465 C 175.889 165.710, 168.947 158.010, 164.362 154.913 L 162.224 153.469 166.952 143.484 C 176.452 123.424, 188.403 93.003, 187.241 91.841 C 186.443 91.043, 185.403 91.325, 183.436 92.871 C 180.153 95.454, 175.863 95.621, 173.752 93.250 C 170.049 89.089, 168.780 81.162, 168.349 59.500 C 167.846 34.199, 167.577 32, 164.980 32 C 162.229 32, 160.640 35.591, 152.590 60 C 145.839 80.471, 145.386 81.484, 143.119 81.163 C 139.222 80.612, 134.436 81.894, 130.556 84.526 C 128.551 85.887, 125.694 87.015, 124.206 87.033 C 122.718 87.051, 119.127 87.885, 116.227 88.887 L 110.954 90.708 112.727 88.694 C 113.702 87.586, 119.675 83.312, 126 79.196 C 145.415 66.563, 149.850 61.912, 151.461 52.500 L 152.145 48.500 146.823 53.575 C 139.647 60.416, 131.882 67, 130.989 67 C 130.588 67, 129.749 64.400, 129.124 61.222 C 127.617 53.567, 124.083 48.583, 117.962 45.481 C 113.614 43.278, 113 42.581, 113 39.854 L 113 36.742 120.250 37.446 C 130.372 38.429, 136.826 39.923, 140.423 42.116 C 144.173 44.403, 146 44.510, 146 42.444 C 146 41.556, 144.026 40.014, 141.404 38.855 C 138.876 37.736, 135.129 35.304, 133.077 33.450 C 130.667 31.274, 127.866 29.842, 125.172 29.412 C 122.878 29.045, 121 28.403, 121 27.986 C 121 27.120, 126.734 24.261, 131.372 22.815 C 133.092 22.278, 139.189 21.538, 144.920 21.170 C 151.864 20.723, 155.478 20.083, 155.753 19.250 C 156.031 18.411, 155.027 18, 152.700 18 C 146.648 18, 119.478 14.112, 89 8.884 C 51.701 2.487, 52.378 2.579, 51.636 3.779 M 59.150 7.507 C 59.893 8.210, 64.520 11.983, 69.432 15.892 C 78.248 22.907, 78.443 23, 84.320 23 C 87.595 23, 96.255 23.954, 103.566 25.119 L 116.857 27.238 120.028 24.980 C 121.772 23.738, 125.742 21.930, 128.850 20.963 L 134.500 19.204 131 18.604 C 129.075 18.274, 116.475 16.217, 103 14.033 C 89.525 11.849, 73.843 9.200, 68.150 8.146 C 60.603 6.748, 58.166 6.575, 59.150 7.507 M 73.750 27.080 C 71.514 28.382, 71.532 30.200, 73.807 33.010 C 75.436 35.021, 76.148 35.167, 81.043 34.494 L 86.473 33.747 82.108 29.874 C 77.484 25.771, 76.540 25.455, 73.750 27.080 M 86.384 30 L 90.724 34 101.327 34 C 110.932 34, 112.031 33.810, 113.008 31.985 C 113.823 30.463, 113.770 29.866, 112.793 29.543 C 109.375 28.412, 92.046 26, 87.346 26 L 82.045 26 86.384 30 M 34.340 27.958 C 28.824 29.272, 24.668 32.403, 22.297 37.031 C 18.442 44.556, 17.671 51.663, 18.560 71.500 C 19.003 81.400, 19.421 100.540, 19.488 114.032 C 19.608 138.056, 19.661 138.658, 22.055 143.032 C 26.313 150.812, 35.528 153.842, 44.890 150.539 C 58.279 145.815, 66.084 132.011, 66.444 112.417 C 66.600 103.972, 66.988 101.755, 68.835 98.767 C 71.649 94.214, 73.538 93.502, 75.473 96.264 C 77.582 99.275, 77.409 106.080, 74.490 135 C 73.130 148.475, 72.052 163.325, 72.094 168 L 72.172 176.500 76.714 167.103 C 80.586 159.094, 81.405 157.987, 82.265 159.603 C 85.248 165.214, 90.382 168.536, 102.481 172.681 C 125.058 180.418, 164.327 181.299, 172.250 174.248 C 176.674 170.310, 171.980 163.413, 159.185 155.049 L 151.592 150.085 146.017 155.402 C 139.443 161.673, 135.320 164.001, 130.800 163.996 C 120.251 163.984, 114 151.301, 114 129.909 C 114 114.585, 116.193 105.811, 123.788 90.750 C 125.303 87.747, 111.447 93.070, 106.315 97.462 C 97.142 105.314, 96.694 124.103, 105.196 144.462 C 109.720 155.296, 110.287 157.047, 109.518 157.801 C 107.799 159.486, 98.212 144.845, 94.871 135.432 C 89.834 121.238, 91.489 110.962, 100.838 98.384 C 108.405 88.202, 112.239 84.822, 127.911 74.521 C 139.390 66.975, 147 60.253, 147 57.658 C 147 57.170, 144.099 59.484, 140.554 62.801 C 133.712 69.201, 130.500 70.900, 128.683 69.083 C 128.069 68.469, 126.995 65.164, 126.296 61.739 C 124.800 54.403, 122.739 51.290, 117.411 48.318 L 113.500 46.136 113.380 53.440 C 113.075 72.110, 106.270 82, 93.728 82 C 81.599 82, 67.589 67.780, 65.411 53.257 C 64.671 48.319, 64.006 48.170, 54.585 50.830 L 48.669 52.500 48.893 71.500 C 49.199 97.545, 46.795 112, 42.158 112 C 41.089 112, 39.894 111.212, 39.502 110.250 C 37.274 104.771, 38.039 80.295, 41.108 58.840 C 42.269 50.722, 42.573 50.357, 49 49.371 C 50.375 49.160, 54.637 48.177, 58.471 47.187 C 65.058 45.486, 65.478 45.205, 66.120 42.066 L 66.800 38.744 60.150 39.413 C 56.492 39.781, 51.813 40.346, 49.750 40.669 C 46.828 41.126, 46 40.926, 46 39.761 C 46 38.603, 48.477 37.982, 57.025 36.997 C 63.089 36.299, 68.276 35.362, 68.552 34.916 C 69.242 33.800, 54.240 29.172, 46.133 27.999 C 38.678 26.921, 38.692 26.921, 34.340 27.958 M 116.079 32.405 C 114.858 33.876, 114.710 33.833, 127.250 35.598 C 131.203 36.154, 131.388 36.079, 129.891 34.524 C 128.375 32.950, 122.478 31.077, 118.872 31.024 C 117.977 31.011, 116.720 31.632, 116.079 32.405 M 160.862 44 C 158.861 49.225, 155.167 60.121, 152.654 68.213 L 148.085 82.926 151.527 88.040 C 153.419 90.852, 155.658 95.476, 156.500 98.313 C 158.818 106.118, 160.085 123.970, 159.345 138.407 C 158.571 153.532, 159.277 154.020, 164.714 142.119 C 168.167 134.562, 177.983 111.233, 181.863 101.362 L 183.883 96.223 180.451 97.276 C 177.994 98.030, 176.321 98.012, 174.562 97.210 C 168.089 94.261, 165.914 84.887, 165.117 56.500 L 164.500 34.500 160.862 44 M 79 37.885 C 79 39.872, 84.153 42, 88.965 42 C 94.364 42, 95.063 41.272, 92.171 38.655 C 90.210 36.880, 79 36.225, 79 37.885 M 96.192 38.936 C 97.611 41.208, 99.961 41.968, 105.633 41.986 C 109.253 41.998, 109.826 41.689, 110.245 39.500 C 110.722 37.005, 110.708 37, 102.853 37 C 95.320 37, 95.035 37.083, 96.192 38.936 M 69.179 41.250 C 68.696 43.038, 68.383 44.612, 68.484 44.750 C 68.584 44.887, 71.250 44.481, 74.408 43.847 L 80.149 42.694 77.325 40.383 C 73.146 36.964, 70.254 37.272, 69.179 41.250 M 90 44.815 C 90 45.263, 91.590 46.388, 93.534 47.315 C 99.396 50.110, 102.046 49.162, 98.171 45.655 C 96.314 43.974, 90 43.325, 90 44.815 M 101.955 45.915 C 102.530 46.990, 103 48.798, 103 49.934 C 103 53.145, 97.642 52.576, 89.754 48.528 C 83.265 45.198, 82.789 45.105, 77.254 46.089 C 74.089 46.651, 70.713 47.342, 69.750 47.623 C 65.535 48.856, 69.603 62.118, 76.576 69.873 C 82.226 76.157, 87.955 79, 94.971 79 C 99.868 79, 100.614 78.680, 103.987 75.134 C 106.184 72.824, 108.231 69.301, 109.070 66.384 C 110.398 61.768, 111.077 46.687, 110 45.725 C 109.725 45.479, 107.567 44.982, 105.205 44.620 C 101.167 44.001, 100.972 44.079, 101.955 45.915 M 43.101 64.250 C 39.588 92.688, 41.125 123.779, 44.844 99.500 C 46.567 88.251, 46.823 54, 45.184 54 C 44.735 54, 43.798 58.612, 43.101 64.250 M 134.183 85.251 C 132.007 86.297, 132.191 86.465, 137.183 87.996 C 142.711 89.691, 143.954 89.280, 143.985 85.750 C 143.997 84.380, 143.186 84.015, 140.250 84.068 C 138.188 84.105, 135.457 84.637, 134.183 85.251 M 146.334 88.573 C 145.975 89.507, 146.091 90.819, 146.591 91.487 C 154.806 102.464, 156.043 102.931, 151.593 93.373 C 148.888 87.562, 147.283 86.098, 146.334 88.573 M 124.942 94.750 C 118.425 105.021, 115.006 123.943, 116.983 138.798 C 118.982 153.821, 123.486 161, 130.912 161 C 135.232 161, 137.622 159.531, 145.122 152.264 L 150.744 146.816 153.872 148.434 L 157 150.051 156.932 132.776 C 156.869 116.488, 156.113 113.450, 154.539 123.150 C 153.756 127.979, 152.544 128.814, 143.710 130.616 C 134.888 132.415, 129.750 131.493, 125.935 127.428 C 123.813 125.167, 123.505 123.913, 123.539 117.667 C 123.583 109.653, 125.947 103.760, 130.579 100.117 C 133.788 97.593, 136.620 98.656, 137.669 102.779 C 138.298 105.251, 138.526 104.952, 140.167 99.500 C 141.160 96.200, 141.979 93.207, 141.986 92.848 C 142.010 91.721, 135.870 90, 131.829 90 C 128.298 90, 127.690 90.420, 124.942 94.750 M 140.500 108 C 135.929 123.554, 133.964 125.117, 134.747 112.576 C 135.036 107.943, 134.977 103.382, 134.615 102.440 C 134.005 100.849, 133.808 100.861, 131.838 102.614 C 128.429 105.646, 126.046 111.982, 126.022 118.076 C 126.003 122.794, 126.397 124.024, 128.583 126.076 C 130.757 128.116, 132.143 128.492, 137.333 128.449 C 144.577 128.390, 150.554 126.596, 151.484 124.202 C 152.922 120.498, 153.236 109.242, 152.008 105.413 C 150.708 101.362, 146.493 95, 145.109 95 C 144.675 95, 142.601 100.850, 140.500 108 M 95.126 120.282 C 95.007 126.696, 97.495 136.920, 100.168 141 C 100.928 142.159, 101.003 142.046, 100.500 140.500 C 98.757 135.139, 96.943 126.817, 96.141 120.500 L 95.253 113.500 95.126 120.282" stroke="none" fill="black" fill-rule="evenodd"/>
</svg>