<svg xmlns="http://www.w3.org/2000/svg" width="200" height="200" viewBox="0 0 200 200" version="1.1">
	<path d="M 33.500 21.208 C 29.204 23.670, 24 32.198, 24 36.778 C 24 40.618, 27.018 45.958, 30.085 47.544 C 34.029 49.583, 43.677 49.356, 51.088 47.050 L 57.354 45.099 49.804 52.800 C 34.300 68.613, 28.028 78.494, 28.010 87.136 C 28.002 90.889, 28.762 92.913, 32 97.762 C 34.200 101.057, 36 104.888, 36 106.276 C 36 107.664, 34.220 111.168, 32.045 114.063 C 26.451 121.507, 23.617 133.332, 23.550 149.500 C 23.504 160.494, 23.710 161.874, 26 165.961 C 30.516 174.020, 37.612 177.104, 56 179.001 C 61.775 179.597, 68.614 180.768, 71.198 181.605 C 74.483 182.669, 76.450 182.829, 77.740 182.139 C 81.605 180.071, 89.254 170.682, 92.197 164.394 C 94.800 158.831, 95.258 156.681, 95.229 150.170 C 95.210 145.952, 94.749 140.588, 94.204 138.250 L 93.213 134 96.918 134 L 100.624 134 100.611 144.250 C 100.595 156.665, 102.836 163.377, 109.455 170.739 C 118.071 180.321, 130.483 184.557, 147.500 183.721 C 161.501 183.033, 173.253 179.010, 183.700 171.328 L 186.900 168.974 182.037 162.549 C 176.019 154.598, 175.347 152.645, 177.502 149.357 C 179.768 145.899, 178.762 142.683, 174.364 139.328 L 170.743 136.567 171.340 129.533 C 171.669 125.665, 172.895 118, 174.067 112.500 C 178.268 92.768, 176.699 81.067, 168.225 68.938 C 162.745 61.094, 161.348 60.801, 126.858 60.254 L 98.215 59.800 95.358 53.204 C 93.786 49.577, 92.369 46.305, 92.210 45.933 C 91.768 44.907, 100.309 43, 105.348 43 C 107.802 43, 115.815 43.717, 123.155 44.592 C 144.633 47.155, 161.843 44.843, 168.579 38.491 C 178.917 28.740, 164.866 19.576, 139.500 19.524 C 124.300 19.494, 118.923 21.159, 112.210 27.978 C 102.851 37.486, 95.322 37.042, 83.946 26.310 C 76.935 19.697, 74.251 18.696, 77.162 23.781 C 78.018 25.276, 80.830 30.414, 83.411 35.197 L 88.105 43.895 84.802 45.572 C 82.986 46.494, 79.584 48.801, 77.241 50.699 L 72.983 54.148 69.991 47.481 C 68.346 43.814, 67 40.624, 67 40.391 C 67 40.159, 64.709 36.820, 61.909 32.970 C 52.651 20.241, 42.513 16.044, 33.500 21.208 M 34.290 23.965 C 30.759 26.118, 27 32.527, 27 36.395 C 27 44.351, 32.652 47.944, 42.500 46.248 C 48.241 45.259, 57.880 42.027, 60.954 40.060 C 62.756 38.907, 61.381 35.973, 56.199 29.919 C 49.759 22.396, 40.839 19.972, 34.290 23.965 M 127.500 22.661 C 121.894 23.862, 116.809 26.460, 114.947 29.074 C 113.804 30.679, 110.877 33.160, 108.443 34.586 C 102.494 38.072, 96.608 38.118, 90.077 34.730 L 85.092 32.144 87.766 37.595 C 89.705 41.549, 90.859 42.882, 91.969 42.450 C 98.044 40.086, 105.109 39.857, 120.435 41.525 C 145.380 44.239, 162.146 42.180, 167.568 35.736 C 169.824 33.055, 169.937 32.536, 168.675 30.626 C 166.537 27.390, 161.925 25.091, 154.356 23.487 C 148.025 22.146, 132.179 21.658, 127.500 22.661 M 50.873 55.830 C 36.419 70.818, 31.853 77.727, 31.200 85.601 C 30.782 90.642, 31.042 91.462, 34.875 97.170 C 37.144 100.548, 39 104.504, 39 105.961 C 39 107.417, 37.538 110.799, 35.750 113.476 C 30.502 121.337, 30.028 122.467, 27.892 132.211 C 24.984 145.472, 25.079 157.572, 28.141 163.742 C 32.157 171.838, 37.358 174.216, 55.036 176.044 C 60.791 176.638, 67.928 177.803, 70.895 178.633 L 76.289 180.140 81.188 175.320 C 86.767 169.831, 91.579 160.990, 92.564 154.418 C 92.934 151.957, 92.678 146.356, 91.996 141.972 L 90.756 134 86.628 134.031 C 79.466 134.084, 57.835 135.831, 57.264 136.403 C 56.963 136.704, 57.456 140.674, 58.359 145.225 C 59.262 149.776, 60.001 155.445, 60.001 157.823 C 60 161.398, 59.697 162.090, 58.250 161.822 C 56.977 161.585, 55.197 157.681, 51.719 147.498 C 49.090 139.799, 46.879 132.600, 46.806 131.500 C 46.687 129.723, 58.699 99.858, 69.853 74.197 C 72.077 69.080, 73.647 64.243, 73.341 63.447 C 73.005 62.570, 71.422 62, 69.320 62 L 65.855 62 67.927 59.365 C 69.067 57.916, 70 56.129, 70 55.394 C 70 53.230, 65.195 43, 64.178 43 C 63.666 43, 57.679 48.773, 50.873 55.830 M 82.946 49.932 C 75.379 54.921, 73.641 56.621, 74.313 58.372 C 74.833 59.728, 76.630 60, 85.052 60 C 90.615 60, 95.017 59.650, 94.833 59.221 C 94.650 58.793, 93.405 55.868, 92.066 52.721 C 90.727 49.575, 89.128 47, 88.512 47 C 87.896 47, 85.391 48.319, 82.946 49.932 M 78.750 63.689 C 77.787 63.941, 77 64.764, 77 65.518 C 77 67.676, 64.596 97.863, 58.491 110.563 C 53.995 119.915, 53.160 122.430, 54.017 124.031 C 57.687 130.890, 69.882 119.272, 79.768 99.500 C 88.023 82.988, 90.208 70.117, 85.545 65.455 C 83.124 63.033, 82.190 62.790, 78.750 63.689 M 89.553 65.750 C 91.360 69.214, 91.360 73.854, 89.551 81.500 C 86.320 95.164, 76.895 112.856, 67.913 122.118 C 61.590 128.638, 57.976 130.097, 53.917 127.767 C 51.355 126.297, 51.169 126.334, 50.171 128.525 C 49.327 130.376, 49.876 133.162, 52.958 142.665 C 55.069 149.174, 56.832 153.825, 56.875 153 C 56.952 151.517, 53.854 137.602, 52.478 133.250 C 51.949 131.575, 52.165 131, 53.324 131 C 54.181 131, 55.188 131.495, 55.561 132.099 C 56.216 133.159, 64.928 132.935, 83.098 131.389 L 89.696 130.828 88.744 125.664 C 87.427 118.517, 88.334 109.226, 90.826 104.340 C 93.156 99.774, 100.535 91.979, 105.054 89.309 C 108.520 87.262, 108.609 87.716, 101.947 73.486 L 97.039 63 92.579 63 L 88.119 63 89.553 65.750 M 104.569 72.703 C 107.046 78.039, 109.236 82.569, 109.436 82.770 C 109.637 82.970, 110.304 81.609, 110.919 79.745 C 112.691 74.378, 118.031 69.864, 123.315 69.268 C 131.864 68.304, 145.408 77.015, 149.950 86.397 C 152.709 92.096, 152.534 94.620, 149.143 98.011 C 146.888 100.266, 145.024 101.011, 140.306 101.545 L 134.326 102.221 138.621 108.626 C 144.121 116.828, 145.175 121.630, 142.033 124.174 C 139.543 126.191, 137.357 126.383, 131.750 125.081 C 129.688 124.602, 128 124.321, 128 124.456 C 128 124.591, 128.473 126.059, 129.051 127.718 C 130.097 130.718, 130.152 130.737, 139.801 131.439 C 148.888 132.100, 161.638 134.053, 166.750 135.567 C 168.921 136.210, 169 136.005, 169 129.727 C 169 126.148, 169.959 118.783, 171.131 113.360 C 172.367 107.640, 173.310 99.511, 173.376 94 C 173.476 85.681, 173.164 83.816, 170.872 79 C 169.432 75.975, 166.881 71.640, 165.205 69.366 C 162.434 65.610, 161.571 65.131, 155.746 64.116 C 152.197 63.498, 138.340 63, 124.701 63 L 100.066 63 104.569 72.703 M 118.881 73.503 C 117.441 74.286, 115.497 76.541, 114.560 78.514 C 111.042 85.929, 111.291 87.403, 119.004 104.734 L 126.200 120.901 131.394 122.064 C 143.060 124.674, 143.833 121.228, 134.628 107.652 L 128.145 98.089 134.414 98.674 C 149.830 100.114, 153.578 92.909, 143.209 81.767 C 135.457 73.435, 125.333 69.997, 118.881 73.503 M 103.472 93.893 C 98.274 97.883, 93.892 103.419, 92.056 108.315 C 90.899 111.400, 90.792 124.026, 91.890 128 C 92.481 130.139, 93.245 130.543, 97.178 130.800 L 101.775 131.100 103.877 124.300 C 107.015 114.152, 106.666 114.393, 114.447 116.982 C 118.122 118.205, 121.341 118.993, 121.601 118.732 C 122.140 118.194, 109.767 90, 109 90.020 C 108.725 90.027, 106.237 91.770, 103.472 93.893 M 108.525 119.146 C 106.489 124.750, 105 129.389, 105 130.126 C 105 130.607, 109.980 131, 116.067 131 C 127.077 131, 127.131 130.988, 126.463 128.750 C 125.095 124.164, 123.139 122.409, 117.372 120.592 C 114.142 119.575, 110.941 118.529, 110.258 118.268 C 109.576 118.006, 108.796 118.402, 108.525 119.146 M 104.219 134.750 C 103.823 135.713, 103.502 140.775, 103.505 146 C 103.509 154.370, 103.842 156.178, 106.305 161.203 C 109.822 168.376, 117.302 175.203, 124.798 178.082 C 131.787 180.766, 148.765 181.821, 157.019 180.085 C 163.504 178.720, 172.037 175.340, 178.376 171.626 L 182.937 168.953 178.511 162.353 C 176.076 158.724, 173.942 155.327, 173.768 154.805 C 173.594 154.283, 171.101 155.036, 168.227 156.480 C 162.609 159.302, 151.797 161.954, 145.799 161.983 C 140.034 162.010, 132.336 160.052, 129.531 157.846 C 125.748 154.870, 127.469 153.755, 132.110 156.174 C 137.108 158.780, 147.678 159.664, 155.014 158.090 C 159.929 157.036, 172 152.245, 172 151.348 C 172 151.140, 171.251 148.277, 170.337 144.987 C 168.807 139.485, 168.384 138.921, 165.087 137.977 C 156.931 135.642, 132 132.952, 132 134.407 C 132 134.631, 133.350 137.822, 135 141.500 C 138.468 149.231, 138.418 149, 136.635 149 C 135.884 149, 133.824 145.684, 132.057 141.630 L 128.843 134.260 123.672 133.639 C 120.827 133.297, 115.448 133.013, 111.719 133.009 C 106.195 133.002, 104.804 133.325, 104.219 134.750 M 172.355 142.756 C 174.046 148.821, 174.230 149.170, 175.226 148.174 C 176.608 146.792, 175.405 142.370, 173.443 141.617 C 172.298 141.177, 172.002 141.488, 172.355 142.756" stroke="none" fill="black" fill-rule="evenodd"/>
</svg>