<svg xmlns="http://www.w3.org/2000/svg" width="200" height="200" viewBox="0 0 200 200" version="1.1">
	<path d="M 37.619 16.005 C 33.919 17.151, 30.287 20.561, 27.982 25.054 C 24.376 32.084, 23.730 40.003, 24.437 68.500 C 25.048 93.094, 24.871 98.040, 22.455 124 C 19.402 156.803, 18.842 174.215, 20.778 176.167 C 24.039 179.455, 29.163 170.840, 39.911 144 C 50.115 118.517, 50.054 118.834, 50.994 86.500 C 51.839 57.396, 52.707 50.560, 56.516 43 C 59.248 37.578, 61.311 35.605, 66.537 33.415 C 74.743 29.975, 93.264 32.045, 99.644 37.114 C 101.641 38.702, 103.652 40, 104.112 40 C 104.572 40, 105.632 41.321, 106.466 42.935 C 108.308 46.496, 109.420 46.033, 90.814 49.443 C 78.703 51.663, 76.747 51.795, 73.814 50.588 C 65.907 47.334, 58 47.790, 58 51.500 C 58 53.965, 61.583 55, 70.117 55 C 77.762 55, 79.139 55.342, 88.933 59.669 C 94.745 62.237, 100.850 65.233, 102.500 66.326 C 107.006 69.311, 112.990 75.168, 114.530 78.098 C 115.816 80.547, 115.681 80.901, 112.197 84.237 L 108.500 87.776 101.500 86.880 C 97.650 86.388, 93.263 86.249, 91.750 86.572 L 89 87.159 88.996 81.329 C 88.994 77.278, 88.386 74.506, 87.005 72.241 C 81.541 63.279, 68.456 62.473, 60.804 70.627 C 55.794 75.965, 53.643 82.492, 53.188 93.733 C 52.961 99.361, 53.050 105.063, 53.387 106.406 C 54.989 112.787, 63.765 118.898, 71.500 119.018 L 75.500 119.080 65.545 128.408 C 56.040 137.315, 55.702 137.773, 58.045 138.559 C 63.278 140.316, 67.265 138.201, 78.965 127.463 C 83.046 123.718, 86.561 121.182, 86.775 121.826 C 87.270 123.310, 85.589 131.366, 82.805 140.852 C 81.250 146.153, 80.070 148.429, 78.574 149.014 C 77.433 149.461, 71.090 151.884, 64.478 154.400 C 46.357 161.294, 41.581 166.464, 50.992 168.998 C 58.527 171.027, 82.340 167.242, 97.177 161.658 C 108.346 157.454, 116.148 151.369, 117.528 145.785 L 118.199 143.071 113.251 143.657 C 108.955 144.165, 108.022 143.940, 106.164 141.946 C 103.320 138.893, 102.620 134.535, 103.303 124.138 C 104.049 112.778, 105.381 109.368, 111.102 104.171 L 115.867 99.842 117.317 102.671 C 118.114 104.227, 119.341 108.087, 120.042 111.250 C 120.744 114.412, 121.459 117, 121.631 117 C 123.335 117, 133.532 111.559, 135.483 109.608 C 140.735 104.355, 136.916 97.842, 125.699 92.923 C 120.320 90.564, 120.162 90.380, 119.751 86 C 119.396 82.222, 119.741 81.050, 121.903 78.696 C 124.360 76.020, 124.764 75.923, 130.745 76.563 C 139.768 77.529, 142.072 74.908, 138.415 67.836 C 136.859 64.826, 136.890 64.709, 140.149 61.346 L 143.469 57.921 144.349 60.711 C 146.035 66.053, 145.305 92.731, 143.137 105 C 141.002 117.083, 137.546 129.544, 136.079 130.451 C 135.602 130.746, 133.514 130.277, 131.438 129.410 C 126.112 127.184, 123 128.669, 123 133.438 C 123 137.616, 129.610 150.880, 135.987 159.500 C 148.969 177.046, 159.406 183.997, 163.388 177.750 C 165.730 174.077, 173.932 147.329, 175.535 138.138 C 177.215 128.505, 176.973 126.228, 172.885 113.182 C 169.388 102.027, 167.580 86.473, 168.503 75.500 C 169.097 68.436, 169.632 66.816, 173.077 61.652 C 181.989 48.293, 180.259 40.854, 167.710 38.581 L 163.920 37.894 170.004 31.254 C 174.058 26.830, 175.990 23.928, 175.793 22.557 C 175.341 19.409, 171.800 20.149, 156.816 26.522 C 136.925 34.983, 126.865 38.044, 116.750 38.715 C 110.858 39.106, 108 38.948, 108 38.230 C 108 34.321, 112.086 31.393, 119.248 30.171 C 121.500 29.786, 123.506 28.983, 123.705 28.386 C 123.961 27.617, 116.986 27.434, 99.783 27.758 L 75.500 28.214 66.959 23.637 C 62.261 21.119, 56.627 18.427, 54.439 17.655 C 48.929 15.711, 41.061 14.939, 37.619 16.005 M 37.500 18.954 C 34.610 20.149, 31.363 23.933, 29.298 28.514 C 27.682 32.097, 27.492 36.088, 27.416 68 C 27.345 98.282, 26.941 107.651, 24.666 131.741 C 21.817 161.917, 21.320 174.538, 23.022 173.486 C 25.534 171.934, 42.214 133.166, 45.591 121.031 C 46.675 117.138, 47.405 107.116, 48.057 87.190 C 49.061 56.548, 50.115 49.241, 54.771 40.669 C 57.551 35.552, 64.536 30, 68.196 30 C 71.756 30, 69.884 27.967, 63.248 24.625 C 51.801 18.860, 42.617 16.837, 37.500 18.954 M 157.762 29.022 C 136.235 38.343, 123.939 41.946, 113.536 41.983 C 108.923 41.999, 108.688 42.117, 110.221 43.650 C 111.754 45.183, 112.472 45.180, 120.363 43.613 C 131.518 41.398, 144.826 39.314, 153.428 38.436 C 160.305 37.734, 160.398 37.684, 165.928 31.739 C 171.840 25.384, 173.602 22.977, 172.300 23.037 C 171.860 23.057, 165.318 25.751, 157.762 29.022 M 101 31 C 97.425 31.360, 95.375 31.732, 96.445 31.827 C 97.515 31.922, 99.669 33.225, 101.231 34.721 L 104.072 37.443 106.500 34.471 C 108.962 31.459, 109.613 29.859, 108.250 30.173 C 107.838 30.268, 104.575 30.640, 101 31 M 150.500 41.502 C 149.950 41.692, 146.959 42.133, 143.853 42.483 L 138.205 43.118 140.571 45.671 C 141.872 47.074, 143.206 49.073, 143.535 50.111 C 143.865 51.150, 144.442 51.979, 144.817 51.954 C 145.193 51.929, 148.200 49.455, 151.500 46.456 C 157.392 41.102, 157.446 41.005, 154.500 41.081 C 152.850 41.123, 151.050 41.313, 150.500 41.502 M 153.204 48.235 L 145.909 55.639 146.930 60.069 C 148.420 66.534, 148.189 88.914, 146.510 100.721 C 144.740 113.175, 141.541 126.019, 138.941 131.116 L 137.008 134.906 132.754 132.975 C 126.963 130.346, 126 130.485, 126 133.946 C 126 140.790, 139.691 161.947, 150.531 171.854 C 156.217 177.051, 159.350 178.505, 160.856 176.647 C 162.819 174.225, 171.990 143.671, 173.139 135.724 L 174.346 127.375 170.542 115.438 C 166.846 103.842, 166.723 102.978, 166.247 85.299 L 165.758 67.098 169.385 62.157 C 179.133 48.878, 178.050 42.545, 165.827 41.351 L 160.500 40.831 153.204 48.235 M 127.707 45.094 C 125.620 45.585, 122.347 47.051, 120.433 48.352 C 117.413 50.404, 117.154 50.883, 118.477 51.981 C 120.124 53.348, 120.550 56, 119.122 56 C 118.640 56, 117.685 55.325, 117 54.500 C 116.315 53.675, 115.231 53, 114.590 53 C 113.262 53, 103.388 62.730, 104.060 63.376 C 104.814 64.101, 123.692 72, 124.669 72 C 126.290 72, 133.116 64.367, 132.802 62.905 C 132.636 62.132, 133.268 61.495, 134.207 61.488 C 135.145 61.482, 137.484 59.954, 139.403 58.094 L 142.893 54.711 140.937 50.876 C 139.861 48.767, 137.657 46.357, 136.040 45.521 C 132.780 43.835, 133.006 43.846, 127.707 45.094 M 94.750 51.369 C 88.838 52.533, 84 53.729, 84 54.028 C 84 54.327, 87.713 56.194, 92.250 58.178 L 100.500 61.785 106.203 56.220 C 109.339 53.160, 111.675 50.283, 111.394 49.828 C 110.654 48.632, 106.891 48.980, 94.750 51.369 M 62.250 51.689 C 63.212 51.941, 64.787 51.941, 65.750 51.689 C 66.713 51.438, 65.925 51.232, 64 51.232 C 62.075 51.232, 61.288 51.438, 62.250 51.689 M 69.594 68.019 C 65.130 69.389, 60.219 74.810, 57.879 80.949 C 56.259 85.199, 55.756 88.798, 55.730 96.308 C 55.693 106.826, 56.544 109.093, 62.062 113.184 C 65.230 115.533, 75.386 117.440, 77.749 116.130 C 78.712 115.596, 85.399 109.610, 92.609 102.829 C 107.248 89.060, 107.195 89.362, 95 89.134 C 88.668 89.015, 87.839 89.407, 85.737 93.511 C 84.889 95.167, 82.404 98.542, 80.213 101.010 L 76.231 105.497 75.159 101.613 C 73.549 95.782, 75.679 91.472, 81.426 88.930 C 85.171 87.273, 86.027 86.374, 86.559 83.536 C 86.911 81.663, 86.674 78.541, 86.032 76.598 C 84.878 73.102, 79.939 68.013, 77.673 67.986 C 77.028 67.979, 75.600 67.782, 74.500 67.550 C 73.400 67.317, 71.192 67.528, 69.594 68.019 M 131.730 69.760 C 130.229 71.327, 129 72.922, 129 73.305 C 129 73.687, 130.800 74, 133 74 C 136.192 74, 137 73.635, 137 72.191 C 137 71.196, 136.429 69.601, 135.730 68.646 C 134.555 67.039, 134.257 67.122, 131.730 69.760 M 114.281 72.922 C 115.671 74.574, 117.011 76.505, 117.258 77.213 C 117.591 78.165, 118.273 77.998, 119.878 76.574 C 122.387 74.346, 122.051 73.901, 116.126 71.609 L 111.753 69.917 114.281 72.922 M 114.119 86.373 L 111.890 88.746 114.445 89.234 C 116.703 89.666, 117 89.391, 117 86.861 C 117 83.399, 116.925 83.386, 114.119 86.373 M 79.455 93.455 C 78.105 94.805, 77 96.899, 77 98.110 C 77 100.143, 77.132 100.190, 78.750 98.722 C 81.344 96.368, 84.307 91, 83.011 91 C 82.405 91, 80.805 92.105, 79.455 93.455 M 96.685 102.643 C 89.816 109.164, 84.757 114.632, 85.443 114.794 C 87.037 115.168, 96.544 111.602, 100.625 109.098 C 102.344 108.044, 104.819 105.228, 106.125 102.841 C 107.551 100.234, 109.785 97.901, 111.717 97 C 114.597 95.657, 116.628 93.295, 115.701 92.367 C 115.510 92.177, 113.964 91.743, 112.265 91.403 C 109.391 90.828, 108.303 91.613, 96.685 102.643 M 118.071 94.867 C 117.360 96.196, 117.744 97.933, 119.531 101.463 C 120.865 104.098, 122.242 107.772, 122.590 109.627 C 123.310 113.464, 123.853 113.631, 128.300 111.379 C 137.525 106.708, 137.164 101.602, 127.257 96.595 C 120.521 93.191, 119.110 92.925, 118.071 94.867 M 95.615 114.497 C 92.929 115.784, 89.779 117.099, 88.615 117.419 C 87.309 117.778, 86.911 118.287, 87.573 118.750 C 90.380 120.712, 89.634 127.633, 84.895 143.624 C 82.844 150.543, 82.664 150.784, 78.642 151.983 C 70.054 154.543, 54.268 161.211, 51.440 163.474 L 48.500 165.826 51.500 166.585 C 55.767 167.664, 73.822 165.447, 85 162.471 C 96.280 159.468, 107.911 154.187, 111.743 150.329 L 114.500 147.553 110.728 146.931 C 105.881 146.130, 102.267 142.695, 100.873 137.565 C 99.777 133.530, 100.212 118.738, 101.558 114.250 C 102.382 111.504, 101.816 111.528, 95.615 114.497 M 81.515 118.735 C 79.388 119.273, 60.665 135.999, 61.384 136.718 C 62.359 137.692, 68.116 133.704, 75.085 127.227 C 79.163 123.436, 83.400 119.822, 84.500 119.197 C 86.606 118, 85.247 117.790, 81.515 118.735" stroke="none" fill="black" fill-rule="evenodd"/>
</svg>