<svg xmlns="http://www.w3.org/2000/svg" width="200" height="200" viewBox="0 0 200 200" version="1.1">
	<path d="M 37.213 26.507 C 32.333 28.627, 29.087 37.531, 32.750 38.750 C 33.572 39.024, 34 38.096, 34 36.038 C 34 28.802, 41.482 26.035, 56.112 27.862 C 71.995 29.845, 91.274 32.941, 91.887 33.607 C 92.224 33.973, 87.649 33.972, 81.720 33.603 C 72.351 33.021, 70.376 33.183, 66.628 34.840 C 56.971 39.112, 55.002 46.241, 54.994 76.960 C 54.988 100.274, 54.188 108.913, 51.542 114.216 C 50.694 115.916, 50 119.866, 50 122.994 C 50 130.816, 46.758 142.872, 41.950 152.928 C 35.857 165.674, 27.246 177, 23.649 177 C 22.336 177, 23.706 168.156, 26.075 161.342 C 31.605 145.438, 34.959 112.646, 34.985 74.250 C 34.998 54.243, 34.791 51, 33.500 51 C 32.205 51, 32 54.539, 32 76.855 C 32 115.220, 29.499 139.985, 23.654 159.500 C 20.345 170.548, 19.630 175.440, 20.960 177.925 C 22.707 181.189, 25.701 180.385, 30.611 175.332 C 41.877 163.741, 52.923 138.010, 52.983 123.218 C 52.992 120.864, 53.977 116.139, 55.172 112.718 C 57.169 107.002, 57.359 104.359, 57.523 80 C 57.706 52.826, 58.232 48.336, 61.944 42.299 C 65.856 35.934, 65.779 35.944, 108.415 36.449 C 141.237 36.837, 147.374 37.142, 150.028 38.515 C 153.986 40.561, 153.480 41.214, 141.939 48.933 C 127.334 58.702, 117.172 61.441, 106.077 58.598 C 102.618 57.712, 97.990 55.915, 95.792 54.604 L 91.796 52.221 78.766 55.598 C 58.953 60.732, 58.283 62.662, 75.821 64.072 C 87.750 65.031, 94.580 67.102, 95.514 70.044 C 96.959 74.596, 87.569 84.400, 76.463 89.935 C 56.509 99.879, 53.044 115.202, 68.930 123.250 C 73.539 125.585, 75.596 126, 82.554 126 C 87.308 126, 92.546 125.366, 95.030 124.489 C 97.385 123.658, 99.432 123.099, 99.579 123.245 C 99.726 123.392, 92.628 128.902, 83.807 135.488 C 60.168 153.139, 54.488 160.509, 58.323 168.552 C 59.962 171.988, 67.273 177.516, 71.641 178.621 C 75.110 179.498, 89.379 176.383, 106.366 171.042 C 115.083 168.301, 124.844 165.541, 128.056 164.909 C 136.253 163.297, 146.281 164.084, 149.739 166.611 C 153.086 169.057, 156.013 174.678, 156.732 180.037 L 157.263 184 162.766 184 C 180.883 184, 186.968 172.773, 178.383 155.185 C 173.113 144.387, 160.681 131.413, 153.212 128.918 C 146.748 126.759, 142.777 132.744, 145.057 141.212 C 145.825 144.063, 145.808 145.526, 144.997 146.503 C 141.284 150.977, 116.974 153.981, 99.446 152.133 C 93.474 151.503, 88.170 150.570, 87.660 150.060 C 87.091 149.491, 89.004 148.492, 92.617 147.471 C 95.853 146.556, 100.975 144.128, 104 142.075 C 107.025 140.022, 116.475 134.375, 125 129.525 C 150.855 114.817, 158.878 108.478, 161.123 100.983 C 162.622 95.981, 160.173 90.804, 154.158 86.259 L 149.816 82.978 147.643 86.239 C 144.895 90.363, 131.955 96.926, 119.500 100.513 C 108.890 103.568, 91.643 106.339, 88.816 105.442 C 86.840 104.815, 86.840 104.799, 88.859 102.655 C 91.282 100.083, 94.846 98.197, 105.391 93.907 C 114.042 90.387, 121.375 84.338, 122.520 79.778 C 122.954 78.047, 122.462 74.863, 121.168 71.031 L 119.133 65.005 121.555 64.397 C 123.813 63.830, 133.965 64.172, 157.003 65.591 C 165.718 66.128, 166.734 65.997, 169.253 64.016 C 174.479 59.905, 172.644 53.737, 163.672 45.251 L 158.150 40.029 160.825 38.144 C 162.296 37.107, 166.154 35.494, 169.398 34.559 C 173.197 33.463, 176.399 31.731, 178.398 29.689 L 181.500 26.519 179.093 26.169 C 177.701 25.967, 173.499 27.438, 169.125 29.660 C 162.199 33.177, 160.888 33.498, 153.532 33.479 C 147.667 33.463, 143.973 32.862, 139.841 31.252 C 136.728 30.039, 131.025 28.557, 127.166 27.958 C 121.231 27.037, 119.408 27.127, 115.326 28.544 C 108.376 30.956, 93.757 30.609, 73.716 27.556 C 54.968 24.701, 42.213 24.334, 37.213 26.507 M 117 30.935 C 116.175 31.504, 114.375 31.983, 113 32 C 111.017 32.024, 110.810 32.231, 112 33 C 112.825 33.533, 119.350 33.932, 126.500 33.886 C 139.126 33.805, 139.372 33.762, 135.060 32.409 C 128.944 30.491, 118.840 29.666, 117 30.935 M 154.510 38.016 C 154.856 38.575, 155.557 38.774, 156.069 38.457 C 157.456 37.600, 157.198 37, 155.441 37 C 154.584 37, 154.165 37.457, 154.510 38.016 M 148.500 47.574 C 144.650 50.575, 137.960 54.824, 133.634 57.015 L 125.768 61 132.391 61 C 136.033 61, 143.623 61.698, 149.257 62.551 C 159.324 64.076, 165.279 63.830, 167.750 61.788 C 171.219 58.921, 167.631 51.438, 159.821 45.250 C 157.565 43.462, 155.669 42.026, 155.609 42.058 C 155.549 42.091, 152.350 44.572, 148.500 47.574 M 80.998 57.871 L 70.500 60.341 80.190 61.595 C 91.646 63.078, 96.363 65.049, 98.018 69.044 C 99.077 71.601, 98.913 72.473, 96.635 76.360 C 93.578 81.576, 85.913 88.250, 79.258 91.489 C 63.203 99.303, 57.582 109.782, 65.303 117.503 C 68.691 120.891, 76.792 124, 82.234 124 C 88.050 124, 98.972 120.786, 104.528 117.441 C 111.079 113.496, 111 113.521, 111 115.449 C 111 117.693, 105.931 122.116, 87.376 136.059 C 59.040 157.351, 54.688 164.415, 65.211 172.038 C 67.503 173.698, 70.531 175.347, 71.939 175.701 C 75.392 176.569, 88.448 173.781, 103.830 168.890 C 121.341 163.322, 131.466 161.015, 138.434 161.007 C 149.174 160.994, 156.253 166.395, 158.936 176.647 C 159.533 178.928, 160.594 181.014, 161.293 181.282 C 163.408 182.094, 172.681 180.255, 175.375 178.490 C 178.582 176.388, 180.404 170.967, 179.508 166.185 C 177.776 156.932, 168.290 142.543, 159.610 136.003 C 149.728 128.557, 146.223 129.997, 147.498 140.979 C 148.104 146.202, 147.944 146.974, 145.854 148.921 C 141.102 153.349, 134.158 154.492, 112 154.496 C 90.064 154.500, 84 153.536, 84 150.045 C 84 147.528, 85.750 146.337, 91.513 144.931 C 94.256 144.262, 99.425 141.805, 103 139.469 C 106.575 137.134, 116.025 131.510, 124 126.970 C 150.163 112.077, 157.459 106.110, 158.677 98.604 C 159.198 95.392, 158.831 94.596, 155.121 90.886 L 150.985 86.750 149.056 89.201 C 143.292 96.529, 114.494 106.559, 95.982 107.686 C 87.955 108.174, 86.254 108.012, 85.121 106.645 C 84.381 105.754, 84.030 104.365, 84.339 103.558 C 85.386 100.830, 94.370 95.203, 102.778 92.009 C 108.667 89.773, 112.449 87.578, 115.569 84.588 C 120.520 79.844, 120.999 77.537, 118.386 71.007 C 117.498 68.788, 116.988 65.843, 117.252 64.462 C 117.629 62.489, 117.385 62.060, 116.116 62.463 C 113.120 63.414, 102.541 61.068, 96.998 58.224 L 91.495 55.400 80.998 57.871" stroke="none" fill="black" fill-rule="evenodd"/>
</svg>