<svg xmlns="http://www.w3.org/2000/svg" width="200" height="200" viewBox="0 0 200 200" version="1.1">
	<path d="M 135 24.790 C 133.625 24.984, 129.575 26.049, 126 27.157 C 119.973 29.025, 117.827 29.124, 96.500 28.510 C 67.241 27.668, 59.060 28.766, 49.831 34.771 C 40.847 40.617, 37.228 50.476, 35.980 72.500 C 35.390 82.924, 34.166 92.682, 32.468 100.500 C 23.328 142.600, 21.319 155.813, 22.451 166.387 C 23.241 173.765, 26.865 182.210, 30.171 184.376 C 32.336 185.795, 32.935 185.694, 38.502 182.971 C 53.255 175.755, 67.284 174.363, 109 175.974 C 132.957 176.899, 143.014 176.915, 151 176.041 C 168.862 174.087, 175 171.784, 175 167.039 C 175 164.662, 173.580 162.880, 167.250 157.314 C 154.107 145.758, 148.288 139.365, 146.772 134.815 C 145.452 130.856, 144.983 130.466, 139.645 128.881 C 136.502 127.948, 132.381 126.003, 130.488 124.558 C 126.972 121.877, 122.749 115.488, 121.526 111 C 120.927 108.802, 121.085 108.878, 122.833 111.627 C 127.655 119.212, 136.992 125.923, 142.800 125.978 C 149.117 126.038, 155.999 118.982, 158.955 109.412 C 161.378 101.564, 161.422 101, 159.611 101 C 158.798 101, 157.932 102.554, 157.521 104.750 C 155.629 114.855, 149.186 122.987, 143.066 122.996 C 129.884 123.017, 114.344 97.206, 121.912 87.861 C 123.536 85.855, 124.724 85.500, 129.821 85.500 L 135.819 85.500 136.399 82 C 137.401 75.942, 137.050 60.203, 135.853 57.576 C 134.383 54.350, 129.348 52.675, 123.675 53.526 C 119.652 54.129, 119.229 53.988, 118.654 51.842 C 117.085 45.979, 117.519 45.447, 125.750 43.160 C 130.012 41.976, 137.469 39.902, 142.321 38.551 L 151.142 36.095 152.648 39.701 C 155.601 46.767, 157.193 58.389, 157.347 74 C 157.443 83.766, 157.870 89.404, 158.500 89.240 C 159.127 89.077, 159.455 81.997, 159.378 70.240 C 159.259 51.948, 158.360 45.671, 154.613 36.969 C 154.074 35.715, 156.226 34.916, 166.477 32.565 C 174.882 30.637, 179 29.249, 179 28.346 C 179 26.607, 177.929 26.648, 163 28.952 L 150.500 30.882 148 28.499 C 145.350 25.973, 139.157 24.206, 135 24.790 M 129 29.189 C 123.836 31.177, 121.858 31.294, 96.609 31.112 C 68.631 30.909, 61.775 31.568, 54.750 35.136 C 49.340 37.884, 50.141 38.160, 56.250 35.654 C 61.320 33.574, 62.647 33.510, 95 33.787 C 126.463 34.057, 143.907 33.105, 146.315 30.987 C 147.325 30.098, 139.776 26.987, 136.730 27.036 C 135.503 27.056, 132.025 28.025, 129 29.189 M 137.753 35.581 C 137.433 35.900, 131.545 36.463, 124.667 36.831 L 112.162 37.500 114.536 40.253 L 116.909 43.005 130.204 39.061 C 137.517 36.892, 142.338 35.091, 140.917 35.059 C 139.496 35.026, 138.072 35.261, 137.753 35.581 M 60.500 37.406 C 45.442 41.127, 41.874 47.471, 44.616 65.647 C 45.981 74.696, 46.108 79.824, 45.382 96.500 C 44.902 107.500, 44.509 124.375, 44.506 134 C 44.503 149.967, 44.697 151.921, 46.721 156.308 L 48.939 161.116 55.219 156.896 C 65.072 150.276, 77.335 140.522, 80.879 136.485 C 85.977 130.678, 85.072 129.053, 75 125.932 C 58.170 120.717, 54.514 117.467, 52.843 106.237 C 51.405 96.579, 51.464 80.413, 52.960 74 C 57.139 56.085, 69.954 44.883, 93.001 39 C 97.675 37.807, 101.687 36.644, 101.917 36.416 C 102.960 35.375, 65.051 36.281, 60.500 37.406 M 94.500 41.452 C 62.741 49.549, 51.265 66.371, 54.949 99.427 C 55.646 105.683, 56.737 111.846, 57.373 113.121 C 59.176 116.738, 64.668 119.869, 74.228 122.731 C 83.257 125.434, 87.003 127.797, 86.996 130.789 C 86.986 135.622, 78.910 143.422, 60.139 156.729 C 51.644 162.752, 50.945 163.487, 52.580 164.683 C 58.796 169.228, 71.412 161.696, 95.468 139.076 C 109.957 125.453, 114.287 122, 116.884 122 C 119.739 122, 120.468 124.164, 119.344 129.309 L 118.429 133.500 127.635 142.273 C 142.881 156.801, 146.046 163.673, 139.669 168.401 C 136.938 170.426, 135.754 170.500, 106.169 170.500 C 89.301 170.500, 71.869 170.888, 67.432 171.363 C 60.211 172.136, 58.935 172.008, 55.279 170.142 C 49.846 167.371, 45.618 162.049, 43.368 155.150 C 41.215 148.551, 40.965 133.794, 42.414 98.850 C 43.112 82.041, 43.006 74.785, 41.940 66.398 C 40.345 53.843, 39.257 55.220, 39.096 70 C 38.973 81.236, 37.446 91.167, 32.099 115.500 C 23.459 154.815, 22.941 171.299, 30.059 180.348 L 32.123 182.971 37.157 180.420 C 51.050 173.381, 69.106 171.576, 109.495 173.190 C 145.292 174.620, 165.288 173.166, 171.415 168.686 C 174.047 166.761, 172.405 164.608, 161.199 155.292 C 151.901 147.561, 146.026 140.828, 144.055 135.645 C 143.491 134.162, 142.461 132.785, 141.765 132.585 C 130.969 129.477, 124.362 124.216, 120.409 115.582 C 116.683 107.443, 115.926 101.110, 115.971 78.435 L 116.013 57.371 104.257 57.803 C 97.790 58.041, 92.383 58.338, 92.239 58.462 C 92.096 58.586, 92.650 60.592, 93.472 62.919 C 96.212 70.686, 97.423 82.858, 96.086 89.188 C 94.023 98.953, 88.298 105.200, 81.412 105.200 C 77.101 105.200, 73 101.572, 73 97.760 C 73 94.302, 76.677 87.722, 80.927 83.571 L 84.889 79.702 80.966 76.860 C 74.618 72.262, 74.431 66.159, 80.464 60.470 C 84.408 56.750, 96.893 50.141, 106 46.952 C 109.575 45.701, 112.870 44.357, 113.321 43.967 C 114.638 42.829, 108.982 38.992, 106.115 39.079 C 104.677 39.122, 99.450 40.190, 94.500 41.452 M 104.087 50.545 C 92.236 55.307, 92.015 56.024, 102.587 55.400 C 114.547 54.694, 116 54.332, 116 52.063 C 116 49.237, 114.936 46.989, 113.643 47.082 C 113.014 47.128, 108.714 48.686, 104.087 50.545 M 120.750 56.689 C 119.305 57.067, 118.999 58.309, 118.994 63.823 C 118.991 67.495, 118.693 74.295, 118.332 78.934 L 117.675 87.367 120.905 85.068 C 122.909 83.641, 125.913 82.656, 128.817 82.475 L 133.500 82.181 133.781 70.693 C 134.109 57.265, 133.457 55.928, 126.679 56.116 C 124.380 56.180, 121.713 56.438, 120.750 56.689 M 84.775 60.497 C 78.092 65.056, 77.091 70.216, 82.077 74.411 C 83.769 75.835, 85.456 77.007, 85.827 77.015 C 86.197 77.024, 87.157 77.446, 87.960 77.954 C 89.132 78.696, 88.295 80.059, 83.716 84.859 C 76.032 92.914, 74.174 98.031, 77.664 101.521 C 79.903 103.760, 84.594 102.763, 88.237 99.273 C 91.494 96.153, 94.008 88.625, 93.983 82.068 C 93.963 76.787, 91.821 65.977, 89.854 61.226 L 88.500 57.956 84.775 60.497 M 108.079 131.250 C 104.244 134.688, 96.245 141.965, 90.303 147.422 C 78.668 158.109, 66.894 166.425, 61.822 167.539 C 59.542 168.040, 59.061 168.455, 60.093 169.032 C 60.878 169.472, 63.766 169.371, 66.510 168.808 C 69.368 168.222, 84.719 167.838, 102.435 167.909 C 122.480 167.990, 134.536 167.648, 136.685 166.939 C 143.683 164.629, 140.093 157.840, 123.664 142.313 C 115.561 134.656, 115.066 133.957, 116.001 131.498 C 117.272 128.154, 117.285 125, 116.026 125 C 115.491 125, 111.915 127.813, 108.079 131.250" stroke="none" fill="black" fill-rule="evenodd"/>
</svg>