<svg xmlns="http://www.w3.org/2000/svg" width="200" height="200" viewBox="0 0 200 200" version="1.1">
	<path d="M 97.500 9.053 C 89.420 10.292, 76.039 14.184, 65.942 18.231 C 57.368 21.668, 54.753 24, 59.473 24 C 61.632 24, 62.468 24.803, 64.063 28.409 C 65.136 30.835, 66.281 34.773, 66.609 37.161 L 67.204 41.504 60.852 42.808 C 57.358 43.526, 53.885 44.200, 53.133 44.306 C 52.318 44.422, 51.248 42.774, 50.481 40.222 C 48.008 31.999, 41.558 26, 35.189 26 C 32.133 26, 26.017 29.621, 22.829 33.318 C 21.794 34.518, 19.451 38.425, 17.622 42 C 14.806 47.505, 14.444 48.959, 15.262 51.500 C 16.383 54.983, 16.670 77.968, 15.991 110 C 15.476 134.312, 16.191 140.475, 20.518 149 C 21.774 151.475, 23.928 154.550, 25.303 155.833 L 27.805 158.165 28.526 154.833 C 29.474 150.446, 33.298 142.939, 35.679 140.788 C 39.481 137.352, 44.700 136, 54.218 135.985 C 64.645 135.969, 67.409 135, 70.618 130.239 C 72.770 127.045, 72.792 126.582, 72.531 89.754 C 72.385 69.264, 71.913 50.519, 71.481 48.098 L 70.696 43.696 74.930 44.264 C 77.260 44.576, 79.298 44.982, 79.461 45.166 C 79.623 45.350, 79.111 49.100, 78.324 53.500 C 77.228 59.621, 76.850 73.008, 76.715 110.500 C 76.518 165.415, 76.557 165.792, 83.098 172.334 C 86.920 176.155, 87.135 176.231, 92.997 175.807 C 97.494 175.481, 101.070 174.318, 107.325 171.147 C 114.522 167.498, 116.034 167.062, 118.395 167.960 C 119.899 168.532, 124.079 169, 127.683 169 C 133.535 169, 134.601 169.320, 137.646 171.994 C 143.401 177.047, 148.876 179.323, 155.500 179.416 C 165.389 179.554, 172.804 173.876, 177.590 162.500 C 180.143 156.432, 180.616 141.867, 178.561 132.630 C 177.216 126.582, 176.928 121.108, 177.177 106.249 C 177.349 95.937, 177.492 79.611, 177.495 69.970 C 177.500 53.182, 177.393 52.232, 174.975 47.537 C 171.950 41.662, 165.993 38, 159.463 38 L 155.240 38 154.806 31.999 C 154.451 27.093, 153.850 25.453, 151.511 23.011 C 147.831 19.170, 143.074 18.275, 136.878 20.256 C 132.352 21.704, 132.035 21.687, 131.492 19.975 C 130.549 17.004, 123.430 11.213, 119.321 10.073 C 113.518 8.464, 104.185 8.027, 97.500 9.053 M 94.500 12.459 C 87.441 13.748, 66.137 20.474, 64.754 21.850 C 64.343 22.258, 64.886 24.316, 65.960 26.422 C 67.034 28.529, 68.444 32.627, 69.094 35.529 C 70.143 40.218, 70.607 40.871, 73.262 41.402 C 79.404 42.631, 80.376 42.196, 83.287 36.919 C 86.885 30.397, 91.389 28.202, 97.452 30.015 C 104.375 32.086, 106.654 34.337, 107.382 39.821 C 107.738 42.502, 108.320 44.986, 108.676 45.342 C 109.031 45.698, 110.444 44.304, 111.815 42.245 C 116.052 35.878, 122.673 28.481, 126.414 25.933 C 128.379 24.595, 129.989 23.103, 129.993 22.618 C 129.997 22.134, 128.088 19.830, 125.750 17.499 C 119.368 11.134, 110.014 9.626, 94.500 12.459 M 136.182 23.265 C 134.145 24.350, 133.830 25.350, 133.584 31.514 C 133.053 44.761, 124.999 56.973, 116.780 56.993 L 114.060 57 116.516 60.618 C 119.160 64.515, 120.989 69.986, 120.989 74 C 120.989 78.501, 118.986 84, 117.346 84 C 116.250 84, 116.002 83.480, 116.514 82.250 C 119.621 74.782, 117.440 64.758, 111.444 58.946 C 107.399 55.025, 107.317 55.080, 103.906 64 C 101.902 69.240, 101.824 70.849, 102.255 98 C 102.504 113.675, 103.161 127.621, 103.715 128.991 C 104.700 131.425, 104.779 131.369, 107.222 126.491 C 108.596 123.746, 111.396 116.438, 113.443 110.250 C 116.884 99.850, 119 96.286, 119 100.889 C 119 103.654, 111.162 125.969, 108.897 129.651 C 101.953 140.942, 99.050 128.757, 99.016 88.167 C 99 68.918, 99.013 68.800, 102.058 61.196 C 104.928 54.029, 105.009 53.480, 103.368 52.280 C 99.523 49.468, 83.414 44.482, 82.611 45.855 C 82.403 46.210, 81.634 49.875, 80.901 54 C 79.911 59.566, 79.559 74.391, 79.534 111.500 L 79.500 161.500 81.847 166.267 C 84.760 172.181, 86.855 173.343, 93.601 172.783 C 98.603 172.368, 112 166.705, 112 165.005 C 112 164.623, 111.117 163.511, 110.038 162.534 C 103.613 156.720, 105.176 141.836, 113.382 130.683 C 116.174 126.888, 122.916 123, 126.703 123 C 129.429 123, 130.185 123.784, 134.312 130.886 C 138.425 137.964, 142.892 143, 145.057 143 C 148.724 143, 148.700 118.168, 145.016 101 C 142.280 88.249, 139.264 79.418, 136.579 76.297 L 134.364 73.722 138.775 67.143 C 152.174 47.162, 155.960 29.327, 148.087 23.282 C 146.024 21.698, 139.141 21.688, 136.182 23.265 M 125.662 30.057 C 120.116 34.949, 111 47.432, 111 50.134 C 111 51.135, 112.128 52.693, 113.506 53.596 C 115.651 55.001, 116.460 55.052, 119.122 53.949 C 125.441 51.332, 131.480 38.921, 130.809 29.934 L 130.500 25.789 125.662 30.057 M 29.532 30.969 C 27.900 32.045, 25.746 33.955, 24.746 35.213 C 21.826 38.884, 16.879 48.995, 17.506 50.010 C 19.492 53.223, 19.982 69.396, 18.857 94.618 C 17.475 125.595, 18.312 137.633, 22.481 146.740 C 23.806 149.633, 25.252 151.971, 25.695 151.935 C 26.138 151.899, 27.854 149.102, 29.508 145.719 C 34.322 135.877, 40.131 133.015, 55.316 133.006 C 60.164 133.003, 64.940 132.567, 65.929 132.038 C 68.647 130.583, 70.405 125.293, 70.237 119.075 C 70.154 116.009, 70.072 102.025, 70.056 88 C 70.030 65.747, 69.020 45.687, 67.869 44.535 C 67.327 43.993, 57.932 45.825, 54.880 47.068 C 52.371 48.090, 52.231 48.561, 51.547 58.317 C 51.154 63.918, 50.758 78.688, 50.667 91.139 C 50.516 111.594, 50.322 113.975, 48.656 115.822 C 46.123 118.629, 44.415 117.645, 42.299 112.162 C 39.934 106.034, 39.972 83.232, 42.367 71.500 C 43.265 67.100, 44 61.425, 44 58.890 C 44 55.578, 44.730 53.204, 46.590 50.463 C 49.409 46.308, 49.369 43.687, 46.390 37.409 C 42.725 29.686, 35.605 26.966, 29.532 30.969 M 89.217 33.561 C 87.084 35.055, 84 39.920, 84 41.791 C 84 42.281, 86.388 43.216, 89.306 43.869 C 92.225 44.522, 97.454 46.400, 100.927 48.043 C 107.180 51, 107.235 51.007, 106.642 48.764 C 106.313 47.519, 105.505 44.107, 104.847 41.181 C 103.800 36.523, 103.181 35.623, 99.865 33.931 C 95.281 31.593, 92.181 31.485, 89.217 33.561 M 153.676 86.750 C 153.335 111.913, 153.391 139.250, 153.800 147.500 C 154.290 157.404, 154.196 162.758, 153.521 163.259 C 152.960 163.676, 150.025 164.714, 147 165.565 C 136.887 168.409, 137.003 168.265, 141.937 171.839 C 153.973 180.558, 166.800 177.609, 173.457 164.592 C 176.023 159.573, 176.493 157.409, 176.829 149.055 C 177.088 142.603, 176.679 136.741, 175.609 131.568 C 173.836 122.994, 173.594 105.359, 174.914 81 C 176.552 50.775, 172.711 41, 159.197 41 L 154.294 41 153.676 86.750 M 48.206 52.684 C 47.543 53.886, 47 56.669, 47 58.869 C 47 61.069, 46.262 66.161, 45.359 70.185 C 43.243 79.616, 42.892 107.064, 44.830 111.500 C 47.320 117.200, 48.291 112.004, 47.987 94.599 C 47.833 85.745, 47.681 76.250, 47.649 73.500 C 47.617 70.750, 48.167 65.242, 48.871 61.261 C 49.575 57.279, 49.985 53.229, 49.782 52.261 C 49.457 50.714, 49.266 50.765, 48.206 52.684 M 148.582 55.818 C 147.635 57.918, 144.955 62.661, 142.626 66.357 L 138.391 73.077 141.121 78.789 C 143.970 84.751, 147.363 96.944, 148.553 105.500 C 150.268 117.824, 150.941 111.485, 150.970 82.750 C 150.986 65.838, 150.843 52, 150.652 52 C 150.460 52, 149.529 53.718, 148.582 55.818 M 119.243 128.939 C 116.490 130.933, 114.152 133.977, 111.974 138.402 C 109.120 144.199, 108.809 145.656, 109.180 151.489 C 109.529 156.964, 110.043 158.498, 112.281 160.736 L 114.964 163.419 121.175 159.039 C 124.662 156.580, 127.548 155.145, 127.756 155.768 C 127.959 156.378, 129.695 158.932, 131.613 161.445 C 135.463 166.487, 134.815 166.414, 146 163.065 C 150.558 161.700, 151.488 161.040, 151.429 159.209 C 151.389 157.994, 151.259 152.613, 151.139 147.250 C 150.939 138.263, 150.819 137.735, 149.614 140.500 C 148.895 142.151, 147.595 144.091, 146.725 144.813 C 143.398 147.574, 136.764 141.571, 130.875 130.471 C 127.968 124.990, 125.198 124.625, 119.243 128.939 M 121.749 161.966 C 117.382 165.249, 118.208 166, 126.180 166 L 131.196 166 129.149 162.767 C 128.024 160.989, 126.742 159.447, 126.301 159.340 C 125.861 159.233, 123.812 160.415, 121.749 161.966" stroke="none" fill="black" fill-rule="evenodd"/>
</svg>