<svg xmlns="http://www.w3.org/2000/svg" width="200" height="200" viewBox="0 0 200 200" version="1.1">
	<path d="M 54.750 19.584 C 56.726 21.141, 58 23.043, 58 24.436 C 58 26.878, 56.596 27.981, 42.733 36.430 C 34.121 41.678, 26.574 48.537, 22.795 54.550 C 19.905 59.149, 16 69.198, 16 72.038 C 16 75.452, 18.608 74.158, 19.574 70.265 C 20.304 67.319, 21.409 66.030, 24.804 64.160 C 31.934 60.234, 38.735 58.885, 54.411 58.287 C 68.243 57.759, 69.274 57.843, 68.661 59.441 C 68.298 60.388, 68 61.712, 68 62.383 C 68 63.137, 65.143 64.013, 60.507 64.681 C 53.325 65.716, 48 67.979, 48 69.997 C 48 71.717, 53.655 73.917, 60.124 74.716 C 63.619 75.147, 66.372 75.838, 66.240 76.250 C 66.108 76.662, 65.999 78.013, 65.999 79.250 C 65.997 81.440, 65.710 81.502, 55.249 81.559 C 41.178 81.637, 34.519 83.578, 28.483 89.361 C 24.751 92.937, 24 94.278, 24 97.364 C 24 99.402, 24.712 102.156, 25.581 103.483 C 27.917 107.049, 34.874 109.396, 40.571 108.542 L 45.225 107.844 37.988 115.081 C 29.044 124.025, 23.320 132.686, 22.430 138.620 C 21.540 144.553, 23.599 149.762, 30.755 159.677 C 33.860 163.980, 38.480 171.100, 41.022 175.500 L 45.644 183.500 54.072 184.240 C 83.627 186.837, 117.580 178.248, 141.454 162.136 L 145.756 159.232 152.128 163.732 C 160.413 169.583, 170.207 174.242, 172.429 173.389 C 175.838 172.081, 176.084 168.524, 173.441 158.756 C 164.723 126.537, 164.835 127.124, 165.273 116 C 165.646 106.499, 166.076 104.549, 169.785 95.500 C 176.928 78.078, 179.276 68.776, 179.378 57.500 C 179.475 46.702, 177.982 42.100, 172.819 37.284 C 166.988 31.845, 152.173 30.181, 137.599 33.329 C 130.721 34.814, 130.675 34.810, 123.456 31.919 C 119.472 30.323, 112.082 27.913, 107.034 26.562 C 101.986 25.211, 95.822 22.914, 93.336 21.457 C 86.571 17.492, 83.073 16.722, 80.246 18.575 C 78.113 19.972, 76.714 19.971, 65.850 18.561 C 50.585 16.581, 50.903 16.551, 54.750 19.584 M 83.500 21 C 84.600 21.473, 86.175 21.859, 87 21.859 C 87.945 21.859, 87.761 21.542, 86.500 21 C 85.400 20.527, 83.825 20.141, 83 20.141 C 82.055 20.141, 82.239 20.458, 83.500 21 M 60.745 23.447 C 61.442 27.092, 58.725 29.746, 46.791 37.080 C 35.685 43.905, 27.273 51.584, 24.108 57.788 C 22.926 60.105, 22.136 62, 22.353 62 C 22.569 62, 24.889 61.052, 27.509 59.893 C 34.278 56.899, 45.787 55.075, 58.171 55.035 L 68.841 55 69.384 52.250 C 69.683 50.737, 70.683 45.225, 71.605 40 C 72.528 34.775, 73.862 28.848, 74.569 26.829 C 76.095 22.474, 76.123 22.494, 66.793 21.494 L 60.238 20.792 60.745 23.447 M 77.828 25.868 C 76.809 28.467, 73.769 42.626, 72.516 50.611 L 71.871 54.722 81.186 55.900 C 86.309 56.548, 92.075 57.848, 94 58.789 L 97.500 60.500 103.219 54.761 C 108.411 49.552, 108.733 48.984, 106.719 48.603 C 105.499 48.373, 100.450 47.524, 95.500 46.717 C 80.625 44.291, 75.764 41.166, 81.262 37.564 C 83.145 36.330, 93.917 34.055, 103.836 32.796 C 108.455 32.210, 96.385 26.356, 87.180 24.717 L 78.860 23.237 77.828 25.868 M 107 29.551 C 107 29.775, 108.912 30.965, 111.250 32.195 L 115.500 34.431 108 35.237 C 96.553 36.466, 83.789 38.811, 82.719 39.881 C 80.810 41.790, 103.490 46.321, 112.245 45.781 L 117.500 45.456 112.506 44.048 L 107.512 42.640 111.506 40.862 C 113.703 39.884, 117.638 38.530, 120.250 37.853 C 122.862 37.176, 125 36.297, 125 35.900 C 125 35.503, 120.950 33.820, 116 32.160 C 111.050 30.500, 107 29.326, 107 29.551 M 143 35.126 C 134.253 36.546, 134.138 36.738, 139.757 40.522 C 144.999 44.053, 148.525 48.049, 151.382 53.700 C 153.523 57.935, 153.498 68.684, 151.334 74.230 C 148.569 81.316, 140.921 94, 139.412 94 C 137.497 94, 137.569 93.731, 140.947 88.241 C 150.903 72.060, 152.910 61.600, 147.744 52.812 C 144.875 47.931, 138.847 42.441, 133.217 39.582 C 130.152 38.025, 129.539 38.026, 123.967 39.589 C 120.685 40.510, 118 41.622, 118 42.060 C 118 42.498, 120.588 43.426, 123.750 44.121 C 134.592 46.505, 138.781 53.799, 137.593 68.223 C 136.908 76.554, 136.294 79, 134.888 79 C 134.374 79, 134.269 74.741, 134.643 69.032 C 135.179 60.849, 134.985 58.250, 133.557 54.511 C 131.649 49.515, 126.737 45.863, 124.685 47.915 C 124.088 48.512, 121.868 49, 119.750 49 C 114.847 49, 110.941 51.040, 104.743 56.837 C 100.144 61.139, 93.919 71, 95.802 71 C 96.261 71, 99.081 70.287, 102.068 69.415 C 109.627 67.208, 115.544 63.564, 118.405 59.355 L 120.835 55.779 122.335 58.680 C 124.997 63.828, 128.906 77.249, 130.585 87 C 132.834 100.067, 132.095 125.191, 129.136 136.296 C 123.596 157.083, 110.680 171.954, 98.133 171.990 C 95.115 171.999, 94.834 171.767, 95.416 169.750 C 100.989 150.431, 103.248 139.474, 103.732 129.416 C 104.510 113.216, 101.780 106.756, 90.895 99.046 L 85.289 95.075 84.728 104.288 C 84.076 114.995, 83.009 118.327, 78.850 122.639 L 75.823 125.778 77.566 134.139 C 79.614 143.962, 79.929 159.980, 78.175 165.103 C 75.354 173.345, 68.390 175.595, 60.110 170.942 C 56.024 168.645, 55.987 168.575, 56.576 164.061 C 56.904 161.552, 59.063 142.687, 61.375 122.138 C 64.849 91.264, 65.341 84.684, 64.205 84.249 C 63.450 83.959, 58.183 83.959, 52.500 84.249 C 36.840 85.048, 27 90.234, 27 97.689 C 27 106.367, 37.468 108.501, 49.800 102.337 C 57.436 98.520, 57.237 98.581, 56.846 100.182 C 56.655 100.959, 52.203 105.465, 46.951 110.195 C 32.758 122.976, 25 133.773, 25 140.744 C 25 145.537, 27.292 150.346, 33.932 159.486 C 37.153 163.919, 41.417 170.510, 43.408 174.132 L 47.029 180.718 53.161 181.359 C 82.651 184.441, 115.145 176.286, 140.542 159.428 L 145.890 155.878 153.841 161.449 C 162.645 167.619, 170.448 171.459, 172.101 170.437 C 173.512 169.566, 172.711 165.320, 168.382 150.710 C 163.843 135.391, 162 125.534, 162 116.571 C 162 108.831, 163.011 104.831, 167.935 93.096 C 175.812 74.320, 178.931 55.345, 175.581 46.574 C 171.548 36.013, 160.802 32.237, 143 35.126 M 71.667 58.667 C 71.300 59.033, 71 60.158, 71 61.167 C 71 62.713, 71.823 62.999, 76.250 62.991 C 83.406 62.979, 92 61.883, 92 60.982 C 92 60.576, 88.607 59.738, 84.459 59.122 C 75.811 57.835, 72.612 57.722, 71.667 58.667 M 117.500 64.637 C 113.145 68.220, 109.389 70.073, 101.500 72.530 C 94.537 74.698, 94.501 74.728, 94.783 78.069 C 95.332 84.591, 97.736 86.978, 107.940 91.135 C 118.017 95.239, 119.592 96.233, 118.591 97.853 C 117.733 99.241, 108.940 96.630, 102.500 93.074 C 99.750 91.555, 96.037 90.028, 94.250 89.681 C 90.982 89.046, 85.998 90.282, 86.002 91.725 C 86.003 92.151, 88.017 93.772, 90.478 95.327 C 97.234 99.595, 103.735 107.370, 105.490 113.279 C 108.408 123.103, 106.999 138.423, 101.307 158.773 C 99.881 163.874, 98.993 168.326, 99.335 168.668 C 100.883 170.217, 109.199 165.563, 113.712 160.621 C 125.551 147.657, 131.450 123.371, 129.042 97.502 C 127.984 86.129, 124.290 69.314, 121.832 64.679 L 120.500 62.168 117.500 64.637 M 92.498 64.054 C 90.847 64.535, 85.222 65.282, 79.998 65.714 L 70.500 66.500 70.187 69.750 L 69.873 73 76.687 72.926 C 80.434 72.885, 85.436 72.548, 87.803 72.176 C 91.663 71.570, 92.301 71.063, 94.004 67.250 C 95.048 64.912, 95.812 63.041, 95.701 63.090 C 95.590 63.140, 94.149 63.574, 92.498 64.054 M 58.500 67.655 C 57.400 67.888, 55.469 68.299, 54.209 68.568 C 50.859 69.285, 52.378 70.731, 57.255 71.467 C 59.590 71.819, 62.683 72.332, 64.129 72.606 C 66.438 73.045, 66.812 72.734, 67.206 70.053 C 67.636 67.118, 67.515 67.004, 64.077 67.116 C 62.110 67.180, 59.600 67.422, 58.500 67.655 M 75.750 75.742 L 69 76.091 69 79.826 C 69 83.471, 69.176 83.648, 76.250 87.104 C 83.248 90.522, 83.561 90.582, 85.250 88.823 C 86.375 87.651, 88.437 87, 91.026 87 L 95.051 87 93.526 84.050 C 92.687 82.427, 92 79.727, 92 78.050 C 92 74.640, 93.337 74.830, 75.750 75.742 M 66.954 97.525 L 65.680 108.960 68.238 110.972 C 69.644 112.079, 71.629 115.011, 72.648 117.488 C 73.666 119.966, 75.026 121.994, 75.668 121.996 C 76.311 121.998, 77.855 120.352, 79.100 118.338 C 80.981 115.294, 81.439 112.856, 81.807 103.913 L 82.251 93.151 75.240 89.621 L 68.229 86.090 66.954 97.525 M 65.629 113.791 C 65.349 114.244, 64.810 116.952, 64.431 119.807 L 63.742 125 66.621 124.985 C 71.803 124.957, 72.457 123.823, 70.216 118.756 C 68.169 114.128, 66.522 112.346, 65.629 113.791 M 66.453 127.691 L 63.406 128.096 61.278 147.298 C 59.153 166.482, 59.152 166.502, 61.147 168.218 C 62.244 169.163, 64.711 170.230, 66.627 170.590 C 74.006 171.974, 77.801 163.421, 76.609 148.089 C 76.242 143.365, 75.376 136.800, 74.684 133.500 C 73.337 127.077, 72.979 126.824, 66.453 127.691" stroke="none" fill="black" fill-rule="evenodd"/>
</svg>