<svg xmlns="http://www.w3.org/2000/svg" width="200" height="200" viewBox="0 0 200 200" version="1.1">
	<path d="M 157.413 24.777 C 154.615 25.770, 150.115 27.982, 147.413 29.694 C 143.346 32.269, 141.257 32.870, 135.282 33.183 L 128.063 33.562 130.032 31.466 C 131.114 30.314, 132 29.175, 132 28.936 C 132 28.696, 112.200 28.500, 88 28.500 C 55.797 28.500, 44 28.805, 44 29.637 C 44 31.055, 88.182 32.475, 110.857 31.786 L 126.335 31.315 123.804 33.408 C 122.412 34.558, 119.871 36.261, 118.158 37.192 C 114.036 39.429, 111.302 44.126, 110.473 50.392 C 109.988 54.057, 108.398 57.698, 104.846 63.278 C 102.122 67.555, 97.255 76.066, 94.031 82.190 L 88.168 93.325 86.087 89.912 C 83.010 84.868, 82.470 80.302, 84.174 73.750 C 84.996 70.588, 85.396 68, 85.062 68 C 84.728 68, 73.918 73.166, 61.041 79.480 C 41.130 89.242, 25.006 96, 21.624 96 C 21.145 96, 25.539 92.650, 31.387 88.556 C 45.883 78.408, 55.102 70.730, 64.049 61.354 C 72.929 52.048, 82.193 40.090, 81.700 38.570 C 80.655 35.352, 75.491 34.551, 54 34.275 C 25.079 33.905, 26.807 34.018, 30.750 32.753 C 33.862 31.755, 35.352 28.976, 32.750 29.022 C 30.058 29.069, 23 32.986, 23 34.432 C 23 36.707, 25.258 36.922, 52.201 37.224 C 67.479 37.395, 77.296 37.894, 77.934 38.533 C 78.642 39.242, 76.826 42.213, 72.128 48.033 C 59.466 63.714, 44.001 77.084, 20.585 92.595 L 11.669 98.500 16.514 98.812 C 23.970 99.292, 35.092 95.279, 58.821 83.544 C 70.547 77.745, 80.394 73, 80.702 73 C 81.010 73, 80.993 74.653, 80.666 76.674 C 79.855 81.671, 81.593 88.777, 84.585 92.701 L 87.060 95.945 84.600 99.842 C 81.837 104.218, 82.673 106.781, 86.239 104.872 C 87.302 104.303, 88.328 103.995, 88.519 104.186 C 88.711 104.377, 86.614 108.689, 83.860 113.767 L 78.854 123 52.177 123.006 C 23.138 123.012, 17.667 123.694, 18.189 127.247 C 18.693 130.681, 23.015 131.168, 47.077 130.506 C 72.158 129.815, 77.681 130.507, 81.026 134.760 C 83.513 137.922, 83.670 145.957, 81.364 152.124 C 79.087 158.212, 78.978 173.445, 81.181 177.521 C 87.027 188.335, 98.098 190.837, 106.991 183.354 C 110.831 180.123, 112.784 176.411, 113.990 170.052 C 114.762 165.983, 114.570 164.075, 112.907 159.302 C 111.796 156.111, 110.629 150.552, 110.315 146.949 C 109.563 138.331, 111.387 134.601, 117.724 131.798 C 122.042 129.888, 123.915 129.792, 150.238 130.136 L 178.169 130.500 180.085 128.139 C 182.617 125.018, 182.505 123.754, 179.370 120.028 C 172.699 112.099, 157.660 108.707, 149 113.177 C 146.481 114.478, 143.447 117.133, 142.108 119.210 C 140.124 122.288, 138.965 123.033, 135.303 123.582 C 129.128 124.508, 121.590 123.617, 118.506 121.596 C 116.980 120.596, 114.532 116.889, 112.605 112.661 C 108.837 104.392, 106.159 102.161, 98.980 101.311 C 93.356 100.645, 93.246 99, 98.825 99 C 103.969 99, 109.077 96.008, 111.804 91.396 C 113.855 87.928, 114.061 86.538, 113.679 78.737 L 113.250 69.974 119.757 61.347 C 126.800 52.009, 127.269 51.949, 128.345 60.244 C 129.698 70.679, 139.240 83.301, 149.734 88.537 C 154.178 90.754, 156.929 91.424, 161.731 91.457 C 167.426 91.496, 168.235 91.227, 171.140 88.321 C 173.787 85.674, 174.308 84.403, 174.252 80.721 C 174.174 75.570, 170.482 67.636, 166.144 63.298 C 161.788 58.942, 150.530 53.442, 142 51.504 C 128.338 48.399, 128.870 49.286, 136.430 42.214 C 143.797 35.323, 144.646 35.101, 154.500 37.480 C 162.297 39.363, 167.397 39.363, 171.035 37.482 C 175.889 34.972, 176.363 29.102, 171.977 25.830 C 168.275 23.069, 163.251 22.706, 157.413 24.777 M 157.643 27.555 C 155.521 28.333, 152.146 29.989, 150.143 31.235 L 146.500 33.500 151.500 34.265 C 167.781 36.755, 172 36.190, 172 31.522 C 172 26.536, 165.397 24.712, 157.643 27.555 M 126.256 37.029 C 124.291 37.819, 120.014 43.368, 120.004 45.141 C 120.002 45.493, 121.688 45.992, 123.750 46.249 C 127.176 46.676, 127.990 46.254, 133.176 41.358 L 138.852 36 133.676 36.063 C 130.829 36.098, 127.490 36.533, 126.256 37.029 M 116.589 42.077 C 115.165 43.769, 113.994 45.681, 113.986 46.327 C 113.979 46.972, 113.687 48.625, 113.338 50 L 112.704 52.500 115.280 50.144 C 116.696 48.847, 117.630 47.201, 117.355 46.484 C 117.080 45.767, 117.574 43.790, 118.453 42.090 C 120.480 38.171, 119.879 38.167, 116.589 42.077 M 115.901 53.106 C 113.578 55.593, 113 57.120, 113 60.772 C 113 63.281, 113.183 65.146, 113.406 64.917 C 113.629 64.687, 116.074 61.583, 118.840 58.018 C 122.304 53.553, 123.500 51.302, 122.684 50.784 C 120.508 49.400, 118.825 49.976, 115.901 53.106 M 130.572 57.250 C 132.941 76.647, 154.812 94.320, 168.005 87.498 C 172.620 85.111, 172.969 80.411, 169.112 72.575 C 164.502 63.212, 156.018 57.652, 140.756 53.993 C 129.333 51.255, 129.821 51.099, 130.572 57.250 M 105.344 67.700 C 100.931 74.919, 91 93.285, 91 94.226 C 91 94.534, 91.640 95.032, 92.422 95.332 C 93.388 95.702, 95.206 93.571, 98.086 88.689 C 100.419 84.735, 104.078 78.902, 106.218 75.726 C 109.544 70.788, 110.064 69.296, 109.804 65.426 L 109.500 60.900 105.344 67.700 M 104.191 84.009 C 95.888 97.312, 95.856 97.410, 100.085 96.481 C 106.904 94.984, 110.392 90.974, 111.507 83.355 C 111.817 81.235, 111.711 78.249, 111.272 76.721 C 110.508 74.060, 110.208 74.369, 104.191 84.009 M 88.168 99.531 C 87.176 101.709, 87.264 101.838, 89.242 101.106 C 91.875 100.132, 92.584 98.438, 90.667 97.702 C 89.811 97.374, 88.820 98.099, 88.168 99.531 M 86.710 114.236 C 82.730 121.683, 80.595 124.652, 78.870 125.136 C 77.567 125.502, 64.238 125.845, 49.250 125.900 C 33.517 125.958, 22 126.387, 22 126.915 C 22 128.277, 33.756 128.616, 49 127.693 C 71.652 126.322, 80.139 127.899, 83.974 134.190 C 86.578 138.460, 86.552 143.967, 83.881 153.702 C 80.099 167.486, 82.621 179.684, 90.047 183.524 C 98.474 187.882, 108.350 182.046, 110.960 171.167 C 111.999 166.836, 111.887 165.375, 110.068 159.484 C 106.889 149.191, 106.416 142.816, 108.441 137.516 C 110.408 132.365, 113.622 129.717, 119.988 128.003 L 124.458 126.800 120.720 125.514 C 115.278 123.644, 114.030 122.290, 110.383 114.301 C 106.644 106.109, 103.830 104, 96.639 104 L 92.179 104 86.710 114.236 M 149.285 115.967 C 147.517 117.046, 144.942 119.716, 143.562 121.902 C 141.468 125.220, 140.429 125.931, 137.277 126.211 C 131.759 126.701, 163.347 128.223, 170.896 127.832 C 178.930 127.415, 180.736 125.505, 176.967 121.413 C 170.642 114.548, 156.255 111.718, 149.285 115.967" stroke="none" fill="black" fill-rule="evenodd"/>
</svg>