<svg xmlns="http://www.w3.org/2000/svg" width="200" height="200" viewBox="0 0 200 200" version="1.1">
	<path d="M 54.079 14.936 C 49.154 15.266, 45.503 15.971, 45.284 16.635 C 45.078 17.259, 48.868 19.896, 53.705 22.494 C 58.542 25.092, 66.100 29.609, 70.500 32.531 C 78.540 37.871, 87.873 46.461, 86.800 47.534 C 86.483 47.850, 80.515 47.792, 73.537 47.404 C 61.277 46.723, 60.796 46.612, 59.286 44.100 C 51.999 31.980, 44.608 22.506, 43.144 23.411 C 42.479 23.822, 44.385 27.206, 48.109 32.228 C 51.433 36.711, 55.010 42.059, 56.057 44.112 C 57.782 47.492, 57.822 48.113, 56.487 50.673 C 53.500 56.400, 55.447 62.496, 60.056 61.845 C 62.337 61.523, 62.498 61.107, 62.468 55.606 L 62.436 49.712 75.359 50.330 C 82.466 50.670, 88.509 51.176, 88.787 51.454 C 89.065 51.731, 89.845 55.180, 90.520 59.117 C 91.691 65.946, 91.631 66.557, 89.220 72.388 C 87.483 76.587, 86.545 81.063, 86.224 86.690 L 85.755 94.881 81.821 96.455 C 77.684 98.110, 70.675 99.201, 52.500 101.017 C 46.450 101.622, 40.375 102.389, 39 102.722 C 36.641 103.293, 36.709 103.095, 40.193 99.223 C 45.722 93.080, 46.278 86.462, 41.977 78 C 40.998 76.075, 36.587 69.567, 32.175 63.538 C 27.762 57.509, 23.945 51.494, 23.692 50.171 C 22.917 46.113, 27.046 43.417, 36.500 41.812 C 40.167 41.189, 37.964 39.496, 33.855 39.779 C 29.115 40.106, 22.516 43.214, 21.623 45.539 C 20.036 49.675, 21.154 53.002, 26.697 60.645 C 37.442 75.459, 40.916 81.034, 41.569 84.515 C 43.559 95.125, 37.372 101.327, 17.665 108.476 C 14.177 109.742, 13.134 110.534, 13.920 111.320 C 14.706 112.106, 17.306 111.660, 23.255 109.718 C 34.913 105.913, 39.055 105.147, 59.758 102.973 C 72.611 101.623, 79.479 100.439, 82.681 99.023 C 88.200 96.581, 87.659 96.587, 88.279 98.961 C 88.645 100.357, 87.819 101.664, 85.410 103.501 C 80.942 106.909, 79.760 109.238, 80.933 112.324 C 81.850 114.736, 81.744 114.797, 74.683 115.880 C 60.825 118.007, 44.464 119.328, 40.746 118.622 C 38.681 118.229, 36.091 116.941, 34.991 115.759 C 33.753 114.431, 32.644 113.972, 32.086 114.556 C 29.863 116.881, 26.617 137.695, 26.559 150 C 26.505 161.399, 26.720 162.940, 29 167.500 C 31.822 173.144, 36.606 176.414, 43.569 177.458 C 45.909 177.809, 48.074 178.749, 48.380 179.548 C 49.199 181.683, 53.035 181.316, 55.658 178.852 C 57.756 176.880, 59.080 176.695, 71.722 176.602 C 84.026 176.511, 86.022 176.741, 90.377 178.750 C 93.060 179.988, 95.441 181, 95.669 181 C 96.526 181, 102.043 167.621, 103.492 162.029 C 104.322 158.829, 105 153.368, 105 149.893 L 105 143.576 107.989 147.038 C 112.424 152.176, 116.962 161.844, 117.597 167.509 C 117.969 170.827, 117.624 173.977, 116.568 176.906 C 115.694 179.329, 115.115 181.448, 115.281 181.614 C 116.206 182.539, 128.156 185.020, 134.327 185.568 C 148.134 186.794, 162.571 182.126, 171.345 173.599 C 179.950 165.236, 182.858 154.671, 177.984 149.483 C 173.324 144.523, 164.064 146.606, 151.387 155.468 C 141.739 162.213, 142.477 159.554, 155.988 138.895 C 164.507 125.868, 166.103 120.802, 162.087 119.528 C 159.456 118.693, 149.539 122.186, 138.625 127.793 C 133.606 130.371, 129.125 132.648, 128.667 132.851 C 128.209 133.055, 128.483 131.935, 129.277 130.361 C 134.303 120.394, 129.558 112, 118.899 112 C 111.644 112, 118.150 110.213, 129.500 109.088 C 158.417 106.223, 167.762 103.321, 175.658 94.755 C 181.358 88.571, 182.503 84.589, 182.485 71 C 182.472 61.160, 182.140 58.778, 180.181 54.500 C 172.892 38.574, 158.984 35.819, 137.261 45.999 L 128.958 49.890 135.311 42.606 L 141.664 35.321 142.967 26.233 C 144.394 16.272, 144.051 14, 141.118 14 C 138.343 14, 134.181 20.122, 125.847 36.463 L 118.620 50.633 113.060 50.192 C 110.002 49.950, 107.334 49.604, 107.130 49.423 C 106.927 49.242, 108.333 46.935, 110.255 44.297 C 117.705 34.068, 119.732 26.918, 116.491 22.291 C 111.906 15.744, 86.586 12.760, 54.079 14.936 M 54.157 17.654 C 52.207 18.078, 53.532 19.156, 62.077 24.092 C 77.203 32.831, 86.476 40.295, 89.606 46.250 C 90.953 48.813, 91.486 49, 97.453 49 L 103.855 49 108.829 41.564 C 118.828 26.613, 118.003 22.798, 104 19.243 C 98.490 17.844, 59.063 16.587, 54.157 17.654 M 137.152 21.500 C 133.887 26.545, 122 49.295, 122 50.498 C 122 52.419, 125.427 49.644, 131.707 42.639 C 138.434 35.136, 138.811 34.450, 139.987 27.577 C 141.814 16.898, 141.109 15.386, 137.152 21.500 M 146 45.352 C 142.425 46.623, 137.700 48.595, 135.500 49.735 L 131.500 51.809 135 52.366 C 136.925 52.673, 143 53.631, 148.500 54.495 C 166.731 57.361, 174 60.250, 174 64.628 C 174 67.249, 169.230 70.032, 161.410 71.975 C 157.769 72.879, 157.181 73.452, 156.063 77.185 C 154.604 82.055, 145.624 91.547, 137.013 97.321 C 131.485 101.028, 127 102.097, 127 99.708 C 127 98.393, 132.677 92.632, 139 87.531 C 141.201 85.755, 141.758 84.933, 140.500 85.316 C 129.413 88.693, 119.641 91.893, 110.151 95.256 C 100.622 98.633, 98.500 99.773, 96.926 102.362 C 95.053 105.442, 95.053 105.446, 97.559 108.062 C 100.050 110.662, 100.110 110.671, 106.783 109.414 C 110.477 108.719, 121.836 107.216, 132.023 106.075 C 164.928 102.388, 174.517 97.900, 178.620 84.269 C 180.368 78.459, 180.334 62.683, 178.563 57.718 C 176.530 52.020, 172.955 47.343, 168.881 45.053 C 163.809 42.203, 154.521 42.324, 146 45.352 M 58.734 51.600 C 57.638 52.696, 57.848 58.788, 59.007 59.504 C 59.561 59.847, 60.263 59.478, 60.567 58.685 C 61.287 56.810, 59.691 50.642, 58.734 51.600 M 92.538 54.730 C 93.841 62.445, 93.909 62.481, 97.552 57.356 C 99.412 54.740, 100.836 52.528, 100.717 52.439 C 100.598 52.351, 98.565 51.982, 96.201 51.620 L 91.902 50.961 92.538 54.730 M 99.917 58.733 C 95.546 65.178, 95.494 65.358, 94.884 75.900 C 94.416 83.999, 93.745 87.580, 92.085 90.834 C 89.061 96.761, 90.591 100.813, 94.837 98.122 C 96.048 97.354, 117.355 53.951, 116.755 53.473 C 116.615 53.362, 113.763 53.034, 110.417 52.745 L 104.335 52.220 99.917 58.733 M 111.842 70.750 C 107.413 79.963, 102.982 89.343, 101.996 91.596 L 100.203 95.693 123.711 87.846 C 136.640 83.531, 147.807 80, 148.526 80 C 149.245 80, 149.999 80.498, 150.202 81.106 C 150.405 81.714, 151.435 80.607, 152.492 78.646 C 153.548 76.684, 154.139 74.806, 153.805 74.472 C 153.471 74.138, 147.714 74.393, 141.013 75.039 C 127.465 76.346, 116.791 75.649, 114.446 73.303 C 112.344 71.201, 112.959 69.992, 117.910 66.504 C 122.063 63.577, 122.433 63.509, 133.831 63.574 C 145.510 63.640, 150.253 64.820, 156.061 69.101 C 157.824 70.400, 166.952 68.221, 170.440 65.668 C 172.311 64.300, 172.273 64.193, 169.396 62.705 C 164.771 60.313, 155.211 58.110, 140.218 55.980 C 118.102 52.838, 121.237 51.206, 111.842 70.750 M 120.250 68.090 C 117.912 69.263, 116 70.594, 116 71.050 C 116 73.329, 142.342 73.415, 150.500 71.163 L 153.500 70.335 150.025 68.526 C 147.467 67.193, 143.643 66.616, 135.525 66.337 C 125.809 66.004, 123.995 66.212, 120.250 68.090 M 90.250 77.616 C 89.563 79.880, 89.037 83.705, 89.082 86.116 L 89.163 90.500 90.630 87.138 C 91.479 85.193, 91.971 81.612, 91.798 78.638 L 91.500 73.500 90.250 77.616 M 140.750 89.579 C 133.087 95.853, 131.814 97.694, 138.421 92.949 C 142.491 90.027, 148.956 83.965, 147.937 84.027 C 147.697 84.041, 144.463 86.540, 140.750 89.579 M 85.740 106.540 C 82.753 109.310, 82.349 110.949, 84.200 112.800 C 86.296 114.896, 87.901 114.114, 90.017 109.966 C 93.162 103.802, 90.764 101.882, 85.740 106.540 M 92.607 110.582 C 91.712 112.915, 91.778 113, 94.500 113 C 97.230 113, 97.664 112.064, 95.800 110.200 C 94.187 108.587, 93.333 108.689, 92.607 110.582 M 104.500 114.504 C 103.950 114.694, 100.463 115.145, 96.750 115.505 C 93.037 115.865, 90 116.593, 90 117.123 C 90 117.654, 92.293 120.843, 95.096 124.211 C 97.899 127.579, 100.932 131.947, 101.836 133.917 C 102.740 135.888, 105.922 140.425, 108.907 144 C 118.378 155.343, 122.046 166.527, 119.628 176.685 C 118.903 179.729, 119.039 179.920, 122.685 180.995 C 129.917 183.127, 142.164 183.387, 150.282 181.581 C 166.233 178.032, 179.490 164.754, 177.527 154.293 C 175.996 146.129, 164.941 148.227, 150.553 159.412 C 147.282 161.955, 144.132 163.880, 143.553 163.691 C 141.571 163.042, 141.859 157.197, 144.087 152.824 C 145.299 150.446, 148.860 144.675, 152 140 C 158.205 130.762, 162.413 123.079, 161.672 122.339 C 160.345 121.012, 152.041 124.069, 139.137 130.634 C 131.220 134.663, 124.374 137.731, 123.925 137.454 C 123.476 137.176, 124.434 134.148, 126.054 130.725 C 127.673 127.301, 128.999 123.487, 128.999 122.250 C 129.001 117.175, 122.101 113.955, 111.500 114.085 C 108.200 114.125, 105.050 114.314, 104.500 114.504 M 75.320 118.379 C 67.738 119.563, 64.678 120.978, 69.583 121.033 C 71.188 121.051, 74.883 121.888, 77.796 122.894 L 83.092 124.724 84.587 121.832 C 86.133 118.843, 85.764 116.904, 83.691 117.129 C 83.036 117.201, 79.269 117.763, 75.320 118.379 M 31.385 128.195 C 30.112 134.477, 29.500 141.723, 29.500 150.500 C 29.500 161.774, 29.770 163.960, 31.535 166.965 C 33.859 170.921, 37.893 173.555, 43.079 174.504 L 46.658 175.158 48.025 163.329 C 48.777 156.823, 49.260 151.050, 49.098 150.500 C 48.936 149.950, 48.564 146.097, 48.272 141.938 C 47.619 132.655, 49.956 126.245, 55.182 122.981 L 58.500 120.909 51.500 121.538 C 45.181 122.105, 39.337 121.410, 34.885 119.560 C 33.533 118.999, 32.962 120.407, 31.385 128.195 M 86.802 123.534 C 85.763 125.817, 85.764 126.421, 86.808 126.769 C 87.514 127.005, 90.367 128.728, 93.147 130.599 C 95.927 132.469, 98.409 134, 98.663 134 C 99.418 134, 92.918 125.272, 90.404 122.910 L 88.081 120.728 86.802 123.534 M 59.035 124.250 C 57.073 124.958, 54.547 127.019, 53.214 129 C 50.999 132.290, 50.877 133.250, 51.179 145 C 51.356 151.875, 51.101 161.438, 50.612 166.250 L 49.725 175 52.628 175 C 55.178 175, 56.157 174.001, 60.702 166.750 C 63.546 162.213, 69.515 151.459, 73.965 142.854 L 82.057 127.207 77.296 125.585 C 70.649 123.320, 63.137 122.771, 59.035 124.250 M 75.551 145.602 C 70.810 154.734, 65.371 164.642, 63.465 167.622 C 61.559 170.601, 60 173.239, 60 173.484 C 60 173.728, 65.513 173.888, 72.250 173.838 C 81.414 173.771, 85.727 174.178, 89.370 175.454 C 92.048 176.393, 94.579 176.787, 94.995 176.330 C 95.410 175.874, 96.907 172.558, 98.322 168.962 C 103.214 156.525, 103.733 141.894, 99.404 138.417 C 96.054 135.725, 85.717 129, 84.931 129 C 84.513 129, 80.292 136.471, 75.551 145.602" stroke="none" fill="black" fill-rule="evenodd"/>
</svg>