<svg xmlns="http://www.w3.org/2000/svg" width="200" height="200" viewBox="0 0 200 200" version="1.1">
	<path d="M 137 17.070 C 126.428 19.771, 123.885 20.029, 105.500 20.262 C 82.395 20.555, 78.719 21.447, 77.249 27.120 C 76.051 31.742, 73.360 32.179, 53.500 30.974 C 34.228 29.804, 29.466 29.018, 21.132 25.632 L 15.239 23.237 15.457 85.869 C 15.687 151.738, 15.855 154.321, 20.229 159.015 C 24.153 163.227, 27.851 160.261, 39.071 143.897 C 43.492 137.448, 47.775 131.917, 48.587 131.605 C 50.811 130.751, 52 135.033, 52 143.898 C 52 148.171, 52.231 151.898, 52.514 152.181 C 52.797 152.463, 55.384 151.542, 58.264 150.134 C 63.039 147.798, 64.952 147.524, 80 147.014 C 99.109 146.367, 101.581 145.595, 111.815 137.076 C 119.448 130.722, 134.387 112.987, 133.149 111.749 C 132.646 111.246, 130.209 112.180, 127.440 113.936 C 115.672 121.399, 111.137 115.403, 108.958 89.500 C 108.449 83.450, 108.025 76.499, 108.016 74.054 L 108 69.608 110.887 74.160 C 115.415 81.301, 123.733 84.567, 130.685 81.933 C 137.408 79.386, 140.289 73.244, 138.134 66.053 C 136.855 61.785, 128.880 53.721, 122.292 50.034 C 119.781 48.629, 117.698 46.573, 117.128 44.938 C 116.603 43.430, 114.538 40.388, 112.541 38.177 C 108.278 33.458, 102.139 31.042, 94.072 30.907 C 88.976 30.822, 89.782 30.518, 103.500 27.357 C 118.612 23.874, 126.420 23.251, 137.848 24.616 L 143.196 25.255 142.689 58.877 C 142.142 95.215, 141.611 99.931, 135.982 118.480 C 134.310 123.991, 131.725 130.975, 130.237 134 C 127.150 140.280, 113.463 154.515, 97.191 168.368 C 83.825 179.748, 84.204 182.179, 98.674 177.884 C 105.341 175.904, 107.605 174.547, 116.409 167.252 C 121.959 162.652, 129.295 157.510, 132.712 155.826 C 142.192 151.151, 144.174 151.859, 156.563 164.340 C 165.351 173.193, 173.540 179.422, 179.150 181.520 C 182.954 182.943, 182.235 167.010, 177.986 155.726 C 176.904 152.852, 172.871 145.588, 169.023 139.584 C 165.176 133.580, 161.743 127.147, 161.394 125.288 C 159.735 116.441, 162.782 106.194, 170.553 94.486 C 174.160 89.051, 174.204 88.869, 173.002 84.227 C 169.543 70.871, 171.199 43.895, 176.504 27.192 C 177.822 23.042, 178.657 19.254, 178.361 18.775 C 177.544 17.453, 175.278 19.755, 174.553 22.644 C 173.990 24.890, 173.515 25.138, 170.705 24.660 C 168.942 24.359, 163.450 23.828, 158.500 23.478 C 147.274 22.686, 146 22.328, 146 19.961 C 146 18.684, 146.990 17.801, 149.005 17.279 C 152.501 16.373, 153.404 14.583, 150.500 14.316 C 149.400 14.214, 143.325 15.454, 137 17.070 M 138 19.721 C 133.273 20.569, 133.461 22, 138.300 22 C 141.811 22, 143 21.621, 143 20.500 C 143 18.984, 142.521 18.910, 138 19.721 M 85.413 23.943 C 81.177 24.955, 80 25.816, 80 27.902 C 80 29.560, 80.939 29.483, 93.250 26.820 C 100.537 25.243, 106.950 23.774, 107.500 23.556 C 109.329 22.828, 88.553 23.192, 85.413 23.943 M 145.911 25.639 C 145.861 26.112, 145.883 37.975, 145.959 52 C 146.151 87.484, 144.725 99.356, 137.528 122.209 C 132.077 139.517, 126.514 146.789, 104.202 165.773 C 97.438 171.528, 92.072 176.405, 92.278 176.611 C 93.058 177.391, 105.614 172.648, 108.139 170.620 C 109.590 169.454, 114.257 165.667, 118.511 162.205 C 132.433 150.873, 140.799 148.240, 148.252 152.847 C 150.192 154.046, 154.376 157.985, 157.550 161.600 C 162.850 167.637, 175.963 178, 178.302 178 C 179.649 178, 178.513 165.858, 176.563 159.422 C 175.717 156.630, 172.476 150.330, 169.361 145.422 C 158.452 128.238, 158.500 128.352, 158.500 119.500 C 158.500 112.554, 158.927 110.599, 161.739 104.662 C 163.520 100.900, 166.376 95.751, 168.085 93.219 L 171.192 88.616 169.846 82.558 C 167.777 73.244, 168.277 50.657, 170.820 38.581 C 171.969 33.126, 172.717 28.351, 172.482 27.970 C 172.246 27.589, 167.654 26.972, 162.277 26.598 C 156.900 26.224, 151.037 25.662, 149.250 25.348 C 147.463 25.034, 145.960 25.165, 145.911 25.639 M 18.250 88.750 C 18.596 151.232, 18.914 156.262, 22.613 157.682 C 24.822 158.529, 28.447 154.674, 36.034 143.411 C 42.816 133.342, 48.249 127.604, 50.376 128.268 C 52.785 129.020, 54.997 135.523, 54.998 141.857 C 55 147.165, 55.254 148.117, 56.537 147.624 C 64.010 144.757, 69.415 144.017, 81.501 144.210 C 93.816 144.406, 94.796 144.274, 100.115 141.700 C 105.957 138.873, 116.676 129.722, 121.959 123.052 L 125.019 119.188 121.211 119.699 C 115.602 120.451, 111.669 116.787, 108.845 108.176 C 106.863 102.135, 106.615 98.909, 106.233 74.250 C 105.861 50.259, 105.994 47, 107.342 47 C 108.509 47, 108.752 47.774, 108.361 50.250 C 107.632 54.863, 109.547 65.433, 112.047 70.597 C 114.746 76.172, 118.994 79.197, 124.923 79.767 C 128.901 80.149, 130.064 79.817, 132.795 77.519 C 135.444 75.290, 136 74.109, 136 70.715 C 136 64.914, 132.150 59.870, 123.277 54.045 C 117.446 50.217, 115.399 48.193, 113.471 44.353 C 112.070 41.564, 109.462 38.437, 107.337 37 C 104.020 34.758, 102.636 34.500, 93.902 34.500 C 88.547 34.500, 83.820 34.846, 83.398 35.268 C 82.976 35.690, 84.075 39.065, 85.839 42.768 C 91.628 54.914, 91.797 63.546, 86.453 74.093 C 82.713 81.473, 81.147 79.075, 84.710 71.425 C 88.834 62.569, 88.554 54.805, 83.745 44.679 C 80.016 36.826, 79.311 36.228, 75.922 38.042 C 74.385 38.864, 74.188 39.483, 74.987 40.976 C 76.512 43.825, 76.200 56.371, 74.352 66.500 C 72.191 78.346, 72.206 100.098, 74.382 109.290 C 76.304 117.405, 78.783 122.617, 80.098 121.302 C 81.468 119.932, 83.961 107.261, 83.994 101.500 C 84.031 94.926, 85.044 89, 86.131 89 C 88.499 89, 85.911 116.561, 83.039 121.927 C 81.225 125.317, 77.108 124.341, 74.906 120 C 70.218 110.761, 68.456 84.291, 71.411 67.500 C 73.435 55.996, 73.763 43.752, 72.116 41.154 C 71.153 39.635, 66.645 42.092, 57.201 49.283 L 51.903 53.318 52.529 68.909 C 53.123 83.685, 51.864 113.470, 50.592 114.742 C 49.294 116.040, 48.669 113.716, 48.885 108.389 C 49.103 102.989, 48.969 102.665, 45.144 99.391 C 33.580 89.493, 33.139 72.860, 44.073 59.027 C 48.331 53.640, 48.829 50.921, 46.555 45.477 L 45.110 42.019 38.919 42.666 C 33.853 43.196, 32.811 43.058, 33.178 41.907 C 33.454 41.044, 38.441 39.299, 46.064 37.397 C 58.145 34.382, 58.371 34.276, 54 33.692 C 51.525 33.361, 45.427 32.880, 40.450 32.623 C 35.113 32.348, 28.868 31.303, 25.231 30.078 C 21.839 28.935, 18.804 28, 18.488 28 C 18.172 28, 18.065 55.337, 18.250 88.750 M 85.813 31.683 C 86.534 31.972, 87.397 31.936, 87.729 31.604 C 88.061 31.272, 87.471 31.036, 86.417 31.079 C 85.252 31.127, 85.015 31.364, 85.813 31.683 M 73.733 33.718 C 72.211 33.948, 71.225 34.555, 71.542 35.068 C 72.378 36.421, 74.337 36.212, 76.559 34.532 C 77.626 33.724, 78.050 33.117, 77.500 33.182 C 76.950 33.247, 75.255 33.488, 73.733 33.718 M 58.500 37.197 C 45.829 40.336, 46.839 39.780, 48.355 42.790 C 49.105 44.280, 50.032 46.802, 50.415 48.393 L 51.110 51.286 54.305 48.239 C 56.062 46.564, 60.316 43.428, 63.759 41.272 C 67.201 39.115, 69.713 37.047, 69.342 36.675 C 68.421 35.754, 63.339 35.999, 58.500 37.197 M 45.764 61.065 C 41.295 66.925, 39.046 73.001, 39.022 79.282 C 38.996 86.127, 40.554 90.283, 45.074 95.431 C 48.024 98.791, 48.480 99.008, 49.129 97.358 C 50.050 95.015, 50.038 63.351, 49.114 60.037 L 48.427 57.573 45.764 61.065" stroke="none" fill="black" fill-rule="evenodd"/>
</svg>