<svg xmlns="http://www.w3.org/2000/svg" width="200" height="200" viewBox="0 0 200 200" version="1.1">
	<path d="M 57.323 25.601 C 56.985 26.481, 57.249 27.536, 57.910 27.944 C 58.571 28.353, 53.711 28.977, 47.111 29.332 C 32.401 30.123, 23.668 32.684, 18.899 37.604 L 15.622 40.985 15.250 77.243 C 14.672 133.688, 17.381 153.648, 26.607 160.905 C 31.592 164.827, 36.769 163.158, 46.099 154.622 C 49.178 151.805, 53.539 148.035, 55.789 146.243 C 69.165 135.599, 73.925 103.015, 68.389 60 C 67.575 53.675, 66.638 47.417, 66.307 46.094 C 65.718 43.741, 65.811 43.702, 70.499 44.345 C 73.136 44.706, 77.048 45.474, 79.193 46.052 L 83.092 47.102 80.493 50.191 C 78.853 52.140, 78.006 54.213, 78.197 55.812 C 78.470 58.095, 79.190 58.480, 85.500 59.723 C 95.400 61.672, 101.417 64.786, 101.808 68.162 C 102.057 70.313, 100.571 72.463, 94.058 79.378 C 85.973 87.962, 85.034 89.634, 87.131 91.731 C 87.972 92.572, 86.626 93.609, 81.881 95.780 C 78.371 97.385, 74.619 99.692, 73.542 100.907 C 69.283 105.714, 74.715 108.032, 95.182 110.141 C 105.037 111.157, 107.024 111.636, 106.776 112.934 C 106.551 114.109, 104.981 114.568, 100.488 114.774 C 87.159 115.385, 77.893 120.740, 73.374 130.444 C 67.196 143.711, 74.100 161.276, 88.460 168.830 C 92.853 171.141, 94.687 171.483, 102.750 171.491 L 112 171.500 112 174.250 L 112 177 93.559 177 C 83.416 177, 74.871 177.399, 74.570 177.887 C 73.345 179.869, 77.220 180.970, 89.052 182.002 C 105.308 183.420, 163.305 184.491, 173.257 183.556 L 181.014 182.828 178.813 179.738 C 177.603 178.038, 172.424 172.284, 167.306 166.951 L 157.999 157.254 160.449 152.871 C 164.296 145.987, 166.002 137.722, 165.985 126.040 C 165.970 115.330, 164.234 105.286, 161.474 99.950 C 159.418 95.973, 156.198 96.015, 154.680 100.038 L 153.533 103.076 146.027 102.788 C 134.581 102.349, 134.901 101.537, 153.792 83.105 C 169.232 68.041, 172.962 63.225, 174.395 56.500 C 175.307 52.221, 172.954 48.714, 162.857 39.305 C 145.059 22.721, 131.687 20.769, 120.573 33.130 L 116.089 38.117 108.045 36.388 C 103.532 35.418, 100 34.144, 100 33.485 C 100 29.007, 89.037 26.052, 72.309 26.021 C 65.951 26.009, 60.851 25.568, 60.500 25 C 59.573 23.500, 58.016 23.795, 57.323 25.601 M 62.415 28.862 C 62.802 29.488, 64.894 30, 67.066 30 C 70.682 30, 87.313 32.187, 94.500 33.608 C 97.215 34.145, 97.356 34.051, 95.982 32.619 C 94.026 30.578, 87.298 29.352, 73.106 28.449 C 64.684 27.913, 61.895 28.021, 62.415 28.862 M 128.425 30.019 C 124.038 32.190, 119.255 37.700, 120.648 38.977 C 121.116 39.407, 123.300 40.324, 125.500 41.015 C 132.657 43.262, 137.154 45.970, 136.775 47.803 C 136.319 50.006, 135.133 49.835, 125.279 46.148 L 117.058 43.072 114.989 49.772 C 113.850 53.458, 113.275 56.609, 113.709 56.775 C 114.144 56.941, 118.550 59.197, 123.500 61.789 L 132.500 66.500 132.801 71.726 C 133.082 76.584, 133.237 76.869, 135.006 75.764 C 136.053 75.111, 137.196 74.862, 137.546 75.212 C 138.645 76.311, 136.981 79.871, 135.087 80.472 C 133.557 80.958, 123.309 93.929, 115.113 105.754 C 112.582 109.407, 112.259 109.143, 121.500 110.977 C 132.913 113.241, 139.146 117.813, 137.575 122.765 C 136.950 124.732, 136.781 124.718, 128.219 121.974 C 123.424 120.437, 117.362 118.863, 114.750 118.476 L 110 117.773 110 123.386 C 110 126.669, 110.440 129, 111.058 129 C 111.641 129, 115.213 128.520, 118.998 127.932 C 131.029 126.066, 133.428 129.846, 124.930 137.280 L 119.860 141.715 126.376 142.238 C 133.398 142.802, 142.457 146.466, 150.488 151.992 C 152.979 153.705, 155.469 154.828, 156.023 154.486 C 158.901 152.707, 162.215 142.421, 163.430 131.500 C 164.434 122.467, 160.661 100, 158.139 100 C 157.754 100, 156.911 101.397, 156.267 103.105 L 155.095 106.209 146.583 105.855 C 140.328 105.594, 137.629 105.058, 136.406 103.835 C 133.131 100.560, 135.450 97.171, 152.030 81 C 168.812 64.632, 172.917 58.790, 171.527 53.253 C 170.833 50.485, 159.026 38.601, 152.500 34.101 C 143.489 27.887, 135.476 26.529, 128.425 30.019 M 34.389 33.488 C 26.648 35.172, 20.768 38.154, 19.262 41.159 C 17.674 44.329, 18.138 128.939, 19.791 137.395 C 23.529 156.531, 28.467 162.945, 36.316 158.864 C 37.517 158.240, 41.019 155.427, 44.099 152.614 C 47.178 149.801, 51.547 146.027, 53.808 144.227 C 58.807 140.248, 63.056 131.736, 65.652 120.500 C 69.011 105.961, 67.597 59.750, 63.363 45.665 C 62.200 41.798, 52.319 46.808, 49.356 52.766 C 47.639 56.221, 47.523 59.020, 47.803 90.250 C 48.065 119.488, 47.908 124, 46.628 124 C 45.374 124, 45.133 120.714, 45.032 102.250 C 44.967 90.287, 44.529 78.925, 44.059 77 L 43.205 73.500 43.089 77 C 42.884 83.204, 40.127 115.363, 39.425 119.750 C 38.987 122.486, 38.227 124, 37.293 124 C 36.248 124, 35.989 123.229, 36.368 121.250 C 37.215 116.826, 37.912 109.722, 39.506 89.289 C 41.106 68.779, 42.168 62.151, 45.005 55 C 45.986 52.525, 47.378 48.949, 48.097 47.054 C 49.731 42.749, 54.391 37.366, 58.181 35.406 C 59.767 34.586, 60.799 33.484, 60.474 32.957 C 59.614 31.566, 41.536 31.934, 34.389 33.488 M 68.717 34.892 C 66.636 35.226, 64.949 35.837, 64.967 36.250 C 64.985 36.663, 65 37.848, 65 38.885 C 65 40.424, 66.029 40.898, 70.605 41.470 C 73.688 41.855, 78.446 42.834, 81.178 43.646 L 86.146 45.121 90.677 41.408 C 96.088 36.974, 95.758 36.659, 84.091 35.114 C 75.216 33.938, 74.696 33.931, 68.717 34.892 M 55.711 41.034 L 51.500 45.068 55 43.607 C 56.925 42.803, 59.288 41.902, 60.250 41.604 C 62.104 41.030, 62.727 37, 60.961 37 C 60.390 37, 58.027 38.815, 55.711 41.034 M 94.101 42.032 C 91.682 44.234, 89.882 46.167, 90.101 46.327 C 90.414 46.555, 99.749 50.536, 109.575 54.632 C 110.406 54.978, 114 45.159, 114 42.543 C 114 42.067, 105.985 39.609, 101 38.556 C 99.069 38.148, 97.499 38.939, 94.101 42.032 M 83.011 51.641 C 81.287 53.604, 80.027 55.360, 80.211 55.544 C 80.395 55.728, 83.748 56.546, 87.662 57.362 C 100.975 60.138, 106.508 64.903, 104.019 71.449 C 103.430 72.999, 99.764 77.550, 95.872 81.564 C 89.273 88.369, 88.071 91, 91.559 91 C 92.352 91, 92.994 91.787, 92.988 92.750 C 92.979 93.999, 90.851 95.316, 85.550 97.352 C 81.467 98.920, 77.393 101.013, 76.497 102.003 C 74.968 103.693, 75.071 103.865, 78.185 104.843 C 81.944 106.023, 97.595 107.993, 103.250 107.997 L 107 108 107 93.724 C 107 80.964, 108.088 66.607, 109.539 60.208 C 109.992 58.213, 109.310 57.582, 104.280 55.339 C 101.101 53.922, 95.720 51.707, 92.322 50.417 L 86.144 48.072 83.011 51.641 M 111.599 64.250 C 109.600 77.775, 108.320 108.030, 109.750 107.967 C 110.162 107.949, 112.917 104.371, 115.872 100.016 C 118.826 95.661, 123.362 89.469, 125.951 86.256 C 130.628 80.451, 130.655 80.376, 130.205 74.156 L 129.752 67.898 121.898 63.949 C 117.579 61.777, 113.636 60, 113.136 60 C 112.636 60, 111.944 61.913, 111.599 64.250 M 110.718 112.616 C 109.183 114.150, 110.221 114.783, 116.197 115.959 C 119.606 116.630, 125.099 118.020, 128.404 119.049 C 131.710 120.077, 134.576 120.758, 134.773 120.560 C 134.971 120.363, 134.172 119.307, 132.999 118.213 C 129.865 115.294, 112.422 110.911, 110.718 112.616 M 94.344 118.041 C 85.209 119.849, 77.454 126.063, 74.981 133.559 C 73.327 138.568, 74.231 148.583, 76.782 153.529 C 79.506 158.810, 85.465 164.423, 91 166.923 C 96.366 169.347, 109.725 169.880, 110.560 167.704 C 111.109 166.274, 109.495 150.162, 108.727 149.393 C 108.462 149.129, 105.615 150.497, 102.400 152.434 C 98.477 154.797, 96.224 155.624, 95.548 154.948 C 94.353 153.753, 98.353 150.233, 104.812 146.795 C 108.687 144.732, 109.066 144.209, 108.562 141.625 C 108.253 140.044, 108 137.400, 108 135.750 C 108 132.888, 107.851 132.782, 104.750 133.452 C 92.691 136.059, 91.983 135.489, 97.335 127.487 C 99.170 124.744, 101.472 121.263, 102.450 119.750 L 104.230 117 101.365 117.110 C 99.789 117.170, 96.630 117.589, 94.344 118.041 M 102.180 124.682 C 99.803 128.263, 98.061 131.395, 98.308 131.641 C 98.555 131.888, 100.799 131.576, 103.296 130.947 L 107.835 129.804 107.280 124.152 C 106.974 121.043, 106.674 118.426, 106.612 118.335 C 106.550 118.245, 104.556 121.101, 102.180 124.682 M 119.500 130.497 C 118.950 130.684, 116.813 131.118, 114.750 131.463 L 111 132.091 111 137.545 C 111 140.545, 111.382 143, 111.850 143 C 113.930 143, 127 132.486, 127 130.813 C 127 130.030, 121.554 129.801, 119.500 130.497 M 116.739 144.931 C 114.670 145.348, 112.693 145.973, 112.346 146.321 C 111.674 146.993, 113.566 165.900, 114.388 166.721 C 114.654 166.987, 117.367 166.063, 120.418 164.666 C 125.461 162.357, 126.770 162.180, 134.874 162.705 C 142.756 163.215, 144.318 163.025, 148.393 161.052 C 150.927 159.825, 153 158.402, 153 157.889 C 153 156.461, 141.433 149.304, 135.646 147.151 C 129.352 144.810, 121.761 143.918, 116.739 144.931 M 151 162.789 C 146.867 165.279, 145.645 165.500, 136 165.500 C 127.196 165.500, 124.597 165.883, 119.908 167.868 L 114.316 170.237 114.778 175.040 C 115.225 179.696, 115.151 179.857, 112.370 180.272 C 110.791 180.508, 124.532 180.768, 142.905 180.850 L 176.310 181 174.446 178.750 C 171.292 174.943, 156.576 159.998, 156.022 160.039 C 155.735 160.060, 153.475 161.298, 151 162.789 M 98.750 179.662 C 99.438 179.940, 100.563 179.940, 101.250 179.662 C 101.938 179.385, 101.375 179.158, 100 179.158 C 98.625 179.158, 98.063 179.385, 98.750 179.662" stroke="none" fill="black" fill-rule="evenodd"/>
</svg>