<svg xmlns="http://www.w3.org/2000/svg" width="200" height="200" viewBox="0 0 200 200" version="1.1">
	<path d="M 30.809 47.250 C 31.330 72.180, 29.552 125.757, 27.888 135.310 C 27.331 138.506, 25.082 147.664, 22.889 155.661 C 17.674 174.681, 16.972 178.579, 18.408 180.543 C 20.264 183.081, 22.654 181.350, 30.675 171.658 C 39.787 160.650, 42.335 155.695, 48.501 137 C 51.131 129.025, 54.754 119.575, 56.553 116 C 62.024 105.125, 70.091 99, 78.942 99 C 82.355 99, 83.172 98.569, 84.454 96.088 C 86.496 92.141, 90.701 89, 93.945 89 C 97.224 89, 101.767 93.259, 107.272 101.495 C 109.480 104.798, 112.146 108.455, 113.197 109.622 C 115.017 111.643, 115.023 111.777, 113.315 112.433 C 112.329 112.811, 106.567 113.582, 100.511 114.147 C 86.168 115.483, 75.756 117.458, 71.239 119.699 C 62.947 123.813, 66.844 125.902, 84.268 126.682 C 99.797 127.378, 131 126.184, 131 124.894 C 131 124.394, 118.997 123.948, 103.750 123.882 C 88.762 123.817, 75.150 123.466, 73.500 123.103 C 70.717 122.491, 70.966 122.311, 76.931 120.619 C 80.468 119.616, 89.243 118.200, 96.431 117.474 C 103.619 116.747, 111.667 115.660, 114.316 115.057 C 119.807 113.808, 129.317 109.237, 133.601 105.787 C 140.916 99.897, 140.399 99.897, 139.621 105.779 C 138.933 110.986, 138.956 111.049, 141.327 110.454 C 143.263 109.968, 144.341 110.590, 146.858 113.644 C 151.405 119.160, 153.442 126.039, 153.330 135.500 C 153.214 145.191, 151.289 150.911, 143.785 163.853 C 135.342 178.415, 130.176 182.616, 124.201 179.780 C 118.121 176.894, 116.134 165.061, 119.997 154.739 C 121.686 150.223, 125.544 143.555, 129.465 138.371 C 129.995 137.670, 130.110 136.777, 129.721 136.387 C 127.656 134.323, 119.133 147.213, 116.469 156.428 C 110.601 176.722, 124.371 191.249, 137.157 178.253 C 141.854 173.479, 152.312 155.174, 154.402 148.068 C 156.409 141.247, 156.461 128.914, 154.510 122.345 C 152.751 116.422, 147.909 109.371, 144.550 107.841 C 142.511 106.912, 142.238 106.229, 142.668 103.127 C 143.526 96.931, 143.802 96.510, 145.807 98.326 C 154.835 106.495, 172.811 102.917, 178.595 91.800 C 182.929 83.469, 177.520 76.730, 164.750 74.550 C 162.688 74.197, 161 73.706, 161 73.457 C 161 73.208, 163.185 69.066, 165.855 64.252 C 168.525 59.439, 173.088 50.325, 175.995 44 C 178.901 37.675, 181.667 32.073, 182.140 31.550 C 183.444 30.110, 183.169 27, 181.737 27 C 181.043 27, 180.030 28.012, 179.487 29.250 C 178.158 32.279, 173.394 33.670, 161.450 34.517 L 151.477 35.224 150.488 31.862 C 149.233 27.591, 147.144 27.257, 138.461 29.939 C 130.785 32.310, 121.304 32.555, 115.621 30.530 C 112.731 29.500, 110.314 29.379, 106.145 30.058 C 99.516 31.137, 85.081 30.016, 60.042 26.477 C 50.402 25.115, 39.772 24, 36.419 24 L 30.324 24 30.809 47.250 M 33.344 48.134 C 33.741 61.451, 33.540 79.805, 32.845 93.500 C 32.204 106.150, 31.770 119.200, 31.881 122.500 C 32.131 129.938, 30.205 140.126, 25.095 158.388 C 22.923 166.149, 20.830 174.066, 20.443 175.980 C 19.788 179.221, 19.861 179.360, 21.500 178 C 25.498 174.682, 36.448 160.085, 39.129 154.500 C 40.713 151.200, 43.848 142.679, 46.094 135.564 C 51.190 119.425, 54.871 111.564, 60.134 105.585 C 64.988 100.070, 70.355 97.101, 76.858 96.330 C 80.819 95.861, 81.934 95.231, 83.778 92.417 C 86.676 87.997, 91.293 85.645, 95.518 86.437 C 99.234 87.135, 104.359 92.230, 110.679 101.512 C 116.233 109.668, 118.514 111.648, 120.478 110.018 C 122.057 108.708, 126 97.194, 126 93.895 C 126 92.853, 125.397 92, 124.660 92 C 121.387 92, 110.995 85.728, 109.048 82.578 C 104.886 75.843, 107.621 67.814, 115.353 64.071 C 120.369 61.643, 122.864 61.498, 127.357 63.376 C 133.723 66.036, 137.342 72.108, 140.542 85.500 L 141.259 88.500 142.023 85.827 C 143.515 80.602, 144.239 71, 143.142 71 C 142.562 71, 136.453 65.611, 129.567 59.025 C 122.681 52.439, 115.884 46.758, 114.463 46.401 C 106.762 44.469, 98.246 48.814, 95.703 55.972 C 91.828 66.882, 70.434 94.656, 62.905 98.549 C 59.459 100.331, 56.377 100.413, 55.334 98.750 C 54.078 96.747, 53.914 60.116, 55.134 54 C 57.971 39.780, 65.637 33.262, 80 32.856 C 83.025 32.770, 84.150 32.530, 82.500 32.322 C 80.850 32.113, 71.400 30.861, 61.500 29.538 C 51.600 28.216, 41.065 26.826, 38.088 26.451 L 32.676 25.768 33.344 48.134 M 141.500 32.056 L 136.500 33.845 142.250 33.922 C 146.626 33.981, 148 33.656, 148 32.559 C 148 30.248, 146.811 30.155, 141.500 32.056 M 97.500 32.967 C 90.900 33.314, 86.625 33.700, 88 33.825 C 89.375 33.950, 93.573 35.099, 97.328 36.378 C 104.073 38.677, 104.200 38.682, 107.789 36.852 C 109.788 35.834, 112.768 35, 114.411 35 C 116.366 35, 117.060 34.660, 116.419 34.019 C 114.918 32.518, 110.605 32.279, 97.500 32.967 M 173.500 36.069 C 171.850 36.451, 166.148 36.817, 160.830 36.882 L 151.159 37 150.475 43.750 C 150.099 47.462, 149.212 54.775, 148.505 60 C 147.798 65.225, 147.395 69.795, 147.611 70.156 C 147.826 70.517, 150.036 71.506, 152.522 72.353 L 157.042 73.893 159.443 70.091 C 162.334 65.510, 177.249 35.872, 176.810 35.580 C 176.639 35.467, 175.150 35.686, 173.500 36.069 M 68 38.244 C 64.476 40.131, 62.849 41.923, 60.500 46.505 L 57.500 52.356 57.348 74.678 C 57.201 96.294, 57.259 97, 59.172 97 C 65.278 97, 89.618 66.130, 93.864 53 C 96.260 45.594, 109.670 40.709, 117.083 44.543 C 118.960 45.514, 124.547 50.431, 129.498 55.469 C 137.955 64.076, 143.595 68.767, 144.425 67.885 C 144.920 67.360, 148 43.082, 148 39.707 L 148 37 132.250 37.006 C 116.469 37.011, 109.907 37.950, 106.881 40.636 C 105.462 41.896, 104.286 41.740, 97.381 39.378 C 92.109 37.575, 86.686 36.542, 81 36.258 C 73.458 35.881, 71.993 36.105, 68 38.244 M 116.500 66.502 C 112.211 68.787, 110.048 71.968, 110.022 76.027 C 109.984 82.107, 114.305 85.926, 124.750 89.047 C 129.739 90.537, 129.893 91.324, 127.142 101.244 L 125.284 107.945 128.219 106.223 C 129.834 105.275, 133.483 102.416, 136.327 99.869 L 141.500 95.238 140.146 91.869 C 139.401 90.016, 138.018 85.800, 137.072 82.500 C 134.955 75.112, 132.942 71.202, 129.693 68.168 C 126.471 65.158, 120.450 64.398, 116.500 66.502 M 146.934 73.330 C 146.174 75.286, 144.656 90.713, 145.260 90.340 C 146.375 89.650, 155 77.795, 155 76.952 C 155 76.397, 147.118 72.858, 146.934 73.330 M 155.575 81.132 C 154.010 83.534, 151.172 87.428, 149.270 89.784 C 146.375 93.369, 146.018 94.317, 147.083 95.600 C 154.121 104.080, 172.750 99.725, 176.960 88.615 C 179.038 83.132, 173.337 78.303, 163.599 77.298 L 158.422 76.764 155.575 81.132" stroke="none" fill="black" fill-rule="evenodd"/>
</svg>