<svg xmlns="http://www.w3.org/2000/svg" width="200" height="200" viewBox="0 0 200 200" version="1.1">
	<path d="M 56.588 28.255 C 53.821 30.361, 55.168 32.636, 60.718 35.227 C 63.348 36.455, 65.582 37.476, 65.683 37.496 C 66.144 37.587, 68.137 59.196, 67.722 59.611 C 67.464 59.869, 63.497 57.925, 58.906 55.290 C 50.872 50.680, 50.525 50.331, 49.672 46.003 C 47.959 37.320, 42.367 33.226, 34.610 34.975 C 23.987 37.371, 15.248 48.429, 13.036 62.272 C 11.830 69.821, 13.498 81.816, 16.788 89.253 C 18.762 93.717, 18.763 93.838, 16.886 101.631 C 15.843 105.959, 14.729 114, 14.410 119.500 C 12.373 154.646, 33.083 174.474, 46.357 150.086 C 48.864 145.480, 49.138 143, 47.142 143 C 46.735 143, 45.825 144.594, 45.121 146.542 C 43.137 152.029, 36.941 158, 33.232 158 C 26.864 158, 21.293 150.599, 18.382 138.271 C 16.353 129.677, 17.039 111.707, 19.804 101.076 C 21.710 93.745, 21.710 93.598, 19.807 89.296 C 14.332 76.920, 13.989 62.760, 18.911 52.351 C 25.318 38.804, 39.790 32.687, 45.044 41.304 C 47.203 44.846, 47.604 48.632, 45.881 49.206 C 45.133 49.456, 44.812 53.220, 44.914 60.540 C 44.997 66.568, 44.588 73.975, 44.004 77 C 42.555 84.509, 40.840 116.508, 41.606 121.750 C 42.190 125.746, 44.048 127.350, 45.455 125.072 C 47.524 121.726, 49.297 100.450, 49.394 77.820 L 49.500 53.140 55 56.231 C 58.025 57.931, 62.367 60.390, 64.649 61.697 L 68.798 64.072 69.433 72.286 C 69.782 76.804, 70.307 82.547, 70.600 85.048 C 71.131 89.585, 71.119 89.606, 66.068 93.048 C 63.283 94.947, 61.003 96.811, 61.002 97.191 C 60.997 98.974, 62.981 98.698, 66.280 96.456 C 68.268 95.105, 70.212 94, 70.601 94 C 71.721 94, 70.152 117.788, 68.534 125.335 C 66.869 133.100, 63.132 141.827, 59.345 146.792 C 57.628 149.044, 57.103 150.503, 57.769 151.169 C 59.916 153.316, 67.700 139.897, 70.412 129.373 C 72.280 122.125, 73.958 107.234, 73.983 97.695 L 74 90.889 79.583 88.333 C 84.186 86.226, 86.277 85.848, 91.495 86.181 C 97.048 86.534, 98.909 87.247, 106.662 91.991 C 113.957 96.454, 116.474 97.470, 121.079 97.807 C 126.735 98.221, 132.816 96.126, 137.237 92.241 C 138.801 90.866, 139.781 90.944, 147.128 93.036 L 155.283 95.358 152.252 98.066 C 144.615 104.889, 128.342 108.109, 99.500 108.502 C 87.950 108.659, 78.500 109.173, 78.500 109.644 C 78.500 110.115, 84.350 111.085, 91.500 111.801 C 109.322 113.584, 108.735 113.395, 109.965 117.758 C 113.360 129.809, 113.621 144.312, 110.643 155.500 C 109.043 161.508, 106.324 167, 104.950 167 C 102.458 167, 101.791 161.088, 102.326 143.750 L 102.875 126 100.405 126 C 86.685 126, 66.059 155.584, 66.013 175.327 C 66.002 180.443, 66.357 181.510, 68.923 184.077 C 72.225 187.379, 76.040 187.846, 81.405 185.604 C 84.068 184.491, 89.392 184.314, 107.623 184.728 C 131.510 185.271, 153.147 184.086, 166.691 181.495 C 175.274 179.853, 178.122 178.013, 176.385 175.231 C 174.849 172.770, 169.350 171.167, 154.772 168.930 C 140.821 166.789, 137 165.523, 137 163.042 C 137 160.461, 143.525 154.858, 156.275 146.492 C 169.157 138.040, 171.689 135.535, 169.734 133.179 C 168.749 131.992, 166.510 131.837, 157.685 132.342 C 146.088 133.005, 140.640 131.832, 139.318 128.388 C 138.281 125.684, 142.419 122.926, 158.015 115.924 C 172.556 109.395, 178.419 105.388, 177.828 102.382 C 177.291 99.648, 172.474 96.756, 165.560 95.015 L 159.065 93.380 161.256 90.296 L 163.447 87.212 167.750 90.172 C 176.182 95.973, 179.197 91.458, 175.070 79.207 L 173.034 73.164 176.987 66.399 C 189.148 45.589, 187.275 33, 172.018 33 C 158.353 33, 134.347 46.654, 135.204 53.939 C 135.785 58.877, 142.160 60.033, 155.701 57.657 L 162.903 56.392 165.388 61.946 C 170.381 73.104, 170.338 72.639, 166.839 77.818 C 165.099 80.393, 163.552 82.659, 163.401 82.853 C 163.250 83.048, 159.386 80.065, 154.813 76.225 C 146.778 69.477, 139.808 65, 137.336 65 C 133.361 65, 131.856 72.360, 133.969 81.472 C 134.475 83.656, 134.703 85.631, 134.474 85.859 C 133.998 86.336, 101.676 75.405, 98.203 73.593 L 95.905 72.394 99.052 68.447 C 109.288 55.608, 108.315 46.312, 96.099 40.207 L 90.019 37.169 97.759 36.421 C 107.575 35.473, 107.929 35.474, 129.600 36.465 C 142.471 37.054, 147.897 36.976, 148.378 36.197 C 149.505 34.374, 146.079 33.323, 133.500 31.629 C 110.647 28.553, 102.399 27.886, 80.500 27.343 C 62.173 26.889, 58.181 27.041, 56.588 28.255 M 61 29.912 L 57.500 30.662 63.105 33.254 L 68.710 35.847 69.398 43.673 C 69.776 47.978, 70.348 53.824, 70.670 56.665 L 71.255 61.831 81.243 66.466 C 86.736 69.016, 91.935 70.967, 92.795 70.801 C 93.655 70.635, 96.303 67.659, 98.679 64.186 C 102.203 59.037, 103 57.039, 103 53.359 C 103 46.391, 99.962 43.988, 84.167 38.465 C 81.861 37.659, 83.507 35.583, 87.075 34.797 C 88.959 34.382, 96.800 33.711, 104.500 33.304 L 118.500 32.565 106.500 31.405 C 90.063 29.816, 65.248 29.001, 61 29.912 M 122.750 33.662 C 123.438 33.940, 124.563 33.940, 125.250 33.662 C 125.938 33.385, 125.375 33.158, 124 33.158 C 122.625 33.158, 122.063 33.385, 122.750 33.662 M 159.980 38.344 C 151.787 41.237, 144.710 45.357, 140.218 49.849 C 136.940 53.126, 136.842 53.411, 138.558 54.666 C 139.561 55.400, 142.209 55.997, 144.441 55.992 C 148.357 55.985, 159.857 54.418, 163.057 53.456 C 164.210 53.109, 165.490 55.061, 167.997 60.994 C 169.859 65.397, 171.699 69, 172.086 69 C 172.473 69, 174.678 65.187, 176.987 60.526 C 182.283 49.836, 183.457 41.457, 180.127 38.127 C 177.192 35.192, 168.648 35.284, 159.980 38.344 M 72.605 76.750 C 72.973 82.662, 73.353 87.603, 73.450 87.730 C 73.788 88.170, 90 74.854, 90 74.137 C 90 73.422, 74.222 65.989, 72.718 65.996 C 72.289 65.998, 72.238 70.838, 72.605 76.750 M 135.648 70.268 C 135.039 72.691, 137.463 85.891, 138.737 87.095 C 139.157 87.492, 143.192 88.940, 147.704 90.313 L 155.908 92.810 158.552 89.342 C 161.113 85.986, 161.140 85.812, 159.397 83.886 C 156.394 80.568, 144.707 71.360, 141.300 69.627 C 137.081 67.482, 136.325 67.568, 135.648 70.268 M 88.569 79.291 L 83.692 83.582 87.868 83.184 C 94.451 82.556, 98.152 83.686, 106.876 88.984 C 116.288 94.701, 121.314 96.344, 125.614 95.111 C 129.664 93.949, 135 91.133, 135 90.157 C 135 89.722, 132.412 88.561, 129.250 87.578 C 126.088 86.595, 116.798 83.363, 108.607 80.396 C 100.416 77.428, 93.653 75, 93.580 75 C 93.506 75, 91.251 76.931, 88.569 79.291 M 168.250 80.498 C 165.383 84.924, 165.409 85.187, 168.960 87.812 C 172.833 90.676, 174 90.573, 174 87.366 C 174 84.285, 171.952 76.994, 171.092 77.012 C 170.766 77.019, 169.488 78.588, 168.250 80.498 M 45.603 85.250 C 45.297 88.688, 44.846 96.900, 44.600 103.500 C 44.013 119.264, 45.526 110.570, 46.558 92.250 C 47.314 78.825, 46.625 73.771, 45.603 85.250 M 155.751 98.437 C 151.719 104.055, 136.254 109.181, 118.999 110.620 C 111.329 111.260, 110.881 111.425, 111.451 113.400 C 114.703 124.674, 115.300 128.510, 115.283 138 C 115.245 158.640, 107.778 175.384, 101.867 168.084 C 99.285 164.896, 98.631 158.271, 99.370 142.795 C 99.776 134.295, 99.664 129, 99.079 129 C 91.285 129, 77.348 145.640, 71.599 161.810 C 68.548 170.391, 68.072 179.930, 70.571 182.429 C 72.433 184.290, 76.765 184.461, 80.685 182.826 C 82.657 182.003, 91.581 181.726, 110.500 181.899 C 142.366 182.190, 167.007 180.243, 173 176.962 C 174.187 176.312, 173.933 175.925, 171.779 175.106 C 169.058 174.072, 156.135 171.728, 146.261 170.478 C 140.235 169.716, 134.639 166.394, 134.193 163.315 C 133.688 159.825, 139.647 154.187, 153.155 145.373 C 160.116 140.831, 166.149 136.567, 166.564 135.897 C 167.146 134.954, 164.967 134.822, 156.918 135.312 C 147.621 135.878, 146.059 135.723, 142.180 133.845 C 136.671 131.178, 135.071 128.067, 137.388 124.530 C 138.918 122.195, 143.285 119.865, 167.647 108.380 C 176.973 103.984, 176.965 101.175, 167.619 98.532 C 157.996 95.810, 157.638 95.808, 155.751 98.437" stroke="none" fill="black" fill-rule="evenodd"/>
</svg>