<svg xmlns="http://www.w3.org/2000/svg" width="200" height="200" viewBox="0 0 200 200" version="1.1">
	<path d="M 35.303 21.197 C 29.114 24.187, 28.044 34.421, 30.517 66.955 C 31.872 84.773, 32.057 91.769, 31.261 95.085 C 30.679 97.513, 30.439 103.193, 30.727 107.706 C 31.378 117.878, 29.384 129.587, 23.272 151.500 C 18.040 170.256, 16.983 177.911, 19.353 179.878 C 24.448 184.106, 39.338 163.564, 47.354 141.248 C 52.965 125.627, 56.302 107.435, 57.763 84.500 C 58.409 74.373, 58.252 71.587, 56.761 66.652 C 52.170 51.454, 53.896 43.165, 62.521 38.990 C 66.894 36.873, 69.512 36.584, 94.393 35.477 L 121.500 34.272 125.500 36.540 C 132.002 40.227, 138.993 40.507, 151 37.562 C 153.205 37.021, 153.926 37.630, 157.112 42.724 C 160.887 48.761, 164 55.937, 164 58.603 C 164 59.462, 160.685 64.363, 156.634 69.493 C 152.582 74.623, 147.086 82.263, 144.420 86.471 C 140.405 92.809, 139.224 94.021, 137.537 93.537 C 132.214 92.009, 118.686 91.172, 111 91.896 C 102.944 92.654, 100 92.126, 100 89.922 C 100 88.847, 113.341 78.695, 123.282 72.206 C 130.515 67.484, 136.421 65.087, 137.692 66.358 C 138.936 67.602, 136.719 74.042, 132.496 81.453 C 127.824 89.651, 127.328 91, 128.992 91 C 129.984 91, 142.610 74.466, 144.935 70.122 C 147.183 65.921, 141.994 59, 136.596 59 C 133.452 59, 135.100 57.320, 141.020 54.490 C 144.331 52.908, 147.813 50.759, 148.757 49.716 C 150.384 47.918, 150.370 47.741, 148.487 46.322 C 144.679 43.452, 120.063 47.184, 104.965 52.921 L 99.647 54.942 88.074 52.811 C 74.690 50.347, 70.421 50.759, 65.706 54.970 C 62.633 57.715, 62.509 58.117, 62.725 64.667 C 62.848 68.425, 63.189 84.550, 63.482 100.500 C 63.775 116.450, 64.494 131.867, 65.080 134.760 C 66.303 140.796, 70.152 146, 73.393 146 C 77.887 146, 89.994 136.417, 88.517 134.028 C 88.072 133.307, 86.301 134.312, 83.557 136.841 C 74.573 145.122, 70.975 144.980, 68.280 136.237 C 66.786 131.388, 66.503 126.396, 66.453 104 C 66.420 89.425, 66.012 73.772, 65.546 69.216 C 64.070 54.786, 67.980 52.079, 85.918 55.113 C 93.964 56.475, 95.107 57.376, 91.290 59.350 C 87.141 61.496, 81.330 68.222, 80.547 71.784 C 79.393 77.038, 83.264 83.275, 91.500 89.434 C 93.471 90.908, 93.460 90.963, 90.749 93.215 C 88.753 94.873, 87.725 96.977, 86.999 100.886 C 84.742 113.053, 86.577 119.501, 91.125 115.388 C 94.547 112.294, 97.328 105.841, 97.417 100.791 L 97.500 96.083 103 95.296 C 110.869 94.171, 132.019 94.492, 135.155 95.784 L 137.810 96.878 133.750 105.020 C 125.490 121.587, 128.746 130.308, 139.625 120.756 C 147.033 114.252, 149.179 104.545, 144.549 98.476 L 142.098 95.262 146.799 87.849 C 151.233 80.855, 163.824 64, 164.614 64 C 164.814 64, 164.989 76.487, 165.003 91.750 C 165.017 107.013, 165.056 121.594, 165.089 124.154 C 165.155 129.114, 163.446 133.382, 160.226 136.295 C 156.813 139.385, 151.981 139.448, 141.719 136.536 C 130.372 133.317, 127.014 133.453, 125.226 137.201 C 123.720 140.359, 125.008 147.056, 129.234 158.037 L 131.750 164.574 128.301 169.743 C 123.541 176.875, 117.572 182.818, 114.357 183.625 C 112.268 184.149, 111.256 183.800, 109.856 182.071 C 107.298 178.911, 106.262 174.704, 103.477 156.149 C 100.733 137.869, 99.695 133.333, 97.602 130.471 C 95.357 127.399, 94.580 129.492, 96.336 133.882 C 97.209 136.062, 99.092 145.810, 100.520 155.544 C 104.277 181.131, 107.504 188.146, 114.784 186.547 C 118.159 185.806, 126.271 177.738, 131.306 170.114 L 134.864 164.729 132.823 159.614 C 128.840 149.629, 127.941 146.535, 127.722 142.044 C 127.512 137.738, 127.648 137.483, 130.327 137.176 C 131.882 136.998, 136.382 137.841, 140.327 139.050 C 154.728 143.463, 161.269 141.843, 165.841 132.729 C 167.790 128.845, 168.127 126.842, 167.854 120.781 C 167.673 116.777, 167.629 101.269, 167.756 86.320 L 167.987 59.140 173.601 51.320 C 181.064 40.923, 184.189 34.602, 183.807 30.670 C 183.523 27.740, 183.197 27.481, 179.500 27.247 C 177.061 27.092, 171.404 28.319, 165 30.393 L 154.500 33.793 151.433 30.878 L 148.366 27.962 108.433 28.231 C 64.322 28.528, 58.044 27.978, 47.515 22.891 C 41.153 19.818, 38.825 19.495, 35.303 21.197 M 36.289 23.800 C 31.708 26.711, 30.996 38.710, 33.537 70.139 C 34.629 83.640, 34.792 90.672, 34.102 94.408 C 33.567 97.301, 33.375 103.006, 33.676 107.084 C 34.370 116.501, 32.437 127.899, 26.059 152 C 23.366 162.175, 20.875 171.920, 20.523 173.655 C 18.804 182.127, 26.454 175.723, 34.551 161.914 C 46.546 141.453, 52.221 120.247, 54.878 85.962 C 55.751 74.695, 55.650 72.720, 53.881 66.462 C 49.069 49.439, 52.831 38.564, 64.781 34.953 C 66.826 34.335, 79.682 33.448, 93.349 32.982 C 107.016 32.516, 118.415 31.918, 118.680 31.653 C 118.945 31.388, 107.763 31.176, 93.831 31.183 C 65.641 31.197, 54.641 29.880, 46.415 25.506 C 41.614 22.953, 38.458 22.422, 36.289 23.800 M 176.500 29.719 C 175.400 29.987, 170.332 31.533, 165.237 33.154 L 155.974 36.102 159.087 40.626 C 160.799 43.114, 163.220 47.659, 164.468 50.726 L 166.736 56.302 171.991 48.901 C 177.895 40.587, 182.453 31.541, 181.508 30.013 C 180.856 28.958, 179.863 28.900, 176.500 29.719 M 123.956 32.447 C 124.617 33.243, 127.153 34.657, 129.592 35.588 C 133.930 37.245, 141.502 37.167, 148.572 35.393 C 150.970 34.791, 151.010 34.668, 149.391 32.880 C 147.900 31.232, 146.155 31, 135.223 31 C 124.455 31, 122.919 31.197, 123.956 32.447 M 133.500 48.626 C 132.400 48.842, 129.025 49.493, 126 50.072 C 122.975 50.650, 117.204 52.071, 113.175 53.230 C 103.709 55.951, 105.594 57.286, 118.993 57.348 C 128.290 57.391, 128.922 57.248, 137.311 53.205 C 142.090 50.902, 146 48.789, 146 48.509 C 146 47.934, 136.564 48.023, 133.500 48.626 M 94.933 60.433 C 88.984 63.585, 83 70.205, 83 73.635 C 83 77.098, 86.203 82.155, 90.449 85.393 C 94.905 88.792, 95.407 88.681, 93.355 84.750 C 92.423 82.963, 91.624 79.441, 91.580 76.924 C 91.471 70.656, 95.111 66.030, 103.262 62.076 C 107.057 60.236, 108.668 59.041, 107.375 59.026 C 106.206 59.011, 103.956 58.778, 102.375 58.507 C 100.491 58.183, 97.925 58.847, 94.933 60.433 M 115.182 61.056 C 99.969 63.766, 91.996 71.531, 94.866 80.841 C 97.045 87.912, 96.919 87.926, 108.327 79.360 C 127.451 65.001, 136.768 60.624, 139.722 64.609 C 140.565 65.746, 140.907 67.696, 140.580 69.500 C 140.061 72.359, 140.107 72.406, 141.555 70.507 C 145.500 65.336, 139.947 61.282, 127.927 60.556 C 123.842 60.310, 118.107 60.535, 115.182 61.056 M 89.490 103.245 C 89.116 106.743, 88.998 110.707, 89.228 112.053 C 89.590 114.161, 90.027 113.706, 92.391 108.762 C 95.604 102.046, 95.582 97.654, 92.336 97.192 C 90.369 96.911, 90.110 97.463, 89.490 103.245 M 137.651 103.192 C 134.139 109.242, 130.653 120.053, 131.834 121.234 C 134.162 123.562, 142.278 115.397, 144.002 108.992 C 144.834 105.901, 144.786 104.336, 143.794 102.302 C 141.825 98.264, 140.392 98.471, 137.651 103.192" stroke="none" fill="black" fill-rule="evenodd"/>
</svg>