<svg xmlns="http://www.w3.org/2000/svg" width="200" height="200" viewBox="0 0 200 200" version="1.1">
	<path d="M 91 19.895 C 81.322 23.506, 73.878 27.295, 66.930 32.148 C 61.439 35.982, 61.302 36.018, 57.429 34.651 C 39.980 28.495, 25.438 31.340, 20.014 41.972 C 16.343 49.168, 15.790 54.582, 15.926 82 C 15.999 96.575, 15.547 113.826, 14.922 120.336 C 13.542 134.706, 14.329 143.704, 17.358 148.215 C 20.541 152.953, 24.928 153.026, 37.305 148.546 C 49.021 144.304, 54.287 144.027, 59.245 147.392 L 62.769 149.783 65.535 142.642 C 68.845 134.097, 73.783 124, 74.653 124 C 75.737 124, 74.343 140.752, 71.479 162.158 C 69.959 173.520, 69.003 183.566, 69.355 184.483 C 69.933 185.989, 70.248 185.950, 72.632 184.075 C 75.109 182.127, 76.535 182, 96.018 182 C 116.257 182, 116.780 182.052, 117.316 184.101 C 117.890 186.296, 120 185.863, 120 183.549 C 120 182.493, 122.131 182.317, 130.250 182.704 C 141.553 183.243, 164.375 181.695, 170.259 179.990 C 172.327 179.391, 174.719 177.832, 175.575 176.527 C 176.975 174.388, 176.978 173.857, 175.595 171.184 C 174.751 169.551, 172.233 166.769, 170 165 C 164.506 160.649, 163 157.347, 163 149.656 C 163 143.682, 164.080 138.634, 170.947 112.500 C 173.504 102.772, 173.770 94.390, 171.652 90.295 C 170.141 87.372, 168.952 86.701, 160.500 84.002 C 153.540 81.779, 144.225 77.013, 141.057 74.053 C 134.046 67.504, 138.273 63.344, 159.352 56.050 C 170.193 52.298, 172.500 51.156, 172.500 49.541 C 172.500 46.965, 168.904 46.237, 153.159 45.625 C 138.919 45.072, 139.578 45.421, 131.207 34 C 121.201 20.349, 117.969 17.908, 114.872 21.665 C 113.823 22.937, 113.540 26.948, 113.670 38.707 C 113.825 52.646, 113.685 54.039, 112.170 53.600 C 111.252 53.333, 106.450 52.352, 101.500 51.418 C 96.550 50.484, 92.131 49.392, 91.681 48.991 C 91.230 48.590, 92.761 45.165, 95.083 41.381 C 100.420 32.683, 103.978 25.104, 103.990 22.405 C 104 20.303, 101.146 16.958, 99.421 17.049 C 98.915 17.075, 95.125 18.356, 91 19.895 M 90.637 23.019 C 82.590 26.009, 71.390 31.762, 67.204 35.054 L 64.861 36.897 69.681 39.198 C 73.777 41.155, 74.473 41.900, 74.323 44.166 C 74.158 46.658, 74.484 46.875, 79.323 47.489 C 82.170 47.849, 85.175 48.330, 86 48.556 C 86.898 48.802, 88.252 47.669, 89.374 45.734 C 99.189 28.792, 101 25.219, 101 22.792 C 101 19.352, 100.473 19.364, 90.637 23.019 M 116.612 24.319 C 115.828 27.243, 115.846 41.233, 116.644 48.864 L 117.287 55.022 121.144 55.639 C 123.446 56.007, 125 56.809, 125 57.628 C 125 58.383, 124.550 59, 124 59 C 123.450 59, 123.014 60.237, 123.032 61.750 C 123.062 64.390, 123.122 64.422, 124.539 62.549 C 125.964 60.665, 126.170 60.750, 130.507 65.007 C 133.389 67.835, 135 68.853, 135 67.845 C 135 63.529, 144.138 58.099, 161 52.397 L 169.500 49.522 163 48.878 C 159.425 48.524, 152.654 48.181, 147.953 48.117 C 139.431 48, 139.395 47.989, 135.861 44.250 C 133.911 42.188, 129.550 36.613, 126.170 31.862 C 119.474 22.449, 117.526 20.912, 116.612 24.319 M 30.421 35.828 C 25.201 38.287, 22.389 41.910, 20.273 48.908 C 18.865 53.562, 18.524 60.120, 18.235 88 C 18.045 106.425, 17.801 126.530, 17.694 132.679 C 17.520 142.727, 17.716 144.143, 19.640 146.679 C 22.400 150.317, 25.257 150.203, 36.104 146.020 C 46.544 141.994, 53.582 141.146, 58.052 143.376 C 59.852 144.274, 61.427 144.894, 61.552 144.754 C 61.676 144.614, 63.441 140.467, 65.472 135.538 C 69.838 124.945, 72.437 121, 75.049 121 C 78.933 121, 78.826 127.931, 74.436 160.671 C 73.096 170.666, 72 178.991, 72 179.171 C 71.999 179.352, 81.959 179.392, 94.131 179.260 L 116.263 179.020 116.466 165.760 C 116.687 151.319, 115.637 146.584, 110.491 138.807 C 107.349 134.059, 104.269 133.946, 102.070 138.500 C 100.419 141.918, 100.035 158.019, 101.324 169.750 C 102.002 175.920, 101.895 177, 100.601 177 C 99.603 177, 98.339 174.678, 96.924 170.250 C 93.924 160.857, 93.186 140.920, 95.374 128.346 L 96.967 119.192 89.448 111.674 C 82.089 104.315, 81.872 104.185, 79.240 105.550 C 75.665 107.405, 72.979 105.687, 71.173 100.391 C 69.639 95.892, 69.310 77.177, 70.465 60.115 L 71.236 48.729 63.066 49.202 C 53.754 49.741, 52.937 50.280, 50.492 57.500 C 47.697 65.751, 47.501 76.836, 49.879 92.216 C 51.046 99.759, 52 107.986, 52 110.498 C 52 116.185, 49.906 121.360, 46.775 123.412 C 44.330 125.014, 34.053 127.386, 33.209 126.543 C 32.953 126.286, 34.116 123.921, 35.794 121.288 C 37.472 118.655, 39.879 113.575, 41.144 110 C 43.221 104.129, 43.410 102.096, 43.100 89 C 42.313 55.844, 42.331 55.396, 44.500 52.960 C 45.600 51.724, 47.727 49.957, 49.226 49.033 C 50.725 48.108, 53.543 45.267, 55.489 42.718 L 59.026 38.085 53.763 36.483 C 45.095 33.844, 35.223 33.567, 30.421 35.828 M 59.066 42.577 C 57.380 44.498, 56 46.196, 56 46.351 C 56 46.505, 59.620 46.632, 64.045 46.632 C 71.442 46.632, 72.067 46.475, 71.795 44.692 C 71.603 43.431, 69.862 42.111, 66.816 40.919 L 62.132 39.085 59.066 42.577 M 73.688 55.153 C 71.228 76.696, 72.067 99.496, 75.444 102.872 C 76.769 104.198, 77.164 104.161, 78.945 102.550 C 80.049 101.550, 80.712 100.343, 80.417 99.866 C 80.123 99.390, 80.589 99, 81.453 99 C 82.318 99, 84.535 96.637, 86.382 93.750 C 91.970 85.009, 103.122 61.998, 101.757 62.024 C 101.066 62.038, 98.512 62.507, 96.083 63.067 C 87.271 65.098, 83.037 62.147, 84.930 55.292 C 85.489 53.268, 85.845 51.518, 85.723 51.403 C 85.600 51.287, 82.980 50.881, 79.899 50.500 L 74.298 49.807 73.688 55.153 M 87.935 54.671 C 86.451 58.574, 87.157 60.458, 90.234 60.814 C 92.691 61.098, 101.837 59.188, 106.242 57.471 C 107.881 56.832, 107.890 57.022, 106.387 60.646 C 103.354 67.963, 91.913 90.338, 88.995 94.663 L 86.068 99 92.534 99.179 C 96.090 99.277, 99.919 99.389, 101.042 99.429 C 102.599 99.483, 103.722 98.075, 105.770 93.500 C 107.248 90.200, 110.290 84.226, 112.530 80.225 L 116.604 72.949 115.676 65.225 C 115.165 60.976, 114.638 57.371, 114.505 57.214 C 114.199 56.855, 91.357 52, 89.972 52 C 89.410 52, 88.493 53.202, 87.935 54.671 M 46.492 54.750 C 44.928 58.540, 44.123 63.621, 44.713 65.981 C 45.213 67.982, 45.573 67.306, 46.576 62.481 C 47.260 59.191, 48.133 55.712, 48.517 54.750 C 48.901 53.785, 48.765 53, 48.214 53 C 47.664 53, 46.889 53.788, 46.492 54.750 M 118.070 61.750 C 118.109 63.813, 118.527 66.400, 119 67.500 C 119.705 69.141, 119.875 68.872, 119.943 66 C 119.990 64.075, 120.299 61.487, 120.630 60.250 C 121.074 58.596, 120.805 58, 119.617 58 C 118.403 58, 118.018 58.934, 118.070 61.750 M 124.618 66.864 C 122.981 68.678, 122.829 69.888, 123.448 76.172 C 123.840 80.145, 125.195 87.378, 126.459 92.247 C 128.468 99.981, 128.575 101.282, 127.308 102.549 C 126.510 103.347, 125.407 104, 124.857 104 C 124.223 104, 124.116 106.109, 124.564 109.750 C 125.752 119.396, 125.744 119.388, 131.560 116.067 C 134.357 114.469, 137.908 111.297, 139.548 108.931 C 142.257 105.021, 142.500 103.965, 142.500 96.085 C 142.500 88.571, 142.134 86.777, 139.566 81.709 C 137.952 78.524, 134.352 73.412, 131.566 70.349 L 126.500 64.780 124.618 66.864 M 120.252 77.500 C 120.263 79.700, 120.468 80.482, 120.707 79.238 C 120.946 77.994, 120.937 76.194, 120.687 75.238 C 120.437 74.282, 120.241 75.300, 120.252 77.500 M 143.278 82.884 C 144.450 85.529, 145.523 90.564, 145.789 94.673 C 146.174 100.621, 145.882 102.613, 144.077 106.341 C 141.576 111.506, 134.261 118.664, 129.945 120.169 C 126.327 121.430, 126.222 123.132, 129.559 126.468 C 138.013 134.922, 147.163 170.465, 141.449 172.658 C 139.596 173.369, 135.713 169.993, 132.382 164.772 C 130.569 161.931, 129.377 157.116, 127.370 144.522 C 125.922 135.435, 124.404 128, 123.998 128 C 123.592 128, 122.639 130.137, 121.881 132.750 C 120.518 137.447, 120.353 145.327, 121.128 168.750 L 121.500 180 136 179.992 C 159.074 179.979, 172.570 177.897, 173.788 174.163 C 174.028 173.428, 171.718 170.503, 168.654 167.663 C 157.869 157.667, 157.455 151.511, 165.600 122.234 C 170.704 103.884, 171.631 97.324, 169.746 92.879 C 168.358 89.608, 167.528 89.052, 161.147 87.113 C 157.262 85.933, 151.192 83.461, 147.657 81.618 L 141.231 78.269 143.278 82.884 M 110.948 89.190 L 105.898 99.500 112.493 100.372 C 116.121 100.852, 119.347 100.986, 119.663 100.670 C 120.479 99.854, 117.839 80.018, 116.831 79.396 C 116.372 79.112, 113.725 83.520, 110.948 89.190 M 121.055 84.209 C 121.025 85.149, 121.505 89.312, 122.122 93.459 C 122.924 98.853, 123.655 101, 124.689 101 C 125.610 101, 125.934 100.364, 125.583 99.250 C 125.279 98.287, 124.148 94.125, 123.070 90 C 121.992 85.875, 121.085 83.269, 121.055 84.209 M 47.090 95 C 47.002 95.275, 46.322 98.875, 45.579 103 C 44.490 109.040, 41.841 116.325, 38.234 123.199 C 37.282 125.013, 44.769 121.727, 46.750 119.462 C 48.625 117.318, 48.988 115.772, 48.926 110.194 C 48.862 104.405, 47.552 93.559, 47.090 95 M 86.080 104.149 C 87.724 107.221, 96.077 115.141, 97.258 114.747 C 97.989 114.504, 101.867 104.252, 101.985 102.250 C 101.993 102.112, 98.159 102, 93.465 102 C 85.042 102, 84.945 102.028, 86.080 104.149 M 104.540 104.107 C 102.222 110.479, 101 114.472, 101 115.677 C 101 117.990, 107.867 120.190, 115.227 120.236 C 118.982 120.260, 122.334 119.999, 122.677 119.657 C 123.262 119.071, 121.325 104.992, 120.553 104.219 C 120.355 104.022, 116.786 103.603, 112.620 103.288 C 106.669 102.838, 104.938 103.013, 104.540 104.107 M 99.554 121.146 C 97.976 125.764, 97.021 136.043, 97.160 146.934 L 97.319 159.500 97.959 148.757 C 98.665 136.912, 100.467 132.770, 105.164 132.201 C 108.037 131.854, 112.222 135.588, 115.004 140.981 C 116.785 144.432, 116.829 144.452, 117.324 142 C 117.602 140.625, 118.359 136.871, 119.007 133.658 C 119.655 130.444, 121.043 126.957, 122.092 125.908 C 123.142 124.858, 124.001 123.662, 124.002 123.250 C 124.003 122.837, 120.904 122.647, 117.113 122.828 C 110.853 123.125, 106.590 122.481, 101.758 120.505 C 100.666 120.058, 99.844 120.297, 99.554 121.146 M 128.007 129.767 C 127.999 131.198, 131.750 155.414, 132.461 158.520 C 133.106 161.342, 138.967 170, 140.232 170 C 142.461 170, 139.138 153.285, 134.466 141 C 131.922 134.309, 128.018 127.520, 128.007 129.767" stroke="none" fill="black" fill-rule="evenodd"/>
</svg>