<svg xmlns="http://www.w3.org/2000/svg" width="200" height="200" viewBox="0 0 200 200" version="1.1">
	<path d="M 118.525 19.082 C 113.589 20.145, 104.441 22.577, 98.196 24.488 C 81.026 29.740, 61.556 31.035, 39.727 28.376 C 33.829 27.658, 30 28.537, 30 30.609 C 30 31.473, 32.250 34.704, 35 37.789 C 37.945 41.093, 40 44.351, 40 45.714 C 40 50.214, 30.668 53.978, 12.336 56.872 L 2.024 58.500 17.262 82.747 C 33.757 108.994, 36.997 113.332, 39.728 112.828 C 40.751 112.638, 43.001 109.582, 45.051 105.597 C 49.430 97.085, 54.883 91.418, 61.714 88.281 C 70.535 84.230, 71.263 84.450, 78.823 93.448 C 82.601 97.945, 84.632 101.028, 83.500 100.548 C 82.400 100.081, 79.025 99.031, 76 98.215 C 67.180 95.835, 64.419 97.108, 49.222 110.567 C 42.040 116.928, 35.825 122.891, 35.413 123.817 C 35.001 124.742, 34.583 129.100, 34.484 133.500 C 34.270 143.087, 31.325 151.951, 20.863 174.500 C 13.045 191.350, 13.127 191.129, 14.500 191.576 C 15.050 191.755, 17.750 188.308, 20.500 183.916 C 28.989 170.358, 38.674 162, 45.895 162 C 50.872 162, 53.649 163.629, 62.035 171.473 C 66.462 175.613, 70.948 179, 72.003 179 C 76.074 179, 79.425 172.753, 82.059 160.250 C 82.668 157.363, 83.352 155, 83.581 155 C 83.809 155, 86.275 156.638, 89.062 158.640 C 98.136 165.159, 103.932 165.942, 105.543 160.865 C 105.940 159.614, 104.842 153.192, 102.896 145.378 C 100.237 134.700, 99.821 131.779, 100.821 130.779 C 101.821 129.779, 102.546 129.827, 104.445 131.015 C 120.637 141.143, 126.591 143.586, 132.989 142.728 C 140.449 141.728, 144.323 137.228, 147.784 125.543 C 148.944 121.624, 149.379 112.426, 149.733 84.262 L 150.188 48.024 146.486 42.980 C 141.427 36.089, 136.716 32.603, 133.539 33.401 C 130.232 34.231, 128.992 36.836, 127.592 45.889 L 126.420 53.468 119.460 54.672 C 111.450 56.059, 97.354 56.382, 96.621 55.196 C 96.348 54.754, 100.490 50.462, 105.825 45.658 C 111.160 40.853, 117.497 34.533, 119.907 31.612 L 124.290 26.302 137.866 24.618 L 151.441 22.934 153.188 25.217 C 156.779 29.910, 157.446 36.885, 156.162 56.343 C 154.572 80.437, 154.650 83.762, 157 92.243 C 159.710 102.023, 159.710 116.903, 157 127.501 C 155.900 131.802, 152.308 141.978, 149.019 150.115 C 142.001 167.474, 141.206 171.164, 143.370 176.343 C 144.572 179.221, 146.008 180.559, 149.603 182.149 C 154.846 184.468, 166 185.895, 166 184.246 C 166 182.933, 163.588 182.002, 160.168 181.994 C 155.618 181.985, 149.852 179.943, 147.372 177.463 C 143.618 173.709, 144.283 169.502, 151.474 151.528 C 155.034 142.628, 158.856 131.556, 159.967 126.923 C 162.671 115.643, 162.651 102.789, 159.914 92.410 C 157.993 85.124, 157.894 83.119, 158.664 67 C 159.957 39.938, 159.679 31.950, 157.277 27.094 C 156.155 24.827, 155.603 22.745, 156.051 22.468 C 156.499 22.192, 162.633 21.717, 169.683 21.413 C 180.660 20.941, 182.259 21.059, 180.821 22.239 C 177.714 24.788, 176.898 40.802, 177.100 95.207 C 177.231 130.481, 176.907 149.845, 176.061 157.210 C 174.883 167.473, 175.278 172.042, 177.066 168.846 C 179.180 165.070, 180.110 140.056, 179.865 93.637 C 179.567 37.170, 180.081 27.828, 183.687 24.222 C 189.459 18.450, 183.605 16.906, 163.732 18.956 C 154.612 19.897, 152.273 19.832, 148.447 18.534 C 142.336 16.459, 129.624 16.691, 118.525 19.082 M 129.500 20.149 C 125.100 20.630, 117.450 22.112, 112.500 23.440 C 103.593 25.832, 103.562 25.851, 109.500 25.291 C 112.800 24.981, 116.211 24.363, 117.080 23.919 C 117.949 23.475, 120.874 23.126, 123.580 23.144 C 128.653 23.177, 145.172 21.161, 145.915 20.418 C 146.145 20.188, 144.945 20, 143.248 20 C 141.552 20, 139.564 19.837, 138.832 19.637 C 138.099 19.437, 133.900 19.668, 129.500 20.149 M 110.500 31.244 C 99.741 38.671, 89.876 50.569, 92.917 52.449 C 93.940 53.081, 113.605 35.517, 117.301 30.672 C 119.702 27.524, 119.845 27.007, 118.301 27.051 C 117.310 27.079, 113.800 28.965, 110.500 31.244 M 96.933 29.488 C 91.671 30.163, 84.359 31.716, 80.683 32.939 C 74.596 34.965, 74 35.409, 74 37.916 C 74 40.823, 68.901 48.800, 61.380 57.659 C 58.971 60.497, 57 63.120, 57 63.487 C 57 63.854, 59.347 62.102, 62.215 59.593 C 67.861 54.654, 69.680 54.750, 67.888 59.891 C 65.488 66.776, 70.861 71, 82.018 71 C 92.754 71, 96.883 66.557, 92.266 59.973 C 90.473 57.416, 89.641 52.051, 90.475 48.421 C 91.229 45.138, 96.943 38.557, 103.816 33.055 C 107.490 30.115, 109.373 28.055, 108.316 28.130 C 107.317 28.202, 102.195 28.813, 96.933 29.488 M 33 31.569 C 33 32.043, 35.015 34.477, 37.477 36.977 C 40.102 39.641, 42.221 42.857, 42.599 44.746 C 43.147 47.483, 42.783 48.400, 40.191 50.821 C 36.477 54.291, 27.384 57.394, 16 59.079 C 11.325 59.770, 7.337 60.461, 7.138 60.613 C 6.745 60.914, 25.340 90.956, 33.218 102.750 C 35.882 106.737, 38.474 110, 38.979 110 C 39.485 110, 41.259 107.147, 42.923 103.661 C 47.764 93.518, 59.051 84.540, 69.619 82.426 C 72.446 81.861, 73.181 82.503, 82.897 94.023 C 88.859 101.093, 92.809 106.591, 92.297 107.103 C 91.784 107.616, 88.588 106.489, 84.693 104.420 C 76.344 99.987, 69.016 99.003, 64.302 101.682 C 62.543 102.682, 55.740 108.304, 49.184 114.176 L 37.263 124.852 37.283 132.676 C 37.305 141.079, 34.305 151.755, 28.039 165.573 L 24.989 172.300 30.484 167.104 C 42.555 155.688, 50.173 156.143, 63.512 169.078 C 68.227 173.649, 71.478 176.055, 72.639 175.831 C 74.826 175.410, 77.248 169.249, 79.485 158.417 C 80.378 154.095, 81.263 150.404, 81.451 150.216 C 81.639 150.028, 84.202 151.708, 87.146 153.950 C 93.543 158.820, 100.550 162.396, 101.973 161.517 C 103.556 160.539, 103.217 157.326, 100.442 147 C 97.477 135.967, 97.052 130.848, 98.914 128.604 C 100.899 126.211, 102.967 126.623, 108.843 130.580 C 122.175 139.558, 132.848 142.267, 138.226 138.037 C 141.451 135.500, 144.623 128.057, 145.941 119.934 C 146.515 116.395, 146.988 98.803, 146.992 80.840 L 147 48.180 143.008 43.129 C 139.152 38.251, 136.321 36, 134.041 36 C 131.287 36, 130.606 42.302, 129.931 74 C 129.211 107.810, 128.487 113.594, 124.414 118.095 C 122.404 120.316, 118.540 120.505, 115.016 118.554 C 113.293 117.600, 111.978 117.477, 110.720 118.150 C 109.723 118.683, 107.466 118.980, 105.704 118.810 C 102.667 118.516, 102.504 118.290, 102.570 114.474 C 102.620 111.576, 105.045 105.411, 111.224 92.474 C 117.864 78.570, 126 58.812, 126 56.592 C 126 56.455, 122.287 56.964, 117.750 57.722 C 113.212 58.480, 106.215 58.919, 102.199 58.697 C 95.788 58.343, 94.984 58.489, 95.602 59.897 C 95.988 60.779, 96.502 62.888, 96.743 64.585 C 97.099 67.097, 96.600 68.159, 94.061 70.295 C 90.325 73.439, 85.678 74.453, 78.434 73.705 C 71.523 72.992, 67.146 70.423, 65.074 65.863 L 63.421 62.225 55.631 68.613 C 48.264 74.652, 45 76.298, 45 73.973 C 45 73.408, 49.698 67.367, 55.440 60.548 C 70.621 42.520, 74.331 35.947, 68.500 37.411 C 64.108 38.513, 65.610 35.304, 70.250 33.671 C 74.393 32.213, 74.174 32.179, 61.500 32.338 C 54.350 32.427, 45.013 32.096, 40.750 31.603 C 36.434 31.104, 33 31.089, 33 31.569 M 124.640 69.155 C 123.618 72.095, 118.948 82.579, 114.263 92.452 C 102.623 116.983, 102.288 118.578, 109.395 115.608 C 112.565 114.284, 113.214 114.325, 116.625 116.063 C 120.102 117.836, 120.502 117.856, 122.180 116.337 C 125.335 113.482, 126.212 108.006, 126.720 88 C 127.332 63.876, 127.126 62.012, 124.640 69.155" stroke="none" fill="black" fill-rule="evenodd"/>
</svg>