<svg xmlns="http://www.w3.org/2000/svg" width="200" height="200" viewBox="0 0 200 200" version="1.1">
	<path d="M 135.500 17.674 C 120.786 18.597, 100.681 20.312, 77.180 22.647 C 56.743 24.678, 50.372 25.007, 48.680 24.116 C 41.001 20.078, 35.020 21.021, 29.488 27.145 C 21.656 35.814, 17.580 50.596, 18.144 68.280 C 18.466 78.366, 18.806 80.102, 21.501 85.455 C 23.151 88.731, 25.771 92.331, 27.325 93.455 C 31.168 96.236, 38.478 96.095, 43.480 93.144 L 47.235 90.929 46.609 93.420 C 45.009 99.795, 44.331 100.538, 38.857 101.910 C 25.889 105.161, 15.528 110.791, 11.996 116.507 C 8.352 122.403, 10.043 131.734, 16.054 138.904 L 18.070 141.308 31.785 134.726 C 44.900 128.431, 53.047 125.394, 52.959 126.831 C 52.901 127.784, 48.809 133.167, 38.665 145.638 C 27.878 158.900, 24.778 164.581, 25.196 170.323 C 25.553 175.230, 25.548 175.230, 36 171.395 C 44.374 168.323, 54.124 167.787, 72.058 169.411 L 81.616 170.276 85.239 167.095 C 87.669 164.961, 89.477 162.068, 90.731 158.308 L 92.599 152.703 96.121 157.601 C 98.058 160.296, 101.309 163.396, 103.346 164.491 C 106.725 166.307, 107.290 166.351, 109.775 164.988 C 113.875 162.740, 116.890 155.688, 117.807 146.206 C 119.448 129.228, 115.639 112.615, 109.459 109.799 C 105.743 108.106, 100.566 111.076, 96.568 117.196 C 93.179 122.382, 92 123.074, 92 119.878 C 92 118.583, 95.069 114.587, 99.872 109.628 C 104.201 105.158, 108.251 100.517, 108.872 99.316 C 110.422 96.315, 110.285 92.760, 108.532 90.441 C 106.561 87.835, 106.638 87.250, 109.054 86.483 C 110.183 86.124, 113.949 83.173, 117.421 79.925 L 123.735 74.018 123.237 85.311 C 122.293 106.705, 128.732 126.161, 138.032 130.013 C 140.525 131.046, 141.394 130.972, 143.578 129.541 C 149.355 125.755, 151.243 112.265, 148.692 92.988 C 147.521 84.141, 147.419 80.380, 148.253 76.738 C 148.849 74.132, 149.679 72, 150.097 72 C 151.221 72, 154.639 81.679, 156.052 88.861 C 157.630 96.879, 156.750 111.223, 154.109 120.531 C 153.012 124.399, 149.649 133.849, 146.637 141.531 C 140.513 157.147, 139.325 162.778, 140.909 168.664 C 142.164 173.324, 147.447 179.167, 152.937 181.968 L 156.762 183.919 161.485 180.561 C 178.075 168.766, 183.293 149.149, 180.786 108 C 179.419 85.561, 179.132 49.143, 180.283 44 C 181.001 40.789, 181.810 40.145, 190.081 36.207 C 198.272 32.306, 201.223 29.890, 199.681 28.348 C 199.370 28.037, 197.759 28.748, 196.101 29.928 C 194.444 31.108, 189.758 33.591, 185.689 35.445 C 178.694 38.633, 178.256 39.025, 177.644 42.658 C 175.918 52.903, 175.872 68.661, 177.488 96 C 178.508 113.257, 178.962 129.424, 178.581 134.955 C 177.089 156.649, 171.237 170.613, 160.561 177.958 L 156.182 180.971 151.425 177.735 C 140.580 170.359, 140.441 164.029, 150.571 138.824 C 161.725 111.070, 162.633 93.128, 153.921 72.654 C 152.314 68.879, 151 65.083, 151 64.217 C 151 63.352, 154.301 59.236, 158.335 55.072 C 171.591 41.387, 174.745 32.285, 168.422 25.961 C 166.729 24.268, 163.612 22.287, 161.496 21.560 L 157.647 20.236 160.864 19.530 C 165.192 18.579, 189.308 19.958, 195.297 21.498 C 199.580 22.599, 200.062 22.558, 199.790 21.116 C 199.240 18.204, 189.903 17.188, 164.500 17.277 C 151.300 17.323, 138.250 17.502, 135.500 17.674 M 117 21.626 C 107.917 22.431, 85.452 25.117, 83.840 25.590 C 82.811 25.892, 81.709 28.055, 80.938 31.289 C 80.255 34.155, 78.644 39.601, 77.359 43.391 C 74.813 50.901, 73.346 63.702, 74.392 69.278 C 74.878 71.866, 75.682 72.954, 77.433 73.394 C 78.743 73.723, 80.533 74.267, 81.412 74.605 C 84.988 75.977, 90.672 56.914, 88.956 49.306 C 88.094 45.483, 85.419 42, 83.345 42 C 82.605 42, 82 41.343, 82 40.540 C 82 38.789, 91.180 35.783, 103.752 33.418 C 115.822 31.148, 130.693 31.837, 137.277 34.971 C 145.352 38.816, 150.939 47.202, 151.032 55.616 C 151.062 58.383, 151.349 58.204, 158.119 51.165 C 165.069 43.939, 168.935 37.589, 168.978 33.327 C 169.015 29.693, 164.329 25.183, 158.675 23.410 C 153.540 21.800, 127.570 20.688, 117 21.626 M 36.445 24.959 C 33.383 26.199, 28.067 32.678, 25.829 37.897 C 20.268 50.869, 18.900 71.719, 22.923 82.208 C 26.785 92.277, 32.886 95.175, 41.500 91.033 C 47.566 88.117, 48.331 87.157, 51.685 78.260 L 54.791 70.021 50.670 68.911 C 47.671 68.104, 46.068 68.101, 44.788 68.901 C 43.819 69.505, 42.796 70, 42.514 70 C 42.231 70, 42 61.675, 42 51.500 C 42 35.722, 41.779 33, 40.500 33 C 37.924 33, 38.862 31.069, 41.750 30.426 C 47.234 29.206, 47.890 28.876, 47.394 27.584 C 46.294 24.717, 40.483 23.324, 36.445 24.959 M 60 29.558 C 53.125 30.875, 46.938 31.964, 46.250 31.976 C 45.302 31.994, 45 35.963, 45 48.417 L 45 64.834 50.173 65.944 C 53.019 66.554, 55.669 66.704, 56.063 66.277 C 56.457 65.849, 58.238 62.125, 60.020 58 C 63.751 49.364, 68.567 39.789, 72.973 32.250 C 76.612 26.022, 77.499 26.206, 60 29.558 M 73.843 36.250 C 68.431 45.493, 58.665 66.998, 59.501 67.834 C 59.850 68.184, 62.749 69.185, 65.941 70.059 L 71.746 71.648 71.843 60.921 C 71.906 53.821, 72.458 48.893, 73.473 46.347 C 75.369 41.594, 78.999 29, 78.474 29 C 78.262 29, 76.178 32.263, 73.843 36.250 M 104 36.017 C 101.525 36.509, 96.662 37.663, 93.194 38.582 L 86.888 40.252 89.164 42.675 C 92.776 46.519, 92.945 56.432, 89.564 66.023 C 88.115 70.135, 86.693 74.189, 86.405 75.031 C 86.024 76.145, 87.236 77.049, 90.854 78.350 C 93.589 79.334, 97.855 81.425, 100.333 82.996 L 104.839 85.854 109.268 83.045 C 115.894 78.843, 120.968 73.311, 123.730 67.278 C 125.753 62.860, 126.137 60.673, 125.850 55.192 C 125.657 51.511, 125.921 48.275, 126.436 48 C 127.790 47.277, 129.225 53.708, 128.827 58.713 C 128.639 61.071, 128.786 63, 129.152 63 C 129.519 63, 129.150 65.362, 128.332 68.250 C 125.937 76.709, 125.427 97.336, 127.396 106.125 C 130.403 119.546, 137.506 130.038, 141.786 127.380 C 142.729 126.794, 144.136 125.018, 144.913 123.431 C 146.949 119.277, 147.364 103.232, 145.752 91.069 C 144.477 81.454, 144.512 80.126, 146.209 74.069 C 147.504 69.451, 147.769 66.868, 147.102 65.373 C 146.468 63.949, 146.522 62.878, 147.265 62.135 C 150.001 59.399, 147.154 46.939, 142.702 42.166 C 137.843 36.957, 133.391 35.590, 120.500 35.347 C 113.900 35.223, 106.475 35.525, 104 36.017 M 54.616 78.242 C 51.515 86.642, 51.658 86.918, 60.483 89.566 C 74.775 93.856, 95.670 91.490, 97.716 85.352 C 97.904 84.787, 95.099 83.067, 91.483 81.530 C 84.985 78.769, 84.867 78.757, 81.584 80.525 C 77.473 82.739, 75.313 81.992, 73.538 77.745 C 72.331 74.856, 71.388 74.255, 65.669 72.731 C 62.096 71.779, 58.748 71, 58.231 71 C 57.713 71, 56.087 74.259, 54.616 78.242 M 76 76.924 C 76 78.605, 78.958 79.442, 80.267 78.133 C 81.094 77.306, 81.097 77, 80.282 77 C 79.667 77, 78.452 76.727, 77.582 76.393 C 76.710 76.059, 76 76.297, 76 76.924 M 50.122 91.250 C 48.260 96.305, 47.950 99, 49.231 99.001 C 49.929 99.001, 55.450 98.005, 61.500 96.787 L 72.500 94.573 67.302 93.802 C 64.443 93.378, 59.718 92.125, 56.802 91.016 C 53.886 89.908, 51.376 89.001, 51.225 89.001 C 51.074 89, 50.578 90.013, 50.122 91.250 M 99.662 90.549 C 97.207 91.449, 91.221 96.378, 83.048 104.228 C 76.022 110.978, 67.104 118.525, 63.232 121 C 59.360 123.475, 55.942 126.400, 55.637 127.500 C 55.331 128.600, 52.138 133.100, 48.541 137.500 C 35.838 153.038, 30.221 160.856, 28.476 165.425 C 27.505 167.966, 26.966 170.299, 27.277 170.610 C 27.588 170.921, 31.343 169.967, 35.622 168.490 C 44.380 165.467, 54.008 164.871, 69.643 166.385 C 74.671 166.872, 79.921 166.986, 81.310 166.637 C 84.630 165.804, 87.594 160.840, 89.404 153.080 C 90.210 149.624, 91.057 146.610, 91.285 146.382 C 91.513 146.153, 93.583 148.879, 95.886 152.439 C 100.345 159.334, 104.196 163, 106.980 163 C 111.071 163, 114.340 155.467, 115.542 143.269 C 116.833 130.167, 112.331 112.905, 107.441 112.206 C 104.507 111.786, 100.561 115.250, 96.790 121.554 C 94.999 124.549, 93.199 127, 92.792 127 C 91.148 127, 88.973 120.956, 89.646 118.259 C 90.025 116.741, 94.085 111.599, 98.668 106.832 C 107.240 97.914, 108.376 95.440, 105.965 90.934 C 104.766 88.694, 104.726 88.691, 99.662 90.549 M 67.166 98.382 C 53.767 101.236, 47.565 102.985, 46.961 104.080 C 46.482 104.950, 45.824 108.550, 45.498 112.080 C 44.464 123.277, 47.854 126.135, 56.795 121.604 C 65.681 117.101, 92.176 93.755, 87.971 94.132 C 87.162 94.205, 77.800 96.117, 67.166 98.382 M 33.793 106.425 C 18.037 111.704, 12.414 116.545, 12.595 124.673 C 12.692 129.034, 16.907 137, 19.116 137 C 19.897 137, 42.788 126.759, 44.706 125.551 C 44.819 125.480, 44.233 123.452, 43.403 121.045 C 42.194 117.534, 42.097 115.374, 42.913 110.132 C 43.472 106.538, 43.833 103.501, 43.715 103.385 C 43.597 103.268, 39.132 104.636, 33.793 106.425" stroke="none" fill="black" fill-rule="evenodd"/>
</svg>