<svg xmlns="http://www.w3.org/2000/svg" width="200" height="200" viewBox="0 0 200 200" version="1.1">
	<path d="M 89.016 13.678 L 89 17.856 83.750 18.403 C 80.862 18.703, 73.775 19.438, 68 20.036 C 32.841 23.676, 21.993 33.538, 22.004 61.855 C 22.008 71.120, 23.926 87.825, 25.616 93.312 C 26.104 94.898, 25.740 95.042, 22.692 94.470 L 19.210 93.817 16.865 103.158 C 14.839 111.226, 14.524 114.887, 14.555 130 C 14.588 146.271, 14.779 148.065, 17.276 155.552 C 23.665 174.708, 36.118 184.282, 48.497 179.554 C 53.327 177.710, 60.725 171.139, 63.977 165.806 C 65.085 163.988, 65.994 163.206, 65.996 164.068 C 66.006 168.168, 69.363 176.243, 72.394 179.456 C 75.042 182.264, 76.498 183, 79.408 183 C 83.509 183, 89.120 180.453, 93.924 176.411 C 97.065 173.768, 97.223 173.744, 104.058 174.872 C 144.492 181.550, 169.514 170.575, 176.560 143.072 C 178.681 134.794, 177.895 84.462, 175.506 75.500 C 171.681 61.157, 165.681 52.718, 151.227 41.352 C 138.709 31.508, 132.647 25.657, 128.847 19.750 C 125.434 14.444, 125.801 14.532, 113 15.941 C 92.763 18.168, 94.791 18.384, 91.739 13.676 L 89.032 9.500 89.016 13.678 M 106.500 19.273 C 101 19.808, 96.385 20.343, 96.245 20.462 C 96.104 20.580, 97.004 22.546, 98.245 24.830 C 100.474 28.935, 100.565 28.984, 106.094 28.992 C 109.171 28.996, 116.532 29.296, 122.451 29.658 L 133.212 30.317 128.856 24.212 C 123.881 17.240, 124.952 17.477, 106.500 19.273 M 73.500 22.105 C 50.312 24.257, 40.786 27.221, 33.316 34.610 C 29.312 38.570, 27.757 41.029, 26.483 45.411 C 24.308 52.894, 24.337 68.663, 26.552 83.049 L 28.271 94.210 35.885 93.565 C 54.688 91.974, 57.656 91.166, 75.767 82.706 L 93.083 74.617 92.412 67.559 C 92.042 63.676, 91.671 60.410, 91.586 60.300 C 91.502 60.190, 88.280 60.567, 84.428 61.139 L 77.422 62.179 77.821 65.595 C 78.190 68.750, 77.926 69.133, 74.363 70.622 C 67.273 73.584, 53.734 70.608, 50.992 65.485 C 49.679 63.032, 50.868 59.671, 53.913 57.226 C 56.545 55.113, 65.183 50.820, 70.500 48.983 L 75.500 47.255 69.500 46.604 C 59.046 45.469, 53.282 43.969, 51.405 41.895 C 46.405 36.370, 58.720 31.547, 83.250 29.425 L 90 28.841 90 24.920 C 90 21.033, 89.969 21.001, 86.250 21.135 C 84.188 21.209, 78.450 21.646, 73.500 22.105 M 92.370 23.250 C 92.701 24.488, 92.979 26.288, 92.986 27.250 C 92.995 28.329, 93.767 29, 95 29 C 97.503 29, 97.495 28.538, 94.918 24.368 C 92.510 20.471, 91.507 20.031, 92.370 23.250 M 73.500 33.139 C 61.973 34.598, 53 37.635, 53 40.075 C 53 42.540, 73.023 44.766, 84.313 43.557 L 91 42.841 90.986 39.670 C 90.957 32.951, 90.210 31.988, 85.133 32.126 C 82.585 32.196, 77.350 32.652, 73.500 33.139 M 93.364 36.640 C 93.714 39.191, 94.007 44.254, 94.015 47.890 C 94.035 56.458, 94.582 57.250, 99.888 56.402 L 104.110 55.727 103.426 50.113 C 103.050 47.026, 101.882 41.688, 100.831 38.250 C 99.024 32.341, 98.751 32, 95.824 32 L 92.728 32 93.364 36.640 M 102.013 32.250 C 102.020 32.388, 102.920 35.353, 104.013 38.839 C 105.106 42.326, 106 47.613, 106 50.589 L 106 56 111.765 56 L 117.531 56 119.294 51.036 C 120.263 48.306, 122.993 43.184, 125.360 39.655 L 129.662 33.239 124.581 32.628 C 119.671 32.038, 101.987 31.742, 102.013 32.250 M 130.189 37.255 C 126.327 42.261, 121.031 52.264, 121.010 54.592 C 121.004 55.193, 124.585 56.391, 128.967 57.254 C 145.093 60.431, 152.961 66.679, 156.438 79.066 C 159.978 91.680, 157.747 106.426, 144.909 155.250 C 144.313 157.518, 143.319 159, 142.394 159 C 141.408 159, 141.049 158.379, 141.382 157.250 C 143.759 149.201, 152.213 114.791, 153.448 108.140 C 155.052 99.500, 155.372 84.387, 154.044 80 L 153.287 77.500 152.628 80.500 C 152.265 82.150, 150.108 90.025, 147.835 98 C 140.437 123.953, 138.120 133.594, 137.416 141.362 C 136.428 152.273, 134.391 151.573, 134.907 140.500 C 135.221 133.759, 136.929 126.200, 142.025 109 C 151.308 77.662, 151.906 72.628, 146.890 68.047 C 145.179 66.484, 142.517 64.953, 140.975 64.645 C 137.945 64.039, 127.536 65.416, 122.203 67.128 C 118.431 68.339, 118.440 66.444, 122.096 89.500 C 124.839 106.794, 124.644 122.205, 121.526 134.496 C 118.343 147.043, 111.158 163.346, 108.593 163.840 C 107.045 164.138, 106.834 163.787, 107.393 161.851 C 109.752 153.676, 112.075 141.300, 112.620 134 C 113.425 123.223, 111.883 115.519, 107.791 109.871 C 104.929 105.919, 104.635 105.754, 103.915 107.701 C 103.487 108.859, 101.755 110.622, 100.068 111.619 L 97 113.431 96.997 131.966 C 96.993 160.500, 94.756 174, 90.031 174 C 86.081 174, 82.029 163.818, 79.888 148.511 C 78.562 139.032, 79.375 139.581, 71 142.509 L 67.500 143.733 67.629 152.695 C 67.777 162.959, 70.034 171.989, 73.640 176.750 C 75.639 179.389, 76.797 179.999, 79.801 179.996 C 83.697 179.992, 88.712 177.476, 93.169 173.288 L 95.839 170.780 106.851 172.390 C 132.431 176.130, 150.882 172.887, 162.722 162.571 C 171.687 154.759, 177.098 136.908, 175.455 120.557 C 175.069 116.712, 174.638 106.127, 174.497 97.033 C 174.147 74.535, 171.175 64.841, 161.260 53.866 C 158.016 50.275, 135.847 32, 134.735 32 C 134.464 32, 132.419 34.365, 130.189 37.255 M 78 49.622 C 58.783 55.522, 49.409 61.901, 54.493 65.619 C 58.796 68.765, 70.084 70.096, 74.125 67.933 C 76.114 66.869, 76.114 66.859, 74.135 63.505 L 72.152 60.144 81.077 58.880 C 85.985 58.186, 90.501 57.309, 91.111 56.931 C 92.289 56.203, 91.391 45.960, 90.156 46.046 C 89.795 46.071, 84.325 47.680, 78 49.622 M 96.250 59.662 C 94.510 60.364, 94.490 73.337, 96.230 72.757 C 97.494 72.335, 101.348 65.254, 102.492 61.250 C 103.053 59.287, 102.776 59.010, 100.317 59.079 C 98.768 59.122, 96.938 59.385, 96.250 59.662 M 104.181 64.706 C 103.025 67.844, 102.185 70.518, 102.315 70.648 C 102.444 70.778, 105.802 69.725, 109.775 68.309 C 116.801 65.805, 117 65.641, 117 62.367 L 117 59 111.641 59 L 106.283 59 104.181 64.706 M 119.705 61.750 C 119.414 63.263, 119.249 64.565, 119.338 64.644 C 119.427 64.724, 123.100 64.007, 127.500 63.052 L 135.500 61.314 130.201 60.157 C 121.880 58.340, 120.314 58.578, 119.705 61.750 M 105.500 72.822 L 96.500 76.500 96.188 84 C 96.016 88.125, 96.164 93.300, 96.517 95.500 C 97.095 99.106, 97.668 99.749, 102.329 102.031 C 112.994 107.252, 117.364 119.514, 115.106 137.882 C 114.471 143.053, 114.115 147.448, 114.316 147.649 C 115.173 148.507, 120.111 129.786, 121.081 122 C 122.244 112.656, 121.799 105.567, 118.916 87.500 C 117.862 80.900, 117 74.037, 117 72.250 C 117 70.278, 116.508 69.028, 115.750 69.072 C 115.063 69.112, 110.450 70.799, 105.500 72.822 M 87 83.766 C 83.975 85.584, 77 88.438, 71.500 90.109 C 66 91.779, 59.250 94.224, 56.500 95.541 L 51.500 97.935 67 97.371 C 75.525 97.060, 85.088 97.232, 88.250 97.752 L 94 98.697 93.891 95.099 C 93.832 93.119, 93.494 89.016, 93.141 85.981 L 92.500 80.461 87 83.766 M 79 84 C 78.175 84.533, 77.950 84.969, 78.500 84.969 C 79.050 84.969, 80.175 84.533, 81 84 C 81.825 83.467, 82.050 83.031, 81.500 83.031 C 80.950 83.031, 79.825 83.467, 79 84 M 39 95.923 C 32.658 96.486, 32.597 96.518, 36.500 97.239 C 42.492 98.346, 45.407 98.160, 47.559 96.532 C 49.797 94.839, 50.578 94.894, 39 95.923 M 19.564 104.018 C 13.346 131.355, 17.150 158.529, 28.994 171.377 C 37.860 180.997, 49.212 179.900, 58.535 168.522 C 61.710 164.648, 62.182 163.273, 63.153 155.055 C 63.748 150.021, 63.999 145.666, 63.710 145.377 C 62.765 144.432, 44.007 152.830, 37.787 156.983 C 34.444 159.216, 31.493 160.826, 31.229 160.563 C 30.965 160.299, 31.536 158.152, 32.498 155.791 C 33.645 152.975, 34.273 148.634, 34.325 143.158 L 34.405 134.816 49.543 127.558 C 64.557 120.359, 64.689 120.267, 65.704 116.270 L 66.727 112.239 59.613 114.504 C 50.143 117.519, 44.942 119.465, 37.857 122.645 C 34.613 124.101, 31.710 125.044, 31.407 124.741 C 31.104 124.438, 31.599 122.009, 32.507 119.345 C 33.668 115.937, 33.967 112.960, 33.514 109.309 C 32.882 104.208, 32.928 104.087, 36.185 102.323 L 39.500 100.527 36.500 100.232 C 32.661 99.854, 24.982 98.314, 22.844 97.494 C 21.481 96.971, 20.907 98.113, 19.564 104.018 M 50.500 100.956 C 46.650 101.304, 41.845 102.424, 39.821 103.446 L 36.143 105.302 35.821 113.051 L 35.500 120.799 38.080 119.462 C 42.138 117.358, 63.226 110.268, 73.847 107.436 C 79.156 106.020, 84.362 104.614, 85.415 104.311 C 86.838 103.902, 86.336 104.973, 83.465 108.477 L 79.600 113.194 83.550 111.483 C 85.723 110.542, 88.963 109.298, 90.750 108.718 C 93.519 107.820, 94 107.191, 94 104.468 C 94 101.424, 93.780 101.242, 89.360 100.636 C 83.811 99.875, 60.315 100.069, 50.500 100.956 M 97 104.500 C 97 106.151, 98.761 106.438, 100.834 105.124 C 101.898 104.449, 101.831 104.149, 100.502 103.639 C 97.915 102.646, 97 102.871, 97 104.500 M 73.196 110.348 C 70.829 110.982, 68.917 111.838, 68.946 112.250 C 68.976 112.662, 69 114.126, 69 115.503 C 69 117.900, 69.129 117.953, 72.045 116.753 C 73.720 116.064, 76.015 114.037, 77.144 112.250 C 79.393 108.688, 79.396 108.689, 73.196 110.348 M 85.250 113.720 C 77.380 117.124, 75.042 119, 78.670 119 C 81.527 119, 94 112.777, 94 111.352 C 94 110.608, 93.888 110.034, 93.750 110.076 C 93.612 110.117, 89.787 111.757, 85.250 113.720 M 88 118.424 C 81.548 121.766, 77.593 122.450, 75.693 120.551 C 74.531 119.389, 73.519 119.232, 71.681 119.931 C 69.401 120.798, 69.171 121.526, 68.501 129.989 C 68.104 135.007, 68.024 139.358, 68.325 139.658 C 68.968 140.301, 79.069 137.152, 80.450 135.877 C 81.872 134.564, 84.605 134.819, 85.904 136.385 C 86.821 137.490, 86.543 137.898, 84.527 138.404 C 82.423 138.932, 82 139.627, 82 142.561 C 82 150.697, 87.244 169.915, 89.686 170.729 C 92.148 171.549, 93.239 163.196, 93.731 139.750 C 94.006 126.661, 93.841 116.021, 93.365 116.047 C 92.889 116.072, 90.475 117.142, 88 118.424 M 51 129.982 L 37.500 136.754 36.967 145.127 C 36.674 149.732, 36.484 153.611, 36.546 153.746 C 36.608 153.882, 39.098 152.699, 42.079 151.117 C 45.061 149.536, 51.170 146.767, 55.656 144.963 L 63.813 141.683 64.209 132.592 C 64.427 127.591, 64.582 123.434, 64.553 123.354 C 64.524 123.274, 58.425 126.257, 51 129.982" stroke="none" fill="black" fill-rule="evenodd"/>
</svg>