<svg xmlns="http://www.w3.org/2000/svg" width="200" height="200" viewBox="0 0 200 200" version="1.1">
	<path d="M 129 14.863 L 129 23.727 113.250 27.840 C 104.588 30.102, 91.361 33.386, 83.858 35.137 L 70.216 38.320 62.858 35.917 C 57.090 34.033, 53.338 33.512, 45.500 33.507 C 33.627 33.499, 27.283 35.354, 21.106 40.641 C 14.411 46.372, 12.493 50.964, 12.603 61 C 12.659 66.158, 13.327 71.168, 14.301 73.743 C 15.775 77.638, 15.775 78.622, 14.301 85.743 C 12.307 95.378, 11.930 125.092, 13.706 132.596 C 17.206 147.376, 22.983 156, 29.385 156 C 34.170 156, 38.798 152.419, 43.829 144.821 L 48.234 138.171 52.367 139.646 C 63.695 143.687, 69.248 136.515, 70.965 115.624 C 71.377 110.606, 71.779 107.302, 71.857 108.283 C 72.117 111.525, 76.911 119.818, 80.597 123.397 C 85.135 127.804, 89.722 129.354, 96.555 128.787 C 101.255 128.397, 101.782 128.539, 101.010 129.982 C 99.260 133.251, 85.086 145.861, 79.476 149.139 C 76.312 150.988, 73.795 152.950, 73.881 153.500 C 74.121 155.022, 99.518 154.130, 105.826 152.379 C 113.009 150.384, 119.277 144.172, 121.434 136.911 C 123.372 130.383, 123.394 124.521, 121.510 115.633 C 120.618 111.423, 120.395 108.131, 120.932 107.126 C 121.415 106.225, 121.572 103.241, 121.283 100.494 C 120.566 93.692, 122.381 95.752, 123.859 103.417 C 125.448 111.655, 125.258 128.281, 123.489 135.781 C 121.587 143.850, 118.853 149.147, 114.175 153.825 C 109.453 158.547, 104.610 160.852, 96.748 162.118 C 93.339 162.667, 90.343 163.324, 90.088 163.578 C 89.834 163.833, 89.597 167.237, 89.563 171.144 C 89.457 183.157, 91.890 182.958, 109.912 169.473 C 124.207 158.778, 131.668 155, 138.496 155 C 142.815 155, 144.449 155.507, 146.972 157.630 C 153.065 162.757, 156.421 172.376, 158.441 190.500 L 159.556 200.500 164.741 193.500 C 180.232 172.589, 186.424 153.898, 181.144 143.984 C 178.397 138.825, 171.896 135.242, 163.020 133.994 C 158.906 133.415, 154.238 133.228, 152.645 133.578 C 150.368 134.078, 149.926 133.924, 150.573 132.857 C 151.026 132.111, 154.054 127.450, 157.302 122.500 C 173.080 98.456, 177.350 82.551, 169.421 77.356 C 166.507 75.447, 157.406 75.275, 150.970 77.008 C 148.675 77.626, 146.615 77.948, 146.390 77.723 C 145.154 76.487, 153.310 64.059, 160.707 55.906 C 170.959 44.607, 173.651 39.502, 171.998 34.493 C 169.847 27.975, 155.934 17.860, 137.695 9.554 C 133.402 7.599, 129.689 6, 129.445 6 C 129.200 6, 129 9.989, 129 14.863 M 132 16.030 C 132 20.147, 132.388 21.995, 133.250 21.985 C 135.615 21.957, 146.108 18.346, 146.304 17.492 C 146.412 17.022, 143.238 15.158, 139.250 13.349 L 132 10.061 132 16.030 M 148.735 20.237 C 149.039 21.481, 149.687 23.012, 150.173 23.637 C 151.847 25.790, 153.965 38.516, 153.978 46.500 L 153.990 54.500 151.550 51.500 C 146.157 44.870, 143.590 38.779, 143.544 32.500 C 143.520 29.200, 143.868 25.488, 144.317 24.250 C 145.509 20.970, 143.182 21.336, 137.367 25.344 L 132.515 28.687 131.296 43.594 C 129.966 59.848, 128.018 72.657, 125.236 83.431 C 123.507 90.127, 123.509 90.602, 125.306 97.431 C 126.328 101.319, 127.397 109.450, 127.680 115.500 C 129 143.694, 117.797 162.342, 98.139 164.670 C 92.751 165.308, 92.652 165.420, 91.444 172.239 C 90.936 175.107, 91.138 176.116, 92.313 176.566 C 94.371 177.357, 96.434 176.149, 108.870 166.870 C 126.086 154.026, 137.197 149.768, 145.029 153.012 C 149.575 154.895, 154.675 161.493, 156.914 168.389 C 159.196 175.416, 160.984 184.762, 161.036 189.934 L 161.072 193.500 163.379 190.680 C 167.729 185.364, 175.209 172.108, 177.644 165.400 C 180.654 157.108, 180.916 149.279, 178.336 144.769 C 177.198 142.779, 174.517 140.522, 171.483 139 C 167.035 136.768, 165.318 136.508, 155.495 136.570 L 144.489 136.640 152.898 124.070 C 162.613 109.548, 168.504 97.889, 170.187 89.856 C 171.214 84.951, 171.149 83.876, 169.692 81.652 C 167.289 77.985, 162.446 77.384, 152.354 79.502 C 147.724 80.473, 143.653 80.986, 143.307 80.641 C 141.020 78.353, 149.266 64.071, 158.722 53.944 C 166.435 45.683, 170 40.378, 170 37.160 C 170 33.892, 160.599 24.624, 153.340 20.737 C 148.191 17.979, 148.181 17.978, 148.735 20.237 M 146.746 25.587 C 144.453 27.880, 147.847 45, 150.595 45 C 151.639 45, 150.159 31.377, 148.736 27.889 C 148.052 26.213, 147.157 25.177, 146.746 25.587 M 99.758 33.857 L 74.017 40.438 76.758 42.770 C 81.366 46.689, 86.087 48.309, 92.805 48.279 C 97.993 48.255, 100.385 47.616, 106.305 44.674 C 112.871 41.411, 128.034 30.136, 128.833 27.923 C 129.376 26.420, 126.737 26.959, 99.758 33.857 M 120.774 38.487 C 114.096 43.779, 106.986 47.825, 99.500 50.592 C 98.101 51.109, 99.539 51.582, 104.279 52.164 C 124.880 54.696, 123.647 62.866, 101.601 69.909 C 96.595 71.508, 90.362 73.134, 87.750 73.522 C 85.138 73.910, 83 74.607, 83 75.072 C 83 75.537, 84.912 78.478, 87.250 81.606 L 91.500 87.295 92.035 83.398 C 92.763 78.094, 93.622 77, 97.059 77 C 100.989 77, 106.581 82.659, 112.295 92.421 C 114.722 96.567, 116.999 99.668, 117.354 99.313 C 117.709 98.957, 118 96.734, 118 94.372 C 118 91.403, 118.601 89.518, 119.949 88.262 C 123.283 85.156, 129.942 45.567, 128.835 35.432 L 128.500 32.365 120.774 38.487 M 32.243 37.649 C 25.443 39.733, 18.671 45.675, 16.441 51.515 C 14.440 56.756, 14.830 66.854, 17.304 73.864 C 18.700 77.817, 18.692 78.901, 17.228 85.364 C 14.818 95.999, 14.888 127.176, 17.341 136 C 19.423 143.487, 23.211 150.507, 25.966 151.982 C 31.540 154.965, 37.641 150.952, 42.991 140.785 C 44.810 137.328, 46.403 134.367, 46.529 134.203 C 46.656 134.040, 48.585 134.858, 50.817 136.022 C 56.540 139.004, 60.838 138.391, 63.660 134.188 C 67.609 128.307, 68.240 121.759, 67.785 91.346 L 67.361 63.013 64.930 60.400 C 62.080 57.336, 53.202 52.023, 50.909 52.009 C 49.517 52.001, 49.235 54.925, 48.663 75.250 C 47.694 109.694, 45.996 123, 42.570 123 C 40.720 123, 40.086 119.681, 39.179 105.250 C 38.668 97.120, 38.786 94, 39.605 94 C 41.010 94, 41.975 99.542, 41.989 107.691 C 41.995 111.096, 42.389 114.123, 42.865 114.417 C 44.122 115.193, 44.918 104.576, 45.557 78.500 C 46.003 60.313, 45.868 55.903, 44.913 57.424 C 44.145 58.649, 43.741 63.284, 43.803 70.174 C 43.882 79.010, 43.634 81, 42.450 81 C 41.272 81, 41.004 78.985, 41.022 70.250 C 41.040 61.454, 41.426 58.682, 43.145 55 C 44.300 52.525, 45.303 48.946, 45.373 47.046 L 45.500 43.591 54.943 41.595 L 64.385 39.600 60.943 38.157 C 55.734 35.974, 38.690 35.672, 32.243 37.649 M 60.500 43.098 C 56.100 44.138, 51.487 45.225, 50.250 45.514 C 48.823 45.846, 48 46.785, 48 48.078 C 48 49.200, 48.440 49.846, 48.977 49.514 C 50.852 48.356, 57.539 51.005, 62.745 54.968 L 67.989 58.961 69.393 55.603 C 71.277 51.093, 72.479 50.521, 79.500 50.799 L 85.500 51.037 81.500 49.016 C 79.300 47.904, 75.700 45.661, 73.500 44.031 C 71.300 42.400, 69.275 41.098, 69 41.136 C 68.725 41.174, 64.900 42.057, 60.500 43.098 M 72.557 55.223 C 69.891 59.028, 70.686 62.122, 75.673 67.351 L 80.300 72.201 86.400 71.009 C 102.205 67.919, 117.518 61.265, 115.677 58.287 C 114.589 56.526, 106.323 54.948, 93.120 53.982 C 74.833 52.644, 74.342 52.673, 72.557 55.223 M 70.138 74.063 C 70.274 82.390, 70.289 82.438, 71.305 77.750 C 72.078 74.186, 72.793 73, 74.168 73 C 76.761 73, 76.451 71.806, 73 68.500 L 70 65.626 70.138 74.063 M 74.872 76.654 C 73.852 77.883, 73.500 81.929, 73.500 92.425 C 73.500 106.384, 73.537 106.617, 76.810 113.266 C 82.203 124.221, 90.017 128.372, 99.785 125.471 C 105.435 123.793, 106.884 122.206, 111.933 112.160 C 115.823 104.420, 115.617 103.043, 108.935 92.185 C 101.627 80.310, 95.922 76.642, 94.650 83 C 93.808 87.208, 94.771 91.652, 97.838 97.713 C 99.798 101.588, 100.185 103.215, 99.345 104.055 C 98.521 104.879, 97.662 104.889, 96.175 104.094 C 94.065 102.965, 93.603 101.930, 92.558 96 C 91.851 91.993, 79.772 75, 77.630 75 C 76.868 75, 75.627 75.744, 74.872 76.654 M 112.580 119.695 C 109.874 122.705, 106.333 127.043, 104.710 129.334 C 100.328 135.520, 93.262 142.670, 86.500 147.762 L 80.500 152.279 91.412 151.598 C 108.223 150.547, 116.326 145.908, 119.068 135.763 C 120.333 131.083, 119.869 116.433, 118.413 115.074 C 117.888 114.583, 115.411 116.546, 112.580 119.695" stroke="none" fill="black" fill-rule="evenodd"/>
</svg>