<svg xmlns="http://www.w3.org/2000/svg" width="200" height="200" viewBox="0 0 200 200" version="1.1">
	<path d="M 113.676 12.467 C 111.535 14.608, 110.617 21.814, 111.393 30.380 L 112.043 37.557 104.272 36.850 C 99.997 36.461, 90.763 36.110, 83.750 36.071 C 76.725 36.032, 71 35.588, 71 35.082 C 71 31.914, 72.132 31.505, 80.008 31.826 C 86.481 32.090, 88 31.876, 88 30.699 C 88 29.709, 85.298 28.568, 79.536 27.123 C 69.469 24.598, 70.224 24.648, 69.823 26.474 C 69.561 27.669, 66.662 28.027, 54.500 28.369 C 31.409 29.018, 18.897 32.925, 15.761 40.466 C 14.006 44.688, 14.048 134.999, 15.808 143 C 18.174 153.747, 23.512 156.875, 29.163 150.826 C 30.865 149.003, 33.568 145.191, 35.169 142.354 C 41.414 131.289, 48.074 134.783, 66.994 159.049 C 80.856 176.828, 85.839 180.762, 91.001 178 C 94.001 176.394, 96.761 169.707, 98.174 160.621 L 99.357 153.008 107.429 149.829 C 112.582 147.800, 117.893 146.496, 122.119 146.220 C 131.454 145.612, 132 146.544, 132 163.088 C 132 174.545, 132.203 175.989, 134.170 178.488 C 136.210 181.082, 136.701 181.217, 142.420 180.753 C 146.159 180.450, 151.054 179.099, 155.133 177.246 L 161.765 174.232 164.788 166.366 C 171.419 149.112, 172.501 144.276, 172.482 132 C 172.466 121.844, 172.073 119.215, 169.116 109.500 C 167.275 103.450, 164.945 94.511, 163.939 89.636 C 162.127 80.858, 162.129 80.745, 164.129 78.039 C 168.667 71.901, 167.372 61.290, 161.451 56.091 C 159.515 54.391, 157.271 53, 156.465 53 C 154.124 53, 154.797 51.686, 158.516 49 C 164.008 45.032, 167.500 39.361, 167.500 34.409 C 167.500 28.684, 164.785 25.191, 157.475 21.513 C 149.450 17.476, 139.247 17.316, 131.014 21.099 L 125.527 23.620 122.514 18.653 C 118.621 12.238, 115.847 10.296, 113.676 12.467 M 114.641 16.210 C 113.865 19.107, 113.839 32.798, 114.604 35.650 C 115.051 37.317, 116.227 37.951, 119.840 38.472 C 127.302 39.547, 129 40.129, 129 41.608 C 129 42.665, 127.310 43, 121.981 43 C 115.227 43, 114.980 43.085, 115.441 45.250 C 115.704 46.487, 116.463 51.775, 117.126 57 C 118.031 64.134, 118.788 66.825, 120.166 67.807 C 122.266 69.303, 122.625 72, 120.724 72 C 119.841 72, 119.563 73.214, 119.822 75.932 C 120.133 79.189, 120.852 80.298, 124.010 82.388 L 127.823 84.911 133.577 82.889 C 142.948 79.595, 146.657 82.099, 143.521 89.603 C 142.364 92.374, 142.257 93.541, 143.112 94.070 C 145.763 95.708, 142.843 100.043, 134.989 106.131 C 130.595 109.537, 127.006 113.038, 127.014 113.912 C 127.044 117.427, 128.297 120.023, 129.840 119.766 C 131.114 119.554, 131.683 121.121, 132.644 127.500 C 134.370 138.951, 134.338 144, 132.539 144 C 131.137 144, 130.769 143.026, 128.008 132 C 127.388 129.525, 126.670 126.769, 126.413 125.876 C 126.013 124.487, 124.430 124.878, 115.469 128.581 C 109.706 130.963, 103.419 133.206, 101.496 133.567 C 98.429 134.142, 98 133.972, 98 132.181 C 98 130.322, 106.258 123.468, 119.862 114.035 C 122.934 111.906, 123.178 111.365, 122.696 107.770 C 122.406 105.606, 121.974 103.641, 121.738 103.404 C 121.501 103.168, 117.976 104.486, 113.904 106.335 C 99.447 112.899, 93 114.221, 93 110.624 C 93 108.595, 102.026 100.723, 111.214 94.738 C 117.904 90.381, 119 89.268, 119 86.834 C 119 83.049, 116.418 80.682, 109.365 78 C 102.263 75.299, 92.117 74.949, 87 77.228 C 82.770 79.111, 79.313 81.647, 80.016 82.350 C 80.299 82.632, 84.573 83.395, 89.515 84.046 C 103.472 85.884, 105.566 88.159, 97.202 92.397 C 92.087 94.989, 71.912 102, 69.568 102 C 66.594 102, 64.715 121.085, 67.161 126.453 C 68.655 129.733, 69.452 129.661, 72.158 126 C 73.378 124.350, 74.966 123, 75.688 123 C 77.566 123, 77.334 123.874, 74.449 127.656 C 71.475 131.555, 68.214 132, 65.405 128.892 C 63.781 127.095, 63.513 125.287, 63.587 116.642 C 63.683 105.356, 65.855 97.191, 70.997 88.778 C 73.211 85.154, 73.756 83.273, 73.338 80.694 C 72.854 77.712, 73.243 76.948, 76.787 73.914 C 78.985 72.033, 83.980 68.696, 87.889 66.497 C 91.797 64.299, 94.996 62.225, 94.998 61.889 C 95 61.265, 83.855 56.735, 83.533 57.229 C 83.436 57.378, 82.168 59.576, 80.716 62.113 C 78.117 66.656, 71.851 73, 69.965 73 C 69.434 73, 68.100 72.100, 67 71 C 65.283 69.283, 65 67.667, 65 59.571 L 65 50.142 59.539 49.008 C 56.536 48.385, 52.374 48.015, 50.289 48.187 L 46.500 48.500 46.404 70 C 46.311 91.099, 45.336 101.287, 42.412 111.750 C 40.802 117.507, 38.471 118.724, 37.380 114.377 C 36.548 111.065, 37.601 94.503, 39.648 78.677 C 41.264 66.186, 42.461 43.461, 41.701 39.716 C 41.388 38.176, 46.600 37.066, 57.500 36.352 C 67.180 35.718, 68.952 35.062, 68.985 32.101 C 68.997 30.935, 66.366 30.800, 53.250 31.293 C 31.259 32.118, 20.498 35.340, 18.294 41.759 C 16.743 46.279, 17.227 137.422, 18.836 143.765 C 21.419 153.944, 24.594 153.922, 31 143.678 C 36.669 134.614, 37.389 134, 42.350 134 C 49.505 134, 54.587 138.474, 69.767 158.138 C 82.764 174.974, 88.105 178.822, 91.431 173.745 C 93.194 171.055, 95.964 159.815, 95.985 155.270 C 95.998 152.526, 96.589 151.740, 99.924 150.039 C 106.728 146.567, 118.673 143, 123.492 143 C 133.314 143, 135.251 146.449, 134.814 163.157 C 134.510 174.785, 134.576 175.227, 136.885 177.103 C 139.779 179.453, 143.483 178.995, 152.965 175.117 L 159.430 172.472 162.540 164.486 C 171.567 141.305, 172.193 131.524, 166.072 109.261 C 162.504 96.287, 159 80.751, 159 77.912 C 159 77.410, 159.686 77, 160.525 77 C 162.770 77, 164.240 72.192, 163.717 66.562 C 163.335 62.463, 162.643 61.061, 159.643 58.312 C 156.986 55.876, 155.099 55, 152.515 55 C 147.347 55, 148.049 52.738, 154.555 48.420 C 169.078 38.780, 168.149 27.006, 152.505 22.459 C 144.822 20.225, 137.284 21.004, 129.943 24.790 L 124.345 27.677 121.594 22.422 C 120.081 19.532, 118.035 16.437, 117.048 15.544 C 115.376 14.031, 115.212 14.076, 114.641 16.210 M 70.551 38.917 C 70.240 39.421, 69.715 41.799, 69.386 44.201 L 68.787 48.568 74.144 50.353 C 77.090 51.335, 80.037 52.361, 80.693 52.633 C 82.174 53.248, 83.473 47.019, 82.593 43.516 C 82.096 41.536, 81.140 40.886, 77.983 40.381 C 75.792 40.031, 74 39.352, 74 38.872 C 74 37.715, 71.273 37.750, 70.551 38.917 M 48.750 39.728 C 45.362 40.083, 45 40.403, 45 43.041 C 45 45.900, 45.090 45.950, 49.250 45.391 C 51.594 45.076, 56.261 45.463, 59.656 46.255 L 65.812 47.689 66.406 44.719 C 67.554 38.980, 67.562 38.987, 59.750 39.168 C 55.763 39.261, 50.813 39.513, 48.750 39.728 M 85.367 46.162 C 85.332 49.098, 85.123 52.079, 84.902 52.786 C 84.650 53.592, 87.237 55.227, 91.835 57.168 C 98.598 60.022, 99.469 60.165, 102.986 59.005 C 106.566 57.823, 107.022 57.915, 110.427 60.512 C 112.422 62.034, 114.246 63.087, 114.481 62.852 C 114.716 62.618, 114.402 58.102, 113.783 52.817 L 112.659 43.208 104.079 42.569 C 99.361 42.217, 93.234 41.681, 90.464 41.376 L 85.429 40.823 85.367 46.162 M 67.495 57.039 C 66.794 63.080, 67.479 68.560, 69.056 69.535 C 69.553 69.842, 70.812 69.636, 71.855 69.078 C 74.126 67.862, 80 58.975, 80 56.754 C 80 55.729, 77.947 54.490, 74.087 53.187 L 68.174 51.190 67.495 57.039 M 104 61.867 C 104 62.343, 106.250 63.668, 109 64.811 C 111.750 65.954, 114 66.750, 114 66.581 C 114 66.411, 112.288 65.086, 110.196 63.636 C 106.337 60.961, 104 60.294, 104 61.867 M 90.745 68.149 C 82.562 72.462, 74.004 79.294, 75.223 80.540 C 75.620 80.946, 77.605 80.013, 79.633 78.467 C 88.780 71.489, 100.692 71.161, 115.323 77.482 C 116.913 78.169, 117.105 77.836, 116.823 74.885 C 116.525 71.761, 115.922 71.216, 109 67.814 C 104.875 65.786, 100.825 64.113, 100 64.095 C 99.175 64.077, 95.010 65.901, 90.745 68.149 M 42.245 80 C 40.522 94.419, 39.728 110.644, 40.973 106 C 42.240 101.270, 44.246 78.474, 43.833 73.500 C 43.600 70.700, 43.123 72.651, 42.245 80 M 121.015 84.715 C 121.052 86.579, 122.624 87.850, 123.911 87.055 C 124.976 86.397, 124.808 85.968, 123.135 85.072 C 121.961 84.444, 121.007 84.283, 121.015 84.715 M 134.500 85.216 C 132.850 85.798, 131.345 86.405, 131.155 86.566 C 130.695 86.954, 137.296 92.933, 138.224 92.971 C 139.195 93.010, 142 87.497, 142 85.550 C 142 83.758, 139.010 83.625, 134.500 85.216 M 74.303 88.417 C 72.405 91.349, 69 98.532, 69 99.605 C 69 100.164, 93.120 91.525, 96.489 89.760 L 99.477 88.194 94.489 87.551 C 91.745 87.197, 86.763 86.478, 83.418 85.954 C 80.073 85.429, 77.148 85.006, 76.918 85.012 C 76.688 85.019, 75.511 86.551, 74.303 88.417 M 125.250 89.266 C 123.584 90.036, 123 91.159, 123 93.594 C 123 95.402, 123.366 97.108, 123.813 97.384 C 125.020 98.130, 134.055 94.665, 133.698 93.593 C 133.529 93.086, 132.065 91.672, 130.445 90.449 C 128.071 88.656, 127.064 88.427, 125.250 89.266 M 110.928 98.086 C 103.367 103.264, 96.702 109.035, 97.436 109.769 C 97.991 110.324, 119.946 100.896, 120.614 99.816 C 121.317 98.679, 120.054 93, 119.099 93 C 118.690 93, 115.013 95.289, 110.928 98.086 M 136 97.086 C 133.525 97.563, 129.870 98.682, 127.877 99.572 C 124.426 101.113, 124.291 101.355, 125.039 104.674 C 125.471 106.590, 126.076 108.409, 126.383 108.716 C 127.093 109.426, 141 98.239, 141 96.957 C 141 96.431, 140.887 96.049, 140.750 96.110 C 140.613 96.170, 138.475 96.609, 136 97.086 M 113.164 122.265 C 107.622 126.244, 103.446 129.626, 103.885 129.780 C 104.323 129.934, 109.122 128.247, 114.549 126.030 C 119.976 123.814, 124.548 122, 124.708 122 C 125.444 122, 124.900 116.056, 124.120 115.574 C 123.637 115.276, 118.707 118.286, 113.164 122.265" stroke="none" fill="black" fill-rule="evenodd"/>
</svg>