<svg xmlns="http://www.w3.org/2000/svg" width="200" height="200" viewBox="0 0 200 200" version="1.1">
	<path d="M 37.637 24.465 C 29.227 27.463, 24.898 34.843, 22.933 49.531 C 21.735 58.481, 21.789 61.285, 24.022 105.977 C 25.394 133.455, 23.414 151.747, 17.919 162.355 L 15.923 166.210 18.506 169.597 C 19.927 171.460, 22.276 173.282, 23.726 173.646 C 34.507 176.352, 41.668 153.219, 48.532 93.500 C 49.987 80.850, 51.362 70.312, 51.588 70.083 C 51.815 69.854, 52.009 72.104, 52.020 75.083 C 52.046 82.230, 54.683 108.081, 56.074 114.824 C 57.036 119.485, 56.915 120.792, 55.102 125.324 C 51.764 133.669, 47.362 149.482, 42.550 170.413 C 41.920 173.151, 42.257 172.977, 48.144 167.527 C 55.084 161.102, 60.035 158.541, 63.724 159.467 C 65.066 159.804, 69.227 162.957, 72.972 166.474 C 80.321 173.376, 83.557 174.648, 91.489 173.754 C 96.367 173.204, 111.094 166.659, 113.544 163.952 C 115.572 161.711, 113.846 160.477, 110.893 162.057 C 108.397 163.393, 107.595 162.563, 106.009 157 C 104.545 151.867, 104.743 151, 107.375 151 C 111.838 151, 116 152.249, 116 153.587 C 116 154.323, 116.915 157.371, 118.033 160.360 C 122.392 172.008, 132.592 179.321, 144.500 179.334 C 151.095 179.341, 158.134 176.487, 159.967 173.062 C 164.075 165.385, 156.234 158.207, 138.500 153.409 C 131.043 151.392, 130.737 151.208, 134 150.693 C 152.045 147.846, 152.405 147.748, 155.204 144.950 C 156.742 143.412, 158 141.425, 158 140.534 C 158 137.717, 149.416 129.600, 141.536 124.966 C 134.327 120.726, 134.083 120.468, 136.721 119.868 C 141.103 118.872, 147.359 118.939, 149 120 C 150.213 120.784, 150.069 120.972, 148.250 120.985 C 146.923 120.994, 146 121.616, 146 122.500 C 146 123.600, 147.144 124, 150.292 124 C 154.040 124, 155.096 124.539, 158.629 128.250 C 160.853 130.588, 163.190 134.300, 163.821 136.500 C 166.355 145.330, 172 150.576, 172 144.100 C 172 142.438, 170.490 138.957, 168.459 135.939 C 166.442 132.941, 164.669 128.866, 164.341 126.471 L 163.765 122.267 167.586 121.550 C 172.703 120.590, 178.513 117.534, 180.434 114.791 C 182.546 111.775, 182.379 104.407, 180.088 99.500 C 179.061 97.300, 174.779 90.550, 170.572 84.500 L 162.924 73.500 163.579 65.500 C 163.939 61.100, 164.583 57.121, 165.010 56.657 C 165.437 56.193, 169.097 55.518, 173.143 55.157 C 182.849 54.290, 182.856 52.586, 173.167 48.666 L 165.834 45.700 166.464 42.100 C 166.810 40.120, 167.341 37.075, 167.642 35.334 L 168.191 32.168 162.846 31.569 C 159.905 31.240, 151.200 30.534, 143.500 30.001 C 135.800 29.468, 127.250 28.556, 124.500 27.974 C 121.750 27.391, 106.225 26.684, 90 26.402 C 69.811 26.052, 58.386 25.434, 53.803 24.445 C 45.624 22.680, 42.632 22.684, 37.637 24.465 M 37.450 27.407 C 33.049 29.324, 29.274 34.296, 27.271 40.817 C 25.231 47.454, 25.015 64.510, 26.408 109 C 27.357 139.297, 26.839 145.606, 22.294 159.070 C 19.708 166.731, 19.686 166.996, 21.473 168.971 C 25.982 173.952, 30.235 170.310, 34.388 157.912 C 38.893 144.460, 41.306 129.823, 47.923 75.778 C 49.989 58.902, 50.425 57.278, 52.447 58.956 C 53.250 59.623, 53.964 64.136, 54.391 71.255 C 55.362 87.410, 56.957 103.306, 58.512 112.316 C 59.809 119.829, 59.768 120.377, 57.470 126.484 C 54.601 134.105, 46.624 162.957, 47.220 163.553 C 47.452 163.785, 49.505 162.603, 51.783 160.928 C 60.552 154.479, 64.417 154.949, 73.365 163.552 C 81.105 170.993, 85.283 172.617, 92.516 170.996 C 96.295 170.150, 104.302 166.816, 105.848 165.446 C 106.039 165.277, 105.275 162.677, 104.149 159.669 C 103.024 156.662, 101.597 150.218, 100.979 145.350 C 100.360 140.483, 99.660 135.514, 99.423 134.309 C 98.995 132.134, 98.837 132.119, 79.340 132.309 C 64.888 132.449, 59.581 132.185, 59.281 131.309 C 58.717 129.663, 63.793 128.308, 82.500 125.110 L 98.500 122.375 98.137 114.438 C 97.937 110.072, 97.487 106.379, 97.137 106.232 C 96.787 106.084, 90.875 103.159, 84 99.732 C 69.331 92.419, 68.111 90.531, 78 90.441 C 81.575 90.409, 86.075 90.035, 88 89.609 C 96.567 87.716, 99 86.839, 99 85.647 C 99 84.945, 97.313 83.572, 95.250 82.595 C 88.982 79.629, 75.073 70.006, 73.909 67.830 C 72.509 65.214, 73.989 63.581, 77.805 63.534 C 82.108 63.481, 103.342 49.320, 105.249 45.231 L 106.774 41.961 82.905 42.213 C 61.932 42.433, 58.837 42.266, 57.401 40.830 C 55.889 39.317, 55.911 39.118, 57.701 38.160 C 61.977 35.872, 98.865 31.215, 115.411 30.875 L 121.500 30.750 117 29.949 C 114.525 29.509, 100.709 29.115, 86.299 29.074 C 66.432 29.018, 58.705 28.637, 54.339 27.500 C 47.319 25.672, 41.507 25.639, 37.450 27.407 M 115 33.649 C 89.989 35.312, 65.479 38.157, 64.141 39.554 C 63.788 39.921, 74.412 39.894, 87.750 39.494 C 104.602 38.987, 112 39.088, 112 39.824 C 112 40.406, 111.552 41.159, 111.005 41.497 C 110.458 41.835, 109.575 42.926, 109.042 43.921 C 108.301 45.307, 109.589 44.925, 114.549 42.292 C 122.908 37.853, 126.705 36.772, 129.216 38.115 C 133.076 40.181, 130.301 45.463, 115.716 63.809 C 105.947 76.097, 106.091 75.550, 110.935 81.929 L 112.779 84.359 124.640 82.521 C 132.081 81.368, 136.809 80.162, 137.331 79.286 C 137.897 78.334, 138.541 78.204, 139.353 78.878 C 140.069 79.472, 144.426 79.635, 150.272 79.287 C 161.499 78.617, 161.542 78.559, 157.936 69.072 C 155.594 62.911, 155.967 59.862, 159.455 56.629 C 160.761 55.419, 162.130 52.827, 162.497 50.868 L 163.165 47.306 153.333 41.694 C 137.959 32.919, 135.077 32.314, 115 33.649 M 153.323 38.491 C 158.725 41.624, 163.274 44.033, 163.432 43.844 C 163.589 43.655, 163.998 41.362, 164.340 38.750 C 164.954 34.056, 164.928 34, 162.132 34 C 160.575 34, 155.746 33.729, 151.401 33.397 L 143.500 32.794 153.323 38.491 M 115.968 44.678 C 109.420 48.025, 106.541 50.078, 105.851 51.892 C 104.520 55.392, 102.013 72.500, 102.006 78.129 C 102.001 82.342, 102.272 82.870, 105.032 84.013 C 109.218 85.747, 109.618 84.804, 106.589 80.346 C 105.165 78.250, 104 76.012, 104 75.373 C 104 74.733, 107.743 69.550, 112.317 63.855 C 121.784 52.067, 128 43.114, 128 41.263 C 128 39.108, 125.449 39.832, 115.968 44.678 M 165 51 C 165 53.101, 166.628 53.474, 170.858 52.341 C 173.145 51.729, 173.119 51.669, 169.993 50.355 C 165.696 48.548, 165 48.638, 165 51 M 91.043 59.969 C 82.926 65.375, 80.017 66.815, 78.043 66.404 C 75.644 65.904, 75.698 66.049, 79 68.980 C 82.181 71.803, 96.898 81, 98.234 81 C 98.541 81, 99.114 77.362, 99.508 72.915 C 99.901 68.468, 100.772 62.168, 101.442 58.915 C 102.113 55.662, 102.400 53.001, 102.081 53.002 C 101.761 53.003, 96.794 56.138, 91.043 59.969 M 159.395 61.564 C 159.041 62.974, 159.227 65.111, 159.808 66.314 C 160.714 68.188, 160.874 67.823, 160.932 63.750 C 161.007 58.507, 160.384 57.621, 159.395 61.564 M 162.009 94.250 C 162.013 102.638, 162.294 111.802, 162.632 114.616 L 163.247 119.732 167.228 118.837 C 172.814 117.582, 176.698 115.390, 178.671 112.379 C 180.135 110.145, 180.199 109.177, 179.146 105.150 C 177.981 100.691, 164.408 79, 162.783 79 C 162.352 79, 162.004 85.862, 162.009 94.250 M 142.500 83 C 140.759 83.748, 140.889 83.882, 143.500 84.036 C 148.050 84.303, 152.095 83.908, 154.413 82.971 C 155.887 82.375, 154.738 82.129, 150.500 82.134 C 147.200 82.137, 143.600 82.527, 142.500 83 M 126.187 85.047 C 120.515 86.007, 115.642 87.025, 115.358 87.309 C 114.379 88.288, 126.332 90.208, 129.852 89.637 C 133.480 89.048, 137.521 85.948, 136.868 84.255 C 136.646 83.679, 132.410 83.993, 126.187 85.047 M 153.042 86.173 C 151.140 86.718, 147.351 87.014, 144.621 86.830 C 140.303 86.539, 139.301 86.853, 136.906 89.248 C 134.058 92.096, 132.033 92.523, 123.581 92.057 L 118.663 91.786 121.953 95.940 C 123.762 98.225, 127.762 102.211, 130.842 104.797 C 133.921 107.384, 137.962 110.963, 139.820 112.750 C 141.770 114.625, 144.244 116, 145.667 116 C 147.023 116, 149.566 117.087, 151.317 118.417 C 153.640 120.180, 155.280 120.682, 157.387 120.274 L 160.274 119.714 159.643 111.607 C 159.296 107.148, 159.009 99.338, 159.006 94.250 C 158.999 84.228, 159.143 84.422, 153.042 86.173 M 104.500 88.887 C 101.521 89.510, 101.498 89.566, 101.212 97.058 L 100.923 104.602 114.668 111.042 C 128.372 117.463, 129.980 117.821, 135.323 115.647 L 138.146 114.498 131.486 108.999 C 127.823 105.975, 122.334 100.575, 119.289 97 C 112.190 88.665, 110.361 87.662, 104.500 88.887 M 89.142 92.082 C 84.546 93.003, 79.821 93.584, 78.642 93.373 C 77.464 93.162, 81.158 95.271, 86.851 98.060 C 92.544 100.849, 97.405 102.929, 97.652 102.681 C 97.899 102.434, 97.966 99.571, 97.801 96.320 L 97.500 90.407 89.142 92.082 M 101 115 C 101 118.850, 101.338 122.003, 101.750 122.006 C 102.162 122.009, 107.450 121.252, 113.500 120.325 L 124.500 118.638 113.500 113.393 C 107.450 110.508, 102.162 108.114, 101.750 108.074 C 101.338 108.033, 101 111.150, 101 115 M 124.158 122.065 C 122.869 122.582, 121.480 122.796, 121.070 122.543 C 120.386 122.120, 109.592 123.412, 104.250 124.556 C 102.931 124.839, 102 125.781, 102 126.833 C 102 128.414, 102.744 128.576, 108.250 128.195 C 111.688 127.958, 114.950 127.412, 115.500 126.982 C 116.050 126.552, 120.100 126.043, 124.500 125.850 C 131.069 125.563, 132.500 125.766, 132.500 126.986 C 132.500 127.804, 131.825 128.564, 131 128.675 C 130.175 128.786, 126.973 129.154, 123.884 129.494 L 118.268 130.110 117.761 135.805 C 117.482 138.937, 117.482 143.025, 117.761 144.890 L 118.268 148.279 130.384 147.737 C 148.935 146.907, 156.177 144.285, 154.501 139.004 C 153.713 136.521, 144.871 129.778, 135.616 124.602 C 128.791 120.785, 127.864 120.580, 124.158 122.065 M 158 123.378 C 158 123.585, 158.675 124.315, 159.500 125 C 160.729 126.020, 161 125.951, 161 124.622 C 161 123.730, 160.325 123, 159.500 123 C 158.675 123, 158 123.170, 158 123.378 M 84.816 127.482 C 63.839 131.019, 64.327 131.193, 90.250 129.419 C 97.987 128.890, 99 128.599, 99 126.910 C 99 125.860, 98.888 125.039, 98.750 125.088 C 98.612 125.136, 92.342 126.213, 84.816 127.482 M 107.641 130.742 L 101.783 131.106 102.432 136.803 C 103.758 148.443, 103.475 148, 109.579 148 L 115 148 115 139 C 115 134.050, 114.662 130.085, 114.250 130.189 C 113.838 130.293, 110.864 130.542, 107.641 130.742 M 119.022 154.394 C 119.084 160.380, 126.513 170.646, 133.405 174.272 C 142.358 178.981, 157.060 176.176, 157.825 169.613 C 158.582 163.113, 146.967 157.152, 126.666 153.622 C 119.114 152.308, 119 152.320, 119.022 154.394" stroke="none" fill="black" fill-rule="evenodd"/>
</svg>