<svg xmlns="http://www.w3.org/2000/svg" width="200" height="200" viewBox="0 0 200 200" version="1.1">
	<path d="M 133 27.224 C 120.338 32.706, 103.626 33.310, 72.724 29.403 C 44.565 25.842, 37.875 26.913, 32.679 35.810 C 30.500 39.541, 30.219 49.041, 31.979 59.500 C 34.353 73.611, 32.324 108.002, 27.472 135.878 C 24.582 152.486, 20.552 169.032, 18.369 173.254 C 17.536 174.863, 17.110 176.845, 17.422 177.657 C 18.302 179.951, 25.129 175.705, 32.949 168 C 44.025 157.086, 48.911 145.739, 54.477 118 C 55.857 111.125, 57.724 103.475, 58.626 101 C 62.473 90.450, 68.840 86.009, 80 86.093 L 86.500 86.141 82.221 88.042 C 75.935 90.834, 71.489 94.556, 68.143 99.827 C 62.711 108.384, 61.840 113.268, 61.069 139.500 C 60.534 157.740, 59.994 164.340, 58.820 167 C 57.063 170.984, 54.382 173.631, 51.583 174.147 C 50.528 174.341, 49.467 175.096, 49.225 175.824 C 48.567 177.801, 169.887 176.843, 181.746 174.778 C 186.281 173.988, 190.239 173.094, 190.541 172.792 C 190.843 172.490, 188.947 170.987, 186.328 169.452 C 177.899 164.512, 172.950 158.486, 165.593 144.203 C 158.611 130.649, 155.430 126.887, 149.750 125.469 C 146.579 124.678, 146.646 124.914, 148.158 119.866 L 149.317 116 156.408 116.006 C 160.309 116.009, 165.230 116.491, 167.344 117.078 C 171.971 118.363, 172.898 117.711, 170.957 114.534 C 169.558 112.244, 160.401 103.795, 155.904 100.646 C 153.745 99.133, 153.745 99.123, 155.515 92.584 C 157.578 84.961, 155.675 85.705, 177.750 83.894 C 187.894 83.061, 192 82.363, 192 81.469 C 192 79.637, 190.537 79.280, 175.046 77.330 C 164.393 75.989, 161 75.218, 161 74.139 C 161 71.610, 165.030 59.100, 166.047 58.471 C 166.589 58.136, 166.784 57.460, 166.480 56.968 C 165.667 55.653, 170.090 40.689, 171.680 39.374 C 172.429 38.755, 174.832 37.963, 177.021 37.613 C 179.618 37.197, 181 36.453, 181 35.469 C 181 33.993, 179.781 34.025, 173.750 35.660 C 171.613 36.240, 171.578 35.448, 173.500 30 C 175.330 24.813, 175.329 25, 173.528 25 C 172.608 25, 171.468 27.022, 170.488 30.394 C 169.326 34.391, 168.348 35.941, 166.710 36.380 C 163.779 37.166, 139.108 36.980, 136.292 36.150 L 134.084 35.500 136.069 31.081 C 137.161 28.650, 137.929 26.350, 137.777 25.968 C 137.625 25.587, 135.475 26.152, 133 27.224 M 40.348 32.057 C 33.183 35.604, 32.453 39.857, 34.992 63.264 C 36.127 73.727, 36.160 79.223, 35.179 93.764 C 33.339 121.016, 27.960 154.084, 23.041 168.381 L 21.102 174.016 23.301 172.852 C 27.528 170.616, 37.528 159.417, 40.795 153.260 C 45.456 144.478, 47.459 138.121, 51.043 120.737 C 55.939 96.988, 59.063 90.117, 66.870 85.930 L 70.190 84.150 67.243 82.626 C 60.536 79.157, 54.693 69.664, 51.298 56.720 C 49.257 48.940, 49.524 48.163, 55.911 43.259 C 61.215 39.187, 71.253 36.096, 82.110 35.192 L 90.500 34.493 73 32.226 C 51.254 29.408, 45.757 29.380, 40.348 32.057 M 127 32.107 C 123.975 33.081, 119.925 33.959, 118 34.057 L 114.500 34.237 117.500 35 C 119.150 35.420, 122.874 35.817, 125.775 35.882 C 130.604 35.990, 131.134 35.777, 132.053 33.361 C 132.605 31.910, 132.931 30.636, 132.778 30.530 C 132.625 30.423, 130.025 31.133, 127 32.107 M 85.500 37.651 C 70.893 38.693, 60.845 41.863, 55.349 47.162 L 52.198 50.200 54.094 56.830 C 58.148 71.004, 64.946 80.149, 72.480 81.562 C 77.763 82.553, 84.376 80.302, 89.544 75.753 C 97.053 69.143, 99.506 61.667, 94.572 60.429 C 91.638 59.692, 89.652 60.216, 80.228 64.208 C 73.596 67.018, 70.203 67.387, 72.567 65.040 C 74.105 63.514, 110.597 47.197, 116.184 45.538 C 119.032 44.692, 123.081 44, 125.182 44 C 127.282 44, 129 43.587, 129 43.082 C 129 42.577, 129.258 41.491, 129.573 40.669 C 130.033 39.472, 128.888 39.064, 123.823 38.617 C 114.786 37.820, 91.392 37.230, 85.500 37.651 M 132.352 41.735 C 132.019 43.061, 132.141 44.486, 132.623 44.902 C 133.105 45.318, 139.554 47.809, 146.952 50.438 C 154.351 53.067, 160.959 55.431, 161.637 55.691 C 162.434 55.997, 163.608 53.752, 164.963 49.332 C 166.114 45.574, 167.263 41.825, 167.516 41 C 167.911 39.709, 165.541 39.488, 150.466 39.412 L 132.957 39.324 132.352 41.735 M 115.500 48.580 C 113.300 49.371, 107.764 51.671, 103.198 53.690 C 96.307 56.739, 95.202 57.530, 96.698 58.346 C 100.594 60.472, 101.014 64.092, 98.042 69.918 C 96.178 73.572, 87.679 82, 85.859 82 C 85.387 82, 85 82.392, 85 82.871 C 85 83.350, 87.250 84.041, 90 84.406 C 92.938 84.795, 95 85.577, 95 86.302 C 95 86.980, 92.093 88.298, 88.541 89.229 C 76.876 92.289, 71.436 97.267, 66.805 109.119 C 64.958 113.846, 64.618 117.501, 64.007 139.192 C 63.342 162.811, 63.203 164.104, 60.809 168.942 L 58.306 174 88.403 174.250 C 133.233 174.622, 159.207 174.213, 171.500 172.940 C 177.550 172.314, 182.698 171.610, 182.940 171.378 C 183.181 171.145, 182.281 170.209, 180.940 169.299 C 175.237 165.431, 169.606 157.883, 163.539 145.976 C 156.691 132.537, 155.399 130.901, 149.795 128.559 L 146.163 127.041 142.148 143.621 C 139.940 152.739, 137.908 160.425, 137.633 160.700 C 136.392 161.941, 135 159.554, 135 156.184 C 135 147.281, 131.007 141, 125.346 141 C 120.215 141, 113.750 143.915, 114.523 145.881 C 114.872 146.772, 115.901 150.306, 116.808 153.736 C 118.360 159.604, 118.355 160.074, 116.720 161.709 C 115.071 163.358, 114.817 163.356, 111.700 161.678 C 109.895 160.706, 105.302 157.216, 101.493 153.922 C 93.328 146.862, 93.274 146.903, 92.783 160.708 C 92.377 172.081, 90.711 172.421, 86.900 161.908 C 83.512 152.560, 82.075 145.029, 83.134 142.166 C 84.029 139.747, 86.966 139.337, 89.968 141.212 C 92.298 142.667, 92.565 142.439, 93.466 138.234 C 94.126 135.154, 93.947 134.877, 90.333 133.384 C 85.193 131.261, 83 129.163, 83 126.368 C 83 122.955, 86.767 120.820, 97.749 118.011 C 101.224 117.121, 102.367 116.201, 104.020 112.962 L 106.041 109 101.270 108.882 C 98.647 108.817, 95.259 108.479, 93.743 108.132 C 91.185 107.546, 91.725 107.053, 101.243 101.301 C 106.884 97.892, 112.284 94.808, 113.242 94.448 C 116.371 93.270, 116.545 96.930, 113.609 102.154 L 110.885 107 115.192 106.976 C 121.802 106.940, 127.311 105.332, 129.317 102.856 C 130.787 101.041, 131.004 99.647, 130.451 95.556 C 130.075 92.775, 129.433 90.371, 129.025 90.214 C 128.617 90.057, 127.432 89.269, 126.392 88.464 C 124.575 87.058, 124.571 86.945, 126.301 85.603 C 127.959 84.316, 128.009 83.505, 126.931 75.406 C 125.862 67.374, 126.203 55.176, 127.663 49.250 C 128.175 47.169, 127.890 47.005, 123.858 47.070 C 121.461 47.109, 117.700 47.788, 115.500 48.580 M 130.272 49.681 C 129.297 52.150, 129.310 74.390, 130.289 80.099 L 131.077 84.699 135.789 84.368 C 156.109 82.942, 155.765 83.009, 156.262 80.409 C 156.781 77.693, 157.068 77.810, 145.500 76.021 C 135.814 74.524, 132.825 73.217, 133.199 70.642 C 133.633 67.652, 138.258 64.927, 149.438 61.073 L 159.263 57.687 147.381 53.483 C 130.167 47.393, 131.094 47.599, 130.272 49.681 M 149.719 63.955 C 138.571 67.938, 135.329 69.729, 136.730 71.130 C 137.610 72.010, 156.862 75.491, 157.430 74.873 C 158.251 73.982, 161.780 60.005, 161.173 60.052 C 160.803 60.080, 155.648 61.837, 149.719 63.955 M 159.124 80.143 C 158.634 81.440, 158.334 82.616, 158.458 82.758 C 158.794 83.144, 177.171 81.162, 177.644 80.689 C 177.868 80.465, 175.003 79.971, 171.276 79.592 C 167.549 79.213, 163.491 78.652, 162.257 78.345 C 160.542 77.918, 159.805 78.341, 159.124 80.143 M 138.500 86.927 L 131.500 87.500 141.298 92.368 C 146.687 95.046, 151.219 97.071, 151.368 96.868 C 151.862 96.198, 154 88.290, 154 87.134 C 154 85.947, 150.957 85.906, 138.500 86.927 M 133 97.778 C 133 106.425, 129.830 108.746, 117.395 109.207 C 109.933 109.484, 109.401 109.657, 107.696 112.363 C 106.704 113.937, 106.110 115.444, 106.377 115.710 C 106.643 115.977, 110.830 115.670, 115.681 115.028 C 120.531 114.386, 129.647 113.555, 135.937 113.180 L 147.374 112.500 148.668 107.500 C 149.379 104.750, 149.970 101.960, 149.981 101.299 C 150 100.083, 139.392 93.773, 135.250 92.537 C 133.095 91.893, 133 92.114, 133 97.778 M 105.534 101.739 L 99.569 105.425 103.435 106.228 C 105.562 106.670, 107.398 106.912, 107.516 106.766 C 109.221 104.655, 112.831 98.007, 112.263 98.027 C 111.843 98.042, 108.815 99.712, 105.534 101.739 M 151.555 107.127 C 150.703 109.994, 150.118 112.428, 150.253 112.536 C 150.389 112.643, 154.325 112.976, 159 113.276 L 167.500 113.821 164 110.837 C 162.075 109.196, 158.836 106.516, 156.802 104.883 L 153.103 101.914 151.555 107.127 M 120.500 117.125 C 103.316 118.971, 103.894 118.710, 100.831 126.024 C 98.704 131.102, 98.419 132.568, 99.508 132.813 C 100.272 132.986, 105.083 131.787, 110.199 130.148 C 120.623 126.810, 134.268 124, 140.051 124 C 144.310 124, 144.474 123.856, 145.462 119.250 L 146.159 116 137.329 116.133 C 132.473 116.206, 124.900 116.652, 120.500 117.125 M 93.374 122.104 C 86.039 124.370, 84.228 126.033, 86.754 128.184 C 88.676 129.820, 94.893 132.495, 95.356 131.885 C 96.142 130.850, 100.098 120.767, 99.820 120.508 C 99.644 120.345, 96.743 121.063, 93.374 122.104 M 126.500 128.552 C 123.200 129.295, 116.675 131.094, 112 132.549 C 107.325 134.005, 102.045 135.425, 100.267 135.705 C 97.564 136.131, 96.869 136.811, 96.023 139.857 C 95.466 141.861, 95.009 143.802, 95.006 144.170 C 94.998 145.129, 112.874 160, 114.034 160 C 115.529 160, 115.187 156.858, 113 150.500 C 111.900 147.303, 111 144.287, 111 143.797 C 111 142.211, 121.391 138.020, 125.350 138.010 C 128.404 138.002, 129.905 138.705, 132.606 141.406 C 134.480 143.280, 136.316 146.317, 136.687 148.156 C 137.288 151.135, 137.667 150.300, 140.155 140.500 C 141.692 134.450, 142.960 128.938, 142.974 128.250 C 143.008 126.600, 134.475 126.756, 126.500 128.552 M 85.450 146.750 C 85.819 148.813, 86.879 152.949, 87.804 155.941 L 89.486 161.383 90.545 153.941 C 91.516 147.117, 91.445 146.355, 89.691 144.750 C 86.344 141.688, 84.683 142.471, 85.450 146.750" stroke="none" fill="black" fill-rule="evenodd"/>
</svg>