<svg xmlns="http://www.w3.org/2000/svg" width="200" height="200" viewBox="0 0 200 200" version="1.1">
	<path d="M 162.994 17.934 C 159.278 19.065, 154.211 21.808, 147.712 26.208 C 141.925 30.125, 141.922 30.126, 136.627 28.941 C 133.418 28.223, 128.408 28.006, 123.915 28.391 C 101.661 30.297, 90.171 30.216, 69.876 28.007 C 57.725 26.686, 45.808 25.951, 40.354 26.187 C 32.342 26.534, 30.614 26.951, 26.409 29.551 C 23.021 31.645, 20.858 33.978, 19.055 37.481 C 15.298 44.780, 15.438 59.203, 19.462 79.280 L 22.424 94.059 20.687 120.780 C 18.612 152.694, 18.597 156.433, 20.508 165.454 C 24.663 185.071, 39.323 188.458, 67.635 176.343 C 75.671 172.904, 75.862 172.874, 83.366 173.918 C 108.414 177.402, 163.189 175.564, 175.250 170.836 C 181.437 168.410, 177.576 164.482, 166.581 162.018 C 163.705 161.374, 158.440 158.536, 152.538 154.449 C 147.344 150.854, 140.598 146.408, 137.546 144.570 L 131.996 141.228 136.748 140.516 C 144.678 139.330, 160.138 135.140, 162.643 133.498 C 167.753 130.150, 164.905 126.643, 153 121.624 C 149.425 120.116, 144.785 117.760, 142.689 116.387 C 137.529 113.007, 137.881 109.817, 143.921 105.222 C 147.704 102.343, 148.468 102.085, 149.220 103.429 C 151.458 107.428, 154.040 103.079, 157.710 89.129 C 159.736 81.428, 160.283 76.797, 160.440 66 C 160.631 52.860, 160.733 52.283, 164.243 44.372 C 168.282 35.271, 171 26.802, 171 23.318 C 171 21.094, 167.809 16.907, 166.250 17.086 C 165.838 17.133, 164.372 17.515, 162.994 17.934 M 160.500 21.854 C 158.300 22.864, 153.864 25.380, 150.643 27.445 L 144.785 31.199 148.462 34.230 C 152.583 37.626, 156.572 43.446, 157.608 47.574 L 158.296 50.314 160.305 46.407 C 163.982 39.256, 168.106 26.704, 167.801 23.590 C 167.433 19.829, 165.772 19.434, 160.500 21.854 M 29.401 30.905 C 18.868 35.689, 16.390 49.707, 21.628 74.874 C 24.661 89.448, 24.940 100.678, 22.963 128.626 C 21.281 152.408, 21.912 163.944, 25.301 171.347 C 27.571 176.305, 28.564 177.362, 32.645 179.167 C 40.246 182.529, 51.529 180.551, 69 172.795 L 74.500 170.353 67.316 168.168 C 48.147 162.337, 41.499 149.009, 47.011 127.458 C 48.938 119.923, 48.957 119.135, 47.468 108.548 C 45.171 92.214, 45.392 70.502, 47.956 60.586 C 49.081 56.234, 51.095 50.808, 52.430 48.529 C 55.909 42.593, 62.829 36.593, 68.559 34.546 C 71.276 33.574, 74.175 32.528, 75 32.220 C 77.499 31.287, 57.265 29.194, 45 29.117 C 35.808 29.059, 32.677 29.418, 29.401 30.905 M 114.500 32 C 112.850 32.420, 108.800 32.869, 105.500 32.998 C 102.200 33.127, 100.400 33.449, 101.500 33.715 C 102.600 33.980, 108.268 35.728, 114.095 37.599 C 119.922 39.470, 125.322 40.988, 126.095 40.973 C 126.868 40.959, 130.094 38.988, 133.264 36.594 C 138.513 32.628, 138.825 32.186, 136.764 31.634 C 133.672 30.805, 118.194 31.060, 114.500 32 M 78 35.012 C 63.412 36.794, 54.875 45.198, 50.255 62.323 C 48.098 70.317, 48.136 95.426, 50.326 109.536 C 51.806 119.074, 51.787 119.941, 49.942 126.969 C 46.379 140.540, 47.638 150.372, 53.817 157.230 C 60.806 164.988, 71.520 168, 92.132 168 C 103.302 168, 123.996 166.036, 130.817 164.329 L 133.134 163.750 130.689 161.125 C 126.885 157.040, 125.684 154.024, 125.069 147.004 L 124.500 140.509 118 138.146 C 112.274 136.065, 110.876 135.909, 106.260 136.837 C 98.484 138.400, 92.958 142.751, 86.586 152.328 C 83.544 156.900, 80.180 161.432, 79.110 162.401 C 76.156 165.074, 72.968 163.998, 69.208 159.058 C 65.551 154.256, 65.613 155.184, 68.014 140.987 C 69.124 134.423, 69.066 132.467, 67.553 125.487 C 65.154 114.420, 64.621 108.032, 65.754 103.927 C 66.629 100.758, 66.322 99.745, 62.512 93.246 C 54.375 79.366, 52.036 67.268, 56.092 60.050 C 61.203 50.957, 72.523 47.296, 102.803 44.947 C 110.886 44.320, 118.155 43.443, 118.956 42.999 C 119.945 42.449, 117.699 41.367, 111.956 39.625 C 97.354 35.195, 87.484 33.854, 78 35.012 M 138.033 36.119 L 135.566 38.172 139.168 37.496 C 145.526 36.304, 144.525 38.763, 137.781 40.907 C 133.609 42.233, 132.759 42.715, 135.250 42.341 C 138.265 41.888, 139 42.093, 139 43.389 C 139 44.275, 138.662 45.004, 138.250 45.009 C 132.304 45.076, 113.872 47.449, 108.500 48.838 L 101.500 50.648 118.936 51.343 C 128.526 51.726, 136.574 52.240, 136.821 52.487 C 137.067 52.734, 136.703 54.302, 136.011 55.973 C 133.383 62.319, 123.440 68.495, 110.017 72.120 L 103.500 73.880 122.333 73.940 C 144.497 74.011, 145.883 74.970, 129.928 79.198 C 124.192 80.718, 112.750 84.108, 104.500 86.731 L 89.500 91.500 101.500 92.071 C 113.945 92.662, 119.210 94.136, 119.799 97.194 C 119.986 98.164, 118.952 99.640, 117.353 100.687 C 113.308 103.335, 98.541 103.113, 90.835 100.288 L 85.171 98.211 90.697 107.325 C 104.450 130.005, 106.227 131.806, 116.647 133.618 C 120.895 134.357, 124.586 134.747, 124.848 134.486 C 125.109 134.224, 126.394 129.876, 127.703 124.824 C 130.847 112.689, 136.285 98.858, 147.598 74.226 L 156.910 53.952 155.225 48.734 C 153.325 42.850, 145.606 33.979, 142.434 34.033 C 141.370 34.052, 139.390 34.990, 138.033 36.119 M 86.500 49.139 C 72.167 50.954, 61.321 55.545, 58.506 60.989 C 55.086 67.601, 57.502 79.233, 64.993 92.226 C 68.884 98.975, 68.980 99.364, 68.368 105.949 C 67.924 110.729, 68.248 115.015, 69.467 120.494 C 71.521 129.729, 71.609 140.505, 69.689 147.738 C 68.345 152.804, 68.382 153.099, 70.824 156.738 C 75.416 163.581, 76.022 163.410, 82.430 153.455 C 88.168 144.542, 96.639 136.488, 101.949 134.897 L 105.788 133.747 101.144 127.984 C 98.590 124.814, 92.947 116.321, 88.604 109.110 C 84.262 101.900, 80.099 96, 79.354 96 C 78.609 96, 78 95.357, 78 94.572 C 78 92.723, 94.876 86.410, 118 79.607 L 126.500 77.106 108.500 76.866 C 98.600 76.735, 87.013 76.760, 82.750 76.923 C 77.810 77.113, 75 76.839, 75 76.169 C 75 74.504, 75.996 74.239, 84.730 73.578 C 98.789 72.515, 111.797 69.496, 121.442 65.059 C 127.614 62.219, 133.969 56.636, 132.595 55.260 C 131.623 54.287, 85.049 54.262, 78.750 55.231 C 74.950 55.816, 74 55.675, 74 54.526 C 74 53.644, 75.445 52.853, 77.750 52.473 C 79.813 52.134, 85.100 51.166, 89.500 50.323 C 102.007 47.925, 100.569 47.358, 86.500 49.139 M 151.609 72.007 C 143.820 88.500, 139.513 98.538, 135.427 109.719 C 132.319 118.225, 128 133.433, 128 135.871 C 128 136.442, 129.523 137.195, 131.384 137.544 C 137.221 138.639, 160.867 132.899, 161.778 130.166 C 162.007 129.478, 157.743 126.915, 151.592 124.043 C 145.773 121.326, 139.884 117.975, 138.506 116.597 C 133.489 111.580, 136.467 105.695, 146.813 100.180 C 152.469 97.166, 152.799 96.774, 154.331 91.264 C 156.718 82.677, 158.147 72.039, 157.804 65.414 L 157.500 59.535 151.609 72.007 M 90.500 97.107 C 99.557 100.918, 120 100.603, 116.114 96.713 C 115.300 95.897, 110.089 95.419, 100.202 95.251 L 85.500 95.003 90.500 97.107 M 127.539 146.750 C 128.732 153.857, 130.132 156.909, 133.596 159.950 C 135.506 161.628, 137.616 162.999, 138.285 162.999 C 140.275 162.997, 154.087 160.247, 154.579 159.754 C 155.080 159.253, 137.388 147.252, 132.300 144.642 C 127.505 142.182, 126.823 142.484, 127.539 146.750 M 149 164 C 145.864 164.660, 146.071 164.743, 151 164.798 C 154.025 164.832, 157.400 164.473, 158.500 164 C 161.048 162.905, 154.202 162.905, 149 164 M 158.539 166.825 C 151.503 168.010, 148.235 168.104, 143.324 167.263 C 138.196 166.384, 134.857 166.537, 124.785 168.112 C 118.028 169.169, 106.425 170.359, 99 170.757 C 86.184 171.444, 85.855 171.513, 92.500 172.116 C 122.638 174.852, 186.316 170.391, 172.765 166.493 C 168.573 165.287, 167.528 165.311, 158.539 166.825" stroke="none" fill="black" fill-rule="evenodd"/>
</svg>