<svg xmlns="http://www.w3.org/2000/svg" width="200" height="200" viewBox="0 0 200 200" version="1.1">
	<path d="M 55.500 14.141 C 46.464 15.288, 37.145 17.675, 34.218 19.593 C 32.948 20.425, 31.375 22.319, 30.721 23.803 C 30.068 25.286, 28.082 28.553, 26.308 31.063 C 21.659 37.638, 18.021 45.951, 18.010 50.027 C 17.989 57.451, 22.908 60.688, 36.050 61.901 C 41.009 62.358, 45.305 62.972, 45.598 63.265 C 45.891 63.557, 43.598 65.305, 40.502 67.148 C 32.784 71.745, 30.366 73.693, 31.261 74.592 C 32.071 75.405, 37.732 72.544, 44.808 67.746 C 47.998 65.582, 49.036 64.263, 48.808 62.662 C 48.526 60.680, 47.598 60.407, 37.665 59.382 C 24.510 58.024, 21.659 56.437, 21.196 50.217 C 20.859 45.691, 23.020 40.619, 28.674 32.672 C 30.563 30.016, 32.514 26.777, 33.010 25.474 C 33.505 24.171, 34.963 22.415, 36.248 21.573 C 38.636 20.008, 49.532 17.579, 58.500 16.612 L 63.500 16.073 59.568 18.154 C 54.534 20.818, 42 33.043, 42 35.288 C 42 37.270, 44.187 37.499, 47.316 35.846 C 48.517 35.211, 53.268 31.611, 57.873 27.846 C 64.547 22.389, 66.931 21, 69.623 21 L 73 21 72.988 26.750 C 72.982 29.913, 72.323 34.954, 71.525 37.953 C 70.727 40.953, 70.204 43.537, 70.364 43.697 C 70.523 43.856, 74.344 42.640, 78.856 40.993 C 91.060 36.539, 91.322 36.781, 84.250 45.981 C 75.099 57.886, 73 61.378, 73 64.696 C 73 68.507, 75.122 70, 80.538 70 L 84.207 70 81.026 73.623 C 77.130 78.060, 77.459 80.298, 83.078 87.592 C 85.235 90.393, 87 93.127, 87 93.668 C 87 95.051, 83.084 98.471, 79.326 100.369 C 72.868 103.632, 28.445 115.778, 27.269 114.603 C 26.982 114.316, 30.785 109.900, 35.719 104.790 C 40.653 99.681, 45.435 94.060, 46.345 92.300 C 49.739 85.736, 47.864 79.906, 41.300 76.608 C 34.226 73.054, 32.762 75.318, 39.753 79 C 43.501 80.974, 44.569 82.104, 44.828 84.371 C 45.415 89.505, 44.084 91.885, 35.647 100.788 C 21.856 115.340, 21.187 117.624, 30.973 116.736 C 37.715 116.125, 71.126 106.790, 78.990 103.320 C 90.283 98.337, 91.649 94.118, 84.829 85.279 C 79.325 78.144, 79.960 76.025, 89.087 71.074 C 96.313 67.154, 97.374 64.659, 91.205 66.092 C 89.167 66.565, 84.961 66.963, 81.857 66.976 C 72.838 67.014, 73.220 64.925, 85.065 49.424 C 95.221 36.133, 94.093 32.812, 80.970 37.376 C 74.808 39.519, 73.929 39.627, 74.486 38.177 C 74.841 37.255, 75.390 32.837, 75.706 28.360 L 76.282 20.220 80.891 19.637 C 98.273 17.438, 112.911 17.752, 116.536 20.402 C 119.405 22.500, 117.727 25.842, 108.568 36.278 C 99.160 46.998, 97 50.470, 97 54.878 C 97 57.849, 100.776 62, 103.480 62 C 104.145 62, 105.397 62.787, 106.260 63.750 C 114.256 72.660, 101.192 101.538, 83 115.169 C 72.606 122.956, 68.144 124.423, 54 124.702 C 38.883 125, 32.500 125.987, 32.500 128.028 C 32.500 129.072, 34.245 129.732, 38.500 130.298 C 61.099 133.304, 69.315 135.458, 73.271 139.414 C 79.424 145.567, 68.532 156.038, 43.727 167.815 C 28.132 175.219, 24.785 177.484, 25.195 180.358 C 25.437 182.060, 26.299 182.565, 29.392 182.819 C 41.159 183.783, 72.166 172.355, 86.382 161.816 C 89.796 159.284, 91.339 157.188, 92.907 152.951 C 97.198 141.356, 104.172 133.916, 112.091 132.486 C 120.120 131.035, 130.150 136.547, 134.017 144.534 C 136.799 150.281, 136.056 153.372, 131.089 156.719 C 128.240 158.639, 126.389 159, 119.401 159 C 114.835 159, 108.795 158.506, 105.980 157.902 C 103.165 157.299, 100.569 157.098, 100.211 157.456 C 99.015 158.652, 104.417 167.441, 109.488 172.549 C 116.889 180.006, 122.657 182.500, 132.500 182.500 C 138.876 182.500, 141.469 182.023, 145.270 180.151 C 155.707 175.012, 164.420 162.085, 167.492 147.185 C 168.963 140.048, 169.677 113, 168.394 113 C 168.061 113, 166.493 114.090, 164.910 115.422 C 159.917 119.623, 151.447 122.154, 140.500 122.715 C 114.144 124.067, 98.800 113.992, 110.490 103.009 C 112.668 100.964, 113.186 100.897, 118.430 101.985 C 125.402 103.433, 129.194 102.646, 133.509 98.858 C 138.996 94.040, 140.500 87.998, 140.500 70.767 L 140.500 56.034 142.852 62.267 C 144.371 66.293, 145.511 72.233, 146.071 79.043 C 147.989 102.373, 155.142 113.009, 166.756 109.802 C 171.262 108.557, 179.332 101.012, 181.958 95.587 C 186.022 87.191, 183.835 82, 176.234 82 C 172.184 82, 172.131 81.954, 172.522 78.750 C 173.796 68.313, 173.864 65.304, 172.981 58.271 C 171.771 48.639, 167.451 39.398, 161.960 34.698 C 159.785 32.836, 154.214 28.996, 149.582 26.165 C 144.949 23.334, 140.111 19.704, 138.830 18.098 C 136.594 15.297, 136.006 15.134, 124.328 14.089 C 110.121 12.818, 65.662 12.852, 55.500 14.141 M 74.566 15.898 C 70.825 17.363, 74.603 17.563, 84.500 16.424 L 94.500 15.273 85.500 15.207 C 80.550 15.170, 75.630 15.481, 74.566 15.898 M 116.655 17.451 C 123.169 20.285, 121.789 25.553, 111.536 37 C 98.409 51.656, 97.131 55.753, 104.500 59.563 C 110.007 62.410, 111.132 65.010, 110.787 74.095 C 110.530 80.884, 109.980 82.736, 105.601 91.557 C 101.442 99.935, 99.328 102.795, 91.601 110.500 C 78.058 124.006, 66.909 128.897, 52.878 127.488 C 48.616 127.060, 46 127.167, 46 127.769 C 46 128.304, 48.739 129.052, 52.087 129.430 C 66.637 131.076, 78 137.137, 78 143.250 C 78 150.278, 66.093 160.081, 45.500 170.008 C 37.800 173.720, 30.600 177.518, 29.500 178.448 C 27.593 180.060, 27.807 180.115, 34.067 179.624 C 41.532 179.039, 56.771 174.421, 67.756 169.415 C 76.578 165.395, 89 157.343, 89 155.645 C 89 152.881, 96.017 140.210, 99.531 136.630 C 104.241 131.831, 108.486 130, 114.903 130 C 127.243 130, 138 139.431, 138 150.249 C 138 154.094, 137.526 155.221, 135.025 157.325 C 130.131 161.443, 125.771 162.351, 114.266 161.647 L 103.913 161.014 106.857 165.257 C 110.775 170.905, 114.557 174.331, 120 177.160 C 125.894 180.225, 139.589 180.494, 144.858 177.650 C 153.760 172.844, 160.634 162.659, 164.089 149.154 C 166.257 140.682, 167.629 122.220, 166.239 120.225 C 165.544 119.227, 164.138 119.505, 159.764 121.508 C 144.004 128.723, 116.412 126.512, 106.750 117.259 C 103.210 113.869, 103.068 108.835, 106.376 103.967 C 109.750 99.002, 112.998 97.455, 117.069 98.874 C 118.845 99.493, 122.084 100, 124.267 100 C 127.522 100, 128.912 99.323, 131.997 96.238 C 137.388 90.847, 138.426 84.921, 137.682 63.780 C 137.341 54.096, 137.476 46.824, 138.004 46.498 C 139.095 45.823, 141.011 49.368, 144.558 58.629 C 146.290 63.147, 147.674 69.757, 148.603 77.934 C 150.250 92.447, 152.324 99.766, 156.057 104.238 C 158.257 106.873, 159.463 107.455, 162.729 107.455 C 170.762 107.455, 180.255 97.929, 180.417 89.705 L 180.500 85.500 174.642 85.623 L 168.785 85.746 169.406 81.861 C 172.827 60.468, 169.758 45.435, 160.208 36.807 C 158.036 34.845, 152.939 31.308, 148.880 28.946 C 144.821 26.584, 139.983 23.146, 138.129 21.305 C 135.018 18.216, 134.056 17.885, 125.629 16.997 C 113.816 15.752, 112.861 15.800, 116.655 17.451 M 65.813 18.683 C 66.534 18.972, 67.397 18.936, 67.729 18.604 C 68.061 18.272, 67.471 18.036, 66.417 18.079 C 65.252 18.127, 65.015 18.364, 65.813 18.683 M 58.921 21.938 C 56.490 23.554, 52.700 26.780, 50.500 29.106 L 46.500 33.336 52.500 28.646 C 65.271 18.662, 67.752 16.070, 58.921 21.938" stroke="none" fill="black" fill-rule="evenodd"/>
</svg>