<svg xmlns="http://www.w3.org/2000/svg" width="200" height="200" viewBox="0 0 200 200" version="1.1">
	<path d="M 133 15.111 C 128.325 16.140, 115.725 18.838, 105 21.107 C 94.275 23.376, 80.043 26.728, 73.373 28.555 C 61.634 31.771, 61.089 31.830, 56.373 30.381 C 53.693 29.558, 47.881 28.881, 43.458 28.878 C 33.554 28.871, 25.560 31.592, 20.056 36.842 C 14.824 41.833, 13.864 45.877, 15.270 57.013 C 16.112 63.686, 16.103 74.014, 15.232 97.727 C 14.075 129.275, 14.517 142.069, 16.987 148.498 C 20.305 157.133, 25.606 157.213, 34.635 148.764 L 37.770 145.831 41.635 149.880 C 51.227 159.930, 56.583 154.910, 64.980 128 C 70.292 110.977, 74.023 103.065, 78.658 98.995 C 81.738 96.291, 82.860 95.878, 85.819 96.358 C 91.406 97.265, 91.588 98.307, 87.174 104.154 C 80.149 113.461, 79.533 117.744, 83.372 130.574 C 84.677 134.933, 86.053 140.750, 86.432 143.500 L 87.119 148.500 82.713 148.500 C 77.371 148.500, 75 150.259, 75 154.221 C 75 159.052, 77.780 163.550, 84.941 170.305 C 98.938 183.510, 111.451 185.763, 116.506 175.989 C 118.501 172.130, 118.451 159.281, 116.402 149.108 C 115.232 143.305, 115.090 140.681, 115.871 139.337 C 116.861 137.634, 116.941 137.662, 116.970 139.715 C 116.986 140.934, 118.312 143.425, 119.916 145.251 L 122.831 148.572 121.286 155.036 C 117.991 168.820, 119.617 181.119, 125.125 184.067 C 128.497 185.872, 135.304 184.250, 141.672 180.125 C 148.954 175.408, 160.704 162.907, 163.963 156.410 C 168.298 147.768, 166.727 141, 160.386 141 C 155.075 141, 149.134 132.299, 150.561 126.611 C 151.416 123.208, 156.859 118.510, 161.664 117.030 C 163.774 116.380, 166.173 115.629, 166.995 115.361 C 167.903 115.066, 165.647 113.379, 161.254 111.067 C 150.088 105.192, 149.798 104.744, 152.127 96.972 L 153.253 93.211 157.377 95.084 C 164.149 98.159, 168.164 97.333, 170.837 92.316 C 174.973 84.549, 167.042 69.753, 157.315 67.092 C 154.562 66.339, 154.634 66.253, 160.601 63.222 C 168.157 59.382, 173 55.393, 173 53.009 C 173 50.636, 168.241 49, 161.338 49 L 155.975 49 159.390 42.218 C 167.133 26.842, 166.021 20.625, 156.304 24.975 C 149.434 28.051, 128.167 42.898, 127.466 45.109 C 126.253 48.928, 129.017 50.243, 140.050 51.098 C 145.643 51.531, 150.428 52.095, 150.685 52.352 C 150.942 52.608, 149.304 56.185, 147.045 60.301 C 144.087 65.689, 142.108 68.127, 139.969 69.013 C 136.624 70.398, 136.244 71.477, 138.628 72.812 C 139.634 73.375, 139.859 73.969, 139.216 74.366 C 138.644 74.720, 136.709 73.158, 134.917 70.895 L 131.658 66.780 125.579 67.447 C 122.236 67.814, 117.925 68.575, 116 69.138 C 112.944 70.032, 110.851 69.598, 99.500 65.720 L 86.500 61.278 86.201 57.836 C 85.704 52.103, 91.450 46.618, 102.230 42.535 C 107.625 40.492, 107.632 39.513, 102.261 38.557 C 93.847 37.060, 86.800 34.692, 88.284 33.861 C 89.094 33.408, 95.548 32.334, 102.628 31.475 C 135.314 27.507, 144.707 25.591, 149.342 21.945 C 152.533 19.435, 152.657 18.083, 149.961 15.189 C 147.501 12.549, 144.702 12.536, 133 15.111 M 118.500 20.959 C 95.097 25.883, 71.675 31.413, 67.501 32.999 C 65.200 33.874, 65.205 33.890, 68.929 37.805 C 73.026 42.112, 75.517 49.026, 74.780 54.047 C 74.306 57.275, 74.560 57.507, 80.618 59.392 C 82.471 59.969, 82.815 59.557, 83.368 56.103 C 84.146 51.234, 87.584 47.020, 93.705 43.433 L 98.375 40.696 92.951 39.308 C 82.751 36.698, 80.520 33.070, 87.849 31.016 C 89.857 30.453, 100.725 28.861, 112 27.477 C 139.208 24.139, 149.916 21.285, 148.735 17.686 C 147.993 15.428, 141.397 16.142, 118.500 20.959 M 153.941 29.293 C 148.946 32.317, 143.642 35.773, 133.750 42.450 C 127.272 46.822, 128.790 47.827, 143.201 48.705 L 152.949 49.299 156.963 40.899 C 161.665 31.060, 162.974 26, 160.816 26 C 160.028 26, 156.934 27.482, 153.941 29.293 M 34.500 32.338 C 28.398 33.913, 25.337 35.464, 21.773 38.787 C 17.432 42.835, 16.618 46.762, 18.040 56.784 C 19.020 63.684, 19.010 72.109, 17.995 97.979 C 17.022 122.767, 16.990 132.504, 17.862 138.930 C 19.857 153.632, 23.406 155.536, 32.441 146.750 L 37.840 141.500 42.700 146.913 C 51.122 156.293, 53.650 153.684, 62.622 126.352 C 68.515 108.402, 70.457 103.987, 74.656 98.998 C 79.680 93.027, 85.516 91.983, 92.250 95.851 C 95.552 97.748, 95.697 99.063, 92.884 101.595 C 89.566 104.582, 84.888 111.821, 83.852 115.574 C 83.096 118.311, 83.499 121.130, 85.877 129.745 C 87.509 135.660, 89.109 143.092, 89.432 146.260 L 90.020 152.020 84.726 151.398 C 80.513 150.903, 79.154 151.110, 78.074 152.411 C 74.770 156.392, 86.233 170.755, 97.102 176.254 C 112.215 183.901, 118.247 176.285, 114.408 154.404 C 113.452 148.957, 112.723 143.713, 112.788 142.750 C 112.853 141.787, 112.953 135.262, 113.011 128.250 C 113.098 117.597, 112.613 113.115, 110.062 101 C 106.648 84.790, 106.310 79.234, 108.483 75.033 L 109.966 72.166 99.304 68.595 C 93.440 66.632, 88.445 65.221, 88.205 65.461 C 87.965 65.702, 88.271 67.338, 88.884 69.098 C 91.832 77.555, 88.465 82.017, 77.725 83.887 C 70.118 85.212, 56 85.365, 56 84.122 C 56 83.640, 56.722 82.645, 57.605 81.913 C 61.334 78.818, 72.054 60.671, 70.834 59.519 C 69.946 58.681, 46.764 51.903, 46.316 52.350 C 46.033 52.633, 46.746 56.889, 47.901 61.806 C 50.332 72.163, 50.538 80.829, 48.571 90 C 46.674 98.841, 45.162 102.562, 43.955 101.355 C 43.327 100.727, 43.693 97.610, 44.992 92.532 C 47.011 84.638, 47.522 71.762, 46.066 65.500 C 45.417 62.713, 45.317 62.856, 44.659 67.500 C 43.466 75.924, 42.033 96.051, 42.016 104.625 C 41.995 115.312, 42.729 118.696, 45.208 119.344 C 47.606 119.971, 46.665 122, 43.976 122 C 40.302 122, 39.493 118.382, 39.615 102.500 C 39.678 94.250, 40.429 80.075, 41.283 71 C 42.138 61.925, 42.787 52.136, 42.726 49.246 C 42.628 44.590, 42.988 43.607, 45.895 40.609 C 47.698 38.748, 50.977 36.412, 53.180 35.419 C 56.871 33.755, 57.014 33.549, 55.002 32.805 C 50.900 31.288, 39.571 31.030, 34.500 32.338 M 55.500 37.400 C 48.351 40.805, 46.856 42.200, 46.614 45.694 L 46.400 48.789 58.057 52.395 C 64.468 54.378, 70.228 56, 70.857 56 C 72.573 56, 72.252 48.334, 70.370 44.366 C 68.961 41.399, 62.550 34.981, 61.022 35.010 C 60.735 35.015, 58.250 36.091, 55.500 37.400 M 150.799 59.017 C 148.763 62.858, 147.340 66, 147.637 66 C 148.673 66, 166.514 57.031, 168.350 55.588 C 171.442 53.157, 169.283 51.999, 161.691 52.017 L 154.500 52.034 150.799 59.017 M 71.162 66.356 C 69.552 69.735, 66.622 74.727, 64.651 77.450 C 62.679 80.172, 61.164 82.488, 61.283 82.596 C 62.155 83.387, 80.778 80.724, 83.537 79.415 C 87.546 77.513, 87.944 75.128, 85.467 67.859 C 84.073 63.766, 83.492 63.219, 79.012 61.787 L 74.089 60.212 71.162 66.356 M 145.883 70.171 C 144.994 70.902, 143.436 72.959, 142.422 74.742 L 140.578 77.984 144.539 82.061 C 154.202 92.008, 165.429 96.803, 167.965 92.066 C 170.763 86.838, 167.553 77.049, 161.537 72.460 C 157.242 69.184, 148.617 67.923, 145.883 70.171 M 120.750 70.716 C 119.237 70.945, 118.002 71.440, 118.004 71.816 C 118.006 72.192, 121.937 74.075, 126.740 76 C 131.543 77.925, 135.816 79.650, 136.236 79.833 C 138.002 80.604, 136.780 77.609, 133.833 73.941 C 130.541 69.845, 129.003 69.466, 120.750 70.716 M 111.035 75.934 C 109.329 79.123, 109.850 87.151, 112.577 99.670 C 113.994 106.176, 115.413 115.706, 115.729 120.846 L 116.305 130.193 118.073 123.232 C 120.099 115.253, 125.234 102.468, 131.088 90.825 C 133.309 86.408, 134.935 82.602, 134.701 82.368 C 133.836 81.503, 114.781 74, 113.450 74 C 112.691 74, 111.605 74.870, 111.035 75.934 M 131.650 95.942 C 123.341 113.505, 119.703 124.935, 119.592 133.827 C 119.504 140.850, 119.632 141.273, 122.685 144.005 L 125.870 146.856 123.847 156.678 C 121.570 167.739, 121.765 175.467, 124.425 179.527 C 126.021 181.962, 126.652 182.187, 130.635 181.738 C 139.366 180.754, 154.675 167.716, 160.972 155.902 C 165.253 147.870, 164.853 145.106, 159.169 143.436 C 151.703 141.242, 148 136.318, 148 128.584 C 148 124.995, 148.614 123.370, 150.995 120.658 C 152.643 118.782, 155.343 116.686, 156.995 116.002 C 160.752 114.446, 160.778 113.565, 157.114 112.047 C 152.919 110.310, 148 105.128, 148 102.446 C 148 101.173, 148.461 98.916, 149.025 97.433 C 149.589 95.950, 149.781 93.885, 149.450 92.844 C 148.924 91.186, 139.550 84, 137.913 84 C 137.576 84, 134.757 89.374, 131.650 95.942" stroke="none" fill="black" fill-rule="evenodd"/>
</svg>