<svg xmlns="http://www.w3.org/2000/svg" width="200" height="200" viewBox="0 0 200 200" version="1.1">
	<path d="M 32.036 24.250 C 26.073 27.307, 24 31.497, 24.001 40.484 C 24.003 47.498, 28.184 67.584, 30.027 69.427 C 32.150 71.550, 32.026 68.635, 29.581 58.938 C 26.591 47.082, 26.152 35.541, 28.517 30.967 C 32.150 23.941, 39.147 23.485, 65.200 28.576 L 83.500 32.152 103 31.469 C 113.766 31.092, 122.128 31.169, 121.670 31.640 C 121.213 32.109, 109.963 32.791, 96.670 33.154 C 75.159 33.742, 63.878 34.670, 54.604 36.615 L 51.709 37.223 52.245 55.370 C 52.906 77.709, 51.663 106.488, 49.520 118.500 C 47.536 129.619, 41.367 148.335, 36.503 157.993 C 33.125 164.702, 24.865 175, 22.863 175 C 21.197 175, 22.036 167.900, 25.958 148.787 C 31.881 119.929, 33.157 111.496, 33.263 100.500 C 33.368 89.771, 31.840 83, 29.315 83 C 28.244 83, 28.007 83.523, 28.526 84.750 C 32.372 93.842, 31.283 108.283, 24.015 144.568 C 21.269 158.280, 19.017 170.701, 19.011 172.168 C 18.979 179.970, 22.940 180.035, 29.965 172.348 C 41.214 160.040, 51.087 133.047, 53.944 106.789 C 54.525 101.449, 55 84.065, 55 68.160 L 55 39.242 62.250 38.049 C 66.237 37.394, 79.216 36.607, 91.091 36.301 C 109.629 35.824, 113.023 35.967, 115.091 37.310 C 118.040 39.225, 126.428 40.698, 143.452 42.289 L 156.403 43.500 144.269 48.316 C 125.007 55.961, 125.080 58, 144.616 58 L 158.113 58 156.307 61.106 C 154.073 64.945, 153.189 65.276, 139.262 67.484 C 128.265 69.228, 124.504 70.904, 126.689 73.089 C 127.241 73.641, 131.925 74.605, 137.097 75.230 C 142.269 75.855, 146.641 76.463, 146.814 76.581 C 146.987 76.699, 145.765 80.658, 144.099 85.378 C 142.433 90.099, 139.876 99.708, 138.417 106.731 C 136.958 113.754, 135.172 120.946, 134.448 122.714 C 132.811 126.712, 129.490 127.687, 122.788 126.140 C 115.839 124.536, 100 117.006, 100 115.306 C 100 114.534, 98.126 113.063, 95.835 112.038 L 91.670 110.173 98.585 105.739 C 102.388 103.300, 108.425 99.690, 112 97.717 L 118.500 94.129 124.500 95.550 C 131.294 97.158, 138.660 97.673, 139.719 96.614 C 140.852 95.481, 138.647 92.756, 133.732 89.218 L 129.173 85.937 123.747 88.598 L 118.321 91.259 105.380 88.130 C 98.263 86.408, 91.404 85, 90.137 85 C 88.870 85, 87.998 84.662, 88.199 84.250 C 91.319 77.846, 91.116 78, 96.438 78 C 102.722 78, 106.809 75.680, 104.798 73.255 C 104.084 72.394, 102.037 71.079, 100.249 70.331 L 96.998 68.972 101.071 60.979 C 103.311 56.583, 104.994 52.201, 104.812 51.243 C 104.025 47.114, 97.839 49.102, 86.985 56.973 L 81.471 60.972 75.485 59.992 C 72.193 59.453, 67.550 59.009, 65.167 59.006 C 57.344 58.995, 61.086 61.340, 75.570 65.524 C 93.965 70.839, 92.392 70.045, 90.921 73.273 L 89.682 75.993 73.719 75.335 L 57.757 74.677 58.986 76.975 C 59.952 78.779, 59.969 83.437, 59.064 98.689 C 57.015 133.255, 57.723 162.873, 60.854 173.558 C 62.155 177.997, 64.502 182.239, 66.815 184.333 C 68.812 186.140, 68.901 186.034, 74.448 175.189 C 84.076 156.366, 90.388 148, 94.961 148 C 99.477 148, 105.051 159.090, 110.911 179.730 C 113.061 187.303, 115.080 192.825, 115.399 192 C 115.717 191.175, 118.165 183.975, 120.838 176 C 126.596 158.820, 131.597 146.579, 133.506 144.995 C 135.454 143.378, 136.501 147.910, 138.904 168.359 C 139.994 177.632, 141.033 185.366, 141.214 185.547 C 141.395 185.728, 144.482 184.887, 148.074 183.678 C 156.597 180.810, 161.958 176.445, 165.735 169.296 C 170.786 159.736, 171.352 154.631, 170.591 125.500 C 169.870 97.872, 170.449 91.414, 174.206 85.226 C 175.299 83.425, 177.528 81.261, 179.160 80.417 C 184.450 77.682, 182.080 76.565, 168.422 75.356 C 161.315 74.727, 154.671 74.165, 153.658 74.106 C 151.871 74.003, 151.871 73.905, 153.670 70.825 C 155.334 67.976, 156.385 67.465, 163.898 65.848 C 176.461 63.146, 183.465 59.179, 181.444 55.910 C 181.135 55.409, 177.046 55, 172.357 55 L 163.832 55 167.142 50.750 C 168.962 48.413, 174.274 42.749, 178.946 38.163 C 187.240 30.023, 187.358 29.841, 183.970 30.426 C 174.347 32.086, 161.006 32.969, 147.500 32.842 C 139.250 32.764, 133.705 32.516, 135.177 32.291 C 138.721 31.749, 140.883 29.276, 138.584 28.394 C 137.681 28.048, 128.068 28.091, 117.221 28.490 C 87.757 29.574, 83.976 29.363, 64.126 25.524 C 42.603 21.363, 38.022 21.181, 32.036 24.250 M 167.500 35.033 C 163.650 35.428, 151.313 35.807, 140.083 35.876 C 128.854 35.944, 119.890 36.223, 120.163 36.496 C 120.677 37.010, 141.651 39.426, 155.250 40.537 C 160.689 40.982, 163 41.565, 163 42.493 C 163 43.258, 157.340 46.063, 149.554 49.157 C 142.158 52.096, 136.466 54.860, 136.903 55.300 C 137.341 55.740, 142.912 55.788, 149.283 55.407 L 160.866 54.714 163.874 50.607 C 165.529 48.348, 169.600 43.688, 172.922 40.250 C 179.604 33.335, 180.032 33.747, 167.500 35.033 M 97.387 53.389 C 95.125 54.676, 90.686 57.683, 87.522 60.071 L 81.771 64.413 87.636 66.070 C 90.861 66.981, 93.849 67.529, 94.275 67.289 C 95.450 66.625, 102.154 52.960, 101.805 51.940 C 101.637 51.450, 99.649 52.102, 97.387 53.389 M 159.659 61 C 158.343 63.227, 158.223 63.996, 159.193 63.985 C 161.942 63.954, 173.261 60.925, 175.820 59.535 C 178.345 58.164, 178.007 58.078, 169.966 58.040 C 161.526 58, 161.411 58.033, 159.659 61 M 141 69.796 C 130.741 71.452, 131.068 72.116, 142.733 73.322 C 148.898 73.959, 148.983 73.933, 150.509 70.983 C 151.357 69.342, 151.702 68.059, 151.276 68.131 C 150.849 68.203, 146.225 68.952, 141 69.796 M 94.162 73.112 C 93.071 74.859, 93.323 75, 97.551 75 C 102.466 75, 102.733 73.800, 98.173 72.210 C 95.822 71.391, 95.142 71.544, 94.162 73.112 M 148.230 82.189 C 144.435 92.480, 143.002 97.621, 140.526 109.824 C 139.151 116.602, 137.259 123.445, 136.322 125.031 C 132.443 131.598, 126.027 131.364, 109.197 124.042 C 98.306 119.304, 97.802 119.185, 94.492 120.568 C 90.057 122.421, 83.586 122.411, 82.040 120.548 C 78.653 116.467, 85.365 110.087, 105.328 98.414 L 114.311 93.161 110.406 92.118 C 102.974 90.134, 93.494 88.030, 92 88.032 C 91.175 88.033, 92.706 89.333, 95.401 90.920 L 100.303 93.805 96.401 95.790 C 89.284 99.413, 85.311 100.073, 82.811 98.048 C 80.741 96.372, 80.684 95.991, 81.890 91.881 C 82.597 89.471, 84.261 85.531, 85.587 83.124 C 86.914 80.717, 88 78.580, 88 78.374 C 88 78.168, 82.227 78, 75.172 78 L 62.344 78 62.181 86.250 C 62.091 90.787, 61.515 104.400, 60.901 116.500 C 59.382 146.427, 60.798 167.233, 65 176.733 C 66.038 179.080, 67.250 180.998, 67.694 180.995 C 68.137 180.993, 70.890 176.280, 73.811 170.522 C 82.271 153.849, 89.726 145, 95.315 145 C 100.118 145, 105.621 153.983, 110.938 170.500 C 112.709 176, 114.388 181.175, 114.670 182 C 114.951 182.825, 117.303 177.425, 119.897 170 C 128.245 146.095, 131.887 139.799, 136.070 142.037 C 138.251 143.205, 139.350 148.246, 141.567 167.250 C 142.881 178.505, 143.624 182, 144.706 182 C 147.633 182, 157.008 176.780, 159.614 173.699 C 167.512 164.362, 169.574 152.112, 167.928 124.310 C 166.400 98.508, 167.789 87.942, 173.520 81.762 L 176.037 79.047 173.768 78.580 C 172.521 78.323, 166.705 77.835, 160.845 77.496 L 150.189 76.879 148.230 82.189 M 84.975 91.565 C 82.778 97.345, 83.870 97.901, 91.628 94.951 L 94.344 93.919 90.725 91.459 C 86.250 88.418, 86.171 88.420, 84.975 91.565 M 126.250 90.280 C 122.910 91.803, 123.498 92.746, 128.250 93.485 C 130.588 93.849, 133.396 94.403, 134.492 94.717 C 136.273 95.228, 136.334 95.107, 135.065 93.578 C 132.566 90.567, 128.751 89.139, 126.250 90.280 M 85.241 115.986 C 83.441 118.868, 83.575 119.002, 88.250 118.985 C 94.471 118.962, 96.060 117.599, 92.195 115.601 C 88.140 113.504, 86.742 113.581, 85.241 115.986" stroke="none" fill="black" fill-rule="evenodd"/>
</svg>