<svg xmlns="http://www.w3.org/2000/svg" width="200" height="200" viewBox="0 0 200 200" version="1.1">
	<path d="M 80.823 17.750 C 79.420 19.262, 75.899 24.100, 73 28.500 C 65.919 39.246, 63.361 41.907, 60.764 41.228 C 59.026 40.773, 58.777 41.041, 59.252 42.855 C 59.935 45.468, 57.606 47, 52.951 47 C 50.593 47, 48.940 46.095, 46.564 43.500 C 44.801 41.575, 43.052 40, 42.679 40 C 41.440 40, 42.042 42.471, 43.783 44.531 C 48.860 50.537, 54.498 51.508, 60.527 47.417 C 64.111 44.985, 64.603 44.906, 68.917 46.073 C 75.912 47.964, 81 50.112, 81 51.174 C 81 53.767, 78.701 55.872, 75.263 56.429 C 73.193 56.763, 60.755 57.671, 47.622 58.446 C 33.797 59.262, 23.290 60.310, 22.665 60.935 C 21.893 61.707, 22.003 62.432, 23.055 63.483 C 24.298 64.726, 25.984 64.786, 34.012 63.872 C 44.700 62.655, 58.590 63.175, 61.840 64.915 C 63.028 65.550, 64 66.834, 64 67.767 C 64 70.406, 52.476 80.746, 40.432 88.912 C 22.206 101.271, 18.811 104.529, 22.067 106.542 C 22.654 106.904, 26.046 106.652, 29.604 105.980 C 34.633 105.031, 37.122 103.889, 40.786 100.845 C 47.153 95.558, 54.518 92.081, 60.969 91.317 C 66.224 90.695, 66.305 90.725, 65.695 93.057 C 65.354 94.362, 64.330 98.877, 63.420 103.089 L 61.765 110.748 51.602 111.200 C 37.797 111.814, 31.324 114.633, 28.012 121.475 C 26.007 125.616, 25.813 127.076, 26.428 133.348 C 26.814 137.282, 27.155 140.950, 27.185 141.500 C 27.215 142.050, 26.677 146.376, 25.988 151.113 C 23.958 165.075, 26.120 174.412, 32.326 178.478 C 36.315 181.092, 44.073 181.371, 59.950 179.473 C 76.955 177.440, 82.666 178.050, 89.389 182.618 C 91.461 184.026, 93.316 185.018, 93.511 184.822 C 93.707 184.626, 94.845 179.749, 96.041 173.983 C 99.984 154.973, 98.375 130.360, 92.439 118.882 C 91.566 117.195, 91.069 115.598, 91.333 115.333 C 92.150 114.516, 98.327 118.061, 101.838 121.362 C 111.659 130.596, 112.302 143.399, 103.840 161.217 C 99.157 171.076, 99.172 171.153, 106.656 175.538 C 117.811 182.076, 134.302 185.556, 150.220 184.733 C 162.159 184.116, 168.885 182.266, 175.638 177.741 C 182.538 173.117, 185.509 167.382, 185.442 158.813 C 185.396 152.987, 184.827 150.991, 181.023 143.315 L 176.657 134.504 175.350 140.261 C 173.033 150.460, 168.708 155.876, 161.219 157.956 C 153.593 160.074, 144.357 158.084, 139.564 153.292 C 130.368 144.095, 146.512 135.287, 176.121 133.347 C 181.554 132.991, 186 132.298, 186 131.807 C 186 130.120, 176.565 120.829, 172.332 118.348 C 165.297 114.226, 159.349 114.246, 146.103 118.436 C 139.348 120.573, 133.849 121.782, 132.603 121.406 C 127.606 119.896, 122.856 112.606, 120.031 102.116 L 118.905 97.932 116.002 99.998 C 110.979 103.575, 102.433 107.018, 95.113 108.412 L 88.053 109.758 85.526 106.446 C 83.424 103.689, 81.925 97, 83.410 97 C 83.636 97, 86.673 98.350, 90.160 99.999 C 97.499 103.471, 100.339 103.700, 104.509 101.158 C 107.819 99.139, 112.171 91.177, 114.056 83.690 C 114.706 81.111, 115.407 79, 115.614 79 C 115.821 79, 118.644 81.138, 121.889 83.750 C 138.345 97.001, 158.882 105.558, 169.464 103.573 C 173.917 102.737, 178.864 98.570, 180.744 94.071 C 182.306 90.332, 182.719 74.281, 181.288 72.934 C 180.854 72.526, 172.400 71.677, 162.500 71.047 C 136.987 69.424, 136.289 69.180, 149.502 66.508 C 161.019 64.180, 169.825 60.961, 172.351 58.158 C 173.991 56.337, 175.621 51, 174.536 51 C 174.162 51, 171.949 52.118, 169.618 53.484 C 163.584 57.020, 152.481 58.393, 140.743 57.054 C 126.573 55.438, 116 52.021, 116 49.057 C 116 46.543, 132.179 43.387, 150.334 42.360 C 161.638 41.720, 162.208 41.583, 163.084 39.280 C 164.143 36.493, 162.958 33.620, 160.278 32.478 C 159.300 32.062, 149.275 31.375, 138 30.953 C 110.149 29.910, 104.503 28.030, 103.088 19.329 C 102.761 17.313, 101.974 15.491, 101.340 15.280 C 100.705 15.068, 97.735 19.209, 94.738 24.481 L 89.290 34.067 88.737 25.997 C 87.971 14.820, 85.718 12.473, 80.823 17.750 M 82.339 20.239 C 79.885 22.972, 66.835 42.192, 67.224 42.499 C 67.376 42.619, 70.928 43.854, 75.119 45.245 L 82.737 47.774 84.369 44.353 C 85.552 41.873, 85.996 38.124, 85.985 30.716 C 85.967 18.848, 85.303 16.939, 82.339 20.239 M 93.578 32.399 C 87.858 43.061, 86.771 47.835, 89.080 52.149 C 89.901 53.683, 89.814 54.566, 88.716 55.833 C 87.768 56.929, 86.874 62.123, 86.107 71 C 85.466 78.425, 84.676 86.604, 84.351 89.176 L 83.762 93.851 89.853 96.926 C 99.584 101.838, 103.452 100.988, 107.473 93.053 C 108.832 90.371, 110.854 84.894, 111.966 80.880 C 113.078 76.867, 114.725 72.890, 115.625 72.042 C 117.117 70.637, 117.215 70.699, 116.726 72.743 C 115.462 78.038, 139.960 94.696, 155.932 99.400 C 166.684 102.567, 174.408 100.909, 177.677 94.733 C 179.361 91.552, 180.287 76.957, 178.893 75.561 C 178.560 75.227, 169.110 74.292, 157.893 73.484 C 132.716 71.670, 129 71.150, 129 69.445 C 129 67.511, 129.370 67.390, 142.501 65.067 C 153.718 63.082, 167.605 59.272, 166.748 58.414 C 166.539 58.205, 164.825 58.477, 162.940 59.017 C 157.820 60.486, 140.238 60.203, 131.389 58.510 C 122.867 56.880, 115.211 53.522, 113.557 50.689 C 112.702 49.225, 113.017 48.430, 115.199 46.531 C 118.823 43.379, 128.578 41.288, 146.424 39.837 C 158.631 38.845, 161.029 38.391, 160.784 37.117 C 160.338 34.802, 156.738 34.209, 142.474 34.100 C 117.976 33.912, 105.663 31.091, 102.115 24.852 C 101.227 23.290, 100.197 22.010, 99.828 22.006 C 99.458 22.003, 96.645 26.679, 93.578 32.399 M 83.583 52.866 C 83.152 53.563, 83.070 54.403, 83.400 54.733 C 84.295 55.628, 85.271 54.312, 84.787 52.862 C 84.449 51.846, 84.213 51.846, 83.583 52.866 M 78.484 64.750 C 75.331 72.550, 69.895 88.257, 70.255 88.527 C 71.410 89.392, 80.464 91.869, 80.895 91.439 C 81.535 90.798, 83.854 68.580, 83.941 62.250 C 84.031 55.781, 81.673 56.861, 78.484 64.750 M 67.250 59.740 C 60.991 60.096, 59.191 61.291, 63.065 62.521 C 65.729 63.366, 66.998 66.822, 65.811 70 C 63.966 74.940, 57.549 80.283, 31.682 98.418 C 27.932 101.047, 25.060 103.394, 25.300 103.633 C 26.656 104.990, 35.690 101.498, 40.299 97.836 C 46.927 92.567, 54.515 89.192, 61.600 88.359 C 64.667 87.999, 67.336 87.208, 67.531 86.602 C 67.726 85.996, 70.092 79.537, 72.788 72.250 C 77.392 59.809, 77.563 59.012, 75.595 59.193 C 74.443 59.299, 70.688 59.545, 67.250 59.740 M 66.881 100.566 C 65.636 105.728, 64.891 110.224, 65.224 110.557 C 66.203 111.536, 84 109.837, 84 108.764 C 84 108.226, 83.348 108.036, 82.551 108.342 C 80.520 109.122, 79.697 105.836, 80.487 100.093 C 81.208 94.851, 80.855 94.505, 72.322 92.083 L 69.143 91.181 66.881 100.566 M 111 106.017 C 107.975 107.609, 103.250 109.417, 100.500 110.034 C 92.215 111.893, 92.144 111.985, 97.067 114.510 C 109.148 120.706, 114.610 133.027, 111.669 147.449 C 110.839 151.517, 108.555 158.103, 106.593 162.086 C 104.104 167.139, 103.329 169.691, 104.028 170.533 C 105.689 172.535, 117.076 177.728, 124 179.642 C 133.325 182.219, 158.349 182.250, 165.678 179.694 C 177.647 175.518, 183.756 167.590, 182.717 157.579 C 182.177 152.369, 179.326 144, 178.092 144 C 177.713 144, 176.816 145.621, 176.099 147.601 C 174.054 153.257, 167.952 158.667, 161.503 160.542 C 152.592 163.133, 142.471 160.578, 137.013 154.362 C 127.960 144.051, 139.554 135.200, 167 131.467 C 172.775 130.682, 178.379 130.030, 179.453 130.020 C 181.070 130.003, 180.731 129.309, 177.483 125.983 C 169.090 117.387, 161.422 116.120, 147.338 121 C 136.398 124.791, 131.222 124.899, 127.091 121.423 C 124.047 118.861, 118 107.677, 118 104.607 C 118 102.498, 117.491 102.600, 111 106.017 M 48.894 114.046 C 38.798 114.945, 32.791 117.569, 30.447 122.102 C 29.224 124.468, 28.912 127.664, 29.105 135.843 C 29.243 141.704, 28.998 150.550, 28.559 155.500 C 27.630 165.985, 28.738 171.466, 32.502 175.002 C 35.950 178.241, 43.263 178.652, 60.665 176.584 C 75.810 174.784, 82.538 175.350, 88.615 178.935 L 91.866 180.853 92.984 175.677 C 96.575 159.058, 96.590 143.535, 93.028 129.609 C 90.444 119.507, 87.616 114.193, 84.392 113.384 C 81.216 112.586, 71.644 113.523, 67.244 115.061 C 63.061 116.524, 62.650 118.245, 62.600 134.500 C 62.557 148.208, 63.902 156.271, 67.122 161.618 C 68.155 163.333, 69 165.508, 69 166.451 C 69 169.378, 66.619 167.582, 63.893 162.598 C 62.460 159.977, 57.847 154.373, 53.643 150.144 C 46.356 142.814, 46 142.243, 46 137.888 C 46 131.231, 50.922 121.898, 56.573 117.840 C 61.249 114.482, 62.145 112.909, 59.250 113.139 C 58.288 113.216, 53.627 113.624, 48.894 114.046 M 57.125 120.681 C 52.964 123.960, 49.023 132.143, 49.010 137.531 C 49.001 141.118, 49.634 142.190, 54.750 147.254 L 60.500 152.945 60.500 135.474 C 60.500 125.865, 60.500 118.007, 60.500 118.012 C 60.500 118.018, 58.981 119.219, 57.125 120.681" stroke="none" fill="black" fill-rule="evenodd"/>
</svg>