<svg xmlns="http://www.w3.org/2000/svg" width="200" height="200" viewBox="0 0 200 200" version="1.1">
	<path d="M 125.500 13.120 C 123.300 13.625, 117.936 15.217, 113.579 16.658 C 107.042 18.820, 103.548 19.315, 93.579 19.491 C 86.936 19.608, 77.225 20.496, 72 21.466 C 66.775 22.435, 61.486 23.289, 60.246 23.364 C 59.006 23.439, 57.993 23.837, 57.996 24.250 C 57.998 24.663, 58 25.398, 58 25.883 C 58 26.369, 58.811 26.979, 59.801 27.238 C 60.792 27.497, 62.929 30.275, 64.551 33.411 L 67.500 39.114 64.500 41.307 C 62.850 42.513, 59.124 45.429, 56.219 47.787 L 50.937 52.075 51.603 45.568 C 52.678 35.082, 50.227 33.121, 31.500 29.476 C 27.100 28.620, 22.545 27.718, 21.379 27.473 C 19.601 27.099, 19.142 27.631, 18.547 30.763 C 18.156 32.818, 17.491 53.625, 17.069 77 C 16.421 112.852, 16.025 120.513, 14.534 125.978 C 11.496 137.116, 13.763 146.995, 20.299 151.099 C 25.014 154.059, 34.313 153.382, 39.922 149.670 C 43.463 147.327, 47.203 142.836, 48.288 139.624 C 48.451 139.142, 50.686 140.230, 53.255 142.041 C 63.430 149.212, 70.238 144.007, 72.665 127.198 C 73.159 123.774, 73.614 123.026, 74.893 123.534 C 75.777 123.885, 78.975 124.647, 82 125.227 C 96.406 127.993, 104.535 134.153, 107.575 144.609 C 109.562 151.443, 109.076 165.952, 106.557 175 C 104.744 181.514, 105.187 182.126, 113.108 184.026 C 119.243 185.498, 124.061 184.661, 127.860 181.464 C 132.943 177.187, 134.145 172.363, 135.199 152 C 135.726 141.825, 136.473 132.204, 136.861 130.621 L 137.565 127.742 141.937 133.532 L 146.309 139.323 147.940 133.912 L 149.572 128.500 160.576 128.500 C 169.400 128.500, 172.113 128.151, 174.274 126.737 C 180.253 122.826, 178.463 115.895, 170.618 112.580 C 166.702 110.926, 165.524 110.826, 162.083 111.857 C 157.296 113.291, 152.499 117.134, 150.379 121.233 C 148.921 124.054, 148.588 124.186, 144.665 123.504 C 142.374 123.106, 139.878 122.755, 139.118 122.723 C 137.512 122.657, 133.437 114.153, 132.480 108.871 C 131.656 104.323, 133.912 99.614, 137.904 97.549 C 139.483 96.733, 145.768 95.166, 151.870 94.067 C 157.973 92.968, 164.323 91.367, 165.983 90.509 C 170.750 88.044, 169.935 83.470, 163.250 75.173 L 161.376 72.847 157.938 76.071 C 154.257 79.523, 149.303 82, 146.079 82 C 136.363 82, 132.139 68.179, 139.428 60.235 L 142.855 56.500 153.499 56.500 L 164.143 56.500 168.071 52.289 C 172.083 47.989, 173.111 44.364, 170.593 43.397 C 169.820 43.101, 164.028 44.015, 157.723 45.429 C 145.057 48.270, 139.722 48.591, 136.070 46.735 C 130.893 44.104, 131.566 34.210, 137.555 24.915 C 139.450 21.974, 141 18.565, 141 17.340 C 141 12.674, 134.795 10.985, 125.500 13.120 M 121.091 17.110 C 109.872 20.123, 109.550 20.396, 113.073 23.919 C 119.198 30.044, 115.559 39.570, 103.558 48.822 L 100.617 51.089 103.317 53.593 C 107.189 57.183, 108.752 59.889, 109.887 64.968 C 111.532 72.327, 109.663 78.432, 104.047 84.048 L 99.331 88.764 102.152 90.431 C 105.750 92.556, 109.701 99.277, 110.579 104.765 C 111.838 112.641, 105.642 122.797, 98.482 124.594 C 97.117 124.937, 96.026 125.506, 96.057 125.858 C 96.088 126.211, 98.290 128.156, 100.950 130.181 C 110.624 137.545, 113.822 150.312, 110.611 168.750 C 108.571 180.466, 108.463 179.617, 112.149 180.902 C 121.155 184.042, 127.882 180.653, 130.496 171.661 C 131.386 168.600, 132.344 158.943, 132.848 147.964 C 133.319 137.689, 134.208 128.480, 134.843 127.294 C 135.793 125.519, 135.478 124.075, 132.995 118.827 C 129.389 111.205, 129.003 104.148, 131.928 99.350 C 134.308 95.447, 141.134 92.745, 152.878 91.057 C 163.701 89.502, 166 88.597, 166 85.893 C 166 83.947, 162.428 77, 161.427 77 C 161.202 77, 158.978 78.557, 156.486 80.459 C 149.405 85.864, 143.235 86.260, 138.155 81.635 C 130.318 74.500, 131.342 62.236, 140.330 55.592 C 142.753 53.801, 144.583 53.500, 153.060 53.500 C 162.876 53.500, 162.988 53.473, 166.179 50.282 C 167.949 48.512, 169.154 46.820, 168.856 46.522 C 168.558 46.225, 162.823 47.158, 156.113 48.597 C 141.792 51.668, 136.638 51.364, 132.473 47.202 C 129.963 44.694, 129.802 44.034, 130.235 38 C 130.674 31.872, 131.914 28.602, 136.716 20.907 C 140.532 14.792, 134.860 13.414, 121.091 17.110 M 79 23.122 C 75.975 23.610, 71.172 24.482, 68.326 25.060 L 63.151 26.110 66.290 31.305 C 68.016 34.162, 69.587 36.718, 69.781 36.984 C 69.975 37.250, 72.016 36.374, 74.317 35.039 C 76.618 33.703, 83 30.232, 88.500 27.326 L 98.500 22.043 91.500 22.138 C 87.650 22.191, 82.025 22.633, 79 23.122 M 95.500 26.841 C 91.100 28.935, 83.751 32.813, 79.169 35.458 C 71.989 39.604, 70.925 40.562, 71.471 42.385 C 71.819 43.548, 72.811 48.325, 73.675 53 C 75.027 60.318, 75.065 62.682, 73.948 70 C 72.488 79.564, 72.460 81.939, 73.525 104.750 L 74.284 121 76.983 121 C 78.467 121, 81.891 121.670, 84.591 122.488 C 99.586 127.034, 112.265 114.145, 106.462 100.254 C 103.606 93.420, 98.119 89.484, 92 89.881 C 86.243 90.254, 79 88.940, 79 87.523 C 79 85.723, 83.348 85.074, 91.100 85.717 C 97.597 86.256, 97.764 86.208, 101.720 82.634 C 106.209 78.578, 108.663 72.065, 107.636 66.931 C 106.630 61.901, 103.946 57.098, 100.949 54.964 L 98.144 52.966 91.629 55.105 C 84.388 57.482, 79.360 57.160, 76.630 54.144 C 75.087 52.439, 75.155 52.244, 77.743 50.966 C 79.318 50.189, 84.315 49.520, 89.398 49.406 C 97.834 49.217, 98.534 49.028, 102.898 45.770 C 107.920 42.019, 112.416 36.037, 113.389 31.810 C 113.843 29.838, 113.406 28.437, 111.754 26.559 C 108.144 22.457, 104.585 22.519, 95.500 26.841 M 20.901 31.250 C 20.846 31.387, 20.432 51.300, 19.981 75.500 C 19.304 111.845, 18.869 120.544, 17.481 125.500 C 15.340 133.146, 15.855 141.983, 18.660 145.763 C 22.729 151.247, 32.534 151.955, 38.920 147.226 C 42.883 144.292, 46 139.064, 46 135.352 C 46 133.508, 46.224 132, 46.497 132 C 46.770 132, 49.133 134.215, 51.747 136.923 C 57.673 143.060, 61.150 144.147, 64.573 140.931 C 65.928 139.659, 67.755 136.341, 68.634 133.559 C 70.771 126.795, 71.625 101.700, 70.078 91.119 C 69.088 84.351, 69.166 81.883, 70.588 74.864 C 72.400 65.922, 72.084 55.547, 69.731 46.656 L 68.449 41.812 62.474 46.319 C 59.188 48.798, 55.150 52.246, 53.500 53.982 L 50.500 57.138 50.482 84.319 C 50.467 107.740, 50.217 112.233, 48.678 116.802 C 45.869 125.139, 42.528 125.133, 41.385 116.790 C 40.413 109.703, 41.918 91, 43.460 91 C 44.443 91, 44.634 94.193, 44.310 105.250 C 43.886 119.695, 44.689 121.706, 46.804 111.500 C 48.678 102.460, 49.023 88.725, 47.735 74.500 L 46.466 60.500 43.620 66.241 C 40.428 72.681, 40.545 76.881, 44.044 81.329 C 45.481 83.155, 45.707 84.063, 44.856 84.589 C 43.323 85.536, 40.316 81.804, 39.119 77.469 C 37.610 72.004, 40.014 64.702, 45.448 58.244 C 47.544 55.753, 48.080 53.812, 48.623 46.738 C 49.260 38.456, 49.211 38.184, 46.802 36.606 C 43.120 34.193, 21.507 29.724, 20.901 31.250 M 85 51.721 C 83.625 51.968, 82.050 52.636, 81.500 53.207 C 80.100 54.658, 89.829 53.571, 91.287 52.113 C 92.458 50.942, 90.145 50.798, 85 51.721 M 158.990 116.250 C 157.172 117.487, 154.751 119.759, 153.611 121.298 C 150.798 125.095, 152.367 125.969, 162 125.970 C 170.868 125.971, 174.373 124.543, 174.814 120.751 C 175.064 118.598, 174.454 117.637, 171.814 116.028 C 167.483 113.388, 163.084 113.464, 158.990 116.250 M 141.993 129.088 C 143.291 130.965, 144.485 132.675, 144.648 132.889 C 144.811 133.102, 145.419 132.028, 146 130.500 C 147.257 127.193, 147.264 127.203, 142.994 126.349 L 139.634 125.677 141.993 129.088" stroke="none" fill="black" fill-rule="evenodd"/>
</svg>