<svg xmlns="http://www.w3.org/2000/svg" width="200" height="200" viewBox="0 0 200 200" version="1.1">
	<path d="M 92.152 19.308 C 85.995 25.941, 72.954 28.191, 56 25.544 C 33.480 22.029, 28.418 21.623, 23.663 22.954 C 10.200 26.724, 8.710 40.202, 18.093 73.330 C 21.058 83.795, 21.202 85.067, 20.540 94.974 C 20.154 100.763, 18.745 114.275, 17.408 125 C 16.072 135.725, 14.701 149.450, 14.360 155.500 C 13.794 165.561, 13.913 166.710, 15.753 168.964 C 17.514 171.120, 18.079 171.285, 20.281 170.282 C 23.251 168.929, 32.659 155.022, 34.002 150 C 34.516 148.075, 35.453 142.524, 36.084 137.665 C 36.715 132.806, 37.570 129.206, 37.984 129.665 C 38.398 130.124, 39.936 136.941, 41.402 144.814 C 42.868 152.687, 44.762 160.864, 45.611 162.987 C 50.113 174.238, 54.616 164.633, 58.968 134.500 C 60.079 126.800, 60.992 119.187, 60.995 117.583 C 60.998 115.979, 61.246 114.913, 61.547 115.214 C 61.848 115.515, 62.509 125.827, 63.016 138.130 C 63.524 150.434, 64.627 164.421, 65.468 169.213 C 66.876 177.235, 69.575 185.020, 70.935 184.986 C 71.246 184.978, 72.689 182.840, 74.141 180.236 C 78.712 172.041, 82.833 167.125, 89.229 162.236 C 103.843 151.067, 107.016 146.412, 111.002 130.290 C 112.863 122.761, 116 103.299, 116 99.277 C 116 97.686, 110.660 88.706, 106.660 83.569 C 105.844 82.522, 123.810 41.477, 124.696 42.362 C 124.925 42.592, 124.352 45.107, 123.421 47.951 C 121.072 55.133, 121.913 66.227, 126.456 88 C 131.061 110.068, 131.837 120.231, 129.587 128.986 C 128.670 132.554, 127.287 136.440, 126.512 137.622 C 125.143 139.712, 125.413 141, 127.223 141 C 128.710 141, 131.793 132.901, 133.039 125.721 C 134.496 117.324, 133.298 105.870, 128.909 86.224 C 126.934 77.385, 125.650 68.407, 125.304 61 C 124.683 47.733, 126.036 46.970, 127.960 59.500 C 130.738 77.588, 140.794 111, 143.460 111 C 144.418 111, 144.875 106.630, 145.317 93.250 C 145.640 83.487, 146.753 69.802, 147.792 62.838 C 148.830 55.874, 149.475 48.783, 149.225 47.080 C 148.696 43.472, 144.084 39.167, 139.840 38.318 C 133.192 36.988, 135.824 35.690, 153.473 31.589 C 157.309 30.698, 162.244 29.032, 164.442 27.887 L 168.436 25.805 171.165 28.858 C 175.134 33.301, 175.533 37.579, 173.647 55.500 C 172.720 64.300, 171.971 72.807, 171.981 74.404 C 171.996 76.693, 170.737 78.452, 166.039 82.703 C 157.619 90.323, 153.653 98.556, 153.705 108.310 C 153.763 119.444, 157.736 128.350, 172.232 149.840 C 174.955 153.878, 177.862 159.175, 178.693 161.612 C 180.055 165.610, 180.046 166.280, 178.604 168.481 C 177.599 170.016, 175.082 171.492, 171.821 172.460 C 163.215 175.016, 162.491 174.765, 161.133 168.750 C 156.330 147.464, 141.558 146.783, 114.904 166.620 C 109.342 170.759, 105.139 173.550, 105.562 172.823 C 105.986 172.095, 109.024 167.538, 112.313 162.696 C 116.313 156.806, 117.960 153.560, 117.289 152.889 C 116.617 152.217, 113.590 155.885, 108.143 163.970 C 100.815 174.845, 98.463 180, 100.829 180 C 101.285 180, 106.968 175.983, 113.457 171.074 C 132.135 156.945, 143.349 152.544, 150.825 156.409 C 154.661 158.393, 157.739 164.118, 158.786 171.217 L 159.566 176.500 164.859 176.357 C 171.304 176.182, 178.476 173.586, 180.502 170.694 C 182.382 168.010, 182.422 162.946, 180.598 158.581 C 179.827 156.736, 176.055 150.544, 172.216 144.822 C 159.766 126.266, 155.105 114.583, 156.388 105.154 C 157.391 97.779, 161.474 90.644, 168.143 84.609 C 173.164 80.065, 174.235 78.517, 174.562 75.328 C 177.965 42.111, 178.200 38.349, 177.117 34.381 C 173.503 21.136, 163.891 18.161, 122 17.326 L 94.500 16.777 92.152 19.308 M 92 23.049 C 88.760 25.821, 88.686 26.006, 91 25.532 C 95.035 24.706, 131.480 22.011, 140.355 21.882 C 146.236 21.796, 147.666 21.551, 145.500 21 C 143.850 20.580, 131.925 20.195, 119 20.145 L 95.500 20.054 92 23.049 M 131 25.029 C 106.710 26.571, 77.896 29.361, 79.169 30.048 C 81.151 31.118, 107.323 33.362, 110.573 32.741 C 112.118 32.446, 114.309 32.784, 115.441 33.492 C 116.573 34.200, 120.650 35.061, 124.500 35.405 C 130.689 35.959, 132.058 35.746, 136.319 33.567 C 138.969 32.211, 143.244 30.818, 145.819 30.470 C 150.765 29.802, 155.658 28.556, 160.317 26.777 C 167.313 24.106, 156.084 23.436, 131 25.029 M 23.388 25.688 C 22.226 25.916, 19.997 27.438, 18.434 29.069 C 16.036 31.572, 15.527 33.060, 15.174 38.609 C 14.643 46.943, 16.382 57.755, 20.301 70.500 C 24.244 83.319, 24.202 91.992, 20.028 127.077 C 15.650 163.877, 16.022 172.385, 21.703 165.411 C 28.550 157.007, 31.330 150.844, 32.682 141.081 C 34.265 129.645, 35.668 125, 37.542 125 C 39.831 125, 40.996 128.403, 43.979 143.810 C 47.322 161.069, 48.681 165.321, 50.067 162.846 C 51.968 159.447, 54.046 148.813, 57.447 125.077 C 59.371 111.645, 61.368 100.232, 61.885 99.715 C 62.403 99.197, 63.243 99.032, 63.752 99.347 C 64.261 99.662, 64.971 111.525, 65.329 125.710 C 65.686 139.894, 66.426 155.325, 66.972 160 C 68.205 170.548, 69.924 179.014, 70.821 178.957 C 71.194 178.934, 73.658 175.766, 76.294 171.918 C 79.065 167.874, 83.457 163.144, 86.700 160.710 C 96.360 153.462, 101.097 148.741, 103.529 143.942 C 106.629 137.824, 109.497 126.313, 111.675 111.242 C 113.647 97.597, 113.426 96.528, 107.051 88.892 L 104.346 85.651 98.673 97.449 L 93 109.246 92.940 119.873 C 92.843 137.322, 90.974 144.403, 87.408 140.837 C 83.501 136.930, 81.681 101.528, 84.347 81.278 L 85.561 72.057 81.355 71.426 C 73.471 70.244, 64.710 75.406, 59.813 84.119 C 58.613 86.254, 57.377 87.992, 57.066 87.982 C 56.039 87.949, 49.830 79.960, 46.385 74.239 C 40.927 65.176, 42.039 61.201, 50.290 60.271 C 53.872 59.867, 72.870 61.678, 84.587 63.539 C 87.490 64, 87.750 63.775, 88.940 59.765 C 91.080 52.554, 94.837 45.467, 99.069 40.659 C 103.835 35.245, 104.733 35.750, 87.177 33.965 C 76.579 32.887, 72.539 33.118, 76.357 34.583 C 78.878 35.551, 78.312 38.642, 75.210 40.851 C 68.123 45.897, 45.933 50.458, 40.141 48.059 C 35.487 46.131, 35.973 43.078, 41.750 37.967 L 46.500 33.765 42.353 34.453 C 39.570 34.915, 37.965 34.752, 37.475 33.959 C 36.370 32.172, 38.753 31.183, 45.968 30.436 C 56.372 29.359, 56.052 28.415, 44.682 26.644 C 34.614 25.076, 28.008 24.779, 23.388 25.688 M 47 37.281 C 38.420 43.744, 38.111 46.004, 45.809 45.993 C 54.892 45.979, 75 39.851, 75 37.096 C 75 35.698, 71.105 34.948, 61 34.403 L 51.500 33.891 47 37.281 M 107.392 37.262 C 102.970 39.602, 98.511 45.013, 94.881 52.447 C 92.746 56.818, 91 61.248, 91 62.291 C 91 64.003, 91.511 64.118, 96.250 63.475 C 110.261 61.573, 115.181 55.606, 113.543 42.497 C 112.834 36.821, 111.068 35.318, 107.392 37.262 M 116.281 44.496 L 116.500 51.890 118.866 47.195 C 122.191 40.595, 123.927 38.849, 126.418 39.598 C 127.788 40.011, 128.158 39.889, 127.500 39.241 C 126.950 38.700, 124.151 37.998, 121.281 37.680 L 116.062 37.102 116.281 44.496 M 130.189 41.299 L 128.012 43.617 130.463 57.558 C 132.995 71.960, 136.513 86.449, 139.789 95.970 L 141.670 101.440 142.305 89.604 C 142.654 83.094, 143.894 71.263, 145.061 63.312 C 147.595 46.057, 147.164 43.937, 140.647 41.598 C 133.046 38.871, 132.485 38.855, 130.189 41.299 M 107.071 63.141 C 103.490 65.027, 100.148 66, 97.255 66 C 89.908 66, 86.286 69.441, 91.250 71.705 C 92.487 72.270, 95.641 74.367, 98.259 76.366 C 100.876 78.365, 103.244 80, 103.521 80 C 103.982 80, 106.019 75.745, 111.064 64.250 C 112.090 61.913, 112.832 60.063, 112.714 60.141 C 112.597 60.219, 110.057 61.569, 107.071 63.141 M 46.750 63.577 C 44.605 65.739, 46.927 71.535, 53.027 79.242 L 56.780 83.985 58.519 81.242 C 63.991 72.616, 70.543 68.745, 79.917 68.599 C 83.446 68.545, 86.489 68.036, 86.678 67.468 C 87.274 65.677, 48.422 61.891, 46.750 63.577 M 87.322 79.750 C 86.230 87.389, 86.267 126.168, 87.373 132.500 C 88.738 140.321, 89.848 135.498, 89.930 121.388 L 90 109.277 96.036 96.506 C 101.885 84.131, 102.016 83.675, 100.286 81.752 C 98.050 79.267, 90.478 74, 89.142 74 C 88.593 74, 87.774 76.588, 87.322 79.750" stroke="none" fill="black" fill-rule="evenodd"/>
</svg>