<svg xmlns="http://www.w3.org/2000/svg" width="200" height="200" viewBox="0 0 200 200" version="1.1">
	<path d="M 96.500 13.900 C 88.172 16.339, 76.913 21.304, 67.797 26.559 C 63.560 29.002, 59.706 31, 59.234 31 C 58.761 31, 57.052 29.605, 55.437 27.900 C 51.713 23.970, 45.216 19.495, 42.092 18.710 C 33.912 16.654, 25.332 27.952, 17.376 51.259 L 14.045 61.019 18.030 66.259 C 27.200 78.316, 28.367 87.755, 24.552 119 C 23.108 130.825, 21.496 142.075, 20.969 144 C 20.442 145.925, 20.009 150.657, 20.006 154.516 C 19.999 163.105, 22.099 167.583, 27.604 170.720 C 33.361 174, 38.938 174.456, 54.499 172.919 C 76.159 170.779, 79 171.324, 79 177.622 C 79 179.667, 79.493 180.993, 80.250 180.983 C 81.863 180.962, 90.682 166.184, 96.353 154 C 100.961 144.099, 109.277 121.863, 110.466 116.261 C 111.164 112.977, 113 110.770, 113 113.217 C 113 113.952, 113.463 118.246, 114.029 122.761 L 115.058 130.969 110.154 137.234 C 98.198 152.508, 91 166.134, 91 173.493 C 91 178.250, 92.645 180, 97.119 180 C 107.524 180, 129.247 157.056, 136.041 138.890 C 137.266 135.615, 138.480 133.146, 138.738 133.405 C 138.997 133.664, 139.797 136.941, 140.515 140.688 C 144.261 160.216, 153.105 172.727, 163.896 173.764 C 169.598 174.312, 172.397 173.038, 175.050 168.686 C 180.861 159.156, 171.965 144.358, 154.329 134.214 L 147.942 130.541 152.934 128.844 C 168.081 123.695, 177.930 110.162, 178.816 93.282 C 179.079 88.281, 178.751 83.183, 177.993 80.476 C 176.556 75.341, 170.402 67.810, 166.284 66.146 C 164.753 65.527, 153.369 63.229, 140.987 61.040 C 118.086 56.991, 110.882 55.181, 110.819 53.461 C 110.769 52.061, 122.773 48.310, 131.217 47.087 C 135.223 46.506, 145.663 45.595, 154.419 45.061 C 166.466 44.327, 170.713 43.715, 171.883 42.546 C 174.290 40.138, 172.091 38.696, 158 33.441 C 142.272 27.575, 128.307 20.950, 124.790 17.685 C 119.203 12.500, 117.882 11.997, 110.027 12.071 C 105.887 12.110, 99.800 12.933, 96.500 13.900 M 103.085 15.132 C 100.107 15.627, 93.799 17.580, 89.068 19.473 C 78.573 23.672, 62.418 32.323, 62.721 33.582 C 62.843 34.087, 64.418 35.315, 66.221 36.312 C 70.904 38.899, 77.839 38.123, 82.620 34.476 C 86.318 31.656, 86.332 31.654, 89.413 33.476 C 101.326 40.521, 100.670 40.745, 108.180 27.064 C 115.933 12.937, 115.959 12.996, 103.085 15.132 M 115.821 18.810 C 114.974 20.290, 112.119 25.507, 109.476 30.404 L 104.670 39.308 108.873 38.744 C 119.953 37.258, 127.562 23.385, 120.180 18.128 L 117.360 16.120 115.821 18.810 M 34.464 24.166 C 30.307 27.815, 25.199 37.449, 20.421 50.648 L 17.086 59.863 21.534 66.496 C 27.784 75.816, 29.508 82.136, 29.309 95 C 29.163 104.446, 25.604 134.788, 22.974 149 C 21.070 159.294, 23.688 166.090, 30.765 169.220 C 35.708 171.407, 33.649 171.398, 66.666 169.366 C 76.737 168.747, 76.857 168.766, 79.522 171.431 C 81.002 172.911, 82.354 173.979, 82.528 173.806 C 84.025 172.308, 91.778 157.739, 95.165 150.058 C 98.814 141.783, 111.178 107.774, 110.679 107.385 C 110.322 107.107, 86.490 110.180, 86.117 110.551 C 85.907 110.761, 85.136 117.585, 84.405 125.716 C 82.380 148.243, 80.888 156, 78.578 156 C 76.627 156, 76.038 152.759, 75.943 141.500 C 75.897 136, 75.553 130.728, 75.178 129.784 C 74.124 127.126, 64.683 121.451, 64.121 123.137 C 62.940 126.683, 52.697 146.185, 49.092 151.750 C 45.077 157.948, 42 159.812, 42 156.045 C 42 153.745, 47.732 140.483, 54.898 126.204 C 59.509 117.015, 59.822 115.975, 58.238 115.127 C 56.834 114.376, 56.431 112.579, 56.194 106.007 C 55.748 93.663, 59.088 85.031, 71.433 66.613 C 75.078 61.175, 77.934 56.625, 77.780 56.501 C 74.993 54.257, 47.373 46.293, 46.255 47.412 C 46.082 47.585, 47.770 51.501, 50.006 56.113 C 54.460 65.298, 55.095 71.181, 51.703 71.824 C 47.392 72.641, 37.863 61.366, 36.476 53.805 C 35.899 50.659, 36.184 49.725, 38.399 47.510 C 39.830 46.079, 41 44.534, 41 44.076 C 41 43.617, 44.369 41.050, 48.487 38.371 C 52.605 35.692, 55.980 33.204, 55.987 32.843 C 56.010 31.701, 45.635 22.812, 43.200 21.886 C 39.507 20.482, 38.301 20.797, 34.464 24.166 M 125.984 24.961 C 125.936 32.250, 117.188 40.458, 108.101 41.739 L 102.702 42.500 94.952 57 L 87.202 71.500 86.642 89.516 L 86.083 107.533 99.291 105.857 C 106.556 104.936, 118.649 103.855, 126.164 103.455 L 139.828 102.728 140.477 99.269 C 140.834 97.366, 142.673 92.292, 144.563 87.993 C 148.428 79.202, 148.771 77, 146.276 77 C 145.328 77, 138.372 79.948, 130.819 83.551 C 111.304 92.860, 106 92.688, 106 82.744 C 106 76.524, 107.873 70, 109.658 70 C 111.330 70, 111.338 69.814, 109.337 77.010 C 107.992 81.848, 107.904 83.493, 108.873 85.620 C 109.923 87.926, 110.501 88.180, 113.563 87.683 C 115.484 87.372, 123.344 84.117, 131.030 80.451 C 145.668 73.468, 149.202 72.841, 150.298 77.032 C 150.949 79.523, 150.154 82.305, 146.103 91.695 C 141.753 101.782, 141.914 103.295, 147.500 104.789 C 150.956 105.713, 152 106.462, 152 108.018 C 152 110.909, 147.947 112.574, 144.876 110.944 C 143.569 110.250, 141.912 108.854, 141.193 107.841 C 140.103 106.306, 138.508 106, 131.583 106 C 119.152 106, 113.752 106.916, 114.522 108.893 C 115.650 111.789, 117.917 131.324, 117.253 132.425 C 116.896 133.016, 114.455 136.245, 111.828 139.601 C 100.278 154.354, 91.856 170.854, 93.580 175.348 C 95.206 179.586, 104.851 175.729, 113.329 167.452 C 124.244 156.795, 132.898 142.586, 136.595 129.250 C 138.350 122.922, 141 120.665, 141 125.500 C 141 128.480, 142.225 128.613, 150.289 126.513 C 163.905 122.966, 173.186 112.179, 176.077 96.539 C 177.379 89.501, 176.623 84.117, 173.378 77.302 C 169.907 70.011, 166.971 68.533, 149.941 65.504 C 122.931 60.699, 114.505 58.902, 111 57.200 C 98.937 51.340, 116.456 44.643, 148.409 42.899 C 158.259 42.361, 166.911 41.589, 167.636 41.184 C 168.445 40.731, 163.973 38.588, 156.071 35.641 C 148.985 32.998, 139.320 28.943, 134.593 26.629 L 126 22.421 125.984 24.961 M 51.489 39.724 L 44.500 44.448 50.737 45.242 C 54.167 45.679, 62.189 47.868, 68.564 50.107 C 74.940 52.346, 80.266 54.025, 80.402 53.839 C 80.537 53.652, 81.658 52.038, 82.892 50.250 C 85.133 47.004, 87 46.025, 87 48.096 C 87 48.698, 86.072 50.495, 84.937 52.089 C 82.824 55.056, 83.046 57, 85.499 57 C 86.372 57, 86.993 58.377, 87.190 60.750 C 87.495 64.442, 87.596 64.327, 93.750 53.220 C 97.188 47.016, 100 41.777, 100 41.578 C 100 41.379, 98.763 40.916, 97.250 40.548 C 95.737 40.179, 92.813 38.774, 90.750 37.425 L 87 34.972 82.823 37.736 C 76.937 41.631, 69.072 41.637, 63.198 37.750 C 60.913 36.237, 58.916 35, 58.761 35 C 58.606 35, 55.333 37.126, 51.489 39.724 M 39.998 49.502 C 38.239 51.622, 39.402 56.271, 43.002 61.503 C 45.823 65.603, 49.511 69, 51.142 69 C 52.333 69, 49.927 61.811, 46.373 54.750 C 42.812 47.677, 42.040 47.042, 39.998 49.502 M 73.296 68.750 C 69.402 74.662, 65.031 81.869, 63.583 84.765 C 57.711 96.510, 56.506 110.043, 61.338 109.966 C 63.121 109.937, 65.383 106.361, 74.250 89.555 C 83.360 72.287, 85 68.484, 85 64.625 C 85 61.145, 84.543 59.826, 83.066 59.035 C 82.002 58.466, 80.962 58, 80.754 58 C 80.547 58, 77.190 62.837, 73.296 68.750 M 81.769 81.205 C 80.408 83.567, 76.259 91.257, 72.549 98.294 C 66.377 109.998, 66.003 111.044, 68.151 110.570 C 69.443 110.286, 73.161 109.593, 76.413 109.030 C 79.665 108.468, 82.500 107.833, 82.714 107.619 C 83.157 107.176, 84.889 77.656, 84.499 77.205 C 84.358 77.042, 83.130 78.842, 81.769 81.205 M 145 108 C 146.970 109.273, 149.287 109.273, 148.500 108 C 148.160 107.450, 146.896 107.007, 145.691 107.015 C 143.910 107.028, 143.781 107.212, 145 108 M 73 112.372 C 67.015 113.411, 66.475 113.714, 66.188 116.199 C 65.936 118.384, 66.670 119.473, 70.040 121.914 C 72.330 123.573, 75.057 125.201, 76.101 125.532 C 77.761 126.059, 78.002 127.166, 78.015 134.317 C 78.040 147.592, 79.589 146.527, 80.906 132.329 C 81.561 125.273, 82.351 117.588, 82.662 115.250 C 83.308 110.389, 83.721 110.512, 73 112.372 M 59.584 122.670 C 52.853 136.506, 47.227 149.193, 48.572 147.500 C 51.139 144.269, 62.239 121.218, 61.825 119.976 C 61.617 119.351, 60.608 120.564, 59.584 122.670 M 142.007 133.271 C 142.021 137.830, 146.066 152.188, 148.940 157.882 C 153.853 167.613, 162.331 173.345, 168.400 171.038 C 174.068 168.883, 175.556 161.845, 171.927 154.349 C 168.520 147.312, 156.155 137.257, 144.750 132.250 C 142.211 131.135, 142.001 131.214, 142.007 133.271" stroke="none" fill="black" fill-rule="evenodd"/>
</svg>