<svg xmlns="http://www.w3.org/2000/svg" width="200" height="200" viewBox="0 0 200 200" version="1.1">
	<path d="M 112.352 10.750 C 110.947 12.262, 107.958 16.650, 105.709 20.500 C 103.460 24.350, 101.530 27.638, 101.420 27.807 C 101.310 27.975, 98.819 25.574, 95.884 22.471 C 86.789 12.854, 85.223 12.946, 83.824 23.180 C 81.937 36.975, 77.498 40.325, 60.500 40.779 C 43.705 41.227, 24.735 43.295, 24.257 44.728 C 23.939 45.683, 27.701 45.819, 41.174 45.340 C 59.710 44.681, 73.058 45.839, 80.293 48.734 L 84.368 50.364 80.178 52.144 C 77.874 53.122, 70.558 55.262, 63.921 56.899 C 44.692 61.641, 40.595 66.401, 40.598 84 C 40.599 93.353, 42.488 108.553, 43.941 110.905 C 44.494 111.800, 47.732 111.209, 56.592 108.598 C 74.872 103.211, 77 102.838, 77 105.027 C 77 106.096, 74.425 108.731, 70.725 111.448 L 64.450 116.056 46.675 116.447 C 29.030 116.836, 26 117.432, 26 120.517 C 26 121.447, 26.913 121.583, 29.397 121.023 C 39.554 118.732, 69.075 137.775, 73.556 149.508 C 76.953 158.402, 72.597 162.390, 53 168.327 C 30.991 174.995, 23 178.516, 23 181.548 C 23 185.674, 35.396 185.773, 63 181.865 C 76.762 179.917, 77.678 179.645, 81 176.525 C 86.065 171.766, 88.346 170.875, 95.462 170.875 C 103.009 170.875, 105.948 171.583, 125.063 178.007 C 143.006 184.038, 150.857 185.432, 158.171 183.887 C 162.677 182.935, 164.403 181.850, 169.347 176.856 C 172.563 173.608, 176.447 170.303, 177.978 169.511 C 179.509 168.720, 181.939 166.673, 183.377 164.963 C 185.421 162.534, 185.775 161.449, 184.997 159.995 C 183.331 156.881, 179.636 156.259, 155.500 155.027 C 134.992 153.980, 132 153.514, 132 151.371 C 132 149.502, 140.573 144.125, 151 139.454 C 155.675 137.360, 159.877 135.326, 160.338 134.935 C 160.799 134.544, 160.034 132.486, 158.637 130.362 C 153.438 122.457, 153.094 114.432, 157.120 95 C 160.006 81.074, 161.961 66.449, 161.982 58.633 C 161.998 52.564, 161.797 51.825, 160.250 52.270 C 159.287 52.546, 154.512 53.949, 149.638 55.386 C 144.357 56.944, 137.748 58.101, 133.280 58.250 L 125.783 58.500 122.372 54.560 C 120.495 52.393, 119.111 50.143, 119.296 49.560 C 119.481 48.977, 121.852 47.731, 124.566 46.791 C 128.489 45.433, 132.882 45.098, 146 45.158 C 162.467 45.233, 172.100 43.822, 175.741 40.800 C 178.144 38.805, 176.727 35.614, 172.500 33.500 C 169.115 31.808, 166.500 31.500, 155.500 31.500 C 140.794 31.500, 132.320 33.488, 123.715 38.958 C 121.084 40.631, 118.801 42, 118.642 42 C 118.484 42, 118.925 38.512, 119.624 34.250 C 121.279 24.153, 121.373 10.773, 119.800 9.200 C 117.843 7.243, 115.072 7.819, 112.352 10.750 M 110.615 17.750 C 108.226 21.462, 105.564 25.884, 104.700 27.575 L 103.129 30.650 109.065 37.914 C 112.329 41.910, 115 44.975, 115 44.726 C 115 44.477, 115.456 41.867, 116.014 38.925 C 116.572 35.984, 117.478 29.611, 118.027 24.763 C 119.781 9.281, 117.472 7.096, 110.615 17.750 M 87 20.482 C 87 30.373, 81.490 39.693, 74.225 42.091 L 70.582 43.293 76.009 44.682 C 81.851 46.177, 87.116 48.847, 87.704 50.613 C 88.258 52.275, 77.629 56.484, 66.464 59.024 C 50.939 62.557, 46.914 65.185, 44.482 73.373 C 43.667 76.117, 43.003 80.869, 43.007 83.932 C 43.014 89.476, 45.419 107.752, 46.251 108.584 C 46.491 108.825, 48.671 108.301, 51.094 107.421 C 53.517 106.540, 60.450 104.553, 66.500 103.004 C 76.547 100.432, 77.500 99.986, 77.500 97.858 C 77.500 96.318, 76.822 95.401, 75.500 95.156 C 72.678 94.632, 70.735 92.865, 71.805 91.795 C 72.326 91.274, 73.800 91.407, 75.352 92.115 C 76.813 92.780, 78.232 93.101, 78.506 92.828 C 78.779 92.554, 80.539 86.744, 82.417 79.915 C 85.895 67.266, 92.007 49.510, 95.985 40.500 C 100.315 30.691, 100.386 31.654, 94.858 25.117 C 88.949 18.129, 87 16.980, 87 20.482 M 147.760 34.107 C 137.412 35.221, 127.036 39.046, 121 43.972 L 118.500 46.012 122.500 44.272 C 125.769 42.850, 129.697 42.517, 144 42.451 C 161.222 42.371, 165.763 41.930, 171.288 39.801 C 180.024 36.433, 163.436 32.419, 147.760 34.107 M 98.985 40.511 C 95.074 49.199, 87.820 70.218, 84.396 82.789 C 81.431 93.671, 81.561 93.960, 89.394 93.985 C 94.029 93.999, 94.966 93.493, 107.144 84.393 C 114.215 79.108, 120 74.669, 120 74.527 C 120 74.385, 114.487 76.626, 107.750 79.507 C 92.205 86.154, 91 86.528, 91 84.703 C 91 83.912, 93.124 82.477, 95.750 81.493 C 98.362 80.515, 106.419 77.079, 113.654 73.857 C 127.617 67.640, 129 67.232, 129 69.326 C 129 71.107, 126.716 73.084, 111.619 84.370 C 104.535 89.667, 99.440 94, 100.297 94 C 101.154 94, 105.375 93.529, 109.678 92.953 C 128.687 90.408, 136.460 85.076, 134.051 76.234 C 132.650 71.092, 124.749 61.340, 120.572 59.594 C 116.731 57.990, 113.664 54.038, 114.523 51.801 C 115.024 50.496, 112.617 46.854, 104.089 36.011 L 102.131 33.522 98.985 40.511 M 117.638 54.500 C 117.955 55.325, 118.671 56, 119.229 56 C 119.815 56, 119.718 55.365, 119 54.500 C 118.315 53.675, 117.599 53, 117.409 53 C 117.219 53, 117.322 53.675, 117.638 54.500 M 148 58.582 C 143.325 59.845, 136.858 60.906, 133.628 60.939 L 127.756 61 129.406 63.250 C 135.767 71.921, 137 74.506, 137 79.162 C 137 83.283, 136.522 84.411, 133.493 87.440 C 129.409 91.525, 120.631 94.550, 109 95.882 C 102.214 96.659, 101.982 96.753, 106.566 96.870 C 118.349 97.172, 130.040 101.068, 134.728 106.255 C 136.442 108.151, 136.385 108.312, 133 111.183 C 124.136 118.698, 115.364 120.909, 93.500 121.139 L 77.500 121.307 88.500 121.990 C 94.550 122.365, 101.857 123.456, 104.737 124.413 C 109.716 126.066, 114 129.807, 114 132.500 C 114 137.164, 98.723 146.358, 91.164 146.244 C 83.538 146.128, 78.575 140.957, 76.719 131.192 C 75.579 125.194, 75.446 125, 72.455 125 C 69.104 125, 57.989 126.891, 56.713 127.678 C 56.280 127.945, 57.855 129.532, 60.213 131.205 C 72.715 140.075, 79.359 150.282, 76.883 156.818 C 74.411 163.342, 69.418 166.367, 53.477 170.998 C 40.223 174.848, 27.286 179.728, 26.360 181.226 C 25.418 182.750, 45.758 181.568, 62.859 179.105 C 75.141 177.336, 76.472 176.935, 79.359 174.141 C 88.450 165.343, 96.719 165.713, 129 176.359 C 136.425 178.808, 145.104 181.133, 148.286 181.526 C 157.886 182.710, 164.852 179.734, 169.662 172.394 C 170.566 171.014, 172.924 169.050, 174.903 168.029 C 179.291 165.766, 183.226 162.174, 182.537 161.060 C 181.635 159.600, 176.862 159.039, 156.953 158.051 C 134.509 156.938, 129.655 155.845, 129.188 151.801 C 128.791 148.355, 133.661 144.657, 147 138.278 C 152.225 135.780, 156.631 133.627, 156.791 133.494 C 156.950 133.361, 156.067 131.534, 154.828 129.434 C 151.083 123.087, 151.120 111.046, 154.943 91.500 C 158.681 72.391, 160.058 55.923, 157.901 56.143 C 157.130 56.222, 152.675 57.319, 148 58.582 M 81 97.861 C 81 99.332, 81.576 99.630, 83.750 99.280 C 88.849 98.460, 89.648 98.021, 87.972 96.962 C 87.162 96.450, 85.263 96.024, 83.750 96.015 C 81.729 96.004, 81 96.494, 81 97.861 M 90.863 100.913 C 89.412 101.383, 86.167 103.282, 83.652 105.133 C 79.383 108.276, 79.075 108.808, 79.039 113.121 L 79 117.742 88.750 118.422 C 105.957 119.621, 122.137 116.524, 129.471 110.626 C 133.151 107.665, 132.277 106.249, 124.719 102.924 C 120.312 100.985, 117.477 100.584, 106.500 100.344 C 99.350 100.188, 92.313 100.444, 90.863 100.913 M 80.507 102.989 C 80.157 103.555, 80.558 103.723, 81.448 103.382 C 83.180 102.717, 83.497 102, 82.059 102 C 81.541 102, 80.843 102.445, 80.507 102.989 M 71.572 114.028 L 67.644 117 71.822 117 C 75.798 117, 76 116.855, 76 114 C 76 112.350, 75.888 111.013, 75.750 111.028 C 75.612 111.043, 73.732 112.393, 71.572 114.028 M 45.647 122.223 L 51.793 125.325 56.094 122.163 L 60.394 119 49.947 119.060 L 39.500 119.120 45.647 122.223 M 61 122.101 L 58.500 124.158 61 123.640 C 62.375 123.355, 66.313 122.812, 69.750 122.432 C 73.188 122.052, 76 121.350, 76 120.871 C 76 120.392, 73.188 120.010, 69.750 120.022 C 64.942 120.039, 62.923 120.519, 61 122.101 M 79 127.442 C 79 135.013, 83.931 142.521, 89.601 143.585 C 94.808 144.562, 111 136.253, 111 132.604 C 111 128.643, 102.357 125.630, 87.750 124.498 L 79 123.820 79 127.442" stroke="none" fill="black" fill-rule="evenodd"/>
</svg>