<svg xmlns="http://www.w3.org/2000/svg" width="200" height="200" viewBox="0 0 200 200" version="1.1">
	<path d="M 106.500 16.022 C 80.532 16.842, 70.797 17.627, 62.041 19.607 C 49.007 22.555, 48.843 25.684, 61.047 38.496 C 66.023 43.719, 70.963 49.907, 72.025 52.246 C 74.624 57.972, 74.584 65.935, 71.930 71.137 C 70.792 73.368, 69.723 75.038, 69.555 74.847 C 65.707 70.479, 48 43.136, 48 41.561 C 48 40.352, 47.315 37.056, 46.478 34.236 C 44.633 28.025, 41.209 25, 36.025 25 C 31.842 25, 22.215 29.460, 17.222 33.710 L 13.944 36.500 14.900 48 C 15.529 55.561, 15.489 69.024, 14.786 87.306 C 13.561 119.112, 14.421 132.660, 18.390 144.071 C 20.650 150.570, 25.145 158, 26.816 158 C 27.209 158, 28.333 155.741, 29.314 152.980 C 31.438 146.999, 35.959 141.568, 40.905 139.057 C 42.882 138.054, 48.100 136.445, 52.500 135.482 C 68.876 131.900, 71.570 128.834, 71.376 114 C 71.288 107.281, 70.485 101.590, 68.635 94.560 C 66.237 85.449, 66.147 84.425, 67.553 82.278 C 68.397 80.990, 69.474 80.175, 69.945 80.466 C 70.417 80.758, 73.602 84.910, 77.024 89.693 C 82.015 96.671, 83.026 98.697, 82.138 99.945 C 78.195 105.488, 75.876 110.235, 76.419 111.649 C 77.038 113.264, 81.129 113.192, 89 111.427 C 91.033 110.972, 91.845 111.452, 93.347 114.003 C 94.364 115.727, 95.039 117.259, 94.847 117.407 C 94.656 117.555, 92.431 119.073, 89.902 120.781 C 79.313 127.933, 66.388 146, 71.860 146 C 72.268 146, 73.541 144.066, 74.689 141.702 C 77.262 136.407, 85.832 126.900, 91.626 122.914 L 95.947 119.940 96.597 122.531 C 98.455 129.934, 94.524 137.853, 82.640 150.649 C 78.988 154.581, 76 158.068, 76 158.399 C 76 162.204, 91.203 146.612, 96.836 137.031 C 99.096 133.187, 99.485 131.407, 99.398 125.296 C 99.298 118.156, 99.323 118.083, 102.298 117.046 C 107.207 115.335, 107.831 115.693, 108.574 120.645 C 109.426 126.323, 107.861 137.818, 104.793 148.427 L 102.500 156.354 96.787 157.489 C 90.781 158.682, 87 161.185, 87 163.968 C 87 168.751, 98.818 175.039, 109.204 175.782 C 115.020 176.199, 116.667 175.908, 121.273 173.655 C 130.862 168.964, 133.891 159.206, 130.171 145 C 129.090 140.875, 128.310 137.387, 128.437 137.250 C 128.563 137.112, 130.367 139.467, 132.444 142.483 C 136.290 148.067, 143.226 155, 144.968 155 C 147.290 155, 147.873 151.234, 146.530 144.915 C 145.092 138.149, 139.789 122.462, 137.316 117.657 C 136.511 116.093, 136.090 114.577, 136.380 114.287 C 137.332 113.335, 146.109 115.112, 146.423 116.320 C 151.515 135.928, 156.044 146.097, 162.607 152.660 C 167.643 157.695, 171.396 158.336, 174.776 154.738 C 177.535 151.802, 180 142.214, 180 134.423 C 180 128.396, 179.919 128.212, 176.182 125.739 C 171.146 122.407, 161.721 117.734, 155.500 115.486 C 149.108 113.177, 148 111.730, 148 105.687 C 148 100.762, 148.003 100.758, 150.250 102.370 C 156.490 106.847, 161.526 109.305, 165.337 109.735 C 169.091 110.158, 169.912 109.848, 172.767 106.928 C 181.006 98.500, 177.220 91.307, 158.633 80.081 C 153.885 77.212, 150 74.288, 150 73.582 C 150 72.876, 150.486 70.906, 151.079 69.203 C 151.941 66.731, 153.098 65.811, 156.829 64.634 C 159.398 63.823, 163.750 62.874, 166.500 62.524 C 175.985 61.317, 189 57.742, 189 56.342 C 189 54.543, 188.660 54.576, 172 57.983 C 152.992 61.871, 153.602 61.889, 155.440 57.490 C 158.138 51.032, 164.404 42.565, 171.905 35.241 C 179.213 28.105, 179.281 27.993, 175.919 28.590 C 147.549 33.634, 130 42.771, 130 52.498 C 130 58.204, 133.977 60.861, 146.498 63.525 L 149.497 64.163 146.748 66.165 C 143.770 68.334, 143.110 72.017, 145.364 73.887 C 146.381 74.731, 146.519 76.097, 145.908 79.260 C 145.456 81.592, 145.068 85.920, 145.044 88.878 L 145 94.256 142.092 91.878 C 140.493 90.570, 135.264 86.013, 130.472 81.750 C 121.923 74.146, 117.876 72.275, 116.686 75.377 C 115.426 78.659, 121.563 96.338, 125.708 101.370 C 127.009 102.948, 128.743 105.536, 129.562 107.120 L 131.051 110 125.162 110 C 121.923 110, 116.935 110.443, 114.076 110.986 C 109.403 111.872, 108.578 111.748, 105.879 109.752 C 103.809 108.222, 101.278 107.481, 97.721 107.362 C 92.928 107.202, 92.383 106.919, 89.992 103.345 C 84.614 95.306, 82.178 77.227, 85.757 71.909 C 86.715 70.484, 90.537 66.425, 94.250 62.890 C 100.456 56.981, 101 56.130, 101 52.333 C 101 48.254, 96.766 38.623, 93.270 34.750 C 91.785 33.106, 91.999 33, 96.811 33 C 104.713 33, 122.418 30.276, 135.869 26.992 C 154.582 22.422, 160.634 18.381, 152.250 16.053 C 148.232 14.937, 140.996 14.932, 106.500 16.022 M 97.423 19.041 C 68.846 20.188, 55 22.620, 55 26.493 C 55 27.370, 58.812 32.110, 63.470 37.026 C 73.264 47.360, 76.021 52.140, 76.736 60.024 C 77.164 64.747, 76.793 66.710, 74.514 71.789 L 71.779 77.885 77.544 85.692 C 80.715 89.987, 82.965 92.600, 82.544 91.500 C 82.123 90.400, 81.545 86.499, 81.261 82.831 C 80.642 74.859, 83.064 68.714, 88.441 64.613 C 95.669 59.100, 98 56.042, 98 52.072 C 98 47.894, 94.841 41.291, 89.488 34.280 C 87.569 31.768, 86 28.799, 86 27.682 C 86 25.721, 86.085 25.732, 88.479 27.980 C 90.867 30.223, 91.369 30.285, 102.229 29.669 C 118.304 28.757, 149.678 21.949, 151.517 18.973 C 152.201 17.865, 125.888 17.898, 97.423 19.041 M 27.180 30.494 C 24.804 31.852, 21.654 33.823, 20.180 34.874 L 17.500 36.783 17.549 84.642 C 17.603 136.495, 17.702 137.586, 23.368 148.734 L 25.747 153.416 27.984 148.958 C 32.620 139.716, 39.126 135.343, 52.261 132.638 C 62.463 130.537, 65.805 128.708, 67.704 124.184 C 69.809 119.170, 68.907 106.504, 65.524 93.602 C 62.976 83.880, 62.963 83.666, 64.816 81.602 C 68.229 77.800, 68.092 77.221, 61.686 68.319 C 58.196 63.469, 54.026 57.502, 52.420 55.059 L 49.500 50.618 48.881 58.059 C 48.540 62.152, 48.203 72.763, 48.131 81.640 C 48.003 97.442, 46.663 108.295, 43.427 119.750 C 41.871 125.259, 39.665 126.650, 38.648 122.762 C 37.652 118.954, 39.833 90.657, 44.610 45.399 C 45.291 38.947, 43.984 32.916, 41.219 29.750 C 38.959 27.163, 32.399 27.510, 27.180 30.494 M 159.251 34.998 C 133.157 42.700, 124.113 56.017, 142.299 59.960 C 150.070 61.644, 150.712 61.439, 152.862 56.580 C 155.252 51.176, 161.642 41.803, 166.381 36.750 C 169.603 33.314, 169.714 33.006, 167.699 33.076 C 166.490 33.118, 162.688 33.983, 159.251 34.998 M 45 65.819 C 45 67.002, 44.361 75.065, 43.580 83.735 C 42.799 92.406, 41.939 103.325, 41.668 108 L 41.177 116.500 42.637 111 C 44.007 105.837, 46.446 65.113, 45.445 64.112 C 45.200 63.867, 45 64.635, 45 65.819 M 147.079 70.583 C 147.127 71.748, 147.364 71.985, 147.683 71.188 C 147.972 70.466, 147.936 69.603, 147.604 69.271 C 147.272 68.939, 147.036 69.529, 147.079 70.583 M 119.507 79.102 C 121.420 87.993, 127.422 100.261, 134.220 109.178 C 134.984 110.179, 137.677 111.133, 140.896 111.542 C 146.211 112.218, 146.283 112.192, 145.660 109.864 C 145.312 108.564, 145.021 105.448, 145.014 102.940 C 145 98.435, 144.875 98.266, 134.818 89.128 C 129.217 84.040, 123.317 78.938, 121.706 77.791 L 118.776 75.704 119.507 79.102 M 148.640 80.750 C 148.355 82.263, 147.841 86.470, 147.497 90.100 L 146.873 96.700 153.842 101.462 C 158.811 104.858, 162.113 106.371, 165.346 106.735 C 169.643 107.220, 169.987 107.070, 171.936 103.873 C 174.763 99.237, 174.526 96.669, 170.890 92.527 C 168.387 89.676, 151.267 78, 149.590 78 C 149.353 78, 148.926 79.237, 148.640 80.750 M 81.368 106.020 C 79.905 108.232, 78.886 110.220, 79.105 110.438 C 79.812 111.145, 89 108.692, 89 107.796 C 89 106.432, 85.865 102, 84.899 102 C 84.420 102, 82.831 103.809, 81.368 106.020 M 95 110.566 C 95 111.059, 96.900 115.038, 97.482 115.763 C 97.598 115.908, 99.435 115.298, 101.564 114.409 C 105.213 112.884, 105.326 112.711, 103.526 111.396 C 101.691 110.053, 95 109.402, 95 110.566 M 118.097 115.250 C 121.409 121.634, 138.278 145.963, 141.499 149 L 145.211 152.500 144.484 148 C 143.709 143.196, 138.787 128.211, 134.876 118.751 L 132.500 113.003 124.715 113.001 C 116.962 113, 116.934 113.009, 118.097 115.250 M 110.796 114.537 C 110.500 114.833, 110.691 117.105, 111.221 119.586 C 112.435 125.278, 110.918 137.183, 107.397 149.590 L 104.818 158.681 98.720 159.815 C 88.082 161.793, 87.495 165.772, 97.210 170.047 C 104.757 173.368, 114.353 173.822, 120.407 171.144 C 132.196 165.929, 131.683 149.671, 118.892 123.143 C 114.884 114.829, 112.761 112.573, 110.796 114.537 M 150 118.448 C 150 121.489, 155.307 136.740, 158.195 142 C 165.995 156.204, 173.190 157.822, 175.918 145.985 C 176.486 143.518, 176.962 138.783, 176.976 135.461 L 177 129.423 171.656 126.184 C 165.980 122.744, 153.341 117.072, 151.250 117.027 C 150.563 117.012, 150 117.652, 150 118.448" stroke="none" fill="black" fill-rule="evenodd"/>
</svg>