<svg xmlns="http://www.w3.org/2000/svg" width="200" height="200" viewBox="0 0 200 200" version="1.1">
	<path d="M 90.831 14.379 C 84.008 17.185, 76.652 22.393, 68.300 30.329 L 62.100 36.221 49.956 33.110 C 32.209 28.565, 20.960 29.040, 19.617 34.391 C 19.321 35.569, 18.564 42.825, 17.934 50.516 C 16.756 64.897, 17.506 150.507, 18.854 155.547 C 19.486 157.909, 19.629 157.831, 23.004 153.276 C 29.391 144.658, 35.614 142.714, 49.500 144.999 C 62.163 147.083, 67.802 143.031, 72.550 128.434 C 76.020 117.766, 76.264 110.612, 73.623 97 C 69.627 76.411, 73.740 59.847, 84.200 54.405 C 87.145 52.873, 100 52.444, 100 53.878 C 100 56.337, 97.240 56.933, 93.201 55.347 C 89.375 53.844, 88.883 53.847, 86.535 55.385 C 84.751 56.554, 84 57.938, 84 60.056 C 84 67.608, 95.501 82.145, 105.548 87.294 C 111.330 90.258, 111.738 89.984, 95.595 93.977 C 89.088 95.586, 83.510 97.157, 83.199 97.468 C 82.888 97.779, 83.179 98.579, 83.845 99.245 C 84.693 100.093, 92.889 100.672, 111.139 101.172 C 125.483 101.565, 137.481 102.148, 137.801 102.468 C 138.121 102.787, 137.715 105.609, 136.900 108.738 L 135.418 114.428 130.679 114.137 C 124.337 113.747, 119.731 116.533, 109.155 127.158 C 102.105 134.240, 100.108 137.041, 95.933 145.706 C 87.394 163.427, 84.144 175.744, 87.200 178.800 C 89.188 180.788, 93.121 180.195, 105.757 176 C 124.098 169.912, 130.649 170.667, 138.550 179.783 C 141.227 182.871, 142.300 183.360, 147.312 183.776 C 152.235 184.184, 153.562 183.894, 156.914 181.676 C 165.217 176.181, 169.500 161.208, 168.692 140.500 C 168.084 124.921, 165.649 115.803, 160.800 110.954 C 158.044 108.198, 157.174 107.876, 153.892 108.401 C 150.565 108.933, 149.903 108.673, 148.085 106.119 L 146.033 103.237 155.504 102.823 C 163.064 102.492, 165.533 101.994, 167.738 100.354 C 173.432 96.119, 171.185 90.747, 161.745 86.031 C 158.085 84.202, 154.125 83, 151.756 83 L 147.832 83 151.166 78.957 C 158.727 69.789, 160 67.677, 160 64.304 C 160 58.709, 152.758 54.088, 143.807 53.970 C 139.528 53.913, 144.096 52.411, 154.052 50.600 C 159.306 49.645, 164.209 48.489, 164.948 48.032 C 167.192 46.645, 165.327 44.160, 161.301 43.174 C 159.211 42.662, 153.038 41.176, 147.584 39.871 C 141.849 38.500, 137.318 36.867, 136.839 36 C 136.383 35.175, 135.049 31.843, 133.875 28.596 L 131.741 22.692 129.893 25.096 C 126.968 28.901, 127.487 32.780, 131.418 36.488 C 133.620 38.565, 135.400 41.607, 136.418 45.037 C 137.288 47.967, 138 50.506, 138 50.682 C 138 51.437, 132.040 50.818, 126.500 49.489 C 123.200 48.697, 116.582 47.750, 111.793 47.384 L 103.087 46.720 105.519 44.806 C 109.123 41.972, 110.475 36.440, 109.114 30.097 C 108.501 27.240, 108 23.314, 108 21.374 C 108 18.808, 107.203 17.049, 105.077 14.923 C 101.498 11.345, 98.488 11.230, 90.831 14.379 M 92.676 16.452 C 87.098 18.441, 78.924 24.142, 71.315 31.350 L 64.642 37.673 76.168 40.866 C 90.364 44.797, 96.646 45.602, 101.259 44.080 C 106.203 42.448, 107.369 39.140, 106.461 29.321 C 105.135 14.982, 102.830 12.830, 92.676 16.452 M 131.015 31.191 C 131.007 32.121, 131.450 33.160, 132 33.500 C 133.266 34.282, 133.266 32.958, 132 31 C 131.165 29.707, 131.029 29.734, 131.015 31.191 M 26.199 32.976 C 24.384 33.412, 22.739 33.933, 22.543 34.134 C 22.348 34.335, 21.696 39.416, 21.094 45.424 C 19.868 57.664, 19.670 95.424, 20.661 128.215 L 21.316 149.929 24.553 147.088 C 29.522 142.725, 36.039 140.608, 42.258 141.335 C 58.229 143.204, 58.376 143.202, 61.715 141.098 C 65.545 138.684, 69.143 131.923, 71.345 123 C 73.544 114.088, 73.526 112.208, 71.111 98.651 C 68.715 85.201, 68.545 80.830, 70.091 72.465 C 71.338 65.722, 74.099 59.697, 77.711 55.840 L 80.201 53.181 73.851 52.520 C 70.358 52.156, 64.373 52.003, 60.552 52.180 C 53.901 52.486, 53.522 52.640, 51.707 55.755 C 49.701 59.197, 46.569 79.068, 47.547 82.148 C 48.091 83.864, 53.103 88.581, 56.420 90.500 C 58.011 91.421, 57.836 92.376, 54.210 102.537 C 48.182 119.431, 45.572 123.599, 42.979 120.475 C 41.969 119.258, 41.875 115.548, 42.541 103.213 C 43.007 94.571, 43.300 83.900, 43.192 79.500 C 43.057 74.023, 43.621 69.292, 44.980 64.500 C 46.071 60.650, 47.440 55.587, 48.021 53.250 C 48.750 50.318, 49.608 49, 50.789 48.999 C 51.730 48.998, 54.181 46.735, 56.235 43.969 C 60.610 38.077, 61.177 38.615, 47 35.200 C 36.210 32.600, 30.365 31.975, 26.199 32.976 M 59.212 44.355 L 56.084 48.710 64.292 49.349 C 76.885 50.329, 87.187 50.044, 90.500 48.623 L 93.500 47.337 88.500 46.656 C 85.750 46.282, 79.039 44.631, 73.587 42.988 C 68.135 41.345, 63.374 40, 63.007 40 C 62.639 40, 60.932 41.960, 59.212 44.355 M 138.337 41.437 C 138.637 42.218, 139.184 44.465, 139.553 46.429 C 139.921 48.393, 140.709 50, 141.304 50 C 144.439 50, 160.864 46.589, 160.508 46.012 C 160.278 45.641, 156.807 44.750, 152.795 44.034 C 148.783 43.318, 143.766 42.121, 141.646 41.374 C 138.336 40.207, 137.869 40.216, 138.337 41.437 M 98.750 50.706 C 99.987 50.944, 102.013 50.944, 103.250 50.706 C 104.487 50.467, 103.475 50.272, 101 50.272 C 98.525 50.272, 97.513 50.467, 98.750 50.706 M 102.033 56.194 C 100.909 57.401, 100.329 58.663, 100.744 58.998 C 101.160 59.334, 104.650 62.142, 108.500 65.240 C 112.350 68.337, 118.186 73.601, 121.469 76.936 C 124.751 80.271, 128.297 83, 129.347 83 C 131.102 83, 131.220 82.373, 130.794 75.250 C 130.268 66.433, 127.885 60.764, 122.967 56.626 C 120.176 54.277, 119.014 54, 111.962 54 C 105.133 54, 103.804 54.294, 102.033 56.194 M 128.451 58.523 C 133.667 66.209, 136.093 82.729, 132.317 84.843 C 130.841 85.669, 131.160 86.413, 134.910 90.892 C 137.262 93.702, 139.432 96, 139.732 96 C 140.033 96, 140.012 93.750, 139.686 91 C 139.341 88.084, 139.491 86, 140.047 86 C 141.930 86, 140.523 58.189, 138.540 56.207 C 138.220 55.887, 135.243 55.428, 131.925 55.188 L 125.892 54.752 128.451 58.523 M 142.308 58.788 C 142.626 60.380, 143.208 66.351, 143.601 72.057 L 144.316 82.432 149.243 76.966 C 155.673 69.833, 158.402 64.619, 157.039 62.073 C 156.060 60.243, 150.627 57.813, 144.614 56.516 C 141.869 55.924, 141.757 56.035, 142.308 58.788 M 87.009 60.250 C 87.030 67.236, 97.480 80.143, 107.081 85.041 L 111.446 87.268 106.330 81.670 C 100.237 75.004, 97 68.746, 97 63.633 C 97 60.316, 96.612 59.736, 93.532 58.449 C 88.171 56.209, 86.999 56.533, 87.009 60.250 M 100 64.618 C 100 69.095, 103.786 75.608, 110.138 82.060 C 116.386 88.405, 116.190 88.347, 122.930 85.823 C 125.307 84.932, 125.210 84.762, 118.430 77.917 C 114.618 74.070, 108.912 68.884, 105.750 66.394 L 100 61.867 100 64.618 M 145.381 85.938 C 143.665 86.667, 143.165 87.951, 142.756 92.669 C 142.478 95.876, 142.446 98.838, 142.684 99.250 C 143.425 100.531, 162.295 100.074, 164.991 98.710 C 170.275 96.037, 168.231 91.636, 160.075 88.128 C 154.254 85.624, 148.230 84.726, 145.381 85.938 M 45.671 92.305 C 45.344 95.712, 44.807 103, 44.476 108.500 C 43.935 117.527, 44.023 118.318, 45.388 116.628 C 46.975 114.662, 52.817 99.290, 53.607 95 C 53.971 93.023, 53.251 91.831, 50.166 89.305 L 46.265 86.110 45.671 92.305 M 122.500 88.737 C 120.300 89.635, 118.350 90.737, 118.167 91.185 C 117.983 91.633, 117.083 91.990, 116.167 91.978 C 115.250 91.966, 109.633 93.204, 103.685 94.728 L 92.870 97.500 115.685 98.563 C 128.233 99.147, 138.592 99.581, 138.704 99.525 C 139.160 99.301, 127.790 87.004, 127.170 87.052 C 126.802 87.080, 124.700 87.838, 122.500 88.737 M 139.370 109.899 C 137.313 116.885, 137.307 117.115, 139.104 120.768 C 140.114 122.821, 141.389 128.494, 141.939 133.376 C 143.085 143.552, 142.239 163.290, 140.559 165.588 C 139.669 166.806, 137.047 167.177, 128.331 167.319 C 118.536 167.479, 116.979 167.269, 115.039 165.523 C 111.902 162.701, 112.698 160.117, 121.947 143.103 C 131.689 125.181, 134.647 118.027, 132.799 116.854 C 128.915 114.391, 121.333 118.607, 111.129 128.903 C 104.034 136.062, 102.013 138.878, 98.439 146.576 C 89.978 164.806, 87.022 176.027, 90.343 177.301 C 91.082 177.585, 96.820 176.081, 103.093 173.958 C 122.670 167.336, 129.926 167.663, 137.785 175.521 C 143.188 180.925, 146.959 182.358, 152.120 180.968 C 156.783 179.712, 160.268 175.434, 163.209 167.355 C 166.187 159.175, 166.932 137.265, 164.588 126.802 C 161.768 114.216, 156.891 108.356, 152.362 112.114 C 151.069 113.188, 150.118 112.569, 146.153 108.072 L 141.472 102.763 139.370 109.899 M 133.573 126.500 C 132.101 129.800, 127.545 138.614, 123.448 146.087 C 119.352 153.560, 116 160.639, 116 161.818 C 116 163.294, 116.812 164.166, 118.604 164.615 C 121.642 165.378, 137.808 164.525, 138.782 163.551 C 139.147 163.187, 139.424 155.151, 139.398 145.694 C 139.363 132.630, 138.979 127.539, 137.801 124.500 L 136.249 120.500 133.573 126.500" stroke="none" fill="black" fill-rule="evenodd"/>
</svg>