<svg xmlns="http://www.w3.org/2000/svg" width="200" height="200" viewBox="0 0 200 200" version="1.1">
	<path d="M 31.643 23.053 C 27.405 24.286, 25.288 26.648, 23.291 32.368 C 21.709 36.901, 21.555 40.185, 21.972 60.500 C 22.232 73.150, 22.457 90.588, 22.472 99.250 C 22.492 110.388, 22.835 115, 23.644 115 C 25.541 115, 26.198 98.904, 25.072 80 C 22.992 45.096, 24.101 32.100, 29.573 27.250 C 32.908 24.294, 34.052 24.381, 45.286 28.448 C 58.811 33.344, 70.172 34.389, 96.045 33.118 C 116.219 32.126, 131.775 32.787, 138.500 34.920 C 140.492 35.551, 128.727 35.812, 103.500 35.694 C 66.009 35.519, 65.424 35.547, 59.810 37.807 C 52.686 40.676, 48.540 45.257, 47.134 51.810 C 46.086 56.696, 46.337 59.614, 48.943 72.886 C 50.428 80.451, 50.260 93.327, 48.389 115.453 C 45.332 151.607, 48.656 164.407, 62.037 168.010 C 66.150 169.117, 116.817 169.547, 125.634 168.549 C 137.190 167.241, 170.881 166.020, 173.069 166.830 C 175.356 167.676, 175.322 167.738, 171.965 168.818 C 163.205 171.638, 153.566 172.138, 114 171.823 L 73.500 171.500 63 175.445 C 53.655 178.955, 51.491 179.396, 43.330 179.445 C 32.843 179.508, 30.108 178.221, 26.678 171.611 C 23.183 164.877, 22.766 148.480, 25.601 129.250 C 26.097 125.880, 25.920 125, 24.745 125 C 22.803 125, 22.092 129.797, 21.332 148.022 C 20.617 165.150, 21.942 171.675, 27.285 177.341 C 33.977 184.436, 44.576 184.606, 64.287 177.934 L 76.500 173.801 98.500 174.150 C 139.468 174.802, 160.251 174.488, 166.500 173.125 C 173.208 171.662, 180.435 167.914, 181.401 165.397 C 181.985 163.877, 180.215 163.786, 159.768 164.287 C 147.521 164.586, 127.150 165.365, 114.500 166.016 C 99.037 166.812, 86.502 166.904, 76.251 166.296 C 58.756 165.258, 57.087 164.562, 53.122 156.652 C 49.762 149.951, 49.370 139.028, 51.498 111.388 C 53.358 87.223, 53.118 77.198, 50.394 65.133 C 48.136 55.136, 49.073 49.691, 53.879 44.886 C 59.928 38.836, 62.357 38.500, 100 38.500 C 118.425 38.500, 133.839 38.640, 134.254 38.811 C 134.668 38.983, 133.543 40.299, 131.754 41.737 C 129.964 43.175, 126.346 46.410, 123.714 48.926 L 118.928 53.500 92.796 54 C 57.991 54.666, 57.446 55.997, 88.500 64.496 C 97.300 66.905, 104.275 68.912, 104 68.957 C 103.725 69.002, 98.775 69.682, 93 70.467 C 73.166 73.165, 65.787 76.955, 61.163 86.819 C 58.538 92.419, 58.500 92.805, 58.500 114 C 58.500 133.679, 58.697 136.135, 60.824 143 C 63.980 153.189, 67.193 158, 70.840 158 C 75.286 158, 79.618 152.116, 82.531 142.122 C 86.555 128.312, 88.859 104.395, 87.239 93.250 C 86.235 86.341, 87.197 85.348, 91.783 88.561 C 97.770 92.754, 98.401 101.151, 94.144 120 C 92.592 126.875, 91.522 133.063, 91.768 133.750 C 93.125 137.552, 98.091 133.108, 111.279 116.293 C 115.251 111.229, 118.725 107.084, 119 107.082 C 119.275 107.080, 121.975 110.922, 125 115.618 C 128.025 120.315, 131.899 125.403, 133.608 126.924 L 136.716 129.690 133.746 133.595 C 124.615 145.602, 127.329 150.147, 146.487 154.934 L 154.466 156.928 157.113 154.391 C 168.470 143.511, 174.399 107.310, 168.353 85.763 C 166.120 77.803, 160.836 71.980, 155.905 72.045 C 154.032 72.070, 151.163 72.660, 149.528 73.358 C 147.160 74.368, 144.825 74.381, 138.028 73.424 C 126.552 71.808, 123.357 70.939, 125.165 69.928 C 125.943 69.492, 132.187 67.737, 139.040 66.027 C 164.135 59.767, 171.414 56.367, 170.807 51.188 C 170.504 48.599, 169.518 47.760, 160.106 42.079 C 157.899 40.747, 156.287 39.345, 156.523 38.964 C 156.758 38.582, 158.836 38.017, 161.139 37.708 C 165.221 37.161, 170.013 34.462, 170.732 32.305 C 170.928 31.715, 170.362 30.505, 169.473 29.616 C 167.090 27.233, 159.996 27.599, 151.454 30.548 C 144.120 33.079, 144.022 33.085, 136.329 31.496 C 129.921 30.173, 122.713 29.949, 94.543 30.198 C 58.220 30.520, 55.912 30.289, 43.907 25.134 C 37.920 22.563, 35.018 22.070, 31.643 23.053 M 153.250 32.662 C 150.912 33.490, 149 34.579, 149 35.083 C 149 37.458, 164.844 35.098, 167.092 32.389 C 168.053 31.232, 167.349 31.013, 162.872 31.079 C 159.918 31.122, 155.588 31.835, 153.250 32.662 M 135.900 42.163 C 133.480 43.903, 128.750 47.728, 125.389 50.663 L 119.278 56 95.389 56.068 C 78.187 56.116, 72.098 56.425, 73.635 57.169 C 74.810 57.738, 84.404 60.520, 94.956 63.352 C 105.509 66.183, 114.144 68.950, 114.146 69.500 C 114.152 70.892, 110.253 71.686, 97.500 72.889 C 76.806 74.841, 68.534 78.450, 64 87.507 C 61.560 92.379, 61.500 93.032, 61.500 114.500 C 61.500 135.010, 61.662 136.991, 63.891 143.756 C 66.733 152.379, 70.047 156.581, 72.831 155.090 C 75.661 153.576, 79.632 143.651, 82.069 132 C 84.400 120.859, 85.297 96.960, 83.716 88.114 L 82.933 83.728 87.005 84.274 C 92.708 85.039, 95.859 87.427, 98.227 92.780 C 100.755 98.494, 100.237 107.781, 96.611 121.750 C 95.290 126.838, 94.541 131, 94.945 131 C 95.698 131, 104.359 120.809, 113.865 108.739 L 119.189 101.978 125.997 112.285 C 135.792 127.117, 136.264 127.184, 132.812 113.259 C 128.960 97.724, 128.126 88.017, 130.442 85.701 C 132.793 83.350, 135.592 83.571, 140.591 86.501 C 144.464 88.770, 144.968 89.529, 146.044 94.710 C 146.695 97.850, 147.038 104.037, 146.805 108.460 C 146.305 117.929, 143.803 124.137, 135.956 135.376 C 128.638 145.857, 129.535 147.339, 146 151.961 L 153.500 154.066 156.733 150.386 C 162.798 143.482, 166.716 129.363, 167.674 110.952 C 169.063 84.279, 161.892 70.536, 149.526 76.170 C 147.551 77.070, 144.709 77.047, 137.229 76.073 C 123.042 74.225, 118.151 71.609, 122.356 68.119 C 123.102 67.500, 131.540 64.961, 141.106 62.477 C 166.270 55.943, 172.371 52.303, 164.957 48.246 C 163.202 47.286, 159.232 44.814, 156.133 42.752 C 148.521 37.688, 142.374 37.509, 135.900 42.163 M 132 92.275 C 132 95.176, 133.350 103.079, 135 109.836 C 136.650 116.593, 138.014 123.106, 138.032 124.311 C 138.063 126.480, 138.077 126.482, 139.576 124.500 C 143.399 119.444, 145.259 105.410, 143.492 94.950 C 142.993 91.999, 142.042 90.571, 139.549 89.030 C 137.742 87.914, 135.305 87, 134.132 87 C 132.225 87, 132 87.558, 132 92.275" stroke="none" fill="black" fill-rule="evenodd"/>
</svg>