<svg xmlns="http://www.w3.org/2000/svg" width="200" height="200" viewBox="0 0 200 200" version="1.1">
	<path d="M 56.946 17.709 C 42.581 24.855, 21 54.651, 21 67.338 C 21 75.612, 28.590 74.682, 41.846 64.783 C 45.409 62.122, 46.858 60.458, 46.191 59.791 C 45.524 59.124, 43.403 60.141, 39.827 62.841 C 32.826 68.126, 25.975 71.224, 24.321 69.852 C 19.771 66.075, 34.603 39.875, 48.460 27.210 C 58.995 17.582, 68.465 15.311, 74.194 21.040 C 76.692 23.539, 77.126 24.622, 76.626 27.122 C 75.254 33.978, 81.696 37.782, 96.298 38.740 L 105.500 39.343 93.500 41.081 C 74.329 43.857, 54.830 49.230, 56.795 51.195 C 57.312 51.712, 61.402 51.001, 66.592 49.491 C 86.067 43.825, 113.099 40.856, 127 42.855 C 136.235 44.184, 145 46.734, 145 48.092 C 145 48.650, 142.469 52.239, 139.376 56.067 L 133.753 63.027 129.476 59.085 C 120.615 50.917, 110.986 48.126, 98.197 50.018 C 87.701 51.571, 54 62.660, 54 64.561 C 54 65.691, 55.770 66.015, 62.250 66.070 C 66.787 66.109, 71.400 66.493, 72.500 66.924 C 74.226 67.600, 73.816 68.047, 69.500 70.196 C 66.750 71.566, 60.125 74.362, 54.779 76.410 C 44.010 80.534, 40.365 82.903, 41.247 85.202 C 41.871 86.828, 46.201 88, 51.588 88 L 54.925 88 50.663 92.386 C 34.827 108.680, 26.083 153.810, 36.705 164.432 C 39.789 167.517, 42.400 167.663, 46.774 164.996 C 49.669 163.231, 51.814 163, 65.274 163.004 C 73.648 163.006, 86.287 163.303, 93.360 163.664 L 106.220 164.320 105.705 168.160 C 105.059 172.976, 107.585 173.559, 109.310 168.991 C 109.934 167.336, 110.746 166.098, 111.114 166.241 C 111.481 166.383, 113.637 168.857, 115.904 171.737 C 120.685 177.811, 128.768 184.499, 134.500 187.124 C 136.879 188.214, 140.843 188.965, 144.283 188.978 C 158.885 189.033, 170.501 176.289, 177.530 152.500 C 180.925 141.013, 181.998 120.326, 179.753 109.686 C 178.508 103.789, 178.504 101.098, 179.720 89.686 C 181.634 71.735, 181.072 48.832, 178.593 43.739 C 175.024 36.407, 169.161 38.116, 161.342 48.767 C 158.786 52.248, 156.423 54.736, 156.090 54.298 C 155.757 53.859, 154.200 52.073, 152.630 50.329 L 149.776 47.157 155.138 40.228 C 158.087 36.416, 162.075 32.444, 164 31.399 C 167.905 29.280, 169.246 25.415, 166.449 24.342 C 165.273 23.891, 163.805 24.790, 161.629 27.296 C 158.092 31.368, 155.695 32.153, 140 34.385 C 116.311 37.753, 91.320 37.278, 83.192 33.305 C 79.911 31.701, 79.530 31.126, 79.768 28.147 C 80.098 24.006, 76.890 18.512, 72.953 16.476 C 68.640 14.245, 63.043 14.677, 56.946 17.709 M 149.494 35.568 C 146.191 36.288, 138.091 37.525, 131.494 38.316 C 124.103 39.203, 121.304 39.802, 124.201 39.878 C 130.219 40.034, 138.298 41.770, 143.611 44.048 L 147.780 45.835 151.140 41.234 C 154.669 36.402, 156.302 33.913, 155.800 34.129 C 155.635 34.200, 152.797 34.848, 149.494 35.568 M 169.248 43.529 C 168.009 44.402, 165.096 47.903, 162.774 51.308 C 159.051 56.769, 158.473 58.385, 157.875 65 C 157.501 69.125, 156.233 74.718, 155.057 77.429 L 152.917 82.358 154.959 91.053 C 158.775 107.307, 157.305 127.769, 151.531 138.769 C 148.446 144.648, 147.210 146.188, 143.799 148.408 C 140.610 150.483, 137.527 149.819, 135.789 146.682 C 133.945 143.354, 134.480 130.548, 136.882 120.500 C 138.813 112.424, 138.895 111.038, 137.681 107 L 136.327 102.500 134.557 106.500 C 133.583 108.700, 128.145 121.975, 122.472 136 L 112.158 161.500 123.774 162.289 C 134.313 163.005, 139.067 164.258, 137.445 165.893 C 137.114 166.227, 132.041 166.725, 126.171 167 L 115.500 167.500 122.500 174.564 C 137.328 189.527, 150.273 190.388, 162.130 177.200 C 173.818 164.201, 180.396 138.558, 177.703 116.499 C 176.462 106.333, 176.442 103.047, 177.441 73 C 178.004 56.048, 177.866 50.548, 176.788 47 C 175.255 41.955, 172.971 40.904, 169.248 43.529 M 144.559 53.750 C 142.942 55.813, 140.097 59.387, 138.236 61.693 L 134.853 65.885 137.540 68.193 C 139.017 69.462, 141.247 71.988, 142.494 73.807 L 144.761 77.113 149.784 67.810 C 153.871 60.241, 154.615 58.134, 153.778 56.504 C 152.587 54.183, 148.920 50, 148.076 50 C 147.759 50, 146.177 51.688, 144.559 53.750 M 94.075 53.493 C 90.541 54.292, 82.237 56.635, 75.621 58.700 L 63.592 62.455 68.046 63.260 C 76.567 64.799, 77 64.982, 77 67.034 C 77 69.700, 73.115 71.934, 57.750 78.100 C 50.738 80.914, 45 83.602, 45 84.072 C 45 84.543, 49.351 85.056, 54.669 85.214 C 61.302 85.410, 64.468 85.892, 64.752 86.750 C 64.986 87.455, 64.343 88, 63.279 88 C 60.014 88, 52.355 93.624, 49.021 98.469 C 40.266 111.194, 35.675 127.079, 35.572 145 C 35.468 163.060, 38.166 167.151, 46.702 161.875 C 50.073 159.792, 50.691 159.764, 78.005 160.482 L 105.869 161.215 106.564 157.512 C 107.359 153.275, 106.598 135.374, 105.511 132.750 C 104.149 129.462, 101.338 131.001, 93.173 139.500 C 81.694 151.449, 79.272 150.982, 78.792 136.727 L 78.500 128.058 67.340 138.529 C 61.202 144.288, 55.915 149, 55.590 149 C 53.938 149, 55.825 146.018, 64.581 134.793 L 74.162 122.510 68.100 120.725 C 62.224 118.994, 59.121 116.231, 60.517 113.972 C 62.778 110.314, 74.080 107.930, 93 107.120 L 107.500 106.500 111.721 98.392 L 115.942 90.284 110.721 91.224 C 107.849 91.742, 98.665 94.828, 90.311 98.083 C 72.037 105.202, 67.977 105.629, 64.963 100.750 C 63.731 98.756, 63.060 96.167, 63.228 94.049 C 63.773 87.136, 72.532 85.019, 100.643 85.008 C 116.471 85.001, 118.866 84.792, 119.410 83.373 C 119.754 82.479, 119.605 81.229, 119.081 80.597 C 117.144 78.264, 123.390 68.810, 126.994 68.621 C 128.253 68.554, 129.771 67.726, 130.367 66.780 C 131.249 65.383, 130.804 64.392, 127.988 61.488 C 120.140 53.391, 107.603 50.435, 94.075 53.493 M 150.850 71.649 C 148.842 75.417, 145.096 83.119, 142.527 88.764 L 137.854 99.029 139.915 104.985 L 141.977 110.940 139.829 119.720 C 137.348 129.858, 136.784 144.170, 138.785 146.180 C 141.053 148.457, 145.170 145.076, 148.792 137.965 C 155.230 125.321, 156.394 107.681, 151.941 90.269 L 149.996 82.666 152.558 76.263 C 153.967 72.742, 154.980 68.721, 154.810 67.329 C 154.547 65.184, 153.943 65.843, 150.850 71.649 M 129.364 72.323 C 127.155 74.833, 124.631 78.712, 123.755 80.943 L 122.161 85 127.830 84.923 C 142.172 84.729, 145.474 80.560, 137.756 72.391 L 133.381 67.761 129.364 72.323 M 131.500 87.440 C 125.948 88.368, 124.979 88.772, 126.816 89.393 C 128.089 89.824, 130.655 91.514, 132.518 93.150 L 135.904 96.123 138.469 91.061 C 140.134 87.775, 140.589 86.047, 139.767 86.135 C 139.070 86.209, 135.350 86.797, 131.500 87.440 M 76 88.692 C 66.846 90.228, 63.928 93.027, 66.433 97.870 C 69.064 102.958, 71.119 102.759, 88.500 95.735 C 94 93.513, 101.200 90.895, 104.500 89.918 L 110.500 88.142 94.500 88.207 C 85.700 88.243, 77.375 88.461, 76 88.692 M 115.156 97.812 L 111.153 105.500 117.421 105.172 C 121.469 104.959, 124.986 105.385, 127.351 106.373 L 131.013 107.904 132.507 104.330 C 133.328 102.364, 134 100.182, 134 99.481 C 134 97.584, 127.367 92.117, 124.232 91.431 C 122.729 91.102, 120.973 90.673, 120.329 90.478 C 119.685 90.283, 117.357 93.583, 115.156 97.812 M 112.429 108.380 C 107.696 109.549, 92.738 116.904, 90.500 119.162 C 89.131 120.542, 99.450 119.266, 108.829 116.895 C 118.195 114.526, 128.621 109.919, 126.823 108.943 C 124.052 107.439, 117.304 107.175, 112.429 108.380 M 91.500 109.679 C 82.066 110.153, 69.824 112.047, 66.073 113.614 C 61.700 115.441, 62.880 116.770, 70.435 118.526 L 76.050 119.831 78.775 116.416 C 82.393 111.880, 84.346 111.913, 83.810 116.500 C 83.585 118.425, 83.649 119.990, 83.951 119.979 C 84.253 119.967, 87.484 118.054, 91.132 115.729 C 94.780 113.403, 98.605 110.964, 99.632 110.309 C 101.428 109.163, 101.423 109.123, 99.500 109.248 C 98.400 109.320, 94.800 109.514, 91.500 109.679 M 123.599 114.693 C 117.379 117.864, 102.741 121.587, 92.890 122.502 C 88.705 122.891, 84.679 123.580, 83.944 124.034 C 83.136 124.534, 82.310 127.949, 81.855 132.680 C 81.060 140.924, 81.526 145, 83.263 145 C 83.839 145, 87.983 141.175, 92.472 136.500 C 100.952 127.669, 103.348 126.518, 106.348 129.832 C 108.878 132.627, 110.300 142.410, 109.644 152.500 L 109.060 161.500 118.983 137.037 C 124.442 123.582, 128.816 112.488, 128.704 112.384 C 128.592 112.279, 126.295 113.318, 123.599 114.693 M 73.834 127.247 L 70.500 131.495 75.250 127.627 C 80.408 123.427, 80.716 123, 78.584 123 C 77.805 123, 75.668 124.911, 73.834 127.247" stroke="none" fill="black" fill-rule="evenodd"/>
</svg>