<svg xmlns="http://www.w3.org/2000/svg" width="200" height="200" viewBox="0 0 200 200" version="1.1">
	<path d="M 152.580 18.901 C 145.564 22.431, 135.141 22.794, 117.766 20.113 C 100.737 17.486, 91.874 17.420, 86.459 19.880 C 81.813 21.990, 77.671 26.503, 75.909 31.374 L 74.689 34.749 67.578 30.914 C 45.230 18.859, 26.283 23.379, 17.101 42.954 C 14.734 48.001, 14.500 49.625, 14.500 61 C 14.500 70.060, 15.002 75.289, 16.325 80 C 18.117 86.379, 18.112 86.689, 16.075 96.657 C 10.570 123.602, 16.976 146.207, 31.475 150.992 C 36.323 152.592, 41.078 150.888, 45.234 146.063 C 48.165 142.659, 49.091 142.222, 54.258 141.802 C 60.763 141.273, 63.873 139.076, 67.142 132.703 C 70.830 125.511, 71.492 115.464, 70.131 87.340 C 69.221 68.556, 69.174 60.008, 69.955 56.035 C 71.491 48.223, 72.621 47.934, 73.437 55.143 C 74.335 63.086, 75.881 66.756, 80.465 71.830 C 87.031 79.098, 97.594 80.798, 106.848 76.078 C 110.919 74.001, 116.435 68.334, 118.238 64.377 C 119.558 61.479, 120.058 61.465, 128.549 64.088 C 134.052 65.788, 138.305 67.893, 143.889 71.681 C 144.103 71.826, 142.753 74.482, 140.889 77.583 L 137.500 83.221 118.500 82.620 C 96.748 81.932, 87.686 82.657, 87.214 85.121 C 87.023 86.117, 87.788 86.976, 89.202 87.351 C 92.132 88.128, 108.493 89.849, 121.802 90.780 L 132.104 91.500 126.530 98.250 C 123.464 101.963, 120.281 105, 119.457 105 C 118.632 105, 117.444 106.126, 116.817 107.503 C 115.464 110.471, 105.047 116, 100.808 116 C 94.164 116, 85.717 110.053, 80.215 101.500 L 77.641 97.500 76.715 101 C 73.091 114.705, 82.571 130.545, 97.500 135.728 C 102.975 137.629, 118.780 138.135, 127.300 136.681 L 132.100 135.862 124.723 143.181 C 115.514 152.318, 112.500 158.148, 112.500 166.827 C 112.500 172.836, 112.685 173.323, 116.169 176.516 C 122.653 182.458, 131.621 182.238, 144.785 175.814 C 153.100 171.757, 160.280 164.757, 165.982 155.153 C 175.552 139.031, 174.370 130.400, 162 126.085 C 160.075 125.413, 151.010 124.245, 141.855 123.489 C 132.519 122.719, 123.643 121.460, 121.641 120.623 C 117.233 118.782, 115.999 115.176, 118.481 111.389 C 120.110 108.903, 120.423 108.829, 125.841 109.646 C 134.175 110.904, 156.854 110.636, 161.599 109.224 C 166.947 107.632, 172.071 104.128, 173.954 100.773 C 175.339 98.306, 175.294 97.868, 173.398 95.296 C 172.264 93.758, 169.208 91.332, 166.607 89.905 L 161.877 87.311 164.403 85.655 C 165.793 84.745, 167.790 84, 168.842 84 C 169.894 84, 171.326 83.312, 172.024 82.471 C 173.075 81.204, 172.915 80.539, 171.092 78.598 C 169.881 77.309, 167.002 75.434, 164.695 74.431 C 162.388 73.428, 160.340 72.498, 160.145 72.365 C 159.950 72.232, 161.441 70.674, 163.459 68.902 C 170.142 63.034, 174 52.285, 174 39.533 C 174 31.997, 173.386 30, 171.067 30 C 168.235 30, 165.384 33.905, 156.403 50.088 C 151.699 58.564, 147.521 65.840, 147.119 66.256 C 145.842 67.577, 136.627 63.857, 133.155 60.619 C 131.315 58.904, 128.401 55.475, 126.680 53 C 124.015 49.167, 123.465 47.314, 122.974 40.500 C 122.423 32.864, 122.337 32.636, 121.101 35.500 C 120.388 37.150, 119.737 42.415, 119.653 47.200 C 119.569 51.985, 119.041 56.360, 118.479 56.921 C 117.784 57.616, 115.867 57.454, 112.479 56.415 C 109.741 55.575, 100.750 53.169, 92.500 51.068 C 79.439 47.742, 77.459 46.974, 77.180 45.124 C 76.782 42.474, 78.650 42.387, 87.624 44.642 C 92.984 45.988, 94.076 46.601, 93.697 48.052 C 93.344 49.401, 94.006 49.966, 96.483 50.431 C 100.225 51.133, 103.238 50.265, 102.747 48.627 C 102.128 46.556, 93.242 42.879, 84.658 41.141 L 76.165 39.422 77.940 34.177 C 82.386 21.043, 91.211 18.514, 117.500 22.835 L 128.500 24.643 121.919 25.268 C 113.330 26.084, 94.762 29.868, 93.567 31.046 C 91.509 33.075, 94.329 33.108, 103.685 31.165 C 118.119 28.166, 120.089 27.921, 129.817 27.905 C 138.834 27.891, 147 29.991, 147 32.325 C 147 32.935, 146.270 35.344, 145.379 37.679 C 143.633 42.250, 144.033 45, 146.443 45 C 148.477 45, 151 39.871, 151 35.737 C 151 33.585, 152.441 29.984, 155 25.742 C 160.788 16.145, 160.375 14.978, 152.580 18.901 M 146 23.947 C 139.907 25.522, 139.688 25.675, 142.500 26.392 C 144.150 26.812, 146.223 27.807, 147.107 28.603 C 148.860 30.182, 149.025 30.061, 152.333 24.750 C 153.275 23.238, 153.698 22.060, 153.273 22.133 C 152.848 22.207, 149.575 23.023, 146 23.947 M 35.558 28.492 C 30.377 30.338, 27.206 32.766, 23.259 37.909 C 16.408 46.835, 14.720 62.936, 18.981 78.712 C 21.135 86.690, 21.151 87.103, 19.522 93.212 C 17.224 101.830, 16.381 121.222, 18.004 128.116 C 20.967 140.701, 27.886 149, 35.416 149 C 38.150 149, 44.560 143.961, 45.469 141.097 C 45.931 139.642, 47.114 139.333, 51.962 139.399 C 57.202 139.470, 58.243 139.141, 60.927 136.569 C 66.470 131.260, 67.502 126.601, 67.482 107 C 67.471 97.375, 67.308 81.850, 67.118 72.500 C 66.904 61.946, 67.189 54.198, 67.870 52.066 C 68.472 50.178, 68.830 48.497, 68.665 48.331 C 68.499 48.165, 64.849 47.484, 60.554 46.816 L 52.745 45.602 49.954 48.726 C 45.836 53.335, 45.065 61.184, 47.814 70.526 C 49.753 77.117, 49.838 78.755, 48.970 92.573 C 47.927 109.167, 47.216 115.032, 46.012 116.980 C 44.610 119.248, 42.316 117.329, 41.656 113.337 C 40.479 106.215, 41.076 76.586, 42.640 64.500 C 43.494 57.900, 44.262 50.475, 44.346 48 C 44.496 43.614, 44.589 43.493, 48 43.206 C 49.925 43.044, 53.683 42.205, 56.352 41.342 C 59.020 40.478, 64.272 39.711, 68.024 39.636 C 74.276 39.511, 74.721 39.363, 73.367 37.860 C 71.180 35.433, 61.277 30.419, 55.068 28.595 C 48.450 26.651, 40.838 26.611, 35.558 28.492 M 167.879 36 C 165.043 39.788, 150 66.807, 150 68.113 C 150 68.551, 151.558 69.202, 153.463 69.559 C 163.170 71.380, 171.704 56.362, 170.828 39 L 170.500 32.500 167.879 36 M 61.500 42.799 C 58.898 43.232, 59.295 43.468, 64.500 44.581 C 70.058 45.769, 70.645 45.722, 72.472 43.932 C 74.427 42.018, 74.399 42.001, 69.472 42.150 C 66.737 42.232, 63.150 42.524, 61.500 42.799 M 76 53.318 C 76 62.400, 82.035 72.200, 89.315 74.940 C 96.188 77.527, 104.882 75.410, 110.835 69.699 C 113.905 66.754, 117.586 61.144, 116.824 60.571 C 115.973 59.932, 78.151 50, 76.569 50 C 76.256 50, 76 51.493, 76 53.318 M 121.986 53.050 C 121.979 53.848, 121.716 55.455, 121.403 56.623 C 120.942 58.339, 121.453 58.962, 124.066 59.873 C 129.039 61.607, 129.315 61.291, 126.356 57.250 C 122.328 51.749, 122.002 51.435, 121.986 53.050 M 43.794 84.500 C 43.493 92.200, 43.535 101.650, 43.888 105.500 L 44.530 112.500 45.233 105.500 C 46.872 89.166, 47.050 76.544, 45.686 73.500 C 44.458 70.760, 44.294 71.712, 43.794 84.500 M 143.882 77.707 C 142.179 80.683, 140.946 83.251, 141.143 83.414 C 141.339 83.576, 144.999 84.259, 149.276 84.931 C 156.374 86.047, 157.419 85.986, 161.276 84.227 C 163.599 83.167, 166.614 81.854, 167.977 81.309 C 170.323 80.370, 170.099 80.149, 163.698 77.094 C 159.982 75.321, 154.700 73.516, 151.960 73.083 L 146.978 72.295 143.882 77.707 M 99 86.036 C 106.994 87.432, 133.651 88.374, 134.324 87.284 C 135.222 85.831, 125.072 84.979, 108.603 85.125 C 98.286 85.217, 95.708 85.461, 99 86.036 M 138.500 87 C 138.133 87.594, 139.225 87.971, 141.191 87.930 C 143.948 87.871, 144.166 87.716, 142.500 87 C 139.787 85.834, 139.220 85.834, 138.500 87 M 150.500 89.535 C 149.400 89.732, 145.563 90.167, 141.973 90.502 L 135.446 91.111 129.676 98.569 C 124.636 105.085, 124.134 106.120, 125.704 106.764 C 126.692 107.169, 134.700 107.500, 143.500 107.500 C 158.229 107.500, 159.920 107.310, 164.790 105.110 C 173.891 100.997, 174.137 96.682, 165.510 92.461 C 160.289 89.907, 154.609 88.799, 150.500 89.535 M 79.044 108.951 C 79.139 116.609, 84.077 125.130, 90.926 129.453 C 100.657 135.596, 115.978 136.716, 132.599 132.500 C 138.019 131.125, 142.802 130, 143.227 130 C 145.486 130, 143.255 132.342, 137.095 136.437 C 124.117 145.065, 115 157.279, 115 166.039 C 115 178.682, 126.448 181.564, 143.367 173.181 C 153.036 168.390, 155.458 166.174, 162.119 156.028 C 171.274 142.082, 171.977 134.549, 164.515 130.340 C 160.046 127.820, 157.309 127.361, 138.500 125.980 C 122.034 124.772, 116.329 122.709, 114.550 117.322 C 113.606 114.464, 113.315 114.279, 111.669 115.492 C 110.661 116.233, 107.598 117.377, 104.860 118.033 C 97.288 119.850, 91.930 117.976, 84.761 111.004 L 79 105.402 79.044 108.951" stroke="none" fill="black" fill-rule="evenodd"/>
</svg>