<svg xmlns="http://www.w3.org/2000/svg" width="200" height="200" viewBox="0 0 200 200" version="1.1">
	<path d="M 106.635 14.135 C 87.560 16.584, 64.483 25.341, 59.720 31.937 C 58.679 33.379, 56.597 33.619, 45.500 33.574 C 34.297 33.528, 31.863 33.814, 27.892 35.641 C 22.961 37.911, 19.058 42.342, 17.008 48 C 15.612 51.852, 14.810 68.627, 14.664 97 C 14.504 128.262, 19.585 145.333, 29.050 145.333 C 33.075 145.333, 39.027 139.527, 43.744 131 C 45.721 127.425, 47.475 124.325, 47.642 124.111 C 47.808 123.897, 50.041 126.053, 52.602 128.903 C 58.014 134.921, 62.231 137.410, 65.590 136.567 C 71.086 135.187, 72.666 126.588, 73.493 93.537 C 73.823 80.358, 74.283 69.384, 74.515 69.152 C 75.115 68.552, 79.235 71.322, 88.888 78.814 C 98.647 86.389, 98.676 86.279, 85.860 90.547 L 78.009 93.161 75.877 100.180 C 70.735 117.108, 77.337 126.949, 98.582 134.027 C 103.604 135.700, 108.564 137.728, 109.606 138.535 C 111.460 139.969, 111.457 140.034, 109.500 141.582 C 106.587 143.887, 92.297 151, 90.579 151 C 89.774 151, 87.485 150.039, 85.493 148.864 C 80.480 145.906, 79.001 147.458, 81.516 153.036 C 83.345 157.091, 83.872 157.301, 88 155.614 C 88.949 155.226, 93.650 158.126, 100.797 163.507 C 119.587 177.655, 127.914 181.597, 132.570 178.546 C 133.892 177.680, 135.928 175.102, 137.093 172.817 C 140.049 167.024, 147.410 160.161, 160.015 151.445 C 165.940 147.349, 171.051 143.309, 171.374 142.468 C 172.629 139.196, 167.811 138.547, 152.373 139.909 C 144.389 140.613, 137.690 141.023, 137.487 140.820 C 137.283 140.617, 141.891 137.087, 147.725 132.975 C 161.098 123.551, 170.782 114.102, 174.290 107.054 C 179.241 97.104, 177.397 85.638, 169.392 76.586 L 166.815 73.673 158.116 75.915 C 148.491 78.397, 142.687 78.400, 142.218 75.924 C 141.702 73.192, 149.441 62.985, 162.948 48.587 C 170.127 40.935, 176 34.081, 176 33.356 C 176 32.631, 174.903 31.763, 173.562 31.426 C 172.221 31.090, 167.627 28.606, 163.353 25.907 C 155.202 20.760, 151.863 20.007, 148.291 22.509 C 143.708 25.718, 140.070 40.978, 137.450 67.978 C 136.675 75.965, 136.032 83.673, 136.021 85.106 C 136.001 87.628, 135.762 87.729, 128.510 88.278 C 123.562 88.652, 119.109 89.719, 115.389 91.422 C 112.292 92.840, 109.438 94, 109.047 94 C 108.655 94, 106.882 92.193, 105.107 89.984 L 101.880 85.968 103.940 83.349 C 108.389 77.694, 106.322 72.304, 93.382 55.823 C 88.772 49.951, 85 44.888, 85 44.573 C 85 44.258, 91.300 44, 99 44 L 113 44 113 46.918 C 113 51.166, 113.963 53.035, 116.684 54.070 C 119.866 55.280, 125.572 52.923, 126.494 50.020 C 128.176 44.721, 121.545 42.135, 99.250 39.395 C 91.412 38.431, 85 37.319, 85 36.922 C 85 35.228, 96.471 25.916, 101.750 23.323 C 106.177 21.150, 108.923 20.500, 113.684 20.500 C 119.175 20.500, 120.215 20.832, 122.958 23.460 C 126.030 26.403, 129 33.961, 129 38.836 C 129 41.292, 129.016 41.296, 131.151 39.405 C 135.442 35.605, 139 28.801, 139 24.393 C 139 18.646, 135.388 15.621, 126.725 14.113 C 119.553 12.864, 116.505 12.867, 106.635 14.135 M 102.921 17.482 C 93.833 19.013, 85.773 21.234, 77 24.626 C 70.310 27.212, 62.925 31.698, 62.315 33.546 C 62.108 34.172, 65.756 35.070, 71.405 35.783 L 80.840 36.975 87.170 30.662 C 93.960 23.891, 103.376 18.608, 110.637 17.496 C 119.788 16.095, 126.835 20.652, 130.007 30.021 L 131.744 35.151 133.794 31.825 C 137.080 26.496, 137.390 23.765, 135.048 20.788 C 131.380 16.125, 118.713 14.821, 102.921 17.482 M 149.621 25.288 C 146.610 28.299, 143.464 40.230, 141.531 55.970 C 139.428 73.096, 139.441 73.186, 143.198 67.514 C 146.563 62.435, 152.456 55.689, 164.957 42.609 C 171.791 35.457, 172.325 34.613, 170.652 33.609 C 169.636 32.999, 165.380 30.363, 161.193 27.750 C 157.007 25.137, 153.205 23, 152.745 23 C 152.285 23, 150.880 24.029, 149.621 25.288 M 30.854 37.570 C 24.622 39.488, 20.496 44.293, 19.035 51.334 C 18.361 54.579, 17.831 69.283, 17.725 87.644 C 17.575 113.773, 17.811 119.617, 19.268 125.789 C 21.839 136.680, 25.470 143, 29.156 143 C 32.146 143, 38.163 135.905, 43.112 126.543 L 47.725 117.819 49.855 121.266 C 52.926 126.234, 61.557 134, 64.008 134 C 68.761 134, 70.775 119.602, 71.050 83.660 L 71.180 66.632 66.840 64.344 C 63.441 62.551, 50.997 58, 49.495 58 C 49.333 58, 49.430 68.012, 49.710 80.250 C 50.246 103.682, 49.498 109.981, 46.542 106.923 C 45.785 106.140, 44.679 101.450, 44.086 96.500 C 42.715 85.082, 42.718 85, 44.443 85 C 45.413 85, 46.010 86.391, 46.268 89.250 C 46.478 91.588, 46.729 87.825, 46.825 80.890 C 47.031 66.051, 46.262 59, 44.437 59 C 42.679 59, 42.234 61.730, 43.234 66.382 C 43.694 68.517, 43.821 70.512, 43.518 70.815 C 42.286 72.047, 40.690 68.829, 40.247 64.219 C 39.824 59.817, 40.048 59.107, 42.464 57.207 C 44.278 55.780, 45.046 54.347, 44.826 52.797 C 44.544 50.812, 43.922 50.500, 40.249 50.500 C 37.910 50.500, 36 50.275, 36.002 50 C 36.005 49.725, 36.899 48.038, 37.989 46.250 C 40.136 42.729, 42.971 42.055, 45.057 44.569 C 46.073 45.793, 47.476 45.997, 51.430 45.497 C 60.074 44.403, 59.973 44.478, 58.112 40.553 C 57.225 38.683, 55.600 36.900, 54.500 36.590 C 50.686 35.517, 35.477 36.146, 30.854 37.570 M 60 38.302 C 60 39.156, 61.088 40.711, 62.418 41.757 C 64.557 43.440, 65.673 43.558, 72.126 42.787 C 76.136 42.308, 79.593 41.740, 79.808 41.525 C 81.032 40.301, 78.275 39.202, 72.499 38.610 C 68.892 38.241, 64.605 37.671, 62.971 37.344 C 60.697 36.889, 60 37.114, 60 38.302 M 83 41 C 83 41.550, 83.675 42, 84.500 42 C 85.325 42, 86 41.550, 86 41 C 86 40.450, 85.325 40, 84.500 40 C 83.675 40, 83 40.450, 83 41 M 72.151 45.885 C 71.204 46.486, 71.864 46.939, 74.366 47.409 C 78.880 48.256, 79.326 49.038, 77.445 52.810 C 76.607 54.489, 75.663 58.046, 75.347 60.714 L 74.773 65.566 80.636 69.420 C 83.861 71.539, 89.588 75.780, 93.363 78.843 C 99.884 84.134, 100.295 84.317, 101.613 82.515 C 105.196 77.614, 102.631 71.817, 89.506 55.151 C 81.739 45.289, 81.397 45, 77.506 45.015 C 75.303 45.024, 72.893 45.415, 72.151 45.885 M 116.177 48.123 C 116.548 52.003, 119.208 53.043, 122.507 50.599 C 124.278 49.287, 124.333 48.956, 123 47.627 C 122.175 46.805, 120.230 45.820, 118.677 45.439 C 115.962 44.773, 115.867 44.875, 116.177 48.123 M 52.652 48.049 C 49.986 48.496, 47.577 49.090, 47.298 49.369 C 47.020 49.647, 47.211 51.134, 47.724 52.673 C 48.491 54.972, 49.436 55.604, 53.022 56.217 C 55.423 56.626, 60.615 58.495, 64.560 60.368 L 71.732 63.774 72.994 58.137 C 73.687 55.037, 74.437 52.024, 74.660 51.443 C 75.187 50.070, 65.321 46.966, 60.912 47.118 C 59.035 47.182, 55.319 47.601, 52.652 48.049 M 157 79.036 C 148.876 81.323, 144.082 81.446, 141.223 79.443 C 139 77.887, 139 77.888, 139 83.835 C 139 89.260, 139.209 89.836, 141.372 90.378 C 145.445 91.401, 150.767 98.262, 151.553 103.505 C 152.431 109.363, 150.170 118.137, 145.562 126.750 C 143.722 130.188, 142.418 133, 142.662 133 C 143.541 133, 158.396 121.676, 162.597 117.804 C 171.613 109.493, 175.794 99.585, 173.908 91.004 C 172.740 85.691, 167.145 76.960, 165 77.105 C 164.175 77.160, 160.575 78.029, 157 79.036 M 95 89.926 C 93.075 90.937, 88.952 92.562, 85.838 93.537 C 80.275 95.279, 80.147 95.404, 78.471 100.732 C 76.104 108.255, 76.826 115.773, 80.360 120.406 C 83.906 125.055, 89.383 128.143, 101 132.044 C 110.539 135.247, 114 137.245, 114 139.551 C 114 141.644, 107.791 146.322, 100.210 149.943 C 96.244 151.837, 93.013 153.637, 93.029 153.943 C 93.101 155.333, 116.159 171.640, 121.770 174.269 C 129.586 177.932, 132.026 177.487, 134.526 171.943 C 137.149 166.125, 145.367 158.310, 157.787 149.822 L 168.500 142.500 163.463 142.205 C 160.693 142.043, 152.818 142.560, 145.963 143.354 C 139.108 144.148, 133.397 144.703, 133.271 144.587 C 133.145 144.471, 133.470 134.729, 133.993 122.938 C 134.516 111.147, 135.043 99.250, 135.164 96.500 L 135.384 91.500 128.442 91.581 C 123.538 91.638, 119.959 92.335, 116.250 93.954 C 113.362 95.215, 111 96.520, 111 96.854 C 111 97.188, 111.960 99.778, 113.134 102.610 C 115.953 109.412, 115.172 113.764, 110.375 117.976 C 108.415 119.696, 106.292 120.935, 105.656 120.729 C 103.751 120.112, 101.099 113.765, 101.048 109.700 C 101.001 105.959, 102.920 101.012, 105.617 97.926 C 106.810 96.560, 106.518 95.797, 103.418 92.176 C 101.452 89.879, 99.542 88.020, 99.172 88.044 C 98.802 88.069, 96.925 88.915, 95 89.926 M 137.578 107.870 C 137.236 116.466, 136.695 126.406, 136.376 129.957 C 135.866 135.636, 135.978 136.263, 137.304 135.162 C 138.134 134.474, 140.992 129.607, 143.656 124.346 C 148.138 115.496, 148.500 114.233, 148.500 107.449 C 148.500 100.482, 148.333 99.944, 145.139 96.646 C 138.548 89.841, 138.279 90.241, 137.578 107.870 M 106.118 102.038 C 103.706 105.995, 103.389 112.269, 105.417 115.930 L 106.763 118.359 109.381 115.534 C 112.539 112.126, 112.794 107.149, 110.073 102.038 L 108.229 98.575 106.118 102.038 M 84 151.882 C 84 152.432, 84.450 153.160, 85 153.500 C 85.550 153.840, 86 153.668, 86 153.118 C 86 152.568, 85.550 151.840, 85 151.500 C 84.450 151.160, 84 151.332, 84 151.882" stroke="none" fill="black" fill-rule="evenodd"/>
</svg>