<svg xmlns="http://www.w3.org/2000/svg" width="200" height="200" viewBox="0 0 200 200" version="1.1">
	<path d="M 100.521 16.540 L 95.744 19.080 94.237 16.927 C 92.935 15.069, 92.003 14.835, 87.409 15.216 C 81.435 15.711, 74.232 19.897, 65.833 27.753 C 62.218 31.135, 60.477 32.111, 58.768 31.717 C 57.521 31.430, 52.055 30.026, 46.622 28.597 C 34.882 25.511, 29.009 25.359, 23.207 27.992 C 15.377 31.546, 15.435 31.098, 15.535 87.500 C 15.613 130.664, 15.828 137.215, 17.342 142.500 C 19.248 149.153, 23.743 159, 24.874 159 C 25.274 159, 26.625 156.863, 27.877 154.250 C 31.335 147.031, 34.935 142.203, 38.507 139.996 C 41.157 138.358, 43.489 138, 51.500 138 C 59.577 138, 61.833 137.648, 64.559 135.964 C 68.694 133.408, 74.157 125.252, 78.072 115.787 C 80.460 110.016, 82.398 107.252, 87.390 102.500 C 94.012 96.195, 98.532 93.199, 99.683 94.350 C 101.478 96.145, 77.975 135.654, 67.319 148.754 C 63.187 153.835, 64.253 154.858, 71.793 153.050 C 85.458 149.771, 99.310 136.864, 117.173 110.766 C 121.038 105.120, 123.961 101.400, 123.669 102.500 C 123.377 103.600, 121.940 109, 120.477 114.500 C 116.965 127.691, 110.184 140.677, 97.352 158.780 C 86.973 173.422, 85.060 177.903, 89.500 177.170 C 92.790 176.627, 119.135 158.526, 124.204 153.326 C 130.680 146.682, 137.444 135.033, 145.059 117.408 L 151.500 102.500 152.162 107.500 C 152.527 110.250, 152.864 119.580, 152.912 128.233 L 153 143.966 148.250 146.376 C 135.212 152.992, 125 163.691, 125 170.737 C 125 178.346, 129.744 181.462, 141 181.251 C 149.120 181.098, 163.929 177.733, 165.146 175.765 C 166.683 173.277, 172.054 152.089, 174.211 140 C 176.042 129.744, 176.447 123.730, 176.471 106.500 C 176.500 85.756, 176.467 85.430, 173.805 79.750 C 172.323 76.588, 170.590 74, 169.953 74 C 169.316 74, 164.831 75.328, 159.987 76.951 C 134.255 85.572, 111.520 84.669, 108.111 74.889 C 107.336 72.665, 107.307 70.574, 108.015 67.944 C 109.097 63.927, 115.793 54.313, 120.722 49.700 L 123.713 46.901 124.276 53.103 C 124.970 60.757, 127.216 64.028, 133.078 65.920 C 136.976 67.177, 138.209 67.148, 143.887 65.658 C 164.178 60.337, 181.155 40.583, 172.193 32.722 C 171.262 31.905, 167.924 31.035, 164.776 30.788 C 159.813 30.399, 157.951 29.585, 150.776 24.666 C 144.520 20.377, 141.632 18.993, 138.944 18.996 C 133.427 19.002, 127.866 23.801, 121.238 34.275 L 118.217 39.050 118.299 31.775 C 118.484 15.578, 112.298 10.278, 100.521 16.540 M 84.500 18.212 C 80.338 19.726, 71.156 26.113, 67.212 30.237 L 63.923 33.675 71.657 35.374 L 79.392 37.074 81.930 33.787 C 83.325 31.979, 86.478 28.331, 88.935 25.681 C 92.546 21.786, 93.201 20.540, 92.349 19.181 C 91.049 17.106, 88.429 16.783, 84.500 18.212 M 100.750 19.692 C 97.457 21.525, 95.998 22.975, 95.994 24.418 C 95.983 28.569, 93.783 34.297, 91.324 36.576 C 89.902 37.893, 86.895 39.193, 84.405 39.567 C 79.393 40.318, 78.947 41.098, 82.455 42.976 C 88.776 46.359, 89.624 58.549, 84.578 73.500 C 81.048 83.957, 70.224 106.241, 68.891 105.797 C 67.313 105.271, 67.480 104.787, 73.395 92.723 C 83.856 71.393, 87.439 55.617, 83.537 48.072 C 82.017 45.131, 79.499 43.573, 77.883 44.572 C 76.046 45.707, 69.009 60.994, 67.022 68.165 C 64.675 76.633, 64.501 83.852, 66.507 89.487 C 68.360 94.689, 66.645 96.788, 64.580 91.845 C 60.454 81.971, 62.118 69.634, 69.655 54.213 C 72.266 48.871, 74.596 44.096, 74.833 43.602 C 75.464 42.291, 63.405 43.561, 57.274 45.452 C 52.783 46.837, 51.660 47.723, 49.301 51.750 C 46.510 56.512, 44.208 68.118, 44.066 78.145 C 43.999 82.844, 45.084 84.590, 50.410 88.357 C 52.279 89.678, 52.264 89.931, 49.714 100.104 C 46.600 112.530, 44.486 117.876, 42.367 118.689 C 39.315 119.861, 38.848 116.801, 39.515 100 C 40.271 80.959, 40.278 83.173, 39.441 75.500 C 38.916 70.690, 39.217 68.310, 40.957 63.500 C 42.151 60.200, 43.674 55.053, 44.342 52.062 C 45.321 47.681, 46.074 46.414, 48.216 45.538 C 50.556 44.582, 58.758 35.274, 57.848 34.608 C 57.657 34.467, 53.900 33.313, 49.500 32.043 C 33.915 27.544, 23.036 28.328, 19.905 34.177 C 19.095 35.690, 18.646 50.443, 18.397 83.691 C 18.023 133.674, 18.427 139.876, 22.703 149.855 L 24.568 154.209 27.216 149.355 C 30.316 143.672, 35.146 138.493, 39.394 136.296 C 41.744 135.081, 44.195 134.874, 50.491 135.358 C 57.199 135.873, 59.159 135.669, 62.035 134.155 C 66.349 131.883, 72.013 123.684, 75.613 114.500 C 78.632 106.798, 82.498 102.110, 91.349 95.421 C 99.773 89.054, 104.092 89.705, 101.993 97.025 C 100.439 102.441, 92.175 116.894, 81.136 133.500 C 75.286 142.300, 70.345 149.852, 70.156 150.282 C 69.521 151.725, 79.642 147.343, 84.226 144.188 C 91.631 139.094, 104.557 124.425, 114.343 110.011 C 127.703 90.333, 129.917 91.311, 123.461 114.042 C 118.471 131.612, 111.835 143.859, 94.284 167.887 C 88.676 175.564, 88.892 175.482, 107.870 162.691 C 125.851 150.572, 129.756 145.391, 142.099 117.274 C 145.888 108.645, 149.692 100.890, 150.555 100.042 C 151.968 98.651, 152.263 98.690, 153.561 100.441 C 154.716 101.999, 154.988 106.742, 154.937 124.441 L 154.875 146.500 147.717 150 C 139.130 154.199, 129.573 163.063, 128.231 168.073 C 126.992 172.699, 128.014 175.151, 132.085 177.317 C 136.145 179.477, 144.510 179.157, 155.364 176.426 C 161.566 174.866, 162.364 174.374, 163.640 171.320 C 165.813 166.118, 170.731 144.749, 172.573 132.500 C 174.894 117.072, 174.974 92.238, 172.726 85 C 169.991 76.192, 170.551 76.409, 159.609 79.914 C 140.200 86.132, 124.030 87.396, 114.206 83.466 C 104.551 79.603, 102.301 71.239, 108.165 61.012 C 111.060 55.964, 126.115 40, 127.981 40 C 128.424 40, 128.348 41.913, 127.811 44.250 C 126.310 50.786, 127.265 58.710, 129.867 61.309 C 131.664 63.104, 133.184 63.493, 138.280 63.463 C 146.693 63.413, 156.229 58.709, 164.659 50.449 C 174.041 41.258, 174.564 34, 165.845 34 C 160.758 34, 156.453 32.138, 148.625 26.552 C 141.640 21.567, 137.727 20.822, 133.406 23.654 C 130.527 25.540, 123.637 34.995, 119.490 42.750 C 117.946 45.638, 116.063 48, 115.307 48 C 114.214 48, 114.093 46.919, 114.716 42.750 C 116.070 33.684, 115.558 22.501, 113.656 19.598 C 111.409 16.168, 107.025 16.200, 100.750 19.692 M 87.691 31.103 C 82.821 36.671, 82.753 37.805, 87.397 36.039 C 89.052 35.410, 90.678 33.620, 91.601 31.413 C 94.073 25.497, 92.691 25.388, 87.691 31.103 M 58.687 38.805 C 57.209 40.347, 56 41.863, 56 42.173 C 56 42.484, 58.587 42.129, 61.750 41.384 C 64.912 40.640, 69.750 39.985, 72.500 39.928 L 77.500 39.824 70.500 37.966 C 61.447 35.564, 61.817 35.538, 58.687 38.805 M 42.637 89.778 C 42.299 91.825, 42.046 98.450, 42.074 104.500 C 42.115 112.930, 42.363 114.916, 43.137 113 C 44.425 109.812, 49.012 92.824, 48.942 91.500 C 48.913 90.950, 47.621 89.500, 46.071 88.278 L 43.252 86.057 42.637 89.778" stroke="none" fill="black" fill-rule="evenodd"/>
</svg>