<svg xmlns="http://www.w3.org/2000/svg" width="200" height="200" viewBox="0 0 200 200" version="1.1">
	<path d="M 91.655 12.204 C 89.426 13.008, 88.928 13.691, 89.352 15.365 C 89.650 16.539, 90.418 19.530, 91.060 22.010 C 94.710 36.117, 80.435 41.474, 44.982 39.302 C 27.274 38.217, 25.425 38.532, 24.336 42.823 C 23.189 47.341, 24.391 47.523, 52.934 47.148 C 80.579 46.785, 84 47.180, 84 50.730 C 84 51.644, 82.788 53.656, 81.307 55.202 C 79.434 57.156, 78.932 58.332, 79.658 59.058 C 80.384 59.784, 81.680 58.990, 83.908 56.452 C 88.128 51.646, 87.837 48.194, 83 45.683 C 79.775 44.008, 77.447 43.918, 53.371 44.532 C 27.773 45.186, 24.072 44.845, 27.336 42.136 C 28.271 41.360, 33.222 41.321, 44.482 41.999 C 60.501 42.964, 74.322 42.201, 82.477 39.902 C 84.707 39.273, 88.164 37.071, 90.344 34.891 C 94.205 31.030, 94.229 30.958, 93.693 24.751 C 93.396 21.313, 93.006 17.600, 92.826 16.500 C 92.324 13.424, 96.153 13.426, 99.231 16.504 C 100.658 17.931, 102.797 21.164, 103.983 23.687 L 106.139 28.275 103.161 34.387 C 99.517 41.864, 95.674 53.337, 89.555 75 C 83.487 96.487, 84.116 95.012, 82.398 91.763 C 80.350 87.892, 75.610 85.663, 71.190 86.492 C 66.358 87.399, 57.766 91.851, 50.462 97.234 C 46.671 100.028, 41.032 102.858, 35.302 104.842 C 30.285 106.579, 25.844 108, 25.434 108 C 25.024 108, 32.756 101.992, 42.617 94.649 C 60.683 81.195, 73 70.483, 73 68.223 C 73 66.172, 70.903 66.854, 68.735 69.610 C 65.857 73.269, 51.844 84.656, 35.165 96.890 C 25.747 103.798, 21 107.904, 21 109.140 C 21 111.795, 23.900 111.531, 34.866 107.878 C 41.208 105.765, 46.824 102.984, 52.238 99.277 C 69.713 87.309, 76.016 86.277, 80.916 94.582 L 83.060 98.216 80.592 107.246 C 79.235 112.212, 77.667 116.733, 77.109 117.291 C 76.423 117.977, 74.436 117.617, 70.970 116.176 C 63.997 113.278, 55.005 111.531, 51.541 112.400 C 46.823 113.585, 42.414 118.844, 41.133 124.816 C 39.944 130.358, 39.835 149.545, 40.882 169 L 41.500 180.500 45 182.248 C 50.008 184.750, 53.222 184.441, 64.500 180.372 C 90.108 171.135, 94.463 169.870, 102.656 169.292 C 107.806 168.928, 113.183 169.190, 116.939 169.987 C 122.462 171.159, 123.301 171.706, 127.065 176.584 C 131.023 181.715, 137.531 186, 141.365 186 C 146.327 186, 153.806 178.951, 157.171 171.103 C 161.020 162.124, 162.266 154.181, 162.166 139.247 L 162.071 124.994 158.151 119.247 C 155.996 116.086, 148.865 107.182, 142.306 99.461 C 127.058 81.512, 121.810 74.857, 122.421 74.246 C 122.689 73.977, 125.764 75.428, 129.254 77.470 C 134.007 80.250, 136.181 82.276, 137.914 85.544 C 143.768 96.578, 153.196 103.293, 162.932 103.362 C 176.812 103.461, 183.192 92.099, 175.493 80.990 C 172.272 76.341, 164.285 70.788, 155.948 67.401 L 150.025 64.994 145.295 68.604 C 139.881 72.737, 136.994 74.015, 133.185 73.965 C 127.732 73.893, 122.636 68.850, 119.367 60.291 L 117.699 55.924 120.494 53.007 C 123.342 50.033, 130.500 47, 134.667 47 C 135.938 47, 140.470 47.967, 144.739 49.149 C 162.939 54.187, 176 50.441, 176 40.182 C 176 29.775, 163.722 23.830, 152.816 28.956 C 150.279 30.149, 146.177 33.122, 143.702 35.562 C 139.446 39.758, 138.892 40, 133.551 40 C 127.182 40, 123.588 38.495, 117 33.070 C 114.525 31.032, 111.737 29.081, 110.804 28.734 C 109.871 28.388, 107.972 25.702, 106.583 22.767 C 102.363 13.847, 97.210 10.201, 91.655 12.204 M 151.388 32.951 C 148.577 34.563, 145.061 37.328, 143.574 39.094 C 141.370 41.714, 139.960 42.393, 135.929 42.781 C 128.734 43.472, 123.057 41.474, 116.004 35.768 C 111.793 32.360, 109.958 31.340, 110.330 32.616 C 114.047 45.360, 116.218 52, 116.666 52 C 116.966 52, 118.535 50.886, 120.153 49.525 C 123.105 47.040, 131.564 43.989, 135.432 44.013 C 136.569 44.020, 140.425 44.973, 144 46.131 C 153.267 49.132, 165.817 49.264, 169.673 46.401 C 174.563 42.770, 174.067 35.231, 168.723 31.973 C 163.912 29.039, 157.585 29.396, 151.388 32.951 M 106.389 34.134 C 103.653 37.700, 96.997 57.854, 89.007 86.767 L 85.893 98.034 88.578 102.966 C 90.054 105.678, 92.254 108.829, 93.466 109.968 C 95.542 111.919, 96.037 111.965, 102.045 110.769 C 108.412 109.502, 108.423 109.494, 109.802 105 C 110.632 102.294, 111.481 92.525, 111.932 80.500 C 112.344 69.500, 113.126 59.375, 113.670 58 C 114.991 54.662, 108.063 31.953, 106.389 34.134 M 115.653 62 C 115.371 62.825, 114.912 71.600, 114.632 81.500 C 114.353 91.400, 113.631 101.472, 113.027 103.882 C 112.424 106.292, 112.167 108.500, 112.456 108.789 C 112.745 109.078, 119.313 108.784, 127.051 108.136 C 134.789 107.487, 141.566 107.232, 142.109 107.567 C 143.904 108.677, 141.059 110.789, 133.566 113.908 C 120.252 119.451, 107.877 122.123, 92.777 122.716 C 80.311 123.205, 78.997 123.433, 78.436 125.203 C 78.096 126.274, 78.068 127.401, 78.374 127.707 C 78.680 128.013, 84.684 127.043, 91.715 125.551 C 108.343 122.022, 123.958 121.039, 125.915 123.398 C 128.144 126.083, 125.882 129.325, 117.799 135.033 C 110.707 140.040, 84.014 156.290, 80.947 157.467 C 78.729 158.318, 70.453 152.474, 66.447 147.227 C 59.518 138.152, 59.690 131.214, 67.026 123.878 L 71.716 119.188 65.337 117.094 C 56.682 114.253, 51.912 114.362, 48.199 117.486 C 43.682 121.287, 43 125.998, 43 153.420 L 43 177.954 45.533 179.613 C 49.349 182.114, 56.523 180.885, 71 175.250 C 89.727 167.960, 95.155 166.611, 106 166.552 C 119.422 166.479, 124.133 168.051, 128.559 174.081 C 132.415 179.334, 137.495 183, 140.918 183 C 152.228 183, 160.948 161.083, 159.622 135.990 C 159.334 130.523, 158.560 125.027, 157.904 123.775 C 156.154 120.439, 151.910 115.052, 139.588 100.527 C 120.303 77.795, 117.283 73.177, 119.918 70.450 C 120.480 69.868, 119.931 67.755, 118.500 65 C 116.954 62.020, 115.992 61.007, 115.653 62 M 146 71.632 C 143.525 73.479, 139.751 75.532, 137.613 76.194 C 134.283 77.226, 134.001 77.521, 135.644 78.254 C 136.699 78.725, 138.612 81.089, 139.895 83.509 C 145.192 93.492, 154.992 101, 162.728 101 C 173.912 101, 179.508 91.627, 173.555 82.866 C 170.728 78.706, 162.458 72.929, 155.394 70.180 L 150.500 68.275 146 71.632 M 83.242 107.750 C 82.636 110.362, 81.856 113.235, 81.508 114.134 C 80.926 115.636, 81.315 115.645, 86.349 114.244 L 91.824 112.720 88.662 107.914 C 86.923 105.271, 85.240 103.084, 84.922 103.054 C 84.604 103.024, 83.848 105.138, 83.242 107.750 M 115.830 111.732 C 110.982 112.117, 109.708 112.988, 108.574 116.691 L 107.903 118.882 116.834 116.492 C 121.747 115.177, 127.281 113.440, 129.133 112.632 L 132.500 111.163 126.500 111.262 C 123.200 111.316, 118.398 111.528, 115.830 111.732 M 101 113.917 L 98.500 114.636 101.768 116.353 C 104.876 117.986, 105.067 117.982, 105.672 116.285 C 106.022 115.303, 106.491 114.162, 106.713 113.750 C 107.200 112.848, 104.440 112.929, 101 113.917 M 86 117.226 L 79.500 119.339 84 120.203 C 86.475 120.679, 91.577 120.778, 95.337 120.424 L 102.175 119.779 98.337 117.421 C 93.726 114.586, 94.099 114.592, 86 117.226 M 73.500 122.191 C 69.443 124.366, 65.004 129.461, 64.411 132.621 C 63.217 138.988, 68.667 148.159, 76.535 153.022 L 80.036 155.186 97.776 144.579 C 117.766 132.626, 125.416 126.696, 123 125.026 C 120.832 123.527, 110.153 124.722, 91.054 128.601 C 82.008 130.438, 74.483 131.816, 74.331 131.664 C 74.179 131.512, 74.520 129.700, 75.090 127.638 C 76.524 122.442, 76.051 120.823, 73.500 122.191" stroke="none" fill="black" fill-rule="evenodd"/>
</svg>