<svg xmlns="http://www.w3.org/2000/svg" width="200" height="200" viewBox="0 0 200 200" version="1.1">
	<path d="M 117.500 16.571 C 112.550 17.886, 100.400 20.619, 90.500 22.645 C 74.494 25.920, 70.672 26.347, 56 26.505 C 41.390 26.662, 38.927 26.935, 34.500 28.890 C 27.799 31.850, 22.358 37.260, 18.955 44.347 C 14.240 54.167, 13.604 61.146, 14.606 92 C 15.098 107.125, 15.487 127.938, 15.471 138.250 C 15.441 157.765, 15.931 159.807, 19.379 154.545 C 21.867 150.747, 25.048 148.063, 30.500 145.161 C 35 142.766, 36.549 142.500, 46 142.500 C 54.750 142.500, 57.305 142.872, 61.332 144.730 C 74.104 150.625, 80.567 160.630, 81.852 176.500 C 82.216 180.991, 82.939 184.404, 83.500 184.281 C 84.050 184.160, 84.813 181.322, 85.196 177.973 C 86.846 163.531, 93.097 149.983, 102.568 140.320 C 108.535 134.233, 112.414 132.177, 115.617 133.406 C 116.925 133.908, 117.156 135.137, 116.813 139.764 C 116.315 146.496, 110.124 160.333, 101.485 174.023 C 98.468 178.805, 96 183.068, 96 183.498 C 96 183.927, 98.296 184.007, 101.102 183.674 C 121.317 181.280, 132.927 155.889, 137.332 104.447 L 138.611 89.500 139.257 121 C 140.145 164.297, 141.893 177, 146.964 177 C 149.664 177, 152.261 172.638, 155.131 163.285 C 157.120 156.804, 157.816 155.686, 160.582 154.530 C 164.654 152.829, 168.134 145.871, 171.448 132.807 C 176.231 113.946, 177.348 102.665, 177.499 71.664 L 177.639 42.828 173.338 38.274 C 169.038 33.722, 169.034 33.721, 163.670 34.351 C 151.625 35.767, 141.812 41.855, 135.357 51.915 C 132.231 56.786, 130.770 58.135, 127.649 59.029 C 125.531 59.635, 123.642 59.975, 123.451 59.785 C 123.260 59.594, 127.569 51.352, 133.025 41.469 C 138.481 31.586, 142.958 22.900, 142.973 22.167 C 143.043 18.750, 139.973 23.020, 129.081 41.489 C 119.873 57.103, 116.694 61.693, 114.412 62.667 C 110.087 64.513, 109 64.272, 109 61.467 C 109 58.385, 105.085 50.443, 101.417 46.084 C 99.936 44.323, 98.433 41.446, 98.079 39.691 C 97.497 36.810, 96.630 36.161, 89.140 33 L 80.845 29.500 85.673 28.090 C 88.328 27.315, 99.239 24.390, 109.921 21.590 C 120.603 18.791, 129.528 15.938, 129.754 15.250 C 130.322 13.530, 128.013 13.779, 117.500 16.571 M 36.382 31.073 C 27.097 34.644, 21.282 42.201, 18.564 54.229 C 15.996 65.593, 15.806 75.140, 17.527 106.500 C 18.463 123.550, 18.977 140.554, 18.669 144.286 L 18.110 151.073 22.702 147.031 C 33.409 137.606, 52.823 136.432, 66.398 144.387 C 72.453 147.936, 79.653 156.256, 81.730 162.103 C 83.471 167.005, 85 168.498, 85 165.296 C 85 164.359, 87.034 159.411, 89.520 154.301 C 95.994 140.992, 107.279 130, 114.468 130 C 117.326 130, 120 133.792, 120 137.843 C 120 144.660, 114.141 158.565, 104.923 173.627 C 102.703 177.253, 101.127 180.461, 101.421 180.754 C 102.764 182.097, 111.199 177.508, 115.031 173.351 C 126.185 161.250, 131.987 138.388, 135.551 92.500 C 137.216 71.060, 138.291 65, 140.426 65 C 141.532 65, 141.868 73.271, 142.285 110.750 C 142.818 158.687, 143.989 174, 147.124 174 C 148.461 174, 151.455 166.976, 153.647 158.692 C 155.160 152.978, 155.746 151.962, 157.299 152.368 C 161.290 153.412, 165.281 146.368, 168.889 131.914 C 172.794 116.266, 174.174 104.050, 174.695 80.500 L 175.204 57.500 168.990 69.500 L 162.775 81.500 161.437 97 C 160.701 105.525, 160.070 113.850, 160.034 115.500 C 159.946 119.604, 158.467 121.867, 156.898 120.298 C 155.987 119.387, 155.969 111.527, 156.822 86.356 C 157.433 68.340, 157.835 53.520, 157.716 53.423 C 157.597 53.326, 155.475 53.858, 153 54.606 C 149.937 55.531, 145.131 58.819, 137.949 64.905 L 127.397 73.846 125.157 83.673 C 123.924 89.078, 122.577 95.300, 122.163 97.500 C 121.695 99.989, 120.861 101.500, 119.955 101.500 C 118.876 101.500, 118.310 99.560, 117.764 94 C 117.359 89.875, 116.909 85.902, 116.764 85.171 C 116.606 84.377, 114.070 86.045, 110.461 89.315 L 104.422 94.786 102.625 106.053 C 100.567 118.965, 99.618 122, 97.641 122 C 95.760 122, 95.041 118.919, 94.958 110.500 L 94.889 103.500 92.694 106.395 C 91.487 107.987, 87.800 112.894, 84.500 117.298 C 77.436 126.725, 73.751 129.868, 71.729 128.190 C 70.657 127.301, 69.322 128.120, 65.471 132.030 C 62.778 134.763, 59.996 137, 59.288 137 C 57.567 137, 57.640 134.307, 59.388 133.300 C 60.152 132.860, 62.915 130.520, 65.528 128.100 C 68.963 124.920, 70.533 122.565, 71.192 119.600 C 71.694 117.345, 74.542 111.450, 77.522 106.500 C 83.825 96.028, 86.012 90.363, 85.968 84.624 C 85.910 77.075, 81.909 74.455, 71.943 75.437 C 67.237 75.901, 64.963 75.750, 64.463 74.940 C 63.328 73.104, 65.598 72.318, 73.838 71.693 C 78.052 71.374, 84.650 70.300, 88.500 69.306 L 95.500 67.500 95.779 55.423 L 96.059 43.347 92.689 41.532 C 88.398 39.221, 84.032 39.960, 77.497 44.104 C 70.830 48.332, 67.099 48.824, 64.344 45.837 C 62.533 43.874, 58.475 33.178, 59.253 32.420 C 59.389 32.288, 61.075 31.692, 63 31.096 C 66.485 30.016, 66.481 30.014, 62.061 30.548 C 53.157 31.623, 45.502 38.708, 42.932 48.253 C 42.358 50.383, 41.624 52.884, 41.301 53.813 C 40.977 54.741, 41.790 53.967, 43.106 52.094 C 46.592 47.133, 48.468 46.209, 50.788 48.308 C 55.354 52.440, 57.526 70.712, 56.636 97.500 C 55.882 120.190, 55.290 125, 53.252 125 C 52.182 125, 51.952 124.371, 52.431 122.750 C 53.805 118.098, 54.293 74.674, 53.074 65.572 C 51.841 56.366, 49.824 50, 48.140 50 C 46.887 50, 43.436 57.178, 41.379 64.061 C 39.979 68.749, 39.853 72.850, 40.466 93.747 C 41.124 116.168, 41.047 118.045, 39.453 118.657 C 37.163 119.535, 35.370 118.288, 31.762 113.306 L 28.762 109.165 30.443 99.832 C 31.367 94.700, 33.170 85.550, 34.449 79.500 C 35.729 73.450, 37.241 64.673, 37.810 59.995 C 39.266 48.026, 42.291 40.505, 47.939 34.813 C 52.135 30.583, 52.389 30.072, 50.544 29.576 C 46.721 28.549, 41.512 29.100, 36.382 31.073 M 72.500 31.514 C 71.950 31.722, 69.588 32.384, 67.250 32.985 C 63.858 33.856, 63.001 34.524, 63.004 36.289 C 63.009 39.243, 66.600 45, 68.438 45 C 69.245 45, 73.323 43.200, 77.500 41 C 85.885 36.584, 87.442 36.322, 92.569 38.464 C 94.497 39.270, 95.824 39.524, 95.519 39.030 C 94.195 36.888, 74.927 30.597, 72.500 31.514 M 155.797 38.768 C 149.167 41.210, 142.684 46.084, 138.622 51.682 C 136.708 54.319, 135.246 56.580, 135.373 56.706 C 136.398 57.732, 149.055 52.350, 154.150 48.722 C 157.642 46.236, 162.644 43.163, 165.265 41.894 C 167.885 40.625, 169.875 39.118, 169.686 38.544 C 169.113 36.796, 160.786 36.931, 155.797 38.768 M 164.904 44.989 L 161.307 46.890 160.654 56.099 C 160.294 61.163, 160.008 68.726, 160.018 72.904 L 160.036 80.500 163.109 75 C 164.800 71.975, 167.902 65.632, 170.003 60.905 C 173.541 52.946, 173.750 51.967, 172.831 47.655 C 171.704 42.370, 170.577 41.991, 164.904 44.989 M 98.642 51.750 C 98.301 53.813, 98.017 58.118, 98.011 61.317 C 97.999 67.580, 97.592 67.282, 103.750 65.512 C 106.991 64.580, 106.682 59.721, 102.970 53.250 C 101.314 50.362, 99.803 48, 99.611 48 C 99.419 48, 98.983 49.688, 98.642 51.750 M 136.905 59.166 C 134.217 59.883, 132.882 61.023, 131.613 63.686 C 130.678 65.645, 130.046 67.378, 130.207 67.538 C 130.368 67.698, 132.975 65.631, 136 62.946 C 139.025 60.261, 141.275 58.096, 141 58.135 C 140.725 58.175, 138.882 58.638, 136.905 59.166 M 123.585 63.044 C 121.982 63.523, 120.302 64.497, 119.851 65.208 C 118.785 66.888, 118.752 77, 119.813 77 C 121.268 77, 125.702 71.576, 126.762 68.500 C 127.330 66.850, 128.115 64.713, 128.505 63.750 C 129.297 61.795, 128.258 61.646, 123.585 63.044 M 109.873 66.666 C 108.904 66.924, 107.998 68.597, 107.634 70.800 C 106.404 78.240, 106.946 78.599, 110.503 72.700 C 112.426 69.510, 114 66.697, 114 66.450 C 114 65.938, 112.263 66.029, 109.873 66.666 M 101 68.893 C 98.541 69.575, 98.495 69.775, 98.224 81.043 L 97.948 92.500 100.470 88.809 C 102.705 85.538, 104.907 76.234, 104.980 69.750 C 105.001 67.873, 104.818 67.834, 101 68.893 M 110.733 77.477 C 108.111 81.775, 105.679 86.430, 105.330 87.822 L 104.694 90.354 107.597 88.264 C 109.194 87.114, 111.903 84.672, 113.618 82.837 C 116.491 79.763, 116.688 79.113, 116.118 74.582 L 115.500 69.664 110.733 77.477 M 87.224 72.348 L 82.948 73.500 85.549 76.097 C 91.170 81.712, 89.555 91.795, 80.672 106.549 C 72.314 120.430, 72.488 121.769, 81.507 113 C 85.749 108.875, 90.521 103.745, 92.110 101.600 C 94.957 97.757, 95 97.504, 95 84.350 C 95 69.384, 95.480 70.124, 87.224 72.348 M 121.237 79.162 C 120.527 79.873, 120.036 82.765, 120.083 85.950 L 120.167 91.500 121.603 85.560 C 123.193 78.986, 123.097 77.303, 121.237 79.162 M 34.171 94.757 C 32.973 101.216, 31.995 107.133, 31.997 107.906 C 32.002 110.204, 37.116 116.284, 38.164 115.236 C 38.941 114.459, 37.447 84.127, 36.588 83.257 C 36.456 83.124, 35.368 88.299, 34.171 94.757 M 100.564 93.707 C 100.022 95.132, 100.136 95.247, 101.124 94.267 C 101.808 93.588, 102.115 92.781, 101.807 92.474 C 101.499 92.166, 100.940 92.721, 100.564 93.707 M 99.237 100.162 C 98.478 100.922, 98.045 103.932, 98.117 107.950 L 98.233 114.500 99.621 107.512 C 101.155 99.782, 101.079 98.321, 99.237 100.162 M 76.063 122.020 C 74.172 123.636, 72.853 125.186, 73.131 125.464 C 73.409 125.742, 75.157 124.402, 77.015 122.485 C 81.118 118.251, 80.707 118.050, 76.063 122.020" stroke="none" fill="black" fill-rule="evenodd"/>
</svg>