<svg xmlns="http://www.w3.org/2000/svg" width="200" height="200" viewBox="0 0 200 200" version="1.1">
	<path d="M 134.301 19.989 C 128.455 25.613, 126.035 27.225, 121.425 28.565 C 116.534 29.987, 115.038 30.037, 110.624 28.927 C 102.808 26.961, 41.125 26.457, 38.553 28.337 C 36.715 29.682, 36.732 29.777, 39.077 31.268 C 40.409 32.115, 46.996 33.769, 53.714 34.942 C 65.506 37.002, 66.211 37.018, 74.148 35.410 C 80.343 34.155, 85.342 33.879, 94.434 34.293 C 107.242 34.876, 112.512 35.974, 115.981 38.784 C 119.182 41.375, 117.691 43.536, 110.148 47.238 C 103.870 50.318, 103.027 50.475, 95 50.043 C 90.325 49.792, 79.653 49.567, 71.284 49.543 C 58.077 49.506, 55.838 49.731, 54.316 51.254 C 52.646 52.925, 52.658 53.103, 54.576 55.021 C 56.643 57.087, 74.602 62.125, 84.750 63.484 C 88.869 64.036, 90 63.893, 90 62.819 C 90 61.869, 87.020 60.939, 80.250 59.778 C 66.910 57.491, 56.415 54.185, 57.871 52.729 C 59.351 51.249, 78.685 51.382, 91 52.957 C 99.865 54.091, 100.868 54.033, 106 52.094 C 126.395 44.387, 125.030 35.371, 102.945 31.913 C 94.773 30.634, 77.909 31.247, 71.619 33.052 C 67.471 34.243, 60.473 33.729, 50.500 31.502 C 45.139 30.305, 47.802 30.201, 75.500 30.522 C 92.550 30.720, 109.730 31.169, 113.677 31.520 C 122.877 32.338, 127.225 30.528, 136.182 22.148 L 142.731 16.022 143.363 20.630 C 143.710 23.165, 143.704 29.673, 143.349 35.094 L 142.703 44.950 131.101 51.503 C 118.409 58.673, 104.548 68.240, 96.049 75.697 C 91.399 79.777, 88.901 81.016, 79.049 84.134 C 67.874 87.671, 55.486 90.151, 42 91.550 C 38.425 91.921, 35.725 91.989, 36 91.701 C 36.275 91.412, 43.700 88.481, 52.500 85.187 C 78.073 75.614, 91.369 68.969, 89.230 66.830 C 88.563 66.163, 86.843 66.705, 84.069 68.456 C 78.372 72.053, 67.534 76.720, 48 83.988 C 30.813 90.383, 27.709 92.109, 29.740 94.140 C 32.182 96.582, 65.682 91.754, 79.661 86.944 C 82.770 85.875, 85.482 85, 85.689 85 C 85.896 85, 84.303 87.362, 82.149 90.250 C 79.995 93.138, 77.494 96.963, 76.591 98.750 C 75.688 100.538, 74.623 102.025, 74.224 102.055 C 73.826 102.085, 67.200 102.498, 59.500 102.974 C 44.626 103.893, 35 106.079, 35 108.539 C 35 109.523, 36.070 110, 38.278 110 C 40.081 110, 44.894 111.600, 48.974 113.555 C 54.787 116.341, 58.377 119.099, 65.567 126.305 C 78.431 139.195, 83.610 150.254, 79.970 157.055 C 78.788 159.265, 73.968 162, 71.256 162 C 68.843 162, 48.774 170.086, 39.038 174.981 C 31.030 179.007, 28.392 181.207, 29.473 182.956 C 31.551 186.319, 62.511 180.405, 73.165 174.610 C 81.794 169.917, 88.958 168, 97.868 168 C 108.213 168, 115.122 169.948, 139.459 179.724 L 160.500 188.177 166.277 181.838 C 173.188 174.255, 176.359 168.279, 175.432 164.584 C 174.179 159.592, 169.087 157.451, 149 153.471 C 144.325 152.545, 137.008 150.689, 132.741 149.347 L 124.982 146.907 133.741 142.500 C 149.957 134.341, 158.010 124.562, 157.990 113.054 C 157.980 107.206, 154.811 98.735, 151.659 96.128 C 149.030 93.953, 149.711 91.342, 153.521 88.987 C 160.795 84.491, 163.818 77.370, 160.866 71.684 C 160.242 70.483, 157.117 66.752, 153.921 63.394 C 147.084 56.209, 146.038 53.330, 148.647 48.867 C 151.275 44.369, 157.742 40.242, 172.585 33.589 C 186.029 27.564, 187.837 26.503, 186.662 25.329 C 185.681 24.348, 171.689 30.130, 158.107 37.129 C 151.840 40.358, 146.553 43, 146.357 43 C 146.160 43, 146 36.790, 146 29.200 C 146 10.084, 145.229 9.476, 134.301 19.989 M 132.476 53.828 C 121.538 60.088, 106.484 70.254, 101 75.084 C 97.804 77.898, 97.717 78.110, 100 77.524 C 101.375 77.172, 106.378 76.625, 111.119 76.310 C 120.792 75.667, 127.814 76.928, 135.217 80.637 C 137.811 81.937, 140.328 83, 140.810 83 C 141.586 83, 143.478 49.145, 142.744 48.410 C 142.583 48.249, 137.962 50.687, 132.476 53.828 M 144.991 66.713 C 144.987 71.546, 144.740 77.750, 144.443 80.500 C 143.952 85.045, 144.139 85.667, 146.498 87.332 C 149.086 89.159, 149.106 89.154, 153.405 85.631 C 155.776 83.688, 158.267 80.769, 158.940 79.144 C 160.523 75.323, 159.469 73.328, 151.250 64.579 L 145 57.927 144.991 66.713 M 111 78.700 C 109.075 78.880, 104.240 79.763, 100.255 80.662 C 93.717 82.137, 92.539 82.794, 88.190 87.398 C 82.942 92.953, 77.367 101.700, 78.410 102.743 C 79.185 103.518, 84.474 102.584, 113 96.635 C 124.825 94.169, 135.850 92.005, 137.500 91.826 C 139.876 91.568, 140.562 90.963, 140.800 88.921 C 141.068 86.618, 140.372 86.007, 134.300 83.216 C 128.335 80.474, 125.574 79.761, 116.500 78.623 C 115.400 78.485, 112.925 78.520, 111 78.700 M 118 98.313 L 97.500 102.500 109.210 102.781 C 120.552 103.054, 121.227 102.948, 130.710 99.417 C 149.019 92.599, 146.888 92.414, 118 98.313 M 134.500 100.879 L 123.500 105.500 104 105.618 C 93.275 105.683, 82.587 106.060, 80.250 106.456 C 71.131 108, 76.851 108.671, 95.750 108.273 C 113.427 107.902, 115.860 108.049, 118.925 109.679 C 126.157 113.524, 125.588 117.508, 116.495 126.691 C 112.967 130.254, 109.822 133.987, 109.504 134.988 C 109.186 135.988, 107.296 137.581, 105.302 138.527 C 97.851 142.063, 84.362 137.887, 77.866 130.034 C 74.928 126.483, 72 118.637, 72 114.318 C 72 112.247, 71.534 112, 67.625 112 C 61.259 112, 57 110.948, 57 109.375 C 57 108.619, 58.013 107.957, 59.250 107.904 C 60.487 107.851, 63.750 107.193, 66.500 106.442 C 71.331 105.123, 71.128 105.094, 60.500 105.595 C 54.450 105.879, 47.925 106.443, 46 106.847 L 42.500 107.582 46.855 109.325 C 53.955 112.166, 62.136 118.302, 70.059 126.729 C 85.646 143.304, 88.287 157.789, 76.684 163.057 C 74.383 164.101, 71.805 164.966, 70.957 164.978 C 67.402 165.029, 33 180.026, 33 181.524 C 33 182.251, 39.913 181.145, 53 178.326 C 60.802 176.645, 66.972 174.588, 72.185 171.928 C 86.218 164.771, 97.996 163.286, 112.090 166.900 C 116.166 167.944, 128.500 172.408, 139.500 176.819 L 159.500 184.838 163.303 181.169 C 168.515 176.141, 173.220 168.569, 172.825 165.846 C 172.308 162.280, 167.135 160.081, 151.791 156.908 C 136.635 153.774, 127.720 151.114, 122 148.020 L 118.500 146.127 122 144.879 C 129.704 142.134, 141.096 135.720, 145.833 131.460 C 154.581 123.595, 157.416 113.718, 153.568 104.508 C 151.729 100.108, 148.242 95.929, 146.576 96.129 C 145.984 96.200, 140.550 98.338, 134.500 100.879 M 70.813 108.683 C 71.534 108.972, 72.397 108.936, 72.729 108.604 C 73.061 108.272, 72.471 108.036, 71.417 108.079 C 70.252 108.127, 70.015 108.364, 70.813 108.683 M 88 110.987 C 82.225 111.409, 76.938 111.810, 76.250 111.877 C 73.209 112.176, 75.779 123.063, 80.140 128.354 C 86.414 135.965, 101.227 139.773, 106 135 C 107.100 133.900, 108 132.572, 108 132.049 C 108 131.526, 110.925 128.244, 114.500 124.756 C 122.093 117.347, 123.048 113.910, 118.001 112.150 C 113.641 110.630, 100.073 110.105, 88 110.987" stroke="none" fill="black" fill-rule="evenodd"/>
</svg>