<svg xmlns="http://www.w3.org/2000/svg" width="200" height="200" viewBox="0 0 200 200" version="1.1">
	<path d="M 153.359 13.972 C 152.090 15.247, 127.477 18.956, 120.144 18.976 C 112.408 18.998, 111.642 18.814, 109.821 16.500 C 107.147 13.100, 102.616 13.223, 96.893 16.853 C 92.459 19.665, 92.129 19.713, 73.826 20.214 C 63.613 20.494, 54.769 21.025, 54.172 21.394 C 52.159 22.638, 54.059 24.656, 59.293 26.835 C 62.157 28.026, 65.818 30.058, 67.429 31.349 L 70.357 33.697 63.429 35.784 C 51.027 39.519, 51.707 39.555, 49.842 35.070 C 47.153 28.603, 40.516 25.749, 25.815 24.737 C 19.027 24.270, 19.461 23.363, 17.939 41.195 C 16.420 58.985, 17.766 140, 19.581 140 C 20.651 140, 20.858 130.586, 20.697 89.250 C 20.589 61.338, 20.873 35.885, 21.330 32.688 L 22.159 26.876 27.830 27.514 C 46.539 29.621, 51.034 34.762, 47.552 50.070 C 44.503 63.477, 42.945 77.414, 42.361 96.500 C 41.796 114.980, 42.421 121, 44.904 121 C 46.981 121, 49.080 117.547, 51.155 110.715 C 53.152 104.141, 53.228 102.976, 52.079 96.527 C 49.252 80.659, 49.993 45.471, 53.217 42.425 C 53.923 41.759, 58.536 40.067, 63.470 38.666 C 73.413 35.843, 74.194 36.028, 76.048 41.645 C 77.458 45.919, 76.622 50.839, 73.406 57.185 C 70.539 62.843, 68.416 75.072, 69.395 80.290 C 70.355 85.407, 72.874 86.572, 78.692 84.589 C 86.202 82.030, 86.311 82.550, 81.919 100.002 C 78.540 113.428, 74.034 122.318, 66.113 131.187 C 61.101 136.799, 57.555 138.799, 47.035 141.951 C 35.904 145.286, 19 154.389, 19 157.048 C 19 158.700, 21.004 158.093, 25.320 155.135 C 32.077 150.502, 38.843 147.433, 49.608 144.116 C 61.900 140.329, 66.335 136.814, 74.715 124.220 C 79.227 117.440, 81.174 113.206, 83.767 104.541 L 87.070 93.500 86.589 109 C 86.324 117.525, 85.581 128.325, 84.938 133 C 83.835 141.021, 83.476 141.866, 78.576 148 C 67.310 162.101, 62.740 170.366, 63.194 175.820 C 63.471 179.146, 63.806 179.530, 66.676 179.808 C 68.520 179.987, 71.667 179.193, 74.176 177.917 C 82.525 173.672, 98.740 155.148, 105.353 142.300 C 106.304 140.451, 107 136.738, 107 133.510 C 107 120.629, 110.865 97, 112.971 97 C 114.283 97, 115.954 101.964, 118.110 112.260 C 119.770 120.191, 120.290 126.446, 120.416 140 C 120.560 155.530, 120.819 158.030, 122.716 162.213 C 129.201 176.505, 141.800 162.247, 145.191 136.780 C 146.206 129.156, 146.113 126.019, 144.535 114.622 C 142.707 101.417, 142.986 93.438, 145.142 97.290 C 146.905 100.440, 150.869 117.619, 152.453 128.977 C 154.208 141.561, 154.478 157.846, 153.016 162.944 C 152.147 165.973, 152.392 166.936, 155.103 171.160 C 158.738 176.826, 164.351 182, 166.860 182 C 167.845 182, 169.683 180.902, 170.943 179.561 C 175.178 175.053, 176.067 167.889, 176.928 131.372 C 177.370 112.601, 178.024 96.771, 178.380 96.194 C 178.737 95.616, 178.150 94.865, 177.076 94.524 C 174.009 93.551, 169.164 87.392, 168.443 83.550 C 167.475 78.390, 170.801 68.641, 179.442 51.312 C 191.296 27.539, 191.561 21.514, 181 15.927 C 178.607 14.661, 154.378 12.947, 153.359 13.972 M 101 17.747 L 97.500 19.416 101.355 19.775 C 106.616 20.264, 108.619 19.451, 106.990 17.488 C 105.479 15.668, 105.349 15.673, 101 17.747 M 156.565 20.504 C 156.204 22.432, 156.199 31.319, 156.555 40.254 C 157.310 59.203, 155.982 75.257, 153.427 78.081 C 150.945 80.824, 148.791 79.132, 145.432 71.800 C 142.663 65.756, 142.544 64.890, 142.523 50.500 C 142.497 33.838, 141.269 28.991, 136.523 26.829 C 128.690 23.259, 120.808 41.686, 122.548 59.500 C 123.179 65.961, 125.801 77.896, 127.579 82.399 C 128.267 84.142, 127.940 84.253, 123.578 83.762 C 119.973 83.355, 117.999 82.422, 115.387 79.890 C 109.875 74.548, 108.930 69.611, 108.967 46.345 L 108.999 26.190 103.249 27.658 C 100.087 28.465, 95.813 29.565, 93.750 30.101 L 90 31.077 89.997 70.289 C 89.993 107.110, 89.180 125.385, 86.993 137.765 C 86.264 141.889, 84.890 144.488, 80.648 149.765 C 69.954 163.066, 63.582 174.982, 65.914 177.314 C 68.802 180.202, 84.735 167.558, 93.825 155.165 C 103.203 142.379, 103.623 141.211, 104.859 124.500 C 106.471 102.689, 109.596 92.756, 114.280 94.554 C 118.943 96.343, 123.148 118.033, 123.380 141.500 C 123.520 155.569, 123.851 159.060, 125.300 161.750 C 126.331 163.663, 127.833 165, 128.953 165 C 132.124 165, 136.683 158.245, 139.677 149.110 C 142.285 141.156, 142.477 139.509, 142.200 127.500 C 141.383 92.166, 141.372 92.557, 143.223 92.198 C 145.929 91.673, 148.652 97.275, 151.518 109.261 C 156.325 129.363, 158.306 152.663, 156.040 162.435 C 155.274 165.737, 155.464 166.863, 157.222 169.435 C 160.837 174.724, 165.319 179, 167.247 179 C 171.619 179, 173.959 165.210, 174.090 138.678 C 174.139 128.680, 174.476 115.213, 174.840 108.752 L 175.500 97.003 172.690 94.928 C 168.054 91.503, 166.008 87.170, 166.004 80.773 C 165.999 73.804, 168.303 67.458, 177.777 48.340 C 181.636 40.552, 185.109 32.314, 185.494 30.033 C 187.108 20.481, 182.059 17, 166.591 17 L 157.223 17 156.565 20.504 M 131 21.651 C 129.625 21.859, 124.853 22.755, 120.395 23.641 L 112.290 25.252 111.630 42.376 C 110.685 66.875, 112.744 76.480, 119.645 79.770 C 121.476 80.644, 123.170 81.163, 123.408 80.925 C 123.647 80.686, 122.974 76.893, 121.913 72.496 C 116.791 51.269, 121.385 28.662, 131.695 24.354 C 136.512 22.341, 139.820 24.140, 143 30.500 C 145.352 35.204, 145.487 36.330, 145.275 49.500 C 145.065 62.559, 145.223 63.920, 147.637 69.750 C 152.140 80.625, 153.087 78.243, 153.754 54.380 C 154.032 44.414, 153.938 32.826, 153.544 28.630 L 152.829 21 143.165 21.136 C 137.849 21.211, 132.375 21.443, 131 21.651 M 95.413 22.943 C 93.715 23.349, 91.802 24.004, 91.163 24.399 C 89.980 25.130, 89.518 28, 90.583 28 C 92.501 28, 107.663 23.695, 108.450 22.927 C 109.577 21.827, 100.031 21.839, 95.413 22.943 M 63.971 26.052 C 66.981 27.710, 70.356 29.922, 71.471 30.965 C 73.443 32.809, 73.684 32.813, 79.979 31.085 C 85.917 29.456, 86.511 29.044, 87.102 26.154 L 87.747 23 73.124 23.018 L 58.500 23.036 63.971 26.052 M 80.754 33.661 L 76.008 35.114 77.504 38.007 C 79.988 42.812, 79.389 50.279, 75.877 58.280 C 72.430 66.134, 70.590 81.011, 72.890 82.432 C 73.525 82.825, 76.312 82.393, 79.083 81.473 C 83.886 79.877, 84.218 79.885, 86.217 81.650 C 88.287 83.476, 88.306 83.468, 87.671 81 C 87.317 79.625, 87.021 68.037, 87.014 55.250 C 87.006 42.462, 86.662 32.047, 86.250 32.104 C 85.838 32.161, 83.364 32.862, 80.754 33.661 M 45.728 83 C 44.425 100.654, 44.516 117.909, 45.903 116.450 C 46.400 115.927, 47.646 112.575, 48.672 109 C 50.322 103.250, 50.396 101.693, 49.313 95.500 C 48.640 91.650, 47.716 85.125, 47.259 81 L 46.429 73.500 45.728 83" stroke="none" fill="black" fill-rule="evenodd"/>
</svg>