<svg xmlns="http://www.w3.org/2000/svg" width="200" height="200" viewBox="0 0 200 200" version="1.1">
	<path d="M 68.667 27.446 C 65.458 28.765, 61.081 31.004, 58.938 32.422 C 56.796 33.840, 54.646 35, 54.162 35 C 53.677 35, 50.564 33.599, 47.243 31.886 C 42.873 29.632, 39.759 28.750, 35.973 28.693 C 31.196 28.621, 30.454 28.928, 27.431 32.227 C 25.610 34.214, 23.567 37.788, 22.891 40.170 C 21.418 45.356, 21.181 65.002, 22.349 85.151 L 23.198 99.803 27.556 100.456 C 33.082 101.285, 36.610 105.215, 37.569 111.610 C 37.948 114.140, 37.863 122.800, 37.379 130.855 C 35.601 160.469, 37.188 170.445, 44.727 177.065 C 51.292 182.829, 52.250 182.978, 87.766 183.770 C 140.057 184.936, 157.183 184.312, 167.884 180.851 L 171.269 179.756 170.592 170.628 C 169.608 157.360, 168.028 147.820, 166.389 145.250 C 164.361 142.070, 161.296 142.446, 155.072 146.637 C 143.995 154.097, 132.388 158, 121.279 158 C 117.547 158, 113.456 158.880, 109.111 160.619 C 97.044 165.446, 84.184 162.431, 73.890 152.361 C 67.549 146.157, 64.646 140.029, 64.245 132 C 63.833 123.735, 66.379 118.896, 73.436 114.535 L 78.348 111.500 94.470 111.500 C 108.320 111.500, 110.978 111.754, 113.341 113.303 C 120.008 117.674, 118.977 122.944, 108.342 138.849 C 104.822 144.114, 102.356 148.756, 102.828 149.228 C 103.298 149.698, 106.791 151.179, 110.591 152.520 C 118.317 155.246, 128.623 155.792, 135.193 153.824 C 143.392 151.368, 150.455 142.481, 153.601 130.664 C 155.428 123.805, 155.398 106.642, 153.550 100.500 L 152.100 95.682 156.496 90.793 C 163.794 82.677, 167.669 69.039, 166.751 54.708 C 165.837 40.447, 161.004 30.680, 153.213 27.348 C 149.221 25.641, 144.138 26.739, 138.583 30.508 C 135.943 32.300, 134.410 32.758, 133.196 32.118 C 132.263 31.626, 128.954 30.700, 125.842 30.060 C 118.614 28.573, 113.440 30.374, 111.701 34.983 C 110.604 37.887, 110.331 38, 104.440 38 C 101.073 38, 91.384 38.271, 82.909 38.602 L 67.500 39.205 72.500 35.719 C 78.771 31.348, 82.408 27.470, 81.546 26.074 C 80.451 24.302, 74.865 24.897, 68.667 27.446 M 72.308 28.982 C 66.292 31.100, 57 35.990, 57 37.036 C 57 37.432, 57.669 38.310, 58.487 38.989 C 59.710 40.004, 61.265 39.405, 67.237 35.618 C 79.927 27.571, 81.258 25.830, 72.308 28.982 M 144.007 30.593 C 142.086 31.426, 139.599 32.968, 138.480 34.018 C 136.478 35.900, 136.349 35.899, 130.134 33.965 C 121.471 31.268, 118.473 31.426, 115.205 34.750 L 112.500 37.500 124.971 38 L 137.443 38.500 139.705 42.500 C 142.355 47.186, 142.515 49.103, 140.569 52.867 C 138.320 57.215, 132.022 59.500, 122.282 59.500 C 117.727 59.500, 114 59.771, 114 60.102 C 114 60.433, 117.526 60.975, 121.835 61.308 C 136.722 62.456, 144 66.366, 144 73.217 C 144 76.396, 143.223 77.925, 139.645 81.793 C 135.816 85.932, 135.345 86.940, 135.743 90.144 C 136.329 94.878, 133.919 99.868, 129.642 102.779 C 125.831 105.371, 116.199 107.294, 111 106.499 C 109.075 106.205, 105.475 106.373, 103 106.872 C 99.868 107.505, 99.321 107.814, 101.201 107.890 C 107.337 108.139, 114.347 110.338, 117.238 112.921 C 122.754 117.850, 120.775 125.840, 110.308 140.898 C 105.291 148.114, 105.254 148.014, 114 150.720 C 125.629 154.319, 136.600 152.297, 143.193 145.342 C 152.184 135.856, 155.677 111.555, 149.823 99.218 L 147.791 94.936 152.340 90.932 C 160.719 83.556, 164.641 71.053, 163.775 54.480 C 163.359 46.527, 162.786 44.007, 160.199 38.755 C 157.117 32.495, 153.166 28.958, 149.346 29.039 C 148.331 29.061, 145.928 29.760, 144.007 30.593 M 31.420 32.092 C 25.291 35.221, 23.553 44.841, 24.467 70.572 C 25.372 96.060, 25.601 97.234, 29.825 98.098 C 33.627 98.876, 36.563 101.294, 38.808 105.498 C 40.555 108.768, 40.770 116.310, 39.950 145.500 C 39.430 163.982, 40.247 168.054, 45.677 174.065 C 50.154 179.020, 57.628 181.473, 65.892 180.699 C 68.976 180.410, 86.028 180.652, 103.784 181.237 C 136.369 182.310, 154.849 181.604, 164.387 178.923 L 168.274 177.830 167.602 168.665 C 166.710 156.486, 165.086 147.316, 163.605 146.087 C 162.761 145.386, 161.068 145.988, 157.950 148.098 C 146.188 156.058, 132.021 161, 120.967 161 C 117.456 161, 113.537 161.760, 110.798 162.971 C 108.347 164.055, 103.864 165.234, 100.834 165.590 C 82.138 167.787, 61 149.517, 61 131.159 C 61 120.885, 69.639 110.546, 79.335 109.215 C 83.180 108.688, 82.755 108.511, 73.803 106.920 C 57.074 103.945, 47.909 98.073, 52.346 93.171 C 55.043 90.190, 60.718 88.920, 74.080 88.305 C 85.259 87.791, 87.346 87.964, 92.834 89.863 C 98.965 91.985, 106.513 92.643, 108.577 91.235 C 110.790 89.724, 113.237 76.042, 112.510 69.246 L 111.817 62.779 94.659 63.514 C 77.210 64.262, 71.771 65.101, 75.250 66.507 C 77.694 67.494, 77.434 70.697, 74.796 72.109 C 67.908 75.796, 48.388 77.466, 44.596 74.694 C 41.522 72.446, 42.998 68.914, 48.663 64.962 L 53.825 61.361 50.354 58.591 C 44.067 53.575, 43.568 46.840, 49.022 40.628 L 51.945 37.299 46.537 34.563 C 40.448 31.482, 34.515 30.513, 31.420 32.092 M 119.250 40.719 C 112.288 41.138, 112.593 40.687, 112.982 50 C 113.108 53.025, 113.726 55.860, 114.356 56.300 C 116.340 57.687, 131.244 56.486, 134.736 54.658 C 138.992 52.429, 139.919 48.753, 137.406 44.060 C 135.624 40.731, 135.175 40.495, 130.500 40.421 C 127.750 40.378, 122.688 40.512, 119.250 40.719 M 70 42.041 C 63.675 42.424, 56.925 42.827, 55 42.936 C 51.042 43.161, 50.221 42.667, 64.313 48.553 L 73.126 52.234 84.813 47.646 C 91.241 45.123, 97.625 42.624, 99 42.093 C 101.944 40.955, 88.357 40.931, 70 42.041 M 104.687 43.805 C 101.038 47.614, 101.217 50.552, 105.250 53.011 C 107.037 54.101, 108.838 54.994, 109.250 54.996 C 109.662 54.998, 110 51.850, 110 48 C 110 40.045, 109.026 39.276, 104.687 43.805 M 48.533 45.801 C 47.139 47.195, 48.266 52.163, 50.608 54.946 C 55.051 60.226, 56.232 60.416, 63.081 56.959 C 66.448 55.260, 69.004 53.670, 68.761 53.427 C 67.700 52.367, 49.013 45.321, 48.533 45.801 M 87 49.655 C 80.675 52.172, 75.305 54.412, 75.067 54.632 C 74.828 54.853, 75.166 55.566, 75.817 56.217 C 76.467 56.867, 77 58.471, 77 59.779 C 77 61.843, 77.365 62.085, 79.750 61.603 C 81.263 61.297, 88.912 60.924, 96.749 60.773 C 106.810 60.580, 110.999 60.156, 110.999 59.329 C 111 58.686, 109.662 57.865, 108.027 57.506 C 106.392 57.147, 103.641 55.533, 101.914 53.920 C 99.418 51.588, 98.865 50.374, 99.214 47.994 C 99.456 46.347, 99.394 45.017, 99.077 45.039 C 98.760 45.060, 93.325 47.137, 87 49.655 M 66 58.580 C 61.439 60.703, 60.793 61.304, 62.214 62.099 C 63.224 62.665, 65.892 62.729, 68.714 62.256 C 72.872 61.559, 73.500 61.140, 73.500 59.060 C 73.500 55.723, 72.305 55.646, 66 58.580 M 115.014 66.440 C 115.021 68.123, 115.296 70.502, 115.624 71.726 C 116.121 73.579, 116.548 73.777, 118.169 72.910 C 121.573 71.088, 125.708 72.882, 130.572 78.291 L 135.197 83.435 138.042 79.967 C 139.608 78.060, 141.160 75.435, 141.493 74.132 C 142.752 69.198, 135.859 65.539, 122.750 64.183 L 115 63.381 115.014 66.440 M 52.373 66.714 C 50.654 66.931, 48.226 68.195, 46.978 69.524 L 44.709 71.939 47.604 73.050 C 52.554 74.949, 75.829 71.329, 73.383 69.040 C 71.093 66.897, 60.353 65.708, 52.373 66.714 M 117.571 76.571 C 116.707 77.436, 116 79.475, 116 81.104 C 116 82.732, 115.325 85.680, 114.500 87.654 C 112.999 91.247, 112.436 98, 113.639 98 C 114.607 98, 130.845 87.059, 131.537 85.941 C 132.486 84.404, 128.105 78.106, 124.953 76.476 C 121.307 74.590, 119.530 74.613, 117.571 76.571 M 122.026 96.113 C 116.266 99.901, 111.203 103, 110.776 103 C 110.349 103, 110 100.984, 110 98.519 L 110 94.038 105.587 94.643 C 102.499 95.066, 99.076 94.610, 94.182 93.124 C 82.696 89.635, 58.198 90.647, 54.792 94.751 C 52.996 96.915, 56.667 99.521, 65.370 102.258 C 71.348 104.138, 74.762 104.498, 86.500 104.489 C 109.954 104.470, 122.064 103.576, 126.294 101.549 C 130.444 99.560, 133.296 95.183, 132.810 91.547 C 132.517 89.350, 131.938 89.596, 122.026 96.113" stroke="none" fill="black" fill-rule="evenodd"/>
</svg>