<svg xmlns="http://www.w3.org/2000/svg" width="200" height="200" viewBox="0 0 200 200" version="1.1">
	<path d="M 71.160 11.880 C 70.422 12.348, 69.295 13.781, 68.654 15.067 C 67.901 16.577, 59.536 21.928, 44.995 30.202 C 32.623 37.241, 22.500 43.518, 22.500 44.151 C 22.500 44.783, 23.471 45.449, 24.658 45.630 C 33.937 47.046, 45 54.196, 45 58.777 C 45 62.372, 38.499 68.184, 27.500 74.421 C 17.051 80.346, 15.982 82.503, 23.500 82.494 C 26.250 82.490, 31.040 82.155, 34.144 81.747 C 40.722 80.885, 40.792 80.967, 41.693 90.615 C 42.465 98.887, 40.036 103.237, 31.514 108.840 C 23.598 114.045, 19.404 118.797, 17.926 124.237 C 16.535 129.359, 17.289 140.301, 19.559 147.912 C 20.944 152.553, 21.011 154.718, 20.034 163.123 C 18.758 174.101, 19.307 179.063, 22.076 181.569 C 25.039 184.250, 29.790 182.826, 41.722 175.681 C 59.877 164.809, 63.229 164.619, 72.112 173.954 C 76.302 178.357, 78.680 180.037, 81.462 180.559 C 92.342 182.600, 106.936 171.906, 119.430 152.738 C 129.390 137.459, 131.435 131.895, 135.512 109 C 140.286 82.191, 141.650 75.773, 143.533 71.268 C 144.770 68.307, 145.291 67.840, 146.047 69.016 C 148.656 73.075, 152.964 96.750, 152.985 107.140 C 153.022 125.783, 144.425 151.823, 133.801 165.248 C 131.343 168.354, 130.378 168.901, 128.167 168.438 C 125.852 167.953, 126.225 168.553, 130.984 172.978 C 137.738 179.259, 146.895 184, 152.274 184 C 160.792 184, 167.129 177.617, 171.481 164.652 C 175.435 152.871, 176.906 140.176, 178.185 106.761 C 179.455 73.603, 178.889 64.624, 175.060 57.118 C 172.637 52.369, 167.355 49.556, 162.703 50.537 C 158.543 51.414, 150.661 55.341, 145.626 59.043 C 143.434 60.655, 141.537 61.868, 141.409 61.737 C 141.281 61.607, 141.628 59.027, 142.179 56.003 C 145.360 38.547, 135.700 20, 123.427 20 C 113.653 20, 109.494 28.366, 110.193 46.623 C 110.524 55.276, 110.330 58, 109.382 58 C 106.954 58, 106.973 61.917, 109.472 76.436 C 113.162 97.871, 112.729 115.682, 108.308 124.337 C 107.511 125.897, 105.358 132.647, 103.524 139.337 C 101.689 146.026, 99.394 153.482, 98.423 155.905 C 96.894 159.722, 96.557 160.036, 95.900 158.258 C 95.482 157.130, 94.822 146.373, 94.431 134.353 C 94.041 122.334, 93.378 111.573, 92.958 110.441 C 92.364 108.837, 90.680 108.103, 85.347 107.123 C 77.124 105.612, 70.214 102.722, 69.333 100.425 C 68.326 97.800, 70.792 94.796, 80.606 86.697 C 91.393 77.794, 94 74.713, 94 70.865 C 94 67.718, 89.942 62.675, 89.200 64.900 C 88.966 65.601, 89.276 66.676, 89.887 67.287 C 90.499 67.899, 91 69.632, 91 71.138 C 91 73.267, 89.517 75.169, 84.334 79.688 C 66.067 95.614, 64.385 97.886, 67.423 102.522 C 69.097 105.078, 76.431 108.136, 85.250 109.955 L 91 111.142 91.057 115.321 C 91.341 135.968, 92.868 160.136, 93.973 161.468 C 97.458 165.666, 100.416 160.851, 105.493 142.720 C 107.375 135.999, 110.152 127.350, 111.664 123.500 C 114.229 116.970, 114.413 115.494, 114.417 101.500 C 114.420 90.134, 113.886 83.723, 112.211 75.035 C 109.492 60.937, 109.490 61.172, 112.314 63.826 C 113.587 65.022, 114.882 66, 115.192 66 C 115.502 66, 115.115 62.962, 114.332 59.250 C 112.513 50.627, 112.374 36.743, 114.051 31.191 C 115.357 26.866, 119.888 22, 122.609 22 C 128.704 22, 135.832 29.327, 138.510 38.345 C 141.005 46.748, 140.538 53.211, 136.377 67.870 C 135.818 69.839, 137.123 69.159, 144.102 63.843 C 154.837 55.665, 162.096 52.423, 166.970 53.627 C 169.866 54.343, 170.949 55.398, 173 59.500 L 175.500 64.500 175.366 93.576 C 175.165 137.129, 172.522 158.613, 165.817 171.193 C 160.085 181.946, 152.292 183.943, 141.441 177.439 C 132.261 171.938, 132.191 171.810, 135.809 167.241 C 146.534 153.700, 156 125.502, 156 107.095 C 156 99.137, 151.647 75.250, 149.180 69.674 C 146.905 64.532, 144.948 63.819, 142.523 67.250 C 140.051 70.746, 138.403 77.536, 133.484 104.500 C 128.353 132.619, 127.085 136.171, 116.495 152.080 C 106.298 167.398, 93.471 178, 85.135 178 C 80.633 178, 77.122 175.918, 72.771 170.668 C 65.418 161.797, 58.457 162.241, 41.244 172.678 C 35.393 176.226, 29.277 179.395, 27.653 179.719 C 22.123 180.825, 20.815 175.522, 23.056 161.077 C 23.968 155.201, 23.831 153.171, 22.056 146.219 C 17.552 128.579, 19.803 119.950, 30.827 112.606 C 43.534 104.139, 46.216 99.014, 44.109 87.224 C 42.376 77.525, 42.756 77.806, 33.128 79.102 C 28.591 79.713, 24.682 80.015, 24.441 79.774 C 24.200 79.533, 27.248 77.573, 31.214 75.418 C 43.834 68.561, 49.768 61.176, 47.195 55.529 C 45.732 52.318, 40.105 48.226, 33.408 45.504 L 27.777 43.215 32.138 40.696 C 59.096 25.124, 68.019 20.377, 67.582 21.841 C 67.310 22.753, 64.571 34.975, 61.496 49 C 58.421 63.025, 53.487 84.400, 50.532 96.500 C 46.059 114.818, 45.043 120.683, 44.463 131.542 L 43.766 144.584 47.133 147.165 C 48.985 148.585, 53.153 152.303, 56.396 155.427 C 59.714 158.624, 62.670 160.730, 63.157 160.243 C 63.644 159.756, 63.179 156.927, 62.094 153.773 C 59.217 145.410, 57.617 130.288, 58.348 118.352 C 59.227 103.973, 60.537 95.805, 64.697 78.750 C 68.183 64.458, 68.375 64, 70.897 63.989 C 75.928 63.968, 81.074 62.721, 80.701 61.613 C 80.470 60.926, 78.352 60.631, 75.163 60.842 C 67.721 61.335, 68.387 59.426, 78.381 51.622 C 97.659 36.568, 99.768 29.514, 86.506 24.449 C 80.498 22.155, 80.823 21.752, 74.085 39.808 C 71.275 47.339, 68.233 54.966, 67.326 56.757 C 66.419 58.549, 65.593 61.249, 65.490 62.757 C 65.387 64.266, 63.887 70.900, 62.156 77.500 C 60.425 84.100, 58.279 94.225, 57.387 100 C 54.692 117.443, 55.380 144.008, 58.755 152.803 C 59.109 153.726, 56.400 151.799, 52.735 148.521 C 47.758 144.069, 46.184 142.048, 46.513 140.531 C 46.756 139.414, 47.151 134, 47.390 128.500 C 47.697 121.451, 48.858 114.516, 51.324 105 C 53.248 97.575, 58.479 75.075, 62.948 55 C 70.154 22.637, 71.354 18.269, 73.538 16.462 C 77.742 12.983, 75.682 9.014, 71.160 11.880 M 80.057 31.729 C 78.827 34.903, 76.507 41.028, 74.902 45.341 L 71.984 53.181 76.242 49.890 C 94.504 35.776, 96.420 30.307, 84.397 26.606 C 82.569 26.043, 82 26.715, 80.057 31.729" stroke="none" fill="black" fill-rule="evenodd"/>
</svg>