<svg xmlns="http://www.w3.org/2000/svg" width="200" height="200" viewBox="0 0 200 200" version="1.1">
	<path d="M 108.355 13.039 C 106.075 13.491, 102.025 14.953, 99.355 16.288 C 95.433 18.250, 92.343 18.835, 83.278 19.333 C 65.538 20.308, 61.152 23.415, 68.459 29.830 L 71.918 32.867 65.209 39.392 L 58.500 45.917 58.189 41.882 C 57.921 38.407, 57.434 37.667, 54.689 36.552 C 52.935 35.840, 47 34.709, 41.500 34.038 C 36 33.368, 29.999 32.146, 28.165 31.322 C 23.958 29.434, 20.522 30.270, 18.263 33.733 C 16.702 36.125, 16.550 38.443, 16.939 53.967 C 17.492 76.075, 17.484 77.985, 16.706 115.602 C 16.070 146.380, 16.086 146.749, 18.282 151.044 C 20.867 156.102, 25.349 158.780, 32.680 159.649 L 37.615 160.233 38.685 152.128 C 39.840 143.381, 41.930 139, 44.949 139 C 45.995 139, 50.573 140.800, 55.123 143 C 59.672 145.200, 64.445 147, 65.729 147 C 69.742 147, 74.520 144.402, 77.915 140.374 L 81.180 136.500 78.477 142 C 73.929 151.255, 68.933 158.998, 62.729 166.405 C 56.035 174.397, 53.606 178.532, 54.396 180.590 C 55.647 183.850, 61.949 181.191, 73.583 172.497 C 84.547 164.303, 92.226 156.752, 99.939 146.581 C 108.697 135.030, 113.945 123.990, 118.587 107.350 C 120.559 100.283, 122.418 93.825, 122.717 93 C 123.016 92.175, 124.311 98.841, 125.595 107.813 C 128.830 130.422, 131.861 140.954, 140.041 158.012 C 143.868 165.993, 147 173.002, 147 173.587 C 147 175.997, 152.068 179.394, 155.518 179.297 C 165.353 179.018, 178.366 164.858, 178.462 154.331 C 178.510 149.062, 175.539 145.672, 168.957 143.486 C 163.097 141.539, 156.336 134.666, 148.675 122.866 C 139.100 108.119, 131.805 90.902, 130.418 79.779 C 130.057 76.875, 128.914 71.927, 127.880 68.782 C 125.421 61.303, 125.467 50.663, 128.021 36.067 C 129.122 29.778, 129.749 23.179, 129.415 21.401 C 128.604 17.077, 125.039 13.931, 119.803 12.919 C 114.755 11.943, 113.847 11.953, 108.355 13.039 M 105.312 16.696 C 102.749 17.719, 100.926 19.170, 100.613 20.434 C 100.332 21.570, 99.599 33.975, 98.983 48 C 97.333 85.608, 94.220 106.305, 86.889 128.404 C 81.648 144.202, 76.119 153.643, 59.742 174.762 C 58.226 176.718, 57.170 178.503, 57.396 178.729 C 58.135 179.468, 65.423 175.285, 72.002 170.344 C 87.700 158.555, 101.924 141.940, 108.496 127.714 C 111.519 121.172, 115.465 108.994, 120.496 90.686 C 121.726 86.207, 122.483 84.946, 123.792 85.199 C 125.055 85.442, 125.689 87.065, 126.262 91.513 C 131.126 129.278, 133.213 137.697, 142.377 156.500 C 145.861 163.650, 149.284 170.968, 149.983 172.763 C 151.532 176.741, 154.474 177.664, 159.248 175.670 C 169.931 171.206, 179.208 155.761, 174.718 149.913 C 173.079 147.778, 169.594 146, 167.047 146 C 164.019 146, 152.877 134.420, 146.591 124.739 C 136.318 108.919, 130.067 94.061, 127.507 79.378 C 126.697 74.732, 125.515 69.962, 124.881 68.777 C 122.637 64.585, 122.642 50.256, 124.891 38.035 C 127.544 23.613, 127.528 21.725, 124.718 18.458 C 122.777 16.202, 121.466 15.746, 115.968 15.414 C 111.479 15.143, 108.219 15.536, 105.312 16.696 M 88.500 25.547 C 75.828 32.750, 76.348 32.016, 80.122 37.371 C 83.712 42.464, 83.969 44.708, 82.192 55.500 C 80.917 63.245, 80.632 98.002, 81.666 119.567 L 82.332 133.450 84.646 126.587 C 91.219 107.104, 94.499 85.200, 95.965 51 C 96.543 37.525, 97.226 25.262, 97.483 23.750 C 97.740 22.238, 97.624 21, 97.225 21 C 96.826 21, 92.900 23.046, 88.500 25.547 M 73.112 23.081 C 70.698 23.555, 68.481 24.185, 68.185 24.482 C 67.604 25.062, 72.937 31, 74.039 31 C 74.404 31, 77.787 28.975, 81.555 26.500 L 88.406 22 82.953 22.110 C 79.954 22.170, 75.525 22.607, 73.112 23.081 M 20.872 34.658 C 19.784 35.973, 19.480 42.332, 19.403 65.408 C 19.350 81.409, 19.343 96.075, 19.386 98 C 19.554 105.410, 19.402 121.988, 19.064 133.047 C 18.542 150.133, 20.977 155.013, 30.806 156.585 C 35.373 157.315, 35.242 157.518, 36.496 147.823 C 37.263 141.891, 40.728 136.599, 44.106 136.201 C 45.553 136.030, 50.253 137.645, 55.021 139.951 C 66.225 145.369, 69.088 145.310, 74.610 139.547 L 78.877 135.093 78.689 95.297 C 78.542 64.309, 78.800 54.468, 79.856 50.836 C 81.469 45.286, 80.334 40.602, 76.502 37.002 L 74.063 34.710 69.781 38.514 C 65.259 42.531, 58.487 50.222, 56.961 53.073 C 56.461 54.006, 56.074 68.209, 56.100 84.635 C 56.149 115.995, 55.223 125.223, 51.809 127.358 C 49.430 128.846, 46.523 125.984, 44.560 120.221 C 42.652 114.623, 42.633 114, 44.370 114 C 45.140 114, 46.290 115.964, 46.995 118.481 C 48.492 123.827, 50.431 125.911, 51.458 123.276 C 53.149 118.937, 54.239 96.556, 53.531 80.692 C 53.119 71.448, 52.510 64.156, 52.178 64.489 C 51.846 64.821, 51.299 72.384, 50.962 81.296 C 50.358 97.312, 49.237 102.499, 45.941 104.537 C 43.969 105.755, 43.835 104.220, 45.618 100.843 C 46.987 98.250, 47.532 93.910, 48.047 81.500 C 48.597 68.233, 49.094 64.560, 50.956 60 C 52.191 56.975, 53.798 51.350, 54.527 47.500 C 55.674 41.441, 55.655 40.346, 54.381 39.357 C 53.572 38.728, 48.318 37.663, 42.705 36.989 C 37.092 36.315, 30.700 35.148, 28.500 34.396 C 23.337 32.632, 22.527 32.660, 20.872 34.658" stroke="none" fill="black" fill-rule="evenodd"/>
</svg>