<svg xmlns="http://www.w3.org/2000/svg" width="200" height="200" viewBox="0 0 200 200" version="1.1">
	<path d="M 109 9.623 C 107.075 9.850, 99.650 10.718, 92.500 11.552 C 85.350 12.387, 78.456 13.295, 77.179 13.571 C 74.115 14.235, 74.889 16.299, 78.257 16.446 C 81.214 16.575, 84.611 19.375, 87.263 23.867 L 89.026 26.853 83.263 28.008 C 80.093 28.643, 72.795 30.229, 67.044 31.533 C 59.018 33.352, 56.264 33.634, 55.195 32.747 C 54.093 31.832, 55.456 31.234, 61.707 29.889 C 75.865 26.844, 80.137 23.862, 74.750 20.785 C 73.181 19.889, 67.959 19.514, 57.500 19.545 C 31.118 19.625, 20.495 23.888, 28.956 31 L 31.931 33.500 29.032 43.153 C 23.590 61.275, 23.232 72.675, 27.955 77.401 C 30.514 79.961, 37.992 80.187, 51.127 78.101 C 61.064 76.523, 65.335 77.059, 70.444 80.526 C 74.759 83.455, 78.063 83.609, 83.509 81.135 C 88.944 78.666, 93.597 73.096, 95.457 66.833 C 97.647 59.459, 97.463 45.128, 95.069 36.493 C 94.007 32.663, 93.228 29.439, 93.337 29.330 C 93.447 29.220, 95.941 28.811, 98.881 28.421 C 103.824 27.766, 104.183 27.855, 103.651 29.606 C 101.183 37.739, 100.376 59.080, 102.112 70.308 C 104.922 88.483, 112.050 91.496, 123.048 79.157 L 128.006 73.594 135.147 74.819 C 143.113 76.184, 148.557 78.404, 149.413 80.633 C 150.126 82.491, 146.030 86.672, 141.740 88.463 C 131.795 92.617, 114.715 93.995, 101.500 91.710 C 91.784 90.030, 21.562 91.030, 19.743 92.874 C 17.729 94.916, 21.038 96.565, 30.714 98.342 C 42.344 100.477, 43.274 101.498, 46.845 116.038 C 49.988 128.833, 50.666 130.425, 54.491 134 C 56.796 136.154, 58.090 136.498, 63.833 136.485 C 69.810 136.471, 71.678 135.911, 81.877 131.075 C 91.552 126.488, 94.451 125.576, 101.261 124.977 C 113.237 123.924, 121.956 126.594, 127.305 132.951 C 133.483 140.292, 131.653 147.262, 122 153.164 C 115.258 157.287, 95.359 161.576, 91.382 159.764 C 89.663 158.981, 88.662 159.036, 87.530 159.975 C 84.743 162.288, 85.719 164, 89.824 164 C 92.910 164, 95.083 165.076, 101.074 169.568 C 112.124 177.854, 118.989 181.762, 125.451 183.445 C 136.730 186.383, 143.862 182.404, 150.608 169.411 C 152.867 165.060, 156.371 158.800, 158.393 155.500 C 164.689 145.229, 166.808 133.161, 163.623 125.718 C 158.134 112.889, 137.738 109.512, 120.009 118.496 C 115.141 120.962, 113.766 121.163, 100.635 121.325 C 88.005 121.481, 86.127 121.282, 83 119.451 C 76.653 115.735, 78.235 108.682, 86.670 103.095 C 96.356 96.679, 109.911 95.182, 122.645 99.120 C 128.812 101.028, 131.107 101.187, 145.500 100.709 C 162.920 100.130, 167.623 99.088, 172.226 94.789 C 175.061 92.141, 175.209 91.625, 174.833 85.713 C 174.528 80.934, 173.408 77.286, 170.117 70.361 L 165.801 61.278 169.552 56.389 C 183.190 38.616, 178.575 23.556, 159.491 23.556 C 153.759 23.556, 151.334 24.091, 146.615 26.400 C 133.234 32.947, 131.196 46.791, 141.502 61.135 L 144.997 66 137.653 66 C 131.489 66, 130.008 65.667, 128.430 63.923 C 126.585 61.884, 126.602 61.643, 129.297 51.173 C 130.808 45.303, 132.034 39.240, 132.022 37.700 C 131.991 33.756, 129.454 29.311, 126.237 27.565 C 123.591 26.130, 123.734 26.078, 130.500 26.024 C 144.197 25.916, 154.171 22.060, 154.819 16.625 C 155.098 14.284, 154.534 13.677, 150.319 11.777 C 146.075 9.864, 143.531 9.581, 129 9.407 C 119.925 9.299, 110.925 9.396, 109 9.623 M 109 12.508 C 108.175 12.711, 102.253 13.404, 95.840 14.048 L 84.181 15.219 87.590 19.686 C 89.466 22.143, 91 24.634, 91 25.221 C 91 26.683, 104.367 25.400, 104.870 23.890 C 105.079 23.263, 106.071 21.929, 107.074 20.926 C 108.806 19.194, 109.064 19.188, 112.199 20.801 C 114.842 22.162, 118.289 22.500, 129.500 22.500 C 141.500 22.500, 144.071 22.214, 147.500 20.500 C 149.700 19.400, 151.630 17.793, 151.789 16.928 C 152.397 13.621, 147.238 12.612, 128.500 12.371 C 118.600 12.243, 109.825 12.305, 109 12.508 M 39.988 23.056 C 33.384 24.030, 29 25.583, 29 26.950 C 29 27.499, 30.396 28.670, 32.102 29.553 C 35.625 31.374, 35.643 30.829, 31.611 44.423 C 28.364 55.372, 26.600 66.252, 27.414 70.319 C 28.834 77.420, 32.360 78.233, 49.660 75.449 C 60.443 73.714, 67.044 74.471, 72.020 78.014 C 75.310 80.357, 77.858 80.504, 82.389 78.611 C 89.313 75.718, 93.305 68.620, 94.544 57 C 95.134 51.469, 93.243 38.178, 91.076 32.626 C 90.020 29.917, 89.712 29.790, 85.728 30.415 C 80.620 31.217, 58.745 36.055, 57.898 36.569 C 57.567 36.771, 58.360 40.887, 59.662 45.718 C 60.963 50.548, 62.313 57.763, 62.661 61.750 C 63.266 68.683, 63.200 69, 61.159 69 C 59.526 69, 58.223 67.408, 55.607 62.212 C 50.948 52.961, 47.075 43.259, 47.765 42.569 C 49.096 41.237, 49.944 42.413, 52.939 49.750 C 54.679 54.013, 56.961 59.075, 58.010 61 C 59.590 63.900, 59.923 64.126, 59.958 62.315 C 60.006 59.838, 57.492 47.393, 55.805 41.750 C 55.176 39.648, 54.044 38, 53.228 38 C 52.180 38, 51.896 37.161, 52.213 35 C 52.455 33.350, 52.282 32, 51.827 32 C 51.372 32, 51 31.375, 51 30.611 C 51 29.792, 52.537 28.949, 54.750 28.555 C 56.813 28.188, 62.100 26.927, 66.500 25.753 C 73.125 23.985, 74.070 23.496, 72 22.909 C 68.616 21.949, 46.822 22.049, 39.988 23.056 M 108.658 22.675 C 107.131 24.203, 108.236 24.993, 111.750 24.884 C 113.910 24.817, 114.652 24.560, 113.500 24.276 C 112.400 24.006, 111.009 23.387, 110.408 22.901 C 109.807 22.415, 109.020 22.313, 108.658 22.675 M 150.807 27.583 C 141.671 30.394, 136.017 38.890, 137.884 47 C 139.020 51.939, 142.241 57.903, 146.561 63.069 L 150.266 67.500 147.383 68.132 C 145.797 68.479, 141.263 68.817, 137.306 68.882 C 131.056 68.984, 129.745 68.685, 127.320 66.599 C 123.884 63.644, 123.783 59.725, 126.874 49.392 C 129.745 39.793, 129.673 34.582, 126.626 31.535 C 124.008 28.917, 118.169 27.663, 111 28.177 L 106.500 28.500 105.315 36.500 C 104.663 40.900, 104.110 49.450, 104.086 55.500 C 104.017 72.572, 107.199 84, 112.020 84 C 114.366 84, 121.342 77.934, 123.776 73.777 C 125.477 70.872, 125.584 70.843, 131.885 71.511 C 145.248 72.928, 152 76.445, 152 81.988 C 152 87.429, 140.738 93.322, 127.723 94.690 L 121.500 95.345 124.979 96.769 C 127.652 97.863, 132.286 98.105, 144.979 97.816 C 159.289 97.490, 162.136 97.150, 166.254 95.274 C 172.625 92.372, 173.706 89.546, 171.525 81.500 C 170.630 78.200, 168.224 72.326, 166.178 68.447 L 162.457 61.394 167.214 54.947 C 172.762 47.427, 175.470 40.320, 174.585 35.600 C 173.060 27.474, 162.612 23.951, 150.807 27.583 M 57.500 93.978 C 27.504 94.483, 26.727 94.546, 33.500 95.907 C 43.935 98.004, 46.008 100.483, 49.390 114.906 C 53.406 132.034, 55.576 134.615, 65.283 133.810 C 68.922 133.508, 73.727 131.927, 79.856 129.014 L 89 124.668 83.786 122.584 C 77.554 120.093, 75.406 116.982, 76.370 111.842 C 77.545 105.578, 87.544 97.626, 97 95.435 L 100.500 94.625 97.500 93.931 C 95.850 93.549, 93.150 93.286, 91.500 93.347 C 89.850 93.407, 74.550 93.691, 57.500 93.978 M 130.504 117.549 C 124.774 119.120, 117.999 122.021, 118.003 122.902 C 118.004 123.231, 120.110 124.625, 122.682 126 C 136.739 133.515, 137.232 147.540, 123.716 155.411 C 120.008 157.570, 112.297 160.059, 101.038 162.731 L 97.576 163.553 105.538 169.379 C 128.852 186.438, 140.310 185.820, 148.808 167.046 C 150.188 163.996, 152.628 159.572, 154.230 157.217 C 158.049 151.600, 160.699 145.503, 162.040 139.251 C 165.603 122.635, 150.318 112.116, 130.504 117.549" stroke="none" fill="black" fill-rule="evenodd"/>
</svg>