<svg xmlns="http://www.w3.org/2000/svg" width="200" height="200" viewBox="0 0 200 200" version="1.1">
	<path d="M 76.342 14.551 C 75.545 16.629, 78.890 20.056, 88 26.490 C 92.125 29.403, 96.349 32.726, 97.386 33.873 C 99.541 36.256, 99.996 35.989, 89.591 38.461 C 82.135 40.232, 82.476 40.352, 79.529 34.927 C 77.162 30.569, 75.412 29.598, 72.985 31.298 C 71.202 32.547, 70.233 32.574, 66.579 31.474 C 52.526 27.244, 31.717 30.113, 23.935 37.352 L 21.370 39.738 15.257 36.964 C 9.589 34.391, 8 34.194, 8 36.067 C 8 36.471, 13.062 39.758, 19.250 43.374 C 25.437 46.989, 31.801 50.819, 33.390 51.885 L 36.281 53.824 31.283 56.357 C 24.091 60.001, 19.834 63.841, 20.198 66.358 C 21.248 73.633, 42.926 71.917, 46.201 64.299 C 46.863 62.760, 47.500 61.352, 47.615 61.170 C 47.731 60.989, 50.678 62.654, 54.163 64.870 C 61.753 69.696, 63.149 69.098, 60.632 62.097 C 59.662 59.399, 59.010 55.461, 59.184 53.346 C 59.494 49.572, 59.622 49.459, 66 47.323 C 69.575 46.126, 74.412 45.113, 76.750 45.073 L 81 45 81 50.040 C 81 56.447, 78.402 61.596, 72.586 66.715 C 62.087 75.957, 44.589 82.443, 27.250 83.520 C 18.983 84.033, 16 84.567, 16 85.532 C 16 86.581, 20.371 86.810, 37.750 86.672 C 56.327 86.525, 60.047 86.748, 63.250 88.199 C 68.166 90.426, 68.053 92.570, 62.750 97.676 C 57.504 102.728, 34.610 119, 32.748 119 C 29.061 119, 18.775 123.413, 17.333 125.614 C 13.946 130.783, 18.262 135.300, 37.064 146.268 C 42.324 149.336, 47.190 152.524, 47.878 153.353 C 49.855 155.735, 46.338 156.966, 35.518 157.676 C 30.283 158.020, 26 158.524, 26 158.796 C 26 161.117, 33.986 174.989, 37.308 178.440 C 46.017 187.483, 54.256 186.942, 64.513 176.653 C 74.730 166.405, 81.927 150.808, 84.225 133.938 L 85.439 125.026 90.184 122.076 C 96.591 118.094, 97.249 115.268, 93.114 109.509 C 88.617 103.247, 88.218 100.002, 91.303 94.788 C 93.959 90.299, 99.935 84.194, 106.191 79.577 L 109.882 76.853 110.466 80.676 C 110.787 82.779, 112.001 88.008, 113.163 92.295 C 117.365 107.794, 114.404 121.335, 99.455 154.998 C 87.916 180.980, 88.851 185.172, 103.725 174.144 C 122.347 160.337, 130.658 144.325, 138.535 107.081 C 142.348 89.056, 144.944 79.969, 147.967 74.074 L 149.724 70.648 150.880 77.074 C 152.750 87.477, 153.380 110.443, 152.113 122 C 150.656 135.278, 148.506 143.970, 144.901 151.160 C 141.221 158.497, 137.050 161.524, 130.750 161.427 C 128.137 161.387, 126 161.720, 126 162.166 C 126 162.613, 127.213 166.008, 128.695 169.711 C 133.624 182.023, 142.007 187.813, 151.003 185.117 C 165.859 180.666, 181.390 152.013, 179.635 132.292 C 179.121 126.505, 176.253 118.893, 174.083 117.551 C 173.538 117.214, 174.386 113.275, 176.088 108.240 C 184.193 84.262, 183.649 69.513, 174.342 60.857 C 170.745 57.513, 163.456 53.905, 154.550 51.063 C 150.727 49.842, 146.288 48.166, 144.685 47.337 C 142.734 46.328, 141.438 46.162, 140.766 46.834 C 139.514 48.086, 144.810 50.850, 154.500 54.001 C 173.399 60.148, 178.934 66.171, 178.978 80.641 C 179 87.926, 175.877 102.136, 172.190 111.522 L 170.296 116.344 173.298 121.173 C 182.473 135.931, 172.385 168.524, 155.054 180.118 C 151.167 182.718, 149.798 183.100, 145.703 182.724 C 139.830 182.186, 136.056 178.926, 132.429 171.258 C 129.644 165.371, 129.882 164, 133.691 164 C 142.719 164, 150.843 150.253, 154.080 129.500 C 155.910 117.769, 155.654 88.566, 153.622 77.122 C 151.284 63.962, 150.886 63.531, 147.107 70.082 C 142.912 77.353, 139.918 87.096, 135.505 107.833 C 129.884 134.249, 125.651 145.477, 116.766 157.537 C 111.629 164.509, 97.331 177, 94.487 177 C 93.184 177, 95.126 171.583, 102.194 155.500 C 111.218 134.968, 114.507 125.996, 116.440 116.637 C 118.563 106.361, 118.402 100.451, 115.779 92.355 C 112.669 82.752, 112.719 67.113, 115.919 49 C 117.230 41.575, 118.435 35.338, 118.595 35.140 C 118.865 34.806, 121.858 34.146, 137.250 31.024 C 141.169 30.230, 143 29.382, 143 28.362 C 143 27.412, 142.360 27.049, 141.250 27.367 C 140.287 27.643, 135.675 28.603, 131 29.500 C 126.325 30.397, 121.713 31.357, 120.750 31.633 C 119.352 32.034, 119 31.512, 119 29.035 C 119 27.331, 118.367 24.422, 117.594 22.571 C 116.063 18.906, 117.557 19.446, 96.500 14.952 C 85.218 12.544, 77.174 12.384, 76.342 14.551 M 79 15.778 C 79 16.273, 82.711 19.338, 87.246 22.589 C 91.781 25.840, 97.180 30.014, 99.243 31.864 L 102.994 35.228 109.497 34.001 L 116 32.774 116 28.578 C 116 23.557, 114.531 21.445, 110.500 20.671 C 108.850 20.353, 103.225 19.215, 98 18.141 C 84.905 15.448, 79 14.714, 79 15.778 M 43 32.690 C 38.250 33.485, 28.492 37.051, 26.157 38.847 L 23.815 40.648 26.572 42.455 C 33.179 46.784, 67 40.466, 67 34.903 C 67 32.884, 50.780 31.389, 43 32.690 M 74 34.393 C 74 34.609, 74.698 35.054, 75.552 35.382 C 76.442 35.723, 76.843 35.555, 76.493 34.989 C 75.906 34.038, 74 33.583, 74 34.393 M 67.579 38.347 L 64.658 40.684 70.500 41.371 C 77.795 42.228, 79.544 40.911, 74.884 38.070 C 70.727 35.536, 71.111 35.521, 67.579 38.347 M 108.698 36.721 C 106.917 36.989, 105.574 37.991, 105.011 39.471 C 104.524 40.751, 103.198 42.449, 102.063 43.244 C 100 44.688, 100 44.690, 101.999 46.500 C 106.763 50.810, 103.806 57.949, 92.208 70.136 C 84.353 78.390, 83.960 79, 86.498 79 C 87.997 79, 93.876 77.794, 99.562 76.321 L 109.901 73.641 110.486 68.071 C 110.808 65.007, 111.955 57.211, 113.036 50.747 C 115.768 34.399, 116.140 35.601, 108.698 36.721 M 95.500 39.713 C 94.400 39.978, 93.073 40.600, 92.550 41.097 C 90.923 42.644, 98.471 42.111, 100.559 40.532 C 102.430 39.116, 102.410 39.067, 100 39.148 C 98.625 39.194, 96.600 39.448, 95.500 39.713 M 48.500 45.152 C 43 46.099, 37.668 47.015, 36.650 47.187 C 35.100 47.449, 35.308 47.874, 37.930 49.802 L 41.060 52.104 49.498 49.356 C 54.139 47.845, 58.186 45.957, 58.492 45.161 C 58.797 44.365, 58.924 43.650, 58.774 43.573 C 58.623 43.495, 54 44.206, 48.500 45.152 M 62.500 44 C 62.160 44.550, 62.835 45, 64 45 C 65.165 45, 65.840 44.550, 65.500 44 C 65.160 43.450, 64.485 43, 64 43 C 63.515 43, 62.840 43.450, 62.500 44 M 83.978 49.750 C 83.922 61.807, 75 71.426, 56.355 79.532 L 48.710 82.855 52.605 83.451 C 66.332 85.550, 70 87.280, 70 91.652 C 70 95.308, 64.245 100.822, 49.318 111.466 C 38.119 119.451, 34.429 121.544, 29.531 122.687 C 13.956 126.320, 15.366 130.256, 36.753 142.860 C 43.492 146.831, 49.751 151.216, 50.661 152.605 C 52.222 154.988, 52.204 155.240, 50.337 157.108 C 48.853 158.591, 46.157 159.313, 39.562 159.994 C 34.724 160.493, 30.620 161.047, 30.442 161.225 C 29.822 161.845, 33.779 169.531, 36.908 173.783 C 44.588 184.218, 53.568 184.600, 62.988 174.893 C 72.294 165.303, 80.732 145.568, 81.744 131.024 L 82.267 123.500 87.374 120.500 C 90.183 118.850, 92.630 116.718, 92.812 115.762 C 92.993 114.807, 91.699 112.015, 89.935 109.558 C 84.072 101.395, 86.455 93.102, 97.491 83.266 L 103.002 78.354 95.751 80.209 C 86.998 82.449, 81.662 82.266, 81.177 79.711 C 80.960 78.562, 83.672 74.981, 88.751 69.711 C 98.544 59.549, 101 56.032, 101 52.168 C 101 47.501, 97.114 45, 89.865 45 L 84 45 83.978 49.750 M 49.750 52.162 C 46.587 53.265, 44.020 54.467, 44.044 54.833 C 44.090 55.534, 57.301 64.032, 57.710 63.624 C 57.840 63.494, 57.467 61.655, 56.882 59.537 C 56.298 57.418, 56.007 54.406, 56.236 52.843 C 56.466 51.279, 56.394 50.036, 56.077 50.079 C 55.760 50.122, 52.913 51.060, 49.750 52.162 M 32.500 58.860 C 26.078 61.919, 22.394 65.211, 23.461 66.937 C 24.660 68.877, 37.147 68.208, 40.750 66.011 C 44.478 63.738, 45.067 60.275, 42.171 57.655 C 39.774 55.485, 39.517 55.517, 32.500 58.860" stroke="none" fill="black" fill-rule="evenodd"/>
</svg>