<svg xmlns="http://www.w3.org/2000/svg" width="200" height="200" viewBox="0 0 200 200" version="1.1">
	<path d="M 148.668 14.814 C 145.369 18.460, 124.102 20.681, 81.315 21.849 C 67.463 22.227, 55.780 22.886, 55.353 23.314 C 54.925 23.741, 55.125 24.970, 55.796 26.045 C 56.964 27.915, 56.713 28, 50.058 28 C 31.912 28, 24.472 33.070, 17.709 50.043 C 15.258 56.195, 15.167 57.020, 16.182 63.859 C 17.004 69.401, 16.877 78.320, 15.648 101.316 C 13.969 132.720, 14.306 141.824, 17.370 147.748 C 20.327 153.467, 26.259 153.204, 33.196 147.048 L 37.496 143.232 41.860 146.366 C 56.251 156.701, 67.131 142.416, 71.081 108 C 71.871 101.118, 72.077 90.436, 71.679 77 C 71.346 65.725, 71.402 55.967, 71.805 55.315 C 72.523 54.154, 75.809 53.624, 89.114 52.521 L 95.728 51.972 92.364 60.351 C 90.513 64.959, 88.550 71.102, 88 74.001 C 86.908 79.757, 86.633 95.300, 87.606 96.273 C 87.939 96.606, 90.527 95.039, 93.356 92.790 C 99.351 88.025, 106.346 84.720, 113.799 83.130 C 127.163 80.280, 143.495 83.358, 149.348 89.831 C 151.524 92.236, 151.002 93.398, 146.687 95.755 C 143.920 97.266, 139.480 97.562, 113 97.998 C 95.206 98.291, 82.586 98.884, 82.707 99.421 C 82.821 99.928, 85.832 101.077, 89.398 101.974 C 101.541 105.031, 111.129 114.011, 112.580 123.686 C 113.559 130.212, 112.531 141.958, 110.627 146 C 109.721 147.925, 109.156 148.527, 109.373 147.339 C 109.589 146.150, 109.394 141.480, 108.938 136.961 C 107.506 122.753, 101.299 113.890, 93.829 115.384 C 83.670 117.416, 75.135 132.595, 71.553 155 C 70.630 160.775, 69.226 167.525, 68.433 170 C 67.639 172.475, 66.992 175.963, 66.995 177.750 C 67.003 182.988, 69.410 182.251, 84.566 172.371 C 102.062 160.967, 112.987 160.095, 120.728 169.487 C 124.522 174.089, 127.693 182.172, 129.237 191.176 C 129.881 194.929, 130.898 198, 131.497 198 C 133.207 198, 154.636 189.240, 163.616 184.870 C 168.080 182.698, 173.617 179.308, 175.920 177.336 C 179.413 174.347, 180.058 173.235, 179.804 170.638 C 179.409 166.594, 175.224 164.303, 160.431 160.038 C 145.681 155.785, 141.598 153.470, 141.179 149.122 C 140.907 146.298, 141.522 145.157, 145.232 141.603 C 149.472 137.540, 149.899 137.377, 159.217 136.287 C 169.930 135.033, 173 133.853, 173 130.985 C 173 128.672, 169.709 126.877, 154.826 121.072 C 143.845 116.788, 139 113.861, 139 111.510 C 139 109.029, 157.084 104, 166.006 104 C 168.138 104, 170.104 103.641, 170.375 103.202 C 171.002 102.188, 169.562 99.803, 168.388 99.910 C 167.887 99.956, 167.500 85.931, 167.500 67.746 C 167.500 36.364, 167.438 35.339, 165.171 29.500 C 163.889 26.200, 162.317 22.038, 161.676 20.250 C 161.035 18.462, 160.058 16.990, 159.505 16.978 C 158.952 16.966, 157.375 16.076, 156 15 C 152.865 12.548, 150.768 12.494, 148.668 14.814 M 148 20.704 C 147.175 21.004, 145.289 22.377, 143.809 23.755 C 141.377 26.020, 141.268 26.410, 142.670 27.813 C 143.832 28.975, 144.066 30.504, 143.600 33.899 C 142.774 39.927, 139.097 45.248, 134.025 47.758 L 129.887 49.805 134.193 50.522 C 143.485 52.070, 150 56.443, 150 61.132 C 150 65.850, 133.443 77.843, 126.616 78.070 C 125.452 78.109, 128.343 78.952, 133.040 79.943 C 146.731 82.832, 153.455 87.155, 152.825 92.662 C 152.564 94.938, 151.510 95.995, 147.500 98 C 142.840 100.330, 141.411 100.510, 126.500 100.645 C 117.700 100.725, 107.350 100.839, 103.500 100.899 L 96.500 101.007 100 103.100 C 116.634 113.044, 120.381 130.388, 110.927 153.680 C 109.706 156.689, 108.134 159, 107.309 159 C 106.091 159, 105.959 157.553, 106.509 150.250 C 107.271 140.141, 105.848 129.582, 102.960 123.921 C 99.512 117.163, 94.206 116.124, 88.541 121.098 C 81.892 126.936, 75.065 144.635, 73.463 160.189 C 73.105 163.660, 71.955 168.879, 70.906 171.788 C 69.858 174.696, 69 177.283, 69 177.538 C 69 178.750, 71.442 177.474, 81.562 170.976 C 110.912 152.129, 125.203 158.082, 132.431 192.168 L 132.997 194.835 144.248 190.324 C 159.406 184.246, 172.016 177.639, 175.572 173.913 L 178.500 170.843 176.230 168.996 C 173.950 167.139, 171.670 166.303, 156 161.577 C 136.524 155.703, 133.203 149.445, 144.046 139.049 C 148.947 134.350, 149.101 134.287, 157.252 133.641 C 166.400 132.915, 170 132.163, 170 130.977 C 170 130.542, 166.512 128.774, 162.250 127.048 C 143.851 119.598, 141.429 118.461, 138.639 115.969 C 131.689 109.759, 138.406 105.442, 161 101.600 L 164.500 101.005 164.558 91.752 C 164.590 86.664, 164.781 73.275, 164.982 62 C 165.379 39.804, 164.299 31.863, 159.795 23.850 C 157.822 20.339, 157.274 20.007, 153.566 20.079 C 151.330 20.122, 148.825 20.404, 148 20.704 M 135 22.364 C 133.075 23.066, 129.700 24.633, 127.500 25.847 L 123.500 28.052 130 27.435 C 135.365 26.926, 137.021 26.310, 139.481 23.909 C 142.091 21.361, 142.215 21.005, 140.481 21.044 C 139.391 21.068, 136.925 21.662, 135 22.364 M 116.500 23.058 C 111.550 23.466, 96.817 24.141, 83.760 24.559 C 64.088 25.189, 60.211 25.549, 61.133 26.660 C 62.014 27.721, 68.039 28, 90.125 28 L 118.006 28 122.753 25.019 C 125.364 23.379, 127.050 22.101, 126.500 22.177 C 125.950 22.254, 121.450 22.650, 116.500 23.058 M 43.500 31.047 C 40.200 31.484, 36.350 32.282, 34.944 32.822 C 30.605 34.487, 26.019 39.029, 23.343 44.309 C 18.674 53.523, 18.159 55.959, 19.061 64.554 C 19.604 69.723, 19.355 81.936, 18.349 99.500 C 15.823 143.590, 17.653 152.901, 27.800 147.585 C 29.285 146.807, 32.051 144.557, 33.946 142.586 L 37.391 139.001 39.946 141.347 C 51.569 152.024, 59.375 147.487, 64.937 126.823 C 68.354 114.129, 69.189 103.717, 68.836 78.205 C 68.508 54.496, 68.452 53.922, 66.500 54.401 C 65.400 54.671, 61.058 55.199, 56.851 55.575 C 52.643 55.950, 48.644 56.602, 47.964 57.022 C 45.532 58.525, 45.689 67.171, 48.345 78.036 C 51.913 92.627, 52.469 100.011, 50.649 108.668 C 48.776 117.577, 45.038 125.340, 39.855 131.087 L 35.875 135.500 36.424 131.409 C 36.726 129.159, 38.345 113.952, 40.021 97.616 C 42.367 74.764, 42.833 67.059, 42.041 64.207 C 40.576 58.932, 40.758 50.515, 42.423 46.530 C 44.290 42.061, 50.814 37.436, 58.157 35.376 C 63.814 33.789, 63.988 33.644, 62.374 31.860 C 60.524 29.816, 54.704 29.565, 43.500 31.047 M 65.529 31.214 C 66.009 32.467, 69.477 32.626, 88.797 32.283 C 118.316 31.758, 120.052 31.262, 92.875 31.116 C 80.981 31.052, 69.836 30.717, 68.107 30.371 C 65.595 29.869, 65.077 30.038, 65.529 31.214 M 121.500 30.895 C 118.456 31.360, 117.938 31.685, 119.332 32.253 C 122.600 33.585, 130.667 33.106, 132 31.500 C 133.073 30.208, 132.709 30.020, 129.372 30.142 C 127.243 30.220, 123.700 30.559, 121.500 30.895 M 136.500 31 C 135.769 32.183, 136.748 32.183, 139.500 31 C 141.428 30.171, 141.421 30.138, 139.309 30.070 C 138.104 30.032, 136.840 30.450, 136.500 31 M 82.314 34.903 C 75.612 35.253, 69.911 35.756, 69.646 36.021 C 69.381 36.286, 69.802 38.963, 70.582 41.969 C 71.362 44.976, 72 48.265, 72 49.278 C 72 50.984, 72.725 51.076, 81.750 50.513 C 97.568 49.528, 96.937 49.778, 103.295 41.994 L 109.009 35 104.629 35 C 102.221 35, 98.956 34.835, 97.375 34.634 C 95.794 34.432, 89.016 34.553, 82.314 34.903 M 134.082 35.957 C 131.651 36.920, 127.826 39.686, 125.582 42.104 L 121.500 46.500 125.225 46.809 C 131.816 47.355, 138.409 42.778, 140.436 36.250 C 141.276 33.545, 140.287 33.500, 134.082 35.957 M 107.584 41.170 C 104.513 44.564, 102 47.714, 102 48.170 C 102 49.203, 116.969 49.282, 117.083 48.250 C 117.129 47.837, 117.279 46.484, 117.417 45.242 C 117.711 42.590, 121.473 38.302, 124.290 37.408 C 127.549 36.374, 124.210 35.033, 118.334 35.015 C 113.267 35, 113.060 35.119, 107.584 41.170 M 57.224 38.469 C 49.244 40.961, 48 42.332, 48 48.631 C 48 53.917, 48.121 54.188, 50.250 53.676 C 51.487 53.379, 56.268 52.817, 60.873 52.428 L 69.245 51.720 68.696 47.110 C 67.473 36.833, 66.004 35.727, 57.224 38.469 M 44.158 50 C 44.158 51.375, 44.385 51.938, 44.662 51.250 C 44.940 50.563, 44.940 49.438, 44.662 48.750 C 44.385 48.063, 44.158 48.625, 44.158 50 M 96.131 58.378 C 91.941 67.246, 90 75.481, 90 84.388 L 90 91.987 94.466 88.578 C 98.236 85.700, 102.177 83.861, 111.930 80.428 C 112.881 80.093, 112.231 79.351, 109.990 78.212 C 103.596 74.964, 103.716 68.835, 110.393 57.748 L 113.854 52 106.499 52 L 99.145 52 96.131 58.378 M 115.177 54.942 C 111.771 59.597, 108.021 68.099, 108.010 71.193 C 107.989 77.017, 115.713 78.569, 127.145 75.036 C 137.062 71.971, 147 64.929, 147 60.966 C 147 56.702, 138.669 53.363, 125.563 52.375 L 117.500 51.767 115.177 54.942 M 44.663 81 C 43.537 87.439, 39.937 125.271, 40.406 125.740 C 41.393 126.726, 46.879 114.101, 48.050 108.151 C 49.413 101.222, 48.824 90.545, 46.636 82.500 L 45.276 77.500 44.663 81" stroke="none" fill="black" fill-rule="evenodd"/>
</svg>