<svg xmlns="http://www.w3.org/2000/svg" width="200" height="200" viewBox="0 0 200 200" version="1.1">
	<path d="M 90.081 20.561 C 88.361 22.519, 84.295 29.427, 81.044 35.913 L 75.133 47.704 69.194 46.157 L 63.255 44.609 62.587 36.597 C 62.219 32.191, 61.776 28.443, 61.602 28.269 C 61.428 28.094, 57.959 27.246, 53.893 26.384 C 35.618 22.509, 23.523 27.968, 18.066 42.553 C 15.001 50.746, 14.345 62.285, 14.463 106 C 14.575 147.710, 14.680 148.561, 20.217 152.439 C 23.753 154.916, 26.022 154.374, 38.888 147.975 C 45.551 144.661, 52.349 141.680, 53.995 141.351 C 57.696 140.611, 62.424 142.471, 64.364 145.432 C 65.704 147.478, 65.500 148.382, 61.887 156.379 C 54.515 172.700, 53.813 180, 59.615 180 C 64.748 180, 79.036 162.785, 86.999 147.004 C 91.553 137.979, 93.967 130.767, 95.368 122 L 96.566 114.500 106.213 108.643 C 111.518 105.422, 116.364 102.955, 116.980 103.160 C 117.634 103.378, 116.349 106.234, 113.896 110.017 C 103.666 125.789, 104.156 131.694, 115.516 129.563 L 119.018 128.906 116.462 135.703 C 112.624 145.906, 105.590 157.649, 93.307 174.360 C 88.820 180.464, 87.984 183, 90.457 183 C 91.636 183, 120.581 161.120, 132.338 151.341 L 135.177 148.980 139.717 154.030 C 148.150 163.409, 169.533 175.544, 174.362 173.691 C 177.014 172.674, 176.316 167.739, 172.835 162.900 C 171.094 160.480, 166.850 155.441, 163.404 151.703 C 159.958 147.965, 156.847 143.579, 156.490 141.956 C 155.465 137.287, 157.869 131.989, 163.864 125.704 C 168.363 120.987, 169.222 119.562, 168.393 118.192 C 166.872 115.677, 160.421 112.847, 148.575 109.497 C 142.759 107.853, 138.004 106.281, 138.009 106.004 C 138.015 105.727, 142.713 102.856, 148.451 99.624 C 159.547 93.375, 166 88.236, 166 85.650 C 166 82.409, 161.914 81.548, 145.500 81.327 C 126.394 81.071, 123 80.586, 123 78.110 C 123 77.120, 123.900 75.495, 125 74.500 C 127.763 71.999, 127.551 71.338, 123.250 69.068 L 119.500 67.088 122.500 66.976 C 124.150 66.914, 135.175 66.501, 147 66.058 C 163.822 65.428, 169.697 64.845, 174 63.377 C 177.025 62.344, 179.369 61.050, 179.209 60.500 C 178.840 59.233, 177.777 59.309, 165 61.520 C 153.805 63.456, 147.340 63.049, 146.300 60.341 C 145.971 59.482, 147.767 54.714, 150.330 49.646 C 156.512 37.418, 156.836 35.745, 153.641 32.550 C 151.271 30.180, 150.430 30, 141.740 30 C 133.248 30, 132.072 29.763, 128.944 27.422 C 120.314 20.964, 112.766 19.092, 109.021 22.481 C 107.264 24.071, 106.872 23.967, 101.845 20.581 C 98.920 18.612, 95.780 17, 94.867 17 C 93.954 17, 91.800 18.602, 90.081 20.561 M 91.514 23.165 C 89.336 25.754, 78 46.912, 78 48.389 C 78 48.622, 79.912 49.480, 82.250 50.297 C 84.588 51.114, 90.213 53.390, 94.750 55.353 C 100.595 57.883, 103 58.530, 103 57.570 C 103 56.826, 101.948 55.953, 100.662 55.630 C 96.228 54.517, 93 51.111, 93 47.544 C 93 44.306, 95.133 41.798, 102.813 36 C 103.962 35.132, 105.036 32.814, 105.360 30.500 C 105.906 26.602, 105.794 26.417, 100.972 23.250 C 98.250 21.462, 95.608 20, 95.101 20 C 94.593 20, 92.979 21.424, 91.514 23.165 M 111.111 24.367 C 110.212 25.450, 111.622 27.379, 117.904 33.662 C 124.060 39.817, 125.991 42.436, 126.542 45.372 C 127.994 53.111, 123.191 57.125, 112.404 57.188 C 107.075 57.218, 106 57.508, 106 58.913 C 106 59.922, 107.710 61.399, 110.250 62.583 C 114.034 64.346, 116.166 64.523, 129.684 64.192 C 144.734 63.822, 144.862 63.800, 144.073 61.669 C 143.018 58.817, 143.976 55.794, 148.894 46.460 C 155.441 34.033, 154.473 32.392, 140.775 32.701 C 132.079 32.896, 131.753 32.819, 127.076 29.459 C 122.110 25.892, 116.102 23, 113.655 23 C 112.879 23, 111.734 23.615, 111.111 24.367 M 33 29.528 C 28.691 31.476, 24.333 35.521, 22.255 39.500 C 18.073 47.510, 17.788 50.901, 17.474 96.500 C 17.173 140.309, 17.531 146.388, 20.598 149.455 C 23.154 152.011, 26.198 151.276, 38.626 145.098 C 52.669 138.118, 56.181 137.288, 61.086 139.789 L 64.610 141.586 64.179 118.878 C 63.721 94.742, 64.268 86.367, 66.497 83.362 C 70.549 77.898, 73.957 91.695, 73.983 113.662 C 74.005 132.846, 72.512 140.776, 66.594 152.924 C 60.830 164.757, 57.227 175.627, 58.612 177.012 C 61.245 179.645, 76.017 162.240, 83.690 147.464 C 92.126 131.217, 94.237 120.194, 91.393 107.253 C 89.214 97.337, 89.771 83.899, 92.585 78.500 C 93.732 76.300, 96.517 73.150, 98.774 71.500 C 102.057 69.100, 102.890 67.860, 102.939 65.297 C 102.994 62.421, 102.514 61.875, 98.250 59.957 C 90.747 56.583, 76.707 50.950, 76.519 51.238 C 76.424 51.382, 75.296 53.300, 74.012 55.500 C 67.022 67.472, 62.741 67.002, 60.735 54.042 C 59.677 47.207, 59.560 47, 56.773 47 C 55.193 47, 52.628 47.658, 51.073 48.462 L 48.245 49.925 47.738 80.712 C 47.191 113.930, 46.319 120.500, 42.456 120.500 C 41.114 120.500, 39.746 118.978, 38.098 115.655 L 35.696 110.810 37.343 102.155 C 38.248 97.395, 39.452 86.086, 40.017 77.025 C 40.997 61.303, 42.190 53.730, 44.041 51.465 C 44.507 50.896, 45.025 47.782, 45.194 44.544 C 45.578 37.156, 48 35.425, 48 42.539 C 48 46.378, 48.249 47.038, 49.351 46.124 C 50.094 45.507, 52.794 44.716, 55.351 44.365 L 60 43.728 60 37.339 C 60 31.300, 59.849 30.891, 57.250 29.861 C 52.411 27.944, 36.972 27.732, 33 29.528 M 107.636 32.750 C 107.338 34.813, 106.810 40.419, 106.461 45.209 L 105.827 53.919 108.461 54.580 C 111.877 55.437, 118.885 54.301, 121.750 52.426 C 125.098 50.235, 124.690 45.445, 120.725 40.384 C 117.587 36.379, 109.803 29, 108.717 29 C 108.419 29, 107.933 30.688, 107.636 32.750 M 99.186 42.696 C 95.412 46.368, 95.013 47.156, 95.998 48.996 C 97.461 51.729, 101.686 53.714, 103.079 52.321 C 103.642 51.758, 103.967 48.418, 103.802 44.898 L 103.500 38.500 99.186 42.696 M 63.006 50.750 C 63.014 55.129, 65.010 61.161, 66.314 60.751 C 66.966 60.545, 68.995 58.168, 70.822 55.468 L 74.144 50.559 70.822 49.355 C 65.030 47.258, 62.999 47.620, 63.006 50.750 M 43.732 65 C 43.360 69.125, 42.794 76.775, 42.476 82 C 42.158 87.225, 41.201 95.797, 40.351 101.048 C 38.915 109.911, 38.927 110.879, 40.521 114.548 L 42.237 118.500 43.235 115.500 C 43.784 113.850, 44.450 101.475, 44.716 88 C 45.233 61.745, 44.846 52.676, 43.732 65 M 106 65.500 C 106 67.183, 106.863 67.373, 108.834 66.124 C 109.898 65.449, 109.831 65.149, 108.502 64.639 C 106.175 63.746, 106 63.807, 106 65.500 M 108.250 69.491 C 105.403 70.728, 105 71.375, 104.996 74.702 C 104.990 79.981, 102.416 95.166, 100.156 103.250 C 99.118 106.963, 98.361 110, 98.475 110 C 98.588 110, 102.424 107.750, 107 105 C 121.677 96.179, 123.950 98.481, 115.112 113.217 C 111.750 118.822, 109 124.274, 109 125.331 C 109 127.037, 109.538 127.192, 113.750 126.701 C 116.362 126.397, 119.503 125.840, 120.729 125.463 L 122.958 124.778 121.387 130.139 C 118.665 139.425, 112.640 151.063, 103.692 164.319 C 95.924 175.827, 95.420 176.841, 98.769 174.236 C 123.315 155.143, 132.001 148.248, 134.684 145.727 C 136.791 143.747, 138.444 142.956, 139.570 143.389 C 141.168 144.002, 141.166 144.159, 139.538 145.958 C 137.871 147.800, 137.988 148.073, 142.523 152.921 C 151.552 162.574, 174 174.861, 174 170.150 C 174 168.721, 168.049 160.904, 160.844 152.868 C 154.296 145.565, 154 145.017, 154 140.183 C 154 133.328, 155.142 130.788, 161.013 124.580 C 164.817 120.557, 165.726 119.035, 164.766 118.294 C 162.662 116.669, 156.109 114.393, 144 111.080 C 137.675 109.350, 131.840 107.701, 131.033 107.415 C 130.162 107.107, 134.514 104.172, 141.735 100.198 C 154.826 92.993, 163 87.588, 163 86.137 C 163 84.483, 158.638 84.028, 142.500 83.999 C 126.055 83.970, 122.841 83.343, 120.598 79.731 C 119.757 78.376, 119.900 77.262, 121.205 74.978 L 122.910 71.995 118.995 69.997 C 114.412 67.659, 112.655 67.576, 108.250 69.491 M 98.801 74.750 C 95.288 78.505, 93.388 82.615, 92.572 88.228 C 91.844 93.232, 93.691 109, 95.005 109 C 96.677 109, 100.996 89.171, 102.249 75.750 C 102.666 71.273, 102.185 71.133, 98.801 74.750 M 67.588 87.851 C 66.535 90.998, 66.747 135.695, 67.834 139.500 C 69.440 145.126, 71.435 129.171, 71.272 112 C 71.118 95.762, 69.184 83.084, 67.588 87.851" stroke="none" fill="black" fill-rule="evenodd"/>
</svg>