<svg xmlns="http://www.w3.org/2000/svg" width="200" height="200" viewBox="0 0 200 200" version="1.1">
	<path d="M 88.347 10.025 C 74.574 12.512, 65.807 18.428, 62.452 27.500 C 59.723 34.879, 57.107 36.042, 54.515 31.029 C 50.720 23.689, 43.915 21.838, 36.972 26.255 C 24.805 33.996, 21.255 38.232, 17.911 49 C 11.100 70.932, 11.152 116.102, 18.013 138.303 C 20.124 145.132, 25.131 153.729, 27.534 154.652 C 29.756 155.504, 31.665 153.436, 42.078 138.891 C 47.204 131.731, 53.160 124.281, 55.313 122.336 C 58.760 119.222, 59.404 118.975, 60.700 120.271 C 63.015 122.587, 63.397 135.815, 61.610 151.828 L 60.011 166.156 62.886 170.328 C 69.748 180.286, 73.782 182.372, 78.009 178.145 C 81.287 174.867, 82.733 168.920, 83.648 154.957 L 84.301 144.989 86.510 150.423 C 93.775 168.297, 113.225 176.883, 134.162 171.458 L 140.113 169.916 145.152 174.446 C 154.853 183.169, 162.364 182.862, 166.570 173.572 C 170.101 165.775, 171 155.460, 171 122.760 C 171 88.912, 171.836 80.984, 175.789 77.320 C 177.177 76.033, 178.032 74.698, 177.687 74.354 C 177.343 74.009, 172.804 75.139, 167.602 76.864 C 160.328 79.276, 156.386 80, 150.532 80 C 134.403 80, 128.605 72.766, 125.495 48.762 C 125.157 46.156, 124.265 43.408, 123.513 42.656 C 122.760 41.903, 121.837 39.648, 121.461 37.644 L 120.777 34 133.282 34 C 143.927 34, 145.879 34.243, 146.413 35.633 C 147.841 39.355, 163.617 34.331, 165.843 29.445 C 167.489 25.832, 165.292 21.191, 159.921 16.937 C 156.044 13.867, 154.359 13.315, 144.042 11.736 C 130.705 9.694, 96.069 8.630, 88.347 10.025 M 92 13.227 C 92 16.909, 95.576 30.284, 96.673 30.705 C 97.380 30.976, 99.993 29.165, 102.479 26.679 C 109.860 19.298, 116.396 19.609, 118.988 27.465 L 120.155 31 136.028 31 C 148.211 31, 152.086 31.311, 152.700 32.337 C 154.441 35.248, 164 30.132, 164 26.290 C 164 25.392, 162.038 22.777, 159.639 20.479 C 154.879 15.917, 154.888 15.920, 135.038 13.435 C 120.425 11.606, 92 11.468, 92 13.227 M 80.727 14.953 C 73.298 17.327, 68.261 21.214, 65.913 26.384 C 63.223 32.308, 63.411 33.182, 67.250 32.586 C 69.037 32.308, 73.453 31.811, 77.062 31.481 L 83.624 30.881 85.640 21.941 C 86.749 17.023, 87.397 13.024, 87.078 13.054 C 86.760 13.083, 83.902 13.938, 80.727 14.953 M 88.219 22.871 C 86.459 30.498, 86.570 31, 90.019 31 C 93.337 31, 93.324 31.224, 90.565 21.545 L 89.438 17.590 88.219 22.871 M 106.250 26.584 C 104.463 27.992, 103 29.562, 103 30.072 C 103 30.583, 106.180 31, 110.067 31 C 116.934 31, 117.115 30.936, 116.445 28.750 C 114.769 23.283, 111.357 22.558, 106.250 26.584 M 41.689 27.016 C 38.490 27.976, 31.051 33.150, 26.905 37.298 C 18.630 45.576, 13.498 77.796, 15.848 106.707 C 17.615 128.444, 21.145 143.100, 26.143 149.455 C 27.756 151.505, 28.503 151.827, 29.577 150.936 C 30.333 150.309, 35.199 143.847, 40.392 136.575 C 45.584 129.303, 51.461 121.924, 53.451 120.177 C 57.277 116.818, 61.008 116.100, 62.886 118.363 C 66.143 122.287, 66.365 139.275, 63.443 161 C 62.913 164.943, 63.236 166.096, 66.058 170.318 C 69.749 175.840, 72.997 178.322, 75.351 177.419 C 76.249 177.074, 77.748 174.476, 78.682 171.646 C 80.140 167.227, 80.459 160.095, 80.940 121.137 L 81.500 75.773 86.209 71.511 C 88.799 69.168, 92.734 66.351, 94.954 65.253 L 98.991 63.255 85.041 57.158 C 77.368 53.805, 69.979 50.782, 68.621 50.441 L 66.151 49.821 69.667 60.661 L 73.183 71.500 71.088 75.500 C 69.937 77.700, 67.447 83.925, 65.557 89.334 C 60.989 102.403, 58 106.769, 56.426 102.669 C 56.145 101.937, 55.822 88.999, 55.708 73.919 L 55.500 46.500 50.226 46.197 C 45.542 45.928, 44.630 46.216, 42.069 48.777 C 38.102 52.744, 36.937 61.392, 39.485 67.953 C 47.552 88.720, 49.407 98.883, 46.997 109.109 C 44.939 117.838, 39.296 127.919, 37.194 126.620 C 36.455 126.163, 37.084 124.361, 39.078 121.217 C 46.037 110.245, 46.907 97.536, 41.750 82.178 L 38.500 72.500 37.896 90.001 C 37.314 106.879, 36.549 112.884, 35.159 111.491 C 34.796 111.128, 34.651 100.407, 34.834 87.666 C 35.115 68.227, 34.914 63.902, 33.584 60.782 C 31.585 56.090, 31.548 48.774, 33.506 44.989 C 35.233 41.649, 41.457 37.748, 48 35.906 C 50.475 35.209, 52.646 34.537, 52.824 34.413 C 53.805 33.726, 49.758 28.211, 47.528 27.195 C 46.086 26.538, 44.815 26.039, 44.703 26.086 C 44.591 26.133, 43.235 26.552, 41.689 27.016 M 98.649 34.835 C 97.098 36.549, 97.154 37.479, 99.494 48.972 C 100.872 55.739, 102 61.435, 102 61.631 C 102 61.827, 108.726 65.356, 116.946 69.473 L 131.891 76.958 128.856 72.075 C 126.195 67.795, 124.067 59.440, 122.031 45.281 C 122.014 45.161, 121.325 45.322, 120.500 45.638 C 119.344 46.082, 119 45.416, 119 42.732 C 119 40.817, 118.719 37.844, 118.375 36.125 L 117.750 33 109.030 33 C 101.841 33, 100.018 33.322, 98.649 34.835 M 70 34.913 C 64.748 35.474, 64.487 35.638, 64.201 38.556 C 63.833 42.321, 65.507 46.999, 67.225 47.003 C 67.926 47.005, 75.221 49.922, 83.435 53.485 C 91.650 57.048, 98.487 59.846, 98.629 59.704 C 98.771 59.562, 98.502 57.658, 98.031 55.473 C 97.560 53.288, 96.650 48.898, 96.009 45.717 L 94.845 39.934 90.922 44.860 C 86.675 50.194, 85.037 51.259, 83.008 50.005 C 82.026 49.398, 81.841 47.285, 82.271 41.597 L 82.846 34 79.173 34.163 C 77.153 34.253, 73.025 34.590, 70 34.913 M 85.582 36.250 C 84.326 42.447, 84.061 47, 84.956 47 C 86.170 47, 94 36.749, 94 35.159 C 94 34.474, 92.371 34, 90.019 34 C 86.692 34, 85.963 34.370, 85.582 36.250 M 57.374 37.467 C 56.495 39.759, 58.471 44.462, 60.476 44.851 C 61.938 45.134, 62.165 44.750, 61.657 42.851 C 61.311 41.558, 61.021 39.487, 61.014 38.250 C 60.998 35.715, 58.272 35.128, 57.374 37.467 M 47.730 39.002 C 44.557 39.989, 40.807 41.552, 39.397 42.476 C 35.996 44.704, 33.850 50, 34.675 54.127 L 35.326 57.379 36.635 52.890 C 38.656 45.957, 41.912 43.500, 49.077 43.500 C 55.214 43.500, 55.857 42.915, 54.180 38.855 C 53.553 37.336, 53.054 37.348, 47.730 39.002 M 58.384 73.610 C 58.319 88.542, 58.640 99.597, 59.118 98.842 C 59.586 98.104, 61.609 92.550, 63.614 86.500 C 65.619 80.450, 67.877 74.790, 68.630 73.921 C 69.384 73.053, 70 71.822, 70 71.186 C 70 70.195, 63.087 48.725, 62.655 48.374 C 62.570 48.305, 61.600 47.976, 60.500 47.642 C 58.537 47.047, 58.498 47.527, 58.384 73.610 M 96.545 67.561 C 94.928 68.400, 91.501 70.690, 88.931 72.650 C 84.443 76.073, 84.236 76.457, 83.702 82.351 C 83.396 85.726, 83.409 97.424, 83.731 108.347 L 84.316 128.206 86.035 122.651 C 88.247 115.502, 91.901 109.322, 98.553 101.481 L 103.885 95.196 101.859 91.348 C 100.123 88.051, 99.903 86.210, 100.323 78.500 C 100.593 73.550, 100.515 68.720, 100.150 67.768 C 99.541 66.178, 99.243 66.161, 96.545 67.561 M 103.381 69.250 C 105.135 78.689, 107.192 93.359, 107.663 99.794 C 107.956 103.806, 108.507 108.248, 108.886 109.665 L 109.575 112.241 112.172 108.371 C 113.600 106.242, 116.846 102.355, 119.384 99.732 C 121.923 97.110, 124 94.557, 124 94.059 C 124 92.177, 129.409 86.832, 133.347 84.823 L 137.443 82.733 120.971 74.420 C 111.912 69.847, 104.112 66.082, 103.639 66.053 C 103.165 66.024, 103.049 67.463, 103.381 69.250 M 163.500 81.038 C 160.200 82.029, 155.572 82.876, 153.216 82.920 L 148.931 83 149.716 88.250 C 150.916 96.287, 150.449 136.309, 149.029 146.990 C 147.574 157.940, 146.613 161, 144.632 161 C 142.491 161, 142.074 159.025, 140.980 143.720 C 140.427 135.977, 139.827 129.493, 139.647 129.314 C 139.467 129.134, 138.802 130.717, 138.169 132.831 C 136.542 138.260, 133.695 140.624, 130.220 139.432 C 124.421 137.444, 118.999 119.574, 120.389 107.028 L 121.001 101.500 118.932 104 C 117.793 105.375, 115.155 109.060, 113.070 112.189 C 109.510 117.531, 109.249 118.449, 108.790 127.224 C 108.291 136.760, 106.993 141, 104.572 141 C 101.420 141, 101.162 133.852, 103.987 124.839 C 106.041 118.288, 106.467 111.690, 105.360 103.611 C 104.734 99.039, 104.680 98.980, 102.742 100.722 C 99.081 104.011, 91.806 115.006, 89.802 120.275 C 81.721 141.530, 90.066 162.196, 109.230 168.385 C 115.566 170.432, 128.047 170.472, 134.794 168.469 L 139.951 166.937 145.605 171.543 C 157.022 180.842, 161.947 180.167, 165.591 168.805 C 167.011 164.377, 167.413 157.051, 168.022 124.500 C 168.442 102.046, 169.199 84.121, 169.806 82.250 C 170.386 80.463, 170.554 79.053, 170.180 79.118 C 169.806 79.183, 166.800 80.047, 163.500 81.038 M 140.825 86.899 C 133.314 91.078, 127.273 95.654, 125.318 98.642 C 123.827 100.922, 123.511 103.405, 123.562 112.461 C 123.614 121.790, 124.001 124.415, 126.062 129.406 C 131.998 143.785, 137.032 136.755, 138.921 111.450 C 139.396 105.088, 140.058 99.609, 140.392 99.274 C 142.268 97.398, 142.407 99.470, 143.929 151.950 C 143.973 153.482, 144.351 154.044, 144.936 153.450 C 147.660 150.684, 149.035 90.135, 146.470 85.899 C 145.606 84.472, 144.989 84.581, 140.825 86.899 M 105.232 132 C 105.232 133.925, 105.438 134.713, 105.689 133.750 C 105.941 132.787, 105.941 131.213, 105.689 130.250 C 105.438 129.287, 105.232 130.075, 105.232 132" stroke="none" fill="black" fill-rule="evenodd"/>
</svg>