<svg xmlns="http://www.w3.org/2000/svg" width="200" height="200" viewBox="0 0 200 200" version="1.1">
	<path d="M 73.736 24.024 C 70.566 24.523, 65.267 26.024, 61.960 27.360 C 56.328 29.635, 55.655 29.700, 51.315 28.394 C 45.076 26.517, 32.892 26.600, 28.218 28.553 C 23.468 30.537, 19.378 34.430, 16.718 39.500 C 13.749 45.157, 13.156 60.111, 15.486 70.582 C 17.011 77.435, 17.051 79.182, 15.850 86.393 C 13.958 97.752, 14.248 123.450, 16.376 133 C 18.394 142.060, 22.207 150.231, 25.697 152.976 C 30.965 157.120, 37.747 154.433, 43.221 146.032 C 46.263 141.364, 46.717 141.051, 49.500 141.710 C 54.898 142.988, 57.996 142.378, 61.072 139.431 C 66.906 133.842, 67.483 129.934, 67.631 95 C 67.802 54.598, 67.677 57, 69.611 57 C 71.069 57, 71.173 60.053, 70.712 89.250 C 70.183 122.721, 69.505 130.041, 65.457 146 C 62.518 157.583, 60.175 163.789, 54.360 175.386 C 51.759 180.574, 50.265 184.665, 50.782 185.182 C 51.299 185.699, 54.062 182.946, 57.399 178.590 C 64.232 169.668, 74.443 159.888, 78.813 158.077 C 83.640 156.078, 86.579 157.416, 91.275 163.749 C 98.850 173.966, 105.095 179.740, 109.457 180.558 C 116.046 181.794, 160.401 175.270, 164.750 172.426 C 170.506 168.660, 166.512 166.713, 140 160.362 C 129.275 157.793, 120.950 155.540, 121.500 155.357 C 122.050 155.174, 131.160 152.566, 141.744 149.561 C 163.206 143.469, 170 140.834, 170 138.602 C 170 136.040, 163.534 135.627, 142.600 136.851 C 131.645 137.491, 122.495 137.828, 122.265 137.599 C 122.036 137.369, 130.340 132.901, 140.718 127.668 C 161.605 117.137, 164.654 115.146, 163.698 112.656 C 162.869 110.494, 151.423 110.428, 138 112.508 C 131.575 113.503, 125.254 113.778, 118.471 113.357 C 107.327 112.665, 103.454 113.833, 97.610 119.649 L 94.746 122.500 95.365 119.500 C 96.787 112.609, 100.002 91.274, 100.036 88.500 C 100.070 85.733, 100.269 85.905, 102.603 90.729 C 108.125 102.141, 119.828 107.689, 136.359 106.731 C 150.767 105.897, 162.406 101.430, 167.264 94.870 C 171.699 88.881, 165.007 84.298, 150.151 83.151 L 141.500 82.483 152.500 76.718 C 177.926 63.393, 187.034 52.057, 176.214 47.201 C 173.302 45.895, 169.475 45.543, 158.500 45.572 C 150.800 45.592, 142.700 45.921, 140.500 46.303 C 137.023 46.906, 137.286 46.688, 142.507 44.636 C 151.197 41.220, 161.151 36.103, 163.750 33.717 C 170.808 27.237, 162.065 24.240, 141.151 25.971 C 129.878 26.904, 129.763 26.939, 124.202 31.205 C 121.122 33.567, 114.721 39.371, 109.977 44.101 L 101.351 52.703 87.692 53.224 C 76.848 53.638, 73.799 53.463, 72.894 52.373 C 71.363 50.527, 68.545 50.638, 66.910 52.608 C 65.812 53.931, 64.365 54.097, 58.754 53.544 C 50.039 52.686, 46 51.278, 46 49.099 C 46 46.001, 51.120 37.051, 54.109 34.922 L 57.047 32.830 64.206 36.468 C 68.144 38.468, 74.199 42.331, 77.661 45.052 C 81.124 47.774, 84.618 50, 85.426 50 C 86.234 50, 90.786 48.592, 95.540 46.872 C 104.531 43.619, 112 38.040, 112 34.578 C 112 31.650, 106.606 27.257, 100.946 25.577 C 94.192 23.571, 81.286 22.834, 73.736 24.024 M 69.212 27.952 C 65.204 29.039, 61.458 30.217, 60.889 30.568 C 60.320 30.920, 62.025 32.225, 64.677 33.468 C 67.330 34.711, 73.047 38.287, 77.381 41.415 C 86.124 47.723, 86.435 47.760, 96.305 43.658 C 108.384 38.640, 111.197 35.287, 106.626 31.355 C 102.910 28.159, 97.987 26.954, 86.500 26.431 C 78.598 26.071, 74.971 26.390, 69.212 27.952 M 137.332 28.900 C 130.635 29.569, 129.782 29.940, 124.332 34.546 C 115.689 41.852, 107.948 49.229, 106.931 51.129 C 106.148 52.591, 106.510 52.743, 109.767 52.314 C 115.680 51.537, 139.030 53.761, 144.918 55.662 C 150.124 57.344, 157 62.583, 157 64.868 C 157 66.706, 154.582 66.162, 153.247 64.023 C 149.858 58.597, 138.049 55.776, 118.054 55.616 L 103.609 55.500 101.304 58.898 C 98.327 63.288, 98.306 67.947, 101.250 70.528 C 103.133 72.178, 104.969 72.500, 112.500 72.500 C 123.221 72.500, 132.882 69.505, 138.970 64.293 C 142.772 61.039, 145 60.154, 145 61.896 C 145 63.527, 137.783 69.164, 133.103 71.188 C 125.681 74.399, 115.233 76.253, 108.126 75.620 L 101.753 75.052 102.420 79.276 C 103.768 87.809, 105.449 91.505, 110.116 96.191 C 116.522 102.625, 122.779 104.422, 136.429 103.751 C 143.821 103.387, 148.324 102.579, 153.356 100.713 C 160.121 98.205, 166 93.846, 166 91.339 C 166 87.280, 143.087 83.520, 132.231 85.797 C 126.475 87.005, 125 86.754, 125 84.568 C 125 83.729, 126.740 83.087, 129.817 82.792 C 139.143 81.895, 168.933 65.622, 175.471 57.852 C 181.077 51.190, 176.517 48.214, 160.494 48.077 C 152.456 48.008, 128.959 50.162, 123.354 51.481 C 122.068 51.784, 120.997 51.434, 120.680 50.609 C 120.295 49.605, 123.179 48.232, 131.326 45.542 C 149.795 39.444, 164.918 31.585, 162.616 29.283 C 161.641 28.308, 145.670 28.066, 137.332 28.900 M 31.704 30.390 C 25.902 31.992, 21.447 35.962, 18.673 42 C 16.080 47.642, 15.948 61.190, 18.385 71.379 C 19.912 77.759, 19.912 79.066, 18.392 89.379 C 17.208 97.419, 16.902 104.240, 17.291 114 C 18.385 141.514, 26.031 156.796, 35.574 150.544 C 37.366 149.369, 44.667 139.626, 45.500 137.297 C 45.540 137.185, 47.649 137.841, 50.186 138.753 C 55.943 140.823, 58.959 139.713, 61.367 134.638 C 64.492 128.053, 65.031 120.721, 64.764 88.447 L 64.500 56.500 57.500 55.927 C 53.650 55.611, 49.420 54.997, 48.101 54.562 C 45.780 53.796, 45.723 53.898, 46.367 57.635 C 48.085 67.595, 49.018 89.529, 48.104 98.459 C 46.834 110.875, 45.082 114.217, 41.872 110.343 C 39.879 107.937, 40.164 73.318, 42.309 57.254 C 44.053 44.193, 45.433 40.388, 50.273 35.286 L 53.322 32.073 50.911 31.160 C 46.301 29.415, 36.637 29.027, 31.704 30.390 M 73.705 87.750 C 72.994 127.905, 70.959 142.328, 63.177 162.368 L 60.189 170.064 66.979 163.659 C 80.162 151.222, 85.832 151.419, 95.526 164.652 C 105.379 178.102, 107.333 178.974, 123.391 177.089 C 138.159 175.355, 159.004 171.954, 161.948 170.797 L 164.500 169.794 162 168.835 C 160.625 168.308, 151.850 166.085, 142.500 163.895 C 118.306 158.229, 110.982 155.955, 113.500 154.891 C 114.600 154.426, 126.075 151.067, 139 147.426 C 151.925 143.785, 163.175 140.372, 164 139.840 C 165.524 138.858, 145.329 139.262, 124.250 140.635 C 115.426 141.209, 114 141.089, 114 139.772 C 114 138.785, 121.716 134.319, 135.750 127.181 C 147.713 121.097, 158.400 115.393, 159.500 114.505 C 161.373 112.994, 161.054 112.930, 154.500 113.492 C 150.650 113.822, 142.200 114.788, 135.723 115.639 C 126.239 116.885, 122.985 116.956, 119.017 116.004 C 110.327 113.919, 101.927 117.397, 96.121 125.481 C 94.198 128.158, 92.386 129.786, 91.885 129.285 C 91.384 128.784, 92.261 120.940, 93.934 110.954 C 95.543 101.355, 97.410 88.887, 98.084 83.250 C 99.186 74.034, 99.143 72.815, 97.655 71.171 C 95.598 68.899, 95.543 65.029, 97.500 60.346 C 98.325 58.371, 99 56.586, 99 56.378 C 99 56.170, 93.435 56, 86.633 56 L 74.267 56 73.705 87.750 M 43.728 71.500 C 42.592 82.643, 42.816 107.584, 44.041 106.359 C 45.479 104.921, 46.273 83.333, 45.268 73 L 44.441 64.500 43.728 71.500" stroke="none" fill="black" fill-rule="evenodd"/>
</svg>