<svg xmlns="http://www.w3.org/2000/svg" width="200" height="200" viewBox="0 0 200 200" version="1.1">
	<path d="M 47 20.119 C 47 20.735, 43.220 25.211, 38.600 30.066 C 24.632 44.744, 21.994 52.975, 25.960 69.500 C 27.149 74.450, 28.382 81.517, 28.702 85.204 C 29.264 91.691, 29.152 92.129, 25.268 98.704 C 17.217 112.333, 15.530 116.973, 18.058 118.536 C 19.646 119.517, 25.202 115.394, 38.508 103.360 C 50.570 92.451, 59 85.431, 59 86.297 C 59 86.553, 57.922 89.628, 56.604 93.131 C 48.188 115.507, 47.908 121.495, 55.364 119.623 C 56.662 119.298, 61.373 115.878, 65.832 112.025 L 73.939 105.019 77.529 107.455 C 83.510 111.514, 85.765 108.701, 84.711 98.493 C 84.254 94.062, 84.486 92.870, 86.087 91.421 C 87.146 90.463, 88.154 89.864, 88.328 90.089 C 88.502 90.315, 89.842 92.593, 91.306 95.151 C 96.336 103.939, 108.058 112.273, 125.703 119.604 C 130.764 121.707, 134.766 123.567, 134.596 123.737 C 134.426 123.907, 115.435 124.252, 92.393 124.504 C 45.687 125.014, 46.070 124.945, 54.739 131.309 C 60.580 135.596, 68.436 143.806, 72.798 150.180 C 74.559 152.754, 76 155.082, 76 155.353 C 76 155.623, 74.313 156.390, 72.250 157.056 C 65.384 159.274, 43.936 168.004, 37.676 171.129 C 31.738 174.093, 26 178.527, 26 180.152 C 26 180.580, 26.927 181.426, 28.061 182.032 C 30.989 183.600, 42.100 181.712, 54.660 177.513 C 78.695 169.477, 95.258 157.838, 99.062 146.312 C 100.364 142.368, 102.616 141.248, 117.923 136.936 C 138.683 131.088, 138.896 132.525, 120.218 152.370 C 106.994 166.420, 104.051 172.051, 107.913 175.913 C 109.438 177.438, 111.279 178.003, 114.750 178.013 C 117.363 178.020, 123.005 179.145, 127.288 180.513 C 142.481 185.365, 152.398 182.746, 159.155 172.097 C 163.354 165.479, 165.741 156.790, 168.078 139.608 C 170.791 119.669, 172.608 111.174, 175 107.240 C 176.633 104.555, 177.585 104, 180.559 104 C 183.437 104, 184.080 103.654, 183.810 102.250 C 183.306 99.637, 177.811 98.211, 154 94.517 L 132.500 91.182 144.642 91.091 L 156.785 91 162.553 84.769 C 169.686 77.065, 173.474 69.342, 172.547 64.397 C 171.693 59.846, 168.448 56.348, 157.520 48.197 C 152.581 44.514, 147.478 39.925, 146.181 38 C 143.836 34.521, 143.743 33.147, 145.198 23.500 C 145.492 21.555, 145.073 21.514, 130 22 C 121.475 22.275, 102.575 22.446, 88 22.381 C 66.971 22.286, 60.232 21.925, 55.356 20.631 C 48.084 18.701, 47 18.635, 47 20.119 M 49.483 26.388 C 47.282 31.653, 44.608 41.941, 45.268 42.601 C 46.180 43.513, 70.988 33.642, 70.653 32.500 C 70.191 30.930, 57.864 24.281, 54.193 23.622 C 51.164 23.077, 50.769 23.309, 49.483 26.388 M 66.673 25.929 C 67.128 26.304, 69.166 27.829, 71.201 29.319 L 74.902 32.027 83.582 30.514 C 88.356 29.681, 94.566 28.981, 97.381 28.958 C 100.221 28.935, 103.918 28.156, 105.685 27.208 C 108.779 25.549, 108.257 25.496, 87.358 25.373 C 75.527 25.304, 66.219 25.554, 66.673 25.929 M 119.867 26.071 C 116.769 26.527, 112.719 27.560, 110.867 28.368 C 107.756 29.725, 107.690 29.843, 110 29.912 C 111.375 29.953, 116.667 31.166, 121.761 32.607 C 132.082 35.527, 131.770 35.604, 137.122 28.846 L 140.168 25 132.834 25.122 C 128.800 25.189, 122.965 25.616, 119.867 26.071 M 39.334 33.250 C 27.105 46.025, 24.910 53.976, 29.049 70.500 C 30.289 75.450, 31.346 82.650, 31.399 86.500 C 31.493 93.271, 31.308 93.826, 25.748 103.469 C 16.831 118.933, 17.219 118.860, 36.500 101.466 C 44.750 94.023, 53.627 86.486, 56.226 84.717 C 59.292 82.630, 61.346 80.335, 62.075 78.183 C 62.694 76.359, 62.993 74.660, 62.742 74.408 C 62.490 74.157, 57.894 74.657, 52.528 75.521 C 47.162 76.384, 42.319 76.940, 41.766 76.755 C 40.469 76.323, 51.164 66.512, 56.946 62.831 C 64.289 58.155, 68.613 59.625, 67.808 66.523 C 67.401 70.009, 67.448 70.062, 70.447 69.462 C 77.311 68.088, 76.930 68.784, 76.743 57.982 C 76.590 49.162, 76.815 47.742, 78.788 45.073 L 81.005 42.075 77.959 38.606 L 74.914 35.137 69.707 36.954 C 66.843 37.953, 61.001 40.172, 56.724 41.885 C 43.848 47.043, 40.881 45.696, 43.454 35.863 C 44.226 32.913, 45.162 29.712, 45.536 28.750 C 46.626 25.938, 45.670 26.631, 39.334 33.250 M 137.195 32.908 C 135.324 35.235, 134.422 37.143, 135.017 37.510 C 136.431 38.384, 135.092 40.249, 133.491 39.635 C 132.365 39.203, 129.737 41.888, 120.166 53.248 C 118.770 54.905, 118.949 54.919, 123.596 53.509 C 129.610 51.685, 130 51.672, 130 53.300 C 130 54.054, 126.854 55.525, 122.500 56.806 C 113.859 59.348, 112.533 61.119, 120.250 59.812 C 123.138 59.323, 129.794 58.827, 135.041 58.711 C 142.739 58.541, 145.106 58.842, 147.291 60.273 C 151.338 62.922, 150.901 66.695, 145.887 72.391 C 141.040 77.897, 142.257 78.048, 125.136 69.831 C 118.336 66.567, 112.223 64.033, 111.551 64.199 C 109.621 64.675, 91 86.264, 91 88.025 C 91 90.688, 96.393 98.296, 101.413 102.715 C 106.313 107.027, 120.926 114.936, 131.500 118.997 C 138.936 121.853, 140.925 123.475, 139.158 125.243 C 137.601 126.801, 86.034 128.345, 66.578 127.417 L 53.655 126.800 59.621 131.764 C 68.584 139.223, 81.209 155.319, 79.360 156.929 C 78.887 157.340, 72.650 159.825, 65.500 162.451 C 50.611 167.918, 30 177.528, 30 179.004 C 30 182.500, 55.605 175.691, 70.500 168.233 C 85.903 160.521, 93.948 153.307, 96.381 145.024 L 97.696 140.547 110.598 136.324 C 125.330 131.503, 133.247 130.130, 135.508 132.006 C 138.483 134.476, 137.110 137.636, 129.250 146.410 C 109.545 168.406, 107.256 171.656, 109.723 174.123 C 110.260 174.660, 113.129 175.249, 116.099 175.432 C 119.070 175.615, 124.387 176.717, 127.915 177.882 C 140.126 181.913, 149.829 180.024, 155.571 172.496 C 160.227 166.392, 162.792 157.146, 166.030 134.793 C 169.141 113.317, 170.922 107.014, 174.932 103.278 L 177.114 101.245 174.807 100.677 C 173.538 100.364, 161.250 98.452, 147.500 96.426 C 119.545 92.309, 117.152 91.726, 119.014 89.483 C 120.017 88.274, 123.523 88, 137.977 88 L 155.710 88 160.745 82.677 C 166.644 76.439, 170 70.354, 170 65.897 C 170 62.175, 164.758 56.639, 153.527 48.500 C 145.405 42.613, 143.146 39.791, 141.561 33.549 L 140.389 28.933 137.195 32.908 M 83.188 33.205 L 77.876 34.172 80.436 37.336 C 81.843 39.076, 83.979 41.812, 85.183 43.415 L 87.371 46.330 85.232 45.771 C 84.056 45.463, 82.285 45.804, 81.296 46.527 C 79.788 47.632, 79.510 49.295, 79.561 56.899 C 79.595 61.880, 79.897 66.230, 80.232 66.565 C 80.567 66.900, 83.400 66.644, 86.527 65.994 C 92.008 64.857, 92.193 64.714, 91.659 62.047 C 89.220 49.852, 90.493 41.133, 95.597 35.067 L 98.178 32 93.339 32.119 C 90.678 32.184, 86.110 32.673, 83.188 33.205 M 99.646 34.627 C 94.171 40.102, 92.243 46.788, 93.421 56.214 C 94.422 64.226, 94.547 64.317, 102.474 62.857 L 109.264 61.606 119.154 50.125 C 125.260 43.037, 128.688 38.288, 128.113 37.713 C 126.758 36.358, 114.751 33.184, 108.155 32.438 C 102.847 31.838, 102.292 31.980, 99.646 34.627 M 124.711 61.955 C 121.528 62.389, 118.702 62.964, 118.433 63.234 C 118.163 63.503, 123.007 66.019, 129.196 68.825 L 140.450 73.926 142.820 71.713 C 144.124 70.496, 145.810 68.308, 146.569 66.851 C 147.773 64.537, 147.743 64.032, 146.335 62.863 C 144.431 61.283, 133.121 60.808, 124.711 61.955 M 54.860 67.750 C 49.174 71.997, 48.765 72.526, 51 72.746 C 52.375 72.881, 55.975 72.423, 59 71.728 C 64.365 70.495, 64.508 70.373, 64.810 66.732 C 65.243 61.529, 62.864 61.772, 54.860 67.750 M 98.354 66.255 C 92.356 67.411, 91.091 69.263, 90.330 78 L 89.851 83.500 93.944 79 C 102.700 69.372, 106.132 65.005, 104.843 65.131 C 104.104 65.204, 101.184 65.709, 98.354 66.255 M 85.199 68.986 C 83.384 69.416, 81.653 70.014, 81.352 70.315 C 80.617 71.049, 83.106 89, 83.942 89 C 85.752 89, 87 86.127, 87 81.959 C 87 79.406, 87.631 75.221, 88.402 72.659 C 89.173 70.097, 89.511 68.046, 89.152 68.102 C 88.793 68.159, 87.015 68.556, 85.199 68.986 M 70.491 72.118 C 67.098 72.883, 66.315 73.558, 65.390 76.511 C 64.410 79.644, 64.490 80, 66.174 80 C 68.857 80, 70.274 84.347, 69.044 88.801 C 68.062 92.361, 68.498 93.408, 73.687 99.932 C 73.875 100.169, 75.640 98.819, 77.607 96.932 C 81.569 93.130, 81.594 92.782, 78.972 77.750 C 77.688 70.390, 77.807 70.468, 70.491 72.118 M 58.604 95.696 C 53.473 109.568, 51.875 117, 54.022 117 C 55.606 117, 64.317 110.352, 68.775 105.741 L 72.050 102.353 68.563 97.787 C 65.424 93.675, 65.172 92.886, 66.038 89.867 C 67.479 84.843, 67.241 83, 65.150 83 C 63.693 83, 62.300 85.701, 58.604 95.696 M 78.683 99.796 L 75.866 102.749 78.683 104.975 L 81.500 107.201 81.816 104.601 C 81.990 103.170, 81.990 100.839, 81.816 99.421 L 81.500 96.842 78.683 99.796" stroke="none" fill="black" fill-rule="evenodd"/>
</svg>