<svg xmlns="http://www.w3.org/2000/svg" width="200" height="200" viewBox="0 0 200 200" version="1.1">
	<path d="M 106.851 10.129 C 105.394 10.663, 103.676 12.369, 103.033 13.920 C 101.521 17.570, 103.526 22.623, 109.112 29.248 C 111.316 31.862, 112.980 34, 112.810 33.999 C 112.639 33.999, 110.065 33.074, 107.090 31.943 C 90.679 25.705, 71.561 23.874, 62.909 27.711 C 58.947 29.468, 57.507 29.616, 52.409 28.793 C 35.594 26.077, 20.464 32.708, 14.945 45.212 C 13.003 49.613, 12.627 52.093, 12.703 60 C 12.754 65.225, 13.434 71.799, 14.214 74.608 C 15.232 78.270, 15.417 81.666, 14.868 86.608 C 13.750 96.676, 13.841 121.281, 15.030 130.769 C 17.817 152.991, 24.457 160.988, 34.603 154.340 C 36.040 153.399, 39.651 149.152, 42.629 144.902 L 48.044 137.175 50.977 138.638 C 55.516 140.903, 60.073 139.101, 75.638 128.889 C 83.262 123.887, 90.567 119.381, 91.872 118.876 C 96.932 116.916, 98.261 122.008, 95.619 133.236 C 94.531 137.861, 93.130 140.256, 88.385 145.604 C 71.618 164.502, 67.372 170.987, 71.750 171.008 C 72.713 171.013, 78.926 168.255, 85.559 164.880 C 99.411 157.830, 106.472 156.320, 110.151 159.620 C 112.061 161.333, 112.199 162.256, 111.703 170.020 L 111.160 178.541 119.330 177.858 C 131.384 176.851, 135.238 175.176, 145 166.704 C 151.334 161.207, 157.257 157.915, 166.334 154.848 C 172.873 152.639, 174.598 151.584, 176.680 148.520 C 184.529 136.969, 188.016 122.799, 184.623 116.238 C 181.083 109.392, 173.807 105.950, 157.858 103.575 C 152.289 102.745, 147.528 101.862, 147.278 101.611 C 147.027 101.360, 147.370 98.708, 148.039 95.716 L 149.256 90.278 153.105 91.255 C 165.124 94.305, 173.912 85.402, 174.797 69.277 C 175.485 56.739, 171.294 46.272, 164.096 42.549 L 161.294 41.101 162.610 34.300 C 164.971 22.103, 164.344 17, 160.486 17 C 157.371 17, 150.751 24.524, 142.381 37.576 L 135.677 48.030 132.089 47.382 C 130.115 47.026, 128.359 46.616, 128.186 46.470 C 128.014 46.325, 129.084 43.890, 130.564 41.059 C 133.757 34.952, 134.676 28.578, 133.066 23.699 C 131.392 18.627, 124.270 12.455, 117.913 10.567 C 111.972 8.803, 110.616 8.749, 106.851 10.129 M 106.750 13.018 C 102.585 15.591, 106.672 23.818, 116.729 33.104 C 120.067 36.186, 122.506 39.163, 122.149 39.718 C 121.748 40.342, 117.800 39.243, 111.822 36.842 C 96.944 30.867, 87.902 28.749, 77 28.687 C 71.775 28.657, 66.469 29.069, 65.210 29.603 C 63.154 30.474, 63.752 30.914, 71.041 33.894 C 78.409 36.907, 79.109 37.429, 78.586 39.514 C 78.021 41.766, 78.210 41.827, 87.754 42.436 C 93.114 42.778, 103.350 43.671, 110.500 44.420 C 119.832 45.398, 123.875 45.478, 124.828 44.704 C 129.348 41.034, 132.275 29.474, 130.118 23.815 C 129.003 20.892, 124.399 16.257, 120.717 14.354 C 116.990 12.427, 108.952 11.658, 106.750 13.018 M 157.086 22 C 153.073 26.114, 138.529 47.862, 139.285 48.618 C 139.570 48.903, 141.883 47.549, 144.425 45.609 C 146.966 43.669, 150.723 41.804, 152.773 41.463 C 154.823 41.123, 157.016 40.686, 157.648 40.493 C 159.073 40.056, 161.248 27.629, 160.818 22.381 L 160.500 18.500 157.086 22 M 33.059 32.762 C 25.468 34.995, 18.759 41.586, 16.598 48.932 C 14.652 55.547, 14.591 62.387, 16.401 71 C 17.429 75.892, 17.637 83.211, 17.244 100.584 C 16.890 116.218, 17.117 126.375, 17.948 132.056 C 20.106 146.818, 23.626 154, 28.701 154 C 32.061 154, 38.924 146.739, 44.251 137.547 L 48.737 129.808 49.821 132.917 C 52.113 139.491, 56.833 138.160, 75.756 125.604 C 90.765 115.645, 95.531 114.065, 98.364 118.109 C 100.389 121, 100.415 123.896, 98.499 133.005 C 97.091 139.699, 96.519 140.677, 89.244 148.820 C 80.837 158.232, 74 166.448, 74 167.141 C 74 167.380, 79.373 164.898, 85.939 161.625 C 100.594 154.321, 106.871 153.264, 111.568 157.307 C 114.361 159.711, 114.500 160.215, 114.500 167.916 C 114.500 172.362, 114.725 175.991, 115 175.980 C 115.275 175.969, 118.557 175.518, 122.294 174.978 C 130.626 173.773, 135.388 171.418, 143.627 164.429 C 150.702 158.427, 158.824 153.979, 167.102 151.573 C 172.250 150.076, 172.833 149.576, 176.268 143.704 C 181.180 135.306, 183 129.820, 183 123.409 C 183 113.576, 177.030 109.476, 158.277 106.432 C 147.194 104.633, 146.350 104.646, 145.592 106.622 C 145.183 107.687, 146.372 109.764, 149.060 112.681 C 159.377 123.873, 159.380 134.003, 149.070 143.318 C 144.532 147.418, 140.655 148.093, 139.035 145.066 C 137.409 142.028, 137.818 131.009, 139.968 119.920 L 141.936 109.768 139.718 107.902 C 134.672 103.657, 111.503 93, 107.318 93 C 106.528 93, 107.107 103.152, 108.037 105.598 C 108.749 107.470, 108.751 108.649, 108.044 109.356 C 106.023 111.377, 95 98.726, 95 94.385 C 95 91.723, 97.622 90.002, 101.684 89.996 C 104.067 89.993, 104.776 89.320, 106.298 85.621 C 108.660 79.874, 113.908 73.850, 119.978 69.917 C 123.724 67.490, 125.957 64.888, 129.440 58.893 C 131.948 54.577, 134 50.872, 134 50.659 C 134 50.446, 131.912 49.986, 129.360 49.636 C 125.976 49.172, 124.420 49.378, 123.610 50.397 C 122.663 51.589, 121.033 51.594, 112.500 50.433 C 100.974 48.864, 87.617 48.571, 88.441 49.905 C 88.749 50.403, 92.636 52.941, 97.079 55.546 C 107.326 61.554, 112.267 66.108, 111.827 69.140 C 111.390 72.156, 106.385 74.930, 100.021 75.684 C 95.091 76.268, 94.601 76.607, 89.558 82.927 C 79.555 95.464, 74.459 98.381, 70.405 93.889 C 67.580 90.759, 68.017 75.280, 71.396 58.779 C 72.828 51.782, 74 45.750, 74 45.376 C 74 44.284, 50.764 45.836, 49.595 47.005 C 48.989 47.611, 48.465 53.073, 48.374 59.747 C 48.271 67.264, 47.819 71.560, 47.107 71.798 C 46.498 72.001, 45.934 71.342, 45.853 70.333 C 45.369 64.300, 44.218 83.138, 44.224 97 C 44.231 114.956, 45.276 113.705, 46.520 94.250 C 47.067 85.699, 47.571 83, 48.620 83 C 50.273 83, 50.259 82.302, 48.946 99.050 C 47.668 115.344, 46.551 120.253, 44.221 119.804 C 43.125 119.593, 42.262 117.942, 41.706 114.991 C 40.363 107.865, 41.750 72.903, 43.848 61 C 44.866 55.225, 45.317 50.350, 44.850 50.167 C 43.235 49.533, 44.007 46.067, 46 45 C 47.100 44.411, 48 43.305, 48 42.541 C 48 41.778, 49.539 39.137, 51.420 36.672 C 54.752 32.308, 54.784 32.176, 52.670 31.609 C 48.702 30.545, 38.572 31.140, 33.059 32.762 M 55.809 35.750 C 54.399 37.263, 52.705 39.547, 52.046 40.827 L 50.847 43.154 62.674 42.459 C 78.987 41.502, 80.065 39.953, 67.574 35.419 C 59.239 32.394, 58.931 32.403, 55.809 35.750 M 152.383 44.209 C 150.668 44.761, 147.983 46.236, 146.416 47.485 L 143.566 49.758 148.738 51.983 C 154.897 54.632, 155.328 54.617, 156.086 51.731 C 158.485 42.592, 158.337 42.290, 152.383 44.209 M 160.672 44.747 C 160.424 45.161, 159.680 48.136, 159.018 51.357 C 158.147 55.594, 158.116 57.516, 158.907 58.307 C 160.920 60.320, 160.099 64.663, 157.145 67.631 C 155.041 69.746, 153.742 72.729, 152.203 78.975 C 151.056 83.636, 150.353 87.686, 150.641 87.975 C 150.930 88.264, 153.793 88.500, 157.003 88.500 C 163.896 88.500, 167.019 86.270, 170.307 79 C 174.322 70.121, 172.268 54.373, 166.223 47.694 C 164.024 45.264, 161.244 43.789, 160.672 44.747 M 75.504 52.626 C 69.767 78.412, 69.556 93, 74.921 93 C 76.903 93, 87.640 82.112, 90.602 77.096 C 92.052 74.642, 93.262 73.947, 96.947 73.451 C 103.589 72.557, 108.063 71, 108.691 69.362 C 109.531 67.173, 106.613 64.571, 96.017 58.059 C 84.794 51.163, 83.209 49.658, 84.950 47.560 C 85.607 46.768, 87.125 45.929, 88.323 45.696 C 89.520 45.463, 87.508 45.211, 83.850 45.136 L 77.201 45 75.504 52.626 M 111.750 47.662 C 112.438 47.940, 113.563 47.940, 114.250 47.662 C 114.938 47.385, 114.375 47.158, 113 47.158 C 111.625 47.158, 111.063 47.385, 111.750 47.662 M 136.288 56.720 C 130.422 63.821, 130.425 63.762, 136.029 63.223 C 143.544 62.501, 146.101 65.864, 142.368 71.560 L 140.737 74.051 143.519 72.993 C 149.746 70.625, 151.835 68.714, 152.924 64.386 C 154.559 57.893, 154.361 57.399, 149.250 55.238 C 140.423 51.505, 140.614 51.483, 136.288 56.720 M 134.943 66.112 C 125.701 68.129, 114.961 75.798, 110.342 83.679 C 107.339 88.803, 107.722 90.560, 112.050 91.511 C 117.837 92.782, 128.821 97.787, 135.965 102.409 C 140.067 105.062, 143 106.418, 143 105.660 C 143 104.946, 141.537 103.717, 139.750 102.930 C 134.774 100.740, 134.861 97.191, 140.030 91.583 C 142.315 89.104, 144.957 86.831, 145.902 86.531 C 147.050 86.167, 148.141 83.809, 149.188 79.433 C 150.253 74.981, 150.394 73.034, 149.628 73.360 C 133.089 80.404, 130.502 80.434, 136.885 73.509 C 142.872 67.014, 142.219 64.525, 134.943 66.112 M 142.053 93.558 C 138.642 97.259, 138.077 98.388, 139.048 99.558 C 141.307 102.279, 143.857 101.266, 144.856 97.250 C 146.442 90.875, 146.823 89, 146.534 89 C 146.380 89, 144.364 91.051, 142.053 93.558 M 99.750 92.689 C 97.090 93.385, 97.646 96.257, 101.250 100.430 L 104.500 104.194 104.161 98.097 C 103.822 91.991, 103.576 91.690, 99.750 92.689 M 142.616 120.676 C 141.725 125.529, 140.997 132.762, 140.998 136.750 C 141 143.060, 141.233 144, 142.797 144 C 144.715 144, 151.027 137.939, 152.882 134.316 C 155.530 129.144, 152.900 120.153, 147.120 114.615 L 144.235 111.851 142.616 120.676" stroke="none" fill="black" fill-rule="evenodd"/>
</svg>