<svg xmlns="http://www.w3.org/2000/svg" width="200" height="200" viewBox="0 0 200 200" version="1.1">
	<path d="M 92 21.357 C 87.875 23.157, 79.439 27.265, 73.253 30.486 L 62.006 36.341 53.253 34.664 C 35.576 31.277, 25.541 33.126, 20.651 40.671 C 16.573 46.964, 15.632 54.371, 16.547 73 C 16.993 82.075, 17.307 90.850, 17.247 92.500 C 17.186 94.150, 16.822 102.788, 16.438 111.696 C 15.710 128.583, 16.814 142.644, 19.608 152.053 C 21.219 157.475, 24.932 161.092, 28.051 160.276 C 30.594 159.611, 35.027 153.240, 38.228 145.650 L 40.681 139.832 43.486 143.166 C 50.021 150.934, 56.237 152.961, 61.304 148.975 C 66.783 144.665, 71.750 129.288, 75.991 103.500 C 77.167 96.350, 78.494 89.600, 78.940 88.500 C 79.423 87.311, 81.525 85.964, 84.126 85.179 C 94.422 82.069, 103.408 73.736, 115.012 56.539 C 125.715 40.678, 128.205 39.025, 132.023 45.250 C 134.213 48.822, 137.851 58.007, 138.646 61.974 C 139.144 64.459, 139.063 64.495, 133.692 64.164 C 127.226 63.766, 123.198 65.518, 119.700 70.249 C 114.205 77.680, 113.788 81.057, 113.063 124 C 112.367 165.257, 111.659 171.963, 108.462 167.609 C 103.548 160.917, 102.543 131.159, 106.792 118.120 L 108.871 111.741 103.586 106.456 C 96.803 99.673, 91.234 97.688, 87.276 100.643 C 83.164 103.713, 81.189 106.981, 79.506 113.500 C 77.221 122.351, 75.956 141.853, 76.793 155.347 L 77.527 167.195 71.059 170.127 C 67.502 171.740, 63.783 173.791, 62.796 174.685 C 60.411 176.843, 60.520 179.673, 63.039 181.021 C 66.623 182.939, 86.888 184.003, 107.500 183.355 C 124.557 182.820, 128.659 182.987, 135.379 184.493 C 150.994 187.992, 167.958 182.930, 172.468 173.427 C 176.937 164.009, 166.210 162.897, 148.473 170.940 L 141.917 173.912 140.902 171.243 C 137.342 161.879, 137.292 150.265, 140.784 143.428 C 142.729 139.617, 148.671 133.622, 160.357 123.677 C 167.291 117.776, 169.316 114.204, 168.425 109.451 L 167.769 105.958 163.324 110.055 C 154.068 118.587, 148.475 118.483, 144.118 109.697 C 139.466 100.315, 141.713 82.040, 147.623 81.197 C 149.829 80.882, 154.746 85.014, 158.500 90.338 L 160.500 93.174 166.500 90.927 C 173.170 88.429, 179 83.349, 179 80.034 C 179 74.827, 175.940 71.442, 160 59.017 C 153.125 53.659, 145.426 47.050, 142.892 44.331 C 138.214 39.314, 135.343 33.155, 136.399 30.403 C 137.408 27.774, 134.341 22.228, 130.893 20.444 C 127.134 18.501, 119.219 18.850, 112.302 21.265 C 108.250 22.679, 108.093 22.656, 107.802 20.615 C 107.308 17.154, 100.948 17.452, 92 21.357 M 99.452 21.402 C 94.796 22.860, 73.331 33.175, 70.810 35.166 C 69.225 36.418, 69.226 36.700, 70.832 39.742 L 72.543 42.983 80.633 37.567 C 85.083 34.587, 92.386 30.233, 96.862 27.889 C 102.491 24.943, 105 23.069, 105 21.814 C 105 19.720, 104.854 19.710, 99.452 21.402 M 113.130 23.742 L 107.760 25.323 103.904 33.708 C 101.784 38.320, 98.420 46.460, 96.429 51.797 C 90.551 67.557, 79.523 84, 74.832 84 C 71.515 84, 70.552 80.021, 70.017 64.105 L 69.500 48.711 60.500 56.660 L 51.500 64.609 50.863 88.554 C 50.243 111.851, 48.866 125.515, 46.944 127.450 C 44.605 129.804, 42.131 122.365, 42.044 112.710 C 42.005 108.467, 41.554 107.495, 38.091 104.201 C 33.404 99.743, 32.116 94.780, 33.897 88.039 C 35.263 82.869, 39.973 74.607, 44.750 68.998 C 46.893 66.482, 48 64.129, 48 62.091 C 48 59.170, 50.339 57.590, 51.167 59.951 C 51.350 60.475, 55.438 57.456, 60.250 53.244 C 69.303 45.321, 70.392 43.267, 67.566 39.441 C 66.177 37.559, 65.855 37.648, 57.066 42.322 C 50.264 45.941, 48 46.756, 48 45.589 C 48 44.720, 50.315 42.852, 53.250 41.355 L 58.500 38.676 55.500 37.727 C 53.850 37.205, 47.250 36.716, 40.832 36.639 C 27.489 36.480, 25.114 37.454, 21.500 44.565 C 19.586 48.331, 19.500 50.478, 19.500 94.500 C 19.500 135.896, 19.684 141.218, 21.340 147.676 C 23.430 155.830, 25.975 159.095, 28.566 156.946 C 30.582 155.272, 36.359 143.877, 38.044 138.250 C 38.744 135.912, 39.583 134.012, 39.908 134.026 C 40.234 134.040, 42.031 136.308, 43.902 139.066 C 50.390 148.629, 56.377 150.707, 61.111 145.036 C 65.753 139.476, 69.183 126.658, 75.258 92.171 L 76.549 84.842 82.446 82.851 C 93.438 79.140, 101.129 72.168, 111.899 56.150 C 115.357 51.007, 119.772 45.044, 121.710 42.900 C 128.982 34.850, 134.159 39.173, 140.498 58.590 C 143.722 68.468, 143.717 69.223, 140.435 67.975 C 139.024 67.439, 135.354 67, 132.280 67 C 127.088 67, 126.428 67.276, 122.996 70.883 C 117.062 77.121, 116.782 79.222, 116.038 123 C 115.302 166.283, 114.775 170.500, 110.104 170.500 C 106.557 170.500, 104.302 166.565, 102.425 157.104 C 100.378 146.784, 100.870 129.895, 103.528 119.223 L 105.340 111.946 102.079 108.582 C 87.915 93.967, 80.101 104.757, 79.690 139.500 C 79.585 148.300, 79.689 158.579, 79.920 162.343 L 80.340 169.185 73.461 172.088 C 66.700 174.940, 63.092 177.425, 64.161 178.494 C 65.891 180.225, 84.676 181.204, 105.846 180.667 C 124.580 180.193, 130.302 180.365, 134.806 181.538 C 145.396 184.296, 156.540 182.946, 164.418 177.950 C 169.712 174.593, 172.273 170.418, 169.943 168.944 C 166.680 166.879, 159.546 168.695, 147.698 174.604 L 140.897 177.997 139.416 174.453 C 130.637 153.443, 134.925 140.226, 155.677 124.331 C 161.999 119.490, 166 114.916, 166 112.533 C 166 112.222, 163.700 113.549, 160.888 115.483 C 152.433 121.299, 146.218 120.066, 141.737 111.684 C 139.829 108.115, 139.500 105.956, 139.500 97 C 139.500 85.282, 141.061 80.688, 145.632 78.950 C 149.253 77.573, 154.342 80.257, 158.140 85.545 L 161.220 89.834 165.060 88.479 C 181.007 82.852, 179.895 77.552, 159.537 62.164 C 139.931 47.345, 134 40.283, 134 31.759 C 134 24.799, 131.018 21.971, 123.795 22.081 C 120.883 22.125, 116.083 22.873, 113.130 23.742 M 95.485 31.823 C 88.088 35.728, 74.302 44.702, 73.361 46.224 C 72.649 47.377, 72.905 75.750, 73.655 78.750 C 73.964 79.987, 74.820 81, 75.558 81 C 78.056 81, 90.958 60.864, 92.403 54.709 C 92.764 53.174, 95.301 46.692, 98.042 40.305 C 100.782 33.917, 102.900 28.567, 102.747 28.414 C 102.594 28.261, 99.326 29.795, 95.485 31.823 M 45.202 72.732 C 39.643 79.772, 36.027 87.909, 36.013 93.405 C 36.001 97.850, 36.383 98.674, 40.080 102.191 C 44 105.919, 44.182 106.372, 44.738 113.723 C 45.149 119.152, 45.549 120.749, 46.114 119.221 C 47.030 116.745, 49.362 76, 48.844 71.527 L 48.500 68.554 45.202 72.732" stroke="none" fill="black" fill-rule="evenodd"/>
</svg>