<svg xmlns="http://www.w3.org/2000/svg" width="200" height="200" viewBox="0 0 200 200" version="1.1">
	<path d="M 114.197 14.559 C 111.281 15.344, 107.981 16.475, 106.864 17.073 C 105.270 17.926, 104.428 17.792, 102.942 16.448 C 101.184 14.856, 100.876 14.851, 98.551 16.375 C 97.175 17.276, 95.067 19.343, 93.865 20.968 C 92.664 22.593, 88.719 25.628, 85.098 27.712 C 75.753 33.090, 62.593 46.236, 60.914 51.869 C 59.745 55.792, 59.811 56.607, 61.556 59.844 C 62.625 61.827, 65.300 64.466, 67.500 65.708 L 71.500 67.967 65.218 67.984 C 53.023 68.015, 48.093 63.229, 49.534 52.756 C 50.297 47.205, 56.543 34.160, 60.745 29.339 L 63.500 26.179 71.250 28.468 L 79 30.757 79 27.329 C 79 25.443, 78.313 22.573, 77.474 20.950 C 75.499 17.130, 71.083 16.978, 65.927 20.551 C 62.370 23.016, 62.021 23.062, 55.552 21.936 C 46.614 20.379, 37.723 21.083, 34.237 23.623 C 32.731 24.720, 30.487 27.599, 29.250 30.020 C 27.100 34.228, 27 35.500, 27 58.601 C 27 80.924, 27.147 82.960, 28.913 85.139 C 32.118 89.093, 39.065 88.286, 54.121 82.210 C 61.062 79.408, 68.037 76.978, 69.621 76.808 C 74.365 76.300, 74.054 80.692, 68.582 91.462 L 63.990 100.500 51.354 109.500 C 44.404 114.450, 35.069 121.200, 30.609 124.500 C 17.268 134.371, 20.302 136.404, 38.921 130.068 C 45.495 127.830, 51.611 126, 52.513 126 C 53.416 126, 55.469 127.315, 57.077 128.923 C 59.358 131.204, 60 132.748, 60 135.948 C 60 145.789, 51.202 161.781, 38.927 174.250 C 31.844 181.445, 31.001 182, 27.149 182 C 22.850 182, 21.989 182.916, 24.404 184.920 C 27.061 187.125, 49.123 182.514, 59 177.689 C 67.596 173.490, 77.362 163.714, 82.203 154.463 C 86.427 146.391, 90.564 132.979, 91.568 124.098 L 92.258 118 89.194 118 C 84.933 118, 81 116.339, 81 114.539 C 81 110.471, 96.574 103.962, 108 103.254 C 114.603 102.845, 115.829 103.050, 118.250 104.968 C 121.914 107.869, 122.062 113.734, 118.585 118.317 C 113.133 125.504, 108.396 147.099, 109.330 160.500 C 110.309 174.531, 115.053 182.860, 123.335 185.090 C 128.810 186.564, 136.575 184.680, 137.411 181.673 C 137.744 180.478, 138.689 171.625, 139.512 162 C 142.017 132.675, 143.612 127.314, 150.709 124.348 C 154.778 122.648, 162.304 123.138, 169.130 125.546 L 173.018 126.918 176.832 122.093 C 182.043 115.501, 183.586 111.582, 182.183 108.503 C 180.028 103.772, 176.419 102.944, 151.636 101.498 C 125.312 99.961, 118.206 98.286, 115.138 92.893 C 113.733 90.422, 112.889 90.012, 109.202 90.006 C 105.896 90.001, 104.365 89.417, 102.565 87.475 C 98.553 83.146, 97.599 77.322, 96.015 47.500 C 95.518 38.150, 94.818 29.519, 94.458 28.320 C 93.913 26.506, 94.480 25.796, 97.842 24.081 L 101.881 22.020 102.403 26.260 C 102.690 28.592, 103.119 38.825, 103.356 49 C 103.785 67.365, 105.573 79.770, 108.303 83.319 C 108.961 84.175, 113.100 85.647, 117.500 86.591 C 127.314 88.696, 154.312 88.998, 164 87.111 C 185.126 82.996, 191.897 72.198, 181.719 58.854 C 178.419 54.527, 176.333 53.721, 176.713 56.919 C 176.838 57.971, 175.939 59.163, 174.539 59.800 C 169.564 62.067, 156.199 64.103, 146.046 64.141 C 135.769 64.180, 130.897 63.261, 129.514 61.023 C 127.498 57.761, 145.508 47.514, 158.434 44.569 C 166.353 42.764, 169.612 40.945, 171.210 37.439 C 172.928 33.667, 170.488 30.121, 164.185 27.231 C 159.682 25.166, 157.685 24.848, 151.107 25.147 C 144.585 25.444, 142.567 25.980, 138.489 28.501 C 132.833 31.998, 126.141 40.541, 127.777 42.177 C 128.514 42.914, 129.610 41.995, 131.431 39.110 C 138.399 28.071, 153.416 24.112, 164.592 30.367 C 172.023 34.526, 169.046 39.912, 158.189 41.953 C 149.779 43.533, 146.209 44.851, 138.972 49.045 C 127.178 55.881, 124.115 61.064, 129.705 64.726 C 135.920 68.799, 165.171 67.093, 175.332 62.066 C 179.094 60.204, 179.421 60.187, 180.657 61.791 C 181.381 62.731, 182.494 65.164, 183.130 67.198 C 186.492 77.955, 174.493 84.346, 148.500 85.645 C 136.907 86.224, 121.744 85.049, 113.910 82.964 C 110.910 82.166, 110.127 81.368, 109.154 78.118 C 107.210 71.631, 106.114 59.480, 105.659 39.362 L 105.226 20.224 112.363 18.109 C 119.390 16.026, 126.315 15.416, 129.418 16.607 C 131.382 17.360, 131.423 21.635, 129.500 25 C 127.791 27.989, 127.610 30, 129.049 30 C 130.342 30, 133.948 22.263, 133.978 19.424 C 133.990 18.283, 132.958 16.370, 131.686 15.174 C 128.918 12.575, 122.419 12.346, 114.197 14.559 M 99 19 C 98.207 19.490, 97.783 20.116, 98.058 20.391 C 98.333 20.666, 99.207 20.490, 100 20 C 100.793 19.510, 101.217 18.884, 100.942 18.609 C 100.667 18.334, 99.793 18.510, 99 19 M 69.222 21.663 C 65.410 23.540, 65.661 24.032, 71.276 25.690 C 76.164 27.133, 76.682 26.837, 75.436 23.312 C 74.243 19.936, 73.259 19.675, 69.222 21.663 M 37.096 25.197 C 30.105 28.986, 28.746 35.830, 29.640 62.734 C 30.144 77.888, 30.656 83.299, 31.665 84.137 C 33.974 86.053, 40.967 84.507, 54.248 79.146 C 71.903 72.020, 76.998 72.403, 75.660 80.758 C 74.652 87.051, 67.387 100.513, 62.949 104.312 C 60.739 106.203, 51.718 112.802, 42.901 118.977 C 34.084 125.151, 27.056 130.389, 27.282 130.616 C 27.509 130.843, 33.018 129.193, 39.523 126.950 C 52.531 122.465, 54.249 122.464, 59.258 126.939 C 62.273 129.633, 62.499 130.280, 62.483 136.168 C 62.455 146.715, 55.179 160.760, 42.498 174.750 C 37.337 180.443, 37.046 181, 39.235 181 C 40.556 181, 44.081 180.274, 47.068 179.388 C 67.692 173.265, 81.251 157.835, 86.953 134 C 89.874 121.788, 89.817 121.443, 84.640 120.139 C 79.364 118.811, 77.559 116.893, 78.407 113.515 C 80.270 106.092, 106.040 97.548, 116.326 100.943 C 123.936 103.454, 126.320 111.492, 121.544 118.531 C 115.603 127.284, 111.540 145.080, 112.190 159.500 C 112.986 177.174, 119.540 184.842, 131.760 182.398 C 135.272 181.696, 135.098 182.527, 137.476 155.136 C 139.107 136.359, 139.920 132.216, 142.944 127.299 C 146.841 120.958, 155.045 119.132, 166.877 121.971 C 173.017 123.443, 174.285 122.708, 178.138 115.447 C 182.651 106.939, 179.053 105.471, 150.308 104.091 C 125.380 102.894, 117.558 100.942, 113.193 94.830 C 112.313 93.598, 110.624 93, 108.020 93 C 105.080 93, 103.453 92.300, 101.230 90.076 C 96.644 85.490, 94.890 77.315, 93.920 56.012 C 92.918 34.027, 92.214 28, 90.645 28 C 88.640 28, 76.531 36.613, 71.104 41.898 C 65.931 46.938, 63 52.053, 63 56.045 C 63 59.066, 67.964 63.609, 72.873 65.080 C 81.816 67.759, 74.134 71.637, 61.827 70.656 C 55.091 70.119, 50.745 67.799, 48.432 63.504 C 44.680 56.536, 48.608 40.906, 56.816 30.153 C 58.643 27.761, 59.888 25.555, 59.584 25.250 C 58.294 23.960, 39.460 23.916, 37.096 25.197" stroke="none" fill="black" fill-rule="evenodd"/>
</svg>