<svg xmlns="http://www.w3.org/2000/svg" width="200" height="200" viewBox="0 0 200 200" version="1.1">
	<path d="M 100 9.727 C 98.068 10.706, 95.746 13.010, 94.818 14.870 C 91.807 20.900, 88.642 21.998, 74.226 22.014 C 67.227 22.021, 60.488 22.299, 59.250 22.630 C 55.464 23.645, 56.684 26.343, 62.500 29.822 C 65.525 31.632, 67.985 33.424, 67.966 33.806 C 67.947 34.188, 64.685 36.886, 60.716 39.801 L 53.500 45.102 52.954 40.801 C 51.764 31.423, 47.006 28.272, 36.054 29.610 C 32.449 30.050, 28.233 30.285, 26.685 30.132 C 20.360 29.508, 15.792 36.158, 14.483 47.895 C 14.091 51.412, 14.347 65.362, 15.053 78.895 C 16.243 101.722, 16.205 104.114, 14.532 112 C 13.541 116.675, 12.538 126.125, 12.305 133 C 11.943 143.657, 12.148 146.016, 13.690 148.999 C 17.394 156.161, 23.289 156.268, 34.520 149.378 C 47.290 141.544, 49 140.716, 49 142.368 C 49 143.294, 50.493 144.321, 52.750 144.947 C 64.666 148.257, 72.432 143.416, 75.089 131.022 C 76.236 125.675, 76.017 110.065, 74.390 81 L 73.746 69.500 77.373 62.667 C 80.264 57.220, 81 54.727, 81 50.377 C 81 44.805, 78.655 38.618, 75.573 36.061 C 74.708 35.343, 74 34.392, 74 33.949 C 74 32.761, 88.385 24, 90.334 24 C 91.822 24, 92 25.776, 92 40.599 C 92 58.158, 90.942 63.249, 87.035 64.489 C 86.061 64.798, 84.513 65.880, 83.596 66.894 C 82.017 68.639, 82.054 68.712, 84.310 68.281 C 88.213 67.535, 89.502 74.186, 89.490 95 C 89.475 119.903, 85.732 135.077, 76.075 149.390 C 70.730 157.309, 64.672 169.336, 63.602 174.147 C 63.207 175.926, 63.620 177.544, 64.862 179.079 C 66.590 181.211, 66.931 181.271, 70.043 179.982 C 77.249 176.997, 95.762 158.575, 103.188 147 C 106.419 141.964, 111.802 125.850, 115.548 110 L 118.030 99.500 117.503 123.640 C 116.937 149.590, 117.726 159.169, 121.075 166.952 C 126.707 180.046, 138.030 183.891, 159.959 180.156 C 171.043 178.269, 171.541 178.074, 175.141 174.215 C 179.520 169.520, 181.255 164.028, 181.219 154.967 C 181.141 134.963, 170.630 126.313, 161.538 138.770 C 159.639 141.372, 157.105 146.105, 155.907 149.288 C 154.708 152.471, 153.227 154.926, 152.614 154.743 C 150.729 154.180, 147.055 145.756, 145.506 138.448 C 142.666 125.037, 143.804 94.898, 147.686 80.749 L 149.264 74.999 155.882 72.997 C 159.522 71.896, 165.336 69.811, 168.802 68.363 C 174.008 66.189, 175.051 65.363, 174.802 63.615 C 174.513 61.590, 173.966 61.500, 162 61.500 C 155.125 61.500, 143.028 61.898, 135.118 62.385 L 120.736 63.270 121.334 57.885 C 121.662 54.923, 122.219 49.072, 122.571 44.882 L 123.210 37.265 128.917 40.116 C 135.390 43.351, 147.788 45.638, 153.273 44.609 C 161.711 43.026, 161.051 36.869, 151.787 30.753 C 148.879 28.834, 144.475 26.251, 142 25.014 C 139.525 23.776, 134.307 20.789, 130.404 18.375 C 116.463 9.751, 105.889 6.743, 100 9.727 M 99.306 13.580 L 96.500 16.160 99 15.477 C 100.375 15.101, 103.970 14.243, 106.990 13.570 C 112.426 12.358, 112.447 12.339, 109.115 11.673 C 103.672 10.584, 102.266 10.858, 99.306 13.580 M 119.797 17.994 C 120.733 19.640, 122.287 20.990, 123.250 20.994 C 125.126 21, 125.655 23.477, 124 24.500 C 123.450 24.840, 123 26.869, 123 29.008 C 123 32.238, 123.552 33.306, 126.250 35.298 C 128.037 36.618, 131.525 38.491, 134 39.460 C 139.143 41.472, 153.794 42.597, 155.921 41.143 C 158.376 39.464, 154.675 35.408, 146.439 30.750 C 142.306 28.412, 134.554 23.915, 129.212 20.756 C 123.871 17.597, 119.183 15.010, 118.797 15.006 C 118.410 15.003, 118.860 16.347, 119.797 17.994 M 101.046 17.918 C 93.110 21.135, 94.573 22.228, 106.304 21.844 C 112.098 21.655, 117.212 21.124, 117.669 20.664 C 118.126 20.204, 117.438 18.967, 116.139 17.914 C 113.149 15.490, 107.030 15.492, 101.046 17.918 M 95 39.726 C 95 56.449, 94.271 61.018, 91.056 64.441 C 89.159 66.460, 89.138 66.799, 90.611 71.531 C 93.078 79.454, 93.539 99.537, 91.561 112.947 C 89.141 129.360, 85.322 140.378, 78.497 150.634 C 69.369 164.352, 63.724 178, 67.179 178 C 71.791 178, 91.722 159.216, 99.674 147.376 C 104.273 140.529, 109.011 126.171, 113.550 105.325 C 115.607 95.878, 117.624 87.608, 118.033 86.947 C 118.451 86.270, 119.329 86.086, 120.040 86.525 C 121.038 87.142, 121.156 93.838, 120.603 118.469 C 119.685 159.321, 120.783 166.212, 129.414 173.790 C 135.656 179.271, 143.835 180.236, 160.158 177.420 C 171.058 175.538, 173.173 174.318, 176.194 168.167 C 180.829 158.729, 178.287 139.365, 171.969 135.984 C 170.127 134.998, 169.305 135.124, 167.125 136.730 C 164.069 138.981, 159.907 146.089, 156.879 154.228 L 154.748 159.957 151.936 157.954 C 147.895 155.077, 144.098 146.552, 142.313 136.348 C 139.535 120.464, 141.743 86.711, 146.268 75.911 C 147.593 72.747, 148.377 72.296, 157.098 69.679 C 174.234 64.537, 173.941 63.806, 155 64.446 C 145.925 64.752, 133.880 65.293, 128.233 65.648 L 117.966 66.293 118.733 57.396 C 119.155 52.503, 119.500 43.100, 119.500 36.500 L 119.500 24.500 107.250 24.219 L 95 23.938 95 39.726 M 61 25.351 C 61 25.543, 63.274 27.114, 66.052 28.842 L 71.105 31.983 76.289 28.491 L 81.473 25 71.237 25 C 65.606 25, 61 25.158, 61 25.351 M 28.784 32.738 C 24.126 33.031, 22.705 33.559, 21.108 35.589 C 16.843 41.011, 16.160 52.059, 18.127 83.783 C 19.113 99.681, 19.051 103.137, 17.649 110.283 C 13.488 131.496, 13.425 145.058, 17.466 149.756 C 20.536 153.324, 24.429 152.357, 36.625 144.998 C 42.056 141.721, 47.288 139.031, 48.250 139.020 C 49.213 139.009, 50.900 139.900, 52 141 C 53.524 142.524, 55.333 143, 59.599 143 C 64.530 143, 65.532 142.642, 67.999 140.001 C 73.448 134.168, 74.562 120.229, 72.030 89.586 C 70.604 72.337, 70.973 68.806, 74.948 61.700 C 78.920 54.598, 79.638 49.960, 77.594 44.608 C 75.654 39.526, 71.738 35.458, 69.824 36.536 C 69.096 36.945, 64.838 40.030, 60.362 43.390 L 52.225 49.500 50.906 59 C 49.390 69.924, 49.155 81.190, 50.284 88.750 C 50.914 92.962, 50.791 94, 49.665 94 C 48.108 94, 47.092 89.405, 46.901 81.500 L 46.781 76.500 45.999 80.500 C 44.984 85.686, 42.991 109.803, 43.032 116.393 C 43.060 120.997, 43.202 121.317, 44.469 119.644 C 45.243 118.623, 46.670 115.579, 47.641 112.879 C 48.612 110.178, 49.877 108.135, 50.453 108.338 C 51.875 108.840, 51.309 111.444, 48.313 118.184 C 45.941 123.520, 43.844 125.640, 42.041 124.525 C 39.488 122.947, 40.080 107.624, 44.110 71 C 45.830 55.368, 46.627 51.090, 48.128 49.436 C 51.059 46.203, 50.726 37.635, 47.545 34.455 C 44.958 31.867, 44.005 31.780, 28.784 32.738" stroke="none" fill="black" fill-rule="evenodd"/>
</svg>