<svg xmlns="http://www.w3.org/2000/svg" width="200" height="200" viewBox="0 0 200 200" version="1.1">
	<path d="M 139.500 20.827 L 126.500 29.500 113 29.385 C 105.575 29.321, 89.825 29.096, 78 28.885 C 52.780 28.433, 49.711 29.113, 43.109 36.613 C 38.198 42.193, 36.519 48.527, 37.342 58.366 C 37.856 64.494, 36.550 73.750, 28.086 124 C 22.666 156.175, 18.398 182.784, 18.601 183.131 C 18.805 183.478, 21.790 183.177, 25.235 182.462 C 51.602 176.990, 116.892 173.924, 130 177.542 C 139.051 180.040, 151.665 180.530, 158.177 178.637 C 168.959 175.502, 173.528 166.146, 166.971 160.629 C 160.129 154.872, 148.970 156.788, 135.459 166.041 C 131.844 168.517, 130.949 168.717, 126.959 167.948 C 120.675 166.735, 110.451 166.795, 88.293 168.175 C 60.900 169.882, 50.458 168.039, 45.941 160.701 C 44.317 158.064, 44.001 155.914, 44.148 148.500 C 44.246 143.550, 43.969 135.635, 43.532 130.912 C 42.055 114.937, 47.898 105.833, 59.626 105.833 C 65.267 105.833, 69.869 108.531, 72.799 113.556 C 77.777 122.092, 73.904 134.958, 62.761 146.899 C 41.850 169.308, 57.086 168.607, 81.240 146.050 C 95.033 133.168, 100.798 123.971, 103.524 110.500 C 105.536 100.555, 110.445 85.635, 113.136 81.279 C 116.953 75.104, 120.497 77.575, 123.493 88.500 C 125.752 96.733, 126.643 121.841, 125.056 132.507 C 123.834 140.724, 123.837 140.747, 127.005 148.357 C 130.664 157.147, 134.676 162, 138.283 162 C 142.014 162, 145.848 157.377, 152.511 144.841 C 159.440 131.803, 167.015 123, 171.307 123 C 175.223 123, 174.567 120.785, 170.032 118.695 C 159.808 113.984, 154.936 98.264, 151.529 59 C 150.694 49.375, 149.802 40.302, 149.548 38.838 C 149.110 36.319, 149.351 36.139, 154.032 35.496 C 159.941 34.683, 165.375 31.303, 165.827 28.158 C 166.182 25.691, 163.606 21, 161.896 21 C 161.315 21, 154.525 23.950, 146.808 27.555 C 127.076 36.773, 125.640 35.763, 141.897 24.100 C 153.642 15.675, 157.410 11.852, 153.750 12.077 C 153.063 12.119, 146.650 16.056, 139.500 20.827 M 150.500 28.935 C 144.784 31.736, 141.411 33.870, 142.628 33.918 C 143.798 33.963, 145.320 33.319, 146.010 32.488 C 146.968 31.334, 147.591 31.246, 148.638 32.115 C 150.345 33.531, 157.575 32.504, 160.811 30.386 C 163.127 28.871, 163.570 24.990, 161.500 24.345 C 160.950 24.174, 156 26.239, 150.500 28.935 M 60.065 31.135 C 54.255 32.099, 52.242 33, 55.899 33 C 58.731 33, 62.222 34.832, 61.528 35.955 C 61.237 36.425, 59.312 36.588, 57.250 36.317 C 54.074 35.900, 53.102 36.259, 50.900 38.663 C 47.385 42.498, 45.400 48.012, 43.940 57.996 C 42.534 67.610, 43.226 91.230, 45.097 97.500 L 46.290 101.500 47.737 98.033 C 48.532 96.126, 49.596 88.701, 50.100 81.533 C 51.460 62.224, 55.088 51.767, 62.866 44.740 C 73.041 35.548, 84.998 38.852, 89.044 51.974 L 90.589 56.983 104.544 47.247 L 118.500 37.511 111 36.684 C 106.875 36.230, 97.277 36.108, 89.672 36.414 C 78.947 36.845, 75.936 36.693, 76.254 35.735 C 76.562 34.812, 82.582 34.432, 100.052 34.231 C 112.914 34.083, 123.769 33.633, 124.174 33.231 C 124.578 32.829, 121.867 32.646, 118.150 32.824 C 114.432 33.003, 102.934 32.440, 92.599 31.574 C 71.991 29.848, 68.141 29.796, 60.065 31.135 M 48.385 35.222 C 42.173 40.008, 40.138 44.792, 40.188 54.500 L 40.224 61.500 41.146 56.500 C 43.003 46.442, 45.989 39.217, 49.601 36.045 C 53.599 32.535, 52.680 31.914, 48.385 35.222 M 120.203 39.429 C 114.971 43.129, 115.114 43.435, 120.750 40.603 C 123.638 39.153, 126 37.749, 126 37.483 C 126 36.347, 123.262 37.266, 120.203 39.429 M 122.500 42.607 C 109.350 49.767, 94.393 58.822, 93.058 60.430 C 92.212 61.449, 93.895 61.885, 101.247 62.554 C 106.336 63.017, 113.198 63.419, 116.495 63.448 L 122.491 63.500 128.212 55.104 C 131.359 50.486, 135.775 44.523, 138.026 41.854 L 142.119 37 137.310 37.081 C 133.466 37.146, 130.491 38.257, 122.500 42.607 M 140.329 43.250 C 137.568 46.688, 132.985 52.974, 130.144 57.220 C 127.303 61.467, 124.006 65.462, 122.817 66.098 C 121.146 66.992, 116.957 66.857, 104.404 65.505 L 88.154 63.754 84.962 66.027 L 81.770 68.300 86.814 72.900 C 92.509 78.094, 94 80.568, 94 84.823 C 94 89.121, 91.132 91.999, 85.355 93.498 C 76.205 95.871, 67 92.028, 67 85.833 C 67 82.550, 69.665 77.378, 73.653 72.922 C 75.769 70.558, 76.938 68.960, 76.250 69.371 C 75.413 69.871, 75 69.438, 75 68.059 C 75 66.927, 75.457 66, 76.015 66 C 76.574 66, 79.478 64.375, 82.468 62.390 C 87.533 59.027, 87.865 58.564, 87.309 55.640 C 85.811 47.766, 80.615 42, 75.018 42 C 71.746 42, 66.763 44.455, 63.644 47.602 C 57.319 53.986, 53 67.756, 53 81.539 C 53 88.768, 51.437 97.168, 49.321 101.312 C 45.688 108.425, 41.581 99.966, 40.380 82.896 L 39.649 72.500 38.339 79.500 C 34.383 100.633, 21.753 179.087, 22.231 179.564 C 22.540 179.873, 25.559 179.624, 28.940 179.011 C 48.755 175.418, 94.319 172.386, 115 173.285 C 121.875 173.583, 130.650 174.580, 134.500 175.500 C 148.651 178.881, 164.151 176.109, 166.394 169.796 C 170.648 157.821, 153.627 156.788, 137.556 168.046 C 132.232 171.775, 131.588 171.980, 128.170 171.030 C 123.435 169.715, 106.705 169.726, 86.479 171.058 C 59.581 172.829, 47.924 170.114, 43.177 160.973 C 41.193 157.151, 40.951 155.627, 41.517 150.500 C 42.353 142.919, 42.393 143.947, 40.879 134.242 C 38.696 120.249, 42.452 109.361, 50.961 105.020 C 58.577 101.135, 69.257 103.339, 73.812 109.737 C 76.632 113.697, 78.278 120.663, 77.546 125.542 C 76.666 131.410, 70.869 142.928, 66.998 146.500 C 62.988 150.200, 56 158.848, 56 160.110 C 56 163.244, 74.458 149.544, 84.582 138.897 C 95.054 127.883, 97.506 123.285, 101.487 107.198 C 107.059 84.682, 111.909 75, 117.619 75 C 122.093 75, 126.159 84.250, 128.108 98.863 C 129.325 107.990, 128.786 131.249, 127.236 136.500 C 126.229 139.911, 129.152 148.608, 133.525 155.217 C 138.482 162.707, 141.628 160.233, 151.585 141.014 C 154.540 135.311, 158.582 129.362, 161.721 126.095 L 166.942 120.661 163.106 116.499 C 155.825 108.600, 151.959 93.620, 148.976 61.745 C 147.889 50.131, 147 39.813, 147 38.815 C 147 35.775, 145.569 36.726, 140.329 43.250 M 76.347 74.250 C 69.764 81.276, 68.274 86.141, 71.750 89.260 C 76.117 93.179, 87.590 92.082, 90.622 87.455 C 91.987 85.372, 92.043 84.518, 90.983 81.960 C 89.846 79.213, 81.657 71, 80.055 71 C 79.691 71, 78.022 72.463, 76.347 74.250" stroke="none" fill="black" fill-rule="evenodd"/>
</svg>