<svg xmlns="http://www.w3.org/2000/svg" width="200" height="200" viewBox="0 0 200 200" version="1.1">
	<path d="M 122.500 9.707 C 116.300 10.548, 102.832 14.034, 99.725 15.601 C 94.410 18.282, 91 22.062, 91 25.270 C 91 27.165, 91.432 28.008, 92.250 27.708 C 92.938 27.456, 93.366 26.679, 93.202 25.980 C 92.688 23.791, 98.149 19.088, 103.552 17.067 C 112.238 13.816, 124.464 12, 137.653 12 C 169.704 12, 187.129 22.315, 184.516 39.740 C 184.155 42.150, 182.484 47.353, 180.803 51.304 L 177.746 58.486 178.369 76.993 C 180.111 128.723, 180.217 138.707, 179.099 145.858 C 176.656 161.482, 171.313 172.335, 162.719 179.128 L 157.800 183.016 153.741 180.758 C 151.508 179.516, 148.362 176.700, 146.750 174.500 C 142.311 168.442, 143.059 162.824, 150.410 147 C 158.801 128.939, 161.086 121.854, 161.713 111.956 C 162.319 102.379, 161.231 95.919, 157.399 86.339 L 154.825 79.906 157.560 73.203 C 159.499 68.452, 160.435 64.091, 160.774 58.228 C 161.223 50.474, 161.055 49.553, 158.085 43.520 C 152.927 33.044, 143.281 26.207, 129.626 23.350 C 110.445 19.336, 98.895 29.176, 107.509 42.193 C 108.942 44.358, 110.426 45.984, 110.807 45.807 C 111.188 45.630, 114.425 43.960, 118 42.096 C 122.828 39.579, 126.180 38.585, 131.032 38.235 C 136.975 37.805, 137.844 37.998, 140.672 40.377 C 147.860 46.426, 149.357 56.940, 148.637 96.313 L 148.089 126.306 144.999 130.151 C 141.098 135.005, 136.424 137.597, 134.479 135.983 C 130.941 133.046, 130.494 128.219, 130.779 96.047 C 131.073 62.818, 130.430 55.604, 126.884 52.395 C 125.044 50.730, 124.624 50.700, 122.182 52.066 C 119.755 53.423, 119.441 54.275, 118.881 61.033 C 118.540 65.140, 118.199 75.700, 118.122 84.500 C 117.882 112.149, 115.424 130.721, 109.869 146.878 L 108.020 152.255 111.886 156.121 C 119.263 163.498, 119.658 169.292, 113.086 173.721 C 107.435 177.530, 102.340 178.500, 88 178.500 C 76.231 178.500, 73.987 178.231, 70.500 176.403 C 68.300 175.250, 66.353 173.552, 66.172 172.631 C 65.763 170.537, 71.053 165.353, 77.223 161.801 C 81.585 159.291, 82.062 158.605, 84.080 151.964 C 86.656 143.480, 86.231 137.896, 82.498 131.217 C 81.124 128.759, 80 126.139, 80 125.394 C 80 123.632, 88.393 118.873, 97.772 115.317 L 105.203 112.500 104.611 107.401 C 102.873 92.449, 96.662 86.021, 88.187 90.403 C 85.351 91.870, 77.833 99.486, 72.049 106.750 C 70.188 109.088, 68.358 111, 67.982 111 C 67.254 111, 68.154 104.417, 69.895 97 C 70.476 94.525, 70.962 91.908, 70.976 91.184 C 71.007 89.483, 60.432 97.660, 51.764 106.038 C 42.449 115.042, 42.527 116.584, 52.721 124.886 C 59 129.999, 63.462 138.423, 64.965 148 C 66.864 160.105, 66.664 160.917, 60.250 167.147 C 52.287 174.881, 44.186 181, 41.910 181 C 39.529 181, 39.433 178.029, 41.529 169.140 C 42.353 165.642, 43.697 158.942, 44.515 154.251 C 47.392 137.758, 42.881 132.499, 29.328 136.544 C 27.565 137.070, 26.648 136.425, 24.457 133.115 C 22.949 130.835, 21.532 127.028, 21.245 124.482 C 20.491 117.791, 25.720 107.918, 35.913 96.785 C 44.623 87.272, 46.438 84.583, 45.608 82.422 C 44.835 80.407, 36.424 80.623, 26 82.925 C 21.325 83.958, 17.356 84.666, 17.180 84.498 C 16.543 83.892, 21.319 75.374, 25.309 70 C 27.555 66.975, 32.881 60.360, 37.144 55.301 C 45.962 44.836, 48.252 40.968, 47.810 37.283 C 47.287 32.924, 43.306 30.900, 33.998 30.262 C 24.316 29.599, 24.482 29.196, 36.893 23.208 C 50.212 16.783, 60.666 18.523, 65.762 28.013 C 67.846 31.894, 68.116 33.515, 67.764 40.020 C 67.059 53.050, 60.479 64.176, 48.906 71.904 L 42.808 75.976 45.654 77.077 C 57.252 81.563, 73.659 81.989, 82.742 78.040 C 102.599 69.406, 101.161 46.587, 79.182 21.554 C 76.371 18.353, 74 17.002, 74 18.601 C 74 18.931, 76.770 22.644, 80.157 26.851 C 101.457 53.316, 97.425 76.081, 71.132 77.797 C 64.016 78.262, 49.975 76.507, 50.024 75.159 C 50.037 74.797, 51.878 73.150, 54.114 71.500 C 62.516 65.303, 69.912 52.016, 70.736 41.639 C 71.372 33.627, 69.706 27.787, 65.435 23.060 C 60.779 17.906, 57.428 16.688, 49.268 17.183 C 41.120 17.678, 32.679 21.236, 23.122 28.204 L 16.543 33 27.521 33.100 C 39.656 33.210, 42.828 33.780, 44.303 36.118 C 46.090 38.952, 44.209 42.387, 34.226 54.525 C 23.070 68.089, 19.403 73.254, 15.635 80.717 C 12.518 86.888, 12.239 89.370, 14.750 88.594 C 18.578 87.411, 33.775 84.083, 38.250 83.447 C 41.420 82.997, 43 83.135, 43 83.861 C 43 84.460, 39.603 88.673, 35.450 93.225 C 16.607 113.880, 13.517 126.608, 24.752 137.285 C 27.298 139.705, 28.041 139.935, 30.407 139.035 C 31.905 138.466, 34.621 138, 36.443 138 C 43.469 138, 44.117 142.584, 39.971 162.992 C 36.403 180.552, 36.612 184, 41.242 184 C 44.305 184, 51.899 178.748, 60.870 170.427 L 68.240 163.591 67.793 153.045 C 67.158 138.079, 62.992 129.218, 53.014 121.608 C 46.029 116.282, 46.279 114.804, 55.649 106.054 C 59.856 102.125, 64.199 98.429, 65.301 97.839 C 67.036 96.910, 67.207 97.016, 66.579 98.634 C 66.181 99.660, 65.598 103.537, 65.283 107.250 C 64.742 113.627, 64.826 114, 66.815 114 C 68.024 114, 70.532 112.203, 72.710 109.776 C 83.248 98.031, 88.471 93.032, 91.193 92.083 C 93.854 91.155, 94.503 91.349, 96.969 93.815 C 98.745 95.591, 100.154 98.489, 100.874 101.846 C 102.707 110.393, 102.699 110.408, 95.250 113.347 C 85.184 117.318, 78.122 121.667, 77.460 124.303 C 77.089 125.782, 77.961 128.625, 79.944 132.393 C 83.428 139.018, 83.816 143.889, 81.483 151.744 C 80.099 156.407, 79.337 157.271, 72.733 161.676 C 59.439 170.543, 60.077 176.701, 74.684 180.506 C 91.707 184.940, 114.889 179.846, 119.362 170.688 C 121.115 167.100, 121.129 166.625, 119.600 162.622 C 118.706 160.282, 116.479 156.918, 114.649 155.145 L 111.323 151.921 113.602 144.052 C 118.998 125.423, 119.622 120.082, 120.958 81.136 C 121.859 54.875, 122.399 51.971, 125.757 55.328 C 127.340 56.911, 127.520 60.308, 127.713 92.285 C 127.943 130.356, 128.457 134.759, 133.071 138.204 C 136.524 140.782, 139.702 139.471, 146.051 132.849 L 151 127.688 151.117 111.094 C 151.181 101.967, 151.519 91.575, 151.867 88 L 152.500 81.500 155.388 88.500 C 157.709 94.124, 158.369 97.466, 158.745 105.500 C 159.346 118.351, 157.922 123.855, 148.883 143.618 C 140.669 161.574, 139.661 166.602, 142.921 173.337 C 145.108 177.854, 148.794 181.310, 154.632 184.316 C 157.683 185.888, 157.885 185.849, 162.459 182.819 C 170.879 177.242, 176.745 167.765, 180.605 153.500 C 182.303 147.229, 182.459 143.636, 182.106 119 C 181.195 55.503, 181.168 56.311, 184.431 49 C 187.829 41.387, 188.370 32.456, 185.738 27.425 C 181.557 19.431, 170.947 13.205, 156.992 10.558 C 149.415 9.121, 130.296 8.649, 122.500 9.707 M 113.513 26.507 C 109.233 28.032, 107 30.311, 107 33.157 C 107 35.300, 110.086 42, 111.073 42 C 111.459 42, 114.863 40.553, 118.638 38.785 C 127.910 34.440, 136.063 33.849, 140.946 37.166 C 147.398 41.549, 150.425 50.087, 151.628 67.297 L 152.342 77.500 154.683 72.370 C 164.301 51.291, 154.786 32.607, 131.320 26.495 C 124.237 24.650, 118.718 24.654, 113.513 26.507" stroke="none" fill="black" fill-rule="evenodd"/>
</svg>