<svg xmlns="http://www.w3.org/2000/svg" width="200" height="200" viewBox="0 0 200 200" version="1.1">
	<path d="M 82.925 12.305 C 79.309 12.985, 75.164 14.318, 73.714 15.268 C 71.440 16.758, 70.358 16.841, 65.841 15.872 C 43.225 11.022, 19 27.999, 19 48.700 C 19 59.955, 24.273 66.589, 36.756 71.038 C 52.744 76.737, 73.624 71.732, 86.880 59.022 C 91.679 54.421, 96 47.587, 96 44.599 C 96 43.784, 96.377 42.885, 96.837 42.600 C 97.298 42.316, 97.696 45.415, 97.723 49.488 C 97.801 61.609, 102.173 68.354, 111.596 70.891 C 116.206 72.132, 119.220 76.318, 116.309 77.435 C 115.444 77.767, 99.125 77.991, 80.044 77.933 C 44.659 77.826, 37 78.468, 37 81.539 C 37 82.650, 38.376 83.002, 42.750 83.008 C 55.024 83.024, 69.198 86.494, 70.487 89.799 C 71.509 92.418, 64.144 98.334, 55.206 102.075 C 48.432 104.910, 45.564 105.460, 31.500 106.618 C 22.700 107.342, 15.162 107.950, 14.750 107.967 C 13.332 108.029, 14.001 110.787, 15.582 111.393 C 18.454 112.495, 30.394 111.995, 36.697 110.509 C 46.277 108.250, 58.176 111.112, 63.450 116.943 C 67.559 121.487, 65.167 128.879, 58.010 133.750 C 55.197 135.665, 53.386 136, 45.852 136 C 38.895 136, 37 136.302, 37 137.412 C 37 139.192, 42.363 140.101, 51.100 139.800 C 59.056 139.527, 63 141.495, 63 145.739 C 63 149.745, 51.242 160.623, 34.500 172.107 C 24.803 178.758, 20.500 182.292, 20.500 183.605 C 20.500 186.253, 23.835 185.738, 38.498 180.827 C 52.704 176.069, 57.879 173.316, 78.755 159.404 C 116.087 134.526, 128.992 133.286, 141.029 153.419 L 143.373 157.339 147.219 152.919 C 157.930 140.615, 174.693 111.438, 176.377 102.168 C 177.696 94.911, 172.406 92.814, 164.487 97.455 L 160.298 99.910 159.131 94.705 C 158.490 91.842, 155.957 84.578, 153.504 78.561 C 151.051 72.545, 149.229 67.438, 149.454 67.212 C 149.680 66.987, 154.702 65.589, 160.614 64.105 C 166.526 62.622, 171.544 60.867, 171.765 60.204 C 172.337 58.489, 170.521 58.679, 159.401 61.500 C 153.981 62.875, 148.982 64, 148.293 64 C 147.604 64, 146.140 62.235, 145.039 60.077 C 143.191 56.454, 143.152 55.880, 144.532 52.577 C 145.817 49.502, 145.834 48.544, 144.651 45.750 C 142.863 41.525, 140.672 39.655, 133.847 36.530 C 128.195 33.943, 113.037 30.143, 107.500 29.926 C 105.850 29.861, 111.025 28.528, 119 26.964 C 126.975 25.401, 139.076 22.932, 145.891 21.478 L 158.282 18.835 165.644 22.474 C 176.277 27.729, 178.250 32.627, 172.811 40.266 C 171.394 42.256, 171.076 43.476, 171.789 44.189 C 173.351 45.751, 178.173 37.871, 178.296 33.557 C 178.356 31.415, 177.586 28.916, 176.352 27.254 C 173.791 23.803, 167.347 19.290, 163.834 18.487 C 162.367 18.152, 160.935 17.274, 160.652 16.536 C 160.362 15.779, 158.691 15.204, 156.819 15.218 C 154.993 15.231, 149.450 14.462, 144.500 13.509 C 132.812 11.258, 92.669 10.473, 82.925 12.305 M 98 13.646 C 94.975 13.829, 90.157 14.238, 87.293 14.556 L 82.085 15.133 88.042 20.962 L 93.999 26.790 103.749 24.891 C 109.112 23.846, 120.025 21.845, 128 20.443 C 142.887 17.827, 146.392 17.052, 145.825 16.501 C 144.417 15.132, 108.703 13, 98 13.646 M 74.214 18.583 C 73.437 19.970, 72.568 20.016, 67.148 18.949 C 45.752 14.740, 25.981 26.002, 21.975 44.681 C 19.098 58.094, 29.654 68.852, 47.500 70.695 C 62.144 72.207, 82.717 62.823, 90.027 51.297 C 94.852 43.688, 95.130 38.046, 90.924 33.056 L 88.865 30.611 70.832 33.921 C 55.475 36.739, 52.443 37.040, 50.401 35.947 C 46.523 33.872, 46.415 35.722, 50.280 38.003 C 55.823 41.273, 61.374 56, 57.064 56 C 54.544 56, 40 32.565, 40 28.505 C 40 25.864, 42.133 25.822, 46.011 28.388 C 49.619 30.776, 50.296 30.891, 55.203 29.950 C 58.116 29.391, 66.237 28.654, 73.250 28.312 C 80.263 27.971, 86 27.486, 86 27.234 C 86 26.983, 84.158 24.578, 81.907 21.889 C 77.620 16.769, 75.692 15.940, 74.214 18.583 M 43.638 31.500 C 43.955 32.325, 44.896 33, 45.729 33 C 46.963 33, 47.013 32.721, 46 31.500 C 45.315 30.675, 44.374 30, 43.909 30 C 43.444 30, 43.322 30.675, 43.638 31.500 M 65.813 31.683 C 66.534 31.972, 67.397 31.936, 67.729 31.604 C 68.061 31.272, 67.471 31.036, 66.417 31.079 C 65.252 31.127, 65.015 31.364, 65.813 31.683 M 54 33 C 51.574 33.777, 51.589 33.800, 54.500 33.782 C 56.150 33.772, 58.850 33.420, 60.500 33 L 63.500 32.237 60 32.218 C 58.075 32.208, 55.375 32.560, 54 33 M 96.370 34.250 C 96.701 35.487, 96.979 36.837, 96.986 37.250 C 96.994 37.663, 97.399 38, 97.887 38 C 98.374 38, 98.971 36.650, 99.213 35 C 99.574 32.545, 99.301 32, 97.710 32 C 96.183 32, 95.896 32.482, 96.370 34.250 M 102.597 32.843 C 102.309 33.309, 101.781 35.520, 101.423 37.756 C 100.822 41.516, 101.258 42.595, 107.247 52.160 C 110.807 57.847, 114.470 63.962, 115.386 65.750 C 116.909 68.722, 117.455 69, 121.776 69.002 C 127.844 69.005, 144 66.054, 144 64.943 C 144 63.321, 141.674 59, 140.800 59 C 139.814 59, 133 45.266, 133 43.278 C 133 40.219, 135.982 42.435, 138.604 47.442 C 140.419 50.908, 141.729 52.451, 142.211 51.692 C 144.817 47.593, 139.569 41.465, 130.580 38.110 C 121.415 34.690, 103.536 31.325, 102.597 32.843 M 49.892 42.750 C 51.413 45.518, 53.933 48.578, 53.968 47.700 C 54.030 46.147, 50.935 41, 49.939 41 C 49.278 41, 49.262 41.604, 49.892 42.750 M 100.381 52.586 C 101.427 61.487, 103.571 64.669, 110.463 67.549 L 114.272 69.141 111.517 64.320 C 107.309 56.958, 100.828 47, 100.245 47 C 99.959 47, 100.020 49.514, 100.381 52.586 M 141.597 71.422 C 139.763 75.812, 136.713 77.761, 129.390 79.222 C 126.150 79.869, 123.348 80.497, 123.163 80.619 C 122.977 80.742, 123.838 83.840, 125.076 87.505 C 126.514 91.762, 128.185 94.730, 129.704 95.726 C 134.304 98.740, 134.922 103.255, 130.908 104.529 C 129.320 105.033, 129 106.106, 129 110.918 C 129 125.047, 121.630 133.715, 110.409 132.784 C 96.245 131.609, 89.970 116.398, 95.852 97.500 C 98.281 89.697, 100.432 86.640, 105.833 83.318 L 109.500 81.062 96.500 81.028 C 89.350 81.009, 76.300 80.771, 67.500 80.498 L 51.500 80.004 59.296 81.841 C 68.582 84.030, 72.382 86.522, 72.802 90.699 C 73.045 93.111, 72.366 94.349, 69.350 96.998 C 66.109 99.844, 58.253 104.026, 51.500 106.502 C 49.906 107.087, 50.591 107.549, 54.881 108.782 C 58.297 109.764, 61.674 111.672, 64.131 114.010 C 67.426 117.144, 68 118.314, 68 121.895 C 68 127.041, 66.112 130.883, 61.786 134.539 C 59.876 136.154, 59.002 137.488, 59.700 137.725 C 60.360 137.950, 62.047 139.036, 63.450 140.139 C 70.616 145.776, 62.499 156.265, 38.138 172.852 C 31.391 177.446, 26.056 181.390, 26.283 181.616 C 27.080 182.413, 50.562 173.803, 56 170.721 C 59.025 169.007, 68.925 162.677, 78 156.655 C 99.483 142.400, 108.771 137.892, 118.025 137.230 C 123.145 136.864, 126.185 137.181, 129.424 138.418 C 133.506 139.977, 140.073 145.916, 142.845 150.556 C 143.956 152.416, 144.117 152.371, 146.560 149.500 C 157.139 137.074, 172.808 108.902, 173.257 101.500 C 173.478 97.866, 173.290 97.522, 171.209 97.745 C 169.949 97.880, 166.507 99.533, 163.561 101.418 L 158.204 104.845 157.516 100.259 C 156.076 90.657, 146.953 68, 144.526 68 C 143.701 68, 142.383 69.540, 141.597 71.422 M 123.250 71.732 C 119.245 72.093, 117.882 73.191, 119.894 74.434 C 120.802 74.996, 128 72.378, 128 71.487 C 128 71.219, 127.888 71.079, 127.750 71.175 C 127.612 71.271, 125.588 71.522, 123.250 71.732 M 134.500 72.061 C 133.400 72.571, 130.025 74.108, 127 75.477 C 121.414 78.007, 122.687 78.101, 131.700 75.828 C 135.869 74.776, 140.890 70.924, 137.905 71.068 C 137.132 71.105, 135.600 71.552, 134.500 72.061 M 111.250 83.175 C 109.463 84.280, 108.002 85.480, 108.005 85.842 C 108.010 86.475, 123.155 92.197, 123.587 91.729 C 123.703 91.603, 122.912 89.138, 121.829 86.250 C 120.109 81.664, 119.521 81.010, 117.180 81.083 C 115.706 81.128, 113.037 82.070, 111.250 83.175 M 103.177 89.335 C 102.667 89.976, 101.517 91.943, 100.621 93.708 C 99.058 96.785, 99.082 96.998, 101.193 98.965 C 104.093 101.667, 108.813 102.976, 118.250 103.695 C 125.620 104.257, 126 104.184, 126 102.208 C 126 97.184, 124.264 95.276, 117.253 92.597 C 106.723 88.573, 104.241 87.998, 103.177 89.335 M 128.015 98.536 C 128.043 100.257, 129.871 102.463, 130.636 101.697 C 131.046 101.288, 130.620 100.192, 129.690 99.262 C 128.761 98.332, 128.007 98.005, 128.015 98.536 M 96.954 104.153 C 95.548 109.357, 96.230 117.610, 98.415 121.836 C 102.374 129.491, 112.751 132.792, 118.798 128.321 C 122.796 125.365, 125.770 119.276, 126.528 112.500 L 127.198 106.500 118.849 106.339 C 110.342 106.175, 103.064 104.273, 99.864 101.377 C 98.251 99.918, 98.046 100.113, 96.954 104.153" stroke="none" fill="black" fill-rule="evenodd"/>
</svg>