<svg xmlns="http://www.w3.org/2000/svg" width="200" height="200" viewBox="0 0 200 200" version="1.1">
	<path d="M 76.112 13.118 C 50.415 14.588, 33.209 18.617, 27.250 24.559 C 25.349 26.454, 24 28.817, 24 30.250 C 24 33.948, 29.043 40.080, 35.309 44 C 38.386 45.925, 40.926 47.885, 40.952 48.356 C 40.978 48.826, 39.848 50.581, 38.439 52.255 C 33.387 58.259, 26.521 74.064, 17.104 101.370 C 12.198 115.595, 12.074 116.211, 14.238 115.570 C 15.482 115.202, 19.917 114.160, 24.093 113.255 C 30.879 111.784, 32.100 111.767, 35.582 113.092 C 40.762 115.063, 42.234 118.048, 41.567 125.230 C 40.876 132.666, 38.462 139.681, 29.959 158.954 C 20.072 181.365, 20.721 185.571, 32.682 176.580 C 38.215 172.420, 38.849 171.492, 43.441 160.830 C 50.317 144.864, 55.418 134.845, 58.594 131.071 C 62.205 126.779, 62.500 127.402, 65.555 145.750 C 69.241 167.893, 73.290 177.868, 80.511 182.599 C 83.799 184.754, 84.183 184.246, 82.868 179.484 C 81.049 172.897, 82.195 164.609, 85.597 159.745 C 88.078 156.198, 101.358 144.960, 103 145.018 C 103.275 145.028, 105.021 146.867, 106.879 149.105 L 110.259 153.174 105.669 162.337 C 103.145 167.377, 99.227 173.918, 96.963 176.873 C 94.235 180.432, 93.181 182.581, 93.839 183.239 C 95.150 184.550, 102.313 174.814, 107.809 164.250 C 110.107 159.833, 112.630 155.972, 113.416 155.671 C 114.274 155.341, 114.636 154.324, 114.322 153.125 C 114.035 152.027, 114.770 148.326, 115.955 144.902 C 124.835 119.241, 127.278 87.429, 121.627 71.039 C 120.781 68.586, 120.189 66.478, 120.311 66.356 C 120.433 66.234, 126.713 65.813, 134.266 65.421 L 148 64.709 148 67.881 C 148 69.625, 145.780 82.178, 143.066 95.776 C 135.816 132.101, 134.626 145.695, 138.039 153.186 C 139.458 156.300, 143.255 158.225, 146.415 157.432 C 148.495 156.910, 148.771 156.119, 149.308 149.167 C 149.634 144.939, 151.542 132.035, 153.548 120.490 C 159.372 86.969, 158.551 73.181, 150.122 62.962 C 146.829 58.970, 138.487 54.506, 132.500 53.534 C 130.300 53.177, 127.514 52.684, 126.308 52.438 L 124.116 51.991 126.166 47.357 C 131.912 34.369, 120.105 22.141, 95.500 15.595 C 92.070 14.683, 128.026 15.974, 137.312 17.097 C 142.158 17.683, 148.008 18.734, 150.312 19.432 L 154.500 20.701 151 21.663 C 147.840 22.531, 147.433 23.055, 146.804 27.062 C 145.875 32.993, 146.823 41.589, 148.948 46.500 C 151.201 51.704, 156.986 56.833, 165.872 61.502 C 174.211 65.884, 178.457 70.288, 180.077 76.237 C 181.724 82.281, 180.589 97.732, 177.733 108.159 C 175.649 115.767, 175.470 117.770, 176.257 124.659 C 177.393 134.598, 176.590 148.952, 174.516 155.764 C 173.635 158.659, 171.478 162.664, 169.723 164.663 C 164.098 171.069, 162.166 171.479, 137.500 171.490 C 118.371 171.499, 114.954 171.739, 111.313 173.333 C 108.551 174.543, 107.308 175.640, 107.661 176.559 C 108.103 177.712, 108.735 177.655, 111.347 176.225 C 114.044 174.750, 117.613 174.490, 136 174.431 C 160.222 174.354, 164.158 173.659, 169.937 168.438 C 177.548 161.562, 180.900 146.892, 179.186 127.962 C 178.320 118.393, 178.443 116.707, 180.648 108.017 C 187.159 82.350, 183.920 68.106, 169.856 60.559 C 154.062 52.083, 150.594 47.973, 149.373 36.290 C 148.507 28.012, 149.251 25.727, 153.469 23.716 C 155.411 22.790, 157 21.327, 157 20.465 C 157 16.703, 144.280 14.321, 117 12.977 C 96.408 11.963, 96.282 11.963, 76.112 13.118 M 68.269 16.693 C 69.242 16.947, 70.592 16.930, 71.269 16.656 C 71.946 16.382, 71.150 16.175, 69.500 16.195 C 67.850 16.215, 67.296 16.439, 68.269 16.693 M 51.450 18.461 C 35.177 21.417, 27 25.462, 27 30.554 C 27 33.896, 31.706 38.829, 39.284 43.433 L 45.758 47.365 41.799 52.373 C 39.622 55.128, 36.702 59.628, 35.310 62.374 C 30.256 72.349, 16.202 110.535, 17.213 111.546 C 17.444 111.777, 19.178 111.509, 21.066 110.951 C 27.049 109.182, 35.479 109.512, 39.167 111.659 C 47.698 116.624, 46.230 128.982, 33.781 157 C 27.047 172.157, 24.799 178, 25.703 178 C 26.042 178, 28.610 176.270, 31.411 174.155 C 35.404 171.140, 37.018 169.036, 38.886 164.405 C 44.780 149.799, 54.937 130.231, 57.933 127.710 C 63.678 122.875, 64.961 125.109, 68.439 146 C 71.044 161.649, 72.983 168.513, 76.351 174 L 78.500 177.500 79.068 170.898 C 79.962 160.508, 84.019 154.992, 98.513 144.458 L 101.322 142.417 93.323 132.458 C 82.979 119.581, 67 97.974, 67 96.863 C 67 96.388, 65.763 95.985, 64.250 95.966 C 62.737 95.947, 58.202 94.630, 54.172 93.040 C 48.156 90.667, 46.974 90.449, 47.574 91.825 C 50.476 98.474, 46.157 101.311, 40.993 96.147 C 38.547 93.701, 38 92.323, 38 88.610 C 38 84.744, 38.526 83.541, 41.527 80.540 C 46.075 75.992, 50.802 73.628, 61.617 70.494 C 66.435 69.098, 70.587 67.746, 70.843 67.491 C 71.098 67.235, 69.550 66.298, 67.404 65.408 C 62.702 63.459, 62.633 63.402, 63.435 62.105 C 63.857 61.423, 64.924 61.401, 66.603 62.039 C 68.928 62.923, 69.080 62.817, 68.464 60.751 C 68.094 59.513, 67.163 57.502, 66.394 56.282 C 64.199 52.799, 60.940 44.003, 60.019 39.074 C 58.836 32.741, 61.137 21.117, 64.039 18.767 C 66.212 17.007, 66.205 17, 62.361 17.090 C 60.237 17.140, 55.327 17.757, 51.450 18.461 M 79.613 17.920 L 75.725 18.500 81.336 22.353 C 84.422 24.473, 89.321 28.616, 92.223 31.560 C 99.063 38.498, 99.982 39.409, 107.028 46.250 C 111.916 50.996, 113.553 52, 116.402 52 C 122.071 52, 126.045 45.036, 124.470 37.864 C 122.022 26.716, 96.552 15.392, 79.613 17.920 M 66.853 22.993 C 63.781 26.065, 63.732 26.263, 64.304 33.313 C 65.013 42.047, 70.085 58.419, 73.321 62.419 C 75.512 65.129, 76.190 65.345, 82.752 65.419 C 86.641 65.464, 90.144 65.182, 90.535 64.793 C 90.927 64.404, 90.274 62.434, 89.083 60.417 C 87.893 58.399, 87.086 56.581, 87.290 56.376 C 87.495 56.172, 92.522 55.186, 98.462 54.186 L 109.262 52.368 106.079 48.743 C 104.329 46.749, 100.942 43.881, 98.552 42.370 C 96.163 40.858, 94.410 39.095, 94.657 38.451 C 95.532 36.171, 78.400 22.503, 72.243 20.569 C 70.499 20.022, 69.273 20.573, 66.853 22.993 M 107 55.726 C 95.147 57.284, 90.893 58.293, 91.906 59.306 C 92.508 59.908, 93 61.392, 93 62.605 C 93 64.740, 93.264 64.795, 101.250 64.325 C 112.254 63.678, 112.298 63.658, 111.474 59.751 C 110.630 55.745, 110.150 55.313, 107 55.726 M 113.813 55.683 C 114.534 55.972, 115.397 55.936, 115.729 55.604 C 116.061 55.272, 115.471 55.036, 114.417 55.079 C 113.252 55.127, 113.015 55.364, 113.813 55.683 M 117.716 57.350 C 115.019 59.558, 114.991 59.681, 116.795 61.314 C 118.343 62.716, 120.880 63, 131.829 63 C 139.073 63, 145 62.627, 145 62.171 C 145 60.996, 136.342 57.200, 131 56.032 C 124.109 54.526, 120.761 54.859, 117.716 57.350 M 100.500 67.025 C 88.592 68.269, 75.741 69.926, 75.407 70.259 C 75.232 70.434, 77.866 77.048, 81.261 84.958 L 87.432 99.338 95.466 90.740 C 103.667 81.962, 109.356 73.668, 110.550 68.750 C 111.298 65.666, 112.131 65.809, 100.500 67.025 M 112.731 70.895 C 110.636 76.793, 104.506 85.306, 95.413 94.945 C 91.286 99.320, 89.039 102.439, 89.607 103.007 C 90.174 103.574, 92.805 103.339, 96.405 102.399 L 102.278 100.865 106.231 104.683 C 111.600 109.867, 116.051 116.457, 117.502 121.372 L 118.707 125.452 119.909 118.976 C 121.772 108.948, 122.396 89.428, 121.116 81.246 C 119.816 72.939, 117.317 66, 115.626 66 C 114.990 66, 113.687 68.203, 112.731 70.895 M 150.761 71 C 149.756 74.145, 141.008 120.864, 140.028 128.322 C 137.912 144.421, 139.436 155, 143.869 155 C 145.573 155, 145.928 154.083, 146.486 148.250 C 146.840 144.537, 148.425 134.075, 150.008 125 C 154.310 100.336, 155.317 91.274, 154.642 83.288 C 154.005 75.760, 151.637 68.260, 150.761 71 M 59.404 74.038 C 50.396 76.966, 41.410 82.236, 42.477 83.963 C 43.278 85.260, 57.786 92.007, 61.271 92.704 C 63.941 93.238, 64.163 93.088, 63.550 91.157 C 63.176 89.980, 63.170 88.535, 63.535 87.944 C 64.442 86.476, 68 89.770, 68 92.077 C 68 93.049, 70.206 97.089, 72.902 101.053 C 80.296 111.926, 103.435 141.194, 103.792 140.124 C 104.374 138.378, 88.222 107.522, 86.038 106.208 C 84.519 105.293, 84.078 104.330, 84.528 102.912 C 84.943 101.603, 82.969 95.737, 78.832 85.991 C 73.676 73.845, 72.128 71.075, 70.500 71.077 C 69.400 71.079, 64.407 72.411, 59.404 74.038 M 40.537 90.250 C 41.368 93.034, 44.707 96.627, 45.616 95.717 C 46.378 94.955, 41.939 88.017, 40.683 88.007 C 40.233 88.003, 40.168 89.013, 40.537 90.250 M 96 105.277 C 93.525 105.847, 91.361 106.420, 91.190 106.550 C 90.921 106.755, 105.726 136.951, 106.527 137.831 C 107.316 138.697, 111.040 135.671, 112.911 132.645 C 115.426 128.574, 115.593 123.051, 113.343 118.309 C 111.654 114.751, 102.331 103.902, 101.150 104.120 C 100.792 104.186, 98.475 104.707, 96 105.277 M 112.344 136.947 L 108.189 141.500 110.015 145 C 111.384 147.622, 111.996 148.109, 112.455 146.939 C 113.509 144.259, 116.948 132.609, 116.718 132.499 C 116.598 132.442, 114.630 134.443, 112.344 136.947" stroke="none" fill="black" fill-rule="evenodd"/>
</svg>