<svg xmlns="http://www.w3.org/2000/svg" width="200" height="200" viewBox="0 0 200 200" version="1.1">
	<path d="M 88.500 19.114 C 69.997 19.744, 65.311 20.638, 61.250 24.313 C 58.282 26.998, 58.372 31.108, 61.547 37.930 L 64.075 43.361 59.200 48.430 C 56.518 51.219, 53.414 54.718, 52.302 56.206 L 50.281 58.912 49.666 52.706 C 48.743 43.379, 47.154 38.954, 43.372 35.172 C 40.204 32.004, 39.585 31.785, 35.024 32.224 C 29.652 32.740, 21.960 36.857, 15.013 42.934 C 11.104 46.354, 10.980 46.644, 11.980 50 C 14.224 57.528, 14.864 74.602, 13.829 99.297 C 12.260 136.730, 14.123 148.218, 23.243 157.339 C 25.943 160.039, 28.514 161.854, 28.955 161.374 C 29.397 160.893, 30.307 158.785, 30.977 156.690 C 31.647 154.594, 33.839 151.160, 35.847 149.058 C 39.697 145.031, 41.819 144.344, 57.340 142.100 C 61.103 141.557, 65.287 140.387, 66.638 139.501 C 70.201 137.167, 72.897 132.208, 73.642 126.618 L 74.293 121.735 83.234 122.410 C 98.723 123.579, 108 125.911, 108 128.634 C 108 130.306, 100.260 135.375, 90 140.423 C 81.237 144.734, 79.485 146.216, 80.383 148.557 C 80.975 150.099, 82.265 150.199, 93.398 149.565 L 105.756 148.861 106.878 152.079 C 109.282 158.976, 107.419 164.235, 100.896 168.960 C 97.067 171.734, 86.101 175.838, 77.577 177.688 C 75.419 178.156, 73.469 179.092, 73.244 179.769 C 72.928 180.717, 77.504 181, 93.114 181 C 104.268 181, 118.496 181.498, 124.731 182.107 C 141.558 183.750, 160.852 181.024, 166.250 176.241 C 169.322 173.519, 168.471 170.108, 164.250 168.225 C 161.250 166.886, 157.234 166.547, 144.173 166.526 C 132.837 166.508, 128.353 166.194, 129.506 165.500 C 148.576 154.016, 160 144.660, 160 140.524 C 160 137.322, 157.486 135.739, 147.298 132.528 C 140.930 130.521, 138.619 129.274, 136.964 126.949 C 135.791 125.302, 133.100 123.071, 130.984 121.992 C 123.332 118.088, 124.634 117.791, 146.139 118.535 C 168.091 119.294, 174.089 118.570, 176.038 114.928 C 177.490 112.216, 176.474 109.530, 172.208 104.808 C 168.291 100.473, 155.664 89.961, 152.049 88.026 C 148.278 86.008, 147.354 88.404, 150.923 90.945 C 152.615 92.150, 154 93.805, 154 94.623 C 154 99.645, 116.382 108, 105.013 105.503 L 101.770 104.791 104.635 102.908 C 106.211 101.873, 110.784 99.827, 114.799 98.361 C 120.611 96.239, 121.957 95.371, 121.409 94.098 C 117.822 85.772, 117.567 84.310, 119.253 81.737 C 121.238 78.707, 125.823 77.536, 142 75.928 C 153.780 74.757, 161.918 72.426, 166.323 68.960 C 169.507 66.456, 175 53.329, 175 48.225 C 175 40.735, 171.059 39.209, 148.574 37.990 C 131.184 37.048, 126.217 36.176, 120 32.973 C 116.160 30.994, 110.007 24.924, 107.865 21 L 106.500 18.500 88.500 19.114 M 69.550 23.126 C 61.904 24.918, 60.338 28.742, 63.973 36.750 C 65.034 39.087, 66.140 41, 66.430 41 C 66.720 41, 70.005 38.782, 73.729 36.071 C 77.453 33.359, 84.325 29.092, 89 26.587 L 97.500 22.033 85.500 22.117 C 78.900 22.163, 71.723 22.617, 69.550 23.126 M 93.704 27.282 C 82.819 32.838, 68.014 42.778, 68.058 44.500 C 68.072 45.050, 68.852 46.891, 69.792 48.590 L 71.500 51.680 82.711 49.453 C 101.111 45.797, 110 40.441, 110 33.010 C 110 30.722, 106.596 23.486, 105.078 22.548 C 104.555 22.225, 99.437 24.355, 93.704 27.282 M 112.563 35.516 C 111.171 42.937, 102.861 47.978, 85.968 51.649 L 77.500 53.489 85.970 54.589 C 93.941 55.624, 94.735 55.553, 99.470 53.391 C 116.688 45.529, 138.945 46.271, 148.137 55.015 C 152.743 59.397, 152.932 61.222, 149.171 64.983 C 144.601 69.553, 140.433 70.282, 116.234 70.743 L 93.967 71.167 94.614 78.923 C 95.658 91.444, 91.950 99.076, 80.421 108.137 C 75.265 112.188, 74 113.733, 74 115.974 C 74 118.732, 74.091 118.773, 81.750 119.421 C 101.024 121.053, 109.940 123.736, 110.792 128.159 C 111.310 130.846, 105.824 135.253, 94.416 141.316 L 83.500 147.117 95.189 146.490 L 106.878 145.863 108.353 148.716 C 114.065 159.762, 108.934 169.549, 94.270 175.580 L 88.500 177.953 99.500 177.968 C 105.550 177.976, 116.021 178.527, 122.769 179.192 C 138.042 180.697, 153.879 179.272, 160.958 175.756 C 163.456 174.515, 165.500 173.050, 165.500 172.500 C 165.500 169.969, 155.484 168.863, 137.668 169.429 C 124.107 169.859, 119.930 169.709, 120.232 168.803 C 120.451 168.148, 125.297 164.754, 131.003 161.261 C 143.833 153.406, 154.711 145.409, 156.103 142.808 C 157.882 139.483, 156.439 138.255, 147.571 135.550 C 140.792 133.482, 138.238 132.142, 135.259 129.089 C 133.191 126.971, 130.149 124.555, 128.498 123.721 C 126.846 122.887, 124.629 121.248, 123.571 120.079 C 119.822 115.936, 122.147 115.500, 147.996 115.500 C 175.033 115.500, 175.711 115.333, 172.554 109.470 C 171.519 107.549, 167.721 103.549, 164.113 100.583 L 157.554 95.189 155.375 97.540 C 152.589 100.546, 147.583 102.635, 137.242 105.106 C 121.258 108.925, 103.003 109.403, 99.691 106.091 C 97.943 104.343, 102.530 100.417, 109.864 97.384 C 113.514 95.875, 116.814 94.384, 117.197 94.070 C 117.580 93.757, 117.201 91.398, 116.354 88.829 C 115.045 84.857, 115.016 83.735, 116.158 81.329 C 118.264 76.891, 123.202 75.170, 138.559 73.523 C 162.054 71.003, 164.863 69.535, 169.806 57.189 C 175.360 43.320, 173.907 42.141, 149.773 40.940 C 131.594 40.035, 124.630 38.637, 117.357 34.435 L 113.215 32.042 112.563 35.516 M 29.500 36.408 C 27.850 37.139, 23.748 39.775, 20.385 42.267 L 14.270 46.797 15.683 54.149 C 16.785 59.877, 17.031 69.892, 16.798 99.500 C 16.461 142.485, 16.911 146.031, 23.711 153.976 L 27.181 158.029 29.694 152.987 C 34.004 144.337, 39.023 141.573, 53.306 139.984 C 59.210 139.327, 63.395 138.316, 65 137.159 C 68.244 134.822, 70.996 129.357, 70.998 125.250 L 71 122 64.607 122 C 55.336 122, 55.171 120.070, 64.044 115.408 C 68.490 113.071, 71 111.139, 71 110.052 C 71 109.117, 70.301 104.281, 69.446 99.305 C 67.935 90.512, 67.953 90.079, 70.068 83.879 C 73.638 73.416, 72.893 62.708, 67.760 50.696 L 65.707 45.892 62.254 49.196 C 60.354 51.013, 56.888 54.975, 54.551 58 L 50.301 63.500 49.600 77.876 C 48.822 93.837, 48.232 98, 46.747 98 C 46.093 98, 45.968 93.042, 46.388 83.750 L 47.032 69.500 44.393 75.500 C 41.711 81.597, 39.084 93.646, 39.052 100 C 39.025 105.388, 41.750 116.980, 43.727 119.891 L 45.500 122.500 46 118 C 46.275 115.525, 46.950 113.500, 47.500 113.500 C 49.158 113.500, 49.239 121.298, 47.603 123.500 C 45.539 126.279, 43.159 124.694, 40.010 118.443 C 37.905 114.265, 37.466 111.798, 37.170 102.500 C 36.751 89.340, 38.426 80.983, 43.665 70.090 C 47.129 62.888, 47.238 62.322, 46.746 54.062 C 46.196 44.835, 43.853 37.527, 40.945 35.971 C 38.423 34.621, 33.071 34.825, 29.500 36.408 M 109.500 52.493 C 106.750 53.271, 102.355 54.908, 99.734 56.132 C 95.145 58.274, 94.577 58.311, 84.371 57.125 C 78.543 56.447, 73.608 56.059, 73.404 56.263 C 73.201 56.466, 73.477 58.175, 74.017 60.060 C 75.703 65.937, 75.184 77.398, 72.920 84.295 C 70.962 90.257, 70.920 91.158, 72.197 99.492 C 72.943 104.365, 74.009 108.503, 74.564 108.688 C 76.419 109.306, 86.516 99.305, 89.417 93.975 C 92.160 88.936, 92.257 88.313, 91.674 79.450 C 91.181 71.939, 91.347 69.957, 92.553 68.956 C 93.672 68.027, 97.705 67.897, 108.876 68.429 C 136.299 69.734, 153.812 64.978, 147.458 57.952 C 143.056 53.084, 138.237 51.597, 126 51.329 C 118.393 51.163, 112.807 51.557, 109.500 52.493 M 67 117 L 63.500 118.916 67.250 118.958 C 70.347 118.993, 71 118.652, 71 117 C 71 115.900, 70.888 115.019, 70.750 115.042 C 70.612 115.065, 68.925 115.946, 67 117" stroke="none" fill="black" fill-rule="evenodd"/>
</svg>