<svg xmlns="http://www.w3.org/2000/svg" width="200" height="200" viewBox="0 0 200 200" version="1.1">
	<path d="M 134.404 11.388 C 134.037 12.347, 133.940 22.440, 134.189 33.816 L 134.642 54.500 131.904 56.757 L 129.166 59.015 121.080 55.850 C 116.103 53.902, 111.514 51.277, 109.145 49.023 L 105.296 45.362 111.005 39.743 C 117.492 33.358, 120.471 28.011, 119.560 24.384 C 118.784 21.291, 114.063 18.387, 108.444 17.544 C 98.979 16.124, 75.606 21.550, 65.338 27.549 C 61.573 29.749, 60.676 29.887, 55.951 28.991 C 40.795 26.116, 24.233 28.944, 16.477 35.730 C 14.473 37.482, 14.460 38.099, 15.122 97 C 15.542 134.412, 16.177 157.428, 16.832 159 C 17.405 160.375, 17.902 160.974, 17.937 160.331 C 17.971 159.687, 20.241 156.709, 22.980 153.712 C 29.756 146.298, 35.089 144.134, 49.071 143.124 C 57.547 142.511, 60.708 141.875, 62.792 140.362 C 67.389 137.025, 69.865 130.577, 71.195 118.483 C 72.051 110.690, 72.583 108.371, 73.027 110.500 C 75.007 119.995, 78.300 121.416, 96.172 120.491 C 106.436 119.960, 110.826 120.100, 113.072 121.030 C 117.442 122.840, 120 128.455, 120 136.237 L 120 142.554 111.506 146.767 C 100.871 152.041, 86.524 160.923, 82.250 164.879 C 78.769 168.101, 78.023 171.411, 80.559 172.384 C 83.600 173.551, 99.212 169.034, 116.620 161.951 L 125.839 158.200 129.448 164.046 C 140.982 182.734, 162.914 187.932, 175.811 175.035 C 182.026 168.820, 183.503 164.669, 183.473 153.500 C 183.450 144.815, 183.075 142.612, 180.617 136.750 C 179.061 133.037, 177.498 130, 177.144 130.001 C 176.790 130.002, 175.192 132.364, 173.593 135.251 C 168.485 144.472, 163.847 151, 162.403 151 C 161.393 151, 161 149.649, 161 146.176 C 161 139.496, 163.807 123.567, 166.097 117.250 C 167.144 114.363, 168.945 109.413, 170.100 106.250 C 172.825 98.787, 175.670 83.858, 176.536 72.473 C 177.759 56.400, 174.174 42.273, 167.675 37.552 C 162.554 33.833, 151.453 35.878, 144.744 41.777 C 143.778 42.626, 142.808 43.136, 142.588 42.911 C 142.369 42.685, 141.249 35.769, 140.101 27.542 C 138.788 18.136, 137.467 12.038, 136.543 11.114 C 135.250 9.822, 134.993 9.855, 134.404 11.388 M 93.393 21.030 C 86.854 22.198, 73.497 26.514, 69.095 28.881 L 65.691 30.711 73.095 32.951 C 77.168 34.184, 85.375 37.197, 91.334 39.647 L 102.168 44.103 106.475 40.574 C 111.270 36.645, 117 28.630, 117 25.852 C 117 21.340, 105.173 18.925, 93.393 21.030 M 137.325 40.822 C 137.477 52.359, 137.735 54.275, 139.250 55.122 C 140.213 55.660, 141.728 57.540, 142.617 59.300 C 143.506 61.060, 145.165 63.518, 146.304 64.763 C 147.866 66.471, 148.091 67.309, 147.221 68.179 C 146.352 69.048, 145.049 68.930, 141.909 67.696 L 137.748 66.062 138.363 69.781 C 138.701 71.826, 138.983 75.468, 138.989 77.872 C 138.998 81.317, 139.272 82.019, 140.284 81.180 C 141.976 79.775, 143.630 80.897, 144.937 84.335 C 146.646 88.830, 146.181 91.910, 143.370 94.721 C 140.762 97.329, 140.744 97.450, 141.227 109.175 C 141.607 118.393, 141.431 121, 140.429 121 C 139.112 121, 138.651 118.118, 137.478 102.544 C 136.900 94.863, 136.748 94.476, 133.078 91.335 C 130.988 89.546, 127.548 85.815, 125.436 83.044 C 123.323 80.273, 121.284 78.342, 120.904 78.753 C 120.525 79.164, 117.851 85.044, 114.962 91.819 C 109.026 105.740, 106.640 109.383, 105.022 107 C 103.957 105.431, 104.230 102.091, 106.578 88 C 108.293 77.706, 108.336 75.926, 106.866 76.250 C 105.513 76.548, 98.466 63.808, 97.554 59.414 C 96.631 54.968, 99.575 51.600, 104.385 51.600 C 109.247 51.600, 107.663 50.146, 98.454 46.158 C 89.186 42.145, 77.358 40.635, 66.171 42.038 C 57.089 43.177, 49.119 45.864, 47.579 48.306 C 46.919 49.352, 46.994 53.144, 47.804 59.687 C 50.888 84.591, 47.943 118, 42.665 118 C 40.433 118, 40.063 112.842, 41.155 97 L 42.156 82.499 39.142 76.770 C 35.764 70.348, 34.443 63.782, 35.450 58.414 C 36.108 54.905, 41.017 48.685, 52.524 36.780 L 57.086 32.060 54.545 31.422 C 53.147 31.071, 46.907 30.946, 40.678 31.144 C 30.434 31.469, 28.790 31.791, 23.460 34.517 L 17.567 37.530 17.814 88.515 C 17.950 116.557, 18.334 142.569, 18.667 146.320 L 19.272 153.140 22.886 149.676 C 29.057 143.761, 34.043 141.920, 47.750 140.493 C 62.301 138.979, 64.093 137.896, 66.691 129.046 C 68.388 123.263, 68.641 116.523, 68.212 88.500 C 67.881 66.928, 70.599 50.593, 74.744 49.243 C 75.428 49.020, 76.440 50.028, 76.994 51.484 C 78.268 54.835, 78.246 78.262, 76.960 87.500 C 74.968 101.818, 74.724 107.633, 75.958 111.372 C 78.022 117.628, 79.726 118.141, 97.311 117.800 C 111.671 117.522, 113.025 117.653, 115.598 119.562 C 121.093 123.639, 122.324 126.349, 122.800 135.406 L 123.243 143.858 113.979 148.511 C 97.743 156.665, 80.672 167.986, 82.236 169.563 C 83.402 170.739, 95.218 167.226, 111.819 160.766 C 120.245 157.487, 127.277 154.961, 127.446 155.152 C 127.616 155.344, 128.663 157.300, 129.774 159.500 C 132.606 165.106, 139.438 172.587, 144.349 175.459 C 162.187 185.892, 181.365 174.787, 181.236 154.099 C 181.197 147.877, 178.451 136, 177.051 136 C 176.730 136, 174.949 138.587, 173.094 141.750 C 163.615 157.905, 157.002 158.056, 158.434 142.086 C 159.394 131.395, 162.777 116.397, 165.564 110.479 C 172.656 95.421, 176.077 62.347, 171.970 48.547 C 170.298 42.928, 165.095 37.997, 160.850 38.010 C 157.085 38.021, 149.233 41.470, 144.072 45.380 C 142.186 46.808, 140.484 47.817, 140.290 47.623 C 140.095 47.429, 139.309 42.821, 138.543 37.385 L 137.151 27.500 137.325 40.822 M 58.973 34.653 C 55.665 36.865, 51 41.205, 51 42.070 C 51 42.453, 52.913 42.082, 55.250 41.247 C 57.587 40.411, 64.450 39.487, 70.500 39.194 L 81.500 38.660 73 35.873 C 62.927 32.570, 62.185 32.505, 58.973 34.653 M 40.989 53.010 C 38.945 55.876, 38.500 57.672, 38.500 63.052 C 38.500 68.493, 39.063 70.714, 41.822 76.149 L 45.143 82.693 44.075 94.096 C 43.488 100.368, 43.044 107.075, 43.089 109 L 43.172 112.500 44.089 109.500 C 46.702 100.955, 46.791 70.917, 44.251 54.510 L 43.478 49.520 40.989 53.010 M 72.818 61.500 C 70.464 74.100, 69.707 86.237, 70.594 97.159 C 71.200 104.622, 71.491 105.796, 72.042 103 C 74.254 91.768, 75.113 80.810, 74.825 67.500 L 74.500 52.500 72.818 61.500 M 101.250 54.662 C 98.682 55.698, 100.384 61.874, 105.752 71 L 108.399 75.500 110.146 67 C 111.106 62.325, 111.677 57.761, 111.413 56.858 C 110.725 54.500, 104.816 53.223, 101.250 54.662 M 114.565 59.994 C 114.849 63.981, 119.808 72.652, 121.027 71.290 C 121.416 70.856, 122.919 68.435, 124.368 65.911 L 127.002 61.322 124.251 60.048 C 122.738 59.347, 119.879 58.193, 117.897 57.483 L 114.294 56.193 114.565 59.994 M 132.667 58.667 C 131.587 59.747, 131.896 60.746, 133.500 61.362 C 134.520 61.753, 135 61.308, 135 59.969 C 135 58.004, 133.928 57.405, 132.667 58.667 M 138 60.465 C 138 61.906, 138.830 63.374, 140 64 C 142.401 65.285, 142.474 64.817, 140.474 60.950 C 138.615 57.354, 138 57.234, 138 60.465 M 125.951 68.586 C 122.125 75.274, 122.338 75.944, 131.294 85.363 L 137.130 91.500 136.565 86.610 C 136.254 83.921, 136 78.409, 136 74.360 C 136 68.333, 135.638 66.638, 134 65 C 130.893 61.893, 129.399 62.559, 125.951 68.586 M 112.623 68.750 C 111.509 72.562, 107.853 96.992, 108.166 98.533 C 108.350 99.437, 110.914 94.498, 113.865 87.558 L 119.231 74.941 116.479 70.970 C 114.966 68.787, 113.595 67, 113.431 67 C 113.268 67, 112.905 67.787, 112.623 68.750 M 141 88.941 C 141 91.173, 141.450 93, 142 93 C 142.550 93, 143 91.452, 143 89.559 C 143 87.666, 142.550 85.840, 142 85.500 C 141.396 85.127, 141 86.490, 141 88.941" stroke="none" fill="black" fill-rule="evenodd"/>
</svg>