<svg xmlns="http://www.w3.org/2000/svg" width="200" height="200" viewBox="0 0 200 200" version="1.1">
	<path d="M 133.273 19.521 C 132.079 20.358, 129.216 23.958, 126.911 27.521 C 122.989 33.586, 122.483 34, 118.992 34 C 115.377 34, 115.246 33.874, 114.708 29.862 C 113.550 21.224, 108.361 20.889, 102.261 29.060 C 98.090 34.647, 98.042 34.665, 85.749 35.388 C 77.869 35.852, 76.524 35.660, 72.249 33.469 C 46.311 20.178, 20.525 33.417, 13.395 63.688 C 10.982 73.935, 11.953 96.237, 15.385 109.413 C 17.703 118.311, 17.860 120.019, 16.919 126.086 C 16.184 130.819, 16.187 134.561, 16.928 138.568 C 18.955 149.531, 23.824 154.531, 32.396 154.451 C 44.979 154.332, 57.432 140.704, 62.509 121.500 C 64.507 113.940, 64.561 94.960, 62.610 86 C 61.499 80.899, 61.413 77.563, 62.208 70.500 C 62.765 65.550, 63.570 61.124, 63.997 60.664 C 65.531 59.009, 66.215 105.313, 65.168 140.053 C 64.581 159.513, 64.279 175.613, 64.497 175.830 C 64.714 176.048, 67.279 175.626, 70.196 174.894 C 77.995 172.937, 98.319 173.347, 123 175.959 C 149.594 178.773, 161.082 178.482, 169.148 174.790 C 176.827 171.274, 179.352 167.457, 179.852 158.607 C 180.320 150.323, 178.895 143.292, 174.555 132.470 L 171.334 124.439 173.261 119.970 C 185.330 91.987, 181.331 51.872, 164.945 36.545 C 158.971 30.958, 154.749 29.987, 148.783 32.831 C 146.271 34.028, 143.435 34.657, 141.925 34.353 C 139.468 33.857, 139.370 33.585, 139.797 28.429 C 140.123 24.499, 139.796 22.338, 138.600 20.512 C 136.678 17.579, 136.179 17.486, 133.273 19.521 M 133.250 23.281 C 130.980 25.751, 127.010 32.087, 127.004 33.250 C 127.002 33.663, 129.250 34, 132 34 L 137 34 137 28.059 C 137 24.791, 136.615 21.880, 136.145 21.590 C 135.675 21.299, 134.373 22.060, 133.250 23.281 M 106.377 28.250 C 101.289 34.055, 101.284 34, 106.878 34 C 111.629 34, 112 33.825, 112 31.582 C 112 25.823, 109.698 24.460, 106.377 28.250 M 41.863 32.502 C 17.903 40.215, 8.467 71.659, 18.488 110.395 C 20.354 117.611, 20.661 120.434, 19.965 124 C 17.820 134.994, 19.401 143.601, 24.503 148.703 C 27.071 151.271, 28.637 152, 31.584 152 C 43.237 152, 55.539 138.203, 60.116 120 C 61.902 112.897, 61.752 93.362, 59.850 85.500 C 58.611 80.374, 58.591 77.980, 59.718 69.067 C 60.444 63.330, 61.395 57.255, 61.832 55.569 C 62.889 51.489, 65.682 50.983, 66.714 54.684 C 67.146 56.233, 67.500 83.415, 67.500 115.089 L 67.500 172.677 71 171.862 C 77.376 170.378, 101.532 170.970, 121.156 173.090 C 146.809 175.863, 162.577 175.491, 168.949 171.963 C 175.223 168.489, 177.528 164.121, 177.386 155.975 C 177.261 148.785, 175.269 140.926, 171.050 130.978 L 168.283 124.457 171.105 117.478 C 175.734 106.031, 177.447 96.828, 177.428 83.500 C 177.411 71.058, 176.181 63.288, 172.783 54.172 L 170.798 48.843 168.514 53.672 C 167.259 56.327, 163.953 60.710, 161.168 63.410 L 156.106 68.321 159.303 72.791 L 162.500 77.261 162.231 95.381 C 162.009 110.358, 161.599 114.714, 159.863 120.500 C 158.030 126.612, 157.829 129.212, 158.283 141 C 158.570 148.425, 159.593 157.992, 160.558 162.260 C 161.523 166.528, 162.051 170.283, 161.730 170.603 C 161.002 171.331, 144.039 166.521, 138.037 163.884 C 126.728 158.917, 127.045 156.600, 140.964 142.493 C 150.819 132.504, 155.902 125.344, 155.978 121.344 C 155.997 120.341, 148.166 117, 145.797 117 C 145.331 117, 144.523 118.125, 144 119.500 C 142.772 122.729, 139.995 122.708, 136.111 119.440 L 133.068 116.879 121.698 118.451 C 107.776 120.377, 99.153 122.552, 96.723 124.751 C 94.276 126.965, 95.039 129.730, 100.546 138.599 C 102.970 142.503, 106.745 149.253, 108.934 153.599 C 113.508 162.679, 113.484 162.757, 104.601 167.425 C 90.951 174.599, 84.387 165.944, 86.945 144.143 C 87.567 138.839, 88.481 132.729, 88.975 130.564 C 89.777 127.050, 89.573 126.245, 87.074 123.064 C 81.079 115.433, 79.229 107.914, 82.534 104.609 C 84.086 103.056, 90.109 101.016, 93.168 101.006 C 94.086 101.003, 95.718 99.537, 96.795 97.750 C 98.789 94.442, 102.492 84.085, 101.852 83.609 C 101.658 83.465, 99.925 82.401, 98 81.244 C 86.171 74.134, 85.483 65.733, 96.101 58.042 C 98.317 56.437, 100.663 54.932, 101.315 54.699 C 103.379 53.959, 101.625 53.152, 96.463 52.467 L 91.462 51.804 88.523 57.952 C 85.215 64.873, 83.443 66.843, 81.909 65.309 C 81.233 64.633, 81.454 62.103, 82.582 57.615 C 83.505 53.937, 84.083 50.750, 83.866 50.533 C 83.383 50.050, 49.843 45, 47.121 45 C 45.242 45, 45.168 46.124, 44.839 79.465 C 44.535 110.360, 44.323 114.107, 42.791 115.638 C 41.179 117.249, 41.021 117.186, 40.010 114.526 C 39.420 112.975, 38.437 103.334, 37.826 93.103 C 36.598 72.558, 37.749 50.215, 40.298 45.105 C 41.231 43.235, 41.407 41.692, 40.811 40.626 C 39.829 38.872, 39.960 38.820, 46 38.558 C 53.966 38.214, 69.564 36.723, 70.405 36.225 C 70.903 35.931, 69.103 34.816, 66.405 33.748 C 59.886 31.166, 47.903 30.557, 41.863 32.502 M 150.500 35 C 150.160 35.550, 150.820 36, 151.966 36 C 153.112 36, 156.626 36.892, 159.775 37.983 L 165.500 39.967 163 37.938 C 158.449 34.245, 151.916 32.710, 150.500 35 M 115.667 36.667 C 115.300 37.033, 115 40.033, 115 43.333 C 115 46.633, 115.260 49.073, 115.578 48.755 C 115.896 48.437, 117.452 45.437, 119.036 42.089 L 121.915 36 119.124 36 C 117.589 36, 116.033 36.300, 115.667 36.667 M 122.577 40.848 C 121.160 43.645, 120 46.173, 120 46.467 C 120 47.309, 121.637 47.095, 124.685 45.854 C 126.233 45.224, 128.678 44.801, 130.117 44.915 C 133.330 45.170, 136 42.680, 136 39.429 C 136 37.787, 135.433 36.996, 134.250 36.989 C 133.287 36.983, 130.847 36.705, 128.827 36.371 C 125.227 35.775, 125.102 35.865, 122.577 40.848 M 86.634 37.918 L 80.768 38.500 84.846 41.767 C 87.444 43.848, 88.718 45.572, 88.355 46.517 C 87.999 47.445, 88.382 48, 89.376 48 C 90.278 48, 92.055 45.851, 93.483 43.033 C 96.476 37.127, 96.499 36.952, 94.250 37.168 C 93.287 37.261, 89.860 37.598, 86.634 37.918 M 97.030 42.250 C 95.374 45.138, 94.015 47.829, 94.009 48.231 C 94 48.963, 94.718 49.180, 102.875 50.914 C 110.515 52.538, 112.949 49.852, 112.989 39.750 C 113 37.032, 112.925 37, 106.520 37 L 100.040 37 97.030 42.250 M 138.618 40.160 C 138.270 41.898, 138.102 43.418, 138.243 43.539 C 138.384 43.660, 139.492 42.239, 140.704 40.380 C 142.750 37.242, 142.777 37, 141.079 37 C 139.826 37, 139.051 37.996, 138.618 40.160 M 143.788 40.339 L 142.076 42.775 148.788 43.493 C 163.437 45.059, 166.864 51.508, 158.225 61.250 C 154.845 65.060, 154.785 65.220, 157.578 62.975 C 161.608 59.735, 165.916 54.185, 166.640 51.299 C 167.820 46.598, 166.212 43.986, 160.540 41.390 C 157.578 40.034, 152.982 38.694, 150.327 38.414 C 146.047 37.961, 145.306 38.179, 143.788 40.339 M 57.500 40.489 C 51.450 41.154, 46.950 41.775, 47.500 41.870 C 61.697 44.318, 85.210 47.469, 85.521 46.965 C 85.976 46.229, 82.931 43.271, 79.027 40.656 C 76.228 38.781, 73.261 38.758, 57.500 40.489 M 138.133 51.133 C 135.447 57.597, 135.462 58.696, 138.250 59.572 C 139.488 59.961, 142.936 61.429, 145.914 62.834 L 151.329 65.390 155.189 60.945 C 159.470 56.014, 160.801 52.504, 159.301 50.095 C 157.863 47.785, 152.336 46.121, 145.883 46.056 L 140.267 46 138.133 51.133 M 130.689 47.701 C 129.226 48.080, 129.009 48.777, 129.558 51.335 C 129.931 53.076, 130.726 55.400, 131.325 56.500 L 132.413 58.500 132.793 56.500 C 133.002 55.400, 133.536 52.813, 133.980 50.750 C 134.813 46.882, 134.603 46.687, 130.689 47.701 M 121.500 49.724 C 119.172 50.296, 117 51.898, 117 53.043 C 117 53.482, 118.406 54.150, 120.125 54.527 C 123.438 55.255, 124.956 54.076, 124.985 50.750 C 125.001 48.942, 124.854 48.899, 121.500 49.724 M 40.652 57.750 C 39.844 66.301, 40.026 90.328, 40.967 99.500 C 41.432 104.036, 41.741 96.733, 41.843 78.750 C 41.929 63.487, 41.840 51, 41.645 51 C 41.449 51, 41.002 54.038, 40.652 57.750 M 86.656 53.206 C 85.844 56.313, 86.464 56.473, 87.816 53.504 C 88.444 52.127, 88.569 51, 88.095 51 C 87.621 51, 86.974 51.993, 86.656 53.206 M 101.907 57.486 C 96.761 60.167, 90.981 66.174, 91.035 68.785 C 91.055 69.728, 91.659 71.560, 92.378 72.857 C 93.952 75.696, 102.085 81.354, 103.035 80.270 C 103.908 79.273, 110.696 61.336, 111.557 57.750 C 112.161 55.231, 111.977 55.004, 109.358 55.047 C 107.786 55.072, 104.433 56.170, 101.907 57.486 M 114.977 58.306 C 114.207 60.124, 111 82.372, 111 85.895 C 111 86.617, 110.183 86.640, 108.416 85.968 C 106.995 85.428, 105.453 85.220, 104.989 85.507 C 104.056 86.083, 101.595 92.957, 102.150 93.434 C 102.343 93.599, 104.583 93.957, 107.130 94.231 C 111.604 94.711, 111.815 94.612, 113.400 91.288 C 115.286 87.333, 123.276 58.942, 122.673 58.339 C 122.452 58.119, 120.839 57.528, 119.089 57.025 C 116.306 56.227, 115.789 56.389, 114.977 58.306 M 125.537 60.250 C 125.317 60.938, 123.958 65.775, 122.517 71 C 121.076 76.225, 119.637 81.378, 119.318 82.450 C 118.910 83.821, 120.188 83.124, 123.619 80.105 C 127.590 76.611, 128.712 74.871, 129.635 70.780 C 130.933 65.025, 129.801 59, 127.422 59 C 126.605 59, 125.757 59.563, 125.537 60.250 M 134.339 63.559 C 134.010 64.416, 134.137 67.004, 134.620 69.309 C 135.472 73.367, 135.636 73.510, 139.768 73.808 C 142.850 74.031, 144.735 73.567, 146.552 72.138 C 148.055 70.955, 148.645 69.898, 148.017 69.511 C 147.440 69.154, 147.230 68.436, 147.552 67.916 C 148.135 66.973, 138.648 62.028, 136.219 62.010 C 135.514 62.004, 134.668 62.702, 134.339 63.559 M 150.015 72.954 C 148.648 74.004, 147.748 75.039, 148.015 75.254 C 148.282 75.468, 150.637 76.868, 153.250 78.364 C 155.863 79.860, 158 81.486, 158 81.977 C 158 83.587, 160.045 88.289, 160.533 87.801 C 161.536 86.797, 158.925 76.704, 156.942 73.919 C 154.517 70.512, 153.396 70.356, 150.015 72.954 M 107.588 76.694 C 106.534 79.789, 106.326 81.726, 106.978 82.378 C 107.522 82.922, 108.136 83.172, 108.343 82.933 C 108.857 82.342, 109.996 72, 109.547 72 C 109.350 72, 108.468 74.112, 107.588 76.694 M 137.500 77 C 137.160 77.550, 137.359 78, 137.941 78 C 138.523 78, 139 77.550, 139 77 C 139 76.450, 138.802 76, 138.559 76 C 138.316 76, 137.840 76.450, 137.500 77 M 130 78.759 C 125.441 80.990, 118.075 88.581, 116.264 92.913 L 114.837 96.325 121.079 101.913 C 126.652 106.901, 129.769 108.572, 138.901 111.469 C 141.284 112.225, 141.297 112.189, 140.629 106.865 C 139.454 97.504, 135.525 83.477, 134.159 83.766 C 133.244 83.960, 133.082 83.078, 133.563 80.516 C 133.926 78.582, 134.060 77.010, 133.861 77.023 C 133.663 77.035, 131.925 77.816, 130 78.759 M 141.138 79.062 C 139.412 80.112, 138 81.162, 138 81.397 C 138 81.631, 139.097 86.475, 140.438 92.161 C 141.778 97.848, 143.186 104.862, 143.566 107.750 C 144.127 112.011, 144.618 113, 146.169 113 C 147.220 113, 149.816 113.886, 151.939 114.969 L 155.799 116.938 156.320 114.719 C 156.607 113.499, 157.387 109.028, 158.053 104.784 C 159.120 97.985, 159.045 96.227, 157.427 89.989 C 155.913 84.151, 155.056 82.579, 152.534 81.021 C 146.575 77.338, 144.547 76.989, 141.138 79.062 M 101.427 97.765 C 100.837 98.169, 100.064 99.287, 99.708 100.250 C 99.217 101.583, 99.591 102.003, 101.281 102.014 C 102.502 102.021, 104.427 102.276, 105.559 102.580 C 107.098 102.994, 107.919 102.473, 108.809 100.520 C 109.464 99.082, 110 97.702, 110 97.453 C 110 96.704, 102.583 96.974, 101.427 97.765 M 113.566 101.688 C 112.933 103.337, 114.457 104.956, 116.668 104.985 C 117.311 104.993, 118.661 105.301, 119.668 105.670 C 121.351 106.285, 121.338 106.155, 119.511 104.077 C 116.452 100.598, 114.314 99.739, 113.566 101.688 M 86.272 105.211 C 82.738 106.917, 82.567 109.595, 85.599 115.792 L 88.372 121.460 89.995 114.980 C 90.887 111.416, 91.959 107.487, 92.376 106.250 C 93.021 104.337, 92.788 104.010, 90.817 104.068 C 89.543 104.105, 87.497 104.619, 86.272 105.211 M 98.450 105.080 C 98.215 105.462, 96.922 109.883, 95.578 114.907 L 93.134 124.040 95.614 122.089 C 96.978 121.016, 99.427 119.846, 101.056 119.488 C 102.685 119.130, 103.798 118.482, 103.530 118.048 C 103.261 117.614, 103.708 114.704, 104.521 111.581 C 105.334 108.458, 106 105.749, 106 105.561 C 106 104.866, 98.863 104.412, 98.450 105.080 M 109.343 112.609 L 107.186 118.185 109.273 117.639 C 110.421 117.339, 115.555 116.544, 120.680 115.874 C 125.806 115.203, 130 114.352, 130 113.982 C 130 111.793, 118.145 106.955, 112.934 107.017 C 112.125 107.027, 110.560 109.464, 109.343 112.609 M 134.813 113.683 C 135.534 113.972, 136.397 113.936, 136.729 113.604 C 137.061 113.272, 136.471 113.036, 135.417 113.079 C 134.252 113.127, 134.015 113.364, 134.813 113.683 M 138.250 117.250 C 138.880 119.142, 142 119.411, 142 117.573 C 142 116.646, 141.145 116, 139.917 116 C 138.695 116, 138.005 116.517, 138.250 117.250 M 91.707 131.128 C 90.062 137.959, 88.805 150.911, 89.279 156.136 C 89.973 163.794, 92.018 167, 96.207 167 C 99.788 167, 107.912 163.394, 108.647 161.478 C 109.201 160.034, 103.437 148.167, 98.215 140 C 96.281 136.975, 94.154 133.208, 93.488 131.628 C 92.283 128.767, 92.276 128.765, 91.707 131.128 M 144 143.071 C 131.625 155.529, 131.032 157.274, 138 160.735 C 140.475 161.965, 146.228 164.054, 150.784 165.379 C 158.029 167.485, 159.007 167.581, 158.585 166.143 C 157.375 162.013, 155.774 150.724, 155.166 142.031 L 154.500 132.500 144 143.071" stroke="none" fill="black" fill-rule="evenodd"/>
</svg>