<svg xmlns="http://www.w3.org/2000/svg" width="200" height="200" viewBox="0 0 200 200" version="1.1">
	<path d="M 96.678 15.070 C 83.114 16.541, 70.588 20.674, 62.576 26.323 C 60.320 27.913, 56.665 28.691, 46.582 29.727 C 31.213 31.306, 21.840 33.318, 17.576 35.953 L 14.500 37.855 14.500 88.177 C 14.500 127.405, 14.797 139.529, 15.848 143.166 C 17.290 148.161, 20.183 152, 22.504 152 C 25.072 152, 30.992 145.864, 35.108 138.936 L 39.145 132.140 44.297 136.040 C 50.612 140.820, 54.190 141.761, 57.585 139.536 C 61.129 137.214, 62.127 133.960, 62.963 122 C 63.592 113.022, 63.720 112.473, 63.849 118.211 L 64 124.923 68.250 125.978 C 75.360 127.743, 81.469 130.479, 81.763 132.030 C 81.917 132.839, 79.845 136.511, 77.160 140.190 C 69.025 151.335, 66.072 159.260, 66.024 170.074 L 66 175.647 83.723 169.674 C 95.640 165.658, 103.584 163.552, 107.973 163.247 L 114.500 162.793 122.500 168.258 C 126.900 171.264, 133.375 175.173, 136.890 176.946 C 144.718 180.896, 147.371 180.604, 155.997 174.843 C 169.833 165.604, 177.799 148.551, 180.004 123.452 C 181.713 104.005, 178.141 75.587, 171.863 58.685 C 170.191 54.183, 168.436 47.424, 167.963 43.664 C 166.299 30.433, 163.185 24.530, 156.539 22.011 C 152.177 20.358, 146.222 22.986, 140.523 29.079 C 134.848 35.145, 131.163 42.891, 129.710 51.807 C 129.110 55.488, 128.525 58.642, 128.411 58.814 C 128.298 58.987, 126.583 58.825, 124.602 58.453 L 121 57.777 121 51.998 C 121 48.376, 121.738 44.591, 122.978 41.859 C 125.711 35.835, 125.545 31.802, 122.411 28.077 C 120.987 26.385, 119.412 25, 118.911 25 C 118.410 25, 118 29.740, 118 35.533 C 118 44.874, 117.708 46.643, 115.420 51.158 L 112.840 56.250 108.670 55.674 C 106.376 55.358, 99.888 54.115, 94.250 52.912 L 84 50.725 84 46.398 C 84 43.143, 83.521 41.814, 82.066 41.035 C 77.543 38.614, 67.407 40.665, 65.300 44.427 C 64.615 45.649, 63.562 45.592, 58 44.037 C 53.655 42.821, 51.602 41.768, 51.808 40.859 C 51.978 40.112, 54.003 37.630, 56.308 35.344 L 60.500 31.187 74 30.066 C 91.771 28.589, 103.695 26.375, 108.553 23.651 C 111.965 21.737, 112.500 20.966, 112.500 17.968 C 112.500 14.612, 112.371 14.495, 108.500 14.360 C 106.300 14.284, 100.980 14.603, 96.678 15.070 M 94.061 18.087 C 83.956 19.395, 66 25.470, 66 27.581 C 66 28.275, 77.600 27.236, 91 25.342 C 102.417 23.727, 110 21.019, 110 18.556 C 110 16.790, 105.179 16.648, 94.061 18.087 M 147.155 26.623 C 139.412 31.263, 132 45.410, 132 55.550 L 132 59.737 143.144 61.062 L 154.288 62.387 156.854 67.944 C 160.602 76.059, 161.079 94.343, 158.016 112.441 C 154.227 134.819, 147.857 153.521, 144.270 152.797 C 142.729 152.487, 142.519 151.342, 142.649 143.970 C 142.779 136.547, 146.440 112.244, 147.605 111.067 C 147.840 110.828, 148.429 111.053, 148.912 111.567 C 149.421 112.107, 148.795 118.184, 147.425 126 C 146.123 133.425, 145.064 141.525, 145.069 144 C 145.080 148.403, 145.110 148.445, 146.470 145.944 C 150.074 139.319, 155.428 115.259, 157.039 98.452 C 158.587 82.299, 155.432 65, 150.937 65 C 149.293 65, 149.352 65.261, 151.476 67.385 C 154.575 70.484, 156.346 77.207, 155.518 82.729 C 154.407 90.135, 151.978 97.163, 150.692 96.689 C 150.037 96.448, 149.639 95.665, 149.808 94.951 C 149.978 94.236, 150.765 91.160, 151.558 88.115 C 155.198 74.143, 151.649 67.190, 140.127 65.716 C 133.808 64.908, 133.118 65.389, 134.273 69.799 C 135.417 74.168, 130.781 125.619, 129.091 127.309 C 127.559 128.841, 127.233 126.964, 126.611 113 C 126.092 101.353, 124.067 86.486, 122.048 79.500 C 121.395 77.242, 121.151 78.850, 121.062 86 C 120.791 107.792, 119.015 143.229, 118.007 146.973 C 116.841 151.306, 114.724 152.221, 113.060 149.112 C 111.702 146.575, 109.271 132.319, 107.817 118.369 L 106.629 106.979 103.417 107.582 C 99.215 108.370, 91.773 105.110, 89.357 101.422 C 86.821 97.551, 87.051 92.142, 89.923 88.109 C 92.062 85.105, 92.109 84.827, 90.400 85.338 C 84.334 87.149, 83.009 87.188, 82.388 85.569 C 82.027 84.628, 82.523 83.080, 83.548 81.947 C 85.671 79.601, 105.266 69.921, 112.743 67.524 C 117.644 65.954, 117.912 65.702, 116.847 63.672 C 115.084 60.311, 113.534 59.725, 97.787 56.468 L 83.074 53.425 78.448 58.927 C 72.886 65.542, 70.498 70.032, 68.452 77.720 C 66.548 84.879, 65.475 104.907, 66.443 115.239 L 67.168 122.968 71.334 124.031 C 80.985 126.493, 85 128.917, 85 132.283 C 85 133.368, 82.754 137.285, 80.008 140.989 C 73.574 149.668, 70.245 157.034, 69.126 165.065 C 68.634 168.604, 68.298 171.582, 68.381 171.683 C 68.464 171.783, 75.907 169.381, 84.921 166.344 C 101.138 160.882, 109.537 159.165, 114.255 160.349 C 115.594 160.685, 120.246 163.381, 124.594 166.340 C 134.333 172.967, 142.171 177, 145.312 177 C 148.542 177, 158.896 170.163, 162.755 165.481 C 180.300 144.196, 182.737 98.076, 168.487 57.004 C 166.673 51.777, 164.939 44.783, 164.632 41.462 C 163.940 33.959, 161.850 28.814, 158.390 26.092 C 154.901 23.348, 152.425 23.465, 147.155 26.623 M 121.252 34.500 C 121.263 36.700, 121.468 37.482, 121.707 36.238 C 121.946 34.994, 121.937 33.194, 121.687 32.238 C 121.437 31.282, 121.241 32.300, 121.252 34.500 M 43 32.682 C 36.826 33.321, 23.692 36.102, 20.448 37.457 L 17.303 38.771 16.757 77.136 C 16.456 98.236, 16.585 121.158, 17.043 128.074 C 17.907 141.117, 20.025 149, 22.665 149 C 24.900 149, 29.320 143.601, 34.121 135.007 L 38.486 127.193 42.733 131.108 C 48.352 136.287, 53.544 138.773, 55.804 137.365 C 59.682 134.949, 60.058 130.913, 59.521 97.500 C 59.023 66.545, 59.650 56.168, 62.399 49.896 C 62.963 48.609, 61.943 47.967, 57.235 46.646 C 54.009 45.741, 50.845 45, 50.205 45 C 49.564 45, 48.127 46.790, 47.011 48.979 C 43.358 56.139, 41.774 65.573, 41.720 80.500 C 41.669 94.299, 41.783 95.125, 46.720 116.750 C 47.060 118.243, 46.773 118.990, 45.867 118.971 C 45.097 118.955, 42.451 114.234, 39.812 108.168 C 35.502 98.263, 35.201 97.052, 36.079 93.145 C 37.544 86.624, 40 61.684, 40 53.327 C 40 44.598, 40.918 42.397, 44.924 41.517 C 46.709 41.125, 49.294 39.127, 51.499 36.435 L 55.134 32 50.817 32.160 C 48.443 32.248, 44.925 32.483, 43 32.682 M 71.250 43.465 C 69.463 44.256, 68 45.322, 68 45.833 C 68 46.344, 70.138 47.286, 72.750 47.927 C 75.362 48.567, 78.287 49.325, 79.250 49.613 C 80.687 50.041, 81 49.497, 81 46.567 C 81 44.387, 80.514 42.995, 79.750 42.986 C 79.063 42.979, 77.600 42.760, 76.500 42.500 C 75.400 42.240, 73.037 42.674, 71.250 43.465 M 43.667 44.667 C 43.300 45.033, 43.016 46.496, 43.035 47.917 L 43.071 50.500 44.500 48 C 45.286 46.625, 45.945 45.163, 45.965 44.750 C 46.008 43.820, 44.565 43.768, 43.667 44.667 M 65.157 50.707 C 63.043 54.657, 62.006 65.184, 62.131 81.434 C 62.269 99.323, 62.218 99.333, 65.107 80.849 C 66.404 72.547, 70.451 63.942, 75.989 57.707 C 78.331 55.070, 80.078 52.774, 79.873 52.604 C 79.668 52.434, 77.250 51.758, 74.500 51.102 C 71.750 50.446, 68.740 49.683, 67.811 49.407 C 66.820 49.112, 65.723 49.649, 65.157 50.707 M 116.697 54.393 C 116.288 55.434, 116.189 56.522, 116.476 56.810 C 117.389 57.722, 118.191 56.227, 117.809 54.328 C 117.459 52.588, 117.405 52.591, 116.697 54.393 M 121 63.019 C 121 64.701, 121.459 64.938, 123.750 64.436 C 129.064 63.271, 129.685 62.862, 127.500 61.963 C 123.714 60.406, 121 60.847, 121 63.019 M 125.500 66.703 C 122.031 67.555, 121.870 68.501, 123.905 76.091 C 124.997 80.166, 126.348 86.200, 126.907 89.500 C 129.423 104.363, 129.271 104.419, 130.966 88 C 132.978 68.512, 132.098 65.081, 125.500 66.703 M 111.500 70.938 C 104.538 73.433, 94.168 78.255, 90 80.935 L 86.500 83.185 89.500 82.528 C 91.150 82.166, 96.965 80.088, 102.423 77.908 C 114.805 72.964, 117.900 74.122, 106.615 79.478 C 94.118 85.408, 88.149 92.641, 90.853 98.576 C 92.463 102.109, 97.836 105.097, 102 104.772 C 105.477 104.502, 105.502 104.466, 105.802 99.250 C 106.111 93.894, 107.595 92.192, 108.419 96.250 C 108.670 97.487, 109.146 102.325, 109.477 107 C 110.228 117.622, 113.890 144.031, 114.808 145.446 C 116.111 147.456, 116.832 136.333, 117.576 102.750 C 118.024 82.537, 117.958 69.029, 117.412 69.073 C 116.910 69.113, 114.250 69.952, 111.500 70.938 M 38.070 96.250 C 38.109 96.938, 38.527 98.400, 39 99.500 C 39.720 101.176, 39.871 100.974, 39.930 98.250 C 39.968 96.463, 39.550 95, 39 95 C 38.450 95, 38.032 95.563, 38.070 96.250" stroke="none" fill="black" fill-rule="evenodd"/>
</svg>