<svg xmlns="http://www.w3.org/2000/svg" width="200" height="200" viewBox="0 0 200 200" version="1.1">
	<path d="M 85 13.491 C 85 14.576, 83.914 15, 81.135 15 C 74.606 15, 69.370 20.950, 67.131 30.911 C 65.690 37.327, 68.516 36.178, 70.438 29.567 C 71.306 26.578, 73.198 22.730, 74.640 21.015 C 76.912 18.316, 77.816 17.938, 81.382 18.199 L 85.500 18.500 86.145 24 C 86.499 27.025, 86.984 33.100, 87.222 37.500 L 87.655 45.500 81.077 42.269 C 73.515 38.554, 65.480 37.068, 52 36.889 C 43.048 36.771, 42.774 36.707, 47.250 35.774 C 50.167 35.166, 52 34.247, 52 33.392 C 52 31.580, 52.705 31.501, 36.250 35.162 C 28.061 36.984, 22 38.820, 22 39.478 C 22 40.314, 27.394 40.504, 42.011 40.183 C 63.294 39.716, 70.593 40.509, 79.287 44.229 C 83.552 46.055, 88 50.017, 88 51.991 C 88 52.388, 80.013 52.974, 70.250 53.293 C 49.095 53.983, 41.204 55.763, 42.646 59.520 C 43.635 62.097, 53.782 63.261, 71.278 62.806 L 88.067 62.369 87.405 66.935 C 87.042 69.446, 86.586 71.678, 86.394 71.895 C 86.201 72.112, 83.797 72.505, 81.050 72.769 C 76.805 73.177, 74.913 72.706, 68.425 69.625 C 57.328 64.355, 51.437 64.835, 45.764 71.469 C 41.274 76.720, 39.612 91.964, 42.477 101.612 C 44.467 108.310, 50.010 114.656, 55.058 116.016 C 60.475 117.474, 65.448 115.976, 73.509 110.457 L 80.041 105.985 77.459 111.080 C 74.371 117.174, 67.213 124.595, 62.538 126.549 C 59.345 127.883, 58.750 127.772, 51.604 124.516 C 41.622 119.967, 30.597 116.676, 28.048 117.485 C 23.015 119.082, 26.812 124.614, 35.852 128.852 C 40.984 131.258, 42.643 131.506, 54 131.564 C 67.780 131.634, 69.738 132.108, 70.609 135.579 C 71.940 140.881, 65.489 147.567, 42.215 165.008 C 20.703 181.129, 19.637 184.599, 38.198 178.087 C 42.764 176.485, 48.971 174.918, 51.991 174.606 C 61.670 173.604, 68.621 169.240, 83.792 154.645 C 100.090 138.966, 104.851 135.013, 111.482 131.656 C 115.072 129.839, 116.667 129.462, 117.190 130.308 C 117.725 131.173, 118.663 131.040, 120.758 129.802 C 123.082 128.429, 124.412 128.305, 128.050 129.120 C 132.822 130.190, 140.254 134.513, 143.786 138.272 L 145.956 140.582 131.381 147.923 C 116.257 155.541, 109 161.043, 109 164.891 C 109 169.942, 114.846 173.298, 136.282 180.555 L 149.064 184.882 153.581 179.191 C 172.522 155.332, 175.163 125.246, 159.039 117.020 C 151.195 113.018, 138.757 115.245, 126.366 122.870 C 120.250 126.633, 118.719 126.746, 116.649 123.587 C 115.780 122.261, 111.177 117.086, 106.421 112.087 C 96.235 101.385, 95.169 101.892, 120.062 105.592 C 144.959 109.292, 153.364 108.212, 158.112 100.701 C 159.858 97.940, 160.070 96.331, 159.653 89 C 158.962 76.834, 156.900 71.699, 151.149 67.825 C 141.784 61.516, 141.771 61.714, 151.623 60.291 C 162.541 58.715, 167 57.280, 167 55.342 C 167 54.057, 164.781 53.880, 151.750 54.125 C 134.469 54.450, 132.174 53.835, 125.623 47.126 L 121.904 43.317 138.202 42.084 C 168.229 39.813, 179 36.815, 179 30.728 C 179 29.163, 178.545 28.902, 176.750 29.434 C 171.396 31.022, 159.066 32.933, 154 32.959 C 138.130 33.043, 113.980 26.525, 95.151 17.076 C 87.684 13.329, 85 12.381, 85 13.491 M 89.576 34.122 C 89.915 42.030, 90.535 49.860, 90.953 51.522 C 91.371 53.184, 91.365 55.485, 90.939 56.635 C 90.216 58.591, 90.597 58.767, 96.833 59.356 C 106.653 60.284, 134 60.136, 134 59.155 C 134 57.312, 130.117 55.133, 122.185 52.526 C 117.612 51.023, 112.662 48.713, 111.185 47.394 C 108.562 45.051, 108.545 44.961, 110.441 43.498 C 111.509 42.674, 113.009 42, 113.774 42 C 114.540 42, 115.017 41.592, 114.833 41.094 C 114.154 39.247, 97.958 25.529, 91.730 21.524 L 88.959 19.743 89.576 34.122 M 100.948 24.717 C 103.394 26.798, 108.554 31.326, 112.414 34.779 C 119.048 40.714, 119.653 41.030, 123.466 40.549 C 125.685 40.269, 134.025 39.549, 142 38.948 C 157.495 37.780, 169.912 35.782, 172.754 34 C 174.288 33.037, 174.241 32.975, 172.366 33.483 C 166.127 35.174, 152.923 35.873, 144.242 34.973 C 130.426 33.541, 112.477 28.564, 100.500 22.844 L 96.500 20.934 100.948 24.717 M 113.194 44.859 C 112.294 45.430, 113.499 46.356, 117.078 47.843 C 124.030 50.733, 124.914 50.564, 121.500 47 C 118.649 44.024, 115.706 43.266, 113.194 44.859 M 57 56.552 C 56.175 56.729, 53.250 57.182, 50.500 57.559 C 41.410 58.807, 48.532 59.856, 66.500 59.916 C 84.615 59.976, 88 59.578, 88 57.383 C 88 56.263, 85.198 56.022, 73.250 56.116 C 65.138 56.180, 57.825 56.376, 57 56.552 M 138.431 58.221 C 139.246 58.677, 142.745 58.633, 146.207 58.122 L 152.500 57.194 144.724 57.293 C 140.032 57.353, 137.536 57.721, 138.431 58.221 M 90 66.460 C 90 70.894, 90.153 71.178, 92.250 70.652 C 93.487 70.342, 100.800 68.744, 108.500 67.103 C 116.200 65.461, 123.400 63.918, 124.500 63.675 C 125.600 63.431, 122 63.177, 116.500 63.110 C 111 63.043, 102.787 62.699, 98.250 62.346 L 90 61.704 90 66.460 M 140.487 65.021 C 138.981 67.458, 114.428 73.338, 96 75.675 C 90.505 76.373, 89.454 76.821, 89.203 78.576 C 88.947 80.367, 90.393 81.221, 99.703 84.780 C 105.641 87.050, 112.975 89.583, 116 90.410 C 122.679 92.234, 125.538 94.156, 124.724 96.276 C 123.891 98.448, 115.043 99.404, 102.607 98.667 C 87.652 97.780, 93.624 99.390, 116.500 102.412 C 145.358 106.224, 151.496 105.751, 155.660 99.396 C 157.982 95.853, 157.920 87.733, 155.506 79.232 C 153.834 73.343, 153.342 72.695, 147.390 68.534 C 143.905 66.098, 140.799 64.517, 140.487 65.021 M 114 68.605 C 107.675 69.929, 102.050 71.228, 101.500 71.493 C 99.133 72.632, 112.128 70.571, 120.432 68.489 C 132.371 65.496, 128.528 65.566, 114 68.605 M 52.452 69.406 C 46.808 71.864, 43.783 79.212, 43.886 90.210 C 44.007 103.162, 49.244 112.354, 57.242 113.652 C 62.181 114.453, 69.988 110.711, 77.250 104.063 C 82.849 98.938, 84.436 96, 81.605 96 C 80.838 96, 77.259 95.088, 73.651 93.974 C 66.300 91.704, 61 87.851, 61 84.779 C 61 82.246, 67.454 76, 70.071 76 C 73.574 76, 72.088 74.543, 65.228 71.250 C 57.695 67.634, 56.812 67.507, 52.452 69.406 M 74.500 77.657 C 67.350 79.367, 62.895 83.021, 64.618 85.761 C 66.309 88.450, 70.941 90.776, 77.788 92.374 L 84.035 93.831 79.973 88.728 C 74.584 81.960, 74.858 79.500, 81 79.500 C 85.140 79.500, 86.945 78.670, 86.985 76.750 C 87.008 75.624, 81.251 76.042, 74.500 77.657 M 79.027 82.750 C 79.042 83.162, 80.322 85.029, 81.872 86.898 L 84.691 90.297 85.341 87.046 C 85.698 85.258, 85.742 83.391, 85.437 82.897 C 84.769 81.816, 78.989 81.684, 79.027 82.750 M 87.685 88.250 C 86.792 94.804, 87.461 95.082, 105.616 95.703 C 122.706 96.288, 124.776 95.438, 113.381 92.519 C 110.025 91.659, 103.398 89.391, 98.654 87.478 C 93.910 85.565, 89.632 84, 89.146 84 C 88.661 84, 88.003 85.912, 87.685 88.250 M 85.500 98 C 85.160 98.550, 85.835 99, 87 99 C 88.165 99, 88.840 98.550, 88.500 98 C 88.160 97.450, 87.485 97, 87 97 C 86.515 97, 85.840 97.450, 85.500 98 M 82.117 107.430 C 79.051 114.829, 72.769 123.362, 68.401 126.061 L 64.791 128.293 67.820 129.566 C 69.486 130.267, 71.599 131.984, 72.515 133.382 C 76.481 139.435, 68.493 149.075, 45.500 165.983 C 27.872 178.947, 28.173 178.628, 36.500 175.508 C 40.350 174.066, 46.777 172.481, 50.782 171.988 C 60.776 170.756, 66.391 167.466, 78.977 155.470 C 98.106 137.238, 103.699 132.480, 109.379 129.606 C 112.471 128.041, 115 126.362, 115 125.875 C 115 125.387, 109.989 119.815, 103.866 113.494 C 93.160 102.443, 92.570 102, 88.550 102 C 84.431 102, 84.334 102.081, 82.117 107.430 M 145.764 118.115 C 143.159 118.509, 137.846 120.297, 133.958 122.089 L 126.888 125.348 131.501 127.099 C 137.555 129.397, 150 138.797, 150 141.072 C 150 141.446, 143.137 145.159, 134.750 149.323 C 118.717 157.282, 112 161.912, 112 165.005 C 112 168.372, 119.730 172.290, 139.778 179.086 L 148.056 181.892 152.530 176.196 C 161.934 164.222, 167.638 148.200, 166.721 136.333 C 165.658 122.591, 158.328 116.219, 145.764 118.115 M 29.232 121.250 C 29.451 121.938, 32.032 123.802, 34.966 125.394 C 39.010 127.588, 42.021 128.393, 47.401 128.718 L 54.500 129.147 49 126.502 C 42.662 123.454, 32.808 120, 30.448 120 C 29.560 120, 29.013 120.563, 29.232 121.250" stroke="none" fill="black" fill-rule="evenodd"/>
</svg>