<svg xmlns="http://www.w3.org/2000/svg" width="200" height="200" viewBox="0 0 200 200" version="1.1">
	<path d="M 133.541 26 L 124.811 38.077 121.656 35.967 C 111.191 28.971, 99.245 27.184, 88.113 30.952 C 82.076 32.995, 74.576 37.312, 69 41.953 L 66.500 44.034 69.500 46.554 C 71.150 47.940, 76.279 50.964, 80.898 53.274 C 88.598 57.125, 89.928 57.470, 96.898 57.432 C 106.113 57.382, 112.098 54.697, 119.872 47.125 L 124.950 42.179 127.809 45.435 C 130.944 49.006, 138.430 60.926, 137.858 61.437 C 137.661 61.612, 133.900 61.105, 129.500 60.309 C 119.841 58.563, 99.122 59.093, 91.134 61.291 L 85.767 62.767 78.064 58.912 C 69.443 54.597, 61.307 52.489, 56.776 53.395 C 54.033 53.943, 53.875 53.838, 55.051 52.249 C 55.764 51.287, 60.093 46.898, 64.673 42.496 C 76.444 31.181, 76.036 28.179, 62.497 26.501 C 56.127 25.711, 24.964 27.889, 4.250 30.572 C 1.746 30.896, -0 31.649, 0 32.405 C 0 33.370, 4.017 33.838, 16.250 34.299 C 33.814 34.961, 42.144 36.263, 44.132 38.659 C 45.204 39.951, 43.722 41.800, 34.292 50.936 C 27.015 57.986, 22.290 63.467, 20.578 66.847 L 17.965 72.002 17.733 120.251 C 17.485 171.554, 17.649 173.651, 22.297 178.750 C 23.426 179.988, 25.005 181, 25.806 181 C 28.599 181, 33.808 176.937, 37.809 171.636 L 41.838 166.300 41.268 148.650 C 40.754 132.759, 40.860 131, 42.330 131 C 43.237 131, 44.241 129.889, 44.589 128.500 C 46.127 122.375, 49.076 128.202, 53.956 147 C 55.741 153.875, 58.298 162.981, 59.639 167.236 C 65.126 184.639, 70.330 177.064, 72.510 148.500 C 73.091 140.885, 73.733 138.500, 76.684 133 C 82.777 121.644, 82.958 121.811, 82.295 138.172 C 81.543 156.746, 82.882 164.810, 87.570 169.924 C 90.404 173.016, 91.433 173.488, 95.174 173.408 C 97.553 173.357, 100.922 172.579, 102.660 171.679 L 105.820 170.042 105.660 174.771 C 105.516 179.017, 105.738 179.534, 107.828 179.830 C 109.631 180.085, 112.032 178.257, 118.486 171.716 L 126.816 163.273 131.658 169.348 C 146.083 187.445, 161.053 184.918, 172.229 162.500 C 180.328 146.256, 183.959 121.528, 180.821 104 C 180.181 100.425, 179.689 96.375, 179.727 95 C 179.766 93.625, 179.926 88.450, 180.082 83.500 C 180.579 67.790, 176.877 61.101, 161.568 50.049 C 156.987 46.742, 151.847 42.451, 150.146 40.514 C 146.227 36.050, 143.713 27.550, 144.158 20.270 C 144.372 16.770, 144.084 14.542, 143.385 14.304 C 142.772 14.095, 138.342 19.358, 133.541 26 M 135.319 28.102 C 132.118 32.558, 128.917 37.007, 128.204 37.988 C 127.072 39.545, 127.569 40.644, 132.110 46.636 C 134.971 50.411, 138.313 55.655, 139.537 58.288 C 141.346 62.184, 142.714 63.552, 146.877 65.626 C 154.013 69.182, 156.341 72.377, 155.522 77.489 C 154.469 84.063, 154.560 88.094, 155.941 96 C 157.566 105.308, 156.807 118.621, 154.036 129.400 C 151.546 139.087, 145.340 150.952, 141.693 152.998 C 132.991 157.882, 132.792 142.075, 141.194 113.375 C 143.821 104.400, 144.381 100.753, 144.399 92.500 C 144.421 82.514, 142.114 69.891, 139.658 66.561 C 136.807 62.695, 110.659 60.608, 96.332 63.103 C 89.940 64.216, 89.146 64.746, 91.041 66.641 C 92.597 68.197, 92.715 89.996, 91.182 92.750 C 89.541 95.698, 86.367 95.613, 81.785 92.500 C 79.762 91.125, 77.396 90, 76.528 90 C 74.331 90, 72.817 94.573, 73.051 100.500 C 73.159 103.250, 73.107 105.950, 72.934 106.500 C 72.761 107.050, 72.593 110.977, 72.560 115.226 C 72.470 126.848, 70.596 125.262, 69.930 113 C 69.523 105.516, 68.733 100.989, 67.180 97.239 C 64.394 90.515, 64.296 82.300, 66.941 77.115 C 69.002 73.076, 74.678 67.559, 78.623 65.762 C 79.930 65.166, 81 64.351, 81 63.950 C 81 63.002, 72.730 59.078, 67.091 57.351 C 53.048 53.049, 46.093 59.563, 54.635 69.018 L 58.270 73.042 57.777 82.480 C 57.077 95.863, 53.779 100.348, 49.055 94.342 C 43.954 87.857, 41.742 68.994, 45.298 62.302 C 49.146 55.062, 53.939 49.033, 62.480 40.690 C 73.913 29.523, 73.807 29.412, 52 29.717 C 37.178 29.925, 17.588 31.572, 26.418 31.869 C 39.516 32.308, 48.874 36.251, 47.368 40.694 C 47.031 41.688, 41.913 47.225, 35.995 53 C 19.411 69.182, 20.712 63.395, 20.597 121.500 C 20.506 167.412, 20.617 170.736, 22.364 174.250 C 25.196 179.948, 28.505 179.097, 34.881 171.031 L 38.747 166.141 38.253 139.320 C 37.607 104.167, 39.515 84.454, 43.026 90.008 C 43.545 90.829, 43.976 98.556, 43.985 107.180 C 44 122.675, 44.027 122.865, 46.250 123.180 C 49.553 123.650, 52.240 129.928, 57.512 149.500 C 64.372 174.966, 65.035 176.357, 66.915 169.250 C 68.185 164.452, 70 149.805, 70 144.354 C 70 137.502, 80.132 119.214, 83.339 120.277 C 84.148 120.546, 84.652 126.861, 85 141.081 C 85.427 158.506, 85.780 162.064, 87.408 165.344 C 89.689 169.938, 92.615 171.482, 97.352 170.594 C 102.493 169.629, 104.866 167.154, 106.072 161.500 C 106.658 158.750, 107.491 138.275, 107.922 116 C 108.735 74.083, 109.184 70, 112.986 70 C 115.550 70, 118.607 73.861, 122.105 81.520 C 128.919 96.438, 126.991 113.814, 113.991 154.627 C 108.479 171.930, 107.297 177, 108.775 177 C 109.324 177, 113.627 172.950, 118.337 168 C 123.048 163.050, 127.102 159, 127.347 159 C 127.591 159, 129.213 161.216, 130.951 163.923 C 138.057 174.997, 147.138 180.430, 154.488 178.004 C 162.963 175.207, 171.653 161.473, 176.071 143.893 C 178.946 132.453, 179.777 110.984, 177.693 102 C 176.530 96.987, 176.410 94.128, 177.170 89.500 C 178.304 82.587, 177.558 73.579, 175.428 68.482 C 173.293 63.373, 167.857 57.767, 159.058 51.602 C 146.756 42.981, 142.305 36.305, 141.780 25.681 C 141.626 22.564, 141.418 20.011, 141.319 20.007 C 141.219 20.003, 138.519 23.646, 135.319 28.102 M 94.553 32.165 C 89.407 32.920, 77.261 38.505, 73.101 42.029 C 70.769 44.005, 70.755 44.103, 72.601 45.533 C 73.645 46.342, 77.855 48.691, 81.955 50.752 C 88.633 54.110, 90.194 54.497, 96.955 54.467 C 102.662 54.442, 105.474 53.919, 108.500 52.320 C 113.337 49.763, 122.001 42.282, 121.998 40.665 C 121.996 39.498, 115.258 34.929, 111.500 33.547 C 107.605 32.115, 99.434 31.449, 94.553 32.165 M 46.491 68.328 C 45.634 73.905, 46.361 80.513, 48.564 87.173 C 51.964 97.453, 55 94.691, 55 81.317 C 55 74.527, 54.722 73.438, 52.250 70.536 C 50.737 68.761, 48.990 66.452, 48.367 65.404 C 47.382 63.750, 47.136 64.134, 46.491 68.328 M 81.422 67.418 C 77.709 69.035, 71.348 74.481, 69.805 77.364 C 67.694 81.310, 67.105 86.390, 68.179 91.399 L 69.245 96.368 71.372 91.934 C 74.084 86.283, 76.547 85.849, 82.720 89.938 C 86.013 92.119, 87.688 92.711, 88.439 91.957 C 89.068 91.325, 89.471 86.386, 89.430 79.813 C 89.368 70.194, 89.113 68.556, 87.488 67.368 C 85.249 65.730, 85.301 65.730, 81.422 67.418 M 144.765 71.750 C 145.891 75.156, 146.358 80.744, 146.418 91.500 C 146.493 105.195, 146.268 107.198, 143.836 114.529 C 139.064 128.911, 136.075 148.395, 138.298 150.628 C 140.801 153.142, 147.648 141.947, 151.187 129.551 C 153.135 122.729, 153.474 119.287, 153.406 107 C 153.352 97.247, 152.851 91.032, 151.874 88.017 C 150.528 83.861, 150.567 83.268, 152.413 79.899 C 154.325 76.407, 154.334 76.159, 152.647 73.585 C 151.068 71.174, 145.504 67.013, 143.848 67.004 C 143.489 67.002, 143.902 69.138, 144.765 71.750 M 112.485 73.628 C 112.033 74.658, 111.334 93.500, 110.933 115.500 C 110.532 137.500, 109.925 156.625, 109.584 158 C 109.244 159.375, 110.335 156.450, 112.009 151.500 C 118.603 132.001, 122.142 116.139, 122.720 103.500 C 123.258 91.717, 123.211 91.365, 120.116 84 C 118.382 79.875, 116.141 75.433, 115.135 74.128 C 113.413 71.893, 113.260 71.864, 112.485 73.628" stroke="none" fill="black" fill-rule="evenodd"/>
</svg>