<svg xmlns="http://www.w3.org/2000/svg" width="200" height="200" viewBox="0 0 200 200" version="1.1">
	<path d="M 122 15.240 C 119.307 19.668, 117.220 29.677, 114.600 50.716 L 112.386 68.500 108.636 68.273 C 106.574 68.149, 103.113 67.569, 100.944 66.985 L 97 65.923 96.789 60.211 C 96.308 47.152, 96.918 43.832, 100.968 37.500 C 104.461 32.038, 109.998 17.571, 108.939 16.673 C 108.009 15.883, 89.100 18.194, 81.031 20.083 C 71.160 22.395, 64.626 25.889, 62.506 29.989 C 60.310 34.235, 60.660 41.649, 63.440 49.825 C 64.783 53.771, 65.602 57, 65.261 57 C 64.921 57, 61.653 56.037, 58 54.861 L 51.359 52.722 50.238 46.177 C 48.343 35.115, 42.758 30, 32.575 30 C 23.139 30, 20.352 32.885, 17.277 45.836 C 15.947 51.439, 15.679 60.815, 15.597 104.750 C 15.544 133.487, 15.756 157, 16.068 157 C 16.381 157, 18.856 156.351, 21.568 155.558 C 24.281 154.765, 30.549 153.366, 35.499 152.451 C 47.249 150.277, 53.729 147.780, 58.728 143.500 C 63.766 139.189, 71.234 129.118, 77.454 118.250 C 80.050 113.713, 82.496 110, 82.888 110 C 84.528 110, 86 112.608, 86 115.512 C 86 117.224, 84.650 122.619, 83 127.500 C 80.025 136.300, 79.424 140.335, 80.621 143.455 C 82.323 147.891, 92.584 149.208, 105 146.585 C 108.575 145.830, 111.565 145.277, 111.644 145.356 C 111.951 145.664, 93.869 161.151, 81.721 170.984 C 62.034 186.921, 65.473 187.507, 98.228 173.799 L 120.790 164.357 121.908 168.086 C 123.264 172.613, 128.603 177.518, 133.723 178.940 C 145.608 182.240, 167.205 176.919, 174.676 168.850 C 183.546 159.270, 172.301 153.027, 146.140 153.008 L 135.780 153 142.081 148.362 C 161.458 134.097, 167.760 122.649, 160.482 114.932 C 155.689 109.850, 149.885 107.880, 132.428 105.411 C 129.360 104.977, 129.356 104.968, 128.139 95.738 C 127.469 90.657, 126.656 84.813, 126.332 82.750 C 125.846 79.646, 126.040 79, 127.459 79 C 130.095 79, 140.780 89.826, 155.307 107.219 C 162.557 115.898, 168.782 123, 169.141 123 C 170.147 123, 173.004 106.143, 173.002 100.218 C 172.998 90.357, 168.526 83.663, 159.491 79.997 C 156.598 78.822, 147.092 76.357, 138.366 74.519 L 122.500 71.177 150.250 71.089 C 177.878 71, 178 70.991, 178 68.868 C 178 67.696, 176.469 65.292, 174.598 63.527 C 170.715 59.866, 164.511 57.881, 149.510 55.503 C 144.015 54.632, 139.145 53.545, 138.688 53.088 C 138.231 52.631, 139.023 51.341, 140.447 50.221 C 144.072 47.369, 160.478 39, 162.442 39 C 164.584 39, 173.289 34.561, 174.861 32.667 C 177.322 29.702, 174.065 30.021, 166.454 33.489 C 157.495 37.572, 156.081 37.702, 150.413 34.958 C 146.345 32.989, 142.973 29.694, 132.687 17.640 C 127.120 11.115, 124.822 10.599, 122 15.240 M 123.371 18.653 C 121.380 23.419, 119.538 33.314, 117.535 50 C 116.643 57.425, 115.700 64.513, 115.438 65.750 L 114.962 68 145.103 68 C 172.405 68, 175.122 67.852, 173.939 66.427 C 171.258 63.197, 164.647 60.910, 151.468 58.654 C 136.937 56.167, 133.985 54.764, 135.871 51.241 C 136.998 49.135, 143.992 44.344, 150.223 41.409 L 153.946 39.655 150.158 37.959 C 144.882 35.597, 140.115 31.179, 133.443 22.468 C 130.297 18.360, 127.087 15, 126.310 15 C 125.534 15, 124.211 16.644, 123.371 18.653 M 96.500 20.265 C 86.089 21.267, 73.732 24.384, 69.294 27.127 C 65.082 29.730, 62.628 34.928, 63.522 39.354 C 63.871 41.084, 65.314 46.135, 66.728 50.578 L 69.300 58.656 78.911 61.328 C 84.197 62.798, 89.715 64, 91.173 64 L 93.823 64 94.162 53.226 C 94.490 42.785, 94.612 42.282, 98.101 36.976 C 102.047 30.976, 105.385 22.995, 104.844 20.856 C 104.569 19.768, 102.895 19.649, 96.500 20.265 M 29.274 32.713 C 24.903 33.269, 22.508 36.635, 20.320 45.296 C 18.679 51.790, 18.499 57.492, 18.494 103.133 L 18.488 153.765 20.715 152.918 C 21.940 152.453, 28.018 151.113, 34.221 149.941 C 47.894 147.358, 52.442 145.477, 58.481 139.911 C 63.282 135.486, 71.272 124.062, 77.122 113.262 C 80.796 106.477, 82.236 105.824, 86.365 109.073 C 89.933 111.879, 89.837 116.649, 86 127.163 C 82.369 137.112, 82.086 142.440, 85.102 144.055 C 88.315 145.774, 99.603 145.280, 108.364 143.037 C 115.721 141.153, 118 141.105, 118 142.831 C 118 143.824, 100.124 159.553, 86.152 170.855 C 79.744 176.038, 75.625 179.931, 77 179.505 C 78.375 179.079, 89.114 174.685, 100.865 169.742 C 123.250 160.324, 123.946 160.202, 123.985 165.673 C 124.005 168.614, 128.670 173.964, 132.671 175.636 C 142.426 179.712, 163.750 175.168, 172.250 167.203 C 176.323 163.386, 175.820 161.259, 170.250 158.740 C 166.090 156.859, 163.083 156.524, 146.054 156.046 L 126.608 155.500 135.053 150 C 145.849 142.969, 158.290 130.825, 159.957 125.691 C 162.926 116.548, 155.055 111.043, 135.390 108.509 L 130.280 107.851 129.792 117.188 C 129.255 127.447, 127.068 133.849, 122.741 137.825 C 119.154 141.122, 118.001 138.652, 121.448 135.055 C 125.019 131.327, 127 124.267, 127 115.267 L 127 107.852 122.197 108.107 C 119.555 108.247, 116.898 108.055, 116.292 107.680 C 115.587 107.245, 115.383 104.873, 115.724 101.105 C 116.327 94.461, 115.260 85.305, 114.038 86.629 C 113.596 87.108, 112.462 96.725, 111.516 108 C 109.938 126.827, 109.076 131.410, 107.425 129.758 C 107.090 129.423, 107.795 118.449, 108.991 105.372 C 111.070 82.643, 111.087 81.537, 109.392 80.297 C 106.643 78.287, 101.029 78.773, 95.096 81.535 C 88.686 84.519, 75.440 97.384, 69.134 106.750 C 65.225 112.556, 63 114.448, 63 111.967 C 63 111.398, 64.128 108.707, 65.507 105.986 C 68.756 99.575, 70.971 90.047, 70.968 82.500 C 70.965 75.311, 68.517 63.053, 66.759 61.421 C 65.593 60.338, 53.626 56, 51.806 56 C 51.363 56, 50.987 58.813, 50.970 62.250 C 50.954 65.688, 50.292 75.025, 49.500 83 C 48.708 90.975, 48.046 103.688, 48.030 111.250 L 48 125 45.622 125 C 42.285 125, 41.103 123.151, 39.835 115.951 C 38.092 106.061, 42.113 61.435, 46.070 46.740 C 48.437 37.951, 40.462 31.292, 29.274 32.713 M 47.186 54.500 C 47.076 55.050, 46.076 62.250, 44.963 70.500 C 42.155 91.326, 41.347 112.190, 43.124 118 L 44.500 122.500 44.715 114 C 44.833 109.325, 45.658 96.725, 46.550 86 C 47.441 75.275, 47.993 63.575, 47.778 60 C 47.562 56.425, 47.295 53.950, 47.186 54.500 M 71.402 65.082 C 74.126 78.027, 74.460 88.099, 72.415 95.609 C 72.056 96.926, 74.796 94.813, 79.715 89.980 C 91.249 78.646, 101.504 74.322, 109.750 77.317 C 111.759 78.047, 112 77.819, 112 75.192 C 112 71.468, 110.030 71.005, 94.125 70.986 C 81.222 70.971, 78 70.445, 78 68.351 C 78 67.573, 79.013 66.554, 80.250 66.088 C 82.277 65.324, 82.073 65.124, 78.187 64.065 C 75.816 63.418, 73.157 62.614, 72.279 62.277 C 70.932 61.760, 70.795 62.198, 71.402 65.082 M 87.750 67.662 C 88.438 67.940, 89.563 67.940, 90.250 67.662 C 90.938 67.385, 90.375 67.158, 89 67.158 C 87.625 67.158, 87.063 67.385, 87.750 67.662 M 114.515 75.930 C 114.020 78.185, 114.469 80.316, 116.168 83.764 C 118.040 87.565, 118.500 90.128, 118.500 96.750 L 118.500 105 122.584 105 L 126.669 105 125.712 98.750 C 125.186 95.313, 124.698 88.925, 124.628 84.556 C 124.504 76.869, 124.581 76.592, 127 75.993 C 129.055 75.485, 128.654 75.255, 124.751 74.706 C 122.139 74.339, 118.920 73.767, 117.599 73.435 C 115.533 72.917, 115.100 73.266, 114.515 75.930 M 138.927 84.750 C 143.658 89.563, 152.100 99.003, 157.686 105.728 L 167.844 117.957 168.922 112.929 C 170.476 105.682, 170.277 94.437, 168.536 91.069 C 166.435 87.007, 161.793 83.422, 156.281 81.607 C 152.114 80.235, 133.060 76, 131.053 76 C 130.653 76, 134.196 79.938, 138.927 84.750" stroke="none" fill="black" fill-rule="evenodd"/>
</svg>