<svg xmlns="http://www.w3.org/2000/svg" width="200" height="200" viewBox="0 0 200 200" version="1.1">
	<path d="M 41.382 16.554 C 42.196 18.674, 38.027 26.666, 30.322 37.758 C 20.360 52.099, 19.155 56.558, 23.062 64.627 C 25.370 69.395, 35.180 79.034, 42.308 83.538 C 44.887 85.167, 46.997 86.761, 46.998 87.079 C 46.999 87.398, 44.784 88.696, 42.075 89.965 C 36.151 92.740, 29.755 99.031, 27.297 104.500 C 25.671 108.119, 25.500 112.050, 25.500 145.749 C 25.500 166.237, 25.555 182.999, 25.623 182.999 C 25.690 183, 27.940 181.988, 30.623 180.750 C 35.247 178.617, 36.561 178.513, 55.963 178.759 C 80.389 179.068, 84.766 178.215, 90.323 172.065 C 94.956 166.936, 96.254 161.948, 96.455 148.500 C 96.586 139.728, 97.083 136.284, 98.909 131.500 C 103.325 119.929, 99.957 112.458, 89.077 109.691 L 83.653 108.311 87.844 107.641 C 95.808 106.367, 101.211 109.356, 103.008 116.029 C 103.550 118.041, 103.892 129.545, 103.769 141.594 C 103.574 160.619, 103.794 164.339, 105.440 169.879 C 107.269 176.034, 107.515 176.337, 112.418 178.487 C 120.532 182.044, 127.784 183.378, 138.500 183.282 C 158.032 183.107, 177.431 175.130, 183.942 164.594 C 186.693 160.143, 186.652 153.724, 183.847 149.785 C 181.611 146.644, 173.565 141, 171.324 141 C 170.617 141, 167.668 142.514, 164.769 144.365 C 156.919 149.378, 142.592 156.970, 139.082 157.976 C 131.882 160.041, 138.182 150.793, 156.718 132.084 C 164.574 124.156, 170.812 117.478, 170.579 117.246 C 170.347 117.013, 167.266 118.203, 163.732 119.889 C 154.494 124.298, 147.945 125.524, 142.210 123.919 C 138.484 122.876, 136 120.962, 129.136 113.849 C 119.690 104.060, 115.881 101.769, 109.050 101.769 L 104.389 101.769 99.793 93.559 L 95.197 85.349 95.938 72.909 C 96.851 57.571, 98.550 54, 104.934 54 C 107.380 54, 107.379 53.981, 105.486 65.500 C 103.305 78.778, 103.531 86.647, 106.250 92.035 C 110.149 99.762, 114.459 100.503, 132.194 96.500 C 151.738 92.088, 160.978 93.483, 168.215 101.938 C 172.441 106.875, 172.034 107.524, 174.941 91.204 C 182.158 50.692, 178.594 33.355, 161.837 27.442 C 151.859 23.922, 125.133 27.086, 114.590 33.036 L 108.930 36.230 97.061 33.595 C 79.496 29.695, 60.806 23.061, 59.414 20.232 C 57.727 16.804, 57.096 16.486, 55.719 18.369 C 54.540 19.981, 54.086 19.928, 48.701 17.546 C 42.036 14.599, 40.555 14.398, 41.382 16.554 M 43.065 22.242 C 42.444 24.026, 38.134 31.125, 33.487 38.019 C 21.725 55.471, 21.261 59.748, 30.081 69.398 C 34.846 74.612, 45.762 83.308, 50.892 85.978 L 53.283 87.222 52.562 72.361 C 51.642 53.407, 51.668 51.264, 52.862 48.104 C 53.403 46.672, 54.126 40.502, 54.468 34.392 L 55.089 23.285 50.109 21.142 C 47.370 19.964, 44.919 19, 44.662 19 C 44.406 19, 43.687 20.459, 43.065 22.242 M 57.639 28.057 C 57.287 29.813, 57 34.149, 57 37.692 C 57 43.369, 57.208 44.070, 58.750 43.589 C 61.941 42.595, 74.422 41.040, 79.500 41.004 C 86.416 40.956, 88.471 39.448, 82.783 38.595 C 76.655 37.676, 66.210 32.564, 61.889 28.370 L 58.277 24.865 57.639 28.057 M 67.500 29.430 C 73.937 33.586, 81.953 36.145, 90 36.611 L 97.500 37.046 89 34.692 C 84.325 33.397, 77.350 31.296, 73.500 30.023 C 63.233 26.627, 63.145 26.618, 67.500 29.430 M 143.500 28.659 C 132.210 30.014, 121.015 32.516, 118 34.360 L 114.500 36.500 119.500 37.162 C 122.250 37.527, 127.875 37.890, 132 37.969 C 136.125 38.048, 141.059 38.650, 142.965 39.306 C 146.650 40.576, 151 45.950, 151 49.234 C 151 50.301, 152.454 53.198, 154.232 55.674 C 158.677 61.863, 158.806 69.672, 154.613 78.750 C 153.026 82.188, 151.387 85, 150.972 85 C 150.557 85, 150.054 78.295, 149.855 70.100 C 149.434 52.844, 149.204 52.342, 140.148 48.954 C 128.363 44.545, 120.662 43.547, 98.214 43.523 C 74.669 43.498, 75.645 43.221, 74.456 50.262 C 73.892 53.600, 74.236 54.583, 77.264 58.283 C 79.163 60.602, 83.480 66.712, 86.858 71.859 L 93 81.219 93.044 72.859 C 93.105 61.240, 95.300 55.087, 100.246 52.670 C 104.646 50.519, 110.001 51.156, 109.999 53.829 C 109.998 54.748, 109.323 59.325, 108.500 64 C 105.655 80.154, 106.971 92.309, 111.850 94.920 C 115.017 96.614, 121.616 96.172, 133 93.500 C 150.435 89.409, 160.789 90.617, 168.091 97.594 L 170.682 100.070 172.369 90.285 C 176.272 67.639, 176.858 56.280, 174.615 46.746 C 172.035 35.784, 167.117 31.108, 155.937 28.988 C 150.765 28.007, 149.268 27.968, 143.500 28.659 M 109.500 40.038 C 112.250 40.478, 118.353 41.358, 123.063 41.995 C 130.394 42.985, 139.763 45.591, 146.250 48.444 C 148.719 49.530, 148.455 47.641, 145.690 44.426 C 143.464 41.838, 142.781 41.691, 126.940 40.403 C 108.677 38.917, 101.566 38.768, 109.500 40.038 M 56.667 47.667 C 56.300 48.033, 56 52.448, 56 57.478 C 56 65.312, 56.294 66.938, 58.048 68.821 C 59.644 70.535, 60.508 70.799, 61.965 70.019 C 64.030 68.914, 70 57.700, 70 54.927 C 70 51.285, 59.025 45.309, 56.667 47.667 M 68.479 48.976 C 70.377 51.075, 72 50.828, 72 48.441 C 72 47.548, 70.990 47, 69.345 47 C 66.764 47, 66.740 47.055, 68.479 48.976 M 69 64.353 C 65.155 72.180, 61.768 74.586, 57.951 72.202 C 56.060 71.021, 56 71.326, 56 82.114 C 56 90.896, 56.264 93.030, 57.250 92.226 C 58.148 91.494, 60.591 92.437, 65.917 95.569 C 74.695 100.732, 82.719 102.905, 86.554 101.157 C 89.677 99.735, 92 94.486, 92 88.856 C 92 85.245, 90.804 82.852, 83.589 72.020 C 78.963 65.075, 74.575 58.906, 73.839 58.311 C 72.783 57.457, 71.761 58.732, 69 64.353 M 152.359 61.500 C 152.699 63.700, 153.024 67.750, 153.079 70.500 L 153.180 75.500 154.188 72 C 155.395 67.806, 154.715 60.284, 152.983 58.663 C 152 57.743, 151.869 58.337, 152.359 61.500 M 45.308 91.437 C 37.790 94.937, 34.154 97.908, 31.152 103 L 28.500 107.500 28.500 143.047 L 28.500 178.593 32.500 177.112 C 35.632 175.952, 40.896 175.678, 56.755 175.854 C 78.673 176.095, 82.955 175.452, 87.509 171.229 C 92.282 166.803, 93.426 162.674, 93.527 149.500 C 93.603 139.567, 93.996 136.589, 95.809 132.213 C 101.221 119.153, 96.914 112.547, 82.181 111.312 C 76.195 110.810, 74.639 111.092, 67.880 113.906 C 56.350 118.706, 56.957 117.594, 58.617 130.878 C 59.399 137.136, 60.930 146.340, 62.019 151.331 C 63.109 156.323, 64 160.765, 64 161.203 C 64 163.591, 61.486 161.143, 56.859 154.250 C 51.274 145.929, 41.588 133.700, 38.125 130.595 C 36.956 129.547, 36.006 128.197, 36.014 127.595 C 36.022 126.993, 39.959 124.466, 44.764 121.980 C 51.055 118.726, 53.585 116.871, 53.803 115.354 C 54.078 113.450, 53.526 113.206, 48.038 112.809 C 44.701 112.568, 41.462 111.862, 40.841 111.241 C 38.883 109.283, 41.872 104.217, 47.643 99.710 C 52.170 96.175, 53 95.021, 53 92.263 C 53 88.337, 52.160 88.247, 45.308 91.437 M 94.425 93.564 C 93.160 98.827, 90.931 102.125, 87.685 103.536 C 84.548 104.901, 84.600 104.922, 91.115 104.961 C 98.517 105.005, 101.697 106.723, 104.770 112.338 C 106.276 115.090, 106.501 118.673, 106.511 140 C 106.522 163.416, 107.131 169.610, 109.835 173.793 C 110.295 174.504, 114.008 176.273, 118.086 177.723 C 124.431 179.980, 127.158 180.364, 137 180.387 C 153.682 180.425, 168.346 175.903, 177.446 167.913 C 184.933 161.340, 185.605 154.494, 179.307 148.964 C 172.599 143.075, 172.209 143.084, 161.708 149.350 C 142.851 160.602, 133.921 163.448, 133.204 158.432 C 132.771 155.401, 139.778 145.518, 150.068 134.645 C 158.321 125.924, 158.808 125.195, 155.800 126.057 C 151.407 127.317, 142.798 127.253, 139.315 125.934 C 137.767 125.348, 132.225 120.686, 127 115.575 C 116.861 105.657, 112.527 103.303, 106.488 104.436 C 103.147 105.063, 103.059 104.984, 99.119 97.849 C 95.223 90.793, 95.115 90.695, 94.425 93.564 M 56.667 95.667 C 55.685 96.649, 55.885 106.269, 56.921 107.906 C 58.021 109.643, 72.954 108.794, 80 106.594 L 84.500 105.189 80.157 104.452 C 77.769 104.046, 71.972 101.754, 67.275 99.357 C 58.326 94.791, 57.745 94.589, 56.667 95.667 M 47.741 103.224 C 45.134 105.653, 43 108.171, 43 108.820 C 43 109.584, 44.940 110, 48.500 110 L 54 110 53.900 106.750 C 53.845 104.963, 53.504 102.445, 53.142 101.155 C 52.497 98.860, 52.380 98.904, 47.741 103.224 M 57 114.026 C 57 115.983, 57.109 115.996, 60.250 114.399 C 64.776 112.097, 64.793 112, 60.667 112 C 57.651 112, 57 112.360, 57 114.026 M 47.500 123.719 C 43.650 125.653, 40.329 127.392, 40.120 127.582 C 39.910 127.772, 41.980 130.531, 44.718 133.714 C 47.456 136.896, 51.855 142.425, 54.494 146 C 59.052 152.174, 59.258 152.325, 58.613 149 C 57.889 145.274, 55.254 127.282, 54.782 122.851 L 54.500 120.201 47.500 123.719" stroke="none" fill="black" fill-rule="evenodd"/>
</svg>