<svg xmlns="http://www.w3.org/2000/svg" width="200" height="200" viewBox="0 0 200 200" version="1.1">
	<path d="M 101 14.182 C 101 16.225, 99.544 17.346, 91.605 21.420 L 82.211 26.241 72.855 22.870 C 64.827 19.978, 62.213 19.500, 54.424 19.500 C 45.779 19.500, 44.949 19.698, 36.924 23.683 C 32.291 25.984, 25.217 30.636, 21.203 34.021 L 13.907 40.175 17.802 44.401 C 26.576 53.920, 30.679 65.381, 29.656 77.517 C 29.331 81.376, 27.700 89.790, 26.032 96.213 C 24.365 102.637, 23.002 110.279, 23.004 113.196 C 23.008 119.478, 25.700 124.636, 29.469 125.582 C 31.620 126.122, 32 126.786, 32 130.009 C 32 132.094, 30.023 140.708, 27.607 149.150 C 22.261 167.833, 21.674 171.013, 22.953 174.377 C 25.154 180.164, 32.123 176.951, 47.663 162.984 C 56.144 155.362, 56.702 155.038, 61.500 154.961 C 64.250 154.917, 68.750 154.506, 71.500 154.047 C 81.396 152.397, 86.634 157.318, 96.728 177.750 C 100.511 185.407, 103.871 191, 104.687 191 C 109.425 191, 117.589 183.002, 122.761 173.294 C 126.693 165.915, 130.760 153.865, 132.987 143 L 134.729 134.500 135.486 141 C 137.070 154.615, 142.174 169.161, 147.360 174.845 C 156.056 184.375, 169.255 180.095, 176.156 165.509 C 181.506 154.199, 179.642 144.045, 171.164 138.332 L 167.876 136.116 170.688 134.647 C 174.233 132.796, 178.574 128.167, 179.432 125.323 C 181.893 117.162, 168.788 107.712, 144.290 99.980 L 134.080 96.758 132.474 91.920 C 131.590 89.260, 129.743 85.427, 128.370 83.403 L 125.873 79.724 127.962 74.866 C 131.633 66.333, 130.643 50.188, 125.864 40.664 C 122.681 34.322, 120.132 32, 116.349 32 C 112.478 32, 110.587 34.309, 107.478 42.836 C 105.528 48.185, 105.281 48.426, 100.478 49.664 C 97.740 50.370, 94.732 50.710, 93.793 50.420 C 92.265 49.948, 92.390 49.291, 94.976 44.196 C 98.995 36.276, 100.031 33.517, 101.975 25.558 L 103.670 18.616 108.585 16.885 C 111.365 15.907, 116.634 15.121, 120.715 15.078 C 127.384 15.006, 128.193 15.231, 131.400 18.047 C 138.297 24.102, 139.423 33.347, 137.609 69.036 C 136.764 85.657, 136.825 86.817, 138.786 91.249 C 141.191 96.687, 144.025 97.908, 150.048 96.104 C 157.611 93.838, 181.666 75.415, 179.702 73.393 C 178.764 72.427, 178.577 72.555, 168.581 81 C 159.139 88.976, 150.559 93.972, 146.276 93.988 C 143.672 93.998, 142.741 93.400, 141.441 90.886 C 140.020 88.138, 139.915 84.511, 140.550 60.106 C 141.350 29.397, 140.722 24.388, 135.263 17.900 L 132.543 14.668 140.266 15.321 C 156.972 16.733, 167.439 20.620, 169.378 26.133 C 170.411 29.071, 167.924 34.963, 160.994 46 C 157.684 51.271, 156.968 53.256, 157.206 56.500 C 157.473 60.126, 157.917 60.711, 161.962 62.750 C 166.513 65.045, 173 65.791, 173 64.019 C 173 63.480, 171.762 62.764, 170.250 62.429 C 157.596 59.628, 156.674 56.635, 164.808 44.761 C 171.910 34.392, 173.764 26.963, 170.434 22.209 C 165.805 15.600, 152.853 12.832, 123.750 12.233 L 101 11.764 101 14.182 M 91.606 24.382 C 86.495 27.293, 85.953 27.874, 87.528 28.756 C 89.190 29.686, 88.858 30.553, 83.612 38.993 C 80.460 44.065, 78.123 48.456, 78.419 48.752 C 78.714 49.048, 81.184 49.503, 83.906 49.765 L 88.857 50.241 92.818 42.363 C 96.533 34.973, 100 25.298, 100 22.318 C 100 20.257, 97.974 20.755, 91.606 24.382 M 43.487 23.799 C 37.016 26.036, 30.692 29.771, 23.624 35.529 L 17.964 40.140 21.542 44.320 C 26.397 49.991, 30.689 59.199, 32.004 66.762 C 33.239 73.869, 32.178 84.250, 29.051 95.636 C 25.198 109.666, 24.661 114.254, 26.390 118.390 C 27.456 120.943, 28.952 122.533, 31.022 123.314 C 36.521 125.390, 36.332 128.965, 29.471 152.656 C 27.012 161.146, 25 169.421, 25 171.046 C 25 177.371, 31.369 174.177, 47 160.013 L 55.500 152.310 67.224 151.616 C 76.740 151.052, 79.499 151.206, 81.873 152.435 C 86.799 154.982, 91.675 161.731, 98.231 175.079 C 101.679 182.099, 105.082 187.878, 105.793 187.921 C 106.504 187.965, 109.285 185.943, 111.973 183.429 C 120.616 175.344, 128.157 156.658, 131.644 134.684 C 132.500 129.285, 133 124.667, 132.754 124.421 C 132.508 124.175, 126.613 124.962, 119.654 126.169 L 107 128.364 106.997 132.432 C 106.995 134.669, 107.508 142.475, 108.136 149.778 C 108.763 157.081, 109.014 163.320, 108.692 163.641 C 108.371 163.963, 104.821 161.250, 100.804 157.614 C 91.181 148.902, 79.419 140.196, 69.293 134.288 C 64.780 131.655, 61.067 128.938, 61.043 128.250 C 61.011 127.329, 63.684 127, 71.200 127 C 83.498 127, 83.429 125.418, 71.070 124.008 C 52.488 121.889, 49.848 114.992, 65.224 108.736 L 70.844 106.450 66.449 99.475 C 64.032 95.639, 61.760 92.584, 61.401 92.687 C 61.041 92.790, 60.232 93.907, 59.602 95.170 C 56.941 100.509, 48.559 99.603, 44.885 93.580 C 38.938 83.826, 46.283 71.380, 63.223 62.511 C 67.128 60.466, 69.382 58.498, 70.640 56.037 C 71.634 54.092, 72.579 52.254, 72.740 51.952 C 72.900 51.651, 68.178 50.865, 62.245 50.205 C 49.257 48.761, 42.620 46.982, 42.206 44.833 C 41.806 42.752, 43.405 42.227, 52.715 41.388 C 60.118 40.720, 60.956 40.381, 69.793 34.476 L 79.085 28.267 73.793 26.187 C 61.926 21.523, 52.270 20.762, 43.487 23.799 M 71 37 C 60.716 43.852, 60.367 43.996, 54.050 43.998 C 50.119 43.999, 47.971 44.358, 48.550 44.916 C 49.399 45.735, 74.078 49.392, 74.481 48.759 C 88.077 27.405, 87.636 25.915, 71 37 M 115.150 34.696 C 113.756 35.251, 109.027 44.534, 109.010 46.750 C 109.004 47.438, 109.654 48, 110.453 48 C 112.864 48, 117 50.239, 117 51.544 C 117 52.842, 113.931 53.964, 110.317 53.986 C 107.679 54.003, 107.301 55.147, 106.424 65.750 L 105.742 74 110.911 74 C 114.081 74, 117.574 74.762, 119.943 75.971 L 123.806 77.942 125.356 74.069 C 129.842 62.858, 127.061 44.016, 119.777 36.262 C 117.554 33.896, 117.340 33.823, 115.150 34.696 M 74.615 54.465 C 73.727 55.820, 73 57.130, 73 57.374 C 73 57.619, 75.919 56.870, 79.486 55.710 C 86.313 53.490, 86.461 52.043, 79.865 52.015 C 77.095 52.004, 75.846 52.587, 74.615 54.465 M 92.728 54.186 C 89.887 54.957, 87.856 56.639, 84.500 61.001 C 72.900 76.076, 62.487 79.867, 65.695 67.847 C 66.260 65.731, 66.506 64, 66.242 64 C 64.563 64, 53.634 71.663, 50.734 74.873 C 44.333 81.958, 43.703 90.577, 49.299 94.497 C 54.265 97.975, 58 95.454, 58 88.625 C 58 86.696, 58.410 84.864, 58.912 84.554 C 59.414 84.244, 62.837 88.718, 66.520 94.495 C 73.187 104.953, 75.304 106.769, 76.486 103.044 C 76.828 101.968, 78.507 99.910, 80.217 98.471 C 83.057 96.081, 83.966 95.882, 90.666 96.177 C 96.116 96.417, 98.004 96.172, 98.002 95.225 C 98.001 94.524, 99.125 93.523, 100.500 93 C 102.385 92.283, 103 91.326, 103 89.106 C 103 86.373, 102.537 86.009, 96.511 84.004 C 92.942 82.816, 89.777 81.448, 89.478 80.965 C 88.829 79.914, 92.920 77.691, 98.647 75.982 L 102.794 74.745 103.428 68.123 C 103.777 64.480, 104.313 59.813, 104.619 57.750 C 105.127 54.330, 104.970 53.999, 102.838 53.986 C 101.552 53.979, 99.600 53.790, 98.500 53.568 C 97.400 53.345, 94.803 53.623, 92.728 54.186 M 77 59.369 C 72.621 61.107, 71.128 62.307, 69.678 65.255 C 68.675 67.291, 68 69.980, 68.178 71.229 C 68.481 73.363, 68.791 73.232, 73.312 69.065 C 78.574 64.216, 84.661 56.945, 83.334 57.093 C 82.875 57.145, 80.025 58.169, 77 59.369 M 107.250 76.630 C 106.563 76.925, 106 78.767, 106 80.723 L 106 84.280 111.378 83.725 C 116.382 83.208, 121 81.363, 121 79.881 C 121 78.215, 109.754 75.556, 107.250 76.630 M 97.077 79.413 C 94.376 80.910, 93.950 80.567, 101 82.567 C 102.628 83.029, 103 82.657, 103 80.567 C 103 77.640, 100.986 77.248, 97.077 79.413 M 119.643 84.273 C 117.421 85.445, 113.713 86.348, 110.899 86.404 C 106.280 86.495, 106.012 86.648, 106.006 89.205 C 106.001 91.491, 106.503 91.985, 109.250 92.399 C 111.037 92.669, 116.527 93.575, 121.448 94.413 C 126.370 95.251, 130.564 95.769, 130.768 95.565 C 131.441 94.892, 126.849 85.172, 125.158 83.690 C 123.698 82.411, 123.039 82.481, 119.643 84.273 M 101 96 C 101 96.550, 101.450 97, 102 97 C 102.550 97, 103 96.550, 103 96 C 103 95.450, 102.550 95, 102 95 C 101.450 95, 101 95.450, 101 96 M 106 97.500 C 106 99.985, 106.056 100, 115.250 100.024 C 120.338 100.037, 126.188 100.440, 128.250 100.919 C 131.072 101.574, 132 101.475, 132 100.520 C 132 99.193, 130.631 98.808, 117.500 96.443 C 106.558 94.473, 106 94.524, 106 97.500 M 85.049 99.045 C 82.091 99.718, 78.380 102.713, 79.329 103.663 C 79.499 103.832, 82.757 103.311, 86.569 102.503 C 90.381 101.695, 94.828 101.027, 96.450 101.017 C 98.186 101.007, 99.009 100.642, 98.450 100.130 C 97.012 98.812, 88.946 98.159, 85.049 99.045 M 135 101.477 C 135 102.289, 136.148 103.706, 137.551 104.625 C 143.671 108.635, 144.556 116.190, 139.966 125.224 C 136.963 131.133, 136.943 131.279, 138.012 139.347 C 140.253 156.263, 145.142 169.417, 151.028 174.370 C 159.771 181.727, 172.493 173.147, 175.993 157.533 C 178.067 148.274, 173.593 140.982, 164.369 138.591 L 159.500 137.329 165.504 134.274 C 172.876 130.524, 177 126.554, 177 123.209 C 177 117.414, 164.072 109.230, 145.160 103.051 C 134.252 99.488, 135 99.604, 135 101.477 M 107.250 102.595 C 106.379 102.993, 106 106.021, 106 112.583 L 106 122 109.750 121.995 C 111.813 121.992, 117.888 121.699, 123.250 121.344 L 133 120.698 133 112.888 L 133 105.077 129.231 104.062 C 124.692 102.840, 109.005 101.793, 107.250 102.595 M 93 104.054 C 90.525 104.513, 86.105 105.403, 83.177 106.032 L 77.854 107.176 78.537 111.217 C 78.912 113.439, 80.114 116.774, 81.208 118.629 L 83.198 122 93.349 122.002 L 103.500 122.004 103.181 112.502 L 102.863 103 100.181 103.110 C 98.707 103.170, 95.475 103.595, 93 104.054 M 136.075 116.500 L 136.084 126.500 138 123 C 140.553 118.336, 140.568 111.904, 138.033 108.861 L 136.067 106.500 136.075 116.500 M 66.388 111.070 C 60.932 113.169, 57.396 116.214, 58.444 117.910 C 59.284 119.268, 64.977 120.725, 72.775 121.578 L 79.051 122.264 78.040 119.606 C 76.715 116.121, 72.638 109.003, 72 109.060 C 71.725 109.084, 69.200 109.989, 66.388 111.070 M 85 126 C 85 127.171, 93.542 127.200, 100 126.051 C 103.786 125.377, 102.954 125.230, 94.750 125.125 C 88.833 125.049, 85 125.393, 85 126 M 90.803 129.725 C 88.221 129.997, 87.262 130.519, 87.622 131.456 C 88.555 133.888, 85.797 134.383, 84.070 132.093 C 82.603 130.148, 81.640 129.933, 75.577 130.200 L 68.739 130.500 76.119 135.172 C 80.179 137.742, 88.611 143.970, 94.859 149.014 L 106.218 158.184 105.630 152.342 C 105.307 149.129, 104.754 142.563, 104.403 137.750 L 103.763 129 99.132 129.168 C 96.584 129.261, 92.836 129.511, 90.803 129.725" stroke="none" fill="black" fill-rule="evenodd"/>
</svg>