<svg xmlns="http://www.w3.org/2000/svg" width="200" height="200" viewBox="0 0 200 200" version="1.1">
	<path d="M 55.912 8.719 C 44.623 16.789, 30.788 29.820, 28.589 34.453 C 25.883 40.157, 26.508 42.482, 32.500 49 C 35.525 52.290, 38 55.407, 38 55.926 C 38 58.441, 35.619 62.495, 31.626 66.778 L 27.224 71.500 29.034 88.500 C 30.520 102.451, 33.747 119.823, 36.604 129.250 C 36.998 130.547, 38.200 131, 41.252 131 C 46.954 131, 53.256 127.679, 58.022 122.162 C 62.453 117.034, 71.264 99.735, 75.435 87.975 C 78.355 79.741, 79.605 77.272, 80.433 78.099 C 80.730 78.397, 81.274 84.684, 81.641 92.070 C 82.147 102.270, 82.844 106.943, 84.537 111.500 C 87.828 120.360, 88.394 125.122, 86.650 129.295 C 83.380 137.122, 76.561 138.556, 50.500 136.898 C 29.219 135.543, 23.230 136.037, 19.231 139.478 C 16.989 141.407, 16.516 142.614, 16.591 146.219 C 16.754 154.036, 17.263 154.226, 27.478 150.274 C 40.247 145.335, 50.380 142.946, 58.784 142.895 C 71.657 142.816, 75.745 146.737, 82.939 166.067 C 87.097 177.241, 91.984 183.669, 99.029 187.232 C 102.038 188.755, 105.915 190.272, 107.645 190.604 L 110.789 191.208 108.902 184.401 C 104.832 169.726, 105.489 158.188, 110.714 152.553 C 116.312 146.516, 120.239 145.658, 145.500 144.958 C 164.232 144.439, 169.292 143.991, 172.769 142.544 C 177.404 140.615, 181 136.824, 181 133.865 C 181 132.187, 180.122 132, 172.220 132 C 167.391 132, 157.829 132.712, 150.970 133.582 C 135.223 135.579, 119.669 135.820, 114.783 134.143 C 108.813 132.093, 105.997 127.928, 106.015 121.173 C 106.036 113.434, 106.530 112.861, 112.025 114.208 C 117.960 115.663, 144.319 115.591, 155 114.091 C 171.796 111.733, 180.047 108.171, 177.058 104.570 C 175.226 102.363, 170.180 101.001, 158.787 99.642 L 148.500 98.414 155.567 91.457 C 159.453 87.631, 163.401 83.326, 164.339 81.891 C 167.686 76.773, 164.012 74.246, 154.810 75.336 L 149.787 75.931 158.643 71.582 C 176.911 62.610, 176.709 57.678, 157.962 54.926 C 145.726 53.129, 145.319 52.539, 154.488 49.874 C 160.719 48.064, 163.328 46.693, 166.706 43.458 C 173.915 36.549, 172.663 35.178, 157.013 32.843 C 135.794 29.678, 128.534 24.413, 126.477 10.697 C 125.840 6.447, 125.537 6.006, 123.632 6.560 C 119.829 7.665, 112.572 13.077, 109.612 17.015 L 106.723 20.858 100.203 15.921 C 96.616 13.206, 93.521 11.145, 93.326 11.341 C 93.130 11.537, 92.284 14.327, 91.447 17.541 C 89.590 24.670, 86.874 29.231, 82.498 32.569 C 74.489 38.678, 67.193 35.689, 64.880 25.353 C 63.887 20.917, 63.883 18.036, 64.862 11.268 C 65.539 6.588, 65.919 2.586, 65.708 2.375 C 65.497 2.164, 61.089 5.018, 55.912 8.719 M 54.358 13.250 C 37.925 25.586, 30 34.232, 30 39.825 C 30 41.432, 31.763 44.171, 35 47.594 C 39.246 52.083, 40 53.470, 40 56.790 C 40 60.780, 36.843 66.236, 32.093 70.453 C 30.339 72.011, 30.005 73.126, 30.448 75.953 C 30.753 77.904, 31.465 84.675, 32.031 91 C 32.871 100.395, 35.869 116.326, 38.686 126.368 C 39.127 127.940, 39.919 128.156, 43.680 127.733 C 52.472 126.742, 60.478 117.080, 68.367 97.940 C 77.589 75.565, 78.573 73.513, 80.232 73.194 C 82.561 72.745, 83.715 77.952, 84.511 92.500 C 84.985 101.174, 85.837 106.486, 87.584 111.668 C 91.909 124.498, 90.254 133.749, 82.959 137.521 C 81.237 138.412, 77.055 139.464, 73.664 139.859 L 67.500 140.579 70.500 142.200 C 76.722 145.563, 79.608 149.843, 84.886 163.543 C 86.591 167.966, 89.333 173.710, 90.979 176.306 C 93.958 181.003, 101.848 187, 105.049 187 C 106.540 187, 106.579 186.507, 105.440 182.115 C 100.438 162.832, 104.303 150.626, 117.206 144.958 C 122.086 142.815, 124.338 142.585, 146 142.021 C 170.206 141.391, 173.400 140.838, 176.850 136.681 C 177.839 135.489, 177.585 135.113, 175.422 134.570 C 173.974 134.206, 170.924 134.143, 168.645 134.429 C 134.372 138.730, 117.158 139.028, 110.996 135.430 C 103.698 131.167, 101.448 124.048, 104.087 113.567 L 105.175 109.248 109.746 110.624 C 116.693 112.715, 117.233 112.509, 114.950 108.640 C 112.138 103.874, 107.437 89.515, 104.988 78.209 C 103.838 72.905, 102.809 68.477, 102.699 68.371 C 101.873 67.565, 79.514 54, 79.012 54 C 77.996 54, 75.005 60.839, 74.952 63.284 C 74.887 66.263, 71.840 72.244, 70.097 72.812 C 67.953 73.510, 69.323 67.044, 72.971 59.248 C 74.656 55.647, 75.858 52.524, 75.641 52.308 C 75.425 52.092, 73.556 51.640, 71.488 51.304 C 67.788 50.704, 67.736 50.740, 68.223 53.597 C 68.495 55.194, 69.054 57.288, 69.466 58.250 C 69.996 59.491, 69.758 60, 68.647 60 C 67.691 60, 66.622 58.471, 65.904 56.075 C 63.866 49.272, 66.339 46.865, 73.403 48.778 C 77.489 49.884, 77.510 49.876, 81.261 45.522 C 83.472 42.955, 86.790 40.482, 89.317 39.517 C 93.109 38.068, 94.091 38.041, 97.698 39.284 L 101.783 40.691 102.415 35.930 C 102.762 33.311, 103.636 29.464, 104.357 27.382 L 105.668 23.596 100.863 19.798 C 98.221 17.709, 95.857 16, 95.610 16 C 95.363 16, 94.437 18.178, 93.553 20.840 C 90.187 30.976, 82.561 38.076, 74.930 38.182 C 69.851 38.252, 66.199 35.779, 63.577 30.496 C 62.073 27.464, 61.671 24.596, 61.730 17.311 C 61.771 12.190, 61.703 8, 61.578 8 C 61.453 8, 58.204 10.362, 54.358 13.250 M 117.553 12.902 C 115.382 14.453, 112.586 17.210, 111.340 19.028 L 109.075 22.334 115.401 28.131 C 122.396 34.540, 124.476 38.314, 123.722 43.228 C 122.505 51.155, 117.553 68, 116.440 68 C 115.776 68, 114.267 65.638, 113.087 62.750 C 110.594 56.646, 105.104 47.563, 104.358 48.308 C 104.077 48.590, 104.163 52.447, 104.550 56.881 L 105.253 64.942 115.543 73.419 L 125.834 81.896 140.136 76.413 C 156.620 70.094, 168.360 64.087, 168.812 61.740 C 169.185 59.799, 165.206 58.556, 153.469 56.950 C 139.707 55.066, 139.722 51.710, 153.512 47.411 C 159.596 45.514, 162.632 43.943, 165.064 41.434 C 166.879 39.562, 168.143 37.810, 167.874 37.540 C 167.604 37.271, 162.626 36.383, 156.811 35.566 C 144.976 33.905, 137.597 31.455, 132.333 27.441 C 128.658 24.638, 124.027 16.185, 124.010 12.250 C 123.997 9.299, 122.365 9.464, 117.553 12.902 M 107.010 28.473 C 106.476 29.877, 105.598 33.769, 105.058 37.120 C 104.107 43.024, 104.167 43.326, 106.996 46.856 C 108.602 48.860, 111.260 52.964, 112.903 55.975 C 114.799 59.452, 116.072 60.912, 116.390 59.975 C 118.672 53.250, 121 43.717, 121 41.099 C 121 38.683, 119.864 36.700, 116.292 32.881 C 109.846 25.990, 108.244 25.229, 107.010 28.473 M 88.457 42.811 C 86.784 43.860, 84.181 46.184, 82.673 47.976 L 79.932 51.234 86.304 54.958 C 89.809 57.006, 94.743 60.103, 97.268 61.841 C 99.794 63.578, 102.012 65, 102.197 65 C 102.383 65, 102.237 60.837, 101.873 55.750 C 101.509 50.663, 101.378 46.223, 101.582 45.884 C 102.316 44.664, 98.178 41.904, 94.874 41.409 C 92.582 41.066, 90.525 41.516, 88.457 42.811 M 107.063 74.419 C 106.950 76.060, 112.118 94.806, 114.038 99.720 C 116.928 107.115, 116.341 103.339, 112.578 90.330 C 109.100 78.307, 107.178 72.760, 107.063 74.419 M 111.377 76.664 C 114.996 88.397, 116.224 92.772, 118.005 100.275 C 119.150 105.101, 119.785 109.539, 119.415 110.137 C 118.208 112.091, 121.361 112.969, 129.644 112.985 C 144.431 113.012, 168.984 109.674, 174 106.954 C 176.365 105.672, 170.850 103.982, 160.500 102.818 C 155.550 102.261, 150.488 101.616, 149.250 101.384 C 145.078 100.602, 146.625 97.104, 155 88.380 C 159.400 83.797, 163 79.520, 163 78.875 C 163 77.040, 149.241 78.535, 136.172 81.792 L 124.844 84.614 119.672 80.730 C 112.232 75.142, 110.672 74.377, 111.377 76.664 M 24 139.709 C 21.004 140.811, 19 143.370, 19 146.096 C 19 147.628, 19.393 149.125, 19.874 149.422 C 20.355 149.719, 23.617 148.793, 27.124 147.364 C 30.631 145.935, 37.480 143.757, 42.343 142.524 C 49.021 140.831, 50.613 140.128, 48.843 139.655 C 46 138.893, 26.100 138.937, 24 139.709" stroke="none" fill="black" fill-rule="evenodd"/>
</svg>