<svg xmlns="http://www.w3.org/2000/svg" width="200" height="200" viewBox="0 0 200 200" version="1.1">
	<path d="M 37.582 22.304 C 30.638 31.408, 29.700 38.317, 29.482 82 C 29.278 122.635, 29.476 121.090, 21.655 143.313 C 14.529 163.562, 14.438 174.033, 21.382 174.828 C 23.762 175.101, 25.211 174.166, 29.903 169.328 C 39.063 159.887, 44.093 148.833, 52.408 119.875 C 55.077 110.579, 55.937 100.586, 55.969 78.460 C 56.003 55.194, 57.110 48.167, 61.684 42.170 C 65.884 36.663, 71.698 34.674, 81.909 35.251 C 87.144 35.547, 93.429 35.190, 97.997 34.338 C 112.609 31.612, 128.924 32.753, 130.402 36.605 C 131.254 38.825, 126.715 42.540, 121.298 44.057 C 111.116 46.907, 95.989 45.277, 81.646 39.783 C 72.289 36.199, 70.298 36.665, 67.182 43.170 C 63.973 49.870, 62.679 59.857, 63.264 73.402 C 63.927 88.752, 66.562 97.797, 71.935 103.170 L 75.648 106.884 71.829 107.529 C 69.729 107.884, 67.788 108.534, 67.516 108.974 C 66.345 110.869, 70.568 112.045, 85.554 113.996 C 94.324 115.139, 102.081 116.275, 102.791 116.521 C 103.748 116.853, 103.539 117.705, 101.984 119.808 C 98.574 124.420, 91.388 126.429, 78.167 126.467 C 66.919 126.500, 66.816 126.522, 64.335 129.402 C 62.350 131.706, 61.961 132.978, 62.448 135.575 C 62.956 138.284, 62.713 138.956, 61.031 139.490 C 59.914 139.845, 59 140.779, 59 141.567 C 59 143.268, 59.502 143.337, 62.030 141.984 C 63.628 141.129, 64.796 141.864, 69.422 146.640 L 74.915 152.312 72.417 155.282 C 71.042 156.915, 70.054 158.388, 70.221 158.555 C 70.388 158.722, 74.569 159.393, 79.513 160.046 C 84.456 160.699, 92.325 162.632, 97 164.343 C 104.568 167.111, 106.276 168.238, 112.574 174.616 C 123.846 186.030, 131.942 188.869, 137.199 183.250 C 140.901 179.292, 142.690 175.313, 146.675 162.165 C 155.567 132.825, 162.176 127.699, 181.119 135.451 C 183.333 136.357, 184.050 133.177, 182.847 127.776 C 182.323 125.424, 178.304 115.695, 173.916 106.155 C 163.788 84.141, 160.858 74.450, 160.715 62.500 C 160.588 51.907, 161.578 48.525, 168.180 37 C 173.341 27.991, 173.771 25.685, 170.379 25.199 C 168.908 24.988, 166.906 26.423, 163.705 29.983 C 158.307 35.987, 156.325 40.871, 158.010 44.018 C 159.347 46.516, 159.247 46.691, 147.654 62.203 C 140.012 72.429, 138 74.070, 138 70.081 C 138 69.090, 136.843 66.575, 135.430 64.492 C 133.573 61.755, 133.192 60.499, 134.058 59.964 C 135.848 58.858, 134.179 56.801, 132.330 57.835 C 131.393 58.359, 129.179 58.139, 126.657 57.270 C 120.035 54.988, 112.714 56.598, 104.370 62.172 C 99.671 65.311, 98.415 67.590, 100.199 69.740 C 102.471 72.477, 113.657 69.696, 129.500 62.456 C 130.989 61.776, 134.759 67.897, 135.840 72.750 C 136.361 75.088, 136.647 77, 136.476 77 C 136.305 77, 133.990 75.914, 131.332 74.587 C 121.980 69.917, 112.358 70.303, 106.064 75.600 C 102.296 78.770, 100.269 84.766, 101.921 87.853 C 102.901 89.683, 102.802 90, 101.251 90 C 100.250 90, 96.972 92.528, 93.966 95.618 C 88.112 101.634, 81.348 105.419, 78.345 104.358 C 74.507 103.003, 70.993 98.497, 68.778 92.090 C 66.747 86.214, 66.504 83.659, 66.540 68.500 C 66.573 54.006, 66.868 50.778, 68.540 46.605 C 71.334 39.629, 72.498 39.188, 80.116 42.225 C 96.536 48.772, 116.802 49.945, 126.578 44.914 C 134.620 40.776, 135.165 35.447, 127.925 31.752 C 126.041 30.790, 125.085 30.002, 125.800 30.002 C 128.460 29.998, 133.015 33.128, 134.483 35.967 C 135.317 37.581, 136 41.211, 136 44.034 C 136 47.705, 136.356 49.043, 137.250 48.733 C 138.074 48.447, 138.471 46.280, 138.416 42.368 C 138.314 35.205, 136.352 31.771, 130.597 28.692 C 126.725 26.620, 125.541 26.524, 109 26.929 C 69.336 27.902, 57.858 27.635, 52.500 25.616 C 49.750 24.580, 46.068 22.668, 44.317 21.366 C 42.566 20.065, 40.901 19, 40.618 19 C 40.334 19, 38.968 20.487, 37.582 22.304 M 38.561 25.266 C 33.347 33.224, 31.503 48.810, 32.352 77.756 C 33.215 107.163, 31.949 121.602, 27.378 134.500 C 19.366 157.107, 16.953 170.277, 20.567 171.664 C 23.204 172.676, 27.020 169.832, 31.495 163.520 C 38.725 153.324, 43.482 142.406, 48.061 125.500 C 49.253 121.100, 50.662 115.925, 51.192 114 C 51.722 112.075, 52.512 97.675, 52.947 82 C 53.865 48.944, 54.552 45.395, 61.349 38.598 C 66.866 33.082, 72.371 31.501, 83.169 32.334 C 87.804 32.691, 93.207 32.498, 95.868 31.880 C 98.416 31.289, 105.900 30.435, 112.500 29.982 C 124.386 29.167, 124.353 29.163, 109 29.592 C 100.475 29.829, 86.750 30.290, 78.500 30.616 C 61.684 31.279, 52.955 29.922, 45.344 25.462 C 40.235 22.467, 40.392 22.472, 38.561 25.266 M 165.187 32.525 C 161.420 36.805, 159.230 41.563, 160.462 42.795 C 160.769 43.102, 161.673 42.487, 162.470 41.427 C 164.475 38.762, 170.225 28, 169.644 28 C 169.383 28, 167.378 30.036, 165.187 32.525 M 149 64.922 C 144.325 71.224, 140.351 76.986, 140.169 77.728 C 139.988 78.469, 142.974 82.136, 146.805 85.878 C 156.663 95.504, 166.243 108.634, 165.408 111.374 C 163.742 116.844, 162.021 119.859, 160.245 120.422 C 159.179 120.760, 155.059 120.354, 151.088 119.519 C 143.598 117.943, 133.236 117.570, 126.750 118.642 C 123.709 119.144, 123 119.688, 123 121.516 C 123 124.414, 120.040 126.309, 110.864 129.284 L 103.500 131.671 107.500 132.992 C 120.332 137.229, 126.614 148.438, 119.698 154.757 C 115.923 158.207, 110.975 160.164, 104.115 160.922 C 97.857 161.614, 97.652 161.717, 100.315 162.827 C 101.863 163.472, 103.802 164, 104.622 164 C 105.443 164, 109.295 167.370, 113.183 171.488 C 121.843 180.662, 129.190 184.782, 133.437 182.847 C 136.993 181.227, 139.984 175.195, 144.021 161.500 C 150.151 140.710, 155.526 132.312, 164.243 129.906 C 167.704 128.950, 169.622 129.019, 174.500 130.271 C 177.800 131.118, 180.657 131.659, 180.850 131.473 C 181.589 130.756, 178.514 122.892, 171.428 107.380 C 161.023 84.602, 158.912 77.787, 158.140 64.482 L 157.500 53.465 149 64.922 M 115 59.935 C 110.902 61.186, 104.468 64.731, 102.933 66.584 C 101.603 68.190, 101.822 68.276, 106 67.788 C 112.432 67.037, 127.618 61.006, 125.868 59.897 C 124.226 58.857, 118.465 58.877, 115 59.935 M 111.500 75.340 C 104.963 78.362, 102.155 85.155, 105.896 88.896 C 110.272 93.272, 125.909 90.096, 131.223 83.751 C 132.721 81.963, 133.958 80.172, 133.973 79.770 C 133.988 79.369, 132.120 78.082, 129.822 76.909 C 124.576 74.233, 115.565 73.461, 111.500 75.340 M 134.500 86.552 C 132.300 87.852, 129.679 89.926, 128.675 91.161 L 126.850 93.407 131.839 95.609 C 138.410 98.509, 139.993 101.314, 136.910 104.596 C 134.307 107.366, 130.513 108.605, 120.051 110.098 C 110.716 111.431, 108.141 113.789, 113.825 115.800 C 116.800 116.852, 119.430 116.867, 127.626 115.877 C 135.785 114.891, 139.379 114.907, 146.126 115.961 C 159.897 118.111, 160.071 118.085, 161.625 113.636 C 163.174 109.200, 163.093 109.042, 152.831 96.362 C 146.591 88.651, 141.542 83.944, 139.673 84.094 C 139.028 84.146, 136.700 85.252, 134.500 86.552 M 122.500 92 C 120.870 92.701, 120.812 92.872, 122.191 92.930 C 123.121 92.968, 124.160 92.550, 124.500 92 C 125.211 90.850, 125.176 90.850, 122.500 92 M 93.302 99.905 L 86.105 106.726 92.199 107.363 C 95.551 107.713, 101.341 108, 105.066 108 L 111.838 108 116.412 102.250 C 118.927 99.088, 120.988 96.235, 120.993 95.910 C 120.999 95.416, 103.813 92.912, 101.308 93.042 C 100.864 93.065, 97.261 96.153, 93.302 99.905 M 120.052 101.938 C 117.684 104.766, 115.943 107.276, 116.182 107.515 C 116.900 108.233, 129.023 106.017, 132.637 104.507 C 134.487 103.734, 136 102.639, 136 102.074 C 136 100.498, 131.606 97.973, 127.784 97.352 C 124.620 96.839, 124.026 97.192, 120.052 101.938 M 79 109.640 C 79 110.144, 85.166 111.336, 92.703 112.289 C 104.252 113.751, 106.619 113.810, 107.765 112.664 C 108.910 111.518, 107.739 111.200, 100.312 110.641 C 95.465 110.276, 88.688 109.695, 85.250 109.350 C 81.676 108.992, 79 109.116, 79 109.640 M 106.370 119.143 C 104.444 121.272, 105.102 121.353, 109.993 119.587 L 113.486 118.326 110.768 117.807 C 108.900 117.449, 107.525 117.867, 106.370 119.143 M 109.609 122.491 C 105.269 123.782, 100.781 125.775, 99.636 126.919 L 97.556 129 100.528 128.945 C 105.199 128.860, 119.500 123.677, 119.500 122.069 C 119.500 119.902, 118.112 119.961, 109.609 122.491 M 67.223 130.557 C 65.957 131.443, 65 133.165, 65 134.557 C 65 135.901, 65.161 137, 65.359 137 C 65.556 137, 69.493 135.225, 74.109 133.057 L 82.500 129.113 75.973 129.057 C 71.605 129.019, 68.710 129.515, 67.223 130.557 M 87.750 130.662 C 88.438 130.940, 89.563 130.940, 90.250 130.662 C 90.938 130.385, 90.375 130.158, 89 130.158 C 87.625 130.158, 87.063 130.385, 87.750 130.662 M 81.500 134.658 C 77.650 135.480, 72.701 136.935, 70.502 137.891 L 66.504 139.629 71.566 144.935 L 76.627 150.240 83.313 142.224 C 86.991 137.814, 90 133.935, 90 133.603 C 90 132.847, 89.953 132.853, 81.500 134.658 M 86.777 142.264 L 79.054 151.500 81.277 153.196 C 82.500 154.128, 85.468 155.875, 87.874 157.078 C 91.650 158.965, 93.222 159.174, 99.374 158.603 C 103.293 158.239, 108.259 157.468, 110.408 156.889 C 114.683 155.739, 120 151.104, 120 148.527 C 120 145.196, 116.850 140.997, 112.392 138.384 C 108.480 136.091, 98.835 133.034, 95.500 133.030 C 94.950 133.029, 91.025 137.185, 86.777 142.264 M 76 155.500 C 74.969 156.742, 75.077 157.002, 76.628 157.014 C 77.657 157.021, 79.625 157.284, 81 157.599 L 83.500 158.170 81 156.107 C 77.989 153.623, 77.597 153.575, 76 155.500" stroke="none" fill="black" fill-rule="evenodd"/>
</svg>