<svg xmlns="http://www.w3.org/2000/svg" width="200" height="200" viewBox="0 0 200 200" version="1.1">
	<path d="M 91 18.396 C 91 20.671, 84.356 25.823, 79.763 27.110 C 73.555 28.850, 58.542 28.600, 42.231 26.487 C 31.562 25.105, 27.674 24.926, 26.823 25.777 C 24.533 28.067, 29.399 31.402, 53.703 44.195 L 65.906 50.618 57.203 53.395 C 44.490 57.452, 30.154 64.567, 28.828 67.478 C 27.231 70.983, 28.274 72.573, 34.456 76.062 C 37.505 77.783, 40 79.857, 40 80.671 C 40 81.547, 36.743 83.650, 32.013 85.825 C 22.776 90.075, 21.690 91.928, 28.839 91.241 C 33.198 90.823, 33.894 91.050, 35.839 93.523 C 42.138 101.531, 35.252 130.274, 19.497 161.739 C 15.570 169.582, 12.754 176, 13.241 176 C 15.549 176, 25.318 170.314, 29.905 166.302 C 37.440 159.711, 42.557 151.828, 53.966 129.235 C 61.965 113.395, 65.357 107.747, 69.498 103.368 C 72.412 100.286, 75.327 97.942, 75.977 98.159 C 76.627 98.376, 77.901 99.778, 78.810 101.275 L 80.461 103.997 71.857 112.748 C 52.415 132.523, 48.765 139.231, 45.499 161.201 C 44.248 169.616, 42.900 177.738, 42.504 179.250 C 41.508 183.050, 43.354 182.816, 48.084 178.543 C 58.327 169.289, 69.213 167.846, 90.629 172.901 C 106.299 176.600, 108.108 176.673, 111.497 173.750 C 118.761 167.485, 115.627 145.358, 106.454 138.142 C 98.872 132.178, 88.830 135.538, 73.016 149.330 C 69.485 152.410, 66.390 154.723, 66.138 154.471 C 65.885 154.219, 66.906 150.885, 68.406 147.062 C 70.804 140.949, 71.697 139.784, 75.816 137.383 C 86.473 131.174, 91 125.752, 91 119.200 C 91 117.552, 89.629 113.597, 87.953 110.411 L 84.907 104.620 89.281 100.246 C 93.500 96.026, 93.921 95.852, 101.195 95.302 C 107.331 94.838, 109.295 95.061, 111.733 96.501 C 119.195 100.910, 120.754 110.237, 118.569 137.422 C 116.713 160.520, 116.618 168.120, 118.100 175.030 C 119.219 180.249, 123.972 187, 126.527 187 C 128.184 187, 133.278 178.893, 141.098 163.811 C 144.436 157.373, 148.292 150.981, 149.666 149.606 C 152.418 146.855, 157.360 145.588, 171.387 144.040 C 176.275 143.500, 180.446 142.887, 180.655 142.678 C 180.865 142.469, 181.140 119.618, 181.268 91.899 C 181.448 52.786, 181.194 39.820, 180.133 34 C 179.382 29.875, 178.573 26.171, 178.336 25.769 C 178.099 25.367, 174.214 27.947, 169.703 31.502 L 161.500 37.966 160.500 34.233 C 158.942 28.416, 157.271 26.181, 152.717 23.823 C 139.573 17.017, 119.514 25.682, 117.369 39.092 C 116.920 41.904, 116.197 42.985, 114.478 43.416 C 113.217 43.733, 111.469 44.267, 110.593 44.603 C 109.327 45.089, 109 44.511, 109 41.788 C 109 36.727, 106.161 27.968, 103.288 24.165 C 99.077 18.590, 91 14.799, 91 18.396 M 90.487 23.665 C 84.240 30.884, 68.371 32.855, 43.941 29.448 C 37.820 28.594, 32.350 28.050, 31.786 28.238 C 30.693 28.602, 44.826 36.638, 61.745 45.272 C 67.380 48.147, 71.993 50.726, 71.995 51.001 C 71.998 51.277, 65.588 53.664, 57.750 56.305 C 41.992 61.616, 31.678 66.614, 31.198 69.171 C 30.984 70.308, 32.743 71.929, 36.692 74.237 C 41.665 77.143, 42.500 78.050, 42.500 80.546 C 42.500 82.943, 41.741 83.879, 38.227 85.818 L 33.953 88.176 36.404 90.103 C 40.034 92.958, 41.353 98.125, 40.697 106.914 C 39.687 120.441, 32.639 141.812, 22.584 161.832 L 17.938 171.083 21.083 169.457 C 30.860 164.401, 38.403 154.092, 51.942 127.283 C 61.804 107.754, 67.591 99.347, 73.224 96.363 C 74.822 95.516, 74.757 94.973, 72.341 88.992 C 67.319 76.560, 68.162 64.901, 75.081 51.077 C 81.117 39.018, 84.139 37.622, 82.278 47.750 C 81.697 50.913, 81.290 53.581, 81.374 53.680 C 81.458 53.779, 87.091 52.048, 93.892 49.834 L 106.258 45.808 105.762 39.625 C 105.489 36.224, 104.326 31.599, 103.177 29.346 C 101.240 25.551, 95.724 19.881, 94.173 20.092 C 93.803 20.142, 92.144 21.750, 90.487 23.665 M 133.707 25.554 C 127.966 27.388, 121.493 33.477, 120.507 37.970 C 120.123 39.715, 119.971 41.305, 120.169 41.503 C 120.367 41.700, 123.589 41.013, 127.330 39.976 C 131.071 38.939, 137.694 37.569, 142.049 36.932 C 149.301 35.872, 150.305 35.942, 153.984 37.762 L 158 39.749 158 36.825 C 158 32.615, 155.443 28.281, 151.871 26.433 C 147.436 24.140, 139.355 23.749, 133.707 25.554 M 167.593 36.471 C 163.245 39.957, 159.224 43.635, 158.659 44.645 C 158.030 45.769, 157.587 57.543, 157.518 74.991 C 157.428 97.703, 157.049 105.330, 155.654 112.500 C 153.660 122.748, 151.660 126.793, 149.482 124.985 C 147.855 123.635, 147.451 120.683, 146.065 100 C 144.845 81.784, 145.534 75.462, 150.366 60.562 C 152.217 54.854, 153.452 49.731, 153.110 49.178 C 152.499 48.189, 113.091 78.765, 113.031 80.276 C 113.014 80.702, 114.324 80.366, 115.943 79.529 C 117.978 78.477, 119.093 78.342, 119.556 79.091 C 120.635 80.837, 118.680 82.013, 113.278 82.867 C 109.513 83.462, 107.070 84.666, 103.704 87.583 L 99.185 91.500 102.342 91.760 C 113.377 92.668, 118.077 96.019, 120.629 104.797 C 122.313 110.588, 122.305 112.122, 120.375 155.717 C 119.683 171.361, 120.663 177.917, 124.272 181.778 L 126.402 184.057 129.777 178.778 C 131.633 175.875, 135.559 168.737, 138.501 162.915 C 144.615 150.819, 148.059 146.291, 152.586 144.400 C 154.334 143.669, 160.719 142.521, 166.775 141.847 L 177.785 140.623 178.517 115.240 C 179.250 89.819, 178.582 40.797, 177.407 33.750 C 177.063 31.688, 176.493 30.030, 176.141 30.067 C 175.788 30.104, 171.942 32.986, 167.593 36.471 M 135.500 40.922 C 131.100 41.895, 125.617 43.220, 123.316 43.866 C 119.196 45.024, 119.141 45.098, 119.710 48.771 C 120.028 50.822, 121.109 54.619, 122.114 57.210 C 123.312 60.303, 123.583 62.139, 122.903 62.560 C 122.333 62.912, 121.660 62.993, 121.407 62.740 C 120.358 61.692, 117 50.859, 117 48.525 C 117 45.690, 116.569 45.557, 112.255 47.061 L 109.212 48.122 108.832 59.811 C 108.622 66.240, 108.687 73.211, 108.976 75.303 L 109.500 79.106 131 61.947 C 157.682 40.652, 156.004 42.252, 153.559 40.439 C 151.043 38.574, 145.439 38.724, 135.500 40.922 M 93.722 52.629 L 82.943 56.081 85.905 58.573 C 87.534 59.944, 89.393 62.659, 90.036 64.608 C 93.087 73.854, 85.222 92.475, 79.087 90.528 C 75.556 89.407, 74.711 82.221, 76.292 66.750 C 76.951 60.300, 76.841 59, 75.641 59 C 73.464 59, 71.676 68.081, 72.223 76.354 C 72.508 80.657, 73.605 85.598, 74.982 88.775 C 76.963 93.346, 77.550 93.954, 79.384 93.334 C 80.548 92.941, 84.248 92.592, 87.607 92.559 C 93.502 92.502, 93.947 92.308, 100.381 87 C 105.507 82.770, 106.929 81.038, 106.537 79.500 C 106.257 78.400, 106.021 71.088, 106.014 63.250 C 106.006 55.412, 105.662 49.040, 105.250 49.088 C 104.838 49.136, 99.650 50.730, 93.722 52.629 M 77.184 52.496 C 76.556 53.873, 76.453 55, 76.954 55 C 77.938 55, 79.460 51.127, 78.754 50.420 C 78.518 50.185, 77.811 51.118, 77.184 52.496 M 152.324 63.558 C 148.052 77.190, 147.732 80.793, 148.968 101.327 C 149.601 111.846, 150.277 120.610, 150.468 120.802 C 152.882 123.216, 156.827 77.928, 155.367 64.558 L 154.500 56.616 152.324 63.558 M 79.323 64.750 C 78.256 72.221, 78.264 86.598, 79.335 87.667 C 81.776 90.102, 88 76.887, 88 69.269 C 88 63.747, 84.759 59, 80.990 59 C 80.525 59, 79.774 61.587, 79.323 64.750 M 81.236 95.708 C 79.013 96.135, 79.004 96.197, 80.701 99.071 C 81.653 100.682, 82.696 102, 83.019 102 C 83.343 102, 85.134 100.425, 87 98.500 L 90.392 95 86.946 95.136 C 85.051 95.211, 82.481 95.468, 81.236 95.708 M 71.396 117.234 C 60.359 128.693, 53.959 137.584, 51.596 144.737 C 50.333 148.563, 45.912 174.969, 46.414 175.690 C 46.487 175.794, 48.523 174.552, 50.940 172.929 C 59.652 167.078, 71.001 165.579, 84 168.562 C 108.765 174.245, 110.106 174.238, 112.029 168.411 C 113.523 163.886, 112.491 152.997, 110.049 147.500 C 107.247 141.193, 103.683 138.498, 98.169 138.514 C 91.795 138.533, 86.156 141.609, 75.013 151.148 C 69.916 155.512, 65.240 158.916, 64.623 158.713 C 62.519 158.021, 62.861 154.036, 65.682 146.375 C 68.079 139.867, 69.098 138.345, 72.500 136.192 C 82.330 129.971, 84.444 128.317, 86.162 125.500 C 87.169 123.850, 87.994 121.108, 87.996 119.407 C 88 116.156, 84.155 107.885, 82.362 107.287 C 81.785 107.095, 76.851 111.571, 71.396 117.234" stroke="none" fill="black" fill-rule="evenodd"/>
</svg>