<svg xmlns="http://www.w3.org/2000/svg" width="200" height="200" viewBox="0 0 200 200" version="1.1">
	<path d="M 87.439 11.782 C 86.372 12.762, 79.650 17.540, 72.500 22.399 C 42.785 42.592, 29.068 57.286, 27.358 70.756 C 27.026 73.365, 25.487 77.525, 23.937 80 C 16.710 91.543, 15.356 97.877, 19.531 100.613 C 23.338 103.107, 29.689 101.937, 49.865 95.027 C 66.189 89.435, 73.006 87.880, 72.996 89.750 C 72.990 91.084, 68.900 97.260, 64.812 102.107 C 61.850 105.620, 58.615 107.895, 52.207 110.970 C 41.738 115.993, 32.832 121.330, 28.345 125.270 C 24.488 128.657, 23.879 132.509, 27.042 133.513 C 32.418 135.220, 49.600 129.917, 68.325 120.772 C 76.004 117.022, 82.381 114.076, 82.495 114.227 C 84.662 117.071, 85.776 128.403, 83.997 129.502 C 83.445 129.843, 78.894 130.546, 73.883 131.065 C 59.078 132.596, 49.225 138.408, 39.605 151.283 C 34.625 157.949, 26.254 173, 27.527 173 C 27.831 173, 29.820 172.112, 31.948 171.027 C 40.722 166.550, 78.149 155.007, 83.905 155.001 C 86.543 154.999, 82.305 158.492, 72.953 164.028 L 63.935 169.366 68.718 174.248 C 79.338 185.090, 90.297 189.976, 96.618 186.689 C 106.193 181.709, 110.179 169.315, 112.319 137.866 L 113.500 120.524 116.389 128.012 C 120.245 138.008, 129.189 155.388, 133.444 161.153 C 138.050 167.393, 143.084 171.067, 147.914 171.715 C 151.373 172.179, 152.298 171.856, 154.871 169.283 C 163.164 160.990, 160.715 141.901, 150.445 134.784 C 145.535 131.382, 138 129.921, 138 132.372 C 138 133.447, 138.860 134, 140.532 134 C 147.285 134, 154.058 139.788, 156.077 147.284 C 156.698 149.591, 157.018 154.077, 156.788 157.252 C 156.245 164.764, 153.684 168.383, 148.608 168.813 C 145.255 169.097, 144.384 168.583, 139.151 163.235 C 134.859 158.849, 131.785 154.187, 127.110 144.976 C 121.033 133.002, 120.901 132.581, 122.980 131.812 C 125.254 130.970, 124.876 129, 122.441 129 C 121.334 129, 121 127.493, 121 122.500 C 121 118.925, 121.233 116, 121.518 116 C 121.803 116, 126.416 118.193, 131.768 120.873 C 147.368 128.684, 155.325 131.268, 164.164 131.392 C 172.825 131.514, 174.451 130.563, 180.056 122.101 C 185.688 113.599, 183.169 108.134, 172.689 106.119 C 169.835 105.570, 158.950 104.658, 148.500 104.092 C 138.050 103.526, 127.763 102.564, 125.640 101.954 C 122.026 100.916, 121.820 100.652, 122.390 97.798 C 122.726 96.121, 123 92.847, 123 90.521 L 123 86.293 128.218 87.646 C 135.409 89.512, 148.542 89.375, 154.414 87.375 C 160.213 85.399, 166 79.928, 166 76.421 C 166 72.985, 162.110 69.379, 156.865 67.951 C 152.623 66.796, 141.358 67.110, 132.633 68.627 L 128.766 69.300 129.148 61.738 C 129.831 48.224, 134.459 47.213, 145.267 58.215 L 151.034 64.086 152.965 59.582 C 155.607 53.419, 156.912 45.543, 155.978 41.401 C 153.996 32.613, 148.621 29.493, 135.500 29.515 C 125.761 29.530, 118.679 31.371, 112.670 35.449 L 109.258 37.765 107.548 34.179 C 105.847 30.611, 105.851 30.584, 108.435 28.702 C 112.048 26.070, 113.307 23.443, 112.067 21.125 C 110.886 18.919, 103.903 15.448, 98.670 14.466 C 96.642 14.085, 93.903 12.925, 92.584 11.887 C 89.662 9.589, 89.820 9.592, 87.439 11.782 M 89.402 16.833 C 89.668 17.750, 90.422 21.425, 91.078 25 C 91.734 28.575, 92.547 31.795, 92.885 32.155 C 93.223 32.516, 95.430 32.045, 97.788 31.109 L 102.076 29.406 97.288 22.760 C 92.690 16.378, 88.315 13.090, 89.402 16.833 M 76.500 22.690 C 43.862 45.590, 30.041 60.313, 30.010 72.216 C 30.003 74.844, 28.825 77.750, 25.988 82.139 C 21.621 88.896, 19.382 94.948, 20.333 97.425 C 21.503 100.475, 28.790 99.207, 48.612 92.500 C 68.586 85.742, 72.876 84.940, 75.048 87.558 C 76.807 89.677, 73.879 95.521, 67.068 103.487 C 62.826 108.449, 60.431 110.183, 53.082 113.619 C 43.109 118.281, 31.508 125.537, 28.500 128.995 L 26.500 131.293 32 130.743 C 40.411 129.901, 53.015 125.339, 69 117.350 C 76.975 113.365, 83.797 110.418, 84.159 110.802 C 85.326 112.038, 88 122.263, 88 125.490 C 88 131.135, 86.326 132.180, 74.918 133.652 C 61.566 135.375, 55.559 138.238, 47 146.958 C 41.667 152.392, 32.375 165.708, 33.283 166.616 C 33.413 166.747, 41.391 164.217, 51.010 160.995 C 69.541 154.788, 82.994 151.546, 86.112 152.536 C 90.975 154.079, 87.001 158.998, 75.420 165.769 C 71.910 167.821, 69.030 169.792, 69.019 170.150 C 69.009 170.507, 71.459 173.046, 74.464 175.793 C 92.283 192.079, 103.073 186.488, 107.469 158.692 C 109.165 147.966, 111.255 114.830, 110.435 111.667 C 110.125 110.475, 107.201 107.549, 103.936 105.166 C 98.321 101.066, 96.685 99, 99.053 99 C 99.632 99, 101.744 100.113, 103.746 101.474 C 105.748 102.834, 107.476 103.846, 107.586 103.724 C 107.696 103.601, 106.166 97.780, 104.186 90.789 L 100.586 78.077 94.279 78.126 C 86.402 78.186, 80.287 74.968, 76.631 68.838 L 74.165 64.703 70.887 71.428 C 65.500 82.475, 59.400 85.857, 54.974 80.250 C 52.180 76.710, 52.651 69.703, 56 64.999 C 58.939 60.872, 66.800 57.271, 74.215 56.654 C 79.409 56.222, 80.485 55.691, 86.002 50.839 L 92.073 45.500 83.129 45.214 C 69.263 44.770, 68.839 41.692, 82 37.005 C 85.575 35.731, 88.838 34.398, 89.252 34.043 C 90.358 33.091, 86.908 16.993, 85.608 17.039 C 84.998 17.060, 80.900 19.603, 76.500 22.690 M 97.700 18.269 C 102.710 26.218, 104.302 27.909, 105.948 27.028 C 111.586 24.010, 110.659 21.094, 103.260 18.573 C 97.671 16.668, 96.657 16.613, 97.700 18.269 M 98 33.944 C 94.230 35.479, 93.555 36.160, 93.836 38.138 C 94.400 42.094, 95.587 42.465, 101.373 40.498 L 106.802 38.653 105.216 35.327 C 103.385 31.488, 103.826 31.572, 98 33.944 M 122.730 33.905 C 119.557 34.945, 115.776 36.572, 114.328 37.520 L 111.696 39.245 114.380 40.873 C 120.146 44.370, 123 54.859, 123 72.554 L 123 83.834 128.019 84.911 C 138.264 87.108, 143.414 87.266, 149.980 85.584 C 162.435 82.393, 166.825 75.661, 159 71.752 C 154.914 69.710, 144.944 69.429, 135.426 71.086 C 130.373 71.966, 129.081 72.580, 128.627 74.319 C 128.199 75.954, 127.788 76.188, 126.899 75.299 C 125.525 73.925, 125.599 59.886, 127.006 54.978 C 128.286 50.515, 130.801 48, 133.984 48 C 137.058 48, 145.059 52.988, 148.017 56.749 C 149.123 58.155, 150.246 59.088, 150.512 58.821 C 150.778 58.555, 151.740 55.324, 152.648 51.642 C 154.723 43.235, 153.562 38.250, 148.725 34.800 C 144.262 31.617, 131.095 31.163, 122.730 33.905 M 83.500 39.329 L 77.500 41.500 84.368 41.798 C 88.146 41.962, 91.390 41.943, 91.579 41.755 C 92.130 41.204, 90.828 36.992, 90.133 37.079 C 89.785 37.122, 86.800 38.135, 83.500 39.329 M 98.250 45.031 C 97.013 45.529, 96.010 46.513, 96.023 47.218 C 96.062 49.406, 101.680 72.013, 102.352 72.685 C 103.409 73.742, 107.166 69.753, 109.119 65.500 C 111.170 61.035, 111.525 53.429, 109.947 47.750 C 108.951 44.161, 108.726 44.003, 104.703 44.063 C 102.391 44.098, 99.487 44.534, 98.250 45.031 M 112.775 47.250 C 113.174 49.038, 113.475 53.425, 113.444 57 C 113.381 64.451, 111.492 68.853, 106.323 73.594 L 102.951 76.687 107.225 91.488 C 111.342 105.744, 111.638 106.377, 115.250 108.659 L 119 111.029 119 106.515 C 119 104.032, 118.585 102, 118.077 102 C 115.858 102, 110.956 96.549, 110.008 93.029 C 108.817 88.608, 110.418 78.977, 112.333 79.035 C 112.975 79.055, 114.625 79.714, 116 80.500 C 121.165 83.453, 121.358 83.026, 120.635 70.239 C 120.270 63.770, 119.484 56.683, 118.890 54.489 C 117.254 48.448, 114.930 44, 113.411 44 C 112.393 44, 112.233 44.820, 112.775 47.250 M 86.690 54 C 83.052 57.325, 80.345 59, 78.610 59 C 75.530 59, 75.410 60.104, 77.896 65.579 C 80.121 70.477, 83.873 73.619, 89.214 75.058 C 93.609 76.241, 98.999 75.477, 99.001 73.671 C 99.004 71.083, 93.503 49, 92.856 49 C 92.474 49, 89.699 51.250, 86.690 54 M 63.708 62.090 C 57.621 65.302, 54.409 72.689, 56.607 78.418 C 57.488 80.714, 61.318 80.356, 63.756 77.750 C 65.998 75.353, 71.998 63.343, 71.999 61.250 C 72 59.406, 68.031 59.808, 63.708 62.090 M 112.401 85.537 C 111.484 89.193, 112.696 94.048, 115.190 96.702 C 118.957 100.712, 120 99.728, 120 92.161 C 120 85.802, 119.821 85.239, 117.453 84.161 C 113.807 82.499, 113.117 82.687, 112.401 85.537 M 122 108.421 L 122 112.976 134.250 118.926 C 149.488 126.326, 154.697 128.090, 163.271 128.750 C 170.841 129.333, 171.880 128.798, 177.146 121.600 C 180.646 116.818, 180.869 112.615, 177.732 110.560 C 175.040 108.796, 160.893 107.032, 149 106.977 C 140.769 106.939, 127.453 105.596, 123.792 104.434 C 122.248 103.944, 122 104.497, 122 108.421 M 114.305 113.773 C 114.636 115.431, 115.537 118.298, 116.307 120.144 L 117.707 123.500 118.114 118.708 C 118.470 114.513, 118.221 113.719, 116.111 112.337 C 113.724 110.773, 113.707 110.786, 114.305 113.773" stroke="none" fill="black" fill-rule="evenodd"/>
</svg>