<svg xmlns="http://www.w3.org/2000/svg" width="200" height="200" viewBox="0 0 200 200" version="1.1">
	<path d="M 130.222 11.863 C 128 13.236, 127 18.386, 127 28.457 L 127 38.783 124.315 39.457 C 122.838 39.828, 113.774 40.027, 104.171 39.901 L 86.712 39.671 95.916 30.708 C 106.690 20.218, 108.806 17.406, 107.162 15.762 C 105.520 14.120, 97.298 16.933, 81.028 24.702 C 68.164 30.845, 67.331 31.102, 64.053 29.945 C 62.157 29.276, 57.882 28.634, 54.553 28.520 C 51.224 28.406, 45.924 27.343, 42.775 26.157 C 21.563 18.166, 13.491 31.601, 15.987 70.736 C 17.355 92.180, 17.231 103.875, 15.527 114.276 C 11.934 136.190, 12.590 149.945, 17.329 152.104 C 20.447 153.525, 23.134 152.274, 32.409 145.087 C 44.376 135.814, 47.122 135.718, 49.089 144.506 C 50.506 150.839, 49.823 150.722, 60 146.374 C 67.585 143.133, 80.084 141.964, 85.068 144.028 C 90.023 146.080, 95.215 153.110, 99.924 164.138 C 102.886 171.075, 105.617 175.782, 108.185 178.379 C 111.741 181.974, 112.347 182.221, 116.452 181.758 C 118.889 181.484, 122.975 180.033, 125.533 178.534 C 129.430 176.250, 130.071 175.460, 129.493 173.654 C 129.113 172.469, 128.569 168.687, 128.284 165.249 C 127.771 159.052, 127.801 158.964, 131.661 155.104 C 134.268 152.497, 137.364 150.670, 141.028 149.577 C 147.403 147.676, 161.446 146.042, 171.628 146.017 C 178.710 146, 181.708 144.717, 180.193 142.351 C 179.263 140.899, 172.645 137.602, 164.526 134.546 C 158.240 132.180, 157.099 132.073, 143.688 132.591 C 126.173 133.267, 126.268 133.135, 150.990 122.505 C 168.325 115.050, 173.376 111.968, 171.426 110.034 C 170.917 109.529, 163.525 107.960, 155 106.549 C 132.347 102.798, 133.449 103.326, 141.326 100.002 C 150.654 96.067, 157.382 90.663, 162.493 83 C 164.877 79.425, 167.956 75.443, 169.333 74.152 C 176.118 67.791, 178.584 52.822, 174.234 44.405 C 171.597 39.302, 166.325 34.592, 161.449 32.983 C 159.217 32.247, 154.808 31.942, 150.441 32.222 L 143.155 32.690 140.975 26.595 C 137.008 15.502, 133.068 10.104, 130.222 11.863 M 130.666 15.429 C 129.599 18.209, 128.661 33.511, 129.381 36.381 C 130.012 38.894, 130.320 39, 137.038 39 L 144.038 39 143.403 41.750 C 142.714 44.731, 141.351 47.724, 138.431 52.665 C 136.567 55.819, 136.572 55.871, 139.925 68.665 C 141.775 75.724, 143.336 82.850, 143.394 84.500 C 143.489 87.190, 143.190 87.500, 140.500 87.500 C 137.858 87.500, 137.178 86.844, 134.798 82 C 131.843 75.984, 129.716 66.665, 127.950 52 C 127.320 46.775, 126.677 42.365, 126.520 42.200 C 126.362 42.035, 119.930 42.212, 112.226 42.594 L 98.218 43.287 102.109 46.989 C 106.394 51.065, 106.764 52.465, 104.434 55.791 C 102.361 58.751, 97.366 61.188, 86.798 64.394 C 82.012 65.847, 77.835 67.458, 77.516 67.975 C 76.184 70.130, 89.908 74.656, 112.500 79.513 C 133.227 83.968, 132.328 85.398, 108.184 86.374 C 90.951 87.071, 85 87.724, 85 88.920 C 85 89.302, 88.244 91.163, 92.210 93.057 C 108.926 101.040, 110.404 107.764, 96.564 112.860 C 93.779 113.886, 90.825 114.976, 90 115.284 C 89.136 115.605, 89.658 115.876, 91.230 115.921 C 95.576 116.047, 101.606 118.895, 102.987 121.475 C 103.704 122.815, 103.971 124.977, 103.602 126.448 C 102.768 129.773, 96.870 136.317, 92.153 139.152 C 90.144 140.359, 88.347 141.459, 88.161 141.596 C 87.975 141.733, 89.658 143.503, 91.901 145.530 C 95.759 149.015, 97.720 152.453, 104.775 168.094 C 109.785 179.202, 113.883 181.196, 122.673 176.806 C 125.897 175.196, 126.887 174.199, 126.394 173.056 C 126.024 172.200, 125.535 169.025, 125.306 166 C 124.787 159.135, 126.902 154.665, 132.525 150.744 C 138.141 146.828, 145.272 145.143, 161.500 143.898 C 169.200 143.307, 175.636 142.690, 175.802 142.527 C 175.968 142.363, 172.593 140.716, 168.302 138.865 L 160.500 135.500 144.430 135.819 C 130.788 136.090, 128.162 135.901, 127.057 134.569 C 124.457 131.436, 127.365 129.619, 151.463 119.309 C 159.733 115.771, 166.837 112.544, 167.250 112.138 C 167.662 111.733, 159.337 109.935, 148.750 108.143 C 138.162 106.352, 129.181 104.570, 128.792 104.184 C 127.380 102.787, 129.633 101.253, 136.357 99.031 C 145.642 95.963, 154.721 89.623, 158.665 83.452 C 160.406 80.728, 163.609 76.475, 165.785 74 C 170.893 68.188, 172.975 64.011, 173.661 58.196 C 174.425 51.728, 172.546 45.610, 168.380 40.999 C 163.742 35.866, 159.625 34.617, 149.434 35.253 L 141.190 35.767 138.018 26.899 C 136.274 22.022, 134.056 17.055, 133.089 15.862 C 131.490 13.887, 131.272 13.848, 130.666 15.429 M 98 19.941 C 93.038 21.961, 69.844 32.823, 69.273 33.394 C 69.076 33.591, 69.692 35.383, 70.642 37.376 C 72.260 40.769, 72.665 41, 76.988 41 C 81.515 41, 81.827 40.784, 92.803 30.061 C 98.961 24.044, 104 18.869, 104 18.561 C 104 17.697, 102.877 17.955, 98 19.941 M 25.615 29.088 C 18.632 34.581, 17.369 43.624, 18.997 76.500 C 20.176 100.321, 20.134 102.195, 18.117 116.242 C 14.895 138.675, 15.438 150, 19.734 150 C 20.716 150, 24.664 147.532, 28.509 144.515 C 36.577 138.186, 42.072 135, 44.921 135 C 47.680 135, 50.848 138.672, 51.614 142.759 C 52.096 145.323, 52.656 146.032, 53.877 145.621 C 64.977 141.885, 69.450 139.877, 69.126 138.774 C 67.461 133.096, 67.090 129.786, 67.613 125.295 L 68.219 120.090 64.610 120.676 C 61.700 121.148, 61 120.946, 61 119.631 C 61 118.485, 61.893 118, 64 118 L 67 118 67 107.436 C 67 101.626, 67.942 87.373, 69.094 75.763 C 70.375 62.841, 70.922 52.533, 70.504 49.186 L 69.821 43.717 60.448 44.276 C 55.293 44.584, 50.573 45.146, 49.959 45.525 C 49.163 46.017, 49.036 51.283, 49.517 63.858 C 50.242 82.797, 48.771 114.490, 46.921 119.797 C 45.756 123.138, 43.969 123.880, 42.217 121.750 C 40.663 119.861, 37.776 109.172, 38.502 107.997 C 39.630 106.172, 40.633 107.783, 41.902 113.454 C 42.585 116.504, 43.498 119, 43.932 119 C 44.366 119, 45.007 116.638, 45.356 113.750 C 46.178 106.945, 47.102 75.880, 46.405 78.500 C 44.077 87.246, 41.659 93, 40.311 93 C 39.352 93, 39.004 92.431, 39.374 91.467 C 43.215 81.459, 44.207 75.549, 43.616 66.195 C 43.279 60.863, 42.736 54.420, 42.411 51.877 C 41.881 47.742, 42.118 46.948, 44.659 44.352 C 46.222 42.755, 50.986 39.661, 55.246 37.475 C 59.506 35.289, 62.993 33.183, 62.996 32.795 C 63.003 31.673, 56.430 30.747, 53.317 31.430 C 51.408 31.850, 48.439 31.226, 44.259 29.527 C 36.399 26.333, 29.329 26.167, 25.615 29.088 M 59.750 38.064 C 56.587 39.696, 54 41.253, 54 41.523 C 54 41.983, 68.164 40.994, 68.787 40.490 C 69.261 40.108, 66.727 34.996, 66.089 35.048 C 65.765 35.075, 62.913 36.432, 59.750 38.064 M 130.441 49.250 C 132.074 66.165, 137.080 85, 139.944 85 C 141.413 85, 141.330 84.441, 138.448 74.926 C 137.045 70.292, 135.635 63.532, 135.316 59.904 C 134.797 54.002, 135.013 52.834, 137.368 48.816 C 141.040 42.549, 140.839 42, 134.871 42 L 129.742 42 130.441 49.250 M 74.250 43.662 C 73.356 44.023, 72.994 47.351, 72.980 55.333 C 72.969 61.475, 72.303 72.575, 71.500 80 C 70.697 87.425, 70.031 98.796, 70.020 105.269 C 70 116.953, 70.016 117.035, 72.250 116.560 C 89.313 112.933, 99.226 109.632, 102.311 106.546 C 105.056 103.801, 102.840 101.521, 92.444 96.395 C 75.511 88.047, 77.820 85.337, 103.436 83.499 L 113.373 82.785 99.530 79.311 C 84.154 75.452, 75.310 71.973, 74.321 69.394 C 73.298 66.729, 77.011 64.463, 87.990 61.052 C 98.525 57.779, 103.770 54.449, 102.716 51.703 C 102.376 50.816, 99.938 48.506, 97.299 46.570 C 92.677 43.180, 92.186 43.052, 84 43.104 C 79.325 43.134, 74.938 43.385, 74.250 43.662 M 44.794 48.250 C 44.563 48.938, 44.686 50.850, 45.068 52.500 C 45.706 55.253, 45.773 55.150, 45.882 51.250 C 46 47.011, 45.590 45.881, 44.794 48.250 M 77.828 118.893 C 74.708 119.233, 71.811 119.856, 71.389 120.278 C 70.967 120.699, 70.595 124.359, 70.561 128.411 C 70.477 138.577, 72.058 140.357, 80.688 139.807 C 85.825 139.480, 87.792 138.787, 92.200 135.751 C 100.845 129.797, 103.453 123.293, 98.250 120.659 C 94.796 118.911, 85.244 118.085, 77.828 118.893" stroke="none" fill="black" fill-rule="evenodd"/>
</svg>