<svg xmlns="http://www.w3.org/2000/svg" width="200" height="200" viewBox="0 0 200 200" version="1.1">
	<path d="M 76.523 20.948 C 67.786 23.367, 58.742 26.932, 55.893 29.081 C 50.872 32.868, 57.542 34.133, 68.500 31.471 L 74.500 30.014 80.753 33.158 C 90.719 38.169, 90.820 38.929, 82.581 46.954 L 78.008 51.409 65.754 51.801 C 52.016 52.241, 43.403 50.758, 35.024 46.512 C 32.298 45.131, 29.608 44, 29.047 44 C 27.041 44, 23.049 51.624, 21.456 58.500 C 19.545 66.746, 19.360 87.837, 20.957 115.444 C 21.948 132.568, 21.896 133.734, 19.822 140.944 C 17.065 150.530, 16.833 161.771, 19.262 168.066 C 21.443 173.715, 26.661 178.916, 31.128 179.892 C 45.094 182.944, 54.051 167.285, 51.017 145.123 C 50.410 140.689, 49.260 135.810, 48.463 134.280 C 45.046 127.730, 47.775 119.977, 56.041 112.745 C 60.704 108.666, 74.483 100.657, 81.250 98.092 L 84 97.050 84 105.275 L 84 113.500 74.605 113.500 C 61.615 113.500, 61.654 113.456, 60.169 130.251 C 58.715 146.685, 58.708 150.541, 60.118 157.114 C 61.464 163.390, 64.690 167, 68.953 167 C 70.627 167, 76.141 165.134, 81.205 162.854 C 86.270 160.574, 92.364 158.488, 94.749 158.219 C 98.833 157.759, 99.333 157.989, 103.360 162.192 C 106.678 165.655, 108.068 166.485, 109.568 165.897 C 115.982 163.385, 122.627 165.446, 137.883 174.677 C 148.534 181.122, 153.071 182.723, 157.163 181.480 C 163.858 179.446, 168.915 170.064, 172.044 153.870 C 173.364 147.038, 173.304 69.786, 171.971 59.268 C 171.433 55.032, 170.354 50.925, 169.572 50.143 C 167.162 47.734, 159.183 47.708, 142.500 50.055 C 133.700 51.293, 122.450 52.350, 117.500 52.403 L 108.500 52.500 107.735 40 C 106.545 20.549, 104.334 18.190, 99.840 31.576 C 96.532 41.429, 96.297 46.836, 99.026 50.306 C 100.140 51.723, 101.940 53.164, 103.026 53.508 C 106.034 54.463, 105.680 60.013, 102.416 63.076 C 100.995 64.409, 98.296 67.638, 96.418 70.250 L 93.003 75 98.549 75 L 104.095 75 103.798 81.163 L 103.500 87.326 95.299 90.078 L 87.097 92.830 86.595 88.665 C 86.318 86.374, 85.838 81.177, 85.527 77.115 C 85.216 73.054, 84.544 67.879, 84.034 65.615 C 83.525 63.352, 82.934 59.475, 82.722 57 C 82.336 52.506, 82.342 52.497, 87.055 50.229 C 91.785 47.954, 94.982 43.398, 93.515 41.024 C 93.142 40.422, 94.219 37.775, 95.908 35.144 C 100.055 28.681, 100.690 25.073, 98.216 22.019 C 95.541 18.716, 86.246 18.257, 76.523 20.948 M 74.145 24.576 C 60.689 28.554, 56.320 31.887, 68.977 28.519 C 74.233 27.120, 74.666 27.158, 79.712 29.469 C 82.605 30.793, 86.444 32.999, 88.244 34.372 L 91.516 36.868 93.721 33.504 C 96.679 28.992, 97.511 25.320, 95.989 23.487 C 94.091 21.199, 83.840 21.710, 74.145 24.576 M 103.070 30.816 C 103.032 32.089, 102.480 34.104, 101.844 35.292 C 98.217 42.068, 99.570 50.889, 104.250 50.985 C 105.283 51.006, 105.063 32.974, 104 30.500 C 103.189 28.613, 103.137 28.630, 103.070 30.816 M 88.170 44.985 C 86.604 47.102, 86.419 47.777, 87.518 47.355 C 89.103 46.747, 91.474 43.141, 90.760 42.427 C 90.539 42.206, 89.373 43.357, 88.170 44.985 M 27.596 49.494 C 22.714 56.944, 21.776 70.926, 23.333 113 C 24.114 134.115, 24.037 135.987, 22.083 143.410 C 18.494 157.040, 19.971 167.672, 26.307 173.813 C 33.148 180.443, 41.099 178.297, 46 168.499 C 48.205 164.091, 48.494 162.259, 48.450 153 C 48.410 144.705, 47.912 141.092, 46.080 135.795 C 43.288 127.725, 43.717 124.134, 48.284 117.340 C 52.581 110.947, 59.196 106.069, 72.868 99.212 L 84.235 93.511 83.582 85.005 C 83.222 80.327, 82.658 74.336, 82.328 71.692 L 81.727 66.884 77.802 74.117 C 66.825 94.347, 49 114.446, 49 106.594 C 49 105.549, 59.056 88.627, 60.603 87.067 C 60.840 86.828, 61.470 87.070, 62.004 87.604 C 62.631 88.231, 62.151 89.799, 60.648 92.037 C 59.368 93.942, 57.528 96.850, 56.559 98.500 C 55.062 101.047, 55.354 100.896, 58.492 97.500 C 66.710 88.607, 81.310 63.977, 79.461 62.127 C 78.470 61.137, 76.275 64.751, 73.371 72.152 C 70.084 80.529, 67.123 81.863, 69.931 73.702 C 73.015 64.736, 75.807 60.087, 78.512 59.408 C 81.368 58.691, 81.287 58.885, 80.071 55.686 C 79.207 53.414, 78.839 53.301, 74.821 54.078 C 63.118 56.340, 44.095 54.131, 34.668 49.417 C 32.010 48.087, 29.699 47, 29.533 47 C 29.366 47, 28.495 48.122, 27.596 49.494 M 141.327 52.864 C 135.182 53.764, 129.820 54.837, 129.411 55.250 C 129.001 55.663, 129.201 56, 129.855 56 C 132.441 56, 139.075 61.464, 142.417 66.346 C 149.368 76.501, 150.518 88.971, 145.503 99.797 L 143.101 104.981 145.234 110.740 C 146.988 115.476, 147.378 118.810, 147.433 129.500 C 147.495 141.576, 147.322 142.817, 145 146.962 C 143.625 149.417, 141.263 152.117, 139.750 152.962 C 137.290 154.338, 136.710 154.340, 134.250 152.986 C 132.738 152.153, 130.661 149.760, 129.635 147.668 C 127.372 143.052, 126.466 130.173, 127.771 121.181 L 128.688 114.862 126.094 115.562 C 119.921 117.230, 115.097 117.916, 109.250 117.956 C 103.588 117.996, 103 118.197, 103 120.093 C 103 124.423, 98.835 142.403, 96.998 146.005 C 94.519 150.864, 92.340 151.668, 89.328 148.838 C 86.117 145.822, 85.062 141.519, 84.218 128 L 83.500 116.500 75.491 116.213 C 70.102 116.021, 66.935 116.348, 65.808 117.213 C 63.639 118.881, 61.521 138.844, 62.259 150.670 C 63.170 165.274, 65.993 166.703, 80.775 160.048 C 94.880 153.696, 99.715 153.758, 105.889 160.367 C 107.964 162.589, 108.842 162.846, 112.594 162.332 C 118.705 161.495, 125.548 163.998, 138.122 171.673 C 150.782 179.399, 155.675 180.585, 159.637 176.887 C 163.292 173.476, 165.724 168.243, 168.059 158.769 C 169.960 151.053, 170.090 147.579, 170.003 106.847 C 169.909 62.699, 169.386 53.492, 166.882 51.906 C 164.830 50.606, 153.959 51.014, 141.327 52.864 M 108 56.500 C 108 58.182, 108.184 58.250, 110.412 57.395 C 112.243 56.693, 111.557 55, 109.441 55 C 108.648 55, 108 55.675, 108 56.500 M 112.196 59.589 L 107 62.179 107 67.089 L 107 72 110.668 72 C 122.436 72, 134.569 76.743, 138.807 83 C 143.632 90.122, 139.594 101.010, 130.616 105.087 C 123.011 108.541, 116.484 107.143, 109.110 100.481 L 105 96.767 104.991 100.634 C 104.987 102.760, 104.691 106.927, 104.335 109.894 L 103.687 115.289 113.128 114.795 C 123.062 114.275, 125.693 113.411, 130.369 109.128 C 132.875 106.832, 133.166 106.753, 132.672 108.500 C 129.711 118.970, 129.360 140.922, 132.066 146.408 C 135.233 152.828, 138.953 152.393, 142.654 145.170 C 146.816 137.046, 146.546 123.194, 141.971 110.177 L 140.027 104.645 142.573 99.439 C 149.423 85.440, 144.468 67.323, 131.805 60.061 C 124.979 56.146, 119.376 56.012, 112.196 59.589 M 102.319 67.254 C 98.848 71.110, 98.662 72, 101.327 72 C 103.318 72, 103.865 71.396, 104.268 68.750 C 104.896 64.627, 104.771 64.531, 102.319 67.254 M 106.542 83.339 C 105.887 91.196, 106.013 92.209, 107.982 94.975 C 115.714 105.833, 129.207 106.867, 135.730 97.102 C 142.812 86.501, 133.312 76.518, 114.945 75.259 L 107.259 74.732 106.542 83.339 M 93.500 93.311 L 87.500 95.503 87.214 104.610 L 86.929 113.717 93.590 114.399 C 97.254 114.774, 100.405 114.928, 100.592 114.741 C 101.039 114.295, 102.981 97.299, 102.992 93.750 C 103.002 90.374, 101.704 90.314, 93.500 93.311 M 87.076 127.750 C 87.148 137.978, 87.935 141.995, 90.749 146.500 L 91.999 148.500 93.543 146.500 C 95.500 143.967, 97.587 136.735, 99.315 126.500 C 100.883 117.213, 100.862 117.186, 92.250 117.070 L 87 117 87.076 127.750" stroke="none" fill="black" fill-rule="evenodd"/>
</svg>