<svg xmlns="http://www.w3.org/2000/svg" width="200" height="200" viewBox="0 0 200 200" version="1.1">
	<path d="M 129.111 11.357 C 128.026 12.671, 127.806 16.159, 128.106 27.270 C 128.317 35.096, 128.340 51.625, 128.158 64 L 127.825 86.500 123.913 89.833 C 118.577 94.378, 119.005 97, 125.082 97 C 126.687 97, 127 97.730, 127 101.475 C 127 105.914, 126.976 105.945, 124 105.350 C 120.678 104.686, 120.079 106.209, 122.047 110.316 C 122.622 111.517, 118.407 107.583, 112.679 101.573 L 102.265 90.646 106.553 84.821 C 112.197 77.154, 114.440 70.375, 113.551 63.671 C 113.177 60.854, 112.395 57.976, 111.813 57.275 C 109.208 54.136, 102.280 56.706, 87.083 66.447 L 80.231 70.839 77.070 68.169 L 73.910 65.500 80.725 52.142 C 87.326 39.204, 87.681 38.731, 92.020 37.074 C 100.938 33.670, 111.426 25.133, 112.642 20.290 C 114.786 11.747, 101.758 14.008, 76.571 26.550 L 63.642 32.988 55.733 31.386 C 49.193 30.061, 46.497 29.977, 40.162 30.902 C 31.013 32.239, 21.395 36.647, 17.197 41.428 C 14.397 44.618, 14.277 45.097, 15.142 49.657 C 15.647 52.321, 15.988 70.475, 15.901 90 C 15.766 120.178, 15.995 126.571, 17.427 132.642 C 19.392 140.973, 23.627 148.195, 28.168 150.956 L 31.378 152.908 33.059 150.143 C 35.632 145.912, 42.781 140.241, 47.901 138.368 C 71.482 129.745, 73.166 128.874, 81.314 121.096 L 86.129 116.500 85.455 135.500 C 84.758 155.150, 85.775 168.133, 88.527 174.718 C 93.652 186.984, 106.065 185.541, 122.424 170.776 L 129.247 164.618 131.350 167.559 C 134.998 172.658, 143.364 181.137, 146.187 182.597 C 156.417 187.887, 165.065 178.998, 169.631 158.500 C 171.013 152.297, 171.436 145.671, 171.515 129 C 171.587 113.888, 172.021 106.227, 172.977 103.215 C 174.228 99.275, 174.175 98.710, 172.323 96.215 C 169.137 91.920, 164.073 90.716, 152 91.383 C 146.225 91.702, 138.964 92.254, 135.864 92.610 C 130.230 93.256, 130.229 93.255, 130.717 90.698 C 131.089 88.752, 132.799 87.309, 137.853 84.674 C 143.289 81.840, 146.049 81.085, 153 80.530 C 175.674 78.720, 184.566 71.337, 180.580 57.628 C 177.376 46.606, 163.128 31.408, 152.903 28.107 C 145.280 25.646, 143.585 29.443, 147.389 40.458 C 150.741 50.164, 152.049 56, 150.871 56 C 149.451 56, 139.272 39.863, 135.252 31.239 C 132.651 25.658, 131.485 21.572, 131.072 16.587 C 130.569 10.508, 130.333 9.878, 129.111 11.357 M 98.293 19.997 C 91.554 22.394, 79.050 28.062, 71.727 32.039 L 65.953 35.175 68.602 37.259 C 72.146 40.047, 74.944 46.483, 75.010 52 L 75.064 56.500 80.569 46.331 C 85.754 36.755, 86.334 36.074, 90.515 34.650 C 99 31.759, 110 22.978, 110 19.096 C 110 17.456, 104.180 17.904, 98.293 19.997 M 131.017 57.317 L 131 85.134 137.717 81.567 C 142.530 79.011, 145.720 77.994, 148.967 77.980 C 161.446 77.926, 172.135 74.828, 176.500 70.001 C 179.318 66.886, 179.143 59.840, 176.095 53.628 C 171.465 44.194, 155.678 30.041, 149.750 30.009 C 147.236 29.996, 147.534 33.092, 151 43 C 155.155 54.880, 154.874 60.882, 150.238 59.265 C 148.342 58.604, 140.681 47.470, 135.564 37.940 L 131.033 29.500 131.017 57.317 M 35.550 34.541 C 28.969 36.204, 22.643 39.566, 19.344 43.155 C 17.360 45.312, 17.269 45.980, 18.199 51.500 C 18.821 55.190, 18.985 68.932, 18.626 87.196 C 17.842 127.105, 19.576 139.387, 27 146.500 L 29.993 149.368 33.581 145.177 C 38.045 139.961, 43.072 137.022, 54.160 133.147 C 71.391 127.124, 79.454 121.582, 86.006 111.257 L 89.026 106.500 88.366 132 C 87.498 165.535, 89.209 175.988, 96.151 179.578 C 100.089 181.614, 105.198 180.145, 113.182 174.682 L 119.389 170.434 121.148 159.467 C 122.115 153.435, 123.640 142.088, 124.536 134.252 L 126.166 120.004 113.410 106.502 C 106.394 99.076, 100.343 93, 99.962 93 C 99.581 93, 98.134 93.894, 96.745 94.986 C 88.217 101.694, 77.001 104.196, 71.530 100.611 C 65.576 96.710, 63.056 82.785, 66.625 73.500 C 69.698 65.506, 69.732 65.621, 62.844 60.739 C 59.355 58.267, 54.650 55.311, 52.388 54.172 L 48.276 52.100 48.764 65.800 C 49.285 80.428, 47.599 111.045, 45.931 117.250 C 45.365 119.354, 44.298 121, 43.500 121 C 41.724 121, 40.378 115.868, 39.501 105.750 C 38.921 99.060, 39.046 98, 40.415 98 C 41.601 98, 42.019 99.068, 42.074 102.250 C 42.115 104.588, 42.480 108.525, 42.884 111 L 43.621 115.500 44.281 109.500 C 46.141 92.618, 46.258 86.964, 44.734 87.549 C 41.999 88.598, 34.893 67.626, 34.667 57.835 C 34.508 50.958, 36.581 48, 41.561 48 C 44.253 48, 44.728 47.676, 44.320 46.117 C 43.930 44.624, 45.396 43.342, 51.415 39.918 C 55.831 37.405, 58.630 35.230, 58.114 34.714 C 56.474 33.074, 41.803 32.962, 35.550 34.541 M 54.242 41.302 C 49.794 43.874, 47.085 46.065, 47.247 46.960 C 47.393 47.762, 50.685 50.237, 54.563 52.460 C 58.441 54.682, 63.704 57.969, 66.259 59.765 L 70.904 63.030 71.652 59.265 C 72.693 54.026, 72.384 47.603, 70.957 44.833 C 69.105 41.236, 64.801 36.994, 63.063 37.052 C 62.203 37.081, 58.234 38.993, 54.242 41.302 M 37.809 53.519 C 36.282 56.871, 38 66.190, 42.281 77.783 L 45.500 86.500 45.796 72 C 45.959 64.025, 45.826 56.038, 45.501 54.250 C 44.990 51.444, 44.503 51, 41.933 51 C 39.723 51, 38.662 51.648, 37.809 53.519 M 101.500 61.084 C 93.924 65.135, 82.920 72.259, 83.210 72.926 C 84.020 74.791, 99.379 88.041, 100.360 87.721 C 102.313 87.084, 108.972 76.818, 110.065 72.759 C 110.637 70.634, 110.969 66.781, 110.803 64.198 C 110.534 60.023, 110.222 59.469, 108 59.223 C 106.625 59.070, 103.700 59.908, 101.500 61.084 M 73 70.965 C 73 72.333, 73.655 73, 75 73 C 76.100 73, 77 72.566, 77 72.035 C 77 71.505, 76.100 70.589, 75 70 C 73.305 69.093, 73 69.240, 73 70.965 M 68.641 75.210 C 68.303 76.470, 68.021 80.327, 68.014 83.782 C 67.982 98.487, 74.741 103.214, 87.192 97.192 C 90.661 95.514, 94.539 93.299, 95.810 92.271 L 98.120 90.401 88.949 82.225 C 81.384 75.480, 79.459 74.219, 77.955 75.024 C 75.337 76.425, 72.911 76.229, 70.956 74.460 C 69.405 73.057, 69.200 73.123, 68.641 75.210 M 124.559 92.532 C 122.697 93.940, 122.728 94, 125.309 94 C 127.034 94, 128 93.462, 128 92.500 C 128 90.634, 127.057 90.642, 124.559 92.532 M 144.500 94.504 C 143.950 94.694, 140.463 95.145, 136.750 95.505 L 130 96.159 130 102.497 L 130 108.835 138.408 116.095 C 147.629 124.058, 147.257 123.083, 145.248 134 C 144.894 135.925, 144.581 137.813, 144.552 138.194 C 144.523 138.576, 147.642 140.910, 151.482 143.381 L 158.464 147.873 155.482 148.954 C 146.602 152.171, 134.390 158.620, 132.214 161.242 C 131.362 162.268, 132.238 164.088, 136.007 169.120 C 155.735 195.464, 169.646 176.600, 168.911 124.500 C 168.719 110.835, 168.995 105.711, 170.058 103.225 C 171.665 99.465, 170.793 97.266, 166.902 95.265 C 164.748 94.157, 147.222 93.562, 144.500 94.504 M 125.564 110.293 C 125.940 111.279, 126.499 111.834, 126.807 111.526 C 127.115 111.219, 126.808 110.412, 126.124 109.733 C 125.136 108.753, 125.022 108.868, 125.564 110.293 M 129 113.466 C 129 114.364, 129.647 116.351, 130.438 117.880 C 131.747 120.411, 131.701 120.811, 129.938 122.321 C 128.552 123.507, 128 125.266, 128 128.490 C 128 132.494, 128.253 133.002, 130.250 133.022 C 131.488 133.034, 134.480 133.942, 136.899 135.040 C 139.318 136.137, 141.456 136.878, 141.649 136.684 C 141.842 136.491, 142.527 133.708, 143.172 130.499 L 144.343 124.665 140.422 121.294 C 130.751 112.981, 129 111.780, 129 113.466 M 127 136.326 C 127 138.046, 130.883 141.583, 133.712 142.440 C 136.002 143.134, 140 141.606, 140 140.037 C 140 139.188, 129.992 135, 127.962 135 C 127.433 135, 127 135.597, 127 136.326 M 140.506 142.993 C 138.286 145.447, 132.413 145.678, 129.215 143.438 C 126.552 141.573, 126.628 141.410, 125.010 152.500 C 124.367 156.900, 123.585 161.588, 123.271 162.917 C 122.771 165.032, 123.500 164.685, 129.100 160.146 C 132.620 157.293, 138.983 153.280, 143.240 151.229 C 147.497 149.178, 150.854 147.111, 150.702 146.636 C 150.549 146.161, 148.601 144.695, 146.373 143.379 C 142.325 140.989, 142.320 140.989, 140.506 142.993" stroke="none" fill="black" fill-rule="evenodd"/>
</svg>