<svg xmlns="http://www.w3.org/2000/svg" width="200" height="200" viewBox="0 0 200 200" version="1.1">
	<path d="M 128.957 16.250 C 127.121 17.488, 124.502 20.670, 123.137 23.322 C 121.092 27.297, 120.291 28.038, 118.578 27.545 C 87.307 18.538, 75.759 18.041, 68.413 25.387 C 64.609 29.191, 63.013 34.273, 63.006 42.605 L 63 48.710 56.250 49.283 C 52.538 49.598, 48.775 50.137, 47.890 50.481 C 46.095 51.178, 45.031 47.029, 45.011 39.250 C 45.003 36.105, 44.602 35, 43.469 35 C 42.626 35, 41.692 35.638, 41.393 36.419 C 40.988 37.473, 39.132 37.794, 34.174 37.669 C 25.090 37.439, 21.476 39.572, 17.500 47.510 L 14.500 53.500 14.511 71.500 C 14.518 81.400, 14.923 100.300, 15.411 113.500 C 16.066 131.200, 15.985 139.303, 15.100 144.367 C 14.440 148.144, 14.061 151.394, 14.257 151.591 C 15.220 152.553, 40.968 148.841, 46.808 146.898 C 52.123 145.129, 54.625 143.535, 59.082 139.078 C 67.932 130.228, 68.535 127.585, 68.336 98.500 C 68.245 85.300, 67.815 69.775, 67.379 64 C 66.943 58.225, 66.567 53.059, 66.543 52.520 C 66.507 51.688, 74.938 51.634, 75.787 52.461 C 75.944 52.614, 75.167 55.039, 74.060 57.849 C 70.815 66.081, 69.687 79.330, 70.430 100.500 C 71.090 119.322, 71.072 119.561, 68.518 126 C 61.038 144.855, 58.138 166.152, 62.405 170.887 C 65.484 174.302, 68.827 173.573, 73.602 168.445 C 78.727 162.942, 84.736 151.018, 89.196 137.500 C 91.011 132, 92.585 127.336, 92.695 127.136 C 92.804 126.937, 95.955 127.705, 99.697 128.845 C 111.391 132.406, 119 138.678, 119 144.754 C 119 151.379, 108.480 163.663, 94.323 173.568 C 81.667 182.424, 80.780 183.180, 81.828 184.228 C 82.492 184.892, 87.462 183.385, 96.663 179.732 L 110.500 174.239 118.500 175.048 C 135.854 176.804, 158.244 175.891, 169.043 172.987 C 173.434 171.806, 177 168.599, 177 165.829 C 177 160.946, 164.056 152.941, 145.649 146.442 L 137.799 143.669 152.072 136.653 C 165.585 130.009, 175 123.251, 175 120.194 C 175 117.688, 169.469 115.716, 157.276 113.875 C 150.249 112.813, 142.167 111.279, 139.317 110.464 C 133.571 108.822, 127.991 104.722, 128.017 102.161 C 128.028 101.100, 128.772 101.653, 130.080 103.694 L 132.126 106.889 142.083 103.423 C 147.559 101.517, 154.527 98.857, 157.568 97.512 C 174.193 90.160, 174.603 84.190, 158.767 80.086 C 154.220 78.907, 148.544 77.435, 146.154 76.815 C 140.770 75.417, 141.220 75.124, 156.470 70.093 C 169.415 65.823, 177.916 61.105, 180.476 56.771 C 182.168 53.906, 182.162 53.692, 180.309 51.146 C 177.448 47.218, 170.485 44.296, 155.196 40.606 C 140.451 37.047, 140.407 36.795, 154.296 35.476 C 158.065 35.118, 161.628 35.245, 162.296 35.760 C 164.746 37.651, 166.980 37.877, 168.471 36.386 C 171.307 33.551, 170.338 32, 165.731 32 C 161.888 32, 160.717 31.340, 153.981 25.370 C 146.512 18.750, 138.372 14.028, 134.398 14.010 C 133.242 14.004, 130.793 15.012, 128.957 16.250 M 128.459 20.341 C 124.370 24.430, 122.978 28.849, 125.359 30.181 C 127.868 31.585, 127.368 34, 124.567 34 C 121.983 34, 121.517 34.857, 120.486 41.500 C 120.145 43.700, 119.636 46.733, 119.355 48.240 C 118.872 50.839, 119.005 50.949, 121.925 50.365 C 124.219 49.906, 128.702 51.097, 139.502 55.035 C 147.476 57.942, 154 60.698, 154 61.160 C 154 62.349, 152.702 62.223, 142 60 C 136.775 58.914, 129.298 58.020, 125.385 58.013 L 118.270 58 117.765 70.750 L 117.259 83.500 121.346 88 C 123.593 90.475, 126.228 92.820, 127.200 93.212 C 128.171 93.603, 128.759 94.503, 128.506 95.212 C 128.253 95.920, 129.311 98.024, 130.858 99.886 L 133.671 103.273 140.585 100.974 C 155.908 95.880, 168 89.761, 168 87.101 C 168 85.751, 160.945 83.159, 151.234 80.942 C 141.881 78.806, 138.659 77.052, 139.598 74.607 C 140.277 72.835, 143.437 71.437, 156 67.345 C 167.035 63.751, 176.497 58.763, 178.175 55.656 C 180.590 51.183, 172.903 47.440, 151 42.423 C 135.037 38.767, 132.811 36.122, 143.922 34.015 C 146.865 33.457, 151.012 33, 153.136 33 C 155.261 33, 156.994 32.663, 156.987 32.250 C 156.966 31.007, 146.331 22.073, 141.765 19.462 C 135.817 16.062, 132.521 16.279, 128.459 20.341 M 74.071 24.752 C 68.193 27.749, 66.546 31.037, 66.147 40.573 L 65.795 49 71.988 49 C 77.631 49, 78.549 48.686, 82.304 45.472 C 89.189 39.578, 96.011 36.939, 116.500 32.240 L 120.500 31.323 111.858 28.634 C 93.834 23.026, 80.202 21.625, 74.071 24.752 M 106.256 37.487 C 96.903 39.905, 86.457 44.732, 83.494 48.007 C 81.951 49.711, 82.406 49.827, 93.188 50.478 C 99.410 50.854, 107.200 51.013, 110.500 50.831 L 116.500 50.500 117.140 45.256 C 117.492 42.372, 118.063 38.885, 118.409 37.506 C 119.202 34.345, 118.419 34.344, 106.256 37.487 M 26 41.752 C 23.599 42.951, 21.715 45.070, 20 48.500 C 17.582 53.336, 17.500 54.157, 17.510 73.500 C 17.516 84.500, 17.892 103.175, 18.347 115 C 18.833 127.656, 18.795 139.065, 18.254 142.735 L 17.335 148.970 20.918 148.505 C 22.888 148.249, 28.423 147.566, 33.218 146.987 C 51.923 144.728, 60.427 138.701, 64.430 124.864 C 65.727 120.381, 65.897 114.983, 65.469 92 C 65.187 76.875, 64.629 61.575, 64.228 58 L 63.500 51.500 57.721 51.844 C 47.101 52.477, 46.589 52.810, 45.859 59.568 C 45.506 62.830, 45.168 74.630, 45.109 85.790 C 45.011 104.079, 45.193 106.458, 46.955 109.911 C 48.570 113.077, 48.733 114.385, 47.891 117.433 C 47.163 120.071, 46.392 121.030, 45.186 120.801 C 43.867 120.549, 43.373 118.959, 42.914 113.490 C 42.570 109.387, 41.269 104.022, 39.763 100.500 C 30.096 77.891, 30.183 60.140, 39.988 54.348 C 42.727 52.730, 43 52.095, 43 47.331 C 43 42.131, 42.973 42.087, 39.250 41.053 C 33.853 39.554, 29.992 39.757, 26 41.752 M 78.753 54.254 C 74.280 61.081, 73.588 66.304, 73.425 94.500 L 73.268 121.500 69.668 131.500 C 63.734 147.989, 61.399 163.141, 64.035 168.066 C 67.999 175.472, 78.544 160.493, 86.739 135.816 C 88.805 129.592, 90.607 124.315, 90.742 124.089 C 91.330 123.106, 102.159 126.327, 108.056 129.239 C 111.600 130.989, 114.888 132.606, 115.362 132.831 C 116.479 133.362, 115.086 120.804, 113.887 119.538 C 113.387 119.010, 111.182 118.707, 108.988 118.865 C 105.724 119.101, 104.484 118.637, 102.160 116.314 C 98.402 112.556, 95.078 103.407, 94.676 95.713 C 94.497 92.296, 93.314 86.191, 92.047 82.147 C 89.064 72.627, 89.537 64.172, 93.424 57.540 L 96.084 53 90.292 52.986 C 87.106 52.979, 83.561 52.721, 82.413 52.412 C 80.930 52.014, 79.872 52.546, 78.753 54.254 M 119 54 C 119 54.559, 121.536 54.969, 124.750 54.930 C 128.887 54.879, 129.939 54.618, 128.500 54 C 125.696 52.795, 119 52.795, 119 54 M 96.341 58.060 C 93.102 62.955, 92.183 70.773, 93.930 78.578 L 95.127 83.925 98.167 80.463 C 101.729 76.406, 104.709 76.048, 110.470 78.985 C 112.612 80.077, 114.466 80.864, 114.591 80.735 C 114.715 80.606, 114.971 75.408, 115.159 69.184 L 115.500 57.869 112 58.514 C 105.791 59.658, 100.666 63.150, 98.500 67.714 C 97.400 70.031, 95.938 71.944, 95.250 71.964 C 93.436 72.016, 93.706 70.295, 96.212 65.837 C 98.797 61.238, 102.922 58.450, 110.815 55.969 L 116.500 54.182 107.764 54.091 L 99.028 54 96.341 58.060 M 39.130 58.562 C 34.028 65.047, 33.894 73.841, 38.659 89.289 L 41.500 98.500 42.133 92 C 43.145 81.614, 43.102 56, 42.073 56 C 41.562 56, 40.238 57.153, 39.130 58.562 M 101.400 80.765 C 99.758 81.861, 98 85.586, 98 87.968 C 98 89.122, 99.085 92.189, 100.410 94.783 C 103.600 101.025, 112.793 114, 114.026 114 C 114.613 114, 115 108.289, 115 99.636 L 115 85.272 111.196 82.636 C 107.465 80.050, 103.581 79.309, 101.400 80.765 M 117.100 96.191 C 117.155 100.761, 117.499 105.571, 117.866 106.879 C 118.464 109.011, 118.868 108.610, 121.756 103.009 L 124.979 96.761 121.916 92.894 C 120.232 90.768, 118.437 88.770, 117.927 88.455 C 117.383 88.119, 117.041 91.317, 117.100 96.191 M 97.519 98.502 C 99.276 106.228, 100.120 108.735, 101.994 111.785 C 104.018 115.077, 107.490 117.121, 109.659 116.297 C 110.355 116.032, 108.209 111.990, 104.286 106.178 C 96.387 94.476, 96.679 94.807, 97.519 98.502 M 121.250 109.138 C 116.662 116.327, 116.956 118.798, 123.349 126.810 C 129.343 134.323, 131.942 138.892, 131.279 140.750 C 130.756 142.218, 127.130 142.380, 123.732 141.088 C 121.439 140.216, 121.333 140.359, 121.333 144.338 C 121.332 152.499, 114.164 162.241, 100.957 172.032 C 97.131 174.868, 94 177.352, 94 177.550 C 94 177.749, 97.066 176.606, 100.814 175.011 L 107.628 172.111 129.078 172.705 C 151.102 173.315, 163.910 172.317, 170.750 169.460 C 180.800 165.261, 167.885 156.901, 132.084 144.429 C 131.306 144.158, 138.731 139.952, 148.584 135.084 C 165.828 126.563, 172.755 122.031, 171.539 120.063 C 170.912 119.048, 166.032 118.009, 150 115.475 C 137.835 113.552, 130.944 110.911, 127.541 106.867 C 126.215 105.290, 124.988 104.010, 124.815 104.022 C 124.642 104.034, 123.037 106.336, 121.250 109.138 M 118.105 128 C 118.276 134.332, 119.345 136.358, 123.311 137.867 C 125.365 138.649, 127.327 139.007, 127.671 138.662 C 128.294 138.039, 125.191 133.224, 120.479 127.500 L 118.010 124.500 118.105 128" stroke="none" fill="black" fill-rule="evenodd"/>
</svg>