<svg xmlns="http://www.w3.org/2000/svg" width="200" height="200" viewBox="0 0 200 200" version="1.1">
	<path d="M 94.721 16.096 C 91.956 17.706, 88.606 23.671, 84.949 33.500 C 83.107 38.450, 81.562 42.591, 81.515 42.702 C 81.468 42.813, 78.567 41.867, 75.069 40.601 C 68.403 38.187, 68.263 37.668, 74 36.628 C 81.271 35.311, 86.966 29.680, 85.332 25.424 C 84.579 23.460, 82.079 23.856, 68.546 28.087 C 62.572 29.954, 57.820 32.089, 56.337 33.572 C 53.969 35.940, 53.513 36, 37.955 36 C 24.627 36, 22 36.241, 22 37.461 C 22 39.151, 26.453 40.603, 43.886 44.597 C 50.570 46.128, 55.918 47.669, 55.770 48.022 C 55.621 48.374, 50.820 52.451, 45.099 57.081 C 33.292 66.639, 27.417 73.102, 25.519 78.622 C 23.811 83.591, 24.691 85.738, 31.529 93.295 C 39.677 102.299, 40.467 107.016, 36.110 120.655 C 31.731 134.363, 30.912 157.224, 34.451 166.986 C 40.140 182.677, 55.986 185.064, 86.808 174.874 L 96.116 171.797 109.808 174.411 C 136.845 179.575, 146.316 179.884, 154.249 175.861 C 163.943 170.946, 166.286 159.479, 162.496 135.500 C 161.878 131.589, 161.984 131.407, 167.295 127.298 C 173.517 122.485, 176.407 117.468, 175.360 113.299 C 174.966 111.728, 171.658 107.692, 167.746 104.010 C 155.259 92.258, 155.019 87.866, 166.235 76.338 C 171.016 71.425, 171.205 71.026, 170.165 68.044 C 168.307 62.713, 165.198 59.277, 159.797 56.586 C 153.717 53.556, 146.172 53.233, 126.500 55.158 C 119.900 55.804, 112.762 56.003, 110.638 55.600 C 105.128 54.555, 102 51.082, 102 46.011 L 102 41.931 106.750 42.506 C 120.487 44.168, 133.589 44.636, 145.362 43.886 C 172.711 42.143, 183.204 37.113, 175.518 29.427 C 173.103 27.013, 157.661 18.970, 155.553 19.030 C 154.974 19.046, 152.925 21.824, 151 25.202 C 149.075 28.581, 145.392 33.517, 142.815 36.172 C 138.328 40.796, 137.896 41, 132.600 41 C 126.058 41, 123.201 38.916, 114.137 27.529 C 106.319 17.708, 103.146 14.994, 99.527 15.030 C 97.862 15.047, 95.699 15.527, 94.721 16.096 M 96.200 18.572 C 93.516 20.453, 89.104 28.995, 86.095 38.140 L 83.910 44.779 86.455 48.529 C 87.905 50.666, 89 53.694, 89 55.567 C 89 58.755, 89.244 58.949, 97.069 61.966 C 110.653 67.205, 122.905 68.438, 132.544 65.537 C 135.219 64.732, 137.512 64.178, 137.640 64.306 C 138.064 64.731, 129.098 79.088, 125.837 83.206 C 116.579 94.896, 110.083 92.077, 109.918 76.300 C 109.839 68.673, 109.805 68.572, 108.416 71.750 C 106.737 75.589, 104.552 76.125, 105.239 72.530 C 105.499 71.172, 105.337 70.292, 104.880 70.574 C 103.695 71.307, 95 82.711, 95 83.534 C 95 83.911, 97.239 86.670, 99.976 89.664 C 108.855 99.379, 108.938 107.089, 100.251 115.112 L 95.500 119.500 112.500 119.500 C 124.514 119.500, 130.160 119.877, 131.750 120.785 C 134.276 122.228, 134.647 124.218, 132.693 125.840 C 130.800 127.411, 120.871 129.837, 110.500 131.263 L 101.500 132.500 110.212 133.096 C 119.151 133.708, 122 134.901, 122 138.034 C 122 142.204, 107.563 150.219, 80.933 160.832 C 64.571 167.353, 62.256 167.775, 58.602 164.902 C 55.851 162.738, 55.775 162.435, 56.257 155.582 C 56.689 149.451, 58.883 142.243, 63.626 131.378 C 63.944 130.649, 63.218 130.427, 61.558 130.744 C 58.344 131.359, 57.946 128.509, 61.130 127.676 C 62.711 127.263, 63.074 126.653, 62.537 125.310 C 60.435 120.044, 60.905 112.047, 64.320 95 C 69.369 69.796, 69.637 66.319, 67.062 59.436 C 65.895 56.317, 65.209 52.917, 65.537 51.882 C 66.271 49.571, 69.705 49.432, 74.686 51.513 C 78.841 53.249, 78.773 53.279, 79.941 49.207 C 80.764 46.337, 80.588 46.032, 77.160 44.405 C 68.142 40.123, 61.927 39.013, 47.500 39.105 L 33.500 39.194 44 41.670 C 49.775 43.032, 56.422 44.676, 58.770 45.323 L 63.041 46.500 54.270 53.150 C 35.191 67.616, 26.036 78.023, 27.447 83.644 C 27.807 85.080, 30.587 88.861, 33.624 92.045 C 42.240 101.077, 43.279 106.600, 38.978 120.500 C 35.192 132.738, 33.805 153.061, 36.078 163 C 38.463 173.430, 45.352 178.356, 57.446 178.278 C 64.967 178.229, 77.949 175.397, 89.219 171.345 L 95.938 168.929 111.719 171.987 C 139.734 177.414, 150.101 177.099, 156.574 170.626 C 162.292 164.908, 163.071 154.529, 159.366 133.435 C 158.876 130.649, 159.333 129.989, 164.399 126.164 C 169.846 122.051, 173 117.756, 173 114.450 C 173 113.544, 169.241 109.134, 164.647 104.651 C 158.051 98.214, 156.149 95.711, 155.602 92.748 C 154.682 87.767, 157.435 81.587, 163.429 75.179 C 165.943 72.492, 168 69.881, 168 69.378 C 168 67.370, 162.764 60.929, 159.946 59.472 C 153.735 56.260, 146.885 55.808, 130.833 57.551 C 122.481 58.457, 113.880 58.917, 111.719 58.571 C 102.771 57.140, 99 52.643, 99 43.403 L 99 38.742 103.750 39.345 C 106.362 39.676, 111.650 40.254, 115.500 40.628 L 122.500 41.308 118.482 36.904 C 116.272 34.482, 112.305 29.684, 109.668 26.242 C 107.030 22.801, 103.573 19.313, 101.985 18.492 C 98.473 16.676, 98.916 16.670, 96.200 18.572 M 152.665 27.834 C 150.731 30.950, 147.530 35.256, 145.550 37.402 L 141.951 41.305 151.226 40.659 C 167.945 39.494, 176.914 36.258, 174.412 32.292 C 173.312 30.547, 163.431 24.716, 158.841 23.102 C 156.348 22.226, 155.960 22.523, 152.665 27.834 M 74 29.130 C 63.826 32.171, 59 34.086, 59 35.083 C 59 36.318, 62.162 36.185, 70.319 34.607 C 76.846 33.344, 81.924 30.727, 82.770 28.189 C 83.289 26.633, 81.830 26.790, 74 29.130 M 82.244 51.729 C 81.290 54.466, 81.423 54.872, 83.593 55.860 C 85.754 56.845, 86 56.723, 86 54.670 C 86 53.412, 85.393 51.552, 84.651 50.538 C 83.388 48.810, 83.235 48.886, 82.244 51.729 M 68 52.807 C 68 53.325, 68.675 55.662, 69.500 58 C 71.868 64.712, 71.310 74.644, 67.500 93.569 C 64.317 109.383, 62.922 123.412, 64.710 121.623 C 66.133 120.200, 71.940 85.511, 71.328 82.090 C 70.895 79.671, 71.151 78.363, 72.208 77.590 C 73.318 76.778, 78 59.727, 78 56.498 C 78 55.920, 73.145 53.452, 70.250 52.559 C 69.013 52.178, 68 52.289, 68 52.807 M 80.691 58.750 C 79.735 60.429, 77.815 70.148, 78.336 70.669 C 79.010 71.343, 85 62.122, 85 60.411 C 85 59.753, 84.288 58.941, 83.418 58.607 C 81.401 57.833, 81.207 57.843, 80.691 58.750 M 86.053 64.880 C 85.033 66.871, 82.800 70.255, 81.090 72.399 L 77.981 76.298 83.741 78.750 C 86.908 80.099, 90.227 81.269, 91.116 81.351 C 92.036 81.436, 95.070 78.484, 98.158 74.500 L 103.585 67.500 95.746 64.380 L 87.908 61.260 86.053 64.880 M 121.972 69.739 L 114.443 70.076 114.472 78.704 C 114.490 84.178, 114.911 87.469, 115.624 87.707 C 117.395 88.299, 122.758 83.252, 126.880 77.116 C 132.167 69.244, 132.302 68.972, 130.809 69.201 C 130.089 69.312, 126.112 69.554, 121.972 69.739 M 75.539 81.193 C 75.249 82.462, 73.643 91.150, 71.970 100.500 C 70.297 109.850, 68.718 118.625, 68.461 120 C 68.033 122.290, 68.129 122.248, 69.606 119.500 C 73.155 112.894, 80.698 100.090, 85.218 93 C 87.848 88.875, 90 85.218, 90 84.873 C 90 84.245, 82.447 80.819, 78.283 79.558 C 76.511 79.021, 75.961 79.349, 75.539 81.193 M 87.895 93.750 C 82.031 102.991, 71 122.218, 71 123.199 C 71 124.224, 70.664 124.254, 78.945 122.512 C 95.619 119.004, 105.656 109.815, 103.506 100.026 C 102.877 97.165, 94.677 87, 92.997 87 C 92.547 87, 90.252 90.037, 87.895 93.750 M 92.206 123.021 C 89.295 123.445, 83.027 125.056, 78.278 126.601 C 69.720 129.385, 69.669 129.421, 72.571 130.660 C 77.080 132.584, 86.074 132.238, 104.055 129.450 C 136.701 124.389, 139.133 122.178, 112 122.224 C 104.025 122.238, 95.118 122.597, 92.206 123.021 M 66.627 131.707 C 66.282 132.051, 66 133.274, 66 134.424 C 66 136.301, 66.485 136.478, 70.750 136.160 C 75.638 135.796, 79.296 134, 75.150 134 C 73.913 134, 71.630 133.343, 70.077 132.540 C 68.524 131.737, 66.972 131.362, 66.627 131.707 M 80.554 137.715 C 72.884 138.531, 65.641 139.566, 64.459 140.015 C 62.901 140.608, 61.821 142.572, 60.527 147.166 C 57.035 159.565, 58.408 164.672, 64.952 163.621 C 72.932 162.339, 113.277 144.268, 117.904 139.903 C 120.189 137.748, 120.214 137.597, 118.404 136.888 C 115.330 135.682, 95.611 136.113, 80.554 137.715" stroke="none" fill="black" fill-rule="evenodd"/>
</svg>