<svg xmlns="http://www.w3.org/2000/svg" width="200" height="200" viewBox="0 0 200 200" version="1.1">
	<path d="M 148.336 14.250 C 145.279 17.668, 142.492 22.681, 138.458 32.020 C 133.848 42.693, 123.799 70.132, 124.312 70.646 C 124.524 70.857, 128.028 68.857, 132.098 66.201 C 143.020 59.075, 149.021 55.688, 149.635 56.301 C 149.934 56.601, 149.126 61.943, 147.840 68.173 L 145.500 79.500 141.211 79.160 C 136.118 78.757, 134 80.201, 134 84.077 L 134 86.909 125.695 82.113 C 121.128 79.475, 110.920 73.786, 103.011 69.471 L 88.631 61.625 97.660 58.562 C 108.157 55.002, 112 52.715, 112 50.028 C 112 47.428, 106.726 43.578, 99.473 40.884 C 96.188 39.664, 93.083 38.301, 92.572 37.855 C 91.213 36.667, 99.071 33.480, 115.561 28.532 C 131.562 23.730, 133.749 22.608, 131.768 20.220 C 130.693 18.926, 127.972 18.802, 113.006 19.366 C 103.378 19.729, 86.500 20.689, 75.500 21.499 C 64.500 22.309, 54.938 22.978, 54.250 22.986 C 53.563 22.994, 53 23.675, 53 24.500 C 53 25.325, 53.640 26, 54.423 26 C 56.880 26, 61.688 30.805, 63.864 35.433 C 65.408 38.719, 68.393 51.143, 67.599 50.980 C 67.544 50.969, 63.450 49.414, 58.500 47.526 L 49.500 44.092 49.741 40.296 C 49.874 38.208, 50.497 35.248, 51.126 33.718 C 51.755 32.188, 52.048 30.714, 51.777 30.444 C 51.507 30.173, 47.959 29.256, 43.893 28.405 C 28.883 25.265, 19.964 29.437, 15.900 41.500 C 14.523 45.587, 14.468 48.063, 14.709 95 C 14.775 107.925, 14.797 123.450, 14.758 129.500 C 14.649 146.436, 17.692 154, 24.612 154 C 29.158 154, 33.758 151.557, 43.500 143.969 C 51.991 137.355, 60.010 133.026, 63.800 133.010 C 65.064 133.004, 67.417 133.681, 69.028 134.514 C 71.949 136.025, 71.955 136.022, 71.527 133.264 C 70.197 124.695, 70.063 117.758, 70.661 88.432 L 71.320 56.129 76.342 58.673 C 80.823 60.944, 81.155 61.328, 79.431 62.245 C 73.334 65.490, 71.415 70.292, 74.470 74.654 C 75.279 75.809, 78.202 78.205, 80.966 79.979 C 84.043 81.952, 85.720 83.649, 85.289 84.352 C 84.903 84.983, 83.554 87.025, 82.293 88.890 C 75.788 98.505, 82.811 100.730, 109.500 97.510 C 116.100 96.714, 123.975 96.049, 127 96.033 C 133.628 95.997, 139.500 98.565, 139.500 101.500 C 139.500 103.344, 138.782 103.512, 130.302 103.655 C 121.757 103.800, 116.207 104.862, 111.632 107.230 C 110.605 107.761, 104.453 108.265, 97.962 108.348 C 86.858 108.491, 86.002 108.648, 83.485 111 C 82.014 112.375, 80.167 114.736, 79.381 116.247 C 76.902 121.012, 75.945 133.137, 77.048 145.817 C 77.606 152.243, 78.346 161.755, 78.691 166.955 C 79.235 175.157, 79.639 176.730, 81.738 178.829 C 83.984 181.074, 84.707 181.212, 91.828 180.748 C 96.048 180.473, 107.330 178.361, 116.900 176.054 C 144.306 169.446, 154.060 169.349, 160.994 175.613 C 165.619 179.792, 167.656 178.338, 163.400 173.895 C 160.350 170.712, 152.824 168, 147.042 168 C 143.448 168, 143.447 167.999, 143.831 163.979 C 144.287 159.193, 141.197 152.320, 134.848 144 L 130.650 138.500 135.075 125.657 C 137.509 118.593, 139.950 112.518, 140.500 112.157 C 141.050 111.796, 143.750 111.050, 146.500 110.500 C 153.141 109.172, 153.259 106.840, 146.750 105.582 C 141.679 104.603, 141.506 104.281, 143.338 99.231 L 144.523 95.961 149.956 99.231 C 163.062 107.118, 170.010 126.045, 168.656 150.165 C 168.326 156.031, 167.931 161.375, 167.778 162.040 C 167.625 162.706, 168.037 163.448, 168.693 163.689 C 171.861 164.856, 172.587 136.124, 169.671 125 C 166.104 111.397, 158.668 100.422, 150.033 96.017 C 147.890 94.923, 145.897 93.642, 145.605 93.170 C 144.688 91.686, 147.059 84.809, 148.321 85.293 C 148.972 85.543, 155.096 89.404, 161.930 93.873 C 174.419 102.041, 177.569 103.287, 178.645 100.482 C 179.573 98.063, 177.182 93.404, 167.760 79.275 L 158.941 66.051 161.470 61.059 C 165.823 52.469, 164.304 48.158, 157.381 49.456 C 153.799 50.128, 153.750 50.094, 154.359 47.320 C 154.699 45.769, 155.276 38.337, 155.640 30.805 C 156.214 18.946, 156.078 16.768, 154.628 14.555 C 152.566 11.409, 150.948 11.330, 148.336 14.250 M 149.821 16.774 C 147.272 19.817, 145.376 23.305, 141.545 32 C 138.185 39.626, 129 63.442, 129 64.527 C 129 64.765, 132.037 63.003, 135.750 60.611 C 139.463 58.220, 144.359 55.322, 146.631 54.172 C 151.609 51.652, 151.739 51.150, 152.634 30.896 C 153.293 16, 152.751 13.276, 149.821 16.774 M 86 23.556 C 76.375 24.262, 66.566 24.876, 64.203 24.920 L 59.906 25 63.018 28.873 C 66.121 32.735, 70 43.086, 70 47.507 C 70 51.737, 71.185 53.068, 78.013 56.507 L 84.773 59.911 94.136 56.850 C 104.527 53.454, 109 51.406, 109 50.042 C 109 48.596, 103.993 45.533, 97.500 43.007 C 90.535 40.298, 89 39.278, 89 37.363 C 89 35.009, 94.930 32.132, 108.500 27.903 C 115.650 25.675, 122.625 23.471, 124 23.005 C 127.736 21.739, 106.570 22.046, 86 23.556 M 27.020 31.752 C 22.644 33.950, 19.425 38.709, 18.202 44.787 C 17.667 47.442, 17.336 69.819, 17.443 96.038 C 17.622 139.819, 17.747 142.807, 19.566 146.469 C 23.401 154.189, 25.654 153.748, 41.339 142.208 C 52.955 133.661, 60.886 129.610, 64.861 130.193 L 67.588 130.593 67.914 101.547 C 68.093 85.571, 68.277 71.150, 68.322 69.500 C 68.367 67.850, 68.313 63.735, 68.202 60.356 L 68 54.213 61.250 51.487 C 57.538 49.988, 53.310 48.410, 51.856 47.981 L 49.212 47.200 48.734 77.350 C 48.251 107.752, 47.609 113.467, 44.246 117.250 C 42.089 119.676, 39.765 119.438, 36.556 116.465 L 33.820 113.929 36.411 111.891 C 45.048 105.098, 47.288 90.533, 42.469 72.500 C 36.351 49.603, 36.436 50.095, 38.074 47.171 C 39.115 45.312, 40.623 44.348, 43.035 44 C 46.404 43.514, 46.519 43.348, 47.171 38.004 C 47.540 34.981, 47.688 32.354, 47.500 32.167 C 47.312 31.979, 45.435 31.425, 43.329 30.936 C 37.272 29.531, 30.796 29.854, 27.020 31.752 M 40.938 47.575 C 39.469 49.345, 40.445 55.544, 43.916 66.500 L 45.818 72.500 45.909 59.250 C 45.994 46.922, 45.869 46, 44.122 46 C 43.090 46, 41.657 46.709, 40.938 47.575 M 155.479 52.947 C 153.820 53.619, 153.046 55.895, 151.165 65.633 C 149.904 72.160, 148.654 78.403, 148.389 79.506 C 147.989 81.164, 150.260 83.039, 161.524 90.351 C 169.014 95.213, 175.369 98.965, 175.645 98.688 C 176.458 97.876, 173.286 92.245, 165.267 80.269 C 161.132 74.092, 157.355 69.281, 156.874 69.578 C 154.192 71.235, 154.484 68.189, 157.538 62.632 C 162.622 53.383, 161.970 50.314, 155.479 52.947 M 80.500 64.842 C 78.850 65.850, 76.884 67.422, 76.132 68.333 C 74.120 70.769, 76.612 74.021, 83.971 78.563 C 87.287 80.610, 90 82.441, 90 82.633 C 90 82.826, 88.404 85.074, 86.453 87.629 C 84.503 90.185, 83.045 93.001, 83.214 93.888 C 83.662 96.242, 94.369 96.462, 111.860 94.474 C 119.908 93.560, 128.339 93.134, 131.039 93.505 C 135.385 94.103, 135.810 93.989, 135.377 92.334 C 135.113 91.325, 131.432 88.509, 127.198 86.075 C 111.791 77.219, 85.476 63, 84.500 63.004 C 83.950 63.006, 82.150 63.833, 80.500 64.842 M 137 85.140 C 137 88.164, 139.172 90.899, 141.628 90.968 C 142.249 90.986, 143.207 89.227, 143.757 87.060 C 144.849 82.759, 144.198 82, 139.418 82 C 137.374 82, 137 82.486, 137 85.140 M 139 93.950 C 139 94.437, 139.288 95.586, 139.639 96.502 C 140.149 97.831, 140.449 97.898, 141.124 96.834 C 142.329 94.933, 142.204 94.292, 140.500 93.638 C 139.675 93.322, 139 93.462, 139 93.950 M 41.304 110.504 C 38.148 114.719, 38.011 116, 40.718 116 C 42.220 116, 45.300 109.609, 44.804 107.519 C 44.637 106.813, 43.062 108.156, 41.304 110.504 M 120.112 107.022 C 117.698 107.529, 115.523 108.144, 115.278 108.389 C 114.377 109.290, 126.382 110.240, 131.713 109.690 C 137.257 109.118, 138.844 108.510, 137.723 107.389 C 136.651 106.318, 124.660 106.068, 120.112 107.022 M 141 108 C 141 108.550, 141.477 109, 142.059 109 C 142.641 109, 142.840 108.550, 142.500 108 C 142.160 107.450, 141.684 107, 141.441 107 C 141.198 107, 141 107.450, 141 108 M 88.600 111.420 C 86.455 112.216, 84.287 113.460, 83.783 114.184 C 79.582 120.212, 78.228 132.334, 79.949 148.500 C 80.593 154.550, 81.377 163.100, 81.692 167.500 C 82.007 171.900, 82.710 176.063, 83.255 176.750 C 84.997 178.949, 95.818 178.152, 109.470 174.820 L 122.500 171.639 117 170.468 C 105.975 168.120, 103.053 167.026, 103.649 165.473 C 103.960 164.663, 105.290 164, 106.604 164 C 109.849 164, 116.227 158.035, 120.496 151.006 C 122.423 147.834, 124 145.017, 124 144.747 C 124 144.477, 122.276 143.980, 120.169 143.643 C 109.895 142, 101.104 124.866, 105.337 114.735 C 106.864 111.081, 106.850 111, 104.699 110.991 C 103.490 110.987, 100.250 110.756, 97.500 110.478 C 94.398 110.165, 91.019 110.523, 88.600 111.420 M 108.940 113.573 C 108.233 114.424, 107.467 117.456, 107.238 120.311 C 106.488 129.663, 114.591 141, 122.025 141 C 123.527 141, 125.276 140.372, 125.913 139.605 C 126.839 138.490, 125.659 136.570, 120.036 130.041 C 116.166 125.549, 113 121.478, 113 120.996 C 113 118.562, 115.583 119.450, 122.802 124.365 L 130.736 129.767 133.783 121.003 L 136.831 112.238 123.528 112.131 C 112.646 112.044, 109.991 112.306, 108.940 113.573 M 123.500 130.225 C 127.770 135.121, 129 135.865, 129 133.551 C 129 132.754, 127.537 131.020, 125.750 129.698 C 119.965 125.421, 119.422 125.548, 123.500 130.225 M 124.465 149.512 C 121.831 154.205, 117.747 159.822, 115.390 161.995 C 110.867 166.164, 110.865 166.332, 115.317 167.398 C 127.060 170.208, 138.236 169.766, 140.702 166.393 C 142.903 163.383, 139.810 155.128, 133.122 146.163 L 129.254 140.979 124.465 149.512" stroke="none" fill="black" fill-rule="evenodd"/>
</svg>