<svg xmlns="http://www.w3.org/2000/svg" width="200" height="200" viewBox="0 0 200 200" version="1.1">
	<path d="M 113.181 19.004 C 106.755 21.920, 98.752 30.864, 93.793 40.668 L 89.500 49.159 85.110 48.579 C 82.696 48.261, 78.535 48, 75.865 48 L 71.008 48 72.898 43.027 C 76.527 33.477, 83.014 26.688, 91.670 23.382 C 94.105 22.452, 96 21.075, 96 20.235 C 96 16.591, 67.086 21.993, 54.541 27.980 L 48.024 31.091 43.143 29.357 C 38.929 27.860, 37.517 27.790, 32.824 28.840 C 29.834 29.509, 24.664 31.345, 21.335 32.919 L 15.283 35.781 14.644 53.141 C 12.849 101.924, 12.759 128.345, 14.364 135.852 C 18.159 153.611, 25.129 156.074, 37.325 143.966 C 47.638 133.726, 54.384 130.665, 60.370 133.506 C 65.427 135.905, 69.788 143.345, 74.632 157.838 C 79.862 173.484, 81.647 174.875, 88.642 168.750 C 95.820 162.464, 104.224 140.305, 107.080 120.134 C 108.511 110.023, 107.839 95.876, 105.683 90.756 C 104.198 87.227, 104.215 86.955, 105.988 86.006 C 107.022 85.453, 108.123 85, 108.434 85 C 109.334 85, 109.046 114.330, 108.017 127.500 C 107.501 134.100, 106.124 144.225, 104.958 150 C 103.792 155.775, 102.586 164.203, 102.279 168.728 C 101.797 175.827, 101.951 177.044, 103.398 177.599 C 104.386 177.978, 105.942 177.474, 107.189 176.371 C 111.632 172.439, 124.857 141.810, 131.313 120.500 L 133.737 112.500 134.618 116.500 C 135.103 118.700, 135.494 125.450, 135.486 131.500 C 135.470 143.773, 133.822 150.557, 127.477 164.482 C 123.310 173.626, 123.179 177.790, 127 179.712 C 129.933 181.188, 147.076 181.376, 157.408 180.045 C 165.983 178.940, 168.673 177.053, 172.500 169.455 L 175.500 163.500 175.401 146 C 175.331 133.551, 174.672 124.315, 173.120 114 C 171.920 106.025, 170.660 95.124, 170.320 89.775 L 169.701 80.050 163.098 76.128 C 159.467 73.970, 155.603 71.218, 154.511 70.012 C 152.630 67.934, 152.618 67.752, 154.284 66.534 C 155.251 65.827, 157.945 64.955, 160.271 64.596 C 167.599 63.465, 174.015 60.907, 175.603 58.483 C 176.973 56.392, 176.972 55.847, 175.599 53.191 C 174.118 50.328, 165.476 42, 163.986 42 C 163.584 42, 162.502 37.889, 161.583 32.865 C 159.618 22.124, 157.769 18, 154.918 18 C 150.668 18, 146.649 32.518, 143.066 60.812 C 141.930 69.783, 140.993 78.783, 140.985 80.812 C 140.960 86.853, 140.342 87.098, 132.101 84.334 C 127.844 82.906, 122.015 81.778, 118.362 81.677 L 112.019 81.500 112.009 74.833 L 112 68.166 117.049 67.083 C 123.286 65.745, 131.993 65.703, 134 67 C 135.138 67.736, 134.716 67.973, 132.250 67.985 C 130.023 67.995, 129 68.476, 129 69.512 C 129 70.723, 129.844 70.898, 133.250 70.389 C 137.811 69.708, 140.632 67.831, 139.601 66.163 C 137.870 63.363, 124.022 62.510, 115.250 64.664 C 113.242 65.158, 113 64.843, 113 61.733 C 113 59.818, 113.281 56.844, 113.625 55.125 L 114.250 52 123.625 52 C 129.208 52, 133 51.596, 133 51 C 133 50.407, 129.333 50, 124 50 C 117.461 50, 115.003 49.658, 115.010 48.750 C 115.027 46.505, 119.669 37.563, 122.227 34.847 C 125.311 31.571, 129.335 29.478, 134.264 28.586 L 138.029 27.904 135.345 24.386 C 129.955 17.319, 121.446 15.253, 113.181 19.004 M 111.777 22.926 C 106.356 26.365, 100.002 34.073, 95.914 42.170 C 94.311 45.345, 93 48.197, 93 48.508 C 93 48.818, 97.299 48.944, 102.554 48.786 L 112.108 48.500 114.507 42.590 C 117.404 35.455, 122.867 29.598, 128.702 27.370 C 132.252 26.014, 132.805 25.470, 131.830 24.295 C 127.614 19.215, 118.600 18.600, 111.777 22.926 M 152.671 24.865 C 149.767 32.121, 146.048 55.384, 143.535 82 L 142.921 88.500 148.461 91.465 C 151.507 93.096, 153.997 95.121, 153.994 95.965 C 153.984 98.292, 148.354 119.217, 146.623 123.360 C 144.721 127.912, 141.422 128.374, 140.269 124.250 C 139.846 122.737, 139.577 114.450, 139.671 105.834 L 139.842 90.168 134.671 88.109 C 128.073 85.482, 121.639 84.055, 116.250 84.024 L 112 84 111.981 94.250 C 111.944 114.035, 110.076 138.595, 107.621 151.575 C 106.276 158.684, 104.886 166.939, 104.531 169.920 C 103.942 174.873, 104.028 175.222, 105.531 173.974 C 109.917 170.334, 124.715 134.820, 129.468 116.527 C 131.530 108.591, 131.841 105.984, 131.012 103.606 C 130.282 101.510, 130.294 100.311, 131.054 99.563 C 132.443 98.197, 135 101.468, 135 104.610 C 135 105.836, 135.755 109.687, 136.678 113.169 C 138.957 121.767, 138.911 139.323, 136.586 148 C 135.628 151.575, 132.829 159.147, 130.364 164.827 C 124.288 178.834, 123.752 178.366, 145.237 177.807 C 164.574 177.304, 165.750 176.860, 170 168.448 C 173.975 160.580, 174 144.111, 170.082 113.089 C 168.387 99.663, 167 87.063, 166.999 85.089 C 166.998 81.826, 166.546 81.246, 162.024 78.706 C 155.979 75.311, 150 69.832, 150 67.689 C 150 65.152, 153.750 63.222, 162.241 61.387 C 166.610 60.443, 171.156 58.882, 172.343 57.918 L 174.500 56.166 172.407 53.333 C 171.255 51.775, 168.070 48.700, 165.328 46.500 C 160.450 42.586, 160.316 42.333, 159.120 34.752 C 157.766 26.172, 156.221 21, 155.011 21 C 154.574 21, 153.521 22.739, 152.671 24.865 M 78.342 23.479 C 69.921 25.008, 62.499 27.325, 55.310 30.672 L 50.120 33.089 51.950 36.294 C 52.957 38.057, 54.315 41.188, 54.968 43.250 L 56.155 47 62.578 47 C 67.280 47, 69 46.641, 69 45.660 C 69 42.146, 75.508 31.737, 80.632 27.053 C 83.673 24.274, 86.012 22.041, 85.831 22.090 C 85.649 22.140, 82.279 22.765, 78.342 23.479 M 28.498 32.874 C 25.747 33.865, 22.279 35.314, 20.792 36.093 L 18.088 37.510 17.580 53.505 C 17.301 62.302, 16.593 79.347, 16.007 91.381 C 14.036 131.828, 17.859 151.320, 27.201 148.463 C 28.465 148.076, 32.650 144.729, 36.500 141.024 C 44.859 132.981, 50.255 130, 56.457 130 C 60.272 130, 61.636 130.580, 65.030 133.646 C 69.751 137.912, 74.676 147.654, 78.479 160.250 C 81.458 170.117, 83.074 171.173, 87.653 166.250 C 99.549 153.460, 108.721 110.892, 103.423 93.054 L 101.846 87.744 98.044 91.457 C 90.621 98.705, 86.608 110.168, 84.802 129.281 C 83.690 141.051, 82.476 143.525, 80.803 137.435 C 80.359 135.821, 79.735 129.325, 79.417 123 C 78.711 109.010, 80.466 97.960, 84.839 88.848 C 87.026 84.291, 87.539 82.333, 86.684 81.804 C 85.032 80.782, 85.427 63.923, 87.258 57.266 C 88.051 54.387, 88.467 51.800, 88.183 51.516 C 87.899 51.232, 83.737 51, 78.933 51 L 70.199 51 69.112 55.750 C 66.925 65.299, 65.957 73.931, 64.803 94.183 C 63.817 111.465, 63.367 114.926, 62.062 115.234 C 59.088 115.937, 56.966 114.835, 55.376 111.761 C 54.035 109.168, 53.827 105.383, 54.071 88.087 C 54.415 63.813, 54.109 50.768, 53.175 49.802 C 52.804 49.419, 49.500 48.798, 45.834 48.423 C 31.745 46.982, 30.995 48.436, 33.831 71.715 C 34.956 80.947, 36.153 93.450, 36.491 99.500 C 36.829 105.550, 37.597 111.763, 38.197 113.306 C 39.784 117.385, 37.857 118.905, 35.270 115.616 C 29.847 108.722, 24.130 82.512, 25.452 70.607 C 26.857 57.954, 29.504 50.546, 35.125 43.532 C 38.008 39.933, 41.488 36.255, 42.857 35.358 C 45.243 33.795, 45.269 33.670, 43.482 32.363 C 40.925 30.494, 34.497 30.713, 28.498 32.874 M 42.393 39.665 L 37.500 44.338 41.500 45.111 C 43.700 45.537, 47.160 45.911, 49.189 45.942 L 52.879 46 51.366 41.562 C 48.970 34.530, 47.988 34.322, 42.393 39.665 M 56.501 78.829 C 56.501 107.998, 56.998 113, 59.896 113 C 60.964 113, 61.980 104.439, 61.991 95.356 C 62.003 85.870, 63.656 69.462, 65.635 59.201 C 66.515 54.636, 67.069 50.762, 66.867 50.591 C 66.665 50.420, 64.250 50.028, 61.500 49.720 L 56.500 49.159 56.501 78.829 M 91.050 54.367 C 88.406 61.323, 86.945 79, 89.014 79 C 89.572 79, 92.603 76.903, 95.750 74.339 C 98.898 71.776, 103.391 68.830, 105.736 67.792 C 108.983 66.356, 110 65.354, 110 63.593 C 110 62.320, 110.286 59.191, 110.636 56.640 L 111.272 52 101.611 52 C 92.371 52, 91.911 52.103, 91.050 54.367 M 28.640 66.613 C 27.203 77.095, 28.401 88.965, 31.972 99.620 L 33.943 105.500 33.396 95.500 C 32.866 85.831, 30.248 62.914, 29.598 62.265 C 29.423 62.089, 28.991 64.046, 28.640 66.613 M 100.996 73.750 C 98.056 75.813, 95.502 77.958, 95.319 78.518 C 95.137 79.077, 96.903 80.576, 99.244 81.848 C 102.759 83.759, 103.979 83.978, 106.250 83.105 C 108.829 82.115, 109 81.675, 109 76.025 C 109 68.760, 108.366 68.579, 100.996 73.750 M 89.582 85.750 C 85.205 92.458, 82.815 101.567, 82.430 113 C 82.127 121.998, 82.213 122.747, 83.032 118.238 C 85.291 105.795, 89.411 96.810, 96.295 89.312 L 100.140 85.124 97.120 83.562 C 92.880 81.370, 92.337 81.527, 89.582 85.750 M 142.636 96.640 C 141.801 102.733, 141.946 120.006, 142.851 122.301 C 143.439 123.791, 143.765 123.533, 144.744 120.801 C 146.284 116.501, 150.994 98.837, 150.997 97.349 C 150.999 96.435, 144.848 92, 143.579 92 C 143.410 92, 142.986 94.088, 142.636 96.640" stroke="none" fill="black" fill-rule="evenodd"/>
</svg>