<svg xmlns="http://www.w3.org/2000/svg" width="200" height="200" viewBox="0 0 200 200" version="1.1">
	<path d="M 94.404 10.020 C 84.126 11.104, 76.166 13.680, 72.852 16.994 C 69.505 20.341, 69.368 21.522, 71.885 25.339 C 74.133 28.749, 83.107 35.332, 84.045 34.260 C 84.411 33.842, 85.486 31.025, 86.434 28 C 87.382 24.975, 88.866 21.398, 89.733 20.050 L 91.308 17.600 92.109 19.766 C 92.550 20.957, 93.218 25.322, 93.593 29.466 L 94.276 37 88.855 37 C 85.873 37, 75.574 35.357, 65.967 33.348 C 51.435 30.310, 46.400 29.688, 36 29.647 C 25.425 29.604, 22.653 29.933, 18 31.778 L 12.500 33.959 12.503 84.730 C 12.505 139.179, 12.756 142.287, 17.565 147.475 C 18.852 148.864, 20.758 150, 21.802 150 C 23.684 150, 31.193 145.114, 32.459 143.066 C 33.335 141.650, 48.433 141.688, 55.201 143.124 C 66.858 145.598, 73.765 151.248, 76.584 160.614 C 78.187 165.941, 78.404 176.550, 77.031 182.472 C 76.525 184.656, 76.314 186.648, 76.563 186.897 C 77.516 187.849, 94.174 175.602, 98.631 170.672 C 101.202 167.827, 104.416 163.092, 105.773 160.148 C 108.390 154.470, 108.405 153.764, 106.385 131.729 L 105.764 124.958 109.377 121.551 C 112.455 118.648, 122.841 113.580, 123.819 114.504 C 123.994 114.669, 123.603 118.463, 122.949 122.934 C 121.179 135.038, 122.146 154.071, 124.892 161.172 C 127.982 169.163, 133.479 174, 139.470 174 C 143.231 174, 144.480 173.454, 147.407 170.526 C 150.533 167.401, 151.684 164.793, 154.616 154.199 C 154.888 153.218, 156.441 153.064, 160.929 153.571 C 169.825 154.578, 175.416 153.430, 178.982 149.865 C 181.639 147.208, 182 146.159, 182 141.105 C 182 134.075, 180.528 128.995, 172.872 109.607 C 165.465 90.850, 163 81.616, 163 72.627 C 163 63.639, 165.607 57.911, 171.371 54.235 C 182.348 47.234, 188.006 40.616, 187.996 34.790 C 187.987 28.908, 180.521 22.246, 169.049 17.883 C 151.902 11.361, 116.772 7.661, 94.404 10.020 M 92.388 12.980 C 83.184 14.288, 78.316 15.824, 75.388 18.343 C 71.943 21.306, 72.770 24.097, 78.276 28.085 L 82.382 31.059 84.620 24.879 C 85.851 21.479, 87.752 17.803, 88.846 16.710 C 92.907 12.648, 95.141 16.576, 96.479 30.130 L 97.133 36.760 100.817 37.369 C 102.843 37.704, 108.790 37.983, 114.034 37.989 L 123.568 38 129.034 32.379 C 139.188 21.937, 146.698 18.698, 150.935 22.935 C 153.051 25.051, 154.986 30.921, 154.994 35.250 C 154.999 37.539, 155.433 38, 157.583 38 C 159.004 38, 159.993 38.337, 159.781 38.750 C 155.904 46.282, 155.752 47.324, 156.399 62 C 156.750 69.975, 157.536 83.025, 158.146 91 C 159.154 104.194, 159.072 106.490, 157.226 116.500 C 154.253 132.625, 152.598 135.855, 149.896 130.806 C 148.288 127.801, 149.406 77.547, 151.438 61.500 C 152.274 54.900, 152.968 47.587, 152.979 45.250 L 153 41 139.310 41 C 131.781 41, 123.061 41.529, 119.932 42.175 L 114.244 43.350 117.762 46.925 C 123.709 52.968, 127.338 62.046, 127.818 72.081 C 128.651 89.506, 121.452 101.500, 111.967 98.490 C 108.690 97.449, 110.258 95.486, 114.102 95.817 C 116.665 96.038, 118.105 95.517, 119.738 93.779 C 122.384 90.963, 125.001 83.916, 124.996 79.624 L 124.993 76.500 122.899 80 C 118.081 88.052, 108.557 95.899, 100.977 98.060 C 95.981 99.485, 93.614 101, 96.383 101 C 97.388 101, 97.966 101.546, 97.708 102.250 C 97.456 102.938, 96.631 103.330, 95.875 103.123 C 92.424 102.177, 80.210 101.851, 79.691 102.690 C 79.373 103.205, 80.152 106.523, 81.422 110.063 C 84.793 119.457, 85.356 123.460, 83.519 124.984 C 81.533 126.632, 79.606 125.090, 76.752 119.567 C 74.830 115.848, 74.203 109.642, 74.945 101.685 C 75.038 100.686, 73.525 98.110, 71.583 95.960 C 69.640 93.810, 67.784 90.802, 67.457 89.275 C 67.130 87.749, 65.767 82.900, 64.427 78.500 C 61.274 68.144, 61.292 62.885, 64.499 57.412 C 68.047 51.357, 75.552 47.811, 86.111 47.200 C 93.506 46.772, 94 46.601, 94 44.479 C 94 41.845, 92.310 41, 87.046 41 C 83.148 41, 70.113 44.856, 64.902 47.551 C 62.271 48.911, 61.490 48.906, 57.350 47.501 C 53.735 46.273, 52.020 46.168, 49.446 47.018 C 43.424 49.005, 43.548 48.188, 43.873 83.858 C 44.036 101.811, 43.858 117.737, 43.477 119.250 C 42.489 123.166, 39.433 122.880, 38.130 118.750 C 33.135 102.913, 32.998 72.058, 37.859 57.900 C 39.134 54.187, 39.569 50.779, 39.252 46.989 C 38.887 42.612, 39.180 41, 40.677 39.151 C 42.959 36.332, 50.352 34.702, 57.500 35.441 C 66.360 36.357, 57.802 34.246, 47.296 32.923 C 36.851 31.608, 25.604 32.117, 19.669 34.173 L 15.838 35.500 15.362 82.029 C 15.068 110.721, 15.269 130.942, 15.887 134.776 C 17.965 147.681, 21.101 149.713, 28.466 142.925 L 33.025 138.722 44.263 139.248 C 62.379 140.095, 72.415 145.035, 77.641 155.677 C 80.216 160.922, 80.500 162.507, 80.500 171.655 C 80.500 178.145, 80.861 181.599, 81.500 181.228 C 84.994 179.198, 94.181 171.542, 97.404 167.974 C 104.823 159.763, 106.802 152.151, 104.548 140.500 C 102.517 130.002, 102.600 126.168, 104.941 122.329 C 107.251 118.541, 113.969 114.416, 121.798 111.979 C 124.934 111.003, 127.606 110.302, 127.736 110.422 C 127.866 110.542, 127.258 114.208, 126.385 118.570 C 123.910 130.929, 124.074 148.917, 126.741 157.517 C 130.173 168.587, 136.634 173.792, 142.912 170.545 C 146.863 168.502, 149.960 163.141, 151.319 155.994 L 152.454 150.020 162.013 150.646 C 169.758 151.154, 172.166 150.965, 174.703 149.654 C 181.285 146.250, 181.088 138.898, 173.915 120.259 C 163.694 93.701, 160.746 83.949, 160.236 75.008 C 159.487 61.864, 161.766 57.907, 175.989 47.652 C 195.019 33.931, 183.351 21.593, 145 14.883 C 132.071 12.621, 102.446 11.550, 92.388 12.980 M 137.349 28.406 C 134.132 30.830, 130.409 33.980, 129.076 35.406 L 126.651 38 139.676 38 L 152.701 38 151.921 33.067 C 150.241 22.434, 146.756 21.319, 137.349 28.406 M 45 39.288 C 43.003 40.293, 42.437 41.426, 42.186 44.917 L 41.871 49.286 45.012 46.643 C 48.418 43.777, 55.276 43.007, 59.111 45.060 C 60.668 45.893, 62.710 45.465, 68.669 43.060 C 72.836 41.377, 76.978 39.927, 77.873 39.838 C 80.333 39.594, 61.420 38.238, 54 38.127 C 50.425 38.073, 46.375 38.596, 45 39.288 M 97 45.102 C 97 47.197, 97.580 47.866, 99.776 48.305 C 106.184 49.587, 114.094 53.330, 118.397 57.118 C 120.929 59.347, 122.996 60.794, 122.991 60.335 C 122.965 58.023, 116.702 49.009, 113.334 46.437 C 110.347 44.156, 108.119 43.392, 103.250 42.982 C 97.024 42.457, 97 42.465, 97 45.102 M 78.617 53.257 C 74.741 58.339, 71.235 66.702, 69.938 73.957 L 68.753 80.587 72.627 88.722 C 75.125 93.970, 77.210 97.055, 78.500 97.415 C 82.778 98.608, 91.825 97.910, 98.771 95.851 C 104.876 94.042, 107.106 92.722, 112.671 87.622 C 122.078 79.002, 124.960 71.692, 121.551 65.099 C 118.475 59.151, 109.114 53.050, 100.616 51.456 L 97.152 50.806 96.614 55.153 C 96.318 57.544, 95.802 63.224, 95.467 67.776 C 94.644 78.960, 92.984 84.500, 90.456 84.500 C 87.950 84.500, 86.259 78.060, 85.467 65.505 C 84.403 48.636, 83.446 46.926, 78.617 53.257 M 87.430 54.750 C 87.705 57.362, 88.175 63.100, 88.476 67.500 C 88.776 71.900, 89.397 76.850, 89.855 78.500 L 90.688 81.500 91.357 78.500 C 92.095 75.194, 93.933 57.101, 93.974 52.750 C 93.998 50.264, 93.661 50, 90.466 50 L 86.931 50 87.430 54.750 M 71.299 53.960 C 66.972 56.598, 64.986 60.820, 65.070 67.200 C 65.184 75.764, 66.406 77.234, 67.891 70.596 C 68.590 67.474, 70.624 62.013, 72.413 58.460 C 74.201 54.907, 75.402 52.002, 75.082 52.004 C 74.762 52.006, 73.059 52.886, 71.299 53.960 M 39.042 63.712 C 36.301 74.519, 36.867 105.333, 39.998 115.742 C 40.751 118.244, 40.851 118.083, 41.070 114 C 41.393 107.985, 40.941 59.608, 40.558 59.225 C 40.392 59.059, 39.710 61.078, 39.042 63.712 M 152.738 79 C 150.766 108.933, 150.685 127.648, 152.537 125.796 C 152.761 125.572, 153.783 120.230, 154.806 113.926 C 156.233 105.141, 156.473 100.717, 155.833 94.982 C 155.374 90.867, 154.646 83.225, 154.214 78 L 153.430 68.500 152.738 79 M 77.121 110 C 77.045 113.435, 80.549 122.784, 81.540 121.793 C 81.818 121.515, 80.954 117.961, 79.621 113.894 C 77.531 107.518, 77.187 106.982, 77.121 110" stroke="none" fill="black" fill-rule="evenodd"/>
</svg>