<svg xmlns="http://www.w3.org/2000/svg" width="200" height="200" viewBox="0 0 200 200" version="1.1">
	<path d="M 92.453 18.851 C 92.983 20.522, 92.207 20.766, 84.464 21.361 C 74.957 22.092, 70.584 23.561, 67.317 27.121 C 62.384 32.496, 62.077 36.526, 65.053 56.889 C 66.183 64.617, 66.970 73.194, 66.803 75.950 L 66.500 80.960 59 71.230 L 51.500 61.500 50.959 51.450 C 50.367 40.458, 48.810 36.429, 43.673 32.605 C 41.249 30.799, 39.448 30.500, 31.006 30.500 C 25.593 30.500, 20.943 30.725, 20.671 31 C 20.400 31.275, 19.465 34.958, 18.594 39.184 C 15.743 53.011, 14.992 72.907, 15.669 116.621 L 16.321 158.742 21.411 156.413 C 24.296 155.093, 32.049 153.194, 39.312 152.029 C 57.446 149.121, 61.943 146.891, 66.128 138.730 C 68.880 133.364, 70.190 121.102, 69.153 110.422 C 68.246 101.079, 68.630 93.347, 70.045 92.472 C 70.504 92.189, 72.506 94.732, 74.494 98.125 L 78.109 104.293 75.113 107.396 L 72.117 110.500 72.696 120.095 C 73.460 132.758, 71.885 142.831, 66.448 160.056 C 64.001 167.805, 62 175.412, 62 176.962 C 62 184.094, 68.902 186.598, 83.500 184.762 C 88.704 184.107, 108.737 183.602, 131 183.565 L 169.500 183.500 174.500 181 C 184.874 175.813, 183.913 169.089, 170.872 155.622 L 163.006 147.500 164.718 142.500 C 165.702 139.626, 166.444 134.382, 166.465 130.166 C 166.497 123.396, 166.290 122.650, 163.769 120.480 C 159.573 116.867, 154.006 116.528, 140.442 119.058 C 120.895 122.703, 122.549 122.775, 121.185 118.222 C 119.566 112.820, 119.603 112.743, 122.950 114.474 C 124.573 115.313, 128.106 116, 130.800 116 C 139.573 116, 144.965 110.685, 159.458 87.750 C 169.419 71.987, 176.405 63.849, 182.736 60.632 L 187.162 58.382 177.831 53.090 C 172.699 50.179, 162.200 43.605, 154.500 38.481 C 146.800 33.357, 138.804 28.365, 136.730 27.388 C 133.291 25.767, 132.822 25.750, 131.377 27.194 C 129.932 28.639, 129.935 29.266, 131.411 34.341 C 132.300 37.401, 135.509 45.388, 138.541 52.091 C 141.574 58.794, 143.930 64.393, 143.777 64.533 C 142.977 65.265, 121.508 69.141, 115.330 69.668 L 108.161 70.280 106.611 65.061 C 103.269 53.808, 103.280 53.716, 108.887 46.153 C 114.808 38.165, 117 33.433, 117 28.636 C 117 22.084, 107.774 17, 95.883 17 C 92.428 17, 91.948 17.259, 92.453 18.851 M 95.998 20.750 C 95.991 23.024, 102.519 49, 103.098 49 C 103.477 49, 105.911 45.892, 108.506 42.094 C 114.310 33.600, 115.516 27.490, 112.030 24.243 C 108.816 21.249, 96.005 18.458, 95.998 20.750 M 77.121 25.002 C 66.053 27.615, 64.048 33.771, 67.512 54.500 C 68.339 59.450, 69.304 68.675, 69.657 75 C 70.230 85.280, 70.586 86.924, 73.009 90.500 C 74.499 92.700, 76.469 95.963, 77.385 97.750 C 78.302 99.537, 79.481 101, 80.005 101 C 80.530 101, 82.314 98.637, 83.970 95.750 C 88.510 87.835, 88.148 84.032, 82.063 75.686 C 76.021 67.397, 74.569 63.287, 75.351 56.683 C 76.039 50.873, 81.302 39.231, 87.039 30.826 C 89.217 27.634, 91 24.793, 91 24.511 C 91 23.739, 80.969 24.094, 77.121 25.002 M 89.163 32.481 C 82.637 42.408, 78.649 51.707, 78.188 58.072 C 77.731 64.400, 78.777 67.028, 85.045 75.293 C 91.467 83.763, 91.365 89.799, 84.627 99.811 C 81.448 104.535, 81.276 106.068, 83.609 108.878 C 83.781 109.086, 89.677 104.617, 96.711 98.948 C 103.745 93.279, 109.602 88.582, 109.726 88.511 C 109.850 88.440, 109.011 84.921, 107.861 80.691 C 105.883 73.415, 105.618 73, 102.950 73 C 98.860 73, 95.286 71.402, 93.999 68.999 C 92.568 66.324, 94 61.697, 97.864 56.515 L 100.660 52.765 97.511 39.897 C 95.779 32.820, 94.143 26.810, 93.875 26.542 C 93.607 26.274, 91.487 28.946, 89.163 32.481 M 133 29.843 C 133 31.783, 137.097 42.303, 142.372 53.910 C 145.475 60.736, 147.897 66.435, 147.756 66.576 C 147.215 67.115, 121.190 71.906, 115.176 72.573 C 108.983 73.261, 108.865 73.329, 109.482 75.888 C 111.160 82.854, 112.120 86, 112.570 86 C 112.841 86, 116.311 83.580, 120.282 80.623 C 129.811 73.524, 131.888 72.474, 133.357 74.006 C 134.227 74.912, 132.081 77.505, 124.384 84.849 L 114.268 94.500 116.234 101 C 118.607 108.845, 118.968 109.322, 124.614 112.055 C 134.356 116.771, 140.912 111.758, 155.948 88.095 C 166.764 71.075, 171.372 65.192, 177.187 60.980 L 180.992 58.223 173.746 53.939 C 169.761 51.583, 160.650 45.752, 153.500 40.980 C 137.273 30.151, 133 27.830, 133 29.843 M 27.500 32.913 L 22.500 33.500 21.288 39.500 C 18.455 53.533, 17.769 71.357, 18.478 112.500 C 18.867 135.050, 19.274 153.593, 19.382 153.706 C 19.490 153.819, 21.545 153.234, 23.949 152.405 C 26.354 151.577, 32.861 150.227, 38.410 149.405 C 52.369 147.339, 55.510 146.369, 59.448 142.911 C 65.791 137.342, 67.649 126.969, 66.151 105.500 C 65.959 102.750, 66.128 97.331, 66.525 93.458 L 67.249 86.416 59.586 76.243 C 55.371 70.648, 51.540 65.834, 51.073 65.545 C 48.491 63.949, 46.337 108.361, 48.322 122.250 L 49.144 128 46.021 128 C 43.420 128, 42.663 127.437, 41.490 124.631 C 38.316 117.033, 38.637 100.872, 42.567 70.500 C 43.421 63.900, 44.345 56.593, 44.619 54.262 C 44.894 51.931, 45.814 49.328, 46.664 48.478 C 50.407 44.736, 43.596 33, 37.682 33 C 36.297 33, 34.564 32.848, 33.832 32.663 C 33.099 32.477, 30.250 32.590, 27.500 32.913 M 97.892 61.497 C 94.940 67.062, 95.915 69.349, 101.439 69.816 C 104.654 70.087, 105.101 69.877, 104.633 68.316 C 104.335 67.317, 103.567 64.362, 102.927 61.750 C 102.286 59.138, 101.429 57, 101.020 57 C 100.612 57, 99.204 59.024, 97.892 61.497 M 46.561 63.132 C 45.410 68.219, 42.953 90.053, 42.352 100.546 C 41.633 113.092, 42.444 121.913, 44.566 124.638 C 45.863 126.302, 45.936 125.915, 45.259 121 C 44.057 112.286, 44.633 86.612, 46.323 73.519 C 47.745 62.512, 47.862 57.385, 46.561 63.132 M 118 85.627 C 115.525 87.566, 113.319 89.659, 113.099 90.280 C 112.657 91.522, 119.932 85.992, 121.969 83.538 C 123.860 81.259, 122.998 81.713, 118 85.627 M 106 94.742 C 103.525 96.751, 97.817 101.453, 93.317 105.191 L 85.133 111.988 87.473 117.744 C 89.772 123.396, 89.901 123.514, 94.657 124.285 C 99.244 125.028, 111.102 124.530, 117.026 123.345 L 119.746 122.801 117.778 116.150 C 116.685 112.457, 114.593 108.166, 113.073 106.500 C 111.567 104.850, 109.343 102.180, 108.130 100.567 L 105.925 97.635 108.606 95.497 C 110.080 94.322, 111.110 92.849, 110.893 92.225 C 110.666 91.569, 108.602 92.630, 106 94.742 M 110.605 96.830 C 110.165 97.542, 110.551 99.192, 111.494 100.631 C 113.720 104.028, 114.431 103.043, 112.742 98.902 C 111.817 96.635, 111.134 95.973, 110.605 96.830 M 77.233 109.252 C 75.976 110.590, 75 112.904, 75 114.545 L 75 117.462 78.177 114.285 C 80.773 111.688, 81.181 110.721, 80.410 108.992 L 79.465 106.876 77.233 109.252 M 80.174 116.315 L 78 118.629 81.624 120.358 C 83.617 121.308, 85.423 121.911, 85.637 121.696 C 86.039 121.295, 83.218 114, 82.661 114 C 82.489 114, 81.370 115.042, 80.174 116.315 M 146 120.637 C 138.552 122.027, 124.510 125.157, 124.162 125.504 C 122.936 126.731, 125.274 130.852, 127.517 131.415 C 128.910 131.765, 131.754 133.590, 133.836 135.471 C 143.240 143.967, 150.752 172.239, 144.266 174.728 C 140.406 176.209, 132.365 161.543, 125.912 141.250 C 123.584 133.931, 122.627 133.059, 119.034 134.982 C 117.693 135.699, 117.057 135.590, 116.667 134.575 C 116.333 133.705, 117.230 132.733, 119.067 131.972 C 122.090 130.720, 122.391 130.183, 121.450 127.729 C 120.994 126.542, 118.360 126.377, 106.200 126.773 C 98.115 127.036, 91.367 127.365, 91.205 127.504 C 91.043 127.643, 91.441 129.866, 92.090 132.443 C 92.925 135.758, 93.582 136.818, 94.335 136.065 C 96.201 134.199, 99.543 134.914, 102.272 137.762 C 103.728 139.282, 107.628 145.469, 110.940 151.512 C 114.252 157.556, 116.971 161.728, 116.981 160.785 C 116.991 159.842, 116.101 154.442, 115.003 148.785 C 113.905 143.128, 113.005 138.387, 113.003 138.250 C 113.001 138.113, 113.626 138, 114.392 138 C 115.376 138, 116.388 141.295, 117.848 149.250 C 122.348 173.765, 120.613 175.153, 109.984 155.538 C 105.972 148.134, 101.449 140.889, 99.934 139.437 C 97.214 136.831, 97.165 136.823, 96.080 138.850 C 95.476 139.979, 94.600 144.667, 94.134 149.267 C 93.218 158.299, 91.342 163.500, 89 163.500 C 86.688 163.500, 86.657 160.341, 88.922 155.661 C 91.468 150.402, 91.631 142.671, 89.404 132.879 C 88.357 128.274, 87.240 125.665, 86.154 125.284 C 84.482 124.698, 78.006 121.889, 76.900 121.269 C 76.570 121.085, 76 125.111, 75.634 130.217 C 74.861 140.989, 73.264 148.340, 68.461 163.232 C 64.688 174.931, 64.217 179.105, 66.461 180.967 C 68.834 182.937, 75.126 183.305, 84.609 182.029 C 90.136 181.285, 102.769 180.951, 118 181.146 C 161.164 181.699, 171.236 180.962, 176.439 176.869 C 177.848 175.761, 179 173.851, 179 172.623 C 179 169.213, 174.019 162.193, 166.552 155.076 L 159.812 148.653 161.909 141.576 C 164.547 132.674, 164.633 126.004, 162.149 122.935 C 160.653 121.088, 159.166 120.603, 154.399 120.410 C 151.154 120.278, 147.375 120.380, 146 120.637 M 129.393 143.274 C 135.364 159.768, 141.194 172, 143.085 172 C 145.869 172, 142.595 155.103, 138.077 146.153 C 135.352 140.754, 129.186 134, 126.983 134 C 126.462 134, 127.547 138.174, 129.393 143.274" stroke="none" fill="black" fill-rule="evenodd"/>
</svg>