<svg xmlns="http://www.w3.org/2000/svg" width="200" height="200" viewBox="0 0 200 200" version="1.1">
	<path d="M 56.751 14.981 C 51.354 19.226, 50.158 25.385, 49.142 54.149 C 48.610 69.234, 48.046 75.240, 47.049 76.441 C 44.401 79.632, 43.659 76.283, 43.579 60.779 C 43.507 46.854, 43.297 45.120, 41.209 41.210 C 38.354 35.864, 35.243 34.242, 31.118 35.951 C 21.773 39.822, 16.484 59.991, 18.853 82.720 C 19.523 89.146, 20.275 94.608, 20.524 94.858 C 20.774 95.107, 23.373 93.045, 26.302 90.276 C 32.696 84.229, 36.993 82.880, 40.870 85.705 C 44.489 88.341, 47.636 95.170, 49.061 103.481 C 50.507 111.908, 49.738 130.352, 47.644 137.500 L 46.179 142.500 46.089 135.960 C 45.920 123.603, 40.834 109.695, 34.425 104.068 C 30.207 100.365, 26.681 100.162, 23.636 103.448 C 20.289 107.059, 18.953 112.264, 18.360 124 C 18.056 130.026, 16.753 138.931, 15.302 144.899 C 11.441 160.779, 13.162 167.984, 21.483 170.769 C 26.344 172.396, 33.205 171.224, 49.500 165.982 C 65.404 160.866, 72.954 159, 77.752 159 C 81.509 159, 81.905 159.306, 85.342 164.874 C 91.399 174.688, 96.107 176.130, 106.523 171.361 C 117.592 166.293, 123.535 167.014, 134.847 174.796 C 147.076 183.208, 152.704 183.654, 160.464 176.823 C 165.994 171.955, 170.265 163.351, 173.519 150.522 C 176.615 138.319, 178.224 119.864, 177.081 109.670 C 176.211 101.917, 176.239 101.766, 179.984 93.672 C 189.764 72.535, 187.556 60.574, 173.156 56.682 C 170.045 55.842, 164.125 54.615, 160 53.956 C 151.155 52.543, 145.445 49.916, 144.376 46.767 C 143.952 45.520, 143.582 38.465, 143.553 31.090 C 143.514 21.293, 143.163 17.565, 142.250 17.256 C 141.285 16.930, 140.997 20.446, 140.986 32.667 C 140.979 41.375, 140.701 49.512, 140.370 50.750 C 139.800 52.876, 139.456 52.712, 134.084 47.750 C 130.959 44.862, 126.057 40.541, 123.190 38.148 L 117.978 33.795 115.813 38.648 C 112.789 45.422, 112.399 56.512, 114.493 76.183 C 116.988 99.627, 115.675 113.961, 108.968 136.500 L 105.992 146.500 106.501 135 C 107.717 107.554, 102.456 93.374, 92.301 96.723 C 88.468 97.987, 85.585 103.516, 79.438 121.386 C 76.088 131.126, 74.090 135.678, 73.659 134.554 C 73.297 133.609, 73 125.223, 73 115.918 C 73 106.613, 72.608 99, 72.128 99 C 70.949 99, 69.672 123.339, 70.468 130.646 C 71.417 139.367, 71.893 141, 73.484 141 C 75.445 141, 76.019 139.754, 81.988 122.539 C 88.112 104.873, 90.263 100.369, 92.983 99.505 C 101.713 96.735, 105.203 110.808, 103.217 140.768 C 102.130 157.166, 102.522 160.878, 105.072 158.328 C 106.604 156.796, 115.594 123.759, 117.031 114.382 C 118.699 103.493, 118.536 86.173, 116.604 69.187 C 115.413 58.714, 115.231 53.296, 115.924 48.992 C 116.895 42.962, 118.457 39, 119.864 39 C 120.300 39, 125.079 43.212, 130.484 48.360 L 140.312 57.720 139.730 81.110 L 139.148 104.500 135.629 112.066 C 128.127 128.193, 124.562 143.292, 126.861 149.198 C 132.192 162.895, 150.716 147.873, 154.054 127.145 C 154.869 122.083, 154.303 112.363, 152.909 107.500 C 152.751 106.950, 153.212 103.152, 153.934 99.059 C 156.158 86.439, 153.982 75.317, 147.033 63.796 C 144.662 59.865, 143 55.851, 143 54.055 C 143 50.674, 143.576 50.340, 145.921 52.358 C 148.283 54.391, 153.220 55.821, 163.697 57.506 C 174.500 59.245, 180.087 61.701, 181.803 65.467 C 184.631 71.673, 182.410 83.303, 175.954 96.091 C 173.261 101.426, 173.108 102.295, 174.015 107.078 C 177.061 123.142, 171.463 156.386, 163.619 168.811 C 160.668 173.487, 155.737 177.777, 152.332 178.631 C 148.750 179.531, 143.007 177.549, 137.900 173.651 C 131.758 168.964, 125.743 166.063, 120.753 165.382 C 116.597 164.815, 114.933 165.243, 101.214 170.403 C 97.407 171.835, 96.612 171.850, 94.082 170.542 C 92.516 169.733, 89.866 166.917, 88.192 164.285 C 83.651 157.145, 82.341 155.998, 78.750 156.017 C 73.624 156.045, 63.652 158.451, 48.500 163.318 C 31.930 168.639, 26.408 169.620, 21.722 168.073 C 15.629 166.063, 14.413 158.444, 18.120 145.500 C 19.322 141.303, 20.436 133.259, 20.903 125.410 C 21.805 110.258, 23.688 104.710, 28.101 104.198 C 30.056 103.971, 31.507 104.814, 33.949 107.595 C 40.732 115.320, 43.467 125.905, 42.808 141.884 C 42.273 154.873, 43.334 156.148, 47.272 147.250 C 51.138 138.514, 52.437 130.779, 52.435 116.500 C 52.433 97.154, 48.427 85.748, 40.468 82.422 C 36.199 80.638, 31.563 81.970, 26.270 86.501 L 22.171 90.009 21.450 82.312 C 19.847 65.202, 23.111 47.304, 28.981 41.020 C 32.746 36.989, 35.692 37.294, 38.449 42 C 40.271 45.109, 40.508 47.250, 40.569 61.180 C 40.643 77.982, 41.183 80, 45.599 80 C 50.565 80, 51.320 76.779, 52.132 52.131 C 52.898 28.878, 54.019 21.847, 57.586 17.905 C 59.781 15.480, 62.138 15.498, 66.790 17.977 C 74.247 21.952, 74.033 21.390, 72.331 32.554 C 70.308 45.832, 70.936 64.152, 73.601 69.611 C 76.150 74.831, 79.537 74.977, 82.132 69.978 C 83.768 66.824, 86.059 54.947, 87.576 41.750 C 88.120 37.025, 88.142 37, 91.873 37 C 99.237 37, 103.243 43.827, 103.315 56.500 C 103.368 65.766, 101.831 73.053, 98.042 81.500 C 94.349 89.731, 89.933 94.009, 85.173 93.968 C 81.086 93.933, 78.891 92.597, 75.608 88.146 C 74.039 86.020, 72.980 85.394, 71.989 86.007 C 70.901 86.679, 71.719 88.005, 75.651 91.937 C 80.115 96.400, 81.208 97, 84.879 97 C 95.681 97, 106.008 77.701, 105.994 57.540 C 105.987 46.924, 104.597 42.361, 99.953 37.718 C 96.353 34.118, 95.811 33.909, 90.813 34.196 L 85.500 34.500 84.787 41.500 C 82.912 59.890, 80.063 71.514, 77.625 70.715 C 77.006 70.512, 75.911 68.131, 75.191 65.423 C 73.640 59.589, 74.139 35.435, 75.979 27.270 C 77.135 22.140, 77.103 21.991, 74.329 19.537 C 70.781 16.398, 64.018 13, 61.319 13 C 60.192 13, 58.136 13.892, 56.751 14.981 M 142.574 83.895 L 141.851 105.041 138.284 112.761 C 132.788 124.657, 129.929 133.826, 129.308 141.549 C 128.833 147.458, 129.029 148.886, 130.515 150.372 C 132.590 152.448, 136.024 151.913, 139.826 148.922 C 146.859 143.390, 151.282 132.961, 151.245 122 C 151.197 108.092, 151.224 98.545, 151.336 89.500 C 151.456 79.845, 149.925 73.691, 145.645 66.624 L 143.297 62.748 142.574 83.895" stroke="none" fill="black" fill-rule="evenodd"/>
</svg>