<svg xmlns="http://www.w3.org/2000/svg" width="200" height="200" viewBox="0 0 200 200" version="1.1">
	<path d="M 66.615 16.096 C 58.524 17.182, 54.843 18.729, 53.593 21.568 C 52.742 23.501, 51.883 23.623, 39.593 23.563 C 23.757 23.487, 19.938 24.872, 16.172 32.058 C 14.050 36.108, 13.913 37.207, 14.629 44.500 C 15.061 48.900, 15.278 67.800, 15.113 86.500 C 14.661 137.478, 16.894 152, 25.184 152 C 27.955 152, 35.768 143.987, 39.541 137.274 L 42.368 132.245 47.961 138.123 C 54.329 144.815, 57.991 145.768, 61.792 141.722 C 67.133 136.036, 68.624 124.613, 69.501 82.670 C 69.844 66.264, 70.369 52.201, 70.669 51.420 C 70.969 50.639, 72.334 50, 73.703 50 C 75.865 50, 86.949 52.763, 87.811 53.517 C 87.982 53.666, 86.095 56.952, 83.617 60.818 C 74.580 74.917, 71.993 82.593, 75.200 85.800 C 77.034 87.634, 84.245 87.235, 92.352 84.849 C 101.512 82.154, 104.424 82.725, 106.008 87.525 C 108.298 94.462, 104.276 109.327, 88.698 151.500 C 81.557 170.833, 78.509 181.278, 79.361 183.497 C 79.934 184.992, 80.819 184.458, 85.016 180.081 C 94.475 170.215, 105.409 167.945, 122 172.402 C 127.225 173.806, 135.263 176.090, 139.863 177.477 C 153.907 181.713, 162.288 180.618, 167.055 173.923 C 172.972 165.614, 175.850 142.710, 172.387 131.500 C 169.373 121.745, 169.946 102.589, 173.867 82.013 C 178.084 59.888, 179.424 45.715, 178.534 32.659 C 178.134 26.797, 177.495 22, 177.113 22 C 176.731 22, 171.929 31.757, 166.440 43.683 C 157.390 63.349, 156.185 65.451, 153.481 66.274 C 150 67.333, 145.325 67.281, 143.323 66.161 C 142.167 65.514, 142.284 64.909, 143.982 62.750 C 145.117 61.307, 147.477 57.068, 149.226 53.331 C 154.424 42.222, 154.126 31.869, 148.412 25.078 L 145.996 22.206 152.676 21.043 C 160.870 19.616, 163.695 18.295, 162.058 16.657 C 160.606 15.204, 76.926 14.712, 66.615 16.096 M 77.500 17.992 C 65.928 18.712, 56 20.598, 56 22.077 C 56 24.085, 61.202 25.888, 72.753 27.883 C 85.684 30.117, 100 30.704, 100 29 C 100 28.394, 95.667 28, 89 28 C 80.175 28, 78 27.720, 78 26.583 C 78 23.911, 97.099 21.549, 99.550 23.918 C 100.812 25.138, 149.190 20.082, 150.758 18.567 C 151.240 18.101, 111.737 16.999, 100.089 17.154 C 93.715 17.238, 83.550 17.615, 77.500 17.992 M 120.222 25.387 C 105.221 27.093, 101.995 27.736, 102.232 28.968 C 102.551 30.624, 107.836 31.851, 115.040 31.942 C 120.569 32.013, 129.962 29.658, 135.813 26.736 C 140.293 24.499, 142.093 22.885, 139.809 23.154 C 139.089 23.239, 130.275 24.244, 120.222 25.387 M 139.032 27.973 C 136.574 29.603, 133.317 31.211, 131.793 31.545 C 130.270 31.880, 128.800 32.514, 128.528 32.955 C 128.032 33.756, 134.072 39.576, 141.865 45.806 C 146.068 49.167, 147.254 52, 144.457 52 C 143.609 52, 140.796 50.031, 138.207 47.625 C 134.387 44.074, 124.548 38, 122.617 38 C 122.018 38, 118 55.192, 118 57.752 C 118 59.438, 119.587 60.200, 127.986 62.545 C 139.858 65.861, 139.682 65.940, 145.598 54.681 C 148.742 48.698, 149.426 46.295, 149.775 40.013 C 150.142 33.379, 149.917 32.100, 147.846 29.077 C 146.556 27.194, 145.050 25.509, 144.500 25.332 C 143.950 25.154, 141.489 26.343, 139.032 27.973 M 24.331 27.937 C 22.038 28.978, 19.577 30.881, 18.862 32.165 C 17.838 34.006, 17.619 44.234, 17.830 80.500 C 18.155 136.350, 19.446 149, 24.822 149 C 27.491 149, 33.947 141.707, 38.525 133.522 L 42.362 126.660 43.928 129.080 C 44.789 130.411, 47.469 133.637, 49.884 136.250 C 55.197 141.999, 59.092 142.678, 61.353 138.250 C 64.935 131.234, 66.910 109.099, 66.998 75 C 67.025 64.275, 67.439 53.817, 67.916 51.760 C 68.782 48.032, 68.772 48.016, 64.891 46.971 C 62.750 46.394, 58.139 45.578, 54.644 45.157 L 48.290 44.392 47.674 68.946 C 46.838 102.282, 45.037 120.518, 42.659 119.715 C 41.829 119.434, 41.499 113.235, 41.497 97.852 L 41.495 76.382 37.545 67.965 C 34.832 62.185, 33.466 57.761, 33.182 53.844 C 32.814 48.752, 33.048 47.861, 35.359 45.550 C 36.784 44.126, 39.310 42.688, 40.974 42.355 C 43.273 41.895, 44 41.206, 44 39.485 C 44 37.215, 46.713 36.171, 62.407 32.402 L 65.314 31.704 61.787 29.895 C 53.745 25.769, 31.649 24.614, 24.331 27.937 M 166.786 49.578 L 158.072 68.500 165.189 68.797 C 169.104 68.960, 172.670 68.730, 173.116 68.284 C 174.466 66.934, 176.144 49.071, 175.812 39.578 L 175.500 30.656 166.786 49.578 M 80.101 32.873 C 78.091 33.434, 79.083 34.068, 86.201 36.771 C 90.876 38.547, 95.165 40, 95.734 40 C 96.611 40, 97.941 36.970, 97.986 34.866 C 97.994 34.518, 94.997 33.911, 91.326 33.518 C 87.655 33.125, 84.167 32.668, 83.576 32.503 C 82.984 32.338, 81.420 32.504, 80.101 32.873 M 123.177 33.853 C 120.883 34.498, 120.890 34.520, 123.713 35.586 C 126.210 36.528, 126.571 36.433, 126.571 34.832 C 126.571 33.825, 126.330 33.045, 126.036 33.100 C 125.741 33.155, 124.455 33.493, 123.177 33.853 M 57.108 36.525 C 51.942 37.859, 47.509 39.157, 47.257 39.409 C 45.986 40.681, 48.574 41.784, 54.222 42.377 C 57.675 42.740, 63.875 43.921, 68 45.001 C 72.635 46.215, 78.817 46.972, 84.183 46.983 C 92.100 46.998, 92.923 46.817, 93.524 44.925 C 93.886 43.783, 94.029 42.743, 93.841 42.613 C 91.930 41.290, 70.747 34.012, 68.916 34.049 C 67.587 34.076, 62.273 35.190, 57.108 36.525 M 100.081 38.199 C 99.058 41.132, 99.195 41.583, 101.733 43.630 C 104.284 45.689, 104.374 45.992, 102.888 47.508 C 102.001 48.413, 99.396 49.405, 97.100 49.713 C 94.803 50.021, 93.075 50.726, 93.260 51.279 C 93.444 51.833, 98.299 53.724, 104.048 55.482 L 114.500 58.680 115.328 55.090 C 115.784 53.115, 116.965 48.243, 117.954 44.263 L 119.751 37.025 116.125 36.018 C 114.131 35.464, 109.957 35.009, 106.848 35.006 C 101.387 35, 101.158 35.108, 100.081 38.199 M 41.012 45.306 C 33.638 47.830, 33.641 54.723, 41.023 69 L 44.901 76.500 44.951 60.250 C 44.978 51.313, 44.888 44.025, 44.750 44.056 C 44.612 44.087, 42.930 44.650, 41.012 45.306 M 96.598 44.736 C 95.394 45.939, 96.051 47, 98 47 C 99.100 47, 100 46.598, 100 46.107 C 100 44.983, 97.399 43.934, 96.598 44.736 M 85.152 63.530 C 82.211 68.219, 78.857 74.298, 77.699 77.039 C 75.725 81.712, 75.699 82.127, 77.279 83.707 C 78.858 85.287, 79.385 85.283, 85.732 83.646 C 99.848 80.005, 100.583 79.891, 103.270 80.912 C 108.067 82.736, 109.341 86.082, 108.746 95.286 C 108.185 103.965, 104.775 115.773, 96.265 138.500 C 89.864 155.599, 82.890 176.224, 83.354 176.687 C 83.571 176.905, 85.119 175.930, 86.793 174.521 C 92.654 169.589, 98.723 167.626, 108.195 167.597 C 115.125 167.577, 116.675 167.313, 115.831 166.297 C 114.381 164.549, 115.481 159.345, 119.666 148.145 L 123.162 138.790 119.643 135.567 C 111.458 128.070, 114.987 120.796, 126.087 122.285 C 129.849 122.789, 130.148 122.629, 131.898 119.158 C 134.929 113.149, 135.363 111, 133.546 111 C 130.475 111, 129.641 106.747, 131.474 100.440 C 133.397 93.825, 140.587 79.166, 144.406 74.072 C 145.820 72.186, 146.792 70.459, 146.568 70.234 C 146.343 70.009, 144.580 69.469, 142.650 69.034 C 139.563 68.338, 138.811 68.588, 136.381 71.124 C 133.225 74.419, 126.380 78, 123.240 78 C 122.069 78, 119.912 76.968, 118.445 75.707 C 116.325 73.883, 115.648 72.208, 115.140 67.522 L 114.500 61.631 104 58.335 C 98.225 56.523, 92.825 55.031, 92 55.021 C 91.175 55.011, 88.093 58.840, 85.152 63.530 M 117.507 67.250 C 118.889 75.843, 124.639 77.219, 132.407 70.816 L 136.261 67.639 127.881 65.335 C 116.494 62.205, 116.691 62.168, 117.507 67.250 M 146.883 75.250 C 140.611 83.769, 131.348 105.681, 133.226 107.559 C 135.373 109.707, 138.014 105.871, 145 90.460 C 149.125 81.360, 152.645 73.259, 152.823 72.457 C 153.488 69.463, 149.903 71.148, 146.883 75.250 M 156 72.928 C 156 73.438, 155.520 77.308, 154.933 81.527 C 154.346 85.747, 154.059 89.393, 154.296 89.629 C 154.533 89.866, 157.375 86.806, 160.613 82.829 C 170.293 70.940, 170.102 72, 162.557 72 C 158.951 72, 156 72.417, 156 72.928 M 170.524 74.848 C 169.437 76.307, 165.024 81.696, 160.718 86.824 C 153.071 95.931, 152.828 96.385, 150.334 106.324 C 148.929 111.921, 146.451 119.191, 144.827 122.479 C 143.174 125.827, 142.324 128.608, 142.896 128.799 C 143.458 128.986, 147.749 131.621, 152.432 134.655 L 160.948 140.171 143.831 152.176 C 134.417 158.779, 124.941 165.106, 122.772 166.236 L 118.829 168.291 129.665 171.664 C 135.624 173.519, 143.425 175.684, 147 176.475 C 163.053 180.025, 169.374 172.667, 170.695 148.891 C 171.169 140.360, 170.917 136.835, 169.405 130.891 C 166.703 120.268, 167.069 103.440, 170.380 86.054 C 171.789 78.659, 172.842 72.515, 172.721 72.402 C 172.599 72.289, 171.611 73.389, 170.524 74.848 M 44.300 82 C 44.300 85.025, 44.487 86.263, 44.716 84.750 C 44.945 83.237, 44.945 80.763, 44.716 79.250 C 44.487 77.737, 44.300 78.975, 44.300 82 M 147.148 92.148 C 144.853 97.187, 143.124 101.458, 143.306 101.639 C 143.488 101.821, 145.067 100.495, 146.814 98.692 C 149.158 96.273, 150.273 93.892, 151.064 89.609 C 151.655 86.416, 151.954 83.620, 151.729 83.396 C 151.505 83.171, 149.443 87.110, 147.148 92.148 M 143.788 105.319 C 140.556 108.205, 138.160 111.634, 136.053 116.388 C 134.374 120.177, 133 123.428, 133 123.613 C 133 124.136, 139.150 127.188, 139.473 126.824 C 141.880 124.107, 149.762 102.429, 148.722 101.389 C 148.584 101.251, 146.364 103.019, 143.788 105.319 M 120.056 125.175 C 118.885 125.608, 118 126.830, 118 128.013 C 118 130.139, 122.110 135, 123.908 135 C 124.668 135, 129 126.904, 129 125.482 C 129 124.759, 121.844 124.513, 120.056 125.175 M 129.567 131.125 C 128.659 133.393, 128.122 135.455, 128.373 135.706 C 129.015 136.348, 133.074 134.138, 135.777 131.675 L 138.055 129.600 135.777 128.335 C 132.184 126.340, 131.327 126.726, 129.567 131.125 M 137.971 133.531 C 136.663 134.923, 133.440 136.827, 130.809 137.761 C 126.096 139.435, 125.974 139.589, 122.531 148.192 C 119.099 156.767, 117.086 165, 118.422 165 C 120.025 165, 126.234 161.226, 136.500 154.011 C 142.550 149.759, 149.405 145.037, 151.734 143.518 C 154.062 141.999, 155.727 140.368, 155.434 139.893 C 154.881 138.998, 141.779 131, 140.866 131 C 140.582 131, 139.279 132.139, 137.971 133.531" stroke="none" fill="black" fill-rule="evenodd"/>
</svg>