<svg xmlns="http://www.w3.org/2000/svg" width="200" height="200" viewBox="0 0 200 200" version="1.1">
	<path d="M 86.108 17.234 L 83.794 22.935 79.221 19.443 C 74.038 15.485, 72.192 16.073, 74.607 20.913 C 76.153 24.013, 76.137 24.344, 74.320 26.848 C 71.591 30.609, 65.160 33.527, 52.637 36.685 C 42.346 39.281, 39.522 40.922, 41.663 43.063 C 42.558 43.958, 55.772 46.135, 68.750 47.526 C 73.823 48.070, 75 48.531, 75 49.975 C 75 51.161, 73.297 52.486, 69.889 53.952 C 61.737 57.459, 52.516 59.076, 37.500 59.631 C 22.492 60.186, 20.128 60.534, 21.583 61.973 C 22.854 63.230, 54.262 67, 63.463 67 C 74.851 67, 73.123 69.795, 57.319 76.938 C 37.316 85.978, 21.246 94.071, 19.527 95.970 C 18.554 97.046, 18.027 98.629, 18.357 99.488 C 18.868 100.821, 19.841 100.604, 24.965 98.018 C 39.283 90.790, 46.391 91.641, 60.605 102.285 C 65.772 106.154, 70 109.842, 70 110.481 C 70 111.121, 69.283 113.749, 68.406 116.322 C 67.165 119.965, 66.335 120.996, 64.656 120.983 C 62.436 120.966, 47.203 117.773, 43.314 116.510 C 41.394 115.887, 41.029 116.269, 40.314 119.650 C 39.866 121.768, 39.500 132.275, 39.500 143 C 39.500 158.639, 39.841 163.601, 41.224 168.063 C 47.308 187.700, 61.063 190.161, 80.873 175.156 C 91.166 167.360, 99.240 167.909, 128.500 178.396 C 135.228 180.807, 140.256 181.983, 143.868 181.990 C 148.750 181.999, 149.577 181.658, 153.013 178.222 C 159.028 172.207, 160.243 166.779, 160.450 145 L 160.625 126.500 165.313 115.291 C 168.306 108.133, 170 102.602, 170 99.990 C 170 96.229, 169.705 95.775, 166.364 94.379 C 163.041 92.990, 161.855 93.030, 152.614 94.846 C 139.200 97.481, 125.784 98.221, 113.194 97.020 C 100.794 95.837, 98.106 94.780, 103.210 93.096 C 107.534 91.669, 126.821 89.046, 133.185 89.020 C 139.806 88.992, 142.203 87.803, 145.413 82.952 C 151.800 73.301, 150.499 68.999, 141.193 69.001 C 136.746 69.002, 130.691 70.634, 113.535 76.453 C 101.454 80.550, 91.329 83.653, 91.035 83.348 C 90.741 83.042, 93.425 80.137, 97 76.892 C 106.708 68.078, 107.825 67.845, 144.101 67.075 C 170.756 66.509, 175.044 66.201, 177.351 64.689 C 181.973 61.661, 180.237 58.272, 170.962 52.211 L 164.930 48.270 149.780 53.135 C 141.448 55.811, 134.384 58, 134.082 58 C 133.780 58, 138.227 55.187, 143.965 51.750 C 149.988 48.142, 157.272 42.702, 161.198 38.880 C 167.086 33.151, 168 31.782, 168 28.703 C 168 26.041, 167.329 24.618, 165.338 23.051 C 160.739 19.434, 158.531 19.479, 150.036 23.362 C 137.408 29.135, 125.828 32.143, 115.500 32.334 C 107.479 32.482, 105.880 32.196, 100.802 29.702 C 94.637 26.674, 91.772 23.104, 89.663 15.822 L 88.422 11.533 86.108 17.234 M 86.721 22.961 C 86.351 24.374, 87.225 25.696, 89.854 27.701 C 98.507 34.297, 111.113 45.342, 112.106 47.198 C 113.942 50.628, 111.821 51.433, 106.025 49.508 C 103.190 48.567, 100.691 47.976, 100.471 48.195 C 99.153 49.514, 80.918 90.827, 76.384 102.766 L 74.005 109.032 77.252 111.014 C 87.213 117.091, 103.634 118.324, 118.334 114.100 C 125.891 111.928, 126.219 111.913, 127.578 113.674 C 129.595 116.288, 128.903 120.006, 126 122.142 C 122.309 124.858, 114.436 125.990, 98.614 126.082 C 84.919 126.161, 84.604 126.210, 88 127.740 C 93.252 130.105, 107.264 130.533, 116.723 128.616 C 126.369 126.662, 129.295 126.573, 128.792 128.250 C 128.422 129.484, 107.204 143.981, 105.750 143.994 C 105.338 143.997, 105 143.435, 105 142.744 C 105 142.054, 108.713 139.090, 113.250 136.159 C 119.335 132.228, 120.713 130.981, 118.500 131.411 C 116.850 131.731, 111.675 132.277, 107 132.624 C 96.645 133.392, 88.875 131.941, 82.832 128.108 C 78.251 125.203, 69.454 123.456, 68.355 125.234 C 66.810 127.734, 64.033 141.048, 64.017 146.027 C 63.984 156.865, 68.841 158.467, 85.159 153 C 95.561 149.515, 95 149.608, 95 151.374 C 95 153.251, 77.381 159, 71.628 159 C 68.292 159, 66.378 158.368, 64.306 156.582 C 61.607 154.256, 61.504 153.827, 61.606 145.332 C 61.676 139.412, 62.381 134.447, 63.743 130.274 L 65.775 124.048 62.138 123.491 C 60.137 123.185, 55.045 122.147, 50.823 121.184 L 43.146 119.435 42.602 124.967 C 41.125 139.984, 40.970 147.277, 41.948 155.734 C 44.010 173.561, 49.428 182.010, 58.785 181.990 C 64.250 181.979, 71.329 178.963, 78.125 173.751 C 85.768 167.889, 86.829 167.533, 96.500 167.573 C 104.809 167.608, 106.792 168.056, 122.320 173.397 C 145.143 181.247, 150.301 181.128, 154.017 172.664 C 157.021 165.822, 158.108 156.817, 157.812 141.238 L 157.531 126.500 162.832 113.745 C 168.474 100.165, 168.712 97.468, 164.365 96.377 C 162.990 96.032, 157.171 96.706, 151.434 97.875 C 143.144 99.564, 137.669 99.980, 124.752 99.904 C 107.564 99.802, 99.384 98.573, 97.663 95.834 C 95 91.596, 104.129 88.748, 127.006 86.681 L 140.446 85.467 143.153 81.436 C 144.642 79.219, 146.161 76.208, 146.528 74.746 C 147.098 72.475, 146.823 71.994, 144.642 71.446 C 141.408 70.635, 127.923 74.197, 109 80.862 C 93.391 86.360, 88 87.220, 88 84.212 C 88 80.016, 100.894 68.779, 108.500 66.346 C 112.418 65.092, 120.144 64.611, 144.201 64.123 C 176.285 63.472, 178.955 63.072, 175.908 59.379 C 175.133 58.440, 172.297 56.256, 169.604 54.525 L 164.707 51.377 147.670 56.689 C 138.299 59.610, 129.590 62, 128.316 62 C 123.005 62, 126.422 58.946, 142.405 49.410 C 154.671 42.091, 165 32.649, 165 28.754 C 165 25.490, 161.064 22.522, 157.748 23.285 C 156.512 23.570, 151.879 25.413, 147.454 27.382 C 131.986 34.263, 113.280 36.962, 102.807 33.824 C 98.439 32.515, 90.453 26.004, 89.489 22.964 C 88.690 20.448, 87.378 20.447, 86.721 22.961 M 78 24.766 C 78 30.429, 69.224 35.639, 53.203 39.486 C 49.189 40.450, 46.058 41.391, 46.244 41.578 C 46.771 42.104, 69.703 45, 73.345 45 C 76.538 45, 76.631 44.867, 79.429 36.250 C 80.992 31.438, 82.423 27.050, 82.609 26.500 C 82.794 25.950, 81.833 24.691, 80.473 23.703 L 78 21.907 78 24.766 M 83.717 31.756 C 82.894 33.815, 81.521 37.862, 80.665 40.750 L 79.108 46 82.054 46 C 83.674 46, 85 46.427, 85 46.949 C 85 47.669, 80.010 51.921, 77.187 53.606 C 77.015 53.709, 76.278 56.051, 75.550 58.810 C 74.315 63.491, 74.353 63.859, 76.113 64.319 C 78.952 65.062, 78.386 68.032, 74.843 70.990 L 71.686 73.626 71.209 89.313 C 70.942 98.094, 71.121 104.994, 71.616 104.986 C 72.102 104.978, 74.275 100.591, 76.445 95.236 C 78.615 89.881, 83.980 77.625, 88.367 68 C 93.507 56.725, 96.309 49.344, 96.243 47.250 C 96.125 43.453, 97.614 43.105, 103.486 45.559 C 105.538 46.416, 107.420 46.914, 107.669 46.665 C 108.072 46.262, 89.211 30.346, 86.356 28.680 C 85.656 28.272, 84.631 29.466, 83.717 31.756 M 66.121 58.167 C 63.163 59.212, 57.088 60.647, 52.621 61.355 L 44.500 62.643 49.500 63.444 C 53.894 64.149, 70.967 64.376, 71.588 63.739 C 72.365 62.943, 73.068 56.024, 72.361 56.133 C 71.888 56.206, 69.080 57.121, 66.121 58.167 M 51 82.821 L 34.500 90.500 42 91.061 C 50.271 91.679, 53.069 92.857, 61.084 99.094 C 64.063 101.412, 66.950 103.648, 67.500 104.062 C 68.155 104.556, 68.521 99.672, 68.561 89.908 C 68.595 81.708, 68.370 75.032, 68.061 75.071 C 67.753 75.110, 60.075 78.598, 51 82.821 M 74 113.850 C 74 114.317, 75.353 116.567, 77.006 118.850 L 80.013 123 97.825 123 C 120.253 123, 129.008 120.867, 126.072 116.117 C 125.509 115.205, 123.545 115.393, 117.915 116.899 C 102.788 120.946, 89.423 120.318, 79.151 115.077 C 74.621 112.766, 74 112.618, 74 113.850 M 70.654 117.460 C 69.416 120.684, 69.951 122, 72.500 122 C 75.461 122, 75.574 121.305, 73.132 118.128 C 71.521 116.034, 71.231 115.955, 70.654 117.460" stroke="none" fill="black" fill-rule="evenodd"/>
</svg>