<svg xmlns="http://www.w3.org/2000/svg" width="200" height="200" viewBox="0 0 200 200" version="1.1">
	<path d="M 42.663 19.250 C 37.996 25.468, 32.869 34.121, 31.424 38.214 C 29.746 42.971, 30.275 45.635, 33.074 46.523 C 35.935 47.431, 41 46.080, 41 44.409 C 41 43.298, 40.103 43.120, 37 43.616 C 33.751 44.136, 33 43.959, 33 42.675 C 33 40.379, 34.895 36.357, 39.388 29.116 L 43.349 22.732 51.519 23.360 C 62.102 24.173, 66 24.985, 66.001 26.375 C 66.001 26.994, 67.362 30.376, 69.025 33.892 C 70.689 37.408, 71.776 40.558, 71.441 40.892 C 71.107 41.226, 69.408 41.500, 67.667 41.500 C 64.749 41.500, 64.448 41.814, 63.840 45.500 C 63.477 47.700, 61.549 54.081, 59.556 59.680 C 57.439 65.627, 55.771 72.381, 55.545 75.922 C 55.273 80.183, 54.516 82.804, 52.999 84.742 C 47.210 92.138, 34.333 106.272, 31.219 108.646 L 27.718 111.317 28.362 107.884 C 28.716 105.996, 31.440 96.358, 34.414 86.467 C 40.879 64.965, 42.340 58, 40.383 58 C 39.643 58, 38.758 59.237, 38.415 60.750 C 36.405 69.616, 34.390 77.084, 30.524 90 C 25.247 107.631, 24.838 109.413, 25.608 111.421 C 27.396 116.081, 35.007 110.200, 49.740 92.775 C 53.332 88.526, 56.609 85.258, 57.022 85.514 C 57.435 85.769, 58.085 87.670, 58.466 89.739 C 59.404 94.835, 62.621 101.957, 65.299 104.866 C 66.509 106.182, 69.072 107.927, 70.994 108.744 L 74.487 110.231 67.494 112.021 C 41.202 118.751, 27.657 130.812, 27.650 147.500 C 27.647 156.635, 30.252 163.142, 35.972 168.285 C 52.885 183.491, 85.865 188.239, 131.421 182.025 C 153.004 179.081, 160.998 174.813, 166.710 163.182 C 169.070 158.376, 169.498 156.255, 169.487 149.421 C 169.475 142.130, 169.112 140.610, 165.761 133.831 C 159.232 120.620, 146.661 111.640, 132.897 110.355 L 126.492 109.757 123.996 113.615 C 118.199 122.573, 111.630 121.201, 101.894 109 C 99.919 106.525, 97.176 102.569, 95.798 100.208 L 93.293 95.916 97.122 88.208 C 99.228 83.969, 101.794 76.903, 102.825 72.506 L 104.699 64.513 105.427 73.006 C 106.240 82.482, 108.288 94.087, 109.876 98.210 C 113.985 108.877, 123.690 106.862, 134.505 93.097 C 137.140 89.744, 139.445 87, 139.627 87 C 139.810 87, 141.701 87.697, 143.831 88.549 C 146.183 89.490, 149.028 91.868, 151.083 94.611 C 152.943 97.093, 155.934 100.032, 157.730 101.142 C 165.510 105.950, 171.548 99.797, 175.532 83 C 177.484 74.768, 178.743 45.101, 177.547 35.526 C 176.890 30.268, 176.772 30.096, 174.183 30.610 C 172.707 30.903, 160.025 31.693, 146 32.366 C 120.825 33.574, 120.411 33.561, 113.500 31.397 C 105.231 28.807, 89.886 25.582, 78 23.936 C 69.978 22.825, 69.416 22.586, 68 19.681 C 65.899 15.371, 64 15.061, 64 19.028 C 64 22.080, 63.855 22.198, 60.750 21.664 C 58.962 21.357, 54.966 20.812, 51.870 20.453 C 46.981 19.885, 46.305 19.549, 46.736 17.900 C 47.509 14.946, 45.358 15.659, 42.663 19.250 M 71.579 28.250 C 71.971 29.488, 73.056 32.750, 73.990 35.500 L 75.687 40.500 86.290 40.783 C 96.453 41.055, 96.944 40.972, 98.097 38.783 C 99.682 35.774, 100.894 35.048, 104.500 34.945 C 106.150 34.898, 108.400 34.506, 109.500 34.074 C 111.674 33.220, 100.501 30.408, 83.500 27.530 C 71.250 25.456, 70.703 25.489, 71.579 28.250 M 148.500 35.055 C 141.350 35.449, 133.485 35.823, 131.022 35.886 L 126.544 36 130.345 39.133 C 134.138 42.259, 135.216 43.978, 142.204 58.044 C 145.548 64.774, 152.207 84.734, 153.444 91.734 C 154.053 95.180, 159.252 100, 162.361 100 C 163.642 100, 165.418 99.196, 166.307 98.213 C 172.624 91.233, 177.065 64.715, 175.473 43.478 L 174.762 34 168.131 34.169 C 164.484 34.262, 155.650 34.661, 148.500 35.055 M 115 36.659 C 103.025 37.821, 101 38.224, 101 39.446 C 101 40.412, 103.905 40.864, 112.250 41.196 C 121.011 41.545, 124.597 42.134, 128.458 43.858 L 133.416 46.071 130.958 43.437 C 128.864 41.192, 119.637 35.677, 118.783 36.160 C 118.627 36.248, 116.925 36.473, 115 36.659 M 86.750 43.792 C 82.487 43.953, 79 44.353, 79 44.682 C 79 45.560, 82.158 47.925, 84.806 49.031 C 86.452 49.718, 87.904 49.584, 89.879 48.563 C 92.578 47.167, 95.677 44.177, 94.893 43.726 C 94.677 43.602, 91.013 43.631, 86.750 43.792 M 95.297 47.472 C 91.725 51.321, 90.521 52, 87.270 52 C 85.166 52, 82.401 51.269, 81.125 50.375 C 78.325 48.414, 77.863 46.137, 85.462 71.776 C 90.077 87.344, 91.708 91.658, 92.675 90.855 C 94.764 89.121, 99.885 74.625, 101.041 67.171 C 102.083 60.459, 101.450 52.862, 99.413 47.614 C 98.379 44.947, 100.863 45.936, 103.258 49.144 C 105.158 51.689, 106.432 58.375, 109.368 81.213 C 111.034 94.172, 113.626 101.429, 116.967 102.489 C 120.012 103.456, 125.738 99.428, 131.975 91.934 L 137.060 85.824 133.086 81.967 C 127.212 76.267, 126.891 72.840, 131.095 60.685 L 134.500 50.838 132.131 48.912 C 128.611 46.051, 120.729 44.174, 109.500 43.524 L 99.500 42.945 95.297 47.472 M 73.020 45.524 C 73.716 46.362, 74.491 46.842, 74.743 46.591 C 75.436 45.897, 74.027 44, 72.819 44 C 72.155 44, 72.231 44.574, 73.020 45.524 M 73.209 54.007 C 75.070 58.219, 76.630 60.683, 76.818 59.706 C 77.354 56.923, 75.138 51.478, 72.437 48.941 C 69.994 46.645, 70.013 46.770, 73.209 54.007 M 62.715 58.750 C 57.992 73.143, 57.571 75.525, 59.079 79.316 C 59.775 81.067, 60.451 82.646, 60.580 82.824 C 61.321 83.847, 67.462 79.345, 69.882 76.005 C 75.621 68.081, 75.710 67.039, 71.492 56.981 C 69.421 52.042, 67.392 48, 66.984 48 C 66.577 48, 64.655 52.837, 62.715 58.750 M 133.750 61.361 C 132.238 65.397, 131 69.915, 131 71.399 C 131 75.017, 133.342 79.339, 136.381 81.330 C 138.811 82.922, 138.911 82.880, 141.097 79.344 L 143.330 75.730 146.118 81.115 C 147.651 84.077, 148.927 86.168, 148.953 85.762 C 149.157 82.569, 138.499 53.986, 137.113 54.011 C 136.776 54.017, 135.262 57.324, 133.750 61.361 M 78.780 63.750 C 78.531 64.713, 79.601 68.200, 81.159 71.500 C 82.717 74.800, 83.794 76.600, 83.552 75.500 C 82.683 71.540, 79.851 62, 79.546 62 C 79.374 62, 79.029 62.788, 78.780 63.750 M 73.622 75.387 C 69.899 80.794, 66.022 84.224, 62.298 85.405 C 60.179 86.078, 60.166 86.197, 61.664 91.296 C 64.579 101.218, 69.382 107, 74.709 107 C 77.423 107, 85.334 101.750, 87.715 98.369 L 89.735 95.500 83.474 82.837 L 77.213 70.173 73.622 75.387 M 141.676 83.401 C 141.356 84.235, 141.921 85.008, 143.069 85.308 C 145.216 85.869, 145.252 85.821, 144.393 83.582 C 143.642 81.624, 142.390 81.541, 141.676 83.401 M 89.556 100.198 C 88.541 102.559, 82.389 107.090, 78.090 108.642 C 74.842 109.815, 75.358 109.880, 83.500 109.330 C 88.450 108.996, 92.649 108.598, 92.832 108.446 C 93.015 108.294, 92.516 105.994, 91.725 103.335 C 90.659 99.753, 90.097 98.940, 89.556 100.198 M 95.710 107 C 95.998 108.100, 96.647 109, 97.152 109 C 97.659 109, 97.591 108.105, 97 107 C 96.411 105.900, 95.763 105, 95.558 105 C 95.354 105, 95.423 105.900, 95.710 107 M 77 112.690 C 52.929 117.079, 35.862 127.151, 31.676 139.437 C 29.580 145.588, 29.571 148.841, 31.630 156.176 C 37.549 177.274, 76.959 186.562, 130.500 179.479 C 146.015 177.426, 152.258 175.285, 158.337 169.934 C 177.548 153.025, 161.949 116.624, 134.078 113.323 C 129.047 112.727, 128.961 112.764, 124.680 117.361 C 120.984 121.330, 119.803 122, 116.507 122 L 112.653 122 121.663 128.750 C 133.531 137.642, 137.534 141.224, 140.523 145.629 C 143.683 150.285, 143.636 151.518, 140.165 154.989 C 136.402 158.752, 129.225 160.779, 113.500 162.522 C 106.350 163.314, 97.800 164.447, 94.500 165.039 C 78.164 167.971, 61.833 158.271, 61.833 145.636 C 61.833 138.823, 64.412 135.055, 71.510 131.500 C 77.122 128.689, 78.179 128.508, 88.250 128.623 C 94.162 128.691, 98.989 128.691, 98.976 128.623 C 98.963 128.555, 97.903 124.900, 96.621 120.500 L 94.289 112.500 86.895 112.367 C 82.828 112.294, 78.375 112.440, 77 112.690 M 97.588 114.250 C 97.985 115.487, 99.336 120.213, 100.589 124.751 L 102.867 133.002 98.683 132.251 C 96.383 131.838, 90.675 131.500, 86 131.500 C 75.200 131.500, 68.536 134.379, 65.647 140.293 C 62.980 145.753, 64.079 150.132, 69.469 155.522 C 76.504 162.557, 85.489 164.410, 98.803 161.573 C 102.486 160.788, 109.301 159.870, 113.946 159.533 C 128.302 158.492, 138.394 155.484, 139.529 151.908 C 140.904 147.577, 137.003 143.493, 117.425 128.769 C 111.883 124.601, 105.281 119.123, 102.754 116.596 C 97.610 111.452, 96.532 110.963, 97.588 114.250" stroke="none" fill="black" fill-rule="evenodd"/>
</svg>