<svg xmlns="http://www.w3.org/2000/svg" width="200" height="200" viewBox="0 0 200 200" version="1.1">
	<path d="M 95.254 11.460 C 90.222 13.032, 81.670 18.343, 79.231 21.410 C 77.939 23.034, 75.627 23.874, 70.122 24.719 C 55.895 26.903, 46.187 33.707, 40.158 45.720 C 36.625 52.761, 35.070 58.137, 30.993 77.402 C 26.797 97.234, 23.733 103.853, 16.577 108.541 C 15.058 109.537, 13.678 112.087, 12.622 115.851 C 6.646 137.149, 16.606 150.322, 41.625 154.212 C 46.942 155.039, 49 155.770, 49 156.834 C 49 158.054, 49.327 158.014, 50.885 156.604 C 52.333 155.294, 54.231 154.968, 59.079 155.199 L 65.389 155.500 67.028 161 C 72.749 180.201, 80.938 183.622, 91.854 171.374 C 103.676 158.111, 115.943 123.224, 115.984 102.750 L 116 95 109.599 95 C 104.268 95, 80.253 91.586, 79.370 90.703 C 79.042 90.375, 115.507 78, 116.801 78 C 118.347 78, 119.148 102.717, 118.015 115.479 C 116.481 132.759, 113.834 142.786, 107.467 155.431 C 102.020 166.248, 100.819 171.419, 103.200 173.800 C 105.223 175.823, 113.534 175.147, 126.308 171.921 C 146.983 166.701, 156.367 166.749, 162.471 172.109 L 165.899 175.118 167.896 171.204 C 171.487 164.166, 177.889 144.196, 180.068 133.235 C 184.433 111.289, 183.579 85.172, 177.938 68.033 C 175.320 60.078, 170.317 50, 168.986 50 C 167.388 50, 167.820 51.701, 171.034 58.068 C 172.703 61.373, 175.289 68.448, 176.781 73.789 C 179.331 82.918, 179.493 84.728, 179.476 104 C 179.460 122.944, 179.245 125.411, 176.641 136.500 C 174.316 146.398, 167.065 168.268, 165.634 169.700 C 165.424 169.910, 163.508 169.050, 161.376 167.791 C 155.774 164.480, 143.181 164.664, 129 168.264 C 106.716 173.921, 105 173.973, 105 168.980 C 105 167.393, 106.857 162.586, 109.127 158.298 C 118.676 140.256, 121.332 126.303, 120.841 96.769 L 120.500 76.301 132.153 72.150 C 138.562 69.868, 144.357 68, 145.031 68 C 146.603 68, 145.967 73.001, 141.475 96 C 136.312 122.431, 135.008 131.618, 135.004 141.602 C 135.001 149.424, 135.321 151.182, 137.282 154.102 C 138.909 156.525, 140.443 157.587, 142.628 157.802 L 145.693 158.104 146.339 149.302 C 146.695 144.461, 148.343 135.325, 150.003 129 C 158.063 98.292, 158.397 96.629, 158.445 87 C 158.488 78.318, 158.239 77.043, 155.559 72.199 C 150.659 63.341, 141.374 58.120, 126.375 55.788 C 117.763 54.449, 117.448 53.762, 121.374 44.874 C 126.251 33.837, 127.015 25.158, 123.427 21.570 C 121.085 19.228, 113.471 19.648, 106.528 22.502 C 102.635 24.103, 100.216 24.616, 99.578 23.978 C 97.401 21.801, 94.347 23.209, 89.022 28.843 C 85.985 32.057, 81.452 35.872, 78.948 37.322 L 74.396 39.958 71.678 34.416 C 70.183 31.368, 69.220 28.452, 69.539 27.937 C 69.857 27.422, 71.861 27, 73.992 27 C 77.282 27, 78.629 26.258, 82.922 22.076 C 89.702 15.472, 96.882 12.725, 107.500 12.674 C 120.567 12.610, 133.676 18.057, 143.203 27.508 C 151.107 35.350, 153.472 40.634, 153.623 50.789 C 153.690 55.349, 154.015 59.349, 154.345 59.678 C 155.691 61.024, 157.160 54.104, 156.727 48.456 C 155.523 32.756, 140.701 17.441, 121.068 11.612 C 114.533 9.672, 101.228 9.594, 95.254 11.460 M 110.617 23.987 C 107.381 25.020, 104.357 26.243, 103.896 26.704 C 103.435 27.165, 103.720 29.742, 104.529 32.430 C 105.338 35.118, 106 41.071, 106 45.659 L 106 54 108.750 54.014 C 110.263 54.021, 112.459 54.285, 113.631 54.599 C 115.435 55.083, 115.838 54.659, 116.265 51.835 C 116.542 50.001, 117.983 45.639, 119.468 42.142 C 120.952 38.645, 122.424 33.290, 122.739 30.242 C 123.218 25.595, 123.013 24.482, 121.464 23.350 C 119.100 21.621, 117.780 21.699, 110.617 23.987 M 93.573 27.521 C 90.658 29.727, 92.085 29.984, 95.500 27.869 C 97.150 26.847, 97.825 26.022, 97 26.037 C 96.175 26.052, 94.633 26.720, 93.573 27.521 M 63 28.935 C 57.762 30.534, 52.230 34.003, 48.717 37.892 C 41.786 45.564, 38.715 53.816, 33.462 78.891 C 29.716 96.774, 27.728 101.536, 21.429 107.716 C 15.426 113.605, 14.014 117.233, 14.006 126.782 C 13.999 134.264, 15.583 138.381, 20.131 142.699 C 24.779 147.112, 31.484 149.854, 41.029 151.245 C 50.253 152.590, 50.397 152.508, 51.475 145.321 C 51.833 142.930, 54.123 132.565, 56.563 122.289 C 59.003 112.013, 61 103.469, 61 103.302 C 61 103.136, 60.315 103, 59.478 103 C 57.230 103, 52.451 111.161, 48.225 122.216 C 46.059 127.884, 43.932 131.970, 43.142 131.981 C 42.153 131.995, 41.976 131.252, 42.493 129.250 C 45.279 118.455, 44.668 111.015, 40.502 105.003 C 38.813 102.566, 38.043 100.566, 38.588 100.034 C 39.090 99.545, 44.861 97.558, 51.412 95.619 C 57.964 93.679, 63.678 91.520, 64.111 90.821 C 64.638 89.968, 63.760 88.899, 61.449 87.578 C 55.940 84.429, 57.122 80.810, 64.085 79.509 C 67.345 78.900, 67.819 78.371, 69.324 73.670 C 70.546 69.851, 70.669 68.396, 69.796 68.102 C 68.168 67.555, 64 63.296, 64 62.180 C 64 59.677, 68.410 55.958, 72.072 55.372 C 74.233 55.027, 76 54.659, 76 54.554 C 76 54.449, 75.332 52.114, 74.516 49.365 L 73.032 44.368 65.050 48.334 C 58.249 51.714, 56.832 52.105, 55.470 50.975 C 53.194 49.086, 54.266 45.756, 59.805 37.514 C 65.559 28.953, 66.179 27.977, 65.800 28.086 C 65.635 28.133, 64.375 28.515, 63 28.935 M 93 32.351 C 87.257 35.769, 84.925 38.970, 81.128 48.651 L 79.107 53.801 86.991 54.499 C 91.327 54.883, 96.703 54.888, 98.937 54.511 L 103 53.824 102.994 45.162 C 102.988 35.749, 101.606 28.977, 99.703 29.039 C 99.041 29.060, 96.025 30.551, 93 32.351 M 61.750 39.328 C 57.352 46.088, 56.104 49, 57.604 49 C 57.936 49, 61.297 47.377, 65.072 45.393 L 71.937 41.785 70.378 38.143 C 69.520 36.139, 68.586 33.938, 68.302 33.250 C 67.413 31.098, 66.632 31.822, 61.750 39.328 M 78.750 40.620 C 75.972 42.078, 75.498 43.855, 76.917 47.490 C 77.580 49.186, 78.013 48.759, 79.859 44.585 C 81.050 41.893, 81.906 39.575, 81.762 39.434 C 81.618 39.292, 80.263 39.826, 78.750 40.620 M 78.686 61.302 C 78.327 63.984, 77.299 66.149, 75.817 67.349 C 73.907 68.896, 71.074 75.326, 71.015 78.250 C 70.993 79.360, 83.922 79.149, 88.168 77.970 C 92.865 76.666, 97.233 71.665, 99.897 64.544 C 101.054 61.454, 102 58.550, 102 58.093 C 102 57.635, 96.880 57.230, 90.623 57.192 L 79.247 57.124 78.686 61.302 M 103.937 61.233 C 101.326 70.931, 95.113 79.307, 89.673 80.462 C 88.478 80.716, 83.808 81.056, 79.295 81.217 C 70.821 81.520, 69.679 81.994, 68.573 85.662 C 68.027 87.472, 68.417 87.933, 70.967 88.493 C 73.288 89.003, 79.132 87.456, 95.507 81.998 L 117 74.834 117 70.556 C 117 68.204, 116.714 64.191, 116.364 61.640 L 115.728 57 110.403 57 L 105.077 57 103.937 61.233 M 68.750 59.080 C 66.359 60.473, 66.554 62.572, 69.250 64.471 C 71.396 65.982, 71.556 65.927, 72.705 63.278 C 73.368 61.750, 73.930 59.938, 73.955 59.250 C 74.009 57.753, 71.186 57.661, 68.750 59.080 M 119.441 65.105 C 119.841 69.172, 120.342 72.673, 120.552 72.884 C 120.763 73.096, 126.393 71.338, 133.063 68.978 C 142.134 65.768, 144.784 64.459, 143.576 63.783 C 139.914 61.733, 130.573 59.051, 124.838 58.402 L 118.713 57.709 119.441 65.105 M 148.461 72.750 C 148.098 75.362, 145.845 87.625, 143.456 100 C 138.809 124.065, 136.679 140.867, 137.600 146.203 C 138.612 152.069, 140.138 155, 142.180 155 C 143.246 155, 143.872 154.603, 143.572 154.117 C 142.409 152.234, 145.255 135.760, 149.467 120 C 155.349 97.994, 156.358 92.244, 155.772 84.059 C 155.410 78.999, 154.560 75.925, 152.597 72.575 C 151.122 70.059, 149.737 68, 149.519 68 C 149.301 68, 148.825 70.138, 148.461 72.750 M 62 83.015 C 60.667 83.891, 60.667 84.109, 62 84.985 C 64.321 86.508, 65.718 86.187, 66.290 84 C 66.868 81.788, 64.646 81.278, 62 83.015 M 69.339 93.202 C 66.726 94.059, 65.985 95.003, 65.068 98.646 C 64.268 101.821, 64.261 103.619, 65.042 105.078 C 66.032 106.929, 66.358 106.645, 68.813 101.802 C 70.916 97.652, 72.077 96.433, 74.157 96.193 C 79.227 95.606, 83.672 103.291, 89.549 122.806 C 91.486 129.238, 93.303 135.266, 93.588 136.203 C 93.961 137.431, 92.987 138.476, 90.092 139.953 C 80.746 144.721, 74.950 140.480, 69.178 124.648 L 66.365 116.933 63.081 128.669 C 61.274 135.123, 58.717 142.844, 57.398 145.826 C 56.079 148.809, 55 151.623, 55 152.081 C 55 152.538, 58.263 153.045, 62.250 153.206 C 69.433 153.497, 69.497 153.525, 69.227 156.152 C 68.865 159.683, 72.534 169.293, 75.667 173.016 C 78.678 176.594, 81.685 176.816, 85.613 173.750 C 90.550 169.897, 92.807 166.813, 97.872 157 C 106.071 141.116, 112.021 121.627, 113.505 105.795 L 114.208 98.292 105.354 97.582 C 97.905 96.985, 89.297 95.593, 75 92.675 C 73.625 92.394, 71.077 92.631, 69.339 93.202 M 52.624 98.089 C 47.192 99.646, 42.530 101.137, 42.265 101.402 C 41.999 101.668, 42.777 103.282, 43.992 104.989 C 45.208 106.697, 46.446 109.909, 46.744 112.127 L 47.285 116.161 50.642 109.831 C 54.376 102.790, 57.513 99.639, 60.113 100.319 C 61.315 100.634, 62.032 100.010, 62.469 98.268 C 62.815 96.891, 62.963 95.650, 62.799 95.511 C 62.634 95.371, 58.056 96.531, 52.624 98.089 M 72.571 100.201 C 71.721 101.416, 70.310 104.561, 69.437 107.190 C 67.981 111.573, 67.985 112.436, 69.482 117.586 C 74.667 135.421, 80.971 142.038, 88.660 137.715 L 90.820 136.500 87.352 125 C 83.248 111.395, 78.347 100.256, 75.884 98.938 C 74.534 98.216, 73.754 98.513, 72.571 100.201 M 62.610 109 C 61.568 111.645, 54.065 145.398, 54.436 145.769 C 54.916 146.249, 59.301 132.702, 62.392 121.191 C 64.084 114.893, 64.619 111.174, 64.046 109.691 C 63.387 107.982, 63.070 107.830, 62.610 109" stroke="none" fill="black" fill-rule="evenodd"/>
</svg>