<svg xmlns="http://www.w3.org/2000/svg" width="200" height="200" viewBox="0 0 200 200" version="1.1">
	<path d="M 93.922 16.274 C 92.066 17.524, 89.552 20.026, 88.334 21.832 L 86.121 25.117 85.810 20.808 C 85.513 16.677, 85.377 16.513, 82.500 16.807 C 77.409 17.327, 70.987 21.056, 65.391 26.742 L 60.036 32.183 49.198 29.592 C 43.237 28.166, 35.994 27, 33.103 27 C 28.575 27, 27.423 27.423, 24.793 30.054 C 21.857 32.989, 21.759 33.365, 22.256 39.804 C 22.880 47.901, 27.548 61.111, 29.517 60.355 C 30.567 59.952, 30.321 58.435, 28.365 53.237 C 23.789 41.080, 23.422 33.259, 27.313 30.786 C 30.227 28.933, 44.843 30.734, 57.660 34.525 C 58.451 34.759, 58.033 36.818, 56.349 40.987 C 51.546 52.879, 51.341 63.785, 55.836 68.281 C 59.759 72.203, 66.725 67.692, 74.734 56.043 C 77.209 52.444, 78.966 50.297, 78.640 51.271 C 78.313 52.245, 77.495 58.831, 76.820 65.906 L 75.594 78.770 71.047 79.325 C 68.546 79.631, 61.325 81.956, 55 84.491 C 48.675 87.026, 41.184 89.361, 38.354 89.680 C 33.715 90.201, 33.088 90.033, 31.985 87.972 C 31.189 86.485, 30.920 82.941, 31.215 77.843 C 31.546 72.125, 31.342 70, 30.460 70 C 28.038 70, 27.040 83.798, 29.130 88.385 C 30.557 91.518, 35.048 93.416, 39.372 92.714 C 41.209 92.416, 48.045 90.087, 54.562 87.539 C 61.080 84.990, 68.345 82.640, 70.707 82.317 L 75 81.728 75 95.351 L 75 108.974 67.642 108.353 C 60.114 107.716, 37 109.672, 37 110.945 C 37 112.119, 40.996 115.321, 51.432 122.510 C 56.895 126.273, 64.696 132.517, 68.768 136.385 C 84.632 151.454, 83.635 158.992, 64.928 165.431 C 42.843 173.032, 29.109 179.120, 28.267 181.682 C 26.991 185.566, 36.363 185.451, 63.817 181.246 C 74.559 179.601, 75.261 179.347, 77.625 176.247 C 81.471 171.205, 87.275 168.712, 94.981 168.793 C 101.913 168.865, 109.316 170.846, 129.500 178.026 C 148.262 184.701, 158.638 184.593, 164.727 177.659 C 166.281 175.888, 169.221 173.408, 171.260 172.148 C 176.726 168.770, 179.214 165.269, 177.897 162.808 C 176.329 159.879, 171.983 158.469, 157 156.033 C 134.134 152.314, 130.534 149.289, 138.797 140.736 C 140.796 138.666, 146.369 134.391, 151.181 131.236 C 166.194 121.392, 166.353 118.521, 152.971 98.792 C 148.059 91.551, 144.169 85.498, 144.326 85.341 C 144.483 85.184, 148.338 85.945, 152.892 87.033 C 157.447 88.121, 161.549 88.779, 162.009 88.495 C 162.468 88.211, 163.762 85.171, 164.884 81.739 C 171.516 61.447, 169.696 38.784, 160.752 30.319 C 156.351 26.152, 153.846 25, 149.191 25 C 144.186 25, 138.831 26.892, 132.084 31.044 C 127.001 34.171, 126.710 34.233, 125.703 32.410 C 125.122 31.360, 121.965 27.698, 118.688 24.273 C 109.090 14.246, 100.871 11.591, 93.922 16.274 M 93.683 19.973 C 90.674 22.616, 86.429 30.401, 84.536 36.750 C 83.886 38.931, 84.077 39, 90.775 39 C 103.686 39, 125 37.693, 125 36.901 C 125 36.468, 122.848 33.309, 120.217 29.883 C 110.586 17.335, 100.835 13.694, 93.683 19.973 M 76.222 22.047 C 69.195 25.559, 63.006 31.755, 65.161 33.121 C 65.897 33.587, 68.897 33.976, 71.827 33.985 C 76.392 33.998, 77.572 33.582, 80.077 31.077 C 82.456 28.698, 83 27.302, 83 23.577 C 83 21.060, 82.847 19, 82.660 19 C 82.473 19, 79.576 20.371, 76.222 22.047 M 141.500 29.229 C 139.850 29.818, 136.025 31.920, 133 33.900 L 127.500 37.500 131.989 37.819 C 135.865 38.095, 136.772 37.770, 138.628 35.442 C 141.088 32.356, 143.348 32.886, 142.101 36.256 C 141.588 37.644, 141.823 39.725, 142.741 41.923 C 144.657 46.509, 143.722 52.045, 139.878 58.863 C 136.975 64.014, 136.903 64.431, 138.063 69.363 C 138.727 72.189, 139.913 76.136, 140.698 78.135 C 142.085 81.669, 142.378 81.828, 151.246 83.897 C 158.441 85.574, 160.535 85.757, 161.160 84.762 C 161.596 84.068, 162.920 79.329, 164.104 74.231 C 167.195 60.915, 166.557 45.702, 162.566 37.545 C 160.848 34.035, 158.561 31.094, 156.635 29.919 C 153.161 27.801, 146.367 27.491, 141.500 29.229 M 79 35.173 C 76.068 36.788, 74.324 36.998, 68.250 36.465 C 63.679 36.064, 61 36.197, 61 36.825 C 61 37.839, 76.162 39.501, 79.515 38.855 C 80.528 38.660, 81.687 37.263, 82.092 35.750 C 82.496 34.237, 82.753 33.055, 82.664 33.123 C 82.574 33.190, 80.925 34.113, 79 35.173 M 58.233 43.388 C 57.634 44.702, 56.608 48.505, 55.952 51.839 C 54.039 61.560, 56.218 68.018, 60.907 66.529 C 63.694 65.645, 71.312 56.946, 75.103 50.319 C 77.673 45.829, 78.009 44.617, 76.885 43.896 C 74.405 42.305, 68.600 41.011, 63.911 41.006 C 60.040 41.001, 59.151 41.374, 58.233 43.388 M 87.846 41.731 C 82.440 42.162, 82.822 41.330, 80.613 57.500 C 77.984 76.750, 77.961 79.034, 80.389 79.963 C 85.840 82.048, 88.892 89.097, 88.956 99.750 C 88.984 104.343, 89.404 107, 90.103 107 C 90.710 107, 95.487 102.949, 100.719 97.997 C 113.074 86.305, 121.416 81.931, 131.844 81.675 C 137.781 81.530, 138.892 81.244, 138.364 80 C 138.014 79.175, 137.032 76.025, 136.183 73 C 135.333 69.975, 134.523 67.342, 134.384 67.149 C 134.245 66.956, 132.864 68.008, 131.315 69.488 C 122.900 77.530, 116.751 79.092, 116.193 73.330 C 115.806 69.339, 119.237 62.410, 127.622 50.250 L 134.001 41 113.250 41.180 C 101.838 41.279, 90.406 41.527, 87.846 41.731 M 138.138 48.667 C 136.434 57.153, 136.774 59.319, 139.055 54.500 C 140.991 50.409, 141.689 43, 140.138 43 C 139.664 43, 138.764 45.550, 138.138 48.667 M 129.266 52.716 C 123.248 61.527, 119.858 67.554, 118.561 71.750 C 118.016 73.513, 118.258 74, 119.683 73.999 C 122.373 73.998, 132.895 65.359, 133.383 62.750 C 134.213 58.322, 135.829 44.496, 135.550 44.217 C 135.393 44.060, 132.566 47.885, 129.266 52.716 M 78 95.500 L 78 109 80.418 109 C 85.582 109, 86 108.323, 86 99.958 C 86 95.653, 85.520 90.863, 84.933 89.315 C 83.796 86.313, 80.195 82, 78.826 82 C 78.372 82, 78 88.075, 78 95.500 M 123.214 85.891 C 116.496 88.212, 109.004 93.378, 102 100.522 C 97.387 105.226, 96.903 106.037, 99 105.548 C 102.402 104.755, 142.972 97.004, 143.822 96.985 C 144.195 96.976, 145.098 96.590, 145.829 96.127 C 146.863 95.471, 146.359 94.036, 143.548 89.642 L 139.939 84 134.219 84.033 C 131.074 84.051, 126.121 84.887, 123.214 85.891 M 147.840 97.730 C 146.410 100.970, 132.717 108.268, 124.741 110.042 L 118.981 111.322 120.681 113.911 C 123.011 117.461, 122.819 124.591, 120.260 129.500 C 112.659 144.083, 96.230 147.357, 79.591 137.606 L 75 134.916 75 126.531 L 75 118.147 65.250 118.324 C 57.172 118.470, 55.500 118.243, 55.500 117 C 55.500 116.002, 58.008 114.741, 63 113.231 L 70.500 110.963 57.198 111.367 C 44.057 111.766, 41.097 112.354, 44.008 113.986 C 44.829 114.446, 49.546 117.675, 54.491 121.161 C 67.021 129.996, 79.227 142.231, 81.471 148.207 C 85.367 158.582, 81.401 162.401, 57.875 170.926 C 48.319 174.389, 38.475 178.317, 36 179.654 L 31.500 182.085 39.500 181.496 C 43.900 181.172, 53.339 180.007, 60.475 178.908 C 72.930 176.989, 73.560 176.776, 76.181 173.597 C 77.682 171.775, 81.284 169.264, 84.185 168.016 C 92.790 164.314, 101.517 165.411, 122.798 172.868 C 150.155 182.454, 155.225 182.698, 163.875 174.845 C 166.508 172.455, 170.356 169.209, 172.426 167.631 C 178.567 162.952, 177.943 162.677, 149.398 157.470 C 144.392 156.557, 138.542 154.829, 136.398 153.630 C 133.120 151.797, 132.451 150.868, 132.194 147.790 C 131.779 142.841, 136.327 137.888, 149.079 129.399 C 159.144 122.698, 160 121.732, 160 117.073 C 160 113.583, 148.745 95.679, 147.840 97.730 M 115.628 105.038 C 104.699 107.168, 95.474 109.213, 95.128 109.583 C 94.783 109.953, 96.750 109.863, 99.500 109.382 C 102.250 108.901, 107.366 108.616, 110.869 108.748 C 118.537 109.038, 128.323 106.912, 134.767 103.557 C 141.042 100.290, 139.305 100.425, 115.628 105.038 M 78.459 113.067 C 78.096 113.653, 78.038 114.371, 78.328 114.662 C 79.149 115.482, 85 113.956, 85 112.921 C 85 111.635, 79.264 111.763, 78.459 113.067 M 93.500 114.519 C 90.200 115.879, 86.074 116.993, 84.332 116.995 C 78.333 117.004, 78 117.480, 78 126.044 L 78 133.875 84.250 136.873 C 92.539 140.849, 97.610 141.546, 104.234 139.620 C 112.355 137.259, 119.909 128.422, 119.978 121.200 C 120.007 118.172, 117.493 113.403, 115.455 112.621 C 111.348 111.045, 99.433 112.075, 93.500 114.519 M 68 115 C 65.562 115.781, 65.575 115.801, 68.500 115.830 C 70.150 115.846, 72.400 115.473, 73.500 115 C 75.318 114.219, 75.273 114.143, 73 114.170 C 71.625 114.186, 69.375 114.560, 68 115" stroke="none" fill="black" fill-rule="evenodd"/>
</svg>