<svg xmlns="http://www.w3.org/2000/svg" width="200" height="200" viewBox="0 0 200 200" version="1.1">
	<path d="M 81 21.112 C 51.703 34.091, 29 36.360, 29 26.310 C 29 24.255, 28.732 24.073, 27.038 24.980 C 24.293 26.449, 19.546 33.625, 17.678 39.127 C 14.327 48.999, 13.712 59.896, 14.896 88.406 C 15.673 107.101, 15.711 118.910, 15.018 126.500 C 14.055 137.040, 14.109 137.688, 16.316 142 C 17.582 144.475, 20.167 147.551, 22.059 148.836 C 29.129 153.636, 36.730 149.886, 52.895 133.623 L 62.290 124.171 62.535 94.836 C 62.776 65.933, 64.321 48.279, 66.828 45.772 C 67.497 45.103, 68.360 45.796, 69.427 47.860 C 71.443 51.758, 75.994 68.613, 75.997 72.193 C 75.999 73.675, 74.425 81.301, 72.500 89.141 C 66.977 111.632, 67.810 120.538, 76.052 127.162 L 79.809 130.181 72.845 140.841 C 59.495 161.277, 53.631 175.789, 57.444 178.954 C 62.633 183.260, 77.163 168.493, 98.231 137.500 C 108.725 122.063, 112 116.202, 112 112.860 C 112 111.638, 110.140 107.785, 107.868 104.297 C 105.595 100.808, 102.701 95.104, 101.437 91.622 L 99.138 85.290 104.838 83.705 C 111.721 81.791, 115.537 78.270, 114.450 74.835 C 114.044 73.551, 110.686 69.350, 106.987 65.500 C 103.288 61.650, 99.753 57.517, 99.131 56.316 C 96.322 50.890, 99.096 45.072, 106.872 40.082 C 112.247 36.633, 127.138 29.805, 127.813 30.480 C 128.029 30.696, 127.271 33.713, 126.128 37.186 C 122.346 48.685, 121.642 56.793, 123.432 68.275 C 125.433 81.116, 124.168 86.184, 116.893 94.469 L 113.823 97.966 119.911 103.760 C 128.697 112.120, 128.512 113.723, 117.553 124.179 C 107.851 133.437, 106.840 135.806, 109.973 141.946 C 111.913 145.750, 121.149 153.692, 126.524 156.178 C 128.073 156.895, 129.213 159.729, 131.388 168.263 C 134.800 181.653, 136.717 186, 139.210 186 C 141.551 186, 142.475 183.516, 145.549 168.961 C 149.647 149.551, 153.394 140.495, 159.573 135.070 C 162.929 132.123, 163.726 131.871, 168.382 132.280 C 171.197 132.528, 174.507 133.067, 175.737 133.478 C 177.872 134.192, 177.925 134.082, 176.878 131.081 C 175.483 127.077, 171.250 122.850, 164.122 118.341 C 157.008 113.842, 153 110.096, 153 107.948 C 153 103.490, 161.029 98.060, 177.362 91.471 C 185.061 88.365, 188.128 86, 184.457 86 C 183.517 86, 178.637 86.701, 173.613 87.557 C 163.177 89.336, 152.879 89.170, 152.233 87.213 C 152 86.505, 155.831 81.780, 160.746 76.713 C 170.903 66.244, 173 63.452, 173 60.400 C 173 56.654, 170.334 55.501, 161.624 55.482 C 153.970 55.465, 153.481 55.329, 152.086 52.844 C 149.787 48.749, 151.906 43.770, 160.505 33.060 C 164.669 27.874, 167.932 22.926, 167.757 22.065 C 167.186 19.268, 157.707 20.352, 144.331 24.744 C 135.105 27.774, 132.305 28.370, 132.750 27.209 C 133.203 26.029, 132.827 25.812, 131.110 26.261 C 129.737 26.620, 127.079 25.908, 124.178 24.403 C 121.591 23.060, 117.230 21.706, 114.487 21.393 C 98.961 19.622, 72.929 32.102, 52.750 50.990 L 44 59.180 44 50.042 L 44 40.903 54.750 35.852 C 60.663 33.075, 69.550 29.245, 74.500 27.341 C 88.438 21.982, 95.098 18.794, 94.720 17.661 C 94.050 15.650, 92.386 16.068, 81 21.112 M 159.500 23.118 C 152.693 24.679, 133.265 31.086, 131.579 32.325 C 130.700 32.971, 129.011 36.875, 127.826 41 C 125.463 49.229, 125.059 58.654, 126.433 73.528 C 127.203 81.863, 127.092 82.899, 124.989 87.028 C 123.736 89.488, 121.619 92.935, 120.284 94.688 L 117.857 97.876 121.993 101.613 C 131.929 110.589, 131.244 116.456, 119.104 126.383 C 115.820 129.068, 112.598 132.556, 111.945 134.133 C 109.687 139.585, 113.721 145.025, 125.281 152.115 L 130.799 155.500 134.005 167.703 C 138.449 184.618, 139.216 185.362, 141.405 174.875 C 148.673 140.062, 155.224 129, 168.573 129 C 174.507 129, 173.937 128.230, 161.903 119.988 C 156.981 116.616, 152.239 112.768, 151.366 111.436 C 148.002 106.301, 151.952 100.935, 163.675 94.719 L 170.500 91.100 163.359 91.686 C 154.888 92.381, 151.437 91.684, 149.994 88.988 C 148.481 86.162, 149.872 84.009, 160 73.500 C 164.771 68.550, 169.203 63.506, 169.850 62.292 C 171.579 59.044, 168.431 57.754, 159.757 58.155 C 153.056 58.465, 152.599 58.343, 150.653 55.737 C 146.408 50.051, 149.018 42.145, 158.983 30.500 C 162.278 26.650, 164.980 23.163, 164.987 22.750 C 165.002 21.883, 164.836 21.895, 159.500 23.118 M 100 25.528 C 93.137 27.418, 79.843 33.705, 73.076 38.263 C 68.571 41.297, 68.142 41.873, 69.533 43.028 C 71.758 44.874, 73.674 49.851, 76.594 61.371 C 79.436 72.583, 79.394 73.288, 74.813 91 C 71.098 105.361, 70.688 115.068, 73.584 120.028 C 75.376 123.095, 80.207 127.236, 83.132 128.211 C 83.701 128.400, 80.909 133.436, 76.928 139.400 C 64.538 157.960, 55.926 177, 59.922 177 C 61.890 177, 69.743 170.097, 75.974 162.889 C 83.222 154.505, 100.970 129.574, 105.852 120.919 C 107.583 117.850, 109 114.248, 109 112.916 C 109 111.584, 107.462 108.330, 105.582 105.686 C 101.873 100.470, 97.305 89.951, 96.809 85.488 C 96.517 82.848, 96.809 82.628, 102.289 81.364 C 109.360 79.733, 112 78.395, 112 76.442 C 112 75.624, 108.643 71.366, 104.540 66.979 C 93.290 54.948, 92.543 49.807, 100.839 41.481 C 102.872 39.441, 109.106 35.554, 114.860 32.739 L 125.220 27.671 122.360 26.171 C 118.299 24.040, 106.620 23.705, 100 25.528 M 24.586 31.234 C 21.466 36.004, 18.997 42.973, 18.077 49.606 C 17.533 53.528, 17.306 74.297, 17.552 97.784 C 18.014 142.008, 18.114 142.865, 23.217 146.439 C 28.814 150.360, 34.499 147.501, 48.862 133.542 L 60.223 122.500 59.563 108.500 C 58.824 92.832, 60.387 60.772, 62.351 51.310 L 63.636 45.120 60.068 47.983 C 58.106 49.557, 53.862 53.532, 50.637 56.816 L 44.774 62.786 44.589 86.143 C 44.394 110.673, 43.484 117.347, 39.891 120.599 C 36.888 123.317, 36.565 121.526, 39.116 116.302 C 41.315 111.800, 41.486 110.128, 41.845 89.533 C 42.276 64.764, 42.124 64.435, 35.901 76.695 C 32.964 82.482, 32.500 84.382, 32.500 90.632 C 32.500 97.164, 32.768 98.148, 35.250 100.739 C 37.977 103.585, 38.828 106, 37.104 106 C 35.240 106, 30.071 98.897, 29.424 95.446 C 27.994 87.824, 30.804 78.363, 37.222 69.187 C 40.446 64.577, 40.508 64.278, 41 51.038 L 41.500 37.577 44.801 36.904 C 50.143 35.816, 49.932 34.672, 44.500 35.277 C 37.186 36.093, 30.976 34.673, 28.313 31.577 L 26.068 28.967 24.586 31.234" stroke="none" fill="black" fill-rule="evenodd"/>
</svg>