<svg xmlns="http://www.w3.org/2000/svg" width="200" height="200" viewBox="0 0 200 200" version="1.1">
	<path d="M 79.500 15.639 C 77.850 15.903, 71.775 17.706, 66 19.646 C 60.225 21.587, 49.989 24.025, 43.253 25.065 C 36.517 26.105, 29.317 27.822, 27.253 28.881 C 16.863 34.209, 13.653 44.283, 16.430 62.852 C 18.500 76.695, 19.725 81.043, 21.378 80.408 C 22.455 79.995, 22.379 78.547, 20.971 72.638 C 17.175 56.704, 17.321 43.787, 21.366 37.785 C 25.509 31.637, 29.779 29.849, 46 27.469 L 50.500 26.809 48.239 29.138 C 46.311 31.123, 45.686 31.285, 44.002 30.234 C 41.067 28.401, 40.717 28.676, 41.393 32.280 C 41.818 34.549, 41.403 36.748, 40.046 39.410 C 37.561 44.283, 36.582 50.728, 37.448 56.505 C 38.061 60.590, 38.654 61.369, 43.812 64.866 C 52.277 70.606, 59.828 74.156, 62.832 73.808 C 68.601 73.141, 66.202 65.796, 54.077 47 L 47.949 37.500 63.474 53.367 C 72.013 62.094, 79 69.624, 79 70.100 C 79 71.606, 69.283 75.963, 62.259 77.606 C 57.505 78.718, 52.019 79.086, 43.761 78.844 C 36.701 78.637, 31.918 78.887, 31.761 79.472 C 31.309 81.156, 40.102 82.147, 51.043 81.645 C 62.381 81.124, 71.207 78.788, 77.973 74.517 C 81.612 72.220, 81.862 72.190, 83.394 73.883 C 84.623 75.241, 85 77.811, 85 84.829 L 85 94 80.624 94 C 78.126 94, 73.813 92.923, 70.569 91.488 C 49.036 81.965, 34 83.206, 28.009 95 C 24.326 102.252, 23.652 109.373, 23.852 138.925 L 24.045 167.350 27.675 171.779 C 35.015 180.737, 42.693 184.238, 46.252 180.250 C 49.286 176.851, 50.191 169.436, 50.978 141.546 C 51.827 111.443, 52.829 105.330, 57.361 102.623 C 58.915 101.695, 63.122 101.462, 72.750 101.773 L 86 102.201 86 107.668 C 86 112.401, 85.765 113.067, 84.250 112.627 C 80.253 111.467, 70.718 110.815, 66.652 111.425 C 61.853 112.145, 58 115.048, 58 117.945 C 58 120.067, 61.991 120.877, 77.500 121.904 C 85.879 122.459, 86.522 122.656, 86.821 124.764 C 87.136 126.979, 86.996 127.014, 80.227 126.385 C 72.184 125.637, 67.406 126.874, 63.897 130.612 C 61.924 132.714, 61.513 134.169, 61.574 138.833 C 61.668 145.980, 64.625 152.334, 71.209 159.538 C 82.744 172.160, 99.066 174.268, 110 164.549 C 111.375 163.327, 114.647 161.104, 117.271 159.609 C 135.291 149.343, 134.427 135.106, 115.110 124 C 109.046 120.514, 107.650 119, 110.497 119 C 112.711 119, 119.701 112.326, 120.399 109.546 C 120.731 108.222, 120.564 105.983, 120.026 104.569 C 118.873 101.535, 118.768 101.551, 126.146 103.621 C 138.428 107.067, 143.842 115.834, 142.714 130.450 C 142.415 134.328, 141.395 140.566, 140.448 144.314 C 138.797 150.842, 138.491 151.282, 133.151 154.816 C 127.100 158.820, 123 163.972, 123 167.571 C 123 170.949, 127.458 175.628, 132.519 177.560 C 135.808 178.817, 138.888 179.140, 144.240 178.790 C 155.734 178.040, 162.720 173.414, 167.010 163.713 C 169.600 157.855, 169.850 145.339, 167.544 137 C 166.461 133.080, 166.020 126.598, 166.012 114.440 C 166.002 100.016, 166.469 94.608, 169.033 79.440 C 172.085 61.386, 174.159 33.545, 172.306 35.500 C 171.785 36.050, 169.068 39.438, 166.268 43.030 C 156.651 55.367, 146.702 63, 140.240 63 C 136.534 63, 135 61.350, 135 57.365 C 135 52.510, 136.501 49.448, 141.501 44.102 C 147.270 37.935, 156.053 33.604, 167.250 31.406 C 173.056 30.265, 176 29.235, 176 28.344 C 176 26.658, 175.951 26.660, 165.860 28.645 C 161.262 29.549, 152.702 30.337, 146.838 30.395 C 136.317 30.499, 136.120 30.458, 131.838 27.272 C 122.280 20.161, 120.271 19.029, 114.610 17.562 C 108.704 16.032, 85.124 14.741, 79.500 15.639 M 95 18.648 C 102.071 21.651, 106.628 29.324, 105.563 36.431 C 104.449 43.860, 98.794 54.324, 90.782 63.785 C 85.672 69.818, 86.137 70.187, 104.641 74.797 C 122.359 79.212, 133.132 83.510, 134.938 86.885 C 137.263 91.229, 131.085 94.014, 115.598 95.600 C 111.907 95.978, 109.250 96.648, 109.694 97.088 C 110.137 97.528, 113.650 98.378, 117.500 98.976 C 136.195 101.882, 143.627 108.172, 145.557 122.721 C 146.260 128.017, 144.873 139.117, 142.394 148.040 C 141.018 152.990, 140.378 153.833, 136.393 155.948 C 130.945 158.838, 126 164.268, 126 167.360 C 126 172.510, 132.832 176.011, 142.815 175.978 C 153.774 175.942, 161.899 170.609, 165.121 161.336 C 166.892 156.242, 166.691 145.294, 164.653 135.792 C 161.862 122.779, 162.391 101.613, 166.041 80.277 C 167.713 70.500, 169.361 58.267, 169.702 53.094 L 170.322 43.688 161.411 52.656 C 148.599 65.550, 139.952 69.043, 134.455 63.545 C 131.599 60.690, 131.214 55.818, 133.424 50.528 C 135.204 46.267, 142.403 38.370, 146.448 36.239 L 149.500 34.632 141.672 33.398 C 135.992 32.503, 132.772 31.388, 129.932 29.332 C 127.780 27.775, 124.581 25.476, 122.823 24.224 C 121.064 22.971, 117.347 21.310, 114.563 20.531 C 109.498 19.114, 92.170 17.446, 95 18.648 M 76.500 20.026 C 72.185 20.908, 57.765 25.957, 54.500 27.730 C 53.400 28.328, 51.535 29.870, 50.356 31.158 L 48.212 33.500 65.146 51 C 86.176 72.733, 84.925 73.151, 85.179 44.309 C 85.277 33.139, 85.389 22.988, 85.429 21.750 C 85.511 19.158, 83.063 18.686, 76.500 20.026 M 89.013 20.683 C 89.020 21.132, 89.933 24.393, 91.041 27.929 C 93.564 35.980, 94.505 47.114, 93.159 53 L 92.130 57.500 94.210 55 C 97.660 50.855, 102.295 40.015, 102.716 35.109 C 103.330 27.953, 99.512 23.108, 91.250 20.559 C 90.013 20.178, 89.006 20.233, 89.013 20.683 M 88.162 44 C 88.197 59.048, 88.241 59.369, 89.672 55 C 91.285 50.072, 90.960 35.528, 89.135 31 C 88.395 29.166, 88.136 32.628, 88.162 44 M 41.973 42.250 C 39.759 47.128, 39.345 56.805, 41.250 59.170 C 43.984 62.564, 58.395 71, 61.460 71 C 64.987 71, 62.473 65.231, 51.766 48.750 C 47.925 42.837, 44.585 38, 44.342 38 C 44.100 38, 43.034 39.913, 41.973 42.250 M 93.803 80.750 C 105.499 93.889, 104.637 93.398, 114.714 92.671 C 124.144 91.992, 132.040 90.122, 132.324 88.500 C 132.683 86.457, 120.889 81.807, 105.600 77.963 C 96.933 75.783, 89.380 74, 88.817 74 C 88.255 74, 90.498 77.037, 93.803 80.750 M 88 86.500 L 88 94 95.090 94 L 102.180 94 95.467 86.500 C 91.775 82.375, 88.585 79, 88.377 79 C 88.170 79, 88 82.375, 88 86.500 M 35.898 90.251 C 27.823 95.602, 25.726 106.952, 26.293 142.253 L 26.682 166.500 32.755 172.750 C 40.233 180.445, 43.236 181.025, 45.707 175.250 C 46.986 172.260, 47.459 165.721, 48.039 143 C 48.825 112.242, 49.666 106.810, 54.445 101.653 C 56.889 99.016, 56.995 99, 71.452 99 C 85.760 99, 90.914 97.712, 81.250 96.552 C 75.205 95.827, 71.528 94.832, 61 91.076 C 50.067 87.175, 40.991 86.877, 35.898 90.251 M 94.750 96.725 C 84.445 97.284, 86.414 99.143, 97.023 98.871 C 102.892 98.721, 105.924 98.266, 105.695 97.570 C 105.287 96.330, 103.941 96.226, 94.750 96.725 M 89.386 101.765 C 88.688 102.225, 88.448 104.576, 88.743 108.054 L 89.215 113.608 96.575 115.892 C 104.346 118.304, 108.016 117.962, 113.649 114.300 C 119.300 110.625, 118.877 102.825, 112.961 101.642 C 108.572 100.764, 90.763 100.857, 89.386 101.765 M 63 115.463 C 61.086 116.529, 60.851 116.983, 62 117.400 C 63.277 117.863, 82.324 120, 85.176 120 C 85.705 120, 85.995 118.994, 85.820 117.763 C 85.571 116.023, 84.613 115.370, 81.500 114.821 C 74.906 113.658, 65.666 113.978, 63 115.463 M 89 118.500 C 89 120.139, 92.623 120.526, 94.835 119.123 C 95.831 118.492, 95.578 118.119, 93.835 117.652 C 90.179 116.674, 89 116.880, 89 118.500 M 99.899 121.661 C 98.544 122.023, 98.450 122.753, 99.287 126.410 C 100.517 131.789, 97.976 148.453, 95.555 150.874 C 92.054 154.375, 89.298 148.895, 87.505 134.866 C 86.968 130.669, 86.622 130.174, 83.831 129.616 C 82.137 129.277, 78.297 129, 75.298 129 C 70.606 129, 69.439 129.407, 66.923 131.923 C 62.984 135.862, 63.021 140.721, 67.051 148.787 C 72.677 160.045, 84.074 168.034, 94.428 167.978 C 99.428 167.951, 103.891 165.774, 115.438 157.728 C 126.250 150.193, 128.947 146.103, 127.119 140.004 C 125.642 135.075, 118.323 128.418, 109.726 124.186 C 103.212 120.979, 102.820 120.879, 99.899 121.661 M 89.446 123.087 C 89.077 123.685, 89.233 124.633, 89.794 125.194 C 90.488 125.888, 91.176 125.540, 91.943 124.107 C 92.853 122.407, 92.786 122, 91.594 122 C 90.782 122, 89.816 122.489, 89.446 123.087 M 92.610 128.014 C 89.938 132.050, 89.897 132.331, 90.967 139.222 C 92.464 148.877, 93.488 150.491, 94.911 145.445 C 96.565 139.582, 97.411 127.557, 96.309 125.587 C 95.482 124.110, 94.972 124.444, 92.610 128.014" stroke="none" fill="black" fill-rule="evenodd"/>
</svg>