<svg xmlns="http://www.w3.org/2000/svg" width="200" height="200" viewBox="0 0 200 200" version="1.1">
	<path d="M 78.382 18.062 C 75.180 19.746, 69.981 22.885, 66.828 25.037 L 61.096 28.950 55.298 27.866 C 41.692 25.322, 26.807 29.969, 20.651 38.683 C 14.311 47.657, 12.757 57.532, 15.504 71.377 C 16.704 77.423, 17.053 82.180, 16.612 86.481 C 16.258 89.935, 15.963 100.351, 15.955 109.630 C 15.930 139.860, 20.483 155, 29.598 155 C 34.666 155, 39 150.546, 47.422 136.684 L 49.133 133.868 53.544 137.934 C 56.183 140.366, 58.933 142, 60.389 142 C 64.210 142, 67.487 137.121, 69.908 127.829 C 73.448 114.243, 77.090 102.750, 79.115 98.778 C 83.414 90.343, 91.175 84.598, 100.873 82.671 C 105.923 81.668, 116.051 83.636, 123.176 87.006 C 126.654 88.651, 132.088 90.506, 135.250 91.129 C 140.314 92.125, 141 92.543, 141 94.630 C 141 97.590, 139.303 97.658, 131.740 95 C 128.611 93.900, 124.674 93, 122.993 93 C 118.637 93, 113.063 95.561, 109 99.430 C 105.618 102.649, 105.162 102.779, 95.500 103.280 C 84.800 103.834, 80 105.298, 80 108.006 C 80 110.361, 82.380 112.218, 90.775 116.414 C 97.708 119.879, 102 123.080, 102 124.784 C 102 126.375, 95.978 129.050, 88.346 130.851 C 78.046 133.281, 78.024 134.946, 88.268 136.676 C 92.540 137.398, 97.715 138.698, 99.768 139.565 L 103.500 141.141 100.685 143.410 C 99.137 144.657, 93.149 147.408, 87.377 149.521 C 75.320 153.937, 72.963 155.320, 74.621 157.003 C 75.367 157.761, 80.740 158.114, 90.698 158.060 L 105.655 157.978 107.426 166.223 C 109.664 176.636, 112.218 181.766, 115.586 182.611 C 119.351 183.556, 121.379 182.245, 133.433 171.067 C 141.400 163.679, 146.405 159.921, 151.884 157.214 C 159.156 153.622, 159.758 153.500, 170.202 153.500 C 178.039 153.500, 181 153.165, 181 152.279 C 181 149.352, 156.973 140.020, 149.356 139.988 C 147.100 139.979, 149.020 138.546, 158.500 133.166 C 176.403 123.007, 180 120.656, 180 119.111 C 180 117.969, 178.550 117.830, 172.250 118.367 C 167.988 118.731, 158.425 119.266, 151 119.556 L 137.500 120.084 147.710 115.922 C 158.147 111.668, 166 106.182, 166 103.145 C 166 100.121, 162.855 96.841, 157.618 94.403 C 154.191 92.807, 153.231 92.016, 154.712 92.010 C 158.538 91.993, 167.774 88.014, 171.015 84.986 C 173.605 82.567, 174.073 81.452, 173.813 78.322 C 173.242 71.469, 164.780 68.043, 148.201 67.953 L 139.500 67.906 142.948 65.203 C 157.645 53.681, 166 44.366, 166 39.503 C 166 34.214, 158.231 31.074, 145 31.016 C 140.875 30.998, 135.138 30.699, 132.251 30.352 L 127.002 29.722 124.959 22.861 C 123.835 19.087, 122.559 16, 122.124 16 C 120.596 16, 113.933 23.420, 113.340 25.782 C 112.537 28.982, 114.585 30.846, 120.584 32.377 L 125.465 33.622 130.252 50.039 C 136.233 70.553, 135.887 73.267, 128.500 63.775 C 121.664 54.990, 121.858 55.432, 124.846 55.468 C 128.415 55.511, 128.769 52.132, 125.978 44.671 L 123.856 39 115.678 38.906 C 111.180 38.854, 103.369 38.890, 98.319 38.985 L 89.138 39.159 91.548 32.329 C 97.267 16.124, 92.299 10.741, 78.382 18.062 M 84.500 18.476 C 79.359 20.030, 64.585 29.026, 65.672 29.941 C 66.127 30.325, 69.778 31.891, 73.785 33.421 C 79.938 35.772, 80.976 36.499, 80.468 38.102 C 79.988 39.613, 80.364 40, 82.310 40 C 85.474 40, 86.380 38.804, 88.909 31.282 C 91.260 24.290, 91.623 18.450, 89.750 17.741 C 89.063 17.480, 86.700 17.811, 84.500 18.476 M 118.091 22.612 C 116.899 24.127, 116.057 26.056, 116.219 26.898 C 116.500 28.356, 122.533 30.800, 123.490 29.843 C 124.073 29.261, 122.066 21.765, 121.036 20.679 C 120.608 20.227, 119.282 21.097, 118.091 22.612 M 35.332 31.851 C 23.775 35.845, 18.009 43.896, 17.214 57.150 C 16.911 62.197, 17.321 67.346, 18.420 72.285 C 19.873 78.817, 19.938 81.476, 18.931 93.136 C 18.274 100.744, 18.062 111.424, 18.440 117.932 C 19.909 143.240, 24.860 155.821, 31.874 152.067 C 35.100 150.341, 40.624 143.245, 44.535 135.802 L 48.221 128.787 53.392 133.893 C 58.836 139.270, 62.219 140.327, 63.905 137.178 C 64.441 136.176, 66.727 128.638, 68.984 120.428 C 73.501 103.998, 76.455 96.739, 80.918 91.104 L 83.868 87.379 79.667 86.256 C 74.625 84.907, 68.541 79.170, 66.909 74.226 C 65.011 68.474, 66.279 58.138, 69.807 50.599 C 71.505 46.970, 72.679 44, 72.416 44 C 70.953 44, 59.391 48.339, 57.144 49.731 C 49.790 54.288, 50.002 53.614, 49.977 72.424 C 49.955 88.871, 48.670 111.537, 47.435 117.250 C 46.846 119.979, 44.692 120.929, 43.494 118.990 C 43.151 118.435, 42.442 113.597, 41.918 108.240 C 41.395 102.883, 40.272 94.299, 39.422 89.164 C 37.172 75.563, 38.908 64.743, 44.520 57.385 C 46.578 54.686, 47 53.017, 47 47.567 C 47 42.396, 47.319 41, 48.500 41 C 49.635 41, 50 42.226, 50 46.036 L 50 51.072 53.750 48.505 C 55.813 47.093, 61.325 44.764, 66 43.330 C 78.049 39.633, 78.759 38.668, 71.720 35.555 C 62.363 31.417, 61.982 31.426, 56.310 35.943 C 53.507 38.174, 50.716 40, 50.107 40 C 47.855 40, 49.123 37.998, 53.484 34.668 L 57.968 31.244 54.859 30.622 C 49.218 29.494, 40.581 30.037, 35.332 31.851 M 128.410 34.596 C 128.818 35.643, 130.978 42.800, 133.211 50.500 C 135.444 58.200, 137.423 64.675, 137.609 64.889 C 138.581 66.013, 156.455 50.735, 160.175 45.600 C 166.454 36.932, 162.741 34.511, 141.468 33.408 C 128.159 32.717, 127.694 32.760, 128.410 34.596 M 92.500 41.741 L 87.500 42.112 82.187 54.245 C 76.690 66.799, 75.077 72, 76.680 72 C 78 72, 88.993 62.786, 99.135 53.179 L 107.770 45 108.452 50.461 C 109.590 59.569, 107.226 70.880, 102.883 77.109 L 101.064 79.719 108.855 80.253 C 114.376 80.631, 118.080 81.513, 121.573 83.282 C 126.576 85.816, 136.175 89, 138.809 89 C 139.941 89, 140.114 88.114, 139.605 84.930 C 138.987 81.066, 132.078 71.774, 110.098 45.250 C 106.267 40.626, 106.606 40.694, 92.500 41.741 M 116.777 47.035 C 120.229 50.316, 123.491 53, 124.027 53 C 125.309 53, 125.143 50.317, 123.593 46.026 C 122.256 42.323, 120.149 41.248, 114 41.135 L 110.500 41.070 116.777 47.035 M 80.194 42.818 C 76.441 43.178, 74.321 45.952, 70.939 54.929 C 65.462 69.470, 70.653 82.418, 82.496 83.752 C 95.238 85.189, 104.519 74.961, 105.711 58.167 L 106.256 50.500 102.878 53.565 C 101.020 55.250, 95.791 60.015, 91.258 64.153 C 82.028 72.578, 77.126 75.646, 74.501 74.639 C 71.788 73.597, 73.001 68.177, 78.889 55.039 C 81.714 48.735, 83.907 43.335, 83.763 43.039 C 83.618 42.742, 82.012 42.643, 80.194 42.818 M 45.704 60.329 C 42.394 65.381, 40.704 73.991, 41.361 82.458 C 41.704 86.881, 42.438 92.072, 42.992 93.993 C 43.546 95.915, 44.045 99.740, 44.100 102.493 C 44.205 107.775, 45.698 114.376, 45.910 110.500 C 46.722 95.706, 47.973 58.640, 47.671 58.337 C 47.451 58.117, 46.566 59.014, 45.704 60.329 M 141.370 70.660 C 139.395 71.075, 139.316 71.413, 140.286 75.304 C 140.861 77.612, 143.169 81.885, 145.416 84.801 C 149.274 89.809, 149.694 90.068, 153 89.490 C 163.099 87.724, 169.283 84.668, 171.179 80.506 C 172.747 77.065, 170.176 74.376, 163.574 72.551 C 158.146 71.050, 144.884 69.920, 141.370 70.660 M 135.564 72.293 C 135.940 73.279, 136.499 73.834, 136.807 73.526 C 137.115 73.219, 136.808 72.412, 136.124 71.733 C 135.136 70.753, 135.022 70.868, 135.564 72.293 M 143 88.500 C 143 89.325, 143.730 90, 144.622 90 C 145.951 90, 146.020 89.729, 145 88.500 C 144.315 87.675, 143.585 87, 143.378 87 C 143.170 87, 143 87.675, 143 88.500 M 143.500 96.001 C 142.614 100.034, 139.861 100.548, 132.593 98.039 C 122.699 94.623, 117.180 95.516, 110.983 101.535 C 107.579 104.841, 107.105 104.982, 96.196 105.939 C 80.094 107.352, 79.886 107.734, 91.791 113.997 C 100.888 118.783, 102.299 119.798, 103.815 122.643 C 105.622 126.037, 102.125 129.582, 94.728 131.853 L 88.572 133.743 93.836 134.871 C 101.515 136.518, 105 138.574, 105 141.458 C 105 144.674, 100.965 147.423, 90.794 151.135 C 77.835 155.864, 78.028 156.149, 93.703 155.431 L 107.907 154.780 108.414 157.140 C 108.693 158.438, 109.432 162.200, 110.056 165.500 C 110.680 168.800, 112.022 173.412, 113.039 175.750 C 115.949 182.441, 117.906 181.759, 131.011 169.490 C 144.521 156.840, 154.108 151.481, 165.500 150.207 L 172.500 149.425 166.500 147.109 C 159.705 144.487, 145.960 141.786, 141.584 142.215 C 136.224 142.739, 137.908 140.484, 145.741 136.647 C 156.098 131.573, 173.239 121.906, 172.748 121.415 C 172.532 121.199, 166.763 121.457, 159.928 121.988 C 153.093 122.520, 143.787 122.965, 139.250 122.977 C 131.814 122.998, 131 122.813, 131 121.107 C 131 120.066, 131.787 118.909, 132.750 118.536 C 133.713 118.163, 138.775 116.268, 144 114.325 C 159.475 108.569, 165.054 104.180, 161.833 100.298 C 160.235 98.373, 148.569 93, 145.986 93 C 144.769 93, 143.939 94.002, 143.500 96.001" stroke="none" fill="black" fill-rule="evenodd"/>
</svg>