<svg xmlns="http://www.w3.org/2000/svg" width="200" height="200" viewBox="0 0 200 200" version="1.1">
	<path d="M 148.532 20.611 C 145.795 23.347, 142.392 30.997, 138.495 43.168 L 134.760 54.835 131.536 54.312 C 128.880 53.881, 127.934 54.268, 126.171 56.510 L 124.031 59.230 115.990 56.373 L 107.950 53.517 108.572 49.371 C 109.354 44.151, 107.394 40.901, 101.313 37.338 C 98.891 35.918, 97.042 34.633, 97.205 34.481 C 97.367 34.329, 105.600 33.015, 115.500 31.562 C 139.748 28.003, 144.195 27.074, 143.704 25.668 C 143.442 24.918, 141.363 24.610, 137.898 24.808 C 129.780 25.270, 81.854 30.973, 80.845 31.596 C 80.362 31.894, 80.226 32.557, 80.543 33.069 C 80.859 33.581, 80.003 34, 78.641 34 C 77.278 34, 75.542 34.239, 74.781 34.530 C 73.906 34.866, 72.779 33.759, 71.707 31.512 C 68.394 24.565, 61.795 24.559, 52.710 31.495 C 50.186 33.423, 47.688 35, 47.159 35 C 46.631 35, 43.791 33.879, 40.849 32.510 C 33.859 29.256, 26.393 29.116, 22.514 32.168 C 15.900 37.370, 14.611 46.542, 16.175 77.274 C 17.150 96.433, 17.137 102.062, 16.106 106.274 C 14.057 114.640, 13.740 121.321, 14.897 131.748 C 16.220 143.676, 17.371 147.948, 20.032 150.804 C 23.176 154.178, 26.206 153.489, 35.211 147.350 C 44.942 140.717, 48.682 139, 53.403 139 C 58.032 139, 61.089 140.261, 65.192 143.864 C 69.753 147.868, 71.160 146.887, 69.827 140.635 C 69.259 137.975, 68.964 130.557, 69.171 124.150 C 69.495 114.115, 69.916 111.706, 72.206 106.776 C 74.968 100.831, 79.446 97.011, 83.661 97.004 C 84.870 97.002, 87.014 98.416, 88.525 100.213 C 91.081 103.249, 91.204 103.864, 90.772 111.463 C 90.077 123.721, 85.707 132.806, 72.474 149.500 C 66.005 157.662, 60.632 167.877, 61.550 170.269 C 62.736 173.362, 65.784 173.232, 72.240 169.814 C 80.492 165.445, 95.891 150.119, 103.310 138.889 L 109 130.277 109 122.335 C 109 115.873, 109.463 113.471, 111.483 109.446 C 113.746 104.938, 117.847 101.112, 122.167 99.480 C 125.485 98.226, 120.477 112.644, 111.220 131 C 100.952 151.358, 96.500 163.862, 96.500 172.338 C 96.500 177.268, 96.868 178.474, 98.861 180.088 C 103.735 184.036, 113.012 181.568, 127.507 172.468 L 136.202 167.009 140.823 172.148 C 146.084 178, 150.032 180, 156.320 180 C 166.162 180, 174.170 169.502, 172.340 159 C 170.728 149.752, 161.839 140.375, 148.755 134.119 L 140.707 130.271 151.823 124.886 C 157.937 121.924, 162.814 119.084, 162.661 118.576 C 162.509 118.068, 159.485 117.061, 155.942 116.338 C 152.239 115.584, 147.799 113.834, 145.500 112.224 C 141.776 109.616, 135 100.063, 135 97.422 C 135 96.597, 139.927 96.128, 151.832 95.818 C 166.318 95.441, 169.141 95.103, 172.082 93.391 C 177.923 89.992, 177.118 83.691, 169.342 71.941 C 166.304 67.350, 165.527 64.595, 162.452 47.500 C 158.382 24.877, 156.210 19, 151.916 19 C 150.941 19, 149.418 19.725, 148.532 20.611 M 148.499 25.411 C 146.017 29.647, 141.776 40.948, 138.706 51.512 L 137.249 56.524 140.493 60.276 C 148.495 69.533, 153.218 83.639, 149.546 87.312 C 147.180 89.677, 142.398 89.398, 136.250 86.536 C 133.363 85.192, 131 84.322, 131 84.603 C 131 84.884, 131.475 87.001, 132.055 89.307 L 133.110 93.500 148.805 93.187 C 166.086 92.843, 171.440 91.914, 173.006 88.989 C 174.232 86.698, 172.580 82.137, 167.859 74.781 C 163.949 68.686, 162.678 64.325, 159.014 44.417 C 156.218 29.222, 153.705 21, 151.857 21 C 151.432 21, 149.921 22.985, 148.499 25.411 M 58 31.139 C 56.075 32.312, 52.990 34.514, 51.145 36.034 L 47.791 38.797 41.524 35.865 C 33.342 32.036, 26.772 31.766, 23.444 35.121 C 20.454 38.136, 18.002 47.506, 17.992 55.960 C 17.988 59.557, 18.502 71.275, 19.136 82 C 20.157 99.301, 20.102 102.214, 18.643 107.831 C 16.738 115.172, 16.549 124.610, 18.086 135.667 C 20.285 151.470, 22.595 152.975, 33.138 145.473 C 46.790 135.757, 53.936 133.997, 62.101 138.339 L 66.500 140.678 66.500 126.568 C 66.500 112.630, 66.540 112.376, 69.795 105.765 C 73.626 97.983, 77.716 94.545, 83.144 94.545 C 93.079 94.545, 96.727 106.987, 91.435 122.824 C 88.180 132.562, 85.477 137.208, 76.206 148.995 C 68.528 158.757, 63.032 168.366, 64.365 169.698 C 67.554 172.888, 92.182 151.290, 101.026 137.548 C 105.262 130.965, 105.532 130.114, 106.095 121.548 C 106.952 108.516, 110.761 102.094, 120.537 97.198 C 124.307 95.310, 124.682 94.726, 126.202 88.373 C 127.779 81.784, 127.769 81.526, 125.875 80.200 C 124.780 79.433, 124.125 78.097, 124.388 77.165 C 124.645 76.249, 125.152 72.735, 125.514 69.356 L 126.172 63.212 118.320 60.184 C 105.624 55.287, 105.536 55.283, 101.115 59.277 C 98.986 61.201, 93.926 65.019, 89.872 67.762 C 81.266 73.585, 78.223 76.623, 79.609 78.009 C 80.922 79.322, 90.160 80.991, 96.386 81.041 L 101.500 81.081 98 84.117 C 92.943 88.503, 85.618 92, 81.485 92 C 73.420 92, 71 84.949, 71 61.451 L 71 46 64.750 46.006 C 61.313 46.009, 56.909 46.453, 54.965 46.993 L 51.429 47.976 51.465 77.738 C 51.496 103.851, 51.275 108.236, 49.662 113.500 C 46.561 123.619, 41.944 129, 36.363 129 C 34.931 129, 35.089 128.517, 37.259 126.250 C 44.202 119, 46.064 107.530, 43.550 87.506 C 40.714 64.920, 41.606 53.062, 46.442 49.048 C 47.402 48.251, 48 46.136, 48 43.536 C 48 39.523, 48.183 39.263, 51.750 38.215 C 53.813 37.610, 58.257 36.812, 61.628 36.442 C 69.845 35.540, 70.804 34.876, 68.648 31.585 C 66.535 28.361, 62.818 28.205, 58 31.139 M 81.250 36.284 L 74 37.277 74 40.620 C 74 43.448, 74.423 44.058, 76.750 44.585 C 85.863 46.651, 92.253 48.341, 97.867 50.168 C 104.901 52.458, 105.955 52.021, 105.985 46.801 C 105.995 44.916, 105.012 43.348, 102.722 41.601 C 99.164 38.887, 91.111 34.969, 89.500 35.167 C 88.950 35.235, 85.237 35.737, 81.250 36.284 M 60 39.402 C 51.651 40.696, 50 41.401, 50 43.670 C 50 44.950, 50.657 45.072, 53.750 44.361 C 55.813 43.888, 60.538 43.500, 64.251 43.500 C 70.949 43.500, 71.001 43.478, 71.001 40.750 C 71 37.631, 71.236 37.660, 60 39.402 M 74.077 63.205 C 74.163 81.407, 75.196 86.691, 79.097 88.881 C 81.415 90.182, 82.173 90.067, 87.572 87.591 C 94.199 84.550, 93.858 83.707, 85.565 82.629 C 79.822 81.883, 76 79.702, 76 77.173 C 76 74.889, 80.568 70.636, 90 64.136 C 99.191 57.802, 102.446 55.113, 101.757 54.423 C 101.062 53.729, 82.549 48.458, 77.750 47.589 L 74 46.909 74.077 63.205 M 46.241 54.091 C 44.077 59.328, 43.875 65.887, 45.457 79.626 C 46.347 87.359, 47.136 97.695, 47.209 102.593 C 47.324 110.248, 47.466 110.938, 48.217 107.500 C 49.326 102.429, 49.274 60.833, 48.153 55.500 C 47.320 51.537, 47.302 51.524, 46.241 54.091 M 129 65.167 C 129 69.658, 129.236 73.098, 129.524 72.810 C 130.467 71.866, 133.863 58.588, 133.367 57.784 C 133.100 57.353, 132.009 57, 130.941 57 C 129.178 57, 129 57.749, 129 65.167 M 134.211 67.561 C 130.473 81.622, 130.408 80.299, 134.967 82.861 C 139.973 85.675, 144.640 87.075, 146.557 86.340 C 150.392 84.868, 146.106 71.307, 139.201 63.061 L 136.321 59.622 134.211 67.561 M 128 92.500 C 128 93.991, 128.431 94.852, 129 94.500 C 129.550 94.160, 130 93.260, 130 92.500 C 130 91.740, 129.550 90.840, 129 90.500 C 128.431 90.148, 128 91.009, 128 92.500 M 127.240 98.250 C 126.687 98.938, 125.525 102.650, 124.658 106.500 C 123.626 111.085, 120.032 119.538, 114.241 131 C 101.558 156.102, 96.237 173.837, 100.200 177.800 C 100.860 178.460, 103.311 179, 105.646 179 C 110.354 179, 120.569 174.200, 130.969 167.101 C 134.274 164.846, 137.142 163, 137.344 163 C 137.545 163, 138.991 165.027, 140.557 167.504 C 148.033 179.331, 159.911 180.705, 167.438 170.612 C 170.080 167.069, 170.176 158.005, 167.623 153.168 C 164.796 147.813, 157.342 141.408, 149.334 137.450 C 145.241 135.428, 141.686 133.981, 141.433 134.233 C 141.181 134.486, 141.702 136.437, 142.593 138.568 C 145.145 144.676, 144.074 151.400, 139.888 155.549 C 133.722 161.660, 122.529 162.620, 117.388 157.479 C 116.075 156.166, 115 154.034, 115 152.741 C 115 148.645, 120.602 141.326, 127.941 135.834 C 131.823 132.929, 135 130.203, 135 129.776 C 135 129.349, 135.669 129, 136.487 129 C 138.809 129, 156.749 119.032, 154.500 118.992 C 148.039 118.876, 137.979 110.589, 133.920 102.038 C 131.529 97.001, 129.273 95.722, 127.240 98.250 M 131.900 136.125 C 115.738 147.604, 113.301 158, 126.772 158 C 135.357 158, 140.955 153.264, 140.956 146 C 140.956 142.181, 137.950 133, 136.699 133 C 136.480 133, 134.320 134.406, 131.900 136.125" stroke="none" fill="black" fill-rule="evenodd"/>
</svg>