<svg xmlns="http://www.w3.org/2000/svg" width="200" height="200" viewBox="0 0 200 200" version="1.1">
	<path d="M 99.513 15.979 C 99.180 16.518, 99.378 17.838, 99.954 18.914 C 101.483 21.771, 101.430 21.822, 96.250 22.490 C 93.638 22.828, 88.350 23.615, 84.500 24.241 C 80.650 24.866, 77.275 25.338, 77 25.288 C 63.686 22.905, 56.182 21.988, 54.155 22.497 C 52.126 23.007, 51.900 23.330, 53.052 24.079 C 53.981 24.683, 51.599 24.791, 46.410 24.380 C 31.579 23.205, 19.108 26.852, 14.951 33.580 C 12.201 38.030, 12.411 45.953, 15.478 53.413 C 17.717 58.859, 17.833 59.926, 16.939 66.913 C 15.145 80.928, 14.650 106.899, 15.939 119.357 C 18.569 144.787, 24.610 156.984, 34.579 156.996 C 37.858 157, 46.080 152.151, 48.393 148.849 C 49.141 147.782, 51.743 145.646, 54.176 144.103 C 61.925 139.189, 67.565 127.993, 70.049 112.596 C 72.292 98.689, 70.520 66.303, 66.519 48.085 C 65.895 45.244, 66.051 45, 68.492 45 C 69.951 45, 73.169 46.187, 75.645 47.638 C 79.781 50.062, 80.790 50.232, 88.073 49.732 C 92.433 49.434, 96 49.312, 96 49.462 C 96 49.612, 92.287 52.680, 87.750 56.279 C 76.502 65.201, 74.291 67.653, 75.610 69.743 C 76.184 70.653, 77.969 71.780, 79.577 72.247 C 83.031 73.252, 99.868 72.411, 116 70.429 C 122.325 69.652, 128.287 69.012, 129.250 69.008 C 131.570 68.997, 131.552 72.634, 129.227 73.879 C 125.914 75.652, 115.254 77.994, 99.287 80.456 C 80.905 83.290, 78 84.170, 78 86.903 C 78 88.347, 79.391 89.377, 83.332 90.851 C 86.265 91.949, 90.232 93.140, 92.147 93.500 C 97.941 94.587, 98.079 94.866, 98.709 106.800 L 99.295 117.905 95.850 121.350 C 92.415 124.785, 81.728 129, 76.454 129 C 73.189 129, 72.889 129.982, 74.512 135.374 C 75.293 137.967, 76.624 144.907, 77.471 150.795 C 79.547 165.226, 79.701 165.758, 82.274 167.444 C 83.507 168.251, 90.777 170.247, 98.431 171.878 L 112.346 174.844 119.166 169.507 C 129.724 161.247, 132.736 160.415, 146.399 161.988 C 157.894 163.312, 166.554 162.718, 176.398 159.929 L 180.295 158.824 172.898 154.812 C 159.006 147.277, 153 141.658, 153 136.196 C 153 134.020, 155.830 130.733, 161.250 126.613 C 165.667 123.255, 166.217 119.875, 162.612 118.233 C 161.298 117.634, 157.370 116.583, 153.883 115.897 L 147.542 114.650 153.178 113.524 C 159.792 112.204, 162 110.656, 162 107.343 C 162 105.421, 160.427 103.942, 154.250 100.058 C 140.247 91.251, 138.397 88.940, 143.731 86.912 C 145.927 86.077, 147.356 86.293, 151.032 88.015 C 157.344 90.972, 161.963 90.431, 163.969 86.500 C 165.928 82.662, 166.832 82.038, 170.500 81.996 L 173.500 81.961 169 78.263 C 162.170 72.651, 158 68.049, 158 66.125 C 158 65.172, 159.618 62.842, 161.596 60.946 C 165.070 57.618, 165.176 57.305, 164.695 51.797 L 164.198 46.095 169.349 44.441 C 176.877 42.024, 182 38.460, 182 35.641 C 182 30.755, 176.590 28.182, 158.708 24.561 C 147.582 22.309, 143.592 22, 125.610 22 L 105.163 22 103 18.500 C 100.645 14.689, 100.413 14.522, 99.513 15.979 M 110.259 25.723 L 107.019 26.125 110.620 31.813 C 114.983 38.703, 117.908 42, 119.661 42 C 120.382 42, 122.575 38.759, 124.533 34.797 C 126.490 30.835, 128.577 27.010, 129.169 26.297 C 130.037 25.250, 128.630 25.031, 121.872 25.160 C 117.268 25.248, 112.042 25.501, 110.259 25.723 M 64 27 C 65.375 27.440, 67.850 27.801, 69.500 27.801 C 72.417 27.801, 72.431 27.778, 70 27 C 68.625 26.560, 66.150 26.199, 64.500 26.199 C 61.583 26.199, 61.569 26.222, 64 27 M 132.636 27.241 C 131.611 28.010, 128.911 32.208, 126.636 36.570 C 123.185 43.187, 122.026 44.583, 119.640 45 C 116.895 45.480, 116.855 45.566, 118.640 47.120 C 122.377 50.373, 126.117 50.865, 131.500 48.813 C 140.841 45.251, 154 38.673, 153.962 37.584 C 153.940 36.988, 151.978 34.292, 149.599 31.594 C 145.597 27.051, 144.876 26.656, 139.888 26.264 C 136.253 25.979, 133.893 26.297, 132.636 27.241 M 149.641 27.261 C 150.113 28.071, 151.993 30.419, 153.817 32.478 L 157.134 36.223 159.567 33.937 C 160.905 32.680, 162 31.290, 162 30.849 C 162 29.386, 157.563 27.202, 153.141 26.490 C 149.461 25.897, 148.916 26.017, 149.641 27.261 M 28.718 28.092 C 16.001 31.086, 12.657 38.920, 18.217 52.686 C 20.454 58.225, 20.585 59.368, 19.693 65.631 C 19.155 69.409, 18.666 83.975, 18.607 98 C 18.519 118.966, 18.816 124.963, 20.276 131.727 C 24.707 152.255, 31.571 158.440, 41.744 151.071 C 43.968 149.460, 46.398 147.277, 47.144 146.220 C 47.890 145.163, 49.914 143.569, 51.642 142.679 C 67.031 134.751, 72.714 99.431, 65.416 57.076 C 63.185 44.127, 63.851 44.998, 56.183 45.015 C 52.507 45.024, 48.946 45.382, 48.270 45.812 C 47.593 46.242, 46.827 49.498, 46.567 53.047 C 46.308 56.596, 45.782 63.438, 45.399 68.250 C 44.783 75.993, 44.893 77, 46.351 77 C 48.390 77, 48.473 75.079, 45.450 98.088 C 42.578 119.955, 41.916 123.195, 40.204 123.765 C 38.455 124.348, 38.652 115.865, 41.092 85.566 C 43.091 60.733, 43.107 59.360, 41.457 54.504 C 39.839 49.744, 39.835 49.219, 41.401 46.192 C 43.310 42.500, 48.674 38.322, 55.092 35.527 C 57.516 34.471, 59.629 33.529, 59.787 33.433 C 59.946 33.337, 59.563 32.135, 58.937 30.761 C 57.964 28.626, 56.924 28.172, 51.753 27.632 C 43.691 26.789, 33.374 26.995, 28.718 28.092 M 93.250 27.723 C 89.413 28.200, 89.003 29.533, 92.431 30.393 C 93.767 30.729, 96.467 32.518, 98.431 34.370 C 101.185 36.967, 102 38.525, 102 41.192 C 102 44.636, 102.020 44.651, 108.192 45.798 C 111.597 46.432, 114.468 46.849, 114.570 46.725 C 114.673 46.601, 112.296 42.112, 109.288 36.750 C 103.254 25.994, 103.964 26.394, 93.250 27.723 M 164 30.906 C 164 32.541, 162.989 34.601, 161.500 36 C 158.543 38.778, 158.536 38.839, 160.822 41.811 L 162.600 44.121 168.050 42.069 C 175.809 39.146, 180.070 36.345, 179.402 34.605 C 178.826 33.105, 174.259 30.983, 167.750 29.193 C 164.077 28.182, 164 28.217, 164 30.906 M 61.596 30.389 C 62.278 32.168, 65.528 32.573, 66.500 31 C 66.840 30.450, 66.453 30, 65.641 30 C 64.828 30, 63.447 29.725, 62.570 29.389 C 61.404 28.941, 61.143 29.209, 61.596 30.389 M 80 30.765 C 80 31.186, 82.212 32.316, 84.917 33.277 C 87.621 34.237, 92.121 36.562, 94.917 38.444 C 100.259 42.039, 101.064 41.964, 98.371 38.119 C 95.525 34.056, 80 27.842, 80 30.765 M 70.250 33.010 C 69.013 33.519, 68 34.772, 68 35.793 C 68 36.815, 69.013 38.577, 70.250 39.709 C 72.094 41.396, 74.394 41.888, 83 42.440 C 88.775 42.811, 94.400 43.338, 95.500 43.613 C 100.003 44.738, 92.036 39.202, 84.852 36.214 C 75.702 32.410, 73.097 31.838, 70.250 33.010 M 64.261 38.500 C 64.852 40.425, 65.878 42, 66.541 42 C 67.402 42, 67.282 41.008, 66.124 38.533 C 64.016 34.032, 62.884 34.012, 64.261 38.500 M 54.166 39.075 C 50.710 40.802, 48.021 42.351, 48.191 42.516 C 48.361 42.682, 51.538 42.572, 55.250 42.272 C 62.017 41.725, 62.570 41.298, 61.155 37.717 C 60.508 36.080, 59.939 36.190, 54.166 39.075 M 147.980 44.648 C 143.316 47.070, 140.400 48.853, 141.500 48.611 C 142.600 48.369, 146.988 47.427, 151.250 46.517 C 155.512 45.608, 158.986 44.557, 158.968 44.182 C 158.951 43.807, 158.379 42.768, 157.698 41.873 C 156.583 40.408, 155.617 40.684, 147.980 44.648 M 78 46 C 78.825 46.533, 82.650 46.923, 86.500 46.866 C 91.816 46.788, 92.778 46.580, 90.500 46 C 85.876 44.823, 76.179 44.823, 78 46 M 94.996 52.872 C 91.969 55.968, 86.866 60.698, 83.656 63.385 C 76.786 69.136, 77.239 69.962, 87.278 69.985 C 93.859 70, 121.273 67.509, 125.692 66.494 C 127.766 66.018, 127.593 65.569, 122.470 58.131 L 117.055 50.271 110.778 49.064 C 107.325 48.400, 103.600 47.719, 102.500 47.550 C 101.155 47.345, 98.697 49.088, 94.996 52.872 M 149 49.639 C 143.225 50.952, 137.384 52.279, 136.020 52.590 C 133.808 53.093, 134.259 53.533, 140.195 56.666 C 143.855 58.598, 148.683 61.749, 150.925 63.668 C 154.490 66.719, 155 66.907, 155 65.167 C 155 64.073, 156.293 62.090, 157.873 60.760 C 162.329 57.011, 163.325 54.514, 161.984 50.451 C 161.357 48.553, 160.542 47.057, 160.172 47.126 C 159.803 47.195, 154.775 48.326, 149 49.639 M 43.158 50 C 43.158 51.375, 43.385 51.938, 43.662 51.250 C 43.940 50.563, 43.940 49.438, 43.662 48.750 C 43.385 48.063, 43.158 48.625, 43.158 50 M 122.032 52.321 C 121.966 54.020, 131.615 66.517, 139.093 74.417 L 146.859 82.621 153.347 81.559 C 156.916 80.975, 160.152 80.182, 160.538 79.796 C 161.872 78.462, 153.775 68.940, 147.495 64.459 C 140.313 59.334, 128.608 53.725, 126.152 54.232 C 125.243 54.419, 123.952 53.881, 123.282 53.036 C 122.612 52.191, 122.049 51.869, 122.032 52.321 M 133 73.695 C 133 75.293, 125.483 78.642, 119 79.932 C 115.975 80.533, 106.607 82.100, 98.183 83.413 C 78.032 86.554, 77.671 86.948, 91.717 90.470 L 100.500 92.672 101.333 102.987 C 101.791 108.660, 101.868 114.889, 101.504 116.829 C 100.282 123.345, 93.884 127.808, 81.146 131.031 C 77.119 132.050, 76.836 132.335, 77.378 134.817 C 77.700 136.292, 78.662 141.775, 79.517 147 C 82.411 164.694, 82.320 164.387, 85.095 165.717 C 86.521 166.400, 92.494 167.887, 98.368 169.020 C 104.243 170.154, 109.640 171.308, 110.362 171.585 C 111.084 171.862, 113.885 170.238, 116.587 167.975 C 119.289 165.713, 123.750 162.659, 126.500 161.190 C 131.048 158.761, 132.269 158.557, 140 158.935 C 153.925 159.616, 168.367 159.495, 170.441 158.680 C 172.092 158.030, 171.524 157.400, 166.627 154.450 C 158.213 149.382, 154.427 146.104, 152.004 141.793 C 148.883 136.240, 149.930 133.136, 157.121 126.628 L 163.090 121.227 159.846 120.096 C 158.062 119.474, 151.292 118.220, 144.801 117.309 C 130.891 115.357, 129.201 113.606, 140.250 112.595 C 150.647 111.644, 157.668 110.105, 159.015 108.482 C 159.971 107.330, 158.574 106.043, 151.342 101.415 C 146.479 98.303, 141.488 94.833, 140.250 93.704 C 137.090 90.821, 137.375 87.592, 140.989 85.304 L 143.979 83.411 138.489 77.990 C 135.470 75.008, 133 73.075, 133 73.695 M 163.638 78.500 C 163.955 79.325, 164.671 80, 165.229 80 C 165.815 80, 165.718 79.365, 165 78.500 C 164.315 77.675, 163.599 77, 163.409 77 C 163.219 77, 163.322 77.675, 163.638 78.500 M 44.195 80.500 C 44.215 82.150, 44.439 82.704, 44.693 81.731 C 44.947 80.758, 44.930 79.408, 44.656 78.731 C 44.382 78.054, 44.175 78.850, 44.195 80.500 M 155.250 83.723 C 153.463 83.945, 152 84.535, 152 85.035 C 152 85.534, 153.463 86.340, 155.250 86.825 C 158.893 87.813, 162 86.727, 162 84.465 C 162 83.009, 161.474 82.951, 155.250 83.723" stroke="none" fill="black" fill-rule="evenodd"/>
</svg>