<svg xmlns="http://www.w3.org/2000/svg" width="200" height="200" viewBox="0 0 200 200" version="1.1">
	<path d="M 38.173 17.075 C 21.473 19.242, 18.650 24.444, 30.750 30.755 C 34.490 32.706, 35.839 33.934, 35.413 35 C 35.084 35.825, 34.209 48.425, 33.469 63 C 32.096 90.050, 31.142 97.327, 28.427 101.471 C 25.664 105.688, 28.717 105.230, 33.197 100.756 C 37.467 96.492, 42.080 93.757, 47.125 92.500 C 49.683 91.863, 49.768 91.995, 50.428 97.673 C 50.801 100.878, 51.370 105.030, 51.692 106.900 L 52.279 110.300 47.889 109.627 C 45.475 109.257, 41.265 107.810, 38.534 106.412 C 32.517 103.334, 31.995 103.765, 29.571 113.816 C 24.340 135.501, 24.970 165.180, 30.907 176.818 C 36.720 188.213, 44.589 187.576, 57.386 174.677 C 63.606 168.407, 64.372 167.918, 65.303 169.618 C 67.206 173.093, 73.610 178.864, 76.317 179.544 C 86.307 182.051, 95.167 169.486, 98.735 147.753 C 101.394 131.550, 98.986 118.019, 92.136 110.674 L 89.500 107.847 92.500 108.524 C 102.888 110.867, 103.230 111.031, 102.515 113.315 C 102.139 114.517, 101.590 121.597, 101.294 129.050 C 100.689 144.310, 102.368 153.682, 107.680 164.677 C 111.155 171.871, 119.398 180.373, 125.734 183.299 C 132.748 186.538, 147.885 186.444, 157.144 183.103 L 163.787 180.705 169.394 165.847 C 174.738 151.683, 175.702 148.036, 174.436 146.770 C 174.127 146.460, 169.514 148.430, 164.186 151.149 C 151.756 157.491, 144.889 158.786, 134.784 156.693 C 130.778 155.863, 125.494 154.320, 123.042 153.264 L 118.585 151.344 128.711 148.093 C 150.965 140.947, 167 130.521, 167 123.197 C 167 118.282, 163.038 115.624, 155.035 115.172 C 147.032 114.720, 140.207 116.619, 134.202 120.969 L 130.260 123.824 129.735 117.292 C 129.180 110.372, 127.565 107.257, 122.615 103.562 C 119.052 100.902, 110.207 100.860, 96.921 103.441 C 91.652 104.465, 86.140 105.001, 84.671 104.632 C 82.279 104.032, 82 103.499, 82 99.526 C 82 95.278, 82.143 95.064, 85.382 94.456 C 94.346 92.775, 98.842 86.058, 99.736 73.015 C 100.036 68.638, 100.603 65.255, 100.995 65.497 C 101.388 65.740, 101.981 68.546, 102.314 71.735 C 103.815 86.089, 110.210 98, 116.418 98 C 119.960 98, 124.331 95.665, 126.898 92.402 C 130.199 88.206, 128.210 87.578, 123.913 91.460 C 119.515 95.433, 115.298 96.092, 112.693 93.213 C 105.840 85.641, 102.098 61.587, 105.095 44.376 L 106.190 38.088 109.345 38.685 C 117.658 40.256, 127.925 45.140, 133.652 50.246 L 135.804 52.164 130.902 61.591 C 121.885 78.931, 125.716 83.240, 141.864 73.924 L 147.228 70.829 146.572 66.726 C 146.211 64.469, 144.560 60.077, 142.902 56.967 L 139.887 51.312 147.444 38.820 C 151.600 31.949, 155 25.755, 155 25.055 C 155 23.276, 159.562 24.508, 164.195 27.538 C 176.617 35.664, 179.747 62.689, 170.463 81.664 C 166.765 89.224, 162.082 93, 156.405 93 C 152.347 93, 151.335 92.484, 146.594 88 C 143.686 85.250, 141.013 83, 140.653 83 C 137.343 83, 146.332 93.069, 151.315 94.942 C 164.016 99.716, 174.900 87.196, 178.174 64.046 C 179.663 53.512, 178.172 43.628, 173.790 35 C 171.133 29.768, 169.393 27.770, 164.868 24.757 C 159.269 21.029, 159.177 21.008, 142.373 19.524 C 105.099 16.233, 53.928 15.030, 38.173 17.075 M 36.988 19.989 C 30.324 21.052, 26 22.604, 26 23.933 C 26 25.295, 34.505 30.151, 38.222 30.912 C 39.904 31.256, 41.985 32.597, 42.845 33.893 C 44.395 36.227, 44.381 36.243, 41.284 35.562 L 38.159 34.876 37.560 40.188 C 37.231 43.110, 36.530 54.725, 36.002 66 C 35.475 77.275, 34.740 88.689, 34.370 91.365 L 33.697 96.229 37.598 93.689 C 39.744 92.292, 43.345 90.666, 45.600 90.076 L 49.700 89.004 50.326 80.184 C 52.272 52.769, 68.684 30.648, 87.163 30.535 C 91.504 30.508, 93.538 31.025, 95.873 32.750 C 98.919 35, 105 35.856, 105 34.035 C 105 32.163, 111.054 26.203, 113.606 25.563 C 117.152 24.673, 123.974 28.122, 128.434 33.058 C 130.392 35.226, 132.376 37, 132.842 37 C 133.309 37, 134.547 36.036, 135.595 34.857 C 136.643 33.679, 140.087 30.549, 143.248 27.902 L 148.996 23.090 145.748 22.559 C 130.768 20.112, 48.417 18.166, 36.988 19.989 M 147.262 28.250 C 145.052 30.038, 140.717 33.690, 137.629 36.366 L 132.014 41.231 127.377 36.074 C 119.799 27.646, 114.737 26.022, 110.452 30.646 C 106.945 34.430, 107.369 35.511, 112.857 36.778 C 119.704 38.358, 127.720 42.099, 133.088 46.219 L 137.677 49.740 143.748 39.620 C 150.262 28.763, 152.303 25, 151.676 25 C 151.459 25, 149.473 26.462, 147.262 28.250 M 79.028 35.072 C 72.478 38.044, 67.481 42.061, 69.095 43.059 C 69.923 43.570, 71.588 42.813, 73.683 40.974 C 77.119 37.956, 85.314 35, 90.241 35 C 91.904 35, 92.857 34.578, 92.500 34 C 91.459 32.316, 83.753 32.929, 79.028 35.072 M 88 37.999 C 83.063 38.838, 77.526 41.069, 74.653 43.378 C 72.860 44.819, 72.865 45.024, 74.852 50.334 C 77.168 56.524, 79.612 69.112, 80.514 79.500 C 81.488 90.713, 81.881 92, 84.329 91.996 C 87.743 91.990, 92.508 88.557, 94.277 84.828 C 96.655 79.817, 98.020 69.604, 98.023 56.805 C 98.024 50.587, 98.040 44.600, 98.057 43.500 C 98.161 36.982, 97.174 36.442, 88 37.999 M 100.357 50.260 L 100.213 62.500 101.096 53.618 C 101.582 48.732, 102.397 43.220, 102.909 41.368 C 103.696 38.516, 103.583 38.001, 102.169 38.010 C 100.710 38.018, 100.482 39.555, 100.357 50.260 M 65.561 48.266 C 61.127 55.034, 58.465 71.720, 61.236 75.377 C 62.970 77.665, 64.897 76.830, 69.905 71.624 L 73.311 68.084 70.541 61.911 C 68.352 57.034, 67.869 54.717, 68.239 50.869 C 68.748 45.572, 67.880 44.728, 65.561 48.266 M 71.063 52.790 C 71.006 56.647, 74.467 65.866, 75.561 64.773 C 76.033 64.300, 73.680 54.846, 72.133 51 C 71.220 48.732, 71.121 48.898, 71.063 52.790 M 133.142 63.078 C 128.739 71.665, 127.890 76, 130.610 76 C 131.496 76, 134.871 74.587, 138.110 72.861 C 142.456 70.544, 143.997 69.168, 143.990 67.611 C 143.978 64.950, 139.400 55, 138.188 55 C 137.690 55, 135.420 58.635, 133.142 63.078 M 56.130 63.250 C 54.443 68.598, 53 78.020, 53 83.684 L 53 89 57.750 89.053 C 60.362 89.082, 66.100 89.703, 70.500 90.434 C 74.900 91.164, 78.613 91.664, 78.752 91.545 C 79.032 91.305, 76.873 69.653, 76.528 69.238 C 76.408 69.094, 74.054 71.232, 71.298 73.988 C 67.374 77.912, 65.592 79, 63.092 79 C 60.347 79, 59.678 78.473, 58.332 75.253 C 57.215 72.578, 56.939 69.859, 57.368 65.753 C 58.045 59.274, 57.641 58.458, 56.130 63.250 M 53 95.364 C 53 98.925, 54.717 109.051, 55.445 109.778 C 55.681 110.015, 58.266 109.051, 61.187 107.636 C 64.367 106.096, 69.241 104.791, 73.328 104.386 C 79.641 103.759, 80.114 103.549, 79.592 101.604 C 79.281 100.447, 79.021 98.353, 79.014 96.950 C 79.001 94.520, 78.610 94.344, 70.698 93.200 C 66.132 92.540, 60.282 92, 57.698 92 C 53.032 92, 53 92.023, 53 95.364 M 102 105.284 L 96.500 106.330 101.351 107.752 C 106.041 109.126, 106.183 109.278, 105.639 112.337 C 105.330 114.076, 104.575 119.100, 103.962 123.500 C 100.431 148.848, 111.888 175.685, 128.684 181.408 C 138.325 184.693, 159.349 181.954, 161.961 177.073 C 162.832 175.446, 172 151.316, 172 150.652 C 172 150.512, 167.934 152.420, 162.964 154.892 C 154.710 158.998, 153.153 159.425, 144.976 159.815 C 134.410 160.321, 129.177 159.198, 119.150 154.273 L 111.800 150.663 126.307 145.930 C 142.857 140.531, 155.132 134.535, 160.385 129.282 C 167.202 122.465, 164.112 117.463, 153.144 117.557 C 144.712 117.630, 136.916 121.032, 130.517 127.431 L 125.927 132.021 126.585 123.260 C 127.890 105.885, 121.893 101.500, 102 105.284 M 66.500 108.472 C 61.253 110.201, 64.798 110.256, 73 108.573 C 79.336 107.272, 79.387 107.237, 75 107.196 C 72.525 107.173, 68.700 107.747, 66.500 108.472 M 32.601 113.163 C 29.787 123.141, 28.746 134.697, 29.259 150.288 C 29.809 166.988, 31.333 173.866, 35.614 178.953 C 40.406 184.648, 47.202 182.052, 57.627 170.541 L 64.424 163.036 67.100 167.335 C 73.532 177.668, 79.843 179.593, 86.015 173.105 C 96.769 161.801, 100.495 129.831, 92.701 115.741 C 88.989 109.031, 87.582 108.645, 75.242 110.946 C 69.334 112.048, 62.700 113.073, 60.500 113.225 C 56.636 113.491, 56.509 113.613, 56.761 116.800 C 56.904 118.615, 58.877 125.365, 61.145 131.800 C 66.170 146.055, 67.285 156.192, 64.241 159.951 C 57.960 167.707, 47.787 150.849, 47.675 132.500 C 47.626 124.614, 47.955 122.850, 50.327 118.250 C 52.861 113.335, 52.911 113, 51.106 113 C 49.337 113, 39.839 110.231, 35.803 108.538 C 34.415 107.956, 33.832 108.798, 32.601 113.163 M 52.067 120.746 C 47.756 130.184, 51.320 150.411, 58.573 157.663 C 61.693 160.784, 62.540 159.983, 63.500 153.002 C 63.981 149.504, 63.607 147.106, 61.936 142.954 C 60.728 139.954, 58.447 133.262, 56.868 128.082 C 55.289 122.902, 53.846 118.512, 53.661 118.327 C 53.476 118.143, 52.759 119.231, 52.067 120.746" stroke="none" fill="black" fill-rule="evenodd"/>
</svg>