<svg xmlns="http://www.w3.org/2000/svg" width="200" height="200" viewBox="0 0 200 200" version="1.1">
	<path d="M 90 16.654 C 81.877 17.427, 70.855 19.299, 61.500 21.493 C 56 22.783, 48.125 24.027, 44 24.258 C 35.764 24.719, 31.862 26.292, 27.067 31.086 C 21.306 36.847, 17.944 45.476, 16.063 59.322 C 14.755 68.947, 14.709 132.788, 16.003 142.746 C 17.139 151.495, 19.162 155.752, 22.592 156.612 C 26.343 157.554, 28.751 156.086, 39.477 146.319 C 49.629 137.076, 55.344 133.014, 58.210 133.005 C 59.150 133.002, 61.013 134.180, 62.351 135.623 L 64.783 138.245 65.549 133.873 C 67.066 125.209, 67.485 105.013, 66.684 79.150 C 66.235 64.657, 66.062 52.604, 66.301 52.366 C 66.678 51.988, 70.506 52.653, 78.750 54.527 C 80.879 55.011, 81 55.522, 81 64.061 C 81 75.117, 79.189 84.210, 73.924 99.601 C 61.976 134.521, 69.351 168, 88.990 168 C 96.871 168, 106.346 160.792, 113.005 149.733 C 114.855 146.661, 115.907 145.532, 115.552 147 C 115.220 148.375, 113.580 155.025, 111.908 161.778 C 110.236 168.531, 109.010 175.056, 109.184 176.278 C 110.541 185.825, 127.783 168.557, 142.594 142.817 C 146.924 135.291, 150.548 129.216, 150.646 129.317 C 150.744 129.418, 149.729 134.225, 148.391 140 C 147.053 145.775, 145.680 155.244, 145.340 161.042 C 144.792 170.393, 144.959 172.120, 146.820 176.326 C 148.422 179.947, 149.775 181.426, 152.545 182.583 C 156.139 184.085, 156.214 184.066, 160.498 180.555 C 169.633 173.069, 175.995 161.877, 178.061 149.653 C 179.239 142.688, 179.072 127.818, 177.388 89.500 C 176.685 73.508, 178.319 61.097, 182.475 50.870 C 184.647 45.524, 184.815 44.237, 183.901 39.973 C 181.899 30.637, 174.849 22.966, 165.124 19.541 C 158.292 17.135, 146.256 17.529, 137.574 20.443 L 130.295 22.887 124.398 20.519 C 115.453 16.928, 102.455 15.467, 90 16.654 M 86.879 19.704 C 84.611 20.054, 84.173 20.722, 83.633 24.658 C 83.290 27.160, 83.188 29.498, 83.406 29.853 C 83.624 30.209, 87.648 30.355, 92.348 30.178 L 100.892 29.856 102.067 26.178 C 102.713 24.155, 103.637 22.072, 104.121 21.550 C 104.604 21.027, 105 20.240, 105 19.800 C 105 19.004, 91.872 18.934, 86.879 19.704 M 113.284 25 C 115.187 29.503, 115.712 30, 118.564 30 C 121.618 30, 127 26.790, 127 24.968 C 127 24.094, 115.033 20, 112.481 20 C 111.510 20, 111.717 21.290, 113.284 25 M 147 20.629 C 143.977 21.189, 134 24.175, 134 24.519 C 134 24.654, 135.912 26.681, 138.250 29.023 C 140.588 31.366, 144.399 33.931, 146.720 34.725 C 152.163 36.586, 157 42.002, 157 46.236 C 157 50.230, 151.137 60.173, 149.021 59.766 C 147.951 59.561, 147.299 57.656, 146.822 53.339 C 146.135 47.128, 142.795 37.905, 140.561 36.051 C 139.890 35.494, 135.889 34.525, 131.670 33.898 C 123.078 32.620, 122.184 32.948, 119.690 38.296 C 118.349 41.173, 118.379 42.552, 119.992 51.811 C 120.980 57.482, 122.032 62.366, 122.330 62.664 C 122.629 62.962, 127.562 65.091, 133.294 67.394 C 151.417 74.679, 162.129 82.840, 163.557 90.452 C 164.327 94.558, 161.929 100.435, 157.699 104.806 C 154.725 107.880, 146.087 114, 144.723 114 C 144.393 114, 145.193 110.935, 146.501 107.189 C 153.092 88.326, 149.357 81.025, 136.177 87.006 C 126.333 91.473, 126.365 91.418, 125.721 105.213 C 125.092 118.687, 123.339 128.093, 116.521 154.582 C 111.897 172.548, 111.315 176, 112.910 176 C 114.594 176, 130.065 158.656, 133.380 153.052 C 135.186 149.998, 139.470 142.692, 142.900 136.816 C 149.810 124.978, 151.460 123.060, 153.218 124.818 C 154.062 125.662, 153.886 128.061, 152.528 134.226 C 147.641 156.402, 146.627 170.444, 149.510 176.020 C 151.430 179.732, 154.391 181.396, 156.792 180.111 C 160.105 178.338, 167.809 169.310, 170.440 164.117 C 176.607 151.949, 177.613 140.822, 175.469 108.500 C 173.355 76.609, 174.369 63.657, 180.106 49.315 C 182.100 44.328, 182.117 43.914, 180.540 38.488 C 178.444 31.279, 172.394 24.948, 165.410 22.655 C 160.055 20.896, 150.958 19.895, 147 20.629 M 65 23.645 C 59.225 25.023, 51.004 26.305, 46.732 26.495 C 30.173 27.229, 23.094 34.868, 19.460 55.920 C 18.130 63.627, 17.916 72.030, 18.187 105.844 C 18.647 163.238, 18.170 162.591, 43.045 139.499 C 51.239 131.891, 56.308 129.300, 60.157 130.753 C 62.863 131.775, 62.921 131.715, 63.677 127.146 C 64.663 121.182, 64.617 89.297, 63.591 67.835 L 62.795 51.170 54.147 49.583 C 49.391 48.710, 44.748 47.997, 43.830 47.998 C 41.316 48.001, 40.492 58.552, 42.102 70.117 C 42.820 75.277, 43.429 86.494, 43.454 95.043 C 43.494 108.656, 43.265 110.945, 41.607 113.476 L 39.714 116.366 37.947 114.183 C 35.246 110.847, 34.575 97.888, 36.120 78.891 C 36.852 69.876, 37.354 60.363, 37.235 57.750 C 37.115 55.131, 37.462 53, 38.009 53 C 38.554 53, 39 51.892, 39 50.539 C 39 48.524, 38.293 47.887, 35.103 47.028 C 30.283 45.730, 29.049 43.188, 32.058 40.752 C 34.922 38.433, 42.039 36.431, 55.369 34.195 C 66.080 32.398, 66.280 32.315, 69.155 28.436 C 70.760 26.271, 73.069 23.723, 74.286 22.772 C 75.504 21.822, 76.275 21.066, 76 21.092 C 75.725 21.118, 70.775 22.267, 65 23.645 M 105.609 25.020 C 104.724 27.231, 104 29.256, 104 29.520 C 104 29.784, 105.800 30, 108 30 C 110.200 30, 112 29.565, 112 29.034 C 112 27.498, 108.703 21, 107.923 21 C 107.535 21, 106.493 22.809, 105.609 25.020 M 76.757 24.519 C 73.418 26.788, 70.316 30.661, 71.169 31.495 C 71.351 31.673, 73.638 31.576, 76.250 31.279 L 81 30.740 81 26.370 C 81 23.966, 80.879 22, 80.732 22 C 80.585 22, 78.796 23.134, 76.757 24.519 M 127.597 28.504 C 125.368 30.191, 126.067 30.559, 133 31.347 L 137.500 31.858 134.694 29.429 C 131.481 26.647, 130.261 26.488, 127.597 28.504 M 102.079 38.250 C 101.455 41.688, 100.673 47.249, 100.341 50.609 C 99.765 56.432, 99.848 56.746, 102.119 57.336 C 103.428 57.677, 107.503 58.823, 111.173 59.885 L 117.846 61.815 116.423 57.782 C 115.640 55.563, 114.997 50.543, 114.994 46.624 C 114.991 42.706, 114.520 37.813, 113.947 35.750 C 112.927 32.076, 112.808 32, 108.060 32 L 103.214 32 102.079 38.250 M 83.667 33.667 C 82.835 34.498, 82.822 40.873, 83.638 47.664 L 84.258 52.828 88.879 53.959 C 91.421 54.581, 94.218 55.303, 95.096 55.564 C 96.412 55.954, 96.906 54.506, 97.913 47.310 C 98.584 42.510, 99.385 37.326, 99.692 35.791 L 100.250 33 92.292 33 C 87.915 33, 84.033 33.300, 83.667 33.667 M 116.192 34.075 C 116.389 34.666, 116.977 35.150, 117.500 35.150 C 118.023 35.150, 118.611 34.666, 118.808 34.075 C 119.005 33.484, 118.417 33, 117.500 33 C 116.583 33, 115.995 33.484, 116.192 34.075 M 71.335 34.695 C 68.776 35.194, 68.064 36.709, 67.070 43.772 C 66.390 48.606, 66.502 49.083, 68.414 49.514 C 75.103 51.021, 79.592 51.954, 80.250 51.976 C 80.662 51.989, 81 47.950, 81 43 L 81 34 77.250 34.136 C 75.188 34.211, 72.526 34.462, 71.335 34.695 M 57.088 36.522 C 45.473 38.625, 36.298 41.057, 34.316 42.560 C 32.663 43.813, 32.814 43.939, 36.002 43.968 C 37.928 43.986, 44.227 44.900, 50 46 C 64.263 48.718, 63.621 48.841, 64.290 43.250 C 64.602 40.638, 65.163 37.712, 65.536 36.750 C 65.909 35.788, 65.828 35.041, 65.357 35.090 C 64.886 35.140, 61.165 35.784, 57.088 36.522 M 145.533 38.741 C 146.506 41.011, 148.568 47.538, 149.722 52 L 150.628 55.500 152.314 52.300 C 155.669 45.931, 153.520 40.242, 146.814 37.741 C 145.130 37.114, 144.909 37.286, 145.533 38.741 M 84 63.261 C 84 73.930, 81.618 86.177, 77.054 98.970 C 69.402 120.421, 68.863 141.957, 75.629 155.835 C 80.256 165.326, 89.152 167.826, 98.100 162.151 C 105.291 157.591, 113.613 145.574, 115.066 137.653 C 115.895 133.133, 114.495 110.513, 113.164 106.916 C 112.399 104.847, 111.975 105.141, 107.130 111.095 C 104.263 114.618, 100.137 121.040, 97.959 125.366 C 94.287 132.661, 94 133.840, 94 141.616 C 94 148.193, 93.694 150, 92.579 150 C 90.304 150, 89.742 144.645, 90.866 133.698 C 91.443 128.089, 92.189 116.975, 92.526 109 C 92.863 101.025, 93.773 87.300, 94.548 78.500 C 96.474 56.655, 96.659 58.342, 92.250 57.543 C 90.188 57.169, 87.487 56.620, 86.250 56.323 C 84.069 55.800, 84 56.013, 84 63.261 M 98.675 63.665 C 97.547 70.785, 94.031 125, 94.697 125 C 94.841 125, 95.877 123.200, 96.999 121.001 C 98.122 118.802, 102.021 113.309, 105.666 108.794 L 112.292 100.587 109.637 86.543 C 108.176 78.820, 106.986 71.473, 106.991 70.219 C 107.002 67.423, 109.459 66.306, 111.631 68.109 C 113.952 70.035, 122.977 83.635, 124.131 86.946 L 125.112 89.760 132.610 85.880 C 143.694 80.144, 149.803 81.004, 151.898 88.594 C 152.911 92.263, 152.056 100.181, 150.097 105.278 C 149.125 107.803, 149.194 107.967, 150.851 107.080 C 153.797 105.503, 159.896 98.262, 160.583 95.525 C 160.932 94.136, 160.908 91.762, 160.531 90.250 C 159.431 85.837, 150.943 78.513, 141.816 74.101 C 133.388 70.026, 109.501 61.667, 102.891 60.479 C 99.331 59.839, 99.275 59.882, 98.675 63.665 M 110 72.158 C 110 73.584, 113.953 95, 114.550 96.808 C 114.860 97.746, 115.974 97.359, 118.491 95.439 C 123.408 91.689, 123.088 89.107, 116.483 79.241 C 110.989 71.035, 110 69.955, 110 72.158 M 38.733 79.500 C 37.829 88.310, 37.811 103.254, 38.699 108.500 C 39.314 112.137, 39.441 112.273, 40.088 110 C 40.992 106.828, 41.018 85.256, 40.126 78 L 39.451 72.500 38.733 79.500 M 118.357 99.250 C 115.533 102.274, 115.382 102.812, 116.178 107 C 116.648 109.475, 117.367 116.900, 117.776 123.500 L 118.518 135.500 120.338 127 C 122.416 117.296, 123.788 96, 122.336 96 C 121.817 96, 120.027 97.463, 118.357 99.250" stroke="none" fill="black" fill-rule="evenodd"/>
</svg>