<svg xmlns="http://www.w3.org/2000/svg" width="200" height="200" viewBox="0 0 200 200" version="1.1">
	<path d="M 111.996 15.750 C 111.994 16.163, 109.735 29.775, 106.977 46 C 101.378 78.928, 97.320 99.472, 93.944 111.985 C 91.965 119.316, 91.565 120.064, 90.755 117.935 C 90.226 116.544, 90.123 109.839, 90.515 102.295 L 91.200 89.090 94.233 89.697 L 97.265 90.303 96.557 83.402 C 95.550 73.597, 95.018 71.850, 93.150 72.210 C 91.579 72.512, 90.725 74.421, 89.440 80.500 L 88.806 83.500 79.928 74 L 71.050 64.500 71.096 58.500 C 71.147 51.671, 72.187 47.875, 73.447 49.914 C 73.883 50.619, 76.298 52.502, 78.815 54.098 C 87.893 59.855, 97 56.891, 97 48.180 C 97 42.192, 92.379 37.481, 84.006 34.934 C 81.979 34.318, 82.374 34.155, 86.068 34.086 C 95.121 33.916, 109 27.548, 109 23.566 C 109 21.435, 98.775 18, 92.430 18 C 83.813 18, 80.130 20.133, 74 28.672 L 72.500 30.762 58.500 28.408 C 29.628 23.553, 17.949 26.379, 15.216 38.881 C 14.780 40.871, 14.448 64.100, 14.476 90.500 C 14.524 134.654, 14.674 138.836, 16.349 142.691 C 18.309 147.202, 21.645 150, 25.064 150 C 29.043 150, 33.813 146.974, 34.943 143.734 C 38.514 133.490, 45.916 134.602, 67.692 148.654 C 82.900 158.467, 88.765 160.372, 95.164 157.578 C 96.546 156.975, 97.031 157.838, 98.029 162.676 C 100.631 175.285, 104.680 182.593, 108.640 181.831 C 114.922 180.621, 121.392 155.970, 122.638 128.500 C 123.123 117.806, 122.933 114.702, 121.567 111 C 118.247 102.004, 118.563 70.211, 122.156 51.692 C 125.109 36.473, 125.940 53.360, 126.331 136.500 C 126.490 170.310, 126.622 172.743, 128.500 176.500 C 132.211 183.921, 137.503 181.678, 144.334 169.790 L 146.798 165.500 147.319 108 C 147.606 76.375, 148.249 49.150, 148.749 47.500 L 149.657 44.500 150.260 48.500 C 150.591 50.700, 152.101 60.375, 153.614 70 C 156.003 85.187, 156.372 90.474, 156.404 110 C 156.437 130.528, 156.250 133.065, 154.263 138.949 C 151.740 146.421, 151.893 146.771, 159.279 150.452 C 166.255 153.928, 172.260 153.901, 175.525 150.378 C 178.715 146.937, 179.400 142.752, 178.684 131.109 C 177.960 119.347, 174.619 104.592, 167.893 83.457 L 162.788 67.414 168.423 59.957 C 181.852 42.185, 183.366 31.776, 173.234 26.871 C 169.021 24.832, 167.045 24.649, 146.969 24.437 C 127.625 24.233, 124.758 23.986, 120.667 22.177 C 117.413 20.737, 115.886 19.396, 115.429 17.573 C 114.860 15.307, 112.006 13.791, 111.996 15.750 M 86.319 21.101 C 84.569 21.607, 81.502 23.929, 79.504 26.261 L 75.870 30.500 83.545 30.794 C 88.583 30.987, 92.813 30.550, 95.859 29.522 C 100.682 27.894, 105.859 24.525, 104.943 23.610 C 104.182 22.849, 92.863 19.983, 91.040 20.090 C 90.193 20.140, 88.068 20.595, 86.319 21.101 M 113.614 23.681 C 113.297 25.231, 111.888 33.475, 110.483 42 C 103.546 84.085, 96.493 117.072, 93.434 121.741 C 91.586 124.562, 89.340 124.648, 88.478 121.931 C 88.117 120.794, 87.957 112.230, 88.123 102.900 L 88.423 85.938 79.602 77.219 L 70.781 68.500 71.411 85.500 C 71.758 94.850, 72.284 107, 72.581 112.500 C 73.125 122.564, 72.250 126.650, 70.028 124.428 C 68.430 122.830, 66.373 109.578, 64.528 89 C 61.692 57.371, 62.480 60.262, 55.192 54.761 C 51.723 52.143, 48.011 50, 46.942 50 C 45.211 50, 45 50.735, 44.997 56.750 C 44.991 68.499, 42.922 110.356, 42.170 113.925 C 41.272 118.191, 39.324 118.982, 38.039 115.603 C 36.574 111.748, 35.483 92, 36.736 92 C 38.137 92, 38.947 95.418, 39.105 102 C 39.216 106.624, 39.358 107.022, 40 104.500 C 41.306 99.368, 41.068 83.359, 39.603 77.732 C 36.258 64.891, 36.746 49.802, 40.552 48.342 C 41.538 47.963, 42 46.251, 42 42.973 L 42 38.160 49.250 36.475 C 53.237 35.548, 59.875 34.500, 64 34.145 L 71.500 33.499 61.500 31.749 C 36.871 27.440, 29.733 27.375, 23.696 31.406 C 17.379 35.624, 17.500 34.498, 17.500 89.001 C 17.500 136.500, 17.581 138.662, 19.500 142.500 C 20.839 145.179, 22.275 146.610, 23.845 146.832 C 27.810 147.393, 31.530 145.190, 32.869 141.485 C 34.467 137.066, 38.416 134, 42.509 134 C 47.766 134, 53.180 136.420, 66.207 144.595 C 80.720 153.703, 85.364 155.948, 89.750 155.978 C 92.896 155.999, 97 153.182, 97 151 C 97 150.450, 97.356 150, 97.791 150 C 98.226 150, 99.338 153.998, 100.262 158.884 C 102.540 170.933, 105.687 179.203, 107.843 178.805 C 112.830 177.886, 118.757 152.944, 119.683 128.974 C 120.177 116.193, 120.014 112.922, 118.764 110.474 C 114.168 101.480, 117.112 47.459, 122.491 42.080 C 123.836 40.735, 124.174 40.745, 125.602 42.173 C 127.697 44.268, 127.976 50.926, 128.826 119.048 C 129.456 169.575, 129.641 173.803, 131.338 176.393 L 133.170 179.189 135.663 176.847 C 137.034 175.559, 139.767 171.852, 141.737 168.610 L 145.318 162.715 144.675 126.107 C 144.087 92.607, 144.986 51.257, 146.585 38.250 C 147.431 31.366, 149.479 31.343, 150.950 38.201 C 160.039 80.585, 162.380 124.335, 156.456 141.125 L 155.087 145.004 159.265 147.135 C 172.190 153.729, 176.629 150.434, 176.290 134.500 C 176.037 122.599, 172.817 108.440, 163.821 79.661 L 159.808 66.823 162.722 63.161 C 171.646 51.949, 177 42.069, 177 36.812 C 177 28.780, 174.067 27.874, 145.500 27.088 C 122.357 26.452, 120.215 26.106, 115.845 22.302 C 114.362 21.012, 114.129 21.156, 113.614 23.681 M 68.177 37.667 C 68.663 40.176, 71 40.520, 71 38.083 C 71 36.855, 70.354 36, 69.427 36 C 68.495 36, 67.985 36.680, 68.177 37.667 M 73.636 38.228 C 72.353 43.016, 73.001 45.609, 76.250 48.684 C 80.603 52.804, 83.534 54.200, 87.831 54.200 C 91.693 54.200, 95 51.324, 95 47.966 C 95 43.213, 87.276 38.061, 77.872 36.542 C 74.701 36.029, 74.168 36.241, 73.636 38.228 M 57.500 37.516 C 56.950 37.712, 53.913 38.384, 50.750 39.008 C 45.088 40.124, 45 40.195, 45 43.571 C 45 46.296, 45.398 47, 46.937 47 C 48.002 47, 51.827 49.022, 55.437 51.493 L 62 55.987 62 49.618 C 62 46.116, 62.281 41.844, 62.625 40.125 C 63.187 37.314, 63.012 37.008, 60.875 37.079 C 59.569 37.122, 58.050 37.319, 57.500 37.516 M 65.033 49.628 C 65.009 56.979, 65.373 60.064, 66.360 60.884 C 67.468 61.803, 67.837 61.037, 68.351 56.756 C 69.423 47.831, 69.116 44.361, 67.033 41.861 L 65.067 39.500 65.033 49.628 M 40.630 53.250 C 39.793 56.376, 39.953 64.715, 40.943 69.500 C 41.583 72.597, 41.796 70.960, 41.885 62.250 C 41.948 56.063, 41.827 51, 41.617 51 C 41.406 51, 40.962 52.013, 40.630 53.250 M 65.611 71.512 C 65.973 76.455, 66.853 85.450, 67.567 91.500 L 68.864 102.500 68.337 84 C 67.934 69.886, 67.471 65.147, 66.380 64.012 C 65.139 62.719, 65.038 63.705, 65.611 71.512 M 92.015 82.691 C 92.007 84.446, 92.450 86.160, 93 86.500 C 94.282 87.292, 94.282 82.983, 93 81 C 92.262 79.859, 92.027 80.263, 92.015 82.691 M 69.079 106.583 C 69.127 107.748, 69.364 107.985, 69.683 107.188 C 69.972 106.466, 69.936 105.603, 69.604 105.271 C 69.272 104.939, 69.036 105.529, 69.079 106.583" stroke="none" fill="black" fill-rule="evenodd"/>
</svg>