<svg xmlns="http://www.w3.org/2000/svg" width="200" height="200" viewBox="0 0 200 200" version="1.1">
	<path d="M 137.205 14.932 C 130.829 19.972, 119.649 32.711, 107.326 48.978 C 102.109 55.865, 97.426 61.650, 96.920 61.833 C 95.936 62.190, 95.553 58.674, 95.960 53.016 C 96.499 45.501, 102.754 36.490, 115.750 24.501 C 129.240 12.056, 125.091 10.634, 96 17.731 C 88.485 19.564, 83.220 20.238, 77.479 20.102 C 70.391 19.933, 68.786 20.250, 63.671 22.830 L 57.882 25.750 50.191 23.291 C 44.258 21.395, 40.931 20.918, 35.637 21.205 C 29.235 21.553, 28.552 21.821, 25.460 25.195 C 17.976 33.361, 18.198 44.460, 26.520 78.127 C 28.474 86.032, 29.962 94.168, 29.827 96.207 C 29.514 100.931, 30.208 101.565, 33.403 99.472 C 35.836 97.877, 36.018 97.883, 36.665 99.568 C 37.710 102.294, 35.485 115.507, 30.446 136.500 C 23.747 164.403, 22.609 170.847, 23.886 173.650 C 25.312 176.778, 26.250 176.623, 30.009 172.638 L 33.180 169.275 40.644 173.138 C 46.867 176.358, 49.102 177, 54.086 177 C 57.374 177, 61.620 176.350, 63.522 175.555 C 65.424 174.761, 72.618 168.709, 79.510 162.108 C 88.550 153.449, 93.809 149.235, 98.392 146.979 C 105.429 143.514, 116.675 141.341, 122.202 142.378 L 125.792 143.052 126.146 158.953 C 126.464 173.225, 126.715 175.144, 128.600 177.677 C 133.111 183.740, 136.278 181.743, 150.960 163.578 C 165.580 145.488, 175.455 137.107, 182.250 137.022 C 183.213 137.010, 184 136.325, 184 135.500 C 184 134.497, 182.996 134, 180.968 134 C 179.301 134, 175.139 133.062, 171.718 131.915 C 154.200 126.041, 142.441 111.693, 150.703 106.273 C 152.722 104.948, 156.194 104.374, 164.428 104 L 175.451 103.500 177.836 94.500 C 181.275 81.523, 181.447 61.983, 178.193 53.853 C 173.955 43.261, 165.082 35.967, 151 31.499 C 147.975 30.539, 145.160 29.447, 144.744 29.072 C 144.329 28.696, 144.696 26.314, 145.560 23.778 C 146.424 21.243, 146.989 17.443, 146.815 15.334 C 146.371 9.934, 143.671 9.821, 137.205 14.932 M 136.416 19.250 C 129.563 25.512, 117.994 39.124, 106.746 54.160 L 98.559 65.104 98.529 76.802 C 98.498 89.214, 97.552 92.544, 92.801 96.971 L 90.623 99 98.061 99.024 C 106.771 99.053, 113.756 100.469, 116.230 102.708 C 117.864 104.187, 118.380 103.931, 123.473 99.114 C 128.447 94.410, 137.628 89.034, 140.730 89.010 C 144.142 88.983, 149.890 85.662, 150.825 83.178 C 152.140 79.687, 153.095 72.764, 152.198 73.231 C 132.766 83.350, 123.075 86.739, 118.522 85.008 C 107.951 80.989, 123.269 64.179, 144.063 56.978 C 149.380 55.137, 151.520 53.995, 150.322 53.638 C 145.367 52.165, 130.767 50.881, 125 51.412 C 121.425 51.741, 117.878 51.608, 117.118 51.115 C 115.215 49.881, 116.492 43, 118.625 43 C 119.809 43, 120.009 43.684, 119.500 46 L 118.841 49 129.737 49 C 144.152 49, 160 51.771, 160 54.291 C 160 54.983, 156.795 56.233, 152.550 57.198 C 141.953 59.606, 130.854 65.322, 123.871 71.967 C 117.894 77.654, 116.378 81.441, 119.586 82.671 C 122.353 83.733, 133.150 80.063, 143.805 74.439 C 149.473 71.448, 154.360 69, 154.665 69 C 154.969 69, 155.046 72.422, 154.835 76.604 C 154.479 83.640, 154.217 84.417, 151.320 87.006 C 149.598 88.544, 145.559 90.558, 142.344 91.480 C 139.130 92.403, 134.631 94.240, 132.347 95.564 C 126.296 99.071, 118.130 108.602, 113.117 118.010 L 108.739 126.227 114.799 125.523 C 121.877 124.702, 125 125.433, 125 127.912 C 125 133.733, 108.738 139.132, 100.566 136.025 C 94.469 133.707, 92.406 124.411, 95.794 114.517 C 97.430 109.739, 97.686 109.503, 102 108.812 C 108.646 107.747, 114 106.045, 114 104.998 C 114 102.467, 97.279 100.617, 86.660 101.973 C 72.654 103.761, 72.176 104.043, 66.250 114.018 C 63.363 118.878, 61 123.717, 61 124.772 C 61 127.132, 67.509 137.344, 72.618 142.999 L 76.402 147.188 73.951 149.120 C 67.113 154.511, 53.800 162.885, 51.138 163.470 C 40.980 165.701, 41.589 154.687, 52.862 132.272 C 55.742 126.545, 57 122.773, 57 119.860 C 57 114.284, 60.725 108.085, 65.786 105.240 C 70.052 102.843, 73.727 98.255, 72.343 97.055 C 71.879 96.653, 68.350 94.252, 64.500 91.718 C 55.149 85.565, 47.862 79.015, 45.513 74.653 C 42.813 69.641, 44.242 69.082, 48.929 73.316 C 61.569 84.737, 74.514 83.998, 82.873 71.378 C 91.705 58.045, 92.597 33.607, 84.530 26.028 L 82.161 23.803 63.083 28.651 C 51.411 31.618, 44.004 33.973, 44.003 34.719 C 44.001 35.389, 44.563 35.725, 45.250 35.467 C 48.837 34.116, 56.362 42.155, 57.589 48.648 C 58.471 53.311, 54.941 60.726, 51.418 61.610 C 44.953 63.233, 41.725 56.835, 41.594 42.139 L 41.500 31.585 47.894 29.663 C 55.386 27.410, 54.832 26.691, 43.834 24.398 C 32.924 22.124, 27.401 24.041, 24.585 31.080 C 21.519 38.742, 22.764 51.794, 28.963 77 C 30.519 83.325, 32.083 90.179, 32.438 92.231 C 32.968 95.296, 33.469 95.920, 35.246 95.731 C 36.767 95.568, 37.834 96.368, 38.843 98.426 C 40.696 102.206, 39.083 112.523, 32.073 141.716 C 27.228 161.892, 25.173 173, 26.285 173 C 26.583 173, 28.122 171.239, 29.704 169.087 L 32.582 165.174 38.041 168.625 C 46.038 173.680, 52.992 175.491, 58.794 174.030 C 64.121 172.689, 71.110 167.858, 76.558 161.751 C 91.595 144.895, 105.469 138.378, 122.862 140 L 128.225 140.500 128.451 155 C 128.701 170.990, 130.034 178, 132.826 178 C 134.941 178, 141.656 171.153, 149.498 161 C 157.303 150.895, 165.568 142.365, 170.903 138.908 C 174.628 136.493, 175.013 135.958, 173.403 135.429 C 154.404 129.189, 141.433 116.034, 145.952 107.590 C 148.229 103.334, 152.765 101.638, 163.435 101.049 L 173.379 100.500 175.314 93.500 C 176.758 88.274, 177.280 82.951, 177.374 72.500 C 177.485 60.146, 177.249 57.956, 175.363 53.878 C 170.861 44.141, 162.103 37.448, 148.881 33.639 C 141.359 31.472, 140.485 30.298, 142.320 24.821 C 146.508 12.321, 145.273 11.156, 136.416 19.250 M 113 16.708 C 109.276 17.358, 88.704 21.995, 87.179 22.529 C 86.182 22.878, 86.396 23.747, 88.049 26.068 C 91.101 30.354, 92.986 37.234, 93.076 44.409 C 93.148 50.145, 93.221 50.325, 94.328 47.500 C 96.992 40.707, 99.770 36.987, 109.825 26.750 C 120.804 15.573, 120.879 15.334, 113 16.708 M 69.813 23.683 C 70.534 23.972, 71.397 23.936, 71.729 23.604 C 72.061 23.272, 71.471 23.036, 70.417 23.079 C 69.252 23.127, 69.015 23.364, 69.813 23.683 M 44.184 44.577 C 44.713 53.661, 46.534 58.359, 49.702 58.812 C 52.286 59.181, 55 54.769, 55 50.198 C 55 46.429, 51.383 41.128, 47.108 38.631 L 43.723 36.654 44.184 44.577 M 91.696 58 C 89.634 68.375, 80.639 80.644, 73.326 83.057 C 69.744 84.240, 61.192 83.926, 57.500 82.476 C 53.890 81.058, 64.373 88.922, 69.855 91.743 C 74.968 94.375, 75.263 94.416, 76.355 92.653 C 76.985 91.637, 81.428 85.112, 86.229 78.153 C 92.724 68.739, 94.791 64.988, 94.306 63.500 C 93.947 62.400, 93.369 59.925, 93.022 58 L 92.392 54.500 91.696 58 M 90.918 76.015 C 79.456 92.239, 77.715 95.205, 79.132 96.103 C 81.260 97.451, 86.804 97.153, 89.959 95.521 C 94.197 93.330, 96.160 87.270, 95.796 77.499 L 95.500 69.529 90.918 76.015 M 75.376 99.201 C 74.386 100.802, 75.761 101.246, 78.688 100.270 L 81.500 99.331 78.726 98.800 C 77.201 98.507, 75.693 98.688, 75.376 99.201 M 63.155 110.530 C 60.935 113.352, 59.519 116.853, 60.287 117.621 C 60.546 117.879, 61.976 116.010, 63.467 113.467 C 66.508 108.276, 66.321 106.506, 63.155 110.530 M 113.069 108.936 C 112.282 109.434, 108.802 110.377, 105.336 111.031 C 99.279 112.174, 98.994 112.362, 98.022 115.860 C 96.322 121.982, 96.758 128.423, 99.073 131.365 C 100.862 133.640, 101.895 134, 106.637 134 C 112.295 134, 122 130.672, 122 128.732 C 122 127.730, 112.985 128.267, 106.673 129.645 L 103.846 130.263 108.047 121.881 C 110.358 117.272, 113.124 112.263, 114.193 110.750 C 116.152 107.978, 115.710 107.265, 113.069 108.936 M 53.528 137.250 C 48.777 147.363, 46 155.009, 46 157.976 C 46 162.567, 51.169 161.634, 60.649 155.331 C 64.417 152.825, 68.485 149.874, 69.688 148.771 L 71.877 146.767 66.922 140.303 C 64.197 136.747, 61.289 132.525, 60.458 130.919 C 59.628 129.314, 58.707 128, 58.411 128 C 58.115 128, 55.918 132.162, 53.528 137.250" stroke="none" fill="black" fill-rule="evenodd"/>
</svg>