<svg xmlns="http://www.w3.org/2000/svg" width="200" height="200" viewBox="0 0 200 200" version="1.1">
	<path d="M 90 13.516 C 79.405 15.681, 69.971 19.646, 63.260 24.755 C 61.478 26.112, 59.453 26.929, 58.760 26.572 C 58.067 26.214, 56.375 25.271, 55 24.476 C 51.510 22.457, 45.977 22.649, 38.890 25.037 C 28.247 28.622, 23.444 32.460, 20.116 40.037 C 16.011 49.380, 15.605 55.277, 15.551 106.249 C 15.523 133.060, 15.780 154.998, 16.122 154.999 C 16.464 154.999, 21.071 153.902, 26.360 152.560 C 44.099 148.061, 54.050 140.929, 67.609 123 C 70.729 118.875, 72.986 116.343, 72.625 117.372 C 72.264 118.402, 71.303 123.352, 70.488 128.372 C 67.810 144.889, 68.888 158.633, 73.654 168.725 C 79.763 181.661, 90.171 181, 94.761 167.386 C 96.184 163.167, 96.369 158.053, 96.119 129.924 C 95.929 108.550, 96.206 95.948, 96.925 93.279 C 97.865 89.786, 98.955 88.624, 104.633 85.064 C 108.271 82.784, 111.714 80.824, 112.285 80.709 C 112.857 80.594, 113.930 83.399, 114.671 86.943 L 116.018 93.386 113.117 96.443 C 106.939 102.952, 104.014 112.510, 103.979 126.299 C 103.967 131.030, 102.914 139.577, 101.490 146.500 C 98.635 160.378, 98.249 170.131, 100.481 171.984 C 101.425 172.768, 103.510 173, 106.231 172.624 C 127.864 169.636, 136.007 170.908, 148.834 179.282 L 156.354 184.191 162.427 182.996 C 175.447 180.435, 179.599 175.243, 175.495 166.651 C 174.667 164.918, 171.268 160.125, 167.941 156 C 156.492 141.804, 154.244 133.910, 160.008 128.146 C 164.205 123.949, 172.240 120.382, 183.712 117.624 C 197.210 114.379, 197.228 112.795, 183.784 111.127 C 170.949 109.535, 160.661 107.410, 157.327 105.663 L 154.769 104.323 159.448 100.489 C 165.965 95.149, 167.459 92.035, 165.619 87.630 C 164.133 84.074, 158.001 79.246, 150.976 76.101 L 146.959 74.302 155.730 73.676 C 165.134 73.004, 174.174 70.773, 175.699 68.747 C 177.039 66.968, 175.353 38.726, 173.533 32.467 C 169.879 19.897, 163.774 21.468, 150.565 38.376 C 143.515 47.401, 140.305 50.638, 139.352 49.685 C 138.525 48.859, 138.556 45.611, 139.502 33.942 C 140.373 23.197, 139.478 20, 135.600 20 C 131.980 20, 128.787 23.127, 119.059 36.193 C 113.652 43.456, 109.859 47.736, 109.573 46.897 C 109.311 46.129, 107.917 40.466, 106.476 34.312 C 103.997 23.731, 102.238 20.117, 100.185 21.386 C 99.436 21.849, 98.475 34.335, 97.654 54.250 C 97.570 56.313, 97.374 58, 97.220 58 C 97.065 58, 92.228 56.819, 86.470 55.377 C 79.139 53.540, 76 52.314, 76 51.289 C 76 49.371, 81.588 39.312, 90.678 24.863 C 94.705 18.463, 98 12.950, 98 12.613 C 98 11.872, 98.099 11.861, 90 13.516 M 84.794 17.475 C 78.636 19.170, 68.257 24.186, 64.600 27.234 L 61.701 29.650 63.372 34.075 C 64.291 36.509, 65.371 41.168, 65.771 44.429 C 66.444 49.904, 66.725 50.418, 69.450 51.146 C 71.072 51.579, 72.422 51.836, 72.450 51.717 C 72.885 49.838, 80.809 35.432, 86.055 26.983 C 93.408 15.139, 93.403 15.104, 84.794 17.475 M 130.643 26.189 C 128.326 28.607, 122.900 35.431, 118.584 41.352 L 110.738 52.118 111.619 57.279 C 112.495 62.409, 112.530 62.449, 117.452 63.836 C 122.389 65.226, 122.411 65.222, 124.650 62.414 L 126.896 59.597 127.873 62.167 C 130.376 68.750, 139.592 71.591, 155.500 70.684 C 161 70.370, 167.188 69.617, 169.250 69.010 L 173 67.906 172.980 56.703 C 172.946 37.423, 170.563 27, 166.189 27 C 164.142 27, 157.818 33.406, 149.591 43.815 C 142.813 52.389, 139.527 54.442, 137.349 51.462 C 136.190 49.878, 136.046 46.997, 136.596 36.396 C 137.408 20.739, 136.824 19.738, 130.643 26.189 M 39.971 27.442 C 27.273 32.122, 23.827 35.654, 20.325 47.580 C 18.780 52.839, 18.581 58.979, 18.543 102.586 L 18.500 151.672 22.500 150.803 C 42.052 146.558, 50.673 140.589, 65.115 121.299 C 70.797 113.710, 75.578 107.305, 75.740 107.067 C 75.901 106.828, 76.448 107.053, 76.954 107.567 C 77.517 108.137, 76.869 112.197, 75.288 118 C 73.077 126.118, 72.686 129.682, 72.600 142.500 C 72.482 160.240, 74.088 167.288, 79.480 172.680 C 83.455 176.655, 85.330 176.826, 88.420 173.492 C 93.003 168.547, 93.528 163.893, 93.146 131.656 C 92.704 94.271, 92.980 91.710, 97.962 87.033 C 100.032 85.090, 103.925 82.099, 106.613 80.388 C 111.127 77.513, 111.494 76.979, 111.427 73.388 C 111.259 64.488, 111.790 64.886, 93.785 60.150 C 84.828 57.794, 76.740 55.650, 75.810 55.385 C 74.543 55.024, 73.857 55.853, 73.066 58.702 C 71.414 64.651, 71.732 65.891, 75.988 70.105 C 80.791 74.860, 81.593 77.544, 80.072 83.770 C 78.839 88.818, 71.178 104.849, 68.015 109 L 66.110 111.500 64.332 107.500 C 62.780 104.007, 62.604 101.094, 62.946 84.500 C 63.161 74.050, 63.374 62.586, 63.419 59.025 L 63.500 52.550 57.256 51.102 C 53.822 50.306, 50.708 49.959, 50.336 50.331 C 48.037 52.630, 46.783 65.434, 46.291 91.633 C 46 107.107, 45.379 120.382, 44.910 121.133 C 43.572 123.277, 40.718 120.934, 39.146 116.402 C 37.415 111.412, 38.248 87.652, 40.877 67 C 41.893 59.025, 42.361 52.035, 41.919 51.466 C 40.629 49.809, 43.991 38, 45.752 38 C 47.260 38, 47.194 41.329, 45.433 54 C 45.166 55.925, 45.990 54.100, 47.264 49.945 C 49.363 43.103, 52.228 37.377, 56.586 31.316 C 58.079 29.240, 58.007 29.055, 55.128 27.566 C 51.515 25.698, 44.850 25.643, 39.971 27.442 M 101.685 37.500 C 101.304 42.450, 100.714 49.087, 100.373 52.250 C 99.671 58.753, 100.390 59.290, 104.313 55.195 C 107.552 51.815, 107.583 50.220, 104.654 38 L 102.376 28.500 101.685 37.500 M 56.275 36.584 C 54.544 39.288, 52.678 42.691, 52.128 44.147 C 51.169 46.686, 51.307 46.840, 55.507 47.897 C 63.149 49.822, 63.353 49.705, 62.736 43.728 C 62.436 40.828, 61.568 36.928, 60.807 35.061 L 59.422 31.668 56.275 36.584 M 65.664 76.231 C 65.312 89.029, 65.400 101.075, 65.861 103 L 66.699 106.500 71.965 95.810 C 74.999 89.654, 77.450 83.189, 77.746 80.564 C 78.223 76.332, 78.006 75.775, 74.696 72.743 C 69.883 68.335, 68.751 65.071, 70.040 59.319 C 71.188 54.199, 71.270 54.485, 68.402 53.605 C 66.325 52.968, 66.298 53.198, 65.664 76.231 M 105.612 57.876 C 104.057 59.595, 104.051 59.805, 105.539 60.376 C 108.327 61.446, 109 61.081, 109 58.500 C 109 55.520, 107.923 55.322, 105.612 57.876 M 113.775 68.919 C 114.386 73.081, 115.271 73.405, 118.025 70.473 C 120.673 67.655, 120.504 67.251, 116.337 66.417 C 113.433 65.837, 113.336 65.931, 113.775 68.919 M 42.144 80.735 C 40.845 95.052, 40.733 113.466, 41.928 116.500 C 42.362 117.601, 42.940 107.264, 43.214 93.500 C 43.489 79.750, 43.621 68.381, 43.508 68.235 C 43.395 68.089, 42.782 73.714, 42.144 80.735 M 119.552 72.946 L 115.699 76.893 116.977 84.363 L 118.254 91.833 121.528 91.302 C 132.063 89.592, 138.636 104.608, 135.965 124.282 C 135.276 129.352, 134.513 138.315, 134.269 144.200 C 133.956 151.757, 133.411 155.244, 132.413 156.072 C 131.266 157.024, 130.732 156.603, 129.576 153.836 C 127.486 148.834, 124.622 136.909, 120.421 115.717 C 118.084 103.929, 116.289 97.066, 115.599 97.289 C 114.994 97.485, 112.976 100.617, 111.113 104.249 C 107.926 110.465, 107.682 111.667, 106.963 124.677 C 106.544 132.280, 105.289 142.550, 104.175 147.500 C 101.543 159.198, 100.696 167.143, 101.890 168.935 C 102.700 170.150, 104.045 170.187, 110.673 169.178 C 127.401 166.632, 137.814 168.617, 149.716 176.622 C 155.787 180.705, 156.936 181.126, 160.646 180.626 C 166.382 179.852, 172.870 177.111, 174.012 174.978 C 175.557 172.090, 173.361 167.640, 164.726 156.156 C 155.701 144.154, 154 140.805, 154 135.035 C 154 131.798, 154.723 130.206, 157.675 126.938 C 162.100 122.040, 164.929 120.488, 175.899 116.941 L 184.297 114.226 179.899 113.555 C 169.397 111.953, 159.261 109.696, 156.250 108.290 C 151.476 106.061, 152.021 103.440, 158.500 97.458 C 161.525 94.665, 164 91.560, 164 90.558 C 164 85.981, 151.494 78.372, 133.670 72.105 C 128.814 70.397, 124.518 69, 124.123 69 C 123.729 69, 121.672 70.776, 119.552 72.946 M 119.637 94.778 C 119.195 95.494, 126.047 130.264, 129.141 143 L 130.477 148.500 130.736 144.500 C 130.879 142.300, 131.730 135.803, 132.628 130.063 C 135.257 113.255, 132.896 98.156, 127.160 95.086 C 124.808 93.827, 120.338 93.644, 119.637 94.778" stroke="none" fill="black" fill-rule="evenodd"/>
</svg>