<svg xmlns="http://www.w3.org/2000/svg" width="200" height="200" viewBox="0 0 200 200" version="1.1">
	<path d="M 118.378 18.183 C 114.045 21.034, 107.575 24.479, 104 25.839 C 91.330 30.658, 74.443 28.795, 58.684 20.841 C 55.447 19.206, 52.575 18.092, 52.302 18.364 C 51.454 19.213, 57.805 27.692, 61.745 30.971 C 63.810 32.689, 68.051 35.276, 71.168 36.718 L 76.836 39.341 74.534 41.152 C 73.268 42.148, 71.489 44.819, 70.581 47.089 C 69.356 50.151, 68.488 51.088, 67.215 50.722 C 66.272 50.450, 61.819 49.177, 57.319 47.891 C 49.370 45.619, 49.120 45.454, 48.484 42.061 C 46.415 31.036, 38.254 26.279, 29.270 30.862 C 14.817 38.236, 8.294 62.466, 14.102 87.205 C 15.988 95.237, 16.090 97.117, 15.102 105.499 C 13.719 117.223, 13.688 134.336, 15.040 139.205 C 16.258 143.589, 20.184 147, 24.012 147 C 25.520 147, 31.140 145.650, 36.500 144 C 48.172 140.407, 55.810 140.099, 61.484 142.992 C 64.483 144.521, 65.573 144.695, 66.169 143.742 C 67.779 141.171, 69.178 131.485, 69.926 117.724 C 70.352 109.901, 70.768 105.347, 70.850 107.603 C 71.621 128.705, 73.356 153.783, 74.499 160.332 C 76.387 171.147, 80.957 180.281, 86.222 183.766 C 94.966 189.552, 109.443 187.575, 127.500 178.128 L 136.500 173.420 141.974 177.247 C 144.985 179.352, 149.786 181.754, 152.643 182.585 C 157.162 183.898, 158.271 183.910, 161.169 182.676 C 170.805 178.573, 173.227 170.182, 174.986 134.807 C 176.104 112.313, 177.137 107.244, 181 105.293 C 182.375 104.598, 183.003 104.023, 182.395 104.015 C 180.045 103.983, 167.800 91.541, 165.269 86.613 C 162.949 82.098, 162.656 80.412, 162.763 72.192 C 162.912 60.788, 161.749 59, 154.184 59 C 149.721 59, 139.927 60.400, 135.684 61.644 C 134.120 62.103, 133.912 61.648, 134.184 58.352 L 134.500 54.528 150.028 49.979 C 168.910 44.447, 181.154 40.059, 180.529 39.047 C 180.273 38.633, 177.499 37.487, 174.364 36.501 C 169.462 34.959, 166.258 34.786, 151.473 35.264 L 134.281 35.819 133.629 27.338 C 132.915 18.048, 130.969 13, 128.103 13 C 127.087 13, 122.711 15.332, 118.378 18.183 M 118.107 21.522 C 107.391 28.526, 99.535 31, 88.008 31 C 79.946 31, 70.104 28.953, 61.500 25.486 C 59.750 24.781, 59.808 25.017, 61.956 27.374 C 65.702 31.483, 76.935 36.639, 85.180 38.035 C 92.436 39.263, 116.998 38.870, 126.880 37.368 L 131.260 36.702 130.735 28.101 C 130.169 18.839, 129.440 15.990, 127.643 16.018 C 127.014 16.028, 122.723 18.505, 118.107 21.522 M 29.500 33.871 C 23.582 37.546, 18.627 45.266, 15.938 55 C 13.937 62.244, 14.401 77.234, 16.938 87.303 C 18.925 95.187, 19.047 97.013, 18.115 104.803 C 15.472 126.895, 15.922 138.046, 19.621 142.134 C 21.921 144.675, 24.769 144.487, 36.879 140.994 C 48.295 137.701, 55.253 137.243, 60.510 139.440 C 62.406 140.232, 64.196 140.492, 64.489 140.018 C 66.046 137.499, 66.991 119.811, 67.231 88.704 L 67.500 53.908 59.187 51.317 C 53.641 49.588, 50.542 49.058, 49.874 49.726 C 49.289 50.311, 48.999 55.256, 49.175 61.613 C 49.897 87.673, 49.484 108.539, 48.171 112.250 C 46.542 116.858, 43.528 117.327, 41.754 113.250 C 39.692 108.509, 40.440 82.413, 43.036 68.500 C 45.536 55.103, 46.280 42.871, 44.827 39.036 C 42.238 32.199, 35.725 30.005, 29.500 33.871 M 151.500 37.518 C 150.400 37.725, 146.012 38.182, 141.750 38.533 L 134 39.171 134 45.085 C 134 49.212, 134.385 51, 135.275 51 C 137.095 51, 166.841 42.392, 170.854 40.704 C 173.565 39.564, 173.874 39.166, 172.468 38.626 C 170.391 37.829, 154.345 36.981, 151.500 37.518 M 116.500 41.033 C 112.650 41.428, 105.297 41.807, 100.160 41.876 L 90.820 42 95.910 46.023 C 98.710 48.236, 101 50.391, 101 50.811 C 101 51.232, 98.914 53.320, 96.364 55.452 L 91.727 59.328 99.433 62.162 L 107.139 64.996 110.345 62.551 C 113.158 60.405, 120.538 56.743, 129.250 53.171 C 132.178 51.970, 132.488 50.585, 131.358 43.750 C 130.659 39.518, 130.874 39.558, 116.500 41.033 M 78.308 42.019 C 75.815 43.013, 73.426 46.315, 72.515 50.027 C 71.923 52.440, 72.280 52.679, 80.443 55.337 L 88.990 58.121 92.977 54.810 C 95.170 52.990, 96.972 51.165, 96.982 50.756 C 97.005 49.824, 89.187 44.065, 86.500 43.034 C 82.246 41.403, 80.422 41.177, 78.308 42.019 M 70.626 58.849 C 69.865 63.450, 69.805 101, 70.558 101 C 71.920 101, 100.195 86.420, 102.688 84.432 L 105.464 82.218 96.482 81.492 C 87.478 80.764, 81.240 78.976, 79.800 76.711 C 78.120 74.067, 79.125 69.990, 82.568 65.478 C 84.531 62.907, 85.954 60.621, 85.731 60.397 C 85.507 60.174, 82.153 58.913, 78.277 57.594 L 71.230 55.197 70.626 58.849 M 120.386 59.902 C 112.562 63.613, 110.129 65.463, 111.402 66.735 C 111.733 67.066, 116.391 66.248, 121.752 64.917 C 131.442 62.512, 131.502 62.478, 131.813 59.249 C 132.230 54.932, 130.682 55.020, 120.386 59.902 M 86.304 65.202 C 82.817 68.817, 80.803 73.094, 81.838 74.684 C 83.263 76.872, 87.061 77.933, 95.851 78.596 C 111.665 79.790, 111.674 83.004, 95.888 91.631 C 90.725 94.454, 83.421 98.157, 79.659 99.860 L 72.817 102.958 73.368 106.729 C 73.670 108.803, 74.178 117.025, 74.495 125 C 75.716 155.705, 78.054 169.266, 83.502 177.239 C 90.419 187.362, 103.725 187.001, 125.218 176.107 L 136.937 170.168 140.718 173.215 C 145.651 177.189, 153.755 180.978, 157.350 180.990 C 161.473 181.004, 166.428 175.635, 168.463 168.947 C 170.032 163.793, 170.730 156.847, 172.890 124.949 C 173.424 117.060, 174.450 109.859, 175.346 107.715 L 176.885 104.032 170.971 98.391 C 162.549 90.358, 160.626 85.905, 160.005 73 L 159.500 62.500 155.500 62.151 C 153.300 61.959, 147.787 62.343, 143.250 63.004 L 135 64.207 135 70.490 L 135 76.772 141.930 80.889 C 149.070 85.131, 153 89.043, 153 91.910 C 153 94.718, 144.816 101.512, 139.711 102.941 C 135.442 104.136, 135 104.540, 135 107.247 C 135 110.757, 134.512 110.836, 147.972 105.154 C 157.001 101.343, 159 100.961, 159 103.042 C 159 104.180, 151.884 107.777, 142.250 111.508 L 135 114.316 135 121.658 L 135 129 137.918 129 C 145.418 129, 146.194 132.746, 139.532 136.788 C 135.604 139.172, 135.064 139.924, 135.070 143 C 135.076 145.851, 135.672 146.874, 138.289 148.516 C 144.653 152.510, 142.649 157.411, 133.114 161.173 C 128.386 163.039, 125.474 163.397, 114.665 163.444 C 102.448 163.497, 101.740 163.389, 99.965 161.201 C 98.651 159.581, 98.333 158.253, 98.889 156.701 C 100.216 152.996, 108.390 147.726, 120.225 142.945 C 131.056 138.569, 131.512 138.264, 131.813 135.195 C 132.180 131.454, 132.060 131.432, 120.291 133.112 C 116.006 133.724, 112.013 134.832, 111.418 135.574 C 109.860 137.516, 102.455 138.545, 101.473 136.956 C 101.012 136.210, 101.345 135.221, 102.291 134.529 C 103.878 133.368, 116.718 130.710, 126.750 129.464 L 132 128.812 132 121.939 L 132 115.066 122.375 119.533 C 111.727 124.475, 111 124.665, 111 122.500 C 111 121.299, 109.494 121, 103.450 121 C 92.697 121, 88 118.145, 88 111.611 C 88 108.803, 87.923 108.826, 103 106.975 C 111.761 105.899, 127.159 103.306, 130.250 102.386 C 133.370 101.457, 132.284 99, 128.753 99 C 124.487 99, 110.506 94.315, 108.863 92.335 C 107.789 91.041, 107.901 90.539, 109.538 89.312 C 111.049 88.178, 113.854 87.922, 121.750 88.195 L 132 88.551 132 83.711 L 132 78.871 123.250 74.820 C 113.898 70.491, 112.383 70.172, 107.114 71.418 C 103.853 72.189, 103.752 72.125, 104.365 69.681 C 104.951 67.348, 104.563 66.980, 99.542 65.101 C 90.105 61.571, 89.805 61.573, 86.304 65.202 M 124 67.133 C 117.366 68.939, 117.315 69.107, 122.663 71.500 C 132.144 75.742, 132 75.756, 132 70.567 C 132 65.491, 131.236 65.163, 124 67.133 M 44.008 80.427 C 42.771 91.907, 42.940 110.273, 44.295 111.628 C 46.050 113.383, 46.522 109.522, 46.842 90.810 C 47.241 67.472, 45.923 62.646, 44.008 80.427 M 135.195 84.683 C 135.498 89.342, 135.536 89.388, 140.006 90.524 C 142.484 91.153, 145.528 92.212, 146.771 92.877 C 148.661 93.889, 149.132 93.820, 149.655 92.456 C 150.449 90.387, 147.169 87.135, 140.195 83.075 L 134.890 79.987 135.195 84.683 M 112 91.460 C 112 92.368, 125.283 96, 128.605 96 C 131.269 96, 132 95.593, 132 94.107 C 132 93.066, 131.288 91.941, 130.418 91.607 C 128.588 90.905, 112 90.772, 112 91.460 M 135 94.098 C 135 95.824, 135.431 96.118, 137.250 95.630 C 138.488 95.299, 140.625 94.993, 142 94.950 C 144.262 94.881, 144.310 94.798, 142.500 94.085 C 141.400 93.652, 139.262 92.997, 137.750 92.630 C 135.400 92.059, 135 92.273, 135 94.098 M 135 99.500 C 135 101.296, 136.336 101.296, 141 99.500 L 144.500 98.152 139.750 98.076 C 136.161 98.019, 135 98.367, 135 99.500 M 124 106.482 C 120.425 107.194, 111.537 108.589, 104.250 109.582 C 92.878 111.131, 91 111.640, 91 113.171 C 91 115.404, 94.408 117.653, 99.089 118.507 C 103.267 119.270, 118.060 116.899, 126 114.195 C 131.206 112.422, 131.517 112.126, 131.810 108.661 C 131.981 106.647, 131.756 105.042, 131.310 105.094 C 130.865 105.146, 127.575 105.770, 124 106.482 M 135 134 C 135 136.488, 135.819 136.488, 139 134 L 141.500 132.044 138.250 132.022 C 135.659 132.005, 135 132.406, 135 134 M 121.472 145.437 C 110.713 149.796, 105.475 152.713, 102.501 155.999 C 100.735 157.950, 100.727 158.156, 102.353 159.781 C 105.688 163.116, 127.042 161.470, 135.500 157.226 C 140.812 154.561, 140.642 152.418, 134.884 149.440 C 132.851 148.389, 132.039 147.134, 131.811 144.692 L 131.500 141.373 121.472 145.437" stroke="none" fill="black" fill-rule="evenodd"/>
</svg>