<svg xmlns="http://www.w3.org/2000/svg" width="200" height="200" viewBox="0 0 200 200" version="1.1">
	<path d="M 134.500 17.052 C 129 18.076, 116.719 20.864, 107.210 23.247 C 90.081 27.539, 89.879 27.564, 85.577 25.931 C 75.737 22.196, 64.313 19.739, 56.500 19.678 C 44.703 19.585, 38.634 22.699, 33.457 31.500 C 28.284 40.295, 27.796 44.552, 26.980 88 C 26.242 127.336, 26.130 128.989, 23.111 145.500 C 19.535 165.047, 19.076 174.708, 21.673 175.705 C 23.985 176.592, 26.820 172.959, 37.188 155.826 C 47.802 138.288, 54.136 129.201, 60.925 121.772 C 65.689 116.560, 66.313 116.186, 68.548 117.204 L 70.981 118.313 66.425 123.184 C 63.310 126.514, 61.968 128.755, 62.184 130.267 C 62.808 134.635, 65.998 133.485, 72.705 126.475 C 76.244 122.776, 81.245 118.341, 83.819 116.618 L 88.500 113.485 104 114.654 C 112.525 115.298, 119.841 115.864, 120.258 115.912 C 120.676 115.960, 120.458 116.895, 119.774 117.990 C 118.626 119.829, 117.804 119.932, 108.912 119.349 C 101.720 118.878, 99.097 119.035, 98.518 119.971 C 97.528 121.572, 99.119 122.575, 106 124.686 C 109.025 125.614, 111.872 126.684, 112.328 127.064 C 113.559 128.093, 101.200 142.814, 94.678 148.087 L 89.004 152.674 75.762 152.195 C 63.340 151.747, 62.608 151.823, 63.943 153.432 C 68.127 158.473, 77.786 160.370, 84.654 157.500 C 86.629 156.675, 89.427 156.003, 90.872 156.006 C 94.455 156.013, 101 157.903, 101 158.930 C 101 160.390, 91.033 164.524, 73.324 170.409 C 56.362 176.046, 52.609 178.009, 54.734 180.134 C 56.253 181.653, 157.882 180.649, 164.183 179.053 C 177.121 175.775, 169.694 170.803, 145.268 166.391 L 135.036 164.543 144.078 162.325 C 156.940 159.170, 160.500 157.261, 160.500 153.520 C 160.500 149.774, 156.873 147.635, 140.280 141.596 C 127.908 137.093, 120.553 133.705, 119.518 132.030 C 119.179 131.480, 120.377 130.133, 122.181 129.036 L 125.460 127.042 122.230 126.396 C 117.462 125.442, 117.935 122.824, 122.750 123.513 C 132.842 124.957, 159.533 127.968, 167.728 128.587 C 174.528 129.100, 177.351 128.954, 178.466 128.028 C 181.106 125.837, 180.253 125.289, 163.640 118.503 L 155.780 115.293 160.432 114.121 C 163.120 113.445, 166.633 111.531, 168.753 109.588 C 172.187 106.441, 172.447 105.782, 172.812 99.316 C 173.027 95.516, 172.481 87.867, 171.599 82.318 C 170.717 76.770, 169.716 67.566, 169.374 61.865 C 168.829 52.771, 169.074 50.173, 171.376 40.670 C 174.540 27.611, 174.747 23.713, 172.250 24.183 C 171.100 24.400, 166.652 32.058, 159.282 46.507 C 151.810 61.155, 148.053 67.611, 148.032 65.839 C 147.988 62.204, 143.371 58.528, 136.897 56.975 C 133.196 56.087, 128.014 55.935, 119.088 56.453 C 102.556 57.412, 102.318 57.411, 96.500 56.343 C 93.750 55.838, 90.751 55.580, 89.835 55.769 C 87.597 56.232, 86.686 58.916, 88.163 60.696 C 89.132 61.864, 88.808 62.578, 86.460 64.450 L 83.560 66.762 77.959 58.131 C 72.816 50.206, 67.281 44.234, 62.421 41.367 C 59.237 39.488, 69.261 38.419, 76 39.919 C 98.713 44.975, 105.856 46.164, 116.697 46.692 C 129.812 47.331, 135 46.294, 135 43.034 C 135 38.757, 126.492 35.671, 110.459 34.131 C 104.453 33.554, 103.054 33.226, 106.216 33.135 C 120.239 32.733, 147.131 27.299, 156.207 23.033 C 171.157 16.006, 158.634 12.555, 134.500 17.052 M 149.500 17.668 C 136.791 19.229, 115.061 23.689, 98.543 28.126 C 95.179 29.029, 94.853 29.338, 96.368 30.186 C 98.601 31.436, 118.350 29.655, 132.632 26.916 C 146.468 24.263, 159.532 19.670, 158.410 17.854 C 157.887 17.009, 155.307 16.955, 149.500 17.668 M 46.871 23.565 C 40.502 25.526, 35.706 31.064, 32.910 39.687 C 30.844 46.059, 30.653 49.092, 29.960 86.500 C 29.250 124.813, 29.090 127.238, 26.175 144 C 24.500 153.625, 22.811 164.197, 22.420 167.493 C 21.792 172.788, 21.886 173.340, 23.229 172.225 C 24.065 171.532, 29.527 163.151, 35.367 153.601 C 47.329 134.043, 52.853 126.221, 59.772 119.042 C 64.048 114.606, 64.398 113.908, 63.151 112.297 C 60.509 108.883, 55.230 96.477, 53.591 89.831 C 48.298 68.360, 49.523 47.430, 56.369 42.372 C 58.411 40.863, 58.343 40.825, 54.750 41.444 C 49.899 42.280, 49.484 39.721, 54.250 38.363 C 56.784 37.640, 57.571 36.821, 57.824 34.640 C 58.073 32.490, 58.536 31.993, 59.824 32.491 C 64.216 34.191, 67.611 34.061, 75.478 31.890 C 80.165 30.597, 84 29.229, 84 28.850 C 84 27.910, 75.933 25.304, 67.479 23.513 C 58.879 21.691, 52.906 21.706, 46.871 23.565 M 81.500 33.086 L 75.500 35.010 81.897 34.505 C 85.415 34.227, 90.365 33.982, 92.897 33.961 L 97.500 33.922 94.135 32.461 C 89.958 30.647, 88.953 30.697, 81.500 33.086 M 156.829 57.163 C 149.498 71.648, 143.369 83.986, 143.209 84.580 C 143.050 85.174, 144.770 86.494, 147.032 87.514 C 152.035 89.770, 155 93.323, 155 97.062 C 155 100.877, 149.555 105.213, 141.822 107.554 L 135.757 109.390 142.128 111.247 C 155.515 115.148, 168.723 110.621, 170.425 101.548 C 170.763 99.745, 170.096 91.571, 168.943 83.385 C 166.255 64.313, 166.246 49.037, 168.917 39.038 C 170.013 34.934, 170.741 31.407, 170.534 31.201 C 170.328 30.994, 164.160 42.677, 156.829 57.163 M 81.500 37.819 C 82.953 39.269, 102.239 42.951, 113.234 43.879 C 123.292 44.728, 130.938 44.144, 131.287 42.500 C 131.404 41.950, 129.025 40.635, 126 39.577 C 121.489 38, 116.905 37.579, 100.500 37.238 C 87.200 36.961, 80.835 37.156, 81.500 37.819 M 61 47.755 C 61 52.921, 63.455 62.002, 66.409 67.767 C 70.916 76.560, 80.944 84.334, 92.500 87.994 C 97.784 89.667, 99.314 90.917, 98.007 92.492 C 96.750 94.006, 80.214 98.548, 79.297 97.631 C 78.125 96.458, 80.338 95.310, 87.328 93.464 L 94.155 91.661 88.070 89.374 C 71.751 83.238, 61.879 70.866, 58.650 52.500 L 57.244 44.500 55.373 48.500 C 52.403 54.849, 52.871 76.336, 56.257 89.089 C 58.654 98.117, 62.018 106.072, 65.274 110.410 C 66.677 112.280, 66.806 112.272, 71.437 110.031 C 75.436 108.094, 77.124 107.839, 82.367 108.376 L 88.568 109.011 92.855 102.491 C 95.213 98.904, 97.557 96.226, 98.064 96.539 C 98.979 97.105, 96.586 102.277, 93.256 106.930 C 91.530 109.342, 91.536 109.354, 94.009 108.560 C 95.379 108.120, 103.250 107.643, 111.500 107.499 L 126.500 107.238 129.802 101.869 C 131.619 98.916, 134.214 94.362, 135.569 91.750 L 138.034 87 131.482 87 C 125.078 87, 124.665 86.835, 113.063 79.621 C 106.536 75.562, 99.062 70.612, 96.454 68.621 C 93.846 66.629, 91.292 65, 90.779 65 C 90.266 65, 88.496 66.350, 86.846 68 C 85.196 69.650, 83.543 70.987, 83.173 70.971 C 82.803 70.956, 80.475 67.518, 78 63.333 C 73.323 55.424, 66.136 46.678, 62.882 44.937 C 61.192 44.032, 61 44.319, 61 47.755 M 90 58.941 C 90 60.569, 91.680 61.014, 95.147 60.306 C 98.390 59.643, 98.418 59.597, 96 58.910 C 92.317 57.863, 90 57.875, 90 58.941 M 111 59.746 C 111 60.262, 112.688 61.197, 114.750 61.825 C 116.813 62.453, 123.450 65.464, 129.500 68.516 L 140.500 74.066 142.750 71.477 C 143.988 70.053, 145 67.575, 145 65.970 C 145 60.994, 140.871 59.609, 124.750 59.177 C 116.598 58.958, 111 59.190, 111 59.746 M 98.169 62.095 C 95.291 62.962, 95.015 63.313, 96.140 64.668 C 97.722 66.575, 108.907 74.136, 118.686 79.909 C 125.111 83.702, 126.605 84.170, 132.794 84.326 L 139.717 84.500 142.841 78.540 C 145.905 72.696, 145.915 72.630, 143.371 75.175 L 140.776 77.770 134.138 73.971 C 125.588 69.078, 108.865 61.976, 104.720 61.478 C 102.949 61.265, 100.001 61.543, 98.169 62.095 M 139.974 89.750 C 133.024 101.415, 130.364 106.558, 131.132 106.843 C 132.498 107.349, 142.039 104.960, 145.500 103.245 C 154.355 98.858, 154.286 94.171, 145.300 89.621 C 141.328 87.609, 141.249 87.611, 139.974 89.750 M 72.162 112.690 C 68.824 114.335, 68.824 114.335, 71.108 115.558 C 72.967 116.552, 74 116.491, 76.652 115.226 C 78.445 114.371, 80.143 113.070, 80.425 112.336 C 81.153 110.437, 76.314 110.645, 72.162 112.690 M 115.500 112 C 112.923 112.656, 113.232 112.780, 117.691 112.882 C 120.546 112.947, 123.160 112.550, 123.500 112 C 124.209 110.852, 120.011 110.852, 115.500 112 M 127 112 C 127 112.550, 129.137 112.947, 131.750 112.882 C 135.990 112.776, 136.178 112.681, 133.500 112 C 129.077 110.874, 127 110.874, 127 112 M 122.954 118.086 C 122.340 119.233, 121.987 120.309, 122.169 120.478 C 122.768 121.032, 166.520 126.002, 170.049 125.917 L 173.500 125.833 168.300 123.373 C 155.518 117.326, 149.809 116, 136.554 116 C 124.923 116, 123.994 116.142, 122.954 118.086 M 69.021 124.479 C 66.603 126.943, 64.849 129.182, 65.123 129.456 C 65.397 129.730, 67.827 127.714, 70.523 124.977 C 73.219 122.240, 74.973 120, 74.421 120 C 73.868 120, 71.438 122.016, 69.021 124.479 M 110 123 C 111.375 123.440, 113.400 123.839, 114.500 123.885 C 116.148 123.955, 116.236 123.799, 115 123 C 114.175 122.467, 112.150 122.069, 110.500 122.115 C 107.560 122.198, 107.550 122.215, 110 123 M 111.562 134.024 C 108.959 137.338, 103.877 142.972, 100.269 146.545 C 96.660 150.118, 93.886 153.174, 94.104 153.337 C 94.322 153.499, 96.256 154.052, 98.402 154.566 C 103.591 155.808, 105.063 158.164, 102.458 161.058 C 99.811 163.999, 92.290 167.211, 75.541 172.554 C 67.819 175.017, 60.977 177.365, 60.337 177.771 C 58.382 179.013, 158.988 177.566, 164 176.280 C 167.215 175.455, 167.337 175.294, 165.500 174.294 C 163.130 173.004, 143.732 168.645, 132.750 166.933 C 124.189 165.599, 122.359 163.546, 128.750 162.445 C 147.589 159.199, 157.343 156.298, 157.809 153.803 C 158.208 151.669, 154.181 149.587, 139 144.076 C 132.675 141.781, 125.250 138.679, 122.500 137.183 C 118.087 134.783, 117.501 134.085, 117.510 131.232 C 117.515 129.454, 117.244 128, 116.907 128 C 116.571 128, 114.165 130.711, 111.562 134.024 M 74.250 155.716 C 75.763 155.945, 78.237 155.945, 79.750 155.716 C 81.263 155.487, 80.025 155.300, 77 155.300 C 73.975 155.300, 72.737 155.487, 74.250 155.716" stroke="none" fill="black" fill-rule="evenodd"/>
</svg>