<svg xmlns="http://www.w3.org/2000/svg" width="200" height="200" viewBox="0 0 200 200" version="1.1">
	<path d="M 85.319 14.250 C 82.626 17.234, 80.342 21.411, 78.071 27.500 L 76.207 32.500 61.854 33.124 C 53.959 33.468, 45.138 33.805, 42.250 33.874 C 38.408 33.966, 37 34.386, 37 35.439 C 37 36.400, 38.577 37.087, 41.750 37.509 C 61.293 40.110, 69.446 42.147, 68.755 44.256 C 68.187 45.989, 58.168 49.431, 41.586 53.590 C 26.246 57.438, 23.236 58.985, 27.083 61.044 C 28.812 61.970, 33.597 62.114, 45.950 61.612 C 55.052 61.243, 63.962 60.679, 65.750 60.359 C 68.702 59.831, 69 60.006, 69 62.266 C 69 63.635, 68.401 65.252, 67.670 65.859 C 66.938 66.466, 58.713 69.838, 49.391 73.353 C 28.299 81.304, 22 84.418, 22 86.892 C 22 89.458, 33.540 100.800, 40.194 104.774 C 43.209 106.575, 48.896 108.825, 52.831 109.774 C 56.766 110.723, 59.989 111.731, 59.993 112.013 C 59.997 112.296, 57.700 113.073, 54.889 113.741 C 26.829 120.406, 18.545 141.541, 30.192 176.750 C 31.876 181.837, 33.567 186, 33.951 186 C 34.335 186, 37.954 184.876, 41.993 183.502 C 46.032 182.129, 56.573 179.621, 65.418 177.929 C 74.263 176.237, 83.300 174.061, 85.500 173.093 C 93 169.794, 97.877 161.993, 98.060 153 C 98.125 149.826, 98.268 150.012, 99.601 155 C 103.740 170.491, 118.560 182.365, 137.940 185.720 C 144.806 186.908, 147.885 186.980, 153.500 186.079 C 166.552 183.987, 178.280 176.204, 184.580 165.453 C 188.042 159.546, 187.568 156.033, 183 153.752 C 178.557 151.532, 171.972 151.573, 152 153.945 C 143.475 154.957, 136.135 155.446, 135.690 155.032 C 133.959 153.424, 149.225 143.427, 171.739 131.425 C 176.821 128.716, 180.835 126.050, 180.659 125.500 C 180.471 124.914, 173.132 124.263, 162.919 123.926 C 146.897 123.398, 144.496 123.066, 132.980 119.786 C 126.094 117.825, 116.971 115.657, 112.705 114.969 C 108.439 114.280, 105.117 113.550, 105.322 113.345 C 105.527 113.140, 111.244 113.454, 118.027 114.043 C 127.319 114.849, 131.609 114.819, 135.429 113.920 C 145.518 111.545, 153.566 105.958, 155.936 99.685 C 157.459 95.656, 157.249 85.533, 155.446 76.031 C 154.592 71.526, 154.029 65.964, 154.196 63.670 L 154.500 59.500 164 58.784 C 178.435 57.695, 185.296 56.618, 185.710 55.373 C 186.308 53.573, 183.191 52.848, 172.352 52.267 C 163.356 51.785, 161.701 51.966, 157.786 53.862 C 148.920 58.153, 148.139 55.793, 155.758 47.735 C 164.358 38.639, 166.178 35.675, 165.811 31.361 C 165.377 26.249, 160.547 22.572, 150.984 20.072 L 143.500 18.115 141.043 21.308 C 135.456 28.569, 128.167 34.878, 124.591 35.549 C 117.495 36.880, 115.776 35.663, 98.681 17.204 C 93.104 11.182, 88.921 10.258, 85.319 14.250 M 87.291 16.250 C 84.938 18.824, 82.428 23.535, 80.501 28.997 L 79.171 32.766 82.836 33.372 C 84.851 33.705, 88.300 33.999, 90.500 34.024 C 96.566 34.093, 109.315 36.581, 113.302 38.473 C 119.517 41.422, 118.965 45.447, 111.848 49.078 C 106.071 52.025, 104.466 50.003, 110.096 46.869 C 112.437 45.566, 114.517 43.994, 114.718 43.375 C 115.545 40.827, 102.799 37.637, 86.894 36.411 L 78.287 35.748 76.165 43.624 C 72.436 57.467, 72.398 57.998, 75.125 58.015 C 81.533 58.057, 81.467 62.218, 74.999 66.001 L 70.500 68.632 67.843 82.566 C 66.381 90.230, 65.284 96.603, 65.404 96.728 C 65.578 96.910, 81.370 92.916, 85.457 91.657 C 85.983 91.495, 84.664 90.493, 82.526 89.431 C 80.387 88.369, 78.157 86.685, 77.569 85.689 C 74.709 80.845, 87.910 76.161, 107.500 75.072 C 117.939 74.491, 119.142 74.251, 116.750 73.227 C 113.628 71.890, 113.035 69, 115.883 69 C 118.421 69, 119.015 66.550, 119.700 53.250 C 120.169 44.128, 120.565 42, 121.792 42 C 123.089 42, 123.214 43.538, 122.667 52.750 C 122.315 58.663, 121.540 65.224, 120.945 67.330 C 119.882 71.090, 119.951 71.256, 124.721 76.330 C 130.007 81.954, 142.410 97.958, 141.848 98.430 C 141.656 98.590, 135.650 98.140, 128.500 97.429 C 116.034 96.190, 115.414 96.217, 113.417 98.086 C 111.140 100.216, 99.923 102.955, 93.363 102.983 C 89.509 102.999, 89.196 103.211, 88.773 106.093 C 88.516 107.845, 88.792 109.320, 89.410 109.496 C 90.009 109.666, 99.814 110.324, 111.197 110.956 C 132.998 112.167, 136.487 111.851, 143.994 107.987 C 149.247 105.284, 152.725 101.053, 154.048 95.757 C 155.058 91.717, 154.906 89.143, 153.020 78.392 C 151.803 71.450, 151.016 64.360, 151.271 62.635 C 151.626 60.238, 151.170 58.974, 149.334 57.266 C 147.093 55.183, 147.030 54.846, 148.387 52.266 C 149.188 50.745, 152.165 47.250, 155.002 44.500 C 157.840 41.750, 161.053 37.776, 162.143 35.669 C 164.002 32.072, 164.023 31.684, 162.477 29.325 C 160.684 26.587, 154.865 23.654, 148.304 22.180 L 144.133 21.242 139.591 27.091 C 131.394 37.647, 123.086 41.125, 115.416 37.212 C 111.473 35.201, 103.924 27.806, 98.550 20.691 C 96.203 17.584, 91.475 14, 89.724 14 C 89.518 14, 88.423 15.012, 87.291 16.250 M 61.712 37.920 C 69.910 39.934, 72.225 41.425, 71.798 44.412 C 71.356 47.508, 64.506 50.468, 47.451 54.931 C 30.506 59.365, 31.009 59.560, 56.256 58.349 L 69.829 57.698 72.414 47.380 C 73.836 41.704, 75 36.822, 75 36.530 C 75 36.239, 70.388 36.033, 64.750 36.074 L 54.500 36.147 61.712 37.920 M 162.768 55.725 C 164.565 55.947, 167.265 55.943, 168.768 55.715 C 170.271 55.486, 168.800 55.304, 165.500 55.310 C 162.200 55.315, 160.971 55.502, 162.768 55.725 M 71.717 62.974 C 71.228 64.846, 71.351 64.870, 74.100 63.448 C 77.624 61.626, 77.756 61, 74.617 61 C 73.085 61, 72.049 61.705, 71.717 62.974 M 50 76.019 C 31.777 82.989, 25 86.020, 25 87.200 C 25 89.144, 38.026 100.696, 43.068 103.223 C 48.712 106.053, 58.945 109.090, 60.250 108.323 C 60.663 108.080, 61 107.009, 61 105.941 C 61 104.255, 60.278 104, 55.500 104 C 48.561 104, 47.820 101.628, 54.250 100.002 C 62.543 97.905, 62.153 98.469, 64.655 84.931 C 67.206 71.130, 67.329 69.980, 66.250 70.045 C 65.838 70.070, 58.525 72.758, 50 76.019 M 100.500 78.139 C 88.950 79.601, 80 82.634, 80 85.086 C 80 85.549, 82.810 86.790, 86.245 87.845 L 92.491 89.762 102.460 86.292 C 107.943 84.383, 114.245 81.881, 116.465 80.732 C 120.408 78.690, 120.443 78.626, 118 77.921 C 114.728 76.977, 109.131 77.047, 100.500 78.139 M 122 79.784 C 122 81.086, 115.993 84.222, 107.063 87.582 C 99.456 90.444, 98.912 90.816, 101.561 91.345 C 108.083 92.648, 130.916 95.137, 133.523 94.829 L 136.312 94.500 130.144 86.750 C 124.587 79.768, 122 77.555, 122 79.784 M 77.649 96.515 C 71.131 98.360, 65.544 100.123, 65.233 100.434 C 64.921 100.745, 69.808 101, 76.093 101 C 86.496 101, 87.633 100.818, 88.788 98.968 C 89.486 97.850, 91.507 96.052, 93.278 94.972 L 96.500 93.007 93 93.085 C 91.075 93.128, 84.167 94.671, 77.649 96.515 M 96.370 96.440 C 90.393 99.042, 91.059 100.383, 97.970 99.661 C 106.211 98.800, 112.493 96.930, 110.786 95.846 C 108.770 94.568, 99.827 94.936, 96.370 96.440 M 63.656 106.206 C 63.339 107.420, 63.318 108.651, 63.610 108.943 C 63.901 109.234, 69.058 109.641, 75.070 109.847 L 86 110.221 86 107.111 L 86 104 75.117 104 C 64.735 104, 64.207 104.102, 63.656 106.206 M 73 113.596 C 71.625 113.833, 68.638 114.266, 66.363 114.558 L 62.225 115.089 60.481 126.294 L 58.736 137.500 62.368 148.088 C 67.902 164.221, 66.953 171.197, 60.018 165.362 C 56.486 162.390, 50.763 150.864, 48.982 143.134 C 47.158 135.223, 48.183 125.832, 51.401 120.970 C 54.488 116.306, 53.604 116.040, 46.305 119.438 C 38.553 123.048, 32.466 129.149, 29.938 135.843 C 26.735 144.327, 27.548 159.905, 31.888 173.187 L 35.054 182.874 40.777 180.898 C 43.925 179.811, 54.375 177.348, 64 175.426 C 73.625 173.503, 83.525 170.921, 86 169.688 C 94.139 165.633, 96.912 155.522, 93.925 140.799 C 93.098 136.724, 87.151 115.438, 86.517 114.282 C 86.232 113.762, 75.269 113.205, 73 113.596 M 90 115.420 C 90 115.651, 91.575 121.312, 93.500 128 C 95.425 134.688, 97.045 141.586, 97.100 143.330 C 97.170 145.535, 97.621 144.521, 98.581 140 C 99.341 136.425, 101.690 130.076, 103.802 125.891 L 107.641 118.281 100.571 116.628 C 93.624 115.003, 90 114.589, 90 115.420 M 54.312 121.657 C 50.342 126.863, 49.837 137.162, 53.060 147.187 C 55.313 154.193, 60.431 163.042, 62.629 163.732 C 64.280 164.250, 62.773 157.223, 58.998 146.801 C 55.921 138.303, 55.874 137.921, 56.999 130.301 C 57.633 126.010, 58.391 121.487, 58.684 120.250 C 59.482 116.879, 57.461 117.529, 54.312 121.657 M 109.349 121.257 C 94.759 143.256, 100.335 166.559, 122.916 177.958 C 144.533 188.870, 169.563 183.823, 180.819 166.282 C 184.736 160.178, 184.908 157.296, 181.435 155.975 C 177.832 154.606, 167.321 154.814, 155 156.500 C 140.934 158.425, 133.592 158.418, 131.982 156.479 C 129.492 153.478, 138.091 147.197, 168 130.174 L 173.500 127.044 161.910 127.022 C 153.452 127.006, 148.183 126.440, 142.410 124.927 C 123.339 119.928, 115.367 118.023, 113.500 118.019 C 112.350 118.016, 110.586 119.392, 109.349 121.257" stroke="none" fill="black" fill-rule="evenodd"/>
</svg>