<svg xmlns="http://www.w3.org/2000/svg" width="200" height="200" viewBox="0 0 200 200" version="1.1">
	<path d="M 144.670 15.616 C 139.330 18.506, 121.501 25.210, 114.002 27.147 C 103.648 29.822, 92.381 29.745, 86.926 26.962 C 83.666 25.299, 82.306 23.765, 80.681 19.918 C 79.538 17.213, 78.242 15, 77.802 15 C 77.361 15, 77 18.063, 77 21.806 L 77 28.612 68.250 26.823 C 57.421 24.609, 43.128 24.476, 36.226 26.526 C 20.183 31.290, 12.786 47.246, 14.449 73.500 C 14.832 79.550, 15.512 86.750, 15.960 89.500 C 16.507 92.858, 16.325 96.635, 15.405 101 C 12.668 113.985, 14.214 130.620, 19.037 140.073 C 23.609 149.035, 33.044 155.210, 39.637 153.555 C 41.186 153.166, 44.040 151.185, 45.977 149.153 C 48.033 146.997, 51.296 144.922, 53.812 144.170 C 58.644 142.727, 64.865 137.572, 68.110 132.322 C 69.295 130.405, 71.483 125.045, 72.974 120.410 C 75.660 112.057, 76.976 109.352, 77.026 112.083 C 77.040 112.862, 78.123 119.563, 79.432 126.974 L 81.814 140.447 79.830 149.474 C 78.451 155.746, 77.946 161.164, 78.173 167.232 C 78.482 175.484, 78.672 176.136, 81.628 179.091 C 86.060 183.521, 90.815 183.813, 105 180.528 C 124.220 176.076, 129.157 175.493, 135.544 176.922 C 139.877 177.892, 142.120 179.120, 145.218 182.218 L 149.251 186.251 152.747 184.584 C 158.767 181.713, 162.576 178.194, 165.552 172.754 C 169.989 164.644, 170.149 153.124, 166.095 133.577 C 162.668 117.053, 162.171 108.933, 164.471 107.024 C 165.396 106.257, 168.252 105.933, 172.172 106.152 L 178.402 106.500 180.140 101 C 181.096 97.975, 181.905 92.793, 181.939 89.484 C 182.052 78.343, 176.741 73.157, 164.103 72.067 L 157.535 71.500 175.252 62.500 C 184.997 57.550, 192.977 52.938, 192.985 52.250 C 192.996 51.301, 189.141 51, 177 51 C 168.200 51, 161.006 50.663, 161.013 50.250 C 161.020 49.837, 162.580 43.694, 164.479 36.599 C 166.378 29.503, 167.695 23.316, 167.407 22.849 C 166.415 21.245, 165.241 22.005, 163.971 25.071 C 163.271 26.760, 158.990 31.535, 154.458 35.684 C 149.926 39.832, 145.634 44.315, 144.921 45.647 C 143.786 47.769, 143.878 48.323, 145.666 50.110 C 146.788 51.233, 149.584 52.403, 151.878 52.710 C 154.172 53.018, 156.245 53.588, 156.485 53.976 C 156.726 54.365, 154.334 64.440, 151.171 76.366 L 145.420 98.048 142.869 95.274 C 141.467 93.748, 136.708 88, 132.294 82.500 C 114.940 60.873, 106.990 56.370, 102.500 65.620 L 100.500 69.740 96.188 64.892 C 93.816 62.225, 89.212 58.346, 85.958 56.272 L 80.042 52.500 80.021 43.750 L 80 35 89.750 35.022 C 100.961 35.047, 107.188 37.123, 109.182 41.501 C 110.200 43.735, 109.989 44.871, 107.684 49.573 C 104.522 56.020, 104.403 57, 106.784 57 C 108.628 57, 112 52.303, 112 49.734 C 112 48.933, 113.237 46.010, 114.750 43.240 C 117.193 38.765, 119.314 36.999, 133.767 27.404 C 142.714 21.464, 149.886 16.159, 149.705 15.614 C 149.165 13.994, 147.668 13.994, 144.670 15.616 M 123.422 27.087 C 118.980 28.667, 111.780 30.572, 107.422 31.321 C 100.257 32.553, 99.816 32.755, 102.809 33.434 C 104.629 33.847, 107.629 35.696, 109.476 37.543 L 112.835 40.901 114.423 38.477 C 115.296 37.144, 119.496 33.730, 123.756 30.890 C 135.861 22.820, 135.848 22.667, 123.422 27.087 M 80 28.507 L 80 32 85.750 31.924 C 91.324 31.850, 91.402 31.812, 88.318 30.674 C 86.567 30.028, 83.980 28.490, 82.568 27.257 L 80 25.013 80 28.507 M 41.871 27.980 C 30.643 29.969, 24.031 35.283, 19.866 45.668 C 17.667 51.152, 17.545 52.573, 17.833 69.500 C 18.275 95.548, 18.253 98.187, 17.474 112.096 C 16.893 122.475, 17.067 125.732, 18.463 130.596 C 21.874 142.481, 28.144 149.673, 36.014 150.729 C 39.868 151.246, 40.349 151.012, 44.422 146.639 C 47.133 143.727, 49.594 142, 51.033 142 C 54.949 142, 61.590 137.314, 64.809 132.280 C 67.690 127.776, 70.244 120.887, 73.225 109.580 C 73.938 106.874, 75.073 104.476, 75.747 104.251 C 77.724 103.592, 78.885 107.523, 81.851 124.907 L 84.650 141.313 82.806 148.907 C 80.507 158.372, 80.044 170.420, 81.818 174.620 C 84.473 180.908, 89.519 181.339, 108.339 176.885 C 129.592 171.856, 140.211 172.732, 147.077 180.083 L 149.987 183.198 154.245 180.702 C 159.700 177.505, 161.429 175.545, 164.081 169.550 C 167.267 162.346, 166.972 151.202, 163.101 132.577 C 159.195 113.781, 159.094 108.815, 162.548 105.361 C 164.784 103.125, 165.782 102.855, 170.689 103.156 L 176.281 103.500 177.724 99.500 C 179.757 93.866, 179.776 83.833, 177.760 80.757 C 175.187 76.829, 170.104 75, 161.764 75 L 154.330 75 151.165 86.992 C 149.424 93.588, 148 99.587, 148 100.323 C 148 101.060, 149.101 102.251, 150.447 102.972 C 154.539 105.162, 154.260 106.697, 149.553 107.882 C 145.563 108.887, 145.163 109.295, 144.124 113.421 C 138.890 134.207, 131.313 154.383, 127.010 158.989 C 121.995 164.358, 117.187 162.725, 104.565 151.366 L 98.860 146.231 103.828 141.952 L 108.796 137.673 107.485 133.958 C 106.764 131.914, 105.873 127.600, 105.505 124.371 C 104.499 115.541, 104.235 115, 100.933 115 C 97.285 115, 93.957 111.882, 94.674 109.137 C 94.964 108.031, 96.769 105.293, 98.686 103.053 C 101.704 99.528, 102.098 98.478, 101.615 95.240 C 101.308 93.183, 100.962 88.125, 100.845 84 C 100.713 79.346, 99.982 75.169, 98.920 72.993 C 96.925 68.909, 87.811 59.988, 83.192 57.599 L 80 55.949 80 60.338 C 80 65.537, 78.453 74.371, 76.855 78.301 C 76.036 80.313, 75.124 81.017, 73.617 80.801 C 69.885 80.266, 68.553 75.563, 68.525 62.825 L 68.500 51.151 65.625 50.575 C 61.944 49.839, 54.134 49.857, 51.331 50.609 C 49.170 51.189, 49.161 51.307, 48.831 84.345 C 48.496 117.877, 47.954 122.767, 44.682 121.756 C 43.185 121.294, 40.230 115.402, 39.391 111.207 C 38.908 108.789, 39.103 108, 40.186 108 C 41.080 108, 42.127 109.970, 42.959 113.216 C 45.602 123.531, 46.382 113.221, 46.075 72 L 45.937 53.500 43.515 56.252 C 38.435 62.024, 37.889 69.365, 41.488 83.551 C 43.856 92.885, 44.020 95.509, 42.106 93.433 C 38.824 89.873, 35.609 71.332, 37.001 63.993 C 37.551 61.096, 38 58.553, 38 58.341 C 38 58.129, 39.772 56.033, 41.937 53.684 C 45.240 50.101, 45.924 48.615, 46.187 44.457 L 46.500 39.500 57 36.826 C 62.775 35.355, 68.689 34.117, 70.143 34.076 C 72.885 33.997, 74.901 31.230, 72.733 30.521 C 65.873 28.279, 48.335 26.835, 41.871 27.980 M 154.750 39.279 C 150.488 43.271, 147 47.061, 147 47.701 C 147 48.957, 148.446 49.530, 154.185 50.546 C 157.792 51.184, 157.891 51.118, 158.872 47.349 C 161.494 37.283, 162.797 32.001, 162.655 32.010 C 162.570 32.016, 159.012 35.287, 154.750 39.279 M 74.121 39.750 C 71.736 49.100, 71.741 49.698, 74.199 50.356 C 77.877 51.342, 78 51.221, 78 46.625 C 78 41.091, 77 36, 75.914 36 C 75.453 36, 74.647 37.688, 74.121 39.750 M 57.679 39.495 C 52.828 40.767, 48.611 42.055, 48.309 42.357 C 48.007 42.660, 48.020 43.940, 48.337 45.203 C 48.891 47.409, 49.325 47.502, 59.277 47.560 L 69.640 47.619 70.612 42.310 C 71.581 37.022, 71.574 37, 69.042 37.091 C 67.644 37.140, 62.531 38.222, 57.679 39.495 M 71.351 53.528 C 70.397 56.015, 71.489 74.338, 72.720 76.500 C 73.803 78.401, 73.918 78.351, 75.044 75.500 C 75.695 73.850, 76.458 68.435, 76.739 63.467 C 77.249 54.453, 77.244 54.432, 74.591 53.223 C 72.373 52.213, 71.836 52.263, 71.351 53.528 M 158.450 59.750 C 157.566 62.913, 156.623 66.287, 156.354 67.250 C 156.085 68.213, 156.012 69, 156.191 69 C 156.370 69, 163.038 65.638, 171.008 61.529 L 185.500 54.057 172.778 54.029 L 160.056 54 158.450 59.750 M 105.985 64.518 C 103.922 67.004, 103.054 74.103, 104.259 78.643 L 105.357 82.786 111.929 82.643 C 118.292 82.505, 118.509 82.582, 118.800 85.082 C 119.042 87.163, 117.726 88.960, 112.007 94.355 L 104.913 101.047 105.710 106.754 L 106.507 112.460 111.003 112.153 C 119.130 111.599, 142.423 106.933, 143.204 105.704 C 144.928 102.991, 143.532 100.469, 133.553 88.270 C 119.512 71.107, 117.153 68.549, 112.610 65.559 C 108.066 62.569, 107.656 62.505, 105.985 64.518 M 106.250 85.706 C 104.246 86.092, 104 86.733, 104 91.570 C 104 94.556, 104.352 97, 104.781 97 C 105.211 97, 108.234 94.300, 111.500 91 L 117.437 85 112.969 85.136 C 110.511 85.211, 107.487 85.467, 106.250 85.706 M 98.945 107.077 C 96.557 110.431, 96.992 111.385, 101.380 112.423 C 104.019 113.046, 104.209 112.911, 103.644 110.802 C 103.305 109.536, 103.021 107.487, 103.014 106.250 C 102.995 103.140, 101.537 103.437, 98.945 107.077 M 146.500 105 C 146.160 105.550, 146.359 106, 146.941 106 C 147.523 106, 148 105.550, 148 105 C 148 104.450, 147.802 104, 147.559 104 C 147.316 104, 146.840 104.450, 146.500 105 M 127 112.541 C 120.675 113.793, 113.552 114.858, 111.171 114.908 C 107.002 114.997, 106.861 115.102, 107.368 117.750 C 107.657 119.263, 108.199 122.975, 108.571 126 C 108.944 129.025, 109.628 132.503, 110.092 133.729 L 110.935 135.958 115.852 132.901 C 122.110 129.011, 126.346 129.157, 126.819 133.281 C 127.277 137.265, 121.440 143, 116.929 143 C 115.130 143, 112.881 142.298, 111.933 141.439 C 110.352 140.009, 109.906 140.144, 106.592 143.053 L 102.977 146.227 107.657 150.364 C 119.606 160.925, 122.450 161.513, 126.985 154.363 C 130.081 149.481, 142 114.775, 142 110.642 C 142 109.722, 139.917 109.986, 127 112.541 M 116.732 135.536 C 112.664 138.301, 112.150 139.460, 114.582 140.393 C 117.068 141.347, 117.650 141.165, 120.923 138.411 C 126.946 133.343, 123.470 130.958, 116.732 135.536" stroke="none" fill="black" fill-rule="evenodd"/>
</svg>