<svg xmlns="http://www.w3.org/2000/svg" width="200" height="200" viewBox="0 0 200 200" version="1.1">
	<path d="M 72.169 9.921 C 70.337 10.394, 67.549 12.016, 65.974 13.525 L 63.108 16.270 56.304 14.554 L 49.500 12.838 44.582 18.169 C 35.786 27.704, 32.636 36.956, 29.521 62.398 C 27.040 82.669, 24.585 91.018, 18.511 99.848 L 15.153 104.730 20.155 107.073 C 25.914 109.770, 30.343 114.367, 31.804 119.164 C 32.363 120.999, 33.081 126.344, 33.400 131.042 C 34.146 142.034, 36.150 147.753, 41.311 153.616 C 43.599 156.216, 44.968 158.511, 44.352 158.716 C 41.973 159.509, 27.269 170.842, 25.190 173.485 C 18.780 181.634, 27.722 183.016, 46.500 176.778 C 60.999 171.961, 75.716 164.190, 82.835 157.591 C 89.039 151.841, 90.404 147.055, 87.055 142.797 C 85.119 140.336, 85.122 140.285, 87.555 132.624 C 90.152 124.445, 90.744 115.087, 88.960 110.396 C 88.389 108.892, 86.359 106.189, 84.451 104.389 L 80.981 101.116 84.525 98.413 C 88.710 95.221, 89.409 95.418, 98.708 102.428 C 118.956 117.688, 120.331 135.559, 102.628 153.361 C 94.871 161.162, 78 181.928, 78 183.675 C 78 185.820, 81.046 185.201, 84.906 182.272 C 86.883 180.771, 94.795 174.403, 102.490 168.120 C 116.889 156.362, 127.803 148.680, 131.750 147.524 C 133.626 146.975, 134 147.251, 133.999 149.183 C 133.998 151.953, 129.641 161.388, 123.900 171.051 C 121.608 174.909, 119.905 178.211, 120.116 178.389 C 120.327 178.566, 124.325 179.749, 129 181.018 C 140.352 184.098, 158.427 184.894, 166.090 182.652 C 183.446 177.573, 188.442 159.421, 175.941 146.865 C 173.255 144.168, 169.974 141.934, 168.094 141.521 C 165.101 140.863, 164.978 140.682, 166.431 139.077 C 168.358 136.947, 168.381 134.290, 166.500 131 C 163.916 126.479, 164.647 121.756, 168.925 115.351 C 172.553 109.918, 181.972 100.167, 189.750 93.793 C 191.538 92.328, 193 90.930, 193 90.687 C 193 90.444, 190.412 88.136, 187.250 85.558 C 177.729 77.798, 164.942 64.749, 162.829 60.636 C 161.298 57.657, 160.990 55.710, 161.482 52.131 C 162.060 47.928, 161.855 47.240, 159.310 44.852 C 157.765 43.401, 153.878 40.555, 150.674 38.528 C 147.274 36.376, 145.049 34.314, 145.332 33.577 C 145.599 32.882, 146.135 29.765, 146.525 26.649 C 147.314 20.332, 146.240 18, 142.542 18 C 140.346 18, 131.072 26.892, 124.406 35.389 C 121.406 39.214, 121.313 39.251, 118.829 37.623 C 116.438 36.057, 116.325 35.581, 116.715 28.734 C 116.966 24.337, 116.598 19.735, 115.775 17 L 114.422 12.500 107.461 11.258 C 98.442 9.650, 76.453 8.817, 72.169 9.921 M 70.214 13.665 C 68.407 14.556, 67.066 15.698, 67.235 16.204 C 67.403 16.709, 74.732 19.531, 83.520 22.475 C 92.309 25.419, 102.579 29.217, 106.343 30.914 C 110.107 32.611, 113.416 34, 113.696 34 C 113.976 34, 114.047 30.139, 113.853 25.419 C 113.574 18.648, 113.128 16.567, 111.735 15.548 C 107.157 12.200, 76.049 10.789, 70.214 13.665 M 46.256 20.339 C 38.500 28.752, 35.076 38.864, 32.486 61 C 30.460 78.310, 27.775 88.866, 23.332 96.981 C 20.097 102.889, 19.936 103.551, 21.503 104.481 C 32.205 110.830, 34.747 115.115, 35.937 128.820 C 37.098 142.188, 38.546 146.342, 44.200 152.528 C 46.840 155.417, 49 158.033, 49 158.342 C 49 158.650, 45.849 160.941, 41.998 163.432 C 34.734 168.132, 26 175.608, 26 177.127 C 26 178.734, 32.695 178.023, 41.638 175.467 C 55.148 171.605, 74.005 162.005, 80.568 155.648 C 86.590 149.816, 87.332 147.047, 83.863 143.354 L 81.726 141.080 83.845 135.290 C 88.968 121.295, 88.963 113.305, 83.829 107.458 C 82.159 105.556, 80.442 104, 80.013 104 C 79.584 104, 76.528 107.713, 73.222 112.250 C 66.521 121.447, 58.475 130, 56.524 130 C 53.446 130, 52.724 127.261, 54.008 120.458 C 54.689 116.849, 55.805 113.338, 56.489 112.654 C 57.172 111.971, 61.397 109.182, 65.877 106.456 C 72.269 102.566, 73.643 101.343, 72.261 100.771 C 71.293 100.370, 67.905 99.097, 64.734 97.943 C 54.462 94.205, 50 88.650, 50 79.604 C 50 75.095, 51.828 72, 54.490 72 C 57.154 72, 77.622 60.990, 83.250 56.528 C 89.457 51.609, 90.378 49.384, 86.599 48.436 C 83.803 47.734, 72.500 49.317, 61.353 51.973 C 57.056 52.997, 53.194 53.620, 52.770 53.358 C 51.082 52.315, 52.200 51.258, 56.250 50.066 C 58.587 49.378, 61.737 47.648, 63.250 46.221 C 66.585 43.074, 66.776 39.534, 64.270 27.358 C 62.564 19.069, 62.491 18.940, 59.020 18.032 C 50.061 15.688, 50.639 15.583, 46.256 20.339 M 66.036 21.731 C 66.055 22.704, 66.723 26.200, 67.520 29.500 C 69.373 37.175, 69.367 41.773, 67.497 45.358 C 66.009 48.211, 66.011 48.214, 68.754 47.523 C 73.460 46.336, 84.364 45.433, 87.393 45.979 C 94.650 47.286, 93.090 52.741, 83.432 59.833 C 76.748 64.741, 60.555 73.321, 55.652 74.551 C 53.230 75.159, 53 75.646, 53 80.158 C 53 87.448, 54.966 90.372, 62.241 93.906 C 65.683 95.578, 70.625 97.498, 73.223 98.173 C 77.682 99.332, 78.088 99.266, 80.505 96.995 L 83.065 94.590 80.283 93.176 C 75.733 90.864, 72 86.810, 72 84.181 C 72 80.298, 75.309 75.955, 83.182 69.504 C 99.422 56.199, 110.027 44.724, 111.498 38.865 C 112.072 36.578, 111.488 36.161, 102.305 32.297 C 93.206 28.469, 75.134 22.186, 68.750 20.631 C 66.528 20.090, 66.007 20.301, 66.036 21.731 M 136.307 25.750 C 133.768 28.363, 129.889 32.884, 127.689 35.797 C 123.733 41.035, 123.712 41.110, 125.762 42.546 C 128.720 44.618, 132 50.288, 132 53.329 C 132 56.415, 128.489 60, 125.466 60 C 122.760 60, 120 57.037, 120 54.131 C 120 52.915, 120.897 50.163, 121.993 48.015 C 123.114 45.815, 123.577 43.857, 123.052 43.532 C 122.184 42.996, 115.266 52.323, 95.262 81 C 90.849 87.325, 87.352 92.629, 87.490 92.787 C 87.628 92.945, 94.318 89.400, 102.358 84.910 C 115.525 77.556, 116.918 76.522, 116.406 74.482 C 116.094 73.237, 116.355 71.899, 116.986 71.508 C 117.666 71.088, 118.346 71.607, 118.653 72.780 C 119.221 74.953, 118.836 75.009, 130.500 71.059 C 140.485 67.678, 144.059 67.472, 147.383 70.087 C 150.233 72.328, 150.255 72.430, 149.738 80.711 L 149.217 89.073 155.108 94.259 C 158.349 97.111, 161 99.795, 161 100.222 C 161 101.397, 153.432 101.154, 150.657 99.890 C 147.953 98.658, 146 95.155, 146 91.538 C 146 89.803, 144.327 87.905, 139.750 84.445 C 131.032 77.854, 126.511 75.926, 122.803 77.219 C 120.687 77.956, 120.051 78.689, 120.504 79.869 C 122.259 84.435, 123.969 95.431, 123.066 96.334 C 120.716 98.684, 117.905 92.435, 116.751 82.293 C 116.515 80.221, 115.778 80.487, 104.750 86.624 C 98.287 90.220, 93 93.519, 93 93.955 C 93 94.392, 96.139 97.135, 99.975 100.051 C 112.670 109.703, 117.443 117.599, 117.474 129 C 117.491 135.630, 117.105 137.217, 114.145 142.679 C 112.304 146.078, 107.780 151.928, 104.094 155.679 C 97.071 162.825, 83.413 179, 84.402 179 C 84.718 179, 91.256 173.866, 98.931 167.591 C 122.966 147.942, 131.048 142.885, 135.023 145.012 C 136.110 145.594, 137 146.938, 137 147.998 C 137 151.153, 133.338 159.971, 128.518 168.421 C 126.033 172.777, 124 176.468, 124 176.624 C 124 177.293, 132.243 179.169, 141.500 180.607 C 156.633 182.957, 168.103 180.927, 174.866 174.701 C 184.630 165.714, 179.503 147.927, 165.980 143.876 C 162.325 142.781, 161.487 142.956, 153.987 146.385 C 146.062 150.007, 142.612 150.377, 145.139 147.333 C 146.763 145.375, 155.444 141.001, 157.717 140.995 C 158.698 140.992, 160.850 139.909, 162.500 138.588 C 165.394 136.270, 165.452 136.067, 164.125 132.843 C 159.883 122.536, 162.716 116.077, 178.137 100.889 L 188.911 90.277 182.625 85.177 C 173.788 78.007, 161.802 65.217, 159.633 60.643 C 158.315 57.863, 157.980 55.621, 158.431 52.608 C 158.986 48.913, 158.737 48.133, 156.279 45.857 C 154.751 44.442, 150.892 41.758, 147.704 39.892 C 143.027 37.155, 142.015 36.114, 142.462 34.500 C 142.766 33.400, 143.301 29.913, 143.650 26.750 C 144.199 21.780, 144.057 21, 142.605 21 C 141.681 21, 138.847 23.137, 136.307 25.750 M 112.581 43.027 C 109.810 48.812, 101.275 57.842, 88.584 68.417 C 82.488 73.497, 76.880 78.821, 76.122 80.249 C 74.076 84.106, 75.363 87.274, 80.048 89.907 L 84.159 92.218 85.828 89.859 C 115.131 48.436, 119.664 41.473, 118.101 40.283 C 115.531 38.326, 114.616 38.781, 112.581 43.027 M 124.033 49.921 C 122.300 54.103, 123.022 56.500, 126.014 56.500 C 128.980 56.500, 129.900 53.050, 127.920 49.351 C 126.272 46.272, 125.497 46.385, 124.033 49.921 M 134.500 72.689 C 130.067 74.064, 129.717 74.368, 131.409 75.370 C 132.459 75.991, 136.225 78.660, 139.777 81.299 C 143.329 83.938, 146.416 85.917, 146.638 85.696 C 146.859 85.474, 147.144 82.512, 147.270 79.113 C 147.588 70.554, 145.224 69.365, 134.500 72.689 M 149 93.929 C 149 95.423, 152.003 98, 153.746 98 C 155.017 98, 154.863 97.483, 153 95.500 C 150.579 92.923, 149 92.303, 149 93.929 M 66.281 109.322 C 58.412 114.280, 58.019 114.704, 57.031 119.299 C 54.877 129.324, 56.008 129.398, 63.920 119.750 C 71.521 110.480, 76.221 103.980, 75.256 104.072 C 74.840 104.111, 70.802 106.474, 66.281 109.322" stroke="none" fill="black" fill-rule="evenodd"/>
</svg>