<svg xmlns="http://www.w3.org/2000/svg" width="200" height="200" viewBox="0 0 200 200" version="1.1">
	<path d="M 23.480 5.033 C 22.569 6.507, 23.074 6.917, 30.824 10.991 C 36.291 13.864, 37.557 14.995, 37.815 17.234 C 38.272 21.202, 34.834 32.882, 27.005 53.964 C 18.189 77.703, 17.182 81.611, 19.325 83.754 C 20.632 85.061, 21.392 85.142, 23.461 84.200 C 27.619 82.305, 35.208 74.808, 34.094 73.694 C 33.453 73.053, 31.326 74.320, 27.948 77.357 C 25.108 79.910, 22.332 82, 21.781 82 C 19.997 82, 21.949 75.202, 29.510 55.075 C 36.466 36.556, 41 21.850, 41 17.804 C 41 16.278, 42.935 16.954, 53 22 C 59.600 25.308, 65 28.278, 65 28.600 C 65 28.921, 64.100 30.329, 63 31.727 C 57.860 38.261, 62.012 40.880, 73.944 38.629 L 82.187 37.075 91.620 41.810 C 100.379 46.207, 100.955 46.679, 99.683 48.419 C 98.356 50.234, 98.139 50.211, 92.844 47.706 C 77.064 40.241, 60.214 42.535, 50.081 53.527 C 46.773 57.117, 46 58.688, 46 61.823 C 46 64.489, 46.655 66.282, 48.110 67.595 C 51.187 70.372, 60.488 69.915, 70 66.520 C 78.504 63.485, 94.922 61.699, 93.524 63.961 C 92.015 66.403, 81.613 70.116, 71.742 71.736 C 63.391 73.107, 60.288 73.188, 52.714 72.232 C 47.736 71.604, 43.232 71.357, 42.704 71.683 C 40.974 72.752, 44.744 74.017, 52.652 75.019 C 70.164 77.240, 95.780 70.413, 96.815 63.251 C 97.054 61.599, 96.484 60.909, 94.463 60.401 C 89.989 59.278, 78.809 60.827, 68.521 63.994 C 57.215 67.474, 53.120 67.727, 49.930 65.144 C 47.825 63.440, 47.744 63.032, 48.940 60.144 C 50.686 55.930, 55.298 51.568, 60.899 48.835 C 64.597 47.031, 67.267 46.581, 74.500 46.545 C 82.899 46.503, 84.030 46.753, 91.438 50.290 C 97.490 53.180, 99.552 53.773, 100.119 52.790 C 103.142 47.547, 103.114 47.551, 110.302 51.502 C 113.986 53.527, 117 55.560, 117 56.019 C 117 57.119, 112.341 60.757, 109.969 61.510 C 107.707 62.228, 108.401 64.675, 111.109 65.535 C 114.060 66.471, 116.932 73.172, 118.187 82.049 C 119.975 94.689, 116.737 121.175, 111.455 137.123 L 109.924 141.746 106.250 139.873 C 104.230 138.843, 102.013 138, 101.322 138 C 97.700 138, 92.874 134.376, 90.757 130.065 C 88.787 126.052, 88.529 124.048, 88.630 113.500 C 88.693 106.900, 88.915 99.957, 89.122 98.070 C 89.451 95.084, 89.083 94.395, 86.273 92.742 C 79.921 89.003, 56.869 89.408, 36.174 93.621 C 26.936 95.501, 24 96.838, 24 99.161 C 24 101.370, 25.469 101.419, 33.500 99.480 C 41.189 97.623, 52.292 97.582, 55.802 99.398 C 62.243 102.728, 63.603 106.620, 64.922 125.500 C 66.137 142.903, 68.481 151.072, 74.296 158.169 C 77.710 162.337, 79.407 163.529, 83.330 164.516 C 89.525 166.075, 90.889 167.526, 92.347 174.113 C 94.397 183.373, 97.677 182.117, 117.192 164.598 C 123.073 159.319, 128.090 155, 128.342 155 C 128.593 155, 129.572 158.488, 130.516 162.750 C 134.020 178.568, 139.182 183.936, 150 183.007 C 159.039 182.230, 171.675 168.208, 176.075 154.072 C 177.906 148.189, 178.053 145.928, 177.472 132.500 C 176.903 119.345, 177.142 115.368, 179.412 100.167 C 180.835 90.634, 182 80.027, 182 76.595 C 182 64.482, 177.508 57.269, 167.612 53.489 L 163.013 51.733 158.529 55.867 C 156.063 58.140, 153.297 60, 152.383 60 C 148.695 60, 148.101 57.152, 148.631 42 C 149.153 27.054, 148.464 23.126, 145.792 25.818 C 144.811 26.806, 144.545 31.806, 144.688 46.560 C 144.791 57.252, 144.645 66, 144.362 66 C 144.079 66, 138.738 63.279, 132.492 59.953 L 121.137 53.906 122.198 50.862 C 123.670 46.639, 122.660 36.281, 120.243 30.816 C 117.665 24.988, 111.726 18.411, 106.750 15.872 C 96.547 10.667, 83.635 13.315, 70.775 23.251 L 67.049 26.129 45.604 15.031 C 31.761 7.867, 23.918 4.323, 23.480 5.033 M 88 16.935 C 84.172 18.104, 76.884 21.940, 73.103 24.777 L 69.706 27.326 76.294 30.647 L 82.882 33.968 90.988 32.821 C 98.113 31.814, 99.530 31.882, 102.683 33.386 C 106.253 35.088, 106.267 35.121, 105.730 40.330 L 105.189 45.565 112.065 49.325 L 118.941 53.085 119.585 50.517 C 120.747 45.887, 119.513 35.672, 117.220 30.945 C 114.404 25.140, 109.597 20.199, 104.500 17.871 C 100.396 15.996, 92.535 15.551, 88 16.935 M 65.615 32.465 C 62.855 36.678, 63.457 37.339, 69.415 36.639 C 78.299 35.595, 78.910 35.013, 73.887 32.386 C 68.301 29.463, 67.577 29.470, 65.615 32.465 M 89.189 35.850 C 87.203 36.409, 87.945 37.029, 94.462 40.254 L 102.047 44.007 103.023 41.438 C 104.257 38.195, 104.285 38.428, 102.429 36.571 C 100.811 34.954, 93.740 34.568, 89.189 35.850 M 160.575 57.921 C 156.777 61.886, 152.333 63.689, 149.981 62.220 C 148.463 61.272, 148.091 61.501, 147.533 63.726 C 147.057 65.619, 147.335 66.608, 148.531 67.277 C 149.442 67.787, 150.905 69.846, 151.782 71.852 C 153.924 76.753, 154.607 106.308, 153.098 128.784 L 151.976 145.500 145.879 151.225 C 142.526 154.373, 138.256 157.501, 136.391 158.176 C 132.539 159.569, 132.362 160.490, 134.543 167.833 C 136.396 174.072, 140.989 179.619, 145.038 180.508 C 154.396 182.564, 168.316 169.286, 173.354 153.500 C 174.609 149.567, 174.913 144.550, 174.777 130 C 174.637 115.016, 175.022 108.995, 176.802 98.317 C 179.173 84.097, 179.642 70.825, 177.933 66.315 C 176.083 61.430, 171.459 57.471, 165.443 55.621 C 163.958 55.164, 162.604 55.804, 160.575 57.921 M 116.271 60.536 C 113.338 63.491, 113.192 63.914, 114.683 65.145 C 121.968 71.158, 123.393 96.474, 117.911 122.500 C 115.502 133.940, 111.251 148.003, 110.206 147.994 C 109.818 147.990, 108.787 146.734, 107.916 145.202 C 106.723 143.104, 104.800 141.953, 100.118 140.536 C 92.889 138.347, 88.758 134.367, 86.858 127.763 C 85.188 121.959, 85.125 102.157, 86.767 99.284 C 87.897 97.308, 87.750 96.882, 85.410 95.349 C 82.135 93.203, 69.928 92.446, 56.301 93.544 C 47.526 94.250, 46.940 94.414, 50.703 95.106 C 63.090 97.385, 66.330 102.954, 67.516 124 C 68.213 136.373, 70.051 146.264, 72.551 151.099 C 75.267 156.350, 81.028 162, 83.666 162 C 89.492 162, 95 167.787, 95 173.909 C 95 178.756, 99.191 176.885, 110.500 166.992 C 127.087 152.481, 128.087 151.257, 130.044 143.067 C 131.038 138.905, 133.954 128.975, 136.524 121 C 140.553 108.495, 141.384 104.437, 142.560 91.500 C 144.770 67.187, 145.871 70.332, 132.635 63.159 C 126.384 59.772, 120.872 57.064, 120.385 57.142 C 119.898 57.220, 118.047 58.747, 116.271 60.536 M 146.614 76.770 C 146.262 80.471, 145.548 88.675, 145.027 95 C 144.227 104.711, 143.199 109.223, 138.416 124 C 134.249 136.877, 132.620 143.548, 132.248 149.250 C 131.970 153.512, 132.138 156.998, 132.622 156.995 C 134.040 156.987, 140.391 152.787, 144.874 148.893 L 149.026 145.286 150.065 131.893 C 152.328 102.726, 151.326 72.556, 148.027 70.517 C 147.602 70.254, 146.966 73.068, 146.614 76.770" stroke="none" fill="black" fill-rule="evenodd"/>
</svg>