<svg xmlns="http://www.w3.org/2000/svg" width="200" height="200" viewBox="0 0 200 200" version="1.1">
	<path d="M 43.436 21.413 C 38.659 23.493, 33.469 30.322, 31.371 37.289 C 29.694 42.856, 29.487 47.491, 29.375 82 C 29.239 124.009, 29.642 119.868, 21.977 158.003 C 18.583 174.884, 18.507 180, 21.651 180 C 23.947 180, 29.065 174.259, 37.036 162.739 L 43.944 152.755 43.353 147.107 C 41.764 131.898, 49.694 115.902, 64.783 103.881 C 68.574 100.860, 77.936 94.049, 85.588 88.745 C 93.239 83.441, 102.097 76.784, 105.271 73.952 C 108.778 70.823, 111.621 69.024, 112.518 69.369 C 114.488 70.125, 129 79.937, 129 80.514 C 129 80.763, 123.916 87.837, 117.703 96.233 C 111.490 104.630, 103.123 116.112, 99.110 121.749 C 95.097 127.385, 91.404 132.250, 90.905 132.559 C 90.405 132.868, 86.847 132.810, 82.998 132.431 C 75.249 131.668, 74.542 130.721, 77.480 125.038 C 78.623 122.829, 80.455 121.679, 85.513 119.996 C 94.427 117.029, 98.330 113.683, 97.647 109.592 C 97.161 106.687, 97.611 106.152, 105.065 100.759 C 109.429 97.601, 113 94.324, 113 93.477 C 113 89.900, 109.545 90.275, 88.054 96.188 L 76.607 99.337 84.001 102.699 C 88.067 104.548, 91.599 106.266, 91.850 106.516 C 92.100 106.767, 90.999 107.984, 89.403 109.220 C 87.806 110.457, 84.475 113.339, 82 115.625 C 78.666 118.704, 75.646 120.331, 70.343 121.905 C 66.406 123.074, 62.131 124.923, 60.843 126.015 L 58.500 128 60.793 129.945 C 62.054 131.015, 65.124 132.196, 67.614 132.569 C 70.104 132.943, 73.347 134.255, 74.821 135.485 C 76.294 136.715, 79.157 138.572, 81.182 139.611 L 84.863 141.500 76.045 153.836 C 71.195 160.622, 66.759 166.641, 66.188 167.212 C 65.616 167.784, 61.724 168.586, 57.537 168.996 C 53.350 169.406, 49.617 170.049, 49.241 170.425 C 47.921 171.745, 51.553 172.970, 56.833 172.985 C 59.767 172.993, 62.002 173.337, 61.801 173.750 C 61.600 174.162, 60.815 175.739, 60.055 177.254 C 57.859 181.638, 59.841 181.841, 63.702 177.628 L 67.244 173.763 75.372 174.509 C 86.929 175.571, 157.245 175.104, 164.876 173.915 C 173.229 172.613, 177 170.642, 177 167.578 C 177 164.546, 171.801 159.938, 163.857 155.928 C 158.616 153.282, 157.578 153.056, 156.150 154.246 C 155.243 155.002, 152.250 157.550, 149.500 159.908 C 146.750 162.266, 143.723 164.612, 142.773 165.121 C 140.350 166.418, 141.038 164.836, 149.175 150.383 C 156.717 136.987, 158.254 132.418, 155.567 131.387 C 153.451 130.575, 145.948 135.675, 136.339 144.456 C 129.309 150.880, 129.075 151, 123.589 151 C 120.515 151, 118 150.549, 118 149.998 C 118 148.330, 129.325 140.531, 142.787 132.927 C 165.865 119.891, 169.118 117.854, 168.728 116.684 C 168.448 115.845, 163.249 115.615, 149.921 115.851 C 130.769 116.189, 126 115.708, 126 113.438 C 126 112.699, 129.262 109.341, 133.250 105.977 C 137.238 102.612, 142.105 98.071, 144.066 95.885 C 147.321 92.257, 147.872 92.001, 150.381 92.955 C 154.077 94.360, 165.334 94.280, 170.228 92.814 C 176.051 91.069, 180 86.988, 180 82.715 C 180 76.128, 170.730 70.420, 154.500 67.014 C 143.847 64.779, 143.816 65.427, 155.289 50.361 C 163.955 38.982, 165.868 37, 168.184 37 C 170.453 37, 171.491 35.999, 174.442 30.963 C 181.893 18.250, 179.370 15.886, 170.257 27.041 L 164.505 34.082 159.002 33.497 C 155.976 33.176, 151.250 32.614, 148.500 32.249 L 143.500 31.586 147.422 31.043 C 149.579 30.744, 151.529 29.938, 151.755 29.250 C 152.076 28.276, 147.349 27.998, 130.333 27.989 C 118.325 27.983, 106.813 27.699, 104.750 27.358 C 101.696 26.853, 101 27.041, 101 28.369 C 101 29.586, 101.953 30.002, 104.750 30.007 C 106.813 30.011, 111.650 30.327, 115.500 30.709 L 122.500 31.404 109.093 33.099 L 95.686 34.794 91.093 31.604 C 78.160 22.622, 53.010 17.243, 43.436 21.413 M 47.120 23.153 C 45.260 23.687, 42.645 24.842, 41.308 25.718 C 38.597 27.494, 34.636 34.698, 33.511 39.900 C 32.847 42.967, 32.958 43.220, 34.638 42.481 C 42.551 39.002, 69.120 30.860, 74.655 30.218 L 81.500 29.425 75.908 27.286 C 69.802 24.950, 56.441 21.947, 52.792 22.090 C 51.531 22.140, 48.979 22.618, 47.120 23.153 M 169.500 32 C 168.505 33.100, 168.102 34, 168.604 34 C 169.107 34, 170.081 33.100, 170.768 32 C 171.455 30.900, 171.858 30, 171.663 30 C 171.469 30, 170.495 30.900, 169.500 32 M 73.500 33.075 C 67.609 34.066, 51.355 38.685, 49.082 40.014 C 47.782 40.774, 47.907 40.945, 49.785 40.970 C 51.042 40.986, 53.162 40.285, 54.496 39.411 C 56.160 38.321, 58.584 37.928, 62.211 38.161 C 68.535 38.566, 91 36.010, 91 34.885 C 91 33.854, 84.212 31.979, 81 32.122 C 79.625 32.184, 76.250 32.612, 73.500 33.075 M 104.750 36.309 L 97 37.309 96.956 40.904 C 96.932 42.882, 96.264 46.300, 95.471 48.500 C 94.679 50.700, 94.023 52.781, 94.015 53.124 C 94.007 53.467, 97.642 56.139, 102.092 59.061 C 111.470 65.218, 111.584 65.200, 117.341 56.653 L 121.182 50.952 117.553 47.226 C 113.381 42.943, 112.358 40.067, 113.950 37.093 C 114.820 35.469, 114.783 35.035, 113.785 35.155 C 113.078 35.240, 109.013 35.759, 104.750 36.309 M 120.012 36.233 C 113.400 38.635, 115.240 43.010, 126.362 51.334 C 130.288 54.271, 135.600 57.894, 138.166 59.384 L 142.833 62.092 152.527 49.490 C 157.859 42.559, 161.973 36.640, 161.669 36.336 C 161.366 36.033, 152.654 35.600, 142.309 35.375 C 128.724 35.079, 122.531 35.318, 120.012 36.233 M 81.298 39.401 C 76.787 40.044, 72.774 40.892, 72.381 41.285 C 71.988 41.678, 72.098 42, 72.625 42 C 73.153 42, 77.552 44.275, 82.402 47.056 C 87.252 49.837, 91.329 51.975, 91.462 51.806 C 92.427 50.580, 94 44.102, 94 41.351 C 94 37.495, 94.319 37.543, 81.298 39.401 M 57.252 42.706 C 54.050 43.322, 53.659 46.188, 54.907 59.862 C 55.508 66.452, 56 77.096, 56 83.515 L 56 95.186 61.175 90.854 C 68.086 85.068, 78.044 73.378, 84.743 63.187 C 87.749 58.615, 90.049 54.753, 89.854 54.604 C 89.659 54.456, 86.770 52.701, 83.433 50.706 C 70.305 42.855, 64.958 41.221, 57.252 42.706 M 43 44.503 C 38.325 45.186, 34.176 45.558, 33.779 45.331 C 32.092 44.365, 31.755 51.927, 32.218 80.361 C 32.783 115.106, 32.484 118.676, 26.467 149.052 C 24.010 161.456, 22.019 172.931, 22.042 174.552 L 22.083 177.500 25.565 173.556 C 27.480 171.388, 31.691 165.752, 34.923 161.033 L 40.800 152.452 40.824 143.976 C 40.852 134.062, 43.221 125.448, 47.944 118.087 C 52.783 110.546, 65.116 99.460, 80.010 89.264 C 93.932 79.733, 109.016 68.201, 108.978 67.117 C 108.966 66.777, 105.303 64.202, 100.838 61.394 L 92.719 56.289 86.951 64.894 C 79.393 76.169, 68.774 88.253, 60.857 94.586 C 57.361 97.384, 54.050 99.929, 53.500 100.242 C 52.849 100.613, 52.500 94.305, 52.500 82.155 C 52.500 68.195, 51.846 41.828, 51.532 43.131 C 51.514 43.204, 47.675 43.821, 43 44.503 M 122 52.913 C 122 57.497, 129.877 76, 131.829 76 C 132.614 76, 139.780 66.758, 140.234 65.159 C 140.380 64.645, 136.338 61.482, 131.250 58.130 C 126.162 54.779, 122 52.431, 122 52.913 M 116.619 62.433 C 115.178 64.322, 114 66.062, 114 66.300 C 114 66.695, 116.070 68.137, 124.369 73.524 L 127.237 75.386 125.230 71.443 C 124.126 69.274, 122.651 65.588, 121.953 63.250 C 121.255 60.913, 120.358 59, 119.960 59 C 119.563 59, 118.059 60.545, 116.619 62.433 M 138.693 72.391 C 136.112 75.907, 134 79.021, 134 79.312 C 134 79.603, 135.256 80.117, 136.790 80.454 C 141.033 81.386, 145.944 84.724, 146.945 87.355 C 148.763 92.136, 163.880 93.034, 172.217 88.856 C 183.430 83.236, 176.330 74.815, 156.754 70.517 C 152.214 69.520, 147.503 68.096, 146.285 67.352 C 145.067 66.608, 143.916 66, 143.728 66 C 143.540 66, 141.274 68.876, 138.693 72.391 M 112.609 107.750 C 95.087 131.813, 94.023 133.520, 96.377 133.811 C 98.521 134.076, 98.995 134.783, 99.561 138.561 C 101.700 152.823, 94.290 162.363, 76.601 168.124 L 68.545 170.747 73.022 171.548 C 78.580 172.542, 132.217 172.753, 152.542 171.861 C 162.849 171.409, 168.804 170.691, 171.460 169.581 L 175.337 167.961 172.559 165.062 C 171.031 163.467, 167.165 160.768, 163.968 159.064 L 158.156 155.966 152.328 161.078 C 145.562 167.013, 141.439 169.382, 139.304 168.563 C 136.976 167.670, 138.339 163.965, 145.945 150.505 C 153.270 137.542, 155.149 133.203, 152.857 134.543 C 150.232 136.077, 143.471 141.565, 136.588 147.750 C 129.797 153.852, 129.499 154, 124.007 154 C 117.402 154, 114.438 152.347, 115.431 149.219 C 116.456 145.986, 126.454 138.978, 145.128 128.399 C 154.408 123.142, 162 118.764, 162 118.670 C 162 118.577, 154.138 118.500, 144.528 118.500 C 128.027 118.500, 126.937 118.381, 124.923 116.368 C 121.731 113.175, 123.024 110.964, 133.065 102.445 C 140.887 95.809, 144.913 91.375, 143.831 90.588 C 143.649 90.456, 141.895 89.384, 139.934 88.206 C 137.973 87.028, 135.541 85.150, 134.529 84.032 C 133.518 82.915, 132.391 82, 132.025 82 C 131.659 82, 122.922 93.588, 112.609 107.750 M 95.750 96.772 C 90.388 98.203, 86 99.650, 86 99.987 C 86 100.325, 88.024 101.585, 90.498 102.787 L 94.996 104.972 101.998 99.863 C 105.849 97.053, 109 94.585, 109 94.377 C 109 93.571, 105.116 94.273, 95.750 96.772 M 88.500 113.510 L 83.500 117.979 87.500 116.390 C 92.158 114.540, 95 112.249, 95 110.345 C 95 108.185, 93.808 108.766, 88.500 113.510 M 67.250 125.662 C 64.912 126.490, 63 127.543, 63 128.002 C 63 128.673, 72.391 131.317, 72.507 130.679 C 72.525 130.581, 73.055 129.037, 73.683 127.250 C 75.029 123.423, 74.174 123.212, 67.250 125.662 M 82.500 137.026 C 85.133 138.254, 86.839 138.553, 87.492 137.904 C 88.952 136.450, 86.151 135.018, 82 135.096 L 78.500 135.162 82.500 137.026 M 90.975 137.531 C 89.856 138.879, 89.853 139.291, 90.960 139.975 C 91.953 140.589, 89.833 143.992, 82.597 153.399 C 77.266 160.330, 73.359 166, 73.914 166 C 74.470 166, 77.340 165.096, 80.292 163.992 C 86.737 161.581, 93.140 156.332, 95.370 151.632 C 97.101 147.985, 97.635 137, 96.082 137 C 95.577 137, 94.524 136.755, 93.742 136.454 C 92.960 136.154, 91.715 136.639, 90.975 137.531" stroke="none" fill="black" fill-rule="evenodd"/>
</svg>