<svg xmlns="http://www.w3.org/2000/svg" width="200" height="200" viewBox="0 0 200 200" version="1.1">
	<path d="M 70.936 15.872 C 66.301 20.681, 66.118 21.091, 66.305 26.229 C 66.547 32.868, 65.074 35.287, 57.013 41.490 C 51.340 45.855, 50.763 46.077, 47.696 45.065 C 44.532 44.020, 32.523 37.438, 26.603 33.503 L 23.705 31.577 24.279 41.038 C 24.595 46.242, 25.383 52.300, 26.031 54.500 C 27.486 59.442, 34.111 66.004, 39.528 67.866 C 50.577 71.666, 59.366 78.068, 64.193 85.832 L 66.264 89.163 61.786 93.832 C 54.819 101.095, 52.697 104.725, 52.593 109.559 C 52.479 114.832, 55.590 118.529, 63.101 122.047 L 68.118 124.397 59.809 126.737 C 28.697 135.500, 19.948 139.231, 25.511 141.366 C 26.342 141.685, 36.749 140.833, 48.639 139.473 C 60.528 138.113, 72.111 137.037, 74.378 137.083 L 78.500 137.166 73.500 139.507 C 70.750 140.795, 58.038 145.299, 45.250 149.517 C 32.462 153.735, 22 157.645, 22 158.207 C 22 158.809, 23.331 158.991, 25.250 158.652 C 27.037 158.335, 32.065 157.586, 36.423 156.985 C 53.205 154.674, 77.928 160.534, 75.715 166.299 C 73.714 171.516, 48.629 177.622, 17.250 180.531 C 12.365 180.984, 10 181.622, 10 182.486 C 10 184.377, 18.310 185.133, 38.687 185.097 C 57.837 185.063, 75.238 183.364, 92 179.892 C 97.775 178.696, 104.414 177.625, 106.752 177.511 C 109.091 177.398, 111.791 176.633, 112.752 175.811 C 113.714 174.990, 118.699 172.876, 123.830 171.113 C 135.916 166.963, 147.608 161.530, 159.200 154.679 C 170.690 147.888, 175.287 143.387, 174.828 139.379 C 174.268 134.488, 168.623 132.903, 145 131.002 C 130.855 129.864, 124.524 128.658, 123.433 126.892 C 122.234 124.952, 128.029 120.312, 138.310 114.980 C 143.915 112.073, 148.640 109.587, 148.811 109.454 C 148.981 109.321, 147.969 108.060, 146.561 106.652 C 140.465 100.556, 144.152 90.209, 158.393 73.440 C 175.986 52.724, 178.547 48.667, 176.284 45.095 C 175.498 43.855, 173.517 43.500, 167.387 43.500 C 163.049 43.500, 158.027 43.828, 156.226 44.230 C 153.218 44.900, 153.035 44.804, 153.976 43.046 C 156.939 37.508, 153.614 30.463, 146.348 26.887 C 142.391 24.939, 139.938 24.500, 133 24.500 C 125.670 24.500, 123.859 24.862, 119.839 27.130 L 115.179 29.759 114.492 22.921 C 113.755 15.577, 112.078 12.861, 109.568 14.944 C 107.942 16.293, 104.701 29.436, 102.928 41.868 L 101.735 50.236 97.228 49.618 C 94.749 49.278, 88.667 49, 83.713 49 L 74.704 49 78.071 46.731 C 90.935 38.062, 91.996 12.232, 79.532 11.183 C 76.142 10.897, 75.276 11.369, 70.936 15.872 M 72.703 17.792 C 69.368 21.207, 69 22.115, 69 26.924 C 69 33.583, 66.667 37.606, 59.943 42.542 C 57.219 44.541, 55.245 46.587, 55.555 47.088 C 55.865 47.590, 59.129 47.990, 62.809 47.978 C 70.738 47.952, 76.368 45.728, 80.283 41.076 C 83.876 36.806, 86.407 27.950, 85.557 22.624 C 84.049 13.174, 79.048 11.294, 72.703 17.792 M 108.598 26.235 C 106.434 36.411, 105 44.960, 105 47.684 C 105 49.984, 105.090 50, 117.750 50.014 C 130.754 50.028, 135 50.545, 135 52.117 C 135 52.602, 128.025 53, 119.500 53 C 106.969 53, 104 53.265, 104 54.383 C 104 56.755, 109.022 56.996, 122.750 55.282 C 134.274 53.844, 136 53.392, 136 51.814 C 136 50.217, 136.925 50.002, 143.750 50.015 C 152.044 50.032, 155.324 51.076, 153.333 53.067 C 152.701 53.699, 145.730 55.071, 137.842 56.116 C 123.824 57.974, 119.723 58.762, 123.250 58.921 C 125.432 59.019, 125.556 61.573, 123.418 62.393 C 122.548 62.727, 117.598 63, 112.418 63 C 105.558 63, 102.996 63.339, 102.986 64.250 C 102.979 64.938, 102.723 66.430, 102.418 67.567 C 101.930 69.382, 102.632 69.847, 108.181 71.381 C 111.657 72.342, 116.360 74.212, 118.633 75.537 C 125.633 79.619, 125.189 82.654, 117.376 84.137 C 114.694 84.646, 110.700 84.829, 108.500 84.545 L 104.500 84.027 107.867 85.564 C 109.719 86.410, 113.769 87.418, 116.867 87.805 C 122.670 88.530, 124.419 90.231, 120 90.851 C 118.625 91.044, 117.169 91.719, 116.765 92.351 C 115.571 94.219, 115.894 100.330, 117.463 105.544 C 118.268 108.219, 118.754 110.579, 118.544 110.789 C 118.210 111.124, 105.625 108.689, 100.750 107.347 C 99.228 106.928, 99 107.626, 99 112.704 L 99 118.542 110.916 126.321 C 124.077 134.913, 132 141.408, 132 143.605 C 132 145.415, 124.042 161.261, 120.627 166.250 C 119.215 168.313, 118.524 170, 119.090 170 C 121.625 170, 143.044 160.648, 152.654 155.345 C 162.520 149.901, 173 141.963, 173 139.933 C 173 138.688, 168.140 136.379, 164 135.657 C 162.075 135.322, 154.425 134.581, 147 134.010 C 130.118 132.713, 123.711 131.443, 121.453 128.948 C 118.004 125.137, 122.479 120.329, 136.887 112.362 C 140.524 110.351, 143.658 108.576, 143.852 108.418 C 144.046 108.259, 143.483 107.100, 142.602 105.842 C 140.457 102.779, 140.577 96.143, 142.875 90.833 C 145.150 85.573, 151.587 76.756, 160.782 66.303 C 173.861 51.435, 176.379 46.635, 171.717 45.465 C 169.359 44.873, 158.413 46.316, 151.649 48.110 C 149.531 48.672, 147.563 48.896, 147.275 48.608 C 146.987 48.320, 147.932 46.681, 149.376 44.966 C 152.998 40.661, 152.920 35.766, 149.171 32.017 C 143.631 26.477, 130.324 25.239, 121.330 29.427 C 118.486 30.751, 115.657 32.772, 115.044 33.917 C 112.944 37.842, 112 36.026, 112 28.059 C 112 23.691, 111.582 19.860, 111.072 19.544 C 110.561 19.229, 109.448 22.240, 108.598 26.235 M 27.274 44.446 C 27.640 49.274, 28.666 53.745, 30.081 56.667 C 32.088 60.813, 33.071 61.613, 39.905 64.667 C 52.421 70.259, 54.318 71.334, 58.657 75.291 C 60.943 77.377, 64.465 81.481, 66.484 84.412 L 70.154 89.741 64.473 95.114 C 58.729 100.546, 55 106.338, 55 109.825 C 55 114.395, 61.876 119.601, 71.006 121.945 C 73.478 122.580, 76.175 123.345, 77 123.646 C 77.825 123.947, 69.500 126.814, 58.500 130.016 C 47.500 133.217, 37.375 136.295, 36 136.855 L 33.500 137.873 36 137.920 C 37.375 137.946, 46.150 137.076, 55.500 135.985 C 75.696 133.630, 80.362 133.527, 81.915 135.398 C 84.253 138.215, 75.455 142.616, 52 150.362 L 42.500 153.500 51.500 154.139 C 70.497 155.488, 81.598 161.276, 78.018 167.966 C 75.382 172.892, 65.909 175.822, 33 181.891 C 24.232 183.508, 57.622 182.298, 71.321 180.503 C 82.405 179.050, 100.709 175.624, 101.473 174.860 C 101.681 174.652, 100.995 171.944, 99.948 168.842 C 97.447 161.434, 96.031 148.546, 95.954 132.500 L 95.892 119.500 90.003 115.301 C 86.764 112.992, 83.325 109.900, 82.362 108.430 C 80.679 105.861, 80.686 105.701, 82.556 104.291 C 83.967 103.227, 86.213 102.954, 90.750 103.297 L 97 103.770 97 99.024 C 97 96.415, 97.285 92.203, 97.632 89.665 C 98.224 85.346, 98.097 84.987, 95.632 84.050 C 94.185 83.500, 93 82.657, 93 82.176 C 93 81.696, 89.181 80.294, 84.514 79.061 C 75.606 76.708, 69.727 73.539, 69.201 70.806 C 68.730 68.357, 72.770 65.175, 78.739 63.293 L 84.075 61.611 73.323 59.211 C 59.812 56.196, 52.287 53.406, 50.956 50.919 C 50.387 49.855, 46.950 47.637, 43.318 45.990 C 39.686 44.344, 34.461 41.610, 31.707 39.915 L 26.699 36.833 27.274 44.446 M 82 53.556 C 88.325 54.268, 95.188 55.067, 97.250 55.330 C 100.439 55.738, 101 55.525, 101 53.905 C 101 52.109, 100.125 52.008, 85.750 52.131 L 70.500 52.262 82 53.556 M 69.750 55.662 C 70.438 55.940, 71.563 55.940, 72.250 55.662 C 72.938 55.385, 72.375 55.158, 71 55.158 C 69.625 55.158, 69.063 55.385, 69.750 55.662 M 74 56.283 C 75.446 57.748, 91.485 60.089, 95.309 59.394 L 99.500 58.632 95 57.938 C 88.051 56.868, 73.440 55.716, 74 56.283 M 81.684 65.420 C 72.696 68.079, 71.085 69.193, 72.959 71.451 C 74.409 73.198, 88.233 77.796, 94.698 78.682 L 99 79.272 99 75.775 C 99 73.853, 99.286 70.191, 99.636 67.640 L 100.272 63 94.886 63.054 C 91.924 63.083, 85.983 64.148, 81.684 65.420 M 106 76.949 C 111.349 81.775, 112.998 82.411, 117.824 81.505 C 121.325 80.848, 121.393 80.759, 119.487 79.311 C 116.470 77.019, 109.533 74.178, 105.291 73.497 L 101.500 72.889 106 76.949 M 101 78.893 C 101 79.828, 103.376 81, 105.273 81 C 105.883 81, 105.509 80.339, 104.441 79.532 C 102.204 77.840, 101 77.616, 101 78.893 M 100.580 87.852 C 100.311 88.758, 99.995 92.851, 99.879 96.946 L 99.667 104.391 107.378 106.035 L 115.088 107.678 114.294 104.589 C 113.857 102.890, 113.526 98.976, 113.557 95.891 L 113.615 90.283 107.342 88.243 C 101.618 86.382, 101.027 86.348, 100.580 87.852 M 86.774 109.267 C 88.515 111.063, 91.258 113.312, 92.870 114.264 L 95.799 115.994 96.156 111.511 C 96.568 106.324, 96.130 106, 88.722 106 L 83.608 106 86.774 109.267 M 99.020 135.691 C 99.046 154.015, 101.056 167.959, 104.313 172.413 C 105.511 174.051, 106.089 174.126, 109.321 173.059 C 114.098 171.483, 117.685 166.986, 124.176 154.435 L 129.493 144.154 126.997 141.495 C 125.014 139.384, 106.027 125.978, 100.250 122.611 C 99.275 122.042, 99.004 124.918, 99.020 135.691" stroke="none" fill="black" fill-rule="evenodd"/>
</svg>