<svg xmlns="http://www.w3.org/2000/svg" width="200" height="200" viewBox="0 0 200 200" version="1.1">
	<path d="M 130.500 16.123 C 80.558 19.993, 60.766 22.481, 54.144 25.718 C 51.250 27.133, 50.437 28.153, 50.192 30.672 C 49.919 33.493, 49.461 33.915, 46.055 34.491 C 43.949 34.847, 40.324 34.626, 38 34 C 27.616 31.204, 19.451 36.486, 15.784 48.375 C 13.216 56.698, 12.913 70.735, 14.359 114.500 C 14.928 131.742, 14.873 141.963, 14.194 144.844 C 13.205 149.040, 13.244 149.165, 15.335 148.503 C 24.509 145.596, 28.578 145, 39.250 145 C 46.966 145, 52.197 144.527, 54.329 143.636 C 58.330 141.964, 62.611 137.047, 63.470 133.136 C 63.987 130.781, 65.199 129.740, 69.805 127.694 C 93.174 117.315, 93.841 125.988, 72.448 162.057 C 68.351 168.963, 65 175.150, 65 175.807 C 65 177.963, 67.123 177.062, 71.847 172.899 C 78.825 166.750, 84.253 163.933, 90.334 163.305 C 97.164 162.600, 103.622 165.347, 113 172.947 C 121.384 179.741, 123.309 180.636, 126.461 179.200 C 128.238 178.390, 129.339 176.611, 130.428 172.789 C 132.178 166.641, 133.970 152.974, 134.068 145.026 C 134.127 140.169, 134.266 139.802, 135.212 142 C 142.407 158.702, 146.035 163.478, 154.197 166.990 C 161.636 170.189, 168.313 169.452, 172.299 164.991 C 174.683 162.324, 175.117 161.108, 174.670 158.353 C 173.236 149.515, 161.826 141.593, 142.558 136.058 C 139.291 135.119, 136.454 133.863, 136.256 133.267 C 135.841 132.022, 136.566 131.860, 155.606 128.951 C 163.364 127.766, 170.335 126.411, 171.098 125.940 C 173.795 124.273, 170.406 122.944, 160.918 121.948 C 141.990 119.961, 128.530 115.728, 125.978 110.959 C 125.377 109.835, 125.023 107.292, 125.192 105.308 L 125.500 101.701 144 101.601 C 161.632 101.505, 162.734 101.383, 167.493 99 C 177.610 93.935, 181.235 83.638, 179.101 66.028 C 178.066 57.489, 173.591 37.257, 172.494 36.161 C 172.268 35.935, 169.027 37.991, 165.291 40.730 C 156.169 47.420, 147.713 53, 146.695 53 C 145.189 53, 149.820 47.388, 161.195 35.428 C 167.364 28.943, 171.868 23.456, 171.204 23.235 C 170.540 23.013, 160.210 32.309, 148.248 43.892 C 132.584 59.060, 126.400 64.469, 126.142 63.226 C 125.551 60.371, 123.905 59, 121.069 59 C 117.848 59, 108.538 64.443, 101.556 70.408 L 96.497 74.730 94.913 71.615 C 93.396 68.632, 84.700 60.745, 81.860 59.776 C 80.346 59.260, 80.244 59.596, 86.344 45.037 C 88.947 38.825, 89.607 36.231, 88.823 35.287 C 87.409 33.583, 87.922 33.618, 99.640 36.029 C 116.687 39.536, 117 39.663, 117 43.039 C 117 45.852, 119.937 50, 121.929 50 C 123.457 50, 125.955 47.026, 126.607 44.430 C 127.480 40.950, 126.426 37.699, 123.463 34.736 L 120.885 32.158 126.693 31.580 C 152.256 29.035, 160.223 26.753, 160.806 21.809 C 161.090 19.406, 158.937 17.025, 154.500 14.834 C 153.950 14.563, 143.150 15.142, 130.500 16.123 M 146 17.698 C 71.078 23.504, 54.041 25.834, 53.162 30.395 C 52.748 32.545, 53.262 32.513, 69.500 29.394 C 78.453 27.674, 86.081 27.486, 121.500 28.112 C 129.401 28.252, 138.982 27.800, 143.493 27.074 C 151.824 25.735, 159 23.370, 159 21.964 C 159 20.585, 153.831 16.989, 152.115 17.175 C 151.227 17.271, 148.475 17.506, 146 17.698 M 85.728 30.722 C 87.503 30.943, 90.653 30.946, 92.728 30.730 C 94.802 30.513, 93.350 30.333, 89.500 30.328 C 85.650 30.324, 83.952 30.501, 85.728 30.722 M 105 32.783 C 100.553 33.211, 100.605 33.241, 109.416 35.359 L 118.332 37.502 119.416 41.927 C 120.668 47.039, 122.638 48.292, 123.572 44.571 C 124.610 40.432, 123.236 37.232, 119.256 34.528 C 115.553 32.012, 114.432 31.875, 105 32.783 M 61.652 34.049 C 58.986 34.496, 56.625 35.041, 56.406 35.260 C 56.187 35.479, 58.406 38.428, 61.338 41.813 C 64.269 45.197, 67.500 49.514, 68.518 51.404 C 69.711 53.618, 71.705 55.366, 74.122 56.316 L 77.874 57.790 81.937 48.526 C 86.414 38.317, 86.707 37, 84.500 37 C 83.675 37, 82.100 36.100, 81 35 C 79.394 33.394, 77.768 33.023, 72.750 33.118 C 69.313 33.182, 64.319 33.601, 61.652 34.049 M 25.414 37.889 C 23.689 38.941, 21.380 41.787, 20.180 44.341 C 16.403 52.376, 15.648 61.309, 16.616 86.500 C 17.102 99.150, 17.500 117.434, 17.500 127.131 L 17.500 144.762 20 143.758 C 21.375 143.206, 29.025 142.676, 37 142.579 C 52.095 142.397, 53.809 141.992, 57.875 137.645 C 61.114 134.181, 62.162 128.922, 62.884 112.500 C 63.406 100.639, 63.844 97.857, 65.750 94.291 C 66.987 91.976, 68.914 86.156, 70.033 81.357 C 72.151 72.275, 72.003 66.565, 69.490 60.398 C 68.119 57.033, 65.314 55.995, 57.625 56.006 C 37.006 56.033, 31.421 74.538, 42.608 105.757 C 45.119 112.765, 45.234 116.881, 42.878 115.424 C 40.974 114.248, 35.245 100.868, 32.819 91.933 C 30.987 85.190, 30.526 80.895, 30.514 70.500 C 30.501 58.528, 30.708 57.056, 33.135 51.880 C 34.585 48.789, 37.424 44.430, 39.444 42.193 L 43.118 38.127 39.309 37.069 C 33.646 35.496, 28.876 35.778, 25.414 37.889 M 46.400 39.864 C 44.255 41.440, 41.509 43.808, 40.299 45.127 C 34.859 51.053, 32.008 63.110, 33 76 L 33.500 82.500 34.139 75.704 C 35.016 66.368, 38.254 60.356, 44.476 56.509 C 48.913 53.766, 50.114 53.500, 58.062 53.500 L 66.780 53.500 64.695 50.500 C 60.048 43.813, 53.655 37, 52.029 37 C 51.078 37, 48.545 38.289, 46.400 39.864 M 161.621 46.644 C 156.738 50.165, 152.182 53.372, 151.497 53.772 C 150.516 54.346, 150.646 57.151, 152.109 67 C 154.773 84.924, 153.719 86.645, 145.687 77.487 C 140.407 71.466, 138.424 70.855, 135.223 74.262 C 131.084 78.669, 124.888 97.195, 127.097 98.560 C 127.602 98.872, 135.324 99.200, 144.258 99.290 C 157.902 99.426, 161.140 99.167, 164.500 97.673 C 174.201 93.359, 177.638 85.728, 176.726 70.533 C 176.240 62.434, 172.756 44.277, 171.131 41.372 C 170.732 40.658, 167.235 42.597, 161.621 46.644 M 133.743 61.781 C 127.205 68.378, 125.937 70.227, 125.010 74.500 C 124.414 77.250, 123.658 80.400, 123.330 81.500 L 122.734 83.500 124.982 81.500 C 127.399 79.350, 137.997 66.730, 142.198 61 C 144.609 57.713, 144.662 57.395, 143.078 55.781 C 141.488 54.161, 140.952 54.505, 133.743 61.781 M 73.039 62.136 C 74.272 66.436, 74.610 66.557, 75.806 63.128 C 76.640 60.734, 76.549 60.041, 75.339 59.577 C 72.561 58.511, 72.135 58.985, 73.039 62.136 M 143.656 63.787 C 139.621 69.284, 139.358 70, 141.373 70 C 142.128 70, 144.603 72.015, 146.873 74.478 C 149.143 76.940, 151 78.534, 151 78.019 C 151 75.449, 148.650 61.326, 148.027 60.153 C 147.524 59.205, 146.231 60.279, 143.656 63.787 M 117.260 62.975 C 110.475 66.044, 98.928 75.329, 95.696 80.313 C 93.368 83.903, 87.896 87.296, 86.571 85.971 C 85.932 85.332, 87.082 83.473, 89.885 80.618 C 94.087 76.336, 94.146 76.183, 92.678 73.372 C 90.013 68.267, 80.665 60.867, 79.072 62.601 C 77.560 64.248, 74.212 75.405, 72.938 83.043 C 70.751 96.155, 73.261 100, 84.007 100 L 90.636 100 107.348 83.750 C 116.539 74.813, 124.046 66.799, 124.030 65.941 C 124.013 65.084, 123.438 63.634, 122.750 62.720 C 121.590 61.177, 121.194 61.196, 117.260 62.975 M 108.622 86.276 L 95.745 98.500 109.122 98.177 C 116.480 97.999, 122.775 97.549, 123.111 97.177 C 124.295 95.865, 126.868 83.732, 125.718 84.882 C 125.103 85.497, 123.728 86, 122.661 86 C 120.898 86, 120.771 85.457, 121.266 80 C 121.566 76.700, 121.741 74.012, 121.655 74.026 C 121.570 74.040, 115.705 79.552, 108.622 86.276 M 67.588 96.830 C 66.390 99.146, 66 102.919, 66 112.182 L 66 124.464 76.526 113.982 L 87.051 103.500 81.539 102.883 C 75.580 102.217, 73.633 101.070, 70.926 96.630 L 69.176 93.760 67.588 96.830 M 94.376 101.850 C 92.549 102.409, 69.083 124, 70.303 124 C 70.548 124, 72.662 123.325, 75 122.500 C 77.338 121.675, 81.210 121, 83.603 121 C 92.796 121, 93.127 129.028, 84.628 145.854 C 82.163 150.734, 78.313 157.721, 76.073 161.381 C 73.833 165.041, 72 168.255, 72 168.524 C 72 168.793, 73.884 167.648, 76.186 165.980 C 78.489 164.312, 82.820 162.236, 85.812 161.366 C 95.316 158.603, 102.715 161.054, 114.934 171.014 C 122.575 177.241, 125.297 178.209, 126.845 175.250 C 128.492 172.104, 129.913 163.453, 131.005 149.941 C 132.192 135.247, 132.319 135.626, 125.862 134.594 C 120.183 133.686, 120.833 131.348, 127 130.500 L 132 129.812 132 125.606 C 132 123.293, 132.540 120.860, 133.200 120.200 C 134.133 119.267, 134.129 119, 133.179 119 C 130.755 119, 124.156 113.792, 122.979 110.950 C 122.317 109.352, 121.961 106.460, 122.187 104.522 L 122.598 101 109.549 101.100 C 102.372 101.155, 95.544 101.492, 94.376 101.850 M 135.391 124.046 C 135.777 126.455, 136.220 128.554, 136.378 128.711 C 136.535 128.869, 142.252 128.168, 149.082 127.154 C 162.331 125.187, 162.318 125.149, 147.500 122.691 C 142.550 121.870, 137.643 120.854, 136.596 120.433 C 134.840 119.727, 134.746 120.010, 135.391 124.046 M 137.596 139.802 C 138.720 144.790, 143.678 154.563, 147.008 158.356 C 153.499 165.749, 163.789 168.313, 169.365 163.927 C 177.821 157.276, 165.018 145.343, 142.244 138.649 L 136.988 137.104 137.596 139.802" stroke="none" fill="black" fill-rule="evenodd"/>
</svg>