<svg xmlns="http://www.w3.org/2000/svg" width="200" height="200" viewBox="0 0 200 200" version="1.1">
	<path d="M 63.919 12.750 C 63.874 13.162, 63.894 18.675, 63.964 25 C 64.167 43.453, 60.564 51.087, 50.923 52.628 C 45.103 53.559, 46.042 55.347, 52.047 54.770 C 61.452 53.866, 65.708 46.991, 66.841 30.866 L 67.500 21.500 73.716 30 C 78.400 36.405, 80.083 39.609, 80.542 43 C 80.877 45.475, 81.930 52.082, 82.882 57.682 C 84.568 67.599, 84.563 67.963, 82.674 71.643 C 81.421 74.087, 80.492 78.645, 80.046 84.539 C 79.376 93.400, 79.112 94.156, 70.620 111.577 C 65.814 121.435, 58.575 134.450, 54.533 140.500 C 47.027 151.734, 30.801 170.619, 25.015 174.854 L 21.799 177.208 22.535 174.854 C 23.384 172.138, 30.671 159.038, 35.804 151 C 43.731 138.586, 53.679 110.390, 59.444 84 C 61.426 74.925, 63.267 66.501, 63.535 65.281 C 64.514 60.824, 57.503 58.678, 37 57.160 L 26.500 56.383 32.293 55.571 C 35.895 55.066, 37.934 54.331, 37.684 53.629 C 37.225 52.340, 33.235 52.479, 24.250 54.099 C 19.330 54.987, 18 55.607, 18 57.017 C 18 58.587, 19.325 58.887, 28.750 59.450 C 43.637 60.339, 55.017 61.676, 58.286 62.919 C 60.455 63.743, 60.938 64.454, 60.542 66.234 C 60.265 67.480, 58.659 74.800, 56.974 82.500 C 50.778 110.805, 41.530 136.646, 32.278 151.500 C 20.391 170.586, 16.930 179.501, 20.900 180.806 C 23.059 181.516, 47.599 155.824, 54.622 145.500 C 62.492 133.932, 69.948 120.462, 76.486 106 C 80.863 96.319, 81.791 93.212, 82.357 86.358 C 82.726 81.880, 83.553 76.713, 84.193 74.876 L 85.357 71.537 86.636 77.018 C 87.560 80.979, 87.927 93.819, 87.958 123.282 C 88.004 167.700, 88.073 168.307, 93.803 174.339 C 101.785 182.742, 116.039 185.025, 148.404 183.082 C 169.580 181.811, 172.629 180.941, 176.234 175.144 C 181.961 165.934, 176.074 142.266, 166.754 137.035 C 164.325 135.672, 163.892 135.679, 162.465 137.106 C 161.592 137.979, 160.563 140.898, 160.177 143.594 C 159.516 148.217, 159.167 148.679, 154.002 151.765 C 147.393 155.714, 143.123 156.989, 136.500 156.989 C 118.591 156.989, 108.914 144.139, 115.921 129.662 L 118.074 125.217 133.287 121.459 C 167.967 112.894, 178.082 106.754, 168.926 99.826 C 167.235 98.547, 163.995 95.813, 161.725 93.750 C 154.311 87.014, 149.038 88.714, 133.445 102.870 C 122.591 112.724, 119.907 114.562, 117.637 113.691 C 115.636 112.923, 114.587 105.368, 115.438 97.847 C 116.400 89.345, 117.568 86.654, 120.017 87.294 C 123.328 88.160, 123.404 85.989, 120.161 83.166 C 116.368 79.864, 101 62.006, 101 60.900 C 101 60.456, 117.558 59.959, 137.796 59.796 C 171.033 59.529, 174.853 59.329, 177.296 57.727 C 180.938 55.339, 180.771 51.948, 176.789 47.413 C 173.839 44.053, 160.538 34, 159.042 34 C 158.688 34, 157.420 36.014, 156.224 38.476 C 153.443 44.199, 147.532 48.477, 138.695 51.161 C 132.545 53.029, 130.136 53.203, 117.135 52.711 C 109.086 52.406, 100.836 51.657, 98.803 51.046 L 95.106 49.935 97.286 46.240 C 103.036 36.494, 95.825 14, 86.950 14 C 82.794 14, 80.731 17.703, 80.055 26.371 L 79.500 33.500 73.382 25 C 70.018 20.325, 66.950 15.488, 66.565 14.250 C 65.907 12.134, 64.097 11.108, 63.919 12.750 M 84.872 17.651 C 83.994 18.708, 83.376 22.638, 83.156 28.570 L 82.812 37.837 87.037 43.433 C 91.716 49.631, 93.011 49.608, 95.655 43.282 C 98.396 36.726, 96.295 26.205, 90.956 19.750 C 87.468 15.532, 86.819 15.309, 84.872 17.651 M 157.458 41.884 C 154.321 46.624, 149.160 50.362, 141.878 53.166 C 132.716 56.695, 108.459 56.767, 96.539 53.301 C 94.727 52.775, 94.689 52.896, 96.039 54.883 C 97.476 57, 98.043 57.041, 130.500 57.403 C 164.730 57.784, 174.230 57.198, 176.885 54.543 C 178.303 53.126, 177.882 52.445, 172.369 47.240 C 169.025 44.083, 164.891 40.697, 163.182 39.715 L 160.074 37.931 157.458 41.884 M 84 46.513 C 84 48.597, 85.927 60.828, 86.572 62.832 C 86.898 63.847, 87.890 63.628, 90.750 61.908 C 92.812 60.668, 94.693 59.500, 94.929 59.314 C 95.510 58.855, 90.979 52.700, 89.324 51.700 C 88.596 51.260, 88 50.318, 88 49.605 C 88 48.893, 87.100 47.495, 86 46.500 C 84.069 44.753, 84 44.753, 84 46.513 M 92.216 64.009 C 90.410 65.111, 88.664 66.712, 88.335 67.569 C 88.007 68.425, 88.465 72.585, 89.354 76.813 C 90.713 83.278, 90.932 90.861, 90.735 124.500 L 90.500 164.500 92.989 168.848 C 99.223 179.737, 114.013 182.490, 153.500 180.111 C 168.661 179.197, 172.341 177.821, 174.696 172.186 C 177.720 164.948, 174.140 148.546, 168.049 141.729 C 164.700 137.980, 163 138.781, 163 144.107 C 163 149.088, 160.135 152.021, 151 156.391 C 145.262 159.136, 143.504 159.495, 136 159.454 C 127.335 159.407, 121.672 157.558, 116.644 153.133 C 113.558 150.418, 111 144.338, 111 139.718 C 111 135.114, 113.183 127.686, 115.398 124.752 C 116.269 123.599, 123.315 121.286, 136.109 117.953 C 160.773 111.528, 170.759 107.140, 169.309 103.363 C 169.003 102.567, 167.024 101.033, 164.910 99.954 C 162.796 98.876, 160.574 97.073, 159.973 95.949 C 156.574 89.599, 149.294 92.089, 136.011 104.146 C 120.984 117.785, 117.777 119.375, 114.557 114.777 C 112.070 111.227, 112.373 92.653, 115.002 87.495 L 117.005 83.568 112.172 78.534 C 109.514 75.765, 105.183 70.912, 102.548 67.750 C 99.913 64.588, 97.249 62.002, 96.629 62.004 C 96.008 62.006, 94.022 62.908, 92.216 64.009" stroke="none" fill="black" fill-rule="evenodd"/>
</svg>