<svg xmlns="http://www.w3.org/2000/svg" width="200" height="200" viewBox="0 0 200 200" version="1.1">
	<path d="M 64 11.633 C 45.523 15.154, 37.003 25.062, 40.007 39.536 C 40.728 43.008, 41.605 44.949, 42.332 44.681 C 42.975 44.444, 43.377 43.714, 43.228 43.058 C 43.078 42.402, 42.708 39.309, 42.405 36.183 C 41.356 25.343, 47.416 18.524, 60.927 15.343 C 69.150 13.407, 94.666 13.683, 114.500 15.922 C 123.850 16.977, 134.875 18.147, 139 18.522 C 155.899 20.056, 175 29.872, 175 37.022 C 175 40.587, 171.011 43.201, 162 45.542 C 158.425 46.470, 154.951 47.384, 154.280 47.572 C 153.392 47.821, 153.590 49.083, 155.008 52.207 C 157.630 57.984, 157.638 68.736, 155.026 77.145 C 152.421 85.534, 146.987 95.984, 137.644 110.569 C 130.395 121.885, 128.739 126.103, 130.997 127.498 C 131.546 127.837, 135.582 126.495, 139.968 124.515 C 147.524 121.103, 148.662 120.884, 161.720 120.319 L 175.500 119.723 173.095 122.341 C 171.772 123.781, 163.222 129.528, 154.095 135.113 C 136.098 146.124, 123.042 155.027, 123.016 156.305 C 123.007 156.748, 125.587 158.314, 128.750 159.785 C 133.123 161.818, 136.461 162.548, 142.690 162.830 C 153.306 163.310, 158.332 161.629, 169.572 153.837 L 178.310 147.780 177.711 154.188 C 177.382 157.712, 176.363 164.694, 175.447 169.704 L 173.780 178.812 167.140 180.484 C 140.796 187.116, 115.833 179.361, 107.068 161.821 C 102.800 153.279, 102.745 143.036, 106.896 129.762 C 108.489 124.668, 110.786 117.125, 112.001 113 C 114.654 103.985, 115.865 101.547, 121.472 93.931 C 126.084 87.666, 130.077 78.789, 134.588 64.775 L 137.396 56.050 134.969 53.467 C 131.587 49.867, 121.971 45.536, 112.500 43.348 L 104.500 41.500 114.676 41.216 L 124.853 40.932 127.993 37.355 C 135.311 29.020, 136.856 20.755, 131.353 19.374 C 124.636 17.688, 107.776 24.892, 98.238 33.523 C 92.668 38.563, 91.950 38.910, 86.482 39.196 C 78.826 39.596, 78.212 41.546, 85.457 42.451 C 90.618 43.096, 91.002 43.329, 91.032 45.822 C 91.118 53.058, 100.809 57.470, 119.250 58.669 C 124.612 59.017, 129 59.500, 129 59.742 C 129 59.984, 127.157 62.810, 124.904 66.022 C 119.536 73.674, 114.722 77, 109.012 77 C 105.095 77, 104.150 76.499, 100.066 72.250 C 97.551 69.633, 93.084 62.897, 90.121 57.250 C 87.163 51.612, 84.114 47, 83.347 47 C 80.132 47, 79.783 51.912, 81.002 80 C 81.658 95.125, 82.263 107.500, 82.347 107.500 C 82.431 107.500, 83.816 108.175, 85.423 109 C 92.272 112.514, 96.579 129.737, 95.741 150.262 C 95.166 164.354, 93.321 171.375, 88.969 176.033 C 86.236 178.958, 85.616 179.183, 82.230 178.470 C 76.732 177.312, 71.661 177.424, 60.500 178.950 C 46.747 180.830, 41.602 179.959, 36.828 174.940 C 30.949 168.759, 29.598 160.640, 30.231 135.290 C 30.511 124.090, 30.925 114.741, 31.152 114.514 C 31.379 114.288, 33.538 114.603, 35.950 115.215 C 39.201 116.041, 42.917 116.025, 50.326 115.156 C 55.821 114.511, 60.408 114.100, 60.519 114.242 C 60.631 114.384, 61.016 116.419, 61.375 118.763 L 62.028 123.027 53.264 128.646 C 48.444 131.736, 44.357 134.386, 44.182 134.533 C 43.714 134.929, 52.681 155.431, 56.742 163.250 C 59.202 167.986, 60.815 170, 62.149 170 C 65.687 170, 66.264 165.733, 65.614 144.354 L 65.002 124.207 69.774 121.145 C 76.367 116.914, 80.414 112.521, 79.621 110.455 C 79.084 109.056, 77.749 108.847, 71.241 109.145 L 63.500 109.500 62.583 98.500 C 61.461 85.043, 62.186 81.818, 71.652 58.157 C 79.512 38.511, 80.831 30.541, 77.018 25.730 C 75.811 24.207, 73.490 22.270, 71.860 21.428 C 68.543 19.712, 51.997 18.190, 52.005 19.601 C 52.008 20.096, 53.390 33.775, 55.077 50 C 57.781 76.021, 59.304 103.001, 58.069 103 C 57.832 103, 54.379 100.504, 50.395 97.453 C 36.505 86.813, 25.993 73.662, 26.004 66.934 C 26.006 65.595, 26.936 62.977, 28.070 61.116 C 30.923 56.436, 29.024 54.755, 25.875 59.173 C 18.992 68.829, 27.740 83.656, 50.343 100.643 C 55.929 104.842, 60.634 108.829, 60.797 109.504 C 61.162 111.009, 57.098 111.902, 46.306 112.691 C 38.291 113.276, 32 112.040, 32 109.879 C 32 109.395, 31.361 109, 30.580 109 C 28.481 109, 27.532 119.214, 27.515 142 C 27.498 163.971, 28.582 169.664, 34.031 176.241 C 36.333 179.019, 38.568 180.400, 42.710 181.604 C 48.500 183.287, 52.642 183.161, 67.734 180.842 C 73.308 179.986, 75.994 180.018, 79.444 180.984 C 83.432 182.101, 84.333 182.024, 87.710 180.278 C 95.635 176.181, 99.727 161.722, 98.686 141.500 C 97.778 123.854, 92.439 107.712, 87.045 106.302 C 85.618 105.928, 85.155 104.351, 84.660 98.169 C 83.617 85.129, 82.657 51, 83.334 51 C 83.686 51, 85.610 54.263, 87.608 58.250 C 96.892 76.778, 106.267 83.533, 115.831 78.587 C 119.524 76.678, 127.018 68.532, 130.415 62.735 C 135.029 54.861, 134.786 56.149, 128.203 74.462 C 126.130 80.228, 122.816 86.967, 120.334 90.462 C 113.694 99.814, 111.585 104.409, 107.010 119.500 C 101.039 139.197, 100.778 140.546, 101.220 149.500 C 101.550 156.169, 102.160 158.522, 104.889 163.640 C 108.738 170.862, 111.457 173.639, 119.271 178.330 C 127.482 183.260, 137.199 185.469, 150 185.317 C 160.784 185.189, 174.534 182.372, 176.007 179.989 C 176.881 178.575, 181.044 153.555, 181.018 149.872 C 181.008 148.427, 180.312 146.674, 179.471 145.976 C 178.194 144.916, 177.035 145.348, 172.422 148.604 C 158.392 158.508, 149.805 161.840, 141.582 160.573 C 135.732 159.671, 128 157.004, 128 155.887 C 128 154.886, 143.712 144.464, 160.342 134.435 C 170.266 128.450, 178 122.563, 178 120.994 C 178 120.526, 177.293 119.436, 176.429 118.571 C 172.936 115.078, 148.149 117.382, 138.880 122.061 C 135.646 123.693, 133 124.547, 133 123.958 C 133 123.368, 136.242 117.849, 140.203 111.693 C 158.020 84.009, 162.551 69.146, 158.440 51.879 C 157.867 49.472, 158.130 49.199, 161.658 48.550 C 163.771 48.160, 167.367 47.023, 169.649 46.022 C 182.536 40.369, 180.349 31.303, 164.143 23.192 C 153.861 18.045, 147.145 16.513, 123.500 13.918 C 104.949 11.882, 69.781 10.531, 64 11.633 M 55.304 25.750 C 55.612 27.813, 56.889 40.188, 58.141 53.250 C 59.394 66.313, 60.662 76.997, 60.959 76.993 C 61.257 76.989, 62.907 73.276, 64.628 68.743 C 66.348 64.209, 69.610 55.691, 71.878 49.814 C 78.460 32.753, 77.419 25.701, 67.917 22.976 C 66.045 22.439, 62.315 22, 59.629 22 L 54.744 22 55.304 25.750 M 118.307 24.482 C 111.119 27.249, 102.582 32.545, 99 36.461 L 96.500 39.194 110 38.476 C 117.425 38.081, 124.139 37.250, 124.921 36.629 C 127.433 34.633, 132 26.681, 132 24.304 C 132 22.300, 131.513 22.006, 128.250 22.049 C 126.188 22.076, 121.713 23.171, 118.307 24.482 M 94 45.907 C 94 51.700, 105.313 55.549, 124.191 56.177 L 133.882 56.500 131.843 54.331 C 128.003 50.247, 114.684 45.990, 98.250 43.596 C 94.076 42.987, 94 43.029, 94 45.907 M 66.250 112.706 C 64.372 113.067, 64 113.789, 64 117.070 C 64 119.231, 64.396 121, 64.880 121 C 65.364 121, 68.367 118.975, 71.554 116.500 L 77.350 112 72.925 112.136 C 70.491 112.211, 67.487 112.467, 66.250 112.706 M 54.250 131.192 C 50.813 133.405, 48 135.764, 48 136.433 C 48 137.102, 50.411 143.016, 53.359 149.575 C 60.913 166.385, 61.224 167, 62.161 167 C 62.622 167, 63 160.766, 63 153.147 C 63 138.687, 62.147 126.941, 61.108 127.084 C 60.773 127.130, 57.688 128.978, 54.250 131.192" stroke="none" fill="black" fill-rule="evenodd"/>
</svg>