<svg xmlns="http://www.w3.org/2000/svg" width="200" height="200" viewBox="0 0 200 200" version="1.1">
	<path d="M 55.123 5.924 C 52.610 7.477, 46.032 27.839, 46.012 34.128 C 45.983 42.973, 52.035 40.928, 64.431 27.902 L 72.880 19.023 74.940 21.916 C 78.842 27.395, 77.294 31.806, 70.214 35.387 C 63.123 38.975, 53.748 41.596, 39.414 43.998 C 22.745 46.792, 20.302 48.648, 31.673 49.878 L 37.424 50.500 34.658 52.308 C 28.307 56.461, 29.497 61.633, 38.655 69.674 C 45.774 75.924, 47.299 78.056, 46.375 80.465 C 45.486 82.781, 40.674 85, 36.539 85 C 32.227 85, 24 88.681, 24 90.610 C 24 92.379, 25.496 92.360, 31.591 90.511 C 38.696 88.356, 39 88.459, 39 93.038 C 39 97.520, 35.014 108.401, 26.741 126.500 C 23.724 133.100, 20.678 140.131, 19.973 142.124 C 18.568 146.091, 19.147 149, 21.342 149 C 22.114 149, 27.416 144.921, 33.123 139.936 C 45.604 129.033, 52.881 124.056, 57.415 123.320 C 60.198 122.868, 60.906 123.129, 61.436 124.798 C 62.294 127.502, 59.032 136.520, 54.405 144.237 C 49.411 152.566, 33.194 168.592, 25.280 173.020 C 18.605 176.755, 17.678 178.668, 20.557 182.777 C 23.951 187.624, 29.122 185.303, 51.815 168.748 C 71.768 154.191, 83.092 149.583, 89.970 153.222 C 93.263 154.964, 96.821 160.405, 98.169 165.758 C 101.035 177.139, 117.032 184.106, 136.942 182.644 C 159.003 181.024, 184.118 170.299, 182.788 163.067 C 182.630 162.205, 180.796 160.668, 178.713 159.650 C 175.168 157.918, 173.824 157.876, 157.644 158.990 C 117.297 161.768, 95.781 154.787, 91.952 137.676 C 90.480 131.099, 92.192 121.944, 96.788 111.807 L 99.667 105.457 90.084 105.456 C 79.495 105.456, 72.184 103.996, 64.250 100.300 C 54.901 95.945, 57.596 94.036, 73.124 94.014 C 79.247 94.005, 84.341 93.435, 87.124 92.447 C 89.531 91.593, 94.200 90.644, 97.500 90.338 C 102.725 89.853, 103.871 90.075, 106.372 92.059 C 109.129 94.246, 109.224 94.602, 108.742 100.919 C 108.466 104.538, 106.611 113.054, 104.620 119.841 C 100.143 135.106, 99.902 140.991, 103.635 143.927 C 105.084 145.067, 107.573 146, 109.166 146 C 113.202 146, 122.810 142.621, 132.206 137.896 L 140.150 133.902 143.944 137.331 C 149.128 142.014, 153.705 143.332, 162.930 142.798 C 172.531 142.242, 178.093 139.403, 181.726 133.204 C 183.800 129.666, 184.147 128.086, 183.648 124.450 C 182.632 117.038, 178.344 110.104, 169.118 100.953 C 160.840 92.744, 148.782 83, 146.901 83 C 144.892 83, 146.190 85.681, 149.005 87.344 C 152.511 89.415, 155.004 93.728, 154.991 97.700 C 154.956 108.152, 135.957 123.764, 124.421 122.821 C 120.606 122.509, 120.492 122.389, 120.200 118.394 C 119.866 113.833, 123.310 106.633, 138.270 80.617 C 151.311 57.937, 158 42.239, 158 34.310 C 158 29.808, 154.872 24.084, 151.149 21.773 C 148.031 19.838, 146.124 19.508, 138.046 19.504 L 128.592 19.500 127.896 23 C 127.512 24.925, 126.717 30.775, 126.128 36 C 122.394 69.129, 110.594 85.349, 90.568 84.882 C 87.781 84.817, 84.163 84.477, 82.528 84.127 C 79.733 83.528, 79.977 83.325, 86.630 80.715 C 107.795 72.411, 109.255 65.644, 91.340 58.882 C 86.753 57.151, 83 55.308, 83 54.787 C 83 54.266, 84.800 53.132, 87 52.268 C 89.200 51.404, 91 50.315, 91 49.848 C 91 48.304, 86.552 48.976, 83.184 51.029 C 78.025 54.174, 79.068 56.940, 86.500 59.828 C 98.428 64.464, 101.132 66.071, 100.804 68.328 C 100.383 71.232, 93.127 75.479, 80.845 80.010 L 70.591 83.793 74.546 84.898 C 76.720 85.506, 81.419 86.517, 84.986 87.145 L 91.472 88.288 86.986 89.629 C 84.519 90.366, 78.450 90.979, 73.500 90.990 C 64.363 91.011, 57.585 92.245, 56.442 94.094 C 55.128 96.220, 57.077 99.675, 60.757 101.743 C 66.852 105.169, 79.243 108.134, 87.598 108.167 C 94.217 108.193, 95.054 108.398, 94.443 109.848 C 89.996 120.403, 88.823 125.672, 89.155 133.590 C 89.459 140.848, 89.860 142.342, 92.528 146.137 C 96.285 151.481, 101.791 155.401, 109.159 157.976 C 119.507 161.593, 128.022 162.307, 153.099 161.664 C 172.387 161.169, 177.045 161.312, 178.599 162.448 C 180.449 163.802, 180.438 163.904, 178.188 166.300 C 175.174 169.508, 164.411 174.428, 154.433 177.160 C 148.158 178.878, 143.574 179.349, 132.500 179.416 C 119.935 179.491, 117.993 179.266, 113.555 177.220 C 105.323 173.425, 102.616 170.797, 100.711 164.752 C 94.039 143.585, 81.157 144.024, 50.500 166.465 C 34.248 178.361, 28.248 181.979, 24.750 181.991 C 19.830 182.007, 21.341 178.691, 28.176 174.472 C 45.647 163.688, 63.902 139.202, 63.976 126.450 C 64.018 119.369, 60.140 118.173, 51.428 122.581 C 46.835 124.905, 42.698 128.169, 26.583 142.188 C 21.968 146.203, 21.706 146.306, 22.321 143.858 C 22.681 142.424, 26.299 133.882, 30.362 124.875 C 39.350 104.952, 42 97.363, 42 91.553 C 42 87.709, 42.391 86.882, 44.915 85.391 C 51.754 81.351, 50.572 76.406, 40.694 67.743 C 37.084 64.577, 33.835 61.057, 33.475 59.921 C 32.617 57.219, 35.272 54.259, 40.750 51.808 C 45.384 49.735, 46.303 47.390, 42.750 46.706 C 40.729 46.316, 40.767 46.259, 43.122 46.136 C 48.055 45.880, 64.673 41.199, 69.709 38.648 C 76.675 35.117, 80.356 30.579, 79.671 26.362 C 79.381 24.576, 78.131 21.744, 76.893 20.069 C 75.655 18.395, 74.887 16.780, 75.187 16.480 C 76.145 15.522, 89.085 20.731, 91.587 23.082 C 94.675 25.983, 94.625 26.777, 91.018 32.100 C 89.378 34.520, 88.028 37.519, 88.018 38.765 C 87.988 42.544, 93.852 45.249, 106.750 47.406 C 109.102 47.800, 110 47.571, 110 46.578 C 110 45.668, 107.755 44.814, 103.340 44.045 C 95.620 42.701, 91 40.595, 91 38.421 C 91 37.581, 92.125 35.238, 93.500 33.215 C 99.231 24.781, 95.502 19.540, 80.214 14.543 C 76.112 13.203, 74.610 13.079, 73.509 13.993 C 72.387 14.924, 71.399 14.663, 68.795 12.749 C 62.659 8.239, 56.418 5.124, 55.123 5.924 M 53.515 15.327 C 49.811 25.320, 47.651 35.051, 48.868 36.268 C 50.227 37.627, 54.011 34.737, 62.912 25.538 C 70.182 18.026, 70.287 17.844, 68.412 16.023 C 67.360 15.003, 64.177 12.815, 61.337 11.161 L 56.174 8.155 53.515 15.327 M 130 26.131 C 130 40.691, 123.332 65.418, 117.033 74.214 C 113.115 79.685, 105.181 85.960, 102.079 86.041 C 101.210 86.064, 102.523 87.076, 104.996 88.291 C 107.469 89.506, 110.080 91.625, 110.798 93 C 112.734 96.705, 111.634 105.654, 107.543 119.485 C 103.713 132.435, 102.940 139.018, 104.962 141.454 C 107.775 144.844, 117.214 142.443, 133.728 134.138 C 142.936 129.507, 143 129.487, 143 131.313 C 143 133.162, 147.932 137.650, 151.500 139.048 C 156.739 141.099, 167.162 140.584, 172.478 138.011 C 185.087 131.906, 183.556 119.547, 168.236 103.780 C 160.168 95.476, 156.544 92.648, 157.643 95.511 C 159.010 99.074, 155.691 106.257, 149.735 112.624 C 139.357 123.718, 124.294 129.294, 119 124 C 114.832 119.832, 116.567 113.995, 128.137 93.245 C 132.659 85.135, 138.981 73.775, 142.185 68 C 153.146 48.246, 156.991 34.752, 153.554 28.105 C 151.293 23.733, 146.745 22, 137.532 22 L 130 22 130 26.131" stroke="none" fill="black" fill-rule="evenodd"/>
</svg>