<svg xmlns="http://www.w3.org/2000/svg" width="200" height="200" viewBox="0 0 200 200" version="1.1">
	<path d="M 142.961 23.942 L 131.500 36.976 109.500 36.918 L 87.500 36.861 113.500 29.376 C 127.800 25.259, 139.913 21.480, 140.417 20.978 C 142.161 19.243, 137.865 18.712, 132.164 19.958 C 129.049 20.639, 115.277 23.869, 101.560 27.135 C 87.590 30.462, 75.493 32.843, 74.060 32.547 C 72.652 32.257, 66.525 31.565, 60.445 31.009 C 43.201 29.434, 30.553 31.791, 23.642 37.867 C 22.620 38.765, 20.597 41.750, 19.147 44.500 C 16.696 49.148, 16.514 50.379, 16.556 62 C 16.582 68.875, 16.759 77.650, 16.952 81.500 C 17.144 85.350, 16.959 96.600, 16.541 106.500 C 15.422 132.982, 18.420 153.322, 24.686 161.750 C 27.936 166.123, 30.920 165.994, 35.038 161.304 C 38.422 157.450, 41.488 151.224, 44.462 142.171 L 46.213 136.843 49.530 141.768 C 53.353 147.446, 58.394 152, 60.854 152 C 63.821 152, 66.653 149.235, 68.751 144.292 C 72.760 134.844, 73.500 126.425, 73.500 90.293 C 73.500 57.603, 73.575 56.232, 75.183 59.366 C 76.840 62.595, 87.815 73.522, 92.454 76.562 L 94.828 78.118 89.609 85.393 C 83.616 93.746, 80.331 100.810, 78.970 108.275 C 78.446 111.149, 78.157 126.842, 78.327 143.149 C 78.674 176.279, 78.770 176.752, 85.723 179.657 C 90.315 181.576, 96.150 180.797, 109.982 176.419 C 123.818 172.040, 132.531 170.033, 137.782 170.015 C 146.213 169.986, 153.691 174.962, 157.143 182.898 L 159.056 187.296 161.625 184.898 C 169.366 177.673, 175.640 154.308, 176.635 129 C 177.805 99.237, 170.228 82.265, 156.783 84.537 C 151.605 85.411, 146.946 90.007, 143.131 98 C 140.928 102.615, 140.463 105.109, 140.243 113.500 C 140.002 122.663, 140.386 125.076, 144.828 142.336 L 149.676 161.173 147.370 162.049 C 141.795 164.169, 128.354 166.192, 122.376 165.811 C 117.014 165.470, 115.495 164.950, 113.224 162.676 C 109.171 158.620, 109.567 152.518, 114.886 137.078 C 118.476 126.657, 118.985 124.263, 118.050 122.210 C 117.120 120.170, 116.442 119.862, 113.967 120.357 C 112.335 120.683, 111 120.756, 111 120.519 C 111 120.282, 112.263 117.931, 113.808 115.294 C 119.274 105.960, 120.276 102.228, 120.463 90.500 C 120.684 76.665, 122.500 72, 127.665 72 C 131.893 72, 139.209 69.090, 138.667 67.625 C 138.437 67.006, 137.631 66.678, 136.875 66.896 C 129.573 68.997, 127.978 69.311, 127.426 68.759 C 126.188 67.521, 144.099 45.986, 146.343 46.015 C 150.102 46.065, 150.070 47.724, 146.153 55.588 C 142.452 63.020, 139 72.716, 139 75.682 C 139 76.407, 139.876 77.876, 140.946 78.946 C 144.533 82.533, 150.358 79.629, 172.022 63.449 C 179.715 57.703, 187.470 52.400, 189.255 51.664 L 192.500 50.326 186 49.167 C 182.425 48.530, 174.100 47.261, 167.500 46.347 C 160.900 45.433, 155.343 44.561, 155.152 44.411 C 154.960 44.260, 157.322 39.856, 160.402 34.624 C 163.481 29.392, 166 24.809, 166 24.439 C 166 24.069, 165.151 23.989, 164.113 24.260 C 162.649 24.643, 161.741 23.718, 160.058 20.127 C 158.865 17.582, 157.109 14.467, 156.156 13.204 L 154.422 10.907 142.961 23.942 M 151.333 18.417 C 150.325 19.747, 146.132 24.536, 142.016 29.059 L 134.532 37.284 142.812 36.805 C 150.970 36.332, 151.157 36.262, 155.445 32.054 C 160.175 27.411, 160.275 26.300, 156.599 19.192 C 154.620 15.365, 153.746 15.237, 151.333 18.417 M 38.344 34.041 C 24.509 36.779, 18.619 45.150, 18.675 62 C 18.692 67.225, 19.229 74.200, 19.868 77.500 C 20.745 82.026, 20.750 85.422, 19.889 91.325 C 18.314 102.123, 19.317 136.125, 21.501 146 C 23.368 154.440, 26.709 161.320, 29.172 161.795 C 32.793 162.492, 37.375 154.723, 42.546 139.115 L 45.656 129.729 48.847 135.382 C 53.316 143.302, 58.811 149.170, 61.410 148.799 C 69.065 147.705, 73.488 111.117, 71.099 68.663 C 69.949 48.235, 70.301 46.004, 75.217 42.561 C 77.436 41.006, 77.437 41, 75.328 41 C 71.170 41, 60.107 45.078, 55.630 48.262 L 51.075 51.500 50.566 78 C 50.060 104.368, 48.594 124.781, 47.099 126.292 C 45.095 128.318, 43.738 123.455, 43.321 112.753 C 43.052 105.858, 42.067 98.402, 40.778 93.500 C 38.323 84.163, 37.907 70.476, 39.897 64.500 C 40.629 62.300, 42.640 58.260, 44.364 55.523 C 47.014 51.318, 47.449 49.759, 47.171 45.472 L 46.841 40.398 56.982 38.004 C 62.559 36.688, 67.307 35.313, 67.531 34.949 C 68.554 33.295, 45.707 32.585, 38.344 34.041 M 62.500 39.352 C 49.971 42.466, 49.513 42.672, 49.848 45.041 C 50.039 46.394, 50.309 47.620, 50.448 47.767 C 50.587 47.914, 53.235 46.508, 56.332 44.643 C 61.861 41.314, 72.193 38.068, 77.706 37.930 C 79.242 37.891, 81.400 37.473, 82.500 37 C 87.541 34.834, 74.518 36.366, 62.500 39.352 M 152.500 38.765 C 151.950 39.169, 150.643 40.513, 149.595 41.750 C 147.711 43.975, 147.713 44, 149.819 44 C 151.174 44, 152.513 42.908, 153.500 41 C 154.994 38.112, 154.597 37.225, 152.500 38.765 M 85.718 41.092 C 81.105 42.178, 76.796 44.336, 75.058 46.430 C 74.249 47.405, 75.405 47.083, 78.131 45.574 C 80.534 44.244, 85.161 42.673, 88.413 42.082 C 91.665 41.491, 94.552 40.781, 94.829 40.504 C 95.603 39.730, 89.952 40.095, 85.718 41.092 M 110.097 40.430 C 110.812 41.145, 126.987 41.346, 127.685 40.648 C 128.042 40.292, 124.133 40, 119 40 C 113.867 40, 109.860 40.194, 110.097 40.430 M 131.550 40.919 C 131.237 41.425, 133.950 42.157, 137.579 42.545 C 142.990 43.125, 144.469 42.959, 145.803 41.626 C 147.304 40.125, 146.842 40, 139.773 40 C 135.563 40, 131.862 40.414, 131.550 40.919 M 93.932 47.915 C 95.638 50.068, 99.605 54.180, 102.748 57.053 L 108.464 62.277 114.723 55.388 C 118.166 51.600, 120.986 48.205, 120.991 47.844 C 121.016 45.962, 110.936 44, 101.238 44 L 90.832 44 93.932 47.915 M 121 44.393 C 121 45.342, 123.993 45.820, 124.527 44.956 C 124.852 44.430, 124.191 44, 123.059 44 C 121.927 44, 121 44.177, 121 44.393 M 80.962 47.250 C 73.172 51.178, 74.362 56.290, 85.535 66.904 C 95.152 76.038, 96.145 76.539, 98.878 73.630 L 101.031 71.338 94.266 58.188 C 90.544 50.956, 87.033 45.030, 86.462 45.019 C 85.891 45.009, 83.416 46.013, 80.962 47.250 M 126.542 45.932 C 126.226 46.444, 126.923 47.533, 128.092 48.352 C 131.061 50.432, 129.578 52.609, 126.545 50.621 C 124.061 48.994, 125.066 48.221, 114.068 60.226 L 110.654 63.952 116.518 66.637 L 122.382 69.321 124.941 65.951 C 126.348 64.098, 130.504 58.969, 134.175 54.554 C 138.672 49.146, 140.467 46.282, 139.675 45.778 C 137.982 44.701, 127.225 44.827, 126.542 45.932 M 148.190 57.788 C 142.836 69.062, 140.929 76.220, 142.945 77.466 C 144.999 78.735, 154.714 73.086, 169.263 62.162 L 183.456 51.506 172.978 49.888 C 167.215 48.998, 160.425 48.001, 157.888 47.673 L 153.277 47.076 148.190 57.788 M 98.646 60.668 C 100.679 64.426, 102.504 67.700, 102.699 67.944 C 102.895 68.189, 103.943 67.501, 105.028 66.417 C 106.990 64.454, 106.971 64.420, 100.974 59.140 L 94.948 53.836 98.646 60.668 M 45.731 58.280 C 40.863 65.731, 39.895 80.626, 43.494 92.690 C 44.345 95.545, 45.397 101.170, 45.832 105.190 C 46.540 111.747, 46.700 110.491, 47.388 93 C 47.810 82.275, 48.008 69.466, 47.828 64.536 L 47.500 55.572 45.731 58.280 M 106.359 68.799 L 104.218 71.474 108.671 80.341 C 111.121 85.218, 112.961 89.372, 112.762 89.572 C 112.562 89.771, 108.974 87.740, 104.788 85.058 L 97.177 80.182 95.194 82.341 C 91.534 86.326, 85.135 97.079, 83.309 102.313 C 81.706 106.911, 81.500 111.231, 81.500 140.337 L 81.500 173.174 84.432 175.696 C 88.333 179.051, 93.431 178.606, 110.281 173.439 L 123.063 169.519 118.281 168.307 C 106.834 165.403, 105.114 156.836, 112.011 137.060 C 114.205 130.769, 116 125.031, 116 124.310 C 116 122.500, 114.069 122.671, 109.773 124.861 C 104.325 127.638, 103.460 125.756, 107.560 120.049 C 109.425 117.453, 112.424 112.218, 114.225 108.415 C 117.247 102.035, 117.507 100.688, 117.593 91 C 117.660 83.370, 118.173 79.327, 119.468 76.209 C 120.448 73.848, 121.082 71.817, 120.875 71.695 C 119.771 71.040, 108.921 66.010, 108.728 66.062 C 108.603 66.097, 107.537 67.328, 106.359 68.799 M 100.264 75.949 C 99.211 77.634, 99.415 78.152, 101.774 79.785 C 106.836 83.289, 107.069 83.196, 104.823 78.573 C 103.601 76.058, 102.349 74, 102.041 74 C 101.733 74, 100.933 74.877, 100.264 75.949 M 154.090 88.265 C 152.764 88.944, 150.183 91.677, 148.355 94.337 C 140.876 105.219, 140.775 115.342, 147.867 142.981 C 150.611 153.675, 152.656 162.748, 152.411 163.144 C 152.166 163.540, 149.499 164.416, 146.483 165.091 C 143.467 165.766, 141 166.638, 141 167.028 C 141 167.419, 142.617 168.001, 144.593 168.321 C 149.245 169.076, 154.490 173.127, 158.016 178.686 L 160.821 183.109 163.914 176.805 C 172.268 159.776, 176.387 125.653, 172.525 105.469 C 170.980 97.391, 167.259 89.744, 164.034 88.018 C 161.472 86.647, 157.031 86.757, 154.090 88.265" stroke="none" fill="black" fill-rule="evenodd"/>
</svg>