<svg xmlns="http://www.w3.org/2000/svg" width="200" height="200" viewBox="0 0 200 200" version="1.1">
	<path d="M 74.579 14.872 C 74.283 15.351, 76.528 17.395, 79.568 19.413 C 82.608 21.432, 85.304 23.627, 85.559 24.293 C 85.814 24.958, 85.230 27.970, 84.261 30.986 C 82.591 36.186, 82.293 36.507, 78.500 37.178 C 76.300 37.566, 65.725 37.918, 55 37.958 C 44.275 37.998, 34.872 38.428, 34.104 38.914 C 31.745 40.409, 33.614 42.680, 38.601 44.380 C 42.307 45.642, 47.415 46, 61.746 46 L 80.135 46 79.443 48.250 C 79.063 49.487, 78.664 50.606, 78.558 50.735 C 78.451 50.864, 76.612 50.077, 74.470 48.985 C 67.655 45.510, 63.599 46.735, 61.171 53.002 C 60.532 54.653, 55.902 58.213, 47.519 63.500 C 32.690 72.853, 31.818 73.662, 34.479 75.608 C 35.942 76.678, 40.649 77, 54.835 77 L 73.288 77 72.602 85.217 C 72.225 89.736, 71.457 93.718, 70.895 94.065 C 69.376 95.004, 54.406 97.099, 43.885 97.846 C 38.637 98.218, 34.504 98.973, 34.298 99.598 C 33.906 100.782, 46.721 102, 59.579 102 L 66.850 102 69.925 107.500 C 71.616 110.525, 74.370 115.449, 76.043 118.442 L 79.087 123.883 76.899 125.054 C 74.101 126.552, 69.144 125.864, 57.918 122.420 L 48.929 119.663 46.214 121.670 C 34.081 130.642, 34.546 168.217, 46.964 182.209 C 50.370 186.048, 51.239 186.500, 55.214 186.500 C 60.545 186.500, 65.233 183.315, 70.719 175.966 C 74.097 171.442, 74.739 171.052, 79.848 170.413 C 89.897 169.158, 102.634 170.597, 115.500 174.443 C 140.471 181.906, 145.113 182.300, 150.881 177.446 C 155.161 173.845, 156.963 167.344, 158.243 150.891 C 159.655 132.733, 159.348 131.762, 146.812 114.745 L 137.795 102.505 141.648 101.822 C 145.719 101.100, 164.427 92.973, 166.278 91.122 C 168.383 89.017, 165.994 88.738, 160.075 90.399 C 153.788 92.163, 138.770 94.996, 135.695 94.999 C 134.477 95, 133.139 93.293, 131.580 89.750 C 127.323 80.072, 127.324 80, 131.758 80 C 142.330 80, 170.363 73.066, 173.838 69.591 C 175.118 68.311, 175.131 67.863, 173.932 66.418 C 172.721 64.959, 171.205 64.824, 162.518 65.400 C 157.008 65.765, 148.338 66.641, 143.250 67.346 C 138.162 68.051, 134 68.456, 134 68.247 C 134 68.037, 135.575 66.380, 137.500 64.565 C 142.751 59.613, 142.197 55.400, 135.312 47.909 L 132.931 45.318 152.606 44.685 C 163.427 44.337, 172.523 43.810, 172.820 43.514 C 173.965 42.368, 169.869 35.891, 166.829 34.042 C 161.291 30.674, 154.611 30.516, 139.845 33.402 C 132.505 34.836, 125.487 36.285, 124.250 36.622 C 122.153 37.192, 122 36.919, 122 32.617 C 122 29.180, 121.617 28, 120.500 28 C 119.417 28, 119 29.110, 119 31.990 L 119 35.980 106.250 29.303 C 99.237 25.631, 93.162 22.148, 92.748 21.563 C 92.334 20.978, 92.109 19.195, 92.248 17.599 C 92.592 13.643, 90.358 13.168, 88.782 16.862 L 87.500 19.869 81.654 16.934 C 75.053 13.621, 75.307 13.695, 74.579 14.872 M 93.564 28.250 C 95.789 35.417, 100.642 38.250, 109.929 37.802 L 116.193 37.500 105.236 31.750 C 99.210 28.587, 93.961 26, 93.572 26 C 93.183 26, 93.180 27.012, 93.564 28.250 M 87.087 31.105 C 85.634 35.954, 85.897 36.461, 88.810 34.420 C 91.279 32.691, 91.668 29.799, 89.656 28.130 C 88.588 27.243, 88.061 27.854, 87.087 31.105 M 92.442 35.093 C 92.115 35.623, 90.200 36.832, 88.187 37.780 C 86.174 38.728, 84.375 40.290, 84.190 41.252 C 83.880 42.863, 85.234 43, 101.427 43 C 114.818 43, 119 42.703, 119.002 41.750 C 119.004 40.840, 117.179 40.594, 112.290 40.845 C 104.393 41.250, 99.309 39.943, 95.671 36.570 C 94.222 35.228, 92.770 34.564, 92.442 35.093 M 138.361 36.445 C 123.753 39.480, 124.061 39.350, 127.020 41.219 C 129.146 42.561, 132.236 42.693, 148.667 42.142 C 159.209 41.789, 168.161 41.173, 168.560 40.774 C 169.652 39.681, 166.911 36.862, 163.282 35.345 C 158.727 33.441, 151.225 33.772, 138.361 36.445 M 55.500 40.965 C 32.401 41.652, 36.473 42.968, 61.750 42.986 C 78.201 42.998, 81 42.782, 81 41.500 C 81 40.395, 80.012 40.057, 77.250 40.215 C 75.188 40.333, 65.400 40.671, 55.500 40.965 M 93.060 45.946 L 82.621 46.500 81.752 49.865 C 81.045 52.605, 81.219 53.478, 82.692 54.566 C 101.352 68.351, 105.571 70.428, 110.424 68.217 C 111.672 67.648, 113.652 65.144, 114.824 62.652 C 116.932 58.167, 119.212 47.197, 118.336 45.750 C 117.860 44.963, 110.495 45.020, 93.060 45.946 M 122.915 45.750 C 122.343 50.778, 125.835 76.168, 127.299 77.633 C 128.726 79.059, 161.824 72.542, 168.500 69.520 C 171.439 68.190, 171.378 68.161, 165.500 68.101 C 162.200 68.067, 154.550 68.702, 148.500 69.511 C 142.450 70.321, 136.248 70.987, 134.719 70.992 C 130.357 71.005, 130.222 68.381, 134.366 64.137 C 139.579 58.799, 139.302 55.887, 133.003 49.816 C 129.744 46.675, 127.136 45, 125.503 45 C 124.126 45, 122.962 45.337, 122.915 45.750 M 64.557 52.223 C 63.701 53.445, 63 54.948, 63 55.563 C 63 56.178, 57.815 60.016, 51.478 64.091 C 45.140 68.166, 39.178 72.048, 38.228 72.718 C 36.843 73.694, 40.216 73.943, 55.205 73.968 L 73.909 74 74.553 70.250 C 74.907 68.188, 75.791 63.810, 76.517 60.523 C 77.243 57.235, 77.656 54.253, 77.435 53.894 C 76.705 52.714, 70.238 50, 68.156 50 C 67.032 50, 65.413 51, 64.557 52.223 M 79.191 61.278 C 76.793 72.520, 76.684 74, 78.261 74 C 80.355 74, 88 82.557, 88 84.901 C 88 87.873, 83.484 92.589, 78.870 94.435 L 74.733 96.091 75.373 102.295 C 76.407 112.315, 77.750 115.877, 81.311 118.048 C 86.010 120.913, 89.724 120.478, 96.662 116.250 C 100.047 114.188, 106.345 110.353, 110.658 107.729 C 114.971 105.105, 120.975 102.240, 124 101.363 C 133.713 98.544, 133.860 98.375, 127.202 97.679 C 115.377 96.443, 109.011 90.951, 109.004 81.981 L 109 77.461 116.648 77.847 L 124.297 78.234 123.557 74.867 C 123.150 73.015, 122.265 67.900, 121.591 63.500 L 120.365 55.500 118.656 60.589 C 116.790 66.142, 112.917 70.508, 109 71.473 C 104.206 72.655, 97.232 69.069, 82.903 58.053 L 80.306 56.056 79.191 61.278 M 75.464 84.545 C 75.075 88.695, 74.993 92.326, 75.281 92.615 C 76.153 93.486, 83.707 89.205, 84.377 87.461 C 85.474 84.602, 85.064 83.280, 82.099 80.106 C 77.426 75.104, 76.276 75.873, 75.464 84.545 M 111.529 80.800 C 110.527 81.816, 113.317 88.864, 115.449 90.703 C 118.190 93.068, 123.860 94.985, 128.138 94.994 L 130.777 95 128.412 89.250 C 127.112 86.088, 126.037 82.974, 126.024 82.332 C 126.009 81.586, 123.442 81.044, 118.912 80.832 C 115.014 80.649, 111.692 80.635, 111.529 80.800 M 141.269 96.940 C 138.941 97.319, 136.729 97.938, 136.352 98.315 C 135.095 99.572, 143.456 98.930, 146.500 97.536 C 149.913 95.973, 148.316 95.791, 141.269 96.940 M 66 98 L 62.500 98.737 65.758 98.868 C 68.585 98.983, 69.230 99.535, 70.633 103.041 C 71.523 105.264, 72.453 106.881, 72.700 106.633 C 73.621 105.712, 71.730 97.005, 70.636 97.132 C 70.011 97.204, 67.925 97.595, 66 98 M 125.500 103.402 C 118.618 105.584, 101.251 115.584, 102.381 116.714 C 102.607 116.941, 105.427 116.663, 108.646 116.098 C 111.866 115.533, 119.300 114.569, 125.167 113.956 C 137.132 112.706, 140.362 113.447, 139.811 117.318 C 139.140 122.029, 122.765 127.216, 101.874 129.335 C 90.118 130.527, 89.675 130.651, 93 131.833 C 100.959 134.661, 109.311 134.301, 124.250 130.486 C 126.391 129.939, 127 130.135, 127 131.373 C 127 132.289, 122.661 135.778, 116.750 139.613 C 111.112 143.272, 104.376 148.174, 101.780 150.508 C 89.511 161.538, 73.394 163.051, 63.942 154.060 C 57.010 147.465, 57.362 140.543, 65.019 132.886 C 68.922 128.983, 69.505 128, 67.917 128 C 66.824 128, 62.293 126.798, 57.848 125.329 C 51.948 123.379, 49.325 122.932, 48.133 123.673 C 37.206 130.464, 37.576 166.967, 48.705 179.968 C 52.476 184.374, 55.167 184.999, 59.875 182.565 C 62.811 181.046, 69.101 174.548, 70.914 171.160 C 72.519 168.162, 81.484 166.613, 93 167.344 C 101.878 167.907, 111.425 170.053, 127 174.988 C 130.575 176.121, 136.294 177.326, 139.709 177.665 C 145.780 178.268, 145.994 178.206, 149.326 174.874 C 152.995 171.205, 155 164.712, 155 156.500 C 155 154.079, 155.485 149.839, 156.077 147.078 C 157.655 139.719, 155.847 132.327, 150.667 124.958 C 132.547 99.180, 134.241 100.630, 125.500 103.402 M 116.717 117.659 C 103.840 119.389, 84.500 124.096, 84.500 125.500 C 84.500 126.050, 87.650 126.638, 91.500 126.806 C 103.514 127.331, 123.006 124.064, 132.750 119.891 C 142.053 115.907, 136.012 115.066, 116.717 117.659 M 70.161 131.998 C 59.310 139.858, 59.426 150.110, 70.421 155.104 C 79.335 159.152, 93.130 155.917, 100.500 148.048 C 102.150 146.287, 106.780 142.798, 110.789 140.295 C 114.798 137.792, 117.931 135.598, 117.751 135.418 C 117.572 135.239, 114.599 135.491, 111.145 135.979 C 103.310 137.087, 94.146 135.714, 88.030 132.517 C 85.539 131.214, 81.450 129.876, 78.944 129.542 C 74.937 129.009, 73.880 129.304, 70.161 131.998" stroke="none" fill="black" fill-rule="evenodd"/>
</svg>