<svg xmlns="http://www.w3.org/2000/svg" width="200" height="200" viewBox="0 0 200 200" version="1.1">
	<path d="M 53.354 17.354 L 54.017 23 51.086 23 C 49.240 23, 46.553 24.284, 43.828 26.468 C 35.004 33.540, 30.861 36.144, 24.757 38.458 C 19.881 40.307, 18.941 40.972, 20.500 41.470 C 30.704 44.733, 31.570 48.372, 27.915 72.651 C 23.474 102.160, 27.074 114.155, 43.007 122.937 C 46.999 125.137, 47.885 125.969, 46.250 125.982 C 45.013 125.992, 44 126.614, 44 127.365 C 44 128.330, 47.266 129.256, 55.126 130.520 L 66.252 132.310 65.643 138.140 C 64.476 149.308, 55.135 164.338, 41.940 176.280 C 38.163 179.698, 36.966 181.366, 37.737 182.137 C 39.180 183.580, 41.753 182.678, 66.812 171.936 C 86.704 163.409, 87.712 162.840, 93 157.160 C 105.091 144.171, 118.570 134.031, 123.771 134.009 C 129.578 133.985, 128.983 146.187, 122.512 159.811 C 118.100 169.102, 114.862 173.503, 110.948 175.527 C 109.327 176.365, 108 177.651, 108 178.385 C 108 180.142, 119.311 183.810, 128.921 185.169 C 150.796 188.263, 165.883 175.083, 169.049 150.117 C 171.470 131.015, 163.876 109, 154.865 109 C 153.839 109, 153 108.418, 153 107.706 C 153 106.966, 156.640 105.227, 161.503 103.643 C 170.120 100.837, 183.334 95.145, 181.500 95.029 C 178.087 94.813, 166.686 91.889, 164.157 90.581 C 158.399 87.603, 159.283 82.911, 167 75.500 C 169.291 73.300, 171.843 70.207, 172.672 68.626 C 175.197 63.813, 173.061 62.707, 161.546 62.867 L 151.929 63.001 153.128 60.762 C 153.787 59.530, 156.953 54.733, 160.163 50.102 C 166.039 41.626, 167.052 38.799, 164.750 37.309 C 164.063 36.864, 159.036 36.275, 153.580 36 L 143.660 35.500 142.263 28.571 C 139.272 13.734, 137.526 12.721, 120.707 16.070 C 99.946 20.203, 84.578 19.316, 55.095 12.281 C 52.716 11.714, 52.697 11.769, 53.354 17.354 M 56.015 17.841 C 56.039 21.869, 56.847 22.432, 65.500 24.433 C 69.900 25.451, 75.835 27.087, 78.690 28.068 C 83.372 29.676, 84.399 29.712, 89.190 28.437 C 99.681 25.645, 103.670 27.040, 101.130 32.614 C 100.086 34.906, 100.256 35.209, 103.304 36.482 C 105.123 37.242, 107.792 38.161, 109.236 38.523 C 111.450 39.079, 111.785 38.892, 111.377 37.333 C 110.919 35.583, 111.700 35.503, 125.943 35.851 L 140.994 36.218 140.394 32.859 C 138.241 20.801, 136.261 17, 132.136 17 C 130.587 17, 124.859 17.951, 119.409 19.113 C 102.595 22.699, 80.526 21.739, 61.250 16.585 L 56 15.181 56.015 17.841 M 50.397 25.686 C 49.241 25.914, 45.643 28.343, 42.402 31.083 C 39.160 33.824, 34.438 37.098, 31.906 38.359 L 27.304 40.653 29.588 43.308 C 33.210 47.518, 33.568 53.660, 31.141 69.987 C 27.448 94.840, 28.539 105.597, 35.590 113.834 C 41.978 121.297, 54.942 126.110, 69.067 126.263 C 78.715 126.367, 84.033 123.741, 88.362 116.736 C 89.981 114.116, 91.091 111.757, 90.828 111.495 C 90.566 111.233, 83.668 110.125, 75.500 109.033 C 67.332 107.942, 60.205 106.605, 59.662 106.062 C 58.493 104.893, 62.732 103.037, 66.815 102.930 C 68.292 102.891, 70.383 102.514, 71.463 102.092 C 73.332 101.361, 73.308 101.251, 70.963 99.771 C 69.608 98.917, 67.173 97.547, 65.551 96.727 L 62.602 95.235 67.848 92.577 C 73.569 89.678, 75.034 87.606, 72.885 85.456 C 72.121 84.692, 67.044 82.256, 61.603 80.042 C 48.677 74.782, 45 72.001, 45 67.484 C 45 62.341, 49.561 57.921, 60.790 52.181 C 70.765 47.083, 87.109 41, 90.834 41 C 91.986 41, 93.432 40.061, 94.046 38.914 C 95.361 36.457, 95.707 36.802, 89.697 34.574 C 85.466 33.006, 84.118 32.940, 78.391 34.021 C 66.989 36.172, 59.713 34.176, 56.154 27.921 C 55.244 26.321, 54.050 25.071, 53.500 25.143 C 52.950 25.214, 51.554 25.459, 50.397 25.686 M 60.262 28.717 C 62.590 31.045, 63.982 31.490, 69.989 31.830 C 74.275 32.072, 77 31.836, 77 31.222 C 77 30.196, 62.902 26, 59.455 26 C 57.774 26, 57.871 26.325, 60.262 28.717 M 93.250 30.119 C 91.463 30.635, 90 31.234, 90 31.451 C 90 31.668, 91.628 32.382, 93.619 33.039 C 97.353 34.272, 98.946 33.444, 98.985 30.250 C 99.002 28.821, 97.838 28.794, 93.250 30.119 M 97.500 39 C 97.160 39.550, 97.557 40, 98.382 40 C 99.207 40, 100.160 39.550, 100.500 39 C 100.840 38.450, 100.443 38, 99.618 38 C 98.793 38, 97.840 38.450, 97.500 39 M 115 39.016 C 115 39.349, 117.212 40.189, 119.916 40.882 C 129.910 43.443, 139.480 51.951, 138.822 57.689 C 138.552 60.047, 137.977 60.550, 135.252 60.813 C 132.408 61.088, 131.145 60.281, 125.081 54.313 L 118.157 47.500 117.669 51.288 C 116.712 58.705, 111.796 63.053, 102.025 65.121 C 90.139 67.637, 71.378 62.258, 67.922 55.343 L 66.345 52.187 60.011 55.571 C 49.447 61.215, 45.817 65.546, 48.377 69.453 C 49.978 71.896, 53.537 73.798, 66.302 79.031 C 77.814 83.751, 79.852 88.456, 72.384 93.072 L 68.871 95.243 72.002 97.147 C 75.689 99.389, 75.794 102.807, 72.230 104.577 C 70.299 105.536, 71.544 105.892, 80.570 106.962 C 86.474 107.661, 91.542 107.838, 91.995 107.360 C 92.443 106.887, 93.759 101.790, 94.921 96.033 C 98.601 77.784, 102.289 73.234, 112.540 74.292 C 115.387 74.586, 120.457 76.212, 123.818 77.908 L 129.924 80.991 124.812 85.745 C 122 88.360, 118.833 92.440, 117.775 94.812 C 116.020 98.746, 115.987 99.330, 117.390 101.473 C 119.782 105.123, 124.991 106.307, 136.421 105.799 C 141.995 105.551, 147.237 104.932, 148.069 104.424 C 149.399 103.611, 149.093 99.692, 145.519 71.812 C 143.285 54.383, 141.242 39.922, 140.978 39.676 C 140.231 38.976, 115 38.334, 115 39.016 M 144.380 41.750 C 144.676 43.263, 145.446 48.918, 146.091 54.318 C 146.736 59.718, 147.596 63.768, 148.001 63.318 C 150.024 61.071, 163 40.928, 163 40.033 C 163 39.394, 159.346 39, 153.421 39 L 143.841 39 144.380 41.750 M 95.835 42.820 C 94.919 43.194, 92.248 45.868, 89.898 48.763 C 87.206 52.079, 85.275 53.675, 84.677 53.077 C 84.080 52.480, 84.920 50.626, 86.949 48.065 C 88.719 45.829, 89.953 44, 89.689 44 C 88.380 44, 75.148 48.403, 72.750 49.637 C 64.604 53.827, 76.082 61.627, 92 62.718 C 101.600 63.376, 107.379 61.821, 111.814 57.386 C 115.023 54.177, 115.217 53.614, 114.761 48.869 C 114.493 46.074, 113.649 43.392, 112.887 42.909 C 111.274 41.887, 98.285 41.820, 95.835 42.820 M 120.667 45.369 C 122.313 48.310, 130.249 56.077, 133.129 57.567 C 135.816 58.956, 136 58.926, 136 57.102 C 136 53.302, 128.424 46.419, 122.144 44.513 C 120.194 43.921, 119.939 44.069, 120.667 45.369 M 154.311 65.913 C 151.458 66.260, 148.803 66.864, 148.412 67.255 C 148.021 67.645, 148.669 75.303, 149.851 84.271 C 151.033 93.240, 152 101.179, 152 101.914 C 152 103.638, 156.014 102.884, 165.900 99.303 L 173.300 96.623 168.334 94.935 C 161.663 92.667, 159.264 91.051, 157.984 87.962 C 156.427 84.202, 157.956 81.071, 165.102 73.390 C 169.833 68.305, 170.937 66.574, 169.878 65.903 C 168.357 64.940, 162.277 64.944, 154.311 65.913 M 104.303 78.501 C 103.124 79.326, 101.465 82.138, 100.614 84.751 C 98.993 89.729, 94.836 108.196, 95.257 108.553 C 95.390 108.667, 106.975 110.157, 121 111.865 L 146.500 114.969 148.228 112.734 C 149.178 111.506, 149.966 109.660, 149.978 108.633 C 149.995 107.168, 149.516 106.907, 147.750 107.419 C 142.894 108.826, 127.439 109.222, 123.135 108.050 C 111.775 104.956, 111.006 96.458, 121.095 85.513 L 125.020 81.255 120.075 79.127 C 114.301 76.644, 107.348 76.367, 104.303 78.501 M 91.496 116.765 C 89.946 119.725, 87.063 123.285, 85.089 124.677 L 81.500 127.207 98.500 126.597 C 107.850 126.261, 119.810 125.337, 125.078 124.543 C 135.130 123.029, 146.782 119.301, 145.343 118.058 C 144.879 117.657, 137.750 116.544, 129.500 115.584 C 121.250 114.624, 109.958 113.287, 104.407 112.611 L 94.313 111.383 91.496 116.765 M 153.820 114.205 C 153.297 117.809, 146.010 122.510, 137.352 124.828 C 125.267 128.063, 112.489 129.262, 88.761 129.386 C 76.804 129.449, 67.466 129.650, 68.011 129.833 C 69.470 130.325, 69.214 136.758, 67.469 143.458 C 65.056 152.721, 60.176 160.710, 51.109 170.239 C 45.782 175.837, 43.591 178.717, 45.109 178.124 C 46.424 177.610, 56.006 173.535, 66.403 169.067 L 85.306 160.944 97.600 149.061 C 116.148 131.132, 126.038 127.077, 129.730 135.885 C 130.978 138.863, 131.050 140.565, 130.135 145.546 C 128.109 156.585, 119.856 173.200, 114.844 176.330 C 113.830 176.963, 113 177.764, 113 178.109 C 113 179.754, 126.136 182.403, 134.500 182.445 C 141.931 182.482, 144.317 182.088, 148.186 180.186 C 157.934 175.396, 164.288 164.990, 166.202 150.684 C 168.080 136.652, 164.828 120.704, 158.777 114.262 C 156.086 111.399, 154.229 111.377, 153.820 114.205" stroke="none" fill="black" fill-rule="evenodd"/>
</svg>