<svg xmlns="http://www.w3.org/2000/svg" width="200" height="200" viewBox="0 0 200 200" version="1.1">
	<path d="M 51.144 27.134 C 23.771 29.489, 15.016 37.343, 15.064 59.500 C 15.073 63.350, 15.668 69.859, 16.388 73.965 C 17.480 80.189, 17.462 84.429, 16.282 99.465 C 13.924 129.511, 15.836 150.670, 21.250 154.463 C 25.410 157.376, 28.064 156.417, 34.524 149.664 C 40.133 143.801, 40.986 143.280, 45.928 142.695 C 52.918 141.867, 62.740 137.202, 68.316 132.063 C 76.676 124.357, 79.422 112.185, 75.585 99.852 C 74.230 95.498, 73.974 91.051, 74.210 76 L 74.500 57.500 79 56.954 C 83.490 56.409, 87.161 54.904, 90.001 52.441 C 91.234 51.373, 92.664 51.375, 98.001 52.457 C 101.576 53.181, 106.218 54.076, 108.317 54.445 C 111.873 55.070, 112.368 55.605, 115.567 62.280 C 117.455 66.220, 119 70.528, 119 71.853 C 119 74.072, 118.705 74.216, 115.250 73.687 C 113.188 73.371, 105.926 70.275, 99.113 66.807 C 92.301 63.338, 86.272 60.328, 85.717 60.118 C 85.069 59.873, 84.942 61.503, 85.362 64.671 C 86.427 72.700, 86.151 110.840, 84.964 119.500 C 82.441 137.923, 77.734 150.775, 68.163 165.378 C 62.053 174.702, 61.316 179, 65.829 179 C 73.706 179, 100.372 153.593, 108.309 138.526 C 110.136 135.057, 110.523 132.079, 111.107 117 C 111.858 97.611, 113.310 90.923, 117.881 85.808 C 123.313 79.728, 128.089 84.296, 130.151 97.545 C 131.327 105.096, 129.905 119.400, 127.309 126.147 C 126.127 129.216, 125.613 133.744, 125.567 141.500 C 125.504 151.826, 125.692 152.906, 128.638 159.123 C 135.020 172.593, 144.456 179.294, 157.041 179.294 C 162.817 179.294, 164.996 178.772, 170.230 176.135 C 173.679 174.397, 178.176 171.480, 180.225 169.653 L 183.951 166.331 182.525 156.915 C 179.444 136.577, 175.783 132.966, 166.442 141.050 C 163.868 143.278, 161.028 144.966, 160.131 144.800 C 159.234 144.635, 157.393 142.265, 156.039 139.533 C 153.224 133.850, 152.781 125.956, 154.781 117.114 C 157.532 104.953, 155.750 85.309, 150.676 71.857 C 148.314 65.595, 143.475 57.133, 142.117 56.889 C 141.778 56.828, 139.025 56.594, 136 56.369 C 132.975 56.144, 126.675 55.182, 122 54.230 L 113.500 52.500 109.523 44.810 C 107.336 40.581, 105.897 36.769, 106.327 36.340 C 107.976 34.690, 121.171 34.771, 128.325 36.475 C 142.916 39.949, 157 48.790, 157 54.474 C 157 55.799, 156.550 57.160, 156 57.500 C 154.556 58.393, 154.771 60, 156.335 60 C 158.505 60, 173.382 44.641, 176.009 39.688 C 179.052 33.953, 178.136 30.330, 172.989 27.752 C 168.498 25.501, 155.221 25.433, 134.106 27.551 C 122.919 28.673, 117.890 28.809, 115.707 28.048 C 111.657 26.636, 104.679 26.721, 103.200 28.200 C 102.540 28.860, 102 30.632, 102 32.137 C 102 33.664, 100.876 36.118, 99.459 37.687 C 98.061 39.234, 95.466 42.223, 93.692 44.329 L 90.466 48.159 74.483 45.132 C 65.692 43.467, 57.150 41.969, 55.500 41.802 C 51.112 41.360, 51.746 39.004, 57.239 35.333 C 62.621 31.736, 73.080 29, 81.447 29 C 85.577 29, 87 28.636, 87 27.580 C 87 26.421, 84.567 26.176, 73.750 26.245 C 66.463 26.291, 56.290 26.691, 51.144 27.134 M 147.500 29.188 C 138.682 30.152, 114.432 30.569, 108.500 29.859 C 106.051 29.566, 105.444 29.896, 105.193 31.658 C 104.906 33.670, 105.141 33.756, 108.693 32.932 C 123.860 29.411, 150.905 38.832, 158.279 50.204 L 160.765 54.038 166.044 48.269 C 175.256 38.203, 177.090 33.373, 172.750 30.617 C 169.654 28.652, 158.289 28.008, 147.500 29.188 M 48.500 30.128 C 35.759 31.342, 29.376 33.571, 24.401 38.546 C 18.740 44.207, 17.479 49.747, 18.518 64.396 C 19.569 79.218, 19.582 90.658, 18.575 114 C 17.028 149.848, 21.101 160.083, 32.192 148.225 C 34.649 145.599, 37.480 142.197, 38.483 140.666 C 39.731 138.761, 40.543 138.261, 41.051 139.082 C 42.158 140.874, 49.783 139.704, 56.226 136.754 C 63.033 133.638, 69.466 127.945, 72.256 122.568 C 75.007 117.267, 75.187 106.615, 72.649 99.253 C 71.104 94.769, 70.889 91.335, 71.171 75.654 C 71.542 54.963, 71.849 54, 78.075 54 C 81.943 54, 87 52.281, 87 50.966 C 87 50.307, 65.764 46.017, 54.713 44.443 L 49.927 43.762 50.501 54.631 C 50.816 60.609, 51.607 67.750, 52.258 70.500 C 52.908 73.250, 53.443 80.675, 53.445 87 C 53.454 108.017, 47.185 123.785, 41.200 117.800 C 39.584 116.184, 39.708 101.448, 41.414 92.500 C 42.147 88.650, 43.757 82.800, 44.991 79.500 C 47.923 71.657, 48.592 62.736, 47.012 52.575 L 45.733 44.356 49.190 39.442 C 51.497 36.162, 54.406 33.609, 57.938 31.764 C 63.941 28.628, 64.050 28.646, 48.500 30.128 M 100.297 40.562 C 99.309 41.972, 97.476 44.413, 96.225 45.986 L 93.950 48.848 99.725 49.963 C 102.901 50.577, 106.524 51.297, 107.775 51.565 C 109.980 52.036, 109.940 51.831, 106.513 45.025 C 104.567 41.161, 102.777 38, 102.534 38 C 102.292 38, 101.285 39.153, 100.297 40.562 M 116 56.410 C 116 56.636, 117.350 59.673, 118.999 63.160 C 126.344 78.687, 119.807 80.756, 98.500 69.651 L 88.500 64.439 88.500 90.969 C 88.500 119.307, 87.787 126.056, 83.268 140.500 C 80.311 149.952, 76.504 157.763, 70.325 167.054 C 67.848 170.780, 65.973 174.585, 66.160 175.510 C 67.040 179.863, 90.661 159.342, 100.271 145.874 C 107.642 135.543, 108.132 133.763, 108.469 116.076 C 108.767 100.467, 109.850 94.053, 113.324 87.338 C 115.258 83.600, 119.543 80, 122.058 80 C 125.550 80, 129.923 84.926, 131.623 90.776 C 133.748 98.085, 133.033 119.200, 130.430 126 C 127.921 132.556, 127.386 146.376, 129.376 153.222 C 132.737 164.783, 141.503 173.850, 151.477 176.082 C 159.196 177.810, 166.279 176.098, 174.310 170.565 L 180.500 166.300 180.221 161.400 C 179.567 149.934, 176.393 140, 173.383 140 C 172.522 140, 169.958 141.592, 167.686 143.537 C 162.866 147.662, 159.598 148.741, 157.414 146.929 C 155.040 144.959, 152.377 139.131, 150.984 132.860 C 149.893 127.951, 149.968 126.264, 151.561 119.860 C 153.855 110.639, 153.870 94.302, 151.594 84.500 C 148.536 71.334, 142.236 58.312, 139.443 59.384 C 138.657 59.685, 133.199 59.047, 127.314 57.966 C 115.316 55.761, 116 55.856, 116 56.410 M 46.709 83.219 C 42.505 95.997, 41.017 116.783, 44.383 115.728 C 44.997 115.535, 46.554 112.255, 47.841 108.439 C 50.397 100.865, 51.940 81.406, 50.317 77.219 C 49.557 75.257, 49.052 76.097, 46.709 83.219" stroke="none" fill="black" fill-rule="evenodd"/>
</svg>