<svg xmlns="http://www.w3.org/2000/svg" width="200" height="200" viewBox="0 0 200 200" version="1.1">
	<path d="M 155.500 26.377 C 145.962 30.168, 131.881 32.227, 117.295 31.963 C 110.258 31.836, 101.874 32.225, 98.665 32.827 C 91.490 34.174, 81.936 33.107, 63 28.844 C 47.689 25.396, 37.695 24.758, 33.568 26.965 C 28.150 29.862, 28 30.963, 28.003 67.700 C 28.004 86.290, 27.507 109.741, 26.899 119.813 C 26.290 129.885, 26.064 138.397, 26.396 138.729 C 29.048 141.381, 29.766 130.944, 30.596 77.679 C 31.385 27.020, 31.011 29.204, 39.058 28.297 C 43.430 27.804, 49.183 28.711, 71.387 33.391 L 82.274 35.686 75.990 36.343 C 72.534 36.704, 66.398 37, 62.353 37 L 55 37 54.985 57.250 C 54.950 105.936, 50.568 132.370, 38.702 155.496 C 32.525 167.533, 22.609 178.785, 20.876 175.722 C 19.609 173.483, 21.187 165.473, 25.049 154.542 C 27.718 146.986, 27.929 145, 26.062 145 C 25.612 145, 23.591 149.971, 21.573 156.048 C 18.712 164.660, 17.969 168.352, 18.202 172.798 C 18.487 178.250, 18.626 178.514, 21.368 178.828 C 23.728 179.098, 25.162 178.199, 29.465 173.757 C 41.437 161.397, 50.104 140.681, 54.466 114 C 56.533 101.358, 58.374 65.263, 57.660 51.384 L 57.088 40.268 62.294 39.643 C 65.157 39.299, 83.375 39.013, 102.778 39.009 L 138.056 39 133.088 45.481 C 130.356 49.046, 127.756 52.599, 127.310 53.377 C 126.180 55.350, 73.775 56.175, 71.850 54.250 C 69.820 52.220, 68 52.811, 68 55.500 C 68 57.046, 68.568 58, 69.487 58 C 71.525 58, 77.513 70.204, 80.098 79.624 C 81.575 85.009, 82.090 89.247, 81.807 93.695 C 81.452 99.261, 80.997 100.465, 78.181 103.280 C 75.342 106.119, 74.313 106.501, 69.481 106.511 C 66.467 106.517, 64.001 106.855, 64.001 107.261 C 64 107.667, 64 108.419, 64 108.930 C 64 109.442, 64.996 110.005, 66.214 110.180 C 69.117 110.599, 75.490 119.106, 77.035 124.623 C 78.818 130.993, 77.862 139.719, 74.664 146.254 C 73.138 149.373, 67.558 156.711, 62.026 162.873 C 56.578 168.941, 51.643 174.798, 51.060 175.887 C 49.596 178.622, 49.733 181.684, 51.346 182.303 C 56.703 184.358, 87.046 163.756, 94.498 153.003 C 96.063 150.745, 98.306 145.001, 99.662 139.780 C 105.211 118.416, 112.964 110.135, 120.274 117.764 C 125.686 123.413, 128.279 137.370, 125.985 148.500 C 121.790 168.849, 123.662 181.703, 131.212 184.394 C 132.591 184.885, 134.934 184.982, 136.419 184.610 C 140.792 183.512, 147.734 176.286, 151.222 169.201 C 154.026 163.504, 154.493 161.411, 154.830 153.021 C 155.179 144.346, 154.945 142.703, 152.489 136.564 C 150.029 130.417, 149.878 129.350, 150.956 125.751 C 152.798 119.604, 158.381 114.453, 169 109.102 C 181.881 102.611, 181.589 101.500, 167 101.500 L 155.500 101.500 153.185 97 C 149.925 90.665, 150.559 84.301, 155.431 74.443 C 160.229 64.735, 170.760 53.472, 174.059 54.519 C 175.942 55.116, 176.110 54.916, 175.463 52.849 C 175.059 51.557, 173.643 48.032, 172.316 45.016 C 170.989 42, 170.262 39.412, 170.702 39.264 C 174.870 37.867, 178.635 35.049, 179.441 32.725 C 180.266 30.348, 180.018 29.563, 177.713 27.258 C 173.838 23.384, 164.011 22.994, 155.500 26.377 M 166.500 26.522 C 165.950 26.695, 163.713 27.137, 161.529 27.505 C 158.033 28.094, 157.794 28.298, 159.529 29.218 C 160.613 29.793, 162.935 31.616, 164.689 33.269 C 167.350 35.777, 168.411 36.168, 171.094 35.631 C 179.538 33.942, 178.856 28.361, 170 26.682 C 168.625 26.421, 167.050 26.349, 166.500 26.522 M 149.003 33.215 L 145.506 35.500 150.503 36.162 C 153.251 36.527, 157.515 36.864, 159.977 36.912 L 164.455 37 161.924 34.469 C 158.304 30.849, 153.358 30.369, 149.003 33.215 M 136.500 33.691 C 131.714 34.687, 125.704 35.010, 117.500 34.711 C 110.900 34.471, 104.375 34.618, 103 35.038 C 101.625 35.457, 109.654 35.845, 120.842 35.900 C 139.755 35.993, 141.363 35.859, 143.727 34 C 146.633 31.714, 146.103 31.691, 136.500 33.691 M 137.896 43.868 C 135.468 46.645, 132.672 50.285, 131.684 51.958 C 129.895 54.987, 129.897 55, 132.193 55.015 C 133.462 55.024, 135.175 55.483, 136 56.036 C 137.280 56.893, 137.154 57.331, 135.139 59.020 C 133.841 60.109, 131.996 61, 131.039 61 C 129.503 61, 129.355 61.853, 129.771 68.329 C 130.318 76.863, 128.613 83.846, 123.505 93.990 C 115.491 109.903, 107.396 111.553, 110.022 96.738 C 111.740 87.046, 114.657 78.400, 119.945 67.328 L 124.802 57.157 100.151 57.713 C 86.593 58.019, 75.394 58.353, 75.264 58.454 C 75.134 58.556, 76.574 62.432, 78.463 67.069 C 84.649 82.251, 86.184 91.197, 83.970 99.168 C 82.830 103.272, 77.001 109, 73.965 109 C 71.386 109, 71.454 109.346, 75.073 114.606 C 79.717 121.356, 81.345 127.115, 80.740 134.656 C 80.004 143.824, 75.800 151.715, 65.876 162.552 C 56.937 172.314, 51.710 179.044, 52.473 179.807 C 54.216 181.549, 76.241 167.349, 86.585 157.815 C 92.767 152.117, 94.653 148.626, 97.400 137.796 C 100.328 126.252, 103.708 119.342, 108.471 115.160 C 113.147 111.054, 116.821 111.026, 121.416 115.060 C 129.049 121.763, 131.370 137.190, 127.561 155.905 C 124.532 170.784, 127.262 182.010, 133.905 181.993 C 139.567 181.979, 147.307 173.499, 150.663 163.632 C 153.116 156.423, 152.883 145.062, 150.138 138 C 144.998 124.772, 149.835 115.661, 166.500 107.182 L 172.500 104.130 163.567 104.315 L 154.633 104.500 151.567 99.578 C 149.010 95.475, 148.500 93.634, 148.500 88.503 C 148.500 83.290, 149.139 81.061, 152.680 73.925 C 156.681 65.859, 164.345 56.415, 169.900 52.705 L 172.299 51.102 169.400 45.421 L 166.500 39.739 154.406 39.280 L 142.312 38.821 137.896 43.868 M 128 58 C 128 58.550, 128.477 59, 129.059 59 C 129.641 59, 129.840 58.550, 129.500 58 C 129.160 57.450, 128.684 57, 128.441 57 C 128.198 57, 128 57.450, 128 58 M 121.001 71.377 C 115.108 84.131, 110.204 104, 112.949 104 C 115.370 104, 122.275 91.921, 125.524 82.004 C 127.627 75.582, 128.031 65.631, 126.259 63.859 C 125.298 62.898, 124.179 64.497, 121.001 71.377" stroke="none" fill="black" fill-rule="evenodd"/>
</svg>