<svg xmlns="http://www.w3.org/2000/svg" width="200" height="200" viewBox="0 0 200 200" version="1.1">
	<path d="M 91.290 26.897 C 87.770 29.118, 84 35.545, 84 39.327 C 84 41.005, 82.853 42.493, 80.214 44.240 C 78.132 45.618, 71.944 50.754, 66.464 55.655 C 42.346 77.220, 32.792 84.292, 25.912 85.668 L 22.592 86.332 24.853 83.416 C 30.190 76.535, 38.084 63.850, 42.227 55.500 C 48.012 43.837, 54.528 27.195, 53.652 26.318 C 52.502 25.169, 51.382 27.108, 47.480 37 C 40.281 55.254, 29.878 73.595, 21.402 82.977 C 18.353 86.352, 17.905 87.327, 19.065 88.061 C 25.232 91.964, 37.720 84.856, 60.500 64.479 C 67.100 58.575, 74.750 51.945, 77.500 49.745 L 82.500 45.746 83.682 55.214 C 84.331 60.422, 85.596 67.512, 86.492 70.970 L 88.121 77.257 84.948 85.128 C 82.609 90.931, 81.294 93, 79.947 93 C 77.403 93, 76.617 94.686, 78.633 95.815 C 81.676 97.518, 79.335 99.537, 70.863 102.517 C 60.269 106.243, 49.429 106.472, 41.213 103.142 C 38.305 101.964, 34.773 101, 33.363 101 C 29.819 101, 24.486 106.605, 22.840 112.060 C 19.977 121.547, 22.238 184, 25.444 184 C 26.096 184, 27.356 182.477, 28.243 180.616 C 32.642 171.391, 40.971 166.244, 49.806 167.291 C 52.442 167.603, 59.569 169.465, 65.644 171.429 C 80.071 176.093, 85.044 176.156, 89.467 171.733 C 93.218 167.982, 94.283 164.056, 96.102 147.282 C 97.492 134.472, 96.288 119.745, 93.074 110.224 C 92.015 107.086, 91.298 104.369, 91.481 104.186 C 92.251 103.415, 97.957 107.160, 100.355 110.010 C 105.755 116.427, 106.077 124.544, 101.469 138.092 C 94.919 157.348, 98.408 171.881, 111.409 179.500 C 117.918 183.314, 127.614 185.089, 141.839 185.071 C 154.266 185.055, 172.805 183.357, 174.938 182.038 C 177.304 180.576, 180.323 169.389, 180.751 160.500 C 181.147 152.286, 180.977 151.195, 178.810 148 C 175.474 143.084, 170.139 142.668, 164.336 146.872 C 159.953 150.047, 153.057 158.522, 148.569 166.250 C 147.052 168.862, 145.449 171.222, 145.008 171.495 C 143.752 172.271, 133.951 162.985, 130.822 158.054 C 126.725 151.600, 127.009 147.633, 131.900 142.980 C 135.689 139.376, 140.550 137.069, 159.081 130.080 C 173.486 124.648, 176.145 120.813, 170.573 113.507 C 162.849 103.380, 153.804 105.164, 137.538 120.022 C 132.734 124.410, 128.398 128, 127.902 128 C 127.406 128, 127.004 127.213, 127.009 126.250 C 127.017 124.742, 130.470 108.726, 132.471 100.916 C 133.082 98.531, 132.677 98.128, 127.183 95.663 C 122.605 93.608, 113.236 91, 110.434 91 C 110.272 91, 111.213 88.360, 112.524 85.133 C 117.772 72.217, 120.784 47.009, 117.848 40.566 C 113.983 32.083, 105.848 39.858, 95.162 62.250 C 92.603 67.612, 90.217 72, 89.859 72 C 88.867 72, 85.996 55.180, 85.998 49.389 L 86 44.277 93.250 41.245 C 103.394 37.002, 107.534 36.009, 115 36.028 C 129.265 36.063, 133.214 40.193, 145.084 67.491 C 151.700 82.703, 157.767 87.808, 168.067 86.827 C 171.068 86.541, 171.815 85.871, 174 81.500 C 177.360 74.780, 177.511 63.495, 174.321 57.475 C 167.665 44.910, 142.387 32, 124.443 32 C 120.585 32, 117.543 31.175, 112.893 28.868 C 104.593 24.750, 95.945 23.961, 91.290 26.897 M 95.419 28.166 C 93.724 28.608, 91.544 29.847, 90.574 30.919 C 88.967 32.694, 85.831 40.143, 86.431 40.759 C 86.570 40.901, 89.961 39.666, 93.966 38.014 C 97.971 36.362, 104.139 34.427, 107.671 33.713 L 114.093 32.415 110.387 30.647 C 105.316 28.229, 99.116 27.201, 95.419 28.166 M 130.134 37.445 C 135.080 40.806, 139.910 48.450, 145.477 61.727 C 152.812 79.222, 157.215 84, 166.001 84 C 169.786 84, 170.226 83.711, 171.715 80.250 C 174.164 74.558, 174.552 65.734, 172.580 60.570 C 170.446 54.983, 162.190 47.134, 154.208 43.105 C 147.892 39.917, 132.391 35, 128.656 35 C 126.899 35, 127.152 35.419, 130.134 37.445 M 109.587 43.079 C 104.033 49.680, 91.853 73.295, 91.784 77.596 C 91.765 78.749, 92.993 82.462, 94.512 85.846 C 96.941 91.261, 97.609 92, 100.071 92 C 105.871 92, 107.570 90.534, 110.298 83.176 C 113.801 73.723, 116 61.499, 116 51.471 C 116 39.124, 114.532 37.203, 109.587 43.079 M 86.739 88.129 C 85.235 91.860, 84.537 94.881, 85.055 95.420 C 85.744 96.136, 92.754 94.721, 94.773 93.457 C 94.924 93.363, 93.756 90.693, 92.178 87.522 L 89.308 81.759 86.739 88.129 M 104.930 96.116 C 102.733 97.831, 101.978 97.947, 99.722 96.919 C 97.650 95.975, 96.107 95.990, 92.542 96.988 C 87.808 98.314, 86.763 99.672, 89.750 100.616 C 94.879 102.238, 99.127 104.523, 101.374 106.869 C 107.856 113.637, 109.006 125.201, 104.469 138 C 103.006 142.125, 101.576 148.650, 101.289 152.500 C 100.555 162.365, 102.177 167.463, 107.859 173.145 C 114.774 180.060, 123.147 182.405, 141 182.427 C 148.425 182.437, 158.887 181.837, 164.250 181.094 L 173.999 179.743 175.880 173.621 C 179.945 160.395, 179.439 150.644, 174.521 147.422 C 172.327 145.984, 171.813 145.995, 168.543 147.547 C 163.730 149.830, 156.716 157.820, 151.213 167.288 C 148.723 171.572, 146.375 175.268, 145.995 175.503 C 144.704 176.301, 132.366 165.268, 129.194 160.479 C 124.979 154.116, 124.304 150.090, 126.647 145.293 C 128.917 140.646, 135.376 136.174, 145.203 132.444 C 149.216 130.921, 155.425 128.559, 159 127.194 C 166.543 124.316, 171 121.448, 171 119.474 C 171 118.710, 169.270 116.265, 167.155 114.042 C 160.517 107.064, 154.209 108.812, 139.997 121.564 C 135.324 125.757, 130.475 129.674, 129.223 130.267 C 124.034 132.725, 123.491 126.676, 127.449 110.500 C 130.310 98.805, 130.486 99.157, 120.159 95.967 C 112.206 93.511, 108.219 93.550, 104.930 96.116 M 82.500 101 C 81.718 102.266, 83.042 102.266, 85 101 C 86.293 100.165, 86.266 100.029, 84.809 100.015 C 83.879 100.007, 82.840 100.450, 82.500 101 M 69.527 105.720 C 60.453 108.892, 49.874 109.028, 41.484 106.079 C 38.231 104.936, 34.581 104, 33.374 104 C 30.055 104, 26.302 109.227, 24.952 115.730 C 23.413 123.147, 23.444 142.474, 25.028 161.652 L 26.279 176.804 31.390 171.579 C 35.310 167.571, 37.647 166.066, 41.425 165.118 C 47.475 163.601, 51.417 164.182, 65.497 168.668 C 84.752 174.803, 88.693 173.561, 91.514 160.471 C 95.111 143.777, 94.384 121.446, 89.847 109.322 C 88.179 104.864, 87.455 104, 85.383 104 C 83.963 104, 81.833 105.172, 80.384 106.750 C 78.995 108.263, 77.028 110.400, 76.012 111.500 C 72.819 114.959, 71.723 121.577, 72.450 133 C 73.020 141.944, 72.824 144.445, 71.125 149.877 C 67.655 160.973, 61.191 165.029, 55.924 159.417 C 53.741 157.091, 53.501 155.972, 53.513 148.167 C 53.524 140.476, 53.883 138.768, 56.701 133 C 59.923 126.404, 61.153 124.639, 71.062 112.381 C 77.331 104.626, 78.472 102.938, 77.309 103.141 C 76.864 103.218, 73.362 104.379, 69.527 105.720 M 66.176 122.603 C 61.745 127.979, 58.225 134.960, 56.447 141.901 C 54.190 150.710, 56.152 159, 60.495 159 C 65.599 159, 70.329 148.689, 69.900 138.500 C 69.761 135.200, 69.614 129.462, 69.574 125.749 C 69.533 122.036, 69.420 118.999, 69.323 118.999 C 69.225 119, 67.809 120.621, 66.176 122.603" stroke="none" fill="black" fill-rule="evenodd"/>
</svg>