<svg xmlns="http://www.w3.org/2000/svg" width="200" height="200" viewBox="0 0 200 200" version="1.1">
	<path d="M 127.500 18.120 C 122 19.192, 111.291 21.404, 103.703 23.035 C 96.114 24.666, 88.164 26, 86.036 26 C 83.908 26, 82.017 26.450, 81.833 26.999 C 81.650 27.549, 78.450 28.871, 74.722 29.937 C 68.828 31.622, 67.524 31.701, 64.722 30.546 C 57.674 27.639, 45.890 25.755, 37.505 26.195 C 27.195 26.736, 20.905 29.636, 16.525 35.868 C 13.993 39.471, 13.475 41.265, 13.159 47.530 C 12.921 52.240, 13.420 57.767, 14.530 62.717 C 16.059 69.535, 16.166 72.980, 15.394 90.500 C 14.909 101.500, 14.515 117.700, 14.517 126.500 C 14.520 141.154, 14.709 142.855, 16.764 146.717 C 17.997 149.036, 19.875 151.398, 20.938 151.967 C 25.530 154.424, 37.316 151.731, 38.516 147.950 C 39.592 144.559, 44.821 141.222, 55.725 136.967 C 68.784 131.871, 75.533 128.541, 79.453 125.259 L 82.407 122.787 84.127 130.784 C 86.955 143.931, 91.806 151, 98 151 C 107.597 151, 114.929 131.126, 108.727 121.924 C 106.588 118.748, 104.156 117.033, 99.500 115.415 C 95.775 114.120, 104.073 113.048, 109.258 114.154 C 120.224 116.493, 124.564 127.737, 120.508 143.307 C 117.560 154.628, 112.045 162.768, 108.034 161.719 C 104.388 160.766, 104.776 162.932, 109.415 169.433 C 117.443 180.684, 125.961 186.231, 132.637 184.555 C 139.450 182.845, 145.874 171.532, 149.133 155.500 C 150.477 148.891, 150.918 125.985, 149.780 121.946 L 149.060 119.392 161.280 117.136 C 174.770 114.646, 180 112.835, 180 110.655 C 180 108.774, 178.395 108.203, 166.899 105.995 C 156.636 104.024, 150 101.717, 150 100.119 C 150 98.774, 154.979 95.339, 160.415 92.935 C 162.891 91.839, 165.168 90.537, 165.475 90.041 C 166.470 88.431, 164.218 87.943, 161.503 89.180 C 155.746 91.804, 155.898 85.211, 162.128 62.157 C 169.194 36.010, 169.514 29.608, 163.856 27.618 C 160.368 26.392, 154.484 29.272, 145.736 36.488 C 142.060 39.520, 138.816 42, 138.527 42 C 138.237 42, 138 41.306, 138 40.457 C 138 37.992, 128.854 28.746, 127.628 29.972 C 126.913 30.687, 127.860 32.323, 130.688 35.254 C 136.156 40.920, 136.793 43.298, 133.677 46.414 C 129.770 50.320, 119.412 52.525, 99.736 53.637 C 87.972 54.302, 85.909 54.867, 88.261 56.783 C 89.942 58.152, 102.456 59.997, 110.192 60.015 C 113.661 60.024, 117.065 60.389, 117.755 60.827 C 118.636 61.387, 115.964 64.934, 108.755 72.772 L 98.500 83.920 93.500 83.952 C 90.750 83.970, 85.618 83.517, 82.097 82.946 C 77.788 82.247, 75.363 82.237, 74.684 82.916 C 73.183 84.417, 77.501 85.745, 86.947 86.687 L 95.094 87.500 88.047 95.384 C 82.592 101.487, 81 103.955, 81 106.308 L 81 109.349 78.581 107.076 C 75.410 104.097, 72.457 97.074, 70.981 89 C 68.990 78.106, 71.362 58.576, 76.480 43.728 L 78.815 36.956 75.657 35.288 L 72.500 33.620 79 31.645 C 85.057 29.805, 86.385 29.754, 98.500 30.895 C 105.650 31.568, 112.287 32.348, 113.250 32.627 C 114.367 32.951, 115 32.590, 115 31.629 C 115 30.586, 113.538 29.930, 110.250 29.498 C 102.548 28.485, 102.179 28.239, 108.178 28.116 C 116.279 27.950, 128.698 26.165, 134.281 24.362 C 139.011 22.835, 145 18.672, 145 16.911 C 145 15.520, 138.556 15.965, 127.500 18.120 M 123 21.965 C 114.838 23.660, 110.931 24.814, 113.119 24.884 C 118.305 25.050, 133.738 22.210, 136.856 20.516 C 140.509 18.532, 138.533 18.738, 123 21.965 M 27.500 30.502 C 21.586 32.593, 17.423 37.647, 16.011 44.448 C 14.981 49.409, 15.112 51.494, 17.041 60.817 C 19.087 70.710, 19.186 72.831, 18.375 89.500 C 17.894 99.400, 17.500 115.375, 17.500 125 C 17.500 144.050, 18.400 147.858, 23.446 150.158 C 26.286 151.451, 36 148.639, 36 146.523 C 36 145.799, 37.494 143.896, 39.319 142.293 C 42.465 139.531, 44.838 138.406, 63.168 130.986 C 70.892 127.859, 80 122.474, 80 121.035 C 80 120.607, 77.135 113.787, 73.634 105.879 C 70.132 97.971, 63.117 81.713, 58.045 69.750 C 52.972 57.788, 48.637 48, 48.411 48 C 48.185 48, 48 50.025, 48 52.500 C 48 56.023, 48.360 57, 49.657 57 C 51.162 57, 51.254 58.590, 50.656 74.250 C 49.995 91.570, 47.924 109.644, 45.896 115.805 C 45.159 118.046, 44.276 119.005, 43.154 118.784 C 41.702 118.497, 41.510 116.693, 41.585 103.979 C 41.632 96.015, 42.419 83.946, 43.335 77.158 C 45.819 58.743, 45.851 58.937, 39.959 56.174 C 34.245 53.494, 32.812 50.462, 35.396 46.518 C 37.077 43.952, 50.324 37.079, 57.750 34.919 C 60.088 34.240, 62 33.341, 62 32.922 C 62 31.446, 48.005 29.001, 39.803 29.044 C 35.236 29.068, 29.700 29.724, 27.500 30.502 M 157.263 31.622 C 151.342 34.577, 126 56.951, 126 59.223 C 126 59.650, 126.650 60, 127.444 60 C 128.239 60, 130.095 61.038, 131.569 62.306 C 138.867 68.583, 131.024 78.067, 114.130 83.396 L 106.760 85.721 114.433 86.862 C 118.653 87.490, 123.353 88.648, 124.876 89.436 C 133.296 93.790, 131.090 98.080, 115.650 107.370 L 109.801 110.890 113.166 112.296 C 118.373 114.472, 122.641 120.036, 124.098 126.549 C 126.516 137.354, 121.245 155.260, 113.494 162.571 L 110.021 165.846 113.968 170.840 C 119.297 177.582, 124.112 181.071, 128.989 181.725 C 132.732 182.227, 133.352 181.956, 136.845 178.284 C 141.323 173.577, 145.195 162.923, 147.032 150.259 C 148.540 139.863, 147.986 121.893, 146.087 119.605 C 145.332 118.696, 144.892 117.798, 145.107 117.610 C 145.323 117.422, 150.900 116.289, 157.500 115.093 C 164.100 113.896, 171.075 112.408, 173 111.786 C 176.409 110.685, 176.214 110.599, 165.497 108.481 C 153.087 106.029, 148 103.870, 148 101.056 C 148 97.787, 149.090 96.107, 152.634 93.917 C 155.413 92.200, 155.933 91.384, 155.357 89.647 C 153.979 85.498, 155.002 78.852, 160.024 59.309 C 166.984 32.226, 166.465 27.028, 157.263 31.622 M 56.048 38.531 C 38.890 44.760, 33.218 49.993, 39.888 53.442 C 41.545 54.299, 43.315 55, 43.821 55 C 44.327 55, 45.047 52.300, 45.420 49 C 46.099 43, 47.506 41.466, 49.773 44.250 C 50.333 44.938, 54.286 53.825, 58.557 64 C 62.829 74.175, 66.588 82.812, 66.912 83.194 C 67.235 83.576, 67.617 80.201, 67.759 75.694 C 68.066 66.007, 70.229 53.555, 73.006 45.481 C 75.532 38.141, 75.553 38.337, 72.050 36.526 C 68.033 34.449, 66.903 34.590, 56.048 38.531 M 119 54.536 C 115.425 55.222, 109.800 55.898, 106.500 56.038 C 101.366 56.255, 102.069 56.429, 111.376 57.247 L 122.251 58.203 124.853 55.602 C 126.284 54.171, 127.015 53.065, 126.477 53.144 C 125.940 53.222, 122.575 53.849, 119 54.536 M 112.417 72.666 L 102.526 83.331 106.795 82.649 C 117.429 80.948, 132 72.323, 132 67.727 C 132 65.612, 127.281 62, 124.519 62 C 122.993 62, 119.240 65.308, 112.417 72.666 M 46.765 72 C 46.361 76.125, 45.589 82.650, 45.048 86.500 C 43.813 95.295, 43.799 112.647, 45.032 106.500 C 46.414 99.607, 48.195 76.773, 47.840 70.500 L 47.500 64.500 46.765 72 M 91.238 95.804 C 85.141 102.557, 84 104.376, 84 107.343 C 84 110.033, 84.492 111.021, 86.082 111.526 C 89.438 112.591, 102.120 110.969, 106.991 108.852 C 116.060 104.909, 127 97.026, 127 94.434 C 127 92.173, 117.955 89.662, 105.488 88.463 L 98.476 87.788 91.238 95.804 M 80.177 114.001 C 81.101 116.595, 81.523 117.017, 81.808 115.632 C 82.019 114.604, 81.458 113.030, 80.561 112.133 C 79.053 110.625, 79.024 110.766, 80.177 114.001 M 86.750 118.639 C 84.643 119.250, 84.651 119.001, 86.422 128.259 C 88.909 141.253, 92.866 148, 98 148 C 104.340 148, 110.675 134.606, 108.070 126.712 C 106.085 120.699, 102.841 118.590, 95.201 118.346 C 91.516 118.228, 87.713 118.360, 86.750 118.639" stroke="none" fill="black" fill-rule="evenodd"/>
</svg>