<svg xmlns="http://www.w3.org/2000/svg" width="200" height="200" viewBox="0 0 200 200" version="1.1">
	<path d="M 87.500 14.892 C 80.940 16.583, 76.869 19.810, 61.417 35.566 C 49.676 47.537, 44.074 52.522, 40.667 54.029 C 38.100 55.165, 36 56.291, 36 56.533 C 36 56.775, 37.574 57.631, 39.498 58.435 C 47.983 61.980, 46.392 67.876, 31.532 87.957 C 25.880 95.594, 20.974 102.968, 20.629 104.342 C 18.724 111.930, 25.783 112.882, 44.103 107.506 C 48.721 106.151, 54.889 105.033, 57.808 105.021 C 65.085 104.992, 76.901 106.913, 80.340 108.682 C 83.058 110.081, 83.105 110.226, 81.453 112.052 C 77.394 116.537, 52.050 123.778, 40 123.895 C 29.027 124.002, 21 125.106, 21 126.510 C 21 128.712, 23.698 128.980, 34.763 127.875 C 51.797 126.174, 55.466 126.729, 58.576 131.475 C 60.151 133.879, 60.150 134.320, 58.554 138.499 C 55.019 147.753, 36.416 164.461, 15.581 177.093 L 6.662 182.500 12.759 182.796 C 22.181 183.253, 29.733 180.750, 53 169.459 C 66.191 163.057, 76.273 158.783, 79.088 158.399 C 83.262 157.829, 83.871 158.021, 85.838 160.521 C 87.634 162.804, 87.994 164.559, 87.963 170.885 C 87.943 175.073, 87.331 181.579, 86.603 185.343 L 85.279 192.185 89.889 191.497 C 102.406 189.630, 109.977 182.296, 113.628 168.500 C 114.356 165.750, 115.255 157.762, 115.626 150.750 C 115.996 143.738, 116.605 138, 116.980 138 C 117.732 138, 126.330 151.089, 133.730 163.500 C 138.249 171.078, 138.790 171.601, 144 173.416 C 152.255 176.292, 164.269 176.160, 169.590 173.136 C 177.085 168.876, 178.824 162.780, 174.598 155.588 C 169.338 146.637, 155.644 140.556, 135.087 138.044 C 126.819 137.033, 123 135.251, 123 132.404 C 123 131.697, 123.563 130.754, 124.250 130.309 C 124.938 129.864, 137.875 129.257, 153 128.959 C 177.079 128.486, 180.954 128.189, 184.153 126.571 C 192.066 122.566, 190.798 115.955, 180.117 105.531 C 176.596 102.096, 174 98.700, 173.999 97.531 C 173.998 93.695, 168.325 83.368, 164.863 80.898 C 162.065 78.903, 160.323 78.506, 154.500 78.538 C 148.673 78.569, 146.453 79.105, 141.251 81.736 C 135.838 84.474, 134.595 84.755, 131.956 83.835 C 130.280 83.251, 129.067 82.298, 129.261 81.717 C 129.455 81.136, 133.413 79.477, 138.057 78.029 C 154.285 72.970, 162 67.034, 162 59.606 C 162 54.597, 159.976 51.031, 154.284 46.008 C 146.274 38.941, 133.417 33.215, 123.038 32.092 C 117.740 31.519, 117.526 31.378, 116.522 27.792 C 115.286 23.380, 113.563 21.280, 112.538 22.938 C 112.085 23.671, 110.599 23.067, 108.176 21.162 C 100.810 15.375, 93.835 13.259, 87.500 14.892 M 85.132 18.540 C 79.018 21.195, 72.627 26.692, 62.578 37.941 C 57.120 44.050, 50.488 50.701, 47.839 52.721 L 43.022 56.394 45.011 58.512 C 47.675 61.348, 47.613 67.868, 44.869 73.290 C 43.698 75.605, 39.045 82.450, 34.531 88.500 C 23.732 102.972, 23 104.107, 23 106.368 C 23 108.131, 23.558 108.243, 29.750 107.716 C 33.462 107.401, 40.325 105.918, 45 104.421 C 53.300 101.763, 53.764 101.724, 64.734 102.795 C 78.230 104.113, 85 106.616, 85 110.289 C 85 111.609, 84.197 113.417, 83.216 114.305 C 80.823 116.470, 71.870 120.348, 64.500 122.412 C 61.200 123.337, 57.902 124.296, 57.172 124.545 C 56.279 124.849, 56.852 125.846, 58.922 127.588 C 68.670 135.791, 56.308 152.921, 25.438 173.986 C 19.117 178.300, 17.264 180, 18.886 180 C 23.316 180, 36.229 174.896, 52.831 166.584 C 77.172 154.398, 82.928 153.101, 88.125 158.633 C 90.988 161.681, 91.816 171.492, 90.061 181.573 C 89.423 185.236, 89.119 188.452, 89.386 188.719 C 90.642 189.975, 99.968 185.616, 103.266 182.231 C 110.044 175.274, 112.939 164.723, 112.980 146.832 C 113.003 136.887, 113.493 135, 116.051 135 C 118.670 135, 123.003 140.564, 132.340 155.917 C 141.456 170.905, 142.253 171.508, 154.500 172.662 C 169.681 174.093, 178.081 166.205, 171.998 156.229 C 167.642 149.084, 152.708 142.883, 134.792 140.781 C 125.751 139.721, 124.635 139.355, 122.427 136.731 C 119.774 133.578, 119.352 131.048, 121.176 129.224 C 122.078 128.322, 121.961 127.614, 120.674 126.192 C 118.720 124.033, 119.376 123, 122.698 123 C 123.999 123, 125.351 122.249, 125.703 121.331 C 126.521 119.201, 123.738 86.003, 122.585 84.138 C 122.314 83.698, 119.491 82.757, 116.314 82.046 L 110.537 80.753 102.169 89.525 C 97.567 94.350, 93.509 97.893, 93.151 97.399 C 92.793 96.904, 89.884 94.738, 86.686 92.584 C 83.488 90.430, 79.296 86.830, 77.370 84.584 L 73.868 80.500 61.725 86.741 C 55.046 90.173, 49.226 92.626, 48.791 92.191 C 47.600 91, 64.570 80.137, 69.604 78.869 C 72.997 78.015, 74 77.298, 74 75.726 C 74 72.458, 81.196 66.491, 88.664 63.569 C 92.424 62.097, 100.675 59.853, 107 58.582 C 114.955 56.983, 118.590 55.818, 118.791 54.805 C 119.034 53.579, 115.563 53.177, 97.497 52.341 C 74.915 51.296, 72.058 50.618, 73.577 46.661 C 74.371 44.590, 84.946 39.416, 99.571 33.942 C 105.582 31.691, 110.857 29.504, 111.294 29.081 C 112.415 27.995, 104.580 21.167, 99.637 18.922 C 94.696 16.679, 89.722 16.548, 85.132 18.540 M 96 38.290 C 87.475 41.723, 79.469 45.255, 78.209 46.139 L 75.918 47.745 78.209 48.404 C 79.469 48.766, 88.938 49.342, 99.250 49.684 C 114.333 50.184, 118 50.050, 118 48.999 C 118 48.281, 116.861 45.284, 115.468 42.341 C 113.516 38.215, 113.172 36.546, 113.968 35.060 C 114.536 33.999, 115 32.877, 115 32.566 C 115 31.112, 110.320 32.522, 96 38.290 M 121.944 37.256 C 123.117 39.040, 125.900 43.763, 128.129 47.750 C 131.411 53.623, 132.638 55, 134.590 55 C 137.441 55, 137.719 56.973, 135.374 60.553 C 134.159 62.407, 133.422 62.765, 132.463 61.969 C 131.507 61.176, 130.237 61.731, 127.493 64.140 L 123.807 67.376 124.502 73.938 C 124.885 77.547, 125.367 80.676, 125.574 80.892 C 125.781 81.107, 126.749 80.381, 127.725 79.278 C 128.724 78.150, 132.562 76.493, 136.500 75.489 C 148.858 72.338, 157.759 66.840, 159.429 61.323 C 162.139 52.373, 142.644 38.010, 123.156 34.598 L 119.811 34.012 121.944 37.256 M 119 40.772 C 119 42.604, 124.888 50.446, 125.673 49.660 C 126.133 49.201, 120.144 39, 119.414 39 C 119.186 39, 119 39.797, 119 40.772 M 121.638 54.500 C 122.262 56.125, 123.281 56.300, 126.739 55.373 C 129.942 54.514, 128.495 53, 124.472 53 C 121.852 53, 121.196 53.347, 121.638 54.500 M 125.250 60.031 C 124.013 60.529, 123 61.639, 123 62.498 C 123 63.768, 123.560 63.646, 126 61.842 C 130.121 58.795, 129.865 58.176, 125.250 60.031 M 109.500 60.677 C 100.627 62.649, 90.819 65.452, 86.915 67.132 C 82.479 69.040, 76.109 74.443, 77.113 75.446 C 77.491 75.824, 106.909 64.492, 114.500 61.044 C 116.333 60.211, 116.291 60.139, 114 60.184 C 112.625 60.210, 110.600 60.432, 109.500 60.677 M 101.500 69.322 L 83.500 76.500 96.500 77.131 L 109.500 77.762 115.112 72.131 C 119.537 67.691, 120.595 66.039, 120.112 64.322 C 119.517 62.205, 119 62.344, 101.500 69.322 M 116.598 74.900 L 112.870 78.717 116.685 79.348 C 118.783 79.694, 120.962 79.983, 121.526 79.989 C 122.669 80.001, 122.240 72.266, 121.057 71.535 C 120.654 71.286, 118.648 72.801, 116.598 74.900 M 84.750 79.796 C 81.037 79.958, 78 80.429, 78 80.843 C 78 82.097, 85.234 88.602, 89.698 91.363 L 93.897 93.960 99.698 87.895 C 102.889 84.560, 105.638 81.455, 105.806 80.996 C 106.162 80.029, 94.548 79.366, 84.750 79.796 M 143.730 83.672 L 137.959 86.306 142.750 89.042 C 148.785 92.489, 155.573 99.781, 156.446 103.754 C 158.382 112.571, 148.521 120.506, 130.750 124.431 C 123.967 125.929, 129.572 126.487, 149.750 126.324 C 173.766 126.129, 179.299 125.732, 183.277 123.919 C 188.990 121.317, 187.903 117.722, 178.465 108 C 173.812 103.207, 171.845 100.320, 170.973 97.006 C 169.313 90.692, 166.508 85.545, 163.393 83.095 C 159.486 80.022, 151.194 80.265, 143.730 83.672 M 126.607 86.582 C 126.273 87.452, 126 88.352, 126 88.582 C 126 89.351, 128.483 88.981, 130 87.985 C 131.333 87.109, 131.333 86.891, 130 86.015 C 127.923 84.652, 127.308 84.754, 126.607 86.582 M 130.710 90.358 L 126.919 92.500 127.508 98.500 C 127.832 101.800, 128.187 108.435, 128.298 113.245 C 128.409 118.055, 128.814 121.992, 129.198 121.995 C 129.582 121.998, 133.522 120.855, 137.954 119.455 C 146.903 116.628, 154 111.144, 154 107.056 C 154 103.020, 150.870 98.074, 146.137 94.632 C 141.841 91.506, 135.496 87.856, 134.800 88.108 C 134.635 88.168, 132.794 89.181, 130.710 90.358" stroke="none" fill="black" fill-rule="evenodd"/>
</svg>