<svg xmlns="http://www.w3.org/2000/svg" width="200" height="200" viewBox="0 0 200 200" version="1.1">
	<path d="M 79.868 19.869 C 75.671 21.385, 69.425 24.300, 65.989 26.347 C 60.556 29.583, 59.333 29.947, 56.620 29.133 C 50.566 27.315, 38.026 25.737, 33.601 26.236 C 26.567 27.029, 21.911 29.976, 18.328 35.904 C 13.560 43.791, 12.562 51.759, 13.621 73.479 C 14.504 91.572, 14.565 104.073, 13.873 124.500 C 13.128 146.474, 19.205 156.082, 30.240 150.376 C 31.967 149.483, 37.488 145.947, 42.509 142.519 C 53.706 134.875, 59.653 133.077, 65.719 135.504 C 70.317 137.344, 70.979 139.071, 71.031 149.375 C 71.073 157.823, 72.667 169.466, 74.647 175.797 C 76.180 180.699, 79.759 185, 82.306 185 C 84.630 185, 91.720 175.987, 95 168.863 L 98.500 161.262 103.622 160.717 C 106.440 160.416, 110.584 159.232, 112.833 158.085 C 115.081 156.938, 117.327 156, 117.824 156 C 118.321 156, 119.490 157.995, 120.422 160.434 C 122.897 166.915, 129.276 176.348, 132.955 178.968 C 137.328 182.082, 142.142 183.005, 147.248 181.709 C 156.273 179.419, 166.489 164.957, 170.398 148.936 C 172.377 140.825, 172.470 127.007, 170.589 120.432 C 169.814 117.719, 168.441 111, 167.540 105.500 C 164.642 87.819, 161.967 84.770, 146.568 81.601 C 139 80.044, 136.004 79, 139.101 79 C 139.890 79, 142.170 77.890, 144.167 76.532 L 147.799 74.065 153.149 77.014 C 161.484 81.609, 167.961 81.055, 174.227 75.213 C 178.085 71.615, 179.379 67.120, 178.014 62.052 C 175.253 51.798, 163.861 45.167, 142.814 41.564 C 139.246 40.954, 139.092 40.750, 138.001 35.217 C 134.622 18.086, 131.737 14.311, 131.204 26.323 L 130.909 32.987 124.181 38.355 C 110.524 49.252, 102.271 60.580, 103.230 67.113 C 103.463 68.701, 103.291 70, 102.847 70 C 100.936 70, 85 63.476, 85 62.693 C 85 62.218, 89.275 53.806, 94.500 44 C 104.635 24.978, 105.688 21.296, 101.777 18.557 C 98.247 16.084, 88.776 16.651, 79.868 19.869 M 86.500 20.610 C 80.333 22.094, 64.918 29.189, 63.098 31.382 C 62.378 32.249, 62.757 33.958, 64.377 37.158 C 65.642 39.657, 67.222 45.080, 67.888 49.209 L 69.099 56.715 75.253 59.371 C 80.977 61.840, 81.479 61.905, 82.453 60.294 C 88.910 49.614, 100.915 25.883, 100.952 23.725 C 100.988 21.644, 100.359 20.707, 98.435 19.975 C 95.221 18.753, 93.934 18.822, 86.500 20.610 M 133.784 35.500 C 134.765 51.643, 144.472 69.629, 155.142 75.072 C 162.846 79.003, 171.947 76.764, 174.660 70.272 C 179.246 59.295, 167.959 49.022, 147.241 45.316 C 135.538 43.223, 136.013 43.434, 135.904 40.281 C 135.851 38.752, 135.243 35.250, 134.553 32.500 L 133.298 27.500 133.784 35.500 M 26.962 31.250 C 23.347 33.073, 21.930 34.639, 19.500 39.500 C 16.520 45.461, 16.500 45.611, 16.500 62.500 C 16.500 71.850, 16.725 86.250, 17 94.500 C 17.275 102.750, 17.105 114.675, 16.623 121 C 15.896 130.527, 16.031 133.608, 17.405 138.957 C 20.639 151.539, 23.515 151.893, 38.857 141.596 C 51.632 133.022, 55.221 131.605, 62.612 132.218 C 65.575 132.463, 68 132.477, 68 132.249 C 68 132.020, 67.028 128.158, 65.841 123.667 C 62.972 112.820, 62.743 98.095, 65.358 92.793 C 71.017 81.324, 83.141 77.300, 108.500 78.476 L 120.500 79.032 109 75.210 C 102.675 73.108, 94.235 70.103, 90.244 68.533 C 86.253 66.964, 82.850 65.864, 82.682 66.090 C 82.514 66.315, 80.696 68.839, 78.642 71.697 C 72.743 79.906, 68.591 79.802, 67.549 71.418 C 67.247 68.988, 66.761 65.062, 66.468 62.694 L 65.936 58.389 55.997 53.499 C 50.531 50.809, 45.824 48.842, 45.539 49.128 C 45.253 49.414, 44.352 55.658, 43.537 63.004 C 41.935 77.437, 41.786 76.669, 47.339 82.693 C 50.278 85.882, 50.281 85.896, 49.084 92.193 C 46.993 103.191, 42.969 117.450, 41.556 118.868 C 40.793 119.633, 39.641 119.896, 38.942 119.464 C 37.974 118.866, 37.831 113.892, 38.309 97.380 C 38.832 79.310, 38.688 75.497, 37.359 72.316 C 33.388 62.812, 37.899 50.129, 49.246 38.894 C 53.110 35.068, 56.098 31.813, 55.886 31.660 C 55.674 31.507, 52.229 30.846, 48.231 30.191 C 37.385 28.414, 32.061 28.679, 26.962 31.250 M 52.750 39.097 C 49.587 41.885, 47 44.574, 47 45.073 C 47 46.056, 64.955 55.379, 65.602 54.732 C 67.113 53.221, 61.128 33.972, 59.161 34.014 C 58.797 34.022, 55.913 36.309, 52.750 39.097 M 119.210 46.518 C 106.089 58.870, 102.983 66.684, 109.320 71.401 C 111.671 73.151, 113.876 73.557, 122.570 73.841 L 133 74.182 132.998 71.341 C 132.993 66.253, 130.970 41.547, 130.410 39.750 C 130.110 38.788, 129.504 38, 129.062 38 C 128.620 38, 124.187 41.833, 119.210 46.518 M 40.116 57.098 C 39.051 60.153, 38.501 70.832, 39.458 69.875 C 39.979 69.354, 41.881 54.661, 41.487 54.199 C 41.347 54.033, 40.729 55.338, 40.116 57.098 M 135.444 63.437 C 135.772 68.352, 136.236 72.569, 136.474 72.807 C 136.712 73.046, 138.955 72.934, 141.458 72.559 L 146.007 71.876 143.496 68.583 C 142.114 66.772, 139.603 62.862, 137.916 59.895 L 134.848 54.500 135.444 63.437 M 69.509 65.123 C 70.399 72.944, 70.919 75, 72.009 75 C 72.958 75, 79.926 66.129, 79.975 64.859 C 79.996 64.312, 77.845 63.301, 70.199 60.264 C 69.184 59.861, 69.032 60.932, 69.509 65.123 M 128.762 77.707 C 130.006 77.946, 131.806 77.937, 132.762 77.687 C 133.718 77.437, 132.700 77.241, 130.500 77.252 C 128.300 77.263, 127.518 77.468, 128.762 77.707 M 85.610 82.039 C 68.830 84.905, 63.216 96.159, 67.570 118.203 C 69.340 127.167, 69.432 127.357, 70.145 123.500 C 70.552 121.300, 70.911 115.168, 70.942 109.872 C 70.981 103.442, 71.415 99.907, 72.250 99.226 C 74.497 97.396, 81.279 96.042, 94.343 94.818 L 107.185 93.614 110.618 88.248 C 113.093 84.379, 114.532 83.017, 115.776 83.368 C 116.724 83.636, 119.975 84.137, 123 84.481 C 126.025 84.824, 129.738 85.343, 131.250 85.632 C 133.513 86.066, 134 85.803, 134 84.147 C 134 83.040, 133.213 81.928, 132.250 81.675 C 129.187 80.869, 90.699 81.170, 85.610 82.039 M 41.622 86.106 C 41.322 88.523, 40.851 95.900, 40.573 102.500 C 40.126 113.143, 40.222 114.161, 41.421 111.500 C 42.164 109.850, 43.804 103.640, 45.064 97.700 L 47.355 86.901 44.760 84.306 L 42.166 81.711 41.622 86.106 M 137 84.771 C 137 86.147, 138.370 86.803, 143.138 87.709 C 150.499 89.108, 152.349 90.508, 149.559 92.567 C 148.491 93.355, 146.466 94.006, 145.059 94.014 C 143.651 94.021, 141.428 94.314, 140.118 94.665 C 137.826 95.278, 137.757 95.563, 138.310 102.162 C 138.716 106.998, 139.826 110.932, 142.072 115.494 C 144.744 120.922, 145.180 122.776, 144.775 126.993 C 144.509 129.758, 143.568 132.820, 142.682 133.798 C 141.224 135.410, 141.201 137.026, 142.434 151.038 C 143.690 165.311, 143.397 170.070, 141.456 166.928 C 140.413 165.242, 137.085 136.390, 137.673 134.141 C 137.931 133.156, 137.693 127.507, 137.145 121.589 C 136.091 110.215, 135.041 108.102, 130.405 108.032 C 127.195 107.983, 125.053 111.125, 123.669 117.910 C 122.976 121.306, 121.980 124.078, 121.455 124.070 C 120.930 124.063, 120.267 121.907, 119.982 119.279 C 119.697 116.650, 119.108 113.938, 118.673 113.250 C 117.247 110.997, 112.965 111.931, 104.908 116.250 C 93.482 122.376, 92.722 120.060, 101.135 104.754 C 103.261 100.887, 105 97.507, 105 97.243 C 105 96.497, 87.056 98.022, 80.428 99.330 L 74.500 100.500 73.703 110.500 C 72.743 122.545, 73.492 153.413, 75.012 164.500 C 76.114 172.535, 79.438 181.090, 81.727 181.781 C 85.061 182.788, 96 163.943, 96 157.193 C 96 153.210, 101.637 142, 103.639 142 C 105.567 142, 105.348 143.733, 102.500 151 C 101.125 154.509, 100 157.519, 100 157.690 C 100 158.921, 107.460 157.533, 111.865 155.483 C 116.234 153.449, 117.133 152.616, 116.708 150.993 C 116.273 149.328, 116.683 149, 119.205 149 C 122.084 149, 122.194 149.153, 121.597 152.336 C 120.197 159.795, 132.742 178.110, 140.209 179.511 C 150.680 181.476, 162.566 168.210, 167.496 149.057 C 169.394 141.683, 169.687 125.937, 168.008 121.520 C 167.397 119.915, 166.030 113.522, 164.968 107.315 C 161.787 88.704, 160.812 87.488, 146.755 84.584 C 137.192 82.609, 137 82.613, 137 84.771 M 113.103 89.333 C 111.946 91.205, 111 92.929, 111 93.165 C 111 93.658, 121.996 93.211, 129.750 92.403 C 133.155 92.048, 135 91.392, 135 90.536 C 135 89.019, 132.900 88.411, 124.500 87.492 C 121.200 87.131, 117.759 86.632, 116.853 86.383 C 115.779 86.088, 114.474 87.114, 113.103 89.333 M 137 91 C 137 91.550, 138.323 92, 139.941 92 C 141.559 92, 143.160 91.550, 143.500 91 C 143.868 90.405, 142.677 90, 140.559 90 C 138.602 90, 137 90.450, 137 91 M 118.080 95.941 L 108.661 96.500 103.192 106.852 L 97.723 117.204 105.197 113.102 C 112.976 108.832, 117.889 107.957, 119.974 110.469 C 121.016 111.724, 121.670 111.432, 124.465 108.469 C 127.857 104.872, 130.638 104.201, 134.215 106.115 C 136.200 107.177, 136.269 107.046, 135.661 103.365 C 135.309 101.239, 135.017 98.487, 135.011 97.250 C 134.999 94.754, 136.350 94.858, 118.080 95.941 M 140.031 122.500 C 140.031 125.250, 140.467 128.175, 141 129 C 141.697 130.078, 141.969 129.093, 141.969 125.500 C 141.969 122.750, 141.533 119.825, 141 119 C 140.303 117.922, 140.031 118.907, 140.031 122.500" stroke="none" fill="black" fill-rule="evenodd"/>
</svg>