<svg xmlns="http://www.w3.org/2000/svg" width="200" height="200" viewBox="0 0 200 200" version="1.1">
	<path d="M 142.931 8.645 L 140.500 17.376 122 17.609 C 95.992 17.938, 58.717 22.293, 54.306 25.518 C 52.389 26.920, 53.368 29, 55.943 29 C 57.283 29, 58.432 30.794, 60.266 35.750 C 62.864 42.774, 65.493 53.840, 64.741 54.592 C 64.503 54.830, 61.095 53.165, 57.168 50.891 C 52.892 48.415, 48.258 46.558, 45.615 46.260 C 41.698 45.819, 41.011 46.054, 39.507 48.348 C 37.498 51.416, 38.011 55.720, 41.368 63.963 L 43.593 69.425 41.361 80.963 C 36.952 103.756, 36.560 116.099, 40.222 116.804 C 42.420 117.228, 43.528 114.897, 45.367 105.980 C 48.662 90, 48.688 56, 45.404 56 C 44.501 56, 43.975 57.160, 43.930 59.250 L 43.859 62.500 42.391 58.500 C 41.584 56.300, 41.053 53.375, 41.212 52 C 41.470 49.760, 41.937 49.509, 45.700 49.583 C 48.859 49.645, 51.876 50.860, 57.867 54.481 C 67.010 60.008, 66.584 59.022, 67.577 77 C 68.625 96.003, 65.405 120.812, 59.820 136.750 C 58.616 140.187, 57.186 143, 56.644 143 C 56.101 143, 54.786 142.213, 53.722 141.250 C 52.380 140.037, 50.209 139.520, 46.643 139.566 C 42.444 139.620, 39.632 140.609, 31.329 144.953 C 25.365 148.073, 20.499 150.022, 19.564 149.663 C 18.687 149.326, 17.527 147.885, 16.985 146.461 C 15.501 142.558, 15.801 126.481, 17.593 113.784 C 18.970 104.037, 19.004 101.546, 17.843 95.500 C 15.929 85.525, 16.171 66.058, 18.309 58 C 23.675 37.775, 35.065 27.346, 42.342 35.995 C 43.728 37.642, 45.141 39.869, 45.482 40.944 C 45.858 42.129, 46.673 42.679, 47.554 42.341 C 48.756 41.880, 48.618 41.092, 46.753 37.770 C 37.833 21.878, 22.678 31.224, 15.821 56.846 C 13.334 66.139, 12.864 85.125, 14.872 95.201 C 16.033 101.024, 15.981 103.734, 14.476 115.908 C 13.484 123.935, 12.934 133.516, 13.187 138.351 C 13.997 153.774, 17.636 155.324, 33.500 147 C 38.741 144.250, 44.352 142, 45.968 142 C 50.002 142, 53.656 143.826, 55.620 146.823 L 57.267 149.338 58.753 146.503 C 61.405 141.441, 65.102 129.832, 67.083 120.345 C 69.146 110.467, 71.100 86.473, 70.451 79 C 70.236 76.525, 69.862 71.665, 69.620 68.200 L 69.181 61.900 72.840 64.622 C 74.853 66.119, 76.588 67.391, 76.695 67.450 C 76.802 67.508, 76.408 69.344, 75.820 71.528 C 75.193 73.857, 74.690 87.699, 74.603 105 C 74.481 129.503, 74.157 135.686, 72.694 141.500 C 70.268 151.139, 63.308 165.063, 55.964 174.967 L 49.813 183.263 55.442 182.796 C 69.247 181.652, 80.229 166.833, 93.088 132 L 98.441 117.500 99.322 122.500 C 99.864 125.570, 99.746 136.069, 99.019 149.701 C 97.823 172.116, 97.994 175.400, 100.402 176.324 C 101.132 176.604, 105.590 175.046, 110.310 172.863 C 119.776 168.484, 128.175 167.167, 138.450 168.450 C 143.803 169.119, 144.553 169.558, 149.701 175.042 C 155.336 181.043, 160.346 183.660, 163.990 182.503 C 172.710 179.736, 179.949 164.074, 179.985 147.899 C 180.018 133.144, 174.005 126.651, 165.250 131.989 C 163.463 133.079, 162 133.743, 162 133.465 C 162 133.188, 163.142 130.157, 164.537 126.730 C 170.409 112.311, 173.084 95.538, 171.063 85.803 C 168.027 71.178, 159.340 71.020, 152 85.456 L 148.500 92.340 148.196 87.112 C 147.521 75.522, 152.781 66.539, 165.598 57.393 C 173.788 51.549, 176.332 47.998, 176.249 42.525 C 176.130 34.670, 167.370 21.591, 152.259 6.707 L 145.363 -0.087 142.931 8.645 M 144.830 11.951 C 143.094 18.430, 143.234 19, 146.561 19 C 147.787 19, 151.728 19.908, 155.320 21.017 C 171.502 26.015, 170.927 37.828, 153.803 52.165 L 148.666 56.466 149.291 51.483 C 149.635 48.742, 150.392 42.900, 150.974 38.500 C 152.026 30.537, 151.619 25, 149.981 25 C 149.509 25, 146.957 26.860, 144.311 29.133 C 141.100 31.891, 139.093 34.596, 138.275 37.266 C 135.423 46.578, 129.962 75.552, 130.552 78.238 C 130.923 79.928, 130.672 81.691, 129.932 82.582 C 128.544 84.254, 126.134 96.462, 126.053 102.229 C 126.008 105.399, 126.675 106.581, 130.500 110.107 C 135.315 114.545, 136.061 116.489, 133.233 117.229 C 131.859 117.588, 131.174 119.600, 130.147 126.294 C 128.484 137.136, 125.550 148.632, 123.957 150.552 C 119.973 155.352, 118.788 141.568, 121.168 118.098 L 122.336 106.578 114.418 99.175 C 110.063 95.103, 105.016 90.628, 103.203 89.231 L 99.905 86.690 98.396 88.845 C 95.082 93.576, 90.250 90.242, 83.090 78.285 C 80.301 73.630, 78.983 72.202, 78.362 73.165 C 77.888 73.899, 77.460 88, 77.410 104.500 C 77.328 131.997, 77.140 135.168, 75.150 142.500 C 72.502 152.260, 66.863 164.224, 60.655 173.250 C 55.808 180.298, 55.950 181.066, 61.606 178.383 C 70.823 174.009, 80.074 158.865, 90.487 131.106 C 93.891 122.032, 97.436 114.133, 98.366 113.554 C 101.853 111.381, 102.169 114.426, 101.607 144.750 C 101.308 160.838, 101.288 174, 101.561 174 C 101.834 174, 104.741 172.645, 108.022 170.989 C 119.145 165.374, 129.498 163.819, 141.103 166.020 C 145.347 166.824, 147.003 167.720, 148.963 170.270 C 152.888 175.377, 157.019 178.967, 159.767 179.656 C 164.078 180.738, 168.629 177.431, 171.936 170.812 C 175.857 162.965, 177.319 155.297, 176.795 145.319 C 176.331 136.475, 174.615 133, 170.713 133 C 167.751 133, 162.469 136.620, 158.954 141.058 C 157.237 143.226, 155.157 145, 154.333 145 C 153.508 145, 153.005 144.662, 153.216 144.250 C 163.643 123.800, 167.775 111.294, 168.662 97.500 C 169.306 87.493, 168.126 81.329, 165.030 78.527 C 163.207 76.877, 162.862 76.861, 160.639 78.317 C 157.196 80.573, 154.037 86.122, 150.940 95.351 C 148.021 104.051, 147.892 103.992, 145.980 93.094 C 144.026 81.961, 146.478 72.081, 153.053 64.593 C 154.890 62.500, 159.694 58.347, 163.727 55.364 C 175.727 46.490, 176.436 42.174, 168.032 29.171 C 164.336 23.452, 148.551 6, 147.074 6 C 146.717 6, 145.707 8.678, 144.830 11.951 M 100 21.079 C 88.846 22.006, 60.847 25.820, 60.161 26.506 C 59.937 26.730, 60.871 29.746, 62.238 33.207 C 64.324 38.487, 66.416 46.225, 68.536 56.500 C 68.763 57.600, 70.637 59.625, 72.701 61 C 74.764 62.375, 81.423 67.574, 87.499 72.553 L 98.546 81.605 101.632 78.303 C 105.552 74.106, 108.659 74.052, 115.757 78.058 C 121.442 81.266, 126.500 81.710, 126.500 79 C 126.500 78.175, 124.025 75.822, 121 73.770 C 113.581 68.739, 90.440 57, 87.942 57 C 84.614 57, 79 54.207, 79 52.551 C 79 50.489, 80.900 50.596, 87 53 C 89.791 54.100, 93.520 54.995, 95.287 54.988 C 99.877 54.971, 107.672 52.722, 113.628 49.696 C 118.773 47.081, 132.107 36.962, 135.098 33.402 C 137.039 31.092, 139.557 22.225, 138.558 21.221 C 137.503 20.162, 112.160 20.069, 100 21.079 M 141.630 23.250 C 140.449 27.657, 140.990 27.988, 144.877 25.240 C 147.981 23.047, 148.430 22.364, 147.127 21.820 C 144.047 20.533, 142.232 21.005, 141.630 23.250 M 153.500 32.749 C 153.500 38.112, 153.186 44.300, 152.801 46.500 L 152.103 50.500 157.455 44.807 C 160.399 41.676, 163.352 37.464, 164.017 35.448 C 165.081 32.224, 164.992 31.463, 163.275 29.141 C 161.670 26.970, 155.997 23.242, 154 23.047 C 153.725 23.020, 153.500 27.386, 153.500 32.749 M 127.472 43.709 C 119.849 49.830, 108.640 55.697, 102.750 56.649 C 100.688 56.983, 99.002 57.536, 99.005 57.878 C 99.007 58.220, 102.720 60.400, 107.255 62.722 C 111.790 65.044, 117.902 68.532, 120.837 70.472 C 126.873 74.462, 127.993 74.739, 128.016 72.250 C 128.025 71.287, 129.587 63.324, 131.487 54.554 C 133.387 45.783, 134.829 38.496, 134.693 38.359 C 134.556 38.223, 131.307 40.630, 127.472 43.709 M 86.583 78.750 C 92.670 88.352, 94.880 89.961, 96.871 86.241 C 97.645 84.795, 96.588 83.456, 90.950 78.741 C 87.175 75.583, 83.828 73, 83.513 73 C 83.197 73, 84.579 75.588, 86.583 78.750 M 103.034 80.684 C 100.580 83.804, 99.345 82.162, 113.750 94.927 C 118.838 99.435, 123.003 102.758, 123.008 102.312 C 123.019 101.123, 124.936 88.864, 125.506 86.337 C 125.928 84.466, 125.440 84.081, 121.884 83.480 C 119.623 83.098, 116.187 81.709, 114.247 80.393 C 109.523 77.187, 105.707 77.286, 103.034 80.684 M 42.656 89.250 C 39.364 109.857, 39.333 120.211, 42.604 106.296 C 43.993 100.385, 45.711 79, 44.797 79 C 44.520 79, 43.556 83.612, 42.656 89.250 M 124.546 112.729 C 123.393 119.555, 122.273 141.437, 122.977 143.404 C 123.683 145.379, 127.375 128.666, 128.589 118 C 129.125 113.285, 128.928 112.241, 127.206 110.685 C 125.233 108.901, 125.186 108.937, 124.546 112.729" stroke="none" fill="black" fill-rule="evenodd"/>
</svg>