<svg xmlns="http://www.w3.org/2000/svg" width="200" height="200" viewBox="0 0 200 200" version="1.1">
	<path d="M 91.500 23.440 C 89.300 24.253, 86.467 26.174, 85.204 27.709 C 83.942 29.244, 82.064 31.512, 81.030 32.750 C 78.168 36.178, 73.062 35.754, 67.252 31.608 C 60.138 26.531, 53.949 24.740, 43.500 24.736 C 29.192 24.730, 18.273 30.316, 14.380 39.632 C 12.526 44.070, 12.638 51.873, 14.639 57.715 C 16.089 61.946, 16.176 65.454, 15.389 88 C 14.335 118.217, 14.513 133.501, 15.998 140.428 C 17.254 146.286, 20.451 151.429, 23.779 152.945 C 28.861 155.261, 35.901 153.667, 39.218 149.450 C 43.294 144.268, 55.250 140.112, 73.500 137.533 C 80.100 136.600, 87.189 135.986, 89.252 136.168 L 93.005 136.500 85.365 147 C 71.177 166.501, 66 174.946, 66 178.590 C 66 185.283, 71.740 184.152, 94.608 172.953 L 108.716 166.043 110.928 159.976 C 113.699 152.379, 118.230 146.999, 121.854 147.004 C 127.059 147.011, 131.827 151.009, 145.324 166.683 C 158.126 181.550, 164.613 184.004, 169.453 175.811 C 171.109 173.007, 173.961 163.934, 173.988 161.383 C 173.995 160.768, 172.313 159.143, 170.250 157.771 C 165.221 154.424, 147 138.086, 147 136.923 C 147 136.415, 148.553 136, 150.451 136 C 155.843 136, 164.126 133.987, 168.348 131.651 C 175.328 127.788, 176.703 121.748, 172.490 113.446 C 169.642 107.835, 163.658 101, 161.594 101 C 159.827 101, 159 98.801, 159 94.102 C 159 89.260, 160.169 82.906, 165.618 58.146 C 170.754 34.806, 171.104 27.727, 167.147 27.167 C 164.031 26.726, 158.251 32.952, 148.847 46.879 C 144.902 52.721, 141.560 57.650, 141.420 57.834 C 141.280 58.018, 137.992 56.633, 134.113 54.757 L 127.061 51.346 131.107 47.423 C 136.520 42.175, 141.927 34.742, 142.965 31.122 C 144.888 24.416, 139.590 22.437, 128.196 25.605 C 122.677 27.140, 122.120 27.117, 115.593 25.101 C 106.292 22.229, 96.588 21.559, 91.500 23.440 M 91.415 26.354 C 89.719 27.130, 87.315 29.055, 86.074 30.632 L 83.817 33.500 108.909 33.767 C 130.296 33.995, 134 34.253, 134 35.517 C 134 36.789, 130.382 37, 108.617 37 L 83.233 37 82.630 39.250 C 81.512 43.423, 81.868 43.695, 89.250 44.326 C 95.971 44.900, 112.549 47.489, 116 48.503 C 116.958 48.784, 118.704 47.106, 120.834 43.856 C 123.097 40.404, 124.496 39.096, 125.187 39.787 C 125.877 40.477, 125.368 42.036, 123.602 44.635 C 120.497 49.205, 120.393 50, 122.906 50 C 123.983 50, 127.634 46.953, 131.291 43.003 C 137.855 35.913, 141.607 29.791, 140.493 27.989 C 139.594 26.534, 134.405 26.783, 127.971 28.588 C 122.562 30.106, 122.005 30.081, 115.405 28.017 C 106.466 25.221, 95.547 24.464, 91.415 26.354 M 33 28.519 C 18.221 32.604, 12.997 42.649, 17.633 58.068 C 19.058 62.810, 19.153 66.359, 18.383 86 C 16.610 131.185, 17.410 142.914, 22.652 148.569 C 24.849 150.940, 25.686 151.189, 30.054 150.769 C 33.737 150.415, 35.464 149.680, 36.898 147.857 C 42.868 140.268, 63.101 134.812, 92.964 132.740 C 96.307 132.508, 96.747 131.962, 105.639 117 C 113.158 104.349, 114.865 100.732, 114.926 97.321 C 115.004 92.905, 116.959 90, 119.853 90 C 121.525 90, 129.299 78.292, 128.493 76.988 C 128.283 76.649, 124.966 76.797, 121.121 77.318 C 114.154 78.261, 111 77.893, 111 76.138 C 111 74.551, 114.228 73.754, 122 73.424 C 126.125 73.249, 130.030 73.082, 130.678 73.053 C 131.325 73.024, 133.524 70.252, 135.565 66.894 C 139.721 60.051, 139.898 60.507, 131.500 56.441 C 125.589 53.579, 124.836 53.516, 120.879 55.563 C 117.396 57.364, 114.884 56.158, 115.692 53.072 C 116.118 51.441, 115.048 51.019, 106.838 49.583 C 101.702 48.684, 93.951 47.589, 89.613 47.150 L 81.726 46.352 82.436 71.926 C 83.023 93.106, 82.870 99.206, 81.542 107.427 C 79.677 118.983, 78.264 122.500, 75.487 122.500 C 72.618 122.500, 71.223 115.824, 69.915 95.823 C 68.863 79.747, 69.793 52.310, 71.543 47.748 C 72.151 46.165, 71.427 46.011, 63.857 46.118 C 51.744 46.290, 49.569 46.912, 49.177 50.319 C 49 51.865, 49.501 54.115, 50.290 55.320 C 51.108 56.569, 51.438 58.368, 51.057 59.505 C 50.690 60.602, 50.283 71.175, 50.152 83 C 49.815 113.520, 47.913 123.349, 43.250 118.674 C 41.721 117.141, 41.509 114.872, 41.571 100.710 C 41.629 87.325, 42.046 82.844, 43.960 75 C 47.562 60.238, 47.634 57.943, 44.581 55.076 C 41.305 51.998, 41.273 48.706, 44.500 46.592 C 45.875 45.691, 47 44.368, 47 43.651 C 47 40.712, 52.088 37.639, 59.745 35.956 L 67.500 34.251 60.911 31.107 C 52.698 27.187, 41.557 26.155, 33 28.519 M 160.727 35.205 C 158.249 38.117, 153.284 44.844, 149.693 50.154 C 143.757 58.931, 143.212 60.164, 143.692 63.743 C 144.148 67.141, 143.781 68.180, 141.007 71.340 C 139.239 73.353, 136.899 75, 135.808 75 C 133.958 75, 133.999 75.210, 136.411 78.077 C 139.855 82.170, 139.889 88.549, 136.505 95.818 L 134.029 101.136 136.033 105.065 C 138.971 110.824, 139.531 116.794, 137.572 121.482 L 135.932 125.406 140.216 129.643 L 144.500 133.881 152.910 132.917 C 162.293 131.841, 169.277 129.220, 170.914 126.160 C 172.324 123.527, 172.302 118.452, 170.870 115.684 C 168.358 110.831, 162.560 104.106, 160.426 103.571 C 158.948 103.200, 157.747 101.764, 156.986 99.456 C 155.448 94.799, 156.652 85.953, 162.390 59.738 C 167.224 37.656, 168.136 30.898, 166.366 30.296 C 165.742 30.084, 163.204 32.293, 160.727 35.205 M 73.393 38.582 C 73.727 39.452, 74 40.802, 74 41.582 C 74 43.540, 78.633 43.400, 79.393 41.418 C 80.715 37.972, 80.055 37, 76.393 37 C 73.515 37, 72.909 37.320, 73.393 38.582 M 57.374 39.141 C 55.105 39.651, 52.429 40.973, 51.429 42.079 C 49.615 44.083, 49.637 44.087, 60.555 43.407 C 66.575 43.033, 71.560 42.676, 71.633 42.613 C 71.707 42.551, 71.384 41.487, 70.916 40.250 C 70.205 38.372, 69.356 38.018, 65.782 38.107 C 63.427 38.166, 59.643 38.631, 57.374 39.141 M 73.644 50.250 C 70.837 69.502, 72.938 123.763, 76.281 118.355 C 77.716 116.032, 80 99.252, 80 91.029 C 80 86.240, 79.704 74.148, 79.342 64.160 C 78.695 46.289, 78.649 46, 76.474 46 C 74.637 46, 74.159 46.719, 73.644 50.250 M 44.704 49.669 C 43.988 50.828, 45.657 53.676, 46.537 52.796 C 46.893 52.441, 46.754 51.383, 46.230 50.447 C 45.706 49.510, 45.019 49.160, 44.704 49.669 M 138.101 68.250 L 135.833 72.500 138.917 69.234 C 141.932 66.040, 142.816 64, 141.184 64 C 140.735 64, 139.348 65.912, 138.101 68.250 M 45.689 80.697 C 43.482 93.330, 42.787 102.997, 43.581 110.012 C 44.878 121.476, 46.285 114.683, 47.044 93.297 C 47.449 81.859, 47.657 72.364, 47.504 72.197 C 47.352 72.030, 46.535 75.855, 45.689 80.697 M 130.688 80.166 C 129.881 81.450, 128.016 84.451, 126.543 86.836 L 123.866 91.172 127.683 94.487 C 132.297 98.493, 133.384 97.927, 135.579 90.375 C 137.281 84.521, 136.950 82.170, 134.053 79.548 C 132.249 77.916, 132.085 77.946, 130.688 80.166 M 117.564 94.707 C 117.022 96.132, 117.136 96.247, 118.124 95.267 C 118.808 94.588, 119.115 93.781, 118.807 93.474 C 118.499 93.166, 117.940 93.721, 117.564 94.707 M 120.054 97.632 C 118.002 101.111, 117.983 101.430, 119.521 106.722 C 121.050 111.981, 121.192 112.136, 122.981 110.517 C 124.007 109.589, 126.075 107.057, 127.576 104.891 L 130.305 100.953 127.902 98.385 C 123.563 93.745, 122.413 93.635, 120.054 97.632 M 126.531 110.558 C 123.798 114.101, 121.301 117, 120.982 117 C 120.663 117, 119.799 115.313, 119.063 113.250 C 115.703 103.835, 116.472 103.802, 110.696 113.604 C 107.813 118.497, 104.208 124.638, 102.685 127.250 L 99.916 132 102.792 132 C 105.136 132, 106.337 131.028, 109.289 126.742 C 115.530 117.681, 122.126 115.683, 129.426 120.644 C 133.147 123.172, 133.375 123.207, 134.658 121.453 C 135.396 120.443, 136 117.913, 136 115.829 C 136 112.037, 133.349 103.949, 132.141 104.058 C 131.789 104.089, 129.264 107.014, 126.531 110.558 M 118.231 121.545 C 115.603 122.650, 111 127.713, 111 129.498 C 111 130.506, 120.709 129.116, 126.439 127.289 L 131.379 125.714 128.531 123.443 C 124.893 120.542, 121.919 119.994, 118.231 121.545 M 132 128.038 C 131.175 128.577, 128.025 129.787, 125 130.726 L 119.500 132.435 128.999 133.135 C 134.224 133.520, 138.701 133.633, 138.948 133.385 C 139.195 133.138, 138.071 131.614, 136.449 129.997 C 134.243 127.800, 133.122 127.306, 132 128.038 M 94.021 139.692 C 78.188 161.574, 72.487 169.856, 70.410 173.993 C 67.475 179.836, 67.467 180, 70.129 180 C 74.781 180, 106.996 164.710, 107 162.500 C 107.005 159.852, 113.085 149.106, 115.936 146.707 C 123.351 140.468, 129.741 144.478, 150.327 168.289 C 156.676 175.632, 160.953 178.467, 164.150 177.452 C 166.364 176.750, 169.464 170.635, 170.462 165 C 171.033 161.782, 170.779 161.299, 167.317 159 C 165.246 157.625, 158.807 151.929, 153.007 146.343 L 142.462 136.185 119.981 135.535 L 97.500 134.884 94.021 139.692" stroke="none" fill="black" fill-rule="evenodd"/>
</svg>