<svg xmlns="http://www.w3.org/2000/svg" width="200" height="200" viewBox="0 0 200 200" version="1.1">
	<path d="M 108.500 13.652 C 106.850 13.846, 99.369 14.725, 91.875 15.604 C 81.582 16.812, 77.735 16.929, 76.147 16.079 C 74.362 15.123, 74.140 15.201, 74.674 16.592 C 75.178 17.907, 74.872 18.094, 73.121 17.538 C 68.437 16.052, 52.596 28.432, 41.607 42.167 C 30.450 56.110, 23 74.396, 23 87.834 L 23 93.349 25.264 91.222 C 29.831 86.931, 34.422 85.852, 46.873 86.141 C 53.268 86.290, 62.213 86.432, 66.751 86.456 C 71.289 86.480, 75.001 86.602, 75.001 86.726 C 75 86.850, 74.102 88.425, 73.004 90.226 C 67.505 99.244, 72.858 105.914, 85.718 106.070 C 88.898 106.109, 92.400 106.527, 93.500 107 C 94.600 107.473, 95.275 107.893, 95 107.934 C 88.496 108.909, 67.435 111.992, 67.262 111.995 C 67.131 111.998, 66.735 110.194, 66.382 107.986 C 65.904 104.998, 65.198 103.852, 63.620 103.500 C 57.986 102.244, 40.667 101.424, 33.791 102.087 C 11.065 104.278, 3.277 121.015, 11.606 149.765 C 12.954 154.419, 14 160.667, 14 164.065 C 14 179.101, 22.105 181.541, 50.469 175.046 C 72.233 170.063, 80.604 170.842, 83.346 178.106 C 83.947 179.698, 84.966 181, 85.610 181 C 86.444 181, 86.965 175.315, 87.419 161.250 C 88.101 140.083, 89.210 125.559, 89.765 130.500 C 92.742 157.002, 97.111 178.024, 100.570 182.500 C 102.044 184.407, 102.163 184.416, 103.141 182.690 C 105.613 178.328, 110.864 173.507, 115.493 171.351 C 122.692 167.999, 132.764 168.196, 151.440 172.055 C 160.926 174.014, 167.350 174.867, 169.363 174.434 C 178.535 172.460, 181.418 167.775, 181.325 155 C 181.290 150.325, 180.770 143.921, 180.169 140.769 C 179.263 136.024, 179.351 134.304, 180.680 130.769 C 181.664 128.151, 182.327 123.086, 182.393 117.673 C 182.499 108.944, 182.464 108.813, 179.289 105.972 C 174.147 101.370, 169.327 100.529, 156.160 101.939 C 149.923 102.607, 144.691 103.006, 144.534 102.827 C 144.377 102.647, 144.043 99.913, 143.792 96.750 L 143.335 91 148.168 91 C 150.825 91, 153 90.550, 153 90 C 153 89.450, 151.537 88.994, 149.750 88.986 C 143.575 88.960, 142.571 88.204, 140.370 81.921 L 138.280 75.956 144.501 69.611 C 151.117 62.864, 155.843 54.592, 156.690 48.277 C 157.855 39.590, 151.530 32.907, 140.138 30.789 L 133.973 29.642 149.236 25.812 C 164.194 22.059, 164.550 22.019, 167 23.800 C 168.375 24.799, 170.547 27.616, 171.826 30.059 C 173.922 34.062, 174.102 35.437, 173.648 44 C 173.357 49.495, 171.874 58.708, 170.131 65.855 C 166.116 82.315, 165.282 89, 167.242 89 C 168.297 89, 168.891 87.367, 169.333 83.250 C 169.673 80.088, 171.355 71.875, 173.070 65 C 174.785 58.125, 176.433 48.580, 176.731 43.789 C 177.231 35.756, 177.062 34.647, 174.561 29.535 C 170.396 21.022, 162.438 16.413, 147.806 14.038 C 141.991 13.095, 115.462 12.834, 108.500 13.652 M 98 17.498 C 92.225 18.251, 86.487 18.897, 85.250 18.934 C 81.801 19.035, 82.531 20.178, 88.528 24.069 L 94.030 27.637 108.118 25.379 C 115.866 24.136, 129.642 22.112, 138.730 20.879 C 151.962 19.085, 154.781 18.440, 152.877 17.644 C 149.043 16.040, 109.974 15.936, 98 17.498 M 66.003 23.203 C 59.772 26.321, 44.419 41.902, 38.235 51.383 C 32.491 60.189, 27.337 73.283, 26.367 81.533 L 25.727 86.983 29.113 85.242 C 32.030 83.742, 35.551 83.500, 54.500 83.500 C 67.416 83.500, 77.171 83.087, 78.126 82.500 C 79.020 81.950, 81.045 79.951, 82.626 78.059 C 85.149 75.037, 85.543 73.667, 85.855 66.823 C 86.196 59.341, 85.148 50.593, 82.984 42.857 L 81.965 39.213 74.483 41.130 C 67.683 42.872, 66.787 42.906, 64.649 41.506 L 62.298 39.965 61.632 49.435 C 60.764 61.785, 59.334 69.101, 57.421 70.982 C 56.040 72.340, 55.732 72.304, 54.497 70.638 C 51.287 66.310, 51.419 48.384, 54.711 41.479 C 55.619 39.577, 57.239 37.742, 58.313 37.401 C 59.853 36.912, 59.975 36.603, 58.890 35.932 C 56.464 34.433, 59.149 33.281, 68.879 31.649 C 74.037 30.784, 78.427 29.907, 78.633 29.700 C 78.839 29.494, 78.401 27.565, 77.660 25.413 C 76.552 22.197, 75.794 21.451, 73.406 21.226 C 71.808 21.075, 68.477 21.965, 66.003 23.203 M 80.409 24.785 C 81.417 27.712, 82.278 28.570, 84.466 28.828 C 89.248 29.393, 89.068 27.624, 84.004 24.285 L 79.129 21.070 80.409 24.785 M 145 22.670 C 143.625 22.888, 133.275 24.431, 122 26.098 C 98.435 29.581, 97.408 29.808, 98.809 31.209 C 100.430 32.830, 119.720 30.136, 136.500 25.944 C 149.691 22.648, 152.891 21.416, 145 22.670 M 85.250 31.706 C 82.860 32.166, 82.566 32.770, 83.793 34.700 C 84.365 35.599, 85.676 35.639, 89.028 34.859 C 96.500 33.120, 96.672 33.037, 94.972 31.962 C 93.483 31.020, 89.371 30.912, 85.250 31.706 M 123.809 34.171 C 122.970 35.452, 121.058 38.921, 119.559 41.881 C 117.264 46.413, 117.048 47.476, 118.191 48.619 C 119.334 49.762, 121.245 49.110, 130.299 44.488 C 137.279 40.925, 142.279 39, 144.556 39 C 151.787 39, 149.954 44.483, 138.910 55.883 C 135.109 59.806, 132.014 63.574, 132.031 64.258 C 132.048 64.941, 133.163 67.291, 134.508 69.481 L 136.953 73.462 142.767 67.481 C 150.187 59.849, 153.500 53.261, 153.500 46.140 C 153.500 41.275, 153.189 40.521, 150.120 37.959 C 146.563 34.990, 141.493 33.501, 131.417 32.467 C 125.804 31.891, 125.216 32.022, 123.809 34.171 M 69.250 34.258 C 65.813 34.820, 63 35.597, 63 35.985 C 63 36.373, 63.834 37.445, 64.853 38.367 C 66.587 39.937, 67.166 39.934, 73.887 38.320 C 79.278 37.027, 80.996 36.211, 80.776 35.048 C 80.415 33.139, 77.375 32.931, 69.250 34.258 M 109 33.900 C 106.525 34.230, 104.591 34.862, 104.702 35.304 C 104.813 35.746, 107.156 38.133, 109.910 40.609 L 114.916 45.110 117.972 39.055 L 121.029 33 117.264 33.150 C 115.194 33.233, 111.475 33.570, 109 33.900 M 89.650 37.245 C 85.111 38.188, 84.836 38.420, 85.363 40.876 C 85.672 42.319, 86.609 46.650, 87.445 50.500 C 88.281 54.350, 88.973 60.801, 88.983 64.836 L 89 72.172 95.250 67.234 C 98.688 64.519, 103.361 61.079, 105.636 59.591 C 108.615 57.642, 110.269 55.584, 111.548 52.235 L 113.324 47.586 107.025 41.793 C 100.188 35.504, 99.229 35.253, 89.650 37.245 M 57.001 42.750 C 54.841 47.252, 54.349 68.985, 56.455 66.878 C 56.814 66.519, 58.075 57.134, 59.494 44.250 C 60.029 39.389, 58.931 38.729, 57.001 42.750 M 141.500 42.465 C 137.265 43.748, 126.692 48.933, 123.748 51.169 C 122.124 52.402, 122.284 52.831, 125.912 57 L 129.829 61.500 133.976 57.500 C 139.311 52.353, 146.290 43.334, 145.845 42.161 C 145.649 41.644, 143.775 41.775, 141.500 42.465 M 114.581 51.649 C 113.733 53.859, 114.443 54.376, 115.906 52.613 C 116.616 51.758, 116.716 50.943, 116.153 50.595 C 115.634 50.274, 114.927 50.748, 114.581 51.649 M 115.513 55.982 C 113.871 57.065, 111.992 59.424, 111.339 61.225 C 109.600 66.023, 109.724 75.565, 111.571 79.138 C 113.787 83.423, 121.706 86.832, 131.338 87.646 C 139.980 88.376, 140.047 88.308, 137.405 81.391 C 135.856 77.334, 135.703 77.230, 132.004 77.726 C 126.874 78.414, 125.305 75.818, 126.935 69.343 C 127.551 66.898, 127.748 64.358, 127.372 63.699 C 125.993 61.277, 119.845 54, 119.183 54.007 C 118.807 54.010, 117.156 54.899, 115.513 55.982 M 98.347 68.405 C 90 75.005, 79.037 85.881, 75.833 90.740 C 73.641 94.064, 73.449 99.298, 75.458 100.965 C 76.260 101.631, 80.197 102.612, 84.208 103.147 C 88.219 103.681, 94.425 104.731, 98 105.479 C 103 106.526, 108.076 106.644, 120 105.992 C 128.525 105.525, 136.987 104.825, 138.805 104.436 L 142.110 103.728 141.430 98.114 C 141.056 95.026, 140.544 92.275, 140.292 92 C 140.040 91.726, 135.622 90.972, 130.473 90.325 C 118.748 88.853, 112.398 85.899, 109.201 80.432 C 107.235 77.070, 106.960 75.449, 107.301 69.250 C 107.520 65.263, 107.418 62, 107.073 62 C 106.729 62, 102.802 64.882, 98.347 68.405 M 129.456 70.320 C 128.515 74.070, 129.454 75.956, 131.939 75.306 C 134.472 74.643, 134.482 74.251, 132.057 70.573 L 130.127 67.645 129.456 70.320 M 29.981 105.290 C 19.794 107.608, 14.302 112.497, 11.882 121.401 C 10.398 126.859, 11.348 138.688, 14.017 148 C 15.200 152.125, 16.468 159.198, 16.837 163.718 C 17.736 174.743, 18.556 175.516, 29.288 175.449 C 34.835 175.414, 41.070 174.492, 48.500 172.607 C 63.339 168.843, 75.206 168.164, 80.208 170.793 L 83.916 172.742 84.412 168.621 C 84.684 166.354, 85.152 155.910, 85.451 145.410 C 86.087 123.059, 86.754 117, 88.577 117 C 89.295 117, 90.140 117.417, 90.455 117.926 C 90.769 118.436, 92.134 127.323, 93.488 137.676 C 96.758 162.692, 100.070 179, 101.882 179 C 102.222 179, 103.760 177.421, 105.299 175.492 C 108.972 170.889, 116.726 167.049, 124.360 166.054 C 127.737 165.614, 129.458 165.197, 128.184 165.127 C 120.008 164.679, 119.919 159.523, 127.838 145.119 C 136.436 129.480, 142.662 112.304, 140.502 110.181 C 138.886 108.593, 99.553 110.158, 83.803 112.438 C 75.073 113.702, 67.736 114.930, 67.498 115.169 C 67.260 115.407, 66.603 119.677, 66.039 124.657 C 63.949 143.105, 56.354 155.561, 48.410 153.567 C 45.773 152.905, 43 148.376, 43 144.731 C 43 140.381, 46.117 131.567, 49.977 125 C 55.012 116.435, 58.297 113, 61.452 113 C 63.677 113, 64 112.574, 64 109.638 C 64 106.304, 63.953 106.270, 58.453 105.623 C 46.329 104.198, 35.342 104.070, 29.981 105.290 M 156.500 104.502 C 155.950 104.692, 152.912 105.139, 149.750 105.495 C 145.737 105.948, 144 106.575, 144 107.572 C 144 108.357, 144.434 109, 144.965 109 C 145.496 109, 147.494 110.373, 149.405 112.051 C 154.197 116.259, 155.637 122.791, 154.150 133.580 C 152.235 147.479, 149.795 163.491, 149.552 163.758 C 149.422 163.900, 145.476 164.350, 140.782 164.758 L 132.248 165.500 149.519 168.940 C 164.858 171.994, 167.250 172.242, 170.890 171.151 C 177.088 169.294, 178.534 165.877, 178.358 153.500 C 178.279 148, 177.809 141.700, 177.312 139.500 C 176.633 136.493, 176.855 133.892, 178.204 129.022 C 180.479 120.815, 180.550 112.231, 178.369 109.117 C 176.001 105.736, 170.943 103.989, 163.782 104.079 C 160.327 104.122, 157.050 104.313, 156.500 104.502 M 143.690 112.750 C 143.455 113.162, 142.942 115.300, 142.551 117.500 C 141.464 123.611, 136.530 135.256, 130.402 146.175 C 123.753 158.020, 123.225 160.933, 127.500 162.183 C 130.731 163.127, 143.517 162.288, 146.035 160.966 C 148.142 159.859, 152.618 128.462, 151.612 121.838 C 150.743 116.114, 145.320 109.892, 143.690 112.750 M 54.372 123.092 C 46.900 134.642, 44.148 145.085, 47.403 149.536 C 48.564 151.125, 49.290 151.284, 51.622 150.464 C 57.199 148.503, 62.089 137.282, 63.483 123.250 L 64.203 116 61.581 116 C 59.430 116, 58.136 117.273, 54.372 123.092" stroke="none" fill="black" fill-rule="evenodd"/>
</svg>