<svg xmlns="http://www.w3.org/2000/svg" width="200" height="200" viewBox="0 0 200 200" version="1.1">
	<path d="M 87 12.540 C 81.338 14.086, 67.822 20.188, 60.163 24.656 L 55.826 27.186 57.796 29.343 C 60.418 32.214, 62.451 36.381, 64.337 42.750 L 65.892 48 61.071 48 C 52.556 48, 50.197 47.126, 49.010 43.530 C 46.218 35.071, 37.036 32.771, 28.925 38.500 C 23.222 42.527, 18.435 49.756, 15.863 58.224 C 14.012 64.318, 13.838 66.497, 14.495 75.353 C 14.909 80.934, 15.080 90, 14.874 95.500 C 13.729 126.117, 15.540 138.270, 22.206 144.700 C 28.015 150.304, 33.583 151.130, 49.773 148.789 C 58 147.599, 58.177 147.515, 59.669 144.039 C 62.351 137.795, 66.965 118.094, 68.668 105.615 C 70.374 93.112, 70.998 58.571, 69.596 54.250 C 68.928 52.192, 69.179 52, 72.541 52 C 75.903 52, 76.166 52.201, 75.625 54.357 C 73.940 61.071, 73.872 74.815, 75.441 91.689 L 77.131 109.878 73.668 117.755 C 69.560 127.098, 64.670 141.760, 62.413 151.500 C 60.319 160.535, 60.039 173.137, 61.882 175.358 C 65.483 179.697, 71.109 175.414, 78.236 162.907 L 82.561 155.319 86.530 161.275 C 93.632 171.928, 106.796 181.149, 119.703 184.511 C 134.270 188.305, 151.161 184.529, 164.218 174.559 C 169.144 170.799, 171.227 166.629, 174.507 153.972 C 177.333 143.068, 176.598 136.439, 172.449 135.398 C 167.044 134.041, 153 146.172, 153 152.197 C 153 154.696, 152.349 155.400, 148.446 157.127 C 145.941 158.235, 141.316 159.621, 138.167 160.206 C 123.746 162.888, 111.267 153.180, 104.507 134.019 C 103.060 129.918, 103.067 129.886, 105.273 130.566 C 106.498 130.943, 113.575 133.943, 121 137.233 C 135.847 143.812, 141.325 145.201, 142.310 142.635 C 143.037 140.740, 138.143 133.935, 130.166 125.750 L 124.563 120 130.031 119.999 C 137.799 119.998, 156.650 118.190, 162.167 116.917 C 164.734 116.325, 167.617 114.976, 168.572 113.920 C 170.225 112.094, 170.217 111.895, 168.405 109.854 C 167.357 108.673, 164.188 106.217, 161.363 104.395 C 152.752 98.843, 152.726 98.791, 155.529 92.739 C 158.948 85.360, 159.470 80.383, 157.593 73.056 C 155.245 63.891, 155.531 60.218, 159.001 55 C 162.305 50.031, 163.552 45.337, 162.589 41.497 C 161.706 37.980, 154.863 33.337, 148.447 31.901 L 143.041 30.691 135.304 36.596 C 131.049 39.843, 123.174 46.850, 117.805 52.166 C 109.309 60.579, 108.239 61.365, 109.549 58.229 C 110.881 55.040, 110.883 54.455, 109.567 53.139 C 107.739 51.310, 100.168 50.170, 89.219 50.073 C 82.830 50.017, 80.806 49.657, 80.362 48.501 C 79.115 45.252, 90.207 23.329, 95.147 19.278 C 96.413 18.240, 96.835 18.840, 97.959 23.278 C 100.794 34.471, 106.611 44.141, 111.665 46.063 C 115.164 47.393, 118.671 45.311, 120.985 40.530 C 125.230 31.762, 121.957 19.648, 113.901 14.314 C 110.176 11.848, 108.591 11.471, 101.075 11.269 C 95.843 11.129, 90.356 11.624, 87 12.540 M 98.587 15.750 C 100.063 22.244, 104.962 35.320, 107.073 38.402 C 111.607 45.019, 116.090 45.421, 118.591 39.436 C 121.690 32.020, 119.341 21.773, 113.487 17.169 C 112.075 16.057, 108.665 14.665, 105.910 14.074 C 98.365 12.456, 97.864 12.570, 98.587 15.750 M 84.500 16.391 C 80.650 17.657, 73.604 20.641, 68.842 23.024 L 60.183 27.355 63.050 32.434 C 64.627 35.228, 66.547 39.986, 67.317 43.007 C 68.697 48.419, 68.775 48.504, 72.686 48.799 C 76.576 49.092, 76.679 49.013, 77.920 44.799 C 80.048 37.572, 84.889 28.253, 90.070 21.408 C 92.781 17.825, 95 14.693, 95 14.447 C 95 13.485, 91.195 14.190, 84.500 16.391 M 136.399 39.164 C 127.486 45.835, 107.818 65.756, 105.666 70.291 C 104.750 72.222, 104 75.197, 104 76.901 C 104 79.547, 104.369 80, 106.521 80 C 110.613 80, 111.596 83.597, 109.635 91.400 C 108.736 94.981, 108 100.387, 108 103.413 C 108 108.502, 108.262 109.124, 111.500 111.707 C 113.425 113.243, 115 114.838, 115 115.250 C 115 116.907, 111.852 115.839, 108.862 113.168 C 106.211 110.799, 105.620 109.450, 105.248 104.918 C 104.987 101.728, 105.462 96.973, 106.402 93.356 C 108.889 83.791, 108.686 82.701, 104.500 83.190 C 101.011 83.597, 101 83.586, 101 79.562 L 101 75.526 97.226 80.810 C 95.151 83.716, 90.431 91.361, 86.739 97.801 L 80.025 109.508 80.657 117.712 C 81.263 125.569, 81.376 125.869, 83.322 124.827 C 84.549 124.171, 88.038 123.965, 92.125 124.307 L 98.896 124.875 99.198 120.196 C 99.435 116.529, 99.911 115.440, 101.403 115.156 C 102.464 114.955, 103.734 115.560, 104.274 116.526 C 105.157 118.102, 106.725 118.197, 121.872 117.582 C 149.604 116.458, 167 114.285, 167 111.946 C 167 111.540, 164.637 109.733, 161.750 107.930 C 155.007 103.718, 150.999 100.038, 151.005 98.063 C 151.007 97.203, 152.121 93.800, 153.481 90.500 C 156.339 83.562, 156.554 79.653, 154.500 72 C 152.165 63.301, 152.544 59.867, 156.500 53.860 C 160.747 47.411, 161.162 42.440, 157.722 39.208 C 155.369 36.998, 148.060 34, 145.023 34 C 144.075 34, 140.194 36.324, 136.399 39.164 M 30.169 40.992 C 25.108 44.659, 21.637 49.759, 18.891 57.566 C 17.057 62.777, 16.879 64.901, 17.423 75 C 17.764 81.325, 18.102 87.625, 18.174 89 C 18.246 90.375, 17.953 97.800, 17.523 105.500 C 16.275 127.872, 19.187 140.481, 26.673 145.107 C 29.908 147.106, 31.096 147.241, 40.852 146.721 C 56.013 145.913, 56.374 145.708, 59.390 136.158 C 64.398 120.304, 68.049 93.994, 67.945 74.500 C 67.896 65.328, 66.769 52.404, 65.952 51.657 C 65.703 51.429, 61.969 50.921, 57.653 50.527 C 50.183 49.846, 49.835 49.905, 50.421 51.750 C 50.759 52.816, 50.519 56.796, 49.887 60.594 C 49.255 64.392, 48.428 78.750, 48.049 92.500 C 47.669 106.250, 47.005 118.287, 46.573 119.250 C 46.140 120.212, 45.148 121, 44.368 121 C 41.421 121, 40.600 115.753, 40.615 97 C 40.629 78.562, 42.234 63.367, 45.457 51.159 C 46.999 45.317, 46.725 43.636, 43.677 40.250 C 40.701 36.944, 35.352 37.238, 30.169 40.992 M 78.228 53.725 C 77.238 56.138, 77.572 89.924, 78.666 98 L 79.546 104.500 83.920 97 C 86.326 92.875, 91.507 84.775, 95.433 79 C 99.359 73.225, 103.524 66.025, 104.688 63 C 105.853 59.975, 107.107 56.752, 107.476 55.837 C 108.195 54.055, 106.989 53.857, 87.228 52.513 C 79.930 52.016, 78.871 52.159, 78.228 53.725 M 46.013 61.921 C 45.359 65.799, 45.015 69.541, 45.249 70.236 C 45.483 70.931, 46.205 67.945, 46.854 63.600 C 48.326 53.735, 47.629 52.343, 46.013 61.921 M 43.719 79.401 C 42.818 89.303, 42.955 110.674, 43.940 114 C 45.147 118.069, 46.264 90.552, 45.301 80.500 L 44.438 71.500 43.719 79.401 M 73.125 126.300 C 63.548 150.794, 59.957 176.872, 66.508 174.359 C 68.130 173.736, 75.541 162.917, 78.861 156.325 C 80.886 152.305, 80.902 151.989, 79.294 147.825 C 77.995 144.463, 77.651 140.439, 77.751 129.750 C 77.821 122.188, 77.715 116, 77.515 116 C 77.315 116, 75.339 120.635, 73.125 126.300 M 102 122.399 C 102 125.232, 102.501 126.252, 104.250 126.985 C 105.487 127.503, 112.708 130.640, 120.296 133.956 C 135.299 140.513, 139 141.752, 139 140.222 C 139 139.674, 134.868 134.861, 129.819 129.525 L 120.638 119.824 112.799 120.518 C 107.180 121.015, 104.541 120.864, 103.480 119.983 C 102.219 118.937, 102 119.295, 102 122.399 M 85 127.304 C 81.665 128.963, 81.134 135.700, 83.788 142.684 C 85.063 146.041, 85.404 148.378, 84.841 149.902 C 83.674 153.056, 87.843 159.962, 95.465 167.500 C 105.572 177.497, 118.410 183.021, 131.432 182.976 C 143.322 182.934, 152.889 179.683, 162.329 172.475 C 166.512 169.281, 167.177 168.156, 169.901 159.650 C 173.271 149.131, 174.529 141.169, 173.147 139.115 C 171.541 136.728, 166.887 138.808, 161.271 144.424 C 155.750 149.945, 154.521 152.604, 158 151.500 C 161.874 150.270, 160.096 153.860, 155.495 156.556 C 143.760 163.433, 131.620 165.137, 122.646 161.167 C 113.935 157.314, 105.103 145.765, 101.486 133.500 C 100.741 130.971, 99.423 129.085, 97.904 128.371 C 93.867 126.475, 87.693 125.965, 85 127.304" stroke="none" fill="black" fill-rule="evenodd"/>
</svg>