<svg xmlns="http://www.w3.org/2000/svg" width="200" height="200" viewBox="0 0 200 200" version="1.1">
	<path d="M 62.798 18.990 C 49.387 19.528, 45.635 20.757, 49.250 23.428 C 51.628 25.184, 51.628 28.477, 49.250 27.482 C 37.840 22.710, 27.014 21.450, 22.550 24.375 C 16.603 28.272, 16.552 28.750, 16.300 83 C 16.152 114.879, 16.445 134.174, 17.123 137.202 C 18.440 143.082, 22.151 147.003, 26.386 146.991 C 28.099 146.985, 31.862 145.626, 34.750 143.970 L 40 140.960 40 134.671 C 40 131.179, 40.563 127.613, 41.265 126.653 C 42.413 125.082, 42.902 125.054, 46.568 126.347 C 48.789 127.131, 53.431 129.198, 56.884 130.942 C 64.730 134.902, 69.322 134.821, 72.401 130.668 C 74.444 127.912, 74.490 127.035, 74.133 98.016 C 73.559 51.387, 74.649 38.995, 79.321 39.002 C 81.084 39.004, 81.931 79.574, 80.794 109.500 C 80.111 127.481, 78.894 133.444, 70.965 157.672 C 63.913 179.219, 64.337 182.262, 73.353 174.836 C 92.235 159.286, 102.651 138.702, 106.501 109.334 C 107.325 103.044, 108 97.288, 108 96.543 C 108 94.371, 116.800 89.153, 121.702 88.418 C 127.900 87.488, 132.937 89.172, 143.149 95.589 C 155.917 103.611, 160.258 105.309, 166.646 104.779 C 169.589 104.535, 172.198 104.135, 172.444 103.890 C 174.017 102.316, 177.290 72.756, 177.359 59.500 C 177.443 43.270, 176.039 35.380, 171.677 27.566 L 169.407 23.500 163.541 23.708 C 158.043 23.903, 157.811 23.821, 159.838 22.401 C 165.178 18.661, 163.492 18.500, 118.747 18.490 C 94.961 18.485, 69.784 18.710, 62.798 18.990 M 77 23.566 C 85.179 26.188, 86.322 26.135, 87.970 23.056 C 89.047 21.044, 88.861 21.002, 79.285 21.081 L 69.500 21.163 77 23.566 M 95 21.458 C 95 22.533, 103.882 26.963, 108.193 28.039 C 112.082 29.008, 115.939 28.836, 130.693 27.035 C 140.487 25.839, 150.075 24.330, 152 23.680 C 155.093 22.637, 153.697 22.428, 140 21.882 C 120.333 21.099, 95 20.860, 95 21.458 M 62.020 23.888 C 63.405 24.337, 66.780 24.979, 69.520 25.316 C 72.650 25.700, 73.564 25.624, 71.980 25.112 C 70.595 24.663, 67.220 24.021, 64.480 23.684 C 61.350 23.300, 60.436 23.376, 62.020 23.888 M 90.200 24.200 C 89.540 24.860, 89 25.903, 89 26.517 C 89 27.978, 98.714 31.020, 103.088 30.929 L 106.500 30.859 102.156 28.930 C 99.766 27.870, 96.547 26.102, 95.001 25.001 C 91.697 22.648, 91.744 22.656, 90.200 24.200 M 25 26.241 C 19.737 29.014, 19.510 30.681, 19.380 67.500 C 19.314 86.200, 19.166 109.005, 19.051 118.177 C 18.865 133.021, 19.064 135.356, 20.865 139.427 C 22.680 143.530, 23.227 143.999, 26.194 143.995 C 28.012 143.992, 31.223 142.947, 33.328 141.672 C 37.100 139.389, 37.160 139.257, 37.328 132.829 C 37.429 129.005, 38.068 125.620, 38.872 124.652 C 41.080 121.995, 46.029 122.721, 54.877 127 C 64.374 131.592, 68.170 132.023, 70.450 128.768 C 71.819 126.813, 71.939 122.679, 71.412 95.518 C 71.074 78.051, 71.236 59.476, 71.785 53 C 72.321 46.675, 72.645 41.370, 72.507 41.211 C 72.082 40.724, 59.022 45.860, 55.147 48.037 L 51.500 50.087 51.696 75.793 C 51.892 101.582, 51.242 108, 48.435 108 C 47.294 108, 47.144 106.604, 47.645 100.675 C 48.245 93.577, 48.130 93.058, 43.955 83.925 C 38.230 71.403, 37.472 63.282, 41.404 56.574 C 42.848 54.109, 44.973 51.432, 46.125 50.625 C 48.105 49.238, 48.142 48.926, 46.800 44.900 C 45.405 40.715, 44.482 39.778, 40.500 38.505 C 36.192 37.128, 41.848 36.118, 57.796 35.417 L 74 34.705 74 31.932 C 74 28.890, 74.328 29.023, 61.635 26.902 C 54.373 25.688, 53.052 26.191, 53.015 30.180 C 53.002 31.653, 52.028 31.506, 45.103 28.978 C 35.292 25.398, 28.386 24.458, 25 26.241 M 154.500 27.059 C 151.200 27.490, 146.025 28.582, 143 29.484 C 139.975 30.386, 132.325 31.341, 126 31.607 C 119.675 31.872, 112.925 32.356, 111 32.683 L 107.500 33.276 112.500 34.618 C 119.023 36.370, 128.832 36.311, 132 34.500 C 135.286 32.622, 141.014 32.621, 143.695 34.499 C 151.469 39.944, 155.425 59.470, 151.460 72.821 C 148.822 81.707, 143.505 82.954, 137.695 76.049 C 135.068 72.927, 129 61.145, 129 59.166 C 129 56.826, 131.070 57.053, 131.998 59.495 C 136.433 71.160, 142.685 79.319, 145.720 77.405 C 148.400 75.714, 149.843 70.060, 149.924 60.932 C 150.011 51.087, 148.106 43.468, 144.478 39.157 C 141.142 35.192, 138.173 34.617, 133.455 37.023 C 131.222 38.161, 127.440 39.033, 124.539 39.079 C 121.767 39.122, 120.175 39.405, 121 39.706 C 123.601 40.657, 127 44.278, 127 46.098 C 127 48.005, 122.381 54, 120.911 54 C 119.301 54, 119.938 51.366, 122 49.500 C 124.687 47.068, 124.518 45.386, 121.379 43.329 C 117.692 40.913, 108.380 39.143, 95.250 38.363 L 84 37.695 83.852 40.598 C 83.771 42.194, 83.650 61.500, 83.584 83.500 C 83.447 129.049, 83.543 128.302, 74.081 157.155 C 71.287 165.678, 69 173.202, 69 173.875 C 69 175.741, 77.529 168.247, 83.084 161.500 C 95.021 147.002, 102.472 126.434, 104.550 102.241 C 105.256 94.023, 105.280 93.967, 109.353 90.972 C 120.146 83.034, 129.019 83.477, 143.621 92.684 C 155.527 100.190, 159.624 101.952, 165.231 101.978 C 170.692 102.003, 170.217 102.945, 172.527 87.500 C 176.166 63.158, 175.403 42.111, 170.487 31.250 C 167.820 25.359, 167.711 25.330, 154.500 27.059 M 77.550 28.250 C 77.337 28.938, 76.963 30.738, 76.720 32.250 C 76.327 34.693, 76.586 35, 79.041 35 C 81.220 35, 82.028 34.358, 82.864 31.961 C 83.833 29.182, 83.707 28.839, 81.397 27.961 C 78.176 26.736, 78.015 26.748, 77.550 28.250 M 86 30.918 C 86 31.423, 85.750 32.488, 85.444 33.285 C 84.972 34.516, 85.681 34.578, 90.154 33.693 L 95.421 32.652 91.960 31.402 C 87.693 29.861, 86 29.723, 86 30.918 M 98 35.096 C 96.082 35.637, 96.606 35.824, 100.250 35.900 C 102.862 35.955, 105 35.827, 105 35.617 C 105 34.778, 100.354 34.432, 98 35.096 M 48.571 38.885 C 48.122 39.611, 49.634 45.668, 50.552 46.820 C 50.692 46.996, 52.735 46.155, 55.093 44.953 C 57.450 43.750, 62.106 41.716, 65.440 40.432 L 71.500 38.098 60.309 38.049 C 54.154 38.022, 48.872 38.398, 48.571 38.885 M 45.072 55.635 C 39.907 62.202, 40.112 68.517, 45.899 81.087 L 48.852 87.500 48.926 70.250 C 48.969 60.263, 48.609 53, 48.073 53 C 47.562 53, 46.212 54.186, 45.072 55.635" stroke="none" fill="black" fill-rule="evenodd"/>
</svg>