<svg xmlns="http://www.w3.org/2000/svg" width="200" height="200" viewBox="0 0 200 200" version="1.1">
	<path d="M 126.371 16.475 C 125.678 18.281, 127.158 29.889, 131.048 53.153 C 132.672 62.863, 134 71.126, 134 71.517 C 134 71.908, 132.088 71.941, 129.750 71.591 C 123.508 70.658, 116.245 73.137, 111.793 77.720 C 104.302 85.430, 95.471 110, 100.190 110 C 101.216 110, 102.175 107.600, 103.370 102.041 C 105.624 91.553, 107.784 89.635, 116.711 90.198 C 125.521 90.754, 138.040 97.090, 139.337 101.650 C 140.429 105.494, 147.198 109.208, 149.283 107.108 C 150.241 106.144, 149.520 104.955, 145.901 101.529 C 141.576 97.434, 141.229 96.711, 140.057 89.338 C 139.372 85.027, 138.587 80.332, 138.312 78.904 L 137.812 76.308 142.833 77.337 C 146.714 78.132, 148.212 78.069, 149.427 77.060 C 152.027 74.903, 151.154 65, 148.364 65 C 147.006 65, 147.061 66.353, 148.662 72.255 C 148.937 73.269, 148.473 74.265, 147.561 74.615 C 145.829 75.279, 140.206 74.419, 138.281 73.195 C 137.127 72.461, 130.982 38.248, 129.446 24 L 128.745 17.500 132.520 22.500 C 146.328 40.788, 156.017 44.297, 167.500 35.169 C 168.600 34.294, 168.260 34.911, 166.744 36.540 C 165.228 38.168, 159.153 41.975, 153.244 45 C 145 49.220, 142.500 50.965, 142.500 52.500 C 142.500 55.611, 148.305 57.806, 162.877 60.205 L 176.007 62.367 176.998 65.933 C 177.543 67.895, 177.980 72.200, 177.970 75.500 C 177.920 91.395, 171.222 103.539, 154.699 117.692 C 145.001 125.998, 144.075 128.297, 150.219 128.808 C 153.221 129.058, 155.340 130.440, 161.412 136.112 C 169.239 143.421, 172.514 147.820, 174.009 153.030 C 176.519 161.782, 166.387 165.405, 155.370 159.695 C 145.990 154.834, 141.480 147.868, 140.675 137 C 139.961 127.363, 137.472 119, 135.317 119 C 133.940 119, 133.790 120.031, 134.263 126.250 C 134.566 130.238, 135.624 136.531, 136.613 140.236 C 138.154 146.009, 138.248 147.926, 137.270 153.634 C 134.969 167.065, 126.274 179.440, 119.599 178.785 C 114.438 178.278, 112.627 174.400, 112.164 162.869 C 111.941 157.327, 112.302 149.428, 112.965 145.315 C 113.629 141.203, 113.955 137.621, 113.689 137.356 C 113.424 137.091, 109.448 139.909, 104.854 143.619 C 90.850 154.926, 71.492 166.957, 67.250 166.990 C 66.563 166.996, 66 166.487, 66 165.860 C 66 163.924, 84.621 145.647, 97.096 135.337 C 109.377 125.189, 111.348 121.780, 101.936 126.968 C 98.946 128.616, 95.098 129.972, 93.385 129.982 C 87.114 130.018, 82.338 123.655, 79.344 111.271 C 76.665 100.195, 77.126 65.650, 80.014 60.977 C 80.787 59.726, 81.918 59.859, 87.941 61.909 C 98.523 65.512, 101 67.299, 101 71.330 C 101 75.572, 104.263 78.954, 106.809 77.351 C 113.444 73.172, 101.928 62.805, 85.222 57.918 C 77.338 55.612, 80.837 54.476, 94.625 54.865 C 105.258 55.165, 107.787 54.961, 108.817 53.721 C 110.754 51.386, 108.487 49.796, 95.530 44.405 C 79.408 37.697, 79.625 37.433, 99.947 39.013 C 109.624 39.765, 112.569 39.705, 113.182 38.740 C 114.689 36.367, 114.059 26.579, 112.173 23.062 C 105.512 10.642, 78.611 15.274, 62.674 31.584 C 57.600 36.776, 54.945 42.118, 54.840 47.342 C 54.759 51.372, 54.603 51.595, 52.127 51.232 C 49.757 50.884, 49.490 50.407, 49.403 46.366 C 49.097 32.277, 29.605 28.190, 19.557 40.108 C 14.984 45.532, 13.856 49.349, 14.014 58.872 C 14.093 63.617, 13.841 74.925, 13.453 84 C 12.684 102.005, 14.057 124.959, 16.561 135.970 C 19.574 149.217, 24.091 152.352, 29.940 145.257 C 31.637 143.198, 34.030 138.922, 35.258 135.755 C 36.486 132.588, 37.779 130.110, 38.132 130.248 C 38.485 130.387, 40.306 132.520, 42.179 134.989 C 46.152 140.226, 51.343 144, 54.571 144 C 60.409 144, 65.550 135.707, 68.451 121.611 C 72.557 101.660, 72.480 66.939, 68.325 64.665 C 65.841 63.305, 58.606 56.061, 59.169 55.498 C 59.418 55.248, 63.580 55.807, 68.417 56.740 L 77.212 58.435 76.549 62.968 C 72.859 88.176, 74.342 110.854, 80.472 122.941 C 83.391 128.696, 85.780 130.851, 90.930 132.371 L 95.023 133.580 88.098 139.348 C 78.096 147.680, 64.185 162.416, 63.411 165.500 C 61.146 174.522, 76.035 168.664, 98.713 151.611 L 109.500 143.500 109.500 158 C 109.500 173.782, 110.428 177.269, 115.516 180.603 C 123.100 185.572, 135.423 173.928, 139.044 158.373 C 139.668 155.693, 140.364 152.897, 140.592 152.161 C 140.858 151.298, 142.610 152.473, 145.516 155.463 C 151.298 161.412, 158.841 164.977, 165.673 164.990 C 176.564 165.011, 180.155 157.034, 174.049 146.387 C 170.542 140.273, 156.593 127.084, 152.829 126.322 C 150.276 125.806, 150.658 125.289, 161.462 114.641 C 174.222 102.064, 178.036 95.661, 180.166 83.236 C 181.427 75.885, 180.284 62.884, 178.193 60.793 C 177.667 60.267, 171.221 58.802, 163.868 57.537 C 151.114 55.342, 145 53.708, 145 52.492 C 145 52.186, 149.685 49.692, 155.412 46.950 C 169.157 40.369, 173.489 35.625, 171.153 29.712 C 170.526 28.123, 170.116 28.272, 167.474 31.051 C 163.543 35.185, 159.890 37, 155.500 37 C 149.290 37, 144.962 33.615, 134.086 20.250 C 129.765 14.940, 127.404 13.785, 126.371 16.475 M 93 18.649 C 80.056 21.033, 66.911 28.889, 61.044 37.748 C 57.897 42.498, 56.184 49.584, 57.792 51.192 C 58.343 51.743, 62.102 52.814, 66.146 53.573 C 70.191 54.332, 74.518 55.198, 75.761 55.498 C 77.495 55.916, 78.292 55.453, 79.175 53.515 L 80.327 50.986 92.664 51.645 C 99.449 52.008, 105 52.075, 105 51.794 C 105 51.513, 99.840 49.147, 93.534 46.536 C 81.473 41.541, 79.374 40.074, 80.412 37.368 C 80.978 35.894, 82.699 35.770, 96.024 36.242 L 111 36.773 111 31.933 C 111 25.884, 109.390 22.253, 105.910 20.454 C 102.795 18.843, 96.628 17.981, 93 18.649 M 27.422 37.418 C 22.703 39.473, 18.204 45.607, 17.138 51.440 C 16.630 54.223, 16.305 71.350, 16.416 89.500 C 16.578 115.898, 16.961 124.268, 18.330 131.340 C 20.210 141.049, 22.285 146, 24.475 146 C 26.739 146, 30.604 140.144, 34.048 131.494 C 35.798 127.097, 37.335 123.381, 37.464 123.235 C 37.592 123.089, 39.338 125.628, 41.343 128.876 C 45.698 135.932, 51.175 141, 54.446 141 C 59.690 141, 64.377 131.170, 67.091 114.478 C 67.805 110.090, 68.414 98.049, 68.444 87.719 L 68.500 68.939 63.382 64.219 C 60.567 61.624, 57.519 58.263, 56.609 56.750 C 55.340 54.641, 54.201 54.009, 51.727 54.037 C 48.891 54.070, 48.122 54.728, 45.381 59.461 L 42.262 64.846 43.597 76.173 C 45.255 90.244, 45.442 113.609, 43.904 114.559 C 43.301 114.932, 42.148 114.577, 41.342 113.771 C 39.839 112.268, 36.263 96.261, 33.984 80.841 L 32.705 72.181 35.852 68.363 C 39.382 64.081, 39.576 62.658, 37.646 55.218 L 36.293 50 41.778 50 L 47.263 50 46.693 45.750 C 45.872 39.622, 41.582 35.987, 35.234 36.039 C 32.630 36.061, 29.115 36.681, 27.422 37.418 M 40.393 54.582 C 40.727 55.452, 41 57.027, 41 58.082 C 41 60.788, 42.468 60.463, 43.839 57.453 C 45.534 53.733, 45.296 53, 42.393 53 C 40.427 53, 39.935 53.389, 40.393 54.582 M 37.612 70.470 C 35.537 73.636, 35.668 75.689, 39.172 95 C 41.351 107.004, 42.914 111.816, 42.970 106.687 C 43.023 101.766, 40.869 74.636, 40.144 71.085 L 39.446 67.671 37.612 70.470 M 104 72.941 C 104 74.073, 104.450 75, 105 75 C 105.550 75, 106 74.352, 106 73.559 C 106 72.766, 105.550 71.840, 105 71.500 C 104.450 71.160, 104 71.809, 104 72.941 M 120.594 75.041 C 117.301 76.026, 111.479 81.261, 109.518 85 L 108.207 87.500 115.354 87.500 C 121.550 87.500, 123.545 87.999, 130.362 91.254 L 138.224 95.008 137.649 91.754 C 137.333 89.964, 136.570 85.511, 135.953 81.858 C 134.896 75.592, 134.661 75.182, 131.791 74.608 C 127.846 73.819, 124.209 73.960, 120.594 75.041" stroke="none" fill="black" fill-rule="evenodd"/>
</svg>