<svg xmlns="http://www.w3.org/2000/svg" width="200" height="200" viewBox="0 0 200 200" version="1.1">
	<path d="M 125.500 21.432 C 116.700 23.284, 102.975 26.456, 95 28.481 L 80.500 32.161 56.249 31.868 C 34.444 31.604, 31.825 31.747, 30.284 33.287 C 28.667 34.904, 28.909 35, 34.606 35 C 40.123 35, 41.012 35.318, 44.981 38.715 C 50.004 43.015, 58.239 53.804, 57.460 55.064 C 56.838 56.071, 26.230 77.622, 20.750 80.912 C 18.688 82.150, 17 83.501, 17 83.915 C 17 85.732, 18.406 85.693, 21.635 83.788 C 24.373 82.173, 26.074 81.875, 29.722 82.375 C 32.263 82.724, 34.539 83.206, 34.780 83.447 C 35.021 83.688, 34.348 85.148, 33.284 86.692 C 27.998 94.363, 27.106 104.119, 30.950 112.216 C 33.500 117.588, 39.233 124.432, 45.028 129.022 L 48.983 132.154 54.465 129.645 C 61.409 126.466, 63.991 122.549, 63.996 115.188 C 64.003 105.525, 55.764 92.878, 44.858 85.811 L 39.786 82.524 43.643 79.183 C 50.466 73.272, 61.987 66.587, 63.223 67.823 C 63.830 68.430, 64.541 72.656, 64.804 77.213 C 65.245 84.884, 65.536 85.797, 68.706 89.500 C 73.528 95.133, 78.840 106.396, 80.112 113.689 C 82.684 128.426, 74.341 143.408, 58.500 152.500 C 50.703 156.975, 30.854 170.559, 27.250 173.887 C 20.016 180.565, 24.731 181.803, 38.670 176.884 C 53.026 171.819, 64.357 166.615, 77.392 159.102 C 91.439 151.005, 96.455 149, 102.666 149 C 108.619 149, 113.886 151.891, 119.133 158.038 C 134.089 175.561, 135.512 176.470, 148 176.488 C 155.110 176.498, 157.419 176.069, 162.120 173.865 C 168.484 170.881, 175.770 164.734, 177.105 161.223 C 178.998 156.244, 175.772 154.134, 147.672 141.969 C 125.544 132.389, 119.811 125.082, 126.826 115.400 C 128.381 113.255, 131.232 110.296, 133.163 108.824 C 137.479 105.533, 147.168 87.040, 159.004 59.500 C 163.495 49.050, 168.296 38.552, 169.673 36.171 C 171.050 33.791, 171.967 31.634, 171.711 31.378 C 171.236 30.902, 142.827 36.842, 133.088 39.453 C 127.788 40.874, 127.614 40.853, 124.739 38.433 L 121.802 35.962 98.151 36.498 C 82.930 36.843, 75.213 36.697, 76.500 36.087 C 77.600 35.567, 88.120 35.109, 99.879 35.070 L 121.257 35 130.879 30.917 C 144.020 25.340, 149.192 22.240, 148.800 20.174 C 148.291 17.482, 142.874 17.774, 125.500 21.432 M 126.500 24.042 C 118.800 25.647, 108.225 28.045, 103 29.372 L 93.500 31.784 107.375 31.892 L 121.251 32 132.165 27.340 C 149.109 20.107, 148.126 19.535, 126.500 24.042 M 50.218 39.802 C 52.688 42.443, 55.955 46.485, 57.477 48.785 C 60.609 53.519, 62.358 53.427, 61.448 48.576 C 61.012 46.249, 61.308 44.835, 62.477 43.665 C 63.965 42.178, 64.460 42.165, 67.721 43.528 C 69.702 44.355, 72.143 44.772, 73.146 44.454 C 74.149 44.135, 77.892 43.875, 81.465 43.875 C 86.484 43.875, 89.150 44.472, 93.191 46.502 L 98.422 49.129 111.211 45.401 C 132.179 39.287, 128.969 38.464, 87.835 39.408 C 60.283 40.040, 57 39.949, 57 38.558 C 57 37.549, 57.970 36.965, 59.750 36.900 C 61.263 36.845, 63.625 36.440, 65 36 C 66.607 35.485, 63.611 35.164, 56.613 35.100 L 45.726 35 50.218 39.802 M 148.500 38.573 C 128.682 43.118, 128.431 43.211, 128.816 45.864 C 129.348 49.522, 126.978 59.055, 123.334 67.916 C 120.659 74.419, 104 107.053, 102.438 108.850 C 102.270 109.043, 101.637 108.893, 101.030 108.519 C 100.304 108.070, 101.442 105.047, 104.364 99.668 C 118.857 72.984, 126 55.928, 126 48.006 C 126 44.522, 125.722 43.951, 124.250 44.409 C 123.287 44.708, 117.775 46.351, 112 48.060 C 106.225 49.769, 101.342 51.325, 101.150 51.517 C 100.957 51.710, 102.155 53.585, 103.812 55.684 C 109.366 62.720, 111.391 72.410, 108.482 78.035 C 105.750 83.317, 99.304 83.242, 91.039 77.831 C 86.422 74.808, 86.013 74.178, 83.884 66.812 C 82.643 62.516, 81.232 59, 80.749 59 C 80.266 59, 77.667 59.948, 74.973 61.107 L 70.075 63.214 72.654 68.305 C 76.283 75.464, 84.508 88.468, 89.659 95.186 C 92.564 98.975, 93.635 101.107, 92.872 101.579 C 92.229 101.977, 90.878 101.237, 89.795 99.894 C 85.748 94.875, 73.661 76.253, 70.878 70.750 C 67.801 64.663, 65.289 62.974, 66.416 67.750 C 66.772 69.263, 67.343 73.647, 67.684 77.494 C 68.220 83.547, 68.814 85.164, 72.094 89.508 C 74.179 92.270, 77.373 97.672, 79.192 101.514 C 82.285 108.046, 82.499 109.183, 82.492 119 C 82.485 128.094, 82.157 130.169, 80.041 134.500 C 76.639 141.463, 67.136 150.520, 56.500 156.938 C 43.325 164.887, 27.460 176.449, 29.245 176.802 C 32.341 177.412, 61.764 164.902, 74.778 157.441 C 88.823 149.389, 96.920 146, 102.109 146 C 110.495 146, 117.852 150.741, 125.211 160.889 C 127.450 163.975, 130.230 167.317, 131.391 168.316 C 140.803 176.421, 157.364 175.689, 169.224 166.643 C 172.370 164.243, 175.935 158.540, 174.885 157.586 C 173.844 156.641, 161.510 150.830, 153.664 147.589 C 129.711 137.693, 121 130.934, 121 122.245 C 121 118.482, 125.708 111.192, 130.681 107.252 C 135.641 103.324, 143.206 88.996, 156.991 57.420 C 164.531 40.150, 166.403 35.015, 165.140 35.066 C 164.238 35.103, 156.750 36.681, 148.500 38.573 M 64 47.500 C 64 50.360, 65.165 50.711, 67.063 48.424 C 68.147 47.117, 68.126 46.692, 66.936 45.939 C 64.644 44.489, 64 44.831, 64 47.500 M 81 46.739 C 81 49.060, 83.299 53.993, 84.348 53.922 C 84.982 53.880, 87.672 53.080, 90.327 52.144 L 95.153 50.443 91.677 48.786 C 87.228 46.664, 81 45.470, 81 46.739 M 70.250 49.545 C 65.742 52.269, 65.307 53.384, 67.161 57.453 C 68.569 60.545, 69.087 60.570, 75.626 57.859 L 80.791 55.718 79.606 51.609 C 78.136 46.514, 76.034 46.050, 70.250 49.545 M 89.513 55.173 C 86.770 56.255, 84.418 57.249, 84.286 57.380 C 83.546 58.121, 88.511 72.670, 89.873 73.752 C 96.334 78.886, 104.131 80.492, 105.965 77.066 C 108.423 72.473, 106.269 63.400, 100.948 55.927 C 98.518 52.514, 96.574 52.386, 89.513 55.173 M 62 55.953 C 62 57.621, 64.289 62, 65.161 62 C 66.335 62, 66.221 61.328, 64.474 57.950 C 62.930 54.964, 62 54.213, 62 55.953 M 53.894 61.349 C 51.477 63.192, 44.827 67.908, 39.116 71.829 C 33.231 75.870, 29.331 79.149, 30.116 79.396 C 36.148 81.299, 37.014 81.098, 42.670 76.491 C 45.751 73.981, 51.361 70.093, 55.136 67.850 C 58.911 65.607, 62 63.620, 62 63.433 C 62 62.378, 59.569 58, 58.983 58 C 58.601 58, 56.310 59.507, 53.894 61.349 M 33.934 91.483 C 30.159 99.151, 30.192 104.661, 34.060 112.406 C 36.177 116.645, 47.923 129.027, 49.787 128.984 C 50.179 128.975, 52.300 127.955, 54.500 126.718 C 64.703 120.983, 63.781 108.763, 52.170 95.841 C 47.994 91.193, 39.823 85, 37.867 85 C 37.459 85, 35.689 87.917, 33.934 91.483" stroke="none" fill="black" fill-rule="evenodd"/>
</svg>