<svg xmlns="http://www.w3.org/2000/svg" width="200" height="200" viewBox="0 0 200 200" version="1.1">
	<path d="M 80.925 15.833 C 75.309 19.394, 66.172 29.555, 65.195 33.326 C 64.701 35.232, 62.471 37.604, 58.478 40.469 L 52.500 44.759 52.500 39.902 C 52.500 35.919, 51.999 34.547, 49.714 32.273 C 46.937 29.509, 46.888 29.501, 34.314 29.717 C 22.814 29.914, 21.491 30.129, 19.332 32.158 C 13.939 37.224, 12.867 50.214, 15.144 82.863 C 16.077 96.235, 16.031 101.135, 14.894 109.383 C 13.202 121.662, 13.215 134.935, 14.926 140.964 C 15.700 143.692, 17.715 146.950, 20.108 149.344 C 23.700 152.935, 24.365 153.214, 28.130 152.709 C 33.400 152.003, 38.395 148.008, 43.577 140.357 L 47.654 134.337 52.577 139.750 C 56.543 144.111, 58.132 145.176, 60.753 145.234 C 69.460 145.423, 74.949 131.434, 74.983 108.968 C 74.995 101.076, 74.479 95.710, 73.348 91.968 C 71.132 84.630, 71.260 78.797, 73.822 70.360 C 77.684 57.646, 82.084 54.797, 86.346 62.250 C 93.057 73.987, 93.041 95.889, 86.312 109.318 C 84.421 113.091, 84.032 115.042, 84.517 118.318 C 85.835 127.219, 80.410 140.264, 66.545 161.529 C 54.991 179.249, 54.354 181, 59.460 181 C 64.483 181, 85.257 162.770, 95.062 149.757 C 104.771 136.873, 112.616 119.592, 117.544 100.236 C 119.365 93.082, 119.454 92.955, 123.410 91.889 C 136.198 88.446, 142.991 97.411, 141.654 115.968 C 140.716 128.997, 136.258 143.879, 130.616 152.816 C 128.355 156.398, 128.007 156.564, 122.607 156.642 C 106.346 156.877, 111.345 172.859, 130.410 181.587 C 142.066 186.924, 152.949 184.021, 158.326 174.142 C 162.300 166.841, 169.989 128.585, 170.716 112.500 C 171.320 99.118, 170.295 92.254, 166.535 84.500 C 162.033 75.218, 162.028 75.216, 155.340 80.309 C 146.005 87.415, 139.189 88.722, 131.323 84.914 C 123.679 81.214, 119.716 73.009, 122.433 66.507 C 123.568 63.788, 125.070 62.414, 128.620 60.844 C 132.980 58.915, 134.430 58.820, 149.403 59.469 C 159.871 59.923, 166.448 59.802, 168.210 59.124 C 175.509 56.312, 177.363 49.166, 171.971 44.629 C 164.867 38.651, 152.170 40.677, 140.367 49.671 C 137.437 51.904, 136.736 52.008, 129.498 51.279 L 121.761 50.500 113.826 36.638 C 109.461 29.014, 106.046 22.620, 106.237 22.429 C 106.428 22.239, 109.881 21.571, 113.912 20.946 C 124.704 19.271, 134.761 21.330, 136.379 25.545 C 137.534 28.555, 136.966 33.479, 134.950 37.922 C 133.618 40.859, 133.278 42.678, 133.940 43.340 C 135.347 44.747, 139.978 34.449, 139.990 29.885 C 140.002 25.702, 137.258 21.702, 132.794 19.394 C 129.194 17.532, 116.041 17.305, 108.595 18.977 C 104.015 20.005, 103.519 19.918, 101.095 17.661 C 94.992 11.978, 88.003 11.344, 80.925 15.833 M 84.500 16.867 C 80.740 18.581, 68 31.015, 68 32.972 C 68 33.466, 71.713 32.143, 76.250 30.032 C 80.787 27.920, 87.993 24.964, 92.261 23.463 C 98.962 21.106, 99.851 20.525, 98.761 19.211 C 97.399 17.568, 91.865 14.986, 89.782 15.022 C 89.077 15.034, 86.700 15.864, 84.500 16.867 M 93.021 26.084 C 88.357 27.697, 80.868 30.836, 76.378 33.060 C 69.225 36.604, 68.284 37.377, 68.772 39.302 C 71.142 48.653, 80.832 51.978, 105.750 51.992 C 113.037 51.997, 119 51.818, 119 51.595 C 119 51.151, 106.276 28.861, 103.961 25.250 C 103.168 24.012, 102.290 23.034, 102.009 23.075 C 101.729 23.117, 97.684 24.470, 93.021 26.084 M 21.354 34.295 C 20.097 35.283, 18.606 37.758, 18.040 39.795 C 16.739 44.480, 16.731 66.154, 18.024 85 C 18.846 96.971, 18.734 101.593, 17.385 111.500 C 13.887 137.187, 18.662 152.310, 29.419 149.610 C 33.710 148.533, 40.395 141.603, 44.007 134.486 C 45.836 130.882, 47.611 128.286, 47.951 128.717 C 48.290 129.147, 50.264 132.043, 52.337 135.151 C 54.621 138.574, 57.325 141.306, 59.197 142.082 C 62.116 143.291, 62.444 143.187, 65.093 140.222 C 72.492 131.942, 75.030 105.235, 69.889 89.754 C 68.080 84.305, 68.063 83.605, 69.569 76.254 C 74.352 52.909, 84.142 48.199, 91.187 65.853 C 93.142 70.752, 93.444 73.355, 93.470 85.500 C 93.498 98.796, 93.355 99.827, 90.614 106 C 88.405 110.976, 87.673 114.259, 87.491 120 C 87.117 131.868, 83.220 140.745, 68.190 163.971 C 60.015 176.605, 59.286 178, 60.855 178 C 62.557 178, 78.906 163.973, 85.705 156.679 C 99.791 141.569, 109.253 122.398, 116.010 95.280 C 116.995 91.323, 117.383 90.964, 122.212 89.530 C 125.045 88.688, 128.069 87.997, 128.932 87.993 C 129.894 87.989, 129.375 87.245, 127.586 86.066 C 119.841 80.960, 116.744 70.387, 120.983 63.528 C 125.049 56.949, 131.245 55.835, 157.504 56.962 C 169.310 57.469, 175.114 53.875, 171.470 48.314 C 167.053 41.573, 153.428 43.097, 142.313 51.575 C 139.193 53.955, 138.564 54.027, 117.805 54.410 C 91.657 54.892, 82.482 54.003, 75.064 50.269 C 70.858 48.151, 69.048 46.504, 67.373 43.264 L 65.181 39.028 59.341 43.341 C 51.720 48.967, 51.378 49.451, 50.092 56.434 C 48.516 64.997, 48.748 76.172, 50.669 84.128 C 52.113 90.110, 52.189 92.717, 51.237 103.460 C 49.869 118.891, 47.693 123.842, 43.821 120.338 C 39.499 116.426, 38.923 94.578, 42.782 80.911 C 44.583 74.530, 44.585 74.215, 42.821 70.927 C 39.749 65.198, 40.901 58.955, 46.361 51.750 C 48.967 48.311, 50.626 40.630, 49.624 36.639 C 48.706 32.981, 44.538 31.833, 33.459 32.186 C 25.866 32.429, 23.120 32.907, 21.354 34.295 M 45.116 59.098 C 43.800 62.873, 43.696 66.972, 44.870 68.823 C 45.397 69.655, 45.964 67.659, 46.395 63.447 C 47.172 55.860, 46.748 54.416, 45.116 59.098 M 45.104 82.090 C 42.193 92.609, 42.913 120.508, 46.015 117.377 C 48.768 114.598, 49.853 91.071, 47.618 82.590 L 46.324 77.680 45.104 82.090 M 155.654 83.480 C 151.379 87.257, 144.451 90, 139.187 90 L 135.730 90 138.287 92.011 C 142.539 95.356, 144.517 102.167, 144.381 113 C 144.201 127.440, 138.671 146.632, 132.062 155.756 C 129.274 159.605, 129.041 159.710, 124.333 159.258 C 120.554 158.895, 118.954 159.217, 117.106 160.713 C 114.757 162.615, 114.751 162.673, 116.477 166.311 C 119.832 173.381, 130.607 180.342, 140.081 181.560 C 143.515 182.002, 145.503 181.613, 149 179.814 C 155.675 176.381, 158.018 170.744, 163.056 146 C 168.435 119.577, 169.431 102.048, 166.161 91.342 C 164.138 84.721, 161.622 79.956, 160.193 80.042 C 159.812 80.065, 157.770 81.612, 155.654 83.480" stroke="none" fill="black" fill-rule="evenodd"/>
</svg>