<svg xmlns="http://www.w3.org/2000/svg" width="200" height="200" viewBox="0 0 200 200" version="1.1">
	<path d="M 62 32 C 62 53.138, 62.489 51.848, 55.039 50.358 C 50.723 49.495, 50.345 47.858, 53.419 43.335 C 56.150 39.315, 56.759 34.287, 54.929 30.867 C 53.170 27.581, 45.108 23.128, 35.125 19.931 C 29.964 18.277, 25.545 17.122, 25.304 17.362 C 25.064 17.603, 25.354 22.007, 25.950 27.150 C 28.320 47.620, 28.346 68.310, 26.026 87.500 C 24.821 97.472, 23.603 114.866, 23.295 126.500 C 22.751 147.105, 22.792 147.688, 25.465 157.483 C 29.455 172.103, 32.973 178, 37.703 178 C 38.998 178, 43.646 175.542, 48.034 172.537 C 61.619 163.233, 70.092 162.676, 77.313 170.611 C 80.860 174.509, 81.825 175.032, 85.099 174.839 C 87.154 174.718, 89.542 175.205, 90.405 175.922 C 91.731 177.022, 92.794 176.710, 97.238 173.919 C 130.841 152.809, 138.214 144.288, 149.076 114 L 153.200 102.500 151.962 86 C 150.439 65.697, 151.130 60.602, 152.938 78.803 C 153.799 87.472, 154.068 98.621, 153.708 110.803 C 152.949 136.562, 150.315 146.298, 142.322 152.886 L 138.587 155.965 139.801 163.048 C 142.514 178.868, 149.373 184.641, 158.646 178.910 C 163.217 176.085, 170.487 165.656, 174.472 156.207 C 179.971 143.169, 182.155 133.026, 182.698 118 C 183.248 102.801, 181.855 93.732, 177.514 84.249 L 174.952 78.654 176.953 72.577 C 182.021 57.183, 183.612 41.558, 181.064 32.193 C 178.503 22.779, 169.876 17.150, 159.828 18.336 C 150.361 19.453, 137.013 29.003, 131.306 38.741 C 124.902 49.669, 124.686 51.034, 124.589 81.198 C 124.490 111.884, 123.837 115.447, 119.962 106.415 C 114.560 93.824, 111.043 68.100, 114.280 64.863 C 115.913 63.230, 120 41.780, 120 34.843 C 120 29.429, 117.607 24.234, 114.452 22.796 C 112.276 21.805, 110.606 21.918, 105.150 23.425 C 90.437 27.490, 85.764 28.178, 81.006 26.982 C 75.498 25.598, 70.768 22.118, 67.328 16.919 C 62.490 9.608, 62 10.995, 62 32 M 65 34.906 L 65 51.268 80.336 50.555 L 95.672 49.842 98.530 55.301 C 101.282 60.556, 101.325 60.855, 99.702 63.333 C 98.618 64.987, 96.693 66.155, 94.314 66.601 C 91.105 67.203, 78.612 66.117, 68.250 64.336 C 65.020 63.781, 65 63.802, 65 67.889 L 65 72 71.250 72.007 C 80.877 72.018, 95.846 74.550, 98.044 76.540 C 100.336 78.614, 99.790 79.749, 95.630 81.560 C 92.635 82.863, 92.835 82.923, 100.281 82.961 C 106.469 82.992, 108.189 83.328, 108.677 84.601 C 109.015 85.482, 108.664 86.591, 107.896 87.068 C 106.530 87.915, 89.178 92.218, 73.750 95.535 C 67.388 96.902, 66 97.541, 66 99.100 C 66 100.868, 66.889 101, 78.750 100.994 C 85.763 100.991, 93.240 100.506, 95.366 99.915 C 99.732 98.703, 104.345 99.459, 103.741 101.287 C 103.520 101.955, 100.679 102.775, 97.420 103.111 C 94.164 103.447, 85.987 105.205, 79.250 107.018 C 68.411 109.934, 67 110.560, 67 112.460 L 67 114.607 81.750 113.277 C 98.043 111.808, 103.150 111.905, 103.736 113.691 C 104.270 115.317, 99.615 117.572, 91.536 119.601 L 84.795 121.295 87.808 122.561 C 91.165 123.973, 92.044 126.216, 90.762 130.107 C 90.104 132.106, 90.482 133.800, 92.382 137.375 C 96.969 146, 96.730 160.540, 91.865 168.905 C 88.512 174.670, 91.395 174.389, 101.403 167.977 C 129.838 149.756, 135.833 142.488, 146.190 113.677 L 150.207 102.500 148.993 83 C 147.658 61.545, 147.851 53.870, 149.744 53.247 C 151.490 52.672, 152.863 56.857, 154.738 68.471 C 157.120 83.232, 157.112 124.899, 154.725 134.318 C 152.173 144.389, 149.180 150.635, 145.255 154.081 C 141.873 157.051, 141.784 157.312, 142.447 162.324 C 143.350 169.151, 146.209 175.435, 149.346 177.491 C 151.711 179.040, 152.119 179.037, 155.483 177.441 C 161.504 174.584, 167.769 165.723, 172.993 152.676 C 182.415 129.146, 182.809 100.268, 173.946 82.895 L 171.927 78.936 174.970 69.436 C 181.606 48.718, 181.281 33.440, 174.039 25.676 C 170.596 21.985, 169.771 21.611, 164.189 21.207 C 158.980 20.830, 157.182 21.195, 151.798 23.720 C 144.563 27.112, 137.537 33.521, 133.500 40.409 C 127.684 50.334, 127.547 51.254, 127.523 80.500 C 127.504 102.500, 127.222 108.042, 126 110.426 C 125.175 112.036, 123.978 113.522, 123.339 113.730 C 119.863 114.860, 114.560 102.453, 111.545 86.140 C 109.459 74.849, 109.564 67.778, 111.886 63.210 C 114.121 58.814, 117 42.960, 117 35.046 C 117 28.678, 115.051 24.993, 111.693 25.012 C 110.487 25.019, 105.453 26.144, 100.507 27.512 C 84.588 31.916, 74.683 30.292, 67.999 22.182 L 65 18.544 65 34.906 M 28.389 24.647 C 28.719 26.766, 29.486 35.475, 30.094 44 C 31.257 60.309, 30.822 72, 28.346 91 C 27.522 97.325, 26.601 112.625, 26.299 125 C 25.764 146.938, 25.815 147.743, 28.348 157.236 C 31.737 169.939, 34.304 175, 37.358 175 C 38.632 175, 42.225 173.174, 45.342 170.942 C 53.940 164.784, 59.140 162.819, 66.682 162.877 C 72.430 162.921, 73.108 162.728, 72.512 161.214 C 71.720 159.200, 68.484 146.037, 67.543 141 C 67.139 138.836, 65.764 136.612, 63.943 135.173 L 60.998 132.846 52.561 138.020 C 47.920 140.866, 43.611 142.878, 42.984 142.490 C 41.684 141.686, 48.317 136.972, 59.305 130.891 C 66.406 126.961, 66.449 126.912, 62.594 127.204 C 57.595 127.583, 56.681 125.470, 61.456 124.574 C 64.565 123.991, 65 123.547, 65 120.955 L 65 118 56.969 118 C 50.527 118, 48.816 117.683, 48.323 116.399 C 47.546 114.374, 48.890 113.532, 57.250 110.807 C 62.839 108.985, 64 108.232, 64 106.432 C 64 104.563, 63.264 104.162, 58.750 103.573 C 50.400 102.484, 49 101.951, 49 99.860 C 49 97.687, 49.287 97.553, 57.307 95.976 C 62.973 94.862, 63.107 94.760, 62.807 91.784 L 62.500 88.734 55 88.617 C 49.052 88.524, 47.500 88.190, 47.500 87 C 47.500 85.886, 49.367 85.271, 54.750 84.611 L 62 83.723 62 78.768 L 62 73.812 56.750 74.519 C 53.862 74.908, 51.352 75.361, 51.170 75.526 C 50.989 75.691, 51.603 76.991, 52.535 78.413 C 54.522 81.445, 54.215 81.547, 49.652 79.371 C 46.707 77.967, 46.151 77.121, 45.618 73.232 C 44.676 66.354, 44.836 65.164, 47 63 C 48.590 61.410, 50.333 61, 55.500 61 L 62 61 62 57.617 C 62 54.034, 60.487 53.043, 54.973 53.014 C 51.902 52.997, 48 50.428, 48 48.423 C 48 47.619, 49.200 45.059, 50.667 42.736 C 54.351 36.900, 54.168 33.338, 50.004 29.862 C 46.576 27, 37.068 22.793, 31.145 21.518 L 27.790 20.795 28.389 24.647 M 71.250 53.723 L 65 54.095 65 57.502 C 65 61.297, 64.405 61.055, 78.500 62.996 C 89.198 64.470, 95.534 64.267, 97.082 62.401 C 98.200 61.055, 98.100 60.224, 96.455 57.151 L 94.500 53.500 86 53.425 C 81.325 53.384, 74.688 53.518, 71.250 53.723 M 51.500 63.677 C 48.583 64.394, 47.109 66.760, 47.851 69.534 C 48.208 70.870, 48.837 71.971, 49.250 71.981 C 49.663 71.991, 52.726 72, 56.057 72 L 62.115 72 61.807 67.750 C 61.503 63.540, 61.462 63.499, 57.500 63.343 C 55.300 63.257, 52.600 63.407, 51.500 63.677 M 65 78.805 L 65 83.754 69.750 83.291 C 78.560 82.431, 93.246 79.962, 94.836 79.072 C 96.873 77.932, 91.159 76.350, 82 75.517 C 78.425 75.192, 73.138 74.685, 70.250 74.391 L 65 73.856 65 78.805 M 87 86.602 C 85.625 86.768, 80.196 87.187, 74.935 87.532 L 65.370 88.159 65.798 91.079 C 66.034 92.686, 66.644 94, 67.154 94 C 68.676 94, 100.465 86.853, 100.917 86.409 C 101.368 85.966, 91.077 86.109, 87 86.602 M 56.500 98.896 C 54.011 99.443, 53.812 99.678, 55.332 100.277 C 58.602 101.567, 63 101.122, 63 99.500 C 63 97.932, 61.516 97.794, 56.500 98.896 M 66 105.500 C 66 107.365, 68.202 107.379, 74 105.552 L 78.500 104.134 72.250 104.067 C 67.331 104.014, 66 104.320, 66 105.500 M 57 113.500 L 53.500 114.848 58.750 114.924 C 62.784 114.982, 64 114.653, 64 113.500 C 64 111.690, 61.701 111.690, 57 113.500 M 78 116.384 C 67.618 117.487, 67.504 117.528, 67.848 120 C 68.039 121.375, 68.290 122.601, 68.405 122.724 C 68.687 123.025, 95.385 115.921, 95.917 115.405 C 96.565 114.775, 89.506 115.161, 78 116.384 M 75.500 126.464 L 72.500 127.838 76.782 127.919 C 79.137 127.963, 82.604 128.644, 84.487 129.430 C 87.665 130.758, 87.953 130.723, 88.519 128.939 C 88.855 127.882, 88.848 126.564, 88.506 126.009 C 87.605 124.552, 79.019 124.852, 75.500 126.464 M 71.250 130.706 C 69.010 131.137, 68.332 133.402, 69.768 135.658 C 71.159 137.845, 77.269 138.187, 80.940 136.284 C 85.699 133.817, 85.806 132.318, 81.312 131.070 C 77.453 129.998, 75.324 129.921, 71.250 130.706 M 84.102 137.652 C 81.592 139.387, 79.332 140, 75.451 140 L 70.198 140 72.032 148.250 C 75.201 162.509, 75.878 163.764, 82.323 167.326 C 88.874 170.948, 88.978 170.894, 91.504 162.568 C 93.412 156.279, 93.409 148.741, 91.497 142.301 C 89.475 135.493, 88.298 134.753, 84.102 137.652 M 80 169.942 C 80 171.050, 83.924 173.409, 84.617 172.716 C 84.862 172.471, 83.923 171.525, 82.531 170.612 C 81.139 169.700, 80 169.398, 80 169.942" stroke="none" fill="black" fill-rule="evenodd"/>
</svg>