<svg xmlns="http://www.w3.org/2000/svg" width="200" height="200" viewBox="0 0 200 200" version="1.1">
	<path d="M 80.030 15.113 C 78.671 15.655, 76.027 17.267, 74.155 18.696 C 70.814 21.244, 70.532 21.281, 59.125 20.692 C 52.731 20.361, 45.250 19.400, 42.500 18.556 C 39.750 17.712, 37.439 17.017, 37.364 17.011 C 37.290 17.005, 37.290 20.262, 37.364 24.250 C 37.522 32.669, 39.352 34.097, 39.806 26.156 C 40.093 21.131, 40.249 20.846, 42.419 21.390 C 46.922 22.520, 58.571 23.961, 63.366 23.980 L 68.233 24 64.724 27.884 C 61.240 31.740, 59 38.409, 59 44.924 C 59 54.729, 62.692 59.036, 73.116 61.390 C 81.780 63.347, 83 64.239, 83 68.622 L 83 72 76.400 72 C 70.273 72, 69.565 72.235, 66.516 75.284 C 61.508 80.292, 60.562 86.562, 61.944 105.600 C 63.162 122.382, 62.695 129.311, 60.052 133.676 C 58.401 136.404, 58.430 136.687, 60.921 142 C 64.636 149.925, 64.498 160.077, 60.557 168.762 C 56.228 178.303, 47.519 185.056, 43.095 182.301 C 39.507 180.067, 38.945 175.359, 39.480 152 C 39.763 139.625, 40.054 118.044, 40.127 104.043 L 40.259 78.586 31.542 75.681 C 26.748 74.083, 23.202 72.450, 23.662 72.053 C 24.123 71.656, 26.642 70.542, 29.259 69.579 C 38.455 66.195, 43.060 58.457, 41.330 49.295 C 40.196 43.291, 38.422 44.274, 38.830 50.681 C 39.430 60.101, 34.662 65.729, 23.250 69.072 C 15.473 71.350, 17.956 74.157, 31.857 78.803 L 37.213 80.593 36.869 121.547 C 36.396 177.635, 36.369 176.099, 37.909 179.797 C 39.580 183.810, 44.070 186.363, 47.956 185.510 C 52.263 184.564, 58.304 178.784, 61.737 172.326 C 67.303 161.856, 67.907 151.107, 63.514 140.663 C 62.020 137.110, 62.027 136.497, 63.602 132.372 C 65.088 128.481, 65.222 125.354, 64.657 107.708 C 63.950 85.614, 64.515 81.031, 68.426 77.119 C 71.049 74.497, 75.263 73.869, 82.500 75.022 C 85.484 75.497, 85.502 75.471, 85.802 70.257 C 86.217 63.057, 83.918 60.850, 73.623 58.559 C 66.874 57.058, 65.611 56.424, 63.866 53.667 C 62.169 50.984, 61.935 49.309, 62.339 42.715 C 62.827 34.741, 63.514 33.070, 68.659 27.332 L 71.500 24.163 85.619 23.723 L 99.739 23.282 101.807 27.539 C 108.455 41.224, 105.508 61.452, 96.619 63.142 C 95.585 63.339, 94.022 64.581, 93.146 65.903 L 91.553 68.307 95.237 67.615 L 98.922 66.924 100.710 72.712 C 102.051 77.053, 102.488 81.750, 102.458 91.500 C 102.422 103.190, 102.139 105.256, 99.641 112 C 98.114 116.125, 96.690 121.525, 96.476 124 C 95.639 133.701, 90.975 142.789, 76.458 163 C 65.614 178.098, 64.457 180.143, 65.387 182.565 C 67.003 186.777, 81.928 180.911, 93.936 171.344 C 106.722 161.157, 118.878 142.996, 123.951 126.500 C 125.135 122.650, 127.210 112.750, 128.561 104.500 C 131.684 85.439, 132.811 80.500, 135.230 75.288 C 138.639 67.941, 142.420 68.551, 148.813 77.479 L 152.723 82.939 151.361 88.187 C 150.529 91.395, 149.997 98.891, 149.992 107.468 C 149.984 122.659, 148.816 135.544, 146.853 142.097 C 146.171 144.372, 143.735 148.308, 141.439 150.844 C 137.572 155.115, 136.833 155.493, 131.402 155.977 C 126.128 156.448, 125.444 156.773, 124.586 159.223 C 122.526 165.107, 132.644 179.229, 142.254 183.881 C 147.336 186.341, 154.832 186.662, 158.800 184.589 C 171.704 177.848, 177.943 153.323, 178.029 109 C 178.060 93.332, 178.361 89.658, 180 85 C 184.063 73.449, 182.034 64.635, 174.078 59.274 C 167.544 54.870, 153.775 56.961, 143.460 63.922 L 138.890 67.006 136.893 62.491 C 133.632 55.120, 132.578 46.770, 133.814 38.096 C 135.294 27.702, 137.962 19.823, 140.199 19.238 C 141.298 18.950, 142 17.838, 142 16.383 C 142 13.685, 140.420 13.310, 138.058 15.447 C 136.977 16.426, 130.789 17.450, 118.947 18.611 L 101.435 20.328 97.067 17.164 C 93.474 14.561, 91.796 14.011, 87.600 14.063 C 84.795 14.098, 81.388 14.570, 80.030 15.113 M 82.500 17.225 C 80.850 17.812, 78.612 18.901, 77.527 19.646 C 75.813 20.823, 76.975 21, 86.400 21 C 95.871 21, 97.089 20.812, 96.014 19.517 C 94.864 18.131, 88.737 15.920, 86.500 16.085 C 85.950 16.125, 84.150 16.638, 82.500 17.225 M 116.614 21.601 C 109.527 22.337, 103.500 23.167, 103.221 23.445 C 102.943 23.724, 103.165 24.525, 103.716 25.226 C 105.957 28.080, 108 36.768, 107.994 43.428 C 107.988 51.884, 106.829 56.500, 103.469 61.450 C 101.017 65.064, 100.999 65.230, 102.549 69.796 C 106.858 82.487, 106.599 100.994, 101.936 113.627 C 100.744 116.857, 99.381 122.425, 98.907 126 C 97.763 134.624, 92.157 145.829, 81.807 160.175 C 70.672 175.611, 68 179.610, 68 180.841 C 68 181.472, 70.225 181.127, 73.570 179.976 C 93.475 173.128, 112.677 151.707, 120.964 127.106 C 122.111 123.701, 124.383 112.891, 126.013 103.085 C 129.232 83.713, 131.845 73.933, 134.622 70.865 C 136.179 69.144, 136.240 68.502, 135.108 65.700 C 131.881 57.710, 130.939 52.927, 130.935 44.500 C 130.931 36.647, 131.535 32.974, 134.592 22.250 C 135.350 19.591, 135.819 19.608, 116.614 21.601 M 159.363 60.041 C 157.088 60.490, 152.386 62.291, 148.915 64.043 L 142.604 67.229 145.750 69.864 C 147.480 71.314, 150.454 74.849, 152.359 77.719 L 155.823 82.938 154.335 87.719 C 153.342 90.911, 152.579 99.980, 152.040 115 C 151.129 140.408, 150.153 145.125, 144.422 151.820 C 140.227 156.721, 135.962 159.207, 132.170 158.961 C 127.647 158.668, 127 158.930, 127 161.050 C 127 165.673, 133.307 174.750, 139.423 178.926 C 148.181 184.908, 154.480 185.152, 160.633 179.749 C 165.187 175.751, 167.522 171.005, 170.478 159.736 C 173.846 146.900, 175 134.406, 175.001 110.789 C 175.001 92.923, 175.240 89.872, 177.001 85.239 C 179.382 78.972, 179.605 70.071, 177.483 65.967 C 174.883 60.940, 167.328 58.469, 159.363 60.041" stroke="none" fill="black" fill-rule="evenodd"/>
</svg>