<svg xmlns="http://www.w3.org/2000/svg" width="200" height="200" viewBox="0 0 200 200" version="1.1">
	<path d="M 74.865 20.661 C 64.785 35.513, 54.281 46.273, 43.851 52.431 C 31.380 59.794, 18 68.917, 18 70.057 C 18 72.212, 21.072 71.924, 34.331 68.525 C 49.527 64.631, 55.385 64.180, 58.891 66.636 C 60.861 68.016, 61.144 68.887, 60.700 72.197 C 60.411 74.356, 58.447 79.081, 56.337 82.697 C 52.694 88.939, 52.178 89.387, 46.140 91.550 C 37.611 94.605, 33.098 98.400, 29.500 105.543 L 26.500 111.500 26.500 141.746 C 26.500 164.443, 26.797 171.994, 27.689 171.996 C 29.643 172.002, 30.068 164.873, 29.777 137 C 29.508 111.264, 29.564 110.380, 31.721 106.347 C 34.806 100.578, 40.443 96.217, 47.413 94.206 C 52.883 92.628, 53.612 92.059, 57.158 86.602 C 62.244 78.776, 64.543 71.454, 63.094 67.702 C 60.405 60.742, 50.737 60.716, 26.500 67.604 C 23.967 68.323, 38.708 58.319, 45.915 54.427 C 53.168 50.510, 64.208 40.037, 71.523 30.136 C 78.336 20.914, 77.826 20.587, 79.946 35.530 L 81.227 44.560 75.240 61.030 C 71.948 70.089, 68.235 80.650, 66.991 84.500 C 63.172 96.312, 63.065 96.432, 52.768 100.423 C 40.333 105.243, 36.783 107.472, 37.184 110.209 C 37.612 113.132, 46.092 117.291, 51.864 117.409 L 56.276 117.500 52.702 118.861 C 48.731 120.374, 46.602 124.374, 44.917 133.491 C 43.097 143.337, 47.175 155.426, 54.404 161.614 C 59.579 166.043, 64.443 167.001, 67.292 164.152 C 71.435 160.010, 69.022 150.118, 60.593 136.693 L 55.313 128.282 56.925 123.919 L 58.536 119.556 70.018 115.840 C 76.333 113.797, 82.412 112.097, 83.527 112.063 C 86.556 111.969, 89.757 114.627, 92.263 119.316 C 94.394 123.302, 94.495 124.541, 94.404 145.500 C 94.239 183.246, 91.539 186.873, 70.996 176.939 C 53.706 168.578, 45.691 167.218, 37.907 171.326 C 33.878 173.453, 27 180.863, 27 183.078 C 27 183.585, 27.675 184, 28.500 184 C 29.325 184, 30 183.551, 30 183.003 C 30 182.454, 31.605 180.230, 33.566 178.059 C 40.917 169.922, 49.695 169.982, 67.626 178.289 C 82.047 184.970, 83.974 185.455, 88.533 183.551 C 94.037 181.251, 95.657 176.400, 97.069 157.990 C 98.340 141.422, 97.886 126.685, 95.929 121 C 95.266 119.075, 93.680 116.093, 92.405 114.373 C 91.130 112.654, 90.367 110.966, 90.710 110.623 C 92.138 109.195, 100.837 110.047, 103.040 111.831 C 104.990 113.410, 105.285 114.544, 105.187 120.081 C 105.124 123.611, 104.615 129.650, 104.056 133.500 C 101.679 149.871, 103.926 170.270, 108.849 177 C 113.386 183.204, 126.690 187.004, 143.838 186.994 C 160.758 186.984, 173.336 183.972, 179.891 178.361 C 185.263 173.763, 185.893 170.345, 182.606 163.627 C 180.179 158.666, 180.099 158.030, 181.231 152.635 C 182.561 146.296, 181.758 143.719, 178.291 143.199 C 177.093 143.019, 171.376 146.169, 164.087 151.023 C 157.378 155.492, 150.001 160.005, 147.694 161.052 C 142.826 163.262, 137.249 163.505, 134.761 161.616 C 131.939 159.473, 129.815 153.059, 129.264 145.018 L 128.748 137.500 144.124 137.500 C 158.128 137.500, 159.873 137.300, 163.684 135.263 C 165.985 134.033, 168.573 132.021, 169.434 130.791 C 174.863 123.039, 165.259 113.074, 153.526 114.285 C 146.967 114.962, 143.047 116.940, 136.934 122.659 L 132.182 127.103 132.712 119.302 C 133.175 112.485, 132.986 111.186, 131.221 109.014 L 129.200 106.529 122.703 108.260 C 119.100 109.220, 114.868 109.724, 113.203 109.391 C 103.228 107.396, 94.603 90.557, 87.111 58.452 C 85.950 53.475, 85 48.671, 85 47.775 C 85 44.122, 102.673 38.153, 109.626 39.458 C 117.099 40.860, 118.855 46.474, 114.648 55.509 C 111.144 63.033, 109.578 70.553, 109.549 80 C 109.527 86.905, 109.959 89.390, 111.847 93.243 C 116.967 103.690, 126.748 105.403, 135.177 97.329 C 140.943 91.807, 144.005 78.911, 142.141 68 C 141.625 64.975, 141.285 62.409, 141.387 62.297 C 141.489 62.186, 143.963 63.277, 146.884 64.723 C 158.567 70.505, 170.990 67.816, 177.100 58.182 C 185.193 45.420, 175.798 34.701, 158 36.390 C 154.425 36.730, 149.025 37.675, 146 38.492 C 142.975 39.308, 138.001 39.982, 134.946 39.988 C 127.351 40.004, 121.744 36.339, 114.614 26.698 C 107.704 17.353, 103.513 13.718, 100.636 14.570 C 96.868 15.686, 93 20.426, 88.067 29.971 L 83.255 39.283 81.824 29.892 C 80.480 21.070, 80.508 20.236, 82.290 16.144 C 83.533 13.290, 83.849 11.449, 83.205 10.805 C 82.561 10.161, 79.684 13.561, 74.865 20.661 M 97.096 20.543 C 94.107 23.948, 89.920 31.448, 86.707 39.153 L 85.183 42.805 90.787 40.240 C 97.504 37.165, 109.261 36.037, 114.026 38.011 C 117.433 39.422, 120 43.513, 120 47.533 C 120 48.980, 118.683 53.166, 117.072 56.835 C 111.620 69.257, 110.554 84.322, 114.547 92.500 C 116.910 97.340, 122.330 100.636, 126.292 99.642 C 130.481 98.590, 135.698 93.352, 137.685 88.203 C 139.979 82.258, 140.025 67.908, 137.775 59.750 C 136.903 56.587, 136.323 54, 136.486 54 C 136.649 54, 138.947 55.788, 141.592 57.974 C 153.036 67.431, 168.142 67.034, 174.742 57.102 C 177.294 53.262, 177.734 46.550, 175.616 43.761 C 171.858 38.811, 160.441 37.690, 147.500 41 C 130.181 45.430, 123.195 42.707, 111.469 26.959 C 102.983 15.562, 101.896 15.076, 97.096 20.543 M 82 52.441 C 82 53.784, 82.369 55.110, 82.819 55.388 C 83.270 55.667, 83.443 54.568, 83.206 52.947 C 82.681 49.373, 82 49.087, 82 52.441 M 79.078 58.295 C 74.559 70.182, 66.889 93.222, 67.311 93.644 C 68.354 94.687, 79.624 86.150, 82.215 82.354 C 87.739 74.262, 87.780 63.425, 82.306 58.268 L 79.937 56.037 79.078 58.295 M 87.229 79.242 C 85.589 83.778, 78.262 90.939, 71.001 95.103 C 65.517 98.247, 64.925 98.942, 63.038 104.444 C 61.917 107.713, 61 110.708, 61 111.099 C 61 111.490, 63.548 111.145, 66.663 110.331 C 69.777 109.518, 75.740 108.711, 79.913 108.537 C 84.086 108.364, 89.983 107.897, 93.018 107.501 C 97.093 106.968, 99.513 107.188, 102.274 108.341 C 107.566 110.552, 108.392 113.341, 107.357 125.500 C 106.888 131, 106.504 141.800, 106.502 149.500 C 106.500 161.585, 106.820 164.427, 108.840 170.276 C 110.881 176.186, 111.676 177.304, 115.059 179.030 C 121.736 182.436, 130.729 183.971, 144 183.968 C 162.784 183.964, 174.923 180.727, 179.905 174.393 C 182.684 170.861, 182.547 168.084, 179.360 163.390 C 176.923 159.799, 176.807 159.173, 177.860 155.236 C 179.351 149.659, 179.307 145.997, 177.750 146.013 C 177.063 146.020, 170.790 149.800, 163.810 154.412 C 145.049 166.812, 137.235 168.633, 131.587 161.921 C 126.967 156.431, 124.603 140.747, 127.480 134.683 C 128.678 132.158, 129.216 128.135, 129.334 120.813 L 129.500 110.500 126.500 110.706 C 124.850 110.820, 120.680 111.212, 117.233 111.578 C 111.590 112.177, 110.584 111.990, 107.139 109.711 C 102.133 106.398, 97.106 98.641, 92.743 87.500 C 90.805 82.550, 89.046 77.906, 88.836 77.179 C 88.625 76.453, 87.902 77.381, 87.229 79.242 M 52.500 103.398 C 42.910 107.273, 40 108.790, 40 109.912 C 40 110.375, 42.349 111.764, 45.220 112.999 C 49.338 114.771, 51.168 115.061, 53.886 114.373 C 57.039 113.574, 57.523 112.929, 59.600 106.750 C 60.848 103.037, 61.561 100.037, 61.184 100.082 C 60.808 100.128, 56.900 101.619, 52.500 103.398 M 62.500 114.464 C 58.638 116.232, 60.434 116.258, 65 114.500 C 66.925 113.759, 67.825 113.138, 67 113.121 C 66.175 113.104, 64.150 113.708, 62.500 114.464 M 146.500 118.875 C 142.588 120.667, 134.357 128.595, 132.173 132.677 C 131.116 134.652, 131.391 134.755, 139.287 135.361 C 156.227 136.662, 168 132.760, 168 125.845 C 168 118.364, 156.066 114.495, 146.500 118.875 M 52.289 121.800 C 50.393 123.005, 48.096 129.329, 47.399 135.263 C 46.264 144.916, 50.820 155.940, 57.922 160.726 C 69.562 168.570, 69.571 156.168, 57.939 137.653 C 52.279 128.642, 52.248 128.550, 53.575 124.788 C 54.903 121.022, 54.605 120.328, 52.289 121.800" stroke="none" fill="black" fill-rule="evenodd"/>
</svg>