<svg xmlns="http://www.w3.org/2000/svg" width="200" height="200" viewBox="0 0 200 200" version="1.1">
	<path d="M 30.450 25.407 C 25.992 27.349, 22.400 32.162, 20.974 38.107 C 19.275 45.191, 20.274 63.734, 23.042 76.500 C 25.626 88.412, 25.337 100.268, 21.862 125 C 19.062 144.920, 18.718 168.082, 21.155 172.500 C 26.005 181.291, 33.697 183.062, 47.500 178.564 C 56.481 175.637, 81.156 173.197, 89.347 174.425 C 93.464 175.042, 94 175.412, 94 177.635 C 94 180.828, 97.349 180.538, 97.811 177.305 L 98.122 175.130 127.311 175.298 C 157.903 175.474, 162.034 175.051, 170.777 170.850 C 175.114 168.767, 178 164.838, 178 161.018 C 178 159.873, 175.590 155.463, 172.645 151.218 C 156.713 128.256, 152.608 116.023, 155.969 101.528 C 156.475 99.344, 156.731 97.398, 156.538 97.204 C 156.344 97.011, 154.752 97.594, 153 98.500 C 151.248 99.406, 149.674 100.002, 149.503 99.824 C 149.332 99.646, 151.848 95.900, 155.096 91.500 C 168.451 73.404, 169.303 65.191, 158.014 63.386 C 155.806 63.033, 154 62.182, 154 61.495 C 154 59.753, 151.673 58.004, 147.259 56.429 C 143.608 55.126, 143.760 55.087, 152.573 55.044 L 161.646 55 166.323 46.129 C 173.115 33.247, 172.353 27.350, 164.218 29.841 C 159.620 31.249, 148.830 39.288, 142.933 45.699 C 138.690 50.312, 138.262 50.520, 132.009 51 C 124.326 51.590, 122.937 53.878, 129.441 55.229 C 131.608 55.680, 133.505 56.172, 133.656 56.323 C 133.808 56.474, 132.822 58.790, 131.466 61.469 C 126.156 71.957, 129.299 79.612, 139.846 81.874 C 142.735 82.493, 146.256 83, 147.672 83 C 149.894 83, 150.068 83.214, 148.945 84.566 C 146.113 87.978, 141.908 89.214, 134.415 88.836 C 127.980 88.511, 125.916 87.854, 116.813 83.238 C 111.141 80.363, 105.241 76.995, 103.703 75.755 L 100.905 73.500 102.507 69 C 103.445 66.365, 103.865 63.178, 103.521 61.310 C 102.758 57.175, 97.964 53.178, 92.773 52.348 L 88.701 51.697 92.601 49.645 C 94.745 48.516, 102.575 45.534, 110 43.018 C 126.749 37.342, 127.651 35.733, 114.500 34.995 L 105.500 34.490 114.500 33.702 C 130.407 32.309, 135.506 31.522, 135.245 30.500 C 134.894 29.126, 118.784 29.362, 106.500 30.921 C 93.645 32.553, 85.496 31.905, 64.064 27.546 C 45.692 23.810, 35.593 23.167, 30.450 25.407 M 34.169 26.982 C 29.532 28.093, 25.438 32.362, 23.966 37.623 C 22.318 43.509, 23.302 66.246, 25.584 75 C 28.092 84.619, 27.761 102.505, 24.624 126.908 C 21.869 148.333, 21.318 163.004, 23.035 169.186 C 23.598 171.213, 25.430 174.025, 27.106 175.436 C 31.092 178.790, 37.790 178.838, 48 175.585 C 52.125 174.270, 58.043 172.880, 61.151 172.495 L 66.801 171.794 63.708 169.030 C 60.998 166.609, 60.623 165.643, 60.690 161.244 C 60.776 155.504, 62.283 150.512, 69.169 133.150 C 78.979 108.414, 81.664 95.188, 79.792 80.833 C 78.791 73.157, 78.855 71.870, 80.354 69.583 C 82.566 66.207, 86.492 66.202, 93.133 69.567 C 95.919 70.979, 98.354 71.979, 98.544 71.790 C 98.734 71.600, 99.462 69.301, 100.163 66.681 C 101.066 63.305, 101.132 61.433, 100.391 60.258 C 98.379 57.068, 94.430 54.957, 89.349 54.355 C 84.769 53.813, 83.764 54.067, 79.863 56.751 C 73.615 61.052, 66.608 68.875, 63.413 75.117 C 60.025 81.738, 59.079 93.544, 61.283 101.716 C 62.524 106.318, 62.482 108.493, 60.927 120.216 C 58.234 140.517, 56.420 146.114, 53.183 144.113 C 50.691 142.573, 49.855 131.798, 49.320 94.353 C 48.798 57.758, 48.852 56.183, 50.638 55.649 C 54.181 54.591, 69.528 52.091, 76.500 51.438 C 81.164 51, 85.669 49.757, 90 47.712 C 93.575 46.024, 100.775 43.168, 106 41.364 L 115.500 38.086 83.809 38.043 C 54.924 38.004, 48.738 37.516, 51.952 35.530 C 52.493 35.195, 57.563 34.504, 63.218 33.994 C 68.873 33.485, 73.950 33.017, 74.500 32.956 C 76.422 32.742, 48.790 27.236, 43.170 26.712 C 40.051 26.422, 36.001 26.543, 34.169 26.982 M 160.288 34.994 C 154.931 38.081, 142 49.506, 142 51.152 C 142 51.670, 146.033 51.949, 151.186 51.788 L 160.373 51.500 164.105 44.500 C 170.584 32.348, 169.513 29.679, 160.288 34.994 M 68.500 55.110 C 65.200 55.587, 60.196 56.452, 57.380 57.032 L 52.260 58.088 51.630 62.684 C 50.245 72.787, 51.968 130.863, 53.849 137.500 C 54.668 140.388, 54.742 140.295, 55.822 135 C 56.439 131.975, 57.606 124.550, 58.416 118.500 C 59.697 108.926, 59.703 106.722, 58.459 101.500 C 54.552 85.084, 58.880 71.807, 72.144 59.528 C 78.515 53.628, 78.542 53.660, 68.500 55.110 M 135.135 60.282 C 132.948 63.821, 132.420 66.001, 133.750 65.999 C 136.153 65.997, 149.652 62.729, 150.427 61.963 C 151.491 60.910, 146.425 58.544, 140.885 57.506 C 137.539 56.879, 137.110 57.086, 135.135 60.282 M 139.500 67.996 C 132.058 69.588, 131.518 69.874, 131.754 72.104 C 132.345 77.673, 140.189 80.730, 151.487 79.793 C 156.285 79.395, 156.787 79.530, 155.995 81.009 C 154.333 84.116, 147.277 89.753, 143.486 91.005 C 137.029 93.136, 128.091 91.773, 118.572 87.205 C 113.963 84.994, 107.692 81.585, 104.637 79.631 L 99.081 76.077 96.866 79.288 C 95.648 81.055, 92.615 84.926, 90.127 87.892 C 85.805 93.042, 85.477 93.895, 82.794 106.892 C 77.699 131.572, 76.747 152.454, 80.659 153.728 C 83.883 154.778, 91.946 138.418, 99.178 116.157 C 101.439 109.196, 103.596 103.151, 103.970 102.724 C 104.809 101.769, 126.023 110.420, 127.095 112.154 C 128.281 114.073, 127.282 114.957, 120.480 118.009 C 105.473 124.742, 97.794 137.509, 96.328 158.161 C 95.608 168.308, 96.779 169.714, 99.298 161.723 C 101.188 155.727, 106.863 145.835, 110.757 141.747 C 116.917 135.282, 127.456 133.202, 135.500 136.866 C 139.863 138.853, 146.528 145.627, 148.045 149.617 C 149.746 154.092, 149.184 160.496, 146.829 163.491 C 143.250 168.040, 137.660 169.953, 127.875 169.978 C 117.889 170.003, 112.770 169.189, 113.282 167.655 C 113.503 166.991, 115.539 166.752, 118.571 167.033 C 136.925 168.737, 146.273 165.071, 146.273 156.169 C 146.273 148.246, 138.489 139.458, 130.210 138.034 C 121.461 136.530, 114.238 140.470, 107.972 150.165 C 104.589 155.399, 98.448 170.782, 99.373 171.706 C 100.470 172.803, 146.559 173.125, 154.864 172.094 C 168.323 170.423, 175 167.024, 175 161.845 C 175 160.660, 172.127 155.372, 168.616 150.095 C 155.214 129.953, 151.323 120.023, 152.260 108.348 L 152.756 102.165 149.378 102.713 C 144.189 103.556, 144.958 100.837, 153.128 89.441 C 163.198 75.396, 165.348 69.327, 161.066 67.035 C 158.329 65.571, 148.872 65.992, 139.500 67.996 M 82.535 70.944 C 82.214 71.463, 82.255 76.197, 82.625 81.464 C 83.292 90.949, 83.317 91.023, 85.302 89.270 C 87.832 87.035, 96 76.072, 96 74.910 C 96 73.585, 88.406 70, 85.599 70 C 84.234 70, 82.856 70.425, 82.535 70.944 M 103.615 111.750 C 100.719 121.268, 93.927 139.138, 90.957 145.053 C 88.040 150.864, 82.977 157, 81.099 157 C 76.343 157, 74.308 147.200, 75.917 132.044 C 76.469 126.843, 76.802 122.469, 76.657 122.323 C 76.222 121.889, 65.160 151.134, 63.952 155.909 C 61.132 167.061, 65.142 170.619, 79.460 169.670 C 93.384 168.747, 92.638 169.326, 93.461 158.804 C 95.185 136.768, 102.552 123.691, 117.246 116.583 C 121.060 114.739, 123.789 112.987, 123.310 112.692 C 121.859 111.795, 107.004 106, 106.157 106 C 105.721 106, 104.578 108.588, 103.615 111.750 M 90.750 171.662 C 91.438 171.940, 92.563 171.940, 93.250 171.662 C 93.938 171.385, 93.375 171.158, 92 171.158 C 90.625 171.158, 90.063 171.385, 90.750 171.662" stroke="none" fill="black" fill-rule="evenodd"/>
</svg>