<svg xmlns="http://www.w3.org/2000/svg" width="200" height="200" viewBox="0 0 200 200" version="1.1">
	<path d="M 124.903 19.641 C 117.425 20.412, 99.200 22.784, 84.403 24.912 C 65.708 27.601, 56.943 28.487, 55.676 27.816 C 54.225 27.048, 53.741 27.275, 53.309 28.925 C 52.850 30.681, 51.987 31, 47.699 31 C 38.434 31, 31.107 33.786, 25.403 39.478 C 16.229 48.631, 14.947 56.523, 15.170 102.463 L 15.332 135.929 18.416 138.857 C 24.633 144.758, 29.537 146.494, 40 146.497 C 50.618 146.500, 53.461 145.472, 59.484 139.449 C 66.256 132.677, 69.249 123.893, 72.075 102.500 C 73.483 91.840, 72.798 74.597, 70.550 64.101 C 69.678 60.031, 69.104 56.562, 69.275 56.392 C 70.760 54.907, 93 68.962, 93 71.385 C 93 72.091, 91.184 77.131, 88.965 82.585 C 79.673 105.420, 78.101 114.192, 82.513 118.604 L 85.026 121.117 87.950 119.036 C 92.620 115.711, 103.130 111.135, 107.769 110.408 C 111.659 109.798, 111.977 109.905, 111.349 111.619 C 110.686 113.432, 110.740 113.431, 112.854 111.574 C 114.402 110.214, 115.360 109.960, 116.110 110.710 C 116.860 111.460, 114.732 115.834, 108.878 125.583 C 104.316 133.178, 99.089 141.351, 97.262 143.744 C 93.309 148.922, 93.871 151.128, 98.213 147.474 C 99.897 146.057, 102.203 145.033, 103.337 145.199 C 107.710 145.838, 111.881 158.438, 111.963 171.253 L 112 177.006 94.500 176.346 C 78.858 175.756, 77 175.855, 77 177.284 C 77 179.645, 77.948 179.960, 89.733 181.508 C 108.777 184.011, 135.058 184.978, 152.967 183.836 C 170.355 182.727, 174 181.984, 174 179.548 C 174 177.513, 171.422 175.967, 158.255 170.108 C 133.941 159.287, 131.520 154.121, 147.248 146.618 C 151.236 144.715, 158.325 142.152, 163 140.923 C 167.675 139.693, 172.319 137.926, 173.320 136.996 C 175.049 135.389, 174.924 135.310, 170.790 135.402 C 166.133 135.507, 161.976 133.400, 133.500 116.497 L 120.500 108.781 130.500 109.425 C 136 109.779, 144.669 110.435, 149.765 110.883 C 166.237 112.329, 173.344 109.809, 177.376 101.092 C 179.185 97.182, 179.471 94.867, 179.307 85.500 C 179.034 69.941, 178.693 69.130, 171.126 66.048 C 167.686 64.647, 163.050 61.970, 160.824 60.100 C 157.129 56.996, 156.821 56.371, 157.283 52.927 C 157.586 50.666, 159.584 46.618, 162.269 42.827 C 170.481 31.229, 171.647 27.018, 168.127 21.680 C 166.626 19.403, 166.150 19.167, 165.657 20.452 C 165.122 21.847, 164.793 21.793, 163.023 20.023 C 161.216 18.216, 159.801 18.013, 149.750 18.120 C 143.563 18.186, 132.381 18.870, 124.903 19.641 M 123.500 22.574 C 96.885 25.552, 64.980 30.380, 65.892 31.292 C 66.765 32.165, 69.986 32.042, 88.500 30.431 C 94.916 29.873, 95.817 30.038, 99.294 32.411 C 103.863 35.528, 105.456 35.570, 120.651 32.980 C 135.484 30.451, 149.935 26.646, 156.476 23.547 L 161.500 21.167 148.500 21.199 C 141.350 21.217, 130.100 21.835, 123.500 22.574 M 161.295 24.506 C 157.761 26.981, 141.883 31.762, 129.294 34.141 C 117.258 36.415, 112.988 38, 118.896 38 C 122.423 38, 128.399 41.545, 127.453 43.076 C 126.588 44.475, 123.396 44.182, 122.067 42.581 C 121.420 41.801, 117.652 40.642, 113.695 40.007 C 109.738 39.371, 105.825 38.669, 105 38.446 C 103.789 38.119, 103.477 39.277, 103.382 44.463 C 103.303 48.764, 102.173 54.215, 99.960 60.971 C 97.497 68.491, 96.946 71.346, 97.791 72.191 C 98.637 73.037, 99.207 72.585, 100.032 70.415 C 104.133 59.629, 111.406 62.224, 122.082 78.284 C 125.451 83.353, 127.956 86.600, 127.647 85.500 C 124.522 74.371, 123.206 69, 123.603 69 C 123.865 69, 126.418 70.575, 129.276 72.500 C 132.135 74.425, 134.967 76, 135.571 76 C 136.174 76, 141.425 66.888, 147.238 55.750 C 159.285 32.672, 164.158 23, 163.737 23 C 163.576 23, 162.478 23.678, 161.295 24.506 M 159.105 39 C 155.038 46.975, 148.851 58.815, 145.355 65.312 C 141.860 71.808, 139 77.304, 139 77.523 C 139 78.459, 147.454 80.093, 150.826 79.809 C 155.861 79.386, 156.331 81.219, 151.585 82.774 C 147.382 84.151, 135.616 91.643, 130.232 96.369 C 127.197 99.034, 123.387 104.765, 124.176 105.478 C 124.354 105.639, 132.337 106.552, 141.916 107.507 C 162.553 109.565, 168.235 108.887, 172.465 103.859 C 175.930 99.742, 176.505 97.100, 176.466 85.500 C 176.419 71.413, 176.217 70.939, 169.105 68.194 C 165.819 66.925, 161.188 64.164, 158.815 62.058 C 154.937 58.616, 154.500 57.774, 154.500 53.736 C 154.500 50.101, 155.264 48.167, 158.500 43.604 C 165.031 34.396, 167.158 30.219, 166.818 27.263 C 166.559 25.010, 165.136 27.175, 159.105 39 M 42.217 34.091 C 30.926 36.019, 24.233 41.607, 20.768 52 C 18.731 58.113, 18.579 60.754, 18.226 96.356 L 17.850 134.212 20.175 136.703 C 25.740 142.666, 36.702 145.827, 45.493 144.002 C 62.119 140.550, 69.249 124.159, 69.416 89 C 69.480 75.690, 69.077 69.601, 67.734 63.568 C 66.763 59.205, 65.714 55.380, 65.402 55.068 C 64.494 54.159, 48.604 53.844, 47.476 54.712 C 46.789 55.240, 46.715 62.483, 47.252 76.697 C 47.693 88.356, 47.704 100.634, 47.276 103.981 C 46.011 113.902, 43.300 111.204, 43.100 99.826 C 43.032 95.958, 41.994 91.659, 39.842 86.326 C 34.344 72.705, 34.741 61.164, 40.898 55.593 C 43.104 53.596, 43.600 48.131, 42.041 43 L 41.281 40.500 40.140 43.315 C 39.513 44.863, 39 46.551, 39 47.065 C 39 47.579, 38.316 48, 37.481 48 C 36.329 48, 36.123 47.335, 36.627 45.250 C 37.855 40.178, 38.959 37.953, 40.552 37.342 C 42.981 36.410, 43.996 38.120, 45.151 45.095 L 46.213 51.500 55.493 51.500 L 64.774 51.500 62.813 46.500 C 61.734 43.750, 59.867 39.700, 58.662 37.500 C 56.641 33.807, 56.128 33.488, 51.986 33.345 C 49.519 33.259, 45.123 33.595, 42.217 34.091 M 89.750 33.706 C 90.987 33.944, 93.013 33.944, 94.250 33.706 C 95.487 33.467, 94.475 33.272, 92 33.272 C 89.525 33.272, 88.513 33.467, 89.750 33.706 M 62.314 38.638 C 63.667 41.312, 65.352 45.430, 66.057 47.789 C 67.279 51.876, 67.769 52.285, 76.420 56.454 C 81.414 58.861, 87.372 62.443, 89.659 64.415 C 91.946 66.387, 94.064 68, 94.365 68 C 95.560 68, 100.177 51.099, 100.716 44.750 L 101.290 38 94.180 38 C 90.269 38, 85.142 37.364, 82.785 36.588 C 80.428 35.811, 74.304 34.860, 69.176 34.476 L 59.853 33.776 62.314 38.638 M 40.831 59.750 C 38.418 63.898, 37.851 67.960, 38.910 73.534 C 40.162 80.123, 44.206 90.878, 44.783 89.151 C 45.460 87.120, 43.894 57, 43.110 57 C 42.737 57, 41.711 58.237, 40.831 59.750 M 104.253 68.250 C 101.643 71.538, 100.940 76.578, 102.481 80.947 C 104.261 85.991, 104.420 90.751, 102.942 94.685 C 101.609 98.230, 97.756 103.984, 96.708 103.993 C 95.985 103.999, 96.240 97.675, 97.554 82.974 C 97.895 79.170, 97.617 76.858, 96.663 75.554 C 95.393 73.817, 95.002 74.365, 92 82.079 C 85.767 98.096, 83 107.174, 83 111.609 C 83 117.253, 84.570 117.928, 89.888 114.570 C 94.604 111.593, 107.666 107, 111.416 107 C 113.093 107, 115.969 105.214, 119.739 101.829 C 128.985 93.530, 128.952 94.014, 121.112 81.885 C 112.478 68.528, 107.334 64.368, 104.253 68.250 M 128.431 77.581 C 128.797 79.040, 129.356 81.531, 129.673 83.117 C 130.427 86.883, 131.270 86.755, 133.265 82.570 L 134.901 79.139 131.333 77.034 L 127.765 74.929 128.431 77.581 M 134.763 85.180 C 133.257 88.029, 132.147 90.481, 132.296 90.630 C 132.445 90.778, 135.371 88.948, 138.799 86.562 C 144.566 82.549, 144.851 82.179, 142.609 81.617 C 141.276 81.282, 139.581 80.782, 138.843 80.505 C 137.993 80.186, 136.495 81.902, 134.763 85.180 M 100.169 85.500 C 100.064 87.150, 99.746 90.300, 99.463 92.500 C 99.015 95.983, 99.087 96.182, 100.020 94.038 C 100.610 92.684, 100.928 89.534, 100.726 87.038 C 100.499 84.212, 100.288 83.632, 100.169 85.500 M 111.315 126.803 L 102.420 141.563 105.400 143.031 C 107.039 143.839, 109.229 146.168, 110.266 148.207 C 112.590 152.777, 114.918 165.402, 114.965 173.693 L 115 179.885 110.750 180.209 C 108.412 180.387, 113.981 180.915, 123.125 181.382 C 138.021 182.143, 169.458 180.875, 170.877 179.456 C 171.112 179.221, 168.649 177.839, 165.402 176.386 C 147.842 168.522, 142.940 165.941, 139.268 162.623 C 134.513 158.327, 133.808 156.362, 135.543 152.235 C 137.167 148.374, 143.724 144.477, 155.473 140.390 L 164.446 137.268 160.159 135.081 C 157.802 133.879, 148.814 128.718, 140.186 123.613 C 131.559 118.509, 123.535 113.817, 122.355 113.187 C 120.338 112.110, 119.681 112.920, 111.315 126.803 M 97.762 179.707 C 99.006 179.946, 100.806 179.937, 101.762 179.687 C 102.718 179.437, 101.700 179.241, 99.500 179.252 C 97.300 179.263, 96.518 179.468, 97.762 179.707" stroke="none" fill="black" fill-rule="evenodd"/>
</svg>