<svg xmlns="http://www.w3.org/2000/svg" width="200" height="200" viewBox="0 0 200 200" version="1.1">
	<path d="M 97.593 14.250 C 95.787 17.046, 92.913 28.389, 89.550 46 C 88.132 53.425, 86.496 61.862, 85.915 64.750 L 84.858 70 80.540 70 C 78.164 70, 72.651 70.677, 68.289 71.505 C 63.926 72.332, 57.801 73.187, 54.678 73.404 C 49.378 73.772, 49 73.652, 49 71.602 C 49 69.524, 49.350 69.427, 55.450 69.816 C 70.296 70.761, 78.168 61.217, 79.683 40.439 C 80.329 31.574, 79.296 17, 78.022 17 C 76.446 17, 51.108 57.005, 48.729 63.250 C 48.363 64.213, 47.584 65, 46.998 65 C 45.420 65, 36.226 60.221, 30.396 56.371 C 27.590 54.517, 25.061 53, 24.777 53 C 24.493 53, 23.673 55.813, 22.955 59.250 C 22.022 63.718, 21.605 77.190, 21.491 106.500 C 21.388 133.083, 20.870 151.377, 20.019 158.527 C 18.447 171.729, 19.152 177.839, 22.740 182.102 C 25.200 185.027, 25.694 185.189, 30.929 184.796 C 34.827 184.503, 40.456 182.672, 49.674 178.696 C 69.526 170.134, 77.447 168.489, 84.541 171.453 C 87.581 172.723, 88.534 172.723, 92.134 171.453 C 101.769 168.053, 114.394 170.153, 131.312 177.969 C 147.680 185.531, 153.465 185.483, 159.076 177.736 C 163.374 171.804, 166.314 161.635, 165.361 156 C 164.943 153.525, 164.571 133.050, 164.535 110.500 C 164.452 57.908, 164.989 59.843, 151.500 63.494 C 142.136 66.028, 119.785 66.661, 112.672 64.593 C 104.965 62.352, 103.717 59.865, 107.264 53.812 C 108.655 51.439, 110.726 48.653, 111.867 47.621 C 113.821 45.852, 114.138 45.837, 117.371 47.372 C 121.594 49.376, 125.027 49.433, 129.474 47.575 C 132.418 46.345, 133.610 46.344, 138.192 47.563 C 150.742 50.904, 163.492 48.516, 167.272 42.117 C 169.736 37.946, 169.422 35.268, 166.077 31.923 C 160.610 26.456, 151.215 28.641, 138.346 38.372 L 132.191 43.026 126.047 40.361 L 119.902 37.696 117.076 39.786 L 114.250 41.875 111.560 36.933 C 110.080 34.214, 107.559 28.114, 105.958 23.375 C 101.986 11.625, 100.404 9.899, 97.593 14.250 M 97.653 21.750 C 95.092 30.895, 87.911 68.326, 88.449 69.728 C 88.717 70.427, 89.739 71.012, 90.719 71.026 C 91.698 71.041, 94.300 71.871, 96.500 72.872 C 100.109 74.513, 100.891 74.552, 104.500 73.265 C 106.700 72.481, 111.200 71.265, 114.500 70.562 L 120.500 69.285 114.740 68.070 C 107.532 66.549, 103 62.988, 103 58.845 C 103 55.275, 104.187 52.833, 108.554 47.428 L 111.843 43.355 108.437 36.589 C 106.564 32.867, 104.106 26.712, 102.974 22.911 C 101.842 19.110, 100.544 16, 100.089 16 C 99.635 16, 98.539 18.587, 97.653 21.750 M 67.693 36.564 C 58.312 50.967, 51.037 63.697, 51.014 65.750 C 50.989 67.952, 62.697 67.350, 66.582 64.950 C 73.814 60.480, 77.226 49.999, 76.785 33.611 L 76.500 23.042 67.693 36.564 M 150.146 34.020 C 144.911 36.395, 135.588 43.627, 136.798 44.375 C 137.271 44.668, 140.625 45.381, 144.250 45.960 C 155.952 47.830, 166 43.975, 166 37.617 C 166 31.921, 158.514 30.222, 150.146 34.020 M 118.224 42.176 C 115.480 44.920, 122.418 47.312, 127.482 45.368 C 128.711 44.897, 128.070 44.263, 124.955 42.868 C 120.042 40.669, 119.760 40.640, 118.224 42.176 M 25.529 59.762 C 24.960 61.989, 23.875 103.354, 22.670 168.724 C 22.516 177.069, 22.714 178.161, 24.741 180.187 C 28.211 183.654, 32.877 182.842, 49.032 175.960 C 56.990 172.570, 66.896 169.083, 71.046 168.212 C 77.869 166.780, 79.041 166.776, 83.280 168.172 C 87.343 169.510, 88.665 169.534, 93.202 168.358 C 104.470 165.435, 112.801 166.895, 131.577 175.085 C 146.499 181.594, 150.437 182.186, 154.740 178.566 C 156.588 177.010, 158.783 173.561, 160.058 170.208 C 162.177 164.634, 162.224 163.460, 162.051 120.186 C 161.902 82.781, 161.210 65.795, 159.780 64.467 C 159.626 64.323, 156.142 65.064, 152.037 66.112 C 147.932 67.160, 140.138 68.309, 134.717 68.664 C 125.174 69.289, 124.977 69.350, 128.525 70.570 C 139.514 74.347, 141.455 83.199, 138.927 118 C 138.133 128.932, 138.180 135.380, 139.118 144.205 C 140.498 157.180, 139.778 161, 135.956 161 C 133.034 161, 130.345 159.427, 124 154.008 C 119.312 150.004, 118.099 149.421, 115.788 150.058 C 113.177 150.779, 111.551 150.524, 102.229 147.933 C 98.773 146.973, 95.799 147.057, 86.647 148.373 C 67.057 151.191, 62.633 150.509, 58.182 143.985 C 55.955 140.721, 55.835 139.834, 56.293 130 C 56.616 123.076, 57.725 115.942, 59.550 109.053 C 61.761 100.704, 62.046 98.515, 60.965 98.155 C 60.222 97.907, 58.558 96.649, 57.268 95.359 C 55.358 93.449, 55.122 92.641, 55.996 91.007 C 56.587 89.903, 57.730 89, 58.535 89 C 59.341 89, 59.996 88.662, 59.991 88.250 C 59.983 87.593, 52.967 80.267, 47.660 75.374 C 46.449 74.257, 45.961 72.720, 46.232 70.876 C 46.594 68.406, 46.178 67.888, 42.727 66.507 C 40.573 65.646, 36.491 63.466, 33.656 61.663 C 30.820 59.861, 27.989 58.080, 27.364 57.705 C 26.672 57.289, 25.956 58.092, 25.529 59.762 M 113 73.462 C 109.975 74.232, 105.936 75.525, 104.024 76.336 C 100.876 77.671, 100.215 77.641, 97.024 76.027 C 95.086 75.046, 92.092 73.940, 90.371 73.569 C 87.445 72.938, 87.213 73.098, 86.781 76.040 C 86.521 77.811, 86.796 79.362, 87.410 79.589 C 90.680 80.801, 123.366 86.892, 124.116 86.429 C 125.634 85.490, 126.898 90.536, 128.074 102.239 C 129.866 120.059, 127.908 136.558, 123.075 144.379 L 120.956 147.808 126.228 152.268 C 132.068 157.208, 135.714 159.398, 136.193 158.253 C 136.366 157.839, 136.506 140.625, 136.504 120 C 136.500 79.234, 136.453 78.865, 130.824 74.700 C 127.397 72.165, 120.092 71.657, 113 73.462 M 70.250 73.723 C 64.994 74.376, 66.488 75.588, 74.250 76.971 C 78.237 77.682, 82.063 78.477, 82.750 78.739 C 83.584 79.056, 84 78.179, 84 76.107 C 84 73.005, 83.991 73, 78.750 73.160 C 75.862 73.248, 72.037 73.502, 70.250 73.723 M 55.632 76.813 C 54.076 77.129, 54.570 78.010, 58.595 82.096 L 63.425 87 72.604 87 C 81.671 87, 81.791 86.968, 82.440 84.382 C 82.802 82.942, 82.963 81.662, 82.799 81.537 C 81.810 80.787, 57.167 76.501, 55.632 76.813 M 85.521 82.812 C 85.234 83.099, 85 84.158, 85 85.167 C 85 86.656, 85.798 87.001, 89.250 87.008 C 95.283 87.018, 106.187 88.911, 107.766 90.221 C 109.882 91.976, 107.112 93.999, 101.403 94.868 C 98.706 95.279, 96.592 96.039, 96.704 96.558 C 96.816 97.076, 97.480 98.969, 98.179 100.765 C 99.253 103.525, 99.179 104.991, 97.696 110.265 C 96.732 113.694, 95.843 117.063, 95.721 117.752 C 95.509 118.951, 117.797 144.797, 119.161 144.934 C 119.524 144.970, 120.740 143.088, 121.862 140.750 C 125.824 132.500, 127.052 115.839, 124.940 98.998 C 124.358 94.350, 123.697 90.364, 123.472 90.139 C 122.701 89.368, 86.042 82.291, 85.521 82.812 M 70.241 89.724 L 66.982 90.128 73.241 97.505 L 79.500 104.881 80.395 101.941 C 80.887 100.323, 81.947 99, 82.752 99 C 83.608 99, 83.987 99.592, 83.666 100.429 C 82.398 103.733, 81.832 109, 82.745 109 C 83.277 109, 85.805 110.598, 88.362 112.550 L 93.011 116.100 94.129 113.300 C 96.285 107.901, 96.373 101.682, 94.329 99.158 C 92.734 97.189, 91.539 96.840, 86.453 96.865 L 80.457 96.893 80.834 92.947 L 81.210 89 77.355 89.160 C 75.235 89.248, 72.033 89.502, 70.241 89.724 M 84 91.981 C 84 94.124, 83.286 94.105, 98.500 92.355 L 104.500 91.664 100.500 90.890 C 98.300 90.464, 93.688 90.089, 90.250 90.058 C 84.667 90.006, 84 90.212, 84 91.981 M 58.545 91.927 C 57.946 92.897, 63.444 96.988, 65.357 96.996 C 65.828 96.998, 65.907 97.787, 65.531 98.750 C 63.711 103.415, 59.930 119.209, 58.991 126.069 C 57.691 135.564, 58.821 141.575, 62.503 144.750 C 65.511 147.345, 72.847 147.745, 84 145.923 C 93.723 144.335, 102.250 144.548, 107.380 146.507 C 110.094 147.544, 112.955 147.977, 114.509 147.587 C 117.035 146.953, 116.842 146.644, 107.416 136.218 C 102.087 130.323, 96.742 124.463, 95.537 123.196 L 93.347 120.892 90.534 124.950 C 87.258 129.679, 81.936 133.296, 79.585 132.394 C 75.794 130.939, 74.969 124.012, 77.372 113.801 L 78.714 108.102 71.570 99.801 C 66.522 93.934, 63.659 91.410, 61.808 91.193 C 60.368 91.024, 58.899 91.354, 58.545 91.927 M 80.470 112.049 C 79.142 114.197, 78.677 128.682, 79.911 129.445 C 81.626 130.505, 85.612 127.544, 88.652 122.950 L 91.300 118.948 89.210 116.724 C 85.999 113.308, 81.259 110.772, 80.470 112.049" stroke="none" fill="black" fill-rule="evenodd"/>
</svg>