<svg xmlns="http://www.w3.org/2000/svg" width="200" height="200" viewBox="0 0 200 200" version="1.1">
	<path d="M 136 13.614 C 97.141 16.746, 59.886 23.539, 49.385 29.408 C 46.205 31.186, 44.026 31.755, 41.976 31.345 C 36.614 30.273, 32.309 31.865, 26.694 36.997 C 15.463 47.261, 11.605 65.154, 17.060 81.683 C 18.022 84.596, 17.993 87.108, 16.918 93.924 C 14.196 111.195, 15.811 133.019, 20.686 144.838 C 24.270 153.525, 30.600 158.686, 36.172 157.462 C 39.658 156.697, 46.180 150.394, 47.977 146.055 C 49.189 143.128, 49.274 143.101, 55.352 143.657 C 63.056 144.361, 66.011 142.382, 68.669 134.737 C 70.316 129.999, 70.460 126.330, 70.175 96.250 C 70.002 77.963, 70.150 63, 70.504 63 C 70.858 63, 74.655 65.791, 78.942 69.202 L 86.737 75.403 82.388 84.339 C 79.996 89.253, 77.754 94.793, 77.406 96.648 C 75.969 104.308, 82.443 104.897, 94.072 98.164 L 100.990 94.159 102.678 99.829 C 103.606 102.948, 104.396 107.993, 104.433 111.040 C 104.527 118.810, 102.520 121.532, 95.244 123.504 C 92.085 124.360, 87.820 125.513, 85.766 126.066 C 78.815 127.936, 78.442 133.369, 84.566 143.539 L 88.104 149.415 74.552 162.468 C 67.098 169.646, 61 176.051, 61 176.701 C 61 179.610, 64.071 178.707, 78.305 171.613 C 95.719 162.934, 104.614 160.047, 108.495 161.816 C 110.606 162.778, 110.996 163.629, 110.976 167.229 C 110.963 169.578, 109.840 174.200, 108.481 177.500 C 107.121 180.800, 106.007 183.591, 106.005 183.703 C 105.988 184.454, 114.373 185.989, 118.500 185.991 C 126.678 185.994, 131.831 181.523, 134.973 171.699 C 135.642 169.609, 136.709 161.297, 137.344 153.229 L 138.500 138.560 142.579 147.030 C 144.822 151.688, 148.849 160.790, 151.527 167.255 C 155.171 176.052, 156.786 178.906, 157.948 178.597 C 170.276 175.328, 174.672 173.528, 177.685 170.515 C 184.788 163.412, 181.022 157.731, 158.821 142.058 C 152.398 137.524, 146.894 133.166, 146.590 132.375 C 145.666 129.967, 150.386 129, 163.065 129 C 176.417 129, 176.920 128.661, 173.035 122.290 C 169.269 116.112, 159.275 113.238, 140.500 112.931 C 129.782 112.756, 127.576 112.066, 127.189 108.768 C 126.856 105.926, 128.538 102.763, 133.614 96.687 C 136.545 93.179, 136.828 92.203, 137.150 84.486 C 137.342 79.873, 138.024 75.575, 138.664 74.935 C 139.550 74.050, 141.231 74.637, 145.684 77.386 C 155.843 83.656, 164.600 81.735, 174.066 71.161 C 180.283 64.217, 193 43.429, 193 40.212 C 193 39.527, 167.666 44.874, 149.500 49.393 C 147.717 49.837, 149.949 48.083, 155 45.072 C 173.918 33.794, 176.248 24.351, 162.025 16.610 C 157.768 14.293, 155.437 13.754, 148.683 13.527 C 144.183 13.375, 138.475 13.414, 136 13.614 M 133 16.650 C 111.995 18.633, 104.985 19.503, 89.203 22.092 C 65 26.061, 48 31.006, 48 34.077 C 48 35.809, 54.512 37.944, 64.740 39.567 C 70.108 40.419, 75.540 41.330, 76.810 41.592 L 79.120 42.068 76.585 45.082 C 75.190 46.739, 73.367 50.394, 72.532 53.204 C 70.725 59.290, 70.550 58.997, 80.938 67.271 L 88.377 73.195 92.139 65.848 C 94.208 61.806, 95.923 58.182, 95.951 57.794 C 95.978 57.406, 94.130 57.749, 91.844 58.555 C 87.372 60.133, 86.428 59.933, 87.325 57.595 C 88.063 55.673, 93.124 53.063, 96.988 52.613 C 100.195 52.240, 105.745 48.954, 112.825 43.236 C 115.204 41.315, 119.479 38.459, 122.325 36.890 C 125.318 35.240, 126.709 34.029, 125.624 34.018 C 123.029 33.993, 91.463 31.121, 86.250 30.436 C 83.478 30.072, 82 29.377, 82 28.439 C 82 27.647, 82.563 26.993, 83.250 26.985 C 91.772 26.886, 121.682 24.629, 129 23.533 C 139.189 22.006, 151.534 18.562, 152.517 16.973 C 153.088 16.049, 141.414 15.856, 133 16.650 M 156.177 18.223 C 155.530 18.870, 155 20.098, 155 20.952 C 155 21.806, 153.650 27.227, 152 33 C 150.350 38.773, 149 43.862, 149 44.310 C 149 45.547, 158.523 40.100, 162.878 36.373 C 164.993 34.562, 167.303 31.684, 168.010 29.976 C 169.146 27.234, 169.064 26.560, 167.309 24.186 C 164.452 20.323, 157.697 16.703, 156.177 18.223 M 144.741 23.062 C 138.358 25.126, 119.543 27.992, 112.216 28.015 C 109.622 28.024, 106.936 28.389, 106.247 28.826 C 105.558 29.264, 112.308 30.178, 121.247 30.858 C 140.201 32.300, 143.001 32.747, 142.997 34.329 C 142.995 35.074, 141.086 35.500, 137.747 35.501 C 130.305 35.502, 124.517 38.077, 112.968 46.524 C 107.417 50.583, 102.003 54.182, 100.938 54.520 C 99.872 54.858, 99 55.789, 99 56.590 C 99 57.390, 97.173 61.678, 94.940 66.118 C 90.261 75.426, 90.199 75.268, 100 79.115 C 116.385 85.547, 129.559 78.656, 139.889 58.250 L 142.041 54 139.020 54 C 135.110 54, 135.169 52.355, 139.157 50.203 C 144.623 47.253, 145.606 45.600, 148.843 33.908 C 150.581 27.633, 152.002 22.163, 152.001 21.750 C 152 20.776, 151.574 20.853, 144.741 23.062 M 31.500 36.420 C 19.279 43.756, 14.020 63.248, 19.642 80.371 C 21.056 84.677, 21.082 86.129, 19.871 92.871 C 17.978 103.404, 18.220 125.686, 20.320 134.259 C 23.301 146.431, 29.073 155, 34.290 155 C 37.619 155, 42.496 150.496, 45.590 144.565 C 47.695 140.531, 48.915 139.164, 50 139.624 C 50.825 139.975, 53.791 140.477, 56.590 140.741 C 61.175 141.174, 61.885 140.961, 63.739 138.605 C 67.289 134.092, 67.966 125.619, 67.503 91.500 L 67.068 59.500 62.784 55.609 C 56.596 49.989, 50.773 46.565, 51.118 48.750 C 51.184 49.163, 51.184 51.413, 51.118 53.750 C 51.031 56.885, 50.590 58, 49.439 58 C 48.166 58, 47.979 57.122, 48.425 53.250 C 48.947 48.719, 48.922 48.660, 47.903 51.959 C 47.315 53.862, 47.044 56.787, 47.300 58.459 C 47.555 60.132, 46.933 65.325, 45.916 70 C 42.926 83.744, 41.520 101.488, 42.831 108.930 C 44.055 115.878, 44.539 116.861, 46.013 115.387 C 48.226 113.174, 49.234 102.222, 48.649 86.750 C 48.120 72.764, 48.666 68.081, 50.322 72.396 C 51.496 75.455, 52.104 99.872, 51.164 106.188 C 49.831 115.144, 48.148 118.500, 44.991 118.500 C 41.331 118.500, 39.880 112.989, 39.924 99.255 C 39.960 88.030, 40.772 80.971, 43.536 67.827 C 44.341 64, 45 58.299, 45 55.157 C 45 51.525, 45.586 48.608, 46.610 47.147 C 48.619 44.279, 47.828 39.510, 44.810 36.298 C 41.947 33.250, 36.701 33.298, 31.500 36.420 M 50.455 40.743 C 50.755 41.524, 51 42.692, 51 43.338 C 51 43.983, 52.237 45.062, 53.750 45.734 C 55.263 46.405, 59.200 49.154, 62.500 51.841 L 68.500 56.726 70.105 52.113 C 70.988 49.576, 72.041 46.731, 72.446 45.792 C 73.001 44.503, 72.608 43.977, 70.841 43.649 C 69.553 43.410, 64.317 42.338, 59.205 41.268 C 51.545 39.665, 50.006 39.573, 50.455 40.743 M 177.500 45.623 C 172 46.946, 162.546 49.166, 156.491 50.556 L 145.483 53.083 141.586 60.652 C 136.817 69.917, 128.566 79.044, 122.294 81.992 C 118.437 83.805, 116.273 84.128, 110.055 83.821 C 102.885 83.467, 100.826 82.797, 89.729 77.208 C 88.668 76.673, 80 95.194, 80 97.997 C 80 100.050, 80.345 100.206, 83.703 99.661 C 85.740 99.330, 90.696 97.050, 94.717 94.593 L 102.026 90.127 103.483 93.613 C 104.284 95.531, 105.634 100.463, 106.483 104.573 C 109.443 118.902, 104.982 125.439, 90.885 127.430 C 88.347 127.789, 85.471 128.667, 84.494 129.381 C 81.930 131.256, 83.164 136.397, 87.960 143.816 L 91.873 149.872 79.404 161.570 C 72.546 168.004, 67.080 173.414, 67.257 173.591 C 67.435 173.768, 71.932 171.669, 77.251 168.926 C 107.455 153.353, 118.881 155.500, 112.013 175.461 C 110.921 178.636, 110.240 181.580, 110.501 182.002 C 111.531 183.668, 119.831 184.097, 123.267 182.662 C 130.621 179.589, 133.800 170.766, 134.674 151 C 135.419 134.155, 136.716 131.745, 141.360 138.579 C 142.697 140.547, 147.028 149.721, 150.985 158.965 L 158.178 175.772 162.839 174.501 C 173.302 171.647, 178 168.487, 178 164.303 C 178 160.882, 171.240 154.067, 160.678 146.841 C 150.232 139.695, 143 133.376, 143 131.396 C 143 128.196, 147.972 126.656, 160.190 126.073 L 172.191 125.500 170.114 122.866 C 166.588 118.394, 161.057 116.934, 144.314 116.052 C 126.744 115.127, 124 114.135, 124 108.709 C 124 105.521, 127.004 100.042, 131.516 95 C 133.325 92.979, 133.856 90.912, 134.285 84.215 C 134.817 75.910, 136.690 71, 139.327 71 C 140.032 71, 142.834 72.413, 145.554 74.139 C 148.274 75.866, 151.825 77.660, 153.445 78.125 C 162.469 80.720, 173.966 70.524, 185.443 49.750 C 187.494 46.038, 188.796 43.049, 188.336 43.109 C 187.876 43.169, 183 44.300, 177.500 45.623" stroke="none" fill="black" fill-rule="evenodd"/>
</svg>