<svg xmlns="http://www.w3.org/2000/svg" width="200" height="200" viewBox="0 0 200 200" version="1.1">
	<path d="M 133.756 22.190 C 131.895 25.110, 126.433 33.878, 121.618 41.673 L 112.863 55.847 109.292 53.423 C 105.041 50.539, 102.303 50.443, 95.113 52.925 C 89.958 54.705, 89.508 54.711, 84.634 53.054 L 79.541 51.323 86.521 50.637 C 96.346 49.670, 111 46.932, 111 46.063 C 111 44.405, 109.599 44.324, 103.212 45.612 C 99.520 46.357, 91.011 47.266, 84.303 47.633 C 73.837 48.204, 71.743 48.062, 69.553 46.626 C 66.542 44.654, 66.352 43.022, 68.783 40.020 L 70.565 37.818 85.533 39.544 C 107.720 42.102, 107.043 42.147, 108.564 38 C 110.591 32.475, 110.348 25.348, 108.056 23.056 C 102.500 17.500, 86.946 21.289, 73.654 31.435 C 69.266 34.784, 68.532 35, 61.541 35 C 42.013 35, 31.671 41.169, 26.863 55.687 C 24.845 61.778, 24.584 64.724, 24.395 83.500 C 24.209 102.121, 23.892 105.746, 21.601 115.500 C 20.181 121.550, 19.014 128.444, 19.009 130.820 C 19.001 134.705, 19.221 135.107, 21.205 134.820 C 22.768 134.593, 26.341 130.244, 33.455 119.910 C 38.980 111.886, 44.288 104.249, 45.250 102.938 L 47 100.555 47.004 105.027 C 47.008 110.520, 49.739 115.296, 54.190 117.599 C 58.295 119.721, 68.878 119.804, 74.670 117.760 L 78.841 116.289 77.943 118.651 C 77.449 119.951, 76.357 122.343, 75.517 123.967 L 73.990 126.920 62.453 126.847 C 52.124 126.781, 50.422 127.027, 46.208 129.196 C 36.998 133.935, 33.951 142.877, 35.942 159.319 C 37.027 168.278, 42.119 189.148, 45.014 196.500 L 46.196 199.500 48.453 194.450 C 52.774 184.783, 60.586 178.260, 71.236 175.425 C 79.201 173.305, 95.436 173.686, 113 176.405 C 136.202 179.997, 140.201 180.308, 146.476 179.005 C 155.132 177.208, 158.195 173.921, 162.080 162.261 C 166.271 149.680, 166.954 140.945, 164.228 134.783 L 162.212 130.225 164.642 129.117 C 169.095 127.088, 177.946 119.823, 179.986 116.522 C 182.391 112.632, 182.573 108.263, 180.457 105.243 C 179.609 104.031, 176.026 100.979, 172.495 98.459 C 161.040 90.285, 159.162 86.519, 162.895 79.210 C 164.722 75.631, 173.912 66.190, 178.940 62.727 C 180.281 61.802, 181.181 60.880, 180.940 60.677 C 180.698 60.474, 172.175 58.197, 162 55.616 C 151.825 53.034, 142.618 50.565, 141.539 50.128 C 140.048 49.523, 141.602 48.801, 148.039 47.110 C 183.776 37.719, 194 34.624, 194 33.195 C 194 31.877, 190.981 31.776, 169.750 32.379 L 145.500 33.067 145.452 29.068 C 145.418 26.157, 144.585 24.055, 142.394 21.348 C 140.738 19.302, 138.878 17.459, 138.261 17.254 C 137.643 17.048, 135.616 19.269, 133.756 22.190 M 134.882 25.250 C 114.157 59.088, 112.943 61.244, 113.546 63.145 C 114.018 64.633, 113.641 65.281, 112.060 65.694 C 110.068 66.215, 102 78.234, 102 80.680 C 102 81.266, 103.825 82.036, 106.055 82.393 C 112.060 83.353, 118.571 86.747, 122.084 90.749 C 125.183 94.278, 125.191 94.318, 124.846 104.303 L 124.500 114.318 132.500 116.069 C 143.496 118.475, 149.690 120.676, 155.088 124.094 C 157.611 125.692, 160.622 127, 161.780 127 C 164.857 127, 176.183 118.069, 178.444 113.859 C 180.283 110.434, 180.297 110.102, 178.699 107.663 C 177.770 106.246, 173.649 102.601, 169.541 99.562 C 158.226 91.195, 156.473 87.420, 160.045 79.117 C 161.500 75.735, 164.405 71.979, 168.608 68.048 C 172.106 64.776, 174.638 61.919, 174.234 61.700 C 173.830 61.481, 165.906 59.348, 156.625 56.960 C 147.343 54.572, 138.824 51.868, 137.692 50.952 L 135.634 49.286 138.067 47.735 C 139.405 46.882, 149.500 43.836, 160.500 40.965 C 171.500 38.095, 180.725 35.524, 181 35.251 C 181.275 34.979, 172.162 35.079, 160.750 35.474 C 140.201 36.186, 138.002 35.903, 141.500 33 C 142.325 32.315, 143 30.642, 143 29.282 C 143 26.886, 139.571 21, 138.175 21 C 137.796 21, 136.314 22.913, 134.882 25.250 M 92.447 24.403 C 87.053 26.093, 76.538 31.748, 74.401 34.110 C 72.748 35.936, 72.839 36.001, 77.095 36.032 C 79.518 36.049, 86.225 36.710, 92 37.500 C 106.498 39.484, 105.595 39.666, 106.898 34.491 C 109.466 24.293, 104.304 20.689, 92.447 24.403 M 47.613 39.113 C 41.752 40.489, 36.325 43.923, 33.445 48.079 C 28.425 55.324, 27.649 59.763, 27.358 82.928 C 27.125 101.503, 26.763 105.765, 24.641 114.928 C 21.698 127.637, 20.897 132, 21.507 132 C 21.759 132, 25.956 126.038, 30.834 118.750 C 35.712 111.463, 42.375 102.125, 45.640 98 C 48.905 93.875, 53.359 87.913, 55.538 84.751 C 58.973 79.766, 59.899 79.025, 62.500 79.174 C 64.150 79.269, 66.940 78.593, 68.700 77.673 C 73.100 75.373, 81.149 75.525, 86 78 C 90.707 80.401, 94.189 80.657, 93.377 78.541 C 92.473 76.185, 94.936 70.196, 97.703 68.019 C 99.110 66.912, 102.115 65.490, 104.381 64.858 L 108.500 63.710 99.404 60.695 L 90.308 57.679 79.904 63.217 C 67.460 69.840, 63.011 71.381, 58.924 70.483 C 53.830 69.364, 52.008 65.112, 52.004 54.332 C 51.999 41.631, 51.928 41.739, 58.733 44.080 C 61.802 45.136, 64.355 46, 64.407 46 C 64.458 46, 64.539 44.987, 64.586 43.750 C 64.634 42.513, 65.020 40.712, 65.443 39.750 C 66.140 38.167, 65.510 38.010, 58.857 38.100 C 54.811 38.156, 49.751 38.611, 47.613 39.113 M 54.549 50.524 C 53.715 56.082, 54.629 62.614, 56.697 65.868 C 58 67.920, 58.754 68.162, 62.350 67.680 C 66.020 67.188, 84.510 58.561, 85.595 56.835 C 85.825 56.469, 79.597 54.041, 71.756 51.438 C 63.915 48.835, 56.993 46.520, 56.373 46.293 C 55.693 46.044, 54.968 47.726, 54.549 50.524 M 97 55.177 C 94.668 56.157, 94.994 56.396, 101.838 58.727 C 110.362 61.629, 112.917 60.826, 108.668 56.577 C 105.886 53.795, 101.531 53.273, 97 55.177 M 102.378 68.437 C 100.661 69.184, 98.524 70.842, 97.628 72.120 C 94.936 75.963, 95.994 83.288, 98.728 79.739 C 100.064 78.005, 106.217 66.991, 105.823 67.039 C 105.646 67.061, 104.095 67.690, 102.378 68.437 M 72 79.184 C 68.594 80.160, 68.795 80.264, 79.500 83.041 C 85.550 84.610, 91.558 86.207, 92.851 86.590 C 94.781 87.161, 95.138 86.955, 94.846 85.440 C 94.620 84.264, 93.039 83.193, 90.495 82.492 C 88.298 81.887, 84.827 80.628, 82.782 79.696 C 78.633 77.803, 77.073 77.729, 72 79.184 M 58.870 87.719 C 56.095 90.314, 53.202 93.643, 52.440 95.117 C 51.150 97.610, 51.209 97.836, 53.288 98.357 C 54.517 98.666, 62.723 99.226, 71.524 99.602 L 87.526 100.286 90.362 95.076 C 91.922 92.210, 93.018 89.685, 92.798 89.465 C 92.093 88.759, 68.263 83, 66.049 83 C 64.875 83, 61.644 85.123, 58.870 87.719 M 98.607 85.582 C 97.610 88.181, 97.883 88.754, 100.423 89.391 C 103.872 90.257, 109 94.838, 109 97.054 C 109 99.466, 106.149 100.958, 100.190 101.664 C 96.353 102.118, 95.015 102.821, 93.247 105.309 C 92.043 107.004, 91.227 108.560, 91.434 108.767 C 91.892 109.225, 120.400 113.934, 120.728 113.606 C 120.855 113.478, 121.261 109.449, 121.630 104.652 C 122.428 94.277, 121.476 91.796, 115.533 88.757 C 111.726 86.811, 102.858 84.038, 100.357 84.012 C 99.728 84.005, 98.941 84.712, 98.607 85.582 M 93 96 C 91.408 99.121, 91.267 100, 92.358 100 C 93.154 100, 94.194 98.276, 94.772 96 C 95.330 93.800, 95.619 92, 95.414 92 C 95.209 92, 94.122 93.800, 93 96 M 98 93.918 C 98 94.973, 97.727 96.548, 97.393 97.418 C 96.738 99.125, 99.428 99.528, 103.750 98.370 C 106.823 97.546, 106.573 95.770, 103.096 93.716 C 99.337 91.495, 98 91.548, 98 93.918 M 50 105.960 C 50 116.409, 63.244 119.939, 78.514 113.559 C 82.707 111.807, 82.982 110.258, 79.250 109.423 C 76.176 108.736, 55.747 103.438, 52.250 102.421 C 50.170 101.816, 50 102.084, 50 105.960 M 70.500 104.454 C 81.706 107.445, 83.652 107.518, 85 105 C 85.995 103.141, 85.760 103, 81.686 103 C 79.275 103, 73.746 102.787, 69.401 102.526 L 61.500 102.052 70.500 104.454 M 88.035 104.934 C 86.442 107.912, 86.799 108.492, 89 106.500 C 91.143 104.561, 91.604 103, 90.035 103 C 89.505 103, 88.605 103.870, 88.035 104.934 M 85.348 112.746 C 83.361 114.366, 76.470 126.823, 77.185 127.502 C 78.388 128.646, 86.269 128.115, 96.500 126.201 C 103.100 124.966, 112.401 123.403, 117.168 122.728 L 125.836 121.500 123.955 119.185 C 122.343 117.201, 119.899 116.519, 106.897 114.419 C 98.550 113.071, 90.771 111.748, 89.611 111.480 C 88.433 111.208, 86.549 111.767, 85.348 112.746 M 127.713 119.113 C 128.325 119.725, 130.913 120.616, 133.464 121.092 C 136.014 121.569, 138.724 122.581, 139.485 123.342 C 140.856 124.714, 150.782 126.552, 151.725 125.609 C 152.471 124.862, 145.403 122.133, 137.073 119.951 C 128.398 117.679, 126.071 117.471, 127.713 119.113 M 113.500 126.024 C 106.900 127.039, 99.700 128.265, 97.500 128.749 C 93.735 129.576, 93.988 129.667, 101.807 130.287 C 111.714 131.073, 118.227 130.353, 123.056 127.937 C 125.012 126.958, 127.262 126.193, 128.056 126.236 C 131.363 126.417, 133.080 125.939, 132.500 125 C 131.657 123.637, 127.591 123.856, 113.500 126.024 M 132.943 128.339 C 130.499 129.396, 128.083 130.989, 127.574 131.880 C 123.944 138.228, 101.601 158.099, 89 166.186 L 81.500 171 88.165 171 C 91.831 171, 104.059 172.350, 115.337 174 C 137.442 177.234, 142.514 177.541, 148.127 175.982 C 153.537 174.479, 156.251 171.074, 159.404 161.833 C 163.092 151.025, 163.863 141.549, 161.548 135.485 C 159.625 130.452, 157.690 129.010, 152.816 128.979 C 150.992 128.968, 146.774 128.387, 143.443 127.688 C 137.974 126.542, 136.956 126.605, 132.943 128.339 M 50.534 130.468 C 36.562 134.218, 34.428 150.263, 43.604 182.594 L 46.259 191.952 49.073 187.703 C 52.811 182.060, 55.476 179.663, 62.029 176.052 C 65.038 174.393, 66.949 173.028, 66.276 173.018 C 63.772 172.981, 61.733 166.928, 62.377 161.448 C 62.889 157.096, 65.626 146.743, 67.683 141.383 C 68.049 140.431, 67.427 140, 65.689 140 C 62.104 140, 60 139.018, 60 137.344 C 60 135.828, 67.257 132.060, 70.250 132.022 C 73.480 131.981, 72.040 130.268, 68.250 129.642 C 62.512 128.693, 56.017 128.996, 50.534 130.468 M 79.528 132.465 C 76.329 133.156, 74.208 134.294, 73.155 135.885 L 71.577 138.270 81.039 137.646 C 86.242 137.304, 95.105 136.736, 100.733 136.384 C 106.802 136.005, 111.686 135.199, 112.733 134.404 C 114.252 133.251, 113.169 133.047, 105 132.947 C 99.775 132.884, 92.985 132.516, 89.912 132.131 C 86.828 131.744, 82.174 131.894, 79.528 132.465 M 116.551 135.174 C 112.348 137.958, 110.574 138.444, 102.129 139.126 C 96.833 139.553, 88.592 139.925, 83.815 139.951 C 71.454 140.021, 70.784 140.411, 67.998 149.162 C 65.192 157.973, 64.354 165.925, 65.923 168.857 C 69.794 176.088, 92.349 163.547, 114.500 141.846 C 124.611 131.941, 125.424 129.297, 116.551 135.174 M 66.566 135.898 C 65.179 136.441, 64.980 136.870, 65.864 137.416 C 67.359 138.340, 70 137.456, 70 136.031 C 70 134.854, 69.302 134.826, 66.566 135.898" stroke="none" fill="black" fill-rule="evenodd"/>
</svg>