<svg xmlns="http://www.w3.org/2000/svg" width="200" height="200" viewBox="0 0 200 200" version="1.1">
	<path d="M 163.838 18.358 C 161.823 19.098, 157.561 20.011, 154.366 20.387 C 142.292 21.806, 135.593 28.869, 131.970 44 C 131.378 46.475, 130.511 61.325, 130.044 77 C 129.132 107.634, 128.205 113.579, 123.678 117.833 C 122.381 119.051, 120.011 120.440, 118.410 120.920 C 116.810 121.399, 114.713 122.112, 113.750 122.503 C 112.249 123.113, 112 122.619, 112 119.040 C 112 115.567, 112.769 113.921, 116.578 109.245 C 121.608 103.070, 125.382 96.219, 126.433 91.354 C 127.448 86.659, 124.870 81.382, 120.555 79.325 C 118.600 78.393, 117.008 77.375, 117.018 77.065 C 117.028 76.754, 118.350 74.562, 119.956 72.192 C 123.872 66.415, 126.846 57.117, 127.992 47.074 C 129.492 33.922, 127.478 25.698, 123.555 28.955 C 120.757 31.276, 117.096 46.428, 114.714 65.534 L 113.472 75.500 101.986 75.214 L 90.500 74.928 94.500 77.460 C 99.327 80.515, 103.732 81.458, 109.133 80.595 C 113.122 79.957, 113.164 79.982, 112.621 82.725 C 112.320 84.251, 111.536 91.800, 110.881 99.500 L 109.688 113.500 105.725 118 C 98.537 126.160, 98.491 129.700, 105.589 128.402 C 108.568 127.858, 108.661 127.949, 108.220 130.955 C 107.662 134.756, 104.559 136.562, 95.164 138.553 C 77.321 142.335, 63.979 138.370, 64.015 129.298 C 64.035 124.387, 64.757 123.406, 69 122.522 C 80.099 120.208, 93.536 110.401, 96.600 102.378 C 101.312 90.039, 88.640 87.900, 74.317 98.618 C 72.566 99.928, 70.907 101, 70.630 101 C 70.354 101, 73.586 96.051, 77.814 90.003 C 91.214 70.831, 99.605 54.576, 100.765 45.545 C 101.131 42.696, 102.156 40.759, 104.232 38.993 C 108.524 35.343, 107.862 31.270, 102.500 28.342 C 94.435 23.939, 72.391 21, 47.427 21 L 32.067 21 28.574 24.492 C 21.365 31.702, 19.481 47.290, 21.142 86 C 22.574 119.374, 21.876 139.996, 18.975 150 C 16.641 158.048, 16.645 169.600, 18.984 173.969 C 23.214 181.875, 32.786 165.736, 39.426 139.500 L 41.704 130.500 42.252 147 C 42.700 160.501, 45.067 178.946, 46.598 180.859 C 46.756 181.057, 53.606 176.718, 61.821 171.218 C 94.592 149.277, 104.392 148.711, 98.038 169.125 C 95.807 176.294, 95.951 176.539, 102.952 177.478 C 112.594 178.771, 123.203 172.818, 131.979 161.191 C 141.672 148.349, 155.345 117.041, 155.428 107.500 C 155.452 104.750, 155.165 93.725, 154.789 83 C 154.371 71.075, 154.439 65.831, 154.964 69.500 C 156.485 80.141, 158 104.508, 158 118.344 L 158 131.812 153.115 135.322 C 147.204 139.569, 143.574 144.153, 141.441 150.069 C 136.716 163.170, 147.005 179, 160.245 179 C 167.976 179, 173.525 174.999, 177.899 166.271 C 182.863 156.368, 185.260 135.553, 182.590 125.540 C 180.671 118.346, 180.527 102.209, 182.100 70.786 C 183.946 33.913, 180.745 19.296, 170.434 17.518 C 168.820 17.240, 165.852 17.618, 163.838 18.358 M 163.135 21.539 C 161.285 22.343, 158.008 23, 155.853 23 C 151.518 23, 145.594 25.153, 142.680 27.788 C 140.187 30.043, 137.039 36.292, 135.270 42.500 C 134.305 45.886, 133.569 56.703, 132.990 76 C 132.260 100.381, 131.839 105.452, 130.079 111.085 C 127.650 118.859, 125.918 120.663, 117.678 124.006 L 111.500 126.513 111.201 131.108 C 110.914 135.525, 110.719 135.786, 106.201 137.821 C 98.690 141.203, 93.120 142.324, 83.500 142.388 C 72.654 142.460, 68.125 141.045, 63.938 136.277 C 61.157 133.109, 60.836 132.148, 61.271 128.284 L 61.766 123.892 58.883 124.526 C 56.655 125.015, 56 124.800, 56 123.579 C 56 122.553, 56.893 122, 58.548 122 C 59.996 122, 62.118 120.896, 63.466 119.442 C 65.642 117.094, 65.917 117.029, 66.818 118.640 C 67.735 120.278, 68.271 120.210, 74.883 117.616 C 88.344 112.334, 98.921 99.499, 93.511 95.009 C 89.802 91.931, 77.541 98.161, 65.537 109.222 C 61.267 113.157, 57.867 115.594, 57.493 114.988 C 57.136 114.411, 60.720 108.778, 65.458 102.471 C 83.117 78.960, 96.120 56.626, 97.583 47.291 L 98.243 43.082 90.871 45.913 C 86.817 47.470, 82.055 49.059, 80.289 49.443 C 77.446 50.062, 77.140 50.450, 77.618 52.838 C 78.007 54.785, 76.998 57.722, 73.983 63.411 C 70.553 69.885, 69.991 71.684, 70.825 73.515 C 71.690 75.414, 71.402 76.066, 68.867 77.940 C 61.249 83.572, 51.579 100.574, 47.902 114.802 C 43.856 130.455, 43.611 153.555, 47.304 171.224 L 48.500 176.949 60.652 168.661 C 76.668 157.738, 86.503 152.789, 93.315 152.224 C 101.993 151.504, 104.366 155.628, 101.638 166.685 C 100.750 170.284, 100.269 173.627, 100.571 174.114 C 101.337 175.355, 108.867 175.081, 112.684 173.674 C 125.731 168.864, 138.651 150.133, 149.070 120.927 L 153.109 109.603 151.973 88.052 C 150.652 62.994, 150.913 49.855, 152.744 49.249 C 153.428 49.023, 154.439 50.024, 154.990 51.473 C 157.410 57.838, 161.002 99.991, 160.998 121.983 L 160.996 133.500 156.497 136.343 C 144.603 143.857, 140.109 155.396, 145.078 165.661 C 147.556 170.780, 151.794 174.573, 156.482 175.867 C 173.676 180.615, 185.070 153.404, 179.039 122 C 178.100 117.114, 178.003 109.790, 178.645 92.500 C 179.823 60.797, 179.623 35.415, 178.154 30.295 C 177.490 27.983, 175.794 24.720, 174.385 23.045 C 171.500 19.617, 168.490 19.214, 163.135 21.539 M 33.374 23.957 C 30.153 25.300, 27.206 30.088, 25.256 37.146 C 23.708 42.747, 23.558 46.935, 23.990 72.500 C 24.867 124.432, 24.559 139.686, 22.484 147 C 19.546 157.354, 19.274 173, 22.031 173 C 23.933 173, 28.253 164.886, 31.971 154.329 C 42.706 123.854, 45.770 89.572, 39.107 74.508 L 37.150 70.085 43.781 65.897 C 47.428 63.594, 53.582 59.975, 57.456 57.855 C 62.501 55.095, 63.619 54.170, 61.394 54.597 C 54.611 55.898, 56.720 48.578, 64.848 42.612 C 73.536 36.234, 82.650 32.555, 89.834 32.526 C 95.596 32.502, 96.394 32.762, 98.661 35.395 L 101.154 38.290 103.327 36.084 L 105.500 33.878 103.151 31.948 C 99.714 29.125, 92.066 27.143, 78.501 25.559 C 63.130 23.764, 36.134 22.806, 33.374 23.957 M 122.678 37.657 C 120.540 45.283, 116.763 67.590, 117.238 69.788 C 117.770 72.255, 121.479 64.803, 123.382 57.440 C 125.427 49.532, 126.526 35.763, 125.290 33.553 C 124.502 32.145, 124.003 32.929, 122.678 37.657 M 81.368 36.839 C 74.649 39.161, 65.419 44.762, 62.356 48.376 C 61.015 49.957, 60.086 51.419, 60.291 51.625 C 60.849 52.183, 84.668 45.507, 91 43.019 C 98.121 40.220, 98.773 39.512, 96.521 37.024 C 94.204 34.463, 88.444 34.393, 81.368 36.839 M 62.775 58.276 C 47.224 66.260, 40.674 70.735, 41.522 72.795 C 44.276 79.485, 45.122 85.594, 45.137 98.908 L 45.154 113.316 47.408 106.865 C 48.648 103.317, 51.106 97.704, 52.872 94.392 C 56.194 88.159, 65.473 76, 66.907 76 C 67.355 76, 67.518 74.931, 67.268 73.624 C 66.980 72.114, 68.307 68.348, 70.907 63.298 C 75.089 55.177, 75.748 53, 74.025 53 C 73.489 53, 68.426 55.374, 62.775 58.276 M 115.582 81.160 C 114.839 83.512, 112.778 108.111, 113.282 108.616 C 114.117 109.451, 121.919 97.002, 123.163 92.849 C 124.702 87.713, 123.457 84.171, 119.248 81.713 C 116.697 80.223, 115.916 80.105, 115.582 81.160 M 44.079 115.583 C 44.127 116.748, 44.364 116.985, 44.683 116.188 C 44.972 115.466, 44.936 114.603, 44.604 114.271 C 44.272 113.939, 44.036 114.529, 44.079 115.583 M 105.625 122.220 C 104.240 123.990, 103.194 125.525, 103.303 125.631 C 103.411 125.737, 104.737 125.586, 106.250 125.295 C 108.492 124.864, 109 124.234, 109 121.883 C 109 120.298, 108.808 119, 108.572 119 C 108.337 119, 107.011 120.449, 105.625 122.220" stroke="none" fill="black" fill-rule="evenodd"/>
</svg>