<svg xmlns="http://www.w3.org/2000/svg" width="200" height="200" viewBox="0 0 200 200" version="1.1">
	<path d="M 89.500 22.033 C 79.043 24.232, 73.977 25.998, 65 30.574 C 60.605 32.814, 55.423 34.399, 49 35.468 C 33.876 37.986, 27.159 40.685, 20.665 46.856 C 12.147 54.951, 10.047 65.722, 13.951 81.305 C 16.027 89.592, 16.079 90.807, 14.984 105.290 C 13.227 128.525, 15.518 140.818, 22.420 145.185 C 25.697 147.260, 25.231 147.257, 53.502 145.364 L 63.004 144.727 64.927 138.500 C 67.854 129.024, 68.861 118.769, 69.444 92.500 C 69.911 71.447, 71.258 58.408, 73.163 56.504 C 73.385 56.282, 76.071 56.358, 79.131 56.674 L 84.695 57.248 86.364 66.874 C 87.281 72.168, 88.025 77.985, 88.016 79.800 C 87.993 84.625, 85.359 88.952, 81.451 90.585 C 77.066 92.417, 76.558 94.547, 77.324 107.886 C 77.966 119.059, 81.355 135.638, 84.946 145.167 C 92.513 165.247, 100.313 156.292, 102.585 124.915 C 102.960 119.737, 103.712 114.938, 104.256 114.250 C 105.712 112.410, 108.077 112.724, 110.597 115.091 L 112.822 117.182 110.854 124.341 C 107.690 135.849, 102.988 149.038, 99.745 155.500 C 94.438 166.076, 91.316 169.811, 85.192 172.912 C 79.027 176.034, 68 183.857, 68 185.109 C 68 188.644, 80.299 183.531, 87.284 177.093 C 93.986 170.914, 98.339 169.651, 113 169.631 C 123.686 169.617, 127.405 170.077, 138.629 172.807 C 154.093 176.568, 155.885 176.665, 159.365 173.927 C 161.640 172.138, 162 171.105, 162 166.362 C 162 163.340, 161.590 160.102, 161.088 159.165 C 160.208 157.520, 135.125 133.467, 122.134 121.811 C 116.544 116.795, 115.894 115.838, 116.646 113.729 C 117.403 111.609, 117.862 111.433, 120.681 112.179 C 125.185 113.372, 134.038 121.827, 142.543 133.057 C 154.206 148.457, 158.402 150.876, 163.320 145.031 C 166.391 141.382, 168.375 135.550, 171.389 121.319 L 173.711 110.357 170.868 104.735 C 169.304 101.642, 167.066 95.599, 165.893 91.306 C 163.381 82.105, 161.453 78.082, 156.662 72.049 L 153.129 67.598 156.566 66.416 C 165.540 63.331, 171.438 54.843, 171.456 44.986 C 171.483 30.780, 157.961 21.617, 139.907 23.607 L 134.313 24.223 132.557 31.671 L 130.801 39.119 109.651 38.866 C 90.192 38.633, 88.140 38.776, 84 40.652 C 79.181 42.835, 73.411 48.131, 72.408 51.290 C 71.901 52.886, 71.160 53.124, 68.147 52.658 C 66.141 52.347, 61.013 51.785, 56.750 51.408 C 51.723 50.965, 49 50.298, 49 49.512 C 49 47.586, 54.439 40.598, 57.499 38.593 C 59.542 37.254, 63.538 36.515, 72.395 35.838 C 85.333 34.850, 106.223 30.218, 111.436 27.183 C 115.305 24.930, 116.021 21.506, 112.802 20.644 C 108.606 19.520, 98.621 20.115, 89.500 22.033 M 88.500 24.991 C 80.241 26.872, 70.628 30.199, 68 32.086 C 65.278 34.041, 84.417 32.183, 95.224 29.443 C 105.504 26.837, 112 24.556, 112 23.551 C 112 22.310, 95.951 23.294, 88.500 24.991 M 137.899 26.661 C 136.428 27.054, 133.191 37.524, 134.221 38.555 C 134.441 38.775, 137.616 39.379, 141.276 39.897 C 148.715 40.950, 150 41.486, 150 43.533 C 150 45.601, 145.247 47.724, 137.660 49.045 C 133.997 49.683, 131 50.325, 131 50.470 C 131 50.616, 129.194 58.645, 126.987 68.313 C 124.780 77.981, 122.771 87.153, 122.523 88.695 C 122.275 90.238, 121.785 92.704, 121.434 94.177 L 120.795 96.853 132.549 96.677 C 141.156 96.547, 144.418 96.833, 144.733 97.744 C 145.338 99.495, 141.285 100.810, 129.610 102.651 C 124.049 103.527, 119.169 104.752, 118.765 105.372 C 117.303 107.618, 118.072 108.705, 121.945 109.866 C 127.520 111.536, 135.937 119.628, 145.748 132.751 C 154.720 144.751, 157.473 146.692, 160.997 143.502 C 163.372 141.354, 166.368 132.458, 168.898 120.047 L 170.824 110.595 167.923 104.847 C 166.327 101.685, 164.074 95.589, 162.916 91.299 C 160.499 82.345, 157.896 77.423, 152.101 70.847 C 149.845 68.287, 148 65.925, 148 65.597 C 148 65.268, 149.238 64.990, 150.750 64.978 C 155.430 64.941, 161.696 61.403, 164.889 56.994 C 173.017 45.774, 168.113 31.487, 154.775 27.526 C 149.987 26.104, 141.587 25.673, 137.899 26.661 M 44.909 38.953 C 29.381 42.229, 21.659 46.911, 17.390 55.635 C 14.930 60.663, 14.771 61.759, 15.264 70.285 C 15.558 75.353, 16.532 81.510, 17.431 83.966 C 18.885 87.943, 18.933 90.191, 17.871 104.466 C 16.513 122.713, 17.186 131.971, 20.323 138.186 C 23.493 144.468, 26.548 145.223, 41.601 143.446 C 48.146 142.674, 55.115 142.032, 57.089 142.021 C 59.921 142.004, 60.916 141.481, 61.800 139.540 C 64.523 133.564, 66.051 119.392, 66.927 92 C 67.428 76.325, 68.320 61.943, 68.909 60.040 C 69.499 58.138, 69.648 56.281, 69.240 55.915 C 68.513 55.262, 47.775 52.971, 47.212 53.481 C 46.625 54.014, 46.833 62.973, 47.818 79.500 C 49.359 105.346, 47.939 120.934, 44.252 118.656 C 41.661 117.054, 40.500 107.210, 40.520 87 C 40.546 59.999, 42.415 51.914, 51.213 40.750 C 52.838 38.688, 54.018 37.032, 53.834 37.070 C 53.650 37.109, 49.634 37.956, 44.909 38.953 M 86.754 42.629 C 81.852 44.105, 75 49.879, 75 52.533 C 75 53.536, 76.081 54, 78.418 54 C 80.298 54, 82.493 54.252, 83.296 54.560 C 84.344 54.962, 84.941 54.129, 85.415 51.603 C 86.198 47.428, 89.749 44.327, 94.851 43.364 C 99.171 42.548, 111.733 44.218, 118.893 46.560 C 124.756 48.477, 128.583 47.888, 129.525 44.922 C 129.887 43.782, 130.029 42.720, 129.841 42.562 C 129.654 42.404, 120.950 42.033, 110.500 41.737 C 95.672 41.318, 90.458 41.513, 86.754 42.629 M 132.607 43.582 C 131.104 47.499, 132.938 47.698, 143.500 44.768 L 147.500 43.658 143.500 42.887 C 136.906 41.615, 133.273 41.847, 132.607 43.582 M 93 46.709 C 87.980 48.555, 86.077 54.577, 90.250 55.413 C 111.383 59.647, 118.177 62.334, 118.809 66.708 C 118.980 67.884, 118.192 70.663, 117.059 72.883 C 114.366 78.164, 114.459 81.261, 117.416 84.694 L 119.833 87.500 120.430 85 C 121.662 79.840, 128 51.069, 128 50.636 C 128 50.388, 125.638 49.969, 122.750 49.704 C 119.862 49.440, 114.800 48.506, 111.500 47.628 C 105.662 46.074, 96.028 45.596, 93 46.709 M 88.356 61.716 C 91.366 79.821, 91.416 81.287, 89.202 86.284 C 87.625 89.843, 86.211 91.432, 83.679 92.490 C 79.410 94.273, 78.754 97.445, 80.054 110.012 C 82.213 130.880, 89.386 153.999, 93.314 152.746 C 95.370 152.090, 98.027 142.146, 99.092 131.124 C 100.933 112.064, 100.912 112.163, 103.272 111.414 C 105.353 110.753, 105.310 110.622, 102.125 107.963 C 100.080 106.256, 97.034 104.940, 94.157 104.522 C 88.509 103.700, 85 101.608, 85 99.062 C 85 96.213, 92.617 90.080, 102.858 84.682 C 108.057 81.942, 112 79.229, 112 78.392 C 112 77.583, 112.900 75.156, 114 73 C 116.578 67.947, 116.520 66.387, 113.685 64.530 C 111.270 62.947, 99.658 59.757, 92.114 58.603 L 87.727 57.933 88.356 61.716 M 43.750 68.332 C 42.829 70.581, 42.771 99.450, 43.673 106.958 C 44.737 115.822, 45.863 110.101, 45.830 96 C 45.793 79.897, 44.741 65.910, 43.750 68.332 M 104.233 86.989 C 100.237 89.168, 95.385 92.025, 93.451 93.339 L 89.936 95.728 92.612 97.482 C 94.894 98.976, 96.633 99.134, 104.394 98.548 C 117.148 97.585, 117.705 97.387, 118.420 93.572 C 118.941 90.800, 118.517 89.768, 115.583 86.657 C 113.686 84.646, 111.992 83.006, 111.817 83.014 C 111.643 83.022, 108.230 84.811, 104.233 86.989 M 122.500 100.051 C 120.527 100.587, 121.555 100.674, 125.500 100.308 C 128.800 100.001, 131.688 99.581, 131.917 99.375 C 132.661 98.706, 125.585 99.214, 122.500 100.051 M 107.500 101 L 101.500 101.664 108.691 101.832 C 112.646 101.924, 116.160 101.550, 116.500 101 C 117.150 99.948, 117.011 99.948, 107.500 101 M 108.681 104.741 L 102.862 105.104 105.471 107.156 C 107.471 108.729, 108.886 109.056, 111.540 108.559 C 113.443 108.201, 115 107.742, 115 107.536 C 115 107.331, 115.273 106.452, 115.607 105.582 C 115.941 104.712, 115.828 104.085, 115.357 104.189 C 114.886 104.293, 111.882 104.541, 108.681 104.741 M 111 111.378 C 111 111.585, 111.675 112.315, 112.500 113 C 113.729 114.020, 114 113.951, 114 112.622 C 114 111.730, 113.325 111, 112.500 111 C 111.675 111, 111 111.170, 111 111.378 M 113.999 123.190 C 110.988 134.885, 106.027 148.507, 101.410 157.765 L 96.290 168.030 101.395 167.265 C 111.385 165.768, 123.935 166.677, 137.822 169.904 C 157.814 174.550, 159.429 174.243, 159.308 165.822 L 159.231 160.500 147.276 149 C 140.700 142.675, 130.773 133.311, 125.215 128.190 L 115.109 118.881 113.999 123.190" stroke="none" fill="black" fill-rule="evenodd"/>
</svg>