<svg xmlns="http://www.w3.org/2000/svg" width="200" height="200" viewBox="0 0 200 200" version="1.1">
	<path d="M 117 20.061 C 86.813 21.426, 69.350 27.350, 75.977 33.977 C 78.579 36.579, 78.402 36.568, 60.500 33.016 C 37.655 28.484, 26.428 29.051, 19.556 35.085 C 13.283 40.592, 11.396 52.827, 14.413 68.426 C 15.536 74.230, 15.533 76.905, 14.396 84.926 C 10.606 111.665, 14.380 134.850, 24.151 144.843 C 32.376 153.256, 41.445 153.797, 52.500 146.536 C 59.870 141.694, 73.277 135.173, 78.077 134.094 C 87.796 131.910, 89.155 135.517, 86.093 155.367 C 84.942 162.827, 84.010 170.634, 84.022 172.716 C 84.057 178.675, 87.293 184.695, 91.556 186.728 L 95.217 188.474 101.499 181.844 C 109.096 173.824, 115.698 164.301, 118.171 157.793 C 120.365 152.018, 120.560 142.276, 118.576 137.528 C 116.639 132.891, 109.817 125.684, 102.264 120.294 C 98.819 117.836, 96 115.206, 96 114.451 C 96 112.924, 102.786 110.650, 112.336 108.977 C 122.917 107.122, 122.687 107.574, 116.520 100.759 C 113.486 97.406, 111.157 94.510, 111.344 94.323 C 111.690 93.977, 126.011 99.678, 126.816 100.482 C 127.059 100.725, 125.849 103.118, 124.129 105.800 C 120.962 110.734, 120.265 113.428, 121.895 114.435 C 122.770 114.976, 134.435 107.723, 135.524 105.960 C 135.828 105.470, 137.590 105.791, 139.441 106.673 C 143.425 108.573, 144 110.590, 144 122.657 C 144 127.736, 143.426 132.437, 142.551 134.532 C 141.246 137.655, 140.711 138, 137.173 138 C 130.929 138, 130.419 139.603, 133.850 148.440 L 136.805 156.049 133.653 157.650 C 127.387 160.832, 117.966 168.165, 116.499 171.001 C 114.292 175.270, 114.649 177.527, 117.975 180.325 C 122.697 184.299, 127.545 185.481, 139 185.452 C 155.311 185.411, 167.406 180.973, 172.726 173.078 C 176.471 167.521, 175.262 160.907, 169.073 153.093 L 166.118 149.361 169.064 147.621 C 173.153 145.206, 175.343 140.595, 174.695 135.764 C 173.993 130.531, 169.803 124.699, 162.356 118.590 L 156.211 113.550 158.856 111.918 C 167.183 106.780, 170.993 94.713, 172.565 68.500 C 173.215 57.677, 173.516 56.284, 175.643 54.298 C 178.678 51.462, 178.681 47.283, 175.653 42.820 L 173.305 39.361 176.153 37.727 C 181.938 34.407, 178.340 31, 169.048 31 C 165.276 31, 162.405 30.038, 155.863 26.585 C 147.629 22.237, 138.142 18.849, 135.068 19.157 C 134.206 19.244, 126.075 19.651, 117 20.061 M 103 23.648 C 88.738 25.790, 79.882 28.232, 77.955 30.555 C 76.965 31.747, 77.405 32.271, 80.469 33.551 C 83.826 34.954, 86.202 34.952, 105.283 33.526 C 116.889 32.658, 126.495 31.839, 126.628 31.705 C 126.762 31.571, 126.616 29.558, 126.304 27.231 L 125.737 23 115.618 23.136 C 110.053 23.211, 104.375 23.441, 103 23.648 M 129.750 23.583 C 128.790 24.544, 128.805 29.145, 129.773 30.667 C 130.306 31.505, 134.009 31.673, 142.926 31.262 C 155.160 30.698, 155.304 30.664, 153.068 28.854 C 149.106 25.646, 131.635 21.696, 129.750 23.583 M 25.500 34.412 C 21.822 36.046, 18.486 39.568, 17.067 43.315 C 15.643 47.073, 15.786 62.054, 17.317 69.412 C 18.287 74.076, 18.289 77.033, 17.328 83.412 C 15.353 96.514, 15.652 117.321, 17.944 126.282 C 20.316 135.557, 22.003 138.936, 26.508 143.441 C 33.709 150.643, 41.526 150.500, 53.182 142.954 C 63.308 136.400, 73.797 131.827, 79.962 131.281 C 84.917 130.842, 85.746 131.054, 87.831 133.296 C 90.684 136.363, 90.877 142.708, 88.553 157 C 85.912 173.242, 86.973 181.310, 92.114 184.061 C 94.224 185.190, 94.859 184.797, 100.466 178.879 C 113.402 165.225, 119.466 151.879, 117.066 142.348 C 115.406 135.757, 111.466 130.807, 102.319 123.823 C 93.291 116.931, 91.903 114.869, 94.420 112.088 C 96.134 110.194, 109.555 106, 113.901 106 C 116.662 106, 116.608 105.858, 111 98.282 C 106.780 92.581, 106.104 92.101, 100.126 90.559 C 96.620 89.655, 93.610 89.057, 93.436 89.230 C 93.263 89.403, 92.432 92.851, 91.590 96.892 C 89.611 106.380, 85.424 113.893, 80.659 116.500 C 77.324 118.325, 76.773 118.369, 74.350 117 C 70.039 114.565, 68.048 110.945, 66.258 102.288 C 64.247 92.561, 64.956 89.514, 69.906 86.623 C 72.615 85.041, 74.990 84.663, 81.651 84.754 L 90 84.868 90 81.094 C 90 77.135, 86.729 63.124, 85.142 60.289 C 84.438 59.031, 83.933 60.052, 83.027 64.568 C 81.573 71.822, 78.433 78.698, 75.975 80.013 C 70.248 83.078, 67.628 75.805, 65.433 50.757 C 64.734 42.778, 64.810 42.770, 54.906 51.848 L 48.311 57.892 47.646 76.196 C 46.734 101.313, 43.927 117.805, 40.744 116.750 C 37.538 115.687, 40.263 62.630, 43.722 58.771 C 44.926 57.428, 45.160 55.480, 44.770 50.036 C 44.495 46.182, 43.737 42.388, 43.086 41.604 C 41.379 39.547, 42.587 39.132, 53.577 37.992 C 58.955 37.434, 63.502 36.831, 63.681 36.652 C 63.860 36.473, 59.817 35.578, 54.696 34.663 C 43.556 32.673, 29.680 32.554, 25.500 34.412 M 131.648 34.760 C 131.390 35.178, 131.746 37.991, 132.441 41.010 C 133.556 45.862, 133.972 46.469, 136.018 46.232 C 138.832 45.907, 142.753 49.315, 144.629 53.718 C 146.636 58.428, 146.305 67.029, 143.827 74.578 C 141.660 81.178, 141.659 81.235, 143.429 92.349 C 145.743 106.881, 145.543 106.299, 148.903 108.284 C 160.944 115.397, 168.229 101.231, 169.698 67.842 C 170.275 54.750, 170.397 54.140, 172.650 53.114 C 175.811 51.673, 175.787 47.026, 172.599 43.320 L 170.198 40.529 163.486 42.318 C 159.794 43.301, 156.526 43.859, 156.224 43.557 C 155.922 43.255, 156.198 41.860, 156.838 40.457 C 157.477 39.054, 158 37.027, 158 35.953 C 158 34.116, 157.229 34, 145.059 34 C 137.941 34, 131.907 34.342, 131.648 34.760 M 160.216 37.112 C 160.132 40.074, 160.278 40.194, 163.241 39.602 C 167.386 38.773, 167.642 38.366, 165.506 36.006 C 162.708 32.915, 160.321 33.414, 160.216 37.112 M 169 35.500 C 170.568 37.389, 172.092 37.398, 174.559 35.532 C 176.362 34.168, 176.189 34.061, 172.128 34.032 C 168.353 34.004, 167.925 34.205, 169 35.500 M 108.829 35.916 C 104.611 36.237, 100.823 36.837, 100.413 37.250 C 100.002 37.663, 100.454 38, 101.417 38 C 102.380 38, 102.973 38.562, 102.736 39.250 C 102.422 40.160, 99.298 40.463, 91.253 40.365 L 80.201 40.231 82.079 44.365 C 83.111 46.639, 83.966 49.203, 83.978 50.063 C 83.990 50.922, 85.136 53.981, 86.525 56.859 C 89.610 63.254, 91.770 71.301, 92.614 79.540 L 93.250 85.740 98.687 87.254 C 103.686 88.645, 104.068 88.636, 103.427 87.134 C 98.385 75.322, 98.867 68.930, 105.311 62.141 C 109.648 57.572, 115.166 54.151, 123.500 50.861 C 131.228 47.811, 131.320 47.616, 129.047 39.175 L 127.923 35 122.211 35.166 C 119.070 35.257, 113.048 35.594, 108.829 35.916 M 51.750 40.735 C 46.508 41.148, 46.239 41.764, 47.630 50.175 L 48.237 53.850 54.375 48.675 C 57.750 45.829, 61.634 42.736, 63.006 41.802 L 65.500 40.105 61 40.233 C 58.525 40.303, 54.362 40.529, 51.750 40.735 M 69.056 41.944 C 67.820 42.726, 67.778 44.777, 68.763 56.179 C 69.897 69.298, 71.671 77.057, 73.692 77.731 C 76.485 78.662, 81 65.576, 81 56.549 C 81 52.401, 80.364 50.594, 77.378 46.259 C 73.825 41.099, 71.938 40.121, 69.056 41.944 M 135 50.366 C 135 52.013, 139.991 74.325, 140.466 74.800 C 141.363 75.697, 143.327 66.842, 143.330 61.888 C 143.332 57.810, 142.719 55.281, 141.085 52.638 C 138.862 49.041, 135 47.599, 135 50.366 M 123.547 53.669 C 116.151 56.767, 108.118 62.132, 105.567 65.676 C 102.443 70.016, 102.304 77.801, 105.237 84.207 L 107.707 89.601 118.103 93.765 C 130.097 98.567, 128.776 99.055, 134.985 87.536 L 138.470 81.071 136.086 69.288 C 132.926 53.668, 132.132 50.984, 130.703 51.087 C 130.041 51.135, 126.821 52.297, 123.547 53.669 M 43.230 80.500 C 41.066 107.769, 40.968 109.800, 41.969 106.660 C 43.472 101.950, 45.154 82.064, 44.816 73 C 44.515 64.914, 44.438 65.280, 43.230 80.500 M 135.748 91.852 C 133.686 95.312, 132 98.489, 132 98.911 C 132 100.424, 136.687 101.913, 137.835 100.765 C 138.609 99.991, 139.353 100.048, 140.458 100.965 C 142.380 102.560, 142.416 101.232, 140.701 92.030 L 139.495 85.561 135.748 91.852 M 72 88.683 L 68.500 90.500 68.656 97.275 C 68.823 104.514, 71.854 112.396, 75.259 114.443 C 79.833 117.193, 86.955 107.390, 89.196 95.258 C 89.831 91.825, 90.099 88.766, 89.793 88.460 C 89.487 88.154, 86.146 87.670, 82.368 87.385 C 76.948 86.975, 74.762 87.249, 72 88.683 M 127.035 106.151 C 124.598 110.488, 125.039 110.489, 130.802 106.162 C 133.245 104.328, 133.766 103.468, 132.802 102.857 C 130.439 101.357, 129.394 101.954, 127.035 106.151 M 146.500 121.750 C 146.500 136.830, 144.457 141, 137.066 141 C 135.380 141, 134 141.235, 134 141.523 C 134 141.810, 135.416 145.419, 137.147 149.543 C 138.878 153.666, 140.115 157.179, 139.897 157.350 C 139.679 157.521, 136.452 159.340, 132.727 161.392 C 129.002 163.444, 124.165 166.826, 121.977 168.907 C 115.646 174.930, 116.925 178.712, 126.228 181.475 C 135.938 184.359, 153.742 182.723, 162.768 178.118 C 174.028 172.374, 174.841 163.292, 165.048 152.668 L 160.944 148.215 163.962 147.163 C 168.916 145.436, 172 141.639, 172 137.268 C 172 131.226, 167.728 125.890, 155.663 116.863 C 151.353 113.638, 147.528 111, 147.163 111 C 146.799 111, 146.500 115.838, 146.500 121.750" stroke="none" fill="black" fill-rule="evenodd"/>
</svg>