<svg xmlns="http://www.w3.org/2000/svg" width="200" height="200" viewBox="0 0 200 200" version="1.1">
	<path d="M 156.952 17.192 C 153.480 22.260, 147.816 27.999, 144.642 29.664 C 140.834 31.662, 138.390 30.892, 131.467 25.516 C 125.835 21.144, 120.931 19.685, 119.523 21.963 C 119.196 22.493, 117.317 21.143, 115.348 18.963 C 111.428 14.624, 108.636 13.943, 107.035 16.934 C 105.624 19.571, 105.822 31.791, 107.434 41.500 C 108.164 45.900, 108.682 49.595, 108.586 49.712 C 108.489 49.828, 103.705 48.404, 97.955 46.547 C 92.205 44.691, 85.362 42.857, 82.750 42.472 C 80.138 42.088, 78 41.387, 78 40.915 C 78 38.676, 83.044 29.004, 84.195 29.035 C 84.913 29.054, 88.421 29.696, 91.990 30.461 C 95.560 31.226, 98.650 31.684, 98.856 31.477 C 99.622 30.711, 96.887 24.508, 94.806 22.293 C 91.848 19.145, 87.986 19.362, 84.630 22.864 L 81.886 25.728 75.693 24.399 C 67.229 22.583, 60.553 22.629, 58.988 24.514 C 57.776 25.975, 57.937 29.689, 59.556 37.600 L 60.190 40.701 54.845 41.268 C 51.905 41.580, 48.707 42.148, 47.737 42.529 C 46.154 43.153, 46.002 42.598, 46.237 37.076 C 46.433 32.504, 46.116 30.672, 45 29.926 C 44.175 29.375, 39.829 29.053, 35.342 29.212 C 27.918 29.474, 26.839 29.780, 23.347 32.607 C 13.434 40.631, 11.936 50.635, 14.404 92.320 C 15.836 116.507, 15.970 124.451, 15.082 132.325 C 14.473 137.729, 14.211 142.532, 14.499 142.998 C 15.821 145.137, 25.852 147.481, 33.500 147.439 C 40.110 147.402, 42.487 146.918, 47.182 144.657 C 56.006 140.405, 62.273 131.846, 64.871 120.500 C 66.129 115.005, 65.778 54.970, 64.442 47.093 L 63.695 42.686 68.518 43.347 C 71.171 43.711, 73.453 44.120, 73.589 44.256 C 73.725 44.392, 73.161 46.977, 72.335 50.001 C 70.208 57.798, 69.545 72.860, 71.196 75.902 C 74.175 81.390, 78.291 81.193, 84.723 75.256 C 88.676 71.606, 88.968 71.506, 91.773 72.834 L 94.698 74.220 91.599 79.525 C 88.738 84.423, 88.151 84.880, 83.950 85.481 C 78.017 86.331, 71.842 89.850, 70.169 93.336 C 69.008 95.756, 69.237 98.363, 71.966 113.805 C 77.579 145.572, 83.276 164.483, 88.095 167.347 C 91.354 169.283, 94.734 167.244, 97.444 161.705 C 100.081 156.315, 106 134.694, 106 130.452 C 106 129.168, 106.450 127.840, 107 127.500 C 107.619 127.118, 108.002 128.907, 108.004 132.191 C 108.017 149.442, 114.800 171.288, 122.033 177.375 C 128.536 182.847, 133.757 181.661, 141.132 173.038 C 143.534 170.229, 147.603 166.572, 150.173 164.910 C 156.310 160.944, 162.257 154.400, 165.450 148.099 C 170.105 138.913, 171.079 131.935, 170.881 109.211 C 170.689 87.224, 171.470 82.346, 175.957 77.528 C 177.812 75.537, 177.794 75.248, 174.967 61.500 C 173.383 53.800, 171.674 46.150, 171.169 44.500 C 170.132 41.110, 159.959 14.666, 159.510 14.192 C 159.349 14.023, 158.199 15.373, 156.952 17.192 M 108.918 20.750 C 108.647 29.867, 110.878 50.571, 112.229 51.472 C 112.378 51.571, 114.300 52.702, 116.500 53.983 C 121.362 56.816, 127 61.962, 127 63.567 C 127 64.262, 124.518 65.023, 120.916 65.430 C 116.039 65.982, 114.947 66.421, 115.416 67.641 C 115.737 68.478, 116 69.866, 116 70.724 C 116 72.032, 116.956 72.185, 121.891 71.669 C 134.394 70.362, 143 65.166, 143 58.924 C 143 54.626, 144.442 54.640, 148.360 58.976 C 154.300 65.552, 159.135 73.589, 159.705 77.836 C 160.155 81.191, 159.834 82.257, 157.749 84.342 C 154.098 87.993, 149.070 88.988, 134.250 88.994 C 126.963 88.997, 121 89.383, 121 89.852 C 121 90.320, 124.542 90.977, 128.871 91.311 C 143.772 92.460, 156.384 96.570, 157.747 100.722 C 158.522 103.084, 153.243 106.843, 146.375 108.818 C 135.271 112.011, 134 112.202, 134 110.671 C 134 109.797, 137.074 108.491, 142.508 107.055 C 147.187 105.819, 151.994 104.015, 153.191 103.047 L 155.366 101.286 152.933 99.716 C 151.595 98.853, 147.800 97.461, 144.500 96.622 C 138.259 95.036, 122.797 92.869, 122.173 93.494 C 121.579 94.087, 124.999 105, 125.778 104.996 C 126.175 104.993, 128.495 103.668, 130.934 102.050 C 135.305 99.150, 138.184 98.868, 135.951 101.559 C 135.321 102.318, 132.825 104.191, 130.405 105.720 C 127.984 107.249, 126.152 108.947, 126.333 109.494 C 126.515 110.041, 131.237 111.862, 136.829 113.541 C 142.420 115.220, 147.415 117.023, 147.930 117.547 C 149.168 118.807, 150.795 147.801, 149.984 154.128 C 149.634 156.852, 148.609 159.820, 147.705 160.723 C 146.181 162.247, 145.904 162.226, 143.876 160.433 C 140.671 157.598, 134.828 144.553, 129.148 127.551 C 123.515 110.686, 123.190 110.337, 114.817 112.133 L 109.707 113.229 110.389 126.864 C 111.180 142.698, 114.034 158.058, 117.712 166.277 C 120.497 172.500, 125.833 178, 129.084 178 C 132.525 178, 136.509 175.316, 139.524 170.966 C 141.115 168.670, 144.926 165.087, 147.994 163.004 C 154.592 158.524, 160.125 152.635, 162.961 147.076 C 167.157 138.851, 168 132.725, 168 110.449 C 168 88.165, 168.754 82.963, 172.807 77.270 L 174.854 74.396 171.895 60.160 C 170.252 52.253, 167.025 40.939, 164.637 34.712 C 162.272 28.545, 160.019 22.628, 159.629 21.563 C 159.006 19.862, 158.366 20.259, 154.359 24.840 C 146.950 33.310, 140.412 35.221, 134.138 30.750 C 132.401 29.512, 129.174 27.194, 126.967 25.598 L 122.953 22.695 120.588 24.917 L 118.224 27.138 114.942 22.569 C 111.203 17.362, 109.038 16.708, 108.918 20.750 M 87.750 23.392 C 85.661 24.978, 85.451 27, 87.375 27 C 88.131 27, 90.156 27.281, 91.875 27.625 C 95.498 28.350, 95.837 27.276, 92.961 24.189 C 90.606 21.661, 90.127 21.588, 87.750 23.392 M 62.250 25.703 C 60.710 26.274, 60.654 29.740, 62.092 35.451 C 63.242 40.018, 64.993 41, 71.992 41 C 74.777 41, 74.828 40.923, 79.662 29.336 C 80.273 27.872, 64.995 24.684, 62.250 25.703 M 32 31.909 C 27.067 32.925, 24.449 34.535, 21.664 38.263 C 16.870 44.683, 16.465 47.672, 16.951 73 C 17.199 85.925, 17.424 106.748, 17.451 119.272 L 17.500 142.045 21 143.087 C 32.557 146.527, 44.422 144.754, 51.735 138.495 C 59.988 131.431, 64.940 115.610, 63.417 101.171 C 63.050 97.690, 62.657 84.640, 62.542 72.171 C 62.428 59.702, 61.976 48.028, 61.538 46.229 C 60.781 43.118, 60.564 42.988, 57.121 43.574 C 55.129 43.912, 51.813 44.614, 49.750 45.133 L 46 46.077 45.996 66.789 C 45.989 106.977, 44.441 123.456, 41.237 117.430 C 40.673 116.369, 39.720 110.091, 39.119 103.479 C 38.324 94.720, 37.228 89.268, 35.081 83.385 C 28.896 66.438, 30.110 55.461, 39.015 47.792 C 43.918 43.570, 43.999 43.407, 44 37.750 C 44 32.458, 43.821 31.999, 41.750 31.986 C 40.513 31.979, 38.600 31.796, 37.500 31.580 C 36.400 31.364, 33.925 31.512, 32 31.909 M 76.497 45.225 C 74.701 50.212, 73.027 60.705, 73.015 67.050 C 72.992 78.695, 75.920 79.975, 84.237 71.959 C 88.808 67.553, 89.614 67.120, 90.638 68.520 C 93.070 71.846, 97.037 71.832, 103.475 68.477 C 106.797 66.745, 110.025 65.142, 110.648 64.914 C 111.487 64.607, 111.491 63.110, 110.665 59.118 C 109.614 54.040, 109.295 53.626, 105.026 51.787 C 102.536 50.715, 96.450 48.791, 91.500 47.512 C 77.507 43.896, 77.004 43.819, 76.497 45.225 M 39.226 51.080 C 33.143 57.302, 32.544 68.132, 37.516 82 C 38.995 86.125, 40.599 92.378, 41.081 95.895 C 41.563 99.413, 42.178 102.511, 42.447 102.781 C 42.717 103.050, 43.064 90.834, 43.219 75.635 C 43.373 60.435, 43.216 47.999, 42.869 47.999 C 42.521 48, 40.882 49.386, 39.226 51.080 M 113.326 58.081 C 113.682 59.412, 113.979 61.276, 113.986 62.225 C 113.997 63.629, 114.605 63.836, 117.250 63.337 C 122.750 62.301, 123.150 61.641, 119.703 59.292 C 117.941 58.092, 115.640 56.784, 114.589 56.386 C 112.949 55.765, 112.770 56.005, 113.326 58.081 M 144.207 64.373 C 141.637 68.729, 133.772 72.571, 124.267 74.114 C 117.173 75.265, 117.046 75.337, 117.679 77.894 C 119.736 86.201, 118.679 85.447, 129.068 86.027 C 141.121 86.701, 151.280 85.702, 154.617 83.515 C 158.465 80.994, 157.472 75.816, 151.546 67.513 C 148.990 63.931, 146.741 61, 146.548 61 C 146.355 61, 145.302 62.518, 144.207 64.373 M 106.120 69.885 C 103.366 71.352, 103.057 71.808, 104.452 72.343 C 105.393 72.704, 107.702 73, 109.582 73 C 112.561 73, 113 72.679, 113 70.500 C 113 67.477, 110.979 67.296, 106.120 69.885 M 95.035 79.110 C 93.366 81.415, 92 83.683, 92 84.150 C 92 84.618, 97.578 85, 104.396 85 L 116.793 85 115.584 80.250 L 114.375 75.500 106.223 75.210 L 98.070 74.920 95.035 79.110 M 92.750 87.732 C 91.406 88.050, 91 89.185, 91 92.623 C 91 99.892, 94.900 105.389, 102.232 108.452 C 106.863 110.388, 107.001 110.382, 106.998 108.250 C 106.996 107.148, 104.990 105.452, 101.581 103.671 C 94.886 100.173, 92.614 97.793, 93.451 95.155 C 94.322 92.409, 98.962 90.985, 109.299 90.289 C 114.138 89.964, 117.738 89.372, 117.299 88.974 C 116.394 88.155, 95.437 87.094, 92.750 87.732 M 79.684 89.449 C 74.819 91.184, 71.998 93.740, 72.007 96.405 C 72.018 99.726, 78.605 134.649, 80.948 143.811 C 83.814 155.017, 86.657 162.380, 88.902 164.411 C 90.647 165.990, 90.870 165.987, 92.497 164.360 C 96.223 160.634, 100.071 147.984, 103.996 126.557 C 106.405 113.405, 106.449 112, 104.460 112 C 102.127 112, 95.778 108.493, 93.298 105.834 C 90.206 102.519, 88 96.773, 88 92.032 C 88 88.504, 87.719 88.005, 85.750 88.044 C 84.513 88.068, 81.783 88.700, 79.684 89.449 M 102.500 93.491 C 101.950 93.675, 100.263 94.098, 98.750 94.432 C 97.237 94.765, 96 95.489, 96 96.041 C 96 97.665, 105.339 103.129, 107.268 102.633 C 108.240 102.383, 109.686 102.829, 110.483 103.625 C 112.698 105.841, 118.930 108.157, 120.950 107.516 C 122.674 106.969, 122.664 106.637, 120.720 99.972 L 118.686 93 111.093 93.079 C 106.917 93.122, 103.050 93.308, 102.500 93.491 M 110 109 C 110 109.550, 110.927 110, 112.059 110 C 113.191 110, 113.840 109.550, 113.500 109 C 113.160 108.450, 112.234 108, 111.441 108 C 110.648 108, 110 108.450, 110 109 M 128 114.809 C 128 115.329, 130.055 121.754, 132.568 129.089 C 137.731 144.164, 142.899 155.878, 145.229 157.790 C 148.251 160.269, 148.628 149.461, 146.361 125.314 L 145.781 119.128 138.640 117.006 C 134.713 115.838, 130.713 114.654, 129.750 114.374 C 128.787 114.094, 128 114.290, 128 114.809" stroke="none" fill="black" fill-rule="evenodd"/>
</svg>