<svg xmlns="http://www.w3.org/2000/svg" width="200" height="200" viewBox="0 0 200 200" version="1.1">
	<path d="M 136.028 17.072 C 133.569 18.188, 130.010 20.281, 128.119 21.723 C 126.228 23.165, 123.065 24.923, 121.090 25.629 C 115.024 27.797, 94.649 27.276, 73.036 24.400 C 36.659 19.559, 27.014 22.515, 27.004 38.507 C 27.002 41.810, 27.401 45.910, 27.890 47.617 C 28.569 49.983, 28.178 52.718, 26.250 59.111 C 23.223 69.143, 22.532 86.097, 24.910 92 C 33.137 112.426, 53.389 107.904, 57.108 84.812 C 58.349 77.105, 56.995 67.094, 53.055 54.841 C 50.793 47.808, 50.366 45.365, 51.287 44.713 C 55.635 41.634, 66.309 37.582, 76.087 35.300 C 85.645 33.069, 89.938 32.625, 102.500 32.568 C 118.339 32.496, 123.334 33.464, 130.877 38.065 L 134.254 40.125 131.377 43.130 C 129.795 44.783, 125.265 47.735, 121.310 49.690 C 113.352 53.625, 113.874 53.626, 99.317 49.620 C 88.840 46.736, 75.189 44.708, 69.432 45.179 C 61.649 45.817, 65.006 50.785, 74.413 52.550 C 79.633 53.529, 78.880 51.111, 73.441 49.429 L 69.500 48.210 74.066 48.105 C 78.222 48.009, 87.890 49.348, 92.250 50.623 C 93.213 50.905, 94 51.735, 94 52.470 C 94 54.364, 99.387 56, 105.629 56 C 110.813 56, 119 58.439, 119 59.984 C 119 60.406, 115.778 64.744, 111.839 69.625 C 107.900 74.506, 102.221 81.763, 99.218 85.750 C 94.110 92.532, 93.511 93, 89.938 93 C 87.837 93, 85.842 92.554, 85.505 92.008 C 84.577 90.507, 90.519 82.458, 99.335 73.273 C 104.011 68.401, 107.015 64.483, 106.701 63.664 C 106.087 62.064, 102.280 61.375, 88.768 60.418 L 79.036 59.729 73.629 63.900 C 64.044 71.295, 60.337 78.883, 63.408 84.823 C 65.066 88.028, 71.442 92.357, 76.250 93.540 C 77.763 93.912, 79 94.385, 79 94.589 C 79 94.794, 77.553 97.896, 75.785 101.481 C 73.070 106.987, 72.170 108, 69.995 108 C 65.244 108, 55.544 111.037, 50.636 114.062 C 46.053 116.886, 45.463 117.002, 40.428 116.071 C 34.168 114.914, 27.614 111.824, 23.760 108.213 C 22.254 106.801, 20.709 105.957, 20.329 106.338 C 19.948 106.719, 19.606 118.611, 19.569 132.765 C 19.497 159.997, 20.224 165.638, 25.018 175.035 C 31.073 186.905, 44.367 189.446, 61.500 182.008 C 64.714 180.612, 67.646 180.020, 69.710 180.349 C 77.882 181.653, 85.570 175.549, 88.671 165.291 C 91.945 154.463, 90.764 130.258, 86.342 117.594 C 85.592 115.446, 85.238 113.428, 85.556 113.111 C 86.308 112.358, 97.692 112.358, 98.444 113.111 C 98.762 113.428, 98.286 115.671, 97.387 118.094 C 94.929 124.718, 94.405 142.805, 96.422 151.400 C 99.971 166.527, 108.697 178.832, 119.500 183.943 C 128.731 188.310, 141.957 187.923, 154.585 182.917 L 159.671 180.901 165.471 167.722 C 175.073 145.903, 174.882 144.777, 162.659 151.107 C 152.866 156.179, 147.974 157.942, 140.748 159.004 C 133.936 160.004, 123.498 158.729, 117.656 156.181 L 113.542 154.387 127.286 149.700 C 156.382 139.777, 167.894 131.661, 161.250 125.754 C 156.196 121.262, 138.579 120.709, 125.649 124.637 C 124.043 125.124, 123.885 124.799, 124.460 122.183 C 125.373 118.026, 123.521 111.838, 120.519 109.018 C 117.175 105.876, 109.592 105.294, 99.267 107.386 C 90.602 109.142, 85.643 109.453, 86.167 108.208 C 86.350 107.773, 88.277 104.903, 90.449 101.830 L 94.397 96.243 102.449 95.588 C 106.877 95.227, 113.650 94.286, 117.500 93.495 C 123.453 92.272, 125.009 91.492, 127.901 88.279 C 129.772 86.200, 131.009 85.325, 130.650 86.334 C 129.490 89.598, 128.715 101.667, 129.423 105.441 C 130.739 112.454, 135.728 114.743, 142.295 111.347 C 145.966 109.449, 156.305 99.774, 162.310 92.618 C 166.165 88.025, 166.413 87.345, 166.500 81.118 C 166.552 77.478, 166.980 65.859, 167.451 55.298 C 168.210 38.306, 168.113 35.584, 166.611 31.651 C 163.580 23.714, 157.223 23.510, 147.809 31.045 C 145.778 32.670, 143.927 34, 143.695 34 C 143.462 34, 144.336 31.899, 145.636 29.331 C 148.592 23.491, 148.786 17.491, 146.066 16.035 C 143.287 14.548, 141.093 14.775, 136.028 17.072 M 135.286 20.433 C 132.969 21.759, 129.532 24.018, 127.649 25.454 C 125.766 26.891, 122.262 28.410, 119.862 28.831 L 115.500 29.595 120.373 30.843 C 123.052 31.529, 127.552 33.305, 130.373 34.790 C 133.193 36.274, 135.799 37.628, 136.164 37.799 C 138.340 38.816, 146.387 22.427, 145.272 19.250 C 144.573 17.259, 139.861 17.818, 135.286 20.433 M 36.325 26.459 C 31.410 28.597, 29.494 32.346, 29.691 39.439 C 29.784 42.772, 30.310 46.685, 30.861 48.133 C 31.644 50.193, 31.309 52.481, 29.326 58.633 C 26.234 68.223, 25.208 81.531, 26.989 88.953 C 28.737 96.240, 34.234 102, 39.441 102 C 44.876 102, 48.718 99.276, 51.605 93.375 C 56.280 83.819, 55.747 70.733, 50.001 54.031 C 47.242 46.010, 47.178 45.461, 48.794 43.673 C 52.884 39.145, 70.035 33.041, 85 30.787 L 92.500 29.657 75 27.378 C 54.881 24.758, 40.994 24.428, 36.325 26.459 M 152.701 30.975 C 150.121 32.611, 146.017 35.787, 143.580 38.033 C 139.156 42.111, 139.152 42.120, 140.575 45.526 C 142.822 50.903, 142.270 57.027, 138.533 68.196 C 132.527 86.144, 130.227 102.820, 133.035 108.066 C 135.934 113.482, 144.666 108.403, 157.601 93.775 L 163.702 86.876 164.563 66.688 C 165.613 42.059, 165.380 34.636, 163.441 30.885 C 161.503 27.138, 158.714 27.162, 152.701 30.975 M 130.003 52.076 L 123.714 59.151 127.506 62.826 C 129.591 64.847, 131.872 67.850, 132.574 69.500 C 133.475 71.618, 134.008 72.059, 134.385 71 C 134.679 70.175, 135.838 67.025, 136.960 64 C 139.633 56.790, 139.682 45, 137.039 45 C 136.628 45, 133.461 48.184, 130.003 52.076 M 122.673 52.166 C 116.977 55.135, 116.894 55.238, 119.007 56.717 C 120.196 57.550, 121.469 57.842, 121.837 57.366 C 122.205 56.890, 124.055 54.813, 125.949 52.750 C 127.843 50.688, 129.192 49.029, 128.946 49.065 C 128.701 49.100, 125.878 50.496, 122.673 52.166 M 74.958 66.353 C 67.115 72.509, 63.932 78.060, 65.469 82.902 C 66.333 85.623, 71.120 88.931, 76.568 90.571 L 80.992 91.902 84.880 86.176 C 87.019 83.027, 91.971 77.021, 95.884 72.831 C 99.798 68.640, 103 64.992, 103 64.725 C 103 64.457, 98.612 63.930, 93.250 63.555 C 87.888 63.179, 82.821 62.679, 81.991 62.445 C 81.160 62.210, 77.996 63.969, 74.958 66.353 M 116.368 68.250 C 113.623 71.688, 108.138 78.662, 104.178 83.750 L 96.978 93 100.858 93 C 108.785 93, 122.372 89.998, 124.832 87.704 C 128.129 84.628, 131 78.672, 131 74.908 C 131 70.263, 125.211 62, 121.957 62 C 121.628 62, 119.113 64.813, 116.368 68.250 M 79.548 99.905 L 77.062 104.811 79.618 106.485 C 81.023 107.406, 82.378 107.955, 82.628 107.706 C 82.878 107.456, 84.887 104.832, 87.093 101.876 C 91.061 96.558, 91.080 96.493, 88.802 95.850 C 83.313 94.299, 82.125 94.820, 79.548 99.905 M 100.500 110 C 98.625 110.806, 98.648 110.864, 100.857 110.930 C 102.707 110.985, 103.055 111.376, 102.472 112.750 C 98.201 122.828, 96.728 133.355, 98.079 144.146 C 102.151 176.665, 124.209 191.654, 152.220 180.934 L 157.573 178.886 163.286 165.883 C 166.429 158.731, 169 152.451, 169 151.928 C 169 151.406, 165.509 152.733, 161.242 154.878 C 150.667 160.195, 144.018 162, 135 162 C 126.686 162, 119.287 160.188, 111.503 156.246 L 106.506 153.716 122.003 148.518 C 138.035 143.140, 148.409 139.018, 152.903 136.241 C 157.436 133.439, 160.867 129.817, 160.325 128.405 C 159.513 126.289, 153.324 125.009, 144 125.030 C 133.868 125.053, 127.519 126.331, 123.671 129.123 C 122.116 130.252, 120.703 131.024, 120.532 130.838 C 120.361 130.652, 120.695 127.921, 121.275 124.769 C 122.619 117.452, 121.156 111.848, 117.462 110.165 C 114.531 108.829, 103.475 108.722, 100.500 110 M 61.718 112.092 C 57.685 113.041, 51.561 115.894, 52.195 116.528 C 53.112 117.445, 80 112.505, 80 111.420 C 80 110.655, 65.567 111.185, 61.718 112.092 M 22.433 117.692 C 22.053 120.729, 21.973 131.603, 22.255 141.857 C 22.854 163.674, 24.648 171.390, 30.667 178.054 C 36.786 184.826, 44.682 185.463, 57.983 180.256 C 62.191 178.609, 66.641 177.669, 70.544 177.603 C 77.935 177.477, 81.018 175.659, 83.886 169.736 C 87.144 163.006, 88.296 154.728, 87.677 142.500 C 87.165 132.386, 84.050 116.650, 82.193 114.793 C 81.389 113.989, 57.628 146.716, 57.721 148.500 C 57.749 149.050, 58.277 152.501, 58.893 156.169 C 62.143 175.523, 49.091 170.175, 42.085 149.282 C 39.323 141.044, 39.296 130.149, 42.022 124.141 C 43.110 121.743, 44 119.664, 44 119.520 C 44 119.376, 41.772 118.962, 39.048 118.601 C 36.325 118.240, 31.627 116.645, 28.609 115.058 L 23.123 112.171 22.433 117.692 M 66.500 117.559 C 63.200 118.303, 58.869 118.932, 56.875 118.956 C 49.232 119.048, 47.025 120.037, 44.751 124.385 C 39.522 134.386, 44.429 155.961, 53.849 164.386 C 55.882 166.204, 55.984 166.206, 56.660 164.444 C 57.046 163.439, 56.672 159.232, 55.829 155.095 L 54.297 147.573 65.149 132.336 C 71.117 123.955, 76 116.851, 76 116.549 C 76 115.743, 73.253 116.035, 66.500 117.559" stroke="none" fill="black" fill-rule="evenodd"/>
</svg>