<svg xmlns="http://www.w3.org/2000/svg" width="200" height="200" viewBox="0 0 200 200" version="1.1">
	<path d="M 146.998 15.941 C 142.773 18.176, 98.288 27, 91.246 27 C 84.473 27, 80 27.992, 80 29.495 C 80 30.219, 77.476 31.236, 73.962 31.928 C 68.443 33.013, 67.434 32.922, 62.212 30.865 C 57.560 29.031, 54.459 28.603, 45.500 28.557 C 31.655 28.485, 24.543 30.555, 18.395 36.446 C 13.186 41.437, 12.323 44.545, 14.115 51.855 C 15.592 57.877, 15.756 69.842, 14.957 113.500 C 14.522 137.300, 14.608 138.842, 16.741 145.625 C 18.488 151.179, 19.867 153.550, 22.994 156.375 C 25.200 158.369, 27.625 160, 28.381 160 C 29.152 160, 30.782 157.258, 32.089 153.763 C 34.978 146.037, 41.034 139.591, 46.338 138.596 C 48.360 138.217, 53.651 138.405, 58.096 139.013 C 66.631 140.182, 70.981 139.714, 74.793 137.216 C 77.023 135.755, 77.093 135.790, 76.567 138.097 C 73.892 149.821, 73.243 165.740, 75.176 172.193 C 76.813 177.658, 81.058 181.004, 86.327 180.983 C 90.421 180.967, 95.915 178.939, 115.766 170.118 C 120.862 167.853, 125.887 166, 126.931 166 C 128.045 166, 130.300 168.003, 132.389 170.849 C 137.107 177.276, 144.252 183.774, 147.496 184.588 C 150.970 185.460, 154.390 182.239, 156.469 176.138 C 157.332 173.603, 158.943 162.522, 160.049 151.514 C 162.672 125.381, 165.055 117.023, 170.339 115.424 C 173.683 114.412, 177 110.894, 177 108.360 C 177 104.423, 171.584 99.631, 154.513 88.463 C 143.929 81.540, 138 77.054, 138 75.970 C 138 74.675, 139.232 74.132, 143.250 73.655 C 147.855 73.108, 174.627 74.416, 179.185 75.411 C 182.870 76.215, 183.184 66.488, 179.608 62.331 C 177.458 59.831, 176.450 59.511, 169.638 59.167 C 165.469 58.957, 159.068 59.305, 155.413 59.942 C 151.757 60.578, 148.598 60.931, 148.392 60.725 C 148.186 60.519, 152.774 53.859, 158.588 45.925 C 170.317 29.920, 173.268 24.889, 172.809 21.683 C 172.345 18.436, 169.650 18.509, 162.218 21.971 C 146.900 29.109, 136.132 35.948, 132.964 40.552 C 128.417 47.161, 126.047 52.991, 126.022 57.628 C 125.994 62.943, 127.753 64.367, 135.131 65 L 140.959 65.500 136.775 71.754 L 132.592 78.007 128.960 74.461 C 125.145 70.735, 115.988 66.554, 103.752 62.950 C 99.763 61.775, 96.136 60.469, 95.692 60.049 C 95.248 59.628, 96.234 56.995, 97.884 54.197 C 101.491 48.080, 104 41.010, 104 36.965 C 104 34.145, 104.209 33.999, 108.250 33.987 C 124.022 33.938, 153 22.258, 153 15.949 C 153 13.546, 151.529 13.544, 146.998 15.941 M 125.052 24.080 C 100.627 28.916, 99.937 29.089, 100.625 30.203 C 101.524 31.656, 117.949 30.591, 125.201 28.609 C 132.068 26.732, 144.315 21.162, 141.500 21.196 C 140.400 21.209, 132.998 22.507, 125.052 24.080 M 156.741 27.810 C 137.004 38.011, 134.327 40.454, 129.747 52.447 C 126.610 60.664, 130.558 64.400, 140.160 62.300 C 143.445 61.582, 145.014 59.864, 155.506 45.500 C 168.687 27.453, 171.937 22, 169.511 22 C 168.670 22, 162.923 24.614, 156.741 27.810 M 31.929 32.307 C 24.914 34.292, 18.452 38.496, 16.989 42.027 C 15.933 44.576, 15.951 46.411, 17.090 52.315 C 18.712 60.719, 18.840 74.403, 17.604 107.501 C 16.637 133.398, 17.334 141.793, 21.103 149.667 C 22.200 151.959, 24.235 154.579, 25.624 155.489 C 28.057 157.084, 28.171 157.060, 28.749 154.854 C 30.031 149.949, 34.678 142.572, 38.352 139.608 L 42.204 136.500 56.389 136.500 C 72.854 136.500, 74.636 135.834, 77.627 128.561 C 79.720 123.473, 82.639 122.152, 81.630 126.750 C 76.439 150.410, 75.645 169.396, 79.625 174.679 C 82.854 178.965, 89.859 178.608, 101 173.590 C 105.675 171.484, 113.100 168.248, 117.500 166.398 C 125.302 163.117, 125.401 163.033, 121.500 162.992 C 110.420 162.878, 102.032 158.529, 98.710 151.177 C 96.164 145.543, 95.971 134.543, 98.266 125.851 C 99.702 120.412, 99.679 120.123, 97.646 118.090 C 92.150 112.595, 97.629 100.664, 113.825 82.855 C 119.144 77.007, 121.385 73.432, 120.563 72.103 C 119.967 71.137, 96.029 63, 93.785 63 C 92.987 63, 90.940 64.735, 89.236 66.856 C 86.226 70.601, 86.177 70.825, 87.525 74.606 C 90.618 83.287, 88.810 94.938, 83.496 100.573 C 77.423 107.013, 70.674 106.032, 66.788 98.144 C 64.777 94.062, 64.523 92.170, 64.688 82.500 C 64.800 75.920, 65.639 68.189, 66.775 63.261 L 68.674 55.021 60.087 52.450 C 55.364 51.036, 50.768 49.669, 49.874 49.412 C 48.805 49.104, 48.039 49.725, 47.638 51.222 C 46.525 55.373, 46.971 57.742, 49.918 63.344 C 54.099 71.291, 55.502 78.975, 54.239 87 C 52.875 95.662, 49.286 105, 47.321 105 C 46.236 105, 46.009 104.487, 46.546 103.250 C 52.107 90.452, 53.144 81.125, 50.115 71.154 C 46.428 59.014, 46.268 59.371, 42.977 87 C 41.897 96.075, 41.029 107.550, 41.050 112.500 L 41.088 121.500 43.068 117.750 C 45.015 114.062, 47.004 112.796, 46.996 115.250 C 46.990 117.228, 43.150 123.005, 41.393 123.679 C 40.516 124.016, 39.363 123.663, 38.832 122.896 C 37.370 120.785, 38.646 98.042, 41.407 77 L 43.835 58.500 41.851 55.275 C 38.237 49.398, 39.607 43.914, 45.489 40.724 C 46.595 40.124, 51.100 38.414, 55.500 36.925 L 63.500 34.218 60.500 32.977 C 56.139 31.174, 37.481 30.736, 31.929 32.307 M 78 33.663 C 74.425 34.520, 71.352 35.357, 71.170 35.524 C 70.989 35.690, 71.595 36.979, 72.518 38.388 C 74.339 41.166, 74.924 46.999, 73.786 51.032 C 73.093 53.486, 73.355 53.651, 82.244 56.357 C 91.057 59.040, 91.472 59.078, 92.816 57.325 C 96.028 53.134, 101 41.343, 101 37.916 L 101 34.275 95.697 33.652 C 92.781 33.309, 89.068 32.821, 87.447 32.567 C 85.826 32.313, 81.575 32.806, 78 33.663 M 55.150 39.933 C 45.248 43.380, 41.606 46.274, 42.518 49.973 C 43.632 54.490, 45 54.647, 45 50.259 C 45 47.981, 45.337 45.910, 45.750 45.655 C 46.163 45.401, 51.225 46.724, 57 48.595 C 70.206 52.875, 70.745 52.874, 71.550 48.587 C 72.651 42.719, 69.702 36.987, 65.595 37.013 C 64.443 37.021, 59.742 38.335, 55.150 39.933 M 70.999 58.503 C 66.916 69.241, 65.984 91.322, 69.342 97.736 C 72.625 104.006, 79.486 102.977, 83.627 95.594 C 86.504 90.465, 87.235 85.195, 85.920 79.061 C 84.920 74.399, 84.646 74.051, 82.417 74.610 C 78.896 75.494, 79.399 74.123, 85.044 67.457 L 90.088 61.500 86.294 60.374 C 84.207 59.755, 80.119 58.537, 77.209 57.666 L 71.919 56.084 70.999 58.503 M 156 62.571 C 144.252 64.406, 144.851 64.172, 142.785 67.734 L 141.069 70.691 158.290 71.283 C 167.761 71.609, 176.295 72.176, 177.255 72.544 C 178.734 73.112, 179 72.611, 179 69.262 C 179 61.707, 172.900 59.932, 156 62.571 M 121.561 78.331 C 117.407 83.777, 102.197 117.531, 103.369 118.702 C 103.554 118.887, 106.047 119.142, 108.910 119.269 L 114.115 119.500 116.878 111 C 119.445 103.101, 127.007 86.720, 129.089 84.550 C 130.713 82.857, 130.056 79.401, 127.686 77.174 C 126.413 75.978, 125.086 75, 124.736 75 C 124.387 75, 122.958 76.499, 121.561 78.331 M 134.288 80.691 C 133.402 83, 137.086 93.421, 143.166 105.804 C 145.949 111.471, 148.047 116.286, 147.830 116.503 C 147.085 117.248, 129.501 120.868, 123.250 121.563 L 117 122.258 117.010 128.879 C 117.030 142.858, 124.671 151.740, 142.500 158.511 C 144.005 159.083, 142.768 159.647, 137.500 160.790 C 133.650 161.626, 130.342 162.436, 130.149 162.589 C 129.175 163.365, 141.174 177.815, 144.750 180.173 C 152.388 185.210, 154.546 180.028, 157.519 149.500 C 160.094 123.070, 162.182 116.773, 169.694 112.788 C 172.741 111.171, 174 109.870, 174 108.337 C 174 105.279, 167.347 99.745, 152.194 90.198 C 145.110 85.735, 138.738 81.389, 138.035 80.542 C 136.371 78.537, 135.095 78.588, 134.288 80.691 M 126.626 94.749 C 122.029 103.903, 118 114.580, 118 117.611 C 118 119.054, 118.802 119.201, 123.813 118.677 C 127.010 118.343, 133 117.328, 137.123 116.422 L 144.621 114.775 140.921 107.637 C 138.885 103.712, 136.198 97.575, 134.948 94 C 133.699 90.425, 132.332 87.106, 131.912 86.624 C 131.491 86.141, 129.113 89.798, 126.626 94.749 M 106.876 95.250 C 102.251 101.073, 98.025 109.356, 98.010 112.628 C 98.004 113.798, 98.633 115.281, 99.407 115.923 C 100.555 116.876, 101.042 116.391, 102.048 113.296 C 102.726 111.208, 105.217 105.112, 107.584 99.750 C 109.950 94.388, 111.697 90, 111.466 90 C 111.235 90, 109.170 92.362, 106.876 95.250 M 101.002 125.897 C 97.904 138.223, 98.836 148.275, 103.601 153.938 C 107.854 158.992, 118.044 161.052, 130.409 159.357 L 135.097 158.715 130.798 156.289 C 120.245 150.332, 114.934 141.860, 114.213 129.833 L 113.753 122.165 107.930 121.833 L 102.107 121.500 101.002 125.897" stroke="none" fill="black" fill-rule="evenodd"/>
</svg>