<svg xmlns="http://www.w3.org/2000/svg" width="200" height="200" viewBox="0 0 200 200" version="1.1">
	<path d="M 57.009 12.031 C 49.985 13.512, 43.966 17.071, 41.868 20.984 C 40.474 23.585, 40 26.574, 40 32.767 C 40 45.530, 37.534 49.577, 26.747 54.516 C 23.586 55.963, 21 57.564, 21 58.073 C 21 61.529, 35.095 54.340, 38.781 49.004 C 40.670 46.269, 41.958 45.280, 43 45.762 C 43.825 46.144, 49.563 46.606, 55.750 46.789 C 61.938 46.971, 67 47.432, 67 47.811 C 67 48.191, 61.167 51.426, 54.039 55.001 C 46.910 58.575, 41.060 62.115, 41.039 62.867 C 41.012 63.824, 41.673 64.028, 43.250 63.548 C 48.212 62.035, 59.719 59.163, 63.250 58.555 L 67 57.909 67 63.749 L 67 69.589 61.589 74.044 C 57.440 77.462, 55.925 79.477, 55.089 82.693 C 53.590 88.465, 53.722 91.157, 55.639 93.894 C 57.073 95.943, 57.829 96.158, 61.707 95.627 C 65.870 95.056, 66.117 95.155, 65.818 97.260 C 65.518 99.374, 65.107 99.481, 58.500 99.164 C 43.973 98.468, 30.607 94.330, 25.430 88.927 C 23.290 86.693, 22.610 84.991, 22.562 81.749 C 22.479 76.057, 20.578 76.303, 20.203 82.056 C 19.979 85.495, 20.426 87.272, 22.026 89.306 C 27.149 95.818, 40.263 100.629, 55.750 101.676 L 65 102.302 65 105.110 C 65 110.702, 62.734 122.979, 61.381 124.719 C 60.098 126.368, 59.685 126.130, 55.799 121.500 C 44.159 107.631, 37.610 103, 29.639 103 L 25.080 103 23.152 109.250 C 18.122 125.547, 17.661 148.197, 22.089 161.447 C 26.147 173.590, 33.339 179.103, 41.216 176.108 C 45.001 174.669, 50.694 168.110, 54.584 160.708 L 58.202 153.823 60.590 160.661 C 63.671 169.485, 67.575 175.028, 72.366 177.379 C 75.615 178.973, 76.772 179.085, 80 178.118 C 85.509 176.468, 93.767 167.104, 98.740 156.869 C 107.901 138.016, 107.219 129.831, 95.425 117.092 C 91.806 113.184, 88.829 110.966, 86.106 110.150 C 82.483 109.064, 75.319 103.348, 76.323 102.344 C 76.550 102.117, 79.567 101.475, 83.028 100.918 C 95.794 98.862, 105.373 94.048, 108.420 88.156 C 109.510 86.047, 109.796 81.274, 109.661 67.457 C 109.499 50.926, 109.296 49.083, 107.116 44.243 C 104.331 38.061, 99.550 33.524, 94.277 32.060 C 92.200 31.483, 85.775 30.980, 80 30.942 C 67.907 30.863, 68.435 30.368, 85 26.249 C 93.406 24.159, 98.026 23.624, 108.168 23.569 C 119.533 23.507, 121.128 23.716, 123.668 25.599 C 129.311 29.783, 127.611 37.261, 118.467 48.488 C 114.039 53.923, 113.961 54.142, 115.028 58.105 C 118.610 71.408, 120.056 100.942, 117.961 118.026 C 115.702 136.452, 109.345 154.157, 100.577 166.444 C 96.505 172.151, 96.233 172.888, 97.523 174.729 C 106.807 187.984, 137.519 146.309, 146.699 108 C 147.555 104.425, 148.562 96.325, 148.935 90 L 149.614 78.500 151.430 82.500 C 155.160 90.713, 153.195 123.155, 147.547 146.591 C 143.707 162.528, 139.649 170.213, 134.583 171.147 C 130.704 171.861, 132.058 173.903, 138.521 177.085 C 150.440 182.953, 160.153 182.144, 166.476 174.757 C 175.603 164.095, 178.970 142.434, 178.990 94.250 L 179 71 175.750 70.978 C 161.424 70.881, 149.915 51.216, 151.171 28.983 C 151.519 22.816, 151.913 21.574, 154.023 19.983 C 155.369 18.968, 156.232 17.898, 155.941 17.607 C 155.649 17.316, 145.306 15.899, 132.955 14.458 C 108.558 11.612, 65.522 10.237, 57.009 12.031 M 64.500 14.021 C 54.295 15.112, 49.052 16.794, 45.842 20.004 C 43.188 22.658, 43 23.382, 43 30.923 C 43 35.365, 43.241 39, 43.535 39 C 43.830 39, 45.158 38.288, 46.486 37.417 C 47.815 36.546, 52.384 34.321, 56.639 32.471 L 64.376 29.107 65.938 22.804 C 67.972 14.596, 70.363 14.103, 70.804 21.800 C 71.059 26.253, 71.379 27.016, 72.804 26.570 C 90.426 21.062, 111.547 18.636, 120.421 21.100 C 125.870 22.613, 130.003 26.963, 129.990 31.173 C 129.977 35.522, 126.317 43.211, 121.183 49.674 L 117.073 54.849 118.511 61.674 C 122.485 80.532, 122.921 109.144, 119.503 126.830 C 116.427 142.746, 109.363 159.776, 101.950 169.153 C 99.462 172.299, 99.265 172.975, 100.530 174.025 C 105.674 178.294, 121.123 160.980, 132.387 138.326 C 141.750 119.493, 146 103.639, 146 87.542 C 146 79.073, 146.283 77.105, 147.572 76.611 C 149.946 75.700, 152.565 77.542, 154.113 81.212 C 156.236 86.246, 155.890 118.590, 153.574 131.500 C 149.904 151.962, 145.610 165.097, 140.800 170.576 L 137.804 173.987 142.652 176.104 C 148.574 178.689, 156.898 178.952, 160.391 176.663 C 164.159 174.194, 167.866 168.813, 170.020 162.683 C 174.198 150.796, 175.207 140.933, 175.739 106.800 L 176.248 74.100 173.374 73.478 C 164.247 71.500, 157.685 65.921, 153.351 56.455 C 148.757 46.421, 146.729 30.917, 148.983 23.060 C 149.523 21.175, 149.850 19.517, 149.708 19.375 C 149.093 18.760, 111.048 14.981, 96 14.041 C 77.935 12.911, 74.883 12.910, 64.500 14.021 M 58.842 34.362 C 51.618 37.349, 44 41.805, 44 43.042 C 44 44.886, 66.007 44.497, 67.261 42.632 C 67.679 42.009, 67.904 39.479, 67.761 37.009 C 67.442 31.518, 66.439 31.220, 58.842 34.362 M 70 38.638 L 70 43.275 75.750 42.605 C 78.912 42.236, 83.188 41.666, 85.250 41.339 C 88.291 40.857, 89 41.052, 89 42.372 C 89 43.267, 88.310 44, 87.468 44 C 86.625 44, 82.350 45.383, 77.968 47.073 C 71.186 49.688, 70 50.490, 70 52.463 C 70 54.651, 70.429 54.803, 77.604 55.165 C 84.761 55.527, 85.385 55.747, 88.210 58.909 C 90.864 61.879, 91.136 62.747, 90.555 66.385 C 89.683 71.837, 86.322 77.386, 80.002 83.806 C 75.360 88.522, 74.811 89.539, 74.751 93.544 C 74.713 96.004, 74.991 98.324, 75.367 98.700 C 76.453 99.786, 92.143 96.413, 97.314 93.983 C 99.898 92.768, 103.103 90.478, 104.435 88.895 C 106.771 86.118, 106.860 85.439, 106.946 69.748 C 107.045 51.612, 105.856 45.359, 101.272 39.911 C 97.205 35.078, 93.514 34, 81.032 34 L 70 34 70 38.638 M 61 54.543 C 57.467 56.468, 57.091 56.888, 59.250 56.498 C 65.947 55.286, 67 54.876, 67 53.481 C 67 51.522, 66.322 51.642, 61 54.543 M 71.250 57.606 C 70.519 57.934, 70 60.030, 70 62.651 L 70 67.136 72.904 65.068 C 74.502 63.931, 76.752 63, 77.904 63 C 80.984 63, 80.964 65.763, 77.809 76.303 C 76.689 80.045, 76.012 83.346, 76.305 83.638 C 76.598 83.931, 78.908 81.545, 81.439 78.335 C 88.821 68.974, 89.918 61.651, 84.321 59.100 C 81.221 57.688, 73.128 56.763, 71.250 57.606 M 72.500 68.522 C 69.631 70.865, 69.485 71.367, 69.151 79.986 C 68.921 85.911, 69.166 89, 69.865 89 C 71.177 89, 72.524 86.465, 73.320 82.500 C 73.652 80.850, 74.808 76.463, 75.891 72.750 C 78.080 65.240, 77.462 64.469, 72.500 68.522 M 61.791 77.533 C 58.070 81.060, 56.490 85.358, 57.163 90.119 C 57.422 91.949, 58.195 92.560, 60.500 92.761 C 62.150 92.904, 63.995 92.679, 64.599 92.261 C 65.805 91.426, 67.335 73.995, 66.201 74.009 C 65.816 74.013, 63.831 75.600, 61.791 77.533 M 69.557 93.223 C 67.362 96.355, 67.565 99, 70 99 C 71.667 99, 72 98.333, 72 95 C 72 90.392, 71.695 90.170, 69.557 93.223 M 67.599 108.250 C 66.489 118.775, 64.912 125.088, 62.890 127.110 C 60.222 129.778, 57.995 128.392, 49.859 119 C 42.550 110.562, 38.516 107.485, 32.711 105.922 C 27.576 104.539, 26.724 105.428, 24.500 114.492 C 19.133 136.374, 21.617 160.800, 30.206 170.582 C 32.658 173.374, 33.920 174, 37.104 174 C 42.335 174, 47.127 169.171, 52.891 158.092 L 57.247 149.720 56.123 142.917 C 54.598 133.680, 54.649 127.719, 56.250 128.241 C 57.811 128.750, 59.771 137.711, 59.917 145 C 60.125 155.436, 67.415 172.011, 73.146 175.078 C 79.696 178.584, 88.622 170.902, 96.343 155.115 C 102.086 143.373, 103.437 135.352, 100.747 128.964 C 98.370 123.318, 90.220 115.072, 84.529 112.555 C 81.599 111.259, 77.883 108.513, 75.855 106.144 C 73.864 103.818, 71.420 102, 70.283 102 C 68.536 102, 68.168 102.858, 67.599 108.250" stroke="none" fill="black" fill-rule="evenodd"/>
</svg>