<svg xmlns="http://www.w3.org/2000/svg" width="200" height="200" viewBox="0 0 200 200" version="1.1">
	<path d="M 42.402 24.997 C 34.844 26.105, 30.579 27.755, 27.897 30.608 L 25.500 33.158 24.894 80.829 C 24.173 137.507, 22.661 151.676, 14.474 178.439 C 13.138 182.806, 12.259 186.592, 12.519 186.853 C 12.780 187.113, 15.570 185.325, 18.720 182.879 C 32.688 172.033, 42.920 149.191, 47.436 118.773 C 49.727 103.345, 51.230 75.139, 50.466 61.897 C 49.924 52.504, 50.085 49.742, 51.313 47.397 C 53.557 43.109, 58.903 38.363, 64 36.134 C 69.142 33.885, 80.746 31.413, 81.697 32.364 C 82.047 32.714, 81.471 33.003, 80.417 33.006 C 79.362 33.009, 76.769 33.492, 74.653 34.079 C 71.438 34.972, 70.896 35.493, 71.354 37.246 C 71.656 38.400, 70.321 44.554, 68.389 50.922 C 61.611 73.257, 60.489 82.489, 64.111 86.111 C 66.133 88.133, 66.941 88.203, 83.361 87.768 C 92.787 87.518, 101.306 86.963, 102.291 86.534 C 103.345 86.075, 101.396 89.716, 97.558 95.377 C 93.970 100.669, 89.894 107.249, 88.500 110 C 85.849 115.232, 84.920 115.680, 80.342 113.940 L 77.553 112.880 81.777 108.980 C 89.068 102.248, 86.838 97.802, 74.492 94.461 C 69.059 92.990, 67.302 92.892, 64.009 93.879 C 59.424 95.253, 55.714 99.606, 54.104 105.500 C 51.459 115.182, 54.001 136.614, 60.627 160.500 C 62.610 167.650, 64.320 173.950, 64.427 174.500 C 64.535 175.050, 64.989 176.597, 65.438 177.937 C 66.169 180.122, 66.378 180.203, 67.460 178.723 C 68.124 177.816, 75.380 174.845, 83.584 172.123 C 116.417 161.227, 121.142 157.129, 113.894 145.835 C 110.038 139.826, 108.884 135.003, 110.179 130.312 C 110.901 127.699, 110.849 126.525, 109.987 125.992 C 109.078 125.430, 109.086 123.901, 110.023 119.380 C 110.694 116.146, 111.637 112.461, 112.119 111.190 C 112.990 108.895, 113.033 108.908, 118.748 113.312 C 125.682 118.654, 133.197 126.546, 135.393 130.793 C 138.141 136.107, 137.470 140.963, 133.041 147.815 C 126.777 157.506, 126 159.489, 126 165.771 C 126 170.192, 126.679 172.982, 128.750 177.071 C 131.444 182.389, 131.603 182.510, 136.500 183 C 154.395 184.790, 163.557 177.418, 166.230 159.079 C 167.122 152.960, 167.129 145.700, 166.259 128.766 C 164.341 91.420, 167.235 81.817, 181.074 79.604 C 183.233 79.259, 185 78.553, 185 78.035 C 185 77.517, 182.863 76.148, 180.250 74.993 C 175.404 72.850, 170.607 68.937, 168.847 65.691 C 168.308 64.696, 167.448 59.839, 166.937 54.899 C 166.426 49.958, 165.342 44.629, 164.529 43.056 C 162.861 39.831, 163.164 39.498, 171.750 35.124 C 179.740 31.054, 177.711 30.472, 156.751 30.817 C 135.879 31.161, 126.077 29.830, 141.004 28.679 C 145.603 28.325, 149.809 27.591, 150.350 27.050 C 152.187 25.213, 148.373 24.849, 138.645 25.933 C 125.771 27.369, 111.158 27.255, 82.500 25.495 C 56.708 23.911, 50.347 23.832, 42.402 24.997 M 38.759 28.401 C 35.446 29.113, 31.957 30.632, 30.509 31.992 L 28 34.349 27.996 71.424 C 27.990 122.400, 25.926 146.485, 19.474 170.839 C 18.113 175.976, 17 180.447, 17 180.776 C 17 182.402, 23.827 174.658, 28.079 168.209 C 41.039 148.553, 46.966 119.998, 47.578 74.269 C 47.971 44.914, 48.013 44.712, 55.144 38.608 C 60.307 34.190, 67.719 31.333, 78.377 29.653 L 86.500 28.373 74.093 27.686 C 56.789 26.729, 45.476 26.958, 38.759 28.401 M 100 33.039 C 97.400 33.466, 99.722 33.558, 105.500 33.258 C 111 32.971, 115.688 32.572, 115.917 32.369 C 116.612 31.753, 104.804 32.250, 100 33.039 M 89.762 34.707 C 91.006 34.946, 92.806 34.937, 93.762 34.687 C 94.718 34.437, 93.700 34.241, 91.500 34.252 C 89.300 34.263, 88.518 34.468, 89.762 34.707 M 156.886 36.034 C 161.266 38.021, 161.276 38.021, 164.386 36.029 L 167.500 34.034 160 34.039 L 152.500 34.044 156.886 36.034 M 82.250 35.689 C 83.213 35.941, 84.787 35.941, 85.750 35.689 C 86.713 35.438, 85.925 35.232, 84 35.232 C 82.075 35.232, 81.287 35.438, 82.250 35.689 M 102 36.542 C 95.675 37.261, 89.172 37.883, 87.550 37.925 C 83.245 38.035, 85.415 39.417, 93.819 41.920 C 101.530 44.216, 108.988 49.593, 107.593 51.850 C 107.097 52.652, 105.943 52.097, 103.941 50.095 C 100.080 46.234, 76.867 38.706, 74.932 40.687 C 73.839 41.806, 67.457 63.152, 66.018 70.500 C 65.372 73.800, 64.992 78.300, 65.172 80.500 L 65.500 84.500 83.500 84.496 C 101.566 84.493, 106 83.745, 106 80.701 C 106 80.026, 104.350 77.023, 102.333 74.029 C 100.168 70.813, 98.667 67.375, 98.667 65.631 C 98.667 60.583, 105.022 56.918, 116.506 55.344 C 123.709 54.357, 121.893 57.041, 114.311 58.587 C 107.422 59.992, 102.162 62.414, 101.339 64.560 C 101.031 65.361, 102.675 69.153, 104.992 72.987 L 109.204 79.958 118.257 70.905 C 124.617 64.545, 128.147 60.082, 130.125 55.900 C 133.501 48.761, 138.408 41.441, 140.306 40.713 C 142.438 39.895, 144.137 41.442, 144.850 44.853 L 145.500 47.964 151.817 43.809 C 157.322 40.188, 157.900 39.523, 156.317 38.638 C 149.660 34.912, 124.782 33.952, 102 36.542 M 76.813 36.683 C 77.534 36.972, 78.397 36.936, 78.729 36.604 C 79.061 36.272, 78.471 36.036, 77.417 36.079 C 76.252 36.127, 76.015 36.364, 76.813 36.683 M 152.308 46.759 L 145.117 51.500 144.308 57.306 L 143.500 63.113 137.500 65.530 C 130.903 68.187, 127 71.862, 127 75.416 C 127 78.105, 130.489 83.514, 136.636 90.358 C 144.941 99.604, 141.885 103.108, 124.902 103.808 C 117.761 104.102, 114.007 104.644, 114.021 105.378 C 114.033 105.995, 115.859 107.786, 118.080 109.357 C 125.419 114.550, 134.132 123.301, 137.078 128.439 C 141.769 136.617, 140.980 140.703, 131.978 154.854 C 127.839 161.359, 127.438 167.859, 130.722 175.175 C 132.694 179.566, 133.110 179.894, 137.564 180.562 C 143.326 181.426, 151.082 179.790, 155.233 176.834 C 156.896 175.650, 159.436 172.165, 160.878 169.091 L 163.500 163.500 163.500 128.500 L 163.500 93.500 166.183 87.776 C 168.598 82.623, 170.910 80.321, 176.500 77.504 C 177.069 77.217, 176.901 76.729, 176.108 76.369 C 175.343 76.023, 172.983 74.173, 170.864 72.258 C 166.568 68.377, 164.038 61.727, 163.944 54.068 C 163.881 49.032, 162.060 42.827, 160.500 42.334 C 159.950 42.161, 156.264 44.152, 152.308 46.759 M 139.794 44.750 C 137.972 46.852, 133 55.379, 133 56.400 C 133 56.798, 135.025 55.670, 137.500 53.893 C 141.488 51.029, 142 50.225, 142 46.830 C 142 42.467, 141.875 42.348, 139.794 44.750 M 135.662 58.867 C 130.842 62.744, 126.923 67.014, 128.200 66.996 C 128.365 66.994, 130.714 65.869, 133.419 64.496 C 136.125 63.123, 138.888 62, 139.558 62 C 140.627 62, 142.638 55.301, 141.814 54.484 C 141.642 54.312, 138.873 56.285, 135.662 58.867 M 116.559 76.205 C 112.883 80.217, 107.452 86.650, 104.491 90.500 C 98.518 98.266, 89 113.646, 89 115.531 C 89 116.232, 91.137 117.026, 94.070 117.415 L 99.140 118.087 98.448 121.294 C 95.996 132.650, 87.708 149.877, 83.323 152.730 C 81.368 154.003, 80.922 153.922, 78.939 151.939 C 76.963 149.963, 76.791 149.027, 77.297 142.999 C 77.764 137.431, 80.261 128.086, 83.464 119.918 C 83.922 118.751, 83.025 117.920, 80.042 116.749 C 74.550 114.591, 74.574 111.609, 80.122 106.628 C 84.002 103.145, 84.147 102.820, 82.597 101.108 C 80.610 98.912, 72.014 96, 67.520 96 C 63.151 96, 59.520 99.072, 57.434 104.533 C 55.998 108.293, 55.812 111.084, 56.318 121.273 C 56.941 133.827, 58.681 143.077, 64.133 162.801 L 67.256 174.103 70.378 173.420 C 76.075 172.175, 98.802 164.091, 105.488 160.932 C 109.108 159.222, 112.769 156.756, 113.623 155.453 C 115.092 153.211, 114.970 152.753, 111.337 146.872 C 107.956 141.398, 107.434 139.701, 106.945 132.580 C 106.597 127.531, 106.893 122.062, 107.732 118 C 108.471 114.425, 109.308 110.375, 109.594 109 C 110.033 106.882, 109.416 106.066, 105.556 103.658 C 103.050 102.095, 101 100.629, 101 100.399 C 101 100.170, 103.540 100.098, 106.645 100.241 L 112.289 100.500 116.503 89 C 118.821 82.675, 121.462 75.743, 122.372 73.596 C 123.282 71.450, 123.850 69.517, 123.635 69.302 C 123.420 69.086, 120.236 72.193, 116.559 76.205 M 119.302 89.250 L 115.203 100.500 123.943 100.785 C 133.197 101.088, 138 99.995, 138 97.589 C 138 96.785, 135.517 93.286, 132.481 89.814 C 129.446 86.341, 126.411 82.263, 125.737 80.750 C 125.063 79.237, 124.262 78, 123.957 78 C 123.651 78, 121.557 83.063, 119.302 89.250 M 86.542 119.931 C 84.634 123.019, 80.836 136.284, 80.319 141.671 C 79.280 152.478, 81.361 153.360, 86.640 144.352 C 89.015 140.298, 96.397 121.027, 95.783 120.481 C 94.668 119.487, 87.095 119.037, 86.542 119.931" stroke="none" fill="black" fill-rule="evenodd"/>
</svg>