<svg xmlns="http://www.w3.org/2000/svg" width="200" height="200" viewBox="0 0 200 200" version="1.1">
	<path d="M 147 17.557 C 145.625 18.338, 141.421 19.938, 137.658 21.114 C 130.481 23.355, 124.377 23.394, 93.364 21.397 C 83.987 20.792, 82.923 20.915, 79.150 23.036 C 75.539 25.066, 72 29.890, 72 32.784 C 72 33.621, 68.923 34.942, 66.871 34.986 C 66.526 34.994, 65.679 33.638, 64.989 31.974 C 61.606 23.807, 52.502 22.471, 40.534 28.386 C 36.512 30.374, 31.799 32, 30.061 32 C 22.428 32, 18.117 37.634, 15.905 50.500 C 15.009 55.711, 14.931 64.529, 15.600 85 C 16.095 100.125, 16.446 120.004, 16.380 129.176 L 16.260 145.852 18.792 144.889 C 20.432 144.265, 24.599 144.291, 30.623 144.963 C 48.754 146.985, 55.578 146.065, 61.586 140.790 C 66.999 136.037, 69.048 131.025, 70.244 119.609 C 71.324 109.296, 72.456 106.056, 74.325 107.925 C 74.920 108.520, 75.653 120.936, 76.111 138.217 C 77.003 171.851, 77.785 176.696, 83.299 182.750 C 86.957 186.766, 93.553 185.278, 99.411 179.116 C 101.013 177.432, 104.613 175.254, 107.411 174.277 C 114.163 171.919, 130.555 171.963, 141.777 174.369 C 164.515 179.242, 169.723 175.402, 168.719 154.500 C 168.428 148.450, 167.169 138.808, 165.920 133.072 L 163.649 122.645 166.066 121.072 C 167.395 120.208, 170.127 118.027, 172.138 116.227 C 182.136 107.275, 181.217 94.281, 169.700 81.763 L 165.343 77.027 167.646 74.863 C 171.846 70.917, 173.502 64.570, 173.480 52.500 C 173.469 46.450, 172.883 39.564, 172.177 37.197 C 169.728 28.982, 164.560 26.719, 159.739 31.750 C 157.343 34.251, 149 50.531, 149 52.706 C 149 53.206, 142.278 54.734, 134.062 56.101 C 120.106 58.422, 119.095 58.472, 118.672 56.855 C 118.019 54.356, 106.363 51.089, 89.053 48.553 L 74.500 46.421 74.202 41.322 L 73.903 36.222 80.202 35.138 C 89.922 33.465, 103.916 32.013, 110 32.047 C 115.417 32.078, 115.455 32.098, 112.500 33.403 C 110.850 34.131, 108.641 35.690, 107.591 36.867 C 104.798 40, 106.745 43.544, 112.755 46.266 C 119.060 49.120, 132.346 49.331, 139.203 46.685 C 144.627 44.592, 149.250 39.801, 151.019 34.441 C 152.324 30.487, 151.869 18.454, 150.358 16.977 C 149.886 16.515, 148.375 16.776, 147 17.557 M 141.500 22.794 C 136.170 25.074, 134.105 25.368, 123 25.430 C 116.125 25.469, 104.569 25.095, 97.320 24.600 C 82.328 23.575, 78.915 24.331, 76.379 29.234 C 75.539 30.857, 75.036 32.369, 75.260 32.593 C 75.484 32.818, 80.130 32.323, 85.584 31.495 C 100.417 29.243, 140.723 27.323, 142.199 28.799 C 142.841 29.441, 143.146 30.188, 142.876 30.457 C 142.606 30.727, 137.911 31.446, 132.443 32.054 C 119.496 33.493, 109.500 36.737, 109.500 39.500 C 109.500 44.192, 124.667 47.479, 134.942 45.014 C 140.630 43.649, 145.278 40.297, 147.536 35.931 C 149.041 33.020, 149.633 19.904, 148.250 20.113 C 147.838 20.176, 144.800 21.382, 141.500 22.794 M 47.286 28.451 C 44.968 29.175, 41.063 30.945, 38.608 32.384 C 35.750 34.059, 32.663 35, 30.026 35 C 24.942 35, 21.705 37.896, 19.819 44.135 C 18.422 48.758, 18.127 76.136, 19.004 119.655 L 19.451 141.811 34.683 142.524 C 43.060 142.917, 51.171 142.925, 52.707 142.541 C 61.994 140.223, 66.621 132.682, 67.648 118.189 C 68.140 111.247, 68.796 108.258, 70.227 106.439 C 72.779 103.195, 75.780 103.291, 77.060 106.659 C 77.616 108.121, 78.314 120.384, 78.610 133.909 C 79.202 160.898, 80.115 170.746, 82.601 176.960 C 85.519 184.254, 89.706 184.291, 97.518 177.090 C 99.795 174.991, 104.097 172.434, 107.079 171.406 C 114.710 168.777, 129.254 168.974, 143.848 171.906 C 160.405 175.233, 164.345 173.886, 166.140 164.286 C 167.149 158.891, 165.202 141.731, 162.109 128.767 L 160.265 121.035 164.495 118.556 C 174.036 112.964, 178.089 104.937, 175.581 96.602 C 173.765 90.568, 167.280 81.994, 160.967 77.281 C 158.095 75.137, 156.387 73.213, 156.900 72.700 C 157.414 72.186, 158.643 72.274, 159.827 72.907 C 163.742 75.003, 165.846 74.212, 168.230 69.750 C 170.259 65.952, 170.498 64.119, 170.484 52.500 C 170.472 42.493, 170.081 38.637, 168.785 35.750 C 165.631 28.722, 161.428 31.463, 155.421 44.465 C 152.496 50.796, 151.983 52.744, 152.870 54.163 C 153.767 55.599, 153.518 56.375, 151.566 58.219 C 149.150 60.503, 146.809 67.849, 141.502 89.799 L 139.254 99.100 146.761 103.495 C 150.891 105.912, 157.161 109.118, 160.696 110.621 C 164.713 112.328, 166.631 113.612, 165.811 114.046 C 165.090 114.427, 159.438 115.327, 153.250 116.046 C 142.878 117.251, 142 117.518, 142 119.466 C 142 120.629, 141.314 124.214, 140.475 127.434 C 139.098 132.720, 139.103 133.456, 140.518 135.020 C 145.261 140.260, 142.392 149.765, 133.711 157.570 C 124.694 165.677, 112.585 170.333, 111.232 166.214 C 110.798 164.893, 116.926 158.366, 122.816 153.874 C 124.970 152.232, 126.423 150.058, 126.961 147.673 L 127.789 144 124.355 144 C 122.466 144, 119.193 143.119, 117.082 142.042 C 112.640 139.776, 103.542 130.088, 100.094 123.953 L 97.721 119.731 102.610 120.396 C 109.963 121.396, 116.793 122.939, 123.814 125.185 C 127.287 126.297, 130.303 127.030, 130.518 126.815 C 130.733 126.601, 131.193 124.642, 131.541 122.462 L 132.174 118.500 118.837 118.476 C 103.764 118.449, 98.549 117.034, 97.454 112.674 C 96.540 109.031, 99.058 105.020, 108.542 95.013 C 113.194 90.104, 117 85.671, 117 85.161 C 117 84.111, 113.614 83.034, 110.250 83.014 C 108.923 83.006, 108 82.385, 108 81.500 C 108 79.342, 113.539 79.608, 118.859 82.022 C 121.257 83.110, 123.394 84, 123.609 84 C 123.824 84, 124 82.591, 124 80.868 C 124 74.769, 130.315 67.893, 142.611 60.601 C 145.300 59.007, 146.970 57.518, 146.323 57.292 C 144.873 56.787, 117.470 61.592, 113.083 63.121 C 111.331 63.732, 109.632 63.965, 109.306 63.640 C 108.352 62.686, 110.963 60.147, 113.244 59.810 C 117.385 59.198, 116.179 57.108, 110.778 55.538 C 99.022 52.120, 75 48.925, 75 50.780 C 75 51.350, 76.620 58.046, 78.600 65.659 C 83.856 85.864, 83.818 84.172, 79.076 86.837 C 70.383 91.723, 67.923 87.247, 67.220 65.262 C 66.918 55.796, 66.310 49.691, 65.616 49.147 C 65.002 48.664, 60.820 47.976, 56.323 47.618 C 49.035 47.036, 48.090 47.157, 47.634 48.733 C 47.353 49.705, 46.573 56.475, 45.900 63.777 L 44.678 77.054 47.448 79.946 C 50.805 83.449, 49.982 86.271, 46.545 83.043 L 44.301 80.935 43.657 89.217 C 43.302 93.773, 43.059 99.750, 43.116 102.500 L 43.219 107.500 44.081 103.112 C 45.041 98.223, 45.439 97.535, 46.811 98.383 C 47.671 98.915, 45.260 115.456, 43.525 120.920 C 42.599 123.840, 40.331 123.511, 39.730 120.369 C 39.233 117.769, 40.461 90.405, 41.437 82.323 C 41.860 78.821, 41.383 77.218, 38.485 72.404 C 36.583 69.247, 34.746 65.164, 34.402 63.332 C 32.411 52.719, 39.963 44.153, 56.684 38.057 L 63.931 35.415 61.965 32.183 C 58.879 27.108, 54.856 26.085, 47.286 28.451 M 68.014 39.250 C 68.037 43.154, 69.180 46, 70.724 46 C 71.672 46, 71.993 45.425, 71.607 44.418 C 71.273 43.548, 71 41.523, 71 39.918 C 71 37.991, 70.491 37, 69.500 37 C 68.607 37, 68.006 37.911, 68.014 39.250 M 55.500 41.437 C 48.785 44.048, 49.242 44.426, 60.250 45.365 C 66.288 45.880, 66.553 45.667, 65.370 41.250 C 64.622 38.458, 63.083 38.487, 55.500 41.437 M 41.068 50.429 C 36.605 55.035, 35.944 60.674, 39.027 67.842 C 40.262 70.712, 41.485 72.848, 41.746 72.588 C 42.225 72.109, 44.945 47.698, 44.568 47.265 C 44.455 47.136, 42.881 48.560, 41.068 50.429 M 69.558 56.250 C 69.779 60.237, 70.164 67.634, 70.411 72.687 C 71.036 85.432, 72.918 88.316, 77.948 84.243 L 80.118 82.486 77.117 71.493 C 75.466 65.447, 73.607 57.913, 72.987 54.750 C 72.279 51.142, 71.355 49, 70.506 49 C 69.457 49, 69.245 50.626, 69.558 56.250 M 139.043 66.250 C 130.374 72.067, 126.727 76.748, 126.727 82.056 C 126.727 85.329, 127.284 86.662, 129.359 88.354 C 130.806 89.534, 133.095 92.019, 134.444 93.876 L 136.899 97.251 137.542 94.376 C 138.801 88.743, 144.880 65.470, 145.541 63.750 C 145.911 62.788, 146.026 62, 145.795 62 C 145.565 62, 142.527 63.913, 139.043 66.250 M 119 86.962 C 119 87.490, 114.956 92.227, 110.013 97.486 C 98.381 109.864, 97.465 112.924, 104.786 114.957 C 109.799 116.350, 131.683 116.322, 132.548 114.923 C 132.914 114.330, 133.850 111.116, 134.628 107.780 C 136.269 100.749, 136.343 100.923, 127.709 91.750 C 122.806 86.542, 119 84.449, 119 86.962 M 139.376 103.498 C 139.789 104.597, 140.565 107.537, 141.101 110.033 L 142.074 114.571 150.122 113.633 L 158.171 112.696 150.136 108.512 C 145.716 106.211, 141.319 103.692, 140.363 102.914 C 138.801 101.643, 138.702 101.702, 139.376 103.498 M 137.057 109 C 137.010 109.825, 136.701 111.513, 136.370 112.750 C 135.926 114.404, 136.195 115, 137.383 115 C 139.128 115, 139.383 112.720, 138 109.500 C 137.422 108.154, 137.113 107.991, 137.057 109 M 134.249 123.250 C 133.504 127.576, 133.622 128.729, 134.922 129.802 C 136.292 130.933, 136.655 130.604, 137.673 127.302 C 139.542 121.247, 139.333 118, 137.076 118 C 135.537 118, 134.972 119.049, 134.249 123.250 M 104.769 126.105 C 107.430 130.306, 113.949 136.998, 117.482 139.152 C 119.142 140.164, 122.157 140.994, 124.183 140.996 C 128.107 141, 128.326 140.710, 129.531 133.892 C 130.143 130.435, 130.009 130.221, 126.335 128.759 C 123.123 127.481, 117.729 126.176, 104.703 123.528 C 102.995 123.181, 102.998 123.308, 104.769 126.105 M 132.448 133.274 C 132.109 134.159, 132.001 135.697, 132.209 136.692 C 132.540 138.275, 132.749 138.206, 133.886 136.143 C 134.801 134.482, 134.872 133.472, 134.125 132.725 C 133.379 131.979, 132.883 132.141, 132.448 133.274 M 133.866 139.981 C 131.299 142.798, 130.035 145.282, 129.561 148.440 C 128.986 152.279, 128.228 153.397, 124.195 156.364 C 118.492 160.560, 114.209 165, 115.866 165 C 117.954 165, 125.311 160.912, 129.854 157.227 C 138.568 150.159, 142.148 142.295, 138.750 137.687 C 137.620 136.155, 137.151 136.376, 133.866 139.981" stroke="none" fill="black" fill-rule="evenodd"/>
</svg>