<svg xmlns="http://www.w3.org/2000/svg" width="200" height="200" viewBox="0 0 200 200" version="1.1">
	<path d="M 38.750 11.716 C 37.237 11.945, 36 12.713, 36 13.423 C 36 14.288, 38.246 14.922, 42.824 15.347 C 50.348 16.046, 55.748 17.561, 57.914 19.581 C 59.105 20.691, 59.115 21.157, 57.977 22.528 C 54.690 26.489, 35.424 33.958, 28.190 34.077 C 21.476 34.187, 16.016 36.098, 13.752 39.131 C 11.875 41.644, 11.864 41.910, 13.486 45.329 C 15.449 49.465, 19.895 53.117, 26.949 56.385 L 31.930 58.693 28.839 61.596 C 19.878 70.013, 19.834 84.314, 28.729 96.959 C 37.858 109.936, 50.236 114.245, 54.530 105.941 C 55.581 103.910, 56 99.716, 56 91.233 C 56 67.751, 61.517 51, 69.251 51 C 72.439 51, 78.972 55.435, 83.391 60.600 L 86.900 64.701 81.700 83.541 L 76.500 102.382 69.052 106.174 C 57.382 112.116, 53.072 113.121, 36.750 113.713 C 28.637 114.007, 21.996 114.304, 21.992 114.374 C 21.987 114.443, 21.321 119.450, 20.511 125.500 C 17.769 145.992, 18.802 160.330, 23.626 168.723 C 28.001 176.337, 35.203 179.006, 55.500 180.537 C 60.450 180.910, 67.852 182.071, 71.948 183.118 L 79.396 185.019 83.254 181.260 C 88.062 176.574, 92.654 167.368, 94.109 159.500 C 95.391 152.562, 94.824 144.675, 92.005 130.215 C 89.550 117.623, 89.358 109.183, 91.508 108.359 C 93.915 107.435, 97.716 110.609, 99.053 114.661 C 99.972 117.446, 100.058 121.828, 99.392 131.946 C 97.921 154.301, 98.262 167.908, 100.398 172 C 104.709 180.262, 112.529 185, 121.853 185 C 123.773 185, 128.252 186.164, 131.808 187.586 C 147.812 193.989, 160.809 190.902, 170.234 178.459 C 181.371 163.758, 180.999 139.525, 169.680 142.365 C 166.668 143.121, 159.726 150.169, 155.756 156.500 C 154.032 159.250, 152.495 161.674, 152.341 161.886 C 151.926 162.459, 140.202 160.120, 134.827 158.392 C 122.646 154.477, 127.644 149.719, 156.758 137.511 C 170.055 131.935, 174.385 129.227, 174.819 126.217 C 175.297 122.902, 171.381 121.826, 156.726 121.242 C 145.948 120.812, 143.677 120.982, 142.190 122.328 C 139.534 124.732, 133.474 127.003, 129.782 126.978 C 125.478 126.949, 119.175 123.972, 115.804 120.376 C 112.679 117.043, 109.466 110.174, 108.449 104.650 L 107.740 100.800 113.120 101.249 C 116.079 101.496, 123 102.921, 128.500 104.416 C 141.341 107.907, 148.776 107.677, 152.794 103.664 C 155.481 100.981, 155.503 100.841, 156 83.657 C 156.486 66.840, 156.585 66.186, 159.518 60.455 C 163.039 53.573, 169.487 48.168, 178.250 44.752 C 183.926 42.539, 185.191 41.346, 182.750 40.508 C 182.063 40.272, 172.725 39.626, 162 39.073 C 131.168 37.482, 123.990 34.936, 109.006 20.275 C 104.334 15.704, 100.388 12.336, 100.236 12.791 C 100.085 13.245, 96.707 13.046, 92.730 12.348 C 85.956 11.159, 45.549 10.686, 38.750 11.716 M 58 13.972 C 55.525 14.372, 54.262 14.767, 55.194 14.850 C 56.126 14.932, 58.096 16.039, 59.572 17.309 C 64.421 21.480, 60.330 26.244, 47.379 31.508 C 40.965 34.115, 41.198 34.315, 52 35.464 C 55.025 35.786, 62.579 36.990, 68.786 38.140 L 80.072 40.230 87.747 35.768 L 95.422 31.305 97.188 24.402 C 98.160 20.606, 98.965 17.203, 98.977 16.840 C 99.046 14.856, 66.582 12.584, 58 13.972 M 101.626 19 C 101.342 19.825, 100.657 22.237, 100.105 24.359 C 99.105 28.203, 99.109 28.211, 101.143 26.371 C 104.423 23.403, 105.078 21.487, 103.533 19.388 C 102.374 17.814, 102.057 17.750, 101.626 19 M 102.787 28.225 C 99.497 31.566, 97.611 34.571, 96.540 38.176 C 95.697 41.016, 95.118 43.435, 95.253 43.552 C 96.246 44.402, 111.890 47.402, 117.898 47.894 C 124.488 48.434, 125.523 48.805, 127.374 51.292 L 129.453 54.083 126.999 58.708 C 123.862 64.621, 116.903 69.350, 112.370 68.649 L 109.241 68.165 108.084 77.186 C 107.157 84.411, 107.183 86.517, 108.213 87.766 C 109.234 89.003, 109.242 89.412, 108.250 89.746 C 107.534 89.987, 107 91.841, 107 94.083 L 107 98 111.324 98 C 113.702 98, 119.439 99.148, 124.074 100.552 C 133.089 103.282, 144.150 104.681, 148.362 103.624 C 152.819 102.505, 153.461 99.857, 153.481 82.500 C 153.498 68.179, 153.729 66.003, 155.686 61.767 C 159.056 54.472, 162.720 50.295, 169.318 46.227 L 175.365 42.500 159.796 41.787 C 135.080 40.655, 123.540 37.215, 112.424 27.667 L 107.500 23.438 102.787 28.225 M 88.553 38.487 C 84.510 40.971, 84.608 41.199, 90.250 42.436 C 92.119 42.845, 93.004 42.632, 93.014 41.769 C 93.021 41.071, 93.299 39.487, 93.630 38.250 C 94.390 35.415, 93.485 35.457, 88.553 38.487 M 25.827 38.466 C 22.460 39.394, 20.850 39.450, 20.066 38.666 C 19.282 37.882, 18.396 38.159, 16.896 39.659 C 14.907 41.648, 14.888 41.882, 16.462 44.927 C 19.430 50.666, 31.884 56.999, 37.452 55.601 C 41.110 54.683, 41.572 52.655, 39.570 46.304 C 38.620 43.290, 38.140 40.527, 38.503 40.164 C 39.605 39.061, 41.770 42.874, 43.035 48.144 C 43.923 51.846, 44.608 52.981, 45.700 52.562 C 46.509 52.251, 49.719 51.708, 52.835 51.355 C 56.513 50.938, 61.478 49.226, 66.988 46.477 L 75.475 42.240 69.988 41.117 C 50.228 37.074, 34.344 36.120, 25.827 38.466 M 75.051 45.419 L 70.603 47.743 74.051 49.478 C 75.948 50.432, 79.802 53.453, 82.616 56.190 L 87.733 61.168 89.517 54.334 C 91.851 45.396, 91.875 45.833, 89 45.019 C 81.967 43.029, 79.489 43.100, 75.051 45.419 M 92.225 54.964 L 90.038 63.931 97.269 73.670 C 104.065 82.822, 104.518 83.230, 104.796 80.454 C 105.328 75.149, 109.105 54.853, 109.999 52.503 C 110.823 50.336, 110.505 50.121, 104.185 48.562 C 100.508 47.655, 96.805 46.707, 95.956 46.455 C 94.746 46.095, 93.939 47.935, 92.225 54.964 M 114.412 50.765 C 113.164 51.608, 111 59.648, 111 63.443 C 111 65.434, 111.502 66, 113.268 66 C 118.111 66, 126 58.346, 126 53.647 C 126 51.153, 117.112 48.942, 114.412 50.765 M 50.489 54.468 C 47.182 55.188, 41.401 57.230, 37.642 59.007 C 32.178 61.588, 30.209 63.166, 27.832 66.868 C 25.130 71.078, 24.890 72.138, 25.201 78.500 C 25.430 83.183, 26.296 87.043, 27.818 90.162 C 32.660 100.084, 43.202 108.919, 48.587 107.568 C 52.516 106.581, 53.437 103.462, 53.199 91.933 C 52.960 80.281, 54.892 66.937, 58.005 58.745 C 59.102 55.860, 59.999 53.388, 59.999 53.250 C 60.001 52.729, 56.291 53.205, 50.489 54.468 M 88.504 69.250 C 87.247 72.875, 80.221 99.542, 80.459 99.786 C 80.957 100.296, 103.490 88.939, 103.814 88.015 C 104.106 87.179, 90.244 68, 89.347 68 C 89.122 68, 88.742 68.563, 88.504 69.250 M 91.341 97.872 C 84.673 101.154, 78.912 104.333, 78.539 104.936 C 77.175 107.144, 89.296 104.870, 92.327 102.349 C 93.882 101.057, 96.858 99.727, 98.939 99.394 C 104.308 98.535, 105.057 97.862, 104.202 94.663 L 103.465 91.906 91.341 97.872 M 98.580 102.336 C 93.862 103.760, 93.143 105.203, 96.308 106.897 C 97.602 107.590, 99.525 109.584, 100.581 111.328 C 102.294 114.159, 102.454 116.004, 102.072 128.500 C 101.064 161.419, 101.315 168.152, 103.720 172.649 C 106.766 178.348, 111.442 180.987, 120.249 181.977 C 124.237 182.425, 130.558 183.964, 134.295 185.396 C 150.382 191.560, 163.929 186.374, 171.540 171.138 C 178.549 157.104, 176.477 141.313, 168.261 146.149 C 165.924 147.524, 157.942 157.558, 154.489 163.460 C 153.536 165.091, 152.973 165.094, 144.489 163.521 C 132.505 161.298, 126.608 158.440, 126.174 154.646 C 125.565 149.328, 131.396 145.354, 153.500 136.019 C 159 133.696, 165.658 130.634, 168.296 129.214 C 172.472 126.966, 172.860 126.500, 171.296 125.618 C 170.308 125.060, 164.185 124.412, 157.688 124.177 C 146.551 123.773, 145.610 123.893, 141.188 126.267 C 134.786 129.706, 130.780 130.387, 125.044 129.011 C 116.127 126.871, 108.769 118.068, 106.021 106.250 C 104.714 100.626, 104.544 100.537, 98.580 102.336 M 80.193 108.713 C 77.467 109.234, 77.777 108.513, 70.189 132 C 63.481 152.764, 58.473 164.402, 54.794 167.778 C 48.409 173.637, 45.848 165.108, 44.631 133.934 L 44.140 121.368 51.320 117.642 C 55.269 115.593, 57.647 114.172, 56.604 114.483 C 52.303 115.768, 40.959 116.962, 32.881 116.980 L 24.262 117 23.131 125.818 C 21.569 137.998, 21.693 155.662, 23.380 161.269 C 26.865 172.848, 31.598 175.445, 52.941 177.494 C 61.212 178.288, 70.538 179.682, 73.666 180.591 L 79.352 182.244 82.180 178.872 C 83.735 177.017, 86.404 172.715, 88.111 169.312 C 92.689 160.181, 93.045 150.847, 89.529 132.096 C 88.043 124.174, 86.979 115.511, 87.164 112.845 C 87.528 107.601, 87.158 107.382, 80.193 108.713 M 67 113.387 C 63.975 114.653, 58.237 117.340, 54.250 119.357 C 47.887 122.577, 47.003 123.360, 47.026 125.763 C 47.040 127.268, 47.475 135.370, 47.992 143.766 C 48.997 160.088, 50.363 167.366, 52.306 166.752 C 54.595 166.028, 61.110 150.919, 67.532 131.440 C 71.090 120.651, 74 111.638, 74 111.412 C 74 110.656, 72.541 111.067, 67 113.387" stroke="none" fill="black" fill-rule="evenodd"/>
</svg>