<svg xmlns="http://www.w3.org/2000/svg" width="200" height="200" viewBox="0 0 200 200" version="1.1">
	<path d="M 102.458 11.890 L 96.416 14.688 71.833 14.094 C 42.580 13.387, 25.679 14.051, 21.500 16.069 C 15.976 18.738, 16.870 21.045, 27.781 32.279 C 37.312 42.091, 40.952 47.321, 42.377 53.250 L 43.038 56 34.974 56 C 27.745 56, 26.655 56.254, 24.455 58.455 C 20.374 62.535, 21.389 68.316, 29.098 84.888 C 31.244 89.502, 33 93.385, 33 93.517 C 33 93.649, 31.538 94.334, 29.750 95.038 C 24.989 96.914, 21.111 100.893, 20.412 104.617 C 19.990 106.867, 20.905 111.712, 23.355 120.192 C 25.311 126.961, 27.200 135.200, 27.554 138.500 C 28.919 151.220, 23.862 164.901, 13.027 177.805 C 6.271 185.851, 6.468 186.756, 14.725 185.624 C 28.686 183.711, 37.305 172.152, 48.433 140.422 C 55.262 120.952, 57.316 116.436, 60.002 114.999 C 61.787 114.044, 62.571 114.371, 65.488 117.288 L 68.891 120.691 65.310 131.595 C 61.214 144.071, 59.811 158.947, 61.976 166.940 C 64.654 176.824, 73.382 180.915, 79.967 175.374 C 86.107 170.208, 87.507 165.925, 87.443 152.500 C 87.394 142.410, 86.981 139.289, 84.844 132.893 L 82.303 125.286 87.617 122.108 C 98.737 115.457, 102.831 110.316, 100.949 105.367 C 100.375 103.857, 98.093 100.654, 95.877 98.251 C 90.554 92.476, 88.049 86.727, 88.022 80.225 C 87.995 73.803, 90.965 64.973, 95.080 59.241 C 96.862 56.759, 98.004 54.048, 97.818 52.741 C 97.518 50.629, 96.969 50.483, 88.250 50.212 C 81.508 50.003, 79 49.575, 79 48.634 C 79 43.972, 91.670 30.993, 103.905 23.121 C 109.107 19.774, 111.200 19, 115.048 19 C 120.326 19, 121 19.776, 121 25.852 C 121 33.187, 112.511 57.632, 108.608 61.535 C 106.566 63.577, 106.555 65.652, 108.581 66.785 C 113.005 69.261, 114.417 113.487, 110.568 129 C 109.681 132.575, 105.851 141.800, 102.057 149.500 C 90.404 173.149, 88.687 181, 95.168 181 C 101.383 181, 120.122 158.622, 129.499 140.001 C 133.996 131.072, 135.719 124.309, 136.379 113 C 137.888 87.141, 148.358 70.023, 153.025 85.784 C 154.723 91.518, 155.329 109.488, 154.167 119.662 C 153.235 127.822, 152.731 129.335, 149.556 133.494 C 143.941 140.850, 138.319 150.947, 136.068 157.718 C 132.665 167.952, 133.570 173.495, 139.225 177.068 C 142.055 178.856, 143.586 179.067, 150.500 178.624 C 154.900 178.341, 161.504 177.174, 165.176 176.030 L 171.851 173.950 173.501 166.725 C 176.036 155.627, 178.698 136.140, 180.041 118.849 C 181.229 103.540, 180.835 66.386, 179.408 59.166 C 178.665 55.410, 178.968 55.399, 169.055 59.543 C 151.682 66.805, 143.316 59.992, 144.441 39.500 C 144.996 29.390, 147.265 20.496, 149.508 19.635 C 151.216 18.980, 151.351 18.104, 150.061 16.064 C 149.300 14.862, 148.891 14.846, 147.546 15.962 C 146.270 17.021, 143.020 17.130, 131.720 16.494 C 123.899 16.053, 115.844 15.770, 113.821 15.865 C 109.538 16.066, 108.051 14.578, 110.972 13.015 C 113.725 11.542, 113.582 8.988, 110.750 9.046 C 109.513 9.071, 105.781 10.351, 102.458 11.890 M 104 14 C 103.099 14.582, 102.975 14.975, 103.691 14.985 C 104.346 14.993, 105.160 14.550, 105.500 14 C 106.267 12.758, 105.921 12.758, 104 14 M 37.191 16.525 C 37.480 16.813, 44.867 17.943, 53.608 19.035 C 75.176 21.730, 75.967 21.883, 75.538 23.287 C 75.334 23.954, 74.898 26.421, 74.568 28.769 L 73.970 33.039 77.547 29.080 C 79.514 26.903, 83.375 23.406, 86.128 21.311 L 91.132 17.500 76.316 16.879 C 56.637 16.054, 36.539 15.872, 37.191 16.525 M 21.396 19.410 C 20.938 20.604, 23.535 23.943, 30.629 31.285 C 36.097 36.943, 41.538 43.624, 42.826 46.262 C 44.106 48.881, 45.612 50.740, 46.174 50.393 C 48.171 49.159, 53 40.571, 53 38.255 C 53 32.237, 48.348 27.417, 37.868 22.575 C 28.404 18.202, 22.309 17.031, 21.396 19.410 M 89.360 22.330 C 70.068 36.583, 59.688 59.165, 59.559 87.166 C 59.503 99.139, 60.021 102.312, 61.750 100.583 C 62.163 100.171, 62.524 92.108, 62.553 82.667 C 62.603 66.200, 62.711 65.296, 65.196 60.500 C 69.453 52.283, 76.435 43.534, 89.204 30.412 C 100.716 18.582, 101.141 18, 98.251 18 C 96.245 18, 93.238 19.464, 89.360 22.330 M 123.433 25.671 C 123.361 32.973, 121.244 40.645, 115.392 54.812 L 111.959 63.123 113.681 71.812 C 114.941 78.165, 115.417 85.741, 115.452 100 C 115.515 125.583, 114.483 130.301, 104.081 152 C 96.008 168.838, 94 173.853, 94 177.175 C 94 178.918, 94.203 178.946, 96.866 177.569 C 103.667 174.052, 119.634 153.695, 126.724 139.500 C 131.158 130.624, 132.754 124.584, 133.464 114 C 134.897 92.606, 141.019 77, 147.978 77 C 155.779 77, 159.372 92.924, 157.074 117.310 L 155.961 129.120 150.502 136.910 C 143.088 147.492, 137.747 159, 137.202 165.572 C 136.812 170.278, 137.059 171.150, 139.458 173.549 C 142.043 176.134, 142.482 176.223, 150.326 175.757 C 154.822 175.490, 160.952 174.423, 163.949 173.386 C 169.224 171.560, 169.440 171.340, 170.675 166.500 C 172.694 158.590, 175.785 136.768, 177.049 121.500 C 178.229 107.251, 178.058 61.722, 176.820 60.486 C 176.446 60.112, 173.219 60.975, 169.649 62.403 C 161.688 65.588, 153.912 65.853, 149.387 63.094 C 147.618 62.016, 145.260 59.104, 143.930 56.355 C 141.910 52.182, 141.605 50.132, 141.724 41.507 C 141.800 36.003, 142.531 29.026, 143.349 26.001 C 144.167 22.977, 144.760 20.443, 144.668 20.370 C 144.576 20.297, 139.775 19.924, 134 19.540 L 123.500 18.842 123.433 25.671 M 45.656 23.412 C 51.517 27.407, 54.738 31.441, 55.631 35.905 C 56.415 39.825, 52.175 48.833, 47.823 52.495 C 46.132 53.918, 44.918 55.252, 45.125 55.459 C 45.332 55.666, 47.712 55.422, 50.413 54.917 C 57.495 53.594, 63.494 49.719, 66.560 44.487 C 70.982 36.943, 73.602 24, 70.708 24 C 68.769 24, 45.874 21.055, 43 20.436 C 41.229 20.055, 42.002 20.922, 45.656 23.412 M 71.780 54.917 C 65.387 64.961, 65.544 64.286, 65.006 84.098 C 64.634 97.782, 64.137 103.132, 63.128 104.348 C 61.120 106.765, 60.060 106.394, 58.559 102.750 C 55.081 94.304, 55.963 74.516, 60.450 60.372 L 62.710 53.243 57.605 55.568 C 53.497 57.439, 50.064 58.013, 40.032 58.505 C 33.174 58.842, 26.987 59.596, 26.282 60.181 C 23.133 62.794, 26.736 75.634, 34.547 89.635 L 37.969 95.770 33.570 96.878 C 31.150 97.487, 27.782 99.154, 26.085 100.582 C 22.131 103.909, 22.126 106.531, 26.044 119.500 C 27.706 125, 29.483 132.425, 29.994 136 C 31.907 149.410, 27.642 163.487, 17.723 176.500 C 15.207 179.800, 13.599 182.661, 14.148 182.858 C 16.558 183.721, 24.135 179.563, 28.337 175.071 C 34.323 168.671, 39.515 158.047, 46.455 138 C 49.596 128.925, 53.271 119.592, 54.620 117.260 C 58.629 110.330, 64.032 110.300, 69.015 117.180 L 71.920 121.189 69.938 126.345 C 64.302 141.008, 61.964 160.186, 64.921 167.500 C 68.907 177.362, 77.558 177.556, 82.554 167.896 C 87.124 159.058, 85.823 140.732, 79.571 125.887 C 79.054 124.660, 80.682 123.159, 86.384 119.604 C 93.910 114.914, 99 110.023, 99 107.481 C 99 106.731, 96.789 103.590, 94.088 100.503 C 86.905 92.294, 85.487 88.884, 85.568 80 C 85.643 71.666, 88.397 63.058, 92.578 58.090 C 96.410 53.536, 95.823 53, 87 53 C 80.576 53, 78.639 52.639, 77.167 51.167 C 75.389 49.389, 75.226 49.503, 71.780 54.917" stroke="none" fill="black" fill-rule="evenodd"/>
</svg>