<svg xmlns="http://www.w3.org/2000/svg" width="200" height="200" viewBox="0 0 200 200" version="1.1">
	<path d="M 59.773 10.593 C 53.755 12.444, 52.773 14.323, 53.600 22.396 C 54.253 28.777, 54.239 28.825, 51.262 30.364 C 46.884 32.628, 36.979 33.984, 24.750 33.992 C 15.438 33.999, 14 34.220, 14 35.647 C 14 37.126, 15.451 37.235, 28.250 36.716 C 43.441 36.100, 51.686 34.314, 55.099 30.901 C 56.782 29.218, 57.043 27.807, 56.794 21.732 L 56.500 14.551 60.500 13.177 C 66.565 11.094, 104.894 12.255, 133.004 15.373 C 155.641 17.885, 180.332 20.965, 180.608 21.313 C 180.689 21.416, 180.124 25.100, 179.352 29.500 C 177.315 41.108, 176.277 80.019, 177.097 114 C 177.914 147.879, 177.343 152.859, 171.255 164.971 C 166.987 173.463, 162.821 177.002, 157.102 176.996 C 151.532 176.990, 147.240 173.766, 144.324 167.397 C 140.858 159.826, 141.269 150.949, 145.471 142.646 C 148.815 136.035, 158.128 126.782, 165.201 123.042 L 169.849 120.583 163.532 113.887 C 154.476 104.287, 152.570 99.001, 152.574 83.500 C 152.577 72.742, 153.007 69.792, 156.735 55 C 162.135 33.573, 162.619 29.501, 160.301 25.014 C 159.310 23.097, 157.375 20.935, 156 20.210 C 152.102 18.155, 138.145 19.312, 127.500 22.574 C 122.550 24.090, 117.150 25.158, 115.500 24.946 C 113.850 24.735, 107.775 24.559, 102 24.556 C 93.130 24.550, 90.685 24.914, 86.250 26.898 C 83.362 28.190, 81 29.407, 81 29.603 C 81 29.799, 81.731 31.787, 82.625 34.021 C 83.519 36.255, 83.932 38.402, 83.544 38.791 C 83.155 39.181, 70.497 39.725, 55.416 40 C 37.879 40.320, 28.085 40.860, 28.247 41.500 C 28.409 42.140, 36.759 42.407, 51.425 42.241 C 64.035 42.099, 74.160 42.170, 73.925 42.399 C 73.691 42.628, 67.808 45.332, 60.852 48.408 C 52.067 52.292, 46.925 54, 44.019 54 C 41.116 54, 39.960 54.383, 40.247 55.250 C 40.523 56.083, 43.431 56.598, 48.969 56.793 L 57.278 57.085 53.015 60.220 C 50.671 61.944, 47.121 63.623, 45.126 63.949 C 42.316 64.410, 41.500 65.010, 41.500 66.615 C 41.500 67.824, 39.158 70.940, 35.881 74.093 C 30.737 79.042, 30.060 80.220, 27.887 88 C 25.966 94.878, 25.512 98.905, 25.506 109.101 C 25.500 121.536, 25.546 121.792, 29 128.550 C 38.071 146.298, 60.681 153.534, 91.459 148.538 C 96.386 147.738, 100.592 147.259, 100.806 147.472 C 101.389 148.056, 94.050 151.614, 89.500 152.953 C 87.300 153.601, 75.825 154.520, 64 154.996 C 39.336 155.989, 33.386 157.251, 28.388 162.550 C 25.220 165.909, 23.443 171.385, 24.568 174.317 C 28.506 184.579, 94.322 169.448, 110.902 154.470 C 115.918 149.938, 116.591 145.089, 112.569 142.453 C 110.175 140.885, 110.162 140.796, 111.714 136.680 C 113.429 132.130, 113.773 113.421, 112.258 107.048 C 110.702 100.501, 115.959 56.690, 119.163 49.500 C 120.391 46.744, 120.518 47.396, 120.715 57.500 C 121.433 94.220, 124.309 125.386, 127.621 132.332 C 132.811 143.215, 138.861 134.338, 146.466 104.684 C 149.535 92.716, 149.800 92.121, 150.467 95.684 C 151.581 101.633, 155.671 109.417, 160.510 114.800 L 164.930 119.716 159.421 123.510 C 140.610 136.466, 133.814 157.184, 143.550 171.895 C 146.525 176.391, 152.535 180, 157.048 180 C 161.548 180, 168.130 175.913, 171.268 171.172 C 175.133 165.331, 176.985 160.470, 178.956 151 C 180.553 143.323, 180.627 139.935, 179.717 116 C 178.639 87.628, 179.912 41.609, 182.131 28.750 C 183.187 22.627, 183.517 22, 185.683 22 C 187.698 22, 187.916 21.711, 187.078 20.146 C 186.290 18.674, 184.480 18.171, 178.293 17.708 C 174.007 17.387, 161.050 15.982, 149.500 14.586 C 103.222 8.990, 69.817 7.504, 59.773 10.593 M 139.500 22.435 C 135.650 23.149, 129.885 24.558, 126.690 25.568 L 120.880 27.403 125.649 29.827 C 136.318 35.249, 146.692 50.202, 149.202 63.777 L 150.363 70.054 154.680 52.277 C 159.663 31.758, 159.933 28.142, 156.750 24.628 C 153.854 21.431, 148.552 20.757, 139.500 22.435 M 97 26.691 C 95.625 26.921, 92.362 27.796, 89.750 28.635 C 84.766 30.236, 83.825 32.029, 86.250 35.308 C 87.398 36.861, 88.501 36.603, 99.778 32.135 C 111.754 27.391, 111.964 27.256, 108.278 26.646 C 104.294 25.988, 101.125 26, 97 26.691 M 102.728 33.883 C 95.703 36.538, 89.682 38.985, 89.347 39.320 C 89.011 39.655, 91.714 47.069, 95.353 55.796 C 98.992 64.522, 103.664 76.784, 105.735 83.043 L 109.500 94.424 111.172 78.579 C 113.076 60.525, 114.968 51.173, 118.038 44.643 C 122.379 35.408, 122.725 36.251, 123.415 57.719 C 125.036 108.152, 128.017 134, 132.213 134 C 135.190 134, 145.015 103.844, 147.071 88.395 C 150.516 62.508, 141.016 40.553, 122.290 31.121 C 119.974 29.954, 117.499 29.012, 116.790 29.028 C 116.080 29.043, 109.753 31.228, 102.728 33.883 M 85 42.287 C 85 43.341, 81.995 45.719, 76.980 48.633 C 72.569 51.196, 69.210 53.543, 69.515 53.848 C 69.820 54.154, 73.015 54.708, 76.614 55.081 C 84.136 55.859, 86.245 57.184, 83.821 59.607 C 82.354 61.075, 58.515 65.859, 52 65.993 C 50.625 66.021, 48.485 66.826, 47.244 67.781 L 44.988 69.518 47.530 73.259 C 48.928 75.317, 50.635 77, 51.324 77 C 52.012 77, 54.791 74.750, 57.500 72 C 65.185 64.197, 66.971 65.453, 62.397 75.443 C 60.966 78.570, 60.103 81.437, 60.480 81.814 C 61.474 82.809, 84.636 82.656, 90.378 81.617 C 98.712 80.109, 95.450 83.047, 85.945 85.610 C 81.300 86.862, 72.775 89.401, 67 91.252 C 56.612 94.581, 56.503 94.648, 56.818 97.558 C 57.299 102.014, 58.153 102.209, 63.024 98.978 C 67.865 95.767, 72 95.075, 72 97.477 C 72 99.680, 61.997 107.233, 59.830 106.666 C 57.725 106.115, 53 111.145, 53 113.936 C 53 115.507, 53.955 115.705, 61.075 115.609 C 69.031 115.502, 69.194 115.550, 72.158 118.859 C 74.904 121.925, 75.138 122.735, 74.833 128.155 C 74.451 134.961, 73.736 134.489, 86 135.512 C 90.125 135.856, 95.472 136.572, 97.883 137.103 C 100.293 137.634, 102.480 137.853, 102.743 137.590 C 103.561 136.772, 106.066 123.953, 107.438 113.555 C 108.689 104.081, 108.642 103.205, 106.449 95.055 C 103.417 83.789, 99.225 72.074, 92.404 55.806 C 86.771 42.374, 85 39.140, 85 42.287 M 67.626 48.315 C 57.458 52.756, 56.201 53.545, 58.877 53.813 C 61.193 54.046, 64.521 52.691, 71.750 48.573 C 77.113 45.518, 81.050 43.044, 80.500 43.075 C 79.950 43.105, 74.157 45.463, 67.626 48.315 M 58.654 59.589 C 56.559 61.013, 54.992 62.317, 55.172 62.486 C 55.548 62.841, 64.497 61.568, 74 59.809 L 80.500 58.606 76.500 57.861 C 68.192 56.312, 62.693 56.845, 58.654 59.589 M 37.297 76.250 C 32.533 81.164, 29.746 88.951, 27.968 102.315 C 25.997 117.127, 29.634 128.987, 38.556 136.840 C 47.237 144.482, 59.608 147.528, 78.761 146.741 C 94.233 146.106, 102.248 144.524, 101.799 142.195 C 101.429 140.274, 98.239 139.528, 83.823 137.991 C 73.564 136.898, 73.066 136.934, 71.073 138.927 C 69.933 140.067, 68.605 141, 68.122 141 C 66.921 141, 65.384 138.953, 64.555 136.250 C 63.928 134.206, 64.194 134, 67.464 134 C 71.548 134, 72.425 132.703, 72.443 126.644 C 72.452 123.614, 71.828 122.249, 69.531 120.273 C 66.894 118.005, 66.012 117.813, 60.553 118.323 C 57.224 118.634, 53.487 119.191, 52.250 119.561 C 50.182 120.179, 50 119.913, 50 116.267 C 50 113.440, 50.868 111.101, 53.023 108.127 C 55.432 104.802, 55.838 103.566, 55.023 102.043 C 54.460 100.992, 54 99.202, 54 98.066 C 54 96.930, 53.663 96, 53.250 96 C 52.837 96, 48.041 97.594, 42.592 99.542 C 36.054 101.879, 32.347 102.747, 31.694 102.094 C 31.041 101.441, 34.026 97.516, 40.472 90.556 L 50.239 80.008 46.870 76.089 C 45.016 73.933, 43.031 72.131, 42.458 72.085 C 41.885 72.038, 39.563 73.912, 37.297 76.250 M 57.174 76.314 C 54.694 78.955, 54.441 80, 56.281 80 C 56.985 80, 58.071 78.650, 58.694 77 C 60.055 73.394, 59.959 73.350, 57.174 76.314 M 45.261 89.293 C 41.279 93.727, 38.162 97.495, 38.334 97.668 C 38.507 97.840, 42.057 96.835, 46.223 95.434 C 53.429 93.011, 53.831 92.716, 54.458 89.372 C 54.821 87.439, 55.351 85.249, 55.636 84.506 C 55.922 83.762, 55.333 82.721, 54.328 82.193 C 52.799 81.389, 51.315 82.551, 45.261 89.293 M 57.984 86.542 C 55.981 91.811, 56.476 91.992, 65.124 89.160 L 73.247 86.500 68.387 85.799 C 65.714 85.414, 62.501 84.841, 61.248 84.526 C 59.450 84.075, 58.760 84.501, 57.984 86.542 M 109.663 119 C 109.203 121.475, 108.162 126.810, 107.351 130.855 C 106.540 134.900, 106.136 138.470, 106.455 138.788 C 108.591 140.924, 111.280 129.454, 110.800 120.254 L 110.500 114.500 109.663 119 M 105.437 147.092 C 98.134 154.779, 89.887 156.892, 63 157.964 C 36.831 159.008, 32.803 159.995, 28.950 166.314 C 25.853 171.393, 26.341 173.786, 30.637 174.592 C 47.686 177.790, 98.996 162.951, 109.842 151.686 C 112.714 148.703, 113.026 147.917, 112.057 146.107 C 110.512 143.219, 108.887 143.460, 105.437 147.092" stroke="none" fill="black" fill-rule="evenodd"/>
</svg>