<svg xmlns="http://www.w3.org/2000/svg" width="200" height="200" viewBox="0 0 200 200" version="1.1">
	<path d="M 183.113 19.023 C 179.600 20.685, 172.441 24.566, 167.204 27.648 L 157.683 33.252 147.198 32.549 C 139.099 32.007, 136.105 31.398, 134.043 29.874 C 128.638 25.878, 98.956 24.343, 92.700 27.736 C 86.883 30.892, 75.770 30.074, 58.476 25.219 C 39.947 20.016, 34.113 19.733, 30.009 23.837 C 26.417 27.429, 25.489 33.160, 26.988 42.500 C 28.057 49.159, 29.289 52.044, 30.533 50.800 C 30.844 50.489, 30.573 47.213, 29.930 43.522 C 28.297 34.139, 29.127 28.148, 32.457 25.283 C 33.917 24.027, 36.162 23, 37.446 23 C 39.610 23, 48.236 25.132, 65.500 29.933 L 72.500 31.880 64.889 31.940 L 57.279 32 55.522 37.750 C 54.076 42.484, 53.629 49.507, 52.992 77.500 C 52.394 103.764, 51.850 112.865, 50.599 117.500 C 49.709 120.800, 48.336 126.962, 47.547 131.193 C 45.904 140.009, 41.278 150.629, 34.548 161.032 C 29.734 168.474, 20.463 179, 18.723 179 C 17.060 179, 18.569 171.999, 22.279 162.500 C 28.643 146.208, 30.979 125.231, 30.991 84.250 C 30.999 60.691, 30.797 57, 29.500 57 C 28.201 57, 28 60.933, 28 86.394 C 28 127.551, 25.943 145.852, 19.478 162.212 C 15.334 172.700, 14.250 178.391, 15.996 180.495 C 17.854 182.734, 19.528 182.352, 23.646 178.750 C 33.987 169.703, 48.071 145.218, 49.961 133 C 50.514 129.425, 51.627 124.125, 52.434 121.222 C 55.182 111.338, 56 100.879, 56 75.611 C 56 53.563, 56.688 43.368, 58.623 36.750 C 59.099 35.123, 61.804 35, 97.086 35 L 135.038 35 134.376 37.750 C 133.340 42.050, 130.365 49.326, 126.522 56.957 C 124.585 60.803, 123.002 64.974, 123.004 66.225 C 123.008 68.919, 126.505 74.962, 129.122 76.796 C 130.844 78.004, 130.489 78.688, 123.917 86.796 C 110.844 102.927, 106.011 113.332, 109.047 118.808 C 109.869 120.288, 112.106 122.287, 114.020 123.248 C 118.373 125.436, 126.784 125.540, 129.777 123.443 C 138.504 117.331, 119.633 136.625, 109.977 143.688 C 99.164 151.597, 91.785 154.047, 90.545 150.141 C 90.220 149.118, 90.250 147.513, 90.610 146.573 C 90.971 145.634, 90.698 143.805, 90.005 142.510 C 88.995 140.622, 88.989 137.882, 89.977 128.717 C 90.654 122.427, 91.499 116.879, 91.854 116.389 C 92.209 115.898, 93.775 114.839, 95.333 114.035 C 99.835 111.712, 103.143 105.097, 103.143 98.415 C 103.143 93.891, 102.553 91.801, 100.219 88.046 C 96.338 81.803, 96.796 78.167, 101.801 75.464 C 103.801 74.384, 106.508 71.925, 107.816 70 C 109.831 67.033, 110.119 65.641, 109.701 60.858 C 109.270 55.914, 105.105 44.181, 102.859 41.583 C 101.802 40.361, 101.636 41.068, 98.956 58.220 C 97.691 66.316, 96.340 73.449, 95.956 74.072 C 95.124 75.418, 83.483 76.889, 73 76.971 C 61.919 77.059, 60.288 79.139, 67.234 84.326 C 69.690 86.159, 70.042 86.174, 74.585 84.626 C 80.314 82.674, 89.931 82.498, 92.395 84.300 C 94.094 85.542, 94.081 86.126, 92.082 97.550 C 88.868 115.920, 89.634 114.322, 84.416 113.540 C 78.745 112.689, 73.742 110.606, 68.183 106.782 C 65.783 105.131, 63.451 104.167, 63 104.640 C 62.549 105.113, 62.889 108.361, 63.755 111.859 C 65.155 117.510, 65.184 120.590, 64.020 139.548 C 62.217 168.914, 63.396 176.832, 70.190 180.974 C 73.913 183.244, 75.946 183.434, 81 181.985 C 83.697 181.212, 84.929 180.047, 86.371 176.909 C 92.825 162.864, 115.336 161.549, 139.605 173.801 C 142.959 175.493, 147.071 178.031, 148.745 179.439 C 150.419 180.848, 152.070 182, 152.415 182 C 152.759 182, 155.100 178.816, 157.618 174.924 C 169.608 156.389, 172.654 132.895, 165.064 117.479 C 162.043 111.343, 153.306 102, 150.588 102 C 149.930 102, 147.842 103.613, 145.946 105.585 C 138.298 113.543, 133.112 113.769, 129.804 106.290 C 126.036 97.773, 128.699 85.984, 135.299 81.960 C 142.653 77.475, 153.422 81.392, 166.675 93.372 C 172.474 98.615, 172.114 98.853, 173.944 88.566 C 175.736 78.498, 175.325 70.683, 172.839 67.523 C 170.957 65.130, 170.152 64.839, 166.589 65.261 C 164.340 65.527, 158 67.861, 152.500 70.447 C 133.525 79.369, 133.655 79.124, 164.340 48.214 C 190.902 21.457, 194.120 17.536, 190.500 16.334 C 189.950 16.151, 186.626 17.361, 183.113 19.023 M 183.500 21.646 C 181.850 22.507, 175.470 26.105, 169.322 29.642 L 158.145 36.072 147.723 35.399 L 137.300 34.725 136.752 38.810 C 136.451 41.057, 133.908 47.702, 131.102 53.576 C 125.550 65.199, 125.251 66.651, 127.510 71.020 C 128.802 73.518, 132.834 76.846, 133.336 75.828 C 133.426 75.645, 145.857 63.008, 160.959 47.747 C 176.062 32.486, 187.987 20.018, 187.459 20.040 C 186.932 20.062, 185.150 20.785, 183.500 21.646 M 93 30.438 C 90.731 31.792, 92.438 31.930, 111.500 31.934 C 128.123 31.938, 132.083 31.693, 130.500 30.756 C 129.245 30.014, 122.357 29.457, 112 29.260 C 98.745 29.009, 95.008 29.241, 93 30.438 M 101.219 61.686 C 100.039 68.132, 99.266 73.599, 99.503 73.836 C 99.740 74.073, 101.523 72.677, 103.467 70.733 C 106.453 67.747, 107 66.510, 107 62.749 C 107 58.497, 105.492 52.363, 104.047 50.733 C 103.673 50.312, 102.400 55.240, 101.219 61.686 M 154.094 72.719 L 144.688 77.265 149.070 78.747 C 153.510 80.248, 160.806 84.725, 166.772 89.611 C 168.571 91.084, 170.285 92.049, 170.580 91.754 C 171.470 90.863, 172.328 73.444, 171.621 70.625 C 170.614 66.613, 165.450 67.229, 154.094 72.719 M 80.329 78.939 C 73.635 79.248, 67.886 79.773, 67.555 80.107 C 67.223 80.442, 67.600 81.253, 68.391 81.910 C 69.518 82.845, 71.077 82.743, 75.557 81.440 C 81.147 79.815, 89.348 79.832, 93.250 81.476 C 94.596 82.044, 95 81.728, 95 80.107 C 95 78.948, 94.438 78.085, 93.750 78.189 C 93.063 78.294, 87.023 78.631, 80.329 78.939 M 94.363 100 C 93.238 106.600, 92.716 112, 93.204 112 C 96.850 112, 101.762 101.363, 100.540 96.116 C 99.624 92.179, 97.843 88, 97.083 88 C 96.712 88, 95.488 93.400, 94.363 100 M 121.390 94.250 C 113.078 105.529, 109.345 114.975, 111.765 118.600 C 114.088 122.079, 125.690 123.305, 129.441 120.468 C 130.509 119.661, 132.421 119, 133.691 119 C 137.774 119, 136.332 122.610, 129.250 130.120 C 116.908 143.208, 99.838 155, 93.233 155 C 89.422 155, 88 153.333, 88 148.865 C 88 146.811, 87.549 143.944, 86.998 142.495 C 86.071 140.058, 86.963 126.571, 88.559 118.878 C 89.086 116.337, 88.931 116.242, 83.553 115.796 C 80.084 115.508, 75.829 114.214, 72.202 112.343 L 66.400 109.351 67.186 115.879 C 67.618 119.469, 67.532 128.502, 66.995 135.953 C 64.526 170.184, 66.632 180, 76.444 180 C 80.200 180, 81.963 178.728, 84.783 173.985 C 87.307 169.740, 91.660 166.384, 97.163 164.442 C 102.572 162.534, 115.694 162.608, 123.356 164.589 C 130.467 166.428, 142.828 171.934, 148.237 175.671 L 151.974 178.254 153.914 175.877 C 157.069 172.011, 162.702 159.915, 164.585 152.964 C 165.678 148.928, 166.335 142.932, 166.333 137 C 166.328 124.563, 163.808 117.719, 156.392 110 L 151.107 104.500 147.304 108.132 C 142.490 112.728, 139.986 114, 135.753 114 C 128.609 114, 123.623 103.624, 125.705 93.092 C 126.259 90.291, 126.551 88, 126.354 88 C 126.157 88, 123.923 90.813, 121.390 94.250" stroke="none" fill="black" fill-rule="evenodd"/>
</svg>