<svg xmlns="http://www.w3.org/2000/svg" width="200" height="200" viewBox="0 0 200 200" version="1.1">
	<path d="M 117 14.657 C 113.425 14.806, 96.325 15.413, 79 16.004 C 43.135 17.228, 18.327 18.680, 16.764 19.646 C 15.211 20.606, 18.850 22.992, 21.941 23.040 L 24.500 23.080 21.763 24.565 C 17.771 26.731, 17.343 30.153, 19.971 38.919 C 23.819 51.755, 24.202 54.216, 23.731 63.046 C 23.425 68.778, 22.570 73.184, 21.135 76.429 C 19.314 80.544, 19.154 81.858, 20.061 85.227 C 20.746 87.769, 21.015 100.709, 20.814 121.344 C 20.480 155.502, 20.776 158.404, 25.272 165.075 C 28.994 170.599, 33.444 173, 39.959 173 L 45.622 173 53.886 160 C 58.431 152.850, 62.494 147, 62.914 147 C 63.335 147, 64.207 145.842, 64.852 144.426 C 66.312 141.220, 72.054 134, 73.142 134 C 74.321 134, 73.334 138.332, 67.359 159.370 C 62.250 177.358, 61.035 184.286, 62.798 185.375 C 64.152 186.212, 65.413 184.760, 69.777 177.334 C 75.172 168.155, 81.922 161.367, 87.018 159.995 C 93.777 158.175, 97.637 159.804, 116.313 172.355 C 135.247 185.079, 147.549 188.325, 160.753 184.079 C 170.335 180.998, 181.191 174.918, 183 171.619 C 184.421 169.028, 184.361 168.762, 181.877 166.599 C 180.037 164.997, 176.005 163.648, 168.377 162.085 C 143.732 157.034, 138.712 155.117, 138.173 150.550 C 137.911 148.332, 138.820 146.842, 142.736 143.068 C 147.124 138.838, 148.336 138.237, 154.563 137.204 C 163.202 135.770, 171.713 133.274, 172.543 131.930 C 173.684 130.084, 171.008 128.228, 166.218 127.543 C 149.497 125.153, 136.672 121.539, 134.843 118.703 C 133.726 116.970, 135.930 113.632, 140.206 110.578 C 143.757 108.042, 146.293 107.359, 159.399 105.403 C 175.641 102.979, 180.391 101.672, 179.766 99.798 C 179.548 99.144, 178.049 98.216, 176.435 97.736 C 173.164 96.763, 134.339 97.566, 115 99.007 C 108.125 99.520, 96.950 99.953, 90.167 99.969 C 81.009 99.992, 77.937 100.310, 78.235 101.204 C 78.455 101.866, 81.614 102.957, 85.255 103.629 C 102.817 106.870, 112.103 115.379, 111.923 128.066 C 111.827 134.894, 109.895 141.500, 107.996 141.500 C 106.660 141.500, 105.353 138.327, 99.408 120.659 C 96.995 113.488, 92.674 109, 88.183 109 C 85.117 109, 83.812 109.806, 79.510 114.355 C 76.725 117.301, 71.892 124.388, 68.770 130.105 C 65.648 135.822, 62.669 141.175, 62.149 142 C 61.380 143.221, 60.188 142.460, 55.735 137.909 C 48.624 130.639, 46.577 124.867, 47.213 113.881 C 47.601 107.186, 48.283 104.774, 51.774 97.754 C 57.115 87.017, 64.228 78.306, 70.943 74.279 C 75.107 71.782, 75.931 70.911, 74.609 70.404 C 73.588 70.012, 70.376 71.033, 66.600 72.949 C 58.866 76.875, 54.662 76.798, 51.599 72.676 C 49.613 70.003, 49.500 68.641, 49.500 47.332 L 49.500 24.813 57 25.441 C 73.774 26.844, 109.520 30.279, 109.799 30.513 C 109.963 30.652, 107.830 33.762, 105.057 37.424 C 96.216 49.106, 88 69.377, 88 79.511 C 88 89.787, 93.695 93.495, 102.539 88.976 C 106.236 87.086, 107.158 87.028, 116.387 88.097 C 143.924 91.288, 158.026 82.194, 164.491 57.076 C 166.303 50.036, 168.950 31.629, 168.980 25.849 L 169 22.198 162.250 23.695 C 158.537 24.518, 151.787 26.413, 147.250 27.906 C 142.713 29.399, 139 30.277, 139 29.857 C 139 29.438, 136.863 29.322, 134.250 29.600 C 131.637 29.878, 126.800 29.702, 123.500 29.210 L 117.500 28.316 122.397 26.046 C 126.954 23.934, 130.344 23.707, 135.875 25.143 C 136.631 25.339, 137.448 24.963, 137.690 24.306 C 138.298 22.654, 130.601 20.719, 126.666 21.534 C 124.925 21.895, 121.117 23.513, 118.204 25.130 L 112.908 28.069 93.704 26.074 C 83.142 24.977, 68.425 23.587, 61 22.987 C 53.575 22.386, 47.141 21.537, 46.703 21.100 C 45.527 19.928, 58.753 19.222, 105 17.990 C 148.848 16.822, 155 16.447, 155 14.939 C 155 14.083, 134.388 13.930, 117 14.657 M 35.500 21 C 33.025 21.630, 33.463 21.772, 38 21.811 C 41.920 21.846, 42.925 21.612, 41.500 21 C 39.186 20.006, 39.407 20.006, 35.500 21 M 25 26.306 C 20.382 27.881, 20.122 30.533, 23.542 41.194 C 25.163 46.247, 26.407 52.829, 26.720 58 C 27.165 65.365, 26.884 67.538, 24.617 74.270 C 22.360 80.974, 22.139 82.660, 23.012 86.555 C 23.613 89.235, 23.918 104.162, 23.762 123.285 L 23.500 155.500 26.205 161.008 C 29.255 167.218, 32.643 169.715, 39.244 170.620 L 43.653 171.224 48.492 163.362 C 51.154 159.038, 54.863 153.373, 56.734 150.773 L 60.137 146.046 54.762 140.773 C 46.608 132.772, 44.485 127.614, 44.567 116 C 44.656 103.499, 47.580 96.521, 59.480 80.422 C 60.956 78.424, 60.899 78.361, 58.006 78.786 C 54.262 79.335, 50.612 77.056, 48.324 72.741 C 46.844 69.949, 46.637 66.797, 46.831 50.016 C 46.955 39.299, 46.783 29.287, 46.449 27.766 L 45.841 25 37.171 25.056 C 32.402 25.087, 26.925 25.650, 25 26.306 M 154.500 28.474 C 143.695 31.671, 135 34.981, 135 35.896 C 135 36.309, 135.694 41.287, 136.541 46.956 C 138.253 58.402, 137.819 64.339, 134.801 70.777 C 130.170 80.653, 118.160 80.297, 111.274 70.078 C 109.607 67.605, 109 65.265, 109 61.312 C 109 52.486, 113.017 46.416, 124.388 38.060 C 131.151 33.090, 130.878 32.593, 120.850 31.614 L 114.201 30.965 110 35.732 C 100.637 46.359, 92.326 64.719, 91.291 77.067 C 90.604 85.259, 91.827 88, 96.167 88 C 97.870 88, 100.753 87.080, 102.573 85.955 C 105.676 84.037, 106.431 83.983, 114.683 85.081 C 124.193 86.346, 135.118 85.834, 141.500 83.824 C 147.542 81.920, 156.148 72.876, 158.943 65.493 C 161.786 57.980, 164.666 44.257, 165.567 33.921 C 166.381 24.589, 166.850 24.819, 154.500 28.474 M 125.453 45.047 C 119.381 51.183, 117.383 52.186, 116.823 49.375 C 116.612 48.315, 115.650 49.264, 114.058 52.103 C 109.222 60.723, 111.630 70.190, 119.644 74.070 C 123.529 75.950, 124.094 75.987, 127.452 74.585 C 131.465 72.908, 133.627 69.003, 134.642 61.597 C 135.268 57.027, 133.318 40.314, 132.068 39.542 C 131.670 39.296, 128.693 41.773, 125.453 45.047 M 117.744 101.478 C 106.328 102.139, 96.761 102.906, 96.483 103.183 C 96.206 103.460, 97.788 104.503, 99.999 105.499 C 105.638 108.042, 112.595 115.788, 114.041 121.132 C 116.398 129.844, 112.997 144.143, 108.412 144.798 C 105.400 145.229, 104.591 143.830, 99.636 129.613 C 94.844 115.867, 92.272 112, 87.918 112 C 84.652 112, 78.001 118.903, 73.765 126.690 L 71.029 131.717 73.673 131.212 L 76.317 130.706 75.672 137.103 C 75.318 140.621, 72.772 151.116, 70.014 160.424 C 67.256 169.733, 65 177.822, 65 178.401 C 65 178.981, 66.610 176.990, 68.578 173.977 C 72.863 167.416, 79.481 160.375, 83.200 158.420 C 86.483 156.694, 94.880 156.566, 98.703 158.184 C 100.241 158.835, 107.800 163.491, 115.500 168.531 C 132.513 179.666, 137.966 182.052, 147.935 182.725 C 154.699 183.182, 156.351 182.907, 163.543 180.125 C 171.925 176.883, 181 171.695, 181 170.144 C 181 168.032, 177.300 166.724, 162.345 163.551 C 153.630 161.702, 145.150 159.668, 143.500 159.031 C 139.531 157.499, 135 153.092, 135 150.763 C 135 144.636, 143.590 136.609, 151.878 134.991 C 164.821 132.463, 168.025 131.631, 167.283 130.994 C 166.853 130.624, 161.775 129.525, 156 128.551 C 132.465 124.582, 126.566 118.953, 136.644 110.082 C 141.937 105.423, 143.769 104.828, 161 102.180 L 173.500 100.258 156 100.267 C 146.375 100.272, 129.160 100.817, 117.744 101.478" stroke="none" fill="black" fill-rule="evenodd"/>
</svg>