<svg xmlns="http://www.w3.org/2000/svg" width="200" height="200" viewBox="0 0 200 200" version="1.1">
	<path d="M 76.788 15.685 C 75.538 16.011, 75.208 16.856, 75.565 18.816 C 76.271 22.693, 77.796 34.468, 77.620 34.681 C 77.538 34.781, 74.553 34.055, 70.986 33.069 C 46.186 26.213, 25.991 33.182, 20.747 50.404 C 19.883 53.242, 19.500 62.790, 19.500 81.500 C 19.500 96.350, 19.092 121.623, 18.593 137.663 C 17.875 160.728, 17.952 167.471, 18.964 169.913 C 21.591 176.254, 26.436 172.377, 32.731 158.898 C 36.509 150.807, 38 149.229, 38 153.318 C 38 157.193, 41.012 166.061, 43.715 170.146 C 49.909 179.505, 58.956 180.764, 72.441 174.144 C 77.232 171.792, 84.208 169.388, 89.267 168.347 C 100.478 166.039, 105.352 167.014, 120.440 174.577 C 131.099 179.920, 132.097 180.222, 139.100 180.213 C 151.357 180.198, 171.533 173.816, 172.526 169.640 C 173.819 164.199, 178.163 134.003, 179.596 120.500 C 181.741 100.276, 181.124 76.081, 178.237 67.219 C 174.324 55.210, 167.091 49.752, 157.731 51.748 L 153.278 52.698 152.717 40.599 C 152.151 28.388, 150.975 22.954, 148.203 19.750 C 142.575 13.241, 132.010 25.878, 124.598 47.986 C 122.664 53.754, 120.706 58.598, 120.247 58.751 C 119.788 58.904, 118.859 55.805, 118.184 51.865 C 116.068 39.527, 109.508 29.156, 99.778 22.765 C 91.954 17.626, 81.584 14.432, 76.788 15.685 M 78.314 19.604 C 78.612 20.647, 79.145 23.975, 79.500 27 C 80.473 35.302, 80.779 35.855, 85.833 38.416 C 91.242 41.156, 95.743 44.584, 94.963 45.368 C 94.668 45.665, 91.518 46.305, 87.963 46.791 C 80.976 47.747, 81.309 48.149, 90.500 49.850 C 97.244 51.098, 102 55.096, 102 59.516 C 102 62.342, 102.440 62.402, 110 60.615 L 115.500 59.314 115.381 53.615 C 115.223 46.032, 109.836 34.947, 103.445 29.056 C 98.214 24.234, 88.551 19.399, 82.136 18.393 C 78.171 17.771, 77.822 17.881, 78.314 19.604 M 139.135 24.652 C 135.258 29.356, 130.318 39.379, 126.890 49.500 L 124.180 57.500 129.340 58.294 C 142.293 60.287, 144.948 61.638, 153.830 70.748 C 158.412 75.448, 162.575 80.381, 163.080 81.712 C 164.560 85.604, 164.145 92.523, 162.090 98.212 C 161.040 101.121, 159.216 108.432, 158.038 114.460 C 154.260 133.781, 144.641 154.500, 139.449 154.500 C 137.803 154.500, 137.453 153.684, 137.198 149.250 C 136.955 145.026, 137.201 144, 138.460 144 C 139.736 144, 139.903 144.780, 139.364 148.250 L 138.704 152.500 140.901 150.551 C 143.732 148.038, 149.090 136.693, 152.258 126.500 C 154.750 118.481, 156.611 110.063, 155.684 111 C 155.412 111.275, 153.059 114.425, 150.455 118 C 147.852 121.575, 145.552 124.695, 145.344 124.933 C 145.137 125.172, 144.512 124.912, 143.956 124.356 C 143.274 123.674, 143.881 122.166, 145.818 119.729 C 147.398 117.741, 150.673 113.069, 153.095 109.347 C 157.496 102.585, 157.500 102.572, 157.305 94.040 C 157.044 82.616, 155.290 76.923, 151.459 75.066 C 149.831 74.277, 144.849 73.436, 140.387 73.197 L 132.274 72.764 131.560 83.132 C 130.432 99.491, 127.243 126.035, 125.469 133.838 C 124.577 137.759, 123.090 141.902, 122.165 143.045 C 116.668 149.833, 112.336 134.978, 109.905 101 C 108.839 86.116, 108.879 85.307, 110.911 80.636 L 113.026 75.772 109.317 76.468 C 104.377 77.395, 88.978 82.598, 88.033 83.659 C 87.621 84.122, 88.314 93.050, 89.574 103.500 C 94.036 140.535, 94.999 157.243, 92.975 162.565 C 91.984 165.172, 92.047 165.241, 94.900 164.670 C 100.566 163.537, 109.195 165.832, 120.100 171.373 C 126.435 174.592, 132.743 177.052, 135.709 177.460 C 141.942 178.317, 150.869 176.733, 161.512 172.882 L 169.746 169.903 172.361 153.701 C 176.933 125.387, 178.229 110.171, 177.745 90.500 C 177.246 70.223, 175.868 64.123, 170.500 58.432 C 166.422 54.108, 162.889 53.311, 155.883 55.136 L 150.236 56.608 149.801 42.054 C 149.184 21.430, 146.031 16.286, 139.135 24.652 M 42.734 34.021 C 32.720 36.558, 26.417 42.366, 23.455 51.784 C 21.945 56.583, 21.785 59.777, 22.318 74.513 C 22.684 84.632, 22.331 105.352, 21.456 125.079 C 20.130 154.969, 20.159 164.412, 21.586 168.863 C 22.467 171.608, 25.319 167.572, 31.270 155.156 C 38.035 141.041, 38.087 140.351, 33.454 126 C 31.191 118.990, 30.691 115.572, 30.605 106.500 C 30.514 96.969, 30.793 94.953, 32.691 91.405 C 35.433 86.282, 40.667 81.622, 45.664 79.857 C 52.055 77.599, 65.329 78.290, 73.427 81.303 C 78.490 83.187, 80.845 83.618, 82.177 82.905 C 83.180 82.369, 84 81.528, 84 81.037 C 84 79.944, 82.160 65.635, 81.487 61.500 L 81 58.500 66.750 58.480 C 50.775 58.457, 42.105 57.528, 39.400 55.550 C 34.871 52.239, 42.878 49.508, 66.250 46.395 C 78.118 44.814, 79 44.547, 79 42.539 C 79 41.353, 78.438 39.649, 77.750 38.753 C 74.902 35.043, 51.295 31.852, 42.734 34.021 M 81.536 41.185 C 82.485 44.270, 82.339 44.187, 86.154 43.815 L 89.500 43.488 85.162 41.179 L 80.824 38.869 81.536 41.185 M 62.500 49.612 C 48.463 51.772, 42.712 53.114, 43.643 54.013 C 44.114 54.468, 48.775 55.067, 54 55.344 C 59.225 55.621, 62.263 55.627, 60.750 55.358 C 55.436 54.410, 57.679 52.234, 65.250 50.993 C 69.237 50.339, 74.300 49.446, 76.500 49.009 L 80.500 48.214 76 48.221 C 73.525 48.224, 67.450 48.850, 62.500 49.612 M 72 53 C 70.846 53.745, 71.193 53.976, 73.500 53.998 C 75.150 54.014, 77.519 54.300, 78.765 54.634 C 80.566 55.117, 80.903 54.910, 80.408 53.621 C 79.711 51.804, 74.451 51.416, 72 53 M 83 52.199 C 83 52.991, 85.948 74.371, 86.502 77.601 L 87.035 80.701 94.767 77.972 C 99.020 76.470, 105.079 74.668, 108.232 73.966 C 114.225 72.632, 114.366 72.472, 115.578 65.641 C 116.192 62.185, 116.067 61.836, 114.382 62.303 C 113.347 62.591, 110.132 63.361, 107.238 64.015 C 103.222 64.923, 101.291 66.037, 99.080 68.719 C 95.093 73.556, 93.511 72.126, 96.646 66.518 C 99.674 61.099, 99.415 57.378, 95.824 54.709 C 93.504 52.985, 83 50.928, 83 52.199 M 123.667 61.667 C 123.300 62.033, 123 64.215, 123 66.515 L 123 70.696 132.750 70.256 C 138.113 70.014, 144.377 70.251, 146.671 70.784 C 151.837 71.983, 151.650 70.411, 146.175 66.630 C 140.542 62.740, 125.836 59.497, 123.667 61.667 M 118.519 64.500 C 118.234 65.875, 117.766 68.125, 117.481 69.500 C 117.188 70.909, 117.420 72, 118.012 72 C 119.228 72, 119.631 70.922, 120.352 65.750 C 120.929 61.605, 119.345 60.524, 118.519 64.500 M 117.313 74.785 C 115.036 76.233, 112 85.123, 112.003 90.333 C 112.013 104.202, 115.785 133.153, 118.379 139.262 L 119.754 142.500 120.988 139.500 C 122.911 134.825, 125.682 117.150, 127.418 98.486 C 129.582 75.216, 129.629 76, 126.059 76 C 124.441 76, 122.840 75.550, 122.500 75 C 121.774 73.825, 119.004 73.710, 117.313 74.785 M 47.479 82.329 C 41.025 84.456, 38.225 86.841, 35.395 92.624 C 32.905 97.714, 32.773 98.687, 33.262 108.276 C 33.582 114.564, 34.556 120.810, 35.792 124.500 C 36.896 127.800, 37.845 129.572, 37.900 128.438 C 38.094 124.432, 42.168 110.521, 44.738 105.088 C 48.040 98.109, 54.161 91.432, 58.601 89.967 C 60.518 89.334, 63.777 89.124, 65.960 89.493 C 69.147 90.032, 70.543 89.703, 73.445 87.731 L 77.012 85.308 71.756 83.575 C 64.736 81.260, 52.610 80.638, 47.479 82.329 M 159.622 86.681 C 160.480 94.296, 161 94.691, 161 87.726 C 161 84.641, 160.542 81.835, 159.983 81.490 C 159.311 81.074, 159.188 82.834, 159.622 86.681 M 83 85.941 C 83 86.459, 83.450 87.160, 84 87.500 C 84.550 87.840, 85 87.416, 85 86.559 C 85 85.702, 84.550 85, 84 85 C 83.450 85, 83 85.423, 83 85.941 M 76.454 89.040 L 73.500 90.987 77.191 90.993 C 81.237 91.001, 82.695 89.821, 80.693 88.160 C 79.755 87.381, 78.609 87.619, 76.454 89.040 M 82 92.640 C 80.625 93.372, 77.148 93.977, 74.273 93.985 C 69.848 93.998, 68.801 94.373, 67.452 96.433 C 66.227 98.302, 66.109 99.335, 66.941 100.890 C 68.546 103.889, 71.041 104.992, 73.188 103.650 C 78.511 100.326, 80.723 111.402, 76.088 118.166 C 74.801 120.044, 72.403 122.537, 70.759 123.705 L 67.769 125.829 70.835 127.415 C 72.521 128.287, 74.837 129, 75.982 129 C 79.374 129, 85 131.776, 85 133.449 C 85 135.408, 82.267 135.427, 77.654 133.500 C 73.123 131.607, 73.162 131.604, 69.142 134.055 L 65.784 136.102 70.116 138.301 C 73.535 140.036, 75.957 142.705, 81.603 150.960 C 85.538 156.712, 89.325 161.608, 90.019 161.840 C 91.012 162.171, 91.168 159.091, 90.755 147.380 C 90.216 132.138, 86.240 92.974, 85.122 91.905 C 84.780 91.578, 83.375 91.909, 82 92.640 M 59 92.702 C 53.334 94.756, 46.549 105.543, 42.979 118.171 C 40.400 127.296, 39.367 147.620, 41.064 155.836 C 45.020 174.988, 54.791 179.840, 72.139 171.267 C 76.738 168.994, 82.207 166.826, 84.294 166.448 C 86.380 166.070, 87.955 165.477, 87.794 165.131 C 87.632 164.784, 84.232 159.669, 80.238 153.765 C 70.195 138.921, 66.838 137.077, 63.313 144.469 C 61.257 148.781, 58.660 149.325, 59.588 145.250 C 60.714 140.301, 64.181 133.928, 66.614 132.333 C 69.739 130.286, 69.624 129.501, 65.979 127.991 C 61.470 126.124, 61.551 125.396, 66.534 122.984 C 72.167 120.257, 76 114.906, 76 109.768 C 76 106.285, 74.634 104.597, 73.813 107.062 C 73.378 108.367, 68.353 106.629, 65.752 104.275 C 63.861 102.564, 63.343 96.524, 65 95.500 C 65.550 95.160, 66 94.234, 66 93.441 C 66 91.989, 62.102 91.577, 59 92.702" stroke="none" fill="black" fill-rule="evenodd"/>
</svg>