<svg xmlns="http://www.w3.org/2000/svg" width="200" height="200" viewBox="0 0 200 200" version="1.1">
	<path d="M 113.969 15.838 L 109.305 20.677 98.402 21.309 C 84.776 22.099, 77.994 24.030, 74.575 28.093 C 71.379 31.892, 71.349 33.761, 74.412 38.275 L 76.823 41.829 68.909 43.964 C 63.939 45.305, 58.856 45.988, 55.247 45.800 C 49.517 45.501, 49.499 45.490, 49.177 42.119 C 48.999 40.260, 49.824 36.144, 51.010 32.973 C 56.775 17.558, 49.314 18.293, 18.222 36.204 C 11.469 40.094, 6.136 43.469, 6.370 43.703 C 6.605 43.938, 9.565 44.776, 12.948 45.565 C 30.653 49.695, 33.691 56.430, 26 74.500 C 21.189 85.803, 20.739 91.467, 24.380 94.888 C 27.008 97.356, 34.694 100, 39.242 100 C 42.108 100, 42.023 100.155, 34.980 107.750 C 26.919 116.442, 23.408 122.505, 24.323 126.151 C 24.654 127.470, 27.426 131.688, 30.484 135.524 C 36.293 142.814, 39.449 149.729, 41.197 159 C 42.306 164.880, 41.726 192.110, 40.420 195.500 C 39.997 196.600, 42.775 194.321, 46.595 190.436 C 61.642 175.131, 77.663 172.077, 114.428 177.502 C 140.725 181.383, 150.358 180.747, 156.831 174.702 C 160.934 170.872, 162.281 166.955, 162.781 157.404 C 163.338 146.746, 162.308 140.028, 157.513 123.047 C 154.079 110.884, 153.365 105.818, 154.623 102.539 C 155.863 99.310, 163.063 96.773, 174.082 95.684 L 184.725 94.633 182.707 90.072 C 178.608 80.805, 177.833 75.823, 177.161 54.453 C 176.607 36.798, 176.216 32.974, 174.741 30.724 C 171.026 25.060, 163.224 23.152, 151.052 24.932 C 144.239 25.928, 141.746 25.853, 134.619 24.438 L 126.219 22.770 125.595 18.871 C 124.973 14.976, 122.053 11, 119.816 11 C 119.165 11, 116.534 13.177, 113.969 15.838 M 116.154 17.153 C 114.459 18.888, 113.307 20.688, 113.595 21.153 C 113.883 21.619, 116.116 22, 118.559 22 C 122.380 22, 123 21.712, 123 19.934 C 123 17.491, 121.284 14, 120.083 14 C 119.618 14, 117.850 15.419, 116.154 17.153 M 44.945 25.450 C 40.256 27.178, 34.600 30.052, 22.647 36.781 L 12.793 42.328 19.065 44.599 C 27.760 47.748, 32.127 52.265, 32.751 58.758 C 33.146 62.875, 32.556 65.378, 29.238 73.649 C 23.757 87.308, 23.458 89.041, 26.015 92.292 C 28.319 95.221, 32.253 96.537, 41.839 97.585 L 48.179 98.279 40.179 106.389 C 31.135 115.558, 27 121.244, 27 124.512 C 27 125.740, 29.296 129.615, 32.103 133.123 C 42.189 145.727, 44.429 152.952, 44.470 173.019 L 44.500 187.537 50.667 182.872 C 65.246 171.842, 80.659 169.799, 113 174.613 C 135.842 178.012, 146.208 178.135, 151.657 175.072 C 158.620 171.159, 159.508 168.583, 159.444 152.500 C 159.392 139.269, 159.182 137.814, 155.620 126 C 153.547 119.125, 151.603 111.193, 151.299 108.374 C 150.782 103.585, 150.968 103.010, 154.123 99.639 C 157.974 95.524, 165.800 93, 174.710 93 C 177.620 93, 180 92.620, 180 92.157 C 180 91.693, 179.106 88.715, 178.014 85.539 C 175.143 77.197, 173.755 64.079, 174.464 52 C 175.210 39.280, 173.829 32.681, 169.791 29.683 C 166.760 27.431, 158.281 26.349, 152.365 27.459 L 148.638 28.159 152.813 30.028 C 161.259 33.809, 163.897 38.980, 160.400 44.900 C 158.920 47.405, 158.957 48.579, 160.900 60.614 C 163.946 79.482, 163.589 85.446, 159.648 81.505 C 158.815 80.672, 155.002 73.507, 151.174 65.582 C 143.643 49.989, 138.689 42, 136.550 42 C 134.707 42, 133.264 46.546, 132.435 54.966 C 131.951 59.877, 131.333 62, 130.386 62 C 127.803 62, 130.560 43.583, 133.598 40.545 C 137.833 36.310, 141.984 40.983, 152.086 61.357 C 156.785 70.835, 160.007 76.341, 160.018 74.910 C 160.028 73.584, 159.070 66.598, 157.889 59.384 L 155.742 46.268 157.970 43.254 C 161.469 38.521, 158.798 35.256, 147.920 30.968 L 142.775 28.940 135.137 31.009 C 130.937 32.147, 126.712 33.316, 125.750 33.606 C 124.267 34.054, 124 33.458, 124 29.697 L 124 25.258 117.790 24.556 C 112.443 23.951, 111.390 24.106, 110.208 25.677 C 108.368 28.121, 101 42.707, 101 43.906 C 101 44.454, 103.229 44.625, 106.278 44.311 C 114.348 43.478, 122.407 45.506, 125.465 49.140 C 126.859 50.798, 127.996 53.356, 127.991 54.827 C 127.976 59.050, 122.384 67.718, 114.934 75.065 L 108.088 81.817 101.077 81.709 C 97.221 81.649, 93.754 81.913, 93.372 82.294 C 92.055 83.611, 96.340 87.011, 108.285 94.129 C 114.878 98.058, 121.659 102.510, 123.352 104.024 C 126.118 106.494, 126.284 106.953, 124.979 108.525 C 123.704 110.061, 122.295 110.200, 113.431 109.657 C 103.659 109.059, 103.225 109.123, 99.917 111.628 C 92.323 117.381, 81.365 119.965, 78.158 116.758 C 77.170 115.770, 76.721 115.820, 75.955 117.008 C 74.469 119.311, 71.936 128.269, 72.585 128.920 C 73.780 130.117, 112.799 130.183, 118.510 128.998 C 125.877 127.469, 131.224 122.842, 133.014 116.449 C 134.727 110.332, 133.758 97.045, 130.735 85.197 C 129.429 80.081, 128.760 75.648, 129.247 75.347 C 130.708 74.444, 131.158 75.504, 133.602 85.614 C 138.688 106.651, 137.806 118.449, 130.612 125.649 C 124.323 131.941, 121.237 132.515, 94.250 132.407 C 73.214 132.323, 71 132.472, 71 133.974 C 71 135.472, 73.138 135.632, 92.750 135.609 C 115.857 135.581, 122.108 136.465, 124.018 140.034 C 124.753 141.408, 124.754 142.591, 124.020 143.962 C 121.779 148.151, 108.293 155.662, 88.678 163.649 C 82.530 166.152, 76.070 168.866, 74.323 169.679 C 70.093 171.649, 66.843 171.050, 65.217 168 C 63.727 165.207, 64.176 151.639, 66.032 143.359 C 66.924 139.378, 66.846 138.493, 65.539 137.762 C 64.368 137.107, 64.234 136.431, 64.993 135.012 C 65.547 133.978, 66 132.877, 66 132.566 C 66 132.255, 61.725 132, 56.500 132 C 51.275 132, 47 131.760, 47 131.467 C 47 131.174, 49.077 125.436, 51.615 118.717 C 59.348 98.244, 64.314 90.222, 67.888 92.431 C 68.386 92.739, 70.052 96.440, 71.590 100.657 L 74.386 108.323 80.549 89.912 C 83.939 79.785, 88.622 66.633, 90.957 60.685 C 93.292 54.736, 94.922 49.589, 94.580 49.247 C 93.933 48.600, 82.563 51.071, 77.750 52.903 C 75.518 53.753, 75 54.571, 75 57.247 C 75 61.955, 70.501 66.922, 59.923 73.890 C 46.387 82.807, 37 86.022, 37 81.740 C 37 79.630, 44.576 72.861, 57.171 63.716 C 64.759 58.207, 68.501 54.901, 67.866 54.266 C 67.232 53.632, 68.447 52.855, 71.339 52.045 C 73.786 51.360, 80.448 47.692, 86.144 43.895 L 96.500 36.990 97 40.745 C 97.500 44.500, 97.500 44.500, 102.551 34.250 L 107.601 24 100.437 24 C 86.924 24, 76.491 27.197, 75.365 31.682 C 74.915 33.475, 75.600 35.308, 77.939 38.564 L 81.126 43.002 78.313 44.089 C 72.084 46.497, 60.374 49, 55.340 49 C 49.115 49, 46 46.717, 46 42.157 C 46 40.593, 46.900 36.697, 48 33.500 C 50.076 27.467, 50.542 23.949, 49.250 24.070 C 48.837 24.109, 46.900 24.730, 44.945 25.450 M 127 27.954 C 127 29.917, 127.356 30.083, 130.250 29.465 C 132.037 29.083, 134.175 28.386, 135 27.916 C 136.296 27.177, 136.279 27.057, 134.875 27.030 C 133.981 27.014, 131.844 26.719, 130.125 26.375 C 127.381 25.826, 127 26.019, 127 27.954 M 89.750 44.573 C 87.688 45.924, 86 47.200, 86 47.408 C 86 47.617, 87.800 47.330, 90 46.772 C 92.887 46.039, 94 45.234, 94 43.878 C 94 41.622, 94.342 41.566, 89.750 44.573 M 100.250 48.031 C 97.888 48.981, 97.701 49.722, 97.998 56.992 C 98.254 63.284, 98.916 63.778, 102.009 59.989 C 103.953 57.608, 105.211 56.867, 106.486 57.356 C 107.913 57.904, 108.154 58.819, 107.719 62.056 C 106.933 67.920, 104.492 71.192, 101.187 70.810 C 98.979 70.555, 98.099 71.186, 96.250 74.352 C 95.013 76.471, 94 78.383, 94 78.602 C 94 78.821, 96.984 79, 100.630 79 L 107.261 79 114.081 72.057 C 123.256 62.716, 126.817 55.407, 124.200 51.289 C 121.904 47.676, 106.385 45.565, 100.250 48.031 M 60.875 64.355 C 55.169 68.400, 48.250 73.813, 45.500 76.383 L 40.500 81.055 44.500 79.481 C 50.877 76.971, 64.850 67.841, 68.580 63.747 C 71.438 60.611, 73.068 57, 71.625 57 C 71.419 57, 66.582 60.310, 60.875 64.355 M 93.154 62.312 C 89.697 71.222, 81 96.157, 81 97.161 C 81 97.795, 84.567 91.236, 88.926 82.586 C 95.616 69.308, 96.764 66.319, 96.291 63.404 C 95.541 58.785, 94.644 58.473, 93.154 62.312 M 102.167 64.206 C 99.743 68.034, 100.532 70.296, 103.159 67.052 C 104.765 65.069, 105.732 61, 104.598 61 C 104.377 61, 103.283 62.443, 102.167 64.206 M 87.070 92.250 C 85.505 95.688, 82.824 101.579, 81.112 105.343 C 79.400 109.107, 78 112.606, 78 113.118 C 78 114.742, 83.114 116.069, 86.745 115.388 C 88.669 115.027, 93.119 112.803, 96.634 110.447 L 103.024 106.162 112.762 106.740 C 121.646 107.268, 122.383 107.177, 121.165 105.705 C 120.431 104.817, 116.156 101.967, 111.665 99.372 C 107.174 96.777, 100.666 92.707, 97.202 90.327 C 93.738 87.947, 90.682 86, 90.410 86 C 90.139 86, 88.636 88.813, 87.070 92.250 M 62.541 99.918 C 60.136 104.666, 52.985 122.138, 51.560 126.750 C 50.877 128.961, 51.013 129, 59.316 129 L 67.768 129 70.109 123.250 C 71.396 120.088, 72.421 115.700, 72.387 113.500 C 72.321 109.245, 67.313 95, 65.884 95 C 65.416 95, 63.912 97.213, 62.541 99.918 M 69.605 139.750 C 67.275 147.452, 66.299 163.822, 67.983 166.968 C 68.903 168.687, 69.759 168.487, 81.233 163.875 C 107.170 153.452, 124.154 143.754, 121.363 140.963 C 119.431 139.031, 108.386 138.012, 89.317 138.006 C 71.914 138.001, 70.086 138.162, 69.605 139.750" stroke="none" fill="black" fill-rule="evenodd"/>
</svg>