<svg xmlns="http://www.w3.org/2000/svg" width="200" height="200" viewBox="0 0 200 200" version="1.1">
	<path d="M 36.192 29.024 C 29.153 33.316, 27.286 44.846, 30.610 63.500 C 32.638 74.884, 32 113.880, 29.522 130 C 26.234 151.390, 21.116 168.516, 14.505 180.250 C 13.033 182.863, 12.105 185, 12.443 185 C 14.552 185, 25.398 178.447, 29.718 174.564 C 38.381 166.775, 43.139 158.032, 51.309 134.892 C 53.715 128.076, 56.992 119.828, 58.592 116.561 C 62.174 109.246, 69.739 100.807, 75.883 97.272 C 82.174 93.652, 89.769 87.777, 100.640 78.120 C 105.667 73.654, 110.337 70, 111.018 70 C 111.699 70, 115.325 72.276, 119.077 75.057 L 125.898 80.114 120.199 87.032 L 114.500 93.950 102.885 93.333 C 89.505 92.621, 86 93.172, 86 95.984 C 86 98.781, 88.528 99.773, 99.117 101.134 C 104.278 101.797, 108.644 102.444, 108.819 102.572 C 108.995 102.700, 108.588 104.643, 107.915 106.889 C 106.020 113.214, 103.338 114.442, 94.337 113.103 C 82.972 111.413, 76.026 111.687, 72.277 113.973 C 68.239 116.434, 67.426 119.575, 68.953 126.811 C 69.996 131.755, 69.881 133.831, 68.077 142.657 C 64.696 159.193, 65.523 168.198, 70.982 174.303 C 73.775 177.427, 74.032 177.499, 82.170 177.439 C 91.792 177.369, 97.285 175.680, 114.896 167.375 C 121.164 164.419, 126.409 162, 126.551 162 C 126.694 162, 127.932 163.912, 129.304 166.250 C 132.728 172.084, 139.642 179.764, 143.065 181.534 C 153.797 187.083, 161.900 176.125, 166.381 150 C 168.947 135.035, 169.446 123.764, 167.692 120.372 C 166.124 117.339, 159.511 110.820, 155 107.859 C 153.625 106.957, 152.725 106.027, 153 105.792 C 153.275 105.557, 157.825 103.246, 163.111 100.657 C 181.146 91.822, 185.231 85.055, 177.013 77.630 C 174.820 75.649, 167.596 71.306, 160.960 67.980 L 148.894 61.932 156.397 55.555 C 160.524 52.048, 168.460 45.486, 174.034 40.973 C 180.028 36.118, 183.800 32.400, 183.268 31.868 C 182.736 31.336, 181.171 31.565, 179.435 32.427 C 173.029 35.609, 154.449 36.664, 129.500 35.261 L 116.500 34.530 132.922 33.515 C 144.996 32.769, 149.459 32.148, 149.782 31.169 C 150.143 30.074, 143.595 29.883, 112.860 30.091 C 81.818 30.301, 73.768 30.061, 65.257 28.672 C 50.856 26.322, 40.417 26.448, 36.192 29.024 M 41.256 29.975 C 37.077 30.967, 35.014 32.726, 33.345 36.718 C 31.591 40.915, 31.673 54.303, 33.515 64.500 C 36.266 79.727, 35.097 112.460, 30.891 138 C 29.184 148.362, 23.352 168.526, 19.495 177.405 C 18.681 179.278, 18.722 179.278, 21.936 177.405 C 27.288 174.286, 35.821 164.305, 39.676 156.655 C 41.659 152.720, 45.497 143.200, 48.205 135.500 C 50.913 127.800, 54.545 118.620, 56.276 115.099 C 60.425 106.662, 67.714 98.840, 75.879 94.066 C 84.751 88.878, 108.532 68.669, 107.579 67.127 C 106.921 66.064, 92.932 56.686, 92.688 57.145 C 92.585 57.340, 91.028 60.462, 89.228 64.082 C 82.995 76.621, 64.265 96, 58.380 96 L 55.528 96 58.747 93.750 C 60.907 92.240, 61.971 90.673, 61.983 88.986 C 61.992 87.603, 59.932 79.953, 57.404 71.986 C 54.329 62.295, 52.635 54.990, 52.285 49.916 C 51.780 42.586, 51.853 42.261, 54.465 40.206 C 55.951 39.037, 56.911 37.664, 56.597 37.156 C 56.010 36.207, 59.382 34.564, 64.250 33.426 C 69.208 32.267, 67.158 31.378, 56.750 30.174 C 45.499 28.873, 45.877 28.878, 41.256 29.975 M 96.250 35.732 C 91.796 36.133, 91.178 36.776, 93.250 38.852 C 94.050 39.653, 94.446 42.696, 94.351 47.305 L 94.202 54.507 102.093 59.753 C 106.433 62.639, 110.325 64.998, 110.742 64.996 C 111.159 64.994, 113.714 63.869, 116.419 62.496 C 124.002 58.649, 128.311 59.467, 134.444 65.918 L 137.389 69.015 140.643 65.862 L 143.897 62.708 140.198 60.011 C 135.520 56.601, 130.172 51.119, 129.521 49.066 C 129.246 48.199, 126.203 46.477, 122.760 45.241 C 115.542 42.647, 110 39.495, 110 37.982 C 110 37.407, 111.013 36.529, 112.250 36.031 C 114.581 35.094, 105.266 34.920, 96.250 35.732 M 79 36.661 C 76.525 36.832, 70.675 37.282, 66 37.660 C 57.513 38.346, 57.508 38.349, 62.500 39.100 C 65.446 39.544, 72.307 42.299, 79.201 45.809 C 85.637 49.085, 91.149 51.518, 91.451 51.216 C 91.753 50.914, 91.998 48.829, 91.996 46.583 C 91.991 41.227, 88.825 35.939, 85.765 36.175 C 84.519 36.271, 81.475 36.490, 79 36.661 M 163.500 38.011 C 159.100 38.385, 146.162 38.464, 134.750 38.187 C 123.338 37.909, 114 37.953, 114 38.284 C 114 38.615, 117.749 40.310, 122.330 42.051 C 129.426 44.746, 130.944 45.740, 132.566 48.753 C 134.464 52.277, 143.603 60, 145.876 60 C 146.533 60, 151.667 56.063, 157.285 51.250 C 162.903 46.438, 169.075 41.267, 171 39.761 C 172.925 38.255, 173.825 37.092, 173 37.177 C 172.175 37.262, 167.900 37.637, 163.500 38.011 M 55.974 43.026 C 53.070 45.930, 53.595 49.864, 59.437 69 C 61.872 76.975, 64.146 84.810, 64.491 86.410 L 65.118 89.320 71.146 83.410 C 82.180 72.591, 91.499 57.511, 89.006 54.507 C 87.225 52.362, 65.922 42.097, 61.844 41.420 C 58.900 40.931, 57.756 41.244, 55.974 43.026 M 118 64.752 C 116.075 65.713, 114.550 66.950, 114.612 67.500 C 114.673 68.050, 117.750 70.703, 121.450 73.395 L 128.176 78.291 131.694 74.772 C 135.188 71.278, 135.200 71.236, 133.458 68.576 C 131.433 65.486, 127.124 62.999, 123.800 63.002 C 122.535 63.002, 119.925 63.790, 118 64.752 M 142.736 67.758 L 139.067 71.516 141.950 77.569 C 143.536 80.898, 146.296 87.870, 148.083 93.061 C 149.870 98.252, 151.440 102.645, 151.573 102.823 C 152.063 103.482, 168.649 95.057, 172.797 92.042 C 180.007 86.803, 180.069 82.297, 172.998 77.617 C 169.800 75.501, 147.605 64, 146.720 64 C 146.547 64, 144.755 65.691, 142.736 67.758 M 133.627 75.868 L 130.817 78.801 133.768 79.449 C 138.515 80.492, 142.455 85.342, 142.455 90.144 C 142.455 93.432, 141.858 94.738, 139.323 97.003 L 136.191 99.802 142.178 101.985 C 145.471 103.185, 148.300 104.018, 148.465 103.834 C 149.059 103.172, 142.259 84.370, 139.381 78.717 L 136.437 72.935 133.627 75.868 M 122.408 88.463 C 119.484 91.742, 117.251 94.585, 117.446 94.780 C 118.056 95.390, 129.391 97.927, 131.673 97.964 C 135.048 98.020, 140 93.312, 140 90.047 C 140 85.854, 135.619 81.962, 131.236 82.260 C 128.343 82.458, 126.788 83.551, 122.408 88.463 M 89.168 96.502 C 89.444 96.778, 94.317 97.698, 99.998 98.548 C 108.411 99.805, 110.475 99.852, 111.133 98.796 C 111.678 97.921, 111.219 97.289, 109.720 96.850 C 107.106 96.084, 88.434 95.768, 89.168 96.502 M 114.500 99 C 114.115 99.623, 115.884 99.962, 119.191 99.900 C 123.352 99.822, 123.959 99.628, 122 99 C 118.397 97.846, 115.213 97.846, 114.500 99 M 127.500 102.069 C 125.300 102.518, 120.901 102.911, 117.725 102.942 C 112.428 102.995, 111.867 103.218, 110.947 105.639 C 110.395 107.090, 110.090 108.423, 110.269 108.602 C 110.447 108.780, 113.047 108.245, 116.047 107.413 C 119.046 106.580, 126.217 105.627, 131.982 105.294 C 141.773 104.729, 142.235 104.610, 138.982 103.487 C 132.926 101.397, 131.596 101.233, 127.500 102.069 M 117.770 109.871 C 110.170 111.853, 109.725 112.121, 110.533 114.224 C 111.533 116.832, 129.798 118.017, 137.219 115.956 C 140.989 114.909, 147 110.579, 147 108.911 C 147 107.262, 125.001 107.985, 117.770 109.871 M 148.164 111.992 C 143.968 117.667, 138.834 119.463, 126.750 119.483 C 120.838 119.492, 116 119.598, 116 119.718 C 116 119.838, 119.938 121.128, 124.750 122.584 C 129.563 124.041, 134.063 125.686, 134.750 126.239 C 138.274 129.075, 133.497 134.645, 121.354 141.859 C 117.550 144.119, 112.676 147.772, 110.524 149.975 C 105.837 154.775, 101.614 155.886, 97.043 153.522 C 88.365 149.035, 87.585 130.788, 95.621 120.253 C 97.040 118.392, 97.959 116.626, 97.663 116.330 C 97.367 116.033, 92.390 115.549, 86.603 115.254 C 77.846 114.807, 75.655 114.996, 73.540 116.382 C 70.698 118.244, 70.182 122.355, 72.101 127.860 C 72.978 130.376, 72.775 133.142, 71.101 141.457 C 67.625 158.728, 68.505 168.630, 73.947 173.482 C 79 177.987, 93.223 174.765, 115.678 164.029 L 127.857 158.206 131.626 164.651 C 136.661 173.261, 143.875 180, 148.056 180 C 152.155 180, 156.226 175.684, 158.921 168.481 C 161.875 160.585, 164.869 144.847, 165.632 133.197 C 166.272 123.433, 166.200 122.901, 163.735 119.175 C 161.539 115.857, 152.968 109, 151.017 109 C 150.664 109, 149.381 110.346, 148.164 111.992 M 98.998 120.655 C 91.228 129.504, 90.062 143.153, 96.524 149.615 C 100.308 153.398, 104.245 152.803, 109.267 147.689 C 111.595 145.317, 116.875 141.305, 121 138.772 C 129.452 133.582, 133.865 129.450, 132.437 128.064 C 131.922 127.564, 128.595 126.409, 125.044 125.497 C 118.496 123.815, 113.720 121.777, 111 119.506 C 110.175 118.817, 107.868 117.961, 105.873 117.604 C 102.583 117.016, 101.945 117.299, 98.998 120.655" stroke="none" fill="black" fill-rule="evenodd"/>
</svg>