<svg xmlns="http://www.w3.org/2000/svg" width="200" height="200" viewBox="0 0 200 200" version="1.1">
	<path d="M 133.323 5.816 C 132.654 6.240, 132.084 12.494, 131.826 22.245 C 131.383 39.043, 130.221 43.296, 127.975 36.342 C 125.374 28.289, 121.107 20, 119.563 20 C 115.130 20, 121.448 42.399, 126.972 46.268 C 128.072 47.038, 129.653 49.600, 130.486 51.960 C 131.960 56.138, 131.903 56.545, 128.333 67.421 L 124.667 78.590 122.041 73.563 C 120.596 70.799, 117.503 67.078, 115.166 65.296 C 110.128 61.453, 103.452 59.148, 101.889 60.711 C 101.160 61.440, 102.273 62.246, 105.558 63.365 C 111.364 65.343, 116.167 68.914, 118.827 73.229 C 122.742 79.578, 122.540 80.868, 116.458 88.388 C 110.273 96.034, 105.260 105.306, 102.089 114.967 C 100.937 118.477, 99.249 122.172, 98.339 123.177 C 96.936 124.728, 96.861 125.591, 97.843 128.869 C 98.479 130.994, 99 135.020, 99 137.817 C 99 148.578, 102.163 156.918, 104.964 153.543 C 105.944 152.363, 105.839 150.377, 104.451 143.781 C 101.826 131.312, 101.720 130.354, 102.432 125.604 C 102.972 122.004, 103.771 120.738, 106.849 118.604 C 111.929 115.084, 114.571 115.246, 116.990 119.225 C 119.852 123.930, 121.176 131.727, 121.424 145.342 C 121.574 153.519, 122.022 157.507, 122.822 157.774 C 123.470 157.990, 124 157.596, 124 156.898 C 124 154.746, 128.031 118.634, 128.528 116.333 C 129.192 113.261, 135.395 109.631, 138.604 110.437 C 143.794 111.739, 146.944 124.454, 146.980 144.250 C 146.996 152.776, 147.289 155, 148.397 155 C 149.393 155, 150.143 152.491, 151.014 146.250 C 151.685 141.438, 152.784 133.983, 153.456 129.684 L 154.678 121.867 148.348 100.684 C 138.819 68.798, 139.266 71.062, 142.083 68.937 C 143.396 67.947, 144.556 67.223, 144.661 67.328 C 144.766 67.433, 145.355 73.139, 145.971 80.009 C 147.262 94.424, 147.617 96, 149.567 96 C 150.753 96, 151 93.143, 151 79.406 C 151 64.018, 150.864 62.777, 149.124 62.322 C 147.453 61.885, 147.174 60.388, 146.582 48.666 C 146.217 41.425, 145.665 34.217, 145.357 32.650 C 144.810 29.865, 144.978 29.933, 152.649 35.587 C 170.987 49.105, 174.366 54.526, 174.407 70.500 C 174.628 156.410, 174.551 160.766, 172.685 167.092 C 171.778 170.168, 170.138 173.826, 169.040 175.222 C 164.921 180.458, 157.227 179.289, 152.459 172.701 C 147.809 166.276, 142.023 163.487, 133.500 163.561 C 125.448 163.632, 120.581 165.080, 102.562 172.768 C 87.917 179.016, 81.996 180.211, 79.020 177.518 C 76.313 175.068, 75.569 168.371, 76.954 158.902 C 78.385 149.114, 78.697 66.943, 77.319 62.577 C 76.198 59.022, 73.543 57.057, 71.976 58.624 C 71.383 59.217, 69.860 62.257, 68.591 65.379 C 66.286 71.049, 66.286 71.061, 68.093 77.578 C 73.767 98.043, 71.911 122.365, 63.388 139.213 C 59.074 147.742, 52.191 154, 47.126 154 C 46.041 154, 43.855 152.907, 42.268 151.572 L 39.382 149.144 35.020 152.596 C 27.190 158.792, 23.093 158.404, 20.315 151.203 C 18.764 147.184, 18.500 143.374, 18.500 125 C 18.500 113.175, 18.725 95.175, 19 85 C 19.275 74.825, 19.121 62, 18.657 56.500 C 17.676 44.852, 18.834 39.923, 23.334 36.596 C 27.241 33.707, 38.693 33.969, 48.842 37.178 L 56.184 39.500 52.957 43.500 C 51.182 45.700, 48.328 50.425, 46.615 54 C 43.828 59.815, 43.482 61.553, 43.333 70.500 C 43.241 76, 42.838 89.544, 42.437 100.598 C 42.035 111.652, 42.007 121.890, 42.373 123.348 C 43.424 127.536, 46.473 126.774, 48.451 121.830 C 50.086 117.745, 56 95.236, 56 93.100 C 56 92.505, 54.513 90.069, 52.696 87.689 C 46.956 80.169, 46.472 78.066, 47.884 66.758 C 49.662 52.510, 49.501 52.761, 58.879 49.661 C 75.487 44.172, 86.110 47.511, 92.618 60.265 C 96.732 68.329, 98.183 76.009, 97.825 87.816 C 97.552 96.790, 97.740 98.500, 99 98.500 C 101.358 98.500, 101.657 77.340, 99.403 70 C 97.159 62.692, 93.653 55.814, 90.120 51.787 L 87.236 48.500 93.091 48.465 C 97.410 48.440, 99.675 47.888, 101.723 46.363 C 104.200 44.518, 104.532 43.580, 104.795 37.684 C 105.237 27.772, 102.618 23.831, 94.350 21.966 C 87.042 20.318, 73.749 25.096, 63.369 33.102 L 58.237 37.060 49.369 34.432 C 32.595 29.460, 22.285 30.951, 17.535 39.035 C 15.768 42.044, 15.550 43.817, 15.881 52.500 C 16.401 66.176, 16.412 84.249, 15.918 118.500 C 15.539 144.817, 15.666 147.869, 17.298 151.486 C 19.711 156.837, 22.841 160, 25.724 160 C 28.504 160, 33.609 157.579, 36.614 154.836 C 38.705 152.928, 38.768 152.930, 42.380 155.062 C 47.293 157.960, 51.499 157.074, 57.375 151.901 C 62.622 147.283, 68.903 135.523, 71.745 125 C 74.372 115.271, 74.120 88.288, 71.308 78.068 L 69.262 70.636 71.297 65.739 C 73.081 61.447, 73.466 61.068, 74.416 62.671 C 75.896 65.168, 75.677 148.544, 74.161 159.801 C 73.372 165.661, 73.349 169.529, 74.083 172.952 C 76.415 183.824, 82.728 184.301, 103.813 175.200 C 125.627 165.784, 134.314 164.142, 142.541 167.880 C 146.354 169.611, 152 175.086, 152 177.051 C 152 178.781, 157.945 181, 162.582 181 C 166.600 181, 167.713 180.524, 170.431 177.642 C 176.829 170.858, 178.253 158.270, 176.839 121 C 176.130 102.327, 176.188 92.315, 177.056 83.603 C 178.405 70.058, 177.895 63.466, 174.873 55.390 C 172.223 48.308, 167.937 43.534, 157.394 35.923 C 152.834 32.631, 147.475 28.039, 145.487 25.719 C 141.762 21.374, 136 10.408, 136 7.666 C 136 5.758, 134.765 4.904, 133.323 5.816 M 134.687 25.723 C 134.345 31.650, 133.451 38.534, 132.700 41.019 C 131.645 44.511, 131.590 46.297, 132.457 48.873 L 133.580 52.208 137.417 42.354 C 139.527 36.934, 141.856 31.528, 142.591 30.340 C 143.754 28.461, 143.670 27.850, 141.944 25.656 C 140.853 24.269, 138.913 21.291, 137.634 19.039 L 135.309 14.945 134.687 25.723 M 84.746 25.037 C 78.169 26.672, 62 35.896, 62 38.012 C 62 38.727, 76.462 43.293, 84 44.957 C 89.915 46.264, 94.983 46.251, 98.802 44.919 C 101.449 43.996, 101.997 43.204, 102.553 39.494 C 103.366 34.071, 101.606 28.443, 98.449 26.375 C 95.443 24.405, 89.587 23.833, 84.746 25.037 M 122.609 32 C 122.945 33.375, 124.066 36.300, 125.098 38.500 C 126.130 40.700, 126.690 41.377, 126.342 40.004 C 125.994 38.631, 124.874 35.706, 123.853 33.504 C 122.832 31.302, 122.272 30.625, 122.609 32 M 138.707 46.723 L 134.913 56.500 136.707 62.226 L 138.500 67.952 141.653 65.939 L 144.806 63.927 144.289 55.713 C 144.005 51.196, 143.486 45.125, 143.136 42.223 L 142.500 36.947 138.707 46.723 M 55.619 44.433 C 54.178 46.322, 53 48.055, 53 48.286 C 53 48.516, 55.813 47.797, 59.250 46.687 C 62.688 45.578, 66.175 44.468, 67 44.222 C 67.937 43.942, 67.186 43.281, 65 42.463 C 59.659 40.463, 58.454 40.716, 55.619 44.433 M 132.806 62.567 C 131.802 64.303, 128.794 74.127, 129.155 74.488 C 129.352 74.685, 130.988 73.642, 132.790 72.171 C 136.033 69.525, 136.053 69.455, 134.706 65.565 C 133.957 63.402, 133.102 62.053, 132.806 62.567 M 130.840 77.320 C 126.876 80.976, 126.079 82.356, 125.506 86.559 C 124.550 93.567, 123.992 95.167, 122.665 94.704 C 121.954 94.456, 121.611 92.583, 121.786 89.899 L 122.071 85.500 119.999 88 C 113.932 95.321, 105 111.351, 105 114.918 C 105 115.532, 106.456 115.273, 108.509 114.294 C 111.133 113.043, 112.705 112.862, 114.737 113.576 C 118.039 114.738, 121.697 120.894, 122.590 126.796 C 122.948 129.159, 123.375 130.958, 123.539 130.795 C 123.703 130.631, 124.351 126.672, 124.980 121.998 C 126.214 112.819, 127.173 111.351, 133.880 108.368 C 137.927 106.568, 141.982 107.797, 144.457 111.575 C 146.602 114.849, 149 124.509, 149 129.877 C 149 135.583, 149.835 134.734, 150.970 127.876 C 151.889 122.320, 151.613 121.196, 138.625 77.576 C 137.982 75.418, 137.016 73.510, 136.478 73.337 C 135.940 73.164, 133.403 74.957, 130.840 77.320 M 45.616 88.789 C 44.336 101.584, 43.825 115.923, 44.534 119.111 L 45.288 122.500 47.049 117.352 C 48.017 114.520, 49.785 107.978, 50.979 102.813 L 53.149 93.422 49.668 88.250 L 46.187 83.077 45.616 88.789" stroke="none" fill="black" fill-rule="evenodd"/>
</svg>