<svg xmlns="http://www.w3.org/2000/svg" width="200" height="200" viewBox="0 0 200 200" version="1.1">
	<path d="M 85.500 17.172 C 78.215 19.839, 69.243 21.828, 43.500 26.483 C 30.865 28.767, 25.371 32.026, 21.500 39.533 C 18.639 45.081, 18.484 46.027, 18.149 59.925 C 17.844 72.637, 19.105 92.015, 20.672 98.690 C 21.112 100.561, 21.547 100.743, 23.659 99.940 C 30.718 97.256, 34.036 107.072, 35.510 135 C 37.126 165.602, 39.589 177.794, 45.094 182.426 C 50.104 186.641, 56.287 185.666, 64.601 179.347 C 66.921 177.584, 68.460 177.142, 70.712 177.592 C 72.591 177.968, 74.884 177.594, 76.812 176.597 C 80.862 174.503, 93.425 174.500, 110.506 176.590 C 142.504 180.504, 152.789 178.248, 158.239 166.122 C 161.744 158.324, 161.556 137.897, 157.871 126.247 C 156.335 121.386, 157.594 117.775, 162.967 111.635 C 170.934 102.531, 171.689 96.256, 166.614 81.334 L 164.191 74.211 167.813 71.856 C 181.120 63.202, 179.038 42.684, 163.367 28.024 C 152.867 18.202, 139.824 15.251, 125.366 19.427 C 119.548 21.107, 119.097 21.109, 116.595 19.470 C 113.478 17.428, 106.841 17.929, 104.094 20.415 C 101.203 23.031, 99.408 22.306, 98.118 18 C 96.690 13.232, 96.326 13.208, 85.500 17.172 M 90.133 18.632 C 84.052 21.285, 68.766 24.949, 53 27.533 C 27.914 31.643, 23.316 35.073, 20.873 51.494 C 19.986 57.458, 19.986 62.936, 20.871 74.415 C 22.575 96.500, 22.690 97, 26.059 97 C 30.687 97, 33.911 101.504, 35.853 110.682 C 36.456 113.532, 37.636 125.959, 38.475 138.298 C 40.587 169.348, 41.979 176.122, 47.143 180.467 C 50.596 183.372, 53.028 183.171, 59.580 179.439 C 65.697 175.955, 66.146 175.104, 64.459 170.207 C 62.261 163.827, 61.644 150.791, 62.936 138 C 63.574 131.675, 64.349 125.487, 64.657 124.250 C 65.122 122.381, 64.806 122, 62.790 122 C 58.306 122, 49.524 118.841, 46.762 116.234 C 44.325 113.933, 42.033 107.634, 43.207 106.460 C 43.574 106.093, 53.208 107.913, 64.750 110.528 C 66.320 110.884, 67 110.579, 67 109.519 C 67 108.447, 65.961 108, 63.468 108 C 54.786 108, 48.327 102.038, 44.778 90.747 C 42.774 84.372, 42.509 81.515, 42.576 67 C 42.650 50.939, 43.907 41.773, 47.136 33.750 C 48.267 30.938, 51.491 29.974, 52.241 32.224 C 52.524 33.072, 54.671 32.452, 59.233 30.206 C 67.166 26.301, 78.323 23.326, 88.495 22.404 C 96.051 21.719, 96.501 21.470, 95.393 18.582 C 94.678 16.719, 94.514 16.721, 90.133 18.632 M 128.464 21.394 C 120.234 23.393, 120.031 24.052, 126.878 26.531 C 130.271 27.760, 134.832 29.947, 137.015 31.391 C 144.236 36.170, 148.580 45.320, 147.348 53.160 C 146.820 56.523, 146.405 56.912, 142.236 57.962 C 134.430 59.928, 127.563 64.591, 122.964 71.051 L 120.957 73.869 127.979 77.558 C 131.840 79.587, 135 81.615, 135 82.065 C 135 84.285, 132.371 83.820, 126.565 80.573 C 123.050 78.608, 119.943 77, 119.659 77 C 117.824 77, 108.983 112.317, 110.452 113.785 C 110.716 114.049, 115.560 113.104, 121.216 111.685 C 126.872 110.266, 131.877 109.481, 132.337 109.940 C 133.567 111.166, 132.275 111.731, 117.398 116.479 C 107.909 119.508, 104.025 120.377, 104.405 119.387 C 104.803 118.351, 104.355 118.116, 102.723 118.503 C 96.826 119.904, 79.821 121.989, 74.250 121.994 C 67.628 122, 66.829 122.631, 69.911 125.419 C 73.758 128.901, 83.210 129.516, 105.176 127.713 C 116.354 126.795, 126.513 126.312, 127.750 126.639 C 131.239 127.560, 130.466 130.650, 125.924 133.940 C 123.683 135.564, 117.434 139.160, 112.038 141.932 C 103.393 146.372, 101.827 147.596, 98.863 152.225 C 97.014 155.115, 92.907 160.746, 89.738 164.740 L 83.976 172 89.510 172 C 92.554 172, 103.472 172.946, 113.772 174.102 C 141.738 177.242, 149.880 175.810, 155.008 166.853 C 157.355 162.753, 157.494 161.688, 157.397 148.500 C 157.331 139.474, 156.740 132.274, 155.732 128.234 C 153.721 120.166, 154.570 117.156, 160.957 109.714 C 163.958 106.218, 166.184 102.536, 166.583 100.410 C 167.539 95.315, 166.270 87.599, 163.151 79.540 L 160.426 72.500 164.973 70.292 C 172.893 66.445, 175.637 58.141, 172.524 47.434 C 168.954 35.153, 159.700 25.564, 147.864 21.881 C 141.023 19.751, 135.767 19.619, 128.464 21.394 M 108.294 21.627 C 108.639 21.972, 110.744 22.588, 112.973 22.995 C 116.341 23.611, 116.834 23.505, 115.891 22.368 C 115.266 21.616, 113.160 21, 111.211 21 C 109.262 21, 107.949 21.282, 108.294 21.627 M 79 26.516 C 69.024 28.554, 57 33.271, 57 35.145 C 57 36.880, 59.950 37.192, 61.519 35.624 C 64.169 32.973, 78.817 30.107, 90.095 30.031 C 94.309 30.003, 98 27.967, 98 25.671 C 98 24.560, 85.950 25.096, 79 26.516 M 101.494 26.009 C 99.948 28.512, 102.176 30.872, 107.077 31.923 C 117.320 34.120, 124.020 39.702, 123.974 46 C 123.930 52.128, 114.454 65.510, 109.678 66.190 C 107.924 66.440, 108.557 67.100, 112.936 69.584 L 118.373 72.667 121.465 68.612 C 126.689 61.763, 133.688 57.306, 143.750 54.421 C 145.598 53.891, 145.242 47.131, 143.120 42.459 C 139.711 34.953, 130.597 29.360, 117.175 26.537 C 108.765 24.768, 102.394 24.553, 101.494 26.009 M 75 34.134 C 67.999 35.279, 63 36.906, 63 38.039 C 63 38.987, 68.009 40.493, 74.500 41.497 C 81.550 42.587, 83 43.017, 83 44.019 C 83 44.559, 82.325 45, 81.500 45 C 79.416 45, 79.625 47.351, 81.892 49.402 C 83.716 51.053, 83.944 50.793, 88.311 42.057 L 92.838 33 86.669 33.117 C 83.276 33.181, 78.025 33.639, 75 34.134 M 93.350 38.186 C 89.205 46.200, 85.924 53.263, 86.229 53.518 C 86.378 53.643, 87.940 54.478, 89.700 55.373 C 93.944 57.531, 96.575 57.425, 99 55 C 100.655 53.345, 100.983 51.750, 100.900 45.750 C 100.711 32.006, 97.968 29.258, 93.350 38.186 M 103.660 41.753 C 104.392 51.239, 103.010 56.407, 99.210 58.398 L 96.582 59.775 100.041 61.935 C 104.645 64.810, 109.275 64.095, 113.676 59.829 C 117.559 56.066, 121 49.484, 121 45.819 C 121 40.745, 115.507 36.540, 106.276 34.548 L 103.051 33.852 103.660 41.753 M 49 36.059 C 49 36.641, 49.450 36.840, 50 36.500 C 50.550 36.160, 51 35.684, 51 35.441 C 51 35.198, 50.550 35, 50 35 C 49.450 35, 49 35.477, 49 36.059 M 50.751 39.750 C 45.958 44.774, 44.875 50.373, 47.489 56.627 L 48.977 60.190 53.186 57.095 C 58.109 53.474, 59.541 53.274, 61.002 56.004 C 61.832 57.555, 61.274 61.364, 58.537 72.843 C 53.229 95.108, 53.745 97.441, 62.879 92.469 C 70.739 88.191, 72.244 85.854, 77.344 70 C 79.909 62.025, 82.006 55.204, 82.004 54.842 C 82.001 54.290, 54.538 37, 53.665 37 C 53.505 37, 52.194 38.237, 50.751 39.750 M 73.500 45.853 C 75.150 46.867, 76.667 47.262, 76.872 46.732 C 77.357 45.475, 75.033 44.033, 72.500 44.021 C 70.867 44.012, 71.050 44.348, 73.500 45.853 M 84.472 57.252 C 82.799 61.750, 77 79.533, 77 80.165 C 77 80.590, 77.629 80.696, 78.399 80.400 C 81.165 79.339, 80.945 81.869, 78.059 84.297 C 75.900 86.113, 74.691 88.476, 73.536 93.138 C 71.114 102.910, 71.104 103, 72.465 103 C 73.840 103, 86.761 94.590, 91.203 90.804 C 93.878 88.524, 93.894 88.431, 92.791 81.992 C 91.818 76.310, 91.904 75.004, 93.470 71.705 C 94.456 69.627, 96.387 67.337, 97.762 66.617 C 100.237 65.320, 100.190 65.265, 92.598 60.656 C 87.406 57.504, 84.786 56.406, 84.472 57.252 M 53.271 60.500 C 51.022 62.425, 48.930 64, 48.623 64 C 48.315 64, 47.393 62.763, 46.572 61.250 C 45.169 58.663, 45.079 59.124, 45.057 69 C 45.019 86.782, 49.203 99.985, 55.989 103.494 C 57.591 104.322, 60.939 105, 63.431 105 C 67.557 105, 68.017 104.754, 68.581 102.250 C 68.922 100.737, 69.635 97.767, 70.166 95.649 C 70.697 93.531, 70.919 91.585, 70.659 91.325 C 70.399 91.065, 68.318 92.206, 66.035 93.860 C 60.115 98.148, 56.109 98.853, 53.808 96.011 C 51.305 92.920, 51.497 90.444, 55.500 74.141 C 60.264 54.741, 60.231 54.542, 53.271 60.500 M 99.277 68.973 C 97.504 70.054, 95.760 72.109, 95.401 73.540 C 94.777 76.024, 95.530 84.864, 96.443 85.776 C 96.953 86.287, 108.923 77.399, 110.750 75.154 C 111.438 74.309, 112 73.297, 112 72.904 C 112 72.296, 103.751 66.993, 102.822 67.004 C 102.645 67.006, 101.050 67.892, 99.277 68.973 M 114 75.762 C 114 76.182, 110.248 79.357, 105.661 82.820 L 97.323 89.115 98.661 94.275 C 101.217 104.126, 99.984 108.929, 93.998 112.445 C 91.132 114.129, 88.783 114.500, 81 114.500 C 73.764 114.500, 71.210 114.857, 70.282 116 C 68.154 118.620, 68.846 119, 75.750 119 C 81.875 119, 105.625 115.708, 106.610 114.723 C 106.835 114.498, 108.094 108.731, 109.408 101.907 C 111.465 91.216, 113.486 84.041, 116.492 76.750 C 117.004 75.510, 116.746 75, 115.607 75 C 114.723 75, 114 75.343, 114 75.762 M 83.699 101.068 C 78.364 106.075, 74 110.629, 74 111.188 C 74 111.825, 77.150 112.073, 82.427 111.853 C 93.026 111.409, 96.341 109.424, 96.803 103.244 C 97.151 98.588, 95.880 92.793, 94.403 92.301 C 93.850 92.117, 89.033 96.062, 83.699 101.068 M 72.250 106.031 C 70.951 106.553, 70 107.795, 70 108.968 C 70 111.626, 70.215 111.553, 72.842 108 C 74.062 106.350, 74.934 105.029, 74.780 105.063 C 74.626 105.098, 73.487 105.534, 72.250 106.031 M 46 110.615 C 46 112.610, 51.818 116.874, 56.122 118.033 C 62.241 119.681, 65.441 119.004, 65.793 115.988 C 66.076 113.566, 65.728 113.404, 56.043 111.442 C 48.654 109.945, 46 109.726, 46 110.615 M 66.316 131.766 C 64.973 139.685, 65.332 165.026, 66.847 169.310 L 68.195 173.120 73.847 172.496 C 79.097 171.916, 79.869 171.478, 84.679 166.352 C 87.527 163.317, 92.207 157.255, 95.078 152.881 C 100.218 145.052, 100.461 144.846, 110.899 139.483 C 116.730 136.487, 122.850 132.919, 124.500 131.554 L 127.500 129.072 124.485 129.036 C 122.827 129.016, 113.484 129.698, 103.723 130.550 C 84.693 132.212, 74.099 131.605, 69.495 128.589 C 67.131 127.040, 67.113 127.057, 66.316 131.766" stroke="none" fill="black" fill-rule="evenodd"/>
</svg>