<svg xmlns="http://www.w3.org/2000/svg" width="200" height="200" viewBox="0 0 200 200" version="1.1">
	<path d="M 94.500 15.493 C 92.850 16.272, 89.475 16.935, 87 16.966 C 79.166 17.064, 74.905 18.107, 75.076 19.887 C 75.364 22.892, 75.005 23.841, 72.411 26.923 C 70.953 28.656, 68.878 29.984, 67.661 29.964 C 66.472 29.944, 62.575 27.689, 59 24.954 C 49.140 17.409, 43.763 16.597, 34.500 21.256 C 30.199 23.419, 17 36.348, 17 38.398 C 17 40.767, 23.809 47.578, 29.005 50.406 C 35.862 54.138, 43.705 54.750, 57.143 52.599 C 77.078 49.409, 75.187 49.403, 74.381 52.655 C 73.993 54.220, 73.379 56.625, 73.017 58 L 72.358 60.500 57.141 60.776 L 41.923 61.053 38.925 65.776 C 35.531 71.126, 31.994 81.654, 32.012 86.355 C 32.018 88.085, 32.688 91.975, 33.500 95 C 35.607 102.848, 35.386 107.140, 32.674 111.102 L 30.348 114.500 33.168 125 C 34.719 130.775, 36 137.750, 36.015 140.500 C 36.044 145.794, 38.570 157.625, 43.968 177.743 L 47.253 189.986 51.212 187.761 C 55.502 185.350, 61.078 178.451, 63.583 172.454 C 68.388 160.955, 69.104 141.697, 66.318 98.852 C 64.448 70.101, 64.351 70.965, 69.831 67.748 L 72.816 65.995 72.658 112.748 C 72.518 154.046, 72.703 160.372, 74.243 166.976 C 76.029 174.634, 80.483 185, 81.988 185 C 82.450 185, 84.271 182.638, 86.035 179.750 C 87.798 176.863, 94.364 167.463, 100.627 158.863 C 112.648 142.354, 116.542 135.285, 115.473 131.916 C 114.761 129.673, 111.264 128, 107.285 128 C 104.829 128, 104.900 127.855, 108.693 125.108 C 118.250 118.185, 119.378 113.041, 112.750 106.618 C 110.412 104.353, 106.362 101.047, 103.750 99.271 C 101.138 97.494, 99 95.633, 99 95.135 C 99 93.660, 105.556 90.981, 114.675 88.730 L 123.198 86.626 116.849 83.423 C 108.280 79.099, 107.176 77.678, 106.807 70.493 C 106.523 64.971, 106.272 64.408, 103.500 63.069 C 101.845 62.271, 96.015 61.370, 90.500 61.061 L 80.500 60.500 85.848 57.199 C 90.992 54.024, 91.291 53.961, 93.705 55.542 C 96.991 57.696, 99.158 55.924, 95.969 53.691 C 93.795 52.168, 93.827 52.122, 98.710 49.647 C 102.410 47.772, 104.636 47.273, 107.575 47.660 C 110.709 48.073, 112.280 47.645, 115.369 45.538 C 120.181 42.256, 122.026 42.556, 124.236 46.982 C 125.794 50.102, 125.951 53.896, 125.764 83.979 C 125.551 118.288, 126.326 128.777, 129.699 137.205 C 131.338 141.302, 134.260 142.859, 136.626 140.895 C 140.830 137.406, 145.723 122.919, 148.579 105.500 C 150.543 93.526, 150.871 74.093, 149.206 68.406 C 148.202 64.978, 148.331 62.536, 149.996 53.406 C 153.156 36.083, 153.570 35.183, 154.319 44 C 154.670 48.125, 155.056 69.950, 155.177 92.500 C 155.427 138.965, 155.849 135.854, 146.340 157.776 C 137.900 177.233, 141.469 180.352, 167.962 176.675 L 176.423 175.500 177.146 172 C 179.699 159.638, 180.453 139.937, 180.234 91.304 L 180.003 40.107 186.752 36.519 C 198.217 30.424, 201.345 26.701, 198.565 22.459 C 194.876 16.828, 179.816 14.955, 138 14.924 C 120.125 14.911, 103.700 14.715, 101.500 14.488 C 99.259 14.257, 96.181 14.699, 94.500 15.493 M 121.226 17.673 L 110.952 18.070 113.818 22.285 C 117.249 27.333, 119 32.145, 119 36.528 C 119 39.184, 119.541 39.981, 122.047 41.020 C 128.349 43.630, 128.497 44.622, 128.527 84.500 C 128.554 119.832, 129.177 128.672, 132.176 136.288 C 132.780 137.821, 133.775 138.911, 134.387 138.710 C 137.686 137.627, 142.418 124.075, 145.724 106.239 C 147.668 95.752, 147.975 71.837, 146.218 67.727 C 144.089 62.749, 150.764 32, 153.974 32 C 156.635 32, 157.208 39.074, 157.989 81.500 C 158.959 134.266, 158.905 134.768, 149.968 156.117 C 143.463 171.658, 143.273 172.540, 146.111 174.059 C 148.699 175.444, 167.904 174.747, 172.205 173.112 C 174.399 172.278, 174.787 171.380, 175.354 165.830 C 177.659 143.276, 178.147 124.410, 177.499 82.991 L 176.802 38.482 183.877 35.059 C 191.595 31.326, 197.388 26.681, 196.754 24.735 C 196.102 22.732, 191.350 20.899, 183.053 19.450 C 174.912 18.029, 138.829 16.992, 121.226 17.673 M 99.535 18.806 C 96.254 18.975, 92.917 19.650, 92.119 20.306 C 88.251 23.490, 79 41.906, 79 46.421 C 79 47.379, 79.885 48.017, 81.250 48.044 C 82.487 48.068, 85.211 48.698, 87.303 49.444 C 90.828 50.702, 91.422 50.623, 95.458 48.368 C 97.852 47.029, 100.075 45.246, 100.399 44.404 C 100.722 43.562, 101.408 43.134, 101.923 43.453 C 102.439 43.771, 105.817 43.061, 109.430 41.875 L 116 39.719 116 35.819 C 116 30.122, 111.027 20.904, 107.011 19.157 C 106.180 18.796, 102.816 18.638, 99.535 18.806 M 77.919 23.196 C 77.191 24.953, 75.290 27.878, 73.694 29.696 C 69.562 34.402, 66.712 34.066, 58.387 27.896 C 48.078 20.255, 44.888 19.506, 37.310 22.946 C 32.864 24.965, 25.167 31.552, 21.910 36.126 L 19.952 38.876 23.021 42.371 C 24.708 44.293, 28.407 47.021, 31.241 48.433 C 37.408 51.506, 45.783 51.828, 59 49.500 C 63.675 48.677, 69.197 48.002, 71.271 48.001 C 74.250 48, 75.231 47.527, 75.939 45.750 C 76.432 44.513, 78.039 40.353, 79.511 36.507 C 80.982 32.661, 83.494 27.576, 85.093 25.207 C 86.692 22.838, 88 20.697, 88 20.450 C 88 20.202, 86.030 20, 83.621 20 C 79.639 20, 79.123 20.290, 77.919 23.196 M 77.479 51.365 C 76.253 55.125, 75.238 60, 75.680 60 C 76.602 60, 88.042 52.709, 87.683 52.350 C 87.492 52.159, 85.201 51.604, 82.592 51.116 C 79.237 50.489, 77.741 50.562, 77.479 51.365 M 51.339 63.743 C 41.938 64.129, 41.652 64.372, 37.426 75.601 C 34.637 83.010, 34.374 88.620, 36.489 95.591 C 38.583 102.494, 38.355 106.897, 35.672 111.328 L 33.355 115.157 35.744 123.828 C 37.058 128.598, 38.330 135.681, 38.571 139.569 C 38.962 145.899, 43.520 166.644, 47.621 180.765 L 49.150 186.029 51.964 184.026 C 56.318 180.926, 60.809 173.070, 62.890 164.914 C 65.870 153.233, 66.338 139.103, 64.566 114.255 C 63.694 102.021, 62.918 86.982, 62.841 80.835 C 62.691 68.747, 62.441 69.393, 69.054 64.802 C 71.468 63.127, 71.421 63.107, 65.500 63.256 C 62.200 63.339, 55.828 63.558, 51.339 63.743 M 75.426 87.629 C 74.301 122.314, 74.487 150.073, 75.907 159.500 C 77.237 168.326, 80.699 180, 81.987 180 C 82.439 180, 83.939 178.088, 85.320 175.750 C 86.700 173.412, 92.646 164.975, 98.533 157 C 114.629 135.194, 116.130 130.977, 107.781 131.024 C 105.427 131.038, 101.516 131.506, 99.091 132.065 C 91.852 133.734, 92.118 131.659, 99.677 127.497 C 108.539 122.619, 114 117.439, 114 113.913 C 114 111.026, 110.211 107.134, 101.692 101.271 C 93.606 95.706, 95.990 90.849, 108.464 87.472 L 114.946 85.718 110.723 83.032 C 105.640 79.800, 104.130 77.092, 103.771 70.567 C 103.444 64.622, 103.168 64.503, 87.105 63.462 L 76.232 62.758 75.426 87.629" stroke="none" fill="black" fill-rule="evenodd"/>
</svg>