<svg xmlns="http://www.w3.org/2000/svg" width="200" height="200" viewBox="0 0 200 200" version="1.1">
	<path d="M 91.682 12.750 C 91.442 13.162, 90.933 16.510, 90.550 20.188 C 90.167 23.867, 89.324 27.292, 88.677 27.800 C 88.030 28.308, 85.370 29.001, 82.768 29.340 L 78.035 29.957 78.684 23.746 L 79.334 17.535 76.917 19.278 C 64.190 28.459, 58.885 30.064, 38.442 30.919 C 24.140 31.517, 22.047 31.830, 19.306 33.782 C 12.949 38.309, 11.368 50.148, 14.605 68.992 C 16.091 77.644, 16.082 79.933, 14.479 99.905 C 12.016 130.595, 13.136 142.722, 19.015 149.016 C 22.452 152.695, 27.826 153.716, 33.872 151.838 C 38.446 150.418, 38.493 150.358, 39.265 144.994 C 40.234 138.256, 42.265 135, 45.497 135 C 46.845 135, 51.222 136.286, 55.224 137.858 C 65.506 141.897, 67.496 142.238, 71.370 140.619 C 76.770 138.362, 78.500 132.511, 78.500 116.500 C 78.500 105.916, 78.157 102.783, 76.652 99.643 C 74.047 94.205, 75.100 88.540, 80.064 81.279 C 84.634 74.595, 93.667 64.333, 94.366 65.032 C 94.628 65.294, 93.981 69.107, 92.928 73.504 C 90.121 85.231, 87.711 102.806, 88.304 107.228 C 89.026 112.615, 90.508 114.181, 93.562 112.790 C 96.705 111.358, 98.949 107.835, 100.360 102.117 C 101.758 96.454, 103.823 96.115, 106.282 101.144 C 109.413 107.549, 111.245 118.735, 110.680 128 C 109.770 142.901, 104.393 152.516, 94.810 156.380 C 76.598 163.723, 56 176.159, 56 179.811 C 56 182.589, 60.067 183.186, 67.590 181.512 C 81.856 178.338, 98.840 170.529, 110.112 161.961 C 118.020 155.949, 119.229 156.248, 146.873 171.024 C 154.542 175.123, 155.846 175.500, 162.373 175.500 C 170.619 175.500, 172.985 174.200, 177.844 167 C 180.463 163.117, 185 151.824, 185 149.185 C 185 148.701, 179.262 148.350, 172.250 148.403 C 157.980 148.512, 153.842 147.532, 149.523 143.024 C 143.049 136.266, 145.186 125.866, 158.455 99.556 C 163.155 90.237, 167 81.615, 167 80.395 C 167 76.738, 156.831 69.494, 150.992 68.993 C 145.784 68.545, 143.963 69.094, 140.471 72.160 C 136.294 75.827, 133.788 80.571, 128.552 94.723 C 126.471 100.346, 124.152 105.459, 123.397 106.085 C 120.667 108.352, 117.257 106.155, 112.577 99.116 C 110.060 95.329, 108 91.801, 108 91.276 C 108 90.751, 109.101 89.819, 110.447 89.206 C 113.897 87.634, 116.351 83.536, 115.611 80.584 C 114.701 76.961, 110.450 72.380, 103.820 67.878 C 96.503 62.909, 96.604 62.294, 106.440 51.961 C 114.368 43.634, 118 37.269, 118 31.703 C 118 27.746, 118.665 27.336, 126 26.770 C 129.275 26.517, 129.532 26.243, 130 22.500 L 130.500 18.500 132.605 21.500 C 133.763 23.150, 138.213 31.025, 142.494 39 C 154.578 61.511, 163.870 74, 168.535 74 C 170.872 74, 170.258 72.706, 166.500 69.708 C 164.576 68.172, 161.235 64.572, 159.077 61.708 C 155.007 56.308, 135.806 21.860, 136.486 21.180 C 137.242 20.425, 150.611 25.305, 157.321 28.785 C 171.841 36.315, 178.937 45.779, 179.788 58.750 C 180.049 62.737, 180.645 66, 181.112 66 C 182.577 66, 183.271 61.102, 182.563 55.764 C 179.516 32.792, 152.846 17.688, 107.144 13.051 C 94.839 11.802, 92.262 11.752, 91.682 12.750 M 93.270 21.143 C 92.698 24.639, 92.323 27.607, 92.436 27.737 C 93.111 28.517, 110.776 25.498, 112.064 24.382 C 113.210 23.389, 113.924 23.324, 114.738 24.138 C 115.467 24.867, 117.786 25.007, 121.483 24.545 C 126.855 23.874, 127.103 23.717, 126.809 21.171 C 126.522 18.692, 125.998 18.417, 119.500 17.339 C 115.650 16.700, 108.407 15.864, 103.405 15.481 L 94.310 14.785 93.270 21.143 M 71.706 26.147 C 65.418 30.837, 55.719 33.125, 39.618 33.716 C 22.601 34.342, 19.627 35.255, 17.421 40.534 C 15.650 44.772, 15.611 58.413, 17.337 70 C 18.268 76.254, 18.355 81.802, 17.664 91 C 17.148 97.875, 16.675 111.600, 16.613 121.500 C 16.503 138.961, 16.575 139.634, 19.008 143.979 C 21.941 149.217, 24.849 150.550, 31.254 149.589 L 35.826 148.904 36.487 144.094 C 36.851 141.449, 37.982 137.914, 39.002 136.238 C 41.892 131.486, 45.086 131.366, 56.799 135.574 C 63.494 137.978, 67.820 139.011, 69.465 138.598 C 73.790 137.513, 75.326 132.860, 75.803 119.412 C 76.176 108.860, 75.949 106.490, 74.015 100.764 C 71.888 94.467, 71.863 93.983, 73.393 88.721 C 75.060 82.985, 81.192 73.918, 87.370 68.054 C 89.366 66.158, 91 64.329, 91 63.989 C 91 63.204, 84.339 60, 82.707 60 C 82.033 60, 80.919 60.900, 80.232 62 C 78.370 64.982, 75.164 64.568, 74.426 61.250 C 74.090 59.737, 73.625 57.790, 73.395 56.923 C 72.633 54.059, 40.438 45.228, 38.354 47.312 C 37.965 47.702, 38.825 49.254, 40.265 50.760 C 43.361 53.998, 44.070 56.911, 47.375 80 C 50.802 103.944, 51.496 113.968, 50.033 118.401 C 47.527 125.993, 42.393 121.241, 35.075 104.554 L 30.932 95.107 34.359 90.617 C 38.922 84.638, 41.511 77.626, 41.450 71.407 C 41.412 67.549, 40.382 64.192, 37.200 57.561 C 34.890 52.747, 33 47.811, 33 46.593 C 33 43.619, 36.342 40.211, 41.374 38.054 C 46.107 36.025, 60.984 32.422, 68.786 31.415 C 74.072 30.733, 76 29.170, 76 25.566 C 76 23.505, 75.082 23.629, 71.706 26.147 M 109.976 31.250 C 108.159 34.213, 103.242 46.178, 101.535 51.794 C 101.030 53.454, 102.061 52.762, 105.260 49.294 C 112.479 41.470, 115 37.063, 115 32.268 C 115 26.965, 112.871 26.533, 109.976 31.250 M 97.185 30.023 C 94.261 30.449, 91.750 30.956, 91.604 31.149 C 91.459 31.342, 90.509 34.650, 89.494 38.500 C 88.479 42.350, 86.657 48.036, 85.444 51.135 L 83.239 56.770 88.187 59.087 C 91.640 60.705, 93.590 61.117, 94.641 60.452 C 95.470 59.929, 97.836 54.550, 99.899 48.500 C 101.962 42.450, 104.638 35.587, 105.845 33.250 L 108.041 29 105.270 29.125 C 103.747 29.193, 100.108 29.598, 97.185 30.023 M 83.328 31.804 C 81.033 31.971, 78.724 32.646, 78.196 33.304 C 77.668 33.962, 76.923 38.799, 76.539 44.054 C 75.847 53.554, 75.857 53.614, 78.329 54.740 C 80.748 55.842, 80.882 55.691, 83.270 49.186 C 85.814 42.258, 88.497 32.039, 87.863 31.696 C 87.663 31.588, 85.623 31.637, 83.328 31.804 M 63.679 35.018 C 50.921 37.396, 41.128 40.468, 38 43.075 L 35.500 45.158 38.169 44.580 C 41.717 43.812, 53.751 46.182, 64.418 49.750 C 72.952 52.605, 73.058 52.614, 73.473 50.569 C 74.220 46.889, 74.718 32.997, 74.100 33.094 C 73.770 33.146, 69.081 34.012, 63.679 35.018 M 39.141 55.363 C 39.847 56.938, 40.606 57.682, 40.828 57.015 C 41.050 56.349, 40.473 55.060, 39.545 54.152 C 37.966 52.606, 37.940 52.683, 39.141 55.363 M 76.015 57.750 C 76.052 59.528, 77.762 61.194, 78.434 60.107 C 78.810 59.498, 78.840 58.550, 78.500 58 C 77.779 56.834, 75.993 56.654, 76.015 57.750 M 95.629 73.742 C 91.446 92.156, 89.736 109.101, 91.924 110.453 C 93.244 111.269, 96.623 106.123, 97.474 102 C 98.998 94.616, 102.372 92.222, 106.282 95.750 C 108.018 97.317, 107.992 97.111, 106.031 93.783 C 103.838 90.060, 103.978 88, 106.424 88 C 108.720 88, 113 83.928, 113 81.744 C 113 79.434, 105.336 71.605, 100.273 68.742 L 97.164 66.984 95.629 73.742 M 143.500 72.837 C 139.808 75.088, 136.373 81.366, 131.501 94.762 C 127.082 106.914, 124.959 110, 121.020 110 C 118.889 110, 117.083 108.774, 113.743 105.060 L 109.302 100.119 111.028 106.344 C 114.829 120.052, 114.375 134.607, 109.817 145.203 C 107.211 151.261, 99.688 158.187, 93.852 159.900 C 87.520 161.759, 66.373 172.965, 62.134 176.708 C 58.572 179.853, 58.550 179.918, 61.020 179.958 C 69.452 180.098, 91.666 171.084, 104.803 162.192 C 118.095 153.196, 118.431 153.218, 140.454 164.555 C 154.985 172.035, 158.136 173.293, 162.498 173.356 C 166.183 173.409, 168.418 172.839, 170.595 171.288 C 173.724 169.061, 178.014 162.046, 180.422 155.222 L 181.821 151.256 171.160 151.318 C 158.068 151.394, 152.738 149.974, 147.879 145.114 C 140.009 137.245, 141.573 127.443, 155.008 100.407 C 159.954 90.457, 164 81.592, 164 80.708 C 164 77.774, 153.019 70.994, 148.282 71.004 C 147.302 71.006, 145.150 71.831, 143.500 72.837 M 42.140 82.491 C 41.445 84.411, 39.381 88.204, 37.553 90.922 L 34.228 95.862 37.990 104.352 C 42.359 114.213, 45.708 119.298, 47.219 118.365 C 48.992 117.269, 45.883 79, 44.021 79 C 43.680 79, 42.834 80.571, 42.140 82.491" stroke="none" fill="black" fill-rule="evenodd"/>
</svg>