<svg xmlns="http://www.w3.org/2000/svg" width="200" height="200" viewBox="0 0 200 200" version="1.1">
	<path d="M 98.411 20.456 C 96.811 27.251, 95.174 32.291, 94.773 31.656 C 94.373 31.020, 94.260 29.712, 94.523 28.750 C 94.785 27.788, 95.276 26.035, 95.613 24.856 C 96.198 22.811, 95.996 22.743, 91.231 23.375 C 83.915 24.345, 76.773 26.665, 72.801 29.360 C 69.800 31.397, 67.773 31.796, 58.404 32.193 C 45.645 32.735, 42.494 33.998, 39.176 39.901 C 36.111 45.353, 34.118 46.246, 23.500 46.925 C 16.168 47.393, 14.573 47.778, 14.895 49 C 15.113 49.825, 15.376 71.875, 15.480 98 C 15.610 130.770, 16.035 146.895, 16.851 150 C 18.976 158.089, 22.351 168, 22.981 168 C 23.321 168, 24.138 166.506, 24.798 164.681 C 26.373 160.327, 32.385 153.370, 36.350 151.315 C 38.083 150.416, 44.619 149.124, 50.876 148.442 C 63.678 147.047, 66.274 145.792, 69.494 139.435 C 71.086 136.293, 71.607 132.679, 72.081 121.500 C 72.407 113.800, 73.256 105.035, 73.969 102.021 C 75.751 94.482, 74.734 78.975, 71.639 66.504 C 70.275 61.006, 69.236 56.444, 69.329 56.365 C 69.423 56.287, 73.900 57.460, 79.277 58.972 C 92.493 62.687, 93.092 63.428, 83.946 64.744 C 79.980 65.314, 78.433 65.991, 78.188 67.262 C 77.944 68.531, 78.515 69, 80.302 69 C 81.648 69, 84.207 69.291, 85.987 69.647 C 89.166 70.283, 89.211 70.368, 88.486 74.397 C 87.212 81.473, 87.512 113.960, 88.925 122 C 91.789 138.298, 96.326 147.795, 103.265 152.015 L 106.469 153.963 111.350 149.232 C 117.736 143.041, 120.978 136.200, 120.990 128.884 C 121.006 119.776, 116.189 111.479, 102.440 96.937 C 93.297 87.266, 91 84.257, 91 81.953 C 91 77.252, 93.533 76.582, 112.877 76.169 L 130.253 75.797 129.581 84.649 C 128.216 102.616, 125.831 124.866, 123.872 137.900 C 121.771 151.883, 117.636 169.764, 116.162 171.238 C 115.687 171.713, 107.069 171.626, 96.813 171.044 C 73.093 169.698, 64.298 170.820, 69.389 174.543 C 73.653 177.660, 104.976 179.795, 121.616 178.102 C 130.889 177.159, 133.925 177.222, 139.931 178.486 C 159.387 182.578, 175 178.275, 175 168.820 C 175 163.643, 167.919 159.023, 159.960 159.006 C 155.208 158.995, 145.521 162.010, 137.171 166.098 C 132.590 168.340, 128.680 170.013, 128.482 169.816 C 127.338 168.671, 134.586 151.738, 144.044 133.462 C 161.640 99.457, 164.605 88.680, 158.617 80.492 C 157.473 78.926, 156.942 78.803, 155.718 79.819 C 154.501 80.829, 152.370 80.475, 144.360 77.932 C 138.937 76.210, 134.072 74.396, 133.550 73.900 C 133.027 73.405, 131.902 72.985, 131.050 72.966 C 130.197 72.947, 125.225 71.366, 120 69.452 L 110.500 65.973 127.274 66.309 C 138.420 66.532, 143.934 66.301, 143.707 65.620 C 143.519 65.057, 132.652 61.780, 119.557 58.339 C 106.462 54.898, 95.546 51.880, 95.299 51.633 C 95.052 51.385, 95.161 49.112, 95.540 46.580 L 96.231 41.976 100.242 45.600 C 102.448 47.593, 107.234 50.628, 110.877 52.343 C 116.252 54.875, 118.788 55.467, 124.336 55.482 C 130.325 55.498, 131.409 55.208, 133.086 53.139 C 134.139 51.841, 135 49.555, 135 48.060 L 135 45.341 143.750 47.011 C 148.563 47.930, 152.760 48.290, 153.077 47.811 C 154 46.421, 158.774 50.759, 161.568 55.525 C 165.170 61.672, 164.652 65.900, 160 68.324 C 156.998 69.888, 154.864 70.071, 145 69.614 C 138.675 69.321, 132.488 68.786, 131.250 68.424 C 129.628 67.950, 129 68.183, 129 69.258 C 129 71.089, 132.611 71.880, 144.500 72.655 C 154.873 73.331, 161.042 72.049, 164.615 68.476 C 169.123 63.968, 166.748 55.635, 158.742 47.866 C 155.059 44.291, 154.151 43.877, 151.033 44.355 C 147.896 44.837, 134.489 42.946, 133.650 41.904 C 133.471 41.682, 131.826 39.250, 129.994 36.500 C 126.655 31.486, 106.398 10.819, 103.086 9.046 C 101.502 8.199, 101.020 9.376, 98.411 20.456 M 102.092 16.628 C 100.011 24.167, 97.783 35.117, 98.239 35.572 C 99.036 36.369, 128.129 41.204, 128.699 40.634 C 130.054 39.279, 117.478 25.250, 105.826 15.119 L 103.151 12.793 102.092 16.628 M 84.230 27.550 C 81.332 28.331, 77.507 29.738, 75.730 30.677 L 72.500 32.384 76.500 33.071 C 78.700 33.449, 83.088 34.070, 86.250 34.451 L 92 35.144 92 30.572 C 92 25.442, 92.025 25.452, 84.230 27.550 M 46.793 36.148 C 45.226 36.721, 42.823 39.191, 41.084 42.018 C 38.489 46.236, 37.372 47.109, 32.859 48.449 C 29.987 49.302, 25.356 50, 22.568 50 L 17.500 49.999 17.761 94.250 C 18.019 138.182, 18.809 150.107, 22.018 158.548 L 23.078 161.334 24.692 158.917 C 30.797 149.777, 36.002 147.081, 49.868 145.878 C 60.714 144.936, 63.774 143.801, 66.439 139.734 C 68.527 136.547, 70.339 123.520, 69.633 116.765 C 69.235 112.952, 69.573 108.930, 70.641 104.765 C 72.822 96.266, 71.955 78.962, 68.685 65.718 C 67.356 60.338, 65.994 55.661, 65.658 55.324 C 65.321 54.988, 61.323 54.665, 56.773 54.606 L 48.500 54.500 48.663 58.500 C 48.752 60.700, 49.149 69.700, 49.545 78.500 C 50.240 93.972, 49.016 117.647, 47.166 124.500 C 46.235 127.950, 43.633 128.940, 42.438 126.299 C 41.990 125.310, 41.450 115.950, 41.238 105.500 C 40.937 90.658, 41.235 84.202, 42.601 76 C 43.562 70.225, 44.277 63.250, 44.190 60.500 C 44.005 54.672, 47.076 48.280, 51.021 46.284 C 52.385 45.594, 56.087 45.023, 59.250 45.015 C 64.672 45.001, 65 44.861, 65 42.565 C 65 41.226, 65.439 38.976, 65.975 37.565 L 66.950 35 58.225 35.079 C 53.426 35.122, 48.282 35.603, 46.793 36.148 M 69.096 36.882 C 68.638 37.772, 67.963 40.164, 67.596 42.198 C 66.937 45.852, 66.974 45.904, 70.714 46.561 C 72.796 46.927, 78.277 48.086, 82.892 49.137 C 87.508 50.188, 91.443 50.891, 91.635 50.698 C 91.986 50.347, 94 40.378, 94 38.992 C 94 38.588, 89.612 37.728, 84.250 37.081 C 78.888 36.434, 73.472 35.761, 72.215 35.584 C 70.864 35.395, 69.588 35.926, 69.096 36.882 M 101.054 42.559 C 106.153 47.824, 116.017 52.343, 123.444 52.816 C 130.427 53.260, 132.361 51.994, 131.822 47.330 C 131.501 44.545, 131.466 44.532, 116 41.818 C 107.475 40.322, 99.849 39.075, 99.054 39.049 C 98.193 39.020, 99.002 40.439, 101.054 42.559 M 51.441 49.468 C 49.599 50.861, 49.659 50.938, 52.610 50.968 C 54.321 50.986, 57.809 51.286, 60.360 51.636 C 64.630 52.221, 65 52.102, 65 50.136 C 65 48.200, 64.457 48, 59.191 48 C 55.632 48, 52.631 48.569, 51.441 49.468 M 68 50.916 C 68 52.436, 69.031 53.192, 72.250 54.033 C 74.588 54.644, 79.360 56.011, 82.855 57.072 C 90.986 59.539, 91.194 59.519, 90.816 56.309 C 90.523 53.811, 89.924 53.492, 82.515 51.876 C 67.762 48.658, 68 48.674, 68 50.916 M 93.850 56.500 C 93.767 57.325, 93.655 58.522, 93.600 59.161 C 93.399 61.499, 100.484 62.848, 113 62.853 L 125.500 62.857 111 58.951 C 94.543 54.516, 94.055 54.447, 93.850 56.500 M 98.250 66.689 C 99.213 66.941, 100.787 66.941, 101.750 66.689 C 102.713 66.438, 101.925 66.232, 100 66.232 C 98.075 66.232, 97.287 66.438, 98.250 66.689 M 45.654 71.979 C 43.979 80.356, 42.813 102.705, 43.533 112.643 C 44.727 129.102, 45.958 121.316, 46.680 92.750 C 47.250 70.214, 47.004 65.231, 45.654 71.979 M 91.737 72.593 C 91.285 74.962, 91.469 75.133, 93.871 74.560 C 95.317 74.215, 101.900 73.654, 108.500 73.313 C 119.726 72.732, 120.274 72.610, 117 71.422 C 115.062 70.719, 108.756 70.118, 102.867 70.076 L 92.233 70 91.737 72.593 M 132.585 82.373 C 132.295 85.193, 131.792 91.100, 131.468 95.500 C 130.317 111.109, 126.845 138.669, 124.541 150.500 C 122.520 160.872, 118.951 173.382, 117.638 174.695 C 117.410 174.923, 110.094 174.635, 101.379 174.055 C 92.664 173.475, 83.276 173.052, 80.517 173.115 L 75.500 173.230 79.500 174.083 C 85.689 175.402, 111.718 176.372, 119.250 175.565 L 126 174.841 126 170.570 C 126 164.203, 126.937 161.925, 142.074 131.500 C 150.191 115.184, 156.666 100.842, 157.590 97.130 C 159.521 89.378, 158.839 84, 155.925 84 C 154.834 84, 149.255 82.480, 143.527 80.623 L 133.113 77.246 132.585 82.373 M 90.279 103.614 C 90.899 119.195, 91.844 125.462, 95.106 135.611 C 97.264 142.323, 103.082 150, 106.011 150 C 108.225 150, 114.345 142.813, 116.479 137.705 C 117.315 135.703, 118 131.647, 118 128.692 C 118 120.403, 113.709 112.918, 101.662 100.196 C 96.092 94.313, 91.118 89.326, 90.610 89.114 C 90.053 88.882, 89.921 94.646, 90.279 103.614 M 151.773 163.080 C 149.723 163.564, 145.164 165.266, 141.641 166.863 C 134.643 170.036, 125.965 175.626, 129.752 174.521 C 130.990 174.160, 135.371 174.613, 139.487 175.529 C 150.043 177.878, 164.783 177.304, 168.679 174.392 C 170.805 172.804, 171.500 171.448, 171.500 168.892 C 171.500 166.015, 170.968 165.234, 168 163.752 C 164.285 161.896, 157.912 161.632, 151.773 163.080" stroke="none" fill="black" fill-rule="evenodd"/>
</svg>