<svg xmlns="http://www.w3.org/2000/svg" width="200" height="200" viewBox="0 0 200 200" version="1.1">
	<path d="M 39.494 16.006 C 38.496 17.110, 37.958 18.292, 38.300 18.633 C 38.642 18.975, 37.557 21.236, 35.891 23.659 C 31.418 30.160, 27.821 38.593, 28.182 41.730 C 28.395 43.579, 29.411 44.920, 31.269 45.806 C 35.945 48.037, 37.515 51.549, 37.375 59.459 C 37.222 68.118, 35.068 74.744, 25.963 94.564 C 18.413 110.999, 17.663 113.673, 20.151 115.291 C 22.204 116.626, 30.953 111.660, 37.890 105.221 C 43.147 100.343, 45.458 99.498, 51.087 100.398 C 56.329 101.236, 76.587 110.385, 74.267 110.867 C 73.295 111.068, 71.306 112.081, 69.846 113.117 C 68.329 114.193, 65.504 115, 63.255 115 C 57.598 115, 42.810 117.071, 40.750 118.152 C 38.587 119.287, 38.474 121.584, 40.542 122.378 C 44.301 123.820, 61.015 125.104, 78.504 125.294 C 94.572 125.468, 98.579 125.204, 104.500 123.581 C 108.350 122.526, 114.954 121.626, 119.175 121.581 C 125.497 121.514, 127.348 121.871, 129.675 123.605 C 135.526 127.964, 136.289 130.688, 137.175 150.402 C 138.108 171.162, 139.014 176.053, 143.128 182.541 C 145.982 187.040, 146.217 187.182, 149.759 186.517 C 157.814 185.006, 162.502 180.620, 165.972 171.346 C 173.376 151.556, 168.279 116.730, 156.889 109.285 C 151.325 105.648, 139 96.639, 139 96.209 C 139 95.989, 139.887 94.563, 140.970 93.041 C 143.641 89.291, 142.286 88.352, 138.894 91.602 L 136.149 94.232 129.982 89.906 C 126.246 87.286, 120.746 81.795, 116.033 75.980 L 108.251 66.380 109.664 55.451 C 110.442 49.440, 111.398 44.249, 111.789 43.914 C 112.494 43.310, 129.777 44.444, 130.473 45.139 C 130.672 45.339, 130.405 47.751, 129.879 50.501 C 128.058 60.032, 131.490 73.196, 137.443 79.508 C 142.654 85.033, 148 83.929, 148 77.329 C 148 73.631, 143.104 59.537, 139.982 54.244 L 137.918 50.746 139.959 49.316 C 142.967 47.210, 142.453 45.293, 138.497 43.863 C 134.610 42.457, 134.581 41.519, 138.235 35.326 L 140.258 31.898 149.629 32.586 C 157.650 33.175, 159 33.055, 159 31.754 C 159 29.486, 156.024 28.978, 139 28.341 C 115.624 27.467, 106.488 29.866, 106.510 36.874 C 106.518 39.615, 106.183 40, 103.786 40 C 101.895 40, 99.716 38.663, 96.714 35.661 C 89.254 28.201, 74.566 23.114, 65.713 24.925 L 62.656 25.550 70.299 32.418 C 74.503 36.195, 77.703 39.671, 77.412 40.143 C 76.366 41.835, 67.572 41.037, 64.127 38.936 C 62.272 37.805, 60.096 37.133, 59.290 37.442 C 58.118 37.892, 58.341 38.617, 60.413 41.079 C 61.836 42.770, 63 44.515, 63 44.958 C 63 45.400, 61.911 48.656, 60.579 52.193 C 52.627 73.321, 57.911 96.052, 68.264 85.246 C 71.351 82.025, 76.086 71.983, 78.527 63.483 C 79.472 60.192, 80.371 57.357, 80.524 57.181 C 80.771 56.900, 96.287 68.030, 98.273 69.913 C 98.698 70.316, 98.290 72.413, 97.367 74.573 C 96.444 76.733, 95.087 82.739, 94.351 87.919 C 92.709 99.494, 89.914 105.720, 85.542 107.547 C 81.465 109.250, 77.777 108.416, 66.388 103.212 C 49.223 95.370, 45.125 95.360, 36.258 103.139 C 30.097 108.543, 22.253 113.586, 21.374 112.708 C 21.080 112.413, 23.988 105.439, 27.837 97.209 C 36.721 78.213, 40.090 67.700, 40.118 58.880 C 40.143 51.077, 38.275 46.632, 33.936 44.163 C 29.230 41.486, 30.332 37, 38.843 24.182 L 42.442 18.761 50.471 19.382 C 78.390 21.540, 112.993 23.149, 134.992 23.312 L 160.483 23.500 163.398 26.810 C 165.001 28.630, 169.569 31.907, 173.549 34.091 L 180.785 38.063 179.413 42.623 C 178.658 45.131, 177.573 55.354, 177.001 65.341 C 175.442 92.576, 174.044 99.614, 169.621 102.513 C 167.342 104.006, 166.897 104.002, 163.826 102.458 C 161.997 101.538, 158.406 98.755, 155.846 96.274 C 150.225 90.827, 146.939 91.240, 152.163 96.737 C 164.278 109.486, 173.147 109.144, 176.666 95.791 C 177.433 92.881, 178.712 80.600, 179.509 68.500 C 180.922 47.022, 181.800 41.151, 183.993 38.509 C 184.829 37.501, 183.333 36.278, 177.285 33.029 C 167.718 27.889, 163.564 24.230, 165.141 22.330 C 166.536 20.649, 167.522 20.725, 147.500 20.962 C 119.565 21.291, 45.716 17.116, 43.693 15.093 C 42.175 13.575, 41.576 13.706, 39.494 16.006 M 75.500 33.513 L 82.500 39.946 89.924 39.973 L 97.349 40 94.924 37.405 C 91.194 33.412, 85.121 30.240, 77.986 28.558 C 74.419 27.718, 70.825 27.041, 70 27.054 C 69.175 27.068, 71.650 29.974, 75.500 33.513 M 115 32.180 C 110.641 33.426, 109 34.744, 109 37 C 109 39.973, 111.127 40.704, 121.702 41.366 L 131.905 42.004 134.151 37.252 C 135.387 34.638, 136.571 32.163, 136.782 31.750 C 137.346 30.649, 119.096 31.010, 115 32.180 M 75.750 43.706 C 76.987 43.944, 79.013 43.944, 80.250 43.706 C 81.487 43.467, 80.475 43.272, 78 43.272 C 75.525 43.272, 74.513 43.467, 75.750 43.706 M 93.500 50.993 L 101.500 59.071 101.778 55.786 C 101.931 53.978, 101.463 50.475, 100.737 48 L 99.419 43.500 92.460 43.208 L 85.500 42.916 93.500 50.993 M 103.700 48.250 C 104.525 51.333, 104.868 55.430, 104.528 58.176 C 104.211 60.747, 104.322 63.081, 104.776 63.362 C 105.230 63.642, 106.265 59.176, 107.075 53.436 L 108.549 43 105.421 43 L 102.293 43 103.700 48.250 M 82.417 48.793 C 82.051 51.085, 81.887 53.307, 82.054 53.730 C 82.718 55.413, 99.111 67.049, 100.024 66.485 C 102.370 65.036, 100.431 61.892, 92.042 53.542 L 83.084 44.625 82.417 48.793 M 133.189 46.828 C 132.810 47.747, 132.521 52.325, 132.547 57 C 132.586 64.177, 133.024 66.391, 135.358 71.225 C 137.937 76.568, 141.973 81, 144.259 81 C 144.845 81, 145.064 78.782, 144.796 75.555 C 144.475 71.680, 142.872 67.081, 139.236 59.603 C 134.496 49.855, 134.267 49.050, 136.063 48.480 C 138.591 47.678, 138.532 46.372, 135.939 45.694 C 134.588 45.341, 133.640 45.732, 133.189 46.828 M 64.041 51.126 C 61.539 56.942, 59.040 67.834, 59.023 73 C 59.006 77.955, 60.861 84.009, 62.600 84.677 C 66.075 86.010, 70.991 78.135, 75.383 64.198 C 76.823 59.632, 78 55.546, 78 55.118 C 78 54.452, 71.164 49.048, 67.433 46.765 C 66.636 46.278, 65.497 47.741, 64.041 51.126 M 75.500 49.419 C 78.165 51.559, 78.576 51.642, 79.180 50.164 C 80.356 47.284, 80.092 47, 76.250 47.005 L 72.500 47.010 75.500 49.419 M 103 67.882 C 103 68.982, 103.450 70.160, 104 70.500 C 104.550 70.840, 105 70.218, 105 69.118 C 105 68.018, 104.550 66.840, 104 66.500 C 103.450 66.160, 103 66.782, 103 67.882 M 108 72.432 C 108 73.219, 109.451 74.897, 111.225 76.160 L 114.450 78.457 111.606 74.728 C 108.472 70.618, 108 70.318, 108 72.432 M 99.665 76.312 C 98.807 78.615, 97.651 83.875, 97.097 88 C 95.933 96.658, 93.923 102.894, 90.953 107.066 L 88.864 110 103.182 109.994 C 117.711 109.989, 123.868 109.069, 125.920 106.597 C 126.805 105.530, 126.072 105.581, 122.596 106.832 C 118.488 108.309, 117.865 108.306, 114.694 106.794 C 109.050 104.102, 105.030 92.565, 105.008 78.991 C 105.002 75.659, 104.507 74.173, 103.112 73.302 C 101.429 72.251, 101.056 72.577, 99.665 76.312 M 108.252 84.155 C 109.598 101.946, 114.701 107.972, 124.474 103.311 C 128.389 101.444, 128.412 100.802, 124.831 93.500 C 122.092 87.914, 121.329 87.063, 114.092 81.535 L 107.684 76.640 108.252 84.155 M 128.738 95.015 C 130.426 99.312, 131.129 99.755, 132.892 97.630 C 133.788 96.550, 133.302 95.705, 130.601 93.645 L 127.173 91.030 128.738 95.015 M 134.053 99.960 C 132.738 100.952, 130.951 103.257, 130.081 105.083 C 129.211 106.908, 126.925 109.324, 125 110.451 C 121.762 112.347, 119.856 112.501, 99.500 112.514 C 77.725 112.527, 73.990 112.933, 70.921 115.619 C 69.985 116.438, 64.894 117.427, 58.421 118.048 C 52.414 118.624, 46.825 119.373, 46 119.712 C 43.239 120.847, 53.207 121.840, 74.500 122.552 C 92.236 123.144, 96.355 123.005, 101 121.658 C 115.131 117.559, 126.259 117.585, 131.868 121.732 C 133.316 122.802, 135.594 125.636, 136.931 128.031 C 139.169 132.039, 139.418 133.857, 140.061 150.942 C 140.792 170.344, 141.615 175.286, 145.042 180.864 C 146.883 183.859, 147.459 184.160, 150.305 183.603 C 161.059 181.497, 166.492 169.811, 166.393 149 C 166.305 130.635, 161.767 115.037, 155.707 112.276 C 154.354 111.660, 151.728 109.859, 149.873 108.275 C 148.018 106.691, 144.238 103.766, 141.472 101.776 C 136.515 98.207, 136.411 98.181, 134.053 99.960" stroke="none" fill="black" fill-rule="evenodd"/>
</svg>