<svg xmlns="http://www.w3.org/2000/svg" width="200" height="200" viewBox="0 0 200 200" version="1.1">
	<path d="M 76.500 9.515 C 75.400 9.727, 69.213 10.192, 62.750 10.549 C 54.021 11.031, 51 11.536, 51 12.515 C 51 13.240, 51.531 14.010, 52.181 14.227 C 53.989 14.830, 50.280 21.724, 37.388 41.724 C 24.301 62.025, 18.592 72.773, 19.558 75.291 C 20.518 77.792, 24.003 77.384, 29.054 74.180 L 33.500 71.361 33.500 83.430 C 33.500 96.896, 34.951 103.666, 38.564 107.060 L 40.907 109.262 37.758 111.384 C 29.636 116.858, 28.036 124.391, 28.016 157.250 C 28.002 179.322, 28.211 183, 29.480 183 C 30.293 183, 31.887 181.182, 33.020 178.961 C 37.970 169.258, 47.235 168.611, 68 176.521 C 81.379 181.618, 88.371 182.942, 91.908 181.049 C 95.113 179.334, 97.992 174.044, 97.996 169.860 C 97.998 167.858, 98.900 161.846, 100 156.500 C 101.100 151.154, 102.047 145.367, 102.104 143.640 C 102.161 141.913, 103.020 145, 104.013 150.500 C 106.277 163.046, 108.143 168.244, 112.542 174.252 C 120.287 184.829, 129.506 188.596, 145.463 187.705 C 159.846 186.902, 165.511 185.001, 170.787 179.208 C 176.558 172.871, 181 163.827, 181 158.413 C 181 147.131, 166.980 147.050, 144.648 158.203 C 137.271 161.888, 136.685 162.025, 134.962 160.465 C 132.012 157.796, 131.044 153.801, 132.505 150.326 C 134.797 144.875, 141.687 141.128, 162.398 134.068 C 170.370 131.351, 177.818 128.633, 178.947 128.028 C 181.475 126.675, 181.622 123.403, 179.213 122.114 C 176.673 120.755, 162.937 118.283, 153.349 117.459 L 145.197 116.759 140.770 121.379 C 138.335 123.921, 135.594 126, 134.679 126 C 133.764 126, 130.066 122.235, 126.461 117.633 C 118.180 107.063, 112.907 103.875, 103.704 103.875 C 99.730 103.875, 95.311 104.660, 91.717 106.005 C 85.659 108.271, 84.533 108.147, 83.743 105.125 C 83.384 103.754, 84.543 102.137, 87.872 99.363 C 96.847 91.886, 113 76.764, 113 75.840 C 113 75.326, 115.188 70.266, 117.863 64.596 C 122.277 55.239, 124.408 52.075, 125.538 53.205 C 125.761 53.428, 127.252 60.111, 128.850 68.055 C 132.261 85.005, 135.022 92.817, 139.344 97.739 C 142.773 101.644, 149.028 104.943, 153.068 104.978 C 156.487 105.007, 165.040 102.423, 167.516 100.612 C 170.957 98.096, 168.352 97.725, 162.531 99.902 C 152.826 103.534, 147.196 102.404, 141.251 95.633 C 137.207 91.027, 134.539 83.585, 132.002 69.838 C 128.547 51.113, 126.135 46.863, 121.734 51.750 C 120.073 53.596, 112.915 67.938, 111.199 72.859 C 110.114 75.973, 85.542 99, 83.304 99 C 81.063 99, 81.823 92.609, 85.110 83.818 C 89.113 73.111, 96 52.839, 96 51.762 C 96 51.305, 93.750 51.230, 91 51.594 C 85.096 52.378, 85.298 53.134, 87.641 39.028 C 89.201 29.633, 89.529 28.846, 94.294 23.027 C 98.049 18.443, 99.020 16.620, 98.166 15.766 C 96.330 13.930, 88.764 19.969, 87.689 24.128 C 87.209 25.983, 84.795 30.542, 82.325 34.260 C 79.855 37.978, 77.413 42.541, 76.900 44.400 C 75.733 48.628, 77.102 52.580, 80.060 53.519 C 81.973 54.126, 82.164 54.710, 81.644 58.355 C 81.318 60.635, 80.572 68.800, 79.987 76.500 C 79.401 84.200, 78.489 92.419, 77.961 94.764 C 76.454 101.455, 76.708 104, 78.883 104 C 81.101 104, 82.525 108.047, 80.712 109.199 C 80.046 109.623, 77.922 109.976, 75.993 109.985 C 74.065 109.993, 70.925 110.448, 69.016 110.995 C 63.736 112.510, 62 111.537, 62 107.062 C 62 99.631, 66.126 79.087, 73.622 49.194 C 77.802 32.526, 80.926 18.592, 80.563 18.230 C 78.913 16.580, 75.940 20.738, 68.706 34.813 L 60.913 49.976 62.456 54.523 C 64.431 60.340, 64.443 72.839, 62.482 80.540 C 60.263 89.254, 55.290 98.478, 50.363 103.020 C 45.422 107.574, 43.233 107.942, 40.212 104.726 C 36.837 101.133, 35.643 93.133, 36.330 78.710 C 36.734 70.227, 36.599 66.130, 35.931 66.542 C 35.378 66.885, 32.589 68.703, 29.735 70.582 C 24.987 73.709, 22 74.823, 22 73.467 C 22 71.838, 28.402 60.878, 39.050 44.276 C 45.674 33.949, 52.308 22.947, 53.793 19.826 C 57.077 12.924, 56.244 13.154, 81.010 12.322 C 100.440 11.669, 112.796 12.734, 120.213 15.702 C 126.411 18.182, 127.528 22.415, 124.022 30.141 C 121.494 35.712, 121.461 38.694, 123.917 39.474 C 126.521 40.300, 135.858 38.021, 151.973 32.625 C 159.383 30.143, 165.587 28.254, 165.760 28.427 C 165.932 28.599, 165.210 30.936, 164.155 33.620 C 158.870 47.062, 155.628 63.069, 157.107 68.424 C 158.477 73.387, 160.676 74.253, 169.869 73.451 C 180.624 72.513, 181.373 73.317, 180.806 85.185 C 180.492 91.744, 180.700 94, 181.620 94 C 183.167 94, 184.457 84.441, 183.685 78.688 C 183.302 75.831, 182.265 73.764, 180.416 72.174 C 177.881 69.993, 177.177 69.889, 169.385 70.538 C 161.113 71.227, 161.055 71.216, 159.881 68.638 C 158.173 64.889, 160.093 54.631, 165.571 38.232 C 168.050 30.814, 169.903 24.569, 169.688 24.355 C 169.474 24.141, 161.244 26.624, 151.400 29.873 C 132.613 36.073, 125 37.889, 125 36.171 C 125 35.618, 125.900 33.066, 127 30.500 C 131.645 19.663, 127.901 14.062, 114 11.053 C 108.654 9.895, 80.517 8.742, 76.500 9.515 M 69.958 38.084 C 64.551 48.870, 64.003 50.508, 64.860 53.334 C 65.388 55.075, 66.126 57.850, 66.500 59.500 C 67.091 62.106, 67.502 61.253, 69.636 53 C 70.986 47.775, 73.164 39.563, 74.476 34.750 C 75.787 29.938, 76.670 26, 76.438 26 C 76.205 26, 73.290 31.438, 69.958 38.084 M 82.474 38.860 C 78.921 44.228, 78.154 49.477, 80.721 50.851 C 82.541 51.825, 82.771 51.328, 84.146 43.448 C 84.956 38.801, 85.486 35, 85.324 35 C 85.161 35, 83.879 36.737, 82.474 38.860 M 87.816 54.710 C 85.856 55.009, 84.986 55.845, 84.589 57.810 C 83.678 62.323, 81.781 82.114, 82.218 82.551 C 82.712 83.045, 92.056 57.030, 92.023 55.250 C 92.010 54.563, 91.662 54.067, 91.250 54.150 C 90.838 54.232, 89.292 54.484, 87.816 54.710 M 58.503 97.264 C 57.463 99.025, 54.842 102.386, 52.678 104.733 L 48.745 109 52.291 109 C 54.241 109, 56.472 109.244, 57.250 109.542 C 58.345 109.963, 58.892 108.332, 59.684 102.292 C 60.245 98.007, 60.635 94.401, 60.550 94.281 C 60.464 94.160, 59.544 95.503, 58.503 97.264 M 96.320 107.293 C 89.960 109.129, 90.305 109.648, 98.334 110.326 C 109.304 111.254, 108.791 110.688, 107.347 120.277 C 104.635 138.290, 106.303 156.619, 111.650 167.537 C 115.228 174.845, 122.584 181.502, 129.279 183.490 C 136.059 185.504, 148.806 185.422, 157.846 183.307 C 164.246 181.810, 165.667 181.050, 168.880 177.399 C 173.176 172.518, 177.507 164.821, 178.436 160.414 C 179.502 155.360, 176.415 152.463, 170.159 152.648 C 163.733 152.839, 159.930 154.076, 146.751 160.265 C 136.107 165.262, 135.981 165.293, 133.899 163.408 C 128.977 158.954, 127.687 152.511, 130.778 147.823 C 134.677 141.912, 141.652 138.239, 162.750 130.984 C 171.137 128.100, 178 125.394, 178 124.970 C 178 123.833, 169.984 122.171, 157.241 120.666 L 145.982 119.335 143.439 122.669 C 139.991 127.189, 135.406 129.506, 132.513 128.188 C 131.298 127.634, 127.617 123.653, 124.332 119.341 C 120.698 114.569, 116.749 110.604, 114.244 109.210 C 109.263 106.439, 101.975 105.660, 96.320 107.293 M 42.333 112.042 C 40.591 112.577, 38.007 114.391, 36.592 116.074 C 31.496 122.130, 30.374 130.998, 30.801 161.856 L 31 176.212 33.752 173.265 C 40.152 166.414, 49.809 166.504, 67.801 173.583 C 74.424 176.188, 81.921 178.416, 85.080 178.716 C 90.242 179.207, 90.819 179.046, 92.765 176.572 C 94.050 174.938, 95.120 171.680, 95.514 168.198 C 95.869 165.064, 96.830 159.125, 97.651 155 C 101.406 136.114, 100.410 125.471, 94.504 121.374 C 93.018 120.343, 90.002 117.945, 87.802 116.044 L 83.801 112.587 78.513 115.447 C 73.257 118.291, 73.201 118.298, 69.008 116.620 C 61.901 113.776, 60.997 114.703, 61.017 124.817 C 61.049 140.547, 64.608 151.815, 71.441 157.814 C 73.398 159.533, 75 161.134, 75 161.372 C 75 161.610, 73.584 162.298, 71.853 162.901 C 59.531 167.197, 43.537 145.907, 47.117 129.974 C 48.405 124.244, 51.156 119.881, 55.636 116.464 C 58.512 114.270, 58.940 113.546, 57.753 112.881 C 55.317 111.518, 45.740 110.997, 42.333 112.042 M 87 112.414 C 87 112.750, 89.500 114.624, 92.555 116.578 C 98.096 120.123, 101.989 124.936, 101.996 128.250 C 101.998 129.213, 102.450 130, 103 130 C 103.550 130, 104 128.488, 104 126.640 C 104 124.791, 104.280 121.239, 104.621 118.746 C 105.222 114.361, 105.149 114.194, 102.371 113.659 C 96.924 112.609, 87 111.805, 87 112.414 M 70.500 114 C 70.840 114.550, 71.965 115, 73 115 C 74.035 115, 75.160 114.550, 75.500 114 C 75.862 113.415, 74.824 113, 73 113 C 71.176 113, 70.138 113.415, 70.500 114 M 53.088 123.037 C 47.287 131.046, 48.019 141.065, 55.183 151.684 C 58.592 156.738, 62.685 159.800, 67.166 160.647 L 70.500 161.277 67.860 158.389 C 61.881 151.846, 58.112 139.136, 58.035 125.250 C 58.016 121.800, 57.555 119, 57.006 119 C 56.460 119, 54.696 120.817, 53.088 123.037" stroke="none" fill="black" fill-rule="evenodd"/>
</svg>