<svg xmlns="http://www.w3.org/2000/svg" width="200" height="200" viewBox="0 0 200 200" version="1.1">
	<path d="M 132.619 16.034 C 131.035 16.509, 128.636 17.933, 127.289 19.198 C 124.845 21.494, 124.755 21.501, 91.169 21.775 C 72.651 21.926, 56.038 22.284, 54.250 22.570 C 49.158 23.386, 50.343 25.644, 57.846 29.423 C 66.822 33.943, 70.877 37.467, 73.236 42.800 C 74.298 45.201, 74.996 47.337, 74.787 47.546 C 74.578 47.756, 72.178 47.236, 69.453 46.392 C 66.138 45.364, 61.852 44.982, 56.492 45.236 L 48.484 45.616 48.791 42.058 C 50.033 27.677, 28.922 22.797, 18.589 35.077 C 12.435 42.391, 10.666 53.312, 13.429 66.945 C 14.943 74.417, 14.992 77.501, 13.909 97.014 C 12.676 119.251, 13.514 139.318, 16.053 148.315 C 17.211 152.416, 20.154 156, 22.365 156 C 25.074 156, 28.778 151.950, 32.436 144.990 L 36.164 137.896 40.492 141.886 C 51.698 152.215, 61.910 145.205, 67.073 123.641 C 70.376 109.844, 70.055 82.784, 66.467 72.688 C 66.235 72.034, 67.406 69.925, 69.069 68 L 72.093 64.500 71.632 95.500 C 71.144 128.262, 70.438 134.778, 65.495 152.124 C 64.143 156.867, 62.127 162.871, 61.015 165.465 C 59.117 169.892, 59.091 170.390, 60.593 173.555 C 63.688 180.078, 68.041 178.867, 75.170 169.499 C 77.189 166.847, 84.272 154.062, 90.910 141.088 C 97.549 128.115, 103.997 116.245, 105.240 114.711 L 107.500 111.922 113.405 113.960 C 127.653 118.879, 132.962 127.878, 128.029 138.746 C 124.572 146.362, 120.092 151.831, 105.793 165.890 C 97.390 174.153, 91.999 180.189, 92.417 180.866 C 93.316 182.321, 97.227 182.312, 102.127 180.844 C 105.227 179.915, 106.551 178.686, 108.862 174.590 C 114.449 164.691, 121.415 160.105, 128.769 161.484 C 134.273 162.517, 139.388 165.432, 151.841 174.630 C 163.329 183.116, 165.942 184.432, 170.114 183.833 C 173.292 183.376, 176.789 177.813, 177.440 172.177 C 177.737 169.605, 178.660 163.841, 179.490 159.368 C 181.245 149.915, 181.427 142.667, 179.977 139.957 C 178.376 136.965, 175.072 135.669, 167.500 135.061 L 160.500 134.500 160.194 130.824 C 159.949 127.881, 161.308 124.394, 167.009 113.343 C 173.709 100.354, 174.164 99.052, 174.710 91.325 C 175.378 81.857, 174.069 77.306, 170.415 76.389 C 168.033 75.791, 162.998 78.168, 152.323 84.929 C 149.476 86.733, 146.663 87.910, 146.073 87.545 C 143.799 86.139, 145.478 73.360, 149.586 60.810 L 151.121 56.121 155.005 60.005 C 161.113 66.113, 167.799 66.564, 174.066 61.291 C 181.557 54.988, 184.557 40.052, 179.750 32.990 C 175.660 26.980, 172.681 25.500, 164.679 25.500 C 160.731 25.500, 156.037 25.826, 154.250 26.225 C 151.203 26.905, 150.999 26.780, 150.986 24.225 C 150.958 18.639, 150.008 17.239, 145.466 16.096 C 140.445 14.832, 136.697 14.814, 132.619 16.034 M 132 19.306 C 129.805 20.341, 130.460 20.521, 137.372 20.787 C 145.454 21.097, 147.551 20.593, 144.971 18.961 C 142.932 17.671, 135.020 17.882, 132 19.306 M 76.640 24.969 L 55.780 25.500 60.622 27.850 C 70.231 32.513, 75.776 38.895, 77.478 47.250 C 77.786 48.763, 78.537 50, 79.148 50 C 79.758 50, 82.860 51.777, 86.042 53.949 C 94.378 59.639, 95.623 59.546, 105.392 52.500 L 113.711 46.500 116.954 37.500 C 118.737 32.550, 120.838 27.488, 121.621 26.250 L 123.046 24 110.273 24.219 C 103.248 24.340, 88.113 24.677, 76.640 24.969 M 124.064 27.875 C 121.471 32.956, 117.944 42.277, 118.429 42.763 C 118.639 42.973, 120.681 41.964, 122.967 40.521 C 125.253 39.078, 131.146 35.880, 136.062 33.415 C 143.686 29.593, 145 28.571, 145 26.467 C 145 24.018, 144.931 24, 135.520 24 L 126.041 24 124.064 27.875 M 154.250 29.069 L 151 30.057 151 40.379 C 151 50.245, 151.131 50.881, 153.980 54.814 C 161.231 64.824, 171.419 64.073, 176.903 53.124 C 181.012 44.923, 180.259 36.539, 174.958 31.460 C 172.226 28.842, 171.146 28.510, 164.702 28.307 C 160.741 28.183, 156.037 28.526, 154.250 29.069 M 28.655 31.426 C 17.095 35.646, 12.599 49.045, 16.419 67.898 C 17.838 74.898, 17.929 78.114, 17.045 89.801 C 14.502 123.403, 17.009 153, 22.398 153 C 24.359 153, 27.993 148.084, 32.008 140 C 33.784 136.425, 35.337 133.384, 35.459 133.243 C 35.581 133.101, 38.159 135.464, 41.188 138.493 C 45.477 142.781, 47.376 144, 49.771 144 C 56.152 144, 61.079 136.841, 64.694 122.318 C 67.012 113.004, 67.066 86.215, 64.784 77.059 L 63.179 70.618 66.458 66.559 C 71.245 60.631, 71.866 58.994, 71.285 53.833 C 70.793 49.467, 70.547 49.138, 67.343 48.536 C 62.434 47.616, 52.886 47.714, 50.218 48.713 C 47.945 49.564, 47.935 49.662, 47.593 73.034 C 47.136 104.231, 45.125 120, 41.604 120 C 39.667 120, 39.213 117.106, 38.427 99.750 C 37.828 86.542, 37.928 85, 39.379 85 C 40.781 85, 41.002 86.589, 41.015 96.750 C 41.032 109.677, 42.312 114.599, 43.379 105.839 C 44.697 95.019, 45.334 53, 44.180 53 C 43.575 53, 42.561 54.732, 41.927 56.849 C 40.820 60.544, 41.212 64.161, 43.542 71.750 C 44.040 73.371, 43.825 74, 42.775 74 C 39.632 74, 37.626 58.481, 40.149 53.684 C 40.780 52.483, 42.355 50.228, 43.649 48.673 C 47.502 44.041, 46.397 35.801, 41.492 32.587 C 38.079 30.351, 32.887 29.881, 28.655 31.426 M 134.500 37.323 C 120.416 44.759, 116.128 47.829, 114.001 51.997 C 112.981 53.997, 111.438 56.221, 110.573 56.939 C 108.364 58.773, 108.609 59.685, 111.503 60.411 C 115.765 61.481, 122.663 68.975, 124.012 74 C 126.493 83.242, 123.357 94.644, 116.504 101.299 C 110.033 107.584, 102.553 107.214, 97.318 100.350 L 94.757 96.993 96.843 92.143 C 101.400 81.550, 100.251 72.158, 93.421 64.179 C 90.481 60.744, 79.935 54, 77.504 54 C 75.306 54, 74.673 61.209, 74.915 83.500 C 75.310 119.905, 72.488 142.496, 65.065 162.346 C 62.664 168.766, 62.329 170.629, 63.226 172.596 C 66.417 179.600, 72.281 171.802, 89.941 137.072 C 102.016 113.325, 105.472 108.393, 109.222 109.551 C 122.046 113.513, 128.820 118.344, 131.541 125.467 C 135.373 135.502, 130.577 144.511, 110.896 164.250 C 102.808 172.363, 96.755 179, 97.446 179 C 101.020 179, 104.793 176.657, 106.297 173.504 C 108.441 169.007, 114.599 162.259, 118.309 160.340 C 122.505 158.170, 129.968 158.500, 136.071 161.126 C 138.937 162.359, 146.667 167.335, 153.249 172.184 C 170.485 184.881, 173.004 184.270, 175.529 166.781 C 176.266 161.677, 177.359 155.025, 177.957 152 C 180.062 141.370, 177.491 138, 167.277 138 C 153.869 138, 153.732 130.384, 166.734 107.736 C 170.693 100.839, 171.251 99.093, 171.731 92.094 C 172.376 82.687, 171.653 79, 169.162 79 C 168.172 79, 164.468 80.808, 160.931 83.018 C 157.394 85.227, 152.546 88.037, 150.157 89.262 L 145.814 91.489 143.907 89.134 C 142.811 87.780, 142.001 85.231, 142.001 83.139 C 142.003 79.256, 145.895 62.259, 148.374 55.311 C 149.383 52.482, 149.519 51.006, 148.794 50.765 C 148.204 50.568, 147.239 46.265, 146.652 41.203 C 146.064 36.142, 145.339 32.010, 145.041 32.021 C 144.744 32.033, 140 34.419, 134.500 37.323 M 106.652 54.721 C 104.548 56.218, 103.366 57.622, 104.024 57.841 C 104.683 58.061, 106.625 56.836, 108.341 55.120 C 112.181 51.281, 111.660 51.158, 106.652 54.721 M 99.850 61.705 L 96.201 62.109 99.225 67.972 C 103.121 75.526, 103.450 84.017, 100.135 91.462 C 97.958 96.351, 97.953 96.460, 99.815 98.962 C 107.566 109.376, 122 97.553, 122 80.790 C 122 74.542, 120.107 70.109, 115.942 66.605 C 110.866 62.333, 106.420 60.980, 99.850 61.705" stroke="none" fill="black" fill-rule="evenodd"/>
</svg>