<svg xmlns="http://www.w3.org/2000/svg" width="200" height="200" viewBox="0 0 200 200" version="1.1">
	<path d="M 84 12.896 C 84 13.939, 85.591 16.189, 87.535 17.896 C 91.565 21.435, 91.576 21.430, 83.500 19.480 C 66.037 15.263, 45.113 20.102, 33.846 30.962 C 24.796 39.684, 28.465 45.048, 41.804 42.597 L 46.108 41.806 44.516 45.616 C 42.451 50.559, 40.259 52.955, 36.250 54.651 C 34.462 55.408, 33 56.681, 33 57.481 C 33 58.282, 35.909 62.272, 39.465 66.349 L 45.930 73.762 36.215 78.449 C 24.549 84.077, 17.395 88.529, 16.572 90.674 C 15.457 93.578, 17.944 95, 24.139 95 L 30.034 95 27.614 99.775 C 23.559 107.777, 20.676 118.815, 20.643 126.467 C 20.567 143.654, 31.111 151.353, 45.531 144.638 C 51.799 141.719, 53.954 139.607, 54.164 136.179 C 54.254 134.705, 54.659 141.150, 55.063 150.500 C 55.535 161.438, 56.374 169.345, 57.415 172.675 C 59.253 178.555, 63.708 183, 67.761 183 C 70.690 183, 77.303 179.965, 80.838 176.999 L 83.175 175.037 80.901 168.269 C 77.804 159.051, 77.782 149.707, 80.845 144.752 C 83.902 139.804, 87.652 137.706, 99.963 134.054 C 113.190 130.131, 115 128.983, 115 124.516 C 115 121.935, 113.897 119.724, 110.579 115.650 L 106.158 110.223 109.205 107.361 C 119.507 97.687, 117.658 81.261, 105.349 73.108 C 100.220 69.711, 92.403 67, 87.735 67 C 85.860 67, 84.979 66.558, 85.246 65.750 C 85.737 64.261, 95.180 63.575, 102.638 64.487 C 109.474 65.324, 114.852 69.923, 119.112 78.575 C 124.971 90.478, 124.160 109.399, 116.850 131.339 C 112.815 143.449, 104.487 160.851, 98.678 169.313 C 94.130 175.936, 92.964 179, 94.990 179 C 95.534 179, 97.597 176.564, 99.574 173.586 C 105.911 164.043, 111.572 163.750, 131 171.962 C 149.202 179.656, 157.317 179.899, 166.794 173.034 C 168.968 171.460, 172.163 167.985, 173.894 165.313 L 177.042 160.455 177.384 143.977 C 177.620 132.557, 178.554 122.129, 180.427 110 C 181.914 100.375, 183.213 87.550, 183.315 81.500 C 183.482 71.543, 183.263 70.033, 181 65.568 C 177.999 59.649, 173.605 57, 166.787 57 C 162.128 57, 162.063 56.956, 163.148 54.574 C 167.181 45.723, 156.616 41.953, 137.291 45.345 L 130.081 46.610 128.845 43.555 C 125.689 35.755, 104.888 18.739, 91.489 12.995 C 85.680 10.505, 84 10.483, 84 12.896 M 89 15.440 C 89 15.654, 91.362 17.545, 94.250 19.642 C 97.138 21.739, 99.950 23.956, 100.500 24.569 C 101.050 25.181, 103.750 26.947, 106.500 28.492 C 109.250 30.037, 114.358 33.527, 117.851 36.247 C 123.216 40.425, 123.853 40.721, 121.954 38.151 C 118.966 34.110, 108.965 26.069, 100.621 21.001 C 94.173 17.083, 89 14.608, 89 15.440 M 55.265 22.491 C 40.769 26.535, 26.961 38.129, 33.605 40.679 C 35.022 41.223, 39.701 40.414, 46.750 38.407 C 48.631 37.872, 48.998 38.154, 48.990 40.133 C 48.966 46.079, 41.439 57, 37.365 57 C 35.001 57, 35.820 58.382, 42.571 65.778 C 49.927 73.838, 49.188 73.757, 57.901 67.455 C 61.389 64.933, 65.933 63.402, 73.945 62.048 C 77.503 61.448, 102.294 54.136, 109.893 51.446 C 113.066 50.323, 109.215 49.558, 97.050 48.894 C 82.511 48.100, 78.659 46.856, 78.189 42.800 C 77.754 39.043, 80.345 35.563, 87.755 29.953 L 94.141 25.119 88.820 23.415 C 81.500 21.071, 62.257 20.541, 55.265 22.491 M 89.883 31.750 C 86.455 34.362, 82.738 37.742, 81.622 39.261 C 78.146 43.992, 80.434 45.036, 96.464 46.033 C 106.249 46.642, 110.884 47.349, 112.644 48.502 C 114.778 49.901, 115.848 49.954, 120.584 48.894 C 123.594 48.220, 125.931 47.367, 125.778 46.998 C 125.291 45.823, 115.347 37.334, 110.842 34.248 C 105.923 30.879, 98.568 27, 97.098 27 C 96.557 27, 93.311 29.137, 89.883 31.750 M 140.500 47.497 C 139.950 47.684, 137.835 48.114, 135.800 48.454 L 132.099 49.072 138.744 57.286 C 144.567 64.484, 145.739 65.461, 148.218 65.183 C 150.656 64.910, 151.260 65.379, 152.601 68.586 C 156.135 77.046, 157.330 87.027, 157.380 108.500 C 157.409 121.387, 156.945 132.011, 156.177 136 C 153.341 150.732, 152.680 153, 151.224 153 C 150.199 153, 149.948 152.333, 150.377 150.750 C 153.636 138.730, 154.473 130.436, 154.486 110 C 154.495 95.763, 154.027 85.966, 153.101 81 C 152.332 76.875, 151.556 73.950, 151.377 74.500 C 149.924 78.969, 141.729 138.023, 141.277 147.283 C 140.708 158.959, 139.681 162.561, 138.389 157.413 C 137.288 153.028, 138.727 138.653, 143.464 106.714 C 145.929 90.096, 148.170 74.925, 148.444 73 C 148.805 70.472, 148.668 69.916, 147.953 71 C 147.081 72.320, 146.811 72.303, 145.702 70.862 C 144.790 69.674, 140.872 68.771, 131.471 67.581 C 124.337 66.677, 117.218 65.729, 115.651 65.474 L 112.802 65.010 115.903 68.542 C 122.378 75.917, 126 86.455, 126 97.918 C 126 112.090, 120.061 133.779, 110.951 152.879 C 108.228 158.587, 106.002 163.312, 106.005 163.379 C 106.008 163.445, 108.821 163.531, 112.255 163.568 C 117.509 163.625, 120.485 164.491, 131 169.023 C 141.679 173.624, 144.593 174.462, 151 174.774 C 157.966 175.113, 158.839 174.922, 163.259 172.086 C 165.877 170.406, 169.413 167.053, 171.118 164.635 L 174.218 160.237 174.474 144.868 C 174.646 134.585, 175.600 123.709, 177.358 112 C 181.117 86.957, 181.663 76.793, 179.627 69.788 C 178.558 66.113, 177.022 63.367, 175.241 61.950 C 172.765 59.980, 171.703 59.824, 164.247 60.336 L 155.994 60.903 158.497 57.219 C 161.494 52.809, 161.702 49.446, 159.066 48.035 C 157.313 47.097, 142.911 46.679, 140.500 47.497 M 118.842 51.957 C 115.180 52.934, 110.905 54.638, 109.342 55.743 C 107.779 56.848, 104.775 58.671, 102.668 59.794 L 98.835 61.836 106.668 62.168 C 113.027 62.438, 115.361 62.100, 119.079 60.375 C 123.696 58.233, 128 53.886, 128 51.365 C 128 49.680, 127.179 49.733, 118.842 51.957 M 129 55.262 C 128.175 57.033, 125.982 59.491, 124.126 60.724 C 121.956 62.167, 121.242 63.118, 122.126 63.390 C 124.483 64.115, 141.207 66.127, 141.601 65.733 C 141.935 65.398, 131.285 51.969, 130.728 52.022 C 130.603 52.034, 129.825 53.492, 129 55.262 M 75 65.500 C 73.075 66.269, 67.756 68.316, 63.181 70.048 C 52.713 74.012, 51.712 75.789, 56.773 81.416 L 60.295 85.332 59.398 105.916 C 58.060 136.589, 58.246 166.648, 59.804 171.803 C 62.803 181.719, 69.188 182.568, 79.800 174.463 C 79.965 174.337, 79.177 171.495, 78.050 168.148 C 75.670 161.084, 75.339 150.515, 77.347 145.718 C 80.407 138.408, 86.860 134.667, 105.226 129.553 C 108.488 128.644, 111.369 127.180, 111.920 126.149 C 113.191 123.775, 111.132 119.776, 105.859 114.377 L 101.834 110.255 104.913 108.062 C 115.767 100.333, 115.761 83.910, 104.901 76.043 C 98.813 71.633, 84.026 67.531, 82.590 69.854 C 82.252 70.401, 82.632 75.270, 83.435 80.674 C 85.745 96.222, 87.132 115.190, 86.200 118.500 C 85.146 122.245, 82.938 122.357, 81.210 118.753 C 75.329 106.481, 75.492 70.782, 81.453 65.783 C 83.492 64.073, 83.491 64.067, 81 64.085 C 79.625 64.095, 76.925 64.732, 75 65.500 M 38 80.580 C 32.775 83.075, 26.302 86.526, 23.616 88.248 C 17.776 91.993, 18.845 92.810, 28.522 91.998 C 32.085 91.699, 35 91.748, 35 92.106 C 35 92.464, 33.502 95.245, 31.671 98.285 C 25.055 109.272, 21.616 125.185, 23.972 133.908 C 24.627 136.332, 26.441 139.595, 28.004 141.158 C 31.816 144.970, 38.441 145.080, 45.721 141.451 L 50.836 138.903 52.049 131.712 C 53.326 124.137, 52.836 110.884, 50.890 100.370 C 50.292 97.142, 49.729 90.486, 49.639 85.579 C 49.549 80.673, 49.031 76.520, 48.488 76.351 C 47.945 76.182, 43.225 78.085, 38 80.580 M 79.709 81.875 C 78.633 86.996, 78.860 93.490, 80.491 104.312 C 82.615 118.404, 84.286 120.173, 83.502 107.500 C 83.161 102, 82.328 93.225, 81.650 88 C 80.615 80.023, 80.304 79.041, 79.709 81.875 M 52.019 84.576 C 52.030 86.734, 52.691 93, 53.488 98.500 C 54.285 104, 54.958 110.300, 54.984 112.500 C 55.018 115.458, 55.283 116.109, 56 115 C 56.533 114.175, 56.976 107.166, 56.985 99.424 C 57 85.694, 56.939 85.291, 54.500 83 L 52 80.651 52.019 84.576" stroke="none" fill="black" fill-rule="evenodd"/>
</svg>