<svg xmlns="http://www.w3.org/2000/svg" width="200" height="200" viewBox="0 0 200 200" version="1.1">
	<path d="M 115 13.655 C 101.113 15.460, 76.173 22.728, 62.337 29.001 C 56.543 31.628, 55.889 31.723, 52.319 30.450 C 46.831 28.492, 36.502 28.698, 27.741 30.938 C 17.664 33.516, 11.732 36.556, 12.411 38.797 C 15.230 48.103, 15.470 52.134, 15.495 90.500 C 15.520 129.105, 15.598 130.727, 17.731 137 C 20.440 144.968, 24.560 150.124, 30.523 153.011 L 35.048 155.202 41.632 149.351 C 51.814 140.303, 69.737 125.904, 90.540 110.060 C 100.968 102.118, 111.244 94.080, 113.375 92.199 C 116.632 89.325, 117.790 88.867, 120.635 89.328 C 122.496 89.630, 125.398 90.859, 127.084 92.059 L 130.148 94.242 129.452 101.871 C 129.070 106.067, 128.631 109.643, 128.477 109.818 C 128.323 109.993, 125.892 109.452, 123.076 108.615 C 114.340 106.021, 106.624 105.518, 104.723 107.420 C 100.895 111.248, 107.631 114.985, 119.750 115.757 L 128 116.282 128 120.208 C 128 123.472, 127.705 124.050, 126.250 123.633 C 125.287 123.358, 118.809 122.826, 111.852 122.452 C 101.515 121.896, 98.311 122.068, 94.312 123.396 C 88.835 125.216, 82.785 130.541, 80.004 135.991 C 72.231 151.228, 78.087 174.994, 91.348 182.029 L 95.653 184.313 103.577 182.202 C 107.934 181.040, 118.475 179.150, 127 178 C 152.837 174.515, 159.555 171.678, 164.080 162.340 C 167.025 156.262, 167.231 144.298, 164.592 132.636 L 162.813 124.773 152.454 119.886 C 146.757 117.199, 141.624 115, 141.048 115 C 138.164 115, 140.676 113.295, 146.009 111.632 C 149.314 110.602, 152 109.180, 152 108.460 C 152 107.742, 149.637 105.038, 146.750 102.451 C 143.863 99.864, 141.950 97.978, 142.500 98.261 C 143.050 98.543, 147.667 101.293, 152.760 104.372 C 165.986 112.367, 169.797 114.159, 172.826 113.809 C 174.833 113.577, 175.571 112.876, 175.785 111 C 176.326 106.249, 160.618 78.101, 157.870 78.897 C 154.303 79.930, 139.218 80.074, 136.703 79.099 C 134.256 78.150, 133.970 77.607, 134.409 74.757 C 134.686 72.966, 135.184 69.362, 135.517 66.750 L 136.123 62 140.520 62 C 149.894 62, 159.873 59.830, 165.237 56.625 C 169.565 54.038, 171.049 52.359, 173.747 46.996 C 175.544 43.423, 177.286 39.073, 177.617 37.329 L 178.219 34.157 174.043 35.217 C 168.678 36.579, 163.573 35.148, 155.500 30.018 C 146.846 24.519, 145.545 24.301, 142.074 27.772 C 138.796 31.050, 137.487 35.090, 135.035 49.500 C 133.382 59.214, 133.250 59.518, 130.417 60.132 C 124.004 61.521, 123.577 61.307, 121.641 55.750 C 119.147 48.591, 117.340 46, 114.840 46 C 112.859 46, 112.758 46.394, 113.231 52.294 C 113.938 61.091, 117.985 68.914, 125.218 75.459 C 130.521 80.258, 131 81.041, 131 84.913 C 131 90.750, 131.373 90.887, 105.360 75.478 L 97.221 70.656 97.746 64.860 C 98.742 53.881, 93.194 50.718, 85.097 57.649 L 80.834 61.298 77.167 59.211 C 75.003 57.979, 73.360 56.209, 73.158 54.892 C 72.608 51.299, 77.805 36.899, 81.463 31.880 C 89.111 21.388, 101.092 20.526, 106.884 30.050 C 107.914 31.743, 109.064 32.579, 109.766 32.145 C 110.613 31.621, 110.395 30.534, 108.977 28.202 C 106.684 24.431, 101.551 21.036, 98 20.940 C 95.632 20.877, 95.611 20.828, 97.604 20.023 C 98.762 19.555, 104.323 18.401, 109.964 17.457 C 120.261 15.736, 130.321 15.921, 132.269 17.869 C 134.150 19.750, 131.862 24.306, 126.402 29.552 C 122.907 32.909, 121.326 35.083, 122.051 35.532 C 123.400 36.365, 132.464 27.817, 134.660 23.642 C 136.468 20.204, 135.824 16.963, 132.982 15.207 C 130.706 13.801, 120.595 12.928, 115 13.655 M 78.500 25.548 C 74.650 26.909, 68.735 29.189, 65.355 30.616 L 59.211 33.211 62.994 36.994 C 65.075 39.075, 67.658 43.139, 68.735 46.026 L 70.693 51.275 71.911 46.440 C 73.784 39.001, 77.657 31.595, 82.029 27.089 C 84.212 24.840, 85.886 23.017, 85.749 23.037 C 85.612 23.058, 82.350 24.188, 78.500 25.548 M 143.582 29.561 C 142.723 30.420, 141.352 33.458, 140.536 36.311 C 139.015 41.629, 135.786 59.128, 136.245 59.568 C 136.753 60.055, 154.380 57.974, 157.895 57.012 C 165.682 54.879, 171.581 48.704, 173.579 40.595 C 174.230 37.951, 174.095 37.742, 172.076 38.270 C 168.431 39.223, 160.562 36.601, 153.754 32.166 C 146.640 27.531, 145.822 27.321, 143.582 29.561 M 29.928 33.048 C 27.964 33.514, 23.878 34.822, 20.849 35.955 L 15.342 38.016 16.797 44.258 C 17.931 49.123, 18.279 59.437, 18.376 91 C 18.489 127.937, 18.665 131.956, 20.379 136.678 C 22.660 142.967, 26.598 147.930, 31.326 150.476 L 34.857 152.378 41.694 145.939 C 49.624 138.471, 65.288 125.863, 90 107.055 C 99.625 99.729, 109.075 92.262, 111 90.461 C 112.925 88.661, 115.400 87.023, 116.500 86.823 C 117.942 86.560, 115.627 84.720, 108.203 80.229 C 102.540 76.803, 97.571 74, 97.160 74 C 96.749 74, 95.195 77.739, 93.707 82.308 C 89.375 95.610, 82.482 105.988, 76.204 108.661 C 71.857 110.513, 68.642 109.003, 64.568 103.199 C 60.760 97.773, 60.734 93.541, 64.440 82 C 65.996 77.153, 67.402 70.050, 67.712 65.472 L 68.254 57.445 56.293 51.722 C 49.715 48.575, 43.944 46, 43.470 46 C 42.996 46, 44.091 47.530, 45.903 49.400 C 48.558 52.139, 49.045 53.257, 48.409 55.150 C 47.975 56.442, 47.740 66.500, 47.887 77.500 C 48.174 98.912, 47.023 109.515, 44.008 113.238 C 42.511 115.087, 41.981 115.229, 40.664 114.136 C 37.033 111.122, 37.630 93.801, 42.167 70.519 L 44.375 59.191 41.082 55.440 C 35.569 49.162, 37.740 43.564, 48.358 36.675 C 52.915 33.718, 53.070 33.482, 50.858 32.861 C 47.514 31.923, 34.172 32.042, 29.928 33.048 M 50.250 38.644 C 44.515 42.536, 43.964 43.536, 47.019 44.506 C 48.130 44.859, 52.967 47.015, 57.769 49.299 C 62.571 51.582, 66.885 53.627, 67.355 53.844 C 68.831 54.522, 66.913 47.690, 64.403 43.323 C 62.215 39.518, 57.634 34.940, 56.115 35.041 C 55.777 35.063, 53.138 36.685, 50.250 38.644 M 41 50.118 C 41 52.019, 44.733 55.601, 45.703 54.630 C 46.083 54.250, 45.180 52.726, 43.697 51.242 C 41.721 49.267, 41 48.966, 41 50.118 M 115.532 52.652 C 117.022 61.344, 124.258 72.927, 130.177 76.095 C 131.768 76.946, 132.001 76.653, 132.011 73.785 C 132.017 71.978, 132.312 68.747, 132.666 66.603 L 133.309 62.707 127.360 63.380 L 121.411 64.053 119.157 57.056 C 116.610 49.147, 114.490 46.571, 115.532 52.652 M 89.483 57.857 C 83.337 61.604, 83.301 62.560, 89.178 65.923 L 94.500 68.968 94.808 63.828 C 95.214 57.047, 93.663 55.308, 89.483 57.857 M 71.642 63.750 C 71.301 65.813, 71.017 69.003, 71.011 70.840 L 71 74.180 75.087 69.010 C 77.334 66.166, 79.022 63.727, 78.837 63.588 C 76.658 61.960, 73.419 60, 72.908 60 C 72.553 60, 71.983 61.688, 71.642 63.750 M 75.058 73.500 C 71.618 78.175, 68.482 82, 68.091 82 C 66.732 82, 63.809 93.852, 64.449 96.766 C 65.289 100.594, 70.666 107, 73.038 107 C 76.023 107, 81.725 101.319, 85.451 94.631 C 89.207 87.891, 94.386 73.433, 93.537 72.059 C 93.048 71.268, 82.512 65, 81.672 65 C 81.474 65, 78.498 68.825, 75.058 73.500 M 43.074 80.519 C 41.281 92.078, 40.509 109.579, 41.758 110.351 C 43.057 111.153, 43.672 108.675, 44.956 97.467 C 46.986 79.746, 45.404 65.499, 43.074 80.519 M 133.556 85.341 C 133.080 88.291, 133.265 89.730, 134.192 90.292 C 148.237 98.803, 168.142 110.199, 170.250 110.935 C 172.550 111.739, 172.996 111.618, 172.978 110.198 C 172.945 107.665, 169.549 100.558, 163.708 90.801 L 158.500 82.102 149.378 82.693 C 143.952 83.045, 139.034 82.859, 137.241 82.234 C 134.252 81.192, 134.221 81.219, 133.556 85.341 M 132.596 97.610 C 132.268 98.464, 132 102.052, 132 105.582 C 132 113.127, 132.061 113.152, 142.588 109.900 L 149.387 107.800 146.943 105.859 C 145.599 104.791, 141.956 102.149, 138.846 99.987 C 134.230 96.778, 133.083 96.341, 132.596 97.610 M 108.500 110.619 C 110.460 111.746, 114.274 112.461, 119.500 112.680 L 127.500 113.015 123 111.491 C 120.525 110.653, 115.575 109.726, 112 109.430 L 105.500 108.893 108.500 110.619 M 131 120.209 L 131 125.668 136.330 129.339 C 147.911 137.314, 148.728 141.742, 137.457 135.439 C 133.849 133.421, 130.715 131.952, 130.492 132.175 C 130.270 132.397, 129.656 138.711, 129.128 146.205 C 128.112 160.624, 126.561 165.953, 121.419 172.695 C 120.033 174.513, 119.287 176, 119.763 176 C 123.824 176, 144.634 172.651, 148.950 171.303 C 158.743 168.244, 164 160.519, 164 149.188 C 164 142.192, 161.034 127.572, 159.358 126.309 C 157.004 124.533, 137.154 115.981, 133.858 115.322 L 131 114.750 131 120.209 M 98.654 125.027 C 88.710 126.739, 81.957 134.199, 79.787 145.869 C 77.512 158.104, 82.683 173.115, 91.090 178.678 L 95.142 181.360 104.583 179.083 L 114.025 176.807 111.576 174.881 C 103.173 168.271, 101.687 141.192, 109.087 129.525 C 111.933 125.036, 111.938 125, 109.728 124.986 C 108.503 124.979, 106.600 124.797, 105.500 124.583 C 104.400 124.368, 101.319 124.568, 98.654 125.027 M 113.619 128.085 C 109.274 131.503, 107.500 138.145, 107.500 151 C 107.500 161.282, 107.765 163.024, 110 167.443 C 113.628 174.616, 115.450 175.333, 119.090 171.021 C 124.272 164.884, 125.815 158.898, 126.176 143.522 L 126.500 129.722 121.290 127.935 C 116.219 126.197, 116.015 126.201, 113.619 128.085" stroke="none" fill="black" fill-rule="evenodd"/>
</svg>