<svg xmlns="http://www.w3.org/2000/svg" width="200" height="200" viewBox="0 0 200 200" version="1.1">
	<path d="M 133 21.074 C 123.995 23.806, 122.509 23.959, 104.500 24 C 81.995 24.051, 58.628 25.425, 54.677 26.930 C 47.749 29.570, 54.800 33.334, 71.707 36.021 C 78.514 37.103, 78.846 37.276, 77.707 39.146 C 77.043 40.234, 72.914 42.998, 68.532 45.287 C 64.150 47.577, 58.750 50.831, 56.532 52.519 C 49.519 57.857, 49.699 57.876, 50.458 51.878 C 50.832 48.920, 51.585 45.060, 52.131 43.299 C 54.095 36.960, 49.079 33, 39.085 33 C 28.667 33, 19.106 37.489, 14.944 44.333 C 11.754 49.579, 11.482 55.170, 14.033 63.101 C 16.234 69.948, 16.284 70.980, 15.745 98.771 C 15.051 134.632, 16.237 148.282, 21.671 166.927 L 23.295 172.500 25.617 163.771 C 29.430 149.431, 34.735 140.997, 39.937 141.003 C 41.347 141.005, 45.624 142.580, 49.443 144.503 C 60.069 149.856, 63.982 148.963, 68.382 140.180 C 73.240 130.485, 73.360 129.382, 73.466 93.500 C 73.560 61.911, 73.718 58.976, 75.705 52.114 C 76.880 48.052, 78.440 44.147, 79.171 43.436 C 82.310 40.380, 121.323 26.616, 125.222 27.188 C 127.940 27.587, 118.453 31.775, 98.073 39.174 C 84.022 44.275, 82 45.341, 82 47.647 C 82 49.679, 85.251 50.626, 96.374 51.835 C 101.800 52.425, 106.462 53.129, 106.733 53.400 C 107.509 54.176, 104.935 63.999, 102.515 69.500 C 99.799 75.673, 95.855 80.435, 90.833 83.605 C 88.725 84.936, 87 86.451, 87 86.971 C 87 87.492, 91.838 90.404, 97.750 93.443 C 103.662 96.481, 110.249 100.036, 112.387 101.342 L 116.274 103.716 111.478 107.015 C 108.840 108.830, 101.466 113.414, 95.091 117.201 C 88.716 120.988, 83.500 124.584, 83.500 125.191 C 83.500 125.799, 86.200 127.046, 89.500 127.963 C 96.780 129.986, 100.869 132.068, 105.428 136.071 L 108.884 139.105 107.046 143.393 C 99.184 161.733, 104.037 175.876, 120.215 181.771 C 129.857 185.285, 153.131 184.360, 167.628 179.886 C 173.510 178.071, 173.848 177.784, 176.062 172.748 C 179.234 165.528, 180.009 149.931, 177.520 143.412 C 172.499 130.267, 162.816 135.738, 152.263 157.684 L 146.729 169.193 144.427 166.347 C 141.041 162.161, 133.968 149.587, 132.338 144.854 C 129.014 135.207, 131.255 127.418, 138.556 123.248 C 144.332 119.949, 150.723 118.228, 167.407 115.477 C 175.606 114.125, 182.537 112.796, 182.810 112.524 C 183.909 111.425, 177.269 102.585, 174 100.795 C 168.957 98.034, 163.542 99.062, 151.436 105.079 C 134.740 113.376, 131.274 111.398, 130.260 92.991 L 129.709 82.992 133.104 83.746 C 134.972 84.161, 140.550 84.494, 145.500 84.486 C 155.813 84.470, 159.870 82.901, 163.040 77.701 C 166.871 71.419, 164.918 65.118, 158.483 62.994 C 155.445 61.992, 154.365 62.129, 150.475 64.012 C 146.919 65.733, 141.930 70.605, 138.281 75.921 C 137.767 76.670, 132.851 71.579, 131.405 68.800 C 128.046 62.343, 130.330 57.297, 140.633 48.418 C 155.926 35.239, 158.105 31.801, 154.929 25.867 C 153.783 23.726, 145.308 17.936, 143.554 18.096 C 142.974 18.149, 138.225 19.489, 133 21.074 M 138.500 22.472 C 136.300 23.197, 135.063 23.837, 135.750 23.895 C 137.456 24.038, 137.345 27, 135.634 27 C 134.883 27, 130.045 28.987, 124.884 31.415 C 119.723 33.844, 108.862 38.220, 100.750 41.141 C 92.638 44.062, 86 46.743, 86 47.098 C 86 47.914, 91.178 48.736, 101.865 49.617 L 110.230 50.307 109.664 54.403 C 107.945 66.854, 101.981 78.828, 94.969 83.908 L 90.841 86.898 99.171 91.070 C 107.748 95.366, 121 102.959, 121 103.577 C 121 104.200, 109.205 111.956, 98.223 118.554 C 92.324 122.098, 88.400 124.998, 89.500 124.999 C 92.827 125.003, 103.228 130.474, 107.773 134.611 L 112.046 138.500 109.346 145 C 105.451 154.381, 105.390 164.948, 109.199 170.716 C 116.410 181.636, 139.150 184.614, 164.097 177.906 C 170.963 176.060, 171.853 175.531, 173.342 172.410 C 176.015 166.803, 177.292 156.029, 176.067 149.405 C 172.548 130.368, 163.947 137.446, 148.921 171.744 L 147.500 174.988 143.500 169.480 C 133.109 155.170, 128 144.199, 128 136.197 C 128 123.412, 137.653 117.487, 165.988 112.882 C 172.860 111.765, 178.681 110.652, 178.924 110.409 C 179.694 109.639, 175.406 104.551, 172.904 103.265 C 168.615 101.061, 164.654 101.904, 153 107.500 C 137.421 114.982, 133.555 114.770, 129.777 106.229 C 128.298 102.886, 127.600 98.635, 127.223 90.679 L 126.704 79.730 130.102 80.368 C 138.088 81.867, 150.777 82.229, 154.326 81.057 C 161.657 78.638, 164.732 69.836, 159.455 66.378 C 154.492 63.127, 148.225 66.798, 140.355 77.565 L 138.210 80.500 134.517 77 C 129.402 72.152, 126.654 66.521, 127.340 62.295 C 128.231 56.804, 131.689 52.341, 141.661 43.811 C 155.379 32.077, 156.365 29.038, 148.243 23.519 C 144.056 20.674, 143.981 20.666, 138.500 22.472 M 70.500 27.664 C 61.405 28.410, 55.862 29.195, 56.337 29.670 C 57.029 30.363, 63.211 31.768, 71 33.004 C 83.055 34.917, 83.105 34.935, 81.966 37.064 C 81.022 38.828, 81.154 38.888, 83.722 37.859 C 85.250 37.247, 92.350 34.569, 99.500 31.908 L 112.500 27.069 93.500 27.203 C 83.050 27.276, 72.700 27.484, 70.500 27.664 M 33.920 36.063 C 28.478 36.921, 22.342 39.900, 19.317 43.153 C 14.514 48.316, 13.829 54.796, 17.149 63.668 C 19.237 69.249, 19.278 70.276, 18.609 99.956 C 17.910 130.963, 18.769 145.159, 22.071 157.173 L 23.259 161.500 25.001 156.449 C 28.882 145.196, 33.264 139.416, 38.687 138.399 C 41.312 137.907, 43.583 138.544, 49.336 141.387 C 53.358 143.374, 57.820 145, 59.252 145 C 62.477 145, 65.151 141.757, 68.181 134.167 C 70.372 128.682, 70.445 127.424, 70.476 95 C 70.507 61.538, 70.981 55.967, 74.592 46.611 C 75.192 45.054, 74.107 45.362, 68.410 48.366 C 64.610 50.369, 58.877 54.096, 55.672 56.647 L 49.844 61.286 50.552 69.785 C 51.792 84.673, 51.530 110.049, 50.074 116 C 48.525 122.333, 45.854 128.046, 43.549 129.959 C 40.741 132.290, 40.900 130.476, 44.034 124.398 C 48.317 116.094, 49.513 104.527, 48.367 82.500 C 47.513 66.092, 47.426 65.604, 45.882 68.500 C 43.281 73.378, 42.970 78.740, 44.640 89.938 C 45.507 95.747, 45.978 102.829, 45.688 105.675 C 45.028 112.142, 41.654 120, 39.536 120 C 38.205 120, 38.308 119.339, 40.200 115.750 C 42.716 110.978, 43.076 102.255, 41.539 83.265 C 40.711 73.034, 40.712 73.027, 43.917 66.518 C 46.227 61.824, 47.376 57.702, 48.030 51.753 C 48.529 47.214, 49.219 42.526, 49.563 41.335 C 50.753 37.218, 43.054 34.624, 33.920 36.063" stroke="none" fill="black" fill-rule="evenodd"/>
</svg>