<svg xmlns="http://www.w3.org/2000/svg" width="200" height="200" viewBox="0 0 200 200" version="1.1">
	<path d="M 134.667 8.667 C 134.300 9.033, 134 14.939, 134 21.791 L 134 34.248 129.918 40.360 C 126.709 45.166, 125.920 47.187, 126.226 49.812 L 126.616 53.152 120.558 52.504 C 111.506 51.536, 111.003 51.296, 111.531 48.194 C 113.794 34.906, 114.689 13, 112.968 13 C 109.495 13, 76.165 18.395, 69.621 20.017 C 56.789 23.196, 56.058 25.253, 65.006 33.005 C 71.291 38.450, 74.303 42.097, 75.377 45.564 C 75.984 47.522, 75.694 47.611, 69.758 47.276 C 66.316 47.082, 62.125 46.712, 60.445 46.453 L 57.390 45.983 58.351 39.554 C 59.175 34.043, 59.061 32.742, 57.555 30.444 C 56.013 28.090, 55.319 27.828, 51.855 28.293 C 49.685 28.584, 45.846 30.164, 43.324 31.805 C 38.988 34.626, 38.556 34.712, 35.401 33.394 C 26.704 29.760, 19.409 33.042, 16.887 41.723 C 15.273 47.281, 15.104 62.102, 16.383 86 C 17.132 100.009, 17.011 103.708, 15.582 110.500 C 13.244 121.618, 12.458 137.405, 13.968 142.940 C 14.671 145.518, 16.620 148.820, 18.617 150.817 C 21.728 153.928, 22.469 154.207, 26.436 153.760 C 32.473 153.080, 38.611 149.904, 45.052 144.128 L 50.500 139.244 54.830 142.349 C 63.178 148.335, 70.032 145.876, 73.913 135.502 C 78.218 123.998, 79.016 96.629, 75.573 78.593 C 74.309 71.972, 74.354 71.467, 76.665 66.420 C 77.991 63.524, 79.347 58.870, 79.677 56.077 C 80.190 51.746, 80.589 51.007, 82.389 51.049 C 87.227 51.161, 106.951 53.617, 107.511 54.178 C 108.952 55.619, 99.844 103.403, 91.068 140.437 C 84.438 168.419, 83.531 179.614, 87.537 184.041 C 92.234 189.231, 99.602 185.122, 113.787 169.401 C 116.921 165.927, 117.318 165.779, 122.351 166.196 C 126.377 166.530, 131.088 168.371, 142.202 173.953 C 152.771 179.261, 158.173 181.406, 161.863 181.761 C 166.612 182.217, 167.178 182.022, 170.372 178.828 C 176.284 172.916, 176.308 172.679, 177.091 112 C 177.485 81.475, 178.121 54.612, 178.504 52.304 C 179.112 48.637, 178.878 47.787, 176.645 45.554 C 173.253 42.162, 166.621 42.146, 153.401 45.500 C 147.981 46.875, 143.263 48, 142.916 48 C 142.570 48, 141.986 43.838, 141.618 38.750 C 140.744 26.663, 138.972 13.080, 137.901 10.250 C 137.045 7.988, 135.904 7.430, 134.667 8.667 M 93.392 18.452 C 75.175 21.206, 63.258 23.774, 62.423 25.125 C 62.083 25.674, 65.160 29.380, 69.260 33.362 C 73.996 37.962, 77.158 41.950, 77.934 44.301 C 78.606 46.335, 79.683 48.004, 80.328 48.010 C 80.972 48.015, 87.346 48.672, 94.490 49.470 C 101.635 50.267, 107.764 50.600, 108.111 50.210 C 109.013 49.194, 111 30.113, 111 22.464 C 111 17.915, 110.630 16.025, 109.750 16.084 C 109.063 16.131, 101.702 17.196, 93.392 18.452 M 137.147 29.206 C 137.020 34.120, 136.445 35.703, 133 40.621 C 130.800 43.762, 129 47.441, 129 48.797 C 129 51.089, 129.263 51.218, 132.750 50.642 C 134.813 50.301, 137.063 50.017, 137.750 50.011 C 139.162 49.999, 139.306 39.717, 138.038 29.500 L 137.294 23.500 137.147 29.206 M 46.500 33.140 C 44.300 34.294, 41.808 35.843, 40.962 36.582 C 39.665 37.716, 38.548 37.603, 33.815 35.859 C 28.884 34.043, 27.865 33.957, 25.403 35.146 C 18.309 38.574, 17.099 46.897, 18.982 79.336 C 20.149 99.456, 20.111 102.238, 18.571 109.500 C 16.507 119.233, 15.476 134.023, 16.423 140.336 C 17.386 146.759, 21.075 151, 25.699 151 C 30.631 151, 40.080 145.691, 45.545 139.848 L 50.116 134.961 54.404 138.475 C 65.278 147.385, 70.920 142.666, 74.103 122 C 75.512 112.850, 74.663 87.302, 72.641 78 C 71.266 71.671, 71.294 71.370, 73.726 66.563 C 75.131 63.785, 76.454 59.083, 76.751 55.813 L 77.278 50 70.139 49.806 C 66.212 49.699, 61.557 49.586, 59.792 49.556 L 56.585 49.500 54.718 58 C 53.540 63.358, 52.786 71.120, 52.675 79 C 52.508 90.905, 52.629 91.729, 55.211 96.306 L 57.922 101.112 54.941 109.306 C 49.846 123.313, 45.479 128.942, 42.885 124.848 C 40.475 121.046, 42.824 89.585, 47.082 68.627 C 48.185 63.197, 48.956 58.662, 48.794 58.550 C 48.632 58.437, 46.925 57.748, 45 57.017 C 30.440 51.494, 32.268 46.020, 48.678 46.006 L 54.856 46 55.527 40.632 C 55.896 37.680, 56.037 34.417, 55.840 33.382 C 55.336 30.727, 51.299 30.623, 46.500 33.140 M 154.500 48.071 C 150.650 49.144, 146.262 50.299, 144.750 50.636 C 142.958 51.036, 142 51.897, 142 53.106 C 142 54.857, 143.173 55.424, 148.429 56.211 C 151.594 56.685, 149.766 58.509, 146.250 58.386 C 142.602 58.258, 141.719 60.459, 145 61.500 C 146.100 61.849, 147 62.512, 147 62.974 C 147 63.435, 147.830 63.596, 148.844 63.330 C 150.280 62.955, 151.157 63.937, 152.805 67.769 C 157.666 79.068, 157.892 87.965, 153.509 95.529 C 151.539 98.929, 151.044 101.675, 150.337 113.109 C 149.615 124.800, 149.733 127.266, 151.196 131.080 C 153.606 137.365, 153.473 145.392, 150.867 150.774 C 147.740 157.233, 141.701 161.219, 131.652 163.454 C 129.094 164.023, 130.298 164.846, 143.487 171.544 C 159.985 179.922, 164.849 180.924, 168.759 176.750 C 173.427 171.767, 173.453 171.454, 174.136 113 C 174.492 82.475, 175.106 55.579, 175.499 53.231 C 175.979 50.366, 175.809 48.475, 174.984 47.481 C 173.236 45.374, 163.133 45.665, 154.500 48.071 M 39.179 49.868 C 37.826 50.726, 39.570 51.779, 48.294 55.372 C 52.356 57.045, 52.260 57.113, 53.436 51.750 L 54.038 49 47.269 49.015 C 43.546 49.024, 39.906 49.407, 39.179 49.868 M 135 53 C 133.075 53.405, 132.400 53.802, 133.500 53.882 C 134.600 53.962, 136.512 54.299, 137.750 54.630 C 139.404 55.074, 140 54.805, 140 53.617 C 140 52.727, 139.662 52.059, 139.250 52.132 C 138.838 52.204, 136.925 52.595, 135 53 M 110.621 56.678 C 110.308 58.230, 109.134 65.288, 108.012 72.362 C 105.660 87.183, 98.204 123.193, 94.007 140 C 88.291 162.889, 86.633 176.578, 89.035 181.066 C 91.858 186.341, 102.022 180.336, 110.374 168.459 C 111.405 166.993, 113.786 165.152, 115.665 164.367 L 119.081 162.939 116.041 160.381 C 110.350 155.592, 112.389 150.249, 123.770 140.135 C 131.598 133.177, 134.025 128.767, 136.500 116.999 C 137.325 113.077, 138 109.336, 138 108.685 C 138.001 107.860, 135.287 107.500, 129.077 107.500 C 121.641 107.500, 119.695 107.158, 117.404 105.450 C 111.749 101.233, 111.731 97.584, 117.331 91.225 C 119.136 89.176, 122.612 83.942, 125.056 79.593 C 127.500 75.244, 131.863 69.181, 134.750 66.118 C 142.495 57.904, 142.486 57.892, 127 56.001 C 122.325 55.430, 116.855 54.714, 114.845 54.410 C 111.461 53.897, 111.148 54.065, 110.621 56.678 M 142.666 82.675 C 142.309 92.946, 142.199 101.532, 142.422 101.755 C 142.644 101.978, 144.038 101.366, 145.518 100.396 L 148.209 98.633 147.783 84.067 C 147.389 70.600, 146.144 64, 143.998 64 C 143.623 64, 143.024 72.404, 142.666 82.675 M 135.500 69.170 C 133.300 71.676, 129.500 77.276, 127.056 81.613 C 124.612 85.951, 121.124 91.189, 119.306 93.253 C 112.818 100.618, 116.383 105.016, 128.815 104.986 C 139.083 104.962, 138.721 105.380, 139.481 92.658 C 139.848 86.521, 140.003 77.701, 139.824 73.057 L 139.500 64.613 135.500 69.170 M 149.594 69.250 C 149.994 70.487, 150.602 76.675, 150.943 83 C 151.536 93.977, 151.620 94.318, 152.777 90.500 C 153.443 88.300, 153.991 85.085, 153.994 83.355 C 154 80.088, 150.317 67, 149.392 67 C 149.102 67, 149.193 68.013, 149.594 69.250 M 49.158 72 C 49.158 73.375, 49.385 73.938, 49.662 73.250 C 49.940 72.563, 49.940 71.438, 49.662 70.750 C 49.385 70.063, 49.158 70.625, 49.158 72 M 47.230 84 C 45.222 97.948, 43.954 117.290, 44.839 120.500 L 45.665 123.500 47.491 120 C 48.496 118.075, 50.536 113.161, 52.026 109.080 L 54.734 101.661 52.326 96.401 C 50.853 93.184, 49.634 88.103, 49.186 83.320 L 48.454 75.500 47.230 84 M 144.359 104.111 C 141.797 105.698, 141.094 106.926, 140.541 110.778 C 138.277 126.539, 134.583 134.612, 126.597 141.248 C 116.177 149.906, 113.821 154.721, 118.108 158.595 C 121.338 161.514, 132.926 161.247, 139.340 158.106 C 146.445 154.625, 150 149.246, 150 141.976 C 150 138.827, 149.288 134.282, 148.419 131.876 C 147.134 128.319, 146.963 125.114, 147.509 114.750 C 147.879 107.737, 148.028 102.037, 147.841 102.083 C 147.653 102.128, 146.087 103.041, 144.359 104.111" stroke="none" fill="black" fill-rule="evenodd"/>
</svg>