<svg xmlns="http://www.w3.org/2000/svg" width="200" height="200" viewBox="0 0 200 200" version="1.1">
	<path d="M 132.500 15 C 132.160 15.550, 129.546 16.001, 126.691 16.002 C 117.830 16.005, 80.950 18.987, 71.825 20.439 C 61.485 22.084, 57.500 23.774, 57.500 26.513 C 57.500 27.606, 56.356 29.273, 54.957 30.217 C 52.512 31.868, 52.164 31.833, 45.957 29.315 C 37.841 26.022, 29.902 25.718, 25.205 28.519 C 23.126 29.759, 20.930 32.487, 19.254 35.914 C 16.958 40.606, 16.541 42.918, 16.185 52.922 C 15.959 59.290, 16.288 71.587, 16.918 80.248 C 17.919 94.033, 17.854 97.021, 16.395 104.221 C 12.275 124.555, 17.713 153.178, 26.453 157.160 C 31.875 159.631, 38.740 153.107, 43.588 140.876 L 45.420 136.251 49.717 141.030 C 54.677 146.547, 58.086 148.050, 62.798 146.796 C 69.056 145.130, 74.890 132.358, 76.970 115.769 C 77.536 111.250, 78 106.992, 78 106.308 C 78 105.623, 78.634 105.306, 79.410 105.604 C 82.937 106.957, 92.415 98.461, 101 86.250 C 105.639 79.651, 106.389 79.222, 109.355 81.469 C 111.127 82.811, 110.865 83.881, 103.419 105.687 C 95.922 127.641, 95.397 128.793, 89.467 136.271 C 80.842 147.149, 77.629 153.876, 77.169 162.021 C 76.834 167.939, 77.060 168.917, 79.395 171.692 C 80.823 173.390, 83.907 175.547, 86.246 176.485 C 91.254 178.491, 102.212 178.706, 109.532 176.940 C 115.666 175.460, 129.326 169.133, 133.899 165.653 C 137.383 163.002, 139 162.985, 139 165.599 C 139 168.256, 142.842 174.690, 146.033 177.374 C 152.633 182.928, 162.560 179.595, 167.143 170.287 C 173.764 156.841, 167.041 140.444, 150.736 130.271 C 143.248 125.599, 134.307 121.692, 132.980 122.512 C 132.452 122.839, 134.490 125.518, 137.510 128.466 C 142.359 133.201, 143 134.295, 143 137.837 C 143 143.173, 139.730 146.950, 132.177 150.340 C 122.030 154.894, 107.101 155.530, 103.149 151.577 C 99.856 148.285, 101.419 145.291, 111.683 135.234 C 129.349 117.923, 136.660 106.221, 135.747 96.718 C 135.330 92.374, 134.675 91.087, 131.270 87.911 C 128.726 85.537, 125.151 83.542, 121.391 82.397 C 118.151 81.411, 115.384 80.540, 115.243 80.462 C 115.102 80.383, 117.507 73.935, 120.587 66.132 C 125.896 52.684, 126.393 51.840, 130.114 49.942 C 134.683 47.611, 134.160 46.723, 136.460 60.713 C 138.476 72.972, 142.013 84.691, 145.753 91.500 C 148.171 95.901, 149.159 96.728, 154 98.400 C 161.343 100.936, 170.327 101.096, 172.695 98.732 C 177.553 93.879, 171.981 80.521, 155.469 57.434 C 149.711 49.383, 144.997 42.054, 144.994 41.148 C 144.984 38.080, 142.933 32.076, 141.357 30.500 C 140.495 29.638, 138.999 29.183, 138.034 29.489 C 136.584 29.950, 136.167 29.235, 135.639 25.384 C 135.288 22.819, 135 19.209, 135 17.360 C 135 14.109, 133.769 12.947, 132.500 15 M 116.500 19.103 C 80.123 21.584, 60.625 24.184, 61.027 26.500 C 61.122 27.050, 61.628 27.380, 62.151 27.233 C 62.674 27.086, 66.567 26.699, 70.801 26.373 C 75.036 26.047, 80.428 25.155, 82.785 24.390 C 89.096 22.343, 98.185 22.575, 101.115 24.859 C 102.571 25.994, 106.810 27.195, 112 27.942 C 116.675 28.615, 123.073 30.028, 126.218 31.083 C 129.364 32.137, 132.176 33, 132.468 33 C 132.761 33, 133 29.625, 133 25.500 C 133 18.347, 132.896 18.007, 130.750 18.142 C 129.512 18.220, 123.100 18.653, 116.500 19.103 M 91.250 25.689 C 92.213 25.941, 93.787 25.941, 94.750 25.689 C 95.713 25.438, 94.925 25.232, 93 25.232 C 91.075 25.232, 90.287 25.438, 91.250 25.689 M 27.307 30.467 C 25.280 31.349, 23.289 33.433, 21.853 36.178 C 19.876 39.955, 19.543 42.329, 19.210 55 C 19.001 62.975, 19.260 75.678, 19.786 83.228 C 20.562 94.360, 20.465 98.142, 19.273 103.228 C 17.357 111.401, 18.078 135.126, 20.471 142.686 C 22.563 149.294, 25.999 154.417, 28.593 154.794 C 29.706 154.956, 31.738 154.207, 33.108 153.130 C 35.786 151.023, 40.977 141.161, 43.045 134.250 C 43.744 131.912, 44.583 130.025, 44.908 130.056 C 45.234 130.086, 47.167 132.704, 49.204 135.873 C 51.397 139.285, 54.365 142.420, 56.479 143.559 C 59.725 145.307, 60.299 145.346, 62.775 143.991 C 72.845 138.481, 78.488 102.576, 72.117 84.557 L 70.015 78.613 76.508 72.310 C 80.078 68.843, 83 65.545, 83 64.981 C 83 62.736, 62.268 50.998, 55.793 49.577 C 53.325 49.036, 52.979 49.339, 51.882 52.998 C 50.933 56.167, 50.954 58.778, 51.983 65.393 C 54.522 81.715, 51.766 116.971, 47.424 123.718 C 45.331 126.969, 43.200 125.516, 42.419 120.306 C 41.668 115.297, 42.646 97.210, 44.079 89.610 C 44.586 86.921, 45.436 77.877, 45.968 69.511 C 46.500 61.146, 47.357 53.191, 47.873 51.834 C 48.389 50.477, 52.226 45.737, 56.399 41.301 C 63.027 34.255, 63.791 33.071, 62.434 31.945 C 60.051 29.968, 55.429 31.950, 55.740 34.815 L 55.981 37.024 51.240 34.623 C 45.526 31.730, 36.595 28.985, 33.068 29.039 C 31.656 29.061, 29.063 29.703, 27.307 30.467 M 66.166 29.876 C 65.062 30.576, 65.069 30.812, 66.208 31.250 C 66.965 31.540, 68.438 31.153, 69.483 30.389 C 71.343 29.028, 71.342 29, 69.441 29.015 C 68.374 29.024, 66.900 29.411, 66.166 29.876 M 73.636 31.127 L 69.772 33.165 74.650 36.450 C 80.382 40.310, 86.657 46.989, 88.135 50.802 C 88.710 52.286, 88.915 55.829, 88.591 58.675 L 88 63.850 96.173 69.377 C 100.667 72.417, 104.775 74.639, 105.300 74.315 C 105.825 73.990, 108.450 69.129, 111.133 63.512 C 115.557 54.250, 116.370 53.158, 119.867 51.784 C 123.061 50.530, 124.350 49.088, 127.379 43.385 C 130.595 37.330, 130.848 36.363, 129.480 35.362 C 127.606 33.991, 117.437 31.374, 110.401 30.451 L 105.302 29.782 104.659 34.473 C 104.036 39.019, 97.956 51.924, 94.053 56.985 C 91.758 59.962, 89.971 58.853, 91.989 55.705 C 97.036 47.829, 102 36.552, 102 32.959 L 102 29 89.750 29.044 C 79.409 29.082, 76.898 29.406, 73.636 31.127 M 137.056 33.433 C 136.122 34.557, 136.222 35.409, 137.516 37.384 C 138.911 39.513, 138.977 40.422, 137.944 43.279 C 135.698 49.488, 141.894 78.475, 147.815 89.464 C 150.226 93.938, 151.061 94.621, 156 96.162 C 167.282 99.682, 172.769 97.911, 171.502 91.158 C 170.204 84.238, 160.777 68.505, 147.117 50.461 C 143.892 46.200, 142 42.703, 142 41 C 142 37.730, 140.106 32, 139.025 32 C 138.596 32, 137.710 32.645, 137.056 33.433 M 63.190 38.266 C 60.961 40.045, 58.240 42.653, 57.144 44.063 L 55.150 46.625 59.325 47.745 C 61.621 48.360, 68.341 51.773, 74.257 55.328 C 84.962 61.761, 85.017 61.780, 85.629 59.342 C 86.558 55.642, 85.408 50.471, 82.904 47.084 C 81.063 44.594, 73.346 38.539, 68.371 35.680 C 67.750 35.323, 65.418 36.487, 63.190 38.266 M 132.247 40.250 C 131.699 40.938, 130.483 43.009, 129.546 44.853 L 127.842 48.206 130.921 46.388 C 133.187 45.049, 134 43.834, 134 41.784 C 134 38.682, 133.705 38.424, 132.247 40.250 M 118.918 55.250 C 118.113 55.938, 115.235 61.108, 112.522 66.740 C 107.715 76.720, 107.639 77.017, 109.545 78.458 C 111.888 80.230, 113 80.380, 113 78.924 C 113 78.331, 115.025 72.668, 117.500 66.338 C 119.975 60.008, 122 54.643, 122 54.415 C 122 53.583, 120.346 54.031, 118.918 55.250 M 79.413 72.875 L 73.325 79.500 75.102 85 C 76.079 88.025, 76.925 91.625, 76.982 93 C 77.053 94.698, 78.143 92.934, 80.380 87.500 C 83.273 80.471, 87.661 71.160, 88.556 70.150 C 88.727 69.957, 89.342 70.094, 89.924 70.453 C 90.609 70.877, 90.111 72.821, 88.503 75.993 C 84.911 83.082, 80.377 94.912, 79.590 99.250 C 78.617 104.613, 80.846 104.200, 87.693 97.750 C 92.872 92.872, 103 79.721, 103 77.874 C 103 77.002, 88.824 67.163, 86.747 66.593 C 86.061 66.404, 82.761 69.231, 79.413 72.875 M 48.624 74.500 C 48.188 78.900, 47.203 87, 46.434 92.500 C 44.880 103.618, 44.534 122.413, 45.927 120 C 48.703 115.189, 51.516 84.170, 50.188 73 L 49.416 66.500 48.624 74.500 M 110.614 93.258 C 108.635 98.891, 104.834 109.875, 102.168 117.668 C 98.474 128.460, 96.562 132.592, 94.144 135.010 C 87.322 141.832, 80.281 154.400, 79.439 161.256 C 77.167 179.761, 109.155 180.618, 132.897 162.688 C 139.484 157.715, 140.917 157.681, 141.007 162.500 C 141.106 167.837, 146.936 175.994, 151.677 177.429 C 158.022 179.350, 166.007 170.956, 166.788 161.545 C 167.685 150.725, 161.619 140.588, 149.596 132.817 C 143.235 128.706, 141.858 128.531, 144.398 132.158 C 146.571 135.260, 146.409 140.817, 144.033 144.715 C 140.305 150.829, 129.509 155.884, 118.376 156.729 C 105.170 157.731, 99 154.775, 99 147.447 C 99 144.167, 99.860 142.990, 107.597 135.679 C 129.503 114.982, 137.856 98.532, 130.493 90.587 C 128.005 87.903, 121.937 84.806, 116.856 83.628 C 114.286 83.032, 114.112 83.302, 110.614 93.258" stroke="none" fill="black" fill-rule="evenodd"/>
</svg>