<svg xmlns="http://www.w3.org/2000/svg" width="200" height="200" viewBox="0 0 200 200" version="1.1">
	<path d="M 111.665 13.972 C 110.106 14.467, 108.299 14.668, 107.649 14.419 C 105.289 13.513, 80.267 21.178, 71.172 25.593 L 61.844 30.120 54.672 28.996 C 50.727 28.377, 41.892 28.013, 35.038 28.186 L 22.575 28.500 20.363 31.787 C 16.094 38.127, 15.599 43.284, 15.548 82 C 15.505 114.886, 15.311 119.144, 13.592 125 C 12.463 128.847, 11.647 134.835, 11.592 139.669 C 11.515 146.494, 11.846 148.305, 13.600 150.669 C 17.835 156.378, 27.336 154.407, 41.201 144.943 L 47.114 140.907 50.307 142.856 C 59.593 148.525, 66.618 147.268, 70.272 139.284 C 72.294 134.867, 72.484 132.698, 72.758 111 C 73.082 85.436, 73.330 82.806, 75.351 83.581 C 76.197 83.906, 78.108 81.648, 80.591 77.390 C 97.359 48.640, 107.924 62.491, 98.982 101.500 C 95.088 118.488, 93.849 122.517, 89.986 130.767 C 82.801 146.107, 71.778 162.804, 58.507 178.449 C 51.123 187.153, 52.126 188.758, 61.680 183.525 C 74.626 176.436, 82.533 170.573, 92 161.042 C 102.297 150.676, 108.681 141.808, 115.580 128.288 L 120 119.626 120.017 136.563 C 120.036 154.558, 121.349 163.857, 124.828 170.644 C 130.129 180.982, 139.593 184.189, 156 181.206 C 159.575 180.557, 164.213 179.769, 166.306 179.457 C 177.365 177.805, 184.179 159.881, 179.569 144.564 C 177.044 136.172, 172.531 133.653, 168.256 138.250 C 166.030 140.645, 162 151.493, 162 155.093 C 162 156.988, 161.610 157.172, 158.786 156.607 C 154.498 155.750, 150.428 151.676, 148.268 146.080 C 146.222 140.781, 145.875 122.001, 147.395 98.895 C 148.397 83.653, 147.937 80, 145.016 80 C 141.697 80, 133.612 76.902, 131.250 74.725 C 126.463 70.314, 129.367 63.989, 138.200 59.588 C 144.953 56.223, 149.313 56.223, 152.679 59.588 C 155.053 61.962, 155.216 62.657, 154.657 68.009 C 154.322 71.217, 153.301 75.707, 152.389 77.986 C 149.620 84.907, 151.823 84.969, 159.700 78.189 C 179.037 61.546, 182.954 50.917, 171.247 46.852 C 165.035 44.695, 147.181 45.567, 134.331 48.655 L 132.161 49.176 134.664 42.980 C 139.633 30.678, 138.784 21.225, 132.262 16.250 C 129.245 13.950, 127.576 13.488, 121.593 13.298 C 117.692 13.174, 113.224 13.477, 111.665 13.972 M 110.750 17.162 C 108.115 18.125, 108 18.454, 108 25.018 C 108 36.700, 105.732 40.069, 93.823 46.076 C 84.388 50.836, 79.770 55.459, 75.677 64.244 C 73.946 67.960, 71.960 71, 71.265 71 C 69.721 71, 69.642 71.724, 72.013 64.161 C 74.398 56.551, 74.678 45.292, 72.553 42.441 C 71.180 40.599, 70.537 41.062, 59.972 51.500 L 48.838 62.500 49.169 75.913 C 49.418 85.995, 49.189 89.431, 48.250 89.747 C 47.310 90.063, 46.979 87.728, 46.914 80.333 C 46.845 72.485, 46.632 71.106, 45.855 73.500 C 45.319 75.150, 44.679 86.625, 44.432 99 C 44.019 119.688, 44.102 121.191, 45.469 117.662 C 46.287 115.551, 47.647 110.182, 48.491 105.732 C 49.336 101.282, 50.146 97.521, 50.292 97.375 C 50.438 97.228, 51.085 97.434, 51.729 97.832 C 52.604 98.373, 52.410 100.821, 50.963 107.528 C 48.330 119.731, 46.198 125.185, 44.210 124.802 C 41.415 124.264, 40.743 118.065, 41.356 98.500 C 42.006 77.786, 43.441 65.341, 45.449 63 C 46.157 62.175, 46.988 58.911, 47.296 55.747 C 47.957 48.959, 51.448 40.837, 55.870 35.801 L 59.038 32.193 53.986 31.498 C 45.211 30.291, 25.164 30.619, 23.505 31.996 C 22.681 32.680, 21.236 35.548, 20.294 38.370 C 18.813 42.807, 18.558 48.566, 18.412 81 C 18.269 112.628, 17.984 119.361, 16.591 124 C 15.683 127.025, 14.665 133.394, 14.328 138.154 C 13.733 146.571, 13.789 146.880, 16.386 149.477 C 18.608 151.699, 19.597 152.030, 22.278 151.450 C 26.489 150.540, 34.075 146.689, 41.272 141.810 L 47.043 137.896 53.588 141.118 C 61.608 145.066, 64.481 144.525, 67.500 138.495 C 69.293 134.914, 69.552 131.899, 70 109.401 C 70.504 84.104, 70.972 81.060, 74.372 80.970 C 74.993 80.954, 77.043 78.247, 78.928 74.954 C 82.982 67.875, 90.211 60.236, 93.680 59.365 C 96.914 58.554, 100.457 60.241, 102.697 63.660 C 105.447 67.857, 105.234 87.482, 102.309 99.500 C 101.105 104.450, 99.366 111.773, 98.446 115.772 C 95.253 129.654, 80.346 156.161, 65.841 173.750 C 62.552 177.738, 60.126 181, 60.449 181 C 60.772 181, 64.010 179.193, 67.646 176.985 C 89.834 163.505, 106.683 143.446, 117.823 117.250 C 119.051 114.362, 120.677 112, 121.437 112 C 122.563 112, 122.891 116.477, 123.213 136.250 C 123.574 158.496, 123.793 160.970, 125.853 166.190 C 129.691 175.913, 137.975 180.939, 148 179.626 C 167.084 177.127, 170.445 176.037, 173.768 171.265 C 176.776 166.947, 178 162.263, 177.994 155.101 C 177.988 147.201, 176.663 141.910, 174.113 139.602 C 172.421 138.071, 172.087 138.056, 170.691 139.452 C 168.753 141.390, 165.471 150.106, 164.513 155.861 L 163.787 160.222 159.643 159.583 C 152.818 158.531, 147.299 153.094, 144.960 145.118 C 143.008 138.459, 142.780 122.818, 144.377 105 C 145.240 95.375, 145.688 86.518, 145.374 85.317 C 144.935 83.644, 143.211 82.651, 137.988 81.065 C 130.384 78.755, 126 74.766, 126 70.155 C 126 62.941, 137.082 54.640, 146.835 54.550 C 151.448 54.507, 152.490 54.873, 154.540 57.254 C 157.762 60.997, 158.449 65.668, 156.756 72.318 C 154.974 79.311, 155.762 79.031, 165.098 69.345 C 175.277 58.785, 177.261 53.526, 172.291 50.273 C 168.385 47.716, 150.850 48.010, 137.343 50.858 C 125.402 53.376, 125.446 53.373, 126.822 51.714 C 130.354 47.458, 134.335 37.045, 134.774 30.915 C 135.317 23.325, 134.315 20.773, 129.686 17.950 C 126.145 15.791, 115.695 15.356, 110.750 17.162 M 96.446 23.322 C 89.798 26.787, 74 37.450, 74 38.473 C 74 38.628, 74.675 40.371, 75.500 42.346 C 76.325 44.320, 77 48.037, 77 50.605 L 77 55.274 81.758 50.823 C 84.375 48.375, 89.888 44.743, 94.008 42.751 C 98.129 40.760, 102.093 38.158, 102.818 36.970 C 104.595 34.057, 106.032 24.754, 105.185 21.642 L 104.500 19.125 96.446 23.322 M 85 22.872 C 80.325 24.410, 74.070 26.909, 71.100 28.427 L 65.700 31.186 68.600 33.557 C 70.195 34.861, 71.759 35.944, 72.075 35.964 C 72.392 35.984, 75.317 33.922, 78.575 31.382 C 81.834 28.842, 86.862 25.424, 89.750 23.786 C 98.052 19.079, 97.094 18.894, 85 22.872 M 57.586 38.171 C 53.847 42.538, 49.692 52.068, 50.202 55.106 C 50.424 56.429, 52.964 54.480, 60.174 47.454 L 69.849 38.026 67.290 36.013 C 63.548 33.070, 61.577 33.508, 57.586 38.171" stroke="none" fill="black" fill-rule="evenodd"/>
</svg>