<svg xmlns="http://www.w3.org/2000/svg" width="200" height="200" viewBox="0 0 200 200" version="1.1">
	<path d="M 111.300 20.384 C 110.652 21.505, 108.602 21.614, 100.500 20.955 C 86.950 19.853, 56.802 21.076, 56.247 22.750 C 55.992 23.521, 56.765 24, 58.262 24 C 62.602 24, 66.308 30.301, 67.572 39.832 L 68.258 45 58.629 45 C 50.987 45, 49 44.708, 49 43.583 C 49 41.474, 45.047 32.647, 43.741 31.840 C 43.118 31.455, 41.764 31.591, 40.733 32.143 C 39.464 32.822, 37.863 32.799, 35.780 32.073 C 28.337 29.479, 21.535 32.071, 18.095 38.813 C 14.427 46.004, 13.628 54.736, 14.603 77 C 15.096 88.275, 15.500 104.363, 15.500 112.750 C 15.500 122.325, 15.867 127.878, 16.486 127.672 C 18.697 126.934, 19.098 117.571, 17.929 94 C 16.476 64.711, 16.964 48.294, 19.469 42.231 C 22.612 34.623, 27.458 32.559, 36.102 35.149 C 39.005 36.019, 40.277 36.015, 41.340 35.133 C 42.470 34.195, 42.981 34.540, 43.958 36.900 C 45.922 41.640, 45.630 49.221, 42.627 71.500 C 40.647 86.184, 39.773 97.011, 39.721 107.500 C 39.646 122.704, 40.272 127.409, 42.280 126.740 C 45.345 125.718, 47.996 103.376, 48.697 72.654 L 49.287 46.807 52.268 47.404 C 53.908 47.732, 58.344 48, 62.125 48 L 69 48 69 81.816 C 69 100.933, 68.545 118.212, 67.953 121.566 C 64.695 140.027, 57.853 145.202, 39.759 142.892 C 28.804 141.493, 20.746 141.530, 18.014 142.993 C 14.680 144.777, 16.933 146.268, 20.882 144.891 C 23.303 144.047, 26.382 144.044, 32.887 144.878 C 52.441 147.386, 59.434 145.786, 65.184 137.492 C 70.777 129.421, 71.326 125.006, 71.705 85 L 72.050 48.500 74.900 48.196 C 76.493 48.026, 78.424 48.567, 79.281 49.424 C 80.476 50.619, 82.872 50.906, 90.157 50.728 C 95.296 50.603, 104.735 50.612, 111.133 50.750 C 121.226 50.967, 122.833 51.232, 123.270 52.750 C 123.547 53.712, 124.073 55.223, 124.439 56.107 C 124.918 57.264, 124.275 58.058, 122.143 58.941 C 119.809 59.908, 117.136 59.910, 109.526 58.952 C 91.878 56.731, 83.211 58.712, 78.692 66 C 76.918 68.861, 76.550 70.869, 76.676 77 C 76.762 81.125, 77.432 86.718, 78.166 89.430 C 79.468 94.242, 79.620 94.387, 84.500 95.494 C 91.160 97.005, 93.899 98.604, 95.060 101.658 C 97.410 107.839, 91.723 117.709, 74.696 137 C 63.888 149.244, 65.418 153.328, 78.625 147.487 C 81.750 146.105, 84.473 145.140, 84.675 145.342 C 84.877 145.544, 83.912 148.137, 82.531 151.105 C 77.881 161.093, 79.739 169.616, 87.316 173.057 C 102.256 179.839, 130.200 168.553, 130.200 155.736 C 130.200 153.024, 129.112 150.882, 125.453 146.389 C 117.680 136.846, 115.100 129.042, 118.571 125.571 C 122.992 121.151, 132.538 127.293, 138.055 138.109 C 141.369 144.605, 144.013 156.659, 144.690 168.369 L 145.319 179.238 150.410 178.639 C 158.882 177.643, 165.960 175.063, 169.751 171.589 C 175.117 166.672, 174.799 162.262, 168.167 149.624 C 160.462 134.942, 161.161 131.590, 172.671 128.029 C 175.877 127.037, 178.500 125.650, 178.500 124.948 C 178.500 124.114, 173.282 122.519, 163.500 120.363 C 134.033 113.867, 133.172 111.534, 158.307 106.295 C 165.013 104.897, 170.680 103.591, 170.900 103.393 C 171.121 103.195, 170.297 99.652, 169.071 95.520 C 166.432 86.631, 166.039 75.719, 167.980 65.238 C 169.901 54.861, 168.694 53.034, 158 50.131 L 154.500 49.180 157.701 49.090 C 162.347 48.959, 171.058 46.983, 174.312 45.321 C 176.276 44.317, 177.030 43.254, 176.812 41.793 C 176.353 38.715, 172.364 36.204, 163.681 33.525 L 155.966 31.144 154.612 34.322 C 152.503 39.271, 148.514 42.411, 144.482 42.297 C 139.358 42.151, 133.572 38.225, 123.521 28.071 C 118.582 23.082, 113.992 19, 113.321 19 C 112.649 19, 111.740 19.623, 111.300 20.384 M 70.171 23.670 L 64.842 24.110 66.488 26.622 C 67.394 28.004, 68.925 32.817, 69.891 37.317 L 71.648 45.500 78.253 45.794 C 84.537 46.074, 85.407 45.814, 96.179 40.438 C 110.511 33.284, 114.004 30.731, 113.274 27.940 C 112.973 26.789, 111.551 25.390, 110.113 24.831 C 107.336 23.752, 79.118 22.932, 70.171 23.670 M 117.579 28.750 C 117.253 29.778, 118.510 34.345, 120.413 39.048 L 123.833 47.500 137.666 47.415 C 152.642 47.322, 166.437 45.687, 172 43.344 C 175.351 41.932, 175.417 41.808, 173.549 40.428 C 172.477 39.635, 168.464 37.977, 164.633 36.743 C 158.643 34.814, 157.599 34.710, 157.179 36 C 156.911 36.825, 155.014 39.188, 152.963 41.250 C 146.105 48.149, 138.345 46.072, 125.543 33.911 C 119.346 28.025, 118.072 27.199, 117.579 28.750 M 113.288 34.112 C 112.677 34.723, 107.589 37.581, 101.983 40.461 L 91.790 45.699 96.534 46.350 C 103.452 47.298, 120 47.145, 120 46.133 C 120 45.033, 115.875 34.750, 115.032 33.750 C 114.684 33.337, 113.900 33.500, 113.288 34.112 M 126.448 53.900 L 127.947 56.799 135.603 54.437 C 139.813 53.138, 143.500 51.833, 143.796 51.538 C 144.091 51.242, 139.972 51, 134.641 51 L 124.949 51 126.448 53.900 M 151.235 54.383 C 149.420 58.367, 143.769 61.926, 137.397 63.099 C 134.153 63.696, 131.356 64.324, 131.180 64.495 C 131.004 64.666, 131.792 66.632, 132.930 68.863 C 135.207 73.327, 135.586 78.036, 133.919 81.151 C 132.081 84.586, 125.294 86.954, 117.218 86.978 C 106.079 87.012, 98 82.743, 98 76.825 C 98 73.320, 103.982 67.214, 110.131 64.441 L 114.397 62.517 110.449 61.816 C 102.531 60.411, 89.704 60.901, 86 62.752 C 79.549 65.974, 77.526 74.434, 80.346 86.395 C 81.587 91.659, 82.191 92.197, 88.872 93.984 C 95.163 95.667, 98 98.871, 98 104.295 C 98 112.007, 93.547 119.082, 74.609 141.454 C 68.566 148.592, 69.770 148.508, 87.375 140.565 L 93.251 137.914 91.087 141.207 C 77.925 161.233, 80.156 172, 97.466 172 C 106.290 172, 114.002 169.860, 120.251 165.679 C 124.448 162.871, 128 158.076, 128 155.219 C 128 154.681, 125.936 151.599, 123.414 148.370 C 113.250 135.358, 111.648 126.897, 118.501 122.408 C 120.720 120.954, 121.666 120.883, 125.107 121.914 C 137.170 125.528, 145.572 142.541, 147.549 167.357 L 148.254 176.215 152.377 175.579 C 163.495 173.865, 171 169.021, 171 163.559 C 171 162.301, 168.525 156.445, 165.500 150.545 C 157.954 135.826, 158.323 130.996, 167.302 126.976 L 171.340 125.169 167.420 124.209 C 165.264 123.681, 159.225 122.244, 154 121.015 C 137.988 117.251, 133.685 113.753, 139.469 109.203 C 141.941 107.259, 154.273 103.768, 163.310 102.454 C 166.866 101.937, 167.979 101.388, 167.579 100.345 C 167.282 99.570, 166.307 96.138, 165.413 92.718 C 163.817 86.608, 163.893 74.830, 165.620 60.741 C 166.191 56.081, 166.133 55.954, 162.851 54.618 C 161.008 53.868, 157.888 52.965, 155.917 52.613 C 152.789 52.053, 152.194 52.278, 151.235 54.383 M 137.250 56.740 C 128.615 59.419, 126.753 61.004, 132.250 60.994 C 137.243 60.986, 142.709 59.160, 145.748 56.485 C 149.233 53.418, 147.820 53.461, 137.250 56.740 M 112.088 66.500 C 103.714 71.013, 101 73.639, 101 77.231 C 101 79.702, 101.676 80.417, 105.750 82.249 C 111.865 84.999, 122.961 85.198, 127.793 82.645 C 132.875 79.959, 133.541 76.861, 130.475 70.164 C 129.064 67.083, 127.368 64.218, 126.705 63.797 C 124.031 62.097, 118.288 63.160, 112.088 66.500 M 45.992 64.583 C 45.988 65.088, 45.324 70.793, 44.517 77.262 C 42.926 90.016, 41.379 116.812, 42.281 115.998 C 43.832 114.599, 47.717 65.504, 46.389 64.083 C 46.175 63.854, 45.996 64.079, 45.992 64.583" stroke="none" fill="black" fill-rule="evenodd"/>
</svg>