<svg xmlns="http://www.w3.org/2000/svg" width="200" height="200" viewBox="0 0 200 200" version="1.1">
	<path d="M 129 17.018 C 126.073 18.944, 109.354 23.827, 99.500 25.635 C 91.390 27.123, 84.491 27.464, 63 27.441 C 47.751 27.425, 32.518 26.886, 27.120 26.170 C 21.960 25.487, 17.620 25.056, 17.473 25.214 C 16.458 26.308, 14.617 70.589, 14.594 94.500 C 14.571 117.430, 14.936 125.886, 16.339 134.902 C 18.078 146.077, 21.779 159.555, 22.821 158.512 C 23.111 158.222, 24.587 154.802, 26.100 150.912 C 31.186 137.841, 35.865 133.459, 42.014 136.006 C 43.672 136.692, 49.324 141.244, 54.576 146.121 C 65.635 156.392, 70.874 159.747, 77.206 160.615 C 82.882 161.393, 87.736 159.848, 93.544 155.415 C 95.995 153.544, 98.016 152.123, 98.036 152.257 C 98.055 152.390, 98.462 156.875, 98.940 162.223 C 100.031 174.423, 102.187 179.372, 106.601 179.802 C 112.045 180.333, 117.764 172.036, 123.850 154.775 C 131.529 132.994, 131.763 112.820, 124.372 109.567 C 117.638 106.603, 117.257 92.584, 123.221 67.234 C 124.420 62.137, 125.853 58.118, 126.404 58.301 C 129.277 59.259, 133.800 87.214, 134.687 109.500 C 135.595 132.308, 131.918 168.679, 127.956 176.083 C 127.308 177.293, 127.397 177.966, 128.241 178.247 C 128.915 178.472, 130.639 176.808, 132.071 174.549 C 137.679 165.707, 145.221 163.738, 163.464 166.357 C 177.467 168.367, 180 167.882, 180 163.192 C 180 159.896, 175.070 151.356, 166.398 139.628 L 159.990 130.962 161.586 123.231 C 162.464 118.979, 165.642 107.850, 168.650 98.500 C 178.655 67.392, 180.020 57.481, 175.838 46.288 C 171.788 35.449, 159.130 25.476, 140.542 18.480 C 133.364 15.778, 131.285 15.514, 129 17.018 M 124.582 21.706 C 115.424 25.543, 98.184 29.015, 81.072 30.469 C 65.522 31.790, 65.544 31.791, 97.500 31.278 L 129.500 30.764 131.337 28.377 C 133.451 25.631, 135.396 26.176, 134.423 29.242 C 133.780 31.270, 133.973 31.301, 143.036 30.658 C 148.135 30.296, 153.701 29.980, 155.404 29.955 C 158.494 29.910, 158.492 29.905, 154 27.491 C 147.686 24.098, 134.414 18.978, 132.282 19.113 C 131.302 19.176, 127.837 20.342, 124.582 21.706 M 19.586 33.142 C 17.199 55.006, 16.369 105.065, 18.071 124.472 C 19.012 135.199, 21.430 149.763, 22.437 150.770 C 22.647 150.980, 24.024 148.469, 25.496 145.189 C 28.303 138.933, 32.968 133.682, 36.723 132.552 C 40.535 131.404, 47.039 135.275, 57.192 144.735 C 62.523 149.702, 68.852 154.718, 71.258 155.883 C 79.703 159.971, 87.245 158.115, 95.593 149.894 L 100.686 144.878 101.337 156.689 C 102.045 169.533, 103.196 175.088, 105.553 177.044 C 109 179.905, 116.434 168.663, 121.782 152.500 C 125.726 140.581, 127.337 130.968, 126.846 122.278 C 126.451 115.285, 126.358 115.075, 121.813 110.827 C 117.950 107.218, 117.062 105.692, 116.459 101.626 C 115.171 92.948, 117.416 77.291, 122.622 58.632 C 123.983 53.754, 124.923 49.590, 124.711 49.378 C 124.499 49.166, 119.925 58.106, 114.547 69.246 C 105.897 87.164, 104.259 91.457, 100.350 106.467 C 96.001 123.163, 93.304 129.986, 91.444 129 C 90.341 128.416, 90.359 98.263, 91.468 89.816 C 92.183 84.364, 92.128 84.154, 90.107 84.682 C 87.341 85.406, 87.459 84.547, 91.018 78.090 C 92.658 75.115, 94 72.110, 94 71.412 C 94 70.714, 94.744 69.399, 95.653 68.490 C 96.562 67.581, 98.957 64.286, 100.976 61.169 C 102.994 58.051, 106.241 53.813, 108.191 51.750 L 111.736 48 105.618 48.035 C 102.212 48.055, 98.392 48.704, 97 49.500 C 93.563 51.465, 91.002 51.343, 88.564 49.101 C 86.999 47.661, 84.605 47.111, 78.666 46.827 L 70.832 46.453 71.568 54.476 C 72.470 64.301, 72.403 116.434, 71.480 123.143 C 71.071 126.117, 70.309 128, 69.513 128 C 67.537 128, 67.002 125.601, 66.984 116.668 C 66.975 112.176, 66.077 98.825, 64.988 87 C 63.900 75.175, 63.007 61.169, 63.005 55.875 L 63 46.250 59.875 45.625 C 58.156 45.281, 54.589 45, 51.948 45 C 44.714 45, 43.470 47.128, 42.685 60.842 C 42.195 69.415, 42.396 72.807, 43.608 76.362 C 45.038 80.559, 44.993 82.369, 43.030 99.705 C 41.859 110.042, 40.474 118.926, 39.951 119.449 C 37.285 122.115, 36.925 117.941, 38.007 96.903 C 38.612 85.132, 38.803 71.604, 38.432 66.841 C 37.916 60.225, 38.134 56.923, 39.359 52.841 C 40.240 49.904, 41.083 46.150, 41.231 44.500 C 41.463 41.914, 41.914 41.489, 44.500 41.420 C 46.150 41.376, 49.300 40.519, 51.500 39.514 C 53.700 38.510, 57.975 37.130, 61 36.447 C 64.808 35.587, 65.616 35.173, 63.628 35.102 C 61.172 35.015, 60.939 34.779, 62.020 33.476 C 62.716 32.638, 63.108 31.812, 62.893 31.641 C 62.677 31.470, 54.289 30.794, 44.252 30.140 C 34.216 29.486, 24.692 28.688, 23.088 28.368 C 20.206 27.791, 20.164 27.849, 19.586 33.142 M 132.087 37.104 C 131.411 39.361, 130.619 41.830, 130.327 42.591 C 129.994 43.457, 131.545 42.995, 134.484 41.353 C 137.061 39.912, 143.070 37.461, 147.835 35.905 L 156.500 33.076 144.908 33.038 L 133.317 33 132.087 37.104 M 79.441 35.532 C 80.509 36.339, 82.115 37, 83.010 37 C 86.524 37, 95.057 40.177, 97.847 42.525 C 100.590 44.833, 101.538 45, 111.878 45 L 122.966 45 125.483 40.033 C 126.867 37.302, 128 34.827, 128 34.533 C 128 34.240, 116.638 34.014, 102.750 34.032 C 80.330 34.060, 77.718 34.228, 79.441 35.532 M 151 37.875 C 144.675 39.942, 138.150 42.373, 136.500 43.277 L 133.500 44.920 140.601 44.960 C 144.506 44.982, 149.121 45.495, 150.857 46.100 C 155.937 47.871, 156.077 50.678, 152.201 73 C 151.102 79.325, 149.898 87.531, 149.524 91.236 C 149.078 95.649, 148.181 98.752, 146.922 100.236 L 145 102.500 143.099 100.262 C 141.953 98.912, 139.716 91.772, 137.460 82.262 C 134.156 68.335, 129.712 53.380, 131.587 62.500 C 136.364 85.739, 138.549 110.619, 137.513 130 C 136.827 142.839, 134.469 163.615, 133.374 166.468 C 132.890 167.730, 133.737 167.552, 137.342 165.635 C 143.864 162.167, 149.842 161.634, 161.926 163.441 C 175.941 165.537, 177 165.494, 177 162.838 C 177 159.986, 173.317 153.720, 164.402 141.402 L 157.094 131.305 158.943 122.402 C 159.960 117.506, 163.502 105.135, 166.814 94.910 C 170.126 84.686, 173.381 73.552, 174.047 70.167 C 175.616 62.192, 174.868 49.543, 172.559 45 C 170.840 41.619, 164.164 33.939, 163.047 34.059 C 162.746 34.091, 157.325 35.809, 151 37.875 M 70.174 40.649 C 70.494 43.443, 70.637 43.506, 77.413 43.799 C 83.662 44.070, 84.199 43.945, 82.996 42.495 C 81.117 40.231, 79.136 39.338, 74.174 38.515 C 69.868 37.802, 69.849 37.812, 70.174 40.649 M 56.500 40.381 L 52.500 41.608 55.875 42.304 C 61.859 43.538, 64 43.195, 64 41 C 64 38.699, 62.409 38.568, 56.500 40.381 M 85.943 41.894 C 87.180 44.204, 90.558 45.382, 94.148 44.755 C 96.325 44.375, 96.240 44.229, 93 42.792 C 91.075 41.938, 88.449 40.918, 87.164 40.525 C 85.041 39.876, 84.930 40, 85.943 41.894 M 66 57.126 C 66 67.692, 68.557 100.371, 69.551 102.500 C 70.231 103.958, 69.117 54.184, 68.370 49.750 C 67.152 42.520, 66 46.104, 66 57.126 M 111.169 52.750 C 108.565 55.362, 104.341 60.875, 101.784 65 L 97.134 72.500 95.120 91 C 94.012 101.175, 92.855 112.875, 92.549 117 C 91.816 126.896, 93.002 124.156, 97.963 104.500 C 101.198 91.684, 103.069 86.766, 110.816 70.721 C 122.060 47.434, 121.868 48, 118.520 48 C 116.731 48, 114.408 49.502, 111.169 52.750 M 129.764 48.569 C 129.451 48.883, 130.677 52.370, 132.490 56.319 C 134.302 60.269, 137.005 68.675, 138.496 75 C 139.986 81.325, 141.803 88.906, 142.533 91.847 C 144.867 101.247, 145.916 100.372, 147.158 87.990 C 147.660 82.986, 149.180 73.006, 150.535 65.812 C 153.454 50.323, 153.388 51.530, 151.429 49.571 C 150.215 48.357, 147.636 48, 140.095 48 C 134.726 48, 130.077 48.256, 129.764 48.569 M 128 54.642 C 128 55.179, 128.700 56.491, 129.555 57.559 C 131.022 59.389, 131.042 59.357, 129.920 57 C 128.462 53.939, 128 53.372, 128 54.642 M 41.232 85 C 41.232 86.925, 41.438 87.713, 41.689 86.750 C 41.941 85.787, 41.941 84.213, 41.689 83.250 C 41.438 82.287, 41.232 83.075, 41.232 85" stroke="none" fill="black" fill-rule="evenodd"/>
</svg>