<svg xmlns="http://www.w3.org/2000/svg" width="200" height="200" viewBox="0 0 200 200" version="1.1">
	<path d="M 116.971 18.912 L 80.442 23.609 66.471 21.763 C 37.694 17.963, 24.279 21.188, 17.653 33.500 C 14.535 39.293, 14.612 57.868, 17.803 70.083 C 19.893 78.083, 19.965 79.342, 18.854 88.583 C 17.128 102.942, 17.143 141.077, 18.878 148 C 25.891 175.981, 45.272 181.853, 99.848 172.533 L 113.500 170.201 118 173.040 C 131.018 181.252, 144.798 185.294, 152.500 183.158 C 161.161 180.757, 167.445 172.398, 170.980 158.577 C 174.353 145.388, 175.219 125.325, 174.019 88.172 C 173.423 69.717, 173.226 52.679, 173.581 50.309 C 174.526 44.004, 172.287 44.695, 167.291 52.250 C 165.018 55.688, 159.336 62.581, 154.665 67.569 L 146.171 76.638 139.696 75.670 L 133.221 74.702 141.111 70.887 C 145.450 68.789, 148.990 66.493, 148.978 65.786 C 148.930 62.989, 145.062 56.301, 141.382 52.650 C 137.011 48.316, 130.081 44.476, 122.142 41.991 L 116.785 40.313 126.142 39.071 C 138.691 37.404, 144.057 36.015, 144.731 34.259 C 145.667 31.820, 142.939 31.037, 133 30.893 C 123.501 30.756, 123.501 30.756, 129.500 29.896 C 141.428 28.188, 150.996 23.788, 157.461 17.041 L 160.374 14 156.937 14.108 C 155.047 14.167, 137.062 16.329, 116.971 18.912 M 122.202 20.994 C 106.088 23.067, 92.669 24.998, 92.381 25.286 C 91.520 26.146, 108.773 27.506, 119.500 27.422 C 130.617 27.336, 137.831 26.044, 144.229 22.994 C 148.741 20.843, 154.193 16.982, 152.500 17.135 C 151.950 17.185, 138.316 18.922, 122.202 20.994 M 32.216 24.818 C 25.756 27.138, 22.329 30.164, 19.806 35.776 C 17.006 42.004, 17.253 55.557, 20.402 68.500 C 22.525 77.224, 22.717 79.457, 21.911 86 C 20.231 99.635, 19.602 135.885, 20.913 143.507 C 24.999 167.253, 37.597 175.301, 67.979 173.573 C 74.865 173.181, 82.525 172.542, 85 172.152 C 89.319 171.473, 89.130 171.397, 80.276 170.278 C 75.203 169.637, 67.447 168.139, 63.041 166.950 C 53.914 164.488, 38.500 157.130, 38.500 155.236 C 38.500 154.273, 43.027 153.893, 57.500 153.641 C 82.275 153.209, 95.322 150.445, 122.411 139.888 C 127.898 137.750, 133.244 136, 134.292 136 C 136.111 136, 136.177 135.209, 135.737 118.750 C 135.309 102.706, 134.029 94, 132.101 94 C 131.658 94, 127.742 97.054, 123.398 100.788 C 119.054 104.521, 112.800 109.750, 109.500 112.407 C 104.022 116.819, 103.445 117.658, 102.868 122.050 C 102.027 128.445, 99.003 132.451, 93.404 134.590 C 89.478 136.089, 88.164 136.164, 84.093 135.120 C 79.660 133.984, 79.001 134.083, 73.926 136.645 C 70.547 138.351, 66.818 139.406, 64.040 139.442 C 60.058 139.494, 59.476 139.206, 58.598 136.753 C 57.873 134.724, 58.050 132.649, 59.279 128.807 C 60.193 125.948, 60.842 123.538, 60.721 123.452 C 60.599 123.366, 57.078 123.744, 52.895 124.293 C 43.407 125.537, 39.747 124.794, 40.185 121.715 C 40.418 120.076, 42.452 118.532, 48 115.782 C 52.125 113.737, 55.950 111.899, 56.500 111.697 C 57.050 111.495, 54.250 107.848, 50.277 103.593 C 40.472 93.090, 36.500 84.996, 36.500 75.522 C 36.500 66.921, 38.510 62.384, 45.238 55.794 C 55.767 45.482, 71.855 40.264, 97 39.007 C 106.075 38.553, 119.125 37.370, 126 36.379 L 138.500 34.576 133 33.779 C 129.975 33.341, 110.119 33.273, 88.876 33.626 C 49.351 34.285, 43 33.989, 43 31.493 C 43 29.797, 47.424 28.533, 59.264 26.845 C 71.220 25.140, 68.382 23.920, 51.164 23.362 C 39.518 22.985, 36.719 23.200, 32.216 24.818 M 63.500 29 L 53.500 30.747 82.500 30.767 L 111.500 30.787 97.500 28.948 C 80.625 26.731, 76.454 26.737, 63.500 29 M 88 44.514 C 72.505 47.224, 62.225 50.188, 58.858 52.914 C 56.587 54.753, 56.572 54.869, 58.330 56.812 C 60.366 59.062, 67.712 62.452, 76.113 65.019 L 81.726 66.734 83.353 63.979 C 85.931 59.616, 91.779 55, 94.730 55 C 96.210 55, 98.556 56.117, 100.019 57.518 L 102.647 60.036 111.073 56.111 C 115.708 53.953, 121.525 51.643, 124 50.979 C 126.475 50.315, 129.175 49.563, 130 49.309 C 134.189 48.016, 114.112 41.943, 106.090 42.076 C 103.566 42.118, 95.425 43.215, 88 44.514 M 51.973 53.653 C 37.645 63.234, 35.060 78.421, 45.212 93.361 L 47.768 97.123 47.287 92.812 C 46.339 84.325, 53.134 80.262, 66.500 81.325 C 80.884 82.468, 93 89.076, 93 95.776 L 93 98.816 97.885 97.254 C 102.604 95.745, 102.791 95.539, 103.385 91.206 C 104.280 84.675, 104.138 77.494, 103.057 74.651 C 102.229 72.472, 101.309 72.085, 95.463 71.459 C 89.731 70.845, 88.148 71.057, 84.022 72.990 L 79.233 75.233 69.866 73.103 C 54.736 69.662, 49.866 67.925, 50.235 66.099 C 50.502 64.781, 51.955 64.523, 58.504 64.632 L 66.450 64.764 61.741 62.371 C 56.539 59.727, 53.617 56.162, 54.584 53.641 C 55.371 51.591, 55.054 51.593, 51.973 53.653 M 123.946 53.863 C 120.892 54.853, 115.120 57.171, 111.119 59.015 L 103.846 62.367 104.512 65.933 C 104.879 67.895, 105.318 69.642, 105.489 69.816 C 105.778 70.111, 128.706 73.999, 130.156 74 C 130.517 74, 130.570 73.072, 130.273 71.937 C 129.976 70.802, 130.954 66.764, 132.445 62.962 C 133.936 59.161, 135.005 55.252, 134.820 54.276 C 134.357 51.837, 130.636 51.696, 123.946 53.863 M 135.679 61.716 C 134.127 66.377, 133.120 70.453, 133.440 70.774 C 133.761 71.094, 136.722 70.067, 140.019 68.491 C 146.593 65.349, 146.754 64.777, 142.874 58.362 C 139.235 52.347, 138.717 52.589, 135.679 61.716 M 168.078 56.104 C 166.746 57.908, 161.977 63.460, 157.480 68.442 L 149.303 77.500 151.246 82 C 154.033 88.454, 157.729 103.480, 158.531 111.614 C 160.997 136.649, 147.541 157.453, 123.361 165.988 L 116.009 168.583 121.476 171.896 C 133.639 179.268, 146.054 182.457, 153.290 180.069 C 160.887 177.562, 166.744 167.475, 169.586 152 C 171.566 141.223, 172.206 114.863, 171.293 81.662 L 170.500 52.824 168.078 56.104 M 88.507 62.124 C 83.424 67.750, 85.404 68.827, 93.433 64.804 C 96.770 63.131, 99.634 61.645, 99.798 61.501 C 99.961 61.356, 99.367 60.510, 98.476 59.619 C 95.730 56.873, 92.523 57.679, 88.507 62.124 M 97.250 65.802 C 92.962 67.862, 93.150 68.709, 98 69.171 C 101.579 69.513, 102 69.319, 102 67.335 C 102 64.291, 101.040 63.981, 97.250 65.802 M 58.083 67.400 C 59.267 68.536, 78.803 72.015, 80.960 71.474 C 84.983 70.464, 81.695 69.375, 70.830 68.119 C 60.555 66.930, 57.409 66.753, 58.083 67.400 M 106.083 83.463 C 106.083 91.318, 106.407 94, 107.354 94 C 108.053 94, 112.647 92.624, 117.562 90.943 C 123.190 89.018, 127.666 88.063, 129.648 88.364 C 132.321 88.769, 133.603 88.119, 138.142 84.054 L 143.487 79.266 140.494 78.654 C 138.847 78.318, 131.875 77.133, 125 76.020 C 118.125 74.908, 111.056 73.756, 109.292 73.461 L 106.083 72.925 106.083 83.463 M 140.266 85.608 C 134.080 91.119, 134.044 91.183, 135.492 93.985 C 137.928 98.694, 139.081 109.714, 138.783 125.418 C 138.589 135.668, 138.135 140.457, 137.334 140.723 C 136.693 140.936, 136.018 140.427, 135.834 139.591 C 135.551 138.305, 134.426 138.468, 128.500 140.652 C 95.166 152.937, 82.967 155.842, 60.500 156.846 L 45.500 157.515 53.745 160.768 C 58.279 162.557, 64.804 164.716, 68.245 165.565 C 76.882 167.698, 98.698 168.530, 107.977 167.080 C 143.673 161.502, 161.038 137.716, 154.512 103.338 C 152.981 95.273, 148.103 79.979, 147.077 80.027 C 146.760 80.043, 143.695 82.554, 140.266 85.608 M 54.465 84.886 C 48.291 87.587, 48.627 93.921, 55.454 103.487 C 58.010 107.069, 60.359 110, 60.674 110 C 62.818 110, 87.864 100.371, 89.355 98.974 C 92.968 95.586, 88.573 90.303, 79 86.526 C 73.967 84.541, 57.735 83.456, 54.465 84.886 M 107.545 97.096 C 97.846 100.217, 89.025 103.573, 87.941 104.554 C 84.738 107.452, 78.998 119.883, 79.015 123.884 C 79.043 130.322, 79.979 130.458, 87.684 125.150 C 99.747 116.840, 99.960 116.648, 99.347 114.614 C 98.872 113.039, 99.171 112.826, 101.158 113.325 C 103.114 113.816, 105.670 112.137, 115.519 103.889 C 131.415 90.579, 131.071 90.934, 127.810 91.204 C 126.362 91.323, 117.243 93.975, 107.545 97.096 M 79.500 106.204 C 69.935 109.539, 46.602 119.179, 44.719 120.573 C 42.614 122.131, 42.915 122.187, 50.565 121.653 C 55.001 121.344, 59.901 120.608, 61.454 120.018 C 63.007 119.427, 64.531 119.198, 64.841 119.508 C 65.151 119.818, 64.570 122.193, 63.550 124.786 C 62.530 127.379, 61.492 131.188, 61.243 133.250 C 60.806 136.870, 60.897 137, 63.873 137 C 65.568 137, 69.441 135.781, 72.479 134.291 C 77.209 131.971, 77.894 131.289, 77.251 129.541 C 75.561 124.948, 76.650 118.407, 80.228 111.669 C 82.176 108.001, 83.484 105.036, 83.135 105.079 C 82.786 105.122, 81.150 105.629, 79.500 106.204 M 91.283 126.022 C 86.764 129.163, 83.352 132.018, 83.700 132.367 C 84.875 133.542, 91.078 133.011, 94.033 131.483 C 97.258 129.815, 100.298 124.872, 99.811 122.088 C 99.554 120.620, 98.070 121.305, 91.283 126.022" stroke="none" fill="black" fill-rule="evenodd"/>
</svg>