<svg xmlns="http://www.w3.org/2000/svg" width="200" height="200" viewBox="0 0 200 200" version="1.1">
	<path d="M 43.407 15.427 C 40.666 17.348, 38.735 22.075, 34.392 37.500 C 28.517 58.371, 24.275 66, 18.545 66 C 14.289 66, 15.534 68.670, 20.133 69.405 C 27.698 70.615, 32.980 78.372, 32.994 88.292 C 33.003 93.926, 30.502 105.011, 25.469 121.656 C 18.411 144.995, 18.365 152.957, 25.297 151.435 C 36.044 149.074, 56.846 137.601, 66.665 128.619 C 77.365 118.830, 79.455 112.255, 73.697 106.497 C 70.746 103.546, 62.352 100, 58.318 100 C 56.704 100, 56.629 96.409, 58.077 88.434 C 61.089 71.844, 71.309 66.047, 97.599 66.016 C 116.946 65.993, 126.003 66.912, 125.985 68.897 C 125.963 71.372, 115.744 74.691, 106 75.389 C 94.564 76.208, 90.232 77.568, 86.188 81.612 C 82.838 84.962, 82.789 85.136, 83.183 92.259 C 83.486 97.729, 84.438 101.457, 87.075 107.500 L 90.565 115.500 100.997 115.202 C 106.734 115.039, 111.220 115.096, 110.964 115.331 C 110.709 115.565, 104.200 117.638, 96.500 119.936 C 88.800 122.235, 81.884 124.722, 81.132 125.462 C 79.319 127.246, 80.522 129, 83.559 129 C 86.623 129, 86.610 129.487, 83.445 133.248 C 82.039 134.919, 79.829 138.378, 78.533 140.935 C 75.955 146.023, 72.538 156.872, 73.280 157.614 C 73.536 157.870, 75.895 156.936, 78.522 155.539 C 81.758 153.819, 84.873 153, 88.181 153 C 97.320 153, 102.419 156.545, 114.794 171.500 C 118.890 176.450, 123.425 181.285, 124.871 182.243 C 130.959 186.280, 136.176 183.450, 141.106 173.436 C 144.277 166.995, 144.378 166.906, 154.900 161.302 C 171.937 152.226, 176.181 149.281, 175.816 146.788 C 175.366 143.720, 172.119 143.113, 152.048 142.341 C 135.314 141.698, 134.738 141.608, 138.048 140.152 C 159.233 130.833, 172 123.301, 172 120.122 C 172 118, 167.329 116.087, 157.057 114.003 C 143.007 111.151, 141.496 110.070, 151.500 110.025 C 161.729 109.979, 166.610 108.590, 170.613 104.587 C 176.874 98.326, 175.524 86.310, 167.093 73.266 C 164.929 69.916, 163.422 66.911, 163.745 66.588 C 164.069 66.265, 165.623 66, 167.199 66 C 171.926 66, 176.856 63.423, 177.569 60.579 C 178.466 57.006, 176.035 52.921, 165.799 40.802 C 161.013 35.136, 156.288 29.470, 155.299 28.210 C 153.672 26.139, 153.182 26.032, 150.172 27.085 C 145.244 28.810, 139.046 27.548, 129.930 22.965 C 120.431 18.189, 116.673 17.994, 116.184 22.250 C 116.010 23.762, 115.785 24.993, 115.684 24.985 C 115.583 24.977, 113.700 24.321, 111.500 23.529 C 106.276 21.647, 98.633 21.621, 95.051 23.474 C 92.245 24.925, 85 32.615, 85 34.143 C 85 34.573, 87.689 36.752, 90.976 38.984 C 100.750 45.621, 101.718 49.857, 94.250 53.306 C 90.121 55.213, 87.777 55.500, 76.334 55.500 C 64.101 55.500, 62.943 55.334, 60.005 53.162 C 56.685 50.707, 55.338 50.833, 56.362 53.502 C 57.600 56.727, 63.963 58.367, 75.500 58.435 C 92.732 58.537, 102 55.029, 102 48.405 C 102 45.710, 94.990 37.666, 90.533 35.246 C 88.819 34.315, 88.728 33.877, 89.823 31.831 C 90.513 30.541, 92.551 28.476, 94.351 27.242 C 98.316 24.526, 106.025 24.226, 111.862 26.561 C 115.568 28.044, 115.823 28.433, 116.943 34.311 C 117.591 37.715, 119.444 45.330, 121.061 51.234 C 122.677 57.137, 124 62.441, 124 63.021 C 124 63.744, 118.741 63.865, 107.250 63.408 C 82.133 62.408, 70.957 64.756, 62.744 72.759 C 57.632 77.739, 55 85.134, 55 94.518 C 55 101.826, 55.050 101.973, 57.750 102.564 C 78.008 107.002, 79.234 115.063, 61.804 129.222 C 58.671 131.767, 52.833 135.762, 48.830 138.099 C 41.594 142.325, 26.638 148.947, 24.250 148.982 C 21.967 149.015, 22.896 140.528, 26.509 128.338 C 33.447 104.928, 35.251 96.759, 35.303 88.500 C 35.363 79.098, 33.001 73.330, 27.657 69.827 L 24.360 67.666 27.685 62.725 C 30.719 58.217, 33.548 50.269, 39.912 28.370 C 42.241 20.358, 44.726 16.574, 47.068 17.473 C 49.013 18.219, 54.219 26.761, 57.141 34 C 59.854 40.721, 59.778 40.622, 61.149 39.251 C 62.739 37.661, 54.029 20.043, 49.959 16.619 C 46.343 13.577, 46.110 13.534, 43.407 15.427 M 118.363 23.690 C 117.818 25.861, 118.152 26.666, 120.094 27.859 C 121.417 28.672, 126.544 33.424, 131.487 38.419 C 136.430 43.413, 142.461 48.771, 144.890 50.325 C 147.318 51.878, 151.912 55.636, 155.099 58.676 L 160.893 64.202 166.197 63.486 C 178.747 61.791, 178.278 59.730, 160.561 38.771 L 152.622 29.379 149.021 30.340 C 143.973 31.687, 139.666 30.638, 129.069 25.480 C 124.006 23.016, 119.678 21, 119.451 21 C 119.224 21, 118.734 22.211, 118.363 23.690 M 119.573 33.750 C 119.909 35.263, 121.718 42.465, 123.592 49.755 C 125.467 57.045, 127 63.233, 127 63.505 C 127 63.777, 133.619 64, 141.708 64 L 156.416 64 152.216 59.720 C 146.785 54.186, 142 51.230, 142 53.408 C 142 56.400, 138.593 57.043, 134.217 54.877 C 128.611 52.104, 127.512 50.631, 129.537 48.606 C 130.420 47.723, 132.011 47, 133.071 47 C 134.132 47, 135 46.528, 135 45.952 C 135 44.640, 121.254 31, 119.932 31 C 119.392 31, 119.233 32.220, 119.573 33.750 M 133.051 49.969 C 132.305 50.429, 133.074 51.271, 135.168 52.285 C 138.836 54.061, 139.314 53.982, 138.454 51.742 C 137.759 49.929, 134.725 48.934, 133.051 49.969 M 128.638 68.500 C 129.048 69.569, 130.837 70.031, 134.857 70.108 C 142.541 70.255, 153.270 72.252, 153.714 73.617 C 154.160 74.985, 151.026 75.650, 139.883 76.554 L 131.309 77.250 134.135 86.264 C 136.842 94.897, 136.893 95.423, 135.346 98.683 C 132.500 104.681, 126.080 106.566, 120.366 103.081 C 112.250 98.132, 108.214 87.405, 111.527 79.589 C 112.299 77.770, 111.945 77.708, 104.221 78.303 C 85.417 79.754, 81.671 86.254, 88.941 104.821 L 92.200 113.142 105.322 112.821 C 117.028 112.535, 118.480 112.683, 118.786 114.201 C 119.132 115.921, 115.678 117.195, 92.250 123.984 C 88.263 125.139, 85 126.345, 85 126.663 C 85 126.980, 90.536 126.921, 97.302 126.531 L 109.604 125.821 113.735 134.893 C 116.307 140.537, 117.477 144.205, 116.834 144.602 C 116.266 144.954, 113.259 142.759, 110.151 139.726 C 107.043 136.693, 103.060 133.489, 101.300 132.606 C 96.399 130.147, 90.712 130.530, 87.109 133.562 C 84.316 135.912, 79.032 145.363, 77.511 150.727 C 76.885 152.934, 76.917 152.941, 81.066 151.477 C 89.588 148.470, 97.760 150.338, 105.390 157.037 C 107.457 158.853, 112.732 164.720, 117.111 170.076 C 125.226 180, 126.445 181, 130.427 181 C 133.328 181, 135.494 178.558, 139.376 170.910 C 142.497 164.763, 142.514 164.749, 155.500 157.803 C 162.650 153.978, 169.561 150.166, 170.857 149.331 C 175.504 146.339, 171.838 145.627, 148.834 145.053 C 134.167 144.687, 126.540 144.131, 126.301 143.409 C 126.102 142.809, 132.815 139.312, 141.220 135.637 C 157.849 128.367, 169.841 121.441, 168.361 119.961 C 167.858 119.458, 163.091 118.150, 157.767 117.055 C 145.749 114.582, 141.634 112.897, 139.442 109.552 C 138.500 108.114, 137.903 106.766, 138.115 106.555 C 138.327 106.345, 141.668 106.522, 145.540 106.948 C 162.451 108.808, 171.940 104.243, 171.985 94.225 C 172.008 89.239, 168.460 80.205, 163.749 73.250 L 159.516 67 143.789 67 C 130.221 67, 128.142 67.206, 128.638 68.500 M 132.768 73.725 C 134.565 73.947, 137.265 73.943, 138.768 73.715 C 140.271 73.486, 138.800 73.304, 135.500 73.310 C 132.200 73.315, 130.971 73.502, 132.768 73.725 M 116.400 77.765 C 112.691 80.242, 112.030 87.178, 114.956 92.914 C 119.651 102.117, 128.438 104.876, 132.240 98.341 C 134.056 95.220, 134.045 95.074, 131.310 86.091 L 128.543 77 123.021 77.015 C 119.985 77.024, 117.005 77.361, 116.400 77.765 M 104 131.113 C 105.925 132.271, 108.333 133.955, 109.352 134.856 C 111.151 136.448, 111.153 136.389, 109.416 132.747 C 107.845 129.451, 107.200 129, 104.065 129.004 L 100.500 129.007 104 131.113" stroke="none" fill="black" fill-rule="evenodd"/>
</svg>