<svg xmlns="http://www.w3.org/2000/svg" width="200" height="200" viewBox="0 0 200 200" version="1.1">
	<path d="M 103 25 C 101.900 26.100, 101 27.579, 101 28.287 C 101 29.294, 99.207 29.406, 92.750 28.803 C 88.213 28.380, 82.925 28.264, 81 28.546 C 79.075 28.828, 73 28.364, 67.500 27.515 C 62 26.666, 51.169 25.686, 43.431 25.338 L 29.363 24.704 26.759 32.602 C 18.563 57.467, 16.228 91.376, 21.585 107.746 C 23.742 114.338, 28.939 120.495, 33.662 122.053 C 38.484 123.645, 47.381 122.752, 53.674 120.045 C 58.474 117.980, 59.405 117.918, 71.292 118.868 C 90.230 120.381, 98.638 118.703, 101.028 112.931 C 102.322 109.810, 101.684 106.862, 97.692 97.500 C 93.677 88.086, 92.884 84.227, 94.058 79.823 C 95.061 76.059, 99.980 71, 102.636 71 C 104.695 71, 121.159 85.022, 120.705 86.389 C 120.501 87, 119.117 87.725, 117.629 88 L 114.923 88.500 114.711 98.500 C 114.527 107.213, 114.134 109.244, 111.660 114.283 C 103.759 130.373, 84.475 140.228, 48.525 146.544 C 40.839 147.895, 34.389 149, 34.192 149 C 33.995 149, 33.985 149.455, 34.170 150.011 C 34.367 150.600, 40.547 151.214, 49.004 151.485 C 68.968 152.123, 79.790 155.109, 80.805 160.259 C 81.771 165.164, 68.504 173.194, 52.896 177.151 C 45.442 179.041, 42.874 179.205, 30 178.615 C 22.025 178.249, 14.648 177.848, 13.608 177.725 C 12.567 177.601, 11.531 178.021, 11.305 178.658 C 10.226 181.704, 20.405 182.212, 91.500 182.659 L 162.500 183.106 170 179.303 C 175.512 176.508, 177.583 174.913, 177.815 173.285 C 178.288 169.961, 175.100 169.616, 157.255 171.060 C 137.625 172.649, 118.390 172.709, 114.750 171.194 C 109.732 169.106, 111.698 164.889, 121.152 157.461 C 126.732 153.078, 128.221 152.464, 139.364 149.952 C 157.432 145.879, 160 145.077, 160 143.507 C 160 141.809, 157.093 141.296, 142.897 140.489 C 118.761 139.116, 108.338 134.327, 112.155 126.363 L 113.527 123.500 133.514 123.443 C 161.609 123.363, 167.642 121.355, 168.728 111.724 C 169.130 108.157, 166.774 92.314, 164.368 82.401 C 163.976 80.786, 164.537 80.020, 166.798 79.084 C 168.415 78.414, 171.124 76.434, 172.818 74.683 C 185.666 61.408, 177.987 37.528, 157.637 27.470 C 148.448 22.929, 139.646 21.988, 128.841 24.392 C 122.100 25.892, 120.980 25.904, 117.070 24.525 C 110.962 22.370, 105.444 22.556, 103 25 M 104.667 26.667 C 103.008 28.326, 104.309 29.962, 107.750 30.542 C 113.831 31.568, 115 32.056, 115 33.567 C 115 34.514, 113.897 35.005, 111.750 35.015 C 106 35.042, 105.232 36.239, 107.701 41.322 C 108.884 43.756, 111.928 48.987, 114.465 52.946 L 119.079 60.144 128.290 50.560 C 135.543 43.013, 138.080 40.979, 140.231 40.988 C 142.299 40.997, 143.113 41.602, 143.584 43.480 C 144.426 46.835, 141.062 57.491, 135.667 68.562 L 131.250 77.623 135.185 83.062 C 142.424 93.068, 144.352 96.871, 143.006 98.493 C 141.496 100.312, 139.146 99.216, 130.307 92.572 L 124.198 87.979 121.105 89.740 C 118.192 91.398, 118.012 91.847, 117.994 97.500 C 117.921 121.608, 101.342 136.925, 65.574 145.929 L 54.648 148.680 61.693 149.335 C 84.345 151.440, 90.205 161.496, 74.598 171.480 C 71.614 173.389, 65.994 176.021, 62.108 177.330 L 55.044 179.709 64.520 180.274 C 69.733 180.585, 93.910 180.589, 118.248 180.282 L 162.500 179.724 168.962 176.612 L 175.425 173.500 170.995 173.182 C 168.559 173.007, 161.298 173.344, 154.861 173.932 C 137.256 175.538, 118.710 175.323, 114.253 173.461 C 107.335 170.571, 107.305 167.673, 114.118 160.469 C 121.960 152.177, 126.803 149.637, 140 146.898 L 151.500 144.511 145 143.751 C 124.970 141.406, 121.059 140.691, 116.219 138.487 C 110.099 135.700, 107.657 131.682, 109.077 126.733 C 110.645 121.265, 110.509 121.298, 133.764 120.721 C 145.719 120.424, 157.174 119.673, 159.221 119.052 C 166.734 116.771, 167.464 112.135, 163.480 92 C 162.120 85.125, 161.006 79.211, 161.004 78.858 C 161.002 78.506, 162.117 77.937, 163.482 77.594 C 166.749 76.774, 172.688 71.495, 174.724 67.602 C 177.076 63.104, 176.840 53.604, 174.230 47.749 C 171.071 40.665, 163.080 32.760, 155.722 29.443 C 147.785 25.864, 136.022 24.980, 127.871 27.349 C 123.023 28.758, 121.890 28.771, 117.554 27.466 C 112.467 25.935, 105.811 25.522, 104.667 26.667 M 28.599 36.100 C 23.053 54.317, 19.929 82.381, 21.894 96.311 C 23.906 110.561, 29.062 118.662, 36.782 119.698 L 40.786 120.235 42.549 112.867 C 44.018 106.726, 44.250 102.004, 43.946 84.500 C 43.318 48.436, 43.432 44.832, 45.314 41.280 C 47.293 37.545, 49.728 36.005, 53.684 35.987 C 55.233 35.980, 59.045 34.684, 62.155 33.106 L 67.810 30.238 63.655 29.611 C 61.370 29.267, 53.123 28.696, 45.328 28.343 L 31.156 27.701 28.599 36.100 M 90.500 32.446 C 93.933 34.121, 101 34.494, 101 33 C 101 32.450, 99.763 31.995, 98.250 31.989 C 96.737 31.983, 93.700 31.754, 91.500 31.480 L 87.500 30.982 90.500 32.446 M 70 32.696 C 69.175 32.992, 66.475 34.125, 64 35.213 C 60.089 36.933, 59.764 37.295, 61.519 37.978 C 62.630 38.411, 66.904 38.175, 71.019 37.453 C 75.134 36.731, 80.750 35.821, 83.500 35.429 L 88.500 34.718 83.500 33.378 C 78.409 32.014, 72.704 31.726, 70 32.696 M 100.500 37 C 100.840 37.550, 101.541 38, 102.059 38 C 102.577 38, 103 37.550, 103 37 C 103 36.450, 102.298 36, 101.441 36 C 100.584 36, 100.160 36.450, 100.500 37 M 79.676 38.743 C 73.723 39.573, 69.223 40.553, 69.676 40.922 C 70.129 41.291, 73.875 42.424, 78 43.441 C 88.443 46.014, 93.177 48.233, 96.403 52.067 C 98.582 54.657, 99.048 56.008, 98.576 58.368 L 97.976 61.371 100.583 58.936 C 106.856 53.076, 107.653 46.957, 102.750 42.316 C 96.520 36.419, 96.433 36.406, 79.676 38.743 M 48.621 41.250 C 46.137 45.172, 45.800 49.639, 46.548 68.695 L 47.277 87.285 49.389 83.793 C 55.025 74.469, 57.215 75.275, 52.296 84.862 C 48.373 92.508, 48.466 94.953, 52.791 97.777 C 55.035 99.242, 57.646 99.465, 70.215 99.267 C 91.974 98.923, 90.706 100.574, 59.270 113.515 C 51.443 116.736, 45.212 119.545, 45.423 119.757 C 45.634 119.968, 48.766 118.957, 52.383 117.510 C 58.920 114.895, 59.030 114.886, 71.110 116.051 C 88.623 117.740, 97.408 116.205, 98.655 111.237 C 99.060 109.624, 97.885 105.369, 95.131 98.479 C 89.144 83.497, 89.811 75.446, 97.452 70.439 C 98.854 69.521, 100 68.358, 100 67.854 C 100 65.396, 96.409 66.194, 90.404 69.986 C 85.694 72.961, 83.464 73.864, 82.704 73.104 C 82.115 72.515, 81.828 71.885, 82.067 71.705 C 82.305 71.524, 84.862 69.678, 87.750 67.603 C 90.638 65.528, 93 63.417, 93 62.913 C 93 61.681, 76.103 49.268, 68.043 44.577 C 59.525 39.621, 57.258 39.523, 54.588 44 C 52.800 46.997, 52.537 48.866, 52.755 57 C 52.895 62.225, 53.120 68.075, 53.255 70 C 53.421 72.367, 53.070 73.500, 52.171 73.500 C 51.269 73.500, 50.634 71.414, 50.193 67 C 49.006 55.116, 49.519 47.845, 51.868 43.250 C 54.010 39.061, 54.012 39, 52.043 39 C 50.945 39, 49.405 40.013, 48.621 41.250 M 135.693 46.929 C 133.050 49.366, 128.632 53.962, 125.876 57.144 L 120.864 62.928 124.682 68.426 C 126.782 71.450, 128.831 73.941, 129.236 73.962 C 131.418 74.075, 141.419 48.997, 140.836 44.874 C 140.513 42.592, 140.314 42.672, 135.693 46.929 M 81.500 50.026 C 84.800 52.355, 89.140 55.551, 91.144 57.130 C 93.148 58.708, 95.061 60, 95.394 60 C 96.336 60, 96.107 56.069, 95.050 54.093 C 93.992 52.116, 84.406 47.578, 79 46.495 C 75.660 45.826, 75.774 45.987, 81.500 50.026 M 107.755 53.387 C 106.869 55.246, 104.699 58.412, 102.934 60.422 C 99.847 63.938, 99.797 64.133, 101.612 65.511 C 102.650 66.299, 104.175 66.688, 105 66.375 C 105.825 66.062, 108.750 65.128, 111.500 64.300 C 114.250 63.472, 116.635 62.669, 116.799 62.515 C 116.963 62.361, 115.358 59.484, 113.232 56.122 L 109.367 50.008 107.755 53.387 M 113.724 66.549 C 105.283 68.771, 105.315 68.523, 112.685 74.669 C 116.433 77.795, 120.332 81.058, 121.349 81.920 C 123.062 83.373, 123.370 83.274, 125.521 80.576 L 127.845 77.662 123.927 71.893 C 121.773 68.720, 119.670 65.937, 119.255 65.708 C 118.840 65.479, 116.351 65.857, 113.724 66.549 M 127.615 82.465 C 126.727 83.820, 126 85.155, 126 85.431 C 126 86.264, 139.283 96.050, 139.763 95.571 C 140.156 95.177, 130.143 80, 129.490 80 C 129.347 80, 128.503 81.109, 127.615 82.465 M 47 100.286 C 47 102.127, 46.519 106.234, 45.931 109.414 C 45.343 112.594, 45.064 115.397, 45.309 115.643 C 45.555 115.888, 53.124 113.032, 62.128 109.295 L 78.500 102.500 65.830 102 C 54.661 101.559, 52.796 101.230, 50.080 99.220 L 47 96.940 47 100.286" stroke="none" fill="black" fill-rule="evenodd"/>
</svg>