<svg xmlns="http://www.w3.org/2000/svg" width="200" height="200" viewBox="0 0 200 200" version="1.1">
	<path d="M 55.050 12.701 C 45.935 13.118, 44.269 13.820, 44.215 17.269 C 44.195 18.496, 39.664 29.922, 34.146 42.661 C 23.745 66.668, 19.386 78.959, 20.367 81.514 C 21.323 84.004, 24.044 83.191, 28.002 79.233 L 31.769 75.466 32.261 90.483 C 32.609 101.106, 33.255 106.886, 34.466 110.236 C 36.262 115.203, 40.911 120, 43.929 120 C 49.619 120, 57.340 109.992, 61.288 97.500 C 64.196 88.297, 64.403 69.535, 61.693 60.698 C 59.960 55.045, 59.967 54.645, 61.995 45.198 C 64.975 31.316, 68.082 20.067, 69.112 19.431 C 69.601 19.129, 70.036 19.471, 70.080 20.191 C 70.123 20.911, 70.468 25.212, 70.845 29.750 C 71.540 38.105, 71.178 39.030, 68 37.021 C 65.592 35.499, 65.146 38.235, 65.073 55 C 64.966 79.631, 67.551 96.032, 72.589 102.683 C 74.019 104.571, 74.997 107.216, 74.993 109.183 L 74.986 112.500 54.743 119.299 C 43.609 123.039, 33.086 126.076, 31.357 126.049 C 29.311 126.017, 27.990 126.583, 27.573 127.670 C 26.658 130.055, 28.702 130.921, 32.666 129.827 C 35.149 129.141, 37.509 129.298, 41.292 130.401 C 51.785 133.461, 57.634 138.719, 68.973 155.289 C 71.905 159.573, 75.620 164.186, 77.230 165.540 C 79.172 167.174, 79.710 168.137, 78.828 168.402 C 78.098 168.621, 69.176 170.699, 59.003 173.019 C 35.644 178.345, 28.500 180.801, 28.500 183.508 C 28.500 185.403, 29.120 185.491, 41.224 185.311 C 48.222 185.207, 63.054 183.953, 74.183 182.526 C 90.901 180.381, 94.735 179.588, 96.247 177.965 C 98.948 175.066, 108.482 175.393, 129.723 179.113 C 139.905 180.896, 151.487 182.284, 156.832 182.363 C 165.485 182.490, 166.302 182.330, 168.060 180.166 C 169.821 177.999, 169.848 177.569, 168.438 174.166 C 167.602 172.150, 162.775 166.329, 157.709 161.230 C 149.008 152.471, 148.500 151.727, 148.502 147.730 C 148.504 141.834, 151.300 138.355, 163.341 129.269 C 175.082 120.409, 178.365 117.165, 181.182 111.643 C 183.611 106.883, 183.370 98.573, 180.638 92.887 C 178.998 89.474, 178.573 89.240, 172.926 88.650 C 166.345 87.962, 161.578 85.950, 160.621 83.455 C 158.539 78.030, 161.854 69.167, 171.499 54.370 C 181.244 39.421, 182.800 35.033, 179.066 33.035 C 176.119 31.458, 174.345 31.697, 163.176 35.170 C 153.419 38.205, 152.494 38.320, 146.316 37.261 C 138.216 35.874, 135.456 33.529, 134.512 27.232 C 133.612 21.232, 129.253 16.794, 121.947 14.438 C 117.387 12.968, 112.187 12.652, 90 12.498 C 75.425 12.397, 59.697 12.488, 55.050 12.701 M 75.351 14.734 L 70.202 15.098 71.581 17.861 C 72.339 19.381, 73.260 24.535, 73.627 29.313 L 74.295 38 83.898 37.937 L 93.500 37.875 97.500 31.694 C 100.071 27.722, 102.503 25.167, 104.309 24.543 C 108.229 23.188, 109.229 25.086, 108.540 32.568 L 107.982 38.637 116.032 39.944 C 120.459 40.663, 124.236 41.082, 124.424 40.876 C 124.612 40.669, 126.337 37.350, 128.258 33.500 C 131.956 26.088, 131.965 24.054, 128.318 20.776 C 122.619 15.653, 99.563 13.023, 75.351 14.734 M 54 15.732 L 48.500 16.085 40.162 35.293 C 30.969 56.469, 24.494 72.886, 23.516 77.500 C 22.930 80.268, 23.310 80.036, 28.438 74.500 C 31.495 71.200, 33.997 68.162, 33.998 67.750 C 33.999 67.338, 34.337 67, 34.750 67 C 35.163 67, 35.341 74.158, 35.147 82.907 C 34.788 99.119, 35.632 106.316, 38.639 112.651 C 43.029 121.903, 52.395 114.945, 58.216 98.109 C 61.246 89.343, 61.523 68.431, 58.716 60.390 C 56.954 55.341, 56.963 55.137, 59.501 43.390 C 62.860 27.838, 65.693 18.450, 67.601 16.541 C 69.262 14.880, 68.215 14.818, 54 15.732 M 100.535 31.750 C 98.618 34.362, 97.038 36.837, 97.025 37.250 C 97.011 37.663, 98.748 38, 100.883 38 C 104.065 38, 104.876 37.594, 105.370 35.750 C 106.316 32.219, 106.101 27, 105.010 27 C 104.465 27, 102.451 29.137, 100.535 31.750 M 130.053 36.613 C 128.924 39.166, 128 41.626, 128 42.080 C 128 42.534, 129.580 43.656, 131.512 44.573 C 139.946 48.575, 142.535 56.619, 137.128 62.026 C 133.332 65.822, 129.693 66.684, 126.448 64.558 C 123.660 62.731, 122.026 59.325, 121.952 55.185 C 121.911 52.913, 121.457 53.365, 118.998 58.128 L 116.091 63.756 118.121 67.628 C 119.882 70.986, 120.090 72.827, 119.689 81.500 C 119.435 87, 118.532 93.380, 117.683 95.678 L 116.140 99.856 122.820 100.459 C 142.233 102.210, 151.782 104.868, 154.437 109.259 C 158.775 116.433, 131.794 128.394, 115.148 126.676 C 107.847 125.922, 104.598 123.476, 104.175 118.413 C 103.755 113.374, 102.375 111.828, 98.624 112.199 C 95.156 112.542, 94.262 114.519, 94.100 122.215 C 93.976 128.050, 95.377 128.994, 104.184 129.015 C 111.091 129.032, 112.137 129.429, 113.850 132.684 C 115.279 135.399, 115.292 137.539, 113.917 143.951 C 113.188 147.351, 112.333 149, 111.301 149 C 110.183 149, 109.944 148.389, 110.420 146.750 C 110.779 145.512, 111.336 142.224, 111.657 139.442 C 112.489 132.230, 110.975 130.967, 101.864 131.268 C 95.538 131.477, 94.643 131.264, 92.917 129.139 C 90.845 126.588, 90.494 121.882, 91.919 115.750 C 92.594 112.843, 92.487 112, 91.444 112 C 89.005 112, 79.516 114.199, 78.705 114.952 C 77.683 115.901, 80.478 134.667, 82.683 141.664 C 84.857 148.561, 87.100 150.731, 90.468 149.196 C 93.889 147.638, 94.684 149.506, 91.491 151.598 C 88.430 153.603, 85.038 152.514, 82.559 148.731 C 80.452 145.514, 77.299 132.803, 76.435 124.041 C 76.003 119.654, 75.222 116.638, 74.439 116.338 C 72.982 115.779, 42 126.119, 42 127.164 C 42 127.536, 43.316 128.130, 44.925 128.484 C 52.160 130.073, 61.167 139.011, 72.791 156.135 C 76.245 161.223, 80.879 165.510, 83.995 166.498 C 87.883 167.733, 86.151 169.827, 80.250 171.027 C 66.750 173.770, 45.051 179.044, 39.500 180.931 L 33.500 182.970 44.500 182.557 C 50.550 182.330, 63.600 181.121, 73.500 179.871 C 88.620 177.961, 92.060 177.212, 95 175.190 C 98.252 172.953, 99.139 172.823, 107.500 173.348 C 112.450 173.660, 124.554 175.284, 134.398 176.957 C 170.400 183.078, 173.939 180.687, 155.450 162.739 C 146.244 153.802, 144.285 149.981, 145.943 144.199 C 147.492 138.798, 150.545 135.546, 162.631 126.423 C 176.592 115.884, 180 111.338, 180 103.255 C 180 95.228, 178.129 92.390, 172.286 91.550 C 165.749 90.612, 159.544 87.489, 158.154 84.438 C 155.484 78.578, 157.277 72.530, 165.845 58.500 C 168.868 53.550, 172.839 47.051, 174.670 44.059 C 176.502 41.066, 178 37.804, 178 36.809 C 178 34.087, 173.228 34.488, 162.730 38.093 C 155.489 40.579, 152.818 41.056, 149.111 40.525 C 141.161 39.386, 136.963 37.745, 134.494 34.810 L 132.106 31.972 130.053 36.613 M 68.265 61.750 C 68.784 82.704, 69.989 92.409, 72.641 96.994 C 73.954 99.264, 74.041 98.510, 73.563 89 C 73.273 83.225, 72.738 70.063, 72.376 59.750 C 71.749 41.945, 71.616 41, 69.734 41 C 67.805 41, 67.765 41.556, 68.265 61.750 M 74.757 47.748 C 76.027 81.096, 77.093 101.423, 77.596 101.913 C 78.635 102.924, 85.497 94.425, 88.973 87.821 C 92.171 81.746, 92.200 81.592, 89.724 83.855 C 85.674 87.557, 84.643 85.637, 87.575 79.852 C 89.742 75.576, 89.968 74.347, 89.065 71.756 C 87.330 66.779, 87.790 54.848, 89.987 47.839 C 91.080 44.353, 91.980 41.388, 91.987 41.250 C 91.994 41.112, 88.063 40.999, 83.250 40.998 L 74.500 40.996 74.757 47.748 M 93.598 45.047 C 90.750 52.164, 89.502 70.029, 91.855 69.989 C 92.620 69.976, 97.154 59.600, 101.135 48.750 L 103.979 41 99.598 41 C 95.412 41, 95.145 41.180, 93.598 45.047 M 106.279 42.874 C 104.239 48.759, 98.718 62.578, 96.104 68.342 L 93.001 75.185 98.250 70.448 C 103.513 65.700, 108.386 63.003, 111.718 62.996 C 112.968 62.994, 114.902 60.177, 118.197 53.556 L 122.894 44.120 117.697 43.133 C 107.401 41.178, 106.871 41.166, 106.279 42.874 M 125.625 49.125 C 123.930 57.601, 125.481 63, 129.612 63 C 132.370 63, 138 58.108, 138 55.712 C 138 52.575, 130.671 46, 127.175 46 C 126.666 46, 125.969 47.406, 125.625 49.125 M 104.400 68.871 C 99.023 72.830, 94.660 77.642, 95.385 78.814 C 96.411 80.474, 88.007 95.960, 83.638 100.462 C 81.362 102.807, 78.993 104.900, 78.374 105.113 C 77.728 105.335, 77.442 106.788, 77.703 108.518 L 78.159 111.536 86.016 110.082 L 93.872 108.629 96.557 101.065 C 98.033 96.904, 102.063 87.313, 105.511 79.750 C 110.678 68.419, 111.475 66, 110.040 66 C 109.083 66, 106.545 67.292, 104.400 68.871 M 112.593 70.685 C 109.998 76.068, 100 98.970, 100 99.533 C 100 99.790, 102.909 100, 106.465 100 C 114.091 100, 114.086 100.005, 116.484 88.480 C 118.239 80.048, 117.888 71.597, 115.658 68.547 C 114.572 67.061, 114.223 67.304, 112.593 70.685 M 102.500 105 C 104.526 107.239, 107.982 107.618, 109.800 105.800 C 111.966 103.634, 111.071 103, 105.845 103 C 100.753 103, 100.712 103.025, 102.500 105 M 111.652 106.485 C 108.109 110.856, 104.897 111.051, 100.979 107.133 C 98.766 104.920, 97.985 104.596, 97.556 105.715 C 96.566 108.294, 96.955 109, 99.365 109 C 103.490 109, 106.850 112.543, 107.194 117.255 C 107.577 122.514, 110.034 123.965, 118.590 123.985 C 131.647 124.017, 152 116.331, 152 111.368 C 152 107.750, 140.238 104.452, 124 103.517 L 114.500 102.970 111.652 106.485" stroke="none" fill="black" fill-rule="evenodd"/>
</svg>