<svg xmlns="http://www.w3.org/2000/svg" width="200" height="200" viewBox="0 0 200 200" version="1.1">
	<path d="M 130 17.486 C 126.425 18.200, 119.064 20.255, 113.642 22.054 C 105.156 24.869, 103.348 25.167, 100.642 24.199 C 88.512 19.854, 71.402 18.788, 58.697 21.584 C 43.079 25.022, 23.078 37.788, 19.355 46.694 C 17.714 50.620, 18.202 52.027, 21.943 54.162 C 23.545 55.076, 26.125 57.743, 27.677 60.088 C 30.233 63.948, 30.497 65.163, 30.467 72.926 C 30.448 77.642, 30.047 85.827, 29.575 91.116 C 28.591 102.133, 29.014 104.674, 32.523 108.845 L 35.047 111.845 31.625 118.172 C 26.929 126.854, 24.943 135.768, 24.917 148.286 C 24.886 163.482, 27.647 172.744, 34.294 179.740 C 39.471 185.188, 47.265 185.014, 54.058 179.298 L 57.066 176.767 63.283 179.502 C 67.112 181.187, 71.997 182.421, 76 182.716 C 81.658 183.132, 82.951 182.886, 85.985 180.817 C 93.460 175.719, 96 166.637, 96 145.001 C 96 137.667, 96.204 131.871, 96.453 132.120 C 96.703 132.369, 98.769 139.082, 101.045 147.037 C 106.449 165.923, 110.715 174.625, 117.698 181.007 C 125.755 188.370, 134.326 190.404, 147.098 187.981 C 153.783 186.714, 179.340 174.254, 183.822 170.077 C 190.880 163.500, 186.442 161.087, 165.128 159.912 C 136.756 158.347, 134.852 157.851, 139.321 153.186 C 140.854 151.587, 145.161 148.604, 148.893 146.558 C 167.112 136.572, 171.782 129.480, 163.067 125.034 C 158.194 122.548, 151.045 121.366, 129.880 119.546 C 120.188 118.713, 111.188 117.623, 109.880 117.123 C 107.503 116.217, 107.504 116.214, 110.500 115.388 C 114.842 114.191, 122.058 114.348, 133.947 115.896 C 152.868 118.361, 166.125 115.389, 170.936 107.604 C 174.601 101.673, 174.639 94.712, 171.101 76.777 C 167.065 56.313, 167.103 52.248, 171.432 41.037 C 177.333 25.758, 177.848 22, 174.038 22 C 172.215 22, 165.271 28.934, 158.514 37.500 C 156.344 40.250, 154.496 42.633, 154.406 42.795 C 154.317 42.957, 152.125 42.557, 149.535 41.905 C 145.894 40.988, 141.391 40.994, 129.664 41.933 C 121.324 42.601, 113.375 43.403, 112 43.715 L 109.500 44.282 111.750 41.827 C 117.104 35.984, 112.664 34.934, 97.219 38.391 C 90.774 39.833, 84.375 41.241, 83 41.518 C 81.625 41.796, 83.537 40.603, 87.250 38.869 C 90.963 37.134, 94 35.103, 94 34.357 C 94 32.496, 94.115 32.462, 83.734 37.325 C 66.523 45.388, 68.501 47.775, 88.522 43.104 C 95.920 41.378, 104.116 39.712, 106.736 39.402 L 111.500 38.839 109 40.910 C 107.625 42.049, 105.263 43.545, 103.750 44.235 C 100.332 45.793, 99.973 48.475, 103.295 47.641 C 104.557 47.324, 112.544 46.349, 121.045 45.475 C 137.297 43.802, 150.546 43.814, 150.433 45.500 C 150.322 47.139, 138.108 52.856, 124.881 57.460 C 116.019 60.544, 112.400 62.269, 112.149 63.530 C 111.898 64.788, 112.248 65.119, 113.374 64.687 C 116.341 63.548, 141.280 58.947, 141.779 59.446 C 142.053 59.720, 141.202 60.353, 139.889 60.853 C 130.674 64.361, 114.884 71.379, 114.382 72.191 C 112.921 74.554, 115.940 74.968, 123.393 73.427 C 127.662 72.544, 131.344 72.011, 131.576 72.243 C 131.808 72.474, 126.600 80.052, 120.004 89.082 C 109.725 103.152, 107.546 105.596, 104.762 106.173 C 102.975 106.544, 101.386 106.719, 101.230 106.564 C 101.074 106.408, 103.434 104.403, 106.473 102.108 C 109.513 99.813, 112 97.673, 112 97.354 C 112 97.034, 109.999 93.561, 107.554 89.636 C 105.108 85.711, 101.037 78.129, 98.507 72.787 C 94.207 63.706, 93.680 63.031, 90.418 62.419 C 85.699 61.533, 81.069 62.587, 78.317 65.172 C 76.857 66.543, 74.607 71.844, 72.061 79.907 C 69.874 86.833, 66.725 94.638, 65.064 97.250 L 62.044 102 56.272 102.010 C 50.777 102.019, 43.996 104.417, 38.809 108.187 C 37.423 109.193, 36.744 109.078, 35.054 107.549 C 31.376 104.220, 30.732 99.084, 32.448 86.741 C 34.375 72.881, 34.378 70.636, 32.474 64.225 C 31.005 59.279, 26.576 53.464, 22.636 51.312 C 16.176 47.782, 35.727 31.368, 52.757 26.024 C 67.172 21.501, 82.137 21.527, 97.599 26.101 L 104.698 28.202 112.099 25.529 C 123.796 21.305, 134.825 19.014, 143.500 19.009 C 156.701 19, 162.298 23.429, 156.462 29.265 C 152.112 33.615, 144.941 35.492, 133 35.407 C 127.225 35.365, 119.710 34.647, 116.301 33.811 C 111.284 32.581, 110.007 32.539, 109.604 33.589 C 108.848 35.560, 122.848 38.339, 133.500 38.333 C 148.253 38.323, 159.660 33.476, 161.419 26.469 C 163.582 17.847, 149.029 13.686, 130 17.486 M 166.998 31.744 C 157.851 41.726, 148.449 54.817, 148.812 57.064 C 149.028 58.395, 148.012 59.650, 145.537 61.111 C 143.563 62.275, 141.519 64.030, 140.994 65.011 C 140.149 66.590, 141.443 66.433, 152.270 63.647 L 164.500 60.500 165.094 54.500 C 165.420 51.200, 167.282 44.225, 169.231 39 C 173.435 27.730, 174.298 25, 173.656 25 C 173.393 25, 170.396 28.035, 166.998 31.744 M 140.500 54.614 C 135.939 56.847, 135.796 57.015, 138.875 56.531 C 140.731 56.239, 142.761 56, 143.384 56 C 144.008 56, 145.081 55.100, 145.768 54 C 147.330 51.499, 146.718 51.570, 140.500 54.614 M 157.818 68.916 C 153.721 71.656, 148.261 76.151, 145.685 78.906 C 137.788 87.349, 139.456 90.530, 154.179 95.104 C 169.855 99.974, 167.394 102.575, 141.500 108.505 C 134.900 110.017, 128.853 111.599, 128.063 112.021 C 125.963 113.143, 143.014 114.363, 151.659 113.709 C 165.065 112.696, 170.995 107.237, 170.998 95.910 C 171 91.375, 166.493 65.257, 165.529 64.217 C 165.385 64.061, 161.915 66.175, 157.818 68.916 M 80.211 67.018 C 79.020 68.127, 77.337 71.615, 76.470 74.768 C 73.742 84.697, 70.899 92.325, 67.931 97.682 L 65.059 102.864 68.780 104.069 C 73.527 105.606, 80.457 109.100, 85.233 112.365 L 88.966 114.916 94.194 109.389 C 97.069 106.348, 101.565 102.287, 104.185 100.364 L 108.948 96.868 105.047 90.684 C 102.902 87.283, 99.027 80.112, 96.437 74.750 L 91.728 65 87.053 65 C 83.746 65, 81.743 65.591, 80.211 67.018 M 131 67.570 C 126.423 69.642, 126.087 69.950, 129 69.403 C 134.030 68.458, 137 67.204, 137 66.025 C 137 64.754, 137.515 64.621, 131 67.570 M 146.819 67.693 L 137.138 70.195 123.997 88.192 C 116.770 98.091, 111.001 106.317, 111.178 106.472 C 111.355 106.627, 113.300 107.654, 115.500 108.753 L 119.500 110.751 133.500 107.546 C 150.294 103.700, 160 100.969, 160 100.090 C 160 99.734, 156.952 98.658, 153.226 97.698 C 133.544 92.628, 133.229 83.770, 152.223 69.492 C 155.509 67.021, 157.816 65.043, 157.349 65.096 C 156.882 65.149, 152.143 66.318, 146.819 67.693 M 46.373 106.918 C 39.265 110.146, 39.635 111.710, 47.726 112.634 C 52.290 113.155, 52.674 112.998, 56.453 109.089 L 60.406 105 55.453 105.022 C 52.729 105.034, 48.643 105.887, 46.373 106.918 M 58.617 110.621 C 53.328 116.620, 51.741 117.030, 43.464 114.539 C 37.701 112.805, 36.926 113.239, 33.414 120.170 C 26.121 134.562, 25.265 157.086, 31.493 170.744 C 34.870 178.152, 38.261 181.034, 43.396 180.864 C 45.653 180.789, 46.520 180.537, 45.323 180.304 C 38.913 179.056, 39.013 171.095, 45.723 148.670 C 48.324 139.975, 48.491 139.721, 56.583 132.170 C 65.884 123.489, 74.058 118.184, 80.749 116.485 L 85.313 115.326 79.907 112.233 C 74.477 109.127, 70.703 107.448, 65.930 106.014 C 63.671 105.336, 62.785 105.894, 58.617 110.621 M 100.073 111.635 C 98.933 113.084, 98 114.847, 98 115.553 C 98 116.259, 97.713 117.661, 97.361 118.668 C 97.010 119.676, 98.585 118.056, 100.861 115.069 C 105.544 108.925, 105.510 109, 103.573 109 C 102.787 109, 101.212 110.186, 100.073 111.635 M 107.232 111 C 106.118 112.783, 106.228 112.989, 108.242 112.900 C 109.484 112.845, 111.625 112.483, 113 112.096 C 115.467 111.400, 115.455 111.375, 112.101 110.195 C 110.231 109.538, 108.652 109, 108.591 109 C 108.531 109, 107.919 109.900, 107.232 111 M 93.687 113.805 C 90.591 117.036, 90.469 117.612, 92.454 119.597 C 93.727 120.870, 94.052 120.517, 95.056 116.776 C 95.687 114.424, 96.409 112.162, 96.660 111.750 C 97.621 110.175, 96.269 111.110, 93.687 113.805 M 100.178 120.402 L 97.015 124.806 99.924 134.153 C 101.524 139.294, 104.463 148.706, 106.456 155.069 C 111.960 172.646, 118.431 181.226, 128.899 184.830 C 133.142 186.291, 143.209 186.335, 148.500 184.916 C 154.006 183.440, 177.824 171.692, 181.500 168.640 C 186.348 164.614, 184.169 163.780, 166.283 162.815 C 146.200 161.732, 138.310 160.590, 135.911 158.419 C 134.860 157.468, 134 156.344, 134 155.922 C 134 153.655, 140.160 148.541, 149.346 143.183 C 158.672 137.743, 165 132.393, 165 129.949 C 165 128.540, 159.472 126.038, 154.112 125.021 C 151.425 124.512, 141.188 123.376, 131.363 122.499 C 112.108 120.778, 107.707 119.950, 105.052 117.547 C 103.479 116.124, 103.084 116.355, 100.178 120.402 M 73.070 122.750 C 69.558 124.813, 63.165 129.801, 58.862 133.835 C 51.207 141.013, 50.974 141.375, 47.990 150.689 C 46.313 155.924, 44.428 163.510, 43.800 167.546 C 41.839 180.164, 45.157 180.609, 56.621 169.264 C 66.921 159.071, 93 127.205, 93 124.813 C 93 124.316, 91.895 122.805, 90.545 121.455 C 86.750 117.659, 81.014 118.084, 73.070 122.750 M 82.315 143.776 C 76.714 150.882, 68.726 160.314, 64.565 164.737 C 60.404 169.160, 57 172.992, 57 173.253 C 57 174.776, 70.247 179.442, 75.594 179.802 C 83.897 180.362, 87.036 178.625, 90.056 171.799 C 92.094 167.194, 92.453 164.534, 92.796 151.500 C 93.412 128.159, 94.181 128.726, 82.315 143.776" stroke="none" fill="black" fill-rule="evenodd"/>
</svg>