<svg xmlns="http://www.w3.org/2000/svg" width="200" height="200" viewBox="0 0 200 200" version="1.1">
	<path d="M 95.015 9.250 C 95.040 13.065, 97.889 23.863, 99.923 27.850 C 102.446 32.795, 108.744 38.419, 113.619 40.082 C 118.008 41.578, 131.528 41.873, 143.638 40.736 L 151.776 39.972 152.440 42.616 C 152.938 44.602, 152.530 45.875, 150.802 47.727 L 148.500 50.193 151.831 52.987 C 154.796 55.474, 156.886 60.226, 156.976 64.685 C 156.989 65.337, 152.495 67.346, 146.989 69.151 C 141.483 70.956, 137.144 72.898, 137.346 73.466 C 137.749 74.595, 137.900 74.588, 149.355 72.979 C 153.675 72.372, 157.433 72.099, 157.706 72.373 C 157.979 72.646, 158.528 75.261, 158.926 78.185 L 159.649 83.500 153.642 89.711 C 148.554 94.972, 147.908 96.028, 149.423 96.609 C 150.482 97.015, 153.055 96.400, 155.727 95.102 C 158.210 93.896, 160.351 93.042, 160.484 93.204 C 160.617 93.367, 161.026 96.537, 161.391 100.250 C 161.853 104.938, 161.716 107, 160.943 107 C 160.331 107, 153.456 103.906, 145.665 100.123 C 137.874 96.341, 126.896 91.504, 121.269 89.373 L 111.038 85.500 111.019 73.375 C 111.009 66.706, 110.719 59.844, 110.375 58.125 C 109.806 55.282, 109.979 55, 112.286 55 C 115.343 55, 120.691 49.291, 119.113 47.713 C 118.446 47.046, 117.231 47.761, 115.467 49.856 C 112.403 53.498, 111.023 53.803, 110.290 51 C 110.002 49.900, 109.206 49, 108.520 49 C 107.835 49, 104.988 45.409, 102.195 41.021 C 97.594 33.792, 92.506 29.014, 89.398 29.004 C 87.052 28.996, 81.357 33.767, 78.322 38.282 C 76.574 40.882, 73.677 46.598, 71.884 50.984 C 70.091 55.369, 68.398 58.732, 68.122 58.456 C 67.846 58.180, 66.580 54.349, 65.308 49.944 C 61.975 38.400, 56.662 27.860, 51.159 21.875 C 47.221 17.592, 45.777 16.667, 43.029 16.667 C 36.053 16.667, 33.053 24.921, 32.269 46.274 C 31.793 59.232, 31.528 60.993, 30.113 60.599 C 23.906 58.870, 22.079 58.921, 20.119 60.881 C 17.549 63.451, 17.899 64.633, 26.376 82 C 36.678 103.107, 37.189 111.884, 28.580 119.820 C 24.906 123.206, 15.100 128, 11.847 128 C 10.310 128, 11.731 138.496, 13.959 143.592 C 20.745 159.117, 44.539 154.279, 66.163 132.978 C 73.050 126.193, 74.973 123.663, 75.541 120.635 C 76.604 114.965, 74.613 113.445, 66.458 113.708 L 60 113.916 60 101.274 C 60 87.096, 61.767 78.622, 65.582 74.505 C 68.875 70.953, 71.694 71.353, 76.115 76 C 82.604 82.821, 86.123 99.400, 84.226 114.213 C 83.234 121.961, 84.340 123.406, 88.144 119.330 C 95.119 111.855, 105.741 109.695, 135.756 109.649 C 160.785 109.610, 164.669 110.327, 156.444 113.468 C 149.802 116.005, 142.621 116.676, 134 115.565 C 122.200 114.044, 111.208 114.379, 105 116.446 C 94.138 120.064, 76 130.150, 76 132.572 C 76 134.346, 75.573 134.383, 82.500 132 C 85.697 130.900, 90.268 130, 92.657 130 C 96.428 130, 97 130.282, 97 132.140 C 97 135.961, 92.779 142.885, 80.778 158.753 C 74.300 167.317, 69 175.125, 69 176.103 C 69 180.604, 73.029 179.198, 87.500 169.651 C 97.173 163.270, 97.527 163.127, 98.326 165.277 C 101.957 175.046, 107.478 179.781, 116.296 180.691 C 129.630 182.067, 140.303 173.151, 141.717 159.455 L 142.263 154.166 146.194 160.053 C 151.196 167.544, 158.176 173.701, 163.198 175.053 C 174.607 178.125, 181.770 164.549, 175.626 151.500 C 172.791 145.479, 169.652 142.004, 163.558 138.139 C 159.364 135.479, 159.171 135.187, 161.242 134.632 C 162.484 134.300, 164.400 134.019, 165.500 134.008 C 169.192 133.973, 175.113 131.887, 177.065 129.935 C 178.129 128.871, 179 126.876, 179 125.503 C 179 122.621, 173.482 116.079, 168.403 112.940 C 166.532 111.783, 165 110.495, 165 110.077 C 165 109.659, 166.747 108.793, 168.881 108.154 C 176.877 105.758, 176.762 101.747, 168.449 93.032 C 165.452 89.890, 163 86.798, 163 86.160 C 163 85.523, 164.207 82.839, 165.682 80.197 C 168.855 74.513, 168.405 72.485, 163.514 70.441 C 161.581 69.634, 160 68.614, 160 68.175 C 160 67.735, 161.350 66.378, 163 65.158 C 167.122 62.110, 167.025 58.578, 162.750 56.045 C 157.893 53.166, 157 52.155, 157 49.533 C 157 47.327, 157.747 46.977, 166.750 44.963 C 172.113 43.763, 177.819 42.473, 179.432 42.095 C 182.906 41.281, 183.803 39.547, 181.292 38.496 C 180.307 38.084, 173.650 37.524, 166.500 37.251 L 153.500 36.756 151.185 31.512 C 149.912 28.627, 147.357 24.800, 145.507 23.007 C 140.878 18.520, 136.543 18.520, 126.925 23.007 C 121.688 25.449, 118.066 26.475, 114.636 26.485 C 110.156 26.499, 109.470 26.160, 105.965 22.211 C 103.872 19.852, 101.140 15.464, 99.895 12.461 C 97.589 6.896, 94.988 5.185, 95.015 9.250 M 40.136 20.336 C 36.824 24.327, 34.032 41.769, 34.009 58.616 L 34 64.733 28.472 63.194 C 19.647 60.738, 19.605 61.645, 27.753 78.706 C 36.286 96.570, 37 98.685, 37 106.084 C 37 113.200, 35.809 116.514, 31.689 120.872 C 28.609 124.128, 17.951 129.998, 15.114 129.999 C 13.419 130, 14.156 137.044, 16.418 142.458 C 21.385 154.346, 39.776 151.610, 59.326 136.074 C 67.098 129.898, 73.267 121.854, 72.789 118.519 C 72.553 116.871, 71.765 116.506, 68.500 116.535 C 66.300 116.554, 63.073 116.919, 61.330 117.347 L 58.159 118.124 57.447 112.418 C 56.391 103.967, 57.561 85.249, 59.485 79.814 C 60.398 77.237, 62.162 74.087, 63.406 72.814 C 65.525 70.647, 65.620 69.991, 64.911 62.500 C 62.838 40.620, 46.449 12.729, 40.136 20.336 M 100.473 22 C 102.990 30.996, 110.474 37.310, 120.170 38.619 C 125.898 39.393, 147.135 38.157, 149.084 36.937 C 151.132 35.654, 145.670 25.398, 141.900 23.448 C 137.926 21.393, 136.693 21.575, 127.999 25.500 C 123.735 27.425, 118.882 29.274, 117.213 29.607 C 112.598 30.530, 107.427 28.310, 103.403 23.678 C 100.377 20.194, 99.890 19.915, 100.473 22 M 84.497 35.137 C 80.684 38.485, 74.969 49.436, 70.610 61.750 C 68.292 68.298, 68.210 69, 69.771 69.004 C 72.727 69.010, 77.800 72.741, 80.595 76.965 C 84.837 83.374, 87 92.896, 87 105.158 L 87 115.859 91.517 113.335 C 99.878 108.662, 105.047 107.814, 129.500 107.109 L 152.500 106.446 142.500 101.627 C 132.307 96.715, 113.699 89, 112.046 89 C 111.544 89, 110.990 90.203, 110.816 91.673 C 110.642 93.143, 109.970 94.520, 109.323 94.732 C 108.453 95.017, 108.062 89.699, 107.823 74.309 L 107.500 53.500 101.308 44.347 C 95.327 35.507, 91.920 32, 89.312 32 C 88.629 32, 86.462 33.411, 84.497 35.137 M 155 41.833 C 155 44.699, 155.839 44.937, 160.837 43.493 C 163.402 42.752, 167.525 41.711, 170 41.180 C 174.083 40.304, 173.597 40.204, 164.750 40.107 C 155.923 40.010, 155 40.174, 155 41.833 M 152.500 50 C 152.160 50.550, 152.359 51, 152.941 51 C 153.523 51, 154 50.550, 154 50 C 154 49.450, 153.802 49, 153.559 49 C 153.316 49, 152.840 49.450, 152.500 50 M 158.683 59.250 C 159.787 64.269, 159.915 64.387, 162.100 62.409 L 164.158 60.547 161.968 58.773 C 159.039 56.401, 158.086 56.539, 158.683 59.250 M 161.100 74.750 C 161.155 75.713, 161.509 77.611, 161.888 78.969 L 162.576 81.439 163.884 78.280 C 164.604 76.542, 164.898 74.644, 164.537 74.060 C 163.478 72.347, 160.991 72.846, 161.100 74.750 M 157.405 90.146 C 155.510 92.280, 155.512 92.285, 157.750 91.110 C 158.988 90.461, 160 89.495, 160 88.965 C 160 87.544, 159.521 87.762, 157.405 90.146 M 163.671 96.657 C 164.392 104.482, 164.905 106, 166.828 106 C 167.812 106, 169.434 105.403, 170.431 104.674 C 172.872 102.889, 171.927 100.311, 167.108 95.605 L 163.225 91.813 163.671 96.657 M 157.500 115.887 C 152.528 117.989, 149.872 118.430, 142 118.460 C 136.775 118.480, 128.798 118.096, 124.274 117.607 C 113.990 116.494, 107.269 117.799, 96.433 123.013 L 88.500 126.830 92.679 126.915 C 95.043 126.963, 97.540 127.682, 98.429 128.571 C 102.561 132.704, 98.736 140.068, 79.767 164.500 C 75.496 170, 72.419 174.639, 72.928 174.809 C 73.985 175.162, 78.776 172.292, 91.170 163.883 C 95.938 160.647, 100.043 158, 100.293 158 C 100.542 158, 100.960 160.231, 101.222 162.958 C 102.120 172.304, 108.855 178, 119.008 178 C 130.938 178, 139.026 169.204, 138.979 156.282 C 138.957 150.150, 135.313 138.109, 132.560 135.066 C 131.702 134.118, 131 133.089, 131 132.779 C 131 132.469, 139.438 132.028, 149.750 131.799 C 164.234 131.477, 169.353 131.009, 172.250 129.742 C 177.477 127.456, 177.304 124.456, 171.644 119.240 C 165.034 113.147, 164.360 112.987, 157.500 115.887 M 139.361 142.264 C 149.376 164.240, 162.667 176.725, 170.549 171.560 C 178.472 166.369, 175.426 150.029, 165.117 142.418 C 159.302 138.125, 149.530 135, 141.920 135 L 136.050 135 139.361 142.264" stroke="none" fill="black" fill-rule="evenodd"/>
</svg>