<svg xmlns="http://www.w3.org/2000/svg" width="200" height="200" viewBox="0 0 200 200" version="1.1">
	<path d="M 81.500 19.890 C 74.313 21.983, 68.164 25.040, 61.769 29.697 C 59.167 31.592, 56.684 32.923, 56.251 32.655 C 55.817 32.387, 50.940 31.642, 45.413 31 C 29.791 29.183, 21.927 31.197, 16.562 38.386 C 14.544 41.089, 14.507 42.046, 14.809 82.824 C 14.979 105.746, 15.556 128.325, 16.091 133 C 17.949 149.251, 21.626 157, 27.477 157 C 30.737 157, 37.919 150.483, 43.156 142.770 L 47.049 137.038 51.969 140.573 C 54.675 142.517, 58.500 144.369, 60.469 144.689 C 63.159 145.125, 63.929 145.671, 63.566 146.885 C 63.301 147.773, 62.165 153.071, 61.042 158.657 C 57.577 175.894, 58.603 183.889, 63.915 181.045 C 66.586 179.616, 72.556 170.752, 79.117 158.473 L 84.385 148.613 85.582 155.719 C 88.211 171.316, 99.201 184.040, 112.061 186.374 C 117.291 187.323, 125.554 185.468, 133.500 181.560 C 145.686 175.568, 158.504 162.213, 157.814 156.227 C 157.532 153.780, 157.119 153.511, 153.788 153.611 C 151.428 153.681, 147.784 155.090, 143.788 157.479 L 137.500 161.236 131 160.080 C 123.453 158.738, 115.085 156.201, 113.160 154.670 C 111.426 153.293, 112.752 152.296, 124.262 146.328 C 129.081 143.830, 133.870 140.710, 134.903 139.396 L 136.783 137.006 146.579 141.083 C 158.482 146.037, 166.781 150.172, 173.750 154.623 C 177.801 157.209, 179 158.549, 179 160.488 C 179 162.077, 179.563 163, 180.531 163 C 183.561 163, 183.159 159.819, 179.089 151.564 C 176.004 145.308, 173.427 141.759, 168.979 137.641 C 163.808 132.854, 153.439 126.804, 146.504 124.529 C 144.934 124.014, 146.252 123.054, 152.689 120.029 C 163.228 115.075, 169.268 109.221, 170.912 102.367 C 172.269 96.709, 171.505 93.701, 167.844 90.299 C 164.812 87.481, 157.724 84.349, 151.230 82.956 C 147.617 82.181, 145.659 81.128, 144.478 79.325 C 143.562 77.929, 143.193 76.452, 143.657 76.043 C 144.121 75.635, 153.392 74.027, 164.261 72.471 C 183.197 69.760, 183.995 69.555, 183.388 67.571 C 182.436 64.454, 181.037 63.059, 176.587 60.789 C 171.986 58.442, 162.608 57.960, 147.500 59.295 C 138.596 60.082, 138.525 60.070, 140.847 58.218 C 142.137 57.188, 150.800 52.408, 160.097 47.596 C 174.872 39.948, 179.331 37, 176.125 37 C 175.644 37, 171.932 34.585, 167.875 31.633 C 158.529 24.831, 153.939 22.528, 146.778 21.051 C 137.243 19.083, 126.934 22.563, 117.750 30.849 L 114 34.233 114 27.739 C 114 14.787, 109.218 17.042, 101.282 33.736 L 95.854 45.157 88.177 44.381 C 77.534 43.305, 61.282 43.548, 56.556 44.855 C 54.387 45.455, 52.431 45.765, 52.210 45.543 C 51.491 44.824, 58.059 35.999, 59.298 36.020 C 59.959 36.030, 64.100 36.690, 68.500 37.485 C 90.194 41.404, 96.936 37.021, 90.877 22.935 C 89.709 20.221, 88.472 18.032, 88.127 18.071 C 87.782 18.110, 84.800 18.929, 81.500 19.890 M 81 22.888 C 72.862 25.522, 60.789 32.205, 62.073 33.365 C 62.985 34.188, 75.929 36, 80.898 36 C 87.732 36, 90 34.737, 90 30.933 C 90 28.298, 87.608 20.910, 86.801 21.054 C 86.635 21.083, 84.025 21.909, 81 22.888 M 108.659 25.118 C 106.741 28.048, 98.793 45.152, 99.203 45.467 C 99.576 45.753, 111.048 48, 112.135 48 C 112.576 48, 112.696 47.371, 112.400 46.601 C 111.466 44.165, 113.799 43.857, 117.783 45.889 C 122.510 48.301, 124.571 50.529, 122.981 51.511 C 122.287 51.941, 124.261 54.709, 128.215 58.850 C 131.707 62.508, 135.980 67.251, 137.711 69.392 L 140.858 73.283 160.179 70.357 C 170.806 68.747, 179.454 66.996, 179.398 66.465 C 179.342 65.934, 177.767 64.600, 175.898 63.500 C 172.355 61.415, 172.390 61.416, 140.089 62.320 C 135.958 62.436, 133.537 62.086, 133.284 61.336 C 132.711 59.640, 139.485 55.302, 156.884 46.222 L 172.268 38.193 165.884 33.456 C 155.808 25.979, 149.753 23.521, 141.500 23.555 C 132.321 23.593, 126.819 26.278, 117.210 35.406 C 111.290 41.029, 109.965 41.908, 110.375 39.941 C 111.519 34.450, 111.937 25.411, 111.106 24.118 C 110.401 23.019, 109.899 23.224, 108.659 25.118 M 26.771 34.198 C 21.444 35.613, 17.374 40.643, 16.518 46.868 C 16.137 49.640, 16.202 52.491, 16.663 53.204 C 17.123 53.917, 17.775 73.175, 18.111 96 C 18.746 139.091, 19.355 145.302, 23.574 151.750 C 26.999 156.984, 33.548 152.684, 41.957 139.682 C 44.334 136.007, 46.611 133, 47.017 133 C 47.423 133, 48.347 133.713, 49.070 134.584 C 51.369 137.355, 58.784 142, 60.907 142 C 62.033 142, 63.752 140.780, 64.727 139.288 C 66.345 136.814, 66.500 133.288, 66.500 99.038 C 66.500 64.833, 66.666 61.056, 68.368 56.500 C 69.396 53.750, 71.165 50.190, 72.301 48.590 L 74.364 45.679 67.432 46.261 C 57.285 47.113, 51.107 48.908, 49.412 51.494 C 44.699 58.687, 43.757 81.787, 47.321 102.785 C 50.313 120.416, 49.271 122.147, 42.438 110.898 C 40.029 106.932, 39.098 104.502, 39.741 103.859 C 40.385 103.215, 41.658 104.365, 43.429 107.188 C 44.918 109.560, 45.930 110.808, 45.680 109.961 C 45.430 109.115, 44.686 104.165, 44.026 98.961 C 43.367 93.758, 41.689 86.575, 40.297 83 C 37.531 75.893, 36.335 66.356, 37.460 60.362 C 37.963 57.682, 39.656 55.027, 43.101 51.516 C 47.657 46.874, 55.445 36.112, 54.751 35.418 C 54.585 35.252, 51.536 34.643, 47.975 34.066 C 40.174 32.800, 31.835 32.852, 26.771 34.198 M 76.391 48.423 C 75.232 49.244, 73.226 52.297, 71.934 55.208 C 69.773 60.078, 69.558 62.095, 69.243 80.500 C 69.055 91.500, 69.261 105.185, 69.701 110.910 L 70.500 121.320 74.270 108.410 C 77.315 97.987, 77.924 94.537, 77.432 90.500 C 76.871 85.885, 77.216 84.739, 81.912 75.619 C 86.325 67.050, 86.990 64.993, 86.924 60.119 C 86.811 51.770, 85.017 47.567, 81.417 47.216 C 79.813 47.059, 77.551 47.603, 76.391 48.423 M 88.951 53.458 L 90.500 59.916 92.649 54.208 L 94.798 48.500 92.649 47.850 C 87.381 46.256, 87.265 46.431, 88.951 53.458 M 95.099 55.250 C 93.834 58.688, 90.179 69.136, 86.977 78.468 C 81.403 94.717, 81.216 95.581, 82.578 98.840 C 83.360 100.713, 84.010 103.652, 84.022 105.372 C 84.101 116.560, 97.481 126.670, 108.527 123.889 L 112.965 122.771 110.983 120.251 C 108.303 116.844, 108.488 113.548, 111.492 111.185 C 112.863 110.107, 119.050 107.997, 125.242 106.496 C 141.869 102.466, 146 99.756, 146 92.877 C 146 84.918, 145.326 84.375, 133.821 83.083 C 121.501 81.698, 117.785 80.855, 117.277 79.330 C 116.817 77.952, 121.189 76.472, 130.250 74.937 C 133.963 74.309, 137 73.472, 137 73.077 C 137 72.115, 120.068 53.756, 118.072 52.553 C 116.139 51.387, 104.608 49.087, 100.449 49.037 C 97.610 49.003, 97.240 49.433, 95.099 55.250 M 41.832 56.750 C 39.953 59.772, 39.529 61.762, 39.649 67 C 39.731 70.575, 40.222 74.596, 40.740 75.936 C 41.503 77.909, 41.809 76.839, 42.355 70.298 C 42.725 65.858, 43.653 60.149, 44.416 57.612 C 46.096 52.031, 44.994 51.663, 41.832 56.750 M 132 77.517 C 124.829 78.787, 125.664 79.369, 136.329 80.529 C 141.957 81.142, 142.121 81.094, 141.074 79.138 C 139.546 76.284, 139.254 76.232, 132 77.517 M 81.625 81.979 C 80.731 84.213, 80.033 86.819, 80.073 87.770 C 80.113 88.722, 81.012 87.061, 82.070 84.080 C 84.332 77.708, 83.986 76.077, 81.625 81.979 M 148.638 90.808 C 149.216 96.342, 149.081 96.838, 146.064 100.275 C 142.478 104.358, 136.654 106.839, 124.500 109.459 C 115.382 111.425, 112 113.195, 112 116 C 112 119.580, 116.488 121.367, 126.376 121.725 C 131.394 121.906, 136.049 122.248, 136.719 122.484 C 139.643 123.514, 156.219 116.211, 162 111.347 C 165.477 108.421, 168.941 101.957, 168.978 98.327 C 169.028 93.403, 161.600 88.223, 150.764 85.625 L 148.027 84.969 148.638 90.808 M 74.177 118.750 C 67.264 142.756, 64.203 155.321, 62.494 166.708 C 60.660 178.921, 61.538 180.993, 65.967 174.909 C 69.776 169.675, 75.881 159.371, 79.087 152.765 C 81.321 148.160, 81.337 147.929, 79.659 144.411 C 76.933 138.694, 76.432 132.516, 78.445 129.443 C 80.369 126.507, 85.540 124.006, 89.718 123.989 L 92.500 123.978 89.222 121.395 C 85.060 118.115, 82.053 112.240, 81.305 105.932 C 80.984 103.219, 80.399 101, 80.005 101 C 79.610 101, 76.988 108.987, 74.177 118.750 M 115.762 125.707 C 117.006 125.946, 118.806 125.937, 119.762 125.687 C 120.718 125.437, 119.700 125.241, 117.500 125.252 C 115.300 125.263, 114.518 125.468, 115.762 125.707 M 133.358 126.765 C 132.587 127.262, 133.235 128.675, 135.358 131.125 C 137.606 133.717, 141.062 135.802, 147.500 138.448 C 152.450 140.482, 161.116 144.577, 166.757 147.548 L 177.015 152.949 175.048 149.094 C 172.531 144.161, 165.107 136.733, 159.281 133.319 C 149.722 127.717, 136.912 124.478, 133.358 126.765 M 85 127.709 C 79.728 129.648, 78.569 135.253, 81.918 142.627 C 84.189 147.629, 85.996 149.034, 86.009 145.809 C 86.025 142.079, 91.722 133.214, 96.178 129.986 L 100.300 127 93.400 127.079 C 89.605 127.122, 85.825 127.406, 85 127.709 M 99.390 131.250 C 87.983 138.915, 84.929 152.159, 91.479 165.547 C 97.570 177.997, 105.224 183.466, 116.500 183.428 C 122.511 183.407, 124.597 182.875, 131.257 179.661 C 140.095 175.396, 150.998 165.884, 154.167 159.673 L 156.187 155.713 152.977 156.355 C 151.212 156.708, 147.097 158.619, 143.832 160.602 L 137.897 164.207 131.199 162.968 C 121.716 161.213, 112.453 158.250, 111.008 156.510 C 108.255 153.193, 110.617 150.458, 120.911 145.047 C 126.379 142.172, 131.589 139.007, 132.489 138.013 C 134.041 136.297, 133.728 136.076, 126.312 133.650 C 118.303 131.031, 106.989 128, 105.219 128 C 104.673 128, 102.050 129.463, 99.390 131.250 M 121 128.732 C 127.273 131.134, 133 132.771, 133 132.162 C 133 130.557, 126.965 128.005, 123.346 128.079 C 121.231 128.122, 120.175 128.416, 121 128.732" stroke="none" fill="black" fill-rule="evenodd"/>
</svg>