<svg xmlns="http://www.w3.org/2000/svg" width="200" height="200" viewBox="0 0 200 200" version="1.1">
	<path d="M 47.739 16.766 C 37.450 22.449, 32.585 27.066, 28.815 34.725 C 25.825 40.797, 25.505 42.295, 25.553 49.979 C 25.583 54.666, 26.572 63.900, 27.751 70.500 C 30.891 88.068, 31.264 92.776, 30.089 99.997 C 28.597 109.165, 23.774 118.307, 16.493 125.770 L 10.339 132.077 14.420 135.097 C 16.664 136.759, 22.268 139.993, 26.873 142.283 C 33.601 145.631, 36.557 146.523, 41.925 146.826 C 48.067 147.173, 48.874 146.977, 51.955 144.385 C 58.725 138.688, 59.359 135.661, 60.102 105.500 C 60.468 90.650, 61.084 77.535, 61.472 76.356 L 62.178 74.212 68.337 76.715 C 88.963 85.096, 98.412 93.141, 96.545 100.731 C 96.161 102.295, 92.626 106.636, 88.424 110.705 C 84.332 114.668, 80.549 119.056, 80.017 120.455 C 78.571 124.258, 80.325 127.616, 85.458 130.871 L 89.960 133.726 85.050 136.778 C 75.431 142.758, 71.616 152.986, 76.057 160.888 C 80.647 169.055, 91.816 173.860, 108.265 174.744 L 118.029 175.269 114.552 167.884 C 107.080 152.017, 107.409 147.166, 115.828 149.068 C 121.134 150.266, 126.272 152.823, 145.355 163.759 C 161.615 173.077, 169.188 176.392, 172.102 175.467 C 175.082 174.522, 174.452 169.488, 170.441 162.192 L 166.882 155.717 171.343 146.990 C 178.221 133.534, 179.673 122.070, 175.518 114.034 C 173.146 109.447, 166.644 105.227, 159.909 103.902 L 154.039 102.747 158.415 99.849 C 167.434 93.874, 173.938 80.298, 176.069 62.993 C 177.849 48.546, 175.987 27.955, 172.386 22.263 C 169.068 17.017, 156.012 13.521, 148.724 15.926 C 144.131 17.442, 137.465 24.700, 134.492 31.423 C 132.173 36.666, 132.120 36.707, 126.828 37.348 C 107.419 39.700, 94 38.963, 94 35.546 C 94 33.722, 102.051 26.708, 109.238 22.272 C 114.255 19.176, 116.744 16, 114.155 16 C 111.231 16, 98.313 26.411, 84.903 39.575 C 66.177 57.956, 62.844 59.476, 59.273 51.264 C 58.036 48.421, 57.530 43.278, 57.204 30.250 C 56.905 18.275, 56.426 13.005, 55.637 13.016 C 55.011 13.024, 51.458 14.712, 47.739 16.766 M 46.441 20.565 C 38.498 25.330, 34.434 29.413, 31.343 35.732 C 27.491 43.605, 27.314 50.704, 30.507 69.341 C 32.604 81.587, 33.134 87.507, 32.841 95.432 C 32.492 104.839, 32.159 106.292, 28.790 113.091 C 26.770 117.166, 22.769 123.129, 19.898 126.341 C 15.742 130.991, 14.965 132.374, 16.089 133.120 C 21.808 136.919, 31.129 141.561, 36.222 143.146 C 43.448 145.395, 47.882 144.846, 51.472 141.256 C 56.326 136.402, 57.234 130.782, 57.493 104 C 57.715 81.052, 58.779 71, 60.986 71 C 61.354 71, 64.545 72.168, 68.078 73.595 C 79.363 78.156, 89.957 84.143, 94.290 88.411 L 98.500 92.556 106.721 88.800 C 111.242 86.734, 117.542 84.169, 120.721 83.100 C 125.334 81.548, 126.559 80.686, 126.792 78.828 L 127.083 76.500 111.792 76.500 C 94.228 76.500, 85 75.485, 85 73.553 C 85 72.196, 89.237 71, 94.043 71 C 97.760 71, 100 70.068, 100 68.522 C 100 67.182, 103.546 66.569, 118 65.406 C 122.675 65.030, 126.831 64.222, 127.235 63.611 C 127.639 63, 127.976 60.846, 127.985 58.824 L 128 55.148 115.916 59.190 C 107.991 61.841, 103.493 62.893, 102.848 62.248 C 102.203 61.603, 106.194 59.789, 114.446 56.979 C 121.366 54.622, 126.837 52.504, 126.604 52.271 C 126.372 52.039, 121.432 52.593, 115.628 53.503 C 109.823 54.413, 104.157 54.867, 103.037 54.512 C 98.089 52.941, 101.968 49.826, 117 43.295 L 122.500 40.906 113.993 41.440 C 104.203 42.055, 93.988 40.693, 92.427 38.564 C 91.546 37.364, 89.928 38.539, 83.427 45.102 C 69.896 58.760, 63.345 61.797, 59.088 56.384 C 55.804 52.210, 54.879 47.466, 54.286 31.750 C 53.979 23.637, 53.425 17, 53.055 17 C 52.685 17, 49.709 18.604, 46.441 20.565 M 151.500 18.020 C 146.875 19, 144.219 21.057, 140.546 26.500 C 137.417 31.138, 135.255 36, 136.322 36 C 136.573 36, 140.482 35.297, 145.009 34.439 C 152.475 33.022, 157.223 33.110, 155.697 34.637 C 155.372 34.961, 150.488 36.188, 144.844 37.363 L 134.581 39.500 133.374 43.681 L 132.167 47.862 136.226 47.681 C 142.246 47.413, 142.179 49.621, 136.089 52.152 C 131.815 53.928, 130.998 54.685, 130.986 56.883 C 130.979 58.322, 130.689 60.558, 130.343 61.852 L 129.713 64.204 144.722 63.481 C 155.903 62.941, 159.919 63.060, 160.466 63.945 C 160.870 64.598, 160.980 65.353, 160.711 65.622 C 160.367 65.966, 134.590 69.655, 130.250 69.981 C 130.113 69.992, 130 70.765, 130 71.700 C 130 72.859, 130.326 73.074, 131.023 72.377 C 132.457 70.943, 138 71.926, 138 73.613 C 138 74.376, 137.325 75, 136.500 75 C 133.753 75, 134.711 79.753, 137.750 81.205 C 142.711 83.575, 142.033 90.545, 135.920 100.002 C 131.431 106.948, 131.433 106.764, 135.658 122.783 L 137.315 129.067 152.753 128.378 L 168.191 127.689 165.651 132.702 C 158.402 147.007, 149.319 150.683, 141.951 142.292 C 140.190 140.286, 138.125 137.150, 137.361 135.323 C 136.081 132.259, 135.623 132, 131.487 132 C 126.696 132, 126.031 131.429, 128.619 129.537 C 129.962 128.555, 130.026 128.014, 128.992 126.359 C 127.564 124.073, 121.482 119.688, 119.292 119.367 C 118.481 119.248, 117.622 118.956, 117.385 118.718 C 116.559 117.893, 118.222 115, 119.522 115 C 121.363 115, 129 106.089, 129 103.941 C 129 102.963, 128.733 101.469, 128.408 100.620 C 127.898 99.291, 127.422 99.367, 124.983 101.171 C 120.858 104.221, 112.696 103.957, 105.921 100.554 C 103.062 99.118, 100.638 98.069, 100.534 98.222 C 100.430 98.375, 99.719 100.075, 98.953 102 C 98.188 103.925, 94.060 108.968, 89.781 113.207 C 85.358 117.589, 82 121.758, 82 122.868 C 82 125.418, 86.756 129.359, 92.461 131.538 C 94.957 132.492, 97 133.555, 97 133.901 C 97 134.247, 94.862 135.295, 92.250 136.229 C 79.583 140.760, 73.470 152.466, 79.274 161.078 C 83.245 166.971, 92.042 170.331, 109.213 172.512 L 113.925 173.111 111.007 166.676 C 106.414 156.546, 105.420 151.534, 107.405 148.504 C 110.981 143.047, 118.645 145.502, 145.743 160.787 C 163.402 170.748, 170.365 173.968, 171.592 172.741 C 172.305 172.028, 167.357 161.318, 163.974 156.250 C 162.164 153.540, 162.066 153, 163.382 153 C 165.450 153, 170.503 144.155, 173.010 136.145 C 176.671 124.453, 175.212 115.528, 168.856 110.730 C 164.287 107.281, 159.022 106.012, 149.250 106.006 C 142.586 106.001, 141 105.712, 141 104.500 C 141 103.510, 141.990 103, 143.913 103 C 145.515 103, 149.663 101.531, 153.132 99.735 C 166.844 92.637, 173.930 75.862, 173.930 50.500 C 173.930 39.582, 171.874 25.758, 169.896 23.375 C 166.831 19.681, 157.070 16.840, 151.500 18.020 M 119.500 45.366 C 114 47.688, 108.600 50.156, 107.500 50.851 C 105.715 51.979, 105.877 52.061, 109 51.615 C 123.135 49.596, 128.586 48.649, 129.145 48.116 C 130.201 47.107, 131.229 40.994, 130.329 41.072 C 129.873 41.111, 125 43.044, 119.500 45.366 M 113.500 71.578 C 96.560 73.633, 96.528 73.690, 112.250 73.850 C 126.383 73.994, 127 73.916, 127 72 C 127 70.900, 126.438 70.055, 125.750 70.122 C 125.063 70.189, 119.550 70.844, 113.500 71.578 M 130 78 C 130 79.100, 130.450 80, 131 80 C 131.550 80, 132 79.100, 132 78 C 132 76.900, 131.550 76, 131 76 C 130.450 76, 130 76.900, 130 78 M 130.070 86.750 C 130.127 89.758, 130.311 90.104, 131 88.500 C 132.194 85.721, 132.194 83, 131 83 C 130.450 83, 130.032 84.688, 130.070 86.750 M 134.474 86.250 C 134.097 88.037, 133.130 90.921, 132.324 92.658 C 131.519 94.395, 131.004 97.320, 131.180 99.158 L 131.500 102.500 133.874 98.500 C 137.624 92.181, 139.140 87.130, 137.952 84.910 C 136.452 82.108, 135.249 82.571, 134.474 86.250 M 115 88.314 C 99.286 94.741, 99.720 94.318, 105.736 97.366 C 112.887 100.990, 117.886 101.623, 122.407 99.477 C 124.421 98.521, 126.519 96.898, 127.069 95.871 C 128.081 93.980, 127.283 83.992, 126.121 84.009 C 125.780 84.014, 120.775 85.951, 115 88.314 M 126.149 113.114 L 122.815 117.085 127.352 121.078 C 129.847 123.274, 132.168 125.955, 132.511 127.036 C 132.854 128.116, 133.581 129, 134.126 129 C 134.672 129, 134.833 128.539, 134.485 127.975 C 134.136 127.411, 132.868 122.944, 131.667 118.047 L 129.483 109.143 126.149 113.114 M 140.265 131.657 C 139.323 132.038, 139.409 132.909, 140.629 135.328 C 144.619 143.241, 149.896 145.863, 154.848 142.394 C 157.274 140.695, 163 133.288, 163 131.850 C 163 130.962, 142.417 130.787, 140.265 131.657" stroke="none" fill="black" fill-rule="evenodd"/>
</svg>