<svg xmlns="http://www.w3.org/2000/svg" width="200" height="200" viewBox="0 0 200 200" version="1.1">
	<path d="M 147.500 17.660 C 136.796 18.527, 122.382 20.522, 100.500 24.165 C 76.679 28.131, 76.377 28.155, 60 27.348 C 32.361 25.986, 27.594 26.732, 22.664 33.197 C 18.743 38.337, 17.630 45.462, 18.321 61 C 18.651 68.425, 19.444 78.288, 20.081 82.917 C 21.021 89.739, 20.908 96.770, 19.482 120.017 C 18.050 143.361, 17.934 150.700, 18.856 159.443 C 20.492 174.953, 23.780 181.396, 29.972 181.220 C 33.784 181.111, 36.411 179.630, 41.938 174.469 L 46.500 170.211 81.500 169.496 C 129.784 168.509, 149.080 170.403, 161.501 177.345 C 164.671 179.116, 166.223 179.539, 166.506 178.706 C 167.442 175.947, 170.284 163.992, 171.780 156.518 C 173.108 149.883, 173.415 139.874, 173.562 98.500 C 173.679 65.582, 174.118 47.133, 174.846 44.500 C 176.226 39.511, 176.311 31.947, 175.025 28.565 C 174.255 26.540, 173.367 26, 170.809 26 C 168.104 26, 166.395 27.200, 160.478 33.250 C 156.579 37.237, 150.601 44.742, 147.194 49.926 L 140.999 59.353 132.352 62.696 C 127.596 64.534, 123.540 65.873, 123.338 65.671 C 123.135 65.469, 125.564 63.584, 128.735 61.483 C 131.906 59.382, 137.342 54.826, 140.815 51.359 C 146.281 45.903, 147.088 44.627, 146.815 41.876 C 146.265 36.327, 142.574 34.580, 130.178 34 L 119.500 33.500 128.500 31.690 C 148.904 27.586, 160 23.505, 160 20.105 C 160 18.360, 155.812 16.692, 152.625 17.168 C 152.006 17.261, 149.700 17.482, 147.500 17.660 M 139.500 21.056 C 123.800 22.835, 96 27.398, 96 28.195 C 96 31.237, 110.600 31.886, 124.619 29.468 C 135.768 27.545, 151.209 23.494, 154.782 21.555 C 157.446 20.109, 157.391 20.082, 152 20.171 C 148.975 20.222, 143.350 20.620, 139.500 21.056 M 166.706 30.733 C 159.505 36.126, 146.682 54.043, 137.034 72.194 L 131.882 81.888 135.032 83.516 C 137.983 85.042, 138.308 85.031, 140.184 83.334 C 143.197 80.606, 144.251 78.100, 144.906 72.105 C 145.609 65.664, 148.003 63.773, 147.994 69.667 C 147.986 75.213, 146.287 80.505, 143.421 83.912 L 140.918 86.886 146.459 90.431 C 152.509 94.301, 154.032 97.694, 149.250 96.649 C 147.738 96.319, 145.553 95.777, 144.396 95.446 C 142.364 94.864, 142.411 95.261, 145.794 107.172 C 148.901 118.116, 149.306 120.906, 149.397 132.020 C 149.492 143.567, 149.302 144.927, 146.958 149.520 C 144.195 154.932, 137.649 160.122, 131.177 162.031 C 124.382 164.035, 109.849 164.723, 92.207 163.876 C 77.566 163.173, 73.816 163.288, 69.375 164.579 C 66.452 165.429, 62.359 165.984, 60.280 165.812 C 56.750 165.521, 56.481 165.268, 56.217 162 C 55.881 157.837, 59.278 152.306, 70.857 138.167 C 75.061 133.034, 81.087 125.621, 84.250 121.695 L 90 114.555 90 106.778 C 90 100.082, 90.243 98.984, 91.750 98.882 C 99.161 98.380, 100.287 102.763, 95.034 111.666 C 93.183 114.805, 93.085 115.787, 94.024 121.821 C 97.382 143.402, 106.578 155.426, 118.310 153.575 C 127.481 152.129, 138.993 143.778, 142.482 136.041 C 145.202 130.009, 143.762 129.140, 135.524 131.845 C 126.810 134.705, 122.552 134.643, 119.521 131.612 C 114.532 126.623, 115.346 115.925, 122.071 98.071 C 124.232 92.335, 126 87.327, 126 86.942 C 126 86.557, 124.656 85.686, 123.014 85.006 C 121.372 84.326, 117.434 81.269, 114.264 78.214 C 110.283 74.377, 105.680 71.319, 99.384 68.329 C 94.371 65.948, 89.826 64, 89.285 64 C 88.428 64, 70.917 83.074, 65.577 89.825 C 63.661 92.247, 63.661 92.252, 65.738 91.140 C 67.754 90.061, 67.846 90.307, 68.539 98.629 C 70.192 118.473, 65.835 138.500, 58.791 143.434 C 52.788 147.638, 46.836 143.910, 43.379 133.781 C 41.115 127.151, 41.056 108.010, 43.264 97.058 C 44.664 90.113, 44.641 89.329, 42.928 85.332 C 38.115 74.104, 35.578 61.113, 37.112 55.557 C 37.638 53.651, 39.239 51.171, 40.669 50.045 C 45.797 46.012, 59.097 48.078, 78.226 55.880 L 87.952 59.846 92.061 54.686 C 94.321 51.848, 97.594 47.171, 99.335 44.291 C 102.577 38.929, 105.897 36.903, 104.317 41.250 C 103.868 42.487, 103.516 46.650, 103.535 50.500 C 103.564 56.532, 104.048 58.398, 107.035 64 C 110.358 70.234, 110.869 70.693, 119.500 75.211 C 124.450 77.803, 128.858 79.821, 129.296 79.696 C 129.735 79.571, 132.059 75.789, 134.462 71.291 C 138.795 63.183, 138.809 63.122, 136.166 64.159 C 122.839 69.385, 114.557 71.957, 113.727 71.127 C 112.230 69.630, 113.523 68.372, 123.324 61.794 C 134.994 53.961, 144 45.501, 144 42.371 C 144 40.948, 142.951 39.358, 141.296 38.273 C 138.820 36.650, 134.582 36.474, 91.296 36.196 C 53.266 35.952, 44 35.637, 44 34.590 C 44 33.707, 46.229 33.080, 50.909 32.645 C 54.709 32.292, 58.864 31.616, 60.143 31.143 C 63.590 29.867, 37.515 28.725, 32.500 29.932 C 27.718 31.082, 23.540 35.393, 22.067 40.697 C 20.529 46.235, 20.765 64.679, 22.557 79.030 C 23.983 90.447, 23.972 93.611, 22.425 116.500 C 20.695 142.104, 20.922 163.036, 23.009 170.248 C 23.605 172.310, 25.120 175.191, 26.375 176.650 C 29.527 180.314, 32.771 179.314, 39.954 172.463 L 45.651 167.028 88.576 166.823 C 135.543 166.599, 144.513 167.341, 157.469 172.524 C 160.872 173.886, 163.922 175, 164.245 175 C 165.249 175, 168.872 158.006, 170.109 147.500 C 170.907 140.723, 171.113 126.541, 170.749 103.500 C 170.429 83.226, 170.639 64.252, 171.271 56.500 C 172.685 39.141, 172.751 28.759, 171.450 28.321 C 170.873 28.126, 168.738 29.212, 166.706 30.733 M 71.500 32 C 69.674 32.465, 74.173 32.804, 83 32.866 C 92.691 32.935, 97.003 32.648, 96 32 C 94.259 30.875, 75.922 30.875, 71.500 32 M 95.098 55.204 C 92.713 58.444, 90.928 61.225, 91.131 61.385 C 91.744 61.866, 105.193 68, 105.635 68 C 105.861 68, 105.360 66.953, 104.522 65.674 C 103.684 64.395, 102.196 60.190, 101.216 56.331 L 99.434 49.314 95.098 55.204 M 41.612 52.876 C 37.838 57.046, 38.936 67.206, 44.788 82.281 C 47.535 89.355, 47.562 89.630, 46.169 96 C 44.310 104.495, 44.082 127.121, 45.799 132.789 C 46.514 135.148, 48.402 138.523, 49.995 140.289 C 52.784 143.382, 52.994 143.445, 55.695 142 C 59.388 140.025, 63.656 131.272, 64.960 123 C 65.524 119.425, 65.988 111.627, 65.992 105.671 L 66 94.841 63 95.500 C 58.018 96.594, 59.242 93.117, 67 84.139 C 70.850 79.684, 74 75.841, 74 75.599 C 74 75.357, 72.537 74.866, 70.750 74.509 C 64.662 73.292, 57.504 70.747, 55.597 69.122 C 51.877 65.952, 45 55.742, 45 53.390 C 45 50.515, 43.900 50.348, 41.612 52.876 M 48 52.987 C 48 55.524, 50.794 59.893, 55.812 65.201 C 58.667 68.221, 60.641 69.216, 66.533 70.605 C 70.505 71.542, 74.513 72.017, 75.439 71.662 C 80.956 69.545, 62.379 54.348, 50.750 51.465 C 48.376 50.876, 48 51.084, 48 52.987 M 65 54.781 C 69.325 57.755, 76.239 64.389, 77.990 67.245 L 79.673 69.991 82.888 65.990 L 86.103 61.990 83.801 61.097 C 82.536 60.606, 79.025 59.209, 76 57.993 C 72.975 56.778, 68.700 55.171, 66.500 54.423 C 62.593 53.095, 62.558 53.103, 65 54.781 M 117 77.389 C 117 78.039, 126.225 84, 127.230 84 C 129.144 84, 126.622 81.842, 121.929 79.464 C 119.218 78.090, 117 77.156, 117 77.389 M 127.435 91.750 C 120.369 108.390, 117.391 123.895, 120.382 128.460 C 122.361 131.481, 127.600 131.901, 133.346 129.500 C 138.350 127.409, 144.629 127.534, 145.920 129.750 C 149.074 135.166, 145.692 115.340, 140.912 100.397 C 137.492 89.704, 137.480 89.605, 139.750 90.395 C 141.209 90.903, 141.177 90.755, 139.559 89.502 C 138.491 88.676, 135.685 88, 133.322 88 C 129.308 88, 128.922 88.246, 127.435 91.750 M 92.752 101.750 C 92.551 102.162, 92.639 104.075, 92.947 106 L 93.507 109.500 94.850 106.310 C 96.154 103.213, 95.800 101, 94 101 C 93.515 101, 92.954 101.338, 92.752 101.750 M 78.166 133.521 C 64.766 149.988, 59.522 157.255, 58.514 160.750 C 57.919 162.813, 58.194 163, 61.807 163 C 63.975 163, 67.501 162.382, 69.642 161.626 C 72.821 160.505, 77.083 160.435, 92.851 161.249 C 119.522 162.625, 133.153 160.606, 140.355 154.212 C 143.519 151.404, 146.982 142.913, 146.967 138 L 146.954 133.500 145.255 137 C 142.686 142.288, 134.194 150.278, 127.844 153.380 C 121.355 156.550, 113.024 157.098, 108.318 154.664 C 100.764 150.758, 94.992 140.768, 92.177 126.727 L 90.500 118.362 78.166 133.521" stroke="none" fill="black" fill-rule="evenodd"/>
</svg>