<svg xmlns="http://www.w3.org/2000/svg" width="200" height="200" viewBox="0 0 200 200" version="1.1">
	<path d="M 35 11.670 C 30.697 13.920, 30.275 16.141, 32.552 24.555 C 34.957 33.437, 34.155 38.806, 29.391 45.723 C 27.281 48.787, 23.414 52.892, 20.800 54.844 C 16.623 57.962, 16.216 58.582, 17.453 59.948 C 20.453 63.263, 21.205 68.414, 22.575 95 C 24.190 126.364, 26.074 137.871, 31.250 148 L 34.572 154.500 26.263 164.417 C 17.919 174.376, 15.845 178.245, 17.800 180.200 C 19.334 181.734, 22.554 180.619, 31 175.629 C 41.374 169.501, 74.544 145.723, 74.426 144.500 C 74.373 143.950, 73.366 141.475, 72.187 139 C 68.181 130.588, 69.041 122.637, 77.001 94.500 C 79.646 85.150, 82.114 76.038, 82.485 74.250 C 83.200 70.800, 83.376 70.698, 86.500 71.928 C 88.321 72.645, 88.500 73.645, 88.500 83.108 C 88.500 93.121, 88.582 93.512, 90.748 93.819 C 91.985 93.995, 94.355 93.171, 96.016 91.989 L 99.035 89.839 100.398 93.170 C 103.772 101.415, 103.833 101.248, 97.698 100.481 C 90.723 99.610, 86.273 100.564, 85.467 103.105 C 85.092 104.286, 86.140 108.149, 88.094 112.785 C 94.751 128.582, 91.652 140.624, 77.242 154.961 C 72.984 159.197, 65.787 165.252, 61.250 168.415 C 56.712 171.578, 53 174.274, 53 174.404 C 53 174.535, 55.997 174.282, 59.660 173.841 C 68.383 172.791, 76.357 168.988, 93.177 157.860 C 109.636 146.971, 112.403 146.306, 115.500 152.500 C 117.253 156.005, 117.500 158.500, 117.500 172.675 L 117.500 188.850 120.500 188.304 C 126.964 187.127, 131.717 183.322, 134.941 176.742 C 139.414 167.614, 140.312 161.004, 139.723 141.547 C 139.161 122.970, 138.993 123.076, 144.519 138.500 C 146.956 145.301, 148.314 147.420, 153.586 152.637 C 160.707 159.685, 165.526 161.853, 169.973 160.011 C 179.027 156.261, 174.739 137.454, 162.177 125.825 C 156.615 120.675, 145.015 114, 141.627 114 C 140.732 114, 140.004 113.662, 140.008 113.250 C 140.012 112.838, 148.198 110.475, 158.199 108 C 168.375 105.481, 176.554 102.950, 176.774 102.250 C 177.070 101.309, 174.736 100.995, 167.333 100.980 C 140.036 100.925, 129.620 95.429, 134.766 83.797 L 136.744 79.325 129.622 79.370 C 122.897 79.413, 110 77.334, 110 76.208 C 110 75.922, 111.127 74.211, 112.504 72.406 C 116.234 67.516, 113.528 66.775, 109.493 71.581 L 106.250 75.444 100.785 73.721 C 93.379 71.387, 92.779 69.856, 94.576 57.886 C 95.352 52.724, 95.989 47.025, 95.993 45.221 C 96 42.041, 96.336 41.778, 107.148 36.471 C 113.581 33.314, 119.646 31, 121.488 31 C 125.939 31, 139.038 27.531, 143.843 25.080 L 147.848 23.037 154.674 36.754 C 162.368 52.214, 170.052 64.896, 176.116 72.139 C 180.887 77.837, 180.672 78.489, 172.721 82.452 C 166.752 85.426, 160.409 85.762, 155.368 83.370 C 148.355 80.042, 143.014 71.477, 134.517 49.933 C 132.101 43.807, 129.352 37.941, 128.407 36.898 C 124.727 32.831, 121.621 35.165, 118.053 44.681 C 114.887 53.127, 114.727 54, 116.351 54 C 117.288 54, 118.618 51.652, 119.951 47.646 C 121.114 44.152, 122.698 40.439, 123.472 39.396 C 124.720 37.712, 125.043 37.668, 126.352 39 C 127.163 39.825, 130.431 46.963, 133.615 54.862 C 142.911 77.930, 150.192 86.736, 160.813 87.756 C 167.019 88.352, 171.377 86.932, 179.041 81.814 L 185.073 77.786 180.738 73.143 C 173.643 65.545, 168.044 56.573, 157.896 36.543 C 148.487 17.972, 145.807 14.116, 144.152 16.768 C 143.522 17.776, 136.205 17.304, 108.430 14.466 C 89.219 12.503, 65.625 10.659, 56 10.369 C 40.349 9.897, 38.130 10.034, 35 11.670 M 35.470 14.398 C 33.657 15.724, 33.634 16.126, 35.020 22.148 C 38.201 35.965, 36.082 43.604, 26.405 53.205 L 20.831 58.735 22.460 63.534 C 23.622 66.955, 24.377 74.959, 25.093 91.416 C 26.573 125.435, 29.408 141.428, 35.569 150.506 C 36.906 152.477, 38 154.343, 38 154.654 C 38 154.965, 35.680 157.758, 32.844 160.860 C 25.860 168.501, 19.586 176.919, 20.326 177.659 C 21.360 178.694, 34.761 170.449, 52.500 157.863 C 61.850 151.229, 69.901 145.422, 70.392 144.959 C 70.907 144.472, 70.485 142.511, 69.392 140.308 C 67.913 137.332, 67.517 134.425, 67.579 127 C 67.660 117.187, 68.249 114.401, 75.380 90.137 C 77.378 83.338, 79.288 76.054, 79.624 73.950 L 80.236 70.124 74.519 68.463 C 71.375 67.549, 66.428 66.478, 63.525 66.085 L 58.248 65.368 57.552 75.934 C 56.084 98.227, 51.173 118.767, 46.744 121.137 C 44.975 122.084, 44.339 121.902, 42.810 120.014 C 38.411 114.581, 35.159 93.429, 36.949 81.893 C 38.231 73.629, 39.861 70.068, 43.841 66.838 C 45.426 65.552, 47.909 61.860, 49.359 58.633 C 51.695 53.437, 52.277 52.820, 54.447 53.235 C 56.823 53.689, 56.854 53.619, 55.480 50.961 C 53.454 47.044, 52.196 37.797, 52.983 32.610 C 54.289 24.008, 58.937 20.365, 64.762 23.377 C 68.625 25.375, 76.274 33.912, 79.758 40.116 C 81.266 42.801, 82.852 44.998, 83.283 44.999 C 83.714 45, 86.357 43.839, 89.156 42.421 L 94.246 39.842 93.811 28.482 L 93.376 17.123 96.716 20.055 C 101.671 24.406, 107.616 27.112, 113.378 27.640 C 117.705 28.036, 119.944 27.503, 127.804 24.202 L 137.109 20.295 126.804 19.110 C 78.600 13.566, 39.375 11.543, 35.470 14.398 M 136.260 23.741 C 132.278 25.178, 129.212 26.545, 129.446 26.780 C 129.957 27.290, 141.866 23.379, 144 22 C 146.470 20.404, 143.922 20.977, 136.260 23.741 M 97 31.034 C 97 34.865, 97.236 38, 97.525 38 C 97.814 38, 101.301 36.362, 105.275 34.361 L 112.500 30.722 108.273 29.473 C 105.948 28.786, 102.460 27.289, 100.523 26.146 L 97 24.067 97 31.034 M 57.273 27.707 C 53.231 33.879, 56.861 55.022, 61.727 53.649 C 62.702 53.374, 65.075 52.835, 67 52.451 C 70.760 51.702, 80 47.366, 80 46.351 C 80 43.644, 69.202 29.299, 65.382 26.932 C 61.176 24.326, 59.375 24.498, 57.273 27.707 M 88.500 45.672 C 86.850 46.548, 85.330 47.412, 85.121 47.594 C 84.913 47.775, 86 50.882, 87.536 54.497 C 89.073 58.112, 90.679 60.717, 91.105 60.285 C 92.244 59.132, 93.440 43.993, 92.388 44.040 C 91.900 44.062, 90.150 44.796, 88.500 45.672 M 78.062 50.953 C 74.858 52.624, 74.771 52.793, 76.786 53.432 C 80.403 54.580, 83 58.819, 83 63.576 C 83 68.223, 83.126 68.395, 87.250 69.381 C 89.643 69.953, 89.993 69.744, 89.950 67.769 C 89.922 66.521, 88.010 61.824, 85.700 57.330 L 81.500 49.160 78.062 50.953 M 57 55.819 C 57 57.027, 58.897 58.436, 59.591 57.743 C 59.842 57.491, 59.362 56.716, 58.524 56.020 C 57.574 55.231, 57 55.155, 57 55.819 M 64.821 58.028 C 57.879 61.612, 56.820 63, 61.024 63 C 62.753 63, 67.781 63.923, 72.199 65.051 C 76.617 66.179, 80.434 66.900, 80.680 66.653 C 81.882 65.451, 79.509 58.759, 77.251 56.982 C 73.894 54.342, 71.584 54.536, 64.821 58.028 M 52.123 58.629 C 50.747 61.649, 51.038 62.306, 53.357 61.417 C 55.013 60.781, 55.722 56, 54.161 56 C 53.699 56, 52.782 57.183, 52.123 58.629 M 46.898 68.263 C 42.281 71.338, 39.947 76.576, 39.333 85.237 C 38.741 93.573, 40.905 109.536, 43.434 115.500 C 44.997 119.185, 45.236 119.357, 46.473 117.685 C 49.769 113.230, 55 84.863, 55 71.449 C 55 66.395, 54.830 66, 52.648 66 C 51.354 66, 48.767 67.018, 46.898 68.263 M 91.509 78.129 C 91.151 80.533, 91.003 84.735, 91.180 87.467 L 91.500 92.435 94.803 89.467 L 98.106 86.500 95.885 81 C 92.841 73.461, 92.260 73.080, 91.509 78.129 M 97.449 77.600 C 97.877 78.645, 98.453 80.287, 98.730 81.250 C 99.384 83.523, 100.275 83.458, 102.521 80.976 C 104.626 78.651, 103.871 77.480, 99.586 76.421 C 96.994 75.781, 96.757 75.911, 97.449 77.600 M 104.170 82.938 L 101.005 86.877 104.002 95.007 C 105.651 99.478, 107 103.340, 107 103.588 C 107 103.837, 102.725 103.740, 97.500 103.373 C 86.435 102.595, 86.501 102.515, 90.722 111.626 C 93.072 116.696, 93.448 118.800, 93.472 127 C 93.498 135.857, 93.279 136.906, 90.239 142.500 C 85.879 150.522, 80.105 157.098, 71.224 164.155 C 67.179 167.370, 64.474 170, 65.213 170 C 68.041 170, 80.983 162.942, 92.447 155.148 C 99.018 150.680, 105.816 146.556, 107.553 145.982 C 112.459 144.363, 115.720 146.123, 118.234 151.746 C 120.091 155.901, 120.357 158.351, 120.345 171.194 L 120.330 185.889 123.839 184.423 C 128.578 182.443, 129.259 181.782, 132.244 176.267 C 137.296 166.933, 137.610 161.579, 135.647 118.250 C 135.537 115.825, 135.037 115, 133.677 115 C 132.485 115, 131.969 114.399, 132.187 113.266 C 132.446 111.920, 135.873 110.719, 147.511 107.895 C 163.586 103.994, 163.621 103.902, 149.579 102.524 C 135.652 101.156, 128.724 94.419, 131.304 84.750 L 132.038 82 126.269 81.984 C 123.096 81.976, 117.800 81.317, 114.500 80.520 C 111.200 79.723, 108.238 79.055, 107.917 79.036 C 107.597 79.016, 105.911 80.772, 104.170 82.938 M 139.445 117.635 C 139.857 118.661, 142.415 125.350, 145.130 132.500 C 149.729 144.611, 150.473 145.890, 156.006 151.200 C 162.878 157.794, 168.259 159.689, 170.747 156.391 C 172.944 153.480, 171.773 144.190, 168.436 138.061 C 163.623 129.217, 151.675 119.800, 141.099 116.515 C 139.029 115.872, 138.801 116.027, 139.445 117.635" stroke="none" fill="black" fill-rule="evenodd"/>
</svg>