<svg xmlns="http://www.w3.org/2000/svg" width="200" height="200" viewBox="0 0 200 200" version="1.1">
	<path d="M 91.500 11.455 C 82.152 13.571, 69.759 18.403, 54.537 25.869 L 40.573 32.717 27.962 28.487 L 15.350 24.257 13.925 53.879 C 10.919 116.357, 12.924 137.274, 22.353 141.830 C 24.407 142.822, 25.863 142.895, 28.098 142.116 C 30.610 141.240, 31.188 141.348, 31.694 142.786 C 32.852 146.071, 36.335 149, 39.085 149 C 44.142 149, 47.951 142.885, 57.445 119.520 C 60.570 111.832, 63.370 105.307, 63.668 105.020 C 63.966 104.734, 63.884 117.554, 63.484 133.510 C 62.708 164.543, 63.305 171.576, 67.131 176.439 C 71.355 181.810, 76.702 178.345, 81.908 166.862 C 88.461 152.412, 90.878 127.715, 87.355 111.208 C 84.327 97.017, 85.335 72, 88.934 72 C 90.576 72, 95.106 77.963, 97.670 83.500 C 100.399 89.396, 100.443 89.784, 100.151 105.851 C 99.891 120.239, 99.492 123.602, 96.828 133.851 C 94.292 143.607, 93.716 148.057, 93.281 161.236 C 92.832 174.858, 92.970 177.051, 94.315 177.568 C 96.106 178.255, 111.761 176.485, 117.118 174.989 C 121.590 173.741, 126.698 170.335, 129.231 166.913 C 132.502 162.496, 132.475 157.469, 129.106 143.616 C 127.398 136.593, 126 130.464, 126 129.995 C 126 129.527, 128.588 128.826, 131.750 128.438 C 143.892 126.947, 144.726 124.783, 136.900 115.071 C 131.170 107.960, 130.967 108.589, 140.500 103.934 C 143.800 102.322, 146.284 100.665, 146.020 100.252 C 145.757 99.838, 143.023 97.647, 139.947 95.382 C 131.149 88.906, 127.383 83, 132.050 83 C 137.745 83, 146.538 91.668, 150.160 100.853 C 151.968 105.439, 152.396 108.567, 152.437 117.500 C 152.516 134.455, 151.173 138.755, 143.068 147.496 C 132.662 158.719, 131.456 167.432, 139.462 173.539 C 151.795 182.946, 171.414 175.584, 176.405 159.677 C 178.806 152.024, 178.221 138.527, 175.023 127.813 L 172.728 120.126 175.457 110.813 C 178.321 101.038, 179.808 86.121, 178.574 79.544 C 177.555 74.109, 171.852 68.331, 165.707 66.506 C 159.224 64.580, 151.815 64.682, 135 66.927 C 127.575 67.918, 121.277 68.529, 121.004 68.285 C 120.351 67.701, 119.645 52, 120.271 52 C 123.542 52, 151.211 45.548, 156.474 43.558 C 166.739 39.677, 178.659 31.875, 177.410 29.855 C 176.545 28.454, 175.325 28.856, 172.036 31.623 C 167.655 35.310, 162.237 34.568, 149 28.468 C 142.101 25.289, 136.707 23.480, 133.272 23.193 C 128.394 22.785, 127.815 22.985, 124.625 26.175 C 120.832 29.968, 119.257 34.380, 118.322 43.833 C 117.781 49.300, 117.369 50.289, 115.309 51.072 C 108.551 53.642, 106.288 60.682, 109.578 68.904 C 111.055 72.595, 111.370 72.814, 114.467 72.312 L 117.777 71.774 118.389 77.887 C 120.283 96.834, 120.284 96.706, 118.305 94.373 C 117.312 93.202, 107.322 82.266, 96.103 70.069 C 81.703 54.413, 75.394 48.206, 74.644 48.956 C 73.894 49.706, 75.189 51.706, 79.049 55.759 C 93.705 71.149, 93.433 70.805, 90.554 70.255 C 87.103 69.595, 84.395 72.110, 83.488 76.815 C 82.302 82.970, 82.890 103.065, 84.474 110.500 C 86.599 120.476, 86.416 139.359, 84.083 150.660 C 80.868 166.241, 74.302 177.942, 70.220 175.367 C 66.003 172.707, 64.977 159.484, 66.350 125.500 C 67.043 108.338, 66.950 104.174, 65.837 102.716 C 63.451 99.586, 61.369 102.651, 54.603 119.256 C 43.350 146.874, 38.777 151.965, 34.312 141.845 C 32.872 138.582, 32.204 138.001, 30.531 138.559 C 26.022 140.062, 22.776 139.537, 20.902 137 C 15.360 129.498, 13.908 105.024, 16.393 61 C 17.277 45.325, 18.001 31.527, 18.001 30.339 C 18 28.192, 18.066 28.199, 27.542 31.321 L 37.084 34.464 34.540 36.316 C 32.855 37.544, 31.781 39.516, 31.358 42.163 C 30.877 45.173, 30.113 46.387, 28.255 47.093 C 26.365 47.812, 25.915 48.551, 26.323 50.265 C 26.615 51.494, 28.955 65.775, 31.522 82 C 35.809 109.095, 36.997 114.337, 38.507 112.826 C 38.805 112.528, 38.164 105.133, 37.083 96.393 C 36.002 87.652, 34.853 75.775, 34.529 70 C 34.205 64.225, 33.709 56.937, 33.426 53.804 L 32.913 48.107 39.706 45.966 C 43.443 44.789, 50.110 43.583, 54.523 43.286 C 62.167 42.772, 62.697 42.874, 65.773 45.462 C 67.548 46.956, 69 49, 69 50.006 C 69 51.011, 66.751 56.484, 64.003 62.167 C 61.254 67.850, 58.723 73.962, 58.378 75.750 C 57.837 78.552, 58.029 79, 59.771 79 C 64.530 79, 72.507 61.227, 71.769 52.265 C 70.810 40.618, 61.792 37.514, 43.056 42.381 L 33.890 44.761 34.195 42.179 C 34.391 40.523, 35.633 38.938, 37.664 37.757 C 40.711 35.984, 41.142 35.981, 49.308 37.662 L 57.788 39.407 65.644 35.350 C 69.965 33.118, 75.525 30.811, 78 30.223 C 83.907 28.819, 94 27.620, 94 28.323 C 94 28.627, 92.206 32.166, 90.014 36.188 C 85.572 44.337, 84.811 49, 87.923 49 C 94.115 49, 109 27.492, 109 18.545 C 109 15.045, 105.109 11.178, 101 10.594 C 99.075 10.321, 94.800 10.708, 91.500 11.455 M 88.500 14.956 C 75.880 18.285, 44.974 32.374, 46.639 34.039 C 47.127 34.527, 50.049 35.223, 53.132 35.586 C 58.307 36.194, 59.228 35.970, 65.123 32.674 C 68.635 30.709, 74.058 28.439, 77.174 27.627 C 83.416 26.001, 99 24.382, 99 25.359 C 99 25.698, 96.750 29.900, 94 34.696 C 87.709 45.668, 87.634 48.101, 93.795 41.329 C 100.366 34.108, 105.154 25.810, 105.738 20.635 C 106.159 16.894, 105.897 16.041, 103.892 14.637 C 100.931 12.563, 97.289 12.638, 88.500 14.956 M 128.808 26.183 C 125.161 27.463, 122.104 34.079, 121.330 42.368 C 120.989 46.016, 120.888 48.999, 121.105 48.997 C 122.389 48.987, 143.418 44.683, 148.093 43.474 C 155.653 41.518, 163.178 38.098, 162.465 36.943 C 162.144 36.424, 161.221 36, 160.413 36 C 159.606 36, 154.120 33.813, 148.222 31.141 C 136.226 25.705, 132.722 24.810, 128.808 26.183 M 29.667 49.750 C 29.419 50.163, 29.565 52.300, 29.993 54.500 L 30.770 58.500 30.885 53.750 C 30.995 49.216, 30.657 48.105, 29.667 49.750 M 113.606 55.326 C 110.922 57.474, 110.748 58.023, 111.214 62.880 C 111.795 68.926, 112.665 70.162, 115.767 69.351 C 117.839 68.809, 118 68.200, 118 60.883 C 118 56.548, 117.662 53.002, 117.250 53.005 C 116.838 53.008, 115.198 54.052, 113.606 55.326 M 65.143 65.643 C 63.914 68.172, 63.143 70.476, 63.429 70.762 C 63.715 71.049, 64.872 69.131, 66 66.500 C 68.657 60.301, 68.039 59.683, 65.143 65.643 M 133.318 69.862 C 127.168 70.763, 121.824 71.818, 121.444 72.208 C 121.063 72.597, 121.295 78.897, 121.959 86.208 C 123.159 99.399, 123.195 99.528, 126.686 103.147 L 130.205 106.794 134.497 103.897 C 136.858 102.304, 139.287 101, 139.895 101 C 142.005 101, 140.860 99.478, 135.678 95.393 C 129.446 90.479, 125.988 84.835, 127.615 82.235 C 130.293 77.959, 138.828 80.746, 145.429 88.053 C 155.267 98.943, 158.041 115.611, 153.408 136 C 152.103 141.743, 151.302 143.102, 146.527 147.669 C 137.131 156.657, 134.769 164.195, 139.564 169.894 C 145.942 177.474, 159.815 176.598, 168.066 168.095 C 176.043 159.873, 177.494 147.195, 172.482 129.528 L 169.734 119.840 172.364 111.170 C 179.805 86.637, 177.391 72.425, 165.209 69.041 C 159.986 67.591, 146.446 67.939, 133.318 69.862 M 98.888 79.780 C 103.353 88.532, 104.028 93.434, 103.052 110 C 102.353 121.876, 101.422 128.263, 99.070 137.318 C 96.411 147.553, 96 150.866, 96 162.068 L 96 175 98.750 174.980 C 105.336 174.933, 115.888 172.772, 120.508 170.525 C 129.828 165.993, 130.792 160.983, 126 142 C 124.350 135.464, 123 127.534, 123 124.376 C 123 121.219, 122.487 114.634, 121.860 109.742 L 120.719 100.849 109.214 88.425 C 102.886 81.591, 97.540 76, 97.334 76 C 97.128 76, 97.827 77.701, 98.888 79.780 M 124.375 107.875 C 124.719 109.731, 125 111.744, 125 112.348 C 125 112.951, 125.731 112.401, 126.625 111.125 C 128.158 108.936, 128.123 108.684, 126 106.653 L 123.751 104.500 124.375 107.875 M 127.559 114.887 C 125.855 118.180, 125.545 122.733, 126.879 124.839 C 127.517 125.844, 129.135 126.002, 133.377 125.472 C 136.484 125.084, 139.255 124.397, 139.534 123.946 C 140.116 123.003, 132.105 112.861, 130.309 112.267 C 129.653 112.050, 128.416 113.229, 127.559 114.887" stroke="none" fill="black" fill-rule="evenodd"/>
</svg>