<svg xmlns="http://www.w3.org/2000/svg" width="200" height="200" viewBox="0 0 200 200" version="1.1">
	<path d="M 25.635 12.699 C 24.121 14.212, 25.273 15, 29 15 C 32.961 15, 33 15.037, 32.971 18.750 C 32.932 23.667, 29.055 43.728, 24.516 62.500 C 18.110 88.990, 18.747 110.707, 26.435 127.951 C 33.206 143.136, 33.570 150.651, 28.411 168.738 C 27.973 170.276, 28.262 171.163, 29.337 171.576 C 30.216 171.913, 39.350 168.461, 50.201 163.691 C 60.815 159.024, 70.625 154.992, 72 154.732 C 73.375 154.471, 75.287 153.926, 76.250 153.522 C 77.741 152.895, 78.001 153.357, 78.004 156.643 C 78.010 162.895, 80.671 177.463, 82.427 180.859 C 83.580 183.089, 84.765 184, 86.511 184 C 90.004 184, 93.167 178.717, 97.589 165.500 C 102.341 151.296, 102.892 140.783, 100.557 108.876 C 99.617 96.019, 98.994 82.905, 99.174 79.733 L 99.500 73.966 105.814 89.233 L 112.128 104.500 110.825 111 C 110.108 114.575, 109.520 122.675, 109.517 129 C 109.511 141.572, 110.704 145.449, 115.554 148.627 C 117.896 150.162, 118.332 150.154, 121.960 148.518 C 124.102 147.552, 127.069 145.494, 128.554 143.943 C 130.947 141.446, 131.782 141.181, 135.877 141.621 C 142.199 142.301, 146.013 139.778, 149.360 132.703 C 153.185 124.618, 154.336 114.966, 153.678 96.500 C 152.810 72.161, 148.553 56.434, 142.236 54.232 C 139.880 53.411, 139.196 52.363, 138.200 48.045 C 136.783 41.907, 136.611 31.358, 137.915 30.552 C 139.771 29.405, 145.115 35.396, 148.436 42.346 C 154.093 54.184, 155.340 60.508, 155.864 80 C 156.991 121.964, 156.901 123.359, 151.604 145.500 C 146.173 168.206, 146.001 172.884, 150.457 176.717 C 152.475 178.453, 154.341 179, 158.240 179 C 164.514 179, 175.222 176.139, 174.678 174.608 C 174.218 173.313, 173.782 173.347, 164.326 175.421 C 156.978 177.033, 154.811 176.822, 151.750 174.193 C 149.031 171.858, 149.567 165.318, 153.968 147.119 C 159.347 124.872, 160.400 116.884, 159.564 104.654 C 159.183 99.069, 158.743 87.300, 158.588 78.500 C 158.339 64.468, 157.971 61.396, 155.592 53.527 C 150.863 37.882, 144.230 28, 138.458 28 C 133.807 28, 132.744 35.407, 135.517 48.500 C 137.419 57.475, 137.527 57.024, 133.750 55.854 C 131.963 55.300, 124.313 54.594, 116.750 54.284 C 109.188 53.974, 103.010 53.446, 103.022 53.110 C 103.065 51.925, 106.533 48.229, 109.158 46.570 C 111.990 44.781, 119.418 44.233, 124.718 45.422 L 127.935 46.145 126.414 40.822 C 123.825 31.765, 119.100 23.032, 115.650 20.928 C 108.746 16.718, 102.671 19.159, 91.497 30.633 L 83.493 38.850 78.997 33.256 C 72.902 25.674, 68.012 21.943, 63.368 21.333 C 60.008 20.892, 59.112 21.233, 56.546 23.930 C 54.046 26.558, 53.530 28.015, 53.186 33.418 C 52.676 41.423, 54.180 46.073, 58.506 49.871 L 61.890 52.843 59.195 53.785 C 57.713 54.303, 54.387 56.342, 51.804 58.316 C 49.221 60.289, 45.354 62.799, 43.210 63.893 C 38.063 66.519, 33 72.372, 33 75.697 C 33 77.142, 34.168 80.317, 35.595 82.753 C 37.706 86.355, 38.247 88.707, 38.493 95.353 C 38.865 105.412, 40.332 111.121, 43.474 114.734 C 45.439 116.995, 46.210 117.302, 47.689 116.415 C 49.815 115.141, 52.475 107.645, 53.396 100.331 L 54.048 95.161 47.911 90.857 L 41.774 86.552 42.341 81.765 C 42.653 79.132, 44.299 74.065, 45.998 70.504 C 48.970 64.276, 49.285 63.975, 54.294 62.560 C 61.543 60.513, 74.077 58.307, 83.177 57.478 L 90.854 56.779 93.427 61.856 C 95.665 66.272, 96 68.196, 96 76.625 C 96 81.955, 96.716 95.577, 97.590 106.897 C 98.465 118.216, 99.025 133.557, 98.833 140.988 C 98.508 153.616, 98.233 155.228, 94.631 165.624 C 92.511 171.742, 89.733 178.042, 88.459 179.624 L 86.141 182.500 84.615 178.887 C 80.558 169.288, 78.402 133.632, 80.025 102.978 C 81.128 82.134, 80.612 76.309, 77.744 77.243 C 75.731 77.898, 74.053 82.301, 71.487 93.659 C 67.878 109.629, 65.706 128.756, 66.238 139.871 C 66.492 145.167, 67.009 150.204, 67.386 151.064 C 67.934 152.315, 64.532 154.219, 50.404 160.564 C 40.686 164.929, 32.381 168.638, 31.949 168.806 C 31.516 168.975, 31.858 166.950, 32.708 164.306 C 33.584 161.582, 34.297 155.602, 34.352 150.500 C 34.455 141.106, 33.040 135.183, 28.497 126 C 24.525 117.969, 22.689 105.271, 23.299 90.037 C 23.758 78.564, 24.539 73.603, 28.419 57.500 C 30.936 47.050, 33.774 33.199, 34.725 26.720 L 36.453 14.940 45.976 15.453 C 51.214 15.735, 66.300 16.218, 79.500 16.525 C 123.271 17.544, 161.468 20.465, 172.030 23.602 C 177.410 25.199, 177.429 25.219, 174.887 26.551 L 172.327 27.893 174.414 35.196 C 176.433 42.265, 176.494 44.389, 176.312 101.250 C 176.159 149.316, 176.365 160, 177.444 160 C 178.507 160, 178.907 150.600, 179.506 111.444 C 180.262 62.026, 179.935 50.284, 177.432 37.063 C 176.094 29.990, 176.121 29.536, 177.978 27.806 C 185.965 20.365, 160.090 16.386, 88.500 14.046 C 30.827 12.161, 26.270 12.063, 25.635 12.699 M 101.928 24.830 C 99.474 26.387, 94.683 30.743, 91.283 34.510 L 85.101 41.360 87.612 45.430 C 88.992 47.668, 90.617 50.513, 91.222 51.750 C 92.078 53.502, 93.171 54, 96.161 54 C 98.272 54, 100 53.566, 100 53.035 C 100 51.176, 106.499 44.689, 109.702 43.351 C 111.481 42.608, 115.456 42, 118.535 42 C 124.930 42, 124.896 42.171, 120.467 32.268 C 115.723 21.660, 110.335 19.499, 101.928 24.830 M 58.598 25.545 C 54.123 30.020, 54.758 42.035, 59.745 47.250 C 62.625 50.262, 68.209 50.986, 72.316 48.880 C 75.338 47.330, 81 41.850, 81 40.474 C 81 39.851, 78.474 36.549, 75.386 33.137 C 67.513 24.437, 62.137 22.006, 58.598 25.545 M 78.638 47.494 L 74.776 50.906 77.638 51.509 C 79.212 51.841, 82.285 52.515, 84.468 53.005 C 86.650 53.496, 88.584 53.750, 88.765 53.568 C 89.197 53.136, 83.668 43.987, 83.007 44.042 C 82.728 44.065, 80.762 45.618, 78.638 47.494 M 64.500 54.931 C 62.850 55.331, 60.150 56.433, 58.500 57.381 L 55.500 59.104 58.500 58.453 C 60.150 58.094, 65.276 57.182, 69.891 56.426 C 74.507 55.669, 78.519 54.814, 78.808 54.525 C 79.579 53.754, 68.004 54.083, 64.500 54.931 M 101.528 56.955 C 101.127 57.603, 100.957 58.216, 101.150 58.317 C 101.342 58.417, 105.481 60.525, 110.347 63 C 115.213 65.475, 120.326 68.537, 121.709 69.805 C 123.091 71.073, 124.318 71.973, 124.435 71.805 C 124.552 71.637, 125.665 70.027, 126.908 68.227 C 128.151 66.427, 130.984 64.028, 133.203 62.896 C 135.608 61.670, 136.873 60.473, 136.334 59.934 C 133.903 57.503, 102.833 54.844, 101.528 56.955 M 140.469 58.500 C 140.211 59.325, 139.797 60.655, 139.549 61.455 C 139.301 62.255, 137.252 63.851, 134.997 65.001 C 132.459 66.296, 129.748 68.886, 127.882 71.797 L 124.868 76.500 125.333 106.250 C 125.682 128.578, 125.506 136, 124.627 136 C 123.983 136, 121.467 130.371, 119.037 123.491 C 116.046 115.025, 114.289 111.311, 113.602 111.998 C 112.017 113.583, 112.227 138.853, 113.858 142.717 C 116.286 148.471, 121.046 147.765, 127.902 140.631 C 130.593 137.831, 131.675 137.291, 133.086 138.046 C 139.172 141.303, 145.762 136.867, 148.525 127.656 C 152.267 115.178, 152.222 90.692, 148.423 72.636 C 145.985 61.044, 141.927 53.833, 140.469 58.500 M 95.636 60.494 C 95.952 61.316, 96.620 61.735, 97.121 61.425 C 98.170 60.777, 97.328 59, 95.972 59 C 95.472 59, 95.321 59.672, 95.636 60.494 M 99.768 64.130 C 99.360 66.908, 102.307 74.725, 112.161 97 C 113.201 99.353, 113.398 99.088, 115.499 92.500 C 116.727 88.650, 118.659 83.400, 119.794 80.834 C 120.929 78.268, 121.608 75.218, 121.304 74.056 C 120.767 72, 110.797 65.484, 103.567 62.464 C 100.221 61.065, 100.217 61.067, 99.768 64.130 M 41.734 67.837 C 36.350 71.387, 34.700 75.703, 37.050 80.094 C 38.231 82.299, 39.988 81.766, 40.024 79.191 C 40.037 78.261, 41.112 74.912, 42.412 71.750 C 43.713 68.588, 44.714 66.003, 44.638 66.007 C 44.562 66.010, 43.255 66.834, 41.734 67.837 M 75.676 87.723 C 71.670 102.159, 69.652 117.351, 69.576 133.661 C 69.534 142.549, 69.846 150.170, 70.270 150.597 C 70.693 151.023, 72.268 150.941, 73.770 150.414 L 76.500 149.455 77.124 115.977 C 77.467 97.565, 77.642 82.375, 77.513 82.223 C 77.384 82.070, 76.557 84.545, 75.676 87.723 M 120.187 87.250 C 119.110 90.138, 117.480 95.200, 116.563 98.500 L 114.895 104.500 118.745 114.726 L 122.595 124.952 122.547 103.478 C 122.521 91.668, 122.420 82.004, 122.322 82.002 C 122.224 82.001, 121.263 84.362, 120.187 87.250 M 41 93.864 C 41 102.297, 44.285 114.399, 46.387 113.711 C 47.804 113.247, 49.570 107.925, 50.443 101.486 L 51.123 96.472 46.532 93.236 C 44.007 91.456, 41.730 90, 41.471 90 C 41.212 90, 41 91.739, 41 93.864" stroke="none" fill="black" fill-rule="evenodd"/>
</svg>