<svg xmlns="http://www.w3.org/2000/svg" width="200" height="200" viewBox="0 0 200 200" version="1.1">
	<path d="M 160.827 15.677 C 158.997 17.150, 155.619 20.138, 153.320 22.317 L 149.140 26.279 124.320 27.152 C 95.044 28.181, 89.848 28.652, 87.362 30.499 C 85.892 31.592, 85.728 32.263, 86.585 33.691 C 88.036 36.111, 95.678 40.289, 105.746 44.165 C 110.282 45.912, 113.842 47.491, 113.658 47.676 C 112.300 49.034, 84.807 55.184, 77.928 55.669 C 67.740 56.387, 63.170 55.179, 59.478 50.791 C 56.948 47.785, 56.897 47.431, 57.195 34.945 C 57.474 23.269, 57.320 21.929, 55.401 19.336 C 52.286 15.129, 47.519 15.012, 42.475 19.020 C 30.998 28.141, 18 53.467, 18 66.711 C 18 71.087, 18.457 72.548, 20.451 74.542 C 22.769 76.860, 22.824 77.176, 21.475 80.405 C 20.691 82.283, 19.533 86.941, 18.903 90.757 C 17.187 101.147, 19.424 110.559, 28.205 129.898 C 34.310 143.343, 35.356 146.479, 35.766 152.583 C 36.318 160.810, 34.093 167.277, 29.366 171.181 C 21.234 177.898, 14.035 185.435, 14.913 186.313 C 16.054 187.454, 23.638 182.090, 29.500 175.994 C 36.059 169.174, 43.902 166.030, 61.996 162.968 C 75.316 160.714, 78.350 159.050, 78.805 153.749 C 79.116 150.112, 75.939 142.233, 70.432 132.985 L 67.743 128.470 72.923 109.985 C 75.772 99.818, 78.919 89.700, 79.916 87.500 L 81.729 83.500 82.796 86 C 83.382 87.375, 85.296 93, 87.048 98.500 C 90.067 107.976, 95.972 121.326, 98.105 123.500 C 98.645 124.050, 101.654 124.967, 104.793 125.538 L 110.500 126.577 104.531 130.007 C 97.290 134.169, 91.342 139.938, 89.332 144.747 C 87.628 148.827, 87.452 157.841, 88.977 163 C 89.931 166.226, 89.797 166.657, 87.267 168.500 C 77.972 175.271, 69.936 182.291, 70.312 183.312 C 70.885 184.867, 71.336 184.743, 86.102 178.965 C 104.181 171.892, 109.852 170.541, 121.573 170.519 C 130.844 170.502, 131.969 170.714, 135.702 173.184 C 140.451 176.327, 143.523 182.117, 144.516 189.800 C 144.893 192.715, 145.508 194.965, 145.884 194.800 C 149.814 193.073, 167.079 179.947, 172.816 174.323 C 179.334 167.933, 180.103 166.786, 179.819 163.871 C 179.354 159.095, 175.514 157.342, 160.412 155.015 C 146.155 152.819, 142.877 152.022, 138.252 149.630 C 131.332 146.052, 130.375 140.829, 134.933 131.500 C 139.364 122.429, 139.229 122.550, 142.818 124.406 C 153.200 129.775, 165.283 121.416, 173.893 102.908 C 178.482 93.043, 180.116 85.909, 180.098 75.824 C 180.082 67.190, 178.183 60.240, 174.534 55.455 L 171.899 52.001 175.449 43.126 C 179.995 31.764, 180.349 24.572, 176.451 22.796 C 171.651 20.609, 162.700 25.434, 151.138 36.443 C 134.321 52.454, 134.984 60.576, 152.425 52.207 C 160.359 48.400, 160.956 48.264, 163.652 49.655 C 165.219 50.464, 166.871 51.490, 167.324 51.937 C 168.059 52.661, 160.611 69, 159.546 69 C 159.309 69, 157.626 68.135, 155.807 67.077 C 150.823 64.180, 142.658 62.182, 131.076 61.026 C 125.343 60.454, 120.516 59.849, 120.348 59.681 C 120.180 59.513, 127.152 52.317, 135.842 43.688 C 151.089 28.548, 151.785 28, 155.748 28 C 159.699 28, 159.995 27.770, 163.521 21.965 C 168.621 13.570, 167.294 10.473, 160.827 15.677 M 41.486 23.461 C 33.051 31.896, 23.999 48.728, 21.517 60.590 C 19.966 67.999, 20.692 72.086, 23.806 73.487 C 26.504 74.701, 26.510 75.155, 23.924 81.960 C 18.947 95.055, 20.470 106.417, 29.979 127.118 C 39.157 147.098, 40.701 154.483, 37.549 163.321 C 36.310 166.796, 36.337 167.081, 37.843 166.468 C 44.559 163.737, 51.026 162.017, 60.047 160.562 C 74.435 158.242, 76 157.549, 76 153.501 C 76 149.486, 73.984 144.535, 68.767 135.737 L 64.757 128.974 69.959 110.237 C 76.079 88.190, 79.007 81, 81.862 81 C 84.014 81, 84.814 82.749, 89.933 98.654 C 91.553 103.689, 94.476 110.981, 96.428 114.857 C 99.699 121.352, 100.272 121.955, 103.739 122.537 C 110.256 123.631, 114 125.106, 114 126.578 C 114 127.360, 111.713 129.238, 108.918 130.750 C 92.838 139.450, 88.034 147.778, 91.436 161.055 C 92.323 164.518, 92.700 167.647, 92.274 168.008 C 91.848 168.369, 88.688 170.832, 85.250 173.480 C 81.813 176.128, 79 178.418, 79 178.569 C 79 178.720, 82.815 177.305, 87.478 175.424 C 101.856 169.627, 110.473 167.603, 121 167.549 C 129.062 167.507, 131.236 167.862, 135.363 169.894 C 141.103 172.720, 145.578 179.002, 146.572 185.630 C 146.932 188.033, 147.556 190, 147.958 190 C 149.571 190, 168.774 175.047, 172.750 170.696 C 177.441 165.562, 178.084 162.651, 174.904 160.949 C 173.751 160.332, 166.047 158.735, 157.784 157.401 C 140.916 154.677, 134.800 152.272, 131.162 146.932 C 129.277 144.166, 128.935 142.669, 129.397 139.217 C 130.036 134.444, 133.894 126.026, 137.469 121.603 L 139.810 118.705 142.540 120.853 C 145.769 123.392, 151.752 123.697, 155.935 121.534 C 163.930 117.399, 173.795 100.655, 176.577 86.500 C 178.446 76.985, 177.897 68.957, 174.902 61.993 C 171.395 53.841, 170.787 53.925, 165.907 63.229 C 160.917 72.743, 159.738 74.856, 155.168 82.475 L 151.836 88.030 154.358 93.090 C 157.043 98.479, 156.920 101, 153.971 101 C 152.972 101, 146.953 98.460, 140.595 95.355 C 127.608 89.013, 120.786 87.600, 116.551 90.374 C 113.392 92.444, 111.755 95.457, 111.055 100.487 C 110.707 102.983, 109.919 104.585, 108.947 104.772 C 107.720 105.008, 107.480 104.327, 107.807 101.529 C 108.468 95.868, 107.204 91.554, 103.440 86.625 C 96.193 77.135, 80.376 69.179, 66.919 68.257 C 62.682 67.967, 58.109 68.007, 56.756 68.346 C 54.356 68.949, 54.319 69.102, 55.230 74.732 C 55.743 77.904, 55.976 86.350, 55.748 93.500 C 55.293 107.744, 53.360 115.217, 48.472 121.625 C 45.747 125.199, 41.287 128.620, 40.448 127.782 C 40.179 127.512, 38.814 122.839, 37.414 117.396 C 35.240 108.944, 34.921 105.823, 35.227 96 C 35.542 85.888, 35.908 83.879, 38.258 79.351 C 40.840 74.379, 47.225 68, 49.622 68 C 50.487 68, 50.522 66.954, 49.756 63.938 C 49.008 60.991, 49.040 59.560, 49.871 58.729 C 50.732 57.868, 51.318 58.382, 52.229 60.796 C 53.304 63.643, 53.786 63.949, 56.471 63.494 C 63.012 62.386, 82.322 60.937, 98.666 60.330 L 115.833 59.691 131.166 44.325 L 146.500 28.959 138 29.460 C 133.325 29.736, 121.774 30.199, 112.331 30.490 C 94.130 31.049, 88.687 31.684, 89.587 33.141 C 90.820 35.136, 103.800 40.759, 123 47.614 C 123.825 47.908, 115.725 50.410, 105 53.174 C 88.526 57.420, 83.948 58.223, 75.500 58.350 C 64.439 58.516, 60.727 57.206, 56.605 51.679 C 54.476 48.826, 54.120 43.618, 55.042 28.829 C 55.695 18.363, 49.168 15.779, 41.486 23.461 M 157.500 22 C 154.932 24.680, 154.836 25, 156.597 25 C 157.727 25, 159.325 23.720, 160.341 22 C 161.316 20.350, 161.722 19, 161.244 19 C 160.765 19, 159.081 20.350, 157.500 22 M 165.441 28.556 C 156.616 33.837, 142 48.736, 142 52.450 C 142 53.738, 145.105 52.759, 152.760 49.057 L 160.915 45.113 165.379 47.487 L 169.843 49.860 172.317 43.680 C 179.668 25.311, 177.784 21.169, 165.441 28.556 M 83.500 63.675 C 80.750 63.849, 76.475 64.278, 74 64.630 L 69.500 65.269 75.084 66.573 C 81.618 68.100, 90.075 71.790, 94.937 75.236 L 98.375 77.672 103.687 71.410 C 106.609 67.966, 109 64.664, 109 64.074 C 109 63.052, 96.503 62.856, 83.500 63.675 M 115.502 63.996 C 114.464 65.676, 117.579 68.062, 126.946 72.763 C 134.114 76.361, 134.777 76.500, 144.774 76.500 C 153.855 76.500, 155.334 76.259, 156.562 74.582 C 158.215 72.324, 157.231 70.688, 152.862 68.428 C 145.858 64.807, 117.109 61.396, 115.502 63.996 M 106.870 73.350 L 101.241 79.565 105.071 84.339 C 107.177 86.964, 109.191 90.026, 109.545 91.143 C 110.189 93.171, 110.192 93.171, 111.656 91.081 C 113.691 88.176, 118.259 86, 122.325 86 C 126.789 86, 132.255 87.978, 143.246 93.571 C 148.173 96.078, 152.476 97.857, 152.809 97.524 C 153.142 97.192, 152.350 94.971, 151.049 92.590 L 148.684 88.260 151.144 83.858 L 153.604 79.457 146.845 79.839 C 136.785 80.407, 125.542 76.490, 114.500 68.570 C 112.640 67.237, 112.105 67.572, 106.870 73.350 M 48.500 71.862 C 42.440 75.602, 38.651 82.540, 37.502 92 C 36.756 98.142, 38.265 111.164, 40.656 119.211 L 42.227 124.500 45.552 120.654 C 50.925 114.441, 52.234 109.369, 52.690 93 C 52.913 85.025, 52.736 76.590, 52.298 74.255 L 51.500 70.010 48.500 71.862" stroke="none" fill="black" fill-rule="evenodd"/>
</svg>