<svg xmlns="http://www.w3.org/2000/svg" width="200" height="200" viewBox="0 0 200 200" version="1.1">
	<path d="M 43.143 17.545 C 41.160 20.067, 39.795 23.368, 32.068 44.326 C 27.007 58.055, 22.878 64.023, 17.173 65.852 L 12.956 67.204 18.728 70.677 C 26.494 75.349, 27.582 76.447, 30.629 82.674 C 34.692 90.978, 33.811 99.807, 26.757 121.500 C 20.354 141.188, 19.469 146.007, 21.082 152.411 C 22.483 157.977, 21.624 158.094, 38.630 150.015 C 62.944 138.464, 75 128.731, 75 120.653 C 75 115.276, 64.932 109.833, 52.222 108.339 C 49.319 107.997, 46.698 107.320, 46.397 106.833 C 45.665 105.650, 55.093 88.076, 60.658 80.249 C 65.529 73.399, 69.926 70.354, 72.759 71.872 C 73.717 72.385, 76.975 77.173, 80 82.512 C 86.099 93.277, 90.071 97.403, 95.824 98.953 C 100.651 100.252, 107.707 98.350, 114.084 94.029 C 117.883 91.455, 119.431 91.034, 125.161 91.018 L 131.823 91 130.376 97.202 C 129.580 100.613, 128.711 103.622, 128.446 103.888 C 127.144 105.189, 101.844 104.224, 93.707 102.563 C 85.292 100.845, 84.830 100.844, 82.957 102.539 C 80.281 104.960, 80.408 111.214, 83.469 127.683 C 88.226 153.290, 87.796 167.482, 81.923 178.647 C 79.613 183.038, 79.338 184.193, 80.499 184.638 C 82.613 185.449, 119.832 166.786, 124.250 162.699 C 129.438 157.900, 129.181 155.552, 122.626 147.830 C 119.671 144.348, 116.265 139.546, 115.059 137.158 C 112.235 131.569, 110.802 122.904, 111.601 116.250 C 112.160 111.585, 112.492 111, 114.580 111 C 117.982 111, 123.223 116.055, 126.728 122.715 C 128.403 125.897, 132.134 135.025, 135.021 143 C 142.242 162.953, 145.594 169.690, 150.984 175.079 C 155.892 179.987, 160.484 181.646, 165.690 180.391 C 169.161 179.555, 176.664 175.733, 179.959 173.123 L 182.418 171.176 175.418 164.338 C 162.284 151.509, 160.826 143.987, 167.985 126 C 170.284 120.225, 172.664 115.321, 173.275 115.102 C 173.886 114.884, 175.424 113.666, 176.693 112.398 C 179.722 109.369, 179.674 105.508, 176.416 89.888 C 171.496 66.301, 172.166 48.831, 178.517 35.151 C 181.431 28.872, 181.410 29, 179.564 29 C 177.860 29, 160.691 48.436, 151.202 61.109 C 144.706 69.783, 144.482 69.970, 143.910 67.192 C 143.095 63.238, 142.184 62, 140.087 62 C 138.711 62, 137.731 60.142, 135.896 54.052 C 134.578 49.681, 133.207 46.418, 132.848 46.802 C 132.490 47.186, 128.727 54.010, 124.487 61.967 C 120.246 69.924, 115.655 78.024, 114.284 79.967 L 111.792 83.500 112.474 80.500 C 114.604 71.143, 125.183 51.734, 131.108 46.310 C 137.141 40.789, 141.866 41.744, 145.274 49.174 C 146.492 51.828, 147.786 54, 148.150 54 C 148.514 54, 149.119 51.768, 149.494 49.040 C 151.869 31.774, 140.154 28.728, 114.978 40.064 C 110.170 42.229, 105.563 44, 104.740 44 C 103.918 44, 102.689 44.670, 102.010 45.488 C 99.311 48.741, 103.964 48.011, 113.633 43.665 C 132.177 35.331, 141.189 33.882, 144.927 38.635 C 146.067 40.084, 147 42.193, 147 43.322 C 147 45.241, 146.818 45.199, 144.195 42.687 C 138.612 37.338, 131.399 40.349, 123.668 51.253 C 116.300 61.646, 109 77.954, 109 84.023 C 109 86.293, 109.456 87, 110.922 87 C 113.209 87, 118.152 79.744, 126.589 64.002 L 132.437 53.092 134.587 59.030 C 136.522 64.376, 136.605 65.393, 135.420 69.234 C 134.695 71.580, 133.589 76.762, 132.961 80.750 L 131.819 88 125.010 88 C 118.898 88, 117.674 88.355, 113.049 91.467 C 107.976 94.881, 102.428 96.987, 98.500 96.991 C 93.467 96.995, 88.151 91.682, 82.001 80.500 C 77.325 71.997, 74.309 69, 70.431 69 C 66.181 69, 60.539 74.660, 54.102 85.378 C 49.018 93.844, 41.999 107.386, 42.001 108.725 C 42.002 109.151, 46.508 110.230, 52.014 111.122 C 57.828 112.063, 64.012 113.762, 66.763 115.174 C 70.808 117.250, 71.547 118.094, 71.825 120.955 C 72.113 123.925, 71.475 124.938, 66.195 129.902 C 59.783 135.930, 49.020 142.416, 34.193 149.184 C 26.323 152.777, 24.732 153.206, 23.888 151.966 C 21.907 149.054, 23.902 138.442, 29.616 121.500 C 34.940 105.717, 35.355 103.820, 35.425 95 C 35.487 87.100, 35.138 84.825, 33.352 81.491 C 31.315 77.686, 26.662 72.554, 22.681 69.721 C 20.974 68.506, 21.077 68.198, 24.351 64.727 C 28.812 59.996, 31.795 53.837, 37.949 36.645 C 43.216 21.928, 45.402 17.634, 47.305 18.268 C 50.963 19.488, 56.948 36.014, 56.984 45 C 57.033 56.762, 60.702 64, 66.617 64 C 75.877 64, 88.301 48.536, 91.135 33.481 C 92.835 24.447, 92.548 24.883, 95.705 26.529 C 97.242 27.330, 101.165 28.513, 104.423 29.157 C 109.502 30.161, 110.012 30.451, 108.003 31.195 C 106.455 31.767, 105.997 32.397, 106.652 33.052 C 107.308 33.708, 110.162 33.216, 115.072 31.603 C 119.157 30.260, 128.209 27.821, 135.186 26.183 C 149.637 22.791, 159 18.962, 159 16.444 C 159 14.122, 155.220 14.927, 134.930 21.573 C 122.824 25.538, 116.843 27, 112.729 27 C 104.140 27, 97.267 25.174, 93.539 21.900 C 91.722 20.305, 90.070 19.003, 89.868 19.008 C 89.666 19.012, 89.445 22.049, 89.378 25.758 C 89.165 37.564, 82.149 51.982, 73.605 58.171 C 65.133 64.308, 60.005 59.881, 60.002 46.425 C 60 41.608, 59.242 37.122, 57.625 32.367 C 52.083 16.073, 47.772 11.661, 43.143 17.545 M 166.148 46.797 C 151.080 64.465, 135.968 86.885, 138.304 88.106 C 138.962 88.449, 141.838 88.992, 144.696 89.312 C 159.272 90.942, 159.761 98.345, 145.593 102.901 C 142.242 103.978, 138.037 105.152, 136.250 105.510 C 131.576 106.443, 131.972 109, 136.790 109 C 142.266 109, 152.194 111.785, 154.355 113.926 C 160.366 119.886, 145.387 125.412, 136.206 120.622 C 132.312 118.590, 129.009 113.604, 129.004 109.750 L 129 107 116.250 106.992 C 109.237 106.988, 100.575 106.466, 97 105.833 C 93.425 105.199, 89.150 104.640, 87.500 104.590 C 84.577 104.502, 84.492 104.634, 84.200 109.686 C 84.035 112.538, 84.812 119.738, 85.926 125.686 C 90.710 151.225, 90.760 165.971, 86.099 176.508 L 84.178 180.852 93.839 176.373 C 115.092 166.519, 125 160.307, 125 156.835 C 125 155.700, 122.767 152.194, 120.038 149.044 C 111.934 139.689, 109.664 134.197, 109.181 122.777 C 108.658 110.414, 109.219 108, 112.618 108 C 118.791 108, 125.168 113.399, 129.746 122.500 C 130.852 124.700, 134.350 133.475, 137.519 142 C 146.458 166.047, 150.451 173.063, 157.200 176.589 C 160.902 178.523, 164.684 178.326, 169.982 175.923 C 178.861 171.895, 178.883 171.662, 171.126 163.495 C 159.229 150.972, 158.199 143.040, 165.959 123.736 C 169.320 115.377, 170.869 112.694, 172.893 111.728 C 176.606 109.957, 176.710 104.830, 173.361 88.738 C 169.983 72.515, 169.517 54.179, 172.237 44.543 C 173.162 41.266, 173.824 38.493, 173.709 38.380 C 173.594 38.268, 170.191 42.055, 166.148 46.797 M 137.181 73.612 C 135.365 81.789, 134.741 85.525, 135.277 85 C 137.181 83.136, 141.957 73.583, 141.228 73.098 C 140.734 72.769, 139.865 71.650, 139.297 70.612 C 138.418 69.002, 138.106 69.445, 137.181 73.612 M 135.233 92.634 C 133.774 95.465, 133.024 103, 134.201 103 C 136.326 103, 147.538 99.773, 150.206 98.394 C 155.869 95.465, 152.535 92.841, 141.347 91.422 C 136.934 90.862, 136.056 91.036, 135.233 92.634 M 132 111.766 C 132 113.435, 135.248 117.077, 138.011 118.506 C 141.466 120.292, 146.942 120.439, 150.453 118.839 C 153.323 117.532, 153.589 116.734, 151.682 115.151 C 149.523 113.359, 132 110.345, 132 111.766" stroke="none" fill="black" fill-rule="evenodd"/>
</svg>