<svg xmlns="http://www.w3.org/2000/svg" width="200" height="200" viewBox="0 0 200 200" version="1.1">
	<path d="M 46.537 15.750 C 45.537 22.521, 40.765 42.350, 38.293 50 C 36.961 54.125, 31.388 68.413, 25.910 81.750 C 16.208 105.371, 13.933 112, 15.528 112 C 15.956 112, 18.718 109.719, 21.665 106.932 C 28.080 100.865, 30.878 100.620, 32.319 106 C 32.905 108.188, 32.892 116.995, 32.282 129.500 C 31.746 140.500, 31.359 155.579, 31.422 163.010 C 31.552 178.528, 32.820 182.153, 39.219 185.304 C 44.164 187.740, 49.692 186.247, 55.477 180.914 C 64.922 172.209, 67.170 158.335, 61.200 145.601 L 57.966 138.702 60.233 134.101 C 62.330 129.845, 62.468 128.489, 62.074 116 C 60.948 80.318, 61.307 77.444, 67.277 74.357 C 71.608 72.117, 79.949 72.210, 81.636 74.517 C 83.648 77.269, 83.307 84.255, 80.500 97.806 C 77.527 112.155, 77.375 119.026, 79.905 124.599 C 82.871 131.129, 89.076 134.578, 100.038 135.789 C 105.744 136.419, 106.624 136.811, 107.788 139.242 C 110.800 145.529, 103.603 153.171, 79.500 169.279 C 66.659 177.861, 62.417 181.211, 62.160 182.973 C 61.827 185.265, 61.936 185.295, 68.357 184.696 C 78.202 183.776, 88.615 179.841, 108.500 169.526 C 122.729 162.145, 134.686 157, 137.612 157 C 137.749 157, 139.510 160.430, 141.527 164.623 C 149.918 182.068, 163.262 187.702, 172.665 177.769 C 177.034 173.154, 178 170.847, 178 165.026 C 178 158.927, 175.434 153.388, 170.794 149.471 C 166.937 146.214, 158.876 142.281, 154.250 141.398 L 151 140.777 151 134.296 C 151 121.749, 157.328 97.217, 163.947 84.105 C 165.734 80.566, 168.644 76.805, 171.127 74.827 C 177.104 70.064, 181 66.292, 181 65.268 C 181 64.781, 180.404 63.567, 179.675 62.570 C 176.644 58.425, 152.397 60.074, 134.821 65.619 C 128.443 67.632, 126.415 67.879, 122.849 67.077 C 113.371 64.948, 113.578 58.432, 123.943 32.573 C 125.690 28.213, 127.191 22.878, 127.277 20.718 C 127.513 14.787, 125.768 13.994, 113.676 14.539 C 104.450 14.955, 103.386 15.214, 100.831 17.661 C 97.217 21.124, 96.347 23.963, 93.507 41.558 C 92.209 49.604, 90.895 56.438, 90.588 56.745 C 89.856 57.478, 76.169 43.107, 75.454 40.854 C 75.150 39.897, 75.824 37.306, 76.951 35.097 C 79.445 30.207, 79.632 23.775, 77.345 21.488 C 74.611 18.754, 71.313 18, 62.090 18 C 54.854 18, 53.019 17.678, 51.655 16.171 C 50.745 15.165, 50 13.815, 50 13.171 C 50 12.527, 49.345 12, 48.545 12 C 47.629 12, 46.886 13.389, 46.537 15.750 M 104.187 18.330 C 100.590 19.935, 98.736 25.555, 96.045 43.017 C 94.984 49.901, 93.832 56.275, 93.484 57.181 C 92.856 58.817, 96.948 62.351, 107.569 69.347 C 111.465 71.913, 111.772 71.960, 114.771 70.465 C 117.862 68.922, 117.878 68.878, 115.977 66.977 C 111.402 62.402, 112.083 55.898, 119.015 37.962 C 121.798 30.761, 124.171 23.211, 124.288 21.184 L 124.500 17.500 115.323 17.478 C 110.275 17.466, 105.264 17.849, 104.187 18.330 M 48.551 21.132 C 48.250 22.434, 47.092 27.550, 45.976 32.500 C 43.004 45.692, 38.765 57.902, 28.845 81.849 C 23.980 93.590, 20 103.384, 20 103.613 C 20 103.841, 21.764 102.861, 23.920 101.434 C 28.808 98.200, 31.997 98.537, 33.991 102.500 C 35.205 104.914, 35.410 108.428, 35.038 120.500 C 34.784 128.750, 34.559 144.745, 34.538 156.044 C 34.504 174.196, 34.710 176.909, 36.303 179.340 C 40.225 185.325, 47.435 185.114, 53.866 178.827 C 59.518 173.301, 61.451 168.490, 61.477 159.880 C 61.498 153.080, 61.114 151.509, 57.919 145.280 C 54.410 138.441, 54.374 138.256, 56.156 136.056 C 60.317 130.917, 60.538 126.920, 58.384 95.800 C 57.545 83.686, 58.876 78.194, 63.669 73.986 C 65.539 72.344, 67.504 71, 68.035 71 C 68.566 71, 69 70.550, 69 70 C 69 69.450, 68.305 69, 67.455 69 C 64.806 69, 61 64.337, 61 61.093 C 61 59.444, 62.809 54.659, 65.021 50.460 L 69.042 42.826 63.849 37.163 C 60.993 34.048, 56.666 28.800, 54.234 25.500 C 51.801 22.200, 49.650 19.334, 49.454 19.132 C 49.258 18.930, 48.851 19.830, 48.551 21.132 M 64.645 29.628 L 72.478 38.256 74.833 33.068 C 79.038 23.799, 76.489 21, 63.841 21 L 56.812 21 64.645 29.628 M 67.902 50.671 C 65.774 54.390, 64.621 57.773, 64.573 60.431 C 64.506 64.175, 64.802 64.648, 68.287 66.350 C 76.164 70.198, 84.177 69.430, 87.395 64.520 C 88.778 62.409, 88.675 61.956, 86.002 58.371 C 83.445 54.941, 75.526 47.591, 72.329 45.680 C 71.590 45.238, 69.957 47.079, 67.902 50.671 M 96.657 69.137 C 104.019 80.517, 107.262 89.095, 107.786 98.575 C 108.257 107.089, 107.146 110.894, 102.800 115.652 L 100.835 117.805 103.667 118.368 C 105.225 118.678, 110.262 119.456, 114.860 120.097 C 124.524 121.444, 123.930 121.837, 127.112 112 C 129.665 104.105, 130.717 88.302, 129.088 82.295 C 127.614 76.862, 123.532 72, 120.445 72 C 119.138 72, 116.511 72.742, 114.608 73.650 L 111.148 75.300 102.824 69.355 C 98.246 66.085, 93.924 63.058, 93.220 62.628 C 92.516 62.197, 94.063 65.126, 96.657 69.137 M 151.500 64.506 C 147.650 65.215, 141.800 66.567, 138.500 67.510 C 135.200 68.454, 130.812 69.447, 128.750 69.718 L 124.999 70.210 127.475 73.153 C 132.765 79.439, 134.433 93.101, 131.485 106 C 129.470 114.818, 125.806 124, 124.302 124 C 119.056 124, 100.224 120.607, 99.047 119.450 C 97.777 118.203, 97.871 117.672, 99.790 115.261 C 104.439 109.418, 105.444 106.667, 105.366 100 C 105.273 92.085, 101.897 82.711, 95.364 72.229 L 90.817 64.934 87.104 68.217 C 83.514 71.393, 83.435 71.605, 84.696 74.718 C 86.543 79.276, 86.340 83.056, 83.500 97 C 80.537 111.547, 80.326 119.148, 82.752 123.995 C 85.245 128.979, 91.556 132.164, 100.157 132.779 C 106.018 133.198, 107.369 133.654, 109.035 135.772 C 110.187 137.237, 111 139.806, 111 141.985 C 111 149.304, 103.131 157.092, 81.038 171.637 C 73.635 176.512, 67.110 180.873, 66.538 181.328 C 64.798 182.715, 75.443 181.080, 81.658 179.006 C 84.871 177.933, 96.992 172.249, 108.593 166.373 C 125.890 157.613, 130.672 155.609, 135.169 155.236 L 140.652 154.781 142.831 160.641 C 147.476 173.129, 156.468 181.073, 164.298 179.604 C 169.088 178.705, 173.576 174.288, 174.974 169.096 C 177.795 158.622, 171.112 150.075, 156.136 145.002 L 148.500 142.416 148.199 136.085 C 147.327 117.736, 159.368 80.729, 168.649 73.232 C 178.101 65.598, 178.572 65.078, 177 64.030 C 174.943 62.659, 160.015 62.937, 151.500 64.506" stroke="none" fill="black" fill-rule="evenodd"/>
</svg>