<svg xmlns="http://www.w3.org/2000/svg" width="200" height="200" viewBox="0 0 200 200" version="1.1">
	<path d="M 30.250 12.491 C 26.422 14.155, 26.144 16.249, 28.622 24.771 C 31.601 35.017, 28.861 45.433, 20.294 56.428 C 16.979 60.684, 16.509 61.997, 16.173 67.947 C 15.453 80.689, 21.531 112.248, 29.067 134.891 C 33.650 148.664, 35.883 153.517, 37.085 152.315 C 37.770 151.630, 37.118 148.831, 35.070 143.675 C 27.264 124.027, 20.229 93.021, 19.374 74.500 L 18.820 62.500 23.053 57 C 33.148 43.881, 35.080 32.141, 29.497 17.827 C 28.233 14.584, 32.288 13.865, 51.810 13.873 C 71.034 13.881, 127.076 15.584, 141.763 16.606 C 151.743 17.301, 151.809 17.382, 153.058 30.591 C 153.548 35.766, 154.619 41.296, 155.438 42.881 C 158.971 49.712, 168.159 54, 179.265 54 C 182.511 54, 185.013 54.337, 184.825 54.750 C 184.637 55.162, 182.831 58.689, 180.811 62.587 C 175.220 73.377, 173.805 80.181, 173.111 99.603 L 172.500 116.706 157.009 101.853 L 141.518 87 146.743 87 C 151.089 87, 152.512 86.515, 155.195 84.117 C 158.139 81.486, 158.456 80.625, 158.815 74.268 L 159.209 67.301 153.753 66.738 C 142.925 65.621, 126.460 54.742, 121.814 45.635 C 117.235 36.661, 120.252 29.082, 129.246 26.964 C 136.254 25.313, 144 21.344, 144 19.404 C 144 17.533, 140.324 18.114, 132.500 21.220 C 129.750 22.312, 125.925 23.814, 124 24.559 C 121.731 25.436, 115.928 25.930, 107.500 25.962 C 100.350 25.989, 92.755 26.496, 90.622 27.088 C 86.758 28.161, 82.718 31.346, 81.826 34.023 C 81.475 35.076, 80.113 34.525, 76.428 31.837 C 73.718 29.860, 69.249 27.074, 66.497 25.646 C 51.695 17.962, 48.677 23.233, 55.837 44.268 L 59.674 55.541 55.965 59.409 C 52.209 63.325, 49.360 63.591, 50.527 59.916 C 50.941 58.609, 50.658 58, 49.635 58 C 48.115 58, 47.270 59.748, 46.378 64.741 C 46.106 66.259, 45.021 71.550, 43.965 76.500 C 41.228 89.331, 39.009 103.785, 39.004 108.816 C 38.992 121.995, 46.210 118.761, 56.422 101.012 C 61.509 92.170, 68.263 78.880, 67.814 78.596 C 67.641 78.487, 64.862 77.871, 61.638 77.228 C 54.679 75.840, 52.995 74.648, 53.015 71.128 C 53.047 65.772, 53.750 65.653, 66.420 68.854 C 72.873 70.485, 78.430 72.097, 78.769 72.435 C 79.108 72.774, 77.883 77.877, 76.047 83.776 C 69.745 104.027, 68 111.898, 68 120.073 C 68 129.688, 70.528 137.131, 75.462 142.042 C 79.179 145.741, 79.756 147, 77.734 147 C 77.038 147, 66.350 152.620, 53.984 159.489 C 31.726 171.853, 23 175.895, 23 173.844 C 23 173.274, 23.955 171.467, 25.123 169.827 C 26.567 167.800, 26.919 166.519, 26.225 165.825 C 24.912 164.512, 20 171.540, 20 174.732 C 20 176.580, 20.550 177, 22.971 177 C 27.120 177, 34.316 173.631, 55.231 161.898 C 65.186 156.313, 75.765 150.667, 78.738 149.352 L 84.144 146.962 79.512 142.460 C 72.004 135.163, 69.321 126.028, 71.045 113.630 C 71.893 107.534, 81.174 74.493, 82.376 73.291 C 83.011 72.656, 92 75.181, 92 75.995 C 92 76.411, 88.850 81.395, 85 87.071 C 74.233 102.943, 75.635 105.655, 90.090 96.916 C 117.223 80.512, 125.035 80.621, 124.985 97.399 C 124.976 100.205, 124.619 103.051, 124.191 103.725 C 123.763 104.398, 115.865 108.582, 106.639 113.022 C 97.023 117.650, 90.029 121.587, 90.250 122.249 C 90.461 122.884, 92.179 124.255, 94.067 125.297 C 102.827 130.129, 106.031 136.149, 106.774 149.167 C 107.273 157.920, 107.271 157.927, 104.011 161.640 C 94.700 172.245, 97.718 179.959, 110.675 178.674 C 117.846 177.962, 124.034 174.984, 130.067 169.341 C 137.722 162.181, 140.273 156.484, 140.797 145.381 C 141.101 138.939, 140.767 134.692, 139.660 130.917 C 138.799 127.978, 138.266 125.401, 138.476 125.190 C 138.687 124.980, 142.017 125.526, 145.877 126.404 C 155.040 128.488, 166.154 128.489, 170.181 126.406 C 172.418 125.250, 174.531 124.999, 177.882 125.491 L 182.500 126.169 179.250 122.787 L 176 119.405 176.017 102.952 C 176.042 79.863, 178.853 68.580, 187.664 56.206 L 191.015 51.500 179.757 50.946 C 167.412 50.339, 163.995 49.159, 159.659 44.006 C 156.960 40.799, 156.495 38.981, 155.436 27.500 C 154.726 19.814, 152.971 15.437, 150.261 14.594 C 147.532 13.746, 70.781 10.995, 51.077 11.039 C 38.210 11.068, 32.629 11.457, 30.250 12.491 M 54.889 26.750 C 54.646 30.600, 55.316 33.897, 58.141 42.750 C 59.765 47.837, 61.522 52, 62.044 52 C 62.567 52, 65.808 49.928, 69.247 47.397 C 72.686 44.865, 76.737 42.153, 78.250 41.371 C 79.763 40.589, 81 39.575, 81 39.119 C 81 37.965, 70.573 30.799, 64.283 27.629 C 58.172 24.549, 55.047 24.257, 54.889 26.750 M 116.169 28.716 C 113.963 29.136, 113.936 29.233, 115.666 30.498 C 116.952 31.438, 117.866 31.526, 118.747 30.795 C 120.118 29.657, 120.447 27.919, 119.250 28.136 C 118.838 28.211, 117.451 28.472, 116.169 28.716 M 89 30.752 C 86.827 31.837, 85.379 33.353, 85.180 34.750 C 84.787 37.519, 85.052 37.525, 90.278 34.858 C 92.587 33.680, 96.732 31.913, 99.488 30.931 L 104.500 29.146 98.500 29.075 C 94.662 29.029, 91.239 29.633, 89 30.752 M 99.500 33.878 C 96.750 34.872, 92.799 36.560, 90.719 37.630 L 86.938 39.575 96.031 47.038 C 101.031 51.142, 105.525 54.643, 106.017 54.819 C 107.355 55.295, 112.791 46.187, 114.478 40.643 C 116.542 33.858, 115.400 31.989, 109.215 32.036 C 106.622 32.056, 102.250 32.885, 99.500 33.878 M 75.187 46.653 L 68.008 51.408 72.448 52.535 C 79.697 54.376, 82.075 57.295, 82.962 65.441 L 83.500 70.383 88.895 71.746 C 92.024 72.536, 94.663 72.737, 95.176 72.224 C 95.689 71.711, 94.067 67.592, 91.315 62.420 C 88.704 57.514, 85.623 50.890, 84.468 47.699 L 82.366 41.899 75.187 46.653 M 86 44.331 C 86 45.127, 88.880 51.466, 92.400 58.416 C 95.919 65.366, 98.617 71.828, 98.394 72.776 C 98.064 74.179, 100.086 75.195, 109.244 78.229 C 122.481 82.614, 132.792 87.859, 137.572 92.638 C 141.873 96.940, 142.165 101.757, 138.512 108.148 C 137.144 110.542, 136.019 112.827, 136.012 113.227 C 135.982 115.042, 141.536 117.209, 150.619 118.928 C 166.127 121.862, 172.005 122.383, 171.974 120.822 C 171.960 120.095, 163.811 111.850, 153.864 102.500 C 138.332 87.899, 134.573 84.891, 127.229 81.187 C 118.120 76.593, 112.139 72.806, 105.204 67.239 C 101.060 63.912, 100.962 63.707, 102.454 61.430 C 103.304 60.132, 104 58.643, 104 58.121 C 104 57.266, 90.295 45.395, 87.250 43.614 C 86.489 43.168, 86 43.448, 86 44.331 M 113.140 49.998 C 110.863 53.815, 109 57.126, 109 57.355 C 109 58.509, 136.322 82.172, 138.696 83.075 C 140.214 83.652, 143.672 84.174, 146.380 84.236 C 150.576 84.332, 151.651 83.945, 153.652 81.618 C 155.311 79.689, 156 77.655, 156 74.681 L 156 70.473 150.750 69.229 C 139.137 66.476, 125.793 57.252, 120.390 48.243 L 117.280 43.057 113.140 49.998 M 60.279 58.570 L 55.653 63.398 67.076 66.152 C 73.359 67.667, 78.838 68.928, 79.250 68.954 C 79.662 68.979, 80 67.165, 80 64.923 C 80 61.750, 79.352 60.198, 77.077 57.923 C 75.469 56.315, 73.107 54.994, 71.827 54.986 C 70.547 54.979, 68.466 54.696, 67.202 54.357 C 65.362 53.864, 63.983 54.704, 60.279 58.570 M 105.604 61.590 C 105.268 62.465, 105.251 63.597, 105.566 64.106 C 106.342 65.362, 119.655 74.282, 124 76.458 C 127.463 78.193, 127.479 78.191, 125.500 76.280 C 120.929 71.865, 107.274 60, 106.765 60 C 106.462 60, 105.939 60.716, 105.604 61.590 M 49 65.294 C 49 65.456, 47.619 72.318, 45.931 80.544 C 42.597 96.787, 40.974 114, 42.775 114 C 44.876 114, 50.608 106.001, 57.250 93.799 C 60.962 86.979, 64 81.084, 64 80.699 C 64 80.315, 62.831 80, 61.401 80 C 57.838 80, 52.158 77.164, 50.859 74.736 C 50.269 73.634, 50.065 70.994, 50.405 68.867 C 50.781 66.518, 50.626 65, 50.012 65 C 49.455 65, 49 65.132, 49 65.294 M 90.738 83.250 C 84.832 91.568, 80.770 98.104, 81.225 98.559 C 81.429 98.762, 86.442 96, 92.365 92.421 C 98.288 88.842, 105.242 85.074, 107.817 84.048 C 110.875 82.829, 111.979 81.981, 111 81.602 C 106.213 79.751, 97.505 77, 96.431 77 C 95.741 77, 93.179 79.813, 90.738 83.250 M 127.523 92.104 C 127.898 93.811, 127.896 97.674, 127.520 100.689 L 126.835 106.170 111.750 113.558 C 103.453 117.621, 96.178 121.156, 95.583 121.414 C 94.948 121.689, 95.250 122.357, 96.310 123.025 C 105.045 128.533, 108.913 136.354, 109.747 150.193 L 110.271 158.885 106.113 163.609 C 98.421 172.348, 99.746 176.481, 110.014 175.782 C 120.691 175.055, 130.981 167.623, 135.802 157.155 C 139.396 149.353, 139.373 137.551, 135.746 127.750 C 134.200 123.571, 133.677 121.005, 134.374 121.012 C 134.993 121.018, 137.975 121.687, 141 122.498 C 149.422 124.755, 162.188 126.236, 164.822 125.262 C 166.634 124.591, 165.096 124.114, 157.822 123.087 C 144.914 121.266, 136.371 118.496, 134.405 115.495 C 132.684 112.868, 132.418 113.833, 137.579 103.988 C 139.751 99.845, 138.400 96.308, 133.094 92.250 C 127.750 88.163, 126.651 88.134, 127.523 92.104" stroke="none" fill="black" fill-rule="evenodd"/>
</svg>