<svg xmlns="http://www.w3.org/2000/svg" width="200" height="200" viewBox="0 0 200 200" version="1.1">
	<path d="M 102.977 11.560 C 102.411 13.049, 101.484 17.694, 100.916 21.883 C 99.078 35.436, 99.709 34.750, 93.718 29.710 C 90.848 27.295, 85.815 23.335, 82.533 20.910 C 79.251 18.484, 75.763 15.713, 74.783 14.750 C 73.802 13.788, 72.577 13, 72.059 13 C 70.449 13, 69.678 15.183, 71 16 C 71.704 16.435, 71.918 17.324, 71.486 18.023 C 70.688 19.314, 59.322 24.762, 43.218 31.574 C 38.113 33.733, 32.498 36.680, 30.740 38.122 C 27.848 40.494, 27.683 40.914, 29.013 42.516 C 30.351 44.128, 32.043 44.237, 47.860 43.726 C 57.417 43.417, 64.845 43.504, 64.368 43.919 C 63.891 44.335, 59.450 47.537, 54.500 51.035 C 36.323 63.883, 20 78.003, 20 80.880 C 20 81.362, 20.710 82.344, 21.577 83.064 C 24.061 85.125, 30.489 82.974, 48.530 74.044 C 69.317 63.755, 97 45.409, 97 41.922 C 97 40.205, 95.204 40.988, 90.907 44.578 C 75.029 57.843, 32.669 81, 24.281 81 C 20.421 81, 38.480 65.548, 60.309 50.173 C 71.689 42.157, 73.983 39.344, 68.899 39.640 C 67.579 39.716, 59.525 40.310, 51 40.959 C 41.782 41.661, 34.548 41.783, 33.151 41.261 C 31.053 40.476, 31.749 39.947, 39.651 36.315 C 44.518 34.078, 52.914 30.331, 58.309 27.989 C 63.704 25.647, 69.714 22.647, 71.665 21.323 L 75.213 18.916 84.356 25.878 C 89.385 29.707, 94.729 33.888, 96.231 35.170 L 98.963 37.500 98.005 49.500 C 97.478 56.100, 97.037 67.679, 97.024 75.231 L 97 88.962 94.446 89.603 C 90.278 90.649, 85.135 89.317, 76.322 84.911 C 66.431 79.966, 61.127 79.133, 54.192 81.436 C 46.092 84.127, 27.269 98.602, 29.269 100.602 C 29.617 100.950, 33.832 100.455, 38.636 99.502 C 49.101 97.425, 56.347 98.001, 63.508 101.478 C 70.921 105.078, 74.183 111.742, 70.250 115.252 C 68.256 117.032, 60.392 119.360, 59.090 118.556 C 58.615 118.262, 51.544 116.477, 43.375 114.588 C 32.421 112.054, 28.328 111.461, 27.781 112.327 C 26.877 113.754, 29.942 115.122, 41.625 118.508 C 46.354 119.879, 52.193 121, 54.600 121 C 61.831 121, 86 129.423, 86 131.943 C 86 134.445, 72.916 136.494, 44.628 138.422 C 24.628 139.785, 19.518 140.848, 22.906 142.942 C 24.545 143.955, 37.475 145.977, 42.791 146.052 L 46.500 146.105 44 147.799 C 37.434 152.250, 31.753 158.720, 28.330 165.646 C 22.275 177.898, 22.867 187.204, 29.509 184.178 C 32.621 182.760, 39.752 173.098, 45.587 162.394 L 50.115 154.087 58.393 151.391 L 66.670 148.695 71.377 151.046 C 78.526 154.616, 78.621 155.186, 72.720 159.067 C 66.311 163.282, 63.055 168.632, 64.701 172.243 C 67.019 177.331, 77.166 180, 94.195 180 L 105.117 180 100.377 173.840 C 97.769 170.451, 93.099 165.087, 89.999 161.918 C 84.683 156.485, 84.481 156.102, 86.464 155.198 C 89.444 153.840, 99.916 151.582, 100.504 152.171 C 100.774 152.441, 101.856 156.001, 102.909 160.081 C 106.732 174.907, 111.942 183.004, 119.026 185.126 C 122.425 186.144, 123.420 186.002, 127.683 183.888 L 132.500 181.500 132.795 174.188 C 133.428 158.512, 124.205 149, 108.374 149 C 103.743 149, 103 148.735, 103 147.082 C 103 145.269, 103.642 145.195, 114.750 145.718 C 122.216 146.069, 127.594 146.821, 129.500 147.779 C 131.150 148.609, 137.675 154.335, 144 160.505 C 150.325 166.675, 158.141 173.473, 161.369 175.611 C 164.598 177.750, 168.423 180.285, 169.869 181.245 C 173.207 183.458, 174.236 183.440, 177.108 181.113 L 179.438 179.227 173.227 177.484 C 167.257 175.809, 166.856 175.488, 162.905 169.232 C 157.635 160.888, 150.898 146.975, 151.587 145.860 C 151.879 145.387, 153.525 145, 155.245 145 C 159.903 145, 170.861 142.062, 176.187 139.385 C 180.148 137.395, 188.569 130.167, 187.757 129.455 C 187.615 129.332, 181.200 130.325, 173.500 131.663 C 165.800 133, 156.419 134.186, 152.654 134.297 L 145.808 134.500 143.869 129.618 C 142.802 126.933, 142.175 124.492, 142.473 124.193 C 143.980 122.687, 164.872 118.893, 174.750 118.333 C 182.789 117.876, 186 117.335, 186 116.435 C 186 114.768, 182.355 114.310, 157.690 112.877 L 136.880 111.668 135.366 108.741 C 134.534 107.131, 134.076 105.590, 134.350 105.317 C 134.623 105.044, 139.238 103.969, 144.605 102.930 C 155.506 100.819, 163.352 98.439, 166.802 96.197 C 170.537 93.771, 169.397 90.019, 164.025 87.064 L 159.549 84.601 146.025 87.442 C 138.586 89.005, 131.489 90.497, 130.253 90.758 C 128.017 91.230, 128.014 91.211, 129.617 87.373 C 131.618 82.586, 131.008 75.067, 128.083 68.455 L 126.006 63.760 128.253 65.372 C 141.367 74.782, 155.256 78.542, 167.505 75.999 C 178.100 73.799, 181.595 67.510, 175.720 61.216 C 172.685 57.965, 161.865 52.784, 152.413 50.056 L 144.326 47.721 152 43.880 C 159.718 40.017, 168.138 33.479, 170.089 29.834 C 171.451 27.288, 169.660 25, 166.304 25 C 162.241 25, 150.005 29.536, 133.814 37.045 C 125.391 40.951, 118.018 44.356, 117.428 44.612 C 116.839 44.868, 115.805 43.866, 115.130 42.387 C 113.488 38.783, 111.499 40.553, 112.938 44.337 C 113.987 47.096, 112.986 47.937, 111.257 45.750 C 110.713 45.063, 109.973 37.971, 109.612 29.991 C 109.251 22.011, 108.596 14.136, 108.156 12.491 C 107.099 8.537, 104.317 8.037, 102.977 11.560 M 104.830 15.091 C 104.475 15.967, 103.632 21.071, 102.957 26.434 L 101.730 36.184 104.365 38.819 L 107 41.455 106.912 32.477 C 106.807 21.710, 105.745 12.837, 104.830 15.091 M 155.500 30.854 C 151.100 32.410, 142.684 35.885, 136.797 38.578 C 124.739 44.092, 124.595 45.306, 135.982 45.429 C 141.311 45.487, 143.686 44.932, 149 42.385 C 156.080 38.992, 165.130 32.623, 166.901 29.786 C 167.849 28.269, 167.677 28.002, 165.758 28.013 C 164.516 28.021, 159.900 29.299, 155.500 30.854 M 100.603 52.767 C 100.254 59.770, 99.692 70.633, 99.354 76.907 C 98.652 89.960, 98.122 89.535, 107.825 83.701 L 113.150 80.500 112.916 75.500 C 112.531 67.255, 112.804 66, 114.978 66 C 116.482 66, 118.038 68.226, 121.478 75.296 C 123.965 80.409, 126 85.224, 126 85.996 C 126 87.036, 126.291 87.109, 127.126 86.274 C 127.815 85.585, 128.084 82.839, 127.820 79.191 C 127.292 71.894, 122.919 62.567, 116.758 55.601 C 112.888 51.224, 112.197 50.824, 110.279 51.851 C 107.128 53.537, 107 53.409, 107 48.568 C 107 44.826, 106.552 43.817, 104.119 42.085 L 101.239 40.034 100.603 52.767 M 119.156 46.883 C 115.541 49.174, 128.529 63.643, 138.781 68.745 C 146.600 72.637, 154.524 74.333, 162.418 73.804 C 171.914 73.169, 177.867 69.252, 175.420 65.250 C 171.505 58.848, 147.908 49.766, 135.523 49.893 C 130.405 49.946, 127.533 49.437, 124.742 47.983 C 120.349 45.693, 120.871 45.796, 119.156 46.883 M 115.479 75.594 L 116.160 81.689 111.330 84.763 C 108.674 86.454, 104.813 88.632, 102.750 89.604 C 98.363 91.670, 98.545 89.917, 100.017 116 C 101.405 140.592, 100.566 138.592, 109.798 139.308 C 114.034 139.636, 119.469 140.602, 121.876 141.453 C 124.706 142.454, 129.776 143, 136.233 143 C 144.923 143, 146.135 142.795, 145.607 141.418 C 145.273 140.548, 145 139.465, 145 139.012 C 145 138.558, 140.515 138.033, 135.034 137.844 C 127.470 137.583, 124.673 137.105, 123.431 135.862 C 120.088 132.514, 124.767 127.368, 134.265 123.945 C 136.335 123.198, 137.908 122.343, 137.760 122.044 C 137.611 121.745, 136.854 119.852, 136.076 117.838 C 134.546 113.876, 135.044 114.053, 120.790 112.430 C 110.055 111.207, 108.855 106.973, 118.686 105.004 C 130.638 102.611, 130.003 103.024, 128.290 98.750 C 127.463 96.688, 126.107 95, 125.276 95 C 124.174 95, 123.907 94.269, 124.285 92.288 C 124.633 90.469, 123.535 86.635, 120.949 80.635 C 115.865 68.843, 114.593 67.671, 115.479 75.594 M 52.500 84.886 C 48.439 86.757, 35.517 95.889, 36.153 96.439 C 36.344 96.604, 39.399 96.387, 42.942 95.956 C 50.159 95.078, 59.651 96.273, 64.383 98.655 C 68.966 100.962, 73.824 105.921, 74.495 108.978 C 75.326 112.763, 73.551 116.694, 70.048 118.824 L 67.047 120.650 72.774 122.445 C 80.402 124.838, 87.612 128.546, 88.344 130.454 C 90.445 135.928, 82.825 138.304, 57.500 140.070 C 35.095 141.632, 31.837 142.465, 44.243 143.457 C 49.602 143.886, 55.002 143.929, 56.243 143.553 C 57.484 143.177, 65.025 142.450, 73 141.939 C 87.563 141.004, 97.536 139.798, 98.476 138.857 C 98.754 138.579, 98.548 133.885, 98.017 128.426 C 97.486 122.967, 97.040 112.612, 97.026 105.417 L 97 92.333 91.073 92.333 C 86.037 92.333, 83.725 91.633, 75.681 87.667 C 64.959 82.380, 59.390 81.713, 52.500 84.886 M 142.753 90.905 C 136.293 92.420, 130.739 93.928, 130.412 94.255 C 130.084 94.582, 130.411 96.495, 131.138 98.504 C 132.450 102.134, 132.489 102.154, 136.980 101.518 C 144.537 100.448, 158.276 97.092, 162.250 95.345 C 166.765 93.360, 167.010 91.574, 163.050 89.526 C 159.113 87.490, 156.578 87.662, 142.753 90.905 M 120.500 107.410 L 115.500 108.628 119.500 109.287 C 128.493 110.770, 133 111.190, 133 110.548 C 133 110.174, 132.534 108.998, 131.965 107.934 C 130.777 105.715, 127.984 105.587, 120.500 107.410 M 138 114.934 C 138 116.376, 140.229 121.004, 140.911 120.977 C 141.235 120.964, 146.675 119.894, 153 118.600 L 164.500 116.246 153.500 115.575 C 147.450 115.206, 141.488 114.692, 140.250 114.433 C 139.012 114.174, 138 114.399, 138 114.934 M 131.946 128.250 C 122.124 133.265, 122.890 134.727, 135.866 135.734 C 143.216 136.305, 143.230 136.301, 142.497 133.990 C 141.411 130.569, 139.023 125, 138.642 125 C 138.459 125, 135.446 126.463, 131.946 128.250 M 178.882 133.451 C 178.634 133.700, 171.696 134.873, 163.465 136.060 C 155.234 137.246, 148.346 138.359, 148.159 138.533 C 147.971 138.707, 148.125 139.820, 148.502 141.006 C 149.125 142.970, 149.645 143.103, 154.343 142.497 C 165.306 141.084, 177.707 136.900, 179.491 134.014 C 180.124 132.991, 179.718 132.616, 178.882 133.451 M 106.768 142.725 C 108.565 142.947, 111.265 142.943, 112.768 142.715 C 114.271 142.486, 112.800 142.304, 109.500 142.310 C 106.200 142.315, 104.971 142.502, 106.768 142.725 M 77.156 145.679 C 70.205 147.324, 70.159 147.026, 78.109 151.815 C 81.700 153.978, 81.746 153.980, 87.109 152.144 C 90.074 151.129, 94.188 149.986, 96.250 149.604 C 99.067 149.082, 100 148.423, 100 146.955 C 100 145.203, 99.280 145, 93.082 145 C 89.277 145, 85.564 144.815, 84.832 144.589 C 84.099 144.363, 80.645 144.854, 77.156 145.679 M 65.813 145.683 C 66.534 145.972, 67.397 145.936, 67.729 145.604 C 68.061 145.272, 67.471 145.036, 66.417 145.079 C 65.252 145.127, 65.015 145.364, 65.813 145.683 M 145.052 157.634 C 151.588 164.032, 157.800 169.872, 158.855 170.611 C 160.106 171.487, 158.469 167.442, 154.149 158.977 L 147.524 146 140.346 146 L 133.168 146 145.052 157.634 M 49.820 148.580 C 42.983 150.684, 34.889 158.500, 30.535 167.203 C 27.149 173.970, 25.732 182, 27.922 182 C 29.582 182, 35.527 174.247, 40.562 165.516 C 43.278 160.805, 46.217 155.717, 47.094 154.208 C 48.233 152.248, 50.306 150.953, 54.344 149.681 C 57.455 148.700, 60 147.696, 60 147.449 C 60 146.551, 54.387 147.174, 49.820 148.580 M 104.425 154.750 C 105.994 163.840, 110.494 174.472, 114.579 178.739 C 118.973 183.330, 121.060 183.838, 126.385 181.613 C 130.206 180.016, 131.395 176.431, 130.355 169.648 C 128.818 159.627, 123.091 153.968, 112.566 152.070 C 103.627 150.458, 103.681 150.440, 104.425 154.750 M 74.760 160.937 C 61.698 169.221, 65.592 175.446, 84.743 176.898 C 90.109 177.305, 95.582 177.361, 96.903 177.023 C 99.229 176.428, 99.109 176.178, 93.202 169.315 C 86.740 161.806, 82.487 158, 80.561 158 C 79.918 158, 77.307 159.322, 74.760 160.937" stroke="none" fill="black" fill-rule="evenodd"/>
</svg>