<svg xmlns="http://www.w3.org/2000/svg" width="200" height="200" viewBox="0 0 200 200" version="1.1">
	<path d="M 54.103 17.376 C 53.370 18.259, 50.018 18.913, 44.731 19.203 C 27.508 20.148, 19.166 29.538, 16.037 51.500 C 14.449 62.646, 13.680 61.714, 24.838 62.163 C 37.718 62.680, 40.461 64.219, 39.749 70.531 C 39.432 73.344, 37.069 78.761, 33 86 C 25.361 99.590, 24.344 104.552, 28.523 107.839 C 30.034 109.028, 31.975 110, 32.838 110 C 33.903 110, 33.257 111.202, 30.821 113.750 C 21.895 123.088, 22.863 128.763, 35.062 138.619 C 45.014 146.660, 46.902 151.190, 43.388 158.595 C 41.279 163.038, 32.386 171.201, 22.213 178.031 C 17.733 181.039, 14.052 184.063, 14.034 184.750 C 13.934 188.438, 29.015 183.729, 39.566 176.779 C 50.834 169.356, 58.242 162.595, 72.739 146.500 C 85.794 132.007, 88 129.942, 88 132.220 C 88 134.343, 84.246 147.530, 79.869 160.783 C 75.994 172.517, 75.886 173.177, 77.455 175.572 C 78.359 176.951, 80.644 178.816, 82.533 179.717 C 85.427 181.097, 86.349 181.151, 88.389 180.059 C 93.192 177.489, 98.551 163.612, 103.956 139.750 C 105.170 134.387, 106.331 130, 106.535 130 C 106.739 130, 107.818 132.061, 108.932 134.580 C 111.624 140.664, 116.046 146.113, 122.677 151.515 L 128.126 155.953 133.098 149.978 C 143.268 137.757, 158 125.385, 158 129.064 C 158 131.600, 151.681 141.100, 143.611 150.695 L 135.181 160.718 139.225 168.041 C 144.375 177.367, 151.499 184.628, 156.402 185.548 C 170.660 188.222, 181.390 165.327, 182.687 129.463 C 183.347 111.228, 181.845 100.524, 177.306 91.098 L 174.704 85.695 178.869 73.598 C 186.129 52.511, 187.511 41.926, 184.012 34.216 C 180.287 26.009, 173.717 24.857, 143.122 27.051 C 125.529 28.312, 112.994 27.130, 101.334 23.111 L 93.126 20.282 91.933 23.162 C 91.277 24.747, 90.389 26.260, 89.960 26.525 C 89.531 26.790, 83.403 25.601, 76.343 23.884 C 67.565 21.749, 62.611 20.009, 60.676 18.381 C 57.450 15.667, 55.739 15.405, 54.103 17.376 M 34.491 23.865 C 29.816 25.989, 24.658 31.511, 22.422 36.787 C 20.865 40.459, 18 53.522, 18 56.947 C 18 58.458, 19.220 58.794, 26.313 59.237 C 44.989 60.402, 47.109 66.322, 35.972 86.209 C 26.927 102.361, 26.925 106.510, 35.961 107.722 C 38.182 108.020, 40 108.357, 40 108.472 C 40 108.586, 37.300 111.380, 34 114.680 C 28.784 119.896, 28 121.174, 28 124.458 C 28 128.392, 29.772 130.639, 39.273 138.756 C 52.995 150.478, 50.434 160.477, 29.710 176.100 C 21.518 182.276, 22.067 182.967, 31.470 178.319 C 43.344 172.448, 53.685 163.331, 77.154 138.040 C 86.706 127.747, 87.961 126.723, 89.479 127.983 C 91.864 129.962, 90.957 134.889, 84.325 155.978 L 78.829 173.456 81.533 175.782 C 83.020 177.061, 85.196 177.971, 86.369 177.804 C 90 177.286, 94.326 166.368, 100.487 142.172 C 103.614 129.892, 107.255 116.661, 108.578 112.770 L 110.985 105.695 96.742 106.320 C 82.579 106.941, 65.384 109.827, 52.500 113.746 C 46.682 115.515, 46.491 115.683, 46.190 119.285 C 45.847 123.387, 45.671 123.479, 41.149 121.902 C 37.161 120.512, 36.995 117.571, 40.793 115.607 L 43.586 114.163 44.863 85.885 C 45.566 70.332, 46.403 55.393, 46.723 52.687 C 47.295 47.865, 47.259 47.782, 44.903 48.463 C 38.764 50.240, 38.807 50.240, 39.158 48.429 C 39.361 47.381, 41.224 46.091, 43.750 45.250 C 47.714 43.929, 48.001 43.587, 48.017 40.167 C 48.027 38.150, 48.702 33.350, 49.517 29.500 C 50.333 25.651, 51 22.388, 51 22.250 C 51 22.113, 48.188 22.010, 44.750 22.022 C 40.881 22.036, 36.973 22.738, 34.491 23.865 M 53.081 25.653 C 51.538 31.215, 50.569 41.999, 51.612 42.006 C 52.100 42.009, 56.597 40.566, 61.605 38.800 L 70.711 35.589 65.764 29.294 C 63.043 25.833, 60.296 22.994, 59.659 22.986 C 59.021 22.979, 57.521 22.710, 56.324 22.389 C 54.472 21.892, 53.989 22.378, 53.081 25.653 M 66.003 24.872 C 66.004 25.218, 67.754 27.525, 69.892 30 C 73.592 34.284, 73.924 34.446, 76.797 33.372 C 79.277 32.445, 80.100 32.529, 81.414 33.843 C 82.879 35.308, 83.238 35.217, 85.703 32.751 C 87.183 31.271, 88.193 29.877, 87.947 29.652 C 87.066 28.846, 66 24.258, 66.003 24.872 M 93.614 25.563 C 93.251 26.511, 93.167 27.501, 93.430 27.763 C 93.692 28.025, 98.055 29.090, 103.125 30.131 C 114.415 32.446, 132.249 34.091, 138.711 33.412 C 144.144 32.842, 149.793 35.451, 153.266 40.135 C 155.003 42.479, 155.069 43.081, 153.860 45.582 C 151.196 51.089, 136.910 55.840, 126.635 54.637 C 116.185 53.413, 110 48.217, 110 40.663 C 110 37.641, 109.653 37.176, 107.117 36.804 C 104.326 36.394, 86.934 37.732, 86.258 38.409 C 86.074 38.593, 87.287 40.939, 88.953 43.622 C 90.620 46.305, 92.541 50.852, 93.223 53.727 L 94.462 58.954 99.814 60.065 C 102.758 60.676, 108.142 62.755, 111.779 64.685 C 119.407 68.731, 118.593 68.755, 140.837 63.834 C 152.950 61.154, 155.312 60.882, 156.070 62.081 C 157.281 63.997, 156.374 68.763, 152.755 79.500 C 151.086 84.450, 149.671 89.444, 149.610 90.597 C 149.550 91.750, 148.953 93.352, 148.285 94.157 C 146.771 95.981, 138 118.538, 138 120.609 C 138 123.424, 133.766 132, 132.377 132 C 130.523 132, 130.627 130.944, 133.209 123.544 C 135.035 118.312, 135.216 116.769, 134.249 114.648 C 133.114 112.156, 126.507 108, 123.681 108 C 121.471 108, 113.418 115.599, 111.626 119.375 C 107.653 127.747, 111.110 137.330, 121.543 146.865 L 127.241 152.073 136.619 142.132 C 149.842 128.114, 158.807 122.729, 160.702 127.665 C 161.635 130.098, 156.971 138.348, 149.233 147.955 C 137.247 162.834, 138.278 160.574, 141.071 165.851 C 146.677 176.443, 153.691 183, 159.416 183 C 171.708 183, 182.321 147.563, 179.878 114.672 C 179.083 103.979, 176.103 92.584, 173.146 88.932 C 171.306 86.660, 171.323 86.499, 174.243 78.562 C 182.423 56.329, 184.926 41.625, 181.618 35.229 C 178.680 29.547, 178.377 29.502, 143.500 29.482 C 109.222 29.463, 112.271 29.790, 95.888 24.372 C 94.927 24.054, 94.008 24.536, 93.614 25.563 M 89.500 32.641 L 88.019 34.901 96.759 34.312 C 101.567 33.988, 105.593 33.655, 105.706 33.572 C 105.819 33.489, 102.552 32.737, 98.446 31.901 C 91.013 30.387, 90.975 30.390, 89.500 32.641 M 111.256 34.977 C 112.449 35.744, 112.826 36.845, 112.433 38.411 C 111.527 42.020, 114.411 47.644, 118.163 49.584 C 123.540 52.365, 133.639 52.608, 141.724 50.153 C 152.775 46.796, 154.791 42.460, 147.239 38.293 C 144.079 36.549, 141.177 36.152, 128.500 35.732 C 120.250 35.458, 112.600 34.922, 111.500 34.541 C 109.704 33.920, 109.680 33.964, 111.256 34.977 M 79.325 39.696 C 74.391 40.657, 50.826 46.840, 50.373 47.293 C 49.011 48.655, 46.033 112, 47.331 112 C 47.685 112, 52.143 110.923, 57.237 109.607 C 71.701 105.869, 84.324 103.974, 99.166 103.310 L 112.832 102.700 114.520 98.956 C 115.448 96.897, 118.142 93.314, 120.506 90.994 C 126.108 85.496, 131.715 84.588, 138.995 87.998 C 141.665 89.248, 144.511 90.018, 145.318 89.708 C 146.709 89.175, 152.073 74.430, 153.542 67.103 C 154.328 63.187, 156.213 63.146, 137.500 67.451 C 123.306 70.717, 116.967 70.755, 111.588 67.609 C 108.095 65.566, 98.143 62, 95.934 62 C 95.547 62, 94.929 64.588, 94.560 67.750 C 93.189 79.511, 89.167 88.769, 82.189 96.229 C 71.864 107.267, 64.211 106.595, 63.214 94.561 C 62.739 88.838, 65.397 74.491, 67.130 73.419 C 69.068 72.222, 69.185 73.926, 67.600 80.247 C 65.710 87.782, 65.499 98.099, 67.200 99.800 C 72.133 104.733, 84.092 93.650, 89.108 79.500 C 90.277 76.200, 91.468 70.688, 91.754 67.250 L 92.274 61 87.887 60.986 C 82.538 60.970, 79 60.097, 79 58.795 C 79 58.235, 81.549 57.966, 85.002 58.161 C 91.799 58.545, 92.036 58.187, 89.579 51.223 C 88.048 46.884, 83.127 38.913, 82.117 39.136 C 81.778 39.211, 80.521 39.463, 79.325 39.696 M 123.993 91.250 C 120.848 93.392, 114.954 102.300, 116.003 103.324 C 118.007 105.280, 123.444 103.897, 133.668 98.833 L 144.837 93.300 139.649 91.150 C 132.962 88.379, 128.163 88.409, 123.993 91.250 M 133.653 101.612 L 126.806 105.125 131.403 108.041 C 133.931 109.644, 136 111.416, 136 111.978 C 136 112.540, 136.340 113, 136.755 113 C 137.391 113, 139.157 108.973, 142.567 99.750 C 143.519 97.175, 141.463 97.604, 133.653 101.612 M 112.946 108.750 C 112.393 110.263, 111.720 112.123, 111.450 112.884 C 111.181 113.645, 112.676 112.745, 114.774 110.884 C 117.096 108.824, 118.180 107.212, 117.545 106.765 C 115.524 105.344, 113.940 106.028, 112.946 108.750 M 42.114 117.929 C 41.255 118.461, 41.152 118.976, 41.824 119.391 C 42.395 119.744, 43.163 119.545, 43.531 118.950 C 44.449 117.464, 43.719 116.938, 42.114 117.929" stroke="none" fill="black" fill-rule="evenodd"/>
</svg>