<svg xmlns="http://www.w3.org/2000/svg" width="200" height="200" viewBox="0 0 200 200" version="1.1">
	<path d="M 157.822 9.954 L 155.500 12.909 107.500 11.366 C 56.850 9.737, 35.948 9.961, 31.292 12.183 C 27.827 13.836, 27.257 17.371, 29.427 23.741 C 32.865 33.829, 30.498 43.564, 22.019 54.214 C 15.354 62.585, 15.415 68.126, 22.516 99.500 C 28.312 125.105, 29.991 135.500, 29.996 145.807 C 30.002 157.638, 28.590 162.454, 24.390 164.933 C 20.419 167.276, 20.197 168.324, 23.223 170.443 C 28.122 173.875, 50.754 171.548, 61.841 166.472 C 74.790 160.544, 77.339 152.436, 69.235 142.956 L 65.500 138.586 65.684 129.392 C 65.811 123.066, 67.278 113.222, 70.387 97.848 C 72.872 85.557, 75.203 73.365, 75.566 70.756 L 76.225 66.012 80.363 66.596 C 88.727 67.775, 95.856 70.747, 101.340 75.340 L 104.180 77.718 96.113 110.609 C 89.106 139.176, 85.219 157.766, 83.746 169.750 C 83.474 171.964, 83.763 173, 84.654 173 C 86.114 173, 86.020 173.383, 88.897 155.737 C 90.041 148.718, 91.955 138.719, 93.150 133.517 C 95.018 125.386, 95.500 124.300, 96.591 125.779 C 97.783 127.398, 98.081 127.381, 101.596 125.503 C 104.532 123.934, 106.045 122.005, 108.652 116.503 C 112.138 109.146, 114.245 100.581, 113.831 95.454 C 113.544 91.899, 116.334 86.983, 121.436 82.052 C 126.462 77.195, 127.929 78.901, 125.139 86.358 C 123.998 89.407, 120.761 99.912, 117.945 109.701 C 111.919 130.651, 108.160 140.780, 103.939 147.435 L 100.863 152.285 105.082 156.583 C 113.748 165.413, 126.076 169.639, 135.487 167.004 C 141.128 165.424, 148.675 158.925, 151.122 153.539 C 153.539 148.217, 153.542 138.783, 151.129 133.500 C 148.731 128.250, 141.220 121.448, 134.344 118.300 C 129.713 116.180, 128.920 115.440, 129.352 113.640 C 130.185 110.172, 131.801 99.948, 132.508 93.667 L 133.165 87.834 144.332 99.436 C 159.350 115.039, 162.510 114.763, 155.630 98.448 C 145.548 74.544, 139.257 68.077, 131.793 73.948 C 130.355 75.080, 128.471 75.674, 127.297 75.367 C 126.186 75.077, 121.840 71.083, 117.639 66.493 L 110 58.147 110 48.746 L 110 39.346 116.365 38.173 C 124.691 36.639, 129.194 36.690, 131.458 38.346 C 133.198 39.618, 133.078 39.986, 129.265 45.096 C 125.067 50.722, 122 56.149, 122 57.950 C 122 60.362, 126.024 58.716, 129.481 54.890 C 133.289 50.674, 135.997 45.441, 136.004 42.282 C 136.006 41.302, 137.919 38.112, 140.254 35.193 C 143.940 30.586, 145.419 29.577, 151.465 27.545 C 158.508 25.177, 164 20.732, 164 17.401 C 164 16.539, 164.563 16.032, 165.250 16.275 C 169.007 17.605, 161.071 36.320, 148.623 55.485 C 145.056 60.977, 142.232 65.565, 142.347 65.680 C 142.462 65.795, 144.344 65.475, 146.528 64.969 C 152.392 63.609, 161.611 63.807, 165.282 65.371 C 169.558 67.193, 172.554 70.589, 174.683 76.028 C 176.233 79.987, 176.456 85.035, 176.624 120 C 176.729 141.725, 176.855 160.625, 176.905 162 C 177.031 165.492, 173.037 172.884, 169.667 175.397 C 165.105 178.799, 156.218 178.121, 140.079 173.141 C 132.697 170.863, 123.745 168.492, 120.186 167.872 C 105.017 165.230, 92.150 169.986, 82.868 181.666 C 78.274 187.447, 81.222 186.821, 87.323 180.720 C 95.757 172.286, 100.319 170.484, 113 170.577 C 122.510 170.647, 124.914 171.087, 138.500 175.243 C 146.750 177.767, 155.362 180.126, 157.637 180.485 C 163.538 181.416, 169.868 179.419, 173.616 175.445 C 179.293 169.426, 179.503 167.546, 179.468 123 C 179.440 87.400, 179.225 81.805, 177.691 76.754 C 174.291 65.554, 166.649 60.407, 154.562 61.177 C 148.179 61.583, 148.066 61.548, 149.377 59.546 C 153.884 52.664, 159.761 42.538, 163.027 36.028 C 169.883 22.362, 170.726 15.577, 165.858 13.254 C 164.404 12.561, 162.933 10.870, 162.589 9.497 C 161.771 6.240, 160.659 6.346, 157.822 9.954 M 35.157 13.995 C 33.319 14.430, 31.421 15.179, 30.940 15.660 C 30.440 16.160, 30.945 19.314, 32.117 23.018 C 35.764 34.538, 33.566 43.497, 24.022 56.010 L 19.836 61.500 20.341 71 C 20.648 76.758, 22.279 86.605, 24.484 96 C 31.525 126.008, 32.291 130.753, 32.398 145 C 32.508 159.714, 31.157 165.181, 27.091 166.471 C 17.666 169.462, 39.761 170.002, 51.259 167.062 C 71.159 161.972, 75.956 154.106, 65.743 143.311 L 62.725 140.121 63.274 127.811 C 63.680 118.683, 65.008 109.813, 68.411 93.502 C 70.935 81.404, 73 70.433, 73 69.122 C 73 66.891, 72.715 66.772, 68.515 67.245 C 66.048 67.524, 61.605 68.937, 58.643 70.386 L 53.256 73.022 52.579 80.261 C 50.921 97.967, 48.057 111.473, 45.216 114.981 C 41.739 119.275, 39.311 116.129, 36.470 103.651 C 35.212 98.125, 35.138 96.097, 36.090 93.151 C 38.144 86.799, 41.049 81.862, 45.592 77.005 C 49.046 73.312, 50.135 71.291, 50.635 67.647 C 51.313 62.700, 51.048 62.369, 47.799 64.108 C 45.876 65.137, 45.779 65.013, 46.439 62.358 C 48.217 55.195, 52.104 51.717, 52.808 56.658 C 53.109 58.774, 53.268 58.746, 60.808 55.286 C 65.038 53.344, 68.724 51.549, 68.998 51.296 C 69.273 51.043, 68.598 50.155, 67.498 49.321 C 65.918 48.123, 63.564 47.914, 56.250 48.323 L 47 48.840 47 40.069 C 47 27.489, 49.713 21.042, 55.632 19.556 C 61.430 18.101, 72.561 23.866, 85.936 35.251 C 94.442 42.491, 93.478 42.227, 101 39.371 C 101.886 39.035, 99.467 37.717, 95.090 36.151 C 87.992 33.611, 84.668 31.001, 86.366 29.298 C 86.804 28.859, 99.689 28.275, 114.999 28 C 130.309 27.725, 143.040 27.275, 143.291 27 C 147.109 22.816, 152 16.708, 152 16.123 C 152 15.305, 71.452 12.879, 51 13.081 C 44.125 13.149, 36.996 13.560, 35.157 13.995 M 152.047 20.943 L 147.909 25.887 150.922 25.022 C 154.622 23.961, 155.873 23.267, 158.750 20.677 C 161.685 18.035, 161.617 16, 158.593 16 C 156.933 16, 154.901 17.534, 152.047 20.943 M 53.306 24.412 C 50.662 26.685, 50.480 27.365, 50.162 36.162 L 49.823 45.500 58.324 45.500 C 65.507 45.500, 67.286 45.840, 69.797 47.694 L 72.768 49.889 80.948 46.694 C 85.446 44.937, 89.204 43.050, 89.299 42.500 C 89.572 40.922, 73.154 28.233, 66.607 24.961 C 59.420 21.370, 56.962 21.269, 53.306 24.412 M 112.546 30.972 L 89.592 31.500 98.675 34.399 C 106.657 36.948, 108.286 37.169, 112.129 36.226 C 121.211 33.997, 127.437 33.738, 131.466 35.421 C 133.579 36.304, 135.350 36.906, 135.404 36.758 C 135.457 36.611, 136.822 35.030, 138.437 33.245 L 141.374 30 138.437 30.222 C 136.822 30.344, 125.171 30.681, 112.546 30.972 M 100.322 42.326 C 98.574 42.972, 96.897 43.751, 96.597 44.059 C 96.296 44.366, 98.513 47.050, 101.525 50.024 L 107 55.432 107 48.216 C 107 40.239, 106.697 39.971, 100.322 42.326 M 83.148 48.762 C 75.763 51.590, 74.035 52.624, 74.562 53.901 C 74.924 54.781, 75.455 57.413, 75.741 59.750 C 76.246 63.888, 76.357 64, 79.949 64 C 85.553 64, 93.262 66.639, 99.063 70.543 C 101.933 72.473, 104.402 73.929, 104.551 73.777 C 104.700 73.624, 105.216 70.350, 105.698 66.500 C 106.569 59.553, 106.551 59.470, 103.337 55.457 C 101.555 53.233, 98.364 50.020, 96.246 48.318 L 92.394 45.222 83.148 48.762 M 129.229 49.572 C 127.993 51.457, 127.180 53, 127.423 53 C 128.118 53, 132.261 46.927, 131.847 46.514 C 131.643 46.310, 130.465 47.686, 129.229 49.572 M 61.250 57.991 L 53 61.869 53 65.889 L 53 69.908 58.250 67.465 C 61.138 66.121, 65.638 64.733, 68.250 64.382 C 72.824 63.766, 73 63.621, 73 60.453 C 73 56.346, 72.129 53.983, 70.643 54.057 C 70.014 54.088, 65.787 55.858, 61.250 57.991 M 108.164 69.052 C 107.011 76.365, 107.042 76.602, 109.869 82.141 L 112.748 87.781 117.862 81.971 L 122.976 76.162 116.157 68.882 L 109.338 61.603 108.164 69.052 M 134.223 75.557 C 130.268 78.326, 131.394 81.346, 139.891 90.759 C 148.504 100.300, 156 107.760, 156 106.792 C 156 105.614, 148.884 89.562, 145.780 83.739 C 143.017 78.556, 138.951 74, 137.088 74 C 136.734 74, 135.445 74.701, 134.223 75.557 M 46.105 79.868 C 44.379 82.046, 41.804 86.372, 40.380 89.480 C 37.559 95.643, 37.608 98.948, 40.672 109.269 C 42.068 113.968, 42.329 114.270, 43.550 112.600 C 44.289 111.590, 45.563 107.779, 46.381 104.132 C 48.119 96.382, 50.448 77.114, 49.732 76.399 C 49.462 76.129, 47.830 77.690, 46.105 79.868 M 102.643 95.513 C 100.595 103.756, 98.700 111.400, 98.432 112.500 C 98.164 113.600, 99.560 111.350, 101.534 107.500 C 103.508 103.650, 106.220 98.620, 107.562 96.322 C 110.451 91.371, 110.530 89.798, 108.157 84.513 L 106.367 80.526 102.643 95.513 M 128.137 86.500 C 127.429 88.150, 125.051 95.575, 122.854 103 C 115.573 127.603, 111.836 138.426, 108.249 145.298 L 104.701 152.097 108.084 155.587 C 109.945 157.507, 114.134 160.410, 117.393 162.039 C 131.244 168.960, 145.508 163.379, 149.556 149.456 C 151.562 142.556, 150.823 137.585, 146.913 131.683 C 143.545 126.598, 138.352 122.706, 131.376 120.037 C 125.723 117.875, 125.880 118.813, 128.414 102.339 C 129.359 96.200, 129.972 89.450, 129.778 87.339 L 129.425 83.500 128.137 86.500 M 104.690 108 C 98.596 120.355, 97.483 124.882, 101.001 122.999 C 104.782 120.976, 111.642 103.914, 110.751 98.753 C 110.462 97.081, 108.898 99.467, 104.690 108" stroke="none" fill="black" fill-rule="evenodd"/>
</svg>