<svg xmlns="http://www.w3.org/2000/svg" width="200" height="200" viewBox="0 0 200 200" version="1.1">
	<path d="M 52 8.648 C 37.543 10.819, 31.716 13.003, 28.095 17.607 C 25.321 21.133, 25.449 25.385, 28.485 30.565 L 30.971 34.806 27.492 44.153 C 18.745 67.651, 17.396 83.514, 22.447 103.500 C 23.976 109.550, 26.414 117.650, 27.864 121.500 C 30.265 127.876, 30.496 129.748, 30.454 142.500 C 30.414 154.980, 30.116 157.369, 27.717 164.500 C 24.247 174.813, 24.253 176, 27.774 176 C 31.561 176, 68.078 162.621, 69.020 160.889 C 69.436 160.125, 70.298 153.200, 70.936 145.500 C 73.682 112.349, 78.579 76.917, 80.943 73.093 C 81.557 72.099, 82.697 72.433, 85.871 74.533 C 88.142 76.036, 90 77.507, 90 77.801 C 90 78.095, 89.503 81.192, 88.895 84.682 C 86.761 96.935, 90.133 99.469, 97.661 91.269 L 102.005 86.538 105.568 90.102 L 109.132 93.665 101.652 100.919 C 91.764 110.506, 90.981 112.451, 94.386 118.964 C 95.824 121.714, 97 125.542, 97 127.471 C 97 134.215, 91.062 146.166, 80.590 160.500 C 77.214 165.121, 76.421 166.902, 77.139 168.250 C 78.576 170.949, 81.015 170.402, 91.241 165.084 C 101.863 159.560, 108.304 158.073, 112.611 160.151 C 119.713 163.576, 124.511 175.034, 125.876 191.825 C 126.424 198.560, 126.739 199.500, 128.454 199.500 C 130.214 199.500, 130.929 196.825, 135.669 172.500 C 138.563 157.650, 141.316 144.630, 141.787 143.566 C 142.527 141.895, 143.082 142.400, 145.872 147.277 C 152.099 158.160, 160.958 165.040, 170.728 166.581 C 174.713 167.210, 175.019 167.084, 176.079 164.374 C 176.698 162.793, 177.195 159.158, 177.184 156.295 C 177.159 149.587, 173.374 142.398, 163.981 131.221 C 160.154 126.668, 156.740 121.812, 156.393 120.431 C 155.470 116.754, 158.274 114.283, 164.863 112.967 C 178.163 110.311, 180.796 109.228, 178.061 107.538 C 177.545 107.219, 173.660 107.673, 169.428 108.547 C 163.059 109.862, 160.853 109.928, 156.617 108.931 C 149.662 107.293, 143.011 103.870, 133.500 97.032 C 124.784 90.766, 119.920 88, 117.617 88 C 116.801 88, 114.599 85.110, 112.724 81.578 L 109.313 75.155 118.880 59.578 C 124.141 51.010, 128.968 44, 129.606 44 C 131.420 44, 132.081 39.968, 130.374 39.313 C 128.568 38.620, 128.222 39.087, 117.424 56.781 C 112.631 64.636, 108.414 71.244, 108.055 71.466 C 107.695 71.688, 105.249 68.280, 102.619 63.891 L 97.838 55.912 98.526 48.564 L 99.215 41.215 120.357 31.983 C 131.986 26.905, 142.007 22.554, 142.627 22.315 C 143.278 22.064, 144.054 23.476, 144.463 25.655 C 146.018 33.946, 150.892 39.067, 164.366 46.569 C 169.099 49.205, 174.216 52.660, 175.736 54.247 C 178.191 56.809, 178.500 57.878, 178.500 63.816 C 178.500 71.191, 176.083 77.535, 169.194 88.241 C 165.508 93.970, 165.489 93.983, 160.500 93.986 C 151.087 93.992, 144 90.878, 144 86.737 C 144 85.663, 146.056 80.615, 148.568 75.519 C 155.368 61.727, 154.105 56.435, 143.423 53.957 C 137.039 52.477, 126 52.745, 126 54.381 C 126 55.427, 128.263 55.860, 135.355 56.171 C 151.350 56.870, 153.134 60.050, 145.800 74.786 C 138.054 90.348, 141.013 95.292, 158.897 96.672 L 166.688 97.272 171.288 89.886 C 179.120 77.310, 181.438 71.383, 181.471 63.846 C 181.497 57.903, 181.175 56.791, 178.461 53.434 C 176.712 51.271, 171.601 47.518, 166.415 44.588 C 161.461 41.790, 156.005 38.484, 154.290 37.243 C 151.139 34.962, 147 27.813, 147 24.651 C 147 22.923, 151.085 18.475, 154.607 16.367 C 157.829 14.439, 155.361 13.714, 149.977 15.006 C 147.154 15.683, 143.418 15.987, 141.673 15.683 C 139.928 15.378, 133.112 14.191, 126.528 13.044 C 108.869 9.967, 85.629 7.982, 69.089 8.136 C 61.065 8.211, 53.375 8.441, 52 8.648 M 45.470 12.458 C 29.867 15.293, 25.285 21.246, 31.574 30.513 L 34.147 34.306 30.626 43.505 C 19.884 71.569, 19.581 87.888, 29.265 116.840 C 33.380 129.140, 33.500 129.870, 33.497 142.500 C 33.495 154.113, 33.187 156.438, 30.618 164.287 C 29.036 169.120, 27.912 173.236, 28.121 173.434 C 28.506 173.800, 65.774 160.559, 66.553 159.780 C 66.787 159.547, 67.666 151.288, 68.508 141.428 C 70.511 117.972, 73.521 94.165, 76.060 81.705 C 77.182 76.202, 77.866 71.093, 77.581 70.350 C 77.244 69.471, 75.355 69, 72.166 69 C 68.784 69, 66.483 68.382, 64.727 67 C 62.196 65.009, 56.572 64.349, 54.325 65.778 C 53.454 66.332, 53.675 68.072, 55.181 72.513 C 57.357 78.925, 57.336 83.643, 55.052 101 C 53.211 114.996, 50.269 123, 46.968 123 C 45.239 123, 42.284 118.892, 41.013 114.722 C 39.016 108.172, 38.161 96.532, 39.076 88.371 C 39.942 80.653, 43.857 70.344, 47.004 67.496 C 48.053 66.547, 48.571 65.076, 48.266 63.910 C 47.651 61.557, 50.060 58.632, 53.933 57.028 L 56.722 55.872 55.215 51.686 C 53.214 46.127, 52.441 31.224, 53.921 26.739 C 58.043 14.249, 69.989 18.659, 85.613 38.438 L 88.724 42.377 92.592 40.904 C 95.790 39.687, 96.727 38.663, 98.003 34.990 C 100.212 28.637, 103.655 26.789, 121.473 22.395 C 129.997 20.292, 136.641 18.258, 136.236 17.875 C 135.184 16.877, 111.555 13.277, 98 12.049 C 82.612 10.655, 54.176 10.876, 45.470 12.458 M 58.188 24.488 C 57.111 25.857, 55.935 28.946, 55.574 31.352 C 54.857 36.139, 56.357 47.552, 58.283 51.964 L 59.500 54.750 72.730 49.272 C 84.107 44.562, 85.833 43.557, 85.051 42.096 C 83.037 38.332, 70.473 25.772, 66.898 23.948 C 61.913 21.405, 60.547 21.490, 58.188 24.488 M 125 24.119 C 104.789 29.338, 102.118 30.605, 100.565 35.706 C 99.966 37.673, 101.768 37.097, 117.173 30.396 C 126.678 26.262, 134.652 22.682, 134.894 22.440 C 135.701 21.633, 132.569 22.164, 125 24.119 M 92.750 43.689 C 90.513 44.274, 90.576 45.912, 92.944 48.750 C 95.542 51.864, 96 51.602, 96 47 C 96 44.800, 95.662 43.052, 95.250 43.116 C 94.838 43.180, 93.713 43.438, 92.750 43.689 M 74.257 51.429 C 67.523 54.302, 61.749 56.917, 61.426 57.241 C 59.705 58.961, 63.413 61.815, 69.517 63.467 L 76.137 65.259 79.482 62.017 C 83.785 57.847, 85.370 58.700, 83.446 64.152 C 82.651 66.407, 82 68.360, 82 68.493 C 82 68.626, 83.858 69.964, 86.129 71.467 C 89.419 73.644, 90.433 73.925, 91.114 72.850 C 91.584 72.107, 91.977 71.275, 91.986 71 C 91.995 70.725, 92.620 67.260, 93.375 63.300 L 94.749 56.100 91.348 51.050 C 89.477 48.272, 87.621 46.046, 87.223 46.103 C 86.826 46.160, 80.991 48.557, 74.257 51.429 M 53.750 60.572 C 50.731 62.210, 49.913 64.634, 52.750 63.537 C 53.712 63.165, 55.704 62.617, 57.176 62.320 C 58.931 61.965, 59.669 61.301, 59.319 60.390 C 58.647 58.638, 57.230 58.684, 53.750 60.572 M 96.692 61.750 C 96.457 62.163, 95.690 65.616, 94.986 69.425 L 93.708 76.350 96.870 79.175 C 98.609 80.729, 100.362 81.994, 100.766 81.988 C 101.170 81.981, 102.525 80.393, 103.778 78.459 L 106.056 74.943 101.914 67.972 C 97.632 60.764, 97.405 60.494, 96.692 61.750 M 47.494 71.369 C 42.333 79.246, 40.118 92.586, 41.883 105.172 C 42.889 112.351, 45.542 120, 47.025 120 C 48.310 120, 50.012 114.802, 51.048 107.709 C 51.628 103.744, 52.529 98.062, 53.051 95.083 C 54.968 84.142, 53.467 70.322, 50.245 69.248 C 49.630 69.043, 48.392 69.998, 47.494 71.369 M 105.160 81.176 L 103.029 84.500 106.265 87.223 C 109.889 90.273, 109.974 90.303, 111.840 89.120 C 112.925 88.432, 112.791 87.536, 111.128 84.386 C 107.521 77.552, 107.492 77.536, 105.160 81.176 M 91.642 83.750 C 90.653 89.732, 90.865 93.212, 92.191 92.770 C 92.847 92.551, 94.759 90.671, 96.441 88.592 L 99.500 84.812 96.500 82.411 C 94.850 81.090, 93.221 80.008, 92.881 80.005 C 92.540 80.002, 91.983 81.688, 91.642 83.750 M 111.302 95.837 C 103.353 102.463, 96.171 109.885, 95.421 112.248 C 95.035 113.465, 95.835 116.118, 97.524 119.222 C 99.833 123.464, 100.160 125.001, 99.657 129.251 C 98.883 135.787, 94.877 144.154, 86.652 156.417 C 82.994 161.871, 80.229 166.562, 80.507 166.841 C 80.786 167.119, 84.953 165.270, 89.768 162.731 C 104.852 154.778, 112.055 154.609, 119.146 162.044 C 122.963 166.045, 126.425 174.672, 127.556 183 C 127.892 185.475, 128.403 188.175, 128.691 189 C 128.980 189.825, 131.422 179.486, 134.118 166.025 C 136.847 152.402, 139.647 140.925, 140.433 140.139 C 142.599 137.973, 144.461 139.315, 148.090 145.657 C 153.761 155.570, 161.504 161.951, 169.899 163.630 C 172.593 164.169, 173.089 163.899, 174.058 161.371 C 176.506 154.988, 173.398 147.235, 163.535 135.117 C 156.163 126.061, 153.009 121.199, 153.004 118.885 C 153.002 117.997, 153.889 116.140, 154.974 114.760 L 156.949 112.249 151.224 110.141 C 145.267 107.946, 140.398 105.096, 127.492 96.250 C 123.279 93.362, 119.219 91, 118.468 91 C 117.718 91, 114.493 93.177, 111.302 95.837" stroke="none" fill="black" fill-rule="evenodd"/>
</svg>