<svg xmlns="http://www.w3.org/2000/svg" width="200" height="200" viewBox="0 0 200 200" version="1.1">
	<path d="M 122 14.556 C 122 15.434, 120.080 16.962, 117.594 18.062 C 105.598 23.368, 50.803 28.228, 41.381 24.821 C 38.624 23.824, 37.456 23.940, 33.816 25.571 L 29.511 27.500 35.998 28 C 41.921 28.457, 42.602 28.747, 43.840 31.340 C 45.630 35.091, 45.482 46.996, 43.554 54.249 C 39.819 68.302, 28.392 83.940, 17.274 90.214 C 9.013 94.876, 10.632 96.874, 21.139 94.985 C 37.079 92.118, 48.445 82.850, 65.587 58.742 C 76.949 42.762, 85.314 33.440, 90.872 30.566 C 94.101 28.896, 94.313 28.918, 99.539 31.475 C 105.910 34.592, 109.115 39.146, 109.776 46.016 C 110.963 58.375, 99.189 74.294, 95.252 65.653 C 94.663 64.362, 93.864 60.762, 93.476 57.653 L 92.770 52 89.135 52.009 C 81.528 52.029, 65.607 64.756, 54.120 80.001 C 38.946 100.138, 44.367 106.129, 65.815 92.925 C 67.929 91.624, 68.299 91.706, 70.065 93.861 C 71.129 95.159, 71.998 97.634, 71.996 99.361 C 71.986 107.570, 62.682 114.977, 41.682 123.494 C 28.249 128.943, 32.184 130.214, 52.521 126.997 C 63.879 125.200, 67.516 124.155, 75.373 120.433 C 80.513 117.998, 86.244 115.751, 88.109 115.440 C 91.426 114.885, 91.339 115.026, 84.107 121.901 C 75.730 129.865, 62.391 139.653, 50.293 146.711 C 45.780 149.345, 42.067 152.111, 42.043 152.857 C 42.014 153.767, 42.577 153.972, 43.750 153.481 C 53.235 149.506, 61.127 147.744, 69.500 147.732 C 79.900 147.718, 85.611 149.560, 89.504 154.187 C 92.647 157.922, 92.630 159.098, 89.374 162.967 C 85.698 167.336, 80.548 169.701, 67.347 173.081 C 50.707 177.342, 43.538 180.632, 44.639 183.502 C 45.089 184.673, 47.099 184.999, 53.857 184.996 C 71.682 184.988, 104.272 177.487, 119 170.004 C 120.925 169.026, 125.452 166.839, 129.060 165.143 C 142.103 159.016, 160.962 141.737, 166.302 131.022 C 170.010 123.581, 169.896 118.932, 165.923 115.589 C 163.231 113.324, 161.938 113, 155.583 113 C 151.588 113, 144.801 113.900, 140.500 115 C 136.199 116.100, 130.716 117, 128.315 117 C 124.632 117, 123.809 116.627, 123.041 114.607 C 122.018 111.916, 123.529 103.434, 127.002 92.371 C 128.189 88.592, 129.410 82.045, 129.718 77.823 C 130.227 70.818, 130.048 69.758, 127.679 65.716 L 125.083 61.285 131.791 58.671 C 138.273 56.145, 140.532 55.640, 144.250 55.885 C 146.668 56.044, 146.492 59.483, 143.481 70.947 C 140.234 83.310, 140.153 92.460, 143.250 97.010 C 144.488 98.828, 146.690 101.197, 148.144 102.274 C 150.704 104.170, 150.950 104.177, 155.997 102.501 C 163.112 100.138, 170.495 93.786, 175.177 86 C 180.521 77.115, 182.456 70.227, 182.480 60 C 182.497 52.571, 182.164 50.928, 179.833 46.963 C 176.518 41.325, 173.185 39.485, 166.405 39.552 C 162.499 39.590, 159.516 40.432, 154.962 42.780 C 150.092 45.292, 148.942 45.595, 149.470 44.228 C 151.209 39.724, 153.072 29.326, 152.801 25.632 C 151.997 14.655, 141.816 24.979, 127.632 51.154 C 125.053 55.914, 122.288 60.059, 121.488 60.366 C 120.688 60.673, 120.257 61.506, 120.529 62.216 C 120.802 62.926, 118.599 69.131, 115.634 76.004 C 112.669 82.877, 108.951 92.437, 107.371 97.248 C 105.792 102.060, 104.170 105.997, 103.768 105.998 C 103.365 105.999, 100.746 101.313, 97.948 95.585 C 92.976 85.404, 92.897 85.101, 94.431 82.134 C 95.294 80.465, 96 77.286, 96 75.069 C 96 71.631, 95.642 70.948, 93.562 70.426 C 92.086 70.056, 90.013 70.469, 88.312 71.472 C 85.536 73.109, 85.506 73.230, 86 80.815 C 86.485 88.263, 86.577 88.495, 89 88.350 C 91.118 88.222, 91.866 89.031, 93.897 93.652 C 95.215 96.651, 97.838 101.669, 99.726 104.803 C 103.114 110.426, 103.144 110.576, 102.010 116.347 C 100.381 124.640, 100.587 135.301, 102.446 138.897 C 104.348 142.575, 107.678 145, 110.825 145 C 113.537 145, 129.362 137.841, 130.415 136.138 C 131.505 134.373, 130.048 132.685, 121.787 126.143 C 117.545 122.783, 112.292 117.781, 110.115 115.026 L 106.156 110.018 108.541 102.259 C 110.681 95.297, 114.407 85.743, 121.024 70.250 C 122.258 67.362, 123.584 65, 123.973 65 C 124.361 65, 125.201 66.146, 125.839 67.547 C 127.891 72.050, 127.113 80.980, 123.491 94.500 C 119.307 110.116, 119.072 114.779, 122.314 117.826 C 125.286 120.617, 129.649 120.625, 140.276 117.861 C 149.491 115.464, 160.349 114.994, 163.750 116.845 C 165.541 117.820, 166 118.942, 166 122.339 C 166 129.693, 157.063 141.808, 143.828 152.398 C 136.214 158.490, 133.171 160.227, 115.881 168.352 C 101.886 174.929, 75.619 181.101, 56 182.422 L 47.500 182.994 51.735 180.966 C 54.064 179.850, 61.003 177.617, 67.155 176.003 C 73.307 174.389, 80.718 171.905, 83.624 170.483 C 96.632 164.119, 97.529 154.071, 85.655 147.722 C 82.035 145.786, 79.980 145.500, 69.687 145.500 C 58.833 145.500, 58.060 145.378, 60.168 144 C 67.603 139.140, 83.124 126.979, 88.231 122.012 C 99.214 111.331, 92.993 109.073, 75.500 117.391 C 68.412 120.762, 63.025 122.557, 57 123.556 C 52.325 124.331, 48.050 124.960, 47.500 124.953 C 46.950 124.947, 50.186 123.006, 54.691 120.639 C 59.197 118.273, 64.847 114.727, 67.248 112.760 C 75.439 106.048, 77.025 97.303, 71.196 90.992 L 68.500 88.073 61.878 92.078 C 54.653 96.449, 48 98.261, 48 95.858 C 48 89.124, 72.550 61.723, 83.197 56.573 C 86.331 55.057, 89.310 54.074, 89.818 54.388 C 90.326 54.701, 90.962 57.251, 91.231 60.054 C 92.559 73.878, 102.900 74.248, 109.393 60.704 C 116.677 45.508, 110.958 31.025, 96.104 27.052 C 94.383 26.592, 96.896 25.776, 104.901 24.197 C 119.661 21.285, 126.709 17.575, 124.444 13.910 C 123.543 12.452, 122 12.860, 122 14.556 M 146.341 27.250 C 141.418 32.493, 127.195 55.528, 128.237 56.570 C 128.447 56.780, 130.960 56.063, 133.820 54.976 C 141.234 52.159, 145.530 52.353, 147.658 55.601 C 149.286 58.085, 149.243 58.704, 146.709 69.351 C 145.250 75.483, 143.782 82.116, 143.447 84.091 C 142.592 89.124, 144.449 95.098, 147.893 98.397 C 151.382 101.740, 154.324 101.449, 161.215 97.078 C 172.243 90.085, 180.032 74.501, 179.978 59.540 C 179.912 41.515, 167.910 36.988, 150.617 48.466 C 147.689 50.410, 145.049 52, 144.751 52 C 144.453 52, 145.089 49.188, 146.163 45.750 C 148.008 39.849, 151 26.971, 151 24.935 C 151 23.194, 149.404 23.987, 146.341 27.250 M 82 27.074 C 77.325 27.516, 67.341 28.175, 59.812 28.538 L 46.125 29.198 47.062 31.664 C 48.484 35.404, 48.185 46.850, 46.490 53.540 C 43.606 64.924, 37.418 75.769, 28.966 84.250 C 24.718 88.513, 21.858 92, 22.610 92 C 25.290 92, 33.765 88.258, 38.594 84.943 C 45.798 79.997, 52.182 72.984, 61.753 59.500 C 66.438 52.900, 72.646 44.575, 75.550 41 C 80.226 35.241, 82.459 33.223, 90.500 27.490 C 91.600 26.705, 92.050 26.110, 91.500 26.167 C 90.950 26.223, 86.675 26.631, 82 27.074 M 89.691 73.750 C 89.456 74.162, 89.827 76.075, 90.515 78 L 91.768 81.500 92.884 78.685 C 94.498 74.614, 94.264 73, 92.059 73 C 90.991 73, 89.926 73.338, 89.691 73.750 M 88.030 83.450 C 88.008 85.601, 88.299 86.101, 89.104 85.296 C 89.895 84.505, 89.903 83.670, 89.134 82.346 C 88.193 80.728, 88.057 80.864, 88.030 83.450 M 104.343 118.607 C 102.930 127.009, 103.345 135.351, 105.325 138.373 C 108.334 142.966, 110.620 143.122, 118.995 139.308 C 123.123 137.429, 126.858 135.535, 127.296 135.100 C 127.733 134.665, 125.483 132.375, 122.296 130.011 C 119.108 127.647, 113.950 123.013, 110.833 119.713 L 105.165 113.714 104.343 118.607" stroke="none" fill="black" fill-rule="evenodd"/>
</svg>