<svg xmlns="http://www.w3.org/2000/svg" width="200" height="200" viewBox="0 0 200 200" version="1.1">
	<path d="M 68.999 19.231 C 66.329 22.097, 62.593 34.205, 59.556 49.837 C 58.238 56.623, 56.955 62.378, 56.706 62.627 C 56.457 62.876, 51.464 62.770, 45.609 62.391 C 33.787 61.627, 34.335 62.037, 33.766 53.527 C 33.512 49.736, 33.739 49.399, 38.750 46.143 C 42.583 43.652, 44 42.107, 44 40.421 C 44 37.233, 39.778 32.487, 37.663 33.299 C 35.404 34.166, 32.318 39.471, 31.515 43.868 C 31.140 45.916, 29.420 49.026, 27.569 51 C 25.763 52.925, 24.022 55.259, 23.699 56.186 C 22.875 58.553, 26.450 62.720, 29.967 63.493 C 31.628 63.857, 33.179 64.989, 33.528 66.090 C 33.869 67.162, 35.602 69.944, 37.380 72.270 L 40.613 76.500 34.556 76.224 C 29.752 76.006, 27.673 76.419, 24.500 78.224 C 19.391 81.131, 15.264 89.039, 14.375 97.621 C 13.176 109.209, 18.460 125.336, 26.552 134.790 L 30.162 139.007 27.606 146.754 C 20.628 167.900, 18.448 180.467, 21.551 181.658 C 23.993 182.595, 27.310 178.798, 40.175 160.343 C 52.611 142.504, 58.775 135, 60.995 135 C 62.830 135, 61.695 147.587, 58.663 160.863 L 56.296 171.226 59.898 172.736 C 69.561 176.789, 77.828 174.493, 83.017 166.315 C 86.307 161.129, 89.394 152.224, 90.532 144.635 C 90.922 142.035, 91.393 140.060, 91.579 140.245 C 91.764 140.431, 92.868 147.764, 94.031 156.541 C 96.365 174.156, 97.387 177.339, 100.867 177.834 C 103.831 178.255, 107.323 175.018, 115.255 164.500 C 122.516 154.871, 131.503 145.374, 135.200 143.424 C 144.791 138.366, 152.666 148.448, 158.107 172.750 C 159.370 178.387, 160.832 183, 161.357 183 C 163.987 183, 178.236 170.250, 180.578 165.800 C 182.558 162.039, 182.345 156.079, 180.101 152.398 C 179.060 150.691, 175.868 147.321, 173.006 144.908 C 161.705 135.379, 162.822 131.921, 179.936 123.464 C 186.928 120.008, 188.812 118, 185.062 118 C 183.996 118, 175.783 118.974, 166.812 120.166 C 147.047 122.789, 111.952 123.368, 105.750 121.172 C 103.688 120.442, 102 119.481, 102 119.036 C 102 117.721, 108.551 115.001, 115.770 113.319 C 120.661 112.179, 128.714 111.697, 145.246 111.554 C 167.535 111.360, 168.042 111.310, 170.463 109.034 C 174.038 105.677, 176.347 97.784, 176.359 88.887 C 176.367 82.675, 175.883 80.280, 173.729 75.879 C 168.690 65.580, 161.090 64.176, 146.969 70.937 C 131.917 78.143, 124.080 78.332, 105.458 71.938 C 93.788 67.931, 82.879 67.011, 76.398 69.486 C 73.849 70.459, 69.349 73.223, 66.396 75.628 C 63.444 78.032, 60.102 80, 58.969 80 C 56.777 80, 56.777 79.964, 58.906 69 L 59.585 65.500 86.543 64.628 C 106.118 63.994, 118.568 64.103, 132.008 65.025 C 152.695 66.443, 169.145 65.445, 173.642 62.499 C 179.050 58.955, 175.691 55.626, 154.486 43.514 C 149.684 40.771, 145.513 37.894, 145.215 37.119 C 144.424 35.057, 147.477 33.260, 153.077 32.489 C 156.514 32.017, 158 31.354, 158 30.295 C 158 29.090, 157.228 28.914, 154.250 29.442 C 152.188 29.808, 149.656 30.356, 148.625 30.660 C 147.482 30.998, 146.998 30.812, 147.386 30.184 C 148.095 29.037, 141.257 23.141, 136.300 20.625 C 134.539 19.731, 131.797 19, 130.205 19 C 124.965 19, 122.920 23.309, 121.017 38.359 C 119.157 53.069, 115.922 58.056, 108.300 57.967 C 101.295 57.886, 82.339 48.337, 81.566 44.500 C 81.344 43.400, 80.435 38.513, 79.546 33.641 C 77.797 24.058, 74.817 17, 72.519 17 C 71.726 17, 70.142 18.004, 68.999 19.231 M 70.067 21.874 C 67.640 26.410, 59.056 61.812, 60.231 62.439 C 61.166 62.937, 104.087 61.246, 104.644 60.689 C 105.023 60.310, 104.410 60, 103.282 60 C 102.154 60, 97.635 58.200, 93.240 56 C 88.844 53.800, 84.967 52, 84.624 52 C 84.281 52, 84 53.575, 84 55.500 C 84 59.458, 82.414 60.129, 81.046 56.750 C 80.544 55.513, 79.170 48.462, 77.992 41.083 C 75.887 27.895, 73.615 20, 71.927 20 C 71.456 20, 70.619 20.844, 70.067 21.874 M 128.077 22.772 C 126.435 24.129, 125.657 26.753, 124.449 35 C 123.603 40.775, 122.463 47.193, 121.914 49.263 C 120.784 53.523, 115.627 59.926, 113.146 60.147 C 109.166 60.502, 124.977 61.833, 141 62.491 C 158.586 63.213, 170.148 62.280, 172.422 59.953 C 173.890 58.452, 169.879 55.338, 158.708 49.304 C 148.392 43.733, 142 38.635, 142 35.979 C 142 34.953, 143.012 33.400, 144.250 32.529 C 145.663 31.534, 146.105 30.675, 145.440 30.222 C 144.857 29.825, 142.808 28.276, 140.886 26.781 C 138.965 25.285, 135.767 23.383, 133.780 22.553 C 130.481 21.174, 129.987 21.193, 128.077 22.772 M 36.635 38.183 C 35.810 39.457, 34.820 41.781, 34.435 43.346 L 33.735 46.192 37.355 43.846 C 41.178 41.369, 41.941 39.026, 39.567 37.056 C 38.416 36.100, 37.838 36.323, 36.635 38.183 M 28.250 54.222 C 27.012 55.546, 26 57.090, 26 57.654 C 26 58.568, 31.049 61.498, 31.401 60.787 C 31.479 60.629, 31.308 58.546, 31.022 56.157 L 30.500 51.814 28.250 54.222 M 36.605 66.250 C 40.398 72.808, 48.145 79, 52.556 79 C 54.421 79, 54.809 78.272, 55.352 73.750 C 56.488 64.293, 57.249 65, 45.941 65 C 38.175 65, 36.047 65.285, 36.605 66.250 M 155 70.407 C 153.075 71.132, 148.350 73.250, 144.500 75.113 C 137.842 78.335, 136.963 78.500, 126.500 78.494 C 116.403 78.488, 114.556 78.172, 104 74.636 C 85.743 68.520, 76.906 69.515, 66.809 78.822 C 64.328 81.109, 61.227 82.967, 59.568 83.161 C 56.777 83.487, 56.945 83.707, 63.942 88.899 L 71.218 94.298 83.798 93.660 C 90.717 93.309, 96.774 92.626, 97.259 92.141 C 97.767 91.633, 95.360 90.507, 91.570 89.482 C 87.300 88.326, 85 87.194, 85 86.247 C 85 85.001, 88.807 84.842, 111.499 85.146 C 126.074 85.341, 137.999 85.861, 137.999 86.302 C 138 86.743, 139.359 87.578, 141.021 88.157 C 145.625 89.762, 146.613 92.478, 143.666 95.424 C 139.780 99.311, 129.764 101.364, 127.200 98.800 C 125.322 96.922, 125.755 95.399, 129.128 92.026 C 132.085 89.068, 132.126 88.928, 129.878 89.447 C 128.570 89.749, 118.933 91.764, 108.461 93.924 C 85.959 98.567, 60.500 104.621, 58.298 105.853 C 57.114 106.515, 57.669 106.903, 60.583 107.450 C 66.201 108.504, 70.182 110.815, 69.800 112.800 C 69.181 116.016, 64.028 117.383, 50.897 117.814 C 37.462 118.255, 34 117.470, 34 113.982 C 34 111.961, 39.839 108.458, 47.146 106.093 C 50.294 105.075, 50.848 104.428, 51.207 101.353 C 51.483 98.988, 51.182 97.659, 50.311 97.396 C 49.590 97.178, 48.296 96.778, 47.437 96.507 C 45.215 95.807, 46.668 94, 49.452 94 C 52.085 94, 53 92.335, 53 87.541 C 53 84.555, 52.546 84.051, 48.155 82.162 C 33.929 76.042, 24.742 77.706, 19.854 87.287 C 13.754 99.242, 18.078 120.855, 29.066 133.338 L 33.203 138.037 29.088 151.335 C 25.245 163.750, 21.730 178.063, 22.367 178.700 C 23.064 179.397, 28.683 172.224, 39.365 157 C 51.825 139.243, 54.316 136.150, 58.204 133.602 C 61.446 131.477, 63.709 132.396, 64.539 136.176 C 65.312 139.695, 64.715 144.666, 61.823 158.808 C 60.282 166.345, 60.013 169.413, 60.822 170.222 C 61.431 170.831, 64.308 171.521, 67.215 171.754 C 71.564 172.103, 73.120 171.758, 76 169.807 C 82.404 165.469, 86.851 154.240, 88.942 137.128 C 89.855 129.657, 91.125 126.775, 92.513 129.021 C 92.919 129.679, 94.541 139.730, 96.117 151.358 C 97.692 162.986, 99.196 173.063, 99.459 173.750 C 100.794 177.240, 105.051 173.489, 116.196 159 C 137.260 131.619, 148.916 132.588, 158.271 162.500 C 159.647 166.900, 161.089 172.412, 161.475 174.750 C 161.860 177.088, 162.482 179, 162.856 179 C 163.937 179, 172.678 171.536, 175.435 168.259 C 181.946 160.521, 180.970 156.187, 170.476 146.237 C 164.072 140.165, 163 138.668, 163 135.797 C 163 131.445, 165.043 128.645, 170.591 125.394 C 173.066 123.943, 174.931 122.598, 174.737 122.404 C 174.543 122.209, 168.560 122.774, 161.442 123.658 C 145.318 125.662, 112.209 126.020, 106.409 124.254 C 104.159 123.569, 101.464 122.065, 100.420 120.912 C 98.544 118.838, 98.557 118.785, 101.594 116.071 C 107.607 110.699, 130.585 107.362, 153.500 108.533 C 166.297 109.187, 166.535 109.160, 168.713 106.824 C 169.930 105.518, 171.671 101.543, 172.581 97.990 C 175.664 85.956, 172.406 73.321, 165.473 70.424 C 161.337 68.696, 159.547 68.693, 155 70.407 M 55.986 88.215 C 55.979 88.922, 55.701 90.513, 55.370 91.750 C 54.795 93.894, 55.040 94, 60.578 94 L 66.389 94 62.944 91.428 C 57.660 87.481, 56.002 86.715, 55.986 88.215 M 99.431 89.518 L 103.141 92.036 112.321 90.268 L 121.500 88.500 114.500 87.874 C 110.650 87.530, 104.850 87.193, 101.610 87.124 L 95.721 87 99.431 89.518 M 132.250 92.538 C 127.731 96.163, 128.082 97.364, 133.486 96.755 C 138.470 96.193, 143.723 93.323, 142.326 91.926 C 140.057 89.657, 135.496 89.935, 132.250 92.538 M 75.269 97.693 C 76.242 97.947, 77.592 97.930, 78.269 97.656 C 78.946 97.382, 78.150 97.175, 76.500 97.195 C 74.850 97.215, 74.296 97.439, 75.269 97.693 M 54 101.067 C 54 103.797, 54.248 104.055, 56.250 103.407 C 57.487 103.007, 61.425 101.931, 65 101.017 L 71.500 99.354 65.103 98.677 C 54.268 97.530, 54 97.588, 54 101.067 M 43.500 110.520 C 40.200 111.879, 37.388 112.993, 37.250 112.995 C 37.112 112.998, 37 113.418, 37 113.928 C 37 115.550, 47.206 116.184, 55.800 115.095 C 67.394 113.626, 68.859 112.575, 61.964 110.672 C 51.918 107.899, 49.908 107.882, 43.500 110.520" stroke="none" fill="black" fill-rule="evenodd"/>
</svg>