<svg xmlns="http://www.w3.org/2000/svg" width="200" height="200" viewBox="0 0 200 200" version="1.1">
	<path d="M 36.565 12.525 C 33.421 15.917, 32.129 21.610, 30.450 39.463 C 28.127 64.174, 27.058 68, 22.474 68 C 19.101 68, 19.360 70.191, 22.986 72.333 C 27.614 75.067, 31.150 81.995, 31.753 89.515 C 32.402 97.595, 31.114 104.145, 24.925 124.243 C 20.077 139.986, 18.832 148.606, 20.927 151.915 C 23.503 155.985, 34.501 151.820, 54.779 139.096 C 68.836 130.275, 72.591 128.771, 73.651 131.532 C 74.611 134.035, 70.779 146.244, 64.870 159.504 C 59.492 171.576, 59.123 174.925, 62.946 176.971 C 65.681 178.435, 68.961 176.917, 73.582 172.051 C 86.908 158.015, 100 126.819, 100 109.101 C 100 106.479, 100.270 104.063, 100.600 103.734 C 101.834 102.500, 105.958 105.393, 107.452 108.540 C 110.975 115.963, 108.787 129.016, 99.363 156.792 C 95.764 167.403, 93.054 176.698, 93.342 177.448 C 93.781 178.594, 94.537 178.581, 98.053 177.370 C 112.557 172.373, 118.953 162.839, 128.953 131.305 C 131.778 122.398, 134.940 114.073, 135.980 112.805 C 137.698 110.711, 138.017 110.643, 139.464 112.064 C 140.922 113.495, 140.916 114.220, 139.397 120.564 C 137.188 129.798, 137.176 146.485, 139.374 155 C 142.593 167.476, 148.681 176.706, 156.297 180.660 C 160.753 182.974, 169.431 182.806, 175 180.299 C 177.475 179.185, 181.886 176.355, 184.802 174.010 C 189.686 170.083, 190.050 169.502, 189.429 166.624 C 188.333 161.553, 184.330 154.455, 180.972 151.630 C 179.252 150.183, 175.987 148.702, 173.716 148.339 C 171.446 147.976, 168.555 146.646, 167.294 145.385 C 165.249 143.339, 165.001 142.138, 165.007 134.295 C 165.010 129.458, 165.915 119.467, 167.016 112.093 C 168.118 104.720, 168.903 98.605, 168.760 98.505 C 163.618 94.921, 157.392 91.219, 148.883 86.688 C 136.057 79.858, 127.535 73.726, 123.121 68.153 L 119.832 64 124.198 64 C 131.074 64, 138.266 66.316, 142.865 70.012 C 146.455 72.897, 148.034 73.467, 153.298 73.779 C 158.812 74.105, 160.015 73.815, 164.138 71.166 C 175.449 63.899, 181.803 46.088, 177.824 32.807 C 175.599 25.380, 164.768 16, 158.417 16 C 157.344 16, 154.102 18.068, 151.213 20.595 L 145.961 25.189 126.231 25.737 C 99.600 26.477, 88.922 24.363, 78.250 16.237 C 74.501 13.383, 74.530 13.281, 76.483 22.500 C 81.052 44.073, 73.985 60.879, 62.849 54.919 C 57.783 52.208, 55.584 39.700, 58.106 27.941 L 59.212 22.784 54.418 17.917 C 46.465 9.842, 40.672 8.093, 36.565 12.525 M 36.954 17.370 C 35.856 19.853, 34.566 26.222, 33.967 32.120 C 33.386 37.829, 32.468 46.740, 31.926 51.923 C 30.930 61.442, 28.096 70, 25.940 70 C 25.295 70, 26.369 71.773, 28.327 73.940 C 32.176 78.200, 35 85.939, 35 92.224 C 35 97.815, 32.334 109.943, 28.454 122 C 23.850 136.307, 21.832 145.483, 22.610 148.581 C 23.202 150.940, 23.581 151.114, 26.818 150.506 C 31.630 149.604, 39.764 145.391, 53.088 136.900 C 69.709 126.308, 72.829 125.283, 75.597 129.507 C 77.120 131.833, 77.120 132.489, 75.598 138.551 C 74.694 142.146, 71.491 150.843, 68.478 157.876 C 62.697 171.372, 62.126 173.727, 64.419 174.607 C 69.606 176.598, 83.576 156.456, 91.370 135.749 C 94.655 127.021, 97.045 115.926, 97.439 107.571 L 97.772 100.500 100.636 100.831 C 104.315 101.257, 107.513 103.327, 109.736 106.722 C 111.092 108.793, 111.483 111.392, 111.427 117.958 C 111.340 128.230, 108.351 140.444, 101.045 160.395 C 98.247 168.037, 96.079 174.409, 96.228 174.555 C 97.273 175.576, 105.041 171.395, 108.612 167.890 C 114.536 162.076, 119.011 153.107, 124.526 135.989 C 130.902 116.204, 132.032 113.230, 134.237 110.426 C 136.639 107.372, 139.037 107.346, 141.851 110.341 C 144.002 112.631, 144.017 112.826, 142.526 119.091 C 137.392 140.659, 141.334 163.334, 152.085 174.085 C 160.343 182.343, 171.924 181.444, 183.443 171.651 L 187.386 168.299 185.570 163.544 C 182.727 156.099, 178.915 152.439, 172.329 150.831 C 164.479 148.916, 162.610 146.219, 162.177 136.182 C 161.986 131.784, 162.727 122.523, 163.909 114.515 C 165.869 101.239, 165.886 100.444, 164.237 98.842 C 163.282 97.913, 156.875 94.123, 150 90.418 C 134.837 82.247, 130.538 79.380, 124.718 73.560 L 120.239 69.081 117.993 75.290 C 112.455 90.605, 106.259 96.259, 100.893 90.893 C 99.073 89.073, 98.838 87.867, 99.168 82.033 C 99.617 74.094, 102.883 68.182, 108.724 64.736 C 110.706 63.566, 111.765 62.422, 111.077 62.192 C 110.389 61.963, 108.244 63.289, 106.310 65.138 C 99.421 71.724, 79.306 94.674, 71.078 105.336 C 66.478 111.296, 62.058 116.424, 61.256 116.732 C 59.186 117.526, 58.448 115.878, 56.511 106.126 C 55.570 101.387, 53.553 94.092, 52.028 89.914 L 49.256 82.319 52.721 78.147 C 58.020 71.768, 63.416 69.133, 75.703 66.924 C 87.826 64.745, 94.899 62.853, 100.617 60.261 C 103.741 58.844, 104.435 58.044, 104.170 56.168 C 103.572 51.946, 108.768 48.118, 120 44.505 C 125.273 42.809, 128.061 40.883, 138 32.070 L 142.500 28.079 125 28.625 C 105.137 29.245, 94.923 27.943, 85.375 23.571 C 82.251 22.141, 79.585 21.090, 79.450 21.236 C 79.315 21.381, 79.648 24.200, 80.190 27.500 C 82.286 40.266, 78.970 53.218, 72.613 57.094 C 60.898 64.238, 51.139 49.222, 54.940 29.900 L 56.152 23.740 52.326 19.787 C 48.022 15.342, 44.113 13, 40.993 13 C 39.468 13, 38.354 14.205, 36.954 17.370 M 153.350 22.368 C 149.879 25.594, 149.719 25.949, 151.727 25.973 C 152.963 25.988, 154.665 27.086, 155.552 28.440 C 157.023 30.684, 157.015 31.166, 155.454 34.456 C 154.521 36.423, 153.416 38.243, 152.999 38.500 C 152.583 38.758, 152.462 40.921, 152.731 43.308 C 153.458 49.760, 150.341 55.190, 143.736 58.978 C 140.856 60.630, 137.600 62.003, 136.500 62.030 C 135.071 62.064, 135.455 62.493, 137.846 63.531 C 139.687 64.331, 142.488 66.074, 144.071 67.406 C 151.470 73.632, 159.238 72.857, 166.975 65.121 C 173.109 58.986, 176 51.531, 176 41.848 C 176 33.183, 172.820 26.470, 166.841 22.514 C 160.401 18.251, 157.809 18.223, 153.350 22.368 M 139.203 34.508 C 131.136 41.686, 131.198 43.228, 139.305 37.046 C 142.787 34.390, 144.821 33.422, 145.496 34.100 C 146.738 35.347, 145.186 36.596, 129.500 46.964 C 114.480 56.892, 112.293 58.610, 113.335 59.659 C 113.794 60.121, 118.744 60.494, 124.335 60.487 C 133.237 60.475, 135.211 60.142, 140.224 57.804 C 147.466 54.426, 150.105 50.517, 149.879 43.500 C 149.762 39.846, 150.342 37.455, 152.037 34.616 C 154.283 30.854, 154.297 30.690, 152.486 29.366 C 149.150 26.927, 146.625 27.905, 139.203 34.508 M 115.439 49.051 C 109.401 51.375, 105.361 54.761, 106.850 56.250 C 108.073 57.473, 115.271 53.506, 118.924 49.595 C 120.258 48.168, 121.158 47.023, 120.924 47.052 C 120.691 47.081, 118.223 47.980, 115.439 49.051 M 97.732 64.071 C 93.460 65.671, 86.035 67.707, 81.232 68.595 C 65.956 71.423, 62.553 72.674, 57.358 77.378 C 52.525 81.753, 52.523 81.759, 53.681 85.628 C 55.427 91.458, 59.847 108.114, 60.501 111.326 C 61.051 114.027, 61.422 113.698, 68.952 103.826 C 77.171 93.051, 83.821 85.284, 97.858 70.063 C 102.455 65.078, 106.055 61.037, 105.858 61.082 C 105.661 61.126, 102.004 62.472, 97.732 64.071 M 113.007 65.593 C 106.601 68.371, 102.873 73.098, 101.644 80 C 100.379 87.103, 103.748 92.114, 107.626 88.895 C 111.205 85.926, 120.098 63.960, 117.690 64.039 C 117.036 64.061, 114.928 64.760, 113.007 65.593" stroke="none" fill="black" fill-rule="evenodd"/>
</svg>