<svg xmlns="http://www.w3.org/2000/svg" width="200" height="200" viewBox="0 0 200 200" version="1.1">
	<path d="M 40.266 13.734 C 39.349 14.048, 39.193 16.405, 39.656 22.929 C 39.998 27.755, 39.972 33.337, 39.597 35.334 C 38.980 38.626, 38.735 38.851, 36.974 37.752 C 35.384 36.759, 34.728 36.843, 33.354 38.217 C 31.952 39.619, 31.544 43.241, 30.878 60.198 C 29.913 84.747, 27.973 94.074, 22.594 100.028 C 18.597 104.452, 16.576 107.910, 17.467 108.800 C 18.553 109.886, 21.340 107.488, 26.077 101.391 C 31.189 94.810, 36.409 91.377, 42.763 90.415 C 47.806 89.651, 53.286 90.874, 65.500 95.488 C 70.450 97.358, 75.737 99.147, 77.250 99.463 C 79.961 100.030, 80 100.147, 80 107.703 C 80 113.386, 79.470 116.463, 77.951 119.601 C 73.900 127.970, 67.063 129.759, 47.735 127.506 C 40.626 126.678, 32.490 126.010, 29.655 126.022 C 20.785 126.060, 13.771 130.649, 11.521 137.886 C 10.829 140.112, 10.971 140.223, 13.639 139.543 C 24.244 136.841, 37.193 134.854, 47.500 134.348 C 61.363 133.667, 67.146 134.768, 69.631 138.559 C 71.139 140.861, 71.128 141.381, 69.470 145.770 C 65.637 155.922, 45.600 171.133, 29.464 176.142 C 25.359 177.417, 22 178.774, 22 179.158 C 22 179.543, 22.765 180.622, 23.701 181.558 C 29.407 187.264, 68.655 174.495, 90.033 159.977 C 96.457 155.615, 101.574 150.929, 104.635 146.608 L 106.683 143.716 110.282 149.608 C 114.624 156.715, 124.486 166.543, 132 171.252 C 146.522 180.352, 163.025 183.479, 171.941 178.821 C 179.026 175.119, 180.500 172.309, 180.500 162.506 C 180.500 157.919, 180.208 153.874, 179.851 153.517 C 179.494 153.160, 177.244 153.407, 174.851 154.064 C 163.369 157.219, 144.806 154.453, 131.083 147.542 C 124.260 144.106, 117 138.242, 117 136.167 C 117 131.208, 133.069 132.650, 156.353 139.698 L 165.206 142.378 167.149 139.939 C 175.420 129.557, 177.861 123.261, 174.800 120.200 C 172.807 118.207, 165.695 118.825, 149.196 122.425 C 123.162 128.105, 114.758 128.079, 109.404 122.302 L 107.030 119.741 105.094 122.120 L 103.157 124.500 99.984 121.500 C 98.239 119.850, 94.580 113.890, 91.853 108.256 L 86.895 98.013 89.878 94.256 C 97.045 85.228, 102.340 55.391, 98.486 45.750 C 97.895 44.274, 98.361 44, 101.465 44 L 105.144 44 104.322 49.750 C 103.870 52.913, 103.500 62.039, 103.500 70.031 C 103.500 83.570, 103.671 84.892, 106 89.413 C 110.594 98.327, 116.689 99.679, 134.879 95.816 C 144.611 93.748, 145.435 93.713, 148.106 95.246 C 151.570 97.234, 152.750 95.988, 149.869 93.384 C 147.323 91.081, 141.235 91.087, 132.356 93.400 C 124.403 95.471, 115.143 95.489, 112.217 93.439 C 106.571 89.485, 104.306 77.694, 105.941 60.770 C 106.540 54.572, 107.296 48.209, 107.620 46.631 L 108.211 43.762 115.239 44.455 C 124.059 45.324, 133.379 48.182, 138.250 51.510 C 141.438 53.688, 142.004 54.629, 142.024 57.786 C 142.058 63.059, 143.593 69.022, 145.376 70.805 C 146.629 72.058, 147.175 72.100, 148.450 71.042 C 150.869 69.034, 150.400 62.167, 147.526 57.500 C 145.580 54.340, 145.058 52.135, 145.042 47 L 145.022 40.500 151.037 37.037 C 158.407 32.794, 161.482 29.699, 160.604 27.411 C 160.043 25.947, 158.853 25.796, 151.728 26.283 C 147.203 26.592, 136.128 28.273, 127.118 30.019 C 116.207 32.133, 110.522 32.844, 110.092 32.149 C 109.718 31.543, 108.879 31.457, 108.092 31.943 C 106.870 32.698, 106.537 33.914, 106.128 39.122 C 106.041 40.219, 104.648 40.961, 101.825 41.412 C 97.864 42.045, 97.415 41.850, 93.075 37.593 C 88.846 33.445, 86.029 31.885, 69.598 24.591 C 66.351 23.150, 63.956 21.710, 64.275 21.391 C 64.594 21.072, 68.825 21.311, 73.678 21.923 C 90.100 23.991, 110.400 24.982, 136.516 24.991 L 162.533 25 165.738 30.359 C 167.501 33.307, 170.391 39.945, 172.160 45.109 C 174.819 52.873, 175.446 56.406, 175.778 65.500 C 176.304 79.858, 174.255 86.038, 166.423 93.722 C 163.495 96.594, 161.518 99.202, 162.029 99.518 C 164.604 101.109, 171.969 93.424, 175.899 85.046 C 178.231 80.074, 178.499 78.309, 178.491 68 C 178.484 60.208, 177.922 54.468, 176.748 50.198 C 173.864 39.714, 169.060 29.313, 165.175 25.147 L 161.500 21.206 153 22.049 C 143.591 22.983, 95.719 21.643, 80.898 20.031 C 66.610 18.478, 58 16.921, 58 15.891 C 58 15.380, 56.987 15.216, 55.748 15.527 C 54.509 15.838, 50.797 15.467, 47.498 14.703 C 44.199 13.938, 40.945 13.503, 40.266 13.734 M 42.653 23.424 C 42.998 27.503, 42.728 33.683, 42.023 37.864 L 40.790 45.173 37.948 42.450 L 35.106 39.728 34.616 42.114 C 34.346 43.426, 33.868 52.150, 33.554 61.500 C 33.239 70.850, 32.381 81.538, 31.648 85.250 C 30.914 88.963, 30.411 92, 30.530 92 C 30.648 92, 32.908 91.044, 35.550 89.875 C 43.225 86.480, 50.435 86.977, 63.174 91.782 C 69.045 93.996, 75.251 96.116, 76.965 96.492 C 79.844 97.125, 80.044 96.998, 79.581 94.839 C 79.305 93.552, 78.584 89.800, 77.980 86.500 C 76.594 78.926, 71.920 65.643, 71.014 66.702 C 70.638 67.141, 69.531 69.670, 68.555 72.323 C 65.127 81.633, 60.027 84.730, 58.659 78.332 C 58.326 76.774, 58.590 68.361, 59.245 59.635 C 60.466 43.373, 61.186 41.250, 64.542 44.034 C 65.991 45.238, 64.003 39.094, 58.220 24.507 L 56.241 19.515 49.145 17.904 L 42.050 16.293 42.653 23.424 M 61 23.549 C 61 23.745, 64.295 32.528, 66.939 39.382 C 68.010 42.159, 68.121 42.200, 69.988 40.511 C 72.363 38.362, 74.741 39.119, 75.533 42.276 L 76.126 44.637 84.195 43.353 C 88.633 42.647, 92.492 41.842, 92.769 41.564 C 93.905 40.428, 86.604 35.051, 80.283 32.368 C 76.565 30.791, 70.706 28.113, 67.262 26.418 C 63.818 24.723, 61 23.432, 61 23.549 M 151 28.737 C 149.075 28.966, 139.197 30.694, 129.048 32.576 C 118.900 34.459, 110.237 36, 109.798 36 C 109.359 36, 109 37.097, 109 38.439 C 109 40.600, 109.540 40.943, 113.750 41.454 C 123.022 42.581, 132.559 45.088, 136.852 47.527 C 139.246 48.887, 141.383 50, 141.602 50 C 141.821 50, 142 47.587, 142 44.637 L 142 39.274 150 34.438 C 154.400 31.778, 158 29.242, 158 28.801 C 158 27.991, 157.317 27.985, 151 28.737 M 70.571 43.571 C 69.292 44.851, 69.104 45.535, 69.954 45.818 C 71.531 46.344, 73.344 44.531, 72.818 42.954 C 72.535 42.104, 71.851 42.292, 70.571 43.571 M 82.074 46.372 L 75.648 47.500 74.465 52.761 C 73.366 57.644, 73.515 58.810, 76.529 68.952 C 80.858 83.521, 85.090 94.127, 86.419 93.738 C 88.703 93.069, 93.101 82.043, 95.008 72.205 C 97.172 61.040, 97.562 51.607, 96.025 47.565 C 94.911 44.636, 92.931 44.466, 82.074 46.372 M 70.710 51 C 70.998 52.100, 71.406 53, 71.617 53 C 71.827 53, 72 52.100, 72 51 C 72 49.900, 71.592 49, 71.094 49 C 70.595 49, 70.423 49.900, 70.710 51 M 62.672 50.750 C 62.426 51.163, 61.900 57.462, 61.501 64.750 C 60.996 73.992, 61.103 78, 61.853 78 C 63.190 78, 64.475 75.633, 67.492 67.616 L 69.850 61.354 67.281 55.677 C 64.846 50.294, 63.683 49.051, 62.672 50.750 M 145.081 60.125 C 144.936 63.027, 146.227 68, 147.125 68 C 147.606 68, 147.980 67.213, 147.955 66.250 C 147.893 63.851, 145.184 58.076, 145.081 60.125 M 82.994 106.250 C 82.987 116.290, 81.523 120.740, 76.612 125.651 C 73.306 128.957, 71.453 129.959, 67.574 130.541 L 62.695 131.273 66.597 133.155 C 71.520 135.530, 73 137.511, 73 141.731 C 73 152.062, 56.375 167.805, 36.131 176.644 C 29.427 179.571, 28.905 179.977, 31.833 179.988 C 39.758 180.017, 58.864 173.622, 74.626 165.665 C 91.251 157.273, 102.836 147.485, 104.637 140.311 C 105.561 136.628, 107.466 137.607, 109.912 143.020 C 118.606 162.255, 142.066 178, 162.034 178 C 173.110 178, 177.958 173.394, 177.985 162.844 L 178 157.189 166.250 157.729 C 152.807 158.348, 142.909 156.445, 131.670 151.081 C 120.123 145.570, 112.842 138.031, 115.062 133.884 C 117.852 128.670, 131.517 129.556, 155.425 136.500 L 164.351 139.093 166.621 136.296 C 170.123 131.981, 174.192 124.120, 173.502 123.003 C 172.388 121.200, 164.234 121.943, 150.243 125.123 C 141.624 127.081, 132.510 128.434, 125.799 128.749 C 116.235 129.199, 114.662 129.026, 111 127.117 C 107.846 125.473, 106.454 125.222, 104.952 126.026 C 100.778 128.260, 95.857 122.901, 89.167 108.840 C 86.600 103.445, 84.162 99.024, 83.750 99.015 C 83.338 99.007, 82.997 102.263, 82.994 106.250 M 21.500 130.386 C 18.432 131.723, 15.351 134.684, 16.172 135.505 C 16.424 135.757, 21.100 135.101, 26.565 134.048 C 32.029 132.995, 39.425 131.783, 43 131.354 L 49.500 130.574 44.500 129.874 C 36.309 128.729, 24.710 128.987, 21.500 130.386" stroke="none" fill="black" fill-rule="evenodd"/>
</svg>