<svg xmlns="http://www.w3.org/2000/svg" width="200" height="200" viewBox="0 0 200 200" version="1.1">
	<path d="M 55.297 21.972 C 54.821 23.794, 53.754 23.966, 41.388 24.222 C 21.198 24.641, 24.376 26.445, 45.878 26.772 L 63.760 27.044 61.850 34.272 C 59.555 42.957, 58.503 51.883, 59.367 55.327 C 60.540 60, 64.774 63.739, 72.034 66.513 L 79.024 69.184 73.984 71.695 C 68.876 74.241, 65.677 77.658, 62.462 84 C 55.627 97.487, 56.842 117.545, 65.015 126.137 C 68.254 129.541, 69.243 130, 73.345 130 C 75.905 130, 78 130.420, 78 130.933 C 78 132.259, 70.586 138.029, 63.251 142.411 C 57.632 145.767, 31.107 158.782, 26.754 160.318 C 24.459 161.128, 21.109 154.716, 20.312 147.989 C 19.638 142.300, 21.165 139.134, 28.926 130.125 C 38.050 119.533, 40.720 110.322, 38.918 95.654 C 38.043 88.528, 37.575 87.250, 35.208 85.515 C 33.719 84.424, 30.720 81.888, 28.545 79.879 L 24.591 76.228 29.641 70.703 C 35.698 64.076, 37.485 58.725, 37.295 47.792 C 37.149 39.401, 36.438 36, 34.829 36 C 34.142 36, 34.027 38.661, 34.490 43.888 C 35.572 56.115, 34.035 61.588, 27.442 68.977 C 24.449 72.331, 22 75.562, 22 76.155 C 22 77.397, 28.182 83.652, 32.266 86.542 C 34.525 88.142, 35.228 89.690, 36.105 95 C 38.345 108.563, 35.362 118.754, 26.005 129.500 C 20.484 135.841, 17.058 142.029, 17.022 145.729 C 16.993 148.645, 20.741 159.966, 22.545 162.410 C 23.919 164.272, 24.124 164.249, 30.727 161.502 C 52.178 152.579, 76.972 138.115, 79.953 132.785 C 81.948 129.217, 80.639 127.930, 74.337 127.260 C 65.601 126.331, 61.859 120.388, 61.202 106.394 C 60.244 86, 70.359 71.063, 84.296 72.292 C 92.580 73.023, 89.792 70.167, 78 65.843 C 64.511 60.897, 61.974 58.413, 62.061 50.234 C 62.094 47.080, 63.106 40.675, 64.311 36 L 66.500 27.500 73.468 27.199 C 84.107 26.740, 106.242 30.567, 115.627 34.489 C 118.815 35.821, 119.083 36.195, 117.887 37.637 C 114.476 41.746, 101.947 45.081, 88.818 45.375 C 81.345 45.542, 78.542 46.051, 74.660 47.944 C 70.326 50.058, 68.034 52.367, 69.156 53.490 C 69.378 53.711, 75.171 52.794, 82.030 51.450 C 88.888 50.107, 95.340 49.006, 96.368 49.004 C 99.327 48.998, 105.671 56.066, 106.942 60.786 C 108.278 65.746, 107.128 71.297, 103.919 75.376 C 100.860 79.265, 98.085 80.433, 92.500 80.184 C 88.578 80.008, 86.637 80.516, 83.500 82.539 L 79.500 85.118 88.473 84.656 L 97.446 84.193 100.713 87.657 C 104.623 91.803, 107.473 100.541, 106.455 105.267 C 104.716 113.344, 100.908 117, 94.233 117 C 87.991 117, 77 119.947, 77 121.622 C 77 123.563, 88.584 123.457, 94.460 121.462 C 103.112 118.525, 105.672 122.676, 107.068 141.902 C 108.349 159.535, 109.710 166.880, 112.981 173.797 L 115.815 179.788 123.157 181.134 C 127.342 181.901, 137.382 182.478, 146.500 182.476 C 160.362 182.474, 163.478 182.168, 169.819 180.187 C 179.823 177.062, 184.098 173.115, 184.710 166.438 C 185.074 162.469, 184.654 160.554, 182.571 156.677 C 180.463 152.754, 180.006 150.625, 180.122 145.261 C 180.235 140.044, 179.903 138.402, 178.529 137.398 C 176.058 135.591, 173.272 136.900, 163.676 144.377 C 159.179 147.882, 153.925 151.703, 152 152.870 C 147.747 155.449, 142.856 155.614, 140.754 153.250 C 138.811 151.063, 137.013 144.648, 137.006 139.872 C 137.003 137.877, 136.325 134.629, 135.500 132.654 C 133.126 126.972, 133.562 123.547, 137.031 120.627 C 141 117.288, 144.778 116.306, 160.962 114.409 C 179.074 112.287, 182.623 110.331, 179.973 103.934 C 178.555 100.512, 164.935 87.608, 163.951 88.755 C 163.599 89.165, 162.257 92.168, 160.967 95.430 C 158.120 102.630, 151.462 110, 147.806 110 C 144.638 110, 140.457 106.784, 138.365 102.738 C 136.183 98.520, 136.324 90.856, 138.657 86.790 C 141.010 82.691, 148.052 79, 153.521 79 C 156.434 79, 159.334 77.973, 163.559 75.445 C 176.256 67.846, 177.219 63.249, 166 63.787 C 165.725 63.800, 159.650 64.117, 152.500 64.492 C 136.219 65.344, 135.020 64.804, 138.083 58 C 139.197 55.525, 143.392 49.225, 147.406 44 C 158.479 29.584, 160.053 25.551, 155.777 22.557 C 152.890 20.534, 142.299 20.510, 131 22.500 C 125.160 23.529, 115.616 23.995, 100.500 23.990 C 75.108 23.981, 67.645 23.368, 68.417 21.355 C 68.822 20.300, 67.484 20, 62.375 20 C 56.684 20, 55.744 20.262, 55.297 21.972 M 143.250 23.685 C 142.012 23.935, 141 24.783, 141 25.570 C 141 26.761, 137.620 27.009, 120.750 27.055 L 100.500 27.110 108 29.062 C 124.966 33.479, 125.227 40.004, 108.646 45.184 C 104.716 46.412, 101.319 47.542, 101.097 47.694 C 100.876 47.847, 101.849 48.880, 103.260 49.990 C 112.316 57.113, 111.946 74.084, 102.602 80.209 L 99.252 82.405 102.277 85.430 C 106.725 89.879, 108.953 95.557, 108.974 102.500 C 108.993 108.580, 106.790 113.971, 103.221 116.580 C 101.887 117.556, 101.976 117.976, 103.935 119.935 C 107.764 123.764, 108.963 128.427, 110.048 143.701 C 111.211 160.078, 112.100 165.037, 115.141 172.106 C 117.113 176.690, 117.451 176.957, 122.852 178.200 C 126.418 179.021, 135.135 179.483, 146.500 179.455 C 162.467 179.415, 165.178 179.162, 170.500 177.217 C 181.771 173.099, 184.647 166.457, 179.415 156.628 C 177.157 152.387, 176.915 151.041, 177.500 145.998 C 178.586 136.642, 177.665 136.858, 160.748 149.931 C 144.645 162.374, 137.240 160.387, 134.520 142.895 C 133.802 138.278, 132.668 133.026, 132.001 131.225 C 130.443 127.023, 131.418 121.880, 134.265 119.277 C 137.005 116.773, 142.356 114, 144.450 114 C 145.303 114, 146 113.550, 146 113 C 146 112.450, 145.386 112, 144.635 112 C 139.763 112, 134.047 102.560, 134.038 94.500 C 134.027 84.395, 140.729 77.830, 152.732 76.188 C 158.602 75.385, 166.995 71.121, 170.124 67.351 C 171.267 65.973, 170.305 65.900, 160.951 66.656 C 146.796 67.799, 137.387 67.566, 135.530 66.025 C 131.792 62.922, 134.250 57.144, 145.978 41.468 C 153.945 30.819, 156.084 26.633, 154.377 25.030 C 153.238 23.960, 146.140 23.102, 143.250 23.685 M 162.117 99.414 C 158.891 105.967, 153.226 112, 150.299 112 C 149.401 112, 148.888 112.221, 149.158 112.491 C 149.967 113.301, 173.670 110.247, 175.919 109.043 C 177.064 108.431, 178 107.237, 178 106.391 C 178 104.866, 167.353 93, 165.985 93 C 165.594 93, 163.854 95.887, 162.117 99.414" stroke="none" fill="black" fill-rule="evenodd"/>
</svg>