<svg xmlns="http://www.w3.org/2000/svg" width="200" height="200" viewBox="0 0 200 200" version="1.1">
	<path d="M 101.667 15.667 C 101.300 16.033, 101 20.083, 101 24.667 C 101 29.250, 100.806 33, 100.569 33 C 100.333 33, 95.811 30.922, 90.521 28.382 C 85.230 25.843, 80.693 23.973, 80.438 24.229 C 80.183 24.484, 80.709 26.450, 81.608 28.596 C 85.122 36.990, 81.264 52.274, 73.448 60.926 C 70.342 64.364, 69.129 65.049, 66.587 64.801 C 63.819 64.531, 63.314 63.940, 61.703 59.081 C 60.224 54.621, 60.092 52.800, 60.953 48.782 C 63.445 37.164, 61.719 24.257, 57.455 22.621 C 48.430 19.158, 36.254 29.132, 29.935 45.165 C 28.819 47.997, 27.523 54.406, 27.056 59.407 C 26.255 67.986, 26.404 69.263, 29.691 82 C 35.779 105.587, 35.268 121.670, 28.223 128.202 C 25.258 130.952, 20.135 133, 16.219 133 C 13.759 133, 13.741 133.066, 14.207 140.327 C 15.649 162.786, 32.383 165.017, 57.700 146.125 C 67.271 138.984, 77 128.876, 77 126.074 C 77 124.222, 76.400 124, 71.400 124 C 66.365 124, 65.457 123.657, 62.400 120.600 C 58.950 117.150, 58.441 115.164, 58.911 107 C 59.221 101.600, 61.869 93.081, 65.173 86.854 C 68.455 80.667, 73.708 74.701, 75.110 75.568 C 76.423 76.379, 76.128 86.577, 74.583 93.778 C 73.318 99.674, 73.366 100.309, 75.368 104.219 C 80.173 113.603, 87.629 114.931, 99.750 108.562 L 106.985 104.760 108.959 107.130 C 111.299 109.939, 111.245 109.221, 109.961 120.425 C 109.399 125.334, 108.054 131.349, 106.974 133.793 C 105.294 137.590, 104.681 138.147, 102.754 137.624 C 101.514 137.288, 97.645 136.507, 94.155 135.887 C 88.719 134.923, 87.586 134.985, 86.248 136.324 C 84.832 137.740, 85.004 138.195, 88.093 141.193 C 89.967 143.012, 95.008 147.335, 99.295 150.800 C 107.510 157.439, 111.211 162.181, 110.767 165.500 C 110.328 168.786, 102.710 171.765, 91.692 172.959 C 81.176 174.098, 74.569 176.206, 75.236 178.208 C 75.986 180.459, 80.238 180.799, 110 180.985 C 126.225 181.086, 142.200 181.539, 145.500 181.991 C 151.288 182.785, 152.003 182.617, 165.750 177.227 C 174.556 173.775, 180 171.111, 180 170.253 C 180 169.393, 179.335 169.070, 178.250 169.404 C 165.674 173.280, 148.644 174.419, 143.448 171.732 C 139.458 169.668, 137.353 167.116, 136.560 163.378 C 135.212 157.028, 136.372 155.617, 145.338 152.697 C 154.794 149.617, 163.447 144.708, 166.342 140.779 C 170.861 134.647, 163.600 129.609, 147.481 127.693 L 138.216 126.591 137.616 122.213 C 136.368 113.112, 131.921 109.422, 120.713 108.185 L 114.500 107.500 114.193 103.802 C 113.915 100.463, 114.269 99.850, 117.846 97.483 C 123.294 93.878, 130.424 91.830, 133.482 92.993 C 134.809 93.498, 136.657 95.073, 137.588 96.494 C 139.771 99.825, 141.964 109.184, 141.984 115.250 C 141.993 117.862, 142.408 120, 142.907 120 C 144.573 120, 156.949 114.118, 164.267 109.848 C 179.110 101.188, 186.067 91.898, 182.654 85.297 C 179.721 79.627, 167.416 76.112, 156.500 77.827 L 150.500 78.769 154.964 75.135 C 181.426 53.590, 182.677 50.014, 164.624 47.515 C 157.909 46.585, 155 43.562, 155 37.513 C 155 32.312, 152.903 26.590, 149.778 23.264 C 145.290 18.486, 141.793 20.987, 131.944 36.017 C 127.986 42.058, 124.376 47, 123.921 47 C 123.305 47, 114.025 40.958, 109.137 37.374 C 108.938 37.228, 108.100 33.154, 107.275 28.322 C 105.197 16.158, 103.962 13.371, 101.667 15.667 M 50.030 25.113 C 42.861 27.974, 35.674 37.094, 32.004 47.988 C 29.188 56.346, 29.408 68.881, 32.596 81.737 C 40.637 114.164, 37.105 130.728, 21.250 134.946 C 17.006 136.075, 17 136.084, 17.022 140.789 C 17.048 146.299, 19.966 153.376, 22.849 154.919 C 25.926 156.566, 33.423 156.211, 38.811 154.164 C 46.348 151.300, 57.171 143.813, 66.093 135.291 L 74.249 127.500 69.438 126.806 C 60.402 125.503, 56.004 119.816, 56.002 109.432 C 55.997 91.422, 72.726 65.146, 77.965 74.934 C 79.360 77.541, 79.212 84.035, 77.564 92.500 C 76.450 98.224, 76.435 100.062, 77.480 102.582 C 79.216 106.770, 83.580 110, 87.501 110 C 90.779 110, 103.879 104.056, 105.860 101.669 C 106.455 100.952, 107.798 97.615, 108.844 94.253 L 110.747 88.140 108.319 86.029 C 105.767 83.810, 105.816 81.715, 108.521 77.413 C 109.457 75.924, 109.675 73.018, 109.282 67.284 C 108.742 59.412, 108.662 59.209, 105.500 57.701 L 102.269 56.161 101.566 46.246 L 100.863 36.332 96.182 34.033 C 93.607 32.769, 90.059 31.122, 88.298 30.374 L 85.096 29.013 85.661 33.789 C 87.697 50.978, 70.784 74.641, 62.433 66.290 C 58.109 61.966, 57.111 55.037, 59.077 43 C 60.361 35.135, 59.530 28.530, 56.928 25.928 C 54.793 23.793, 53.670 23.660, 50.030 25.113 M 103.011 25.583 C 103.032 29.171, 104.259 35, 104.994 35 C 105.397 35, 105.299 32.638, 104.775 29.750 C 103.772 24.213, 102.993 22.373, 103.011 25.583 M 142.091 26.403 C 140.850 27.725, 136.774 33.462, 133.035 39.153 L 126.236 49.500 129.717 53.363 C 133.802 57.896, 136.947 64.357, 136.978 68.282 C 137.039 75.985, 130.371 83.270, 120.276 86.531 C 114.599 88.365, 113.458 89.108, 113.241 91.110 C 112.722 95.899, 114.225 96.301, 120.433 93.036 C 134.117 85.837, 141.087 90.529, 144.136 108.994 C 144.772 112.847, 145.593 116, 145.960 116 C 146.326 116, 150.486 114.030, 155.204 111.623 C 179.111 99.424, 186.932 88.577, 175.886 82.942 C 170.276 80.080, 161.055 79.482, 152.040 81.396 C 147.937 82.267, 144.202 82.602, 143.740 82.140 C 143.277 81.677, 147.309 77.766, 152.700 73.447 C 164.964 63.620, 174 55.102, 174 53.367 C 174 52.033, 172.904 51.660, 165.500 50.475 C 155.964 48.948, 152 44.695, 152 35.992 C 152 30.918, 148.627 24, 146.154 24 C 145.161 24, 143.333 25.081, 142.091 26.403 M 104.413 45.930 C 104.746 51.007, 105.458 54.665, 106.204 55.126 C 106.885 55.547, 107.577 55.756, 107.742 55.592 C 108.606 54.727, 106.504 40.734, 105.287 39.244 C 104.036 37.714, 103.929 38.534, 104.413 45.930 M 109.463 43.636 C 109.716 45.211, 110.192 48.638, 110.522 51.250 C 110.852 53.862, 111.567 56, 112.111 56 C 113.786 56, 118.411 53.308, 120.274 51.250 C 122.209 49.112, 122.820 49.736, 111.752 42.556 L 109.005 40.773 109.463 43.636 M 120.091 54.996 C 118.216 56.599, 115.449 58.182, 113.941 58.513 C 111.237 59.107, 111.207 59.199, 111.735 65.307 C 112.030 68.713, 112.410 71.663, 112.581 71.862 C 112.751 72.061, 115.053 70.506, 117.695 68.406 C 125.043 62.568, 124.922 62.633, 125.512 64.170 C 125.806 64.937, 123.726 69.727, 120.889 74.814 C 118.052 79.902, 115.946 84.279, 116.209 84.543 C 117.004 85.338, 124.946 82.187, 127.793 79.948 C 136.115 73.402, 136.077 64.086, 127.692 55.250 C 125.996 53.462, 124.358 52.018, 124.054 52.041 C 123.749 52.063, 121.966 53.393, 120.091 54.996 M 116.182 73.313 C 113.837 75.732, 113.006 77.504, 113.023 80.048 C 113.045 83.422, 113.124 83.354, 116.510 77.070 C 118.415 73.534, 119.837 70.503, 119.669 70.335 C 119.501 70.167, 117.932 71.507, 116.182 73.313 M 109.079 82.583 C 109.127 83.748, 109.364 83.985, 109.683 83.188 C 109.972 82.466, 109.936 81.603, 109.604 81.271 C 109.272 80.939, 109.036 81.529, 109.079 82.583 M 110.079 103.583 C 110.127 104.748, 110.364 104.985, 110.683 104.188 C 110.972 103.466, 110.936 102.603, 110.604 102.271 C 110.272 101.939, 110.036 102.529, 110.079 103.583 M 113 115.308 C 113 121.963, 111.290 131.521, 109.366 135.611 C 107.274 140.061, 104.603 140.948, 98 139.386 C 94.975 138.670, 91.600 138.079, 90.500 138.072 C 88.234 138.057, 88.816 138.636, 102.179 149.698 C 111.132 157.108, 115.058 163.382, 113.241 167.370 C 111.399 171.414, 105.031 173.963, 92.739 175.578 C 86.628 176.381, 81.413 177.254, 81.148 177.519 C 80.883 177.783, 92.329 178.016, 106.583 178.036 C 120.837 178.055, 136.933 178.467, 142.352 178.951 C 150.985 179.723, 152.717 179.603, 156.352 177.986 L 160.500 176.141 153.500 176.049 C 145.864 175.948, 139.880 173.832, 136.500 170.038 C 134.905 168.247, 134.500 166.378, 134.500 160.799 L 134.500 153.806 143.500 150.571 C 148.450 148.792, 154.075 146.535, 156 145.554 C 160.302 143.363, 165 139.073, 165 137.336 C 165 133.799, 152.860 130.060, 141.250 130.021 L 135 130 134.998 125.250 C 134.995 115.314, 131.369 112.051, 118.750 110.630 L 113 109.983 113 115.308" stroke="none" fill="black" fill-rule="evenodd"/>
</svg>