<svg xmlns="http://www.w3.org/2000/svg" width="200" height="200" viewBox="0 0 200 200" version="1.1">
	<path d="M 150.500 15.575 C 148.643 16.348, 77.627 28, 74.769 28 C 73.211 28, 67.338 26.610, 61.718 24.910 C 48.575 20.936, 35.998 19.958, 30.653 22.494 C 21.372 26.898, 19.558 34.510, 19.687 68.500 C 19.742 82.800, 19.723 101.925, 19.647 111 C 19.224 160.972, 19.440 169.345, 21.275 174.099 C 23.666 180.295, 26.893 183.128, 32.188 183.684 C 35.866 184.070, 37.309 183.609, 42 180.547 C 53.844 172.816, 66.788 169.826, 88.500 169.806 C 111.013 169.786, 138.840 173.927, 148.381 178.716 C 154.127 181.601, 160.935 181.928, 164.642 179.499 C 166.043 178.581, 168.272 175.464, 169.596 172.572 C 173.367 164.335, 174.360 150.290, 173.130 122.601 C 172.562 109.811, 172.352 98.370, 172.664 97.177 C 172.976 95.984, 172.504 93.475, 171.616 91.603 C 169.391 86.913, 169.594 79.474, 172.493 59.500 C 176.284 33.378, 175.551 23.929, 169.615 22.440 C 165.686 21.453, 157.502 25.854, 148.216 33.945 L 139.933 41.163 136.216 37.545 C 134.172 35.554, 130.284 32.871, 127.576 31.581 C 122.080 28.963, 121.897 29.117, 132.500 27.433 C 139.415 26.335, 152.241 22.927, 155.179 21.407 C 156.731 20.605, 158 19.301, 158 18.510 C 158 16.115, 153.463 14.340, 150.500 15.575 M 121 23.541 C 90.042 29.078, 88.199 29.658, 107 27.946 C 126.678 26.156, 155 20.558, 155 18.460 C 155 17.594, 150.463 18.272, 121 23.541 M 34.942 23.919 C 24.017 27.360, 22.029 34.631, 22.204 70.500 C 22.417 114.209, 22.380 124.825, 21.947 144.500 C 21.459 166.597, 22.351 172.887, 26.703 178.058 C 29.740 181.668, 34.971 182.029, 39.500 178.942 C 45.300 174.990, 52.295 171.834, 59.362 169.981 C 66.078 168.221, 66.252 168.107, 62.297 168.055 C 54.052 167.947, 50.682 164.595, 53.056 158.864 C 53.737 157.220, 58.677 150.423, 64.033 143.760 C 74.827 130.330, 80.165 121.305, 82.410 112.684 C 83.405 108.863, 85.449 104.987, 88.549 101.041 C 91.105 97.788, 92.935 94.703, 92.615 94.186 C 91.794 92.858, 83.832 90.988, 79.307 91.061 C 77.213 91.095, 73.105 91.882, 70.178 92.811 L 64.856 94.500 64.558 104.500 C 64.030 122.229, 54.767 145, 48.083 145 C 44.229 145, 43.494 142.344, 43.614 128.836 C 43.723 116.585, 43.871 115.703, 46.855 109.643 C 48.715 105.865, 52.046 101.360, 55.074 98.528 C 58.618 95.213, 59.847 93.447, 59.119 92.719 C 57.650 91.250, 51.573 91.652, 48.098 93.449 L 45.177 94.960 45.210 68.092 C 45.229 53.314, 45.620 40.614, 46.080 39.870 C 48.050 36.683, 48.851 41.480, 49.190 58.500 C 49.501 74.079, 49.827 77.105, 51.612 81 C 52.747 83.475, 54.444 86.135, 55.384 86.911 C 56.874 88.142, 57.437 88.065, 59.796 86.310 C 62.155 84.556, 62.661 83.164, 63.765 75.400 C 66.134 58.726, 69.573 50.306, 75.204 47.394 C 81.125 44.333, 87.212 48.486, 92.340 59.087 L 95.684 66 96.938 61.750 C 101.895 44.957, 114.656 36.809, 122.974 45.127 C 124.694 46.847, 126.359 49.547, 126.675 51.127 C 126.991 52.707, 127.558 54, 127.934 54 C 128.311 54, 130.772 51.506, 133.404 48.457 L 138.189 42.914 134.643 39.570 C 124.320 29.834, 108.710 28.348, 93.309 35.634 L 88.013 38.139 80.256 36.381 C 74.874 35.162, 68.139 34.614, 58.250 34.593 C 40.326 34.555, 38.852 32.860, 55.114 30.987 C 61.497 30.252, 65.640 29.378, 64.847 28.934 C 62.636 27.697, 47.957 24.221, 42.500 23.643 C 39.750 23.351, 36.349 23.475, 34.942 23.919 M 162.500 26.681 C 158.762 28.676, 148.413 36.854, 144.769 40.693 L 142.038 43.570 144.236 48.012 C 147.165 53.933, 147.796 63.560, 145.540 67.922 C 143.675 71.529, 138.327 74.291, 134.147 73.806 C 130.136 73.342, 130.980 71.570, 135.500 70.965 C 137.700 70.671, 140.108 70.053, 140.852 69.593 C 143.343 68.050, 145.177 62.008, 144.454 57.725 C 143.669 53.082, 141.452 47.398, 140.101 46.562 C 139.589 46.246, 136.659 48.803, 133.590 52.244 L 128.009 58.500 127.905 66 C 127.790 74.301, 127.015 78.170, 125.500 78.018 C 124.428 77.911, 124.428 77.016, 125.498 67 L 126.193 60.500 121.424 65.858 C 118.802 68.805, 112.481 76.229, 107.378 82.356 L 98.101 93.496 100.491 95.998 C 109.127 105.036, 109.053 120.353, 100.298 136.052 L 97.500 141.068 104.076 147.471 C 118.084 161.112, 121.556 157.021, 124 124 C 125.330 106.036, 126.671 98.788, 129.425 94.686 C 132.174 90.591, 136.493 90.025, 141.881 93.053 C 146.746 95.788, 147.006 97.330, 146.984 123.390 C 146.967 144.390, 145.964 150.973, 141.664 158.310 C 138.584 163.567, 134.478 166.379, 126.919 168.412 C 123.143 169.427, 122.337 169.888, 124.261 169.934 C 129.236 170.053, 145.068 173.994, 149.329 176.175 C 151.623 177.349, 155.451 178.352, 157.836 178.405 C 161.397 178.483, 162.597 178.006, 164.552 175.734 C 168.176 171.521, 170.044 163.728, 170.600 150.500 C 171.262 134.756, 169.524 94.937, 167.883 88.219 C 166.745 83.561, 166.875 80.908, 168.990 65.719 C 171.843 45.219, 172.653 30.088, 171.055 27.103 C 169.719 24.607, 166.669 24.456, 162.500 26.681 M 72 31.400 C 72 31.619, 75.413 32.558, 79.583 33.486 C 86.069 34.929, 87.625 34.980, 90.333 33.837 L 93.500 32.500 87 31.867 C 78.972 31.085, 72 30.868, 72 31.400 M 113.500 44.789 C 107.986 46.015, 102.260 53.282, 99.336 62.760 C 97.907 67.395, 97.304 85.065, 98.509 87.014 C 98.831 87.536, 102.370 84.033, 106.373 79.231 C 110.376 74.429, 116.205 67.578, 119.326 64.007 C 122.447 60.436, 125 56.604, 125 55.492 C 125 49.717, 118.507 43.674, 113.500 44.789 M 74.127 51.865 C 70.710 55.522, 68.160 63.647, 66.647 75.696 C 65.602 84.011, 65.112 85.507, 62.770 87.522 C 60.513 89.463, 60.313 90.015, 61.508 91.007 C 62.611 91.922, 64.106 91.786, 68.214 90.397 C 74.910 88.132, 86.095 88.119, 91.404 90.371 C 93.550 91.281, 95.385 91.908, 95.481 91.763 C 95.577 91.618, 95.316 87, 94.902 81.500 C 93.831 67.294, 89.487 55.888, 83.294 51.016 C 79.783 48.255, 77.283 48.486, 74.127 51.865 M 48.082 85.250 C 47.999 90.055, 48.904 90.980, 51.857 89.110 C 52.829 88.494, 52.892 88.051, 52.078 87.548 C 51.454 87.163, 50.318 85.419, 49.553 83.673 L 48.163 80.500 48.082 85.250 M 132.572 95.337 C 129.576 98.333, 128.300 104.441, 126.956 122.216 C 125.065 147.235, 123.293 153.930, 117.756 156.986 C 115.206 158.393, 114.689 158.329, 110.431 156.071 C 107.911 154.735, 103.181 150.731, 99.921 147.172 L 93.992 140.702 96.067 137.601 C 106.025 122.716, 106.941 105.591, 98.201 97.682 C 96.237 95.905, 96.097 95.992, 91.211 102.031 C 88.085 105.894, 86.002 109.557, 85.627 111.847 C 84.908 116.238, 80.176 126.431, 76.115 132.332 C 74.495 134.687, 69.310 141.448, 64.592 147.356 C 55.720 158.467, 53.659 162.537, 56.115 164.092 C 58.078 165.336, 73.021 165.209, 82.620 163.868 C 89.323 162.931, 92.203 163.007, 99.120 164.299 C 112.542 166.808, 117.660 167.148, 124.280 165.973 C 132.963 164.432, 137.570 161.149, 140.839 154.177 C 143.469 148.565, 143.504 148.207, 143.823 122.975 L 144.145 97.450 140.186 95.225 C 135.312 92.485, 135.426 92.483, 132.572 95.337 M 55.566 102.033 C 48.447 109.644, 46.770 114.337, 46.289 127.990 C 45.876 139.701, 46.557 142.768, 49.334 141.702 C 51.554 140.850, 57.528 127.809, 59.934 118.562 C 62.002 110.616, 62.761 97, 61.137 97 C 60.662 97, 58.155 99.265, 55.566 102.033 M 87.250 166.716 C 88.763 166.945, 91.237 166.945, 92.750 166.716 C 94.263 166.487, 93.025 166.300, 90 166.300 C 86.975 166.300, 85.737 166.487, 87.250 166.716" stroke="none" fill="black" fill-rule="evenodd"/>
</svg>