<svg xmlns="http://www.w3.org/2000/svg" width="200" height="200" viewBox="0 0 200 200" version="1.1">
	<path d="M 124 18.498 C 111.625 20.334, 94.691 22.908, 86.369 24.218 C 74.676 26.058, 69.564 26.432, 63.869 25.861 C 52.702 24.743, 38.721 24.867, 32.799 26.135 C 28.937 26.962, 26.521 28.250, 23.892 30.885 L 20.284 34.500 20.711 102.500 C 20.988 146.474, 21.509 171.469, 22.187 173.241 C 22.764 174.749, 24.698 176.886, 26.486 177.991 C 31.900 181.337, 40.819 180.708, 61.937 175.488 C 71.977 173.007, 84.033 170.307, 88.727 169.488 C 104.891 166.670, 119.716 168.046, 125.972 172.947 C 144.630 187.565, 158.774 187.246, 166.482 172.036 C 171.295 162.538, 172.178 156.931, 172.718 132.435 C 173.176 111.654, 173.058 109.201, 171.529 107.672 C 166.938 103.080, 167.169 96.929, 173.090 66.230 C 177.602 42.838, 178.115 33.115, 175 30 C 173.900 28.900, 172.438 28.010, 171.750 28.022 C 168.726 28.075, 161.909 32.249, 154.619 38.512 C 147.505 44.624, 146.638 45.104, 145.710 43.447 C 142.837 38.313, 135.049 33.671, 127.204 32.417 L 122.994 31.743 130.747 29.004 C 142.893 24.711, 152.560 20.795, 154.486 19.386 C 155.491 18.652, 155.995 17.429, 155.657 16.548 C 154.808 14.336, 150.100 14.626, 124 18.498 M 143 18.543 C 142.175 18.714, 128.450 20.786, 112.500 23.147 C 85.402 27.159, 83.861 27.495, 89 28.276 C 92.025 28.736, 101.475 28.944, 110 28.739 C 125.484 28.366, 125.512 28.362, 136.492 24.097 C 150.022 18.843, 151.522 18.032, 147.500 18.146 C 145.850 18.193, 143.825 18.372, 143 18.543 M 31.802 29.190 C 29.768 29.731, 26.987 31.209, 25.622 32.475 L 23.139 34.775 23.589 103.093 C 24.090 179.210, 23.665 175.025, 31.088 177.024 C 36.413 178.458, 44.106 177.264, 66.925 171.462 C 76.576 169.008, 85.604 166.947, 86.986 166.882 C 94.723 166.520, 77.064 164.899, 63.393 164.716 L 47.286 164.500 46.615 104 C 46.246 70.725, 45.682 41.555, 45.360 39.178 C 44.918 35.908, 44.194 34.590, 42.388 33.767 C 41.075 33.169, 40 32.365, 40 31.982 C 40 31.598, 44.050 30.731, 49 30.054 C 53.950 29.378, 58 28.639, 58 28.412 C 58 27.570, 35.365 28.243, 31.802 29.190 M 61.307 31.029 C 47.482 33.208, 53.132 34.106, 73 32.887 C 93.084 31.655, 93.356 31.576, 81.307 30.442 C 73.277 29.687, 69.034 29.811, 61.307 31.029 M 165 33.786 C 162.525 35.357, 156.964 39.986, 152.642 44.071 C 143.035 53.153, 116.996 82.512, 117.011 84.245 C 117.017 84.935, 117.692 87.709, 118.511 90.409 C 119.330 93.109, 120 97.046, 120 99.159 C 120 104.987, 117.331 104.172, 107.775 95.426 C 89.098 78.333, 82.425 80.295, 79.473 103.750 C 78.654 110.255, 76.567 110.707, 74.858 104.750 C 73.018 98.334, 73.268 89.093, 75.389 85.113 C 79.433 77.521, 85.378 74.087, 101.713 69.904 C 108.034 68.285, 114.059 66.504, 115.102 65.945 C 117.674 64.569, 117.496 61.365, 114.750 59.600 C 109.431 56.181, 91.110 54.858, 85.960 57.521 C 84.343 58.357, 82.106 60.832, 80.989 63.021 C 79.873 65.209, 78.619 67, 78.202 67 C 76.628 67, 72.250 63.472, 64.891 56.271 L 57.281 48.827 55.071 51.636 C 52.515 54.886, 52.811 58.499, 56.205 65.485 L 58.279 69.754 55.548 80.127 C 54.046 85.832, 52.576 94.586, 52.281 99.580 C 51.398 114.545, 54.256 117.943, 69.508 120.064 C 79.355 121.434, 81.087 122.126, 84.339 125.991 C 87.918 130.244, 88.375 132.632, 87.720 143.624 C 87.412 148.781, 87.364 153, 87.613 153 C 87.863 153, 90.245 151.896, 92.907 150.547 C 98.800 147.561, 104.565 141.196, 108.986 132.794 C 116.575 118.373, 124.043 111.755, 134.278 110.378 L 139.055 109.735 138.378 90.032 C 137.676 69.618, 138.057 65, 140.441 65 C 144.182 65, 147.127 89.801, 147.091 121 C 147.077 133.375, 147.073 145.392, 147.082 147.703 C 147.117 156.160, 140.515 162.935, 130.176 165.052 C 122.246 166.676, 121.124 167.094, 122.928 167.759 C 123.714 168.049, 126.414 169.865, 128.928 171.796 C 131.443 173.727, 136.339 176.642, 139.808 178.275 C 145.027 180.730, 147.003 181.158, 151.243 180.751 C 155.617 180.330, 156.908 179.681, 160.040 176.322 C 167.583 168.237, 170.324 155.602, 170.336 128.876 C 170.343 111.269, 170.225 110.102, 168.172 107.491 C 164.715 103.097, 165.202 91.969, 169.913 67.677 C 174.581 43.604, 175.241 38.462, 174.174 34.500 C 173.091 30.481, 170.520 30.281, 165 33.786 M 82 35.031 C 77.875 35.420, 68.655 35.797, 61.512 35.869 L 48.524 36 53.512 40.909 L 58.500 45.818 64.617 44.793 C 69.271 44.012, 74.894 44.170, 88.117 45.450 C 114.747 48.029, 125.217 48.434, 130.539 47.094 C 135.721 45.790, 137.518 46.417, 134.637 48.524 C 130.999 51.184, 122 51.337, 98.507 49.136 C 74.930 46.928, 65.863 46.602, 62.702 47.850 C 61.201 48.442, 62.254 49.874, 69.066 56.503 L 77.228 64.445 79.178 60.645 C 82.892 53.406, 92.206 51.420, 107.792 54.545 C 116.126 56.216, 120 59.026, 120 63.401 C 120 67.188, 117.057 68.758, 102.962 72.494 C 86.918 76.747, 81.391 79.762, 78.250 85.974 C 75.977 90.469, 74.837 102.347, 77 99 C 77.533 98.175, 77.976 96.576, 77.985 95.446 C 78.011 91.911, 82.874 83.378, 85.559 82.155 C 91.460 79.466, 95.860 81.435, 108.081 92.233 C 113.051 96.624, 117.311 100.023, 117.548 99.786 C 117.785 99.548, 117.303 96.912, 116.477 93.927 C 113.285 82.394, 112.915 83.609, 123.192 71.843 C 128.311 65.981, 135.280 58.083, 138.677 54.291 L 144.854 47.397 142.850 44.233 C 138.013 36.592, 128.265 33.967, 105.500 34.176 C 96.700 34.257, 86.125 34.642, 82 35.031 M 48.783 57.708 C 49.004 67.494, 49.480 78.608, 49.842 82.408 L 50.500 89.315 52.900 79.721 L 55.301 70.127 53.150 65.128 C 50.297 58.495, 50.317 52.356, 53.203 49.284 L 55.406 46.939 51.894 43.428 L 48.383 39.916 48.783 57.708 M 141.548 93.135 L 142.014 111.771 137.257 112.442 C 130.955 113.331, 122.703 117.376, 119.551 121.122 C 118.154 122.782, 114.870 128.015, 112.255 132.749 C 104.909 146.046, 96.037 153.945, 85.466 156.598 C 82.912 157.239, 82.756 157.107, 83.339 154.786 C 84.821 148.882, 85.927 137.870, 85.345 134.813 C 83.765 126.510, 79.870 123.814, 67.500 122.461 C 59.720 121.610, 56.031 120.014, 52.703 116.059 L 50 112.847 49.993 130.673 C 49.989 140.478, 49.702 151.509, 49.354 155.187 L 48.723 161.874 61.611 161.927 C 68.700 161.955, 79.225 162.419, 85 162.956 C 101.448 164.486, 122.618 164.249, 129.540 162.457 C 140.868 159.525, 145.792 152.817, 144.480 142.103 C 144.117 139.134, 143.669 124.734, 143.485 110.103 C 143.300 95.471, 142.685 81.475, 142.116 79 C 141.329 75.570, 141.194 78.931, 141.548 93.135" stroke="none" fill="black" fill-rule="evenodd"/>
</svg>