<svg xmlns="http://www.w3.org/2000/svg" width="200" height="200" viewBox="0 0 200 200" version="1.1">
	<path d="M 33 11.017 C 33 15.012, 16.142 110.299, 14.383 116.250 C 13.974 117.632, 14.472 118, 16.751 118 C 22.478 118, 29.713 120.909, 32.838 124.469 C 39.933 132.549, 37.362 145.442, 23.692 170.326 C 18.871 179.103, 18.150 183.082, 21.735 181.121 C 22.706 180.590, 27.662 176.259, 32.750 171.495 L 41.999 162.834 47.049 163.917 C 49.826 164.513, 55.036 165, 58.626 165 C 64.508 165, 65.443 164.711, 68.077 162.077 C 71.491 158.663, 71.298 160.299, 71.460 133.500 C 71.540 120.236, 72.055 110.658, 72.857 107.500 C 73.555 104.750, 74.736 99.012, 75.482 94.749 C 76.929 86.480, 79.708 80.892, 83.664 78.300 C 86.360 76.534, 86.326 76.512, 90.953 83 L 94.163 87.500 89.831 88 C 87.449 88.275, 85.500 88.950, 85.500 89.500 C 85.500 90.050, 88.254 91.129, 91.621 91.897 C 96.335 92.972, 98.094 93.892, 99.274 95.897 C 100.726 98.364, 100.571 99.047, 96.306 109 C 89.612 124.618, 89.117 127.970, 91.836 139.247 C 94.320 149.551, 95.955 162.963, 95.982 173.250 C 95.996 178.575, 96.317 180, 97.500 180 C 98.325 180, 99 179.344, 99 178.542 C 99 177.740, 100.692 175.306, 102.759 173.133 C 109.551 165.993, 114.825 166.401, 136.500 175.746 C 148.127 180.758, 150.259 181.358, 156.682 181.425 C 163.293 181.494, 164.104 181.270, 166.893 178.600 C 170.033 175.594, 177.307 159.593, 180.575 148.500 C 181.547 145.200, 182.378 139.575, 182.421 136 C 182.522 127.683, 179.931 123.130, 173.212 119.821 C 168.852 117.673, 167.027 117.476, 148.776 117.175 L 129.052 116.851 126.403 113.702 L 123.754 110.554 129.326 105.368 C 136.191 98.978, 142.632 96.398, 158 93.883 C 177.740 90.652, 180.169 89.985, 183.191 86.962 C 187.930 82.224, 186.522 74.707, 178.520 62.031 C 175.840 57.787, 175.794 57.472, 176.881 50.889 C 178.516 40.990, 178.321 30.904, 176.443 28.223 C 172.186 22.144, 163.294 28.941, 149.919 48.500 L 146.500 53.500 145.816 41.500 C 144.851 24.562, 141.271 16, 135.154 16 C 129.560 16, 120.568 29.254, 116.328 43.749 C 115.323 47.185, 114.214 49.998, 113.864 49.999 C 113.513 49.999, 112.920 47.952, 112.545 45.450 C 110.713 33.232, 106.855 25.996, 102.177 26.005 C 98.600 26.012, 95.595 28.740, 87.037 39.750 C 83.082 44.838, 79.318 48.976, 78.673 48.946 C 78.028 48.916, 74.125 44.613, 70 39.384 C 52.454 17.141, 46.965 16.494, 52.373 37.303 C 53.739 42.556, 55.164 48.912, 55.541 51.427 C 55.993 54.436, 56.722 56, 57.675 56 C 59.516 56, 58.862 51.211, 54.981 36.271 C 53.442 30.347, 52.414 25.275, 52.696 25 C 53.340 24.372, 63.926 35.704, 70.351 43.900 C 74.872 49.668, 75.026 50.045, 72.601 49.436 C 71.010 49.037, 70 49.200, 70 49.856 C 70 51.227, 73.286 53, 75.827 53 C 77.122 53, 80.010 55.964, 84.352 61.750 C 90.184 69.520, 90.737 70.638, 89.292 71.733 C 87.167 73.343, 85.276 71.827, 84.169 67.624 L 83.346 64.500 74.923 64.620 C 68.825 64.707, 65.015 65.338, 61.120 66.907 C 58.161 68.098, 55.625 68.944, 55.485 68.787 C 55.344 68.629, 54.248 64.675, 53.049 60 C 50.069 48.386, 35.254 10.004, 33.750 10.001 C 33.337 10.001, 33 10.458, 33 11.017 M 130.092 22.548 C 123.174 30.427, 116.629 47.551, 115.360 61.093 L 114.742 67.685 123.241 68.338 C 137.090 69.403, 157.645 74.004, 159.235 76.395 C 162.143 80.770, 157.526 86.974, 149.816 89.049 C 144.069 90.597, 130.084 91.961, 119.750 91.982 C 114.938 91.992, 111 92.239, 111 92.532 C 111 92.824, 113.534 96.430, 116.632 100.545 L 122.263 108.028 126.990 103.607 C 135.007 96.107, 142.639 93.173, 161 90.530 C 180.972 87.655, 183.620 86.191, 182.753 78.499 C 182.423 75.574, 180.563 71.062, 177.547 65.871 L 172.854 57.795 174.045 50.733 C 175.829 40.154, 175.804 31.376, 173.983 29.555 C 172.628 28.199, 172.126 28.245, 169.260 29.988 C 165.468 32.294, 154.623 45.721, 148.856 55.250 C 146.609 58.962, 144.479 62, 144.122 62 C 143.766 62, 143.382 56.066, 143.269 48.814 C 142.858 22.344, 138.281 13.221, 130.092 22.548 M 29.614 48.750 C 27.006 64.563, 23.326 85.402, 21.436 95.059 C 19.546 104.717, 18 113.146, 18 113.790 C 18 114.435, 19.237 115.236, 20.750 115.571 C 34.063 118.518, 39.415 124.281, 39.259 135.500 C 39.152 143.233, 36.305 152.131, 30.027 164.349 C 27.262 169.731, 25 174.431, 25 174.793 C 25 175.156, 28.555 171.919, 32.900 167.599 L 40.801 159.745 49.484 161.468 C 59.188 163.394, 63.819 162.963, 66.613 159.874 C 68.336 157.969, 68.508 155.864, 68.596 135.644 C 68.669 118.644, 69.081 111.874, 70.367 106.500 C 71.289 102.650, 72.485 96.662, 73.026 93.192 C 74.204 85.627, 75.852 82.211, 80.502 77.696 C 82.426 75.827, 84 73.881, 84 73.372 C 84 72.862, 82.733 71.059, 81.184 69.363 C 78.410 66.326, 78.278 66.293, 72.137 67.133 C 68.710 67.602, 63.677 68.944, 60.953 70.116 L 56 72.246 56 82.513 C 56 88.159, 55.288 96.533, 54.418 101.121 C 52.978 108.710, 46.957 128.430, 45.007 131.940 C 44.466 132.916, 43.399 130.816, 41.705 125.440 C 34.488 102.544, 36.588 86.543, 48.304 75.151 L 52.777 70.803 51.363 64.651 C 50.586 61.268, 49.234 56.250, 48.360 53.500 C 45.586 44.779, 35.724 20, 35.026 20 C 34.657 20, 32.222 32.938, 29.614 48.750 M 99.265 29.639 C 98.586 29.924, 94.810 34.284, 90.875 39.328 C 86.939 44.373, 82.856 49.197, 81.801 50.048 C 79.956 51.538, 80.154 51.946, 87.054 60.862 C 92.407 67.778, 94.640 69.964, 95.863 69.482 C 96.763 69.128, 100.824 68.579, 104.888 68.264 L 112.275 67.691 111.690 59.595 C 110.973 49.669, 108.506 37.689, 106.212 33 C 104.569 29.640, 102.104 28.448, 99.265 29.639 M 104.700 71.134 C 100.410 71.482, 96.700 71.966, 96.457 72.210 C 96.213 72.454, 98.802 76.390, 102.209 80.957 L 108.404 89.262 125.452 88.719 C 143.175 88.154, 151.482 86.684, 155.013 83.488 C 156.916 81.766, 157.819 77, 156.243 77 C 155.827 77, 150.373 75.848, 144.124 74.440 C 131.034 71.492, 115.910 70.223, 104.700 71.134 M 90.704 74.250 C 89.178 75.386, 89.407 76.069, 93.215 81.750 C 96.949 87.322, 97.764 88, 100.726 88 L 104.048 88 98.403 80.500 C 95.298 76.375, 92.673 73, 92.570 73 C 92.467 73, 91.627 73.563, 90.704 74.250 M 48.979 78 C 44.501 82.763, 41.130 90.462, 40.379 97.645 C 39.741 103.757, 41.252 115.568, 43.491 121.964 L 44.728 125.500 47.429 117 C 52.351 101.505, 55.144 82.171, 53.207 77 L 52.270 74.500 48.979 78 M 104.250 91.689 C 106.280 92.220, 106.401 93.026, 104.934 96.246 C 104.031 98.227, 104.481 99.670, 107.864 105.640 C 113.946 116.372, 119.694 130.563, 122.883 142.721 C 124.465 148.749, 126.290 154.674, 126.940 155.888 C 128.706 159.187, 132.271 160.120, 145.500 160.746 C 155.717 161.230, 157.341 161.105, 156.427 159.907 C 155.837 159.133, 148.980 149.670, 141.190 138.877 C 131.058 124.839, 126.179 118.902, 124.047 118.019 C 119.977 116.334, 118.608 114.523, 119.797 112.399 C 121.129 110.018, 107.455 91.019, 104.500 91.146 C 102.826 91.218, 102.786 91.307, 104.250 91.689 M 98.515 110.750 C 93.315 123.097, 92.284 128.615, 93.846 135.750 C 94.538 138.912, 95.748 144.425, 96.535 148 C 97.322 151.575, 97.973 158.709, 97.983 163.854 L 98 173.207 101.487 170.146 C 109.151 163.417, 116.020 163.910, 136.322 172.647 C 146.612 177.075, 150.928 178.414, 156.014 178.758 C 161.986 179.162, 162.744 178.983, 165.117 176.610 C 169.845 171.882, 178.845 147.930, 179.624 138 C 180.240 130.143, 178.301 125.615, 173 122.534 C 169.871 120.716, 167.438 120.465, 150.071 120.171 L 130.643 119.843 133.160 123.171 C 140.939 133.456, 162 162.957, 162 163.569 C 162 164.750, 132.860 162.968, 129.551 161.585 C 125.069 159.712, 124.401 158.507, 121.092 146.337 C 119.434 140.240, 116.997 132.382, 115.676 128.876 C 113.234 122.395, 103.305 102, 102.591 102 C 102.376 102, 100.542 105.938, 98.515 110.750" stroke="none" fill="black" fill-rule="evenodd"/>
</svg>