<svg xmlns="http://www.w3.org/2000/svg" width="200" height="200" viewBox="0 0 200 200" version="1.1">
	<path d="M 31 13.362 C 31 14.214, 32.125 16.569, 33.500 18.595 C 39.195 26.987, 34.320 39.744, 19.180 56.071 C 15.154 60.412, 12.124 64.392, 12.447 64.914 C 12.778 65.449, 14.885 64.807, 17.267 63.444 C 19.595 62.113, 21.837 61.019, 22.250 61.012 C 23.678 60.989, 22.981 68.556, 20.363 81.500 C 17.097 97.651, 16.677 113.386, 19.349 119.486 C 22.869 127.522, 29.329 131.783, 39.605 132.847 L 45.908 133.500 37.382 146.500 C 22.383 169.370, 19.521 174.968, 22.035 176.521 C 22.715 176.942, 28.462 174.595, 35.366 171.076 C 50.083 163.574, 55.415 162.569, 62.289 166.002 C 66.119 167.914, 67.674 168.146, 72.571 167.534 C 84.227 166.078, 86.338 160.035, 81.437 142.156 C 79.271 134.254, 79.091 132.633, 80.266 131.656 C 81.031 131.020, 84.601 126.675, 88.200 122 C 95.342 112.723, 105.086 103, 107.241 103 C 107.989 103, 109.562 104.976, 110.735 107.392 C 112.495 111.014, 112.982 114.390, 113.515 126.642 C 114.261 143.806, 115.414 151.813, 117.984 157.666 C 120.245 162.814, 124.299 165.826, 126.505 163.996 C 129.208 161.752, 128.146 164.764, 124.950 168.404 C 123.273 170.315, 120.267 172.417, 118.272 173.075 C 113.086 174.787, 98.320 173.611, 87.750 170.645 C 79.739 168.397, 76.942 168.479, 78.450 170.919 C 79.643 172.850, 93.230 179.974, 94.342 179.252 C 94.979 178.839, 113.050 178.500, 134.500 178.500 C 172.005 178.500, 173.634 178.421, 177 176.451 C 183.904 172.409, 182.154 167.947, 169.960 158.499 L 164.420 154.206 157.730 133.353 C 149.925 109.025, 143.825 87.137, 144.254 85 C 144.634 83.112, 148.765 93.172, 155.549 112.500 L 160.814 127.500 166.657 127.417 C 178.440 127.249, 184.512 121.470, 182.069 112.748 C 180.470 107.035, 172.711 96.740, 164.784 89.812 C 156.482 82.556, 147 75.657, 143.125 74.052 C 140.145 72.818, 140.001 72.496, 140.015 67.129 C 140.024 64.033, 140.373 60.962, 140.791 60.305 C 141.208 59.647, 145.174 57.965, 149.604 56.565 C 159.271 53.512, 168.884 47.542, 171.842 42.756 C 175.004 37.639, 174.725 31.534, 171.063 25.760 C 166.129 17.980, 165.281 17.707, 146.722 17.915 C 127.741 18.127, 77.339 16.364, 61.500 14.932 C 55.450 14.386, 48.250 13.741, 45.500 13.499 C 42.750 13.258, 38.362 12.779, 35.750 12.436 C 31.859 11.925, 31 12.092, 31 13.362 M 37.166 19.641 C 40.730 27.699, 37.295 38.123, 26.584 51.750 C 21.791 57.848, 21.210 59, 22.924 59 C 26.993 59, 26.908 61.916, 22.066 88.500 C 16.643 118.278, 22.688 130, 43.468 130 C 47.611 130, 51 130.204, 51 130.453 C 51 130.702, 46.008 138.465, 39.907 147.703 C 33.805 156.941, 27.748 166.586, 26.447 169.137 L 24.081 173.773 35.926 167.711 C 46.647 162.224, 48.379 161.641, 54.179 161.574 C 58.841 161.520, 61.362 162.008, 63.430 163.363 C 67.349 165.930, 76.199 165.246, 79.309 162.135 C 82.394 159.049, 82.025 154.113, 77.539 138.500 C 71.363 117.003, 71.612 101.041, 78.296 90 C 79.461 88.075, 82.838 83.941, 85.799 80.813 L 91.183 75.127 88.126 70.684 C 85.119 66.313, 84.941 66.222, 77.285 65.141 C 62.085 62.994, 53.243 63.656, 54.524 66.845 C 58.768 77.406, 60.098 92.219, 57.654 101.725 C 56.774 105.148, 54.740 110.548, 53.132 113.725 C 49.829 120.254, 42.548 129, 40.415 129 C 38.583 129, 38.606 127.572, 40.462 126.031 C 41.266 125.364, 42.841 122.367, 43.962 119.371 C 46.744 111.936, 46.599 102.518, 43.500 89.403 C 40.385 76.222, 40.246 69.229, 43.026 65.694 C 44.140 64.277, 45.940 62.836, 47.026 62.492 C 48.112 62.147, 49 61.221, 49 60.433 C 49 58.789, 50.583 58.516, 51.500 60 C 51.840 60.550, 53.779 61.001, 55.809 61.003 C 60.191 61.007, 77 56.861, 77 55.776 C 77 55.054, 72.832 52.214, 61.155 44.980 C 53.548 40.268, 50.945 35.848, 49.657 25.452 C 48.492 16.053, 49.093 16.655, 39.819 15.593 L 35.138 15.057 37.166 19.641 M 56.285 21.631 C 58.293 24.309, 64.564 32.887, 70.219 40.693 C 75.873 48.500, 81.065 54.912, 81.755 54.943 C 82.745 54.988, 99.936 50.424, 110.303 47.364 C 111.819 46.916, 111.898 46.582, 110.803 45.261 C 108.263 42.199, 103.240 41, 92.949 41 C 85.304 41, 82.934 40.695, 83.244 39.750 C 84.387 36.272, 139.619 30.120, 144.802 32.894 C 146.011 33.541, 147 34.758, 147 35.598 C 147 37.511, 137.360 41.955, 125.142 45.674 L 116 48.457 116 53.547 C 116 56.347, 115.294 61.013, 114.432 63.917 C 113.570 66.821, 113.007 69.330, 113.182 69.492 C 113.357 69.654, 118 70.972, 123.500 72.421 C 129 73.870, 134.223 75.278, 135.108 75.550 C 136.472 75.969, 136.797 74.739, 137.253 67.427 C 137.549 62.687, 138.262 58.338, 138.838 57.762 C 139.413 57.187, 143.717 55.483, 148.402 53.977 C 163.973 48.969, 171.289 42.865, 171.180 34.970 C 171.124 30.920, 168.603 25.719, 165.282 22.803 C 163.782 21.486, 158.508 21.134, 132 20.581 C 99.457 19.903, 66.189 18.474, 57.566 17.385 L 52.632 16.762 56.285 21.631 M 52 22.751 C 52 27.195, 54.221 35.011, 56.199 37.526 C 58.131 39.982, 59.700 41.104, 69.500 47.041 L 73.500 49.465 69.542 43.982 C 64.079 36.415, 53.873 22.702, 52.846 21.550 C 52.352 20.996, 52 21.495, 52 22.751 M 115 36.546 C 109.225 37.273, 104.050 37.917, 103.500 37.978 C 102.950 38.038, 104.300 38.725, 106.500 39.503 C 108.700 40.281, 111.521 42.096, 112.768 43.536 L 115.036 46.153 125.768 42.549 C 131.671 40.567, 138.300 38.094, 140.500 37.054 L 144.500 35.162 135 35.193 C 129.775 35.210, 120.775 35.819, 115 36.546 M 97 53.775 C 90.125 55.726, 84.306 57.481, 84.068 57.676 C 83.831 57.871, 85.086 59.525, 86.858 61.353 C 89.525 64.105, 91.489 64.972, 98.289 66.397 C 102.805 67.343, 107.246 68.333, 108.157 68.596 C 109.413 68.960, 110.178 67.917, 111.317 64.288 C 113.067 58.711, 113.923 53.031, 113.283 51.250 C 112.659 49.516, 111.221 49.739, 97 53.775 M 74.500 59.713 C 71.264 60.491, 70.313 61.999, 73.050 62.011 C 74.397 62.017, 77.233 62.308, 79.350 62.658 C 83.092 63.276, 83.163 63.234, 81.860 61.147 C 80.563 59.070, 78.689 58.705, 74.500 59.713 M 45.405 67.109 C 42.864 69.921, 43.089 76.918, 46.077 88 C 47.723 94.106, 48.387 99.375, 48.434 106.712 L 48.500 116.923 50.902 112.212 C 57.286 99.687, 57.817 84.239, 52.377 69.250 C 50.632 64.443, 48.425 63.765, 45.405 67.109 M 93 68.528 C 93 68.893, 93.908 70.467, 95.018 72.025 C 96.193 73.675, 96.629 75.111, 96.062 75.462 C 95.053 76.086, 99.881 85, 101.228 85 C 102.013 85, 108 73.673, 108 72.188 C 108 71.709, 105.412 70.765, 102.250 70.088 C 99.088 69.411, 95.713 68.634, 94.750 68.361 C 93.787 68.089, 93 68.164, 93 68.528 M 107.206 80.409 L 102.911 88.826 106.181 94.163 C 107.979 97.098, 110.331 100.223, 111.408 101.107 C 112.484 101.991, 114.131 104.916, 115.067 107.607 C 116.003 110.298, 119.052 117.500, 121.842 123.611 C 126.903 134.693, 130.960 147.203, 131.044 151.980 C 131.085 154.326, 131.218 154.255, 132.964 150.952 C 137.780 141.845, 138.504 136.116, 138.430 107.716 C 138.373 85.835, 138.098 80.691, 136.930 79.619 C 136.143 78.897, 130.550 77.051, 124.500 75.516 C 118.450 73.982, 113.050 72.561, 112.500 72.359 C 111.950 72.157, 109.568 75.780, 107.206 80.409 M 87.261 82.927 C 78.646 91.679, 74.292 104.227, 75.611 116.500 C 76.584 125.547, 77.251 125.984, 80.736 119.852 C 82.409 116.908, 87.385 108.700, 91.794 101.610 L 99.810 88.721 96.825 83.870 C 95.183 81.202, 93.458 78.783, 92.991 78.494 C 92.523 78.205, 89.945 80.200, 87.261 82.927 M 146.514 82.250 C 149.149 86.968, 156.275 105.121, 160.391 117.596 L 163.062 125.692 167.934 124.921 C 184.323 122.331, 184.027 113.151, 167 95.969 C 159.775 88.678, 146.520 78, 144.693 78 C 144.389 78, 145.209 79.912, 146.514 82.250 M 141.469 110 C 141.504 136.217, 140.801 140.676, 134.616 153.500 C 132.760 157.350, 130.731 162.371, 130.108 164.657 C 129.407 167.229, 127.642 169.985, 125.477 171.886 C 122.023 174.919, 122.009 174.964, 124.329 175.546 C 125.620 175.871, 137.234 175.993, 150.136 175.818 C 170.483 175.542, 173.950 175.267, 176.273 173.743 C 178.671 172.170, 178.829 171.720, 177.790 169.438 C 176.820 167.309, 168.053 159.837, 163.462 157.227 C 161.712 156.233, 143.809 99.417, 141.805 88.500 C 141.604 87.400, 141.452 97.075, 141.469 110 M 98.721 95.713 C 96.495 99.298, 83.269 120.883, 80.297 125.782 C 79.535 127.037, 78.487 127.801, 77.968 127.480 C 77.448 127.159, 77.291 127.594, 77.618 128.448 C 77.946 129.302, 78.326 130, 78.464 130 C 78.601 130, 81.908 125.805, 85.813 120.678 C 92.729 111.597, 100.535 103.479, 104.469 101.277 C 106.398 100.198, 106.398 100.153, 104.458 96.511 C 103.381 94.489, 102.179 92.630, 101.786 92.380 C 101.393 92.131, 100.014 93.630, 98.721 95.713 M 116.062 122.500 C 116.016 130.219, 117.815 149.081, 118.983 153.134 C 119.559 155.133, 120.978 157.973, 122.136 159.445 L 124.241 162.122 126.682 159.829 C 128.860 157.783, 129.053 156.993, 128.471 152.518 C 127.673 146.376, 123.207 132.752, 119.124 124 L 116.092 117.500 116.062 122.500 M 90.824 175.589 C 92.170 176.532, 93.785 176.883, 94.796 176.452 C 96.235 175.838, 96.111 175.606, 94 174.962 C 89.674 173.642, 88.403 173.893, 90.824 175.589" stroke="none" fill="black" fill-rule="evenodd"/>
</svg>