<svg xmlns="http://www.w3.org/2000/svg" width="200" height="200" viewBox="0 0 200 200" version="1.1">
	<path d="M 28.413 12.943 C 23.754 14.057, 23 14.820, 23 18.422 C 23 20.586, 24.034 23.026, 26 25.500 C 27.650 27.576, 29 29.464, 29 29.696 C 29 33.182, 25.881 48.231, 22.201 62.500 C 18.074 78.503, 17.556 81.720, 17.530 91.500 C 17.493 104.921, 19.845 113.118, 27.241 125.355 L 32.164 133.500 26.582 150.035 C 20.861 166.983, 19.791 173.752, 22.479 175.983 C 24.582 177.728, 27.641 176.462, 43.047 167.473 C 55.342 160.298, 65.916 155, 67.941 155 C 68.427 155, 67.473 158.487, 65.821 162.750 C 62.598 171.063, 61.639 178.986, 63.765 179.733 C 64.461 179.977, 68.344 176.964, 72.394 173.037 L 79.758 165.897 86.264 170.821 C 90.484 174.015, 94.583 176.180, 97.931 176.984 C 102.735 178.136, 103.421 178.054, 107.797 175.812 C 120.550 169.278, 126.977 144.885, 127.447 101.235 C 127.585 88.439, 127.990 77.676, 128.349 77.318 C 128.707 76.960, 129 98.854, 129 125.973 L 129 175.279 140.250 174.736 C 160.693 173.748, 171.900 168.109, 177.896 155.793 C 182.269 146.812, 183.479 137.434, 182.051 123.585 C 181.359 116.874, 181.022 99.563, 181.202 79.978 C 181.534 43.750, 180.965 39.446, 174.927 32.569 C 168.940 25.751, 157.197 24.233, 143.260 28.476 C 138.975 29.781, 137.902 30.566, 137.372 32.786 C 137.015 34.279, 136.556 35.801, 136.352 36.170 C 136.148 36.538, 132.498 35.750, 128.241 34.418 C 123.983 33.087, 113.975 30.161, 106 27.916 C 91.694 23.890, 91.436 23.767, 86.750 18.727 L 82 13.619 82 17.377 C 82 20.494, 81.702 21.043, 80.250 20.597 C 74.746 18.907, 50.249 13.937, 43.026 13.046 C 33.643 11.888, 32.849 11.882, 28.413 12.943 M 28.005 15.894 C 24.372 16.904, 24.481 19.033, 28.430 24.204 L 31.932 28.791 30.493 38.378 C 29.702 43.650, 27.219 54.835, 24.976 63.232 C 17.179 92.419, 18.591 106.734, 31.242 126.766 L 35.346 133.265 31.565 143.882 C 26.570 157.905, 22.865 171.179, 23.489 172.819 C 24.238 174.789, 26.989 173.625, 41.402 165.242 C 48.497 161.114, 57.272 156.398, 60.902 154.760 C 64.531 153.123, 67.631 151.664, 67.791 151.518 C 67.950 151.372, 67.195 149.733, 66.112 147.876 C 63.128 142.758, 61.689 132.813, 62.446 122.528 C 64.240 98.135, 73.615 68.061, 79.697 67.189 C 83.114 66.699, 84.373 70.381, 84.761 82 C 85.689 109.811, 84.821 116.222, 76.950 139.649 C 74.853 145.892, 73.386 151, 73.691 151 C 73.996 151, 73.748 151.599, 73.141 152.331 C 71.720 154.042, 65 172.570, 65 174.775 C 65 175.829, 67.759 173.710, 72.449 169.051 L 79.898 161.651 84.199 165.601 C 91.089 171.927, 95.725 174.352, 101.085 174.430 C 107.577 174.525, 110.650 172.026, 115.238 162.920 C 121.667 150.160, 125.395 124.171, 124.910 95.500 C 124.576 75.796, 125.950 69.498, 130.034 72.020 C 131.284 72.793, 131.540 80.237, 131.769 122.649 C 131.917 149.996, 132.176 172.509, 132.343 172.677 C 133.287 173.620, 153.066 170.808, 158.719 168.927 C 167.319 166.065, 173.735 159.927, 176.997 151.441 C 178.879 146.546, 179.268 143.651, 179.209 135 C 178.667 56.537, 178.400 46.457, 176.731 41.460 C 175.074 36.499, 171.610 32.329, 167.316 30.122 C 164.171 28.507, 153.940 28.742, 146.546 30.599 C 140.468 32.126, 139.092 33.327, 139.014 37.175 C 138.994 38.127, 148.980 40.945, 150.418 40.393 C 152.452 39.613, 160.974 43.905, 160.393 45.418 C 160.082 46.228, 159.042 46.562, 157.822 46.243 C 156.166 45.810, 155.888 46.072, 156.372 47.604 C 158.498 54.330, 159.201 62.408, 159.625 85 C 160.181 114.646, 159.143 138.125, 157.250 138.753 C 156.352 139.050, 156 137.629, 156 133.709 C 156 130.707, 155.214 126.282, 154.254 123.876 C 152.721 120.033, 152.508 115.601, 152.504 87.464 C 152.500 58.290, 152.339 55.181, 150.698 52.669 C 149.706 51.152, 147.681 49.448, 146.198 48.882 C 142.479 47.464, 135.323 48.679, 130.322 51.578 C 128.024 52.910, 125.324 54.006, 124.322 54.014 C 122.956 54.025, 108.715 61.034, 107.272 62.406 C 107.146 62.526, 107.459 65.179, 107.968 68.302 C 110.773 85.539, 107.221 134.229, 102.165 147.847 C 98.880 156.694, 94.916 153.222, 93.444 140.207 C 92.838 134.850, 92.965 134, 94.371 134 C 95.508 134, 96 134.891, 96 136.951 C 96 140.632, 98.029 150.304, 98.667 149.666 C 100.287 148.047, 105.787 115.453, 104.635 114.302 C 104.419 114.086, 103.018 116, 101.521 118.554 C 99.656 121.738, 98.475 122.875, 97.770 122.170 C 97.065 121.465, 97.702 119.581, 99.794 116.181 C 104.335 108.800, 106.001 102.894, 105.990 94.215 C 105.973 80.787, 99.337 70.899, 86.151 64.651 C 80.378 61.916, 78.422 61.500, 71.327 61.500 C 64.633 61.500, 62.653 61.873, 60.389 63.562 C 54.918 67.641, 53.724 70.311, 52.943 80.205 C 52.089 91.019, 48.667 105.374, 45.832 110.036 C 43.980 113.081, 43.751 113.179, 42.178 111.599 C 40.722 110.135, 40.515 107.507, 40.610 91.706 C 40.671 81.693, 41.508 66.525, 42.472 58 C 43.435 49.475, 44.578 37.550, 45.012 31.500 C 45.446 25.450, 46.105 19.554, 46.478 18.399 C 47.094 16.487, 46.674 16.239, 41.828 15.657 C 35.437 14.890, 31.363 14.959, 28.005 15.894 M 50.557 18.250 C 50.348 18.938, 49.645 23.045, 48.995 27.377 C 47.829 35.151, 47.851 35.328, 50.679 40.877 C 54.490 48.355, 61.125 53, 67.994 53 C 72.045 53, 73.236 52.516, 75.907 49.784 C 79.757 45.846, 82 38.695, 82 30.357 L 82 24.077 78.189 23.051 C 73.650 21.829, 52.374 17, 51.528 17 C 51.203 17, 50.766 17.563, 50.557 18.250 M 84.746 32.872 C 84.128 41.897, 81.705 48.144, 77.177 52.392 C 69.779 59.332, 57.005 55.728, 49.593 44.610 C 48.167 42.471, 46.990 41.121, 46.979 41.610 C 46.967 42.100, 46.291 48.125, 45.476 55 C 43.597 70.851, 42.438 110.189, 43.917 107.879 C 45.911 104.765, 50.096 85.873, 50.377 78.716 C 50.809 67.721, 55.286 61.353, 64.295 58.915 C 76.795 55.533, 96.224 64.085, 104.246 76.500 L 106.185 79.500 105.587 72.500 C 105.258 68.650, 104.724 64.526, 104.400 63.336 C 103.895 61.478, 104.823 60.613, 110.970 57.219 L 118.129 53.266 113.815 50.667 C 108.318 47.357, 101.929 41.423, 93.986 32.250 C 90.534 28.262, 87.164 25, 86.497 25 C 85.697 25, 85.103 27.671, 84.746 32.872 M 94 27.668 C 94 29.439, 107.924 43.452, 113.153 46.944 C 120.009 51.521, 120.734 51.649, 126.777 49.341 C 130.057 48.088, 131.614 46.717, 133.131 43.744 C 134.236 41.578, 134.980 39.647, 134.786 39.452 C 134.591 39.258, 125.897 36.593, 115.466 33.531 C 105.035 30.469, 95.938 27.761, 95.250 27.513 C 94.563 27.265, 94 27.335, 94 27.668 M 136.623 43.055 L 135.211 45.884 140.912 45.803 C 147.601 45.708, 150.364 46.955, 153.126 51.314 L 155.145 54.500 154.458 51 C 153.376 45.488, 152.709 44.878, 145.155 42.483 L 138.034 40.226 136.623 43.055 M 155.754 78.500 C 154.836 94.499, 154.940 115.638, 155.953 119 C 156.928 122.239, 157.659 93.306, 157 77.500 L 156.500 65.500 155.754 78.500 M 75.909 76.381 C 72.514 83.636, 67.695 101.765, 66.085 113.341 C 64.038 128.063, 65.070 141.369, 68.690 146.919 L 70.267 149.338 71.582 146.829 C 73.818 142.561, 79.946 121.249, 81.501 112.334 C 83.575 100.443, 82.425 70, 79.902 70 C 79.348 70, 77.551 72.872, 75.909 76.381" stroke="none" fill="black" fill-rule="evenodd"/>
</svg>