<svg xmlns="http://www.w3.org/2000/svg" width="200" height="200" viewBox="0 0 200 200" version="1.1">
	<path d="M 66 17.386 C 66 19.433, 65.386 19.865, 61.682 20.420 C 51.168 21.997, 40.017 30.165, 35.028 39.945 C 33.057 43.810, 32.892 45.929, 32.591 71.295 C 32.229 101.762, 30.839 111.035, 25.026 121.768 C 23.366 124.833, 22.118 127.429, 22.254 127.536 C 22.711 127.897, 47.421 121.954, 58 118.938 C 76.722 113.602, 82.821 110.303, 81.299 106.336 C 80.996 105.547, 78.010 103.520, 74.664 101.830 L 68.579 98.759 70.909 96.873 C 72.190 95.835, 75.772 94.279, 78.869 93.415 C 81.966 92.551, 85.258 91.633, 86.184 91.375 C 87.437 91.027, 89.165 93.103, 92.939 99.493 C 97.787 107.700, 97.947 108.202, 96.570 110.865 C 94.424 115.015, 87.424 120.923, 81.625 123.480 C 71.880 127.776, 62.678 129.259, 44.500 129.466 C 25.993 129.677, 14 131.303, 14 133.603 C 14 135.283, 14.746 135.296, 35.338 133.983 C 53.676 132.813, 57.460 133.482, 62.048 138.707 C 71.127 149.048, 57.562 166.095, 33.170 174.997 C 27.159 177.191, 11.435 181, 8.390 181 C 8.175 181, 8 181.635, 8 182.412 C 8 185.578, 29.123 186.333, 40 183.557 C 49.503 181.131, 62.860 174.137, 76.500 164.447 C 91.967 153.459, 97.146 150.782, 103.112 150.692 C 109.315 150.598, 113.883 153.684, 119.111 161.500 C 128.174 175.049, 150.350 184.697, 163.964 181.015 C 170.420 179.269, 176 173.434, 176 168.430 C 176 161.410, 170.433 155.841, 159.470 151.895 C 154.697 150.177, 150.447 149.647, 138.277 149.252 L 123.054 148.758 119.351 145.558 C 116.949 143.481, 115.858 141.812, 116.245 140.805 C 117.037 138.740, 123.390 137.603, 126.083 139.044 C 127.370 139.733, 130.399 139.941, 133.847 139.577 C 136.956 139.249, 146.972 138.570, 156.104 138.068 C 174.132 137.077, 180.047 135.953, 183.053 132.947 C 186.565 129.435, 185.388 126.194, 177.738 118.319 L 172.705 113.139 175.284 110.075 C 178.843 105.845, 179.455 103.344, 177.618 100.540 C 175.028 96.586, 169.888 95.493, 154.262 95.572 C 146.430 95.611, 140.130 95.543, 140.262 95.421 C 140.393 95.298, 146.917 93.511, 154.761 91.449 L 169.022 87.701 172.261 81.121 C 174.921 75.718, 175.500 73.363, 175.500 67.943 C 175.500 62.282, 175.108 60.831, 172.745 57.732 C 167.841 51.303, 155.822 46.775, 137.500 44.454 C 132.924 43.874, 132.093 43.543, 134 43.057 C 136.101 42.522, 136.549 41.745, 136.808 38.192 C 137.068 34.636, 136.655 33.501, 134.216 31.063 C 129.942 26.788, 124.734 25.817, 107.094 26.007 C 92.698 26.161, 90.962 25.980, 84.500 23.648 C 80.650 22.259, 75.816 20.850, 73.758 20.518 C 70.868 20.050, 69.876 19.353, 69.400 17.456 C 68.604 14.285, 66 14.231, 66 17.386 M 58 23.935 C 52.661 25.565, 47.238 29.018, 43.290 33.301 C 35.799 41.428, 35.837 41.250, 35.575 69.885 C 35.330 96.574, 34.372 104.794, 30.034 117.401 C 28.254 122.575, 28.237 122.999, 29.804 122.993 C 32.612 122.982, 65.092 114.330, 71 112.019 C 80.011 108.494, 80.247 107.658, 73.227 104.115 C 69.906 102.438, 66.982 100.489, 66.730 99.783 C 65.464 96.247, 71.747 91.891, 80.967 89.914 C 83.735 89.320, 86 88.508, 86 88.108 C 86 85.555, 82.429 83.882, 72.044 81.569 C 65.743 80.165, 59.893 78.309, 59.044 77.444 C 57.650 76.024, 57.712 75.697, 59.684 74.079 C 60.885 73.093, 64.608 71.747, 67.957 71.088 L 74.046 69.890 70.861 65.456 C 69.110 63.018, 65.912 59.390, 63.756 57.394 C 60.945 54.794, 60.140 53.460, 60.915 52.685 C 61.690 51.910, 62.918 52.496, 65.248 54.751 C 68.242 57.647, 77.679 62.654, 78.534 61.799 C 78.737 61.596, 77.802 57.836, 76.457 53.442 C 74.128 45.834, 73.809 45.359, 69.756 43.477 C 64.655 41.107, 64.321 39.613, 68.796 39.183 C 71.334 38.939, 71.982 38.479, 71.614 37.183 C 71.350 36.257, 70.370 32.688, 69.436 29.250 C 67.742 23.019, 67.726 23, 64.118 23.086 C 62.128 23.133, 59.375 23.515, 58 23.935 M 73.500 24.466 C 76.902 25.943, 85.840 27.585, 84.853 26.551 C 84.039 25.698, 74.011 23, 72 23.093 C 71.175 23.132, 71.850 23.749, 73.500 24.466 M 72 27.843 C 72 28.280, 72.661 30.861, 73.468 33.580 L 74.936 38.523 89.718 40.129 C 97.848 41.012, 104.649 41.608, 104.831 41.453 C 105.826 40.607, 102.314 36.619, 97.605 33.247 C 92.615 29.673, 91.679 29.380, 84.558 29.153 C 80.339 29.018, 75.788 28.490, 74.444 27.979 C 73.100 27.468, 72 27.407, 72 27.843 M 104.817 28.723 L 97.133 29.082 101.643 33.239 C 104.124 35.525, 106.769 38.587, 107.522 40.043 C 108.678 42.278, 109.946 42.873, 115.695 43.874 C 119.438 44.525, 123.744 45.324, 125.264 45.649 C 127.531 46.132, 127.917 45.946, 127.405 44.614 C 126.948 43.422, 127.742 42.588, 130.391 41.481 C 133.366 40.238, 134 39.461, 134 37.059 C 134 30.374, 124.937 27.785, 104.817 28.723 M 83 44.116 C 93.103 46.670, 101.284 47.500, 103.596 46.206 C 105.339 45.231, 105.296 45.116, 102.986 44.588 C 98.531 43.569, 83.651 41.997, 79.526 42.110 C 75.897 42.209, 76.239 42.407, 83 44.116 M 107.158 47.118 C 105.278 50.128, 99.694 50.428, 88.242 48.133 C 82.419 46.966, 77.512 46.155, 77.337 46.329 C 77.162 46.504, 78.293 50.438, 79.850 55.071 C 82.652 63.411, 82.719 63.503, 86.590 64.227 C 88.741 64.629, 94.971 64.881, 100.435 64.785 C 107.005 64.671, 110.497 64.990, 110.743 65.729 C 110.948 66.343, 110.077 67.008, 108.808 67.207 C 107.538 67.406, 110.550 67.921, 115.500 68.352 C 127.652 69.411, 133.472 70.759, 135.482 72.980 C 137.061 74.725, 137.044 74.956, 135.190 76.810 C 133.078 78.922, 119.772 82.381, 109.500 83.488 L 103.500 84.135 103.818 89.318 C 103.994 92.168, 103.485 97.647, 102.689 101.493 L 101.241 108.486 106.081 116.032 C 108.744 120.182, 111.964 124.557, 113.238 125.754 L 115.555 127.930 122.915 121.574 C 130.766 114.793, 136.932 111.210, 142.229 110.350 C 146.533 109.652, 150.587 112.744, 151.251 117.231 C 151.860 121.347, 149.677 128.870, 146.818 132.504 L 144.632 135.284 159.566 134.784 C 175.434 134.253, 182 132.683, 182 129.419 C 182 126.492, 178.116 121.303, 173.008 117.408 L 168.073 113.645 172.036 109.345 C 176.716 104.268, 176.937 102.657, 173.281 100.273 C 170.862 98.696, 168.160 98.523, 148.781 98.705 C 119.482 98.980, 119.676 97.843, 150.289 89.872 L 167.078 85.500 170.039 79.590 C 175.496 68.699, 173.601 59.781, 164.726 54.580 C 159.601 51.576, 148.263 48.501, 139 47.602 L 132.500 46.971 138.804 49.379 C 149.387 53.422, 151.758 57.352, 145.799 60.976 C 142.352 63.072, 126.209 67.247, 124.834 66.398 C 122.815 65.149, 124.504 64.229, 131.750 62.633 C 141.266 60.536, 146.301 58.429, 145.783 56.762 C 144.880 53.854, 131.601 49.405, 115.386 46.576 C 108.857 45.438, 108.180 45.483, 107.158 47.118 M 73.033 63.802 C 73.118 65.573, 77.041 69, 78.984 69 C 82.498 69, 80.975 65.863, 76.750 64.402 C 74.688 63.688, 73.015 63.419, 73.033 63.802 M 85.269 67.693 C 86.242 67.947, 87.592 67.930, 88.269 67.656 C 88.946 67.382, 88.150 67.175, 86.500 67.195 C 84.850 67.215, 84.296 67.439, 85.269 67.693 M 87.308 70.698 L 85.116 71.124 87.225 76.812 C 88.385 79.940, 90.230 83.230, 91.323 84.122 C 92.584 85.150, 93.073 86.367, 92.659 87.445 C 91.946 89.305, 98.588 104.745, 99.647 103.687 C 99.994 103.340, 100.552 98.224, 100.889 92.317 L 101.500 81.579 111.146 80.370 C 120.993 79.137, 132.686 76.317, 133.515 74.976 C 135.166 72.305, 97.155 68.786, 87.308 70.698 M 74.500 72.516 C 73.950 72.712, 70.864 73.394, 67.643 74.030 C 64.411 74.668, 62.170 75.568, 62.643 76.038 C 63.559 76.948, 81 81.064, 81 80.370 C 81 79.931, 75.815 71.945, 75.617 72.079 C 75.553 72.122, 75.050 72.319, 74.500 72.516 M 82.240 76.919 C 84.030 79.625, 85.613 81.720, 85.758 81.576 C 85.902 81.431, 85.244 79.218, 84.294 76.657 C 83.120 73.489, 81.996 72, 80.777 72 C 79.252 72, 79.471 72.735, 82.240 76.919 M 96.779 115.122 C 91.340 122.765, 81.844 127.691, 66.666 130.743 L 58.833 132.318 61.936 134.747 C 65.447 137.495, 68 141.847, 68 145.084 C 68 157.377, 51.814 172.077, 31.188 178.516 C 16.849 182.993, 16.776 183.056, 26.567 182.533 C 36.214 182.017, 46.262 179.400, 54.500 175.259 C 57.250 173.876, 66.367 168.054, 74.759 162.320 C 83.152 156.586, 91.927 151.028, 94.259 149.969 C 99.285 147.687, 107.004 147.434, 110.852 149.423 C 114.204 151.157, 121.263 158.675, 123.378 162.764 C 125.235 166.356, 134.227 172.516, 142.475 175.848 C 158.022 182.128, 173 178.277, 173 168 C 173 157.983, 159.041 151.960, 134.924 151.570 C 122.994 151.377, 122.168 151.230, 118.852 148.701 C 112.121 143.566, 111.394 138.804, 117.042 136.835 L 120.111 135.766 117.917 134.229 C 116.195 133.023, 115.324 132.941, 113.872 133.848 C 112.207 134.888, 111.572 134.108, 107.523 126.046 C 105.049 121.119, 102.231 115.785, 101.262 114.193 L 99.500 111.298 96.779 115.122 M 135 116.062 C 131.975 117.717, 126.800 121.526, 123.500 124.526 L 117.500 129.981 120.306 132.490 C 122.853 134.769, 123.925 135, 131.952 135 C 140.791 135, 140.794 134.999, 143.842 131.527 C 146.655 128.323, 148.981 122.656, 148.994 118.973 C 149.005 116.098, 145.982 112.999, 143.193 113.027 C 141.712 113.041, 138.025 114.407, 135 116.062" stroke="none" fill="black" fill-rule="evenodd"/>
</svg>