<svg xmlns="http://www.w3.org/2000/svg" width="200" height="200" viewBox="0 0 200 200" version="1.1">
	<path d="M 146.500 13.718 C 137.766 14.551, 115.403 18.216, 94.692 22.209 L 72.884 26.413 56.692 23.183 C 32.503 18.358, 24.089 19.130, 19.800 26.565 C 18.154 29.418, 18.028 34.685, 17.980 102.340 C 17.934 168.179, 18.087 175.380, 19.595 178.559 C 23.073 185.887, 29.221 186.117, 45.203 179.517 C 67.969 170.114, 69.749 169.598, 79.569 169.547 C 87.775 169.504, 89.025 169.755, 92.697 172.183 L 96.755 174.866 102.628 172.530 C 115.440 167.433, 125.224 168.483, 144.738 177.052 C 151.207 179.892, 158.110 182.270, 160.077 182.336 C 167.105 182.574, 170.896 177.774, 173.496 165.349 C 174.581 160.162, 174.921 144.396, 175.072 92.185 L 175.264 25.632 172.885 23.706 C 169.426 20.905, 162.833 22, 150.874 27.364 C 145.443 29.799, 141 31.432, 141 30.993 C 141 30.555, 139.537 29.670, 137.750 29.029 C 134.539 27.876, 134.613 27.833, 143.950 25.441 C 159.981 21.333, 167.013 16.476, 160.508 14.003 C 157.925 13.021, 154.531 12.952, 146.500 13.718 M 137.660 17.547 C 127.808 18.889, 91.587 25.356, 85 26.949 C 82.135 27.642, 82.951 27.808, 89.500 27.865 C 94.770 27.911, 99.278 27.320, 102.711 26.134 C 105.710 25.098, 108.469 24.681, 109.211 25.152 C 111.333 26.498, 127.266 26.107, 135.652 24.502 C 144.515 22.806, 158.691 18.309, 159.549 16.921 C 160.346 15.631, 149.438 15.942, 137.660 17.547 M 29.557 23.105 C 25.130 23.827, 21.003 27.781, 20.996 31.306 C 20.735 169.849, 20.782 174.678, 22.417 177.840 C 25.397 183.602, 30.918 183.122, 47.808 175.633 C 64.147 168.389, 70.554 166.549, 79.536 166.523 C 86.239 166.504, 88.395 166.926, 92.536 169.069 L 97.500 171.638 102 169.641 C 107.582 167.164, 121.933 166.250, 128.738 167.938 C 131.357 168.587, 138.554 171.351, 144.731 174.080 C 157.656 179.791, 160.929 180.643, 163.875 179.067 C 166.817 177.493, 169.630 171.555, 170.991 164.049 C 172.234 157.197, 172.740 28.006, 171.532 26.052 C 169.866 23.356, 161.104 25.362, 149.424 31.112 C 144.151 33.708, 142.999 34.738, 142.433 37.360 C 142.061 39.087, 140.939 42.115, 139.940 44.089 C 138.298 47.333, 138.260 48.075, 139.543 51.800 C 141.456 57.353, 140.378 62.472, 134.120 77.548 C 129.638 88.348, 129.213 90.006, 130.024 93.548 C 132.594 104.774, 134.363 120.896, 134.428 133.674 C 134.494 146.571, 134.311 148.103, 132.401 150.674 C 131.230 152.250, 129.141 153.639, 127.677 153.814 C 124.080 154.244, 116.720 147.236, 109.968 136.951 C 107.097 132.578, 104.641 129, 104.510 129 C 104.379 129, 98.473 132.635, 91.386 137.078 C 64.664 153.831, 50.147 159.136, 45.397 153.886 C 43.579 151.876, 43.500 149.302, 43.500 91.908 C 43.500 27.392, 43.191 31, 48.716 31 C 52.498 31, 64 28.754, 64 28.016 C 64 27.344, 42.993 23.249, 37 22.753 C 35.075 22.593, 31.726 22.752, 29.557 23.105 M 104.500 28.580 C 102.850 29.287, 99.025 30.233, 96 30.682 C 90.515 31.497, 90.526 31.500, 100 32.010 C 107.003 32.387, 111.208 32.082, 116 30.851 L 122.500 29.181 117.315 29.090 C 114.463 29.041, 111.088 28.616, 109.815 28.148 C 108.332 27.602, 106.422 27.757, 104.500 28.580 M 70 30.028 C 68.280 30.559, 69.815 30.832, 74.917 30.900 C 78.996 30.955, 82.146 30.838, 81.917 30.641 C 80.908 29.771, 72.269 29.327, 70 30.028 M 121 32.751 C 115.675 34.055, 108.356 34.332, 80.500 34.283 L 46.500 34.222 73.500 34.997 C 99.212 35.735, 109.036 36.600, 120.683 39.152 C 125.661 40.243, 126.124 40.154, 132.429 36.894 C 136.039 35.027, 138.994 33.215, 138.996 32.867 C 139.009 30.656, 129.797 30.597, 121 32.751 M 134.732 38.734 C 132.130 40.165, 130.003 41.598, 130.006 41.918 C 130.010 42.238, 131.387 43.282, 133.068 44.239 L 136.123 45.977 138.145 41.406 C 139.257 38.891, 140.009 36.676, 139.816 36.483 C 139.623 36.289, 137.335 37.303, 134.732 38.734 M 46.450 45.624 C 46.041 49.956, 45.971 68.575, 46.294 87 C 46.644 106.938, 46.471 124.751, 45.868 131 C 44.748 142.602, 45.608 150.720, 48.126 152.308 C 50.448 153.772, 62.485 141.283, 75.653 123.749 C 85.903 110.101, 86.080 109.773, 84.997 106.490 C 83.375 101.578, 77.190 92.527, 69.635 84.014 C 58.798 71.802, 61.457 71.229, 81.414 81.473 C 89.513 85.630, 96.671 88.714, 97.320 88.326 C 101.006 86.122, 108.490 78.898, 111.044 75.079 C 114.442 69.996, 114.711 67.925, 112.250 65.797 C 108.406 62.472, 103.565 61.715, 84.500 61.453 C 74.050 61.310, 64.150 60.779, 62.500 60.274 C 58.404 59.021, 58.610 56.215, 62.970 53.877 L 66.439 52.016 67.970 54.549 C 69.943 57.814, 72.050 58.282, 82.719 57.825 C 90.443 57.495, 92.644 56.939, 101 53.211 C 106.225 50.880, 113.149 47.465, 116.387 45.621 L 122.274 42.269 113.387 40.527 C 106.742 39.224, 97.272 38.654, 75.847 38.267 L 47.194 37.749 46.450 45.624 M 110.573 51.390 L 96.646 58.494 102.045 59.270 C 109.270 60.310, 114.199 62.866, 115.903 66.455 L 117.306 69.411 120.757 65.455 C 124.431 61.245, 132.163 51.322, 133.373 49.265 C 134.187 47.881, 128.476 43.916, 126 44.147 C 125.175 44.224, 118.233 47.484, 110.573 51.390 M 134.335 52.835 C 133.705 53.844, 126.499 62.744, 118.321 72.613 C 110.143 82.481, 102.395 92.040, 101.103 93.855 C 99.537 96.054, 98.421 96.821, 97.754 96.154 C 97.087 95.487, 97.525 94.045, 99.066 91.827 L 101.378 88.500 99.086 90.499 L 96.793 92.497 83.147 85.506 C 75.641 81.661, 69.090 78.328, 68.590 78.100 C 68.089 77.871, 70.917 81.467, 74.875 86.092 C 78.832 90.716, 83.462 97.304, 85.163 100.730 C 86.863 104.157, 88.617 106.737, 89.058 106.464 C 90.335 105.675, 91.271 107.962, 90.217 109.294 C 89.691 109.957, 89.038 112.596, 88.764 115.159 C 88.120 121.182, 85.653 124.519, 75.669 132.864 C 71.176 136.620, 64.858 142.706, 61.630 146.387 L 55.760 153.081 61.630 150.494 C 69.705 146.936, 85.464 137.940, 96.185 130.768 C 101.101 127.480, 105.253 124.950, 105.411 125.145 C 105.569 125.340, 108.205 129.325, 111.268 134 C 118.027 144.314, 124.454 151, 127.609 151 C 129.412 151, 130.130 150.193, 130.947 147.250 C 133.144 139.340, 131.525 114.191, 127.619 95.557 L 126.262 89.085 130.657 78.792 C 136.507 65.090, 138.338 58.615, 137.550 54.416 C 136.828 50.566, 136.005 50.161, 134.335 52.835 M 63.500 57 C 63.160 57.550, 63.835 58, 65 58 C 66.165 58, 66.840 57.550, 66.500 57 C 66.160 56.450, 65.485 56, 65 56 C 64.515 56, 63.840 56.450, 63.500 57 M 80.576 121.550 C 77.931 125.153, 75.960 128.293, 76.196 128.529 C 77.077 129.410, 84.894 120.394, 85.542 117.750 C 85.913 116.237, 86.030 115, 85.801 115 C 85.573 115, 83.221 117.948, 80.576 121.550" stroke="none" fill="black" fill-rule="evenodd"/>
</svg>