<svg xmlns="http://www.w3.org/2000/svg" width="200" height="200" viewBox="0 0 200 200" version="1.1">
	<path d="M 21.898 14.284 C 19.559 15.856, 18.204 17.757, 17.548 20.387 C 16.501 24.591, 17.152 27.465, 23.347 46 C 25.278 51.775, 27.677 60.093, 28.679 64.485 C 31.140 75.275, 30.936 75.191, 52.583 74.365 C 74.927 73.513, 76.765 74.431, 62.305 79.221 C 56.362 81.189, 47.542 83.585, 42.705 84.546 C 31.866 86.697, 31.722 87.821, 41.563 93.460 C 49.989 98.288, 58.007 103.824, 57.983 104.798 C 57.974 105.184, 55.391 106.497, 52.244 107.715 L 46.523 109.930 43.511 107.026 C 34.754 98.582, 22.208 100.790, 16.879 111.713 C 14.984 115.598, 14.471 118.537, 14.159 127.309 C 13.712 139.873, 16.166 155.166, 19.099 158.099 C 21.858 160.858, 30.789 163.151, 35.839 162.395 C 44.059 161.166, 52.424 152.423, 57.039 140.238 C 59.838 132.847, 62.262 118.985, 61.834 112.819 C 61.650 110.168, 61.742 107.999, 62.038 107.999 C 62.334 108, 64.058 109.238, 65.870 110.750 L 69.164 113.500 68.029 122 C 67.405 126.675, 65.118 139.383, 62.947 150.239 C 60.776 161.096, 59 172.448, 59 175.466 C 59 180.206, 59.338 181.176, 61.483 182.581 C 63.453 183.871, 64.587 183.991, 66.971 183.160 C 71.180 181.693, 78.077 176.884, 88 168.498 C 92.675 164.547, 97.026 161.494, 97.670 161.714 C 99.392 162.302, 115.558 158.289, 120.791 155.974 C 123.276 154.875, 125.473 154.139, 125.672 154.339 C 125.872 154.539, 126.634 157.009, 127.365 159.827 C 129.093 166.490, 133.159 172.254, 138.733 175.946 C 147.020 181.436, 155.788 180.972, 161.710 174.731 C 167.841 168.270, 169.688 162.199, 170.450 146 C 170.748 139.675, 171.424 131.125, 171.952 127 C 173.406 115.646, 173.175 96.630, 171.456 86.027 C 169.652 74.905, 165.460 61.849, 160.582 52.163 L 157.101 45.250 161.090 44.715 C 166.260 44.021, 168 42.484, 168 38.610 C 168 29.991, 153.247 18.641, 138.498 15.915 C 127.484 13.879, 116.193 18.463, 110.296 27.367 C 107.509 31.575, 107.304 32.408, 108.143 36.140 C 108.652 38.408, 108.941 40.387, 108.785 40.537 C 108.628 40.688, 100.495 36.883, 90.711 32.083 C 76.644 25.181, 71.832 22.288, 67.711 18.254 C 61.688 12.359, 58.983 11.442, 57.509 14.798 C 56.923 16.134, 55.872 16.917, 55 16.667 C 35.866 11.194, 27.402 10.585, 21.898 14.284 M 22.573 17.336 C 19 20.909, 19.213 25.829, 23.436 37.227 C 27.274 47.586, 29.310 54.617, 31.045 63.500 C 31.689 66.800, 32.673 70.063, 33.231 70.750 C 33.985 71.680, 39.743 72, 55.699 72 L 77.153 72 74.183 69.501 C 70.554 66.447, 60 52.815, 60 51.181 C 60 48.667, 61.918 50.259, 66.805 56.832 C 69.599 60.590, 73.672 65.277, 75.854 67.249 C 79.832 70.843, 84 73.544, 84 72.529 C 84 72.230, 80.997 66.702, 77.328 60.243 C 73.658 53.784, 67.998 42.875, 64.751 36 C 61.504 29.125, 58.499 22.830, 58.072 22.011 C 56.786 19.543, 43.285 15.777, 33.823 15.248 C 25.527 14.784, 25.034 14.875, 22.573 17.336 M 60 16.730 C 60 17.870, 61.202 19.015, 63.184 19.763 C 67.577 21.421, 67.681 20.757, 63.527 17.589 C 60.421 15.219, 60 15.117, 60 16.730 M 125.764 18.996 C 121.157 20.383, 115.945 24.093, 113.114 28.002 C 110.749 31.266, 110.485 32.377, 110.959 37.057 L 111.500 42.391 124.348 49.991 C 137.432 57.730, 141.341 61.376, 146.031 70.210 C 149.564 76.868, 147.610 84.719, 141.974 86.508 C 138.514 87.606, 139.555 91.549, 144.512 96.118 C 150.247 101.404, 152.539 108.329, 151.662 117.718 C 150.927 125.589, 150.540 126.272, 144.718 129.964 C 141.909 131.745, 140 133.695, 140 134.782 C 140 137.883, 135.008 146.816, 131.735 149.569 C 128.630 152.182, 128.627 152.192, 129.775 157.663 C 131.227 164.584, 134.192 169.402, 139.259 173.072 C 149.718 180.649, 160.204 177.088, 164.975 164.338 C 167.716 157.010, 169.539 132.732, 169.392 105.500 C 169.293 87.130, 169.065 84.685, 166.594 75.500 C 165.115 70, 161.451 60.382, 158.452 54.127 C 155.454 47.872, 152.999 42.472, 152.998 42.127 C 152.997 41.782, 155.532 41.500, 158.632 41.500 C 166.392 41.500, 167.541 39.654, 163.427 33.799 C 155.763 22.896, 137.132 15.573, 125.764 18.996 M 62 23.177 C 62 25.458, 72.371 46.018, 73.004 44.993 C 73.468 44.242, 74.483 44.233, 76.398 44.961 C 80.288 46.440, 81 46.274, 81 43.890 C 81 41.599, 76.055 31.872, 73.051 28.254 C 70.840 25.592, 62 21.530, 62 23.177 M 79.273 32.750 C 86.275 44.176, 85.425 50.694, 77.261 48.188 C 75.248 47.570, 73.513 47.163, 73.404 47.282 C 73.295 47.402, 76.655 53.575, 80.871 61 C 89.438 76.087, 90.713 77.016, 97.019 72.766 C 102.549 69.040, 106.775 59.976, 108.411 48.339 L 108.995 44.178 93.748 36.583 C 85.361 32.406, 78.157 28.991, 77.737 28.994 C 77.318 28.997, 78.009 30.688, 79.273 32.750 M 110.673 50.750 C 109.762 57.901, 108.372 61.965, 104.768 68.014 C 102.181 72.357, 100.411 74.031, 96.270 76.051 L 91.041 78.602 95.099 85.546 C 97.331 89.365, 99.277 92.611, 99.425 92.758 C 99.572 92.906, 101.331 92.342, 103.332 91.506 C 105.334 90.669, 109.304 89.485, 112.155 88.873 L 117.338 87.762 114.174 86.431 C 109.736 84.565, 106 80.539, 106 77.622 C 106 72.506, 112.451 67.204, 125.666 61.459 L 133.085 58.234 122.620 52.117 C 116.864 48.753, 111.958 46, 111.717 46 C 111.476 46, 111.006 48.138, 110.673 50.750 M 129.971 62.442 C 118.430 66.695, 109 73.485, 109 77.541 C 109 82.288, 117.530 86.082, 128.695 86.302 C 132.652 86.380, 136.051 86.232, 136.249 85.972 C 136.829 85.209, 134.724 60.993, 134.083 61.070 C 133.763 61.109, 131.912 61.726, 129.971 62.442 M 138.206 71.799 C 138.642 76.584, 139.112 81.592, 139.250 82.927 L 139.500 85.353 142.407 82.843 C 146.061 79.688, 146.128 75.600, 142.623 69.620 C 137.991 61.716, 137.317 62.048, 138.206 71.799 M 70 79.197 C 64.225 81.418, 55.225 84.314, 50 85.633 C 44.775 86.952, 40.085 88.163, 39.578 88.323 C 39.071 88.484, 41.134 90.014, 44.164 91.723 L 49.672 94.832 72.691 95.555 C 88.760 96.059, 95.911 95.953, 96.375 95.203 C 97.441 93.478, 87.519 77.557, 84.530 76.196 C 81.221 74.688, 82.313 74.463, 70 79.197 M 134.813 89.683 C 135.534 89.972, 136.397 89.936, 136.729 89.604 C 137.061 89.272, 136.471 89.036, 135.417 89.079 C 134.252 89.127, 134.015 89.364, 134.813 89.683 M 117 90.769 C 115.075 90.944, 110.575 92.080, 107 93.294 L 100.500 95.500 115.500 96 C 124.238 96.291, 130.413 96.899, 130.292 97.455 C 130.177 97.980, 127.322 98.973, 123.948 99.661 C 115.204 101.445, 107 103.930, 107 104.796 C 107 106.181, 112.068 113, 113.098 113 C 115.217 113, 128.885 120.248, 130.989 122.488 C 135.358 127.139, 131.033 130.661, 122.475 129.423 C 118.775 128.887, 118.099 128.274, 114.097 121.816 C 109.594 114.549, 107.315 112.898, 99.855 111.500 C 95.065 110.602, 92.090 112.582, 88.603 118.988 C 86.225 123.356, 86.030 124.388, 86.947 127.721 C 88.479 133.285, 93.184 140.946, 98.931 147.234 C 101.719 150.285, 104 153.247, 104 153.818 C 104 154.388, 102.763 155.829, 101.250 157.019 L 98.500 159.183 102.500 158.457 C 108.358 157.393, 118.977 154.042, 123 151.987 C 125.700 150.607, 126.897 149.069, 128.235 145.257 C 129.189 142.539, 131.889 138.132, 134.235 135.464 L 138.500 130.612 138.362 114.321 C 138.286 105.361, 137.955 96.959, 137.627 95.649 C 137.179 93.863, 135.963 92.999, 132.765 92.190 C 127.564 90.875, 121.673 90.344, 117 90.769 M 140.387 97.645 C 140.748 98.782, 141.146 106.220, 141.272 114.173 L 141.500 128.634 144.699 126.748 C 147.295 125.218, 148.025 124.016, 148.571 120.376 C 150.030 110.643, 147.202 100.538, 142.063 97.126 C 139.851 95.657, 139.765 95.684, 140.387 97.645 M 59.545 100.250 C 59.919 101.487, 60.565 102.869, 60.982 103.320 C 61.398 103.770, 67.405 104.315, 74.329 104.531 L 86.919 104.922 88.922 102.110 L 90.925 99.297 81.212 98.654 C 75.871 98.300, 68.657 98.008, 65.183 98.005 C 59.096 98, 58.890 98.082, 59.545 100.250 M 92.578 101.919 C 91.040 103.524, 90.082 105.324, 90.450 105.919 C 91.453 107.541, 95.817 107.221, 99.096 105.284 C 102.232 103.432, 102.684 102.084, 100.800 100.200 C 98.775 98.175, 95.511 98.857, 92.578 101.919 M 104 99.941 C 104 101.763, 105.809 101.961, 109.635 100.558 L 113.500 99.141 108.750 99.070 C 106.138 99.032, 104 99.423, 104 99.941 M 28.500 104.733 C 19.243 107.050, 14.711 120.338, 16.982 138.500 C 19.178 156.054, 20.213 157.824, 29.285 159.526 C 35.445 160.681, 39.799 159.268, 44.965 154.436 C 53.032 146.890, 59 130.086, 59 114.917 L 59 108.750 55.802 109.390 C 49.726 110.605, 48.110 112.421, 48.153 117.984 C 48.181 121.628, 47.482 124.208, 45.592 127.433 C 43.008 131.842, 37.426 136.759, 36.292 135.625 C 34.876 134.209, 38.057 121.427, 41.006 116.683 L 44.097 111.711 41.355 108.849 C 39.089 106.484, 32.964 103.688, 31 104.122 C 30.725 104.182, 29.600 104.457, 28.500 104.733 M 101.136 107.336 C 100.263 108.388, 100.753 108.895, 103.439 109.720 C 106.797 110.751, 106.834 110.730, 105.765 108.384 C 104.552 105.722, 102.804 105.326, 101.136 107.336 M 68.836 109.750 L 72.095 112.500 70.586 123.149 C 69.756 129.006, 67.465 141.808, 65.495 151.597 C 63.250 162.747, 62.022 171.468, 62.206 174.947 C 62.490 180.311, 62.593 180.494, 65.234 180.314 C 68.720 180.077, 76.494 174.913, 86.812 165.983 L 94.929 158.957 90.949 152.801 C 85.136 143.805, 83 135.923, 83 123.460 C 83 117.779, 83.418 112.030, 83.930 110.685 C 84.793 108.413, 84.598 108.196, 81.180 107.630 C 79.156 107.296, 74.817 107.017, 71.538 107.011 L 65.576 107 68.836 109.750 M 86.630 111.250 C 85.230 116.474, 85.914 117.168, 89 113.653 C 92.622 109.528, 92.692 109, 89.617 109 C 87.990 109, 87.042 109.715, 86.630 111.250 M 42.176 120.250 C 41.075 122.588, 39.852 126.066, 39.457 127.980 C 38.785 131.241, 38.853 131.367, 40.528 129.980 C 44.073 127.046, 47.677 116, 45.089 116 C 44.588 116, 43.278 117.912, 42.176 120.250 M 115.067 118.206 C 115.718 119.468, 117.342 121.963, 118.676 123.750 C 120.778 126.566, 121.696 127, 125.551 127 C 132.661 127, 130.933 124.443, 120.191 119.068 C 114.125 116.033, 113.928 116, 115.067 118.206 M 86.588 136.500 C 87.484 140.580, 92.449 151.029, 95.080 154.374 C 97.111 156.956, 97.328 157.013, 99.088 155.420 C 100.883 153.796, 100.788 153.558, 96.360 148.633 C 93.837 145.827, 90.457 141.274, 88.850 138.515 C 86.481 134.448, 86.053 134.067, 86.588 136.500 M 132.967 141.553 C 131.760 143.507, 131.024 145.357, 131.332 145.665 C 131.894 146.228, 135.989 140.156, 135.996 138.750 C 136.004 137.252, 135.119 138.071, 132.967 141.553" stroke="none" fill="black" fill-rule="evenodd"/>
</svg>