<svg xmlns="http://www.w3.org/2000/svg" width="200" height="200" viewBox="0 0 200 200" version="1.1">
	<path d="M 68.500 11.071 C 38.428 14.161, 29 16.303, 29 20.050 C 29 21.057, 29.477 22.177, 30.060 22.537 C 30.729 22.950, 30.456 23.677, 29.321 24.507 C 27.741 25.663, 27.521 27.501, 27.511 39.661 C 27.501 51.936, 27.255 53.958, 25.330 57.553 C 22.684 62.495, 17.763 67.441, 13.899 69.042 C 10.594 70.411, 10.966 72, 14.591 72 C 19.882 72, 23.984 74.710, 26.168 79.647 C 29.155 86.400, 28.289 97.758, 23.013 121 C 18.060 142.821, 17.829 150.824, 22.053 154.244 C 26.601 157.927, 35.799 155.400, 51.329 146.202 L 59.268 141.500 58.635 128.500 C 58.288 121.350, 57.573 108.710, 57.046 100.412 C 56.098 85.460, 56.832 71.117, 58.806 66 C 59.336 64.625, 60.632 62.724, 61.686 61.776 C 63.529 60.116, 63.871 60.324, 70.748 67.276 L 77.895 74.500 75.980 80 C 73.763 86.368, 73.547 94.436, 75.018 115.977 C 76.414 136.433, 79.882 142.710, 88.610 140.583 C 93.032 139.505, 102.953 128.526, 106.937 120.302 C 109.167 115.696, 110.834 113.383, 111.687 113.710 C 113.526 114.416, 113.326 118.398, 110.990 127.590 C 106.611 144.821, 96.539 160.140, 86.345 165.075 C 82.607 166.884, 81.374 168.294, 78.457 174.085 C 74.638 181.670, 74.161 184.741, 76.655 185.698 C 79.300 186.713, 85.604 182.672, 99 171.377 C 118.923 154.577, 129.258 146.378, 132.750 144.602 C 135.877 143.011, 136 143.023, 136 144.921 C 136 146.005, 134.197 150.376, 131.994 154.634 C 128.969 160.479, 128.296 162.578, 129.244 163.207 C 129.935 163.664, 136.350 166.914, 143.500 170.428 C 162.533 179.783, 170.832 181.201, 173.010 175.473 C 174.349 171.952, 173.357 168.034, 167.864 155.155 C 162.329 142.175, 160.719 136.896, 161.597 134.607 C 162.340 132.672, 167.504 132.472, 173.140 134.160 C 175.270 134.798, 177.204 135.129, 177.438 134.895 C 177.672 134.661, 178.426 127.847, 179.114 119.752 C 180.917 98.537, 179.683 89.921, 172.874 76.174 C 168.296 66.929, 167.810 65.328, 168.237 60.881 C 168.642 56.668, 168.399 55.692, 166.635 54.457 C 165.491 53.656, 163.127 53, 161.381 53 C 157.260 53, 152.879 57.863, 150.426 65.159 L 148.630 70.500 147.437 66.452 C 146.781 64.226, 145.925 60.515, 145.535 58.204 L 144.825 54.004 149.606 51.955 C 152.236 50.827, 159.554 48.555, 165.868 46.904 C 179.110 43.442, 179 43.492, 179 40.983 C 179 38.754, 173.063 35.064, 165.100 32.344 C 160.226 30.680, 159.279 29.846, 155.379 23.785 C 146.805 10.460, 141.398 6.405, 137.872 10.654 C 135.883 13.051, 136.371 26.012, 139.010 40.853 L 141.206 53.206 137.602 56.176 C 135.620 57.810, 132.761 61.252, 131.249 63.824 C 128.688 68.180, 128.500 69.274, 128.500 79.802 C 128.500 90.616, 128.414 91.080, 126.500 90.565 C 125.400 90.269, 122.670 90.021, 120.433 90.014 C 116.366 90, 116.365 89.999, 114.573 84.313 C 112.608 78.081, 108.735 73.474, 104.585 72.432 C 101.015 71.536, 94.077 74.266, 90.539 77.959 L 87.738 80.882 93.225 80.316 C 96.408 79.988, 100.236 80.253, 102.340 80.947 C 105.689 82.053, 110 86.098, 110 88.135 C 110 88.611, 106.513 88.992, 102.250 88.982 L 94.500 88.964 87.713 81.519 L 80.926 74.074 84.895 70.105 C 87.427 67.573, 93.101 64.107, 100.570 60.530 C 112.662 54.739, 123 48.467, 123 46.923 C 123 46.437, 113.438 45.918, 101.750 45.770 L 80.500 45.500 91 42.128 C 111.260 35.622, 120.250 30.203, 120.250 24.500 C 120.250 20.603, 116.421 17.145, 107.353 12.855 C 97.738 8.306, 96.140 8.232, 68.500 11.071 M 92.500 11.661 C 90.850 11.846, 81.850 12.703, 72.500 13.567 C 47.579 15.867, 32 18.348, 32 20.016 C 32 20.496, 38.457 24.026, 46.349 27.859 C 66.333 37.566, 70.944 43.205, 67.409 53.616 L 65.859 58.183 72.135 64.841 C 75.587 68.504, 78.533 71.676, 78.681 71.892 C 78.830 72.108, 80.835 70.401, 83.137 68.098 C 85.994 65.241, 91.954 61.625, 101.912 56.706 L 116.500 49.500 97.500 48.978 C 87.050 48.690, 77.938 48.101, 77.250 47.669 C 74.847 46.156, 76.034 44.153, 80.250 42.607 C 82.588 41.750, 89.450 39.466, 95.500 37.531 C 107.981 33.540, 116.537 29.035, 117.520 25.937 C 118.500 22.850, 114.751 19.290, 106.500 15.473 C 98.328 11.693, 96.548 11.208, 92.500 11.661 M 140.089 12.833 C 138.505 15.793, 138.744 21.927, 140.975 35.603 C 143.351 50.162, 143.738 51.334, 145.879 50.432 C 150.759 48.377, 161.461 45.037, 168.271 43.443 C 172.623 42.425, 175.889 41.157, 175.695 40.562 C 175.505 39.978, 171.333 37.850, 166.424 35.833 L 157.500 32.165 152.386 24.333 C 149.573 20.025, 145.901 15.217, 144.225 13.649 C 141.244 10.858, 141.156 10.841, 140.089 12.833 M 47.659 39.233 C 55.997 47.456, 63.159 54.255, 63.576 54.342 C 64.817 54.601, 66.242 49.100, 65.598 46.534 C 64.109 40.602, 58.500 36.362, 42 28.696 L 32.500 24.283 47.659 39.233 M 30.595 37.250 C 31.467 50.826, 29.580 58.027, 23.328 64.981 C 19.386 69.365, 19.144 69.911, 20.899 70.468 C 24.587 71.639, 28.822 77.088, 30.063 82.261 C 31.753 89.309, 30.741 98.708, 26.019 119.792 C 21.678 139.178, 20.850 149.801, 23.508 152.007 C 26.087 154.147, 33.715 152.517, 42.679 147.908 C 47.282 145.541, 52.399 142.456, 54.050 141.052 L 57.050 138.500 55.525 120.023 C 53.734 98.326, 53.550 76.198, 55.100 68.970 C 55.746 65.959, 57.369 62.511, 59.032 60.616 L 61.865 57.390 46.899 42.195 C 38.668 33.838, 31.485 27, 30.936 27 C 30.293 27, 30.171 30.653, 30.595 37.250 M 157.594 58.250 C 155.466 60.407, 153.625 63.944, 152.118 68.768 L 149.849 76.035 152.090 83.585 C 154.252 90.867, 154.422 91.109, 156.916 90.426 C 160.762 89.372, 163.960 89.793, 167.408 91.806 C 174.005 95.659, 170.863 98.461, 161.211 97.333 L 155.922 96.715 157.836 101.608 C 159.351 105.479, 160.284 106.565, 162.302 106.809 C 166.101 107.270, 167.294 109.301, 166.506 113.965 C 165.590 119.384, 162.785 119.459, 160.071 114.139 C 158.447 110.956, 157.434 110.168, 154.301 109.650 C 145.832 108.251, 145.372 108.464, 144.391 114.250 C 143.783 117.829, 143.027 119.500, 142.014 119.500 C 141.196 119.500, 140.383 118.600, 140.207 117.500 C 139.612 113.797, 136.574 108.949, 135.182 109.484 C 134.442 109.768, 130.611 110.007, 126.668 110.015 C 118.228 110.033, 115.907 110.978, 118.027 113.532 C 119.234 114.987, 119.203 115.379, 117.798 116.406 C 116.883 117.075, 115.247 121.486, 114.059 126.488 C 109.705 144.822, 99.656 160.791, 88.517 167.077 C 84.238 169.492, 82.899 170.981, 80.511 175.977 C 78.934 179.277, 77.939 182.273, 78.301 182.635 C 79.305 183.638, 85.782 179.003, 99.122 167.732 C 116.853 152.753, 129.065 143.197, 132.655 141.493 C 139.806 138.100, 140.844 142.709, 135.460 153.944 C 132.702 159.698, 132.204 161.526, 133.210 162.211 C 133.919 162.694, 139.539 165.563, 145.698 168.587 C 157.088 174.178, 166.223 176.896, 169.458 175.655 C 172.031 174.667, 170.967 169.387, 165.657 156.777 C 158.943 140.837, 158.852 140.544, 159.186 135.906 C 159.455 132.165, 159.896 131.399, 162.258 130.573 C 164.049 129.946, 166.743 129.962, 169.940 130.617 C 176.003 131.859, 175.771 132.435, 176.640 114 C 177.493 95.922, 176.154 88.217, 170.218 77.031 C 166.510 70.043, 165.655 67.441, 165.490 62.648 C 165.303 57.182, 164.236 55.062, 161.650 55.015 C 161.183 55.007, 159.357 56.462, 157.594 58.250 M 137.577 60.046 C 135.503 62.342, 133.110 65.859, 132.260 67.860 C 130.557 71.871, 130.073 81.452, 131.285 87.178 C 132.107 91.060, 133.033 91.544, 140.931 92.210 L 144.362 92.500 145.723 84.500 C 146.992 77.036, 146.937 75.897, 144.905 67.500 C 141.893 55.051, 141.995 55.156, 137.577 60.046 M 98.052 75.947 C 96.934 76.654, 97.276 77.011, 99.552 77.513 C 104.978 78.709, 108.052 80.251, 110.034 82.770 C 112.374 85.745, 112.572 85.007, 110.506 81.011 C 107.825 75.827, 101.991 73.455, 98.052 75.947 M 77.932 82.250 C 76.550 87.382, 76.522 97.856, 77.841 116.240 C 79.172 134.808, 81.425 139.365, 88.403 137.614 C 92.190 136.663, 99.791 127.972, 104.130 119.633 L 108.253 111.709 102.876 112.416 C 99.919 112.804, 93.994 113.826, 89.708 114.686 C 82.286 116.175, 79.523 115.981, 81.567 114.114 C 82.080 113.645, 86.662 112.252, 91.750 111.019 C 96.838 109.785, 100.967 108.489, 100.926 108.138 C 100.885 107.787, 98.527 105.679, 95.687 103.453 C 92.847 101.227, 89.843 98.162, 89.012 96.642 C 87.585 94.033, 87.635 93.768, 89.921 91.891 L 92.341 89.903 86.452 83.951 C 83.213 80.678, 80.228 78, 79.820 78 C 79.411 78, 78.562 79.912, 77.932 82.250 M 147.986 86.050 C 147.979 87.397, 147.701 89.513, 147.370 90.750 C 146.895 92.520, 147.183 93, 148.717 93 C 151.573 93, 151.958 92.193, 150.782 88.665 C 149.326 84.298, 148.003 83.060, 147.986 86.050 M 103.621 98.509 C 110.067 105.806, 110.960 105.653, 110.985 97.250 L 111 92 104.435 92 L 97.871 92 103.621 98.509 M 117 97.713 C 117 101.397, 117.396 103, 118.306 103 C 120.464 103, 132 98.872, 132 98.099 C 132 97.705, 131.377 96.530, 130.616 95.489 C 129.625 94.134, 127.492 93.429, 123.116 93.011 L 117 92.426 117 97.713 M 158.554 92.902 C 156.751 93.608, 156.788 93.712, 159.054 94.318 C 160.399 94.678, 162.850 94.963, 164.500 94.951 L 167.500 94.929 165 93.500 C 162.190 91.894, 161.334 91.814, 158.554 92.902 M 91.450 94.081 C 90.143 96.195, 103.559 107.647, 106.279 106.740 C 107.715 106.262, 95.285 93, 93.401 93 C 92.695 93, 91.817 93.487, 91.450 94.081 M 133.684 95.901 C 134.313 98.304, 134.314 98.304, 139 96.500 C 142.123 95.297, 142.230 95.142, 140 95.062 C 138.625 95.013, 136.518 94.709, 135.318 94.387 C 133.483 93.895, 133.223 94.136, 133.684 95.901 M 147.344 96.742 C 146.709 97.159, 146.041 99.526, 145.860 102.001 L 145.531 106.500 151.221 106.799 L 156.911 107.097 155.117 101.799 C 153.673 97.535, 152.851 96.449, 150.911 96.241 C 149.585 96.098, 147.980 96.324, 147.344 96.742 M 139.230 99.252 C 136.549 100.112, 136.073 100.678, 136.588 102.400 C 137.490 105.423, 139.614 107.362, 141.310 106.711 C 142.644 106.199, 144.308 97.854, 143.026 98.102 C 142.737 98.158, 141.029 98.676, 139.230 99.252 M 113.079 103.583 C 113.127 104.748, 113.364 104.985, 113.683 104.188 C 113.972 103.466, 113.936 102.603, 113.604 102.271 C 113.272 101.939, 113.036 102.529, 113.079 103.583 M 123.250 104.285 C 119.813 105.440, 117 106.727, 117 107.144 C 117 107.740, 133.865 107.191, 134.710 106.568 C 134.826 106.482, 134.661 105.420, 134.344 104.206 C 133.629 101.473, 131.572 101.487, 123.250 104.285 M 140 109.941 C 140 110.459, 140.450 111.160, 141 111.500 C 141.550 111.840, 142 111.416, 142 110.559 C 142 109.702, 141.550 109, 141 109 C 140.450 109, 140 109.423, 140 109.941 M 162 112 C 162.589 113.100, 163.280 114, 163.535 114 C 163.791 114, 164 113.100, 164 112 C 164 110.869, 163.333 110, 162.465 110 C 161.240 110, 161.146 110.404, 162 112" stroke="none" fill="black" fill-rule="evenodd"/>
</svg>