<svg xmlns="http://www.w3.org/2000/svg" width="200" height="200" viewBox="0 0 200 200" version="1.1">
	<path d="M 49.450 15.407 C 45.140 17.284, 41.303 22.241, 39.525 28.229 C 37.623 34.633, 37.583 47.593, 39.441 55.492 C 40.216 58.787, 40.757 61.576, 40.644 61.689 C 40.531 61.802, 36.329 62.205, 31.307 62.584 C 26.284 62.964, 21.620 63.617, 20.942 64.036 C 18.711 65.415, 20.666 67.485, 26.015 69.408 C 32.147 71.613, 39.508 78.190, 40.567 82.409 C 40.972 84.023, 40.764 87.395, 40.101 89.983 C 39.231 93.377, 39.181 96.399, 39.918 101.074 C 41.062 108.331, 40.166 113.946, 37.230 117.923 C 36.183 119.340, 32.024 123.055, 27.987 126.178 C 23.951 129.301, 20.068 132.901, 19.359 134.178 C 17.261 137.959, 17.761 144.945, 20.560 150.958 C 24.431 159.275, 24.228 159.174, 31.298 156.301 C 50.376 148.551, 78.786 133.037, 90.622 123.906 C 97.294 118.758, 96.588 117.106, 88.696 119.400 C 82.232 121.279, 76.093 121.455, 72.595 119.861 C 67.918 117.730, 67.178 114.196, 66.825 92.324 L 66.500 72.149 75.279 70.445 C 86.046 68.355, 97.204 68.826, 101.843 71.567 C 103.633 72.623, 105.972 75.376, 107.151 77.813 C 110.528 84.789, 109.621 90.582, 99.842 124.500 C 95.032 141.184, 85.106 157.652, 71.896 170.861 C 64.870 177.887, 64.197 178.887, 65.388 180.517 C 69.588 186.259, 88.750 176.447, 104.447 160.516 C 111.697 153.158, 116.210 146.682, 118.647 140.140 C 119.597 137.588, 121.478 134.153, 122.827 132.508 C 128.142 126.021, 130.341 117.975, 132.479 97.201 C 134.409 78.442, 137.278 72.111, 145.215 69.105 C 148.517 67.854, 148.637 68.032, 149.942 76.073 C 151.494 85.635, 151.191 101.055, 149 124 C 147.924 135.275, 147.033 144.780, 147.021 145.121 C 147.010 145.463, 144.637 146.055, 141.750 146.437 C 127.862 148.275, 122.170 155.234, 126.717 164.816 C 130.454 172.692, 143.905 181.997, 151.554 181.999 C 155.412 182, 162.661 177.448, 166.802 172.424 C 174.563 163.009, 176.767 153.908, 178.006 126.163 C 178.530 114.428, 179.690 97.778, 180.585 89.163 C 182.287 72.776, 181.980 64.795, 179.460 59.923 C 175.283 51.846, 165.479 51.612, 150.890 59.244 C 142.572 63.595, 140.065 63.632, 138.152 59.434 C 136.575 55.973, 136.708 45.590, 138.502 31.982 C 139.329 25.717, 139.748 19.783, 139.435 18.795 C 138.754 16.649, 135.713 16.436, 134.067 18.419 C 133.064 19.628, 132.046 19.452, 127.207 17.237 C 119.972 13.925, 112.501 13.598, 110.377 16.500 C 107.860 19.938, 107.636 23.044, 108.929 36.520 C 109.869 46.316, 109.904 50.643, 109.068 53.747 C 107.970 57.824, 104.073 62, 101.365 62 C 100.614 62, 100 62.675, 100 63.500 C 100 65.531, 101.864 65.380, 105.701 63.040 C 112.085 59.148, 113.029 54.391, 111.575 33.429 C 110.526 18.308, 111.171 16.534, 117.455 17.242 C 119.797 17.506, 124.322 18.916, 127.511 20.376 C 132.955 22.869, 133.421 22.929, 135.154 21.360 C 137.465 19.269, 137.462 19.114, 135.407 34.542 C 131.578 63.301, 136.275 70.190, 153.493 61.068 C 165.141 54.896, 172.794 54.704, 176.583 60.487 C 179.068 64.279, 179.419 74.453, 177.652 91.500 C 176.797 99.750, 175.800 114.375, 175.437 124 C 175.073 133.625, 174.190 144.975, 173.474 149.223 C 171.159 162.952, 164.704 173.483, 155.777 178.091 C 152.100 179.989, 151.992 179.989, 146.897 178.053 C 139.226 175.138, 134.243 171.452, 130.947 166.255 C 124.688 156.386, 128.762 150.551, 142.885 149.154 L 149.500 148.500 151.286 131 C 153.829 106.085, 154.024 78.268, 151.709 70.739 C 150.021 65.250, 149.809 65.008, 147.219 65.629 C 143.194 66.594, 139.768 68.516, 137.367 71.155 C 132.490 76.517, 130.989 82.218, 129.006 102.912 C 127.749 116.019, 125.120 124.913, 120.945 130.173 C 119.341 132.193, 117.078 136.388, 115.916 139.495 C 111.795 150.508, 97.299 165.778, 82.898 174.275 C 76.093 178.290, 69.420 180.753, 68.321 179.655 C 67.955 179.289, 71.256 175.279, 75.656 170.745 C 80.056 166.210, 85.589 159.630, 87.952 156.123 C 93.670 147.633, 100.366 133.246, 102.902 124 C 104.033 119.875, 106.324 111.577, 107.993 105.559 C 113.235 86.659, 112.987 79.472, 106.852 72.484 C 100.907 65.713, 86.503 64.248, 70.125 68.748 L 63.750 70.500 63.918 90.500 C 64.011 101.500, 64.510 112.096, 65.027 114.048 C 65.545 115.999, 67.356 118.924, 69.052 120.548 C 71.898 123.271, 72.707 123.500, 79.506 123.500 L 86.876 123.500 79.679 128.138 C 65.576 137.226, 35.253 152.643, 27.807 154.512 C 25.564 155.075, 25.098 154.644, 23.281 150.320 C 18.574 139.117, 19.571 135.548, 29.360 128.563 C 41.415 119.960, 43.618 115.577, 42.676 102.070 C 42.347 97.356, 42.535 91.490, 43.093 89.034 C 44.952 80.850, 39.598 72.409, 29.754 68.001 C 26.165 66.394, 26.049 66.219, 28.188 65.646 C 29.460 65.306, 33.286 65.021, 36.691 65.014 C 40.096 65.006, 43.136 64.589, 43.447 64.086 C 43.757 63.584, 43.293 60.096, 42.414 56.336 C 40.029 46.126, 40.769 29.872, 43.868 24.410 C 48.131 16.896, 54.106 15.269, 63.151 19.160 C 67.303 20.947, 68.087 21.682, 67.679 23.410 C 67.408 24.560, 66.184 29.384, 64.960 34.132 C 61.308 48.291, 63.999 54.215, 75.602 57.557 C 78.846 58.491, 83.614 60.319, 86.197 61.618 C 89.256 63.156, 91.122 63.612, 91.547 62.924 C 91.906 62.342, 92.043 61.727, 91.850 61.556 C 90.584 60.433, 82.441 56.927, 76.761 55.060 C 67.550 52.032, 65.598 49.493, 66.334 41.500 C 66.638 38.200, 67.993 32.237, 69.345 28.248 L 71.803 20.996 69.151 19.116 C 65.967 16.859, 57.794 13.985, 54.715 14.039 C 53.497 14.061, 51.128 14.676, 49.450 15.407" stroke="none" fill="black" fill-rule="evenodd"/>
</svg>