<svg xmlns="http://www.w3.org/2000/svg" width="200" height="200" viewBox="0 0 200 200" version="1.1">
	<path d="M 37.207 14.193 C 36.526 14.874, 36 18.077, 36 21.539 C 36 24.916, 34.212 36.638, 32.028 47.589 C 27.224 71.665, 23.073 85.905, 16.675 100.250 C 15.264 103.413, 14.530 106, 15.044 106 C 15.558 106, 18.346 105.100, 21.239 104.001 C 32.968 99.543, 39.164 101.814, 49.297 114.289 C 54.847 121.120, 55.164 123.702, 51.644 133.401 C 46.935 146.374, 33.572 166.421, 21.750 178.248 L 16 184 20.105 184 C 30.446 184, 51.761 167.341, 66.807 147.499 C 72.957 139.388, 82.644 120.057, 86.349 108.500 C 91.934 91.079, 100.216 55.644, 99.664 51.530 C 98.882 45.704, 96.034 43.760, 88.885 44.172 C 85.750 44.352, 83.371 44.202, 83.598 43.837 C 84.801 41.903, 118.118 23, 120.323 23 C 120.885 23, 122.475 53.566, 122.333 61.647 C 122.114 74.101, 118.278 78.377, 107.254 78.453 C 101.690 78.492, 100.471 78.799, 100.194 80.235 C 99.943 81.535, 101.775 82.879, 107.515 85.603 C 111.725 87.602, 116.653 90.719, 118.464 92.531 C 124.687 98.754, 125.134 109.440, 119.674 121.427 L 117.362 126.500 119.431 130 C 121.377 133.292, 121.482 134.762, 121.198 154.699 C 120.943 172.591, 121.145 176.381, 122.496 178.993 C 126.524 186.781, 139.556 188.591, 144.773 182.087 C 150.955 174.378, 152.308 165.318, 150.772 141.911 C 149.845 127.765, 149.876 122.958, 150.932 117.361 C 152.183 110.731, 152.137 110.190, 149.973 105.950 C 148.516 103.096, 147.665 99.575, 147.601 96.134 C 147.511 91.359, 147.811 90.532, 150.323 88.634 C 152.761 86.791, 154.894 86.432, 165.968 86 C 176.726 85.580, 179.130 85.193, 180.895 83.595 C 182.053 82.547, 183 81.067, 183 80.305 C 183 78.223, 179.527 71.945, 176.208 68.028 L 173.266 64.556 167.551 69.780 C 159.129 77.477, 155.121 77.926, 152.426 71.476 C 149.657 64.850, 147.825 34.844, 150.103 33.436 C 151.399 32.635, 155.976 23.102, 155.990 21.173 C 155.996 20.443, 154.685 18.531, 153.077 16.923 C 150.575 14.421, 149.383 14, 144.807 14 C 141.866 14, 136.226 14.896, 132.273 15.992 C 126.329 17.639, 124.603 17.776, 122.293 16.783 C 118.542 15.172, 92.418 15.254, 84 16.904 C 71.851 19.285, 64.902 22.127, 60.192 26.640 C 56.122 30.540, 55.822 31.168, 56.350 34.685 C 56.664 36.783, 57.290 40.975, 57.741 44 C 58.760 50.843, 59.283 51.684, 63.041 52.509 L 66.059 53.172 62.392 56.086 C 60.375 57.689, 58.398 59, 57.999 59 C 56.825 59, 52.513 48.627, 46.599 31.574 C 40.809 14.877, 39.305 12.095, 37.207 14.193 M 131 19.285 L 124.500 21.500 124 26 C 123.725 28.475, 123.862 35.450, 124.305 41.500 C 125.497 57.811, 124.837 71.074, 122.667 74.386 C 119.906 78.599, 115.165 80.989, 109.500 81.022 L 104.500 81.051 110.615 84.018 C 118.076 87.637, 124.610 94.405, 125.567 99.506 C 126.651 105.282, 125.484 115.004, 123.020 120.733 C 120.920 125.612, 120.869 126.219, 122.253 129.732 C 124.726 136.007, 125.146 142.197, 124 155.500 C 122.652 171.156, 123.322 176.476, 127.121 180.275 C 129.665 182.819, 130.520 183.071, 135.686 182.801 C 141.300 182.507, 141.486 182.402, 144.201 178 C 148.709 170.692, 149.421 164.161, 148.017 143 C 147.091 129.050, 147.068 122.987, 147.921 118.349 C 148.962 112.685, 148.844 111.578, 146.430 104.386 C 140.959 88.088, 145.939 83, 167.361 83 C 178.010 83, 180 82.538, 180 80.064 C 180 78.363, 174.311 69, 173.277 69 C 172.983 69, 170.951 70.619, 168.761 72.597 C 166.571 74.576, 163.190 76.858, 161.248 77.670 C 151.165 81.883, 147.043 72.945, 147.016 46.809 C 147.006 37.938, 147.402 31.870, 148.014 31.491 C 149.370 30.653, 153 23.460, 153 21.611 C 153 16.552, 142.333 15.424, 131 19.285 M 86.484 19.444 C 77.218 20.885, 72.376 22.333, 65.786 25.635 C 60.127 28.471, 58.583 30.967, 59.457 35.864 C 59.814 37.864, 60.350 41.621, 60.647 44.212 C 61.616 52.654, 67.331 51.691, 84.144 40.257 C 90.390 36.009, 101.278 29.553, 108.341 25.910 C 120.570 19.602, 121.029 19.256, 117.966 18.643 C 112.894 17.629, 95.277 18.077, 86.484 19.444 M 39 23.112 C 39 26.965, 32.955 58.419, 29.989 70 C 27.958 77.929, 24.597 88.082, 21.152 96.692 L 19.075 101.885 23.163 100.442 C 28.619 98.518, 33.647 98.656, 38.500 100.864 C 42.960 102.893, 52.446 112.628, 55.462 118.272 C 57.231 121.582, 57.306 122.511, 56.219 127.692 C 53.738 139.522, 41.180 160.966, 28.861 174.410 C 25.540 178.035, 23.103 181, 23.445 181 C 25.457 181, 34.856 175.216, 41.405 169.947 C 55.277 158.788, 66.801 144.698, 74.585 129.378 C 80.835 117.076, 85.345 103.746, 91.627 79 C 98.232 52.979, 98.382 47.887, 92.585 46.432 C 89.318 45.612, 74.985 49.640, 71.619 52.324 L 68.847 54.533 69.844 65.294 C 72.311 91.918, 64.922 103.044, 50.743 94.052 C 46.134 91.129, 38.720 82.263, 39.639 80.774 C 40.582 79.249, 41.775 80.061, 44.386 84.008 C 49.560 91.826, 57.770 95.799, 62.986 93.008 C 66.550 91.100, 68.521 80.535, 67.489 68.872 C 66.821 61.333, 66.692 60.995, 65.257 63.044 C 64.036 64.786, 63.063 65.110, 60.357 64.670 C 57.466 64.201, 56.322 64.692, 52.415 68.074 C 45.947 73.672, 44.378 71.814, 50.680 66.020 L 55.724 61.382 52.858 55.716 C 51.282 52.599, 47.737 43.430, 44.979 35.341 C 42.222 27.251, 39.748 20.415, 39.483 20.150 C 39.217 19.884, 39 21.217, 39 23.112 M 61.526 60.358 C 60.405 61.177, 60.099 61.943, 60.735 62.336 C 61.306 62.689, 62.338 62.297, 63.029 61.465 C 64.733 59.412, 63.780 58.710, 61.526 60.358" stroke="none" fill="black" fill-rule="evenodd"/>
</svg>