<svg xmlns="http://www.w3.org/2000/svg" width="200" height="200" viewBox="0 0 200 200" version="1.1">
	<path d="M 152 14.691 C 150.625 14.932, 130.600 17.995, 107.500 21.498 C 60.585 28.611, 56.575 28.754, 46.007 23.684 C 32.459 17.186, 23.222 20.036, 19.058 32 C 16.862 38.307, 16.668 55.228, 18.487 81.716 C 20.168 106.211, 20.170 108.075, 18.529 119 C 15.479 139.295, 15.066 143.319, 15.038 153 C 15.005 164.631, 16.171 169.125, 20.428 173.770 C 25.155 178.928, 30.710 179.134, 52.525 174.959 C 65.207 172.533, 73.546 171.560, 85.500 171.116 C 113.064 170.090, 116.887 170.380, 134 174.794 C 153.927 179.934, 155.930 180.250, 161.152 179.080 C 167.066 177.755, 172.317 172.043, 174.693 164.350 C 176.198 159.478, 176.489 155.073, 176.435 137.998 C 176.377 119.474, 176.184 117.210, 174.436 114.542 C 171.847 110.591, 172.072 101.586, 175.420 75.092 C 180.180 37.434, 178.462 25.081, 169.010 28.996 C 165.013 30.652, 157.452 38.205, 150.237 47.750 C 147.224 51.738, 144.441 55, 144.053 55 C 143.666 55, 142.306 53.890, 141.032 52.534 L 138.715 50.068 141.858 47.133 C 146.533 42.766, 146.164 39.398, 140.750 37.022 C 132.677 33.480, 121.171 32.500, 87.631 32.500 C 59.828 32.500, 56.638 32.348, 62.631 31.311 C 66.409 30.658, 77.375 30.094, 87 30.059 C 105.423 29.992, 126.431 28.725, 139 26.922 C 155.237 24.594, 161.689 21.182, 158.617 16.546 C 157.161 14.350, 155.924 14.003, 152 14.691 M 122.500 21.857 C 96.745 25.843, 93.420 26.546, 99 26.826 C 112.787 27.519, 147.863 23.612, 153.918 20.711 C 156.959 19.253, 157.254 17.554, 154.500 17.357 C 153.400 17.279, 139 19.304, 122.500 21.857 M 26.114 25.732 C 20.633 31.213, 19.608 37.560, 20.419 61 C 20.809 72.275, 21.464 86.900, 21.875 93.500 C 22.667 106.219, 22.127 114.971, 19.500 132 C 18.610 137.775, 17.881 147.261, 17.881 153.080 C 17.879 175.266, 22.674 178.085, 51 172.550 C 57.875 171.206, 67.023 169.672, 71.330 169.140 C 78.714 168.229, 82.732 167, 78.327 167 C 74.248 167, 60.620 162.938, 54.363 159.858 C 50.813 158.110, 46.805 155.368, 45.455 153.764 L 43 150.847 43 93.923 L 43 37 46.750 36.868 L 50.500 36.737 47 36.118 C 42.258 35.281, 42.396 32.773, 47.250 31.574 C 49.313 31.064, 51 30.252, 51 29.768 C 51 28.138, 39.542 23.627, 34.293 23.192 C 29.571 22.800, 28.810 23.036, 26.114 25.732 M 166.971 33.374 C 163.799 35.529, 155.675 44.792, 148.774 54.121 L 146.096 57.741 148.633 60.121 C 151.049 62.385, 151.154 62.935, 150.815 71.500 C 150.275 85.128, 145.762 91.986, 137.327 91.996 C 134.135 92, 128 87.216, 128 84.723 C 128 83.902, 127.694 83.906, 126.860 84.740 C 126.007 85.593, 126.414 86.704, 128.478 89.156 C 130.927 92.066, 131.176 93.010, 130.703 97.589 C 129.765 106.675, 121.234 119.804, 111.670 126.882 C 103.139 133.195, 100 133.294, 100 127.248 C 100 122.518, 105.184 112.014, 114.392 98.087 C 121.298 87.642, 121.792 86.562, 120.219 85.351 C 119.273 84.623, 116.091 82.339, 113.146 80.276 L 107.791 76.524 105.379 79.512 C 104.052 81.155, 102.014 85.088, 100.849 88.250 C 99.685 91.412, 98.342 94, 97.866 94 C 95.414 94, 98.538 84.266, 103.002 77.997 L 105.037 75.139 102.796 73.570 C 101.563 72.706, 100.254 72, 99.887 72 C 99.519 72, 98.198 76.500, 96.951 82 C 94.859 91.225, 93.902 93.269, 92.635 91.219 C 92.226 90.557, 94.956 77.109, 96.568 71.844 C 96.964 70.551, 95.676 69.722, 90.698 68.066 C 87.191 66.899, 81.928 65.660, 79.004 65.314 L 73.687 64.684 74.412 68.092 C 78.406 86.862, 76.119 103.610, 65.454 133.693 L 60.913 146.500 65.790 141.702 L 70.666 136.904 75.583 140.993 C 78.287 143.242, 83.416 146.526, 86.979 148.291 C 92.414 150.983, 94.589 151.500, 100.479 151.500 C 112.943 151.500, 120.847 145.451, 134.122 125.750 C 145.877 108.305, 147.979 109.410, 148.726 133.424 C 149.176 147.889, 149.097 148.682, 146.790 153 C 143.721 158.744, 136.988 163.335, 127.325 166.274 L 119.900 168.532 137.252 172.909 C 157.353 177.979, 161.861 177.985, 166.900 172.947 C 172.441 167.405, 173.502 161.930, 173.480 139 C 173.463 121.492, 173.207 118.033, 171.730 115.300 C 169.266 110.742, 169.496 100.296, 172.597 75.918 C 175.615 52.188, 176.217 35.178, 174.128 32.656 C 172.294 30.444, 171.108 30.563, 166.971 33.374 M 90 35.016 C 86.299 35.440, 87.187 35.659, 95 36.251 C 107.244 37.177, 119.189 40.103, 128.729 44.510 C 135.772 47.765, 136.489 47.909, 138.626 46.509 C 139.893 45.679, 141.418 44.087, 142.016 42.970 C 142.971 41.185, 142.685 40.766, 139.637 39.493 C 137.731 38.696, 132.926 37.541, 128.959 36.926 C 119.829 35.509, 95.922 34.337, 90 35.016 M 56 38.625 C 52.975 38.841, 49.487 39.248, 48.250 39.528 L 46 40.038 46 95.345 L 46 150.651 48.250 152.715 C 54.891 158.807, 72.735 164.296, 91.609 166.052 C 116.820 168.398, 139.122 162.400, 144.604 151.799 C 145.892 149.308, 146.248 146.124, 146.145 138.030 C 145.986 125.548, 145.090 117, 143.942 117 C 143.487 117, 139.748 122.099, 135.633 128.331 C 123.189 147.175, 113.361 154.495, 100.500 154.495 C 94.741 154.496, 92.347 153.947, 87 151.401 C 83.425 149.699, 78.306 146.623, 75.625 144.564 L 70.749 140.822 66.090 145.411 C 61.205 150.223, 58 151.310, 58 148.156 C 58 147.142, 60.283 139.830, 63.074 131.906 C 70.570 110.621, 73.278 98.581, 73.399 86 C 73.494 76.143, 71.779 66, 70.018 66 C 68.214 66, 62.427 70.816, 60.721 73.738 C 57.953 78.477, 59.205 82.315, 65.763 89.191 L 71.278 94.972 68.499 102.591 C 65.702 110.260, 59.864 118, 56.877 118 C 51.049 118, 47.515 108.827, 48.247 95.605 C 49.027 81.517, 54.108 71.295, 62.782 66.365 C 65.377 64.890, 67.961 63.131, 68.525 62.458 C 69.878 60.841, 88.346 48.880, 93.710 46.146 C 96.026 44.966, 98.822 44, 99.925 44 C 102.480 44, 104.316 47.396, 103.770 51.115 L 103.346 54 115.951 54 C 125.740 54, 129.051 53.652, 130.777 52.443 C 132 51.587, 133 50.504, 133 50.037 C 133 48.533, 118.257 42.993, 108.736 40.918 C 99.555 38.917, 69.916 37.628, 56 38.625 M 88.915 52.086 C 79.507 57.773, 77.191 59.621, 80.870 58.507 C 82.174 58.112, 87.124 57.027, 91.870 56.096 L 100.500 54.403 100.810 50.701 C 101.240 45.578, 99.312 45.802, 88.915 52.086 M 134.667 52.667 C 133.338 53.995, 134.059 54.782, 136.998 55.213 C 139.846 55.631, 139.913 55.561, 138.343 53.827 C 136.575 51.873, 135.728 51.605, 134.667 52.667 M 107.570 56.907 L 102.640 57.500 101.406 63 C 100.727 66.025, 100.354 68.684, 100.578 68.909 C 100.802 69.134, 102.226 70.086, 103.742 71.024 L 106.500 72.730 112.500 67.082 C 115.800 63.976, 120.075 60.217, 122 58.728 L 125.500 56.022 119 56.168 C 115.425 56.249, 110.282 56.581, 107.570 56.907 M 124 60.549 C 117.929 65.376, 109.920 73.282, 110.241 74.132 C 110.383 74.511, 113.369 76.927, 116.875 79.500 C 122.180 83.395, 123.469 83.955, 124.559 82.840 C 125.280 82.103, 129.474 76.554, 133.880 70.509 C 139.717 62.499, 141.534 59.319, 140.577 58.783 C 139.855 58.379, 136.842 57.806, 133.882 57.510 C 128.844 57.006, 128.212 57.201, 124 60.549 M 87.222 59.935 C 79.314 61.878, 77.150 63, 81.312 63 C 82.767 63, 86.901 63.966, 90.499 65.147 C 94.096 66.328, 97.231 67.103, 97.465 66.869 C 97.699 66.634, 98.317 64.543, 98.839 62.221 C 99.770 58.076, 99.740 58.001, 97.144 58.074 C 95.690 58.114, 91.225 58.952, 87.222 59.935 M 137.644 70.025 C 133.924 75.079, 131.030 79.363, 131.213 79.547 C 131.753 80.086, 141.258 74, 144.250 71.200 C 147.234 68.407, 147.743 65.399, 145.704 62.610 C 144.536 61.012, 143.742 61.742, 137.644 70.025 M 144.500 74.625 C 142.850 75.975, 138.881 78.575, 135.680 80.403 L 129.860 83.726 132.236 86.488 C 138.049 93.245, 148.737 85.745, 147.809 75.559 L 147.500 72.169 144.500 74.625 M 54.059 81 C 49.482 91.374, 50.242 111.350, 55.329 114.402 C 56.864 115.324, 57.691 114.890, 60.474 111.705 C 62.298 109.618, 64.803 105.202, 66.041 101.891 L 68.291 95.873 64.340 91.686 C 58.381 85.372, 57.660 84.183, 57.048 79.663 L 56.485 75.500 54.059 81 M 116.524 99.757 C 106.056 115.877, 99.969 129, 102.961 129 C 105.140 129, 112.784 123.070, 117.444 117.763 C 123.402 110.980, 128 101.838, 128 96.775 C 128 92.412, 126.555 88.996, 124.715 89.007 C 124.047 89.011, 120.361 93.849, 116.524 99.757" stroke="none" fill="black" fill-rule="evenodd"/>
</svg>