<svg xmlns="http://www.w3.org/2000/svg" width="200" height="200" viewBox="0 0 200 200" version="1.1">
	<path d="M 31.195 16.090 C 31.565 17.201, 34.791 17.559, 46.422 17.777 L 61.180 18.054 60.477 23.277 C 60.090 26.150, 59.689 28.598, 59.585 28.719 C 59.152 29.220, 38.472 20.687, 38.167 19.881 C 37.708 18.669, 33.262 18.768, 32.496 20.007 C 32.153 20.561, 32.577 21.284, 33.437 21.614 C 36.618 22.835, 35.005 55.949, 31.314 65.173 C 30.472 67.278, 29.592 69, 29.358 69 C 29.125 69, 26.593 67.814, 23.731 66.364 C 19.395 64.167, 18.768 64.042, 19.967 65.614 C 23.462 70.198, 25.467 72, 27.071 72 C 31.282 72, 36.981 82.072, 36.994 89.540 C 37.010 98.118, 30.828 113.321, 21.512 127.612 C 15.515 136.813, 15.020 139.170, 17.905 144.790 C 24.367 157.376, 42.272 153.434, 68.728 133.601 C 79.260 125.705, 84.676 120.536, 83.306 119.689 C 82.834 119.397, 80.518 119.673, 78.160 120.303 C 72.112 121.917, 67.414 119.329, 64 112.500 C 61.748 107.995, 61.500 106.305, 61.500 95.429 C 61.500 83.971, 61.653 83.059, 64.518 77.457 C 68.349 69.966, 72.517 67, 79.214 67 C 81.918 67, 85.050 67.492, 86.173 68.093 C 87.650 68.883, 88.517 68.883, 89.309 68.091 C 91.163 66.237, 83.397 59.407, 73.792 54.447 C 63.647 49.207, 62 46.972, 62 38.443 C 62 33.455, 62.207 32.869, 63.750 33.488 C 64.713 33.873, 72.250 36.798, 80.500 39.986 C 105.740 49.741, 103.685 48.627, 104.371 52.920 C 105.553 60.311, 116.120 71.492, 126.678 76.523 C 131.977 79.048, 141.737 81.596, 142.643 80.691 C 142.920 80.413, 142.439 78.816, 141.574 77.143 C 139.848 73.805, 139.508 67.326, 140.940 65.063 C 141.853 63.620, 144.197 64.311, 159.910 70.655 L 163.319 72.031 160.910 74.636 C 154.350 81.728, 143.554 83.383, 107.089 82.887 C 86.475 82.606, 78.572 82.812, 78.293 83.635 C 78.018 84.452, 85.438 84.982, 104.705 85.524 C 142.186 86.576, 153.909 84.812, 162.270 76.858 L 166.363 72.964 173.182 75.569 L 180 78.175 180 84.772 C 180 98.822, 173.556 104.973, 156.764 106.953 L 150.825 107.654 151.493 103.199 C 151.860 100.749, 152.415 98.081, 152.726 97.271 C 153.122 96.240, 152.735 95.904, 151.438 96.154 C 149.308 96.564, 147.004 102.996, 146.478 110 C 146.292 112.475, 143.380 125.975, 140.008 140 C 133.424 167.376, 130.902 173.721, 125 177.750 C 120.741 180.658, 113.223 180.771, 107.526 178.012 C 99.858 174.301, 91 163.583, 91 158.018 C 91 156.769, 92.024 155.491, 93.600 154.772 C 96.082 153.642, 99.577 154.221, 111.074 157.669 C 114.307 158.639, 116.347 115.356, 113.615 103.746 C 110.810 91.826, 103.848 85.995, 92.434 86.006 C 86.276 86.011, 79 87.545, 79 88.836 C 79 89.245, 83.838 89.561, 89.750 89.539 C 99.343 89.504, 100.841 89.743, 103.664 91.757 C 111.057 97.030, 113.745 110.385, 112.039 133.358 C 110.548 153.448, 110.356 154.339, 107.686 153.571 C 96.239 150.281, 90.953 150.815, 88.829 155.477 C 86.990 159.513, 89.295 165.124, 95.580 171.913 C 109.541 186.992, 125.530 186.784, 133.683 171.417 C 136.613 165.894, 138.702 158.162, 147.168 121.500 C 148.311 116.550, 149.642 112.002, 150.126 111.394 C 150.610 110.786, 153.817 110.018, 157.253 109.688 C 165.754 108.871, 172.084 106.524, 175.928 102.766 C 180.639 98.160, 182.243 94.361, 182.791 86.508 C 183.060 82.654, 183.750 79.197, 184.326 78.826 C 185.022 78.378, 184.908 77.594, 183.984 76.481 C 183.222 75.562, 181.836 71.810, 180.905 68.144 C 179.973 64.478, 177.564 57.078, 175.550 51.700 L 171.887 41.923 174.444 38.885 C 179.390 33.007, 176.784 27.536, 165.467 20.042 C 158.234 15.252, 154.011 13.591, 155.599 16.161 C 156.141 17.037, 148.995 17.161, 126.408 16.667 C 33.100 14.625, 30.704 14.611, 31.195 16.090 M 63.216 23.687 C 62.502 27.820, 62.528 29.698, 63.308 30.184 C 63.910 30.560, 73.348 34.317, 84.281 38.534 L 104.158 46.201 106.667 43.850 C 108.858 41.799, 110.088 41.518, 116.339 41.644 C 121.179 41.741, 125.677 42.588, 130.218 44.258 C 137.526 46.946, 138.036 46.805, 140.868 41.322 C 142.495 38.172, 141.400 36.380, 136.673 34.462 C 133.062 32.997, 129.337 32.818, 109 33.134 C 88.615 33.452, 85.500 33.301, 85.500 32 C 85.500 31.008, 88.574 29.434, 94.581 27.353 C 103.548 24.245, 103.730 24.225, 109.081 25.746 C 117.495 28.137, 135.027 27.854, 142.258 25.208 C 154.960 20.562, 154.319 20.285, 129.311 19.618 C 116.765 19.283, 96.987 18.753, 85.360 18.441 L 64.221 17.873 63.216 23.687 M 152.603 23.243 C 149.966 24.958, 144.408 27.342, 140.252 28.541 C 132.961 30.644, 132.818 30.743, 136.173 31.373 C 144.351 32.907, 146.492 39.886, 140.750 46.294 L 137.500 49.920 129 46.981 C 124.325 45.365, 118.558 44.033, 116.184 44.021 C 111.848 44, 108 45.354, 108 46.901 C 108 47.621, 138.816 60, 140.609 60 C 140.976 60, 143.127 58.297, 145.388 56.215 C 147.650 54.133, 153.550 50.009, 158.500 47.051 C 163.450 44.093, 167.671 41.539, 167.879 41.374 C 168.337 41.013, 162.085 27.769, 159.352 23.312 L 157.397 20.124 152.603 23.243 M 162 21.437 C 162 21.731, 163.893 25.788, 166.207 30.453 C 170.179 38.463, 170.514 38.845, 172.207 37.313 C 174.409 35.320, 174.506 32.167, 172.456 29.240 C 170.933 27.067, 162 20.400, 162 21.437 M 37.674 39.250 C 37.024 55.060, 36.124 60.859, 33.326 67.266 C 31.752 70.872, 31.768 71.127, 33.716 73.266 C 38.953 79.017, 40.593 87.272, 38.501 97.349 C 36.767 105.695, 30.297 119.557, 23.493 129.500 C 18.470 136.840, 17.993 139.152, 20.502 144.004 C 22.475 147.819, 24.829 149, 30.459 149 C 39.462 149, 52.008 142.930, 68.164 130.756 L 76.349 124.588 72.961 123.710 C 63.954 121.376, 59.041 113.116, 58.233 98.951 C 57.079 78.708, 66.002 64, 79.438 64 C 84.739 64, 83.166 62.430, 71.842 56.416 C 61.155 50.741, 59.073 47.672, 59.003 37.500 L 58.962 31.500 49.152 27.750 C 43.756 25.688, 39.108 24, 38.822 24 C 38.535 24, 38.019 30.863, 37.674 39.250 M 97.500 29 C 92.921 30.690, 92.761 30.852, 95.599 30.922 C 97.304 30.965, 102.254 30.698, 106.599 30.329 L 114.500 29.658 109 28.371 C 102.392 26.826, 103.567 26.761, 97.500 29 M 159.786 49.439 C 149.877 55.585, 144 59.887, 144 60.996 C 144 61.923, 161.956 68.563, 163.866 68.342 C 164.617 68.255, 168.217 69.461, 171.866 71.022 C 175.638 72.635, 178.655 73.426, 178.859 72.854 C 179.621 70.717, 170.588 43.976, 169.118 44.017 C 168.778 44.027, 164.579 46.466, 159.786 49.439 M 107.390 53.201 C 108.805 60.273, 118.074 69.333, 129.187 74.507 C 136.955 78.123, 137.500 77.943, 137.500 71.750 C 137.500 68.863, 137.830 65.600, 138.233 64.500 C 138.897 62.688, 137.454 61.921, 122.876 56.338 L 106.785 50.176 107.390 53.201" stroke="none" fill="black" fill-rule="evenodd"/>
</svg>