<svg xmlns="http://www.w3.org/2000/svg" width="200" height="200" viewBox="0 0 200 200" version="1.1">
	<path d="M 77.419 16.750 C 78.626 22.498, 75.546 23.762, 57.322 25 C 49.170 25.554, 39.299 26.697, 35.386 27.541 C 17.443 31.412, 9.792 43.258, 12.975 62.242 C 14.556 71.669, 14.596 74.303, 13.504 97.008 C 12.378 120.425, 14.686 132.768, 21.728 140.995 C 28.430 148.825, 37.792 150.833, 51.521 147.384 C 57.734 145.824, 57.974 145.645, 58.586 142.134 C 60.265 132.500, 65.127 109.912, 66.552 105.126 C 67.440 102.142, 68.528 100.140, 68.998 100.626 C 69.464 101.107, 71.643 107.800, 73.840 115.500 C 78.628 132.281, 81.047 138.860, 84.864 145.472 L 87.733 150.444 80.867 164.340 C 71.739 182.813, 71.737 187.514, 80.857 185.026 C 82.861 184.479, 94.151 180.850, 105.946 176.961 L 127.392 169.890 136.446 172.446 C 164.739 180.434, 179 181.084, 179 174.386 C 179 171.903, 170.325 163.471, 160.998 156.889 L 152.135 150.633 157.035 145.271 C 159.730 142.322, 163.638 136.466, 165.718 132.257 C 169.336 124.936, 169.500 124.167, 169.500 114.552 C 169.500 105.421, 169.251 104.077, 166.788 99.887 C 165.297 97.350, 162.533 93.919, 160.647 92.263 L 157.217 89.252 161.125 88.081 C 172.272 84.741, 181 68.005, 181 49.971 C 181 30.226, 171.201 18.824, 155.527 20.333 C 145.964 21.253, 140.340 23.585, 139.100 27.144 C 138.523 28.797, 137.618 29.882, 137.087 29.554 C 136.557 29.226, 135.683 29.744, 135.146 30.704 C 134.054 32.655, 133.570 32.473, 122.500 25.955 C 115.712 21.958, 103.832 18.279, 90.171 15.944 C 75.993 13.520, 76.730 13.473, 77.419 16.750 M 79.985 19.205 C 79.946 24.972, 75.238 26.679, 55.778 27.981 C 32.256 29.555, 24.060 32.419, 18.340 41.062 C 14.856 46.328, 14.049 57.272, 16.404 67.318 C 17.752 73.065, 17.827 75.629, 16.882 83.641 C 15.235 97.603, 16.216 121.916, 18.739 129.682 C 22.629 141.652, 28.361 146.029, 40 145.918 C 44.125 145.879, 49.273 145.312, 51.440 144.658 L 55.380 143.470 58.664 127.078 C 62.792 106.480, 64.437 100.819, 66.958 98.538 C 69.865 95.907, 71.565 97.784, 74.051 106.366 C 81.269 131.284, 87.036 147, 88.963 147 C 89.742 147, 90.952 144.583, 100.148 124.650 C 106.883 110.052, 107.909 107, 106.081 107 C 103.804 107, 93.877 96.449, 91.410 91.406 C 89.113 86.711, 88.803 85.042, 89.233 79.686 C 89.780 72.875, 92.317 66.986, 97.006 61.646 C 100.238 57.965, 100.627 57, 98.877 57 C 98.260 57, 92.972 54.589, 87.127 51.643 C 69.888 42.952, 66.989 43.084, 70.139 52.417 C 71.965 57.827, 74.257 70.882, 75.464 82.750 C 75.993 87.950, 75.844 89, 74.582 89 C 71.777 89, 65 62.901, 65 52.101 C 65 48.929, 64.718 46.051, 64.373 45.707 C 63.387 44.720, 58.176 47.796, 53.443 52.159 C 49.984 55.347, 48.606 57.691, 46.582 63.825 C 41.608 78.897, 41.006 83.128, 42.678 91.241 C 44.280 99.012, 49.563 112.758, 53.665 119.829 C 55.046 122.209, 55.934 124.399, 55.638 124.696 C 55.341 124.992, 53.143 125.455, 50.753 125.724 C 47.088 126.138, 45.907 125.793, 43.207 123.521 C 38.190 119.299, 36.613 112.326, 37.333 97.555 C 38.775 67.979, 39.172 66.319, 48.122 52.470 C 54.411 42.739, 57.196 40.422, 61.594 41.263 C 63.126 41.556, 66.134 41.014, 68.420 40.034 C 72.250 38.392, 85.804 34.989, 94.250 33.549 C 97.130 33.058, 98 33.240, 98 34.337 C 98 35.347, 95.300 36.261, 88.750 37.468 C 83.662 38.406, 77.025 39.988, 74 40.984 L 68.500 42.795 72.265 42.897 C 74.720 42.964, 80.197 45.089, 88 49 C 99.671 54.851, 103.286 55.965, 104.455 54.073 C 104.770 53.563, 106.875 51.683, 109.132 49.895 L 113.237 46.644 112.511 50.072 C 111.605 54.346, 108.349 58, 105.447 58 C 102.941 58, 96.042 66.262, 93.532 72.268 C 91.347 77.499, 91.583 85.506, 94.073 90.651 C 96.187 95.018, 106.495 105.335, 108.183 104.772 C 108.695 104.602, 109.966 102.558, 111.008 100.231 L 112.902 96 107.878 96 C 103.636 96, 102.904 95.727, 103.177 94.250 C 103.392 93.083, 105.566 91.851, 109.698 90.553 C 115.612 88.696, 115.991 88.380, 117.948 83.670 C 120.475 77.591, 120.476 77.358, 118 76.710 C 114.994 75.924, 115.489 74.630, 121.500 67.544 C 124.525 63.978, 127 60.832, 127 60.554 C 127 60.275, 125.035 57.118, 122.634 53.537 C 117.036 45.191, 115.079 38.725, 117.078 35.186 C 117.860 33.802, 120.075 32.139, 122 31.490 L 125.500 30.309 121.019 28.017 C 112.339 23.575, 100.851 20.341, 83.750 17.527 C 80.329 16.964, 79.999 17.111, 79.985 19.205 M 147.500 24.666 C 141.576 26.475, 142.305 25.938, 141.518 29.072 C 140.948 31.343, 141.343 31.851, 144.943 33.474 C 152.876 37.052, 152.547 39.872, 144.480 37.444 C 141.224 36.464, 139.287 36.313, 138.614 36.986 C 138.062 37.538, 137.717 41.351, 137.848 45.459 C 138.136 54.468, 135.835 60.669, 129.171 68.850 C 126.764 71.806, 123.496 77.373, 121.909 81.220 L 119.024 88.216 122.762 87.629 C 124.818 87.307, 134.294 86.742, 143.820 86.374 C 163.648 85.609, 165.042 85.104, 170.740 76.625 C 177.268 66.911, 180.217 49.332, 177.153 38.401 C 173.515 25.422, 162.196 20.179, 147.500 24.666 M 120.200 35.200 C 118.334 37.066, 118.770 40.657, 121.547 46.313 C 125.005 53.353, 127.774 56.822, 128.750 55.334 C 129.171 54.692, 130.599 51.042, 131.923 47.221 L 134.332 40.275 132.098 37.137 C 130.196 34.467, 129.234 34, 125.632 34 C 123.304 34, 120.860 34.540, 120.200 35.200 M 134.500 36 C 134.840 36.550, 135.316 37, 135.559 37 C 135.802 37, 136 36.550, 136 36 C 136 35.450, 135.523 35, 134.941 35 C 134.359 35, 134.160 35.450, 134.500 36 M 56.507 44.989 C 56.157 45.555, 56.558 45.723, 57.448 45.382 C 59.180 44.717, 59.497 44, 58.059 44 C 57.541 44, 56.843 44.445, 56.507 44.989 M 132.772 52.750 C 130.060 60.062, 130.229 63.409, 133.033 57.900 C 134.698 54.627, 136.651 46, 135.726 46 C 135.479 46, 134.150 49.038, 132.772 52.750 M 68.159 58.500 C 68.177 59.600, 68.792 62.750, 69.526 65.500 L 70.860 70.500 70.291 65.500 C 69.979 62.750, 69.364 59.600, 68.925 58.500 L 68.127 56.500 68.159 58.500 M 128.872 63.750 C 127.629 65.336, 127.664 65.371, 129.250 64.128 C 130.916 62.821, 131.445 62, 130.622 62 C 130.415 62, 129.627 62.788, 128.872 63.750 M 121.564 71.707 C 121.022 73.132, 121.136 73.247, 122.124 72.267 C 122.808 71.588, 123.115 70.781, 122.807 70.474 C 122.499 70.166, 121.940 70.721, 121.564 71.707 M 139 91.109 C 134.875 92.148, 128.125 93.561, 124 94.249 L 116.500 95.500 113.832 100.978 C 112.364 103.991, 111.342 106.745, 111.561 107.098 C 112.260 108.229, 123.843 112.219, 125.157 111.781 C 125.882 111.539, 124.761 110.230, 122.533 108.716 C 119.462 106.629, 118.989 105.942, 120.282 105.445 C 122.439 104.618, 133.333 112.240, 134.896 115.670 C 136.650 119.521, 134.200 122.566, 127.821 124.460 C 124.970 125.307, 121.819 126, 120.818 126 C 119.818 126, 119 126.388, 119 126.863 C 119 127.338, 122.938 128.500, 127.750 129.446 C 146.281 133.087, 146.194 133.061, 144.895 134.627 C 144.237 135.420, 141.335 137.482, 138.446 139.210 L 133.193 142.352 141.346 145.685 L 149.500 149.018 154.900 143.302 C 166.758 130.748, 170.788 113.160, 164.565 101.125 C 162.786 97.685, 155.753 91.237, 152.383 89.955 C 149.165 88.732, 148.058 88.828, 139 91.109 M 121 91 C 117.626 91.710, 117.608 91.737, 120.500 91.750 C 122.150 91.757, 124.850 91.420, 126.500 91 C 129.162 90.323, 129.218 90.238, 127 90.250 C 125.625 90.257, 122.925 90.595, 121 91 M 39.749 98.159 C 39.427 100.141, 39.563 104.853, 40.049 108.631 C 40.536 112.409, 40.949 115.803, 40.967 116.173 C 40.985 116.544, 42.165 118.231, 43.589 119.923 C 45.363 122.032, 47.073 123, 49.024 123 L 51.870 123 48.287 115.250 C 46.316 110.987, 43.721 104.588, 42.519 101.028 L 40.334 94.556 39.749 98.159 M 107.355 115.641 C 105.906 118.863, 101.610 128.025, 97.808 136 L 90.896 150.500 93.504 152.750 C 94.938 153.988, 97.324 155.013, 98.806 155.029 C 100.288 155.045, 106.503 156.306, 112.617 157.832 C 122.895 160.396, 124.157 160.509, 129.344 159.331 C 135.267 157.986, 144.379 153.813, 145.557 151.907 C 146.486 150.405, 144.810 149.434, 136.763 146.811 C 130.639 144.814, 129.564 144.734, 124.928 145.922 C 121.300 146.852, 119.519 146.919, 118.757 146.157 C 116.868 144.268, 119.866 142, 124.251 142 C 126.891 142, 130.088 140.952, 133.628 138.927 C 138.909 135.906, 140.421 134, 137.538 134 C 134.167 134, 115.868 129.623, 114.254 128.431 C 111.608 126.476, 113.577 125.188, 122.437 123.077 C 131.416 120.938, 133.750 119.271, 132.096 116.180 C 131.223 114.549, 130.327 114.235, 127.736 114.655 C 124.886 115.118, 119.615 113.750, 111.745 110.506 C 110.318 109.918, 109.495 110.881, 107.355 115.641 M 83.203 165.851 C 75.774 181.321, 75.229 183.012, 77.683 182.966 C 78.682 182.947, 89.350 179.636, 101.388 175.609 C 119.498 169.550, 122.795 168.165, 120.488 167.586 C 114.619 166.113, 99.279 159.572, 94.389 156.458 L 89.278 153.202 83.203 165.851 M 145.718 155.139 C 144.187 156.280, 140.021 158.443, 136.460 159.946 L 129.984 162.678 135.492 163.911 C 138.521 164.589, 141 165.516, 141 165.972 C 141 166.428, 139.313 167.216, 137.250 167.722 L 133.500 168.643 139.467 170.412 C 150.751 173.759, 162.512 175.957, 169.250 175.978 C 176.490 176.002, 177.386 175.193, 174.217 171.500 C 169.826 166.384, 151.867 152.958, 149.513 153.032 C 148.956 153.049, 147.248 153.997, 145.718 155.139 M 120 163.842 C 120 164.748, 126.679 167, 129.366 167 C 132.578 167, 130.921 165.394, 126.486 164.207 C 121.143 162.778, 120 162.714, 120 163.842" stroke="none" fill="black" fill-rule="evenodd"/>
</svg>