<svg xmlns="http://www.w3.org/2000/svg" width="200" height="200" viewBox="0 0 200 200" version="1.1">
	<path d="M 41.930 17.437 C 36.338 20.566, 34.057 30.313, 34.024 51.220 L 34 66.940 30.297 64.427 C 26.246 61.678, 22.699 61.560, 22.205 64.158 C 22.031 65.070, 24.114 71.425, 26.835 78.279 C 35.223 99.415, 36.602 109.971, 31.962 117.538 C 30.124 120.535, 23.518 124.986, 20.864 125.015 C 18.019 125.047, 17.143 126.737, 16.106 134.193 C 14.211 147.818, 17.067 155.013, 24.361 154.990 C 28.627 154.977, 35.199 151.768, 50 142.472 C 72.715 128.205, 80.630 126.637, 84.084 135.720 C 85.998 140.755, 85.133 144.075, 80.134 150.878 C 71.811 162.205, 66.066 171.401, 65.777 173.859 C 65.178 178.962, 67.913 178.613, 82.574 171.719 C 99.122 163.936, 106.179 161.750, 114.745 161.750 C 120.220 161.750, 121.029 161.521, 120.488 160.125 C 115.496 147.246, 112.861 129.982, 114.930 123.712 C 118.013 114.370, 126.636 120.418, 128.527 133.249 C 129.594 140.488, 127.342 149.982, 122.114 160.287 C 117.873 168.647, 117.007 169.694, 111.743 172.817 C 108.584 174.691, 106 176.849, 106 177.612 C 106 179.770, 111.340 179.330, 126.143 175.953 C 152.674 169.900, 165.591 168.745, 171.790 171.872 C 173.830 172.901, 176.573 174.076, 177.884 174.481 C 180.212 175.203, 180.229 175.165, 178.618 172.860 C 177.712 171.562, 175.104 169.600, 172.825 168.500 C 170.546 167.400, 167.740 165.228, 166.590 163.674 C 163.221 159.117, 163.896 148.452, 168.534 133 C 173.772 115.545, 175.987 106.164, 175.970 101.500 C 175.955 97.092, 173.244 90.267, 170.658 88.128 C 168.142 86.045, 168.575 81.723, 173.561 59.148 C 180.389 28.233, 180.575 20.310, 174.334 26.145 C 171.657 28.647, 158.628 54.548, 150.008 74.500 C 147.156 81.100, 144.702 86.623, 144.555 86.774 C 144.407 86.924, 141.072 85.801, 137.143 84.278 C 128.985 81.115, 129.243 81.814, 131.500 69 C 133.402 58.203, 133.394 55.088, 131.463 54.347 C 130.617 54.023, 129.042 54.557, 127.963 55.534 C 125.595 57.677, 125.596 57.704, 127.607 48.697 C 129.239 41.390, 131 37.767, 131 41.718 C 131 50.022, 134.676 48.680, 143.216 37.258 C 147.946 30.931, 152.224 26.389, 155.418 24.304 C 162.278 19.824, 163.691 18.291, 162.269 16.869 C 161.408 16.008, 159.805 16.671, 155.823 19.531 C 146.200 26.445, 135.096 28.054, 112 25.880 C 104.025 25.129, 94.125 24.511, 90 24.507 C 83 24.500, 82.479 24.649, 82.183 26.731 C 81.971 28.225, 83.082 30.205, 85.552 32.731 L 89.238 36.500 88.672 46 C 88.006 57.190, 84.647 70.244, 78.588 85.192 C 75.390 93.083, 74.593 96.013, 75.545 96.379 C 76.254 96.651, 77.055 96.340, 77.325 95.687 C 86.899 72.518, 90.704 59.166, 91.654 45.408 L 92.281 36.317 88.640 32.287 C 86.638 30.071, 85 27.909, 85 27.482 C 85 27.055, 89.162 26.972, 94.250 27.297 C 104.622 27.960, 129.407 30.092, 129.671 30.345 C 129.765 30.435, 128.735 34.332, 127.381 39.004 C 126.027 43.677, 124.315 50.986, 123.575 55.247 C 122.352 62.293, 121.725 63.619, 116.648 69.903 C 107.039 81.796, 100.578 86.182, 91.500 86.976 C 84.322 87.603, 83.563 89.376, 90.287 89.806 C 99 90.364, 108.714 84.138, 118.815 71.522 L 122 67.544 122.021 75.522 C 122.032 79.910, 122.625 86.282, 123.337 89.681 L 124.633 95.863 107.066 95.364 C 88.244 94.829, 80.705 95.867, 78.599 99.283 C 77.720 100.709, 78.164 102.269, 80.823 107.093 C 84.748 114.214, 84.347 115.225, 76.699 117.497 C 58.587 122.875, 57.275 116.110, 69.521 80.484 C 72.761 71.059, 75 62.828, 75 60.344 C 75 56.048, 73.103 53, 70.429 53 C 69.519 53, 69 51.947, 69 50.105 C 69 45.052, 65.188 34.715, 60.934 28.232 C 54.325 18.162, 47.532 14.303, 41.930 17.437 M 42.724 20.250 C 38.109 23.728, 35.639 39.923, 36.676 59.889 C 37.226 70.484, 37.113 72.150, 35.891 71.389 C 35.105 70.900, 32.549 69.197, 30.211 67.604 C 27.872 66.011, 25.711 64.956, 25.408 65.259 C 25.104 65.563, 26.868 70.916, 29.328 77.155 C 31.788 83.395, 34.521 90.944, 35.400 93.932 C 37.228 100.137, 37.508 111.524, 35.936 115.685 C 34.307 119.998, 30.031 124.020, 24.374 126.562 L 19.248 128.865 18.556 136.240 C 17.476 147.769, 19.045 152.015, 24.372 151.978 C 28.692 151.948, 33.592 149.552, 48.914 139.978 C 63.271 131.008, 71.729 127.061, 76.673 127.024 C 82.741 126.978, 87.977 133.930, 87.994 142.057 C 87.998 143.645, 85.170 148.574, 80.537 155.057 C 76.433 160.801, 71.879 167.685, 70.418 170.355 L 67.760 175.211 70.130 174.473 C 71.434 174.067, 76.775 171.608, 82 169.009 C 94.447 162.817, 103.061 159.898, 110.803 159.247 C 116.078 158.804, 117.002 158.455, 116.467 157.109 C 114.749 152.779, 111.912 139.868, 111.398 134.042 C 110.705 126.196, 112.345 120.548, 116.130 117.740 C 119.369 115.337, 122.331 116.072, 126.231 120.247 L 129.002 123.214 130.979 118.857 C 133.466 113.375, 133.466 112.463, 130.973 108.962 C 129.858 107.397, 128.304 104.579, 127.519 102.700 C 126.258 99.681, 125.548 99.210, 121.406 98.642 C 118.829 98.289, 110.101 98, 102.010 98 C 88.091 98, 81 99.051, 81 101.113 C 81 101.618, 82.397 104.506, 84.105 107.531 C 87.088 112.817, 87.144 113.131, 85.552 115.561 C 83.700 118.387, 80.932 119.663, 73.316 121.202 C 67.333 122.411, 63.767 121.767, 60.975 118.975 C 59.407 117.407, 59 115.638, 59 110.386 C 59 104.954, 60.150 100.265, 65.436 84.136 C 71.505 65.618, 72.379 62.150, 72.111 57.639 C 72.018 56.080, 71.454 55.880, 68.645 56.407 L 65.290 57.036 65.764 52.101 C 66.388 45.613, 63.872 37.755, 58.618 29.779 C 52.683 20.771, 46.751 17.214, 42.724 20.250 M 137.750 28.735 L 133 29.110 133.015 35.305 C 133.039 44.972, 133.912 45.124, 140.340 36.583 C 143.453 32.447, 146 28.824, 146 28.532 C 146 28.239, 145.213 28.081, 144.250 28.180 C 143.287 28.279, 140.363 28.529, 137.750 28.735 M 171.605 35.250 C 167.602 42.413, 161.367 55.620, 152.873 74.930 C 148.375 85.156, 147.268 88.564, 148.233 89.214 C 148.930 89.683, 150.315 90.532, 151.311 91.101 C 152.387 91.716, 152.995 93.013, 152.811 94.298 C 152.509 96.400, 150.884 97.248, 144.840 98.460 C 142.631 98.902, 141.714 100.178, 139.441 105.973 L 136.702 112.953 140.915 117.524 C 146.739 123.842, 146.185 125.281, 137.493 126.404 C 133.647 126.901, 130.436 127.351, 130.358 127.404 C 130.280 127.457, 130.569 129.750, 131 132.500 C 131.923 138.389, 130.731 146.972, 127.962 154.373 C 125.102 162.017, 118.979 171.706, 115.500 174.093 C 113.479 175.480, 113.153 175.983, 114.500 175.636 C 123.675 173.268, 146.395 168.902, 154.640 167.922 L 164.780 166.717 163.279 163.125 C 160.199 155.755, 161.357 147.093, 168.642 123 C 174.256 104.434, 174.209 95.363, 168.471 89.973 C 165.063 86.771, 165.234 84.280, 170.497 60.352 C 174.988 39.931, 176.798 29, 175.687 29 C 175.363 29, 173.526 31.813, 171.605 35.250 M 127.236 60.337 C 125.390 63.050, 124.957 65.095, 124.892 71.405 C 124.819 78.543, 125.285 81.049, 126.465 79.868 C 127.253 79.080, 130.144 61.013, 129.813 58.951 C 129.548 57.306, 129.154 57.518, 127.236 60.337 M 125.019 84.250 C 125.030 84.938, 125.620 87.750, 126.331 90.500 L 127.624 95.500 134.173 95.793 C 140.648 96.082, 140.737 96.050, 141.996 93.010 C 142.696 91.319, 143.096 89.800, 142.885 89.633 C 142.148 89.054, 126.495 82.989, 125.750 82.995 C 125.338 82.998, 125.009 83.563, 125.019 84.250 M 144.949 93.096 C 143.559 95.693, 143.830 95.952, 147.250 95.295 C 150.508 94.669, 150.701 93.919, 148.030 92.251 C 146.348 91.200, 145.897 91.324, 144.949 93.096 M 129.017 99.750 C 129.026 100.162, 130.313 102.673, 131.877 105.329 L 134.720 110.157 136.470 105.829 C 137.432 103.448, 138.443 100.938, 138.717 100.250 C 139.075 99.348, 137.791 99, 134.107 99 C 131.298 99, 129.008 99.338, 129.017 99.750 M 133.691 119.523 C 132.761 121.472, 132 123.278, 132 123.534 C 132 124.375, 140.869 124.021, 141.402 123.158 C 141.688 122.696, 140.450 120.890, 138.652 119.147 L 135.381 115.977 133.691 119.523" stroke="none" fill="black" fill-rule="evenodd"/>
</svg>