<svg xmlns="http://www.w3.org/2000/svg" width="200" height="200" viewBox="0 0 200 200" version="1.1">
	<path d="M 52.503 9.500 C 44.842 29.305, 44.752 29.473, 31.447 49.095 C 21.560 63.675, 20.036 67.763, 21.922 74.637 C 23.087 78.886, 24.631 81.397, 30.250 88.180 C 33.789 92.451, 33.999 93.095, 33.985 99.603 C 33.968 107.465, 32.641 113.684, 27.498 130 C 22.372 146.262, 21.615 150.764, 23.517 153.667 C 26.446 158.137, 34.169 155.875, 49.500 146.056 C 53.086 143.760, 57.323 141.958, 60.033 141.578 C 69.491 140.252, 74.730 134.341, 73.620 126.246 C 73.287 123.817, 70.466 115.455, 67.350 107.665 C 61.056 91.924, 59.930 85.969, 62.361 81.268 C 65.565 75.073, 80.506 70.935, 94.271 72.429 C 100.851 73.143, 101.098 73.272, 102.996 76.993 L 104.950 80.822 102.225 81.775 C 100.726 82.299, 96.013 84.181, 91.750 85.957 C 85.639 88.504, 84 89.622, 84 91.245 C 84 93.256, 84.319 93.288, 97.482 92.628 C 104.897 92.256, 111.535 91.742, 112.232 91.486 C 114.874 90.517, 115.714 92.800, 116.286 102.500 L 116.876 112.500 114.688 109.500 C 110.395 103.614, 103.386 97.135, 100.537 96.420 C 96.131 95.314, 90.319 98.971, 84.859 106.284 C 71.400 124.313, 72.719 133.987, 88.640 133.996 C 93.907 133.999, 106.926 132.102, 113.500 130.374 C 116.268 129.646, 111.889 132.667, 98.821 140.500 C 88.995 146.389, 87.877 146.825, 84.827 145.951 C 83.005 145.428, 80.723 145, 79.757 145 C 76.951 145, 77.700 148.391, 80.925 150.297 C 83.326 151.715, 84.312 151.815, 86.422 150.853 C 88.602 149.861, 90.101 150.111, 96.247 152.492 C 110.775 158.122, 125.531 166.544, 130.669 172.139 C 131.861 173.437, 133.211 175.965, 133.669 177.755 C 135.057 183.189, 136.524 181.003, 136.189 174 C 135.911 168.187, 136.199 166.998, 138.915 162.753 C 143.811 155.101, 156.078 148.488, 172.750 144.513 C 177.700 143.333, 180 142.316, 180 141.307 C 180 140.029, 177.407 139.927, 160.846 140.558 L 141.692 141.287 142.298 137.551 C 143.169 132.183, 146.857 127.912, 158.029 119.330 C 163.445 115.170, 168.102 111.177, 168.378 110.457 C 168.655 109.736, 168.205 108.585, 167.380 107.900 C 166.185 106.909, 163.736 106.903, 155.405 107.872 C 149.645 108.541, 144.333 109.319, 143.602 109.599 C 142.653 109.963, 142.085 108.697, 141.617 105.172 C 141.175 101.838, 140.147 99.420, 138.451 97.724 L 135.941 95.213 144.220 94.491 C 164.398 92.730, 180.254 85.625, 175.850 80.319 C 174.784 79.035, 172.639 78.839, 163.479 79.189 L 152.398 79.613 158.387 75.557 C 166.216 70.253, 168.706 66.899, 167.444 63.354 C 166.185 59.819, 162.414 57.154, 156.562 55.661 L 151.751 54.433 161.625 51.648 C 174.025 48.151, 180.306 45.421, 179.758 43.767 C 179.455 42.849, 175.016 42.345, 163.656 41.936 C 154.863 41.620, 147.513 40.913, 146.926 40.326 C 145.368 38.768, 150.751 34.662, 160.601 29.894 C 165.220 27.658, 169 25.440, 169 24.965 C 169 24.007, 163.774 19.908, 160.197 18.062 C 158.931 17.408, 156.135 16.849, 153.985 16.819 C 147.824 16.734, 142.041 20.854, 133.364 31.508 C 129.123 36.715, 124.747 41.263, 123.639 41.615 C 119.553 42.912, 116.427 35.858, 113.287 18.250 C 112.189 12.093, 111.197 9, 110.319 9 C 108.650 9, 108.593 7.475, 111.504 40.500 C 114.555 75.101, 114.524 73.351, 112.066 72.035 C 111.002 71.466, 108.977 71, 107.566 71 C 105.028 71, 101 67.933, 101 66 C 101 65.450, 101.592 65, 102.316 65 C 104.074 65, 108 57.877, 108 54.686 C 108 51.744, 104.335 48.452, 99.998 47.500 C 96.882 46.815, 96.523 46.111, 95.513 38.683 C 95.023 35.080, 95.264 33.246, 96.470 31.405 C 98.253 28.684, 97.744 26.777, 95.468 27.651 C 94.257 28.116, 94 26.884, 94 20.607 C 94 14.394, 93.715 13, 92.446 13 C 91.121 13, 90.918 14.665, 91.071 24.250 C 91.169 30.438, 90.919 37.443, 90.514 39.817 C 89.889 43.479, 90.107 44.485, 91.951 46.448 C 93.780 48.395, 96.841 57.676, 96.964 61.649 C 97.020 63.452, 84.084 64.367, 77.589 63.019 C 70.780 61.605, 66.666 58.350, 64.575 52.722 C 63.712 50.400, 61.659 41.937, 60.013 33.916 C 56.160 15.142, 53.574 6.733, 52.503 9.500 M 49.641 24.086 C 48.069 27.969, 41.829 38.517, 35.774 47.526 C 26.884 60.752, 24.668 64.767, 24.260 68.384 C 23.630 73.972, 26.068 79.353, 32.608 86.813 L 37.266 92.127 36.735 101.313 C 36.362 107.769, 35.131 114.067, 32.596 122.500 C 25.437 146.308, 24.455 150.639, 25.839 152.306 C 27.900 154.790, 34.928 152.079, 47.552 143.930 C 51.179 141.588, 55.763 139.614, 58.993 139.001 C 72.818 136.379, 73.968 130.756, 65.066 109.315 C 56.585 88.889, 56.282 82.472, 63.498 76.136 C 68.721 71.550, 75.619 69.850, 88.657 69.935 C 99.346 70.004, 99.793 69.923, 99.291 68.004 C 98.805 66.146, 97.932 66, 87.351 66 C 71.972 66, 67.056 63.945, 62.884 55.772 C 61.447 52.955, 54 20.937, 54 17.573 C 54 17.258, 53.663 17.006, 53.250 17.012 C 52.837 17.019, 51.214 20.202, 49.641 24.086 M 147.514 21.240 C 145.321 22.510, 140.146 27.658, 136.014 32.681 C 124.530 46.640, 120.245 47.912, 115.846 38.669 L 113.861 34.500 114.362 40.500 C 114.637 43.800, 115.648 56.272, 116.607 68.215 L 118.352 89.930 122.926 90.715 C 125.442 91.147, 132.900 91.458, 139.500 91.407 C 152.468 91.307, 164.523 88.793, 171.041 84.829 C 174.058 82.994, 174.208 82.696, 172.572 81.780 C 170.332 80.527, 160.220 81.431, 146 84.156 C 140.225 85.262, 135.106 86.242, 134.625 86.334 C 134.144 86.425, 133.560 85.985, 133.327 85.356 C 133.082 84.693, 135.973 83.064, 140.202 81.483 C 156.028 75.566, 165.823 68.414, 164.627 63.649 C 163.587 59.505, 157.039 57.671, 145.296 58.232 C 139.908 58.489, 134.713 59.041, 133.750 59.457 C 132.505 59.995, 132 59.761, 132 58.646 C 132 57.645, 133.539 56.665, 136.250 55.941 C 149.746 52.332, 171.361 45.892, 172.809 45.047 C 173.986 44.361, 170.641 44.052, 161.815 44.030 C 148.488 43.998, 144.695 43.254, 143.622 40.458 C 142.683 38.011, 148.235 33.153, 157.489 28.323 L 165.210 24.293 161.646 22.090 C 156.278 18.773, 152.199 18.527, 147.514 21.240 M 98.624 56.202 C 99.420 59.613, 100.229 62.562, 100.422 62.755 C 101.328 63.661, 105 57.412, 105 54.963 C 105 52.758, 104.360 51.973, 101.851 51.098 C 100.119 50.494, 98.359 50, 97.939 50 C 97.520 50, 97.828 52.791, 98.624 56.202 M 105.500 76 C 107.317 79.513, 107.982 79.645, 111.114 77.109 L 113.449 75.218 109.475 74.115 C 103.908 72.569, 103.762 72.638, 105.500 76 M 111.765 79.900 L 109.030 81.655 112.015 84.514 L 115 87.374 115 82.687 C 115 80.109, 114.888 78.033, 114.750 78.073 C 114.612 78.113, 113.269 78.936, 111.765 79.900 M 97.500 86.542 L 89.500 89.907 94.603 89.953 C 97.410 89.979, 102.493 89.709, 105.899 89.353 L 112.092 88.705 109.359 85.853 C 107.856 84.284, 106.373 83.040, 106.063 83.089 C 105.753 83.138, 101.900 84.692, 97.500 86.542 M 118.783 104.181 C 118.427 118.399, 117.402 118.999, 110.563 108.989 C 101.677 95.985, 95.510 95.821, 86.568 108.353 C 81.726 115.139, 78.058 122.391, 78.022 125.250 C 78.010 126.213, 78.900 127.900, 80 129 C 82.719 131.719, 91.988 131.679, 106.827 128.886 C 115.653 127.225, 118.413 127.020, 119.327 127.959 C 120.941 129.617, 116.759 133.008, 102.845 141.326 C 94.168 146.514, 92.153 148.112, 93.621 148.640 C 106.567 153.300, 118.582 159.367, 126.673 165.332 L 132.845 169.882 133.956 166.697 C 137.019 157.909, 145.185 151.072, 158.808 145.890 L 166.500 142.964 153.316 143.590 L 140.131 144.216 139.499 140.847 C 138.191 133.873, 143.038 127.056, 156.281 117.246 C 164.004 111.524, 165.029 110.448, 163.030 110.159 C 160.918 109.853, 148.982 111.283, 141.750 112.708 C 139.065 113.237, 139 113.140, 139 108.575 C 139 100.909, 137.055 98.404, 129.244 96.010 C 125.535 94.873, 121.727 93.705, 120.783 93.415 C 119.242 92.940, 119.038 94.041, 118.783 104.181" stroke="none" fill="black" fill-rule="evenodd"/>
</svg>