<svg xmlns="http://www.w3.org/2000/svg" width="200" height="200" viewBox="0 0 200 200" version="1.1">
	<path d="M 30.737 12.750 C 30.528 13.162, 30.279 14.764, 30.185 16.308 C 30.090 17.853, 29.085 22.749, 27.952 27.188 C 20.730 55.474, 18.407 77.310, 21.406 88.725 C 25.713 105.116, 27.819 136.330, 26.108 158.404 C 25.349 168.200, 24.583 172.803, 23.515 173.983 C 22.682 174.904, 22 176.185, 22 176.829 C 22 178.890, 25.146 178.084, 27.176 175.503 C 30.553 171.210, 42.018 165.222, 55.009 160.967 C 69.347 156.271, 71.338 155.181, 73.612 150.783 C 75.767 146.616, 74.998 131.095, 72.045 119.144 C 69.759 109.894, 69.613 111.147, 75.251 91.500 C 77.725 82.878, 78.546 81.040, 79.046 83 C 79.398 84.375, 79.462 99.649, 79.189 116.942 L 78.694 148.385 83.097 144.825 C 89.068 139.997, 100.978 132.337, 103.798 131.509 L 106.096 130.835 104.495 134.667 C 102.281 139.970, 98.921 145.611, 90 159 C 79.844 174.244, 77 179.239, 77 181.838 C 77 184.822, 79.676 184.618, 84.704 181.250 C 86.963 179.738, 92.425 176.112, 96.844 173.193 C 112.416 162.906, 121.919 149.734, 126.027 132.740 C 127.880 125.076, 128.352 119.401, 130.642 77.184 C 130.950 71.510, 131.494 67.160, 131.851 67.517 C 132.208 67.874, 132.815 92.991, 133.200 123.333 C 133.585 153.675, 134.197 180.188, 134.559 182.250 C 135.506 187.633, 137.522 186.893, 140.008 180.250 C 146.137 163.867, 151.733 156.354, 165 146.694 C 170.758 142.501, 175.221 135.669, 178.818 125.540 L 181.673 117.500 180.986 82.500 C 180.227 43.862, 179.708 40.457, 173.834 35.514 C 168.823 31.298, 159.887 32.672, 150.954 39.033 L 148.053 41.099 136.776 38.478 C 130.574 37.037, 124.892 35.661, 124.150 35.422 C 123.288 35.143, 124.644 33.328, 127.900 30.400 C 133.203 25.632, 134.104 23.638, 131.418 22.607 C 128.689 21.560, 118.092 22.016, 101.165 23.910 L 84.830 25.738 73.177 22.793 C 66.768 21.173, 61.294 19.530, 61.012 19.141 C 60.730 18.751, 59.375 18.406, 58 18.373 C 56.625 18.340, 50.127 16.893, 43.561 15.157 C 29.862 11.535, 31.224 11.790, 30.737 12.750 M 32.089 21.250 C 22.750 60.322, 21.153 75.718, 24.798 91.531 C 25.935 96.464, 27.361 104.715, 27.967 109.868 C 29.176 120.141, 29.464 159.244, 28.381 166.016 C 27.995 168.431, 28.090 170.101, 28.601 169.883 C 29.095 169.672, 32.470 167.811, 36.100 165.748 C 39.730 163.684, 48.249 160.193, 55.030 157.990 C 61.811 155.788, 68.180 153.242, 69.184 152.334 C 73.570 148.364, 73.522 138.019, 69.026 118.640 L 67.203 110.779 70.630 97.791 C 72.514 90.647, 74.698 83.265, 75.483 81.387 C 77.095 77.529, 79.720 76.013, 81.168 78.104 C 81.762 78.963, 81.965 91.528, 81.695 110.750 C 81.454 127.938, 81.438 142, 81.660 142 C 81.882 142, 85.599 139.523, 89.918 136.497 C 102.757 127.500, 108 126.117, 108 131.727 C 108 135.496, 104.707 141.503, 91.903 161.094 C 85.938 170.221, 80.751 178.485, 80.377 179.460 C 79.803 180.956, 79.993 181.071, 81.598 180.194 C 82.644 179.622, 85.848 177.433, 88.718 175.327 C 91.588 173.222, 95.812 170.375, 98.104 169 C 104.806 164.981, 113.364 155.742, 117.238 148.342 C 123.978 135.469, 125.599 126.520, 126.947 94.726 C 128.045 68.829, 129.659 55, 131.584 55 C 132.289 55, 133.106 55.787, 133.401 56.750 C 134.894 61.624, 135.975 91.976, 135.908 127.152 C 135.868 148.793, 136.158 169.339, 136.553 172.810 L 137.272 179.119 141.505 170.310 C 146.866 159.153, 150.870 153.735, 156.735 149.699 C 165.010 144.005, 169.101 139.742, 172.220 133.564 C 178.728 120.671, 178.717 120.761, 178.308 85 C 177.910 50.199, 177.035 42.795, 172.789 38.275 C 169.804 35.098, 163.889 35.254, 156.987 38.694 L 151.582 41.387 155.041 42.695 C 164.704 46.349, 165.337 47.565, 161.582 55.250 C 159.517 59.478, 158.995 62.088, 158.902 68.661 C 158.838 73.149, 159.343 78.508, 160.023 80.571 C 161.366 84.638, 160.978 92.409, 158.485 111.425 C 157.091 122.057, 155.511 125.664, 153.680 122.393 C 153.206 121.546, 153.383 111.069, 154.079 98.688 C 154.766 86.485, 155.291 74.700, 155.245 72.500 C 155.200 70.300, 155.748 64.733, 156.462 60.130 L 157.762 51.759 147.631 52.476 C 142.059 52.871, 137.109 53.434, 136.632 53.729 C 136.155 54.023, 131.205 54.319, 125.632 54.386 C 120.059 54.454, 114.943 54.867, 114.263 55.305 C 110.950 57.439, 108.022 76.843, 108.008 96.750 C 108.001 106.969, 107.751 109, 106.500 109 C 105.675 109, 105 108.565, 105 108.034 C 105 107.503, 103.842 99.516, 102.428 90.284 C 99.919 73.917, 99.581 62.031, 101.498 57.617 C 102.270 55.840, 101.923 55.772, 95.408 56.420 C 81.371 57.815, 64.267 60.110, 56.167 61.686 C 46.938 63.481, 46 64.425, 46 71.919 L 46 75.709 53.250 77.857 C 57.237 79.039, 61.063 80.005, 61.750 80.003 C 63.924 79.998, 63.160 82.273, 56.683 95.099 C 48.324 111.652, 44.478 117.209, 41.662 116.808 C 39.722 116.532, 39.469 115.799, 39.203 109.671 C 39.039 105.915, 39.601 97.833, 40.453 91.711 C 41.304 85.589, 42 79.835, 42 78.923 C 42 78.012, 40.200 76.075, 38 74.619 C 31.682 70.438, 32.798 66.140, 41.089 62.718 L 44.678 61.237 45.846 48.368 C 46.489 41.291, 47.011 31.805, 47.007 27.289 L 47 19.077 41.818 17.539 C 33.877 15.180, 33.506 15.322, 32.089 21.250 M 50 27.730 L 50 35.460 53.347 28.480 C 56.632 21.631, 56.655 21.488, 54.597 20.850 C 50.137 19.467, 50 19.672, 50 27.730 M 58.318 24.638 C 55.274 29.283, 52.047 38.593, 52.024 42.795 C 51.984 50.049, 56.006 52.745, 65.839 52.057 C 76.434 51.315, 86.406 41.360, 84.166 33.761 C 82.686 28.738, 81.464 27.959, 70.617 25.121 L 59.848 22.303 58.318 24.638 M 103.500 26.448 C 98 27.094, 94.175 27.894, 95 28.225 C 95.825 28.556, 101.578 30.047, 107.785 31.537 C 117.645 33.904, 119.287 34.067, 120.785 32.822 C 121.728 32.039, 124.203 29.958, 126.285 28.199 L 130.070 25 121.785 25.136 C 117.228 25.212, 109 25.802, 103.500 26.448 M 86.771 33.967 C 87.383 40.340, 85.797 44.162, 80.745 48.486 C 70.667 57.112, 54.104 57.235, 50.520 48.709 L 49.190 45.548 48.556 50.524 C 48.207 53.261, 47.741 56.660, 47.521 58.077 L 47.119 60.654 56.310 58.856 C 64.329 57.287, 97.789 53.002, 102.034 53.001 C 102.878 53, 104.431 51.538, 105.484 49.750 C 106.538 47.962, 109.403 44.356, 111.851 41.735 C 114.299 39.114, 116.122 36.819, 115.901 36.635 C 115.681 36.452, 109.650 34.865, 102.500 33.110 C 95.350 31.354, 88.778 29.702, 87.895 29.437 C 86.529 29.029, 86.361 29.704, 86.771 33.967 M 117.615 39.236 C 114.437 42.081, 107 51.199, 107 52.251 C 107 53.361, 112.293 52.004, 113.500 50.584 C 115.604 48.110, 119.550 46, 122.074 46 C 123.519 46, 126.845 47.139, 129.464 48.532 C 134.887 51.415, 136.031 51.226, 141.292 46.571 L 145.084 43.215 133.292 40.490 C 126.806 38.991, 121.195 37.586, 120.822 37.368 C 120.450 37.150, 119.007 37.990, 117.615 39.236 M 144.962 47.038 L 141.500 50.077 150 49.438 C 154.675 49.086, 158.852 48.470, 159.282 48.067 C 159.959 47.434, 158.430 46.839, 149.962 44.436 C 149.116 44.196, 146.866 45.367, 144.962 47.038 M 117.441 50.468 C 115.526 51.917, 115.527 51.937, 117.500 51.957 C 121.983 52.004, 127.149 50.710, 125.827 49.872 C 123.753 48.557, 119.575 48.854, 117.441 50.468 M 105.068 56.873 C 102.594 61.495, 101.960 68.118, 103.181 76.566 C 103.852 81.205, 104.761 85, 105.200 85 C 105.640 85, 106 82.506, 106 79.458 C 106 73.618, 108.516 59.772, 110.123 56.770 C 110.912 55.296, 110.652 55, 108.570 55 C 107.150 55, 105.637 55.809, 105.068 56.873 M 40.009 66.290 C 36.584 68.022, 36.405 70.380, 39.541 72.435 C 40.989 73.384, 42.297 74.011, 42.448 73.830 C 43.190 72.937, 43.923 65.002, 43.262 65.015 C 42.843 65.023, 41.379 65.597, 40.009 66.290 M 44.617 81.413 C 44.318 83.111, 43.363 90.759, 42.495 98.408 C 40.703 114.201, 41.330 116.606, 45.511 109.983 C 48.765 104.827, 59 84.596, 59 83.318 C 59 82.814, 55.886 81.485, 52.081 80.364 L 45.161 78.327 44.617 81.413 M 157.667 85.667 C 157.300 86.033, 157.063 88.621, 157.141 91.417 L 157.282 96.500 157.981 91 C 158.729 85.114, 158.701 84.633, 157.667 85.667" stroke="none" fill="black" fill-rule="evenodd"/>
</svg>