<svg xmlns="http://www.w3.org/2000/svg" width="200" height="200" viewBox="0 0 200 200" version="1.1">
	<path d="M 86 24.243 L 86 29.652 74.750 31.961 C 68.222 33.301, 57.748 34.530, 49.797 34.888 C 41.297 35.272, 35.640 35.960, 34.899 36.701 C 33.974 37.626, 34.954 40.439, 39.254 49.197 C 44.855 60.608, 49.671 73.662, 48.654 74.679 C 48.350 74.983, 46.662 74.729, 44.902 74.116 C 35.654 70.892, 29.132 74.300, 26.370 83.799 C 21.114 101.880, 32.274 140.308, 42.341 138.794 C 47.660 137.995, 50.711 127.987, 51.669 108.201 C 52.217 96.893, 52.579 94.761, 54.089 93.952 C 57.970 91.875, 76.879 88.003, 83.145 88.001 L 89.790 88 90.169 91.974 C 90.539 95.856, 90.441 95.994, 85.952 97.925 C 83.424 99.013, 77.499 100.660, 72.784 101.587 L 64.212 103.271 63.645 106.885 C 62.476 114.327, 65.862 122.048, 71.590 125 C 76.488 127.525, 92.224 126.919, 108.500 123.579 C 116.200 122, 125.802 120.660, 129.838 120.603 C 136.518 120.509, 137.356 120.724, 139.198 122.997 C 141.867 126.292, 141.187 132.287, 137.006 142.330 L 133.904 149.783 126.202 142.094 C 117.378 133.284, 111.515 130, 104.612 130 C 100.782 130, 97.289 131.262, 86.678 136.480 C 69.571 144.891, 59.889 147.311, 43.250 147.334 C 34.205 147.346, 31 147.673, 31 148.585 C 31 149.426, 33.792 150.009, 39.750 150.411 C 52.429 151.266, 62.036 152.700, 67.613 154.568 C 88.888 161.697, 78.913 174.721, 49.634 178.043 C 41.179 179.003, 37.664 178.859, 16.608 176.695 C 15.567 176.588, 14.542 176.988, 14.329 177.585 C 14.112 178.196, 16.244 179.162, 19.222 179.801 C 34.458 183.067, 41.908 183.383, 100.161 183.227 L 158.822 183.070 169.876 179.496 C 180.692 175.999, 183.381 174.471, 181.146 173.090 C 180.536 172.713, 172.941 173.014, 164.268 173.760 C 147.007 175.244, 128.681 174.850, 122.641 172.865 C 120.519 172.168, 118.123 170.591, 117.317 169.361 C 116.007 167.361, 116.057 166.668, 117.796 162.812 C 118.865 160.440, 121.036 157.287, 122.620 155.804 L 125.500 153.109 135 154.713 C 159.160 158.793, 171.781 149.545, 173.893 126.215 C 174.653 117.818, 174.151 102.565, 172.488 83.500 L 171.877 76.500 151.137 77.876 C 130.996 79.212, 130.286 79.194, 126.537 77.271 L 122.676 75.290 129.790 73.684 C 144.667 70.324, 155.641 61.920, 159.854 50.662 C 161.034 47.507, 162 44.281, 162 43.493 C 162 42.706, 164.363 40.547, 167.250 38.696 C 176.216 32.949, 177.156 30, 170.024 30 C 167.902 30, 158.378 31.147, 148.860 32.549 C 129.554 35.393, 111.281 36.001, 103.250 34.066 C 97.899 32.776, 96.182 31.012, 100.250 30.985 C 103.098 30.965, 105.438 29.518, 104.660 28.258 C 104.284 27.650, 101.953 27.624, 98.358 28.187 C 91.791 29.217, 90.223 28.326, 89.121 22.935 C 87.970 17.309, 86 18.135, 86 24.243 M 154 34.575 C 145.475 35.890, 133.775 37.281, 128 37.667 C 117.684 38.356, 117.579 38.388, 122 39.482 C 125.807 40.424, 126.500 40.973, 126.500 43.048 C 126.500 44.916, 125.548 45.965, 122.500 47.453 C 119.239 49.046, 115.757 49.485, 103.662 49.830 L 88.825 50.252 89.490 53.876 C 89.856 55.869, 90.458 57.775, 90.828 58.112 C 91.198 58.448, 95.550 59.708, 100.500 60.912 C 116.089 64.703, 117.095 65.038, 116.382 66.192 C 115.930 66.923, 116.572 67.124, 118.301 66.793 C 119.865 66.494, 121.091 66.796, 121.381 67.550 C 121.890 68.878, 119.148 69.940, 115 70.022 L 112.500 70.071 114.929 71.416 C 117.625 72.910, 122.234 72.605, 131.429 70.324 C 146.943 66.475, 155.398 58.480, 158.999 44.257 C 159.905 40.679, 160.929 39.467, 165.537 36.520 C 170.591 33.287, 172.106 31.863, 170.250 32.093 C 169.838 32.144, 162.525 33.261, 154 34.575 M 89 35.617 C 89 37.842, 89.336 38.143, 91.250 37.630 C 92.487 37.299, 95.300 37.011, 97.500 36.992 L 101.500 36.956 97.141 34.978 C 91.048 32.213, 89 32.374, 89 35.617 M 73.500 35.630 C 63.918 37.078, 56 39.557, 56 41.107 C 56 42.352, 59.372 43.579, 66.821 45.045 C 72.736 46.208, 73.013 46.167, 75.960 43.687 C 77.632 42.281, 80.574 40.560, 82.500 39.864 C 85.118 38.917, 86 38.019, 86 36.299 C 86 33.672, 86.331 33.690, 73.500 35.630 M 37 38.466 C 37 38.722, 38.544 41.759, 40.431 45.216 C 42.319 48.672, 45.190 54.875, 46.812 59 C 49.727 66.414, 54.165 81, 53.505 81 C 53.318 81, 50.924 79.875, 48.187 78.500 C 45.075 76.937, 41.517 76, 38.694 76 C 30.071 76, 27.237 82.776, 28.277 100.905 C 29.082 114.948, 35.125 132.268, 40.313 135.404 C 41.778 136.290, 42.484 136.063, 43.998 134.219 C 46.706 130.921, 48.211 122.433, 48.897 106.592 L 49.500 92.685 55 90.780 C 63.762 87.746, 77.010 85.045, 83.250 85.022 C 86.412 85.010, 89 84.582, 89 84.072 C 89 83.562, 86.412 82.860, 83.250 82.512 C 65.360 80.546, 60.142 76.973, 66.475 71.024 C 68.855 68.788, 69.216 68.743, 75.917 69.849 C 85.021 71.353, 88 71.309, 88 69.671 C 88 68.940, 85.769 67.297, 83.042 66.020 C 75.254 62.372, 70.057 55.546, 71.531 50.901 C 72.149 48.955, 72.363 49.049, 62.500 46.952 C 55.558 45.476, 52.683 43.441, 53.262 40.412 C 53.719 38.018, 53.659 38, 45.361 38 C 40.763 38, 37 38.210, 37 38.466 M 90.250 40.662 C 89.563 40.940, 89 42.440, 89 43.995 C 89 46.487, 89.447 46.899, 92.750 47.448 C 97.377 48.218, 117.517 46.514, 121.444 45.021 C 123.130 44.380, 123.947 43.565, 123.413 43.056 C 121.155 40.906, 94.427 38.977, 90.250 40.662 M 80.250 43.989 C 78.463 45.079, 77 46.202, 77 46.485 C 77 46.768, 79.025 47, 81.500 47 C 85.633 47, 86 46.796, 86 44.500 C 86 41.486, 84.565 41.358, 80.250 43.989 M 74.743 49.590 C 73.221 51.113, 74.082 54.944, 76.626 57.967 C 79.892 61.849, 87 65.737, 87 63.642 C 87 62.872, 85.682 61.697, 84.072 61.030 C 79.600 59.177, 79.308 57, 83.531 57 C 86.829 57, 87 56.827, 87 53.500 C 87 50.312, 86.744 50, 84.125 50 C 82.544 50, 79.953 49.741, 78.368 49.424 C 76.783 49.107, 75.152 49.182, 74.743 49.590 M 102 65.406 C 107.786 68.051, 110.535 68.561, 111.406 67.151 C 111.865 66.410, 109.025 65.557, 99 63.424 C 97.625 63.132, 98.975 64.023, 102 65.406 M 90 64.816 C 90 65.794, 93.341 66.986, 96 66.956 C 97.333 66.941, 97.333 66.845, 96 66.091 C 93.268 64.545, 90 63.851, 90 64.816 M 90.619 70.449 C 91.160 71.859, 98.676 73.024, 106.500 72.910 C 111.482 72.837, 111.489 72.832, 108.500 71.552 C 104.070 69.655, 89.981 68.786, 90.619 70.449 M 68.036 73.456 C 65.544 76.460, 69.756 78.280, 82.091 79.531 L 88.683 80.199 88.255 77.287 C 87.841 74.462, 87.586 74.341, 79.612 73.188 C 69.349 71.704, 69.493 71.701, 68.036 73.456 M 91 77.528 L 91 80 107.500 80 C 116.575 80, 124 79.787, 124 79.526 C 124 79.265, 122.700 78.379, 121.112 77.558 C 119.148 76.542, 113.868 75.903, 104.612 75.560 L 91 75.056 91 77.528 M 152.789 80.505 C 144.148 81.101, 136.821 81.845, 136.508 82.159 C 136.194 82.473, 137.114 83.500, 138.551 84.442 C 147.531 90.325, 153.383 98.746, 152.308 104.237 C 151.623 107.732, 145.694 113.101, 139.847 115.520 L 135.300 117.400 138.386 118.950 C 145.073 122.308, 145.430 129.697, 139.561 143.274 C 135.513 152.636, 135.665 152.962, 144.091 152.985 C 155.696 153.016, 163.420 148.956, 167.410 140.726 C 171.658 131.962, 172.417 123.287, 170.953 100.206 C 170.245 89.044, 169.404 79.801, 169.083 79.666 C 168.762 79.531, 161.430 79.908, 152.789 80.505 M 105.750 82.748 C 94.452 83.001, 92 83.319, 92 84.528 C 92 85.338, 92.675 86, 93.500 86 C 95.145 86, 99 89.451, 99 90.923 C 99 91.431, 97.841 93.224, 96.424 94.907 C 93.859 97.956, 93.855 97.990, 95.418 103.365 C 96.281 106.333, 97.852 109.828, 98.911 111.131 L 100.834 113.500 103.667 111.437 C 105.225 110.303, 109.514 105.353, 113.198 100.437 C 123.296 86.964, 126.065 85.065, 129.947 88.947 C 132.254 91.254, 133.706 96.221, 134.935 106.006 C 135.429 109.945, 136.066 113.399, 136.349 113.683 C 136.633 113.966, 139.181 112.938, 142.011 111.397 C 147.672 108.317, 150.510 104.167, 149.556 100.367 C 148.660 96.798, 142.311 90.187, 135.595 85.830 C 130.485 82.516, 129.004 82.030, 124.595 82.219 C 121.793 82.340, 113.313 82.578, 105.750 82.748 M 93 91.714 C 93 94.215, 93.127 94.301, 94.618 92.810 C 95.508 91.920, 95.932 90.699, 95.559 90.096 C 94.332 88.110, 93 88.953, 93 91.714 M 122.830 92.750 C 121.431 94.263, 118.359 98.200, 116.004 101.500 C 108.875 111.490, 105.057 115, 101.320 115 C 97.515 115, 95.606 112.662, 92.853 104.628 C 91.837 101.666, 90.547 99.590, 89.798 99.714 C 89.084 99.832, 84.675 101.035, 80 102.388 C 75.325 103.742, 70.263 105.116, 68.750 105.443 C 66.385 105.955, 66 106.530, 66 109.551 C 66 114.768, 68.456 119.698, 72.190 121.974 C 77.077 124.954, 88.232 124.656, 107.077 121.043 C 115.560 119.416, 124.862 117.954, 127.750 117.793 L 133 117.500 132.965 113.500 C 132.918 108.117, 130.488 94.780, 129.071 92.133 C 127.545 89.282, 125.887 89.446, 122.830 92.750 M 100 133.360 C 98.075 134.102, 91.775 137.014, 86 139.831 C 80.225 142.648, 71.675 146.065, 67 147.423 C 62.325 148.782, 59.425 149.918, 60.556 149.947 C 64.979 150.061, 75.231 154.352, 78.541 157.474 C 86.709 165.177, 79.649 174.293, 61.900 178.960 L 54.500 180.906 107.069 180.454 C 156.122 180.032, 160.001 179.870, 165.069 178.040 L 170.500 176.079 162.500 176.738 C 148.768 177.870, 129.828 177.584, 124.302 176.163 C 111.943 172.983, 110.618 164.390, 120.841 153.721 C 123.847 150.585, 124.932 150.046, 127.231 150.551 C 128.795 150.894, 130 150.730, 130 150.173 C 130 149.631, 126.851 146.272, 123.003 142.709 C 112.881 133.338, 106.641 130.802, 100 133.360" stroke="none" fill="black" fill-rule="evenodd"/>
</svg>