<svg xmlns="http://www.w3.org/2000/svg" width="200" height="200" viewBox="0 0 200 200" version="1.1">
	<path d="M 119 12.994 C 63.817 18.147, 60.510 18.553, 57.362 20.546 C 55.630 21.642, 51.728 21.734, 36.862 21.031 C 26.763 20.554, 18.216 20.464, 17.870 20.832 C 17.523 21.199, 16.713 40.175, 16.071 63 C 14.896 104.731, 15.515 131.750, 18.012 147.720 C 19.744 158.789, 19.244 158.492, 26.673 152.869 C 30.294 150.128, 39.079 144.968, 46.195 141.402 C 53.310 137.837, 61.076 133.127, 63.453 130.937 C 68.728 126.075, 71.981 118.855, 72.849 110.086 L 73.500 103.500 83.500 103.191 C 94.600 102.848, 113.330 104.386, 119.500 106.148 L 123.500 107.290 120 108.793 C 117.911 109.691, 112.066 110.484, 105.500 110.761 C 95.818 111.170, 94.112 111.517, 91.263 113.654 C 83.606 119.398, 84.313 123.978, 94.537 134.846 C 98.642 139.209, 102 143.449, 102 144.268 C 102 146.902, 93.495 149.298, 79.750 150.537 C 74.157 151.041, 72 151.620, 72 152.617 C 72 153.576, 73.303 154.002, 76.250 154.008 C 82.421 154.019, 92.507 155.809, 98.743 158.001 C 104.609 160.063, 109.002 162.586, 118.814 169.531 C 128.070 176.082, 133.109 175.475, 146.700 166.172 C 156.197 159.672, 172 146.096, 172 144.439 C 172 142.507, 168.007 140.878, 156.308 138.037 C 151.252 136.809, 146.319 135.222, 145.345 134.511 C 141.442 131.656, 147.609 128.589, 170.449 122.027 C 183.907 118.160, 188.648 115.129, 179.385 116.314 C 176.698 116.658, 169.117 117.628, 162.538 118.470 C 148.993 120.203, 145 120.363, 145 119.174 C 145 118.719, 150.613 114.670, 157.474 110.175 C 171.493 100.990, 174.312 97.651, 171.575 93.473 C 169.491 90.294, 164.320 89.012, 153.547 89.006 L 144.594 89 151.049 84.750 C 161.184 78.077, 164.799 74.934, 169.566 68.648 C 175.523 60.793, 178.188 51.977, 177.795 41.429 L 177.500 33.513 166.500 30.831 C 160.450 29.356, 154.150 27.847, 152.500 27.478 C 149.624 26.834, 149.736 26.732, 155.202 25.026 C 162.934 22.612, 168.549 19.130, 174.462 13.078 L 179.425 8 174.462 8.139 C 171.733 8.216, 146.775 10.401, 119 12.994 M 132.500 14.536 C 75.707 19.813, 64.062 21.037, 61.720 21.980 L 59.500 22.873 61.792 22.937 C 63.053 22.971, 67.374 23.680, 71.396 24.510 C 78.052 25.885, 79.056 25.873, 82.603 24.381 C 87.669 22.250, 97.692 22.131, 121.085 23.925 C 141.391 25.482, 147.733 24.991, 158.168 21.056 C 161.285 19.880, 165.785 17.155, 168.168 15 C 172.200 11.353, 172.327 11.089, 170 11.183 C 168.625 11.239, 151.750 12.748, 132.500 14.536 M 19.361 44.750 C 17.561 90.220, 18.768 147.580, 21.621 152.196 C 21.871 152.600, 24.125 151.365, 26.632 149.451 C 29.138 147.538, 37.335 142.854, 44.847 139.042 C 63.704 129.475, 67.817 125.022, 69.951 111.871 C 71.301 103.550, 71.273 103, 69.500 103 C 67.561 103, 67.570 101.036, 69.516 99.610 C 70.823 98.652, 70.885 97.076, 69.965 88.118 C 68.467 73.535, 68.483 73.133, 70.767 67 C 71.894 63.975, 72.936 60.375, 73.082 59 C 73.469 55.382, 71.980 42.585, 70.985 40.975 C 69.798 39.055, 54.061 54.945, 50.831 61.325 L 48.388 66.150 50.151 75.825 C 53.437 93.860, 51.606 117.449, 46.689 120.410 C 45.209 121.301, 44.448 121.004, 42.518 118.785 C 36.799 112.210, 36.505 91.232, 41.905 75.120 C 44.859 66.308, 44.997 65.250, 44.195 57.646 C 42.545 41.998, 46.213 34.441, 57.311 30.626 L 61.007 29.355 58.645 27.137 C 56.577 25.193, 54.620 24.803, 42.892 23.994 C 35.526 23.486, 27.412 23.055, 24.861 23.035 L 20.221 23 19.361 44.750 M 87 26 C 85.204 26.575, 86.331 26.801, 91 26.801 C 94.575 26.801, 98.625 26.440, 100 26 C 101.796 25.425, 100.669 25.199, 96 25.199 C 92.425 25.199, 88.375 25.560, 87 26 M 62.500 27 C 62.840 27.550, 65.004 27.955, 67.309 27.900 C 70.888 27.815, 71.135 27.684, 69 27 C 65.361 25.834, 61.780 25.834, 62.500 27 M 112.500 28 C 115.306 29.206, 124.755 29.206, 125.500 28 C 125.893 27.364, 123.277 27.026, 118.309 27.070 C 113.017 27.118, 111.145 27.418, 112.500 28 M 127 28.839 C 127 29.301, 131.880 30.370, 137.845 31.215 C 150.305 32.980, 154.268 34.888, 153.802 38.899 C 153.545 41.109, 152.748 41.689, 148.500 42.758 C 142.301 44.318, 122.833 44.015, 122.281 42.349 C 122.010 41.532, 125.751 41.095, 135.200 40.839 C 142.515 40.642, 149.357 39.978, 150.404 39.364 C 152.229 38.294, 152.209 38.184, 149.904 36.708 C 148.582 35.860, 142.325 34.506, 136 33.698 L 124.500 32.228 112.759 38.724 C 106.302 42.296, 100.233 45.282, 99.272 45.360 C 98.042 45.458, 97.117 44.223, 96.148 41.189 C 95.165 38.110, 93.685 36.158, 90.971 34.362 L 87.170 31.846 81.335 34.673 C 74.797 37.841, 74.965 37.282, 76.288 51.500 C 76.596 54.800, 76.888 58.400, 76.939 59.500 C 77.126 63.580, 78.232 64.046, 83.538 62.283 C 96.194 58.079, 150 61.523, 150 66.539 C 150 68.430, 146.326 68.423, 131.673 66.502 C 120.375 65.021, 120.131 65.032, 110.517 67.471 C 99.432 70.283, 94.633 72.692, 94.198 75.664 C 94.002 77.010, 95.652 79.646, 98.948 83.253 C 106.643 91.672, 105.671 94.896, 94.397 98.357 C 91.703 99.184, 89.950 99.896, 90.500 99.939 C 114.909 101.848, 124.269 103.653, 125.428 106.674 C 125.783 107.599, 125.474 108.954, 124.742 109.687 C 122.801 111.628, 110.617 113.963, 102.327 113.983 C 96.083 113.998, 94.755 114.335, 92.077 116.589 C 86.855 120.983, 87.863 123.966, 98.204 134.719 C 103.310 140.028, 105.062 142.533, 104.824 144.185 C 104.386 147.225, 98.867 150.747, 93.214 151.595 L 88.574 152.291 93.829 153.636 C 102.254 155.792, 108.523 158.879, 117.194 165.140 C 128.285 173.149, 131.734 173.009, 144.984 164.011 C 152.205 159.107, 169.330 144.997, 168.757 144.424 C 168.537 144.203, 163.285 142.692, 157.086 141.066 C 144.855 137.857, 141 135.956, 141 133.132 C 141 130.383, 144.037 128.166, 152.153 124.991 L 159.500 122.116 151 121.808 C 143.109 121.522, 142.478 121.342, 142.186 119.295 C 141.924 117.452, 144.002 115.703, 154.855 108.632 C 174.851 95.603, 174.835 93.021, 154.749 91.867 C 148.012 91.480, 142.436 91.126, 142.357 91.081 C 142.278 91.037, 141.959 90.334, 141.646 89.521 C 141.247 88.481, 144.009 86.110, 150.953 81.531 C 166.320 71.398, 172.914 62.159, 175.180 47.583 C 176.943 36.244, 176.691 35.952, 162.360 32.692 C 143.177 28.328, 127 26.565, 127 28.839 M 69.207 30.851 C 68.194 31.493, 68.342 32.196, 69.886 34.086 C 72.011 36.687, 73.267 36.182, 74.455 32.250 C 75.024 30.366, 74.758 30.002, 72.817 30.015 C 71.543 30.024, 69.918 30.400, 69.207 30.851 M 78 31.500 C 76.446 33.372, 77.725 33.372, 81 31.500 C 83.355 30.154, 83.377 30.069, 81.372 30.035 C 80.202 30.016, 78.685 30.675, 78 31.500 M 92.692 30.689 C 92.376 31.200, 93.438 32.863, 95.050 34.385 C 96.663 35.908, 98.324 38.461, 98.741 40.060 L 99.500 42.968 108.791 37.796 C 114.725 34.493, 117.615 32.366, 116.791 31.909 C 114.680 30.737, 93.330 29.656, 92.692 30.689 M 57 33.594 C 48.565 37.248, 44.915 45.145, 46.644 56.004 L 47.509 61.440 50.879 56.189 C 52.732 53.301, 57.575 47.873, 61.641 44.126 L 69.035 37.314 66.945 34.657 C 64.586 31.658, 62.087 31.391, 57 33.594 M 87 64.381 C 83.975 65.048, 80.517 66.135, 79.316 66.797 C 76.483 68.357, 76 68.314, 76 66.500 C 76 63.515, 74.433 65.102, 72.777 69.764 C 71.398 73.647, 71.259 75.728, 72.023 81.014 C 72.538 84.581, 72.969 89.877, 72.980 92.781 C 72.994 96.404, 73.445 98.234, 74.419 98.607 C 78.209 100.062, 102 93.658, 102 91.182 C 102 90.671, 99.525 87.479, 96.500 84.088 C 93.475 80.698, 91 77.041, 91 75.962 C 91 71.808, 96.762 68.153, 108.117 65.104 L 115.500 63.121 104 63.144 C 97.675 63.157, 90.025 63.713, 87 64.381 M 45.087 73.477 C 39.988 86.019, 39.662 112.984, 44.560 117.050 C 45.629 117.937, 46.237 116.993, 47.589 112.342 C 49.672 105.176, 49.729 88.754, 47.708 78 C 46.334 70.691, 46.267 70.576, 45.087 73.477" stroke="none" fill="black" fill-rule="evenodd"/>
</svg>