<svg xmlns="http://www.w3.org/2000/svg" width="200" height="200" viewBox="0 0 200 200" version="1.1">
	<path d="M 79 14.687 C 77.075 14.889, 68.820 15.962, 60.656 17.071 C 48.645 18.703, 45.521 18.847, 44.293 17.828 C 41.438 15.459, 32.561 16.449, 25.502 19.924 C 18.136 23.550, 16.516 26.665, 22.500 25.694 C 25.925 25.138, 26 25.199, 26 28.524 C 26 30.393, 26.900 35.782, 28 40.500 C 31.393 55.050, 29.869 66.567, 24.073 70.186 C 21.349 71.887, 21.448 73.563, 24.906 84.397 C 28.831 96.693, 31.418 112.731, 30.654 120.039 C 29.469 131.373, 24.124 139.136, 16.521 140.562 L 13 141.223 13 148.143 C 13 160.338, 16.700 165.483, 25.380 165.358 C 35.168 165.216, 49.609 156.314, 63.750 141.704 C 68.980 136.300, 71 133.487, 71 131.607 C 71 128.802, 69.277 128.246, 66.007 129.996 C 63.455 131.362, 59.258 127.728, 55.579 120.968 C 50.248 111.173, 52.093 100.235, 62.020 82.774 C 69.403 69.789, 69.655 65, 62.955 65 C 60.675 65, 59.953 64.388, 59.068 61.706 C 57.911 58.201, 53.079 31.704, 53.506 31.204 C 53.826 30.829, 78.757 42.354, 91.986 48.993 C 101.645 53.840, 102.005 54.138, 101.370 56.767 C 99.364 65.084, 93.685 78.577, 83.992 98.061 C 78.001 110.104, 72.802 121.538, 72.439 123.472 C 71.397 129.030, 72.571 131.964, 76.123 132.675 C 78.943 133.239, 79.142 133.541, 78.569 136.394 C 75.054 153.899, 75.203 169.057, 78.953 175.714 C 87.074 190.127, 102.948 179.932, 104.687 159.188 C 105.207 152.995, 103.284 141.792, 100.505 134.809 C 99.984 133.501, 101.037 132.490, 105.166 130.333 C 109.775 127.926, 111.665 127.545, 119.074 127.524 C 126.891 127.502, 128.080 127.767, 132.543 130.524 C 139.382 134.748, 143.212 140.514, 143.788 147.453 C 144.536 156.475, 139.746 161, 129.448 161 L 124.832 161 128.147 165.250 C 132.832 171.256, 141.587 179.738, 144.789 181.374 C 150.187 184.132, 153.363 184.230, 157.038 181.753 C 161.816 178.533, 165.105 171.259, 169.995 153.086 C 172.277 144.608, 175.062 135.718, 176.185 133.330 C 178.123 129.207, 183.086 124, 185.077 124 C 187.303 124, 185.731 121.196, 183.223 120.695 C 174.497 118.949, 171.402 110.850, 172.364 92.277 C 172.714 85.525, 173.279 74.487, 173.621 67.750 C 174.359 53.182, 173.295 48.095, 168.510 43.310 C 164.414 39.214, 162.989 39.171, 160.114 43.060 C 157.407 46.720, 152.327 49.991, 149.339 49.996 C 144.284 50.005, 138.788 38.788, 137.048 24.910 C 135.939 16.067, 135.715 15.440, 134.036 16.478 C 133.382 16.882, 133.187 18.480, 133.553 20.433 C 133.892 22.235, 134.468 30.020, 134.834 37.731 L 135.500 51.752 126.487 53.225 C 119.153 54.423, 112.700 56.567, 106.864 59.744 C 106.514 59.935, 105.789 58.833, 105.253 57.295 C 103.980 53.644, 105.321 49.342, 111.862 36.089 C 114.688 30.362, 117 24.686, 117 23.474 C 117 20.138, 113.353 16.192, 109.205 15.040 C 105.748 14.080, 86.889 13.860, 79 14.687 M 77.500 17.656 C 67.332 18.865, 49.449 21.321, 49.176 21.547 C 48.998 21.694, 49.523 23.093, 50.343 24.657 C 51.322 26.523, 53.495 28.154, 56.667 29.403 C 59.325 30.450, 70.570 35.683, 81.656 41.032 L 101.811 50.758 107.284 39.551 C 110.293 33.388, 113.076 27.335, 113.468 26.100 C 114.661 22.342, 113.286 19.295, 109.857 18.100 C 106.972 17.094, 84.788 16.790, 77.500 17.656 M 31 20.526 L 27.500 21.900 32 21.289 C 34.475 20.953, 37.625 20.340, 39 19.925 C 41.229 19.254, 41.121 19.171, 38 19.162 C 36.075 19.157, 32.925 19.770, 31 20.526 M 41.597 22.844 C 41.310 23.308, 42.625 24.163, 44.520 24.745 C 47.740 25.733, 47.898 25.678, 46.947 23.901 C 45.914 21.970, 42.548 21.305, 41.597 22.844 M 29.667 25.667 C 28.465 26.869, 28.965 32.729, 30.993 41.187 C 33.778 52.804, 33.621 59.362, 30.402 65.821 C 28.973 68.688, 26.993 71.469, 26.002 71.999 C 24.296 72.912, 24.350 73.433, 27.013 81.732 C 33.694 102.549, 35.204 121.048, 31.015 130.757 C 28.478 136.640, 23.274 141.795, 19.014 142.647 C 15.657 143.319, 15.034 145.470, 16.005 153.039 C 16.520 157.053, 17.340 158.895, 19.398 160.666 C 24.368 164.941, 31.081 163.259, 44.685 154.331 C 55.966 146.928, 74.350 128.531, 66.004 132.998 C 63.487 134.345, 59.461 131.587, 55.230 125.616 C 47.263 114.375, 48.240 102.154, 58.608 83.352 C 65.688 70.513, 66.262 69.038, 64.455 68.344 C 63.638 68.031, 62.040 68.018, 60.904 68.315 C 57.962 69.084, 56.260 64.453, 53.313 47.664 C 50.011 28.850, 50.353 29.498, 42.440 27.054 C 35.707 24.975, 30.883 24.451, 29.667 25.667 M 138.006 46.750 L 138 52 141.674 52 L 145.349 52 143.241 49.750 C 142.081 48.513, 140.431 46.150, 139.573 44.500 L 138.012 41.500 138.006 46.750 M 159.310 47.562 C 157.005 49.901, 153.763 52.113, 152.105 52.477 C 148.809 53.201, 147.767 55.196, 148.046 60.248 C 148.719 72.399, 147.493 78.703, 144.251 79.759 C 142.073 80.469, 141.625 76.914, 142.920 69.204 C 143.959 63.020, 143.945 61.580, 142.838 60.879 C 139.975 59.064, 139 59.968, 139 64.435 C 139 66.874, 138.323 72.088, 137.495 76.022 C 136.668 79.957, 136.208 83.528, 136.474 83.959 C 136.741 84.389, 138.356 85.021, 140.063 85.363 C 144.185 86.187, 148.683 89.487, 150.515 93.029 C 154.759 101.236, 149.851 117.440, 141.871 121.567 C 134.606 125.324, 131.488 120.028, 131.530 104 C 131.547 97.675, 131.893 91.263, 132.299 89.750 C 133.006 87.118, 132.882 87, 129.393 87 C 125.550 87, 109.353 90.528, 107.290 91.814 C 106.386 92.378, 106.825 94.708, 109.027 101.034 C 112.339 110.550, 112.694 114.179, 110.491 116.008 C 109.233 117.052, 108.434 116.680, 105.691 113.772 C 99.984 107.720, 98.110 95.765, 101.529 87.220 C 104.114 80.758, 122.486 64.577, 132.007 60.377 C 134.683 59.196, 136 57.977, 136 56.678 C 136 54.903, 135.501 54.798, 130.023 55.418 C 122.482 56.271, 114.449 58.611, 110.250 61.177 C 107.411 62.912, 107 63.696, 107 67.382 C 107 73.772, 103.794 76.219, 101.911 71.266 C 100.900 68.606, 100.781 68.736, 97.570 76.016 C 95.755 80.132, 89.933 92.244, 84.634 102.931 C 77.529 117.261, 75 123.364, 75 126.181 C 75 129.980, 75.021 130, 79.067 130 C 82.470 130, 83.051 130.286, 82.621 131.750 C 79.209 143.358, 77.918 163.563, 80.088 171.378 C 81.681 177.115, 85.334 180.376, 89.316 179.614 C 93.883 178.741, 98.596 173.198, 100.582 166.366 C 102.678 159.156, 102.045 148.054, 99.052 139.529 C 97.899 136.245, 97.184 132.962, 97.464 132.233 C 97.744 131.504, 101.016 129.466, 104.736 127.704 C 110.611 124.921, 112.551 124.502, 119.500 124.517 C 128.642 124.537, 133.396 126.463, 139.589 132.656 C 146.315 139.381, 148.900 149.425, 145.566 155.872 C 143.584 159.706, 141.750 161.035, 135.714 163.017 L 130.500 164.728 137.682 171.803 C 146.423 180.415, 151.449 182.515, 155.785 179.367 C 159.745 176.492, 162.397 170.359, 166.971 153.500 C 171.971 135.067, 173.315 131.532, 177.168 126.684 C 178.836 124.585, 180.043 122.761, 179.850 122.631 C 179.658 122.501, 178.220 121.593, 176.656 120.613 C 175.093 119.633, 172.863 116.732, 171.701 114.166 C 169.243 108.736, 168.938 98.900, 170.406 72.447 C 170.896 63.618, 170.987 54.744, 170.608 52.726 C 169.961 49.276, 165.609 42.816, 164.161 43.155 C 163.797 43.240, 161.614 45.223, 159.310 47.562 M 138.244 56.250 C 138.874 58.170, 144.626 58.417, 145.341 56.554 C 145.820 55.306, 145.139 55, 141.885 55 C 139.092 55, 137.961 55.388, 138.244 56.250 M 102.667 62.667 C 102.300 63.033, 102 63.798, 102 64.367 C 102 64.993, 102.466 64.934, 103.183 64.217 C 103.834 63.566, 104.134 62.801, 103.850 62.517 C 103.566 62.233, 103.033 62.300, 102.667 62.667 M 130.001 64.595 C 121.403 69.510, 107.055 82.205, 104.397 87.250 C 102.697 90.478, 102.542 90.429, 108.124 88.443 C 110.531 87.587, 117.209 86.089, 122.964 85.113 L 133.427 83.340 134.652 76.920 C 136.052 69.582, 136.356 61.994, 135.250 62.012 C 134.838 62.019, 132.476 63.181, 130.001 64.595 M 135.487 88.021 C 135.112 88.627, 134.567 94.383, 134.275 100.812 C 133.717 113.126, 135.164 120, 138.314 120 C 145.669 120, 152.407 100.849, 147.622 93.546 C 145.115 89.719, 136.782 85.926, 135.487 88.021 M 102.398 98.942 C 103.169 104.754, 105.256 110.138, 107.442 111.952 C 109.824 113.929, 109.491 110.850, 106.339 101.750 C 103.265 92.878, 101.419 91.563, 102.398 98.942" stroke="none" fill="black" fill-rule="evenodd"/>
</svg>