<svg xmlns="http://www.w3.org/2000/svg" width="200" height="200" viewBox="0 0 200 200" version="1.1">
	<path d="M 115.500 6.634 C 110.879 7.470, 65.317 12.007, 51.314 13.025 C 37.700 14.015, 35.866 13.959, 33.608 12.479 C 29.903 10.051, 28.595 11.533, 31.259 15.137 C 33.012 17.508, 33.500 19.514, 33.500 24.355 C 33.500 32.269, 29.530 40.678, 20.995 50.844 C 15.409 57.497, 14.073 60.677, 17.401 59.400 C 19.701 58.517, 19.909 62.608, 18.339 77.827 C 15.647 103.929, 17.674 117.586, 25.620 126.869 C 29.147 130.990, 37.339 136, 40.550 136 C 42.568 136, 43.179 134.657, 32.319 154.080 C 18.382 179.007, 18.698 181.084, 34.822 170.519 C 46.648 162.771, 59.200 156.709, 67.228 154.868 C 70.379 154.146, 73.177 152.980, 73.447 152.278 C 73.717 151.575, 73.322 151, 72.569 151 C 70.732 151, 70.286 144.543, 71.198 131.160 C 72.644 109.925, 78.136 81.436, 81.414 78.157 C 82.645 76.926, 83.119 77.645, 84.919 83.472 C 88.872 96.272, 87.467 110.167, 78.294 149 C 75.241 161.925, 72.688 174.750, 72.621 177.500 C 72.515 181.867, 72.766 182.538, 74.604 182.800 C 78.716 183.388, 94.560 163.027, 100.575 149.427 C 104.126 141.397, 107.669 128.620, 108.501 120.843 C 109.124 115.020, 109.645 113.767, 112.663 110.843 L 116.113 107.500 118.054 110 C 119.121 111.375, 121.198 116.100, 122.670 120.500 C 124.997 127.458, 125.355 130.193, 125.423 141.500 C 125.494 153.526, 125.304 154.919, 122.878 160.091 C 119.866 166.514, 115.981 169.704, 109.822 170.810 C 105.685 171.553, 98.628 170.969, 94.003 169.501 C 92.068 168.887, 91.947 169.033, 92.906 170.825 C 94.829 174.418, 104.307 176.389, 127.996 178.122 C 145.694 179.417, 163.970 178.293, 170.662 175.497 C 180.250 171.491, 181.338 166.416, 174.242 158.803 L 171.727 156.106 168.401 158.643 C 163.803 162.150, 158.066 162.835, 155.649 160.165 C 148.860 152.663, 149.861 127.445, 157.463 114.473 C 161.211 108.078, 166.673 103.685, 170.040 104.358 C 173.942 105.138, 180 103.977, 180 102.449 C 180 100.696, 175.025 99.732, 169.799 100.471 C 161.854 101.595, 156.046 95.456, 154.537 84.338 C 153.716 78.287, 155.540 64.475, 157.582 61.285 C 159.707 57.965, 159.422 55.656, 156.965 56.299 C 154.578 56.923, 144 54.118, 144 52.861 C 144 52.387, 145.167 52, 146.593 52 C 148.019 52, 153.737 51.073, 159.299 49.939 C 175.594 46.618, 183.510 42.170, 176.331 40.368 C 173.898 39.758, 146.327 42.554, 143.290 43.719 C 141.401 44.444, 141.716 46.001, 143.750 45.992 C 144.713 45.987, 150.450 45.321, 156.500 44.511 C 162.550 43.702, 168.850 43.075, 170.500 43.118 C 173.197 43.190, 173.046 43.340, 169 44.609 C 162.729 46.575, 151.984 48.710, 142.302 49.913 C 135.789 50.722, 133.321 50.644, 130.302 49.536 C 128.211 48.769, 127.325 48.109, 128.333 48.070 C 129.342 48.032, 129.980 47.437, 129.752 46.750 C 129.232 45.182, 121.079 43.223, 114.545 43.096 C 111.754 43.042, 104.617 41.363, 98.202 39.252 L 86.814 35.504 98.157 31.814 L 109.500 28.125 110.061 32.701 C 110.815 38.841, 113.524 41, 120.476 41 C 129.952 41, 146 30.954, 146 25.022 C 146 22.260, 142.173 19.998, 137.527 20.013 C 135.312 20.020, 129.246 20.904, 124.047 21.977 C 118.848 23.049, 114.426 23.759, 114.221 23.554 C 113.909 23.243, 115.324 19.670, 120.675 7.250 C 121.207 6.016, 119.824 5.852, 115.500 6.634 M 114.500 9.512 C 113.950 9.706, 101.800 11.029, 87.500 12.450 C 73.200 13.872, 59.033 15.298, 56.019 15.619 L 50.537 16.202 53.519 17.673 C 55.158 18.482, 58.075 20.894, 60 23.033 C 62.726 26.062, 65.589 27.698, 72.946 30.431 L 82.392 33.939 96.446 29.408 L 110.500 24.878 113.601 16.939 C 115.307 12.572, 116.432 9.036, 116.101 9.079 C 115.771 9.122, 115.050 9.317, 114.500 9.512 M 36.412 24.031 C 36.412 29.803, 35.874 31.870, 32.703 38.286 C 30.664 42.413, 26.945 48.069, 24.441 50.855 C 20.359 55.394, 20.011 56.152, 21.084 58.158 C 21.970 59.812, 22.051 63.410, 21.396 71.948 C 19.845 92.162, 20.237 109.745, 22.376 115.886 C 25.546 124.992, 33.274 131.835, 42.297 133.528 C 44.333 133.910, 45.992 134.510, 45.982 134.861 C 45.972 135.213, 41.265 143.805, 35.522 153.957 C 29.779 164.108, 25.235 172.569, 25.425 172.759 C 25.616 172.949, 29.535 170.660, 34.136 167.673 C 44.324 161.056, 54.617 155.835, 62.105 153.485 L 67.711 151.726 68.321 136.113 C 69.355 109.683, 75.034 79.995, 79.897 75.593 C 82.638 73.113, 84.690 74.592, 87.178 80.843 C 89.082 85.627, 89.425 88.351, 89.401 98.500 C 89.368 112.440, 87.861 121.634, 81.014 149.678 C 76.071 169.925, 74.197 180, 75.374 180 C 76.191 180, 82.246 173.291, 86.386 167.797 C 92.133 160.173, 97.061 151.216, 100.116 142.844 C 105.693 127.564, 106.178 123.806, 106.706 91.853 L 107.196 62.206 96.848 61.520 C 91.157 61.143, 80.200 61.320, 72.500 61.913 C 64.800 62.506, 58.196 62.994, 57.825 62.996 C 57.454 62.998, 57.165 67.838, 57.183 73.750 C 57.230 88.785, 54.182 99.617, 47.335 108.750 C 45.735 110.884, 44.049 112, 42.424 112 C 36.657 112, 37.008 102.049, 43.536 80.500 C 45.535 73.900, 47.245 67.160, 47.335 65.522 C 47.426 63.884, 48.276 61.758, 49.225 60.797 C 51.601 58.390, 52.485 54.289, 51.009 52.511 C 50.021 51.321, 50.468 50.130, 53.404 46.131 C 57.188 40.976, 60 34.310, 60 30.496 C 60 28.885, 59.073 27.875, 56.750 26.953 C 54.962 26.244, 49.655 23.777, 44.956 21.471 L 36.412 17.279 36.412 24.031 M 46.500 19.198 C 48.700 20.358, 52.055 21.958, 53.954 22.753 C 57.072 24.057, 57.283 24.046, 56.113 22.637 C 54.956 21.243, 45.014 16.932, 43.212 17.044 C 42.821 17.069, 44.300 18.038, 46.500 19.198 M 129.500 23.655 C 128.400 23.887, 124.237 24.766, 120.250 25.607 L 113 27.136 113 31.545 C 113 39.753, 119.343 40.947, 131.644 35.056 C 138.367 31.836, 143.556 26.892, 142.661 24.560 C 142.215 23.397, 140.719 23.030, 136.781 23.116 C 133.877 23.180, 130.600 23.422, 129.500 23.655 M 61.813 35.732 C 60.886 38.882, 60.257 41.591, 60.417 41.750 C 60.577 41.910, 64.639 40.544, 69.445 38.714 L 78.183 35.388 71.317 32.694 C 67.540 31.212, 64.237 30.001, 63.975 30.002 C 63.714 30.003, 62.741 32.581, 61.813 35.732 M 70.127 41.392 C 59.939 45.231, 58.614 46.013, 57.400 48.899 C 56.052 52.105, 56.064 52.129, 59.744 53.667 C 65.232 55.959, 71.173 54.917, 82.590 49.660 C 88.140 47.105, 94.103 44.729, 95.840 44.382 C 97.578 44.034, 99 43.449, 99 43.081 C 99 42.505, 83.155 36.906, 81.940 37.053 C 81.698 37.083, 76.382 39.035, 70.127 41.392 M 103 45.649 C 97.595 46.463, 92.094 48.351, 82.745 52.603 C 71.346 57.787, 66.302 58.689, 59.852 56.694 C 55.255 55.273, 55.191 55.285, 54.065 57.758 C 53.438 59.133, 53.054 60.386, 53.213 60.543 C 53.371 60.699, 56.875 60.435, 61 59.957 C 65.125 59.479, 77.162 59.068, 87.750 59.044 L 107 59 107 53.875 L 107 48.750 110.250 49.437 C 112.037 49.815, 115.975 50.327, 119 50.575 L 124.500 51.027 115.500 48.034 C 110.550 46.388, 106.275 45.093, 106 45.156 C 105.725 45.220, 104.375 45.442, 103 45.649 M 123.813 47.683 C 124.534 47.972, 125.397 47.936, 125.729 47.604 C 126.061 47.272, 125.471 47.036, 124.417 47.079 C 123.252 47.127, 123.015 47.364, 123.813 47.683 M 110 56.076 C 110 59.802, 110.044 59.844, 115.250 60.943 C 138.509 65.854, 141.735 80.204, 123.908 99.460 L 118.316 105.500 121.061 109.798 C 125.784 117.191, 128.402 128.779, 128.454 142.521 C 128.499 154.156, 128.393 154.759, 125.183 161.281 C 121.954 167.839, 116.800 172.847, 113.018 173.102 C 112.183 173.159, 113.075 173.605, 115 174.093 C 121.106 175.643, 150.868 176.326, 159.371 175.111 C 170.074 173.582, 176 170.909, 176 167.612 C 176 166.237, 174.951 163.892, 173.669 162.401 L 171.337 159.691 168.085 162.095 C 163.316 165.621, 156.650 165.457, 153.447 161.734 C 144.060 150.820, 147.435 120.486, 159.525 107.104 C 161.591 104.818, 163.105 102.823, 162.890 102.671 C 162.676 102.519, 161.220 101.593, 159.656 100.613 C 158.010 99.581, 155.747 96.505, 154.284 93.309 C 151.911 88.126, 151.793 87.106, 152.347 76.644 C 152.672 70.515, 153.214 64.130, 153.552 62.455 L 154.167 59.410 144.590 56.705 C 138.108 54.874, 132.508 53.981, 127.257 53.940 C 122.991 53.908, 117.362 53.529, 114.750 53.099 L 110 52.317 110 56.076 M 110 85.044 C 110 106.552, 110.062 107.254, 111.829 105.655 C 112.835 104.745, 114.343 104, 115.182 104 C 117.321 104, 127.731 91.506, 130.596 85.500 C 133.584 79.235, 133.610 76.203, 130.714 71.898 C 128.344 68.374, 121.284 64.867, 113.750 63.472 L 110 62.777 110 85.044 M 50.405 67.574 C 45.359 79.650, 39.878 104.632, 41.402 108.605 C 41.987 110.130, 42.290 110.076, 44.425 108.070 C 50.506 102.358, 56.077 81.360, 54.592 69.750 C 54.187 66.588, 53.416 64, 52.877 64 C 52.339 64, 51.226 65.608, 50.405 67.574" stroke="none" fill="black" fill-rule="evenodd"/>
</svg>