<svg xmlns="http://www.w3.org/2000/svg" width="200" height="200" viewBox="0 0 200 200" version="1.1">
	<path d="M 102.500 15 C 100.753 16.930, 99.420 17, 64.345 17 C 32.705 17, 28 17.194, 28 18.500 C 28 19.765, 30.291 20, 42.617 20 L 57.233 20 56.580 22.250 C 56.221 23.488, 55.655 26.862, 55.323 29.750 C 54.992 32.638, 54.221 34.991, 53.610 34.980 C 53 34.969, 48.040 32.269, 42.589 28.980 C 37.138 25.691, 32.113 23, 31.422 23 C 29.593 23, 29.336 24.562, 30.126 30.869 C 30.514 33.966, 30.869 40.663, 30.916 45.750 C 30.988 53.655, 31.240 55, 32.654 55 C 34.140 55, 34.246 53.688, 33.696 42.191 C 33.359 35.145, 32.755 28.526, 32.354 27.481 C 31.694 25.760, 31.994 25.804, 35.563 27.956 C 37.728 29.262, 42.987 32.329, 47.250 34.772 C 51.919 37.447, 55.009 39.867, 55.022 40.857 C 55.066 44.122, 58.879 50.830, 64.371 57.304 C 69.723 63.613, 73.988 69.751, 73.996 71.156 C 73.998 71.517, 71.814 72.113, 69.142 72.480 C 56.164 74.265, 51.423 84.443, 55.505 101.756 C 57.232 109.084, 61.105 118.622, 64.602 124.161 L 67.077 128.083 65.064 130.910 C 63.957 132.465, 60.237 136.342, 56.799 139.526 C 41.705 153.500, 18 157.939, 18 146.792 C 18 144.199, 19.268 142.379, 25.040 136.686 C 34.002 127.848, 35.349 124.871, 35.309 114 C 35.276 104.983, 34.045 100.782, 25.646 81 C 20.444 68.749, 20.841 66.467, 28.284 65.825 C 33.647 65.361, 32.848 63.486, 27.324 63.572 C 23.706 63.628, 22.285 64.165, 20.759 66.049 C 18.119 69.309, 18.702 72.072, 25.309 87.611 C 31.829 102.944, 33.433 109.284, 32.738 116.956 C 32.056 124.477, 30.174 127.866, 22.504 135.386 C 13.457 144.257, 12.638 150.479, 20.011 154.315 C 29.510 159.257, 47.851 152.410, 61.200 138.937 C 65.435 134.663, 69.710 131.001, 70.700 130.800 C 72.076 130.520, 72.472 129.549, 72.383 126.683 C 72.238 122.048, 71.393 121.081, 69.614 123.513 C 68.328 125.272, 68.141 125.180, 66.409 121.940 C 60.167 110.265, 56.999 99.891, 57.004 91.145 C 57.010 80.121, 61.915 75, 72.468 75 C 76.363 75, 77 74.713, 77 72.960 C 77 69.754, 73.638 64.061, 67.576 57 C 62.028 50.539, 57.248 42.419, 58.345 41.321 C 58.661 41.005, 63.100 42.552, 68.210 44.757 C 73.319 46.963, 79.638 49.556, 82.250 50.519 C 84.862 51.483, 87 52.631, 87 53.071 C 87 55.013, 84.773 59.448, 83.211 60.618 C 81.656 61.782, 81.853 62.192, 85.379 65.128 C 95.887 73.878, 95.272 84.144, 83.057 103.908 C 76.345 114.769, 75.461 118.809, 79.223 121.443 C 80.445 122.299, 83.145 123, 85.223 123 C 88.699 123, 89 123.225, 89 125.818 C 89 133.072, 82.138 148.761, 72.419 163.726 C 60.079 182.726, 61.139 185.244, 77.542 175.893 C 90.769 168.352, 92.191 167.025, 99.084 155.784 C 114.366 130.861, 123.630 119, 127.813 119 C 130.806 119, 132.307 123.753, 132.783 134.730 C 133.109 142.270, 132.773 146.807, 131.504 151.985 C 129.197 161.399, 129.712 172.796, 132.621 176.699 C 138.223 184.214, 145.716 184.643, 153.390 177.888 C 162.109 170.213, 164.360 156.914, 159.435 142.176 C 158.024 137.954, 155.801 132.666, 154.494 130.424 L 152.119 126.348 156.932 125.114 C 164.479 123.180, 173.330 118.585, 176.293 115.064 C 182.601 107.567, 176.821 99.290, 164.895 98.745 L 159.542 98.500 158.735 93.672 C 156.931 82.889, 161.157 72.255, 171.950 60.415 C 181.117 50.359, 180.791 49.510, 168.089 50.368 C 162.815 50.724, 157.375 51.310, 156 51.670 C 153.828 52.238, 154.131 51.644, 158.307 47.144 C 169.710 34.856, 169.836 22.460, 158.618 16.670 C 153.755 14.161, 144.807 13.999, 140.300 16.338 C 137.935 17.566, 134.462 18, 126.997 18 C 117.868 18, 116.539 17.759, 113.215 15.500 C 108.774 12.482, 104.940 12.303, 102.500 15 M 106.269 16.693 C 107.242 16.947, 108.592 16.930, 109.269 16.656 C 109.946 16.382, 109.150 16.175, 107.500 16.195 C 105.850 16.215, 105.296 16.439, 106.269 16.693 M 142.500 18.529 C 140.300 19.321, 138.448 19.977, 138.384 19.985 C 138.321 19.993, 138.047 23.098, 137.776 26.884 C 137.391 32.271, 136.383 35.629, 133.142 42.325 C 130.864 47.031, 129 51.761, 129 52.836 C 129 53.910, 129.923 57.778, 131.051 61.430 L 133.102 68.070 131.123 75.285 C 127.847 87.223, 123.009 99.681, 120.912 101.580 C 119.042 103.272, 118.847 103.275, 117.219 101.639 C 115.703 100.115, 115.516 97.641, 115.635 80.703 L 115.769 61.495 102.961 57.402 L 90.154 53.309 88.524 57.577 L 86.894 61.844 90.419 66.462 C 98.726 77.344, 97.677 84.568, 84.540 106.976 C 81.484 112.188, 79.136 116.913, 79.321 117.476 C 79.897 119.228, 84.330 120.970, 88.250 120.985 C 91.775 120.999, 92 121.186, 92 124.106 C 92 133.225, 85.352 148.773, 73.685 166.938 C 70.011 172.658, 67.220 177.553, 67.482 177.816 C 68.029 178.362, 82.931 169.936, 87.622 166.428 C 89.339 165.144, 94.737 157.660, 99.617 149.797 C 114.365 126.034, 122.850 116, 128.194 116 C 130.862 116, 133.964 120.538, 134.988 125.939 C 136.295 132.827, 136.289 146.109, 134.979 149.556 C 133.120 154.446, 132.170 164.522, 133.090 169.587 C 135.062 180.431, 144.448 183.243, 152.393 175.368 C 156.967 170.834, 158.955 165.431, 158.966 157.500 C 158.979 148.665, 157.322 142.478, 152.406 133 C 150.267 128.875, 148.384 125.227, 148.223 124.894 C 148.062 124.561, 150.754 123.689, 154.206 122.956 C 161.741 121.357, 173.591 115.633, 175.064 112.880 C 177.992 107.410, 173.146 101.545, 165.711 101.558 C 163.395 101.563, 160.740 101.926, 159.811 102.367 C 157.304 103.555, 155.679 96.377, 156.219 86.500 C 156.788 76.074, 160.094 69.058, 168.771 59.860 C 172.355 56.061, 175.097 52.763, 174.864 52.531 C 174.632 52.299, 168.155 52.925, 160.471 53.923 C 152.787 54.920, 146.331 55.589, 146.124 55.409 C 145.918 55.229, 147.241 53.827, 149.064 52.293 C 158.716 44.171, 164 36.131, 164 29.565 C 164 24.378, 161.864 21.296, 156.617 18.914 C 151.711 16.685, 147.905 16.582, 142.500 18.529 M 59.226 23.750 C 58.626 25.813, 57.837 29.585, 57.472 32.133 L 56.808 36.766 62.654 39.481 C 72.148 43.891, 86.105 49.132, 87.297 48.734 C 87.905 48.532, 89.824 43.671, 91.563 37.933 C 93.301 32.195, 95.466 25.813, 96.375 23.750 L 98.027 20 79.172 20 L 60.317 20 59.226 23.750 M 98.694 25.750 C 97.276 28.913, 94.907 35.713, 93.431 40.863 C 91.294 48.314, 91.012 50.389, 92.046 51.029 C 92.761 51.471, 99.078 53.528, 106.083 55.601 L 118.820 59.369 118.660 78.435 C 118.572 88.921, 118.879 97.725, 119.342 98 C 120.414 98.637, 124.060 89.692, 127.517 77.943 C 130.326 68.397, 130.252 66.788, 126.488 55.286 C 126.185 54.361, 125.443 54.407, 123.375 55.480 C 120.676 56.881, 117.915 56.290, 116.506 54.009 C 114.884 51.385, 114.211 41.364, 115.056 32.429 C 115.712 25.500, 115.657 22.292, 114.867 21.340 C 114.155 20.482, 111.510 20, 107.514 20 L 101.273 20 98.694 25.750 M 118.004 27.250 C 117.025 41.555, 117.495 50.924, 119.281 52.710 C 120.823 54.252, 121.070 54.247, 122.849 52.637 C 124.371 51.259, 124.849 49.137, 125.197 42.204 C 125.632 33.556, 127.452 27.874, 131.589 22.250 L 133.244 20 125.872 20 L 118.500 20 118.004 27.250 M 131.462 27.475 C 129.329 31.114, 128.642 33.740, 128.360 39.325 L 127.997 46.500 130.989 40.459 C 134.224 33.932, 136.365 25.021, 135.029 23.650 C 134.574 23.183, 132.968 24.904, 131.462 27.475" stroke="none" fill="black" fill-rule="evenodd"/>
</svg>