<svg xmlns="http://www.w3.org/2000/svg" width="200" height="200" viewBox="0 0 200 200" version="1.1">
	<path d="M 76.056 24.944 C 73.887 27.113, 72.479 32.898, 73.329 36.148 C 73.859 38.178, 73.631 38.246, 68.191 37.678 C 65.059 37.350, 55.298 36.793, 46.498 36.438 C 33.259 35.905, 30.168 36.046, 28.577 37.260 C 26.702 38.689, 26.715 38.766, 29.077 40.277 C 31.489 41.821, 47.524 45.335, 58 46.616 C 67.762 47.810, 67.887 48.093, 60.828 52.994 C 39.837 67.567, 25 80.695, 25 84.695 C 25 85.997, 25.628 87.304, 26.395 87.598 C 29.690 88.862, 45.246 82.426, 61.905 72.907 L 69.311 68.675 66.961 72.856 C 65.668 75.156, 55.923 85.588, 45.305 96.039 C 33.131 108.022, 26 115.772, 26 117.020 C 26 120.293, 30.556 119.425, 41.827 114.005 L 52.154 109.039 58.077 111.532 C 67.159 115.355, 74.677 117.073, 77.547 115.982 C 79.920 115.080, 80 114.730, 80.004 105.275 C 80.007 97.439, 80.384 94.882, 81.906 92.387 C 84.209 88.610, 90.727 85.301, 98.831 83.794 C 104.040 82.826, 105.202 82.902, 107.427 84.360 C 110.774 86.553, 110.672 88.642, 106.944 94.271 C 99.352 105.733, 65.237 129.324, 40.506 140.215 C 28.681 145.422, 26 147.077, 26 149.170 C 26 151.171, 28.200 151.643, 41 152.392 C 55.011 153.211, 61.930 156.696, 64.131 164.043 C 65.506 168.631, 64.092 175.911, 60.419 183.159 C 57.009 189.889, 58.613 191.046, 64.804 186.320 C 79.628 175.004, 98.493 170.861, 119 174.416 C 124.225 175.322, 134.519 177.875, 141.876 180.090 C 149.233 182.305, 155.812 183.903, 156.495 183.640 C 157.178 183.378, 158.922 179.864, 160.369 175.832 C 168.371 153.539, 167.835 131.152, 159.080 121.973 C 154.122 116.775, 148.606 115.218, 141.155 116.914 C 131.891 119.021, 131.904 119.025, 129.655 113.596 L 127.624 108.693 131.562 105.326 C 142.352 96.099, 165.275 82.015, 172.677 80.064 C 176.794 78.978, 182 74.235, 182 71.569 C 182 69.752, 177.814 65.472, 174.219 63.613 C 169.160 60.997, 161.295 58.278, 145.365 53.637 C 137.041 51.213, 129.432 48.781, 128.456 48.235 C 126.824 47.322, 126.875 47.131, 129.090 45.872 C 130.935 44.823, 135.944 44.550, 150.457 44.706 C 167.128 44.886, 169.927 44.683, 173.670 43.028 C 179.409 40.489, 180.366 37.035, 176.460 32.958 C 172.530 28.856, 168.116 27.691, 158.436 28.199 C 151.396 28.568, 148.993 29.194, 142.741 32.283 C 138.681 34.290, 133.358 37.635, 130.913 39.716 C 128.468 41.797, 125.575 44.021, 124.484 44.657 C 123.393 45.293, 122.627 46.348, 122.781 47.001 C 123.912 51.772, 110.827 36.379, 107.267 28.750 C 105.791 25.588, 104.002 23, 103.292 23 C 101.563 23, 101.673 24.864, 103.615 28.500 C 104.496 30.150, 105.589 32.743, 106.043 34.263 L 106.868 37.025 102.589 33.520 C 96.391 28.441, 85.446 23, 81.427 23 C 79.366 23, 77.225 23.775, 76.056 24.944 M 76.912 28.164 C 76.209 29.478, 75.976 32.475, 76.318 35.795 L 76.882 41.262 71.691 40.662 C 68.836 40.332, 59.075 39.832, 50 39.550 C 34.060 39.055, 33.704 39.087, 39.500 40.482 C 42.800 41.276, 51.800 42.856, 59.500 43.994 C 67.200 45.131, 73.884 46.176, 74.353 46.315 C 74.823 46.455, 71.898 48.764, 67.853 51.447 C 46.655 65.510, 24.579 84.103, 28.243 84.808 C 30.868 85.314, 45.827 78.837, 57.492 72.144 C 63.301 68.811, 68.717 66.338, 69.527 66.649 C 72.043 67.614, 71.156 72.020, 67.420 77.110 C 65.450 79.792, 56.127 89.391, 46.701 98.441 C 37.275 107.491, 29.859 115.192, 30.221 115.554 C 30.583 115.916, 35.647 113.934, 41.475 111.151 L 52.071 106.089 59.285 108.953 C 69.216 112.895, 74.573 114.378, 76.380 113.685 C 77.652 113.196, 77.810 111.689, 77.319 104.735 C 76.835 97.876, 77.055 95.686, 78.543 92.552 C 80.939 87.501, 87.427 83.486, 96.428 81.484 C 104.040 79.790, 107.487 80.321, 111.300 83.772 C 113.013 85.321, 113.051 85.264, 112.051 82.635 C 109.722 76.508, 109.144 76, 104.502 76 C 102.067 76, 97.610 75.078, 94.598 73.951 C 83.257 69.707, 79.945 61.208, 85.947 51.745 C 88.630 47.513, 96.399 41.066, 97.495 42.161 C 97.744 42.411, 100.683 49.114, 104.024 57.058 C 107.366 65.001, 110.558 71.950, 111.118 72.500 C 111.809 73.178, 111.927 71.408, 111.483 67 C 110.430 56.540, 107.979 41.571, 107.210 40.900 C 92.083 27.695, 79.903 22.575, 76.912 28.164 M 152.265 31.542 C 146.711 33.037, 138.976 36.754, 135.256 39.714 C 133.080 41.447, 133.564 41.507, 151.557 41.749 C 166.582 41.952, 170.661 41.710, 173.051 40.474 C 174.673 39.635, 176 38.303, 176 37.513 C 176 35.176, 172.142 32.273, 167.473 31.098 C 161.916 29.698, 158.767 29.790, 152.265 31.542 M 110 39.899 C 110 40.299, 111.397 41.948, 113.104 43.563 C 120.762 50.808, 128.583 62.976, 129.186 68.585 C 129.488 71.385, 129.213 71.594, 122.250 73.887 C 115.367 76.153, 115 76.427, 115 79.308 C 115 82.034, 124.363 104.502, 125.880 105.416 C 126.221 105.622, 130.888 102.475, 136.250 98.423 C 148.259 89.350, 165.052 79.286, 170.777 77.732 C 176.218 76.255, 179.879 72.626, 178.371 70.205 C 176.616 67.390, 170.124 64.250, 158.500 60.595 C 129.823 51.577, 124.538 50.139, 123.438 51.051 C 122.669 51.690, 120.340 49.941, 116.154 45.581 C 112.769 42.057, 110 39.500, 110 39.899 M 91.247 49.250 C 87.295 53.333, 84.772 59.242, 85.589 62.498 C 86.386 65.673, 91.864 70.495, 96.164 71.805 C 101.483 73.425, 108.225 74.168, 107.842 73.091 C 105.094 65.364, 96.239 46.017, 95.446 46.010 C 94.867 46.004, 92.977 47.462, 91.247 49.250 M 112.380 50.500 C 112.757 53.250, 113.340 58.952, 113.675 63.171 C 114.010 67.390, 114.610 71.369, 115.009 72.014 C 115.548 72.887, 117.171 72.733, 121.375 71.408 C 126.284 69.860, 126.936 69.361, 126.395 67.565 C 125.176 63.515, 120.852 56.415, 116.309 51 L 111.693 45.500 112.380 50.500 M 111.143 92.715 C 109.319 97.038, 95.531 110.039, 84.482 117.853 C 71.854 126.786, 53.850 137.294, 42.850 142.154 C 28.800 148.362, 28.169 148.996, 36.027 149.017 C 43.980 149.039, 55.142 151.315, 59.353 153.774 C 64.506 156.784, 67 161.430, 67 168.022 C 67 171.172, 66.325 175.662, 65.500 178 C 64.675 180.338, 64 182.356, 64 182.483 C 64 182.610, 68.167 180.624, 73.261 178.070 C 82.381 173.496, 88.160 171.780, 98.997 170.430 L 104.494 169.744 99.280 167.444 C 92.441 164.425, 84.528 156.948, 82.470 151.561 C 81.024 147.773, 81.006 146.922, 82.308 143.806 C 83.124 141.851, 85.336 139.338, 87.314 138.115 C 91.188 135.721, 102.247 133.045, 108.382 133.017 L 112.263 133 111.687 128.750 C 111.370 126.412, 111.555 122.700, 112.098 120.500 C 112.641 118.300, 112.954 110.425, 112.793 103 C 112.523 90.578, 112.392 89.757, 111.143 92.715 M 115.418 103.597 C 115.373 110.419, 115.432 116, 115.550 116 C 115.668 116, 117.589 114.175, 119.820 111.945 L 123.875 107.890 119.966 99.807 C 117.816 95.361, 115.932 91.605, 115.779 91.459 C 115.625 91.313, 115.463 96.775, 115.418 103.597 M 119.593 116.108 C 115.091 121.115, 113.545 125.983, 115.979 127.487 C 116.517 127.820, 119.832 126.358, 123.345 124.239 L 129.732 120.387 127.347 115.693 C 126.035 113.112, 124.787 111, 124.574 111 C 124.360 111, 122.119 113.299, 119.593 116.108 M 137.750 120.203 C 133.423 121.352, 133.319 121.744, 135.960 126.921 C 137.697 130.326, 137.920 132.870, 137.925 149.363 L 137.931 167.963 130.715 170.171 L 123.500 172.379 127.500 173.223 C 129.700 173.687, 136.721 175.627, 143.103 177.534 C 149.485 179.440, 154.978 181, 155.310 181 C 156.152 181, 160.556 166.769, 162.019 159.321 C 162.699 155.858, 163.060 148.606, 162.841 142.821 C 162.513 134.163, 162.051 131.781, 159.975 128.039 C 155.400 119.792, 148.481 117.352, 137.750 120.203 M 124.700 126.503 C 121.510 128.426, 118.052 130, 117.016 130 C 115.705 130, 115.037 130.835, 114.816 132.750 C 114.508 135.435, 114.310 135.515, 106.500 136.115 C 96.350 136.894, 90.584 138.652, 86.906 142.088 C 83.348 145.411, 83.253 148.049, 86.490 153.572 C 89.719 159.083, 98.895 165.208, 107.351 167.497 C 114.703 169.487, 127.512 169.221, 132.250 166.980 L 135 165.679 135 148.300 C 135 132.835, 134.777 130.484, 132.980 126.960 C 131.868 124.782, 130.856 123.001, 130.730 123.003 C 130.603 123.004, 127.890 124.579, 124.700 126.503" stroke="none" fill="black" fill-rule="evenodd"/>
</svg>