<svg xmlns="http://www.w3.org/2000/svg" width="200" height="200" viewBox="0 0 200 200" version="1.1">
	<path d="M 79.626 12.797 C 79.344 13.253, 79.566 22.514, 80.119 33.376 C 80.672 44.239, 80.974 53.579, 80.790 54.131 C 80.606 54.683, 76.870 49.817, 72.488 43.318 C 61.751 27.390, 53.358 16.351, 51.418 15.607 C 46.691 13.793, 47.191 18.159, 53.481 33.628 C 57.245 42.885, 58.031 46.026, 58.588 54.034 C 59.342 64.882, 57.918 76.136, 54.938 82.872 C 53.372 86.413, 52.697 87.097, 51.729 86.129 C 50.047 84.447, 50.454 66.929, 52.428 56 C 54.784 42.952, 54.885 43.313, 48.352 41.414 C 37.987 38.401, 32.058 42.283, 28.364 54.500 C 26.782 59.731, 26.546 64.475, 26.525 91.500 L 26.500 122.500 30.500 122.181 C 35.268 121.801, 59.662 113.760, 73 108.171 L 82.500 104.191 83.119 111.346 C 84.284 124.804, 84.109 136.998, 82.750 137.022 C 77.075 137.121, 41.690 139.977, 41.300 140.367 C 39.874 141.793, 42.767 142.776, 50.214 143.397 C 66.518 144.757, 80.515 149.357, 83.112 154.209 C 83.763 155.426, 84.342 158.885, 84.398 161.896 C 84.493 167.008, 84.283 167.520, 81.232 169.599 C 74.684 174.060, 57.421 174.958, 28.250 172.357 C 21.409 171.746, 21 171.825, 21 173.749 C 21 175.330, 22.499 176.387, 27.682 178.462 L 34.365 181.138 60.932 180.432 C 75.545 180.044, 94.128 180.059, 102.228 180.466 L 116.957 181.206 121.386 187.166 L 125.815 193.127 129.116 186.934 L 132.417 180.741 150.056 181.447 C 164.609 182.031, 168.319 181.893, 171.267 180.662 C 177.703 177.973, 178.697 173.003, 173.894 167.532 C 169.637 162.683, 161.969 160.412, 154.943 161.919 C 147.653 163.482, 142.357 166.512, 136.260 172.609 L 130.870 178 124.396 178 L 117.922 178 114.461 170.778 C 112.076 165.802, 111 162.140, 111 159.001 C 111 148.590, 117.002 145.959, 145.164 144.024 C 160.381 142.978, 163.555 142.302, 166.345 139.512 C 168.941 136.916, 168.313 135.036, 164.250 133.244 C 161.137 131.871, 156.594 131.577, 137.500 131.511 C 124.850 131.467, 113.713 131.061, 112.750 130.609 C 109.943 129.289, 110.703 125.335, 114.589 121.033 C 116.564 118.848, 118.645 117.159, 119.214 117.280 C 121.581 117.783, 120.802 115.174, 117.513 111.584 C 114.479 108.272, 114 107.069, 114 102.769 C 114 88.904, 104.772 70.036, 95.697 65.343 C 93.926 64.427, 91.391 63.999, 89.528 64.302 C 85.627 64.935, 84 62.797, 84 57.036 L 84 53.044 88.696 56.022 C 94.646 59.796, 99.313 59.978, 101.575 56.525 C 102.467 55.164, 104.101 49.877, 105.207 44.775 C 108.351 30.265, 111.758 25.172, 119.740 23.054 C 124.327 21.836, 134 22.629, 134 24.223 C 134 24.753, 132.609 29.666, 130.908 35.140 C 129.207 40.614, 127.745 47.209, 127.658 49.796 C 127.516 54.015, 127.740 54.534, 129.829 54.830 C 131.371 55.048, 135.259 53.119, 141.329 49.124 C 146.373 45.804, 152.173 42.393, 154.218 41.544 C 158.570 39.736, 166.200 39.522, 169.316 41.120 C 171.978 42.485, 178 48.086, 178 49.196 C 178 49.638, 175.347 50, 172.105 50 C 155.360 50, 137.758 61.973, 133.519 76.247 C 131.649 82.545, 131.649 82.457, 133.570 86.507 C 135.603 90.791, 139.604 92.424, 146.358 91.727 C 152.157 91.128, 162.543 86.800, 169.587 82.046 C 172.069 80.371, 174.700 79, 175.434 79 C 178.872 79, 177.802 89.511, 173.497 98.006 C 170.384 104.148, 164.811 109.900, 159.467 112.485 C 153.906 115.175, 143.669 115.627, 136.371 113.505 C 129.604 111.538, 129.652 111.543, 129.233 112.800 C 128.688 114.437, 137.194 117.165, 144.593 117.727 C 154.273 118.461, 160.363 116.349, 167.579 109.754 C 174.650 103.291, 179.086 94.795, 179.758 86.428 C 180.640 75.437, 177.449 73.516, 168.344 79.559 C 159.673 85.315, 152.103 88.372, 145.500 88.782 C 137.378 89.288, 135.476 87.840, 135.570 81.225 C 135.748 68.664, 150.364 55.737, 167.481 53.003 C 171.216 52.406, 176.236 52.213, 178.636 52.573 C 183.816 53.350, 184.003 52.684, 180.108 47.307 C 174.450 39.498, 168.099 36.354, 159.931 37.322 C 154.428 37.974, 149.405 40.345, 139.500 46.967 C 128.818 54.108, 129.597 53.959, 130.314 48.727 C 130.660 46.205, 132.566 39.120, 134.550 32.983 C 136.534 26.845, 137.924 21.590, 137.638 21.305 C 136.414 20.081, 120.141 19.798, 116.678 20.941 C 109.414 23.339, 104.892 31.288, 101.903 46.912 C 100.387 54.837, 98.212 57.405, 94.268 55.926 C 92.746 55.355, 89.857 53.758, 87.848 52.376 C 83.782 49.579, 83.995 50.707, 82.431 23.750 C 81.863 13.951, 80.998 10.576, 79.626 12.797 M 51 19.560 C 51 19.868, 53.023 25.059, 55.495 31.095 C 58.900 39.408, 60.258 44.347, 61.098 51.466 C 62.462 63.033, 61.014 76.020, 57.498 83.750 C 55.515 88.110, 54.673 89, 52.531 89 C 48.534 89, 47.707 85.446, 48.339 71 C 48.639 64.125, 49.447 55.654, 50.133 52.177 C 51.537 45.061, 51.249 44.558, 45.098 43.375 C 40.417 42.474, 36.974 43.914, 34.291 47.896 C 30.093 54.126, 29.707 57.300, 29.258 89.291 L 28.826 120.082 31.663 119.446 C 40.803 117.399, 80.764 102.752, 82.474 100.822 C 82.632 100.645, 82.459 91.725, 82.092 81 L 81.423 61.500 73.039 49 C 63.954 35.456, 52.095 19, 51.420 19 C 51.189 19, 51 19.252, 51 19.560 M 89.308 68.361 C 89.595 69.109, 94.481 76.957, 100.165 85.801 C 108.451 98.693, 110.563 101.395, 110.818 99.429 C 111.669 92.850, 104.231 76.248, 97.848 70.482 C 93.949 66.959, 88.225 65.537, 89.308 68.361 M 85.607 71.582 C 85.273 72.452, 85 77.378, 85 82.530 L 85 91.895 90.250 92.198 C 94.733 92.456, 95.500 92.792, 95.500 94.500 C 95.500 95.800, 93.833 97.550, 90.737 99.500 L 85.975 102.500 86.237 121.658 C 86.382 132.195, 86.173 141.147, 85.774 141.551 C 85.375 141.955, 84.397 141.745, 83.601 141.084 C 82.544 140.206, 79.102 140.078, 70.827 140.609 L 59.500 141.334 66.671 143.106 C 82.112 146.922, 88 152.640, 88 163.820 C 88 168.461, 83.768 172.411, 76.398 174.648 C 70.105 176.559, 50.244 177.080, 35 175.734 C 27.668 175.087, 27.577 175.107, 30.928 176.612 C 33.692 177.853, 38.054 178.108, 53.428 177.929 C 63.918 177.807, 82.049 177.819, 93.721 177.955 L 114.942 178.202 111.767 171.851 C 107.462 163.238, 106.906 155.852, 110.197 151 C 114.097 145.251, 120.682 143.282, 141.713 141.577 C 158.112 140.248, 165 138.878, 165 136.946 C 165 135.037, 159.795 134.558, 138.500 134.506 C 113.372 134.445, 109.483 133.774, 108.360 129.300 C 107.604 126.286, 108.891 123.332, 113 118.653 C 116.281 114.916, 116.261 113, 112.941 113 C 111.507 113, 111 112.306, 111 110.344 C 111 108.654, 106.599 100.834, 98.900 88.844 C 92.245 78.480, 86.668 70, 86.507 70 C 86.346 70, 85.941 70.712, 85.607 71.582 M 86 97 C 86 99.472, 86.178 99.472, 90.226 97.004 L 93.500 95.007 89.750 95.004 C 86.665 95.001, 86 95.355, 86 97 M 151.882 165.321 C 146.733 167.246, 142.013 170.337, 138.204 174.279 L 134.908 177.690 146.704 178.523 C 169.881 180.159, 175.405 178.734, 173.610 171.580 C 172.222 166.053, 159.628 162.425, 151.882 165.321 M 121.005 181.750 C 121.008 182.162, 122.031 183.776, 123.279 185.335 L 125.548 188.171 127.258 184.585 L 128.968 181 124.984 181 C 122.793 181, 121.002 181.338, 121.005 181.750" stroke="none" fill="black" fill-rule="evenodd"/>
</svg>