<svg xmlns="http://www.w3.org/2000/svg" width="200" height="200" viewBox="0 0 200 200" version="1.1">
	<path d="M 118.230 17.508 C 104.757 21.243, 98.695 27.690, 103.580 33.088 C 104.801 34.437, 104.914 35.292, 104.080 36.851 C 103.486 37.961, 103 39.798, 103 40.934 C 103 43.350, 101.984 43.410, 91 41.638 C 84.660 40.615, 83.491 40.124, 83.443 38.464 C 83.323 34.387, 81.977 31.352, 79.038 28.536 C 73.380 23.116, 60.921 23.846, 44.129 30.583 C 37.904 33.080, 35.293 33.692, 33.945 32.970 C 28.349 29.976, 21.387 34.677, 17.996 43.740 C 13.984 54.462, 12.765 67.323, 13.324 93 C 13.872 118.136, 15.616 132.937, 19.328 143.938 L 21.500 150.375 29.461 152.259 C 38.916 154.497, 42.797 153.995, 47.417 149.939 C 55.404 142.926, 57.881 131.766, 58.722 99 C 59.337 75.003, 59.375 74.664, 60.555 82.500 C 62.237 93.675, 65.402 101.374, 70.357 106.344 C 72.636 108.630, 75.352 110.969, 76.394 111.542 C 78.070 112.464, 77.244 113.362, 69.231 119.328 L 60.174 126.072 59.466 134.569 C 59.076 139.243, 58.968 145.602, 59.225 148.700 C 59.989 157.912, 64.838 160.069, 70.315 153.633 C 72.726 150.800, 77.998 139.943, 77.999 137.809 C 78.001 135.045, 79.630 134.839, 83.895 137.062 C 92.519 141.557, 94.131 136.966, 88.649 123.521 C 84.751 113.959, 85.046 113.476, 92.672 116.938 C 100.300 120.401, 102.531 127.291, 99.044 136.612 C 95.312 146.586, 91 163.180, 91 167.566 C 91 179.875, 100.949 169.151, 114.255 142.500 C 122.732 125.520, 129.618 103.457, 128.819 95.836 C 128.604 93.784, 129.696 91.751, 133.195 87.699 C 143.538 75.719, 145.495 70.026, 140.539 66.333 L 138.079 64.500 141.003 61 L 143.928 57.500 147.714 59.622 C 149.796 60.790, 152.850 63.642, 154.500 65.960 C 157.194 69.745, 157.491 70.905, 157.407 77.337 C 157.348 81.957, 156.547 86.631, 155.153 90.500 C 152.988 96.509, 145.714 108.139, 142.043 111.461 C 140.132 113.191, 140.101 113.150, 140.675 109.615 C 143.041 95.033, 128.657 125.730, 118.471 157 C 114.177 170.182, 113.242 180.436, 116.163 182.312 C 117.456 183.142, 118.720 182.789, 121.833 180.729 C 125.454 178.333, 135.053 168.045, 139.224 162.090 L 140.864 159.749 148.416 166.624 C 152.570 170.406, 157.853 174.516, 160.156 175.758 C 163.794 177.719, 164.610 177.839, 166.374 176.668 C 169.847 174.362, 170.104 170.462, 167.933 153 C 164.777 127.618, 164.426 116.937, 166.424 107.076 C 168.523 96.717, 171.588 90.508, 177.029 85.593 C 179.818 83.073, 180.880 81.480, 180.213 80.813 C 178.755 79.355, 171.934 85.868, 168.704 91.802 C 162.147 103.850, 161.007 121.323, 164.875 150.500 C 167.233 168.288, 167.405 171.811, 166.023 173.998 C 164.580 176.279, 159.489 173.118, 149.393 163.672 C 144.714 159.295, 140.538 156.115, 140.112 156.607 C 139.687 157.098, 136.615 160.887, 133.287 165.027 C 126.778 173.124, 119.693 180, 117.860 180 C 115.902 180, 117.547 168.238, 120.997 157.571 C 122.764 152.110, 126.658 141.535, 129.651 134.071 C 134.907 120.964, 135.321 120.295, 141.723 114.512 C 157.656 100.119, 164.568 79.257, 157.755 66.126 L 155.139 61.084 160.160 63.063 C 162.921 64.151, 166.433 65.690, 167.963 66.481 C 170.539 67.813, 172 67.636, 172 65.994 C 172 65.119, 168.608 63.527, 157.049 58.980 C 150.257 56.308, 148.147 55.097, 149.549 54.675 C 150.622 54.352, 156.639 52.918, 162.920 51.488 C 169.201 50.058, 175.259 48.396, 176.383 47.795 C 178.394 46.719, 178.395 46.690, 176.463 45.988 C 174.695 45.346, 170.774 45.628, 155.792 47.477 L 151.084 48.058 153.738 42.279 C 158.843 31.159, 157.039 23.078, 148.443 18.569 C 143.340 15.891, 126.228 15.291, 118.230 17.508 M 127.500 18.565 C 126.400 18.815, 123.025 19.519, 120 20.128 C 113.539 21.431, 108.287 23.916, 105.509 26.988 L 103.519 29.189 106.201 31.497 L 108.884 33.804 107.006 37.488 C 104.973 41.476, 105.235 43.647, 107.842 44.407 C 121.796 48.471, 133.280 49.746, 143.416 48.356 C 147.822 47.753, 148.266 47.409, 150.612 42.778 C 153.956 36.180, 154.807 28.880, 152.621 25.544 C 150.100 21.697, 143.992 19.084, 136.315 18.569 C 132.567 18.317, 128.600 18.315, 127.500 18.565 M 68.674 29.044 C 70.969 29.498, 74.232 30.586, 75.924 31.460 C 77.616 32.335, 79 32.601, 79 32.051 C 79 30.245, 73.184 27.998, 68.800 28.110 L 64.500 28.219 68.674 29.044 M 52.500 30.205 C 50.850 30.781, 46.486 32.515, 42.803 34.059 C 37.159 36.424, 35.653 36.695, 33.229 35.780 C 26.419 33.210, 22.365 37.424, 18.935 50.638 C 13.798 70.427, 15.190 120.620, 21.483 142.500 C 22.905 147.445, 22.986 147.519, 28.917 149.250 C 39.933 152.465, 45.115 150.880, 49.415 142.978 C 54.005 134.546, 55.004 127.015, 56.047 93 C 56.975 62.724, 58.059 47.606, 59.585 43.635 C 60.248 41.910, 59.899 41.822, 54.901 42.458 C 51.930 42.836, 48.736 43.360, 47.803 43.623 C 45.379 44.306, 42.422 52.992, 40.409 65.343 C 38.850 74.916, 38.802 77.757, 39.941 93.250 C 41.284 111.515, 41.143 120.052, 39.500 119.996 C 37.756 119.937, 36.929 114.898, 36.298 100.500 C 35.711 87.093, 35.546 86.246, 32.392 80.500 C 22.868 63.147, 24.810 50.749, 38.094 44.111 C 41.584 42.367, 45.848 39.200, 47.839 36.875 C 49.785 34.602, 52.755 31.901, 54.439 30.874 C 57.800 28.825, 57.124 28.591, 52.500 30.205 M 56.105 33.192 C 53.688 34.489, 51.110 36.455, 50.376 37.561 C 49.057 39.547, 49.236 39.571, 65.020 39.571 C 83.107 39.571, 84.921 38.684, 75.577 34.407 C 67.428 30.676, 61.486 30.305, 56.105 33.192 M 62.490 54.341 C 61.074 78.884, 64.324 96.217, 71.864 104.339 C 74.323 106.988, 80 110.641, 80 109.574 C 80 109.312, 79.325 106.506, 78.500 103.339 C 76.538 95.805, 76.608 91.284, 78.752 87.034 C 80.770 83.033, 85.089 80.235, 90.820 79.214 L 94.832 78.500 89.360 70.136 C 84.185 62.227, 83.727 61.805, 80.944 62.361 C 77.774 62.995, 77.317 62.144, 79.070 58.870 C 79.878 57.359, 80.793 57.012, 82.820 57.448 C 84.294 57.765, 90.900 56.937, 97.500 55.607 C 104.100 54.277, 112.875 52.835, 117 52.404 L 124.500 51.618 118.352 50.881 C 114.971 50.475, 110.021 49.219, 107.352 48.088 C 101.596 45.651, 87.608 43.296, 73.433 42.380 L 63.218 41.720 62.490 54.341 M 37.830 47.027 C 31.822 50.201, 29.496 54.392, 29.521 62 C 29.538 67.155, 30.179 69.845, 32.620 75 L 35.698 81.500 36.434 74 C 37.354 64.631, 39.755 52.525, 41.541 48.250 C 43.107 44.499, 42.805 44.399, 37.830 47.027 M 138 52 C 139.963 53.269, 143.716 53.269, 144.500 52 C 144.876 51.392, 143.430 51.006, 140.809 51.015 C 137.658 51.027, 136.903 51.291, 138 52 M 148.813 51.683 C 149.534 51.972, 150.397 51.936, 150.729 51.604 C 151.061 51.272, 150.471 51.036, 149.417 51.079 C 148.252 51.127, 148.015 51.364, 148.813 51.683 M 106.965 56.525 C 95.565 58.302, 87.455 60.484, 87.701 61.706 C 87.811 62.255, 90.229 66.360, 93.073 70.830 C 97.681 78.069, 98.641 79.020, 101.873 79.550 C 103.868 79.876, 107.886 80.638, 110.803 81.243 L 116.105 82.342 123.090 75.421 C 126.931 71.614, 129.495 68.381, 128.787 68.235 C 128.079 68.089, 122.109 69.289, 115.520 70.902 C 104.072 73.704, 102 73.884, 102 72.075 C 102 71.632, 109.088 68.007, 117.750 64.019 C 126.412 60.032, 133.928 56.371, 134.450 55.885 C 135.885 54.548, 116.788 54.993, 106.965 56.525 M 128.500 62.089 C 123 64.801, 119.738 66.781, 121.251 66.490 C 122.764 66.200, 126.139 65.688, 128.751 65.353 C 132.148 64.918, 134.425 63.872, 136.750 61.676 C 139.859 58.740, 140.855 56.910, 139.250 57.079 C 138.838 57.122, 134 59.377, 128.500 62.089 M 127.337 75.250 L 120.224 82.500 119.727 89.250 C 118.886 100.679, 114.652 103.962, 108.475 97.976 L 105.355 94.951 94.947 103.187 L 84.539 111.423 88.603 112.600 C 98.157 115.366, 101.152 118.194, 102.920 126.121 C 103.858 130.326, 103.594 131.804, 99.974 142.578 C 96.037 154.297, 92.682 168.015, 93.542 168.875 C 95.315 170.648, 104.310 156.873, 112.399 140 C 120.208 123.710, 125.221 108.234, 125.600 99.251 L 125.905 92.002 132.073 84.836 C 139.193 76.563, 141.729 71.583, 139.927 69.413 C 137.535 66.530, 134.520 67.928, 127.337 75.250 M 86.378 83.437 C 81.994 85.345, 79.997 88.654, 80.019 93.973 C 80.041 99.185, 82.138 108.088, 83.365 108.184 C 83.823 108.220, 88.616 104.756, 94.017 100.487 L 103.837 92.723 100.277 87.362 C 97.051 82.504, 96.378 82.004, 93.108 82.039 C 91.124 82.061, 88.095 82.690, 86.378 83.437 M 102.555 85.903 C 104.046 88.157, 105.797 90, 106.446 90 C 107.095 90, 108.866 88.706, 110.381 87.124 L 113.136 84.248 109.318 83.590 C 107.218 83.228, 104.227 82.679, 102.672 82.369 L 99.844 81.807 102.555 85.903 M 111.579 89.545 L 107.658 93.007 110.003 95.504 C 112.994 98.687, 114.796 98.667, 116.025 95.435 C 117.174 92.411, 117.328 85.982, 116.250 86.042 C 115.838 86.065, 113.736 87.641, 111.579 89.545 M 72.005 120.501 C 67.131 124.138, 63.231 127.833, 62.855 129.170 C 62.494 130.452, 62.155 136.282, 62.100 142.128 C 62.023 150.310, 62.335 153.033, 63.458 153.965 C 64.637 154.943, 65.387 154.703, 67.377 152.714 C 71.472 148.619, 75.321 140.017, 75.415 134.751 C 75.462 132.139, 75.766 130.001, 76.090 130.001 C 76.415 130, 79.115 131.342, 82.090 132.982 C 88.953 136.765, 90.244 136.821, 89.360 133.300 C 88.183 128.609, 82.254 114.581, 81.359 114.367 C 80.886 114.254, 76.677 117.014, 72.005 120.501" stroke="none" fill="black" fill-rule="evenodd"/>
</svg>