<svg xmlns="http://www.w3.org/2000/svg" width="200" height="200" viewBox="0 0 200 200" version="1.1">
	<path d="M 43.153 11.063 C 34.778 12.731, 29.262 17.797, 27.016 25.882 C 25.431 31.590, 25.839 44.489, 28 57 C 30.979 74.246, 30.718 76.525, 26.047 74.025 C 24.489 73.191, 23.935 73.734, 22.222 77.775 C 15.943 92.591, 16.803 106.724, 25.216 127 C 35.105 150.835, 36.334 156.232, 33.599 163.815 C 31.620 169.301, 29.524 171.937, 23.103 177.013 C 20.263 179.257, 18.205 181.523, 18.529 182.047 C 19.479 183.584, 20.268 183.224, 25.518 178.854 C 32.516 173.029, 42.695 168.472, 55.348 165.499 C 61.315 164.097, 67.538 162.256, 69.177 161.408 C 73.676 159.082, 75.248 154.230, 74.842 143.931 L 74.500 135.240 83.500 129.169 C 93.346 122.527, 99.613 119.280, 100.628 120.294 C 100.987 120.654, 97.649 128.497, 93.211 137.724 C 85.574 153.601, 82 163.011, 82 167.244 C 82 168.391, 87.033 163.148, 94.894 153.812 C 112.006 133.491, 128 117.894, 128 121.529 C 128 121.819, 126.699 124.632, 125.108 127.779 C 116.964 143.890, 96.145 166.384, 85.169 170.930 C 78.942 173.509, 80.464 180.863, 86.912 179.349 C 99.024 176.505, 130.630 153.918, 146.531 136.744 C 150.089 132.901, 153 130.234, 153 130.819 C 153 133.414, 147.219 147.484, 140.892 160.289 C 137.101 167.960, 134 175.084, 134 176.119 C 134 177.153, 134.900 178.900, 136 180 C 138.588 182.588, 146.641 182.691, 160.759 180.317 L 171.019 178.592 172.031 175.046 C 172.588 173.096, 174.464 164.750, 176.202 156.500 C 178.930 143.540, 179.370 139.392, 179.430 126 C 179.496 111.380, 179.358 110.219, 177 105.552 C 173.500 98.626, 170.214 96.487, 163.174 96.554 C 156.163 96.621, 147.566 100.310, 137.366 107.628 L 130.188 112.778 124.844 109.737 C 114.549 103.877, 109.496 98.684, 110.728 95.229 C 112.095 91.393, 125.041 88.578, 148.500 87.014 C 157.850 86.391, 166.219 85.674, 167.098 85.421 C 168.784 84.936, 171.862 75.089, 174.185 62.753 C 175.409 56.248, 175.574 55.983, 178.771 55.383 C 182.651 54.655, 182.557 52.643, 178.622 52.179 C 176.011 51.871, 175.925 51.680, 176.545 47.548 C 177.611 40.442, 175.450 32.602, 171.461 29.100 C 166.762 24.974, 163.115 24.538, 145.638 26.013 C 127.521 27.543, 110.454 26.919, 103.640 24.478 C 100.216 23.251, 98.579 23.063, 98.098 23.841 C 97.641 24.580, 92.973 23.142, 83.969 19.487 C 65.870 12.142, 52.055 9.291, 43.153 11.063 M 42.123 14.002 C 37.246 15.154, 33.816 17.998, 31.250 23.020 C 28.245 28.902, 28.222 40.828, 31.182 59.177 C 33 70.448, 33.172 73.327, 32.161 75.545 C 31.120 77.830, 30.491 78.148, 27.998 77.650 C 25.128 77.076, 25.015 77.213, 23.031 83.636 C 20.596 91.518, 20.407 101.858, 22.532 110.873 C 23.358 114.378, 26.707 123.633, 29.974 131.439 C 33.241 139.244, 36.320 148.218, 36.816 151.380 C 37.724 157.172, 36.945 164.366, 35.020 167.963 C 34.050 169.775, 34.315 169.751, 39.242 167.573 C 42.134 166.296, 47.875 164.468, 52 163.512 C 65.612 160.358, 66.792 159.989, 69.001 158.201 C 73.285 154.731, 73.410 144.360, 69.405 124.587 C 66.339 109.454, 71.430 81.642, 78.477 75.022 C 82.208 71.517, 85.966 72.584, 88.968 78 C 91.157 81.952, 91.452 83.657, 91.382 92 C 91.295 102.502, 88.445 112.920, 83.006 122.613 L 80.138 127.725 88.289 122.827 C 92.771 120.132, 97.471 117.669, 98.733 117.352 C 101.175 116.739, 104 118.425, 104 120.495 C 104 121.183, 101.027 127.766, 97.394 135.123 C 93.761 142.480, 89.929 150.750, 88.878 153.500 L 86.968 158.500 89.597 155.500 C 91.043 153.850, 96.002 148.167, 100.619 142.872 C 111.650 130.217, 123.311 119.211, 126.550 118.398 C 132.516 116.901, 132.071 121.982, 125.241 133.359 C 116.705 147.575, 102.240 163.239, 90.750 170.709 C 84.340 174.876, 82.482 177.001, 85.250 176.999 C 87.381 176.998, 98.719 171.279, 106.251 166.406 C 117.881 158.883, 128.874 150.167, 138.724 140.660 C 148.487 131.236, 153.850 123.968, 154.928 118.700 C 155.950 113.701, 157.538 115.503, 157.160 121.232 C 156.523 130.880, 153.008 141.435, 144.884 158.091 C 140.434 167.216, 136.956 175.541, 137.157 176.591 C 137.801 179.964, 143.270 180.425, 156.319 178.205 C 162.820 177.100, 168.328 176.005, 168.559 175.774 C 169.401 174.933, 173.045 158.935, 174.999 147.507 C 177.423 133.329, 177.636 116.504, 175.484 109.257 C 171.416 95.559, 159.828 95.692, 139.207 109.673 L 129.776 116.067 122.288 111.400 C 112.442 105.264, 108 100.788, 108 97.006 C 108 89.360, 118.439 86.172, 150.421 84.049 C 158.627 83.504, 165.683 82.708, 166.100 82.279 C 167.071 81.284, 172 61.834, 172 59.001 C 172 57.442, 171.527 57.001, 170.250 57.368 C 169.287 57.644, 164.787 58.849, 160.250 60.045 L 152 62.219 152 66.033 C 152 75.514, 137.851 82.953, 121.997 81.806 C 114.623 81.273, 112.019 79.150, 114.338 75.562 C 116.288 72.547, 125.792 67.746, 137.097 64.067 C 146.503 61.005, 148.270 59.903, 146.008 58.505 C 145.462 58.167, 130.724 58.824, 113.258 59.964 C 95.791 61.104, 74.852 62.458, 66.727 62.973 C 58.603 63.488, 51.551 64.160, 51.057 64.465 C 50.563 64.770, 51.698 67.973, 53.579 71.583 C 56.693 77.557, 56.993 78.878, 56.920 86.323 C 56.837 94.793, 54.309 104.904, 52.500 104 C 51.950 103.725, 51.581 103.050, 51.680 102.500 C 51.779 101.950, 52.603 98.038, 53.512 93.806 C 55.490 84.600, 54.556 78.250, 50.112 70.672 L 47.281 65.844 46.586 70.172 C 43.482 89.502, 41.432 113.159, 42.410 118.370 C 42.949 121.245, 43.394 121.710, 45.160 121.248 C 47.692 120.586, 47.328 122.777, 44.632 124.429 C 42.309 125.851, 40.429 123.347, 39.584 117.705 C 38.343 109.424, 42.794 71.857, 48.613 41.500 C 52.098 23.317, 53.946 17, 55.780 17 C 57.086 17, 57.180 18.283, 56.461 26.250 C 54.954 42.946, 55.247 51.515, 57.405 53.897 C 62.498 59.519, 75.692 53.831, 88.366 40.551 C 91.911 36.836, 97 29.751, 97 28.530 C 97 27.741, 84.441 22.224, 75 18.866 C 60.778 13.807, 49.816 12.186, 42.123 14.002 M 106.500 29.566 C 112.906 32.997, 112.751 32.786, 110.190 34.580 C 108.985 35.423, 108 36.709, 108 37.438 C 108 40.436, 122.108 48.259, 131.473 50.453 C 134.302 51.116, 134.366 51.062, 132.791 49.325 C 131.881 48.321, 127.289 45.250, 122.586 42.500 C 117.884 39.750, 114.028 36.938, 114.018 36.250 C 114.008 35.563, 114.283 35, 114.629 35 C 116.485 35, 133.913 45.056, 140.023 49.652 L 147.110 54.984 159.805 53.833 C 166.787 53.201, 172.831 52.192, 173.235 51.592 C 174.705 49.407, 173.975 38.541, 172.076 34.360 C 169.511 28.710, 165.770 27.535, 153.096 28.395 C 123.095 30.431, 112.615 30.226, 103.260 27.416 C 102.292 27.126, 103.750 28.093, 106.500 29.566 M 96.721 34.402 C 92.347 41.327, 79.626 52.789, 72.655 56.087 C 59.707 62.212, 52.384 57.950, 51.886 44 C 51.789 41.256, 51.480 41.904, 50.458 47 C 49.741 50.575, 48.846 55.679, 48.471 58.342 C 47.827 62.903, 47.899 63.125, 49.709 62.156 C 50.766 61.590, 66.676 60.198, 85.065 59.062 C 136.755 55.869, 138.373 55.751, 140.463 55.002 C 142.359 54.322, 142.351 54.258, 140.213 53.114 C 138.700 52.304, 137.417 52.242, 136.157 52.916 C 132.234 55.015, 114.019 47.866, 108.028 41.874 C 104.866 38.712, 104.226 36.174, 106.115 34.285 C 106.935 33.465, 106.419 32.751, 104.165 31.585 C 102.479 30.713, 100.739 30.001, 100.300 30.002 C 99.860 30.003, 98.250 31.983, 96.721 34.402 M 149 57.941 C 149 59.732, 150.659 59.889, 155.070 58.515 L 159.500 57.134 154.250 57.067 C 151.363 57.030, 149 57.423, 149 57.941 M 137.500 66.836 C 125.402 71.050, 119.052 74.028, 117.070 76.415 C 115.134 78.749, 117.613 79.324, 127.400 78.810 C 133.850 78.471, 136.984 77.753, 141.364 75.610 C 147.596 72.561, 149.275 70.385, 148.810 65.956 L 148.500 63.004 137.500 66.836 M 80.459 76.684 C 74.243 82.900, 69.528 109.046, 72.008 123.545 C 72.709 127.645, 73.557 130.996, 73.891 130.991 C 75.369 130.970, 82.631 118.050, 85.332 110.637 C 87.831 103.778, 88.313 100.929, 88.399 92.500 C 88.483 84.166, 88.165 81.930, 86.491 79.080 C 84.031 74.893, 82.756 74.387, 80.459 76.684" stroke="none" fill="black" fill-rule="evenodd"/>
</svg>