<svg xmlns="http://www.w3.org/2000/svg" width="200" height="200" viewBox="0 0 200 200" version="1.1">
	<path d="M 149.351 15.732 C 147.694 17.804, 141.807 26.285, 136.269 34.577 C 126.552 49.127, 120.982 55.484, 118.624 54.718 C 115.401 53.670, 113.022 40.523, 113.008 23.677 C 113.001 15.815, 112.809 14.890, 111.250 15.188 C 109.706 15.483, 109.427 17.342, 108.882 31.011 C 108.543 39.530, 108.206 48.975, 108.134 52 L 108.004 57.500 96.075 57.192 L 84.145 56.885 87.142 52.445 C 94.426 41.652, 98.272 25.168, 94.483 20.982 C 90.332 16.395, 83.561 20.073, 69.250 34.686 L 58 46.173 58 40.622 C 58 30.617, 53.264 20.739, 46.887 17.442 C 44.427 16.169, 43.238 16.096, 40.373 17.042 C 33.662 19.257, 28.945 28.812, 25.072 48.038 C 24.023 53.242, 22.235 60.875, 21.098 65 C 19.961 69.125, 18.498 78.350, 17.848 85.500 C 16.842 96.547, 16.899 99.877, 18.221 107.666 C 20.776 122.718, 26.378 132.104, 35.347 136.360 C 37.356 137.314, 39 138.277, 39 138.502 C 39 138.726, 35.833 144.153, 31.962 150.563 C 20.565 169.434, 17.786 176.030, 21.250 175.983 C 21.938 175.974, 25.864 173.944, 29.975 171.471 C 46.741 161.387, 56.247 160.517, 64.746 168.288 C 65.981 169.417, 67.331 170.001, 67.746 169.586 C 68.161 169.171, 68.548 155.654, 68.608 139.549 C 68.667 123.444, 69.031 107.065, 69.416 103.151 C 70.691 90.219, 76.110 74.906, 81.856 67.997 L 83.933 65.500 83.967 71.640 C 84.013 80.199, 81.740 91.269, 75.960 110.635 C 70.680 128.323, 70.036 132.693, 72.564 133.663 C 74.959 134.582, 77.870 132.819, 85.430 125.870 C 91.060 120.695, 92.231 119.969, 91.672 122 C 89.189 131.020, 87.823 143.459, 88.202 153.599 C 88.562 163.229, 88.987 165.454, 91.415 170.415 C 95.067 177.880, 99.214 180.222, 104.401 177.749 C 111.204 174.505, 115.817 165.420, 118.605 149.773 C 120.346 140.008, 123.905 131.860, 129.043 125.875 C 131.479 123.039, 132.108 122.740, 132.983 124 C 133.652 124.964, 133.950 134.617, 133.817 151 C 133.593 178.658, 134.265 183.817, 138.445 186.556 C 141.847 188.785, 146.323 186.659, 152.359 179.946 L 157.162 174.604 156.672 147.552 C 156.402 132.673, 156.479 124.866, 156.843 130.202 C 157.210 135.587, 158.043 140.443, 158.715 141.115 C 159.381 141.781, 163.446 142.530, 167.749 142.779 C 175.175 143.209, 175.740 143.090, 178.905 140.427 C 182.211 137.645, 182.235 137.563, 181.773 130.561 C 181.387 124.715, 179.908 119.957, 173.178 102.915 C 164.609 81.215, 162.670 74.524, 163.185 68.440 C 163.490 64.832, 163.670 64.673, 168.987 63.318 C 182.235 59.942, 182.200 57.198, 168.796 48.285 C 152.818 37.662, 148.739 30.323, 152.507 18.979 C 154.756 12.207, 153.337 10.747, 149.351 15.732 M 37.603 22.322 C 33.961 26.184, 29.733 37.627, 27.561 49.500 C 26.756 53.900, 25.199 60.555, 24.101 64.289 C 19.455 80.088, 18.925 103.320, 22.918 116.085 C 25.856 125.475, 29.908 130.619, 36.819 133.735 C 39.944 135.144, 42.678 136.445, 42.895 136.627 C 43.113 136.808, 39.458 143.379, 34.775 151.228 C 25.256 167.182, 22.657 172, 23.570 172 C 23.912 172, 25.463 171.095, 27.016 169.988 C 28.570 168.882, 33.365 166.295, 37.671 164.239 C 47.542 159.527, 56.143 159.035, 62.250 162.832 L 66 165.163 66.129 162.332 C 66.201 160.774, 66.324 145.550, 66.403 128.500 C 66.536 99.866, 66.714 96.906, 68.742 89.713 C 71.135 81.222, 77.553 68.201, 81.617 63.588 C 84.712 60.076, 85.604 60.982, 86.556 68.605 C 87.614 77.066, 84.876 91.156, 77.543 115 C 73.936 126.726, 73.247 131, 74.962 131 C 75.491 131, 80.199 126.913, 85.425 121.918 C 90.650 116.922, 95.310 113.074, 95.782 113.365 C 96.253 113.657, 95.580 118.081, 94.287 123.197 C 89.863 140.690, 89.692 159.994, 93.876 169.453 C 100.263 183.892, 112.393 172.399, 115.990 148.498 C 117.845 136.169, 126.812 120.500, 132.012 120.500 C 136.619 120.500, 137.023 123.184, 136.750 152 C 136.484 180.187, 137.020 183.995, 141.367 184.832 C 144.213 185.380, 155.321 173.586, 154.473 170.915 C 154.118 169.796, 153.753 153.629, 153.663 134.990 C 153.538 109.032, 153.793 100.808, 154.750 99.850 C 157.249 97.351, 158.032 100.825, 159.192 119.560 C 159.837 129.977, 160.791 138.787, 161.311 139.138 C 163.286 140.471, 171.770 140.976, 174.748 139.938 C 178.800 138.526, 180.247 134.552, 179.024 128.201 C 177.926 122.499, 177.052 120.034, 168.680 99 C 161.770 81.639, 159.277 71.669, 160.378 65.798 C 161.013 62.416, 161.297 62.210, 167.014 60.997 C 173.585 59.603, 176.668 57.891, 175.632 56.213 C 175.261 55.613, 172.487 53.709, 169.468 51.982 C 155.263 43.854, 148.780 35.933, 148.644 26.536 L 148.568 21.224 138.723 35.862 C 127.853 52.025, 125.822 54.502, 121.674 56.660 C 116.905 59.141, 113.814 55.998, 111.681 46.500 C 111.434 45.400, 111.180 47.497, 111.116 51.160 L 111 57.819 118.250 59.010 C 125.857 60.260, 133.240 62.962, 134.465 64.944 C 135.546 66.693, 134.249 70.691, 132.366 71.413 C 130.034 72.308, 129.651 71.540, 131.181 69.036 C 132.325 67.164, 132.253 66.695, 130.632 65.492 C 128.710 64.067, 116.709 61, 113.053 61 C 111.064 61, 111 61.519, 111.014 77.750 C 111.032 99.339, 112.788 134.188, 113.915 135.315 C 114.412 135.812, 115.314 133.070, 116.010 128.942 C 117.395 120.727, 116.836 111.508, 113.925 94.603 C 111.623 81.231, 111.535 77.631, 113.472 76.023 C 115.353 74.462, 119.675 77.011, 125.844 83.322 C 132.628 90.264, 129.038 90.284, 121.691 83.346 C 115.530 77.529, 115.498 77.513, 115.183 80.256 C 115.009 81.772, 115.814 88.883, 116.972 96.059 C 119.954 114.532, 119.773 128.114, 116.396 139.250 C 115.708 141.517, 112.298 141.517, 111.583 139.250 C 110.257 135.046, 109.079 116.398, 108.424 89.250 L 107.719 60 94.868 60 L 82.017 60 77.432 63.500 C 71.226 68.237, 65.737 68.509, 60.244 64.353 C 56.244 61.326, 55 61.959, 55 67.025 C 55 73.511, 52.059 92.509, 49.484 102.661 C 44.069 124.009, 38.204 124.406, 39.333 103.349 C 39.836 93.948, 39.723 93.062, 37.792 91.349 C 26.273 81.132, 27.732 69.680, 41.281 63.964 C 47.830 61.200, 53.548 54.205, 55.074 47.089 C 57.569 35.458, 50.338 19, 42.733 19 C 41.635 19, 39.326 20.495, 37.603 22.322 M 84.453 24.549 C 79.166 28.075, 70.265 36.800, 62.402 46.166 C 56.332 53.398, 56.036 53.985, 57.187 56.512 C 58.287 58.925, 58.785 59.130, 62.216 58.581 C 64.311 58.246, 69.412 57.686, 73.551 57.336 C 82.274 56.599, 82.547 56.348, 88.760 43.329 C 91.887 36.776, 92.496 34.441, 92.498 29 C 92.500 23.211, 92.276 22.468, 90.453 22.207 C 89.327 22.046, 86.627 23.100, 84.453 24.549 M 52.694 57.639 C 51.768 58.565, 52.883 60, 54.528 60 C 55.370 60, 55.706 59.396, 55.362 58.500 C 54.751 56.909, 53.748 56.586, 52.694 57.639 M 65.750 60.728 C 61.358 61.188, 60.893 62.629, 64.674 64.066 C 67.948 65.311, 71.684 64.558, 75 61.985 L 77.500 60.044 73.500 60.190 C 71.300 60.271, 67.813 60.513, 65.750 60.728 M 43.594 66.009 C 37.996 68.196, 33.431 72.145, 32.579 75.540 C 31.740 78.882, 33.352 82.341, 38.195 87.595 L 42.445 92.206 42.196 103.853 C 41.909 117.323, 42.686 117.139, 46.473 102.838 C 49.258 92.324, 52 75.291, 52 68.507 C 52 63.244, 51.248 63.021, 43.594 66.009" stroke="none" fill="black" fill-rule="evenodd"/>
</svg>