<svg xmlns="http://www.w3.org/2000/svg" width="200" height="200" viewBox="0 0 200 200" version="1.1">
	<path d="M 65.400 10.765 C 59.533 14.682, 61.192 34.227, 70.459 70.397 C 72.868 79.800, 74.657 87.677, 74.433 87.900 C 73.969 88.365, 64.701 68.893, 59.013 55.500 C 53.736 43.076, 49.198 29.721, 47.650 22.058 C 46.934 18.515, 45.906 15.469, 45.366 15.289 C 44.826 15.109, 43.354 17.447, 42.095 20.485 C 40.463 24.421, 38.090 27.561, 33.836 31.410 L 27.867 36.812 30.922 37.483 C 32.602 37.852, 34.207 38.526, 34.488 38.980 C 34.768 39.434, 33.878 42.212, 32.509 45.153 C 29.820 50.929, 29.201 58.570, 31.118 62.316 C 31.733 63.517, 33.850 66.188, 35.821 68.250 L 39.406 72 33.852 72 C 16.536 72, 15.097 82.232, 30.505 95.796 C 37.568 102.013, 46.987 106.341, 54.496 106.819 C 62.261 107.313, 66.407 105.389, 68.748 100.205 C 69.668 98.167, 71.078 95.705, 71.880 94.734 C 73.229 93.102, 73.555 93.362, 76.188 98.177 L 79.037 103.387 75.016 107.483 C 65.740 116.935, 53.034 121.732, 40.325 120.580 C 34.985 120.096, 32.188 120.313, 29.556 121.412 C 22.883 124.200, 25.509 126.318, 41.329 130.909 C 58.596 135.919, 67.240 141.180, 69.938 148.319 C 70.524 149.870, 70.754 152.130, 70.450 153.342 C 69.958 155.303, 70.584 155.762, 76.144 157.522 C 79.579 158.610, 82.560 160.049, 82.768 160.720 C 83.717 163.779, 72.761 167.942, 42.500 176.019 C 32.050 178.808, 22.844 181.742, 22.043 182.538 C 19.539 185.026, 22.261 186.209, 31.736 186.749 C 39.529 187.194, 42.477 186.816, 55.565 183.700 C 81.230 177.588, 90.060 176.501, 114 176.500 C 136.608 176.500, 146.557 177.859, 161.441 182.980 C 164.499 184.032, 166.993 184.579, 166.985 184.196 C 166.976 183.813, 164.488 178.775, 161.456 173 C 146.369 144.268, 144.791 138.437, 150.388 132.114 C 154.574 127.386, 165.160 124.629, 182.500 123.753 L 187.500 123.500 183.499 120.782 C 176.129 115.775, 163.953 115.348, 132.220 118.984 C 120.499 120.327, 107.665 120.260, 104.547 118.839 C 100.946 117.199, 101.244 113.324, 105.439 107.225 C 107.331 104.475, 113.683 92.612, 119.555 80.863 C 135.591 48.776, 143.455 37.643, 147.632 41.110 C 150.989 43.895, 147.223 63.861, 139.575 83.836 C 133.292 100.243, 134.894 103.298, 148.315 100.504 C 157.910 98.507, 170 94.880, 170 94 C 170 93.610, 170.885 87.489, 171.967 80.396 C 176.472 50.861, 176.533 35.022, 172.171 27.553 C 166.184 17.302, 154.012 17.433, 132.980 27.975 L 123.459 32.747 119.980 29.798 C 115.654 26.133, 109.716 23, 107.097 23 C 104.383 23, 102.002 26.719, 101.992 30.973 C 101.987 32.913, 102.734 40.800, 103.652 48.500 C 105.505 64.052, 105.040 70.506, 101.817 73.966 C 100.031 75.883, 98.943 76.159, 94.607 75.791 C 88.210 75.249, 76.992 70.351, 77.021 68.113 C 77.033 67.226, 79.078 63.358, 81.565 59.518 C 84.475 55.025, 85.983 51.655, 85.794 50.067 C 85.388 46.660, 80.638 44.141, 73.143 43.357 C 66.475 42.660, 66.840 43.063, 65.558 34.994 C 64.740 29.847, 64.679 17.586, 65.459 15.128 C 66.646 11.388, 70.061 12.593, 75.973 18.836 C 82.685 25.924, 89.366 36.854, 87.996 38.505 C 86.916 39.806, 88.613 42, 90.700 42 C 94.244 42, 90.763 33.582, 82.683 22.615 C 75.561 12.948, 68.935 8.405, 65.400 10.765 M 42.969 25.059 C 42.312 26.285, 40.016 29.197, 37.866 31.529 C 34.807 34.849, 34.288 35.897, 35.479 36.353 C 37.665 37.192, 37.364 40.434, 34.414 47.807 C 30.705 57.077, 31.439 59.864, 39.679 67.806 C 43.277 71.274, 45.934 74.399, 45.583 74.750 C 45.232 75.101, 40.718 75.266, 35.551 75.115 C 27.333 74.876, 25.913 75.087, 24.195 76.805 C 21.019 79.981, 22.501 83.685, 29.908 91.089 C 44.320 105.493, 62.217 109.001, 66.632 98.286 C 67.490 96.204, 69.054 93.565, 70.108 92.422 C 72.009 90.362, 71.973 90.236, 65.662 76.922 C 57.469 59.639, 49.665 40.376, 47.084 31.062 C 45.965 27.021, 44.849 23.516, 44.605 23.272 C 44.361 23.028, 43.625 23.832, 42.969 25.059 M 146.328 24.986 C 143.484 25.997, 137.102 28.919, 132.146 31.479 L 123.135 36.133 117.545 31.580 C 111.799 26.900, 108.010 25.258, 105.926 26.546 C 104.622 27.352, 105.015 37.296, 107.002 53.799 C 109.587 75.264, 102.779 83.005, 86.630 76.963 C 79.481 74.288, 74.570 70.914, 74.208 68.428 C 74.048 67.325, 75.960 63.312, 78.458 59.509 C 80.956 55.706, 83 51.801, 83 50.832 C 83 48.432, 79.870 46.945, 73.414 46.279 C 68.504 45.772, 68 45.904, 68 47.691 C 68 50.033, 76.452 83.785, 77.234 84.567 C 77.531 84.865, 79.288 84.185, 81.137 83.058 C 90.431 77.391, 93.880 83.351, 88.022 94.956 C 86.385 98.200, 84.585 101.139, 84.022 101.486 C 82.082 102.686, 83.058 105.539, 89.084 116.283 L 95.133 127.066 98.143 124.533 C 99.799 123.140, 101.647 122, 102.251 122 C 102.855 122, 102.370 120.958, 101.174 119.686 C 97.715 116.003, 98.660 111.423, 104.513 103.500 C 105.732 101.850, 111.496 90.903, 117.323 79.174 C 129.029 55.610, 137.609 41.819, 142.373 38.914 C 146.369 36.478, 146.588 36.498, 149.667 39.576 C 152.116 42.025, 152.209 42.504, 151.542 49.275 C 150.628 58.543, 147.127 71.806, 142.006 85.398 C 139.747 91.391, 138.155 96.961, 138.467 97.774 C 139.216 99.726, 145.639 98.890, 158.162 95.211 L 167.500 92.468 169.754 77.484 C 172.439 59.643, 173.137 37.299, 171.183 31.783 C 170.459 29.738, 168.512 26.926, 166.857 25.533 C 164.317 23.396, 162.882 23.011, 157.673 23.073 C 154.278 23.113, 149.173 23.974, 146.328 24.986 M 81.194 86.150 C 79.057 87.519, 78.091 88.796, 78.462 89.762 C 78.778 90.585, 79.530 93.219, 80.134 95.616 C 80.737 98.014, 81.638 99.724, 82.135 99.417 C 83.772 98.405, 88 89.117, 88 86.533 C 88 83.360, 85.749 83.234, 81.194 86.150 M 74.640 111.446 C 64.408 120.617, 52.780 124.529, 39.136 123.391 C 27.820 122.447, 28.091 124.189, 39.772 127.479 C 61.965 133.728, 73 141.486, 73 150.839 C 73 153.361, 73.460 153.864, 76.250 154.392 C 80.980 155.285, 86 158.643, 86 160.913 C 86 165.605, 76.388 169.735, 47.300 177.542 C 35.892 180.603, 26.358 183.309, 26.112 183.554 C 25.867 183.799, 29.293 184, 33.726 184 C 39.209 184, 45.764 183.049, 54.235 181.025 C 93.151 171.724, 124.446 170.628, 151.977 177.600 C 157.189 178.920, 161.580 180, 161.734 180 C 161.888 180, 158.298 172.749, 153.757 163.887 C 145.639 148.045, 145.500 147.652, 145.500 140.471 C 145.500 134.061, 145.806 132.838, 148 130.486 C 152.708 125.438, 162.654 122, 172.549 122 C 174.997 122, 177 121.586, 177 121.080 C 177 119.367, 164.084 118.763, 151.758 119.898 C 145.016 120.519, 133.572 121.552, 126.327 122.195 L 113.155 123.363 112.493 126.931 C 111.528 132.139, 106.198 141.619, 102.324 145.021 C 97.888 148.915, 94.655 149.659, 91.409 147.532 C 87.707 145.107, 85.899 139.896, 84.804 128.500 C 83.867 118.747, 81.277 106.955, 80.092 107.045 C 79.766 107.069, 77.313 109.050, 74.640 111.446 M 87.389 127 C 88.123 139.292, 90.853 146, 95.120 146 C 99.715 146, 110 131.721, 110 125.340 C 110 121.249, 105.255 122.347, 97.846 128.153 L 94.192 131.016 90.537 124.758 L 86.882 118.500 87.389 127" stroke="none" fill="black" fill-rule="evenodd"/>
</svg>