<svg xmlns="http://www.w3.org/2000/svg" width="200" height="200" viewBox="0 0 200 200" version="1.1">
	<path d="M 146.104 3.332 C 142.160 9.713, 139 27.717, 139 43.803 L 139 52.159 136.250 51.564 C 134.738 51.236, 125.980 49.931, 116.788 48.663 C 101.768 46.591, 100.010 46.517, 99.417 47.929 C 99.055 48.793, 98.445 61.530, 98.061 76.234 C 97.678 90.938, 97.127 103.206, 96.838 103.496 C 96.548 103.786, 90.053 97.418, 82.405 89.345 C 74.757 81.272, 67.242 73.902, 65.705 72.967 L 62.909 71.267 68.205 66.493 C 71.117 63.867, 80.250 57.209, 88.500 51.697 C 96.750 46.185, 105.437 40.099, 107.805 38.173 C 115.275 32.094, 118.694 24.033, 115.965 18.934 C 114.560 16.310, 112.821 16.498, 103.500 20.281 C 88.460 26.386, 75.152 37.355, 66.245 50.986 L 62.310 57.008 61.096 46.985 C 59.103 30.543, 56.033 23.104, 50.347 20.942 C 46.898 19.630, 40.648 22.422, 36.727 27.024 C 29.919 35.018, 21.592 51.596, 18.699 62.916 L 17.315 68.333 22.340 70.916 C 32.951 76.372, 33.446 84.747, 25.089 117.360 C 21.211 132.493, 20 138.986, 20 144.642 C 20 151.858, 21.634 158.038, 23.915 159.447 C 24.558 159.845, 29.173 156.250, 34.767 150.994 C 51.469 135.300, 61.264 130.137, 65.174 134.967 C 67.491 137.829, 67.630 148.622, 65.514 161.500 C 64.700 166.450, 64.027 172.412, 64.017 174.750 C 64.002 178.424, 64.288 179, 66.128 179 C 69.096 179, 79.864 167.594, 85.629 158.345 C 89.983 151.359, 96.970 133.774, 96.991 129.750 C 97.002 127.553, 98.344 127.505, 100.114 129.638 C 100.862 130.539, 104.323 133.187, 107.806 135.524 L 114.138 139.771 108.317 143.308 C 93.767 152.146, 94.808 156.626, 112.313 160.500 C 118.780 161.931, 120.015 162.511, 119.484 163.864 C 117.623 168.601, 115.721 177.830, 116.296 179.329 C 118.135 184.121, 121.892 182.627, 138.253 170.596 C 157.886 156.159, 168.935 150.350, 180.250 148.517 C 184.663 147.802, 185.242 145.529, 181.266 144.531 C 179.763 144.153, 175.250 142.328, 171.238 140.474 L 163.943 137.104 170.471 130.639 C 174.062 127.083, 177 123.486, 177 122.644 C 177 120.351, 173.310 118.206, 167.073 116.874 C 164.008 116.219, 161.093 115.325, 160.596 114.888 C 159.472 113.899, 163.355 108.740, 172.355 99.264 C 178.664 92.621, 179.177 91.760, 178.611 88.764 C 177.007 80.274, 169.466 74.718, 157.750 73.392 C 154.588 73.034, 152 72.371, 152 71.919 C 152 71.466, 161.563 66.257, 173.250 60.342 L 194.500 49.587 182.864 48.398 C 165.452 46.619, 156.588 44.412, 153.602 41.113 C 152.084 39.435, 152.125 39.111, 154.179 36.499 C 155.394 34.954, 159.659 32.179, 163.656 30.333 L 170.923 26.975 167.590 19.072 C 161.877 5.528, 157.332 -0, 151.907 -0 C 148.743 -0, 147.844 0.516, 146.104 3.332 M 148.530 4.315 C 145.316 9.219, 142.894 22.152, 142.295 37.611 L 141.709 52.723 145.417 53.418 C 150.303 54.335, 150.081 57.347, 145.091 57.825 L 141.698 58.149 142.327 71.325 C 142.932 84.005, 144.664 97.810, 147.009 108.651 C 148.102 113.702, 148.200 113.809, 152.107 114.182 C 155.879 114.541, 156.294 114.294, 159.917 109.531 C 162.021 106.764, 166.500 101.506, 169.871 97.847 C 173.242 94.187, 175.998 90.362, 175.996 89.347 C 175.989 85.854, 172.023 80.898, 167.707 78.988 C 165.375 77.957, 160.360 76.617, 156.563 76.010 C 148.726 74.758, 148 74.453, 148 72.419 C 148 70.467, 154.508 66.448, 170.857 58.304 L 184.407 51.554 175.033 50.298 C 157.551 47.957, 150 44.553, 150 39.016 C 150 35.623, 153.913 32.002, 161.715 28.175 C 164.622 26.750, 167 25.214, 167 24.763 C 167 22.695, 159.556 8.564, 156.833 5.463 C 153.293 1.431, 150.658 1.067, 148.530 4.315 M 103.605 23.056 C 93.733 27.328, 84.159 34.006, 77.121 41.529 C 70.379 48.737, 62 62.167, 62 65.766 C 62 67.870, 62.542 67.622, 68.166 62.941 C 71.558 60.119, 80.977 53.366, 89.097 47.935 C 110.414 33.678, 114 30.095, 114 23.050 C 114 19.159, 112.608 19.160, 103.605 23.056 M 43.330 24.940 C 37.038 28.777, 27.636 44.116, 23.092 57.957 C 21.942 61.462, 21 64.910, 21 65.618 C 21 66.327, 22.584 67.658, 24.520 68.576 C 31.322 71.804, 34.674 80.034, 33.575 90.809 C 33.222 94.278, 30.750 105.753, 28.084 116.309 C 22.452 138.598, 21.385 146.001, 22.958 151.845 C 23.574 154.130, 24.301 156, 24.575 156 C 24.849 156, 29.500 152.030, 34.910 147.178 C 50.766 132.958, 59.108 128.361, 64.555 130.843 C 69.978 133.314, 71.210 142.416, 68.500 160 C 67.695 165.225, 67.044 171.075, 67.054 173 L 67.073 176.500 72.701 170.526 C 86.704 155.664, 94.266 138.002, 96.474 115 L 97.097 108.500 81.072 92 C 63.285 73.686, 63.003 73.770, 74.089 94.082 C 79.338 103.700, 80.047 105.601, 79.135 107.604 C 77.800 110.533, 70.807 115.664, 67.015 116.497 C 55.292 119.072, 49.337 98.068, 55.533 76 C 58.804 64.348, 59.515 55.456, 58.052 44.464 C 56.729 34.527, 54.733 28.410, 51.792 25.278 C 49.180 22.498, 47.448 22.429, 43.330 24.940 M 101.622 52.750 C 101.286 54.263, 100.713 67.106, 100.349 81.291 L 99.687 107.082 103.040 110.541 C 104.884 112.443, 107.204 114, 108.196 114 C 110.699 114, 110.453 112.509, 107.750 111.295 C 105.782 110.412, 106.630 109.941, 114.500 107.548 C 124.988 104.358, 133 101.081, 133 99.981 C 133 99.556, 130.637 97.733, 127.750 95.930 C 113.025 86.736, 106.530 79.468, 103.504 68.799 C 102.614 65.663, 102.024 60.938, 102.193 58.299 C 102.456 54.190, 102.788 53.528, 104.500 53.693 C 109.923 54.217, 138.369 54.948, 137.500 54.541 C 136.197 53.931, 107.737 50, 104.624 50 C 102.831 50, 102.080 50.687, 101.622 52.750 M 105 60.207 C 105 72.265, 111.041 81.492, 124.999 90.753 C 130.183 94.192, 134.822 97.717, 135.308 98.586 C 136.793 101.239, 132.624 104.441, 123.733 107.478 C 115.897 110.155, 112.416 111.900, 114.550 112.081 C 119.214 112.476, 145 112.874, 145 112.551 C 145 112.320, 144.304 108.839, 143.452 104.815 C 141.569 95.915, 139.025 72.760, 139.011 64.385 L 139 58.270 125.250 57.587 C 117.688 57.211, 110.037 56.650, 108.250 56.340 L 105 55.777 105 60.207 M 57.112 79.797 C 55.700 86.828, 55.687 100.333, 57.088 105.378 C 58.408 110.131, 62.095 114, 65.305 114 C 67.856 114, 75.748 108.819, 76.608 106.580 C 76.890 105.844, 74.530 100.574, 71.363 94.871 C 68.195 89.167, 64.670 82.250, 63.528 79.500 C 60.660 72.590, 58.540 72.688, 57.112 79.797 M 99.418 113.354 C 98.386 116.041, 99.335 117.207, 101.352 115.732 C 103.006 114.522, 103.030 114.270, 101.602 113.085 C 100.283 111.990, 99.924 112.034, 99.418 113.354 M 123.278 117.135 C 124.806 118.275, 126.718 120.489, 127.528 122.054 C 130.119 127.066, 129.405 129.691, 123.855 135.560 C 121.025 138.552, 118.340 141, 117.888 141 C 116.043 141, 101 151.302, 101 152.565 C 101 154.574, 104.043 155.878, 113.613 157.969 C 118.321 158.998, 122.391 160.057, 122.657 160.323 C 122.923 160.589, 122.209 163.823, 121.070 167.509 C 118.646 175.357, 118.432 179, 120.395 179 C 121.690 179, 128.016 174.712, 142.284 164.163 C 151.734 157.177, 163.860 150.278, 170.121 148.327 C 173.345 147.322, 175.987 146.253, 175.991 145.951 C 175.996 145.649, 174.537 144.872, 172.750 144.223 C 170.963 143.575, 166.004 140.963, 161.731 138.418 C 153.553 133.547, 151.086 130.500, 147.535 120.884 L 145.830 116.267 139.768 115.634 C 136.434 115.285, 130.735 115.014, 127.103 115.032 L 120.500 115.063 123.278 117.135 M 110 116.531 C 110 117.682, 123.771 128.917, 125.250 128.972 C 125.662 128.987, 126 127.805, 126 126.345 C 126 124.544, 124.700 122.454, 121.958 119.845 C 118.666 116.713, 117.181 116, 113.958 116 C 111.781 116, 110 116.239, 110 116.531 M 102.250 118.491 C 97.441 120.581, 97.862 123.829, 103.598 128.878 C 106.127 131.104, 110.180 134.088, 112.605 135.509 L 117.013 138.092 120.506 135.427 C 122.428 133.962, 123.997 132.479, 123.993 132.131 C 123.989 131.784, 122.432 130.441, 120.531 129.147 C 118.631 127.853, 114.558 124.591, 111.480 121.897 C 108.402 119.204, 105.797 117.018, 105.692 117.039 C 105.586 117.061, 104.037 117.714, 102.250 118.491 M 150.798 121.612 C 151.891 124.573, 152.610 125.558, 152.808 124.362 C 152.977 123.338, 153.516 121.263, 154.006 119.750 C 154.838 117.178, 154.709 117, 151.996 117 L 149.096 117 150.798 121.612 M 156.630 120.250 C 154.951 126.516, 157.723 134, 161.723 134 C 163.823 134, 174.408 123.007, 173.337 121.939 C 172.384 120.987, 161.439 118, 158.907 118 C 157.986 118, 156.962 119.013, 156.630 120.250" stroke="none" fill="black" fill-rule="evenodd"/>
</svg>