<svg xmlns="http://www.w3.org/2000/svg" width="200" height="200" viewBox="0 0 200 200" version="1.1">
	<path d="M 97.591 23.250 C 96.790 24.488, 95.830 26.742, 95.457 28.259 C 95.084 29.777, 94.415 31.243, 93.971 31.518 C 93.527 31.793, 90.557 31.338, 87.372 30.509 C 78.194 28.118, 66.677 28.554, 59.500 31.563 C 54.653 33.595, 50.258 34.350, 36.636 35.487 C 27.361 36.261, 19.553 37.113, 19.286 37.381 C 17.685 38.981, 21.437 39.765, 33.216 40.290 C 46.740 40.893, 55.748 42.786, 57.998 45.498 C 59.891 47.779, 57.312 50.909, 50.170 55 C 46.809 56.925, 44.046 58.773, 44.030 59.107 C 44.013 59.440, 48.038 60.018, 52.972 60.390 C 67.898 61.517, 82 65.869, 82 69.349 C 82 71.140, 78.291 74.380, 73.500 76.772 C 64.512 81.260, 40.875 87, 31.380 87 C 27.677 87, 22.246 90.971, 23.399 92.836 C 24.367 94.403, 30.014 94.302, 47.121 92.409 C 63.910 90.552, 74.247 90.818, 76.597 93.169 C 78.069 94.640, 77.883 95.124, 74.350 99.039 C 72.233 101.385, 67.620 105.486, 64.101 108.152 L 57.702 113 40.410 113 C 30.899 113, 22.871 113.399, 22.570 113.887 C 21.648 115.378, 24.251 116.713, 29.500 117.442 C 40.113 118.916, 49.140 122.524, 51.025 126.047 C 51.851 127.591, 51.734 128.827, 50.534 131.233 C 48.997 134.312, 49.027 134.449, 51.729 136.690 C 53.253 137.954, 59.063 142.130, 64.641 145.970 C 74.165 152.527, 80 157.904, 80 160.122 C 80 162.143, 75.168 165.794, 69.867 167.777 C 66.838 168.910, 58.766 171.044, 51.930 172.519 C 21.357 179.115, 18 180.092, 18 182.396 C 18 183.191, 19.268 184.120, 20.819 184.460 C 25.930 185.583, 65.286 181.769, 82.846 178.449 C 88.691 177.343, 90.958 176.367, 93.944 173.670 C 101.145 167.164, 107.953 167.809, 131.500 177.231 C 159.658 188.497, 167.713 185.883, 169.577 164.875 L 170.253 157.249 163.711 156.110 C 141.667 152.271, 137.938 144.623, 151.199 130.446 C 156.652 124.618, 168.725 115.731, 178.088 110.656 L 181.489 108.812 178.573 107.284 C 173.964 104.870, 162.173 105.463, 142.873 109.080 C 121.315 113.120, 106.715 113.658, 104.347 110.500 C 103.408 109.247, 103.017 107.178, 103.300 104.961 C 103.732 101.585, 103.552 101.339, 99.382 99.614 C 95.728 98.103, 95.100 97.450, 95.554 95.639 C 95.853 94.448, 96.416 91.248, 96.805 88.528 C 97.493 83.721, 97.637 83.547, 102.006 82.223 C 107.992 80.409, 119.958 81.207, 126.977 83.888 C 129.990 85.039, 134.831 87.618, 137.736 89.618 C 142.850 93.140, 143.217 93.234, 149.259 92.557 C 159.787 91.377, 164.926 89.933, 168.100 87.262 C 173.367 82.830, 171.106 78.991, 156.479 67.532 C 141.411 55.729, 138.076 50.150, 143.750 46.243 C 148.246 43.147, 151.895 42.099, 163.938 40.443 C 181.183 38.071, 185.435 35.593, 178.426 32 C 173.829 29.643, 136.467 29.906, 124.728 32.377 C 113.869 34.663, 111.737 33.982, 106.009 26.396 C 101.550 20.489, 99.799 19.835, 97.591 23.250 M 98.449 27.468 C 97.652 29.375, 97 31.566, 97 32.336 C 97 33.924, 114.304 40.928, 120.250 41.747 C 122.313 42.031, 124 42.635, 124 43.089 C 124 44.290, 111.339 54.299, 105.500 57.715 L 100.500 60.639 99.407 70.070 C 98.806 75.256, 98.386 79.605, 98.473 79.732 C 98.560 79.860, 101.467 79.466, 104.932 78.855 C 115.918 76.920, 130.576 80.625, 139.816 87.673 C 142.965 90.075, 143.726 90.220, 150.103 89.627 C 159.284 88.774, 167.390 86.042, 167.838 83.651 C 168.277 81.310, 164.651 77.472, 154.390 69.419 C 140.200 58.281, 136.154 52.380, 139.103 47.125 C 141.520 42.820, 148.655 40.011, 162.467 37.928 C 169.442 36.876, 175.882 35.606, 176.777 35.105 C 181.977 32.195, 137.401 32.498, 123.352 35.468 C 115.664 37.094, 115.002 37.095, 111.605 35.483 C 109.625 34.543, 106.390 31.575, 104.417 28.887 C 102.444 26.199, 100.620 24, 100.364 24 C 100.108 24, 99.246 25.561, 98.449 27.468 M 66 32.337 C 62.975 33.035, 59.060 34.370, 57.300 35.303 C 55.539 36.237, 52.529 37, 50.609 37 C 48.689 37, 46.840 37.450, 46.500 38 C 46.145 38.574, 47.077 39.009, 48.691 39.022 C 52.613 39.053, 59.619 42.419, 60.955 44.915 C 62.351 47.525, 61.297 49.654, 56.538 53.832 C 54.592 55.541, 53 57.178, 53 57.469 C 53 57.761, 54.688 58.008, 56.750 58.017 C 66.757 58.064, 82.335 63.330, 83.521 67.067 C 85.216 72.407, 87.201 65.215, 87.403 53 C 87.488 47.840, 88.076 45.536, 90.255 41.822 C 91.765 39.249, 93 36.679, 93 36.111 C 93 34.718, 84.279 32.213, 77.227 31.580 C 74.077 31.298, 69.025 31.638, 66 32.337 M 99.574 40.750 C 100.310 42.813, 100.932 47.324, 100.956 50.776 L 101 57.051 103.792 55.608 C 105.328 54.813, 109.400 52.047, 112.841 49.460 L 119.098 44.757 111.932 42.343 C 107.991 41.016, 103.491 39.271, 101.933 38.465 C 98.078 36.472, 98.055 36.494, 99.574 40.750 M 94.551 41.250 C 92.840 46.789, 90.936 57.088, 91.465 57.944 C 91.824 58.525, 93.441 59, 95.059 59 L 98 59 97.986 51.750 C 97.979 47.763, 97.701 43.487, 97.370 42.250 C 96.714 39.802, 95.168 39.254, 94.551 41.250 M 89.594 62.820 C 89.200 64.156, 83.894 89.812, 74.433 136.123 C 73.724 139.593, 75.160 140.112, 87.255 140.752 C 94.959 141.159, 97.945 140.911, 101.458 139.569 C 111.131 135.875, 114.940 126.647, 109.473 120.150 C 106.037 116.067, 102.195 115.378, 96.621 117.844 C 92.930 119.476, 91.839 119.603, 90.418 118.564 C 88.786 117.370, 88.788 116.814, 90.460 108.204 C 92.221 99.141, 92.219 99.094, 90.114 96.418 C 86.913 92.348, 87.383 88.695, 91.641 84.560 C 95.046 81.253, 95.359 80.424, 96.471 71.762 C 97.125 66.668, 97.624 62.451, 97.580 62.392 C 97.536 62.332, 95.833 62.026, 93.795 61.712 C 90.871 61.261, 89.986 61.494, 89.594 62.820 M 84 71.159 C 84 77.084, 64.041 85.045, 39.500 88.909 C 24.573 91.260, 29.943 91.534, 49.121 89.400 C 65.748 87.551, 74.101 87.959, 77.956 90.810 L 80.625 92.783 82.792 81.704 C 83.984 75.611, 84.743 70.410, 84.480 70.146 C 84.216 69.883, 84 70.338, 84 71.159 M 92.237 87.162 C 90.780 88.620, 90.583 93.624, 91.949 94.469 C 92.472 94.792, 93.192 93.492, 93.551 91.581 C 94.384 87.140, 93.897 85.503, 92.237 87.162 M 74.932 102.625 C 73.044 104.602, 68.392 108.421, 64.593 111.110 L 57.686 116 48.093 116.024 L 38.500 116.047 44.500 118.501 C 52.529 121.784, 54.380 124.141, 53.666 130.171 L 53.112 134.849 65.073 143.050 C 78.467 152.234, 82 155.787, 82 160.077 C 82 167.318, 73.864 170.903, 42.598 177.438 C 33.302 179.381, 25.427 181.252, 25.098 181.597 C 23.798 182.959, 58.944 179.539, 78.500 176.401 C 86.787 175.071, 89.014 174.320, 91.500 172.018 C 95.974 167.875, 98.277 166.999, 104.684 167.006 C 112.046 167.013, 115.060 167.854, 133.734 175.113 C 156.131 183.820, 162.327 183.372, 165.460 172.821 C 166.307 169.970, 167 165.752, 167 163.447 L 167 159.258 161.915 158.583 C 154.268 157.569, 146.401 154.265, 143.542 150.867 C 138.045 144.335, 141.118 135.564, 152.576 125.079 C 158.631 119.538, 172.359 110.024, 174.378 109.970 C 174.995 109.953, 174.666 109.454, 173.646 108.862 C 171.130 107.400, 160.099 108.490, 141.312 112.058 C 132.959 113.645, 122.514 115.244, 118.100 115.612 L 110.076 116.281 112.012 118.742 C 116.226 124.100, 115.429 132.355, 110.227 137.221 C 105.858 141.308, 100.984 143.268, 93.941 143.772 C 87.414 144.239, 74.685 142.659, 72.099 141.061 C 70.999 140.381, 71.512 136.496, 74.886 119.958 C 77.160 108.809, 78.873 99.539, 78.692 99.359 C 78.511 99.178, 76.819 100.648, 74.932 102.625 M 94.521 102.286 C 93.838 104.418, 92 114.047, 92 115.490 C 92 116.668, 92.422 116.662, 94.750 115.447 C 96.263 114.658, 98.749 114.010, 100.276 114.006 L 103.051 114 101.434 110.872 C 100.544 109.151, 100.016 106.697, 100.260 105.418 C 100.614 103.566, 100.115 102.887, 97.807 102.083 C 95.668 101.337, 94.808 101.390, 94.521 102.286" stroke="none" fill="black" fill-rule="evenodd"/>
</svg>