<svg xmlns="http://www.w3.org/2000/svg" width="200" height="200" viewBox="0 0 200 200" version="1.1">
	<path d="M 48 19.593 C 29.741 29.387, 22.249 37.886, 24.382 46.386 C 25.938 52.583, 37.830 59.782, 53.605 64.075 C 57.947 65.257, 62.117 66.559, 62.872 66.970 C 63.626 67.380, 57.776 67.960, 49.872 68.258 C 34.489 68.839, 25.850 70.271, 23.954 72.556 C 21.170 75.910, 23.709 78.723, 36.723 86.706 C 56.146 98.619, 60.974 104.212, 58.066 111.426 C 52.447 125.369, 52.113 129, 56.453 129 C 58.723 129, 61.869 127.033, 78.909 114.958 C 83.534 111.681, 88.371 109, 89.659 109 C 91.776 109, 92 109.442, 92 113.618 C 92 116.362, 90.316 123.300, 87.850 130.715 L 83.700 143.195 63.925 142.473 C 42.446 141.688, 35 142.232, 35 144.583 C 35 146.513, 37.173 147.388, 52 151.422 C 67.922 155.755, 75.403 158.576, 78.799 161.527 C 81.285 163.687, 81.372 164.004, 79.892 165.510 C 75.537 169.938, 60.108 173.380, 38.500 174.743 C 28.841 175.352, 26.500 175.792, 26.500 176.999 C 26.500 179.324, 34.322 179.877, 79.500 180.741 C 120.082 181.517, 139.832 180.864, 161.473 178.028 C 170.505 176.844, 174.060 174.734, 169.770 173.103 C 168.353 172.564, 155.563 171.408, 141.347 170.533 C 127.131 169.659, 113.044 168.687, 110.042 168.374 L 104.584 167.804 116.542 163.393 C 144.274 153.165, 154.023 148.109, 152.694 144.645 C 151.751 142.187, 148.965 141.431, 134 139.568 C 118.715 137.666, 111.726 135.095, 111.170 131.170 C 110.761 128.282, 114.800 122.017, 119.267 118.610 C 128.949 111.225, 149.544 111.602, 167.378 119.488 C 173.917 122.380, 175 122.537, 175 120.588 C 175 119.772, 172.121 118.047, 168.176 116.499 L 161.351 113.822 161.801 100.556 C 162.311 85.512, 161.620 82.228, 156.281 74.337 C 152.985 69.466, 152.856 68.968, 153.993 65.520 C 154.657 63.510, 154.895 61.559, 154.523 61.183 C 154.151 60.807, 151.743 59.991, 149.173 59.369 C 144.894 58.333, 145.597 58.227, 157.500 58.111 C 170.219 57.988, 182.774 56.602, 184.231 55.161 C 185.419 53.986, 166.741 35.801, 160.502 32.056 C 152.826 27.450, 144.388 25.708, 136.526 27.106 C 133.241 27.691, 129.699 28.626, 128.656 29.184 C 126.541 30.316, 126.971 29.081, 129.902 25.606 C 131.458 23.761, 131.257 23.729, 122.258 24.391 C 117.175 24.765, 108.416 26.230, 102.795 27.648 C 95.027 29.607, 91.277 30.073, 87.167 29.590 C 83.591 29.170, 81.275 29.357, 80.329 30.142 C 79.167 31.106, 77.918 30.375, 73.699 26.258 C 68.541 21.225, 59.578 14.985, 57.554 15.017 C 56.974 15.026, 52.675 17.085, 48 19.593 M 49 22.114 C 29.373 32.808, 22.946 41.576, 29.048 49.334 C 31.862 52.912, 43.595 58.442, 55 61.566 C 70.223 65.736, 72.500 66.584, 72.500 68.083 C 72.500 69.217, 68.599 69.737, 53 70.685 C 34.265 71.823, 25.449 73.372, 25.596 75.500 C 25.679 76.705, 51.202 92.993, 52.119 92.426 C 52.473 92.208, 56.062 88.368, 60.096 83.894 L 67.430 75.758 60.057 76.129 C 55.131 76.377, 52.556 76.122, 52.296 75.360 C 52.034 74.592, 54.946 73.980, 61.203 73.488 C 71.577 72.671, 70.861 73.080, 84.158 60.360 L 90.816 53.990 86.444 47.470 C 84.039 43.884, 81.651 40.199, 81.138 39.281 C 80.289 37.765, 79.580 37.874, 73.352 40.475 C 69.583 42.049, 63.022 45.061, 58.772 47.168 C 54.522 49.276, 50.584 51, 50.022 51 C 47.031 51, 50.326 48.353, 62.560 40.927 L 76.119 32.697 71.810 28.298 C 67.565 23.965, 59.195 17.987, 57.412 18.014 C 56.911 18.022, 53.125 19.867, 49 22.114 M 110.560 28.613 C 106.193 29.401, 102.440 30.227, 102.219 30.448 C 101.998 30.669, 103.770 31.092, 106.158 31.387 C 108.546 31.683, 112.541 32.180, 115.035 32.492 C 119.136 33.004, 119.848 32.768, 122.472 30.029 L 125.374 27 121.937 27.090 C 120.047 27.139, 114.927 27.824, 110.560 28.613 M 133.009 30.548 C 129.989 31.392, 127.142 32.458, 126.683 32.917 C 126.225 33.375, 129.225 34.067, 133.352 34.454 C 137.479 34.841, 146.316 35.933, 152.991 36.881 C 164.697 38.543, 165.045 38.540, 162.813 36.800 C 154.427 30.260, 142.780 27.817, 133.009 30.548 M 81 33 C 79.758 33.803, 79.844 33.969, 81.500 33.969 C 82.600 33.969, 84.175 33.533, 85 33 C 86.242 32.197, 86.156 32.031, 84.500 32.031 C 83.400 32.031, 81.825 32.467, 81 33 M 88 34.697 C 85.525 35.564, 83.350 36.400, 83.166 36.554 C 82.770 36.887, 89.588 47.772, 91.691 50.164 C 93.030 51.687, 94.072 51.135, 103.983 43.664 L 114.811 35.500 110.656 34.886 C 99.274 33.206, 92.422 33.148, 88 34.697 M 114.500 42.416 C 106.763 50.482, 100.436 55, 96.878 55 C 94.734 55, 91.768 57.079, 84.522 63.661 C 79.278 68.424, 75.103 72.430, 75.244 72.563 C 75.385 72.696, 84.559 72.322, 95.632 71.733 L 115.764 70.662 117.484 66.763 C 118.431 64.619, 120.959 61.594, 123.103 60.041 L 127.001 57.217 124.429 56.572 C 119.938 55.444, 122.220 53.576, 127.732 53.869 C 131.283 54.057, 135.661 53.218, 142.165 51.101 C 147.299 49.430, 155.438 47.094, 160.250 45.909 C 165.063 44.724, 169 43.406, 169 42.980 C 169 42.554, 166.188 41.721, 162.750 41.129 C 155.009 39.795, 124.180 35.971, 122.057 36.081 C 121.201 36.125, 117.800 38.976, 114.500 42.416 M 104.070 47.009 C 96.788 52.661, 96.720 53.844, 103.984 48.512 C 108.257 45.375, 111.848 41.986, 110.872 42.009 C 110.668 42.014, 107.606 44.264, 104.070 47.009 M 170 45.870 C 169.175 46.315, 161.975 48.435, 154 50.583 L 139.500 54.487 147.500 55.257 C 154.183 55.899, 178.564 54.769, 179.563 53.770 C 180.007 53.327, 172.955 44.994, 172.167 45.030 C 171.800 45.047, 170.825 45.425, 170 45.870 M 126.589 61.046 C 121.413 64.328, 119.692 67.061, 119.692 72 C 119.692 76.238, 121.189 79.388, 125.232 83.664 C 128.879 87.519, 128.074 90.358, 124.332 86.842 C 122.981 85.573, 120.939 83.019, 119.795 81.168 L 117.715 77.802 114.983 84.151 C 113.480 87.643, 110.161 95.189, 107.608 100.919 L 102.964 111.339 108.732 105.866 C 116.205 98.777, 122.759 94.344, 130.920 90.862 C 138.323 87.703, 140 87.418, 140 89.317 C 140 90.042, 137.569 91.401, 134.597 92.338 C 126.470 94.900, 115.483 102.659, 106.141 112.434 C 96.930 122.072, 94.058 122.782, 98.301 114.372 C 101.913 107.216, 116 75.235, 116 74.193 C 116 73.302, 105.418 73.536, 95 74.657 C 90.157 75.178, 89.775 75.374, 91.797 76.298 C 93.314 76.991, 93.993 78.052, 93.797 79.424 C 93.366 82.435, 85.001 86.148, 68.454 90.672 L 54.408 94.513 57.705 98.835 C 62.559 105.199, 62.697 106.953, 59.065 116.142 C 54.459 127.798, 54.997 128.344, 64.500 121.663 C 87.942 105.185, 90.029 104.172, 93.462 107.605 C 96.713 110.856, 94.006 124.428, 86.561 142.207 L 85.009 145.914 62.755 145.434 L 40.500 144.954 55.643 149.406 C 63.972 151.855, 73.077 155.019, 75.875 156.437 C 88.526 162.847, 85.460 168.817, 66.872 173.968 C 62.840 175.086, 57.769 176, 55.603 176 C 53.438 176, 52.004 176.338, 52.416 176.750 C 52.828 177.162, 68.091 177.796, 86.333 178.158 C 119.248 178.810, 157.025 177.168, 161 174.912 C 162.039 174.322, 161.385 174.051, 158.867 174.030 C 152.138 173.974, 103.532 171.012, 100.250 170.458 C 94.893 169.554, 96.524 167.633, 105.250 164.570 C 129.451 156.076, 149.276 147.447, 149.158 145.461 C 149.096 144.421, 146.420 143.901, 129.299 141.605 C 117.653 140.043, 112.705 138.278, 109.772 134.642 C 107.319 131.600, 107.584 129.048, 110.895 123.827 C 114.330 118.410, 118.993 114.649, 125.069 112.395 C 130.400 110.417, 146.363 110.154, 152.851 111.936 C 155.244 112.594, 157.421 112.913, 157.688 112.645 C 157.955 112.378, 158.620 108.636, 159.164 104.330 C 160.741 91.861, 159.042 82.766, 153.745 75.329 C 151.345 71.959, 150.850 70.375, 151.164 67.076 C 151.607 62.430, 152.447 62.941, 139.768 60.148 L 131.036 58.225 126.589 61.046 M 64.029 83.418 C 59.958 87.558, 58.167 90, 59.199 90 C 60.102 90, 66.281 88.434, 72.932 86.520 C 94.028 80.447, 95.912 77.875, 79.746 77.214 L 70.500 76.836 64.029 83.418" stroke="none" fill="black" fill-rule="evenodd"/>
</svg>