<svg xmlns="http://www.w3.org/2000/svg" width="200" height="200" viewBox="0 0 200 200" version="1.1">
	<path d="M 40.655 9.389 C 35.831 11.196, 32.399 14.367, 29.710 19.500 C 27.300 24.100, 26.869 35.106, 28.407 52.750 L 29.301 63 26.567 63 C 23.282 63, 23.543 65.337, 26.883 65.827 C 31.245 66.467, 32.295 64.298, 31.624 56.030 C 29.982 35.776, 29.813 28.314, 30.908 24.295 C 32.323 19.097, 36.358 14.166, 40.671 12.364 C 48.192 9.222, 66.679 11.714, 83.820 18.183 L 90.141 20.567 82.180 26.738 C 77.802 30.131, 69.896 37.233, 64.610 42.518 L 55 52.128 55 46.312 C 55 43.113, 55.900 35.773, 57 30 C 59.254 18.171, 59.415 16, 58.035 16 C 56.142 16, 54.887 20.210, 53.033 32.766 C 50.754 48.214, 48.605 58.519, 46 66.500 C 42.274 77.915, 40.790 87.286, 40.695 100 C 40.595 113.390, 41.651 118, 44.820 118 C 47.417 118, 49.400 115.429, 51.763 109 C 55.023 100.127, 62.559 62.999, 61.099 63.001 C 60.770 63.001, 58.138 63.899, 55.250 64.996 C 49.334 67.245, 48.747 66.567, 51.995 61.241 L 53.982 57.982 55.991 59.991 C 59.273 63.273, 62.041 62.531, 69.744 56.305 C 72.079 54.419, 74.448 53.159, 75.009 53.505 C 75.570 53.852, 76.966 55.973, 78.112 58.219 C 81.439 64.740, 80.923 73.933, 76.413 88.500 C 74.370 95.100, 71.581 104.100, 70.216 108.500 C 68.408 114.332, 67.710 118.939, 67.643 125.500 C 67.535 135.953, 69.339 141.049, 75.601 147.980 C 79.318 152.095, 79.371 152.257, 77.463 153.689 C 71.007 158.538, 53.962 165.183, 37 169.465 C 33.425 170.367, 29.611 171.369, 28.524 171.692 C 26.982 172.149, 27.289 171.434, 29.923 168.435 C 34.103 163.674, 37.795 155.775, 38.606 149.858 C 39.594 142.648, 37.335 134.978, 30.046 120.791 C 19.631 100.519, 18.181 93.643, 22.080 83 C 25.219 74.432, 25.314 74, 24.071 74 C 22.322 74, 18.180 83.699, 17.475 89.444 C 16.529 97.164, 18.314 103, 27.271 121.461 C 35.487 138.396, 35.500 138.434, 35.500 146.461 C 35.500 153.435, 35.121 155.183, 32.642 159.656 C 31.070 162.492, 27.404 167.190, 24.496 170.095 C 21.552 173.035, 19.435 175.970, 19.721 176.714 C 20.045 177.559, 20.650 177.719, 21.367 177.149 C 21.990 176.652, 30.066 174.169, 39.312 171.631 C 58.914 166.251, 69.097 162.370, 76.495 157.460 C 83.494 152.814, 83.938 151.397, 79.530 147.764 C 77.587 146.163, 74.761 142.748, 73.249 140.176 C 70.759 135.941, 70.504 134.604, 70.544 126 C 70.584 117.266, 71.057 115.009, 76.415 98 C 84.989 70.777, 85.083 60.237, 76.824 51.978 L 73.821 48.975 68.790 53.499 C 62.832 58.855, 59.282 60.106, 57.387 57.514 C 56.256 55.968, 56.572 55.136, 59.792 51.191 C 64.294 45.676, 81.429 30.326, 88.585 25.397 C 93.084 22.299, 94.082 21.973, 95.978 22.988 C 97.938 24.037, 98.540 23.729, 101.663 20.081 C 104.473 16.797, 105.818 16, 108.543 16 C 113.214 16, 114.424 18.554, 113.594 26.658 C 113.108 31.401, 113.329 33.735, 114.473 35.947 C 115.313 37.571, 116 40.521, 116 42.501 C 116 45.707, 115.589 46.280, 112.250 47.725 C 109.692 48.831, 104.455 49.488, 95.775 49.791 C 76.552 50.462, 76.278 52.667, 94.263 61.995 C 99.893 64.915, 104.687 67.460, 104.915 67.650 C 105.964 68.525, 99.010 81.983, 88.424 99.563 C 75.905 120.352, 73.875 125.792, 77.841 127.915 C 80.426 129.299, 86.590 128.041, 94.615 124.491 C 97.746 123.107, 100.492 122.159, 100.718 122.385 C 100.944 122.610, 99.461 126.104, 97.422 130.148 C 87.071 150.684, 85.313 165.948, 92.428 173.493 C 95.548 176.800, 96.104 177, 102.208 177 C 110.605 177, 118.697 173.086, 127.687 164.676 C 138.464 154.594, 143.328 145.711, 135.993 149.504 C 129.774 152.720, 125.421 150.754, 122.239 143.292 C 115.618 127.768, 117.278 97.077, 125.615 80.846 L 128.361 75.500 129.123 78.500 C 129.542 80.150, 131.050 89.194, 132.473 98.599 C 138.104 135.804, 148.312 163.720, 162.416 180.482 C 165.638 184.311, 165.868 184.409, 168.429 183.038 C 173.251 180.457, 179.034 174.854, 181.145 170.716 C 185.703 161.782, 182.265 153.659, 166.471 136.047 C 154.825 123.060, 151.547 117.410, 152.320 111.651 C 152.927 107.128, 154.509 105.402, 167.849 94.717 C 174.611 89.301, 178.988 84.042, 178.996 81.321 C 179.005 78.640, 175.803 77, 170.557 77 C 164.718 77, 148.001 80.914, 143.171 83.412 C 138.843 85.650, 138.413 85.491, 136.609 80.980 C 132.907 71.728, 135.473 64.237, 143.919 59.640 C 149.089 56.827, 161.809 53.688, 173 52.464 C 183.973 51.263, 187.130 48.799, 181.250 46.023 C 177.434 44.221, 160.828 39.016, 159 39.049 C 158.175 39.064, 156.275 40.847, 154.778 43.012 C 151.558 47.667, 147.860 48.964, 144.106 46.754 C 142.673 45.910, 137.162 38.757, 131.860 30.860 C 121.796 15.867, 116.887 11, 111.829 11 C 110.249 11, 105.409 12.783, 101.073 14.963 L 93.191 18.926 86.846 16.427 C 68.308 9.125, 49.152 6.206, 40.655 9.389 M 115.448 16.899 C 116.840 19.591, 117.063 21.584, 116.531 26.559 C 116.020 31.328, 116.235 33.554, 117.430 35.864 C 119.723 40.300, 119.441 45.238, 116.750 47.759 C 113.149 51.132, 109.308 52.083, 96.730 52.716 C 90.229 53.042, 85.283 53.683, 85.739 54.139 C 86.196 54.596, 91.595 57.583, 97.739 60.777 L 108.909 66.586 105.536 74.346 C 103.681 78.613, 97.240 90.294, 91.224 100.303 C 79.411 119.954, 77.178 124.747, 79.431 125.612 C 81.465 126.393, 88.381 124.278, 98.092 119.905 C 102.862 117.757, 106.964 116, 107.209 116 C 107.454 116, 104.648 122.001, 100.975 129.336 C 93.354 144.553, 90.558 154.207, 91.200 163.084 C 91.551 167.945, 92.150 169.604, 94.342 171.794 C 96.623 174.074, 97.885 174.492, 102.355 174.450 C 109.984 174.379, 117.760 170.240, 126.947 161.360 C 134.074 154.473, 134.342 154.059, 131.700 154.030 C 126.832 153.978, 123.324 151.364, 120.607 145.767 C 116.731 137.779, 115.536 130.778, 115.613 116.500 C 115.718 97.177, 119.845 82.280, 127.670 72.980 L 130.451 69.675 131.126 72.088 C 131.780 74.427, 131.804 74.415, 131.900 71.700 C 132.250 61.887, 142.785 54.772, 161.721 51.561 C 166.550 50.742, 172.750 49.687, 175.500 49.216 L 180.500 48.360 170.168 45.020 L 159.836 41.680 156.090 45.778 C 151.520 50.778, 148.354 51.736, 143.698 49.527 C 140.111 47.825, 137.211 44.175, 126.667 28.095 C 123.275 22.923, 118.969 17.524, 117.097 16.099 L 113.694 13.508 115.448 16.899 M 52.079 54.583 C 52.127 55.748, 52.364 55.985, 52.683 55.188 C 52.972 54.466, 52.936 53.603, 52.604 53.271 C 52.272 52.939, 52.036 53.529, 52.079 54.583 M 53.500 68.244 C 51.300 68.790, 49.001 69.370, 48.391 69.533 C 46.323 70.086, 43.519 87.872, 43.509 100.500 C 43.504 107.100, 43.870 113.400, 44.322 114.500 C 45.111 116.419, 45.201 116.399, 46.536 114 C 49.017 109.540, 51.920 99.761, 54.402 87.500 C 57.164 73.851, 58.330 66.942, 57.838 67.126 C 57.652 67.196, 55.700 67.699, 53.500 68.244 M 132.441 81 C 139.388 126.054, 142.652 138.958, 152.040 158.500 C 156.730 168.262, 165.144 181, 166.903 181 C 168.664 181, 177.769 171.972, 178.996 169.010 C 182.253 161.146, 178.499 153.325, 163.628 137 C 154.955 127.478, 149 117.807, 149 113.241 C 149 108.270, 152.295 103.854, 161.428 96.583 C 171.071 88.906, 176 83.778, 176 81.423 C 176 80.355, 174.545 80, 170.160 80 C 160.354 80, 138.941 86.477, 140.485 88.976 C 140.833 89.539, 140.397 90, 139.517 90 C 138.539 90, 136.743 87.563, 134.908 83.750 C 132.362 78.457, 131.984 78.036, 132.441 81" stroke="none" fill="black" fill-rule="evenodd"/>
</svg>