<svg xmlns="http://www.w3.org/2000/svg" width="200" height="200" viewBox="0 0 200 200" version="1.1">
	<path d="M 125.390 14.605 C 123.250 16.038, 120.545 18.087, 119.378 19.159 C 117.536 20.851, 117.177 20.903, 116.659 19.554 C 115.634 16.882, 114 17.855, 114 21.139 C 114 23.441, 112.575 26.040, 108.656 30.889 C 105.717 34.525, 101.428 40.088, 99.125 43.250 C 96.821 46.413, 94.483 49, 93.929 49 C 93.374 49, 91.069 48.055, 88.805 46.901 C 84.947 44.932, 84.630 44.910, 83.719 46.538 C 81.960 49.680, 75.602 56.212, 73.569 56.964 C 68.456 58.855, 65.489 55.171, 59.503 39.500 C 55.257 28.381, 50.548 18.457, 49.091 17.557 C 46.883 16.191, 47.238 19.093, 49.894 24.116 C 51.460 27.077, 54.657 34.548, 56.997 40.718 C 62.256 54.579, 66.410 60, 71.771 60 C 74.848 60, 76.193 59.168, 80.792 54.419 C 86.093 48.947, 86.258 48.863, 89.349 50.092 C 91.082 50.781, 92.656 51.461, 92.847 51.603 C 93.039 51.745, 92.406 53.196, 91.443 54.828 C 90.174 56.976, 88.685 57.955, 86.045 58.377 C 75.511 60.061, 63.272 69.952, 57.755 81.238 C 48.359 100.459, 53.649 118, 68.842 118 C 73.872 118, 74.728 116.741, 72.031 113.312 C 70.298 111.109, 70.048 109.843, 70.598 106.071 C 71.919 97.016, 78.127 82.298, 87.239 66.624 L 91.235 59.748 97.786 60.419 C 105.405 61.200, 106.510 61.681, 104.965 63.543 C 101.733 67.436, 100.759 74.795, 100.006 101 C 99.250 127.305, 98.358 134.694, 94.999 142.471 C 93.332 146.332, 70.564 175.487, 66.182 179.374 C 64.076 181.242, 64.071 181.238, 64.925 178.374 C 65.396 176.793, 67.890 169.875, 70.468 163 C 76.438 147.075, 79.391 134.845, 78.544 129.549 C 77.896 125.498, 75.593 121.990, 73.595 122.012 C 72.993 122.018, 69.350 125.200, 65.500 129.083 C 53.424 141.261, 42.824 147.750, 33.420 148.720 C 28.455 149.233, 27.909 149.063, 24.923 146.077 C 21.889 143.043, 21.759 142.598, 22.265 137.015 C 22.975 129.188, 26.861 122.134, 35.021 113.862 L 41.569 107.224 35.806 92.862 C 27.644 72.525, 27.300 70.351, 30.421 58.832 C 34.531 43.659, 36.724 16.263, 33.750 17.247 C 32.929 17.518, 32.421 20.204, 32.271 25.080 C 31.912 36.725, 29.987 50.832, 27.784 57.965 C 24.661 68.075, 25.547 74.588, 32.357 91.580 C 35.461 99.324, 38 105.856, 38 106.095 C 38 106.335, 35.341 109.325, 32.090 112.741 C 22.289 123.041, 17.362 135.508, 19.970 143.409 C 24.621 157.501, 44.126 153.088, 65.113 133.197 C 73.201 125.531, 73.954 125.046, 74.936 126.881 C 77.511 131.692, 75.568 140.882, 66.910 164.847 C 61.081 180.984, 60.332 185, 63.152 185 C 64.916 185, 72.041 177.278, 83.930 162.481 C 96.737 146.542, 97.481 145.295, 100.076 135.423 C 101.806 128.845, 102.292 122.916, 102.938 100.500 C 103.406 84.300, 104.182 72.300, 104.879 70.500 C 106.875 65.347, 108.298 63, 109.419 63.010 C 111.172 63.026, 120.877 67.778, 126.282 71.268 L 131.289 74.500 125.895 75.332 C 108.888 77.957, 104 80.035, 104 84.641 C 104 89.175, 108.456 93.511, 123.508 103.625 C 131.478 108.980, 138 113.789, 138 114.310 C 138 114.891, 134.130 114.983, 128 114.549 C 120.673 114.029, 118 114.150, 118 115 C 118 115.638, 114.230 122.986, 109.623 131.330 C 91.749 163.696, 86.838 175.153, 88.898 179.677 C 89.899 181.872, 90.510 182.148, 93.187 181.613 C 100.117 180.227, 104.159 176.295, 114.392 160.987 C 125.647 144.149, 130.851 138, 133.846 138 C 137.414 138, 138.802 144.966, 141.817 178 L 142.501 185.500 146.501 185.191 C 152.075 184.761, 164.368 181.363, 169.118 178.940 C 174.888 175.996, 181.041 170.096, 183.134 165.500 C 186.878 157.280, 184.632 147.396, 177.622 141.241 C 173.157 137.321, 167.729 136.852, 163.680 140.037 L 161.090 142.074 159.528 139.054 C 155.128 130.546, 157.086 121.610, 167.408 103.092 C 176.946 85.979, 176.087 82.835, 162.992 86.939 C 155.303 89.349, 153.027 89.472, 150.485 87.613 C 148.715 86.318, 148.675 85.790, 149.887 79.693 C 151.448 71.838, 150.887 69.610, 146.934 67.973 C 144.177 66.831, 142.240 66.866, 129.589 68.286 C 128.089 68.454, 127.413 67.479, 126.443 63.750 C 125.763 61.138, 125.573 59, 126.021 59 C 126.468 59, 128.784 59.835, 131.167 60.855 C 142.435 65.681, 159.392 67.587, 168.714 65.077 C 178.657 62.400, 181.839 55.552, 175 51.549 C 172.040 49.816, 169.783 49.500, 160.371 49.500 L 149.242 49.500 155.371 46.257 C 158.742 44.473, 162.975 41.429, 164.777 39.492 C 167.538 36.525, 167.883 35.649, 166.963 33.932 C 165.215 30.664, 160.373 28.310, 150.614 25.984 C 145.601 24.789, 140.713 23.599, 139.750 23.338 C 138.545 23.013, 138 21.865, 138 19.655 C 138 12.144, 132.408 9.905, 125.390 14.605 M 125.400 17.854 C 117.491 23.640, 117.369 23.952, 119.336 33.295 C 120.286 37.808, 121.836 44.593, 122.782 48.373 L 124.500 55.245 131.652 58.072 C 147.351 64.278, 161.905 65.322, 171.823 60.953 C 175.329 59.408, 176.084 58.619, 175.823 56.775 C 175.169 52.168, 166.405 51.266, 142 53.292 C 136.741 53.729, 139.245 51.309, 149.247 46.285 C 159.439 41.167, 165 37.181, 165 34.992 C 165 33.219, 156.543 29.972, 145.885 27.651 C 136.370 25.579, 136.007 25.401, 136.004 22.815 C 135.993 14.787, 132.088 12.960, 125.400 17.854 M 110.919 32.235 C 106.934 37.278, 99.422 47.357, 98.610 48.750 C 98.079 49.662, 98.951 50, 101.835 50 C 109.025 50, 114.636 41.759, 113.806 32.418 L 113.500 28.969 110.919 32.235 M 115.635 40.073 C 114.028 48.108, 108.050 53, 99.839 53 C 96.618 53, 95.167 53.503, 94.277 54.928 C 93.214 56.631, 93.390 56.919, 95.786 57.388 C 102.672 58.736, 109.800 59.133, 110.376 58.201 C 110.716 57.651, 113.245 56.661, 115.997 56.001 C 118.749 55.341, 121 54.451, 121 54.023 C 121 52.059, 117.668 38.411, 117.012 37.688 C 116.607 37.241, 115.987 38.314, 115.635 40.073 M 116 58.636 C 115.175 58.924, 113.825 59.386, 113 59.665 C 112.054 59.984, 113.662 61.273, 117.350 63.152 C 120.568 64.792, 123.406 65.928, 123.657 65.676 C 123.908 65.425, 123.725 63.707, 123.249 61.860 C 122.375 58.464, 119.794 57.316, 116 58.636 M 78.280 64.018 C 66.312 69.999, 57.189 83.630, 56.235 96.958 C 55.453 107.888, 59.255 114.997, 65.885 115.002 C 68.444 115.004, 68.493 114.879, 68.170 109.168 C 67.926 104.874, 68.521 101.302, 70.418 95.648 C 73.025 87.883, 80.182 72.840, 84.598 65.845 C 85.919 63.752, 87 61.806, 87 61.520 C 87 60.313, 83.941 61.189, 78.280 64.018 M 133.108 70.710 C 132.125 71.099, 132.859 72.240, 135.608 74.593 L 139.500 77.925 133 77.982 C 124.111 78.061, 113.491 79.695, 109.942 81.530 C 105.796 83.674, 106.070 86.931, 110.750 91.138 C 112.813 92.993, 120.463 98.469, 127.750 103.309 C 138.461 110.422, 141 112.557, 141 114.446 C 141 117.529, 138.107 118.209, 128.237 117.447 L 120.500 116.849 110.797 134.675 C 93.558 166.346, 88.339 179, 92.514 179 C 97.287 179, 102.562 173.675, 112.500 158.827 C 122.577 143.770, 130.399 134.987, 133.707 135.015 C 139.324 135.063, 141.024 140.461, 143.438 165.914 C 144.295 174.942, 145.127 182.460, 145.287 182.621 C 145.448 182.781, 148.486 182.299, 152.040 181.549 C 171.431 177.456, 181.983 169.061, 181.995 157.718 C 182.001 151.878, 180.176 147.367, 176.373 143.821 C 171.729 139.492, 168.607 139.239, 164.948 142.898 C 163.242 144.604, 161.646 146, 161.401 146 C 161.156 146, 159.616 143.887, 157.978 141.304 C 155.430 137.287, 155 135.631, 155 129.842 C 155 121.439, 156.928 116.138, 165.489 101 C 169.066 94.675, 171.994 89.162, 171.996 88.750 C 172.003 87.458, 168.533 87.924, 162.407 90.039 C 155.620 92.382, 150.183 91.965, 147.397 88.887 C 145.806 87.129, 145.744 86.304, 146.808 81.149 C 148.391 73.485, 148.312 71.334, 146.418 70.607 C 144.498 69.870, 135.042 69.943, 133.108 70.710" stroke="none" fill="black" fill-rule="evenodd"/>
</svg>