<svg xmlns="http://www.w3.org/2000/svg" width="200" height="200" viewBox="0 0 200 200" version="1.1">
	<path d="M 163.185 15.215 C 161.841 16.559, 161.636 16.570, 101.500 18.387 C 61.795 19.588, 60.432 19.567, 58.358 17.740 C 56.256 15.889, 56.190 15.891, 54.827 17.837 C 53.646 19.522, 52.086 19.863, 44.439 20.105 C 39.489 20.262, 34.851 20.026, 34.133 19.582 C 31.550 17.986, 30.811 20.551, 32.046 26.830 C 32.704 30.174, 33.059 37.105, 32.835 42.232 C 32.170 57.434, 27.085 64.863, 17.072 65.263 C 11.373 65.490, 11.538 68.006, 17.250 67.984 C 23.914 67.958, 28.904 64.539, 32.477 57.550 C 35.418 51.800, 35.500 51.255, 35.500 37.569 L 35.500 23.500 44.198 23.212 L 52.895 22.924 53.532 26.712 C 53.882 28.795, 55.072 33.875, 56.176 38 C 57.697 43.685, 58.040 47.194, 57.596 52.500 C 56.954 60.150, 58.418 65.092, 59.595 59.250 C 59.955 57.462, 60.849 56, 61.580 56 C 63.493 56, 69.969 67.304, 68.589 68.235 C 67.990 68.639, 65.188 68.976, 62.361 68.985 C 57.234 69, 57.221 69.008, 56.530 72.690 C 56.150 74.719, 55.872 80.644, 55.914 85.856 C 56.039 101.423, 60.444 115.187, 67.885 123.260 L 71.944 127.663 58.722 137.419 C 40.006 151.229, 34.929 154.204, 29.120 154.762 C 25.129 155.146, 23.856 154.856, 22.181 153.181 C 19.732 150.732, 18.013 145.050, 18.006 139.378 C 18 135.354, 18.094 135.241, 21.923 134.628 C 35.762 132.415, 41.958 106.676, 34.334 83.070 C 32.082 76.098, 26.470 69.977, 22.405 70.059 C 19.778 70.112, 19.678 70.231, 21.358 71.309 C 28.604 75.953, 31.321 80.307, 33.557 90.856 C 37.042 107.298, 33.386 125.354, 25.613 130.094 C 23.901 131.138, 20.813 131.994, 18.750 131.996 L 15 132 15 137.318 C 15 140.244, 15.708 145.021, 16.573 147.934 C 20.366 160.707, 29.282 161.353, 45.912 150.059 C 55.102 143.819, 77.457 126.891, 77.833 125.889 C 78.017 125.400, 76.984 125, 75.538 125 C 72.112 125, 68.862 121.650, 65.147 114.291 C 60.432 104.950, 58.681 96.928, 58.606 84.314 C 58.569 78.162, 58.758 72.909, 59.025 72.641 C 59.293 72.374, 62.231 71.847, 65.553 71.471 L 71.594 70.788 74.297 74.872 C 75.784 77.119, 77 80.050, 77 81.385 C 77 83.183, 77.454 83.709, 78.750 83.413 C 80.699 82.968, 86.665 90.313, 92.629 100.500 C 96.953 107.887, 99.280 110.431, 103.584 112.473 C 112.870 116.879, 120.412 104.810, 116.590 91.660 C 114.777 85.427, 109.583 80.008, 103.494 77.998 C 99.790 76.776, 89.022 77.089, 82.602 78.605 L 79.704 79.290 80.419 73.897 C 80.817 70.900, 81.771 68.148, 82.567 67.702 C 84.284 66.742, 84.457 62.857, 82.854 61.254 C 81.993 60.393, 82.020 58.169, 82.965 52.304 C 84.460 43.021, 86.685 37, 88.621 37 C 90.574 37, 95.924 45.678, 102.917 60.191 C 111.535 78.077, 110.668 77.381, 117.293 71.721 C 120.323 69.132, 124.188 64.922, 125.883 62.364 C 134.499 49.355, 128.628 41.179, 105.433 33.885 C 99.695 32.081, 95 30.303, 95 29.934 C 95 28.532, 129.304 20.971, 130.453 22.119 C 130.683 22.349, 131.162 39.404, 131.517 60.019 C 132.010 88.662, 132.497 98.389, 133.581 101.270 C 138.624 114.670, 130.037 121.060, 99.500 126.632 C 91.800 128.037, 84.381 129.711, 83.012 130.351 C 79.701 131.900, 79.343 134.525, 82.189 136.380 C 84.303 137.758, 85.352 137.631, 94.500 134.891 C 108.163 130.799, 119.063 130.050, 125.231 132.778 C 131.763 135.667, 133.529 139.301, 133.359 149.500 C 133.270 154.839, 132.380 160.327, 130.684 166 L 128.143 174.500 130.321 176.886 C 143.391 191.196, 155.411 186.033, 159.565 164.325 C 161.776 152.766, 161.077 139.539, 157.531 125.890 C 156.894 123.435, 157.112 123.239, 161.177 122.612 C 168.618 121.463, 177.617 118.036, 180.083 115.412 C 182.297 113.055, 182.352 112.718, 180.944 110.196 C 179.145 106.976, 171.362 102.541, 164.682 100.930 L 159.864 99.768 160.238 64.634 C 160.553 35.031, 160.878 28.696, 162.302 24.393 L 163.992 19.286 174.187 18.584 C 185.477 17.807, 186.631 17.466, 184.926 15.411 C 183.391 13.562, 165.004 13.396, 163.185 15.215 M 143.727 19.746 L 133.955 20.073 134.252 58.786 C 134.518 93.263, 134.747 97.989, 136.345 101.968 C 138.628 107.649, 137.881 111.927, 133.795 116.580 C 129.738 121.202, 124.680 123.696, 113.776 126.452 L 104.863 128.705 114.181 128.603 C 121.822 128.518, 124.220 128.876, 127.500 130.588 C 132.072 132.975, 135.520 138.310, 136.432 144.408 C 137.096 148.842, 134.949 163.058, 132.619 169.661 L 131.172 173.763 134.922 177.424 C 144.580 186.854, 152.572 182.443, 156.566 165.478 C 159.156 154.471, 157.690 133.708, 153.565 123 C 153.105 121.804, 155.065 121.048, 163.225 119.272 C 173.312 117.078, 178.500 114.584, 178.500 111.932 C 178.500 109.904, 172.449 106.224, 166.115 104.400 C 163.027 103.511, 159.825 102.445, 159 102.031 C 157.710 101.384, 157.500 96.457, 157.500 66.889 C 157.500 33.907, 157.738 30.385, 160.613 20.750 C 161.053 19.275, 160.534 19.033, 157.317 19.209 C 155.218 19.324, 149.102 19.566, 143.727 19.746 M 74.500 21.744 L 60.500 22.048 61.020 34.274 C 61.584 47.517, 63.606 54, 67.174 54 C 68.167 54, 71.219 54.851, 73.956 55.891 C 79.677 58.065, 79.062 58.775, 81.030 47.722 C 82.310 40.535, 85.429 34.734, 88.311 34.179 C 91.351 33.593, 95.723 39.696, 104.030 56.121 L 112.096 72.068 114.798 70.125 C 121.272 65.471, 126.990 57.281, 126.996 52.654 C 127.005 46.169, 119.111 40.692, 103 36.007 C 86.340 31.161, 87.148 27.930, 106.118 23.541 L 116.500 21.140 102.500 21.290 C 94.800 21.373, 82.200 21.577, 74.500 21.744 M 56.411 26.759 C 57.454 35.069, 59.127 37.793, 58.402 30 C 58.070 26.425, 57.337 23.050, 56.775 22.500 C 56.078 21.820, 55.962 23.180, 56.411 26.759 M 69.771 62.250 C 72.989 67.950, 74.865 68.992, 77.379 66.479 C 80.312 63.545, 79.343 61.394, 74.065 59.123 C 71.350 57.955, 68.607 57, 67.968 57 C 67.315 57, 68.105 59.299, 69.771 62.250 M 75 70.878 C 75 71.360, 75.675 72.315, 76.500 73 C 77.753 74.040, 78 73.896, 78 72.122 C 78 70.902, 77.362 70, 76.500 70 C 75.675 70, 75 70.395, 75 70.878 M 89.601 80.158 C 86.356 80.602, 83.471 81.196, 83.189 81.477 C 82.908 81.759, 84.486 84.134, 86.696 86.755 C 88.906 89.376, 91.638 93.316, 92.766 95.510 C 100.614 110.776, 109.604 114.978, 113.658 105.276 C 116.932 97.440, 113.549 86.532, 106.620 82.585 C 101.577 79.713, 97.301 79.103, 89.601 80.158 M 92.500 130.615 C 83.685 132.354, 82.423 132.828, 83.583 133.965 C 84.128 134.499, 88.557 133.699, 94.500 131.993 C 105.086 128.954, 104.159 128.314, 92.500 130.615" stroke="none" fill="black" fill-rule="evenodd"/>
</svg>