<svg xmlns="http://www.w3.org/2000/svg" width="200" height="200" viewBox="0 0 200 200" version="1.1">
	<path d="M 35.402 11.535 C 34.902 13.526, 34.155 14, 31.514 14 C 29.716 14, 27.646 14.722, 26.913 15.605 C 25.764 16.989, 26.028 17.574, 28.837 19.867 L 32.093 22.525 29.041 37.512 C 27.362 45.756, 25.728 56.550, 25.410 61.500 C 25.026 67.474, 23.936 73.022, 22.166 78 C 19.799 84.658, 19.507 86.903, 19.565 98 L 19.630 110.500 25.484 127.500 C 30.753 142.803, 31.346 145.349, 31.419 153 C 31.494 160.834, 31.236 161.987, 28.129 167.715 C 26.275 171.133, 22.338 176.183, 19.379 178.937 C 16.421 181.690, 14 184.406, 14 184.972 C 14 187.135, 16.501 185.816, 21.671 180.927 C 28.604 174.370, 39.459 169.316, 57.930 164.044 C 65.866 161.779, 74.123 158.935, 76.278 157.724 C 80.329 155.447, 83 151.607, 83 148.060 C 83 144.403, 79.331 136.252, 74.709 129.640 L 70.180 123.162 74.390 114.775 C 82.602 98.412, 85.262 85.473, 82.572 74.973 C 81.680 71.493, 80.490 68.090, 79.927 67.412 C 78.626 65.844, 79.191 65.524, 86.654 63.590 C 96.225 61.110, 96.282 61.142, 93.409 67.417 C 86.111 83.358, 88.957 101.169, 100.722 113.194 C 103.247 115.775, 106.593 118.417, 108.157 119.065 C 111.033 120.256, 111.593 121.519, 110.209 123.695 C 109.662 124.557, 108.340 124.634, 105.475 123.969 C 96.771 121.951, 90.252 123.517, 94.481 126.610 C 95.464 127.329, 98.683 128.457, 101.634 129.117 C 104.585 129.778, 107 130.410, 107 130.522 C 107 130.633, 105.622 134.049, 103.938 138.112 C 99.623 148.523, 96 161.470, 96 166.483 L 96 170.742 89.079 171.424 C 81.526 172.168, 78.430 174.089, 81.842 175.915 C 85.757 178.011, 104.032 179.307, 131 179.403 L 158.500 179.500 169.106 174.387 C 174.939 171.576, 180.053 168.724, 180.469 168.050 C 182.258 165.156, 179.098 164.892, 167.618 166.979 C 161.214 168.142, 153.167 168.961, 149.737 168.797 C 144.099 168.529, 143.469 168.280, 143.175 166.206 C 142.743 163.160, 151.960 154.117, 166.850 142.977 C 173.003 138.375, 177.859 134.135, 177.643 133.555 C 177.427 132.975, 176.631 132.691, 175.875 132.923 C 172.435 133.983, 166.112 133.111, 162 131.011 C 155.917 127.904, 141.810 113.741, 144.278 113.219 C 146.214 112.809, 145.352 110.991, 135.311 94.305 L 130.982 87.110 138.513 73.305 C 143.936 63.363, 146.876 59.023, 149.022 57.797 C 150.660 56.860, 152 55.397, 152 54.547 C 152 52.455, 152.342 52.532, 159.128 56.149 C 163.223 58.332, 165.227 60.057, 165.657 61.770 C 166.042 63.303, 165.064 68.085, 163.080 74.362 C 158.876 87.671, 157.651 97.717, 158.961 108.158 C 160.036 116.732, 160.306 117.547, 161.773 116.640 C 162.315 116.305, 162.312 113.548, 161.765 109.790 C 160.305 99.747, 161.583 88.254, 165.510 76.107 C 167.429 70.169, 169 64.375, 169 63.232 C 169 59.937, 164.397 55.331, 158.204 52.428 C 155.067 50.957, 152.355 49.627, 152.178 49.471 C 151.705 49.057, 157.109 40.627, 158.399 39.765 C 159.005 39.361, 160.471 39.024, 161.657 39.015 C 163.394 39.003, 164.428 37.523, 166.976 31.402 C 170.043 24.035, 170.319 20.411, 167.749 21.234 C 167.062 21.454, 164.063 25.159, 161.085 29.468 L 155.670 37.302 131.585 36.635 C 100.325 35.769, 92.457 34.273, 118.333 34.115 C 132.913 34.026, 137.074 33.718, 136.755 32.750 C 136.529 32.063, 135.254 31.360, 133.922 31.189 C 132.590 31.018, 119.125 28.465, 104 25.515 C 75.778 20.011, 56.448 16.645, 45 15.241 C 39.183 14.527, 38.523 14.220, 38.721 12.318 C 39.048 9.176, 36.164 8.497, 35.402 11.535 M 30 17.393 C 30 17.609, 30.675 18.045, 31.500 18.362 C 32.325 18.678, 33 18.501, 33 17.969 C 33 17.436, 32.325 17, 31.500 17 C 30.675 17, 30 17.177, 30 17.393 M 39 17.687 C 39.825 18.052, 51.408 21.309, 64.740 24.925 L 88.979 31.500 102.240 31.109 L 115.500 30.718 99 27.396 C 73.359 22.235, 35.380 16.089, 39 17.687 M 37.500 21.151 C 38.600 21.837, 43.775 24.056, 49 26.083 L 58.500 29.768 59.092 35.818 C 59.756 42.609, 60.779 44.512, 67.671 51.783 L 72.500 56.877 83.902 54.961 C 100.494 52.174, 121.477 50.010, 132.707 49.930 C 142.429 49.860, 142.471 49.849, 138.558 48.415 C 130.677 45.529, 102.313 38.106, 95.031 37.024 C 90.923 36.413, 86.873 35.300, 86.031 34.549 C 84.857 33.503, 57.349 25.492, 37.500 20.416 L 35.500 19.905 37.500 21.151 M 34.544 24.879 C 32.559 31.201, 28.786 53.158, 28.336 61 C 27.947 67.779, 26.932 73.054, 24.793 79.418 C 22.013 87.687, 21.826 89.141, 22.224 99.418 C 22.621 109.670, 23.089 111.811, 28.462 128 C 35.558 149.378, 36.194 156.700, 31.779 166.235 L 29.124 171.971 33.812 169.625 C 38.882 167.087, 49.792 163.407, 62.500 159.947 C 76.109 156.242, 80 153.466, 80 147.461 C 80 144.192, 76.315 136.693, 70.954 129.050 L 66.939 123.326 71.972 113.344 C 78.337 100.721, 81.465 88.888, 80.676 80.428 C 80.077 74.022, 77.401 66.994, 75.565 67.008 C 74.979 67.013, 71.125 68.267, 67 69.796 L 59.500 72.575 59.828 78.545 C 60.664 93.767, 49.068 120, 41.503 120 C 38.758 120, 38 118.331, 38 112.289 C 38 107.274, 42.040 88.182, 44.852 79.909 C 46.453 75.200, 47.095 74.469, 50.823 73.110 C 53.120 72.272, 55 71.035, 55 70.361 C 55 68.793, 49.710 65, 47.522 65 C 46.476 65, 45.978 64.352, 46.188 63.264 C 46.450 61.900, 48.772 61.123, 57.011 59.640 C 62.780 58.602, 67.669 57.602, 67.877 57.417 C 68.084 57.232, 66.466 54.925, 64.281 52.290 C 58.120 44.860, 56.834 42.420, 56.142 36.853 L 55.500 31.685 45.277 27.471 C 36.496 23.852, 34.981 23.486, 34.544 24.879 M 162.058 32.626 C 160.881 34.620, 160.162 36.495, 160.459 36.793 C 161.230 37.563, 161.734 36.881, 163.481 32.699 C 165.448 27.992, 164.811 27.960, 162.058 32.626 M 127.500 42.140 C 133 43.706, 140.081 45.859, 143.235 46.923 L 148.971 48.859 151.466 44.679 C 152.838 42.381, 153.632 40.422, 153.230 40.327 C 152.829 40.231, 144.625 39.960, 135 39.723 L 117.500 39.293 127.500 42.140 M 112 53.738 C 97.723 54.970, 116.606 58.547, 133.437 57.798 C 143.740 57.340, 145.926 56.635, 145.985 53.750 C 146 53.005, 120.601 52.995, 112 53.738 M 87.596 57.088 C 81.048 58.126, 75.450 59.217, 75.155 59.511 C 74.860 59.806, 75.308 60.737, 76.151 61.579 C 77.526 62.955, 78.482 62.901, 85.529 61.055 C 89.845 59.925, 94.572 59, 96.033 59 C 97.495 59, 99.505 58.100, 100.500 57 C 102.670 54.602, 103.306 54.598, 87.596 57.088 M 106.684 59.850 C 111.883 62.326, 113.471 65.330, 114.963 75.500 C 116.547 86.295, 117.795 90.866, 120.253 94.880 L 122.323 98.259 124.147 94.705 C 125.922 91.245, 125.918 91.038, 124.007 86.826 C 120.526 79.156, 121.945 76.657, 127.020 81.520 L 129.650 84.039 135.825 72.586 C 139.221 66.287, 142 60.941, 142 60.706 C 142 60.471, 137.838 60.495, 132.750 60.759 C 124.586 61.183, 119.259 60.724, 106 58.456 L 102.500 57.857 106.684 59.850 M 59.911 61.859 L 52.323 63.500 55.513 66.744 L 58.704 69.988 66.102 67.313 C 70.171 65.841, 73.649 64.532, 73.831 64.404 C 74.013 64.276, 73.660 63.233, 73.046 62.086 C 71.739 59.645, 70.267 59.619, 59.911 61.859 M 97.274 65.750 C 88.979 80.601, 91.265 100.118, 102.613 111.346 C 106.213 114.907, 111.800 118.577, 112.477 117.824 C 112.637 117.646, 114.625 113.786, 116.896 109.247 L 121.025 100.995 118.584 97.247 C 115.811 92.991, 113.432 85.075, 112.498 77 C 111.197 65.757, 108.684 62, 102.462 62 C 99.926 62, 98.991 62.676, 97.274 65.750 M 51.893 75.601 C 48.541 76.994, 48.138 77.643, 46.179 84.800 C 42.746 97.345, 41 106.768, 41 112.752 L 41 118.374 44.076 115.437 C 47.770 111.910, 53.309 100.758, 55.448 92.540 C 57.045 86.408, 57.584 73.960, 56.250 74.052 C 55.837 74.080, 53.877 74.777, 51.893 75.601 M 129.434 91.750 C 130.526 94.696, 139.346 108.987, 139.795 108.538 C 140.293 108.041, 130.097 90, 129.318 90 C 129.025 90, 129.078 90.787, 129.434 91.750 M 125.832 97.470 C 124.460 100.480, 125.280 101.665, 130.936 104.844 L 134.986 107.120 131.376 101.060 C 129.391 97.727, 127.584 95, 127.362 95 C 127.139 95, 126.451 96.112, 125.832 97.470 M 119.011 110.978 C 114.257 120.433, 114.294 120.487, 125.500 120.483 C 131.605 120.481, 142 118.497, 142 117.335 C 142 115.450, 137.774 111.415, 133.594 109.310 C 130.792 107.898, 127.278 105.881, 125.783 104.827 L 123.067 102.911 119.011 110.978 M 140.188 121.054 C 135.161 123.070, 125.297 124.005, 119.881 122.977 C 115.253 122.100, 114.334 122.190, 113.283 123.628 C 112.208 125.098, 112.957 125.687, 119.555 128.555 C 125.470 131.126, 141.714 135, 146.582 135 C 147.041 135, 145.410 137.045, 142.958 139.544 C 138.642 143.944, 138.511 144.261, 138.840 149.508 C 139.238 155.856, 136.303 163.308, 131.045 169.296 C 127.820 172.969, 127.728 173, 120.053 173 C 115.797 173, 106.731 173.319, 99.907 173.710 C 81.151 174.782, 90.613 175.840, 126 176.628 L 155.500 177.285 164.284 173.509 C 169.115 171.433, 172.889 169.556, 172.671 169.338 C 172.453 169.120, 168.329 169.630, 163.507 170.471 C 147.680 173.231, 140 172.014, 140 166.747 C 140 161.978, 148.640 153.032, 164.472 141.407 L 171.137 136.514 167.553 135.769 C 161.906 134.596, 156.639 131.486, 150.194 125.520 C 143.867 119.661, 143.769 119.618, 140.188 121.054 M 107.824 135.863 C 103.273 146.372, 99 160.905, 99 165.877 C 99 170.610, 99.182 171, 101.386 171 C 104.916 171, 114.208 164.338, 125.469 153.734 L 135.438 144.346 132.969 141.306 C 129.041 136.469, 125.027 134.284, 117.166 132.702 L 109.832 131.226 107.824 135.863 M 133.835 138.297 C 136.860 141.322, 136.960 141.346, 138.966 139.530 C 140.092 138.512, 140.860 137.527, 140.674 137.341 C 140.488 137.155, 138.179 136.599, 135.543 136.107 L 130.750 135.211 133.835 138.297 M 129 153.808 C 125.425 157.277, 119.889 162.339, 116.698 165.058 L 110.896 170 118.859 170 C 126.555 170, 126.911 169.895, 129.459 166.866 C 133.918 161.567, 136.133 156.267, 135.802 151.687 L 135.500 147.500 129 153.808" stroke="none" fill="black" fill-rule="evenodd"/>
</svg>