<svg xmlns="http://www.w3.org/2000/svg" width="200" height="200" viewBox="0 0 200 200" version="1.1">
	<path d="M 112 11.563 C 99.537 14.255, 92.034 16.925, 92.623 18.460 C 93.027 19.512, 93.786 19.652, 95.518 18.993 C 96.810 18.502, 98.009 18.432, 98.183 18.837 C 98.358 19.243, 100.750 20.859, 103.500 22.429 C 115.697 29.394, 121.484 36.447, 119.170 41.525 C 117.821 44.487, 112.565 47.007, 107.782 46.985 C 104.692 46.972, 104.363 46.614, 102.152 40.873 C 98.993 32.664, 94.035 24.385, 89.036 18.970 L 84.910 14.500 85.276 23.500 C 85.548 30.184, 86.187 33.554, 87.762 36.595 C 89.847 40.622, 96.144 47, 98.035 47 C 99.541 47, 103 50.832, 103 52.500 C 103 53.721, 101.341 54, 94.065 54 C 89.151 54, 81.839 54.698, 77.815 55.551 C 69.324 57.351, 61.336 57.742, 60.036 56.421 C 59.494 55.870, 59.726 53.091, 60.613 49.500 C 61.429 46.200, 62.185 39.450, 62.294 34.500 C 62.455 27.229, 62.109 24.734, 60.496 21.514 C 56.419 13.372, 49.008 12.939, 41.542 20.405 C 35.361 26.586, 32.665 34.283, 33.276 44 C 33.536 48.125, 34.032 52.175, 34.380 53 C 34.836 54.084, 33.432 55.333, 29.320 57.500 C 26.189 59.150, 22.765 61.681, 21.712 63.125 C 19.292 66.440, 19.920 67.725, 28.556 77.136 C 37.748 87.152, 39.744 94.833, 36.459 107.540 C 35.116 112.736, 34.165 114.173, 29.048 118.750 C 21.446 125.550, 18 132.277, 18 140.314 C 18 145.859, 18.247 146.482, 21.882 150.118 C 25.262 153.497, 26.358 154, 30.345 154 C 36.819 154, 44.529 150.805, 51.426 145.262 C 54.686 142.643, 61.661 138.250, 66.926 135.500 C 73.279 132.182, 77.004 129.579, 77.999 127.761 C 79.496 125.025, 79.490 125.016, 70.316 116.261 C 60.578 106.968, 59.017 104.094, 59.006 95.432 C 58.995 87.736, 61.574 81.672, 67.027 76.572 C 75.479 68.666, 77.173 70.783, 80.525 93.448 C 81.750 101.727, 83.257 110.345, 83.874 112.599 C 85.555 118.742, 89.052 123.355, 92.887 124.489 C 96.208 125.472, 96.227 125.512, 95.701 130.489 C 94.699 139.978, 88.597 150.692, 73.950 168.685 C 69.578 174.056, 66 179.039, 66 179.757 C 66 182.968, 69.783 182.194, 80.461 176.800 C 86.533 173.733, 92.682 170.758, 94.127 170.189 C 103.305 166.576, 110.544 154.910, 122.940 123.760 C 124.196 120.603, 125.592 118.248, 126.042 118.526 C 126.492 118.804, 127.170 121.510, 127.548 124.539 C 128.098 128.944, 127.762 131.492, 125.868 137.273 C 122.376 147.930, 122.589 156.861, 126.518 164.543 C 132.480 176.200, 145.571 182.641, 161.592 181.800 C 168.971 181.413, 170.996 180.862, 177.763 177.406 L 185.500 173.456 185.229 166.009 C 184.896 156.841, 183.469 151.199, 180.736 148.250 C 177.957 145.250, 176.793 145.384, 169.319 149.564 C 160.880 154.284, 158.237 153.984, 155.249 147.968 C 154.011 145.476, 152.241 139.949, 151.317 135.688 L 149.635 127.939 154.177 123.220 C 156.675 120.624, 160.173 116.334, 161.951 113.687 C 168.965 103.241, 175 85.811, 175 75.999 C 175 66.503, 170.365 57.017, 163.763 53.002 C 160.849 51.230, 160.627 51.231, 156.403 53.041 C 151.007 55.355, 141.796 58.129, 141.267 57.600 C 141.051 57.384, 145.781 51.804, 151.777 45.201 C 165.882 29.667, 168.425 24.505, 163.963 20.466 C 162.626 19.256, 159.875 18.474, 155.961 18.191 C 150.067 17.764, 149.933 17.815, 144.499 22.457 L 139 27.155 139 23.225 C 139 18.085, 135.478 12.861, 130.965 11.306 C 126.426 9.743, 120.026 9.829, 112 11.563 M 108.182 15.121 L 99.864 17.188 106.079 20.844 C 114.110 25.568, 120.659 31.949, 121.804 36.163 C 123.724 43.233, 118.177 49.142, 109.397 49.379 C 105.146 49.494, 104.953 49.625, 105.542 51.998 C 106.297 55.038, 105.721 54.643, 110.566 55.442 L 114.631 56.113 119.184 49.307 C 121.689 45.563, 126.497 39.506, 129.869 35.847 C 135.686 29.534, 136 28.935, 136 24.152 C 136 20.278, 135.447 18.468, 133.608 16.331 C 131.444 13.815, 130.514 13.526, 123.858 13.302 C 119.017 13.139, 113.655 13.761, 108.182 15.121 M 44.538 21.101 C 38.375 26.512, 36.562 31.136, 36.539 41.500 C 36.528 46.450, 36.874 51.850, 37.306 53.500 C 38.067 56.400, 37.912 56.577, 32.653 58.827 C 27.153 61.179, 23 64.280, 23 66.035 C 23 66.561, 25.998 70.256, 29.663 74.246 C 38.148 83.484, 40.384 88.330, 40.391 97.500 C 40.400 108.673, 37.947 114.721, 30.890 120.934 C 22.754 128.095, 19.199 135.747, 20.647 142.986 C 22.945 154.474, 37.047 153.692, 52.500 141.219 C 55.800 138.556, 61.643 134.916, 65.484 133.131 C 72.452 129.893, 76 127.438, 76 125.853 C 76 125.392, 74.537 123.781, 72.750 122.273 C 63.294 114.293, 59.091 109.119, 57.434 103.420 C 54.597 93.663, 56.992 83.061, 63.638 75.956 C 70.948 68.140, 76.693 67.627, 79.578 74.531 C 80.396 76.491, 82.151 85.453, 83.477 94.446 C 86.657 116.012, 89.185 122, 95.110 122 C 97.530 122, 98 122.486, 98.581 125.581 C 100.242 134.434, 93.396 148.653, 78.554 167.175 C 73.849 173.047, 70 178.131, 70 178.474 C 70 178.817, 74.782 176.601, 80.627 173.549 C 86.472 170.497, 91.919 168, 92.731 168 C 93.543 168, 96.749 165.391, 99.854 162.203 C 105.963 155.931, 110.824 147.001, 117.971 128.924 C 120.238 123.191, 122.970 117.614, 124.042 116.532 C 125.786 114.771, 126.152 114.724, 127.511 116.082 C 128.346 116.918, 129.523 120.401, 130.126 123.823 C 131.135 129.551, 131.003 130.716, 128.472 138.498 C 123.652 153.316, 126.377 164.728, 136.598 172.524 C 146.498 180.075, 163.675 181.245, 176.387 175.234 L 183.274 171.977 182.585 164.380 C 181.767 155.352, 179.497 149, 177.087 149 C 176.155 149, 173.198 150.391, 170.516 152.092 C 164.936 155.631, 160.192 156.709, 157.213 155.114 C 154.255 153.531, 150.392 144.820, 148.371 135.172 L 146.626 126.844 149.650 124.477 C 154.091 121.001, 162.814 107.881, 166.510 99.117 C 174.263 80.733, 173.911 67.117, 165.454 58.290 L 161.353 54.010 154.926 56.586 C 147.210 59.679, 138.737 60.337, 138.235 57.882 C 138.040 56.926, 142.221 51.600, 148.441 44.882 C 165.142 26.842, 166.737 21.780, 155.896 21.222 C 150.716 20.955, 150.250 21.150, 144.260 26.079 C 139.376 30.098, 137.777 32.115, 136.906 35.357 C 135.406 40.934, 126.986 61.890, 126 62.500 C 125.567 62.768, 123.308 62.314, 120.981 61.493 C 118.653 60.672, 116.608 60, 116.436 60 C 116.263 60, 115.816 62.044, 115.441 64.542 C 114.657 69.772, 116.715 76.320, 120.591 80.925 C 121.908 82.491, 127.010 86.528, 131.929 89.897 C 136.848 93.266, 141.151 96.900, 141.492 97.973 C 142.901 102.415, 137.858 105.807, 124.200 109.604 L 117.980 111.333 114.240 108.319 C 112.183 106.662, 109.150 103.136, 107.500 100.485 L 104.500 95.664 104.175 76.416 L 103.849 57.167 99.093 56.513 C 94.482 55.879, 82.669 57.077, 74.500 59.007 C 64.814 61.296, 55.357 59.492, 56.427 55.559 C 60.448 40.781, 60.806 25.905, 57.256 21.130 C 54.229 17.057, 49.157 17.046, 44.538 21.101 M 88 26.109 C 88 32.201, 92.110 40.287, 96.623 43.076 C 98.538 44.260, 100.302 45.031, 100.543 44.791 C 101.204 44.130, 93.578 28.985, 90.605 25.056 L 88 21.611 88 26.109 M 127.953 42.153 C 122.597 48.588, 118 55.359, 118 56.812 C 118 57.281, 119.529 58.134, 121.397 58.707 C 124.754 59.737, 124.815 59.701, 126.488 55.625 C 129.962 47.159, 133.964 36, 133.526 36 C 133.277 36, 130.769 38.769, 127.953 42.153 M 106.841 70.250 C 106.610 88.140, 106.984 93.037, 108.926 97.500 C 110.714 101.610, 117.064 108, 119.360 108 C 121.014 108, 134.068 103.569, 136.935 102.035 C 138.137 101.391, 138.981 100.200, 138.810 99.386 C 138.640 98.573, 134.225 94.848, 129 91.108 C 115.689 81.581, 111.282 73.921, 113.117 63.504 C 113.882 59.166, 113.089 58.041, 109.250 58.015 C 107.047 58, 106.997 58.255, 106.841 70.250" stroke="none" fill="black" fill-rule="evenodd"/>
</svg>