<svg xmlns="http://www.w3.org/2000/svg" width="200" height="200" viewBox="0 0 200 200" version="1.1">
	<path d="M 88.306 10.513 C 83.285 12.625, 82.654 16.283, 83.416 38.886 C 83.780 49.674, 83.723 58.955, 83.289 59.510 C 81.732 61.503, 71.410 66, 68.391 66 C 66.696 66, 64.597 65.212, 63.725 64.248 C 60.275 60.437, 59.740 56.763, 59.886 37.907 L 60.030 19.313 54.900 17.657 C 46.866 15.062, 40.656 15.441, 36.963 18.750 C 32.856 22.430, 32.052 26.585, 32.024 44.282 C 31.990 65.281, 30.552 68, 19.482 68 C 12.705 68, 12.185 70.318, 18.853 70.809 C 22.049 71.044, 23.855 71.922, 26.422 74.488 C 31.644 79.711, 33.505 86.440, 33.475 100 C 33.453 109.880, 33.118 112.240, 31.098 116.757 C 27.587 124.609, 22.164 128.790, 16.378 128.104 C 13.559 127.770, 13.208 142.660, 15.895 148.576 C 19.189 155.828, 26.622 156.781, 38.646 151.492 C 47.300 147.685, 74.983 128.865, 74.992 126.781 C 74.997 125.739, 74.463 125.269, 73.635 125.586 C 70.536 126.776, 62.205 112.863, 59.355 101.741 C 56.217 89.490, 59.305 75.024, 65.623 72.384 C 70.446 70.369, 76.270 70.638, 79.293 73.016 C 84.520 77.127, 84.927 81.417, 83.764 120.097 C 83.288 135.954, 82.777 140.983, 81.088 146.452 C 78.682 154.242, 78.356 164.524, 80.364 169.329 C 82.125 173.545, 87.160 177.752, 91.394 178.546 C 99.127 179.997, 111.623 170.561, 118.290 158.238 C 121.073 153.096, 121.075 153.075, 119.099 151.099 C 113.079 145.079, 108.924 115.459, 111.334 95.750 L 112.159 89 116.157 89 C 121.831 89, 125.396 92.792, 127.027 100.563 C 128.027 105.330, 128.014 110.823, 126.960 128.441 C 125.062 160.190, 126.858 170.135, 135.589 176.230 C 149.646 186.044, 180.185 182.212, 186.588 169.831 C 189.799 163.621, 187.394 154.286, 181.120 148.608 C 179.659 147.286, 179.210 146.011, 179.625 144.360 C 180.461 141.028, 177.923 141.269, 172.439 145.042 C 167.159 148.675, 158.165 152.977, 155.821 152.990 C 150.432 153.022, 149.393 142.535, 153.328 127.823 C 155.308 120.417, 155.457 118.805, 154.345 116.823 C 148.351 106.136, 151.379 97.734, 165 87.265 C 175.351 79.309, 182 72.665, 182 70.278 C 182 66.797, 177.910 62.879, 170.641 59.395 L 163.614 56.028 160.295 62.240 C 158.469 65.657, 156.363 69.066, 155.614 69.814 C 153.284 72.144, 152.813 63.936, 154.048 42.547 C 154.673 31.724, 154.920 21.816, 154.597 20.530 C 153.447 15.949, 138.382 13.200, 132.133 16.431 C 130.557 17.246, 128.535 19.706, 127.434 22.146 C 125.227 27.041, 125.069 32.568, 126.424 57.531 C 127.213 72.064, 127.134 73.723, 125.576 75.281 C 124.631 76.227, 122.864 77, 121.651 77 C 109.925 77, 105.347 48.294, 113.553 26.221 C 116.741 17.645, 116.704 17.825, 115.373 17.333 C 113.974 16.815, 109.653 27.444, 107.988 35.500 C 105.195 49.015, 107.192 67.248, 112.243 74.341 C 116.711 80.616, 125.741 81.335, 128.681 75.651 C 130.320 72.480, 130.285 67.982, 128.401 40 C 127.102 20.704, 131.845 14.766, 145.588 18.486 L 152.022 20.228 151.358 45.389 C 150.750 68.404, 150.840 70.697, 152.416 72.273 C 154.854 74.711, 157.322 73.112, 160.990 66.715 C 162.634 63.847, 164.132 61.059, 164.317 60.520 C 164.747 59.267, 172.556 62.757, 176.220 65.839 C 181.090 69.936, 179.582 72.881, 168.494 80.924 C 160.154 86.974, 153.187 93.826, 150.919 98.210 C 148.491 102.904, 148.463 111.245, 150.860 116 C 152.550 119.354, 152.546 119.771, 150.777 126 C 149.761 129.575, 148.656 136.192, 148.320 140.704 C 147.818 147.452, 148.011 149.367, 149.407 151.498 C 152.997 156.978, 158.858 156.604, 169.426 150.221 L 175.352 146.641 179.659 151.399 C 182.028 154.016, 184.500 157.937, 185.152 160.113 C 187.438 167.742, 181.791 174.060, 169.560 177.555 C 161.325 179.908, 147.058 179.175, 140.639 176.068 C 130.061 170.947, 128.256 164.321, 129.605 135.579 C 131.553 94.071, 129.646 87.381, 115.530 86.211 L 110.245 85.773 109.122 92.218 C 106.015 110.061, 108.811 136.882, 115.217 150.686 L 117.160 154.871 114.518 159.378 C 109.213 168.432, 99.638 176, 93.490 176 C 82.800 176, 78.541 162.107, 84.140 145.500 C 86.412 138.761, 86.500 137.381, 86.500 108.500 C 86.500 80.030, 86.395 78.321, 84.444 75.001 C 83.314 73.076, 80.746 70.580, 78.739 69.454 L 75.089 67.407 78.795 65.593 C 80.833 64.596, 83.172 63.445, 83.992 63.036 C 86.883 61.594, 87.394 56.243, 86.228 39.627 C 85.013 22.331, 85.629 15.476, 88.592 13.309 C 91.236 11.376, 93.107 11.674, 99.402 15.033 C 106.003 18.555, 108.914 17.985, 103.413 14.247 C 97.616 10.308, 92.060 8.935, 88.306 10.513 M 40.400 19.394 C 38.694 20.155, 36.921 21.615, 36.458 22.639 C 35.995 23.662, 35.353 32.825, 35.032 43 C 34.398 63.069, 33.430 66.936, 28.472 69.195 L 26.041 70.303 29.480 74.110 C 34.494 79.660, 36.519 87.223, 36.412 100 C 36.342 108.343, 35.863 111.685, 34.084 116.266 C 30.618 125.190, 24.689 131, 19.050 131 C 17.199 131, 17 131.615, 17 137.351 C 17 151.837, 22.231 155.173, 36.107 149.535 C 40.716 147.662, 60.658 135.273, 69.345 128.886 C 69.809 128.545, 68.615 126.202, 66.690 123.681 C 58.401 112.822, 53.874 97.324, 55.757 86.252 C 57.045 78.679, 60.637 70.908, 63.154 70.249 C 65.515 69.632, 65.528 69.682, 62.081 66.235 C 57.817 61.971, 56.822 56.745, 57.012 39.605 C 57.104 31.297, 57.139 23.747, 57.090 22.828 C 56.921 19.681, 45.173 17.265, 40.400 19.394" stroke="none" fill="black" fill-rule="evenodd"/>
</svg>