<svg xmlns="http://www.w3.org/2000/svg" width="200" height="200" viewBox="0 0 200 200" version="1.1">
	<path d="M 32.610 10.821 C 32.228 11.440, 31.726 13.423, 31.495 15.228 C 31.264 17.033, 29.204 26.833, 26.918 37.005 C 24.455 47.964, 22.642 58.760, 22.468 63.500 C 22.244 69.644, 21.518 73.008, 19.340 78 C 16.817 83.784, 16.505 85.657, 16.509 95 C 16.514 104.362, 16.797 106.042, 19.120 110.500 C 20.553 113.250, 24.205 120.225, 27.235 126.001 C 33.792 138.500, 34.888 143.986, 32.606 152.893 C 30.089 162.716, 26.678 168.477, 21.779 171.174 C 18.954 172.729, 17.387 174.324, 17.167 175.867 C 16.768 178.667, 17.746 183.009, 18.769 182.978 C 19.171 182.967, 21.248 180.516, 23.385 177.534 C 25.521 174.551, 27.902 171.868, 28.674 171.571 C 29.447 171.275, 35.790 170.080, 42.769 168.916 C 58.010 166.375, 65.397 163.780, 69.750 159.440 C 75.069 154.137, 74.281 148.346, 66.471 135.349 C 64.715 132.427, 64.673 131.628, 65.893 124.364 C 66.617 120.056, 69.206 109.549, 71.647 101.016 C 76.641 83.554, 79 73.263, 79 68.935 C 79 66.052, 79.093 66.001, 84.250 66.070 C 93.420 66.193, 93.690 66.622, 89.084 73.748 C 83.726 82.039, 82 85.499, 82 87.950 C 82 93.223, 90.300 88.405, 102.473 76.067 C 106.308 72.180, 109.967 69, 110.603 69 C 111.801 69, 119 77.242, 119 78.614 C 119 79.041, 117.775 80.669, 116.278 82.231 C 114.781 83.794, 111.294 88.728, 108.528 93.195 C 100.632 105.951, 97.008 107.458, 89.686 101.029 L 86.336 98.088 83.096 111.794 C 81.314 119.332, 79.116 130.535, 78.213 136.689 C 76.359 149.321, 76.967 153.275, 80.849 153.830 C 83.875 154.262, 88.295 149.589, 99.286 134.335 C 108.009 122.229, 113.438 116, 115.267 116 C 117.024 116, 115.297 132.850, 112.654 141.500 C 111.309 145.900, 108.821 153.325, 107.124 158 C 103.936 166.785, 103.204 173.644, 105.080 177.150 C 107.169 181.053, 113.051 182.342, 127.617 182.089 L 132.733 182 134.926 176.750 C 139.548 165.688, 140.209 160.719, 140.724 133.219 L 141.216 106.937 146.608 114.144 C 149.786 118.392, 152.014 122.408, 152.035 123.926 C 152.112 129.588, 154.962 142.237, 157.323 147.394 C 162.503 158.709, 171.411 157.827, 176.571 145.486 C 182.032 132.427, 179.053 115.096, 169.839 106.319 C 165.903 102.570, 157.969 98.439, 152.902 97.501 C 150.129 96.987, 148.465 95.711, 145.652 91.943 C 141.576 86.485, 141.301 84.788, 143.569 79.119 C 145.556 74.153, 148.128 73.417, 152.867 76.459 C 158.373 79.993, 163.535 81.263, 170.582 80.814 C 175.956 80.472, 177.442 79.950, 179.983 77.517 C 181.672 75.898, 183 73.586, 183 72.263 C 183 66.479, 176.613 59.717, 165.704 53.951 C 149.940 45.619, 144.960 40.932, 137.862 27.743 C 130.337 13.762, 125.317 12, 91 11.294 C 78.075 11.028, 60.320 11.263, 51.545 11.816 C 37.472 12.704, 35.456 12.638, 34.448 11.260 C 33.656 10.176, 33.092 10.042, 32.610 10.821 M 45.342 14.744 C 39.746 14.945, 35.800 15.545, 35.196 16.286 C 34.653 16.954, 32.612 24.475, 30.661 33 C 24.502 59.909, 23.588 67.479, 26.636 66.309 C 28.511 65.590, 28.654 65.147, 23.822 75 C 16.303 90.330, 16.622 100.067, 25.162 115.908 C 36.023 136.054, 35.477 134.490, 35.489 145.500 C 35.499 154.332, 35.179 156.186, 32.750 161.371 C 31.238 164.600, 30 167.463, 30 167.734 C 30 168.385, 37.222 167.325, 49.378 164.889 C 59.798 162.801, 65.277 160.565, 68.380 157.134 C 71.322 153.881, 70.188 146.727, 65.537 139.191 L 61.749 133.054 62.842 125.777 C 63.443 121.775, 65.561 112.650, 67.548 105.500 C 72.828 86.509, 75.663 75.118, 76.425 69.831 L 77.098 65.161 69.299 64.831 C 65.010 64.649, 60.099 64.655, 58.387 64.843 L 55.274 65.187 54.689 75.843 C 53.822 91.613, 48.224 115.032, 44.105 120.119 C 42.476 122.130, 42.011 122.254, 40.573 121.061 C 39.170 119.897, 38.939 117.666, 39.058 106.482 L 39.199 93.279 35.707 88.703 C 33.786 86.186, 31.456 82.142, 30.530 79.717 C 29.012 75.742, 28.993 74.953, 30.339 71.731 C 32.127 67.452, 34.812 65.550, 41.500 63.823 C 44.632 63.014, 47.893 61.218, 50.229 59.016 L 53.959 55.500 52.840 43 C 51.919 32.700, 51.971 29.624, 53.138 25.523 C 55.953 15.627, 62.529 15.756, 75.368 25.959 L 82.784 31.853 90.642 25.784 C 94.964 22.447, 100.501 18.430, 102.946 16.858 L 107.392 14 80.946 14.208 C 66.401 14.322, 50.379 14.563, 45.342 14.744 M 114.036 18.865 C 113.464 20.990, 110.269 28.726, 106.937 36.056 C 103.050 44.606, 101.084 50.120, 101.452 51.441 C 101.768 52.573, 103.980 55.705, 106.369 58.400 L 110.713 63.300 115.810 56.900 C 121.699 49.505, 129 35.957, 129 32.422 C 129 30.853, 129.572 30, 130.625 30 C 134.541 30, 127.727 45.685, 118.540 57.816 C 113.233 64.825, 112.115 66.972, 113.750 67.024 C 114.162 67.036, 121.213 68.141, 129.417 69.479 C 137.622 70.817, 144.674 71.701, 145.089 71.445 C 145.504 71.188, 144.527 68.396, 142.917 65.239 C 138.676 56.925, 136.509 44, 139.355 44 C 140.290 44, 140.893 45.951, 141.297 50.282 C 142.689 65.182, 151.875 75.974, 165.235 78.405 C 169.518 79.185, 176.188 77.669, 178.455 75.402 C 182.805 71.052, 176.505 62.644, 163.995 56.105 C 148.612 48.063, 141.719 41.428, 135.153 28.340 C 131.615 21.289, 128.727 18.884, 121.068 16.612 C 118.081 15.725, 115.511 15, 115.357 15 C 115.203 15, 114.609 16.739, 114.036 18.865 M 103.405 19.855 C 95.865 24.778, 85.500 32.891, 85.500 33.870 C 85.500 34.967, 97.854 48.482, 98.370 47.950 C 99.044 47.255, 110.716 20.790, 111.468 18.250 C 112.449 14.938, 110.273 15.371, 103.405 19.855 M 56.449 24.468 C 55.652 26.375, 55 30.132, 55 32.817 C 55 40.141, 56.210 53.003, 56.897 52.981 C 57.411 52.965, 62.958 48.455, 77.482 36.246 L 80.463 33.739 76.482 30.237 C 70.227 24.736, 63.865 21, 60.753 21 C 58.440 21, 57.623 21.659, 56.449 24.468 M 72.383 43.892 L 63.266 51.667 67.671 51.667 C 73.278 51.667, 77.187 54.458, 78.426 59.346 C 79.204 62.414, 79.783 63, 82.037 63 C 83.513 63, 86.696 63.267, 89.110 63.593 L 93.500 64.185 95.298 57.974 C 97.014 52.043, 97.016 51.667, 95.335 49.631 C 92.130 45.750, 82.572 35.999, 82.031 36.059 C 81.739 36.092, 77.397 39.617, 72.383 43.892 M 60.684 55.449 C 56.776 56.842, 53 59.647, 53 61.155 C 53 61.620, 58.175 62, 64.500 62 C 77.209 62, 78.375 61.285, 73.545 56.455 C 70.736 53.645, 66.640 53.325, 60.684 55.449 M 97.702 58.544 C 96.889 61.270, 96.511 63.786, 96.862 64.136 C 97.213 64.486, 100.158 65.090, 103.407 65.478 L 109.313 66.183 105.907 61.981 C 104.033 59.670, 101.753 56.836, 100.840 55.683 C 99.214 53.630, 99.151 53.686, 97.702 58.544 M 41.534 66.468 C 36.228 67.892, 32 71.718, 32 75.096 C 32 77.735, 35.055 83.572, 39.016 88.500 L 42.231 92.500 41.672 103.500 C 40.900 118.708, 41.992 120.819, 45.278 110.471 C 49.812 96.194, 53.486 73.844, 52.301 67.750 C 51.680 64.555, 49.590 64.306, 41.534 66.468 M 95.350 68.646 C 94.983 69.666, 93.238 72.525, 91.471 75 C 87.773 80.180, 84.663 85.996, 85.267 86.600 C 86.409 87.742, 105 71.222, 105 69.065 C 105 68.479, 103.687 68, 102.082 68 C 100.477 68, 98.456 67.728, 97.590 67.396 C 96.595 67.014, 95.772 67.474, 95.350 68.646 M 117 70.779 C 117 71.017, 118.142 72.569, 119.538 74.228 C 121.476 76.531, 123.056 77.318, 126.213 77.553 C 128.821 77.748, 131.923 78.971, 134.605 80.861 L 138.860 83.860 140.427 79.260 C 141.289 76.731, 141.883 74.556, 141.747 74.429 C 141.228 73.941, 117 70.368, 117 70.779 M 125 80.582 C 125 80.903, 127.813 84.807, 131.250 89.258 L 137.500 97.350 138.034 92.925 C 138.483 89.209, 138.180 88.067, 136.141 85.796 C 132.874 82.156, 125 78.471, 125 80.582 M 118.337 84.210 C 116.614 86.020, 113.308 90.650, 110.991 94.500 C 105.623 103.416, 104.252 104.958, 100.150 106.693 C 97.110 107.979, 96.419 107.922, 92.682 106.073 C 90.418 104.952, 88.274 104.365, 87.918 104.768 C 86.154 106.767, 80.003 138.992, 80.001 146.250 C 79.999 154.798, 82.232 152.999, 97.694 131.991 C 106.560 119.947, 112.858 112.971, 114.827 113.015 C 121.296 113.162, 119.991 128.348, 111.279 154.289 C 105.085 172.734, 104.978 175.264, 110.282 177.807 C 113.992 179.584, 125.883 180.439, 129.147 179.163 C 131.215 178.354, 132.248 176.746, 133.866 171.814 C 137.496 160.749, 138.282 152.576, 138.168 127.126 L 138.058 102.752 130.779 93.146 C 126.775 87.862, 123.043 82.950, 122.484 82.230 C 121.688 81.203, 120.793 81.631, 118.337 84.210 M 141.033 96.275 C 141.001 101.891, 141.193 102.307, 148 111.363 C 153.731 118.987, 155 121.347, 155 124.380 C 155 129.899, 157.896 142.875, 160.085 147.167 C 162.670 152.234, 165.378 153.638, 168.553 151.557 C 172.051 149.265, 173.706 146.311, 175.573 139.023 C 178.370 128.104, 175.704 116.512, 168.699 109.128 C 165.189 105.429, 154.811 100.002, 151.243 100.001 C 149.119 100, 148.141 99.158, 143.109 93 L 141.067 90.500 141.033 96.275 M 19.964 176.164 C 18.819 178.397, 18.846 178.424, 20.574 176.774 C 21.568 175.824, 22.107 174.773, 21.771 174.438 C 21.436 174.103, 20.623 174.880, 19.964 176.164" stroke="none" fill="black" fill-rule="evenodd"/>
</svg>