<svg xmlns="http://www.w3.org/2000/svg" width="200" height="200" viewBox="0 0 200 200" version="1.1">
	<path d="M 127.500 15.047 C 119.250 15.438, 94.162 16.108, 71.750 16.538 C 38.735 17.170, 31 17.573, 31 18.659 C 31 19.446, 32.137 20.016, 33.750 20.039 L 36.500 20.078 33.242 21.494 C 26.610 24.376, 26.544 32.159, 33.041 45.082 C 35.288 49.551, 36.985 53.304, 36.813 53.423 C 36.641 53.542, 34.475 54.221, 32 54.933 C 25.776 56.721, 22.350 59.409, 20.973 63.582 C 19.413 68.308, 20.222 72.028, 26.151 87.380 C 33.694 106.913, 33.861 113.941, 26.959 121.428 C 24.806 123.765, 21.224 126.497, 19 127.500 C 14.394 129.577, 13.486 131.747, 14.278 138.777 C 15.633 150.795, 29.469 153.223, 47.580 144.622 C 60.511 138.481, 68.821 127.821, 66.113 120.847 C 64.238 116.020, 57.417 111.264, 49.200 109.053 L 44.901 107.896 49.200 102.845 C 65.781 83.366, 71 75.277, 71 69.056 C 71 66.319, 70.138 64.831, 66.664 61.570 C 61.301 56.536, 59.409 53.553, 58.581 48.825 C 57.984 45.415, 59.419 32.749, 60.624 30.800 C 61.733 29.005, 84.347 43.636, 90.878 50.374 L 94.022 53.618 87.581 57.725 C 75.164 65.641, 72.445 74.498, 79.058 85.491 C 83.443 92.781, 91.548 100.253, 96.597 101.660 L 100.500 102.747 95.460 102.874 C 88.250 103.054, 79.131 105.663, 75.183 108.674 C 68.575 113.714, 67.322 123.158, 71.891 133.486 C 73.777 137.750, 73.892 139.385, 73.322 153.861 C 72.661 170.646, 73.161 176.018, 75.611 178.468 C 79.507 182.364, 84.726 178.458, 95.171 163.829 C 99.031 158.423, 102.407 154, 102.674 154 C 102.941 154, 102.862 155.350, 102.500 157 C 102.138 158.650, 102.038 160, 102.280 160 C 102.521 160, 106.117 158.430, 110.271 156.511 C 120.028 152.003, 134.985 147, 138.706 147 C 144.218 147, 145.167 148.662, 145.929 159.650 C 146.457 167.267, 147.133 170.480, 148.762 173.115 C 151.675 177.827, 157.829 181.084, 165.065 181.740 L 171 182.278 174.118 175.400 C 180.072 162.269, 182.276 151.312, 182.343 134.500 C 182.392 122.527, 182.053 118.592, 180.663 115 C 176.572 104.426, 171.659 100.061, 162.702 99.044 L 157.905 98.500 163.439 92 C 169.473 84.913, 175.465 73.651, 176.320 67.790 C 177.453 60.027, 173.892 53.579, 166.496 49.998 C 164.023 48.801, 162 47.716, 162 47.586 C 162 47.456, 163.143 44.009, 164.539 39.925 C 169.416 25.664, 169.871 20, 166.141 20 C 164.329 20, 158.502 25.676, 153.203 32.604 C 149.445 37.517, 141 51.080, 141 52.204 C 141 53.715, 143.696 52.994, 145.500 51 C 146.699 49.675, 148.580 49, 151.073 49 C 157.812 49, 158.178 49.473, 155.908 55.234 C 154.811 58.016, 153.429 61.198, 152.836 62.306 C 151.873 64.106, 151.661 64.146, 150.845 62.688 C 150.019 61.211, 149.416 61.284, 144.522 63.448 C 139.910 65.488, 138.939 65.631, 137.936 64.422 C 137.288 63.642, 134.062 61.203, 130.765 59.002 C 123.045 53.847, 118.385 53.566, 114.629 58.029 C 113.227 59.696, 111.811 62.733, 111.482 64.779 C 111.154 66.826, 110.677 69.513, 110.423 70.750 C 110.121 72.226, 110.440 73, 111.353 73 C 112.213 73, 113 71.402, 113.414 68.813 C 114.355 62.930, 116.768 58.294, 119.224 57.652 C 122.050 56.913, 127.430 59.292, 132.700 63.610 L 137.054 67.178 132.777 70.254 C 126.401 74.838, 116.760 85.252, 111.403 93.341 C 108.796 97.278, 106.533 100.668, 106.375 100.873 C 106.217 101.078, 103.114 100.441, 99.481 99.457 C 93.529 97.846, 92.290 97.032, 86.984 91.241 C 74.341 77.443, 75.365 68.184, 90.545 59.041 L 96.287 55.582 99.219 59.041 C 106.138 67.207, 108.095 76.374, 103.883 80.895 C 102.506 82.374, 102.108 83.508, 102.744 84.144 C 103.380 84.780, 104.642 84.026, 106.360 81.984 C 110.876 76.618, 109.356 67.577, 102.407 58.466 C 100.930 56.530, 99.896 54.790, 100.111 54.600 C 100.325 54.410, 102.075 53.469, 104 52.510 C 109.590 49.725, 112.085 47.027, 110.980 44.962 C 109.624 42.428, 101.619 40, 94.622 40 C 90.860 40, 88.956 39.648, 89.550 39.061 C 91.265 37.365, 106.879 32.065, 131.390 24.858 C 156.425 17.497, 159 16.575, 159 14.965 C 159 13.912, 151.052 13.933, 127.500 15.047 M 114 18.142 C 52.875 20.392, 54.282 20.312, 58.699 21.312 C 62.517 22.176, 62.854 22.500, 62.413 24.881 C 61.974 27.255, 62.605 27.874, 69.154 31.500 C 77.469 36.103, 86.289 42.382, 92.560 48.162 C 96.666 51.947, 97.113 52.117, 100.210 51.086 C 102.020 50.484, 104.834 49.111, 106.465 48.035 L 109.430 46.078 105.747 44.539 C 103.650 43.663, 99.119 43, 95.223 43 C 90.916 43, 87.668 42.478, 86.454 41.590 C 84.595 40.231, 84.591 40.110, 86.326 38.192 C 88.669 35.603, 102.865 30.394, 126.500 23.451 C 136.950 20.382, 145.950 17.710, 146.500 17.514 C 147.870 17.026, 140.384 17.171, 114 18.142 M 34 24.247 C 31.968 25.304, 31.444 26.414, 31.199 30.177 C 30.942 34.142, 31.680 36.317, 36.336 45.316 L 41.774 55.826 35.853 56.869 C 32.597 57.443, 28.599 58.862, 26.969 60.022 C 21.438 63.960, 21.709 68.901, 28.364 85.500 C 33.818 99.101, 35.481 106.306, 34.570 112.381 C 33.665 118.418, 28.902 124.649, 22.249 128.500 C 17.092 131.486, 17.067 131.524, 17.033 136.576 C 17.006 140.704, 17.460 142.084, 19.467 143.969 C 26.478 150.555, 48.625 144.640, 58.968 133.419 C 68.123 123.487, 64.312 116.380, 47.180 111.438 L 39.793 109.308 45.517 102.904 C 54.978 92.319, 63.487 81.318, 65.810 76.666 C 69.247 69.784, 68.773 67.492, 62.574 60.992 C 58.796 57.031, 56.935 54.169, 56.447 51.571 C 55.745 47.826, 56.385 35.707, 57.536 30.962 C 58.112 28.591, 57.735 28.280, 51.826 26.253 C 43.291 23.325, 37.109 22.629, 34 24.247 M 55 24.354 C 56.925 25.113, 58.688 25.569, 58.917 25.367 C 59.714 24.665, 58.333 24.018, 54.927 23.498 L 51.500 22.974 55 24.354 M 160.577 28.122 C 155.452 33.819, 147.567 44.900, 148.193 45.526 C 148.397 45.731, 150.947 46.033, 153.859 46.199 L 159.154 46.500 161.096 41.500 C 163.576 35.111, 166.206 25.118, 165.759 23.778 C 165.570 23.210, 163.238 25.165, 160.577 28.122 M 156.795 59.934 C 153.316 68.672, 153.238 69.142, 154.555 73.517 C 156.543 80.122, 155.304 82.304, 150.903 79.948 C 149.145 79.007, 148.660 79.511, 146.327 84.698 C 144.891 87.889, 141.527 95.185, 138.852 100.911 C 136.177 106.636, 134.139 111.473, 134.325 111.658 C 134.510 111.844, 138.226 112.901, 142.581 114.008 C 150.429 116.002, 154.383 118.075, 156.381 121.242 C 157.873 123.608, 154.881 126.527, 148.521 128.906 C 143.057 130.951, 122.368 134.702, 121.476 133.810 C 121.191 133.524, 122.767 129.356, 124.979 124.546 C 127.190 119.736, 129 115.396, 129 114.900 C 129 113.509, 115.611 113.817, 113.822 115.250 C 112.964 115.938, 110.415 119.271, 108.157 122.657 C 103.461 129.700, 99.570 133.156, 97.312 132.290 C 94.991 131.399, 96.183 123.108, 99.926 114.112 C 101.617 110.049, 103 106.614, 103 106.479 C 103 105.607, 98.439 105.441, 91.896 106.074 C 73.780 107.828, 68.127 116.477, 74.570 132.583 C 77.103 138.915, 77.125 139.190, 76.070 151.754 C 75.346 160.373, 75.322 166.443, 75.994 170.500 C 76.541 173.800, 76.991 176.613, 76.994 176.750 C 76.997 176.887, 77.843 177, 78.873 177 C 81.229 177, 87.041 170.732, 94.335 160.322 C 97.444 155.885, 100.660 151.697, 101.481 151.016 C 103.505 149.336, 106 150.460, 106 153.052 C 106 154.215, 106.338 155.017, 106.750 154.833 C 114.761 151.273, 130.191 145.722, 134.181 144.966 C 140.443 143.778, 145.185 145.024, 146.782 148.276 C 147.382 149.499, 148.289 154.871, 148.797 160.212 C 149.384 166.381, 150.350 170.885, 151.445 172.556 C 153.488 175.675, 159.925 178.706, 165.474 179.162 L 169.448 179.488 172.285 172.666 C 176.928 161.501, 179.097 151.462, 179.715 138.285 C 180.587 119.692, 177.649 109.397, 169.985 104.193 C 167.005 102.170, 165.546 101.879, 159.914 102.187 C 154.477 102.484, 152.752 103.031, 150.030 105.321 C 148.217 106.847, 144.935 109.013, 142.738 110.134 C 139.202 111.938, 138.572 112.001, 137.255 110.684 C 135.938 109.367, 136.613 108.738, 143.134 105.203 C 152.894 99.912, 155.206 97.969, 162.178 89.195 C 171.883 76.983, 175.278 68.208, 173.105 60.955 C 171.863 56.811, 167.349 52.617, 162.949 51.520 C 160.525 50.915, 160.221 51.330, 156.795 59.934 M 144.250 66.220 C 141.347 67.620, 141.407 68.058, 144.966 71.467 L 147.932 74.309 148.991 71.522 C 150.179 68.400, 149.482 64.965, 147.683 65.068 C 147.032 65.105, 145.488 65.624, 144.250 66.220 M 131.450 74.782 C 125.722 79.386, 114.413 92.518, 110.721 98.854 L 108.942 101.907 113.036 103.010 C 118.659 104.524, 117.654 106.470, 111.420 106.139 L 106.473 105.877 103.264 113.341 C 99.760 121.487, 97.734 129, 99.039 129 C 100.070 129, 105.914 121.752, 108.902 116.770 C 111.612 112.249, 116.710 110.527, 125.137 111.284 C 130.468 111.762, 130.844 111.646, 132.043 109.145 C 132.741 107.690, 136.398 99.750, 140.170 91.500 L 147.028 76.500 143.347 73.250 C 141.323 71.463, 139.157 70, 138.534 70 C 137.911 70, 134.723 72.152, 131.450 74.782 M 150.734 74.250 C 150.396 75.132, 150.767 76.392, 151.559 77.049 C 153.121 78.346, 153.287 77.592, 152.105 74.573 C 151.454 72.912, 151.265 72.867, 150.734 74.250 M 128.780 122.750 C 126.856 127.013, 125.614 130.632, 126.021 130.793 C 127.431 131.353, 147.037 126.950, 150.510 125.294 C 154.884 123.208, 154.925 121.667, 150.660 119.643 C 146.988 117.900, 136.536 115, 133.930 115 C 132.839 115, 131.093 117.629, 128.780 122.750" stroke="none" fill="black" fill-rule="evenodd"/>
</svg>