<svg xmlns="http://www.w3.org/2000/svg" width="200" height="200" viewBox="0 0 200 200" version="1.1">
	<path d="M 56.027 21.680 C 50.236 23.797, 42.659 31.471, 37.170 40.778 C 34.809 44.781, 30.641 51.010, 27.908 54.621 C 17.775 68.009, 15.253 77.158, 20.711 80.727 C 23.018 82.235, 25.320 82.456, 36.123 82.203 C 44.456 82.008, 49.054 82.278, 49.492 82.987 C 51.285 85.888, 40.381 99.910, 32.724 104.550 C 30.097 106.142, 26.745 108.701, 25.274 110.236 C 22.812 112.805, 22.728 113.156, 24.213 114.642 C 25.692 116.121, 26.411 116.124, 32.787 114.684 C 40.977 112.835, 57.673 106.369, 66.868 101.487 C 70.443 99.588, 73.447 98.140, 73.543 98.268 C 73.639 98.395, 73.969 100.138, 74.278 102.141 L 74.839 105.781 67.169 108.808 C 57.365 112.679, 45.883 115.598, 34.218 117.187 C 28.053 118.026, 25 118.866, 25 119.721 C 25 120.506, 26.299 121, 28.365 121 C 33.091 121, 36.754 124.279, 39.997 131.413 C 44.080 140.395, 48.343 145.619, 55.213 150.059 C 61.445 154.087, 73.903 158.614, 81.698 159.682 C 84.064 160.007, 86 160.600, 86 161.002 C 86 163.102, 63.749 171.114, 41.429 177.050 C 34.868 178.795, 28.712 180.639, 27.750 181.147 C 25.011 182.592, 25.693 184.689, 29.125 185.375 C 33.182 186.186, 59.160 186.170, 69.702 185.349 C 77.729 184.725, 77.918 184.649, 78.537 181.832 C 79.607 176.959, 83.493 173.321, 89.055 171.987 C 95.768 170.376, 103.520 171.248, 125.330 176.064 C 151.419 181.825, 156.678 182.179, 160.430 178.427 C 164.452 174.405, 160.118 161.944, 151.586 153 C 139.547 140.380, 141.156 136.597, 163 126.177 C 170.425 122.635, 178.412 118.425, 180.749 116.822 C 189.798 110.611, 190.290 102.095, 182.136 92.808 C 179.644 89.969, 178.052 89.132, 174.173 88.617 C 163.292 87.174, 162.212 81.006, 168.840 58.158 C 171.128 50.270, 173 41.713, 173 39.142 C 173 29.775, 166.801 23.869, 155.487 22.455 L 150.029 21.773 144.521 26.807 C 137.766 32.980, 133.938 34.330, 124.667 33.804 C 118.791 33.471, 115.301 32.457, 105.294 28.177 C 92.318 22.627, 85.520 21.158, 69.500 20.445 C 62.844 20.148, 59.335 20.470, 56.027 21.680 M 62.500 22.922 C 53.679 24.448, 46.219 30.505, 40.231 41 C 38.819 43.475, 34.645 49.775, 30.955 55 C 21.038 69.043, 18.901 74.120, 21.446 77.588 C 22.699 79.297, 24.211 79.502, 35.674 79.515 C 42.728 79.523, 49.288 79.908, 50.250 80.372 C 53.473 81.923, 52.435 87.189, 47.614 93.738 C 43.163 99.785, 39.492 103.186, 30.500 109.593 L 25.500 113.156 30 112.455 C 36.925 111.375, 50.324 106.419, 62.861 100.301 L 74.222 94.756 73.622 91.128 C 73.292 89.133, 73.017 84.744, 73.011 81.376 L 73 75.252 63.401 70.424 C 53 65.193, 45.192 59.117, 46.387 57.183 C 46.789 56.532, 48.704 56, 50.643 56 C 52.582 56, 58.379 54.339, 63.526 52.309 L 72.884 48.618 74.055 41.559 C 75.333 33.855, 77.225 28.514, 79.607 25.881 C 81.007 24.335, 80.896 24.144, 78.319 23.659 C 72.354 22.537, 66.342 22.257, 62.500 22.922 M 82.064 27.782 C 80.053 29.793, 78.790 32.630, 77.626 37.744 C 75.574 46.768, 75.559 48.383, 77.533 47.626 C 78.376 47.302, 81.971 46.502, 85.521 45.848 L 91.977 44.659 89.400 41.280 C 87.961 39.393, 87.083 37.225, 87.412 36.369 C 87.895 35.111, 89.486 35.627, 96.305 39.255 C 103.771 43.226, 105.515 43.737, 113.555 44.310 C 118.475 44.660, 124.075 45.218, 126 45.550 C 129.397 46.136, 129.339 46.050, 124 42.611 C 118.218 38.887, 103.045 31.809, 91.632 27.514 L 84.876 24.970 82.064 27.782 M 147.043 28.420 C 142.161 33.507, 135.780 36.307, 127.595 36.953 L 120.659 37.500 130.330 42.964 C 135.648 45.969, 140 49.007, 140 49.714 C 140 51.329, 139.527 51.320, 131.812 49.561 C 128.340 48.770, 122.125 47.837, 118 47.488 L 110.500 46.854 124.748 54.677 C 132.585 58.980, 138.885 62.788, 138.748 63.141 C 138.612 63.493, 134.275 67.270, 129.112 71.533 L 119.724 79.285 124.612 81.168 C 127.300 82.204, 130.285 82.858, 131.245 82.621 C 133.374 82.095, 140.598 89.181, 145.571 96.673 C 154.444 110.041, 153.947 119.863, 144.234 123.099 C 138.967 124.854, 126.693 124.387, 115.841 122.018 C 110.755 120.908, 106.483 120, 106.348 120 C 106.213 120, 106.754 121.561, 107.551 123.468 C 110.340 130.142, 108.656 138.544, 103.497 143.703 C 100.758 146.442, 99.448 147, 95.763 147 C 92.193 147, 90.247 146.228, 85.812 143.051 C 82.779 140.880, 79.610 138.053, 78.769 136.770 C 77.830 135.337, 76.776 129.627, 76.038 121.969 C 75.376 115.112, 74.704 109.371, 74.544 109.211 C 74.384 109.051, 70.934 110.238, 66.877 111.850 C 60.700 114.303, 48.439 117.624, 38.123 119.638 L 35.747 120.102 37.758 122.301 C 38.864 123.510, 41.449 127.979, 43.502 132.231 C 50.522 146.766, 61.391 153.382, 84.813 157.375 C 89.385 158.155, 93.365 159.031, 93.656 159.323 C 94.416 160.083, 84.746 165.469, 76.215 169.039 C 72.208 170.716, 62.083 174.024, 53.715 176.391 C 45.347 178.758, 36.925 181.167, 35 181.745 C 32.282 182.561, 36.338 182.819, 53.144 182.898 L 74.788 183 77.144 178.302 C 80.168 172.271, 83.312 170.057, 90.169 169.126 C 98.037 168.058, 108.145 169.263, 126.500 173.457 C 146.819 178.099, 155.895 178.962, 158.372 176.485 C 159.592 175.265, 159.952 173.901, 159.525 172.106 C 158.279 166.871, 153.439 158.646, 149.259 154.662 C 143.854 149.511, 140.609 143.059, 141.464 139.165 C 142.524 134.336, 147.848 130.444, 164.149 122.579 C 181.678 114.122, 185 111.321, 185 105.001 C 185 102.202, 184.114 99.994, 181.746 96.889 C 179.057 93.363, 177.538 92.382, 172.996 91.238 C 160.016 87.967, 158.884 81.972, 166.450 56.588 C 173.027 34.522, 170.531 27.109, 155.966 25.443 C 150.663 24.837, 150.397 24.925, 147.043 28.420 M 93.204 41.956 C 93.920 43.102, 95.547 44, 96.907 44 C 99.734 44, 99.605 43.816, 95.214 41.583 C 91.971 39.933, 91.944 39.938, 93.204 41.956 M 85.520 48.659 C 81.131 49.429, 77.187 50.413, 76.754 50.846 C 76.322 51.278, 75.863 54.046, 75.734 56.998 L 75.500 62.365 87.357 66.775 C 96.141 70.043, 99.506 70.894, 100.339 70.061 C 102.179 68.221, 101.438 61.627, 98.745 55.877 C 94.559 46.937, 94.748 47.039, 85.520 48.659 M 99.053 50.586 C 102.717 56.514, 104.885 64.833, 103.795 68.781 C 103.278 70.654, 103 72.325, 103.177 72.494 C 103.355 72.662, 106.391 73.970, 109.924 75.401 C 117.297 78.386, 116.232 78.747, 127.348 69.495 C 131.114 66.360, 133.814 63.416, 133.348 62.953 C 132.881 62.490, 126.292 58.711, 118.706 54.555 C 107.967 48.674, 104.017 47, 100.874 47 L 96.837 47 99.053 50.586 M 65.269 54.191 C 62.392 55.325, 60.255 56.604, 60.520 57.033 C 61.076 57.931, 69.707 61, 71.678 61 C 72.578 61, 73 59.564, 73 56.500 C 73 51.329, 72.734 51.249, 65.269 54.191 M 52.860 60.977 C 56.630 64.177, 71.996 72.337, 72.779 71.554 C 74.652 69.682, 62.004 60.965, 55.158 59.409 L 49.500 58.124 52.860 60.977 M 70 64.393 C 70 64.609, 70.698 65.054, 71.552 65.382 C 72.442 65.723, 72.843 65.555, 72.493 64.989 C 71.906 64.038, 70 63.583, 70 64.393 M 75 66.923 C 75 67.431, 76.157 69.222, 77.572 70.903 C 80.160 73.979, 80.109 76, 77.441 76 C 76.299 76, 76 77.773, 76 84.557 L 76 93.113 79.089 91.307 C 86.652 86.884, 99.380 74.896, 97.885 73.605 C 97.221 73.031, 76.935 66, 75.943 66 C 75.424 66, 75 66.415, 75 66.923 M 94.913 81.820 C 91.291 85.494, 85.800 90.075, 82.711 92 C 77.307 95.368, 77.094 95.664, 77.048 99.857 C 77.008 103.530, 77.263 104.113, 78.674 103.572 C 82.380 102.150, 96.185 93.432, 104.991 86.954 C 113.816 80.462, 114.202 80.027, 111.918 79.158 C 110.588 78.652, 107.758 77.509, 105.628 76.619 C 103.498 75.728, 101.698 75.032, 101.628 75.070 C 101.558 75.109, 98.536 78.146, 94.913 81.820 M 107.918 88.189 C 102.738 92.055, 93.888 97.940, 88.250 101.267 C 76.452 108.231, 77.103 106.573, 79.025 124.789 L 80.049 134.500 84.740 138.743 C 90.683 144.121, 94.985 145.663, 99.186 143.923 C 104.961 141.531, 107.951 129.674, 104.474 122.950 C 102.448 119.033, 97.499 118.868, 93.097 122.572 C 88.752 126.228, 87.029 124.597, 90.957 120.545 L 94.087 117.315 92.294 114.176 C 90.531 111.091, 90.543 110.956, 92.968 106.369 C 95.805 101.004, 103.136 94.788, 110.790 91.257 C 116.691 88.535, 119 88.813, 119 92.246 C 119 95.447, 116.959 98.233, 107.671 107.709 C 102.328 113.161, 100.108 116.060, 101.062 116.339 C 108.116 118.399, 128.111 121.454, 134.677 121.474 C 145.023 121.507, 148.332 119.563, 148.806 113.172 C 149.413 104.994, 139.610 89.782, 131.851 86.862 C 129.458 85.962, 125.213 84.311, 122.418 83.193 L 117.336 81.162 107.918 88.189 M 108.441 95.525 C 97.537 101.994, 91.727 110.156, 95.407 113.835 C 96.961 115.389, 97.622 114.921, 105.286 106.848 C 114.245 97.412, 118.058 92, 115.748 92 C 114.997 92, 111.709 93.586, 108.441 95.525" stroke="none" fill="black" fill-rule="evenodd"/>
</svg>