<svg xmlns="http://www.w3.org/2000/svg" width="200" height="200" viewBox="0 0 200 200" version="1.1">
	<path d="M 55.500 12.952 C 42.300 13.343, 31.488 13.738, 31.474 13.831 C 31.459 13.924, 31.437 15.912, 31.425 18.250 C 31.412 20.587, 30.211 28.800, 28.756 36.500 C 27.300 44.200, 25.154 56.575, 23.986 64 C 22.819 71.425, 20.319 84.619, 18.432 93.321 C 14.465 111.608, 14.530 111, 16.540 111 C 18.873 111, 25.222 114.507, 27.702 117.166 C 35.657 125.695, 34.610 139.429, 24.001 165.689 C 18.781 178.613, 18.319 180.461, 20.044 181.527 C 21.635 182.510, 25.649 179.513, 35.198 170.212 C 41.505 164.068, 44.392 161.895, 45.698 162.304 C 46.689 162.615, 50.558 164.023, 54.295 165.434 C 62.906 168.685, 69.159 168.819, 71.961 165.811 C 74.622 162.955, 74.656 155.386, 72.075 140.397 C 68.076 117.174, 68.455 105.845, 73.642 93.509 C 75.031 90.204, 77.110 84.800, 78.260 81.500 C 79.411 78.200, 80.481 75.330, 80.638 75.121 C 80.795 74.913, 83.191 76.198, 85.962 77.976 C 90.699 81.016, 91 81.459, 91 85.407 C 91 88.251, 89.726 92.240, 87.052 97.769 C 83.271 105.588, 76.517 116.949, 75.024 118 C 74.634 118.275, 74.010 120.061, 73.638 121.969 C 73.108 124.691, 73.224 125.176, 74.178 124.222 C 75.132 123.268, 76.309 126.325, 79.650 138.422 C 86.219 162.212, 90.559 170.227, 95.946 168.517 C 99.611 167.354, 103.290 156.039, 106.029 137.510 C 107.414 128.139, 111.786 118.206, 113.076 121.500 C 113.507 122.600, 113.900 132.950, 113.950 144.500 C 114.085 176.039, 116.146 186.172, 122.553 186.799 C 126.485 187.183, 129.762 184.600, 135.395 176.675 L 139.784 170.500 140.162 149.813 C 140.501 131.309, 140.990 126.657, 142.445 128.112 C 143.534 129.200, 144.993 142.815, 145.622 157.750 C 145.999 166.687, 146.575 173.996, 146.903 173.991 C 147.232 173.985, 149.934 172.586, 152.908 170.880 C 160.767 166.373, 167.609 159.058, 171.275 151.241 C 173.973 145.491, 174.493 143.104, 174.819 135 C 175.132 127.232, 174.808 124.315, 173.044 119 C 167.228 101.477, 153.845 91.892, 143.015 97.492 C 140.379 98.855, 139.713 98.806, 135.315 96.923 C 129.718 94.527, 122.004 89.818, 122.002 88.795 C 121.999 87.615, 127.628 87.024, 148.500 86.013 C 169.792 84.982, 175.162 84.044, 178.750 80.730 C 182.565 77.206, 181.678 74.198, 174.928 67.775 L 168.855 61.997 163.681 67.659 C 157.821 74.070, 150.555 77.980, 144.500 77.980 C 139.994 77.980, 131.430 74.329, 128.681 71.237 C 126.919 69.254, 126.928 69.061, 128.976 65.046 C 130.139 62.767, 131.738 60.654, 132.530 60.350 C 134.036 59.772, 143.469 64.022, 150.757 68.560 L 155.014 71.211 156.534 67.572 C 161.041 56.785, 165.596 29.741, 163.924 23.688 C 161.162 13.684, 152.427 21.035, 136.520 46.750 C 131.495 54.874, 130.455 56, 127.981 56 C 121.361 56, 119.048 59.581, 121.580 65.909 L 123.127 69.774 116.939 81.455 L 110.751 93.136 108.125 90.713 C 106.681 89.381, 102.883 86.348, 99.683 83.975 C 93.548 79.423, 90 74.022, 90 69.236 C 90 67.671, 91.419 64.166, 93.154 61.446 C 98.884 52.462, 101.278 46.113, 101.588 39.085 C 101.747 35.463, 101.905 32.211, 101.939 31.859 C 102.060 30.590, 109.800 28.197, 127 24.110 C 152.295 18.099, 152.173 18.138, 151.801 16.206 C 151.594 15.131, 150.050 14.276, 147.489 13.821 C 141.298 12.720, 82.211 12.162, 55.500 12.952 M 63.215 15.710 C 58.327 16.647, 52.374 30.255, 54.122 36.496 C 55.066 39.868, 59.836 44.564, 68.347 50.500 C 75.176 55.263, 79.526 61.355, 80.437 67.431 C 80.990 71.114, 81.694 72.212, 84.608 73.931 C 88.939 76.486, 89.339 76.502, 88.035 74.066 C 86.106 70.462, 86.987 66.698, 91.601 58.828 C 97.140 49.380, 99 43.606, 99 35.861 C 99 30.128, 99.057 30.012, 102.803 28.101 C 105.936 26.502, 119.432 22.900, 143 17.373 C 146.044 16.658, 145.394 16.464, 138 15.875 C 128.730 15.137, 66.916 15.001, 63.215 15.710 M 41.292 16.730 L 37.083 17.111 40.504 21.873 C 47.220 31.221, 55 51.431, 55 59.529 C 55 61.270, 55.726 61.856, 58.427 62.294 C 60.312 62.600, 65.518 64.438, 69.997 66.379 L 78.139 69.907 77.461 66.704 C 76.263 61.034, 73.109 57.269, 63.946 50.569 C 59.013 46.962, 54.084 42.546, 52.992 40.755 C 50.035 35.906, 50.383 29.499, 53.987 22.391 C 55.630 19.151, 56.980 16.387, 56.987 16.250 C 57.004 15.925, 46.706 16.240, 41.292 16.730 M 34.741 20.610 C 33.895 21.979, 30.471 40.323, 28.042 56.500 C 26.252 68.424, 20.178 100.107, 18.458 106.500 C 18.019 108.128, 18.765 108.845, 22.470 110.353 C 32.050 114.255, 36.879 124.016, 35.584 136.862 C 34.877 143.882, 30.015 159.322, 24.975 170.555 C 23.314 174.258, 22.184 177.518, 22.465 177.798 C 22.746 178.079, 27.627 173.732, 33.312 168.138 L 43.649 157.966 50.262 160.965 C 63.567 166.997, 70.154 166.979, 71.369 160.905 C 71.750 159.002, 70.932 150.982, 69.400 141.576 C 65.855 119.822, 66.206 103.800, 70.442 94 C 71.987 90.425, 74.345 84.418, 75.682 80.652 C 78.011 74.094, 78.037 73.747, 76.307 72.461 C 74.070 70.798, 59.612 65, 57.703 65 C 56.632 65, 56.160 67.507, 55.683 75.750 C 55.043 86.813, 52.381 99.368, 49.442 105.192 C 47.133 109.765, 42.984 114, 40.813 114 C 38.878 114, 35 110.664, 35 109 C 35 107.392, 37.729 107.851, 38.389 109.570 C 38.749 110.510, 39.892 111.012, 41.237 110.820 C 46.791 110.029, 53 89.469, 53 71.869 L 53 64 49.955 64 C 42.899 64, 40.299 71.074, 43.489 81.591 C 44.308 84.291, 44.983 86.612, 44.989 86.750 C 44.995 86.888, 44.360 87, 43.578 87 C 41.529 87, 39.610 80.485, 39.551 73.333 C 39.508 68.131, 39.882 66.759, 41.942 64.564 C 43.369 63.044, 45.967 61.709, 48.192 61.353 C 52.891 60.602, 52.980 59.606, 49.443 47.399 C 45.837 34.956, 36.448 17.848, 34.741 20.610 M 156.044 24.616 C 154.334 26.055, 150.969 29.992, 148.566 33.366 C 144.148 39.569, 134 55.608, 134 56.388 C 134 56.621, 136.954 58.194, 140.564 59.883 C 144.174 61.572, 148.475 63.914, 150.121 65.086 C 151.768 66.259, 153.379 66.955, 153.701 66.632 C 156.431 63.902, 162.899 29.718, 161.637 24.689 C 160.796 21.338, 159.953 21.327, 156.044 24.616 M 123.465 60.057 C 122.664 61.353, 123.735 66, 124.834 66 C 125.271 66, 126.381 64.425, 127.299 62.500 C 128.966 59.003, 128.965 59, 126.543 59 C 125.209 59, 123.824 59.476, 123.465 60.057 M 164.535 70.686 C 154.341 82.250, 138.077 83.622, 127.366 73.822 L 125.233 71.870 120.736 80.185 C 112.037 96.271, 112.486 94.478, 116.049 98.912 C 118.035 101.382, 119.046 103.646, 118.833 105.145 C 118.520 107.362, 118.104 107.495, 111.754 107.421 C 108.044 107.377, 104.751 107.084, 104.437 106.770 C 104.123 106.456, 105.021 103.919, 106.433 101.133 C 107.845 98.346, 109 95.836, 109 95.555 C 109 94.858, 95.782 84, 94.933 84 C 94.561 84, 93.984 85.697, 93.652 87.772 C 92.973 92.021, 85.947 106.770, 80.759 114.839 L 77.326 120.177 81.730 135.818 C 88.865 161.157, 92.959 169.153, 96.404 164.478 C 98.505 161.625, 100.718 153.108, 102.631 140.500 C 103.781 132.924, 105.199 127.696, 107.188 123.704 C 110.382 117.293, 112.340 115.911, 114.778 118.350 C 116.163 119.735, 116.499 124.046, 117.066 147.736 C 117.794 178.185, 118.604 183.231, 122.859 183.834 C 125.673 184.232, 129.749 180.625, 134.041 173.936 C 136.965 169.380, 137 169.153, 137.031 154.912 C 137.082 131.164, 139.268 120.488, 143.381 123.901 C 145.894 125.987, 147.224 134.770, 147.749 152.750 C 148.025 162.238, 148.493 170, 148.788 170 C 149.083 170, 151.478 168.618, 154.110 166.930 C 163.684 160.786, 169.900 151.315, 172.073 139.563 C 175.006 123.699, 165.111 102.510, 153.088 98.908 C 149.643 97.876, 148.629 98.001, 144.592 99.956 L 140.007 102.175 131.754 98.176 C 120.079 92.519, 116.317 87.707, 121.827 85.478 C 122.747 85.106, 133.850 84.219, 146.500 83.507 C 163.499 82.551, 170.609 81.766, 173.750 80.498 C 179.477 78.187, 179.419 75.563, 173.522 70.127 C 171.060 67.857, 168.922 66.042, 168.772 66.094 C 168.623 66.146, 166.716 68.212, 164.535 70.686 M 109.719 101.109 C 108.739 102.848, 108.064 104.395, 108.219 104.546 C 108.373 104.698, 110.188 105.137, 112.250 105.522 C 116.762 106.365, 117.294 104.596, 113.750 100.530 L 111.500 97.948 109.719 101.109" stroke="none" fill="black" fill-rule="evenodd"/>
</svg>