<svg xmlns="http://www.w3.org/2000/svg" width="200" height="200" viewBox="0 0 200 200" version="1.1">
	<path d="M 154.672 18.433 C 147.977 20.232, 142.194 24.573, 137.587 31.258 L 133.674 36.935 127.587 36.336 C 113.594 34.957, 113.940 35.122, 111.662 28.740 C 110.535 25.583, 109.206 23, 108.710 23 C 108.215 23, 106.524 23.915, 104.955 25.032 C 98.621 29.542, 91.182 32.149, 84.535 32.187 C 77.440 32.228, 71.586 29.894, 59.069 22.037 C 48.152 15.184, 40.794 17.130, 31.714 29.270 C 27.947 34.305, 17 53.718, 17 55.361 C 17 55.712, 18.553 56, 20.451 56 C 26.596 56, 34.249 58.158, 36.663 60.572 C 40.694 64.603, 39.895 69.633, 32.914 84.179 C 29.567 91.153, 26.586 98.669, 26.289 100.881 C 25.815 104.417, 26.130 105.283, 28.894 108.048 L 32.038 111.192 29.115 114.522 C 22.958 121.534, 24.218 126.797, 35.431 140.909 C 43.736 151.361, 45.322 154.381, 45.328 159.760 C 45.335 165.229, 41.722 169.918, 32.938 175.842 C 27.181 179.725, 24.336 183, 26.721 183 C 29.042 183, 45.405 173.827, 52.500 168.548 C 56.900 165.275, 67.958 155.038, 77.073 145.798 C 86.188 136.559, 94.155 129, 94.778 129 C 96.462 129, 97.329 135.297, 96.610 142.309 C 94.893 159.060, 93.615 167.047, 91.723 172.863 C 89.581 179.450, 89.982 182.158, 93.194 182.792 C 95.579 183.262, 104.744 176.456, 121.530 161.750 C 130.162 154.188, 137.511 148.002, 137.862 148.004 C 138.213 148.007, 140.286 151.494, 142.469 155.754 C 144.772 160.248, 148.781 165.914, 152.018 169.250 C 156.756 174.132, 158.137 175, 161.164 175 C 171.714 175, 176.040 161.522, 175.929 129 C 175.900 120.475, 176.621 103.868, 177.531 92.095 C 179.926 61.118, 177.963 48.654, 167.011 25.283 C 162.760 16.211, 162.818 16.243, 154.672 18.433 M 153.183 21.902 C 147.639 23.817, 141.836 28.578, 139.415 33.200 C 137.324 37.192, 137.590 37.680, 142.250 38.408 C 144.588 38.772, 150.010 40.010, 154.300 41.158 C 160.332 42.773, 162.029 43.614, 161.788 44.873 C 161.536 46.193, 159.499 46.641, 150.989 47.250 C 145.221 47.662, 140.128 48.124, 139.673 48.276 C 138.831 48.556, 152.030 57.239, 157.486 59.993 C 161.380 61.958, 163.134 65.573, 162.342 70 C 160.781 78.730, 151.417 94.595, 143.543 101.854 C 138.785 106.240, 137.223 106.773, 135.070 104.750 C 133.972 103.718, 133.843 104.184, 134.334 107.419 C 135.001 111.811, 135.826 112.570, 140.935 113.486 C 149.054 114.943, 158 118.117, 158 119.542 C 158 120.526, 156.922 121, 154.684 121 C 151.492 121, 141.358 119.432, 137.762 118.381 C 135.694 117.776, 135.814 118.669, 140.130 136 C 141.706 142.325, 142.996 148.337, 142.997 149.360 C 143.002 152.460, 149.133 162.953, 153.663 167.614 C 161.145 175.313, 166.978 173.245, 170.593 161.612 C 171.766 157.837, 172.397 149.438, 173.004 129.500 C 173.457 114.650, 174.369 95.975, 175.032 88 C 176.519 70.103, 175.820 59.060, 172.464 47.448 C 168.761 34.629, 162.181 19.992, 160.141 20.033 C 159.239 20.051, 156.107 20.892, 153.183 21.902 M 41.358 22.923 C 37.695 25.157, 30.998 34.305, 25.112 45.117 L 20.966 52.733 27.233 53.955 C 38.407 56.133, 42.835 60.738, 41.723 69.028 C 41.429 71.222, 38.446 78.806, 35.094 85.881 C 26.944 103.085, 27.109 106.998, 36.047 108.508 L 40.134 109.198 35.654 112.317 C 30.788 115.703, 28 119.578, 28 122.954 C 28 126.126, 30.126 129.717, 37.512 139.015 C 41.162 143.610, 45.015 149.068, 46.074 151.145 C 48.573 156.043, 48.532 162.538, 45.971 167.316 C 44.136 170.738, 44.112 171.007, 45.721 170.119 C 51.038 167.184, 65.473 154.285, 76.623 142.506 C 83.604 135.131, 90.700 128.426, 92.393 127.607 C 95.151 126.271, 95.654 126.282, 97.235 127.713 C 98.691 129.030, 98.997 130.991, 98.982 138.905 C 98.960 150.339, 96.704 167.249, 94.297 174.027 C 93.345 176.707, 92.889 179.222, 93.283 179.616 C 94.436 180.769, 103.426 174.011, 119.500 159.907 C 127.750 152.668, 135.513 146.280, 136.750 145.712 C 137.988 145.144, 139 144.237, 139 143.697 C 139 143.157, 136.903 136.262, 134.340 128.374 C 131.329 119.107, 129.118 113.856, 128.090 113.531 C 123.837 112.188, 99.254 108.903, 89.500 108.374 C 79.705 107.843, 77.350 108.069, 68 110.433 C 53.180 114.180, 51 114.967, 51 116.578 C 51 117.597, 49.724 118, 46.500 118 C 40.809 118, 40.381 115.683, 45.750 113.933 C 47.813 113.260, 50.758 111.662, 52.295 110.381 C 55.963 107.326, 61.002 106.049, 73.349 105.042 C 78.932 104.588, 86.200 103.511, 89.500 102.651 C 94.569 101.329, 128.480 94, 129.528 94 C 129.814 94, 128.957 86.858, 128.608 86.338 C 128.549 86.249, 123.775 86.802, 118 87.567 C 112.225 88.331, 102.315 88.966, 95.977 88.978 L 84.455 89 82.539 92.557 C 78.048 100.896, 72.482 103.548, 70.161 98.453 C 66.266 89.907, 72.673 68.183, 82.906 55.238 L 86.983 50.080 80.242 48.087 C 66.044 43.890, 55.187 42.759, 50.934 45.035 C 48.780 46.188, 48.384 49.981, 50.086 53.160 C 51.065 54.990, 50.942 55.120, 48.836 54.480 C 43.826 52.958, 38.920 49.530, 38.318 47.129 C 37.077 42.187, 44.613 39.017, 63.616 36.488 C 69.602 35.691, 75.175 35.030, 76 35.019 C 76.825 35.008, 74.800 33.717, 71.500 32.150 C 68.200 30.584, 62.618 27.434, 59.095 25.151 C 51.749 20.390, 46.578 19.741, 41.358 22.923 M 99 31.154 L 91.500 34.967 101.198 34.984 L 110.895 35 109.617 31.306 C 108.913 29.275, 107.924 27.551, 107.419 27.476 C 106.913 27.401, 103.125 29.056, 99 31.154 M 74.839 38.042 C 68.976 38.527, 62.001 39.341, 59.339 39.850 L 54.500 40.776 59 40.903 C 64.202 41.049, 73.754 43.146, 82.831 46.133 L 89.162 48.217 95.357 45.072 C 99.159 43.143, 103.945 41.652, 107.745 41.214 C 112.740 40.638, 113.767 40.226, 113.055 39.080 C 111.950 37.304, 90.733 36.727, 74.839 38.042 M 116.914 39.396 C 118.126 40.857, 127.263 44, 130.297 44 C 131.998 44, 133.460 41.023, 132.283 39.956 C 131.852 39.566, 127.936 38.941, 123.580 38.566 C 116.583 37.965, 115.806 38.062, 116.914 39.396 M 135.720 40.613 C 135.324 41.009, 135 42.158, 135 43.167 C 135 44.788, 135.896 44.998, 142.750 44.985 C 153.108 44.964, 154.963 43.639, 146.825 42.073 C 143.346 41.404, 139.586 40.640, 138.470 40.375 C 137.353 40.110, 136.116 40.218, 135.720 40.613 M 46.177 42.686 C 41.203 44.445, 39.837 46.676, 42.529 48.645 C 45.173 50.579, 45.676 50.368, 46.340 47.050 C 46.706 45.221, 47.988 43.527, 49.715 42.590 C 53.245 40.676, 51.747 40.717, 46.177 42.686 M 100.738 45.522 C 98.668 46.282, 96.068 47.539, 94.959 48.316 C 93.046 49.656, 93.215 49.844, 98.221 51.962 C 105.457 55.022, 117.649 62.661, 119.488 65.286 C 122.040 68.930, 121.409 71.919, 117.750 73.509 C 114.522 74.912, 114.545 74.922, 121.165 74.961 L 127.829 75 128.437 67.250 C 128.772 62.987, 129.414 56.871, 129.866 53.658 C 130.431 49.634, 130.346 47.730, 129.593 47.536 C 128.992 47.382, 125.985 46.524, 122.912 45.628 C 116.200 43.672, 105.910 43.623, 100.738 45.522 M 132.393 54.750 C 131.980 57.913, 131.610 63.870, 131.571 67.990 L 131.500 75.479 136.870 76.145 C 143.426 76.958, 145.945 78.912, 143.538 81.319 C 142.026 82.831, 136.004 84.982, 133.250 84.994 C 132.459 84.998, 132 86.470, 132 89 C 132 93.564, 131.607 93.453, 142.133 91.852 L 149.765 90.690 152.941 85.451 C 157.168 78.475, 160.416 68.793, 159.608 65.573 C 159.185 63.891, 158.044 62.806, 156.235 62.367 C 154.731 62.002, 151.925 60.491, 150 59.009 C 146.774 56.527, 134.380 49, 133.518 49 C 133.312 49, 132.806 51.587, 132.393 54.750 M 85.513 56.250 C 78.164 64.823, 72.035 80.447, 72.012 90.668 C 71.989 100.686, 74.019 101.011, 79.648 91.891 L 83.284 86 95.918 86 C 107.439 86, 122.879 84.716, 127.250 83.394 C 128.326 83.069, 129 81.875, 129 80.294 L 129 77.722 107 78.211 C 88.957 78.612, 85 78.457, 85 77.350 C 85 76.340, 87.077 75.956, 93.250 75.825 C 97.824 75.728, 99.606 75.480, 97.250 75.268 C 94.394 75.011, 93 74.413, 93 73.444 C 93 72.283, 94.893 72.019, 102.755 72.083 C 108.120 72.126, 113.745 71.851, 115.255 71.472 C 119.307 70.455, 118.727 67.543, 113.750 63.910 C 108.765 60.271, 92.686 52, 90.598 52 C 89.805 52, 87.516 53.913, 85.513 56.250 M 131 80.011 C 131 82.092, 131.311 82.206, 135.250 81.577 C 140.485 80.740, 142.628 79.006, 138.450 78.986 C 136.828 78.979, 134.488 78.701, 133.250 78.370 C 131.406 77.876, 131 78.172, 131 80.011 M 133 99.667 C 133 103.952, 133.464 103.807, 134.331 99.250 C 134.687 97.383, 134.535 96, 133.975 96 C 133.439 96, 133 97.650, 133 99.667 M 141 97.410 C 138.688 98.241, 137.392 99.403, 137.180 100.834 C 136.727 103.907, 138.096 103.528, 142 99.500 C 143.866 97.575, 145.192 96.034, 144.946 96.076 C 144.701 96.118, 142.925 96.718, 141 97.410 M 109.214 100.952 C 99.706 103.035, 91.709 104.958, 91.442 105.224 C 91.176 105.491, 94.579 106.011, 99.005 106.380 C 103.431 106.749, 112.103 107.935, 118.276 109.015 C 132.727 111.544, 132.268 111.570, 131.633 108.250 C 131.344 106.737, 130.818 103.588, 130.466 101.250 C 129.999 98.159, 129.371 97.023, 128.162 97.083 C 127.248 97.128, 118.721 98.870, 109.214 100.952" stroke="none" fill="black" fill-rule="evenodd"/>
</svg>