<svg xmlns="http://www.w3.org/2000/svg" width="200" height="200" viewBox="0 0 200 200" version="1.1">
	<path d="M 120.500 14.681 C 91.222 16.558, 66.022 22.566, 55.107 30.270 L 50.500 33.522 45.500 31.805 C 39.151 29.624, 36.062 29.591, 30.918 31.649 C 25.549 33.798, 21.715 39.171, 18.243 49.410 L 15.500 57.500 15.500 88 C 15.500 120.486, 16.105 126.724, 20.671 141.292 C 23.849 151.430, 29.628 158, 35.368 158 C 40.124 158, 45.494 155.209, 50.302 150.240 C 54.871 145.517, 58.480 135.815, 69.061 99.821 C 72.993 86.444, 76.307 75.394, 76.425 75.264 C 76.543 75.134, 80.135 75.696, 84.408 76.514 C 88.680 77.331, 93.047 78, 94.111 78 C 95.945 78, 95.961 77.870, 94.408 75.500 L 92.770 73 100.112 73 L 107.455 73 104.977 75.469 C 103.615 76.827, 97.364 81.664, 91.087 86.219 C 78.630 95.257, 76.797 97.202, 78.830 99.222 C 80.359 100.743, 91.072 100.648, 99.702 99.037 C 107.760 97.533, 151.989 98.808, 152.663 100.563 C 153.188 101.932, 149.259 116, 148.352 116 C 148.041 116, 146.079 114.647, 143.991 112.993 C 132.524 103.911, 117.973 101.002, 104 104.997 C 99.875 106.177, 94.250 107.447, 91.500 107.821 C 88.024 108.293, 86.500 108.957, 86.500 110 C 86.500 111.622, 88.743 112.059, 117 115.945 C 135.364 118.470, 143.509 120.338, 140.475 121.330 C 135.389 122.993, 110.603 124.873, 75.304 126.274 C 68.497 126.544, 65.941 127.274, 67.244 128.578 C 68.253 129.587, 109.883 131.182, 126.129 130.834 L 141.759 130.500 136.129 132.060 C 133.033 132.917, 126.595 135.102, 121.822 136.915 L 113.144 140.211 106.322 137.881 C 96.929 134.674, 86.891 134.635, 81.821 137.788 C 70.290 144.958, 71.746 165.280, 84.736 178.485 C 92.028 185.897, 98.489 188.505, 109.500 188.479 C 117.616 188.461, 119.218 188.125, 125.803 185.057 C 129.820 183.186, 134.722 180.450, 136.696 178.979 C 140.212 176.357, 140.385 176.332, 145.218 177.748 C 151.323 179.538, 155.936 178.766, 160.107 175.257 C 164.562 171.508, 166 167.318, 166 158.084 C 166 149.478, 162.867 137.482, 158.962 131.137 C 157.824 129.288, 157.029 127.678, 157.196 127.560 C 157.363 127.442, 158.978 126.757, 160.784 126.037 C 162.590 125.318, 164.953 123.605, 166.034 122.230 C 169.821 117.415, 168.134 111.355, 160.788 103.386 L 156.745 99 159.873 99 C 163.446 99, 164.242 96.529, 161 95.500 C 157.561 94.408, 158.981 88, 162.662 88 C 165.550 88, 174.864 83.797, 175.468 82.222 C 176.333 79.968, 172.944 77.266, 167.549 75.908 L 163.367 74.855 164.434 68.970 C 165.102 65.284, 166.205 62.570, 167.387 61.705 C 168.873 60.620, 169.135 59.599, 168.618 56.913 C 168.256 55.036, 167.572 49.641, 167.096 44.924 C 165.779 31.852, 162.448 27.131, 155.466 28.440 C 148.922 29.668, 143.050 37.945, 146.108 41.630 C 147.132 42.864, 148.600 43.111, 152.470 42.700 C 155.236 42.405, 158.194 41.890, 159.043 41.555 C 160.192 41.101, 161.022 42.162, 162.298 45.723 C 163.775 49.844, 164.649 57, 163.676 57 C 163.498 57, 159.874 55.200, 155.622 53 C 147.143 48.612, 143.333 48.099, 138.859 50.742 C 135.477 52.740, 131.473 60.407, 130.479 66.789 L 129.811 71.078 121.656 70.789 C 113.727 70.508, 113.509 70.434, 113.831 68.142 C 114.794 61.289, 109.677 57.247, 96.500 54.451 C 92.100 53.517, 87.533 52.540, 86.352 52.279 C 84.800 51.937, 83.579 52.651, 81.953 54.850 L 79.702 57.894 74.601 53.422 C 63.331 43.542, 54.627 42.370, 48.286 49.878 L 46.072 52.500 46.046 50 C 46.031 48.625, 47.106 45.167, 48.434 42.315 L 50.848 37.129 62.877 42.646 C 80.867 50.897, 91.206 51.879, 98.908 46.069 L 101.304 44.262 95.902 42.490 C 88.285 39.993, 77 34.884, 77 33.934 C 77 32.267, 82.928 31.412, 104.500 29.968 C 124.618 28.621, 139.733 26.446, 146.455 23.931 C 152.485 21.675, 156.359 18.099, 155.421 15.655 C 154.866 14.207, 152.952 14.023, 140.143 14.180 C 132.089 14.279, 123.250 14.505, 120.500 14.681 M 129 17.094 C 109.144 18.112, 90.096 20.533, 78.204 23.550 C 69.326 25.802, 54.972 32.414, 54.373 34.526 C 54.090 35.526, 69.064 42.831, 76.876 45.503 C 82.997 47.597, 94 47.301, 94 45.042 C 94 44.643, 92.088 43.745, 89.750 43.046 C 84.138 41.368, 76.718 37.570, 74.995 35.494 C 73.172 33.297, 74.700 30.866, 78.577 29.797 C 80.184 29.353, 90.500 28.313, 101.500 27.485 C 134.171 25.025, 147.413 22.516, 151.490 18.011 C 153.607 15.672, 155.352 15.743, 129 17.094 M 152.775 32.559 C 150.105 34.008, 148 36.818, 148 38.934 C 148 40.345, 153.856 40.295, 158.004 38.849 C 160.881 37.846, 161.494 37.942, 162.772 39.599 C 164.133 41.364, 164.188 41.285, 163.551 38.500 C 161.924 31.390, 158.454 29.477, 152.775 32.559 M 30.024 35.185 C 25.682 38.136, 21.604 46.074, 19.330 56 C 17.975 61.919, 17.612 68.348, 17.608 86.500 C 17.603 116.258, 19.928 134.343, 25.217 145.700 C 30.597 157.252, 38.735 158.185, 48.171 148.332 C 52.483 143.830, 55.532 135.606, 66.090 100 C 69.922 87.075, 74.269 72.951, 75.749 68.614 L 78.441 60.728 73.332 56.031 C 67.319 50.502, 62.487 48, 57.821 48 C 53.211 48, 50.854 49.908, 48.039 55.916 L 45.649 61.019 47.325 73.812 C 50.476 97.875, 49.178 113.445, 42.882 127.104 C 38.889 135.767, 36.998 136.136, 37.005 128.250 C 37.017 115.548, 39.152 83.907, 40.632 74.500 C 41.498 69, 42.549 60.153, 42.967 54.841 C 43.565 47.249, 44.281 44.190, 46.317 40.548 L 48.907 35.915 46.203 34.824 C 44.717 34.224, 41.250 33.529, 38.500 33.278 C 34.416 32.905, 32.863 33.255, 30.024 35.185 M 138.431 54.669 C 135.845 57.460, 132.615 66.752, 133.188 69.755 C 133.453 71.145, 134.943 71.621, 140.510 72.095 C 144.355 72.422, 150.483 73.031, 154.129 73.448 L 160.759 74.207 161.927 67.499 C 163.265 59.813, 163.560 60.268, 153.860 55.040 C 146.611 51.133, 141.815 51.017, 138.431 54.669 M 83.160 57.548 C 82.063 59.957, 82.309 60.592, 86.102 65.122 L 90.243 70.067 100.371 69.784 L 110.500 69.500 110.812 66.273 C 111.304 61.180, 107.130 59.258, 87.429 55.505 C 84.807 55.005, 84.182 55.304, 83.160 57.548 M 79.098 67.149 C 77.675 71.230, 77.577 71.002, 80.750 70.985 C 85.430 70.959, 86.353 69.718, 83.957 66.673 C 81.247 63.227, 80.438 63.306, 79.098 67.149 M 42.657 78.196 C 41.578 87.222, 39.813 119.308, 40.193 123 C 40.533 126.305, 40.680 126.111, 42.846 119.500 C 44.108 115.650, 45.510 108.933, 45.962 104.572 C 46.811 96.384, 45.523 75.140, 44.090 73.696 C 43.651 73.253, 43.006 75.278, 42.657 78.196 M 84.083 73.359 C 85.261 74.375, 90.107 74.981, 89.525 74.040 C 89.171 73.468, 87.709 73, 86.274 73 C 84.840 73, 83.854 73.162, 84.083 73.359 M 108.500 76.009 C 106.850 77.777, 100.504 82.760, 94.398 87.081 C 88.292 91.403, 82.724 95.628, 82.025 96.469 C 80.927 97.793, 81.212 97.997, 84.128 97.980 C 85.982 97.969, 90.650 97.465, 94.500 96.860 C 98.412 96.246, 111.535 95.847, 124.250 95.956 C 136.762 96.063, 147 95.928, 147 95.657 C 147 95.385, 145.422 94.188, 143.494 92.996 C 141.565 91.804, 140.256 90.395, 140.584 89.864 C 140.912 89.334, 139.133 86.711, 136.631 84.036 C 134.129 81.361, 131.789 78.009, 131.432 76.586 C 130.907 74.493, 130.184 73.999, 127.642 73.993 C 125.914 73.989, 121.575 73.718, 118 73.390 C 111.648 72.807, 111.432 72.867, 108.500 76.009 M 134 75.227 C 134 77.416, 138.273 83.028, 142.061 85.813 C 145.784 88.551, 146.329 88.668, 151.259 87.785 C 154.142 87.269, 156.796 86.543, 157.157 86.173 C 157.962 85.349, 160.072 77.739, 159.621 77.288 C 159.342 77.008, 152.584 76.175, 137.750 74.591 C 135.570 74.358, 134 74.625, 134 75.227 M 161.625 81.125 C 161.281 82.844, 161 84.622, 161 85.077 C 161 85.984, 168.473 83.959, 171.564 82.215 C 173.337 81.215, 173.188 80.992, 169.782 79.561 C 164.095 77.173, 162.348 77.508, 161.625 81.125 M 152 90.893 C 152 91.384, 152.712 92.059, 153.582 92.393 C 155.817 93.251, 156 93.183, 156 91.500 C 156 90.667, 155.111 90, 154 90 C 152.900 90, 152 90.402, 152 90.893 M 151 95 C 151.825 95.533, 152.950 95.969, 153.500 95.969 C 154.050 95.969, 153.825 95.533, 153 95 C 152.175 94.467, 151.050 94.031, 150.500 94.031 C 149.950 94.031, 150.175 94.467, 151 95 M 155.540 104.091 C 153.451 109.766, 151.001 117.499, 151.005 118.407 C 151.008 119.008, 152.037 120.784, 153.292 122.352 C 155.538 125.159, 155.633 125.180, 159.210 123.686 C 161.209 122.850, 163.600 121.015, 164.522 119.606 C 166.113 117.179, 166.091 116.819, 164.103 112.712 C 161.464 107.262, 156.291 102.053, 155.540 104.091 M 104.500 107.467 C 101.750 108.261, 99.162 108.932, 98.750 108.956 C 98.338 108.980, 98 109.356, 98 109.792 C 98 110.228, 105.678 111.610, 115.062 112.863 C 134.118 115.408, 142.771 117.357, 145 119.608 C 146.334 120.955, 146.297 121.273, 144.662 122.486 C 142.416 124.152, 132.971 125.771, 119 126.885 L 108.500 127.722 124.500 127.761 C 143.651 127.808, 145.139 127.496, 146.378 123.177 C 147.201 120.308, 146.972 119.580, 144.404 116.898 C 142.807 115.230, 138.197 112.232, 134.161 110.236 C 127.704 107.044, 125.779 106.572, 118.161 106.314 C 112.731 106.131, 107.635 106.561, 104.500 107.467 M 148.607 124.582 C 147.748 126.821, 147.784 126.869, 149.931 126.308 C 151.079 126.008, 151.644 125.235, 151.324 124.401 C 150.610 122.541, 149.358 122.624, 148.607 124.582 M 150.412 128.711 C 147.388 129.094, 147.181 129.484, 140.544 147.301 C 136.816 157.311, 133.679 165.601, 133.574 165.725 C 132.728 166.723, 106.693 173.010, 102.841 173.146 C 89.316 173.625, 94.856 166.982, 125.898 145.500 C 133.615 140.160, 140.442 135.173, 141.068 134.418 C 142.480 132.717, 136.021 134.525, 122.156 139.711 L 112.812 143.206 107.156 141.032 C 99.027 137.908, 89.363 137.259, 84.601 139.519 C 68.992 146.926, 77.712 176.465, 97.738 184.022 C 109.052 188.291, 124.591 185.036, 135.985 176.012 C 139.729 173.047, 139.828 173.028, 144.014 174.505 C 152.439 177.477, 158.468 175.688, 161.573 169.294 C 165.457 161.294, 162.981 143.615, 156.383 132.250 C 155.026 129.912, 153.822 128.072, 153.708 128.160 C 153.594 128.248, 152.110 128.496, 150.412 128.711 M 139.596 138.845 C 139.308 139.310, 132.706 144.097, 124.924 149.482 C 109.266 160.318, 99 168.502, 99 170.150 C 99 171.677, 106.241 170.516, 119.862 166.806 C 132.803 163.280, 131.118 165.137, 137.608 147.250 C 140.564 139.104, 141.263 136.148, 139.596 138.845" stroke="none" fill="black" fill-rule="evenodd"/>
</svg>