<svg xmlns="http://www.w3.org/2000/svg" width="200" height="200" viewBox="0 0 200 200" version="1.1">
	<path d="M 142.803 17.344 C 136.305 19.170, 130.787 23.060, 125.916 29.247 C 123.643 32.136, 121.269 34.663, 120.641 34.863 C 113.573 37.113, 89.830 47.015, 84 50.144 C 74.992 54.978, 73.373 56.352, 70.840 61.315 C 67.430 67.997, 65.535 65.400, 57.579 43.130 C 49.950 21.777, 46.627 16.671, 41.614 18.594 C 39.238 19.506, 35.518 26.376, 33.100 34.317 C 31.913 38.214, 29.572 42.927, 27.636 45.317 C 21.986 52.294, 20.567 55.848, 20.573 63 C 20.578 68.602, 21.295 71.171, 25.762 81.589 C 33.628 99.935, 33.731 108.121, 26.272 122 C 24.351 125.575, 22.141 129.698, 21.360 131.162 C 20.580 132.625, 19.218 137.160, 18.333 141.237 C 16.940 147.657, 16.911 149.044, 18.119 151.576 C 19.239 153.924, 20.253 154.561, 23.264 154.811 C 27.888 155.194, 33.682 152.350, 51.370 141.017 C 61.367 134.612, 64.433 133.075, 65.105 134.135 C 65.580 134.886, 65.976 135.838, 65.985 136.250 C 65.993 136.662, 66.675 137, 67.500 137 C 68.500 137, 69 136, 69 134 C 69 131.889, 69.485 131, 70.636 131 C 74.520 131, 68.751 148.211, 59.908 163 C 52.806 174.880, 51.381 179.441, 54.410 180.604 C 56.886 181.554, 61.366 178.386, 69.322 170.058 C 82.914 155.832, 94.279 135.886, 95.718 123.731 C 96.527 116.902, 97.833 120.068, 97.930 129.090 C 98.028 138.288, 95.035 148.973, 88.525 162.669 C 83.955 172.284, 83.189 174.618, 84.256 175.685 C 85.855 177.284, 89.785 175.361, 101.218 167.384 C 105.463 164.423, 109.610 162, 110.435 162 C 112.757 162, 118.713 155.493, 121.678 149.717 C 123.150 146.847, 126.230 139.155, 128.522 132.622 C 130.813 126.090, 132.915 121.365, 133.191 122.122 C 133.468 122.880, 133.479 133.512, 133.217 145.750 L 132.739 168 126.492 168 C 122.190 168, 119.862 168.462, 119.014 169.483 C 117.996 170.709, 118.206 171.128, 120.222 171.894 C 128.535 175.055, 166.701 175.763, 175.246 172.915 C 181.229 170.921, 182.184 169.171, 182.755 159.156 C 183.751 141.702, 181.145 135.808, 171.891 134.580 L 166.739 133.896 167.241 127.198 C 167.762 120.267, 173.498 101.443, 181.608 80.057 C 183.995 73.763, 185.811 68.477, 185.644 68.310 C 185.477 68.144, 182.723 70.040, 179.524 72.524 C 171.001 79.142, 159.834 85.883, 156.185 86.613 C 153.278 87.194, 153 87.030, 153 84.727 C 153 78.841, 169.245 53.760, 174.472 51.576 C 184.460 47.403, 184.193 36.230, 173.867 26.301 C 165.525 18.279, 152.670 14.573, 142.803 17.344 M 141.275 20.654 C 137.367 22.038, 126.388 30.722, 127.342 31.675 C 127.572 31.906, 133.327 30.512, 140.131 28.577 C 146.934 26.642, 155.200 24.448, 158.500 23.701 L 164.500 22.342 159.068 20.671 C 152.514 18.654, 146.937 18.649, 141.275 20.654 M 40.561 23.195 C 39.664 24.463, 37.748 29.325, 36.302 34 C 34.492 39.852, 32.603 43.703, 30.237 46.363 C 22.120 55.489, 21.184 63.054, 26.570 76 C 37.087 101.275, 37.174 106.232, 27.442 125.653 C 20.772 138.966, 18.334 149.309, 21.348 151.513 C 24.576 153.873, 30.633 151.137, 50.598 138.299 L 63.696 129.878 61.841 122.189 C 56.103 98.402, 59.799 82.537, 71.924 78.904 C 74.692 78.075, 76.175 76.856, 77.308 74.479 C 79.785 69.286, 85.247 65.727, 91.542 65.205 C 96.385 64.803, 96.841 64.571, 95.970 62.944 C 93.636 58.583, 95.096 52.803, 99.809 47.750 C 101.220 46.237, 102.013 45, 101.572 45 C 100.006 45, 80.455 54.830, 77.722 56.992 C 76.194 58.200, 74.048 60.947, 72.952 63.095 C 71.318 66.297, 70.430 67, 68.022 67 C 64.093 67, 61.671 62.705, 55.028 43.956 C 47.343 22.267, 44.302 17.903, 40.561 23.195 M 156 27.471 C 145.586 29.750, 126.523 35.356, 124.390 36.766 C 122.187 38.222, 117.201 50.700, 115.118 59.970 C 114.410 63.121, 114.505 64, 115.552 64 C 116.438 64, 116.993 62.405, 117.195 59.282 C 117.445 55.422, 117.967 54.304, 120.069 53.129 C 123.287 51.330, 127.544 52.279, 129.073 55.137 C 129.989 56.849, 129.836 57.748, 128.262 59.875 C 127.194 61.319, 125.123 63.087, 123.660 63.805 C 122.197 64.522, 121 65.449, 121 65.863 C 121 67.058, 127.820 78.130, 131.057 82.191 C 133.065 84.709, 133.634 86.108, 132.849 86.594 C 131.431 87.469, 127.247 82.530, 122.795 74.725 C 117.500 65.444, 117.640 65.587, 115.171 66.909 C 112.127 68.537, 112.448 69.399, 116.666 70.924 L 120.331 72.249 116.416 74.609 C 112.742 76.824, 111.336 79.110, 111.100 83.250 C 111.020 84.648, 111.824 85, 115.099 85 C 117.353 85, 120.748 85.736, 122.643 86.635 C 127.296 88.843, 131.061 96, 127.570 96 C 126.783 96, 125.995 95.010, 125.820 93.801 C 125.431 91.126, 120.936 88.425, 115.387 87.532 L 111.273 86.870 110.608 92.751 C 110.036 97.804, 110.304 99.422, 112.509 104.239 C 117.282 114.664, 116.810 125.152, 111.192 133.500 L 108.500 137.500 107.881 130 C 107.540 125.875, 107.203 117.186, 107.131 110.690 L 107 98.880 101.849 93.434 C 96.280 87.546, 84.760 81, 79.965 81 C 77.492 81, 77.080 81.502, 76.064 85.750 C 73.978 94.482, 70.062 127.485, 71.070 127.839 C 73.149 128.570, 75 131.257, 75 133.543 C 75 136.908, 69.737 150.952, 65.918 157.780 C 57.267 173.243, 56.044 175.593, 56.023 176.785 C 55.986 178.880, 59.424 176.539, 65.695 170.200 C 78.970 156.781, 89.765 138.674, 92.552 125.154 C 93.912 118.560, 93.908 117.189, 92.516 111.755 C 91.663 108.426, 91.168 105.499, 91.416 105.251 C 93 103.667, 97.488 111.443, 99.641 119.500 C 102.861 131.557, 99.943 145.836, 90.268 165.352 C 88.400 169.121, 87.071 172.404, 87.314 172.648 C 87.558 172.891, 92.187 170.128, 97.601 166.508 C 103.015 162.888, 108.471 159.669, 109.726 159.354 C 114.902 158.055, 120.920 147.217, 127.413 127.500 C 131.693 114.500, 132.238 113.494, 134.519 114.369 C 136.103 114.977, 136.210 117.277, 135.870 143.265 L 135.500 171.500 150.376 171.777 C 166.524 172.079, 175.257 170.982, 178.245 168.278 C 179.964 166.722, 180.121 165.326, 179.827 154.187 C 179.506 142.055, 179.447 141.777, 176.694 139.411 C 174.959 137.920, 172.633 137, 170.599 137 C 166.229 137, 164 134.383, 164 129.251 C 164 124.231, 169.299 105.552, 175.420 88.999 C 177.931 82.208, 179.876 76.551, 179.743 76.427 C 179.609 76.303, 175.472 78.866, 170.548 82.121 C 157.010 91.074, 150.959 92.133, 150.187 85.686 C 149.735 81.907, 153.075 75.055, 161.641 62.192 C 166.425 55.009, 170.148 50.464, 171.838 49.748 C 179.742 46.394, 181.153 40.593, 175.968 32.766 C 173.128 28.478, 169.072 24.890, 167.285 25.086 C 166.853 25.133, 161.775 26.206, 156 27.471 M 112.766 41.650 C 103.579 46.551, 98 52.677, 98 57.867 C 98 60.162, 98.753 62.709, 99.823 64.029 C 101.422 66.005, 102.215 66.195, 106.300 65.582 C 110.748 64.915, 111.002 64.699, 112.032 60.692 C 113.650 54.402, 116.088 47.013, 118.118 42.250 C 119.114 39.913, 119.832 38.013, 119.714 38.029 C 119.597 38.045, 116.470 39.674, 112.766 41.650 M 119.836 57.462 C 118.094 61.284, 119.892 62.624, 123.947 60.527 C 127.826 58.522, 127.719 55.643, 123.750 55.184 C 121.618 54.938, 120.757 55.439, 119.836 57.462 M 85.367 69.844 C 82.366 71.744, 79 75.626, 79 77.184 C 79 77.590, 80.910 78.437, 83.244 79.066 C 85.579 79.694, 89.188 81.076, 91.265 82.135 L 95.041 84.062 102.271 79.677 C 113.893 72.628, 112.169 69.523, 96 68.386 C 89.655 67.940, 88.017 68.165, 85.367 69.844 M 103.500 82.013 L 98.500 84.966 103.281 84.983 C 108.147 85, 109.556 83.885, 108.835 80.588 C 108.563 79.348, 107.556 79.617, 103.500 82.013 M 69.420 82.886 C 64.187 86.077, 62.500 90.980, 62.500 103 C 62.500 114.660, 65.587 131.213, 67.069 127.500 C 67.509 126.400, 68.829 117.514, 70.003 107.752 C 71.177 97.991, 72.557 88.544, 73.069 86.759 C 74.869 80.482, 74.320 79.898, 69.420 82.886 M 104.184 87.882 L 100.867 88.500 104.434 91.946 L 108 95.392 108 91.196 C 108 88.888, 107.888 87.059, 107.750 87.132 C 107.612 87.204, 106.008 87.542, 104.184 87.882 M 110.112 117.500 C 110.162 129.149, 110.208 129.398, 111.693 126 C 113.408 122.074, 113.093 110.724, 111.176 107.422 C 110.313 105.934, 110.072 108.209, 110.112 117.500" stroke="none" fill="black" fill-rule="evenodd"/>
</svg>