<svg xmlns="http://www.w3.org/2000/svg" width="200" height="200" viewBox="0 0 200 200" version="1.1">
	<path d="M 55.702 17.631 C 55.355 17.979, 55.541 19.142, 56.116 20.217 C 56.691 21.292, 56.944 22.389, 56.678 22.655 C 56.413 22.921, 50.911 22.408, 44.452 21.514 C 36.463 20.410, 32.383 20.217, 31.689 20.911 C 30.994 21.606, 31.064 24.148, 31.906 28.864 C 32.588 32.677, 33.034 38.854, 32.899 42.590 C 32.640 49.736, 34.242 52.542, 35.367 46.914 C 36.334 42.079, 36.093 36.141, 34.649 29.250 C 33.928 25.813, 33.600 23.004, 33.919 23.008 C 34.239 23.013, 39.450 23.679, 45.500 24.489 C 51.550 25.298, 56.990 25.970, 57.589 25.980 C 58.189 25.991, 59.184 27.108, 59.800 28.461 C 60.706 30.448, 60.543 31.779, 58.954 35.371 C 55.935 42.196, 55.449 48.036, 57.534 52.429 C 59.681 56.954, 62.401 58.826, 70.945 61.658 L 77.500 63.831 74.500 64.953 C 61.904 69.667, 60.676 70.431, 58.360 75 C 49.691 92.099, 54.726 108.368, 73 122.308 C 76.072 124.651, 76.233 124.979, 74.321 124.989 C 72.939 124.996, 69.102 128.020, 63.821 133.264 C 49.117 147.868, 32.908 153.406, 23 147.213 C 15.003 142.214, 16.897 135.147, 27.653 129.850 C 33.793 126.827, 33.812 126.804, 36.118 119.660 C 38.961 110.850, 39.142 100.730, 36.592 93.184 C 35.604 90.260, 31.916 83.532, 28.398 78.232 C 24.879 72.932, 22 68.038, 22 67.355 C 22 65.630, 25.786 63.143, 30.250 61.937 C 32.327 61.375, 34 60.295, 34 59.515 C 34 58.318, 33.218 58.332, 28.750 59.612 C 23.621 61.082, 19 64.789, 19 67.434 C 19 68.161, 21.939 73.198, 25.531 78.628 C 36.143 94.670, 38.291 106.017, 33.280 119.551 C 31.760 123.656, 30.648 124.933, 26.759 127.042 C 15.091 133.370, 12.188 141.238, 19.144 147.683 C 22.576 150.864, 26.337 152.003, 33.315 151.976 C 44.059 151.935, 58.800 143.909, 68.219 132.972 C 70.574 130.238, 73.251 128.001, 74.168 128 C 80.489 127.999, 80.466 124.247, 74.117 119.586 C 67.238 114.536, 62.182 108.638, 59.259 102.255 C 57.131 97.607, 56.821 95.742, 57.229 90.041 C 57.528 85.863, 58.654 81.262, 60.198 77.906 C 62.670 72.532, 62.739 72.479, 71.829 68.914 C 80.938 65.343, 80.980 65.337, 82.345 67.392 C 83.573 69.243, 83.213 70.483, 78.858 79.390 C 73.559 90.224, 72.724 95.247, 75.934 96.965 C 79.175 98.699, 83.059 98.139, 93.500 94.431 C 99 92.478, 104.311 90.624, 105.302 90.310 C 107.331 89.668, 107.228 91.790, 104.374 109.500 C 99.488 139.817, 85.283 164.757, 65.630 177.523 L 62.760 179.387 64.991 181.194 C 68.149 183.751, 71.551 183.447, 78.944 179.950 C 88.214 175.564, 97.422 168.389, 108.235 157.123 C 120.519 144.324, 124.119 138.285, 128.002 123.952 C 131.220 112.078, 134.924 102.846, 137.702 99.777 C 138.586 98.800, 140.391 98, 141.711 98 C 143.610 98, 144.558 98.994, 146.244 102.750 C 149.259 109.469, 149.777 128.089, 147.281 140 L 145.500 148.500 139.329 149 C 132.196 149.578, 128.413 152.281, 127.434 157.501 C 125.454 168.053, 137.023 182.029, 147.860 182.179 C 154.484 182.270, 158.556 180.247, 164.355 173.984 C 169.379 168.556, 169.976 167.390, 171.870 159.294 C 176.432 139.797, 177.429 131.816, 177.465 114.500 C 177.495 99.690, 177.216 96.598, 175.294 90.500 C 174.080 86.650, 171.677 81.586, 169.954 79.246 L 166.821 74.991 163.983 77.012 C 159.410 80.268, 152.754 82.954, 149.200 82.978 C 142.645 83.022, 139.276 79.995, 131.519 67.095 C 129.400 63.573, 126.345 59.185, 124.730 57.345 L 121.793 54 143.146 53.994 C 154.891 53.991, 167.198 53.547, 170.495 53.007 C 176.674 51.995, 181.271 49.449, 181.804 46.745 C 182.252 44.469, 176.116 38.987, 168.676 35.015 L 162.148 31.529 155.324 38.098 C 146.725 46.375, 140.831 48.953, 135.250 46.876 C 132.337 45.792, 130.960 44.393, 129.078 40.604 C 126.803 36.023, 126.742 35.476, 128.078 31.613 L 129.500 27.500 137.750 27.210 C 144.131 26.985, 146 26.593, 146 25.479 C 146 24.150, 145.095 23.787, 138.750 22.568 C 137.513 22.330, 134.700 22.773, 132.500 23.553 C 129.983 24.444, 124.398 24.975, 117.435 24.985 L 106.370 25 104.701 21.500 C 103.783 19.575, 102.440 18, 101.716 18 C 99.836 18, 98 20.091, 98 22.231 C 98 23.239, 97.310 24.328, 96.466 24.651 C 95.623 24.975, 87.495 24.912, 78.404 24.511 L 61.875 23.782 59.688 20.403 C 57.457 16.958, 56.819 16.515, 55.702 17.631 M 100.639 22.498 C 99.746 24.825, 99.807 25, 101.500 25 C 103.183 25, 103.373 24.137, 102.124 22.166 C 101.449 21.102, 101.149 21.169, 100.639 22.498 M 63 26.840 C 63 27.904, 84.453 66, 85.052 66 C 86.087 66, 92.757 50.937, 94.350 45 C 95.162 41.975, 96.054 36.955, 96.331 33.844 L 96.836 28.187 85.168 27.577 C 78.751 27.242, 71.138 26.825, 68.250 26.651 C 65.362 26.478, 63 26.562, 63 26.840 M 99.667 28.667 C 99.300 29.033, 99 31.652, 99 34.485 C 99 40.924, 97.023 47.652, 91.413 60.306 L 87.023 70.206 92.106 77.559 C 99.003 87.536, 99.370 87.783, 102.417 84.495 C 106.618 79.962, 107.502 75.684, 107.477 60 C 107.457 47.504, 106.295 36.113, 104.389 29.750 C 103.874 28.028, 100.971 27.362, 99.667 28.667 M 107.346 30.250 C 110.399 42.460, 111.449 69.832, 109.166 77.705 C 108.496 80.017, 106.765 83.315, 105.319 85.033 L 102.691 88.156 106.403 86.605 L 110.116 85.054 109.451 92.277 C 105.808 131.835, 94.052 158.203, 72 176.273 C 67.723 179.778, 67.630 179.962, 70.116 179.980 C 77.378 180.035, 99.614 164.231, 110.398 151.350 C 120.191 139.654, 121.761 136.518, 126.544 119.092 C 132.273 98.221, 139.808 90.229, 146.385 98.045 C 150.477 102.909, 151.515 108.119, 151.356 123 C 151.254 132.523, 150.655 138.709, 149.320 144 L 147.429 151.500 143.964 151.333 C 134.637 150.882, 130 153.668, 130 159.721 C 130 170.332, 141.519 181.209, 150.953 179.506 C 155.980 178.598, 161.359 174.792, 164.912 169.628 C 169.616 162.791, 173.957 140.479, 174.705 119.294 C 175.310 102.159, 174.442 94.444, 171.036 86.686 C 167.483 78.592, 167.431 78.574, 159.500 82.610 C 153.759 85.532, 151.685 86.097, 147.971 85.754 C 141.214 85.130, 138.362 82.642, 130.463 70.476 C 123.917 60.393, 119.073 54.858, 115.860 53.787 C 115.127 53.542, 114.971 52.856, 115.466 52.055 C 116.114 51.006, 119.726 50.833, 132.715 51.227 C 151.635 51.801, 172.374 50.698, 176.300 48.909 C 177.785 48.233, 179 47.079, 179 46.346 C 179 44.854, 172.502 39.847, 166.685 36.855 L 162.869 34.893 156.608 40.750 C 149.190 47.690, 144.749 50.001, 138.849 49.996 C 129.886 49.989, 124.397 43.289, 125.220 33.362 L 125.665 28 116.224 28 C 106.934 28, 106.792 28.036, 107.346 30.250 M 60.594 38.678 C 58.572 44.612, 58.561 49.929, 60.566 52.791 C 62.579 55.664, 68.672 58.764, 73.975 59.612 L 78.135 60.277 74.541 53.889 C 72.565 50.375, 69.329 44.462, 67.350 40.750 C 65.371 37.038, 63.400 34, 62.970 34 C 62.540 34, 61.471 36.105, 60.594 38.678 M 80.964 81.197 C 78.784 85.706, 77 90.718, 77 92.337 L 77 95.280 82.250 94.721 C 85.138 94.413, 90.087 93.163, 93.250 91.942 L 98.999 89.723 95.102 85.495 C 92.959 83.170, 89.974 79.407, 88.470 77.134 C 86.965 74.860, 85.553 73, 85.331 73 C 85.109 73, 83.144 76.689, 80.964 81.197" stroke="none" fill="black" fill-rule="evenodd"/>
</svg>