<svg xmlns="http://www.w3.org/2000/svg" width="200" height="200" viewBox="0 0 200 200" version="1.1">
	<path d="M 98.250 18.720 C 97.563 18.966, 97 20.338, 97 21.770 L 97 24.374 94.195 21.687 C 90.106 17.769, 85.564 18.063, 78.850 22.679 C 75.908 24.702, 70.717 28.259, 67.315 30.582 C 58.196 36.812, 50.979 39.268, 44.990 38.180 C 37.318 36.786, 21.399 39.705, 22.284 42.345 C 22.726 43.662, 40.362 43.976, 45.807 42.764 C 48.899 42.075, 49.207 42.252, 50.564 45.499 C 51.696 48.209, 51.789 49.979, 50.986 53.560 C 48.198 66.001, 35.424 82.625, 24.217 88.395 C 20.572 90.272, 20.771 92, 24.633 92 C 28.379 92, 41.731 87.286, 48 83.751 C 51.025 82.045, 61.150 75.483, 70.500 69.168 C 86.032 58.679, 97.747 52.003, 100.625 52.001 C 101.244 52, 102.031 53.406, 102.375 55.125 C 103.553 61.013, 103.156 62.502, 100.106 63.654 C 94.841 65.641, 93.500 69.154, 93.500 80.966 L 93.500 91.500 87 91 C 75.273 90.098, 49.692 90.808, 44.500 92.179 C 40.654 93.195, 39.429 93.998, 39.193 95.658 C 38.948 97.373, 39.564 97.982, 42.193 98.626 C 45.885 99.530, 75.487 99.415, 81.109 98.475 L 84.719 97.872 84.250 102.753 C 83.645 109.043, 86.792 115.501, 94.535 123.865 C 99.180 128.882, 99.954 130.218, 99.116 131.783 C 96.808 136.096, 95.739 136.088, 88.325 131.699 C 84.424 129.390, 77.468 125.709, 72.866 123.519 C 62.655 118.660, 63.254 119.087, 65.029 117.946 C 66.251 117.160, 66.155 116.905, 64.458 116.438 C 62.819 115.987, 62.492 115.229, 62.799 112.600 C 63.587 105.842, 57.038 103.429, 40.568 104.408 C 34.555 104.765, 29.067 105.529, 28.373 106.106 C 26.407 107.737, 24.711 117.812, 25.257 124.616 C 26.476 139.797, 37.395 149.475, 55.633 151.538 C 66.053 152.717, 83.326 148.176, 92.048 141.966 C 96.342 138.909, 95.664 141.045, 90.529 146.756 C 82.122 156.108, 70.855 158.613, 50.720 155.609 C 44.791 154.724, 37.286 154, 34.042 154 C 28.863 154, 27.893 154.321, 26.073 156.635 C 24.933 158.084, 24 160.607, 24 162.241 C 24 166.164, 26.468 175.543, 29.017 181.304 L 31.060 185.924 36.280 181.961 C 43.180 176.722, 52.223 173.053, 73.176 166.993 C 82.704 164.238, 92.221 161.302, 94.324 160.470 L 98.148 158.957 95.342 164.113 C 93.799 166.948, 91.403 170.280, 90.018 171.517 C 88.633 172.753, 85.741 175.320, 83.592 177.222 C 81.280 179.266, 79.976 181.153, 80.401 181.839 C 81.773 184.060, 83.995 182.967, 89.139 177.541 C 95.300 171.040, 100.351 169, 110.284 169 C 118.860 169, 125.536 170.694, 139.975 176.534 C 160.784 184.950, 167.249 185.571, 172.986 179.703 C 177.238 175.354, 179.086 168.491, 179.731 154.659 L 180.282 142.817 174.891 146.922 C 168.238 151.987, 161.445 155.385, 159.480 154.631 C 157.458 153.855, 157.597 149.636, 160.094 135.965 C 161.454 128.523, 162.064 121.748, 161.833 116.658 C 161.497 109.267, 161.289 108.648, 158.223 105.908 C 155.604 103.568, 154.047 103, 150.250 103 L 145.532 103 152.516 98.926 C 167.499 90.187, 179 79.364, 179 74.003 C 179 70.171, 171.621 65.960, 147.345 55.939 C 129.990 48.775, 126.513 46.928, 128.270 45.812 C 129.846 44.811, 161.143 44.884, 175.500 45.921 C 181.550 46.359, 186.667 46.576, 186.871 46.404 C 187.074 46.233, 185.794 44.266, 184.026 42.033 C 179.935 36.868, 174.095 33.506, 166.568 31.983 C 159.436 30.540, 153.668 31.080, 133 35.125 C 116 38.452, 109.474 38.491, 105.190 35.292 C 103.018 33.671, 102.305 31.968, 101.311 26.033 C 99.963 17.982, 100.009 18.092, 98.250 18.720 M 84.500 22.422 C 82.850 23.162, 77.784 26.472, 73.242 29.778 C 68.701 33.083, 62.055 37.065, 58.474 38.625 C 53.423 40.825, 52.135 41.802, 52.731 42.981 C 53.154 43.816, 53.481 47.425, 53.458 51 C 53.422 56.580, 52.866 58.542, 49.526 64.860 C 47.196 69.270, 42.607 75.441, 38.080 80.253 C 32.365 86.329, 31.129 88.101, 33.012 87.528 C 39.181 85.648, 52.501 78.035, 68.880 67.026 C 85.289 55.997, 97.663 49.003, 100.769 49.001 C 101.556 49, 101.862 48.145, 101.574 46.750 C 101.318 45.513, 100.816 42.256, 100.458 39.513 C 99.508 32.245, 95.336 24.904, 90.666 22.285 C 87.999 20.790, 88.152 20.786, 84.500 22.422 M 150.500 34.643 C 125.447 39.787, 115.211 41.222, 110.500 40.250 C 107.750 39.682, 105.388 39.318, 105.252 39.440 C 105.116 39.562, 105.791 41.534, 106.752 43.821 C 107.920 46.599, 109.125 47.983, 110.384 47.990 C 118.025 48.031, 127.962 55.476, 133.948 65.643 C 135.845 68.864, 139.782 74.819, 142.698 78.875 C 147.740 85.889, 149.297 90, 146.912 90 C 146.313 90, 141.251 86.685, 135.662 82.634 C 125.909 75.565, 117.517 70, 116.609 70 C 116.373 70, 117.350 73.573, 118.782 77.940 C 120.867 84.299, 121.845 85.995, 123.693 86.459 C 126.790 87.236, 126.606 88.819, 123.271 90.087 C 121.363 90.813, 120.435 90.805, 120.187 90.062 C 119.790 88.869, 110.128 88.627, 108.358 89.765 C 106.603 90.894, 106.333 116.113, 107.995 123.753 C 109.117 128.916, 109.132 131.270, 108.078 137.253 C 107.375 141.239, 106.851 146.118, 106.913 148.096 C 106.996 150.727, 106.190 152.741, 103.913 155.596 C 100.602 159.750, 96.603 166.937, 97.246 167.580 C 97.459 167.792, 99.175 167.523, 101.060 166.983 C 106.109 165.535, 115.759 165.786, 122.500 167.542 C 125.756 168.390, 134.738 171.573, 142.460 174.615 C 158.427 180.906, 164.151 182.007, 168.686 179.662 C 173.761 177.038, 177 167.372, 177 154.853 L 177 148.980 171.690 152.505 C 162.178 158.821, 156.621 158.923, 155.512 152.803 C 155.183 150.986, 155.610 145.675, 156.461 141 C 160.615 118.172, 160.680 113.405, 156.901 108.601 C 153.807 104.667, 147.782 105.057, 134.487 110.051 C 118.590 116.022, 119.127 113.675, 135.634 105.039 C 158.348 93.154, 170.913 84.291, 174.505 77.621 C 176.296 74.295, 176.306 73.996, 174.692 72.212 C 172.672 69.980, 160.524 64.186, 142.553 56.882 C 135.433 53.988, 128.233 50.383, 126.553 48.870 C 123.620 46.228, 123.570 46.049, 125.284 44.310 C 126.827 42.744, 129.184 42.461, 142.784 42.207 C 151.428 42.046, 163.563 42.280, 169.750 42.729 C 175.938 43.177, 181 43.199, 181 42.778 C 181 41.040, 172.549 36.069, 167.900 35.072 C 163.027 34.027, 154.521 33.817, 150.500 34.643 M 37.250 40.689 C 38.212 40.941, 39.788 40.941, 40.750 40.689 C 41.712 40.438, 40.925 40.232, 39 40.232 C 37.075 40.232, 36.288 40.438, 37.250 40.689 M 104.079 46.583 C 104.127 47.748, 104.364 47.985, 104.683 47.188 C 104.972 46.466, 104.936 45.603, 104.604 45.271 C 104.272 44.939, 104.036 45.529, 104.079 46.583 M 105.011 53.250 C 105.038 58.849, 106.312 62.964, 108.202 63.564 C 109.274 63.904, 110.339 63.995, 110.568 63.765 C 110.798 63.535, 110.048 60.569, 108.901 57.174 C 106.795 50.935, 104.991 49.116, 105.011 53.250 M 110.264 52.250 C 110.527 52.938, 111.577 56.150, 112.597 59.388 C 114.306 64.811, 114.916 65.561, 120.319 68.888 C 123.546 70.875, 129.790 75.117, 134.195 78.315 C 138.600 81.513, 142.360 83.973, 142.551 83.782 C 142.742 83.591, 141.431 81.582, 139.639 79.317 C 137.846 77.051, 134.673 72.281, 132.588 68.715 C 128.062 60.976, 122.999 55.550, 117.853 52.925 C 113.526 50.718, 109.542 50.363, 110.264 52.250 M 98.113 68.583 C 96.378 70.789, 96.003 72.633, 96.015 78.885 C 96.034 88.138, 96.591 89.232, 100.849 88.380 L 104.065 87.737 103.782 77.130 C 103.546 68.244, 103.234 66.473, 101.863 66.210 C 100.963 66.038, 99.275 67.106, 98.113 68.583 M 106.375 69.125 C 106.719 70.844, 107 75.584, 107 79.659 L 107 87.069 112.250 86.399 C 115.138 86.031, 117.671 85.582, 117.879 85.402 C 118.088 85.222, 117.075 81.276, 115.627 76.634 C 113.254 69.021, 112.688 68.087, 109.849 67.097 C 105.603 65.617, 105.666 65.580, 106.375 69.125 M 99.250 91.662 C 98.563 91.940, 98 92.804, 98 93.583 C 98 94.531, 96.861 95, 94.559 95 C 89.607 95, 89.036 96.899, 93.078 99.930 C 94.960 101.341, 98.188 104.296, 100.250 106.497 L 104 110.499 104.014 103 C 104.021 98.875, 104.299 94.487, 104.630 93.250 C 105.135 91.368, 104.846 91.013, 102.867 91.079 C 101.565 91.122, 99.938 91.385, 99.250 91.662 M 53.500 93.500 C 52.950 93.689, 50.250 94.165, 47.500 94.559 C 42.628 95.257, 42.577 95.299, 45.500 96.197 C 48.827 97.219, 85.597 96.192, 88 95.009 C 90.619 93.721, 57.133 92.256, 53.500 93.500 M 87 104.040 C 87 109.233, 89.697 114.443, 95.846 121.130 L 100.760 126.475 101.945 120.763 C 103.107 115.166, 103.070 114.962, 100.089 110.629 C 97.293 106.566, 89.704 100, 87.803 100 C 87.361 100, 87 101.818, 87 104.040 M 32.779 107.713 C 29.419 108.224, 28.009 112.453, 28.015 122 C 28.024 135.917, 35.984 144.984, 50.918 148.088 C 62.029 150.397, 78.472 147.262, 88.449 140.931 L 93.399 137.791 89.449 135.343 C 87.277 133.997, 80.015 130.174, 73.312 126.849 L 61.124 120.802 57.073 123.079 C 52.363 125.726, 50.702 125.011, 53.829 121.682 C 56.522 118.815, 56.530 118.372, 53.899 117.684 C 50.669 116.839, 52.687 114.772, 56.026 115.506 C 58.228 115.989, 59.099 115.683, 59.927 114.137 C 62.594 109.153, 57.726 106.934, 44.601 107.150 C 39.595 107.232, 34.276 107.486, 32.779 107.713 M 103.842 124.691 C 103.754 126.236, 103.747 128.278, 103.826 129.229 C 103.905 130.179, 102.843 132.617, 101.466 134.645 L 98.964 138.333 101.169 140.679 C 102.535 142.134, 103.729 142.671, 104.308 142.092 C 105.760 140.640, 106.487 123.419, 105.131 122.581 C 104.403 122.131, 103.944 122.882, 103.842 124.691 M 97 142.859 C 97 145.147, 88.331 153.178, 82.970 155.857 C 74.128 160.275, 67.175 160.696, 48.024 157.973 C 33.044 155.842, 31.944 155.806, 29.548 157.377 C 27.544 158.690, 27 159.872, 27 162.918 C 27 167.195, 30.516 179.583, 31.988 180.492 C 32.501 180.810, 34.762 179.736, 37.011 178.107 C 43.071 173.717, 53.232 169.817, 75 163.523 C 85.725 160.423, 95.838 157.106, 97.474 156.152 C 99.177 155.159, 101.056 152.821, 101.871 150.680 C 103.215 147.148, 103.165 146.805, 100.973 144.471 C 98.613 141.959, 97 141.305, 97 142.859" stroke="none" fill="black" fill-rule="evenodd"/>
</svg>