<svg xmlns="http://www.w3.org/2000/svg" width="200" height="200" viewBox="0 0 200 200" version="1.1">
	<path d="M 105.885 19.380 C 98.962 21.854, 92.657 27.843, 88.571 35.829 L 86.867 39.157 78.184 30.801 C 68.644 21.622, 64.216 19, 58.254 19 C 51.891 19, 48.165 25.182, 48.008 36 L 47.928 41.500 44.512 34.218 C 40.675 26.040, 37.847 22.048, 34.682 20.340 C 30.014 17.820, 27.016 23.190, 27.006 34.093 C 27.003 37.170, 26.075 42.345, 24.945 45.593 C 20.410 58.631, 17.877 71.406, 17.329 84 C 16.517 102.671, 19.427 112.713, 29.590 126.302 C 34.494 132.859, 35.484 136.521, 34.738 145.346 C 34.090 153.020, 31.456 160.045, 25.017 171.274 C 22.258 176.087, 20 180.469, 20 181.012 C 20 183.587, 23.307 181.225, 32.020 172.428 C 37.234 167.163, 44.051 160.625, 47.169 157.899 L 52.839 152.942 57.615 155.971 C 64.320 160.223, 67.386 159.993, 69.996 155.044 C 71.007 153.126, 71.141 147.542, 70.608 129.544 C 69.836 103.481, 70.734 93.670, 74.703 84.765 C 78.245 76.819, 79.628 75.861, 81.401 80.128 C 85.207 89.291, 86.759 125.920, 84.106 144 C 82.850 152.566, 82.878 154.069, 84.396 159.291 C 87.412 169.664, 95.558 176.215, 109.741 179.672 C 117.530 181.571, 141.665 182.023, 162.161 180.654 L 174.821 179.809 177.385 173.898 C 180.696 166.264, 183 157.302, 183 152.060 C 183 146.656, 179.619 143, 174.623 143 C 169.306 143, 156.355 150.208, 146.644 158.574 C 141.902 162.658, 137.638 166, 137.168 166 C 135.191 166, 122.032 155.815, 117.252 150.585 C 111.843 144.667, 110.201 140.321, 111.466 135.278 C 112.296 131.973, 119.497 124.835, 131.124 115.794 C 143.750 105.975, 151 94.022, 151 83.024 C 151 71.688, 139.856 65.843, 113.707 63.466 C 108.629 63.004, 106.043 62.364, 106.284 61.628 C 106.488 61.008, 111.119 58.491, 116.577 56.036 C 136.788 46.944, 147.710 49.960, 152.404 65.932 C 156.891 81.201, 151.477 106.692, 141.354 117.951 C 137.160 122.616, 131.170 125.841, 129.089 124.555 C 127.528 123.591, 126.892 125.651, 126.803 131.956 C 126.660 142.019, 131.618 146.564, 141.910 145.805 C 153.588 144.945, 168.088 134.652, 173.657 123.269 C 177.719 114.967, 178.035 105.429, 174.539 96.689 L 171.842 89.949 175.338 81.725 C 179.854 71.101, 180.988 66.744, 180.994 59.984 C 181.002 52.945, 178.527 48.236, 173.408 45.550 C 168.120 42.776, 152.783 42.326, 134.751 44.417 C 116.318 46.554, 117.835 46.936, 120.196 40.750 C 124.117 30.477, 122.712 22.515, 116.454 19.545 C 112.562 17.698, 110.672 17.669, 105.885 19.380 M 55.656 22.133 C 52.876 23.749, 51 29.250, 51 35.786 C 51 45.953, 55.760 58.218, 60.382 59.961 C 63.274 61.051, 67.587 58.699, 69.509 54.983 C 70.357 53.342, 71.415 52, 71.859 52 C 73.807 52, 73.790 53.494, 71.809 56.387 C 65.935 64.966, 59.338 65.286, 53.725 57.266 C 52.660 55.745, 52.035 55.256, 52.336 56.179 C 52.637 57.102, 53.171 59.397, 53.524 61.277 L 54.166 64.697 68.433 65.345 C 80.840 65.909, 94.835 67.676, 102.948 69.704 L 105.397 70.316 103.246 66.908 C 96.485 56.196, 88.600 46, 87.742 46.858 C 87.219 47.381, 86.549 51.677, 86.254 56.405 C 85.860 62.719, 85.357 65, 84.359 65 C 82.570 65, 82.589 57.663, 84.401 49.009 L 85.760 42.518 80.886 37.185 C 74.351 30.035, 68.344 25.090, 63.500 22.874 C 58.863 20.753, 58.147 20.685, 55.656 22.133 M 104.290 23.086 C 99.103 25.653, 93.414 31.811, 90.829 37.654 L 88.883 42.053 95.875 51.538 C 100.105 57.276, 103.146 60.572, 103.573 59.882 C 104.387 58.565, 119.577 51.277, 125.500 49.361 C 129.277 48.140, 129.069 48.101, 121.750 48.672 C 117.487 49.004, 114 49.033, 114 48.737 C 114 48.441, 115.114 45.794, 116.475 42.856 C 124.015 26.581, 117.753 16.421, 104.290 23.086 M 31.017 24.455 C 30.458 25.926, 30 29.612, 30 32.646 C 30 36.078, 28.686 42.498, 26.522 49.635 C 21.080 67.586, 19.713 76.586, 20.236 91 C 20.766 105.585, 22.605 111.533, 29.614 121.340 C 36.327 130.734, 37.953 134.666, 37.978 141.568 C 38.004 148.848, 35.987 156.065, 31.287 165.498 L 27.800 172.500 33.150 167.508 C 36.092 164.763, 41.754 159.382, 45.731 155.552 L 52.961 148.589 55.731 151.172 C 61.367 156.430, 66.369 157.516, 67.601 153.750 C 68.006 152.512, 68.149 144.300, 67.919 135.500 C 67.344 113.553, 67.723 99.663, 69.076 93.064 C 70.559 85.830, 74.807 77.173, 77.851 75.178 C 80.114 73.695, 80.369 73.738, 82.104 75.880 C 86.629 81.469, 88.384 97.230, 87.527 124.582 C 86.374 161.369, 86.289 159.035, 88.953 163.736 C 96.396 176.874, 116.464 180.985, 158.500 177.983 C 169.811 177.175, 172.746 176.652, 173.780 175.260 C 176.013 172.252, 180 158.080, 180 153.148 C 180 147.534, 178.770 146, 174.271 146 C 168.016 146, 159.260 151.490, 140.925 166.907 L 137.350 169.913 130.799 165.519 C 115.298 155.120, 107.220 144.849, 108.287 136.894 C 109.046 131.242, 112.592 127.152, 125.914 116.568 C 138.430 106.625, 143.939 99.877, 147.197 90.500 C 149.376 84.231, 149.398 82.641, 147.370 78.367 C 145.456 74.334, 139.672 70.721, 132.500 69.079 C 126.578 67.724, 106 65.149, 106 65.764 C 106 67.734, 111.154 72.503, 115.676 74.718 C 122.112 77.869, 127.703 83.902, 128.595 88.656 C 130.271 97.586, 122.639 107, 113.724 107 C 105.869 107, 103.043 97.318, 106.550 82.425 C 107.987 76.324, 108.086 74.671, 107.054 74.034 C 102.944 71.493, 77.967 68.022, 63.705 68.008 L 54.909 68 55.650 71.750 C 56.057 73.813, 56.382 79.581, 56.373 84.568 C 56.358 91.810, 55.919 94.528, 54.190 98.068 C 50.872 104.858, 44.701 112.461, 42.216 112.819 C 37.237 113.538, 37.036 104.133, 41.544 81.500 C 44.754 65.387, 46.739 59, 48.539 59 C 50.467 59, 50.449 58.863, 47.256 49 C 43.752 38.178, 37.158 25.091, 34.267 23.222 C 32.187 21.877, 31.965 21.961, 31.017 24.455 M 142 46.288 C 132.278 47.326, 131.870 47.453, 136.500 47.999 C 145.523 49.063, 151.069 53.668, 154.648 63.069 C 157.027 69.315, 157.004 88.193, 154.607 97 C 150.043 113.771, 140.104 127, 132.069 127 C 129.602 127, 128.501 130.527, 129.427 135.463 C 131.614 147.122, 150.565 145.150, 163.832 131.883 C 170.680 125.034, 173.364 119.274, 173.829 110.422 C 174.139 104.521, 173.756 102.230, 171.522 96.647 L 168.842 89.949 172.316 81.725 C 177.271 69.994, 178.204 66.584, 178.266 59.985 C 178.331 53.090, 176.683 50.027, 171.614 47.621 C 166.970 45.417, 155.138 44.885, 142 46.288 M 50.158 63 C 50.158 64.375, 50.385 64.938, 50.662 64.250 C 50.940 63.563, 50.940 62.438, 50.662 61.750 C 50.385 61.063, 50.158 61.625, 50.158 63 M 45.531 75.161 C 41.932 90.986, 39.910 110, 41.826 110 C 42.947 110, 46.049 106.378, 49.313 101.258 C 53.004 95.468, 54.390 88.226, 53.606 78.822 C 52.799 69.156, 52.358 68, 49.473 68 C 47.423 68, 46.975 68.813, 45.531 75.161 M 110.015 79.250 C 108.214 84.204, 107.515 98.225, 108.935 100.879 C 113.776 109.924, 128.282 99.228, 125.610 88.584 C 124.719 85.033, 120.307 80.197, 115.914 77.956 C 113.805 76.880, 111.881 76, 111.638 76 C 111.395 76, 110.664 77.463, 110.015 79.250" stroke="none" fill="black" fill-rule="evenodd"/>
</svg>