<svg xmlns="http://www.w3.org/2000/svg" width="200" height="200" viewBox="0 0 200 200" version="1.1">
	<path d="M 122 18.301 C 115.125 23.846, 106.013 31.842, 101.750 36.070 C 92.746 45.001, 91.821 48.159, 96.834 52.849 C 100.892 56.646, 102.006 59.220, 101.955 64.684 C 101.903 70.386, 102.709 71.210, 91.011 53.500 C 83.933 42.785, 75.742 31.972, 64.893 19.023 L 61.286 14.717 58.638 20.128 C 54.646 28.288, 53.304 35.935, 54.842 41.752 C 57.118 50.354, 63.484 56.339, 80.638 66 C 86.009 69.025, 92.616 73.153, 95.322 75.173 C 98.027 77.192, 100.803 78.629, 101.491 78.365 C 102.179 78.101, 103.005 78.569, 103.325 79.406 C 103.756 80.528, 102.993 81.098, 100.410 81.583 C 97.864 82.060, 94.129 81.369, 86.705 79.047 C 76.738 75.929, 54.971 65.933, 53.171 63.648 C 52.674 63.016, 50.620 57.510, 48.605 51.412 C 44.522 39.052, 39.147 27.190, 36.718 25.178 C 34.008 22.934, 29.800 24.150, 27.276 27.907 C 22.263 35.371, 15.271 65.062, 19.530 60.803 C 19.822 60.512, 21.179 55.599, 22.547 49.887 C 25.493 37.581, 28.446 29.812, 31.084 27.424 C 32.891 25.788, 33.107 25.787, 34.887 27.398 C 38.227 30.420, 49.767 59.408, 48.052 60.468 C 46.161 61.637, 41 98.369, 41 110.662 C 41 118.169, 41.622 120, 44.172 120 C 46.622 120, 51.139 110.471, 56.561 93.864 L 60.360 82.228 57.680 76.048 C 56.206 72.649, 55 69.512, 55 69.077 C 55 68.642, 59.213 70.398, 64.362 72.981 C 69.511 75.563, 77.826 78.987, 82.838 80.588 C 87.851 82.190, 91.963 83.726, 91.976 84.002 C 91.989 84.278, 89.987 85.571, 87.527 86.876 C 81.529 90.058, 73.445 98.786, 70.463 105.299 C 66.775 113.356, 65.419 124.094, 66.830 134.072 C 67.931 141.859, 68.210 142.488, 71.997 145.729 C 74.452 147.830, 76 150.020, 76 151.391 C 76 156.557, 64.191 163.295, 47.921 167.413 C 37.102 170.151, 26 171.981, 26 171.026 C 26 170.668, 27.312 169.118, 28.915 167.582 C 30.517 166.046, 33.168 162.024, 34.804 158.645 C 41.365 145.096, 40.031 136.888, 27.121 111.360 C 15.161 87.712, 13.764 81.053, 18.396 69.789 C 20.589 64.458, 20.709 63, 18.956 63 C 17.692 63, 13.907 72.989, 13.332 77.844 C 12.445 85.338, 15.293 94.098, 24.501 112.194 C 36.137 135.060, 37.926 142.738, 34.158 153.641 C 31.944 160.046, 25.594 168.511, 21.835 170.068 C 18.895 171.286, 18.075 173.446, 20.250 174.246 C 25.129 176.041, 53.678 169.609, 65.500 164.051 C 75.194 159.494, 78.400 156.329, 78.400 151.315 C 78.400 148.350, 77.699 147.079, 74.572 144.376 C 70.258 140.646, 69.116 136.843, 69.044 125.960 C 68.929 108.719, 76.998 95.009, 91.364 88.034 C 96.397 85.591, 98.278 85.165, 101.829 85.670 C 106.196 86.290, 106.535 86.651, 108.412 92.682 C 109.059 94.760, 108.919 94.817, 105.480 93.867 C 95.050 90.987, 83.585 99.625, 75.486 116.463 C 73.569 120.449, 72 124.176, 72 124.747 C 72 125.317, 73.159 126.074, 74.577 126.430 C 78.298 127.364, 85.709 123.660, 99.211 114.119 C 105.530 109.654, 111.058 106, 111.495 106 C 111.932 106, 112.020 109.216, 111.691 113.146 C 110.655 125.498, 105.461 133.295, 94.334 139.198 C 86.941 143.119, 89.134 144.962, 101.222 144.986 L 107.944 145 109.571 150.596 C 111.086 155.809, 111.081 156.500, 109.490 160.666 C 108.290 163.806, 106.399 166.145, 103.141 168.514 C 98.651 171.780, 85.102 177, 81.117 177 C 78.103 177, 76 178.072, 76 179.607 C 76 180.754, 79.758 181.002, 97.250 181.011 C 113.562 181.019, 119.662 181.381, 123.500 182.566 C 130.728 184.799, 144.666 185.523, 152.136 184.053 C 166.296 181.267, 177 174.768, 177 168.957 C 177 162.556, 167.425 162.521, 150.734 168.859 C 144.340 171.288, 140.125 172.399, 139.500 171.820 C 138.950 171.311, 138.507 168.101, 138.516 164.685 C 138.528 159.791, 139.092 157.518, 141.181 153.954 C 144.368 148.515, 151.250 141.928, 159.808 136.124 C 170.614 128.796, 167.254 126.806, 148.285 129.298 L 138.070 130.640 137 127.570 C 135.209 122.432, 128.384 111.643, 123.456 106.162 L 118.797 100.980 124.410 98.497 C 144.164 89.761, 157.880 98.154, 168.535 125.500 C 169.230 127.285, 169.392 127.178, 170.039 124.500 C 171.581 118.115, 171.043 103.692, 169.104 99.421 C 165.123 90.656, 159.417 88.681, 131.718 86.482 C 120.837 85.618, 110.937 84.527, 109.718 84.056 C 107.686 83.272, 107.652 83.139, 109.316 82.468 C 112.378 81.233, 135.087 82.654, 142.391 84.537 C 148.981 86.236, 149.679 86.237, 158.391 84.552 C 176.635 81.024, 184.665 77.032, 179.298 74.159 C 178.295 73.623, 170.731 72.228, 162.487 71.059 C 147.004 68.865, 138.923 66.817, 137.105 64.627 C 134.427 61.399, 143.457 55.065, 154.290 52.573 C 162.917 50.587, 167.224 48.400, 166.803 46.217 C 166.610 45.213, 163.698 43.427, 159.491 41.730 C 141.700 34.555, 139.395 33.395, 135.804 29.804 C 132.632 26.632, 132 25.317, 132 21.886 C 132 19.506, 132.923 16.130, 134.190 13.876 C 138.243 6.665, 134.940 7.863, 122 18.301 M 120.937 22.671 C 109.564 31.854, 99.142 41.824, 97.404 45.186 C 96.001 47.899, 96.092 48.144, 100.098 52.491 C 104.752 57.540, 106 62.720, 104.163 69.372 C 103.324 72.409, 103.437 73.849, 104.724 76.548 L 106.334 79.924 115.494 79.323 C 124.157 78.754, 141.313 80.700, 147.365 82.939 C 150.082 83.944, 178.946 77.613, 177.633 76.300 C 177.401 76.068, 169.680 74.800, 160.474 73.482 C 141.021 70.696, 134.712 68.347, 134.178 63.690 C 134.001 62.144, 134.451 60.157, 135.178 59.274 C 138.038 55.802, 146.836 51.310, 154 49.663 C 164.526 47.243, 165.186 46.603, 159.358 44.470 C 134.851 35.500, 127.952 29.853, 129.292 19.861 C 129.577 17.737, 129.672 16, 129.505 16 C 129.337 16, 125.482 19.002, 120.937 22.671 M 59.571 24.250 C 56.720 31.246, 56.388 39.887, 58.791 44.553 C 62.195 51.161, 67.005 55.043, 83.500 64.497 C 89 67.649, 94.963 71.325, 96.750 72.665 C 101.008 75.858, 100.851 74.303, 96.094 66.174 C 89.129 54.272, 63.843 20.152, 61.902 20.036 C 61.573 20.016, 60.524 21.913, 59.571 24.250 M 48.133 71.250 C 45.756 85.112, 44.004 101.551, 44.079 109.301 L 44.158 117.500 46.572 112.500 C 47.900 109.750, 50.853 101.873, 53.134 94.995 L 57.280 82.491 53.890 73.771 C 52.026 68.975, 50.209 65.039, 49.853 65.025 C 49.497 65.011, 48.723 67.813, 48.133 71.250 M 110.387 89.407 C 111.521 93.923, 112.766 96.561, 114.407 97.923 C 115.781 99.063, 116.917 98.861, 122.029 96.568 C 136.619 90.020, 146.983 91.088, 156.537 100.123 C 159.440 102.869, 163.087 107.545, 164.642 110.514 C 168.020 116.966, 169.569 115.821, 168.468 107.687 C 167.265 98.806, 163.581 94.118, 156.134 91.993 C 154.135 91.423, 143.950 90.292, 133.500 89.481 C 123.050 88.670, 113.433 87.758, 112.129 87.454 C 110.012 86.960, 109.826 87.170, 110.387 89.407 M 94.444 97.886 C 89.258 100.242, 82.973 107.589, 78.521 116.500 C 74.514 124.521, 75.156 125.477, 82.175 121.934 C 85.695 120.156, 107.157 105.682, 110.349 102.933 C 111.958 101.547, 109.912 98.165, 106.810 97.084 C 102.414 95.551, 99.113 95.765, 94.444 97.886 M 114.858 103.250 C 114.781 103.388, 114.608 106.714, 114.474 110.643 C 114.038 123.512, 109.754 131.971, 100.255 138.725 L 95.648 142 100.574 142.014 C 108.128 142.035, 109.691 142.769, 111.431 147.119 C 116.312 159.318, 110.336 169.973, 95.303 175.878 L 90.624 177.716 105.562 178.254 C 114.386 178.571, 123.365 179.489, 127.500 180.496 C 136.876 182.779, 151.957 182.094, 160.834 178.981 C 167.432 176.667, 175.757 170.034, 174.538 168.062 C 172.768 165.198, 157.409 168.391, 143.613 174.493 L 138.043 176.956 136.440 171.441 C 132.838 159.051, 138.096 148.881, 154.337 136.820 L 162.173 131 158.337 131.066 C 156.226 131.102, 150.503 131.698, 145.617 132.390 L 136.735 133.649 134.339 128.233 C 129.123 116.438, 116.533 100.292, 114.858 103.250" stroke="none" fill="black" fill-rule="evenodd"/>
</svg>