<svg xmlns="http://www.w3.org/2000/svg" width="200" height="200" viewBox="0 0 200 200" version="1.1">
	<path d="M 67.597 18.139 C 53.865 19.901, 44.895 22.990, 39.868 27.688 C 37.387 30.007, 36.185 30.216, 18.949 31.324 C 6.080 32.152, 0.539 32.870, 0.248 33.750 C -0.265 35.297, 2.710 35.324, 21.984 33.942 C 32.360 33.198, 36.571 33.212, 36.830 33.989 C 37.873 37.118, 43.167 41.655, 48.707 44.167 C 52.144 45.725, 55.354 47, 55.839 47 C 56.329 47, 56.265 45, 55.695 42.512 C 54.943 39.225, 54.990 37.318, 55.868 35.389 C 56.963 32.987, 57.425 32.812, 61.123 33.404 C 63.353 33.760, 67.188 35.073, 69.644 36.322 L 74.110 38.592 68.953 42.046 C 62.560 46.327, 63.284 45.930, 52.681 50.972 C 46.443 53.938, 41.890 57.026, 37.122 61.523 C 25.769 72.233, 21.452 82.927, 22.236 98.394 C 22.814 109.809, 25.638 117.543, 31.436 123.594 C 36.553 128.935, 41.141 129.586, 45.182 125.545 C 48.738 121.990, 49.965 117.132, 51.007 102.500 C 53.018 74.236, 55.658 63.342, 62.041 56.959 C 64.969 54.031, 70.057 54.392, 73.199 57.750 C 78.354 63.260, 80.166 68.959, 80.111 79.493 C 80.019 96.968, 70.481 112.623, 53.067 123.878 L 47.144 127.707 48.959 130.692 C 51.786 135.342, 55.800 138, 59.991 138 C 70.595 138, 81.711 121.649, 104.350 72.750 C 109.874 60.817, 112.030 59.823, 111.940 69.250 C 111.857 77.956, 110.816 82.579, 105.576 97.500 C 103.065 104.650, 100.722 112.657, 100.371 115.293 C 99.804 119.539, 99.348 120.245, 96.377 121.487 C 91.907 123.354, 80.356 130.878, 70.866 138.102 L 63.165 143.965 54.877 142.925 C 50.319 142.354, 45.527 142.153, 44.228 142.479 C 39.050 143.779, 42.415 146.379, 59.349 154.164 C 77.352 162.441, 83.307 166.169, 82.792 168.843 C 81.931 173.310, 60.542 175.486, 25.250 174.696 C 4.688 174.236, 0 174.377, 0 175.454 C 0 179.593, 55.727 182.963, 124.566 182.987 C 161.938 182.999, 171.642 182.427, 178.288 179.820 C 185.542 176.974, 177.013 175.389, 153 175.122 C 132.942 174.900, 116.509 172.523, 113.983 169.480 C 111.998 167.087, 117.110 162.946, 129.458 156.942 C 141.517 151.079, 141.796 151, 150.371 151 C 157.418 151, 159.179 150.697, 159.677 149.399 C 160.534 147.167, 159.233 146.530, 144.500 141.963 C 126.236 136.302, 117.665 132.935, 118.752 131.848 C 120.660 129.940, 138.836 128.921, 165.908 129.205 C 181.360 129.367, 194.001 129.249, 194.001 128.941 C 194 128.634, 192.420 125.709, 190.488 122.441 C 184.301 111.975, 176.107 105.973, 164.912 103.708 L 158.887 102.488 171.943 90.168 C 179.125 83.391, 185 77.514, 185 77.108 C 185 76.701, 182.460 75.315, 179.355 74.028 C 176.250 72.742, 171.750 69.811, 169.355 67.516 C 163.628 62.028, 163.443 57.967, 168.537 49.509 C 174.074 40.314, 172.418 38.950, 158.715 41.419 C 153.647 42.332, 141.919 44.893, 132.653 47.110 C 123.387 49.326, 115.640 50.973, 115.437 50.771 C 115.234 50.568, 116.178 48.210, 117.534 45.531 C 120.507 39.659, 120.668 34.717, 118.045 29.823 L 116.090 26.175 121.295 25.515 C 124.158 25.152, 127.287 24.633, 128.250 24.360 C 129.470 24.015, 130 24.432, 130 25.736 C 130 28.671, 135.814 33.538, 143.972 37.433 C 148.081 39.395, 152.019 41, 152.722 41 C 154.277 41, 154.450 34.056, 153.020 29.069 C 151.749 24.637, 147.599 20.361, 143.085 18.832 C 137.729 17.018, 126.369 17.503, 117.548 19.923 C 110.247 21.926, 109.417 21.968, 105.112 20.552 C 95.074 17.250, 81.383 16.370, 67.597 18.139 M 65.500 21.046 C 57.278 22.318, 47.112 25.540, 43.500 28.019 L 40.500 30.078 46.500 29.522 C 49.800 29.216, 63.727 28.046, 77.449 26.921 C 91.171 25.797, 103.034 24.521, 103.812 24.086 C 108.344 21.549, 77.874 19.132, 65.500 21.046 M 126 21 L 122.500 21.737 126 21.750 C 127.925 21.757, 130.850 21.420, 132.500 21 L 135.500 20.237 132.500 20.250 C 130.850 20.257, 127.925 20.595, 126 21 M 118.750 22.662 C 119.438 22.940, 120.563 22.940, 121.250 22.662 C 121.938 22.385, 121.375 22.158, 120 22.158 C 118.625 22.158, 118.063 22.385, 118.750 22.662 M 137.607 22.868 C 136.016 23.216, 134.216 24.316, 133.607 25.313 C 132.701 26.795, 132.954 27.498, 134.997 29.173 C 137.905 31.557, 148.408 37, 150.102 37 C 152.418 37, 150.440 28.068, 147.427 24.924 C 144.631 22.005, 143.064 21.677, 137.607 22.868 M 93.907 31.384 C 78.033 38.471, 77.995 37.064, 94.353 48.022 C 104.901 55.089, 109.176 57.423, 111.159 57.198 C 113.376 56.947, 113.923 57.373, 114.447 59.761 C 114.947 62.036, 118.001 64.700, 129.288 72.710 C 145.333 84.094, 154.222 89.570, 158.250 90.548 C 160.599 91.119, 161 90.906, 161 89.086 C 161 86.995, 153.461 71, 152.475 71 C 152.199 71, 151.090 71.551, 150.011 72.225 C 148.453 73.198, 147.788 73.187, 146.775 72.171 C 144.059 69.448, 146.639 50, 149.716 50 C 150.825 50, 151.050 50.606, 150.551 52.250 C 149.146 56.885, 147.638 68.972, 148.373 69.707 C 148.793 70.127, 149.936 69.411, 150.913 68.115 L 152.689 65.761 154.751 69.130 C 158.559 75.353, 162.994 84.719, 163.624 87.870 C 164.017 89.834, 163.759 91.586, 162.931 92.584 C 160.051 96.053, 151.418 91.815, 129.500 76.175 L 115.500 66.184 114.644 74.342 C 114.093 79.600, 112.432 86.150, 109.972 92.768 C 106.605 101.823, 104.169 110.444, 102.498 119.212 C 102.089 121.355, 100.633 122.595, 95.557 125.121 C 92.024 126.880, 83.360 132.453, 76.303 137.507 L 63.473 146.695 56.090 145.813 C 52.029 145.328, 48.271 145.076, 47.738 145.254 C 47.206 145.431, 52.723 148.224, 59.998 151.461 C 76.266 158.699, 84.706 163.980, 85.582 167.472 C 87.198 173.910, 79.665 175.917, 45.500 178.151 C 35.318 178.816, 77.899 179.759, 119 179.778 C 170.687 179.802, 186.444 178.785, 151 177.712 C 120.940 176.802, 111 174.405, 111 168.066 C 111 163.444, 116.040 159.856, 133.867 151.787 C 140.230 148.907, 143.583 147.984, 147.867 147.934 C 153.413 147.868, 153.235 147.780, 136.274 142.184 C 125.049 138.480, 118.255 135.695, 116.774 134.189 L 114.500 131.878 116.764 130.017 C 120.164 127.223, 129.294 126.500, 161.159 126.500 L 189.818 126.500 188.159 123.638 C 182.503 113.883, 173.188 107.574, 162.473 106.241 C 153.210 105.089, 153.724 103.586, 167.971 90.178 C 174.587 83.951, 180 78.493, 180 78.050 C 180 77.606, 178.632 76.676, 176.959 75.983 C 172.134 73.984, 166.105 69.221, 163.971 65.720 C 161.071 60.965, 161.492 56.601, 165.549 49.346 L 169.098 43 166.491 43 C 162.915 43, 146.908 46.373, 126.007 51.530 C 116.385 53.904, 108.381 55.714, 108.219 55.552 C 108.056 55.390, 109.815 52.516, 112.126 49.167 C 117.436 41.472, 118.525 34.183, 115.026 29.750 C 111.724 25.567, 105.935 26.015, 93.907 31.384 M 78.500 29.653 C 76.850 29.848, 73.101 30.267, 70.170 30.586 L 64.839 31.164 70.837 34 L 76.835 36.837 84.167 32.945 L 91.500 29.053 86.500 29.176 C 83.750 29.244, 80.150 29.459, 78.500 29.653 M 41.750 32.689 C 40.788 32.941, 40.007 33.451, 40.015 33.823 C 40.061 35.828, 44.501 39.476, 49.377 41.513 L 53.181 43.103 52.549 40.225 C 52.202 38.642, 52.375 36.144, 52.934 34.674 L 53.950 32 48.725 32.116 C 45.851 32.180, 42.712 32.438, 41.750 32.689 M 0.186 38.673 C 0.359 39.538, 2.400 40.987, 4.722 41.894 C 7.045 42.801, 9.520 44.323, 10.222 45.277 C 11.679 47.254, 29.776 54, 33.624 54 C 38.055 54, 35.704 51.653, 27.925 48.309 C 9.748 40.497, -0.135 37.064, 0.186 38.673 M 73.703 41.777 C 71.896 42.890, 71.066 44.115, 71.357 45.238 C 71.703 46.575, 70.851 47.219, 67.653 48.036 C 51.910 52.056, 36.943 62.297, 30.519 73.445 C 22.290 87.727, 23.038 109.312, 32.145 120.360 C 40.792 130.850, 46.539 125.526, 48.156 105.531 C 51.033 69.947, 52.503 63.641, 59.665 56.166 C 63.662 51.995, 64.171 51.760, 68.071 52.283 C 82.701 54.245, 87.870 81.537, 77.490 102.019 C 72.960 110.960, 61.670 122.509, 52.121 127.972 C 49.608 129.410, 55.846 135.333, 59.873 135.333 C 65.778 135.333, 73.934 126.390, 83.143 109.821 C 89.629 98.149, 107.018 60.838, 106.421 59.873 C 105.846 58.942, 77.674 39.981, 76.934 40.027 C 76.695 40.041, 75.242 40.829, 73.703 41.777" stroke="none" fill="black" fill-rule="evenodd"/>
</svg>