<svg xmlns="http://www.w3.org/2000/svg" width="200" height="200" viewBox="0 0 200 200" version="1.1">
	<path d="M 88.559 15.935 C 87.253 17.378, 86.578 20.744, 85.901 29.185 C 84.173 50.730, 82.524 55.659, 75.614 59.929 C 67.946 64.669, 60.705 60.424, 57.293 49.190 C 55.490 43.257, 54.850 26.810, 56.230 21.904 C 56.893 19.550, 56.612 19.201, 53.230 18.171 C 45.191 15.722, 40.478 16.322, 36.497 20.303 C 31.572 25.228, 30.033 31.778, 29.093 51.809 C 28.233 70.162, 27.585 72.471, 23.934 70.191 C 20.174 67.843, 20.055 70.055, 23.687 74.787 C 31.161 84.526, 33.299 93.381, 30.661 103.678 C 29.800 107.040, 26.745 115.350, 23.873 122.145 C 19.456 132.593, 18.639 135.503, 18.575 141 C 18.474 149.714, 21.027 154.367, 26.146 154.801 C 33.458 155.422, 55.600 141.417, 68.081 128.278 C 72.678 123.439, 75 120.192, 75 118.604 C 75 114.266, 70.538 113.916, 60.175 117.440 C 56.229 118.783, 53 119.423, 53 118.864 C 53 114.973, 57.436 89.256, 59.047 83.801 C 62.449 72.288, 63.562 73.088, 71.086 92.453 C 73.873 99.629, 76.518 105.876, 76.962 106.335 C 77.406 106.794, 80.859 105.147, 84.635 102.676 C 88.411 100.205, 92.513 97.887, 93.751 97.524 C 95.816 96.919, 95.922 97.074, 95.039 99.398 C 93.557 103.294, 90.450 109.245, 81.931 124.500 C 72.914 140.646, 69.157 150.723, 70.623 154.827 C 71.775 158.051, 69.898 158.067, 99.500 154.577 C 131.437 150.812, 144.865 147.893, 144.204 144.859 C 143.415 141.235, 134.559 124.845, 131.387 121.140 C 121.836 109.981, 115.235 111.846, 104.288 128.795 C 101.341 133.357, 98.234 137.357, 97.382 137.684 C 96.521 138.014, 94.984 137.428, 93.921 136.365 C 92.037 134.482, 92.049 134.392, 94.689 130.476 C 96.163 128.289, 101.482 121.547, 106.509 115.493 C 126.033 91.978, 132.906 81.039, 133.764 72.108 C 134.142 68.169, 133.820 66.905, 131.860 64.642 C 130.562 63.144, 127.700 61.285, 125.500 60.511 C 121.706 59.177, 121.423 59.218, 120 61.302 C 113.297 71.123, 101.822 78.382, 93.897 77.815 C 89.964 77.533, 89.467 77.217, 89.190 74.816 C 88.538 69.174, 95.702 60.403, 111.032 48.072 L 120.853 40.172 114.989 35.072 C 108.250 29.210, 106.834 26.349, 109.627 24.236 C 113.541 21.277, 137.343 26.088, 143.156 31.013 C 145.391 32.906, 145.415 33.064, 143.691 34.403 C 142.696 35.175, 139.303 36.261, 136.152 36.816 C 130.103 37.882, 119.873 42.243, 117.930 44.585 C 115.630 47.356, 117.648 48.807, 124.685 49.444 C 147.569 51.514, 155.969 54.289, 158.631 60.658 C 160.761 65.756, 159.788 70.852, 154.986 79.760 C 151.132 86.909, 151.088 87.109, 152.148 92.760 C 153.776 101.434, 152.631 125.835, 150.160 135.154 C 146.071 150.576, 139.597 159, 131.833 159 C 129.408 159, 126.340 158.137, 124.315 156.886 C 122.434 155.723, 120.712 154.955, 120.489 155.178 C 119.468 156.198, 127.880 170.802, 132.230 175.561 C 143.019 187.366, 155.070 186.061, 165.449 171.962 C 175.315 158.560, 179.052 143.394, 178.256 119.987 C 177.879 108.909, 178.293 100.745, 180.004 85.487 C 182.856 60.056, 182.471 51.381, 178.106 42.688 C 172.586 31.696, 171.871 31.220, 155.202 27.453 C 147.116 25.625, 131.275 21.853, 120 19.071 C 97.438 13.503, 91.313 12.892, 88.559 15.935 M 91.750 16.729 C 90.787 16.959, 89.978 17.226, 89.952 17.323 C 89.925 17.420, 89.284 23.803, 88.527 31.507 C 86.393 53.227, 85.066 56.622, 76.413 62.494 C 69.056 67.487, 61.565 64.560, 56.737 54.808 C 53.065 47.389, 51.254 35.209, 52.607 27.028 L 53.609 20.972 49.721 19.925 C 44.489 18.516, 40.562 19.543, 37.565 23.105 C 33.796 27.584, 32.952 31.894, 32.024 51.396 C 31.303 66.558, 30.883 69.679, 29.275 71.834 C 27.379 74.373, 27.382 74.386, 30.855 81.156 C 33.889 87.069, 34.333 88.866, 34.330 95.218 C 34.327 103.499, 33.657 105.906, 26.787 122.339 C 21.150 135.820, 19.981 142.626, 22.334 148.257 C 24.253 152.849, 27.005 153.142, 34.677 149.570 C 48.494 143.137, 72 123.676, 72 118.670 C 72 117.167, 63.674 118.710, 56.873 121.474 C 53.458 122.861, 50.432 123.765, 50.149 123.483 C 49.294 122.628, 53.975 91.552, 56.131 83.768 C 58.297 75.949, 60.225 73, 63.170 73 C 65.688 73, 68.161 77.332, 73.587 91.250 C 76.107 97.712, 78.347 103, 78.565 103 C 78.783 103, 81.435 101.418, 84.458 99.484 C 91.209 95.165, 94.490 93.867, 96.603 94.678 C 99.746 95.884, 97.415 102.407, 87.329 120.627 C 75.353 142.261, 74.107 144.938, 73.309 150.760 L 72.685 155.313 76.093 154.615 C 77.967 154.231, 89.188 152.825, 101.029 151.491 C 124.625 148.833, 141 145.834, 141 144.171 C 141 141.645, 131.673 125.616, 127.964 121.768 C 120.064 113.572, 116.815 114.916, 106.138 130.795 C 98.721 141.825, 96.256 143.090, 91.830 138.135 C 90.273 136.394, 89.012 134.638, 89.027 134.234 C 89.068 133.119, 96.200 123.766, 109.609 107.244 C 124.797 88.530, 130.196 79.687, 130.787 72.554 C 131.182 67.787, 130.976 67.126, 128.476 65.160 C 126.966 63.972, 125.105 63, 124.340 63 C 123.576 63, 120.369 65.638, 117.214 68.862 C 107.686 78.600, 94.518 83.535, 88.531 79.613 C 81.007 74.682, 89.746 61.457, 112.475 43.379 L 116.399 40.259 111.246 35.240 C 105.314 29.462, 103.911 25.860, 106.485 23.016 C 107.433 21.969, 109.399 20.969, 110.854 20.793 C 112.702 20.570, 111.388 19.969, 106.500 18.802 C 97.809 16.727, 94.002 16.192, 91.750 16.729 M 146 30 C 147.100 31.100, 148 32.682, 148 33.515 C 148 35.717, 142.510 38.708, 137.147 39.427 C 131.834 40.139, 120.826 44.909, 121.601 46.164 C 121.885 46.624, 124.084 47, 126.487 47 C 134.018 47, 146.313 49.072, 151 51.130 C 156.682 53.626, 160.645 57.395, 162.043 61.631 C 163.461 65.927, 161.301 74.705, 157.055 81.907 C 154.025 87.046, 154.007 87.160, 155.123 94.297 C 156.661 104.129, 155.633 124.411, 153.074 134.747 C 150.511 145.096, 146.191 153.747, 141.550 157.822 C 137.395 161.470, 134.269 162.468, 129.446 161.685 C 127.551 161.377, 126 161.331, 126 161.583 C 126 161.834, 127.177 163.943, 128.616 166.270 C 131.940 171.644, 137.715 177.753, 141.200 179.582 C 150.132 184.271, 161.019 177.057, 168.538 161.468 C 174.562 148.979, 175.508 143.677, 175.192 124.171 C 174.987 111.556, 175.496 101.491, 177.062 87.171 C 179.777 62.358, 179.456 51.692, 175.767 44 C 171.250 34.581, 169.764 33.539, 156.672 30.602 C 150.293 29.171, 144.832 28, 144.537 28 C 144.241 28, 144.900 28.900, 146 30" stroke="none" fill="black" fill-rule="evenodd"/>
</svg>