<svg xmlns="http://www.w3.org/2000/svg" width="200" height="200" viewBox="0 0 200 200" version="1.1">
	<path d="M 30.774 5.559 C 30.467 5.867, 31.742 8.387, 33.607 11.160 C 36.968 16.154, 37.515 18.331, 37.052 24.886 C 36.693 29.968, 34.077 35.295, 25.643 48.121 C 17.865 59.949, 16.261 63.918, 17.409 68.494 C 18.322 72.133, 27 77.137, 27 74.026 C 27 73.490, 25.663 72.360, 24.030 71.515 C 17.237 68.003, 17.894 64.965, 29.193 47.636 C 36.913 35.795, 40 28.899, 40 23.489 C 40 21.570, 40.272 20, 40.603 20 C 40.935 20, 44.809 23.004, 49.211 26.676 L 57.216 33.353 56.571 37.426 C 55.037 47.108, 54.794 53.747, 55.898 55.810 C 56.918 57.716, 56.743 58.026, 54.302 58.639 C 49.672 59.801, 45.018 63.081, 44.377 65.633 C 44.040 66.975, 44.937 72.725, 46.384 78.499 C 51.101 97.324, 49.300 105.528, 39.099 111.679 L 33.827 114.857 37.664 117.368 C 43.097 120.924, 46.203 121.464, 49.980 119.510 C 57.241 115.756, 61.181 97.326, 59.018 77.235 C 58.398 71.482, 58.150 66.516, 58.467 66.200 C 59.077 65.590, 72.666 70.847, 79.647 74.393 L 83.794 76.500 80.973 85.500 C 79.421 90.450, 76.724 99, 74.979 104.500 C 70.887 117.399, 69.873 130.761, 72.471 137.563 C 73.430 140.073, 75.800 144.205, 77.739 146.745 L 81.264 151.363 77.325 155.038 C 72.272 159.751, 65.277 162.324, 48.779 165.536 C 41.475 166.957, 34.638 168.372, 33.585 168.680 C 32.118 169.109, 32.498 168.217, 35.210 164.870 C 40.535 158.298, 42.377 154.089, 42.373 148.500 C 42.369 142.305, 40.406 138.447, 30.926 126 C 26.946 120.775, 23.015 114.925, 22.189 113 C 19.983 107.852, 20.238 98.429, 22.736 92.827 C 24.671 88.487, 24.727 87, 22.956 87 C 22.566 87, 21.246 89.326, 20.022 92.170 C 18.240 96.312, 17.872 98.746, 18.171 104.420 C 18.625 113.063, 20.787 117.769, 29.002 128 C 36.042 136.768, 40.009 144.158, 39.978 148.446 C 39.923 156.057, 32.449 165.889, 20.965 173.454 C 13.573 178.324, 12.282 179.682, 13.697 181.097 C 14.261 181.661, 16.542 180.634, 19.560 178.458 C 26.728 173.289, 29.609 172.291, 48.113 168.563 C 68.061 164.545, 75.512 161.506, 81.159 155.085 C 85.102 150.603, 85.179 150.568, 84.612 153.500 C 84.293 155.150, 83.737 160.800, 83.377 166.056 C 82.829 174.037, 83.011 176.221, 84.480 179.316 C 87.649 185.995, 92.632 185.648, 110.106 177.532 C 129.573 168.491, 135.505 168.080, 143.734 175.203 C 153.568 183.714, 163.294 186.148, 168.834 181.486 C 174.296 176.890, 175.132 172.349, 176.013 142.500 C 176.767 116.973, 177.505 110.792, 180.212 107.317 C 182.131 104.854, 173.821 98.715, 156.189 89.568 C 137.085 79.658, 136.938 80.223, 161.786 68.058 C 186.401 56.008, 186.510 55.500, 164.486 55.500 C 146.723 55.500, 143.287 54.520, 140.908 48.779 C 138.624 43.264, 142.212 26.697, 146.652 22.258 C 149.929 18.980, 148.481 17.714, 143.487 19.493 C 140.995 20.380, 135.374 20.926, 128.500 20.948 C 109.317 21.010, 88.709 17.974, 53.954 9.965 C 30.431 4.545, 31.572 4.762, 30.774 5.559 M 37.579 12.250 C 39.121 15.488, 39.151 15.499, 45.642 15.161 C 56.944 14.573, 60.948 17.960, 61.056 28.200 C 61.112 33.431, 61.190 33.565, 67.104 38.500 C 70.399 41.250, 73.636 43.455, 74.298 43.400 C 74.959 43.346, 79.922 40.097, 85.326 36.180 C 90.730 32.264, 97.692 27.606, 100.797 25.830 L 106.442 22.600 97.471 21.316 C 84.054 19.395, 68.199 16.291, 52.136 12.442 C 44.236 10.549, 37.381 9, 36.903 9 C 36.424 9, 36.729 10.462, 37.579 12.250 M 44.259 17.659 C 43.540 17.950, 46.066 20.656, 50.259 24.089 C 57.414 29.946, 57.504 29.986, 57.828 27.388 C 58.420 22.648, 57.112 19.945, 53.497 18.434 C 50.070 17.002, 46.604 16.712, 44.259 17.659 M 105.431 26.473 C 101.619 28.409, 93.358 33.662, 87.074 38.147 L 75.649 46.301 78.574 48.716 C 83.707 52.954, 103.840 73.309, 108.248 78.718 C 112.160 83.519, 116.072 85.363, 115.084 81.941 C 110.464 65.933, 110.151 61.196, 112.658 45.128 C 114.617 32.575, 114.926 23.839, 113.431 23.323 C 112.842 23.120, 109.242 24.538, 105.431 26.473 M 128.250 23.746 C 118.135 24.066, 118 24.102, 118 26.513 C 118 27.857, 117.055 34.704, 115.900 41.728 C 113.342 57.291, 113.676 69.710, 116.876 78 C 119.478 84.740, 119.477 84.714, 116.936 85.520 C 113.188 86.710, 116.809 89.768, 131.004 97.401 C 142.447 103.554, 144.667 104.433, 145.598 103.176 C 148.275 99.564, 148.731 103.764, 149.239 136.722 C 149.526 155.300, 149.926 171.175, 150.130 172 C 150.399 173.089, 149.828 173.405, 148.047 173.153 C 145.932 172.853, 145.771 173.019, 146.879 174.354 C 149.066 176.989, 158.205 181, 162.022 181 C 166.062 181, 169.066 178.508, 171.063 173.500 C 171.798 171.657, 172.570 160.392, 173.065 144.279 C 173.633 125.773, 174.342 116.213, 175.476 111.787 L 177.083 105.516 173.791 102.798 C 171.981 101.303, 163.847 96.629, 155.715 92.410 C 147.584 88.191, 140.458 83.856, 139.880 82.776 C 137.244 77.851, 142.287 73.220, 157 67.052 C 161.125 65.323, 166.848 62.691, 169.718 61.204 L 174.937 58.500 162.218 58.500 C 147.618 58.500, 143.270 57.085, 139.166 51 C 137.153 48.014, 136.890 46.693, 137.378 42 C 137.926 36.727, 139.890 28.441, 141.466 24.750 C 142.036 23.416, 141.773 23.050, 140.357 23.211 C 139.336 23.327, 133.887 23.568, 128.250 23.746 M 59.513 37.761 C 59.132 38.717, 58.572 42.987, 58.267 47.250 C 57.859 52.978, 58.032 55, 58.932 55 C 60.281 55, 71 46.904, 71 45.885 C 71 45.532, 68.571 43.168, 65.603 40.632 C 60.970 36.674, 60.108 36.267, 59.513 37.761 M 67.783 52.323 C 64.638 54.621, 62.050 56.895, 62.033 57.379 C 61.957 59.422, 78.784 55.585, 79.043 53.500 C 79.112 52.950, 77.892 51.521, 76.334 50.323 L 73.500 48.147 67.783 52.323 M 76.500 58.249 C 73.200 59.324, 67.462 60.271, 63.750 60.352 C 59.829 60.438, 57.099 60.919, 57.238 61.500 C 57.369 62.050, 60.181 63.451, 63.488 64.614 C 66.795 65.777, 72.600 68.139, 76.388 69.864 C 80.177 71.589, 83.664 73, 84.138 73 C 85.503 73, 85.160 59.579, 83.750 57.837 C 82.628 56.451, 81.884 56.493, 76.500 58.249 M 88.035 66 C 88.001 68.475, 87.708 71.486, 87.385 72.691 C 86.861 74.646, 88.004 75.487, 97.989 80.494 C 104.144 83.581, 109.619 85.960, 110.156 85.781 C 110.693 85.602, 105.950 80.066, 99.615 73.478 L 88.097 61.500 88.035 66 M 47.667 64.667 C 46.503 65.830, 46.932 69.278, 49.500 79.401 C 53.751 96.159, 52.712 102.667, 44.506 110.671 L 39.205 115.842 42.196 117.081 C 49.477 120.097, 54.300 113.589, 56.254 98.115 C 57.466 88.510, 56.085 66.685, 54.143 64.743 C 53.571 64.171, 52.205 64.475, 50.590 65.533 C 48.238 67.074, 48.031 67.084, 48.590 65.626 C 49.237 63.940, 48.823 63.510, 47.667 64.667 M 80.691 95.750 C 77.570 105.513, 74.563 116.479, 74.010 120.121 C 72.394 130.746, 75.274 141.204, 81.388 146.911 L 83.972 149.322 83.350 138.411 C 82.603 125.283, 84.033 115.549, 87.916 107.347 C 90.678 101.514, 98.039 93.280, 103.250 90.196 C 104.763 89.301, 106 88.317, 106 88.010 C 106 87.540, 87.576 78, 86.669 78 C 86.502 78, 83.812 85.987, 80.691 95.750 M 102.297 94.361 C 95.710 99.209, 91.004 105.592, 88.297 113.351 C 86.911 117.323, 86.500 121.585, 86.500 132 C 86.500 139.425, 86.640 147.525, 86.812 150 C 86.983 152.475, 86.828 159.675, 86.467 166 C 85.445 183.903, 87.656 184.915, 107.618 175.677 C 114.191 172.635, 120.787 169.840, 122.277 169.467 C 125.662 168.617, 125.025 167.416, 120.761 166.610 C 116.418 165.790, 111 162.403, 111 160.508 C 111 159.671, 114.067 157.021, 117.815 154.619 C 134.608 143.854, 137.802 131.995, 128.983 113.149 C 122.504 99.305, 114.737 90, 109.660 90 C 108.868 90, 105.554 91.962, 102.297 94.361 M 124.947 100.423 C 129.781 107.449, 134.679 118.690, 135.939 125.652 C 138.374 139.104, 132.886 148.836, 117.744 157.918 C 115.678 159.157, 114.234 160.570, 114.536 161.058 C 115.521 162.653, 146.557 171.001, 147.336 169.881 C 147.481 169.672, 147.288 164.775, 146.906 159 C 146.524 153.225, 146.164 139.476, 146.106 128.446 L 146 108.392 133.847 102.044 L 121.694 95.696 124.947 100.423" stroke="none" fill="black" fill-rule="evenodd"/>
</svg>