<svg xmlns="http://www.w3.org/2000/svg" width="200" height="200" viewBox="0 0 200 200" version="1.1">
	<path d="M 47.394 10.088 C 25.319 11.682, 14 15.888, 14 22.497 C 14 25.586, 19.571 31.923, 25.615 35.708 C 28.444 37.479, 29.913 39.049, 29.632 40 C 29.389 40.825, 27.315 46.394, 25.023 52.377 C 19.392 67.074, 16.799 79.233, 16.678 91.500 C 16.515 108.136, 20.633 119.833, 30.487 130.722 L 36.101 136.926 29.945 152.713 C 22.399 172.062, 21.485 174.818, 22.331 175.664 C 22.697 176.030, 26.710 174.488, 31.248 172.236 C 35.787 169.985, 41.300 167.663, 43.500 167.077 C 49.165 165.568, 62.585 165.746, 69.025 167.416 C 75.245 169.030, 77.176 167.919, 74.067 164.515 C 69.538 159.558, 67.631 153.783, 67.191 143.692 C 66.714 132.775, 67.309 128.882, 73.140 104.765 C 76.763 89.779, 77.368 88.127, 78.925 88.960 C 81.857 90.529, 82.675 92.136, 85.914 102.677 L 89.041 112.853 86.530 115.562 C 85.149 117.052, 83.536 119.898, 82.945 121.886 C 81.650 126.242, 80.136 148.967, 80.039 165.500 C 80 172.100, 79.358 180.096, 78.611 183.269 C 77.765 186.865, 77.615 189.262, 78.214 189.632 C 79.411 190.372, 78.461 191.507, 92.541 172.500 C 105.636 154.823, 117.995 141.497, 122.263 140.453 C 124.022 140.022, 125.626 140.272, 126.676 141.138 C 130.869 144.600, 134.030 157.664, 136.321 181 L 137.548 193.500 141.236 188.500 C 150.629 175.763, 168.939 142.302, 173.043 130.375 C 175.361 123.639, 175.506 120.665, 173.596 119.079 C 171.949 117.713, 167.599 118.573, 165.919 120.598 C 163.680 123.295, 163.185 121.925, 162.844 112.103 C 162.440 100.475, 161.070 97.985, 155.095 98.022 C 150.132 98.052, 144.946 100.637, 135 108.038 C 130.325 111.516, 125.038 115.225, 123.250 116.280 L 120 118.198 120 115.658 C 120 114.262, 121.125 110, 122.500 106.189 C 123.875 102.377, 125 98.986, 125 98.654 C 125 98.321, 123.846 98.488, 122.435 99.025 C 118.860 100.384, 106.211 100.106, 102 98.576 C 99.013 97.491, 104.142 97.205, 137 96.628 C 179.424 95.883, 184 95.558, 184 93.281 C 184 92.135, 183.219 91.903, 180.750 92.313 C 172.774 93.640, 116.630 95.221, 104.500 94.460 C 92.441 93.705, 91.873 93.582, 96.653 92.762 L 101.806 91.878 102.153 83.098 C 102.474 74.979, 102.838 73.664, 106.985 65.639 L 111.470 56.960 109.782 52.266 C 108.854 49.685, 108.185 47.517, 108.297 47.449 C 108.409 47.382, 113.450 45.645, 119.500 43.591 C 132.739 39.095, 144.561 33.585, 145.344 31.546 C 145.658 30.728, 145.166 29.308, 144.249 28.392 C 140.223 24.366, 80.779 30.164, 79.256 34.732 C 78.975 35.575, 81.405 36.004, 87.633 36.210 L 96.406 36.500 99.774 40.921 C 102.302 44.239, 102.812 45.516, 101.821 46.043 C 98.004 48.072, 78.445 53.078, 76.371 52.557 C 75.038 52.222, 74 52.408, 74 52.981 C 74 56.091, 71.858 53.002, 68.987 45.750 C 61.834 27.684, 55.331 17, 51.487 17 C 50.121 17, 48.620 17.841, 48.035 18.934 C 45.396 23.866, 48.227 41.498, 53.388 52.277 L 56.634 59.054 54.119 59.685 C 52.588 60.069, 51.454 59.863, 51.219 59.158 C 50.388 56.665, 48 58.032, 48 61 C 48 62.650, 48.450 64, 49 64 C 49.550 64, 50 65.026, 50 66.281 C 50 67.900, 49.124 68.892, 46.981 69.701 C 44.756 70.541, 43.324 72.242, 41.534 76.170 C 38.084 83.740, 36.946 91.829, 36.287 113.463 L 35.708 132.425 31.604 127.892 C 26.313 122.048, 22.251 113.680, 20.331 104.668 C 17.136 89.675, 21.345 66.079, 31.101 44.288 L 33.882 38.075 26.947 33.465 C 11.769 23.375, 13.666 18.020, 33.674 14.471 C 52.228 11.180, 102.371 11.607, 146.530 15.431 C 159.103 16.520, 162.495 17.176, 167.280 19.439 C 177.149 24.108, 174.995 26.790, 153 37.226 C 138.754 43.985, 136 45.912, 136 49.122 C 136 51.998, 141.563 54.014, 154.801 55.936 L 166.102 57.576 158.017 63.365 C 153.570 66.549, 147.443 71.584, 144.401 74.554 C 139.624 79.217, 138.913 80.397, 139.185 83.204 C 139.666 88.165, 142.593 89.228, 154 88.587 C 167.317 87.837, 176 86.151, 176 84.314 C 176 83.238, 175.259 82.992, 173.250 83.401 C 158.565 86.393, 143.984 86.890, 141.973 84.468 C 140.044 82.143, 144.702 77.032, 158.101 66.770 C 164.371 61.969, 169.639 57.388, 169.810 56.591 C 170.030 55.559, 168.876 54.987, 165.810 54.608 C 143.554 51.859, 139 50.800, 139 48.373 C 139 47.512, 145.523 43.790, 155.384 39.027 C 175.661 29.230, 179.308 25.456, 173.640 20.131 C 167.336 14.210, 153.685 12.258, 103 10.035 C 76.841 8.888, 63.839 8.900, 47.394 10.088 M 50.669 19.664 C 49.510 20.823, 49.975 31.217, 51.511 38.500 C 53.144 46.244, 58.458 58.009, 60.313 57.985 C 60.966 57.976, 63.391 57.404, 65.703 56.712 L 69.906 55.455 65.939 45.596 C 59.161 28.755, 52.645 17.688, 50.669 19.664 M 107 31.525 C 101.775 32.230, 97.388 32.850, 97.251 32.903 C 96.973 33.011, 106.189 45, 106.549 45 C 106.675 45, 112.115 43.167, 118.639 40.926 C 132.549 36.149, 142 32.078, 142 30.863 C 142 29.589, 117.981 30.044, 107 31.525 M 91.582 52.157 C 84.477 54.272, 78.540 56.127, 78.387 56.279 C 78.235 56.432, 78.525 58.344, 79.031 60.528 C 79.538 62.713, 79.963 67, 79.976 70.056 C 80.003 76.212, 83.346 87.596, 85.873 90.134 C 87.269 91.535, 88.301 91.615, 93.133 90.690 L 98.765 89.613 99.220 81.763 C 99.614 74.950, 100.246 72.802, 104.005 65.490 C 108.139 57.450, 108.282 56.884, 107.141 53.075 C 106.483 50.880, 105.620 48.910, 105.222 48.698 C 104.825 48.485, 98.687 50.042, 91.582 52.157 M 74.076 58.050 C 74.118 58.848, 74.798 61.075, 75.588 63 L 77.024 66.500 76.548 62.586 C 76.093 58.841, 73.907 54.830, 74.076 58.050 M 64.500 60 L 62.500 60.859 64.500 60.914 C 65.600 60.945, 67.175 60.533, 68 60 C 69.333 59.138, 69.333 59.037, 68 59.086 C 67.175 59.116, 65.600 59.527, 64.500 60 M 55.500 62.399 C 51.344 63.924, 51.742 68.236, 56.208 70.086 C 57.910 70.791, 62.637 73.760, 66.712 76.684 C 70.787 79.608, 74.544 82, 75.061 82 C 75.920 82, 76.497 77.862, 76.193 73.881 C 76.126 72.991, 75.129 69.747, 73.979 66.674 L 71.888 61.086 68.444 62.728 C 65.321 64.217, 64.697 64.227, 61.750 62.834 C 59.186 61.622, 57.867 61.530, 55.500 62.399 M 48 72.305 C 42.261 75.173, 38.626 93.627, 39.196 117 L 39.500 129.500 42.629 124 C 49.883 111.247, 53.794 88.766, 51.192 74.778 C 50.526 71.197, 50.405 71.103, 48 72.305 M 54.257 78.618 C 55.655 96.030, 51.259 115.983, 43.464 127.607 C 41.009 131.269, 39 134.914, 39 135.707 C 39 136.501, 36.075 144.699, 32.500 153.925 C 28.925 163.152, 26 170.908, 26 171.161 C 26 171.414, 28.950 170.188, 32.556 168.437 C 42.857 163.435, 56.366 161.623, 66.250 163.919 C 70.338 164.868, 70.718 164.471, 68.609 161.459 C 66.110 157.892, 64 148.781, 64.001 141.568 C 64.003 132.973, 65.692 123.104, 70.429 104 C 72.407 96.025, 74.207 88.695, 74.429 87.711 C 74.718 86.432, 72.790 84.398, 67.667 80.577 C 63.725 77.637, 58.972 74.459, 57.105 73.515 L 53.710 71.799 54.257 78.618 M 78 82.878 C 78 83.910, 78.669 85.310, 79.487 85.989 C 80.782 87.064, 80.834 86.822, 79.889 84.112 C 78.655 80.571, 78 80.144, 78 82.878 M 87.013 96.633 C 87.020 97.110, 88.145 101.005, 89.513 105.288 C 92.393 114.306, 92.553 116, 90.523 116 C 88.444 116, 86.307 119.650, 84.959 125.500 C 84.060 129.406, 81.847 179.653, 82.526 180.759 C 82.614 180.902, 87.140 175.052, 92.583 167.759 C 104.847 151.331, 116.057 139.748, 121.359 138.026 C 124.788 136.913, 125.506 136.987, 127.791 138.693 C 133.187 142.722, 136.037 152.186, 138.198 173.250 C 138.861 179.713, 139.668 185, 139.991 185 C 141.305 185, 154.538 162.479, 162.026 147.500 C 169.581 132.385, 173.162 122.828, 171.784 121.451 C 170.952 120.618, 167.203 122.682, 163.145 126.208 C 161.300 127.812, 159.584 128.918, 159.333 128.666 C 159.082 128.415, 159.378 124.541, 159.992 120.057 C 162.040 105.099, 159.437 98.867, 152.028 100.992 C 148.233 102.080, 144.328 104.541, 132.628 113.216 C 128.162 116.527, 123.439 119.643, 122.132 120.140 C 116.897 122.130, 115.554 116.825, 118.999 107.761 C 120.099 104.867, 120.997 102.500, 120.995 102.500 C 104.507 102.500, 103.370 102.364, 97 99.634 C 88.699 96.077, 86.997 95.566, 87.013 96.633" stroke="none" fill="black" fill-rule="evenodd"/>
</svg>