<svg xmlns="http://www.w3.org/2000/svg" width="200" height="200" viewBox="0 0 200 200" version="1.1">
	<path d="M 79.172 21.076 C 76.709 31.744, 78.104 42.264, 82.152 43.548 C 83.168 43.871, 83.987 44.442, 83.972 44.817 C 83.957 45.193, 80.648 47.902, 76.618 50.838 L 69.293 56.176 66.497 69.605 C 64.959 76.990, 63.580 82.913, 63.433 82.767 C 63.287 82.620, 62.456 77.100, 61.587 70.500 C 58.467 46.786, 53.843 33.558, 45.791 25.309 C 37.938 17.265, 34.543 17.420, 30.614 26 C 28.734 30.106, 28.498 33.124, 27.913 60.500 C 27.318 88.331, 27.100 91.042, 24.892 98 C 22.729 104.815, 22.521 107.144, 22.613 123.500 C 22.698 138.519, 23.070 142.825, 24.857 149.500 C 29.531 166.960, 38.418 179.555, 49.711 184.725 C 54.301 186.827, 56.978 187.357, 62.980 187.355 C 75.351 187.351, 77.756 186.221, 84.481 177.257 C 87.681 172.991, 91.403 167.111, 92.750 164.191 C 95.747 157.697, 96.716 148.701, 94.984 143.451 C 93.443 138.781, 86.110 130.735, 80.284 127.321 C 75.550 124.546, 74.813 122.988, 78.250 123.022 C 81.945 123.058, 88.395 126.493, 91.339 129.991 C 95.515 134.954, 97.289 139.053, 102.866 156.625 C 108.527 174.461, 111.960 180.661, 118.836 185.468 C 122.911 188.318, 123.724 188.498, 132.336 188.463 C 142.729 188.420, 147.948 186.900, 164.499 179.093 C 175.957 173.688, 182.255 168.781, 181.800 165.612 C 181.263 161.865, 176.839 160.846, 156.648 159.819 C 146.117 159.284, 136.375 158.500, 135 158.078 C 132.620 157.348, 132.739 157.192, 137.500 154.809 C 140.250 153.433, 146.100 151.060, 150.500 149.536 C 159.781 146.321, 166 140.852, 166 135.907 C 166 131.030, 163.705 130.535, 141 130.517 C 122.517 130.502, 120.107 130.303, 116.508 128.500 C 113.231 126.858, 109.346 122.321, 110.354 121.312 C 110.495 121.172, 114.860 121.543, 120.055 122.135 C 137.154 124.087, 156.191 121.443, 168.154 115.455 C 181.107 108.972, 181.225 103.972, 168.500 100.906 C 165.750 100.244, 153.692 99.431, 141.704 99.101 C 120.981 98.530, 119.972 98.412, 121.222 96.707 C 122.455 95.024, 122.931 95.008, 129.018 96.443 C 137.228 98.378, 140.364 98.378, 146.878 96.444 C 167.210 90.406, 171.057 61.016, 153.095 48.952 C 148.582 45.921, 148.598 45.865, 154.500 43.996 C 161.691 41.719, 166 39.090, 166 36.980 C 166 35.891, 165.887 34.999, 165.750 34.999 C 163.475 34.986, 148.405 31.805, 147.812 31.212 C 147.363 30.763, 148.572 28.869, 150.498 27.002 C 152.424 25.135, 154 23.246, 154 22.804 C 154 20.789, 150.363 22.342, 147.095 25.751 C 145.118 27.814, 141.183 31.658, 138.352 34.293 L 133.203 39.084 126.352 33.955 C 115.299 25.682, 97 17.804, 97 21.319 C 97 22.017, 99.588 23.383, 102.750 24.354 C 109.753 26.504, 119.039 31.592, 125.992 37.088 L 131.175 41.185 129.084 43.411 C 127.933 44.635, 124.631 46.393, 121.746 47.316 C 115.538 49.303, 104.789 55.132, 104.228 56.816 C 103.698 58.407, 106.660 58.308, 112.544 56.537 C 115.219 55.732, 117.559 55.225, 117.744 55.411 C 117.930 55.597, 116.901 57.153, 115.457 58.869 C 113.832 60.800, 111.054 62.507, 108.166 63.349 C 103.228 64.789, 101.889 67.271, 105.754 67.820 C 107.899 68.125, 107.794 68.420, 103.587 73.887 C 97.829 81.370, 85.973 99.605, 82.349 106.552 C 80.699 109.714, 78.984 111.817, 78.275 111.547 C 74.073 109.951, 54.693 107, 48.417 107 C 40.290 107, 32.335 109.353, 34.965 110.979 C 35.753 111.465, 42.224 114.007, 49.345 116.627 C 60.687 120.799, 61.996 121.508, 59.896 122.340 C 58.578 122.862, 54.675 124.556, 51.221 126.106 C 45.721 128.573, 45.007 129.206, 45.462 131.211 C 45.748 132.470, 47.137 140.475, 48.547 149 C 52.650 173.788, 54.840 174.785, 62.599 155.395 C 69.480 138.204, 74.229 128, 75.350 128 C 77.662 128, 86.897 135.244, 89.651 139.218 C 92.171 142.855, 92.500 144.204, 92.500 150.915 C 92.500 159.805, 90.226 165.270, 81.985 176.186 C 77.206 182.515, 76.634 182.934, 71.247 184.053 C 52.166 188.014, 36.879 177.418, 29.610 155.192 C 25.897 143.842, 24.741 136.001, 24.642 121.500 C 24.568 110.744, 24.925 107.356, 26.706 101.872 C 30.055 91.565, 31 81.712, 31 57.109 C 31 39.781, 31.358 33.157, 32.503 29.301 C 34.509 22.548, 36.158 21.218, 39.671 23.520 C 49.922 30.237, 55.319 43.986, 59.039 72.861 C 61.062 88.562, 61.402 90, 63.084 90 C 64.558 90, 65.894 85.742, 68.991 71.171 C 70.549 63.841, 71.976 57.729, 72.162 57.590 C 85.384 47.687, 89.039 44.615, 88.727 43.664 C 88.517 43.024, 87.106 42.354, 85.591 42.176 C 81.188 41.657, 79.527 36.484, 80.899 27.559 C 81.495 23.677, 82.265 19.488, 82.608 18.250 C 83.048 16.666, 82.805 16, 81.788 16 C 80.872 16, 79.915 17.857, 79.172 21.076 M 139.608 36.890 C 135.947 40.607, 135.188 41.900, 136.199 42.698 C 139.208 45.072, 142.862 44.920, 151.298 42.068 C 164.168 37.718, 164.338 37.490, 155.756 36.106 C 151.660 35.445, 147.411 34.275, 146.313 33.507 C 144.485 32.226, 143.923 32.510, 139.608 36.890 M 128.813 48.683 C 129.534 48.972, 130.397 48.936, 130.729 48.604 C 131.061 48.272, 130.471 48.036, 129.417 48.079 C 128.252 48.127, 128.015 48.364, 128.813 48.683 M 141 48.220 C 141 48.485, 141.484 50.091, 142.076 51.789 C 144.189 57.848, 139.459 63.466, 130.500 65.540 C 127.907 66.141, 115 73.652, 115 74.561 C 115 74.740, 118.232 73.554, 122.182 71.925 C 131.568 68.054, 132.783 69.223, 126.563 76.142 C 122.027 81.186, 121.926 81.428, 124.031 82.207 C 125.776 82.853, 126.114 83.579, 125.683 85.759 C 124.327 92.620, 124.243 92.418, 129 93.662 C 143.657 97.496, 156.585 91.787, 160.596 79.711 C 165.072 66.235, 157.034 50.340, 144.734 48.344 C 142.680 48.011, 141 47.955, 141 48.220 M 131 51.180 C 125.259 52.941, 117.157 58.490, 118.446 59.779 C 118.675 60.008, 121.127 59.709, 123.896 59.116 C 129.367 57.943, 132 58.427, 132 60.607 C 132 62.363, 132.422 62.350, 136.035 60.482 C 139.443 58.720, 140.542 55.555, 139.080 51.711 C 138.513 50.220, 137.926 49.042, 137.775 49.094 C 137.624 49.145, 134.575 50.084, 131 51.180 M 120.564 62.602 C 117.300 63.392, 114.375 64.311, 114.064 64.644 C 112.927 65.866, 125.510 63.756, 127.446 62.400 C 129.955 60.643, 128.487 60.686, 120.564 62.602 M 114.381 67.882 C 110.822 68.587, 108.876 70.737, 99.791 84 C 90.878 97.013, 89.192 99.769, 91.031 98.324 C 91.854 97.677, 98.759 96.125, 106.375 94.875 L 120.222 92.603 121.790 89.314 C 123.901 84.888, 122.904 84.314, 118.411 87.367 C 114.916 89.742, 113 89.990, 113 88.067 C 113 87.619, 115.475 84.479, 118.500 81.088 C 121.525 77.698, 124 74.750, 124 74.537 C 124 74.323, 121.313 75.201, 118.030 76.488 C 104.076 81.957, 101.611 79.935, 113 72.361 C 116.850 69.801, 120 67.548, 120 67.353 C 120 66.924, 118.499 67.065, 114.381 67.882 M 108 97.377 L 101.500 98.500 108.401 98.799 C 115.730 99.117, 118 98.699, 118 97.031 C 118 95.824, 116.740 95.868, 108 97.377 M 85.929 105.622 C 84.318 108.439, 83 111.193, 83 111.741 C 83 112.529, 99.172 116.476, 105.880 117.325 C 106.644 117.422, 107.826 115.889, 108.529 113.890 C 109.227 111.904, 111.001 108.374, 112.471 106.045 C 113.942 103.716, 114.999 101.667, 114.822 101.491 C 114.645 101.315, 108.730 101.020, 101.679 100.836 L 88.857 100.500 85.929 105.622 M 115.386 106.611 C 113.412 109.697, 111.436 113.480, 110.994 115.019 C 109.952 118.653, 110.845 118.904, 127.500 119.660 C 145.590 120.482, 161.445 117.218, 171.157 110.673 C 178.735 105.566, 173.602 103.396, 150.643 102 C 141.765 101.460, 131.007 101.014, 126.738 101.009 L 118.975 101 115.386 106.611 M 43.117 109.867 C 41.204 110.403, 43.341 111.521, 53.954 115.536 C 69.376 121.369, 74.079 121.681, 76.486 117.027 L 77.912 114.270 70.206 112.636 C 61.927 110.881, 49.446 108.989, 47 109.119 C 46.175 109.163, 44.428 109.500, 43.117 109.867 M 79.597 117.164 C 78.122 119.271, 78.246 119.406, 83.675 121.612 C 86.754 122.864, 90.596 125.151, 92.213 126.694 C 96.209 130.508, 101.180 141.268, 105.058 154.500 C 110.578 173.327, 114.942 180.846, 122.407 184.389 C 127.520 186.815, 137.736 186.474, 146.324 183.590 C 161.311 178.557, 179 169.269, 179 166.434 C 179 164.189, 172.489 163.159, 152.168 162.188 C 136.914 161.459, 132.508 160.936, 131.281 159.710 C 130.426 158.855, 129.992 157.462, 130.317 156.615 C 131.043 154.725, 139.878 150.252, 150.271 146.513 C 155.767 144.535, 158.913 142.724, 161.021 140.324 C 162.659 138.457, 164 136.485, 164 135.940 C 164 133.744, 158.151 133.061, 140.755 133.228 C 121.499 133.413, 116.376 132.657, 111.643 128.934 C 110.203 127.801, 108.660 125.469, 108.215 123.752 C 107.423 120.693, 107.183 120.583, 96.453 118.347 C 90.429 117.091, 84.514 115.823, 83.310 115.528 C 81.790 115.156, 80.653 115.657, 79.597 117.164 M 57.500 126.411 C 48.068 130.038, 47.911 130.132, 48.397 131.868 C 48.648 132.766, 49.137 135.525, 49.483 138 C 51.007 148.903, 54.283 165, 54.977 165 C 55.395 165, 58.344 158.588, 61.531 150.750 C 64.717 142.912, 68.372 134.250, 69.652 131.500 C 71.811 126.865, 71.858 126.409, 70.299 125.250 C 67.888 123.457, 64.348 123.778, 57.500 126.411" stroke="none" fill="black" fill-rule="evenodd"/>
</svg>