<svg xmlns="http://www.w3.org/2000/svg" width="200" height="200" viewBox="0 0 200 200" version="1.1">
	<path d="M 81.702 13.631 C 81.316 14.017, 81 16.568, 81 19.299 C 81 23.676, 80.586 24.654, 77.508 27.557 C 71.170 33.535, 58.057 37.249, 36.500 39.172 C 29.350 39.810, 23.073 40.707, 22.550 41.166 C 20.486 42.978, 24.070 43.890, 39.500 45.479 C 58.559 47.443, 62 48.329, 62 51.271 C 62 54.331, 53.659 61.950, 37.500 73.650 C 21.885 84.956, 17.638 88.914, 18.185 91.651 C 18.512 93.292, 19.506 93.480, 27.027 93.326 C 31.816 93.227, 39.902 92.119, 45.622 90.778 C 56.495 88.228, 61.133 88.640, 63.433 92.359 C 64.729 94.454, 63.251 95.747, 51 103.226 C 27.274 117.712, 24.008 128.934, 39.500 142.742 L 45.075 147.711 51.766 145.855 C 60.166 143.526, 64 143.446, 64 145.599 C 64 147.293, 53.251 158.273, 36.140 174.057 C 28.523 181.083, 25.884 184.129, 26.176 185.557 C 27.285 190.991, 47.208 183.419, 61.115 172.277 C 77.961 158.780, 85.689 153.125, 90.437 150.818 C 94.743 148.727, 95.317 148.667, 97.803 150.059 C 101.220 151.972, 104.064 158.990, 108.691 176.919 C 110.618 184.389, 112.343 190.654, 112.524 190.843 C 112.705 191.032, 114.384 187.873, 116.255 183.823 C 120.161 175.369, 124.656 169.799, 129.038 167.984 C 131.495 166.967, 133.816 166.970, 141.025 168.004 C 152.628 169.667, 156.699 168.298, 164.037 160.269 C 168.632 155.242, 178.259 137.657, 180.454 130.283 C 181.310 127.408, 181.192 127.385, 156.501 125.460 C 145.501 124.603, 136.149 123.549, 135.717 123.117 C 135.286 122.686, 140.823 116.791, 148.022 110.017 C 155.620 102.869, 161.987 95.981, 163.199 93.601 C 164.346 91.345, 167.920 85.675, 171.139 81 C 178.488 70.330, 179.150 67.520, 175.373 63.032 C 173.831 61.199, 170.279 58.687, 167.480 57.449 C 162.154 55.093, 142.758 50, 139.114 50 C 137.951 50, 137 49.550, 137 49 C 137 48.450, 138.617 48, 140.593 48 C 146.472 48, 164.105 44.067, 169.762 41.493 C 177.806 37.834, 178.065 33.950, 170.442 31.281 C 165.779 29.648, 150.097 27.251, 141.199 26.812 L 134.898 26.500 132.476 32.500 C 130.143 38.276, 126.188 43.004, 123.694 42.996 C 119.376 42.983, 112.450 35.364, 103.793 21.106 C 99.462 13.972, 96.988 13.111, 97.024 18.750 C 97.037 20.813, 97.450 24.300, 97.942 26.500 L 98.836 30.500 90.620 21.714 C 86.101 16.882, 82.088 13.245, 81.702 13.631 M 83.993 21.084 C 83.977 27.006, 76.140 33.631, 65.082 37.070 C 61.462 38.196, 53.550 39.872, 47.500 40.794 L 36.500 42.470 47.410 43.680 C 60.027 45.079, 63.802 46.362, 64.594 49.519 C 65.916 54.787, 60.622 60.196, 38.395 76.280 C 18.497 90.680, 17.851 91.481, 26.409 91.158 C 30.384 91.007, 45.389 88.251, 52.670 86.333 L 55.500 85.588 52.500 85.034 C 50.135 84.598, 49.500 83.962, 49.500 82.034 C 49.500 79.082, 55.304 74.199, 75.271 60.355 C 82.844 55.104, 90.894 49.259, 93.159 47.367 C 95.425 45.474, 97.750 44.083, 98.326 44.275 C 100.523 45.008, 99.857 46.588, 96.339 48.984 C 91.692 52.150, 89.049 57.937, 89.026 65 C 88.995 74.368, 94.386 80, 103.386 80 C 110.138 80, 110.092 80.881, 104.569 57.108 L 99.500 35.290 91.750 26.979 C 85.172 19.925, 83.999 19.033, 83.993 21.084 M 100 21.833 C 100 22.291, 100.509 25.329, 101.132 28.583 C 102.150 33.906, 102.925 35.177, 108.844 41.238 C 113.178 45.678, 115.760 47.640, 116.412 46.988 C 116.955 46.445, 121.990 46, 127.601 46 C 145.578 46, 172.500 40.027, 172.500 36.038 C 172.500 33.584, 165.768 32.131, 142.334 29.527 L 137.168 28.953 134.526 34.724 C 133.073 37.897, 130.932 41.508, 129.768 42.747 C 127.170 45.512, 122.053 45.727, 117.814 43.250 C 114.702 41.431, 107.695 32.749, 103.333 25.305 C 100.852 21.072, 100 20.184, 100 21.833 M 104 41.520 C 104 41.871, 105.800 49.962, 108 59.500 C 110.200 69.038, 112 77.102, 112 77.421 C 112 78.622, 115.067 77.914, 120.994 75.343 C 126.974 72.750, 127.204 72.727, 130.684 74.386 C 132.644 75.321, 134.420 75.913, 134.631 75.703 C 135.385 74.949, 129.047 67.138, 117.609 54.725 C 106.262 42.410, 104 40.216, 104 41.520 M 123.050 56.750 C 132.108 66.437, 138 74.170, 138 76.372 C 138 78.976, 135.282 79.431, 131.070 77.532 C 127.309 75.835, 127.135 75.852, 120.117 78.593 C 114.837 80.656, 113.103 81.784, 113.439 82.939 C 113.689 83.798, 114.192 86.188, 114.558 88.250 C 114.924 90.313, 115.356 92, 115.518 92 C 115.681 92, 118.822 90.650, 122.500 89 C 126.178 87.350, 129.299 86, 129.437 86 C 130.259 86, 138.115 96.219, 137.650 96.683 C 137.338 96.995, 135.255 96.519, 133.021 95.625 C 128.956 93.999, 122.348 93.531, 118.400 94.591 C 116.306 95.153, 116.310 95.202, 119.685 109.828 C 125.117 133.363, 124.588 131.998, 128.289 132.015 C 130.055 132.023, 134.409 132.715, 137.963 133.553 C 144.357 135.060, 148 137.212, 148 139.481 C 148 141.510, 143.729 144.769, 137 147.872 C 126.541 152.696, 126.873 152.833, 124.643 142.789 L 122.709 134.079 118.104 133.431 C 97.145 130.481, 90.706 128.278, 90.196 123.884 C 89.974 121.963, 90.725 120.568, 93.023 118.634 L 96.153 116 92.327 116.006 C 86.936 116.014, 78.310 117.493, 65.264 120.646 C 54.796 123.176, 51.309 123.291, 53.568 121.032 C 54.083 120.517, 64.628 115.515, 77.002 109.915 C 89.376 104.315, 99.883 99.388, 100.351 98.965 C 101.516 97.915, 85.829 90.356, 78.786 88.574 C 71.369 86.697, 57.401 85.490, 60.979 87.035 C 64.483 88.547, 67 91.028, 67 92.968 C 67 95.398, 62.913 98.821, 49.764 107.404 C 36.719 115.919, 33 120.107, 33 126.282 C 33 131.186, 34.762 134.451, 40.336 139.876 C 44.077 143.517, 45.308 144.160, 47.666 143.708 C 64.578 140.462, 63.944 140.515, 65.639 142.211 C 69.338 145.909, 64.972 151.320, 39.610 174.468 C 33.621 179.934, 29.215 184.572, 29.821 184.774 C 30.426 184.975, 35.436 183.329, 40.954 181.115 C 49.502 177.686, 52.831 175.603, 63.435 167.053 C 79.104 154.417, 87.486 148.594, 92.189 147.076 C 97.499 145.362, 101.123 147.489, 104.381 154.233 C 106.647 158.924, 107.964 163.175, 112.005 178.838 L 113.124 183.176 116.633 177.338 C 121.338 169.508, 123.504 167.355, 128.654 165.388 C 132.329 163.985, 133.890 163.903, 138.671 164.863 C 151.475 167.434, 156.889 165.546, 164.151 155.976 C 167.871 151.074, 177 133.421, 177 131.130 C 177 129.952, 171.871 129.270, 153 127.938 C 136.576 126.779, 132.387 125.657, 132.675 122.492 C 132.771 121.435, 138.757 114.979, 145.978 108.147 C 154.293 100.278, 159.978 94.033, 161.485 91.112 C 162.794 88.575, 166.370 82.932, 169.432 78.572 C 172.494 74.211, 175 69.599, 175 68.322 C 175 63.361, 168.328 59.632, 152.147 55.548 C 143.436 53.349, 120.118 49, 117.040 49 C 116.359 49, 119.064 52.487, 123.050 56.750 M 74 64.530 C 56.232 77.006, 51.370 81.081, 53.135 82.012 C 53.886 82.409, 58.349 83.014, 63.054 83.357 C 77.604 84.419, 95.812 90.348, 101.687 95.937 C 103.405 97.572, 103.736 97.559, 108 95.701 C 110.475 94.623, 112.634 93.627, 112.798 93.489 C 112.962 93.351, 112.483 90.822, 111.735 87.869 L 110.375 82.500 103.938 82.447 C 96.474 82.386, 92.220 80.522, 88.898 75.857 C 86.254 72.144, 85.291 64.226, 86.813 58.714 C 87.377 56.671, 87.763 55.011, 87.669 55.025 C 87.576 55.039, 81.425 59.316, 74 64.530 M 127.084 89.948 C 126.059 90.582, 126.265 90.949, 127.943 91.482 C 130.619 92.331, 131.528 91.683, 129.741 90.200 C 128.990 89.577, 127.859 89.469, 127.084 89.948 M 108 99.085 C 104.975 100.741, 101.076 103.475, 99.336 105.160 C 96.478 107.929, 93.017 108.400, 94.623 105.801 C 95.419 104.513, 95.843 104.354, 82.192 110.467 C 76.091 113.198, 71.241 115.574, 71.413 115.746 C 71.584 115.918, 75.671 115.370, 80.493 114.529 C 91.329 112.640, 107.493 112.492, 104.610 114.309 C 91.870 122.340, 90.642 124.117, 96.221 126.448 C 99.317 127.741, 120.930 131.450, 121.511 130.787 C 121.718 130.551, 114.536 99.110, 113.743 96.787 C 113.609 96.395, 111.025 97.429, 108 99.085 M 126 135.709 C 126 138.069, 128.220 146.442, 129.104 147.418 C 130.231 148.662, 145 141.290, 145 139.484 C 145 137.956, 140.787 136.591, 131.750 135.193 C 127.055 134.466, 126 134.561, 126 135.709" stroke="none" fill="black" fill-rule="evenodd"/>
</svg>