<svg xmlns="http://www.w3.org/2000/svg" width="200" height="200" viewBox="0 0 200 200" version="1.1">
	<path d="M 34.920 22.476 C 27.187 38.869, 24.354 48.568, 22.498 65 C 21.598 72.975, 19.722 84.675, 18.330 91 C 14.280 109.397, 14.246 107.624, 18.657 108.330 C 25.177 109.373, 32.866 113.841, 35.817 118.300 C 38.141 121.812, 38.497 123.366, 38.480 129.927 C 38.455 139.314, 36.874 144.213, 27.725 163.267 C 22.531 174.085, 20.931 178.331, 21.744 179.144 C 23.572 180.972, 27.335 179.337, 34.146 173.754 C 44.062 165.626, 49.780 162.323, 61.611 157.888 C 79.007 151.368, 80.218 149.560, 80.970 129 L 81.500 114.500 86.762 135 C 92.822 158.605, 96.087 166.337, 100.198 166.811 C 102.460 167.072, 103.219 166.492, 104.885 163.225 C 109.220 154.729, 111.248 143.441, 111.981 123.744 C 112.816 101.275, 113.517 99.207, 116.460 110.509 C 120.167 124.739, 120.586 147.641, 117.428 163.397 L 116.046 170.295 119.630 175.177 C 123.302 180.180, 127.363 183, 130.895 183 C 134.525 183, 137.936 178.639, 143.975 166.277 C 147.260 159.554, 150.859 153.141, 151.973 152.027 C 156.340 147.660, 163.209 150.547, 169.571 159.423 C 171.732 162.438, 173.776 164.926, 174.114 164.952 C 174.451 164.978, 175.479 159.386, 176.399 152.525 C 181.872 111.687, 177.730 87.942, 163.736 79.926 C 160.158 77.877, 158.231 77.511, 151.324 77.573 C 141.734 77.658, 142.331 78.288, 138.714 64.273 L 136.333 55.045 139.417 54.042 C 143.789 52.618, 154.029 51.355, 172.500 49.961 C 181.300 49.296, 188.884 48.402, 189.354 47.973 C 190.714 46.730, 180.085 40.132, 173.348 38.038 C 165.936 35.734, 160.057 35.395, 145.373 36.423 C 137.998 36.940, 133.581 36.846, 132.271 36.145 C 130.937 35.431, 129.262 31.828, 127.111 25.044 C 124.987 18.343, 123.440 15, 122.464 15 C 119.218 15, 121.821 29.200, 126.264 35.726 C 127.677 37.802, 129.769 42.577, 130.911 46.338 C 132.779 52.484, 132.838 53.393, 131.495 55.311 C 130.673 56.485, 130 58.500, 130 59.790 C 130 61.557, 129.569 62.005, 128.250 61.607 C 126.454 61.066, 102.873 57, 101.530 57 C 101.119 57, 101.070 55.858, 101.420 54.462 C 102.053 51.940, 102.026 51.928, 97.091 52.582 C 92.284 53.220, 92.143 53.168, 92.720 50.963 C 93.234 48.998, 93.011 48.764, 91.106 49.262 L 88.897 49.840 90.887 46.467 C 91.981 44.613, 96.536 38.295, 101.008 32.428 C 109.536 21.242, 111.324 18.007, 110.362 15.500 C 109.115 12.252, 105.157 12.619, 98.711 16.580 C 91.175 21.211, 71.640 35.146, 63.750 41.518 C 59.803 44.706, 57.853 45.745, 57.534 44.831 C 57.277 44.099, 56.346 39.225, 55.465 34 C 54.583 28.775, 52.880 22.717, 51.681 20.539 C 49.491 16.561, 43.937 12, 41.283 12 C 40.459 12, 37.783 16.404, 34.920 22.476 M 37.043 24.250 C 29.808 40.029, 27.245 49.163, 25.034 67.046 C 23.915 76.096, 21.923 88.225, 20.607 94 C 19.292 99.775, 18.419 104.837, 18.667 105.250 C 18.915 105.662, 19.879 106.004, 20.809 106.010 C 23.881 106.028, 32.445 110.640, 35.789 114.078 C 45.025 123.574, 43.341 138.387, 29.998 165.004 C 26.691 171.602, 24.397 177, 24.901 177 C 25.404 177, 29.524 174.055, 34.056 170.456 C 44.523 162.141, 48.783 159.668, 59.136 155.895 C 71.525 151.380, 73.927 150.042, 75.663 146.684 C 78.010 142.146, 79.049 131.817, 78.356 119.935 C 77.776 110.004, 77.611 109.373, 75.619 109.435 C 73.647 109.495, 73.507 109.014, 73.596 102.500 C 73.671 97.031, 74.681 92.548, 78.211 82 C 80.696 74.575, 83.705 66.084, 84.897 63.131 L 87.065 57.761 74.282 58.207 C 60.472 58.689, 55.694 60.005, 50.825 64.668 C 47.648 67.711, 47.836 68.490, 53.673 76.463 C 60.985 86.452, 61.560 92.985, 56.084 103.833 C 52.064 111.798, 43.963 122.363, 42.782 121.182 C 42.183 120.583, 43.573 117.884, 46.552 113.866 C 55.447 101.865, 58.629 92.414, 56.053 85.640 C 55.533 84.271, 53.091 80.412, 50.627 77.065 L 46.146 70.979 45.091 76.239 C 44.510 79.133, 43.123 87.557, 42.008 94.960 C 40.145 107.327, 38.940 111.273, 37.474 109.807 C 36.946 109.280, 38.136 100.799, 41.551 80.739 C 42.372 75.920, 43.667 70.520, 44.429 68.739 C 45.191 66.957, 46.298 63.700, 46.889 61.500 C 47.480 59.300, 49.667 55.535, 51.750 53.133 L 55.537 48.766 53.263 37.133 C 52.012 30.735, 50.482 24.253, 49.864 22.730 C 48.782 20.062, 43.675 15, 42.066 15 C 41.636 15, 39.376 19.163, 37.043 24.250 M 92.761 23.649 C 80.268 32.134, 63.299 44.908, 60.691 47.789 C 59.095 49.552, 59.144 49.786, 61.582 52.077 C 63.685 54.053, 65.208 54.500, 69.831 54.500 C 72.949 54.500, 77.663 53.872, 80.307 53.104 C 84.506 51.885, 85.415 51.114, 87.492 47.015 C 88.800 44.434, 93.180 38.087, 97.225 32.911 C 101.270 27.735, 105.349 22.278, 106.290 20.785 C 110.878 13.501, 106.263 14.478, 92.761 23.649 M 145 39.166 C 140.875 39.664, 136.262 39.842, 134.750 39.561 C 131.511 38.959, 131.545 38.748, 133.653 46.261 C 135.110 51.453, 135.556 52.082, 137.403 51.558 C 141.857 50.293, 158.994 48.099, 169.500 47.449 C 183.643 46.572, 184.728 45.962, 177.883 42.729 C 168.432 38.266, 160.007 37.353, 145 39.166 M 53.252 55.750 C 48.656 61.660, 48.651 62.083, 53.214 59.474 C 55.571 58.127, 58.288 57.019, 59.250 57.012 C 61.505 56.997, 61.475 55.740, 59.171 53.655 C 56.703 51.421, 56.586 51.462, 53.252 55.750 M 85.813 54.683 C 86.534 54.972, 87.397 54.936, 87.729 54.604 C 88.061 54.272, 87.471 54.036, 86.417 54.079 C 85.252 54.127, 85.015 54.364, 85.813 54.683 M 132.545 58.859 C 131.826 61.122, 132.513 63, 134.059 63 C 135.238 63, 135.260 59.958, 134.094 58.118 C 133.406 57.031, 133.074 57.190, 132.545 58.859 M 84.670 71.750 C 79.223 86.400, 76.579 95.381, 75.619 102.500 L 74.945 107.500 77.086 105 C 80.439 101.085, 86.294 88.750, 91.881 73.829 C 94.696 66.310, 97 59.897, 97 59.579 C 97 59.260, 95.293 59, 93.206 59 L 89.412 59 84.670 71.750 M 98.525 62.886 C 97.242 68.725, 89.192 88.811, 84.468 97.958 C 80.225 106.173, 79.906 107.245, 81.250 108.788 C 83.182 111.005, 86.056 120.032, 90.471 137.740 C 94.475 153.801, 97.388 162.247, 99.539 164.033 C 100.761 165.047, 101.340 164.486, 103.043 160.635 C 107.002 151.685, 109.170 138.551, 109.420 121.996 C 109.587 110.993, 110.072 105.622, 111.091 103.496 C 116.193 92.852, 122.035 112.408, 121.960 139.881 C 121.938 147.921, 121.315 157.875, 120.575 162 C 119.315 169.019, 119.355 169.707, 121.186 172.734 C 125.205 179.374, 131.057 181.848, 134.237 178.250 C 135.088 177.287, 138.504 171.052, 141.828 164.393 C 151.506 145.006, 156.284 142.740, 166.851 152.523 L 172.817 158.046 173.411 154.273 C 179.142 117.913, 175.418 90.937, 163.587 83.108 C 160.192 80.861, 158.573 80.500, 151.906 80.500 C 147.650 80.500, 143.922 80.744, 143.624 81.043 C 143.325 81.342, 143.755 84.475, 144.579 88.007 C 149.416 108.742, 151.755 134.175, 149.117 137.357 C 147.399 139.430, 145.502 138.120, 144.576 134.219 C 144.221 132.724, 143.539 123.175, 143.060 113 C 142.148 93.621, 140.934 87.446, 136.869 81.514 C 131.888 74.244, 126.826 73.317, 117.766 78.014 C 112.266 80.866, 110.852 81.248, 109.790 80.171 C 108.734 79.098, 109.001 78.427, 111.264 76.466 C 112.784 75.149, 115.934 73.556, 118.264 72.926 C 125.325 71.016, 132.212 66.878, 130.755 65.422 C 129.910 64.576, 113.463 61.378, 105.086 60.430 L 99.210 59.765 98.525 62.886 M 135.625 66.798 C 135.354 67.237, 135.545 68.249, 136.051 69.048 C 136.768 70.182, 136.973 70.007, 136.985 68.250 C 137 65.937, 136.492 65.394, 135.625 66.798 M 130.511 70.368 C 128.716 71.681, 128.738 71.788, 131.070 72.988 C 132.406 73.677, 134.963 75.624, 136.750 77.316 C 138.537 79.008, 140 79.928, 140 79.360 C 140 78.521, 133.161 69, 132.557 69 C 132.461 69, 131.540 69.616, 130.511 70.368 M 146.240 121 C 146.218 125.125, 146.560 129.625, 147 131 C 147.653 133.038, 147.801 132.669, 147.801 129 C 147.802 126.525, 147.460 122.025, 147.042 119 L 146.282 113.500 146.240 121" stroke="none" fill="black" fill-rule="evenodd"/>
</svg>