<svg xmlns="http://www.w3.org/2000/svg" width="200" height="200" viewBox="0 0 200 200" version="1.1">
	<path d="M 38.333 20.274 C 35.755 23.209, 32.437 28.880, 23.750 45.194 C 19.949 52.333, 20.017 61.269, 24 78 C 29.284 100.193, 27.809 111.786, 18.101 124.370 C 14.494 129.045, 14 130.318, 14 134.942 C 14 139.625, 14.385 140.585, 17.527 143.727 L 21.054 147.254 29.068 146.790 C 36.005 146.388, 38.201 145.759, 45.406 142.106 C 49.984 139.784, 56.225 135.661, 59.276 132.942 C 64.738 128.073, 70 119.592, 70 115.655 C 70 114.489, 71.027 115.677, 72.547 118.601 C 73.947 121.295, 76.232 124.521, 77.623 125.768 L 80.153 128.036 75.622 133.076 C 68.437 141.067, 65.614 147.921, 65.564 157.500 C 65.529 163.961, 65.960 166.325, 67.801 169.789 C 73.948 181.355, 87.325 180.499, 96.537 167.950 C 100.662 162.330, 106.877 148.895, 107.153 145 C 107.250 143.625, 107.636 148.575, 108.010 156 C 108.955 174.763, 111.298 180, 118.743 180 C 122.228 180, 124.010 178.648, 126.885 173.820 C 130.006 168.580, 135.287 164.271, 140.237 162.926 C 145.903 161.386, 154.314 162.934, 165.184 167.518 C 174.041 171.254, 177.745 171.829, 178.600 169.601 C 179.296 167.787, 175.255 159.880, 167.559 148 C 164.175 142.775, 161.075 137.957, 160.670 137.293 C 160.190 136.504, 162.400 134.462, 167.049 131.399 C 175.490 125.838, 181 120.844, 181 118.754 C 181 115.782, 178.040 114.935, 164.836 114.127 C 157.469 113.676, 150.448 112.775, 149.233 112.125 C 147.046 110.954, 145.182 106.484, 146.381 105.286 C 146.723 104.944, 152.385 104.259, 158.964 103.764 C 173.303 102.684, 180.500 101.096, 180.500 99.013 C 180.500 96.771, 176.999 95.514, 159.500 91.476 C 150.700 89.445, 142.375 87.189, 141 86.463 L 138.500 85.143 142 83.678 C 143.925 82.872, 150.107 81.413, 155.737 80.435 C 163.574 79.073, 166.468 78.130, 168.081 76.413 C 172.440 71.774, 168.134 68.473, 153.782 65.454 C 143.607 63.314, 142.958 62.710, 148.188 60.252 C 153.434 57.786, 168.389 53.092, 183.500 49.169 C 191.261 47.154, 194.592 45.841, 194.813 44.709 C 195.063 43.429, 194.458 43.197, 191.813 43.558 C 183.725 44.662, 160.605 45.997, 150.050 45.970 C 136.718 45.934, 136.658 46.049, 153.727 38.912 C 168.709 32.647, 173.820 29.566, 174.638 26.308 C 175.415 23.212, 173.562 21.498, 167.749 19.932 C 164.359 19.020, 163.238 19.250, 157.635 22.008 C 153.972 23.811, 148.966 25.354, 145.677 25.694 C 139.695 26.311, 127.203 24.733, 120.484 22.511 C 115.103 20.731, 90.339 18.635, 81.860 19.242 C 69.119 20.154, 66.717 24.814, 74.250 34.008 C 84.667 46.723, 85.972 48.623, 85.986 51.095 C 86.006 54.711, 83.618 56.470, 75.392 58.900 C 65.908 61.702, 63.720 61.571, 59.601 57.955 C 55.540 54.389, 53.071 47.748, 49.951 32 C 46.874 16.473, 44.115 13.688, 38.333 20.274 M 40.276 22.250 C 38.274 24.424, 31.380 36.194, 26.074 46.498 C 22.587 53.269, 22.705 61.051, 26.520 76 C 28.879 85.241, 29.460 89.661, 29.478 98.500 C 29.499 108.756, 29.291 109.939, 26.403 116 C 24.700 119.575, 21.616 124.510, 19.550 126.967 C 16.259 130.883, 15.859 131.914, 16.316 135.316 C 17.393 143.346, 23.875 146.275, 34.419 143.497 C 46.262 140.376, 59.450 131.208, 64.507 122.579 C 70 113.206, 65.911 107.489, 51.631 104.575 L 45.500 103.323 45.795 99.912 C 46.391 93.010, 49.171 79.569, 50.558 76.888 C 52.408 73.310, 53.533 72.680, 55.854 73.922 C 58.230 75.194, 60.945 80.944, 67.054 97.647 C 74.710 118.582, 78.371 125, 82.655 125 C 86.202 125, 85.528 126.765, 79.616 132.964 C 69.133 143.954, 65.337 157.191, 69.784 167.245 C 75.045 179.138, 87.140 177.587, 95.997 163.884 C 101.258 155.744, 102.767 151.442, 106.965 132.623 C 108.983 123.576, 110.986 116.719, 111.530 117 C 112.102 117.295, 112.295 120.986, 112 126 C 110.956 143.742, 111.442 169.363, 112.887 172.788 C 115.374 178.683, 120.790 179.240, 123.559 173.886 C 125.990 169.184, 131.049 164.015, 135.386 161.803 C 143.284 157.774, 153.605 159.342, 172.250 167.405 C 174.313 168.297, 176 168.778, 176 168.474 C 176 167.100, 171.129 158.593, 164.564 148.500 C 160.629 142.450, 157.112 137.012, 156.748 136.415 C 156.360 135.779, 159.924 132.792, 165.358 129.198 C 175.098 122.756, 178.795 119.462, 177.611 118.278 C 177.221 117.887, 171.185 117.284, 164.198 116.937 C 149.886 116.227, 145.497 114.747, 144.312 110.232 C 143.534 107.269, 143.774 103.920, 144.846 102.790 C 145.217 102.400, 151.741 101.584, 159.345 100.976 C 178.963 99.410, 179.496 98.893, 164.851 95.628 C 146.816 91.609, 139.598 89.318, 137.437 86.930 C 135.538 84.832, 135.542 84.789, 137.853 82.918 C 140.536 80.745, 144.873 79.456, 156.203 77.464 C 163.718 76.143, 167 74.786, 167 72.999 C 167 71.887, 162.426 70.234, 154.500 68.481 C 144.863 66.349, 142 65.083, 142 62.951 C 142 59.900, 146.533 57.343, 158.767 53.492 C 165.220 51.461, 171.625 49.431, 173 48.982 C 174.375 48.532, 167.814 48.420, 158.420 48.733 C 138.818 49.386, 135.722 48.967, 136.185 45.724 C 136.437 43.962, 138.717 42.562, 147.500 38.773 C 163.405 31.912, 171.451 27.613, 171.802 25.789 C 172.009 24.714, 170.917 23.798, 168.466 22.989 C 165.156 21.896, 164.211 22.063, 158.161 24.807 C 149.210 28.865, 143.609 29.434, 131.060 27.557 C 119.457 25.822, 119.550 25.788, 118.465 32.208 C 117.958 35.207, 118.675 38.110, 122.049 46.728 C 126.945 59.232, 132.496 80.422, 133.515 90.500 C 134.151 96.791, 135.286 99.558, 144.715 117.813 C 150.485 128.986, 154.982 138.352, 154.707 138.627 C 153.762 139.571, 143.498 141.976, 140.361 141.988 C 138.634 141.995, 136.159 141.141, 134.861 140.090 C 132.554 138.224, 132.488 137.718, 131.986 117.840 L 131.471 97.500 123.852 82 L 116.233 66.500 116.735 79.500 C 117.822 107.650, 112.202 114.841, 97.328 104.328 C 94.349 102.223, 89.468 99.276, 86.482 97.780 C 77.192 93.125, 77.774 89.391, 90.033 75 C 99.208 64.230, 104.178 57.532, 106.784 52.423 C 108.834 48.405, 108.834 48.371, 106.920 41.468 C 104.625 33.190, 104.482 28.185, 106.460 25.361 C 107.881 23.331, 107.759 23.260, 101.813 22.638 C 91.825 21.594, 77.705 21.925, 75.079 23.265 C 71.430 25.126, 71.555 26.286, 75.975 31.615 C 86.131 43.859, 89 48.225, 89 51.436 C 89 55.994, 85.715 58.623, 76.404 61.515 C 67.196 64.375, 64.919 64.527, 61.069 62.536 C 54.432 59.103, 50.818 51.356, 47.437 33.312 C 45.624 23.641, 44.465 20, 43.199 20 C 42.731 20, 41.416 21.012, 40.276 22.250 M 109.200 26.200 C 108.540 26.860, 108.003 29.222, 108.006 31.450 C 108.011 35.556, 109.805 43.528, 110.554 42.779 C 110.779 42.554, 111.315 39.924, 111.745 36.935 C 112.262 33.347, 112.998 31.500, 113.913 31.500 C 115.250 31.500, 116.785 28.830, 116.930 26.250 C 117.021 24.628, 110.812 24.588, 109.200 26.200 M 112.478 46.099 C 112.075 47.937, 112.246 49.646, 112.899 50.299 C 113.700 51.100, 114 50.257, 114 47.200 C 114 42.227, 113.421 41.807, 112.478 46.099 M 116.467 46.326 C 115.008 54.100, 116.393 59.956, 123.013 74 C 126.512 81.425, 129.698 87.884, 130.091 88.354 C 131.976 90.602, 126.640 68.163, 122.114 54.812 C 117.967 42.578, 117.345 41.644, 116.467 46.326 M 106.742 57.704 C 104.763 60.892, 100.524 66.596, 97.322 70.380 C 80.649 90.083, 80.058 91.725, 88.250 95.582 C 91.138 96.941, 95.939 99.841, 98.921 102.027 C 106.002 107.217, 110.148 107.444, 112.129 102.750 C 114.142 97.979, 113.895 59.824, 111.821 55.204 L 110.342 51.907 106.742 57.704 M 52.980 78.038 C 51.682 80.463, 49 93.962, 49 98.069 C 49 100.411, 49.524 101.078, 51.750 101.571 C 57.575 102.860, 61.030 104.210, 64.451 106.531 C 66.403 107.856, 68 108.814, 68 108.660 C 68 108.507, 66.044 103.008, 63.654 96.441 C 59.500 85.027, 55.464 76, 54.515 76 C 54.270 76, 53.580 76.917, 52.980 78.038 M 135.026 120.559 C 134.994 139.098, 135.213 139.567, 143.493 138.713 C 146.678 138.384, 149.722 137.678, 150.256 137.144 C 150.885 136.515, 148.373 130.760, 143.140 120.836 L 135.052 105.500 135.026 120.559" stroke="none" fill="black" fill-rule="evenodd"/>
</svg>