<svg xmlns="http://www.w3.org/2000/svg" width="200" height="200" viewBox="0 0 200 200" version="1.1">
	<path d="M 68.266 21.484 C 63.721 23.460, 56.123 30.805, 46.350 42.669 C 35.607 55.712, 31 62.594, 31 65.600 C 31 68.999, 33.875 68.748, 45.150 64.365 C 57.222 59.673, 63.429 58.023, 69 58.027 C 77.286 58.032, 81.290 62.038, 82.544 71.579 L 83.212 76.658 72.856 79.391 C 56.227 83.780, 37.763 89.792, 34.250 91.962 C 32.462 93.067, 31 94.675, 31 95.536 C 31 97.330, 35.661 99.518, 41.500 100.466 C 50.048 101.853, 50.129 101.891, 49.022 103.959 C 48.460 105.009, 48 107.083, 48 108.568 C 48 110.555, 45.801 113.678, 39.682 120.384 C 18.768 143.306, 13.428 152.065, 19.447 153.576 C 22.866 154.434, 26.856 152.945, 48.252 142.822 C 71.808 131.676, 71.879 131.660, 74.771 136.807 C 75.997 138.988, 77 141.654, 77 142.731 C 77 146.685, 71.024 149.913, 59.931 151.951 C 51.770 153.451, 50.135 154.356, 51.534 156.602 C 52.898 158.792, 59.118 161.162, 77.361 166.443 L 92.433 170.806 88.466 171.866 C 80.173 174.082, 64.857 176.067, 47.500 177.175 C 18.270 179.040, 21.120 180.727, 58.840 183.888 C 78.679 185.551, 85.519 185.814, 86.554 184.955 C 87.562 184.118, 97.318 184.007, 123.214 184.537 C 160.788 185.305, 167.700 184.792, 171.855 180.920 C 175.339 177.674, 174.573 174.486, 168.855 168.440 C 166.025 165.448, 163.063 163, 162.273 163 C 161.483 163, 158.961 164.523, 156.668 166.384 C 154.376 168.244, 149.575 171.260, 146 173.084 C 140.571 175.854, 138.373 176.409, 132.666 176.451 C 126.388 176.496, 125.634 176.271, 123.416 173.694 C 118.389 167.856, 121.697 160.399, 131.481 155.513 C 136.917 152.798, 138.374 152.525, 147.481 152.513 C 152.991 152.506, 159.637 152.865, 162.250 153.311 C 166.166 153.980, 167 153.859, 167 152.623 C 167 151.594, 165.508 150.912, 162.250 150.452 C 152.866 149.128, 143.337 146.932, 134 143.944 C 120.078 139.488, 117.930 137.164, 125.792 135.064 C 131.488 133.542, 150.166 132.006, 163.500 131.963 L 175.500 131.924 170.269 127.043 C 167.392 124.359, 162.442 120.889, 159.269 119.332 L 153.500 116.500 129.983 116.500 L 106.466 116.500 99.974 113.306 C 96.403 111.549, 92.222 108.798, 90.684 107.192 L 87.887 104.273 92.783 103.623 C 95.476 103.266, 107.989 103.011, 120.590 103.056 C 146.034 103.147, 150.767 102.329, 161.860 95.927 C 167.085 92.912, 184 77.582, 184 75.862 C 184 75.388, 178.713 74.997, 172.250 74.994 C 155.357 74.986, 149 72.806, 149 67.021 C 149 65.553, 150.125 60.594, 151.500 56 C 152.875 51.406, 153.996 45.589, 153.990 43.074 C 153.978 37.161, 150.384 29.598, 145.244 24.668 L 141.248 20.836 136.874 22.312 C 130.824 24.352, 97.407 33, 95.573 33 C 94.751 33, 91.578 30.964, 88.523 28.476 C 77.799 19.741, 74.720 18.678, 68.266 21.484 M 66.400 25.885 C 57.123 32.749, 32.343 62.676, 34.309 64.643 C 34.640 64.974, 39.863 63.389, 45.915 61.121 C 63.729 54.444, 72.477 53.461, 78.569 57.453 C 81.544 59.403, 84.946 66.195, 84.978 70.250 C 85.006 73.726, 85.942 73.714, 89.315 70.193 L 92.004 67.386 84.002 60.125 C 79.601 56.132, 76 52.161, 76 51.300 C 76 48.907, 82.066 50.104, 92.363 54.527 L 101.147 58.300 108.062 51.439 C 112.859 46.678, 114.657 44.259, 113.931 43.538 C 113.285 42.897, 105.365 42.471, 93.193 42.424 C 82.362 42.382, 73.107 42.269, 72.628 42.174 C 70.009 41.653, 75.087 38.992, 82.506 36.998 C 87.178 35.743, 90.985 34.442, 90.966 34.108 C 90.948 33.774, 87.753 31.138, 83.867 28.250 C 75.444 21.992, 72.247 21.559, 66.400 25.885 M 130.010 34.310 C 123.483 40.649, 119.443 45.355, 119.318 46.763 C 119.208 48.007, 118.184 50.337, 117.043 51.939 C 114.391 55.663, 104.985 62.598, 103.156 62.178 C 102.387 62.001, 100.557 63.009, 99.087 64.417 L 96.415 66.976 104.244 74.942 C 108.833 79.612, 112.927 84.841, 114.138 87.579 C 116.192 92.222, 116.192 92.265, 114.250 94.875 C 111.876 98.063, 109.525 98.575, 88.500 100.478 C 79.191 101.321, 77.100 101.644, 83.500 101.251 C 89.550 100.879, 105.750 100.536, 119.500 100.489 C 141.843 100.411, 145.098 100.189, 150.127 98.398 C 158.263 95.500, 166.148 90.419, 172.551 83.948 L 178.150 78.290 167.325 77.771 C 155.590 77.207, 150.240 75.608, 147.631 71.883 C 145.428 68.738, 145.590 65.917, 148.515 56.500 C 152.694 43.044, 151.311 34.348, 143.872 27.310 L 140.500 24.119 130.010 34.310 M 117.528 30.419 C 105.291 33.677, 102.164 34.824, 104.156 35.324 C 109.228 36.597, 129.187 31.241, 132.787 27.641 C 133.690 26.739, 134.220 26.037, 133.964 26.083 C 133.709 26.129, 126.313 28.080, 117.528 30.419 M 121.500 35.702 C 117.810 37.142, 106.020 37.799, 96 37.123 C 94.075 36.994, 90.475 37.518, 88 38.288 C 83.677 39.634, 83.932 39.671, 94.500 39.219 C 102.740 38.866, 107.119 39.164, 111.954 40.406 L 118.408 42.063 122.439 38.032 C 124.656 35.814, 126.252 34.032, 125.985 34.070 C 125.718 34.109, 123.700 34.843, 121.500 35.702 M 109.941 53.697 C 105.150 58.669, 104.978 58.978, 108.500 56.282 C 113.193 52.690, 116.515 49.182, 115.852 48.519 C 115.594 48.261, 112.934 50.591, 109.941 53.697 M 82.500 54.942 C 83.600 56.196, 86.670 59.042, 89.323 61.266 L 94.146 65.309 96.635 62.819 L 99.125 60.330 91.312 57.044 C 80.023 52.295, 80.221 52.343, 82.500 54.942 M 84.500 78.652 C 77.304 85.510, 75.201 88.015, 77 87.585 C 78.375 87.256, 84.225 86.065, 90 84.937 C 95.775 83.809, 101.978 82.574, 103.785 82.193 L 107.070 81.500 100.785 75.310 L 94.500 69.121 84.500 78.652 M 66.443 83.939 C 52.844 87.706, 40.212 91.839, 36.619 93.697 C 34.091 95.004, 33.898 95.363, 35.299 96.148 C 36.203 96.653, 40.534 97.590, 44.925 98.230 C 51.887 99.245, 53.137 99.191, 54.704 97.808 C 55.692 96.936, 59.650 94.637, 63.500 92.700 C 69.580 89.640, 80.118 80.862, 77.453 81.077 C 76.929 81.119, 71.975 82.407, 66.443 83.939 M 90.275 88.446 C 72.696 92.901, 65.941 95.437, 65.183 97.865 C 64.726 99.327, 63.087 99.380, 94.500 96.910 C 108.221 95.830, 113.005 94.490, 112.996 91.727 C 112.991 90.093, 109.235 83.989, 108.265 84.040 C 107.844 84.062, 99.749 86.044, 90.275 88.446 M 51.966 104.750 C 51.212 106.263, 50.391 107.950, 50.142 108.500 C 49.894 109.050, 51.110 108.178, 52.845 106.563 C 56.232 103.410, 56.795 102, 54.669 102 C 53.937 102, 52.721 103.237, 51.966 104.750 M 55.638 107.860 C 51.421 112.141, 50.947 113.032, 51.916 114.843 C 54.746 120.130, 64.804 125.003, 72.876 124.996 C 82.057 124.989, 86.805 118.999, 85.160 109.500 L 84.468 105.500 77.984 104.817 C 74.418 104.441, 69.018 103.869, 65.985 103.544 L 60.470 102.954 55.638 107.860 M 87.996 113.699 C 87.992 119.759, 85.429 124.094, 80.455 126.454 C 72.647 130.160, 57.414 125.965, 51.170 118.391 L 48.300 114.908 40.320 123.704 C 26.211 139.255, 18.883 149.216, 20.420 150.753 C 21.500 151.834, 29.271 148.825, 46.845 140.521 C 56.555 135.932, 66.399 131.621, 68.719 130.940 C 72.697 129.773, 73.053 129.839, 74.940 132.101 C 76.042 133.420, 77.676 136.370, 78.571 138.656 C 79.970 142.226, 80.010 143.207, 78.850 145.625 C 77.020 149.437, 70.929 152.652, 62.771 154.110 C 59.047 154.776, 56 155.685, 56 156.130 C 56 156.957, 73.610 162.666, 91.455 167.623 C 101.176 170.324, 101.340 170.418, 98.455 171.635 C 93.046 173.916, 78.455 176.970, 66.069 178.412 C 59.337 179.196, 53.642 180.024, 53.414 180.252 C 53.187 180.480, 59.949 181.222, 68.441 181.900 C 80.488 182.862, 84.377 182.869, 86.131 181.930 C 87.841 181.015, 94.381 180.939, 113.440 181.613 C 156.747 183.146, 170.107 182.134, 170.812 177.269 C 171.195 174.627, 168.665 170.610, 164.956 167.969 L 162.176 165.989 154.844 171.040 C 138.623 182.214, 122.616 182.457, 119.028 171.584 C 116.105 162.727, 124.131 153.486, 137.329 150.513 L 142.391 149.373 135.946 147.580 C 126.849 145.050, 119.218 141.261, 118.470 138.904 C 116.798 133.637, 124.683 131.293, 149.208 129.767 C 169.623 128.497, 169.790 128.411, 161.384 123.485 C 153.659 118.958, 144.777 117.735, 129.032 119.032 C 109.968 120.603, 101.240 118.825, 91.250 111.335 L 88 108.898 87.996 113.699" stroke="none" fill="black" fill-rule="evenodd"/>
</svg>