<svg xmlns="http://www.w3.org/2000/svg" width="200" height="200" viewBox="0 0 200 200" version="1.1">
	<path d="M 129 20.442 C 129 23.526, 129.900 28.611, 131 31.740 C 134.273 41.052, 134.031 41.405, 126.750 37.943 C 123.313 36.308, 118.864 34.703, 116.864 34.376 C 113.383 33.806, 113.201 33.575, 112.585 28.933 C 111.812 23.101, 107.983 18, 104.379 18 C 100.310 18, 95.308 20.632, 90.079 25.523 C 81.667 33.391, 77.331 39.850, 74.550 48.652 C 73.140 53.115, 71.345 57.299, 70.560 57.950 C 68.483 59.674, 66.751 56.554, 61.470 41.579 C 59.009 34.601, 56.269 27.454, 55.381 25.696 C 48.718 12.509, 40.965 16.421, 32.981 37 C 32.234 38.925, 30.591 41.881, 29.331 43.569 C 23.172 51.815, 22.630 60.818, 27.095 80.711 C 29.670 92.185, 30.127 96.095, 29.814 104 C 29.491 112.147, 28.980 114.475, 26.226 120.347 C 23.013 127.196, 19.250 132.702, 13.694 138.683 L 10.738 141.866 12.653 145.183 C 17.952 154.360, 34.696 154.452, 52.022 145.400 C 65.722 138.241, 75.074 126.540, 73.557 118.454 C 72.095 110.659, 62.218 104.585, 45.559 101.235 L 37.617 99.639 43.559 94.203 C 59.545 79.578, 78.853 65, 82.237 65 C 84.642 65, 84.482 66.786, 80.994 78.879 C 77.376 91.420, 77.138 97.138, 80.110 100.110 C 82.894 102.894, 87.932 102.148, 97.815 97.487 L 105.130 94.037 110.992 96.996 C 120.977 102.037, 120.666 102.272, 100.438 104.975 C 81.623 107.489, 75 110.304, 75 115.787 C 75 119.169, 78.321 124.270, 83.115 128.252 L 87.105 131.567 82.401 140.033 C 74.728 153.845, 65.002 174.336, 65.001 176.691 C 64.999 181.834, 67.678 180.774, 80.500 170.561 C 85.450 166.618, 91.653 161.922, 94.283 160.125 C 104.555 153.110, 113.360 151.040, 118.529 154.427 C 122.141 156.794, 122.354 154.889, 119.497 145.773 C 116.577 136.457, 115.008 123, 116.841 123 C 118.895 123, 122.941 130.441, 124.647 137.351 C 127.539 149.071, 124.459 159.612, 115.536 168.536 C 110.746 173.325, 108.365 174.806, 99.750 178.354 C 95.970 179.910, 94.697 182, 97.530 182 C 98.372 182, 101.670 180.901, 104.860 179.559 C 114.361 175.560, 122.601 174.599, 138.990 175.578 C 173.520 177.642, 177.257 176.858, 182.500 166.454 C 185.444 160.611, 185.500 160.216, 185.480 145.314 C 185.470 136.961, 185.151 129.817, 184.772 129.438 C 184.393 129.059, 180.972 131.056, 177.169 133.875 C 173.367 136.694, 170.020 139, 169.732 139 C 169.444 139, 171.242 134.466, 173.727 128.925 C 181.428 111.751, 179.683 103.138, 167.785 99.600 C 166.219 99.134, 166.282 98.612, 168.502 93.591 C 172.233 85.155, 175.068 72.676, 175.111 64.501 C 175.174 52.374, 171.324 47.014, 162.421 46.835 C 158.634 46.759, 158 46.476, 158.584 45.122 C 167.078 25.426, 166.409 21.005, 156 28.058 C 145.077 35.460, 138.543 37.564, 135.999 34.499 C 135.314 33.673, 134.021 29.098, 133.126 24.331 C 131.195 14.039, 129 11.970, 129 20.442 M 44.029 21.971 C 41.978 24.022, 36.827 33.678, 35.492 37.974 C 35.069 39.335, 33.098 42.896, 31.112 45.887 C 25.939 53.677, 25.658 61.787, 29.897 80.849 C 31.603 88.525, 33 96.001, 33 97.463 C 33 99.919, 33.765 99.435, 43.043 91.107 C 62.636 73.521, 76.100 63.529, 81.717 62.406 C 84.494 61.851, 85.092 62.108, 86.084 64.285 C 87.035 66.372, 86.710 68.675, 84.198 77.653 C 80.004 92.640, 79.692 94.556, 81.032 97.060 C 82.015 98.897, 82.813 99.154, 86.145 98.707 C 88.317 98.416, 93.461 96.579, 97.576 94.624 C 105.914 90.665, 105.884 90.662, 115.305 96.342 C 119.336 98.773, 120.061 99.663, 119.805 101.870 C 119.537 104.183, 118.837 104.641, 114 105.672 C 110.975 106.316, 103.178 107.532, 96.673 108.374 C 83.097 110.132, 78.679 112.059, 78.169 116.446 C 77.893 118.829, 78.856 120.262, 84.075 125.228 L 90.311 131.162 86.102 138.831 C 78.059 153.485, 67.664 174.997, 68.312 175.646 C 68.671 176.004, 71.335 174.397, 74.232 172.074 C 96.216 154.447, 104.813 149.586, 112.993 150.154 C 117.064 150.437, 117.891 150.225, 117.506 149 C 112.970 134.558, 111.941 124.268, 114.777 121.702 C 117.519 119.220, 120.949 121.549, 124.352 128.203 C 131.023 141.247, 129.100 157.514, 119.570 168.647 L 116.150 172.642 128.825 172.571 C 135.796 172.532, 148.025 172.876, 156 173.335 C 169.371 174.104, 170.773 174.019, 174 172.235 C 175.969 171.147, 178.577 168.377, 179.963 165.901 C 182.116 162.053, 182.477 159.964, 182.832 149.283 C 183.056 142.564, 182.973 136.371, 182.647 135.521 C 182.168 134.275, 180.781 134.848, 175.464 138.488 C 164.550 145.960, 163.385 144.461, 169.716 131.092 C 175.247 119.415, 176.867 112.508, 175.086 108.207 C 173.773 105.037, 168.886 102, 165.099 102 C 162.457 102, 162.424 100.049, 164.983 95.033 C 167.623 89.858, 171.575 75.916, 172.455 68.674 C 173.303 61.692, 171.683 53.928, 168.842 51.357 C 166.711 49.428, 160.581 48.918, 155.755 50.268 L 153.009 51.036 155.604 45.268 C 158.971 37.782, 162.123 28.790, 161.573 28.240 C 161.335 28.002, 159.070 29.232, 156.539 30.973 C 149.802 35.608, 141.245 39.280, 138.433 38.743 C 135.126 38.110, 135.231 40.396, 138.897 48.832 C 140.490 52.500, 142.108 57.867, 142.492 60.760 C 143.177 65.919, 143.269 66.039, 147.345 67.069 C 157.597 69.658, 167.500 73.555, 167.500 75 C 167.500 76.251, 165.838 76.457, 157.500 76.240 C 152 76.097, 146.433 75.737, 145.129 75.441 C 142.820 74.915, 142.776 75.026, 143.461 79.701 C 145.630 94.516, 147.651 98.558, 155.527 103.828 C 161.513 107.834, 163.170 111.152, 157.837 108.453 C 156.002 107.524, 153.037 105.669, 151.250 104.331 C 147.462 101.496, 147.468 101.466, 149.500 113 C 150.323 117.675, 150.998 123.445, 150.999 125.823 C 151.001 132.767, 148.456 130.784, 141.597 118.500 C 133.722 104.396, 129.911 98.877, 123.053 91.643 C 113.191 81.240, 104.115 78.582, 94.712 83.342 C 89.439 86.012, 88 85.393, 88 80.455 C 88 73.874, 93.087 71.967, 113 71.082 L 128.500 70.393 124.637 68.636 C 122.513 67.670, 118.536 66.614, 115.799 66.290 C 109.681 65.565, 108.541 63.575, 112.456 60.454 L 115.248 58.227 125.874 61.108 C 131.718 62.692, 136.760 63.991, 137.077 63.994 C 137.394 63.997, 136.998 60.288, 136.197 55.750 C 135.233 50.290, 134.024 46.706, 132.621 45.151 C 130.225 42.497, 123 38.631, 118.500 37.596 C 116.850 37.216, 114.712 36.671, 113.750 36.385 C 112.594 36.042, 112 36.410, 112 37.472 C 112 40.217, 108.097 46.890, 105.494 48.596 C 103.856 49.669, 102.097 49.990, 100.311 49.542 C 96.900 48.686, 91.612 43.128, 88.635 37.271 L 86.344 32.763 82.814 37.632 C 80.873 40.309, 78.312 45.747, 77.124 49.716 C 75.936 53.684, 73.930 58.132, 72.668 59.600 C 70.685 61.905, 70.075 62.110, 68.196 61.105 C 65.361 59.587, 63.822 56.483, 58.855 42.266 C 54.160 28.827, 52.599 25.411, 49.709 22.250 C 47.191 19.497, 46.535 19.465, 44.029 21.971 M 96.400 23.864 C 94.255 25.440, 91.409 27.915, 90.076 29.364 L 87.651 32 95.701 32 C 100.128 32, 105.156 32.281, 106.875 32.625 C 109.748 33.200, 110 33.036, 110 30.593 C 110 29.131, 109.348 26.375, 108.551 24.468 C 107.300 21.475, 106.637 21, 103.701 21 C 101.532 21, 98.887 22.038, 96.400 23.864 M 91 35.922 C 91 37.902, 97.732 45.534, 100.264 46.424 C 103.407 47.529, 106.076 45.644, 108.023 40.946 C 110.160 35.784, 109.040 35, 99.531 35 C 94.839 35, 91 35.415, 91 35.922 M 114.546 61.926 C 114.231 62.436, 116.457 63.368, 119.494 63.999 C 122.582 64.640, 127.258 66.654, 130.108 68.572 C 136.155 72.642, 139.293 73.073, 138.820 69.769 C 138.543 67.840, 136.948 67.101, 127 64.296 C 120.675 62.513, 115.414 61.042, 115.309 61.027 C 115.204 61.012, 114.860 61.417, 114.546 61.926 M 143 71 C 143 72.685, 143.670 73.002, 147.250 73.011 C 149.588 73.017, 153.300 73.237, 155.500 73.499 C 158.522 73.859, 157.667 73.369, 152 71.494 C 142.947 68.497, 143 68.500, 143 71 M 97.374 75.141 C 93.062 76.110, 89.363 79.160, 90.421 80.872 C 90.804 81.491, 92.797 81.093, 95.668 79.822 C 110.609 73.213, 126.953 85.812, 143.897 117 C 146.138 121.125, 147.971 123.600, 147.970 122.500 C 147.967 118.634, 143.130 93.450, 141.542 89.033 C 139.314 82.838, 135.305 76.234, 133.034 75.018 C 130.688 73.763, 103.085 73.858, 97.374 75.141 M 137 75.378 C 137 75.585, 137.675 76.315, 138.500 77 C 139.729 78.020, 140 77.951, 140 76.622 C 140 75.730, 139.325 75, 138.500 75 C 137.675 75, 137 75.170, 137 75.378 M 33 105.333 C 33 113.829, 26.612 127.714, 17.936 138.077 L 13.829 142.982 16.690 145.844 C 21.606 150.760, 31.420 150.872, 43.837 146.154 C 58.605 140.542, 71 128.922, 71 120.688 C 71 116.967, 66.947 111.847, 62 109.319 C 57.315 106.925, 45.930 103.755, 37.750 102.567 L 33 101.877 33 105.333" stroke="none" fill="black" fill-rule="evenodd"/>
</svg>