<svg xmlns="http://www.w3.org/2000/svg" width="200" height="200" viewBox="0 0 200 200" version="1.1">
	<path d="M 78.500 13.032 C 70.250 14.080, 56.750 15.205, 48.500 15.532 C 40.250 15.859, 32.437 16.344, 31.138 16.610 C 29.007 17.047, 28.921 17.262, 30.257 18.797 C 31.072 19.734, 31.535 21.063, 31.286 21.750 C 31.037 22.438, 31.321 23, 31.917 23 C 33.572 23, 33.230 28.906, 30.498 47.500 C 27.530 67.693, 27.383 68.215, 25.429 65.559 C 24.116 63.776, 24 63.993, 24 68.227 C 24 74.039, 24.749 76, 26.968 76 C 29.470 76, 33.040 85.855, 33.669 94.500 C 34.340 103.713, 32.184 110.416, 24.222 123.874 C 17.209 135.730, 15.973 140.601, 18.462 146.574 C 20.061 150.412, 26.566 158, 28.258 158 C 28.726 158, 31.673 156.278, 34.805 154.174 C 37.937 152.069, 46.738 146.611, 54.362 142.045 C 74.351 130.072, 78.920 125.464, 77.447 118.760 C 76.664 115.194, 69.444 107.093, 63.250 102.829 C 59.078 99.958, 59 99.797, 59 94.130 C 59 84.964, 61.374 79.665, 69.145 71.484 C 72.915 67.515, 76 63.550, 76 62.672 C 76 61.672, 74.602 60.707, 72.250 60.085 C 68.846 59.184, 47.825 57.035, 42.173 57.010 C 40.191 57.002, 40.561 56.461, 44.673 53.360 C 47.328 51.358, 51.822 47.758, 54.659 45.360 C 57.497 42.962, 60.152 41, 60.560 41 C 61.254 41, 65.429 43.601, 85.704 56.666 L 93.909 61.953 91.965 67.602 C 90.896 70.709, 86.596 80.423, 82.410 89.189 C 77.753 98.940, 74.760 106.486, 74.699 108.630 C 74.536 114.381, 78.290 115.401, 87.180 112.024 C 90.040 110.937, 92.513 110.179, 92.674 110.340 C 92.835 110.501, 91.590 114.203, 89.908 118.567 C 80.405 143.219, 81.032 161.602, 91.444 163.555 C 97.974 164.781, 105.936 158.687, 110.394 149.051 C 112.071 145.428, 112.499 142.562, 112.493 135 C 112.486 126.383, 112.186 124.866, 109.260 118.676 L 106.035 111.851 107.920 108.176 C 110.223 103.685, 114.478 99.559, 115.899 100.437 C 118.863 102.270, 119.500 109.790, 119.500 142.979 L 119.500 176.458 123.861 178.865 C 133.820 184.363, 139.938 181.098, 145.036 167.564 C 151.082 151.512, 152.745 149, 157.321 149 C 160.147 149, 165.310 151.717, 169.822 155.580 C 174.724 159.776, 174.211 160.990, 177.047 138.500 C 179.805 116.627, 179.499 97.957, 176.264 90.777 C 172.187 81.728, 163.546 79.729, 153.287 85.463 C 150.791 86.858, 148.580 88, 148.374 88 C 148.168 88, 148 84.542, 148 80.316 C 148 70.292, 145.556 64.831, 139.965 62.364 C 136.854 60.992, 135.774 59.784, 134.615 56.384 L 133.163 52.123 135.832 51.546 C 137.299 51.229, 146.600 51.089, 156.500 51.235 C 176.132 51.524, 179.067 50.879, 182.591 45.502 C 184.071 43.242, 184.831 36.498, 183.729 35.396 C 183.470 35.137, 177.688 35.891, 170.879 37.072 C 164.071 38.253, 154.675 39.253, 150 39.293 C 137.162 39.405, 132.163 36.166, 123.492 22.118 C 121.415 18.753, 119.057 16, 118.251 16 C 117.270 16, 117.005 16.578, 117.449 17.750 C 117.813 18.712, 120.561 25.874, 123.556 33.665 C 126.550 41.456, 128.999 48.206, 128.998 48.665 C 128.996 49.124, 126.557 50.774, 123.578 52.331 C 117.734 55.384, 113.555 60.406, 111.915 66.347 L 110.917 69.961 103.918 65.307 C 100.069 62.747, 97.126 60.113, 97.379 59.454 C 97.632 58.795, 98.149 56.192, 98.527 53.669 L 99.215 49.082 90.488 49.698 C 82.007 50.297, 81.792 50.258, 82.823 48.330 C 83.407 47.239, 88.577 42.215, 94.311 37.166 C 105.725 27.116, 110 21.818, 110 17.719 C 110 11.501, 101.048 10.169, 78.500 13.032 M 76.500 16.048 C 68.250 17.028, 60.825 17.870, 60 17.919 C 59.163 17.968, 59.908 18.866, 61.686 19.950 C 63.439 21.019, 65.392 22.864, 66.028 24.052 C 67.517 26.835, 66.522 32.066, 63.860 35.451 C 62.711 36.911, 61.936 38.223, 62.136 38.368 C 62.336 38.512, 66.276 41.020, 70.890 43.940 C 78.668 48.863, 79.353 49.114, 80.280 47.375 C 80.829 46.344, 84.254 42.808, 87.889 39.518 C 102.723 26.096, 107.149 21.128, 106.815 18.273 C 106.268 13.595, 100.633 13.182, 76.500 16.048 M 38.192 19.713 C 36.923 19.956, 36.052 20.655, 36.256 21.268 C 36.460 21.880, 41.774 25.625, 48.064 29.589 L 59.500 36.796 61.228 34.648 C 62.179 33.466, 63.256 30.958, 63.623 29.073 C 64.189 26.161, 63.891 25.303, 61.643 23.369 C 60.187 22.117, 57.310 20.625, 55.248 20.052 C 51.557 19.027, 42.705 18.851, 38.192 19.713 M 35.996 27.250 C 35.989 29.378, 30.960 63.224, 30.047 67.288 C 29.324 70.504, 29.638 72.135, 31.978 77.314 C 37.304 89.103, 38.081 99.844, 34.370 110.371 C 33.570 112.642, 30.177 119.127, 26.831 124.783 C 18.183 139.399, 17.977 144.895, 25.798 152.329 L 28.775 155.158 33.637 151.732 C 36.312 149.847, 44.800 144.558, 52.500 139.978 C 67.566 131.018, 75 124.726, 75 120.935 C 75 117.341, 70.617 111.837, 63.444 106.424 C 59.803 103.677, 56.657 100.466, 56.328 99.161 C 55.342 95.249, 56.664 85.548, 58.860 80.585 C 60 78.006, 63.681 73.035, 67.039 69.538 C 72.342 64.015, 72.891 63.100, 71.216 62.569 C 70.155 62.232, 61.290 61.308, 51.514 60.515 C 41.738 59.722, 33.539 58.872, 33.293 58.626 C 33.047 58.380, 35.563 56.334, 38.884 54.079 C 46.517 48.895, 57 40.201, 57 39.054 C 57 38.211, 37.959 26, 36.646 26 C 36.291 26, 35.998 26.563, 35.996 27.250 M 126.160 32 C 126.446 32.825, 127.896 36.875, 129.383 41 L 132.087 48.500 151.241 48.735 C 170.533 48.973, 176.601 48.256, 179.453 45.404 C 181.023 43.834, 182.587 39.254, 181.817 38.484 C 181.584 38.251, 176.301 38.947, 170.076 40.030 C 154.217 42.790, 142.953 42.657, 136.459 39.633 C 133.687 38.342, 130.118 35.759, 128.529 33.893 C 126.940 32.027, 125.874 31.175, 126.160 32 M 89.500 52.892 L 85.500 53.500 90 56.233 L 94.500 58.966 95.150 56.733 C 96.189 53.165, 96.087 51.990, 94.750 52.142 C 94.063 52.220, 91.700 52.557, 89.500 52.892 M 123.748 55.069 C 116.862 58.704, 111.655 69.812, 115.513 72.633 C 117.131 73.816, 117.705 73.537, 120.593 70.162 C 122.384 68.070, 125.909 65.265, 128.425 63.931 C 133.369 61.308, 133.555 60.891, 131.902 56.149 C 130.626 52.489, 129.035 52.278, 123.748 55.069 M 94.954 67.750 C 94.294 69.813, 90.210 78.972, 85.881 88.105 C 81.551 97.238, 77.711 106.194, 77.349 108.007 L 76.689 111.305 80.842 110.748 C 83.126 110.442, 87.971 108.798, 91.610 107.096 C 95.248 105.393, 98.352 104, 98.509 104 C 98.665 104, 96.810 108.880, 94.388 114.844 C 88.184 130.116, 85.709 140.556, 86.162 149.537 C 86.715 160.487, 91.008 163.732, 98.720 159.029 C 110.123 152.076, 113.339 134.074, 106.016 118.186 L 102.709 111.011 106.346 105.535 C 110.428 99.386, 113.903 96.642, 116.396 97.598 C 121.720 99.641, 123.379 113.658, 122.450 148.744 L 121.755 174.988 126.127 176.972 C 128.532 178.063, 131.280 178.966, 132.234 178.978 C 135.924 179.025, 139.992 173.672, 143.524 164.124 C 147.840 152.457, 150.208 148.571, 153.943 147.024 C 157.770 145.439, 161.903 146.422, 167.035 150.140 C 169.318 151.794, 171.446 152.887, 171.764 152.570 C 173.143 151.190, 175.052 134.147, 175.639 117.977 C 176.170 103.327, 176.004 99.525, 174.628 94.792 C 171.314 83.391, 163.654 81.909, 150.748 90.170 L 145.996 93.211 153.998 99.302 C 161.591 105.082, 163.187 107.148, 161.068 108.458 C 160.555 108.775, 157.561 107.896, 154.414 106.504 C 151.267 105.113, 148.582 104.092, 148.447 104.237 C 148.312 104.382, 148.811 107.650, 149.555 111.500 C 151.435 121.219, 152.317 135.203, 151.158 136.896 C 149.620 139.141, 147.184 137.407, 146.110 133.301 C 145.563 131.211, 144.806 126.237, 144.429 122.250 C 143.830 115.936, 143.952 115, 145.371 115 C 147.292 115, 147.370 113.825, 145.902 106.980 C 145.299 104.165, 144.182 101.623, 143.421 101.331 C 142.412 100.944, 142.302 100.304, 143.015 98.972 C 143.553 97.967, 143.758 96.550, 143.472 95.822 C 142.923 94.430, 121.237 79.324, 119.039 78.803 C 117.274 78.385, 115.168 84.513, 115.076 90.333 C 115.023 93.723, 114.628 95.043, 113.754 94.751 C 112.178 94.226, 111.132 88.421, 111.058 79.798 L 111 73.097 103.969 68.548 C 100.102 66.047, 96.762 64, 96.546 64 C 96.331 64, 95.615 65.688, 94.954 67.750 M 140.648 75.057 C 142.491 81.139, 144.029 86.876, 144.063 87.807 C 144.105 88.932, 144.469 88.661, 145.145 87 C 146.357 84.025, 145.423 73.948, 143.512 69.373 C 142.398 66.708, 139.476 64, 137.713 64 C 137.484 64, 138.804 68.976, 140.648 75.057 M 127.400 67.854 C 122.113 71.722, 119.436 74.862, 120.574 75.860 C 123.497 78.422, 141.213 90.120, 141.595 89.739 C 141.845 89.488, 140.464 84.049, 138.525 77.653 C 136.586 71.256, 135 65.792, 135 65.511 C 135 64.057, 130.833 65.342, 127.400 67.854 M 113.035 78.250 L 113.071 81.500 114.448 79.013 C 115.843 76.492, 115.654 75, 113.941 75 C 113.423 75, 113.016 76.463, 113.035 78.250 M 147 98.944 C 147 99.503, 148.912 100.894, 151.250 102.036 L 155.500 104.113 153 102.028 C 149.255 98.905, 147 97.746, 147 98.944 M 147.183 119.500 C 147.146 121.700, 147.488 125.300, 147.943 127.500 L 148.770 131.500 148.811 128 C 148.833 126.075, 148.491 122.475, 148.051 120 L 147.250 115.500 147.183 119.500" stroke="none" fill="black" fill-rule="evenodd"/>
</svg>