<svg xmlns="http://www.w3.org/2000/svg" width="200" height="200" viewBox="0 0 200 200" version="1.1">
	<path d="M 129.500 20.545 C 120.400 22.029, 95.718 22.341, 89.055 21.055 C 86.571 20.576, 83.609 20.578, 82.339 21.061 C 81.089 21.537, 74.539 22.642, 67.783 23.518 C 61.027 24.394, 52.350 25.808, 48.500 26.661 C 29.628 30.839, 17.678 41.432, 14.039 57.209 C 12.707 62.982, 12.755 77.122, 14.131 84.500 C 14.746 87.800, 15.155 98.005, 15.039 107.178 C 14.743 130.618, 16.801 139.106, 24.399 145.777 C 32.959 153.293, 46.609 149.666, 66.200 134.671 L 69.897 131.841 69.317 138.756 C 68.126 152.970, 72.549 166.488, 80.208 172.036 C 89.404 178.698, 99.196 179.486, 150.500 177.698 C 176.951 176.777, 180 176.446, 180 174.504 C 180 173.343, 177.951 173.202, 168.201 173.692 C 154.632 174.374, 152 173.620, 152 169.051 C 152 167.096, 153.944 163.551, 158.062 157.997 C 161.396 153.500, 164.613 148.750, 165.209 147.440 C 167.406 142.619, 162.779 140.848, 153.500 142.957 L 149.500 143.866 152.217 141.672 C 156.652 138.090, 160.003 132.852, 159.968 129.556 C 159.931 125.988, 158.860 124.444, 153.750 120.591 C 151.688 119.035, 150 117.375, 150 116.902 C 150 115.547, 157.640 111.986, 168 108.509 C 182.034 103.801, 181.442 102.769, 163.050 99.876 C 154.772 98.573, 148.009 97.281, 148.020 97.004 C 148.031 96.727, 151.148 95.040, 154.948 93.255 C 167.106 87.545, 175.181 77.607, 178.014 64.866 C 179.373 58.752, 178.930 39.194, 177.341 35.214 C 176.527 33.172, 175.402 34.618, 166.839 48.714 C 161.564 57.396, 156.754 64.391, 156.150 64.259 C 155.546 64.126, 148.634 64.694, 140.790 65.522 L 126.529 67.027 124.787 64.764 C 123.829 63.519, 123.034 62.218, 123.022 61.872 C 122.964 60.215, 126.863 58.626, 138.662 55.500 C 155.793 50.962, 159.440 49.609, 159.823 47.651 C 160.255 45.446, 153.911 45.404, 147.876 47.572 C 145.469 48.436, 140.443 49.738, 136.706 50.464 L 129.911 51.785 131.305 49.642 C 132.072 48.464, 134.411 44.754, 136.504 41.398 L 140.309 35.297 149.404 34.398 C 156.423 33.705, 158.500 33.158, 158.500 32 C 158.500 30.830, 156.886 30.435, 151.161 30.204 C 144.718 29.945, 143.902 29.701, 144.481 28.204 C 146.292 23.524, 146.203 21.179, 144.172 20.092 C 141.730 18.785, 139.947 18.840, 129.500 20.545 M 127 23.677 C 119.200 24.967, 113.250 24.988, 85.500 23.821 C 81.087 23.635, 49.067 29.090, 42.734 31.107 C 29.940 35.180, 20.908 43.836, 17.509 55.281 C 15.642 61.567, 15.575 77.926, 17.378 87.239 C 18.310 92.052, 18.451 96.912, 17.874 104.239 C 16.343 123.665, 19.930 140.103, 26.664 144.515 C 35.014 149.987, 49.418 145.104, 65.720 131.276 C 69.141 128.374, 72.072 126, 72.233 126 C 72.394 126, 72.520 132.638, 72.513 140.750 C 72.501 154.603, 72.660 155.841, 75.129 161.107 C 77.995 167.219, 82.122 170.956, 89.069 173.730 C 92.925 175.271, 96.810 175.489, 119.033 175.413 C 133.076 175.365, 145.727 175.034, 147.147 174.678 C 149.251 174.150, 149.640 173.569, 149.251 171.534 C 148.453 167.360, 149.713 164.566, 156.495 155.470 C 160.073 150.670, 163 146.351, 163 145.872 C 163 144.425, 156.866 144.886, 149.708 146.871 C 141.516 149.143, 140.026 147.969, 145.591 143.627 C 153.525 137.438, 157 133.141, 157 129.520 C 157 126.647, 156.316 125.633, 152.558 122.934 C 147.018 118.956, 146.357 117.313, 149.114 114.379 C 151.200 112.158, 162.484 106.911, 168.297 105.459 C 169.835 105.074, 170.889 104.556, 170.640 104.307 C 170.160 103.826, 140.690 98.928, 140.447 99.288 C 139.737 100.337, 128.104 121.718, 123.738 130 C 119.411 138.208, 118.310 141.185, 118.698 143.637 C 119.526 148.877, 113.759 160, 110.214 160 C 108.218 160, 109.117 154.615, 112.265 147.715 C 116.053 139.409, 115.387 131.094, 109.304 110.757 C 107.409 104.421, 106.370 102.278, 105.529 102.976 C 103.915 104.316, 100.238 90.362, 101.795 88.805 C 102.558 88.042, 103.462 88.709, 104.930 91.116 C 106.064 92.977, 107.127 94.900, 107.292 95.389 C 107.457 95.878, 109.991 94.463, 112.922 92.244 C 115.853 90.025, 125.282 84.295, 133.876 79.509 C 142.469 74.724, 150.400 69.909, 151.500 68.809 C 153.500 66.809, 153.500 66.809, 149.500 67.394 C 139.766 68.818, 111.555 71.016, 101.668 71.120 C 90.316 71.241, 87.589 70.406, 89.968 67.538 C 91.206 66.047, 106.814 60.688, 113.663 59.403 C 120.004 58.214, 117.089 55.532, 107.852 54.056 C 104.238 53.479, 96.605 51.658, 90.890 50.009 C 78.591 46.462, 74.020 46.215, 71.532 48.964 C 69.866 50.805, 69.856 51.184, 71.374 54.978 C 77.023 69.095, 77.705 110.643, 72.420 118.750 C 70.552 121.616, 69.431 121.587, 67.488 118.623 C 64.910 114.687, 63.957 110.230, 65.563 109.614 C 66.509 109.251, 67.282 110.333, 68.011 113.042 C 69.206 117.477, 70.463 118.115, 71.380 114.750 C 73.060 108.591, 74.004 88.622, 73.077 78.865 C 71.921 66.696, 70.197 58, 68.942 58 C 68.451 58, 67.926 65.313, 67.775 74.250 C 67.606 84.233, 67.114 90.500, 66.500 90.500 C 65.091 90.500, 64.687 62.690, 66.006 56.536 C 66.934 52.207, 66.831 51.247, 65.195 49.036 C 64.164 47.641, 62.081 45.893, 60.566 45.150 C 58.198 43.990, 57.204 44.032, 53.484 45.453 C 51.105 46.362, 48.739 47.644, 48.228 48.303 C 47.654 49.042, 47.676 53.135, 48.286 59 C 49.860 74.122, 46.439 105.296, 42.327 113.312 C 40.507 116.860, 37.934 116.484, 36.760 112.500 C 35.678 108.830, 36.473 89.940, 38.611 68.500 C 39.947 55.103, 40.543 52.135, 42.270 50.258 C 44.291 48.062, 44.298 47.897, 42.619 42.258 C 41.676 39.091, 40.675 35.816, 40.396 34.980 C 39.956 33.666, 41.011 33.554, 48.194 34.151 C 58.501 35.007, 88.307 35.203, 90.328 34.428 C 91.484 33.984, 91.621 33.166, 90.938 30.785 C 89.381 25.356, 92.539 24.226, 97.088 28.585 L 99.786 31.169 120.344 30.445 L 140.901 29.721 141.951 26.711 C 142.528 25.056, 143 23.319, 143 22.851 C 143 21.692, 137.179 21.992, 127 23.677 M 110.250 33.689 C 111.213 33.941, 112.787 33.941, 113.750 33.689 C 114.713 33.438, 113.925 33.232, 112 33.232 C 110.075 33.232, 109.287 33.438, 110.250 33.689 M 120.625 36.107 C 112.443 36.553, 105.619 37.048, 105.459 37.209 C 105.300 37.369, 107.635 40.763, 110.648 44.750 L 116.126 52 121.313 51.987 L 126.500 51.974 131.121 44.737 C 136.949 35.608, 137.296 34.967, 136.309 35.148 C 135.864 35.230, 128.806 35.661, 120.625 36.107 M 45.382 41.138 C 46.506 45.348, 47.233 45.653, 51 43.500 C 55.367 41.004, 61.480 41.604, 65.232 44.898 C 68.513 47.780, 68.546 47.786, 70.877 45.898 C 74.153 43.246, 77.840 43.505, 91.552 47.352 C 104.008 50.847, 112 52.442, 112 51.433 C 112 51.108, 109.638 47.767, 106.750 44.009 L 101.500 37.176 72.926 37.226 L 44.351 37.276 45.382 41.138 M 163.100 60.506 C 156.280 72.053, 148.986 84.405, 146.890 87.956 C 144.794 91.507, 143.235 94.568, 143.427 94.760 C 144.132 95.465, 155.983 90.108, 160.321 87.123 C 172.209 78.944, 178.447 62.910, 176.317 46.006 L 175.499 39.512 163.100 60.506 M 42.980 53.250 C 42.970 53.938, 42.291 60.350, 41.472 67.500 C 39.401 85.586, 38.354 112.517, 39.756 111.651 C 42.103 110.200, 45.950 84.700, 45.980 70.390 C 46.003 59.829, 45.102 52, 43.864 52 C 43.389 52, 42.991 52.563, 42.980 53.250 M 119 56 C 119 56.550, 119.873 57, 120.941 57 C 122.009 57, 123.160 56.550, 123.500 56 C 123.851 55.433, 123.010 55, 121.559 55 C 120.152 55, 119 55.450, 119 56 M 105.724 64.405 C 99.798 66.227, 94.623 68.053, 94.224 68.463 C 93.258 69.458, 119.264 68.007, 120.337 67.006 C 120.798 66.577, 120.685 65.923, 120.087 65.554 C 119.489 65.184, 119 64.009, 119 62.941 C 119 60.425, 118.479 60.483, 105.724 64.405 M 150.450 72.937 C 149.928 73.453, 143.650 77.126, 136.500 81.099 C 124.870 87.562, 116.148 93.065, 110.604 97.438 C 108.759 98.893, 108.808 99.267, 112.409 111.217 C 114.445 117.973, 116.378 126.338, 116.705 129.807 L 117.300 136.115 122.778 125.807 C 128.490 115.059, 149.242 78.159, 151.773 74.250 C 153.211 72.029, 152.294 71.118, 150.450 72.937" stroke="none" fill="black" fill-rule="evenodd"/>
</svg>