<svg xmlns="http://www.w3.org/2000/svg" width="200" height="200" viewBox="0 0 200 200" version="1.1">
	<path d="M 34.140 17.351 C 27.648 24.261, 20.449 60.881, 20.115 88.697 C 19.910 105.724, 20.403 108.615, 27.595 132.500 C 35.296 158.074, 34.826 164.722, 24.649 174.176 C 20.270 178.245, 18.808 180.199, 19.571 180.966 C 20.858 182.259, 27.679 177.665, 30.213 173.798 C 32.562 170.213, 45.939 163.596, 57 160.547 C 69.706 157.044, 71.286 156.356, 74.633 152.859 C 77.298 150.075, 77.495 149.321, 77.429 142.182 C 77.375 136.323, 76.581 132.150, 74.083 124.597 C 71.302 116.186, 70.908 113.850, 71.475 109.097 C 72.794 98.036, 76.929 85.320, 82.004 76.717 C 84.021 73.300, 84.208 73.218, 87.794 74.186 C 89.832 74.736, 91.864 75.531, 92.310 75.953 C 92.755 76.375, 89.882 83.119, 85.925 90.941 C 79.972 102.707, 78.408 105.078, 76.865 104.675 C 72.920 103.643, 75.383 105.890, 85.517 112.569 L 96.035 119.500 95.375 124 C 93.994 133.424, 88.445 144.742, 75.123 165.310 C 65.540 180.106, 64.335 182.764, 66.317 184.746 C 68.092 186.520, 72.296 184.891, 82.745 178.379 C 94.517 171.043, 106.037 155.951, 117.767 132.500 C 121.068 125.900, 124.683 119.375, 125.800 118 L 127.830 115.500 130.361 117.874 C 131.754 119.180, 135.026 124.580, 137.633 129.874 C 140.352 135.396, 143.835 140.820, 145.802 142.597 C 150.475 146.817, 149.631 148.785, 140.165 155.754 C 130.215 163.078, 127 166.541, 127 169.931 C 127 174.886, 132.961 178.705, 145.571 181.832 C 161.593 185.804, 159.974 186.163, 166.788 177.121 C 177.931 162.333, 181.598 151.007, 178.591 140.664 C 177.140 135.673, 175.623 133.539, 167.455 125.005 C 159.808 117.013, 158 114.549, 158 112.121 C 158 110.469, 158.450 108.840, 159 108.500 C 160.979 107.277, 159.990 103.368, 157.174 101.287 C 155.619 100.137, 150.557 97.300, 145.924 94.982 C 141.291 92.664, 137.356 90.638, 137.179 90.480 C 137.003 90.322, 137.664 86.882, 138.647 82.837 L 140.436 75.481 142.806 80.238 C 147.629 89.917, 157.912 95.608, 169.112 94.798 C 176.660 94.252, 180.379 91.704, 180.802 86.789 C 181.027 84.170, 180.437 82.484, 178.479 80.157 C 175.144 76.195, 163.781 70.561, 151.808 66.933 C 146.689 65.382, 143.027 64.088, 143.671 64.057 C 147.826 63.855, 174.402 58.855, 176.074 57.960 C 179.361 56.201, 177.787 54.594, 171.428 53.213 C 153.151 49.246, 148.433 47.878, 146.554 45.998 C 143.979 43.423, 144.911 41.749, 151.566 37 C 154.264 35.075, 158.190 31.767, 160.292 29.649 C 165.144 24.758, 164.959 22.128, 159.618 20.101 C 156.335 18.855, 154.099 18.810, 145.111 19.810 C 126.348 21.896, 97.939 29.919, 89.964 35.385 L 86.572 37.708 78.536 29.512 C 69.836 20.638, 65.271 18.186, 60.692 19.927 C 56.548 21.502, 53.012 30, 56.500 30 C 57.325 30, 58 29.150, 58 28.111 C 58 27.072, 58.813 25.217, 59.808 23.989 C 61.282 22.169, 62.206 21.886, 64.816 22.460 C 70.350 23.675, 81.747 35.593, 90.563 49.385 L 92.407 52.269 78.453 51.809 C 67.005 51.432, 63.634 50.963, 59.675 49.198 C 55.655 47.405, 54.958 46.709, 55.493 45.023 C 55.940 43.613, 55.685 43, 54.651 43 C 53.834 43, 52.977 43.563, 52.746 44.250 C 50.545 50.791, 62.729 54.937, 84.281 54.980 C 92.531 54.997, 94.164 55.265, 94.711 56.690 C 95.111 57.731, 94.810 58.545, 93.930 58.809 C 93.143 59.045, 90.313 61.568, 87.639 64.416 L 82.779 69.594 71.639 66.345 C 65.513 64.558, 59.526 63.074, 58.335 63.048 C 56.923 63.017, 54.890 61.256, 52.487 57.983 C 50.462 55.223, 47.996 52.533, 47.008 52.004 C 45.600 51.251, 45.065 49.255, 44.532 42.772 C 42.630 19.634, 39.406 11.746, 34.140 17.351 M 34.241 22.211 C 29.624 32.033, 22.046 70.479, 23.396 77.230 C 23.722 78.859, 23.502 83.325, 22.908 87.154 C 21.398 96.887, 22.986 107.350, 29.062 127.709 C 35.214 148.319, 36.586 156.012, 35.238 162.334 L 34.239 167.015 37.370 165.098 C 40.597 163.122, 54.052 158.334, 64.353 155.496 C 67.573 154.610, 71.285 152.806, 72.603 151.487 C 76.255 147.836, 75.905 139.762, 71.506 126.156 C 68.109 115.647, 68.041 115.122, 69.036 107.182 C 70.300 97.102, 72.895 88.616, 77.483 79.559 C 80.088 74.415, 80.679 72.420, 79.765 71.855 C 78.452 71.043, 65.714 67.484, 60.179 66.382 L 56.857 65.721 57.635 69.611 C 60.337 83.127, 55.083 103.468, 46.554 112.512 C 42.622 116.681, 41.578 116.812, 39.356 113.421 C 37.877 111.163, 37.806 109.942, 38.787 103.630 C 39.404 99.664, 41.535 91.053, 43.522 84.496 C 46.544 74.526, 46.908 72.403, 45.743 71.536 C 44.977 70.966, 43.543 69.260, 42.557 67.745 C 40.132 64.019, 41.751 62.194, 47.830 61.802 L 52.500 61.500 47.393 56.455 L 42.287 51.409 41.568 41.267 C 40.807 30.535, 38.867 20.467, 37.249 18.849 C 36.621 18.221, 35.559 19.407, 34.241 22.211 M 135 23.965 C 116.104 27.500, 92.935 34.964, 90.044 38.447 C 89.174 39.495, 89.916 39.910, 93.656 40.471 C 101.546 41.654, 110.901 44.946, 111.951 46.909 C 113.426 49.665, 110.279 51.934, 103.086 53.301 C 99.732 53.938, 97.110 54.694, 97.261 54.980 C 97.412 55.266, 100.215 60.780, 103.489 67.234 L 109.444 78.968 117.972 82.406 C 122.662 84.296, 128.149 86.543, 130.164 87.399 L 133.827 88.955 135.427 84.261 C 136.307 81.679, 137.304 76.582, 137.643 72.934 C 138.226 66.663, 138.137 66.269, 136.024 65.717 C 133.288 65.001, 133.829 62.622, 136.828 62.180 C 138.490 61.936, 139 61.173, 139 58.930 C 139 56.992, 139.508 56, 140.500 56 C 141.433 56, 142 56.944, 142 58.500 C 142 60.149, 142.558 61, 143.637 61 C 146.764 61, 172.060 56.726, 171.608 56.274 C 171.358 56.024, 166.801 54.977, 161.481 53.947 C 150.306 51.782, 145 49.488, 143.344 46.105 C 141.520 42.380, 143.066 39.997, 151.518 33.500 C 160.488 26.605, 162.250 24.421, 160 22.987 C 157.695 21.517, 145.546 21.993, 135 23.965 M 92.432 47.250 C 94.792 51.190, 95.252 51.477, 98.739 51.181 C 100.807 51.006, 104.289 50.399, 106.475 49.832 C 110.127 48.885, 110.300 48.693, 108.606 47.454 C 106.816 46.145, 94.735 43, 91.496 43 C 90.164 43, 90.325 43.732, 92.432 47.250 M 90.284 65.489 L 85.500 70.310 88.882 71.712 C 93.510 73.630, 94.642 72.916, 95.843 67.318 C 97.342 60.332, 95.880 59.851, 90.284 65.489 M 44.564 64.897 C 44.180 65.517, 45.291 67.445, 47.041 69.194 L 50.213 72.367 46.636 83.933 C 44.669 90.295, 42.607 97.525, 42.054 100 C 40.829 105.486, 40.697 113, 41.826 113 C 45.300 113, 52.464 98.550, 54.755 86.923 C 56.066 80.266, 56.159 77.556, 55.256 72.284 C 54.646 68.726, 53.927 65.593, 53.656 65.323 C 52.510 64.177, 45.220 63.835, 44.564 64.897 M 98.112 69.468 C 97.451 72.095, 97.043 74.347, 97.205 74.473 C 98.091 75.164, 104.386 76.947, 104.729 76.605 C 104.951 76.382, 103.824 73.611, 102.224 70.447 L 99.315 64.693 98.112 69.468 M 142 68.754 C 142 72.542, 145.192 79.864, 148.557 83.795 C 153.295 89.331, 159.172 92.004, 166.566 91.985 C 176.453 91.961, 181.057 88.260, 177.391 83.286 C 173.386 77.853, 164.846 73.798, 144.250 67.548 C 142.470 67.008, 142 67.260, 142 68.754 M 92 84.680 C 90.075 88.903, 88.349 92.731, 88.164 93.187 C 87.979 93.643, 89.021 93.562, 90.479 93.008 C 94.189 91.597, 98.621 91.750, 105.432 93.524 C 108.651 94.363, 111.442 94.891, 111.635 94.698 C 112.266 94.067, 107.890 82.152, 106.680 81.206 C 105.837 80.547, 96.435 76.988, 95.572 77.001 C 95.532 77.002, 93.925 80.457, 92 84.680 M 111.455 84.635 C 111.871 85.661, 112.911 88.525, 113.765 91 C 115.667 96.509, 116.304 96.965, 122.115 96.985 C 126.513 96.999, 132 94.248, 132 92.027 C 132 91.272, 118.817 85.346, 113.099 83.531 C 111.024 82.873, 110.800 83.023, 111.455 84.635 M 133.252 94.969 C 131.202 98.250, 126.240 100.210, 120.922 99.838 C 116.195 99.508, 116.101 99.557, 116.746 102 C 117.109 103.375, 117.420 107.065, 117.437 110.199 C 117.489 120.068, 112.475 124.048, 103.065 121.607 L 98.243 120.356 97.696 125.655 C 96.954 132.846, 90.400 146.363, 78.795 164.636 C 68.190 181.336, 67.067 183.560, 69.739 182.570 C 75.083 180.589, 87.876 171.793, 92.077 167.210 C 99.093 159.556, 108.309 145.352, 115.223 131.534 C 123.064 115.865, 124.421 114, 127.979 114 C 131.763 114, 134.770 117.698, 140.701 129.646 C 143.453 135.188, 146.569 139.981, 148.155 141.111 C 154.437 145.583, 152.606 149.630, 139.929 159.296 C 130.287 166.647, 128.455 169.636, 131.518 173.019 C 133.711 175.443, 141.140 178.245, 151.390 180.515 L 159.279 182.263 162.561 178.381 C 170.084 169.484, 176.935 155.338, 176.976 148.616 C 177.024 140.766, 174.993 136.977, 165.315 126.861 C 160.243 121.559, 155.782 115.979, 155.401 114.460 C 155.009 112.899, 155.261 110.168, 155.980 108.178 C 157.118 105.031, 157.054 104.509, 155.377 103.246 C 153.093 101.528, 136.351 93, 135.261 93 C 134.832 93, 133.928 93.886, 133.252 94.969 M 89.500 96.535 C 86.629 97.992, 82.015 102.718, 82.005 104.211 C 82.002 104.603, 83.780 105.402, 85.955 105.988 C 90.567 107.230, 95.788 111.313, 97.068 114.679 C 97.995 117.118, 101.189 118.789, 106.677 119.707 C 109.212 120.131, 110.400 119.691, 112.564 117.527 C 115.116 114.975, 115.241 114.425, 114.710 108.158 C 114.399 104.496, 113.857 100.760, 113.506 99.855 C 112.775 97.975, 102.203 94.997, 96.294 95.006 C 94.208 95.010, 91.150 95.698, 89.500 96.535 M 84 108.439 C 84 108.653, 86.229 110.200, 88.954 111.877 C 91.679 113.553, 93.695 114.370, 93.435 113.691 C 92.743 111.888, 84 107.021, 84 108.439" stroke="none" fill="black" fill-rule="evenodd"/>
</svg>