<svg xmlns="http://www.w3.org/2000/svg" width="200" height="200" viewBox="0 0 200 200" version="1.1">
	<path d="M 36.479 11.396 C 35.666 13.343, 35 15.802, 35 16.861 C 35 17.919, 33.692 24.571, 32.092 31.643 C 28.370 48.103, 25.630 64.592, 26.318 66.386 C 26.613 67.155, 25.800 70.421, 24.511 73.642 C 19.101 87.164, 20.435 97.803, 30.039 117.729 C 33.425 124.753, 37.051 132.933, 38.098 135.907 C 42.671 148.902, 38.321 163.887, 28.878 167.665 C 23.607 169.774, 21 173.295, 21 178.304 L 21 182.338 28.285 175.275 L 35.569 168.211 43.035 167.614 C 77.937 164.824, 80.331 164.396, 84.531 160.196 C 85.889 158.838, 87.050 157.001, 87.111 156.114 C 87.514 150.232, 85.969 146.451, 79.760 138.129 C 75.885 132.936, 75.775 132.573, 76.414 127.129 C 76.777 124.033, 79.395 112.050, 82.231 100.500 C 86.834 81.754, 87.393 78.297, 87.444 68.290 C 87.485 60.152, 87.797 57.412, 88.585 58.290 C 89.704 59.538, 103.433 81.644, 108.589 90.500 C 111.076 94.772, 111.509 96.592, 111.560 103 C 111.631 111.929, 113.496 116.179, 118.467 118.735 C 122.465 120.792, 128.271 130.145, 125.022 129.296 C 124.034 129.037, 122.958 129.259, 122.630 129.789 C 122.051 130.726, 125.033 133.037, 133.750 138.407 C 138.776 141.503, 139.228 144.273, 135.720 150.467 C 129.812 160.899, 102.699 176, 89.878 176 C 87.810 176, 85.868 175.596, 85.563 175.102 C 85.258 174.608, 87.244 172.769, 89.976 171.015 C 95.896 167.216, 100.694 161.978, 102.742 157.075 C 104.874 151.973, 103.892 143.701, 99.530 130 C 93.511 111.096, 92.850 99.879, 96.679 81.619 C 97.504 77.684, 94.904 78.542, 93.814 82.565 C 89.994 96.667, 91.003 112.197, 96.986 131.349 C 102.130 147.815, 102.335 153.856, 97.957 159.901 C 96.283 162.212, 92.843 165.542, 90.312 167.301 C 81.703 173.286, 81.607 173.396, 82.896 175.805 C 84.512 178.825, 88.368 179.527, 95.450 178.090 C 103.346 176.488, 119.847 168.555, 127.771 162.550 C 133.595 158.137, 140 150.553, 140 148.070 C 140 145.091, 142.481 148.294, 150.595 161.750 C 155.486 169.862, 160.668 177.823, 162.109 179.441 L 164.730 182.382 169.837 179.104 C 177.277 174.330, 181 169.724, 181 165.294 C 181 162.314, 180.227 160.920, 176.723 157.579 C 174.371 155.335, 169.207 151.936, 165.247 150.025 L 158.048 146.550 162.420 145.275 C 170.716 142.856, 175.992 133.543, 177.960 117.845 C 178.532 113.284, 179 98.475, 179 84.936 L 179 60.319 175.803 53.922 C 171.480 45.270, 171.304 36.929, 175.284 29.283 C 178.318 23.456, 178.665 20.796, 176.612 19.093 C 174.250 17.132, 155.344 16.170, 106.500 15.524 C 66.105 14.989, 58.961 14.671, 55.668 13.262 C 52.616 11.956, 51.447 11.864, 49.931 12.811 C 48.884 13.465, 45.987 14, 43.495 14 C 39.214 14, 38.995 13.867, 39.562 11.609 C 40.552 7.664, 38.109 7.495, 36.479 11.396 M 36.543 24.250 C 32.203 43.053, 29.775 56.082, 29.455 62.304 C 29.262 66.046, 28.156 71.641, 26.997 74.738 C 23.984 82.790, 23.419 91.182, 25.374 98.817 C 26.264 102.289, 30.121 111.738, 33.946 119.815 C 37.771 127.892, 41.433 136.664, 42.084 139.310 C 43.655 145.694, 42.680 154.141, 39.669 160.226 L 37.222 165.170 46.861 164.529 C 73.595 162.753, 83.029 160.635, 84.473 156.084 C 85.515 152.803, 83.254 147.441, 77.780 140.209 C 72.822 133.659, 72.779 133.538, 73.424 128.047 C 73.782 124.996, 76.298 113.275, 79.015 102 C 87.748 65.758, 87.797 56.991, 79.277 55.392 C 75.362 54.658, 70.773 55.600, 61.918 58.956 C 53.381 62.191, 53.504 61.934, 57.409 68.418 C 62.931 77.589, 63.360 87.923, 58.938 105.241 C 56.528 114.680, 55.654 116.580, 53.084 117.955 C 49.821 119.701, 46.314 115.825, 43.792 107.684 C 39.374 93.419, 41.441 74.665, 48.446 65.482 L 50.969 62.174 48.436 47.337 C 46.799 37.754, 46.008 29.755, 46.201 24.748 L 46.500 16.995 42.359 16.998 L 38.217 17 36.543 24.250 M 49.667 17.667 C 47.855 19.479, 49.564 41.827, 52.495 54.646 L 52.986 56.792 60.440 53.897 C 64.540 52.305, 70.919 50.664, 74.615 50.251 C 78.312 49.838, 81.489 49.040, 81.676 48.478 C 82.124 47.126, 63.965 22.990, 59.969 19.628 C 56.997 17.126, 51.293 16.041, 49.667 17.667 M 63.200 18.902 C 63.856 19.781, 65.834 22.075, 67.596 24 C 69.357 25.925, 74.037 32, 77.996 37.500 C 81.954 43, 85.705 47.500, 86.332 47.500 C 86.959 47.500, 87.825 45.052, 88.255 42.060 C 90.336 27.606, 98.795 24.386, 128.500 26.743 L 139.500 27.615 148.346 23.426 L 157.192 19.237 119.346 18.615 C 98.531 18.273, 77.114 17.838, 71.754 17.649 C 62.963 17.338, 62.125 17.461, 63.200 18.902 M 160.228 23.977 C 156.748 28.169, 152.363 29.985, 145.700 29.994 C 143.611 29.997, 140.461 30.752, 138.700 31.672 L 135.500 33.344 139 34.212 C 148.033 36.454, 150.825 39.326, 147.519 42.979 C 143.191 47.762, 123.599 52.479, 117.750 50.146 C 113.782 48.564, 114.211 45.421, 118.998 41.002 L 122.996 37.311 107.474 42.905 C 91.959 48.497, 91.952 48.501, 92.226 51.465 C 92.453 53.924, 93.182 54.673, 96.500 55.858 C 101.487 57.638, 119.359 65.066, 119.899 65.583 C 120.118 65.793, 118.919 68.560, 117.233 71.732 C 113.822 78.153, 112.096 85, 113.889 85 C 114.500 85, 115 84.574, 115 84.052 C 115 83.531, 116.404 79.224, 118.120 74.482 C 121.762 64.416, 122.279 64.071, 134.014 63.848 C 143.259 63.672, 147 65.360, 147 69.707 C 147 75.622, 127.809 89, 119.324 89 C 116.457 89, 116.020 89.375, 115.471 92.303 C 114.968 94.985, 115.553 96.785, 118.580 101.867 L 122.309 108.126 124.919 103.313 L 127.529 98.500 134.852 98.500 C 141.612 98.500, 142.357 98.713, 144.555 101.269 C 146.571 103.613, 146.777 104.456, 145.899 106.767 C 145.328 108.268, 144.105 110.353, 143.180 111.399 C 140.711 114.196, 132.889 119, 130.804 119 C 129.812 119, 129 119.183, 129 119.406 C 129 119.629, 131.216 123.567, 133.924 128.156 C 138.298 135.569, 139.512 136.863, 144.801 139.750 C 149.658 142.402, 151.866 143, 156.800 143 C 161.864 143, 163.352 142.574, 165.959 140.381 C 167.671 138.940, 169.801 136.353, 170.692 134.631 C 174.761 126.765, 175.282 122.289, 175.734 91.279 L 176.175 61.057 173.599 55.779 C 168.539 45.411, 168.498 36.871, 173.461 27.077 C 175.931 22.203, 175.947 22.042, 174.065 21.035 C 173.002 20.466, 170.189 20.008, 167.816 20.018 C 164.021 20.034, 163.105 20.512, 160.228 23.977 M 153 24.500 C 147.970 27.193, 149.284 27.908, 154.615 25.378 C 157.913 23.814, 159.976 21.952, 158.309 22.045 C 157.864 22.070, 155.475 23.175, 153 24.500 M 98.212 30.990 C 93.465 33.145, 90.649 37.979, 91.194 43.037 L 91.500 45.872 109 39.456 C 118.625 35.928, 127.400 33.016, 128.500 32.985 C 129.600 32.954, 131.563 32.340, 132.863 31.619 C 135.067 30.397, 134.804 30.264, 128.966 29.654 C 116.209 28.321, 102.811 28.903, 98.212 30.990 M 126.500 38.581 C 116.597 45.275, 115.518 48, 122.772 48 C 131.118 48, 146 42.923, 146 40.075 C 146 38.888, 140.869 37.177, 135.169 36.462 C 131.188 35.963, 129.911 36.275, 126.500 38.581 M 88 52 C 88.589 53.100, 89.237 54, 89.442 54 C 89.646 54, 89.577 53.100, 89.290 52 C 89.002 50.900, 88.353 50, 87.848 50 C 87.341 50, 87.409 50.895, 88 52 M 94.558 60.247 C 96.110 65.277, 113 93.289, 113 90.832 C 113 89.950, 112.351 87.978, 111.558 86.449 C 109.825 83.109, 110.413 79.259, 113.645 72.783 C 114.940 70.189, 116 67.836, 116 67.554 C 116 66.705, 108.960 63.411, 101.182 60.620 L 93.863 57.994 94.558 60.247 M 48.643 70.717 C 43.651 80.569, 42.783 95.251, 46.463 107.586 C 48.240 113.545, 51.103 116.786, 52.791 114.752 C 55.496 111.492, 58.478 96.445, 58.489 86 C 58.499 76.636, 58.230 75.021, 56 71.073 C 54.625 68.639, 52.960 66.471, 52.301 66.257 C 51.641 66.043, 49.995 68.049, 48.643 70.717 M 127.619 66.892 C 123.872 67.479, 123.642 67.748, 121.012 74.610 C 119.513 78.520, 117.986 82.919, 117.618 84.385 C 116.991 86.884, 117.123 87.012, 119.725 86.423 C 129.145 84.294, 144 74.151, 144 69.848 C 144 66.443, 137.718 65.310, 127.619 66.892 M 114.018 103.782 C 113.990 110.578, 117.593 117, 121.434 117 C 123.037 117, 121.566 112.404, 118.018 106.324 L 114.035 99.500 114.018 103.782 M 126.973 105.250 C 124.689 110.281, 124.561 112.836, 126.465 115.350 C 127.704 116.985, 128.290 117.059, 131.530 115.990 C 135.746 114.599, 144 107.130, 144 104.707 C 144 102.256, 140.785 101, 134.517 101 L 128.902 101 126.973 105.250 M 125 120.550 C 125 121.935, 128.011 126.698, 130.027 128.502 C 131.812 130.100, 131.616 129.450, 129.044 125.250 C 126.072 120.398, 125 119.152, 125 120.550 M 143 143.492 C 143 144.268, 160.216 172.528, 162.664 175.771 L 165.133 179.041 168.317 176.860 C 179.331 169.312, 181.125 164.157, 174.633 158.710 C 170.445 155.196, 143 141.993, 143 143.492 M 25.405 173.250 L 23.500 175.500 25.750 173.595 C 27.864 171.805, 28.455 171, 27.655 171 C 27.465 171, 26.453 172.012, 25.405 173.250" stroke="none" fill="black" fill-rule="evenodd"/>
</svg>