<svg xmlns="http://www.w3.org/2000/svg" width="200" height="200" viewBox="0 0 200 200" version="1.1">
	<path d="M 63 13.656 C 56.139 14.139, 34.292 16.889, 31.256 17.651 C 30.015 17.962, 29 18.806, 29 19.525 C 29 20.245, 28.525 20.992, 27.945 21.185 C 27.290 21.403, 27.660 23.233, 28.923 26.018 C 32.381 33.641, 31.750 40.336, 26.003 56.991 C 18.331 79.226, 18.368 84.105, 26.273 92.681 C 30.224 96.966, 30.273 97.114, 29.672 102.860 C 29.337 106.067, 26.985 115.848, 24.445 124.596 C 18.908 143.661, 18.035 149.878, 20.387 153.467 C 23.555 158.302, 33.318 155.704, 49 145.852 C 52.025 143.952, 57.550 141.127, 61.277 139.574 C 69.808 136.022, 74 132.262, 74 128.165 C 74 125.654, 72.640 123.889, 66.088 117.895 C 55.908 108.584, 53.618 104.624, 54.219 97.378 C 54.571 93.126, 55.526 90.695, 58.598 86.225 C 62.325 80.803, 62.719 80.526, 66.266 80.832 C 71.010 81.240, 77 79.300, 77 77.355 C 77 76.240, 76.434 76.066, 74.750 76.663 C 73.513 77.102, 70.504 77.470, 68.065 77.481 C 61.057 77.511, 59.980 74.807, 58.844 54.322 C 58.337 45.197, 58.053 37.386, 58.211 36.964 C 58.370 36.542, 62.571 37.840, 67.547 39.848 L 76.594 43.500 75.374 47.500 C 72.485 56.972, 74.469 65, 79.700 65 C 82.268 65, 89.513 58.639, 93.298 53.060 C 99 44.658, 93.319 62.271, 84.856 79.232 C 82.185 84.584, 80 89.663, 80 90.518 C 80 91.373, 83.033 93.969, 86.739 96.286 L 93.478 100.500 89.502 100.825 C 85.054 101.187, 83 102.460, 83 104.852 C 83 105.736, 85.138 110.683, 87.750 115.846 C 92.202 124.644, 92.498 125.711, 92.465 132.866 C 92.437 139.119, 91.955 141.413, 89.802 145.545 C 86.072 152.706, 79.094 160.087, 69.386 167.140 C 60.242 173.784, 59.114 176.114, 63.110 180.110 C 68.359 185.359, 82.413 178.360, 99.315 162.080 C 112.399 149.477, 122 133.802, 122 125.040 C 122 122.892, 123.066 121.243, 126.180 118.578 C 130.621 114.777, 132.384 114.230, 133.691 116.250 C 134.136 116.938, 134.500 128.553, 134.500 142.062 L 134.500 166.623 137.500 172.485 C 141.586 180.467, 146.827 183.422, 155.500 182.633 C 167.944 181.501, 174.458 177.144, 181.859 165 C 186.120 158.009, 184.427 155.463, 173.185 151.960 C 160.561 148.026, 156.653 141.712, 158.975 129 C 161.947 112.719, 161.255 106.637, 155.708 100.320 C 151.611 95.654, 146.759 93.542, 135.330 91.452 C 130.286 90.530, 124.718 88.899, 122.956 87.827 C 119.865 85.947, 119.779 85.717, 120.499 81.190 C 123.024 65.304, 119.609 58.812, 105.186 52.079 C 102.334 50.748, 100 49.338, 100 48.948 C 100 47.558, 109.011 46, 117.048 46 C 128.700 46, 145 50.761, 145 54.164 C 145 55.636, 134.188 54.588, 123.772 52.107 L 116.043 50.267 118.922 53.883 C 125.209 61.781, 147.955 83.078, 152.072 84.921 C 159.398 88.201, 160.779 86.889, 166.200 71.500 C 170.230 60.057, 176.429 53.228, 185.330 50.422 C 188.449 49.439, 190.993 48.379, 190.985 48.067 C 190.954 46.932, 180.367 39.667, 175.336 37.331 C 169.577 34.656, 156.197 32.737, 149.603 33.641 C 144.336 34.363, 132.175 32.528, 127.522 30.309 C 124.806 29.014, 124 28.025, 124 25.989 C 124 22.294, 116.282 16, 111.750 16 C 111.007 16, 109.876 15.476, 109.235 14.835 C 108.062 13.662, 74.909 12.816, 63 13.656 M 60 16.621 C 58.075 16.833, 54.586 17.258, 52.247 17.565 L 47.993 18.124 50.983 20.639 C 52.627 22.023, 54.746 25.332, 55.691 27.993 L 57.410 32.832 67.449 36.793 L 77.489 40.753 81.494 36.479 C 87.229 30.360, 92.308 29.267, 100.149 32.464 C 101.517 33.022, 102.101 31.850, 103.578 25.581 C 104.558 21.426, 105.017 17.683, 104.598 17.263 C 103.812 16.475, 66.221 15.934, 60 16.621 M 106.085 26.500 L 104.078 34.500 107.997 38.443 C 111.794 42.263, 111.977 42.331, 113.881 40.608 C 114.962 39.629, 117.081 37.048, 118.589 34.871 L 121.332 30.913 114.712 24.707 L 108.093 18.500 106.085 26.500 M 114.500 20.920 C 115.600 22.183, 117.850 24.170, 119.500 25.337 L 122.500 27.459 120.885 24.979 C 119.997 23.616, 117.747 21.628, 115.885 20.562 L 112.500 18.624 114.500 20.920 M 35.100 20.870 L 29.699 21.500 40.100 25.721 C 55.410 31.934, 54.135 31.685, 52.928 28.223 C 50.613 21.583, 45.847 19.618, 35.100 20.870 M 33.197 29.750 C 34.867 35.798, 33.551 43.519, 28.110 59.605 C 25.127 68.420, 23 76.482, 23 78.968 C 23 84.075, 25.979 89.800, 30.060 92.534 C 32.379 94.088, 32.991 95.233, 32.980 98 C 32.960 102.883, 30.749 112.813, 25.966 129.501 C 23.251 138.974, 21.979 145.245, 22.187 148.139 C 22.483 152.258, 22.682 152.517, 25.769 152.815 C 29.533 153.177, 37.106 149.967, 47.500 143.601 C 51.350 141.243, 57.102 138.285, 60.283 137.028 C 66.084 134.734, 72 130.199, 72 128.047 C 72 127.414, 67.981 123.049, 63.069 118.348 C 53.659 109.343, 51 104.898, 51 98.176 C 51 94.158, 54.416 86.428, 58.345 81.558 L 60.718 78.616 58.748 74.164 C 57.190 70.641, 56.608 66.167, 55.958 52.725 C 55.507 43.382, 54.769 35.385, 54.319 34.954 C 53.376 34.052, 34.173 26, 32.964 26 C 32.523 26, 32.627 27.688, 33.197 29.750 M 123 32.859 C 123 33.332, 121.162 35.807, 118.915 38.359 L 114.830 43 118.850 43 C 130.328 43, 147.181 49.253, 147.819 53.748 C 148.321 57.283, 144.312 58.275, 134.794 56.972 C 130.435 56.375, 126.114 55.597, 125.191 55.243 C 122.696 54.286, 135.462 68.222, 143.448 75.173 C 152.072 82.680, 156.250 84.867, 158.462 83.031 C 159.319 82.320, 160.739 79.210, 161.618 76.119 C 165.612 62.079, 173.055 51.917, 181.614 48.823 C 183.476 48.149, 185 47.245, 185 46.813 C 185 45.533, 177.665 41.064, 171.881 38.820 C 167.501 37.121, 163.244 36.607, 149 36.060 C 135.457 35.540, 130.776 35.005, 128.300 33.694 C 124.770 31.826, 123 31.547, 123 32.859 M 87 35.250 C 85.188 36.487, 83.045 38.507, 82.239 39.737 C 80.826 41.893, 80.949 42.050, 85.637 44.076 C 88.312 45.232, 91.919 46.414, 93.653 46.704 C 97.163 47.290, 98.009 46.327, 99.832 39.674 C 100.864 35.908, 100.827 35.826, 97.472 34.424 C 92.803 32.473, 90.841 32.628, 87 35.250 M 102.184 41.233 C 101.698 43.030, 101.346 44.549, 101.401 44.608 C 101.455 44.668, 103.178 44.507, 105.228 44.251 C 108.507 43.842, 108.835 43.561, 107.955 41.916 C 107.405 40.887, 106.079 39.578, 105.010 39.005 C 103.319 38.100, 102.951 38.390, 102.184 41.233 M 77.964 48.750 C 77.350 50.813, 76.994 54.525, 77.174 57 C 77.663 63.745, 80.339 63.598, 86.854 56.470 C 89.684 53.373, 92 50.488, 92 50.058 C 92 49.308, 81.739 45, 79.951 45 C 79.472 45, 78.578 46.688, 77.964 48.750 M 96.600 58.750 C 95.629 61.913, 92.068 70.297, 88.688 77.382 C 81.652 92.126, 81.044 89.565, 93.500 97.658 C 104.329 104.694, 104.332 104.711, 94.537 104.197 C 88.266 103.868, 86 104.071, 86 104.962 C 86 105.629, 88.138 110.481, 90.750 115.744 C 95.075 124.456, 95.500 125.949, 95.500 132.427 C 95.500 138.505, 95.002 140.554, 92.082 146.485 C 88.280 154.209, 79.265 163.840, 69.653 170.446 C 65.382 173.383, 63.988 174.919, 64.206 176.446 C 64.620 179.335, 68.877 179.590, 74.580 177.068 C 85.848 172.083, 102.348 157.245, 110.991 144.322 C 115.526 137.541, 120 126.443, 120 121.973 C 120 119.726, 127.207 113.416, 130.804 112.513 C 133.993 111.713, 136.961 114.720, 137.068 118.861 C 137.106 120.312, 137.218 131.625, 137.318 144 C 137.486 164.717, 137.671 166.870, 139.656 171.166 C 142.346 176.985, 145.687 179.227, 152.515 179.793 C 161.039 180.500, 168.200 177.738, 173.475 171.707 C 179.488 164.833, 181.763 160.434, 180.413 158.293 C 179.831 157.370, 176.237 155.662, 172.427 154.498 C 163.627 151.807, 160.937 150.011, 158.071 144.913 C 155.671 140.643, 155.603 136.601, 157.619 118.192 C 158.455 110.563, 157.368 106.413, 153.378 101.996 C 149.476 97.678, 147.585 96.891, 134.292 94.057 C 118.630 90.719, 115.825 88.032, 117.949 78.406 C 119.369 71.972, 118.378 65.603, 115.409 62.074 C 113.016 59.231, 102.293 53, 99.793 53 C 98.926 53, 97.671 55.260, 96.600 58.750" stroke="none" fill="black" fill-rule="evenodd"/>
</svg>