<svg xmlns="http://www.w3.org/2000/svg" width="200" height="200" viewBox="0 0 200 200" version="1.1">
	<path d="M 111.208 17.030 C 107.748 17.502, 101.285 18.829, 96.845 19.980 C 89.682 21.837, 88.646 21.902, 87.637 20.555 C 86.409 18.916, 84.500 19.681, 84.500 21.811 C 84.500 22.577, 78.916 25.216, 71.065 28.162 L 57.629 33.201 49.065 30.623 C 33.997 26.087, 25.820 26.208, 19.653 31.058 C 14.458 35.144, 14.159 38.577, 15.092 83.274 C 15.969 125.245, 16.865 137.653, 19.680 146.811 C 21.567 152.951, 25.802 158, 29.063 158 C 33.046 158, 39.284 153.380, 47.714 144.184 C 54.491 136.792, 67.035 119.396, 68.279 115.664 C 68.518 114.947, 85.862 117.514, 87.762 118.548 C 87.906 118.626, 84.385 124.497, 79.937 131.595 C 70.602 146.493, 61.393 164.390, 60.435 169.497 C 59.667 173.588, 61.149 176, 64.431 176 C 69.296 176, 87.417 163.057, 86.619 160.153 C 86.368 159.244, 85.891 155.800, 85.558 152.500 L 84.952 146.500 89.459 155 C 105.368 185.001, 124.450 194.476, 144.638 182.397 C 150.792 178.716, 164.328 165.997, 168.527 159.952 C 169.992 157.843, 172.513 155.862, 174.746 155.067 C 186.434 150.901, 187.185 144.580, 176.535 140.015 C 170.766 137.542, 160.231 135.311, 148.116 133.997 C 142.030 133.336, 136.719 132.207, 135.287 131.268 C 133.708 130.234, 129.150 122.288, 122.421 108.842 C 116.690 97.389, 112 87.798, 112 87.529 C 112 86.495, 122.608 81.018, 124.628 81.009 C 128.839 80.991, 129.292 82.991, 128.529 98.249 C 127.730 114.237, 128.862 119.518, 133.636 122.073 C 140.934 125.979, 161.891 118.200, 167.618 109.460 C 170.031 105.777, 168.229 104.393, 158.628 102.556 C 154.305 101.729, 150.145 100.535, 149.384 99.903 C 145.655 96.809, 148.731 91.114, 160.887 78.613 C 170.211 69.023, 170.395 68.745, 167 69.401 C 165.075 69.772, 160.074 70.346, 155.888 70.676 C 147.586 71.329, 148.132 71.588, 142.431 64.317 C 141.058 62.566, 138.374 60.619, 136.467 59.989 C 134.560 59.360, 133 58.525, 133 58.135 C 133 57.744, 134.238 55.972, 135.750 54.196 L 138.500 50.969 157.789 50.325 C 175.790 49.724, 179.520 49.088, 177.363 46.984 C 176.888 46.521, 169.188 45.591, 160.250 44.916 C 151.313 44.242, 144 43.380, 144 43.001 C 144 42.621, 146.925 38.222, 150.500 33.225 C 157.059 24.056, 158.032 21.980, 155.750 22.024 C 153.805 22.061, 135.812 45.266, 137.107 46.066 C 139.177 47.345, 136.486 47.825, 120.986 48.943 C 102.942 50.243, 95 52.086, 95 54.971 C 95 56.025, 96 57.587, 97.223 58.443 C 98.445 59.299, 98.895 60, 98.223 60 C 97.550 60, 97 60.868, 97 61.928 C 97 65.621, 82.643 69.485, 78.052 67.028 C 75.706 65.772, 75.058 64.090, 73.429 55.018 C 71.181 42.497, 67.018 41.881, 53.377 52.053 L 48.254 55.873 47.627 51.297 C 46.300 41.617, 46.481 41.116, 52.205 38.590 L 57.410 36.293 69.955 40.643 C 89.191 47.313, 94.680 46.425, 93.754 36.793 C 93.295 32.012, 93.316 31.968, 95.394 33.507 C 104.299 40.101, 116.562 41.404, 125.651 36.720 C 132.600 33.140, 135.179 29.724, 134.798 24.604 C 134.556 21.357, 133.932 20.273, 131.500 18.881 C 127.684 16.697, 119.276 15.930, 111.208 17.030 M 112 19.656 C 104.717 20.774, 91 24.256, 91 24.987 C 91 25.451, 93.050 27.634, 95.555 29.840 C 103.570 36.894, 114.266 38.877, 122.982 34.923 C 130.611 31.462, 134.072 26.872, 131.988 22.978 C 130.274 19.775, 121.130 18.255, 112 19.656 M 75.500 29.429 C 60.578 34.950, 61.384 34.543, 63.590 35.437 C 68.528 37.436, 79.923 41.174, 83.691 42.030 C 89.495 43.349, 91.005 42.544, 90.978 38.143 C 90.952 33.767, 87.617 25.980, 85.799 26.050 C 85.085 26.077, 80.450 27.598, 75.500 29.429 M 24.500 31.318 C 20.817 33.006, 19.173 34.911, 18.066 38.771 C 16.595 43.899, 18.631 127.135, 20.481 137.500 C 24.261 158.684, 28.667 159.948, 43.822 144.192 C 55.221 132.339, 60.741 124.151, 71.080 103.750 C 78.335 89.433, 81 85.569, 81 89.364 C 81 90.115, 79.181 95.571, 76.958 101.489 C 74.735 107.407, 73.048 112.378, 73.208 112.536 C 73.477 112.800, 88.381 116, 89.340 116 C 89.574 116, 91.696 113.037, 94.055 109.416 C 98.481 102.622, 98.424 101.056, 93.750 101.015 C 92.787 101.007, 92.016 100.662, 92.034 100.250 C 92.053 99.838, 95.653 96.587, 100.034 93.027 C 104.416 89.467, 108 86.421, 108 86.259 C 108 86.096, 105.753 81.486, 103.007 76.014 L 98.014 66.065 93.320 68.077 C 87.255 70.677, 81.226 71.454, 77.696 70.091 C 74.245 68.758, 71.495 62.849, 70.529 54.688 C 69.484 45.860, 66.517 45.775, 55.104 54.246 L 48.025 59.500 47.992 74.500 C 47.941 97.518, 46.326 119.103, 44.518 120.910 C 43.545 121.883, 42.671 122.071, 42.043 121.443 C 40.442 119.842, 38.186 107.271, 35.939 87.427 L 33.819 68.705 39.557 63.573 L 45.296 58.440 44.786 48.706 L 44.277 38.971 48.889 36.860 L 53.500 34.749 47.500 32.838 C 39.420 30.265, 28.388 29.536, 24.500 31.318 M 140.475 47.041 C 140.116 47.621, 142.931 48, 147.608 48 C 151.857 48, 155.146 47.838, 154.917 47.640 C 153.845 46.713, 141.007 46.180, 140.475 47.041 M 115.500 52.001 C 101.607 53.241, 96.014 54.683, 98.734 56.324 C 99.155 56.578, 106.380 56.947, 114.790 57.143 L 130.079 57.500 132.138 54.250 L 134.196 51 128.848 51.144 C 125.907 51.223, 119.900 51.609, 115.500 52.001 M 101.585 59.863 C 101.177 60.522, 101.522 61, 102.406 61 C 104.072 61, 106.544 64.789, 105.536 65.798 C 105.191 66.142, 104.030 65.875, 102.955 65.204 C 99.951 63.328, 100.486 65.291, 105.851 75.830 L 110.601 85.160 118.358 74.012 C 128.350 59.652, 128.238 60.001, 122.857 59.994 C 120.461 59.991, 114.852 59.704, 110.394 59.357 C 104.796 58.921, 102.070 59.078, 101.585 59.863 M 123.794 70.930 L 117.088 80.721 121.547 79.117 C 124.887 77.916, 126.444 77.787, 127.753 78.605 C 131.533 80.966, 132.042 83.843, 131.368 99.032 C 130.630 115.683, 131.564 119.306, 136.899 120.478 C 142.603 121.731, 158.295 115.626, 163.409 110.165 C 166.721 106.628, 166.798 106.690, 157 105.081 C 141.682 102.566, 141.312 95.187, 155.738 79.895 L 162.429 72.803 156.818 73.504 C 148.557 74.536, 145.351 73.516, 142.460 68.936 C 139.815 64.747, 136.958 62.558, 133 61.689 C 130.759 61.197, 129.806 62.152, 123.794 70.930 M 40.587 66.236 L 36.674 69.620 37.847 80.060 C 40.167 100.720, 42.287 115, 43.034 115 C 44.108 115, 45.200 90.947, 44.819 75.675 L 44.500 62.851 40.587 66.236 M 106.674 95.558 C 104.680 98.276, 103.044 100.725, 103.037 101 C 103.030 101.275, 104.580 102.507, 106.481 103.738 C 108.382 104.970, 110.655 107.366, 111.533 109.065 C 112.998 111.897, 112.996 112.357, 111.513 114.621 C 109.321 117.966, 106.130 119, 97.999 119 L 91.128 119 83.056 131.750 C 73.997 146.059, 64.261 164.834, 63.352 169.750 C 62.868 172.362, 63.079 173, 64.425 173 C 68.711 173, 84.503 161.753, 83.583 159.356 C 83.282 158.571, 82.732 153.609, 82.361 148.329 C 81.479 135.784, 82.669 136.120, 90.239 150.556 C 98.074 165.495, 105.056 174.532, 112.748 179.688 C 123.336 186.785, 133.224 186.520, 145.183 178.818 C 150.435 175.436, 166.545 160.211, 165.732 159.399 C 165.598 159.264, 161.263 161.256, 156.099 163.825 C 147.108 168.298, 146.346 168.495, 138.105 168.493 C 131.146 168.491, 128.708 168.068, 125.357 166.280 C 111.305 158.781, 106.329 138.179, 116.616 130.087 C 118.867 128.316, 120.486 127.909, 124.238 128.169 C 126.858 128.351, 128.977 128.275, 128.947 128 C 128.918 127.725, 124.710 119.201, 119.596 109.058 L 110.298 90.617 106.674 95.558 M 101.034 95.831 C 98.484 97.960, 97.973 98.865, 98.973 99.483 C 100.278 100.290, 101.870 98.822, 104.108 94.750 C 105.411 92.380, 104.989 92.529, 101.034 95.831 M 97.044 109.935 C 93.191 115.610, 93.106 115.899, 95.106 116.534 C 97.499 117.293, 105.646 116.260, 108.250 114.866 C 109.213 114.351, 110 113.211, 110 112.333 C 110 110.687, 103.553 104, 101.966 104 C 101.476 104, 99.261 106.671, 97.044 109.935 M 116.589 134.077 C 111.855 139.703, 113.507 150.886, 120.194 158.483 C 127.885 167.221, 140.188 168.435, 154.143 161.834 L 161.421 158.392 153.189 149.817 C 144.887 141.169, 137.465 135.202, 136.371 136.296 C 136.045 136.622, 137.470 140.972, 139.538 145.962 C 141.607 150.952, 143.102 155.232, 142.860 155.473 C 142.105 156.228, 127.672 149.558, 122.788 146.198 C 120.228 144.437, 117.838 142.064, 117.477 140.926 C 116.571 138.073, 119.426 135.182, 123.887 134.432 C 125.874 134.098, 128.347 133.590, 129.382 133.303 C 132.523 132.432, 129.133 131.033, 123.839 131.015 C 119.852 131.002, 118.803 131.445, 116.589 134.077 M 126.500 136.491 C 125.950 136.675, 124.263 137.098, 122.750 137.432 C 118.613 138.344, 119.414 140.593, 125.250 144.449 C 131.058 148.288, 137.996 151.450, 138.008 150.263 C 138.012 149.844, 136.774 146.464, 135.258 142.753 C 132.865 136.900, 132.169 136.017, 130 136.082 C 128.625 136.124, 127.050 136.308, 126.500 136.491 M 153.212 146.017 C 163.854 156.659, 163.834 156.651, 169.752 152.203 C 172.171 150.386, 173.338 150.036, 174.305 150.838 C 176.100 152.328, 182.191 148.662, 181.390 146.573 C 180.051 143.084, 164.215 138.327, 148.414 136.667 L 143.328 136.133 153.212 146.017" stroke="none" fill="black" fill-rule="evenodd"/>
</svg>