<svg xmlns="http://www.w3.org/2000/svg" width="200" height="200" viewBox="0 0 200 200" version="1.1">
	<path d="M 84.791 16.988 C 80.481 18.288, 76.380 21.679, 74.611 25.406 C 72.281 30.317, 70.826 38.858, 71.563 43.301 C 72.571 49.382, 74.050 47.116, 74.380 38.987 C 74.725 30.470, 77.235 24.386, 81.581 21.539 C 87.749 17.497, 98.370 18.800, 103.981 24.285 C 107.022 27.259, 107.100 27.550, 106.460 33.532 C 105.720 40.437, 107.321 45.031, 111.187 47.100 C 114.824 49.047, 128.298 47.492, 141.626 43.588 C 156.245 39.306, 166.577 37.426, 170.324 38.366 C 171.849 38.749, 174.725 40.554, 176.715 42.378 C 184.328 49.354, 178.799 50.774, 150.083 49.213 C 129.345 48.086, 124.530 48.343, 121.815 50.718 C 119.443 52.794, 120.985 55.586, 127.150 60.378 C 134.411 66.022, 143.833 70.345, 158.001 74.534 C 174.515 79.417, 178 81.210, 178 84.825 C 178 87.727, 173.684 95.298, 170.401 98.155 C 169.001 99.373, 166.041 99.900, 159.167 100.155 C 150.072 100.491, 149.760 100.583, 146.917 103.766 C 143.510 107.580, 143.322 109.375, 145.886 113.580 C 149.808 120.012, 162.240 122.350, 171.849 118.463 C 176.506 116.579, 177.950 117.241, 177.985 121.275 C 178.005 123.640, 175.368 124.519, 162.527 126.427 C 144.780 129.064, 139.412 132.698, 139.585 141.958 C 139.676 146.833, 142.592 153.404, 148.839 162.813 L 152.470 168.281 147.037 173.147 C 133.616 185.168, 124.804 184.869, 119.909 172.227 C 117.072 164.901, 116.789 148.780, 119.328 139.169 C 120.247 135.687, 121 132.444, 121 131.961 C 121 130.506, 112.877 126.266, 106.684 124.488 L 100.868 122.820 103.914 121.160 C 109.423 118.159, 115.731 112.171, 123.078 102.970 C 128.451 96.242, 130.726 94.084, 131.908 94.595 C 135.815 96.283, 138.828 96.189, 139.787 94.350 C 143.075 88.045, 126.052 62.299, 113.238 54.197 C 103.919 48.306, 99.120 49.125, 93.001 57.651 C 84.149 69.986, 66.162 84.939, 51.108 92.478 C 44.383 95.845, 22.939 104.272, 22.419 103.752 C 22.207 103.540, 26.184 100.022, 31.257 95.934 C 43.193 86.314, 61.004 68.717, 64.480 63.110 C 69.926 54.325, 70.345 48, 65.481 48 C 64.048 48, 63 47.422, 63 46.631 C 63 45.826, 61.456 45.006, 59.250 44.642 C 52.993 43.608, 30.508 43.927, 27.149 45.098 C 23.121 46.502, 22.915 49.617, 26.750 51.146 C 29.968 52.429, 49.464 52.688, 59.394 51.579 L 66.288 50.810 65.627 54.155 C 64.076 62.003, 50.135 76.963, 25.726 96.973 C 10.708 109.284, 10.112 111.314, 22.835 106.829 C 58.355 94.306, 75.480 83.348, 92.892 62 C 99.095 54.396, 100.707 53, 103.290 53 C 109.236 53, 120.718 62.614, 128.889 74.433 C 133.998 81.824, 137.935 89.325, 137.978 91.750 C 138.006 93.365, 135.155 93.292, 132.101 91.600 C 129.786 90.317, 129.437 90.603, 122.024 99.885 C 113.301 110.808, 107.865 116.008, 102.085 118.957 C 92.186 124.007, 86.146 118.642, 84.969 103.754 C 84.279 95.027, 81.780 90.992, 77.076 91.010 C 66.883 91.048, 49 108.135, 49 117.835 C 49 121.284, 48.946 121.300, 31.500 122.985 C 17.268 124.359, 15 124.759, 15 125.895 C 15 126.367, 21.637 126.977, 29.750 127.251 C 37.862 127.526, 46.075 128.319, 48 129.014 C 52.310 130.570, 56 133.794, 56 136.005 C 56 138.606, 42.288 158.431, 33.878 167.990 C 24.729 178.388, 23.254 180.777, 25.459 181.623 C 27.574 182.434, 30.568 181.585, 44.500 176.223 C 55.694 171.915, 56.937 171.159, 63 164.976 C 66.575 161.331, 71.944 154.332, 74.930 149.424 C 83.417 135.477, 87.646 130.350, 92.667 127.919 C 97.957 125.358, 103.844 125.662, 111 128.866 C 118.452 132.201, 118.250 131.803, 116.437 139.575 C 115.297 144.462, 114.922 149.885, 115.161 158 C 115.460 168.154, 115.825 170.161, 118.275 175.152 C 121.298 181.306, 124.304 183.851, 129.560 184.703 C 134.482 185.502, 142.700 181.140, 149.971 173.869 L 155.968 167.872 152.094 162.686 C 146.892 155.721, 143.085 147.904, 142.383 142.744 C 141.291 134.719, 146.827 131.199, 164 128.999 C 174.638 127.636, 178.742 126.351, 180.008 123.986 C 181.427 121.333, 181.249 119.920, 179.035 116.289 L 177.077 113.078 172.538 115.086 C 165.434 118.229, 159.157 118.605, 153.750 116.214 C 148.717 113.987, 146.528 111.015, 147.391 107.578 C 148.264 104.101, 152.578 102.602, 161.865 102.549 L 170.231 102.500 174.115 98 C 181.210 89.781, 182.741 83.934, 178.750 80.299 C 175.301 77.158, 172.697 76.059, 158.690 71.832 C 151.561 69.681, 142.976 66.556, 139.614 64.888 C 133.219 61.716, 123 54.357, 123 52.924 C 123 51.116, 130.871 50.826, 149.770 51.937 C 170.118 53.134, 176.855 52.791, 180.750 50.359 C 184.017 48.319, 183.520 45.285, 179.214 40.978 C 172.117 33.882, 165.675 33.780, 142.500 40.396 C 113.079 48.795, 108.760 47.866, 109.257 33.249 C 109.493 26.335, 109.397 26.018, 106.027 22.535 C 100.911 17.246, 91.816 14.871, 84.791 16.988 M 33 46.679 C 27.220 47.444, 27.413 48.783, 33.411 49.532 C 40.223 50.383, 62.962 49.112, 60.929 47.994 C 59.191 47.038, 37.875 46.034, 33 46.679 M 69.940 95.971 C 59.773 101.346, 49.085 115.704, 51.898 120.208 C 53.507 122.785, 52.887 123.290, 47.208 124.033 L 42.500 124.649 47.342 125.966 C 54.334 127.869, 58.001 131.267, 57.995 135.839 C 57.992 137.853, 57.204 140.706, 56.245 142.181 C 48.515 154.056, 42.070 162.788, 35.524 170.250 C 31.303 175.063, 28.221 179.013, 28.675 179.028 C 29.129 179.044, 35.069 176.906, 41.876 174.278 C 57.721 168.160, 61.573 164.825, 72.802 147.500 C 81.737 133.715, 86.708 127.775, 91.350 125.340 L 94.200 123.845 90.850 122.173 C 85.973 119.737, 82 111.470, 82 103.755 C 82 100.517, 81.534 96.998, 80.965 95.934 C 79.624 93.430, 74.715 93.446, 69.940 95.971" stroke="none" fill="black" fill-rule="evenodd"/>
</svg>