<svg xmlns="http://www.w3.org/2000/svg" width="200" height="200" viewBox="0 0 200 200" version="1.1">
	<path d="M 124 9.551 C 88.849 14.756, 65.906 17.180, 48.121 17.568 C 39.112 17.764, 31.530 18.137, 31.271 18.396 C 29.899 19.768, 32.727 21.004, 37.309 21.035 C 40.164 21.055, 43.625 21.741, 45 22.561 C 47.315 23.940, 46.937 24.004, 39.907 23.423 L 32.315 22.795 31.669 32.647 C 31.313 38.066, 29.900 47.225, 28.529 53 C 24.087 71.709, 25.620 87.204, 33.701 105.254 L 36.277 111.009 27.719 119.886 C 23.013 124.768, 18.200 130.648, 17.025 132.952 C 14.176 138.535, 14.611 143.640, 18.159 146.278 C 25.809 151.965, 55.389 144.457, 63.552 134.756 C 67.697 129.829, 67.643 127.784, 63.123 118.727 C 55.060 102.571, 55.560 92.953, 65.556 71.974 C 69.660 63.360, 71.999 57.186, 71.996 54.974 C 71.991 50.424, 69.076 45.792, 63.822 41.986 C 60.364 39.481, 59.335 37.965, 58.271 33.807 C 57.553 30.999, 57.085 28.599, 57.232 28.474 C 57.756 28.028, 75.037 31.849, 82.457 34.052 C 90.691 36.497, 92.125 38, 86.223 38 C 81.775 38, 78 40.320, 78 43.054 C 78 45.945, 83.648 51.605, 94.912 60 C 102.922 65.970, 104.879 67.908, 104.501 69.500 C 104.241 70.600, 104.021 73.699, 104.014 76.387 L 104 81.274 94.463 80.574 L 84.926 79.874 81.548 83.252 C 79.204 85.596, 77.455 88.906, 75.835 94.065 C 73.661 100.988, 73.505 103.083, 73.568 124.500 C 73.624 143.626, 74.020 149.774, 75.920 161 C 78.378 175.526, 82.683 190.782, 83.927 189.369 C 84.347 188.891, 86.851 182.875, 89.491 176 C 94.625 162.631, 101.241 148.609, 103.765 145.750 C 106.322 142.854, 108.774 143.638, 111.037 148.073 C 113.204 152.321, 117.467 167.743, 120.967 184 C 122.093 189.225, 123.244 194.512, 123.526 195.750 C 124.772 201.223, 126.736 197.362, 131.720 179.643 C 139.077 153.483, 145.551 137.222, 147.740 139.404 C 148.158 139.821, 148.648 148.398, 148.828 158.464 L 149.156 176.766 153.295 178.633 C 159.154 181.275, 166.667 181.094, 170.705 178.214 C 175.330 174.915, 179.658 165.293, 181.597 154 C 184.424 137.531, 181.917 82.517, 178.169 78.769 C 177.719 78.319, 174.460 78.715, 170.926 79.648 C 167.392 80.581, 160.802 81.379, 156.283 81.422 C 149.092 81.490, 147.791 81.225, 145.860 79.299 C 143.839 77.283, 143.755 76.760, 144.861 73.069 C 147.418 64.537, 164.884 49.702, 178.008 44.917 C 181.637 43.593, 184 42.150, 184 41.256 C 184 38.319, 177.405 27.395, 172.869 22.817 C 160.128 9.958, 149.544 19.620, 142.543 50.500 C 141.297 56, 139.704 65.011, 139.005 70.524 L 137.734 80.548 130.617 80.613 C 122.870 80.684, 116.756 82.796, 110.517 87.555 L 107 90.237 107 87.343 C 107 84.914, 107.684 84.131, 111.250 82.474 C 117.282 79.672, 117.471 76.551, 111.968 70.582 L 107.813 66.073 109.943 59.787 C 111.115 56.329, 112.659 52.444, 113.374 51.152 L 114.675 48.805 120.721 54.402 C 124.047 57.481, 127.270 60, 127.884 60 C 128.612 60, 129 57.222, 129 52 C 129 45.292, 128.738 44, 127.380 44 C 126.021 44, 125.828 44.952, 126.186 49.891 L 126.612 55.783 121.328 51.141 C 117.761 48.009, 116.212 45.959, 116.562 44.834 C 117.210 42.755, 115.192 41.335, 114.426 43.332 C 113.984 44.484, 111.760 43.708, 103.852 39.645 L 93.837 34.500 94.440 30.687 C 95.194 25.926, 97.990 19.997, 100.095 18.693 C 103.057 16.860, 106.879 18.983, 115.707 27.366 C 128.542 39.552, 133.076 41.331, 138.872 36.454 C 142.698 33.235, 146.255 25.751, 148.919 15.316 C 150.064 10.834, 151 6.904, 151 6.583 C 151 5.668, 148 5.998, 124 9.551 M 129 11.588 C 120.475 12.891, 111.493 14.233, 109.040 14.571 C 105.166 15.105, 104.838 15.327, 106.540 16.264 C 107.618 16.857, 112.100 20.699, 116.500 24.800 C 120.900 28.902, 125.850 33.098, 127.500 34.125 C 135.593 39.162, 140.974 33.816, 145.996 15.750 C 147.734 9.500, 147.748 9.008, 146.186 9.110 C 145.259 9.170, 137.525 10.286, 129 11.588 M 77 18.170 C 67.375 19.208, 57.121 20.304, 54.213 20.605 L 48.925 21.153 51.213 22.940 C 52.483 23.932, 58.575 25.733, 64.912 26.991 C 71.189 28.236, 79.577 30.258, 83.552 31.485 L 90.780 33.715 92.504 27.348 C 93.452 23.846, 95.109 19.860, 96.186 18.490 C 98.037 16.138, 98.044 16.008, 96.323 16.141 C 95.320 16.219, 86.625 17.132, 77 18.170 M 157.602 22.099 C 152.531 26.088, 148.217 36.856, 144.421 55 C 140.988 71.416, 141.130 72.586, 145.759 65.962 C 151.038 58.406, 162.007 49.540, 172 44.753 C 176.675 42.513, 180.657 40.558, 180.849 40.408 C 181.814 39.654, 174.917 28.911, 170.798 24.750 C 165.442 19.340, 161.990 18.647, 157.602 22.099 M 34.549 33.633 C 34.160 37.960, 32.663 46.675, 31.221 53 C 26.863 72.116, 27.816 83.582, 35.253 101.500 C 36.851 105.350, 38.401 109.290, 38.697 110.255 C 39.079 111.499, 36.469 114.892, 29.739 121.904 C 23.211 128.705, 19.686 133.256, 18.462 136.462 C 16.698 141.080, 16.702 141.146, 18.870 143.312 C 25.010 149.446, 54.361 141.984, 61.927 132.366 C 64.615 128.949, 64.540 127.142, 61.492 121.852 C 55.356 111.201, 53.371 96.848, 56.554 86.130 C 57.409 83.252, 60.559 75.904, 63.554 69.801 C 70.055 56.555, 70.486 52.762, 66.066 47.728 C 64.452 45.890, 61.527 43.522, 59.566 42.465 C 56.579 40.857, 56 40.006, 56 37.223 C 56 33.134, 53.624 28.320, 51.261 27.621 C 50.292 27.335, 46.295 26.800, 42.378 26.434 L 35.257 25.767 34.549 33.633 M 93 38.933 C 93 39.520, 91.931 40, 90.625 40 C 86.228 40, 81.832 41.274, 81.282 42.708 C 80.974 43.511, 82.210 45.660, 84.118 47.639 C 87.269 50.906, 104.147 64, 105.207 64 C 105.469 64, 106.255 62.087, 106.953 59.750 C 107.651 57.413, 109.109 53.759, 110.192 51.631 C 111.276 49.503, 111.788 47.407, 111.331 46.973 C 110.005 45.713, 97.723 39.267, 95.250 38.533 C 93.905 38.134, 93 38.294, 93 38.933 M 106.743 75.190 C 106.455 78.111, 106.367 80.659, 106.547 80.854 C 106.727 81.049, 108.141 80.789, 109.688 80.276 C 113.529 79.002, 113.717 76.061, 110.173 72.666 L 107.266 69.881 106.743 75.190 M 141.168 75.750 C 141.076 78.088, 140.920 80.338, 140.821 80.750 C 140.723 81.162, 141.496 81.664, 142.539 81.865 C 144.052 82.157, 144.204 81.951, 143.293 80.853 C 142.664 80.095, 141.966 77.680, 141.743 75.487 L 141.336 71.500 141.168 75.750 M 172.500 82.122 C 170.850 82.593, 165.735 83.509, 161.132 84.157 L 152.765 85.336 156.382 87.192 L 160 89.048 159.944 99.774 C 159.855 116.684, 157.500 120.882, 150 117.500 C 145.241 115.354, 143.333 115.986, 141.154 120.429 C 139.467 123.867, 137.409 135.875, 136.599 147 L 135.980 155.500 138.992 147.937 C 142.109 140.108, 145.039 136, 147.504 136 C 150.600 136, 151.456 140.324, 151.831 157.843 L 152.201 175.186 155.569 176.593 C 165.931 180.923, 173.586 175.298, 177.472 160.500 C 180.156 150.278, 181.239 130.735, 180.062 113.745 C 178.920 97.261, 177.145 82.870, 176.133 81.883 C 175.785 81.544, 174.150 81.652, 172.500 82.122 M 83.298 85.159 C 77.946 90.914, 75.872 101.471, 75.886 122.882 C 75.897 140.467, 77.990 160.144, 81.338 174.142 L 83.577 183.500 87.442 173.500 C 102.015 135.793, 109.667 131.747, 117.388 157.662 C 118.672 161.973, 121.005 171.350, 122.572 178.500 C 125.252 190.731, 125.478 191.293, 126.394 188 C 126.930 186.075, 129.013 179.001, 131.023 172.280 C 133.101 165.330, 134.252 159.917, 133.690 159.730 C 132.613 159.371, 134.239 116.801, 136.084 97.042 C 136.661 90.854, 136.870 85.103, 136.546 84.261 C 136.072 83.025, 134.706 82.830, 129.474 83.250 C 122.280 83.827, 113.868 87.383, 110.029 91.469 L 107.669 93.981 110.937 103.957 C 112.734 109.444, 114.239 114.286, 114.281 114.717 C 114.493 116.878, 110.818 115.647, 106.286 112.039 C 103.496 109.817, 101.007 108, 100.755 108 C 100.503 108, 100.010 111.487, 99.661 115.750 C 98.875 125.328, 98.160 128, 96.383 128 C 94.485 128, 94.548 119.155, 96.500 111.661 C 97.325 108.494, 98 104.949, 98 103.785 C 98 102.620, 98.299 101.966, 98.665 102.332 C 99.031 102.698, 100.562 100.842, 102.066 98.208 C 104.330 94.245, 104.710 92.606, 104.271 88.709 C 103.760 84.181, 103.616 84, 100.517 84 C 98.744 84, 94.640 83.728, 91.397 83.395 C 86.069 82.849, 85.288 83.019, 83.298 85.159 M 139.589 88.853 C 138.435 98.250, 136.953 121.286, 137.468 121.802 C 137.761 122.094, 138 121.618, 138 120.743 C 138 118.376, 142.898 113, 145.055 113 C 146.087 113, 148.527 113.760, 150.476 114.690 C 155.797 117.227, 156.443 115.948, 156.830 102.110 L 157.160 90.315 152.330 88.256 C 149.674 87.124, 145.848 85.749, 143.830 85.201 L 140.159 84.205 139.589 88.853 M 103.680 100.544 C 101.989 104.091, 101.990 104.331, 103.707 106.232 C 104.693 107.323, 106.677 109.055, 108.116 110.081 L 110.732 111.945 108.503 105.723 C 107.277 102.300, 106.088 98.902, 105.861 98.170 C 105.632 97.437, 104.654 98.502, 103.680 100.544" stroke="none" fill="black" fill-rule="evenodd"/>
</svg>