<svg xmlns="http://www.w3.org/2000/svg" width="200" height="200" viewBox="0 0 200 200" version="1.1">
	<path d="M 102.143 16.378 C 96.486 19.515, 91.493 31.308, 86.639 53 L 84.290 63.500 72.895 63.711 L 61.500 63.923 66.962 61.424 C 78.388 56.198, 80.253 51.444, 73.701 44.250 C 72.046 42.433, 70.583 42, 66.103 42 L 60.556 42 62.595 39.961 C 63.825 38.731, 68.068 37.112, 73.286 35.882 C 81.870 33.858, 87.308 31.114, 89.401 27.750 C 90.796 25.508, 89.393 23.147, 85.211 20.697 L 82.134 18.894 73.002 26.944 C 67.980 31.372, 62.887 35.232, 61.685 35.522 C 60.483 35.811, 52.404 37.097, 43.730 38.378 C 35.057 39.658, 27.699 40.968, 27.380 41.287 C 25.417 43.249, 29.208 44, 41.082 44 L 54.046 44 46.981 52.733 C 43.096 57.536, 39.188 63.498, 38.298 65.983 C 37.015 69.562, 35.840 70.915, 32.642 72.500 C 26.258 75.662, 24.494 78.888, 24.535 87.327 C 24.574 95.369, 26.678 102.504, 33.643 118.213 C 37.473 126.853, 38.940 128.943, 46.296 136.243 C 59.747 149.591, 62.195 158.044, 54.829 165.703 C 50.768 169.925, 49.825 170.463, 38.500 175.017 C 31.521 177.823, 29.500 179.070, 29.500 180.568 C 29.500 182.433, 30.914 182.527, 70.500 183.270 C 124.765 184.289, 157.590 183.450, 182.774 180.402 C 189.203 179.624, 188.650 178.463, 180.002 174.581 C 170.441 170.290, 162.271 169.037, 143.750 169.017 C 134.300 169.008, 127 168.601, 127 168.085 C 127 166.835, 134.812 160.059, 144.672 152.756 C 152.625 146.866, 152.873 146.556, 153.542 141.692 C 154.615 133.896, 157.187 125.892, 164.521 107.524 C 172.005 88.782, 173.413 81.118, 170.973 72.405 C 169.154 65.906, 162.518 57.365, 154.730 51.500 C 151.079 48.750, 148.079 46.275, 148.064 46 C 148.048 45.725, 151.414 44.431, 155.542 43.124 C 164.468 40.298, 171 35.940, 171 32.808 C 171 31.610, 170.026 29.592, 168.836 28.325 L 166.671 26.021 161.351 31.052 C 155.493 36.593, 149.145 39.944, 144.446 39.978 C 139.354 40.015, 131.612 35.332, 122.323 26.596 C 113.873 18.650, 108.598 14.959, 105.800 15.035 C 105.085 15.055, 103.440 15.659, 102.143 16.378 M 100.993 21.007 C 97.524 24.722, 92.968 37.083, 89.736 51.551 L 87.291 62.500 115.895 63.078 C 143.107 63.628, 148.801 64.251, 150.412 66.858 C 151.432 68.508, 148.145 70.902, 142.689 72.482 C 136.675 74.224, 119.114 76.985, 114 76.994 C 110.796 77, 110.500 77.248, 110.500 79.936 C 110.500 82.471, 110.955 82.956, 113.834 83.497 C 120.199 84.691, 143.099 82.946, 149.799 80.756 C 154.550 79.203, 156.380 78.980, 157.249 79.849 C 158.943 81.543, 157.164 82.874, 151.048 84.487 C 144.801 86.135, 142.714 87.854, 138.893 94.500 C 136.858 98.040, 136.016 100.865, 136.009 104.174 C 136.004 106.744, 135.484 111.083, 134.853 113.816 C 133.921 117.853, 134.015 120.444, 135.354 127.642 C 136.260 132.514, 137.278 137.512, 137.617 138.750 C 138.124 140.601, 137.833 141, 135.973 141 C 134.409 141, 128.888 145.699, 118.055 156.250 C 109.443 164.637, 99.888 172.984, 96.821 174.798 C 86.919 180.654, 79.696 179.088, 75.781 170.238 C 72.504 162.829, 71.480 152.377, 72.864 140.466 L 74.064 130.144 66.642 119.322 C 62.559 113.370, 55.511 102.443, 50.979 95.041 C 46.447 87.639, 41.699 80.764, 40.428 79.765 C 39.158 78.766, 37.836 77.060, 37.492 75.974 C 36.618 73.222, 34.581 73.509, 30.766 76.920 C 27.591 79.759, 27.502 80.060, 27.561 87.670 C 27.626 96.138, 28.764 100.025, 36.248 117.335 C 39.877 125.729, 41.292 127.848, 45.909 131.798 C 52.731 137.636, 59.643 146.962, 61.067 152.250 C 63.913 162.818, 56.688 171.382, 39.757 177.512 L 33.789 179.673 62.557 180.337 C 117.808 181.611, 165.163 180.681, 177 178.091 L 180.500 177.325 173.607 175.151 C 164.325 172.223, 149.467 170.658, 138.438 171.446 C 118.657 172.859, 119.129 168.526, 140.500 152.510 C 145.450 148.801, 149.790 144.806, 150.144 143.633 C 150.498 142.460, 151.722 137.538, 152.864 132.696 C 154.005 127.854, 157.016 118.854, 159.554 112.696 C 167.342 93.803, 169.001 88.244, 168.990 81.075 C 168.974 70.246, 164.096 61.947, 152.483 52.987 L 146.946 48.715 129.848 50.933 C 117.987 52.471, 112.431 52.831, 111.708 52.108 C 110.407 50.807, 110.597 50.747, 124.500 48.074 C 130.550 46.911, 137.750 45.353, 140.500 44.613 C 145.354 43.306, 145.412 43.247, 142.500 42.597 C 136.221 41.197, 128.996 36.627, 120.403 28.619 C 107.641 16.726, 105.702 15.966, 100.993 21.007 M 75.963 28.036 C 72.409 31.268, 69.790 33.933, 70.145 33.956 C 71.773 34.066, 83.702 29.821, 85.375 28.536 C 87.490 26.913, 87.019 24.616, 84.270 23.144 C 82.755 22.334, 81.277 23.204, 75.963 28.036 M 163.947 32.556 C 162.626 33.962, 159.510 36.485, 157.023 38.162 C 151.668 41.772, 154.843 41.179, 162.500 37.139 C 165.897 35.346, 167.602 33.779, 167.820 32.250 C 168.239 29.297, 166.910 29.403, 163.947 32.556 M 49 40.377 L 42.500 41.500 49.415 41.799 C 54.628 42.025, 56.711 41.718, 57.879 40.549 C 59.278 39.150, 59.238 39.012, 57.464 39.127 C 56.384 39.198, 52.575 39.760, 49 40.377 M 146.813 42.683 C 147.534 42.972, 148.397 42.936, 148.729 42.604 C 149.061 42.272, 148.471 42.036, 147.417 42.079 C 146.252 42.127, 146.015 42.364, 146.813 42.683 M 52.889 49.844 C 47.162 56.193, 41.522 64.361, 40.526 67.750 C 39.886 69.930, 40.080 70, 46.778 70 C 50.580 70, 59.897 71.164, 67.483 72.587 C 81.947 75.299, 82.945 75.187, 82.985 70.832 C 82.993 69.914, 83.273 68.452, 83.607 67.582 C 84.145 66.181, 82.428 66, 68.607 66 C 55.803 66, 53 65.745, 53 64.582 C 53 63.698, 56.024 62.157, 61.035 60.488 C 69.103 57.801, 75 53.992, 75 51.467 C 75 50.721, 73.987 49.004, 72.750 47.651 C 70.956 45.689, 69.233 45.089, 64.246 44.690 L 57.992 44.189 52.889 49.844 M 86.690 66.750 C 86.455 67.162, 85.945 69.256, 85.557 71.402 L 84.852 75.305 102.676 74.673 C 120.178 74.052, 138.304 71.574, 144.500 68.956 L 147.500 67.688 143.500 66.902 C 138.367 65.892, 87.257 65.756, 86.690 66.750 M 40 74.385 C 40 77.204, 44.730 78.829, 56.457 80.038 C 62.947 80.707, 70.951 81.010, 74.244 80.712 C 80.810 80.116, 83.894 78.434, 79.895 77.629 C 55.684 72.757, 40 71.482, 40 74.385 M 86.250 78.716 C 87.763 78.945, 90.237 78.945, 91.750 78.716 C 93.263 78.487, 92.025 78.300, 89 78.300 C 85.975 78.300, 84.737 78.487, 86.250 78.716 M 95.711 81.003 C 86.980 82.121, 87.640 83, 97.211 83 C 103.586 83, 106.071 82.619, 107 81.500 C 108.067 80.214, 107.763 80.019, 104.872 80.131 C 103.018 80.203, 98.895 80.596, 95.711 81.003 M 47.476 84 C 50.729 89.683, 58.112 101.399, 65.349 112.364 L 74.500 126.228 75.172 119.864 C 75.542 116.364, 76.771 108.100, 77.904 101.500 C 80.693 85.249, 80.690 85.202, 76.750 84.568 C 72.356 83.861, 47.116 83.372, 47.476 84 M 82.563 89.750 C 82.198 92.362, 81.630 96.075, 81.302 98 L 80.705 101.500 84.102 97.095 C 85.971 94.672, 88.175 92.376, 89 91.992 C 89.825 91.609, 92.663 90.216, 95.307 88.898 L 100.115 86.500 95.307 85.838 C 92.663 85.473, 88.864 85.136, 86.864 85.088 C 83.269 85.001, 83.219 85.054, 82.563 89.750 M 99 90.064 C 95.425 92.207, 91.984 93.970, 91.354 93.980 C 89.485 94.012, 84.430 100.396, 81.720 106.146 C 80.332 109.091, 78.883 114.469, 78.498 118.099 C 77.818 124.521, 77.876 124.758, 80.650 126.958 C 83.129 128.924, 84.282 129.146, 89.500 128.657 C 92.800 128.348, 98.187 127.163, 101.471 126.025 C 107.137 124.061, 110.750 123.977, 109.601 125.836 C 109.312 126.304, 105.571 127.728, 101.288 129.002 C 91.637 131.871, 83.394 132.143, 79.687 129.715 C 76.415 127.571, 76.243 128.568, 79.255 132.229 C 83.519 137.413, 100.067 139.654, 110.719 136.491 C 118.947 134.047, 120.029 132.647, 122.620 121.093 C 125.347 108.934, 128.977 100.459, 131.848 99.548 C 132.975 99.190, 134.207 97.908, 134.586 96.699 C 134.964 95.489, 136.584 92.588, 138.185 90.250 L 141.096 86 123.298 86.084 L 105.500 86.168 99 90.064 M 129.105 108.450 C 126.551 115.276, 123.672 127.006, 124.379 127.712 C 124.641 127.974, 126.066 126.272, 127.545 123.928 C 129.425 120.951, 130.514 117.422, 131.161 112.213 C 132.389 102.314, 131.803 101.241, 129.105 108.450 M 129.208 126.049 C 125.331 132.121, 122.649 134.444, 116 137.487 C 110.231 140.127, 108.432 140.460, 100 140.447 C 89.491 140.430, 79.719 138.106, 78.116 135.242 C 76.197 131.814, 75.539 135.381, 75.520 149.314 C 75.502 161.760, 75.765 164.072, 77.656 168.166 C 83.688 181.215, 92.006 178.126, 117 153.550 C 124.425 146.250, 131.410 139.652, 132.523 138.888 C 134.493 137.536, 134.505 137.307, 132.978 130.049 L 131.411 122.598 129.208 126.049" stroke="none" fill="black" fill-rule="evenodd"/>
</svg>