<svg xmlns="http://www.w3.org/2000/svg" width="200" height="200" viewBox="0 0 200 200" version="1.1">
	<path d="M 63.714 28.577 L 42.929 48.132 39.375 46.959 C 35.254 45.599, 31.272 46.206, 25.274 49.109 C 20.853 51.249, 19.573 54.238, 22.582 55.393 C 23.452 55.727, 26.827 56, 30.082 56 C 36.382 56, 37.213 56.865, 34.958 61.078 C 33.485 63.831, 37.422 66.967, 47.482 71.053 C 51.892 72.845, 57.900 75.834, 60.834 77.697 C 65.549 80.690, 66.617 82.041, 70.030 89.324 C 76.494 103.117, 76.994 109.357, 71.721 110.427 C 70.500 110.675, 65.196 111.089, 59.936 111.348 C 49.095 111.880, 44.460 113.448, 38.911 118.462 C 34.927 122.061, 27.433 126.341, 26.050 125.808 C 25.609 125.639, 28.352 121.225, 32.145 116 C 47.005 95.527, 50.744 81.436, 43.661 72.589 C 40.128 68.174, 38.291 70.203, 41.734 74.718 C 47.754 82.611, 44.204 94.861, 30.494 113.500 C 21.596 125.596, 20.637 127.454, 22.492 128.994 C 24.473 130.637, 36.627 125.012, 41.128 120.368 C 45.369 115.992, 52.030 114, 62.432 113.998 C 73.275 113.996, 77.372 112.052, 77.813 106.699 C 78.186 102.176, 75.970 95.001, 71.332 85.720 C 67.455 77.961, 62.969 74.502, 49.374 68.788 C 45.043 66.967, 40.600 64.924, 39.500 64.247 C 37.575 63.062, 37.631 62.904, 41 60.035 L 44.500 57.054 58.201 57.027 C 65.736 57.012, 74.174 57.487, 76.951 58.083 L 82 59.166 81.994 74.333 C 81.982 104.476, 76.645 124.118, 62.601 145.697 C 56.238 155.474, 53.139 158.173, 27.213 176.513 C 13.967 185.883, 17.386 187.955, 36 181.838 C 47.684 177.998, 61.134 171.381, 70.789 164.723 C 84.537 155.242, 97.722 138.834, 101.704 126.250 C 102.618 123.363, 103.650 121, 103.998 121 C 104.346 121, 106.736 125.838, 109.308 131.750 C 117.243 149.986, 122.639 158.629, 132 168.095 C 142.146 178.355, 149.727 182.644, 155.741 181.529 C 161.389 180.482, 168.520 176.220, 173.457 170.942 C 180.559 163.350, 180.800 155.803, 174.086 151.279 C 169.657 148.295, 165.199 147.157, 153.656 146.065 C 135.656 144.362, 127 137.910, 127 126.198 C 127 120.050, 130.095 115.118, 135.162 113.189 C 138.387 111.962, 139.212 112.007, 142.555 113.593 C 144.948 114.729, 147.407 117.130, 149.309 120.189 C 151.984 124.493, 152.678 125, 155.899 124.998 C 167.871 124.993, 172.945 114.109, 167.917 99.221 C 161.156 79.201, 139.989 62.161, 127.750 66.888 C 124.566 68.118, 124.092 70, 126.965 70 C 130.169 70, 131.327 73.571, 130.613 81.251 C 129.378 94.544, 122 111.500, 117.452 111.500 C 114.647 111.500, 112.284 105.990, 109.881 93.848 C 106.037 74.422, 108.977 63.461, 119.482 58.055 C 123.895 55.784, 125.616 55.503, 134.973 55.528 C 141.120 55.544, 148.960 56.290, 153.815 57.321 L 162.130 59.087 167.480 56.638 C 170.423 55.290, 173.633 52.963, 174.614 51.466 C 176.386 48.762, 176.377 48.726, 173.339 46.012 C 164.580 38.186, 135.054 40.071, 126.497 49.003 C 123.420 52.215, 120.656 52.712, 116.472 50.805 C 110.833 48.236, 109.760 41.235, 112.618 25.661 C 114.643 14.629, 113.848 12, 108.488 12 C 105.026 12, 97.201 15.352, 91.846 19.128 C 90.386 20.158, 88.946 21, 88.646 21 C 88.346 21, 87.569 18.300, 86.920 15 C 86.271 11.700, 85.461 9.005, 85.120 9.011 C 84.779 9.017, 75.146 17.822, 63.714 28.577 M 66.443 29.708 C 46.451 48.540, 46.027 49, 48.653 49 C 49.697 49, 55.039 45.576, 60.525 41.391 C 66.011 37.207, 73.763 31.499, 77.750 28.708 C 84.138 24.236, 84.992 23.268, 84.930 20.566 C 84.747 12.595, 84.461 12.737, 66.443 29.708 M 104 15.589 C 102.075 16.419, 97.749 18.750, 94.386 20.768 C 88.383 24.370, 88.252 24.543, 87.188 30.267 C 86.591 33.473, 85.117 37.693, 83.911 39.644 C 79.261 47.168, 69.001 51.986, 57.568 52.015 C 54.231 52.024, 50.825 52.467, 50 53 C 48.982 53.658, 52.069 53.974, 59.614 53.985 C 72.332 54.002, 80.553 55.285, 83.180 57.663 C 84.760 59.093, 85 61.006, 85 72.194 C 85 102.617, 80.333 121.384, 67.292 143.407 C 61.044 153.959, 53.348 161.488, 37.683 172.374 C 30.660 177.254, 25.122 181.455, 25.376 181.709 C 26.314 182.648, 42.789 176.939, 51.771 172.563 C 78.642 159.471, 96.962 139.459, 101.146 118.630 C 101.767 115.533, 102.624 113, 103.049 113 C 103.903 113, 105.765 116.789, 111.942 131.099 C 119.649 148.955, 129.878 164.461, 138.428 171.249 C 143.548 175.314, 150.931 179, 153.953 179 C 158.241 179, 166.448 174.298, 171.400 169.003 C 175.235 164.904, 176 163.439, 176 160.198 C 176 153.358, 170.211 150.380, 154.173 148.972 C 145.212 148.184, 142.463 147.510, 137.039 144.767 C 128.495 140.447, 124.814 135.798, 124.214 128.571 C 123.356 118.215, 129.847 110, 138.890 110 C 142.363 110, 143.773 110.672, 147.484 114.092 C 149.926 116.343, 152.213 119.096, 152.567 120.210 C 153.543 123.286, 161.587 122.182, 164.717 118.543 C 169.583 112.886, 166.838 99.142, 158.358 86.704 C 151.678 76.906, 141.085 69.092, 134.389 69.022 C 132.401 69.001, 132.337 69.262, 133.301 73.471 C 135.809 84.435, 126.853 110.468, 119.405 113.861 C 114.088 116.284, 111.060 112.063, 107.802 97.688 C 103.044 76.700, 105.867 63.375, 116.555 56.372 L 119.020 54.757 115.831 53.128 C 108.403 49.335, 106.854 43.074, 109.510 27.577 C 111.889 13.697, 111.309 12.435, 104 15.589 M 70.015 37.753 L 55.530 48.500 59.825 48.810 C 68.613 49.446, 78.271 44.338, 81.922 37.124 C 83.632 33.746, 85.571 26.996, 84.829 27.003 C 84.648 27.005, 77.982 31.842, 70.015 37.753 M 137.500 46.037 C 134.200 47.096, 130.225 48.993, 128.666 50.254 L 125.832 52.545 135.166 52.594 C 140.300 52.620, 148.414 53.441, 153.198 54.418 L 161.895 56.194 167.525 53.617 C 171.684 51.713, 173.068 50.578, 172.823 49.270 C 171.893 44.293, 149.364 42.231, 137.500 46.037 M 27.522 50.849 L 23.544 52.659 26.897 53.329 C 32.704 54.491, 38.670 54.103, 40.020 52.476 C 41.717 50.431, 40.896 49.833, 35.799 49.403 C 33.089 49.174, 30.030 49.709, 27.522 50.849 M 43.638 52.500 C 43.322 53.325, 43.444 54, 43.909 54 C 44.374 54, 45.315 53.325, 46 52.500 C 47.013 51.279, 46.963 51, 45.729 51 C 44.896 51, 43.955 51.675, 43.638 52.500" stroke="none" fill="black" fill-rule="evenodd"/>
</svg>