<svg xmlns="http://www.w3.org/2000/svg" width="200" height="200" viewBox="0 0 200 200" version="1.1">
	<path d="M 30.125 19.383 C 30.125 22.857, 28.707 32.404, 26.973 40.599 C 21.739 65.345, 19.060 82.080, 19.029 90.224 C 19.001 97.740, 19.078 97.989, 21.885 99.441 C 26.434 101.793, 32.508 109.418, 34.332 115.065 C 37.817 125.857, 35.985 138.673, 27.570 162.370 C 25.057 169.448, 23 175.861, 23 176.620 C 23 177.402, 24.019 178, 25.353 178 C 26.915 178, 30.580 175.311, 36.257 170 L 44.807 162 50.654 162.022 C 57.616 162.048, 62.569 164.109, 69.482 169.858 C 72.222 172.136, 75.444 174, 76.643 174 C 80.960 174, 85.384 166.755, 95.370 143.328 C 103.624 123.964, 103.976 122.118, 104.963 93 C 105.779 68.941, 106.333 63.469, 107.855 64.410 C 109.317 65.314, 109.066 96.350, 107.454 114 C 104.411 147.329, 106.373 162.873, 114.803 172.203 C 120.757 178.794, 124.884 180.355, 137.500 180.788 C 165.072 181.735, 187.115 169.651, 181.595 156.615 C 176.745 145.162, 156.841 143.318, 137.706 152.549 C 134.969 153.870, 132.340 154.710, 131.864 154.416 C 130.106 153.329, 130.909 139.817, 132.985 135.566 C 136.074 129.240, 140.002 127.252, 155.729 124.055 C 171.090 120.932, 174.506 119.564, 178.355 114.990 C 183.662 108.683, 184.159 98.621, 179.957 82.576 C 177.441 72.973, 176.098 69.963, 171.478 63.580 C 169.519 60.874, 168.112 58.151, 168.351 57.528 C 169.326 54.987, 164.456 52.225, 156.975 51.076 C 152.864 50.445, 142.765 48.284, 134.533 46.275 C 120.247 42.787, 119.701 42.563, 122.533 41.356 C 126.835 39.521, 139.405 39.826, 147.500 41.963 C 151.609 43.047, 154.886 43.443, 155.433 42.922 C 156.771 41.648, 156.119 41.272, 149.458 39.479 C 138.901 36.637, 129.040 36.421, 121.295 38.863 L 114.500 41.005 107.093 38.701 L 99.687 36.397 105.593 34.127 C 123.097 27.397, 149.460 22.856, 159.138 24.903 C 166.576 26.476, 168.465 28.589, 167.664 34.438 C 166.967 39.523, 168.479 41.501, 170.002 37.495 C 172.517 30.880, 169.859 25.099, 163.309 22.937 C 153.591 19.730, 131.139 22.839, 108.224 30.566 L 94.947 35.043 77.724 29.383 C 63.279 24.637, 59.543 22.987, 54.567 19.162 C 51.303 16.653, 48.483 15.028, 48.300 15.550 C 47.105 18.960, 46.369 18.995, 38.254 16.033 L 30.125 13.067 30.125 19.383 M 32.990 21.319 C 32.985 23.618, 31.380 33.150, 29.424 42.500 C 23.796 69.405, 22 80.666, 22 89.054 C 22 95.861, 22.245 96.943, 23.908 97.471 C 24.957 97.804, 27.635 100.050, 29.859 102.463 L 33.902 106.849 35.544 101.174 C 37.508 94.389, 43.031 82.169, 46.051 77.929 C 47.957 75.251, 48.141 74.070, 47.568 68.191 C 47.209 64.511, 46.674 60.263, 46.378 58.750 C 45.989 56.758, 46.244 56, 47.304 56 C 48.830 56, 49.963 58.871, 49.986 62.795 C 49.998 64.827, 50.373 65.029, 53.250 64.552 C 55.038 64.256, 66.400 63.087, 78.500 61.955 C 90.600 60.823, 100.823 59.807, 101.218 59.698 C 101.613 59.589, 98.039 56.384, 93.276 52.576 C 88.513 48.768, 84.473 46.068, 84.298 46.576 C 84.123 47.084, 82.631 49.853, 80.982 52.728 C 77.664 58.515, 73.393 61.388, 69.544 60.422 C 63.418 58.884, 53.531 43.098, 49.418 28.289 L 47.694 22.078 40.347 19.608 L 33 17.137 32.990 21.319 M 51.549 26.250 C 53.869 33.889, 58.598 44.616, 61.895 49.716 C 68.767 60.349, 74.721 60.219, 79.707 49.328 C 81.093 46.302, 81.838 43.490, 81.363 43.079 C 80.888 42.669, 75.775 38.730, 70 34.328 C 57.335 24.673, 50.109 21.509, 51.549 26.250 M 68.168 29.497 C 68.351 29.677, 72.005 32.532, 76.289 35.840 L 84.078 41.856 87.497 39.678 C 89.377 38.480, 90.924 37.275, 90.934 37 C 90.945 36.725, 85.752 34.851, 79.395 32.835 C 73.038 30.819, 67.986 29.317, 68.168 29.497 M 91.578 40.262 C 89.421 41.493, 87.524 42.950, 87.364 43.500 C 87.124 44.320, 94.405 50.445, 103.118 56.754 C 104.650 57.863, 105.143 57.401, 107.391 52.754 C 108.789 49.864, 110.632 46.556, 111.487 45.402 C 113.007 43.351, 112.867 43.252, 105.271 41.010 C 100.997 39.749, 97.050 38.561, 96.500 38.370 C 95.950 38.180, 93.735 39.031, 91.578 40.262 M 113.451 47.476 C 110.916 50.800, 107.608 57.941, 108.289 58.622 C 109.157 59.490, 149.569 55.622, 150.749 54.558 C 151.694 53.705, 147.609 52.328, 133.918 48.888 L 115.840 44.344 113.451 47.476 M 153.915 54.315 C 154.367 54.767, 156.483 54.984, 158.618 54.797 L 162.500 54.458 157.796 53.975 C 155.210 53.710, 153.463 53.863, 153.915 54.315 M 124 60.397 C 117.675 61.004, 112.950 61.785, 113.500 62.132 C 116.196 63.837, 121.660 63.686, 134 61.564 C 145.509 59.585, 146.615 59.247, 141.500 59.268 C 138.200 59.283, 130.325 59.790, 124 60.397 M 157.217 60.486 C 153.761 61.171, 150.778 61.905, 150.587 62.116 C 150.397 62.327, 149.027 64.916, 147.543 67.870 C 145.269 72.395, 144.950 74, 145.511 78.083 C 146.359 84.249, 151.518 94.999, 156.855 101.721 C 160.665 106.519, 161.882 109, 160.425 109 C 160.109 109, 155.393 104.861, 149.946 99.801 C 144.499 94.742, 139.379 90.232, 138.569 89.778 C 136.674 88.718, 135.407 91.060, 132.843 100.361 C 130.624 108.409, 128.655 112, 126.458 112 C 124.602 112, 125.255 108.849, 128.738 101 C 130.080 97.975, 131.421 92.965, 131.717 89.866 L 132.257 84.233 122.457 76.116 C 117.066 71.652, 112.367 68, 112.014 68 C 111.660 68, 111.560 73.063, 111.791 79.250 C 112.022 85.438, 111.489 98.755, 110.606 108.844 C 106.889 151.311, 109.568 167.560, 121.434 174.514 C 134.651 182.260, 165.942 178.144, 176.232 167.305 C 180.086 163.246, 180.705 159.166, 177.990 155.714 C 171.268 147.168, 155.989 147.161, 137.744 155.694 C 133.478 157.689, 129.658 158.992, 129.256 158.589 C 128.853 158.186, 128.524 153.276, 128.525 147.678 C 128.526 136.592, 129.450 133.753, 134.675 128.789 C 138.183 125.456, 143.526 123.513, 154.823 121.462 C 167.802 119.105, 172.516 117.315, 175.904 113.457 C 179.503 109.358, 180.462 104.973, 179.695 96.126 C 178.741 85.117, 174.553 72.634, 169.385 65.391 C 166.877 61.876, 164.526 59.054, 164.162 59.119 C 163.798 59.185, 160.673 59.800, 157.217 60.486 M 135.500 64.062 C 132.750 64.517, 129.113 65.145, 127.418 65.458 L 124.336 66.028 128.189 70.078 C 130.487 72.494, 132.518 75.906, 133.220 78.534 C 133.868 80.957, 134.933 83.144, 135.586 83.395 C 136.986 83.932, 142.489 72.275, 143.443 66.750 C 144.171 62.535, 144.356 62.598, 135.500 64.062 M 93.197 65.174 C 84.072 66.318, 81.518 67.279, 79.528 70.317 C 78.055 72.565, 78.117 73.042, 80.482 77.611 C 86.901 90.012, 87.435 107.281, 81.986 126.249 C 77.232 142.800, 74.733 147.602, 71.519 146.369 C 68.786 145.320, 67.691 138.810, 67.758 124.005 C 67.831 107.816, 70.061 89.139, 73.047 79.710 L 75.014 73.500 71.795 70.750 C 66.591 66.305, 59.933 67.044, 53.815 72.747 C 51.149 75.232, 51.130 75.347, 51.161 89.037 C 51.184 98.877, 50.728 104.423, 49.570 108.406 C 47.721 114.768, 44.569 117.611, 40.498 116.589 L 37.982 115.957 38.605 122.729 C 39.461 132.031, 36.989 144.361, 30.946 160.940 C 28.251 168.332, 26.225 174.558, 26.443 174.777 C 26.662 174.995, 30.533 171.647, 35.046 167.337 L 43.251 159.500 50.875 159.533 C 59.441 159.570, 64.192 161.469, 70.916 167.543 C 73.021 169.444, 75.452 171, 76.320 171 C 78.115 171, 81.818 166.401, 84.788 160.481 C 88.693 152.699, 99.070 127.648, 100.066 123.598 C 100.621 121.344, 101.480 108.211, 101.977 94.413 C 102.474 80.615, 103.181 68.127, 103.548 66.663 C 104.308 63.638, 104.839 63.714, 93.197 65.174 M 71 65.885 C 71 66.763, 76.014 70.462, 76.347 69.830 C 76.443 69.648, 77.374 68.487, 78.416 67.250 L 80.310 65 75.655 65 C 73.095 65, 71 65.398, 71 65.885 M 50.446 68.087 C 49.125 70.225, 51.544 70.822, 53.861 68.929 L 56.222 67 53.670 67 C 52.266 67, 50.816 67.489, 50.446 68.087 M 116.550 67.797 C 126.164 75.864, 129.196 78.137, 129.688 77.646 C 130.651 76.682, 125.135 70.121, 121.998 68.499 C 118.964 66.930, 114.892 66.406, 116.550 67.797 M 74.120 87.269 C 70.189 106.120, 69.001 134.421, 71.819 142.041 C 72.561 144.047, 72.841 143.789, 74.705 139.381 C 75.841 136.696, 78.056 130.225, 79.629 125 C 82.153 116.617, 82.485 113.972, 82.459 102.500 C 82.434 91.356, 82.104 88.682, 80.150 83.769 C 78.896 80.617, 77.507 77.813, 77.062 77.538 C 76.617 77.263, 75.293 81.642, 74.120 87.269 M 140.658 81.591 C 139.746 83.503, 139 85.407, 139 85.822 C 139 86.237, 141.109 88.339, 143.686 90.493 C 146.830 93.121, 148.092 93.767, 147.523 92.455 C 147.056 91.380, 145.694 87.713, 144.495 84.307 L 142.316 78.114 140.658 81.591 M 43.505 88.283 C 41.654 92.288, 39.119 99.036, 37.871 103.277 C 35.629 110.899, 35.625 111.006, 37.551 112.463 C 40.408 114.623, 43.745 114.321, 45.420 111.750 C 48.397 107.183, 50.538 81, 47.935 81 C 47.349 81, 45.356 84.277, 43.505 88.283" stroke="none" fill="black" fill-rule="evenodd"/>
</svg>