<svg xmlns="http://www.w3.org/2000/svg" width="200" height="200" viewBox="0 0 200 200" version="1.1">
	<path d="M 68 11.104 C 55.572 11.989, 37.101 14.631, 33.335 16.063 C 32.051 16.551, 31 17.412, 31 17.975 C 31 18.539, 30.100 19.900, 29 21 C 26.338 23.662, 26.462 25.615, 30 36.659 C 31.650 41.809, 33 47.158, 33 48.544 C 33 55.439, 27.550 61.660, 19.031 64.490 C 16.264 65.409, 14 66.561, 14 67.051 C 14 67.541, 16.497 69.123, 19.549 70.567 C 26.739 73.968, 29.979 78.681, 30.717 86.810 C 31.358 93.887, 29.694 102.021, 23.356 122.778 C 18.025 140.241, 16.642 152.474, 19.398 157.803 C 20.307 159.561, 21.296 161, 21.596 161 C 21.895 161, 24.021 159.722, 26.320 158.161 C 28.619 156.599, 37.250 151.353, 45.500 146.501 C 53.750 141.650, 62.244 135.949, 64.376 133.832 C 68.024 130.209, 68.225 129.697, 67.787 125.137 C 67.468 121.814, 64.914 115.297, 59.660 104.396 C 55.447 95.653, 52.003 88.050, 52.008 87.500 C 52.013 86.950, 54.996 84.925, 58.636 83 C 62.277 81.075, 67.223 77.774, 69.628 75.665 C 76.074 70.011, 75.769 67.164, 67.887 59.469 C 58.760 50.556, 56.300 43.500, 59.009 34 C 60.943 27.218, 60.211 27.238, 78.884 33.461 C 88.298 36.599, 96 39.495, 96 39.898 C 96 40.300, 94.425 41.381, 92.500 42.299 C 88.636 44.141, 88.203 45.462, 90.594 48.104 C 92.990 50.752, 91.610 54.837, 86.249 60.965 L 81.574 66.309 81.822 73.405 C 81.958 77.307, 83.453 87.250, 85.143 95.500 C 87.800 108.465, 88.141 111.857, 87.659 120.500 C 87.352 126, 86.356 134.100, 85.447 138.500 C 83.798 146.474, 83.765 146.528, 75.436 155.081 C 66.058 164.710, 63.829 168.670, 66.632 170.720 C 67.595 171.424, 68.760 172, 69.223 172 C 71.235 172, 83.548 167.385, 96.335 161.838 C 103.945 158.538, 110.344 156.011, 110.556 156.223 C 110.768 156.435, 107.337 159.454, 102.931 162.931 C 95.094 169.117, 94.959 169.297, 96.710 171.249 C 99.887 174.788, 109.532 180.806, 114.779 182.523 C 121.906 184.854, 126.161 183.392, 130.035 177.285 C 133.225 172.254, 135.082 164.961, 137.492 148 C 140.769 124.944, 142.559 123.094, 144.548 140.711 C 145.239 146.828, 145.370 147.044, 153.241 155 C 164.647 166.529, 172.855 170.142, 174.974 164.568 C 177.754 157.256, 165.740 140.137, 151.250 130.764 C 146.464 127.668, 145 126.164, 145 124.339 C 145 120.555, 149.119 119.199, 154.611 121.174 L 159.021 122.760 163.143 117.630 C 168.538 110.915, 172.731 102.002, 173.540 95.525 C 173.932 92.389, 173.563 86.383, 172.611 80.396 C 170.779 68.870, 171.444 64.842, 176.046 59.600 L 178.983 56.255 174.241 55.663 C 171.634 55.338, 165.450 54.773, 160.500 54.407 C 149.347 53.584, 147.311 52.704, 152.601 50.991 C 166.688 46.432, 173.901 38.640, 172.116 29.911 L 171.445 26.632 168.170 31.735 C 163.708 38.689, 160.789 40.469, 154.430 40.115 C 151.188 39.935, 144.664 33.709, 138.506 24.923 C 131.188 14.478, 129.500 14.496, 129.500 25.017 C 129.500 29.133, 129.839 35.428, 130.253 39.008 C 130.927 44.828, 130.801 45.643, 129.068 46.726 C 127.453 47.734, 125.492 47.337, 117.315 44.346 C 106.080 40.236, 104.886 39.474, 108.149 38.491 C 111.061 37.614, 117.679 31.425, 119.582 27.800 C 121.936 23.316, 121.381 19.498, 117.955 16.615 C 114.195 13.452, 109.185 12.057, 97.526 10.928 C 87.297 9.938, 84.122 9.957, 68 11.104 M 65.500 14.073 C 53.511 15.131, 39.775 17.108, 40.358 17.691 C 40.616 17.949, 46.562 17.670, 53.571 17.071 C 60.581 16.472, 66.488 16.155, 66.698 16.365 C 66.909 16.576, 66.102 18.408, 64.904 20.438 C 63.686 22.503, 63.118 24.469, 63.614 24.904 C 64.101 25.331, 72.764 28.494, 82.865 31.933 L 101.230 38.184 105.624 36.506 C 112.915 33.721, 119.851 25.257, 118.452 20.850 C 116.442 14.516, 93.603 11.593, 65.500 14.073 M 52.027 19.923 L 45.555 20.500 52.484 22.328 C 59.106 24.075, 59.470 24.078, 60.706 22.387 C 62.472 19.972, 62.330 18.967, 60.250 19.173 C 59.288 19.268, 55.587 19.605, 52.027 19.923 M 132.052 25.808 C 131.972 33.941, 134.146 50.318, 135.530 52 C 137.530 54.432, 138.118 57.559, 137.086 60.273 C 135.917 63.347, 138.307 82.269, 139.933 82.811 C 141.183 83.228, 141.389 86, 140.170 86 C 139.480 86, 143.660 117.922, 144.462 118.778 C 144.605 118.931, 145.954 118.588, 147.459 118.016 C 149.380 117.285, 151.417 117.305, 154.298 118.080 C 158.280 119.153, 158.483 119.087, 161.204 115.842 C 162.746 114.004, 165.469 109.587, 167.254 106.026 C 170.146 100.258, 170.491 98.676, 170.414 91.526 C 170.366 87.112, 169.967 79.592, 169.527 74.815 C 168.795 66.876, 168.913 65.812, 170.904 62.439 C 172.101 60.409, 172.950 58.637, 172.791 58.502 C 172.631 58.366, 166.677 57.718, 159.560 57.061 C 139.988 55.255, 138.554 53.551, 152.162 48.270 C 160.148 45.171, 169 39.144, 169 36.806 C 169 36.235, 167.199 37.395, 164.997 39.384 C 161.691 42.370, 160.237 43, 156.647 43 C 149.696 43, 144.434 38.385, 133.802 22.962 C 132.108 20.505, 132.105 20.510, 132.052 25.808 M 30.667 22.667 C 29.483 23.850, 29.953 27.551, 32.054 33.593 C 35.266 42.833, 36.145 48.750, 34.959 53.154 C 33.618 58.131, 29.172 63.168, 24.100 65.455 L 20.101 67.258 23.696 69.697 C 28.898 73.228, 30.775 75.807, 32.646 82 C 34.887 89.413, 33.538 98.595, 26.983 120.556 C 24.246 129.726, 21.582 139.867, 21.063 143.092 C 20.118 148.958, 20.599 155.634, 22.030 156.519 C 23.050 157.149, 58.737 135.616, 62.341 132.196 C 66.798 127.967, 65.828 123.478, 56.056 103.117 C 51.507 93.638, 47.946 85.749, 48.142 85.587 C 48.339 85.425, 51.762 83.596, 55.750 81.522 C 63.468 77.509, 72 70.685, 72 68.526 C 72 67.809, 69.260 64.584, 65.911 61.361 C 55.855 51.681, 53.625 45.109, 56.504 33.631 C 57.437 29.911, 58.043 26.727, 57.850 26.555 C 57.658 26.384, 53.394 25.289, 48.376 24.122 C 39.278 22.006, 31.931 21.402, 30.667 22.667 M 96.714 43.215 C 92.174 45.179, 92.121 45.256, 93.657 47.600 C 96.179 51.449, 93.948 56.932, 86.706 64.687 C 83.793 67.807, 83.744 68.031, 84.433 75.187 C 84.820 79.209, 86.298 87.675, 87.719 94 C 90.948 108.376, 91.202 122.112, 88.514 137 L 86.618 147.500 77.309 157.239 C 72.189 162.596, 68 167.433, 68 167.989 C 68 170.317, 74.657 168.206, 95.500 159.269 C 113.399 151.594, 113.854 151.457, 114.637 153.497 C 115.358 155.376, 111.132 160.132, 103.684 165.821 L 98.868 169.500 102.648 172.680 C 107.531 176.787, 114.171 180.080, 118.818 180.700 C 126.901 181.777, 130.615 174.733, 134.013 151.879 C 135.189 143.971, 136.743 135.162, 137.466 132.305 L 138.781 127.111 131.943 125.555 C 128.182 124.700, 124.119 124, 122.913 124 C 121.701 124, 117.993 126.371, 114.611 129.309 C 105.832 136.936, 101.545 140, 99.656 140 C 96.671 140, 97.904 137.172, 104.330 129.277 C 110.385 121.837, 110.858 121.487, 115.220 121.200 C 118.152 121.007, 120.400 120.215, 121.515 118.984 C 123.201 117.121, 123.156 117.095, 119.881 118.034 C 115.470 119.299, 115 119.259, 115 117.622 C 115 115.794, 132.806 103.809, 134.881 104.240 C 135.772 104.425, 136.429 105.395, 136.343 106.395 C 136.246 107.529, 136.540 107.860, 137.126 107.274 C 138.843 105.557, 137.019 103.472, 130.024 99.155 C 126.214 96.804, 122.810 93.975, 122.458 92.869 C 121.516 89.899, 124.522 87.195, 130.791 85.372 L 136.230 83.791 135.580 78.646 C 135.223 75.816, 134.665 72.004, 134.340 70.175 L 133.749 66.851 130.625 69.864 C 126.429 73.910, 122.737 75.260, 120.447 73.585 C 117.781 71.635, 118.420 66.753, 122.456 58.255 C 124.428 54.104, 125.919 50.609, 125.770 50.489 C 125.622 50.369, 123.025 49.354, 120 48.232 C 116.975 47.111, 111.537 45.073, 107.917 43.704 L 101.333 41.215 96.714 43.215 M 125.145 58.750 C 121.677 65.974, 120.738 71.011, 122.728 71.717 C 123.403 71.956, 126.052 70.171, 128.615 67.750 L 133.274 63.348 132.565 57.674 C 131.562 49.646, 129.363 49.965, 125.145 58.750 M 129.250 88.662 C 126.912 89.490, 125 90.731, 125 91.420 C 125 92.109, 128.179 94.740, 132.064 97.267 C 139.073 101.824, 139.124 101.839, 138.602 99.180 C 138.313 97.706, 137.783 94.362, 137.424 91.750 C 136.693 86.420, 136.157 86.217, 129.250 88.662 M 128.203 110.429 C 123.779 113.558, 123.451 113.956, 125.815 113.338 C 126.922 113.049, 128.845 111.729, 130.088 110.406 C 132.887 107.427, 132.442 107.432, 128.203 110.429 M 134.100 112.643 C 128.564 116.016, 123.714 120.047, 124.384 120.718 C 124.591 120.925, 128.205 121.915, 132.415 122.918 C 139.436 124.591, 140.139 124.607, 140.928 123.121 C 141.612 121.832, 140.543 109.916, 139.703 109.462 C 139.591 109.402, 137.070 110.834, 134.100 112.643 M 107.371 129.729 C 102.213 135.796, 103.940 135.071, 112.500 127.577 C 115.936 124.569, 116.200 124.070, 114.371 124.038 C 112.988 124.013, 110.537 126.007, 107.371 129.729 M 146.457 135.125 C 146.828 137.531, 147.394 141.051, 147.714 142.947 C 148.770 149.199, 168.497 166.665, 172.034 164.479 C 177.029 161.392, 161.777 139.629, 150.060 133.125 L 145.782 130.749 146.457 135.125" stroke="none" fill="black" fill-rule="evenodd"/>
</svg>