<svg xmlns="http://www.w3.org/2000/svg" width="200" height="200" viewBox="0 0 200 200" version="1.1">
	<path d="M 14 14.455 C 14 16.097, 16.924 16.705, 27.786 17.324 C 31.793 17.552, 35.299 17.965, 35.577 18.243 C 35.855 18.521, 33.577 26.168, 30.515 35.237 C 26.807 46.217, 24.593 54.693, 23.886 60.612 C 23.302 65.501, 21.937 75.736, 20.853 83.358 C 19.769 90.979, 19.104 97.437, 19.374 97.708 C 21.357 99.690, 23.516 89.194, 26.002 65.500 C 27.212 53.965, 29.445 45.413, 35.729 28.250 L 40.214 16 47.215 16 L 54.217 16 53.525 18.750 C 53.145 20.262, 52.414 27.800, 51.900 35.500 C 50.450 57.225, 49.483 60.933, 45.250 60.985 C 44.563 60.993, 44 61.675, 44 62.500 C 44 63.325, 44.675 64, 45.500 64 C 47.398 64, 47.465 63.430, 44.354 73.735 C 42.117 81.144, 41.692 84.511, 41.604 95.500 C 41.515 106.634, 41.787 109.074, 43.500 112.500 C 48.629 122.759, 54.600 114.885, 59.046 92 C 60.061 86.775, 61.628 80.737, 62.529 78.583 C 64.687 73.422, 64.659 66.385, 62.471 63.968 C 60.856 62.183, 60.911 62.064, 63.638 61.440 C 65.212 61.081, 70.081 59.901, 74.459 58.818 C 83.712 56.531, 84.413 56.900, 85.580 64.683 C 86.528 71.008, 84.734 78.943, 77.481 100.500 C 68.890 126.037, 68.925 125.689, 73.934 135.304 C 77.030 141.246, 78 144.246, 78 147.879 C 78 155.080, 74.247 157.771, 59 161.504 C 47.626 164.289, 37.425 167.979, 32.543 171.075 C 29.938 172.727, 27.966 173.723, 28.161 173.289 C 28.355 172.855, 30.034 169.581, 31.891 166.013 C 36.581 157.004, 39.705 148.355, 41.041 140.685 C 43.701 125.411, 36.658 113.662, 21.250 107.669 C 17.658 106.272, 17 106.238, 17 107.452 C 17 108.243, 19.722 110.110, 23.058 111.607 C 34.455 116.721, 40.048 126.424, 38.617 138.599 C 37.721 146.224, 32.878 158.870, 26.482 170.284 C 21.658 178.895, 19.821 184, 21.548 184 C 21.849 184, 24.321 181.774, 27.041 179.054 C 33.088 173.007, 41.141 169.106, 55 165.508 C 70.095 161.589, 75.544 159.330, 78.565 155.740 C 80.871 153, 81.157 151.912, 80.778 147.334 C 80.500 143.988, 79.007 139.375, 76.671 134.649 C 74.652 130.563, 73 126.207, 73 124.969 C 73 123.730, 75.939 114.043, 79.532 103.443 C 87.776 79.119, 89.515 70.632, 87.812 63.030 C 87.131 59.989, 86.557 57.100, 86.537 56.610 C 86.495 55.611, 95.146 52.813, 95.912 53.579 C 96.182 53.849, 96.733 57.092, 97.135 60.785 C 97.914 67.934, 96.914 84.178, 94.537 103 C 93.739 109.325, 92.781 117.875, 92.409 122 C 91.507 132, 88.418 140.296, 78.322 159.833 C 73.492 169.181, 70.015 177.093, 70.191 178.333 C 70.779 182.462, 75.041 181.594, 84.131 175.493 C 94.921 168.251, 102.680 159.624, 109.885 146.858 C 119.925 129.068, 125.462 99.869, 123.227 76.500 C 122.024 63.930, 125.323 44.392, 128.845 43.218 C 132.437 42.021, 136.158 63.719, 136.007 84.974 C 135.403 169.929, 135.588 173.679, 140.643 178.734 C 143.810 181.901, 148.093 181.412, 154.222 177.184 C 163.190 170.998, 162.395 176.880, 162.565 115.470 L 162.716 61.056 166.315 57.073 C 171.550 51.279, 174.196 45.424, 174.761 38.390 C 175.328 31.319, 173.167 22.997, 169.602 18.526 C 167.434 15.807, 167.149 15.742, 157.940 15.889 C 152.748 15.972, 121.950 15.362, 89.500 14.533 C 14.368 12.614, 14 12.614, 14 14.455 M 57.625 18.092 C 56.710 21.066, 54.514 43.688, 54.782 47.376 C 55.092 51.626, 56.530 55, 58.032 55 C 58.561 55, 60.813 53.357, 63.035 51.349 L 67.076 47.699 72.297 48.867 C 75.168 49.510, 78.834 50.832, 80.442 51.805 C 83.151 53.443, 83.797 53.462, 89.183 52.058 C 92.383 51.225, 94.998 50.308, 94.996 50.021 C 94.986 48.531, 90.774 42.898, 88.610 41.480 C 87.244 40.585, 83.999 39.548, 81.399 39.176 C 78.800 38.804, 76.634 38.082, 76.586 37.572 C 76.381 35.370, 84.499 34.701, 116.750 34.266 C 145.258 33.881, 151 34.033, 151 35.169 C 151 36.002, 148.561 37.179, 144.750 38.186 C 141.313 39.093, 137.314 40.292, 135.865 40.849 L 133.231 41.863 135.045 48.407 C 138.515 60.922, 139.075 71.807, 138.574 117 C 137.988 169.768, 138.893 178.007, 145.273 177.996 C 147.873 177.992, 153.327 174.899, 157.270 171.192 L 160.039 168.588 159.913 114.272 L 159.786 59.955 163.982 55.403 C 170.335 48.512, 172.339 43.159, 171.779 34.583 C 171.489 30.142, 170.534 25.974, 169.219 23.408 L 167.121 19.317 145.810 18.669 C 85.276 16.829, 58.069 16.651, 57.625 18.092 M 100.306 36.779 L 88.112 37.059 92.556 41.503 C 95 43.947, 97 46.634, 97 47.474 C 97 48.313, 97.636 49, 98.413 49 C 100.792 49, 126.325 41.075, 127.395 40.005 C 127.948 39.452, 129.547 38.968, 130.950 38.930 C 132.352 38.891, 134.400 38.488, 135.500 38.033 C 137.865 37.056, 118.436 36.364, 100.306 36.779 M 117.500 46.520 C 115.300 47.269, 110.329 48.800, 106.454 49.923 L 99.408 51.963 99.831 64.671 C 100.296 78.624, 96.229 120.843, 93.250 133 C 92.340 136.712, 87.656 147.392, 82.329 157.899 C 77.198 168.019, 73 176.681, 73 177.149 C 73 179.027, 75.889 177.745, 83.885 172.319 C 100.948 160.741, 112.838 140.765, 118.595 114 C 120.061 107.185, 120.441 100.743, 120.509 81.500 C 120.566 65.464, 121.013 56.007, 121.857 53 C 122.551 50.525, 123.348 47.712, 123.627 46.750 C 124.228 44.680, 123.034 44.635, 117.500 46.520 M 65.407 53.102 C 62.259 56.582, 58.287 58.224, 55.991 56.995 C 54.896 56.409, 53.968 55.383, 53.930 54.715 C 53.847 53.287, 52.173 56.919, 52.070 58.750 C 52.029 59.490, 53.235 60, 55.030 60 C 59.456 60, 79.061 54.908, 78.449 53.917 C 77.873 52.985, 71.413 51.014, 68.905 51.006 C 68.028 51.003, 66.454 51.946, 65.407 53.102 M 52.311 64.009 C 44.718 67.067, 40.670 113.500, 47.996 113.500 C 50.185 113.500, 52.906 106.932, 55.214 96.079 C 56.334 90.810, 58.319 82.985, 59.625 78.688 C 62.571 69, 62.568 68.477, 59.545 65.455 C 56.930 62.839, 55.783 62.610, 52.311 64.009" stroke="none" fill="black" fill-rule="evenodd"/>
</svg>