<svg xmlns="http://www.w3.org/2000/svg" width="200" height="200" viewBox="0 0 200 200" version="1.1">
	<path d="M 132.952 16.434 C 109.178 31.389, 110.286 30.883, 100.880 31.089 C 96.139 31.194, 91.706 30.936, 91.028 30.517 C 90.350 30.099, 89.200 28.330, 88.472 26.588 L 87.149 23.420 77.324 24.171 C 64.410 25.159, 51.975 26.943, 49.769 28.124 C 46.718 29.756, 47.769 31.860, 52.250 33.090 C 54.587 33.731, 64.600 34.463, 74.500 34.715 C 84.400 34.967, 94.342 35.400, 96.594 35.677 C 98.845 35.954, 102.259 35.746, 104.180 35.216 C 106.985 34.441, 109.192 34.731, 115.388 36.684 L 123.102 39.116 118.685 45.308 C 113.390 52.730, 111.571 53.498, 95.410 55.136 C 86.586 56.031, 81.626 56.029, 74.296 55.128 C 69.027 54.481, 64.472 54.194, 64.175 54.492 C 62.636 56.030, 66.802 57.297, 74.921 57.760 C 79.914 58.044, 84 58.700, 84 59.218 C 84 60.291, 39.695 59.158, 34.652 57.956 C 32.299 57.395, 33.433 57.179, 39.125 57.102 C 47.808 56.986, 53 56.152, 53 54.875 C 53 52.957, 22.822 54.778, 20.781 56.819 C 17.551 60.049, 33.970 61.958, 65.201 61.984 C 78.930 61.995, 86.535 61.575, 90.289 60.597 C 96.729 58.920, 109 57.497, 109 58.427 C 109 58.791, 105.287 64.324, 100.750 70.724 C 96.213 77.124, 92.242 82.739, 91.927 83.202 C 91.613 83.665, 82.844 84.487, 72.442 85.029 C 52.200 86.084, 50 86.418, 50 88.431 C 50 90.142, 56.507 90.983, 70.390 91.068 C 79.241 91.122, 81.034 91.360, 79.210 92.239 C 75.008 94.262, 76.946 96.452, 83.425 97 L 89.332 97.500 81.344 105 C 76.950 109.125, 70.976 113.792, 68.068 115.372 C 63.093 118.074, 62.299 118.208, 54.640 117.628 C 50.163 117.289, 42.609 116.724, 37.854 116.373 C 30.307 115.816, 17.556 117.096, 14.747 118.693 C 13.262 119.538, 16.019 122.811, 19.128 123.895 C 21.085 124.577, 31.039 125, 45.129 125 C 69.563 125, 75.205 125.920, 76.538 130.121 C 78.591 136.587, 60.960 155.874, 44.654 165 C 33.239 171.389, 24.597 178.786, 25.574 181.332 C 26.495 183.732, 32.156 183.471, 42.138 180.569 C 52.572 177.536, 72.138 169.707, 76.342 166.884 C 78.079 165.718, 85.350 158.736, 92.500 151.369 C 103.574 139.958, 105.948 137.976, 108.527 137.987 C 110.193 137.994, 112.603 138.734, 113.884 139.632 C 117.202 141.955, 123.003 151.304, 126.463 159.904 C 129.875 168.384, 135.295 174.456, 142.691 178.083 C 149.707 181.524, 160.557 181.380, 167.590 177.753 C 174.871 173.999, 179 168.981, 179 163.888 C 179 156.148, 171.367 152, 157.126 152 C 147.167 152, 129.739 145.006, 122.705 138.186 C 119.709 135.281, 118.972 133.874, 119.205 131.503 C 119.449 129.024, 120.346 128.081, 124.346 126.098 C 128.479 124.049, 130.611 123.702, 138.846 123.738 C 144.156 123.761, 151.875 124.528, 156 125.442 C 170.626 128.681, 169.274 128.877, 173.807 122.862 C 179.133 115.794, 179.894 112.739, 176.858 110.613 C 173.690 108.394, 172.734 108.476, 149.770 112.941 C 138.622 115.109, 126.034 117.194, 121.797 117.575 L 114.094 118.267 114.689 111.175 C 115.281 104.112, 115.269 104.069, 111.845 100.645 C 108.532 97.332, 102.952 95.017, 98.250 95.006 C 95.697 94.999, 95.493 94.251, 97.371 91.778 C 99.510 88.962, 104.006 89.344, 109.395 92.798 C 122.630 101.281, 137.086 101.645, 149.307 93.803 C 156.949 88.899, 164.007 78.478, 167.371 67.132 C 168.381 63.726, 170.431 60.172, 172.981 57.405 C 179.519 50.311, 178.448 47.669, 167.885 44.836 C 154.766 41.317, 151 37.250, 151 26.599 C 151 23.519, 150.558 21, 150.019 21 C 149.479 21, 144.754 26.695, 139.519 33.656 C 133.805 41.254, 130 45.540, 130 44.379 C 130 43.315, 129.317 41.470, 128.482 40.278 C 127.053 38.237, 127.315 37.576, 132.996 28.925 C 142.374 14.643, 142.360 10.516, 132.952 16.434 M 125.048 24.523 C 118.750 28.635, 113.125 32.023, 112.548 32.052 C 111.972 32.081, 114.409 33.184, 117.965 34.504 C 121.520 35.824, 124.490 36.813, 124.564 36.702 C 134.601 21.675, 137.527 16.963, 136.785 17.023 C 136.628 17.036, 131.347 20.411, 125.048 24.523 M 80.500 26.644 C 78.850 26.834, 72.550 27.488, 66.500 28.097 C 60.450 28.707, 54.892 29.541, 54.148 29.950 C 52.233 31.003, 63.181 32, 76.672 32 L 88.051 32 86.500 29 C 85.647 27.350, 84.623 26.067, 84.224 26.150 C 83.826 26.232, 82.150 26.455, 80.500 26.644 M 135.280 43.678 L 123.059 59.999 125.530 63.639 C 128.334 67.771, 128.604 70.652, 126.623 75.282 C 124.544 80.143, 119.901 83.926, 112.908 86.458 L 106.611 88.738 114.555 92.585 C 121.707 96.048, 123.299 96.436, 130.500 96.466 C 137.018 96.494, 139.426 96.045, 143.500 94.043 C 153.320 89.217, 161.712 78.067, 164.983 65.500 C 165.841 62.205, 167.600 59.123, 170.142 56.462 C 175.633 50.716, 175.272 49.563, 167.361 47.576 C 163.710 46.658, 159.548 45.294, 158.111 44.543 C 153.485 42.125, 149.790 37.335, 148.620 32.238 L 147.500 27.357 135.280 43.678 M 122.147 45.114 C 120.430 47.449, 119.224 49.557, 119.466 49.799 C 120.351 50.684, 126.504 46.338, 126.841 44.590 C 127.599 40.653, 125.234 40.917, 122.147 45.114 M 121.250 52.089 C 117.813 53.694, 115 55.356, 115 55.784 C 115 56.212, 116.237 57.025, 117.750 57.592 C 120.313 58.552, 120.755 58.296, 124.265 53.811 C 126.336 51.165, 127.911 49.039, 127.765 49.086 C 127.619 49.133, 124.688 50.485, 121.250 52.089 M 103.257 71.903 C 94.511 84.374, 94.291 84.822, 96.685 85.280 C 98.851 85.694, 100.343 84.267, 108.581 73.898 C 113.761 67.377, 118 61.635, 118 61.138 C 118 60.369, 114.854 59.058, 112.903 59.014 C 112.575 59.006, 108.234 64.806, 103.257 71.903 M 112.500 73.202 C 101.854 86.735, 102.207 85.827, 107.941 84.920 C 117.687 83.380, 125 77.198, 125 70.500 C 125 67.584, 122.659 62.982, 121.193 63.016 C 120.812 63.025, 116.900 67.609, 112.500 73.202 M 80.768 87.725 C 82.565 87.947, 85.265 87.943, 86.768 87.715 C 88.271 87.486, 86.800 87.304, 83.500 87.310 C 80.200 87.315, 78.971 87.502, 80.768 87.725 M 89.595 90.750 C 89.189 91.162, 87.426 92.028, 85.678 92.674 L 82.500 93.848 87.095 93.924 C 90.486 93.980, 92.164 93.476, 93.500 92 C 95.264 90.051, 95.247 90, 92.822 90 C 91.453 90, 90.001 90.338, 89.595 90.750 M 83.814 105.996 C 77.557 112.347, 73.304 115.710, 68.602 118.024 C 62.592 120.983, 61.537 121.190, 55.287 120.636 C 38.051 119.107, 29.796 118.795, 24.417 119.467 C 19.608 120.068, 18.924 120.378, 20.482 121.250 C 21.675 121.918, 30.395 122.238, 44.212 122.122 C 57.764 122.008, 67.658 122.363, 70.278 123.058 C 83.305 126.515, 81.847 136.089, 65.769 152.670 C 60.835 157.759, 56.043 161.409, 49.348 165.178 C 39.701 170.609, 29 178.344, 29 179.886 C 29 183.071, 66.162 170.326, 75.590 163.908 C 77.840 162.377, 84.564 155.888, 90.533 149.488 C 96.501 143.088, 102.626 137.211, 104.143 136.426 C 112.542 132.083, 119.932 138.398, 128.123 156.918 C 133.110 168.195, 135.671 171.220, 143.487 175.068 C 149.297 177.928, 150.676 178.220, 156.279 177.770 C 163.264 177.209, 169.139 174.627, 173.179 170.342 C 181.239 161.791, 174.462 155.019, 157.830 155.006 C 145.926 154.996, 126.844 146.997, 119.604 138.983 C 113.979 132.757, 115.130 127.478, 123 123.404 C 128.578 120.516, 144.953 120.304, 157.850 122.953 C 169.537 125.353, 169.536 125.354, 173.635 118.360 C 178.182 110.601, 176.406 110.433, 148.500 115.988 C 133.865 118.901, 125.987 119.973, 119.133 119.984 C 109.876 120, 109.775 119.974, 110.468 117.750 C 113.279 108.731, 113.393 107.005, 111.360 104.223 C 108.733 100.626, 103.650 98.214, 97.500 97.644 L 92.500 97.180 83.814 105.996" stroke="none" fill="black" fill-rule="evenodd"/>
</svg>