<svg xmlns="http://www.w3.org/2000/svg" width="200" height="200" viewBox="0 0 200 200" version="1.1">
	<path d="M 65.500 7.606 C 51.620 9.654, 32 16.126, 32 18.656 C 32 20.331, 32.368 20.322, 38.409 18.489 C 47.943 15.597, 53.813 16.979, 56.558 22.763 C 58.495 26.846, 59.765 38, 58.293 38 C 56.717 38, 36 24.026, 36 22.963 C 36 22.434, 35.374 22, 34.609 22 C 33.505 22, 33.122 25.042, 32.753 36.750 C 32.346 49.679, 31.886 52.855, 29.029 62.475 C 26.209 71.969, 25.831 74.521, 26.228 81.386 C 26.657 88.794, 27.131 90.188, 33.348 102.368 C 39.365 114.155, 39.839 115.509, 38.254 116.384 C 34.009 118.728, 23.783 129.748, 21.523 134.416 C 14.875 148.146, 18.672 159, 30.124 159 C 39.591 159, 51.146 152.555, 64.612 139.764 C 69.223 135.384, 72.517 132.984, 73.436 133.337 C 76.141 134.375, 78.971 130.795, 79.631 125.500 L 80.255 120.500 75.755 124.833 L 71.255 129.166 69.091 126.127 C 61.024 114.798, 57.289 93.571, 61.852 84.984 C 64.336 80.310, 69.381 77, 74.023 77 C 80.012 77, 84 75.896, 84 74.238 C 84 72.992, 82.869 72.817, 77.566 73.243 C 72.447 73.654, 70.517 73.385, 68.119 71.926 C 64.146 69.510, 62 62.306, 62 51.384 L 62 43.130 69.266 46.487 C 73.263 48.334, 77.720 50.143, 79.171 50.507 C 81.215 51.020, 81.961 51.978, 82.483 54.763 C 83.454 59.937, 88.808 65, 93.307 65 L 96.815 65 90.657 71.251 C 87.271 74.689, 83.010 79.639, 81.188 82.251 L 77.876 87 83.303 87 C 95.668 87, 98.531 96.020, 92.813 116.966 C 88.437 132.992, 75.765 158.948, 65.525 172.859 C 63.036 176.240, 61 179.228, 61 179.499 C 61 179.770, 63.352 179.098, 66.227 178.006 C 82.304 171.897, 98.561 153.468, 113.918 123.943 C 117.624 116.819, 120.958 111.292, 121.328 111.661 C 121.698 112.031, 121.985 114.621, 121.967 117.417 C 121.935 122.208, 121.563 122.930, 115.485 130 C 99.591 148.487, 97.161 166.311, 109.298 175.373 C 113.076 178.194, 122.299 178.714, 129.152 176.492 C 135.766 174.348, 143.467 170.070, 149.982 164.920 C 152.709 162.764, 155.113 161, 155.323 161 C 155.533 161, 158.564 164.860, 162.058 169.578 C 168.781 178.656, 172.499 182, 175.869 182 C 180.407 182, 181.171 174.900, 177.977 162.410 C 175.462 152.574, 167.928 136.875, 164.386 134.089 C 158.951 129.814, 153.948 132.420, 151.745 140.675 L 150.500 145.340 137.727 151.558 C 125.424 157.547, 120 159.520, 120 158.006 C 120 157.612, 126.151 150.587, 133.668 142.395 C 141.186 134.203, 149.252 124.909, 151.593 121.742 C 155.761 116.104, 158.505 110.015, 157.814 107.941 C 157.623 107.368, 154.344 105.808, 150.528 104.474 C 144.129 102.238, 134.559 96.583, 132.042 93.551 C 131.193 92.528, 134.187 92.272, 147.242 92.253 C 164.228 92.227, 171.094 91.035, 175.095 87.414 C 182.202 80.982, 168.343 75.529, 150.817 77.863 C 146.026 78.500, 139.337 79.884, 135.951 80.938 L 129.795 82.854 130.642 78.177 C 131.108 75.605, 131.491 70.875, 131.494 67.667 C 131.500 62.340, 131.217 61.582, 128.234 58.917 C 126.438 57.313, 124.301 56, 123.484 56 C 120.690 56, 121.662 49.698, 124.941 46.556 L 127.883 43.738 138.235 48.358 C 150.993 54.053, 161.773 57.769, 167.871 58.575 C 171.689 59.080, 172.982 58.808, 175.250 57.021 C 176.763 55.830, 177.996 53.875, 177.990 52.677 C 177.978 50.040, 173.967 41.209, 169.882 34.828 L 166.891 30.155 161.639 35.578 C 157.221 40.138, 155.822 41, 152.833 41 C 148.170 41, 143.353 37.651, 134.720 28.407 C 127.765 20.960, 125.305 19.722, 122.993 22.508 C 121.907 23.817, 121.190 23.508, 117.578 20.179 C 112.563 15.556, 104.880 11.827, 95.702 9.561 C 88.967 7.898, 71.280 6.753, 65.500 7.606 M 65.500 10.473 C 64.950 10.646, 61.237 11.326, 57.250 11.985 C 53.263 12.643, 50 13.591, 50 14.091 C 50 14.591, 50.614 15, 51.365 15 C 53.664 15, 58.166 19.154, 59.608 22.605 C 60.360 24.403, 61.272 29.078, 61.636 32.993 C 62.294 40.077, 62.317 40.121, 66.332 42.169 C 72.856 45.497, 83 49.062, 83 48.026 C 83 47.500, 84.392 45.484, 86.093 43.547 C 90.353 38.695, 95.240 37.353, 102.806 38.959 C 107.995 40.060, 109.100 40.004, 112.098 38.487 C 120.880 34.044, 122.209 29.451, 116.530 23.165 C 112.152 18.320, 101.656 13.412, 91.524 11.473 C 84.826 10.192, 68.399 9.560, 65.500 10.473 M 123.616 26.250 C 123.276 27.488, 122.711 32.550, 122.361 37.500 L 121.724 46.500 123.935 43.750 C 125.150 42.237, 126.675 41, 127.323 41 C 127.970 41, 133.510 43.236, 139.634 45.968 C 160.447 55.255, 173.170 58.327, 174.667 54.425 C 175.502 52.250, 173.600 46.508, 169.948 40.179 L 166.878 34.858 162.498 38.895 C 153.621 47.077, 148.843 46.084, 136.132 33.415 C 130.937 28.237, 126.135 24, 125.460 24 C 124.785 24, 123.955 25.012, 123.616 26.250 M 36 35.378 C 36 44.932, 34.832 52.283, 31.531 63.500 C 30.236 67.900, 28.878 73.381, 28.512 75.679 C 27.317 83.197, 31.441 94.896, 40.719 110.309 C 42.643 113.503, 44.055 116.212, 43.858 116.328 C 25.600 127.099, 15.832 144.881, 23.364 153.637 C 25.368 155.966, 26.476 156.375, 30.622 156.312 C 38.398 156.195, 50.568 149.376, 61.650 138.926 C 69.838 131.205, 69.649 131.855, 65.611 125.292 C 59.651 115.608, 57.710 108.873, 57.598 97.500 C 57.486 86.099, 59.257 81.144, 64.785 77.385 L 67.895 75.270 65.372 73.076 C 61.269 69.508, 59.781 64.469, 59.230 52.273 C 58.793 42.590, 58.475 40.968, 56.917 40.474 C 55.924 40.158, 50.811 37.025, 45.555 33.512 L 36 27.123 36 35.378 M 114.653 40.295 C 110.463 42.475, 108.201 42.665, 100.284 41.498 C 96.776 40.981, 94.090 41.134, 92.082 41.966 C 89.244 43.142, 86 46.831, 86 48.885 C 86 50.110, 97.704 52.778, 106.609 53.582 C 113.304 54.187, 113.580 54.121, 116.307 51.238 C 118.738 48.669, 119.073 47.603, 118.807 43.282 L 118.500 38.292 114.653 40.295 M 85 53.574 C 85 55.960, 87.756 60.692, 89.545 61.379 C 92.838 62.643, 98.640 61.908, 103.500 59.612 C 109.166 56.936, 109.473 57.141, 96.500 54.918 C 92.650 54.258, 88.487 53.342, 87.250 52.884 C 85.536 52.248, 85 52.413, 85 53.574 M 117.500 54 C 117.160 54.550, 117.359 55, 117.941 55 C 118.523 55, 119 54.550, 119 54 C 119 53.450, 118.802 53, 118.559 53 C 118.316 53, 117.840 53.450, 117.500 54 M 107.869 60.333 L 102.238 63.537 106.034 65.158 C 108.440 66.185, 111.570 69.018, 114.578 72.893 C 117.190 76.256, 119.528 78.805, 119.775 78.558 C 120.022 78.312, 119.900 73.585, 119.504 68.055 C 118.984 60.797, 118.420 58, 117.474 58 C 116.753 58, 115.564 57.804, 114.832 57.564 C 114.099 57.325, 110.966 58.570, 107.869 60.333 M 122.372 71.250 C 123.303 88.213, 123.317 88.229, 138.099 89.413 C 150.405 90.398, 166.345 89.205, 171.289 86.928 C 177.617 84.013, 171.004 80.222, 159.338 80.077 C 152.119 79.987, 140.931 82.020, 132.586 84.937 C 129.333 86.075, 126.513 86.846, 126.318 86.652 C 126.124 86.457, 126.648 83.052, 127.482 79.084 C 129.614 68.952, 129.467 63.467, 127 61 C 125.900 59.900, 124.257 59, 123.350 59 C 121.870 59, 121.769 60.261, 122.372 71.250 M 91.258 74.521 C 87.266 78.658, 84 82.483, 84 83.021 C 84 83.560, 85.013 84.002, 86.250 84.004 C 89.630 84.009, 94.692 87.503, 96.563 91.123 C 97.870 93.650, 98.130 96.267, 97.784 103.417 C 97.072 118.129, 88.030 141.793, 74.672 163.910 C 71.545 169.086, 69.128 173.461, 69.299 173.632 C 70.179 174.512, 80.365 166.362, 86.610 159.781 C 95.734 150.167, 104.184 137.302, 113.679 118.570 L 121.248 103.640 120.546 94.088 C 119.850 84.601, 119.811 84.490, 114.825 77.763 C 104.697 64.102, 101.709 63.691, 91.258 74.521 M 123.032 93.128 C 123.061 97.189, 123.168 97.362, 124.532 95.559 C 126.398 93.092, 126.389 91.568, 124.500 90 C 123.205 88.925, 123.004 89.353, 123.032 93.128 M 125.978 99.272 C 123.974 103.930, 123.800 105.529, 124.360 114.079 C 124.976 123.485, 124.940 123.708, 122.383 126.081 C 114.084 133.787, 105.575 148.525, 104.376 157.273 C 103.476 163.841, 106.003 170.221, 110.641 173.087 C 113.629 174.934, 115.207 175.186, 121.333 174.792 C 130.111 174.229, 138.202 170.611, 148.726 162.541 C 152.700 159.493, 156.135 157, 156.359 157 C 156.582 157, 158.682 159.942, 161.024 163.537 C 166.358 171.723, 174.465 180.449, 175.909 179.556 C 179.246 177.494, 174.785 157.092, 168.297 144.745 C 161.846 132.470, 157.376 131.457, 154.427 141.604 L 152.812 147.160 139.521 153.690 C 124.766 160.939, 117 162.856, 117 159.248 C 117 156.890, 120.497 152.543, 135.624 136.103 C 147.699 122.979, 153.803 114.808, 154.228 111.198 C 154.459 109.242, 153.705 108.612, 149.224 107.013 C 143.109 104.832, 138.184 102.011, 132.362 97.358 L 128.225 94.050 125.978 99.272" stroke="none" fill="black" fill-rule="evenodd"/>
</svg>