<svg xmlns="http://www.w3.org/2000/svg" width="200" height="200" viewBox="0 0 200 200" version="1.1">
	<path d="M 143 13.559 C 134.283 16.309, 118.121 26.867, 118.038 29.867 C 118.012 30.807, 117.299 31.029, 115.750 30.578 C 114.513 30.218, 110.144 29.035, 106.042 27.949 C 101.745 26.812, 97.506 24.973, 96.042 23.610 C 91.535 19.415, 89.191 18.645, 86.433 20.452 C 85.095 21.329, 84 22.630, 84 23.344 C 84 24.340, 82.040 24.539, 75.574 24.199 L 67.148 23.757 65.944 29.878 L 64.740 36 58.620 35.998 C 52.789 35.997, 52.325 35.811, 48.787 32.051 C 40.139 22.860, 28.826 27.112, 17.714 43.728 L 13.186 50.500 13.999 93.500 C 14.606 125.570, 15.182 137.952, 16.266 142.212 C 18.819 152.246, 22.769 156.167, 28.098 153.959 C 31.088 152.721, 42 141.679, 42 139.892 C 42 138.416, 48.435 136, 52.364 136 C 57.797 136, 61.242 140.801, 65.455 154.243 C 69.647 167.618, 71.822 171.471, 76.420 173.663 C 79.383 175.076, 80.478 175.126, 84.408 174.026 C 91.234 172.115, 91.398 171.673, 89.878 159.277 C 89.151 153.350, 88.544 139.500, 88.528 128.500 C 88.502 109.760, 88.655 108.059, 90.966 101.500 C 93.782 93.506, 93.983 85.318, 91.604 75.508 C 90.804 72.213, 90.245 69.421, 90.361 69.305 C 90.478 69.189, 94.381 71.821, 99.036 75.154 C 108.516 81.941, 120.320 88.202, 127.037 90.008 C 131.503 91.208, 132.956 92.375, 132.985 94.785 C 132.996 95.746, 132.512 95.809, 131.066 95.035 C 124.778 91.670, 116.657 96.955, 112.969 106.813 C 109.606 115.800, 108.375 121.417, 103.995 147.740 L 99.875 172.500 95.189 177.287 C 91.325 181.234, 90.765 182.244, 92.001 183.043 C 95.007 184.985, 97.458 183.578, 100.298 178.280 C 102.238 174.659, 107.354 169.091, 116.996 160.109 C 130.262 147.750, 142.609 137, 143.537 137 C 143.776 137, 143.012 139.363, 141.840 142.250 C 133.629 162.478, 131.472 173.408, 134.338 180.266 C 135.202 182.335, 136.589 184.289, 137.419 184.607 C 139.754 185.503, 150.965 181.378, 156.709 177.510 C 166.607 170.844, 171.247 161.980, 171.351 149.535 C 171.388 145.116, 170.818 139.025, 170.084 136 C 168.278 128.555, 162.872 116.956, 158.315 110.748 C 156.254 107.941, 155.003 105.497, 155.534 105.317 C 156.065 105.137, 160.775 102.855, 166 100.245 C 174.030 96.234, 175.500 95.130, 175.500 93.108 C 175.500 89.879, 172.111 87.540, 161.406 83.385 C 156.508 81.484, 153.925 80.197, 155.666 80.525 C 170.810 83.381, 182.569 64.220, 179.154 42.252 C 175.622 19.536, 160.955 7.895, 143 13.559 M 140.781 17.399 C 131.404 21.256, 120 29.392, 120 32.226 C 120 32.856, 120.962 34.395, 122.139 35.647 C 123.972 37.600, 124.934 37.837, 128.889 37.316 C 131.425 36.982, 134.734 35.845, 136.243 34.791 C 139.375 32.602, 142.491 33.436, 139.460 35.653 C 137.876 36.811, 139.238 37, 149.170 37 L 160.721 37 161.352 42.250 C 163.700 61.798, 159.119 65.403, 148.941 52.015 C 146.008 48.157, 143.212 45, 142.728 45 C 142.245 45, 141.978 47.106, 142.137 49.679 C 142.484 55.326, 140.536 56.671, 139.558 51.460 C 138.636 46.542, 139.729 41.996, 141.829 42.015 C 144.236 42.037, 144.964 42.702, 151.453 50.798 C 154.887 55.082, 157.672 57.728, 158.197 57.203 C 158.688 56.712, 158.957 52.753, 158.795 48.405 L 158.500 40.500 145.748 40.220 L 132.996 39.940 127.369 44.220 C 119.098 50.511, 119.147 50.480, 118.494 49.827 C 118.163 49.496, 118.815 47.712, 119.942 45.863 C 122.711 41.322, 122.540 40, 119.185 40 C 116.946 40, 116.025 40.725, 114.678 43.548 L 112.987 47.096 119.243 59.298 L 125.500 71.500 136.500 75.113 C 145.371 78.027, 147.706 78.474, 148.567 77.423 C 149.394 76.411, 150.565 76.356, 153.793 77.175 C 162.560 79.401, 169.819 75.320, 174.103 65.757 C 176.123 61.248, 176.454 58.935, 176.430 49.500 C 176.407 40.390, 176.003 37.489, 174.080 32.619 C 167.992 17.199, 155.335 11.414, 140.781 17.399 M 87.667 22.667 C 86.269 24.064, 87.123 24.796, 90.630 25.205 L 94.260 25.629 92.019 23.814 C 89.606 21.860, 88.710 21.624, 87.667 22.667 M 68.625 30.125 C 67.240 37.049, 67.187 37, 76.125 37 L 84.250 37 83.625 33.875 C 83.281 32.156, 83 29.906, 83 28.875 C 83 27.223, 82.181 27, 76.125 27 L 69.250 27 68.625 30.125 M 86 30.918 C 86 36.653, 86.525 37, 95.205 37 L 103.196 37 101.171 33.750 C 98.592 29.609, 95.590 28.033, 90.250 28.015 C 86.218 28.001, 86 28.149, 86 30.918 M 31.400 32.828 C 26.984 36.031, 22.156 41.296, 18.321 47.092 L 15.713 51.032 16.293 90.266 C 16.612 111.845, 17.357 132.425, 17.950 136 C 19.431 144.934, 21.740 150.783, 24.080 151.525 C 27.069 152.474, 32.177 148.736, 37.068 142.020 C 40.672 137.070, 42.292 135.732, 46.280 134.407 C 52.332 132.397, 56.843 133.160, 60.203 136.762 C 63.635 140.443, 64.206 141.689, 68.535 154.964 C 73.660 170.676, 77.660 174.390, 85.573 170.785 C 88.151 169.610, 88.219 169.369, 87.602 163.535 C 84.084 130.282, 84.322 113.440, 88.500 100 C 90.542 93.431, 91.019 90.250, 90.599 86 C 90.113 81.073, 85.662 62.219, 84.832 61.571 C 84.024 60.940, 66.760 55.907, 66.453 56.213 C 66.265 56.401, 65.644 68.018, 65.073 82.028 C 64.077 106.442, 62.896 117.457, 60.869 121.245 C 59.616 123.586, 56.732 123.466, 54.481 120.980 C 52.710 119.022, 52.711 118.547, 54.522 105.730 C 56.512 91.642, 56.960 64.312, 55.336 56.051 C 54.475 51.667, 54.370 51.572, 48.251 49.614 C 44.834 48.522, 41.845 47.824, 41.607 48.064 C 41.369 48.304, 41.634 52.550, 42.196 57.500 C 43.413 68.219, 42.724 86.773, 40.469 104 C 38.800 116.743, 37.912 119.312, 35.877 117.277 C 35.045 116.445, 35.053 110.346, 35.907 93.827 C 36.541 81.547, 37.337 64.975, 37.675 57 C 38.013 49.025, 38.655 41.510, 39.101 40.300 C 39.633 38.858, 41.305 37.726, 43.956 37.012 C 48.763 35.717, 48.969 34.826, 45.096 32.068 C 40.989 29.144, 36.107 29.415, 31.400 32.828 M 104.619 34 C 106.803 37.301, 107.833 38, 110.510 38 C 113.876 38, 116.639 35.843, 115.543 34.070 C 114.907 33.041, 105.763 30, 103.304 30 C 102.413 30, 102.849 31.325, 104.619 34 M 118 37 C 118 37.550, 118.450 38, 119 38 C 119.550 38, 120 37.550, 120 37 C 120 36.450, 119.550 36, 119 36 C 118.450 36, 118 36.450, 118 37 M 43.750 39.689 C 42.711 39.961, 42 41.099, 42 42.493 C 42 44.424, 42.895 45.137, 47.065 46.522 C 49.850 47.447, 52.398 47.935, 52.726 47.607 C 53.055 47.279, 52.729 45.208, 52.002 43.005 C 50.648 38.904, 49.115 38.287, 43.750 39.689 M 54 39.822 C 54 40.274, 54.702 42.703, 55.560 45.221 C 56.622 48.338, 57.818 49.985, 59.310 50.385 C 63.718 51.568, 64 51.244, 64 45 L 64 39 59 39 C 56.250 39, 54 39.370, 54 39.822 M 66.675 45.581 C 66.326 49.317, 66.144 52.476, 66.270 52.601 C 66.920 53.242, 120.398 69.936, 120.732 69.601 C 121.075 69.258, 112.422 51.206, 111.370 50.068 C 111.150 49.831, 109.377 51.181, 107.429 53.068 C 104.449 55.958, 103.168 56.500, 99.330 56.500 C 95.279 56.500, 94.398 56.069, 91.420 52.623 C 89.577 50.491, 87.317 46.778, 86.398 44.373 L 84.728 40 79.614 39.989 C 76.801 39.983, 72.882 39.710, 70.904 39.383 L 67.309 38.788 66.675 45.581 M 88.537 42.250 C 88.906 43.487, 89.896 45.625, 90.736 47 C 95.714 55.142, 100.454 56.222, 106.020 50.479 L 109.432 46.959 107.559 43.479 L 105.685 40 96.775 40 C 88.003 40, 87.876 40.035, 88.537 42.250 M 109 40.878 C 109 41.360, 109.622 42.272, 110.383 42.903 C 111.454 43.792, 111.906 43.688, 112.383 42.444 C 113.275 40.121, 113.206 40, 111 40 C 109.900 40, 109 40.395, 109 40.878 M 125 41.059 C 125 41.641, 125.450 41.840, 126 41.500 C 126.550 41.160, 127 40.684, 127 40.441 C 127 40.198, 126.550 40, 126 40 C 125.450 40, 125 40.477, 125 41.059 M 58.745 73.244 C 59.025 89.165, 58.710 96.106, 57.276 105.677 C 56.272 112.374, 55.612 118.337, 55.809 118.927 C 56.706 121.618, 58.921 119.632, 59.909 115.250 C 60.998 110.423, 63.753 55.385, 62.942 54.650 C 62.699 54.429, 61.575 53.965, 60.445 53.619 C 58.410 52.995, 58.393 53.191, 58.745 73.244 M 90 64.915 C 99.487 73.273, 119.090 84.987, 127.798 87.502 C 130.052 88.153, 130.069 88.102, 128.678 84.833 C 123.772 73.303, 125.474 74.542, 106.052 68.359 C 96.398 65.285, 88.050 62.559, 87.500 62.301 C 86.950 62.043, 88.075 63.219, 90 64.915 M 129.942 81.041 C 131.571 84.485, 133.361 87.761, 133.920 88.320 C 136.027 90.427, 147 85.139, 147 82.018 C 147 81.685, 143.063 80.133, 138.250 78.571 C 133.438 77.008, 128.933 75.515, 128.240 75.254 C 127.530 74.986, 128.274 77.514, 129.942 81.041 M 39.320 82 C 39.320 85.575, 39.502 87.037, 39.723 85.250 C 39.945 83.463, 39.945 80.537, 39.723 78.750 C 39.502 76.963, 39.320 78.425, 39.320 82 M 146.497 86.654 C 144.228 89.276, 142.457 90.263, 139.247 90.694 C 136.911 91.007, 135 91.420, 135 91.611 C 135 91.803, 135.731 93.787, 136.625 96.021 C 137.519 98.255, 137.964 100.369, 137.614 100.719 C 137.264 101.069, 135.234 100.376, 133.103 99.178 C 119.607 91.593, 114.275 101.261, 107.005 146.500 C 105.325 156.950, 103.673 166.393, 103.334 167.484 C 102.975 168.639, 106.129 166.342, 110.888 161.984 C 140.578 134.792, 144.162 132.026, 145.951 134.921 C 146.937 136.516, 146.496 138.061, 140.934 152.500 C 136.122 164.996, 134.568 176.828, 137.269 180.412 C 138.665 182.264, 138.882 182.270, 144.105 180.594 C 159.704 175.589, 169 163.598, 169 148.478 C 169 137.372, 162.484 119.895, 154.923 110.722 C 151.939 107.103, 151.801 107.051, 148.984 108.508 C 144.881 110.630, 144 110.385, 144 107.122 C 144 103.156, 146.310 101.365, 149.532 102.833 C 151.677 103.810, 153.396 103.308, 162.502 99.045 C 168.276 96.342, 173 93.644, 173 93.051 C 173 92.457, 171.537 91.079, 169.750 89.989 C 166.463 87.984, 152.334 82.923, 150.497 83.092 C 149.948 83.142, 148.149 84.745, 146.497 86.654" stroke="none" fill="black" fill-rule="evenodd"/>
</svg>