<svg xmlns="http://www.w3.org/2000/svg" width="200" height="200" viewBox="0 0 200 200" version="1.1">
	<path d="M 75.266 19.250 C 75.566 22.138, 77.411 29.430, 79.367 35.455 C 81.323 41.480, 82.828 46.486, 82.712 46.579 C 82.595 46.672, 80.025 46.388, 77 45.947 C 63.324 43.955, 29.524 45.491, 26.192 48.256 C 25.045 49.207, 25.113 49.609, 26.601 50.697 C 27.905 51.651, 33.117 52, 46.069 52 C 65.773 52, 66.786 52.320, 65.616 58.172 C 64.272 64.889, 56.324 73.059, 32.250 92.466 C 16.815 104.909, 15.710 109.143, 29.239 104.001 C 36.166 101.368, 37.371 101.464, 40.246 104.880 C 44.950 110.471, 46.466 118.641, 46.484 138.500 C 46.498 154.761, 46.276 157.149, 44.178 163.222 C 41.263 171.660, 37.283 175.470, 32.238 174.651 C 26.352 173.696, 21.339 177.378, 24.715 180.177 C 25.992 181.235, 36.735 181.512, 78.406 181.560 C 107.058 181.593, 131.457 181.943, 132.626 182.338 C 135.253 183.225, 162.715 181.456, 170.093 179.924 C 177.152 178.458, 180.211 176.496, 179.811 173.691 C 179.406 170.846, 169.233 167.094, 159.732 166.284 C 153.579 165.759, 152.908 165.482, 152.342 163.227 C 151.614 160.326, 152.428 141.589, 154.025 124.500 C 154.642 117.900, 154.863 110.192, 154.517 107.372 L 153.887 102.244 157.693 101.573 C 170.766 99.269, 177 94.686, 177 87.380 C 177 83.470, 176.443 82.319, 172.524 78.129 C 165.189 70.287, 152.110 64.429, 136.283 61.896 C 129.037 60.737, 124 58.237, 124 55.801 C 124 53.640, 131.106 52.839, 152.500 52.591 C 178.291 52.291, 183 51.372, 183 46.636 C 183 43.669, 176.784 37.892, 167.891 32.595 L 161.831 28.985 155.972 34.287 C 143.646 45.442, 130.449 48.325, 118.764 42.415 C 112.877 39.438, 104.934 32.747, 100.331 26.889 C 92.993 17.548, 92.429 19.871, 98 36.499 C 100.645 44.396, 103.104 52.352, 103.464 54.178 C 104.168 57.755, 104.270 57.918, 90.193 32.748 C 79.436 13.514, 74.175 8.756, 75.266 19.250 M 78.988 24.500 C 80.046 28.350, 82.280 35.515, 83.951 40.422 C 85.622 45.329, 86.802 49.532, 86.572 49.761 C 86.343 49.990, 82.997 49.688, 79.136 49.089 C 75.276 48.490, 64.328 48.088, 54.808 48.194 L 37.500 48.389 51.342 48.944 C 64.349 49.467, 65.298 49.642, 67.092 51.861 C 68.141 53.159, 69 55.086, 69 56.143 C 69 62.781, 58.482 74.776, 38.558 90.860 C 31.990 96.162, 25.915 101.070, 25.058 101.768 C 24.201 102.465, 25.975 102.128, 29 101.018 C 36.554 98.248, 38.308 98.448, 41.853 102.486 C 47.591 109.020, 50.605 125.128, 49.715 144.500 C 49.044 159.125, 46.429 168.470, 41.508 173.838 C 38.461 177.162, 37.683 177.493, 33.075 177.427 C 23.380 177.287, 28.065 178.699, 39.250 179.287 C 47.505 179.721, 112.079 178.674, 113.719 178.079 C 113.839 178.036, 113.678 177.325, 113.362 176.500 C 113.045 175.675, 113.269 175, 113.858 175 C 115.550 175, 121.955 168.988, 123.551 165.901 C 125.641 161.859, 125.381 153.667, 123.014 149.028 C 121.922 146.887, 120.588 144.863, 120.049 144.530 C 118.508 143.578, 111.243 148.896, 110.603 151.446 C 109.535 155.699, 101.276 165.678, 95.987 169.106 L 90.764 172.490 95.132 173.218 C 102.528 174.450, 104.113 175.009, 103.415 176.137 C 102.989 176.826, 101.260 176.952, 98.624 176.486 C 96.356 176.084, 90.261 175.473, 85.080 175.128 C 78.906 174.716, 75.517 174.069, 75.246 173.250 C 74.954 172.366, 76.250 171.997, 79.667 171.990 C 85.340 171.979, 92.951 168.738, 98.267 164.070 C 101.856 160.919, 108.679 150.990, 107.241 151.011 C 106.833 151.017, 104.291 151.692, 101.591 152.511 C 92.618 155.233, 72.485 153.670, 68.590 149.949 C 66.802 148.241, 80.302 138.820, 88.658 135.946 C 94.663 133.880, 104.396 133.393, 109.639 134.897 L 112.765 135.793 113.444 129.791 C 113.818 126.490, 113.971 123.637, 113.784 123.451 C 113.598 123.265, 111.433 123.578, 108.973 124.147 C 101.924 125.776, 84.204 124.748, 79.463 122.434 C 74.814 120.165, 74.317 117.594, 78 114.861 C 81.358 112.368, 97.780 108.816, 106.749 108.641 C 114.367 108.493, 114.438 108.437, 113.425 103.375 L 112.849 100.500 95.175 100.499 C 77.537 100.498, 69.999 99.502, 63.764 96.348 C 58.549 93.709, 59.194 87.767, 65.072 84.302 C 66.753 83.311, 70.544 79.293, 73.495 75.374 C 76.446 71.454, 80.831 66.634, 83.238 64.661 C 87.884 60.854, 95.343 57.058, 98.250 57.022 C 99.213 57.010, 100 56.791, 100 56.536 C 100 54.950, 81.987 23.412, 79.105 19.952 L 77.063 17.500 78.988 24.500 M 99.382 31.484 C 99.786 32.575, 101.745 38.700, 103.735 45.097 C 107.247 56.383, 107.459 56.764, 110.927 58.005 C 119.170 60.954, 129.615 70.714, 136.548 81.946 C 139.505 86.738, 140.779 87.924, 143.523 88.438 C 146.983 89.087, 151.310 93.251, 152.535 97.110 C 153.145 99.033, 153.684 99.167, 158.326 98.551 C 165.020 97.663, 172.173 94.045, 173.781 90.735 C 175.584 87.024, 174.429 83.664, 169.740 78.976 C 162.894 72.129, 149.527 66.696, 133.097 64.081 C 125.696 62.903, 122 60.165, 122 55.861 C 122 51.041, 124.198 50.598, 151.500 49.918 C 165.250 49.575, 177.287 48.956, 178.250 48.541 C 179.213 48.126, 180 47.197, 180 46.478 C 180 44.693, 172.064 37.842, 166.698 34.996 L 162.311 32.668 156.288 37.681 C 147.910 44.653, 141.917 47.362, 133.834 47.830 C 122.840 48.467, 114.531 44.763, 103.784 34.436 C 100.772 31.541, 98.952 30.320, 99.382 31.484 M 95.882 60.381 C 88.007 63.195, 79.790 70.316, 73.565 79.722 C 72.066 81.987, 69.048 85.026, 66.858 86.475 C 61.136 90.262, 61.772 92.908, 69 95.386 C 73.202 96.826, 78.436 97.387, 91.180 97.762 C 100.353 98.031, 109.004 97.965, 110.402 97.614 C 113.224 96.906, 113.225 98.154, 110.392 82.500 C 108.911 74.312, 102.470 58.964, 100.550 59.044 C 99.972 59.068, 97.872 59.670, 95.882 60.381 M 108.427 61.670 C 108.779 62.589, 109.509 65.308, 110.048 67.713 C 110.587 70.118, 113.741 77.498, 117.057 84.113 L 123.086 96.140 126.293 95.469 C 130.792 94.527, 138 91.290, 138 90.211 C 138 88.195, 129.449 76.125, 124.157 70.670 C 121.045 67.464, 116.377 63.751, 113.783 62.420 C 108.194 59.552, 107.581 59.466, 108.427 61.670 M 114.442 88.500 C 114.737 90.700, 114.983 93.513, 114.989 94.750 C 114.997 96.480, 115.577 97, 117.500 97 C 120.608 97, 120.587 96.749, 116.906 90 L 113.907 84.500 114.442 88.500 M 144.212 95.500 C 145.601 98.358, 147.056 100, 148.199 100 C 150.889 100, 150.376 97.222, 147.077 93.923 C 142.850 89.696, 141.700 90.329, 144.212 95.500 M 136 94.974 C 134.075 96.014, 130.813 97.159, 128.750 97.520 C 124.686 98.231, 124.305 99.160, 126.500 103 C 128.343 106.224, 128.391 112.083, 126.594 114.540 C 125.379 116.202, 125.400 116.872, 126.749 119.481 C 129.674 125.138, 127.526 135.829, 122.651 139.875 C 121.347 140.957, 121.555 141.760, 124.268 146.125 C 130.539 156.212, 128.522 167.684, 119.250 174.676 C 116.266 176.927, 115.372 178.119, 116.250 178.679 C 118.581 180.165, 157.851 179.403, 166.894 177.696 C 175.816 176.012, 178.566 174.590, 175.992 172.990 C 173.422 171.393, 158.384 168.204, 155.775 168.703 C 153.920 169.057, 152.740 168.485, 151.143 166.454 C 148.499 163.094, 148.334 154.502, 150.509 133.500 C 152.040 118.708, 152.362 107.952, 151.382 104.296 C 150.897 102.490, 150.281 102.194, 147.968 102.656 C 145.384 103.173, 144.927 102.789, 142.556 98.110 C 141.132 95.300, 139.861 93.019, 139.733 93.042 C 139.605 93.065, 137.925 93.934, 136 94.974 M 117.250 99.662 C 115.899 100.208, 115.660 103.051, 116.581 107.653 C 117.171 110.607, 122.290 114.557, 124.089 113.445 C 125.570 112.530, 125.131 106.343, 123.315 102.534 C 121.730 99.211, 120.184 98.478, 117.250 99.662 M 96 112.534 C 80.130 115.397, 75.139 117.873, 80.641 120.150 C 84.244 121.641, 104.177 122.421, 109.500 121.280 C 113.244 120.476, 113.520 120.175, 113.819 116.563 C 114.019 114.152, 113.643 112.390, 112.819 111.867 C 110.978 110.699, 104.813 110.944, 96 112.534 M 117 116.535 C 117 118.787, 117.231 118.947, 119.065 117.965 C 120.716 117.082, 120.892 116.574, 119.942 115.430 C 118.152 113.273, 117 113.706, 117 116.535 M 119.811 120.540 C 117.658 121.709, 117.003 122.945, 116.522 126.750 C 116.192 129.362, 115.734 132.698, 115.503 134.163 C 115.032 137.160, 117.146 139.542, 119.482 138.645 C 121.536 137.857, 124.860 132.212, 125.612 128.233 C 126.192 125.161, 124.515 118.952, 123.129 119.040 C 122.783 119.062, 121.290 119.737, 119.811 120.540 M 94.243 137.059 C 89.391 138.016, 76.982 144.258, 74.516 146.982 C 72.962 148.699, 73.056 148.860, 76.185 149.832 C 82.272 151.723, 89.626 152.156, 96.008 150.999 C 105.603 149.259, 109.709 147.320, 110.457 144.178 C 110.808 142.705, 111.316 140.754, 111.586 139.841 C 111.973 138.534, 110.997 137.951, 106.989 137.091 C 101.293 135.870, 100.286 135.867, 94.243 137.059 M 113.692 142.069 C 113.104 144.320, 114.253 144.605, 115.903 142.617 C 116.784 141.556, 116.719 141.106, 115.624 140.686 C 114.762 140.355, 113.997 140.902, 113.692 142.069" stroke="none" fill="black" fill-rule="evenodd"/>
</svg>