<svg xmlns="http://www.w3.org/2000/svg" width="200" height="200" viewBox="0 0 200 200" version="1.1">
	<path d="M 125.782 22.102 C 120.966 24.797, 97.553 28.914, 61 33.492 C 40.437 36.067, 34 37.391, 34 39.042 C 34 41.012, 38.531 42.064, 51.199 43.037 C 73.745 44.770, 76.397 45.856, 63.250 47.974 C 43.269 51.193, 30.775 57.641, 25.865 67.265 C 23.631 71.644, 23.653 71.197, 24.150 102.500 C 24.462 122.102, 24.718 124.928, 26.500 128.431 C 31.033 137.340, 34.280 136.208, 49.500 120.416 L 61.500 107.964 61.574 111.459 C 61.734 119.012, 69.229 122.527, 85 122.446 C 96.392 122.388, 107.334 120.467, 120.937 116.138 C 128.291 113.798, 129.681 112.996, 130.785 110.457 C 133.313 104.638, 134.526 102.681, 136.278 101.599 C 138.945 99.951, 140.187 102.549, 139.636 108.622 C 139.088 114.660, 136.371 120.371, 132.134 124.396 C 129.142 127.238, 129.095 127.435, 129.602 134.896 C 130.253 144.482, 129.416 146.046, 124.809 143.848 C 122.989 142.979, 117.675 139.511, 113 136.141 C 104.102 129.727, 95.992 126, 90.930 126 C 83.411 126, 76.834 131.670, 72.014 142.306 C 69.638 147.548, 68.535 149.001, 67.215 148.628 C 66.272 148.361, 60.888 147.837, 55.250 147.464 C 46.620 146.892, 45 147.015, 45 148.244 C 45 149.288, 49.202 150.780, 59.727 153.473 C 77.043 157.904, 84.242 160.505, 86.696 163.217 C 88.419 165.121, 88.402 165.256, 86.205 167.035 C 80.944 171.295, 62.436 174.843, 39.843 175.923 C 23.432 176.707, 19.237 177.637, 21.572 179.972 C 23.579 181.979, 37.385 183.154, 65.437 183.705 C 86.543 184.120, 97.065 183.918, 104.319 182.958 C 113.647 181.723, 114.347 181.754, 115.596 183.463 C 116.329 184.464, 117.076 185.729, 117.258 186.274 C 117.450 186.851, 118.901 186.585, 120.735 185.637 C 123.470 184.223, 125.233 184.149, 134.191 185.074 C 157.627 187.495, 180.432 181.502, 177.441 173.708 C 175.175 167.800, 156.591 169.133, 136.078 176.673 C 124.336 180.989, 122.677 181.387, 119.618 180.619 C 114.549 179.347, 113.154 166.347, 117.530 161.147 C 120.884 157.160, 126.527 155.424, 144 153 C 166.814 149.837, 173.824 146.979, 177.582 139.311 C 180.063 134.246, 179.849 124.408, 177.087 116.593 C 175.939 113.345, 174.997 108.845, 174.993 106.593 C 174.981 99.568, 171.243 86.451, 163.982 67.954 C 160.136 58.157, 156.903 49.095, 156.797 47.818 C 156.683 46.434, 158.741 42.330, 161.888 37.666 C 164.793 33.360, 166.945 29.611, 166.668 29.335 C 165.625 28.292, 157.097 32.922, 155.460 35.421 C 154.520 36.855, 153.520 40.083, 153.237 42.594 C 152.815 46.337, 150.893 49.799, 142.557 61.829 L 132.392 76.500 111.446 77.083 C 99.926 77.404, 90.308 77.512, 90.073 77.323 C 89.410 76.789, 93.129 74.068, 97 72.254 C 99.815 70.936, 103.316 70.657, 114.893 70.828 C 131.939 71.082, 134 70.359, 134 64.126 C 134 62.021, 133.484 58.819, 132.854 57.010 L 131.707 53.722 103.604 54.330 C 88.147 54.664, 73.475 55.362, 71 55.881 C 68.026 56.505, 66.082 56.479, 65.267 55.804 C 64.363 55.056, 63.769 55.478, 63.045 57.383 C 61.772 60.729, 62.628 62.869, 65.531 63.597 C 69.298 64.542, 71.525 63.654, 71.279 61.305 C 71.153 60.105, 71.801 58.866, 72.779 58.438 C 73.725 58.023, 86.952 57.479, 102.172 57.230 L 129.844 56.776 130.881 60.531 C 132.201 65.313, 130.902 67.980, 127.215 68.057 C 125.722 68.088, 119.460 68.065, 113.300 68.005 C 99.253 67.868, 95.260 68.940, 88.952 74.542 C 84.926 78.118, 83.198 79, 80.217 79.001 C 75.415 79.003, 60.303 81.650, 56.750 83.112 C 53.339 84.514, 53.204 86.747, 56.456 87.983 C 58.751 88.856, 76.501 91, 81.430 91 C 83.203 91, 83.945 90.046, 85.122 86.256 C 86.567 81.605, 86.693 81.497, 91.537 80.804 C 98.413 79.821, 127.677 79.346, 128.536 80.204 C 129.512 81.178, 123.799 88.240, 115.750 96.010 C 109.374 102.164, 107.307 106, 110.366 106 C 111.117 106, 114.885 102.626, 118.740 98.502 C 127.837 88.770, 134.062 85.697, 145.750 85.168 C 150.287 84.963, 154 84.586, 154 84.332 C 154 84.077, 153.553 83.034, 153.008 82.014 C 151.902 79.949, 147.905 78.488, 140.690 77.511 C 138.045 77.153, 136.020 76.538, 136.190 76.146 C 137.009 74.260, 153.430 51.003, 153.929 51.023 C 154.912 51.062, 168.033 85.810, 170.066 93.757 C 171.130 97.916, 172 103.233, 172 105.571 C 172 107.909, 172.899 112.674, 173.998 116.161 C 177.228 126.411, 177.557 131.952, 175.246 137.178 C 171.851 144.852, 165.156 147.562, 142.376 150.480 C 126.868 152.467, 120.697 154.334, 116.287 158.376 C 113.361 161.057, 112.659 162.492, 112.265 166.596 C 112.002 169.331, 112.229 173.169, 112.769 175.125 L 113.750 178.680 105.625 180.057 C 96.270 181.642, 64.471 181.883, 44.500 180.520 C 33.600 179.777, 32.227 179.513, 36 178.891 C 38.475 178.482, 44.163 178.115, 48.640 178.074 C 62.267 177.950, 82.947 173.190, 88.362 168.930 C 94.818 163.851, 89.718 159.285, 71 153.386 C 65.068 151.516, 64.293 151.072, 67.291 151.261 C 71.036 151.497, 71.112 151.427, 73.464 145.665 C 79.394 131.136, 86.334 126.572, 97.101 130.120 C 98.970 130.736, 105.690 134.725, 112.033 138.984 C 124.253 147.188, 126.758 148.414, 129.311 147.434 C 131.831 146.467, 133.262 140.567, 132.523 134.194 C 131.905 128.877, 132.045 128.308, 134.529 125.990 C 138.100 122.659, 141.657 115.470, 142.493 109.895 C 143.424 103.686, 141.104 98, 137.640 98 C 134.705 98, 130.679 102.411, 129.017 107.450 C 127.922 110.765, 127.362 111.111, 118.433 113.971 C 96.405 121.027, 74.144 121.834, 66.541 115.853 C 61.017 111.509, 65.490 103.634, 77.568 96.438 C 78.614 95.815, 79.041 94.876, 78.602 94.165 C 76.873 91.368, 67.572 98.395, 51.378 114.734 C 28.443 137.874, 27.726 137.584, 27.345 105 C 27.219 94.275, 26.819 83.470, 26.455 80.990 C 25.136 71.995, 29.553 63.680, 38.387 58.522 C 43.260 55.678, 56.390 51.808, 67.342 49.988 C 75.258 48.673, 77.292 47.262, 75.093 44.612 C 73.312 42.466, 66.485 41.138, 53.500 40.411 C 45.692 39.974, 42.199 39.452, 43.500 38.916 C 44.600 38.463, 56.750 36.698, 70.500 34.993 C 95.452 31.899, 116.194 28.266, 123.590 25.693 C 127.299 24.403, 127.802 24.489, 133.355 27.362 C 144.323 33.036, 144.694 38.511, 134.312 41.489 C 127.501 43.443, 123.674 45.663, 124.583 47.134 C 125.492 48.605, 131.430 47.323, 137.162 44.418 C 139.786 43.088, 142.599 42, 143.413 42 C 145.286 42, 145.012 34.522, 143.023 31.379 C 140.290 27.062, 128.375 20.651, 125.782 22.102 M 158.807 35.750 C 157.313 37.489, 155.725 41, 156.433 41 C 156.636 41, 157.732 39.425, 158.867 37.500 C 161.137 33.653, 161.117 33.061, 158.807 35.750 M 130.870 83.183 C 128.778 86.121, 128.753 86.304, 130.551 85.563 C 135.028 83.717, 141.522 81.992, 144.409 81.882 L 147.500 81.763 144.500 81 C 142.850 80.580, 139.618 80.183, 137.318 80.118 C 133.695 80.016, 132.833 80.426, 130.870 83.183 M 75.500 82.129 C 71.650 82.610, 66.025 83.521, 63 84.152 C 58.033 85.189, 57.763 85.373, 60.214 86.054 C 61.707 86.469, 67.130 87.123, 72.265 87.508 L 81.601 88.208 82.707 84.604 C 83.315 82.622, 83.517 81.057, 83.156 81.126 C 82.795 81.196, 79.350 81.647, 75.500 82.129 M 152.500 174.601 C 149.200 175.390, 142.900 177.236, 138.500 178.704 L 130.500 181.372 134.500 182.273 C 140.036 183.521, 159.414 182.448, 165.651 180.550 C 168.483 179.687, 171.858 178.095, 173.151 177.011 C 175.156 175.329, 175.281 174.894, 174 174.036 C 171.850 172.595, 159.536 172.919, 152.500 174.601" stroke="none" fill="black" fill-rule="evenodd"/>
</svg>