<svg xmlns="http://www.w3.org/2000/svg" width="200" height="200" viewBox="0 0 200 200" version="1.1">
	<path d="M 36.210 24.042 C 27.135 42.543, 25.308 49.051, 24.571 65.500 C 24.227 73.169, 22.974 83.421, 21.515 90.500 C 20.154 97.100, 19.034 102.950, 19.024 103.500 C 19.015 104.050, 21.137 105.376, 23.739 106.446 C 26.342 107.517, 30.365 110.139, 32.681 112.273 C 43.082 121.861, 42.228 137.686, 29.893 163.897 C 27.202 169.616, 25 175.129, 25 176.147 C 25 178.750, 27.311 178.451, 30.967 175.375 C 32.788 173.842, 39.490 170.940, 47.065 168.404 C 67.082 161.702, 71.620 158.367, 74.095 148.538 C 75.468 143.084, 74.334 131.641, 71.017 117.502 L 69.141 109.504 71.655 106.207 C 75.927 100.607, 85.212 91.388, 84.454 93.500 C 78.682 109.573, 76.762 117.228, 76.302 126 C 75.744 136.657, 76.710 140.455, 80.406 142.139 C 84.103 143.824, 88.034 142.322, 92.715 137.437 C 98.410 131.493, 101.516 121.658, 100.707 112.127 C 100.398 108.482, 99.890 104.825, 99.578 104 C 98.891 102.184, 105.550 97.463, 106.540 99.064 C 106.887 99.626, 106.845 110.626, 106.447 123.509 L 105.723 146.931 100.856 148.548 C 85.455 153.663, 86.504 168.264, 102.883 176.743 C 114.098 182.549, 124.687 180.803, 129.652 172.330 C 133.142 166.375, 133.571 159.165, 131.601 139.573 C 130.721 130.812, 130.029 121.812, 130.064 119.573 L 130.128 115.500 131.747 119 C 140.637 138.220, 143.277 143.136, 145.489 144.585 C 150.290 147.730, 153.309 144.113, 155.518 132.570 L 156.995 124.852 153.836 120.176 C 149.849 114.273, 142.984 105.887, 137.117 99.750 C 134.619 97.138, 132.969 95, 133.450 95 C 133.931 95, 136.632 95.728, 139.454 96.617 C 145.771 98.608, 147.042 100.411, 155.089 118.785 C 164.246 139.695, 168.672 145.493, 177.250 147.821 C 179.313 148.381, 180.992 148.763, 180.982 148.669 C 180.973 148.576, 179.650 144.334, 178.043 139.242 C 176.436 134.150, 174.391 125.375, 173.500 119.742 C 172.608 114.109, 171.465 108.486, 170.960 107.248 C 169.668 104.081, 164.857 101.406, 155.050 98.402 C 149.395 96.670, 145.283 94.686, 142.616 92.403 C 138.471 88.855, 133.649 87.015, 128.473 87.006 C 126.016 87.001, 124.930 86.203, 122.697 82.759 C 116.660 73.448, 116.856 64.906, 123.451 49.870 C 125.470 45.267, 127.531 40.496, 128.031 39.270 C 130.073 34.256, 133.132 38.868, 143.470 62.546 C 151.123 80.075, 155.104 86.889, 160.728 92.090 C 165.529 96.530, 170.156 97.254, 174.702 94.276 C 177.351 92.540, 185 81.634, 185 79.593 C 185 78.990, 182.979 77.424, 180.509 76.114 C 174.495 72.924, 163.396 61.172, 146.355 39.949 C 132.305 22.451, 127.101 17, 124.446 17 C 122.682 17, 122.388 17.471, 109.471 41 C 103.583 51.725, 99.017 59.825, 99.325 59 C 99.633 58.175, 101.677 52.958, 103.868 47.407 C 108.602 35.412, 113.254 18.883, 112.814 15.617 C 112.526 13.481, 110.401 14.686, 87.265 30.105 C 65.588 44.552, 61.906 46.682, 61.154 45.212 C 60.672 44.270, 59.273 40.141, 58.045 36.035 C 55.260 26.724, 51.221 18.684, 46.746 13.542 L 43.302 9.585 36.210 24.042 M 41.044 20.216 C 39.374 23.122, 35.952 30.355, 33.439 36.288 C 28.677 47.530, 27.059 56.248, 27.018 70.874 C 27.008 74.380, 25.860 82.878, 24.467 89.758 C 23.074 96.638, 22.062 102.378, 22.217 102.513 C 22.373 102.649, 24.779 103.904, 27.563 105.302 C 33.624 108.345, 39.253 114.292, 41.116 119.619 C 43.170 125.495, 42.699 137.336, 40.066 146.023 C 38.819 150.135, 35.633 158.098, 32.985 163.717 C 28.437 173.367, 28.318 173.826, 30.835 171.991 C 32.301 170.922, 39.575 167.977, 47 165.447 C 61.940 160.355, 65.971 158.253, 69.025 153.965 C 72.945 148.460, 72.617 136.503, 68.001 116.550 L 66.161 108.600 72.494 101.007 C 75.978 96.831, 80.914 91.491, 83.464 89.140 C 86.014 86.789, 88.520 83.659, 89.033 82.183 L 89.965 79.500 88.233 81.959 C 83.983 87.990, 81.670 90.095, 79.617 89.802 C 77.707 89.530, 77.488 88.822, 77.382 82.569 L 77.264 75.638 65.937 71.347 C 59.707 68.987, 54.462 67.205, 54.281 67.386 C 54.100 67.567, 54.637 70.349, 55.476 73.568 C 57.091 79.768, 57.392 92.397, 56.111 100.170 C 55.175 105.850, 49.376 115.830, 46.140 117.328 C 39.946 120.197, 39.625 108.970, 45.005 77.634 C 48.204 59.003, 48.700 57, 50.117 57 C 50.614 57, 52.964 55.171, 55.340 52.935 L 59.660 48.870 55.555 37.157 C 51.696 26.144, 47.170 16.841, 45.028 15.517 C 44.506 15.195, 42.714 17.309, 41.044 20.216 M 86.501 33.798 C 74.402 41.884, 64.375 49.190, 64.220 50.033 C 63.751 52.575, 70.538 59.515, 76.511 62.602 L 82.120 65.500 81.498 69.751 C 80.925 73.675, 81.079 74.080, 83.504 75.001 C 84.948 75.551, 86.546 76, 87.054 76 C 89.202 76, 101.170 48.880, 106.251 32.500 C 109.542 21.890, 110.192 18.990, 109.269 19.048 C 108.846 19.075, 98.601 25.712, 86.501 33.798 M 114.186 38.260 C 108.632 48.302, 101.779 61.414, 98.957 67.397 C 93.441 79.090, 93.473 79.954, 99.421 79.985 C 101.028 79.993, 103.053 80.614, 103.921 81.365 C 105.529 82.755, 121.078 88.255, 121.685 87.648 C 121.868 87.465, 120.586 84.539, 118.836 81.146 C 114.790 73.301, 114.631 65.709, 118.310 56 C 126.670 33.934, 127.736 32.431, 132.421 36.117 C 135.524 38.557, 136.955 41.250, 146.497 62.599 C 154.657 80.856, 159.643 88.998, 164.501 92.001 C 169.948 95.367, 174.387 93.023, 179.825 83.908 L 181.968 80.316 177.122 77.176 C 170.747 73.045, 161.979 63.646, 146.982 44.864 C 135.072 29.949, 126.248 20, 124.930 20 C 124.576 20, 119.741 28.217, 114.186 38.260 M 57.517 54.165 C 54.295 56.700, 52.047 61.464, 52.769 64.226 C 53.049 65.295, 53.553 65.730, 53.889 65.194 C 54.249 64.619, 59.213 65.974, 66 68.500 C 77.593 72.816, 78.947 72.856, 78.985 68.890 C 78.993 67.984, 76.498 65.798, 73.277 63.890 C 70.130 62.026, 66.192 58.615, 64.527 56.311 C 62.862 54.007, 61.223 52.095, 60.885 52.061 C 60.547 52.027, 59.031 52.974, 57.517 54.165 M 49.679 67.500 C 48.201 72.217, 44.879 95.332, 44.306 104.886 C 43.575 117.070, 44.271 117.542, 49.808 108.622 C 53.358 102.904, 53.421 102.617, 53.762 90.655 C 54.040 80.904, 53.733 77.214, 52.207 72 C 50.803 67.200, 50.142 66.023, 49.679 67.500 M 91.459 75.067 C 91.096 75.653, 91.014 76.348, 91.276 76.610 C 91.538 76.872, 92.019 76.392, 92.345 75.543 C 93.021 73.781, 92.445 73.471, 91.459 75.067 M 80 81.933 C 80 84.720, 80.202 87, 80.449 87 C 80.696 87, 82.115 85.404, 83.603 83.454 C 86.413 79.769, 86.176 78.731, 82.250 77.545 C 80.123 76.902, 80 77.143, 80 81.933 M 92.116 85.750 C 89.046 88.646, 85.910 96.220, 81.453 111.500 C 78.402 121.957, 77.599 135.597, 79.872 138.342 C 83.267 142.443, 90.198 138.384, 94.768 129.620 C 97.073 125.199, 97.441 123.271, 97.469 115.500 C 97.486 110.550, 97.131 105.330, 96.679 103.900 C 95.933 101.537, 96.322 101.002, 100.929 98.045 C 106.401 94.534, 106.495 94.321, 104.972 88.840 C 104.200 86.060, 103.204 84.918, 100.829 84.090 C 96.303 82.513, 95.357 82.693, 92.116 85.750 M 108 89.441 C 108 92.790, 108.940 93.099, 112.897 91.054 L 116.292 89.298 112.997 88.149 C 108.426 86.555, 108 86.666, 108 89.441 M 132 91.500 C 136.658 93.294, 139.138 93.294, 136 91.500 C 134.625 90.714, 132.375 90.089, 131 90.112 C 128.800 90.147, 128.920 90.314, 132 91.500 M 114.181 93.496 L 108.861 95.972 109.009 102.236 C 109.091 105.681, 109.122 117.595, 109.079 128.711 L 109 148.923 104.750 150.053 C 95.319 152.560, 90.819 157.745, 93.018 163.566 C 95.791 170.902, 105.919 177.254, 115.063 177.392 C 121.950 177.495, 125.455 175.414, 128.062 169.672 C 130.445 164.424, 130.496 158.666, 128.370 134.902 C 127.455 124.673, 127.014 115.081, 127.389 113.586 C 128.741 108.199, 131.204 111.024, 137.683 125.395 C 146.448 144.838, 148.824 146.974, 151.424 137.750 C 154.667 126.246, 154.627 125.830, 149.622 118.952 C 141.624 107.961, 127.940 93.175, 124.730 92.056 C 120.612 90.620, 120.252 90.670, 114.181 93.496 M 151.470 104.250 C 152.751 106.588, 156.109 113.900, 158.932 120.500 C 164.578 133.701, 169.423 141.133, 173.886 143.441 L 176.801 144.948 174.916 138.724 C 172.958 132.259, 170.583 120.869, 169.525 112.865 C 168.770 107.159, 167.002 105.478, 158.511 102.397 C 149.208 99.020, 148.680 99.159, 151.470 104.250" stroke="none" fill="black" fill-rule="evenodd"/>
</svg>