<svg xmlns="http://www.w3.org/2000/svg" width="200" height="200" viewBox="0 0 200 200" version="1.1">
	<path d="M 72 14.087 C 37.723 16.141, 32.500 16.790, 32.500 19 C 32.500 19.825, 32.152 20.758, 31.727 21.073 C 31.302 21.388, 31.692 23.412, 32.594 25.570 C 35.461 32.433, 34.124 40.660, 28.068 53.422 C 19.721 71.014, 19.355 76.668, 25.971 85.802 C 28.537 89.343, 40.819 99.049, 44.323 100.303 C 44.972 100.536, 42.329 104.040, 38.434 108.112 C 20.370 127, 14.196 140.466, 20.331 147.598 C 24.999 153.025, 37.521 151.792, 52.055 144.472 C 58.830 141.061, 72.859 131.038, 76.491 127.015 L 78.483 124.809 74.491 121.666 C 61.846 111.708, 57.868 101.845, 61.483 89.412 C 63.390 82.852, 69.573 75.647, 74.318 74.456 C 78.295 73.458, 82.917 75.757, 84.777 79.660 C 85.654 81.497, 86.665 83, 87.026 83 C 87.386 83, 91.426 80.749, 96.004 77.997 C 100.582 75.246, 104.481 73.148, 104.669 73.335 C 105.909 74.576, 102.337 79.910, 98.739 82.189 C 87.259 89.459, 81.298 97.288, 82.343 103.725 C 82.646 105.593, 84.943 110.323, 87.447 114.237 C 90.399 118.852, 92 122.470, 92 124.527 C 92 131.169, 82.656 139.878, 65.750 148.995 C 61.487 151.293, 58 153.510, 58 153.920 C 58 155.768, 59.495 155.710, 63.321 153.716 C 65.823 152.412, 69.930 151.408, 73.764 151.164 C 80.010 150.766, 80.126 150.807, 83.796 154.665 C 85.979 156.960, 88.949 162.015, 91.005 166.935 C 95.199 176.974, 100.317 183, 104.649 183 C 110.106 183, 118.005 177.968, 128.663 167.702 C 134.349 162.227, 139 157.301, 139 156.757 C 139 156.212, 135.063 151.973, 130.250 147.336 C 119.025 136.520, 122.453 138.123, 135.649 149.861 C 147.174 160.112, 158.100 172.281, 164.877 182.412 L 169.500 189.325 170.136 170.412 C 170.486 160.011, 171.283 148.455, 171.908 144.734 C 173.267 136.636, 173.346 128.878, 172.246 111.453 C 171.327 96.902, 169.981 93.251, 164.064 89.264 C 159.588 86.248, 154.732 85.012, 147.327 85.006 L 141.154 85 136.643 78.215 C 134.162 74.483, 131.251 70.632, 130.174 69.658 C 127.620 67.346, 128.423 64, 131.531 64 C 132.795 64, 138.930 65.987, 145.165 68.416 C 155.898 72.597, 167.815 76.171, 181.683 79.366 C 186.644 80.510, 187.963 80.540, 188.355 79.519 C 188.654 78.738, 180.569 72.308, 167.469 62.908 C 155.714 54.473, 146.187 47.484, 146.298 47.377 C 146.409 47.271, 150.442 46.506, 155.259 45.677 C 165.196 43.967, 172.366 40.897, 174.684 37.360 C 176.136 35.143, 176.123 34.793, 174.517 33.018 C 171.014 29.148, 158.577 29.546, 141.565 34.073 C 137.679 35.107, 134.217 35.964, 133.872 35.976 C 133.526 35.989, 132.725 32.515, 132.091 28.255 C 130.944 20.540, 128.935 16.663, 127.059 18.543 C 125.740 19.864, 123.391 29.258, 122.543 36.601 L 121.838 42.702 117.669 41.894 C 115.376 41.450, 110.575 41.061, 107 41.030 C 95.280 40.927, 94.894 40.253, 104.017 35.813 C 116.276 29.848, 118.828 23.707, 112.497 15.407 C 110.314 12.545, 109.307 12.021, 106.199 12.130 C 104.165 12.201, 88.775 13.082, 72 14.087 M 71 17.054 C 55.875 18.034, 41.925 18.873, 40 18.919 C 36.818 18.994, 37.410 19.451, 46.500 23.935 C 55.830 28.537, 85.174 38, 90.115 38 C 93.577 38, 107.360 31.763, 110.250 28.889 C 113.559 25.598, 113.788 21.915, 110.932 17.904 C 108.468 14.443, 110.578 14.488, 71 17.054 M 127.791 23.548 C 126.687 25.303, 124.642 41.975, 125.433 42.763 C 125.840 43.168, 132.772 43.499, 140.837 43.498 C 153.200 43.497, 156.609 43.148, 162.572 41.274 C 169.382 39.133, 174.132 35.794, 172.572 34.244 C 170.765 32.450, 154.301 33.679, 143.588 36.408 C 137.587 37.936, 132.074 39.418, 131.338 39.700 C 130.338 40.084, 129.985 38.987, 129.942 35.357 C 129.867 29.016, 128.628 22.216, 127.791 23.548 M 36.752 31.502 C 37.338 38.799, 36.543 41.618, 29.740 56.377 C 26.982 62.360, 24.507 69.191, 24.240 71.559 C 23.275 80.122, 29.613 88.347, 43.374 96.390 L 50.030 100.281 40.722 109.890 C 27.548 123.492, 21.071 133.502, 20.801 140.676 C 20.275 154.674, 48.537 147.887, 70.464 128.750 L 74.428 125.291 68.342 119.656 C 60.618 112.505, 57.641 106.173, 57.680 96.975 C 57.727 85.915, 63.853 75.749, 72.449 72.466 C 77.784 70.429, 80.314 71.081, 85.188 75.751 L 88.876 79.284 96.688 74.468 C 100.985 71.820, 106.525 67.926, 109 65.816 C 111.475 63.706, 114.287 61.309, 115.250 60.490 C 123.660 53.331, 101.002 53.817, 68.500 61.493 C 63 62.792, 57.716 64.159, 56.758 64.531 C 55.256 65.115, 55.359 64.458, 57.504 59.773 C 64.702 44.051, 59.913 32.783, 43.877 27.706 L 36.254 25.293 36.752 31.502 M 59.956 34.938 C 63.463 39.864, 64.463 46.616, 62.704 53.509 C 61.864 56.804, 61.330 59.657, 61.519 59.848 C 61.708 60.039, 66.056 59.257, 71.181 58.110 C 95.299 52.712, 114.347 51.194, 117.877 54.389 C 120.163 56.458, 121 55.565, 121 51.059 L 121 47.451 113.250 46.062 C 108.987 45.298, 100.100 44.487, 93.500 44.260 C 80.981 43.830, 78.335 43.057, 81.855 40.859 C 83.773 39.660, 83.309 39.377, 76.223 37.417 C 71.975 36.243, 66.121 34.563, 63.212 33.684 L 57.925 32.085 59.956 34.938 M 123.642 51.750 C 122.679 57.576, 122.890 63.814, 124.074 64.546 C 124.665 64.911, 126.156 64.262, 127.388 63.105 C 130.200 60.464, 132.567 60.457, 138.667 63.072 C 150.865 68.302, 178.533 76.800, 179.668 75.666 C 179.907 75.426, 171.481 69.103, 160.943 61.615 L 141.782 48 133.022 48 L 124.262 48 123.642 51.750 M 118.638 60.500 C 118.322 61.325, 118.499 62, 119.031 62 C 119.564 62, 120 61.325, 120 60.500 C 120 59.675, 119.823 59, 119.607 59 C 119.391 59, 118.955 59.675, 118.638 60.500 M 111.085 68.556 C 109.367 70.512, 107.425 74.122, 106.768 76.578 C 105.727 80.468, 104.768 81.568, 99.312 85.123 C 92.153 89.787, 86.342 95.789, 85.417 99.475 C 84.532 103.001, 85.619 106.586, 89.113 111.665 C 93.513 118.060, 95.256 122.822, 94.558 126.544 C 93.622 131.533, 88.721 137.441, 81.050 142.829 L 74.048 147.746 77.617 148.325 C 83.976 149.357, 87.533 153.146, 93.077 164.794 C 95.880 170.682, 99.113 176.512, 100.261 177.750 C 105.027 182.887, 112.360 179.637, 126.110 166.295 L 135.903 156.792 125.889 146.841 C 116.508 137.519, 114.555 134.313, 117.631 133.289 C 121.029 132.158, 148.933 157.350, 160.657 172.133 L 166.710 179.766 167.318 166.633 C 167.652 159.410, 168.664 148.100, 169.567 141.500 C 170.886 131.855, 170.999 127.930, 170.143 121.500 C 169.558 117.100, 169.125 111.002, 169.182 107.948 C 169.368 97.969, 166.409 92.740, 158.768 89.548 C 154.162 87.623, 142.528 87.399, 143.322 89.250 C 143.617 89.938, 145.401 94.100, 147.287 98.500 C 153.507 113.016, 155.458 124.473, 152.443 128.777 C 149.871 132.450, 145.961 131.647, 138.343 125.881 C 134.623 123.065, 131.447 121.153, 131.286 121.631 C 131.124 122.109, 130.082 123.992, 128.970 125.816 C 127.496 128.234, 126.349 129.047, 124.734 128.816 C 120.838 128.260, 119.655 123.771, 119.185 107.762 L 118.753 93.024 116.127 93.658 C 114.682 94.007, 112.534 94.648, 111.353 95.083 C 109.218 95.868, 108 95.417, 108 93.844 C 108 93.391, 110.475 91.377, 113.500 89.369 L 119 85.717 119 78.483 C 119 74.505, 119.281 69.844, 119.625 68.125 C 120.215 65.177, 120.079 65, 117.229 65 C 115.018 65, 113.369 65.955, 111.085 68.556 M 122.089 72.750 L 122.179 78.500 123.533 73.564 C 124.882 68.650, 124.733 67, 122.941 67 C 122.423 67, 122.040 69.588, 122.089 72.750 M 125.563 77.732 C 124.634 81.454, 123.176 85.574, 122.324 86.887 C 120.796 89.240, 120.814 89.263, 123.637 88.539 C 125.212 88.135, 129.114 87.264, 132.308 86.603 L 138.117 85.403 134.056 79.322 C 127.774 69.915, 127.526 69.868, 125.563 77.732 M 132.500 89.133 C 130.300 89.646, 126.746 90.536, 124.602 91.111 L 120.704 92.157 121.365 105.334 C 122.036 118.697, 123.331 126, 125.030 126 C 125.545 126, 127.120 123.724, 128.529 120.942 L 131.093 115.884 136.793 121.094 C 143.297 127.038, 147.833 129.383, 149.750 127.792 C 152.840 125.228, 150.284 112.071, 143.818 97.250 C 139.504 87.362, 139.650 87.467, 132.500 89.133" stroke="none" fill="black" fill-rule="evenodd"/>
</svg>