<svg xmlns="http://www.w3.org/2000/svg" width="200" height="200" viewBox="0 0 200 200" version="1.1">
	<path d="M 86.280 15.633 C 84.509 16.506, 81.398 19.309, 79.366 21.860 C 72.292 30.746, 67.468 35.250, 62.500 37.608 C 56.627 40.395, 51.653 40.601, 43.460 38.396 C 35.882 36.358, 35.183 36.285, 34.809 37.500 C 34.639 38.050, 36.750 39.268, 39.500 40.206 L 44.500 41.912 34.785 41.956 C 26.025 41.996, 24.964 41.801, 23.985 39.972 C 22.739 37.643, 21 38.231, 21 40.981 C 21 43.835, 25.801 44.795, 42.500 45.280 C 57.078 45.704, 63.650 47.006, 65.385 49.814 C 66.437 51.515, 64.089 56.283, 60.190 60.361 C 58.161 62.485, 50.875 68.769, 44 74.327 C 28.387 86.948, 20.748 94.455, 21.189 96.745 C 21.959 100.740, 28.325 99.122, 48.500 89.806 C 64.154 82.577, 69.714 78.682, 85.947 63.570 C 98.647 51.747, 105.988 46.983, 111.446 47.022 C 116.466 47.058, 122.409 50.440, 127.091 55.925 C 130.403 59.805, 133.491 62.039, 139.500 64.906 C 151.943 70.841, 156.122 76.695, 153.455 84.452 C 150.478 93.114, 139.862 100.053, 128.469 100.784 C 121.617 101.223, 121.157 101.112, 117.929 98.228 C 114.697 95.340, 114.544 94.883, 114.312 87.391 C 114.005 77.511, 112.229 74.643, 106.142 74.192 C 103.079 73.965, 100.603 74.624, 96.744 76.692 C 89.321 80.670, 78.746 91.479, 76.485 97.399 C 74.755 101.931, 74.502 102.147, 71.580 101.600 C 69.886 101.283, 61.300 100.747, 52.500 100.410 C 38.710 99.882, 36.224 100.018, 34.500 101.398 C 32.512 102.990, 32.512 103.009, 34.469 104.520 C 37.886 107.159, 44.067 108.269, 58.815 108.894 L 73.130 109.500 67.486 118.500 C 55.954 136.891, 42.858 151.960, 21.599 171.303 L 11.698 180.311 17.211 179.742 C 25.405 178.896, 36.056 174.008, 54.225 162.752 C 63.176 157.207, 72.387 151.596, 74.692 150.282 C 79.231 147.696, 84.867 145.800, 85.976 146.485 C 86.357 146.720, 85.838 150.181, 84.823 154.177 C 81.321 167.967, 82.720 182.174, 87.850 184.920 C 97.346 190.002, 111.549 178.730, 115.688 162.825 C 117.168 157.139, 117.246 155.359, 116.214 150.825 C 114.078 141.434, 112.883 132.099, 113.196 127.234 L 113.500 122.500 117.500 128.793 C 119.700 132.254, 123.975 139.170, 127 144.162 C 133.783 155.355, 143.541 166.115, 149.547 169.023 C 153.607 170.988, 154.653 171.099, 160.098 170.140 C 179.405 166.739, 183.073 149.892, 166.864 139.068 C 161.912 135.761, 148.471 131, 144.089 131 C 142.202 131, 124.537 117.469, 122.636 114.567 C 120.298 111, 120.550 110.304, 124.670 108.944 C 127.394 108.045, 134.940 107.913, 153.920 108.432 C 178.256 109.098, 179.378 109.049, 177 107.420 C 170.913 103.251, 170.673 100.346, 175.126 84.712 C 180.235 66.776, 178.244 59.679, 166.031 52.291 C 163.113 50.526, 158.328 48.545, 155.397 47.890 C 152.467 47.234, 150.305 46.315, 150.594 45.849 C 150.882 45.382, 156.154 44.989, 162.309 44.976 C 168.464 44.963, 175.288 44.538, 177.473 44.031 C 181.181 43.171, 184 40.859, 184 38.677 C 184 36.506, 176.490 30.936, 167.641 26.544 L 158.161 21.839 153.982 26.018 C 151.683 28.317, 146.809 31.616, 143.151 33.349 C 136.839 36.339, 135.888 36.500, 124.500 36.500 C 114.261 36.500, 111.804 36.178, 107.755 34.309 C 101.940 31.623, 100.067 28.311, 101.786 23.756 C 103.222 19.951, 102.230 18.470, 96.500 15.863 C 91.609 13.638, 90.382 13.611, 86.280 15.633 M 86.492 18.842 C 84.838 19.851, 82.148 22.436, 80.515 24.588 C 72.441 35.226, 66.019 40.307, 58.500 42.006 L 55.500 42.684 59.500 43.817 C 65.677 45.567, 68 47.621, 68 51.334 C 68 57.182, 64.275 61.343, 45 77.023 C 28.443 90.492, 22.719 96, 25.278 96 C 30.103 96, 60.802 81.596, 67.850 76.025 C 70.556 73.885, 77.535 67.655, 83.358 62.180 C 103.066 43.649, 110.134 40.961, 121.688 47.604 C 123.991 48.928, 127.559 52.066, 129.616 54.577 C 132.231 57.767, 135.316 60.030, 139.860 62.090 C 151.675 67.448, 156.989 73.092, 156.996 80.290 C 157.007 91.401, 143.030 102.912, 128.500 103.759 C 117.597 104.394, 111.375 98.669, 111.805 88.399 C 112.076 81.926, 110.759 78.303, 107.616 76.871 C 100.220 73.501, 76.640 94.103, 78.250 102.528 C 78.510 103.887, 78.448 105.002, 78.111 105.004 C 77.775 105.006, 76.691 106.975, 75.702 109.380 C 72.980 116, 61.314 133.391, 52.786 143.542 C 48.608 148.515, 39.649 157.926, 32.877 164.455 C 22.849 174.123, 21.115 176.192, 23.532 175.603 C 29.049 174.258, 42.427 167.194, 57 157.930 C 73.627 147.361, 80.233 144.024, 84.550 144.010 C 89.503 143.994, 89.982 145.293, 87.945 153.214 C 83.942 168.776, 84.530 179.336, 89.585 182.647 C 93.185 185.007, 99.008 183.044, 104.397 177.655 C 112.658 169.395, 115.944 157.241, 112.645 147.153 C 110.586 140.859, 110.007 122.593, 111.810 120.790 C 113.987 118.613, 116.154 121.071, 125 135.744 C 135.270 152.780, 140.876 159.951, 147.509 164.537 C 153.082 168.390, 156.109 168.774, 163.461 166.562 C 176.723 162.570, 178.244 150.080, 166.454 141.969 C 161.776 138.750, 148.914 134, 144.875 134 C 142.529 134, 130.338 125.786, 124.702 120.408 C 117.027 113.084, 116.362 109.357, 122.283 106.858 C 124.742 105.820, 130.858 105.561, 148.228 105.757 L 170.956 106.014 169.978 103.442 C 168.480 99.503, 168.755 97.107, 171.994 85.879 C 175.285 74.470, 175.769 67.387, 173.551 63.099 C 170.181 56.581, 161.563 51.688, 148.827 49.061 C 143.099 47.879, 140.288 45.961, 141.473 44.044 C 141.852 43.430, 146.317 42.997, 152.309 42.992 C 164.750 42.983, 178.972 41.440, 180.426 39.941 C 181.977 38.345, 176.333 33.893, 166.618 29.049 L 158.610 25.057 155.055 28.628 C 144.236 39.496, 121.162 43.341, 106.643 36.694 C 99.735 33.531, 96.854 28.875, 98.730 23.905 C 99.797 21.077, 99.670 20.770, 96.684 18.949 C 92.713 16.528, 90.328 16.502, 86.492 18.842 M 39.554 102.902 C 35.791 104.375, 41.927 105.199, 59.500 105.582 C 79.472 106.018, 78.128 104.629, 57.032 103.032 C 41.704 101.872, 42.177 101.876, 39.554 102.902" stroke="none" fill="black" fill-rule="evenodd"/>
</svg>