<svg xmlns="http://www.w3.org/2000/svg" width="200" height="200" viewBox="0 0 200 200" version="1.1">
	<path d="M 47.210 24.750 C 41.505 27.813, 35.033 35.155, 31.200 42.909 C 28.058 49.266, 27.445 51.606, 27.134 58.422 C 26.906 63.429, 26.278 66.835, 25.466 67.475 C 24.418 68.301, 24.742 70.345, 27.134 78 C 32.928 96.540, 34.691 111.382, 32.104 119.853 C 30.581 124.842, 26.505 129.632, 22.148 131.555 C 18.745 133.056, 18.147 133.850, 17.142 138.206 C 15.592 144.919, 15.707 149.533, 17.510 153.020 C 21.187 160.130, 29.549 159.768, 45.500 151.811 C 54.247 147.448, 69.454 137.639, 77.814 130.968 C 83.466 126.458, 83.685 123.814, 78.179 126.560 C 75.605 127.845, 74.339 127.937, 71.616 127.038 C 67.299 125.613, 65.723 123.817, 62.350 116.473 C 57.209 105.280, 58.100 88.228, 64.233 80.431 C 66.939 76.991, 73.424 74.050, 78.367 74.022 C 82.068 74.001, 82.207 74.117, 81.628 76.750 C 81.295 78.263, 80.754 83.100, 80.426 87.500 C 79.683 97.462, 81.241 102.508, 86.090 105.851 C 89.081 107.914, 90.298 108.136, 96 107.662 C 99.575 107.364, 106.484 106.166, 111.354 104.998 C 116.224 103.831, 120.444 103.110, 120.731 103.398 C 121.461 104.128, 114.423 112.340, 106.837 119.612 C 99.988 126.176, 93.622 130, 89.540 130 C 87.949 130, 87 130.560, 87 131.500 C 87 132.325, 87.718 133, 88.596 133 C 89.473 133, 91.605 134.012, 93.333 135.250 C 95.061 136.488, 98.085 138.228, 100.053 139.118 C 105.798 141.717, 110.861 146.742, 111.576 150.555 C 112.530 155.638, 108.455 161.861, 100.419 167.595 C 92.317 173.377, 79.726 178.972, 74.781 178.988 C 71.736 178.998, 71.178 179.299, 71.697 180.654 C 72.273 182.155, 74.597 182.246, 96.916 181.646 C 110.437 181.282, 135.794 180.692, 153.266 180.334 L 185.031 179.683 184.389 176.091 C 181.995 162.708, 175.745 160.119, 157.333 164.886 C 146.353 167.728, 140.600 167.695, 138.557 164.777 C 136.921 162.442, 136.444 151.997, 137.642 144.750 L 138.262 141 143.881 140.983 C 151.644 140.959, 162.472 138.512, 166.032 135.978 C 171.207 132.292, 169.748 126.488, 162.717 122.788 C 159.319 121, 156.848 120.569, 150 120.570 C 145.325 120.571, 139.152 120.954, 136.281 121.421 C 126.600 122.998, 123.706 118.088, 127.594 106.678 L 129.188 102 133.844 102.022 C 138.129 102.042, 142.303 103.561, 149 107.536 C 151.781 109.187, 157.690 108.689, 162.102 106.433 C 166.211 104.331, 170.616 98.649, 172.639 92.841 C 175.559 84.459, 175.276 56.052, 172.091 37.750 C 170.774 30.187, 169.400 24, 169.037 24 C 168.674 24, 165.330 29.737, 161.606 36.750 C 157.883 43.763, 155.127 48.600, 155.483 47.500 C 158.981 36.686, 159.325 34.145, 157.637 31.568 C 155.184 27.825, 151.740 27.448, 139.507 29.581 C 132.842 30.743, 123.964 31.490, 117 31.475 C 107.092 31.453, 104.766 31.121, 100.196 29.078 C 96.307 27.340, 94.596 27.004, 93.781 27.819 C 92.134 29.466, 100.882 32.910, 110.145 34.261 C 116.523 35.192, 119.838 35.076, 130.145 33.563 C 156.155 29.744, 157.269 29.991, 155.166 39.101 C 153.805 44.999, 147.524 59, 146.239 59 C 145.749 59, 144.258 57.816, 142.924 56.368 C 139.969 53.159, 133.493 50.052, 129.700 50.022 C 121.062 49.954, 114.582 60.582, 119.975 65.975 C 123.861 69.861, 130.425 69.535, 140.859 64.937 C 143.256 63.881, 145.617 63.263, 146.105 63.565 C 147.348 64.333, 144.257 69.976, 142.198 70.699 C 141.264 71.027, 138.243 73.002, 135.485 75.088 C 132.727 77.174, 126.752 80.741, 122.209 83.016 C 113.885 87.182, 110.468 90.449, 111.532 93.224 C 112.392 95.465, 116.514 97, 121.669 97 C 125.623 97, 126.076 97.204, 125 98.500 C 124.315 99.325, 122.950 100, 121.966 100 C 120.982 100, 115.416 101.125, 109.597 102.500 C 89.493 107.250, 84.026 105.506, 83.199 94.078 C 82.952 90.655, 83.294 84.476, 83.960 80.346 C 84.626 76.217, 84.875 72.542, 84.513 72.180 C 84.151 71.818, 81.300 71.559, 78.177 71.605 C 67.733 71.758, 60.777 77.444, 57.431 88.562 C 52.687 104.325, 60.287 126.944, 71.286 129.794 C 74.439 130.611, 74.433 130.617, 62.971 138.241 C 40.751 153.019, 24.632 158.595, 20.634 152.888 C 18.974 150.518, 18.550 142.660, 19.850 138.336 C 20.207 137.145, 22.744 134.630, 25.487 132.746 C 28.806 130.466, 31.314 127.685, 32.987 124.427 C 35.250 120.020, 35.497 118.388, 35.468 108.017 C 35.441 98.082, 34.989 94.931, 32.180 85.083 C 29.860 76.947, 29.251 73.463, 30.063 72.961 C 30.910 72.438, 30.883 70.835, 29.957 66.698 C 27.121 54.026, 34.764 35.920, 45.946 28.822 C 51.179 25.500, 55.477 25.154, 56.965 27.934 C 58.309 30.446, 58.285 40.434, 56.922 45.342 C 54.759 53.132, 58.885 62.881, 66.050 66.908 C 76.484 72.772, 85.633 64.856, 86.769 48.981 C 87.205 42.896, 85.729 28.063, 84.324 24.402 C 83.517 22.298, 80.749 22.630, 81.416 24.750 C 82.906 29.487, 84 38.042, 84 44.958 C 84 58.203, 79.778 66.005, 72.615 65.996 C 64.842 65.987, 58.162 56.960, 59.433 48.182 C 60.802 38.721, 61.219 32.009, 60.592 29.511 C 59.057 23.395, 53.449 21.400, 47.210 24.750 M 158.883 48.203 L 150.276 64.282 152.626 68.391 C 155.387 73.219, 155.725 79.698, 153.445 84.107 C 151.556 87.759, 144.392 92.459, 137.313 94.690 C 131.424 96.547, 129.419 98.997, 133.781 99.006 C 138.027 99.014, 143.422 100.797, 147.426 103.514 C 153.180 107.419, 158.767 106.514, 164.794 100.700 C 170.124 95.558, 172.425 86.377, 172.362 70.500 C 172.315 58.838, 169.756 36.418, 168.117 33.312 C 167.772 32.658, 163.616 39.359, 158.883 48.203 M 123.455 55.455 C 120.291 58.618, 120.137 63.468, 123.150 65.080 C 125.889 66.546, 132.216 65.694, 138.461 63.017 L 143.296 60.944 140.898 58.377 C 135.407 52.499, 127.701 51.208, 123.455 55.455 M 144.214 74.750 C 141.920 79.013, 138.694 84.828, 137.045 87.673 L 134.047 92.847 136.802 92.057 C 141.679 90.658, 147.755 87.126, 149.836 84.481 C 153.030 80.421, 153.401 76.695, 151.125 71.549 C 150.018 69.047, 148.949 67, 148.749 67 C 148.549 67, 146.508 70.487, 144.214 74.750 M 135.994 78.086 C 134.072 79.699, 128.900 82.737, 124.500 84.837 C 111.508 91.037, 110.869 93.959, 122.500 93.980 L 128.500 93.990 134.342 84.921 C 137.555 79.932, 140.028 75.694, 139.836 75.502 C 139.644 75.311, 137.915 76.474, 135.994 78.086 M 120.278 109.250 C 113.668 117.395, 104.509 126.087, 98.556 129.862 L 93.807 132.874 99.860 135.929 C 111.643 141.878, 116.365 148.334, 114.053 155.339 C 111.692 162.492, 104.713 169.140, 92.852 175.531 L 86.500 178.955 90.500 178.999 C 92.700 179.023, 114.174 178.495, 138.220 177.825 L 181.939 176.607 181.371 174.053 C 180.418 169.767, 177.493 166.547, 173.674 165.579 C 170.815 164.853, 167.802 165.226, 159.535 167.329 C 147.589 170.366, 143.116 170.629, 139.059 168.530 C 135.505 166.693, 133.987 162.477, 134.044 154.601 C 134.085 148.855, 135.263 140.404, 136.146 139.521 C 136.366 139.301, 141.196 138.644, 146.879 138.060 C 156.667 137.056, 164.923 134.552, 166.417 132.134 C 167.640 130.155, 164.902 126.844, 160.392 124.849 C 155.138 122.525, 146.486 122.178, 139.357 124.005 C 126.413 127.323, 119.923 119.972, 124.456 107.126 C 125.256 104.857, 125.785 103, 125.630 103 C 125.476 103, 123.067 105.813, 120.278 109.250" stroke="none" fill="black" fill-rule="evenodd"/>
</svg>