<svg xmlns="http://www.w3.org/2000/svg" width="200" height="200" viewBox="0 0 200 200" version="1.1">
	<path d="M 143.500 17.586 C 136.350 20.103, 129.825 22.204, 129 22.253 C 128.175 22.303, 122.176 21.554, 115.670 20.589 C 101.319 18.460, 95.104 19.042, 90.764 22.920 C 88.182 25.226, 87.752 26.302, 87.832 30.253 C 87.883 32.800, 88.617 36.540, 89.462 38.564 C 90.308 40.588, 91 42.382, 91 42.550 C 91 42.719, 88.413 43.824, 85.251 45.007 C 82.089 46.190, 75.548 48.995, 70.716 51.241 L 61.929 55.323 58.445 51.947 C 51.169 44.895, 52.118 35.409, 61.080 25.603 L 66.116 20.093 60.921 17.460 C 39.187 6.447, 26.164 22.273, 24.270 62 C 23.786 72.149, 23.236 75.441, 21.347 79.500 C 18.390 85.853, 18.227 94.849, 20.928 102.536 C 21.989 105.554, 25.774 113.080, 29.340 119.261 C 36.044 130.884, 39.004 138.095, 38.994 142.785 C 38.978 150.796, 33.159 159.926, 24.190 166.012 C 20.363 168.609, 18.893 170.305, 18.433 172.650 C 17.469 177.563, 18.204 179.464, 21.201 179.811 C 24.272 180.167, 25.333 179.539, 40.998 168.104 C 55.611 157.437, 65.172 152.750, 72.537 152.643 C 77.401 152.573, 78.317 152.915, 81.480 155.981 C 84.035 158.457, 85.305 159.095, 86.100 158.300 C 86.895 157.505, 86.109 156.085, 83.244 153.132 C 77.669 147.388, 75.545 140.223, 75.645 127.500 C 75.727 117.128, 77.723 105.265, 81.171 94.656 C 83.681 86.935, 84.412 86.158, 86.984 88.485 C 88.967 90.280, 89.010 91.253, 88.802 129.912 C 88.620 163.617, 88.845 170.968, 90.317 179.379 C 92.700 193.003, 92.910 193.216, 97.352 186.525 C 109.774 167.816, 121.518 164.248, 145.293 171.959 C 152.007 174.137, 159.319 176.205, 161.542 176.554 C 167.206 177.444, 173.026 175.607, 176.702 171.769 L 179.833 168.500 180.530 150 C 181.348 128.314, 180.117 115.149, 176.541 107.321 C 171.429 96.130, 161.368 96.150, 145.604 107.382 L 139.500 111.732 134.346 109.768 L 129.192 107.805 134.017 96.153 L 138.841 84.500 144.670 83.692 C 152.121 82.659, 162.842 83.553, 168.062 85.641 C 170.394 86.575, 172.484 86.892, 172.958 86.385 C 174.257 84.995, 177.260 52.832, 177.386 38.956 C 177.481 28.502, 177.205 25.962, 175.727 23.706 C 171.950 17.942, 166.480 21.787, 158.945 35.500 C 157.132 38.800, 155.545 41.646, 155.417 41.824 C 155.290 42.002, 153.682 41.338, 151.843 40.348 C 150.004 39.359, 143.130 36.738, 136.566 34.524 C 130.003 32.311, 124.479 30.015, 124.291 29.422 C 124.102 28.830, 125.175 27.785, 126.675 27.102 C 128.852 26.110, 131.496 26.115, 139.767 27.126 C 155.960 29.105, 161.392 26.236, 159.594 16.652 C 159.218 14.643, 158.367 13.002, 157.705 13.004 C 157.042 13.007, 150.650 15.068, 143.500 17.586 M 145 19.784 C 135.594 23.032, 134.813 23.480, 137.500 24.087 C 142.293 25.168, 152.956 25.094, 155.066 23.965 C 156.407 23.247, 157 21.867, 157 19.465 C 157 17.559, 156.662 16.036, 156.250 16.079 C 155.838 16.122, 150.775 17.790, 145 19.784 M 40.929 19.269 C 32.775 24.764, 28.185 38.546, 27.364 60 C 26.916 71.704, 26.498 74.298, 24.220 79.500 C 21.015 86.819, 20.742 94.404, 23.428 101.500 C 24.469 104.250, 28.369 111.900, 32.095 118.500 C 40.626 133.611, 42.696 140.311, 41.074 147.562 C 40.431 150.432, 38.388 154.915, 36.534 157.523 C 33.392 161.943, 23.461 171, 21.757 171 C 21.341 171, 21 172.587, 21 174.526 L 21 178.051 24.250 176.403 C 26.038 175.497, 32.225 171.250, 38 166.966 C 53.086 155.775, 62.572 150.884, 70.418 150.255 L 76.712 149.749 74.856 143.786 C 71.173 131.953, 73.077 109.849, 79.369 91.376 L 81.795 84.251 72.533 78.126 C 67.438 74.756, 62.984 72, 62.635 72 C 62.286 72, 62 74.298, 62 77.106 C 62 91.388, 50.393 115, 43.372 115 C 37.210 115, 38.065 103.747, 46.098 79.145 L 49.152 69.791 46.985 67.485 C 44.527 64.867, 44.690 61.350, 47.250 61.785 C 48.172 61.942, 51.247 60.895, 54.084 59.457 L 59.241 56.844 56.241 53.672 C 52.001 49.191, 50.997 46.812, 51.022 41.316 C 51.048 35.674, 53.486 29.795, 57.868 24.803 C 59.591 22.841, 61 21.007, 61 20.727 C 61 20.446, 59.191 19.493, 56.980 18.609 C 51.173 16.285, 44.979 16.540, 40.929 19.269 M 94.385 23.434 C 90.251 25.233, 89.506 28.609, 91.597 36.061 C 92.514 39.328, 93.359 42, 93.475 42 C 93.592 42, 96.345 41.083, 99.593 39.962 C 107.696 37.166, 122.562 34.709, 126.911 35.446 L 130.500 36.054 126.235 34.069 C 121.196 31.724, 120.105 29.646, 122.515 26.984 C 124.633 24.643, 124.418 24.540, 114.308 23.056 C 104.768 21.655, 98.185 21.780, 94.385 23.434 M 168.227 26.258 C 167.026 27.537, 164.029 32.118, 161.567 36.437 C 157.464 43.637, 157.212 44.465, 158.546 46.368 C 160.623 49.334, 160.342 55.410, 157.907 60.182 C 155.008 65.864, 146.947 74.347, 145.665 73.065 C 144.999 72.399, 146.185 70.440, 149.226 67.190 C 151.734 64.508, 154.509 60.916, 155.393 59.207 C 157.042 56.018, 157.626 48, 156.208 48 C 155.039 48, 141 77.577, 141 80.040 C 141 80.452, 145.838 80.788, 151.750 80.786 C 158.679 80.783, 163.996 81.307, 166.708 82.260 L 170.917 83.737 171.455 79.619 C 174.084 59.486, 175.556 31.953, 174.242 27.500 C 173.124 23.712, 171.026 23.279, 168.227 26.258 M 136.046 38.198 C 139.574 41.170, 141 44.524, 141 49.856 C 141 55.323, 139.253 63, 138.008 63 C 136.417 63, 136.361 61.595, 137.721 55.723 C 141.762 38.264, 131.111 34.206, 101.918 42.083 C 94.326 44.131, 94.179 44.231, 93.512 47.834 C 91.474 58.826, 81.057 64.193, 68.722 60.608 C 62.515 58.803, 61.049 58.682, 59.249 59.825 C 58.282 60.439, 58.457 61.571, 60.022 64.810 C 61.136 67.114, 62.395 69, 62.821 69 C 63.248 69, 67.877 71.842, 73.109 75.316 L 82.622 81.632 85.348 76.750 C 87.216 73.403, 88.612 71.970, 89.787 72.195 C 91.199 72.464, 91.552 73.894, 91.793 80.335 L 92.087 88.149 103.485 99.324 C 112.400 108.066, 115.524 111.862, 117.824 116.755 C 119.860 121.086, 120.917 122.470, 121.259 121.255 C 121.531 120.290, 122.690 117.169, 123.835 114.320 L 125.915 109.140 121.600 106.611 C 114.111 102.223, 112.084 96.706, 116.088 91.615 C 118.578 88.449, 122.321 86.405, 130.781 83.590 L 137.061 81.500 143.582 67 C 154.060 43.702, 153.645 44.945, 151.475 43.358 C 149.632 42.010, 141.786 38.876, 137 37.576 C 134.859 36.994, 134.722 37.083, 136.046 38.198 M 78 51 C 71.675 53.741, 66.297 55.987, 66.050 55.992 C 65.802 55.996, 66.076 56.476, 66.658 57.058 C 67.239 57.639, 70.177 58.369, 73.187 58.680 C 80.737 59.459, 87.460 56.536, 89.534 51.573 C 91.161 47.678, 91.378 45.996, 90.250 46.008 C 89.838 46.013, 84.325 48.259, 78 51 M 54.500 64 C 54.840 64.550, 55.568 65, 56.118 65 C 56.668 65, 56.840 64.550, 56.500 64 C 56.160 63.450, 55.432 63, 54.882 63 C 54.332 63, 54.160 63.450, 54.500 64 M 50.420 66.912 C 52.068 68.733, 52 69.292, 49.004 78.645 C 40.370 105.600, 39.739 118.041, 47.472 108.851 C 54.163 100.899, 59 87.111, 59 75.989 L 59 69.399 54.473 67.199 C 48.925 64.504, 48.194 64.452, 50.420 66.912 M 86.816 80 C 85.373 83.205, 85.378 83.610, 86.870 84.803 C 88.284 85.934, 88.542 85.767, 88.818 83.540 C 88.993 82.128, 88.968 79.966, 88.763 78.736 C 88.432 76.747, 88.217 76.886, 86.816 80 M 130.500 86.451 C 116.971 90.508, 113.191 97.228, 121.182 103.017 C 123.481 104.683, 125.784 105.905, 126.299 105.734 C 127.348 105.384, 135.205 87.044, 134.775 85.950 C 134.624 85.566, 132.700 85.792, 130.500 86.451 M 91.473 122.776 C 90.963 142.837, 91.090 157.051, 91.864 166.500 C 93.540 186.946, 93.045 186.275, 100.508 178.214 C 103.960 174.486, 109.195 170.100, 112.142 168.468 C 116.992 165.782, 118.354 165.504, 126.500 165.538 C 134.415 165.571, 137.048 166.098, 148.337 169.907 C 158.517 173.341, 162.159 174.143, 165.935 173.780 C 171.425 173.253, 175.669 170.592, 176.749 167 C 177.162 165.625, 177.482 153.700, 177.461 140.500 C 177.424 117.916, 177.287 116.161, 175.142 110.759 C 173.888 107.601, 171.894 104.338, 170.709 103.509 C 165.615 99.941, 155.313 102.883, 145.445 110.722 L 140.390 114.738 134.275 112.524 L 128.159 110.309 126.080 115.744 C 124.936 118.733, 124 121.737, 124 122.421 C 124 123.104, 126.241 125.116, 128.981 126.891 C 143.320 136.182, 151 145.113, 151 152.497 C 151 164.995, 130.413 166.686, 118.855 155.137 C 115.705 151.990, 113.820 149.049, 112.998 145.998 C 111.419 140.146, 112.358 132.312, 114.971 129.531 C 119.867 124.319, 115.859 115.040, 103.346 102.617 C 99.031 98.333, 94.764 94.428, 93.864 93.940 C 92.373 93.131, 92.161 95.695, 91.473 122.776 M 120 126.306 C 120 127.024, 118.875 129.136, 117.500 131 C 114.615 134.910, 114.118 141.965, 116.352 147.282 C 121.347 159.168, 141.648 164.571, 147.538 155.583 C 148.943 153.438, 149 152.531, 147.935 149.303 C 146.364 144.541, 137.728 135.896, 128.366 129.712 C 120.625 124.600, 120 124.345, 120 126.306" stroke="none" fill="black" fill-rule="evenodd"/>
</svg>