<svg xmlns="http://www.w3.org/2000/svg" width="200" height="200" viewBox="0 0 200 200" version="1.1">
	<path d="M 88.103 15.159 C 38.535 16.964, 30.678 17.451, 30.248 18.750 C 30.018 19.442, 30.652 20.010, 31.667 20.022 C 33.332 20.042, 33.304 20.203, 31.367 21.772 C 26.251 25.916, 25.828 31.142, 29.481 45.053 C 32.382 56.099, 32.631 61.654, 30.369 64.883 C 28.274 67.875, 23.151 70, 18.032 70 C 14.964 70, 14 70.392, 14 71.638 C 14 73.037, 14.811 73.180, 19.586 72.619 C 33.974 70.928, 37.264 64.261, 32.609 46.235 C 30.049 36.323, 29.387 29.761, 30.621 26.545 C 31.503 24.246, 35.884 22.217, 41.594 21.461 C 45.765 20.910, 46.930 21.151, 49.371 23.074 C 54.990 27.500, 56.508 36.789, 53.500 48.339 C 52.675 51.506, 52 54.503, 52 54.998 C 52 55.494, 54.666 56.424, 57.925 57.065 C 61.184 57.706, 65.265 59.091, 66.995 60.143 L 70.140 62.056 67.715 66.278 C 66.381 68.600, 63.634 73.200, 61.609 76.500 C 57.004 84.005, 54.025 93.379, 53.290 102.674 L 52.723 109.848 57.111 110.979 C 70.671 114.474, 75.860 117.716, 74.541 121.870 C 73.472 125.238, 64.918 132.188, 50.307 141.558 C 42.713 146.428, 34.187 152.097, 31.360 154.156 C 26.524 157.679, 26.127 157.798, 24.648 156.164 C 22.167 153.422, 19.999 147.408, 20.006 143.282 C 20.013 137.920, 21.399 133.518, 28.270 117.028 C 33.217 105.153, 34.407 101.200, 34.785 95.379 C 35.329 86.992, 33.435 80.143, 29.153 75.014 C 25.225 70.309, 24.492 72.631, 28.136 78.233 C 33.739 86.846, 33.500 97.248, 27.360 112 C 19.208 131.587, 17.717 136.343, 17.640 143 C 17.559 149.944, 19.736 155.645, 23.908 159.418 C 26.011 161.320, 26.065 161.310, 30.265 158.191 C 32.594 156.460, 41.610 150.471, 50.300 144.880 C 74.274 129.457, 80.302 123.163, 76.565 117.458 C 74.253 113.930, 69.849 111.452, 62.223 109.388 L 55.741 107.633 56.313 101.066 C 57.093 92.127, 60.023 84.198, 66.524 73.433 C 69.536 68.447, 72 63.532, 72 62.512 C 72 59.290, 69.005 57.165, 61.874 55.328 C 57.140 54.108, 55.115 53.142, 55.452 52.263 C 55.723 51.557, 56.456 48.044, 57.081 44.456 C 58.404 36.861, 57.722 30.818, 54.962 25.668 L 52.996 22 55.633 22 C 58.232 22, 83.181 26.878, 83.837 27.514 C 84.023 27.694, 83.640 30.415, 82.987 33.561 C 82.129 37.697, 82.001 46.827, 82.528 66.534 L 83.256 93.787 91.876 90.873 C 101.708 87.550, 111 86.085, 111 87.859 C 111 92.065, 91.260 106.990, 85.666 107.014 C 80.966 107.034, 78 108.053, 78 109.648 C 78 111.919, 80.788 112.370, 86.438 111.015 C 90.805 109.967, 92.204 109.987, 94.604 111.132 C 102.633 114.963, 96.534 125.948, 72.638 150.698 C 56.175 167.750, 53.905 170.696, 56.147 172.104 C 56.891 172.572, 58.400 172.702, 59.500 172.395 C 61.948 171.710, 76.489 164.517, 92.241 156.199 C 110.171 146.732, 114.651 147.695, 115.726 161.250 C 115.998 164.688, 115.703 171.737, 115.070 176.916 C 113.742 187.780, 113.844 187.961, 121.300 187.985 C 127.719 188.005, 131.377 185.920, 134.616 180.392 C 138.935 173.022, 140.056 166.291, 140.050 147.750 C 140.047 138.537, 140.222 131, 140.440 131 C 140.657 131, 142.519 136.063, 144.577 142.250 C 148.777 154.877, 151.763 160.072, 156.502 163.001 C 168.065 170.147, 183.294 157.996, 179.861 144.362 C 177.846 136.360, 169.347 130.131, 155.563 126.553 C 149.321 124.933, 148.040 123.878, 148.015 120.339 C 147.984 115.981, 153.970 112.343, 171.500 106.066 C 186.373 100.741, 185.424 99.623, 165.500 99 C 151.715 98.569, 148.830 98.191, 144.661 96.267 C 142 95.039, 139.982 93.553, 140.178 92.966 C 140.374 92.379, 144.678 90.075, 149.743 87.846 C 160.041 83.316, 167.060 77.762, 170.153 71.701 C 172.686 66.735, 173.608 57.859, 172.141 52.549 C 171.179 49.063, 171.346 47.993, 173.561 43.465 C 180.266 29.760, 176.790 22.012, 163.932 22.004 C 145.657 21.991, 123 37.267, 123 49.600 C 123 55.761, 130.458 62.591, 141.500 66.542 C 144.250 67.526, 146.879 68.658, 147.343 69.059 C 149.119 70.592, 136.623 74.351, 129.500 74.426 C 120.617 74.520, 116.897 72.169, 113.150 64.091 C 110.810 59.045, 110.519 57.061, 110.170 43.750 C 109.873 32.467, 109.475 29, 108.474 29 C 107.755 29, 107.017 29.441, 106.833 29.980 C 106.636 30.560, 103.639 30.127, 99.500 28.923 C 88.716 25.784, 89.218 26.064, 91.441 24.429 C 95.370 21.537, 104.247 23.766, 115.290 30.416 L 120.959 33.830 126.296 30.939 C 129.232 29.349, 134.753 26.869, 138.567 25.428 C 142.380 23.986, 147.863 21.918, 150.750 20.832 C 156.118 18.812, 157.826 15.915, 154.418 14.607 C 152.324 13.803, 117.326 14.095, 88.103 15.159 M 87 18.044 C 58.687 19.210, 57.424 19.289, 60.500 19.709 C 62.150 19.935, 68.553 21.238, 74.729 22.605 L 85.958 25.091 89.066 22.795 C 94.093 19.082, 100.340 19.831, 111.805 25.523 L 121.291 30.232 124.896 28.455 C 126.878 27.479, 133.900 24.522, 140.500 21.885 L 152.500 17.091 128 17.228 C 114.525 17.303, 96.075 17.670, 87 18.044 M 150.160 27.459 C 130.659 34.701, 121.142 47.073, 128.419 55.721 C 131.372 59.231, 139.486 63.314, 148.085 65.619 C 151.613 66.565, 154.850 67.635, 155.279 67.998 C 156.601 69.117, 140.678 75.981, 134.051 77.148 C 123.974 78.923, 116.883 76.070, 112.413 68.442 C 108.653 62.025, 107.869 58.623, 107.154 45.605 L 106.500 33.710 98.500 31.379 C 94.100 30.097, 89.734 29.037, 88.797 29.024 C 85.076 28.972, 84.265 40.610, 85.654 74.096 L 86.300 89.692 93.400 87.441 C 107.753 82.891, 113 83.220, 113 88.670 C 113 91.564, 105.924 98.978, 98.192 104.185 L 92.930 107.728 96.003 109.001 C 107.141 113.615, 100.708 125.956, 71.634 155.750 C 64.523 163.037, 59.334 168.986, 60.102 168.969 C 61.602 168.935, 70.910 164.368, 91.235 153.690 C 104.711 146.611, 109.441 145.519, 113.701 148.503 C 118.003 151.517, 119.520 162.663, 117.734 178.137 C 116.986 184.617, 117.025 184.790, 119.406 185.387 C 123.373 186.383, 129.172 183.879, 131.740 180.063 C 136.688 172.710, 137.517 167.295, 137.297 143.750 C 137.136 126.527, 137.362 122, 138.386 122 C 140.020 122, 141.204 124.585, 146.498 139.713 C 153.020 158.347, 156.066 162.273, 164 162.273 C 174.727 162.273, 181.435 149.016, 175.160 140.219 C 171.971 135.749, 164.012 131.409, 155.185 129.328 C 148.946 127.857, 147.620 127.166, 146.358 124.726 C 142.730 117.709, 147.962 112.117, 164 105.868 C 169.775 103.618, 174.674 101.616, 174.887 101.418 C 175.100 101.220, 170.150 101.324, 163.887 101.649 C 153.131 102.206, 152.131 102.090, 145.842 99.550 C 137.455 96.163, 135.463 94.212, 137.468 91.350 C 138.253 90.229, 141.056 88.501, 143.698 87.510 C 156.602 82.669, 164.933 76.530, 168.134 69.500 C 170.122 65.136, 170.567 56.462, 169.070 51.245 C 168.290 48.526, 168.611 47.076, 171.058 42.252 C 174.738 34.995, 175.021 28.828, 171.777 26.557 C 168.371 24.171, 157.829 24.611, 150.160 27.459" stroke="none" fill="black" fill-rule="evenodd"/>
</svg>