<svg xmlns="http://www.w3.org/2000/svg" width="200" height="200" viewBox="0 0 200 200" version="1.1">
	<path d="M 130 25.879 C 124.197 27.780, 118.993 31.214, 114.735 35.950 L 110.194 41 99.847 40.874 C 90.722 40.762, 89.947 40.622, 93.288 39.688 C 98.035 38.360, 97.885 35.877, 92.994 34.835 C 83.621 32.839, 39.341 27.899, 36.110 28.489 C 31.220 29.383, 24.982 33.150, 22.253 36.858 C 14.155 47.861, 12.777 62.658, 15.139 113.246 C 16.021 132.155, 16.016 140.736, 15.114 149.629 C 14.465 156.030, 14.079 161.412, 14.255 161.589 C 14.734 162.068, 31.851 149.998, 45.500 139.556 C 61.338 127.440, 72.869 119.759, 89.839 110.022 L 103.821 102 112.161 102.004 C 126.190 102.011, 146.133 103.268, 145.293 104.092 C 144.857 104.521, 133.789 106.689, 120.698 108.911 C 93.629 113.506, 89.733 114.412, 87.978 116.526 C 86.961 117.752, 87.020 118.365, 88.294 119.772 C 91.301 123.095, 94.980 132.460, 94.990 136.816 C 95.002 141.958, 93.975 144.121, 88.858 149.728 C 86.736 152.053, 85 154.398, 85 154.939 C 85 157.141, 89.858 160.188, 96.967 162.445 C 101.110 163.760, 103.825 165.053, 103 165.317 C 102.175 165.582, 95.847 167.132, 88.937 168.763 C 70.495 173.116, 65.249 176.151, 70.368 179.505 C 71.635 180.336, 76.386 181.481, 80.925 182.050 C 89.402 183.113, 163.317 184.121, 168.250 183.241 C 169.762 182.971, 171 182.148, 171 181.413 C 171 180.413, 168.665 180.002, 161.761 179.788 C 150.386 179.433, 150.235 179.117, 155.912 167.445 C 162.398 154.111, 161.308 150.533, 150.761 150.533 L 144.789 150.533 148.145 148.060 C 149.990 146.700, 153.890 143.186, 156.810 140.252 C 161.326 135.716, 162.074 134.438, 161.810 131.709 C 161.558 129.097, 160.756 128.128, 157.500 126.501 C 154.028 124.766, 151.653 124.519, 139.505 124.626 L 125.511 124.750 137.005 121.059 C 166.410 111.617, 180.030 100.892, 169.750 95.276 C 164.820 92.582, 134.195 92.894, 111.500 95.869 C 102.150 97.094, 93.656 98.348, 92.625 98.656 C 91.433 99.011, 90.993 98.821, 91.417 98.134 C 92.696 96.065, 105.399 92.962, 122.774 90.475 C 145.953 87.157, 153.387 85.535, 159.811 82.392 C 165.478 79.619, 168.990 75.289, 168.996 71.066 C 169.002 67.238, 165.230 60.412, 159.864 54.541 C 156.874 51.270, 155.364 48.893, 156.019 48.488 C 156.776 48.020, 156.784 47.444, 156.043 46.551 C 155.219 45.559, 156.207 45.155, 160.563 44.706 C 163.629 44.389, 166.782 43.596, 167.569 42.943 C 171.619 39.582, 166.631 33.006, 156.500 28.352 C 151.607 26.104, 148.840 25.546, 141.500 25.328 C 136.550 25.180, 131.375 25.429, 130 25.879 M 133.920 28.063 C 127.775 29.032, 122.323 31.980, 117.547 36.915 L 113.594 41 120.047 41.071 C 123.596 41.110, 130.020 41.462, 134.322 41.854 C 140.454 42.411, 142.309 42.271, 142.907 41.201 C 143.526 40.095, 144.775 40.042, 149.519 40.919 C 156.512 42.212, 162.991 42.292, 164.857 41.110 C 167.276 39.577, 165.051 36.069, 159.730 33.030 C 152.216 28.739, 142.047 26.782, 133.920 28.063 M 30.976 33.250 C 25.463 36.039, 21.687 41.460, 19.310 50 C 17.363 56.991, 17.044 75.567, 17.959 128.500 C 18.188 141.700, 18.026 153.539, 17.601 154.809 C 16.718 157.447, 21.277 154.405, 45 136.530 C 62.566 123.294, 70.790 117.810, 87.096 108.463 C 101.824 100.020, 102.659 99.448, 99 100.303 C 97.625 100.625, 94.165 101.193, 91.312 101.565 C 86.322 102.215, 86.146 102.157, 86.699 100.044 C 88.124 94.595, 97.882 91.116, 120.500 87.992 C 128.750 86.852, 139.100 85.212, 143.500 84.348 C 168.425 79.448, 172.060 71.900, 157.214 55.864 L 151.785 50 144.142 49.941 C 139.939 49.908, 130.698 49.333, 123.606 48.663 L 110.712 47.446 109.489 50.473 C 108.816 52.138, 107.989 54.674, 107.650 56.108 L 107.033 58.716 117.267 59.372 C 136.284 60.590, 141 61.207, 141 62.476 C 141 63.700, 126.328 64.985, 112.250 64.995 C 108.813 64.998, 106 65.354, 106 65.786 C 106 66.219, 110.312 69.204, 115.583 72.421 C 120.853 75.637, 126.478 79.373, 128.083 80.723 C 131.242 83.381, 131.927 86, 129.462 86 C 127.663 86, 113.489 80.563, 103.606 76.081 C 99.814 74.361, 96.547 73.119, 96.346 73.321 C 96.144 73.522, 94.003 77.749, 91.586 82.714 C 84.095 98.106, 77.246 102.646, 71.614 95.953 C 67.725 91.331, 65.870 83.837, 65.274 70.341 L 64.737 58.182 57.618 55 C 53.703 53.250, 50.007 51.612, 49.405 51.361 C 48.638 51.042, 48.100 58.817, 47.607 77.319 C 46.787 108.141, 45.688 120.740, 43.642 122.787 C 42.380 124.049, 42.067 123.995, 41.194 122.363 C 39.343 118.903, 37.029 92.815, 35.405 57.086 C 34.815 44.088, 34.924 41.763, 36.102 42.246 C 36.871 42.561, 39.173 43.534, 41.219 44.410 C 44.458 45.796, 44.863 45.807, 44.362 44.500 C 44.045 43.675, 43.947 42.976, 44.143 42.947 C 44.666 42.869, 55.396 42.087, 63.800 41.515 C 67.815 41.241, 71.959 40.557, 73.010 39.995 C 74.276 39.317, 76.365 39.297, 79.200 39.934 C 82.625 40.703, 83.641 40.606, 84.289 39.448 C 84.735 38.651, 85.865 37.970, 86.800 37.932 C 94.862 37.611, 49.401 31, 39.132 31 C 37.092 31, 33.422 32.013, 30.976 33.250 M 105.750 43.662 C 106.438 43.940, 107.563 43.940, 108.250 43.662 C 108.938 43.385, 108.375 43.158, 107 43.158 C 105.625 43.158, 105.063 43.385, 105.750 43.662 M 55.500 44.747 C 51.650 44.942, 48.087 45.515, 47.582 46.019 C 47.024 46.576, 50.109 48.521, 55.431 50.968 C 60.254 53.186, 64.492 54.999, 64.850 54.998 C 65.207 54.997, 66.228 52.522, 67.119 49.498 L 68.738 44 65.619 44.196 C 63.903 44.304, 59.350 44.552, 55.500 44.747 M 70.605 47.103 C 69.826 48.971, 69.034 51.965, 68.844 53.756 L 68.500 57.012 81.378 63.006 C 88.461 66.303, 94.388 69, 94.550 69 C 94.712 69, 95.356 67.451, 95.981 65.557 C 96.970 62.561, 97.597 62.073, 100.809 61.802 C 103.635 61.563, 102.508 61.177, 96 60.154 C 76.747 57.127, 75.751 52.373, 93.493 48.187 C 100.407 46.556, 101.046 46.229, 98.464 45.648 C 96.834 45.282, 90.217 44.695, 83.760 44.344 L 72.021 43.707 70.605 47.103 M 116.500 44.973 C 124.071 46.293, 149.339 47.198, 145 45.994 C 143.075 45.460, 134.750 44.815, 126.500 44.562 C 116.166 44.244, 113.055 44.372, 116.500 44.973 M 38.364 60.734 C 39.220 79.645, 40.971 104.933, 41.913 112 L 42.646 117.500 43.479 109.500 C 43.937 105.100, 44.355 89.652, 44.406 75.171 L 44.500 48.843 41.098 47.406 L 37.695 45.968 38.364 60.734 M 97.500 49.995 C 93.100 51, 88.150 52.375, 86.500 53.051 L 83.500 54.280 87.867 55.610 C 90.269 56.342, 94.935 57.067, 98.235 57.220 L 104.237 57.500 105.603 53 C 106.355 50.525, 106.976 48.388, 106.985 48.250 C 107.008 47.865, 106.093 48.033, 97.500 49.995 M 68 68.892 C 68 79.076, 69.361 86.750, 72.144 92.250 C 74.679 97.261, 78.600 97.449, 82.563 92.750 C 85.297 89.509, 93 74.579, 93 72.522 C 93 71.925, 87.713 69.009, 81.250 66.042 C 74.787 63.074, 69.162 60.474, 68.750 60.264 C 68.338 60.054, 68 63.936, 68 68.892 M 98.191 67.481 C 97.250 69.545, 97.349 70.115, 98.780 70.876 C 103.054 73.148, 122.303 81.030, 122.673 80.660 C 122.900 80.433, 118.567 77.470, 113.043 74.075 C 107.519 70.681, 103 67.250, 103 66.452 C 103 64.049, 99.404 64.818, 98.191 67.481 M 122.500 97.404 L 112.500 98.534 120.401 99.267 C 124.746 99.670, 131.271 100.027, 134.901 100.060 C 143.006 100.133, 150.741 101.341, 152.156 102.756 C 154.425 105.025, 147.931 107.065, 127.432 110.519 C 105.808 114.163, 91 117.047, 91 117.615 C 91 117.794, 92.369 120.634, 94.042 123.926 C 99.708 135.076, 99.005 142.561, 91.515 150.852 C 89.491 153.092, 88.118 155.382, 88.463 155.940 C 88.962 156.748, 98.065 159.865, 110.750 163.572 C 111.438 163.773, 112 164.544, 112 165.285 C 112 166.156, 109.609 167.089, 105.250 167.919 C 94.850 169.901, 79.020 173.960, 75.062 175.660 C 71.598 177.148, 71.564 177.215, 73.828 178.092 C 77.484 179.508, 105.459 180.993, 128.550 180.996 L 149.600 181 149.600 177.572 C 149.600 175.593, 151.450 170.252, 153.975 164.937 C 158.222 156.001, 158.294 155.687, 156.425 154.275 C 154.534 152.845, 147.179 153.002, 139.750 154.630 C 134.785 155.719, 136.643 152.597, 143.921 147.624 C 152.015 142.094, 159 134.883, 159 132.058 C 159 126.403, 147.490 125.875, 106.750 129.660 C 101.316 130.165, 100 130.013, 100 128.879 C 100 127.892, 103.215 126.814, 110.756 125.273 C 134.338 120.453, 163 109.354, 168.382 102.958 C 171.486 99.269, 171.175 98.421, 166.214 97.043 C 161.458 95.722, 135.478 95.936, 122.500 97.404" stroke="none" fill="black" fill-rule="evenodd"/>
</svg>