<svg xmlns="http://www.w3.org/2000/svg" width="200" height="200" viewBox="0 0 200 200" version="1.1">
	<path d="M 88.197 21.476 C 87.126 22.838, 85.759 25.901, 85.159 28.282 L 84.069 32.611 73.458 32.798 L 62.847 32.984 64.923 29.624 C 67.356 25.688, 67.467 25, 65.666 25 C 64.932 25, 62.229 27.221, 59.659 29.934 L 54.987 34.869 48.244 31.780 C 38.743 27.429, 28.045 26.757, 23 30.193 C 18.424 33.311, 15.287 39.160, 13.349 48.188 C 12.018 54.388, 11.909 59.225, 12.631 80 C 13.099 93.475, 13.487 114.551, 13.491 126.835 L 13.500 149.169 19 148.530 C 27.414 147.553, 34.220 145.347, 38.592 142.180 C 43.592 138.559, 48.250 129.882, 50.432 120.123 C 52.638 110.259, 54.148 84.257, 53.352 69.831 L 52.709 58.162 57.605 60.567 C 60.297 61.890, 67.112 64.174, 72.750 65.644 L 83 68.315 83.011 72.407 C 83.017 74.658, 83.301 78.188, 83.642 80.250 L 84.262 84 78.881 84.015 C 75.921 84.024, 72.854 84.439, 72.064 84.939 C 69.616 86.488, 72.665 88.887, 77.977 89.591 C 84.251 90.424, 84.580 90.703, 85.739 96.185 L 86.730 100.870 80.115 101.519 C 63.753 103.126, 59.956 106.811, 65.145 116.045 L 67.291 119.862 61.810 126.181 C 50.709 138.979, 46.851 146.972, 50.366 149.888 C 51.224 150.601, 55.563 151.433, 60.006 151.738 C 66.732 152.199, 68.265 152.627, 69.157 154.293 C 70.562 156.918, 68.939 162.490, 64.364 170.750 C 62.460 174.188, 61.164 177, 61.484 177 C 62.620 177, 72.567 171.686, 77 168.711 C 79.475 167.050, 85.619 162.377, 90.653 158.327 C 95.688 154.277, 101.198 150.478, 102.897 149.886 C 107.044 148.441, 111.041 150.801, 117.025 158.226 C 121.307 163.540, 121.618 164.356, 122.840 173.457 C 124.603 186.595, 126.037 190.500, 129.101 190.500 C 132.412 190.500, 134.106 184.994, 138.971 158.411 C 141.118 146.677, 143.664 134.263, 144.629 130.825 L 146.383 124.573 147.668 127.721 C 148.374 129.453, 149.710 136.551, 150.636 143.496 L 152.320 156.123 156.228 158.117 C 158.378 159.213, 162.244 160.357, 164.818 160.658 C 168.687 161.110, 169.998 160.811, 172.371 158.934 C 180.400 152.586, 180.642 139.469, 173.475 99.199 L 170.040 79.899 173.270 74.199 C 176.252 68.938, 176.499 67.808, 176.491 59.500 C 176.483 51.532, 176.151 49.869, 173.601 45 C 164.906 28.400, 142.449 16.343, 126.764 19.854 L 121.305 21.075 121.784 28.538 C 122.152 34.277, 121.960 36, 120.949 36 C 120.227 36, 115.666 35.491, 110.815 34.869 L 101.994 33.738 99.335 27.812 C 95.424 19.097, 91.724 16.993, 88.197 21.476 M 89.175 24.704 C 88.567 26.242, 87.780 28.738, 87.426 30.250 L 86.783 33 92.955 33 L 99.127 33 96.313 27.760 C 93.035 21.654, 90.766 20.682, 89.175 24.704 M 125.955 22.650 C 124.702 22.989, 124.487 24.338, 124.821 29.784 C 125.047 33.478, 125.292 36.573, 125.366 36.662 C 125.440 36.751, 130.900 37.798, 137.500 38.989 C 144.100 40.179, 149.725 41.456, 150 41.827 C 150.275 42.197, 150.360 51.162, 150.189 61.750 C 149.919 78.477, 149.672 81, 148.303 81 C 146.910 81, 146.771 78.821, 147.113 62.300 L 147.500 43.601 138 41.851 C 124.005 39.273, 124.777 39.061, 122.721 46.057 C 117.240 64.706, 93.976 69.201, 94.010 51.604 C 94.016 48.306, 94.885 44.642, 96.464 41.250 L 98.908 36 92.602 36 L 86.296 36 85.654 44.250 C 85.301 48.788, 85.009 55.468, 85.006 59.096 L 85 65.692 92.694 67.927 C 106.940 72.067, 114.004 76.942, 116.154 84.121 C 117.439 88.407, 116.257 87.975, 133.500 90.476 C 141.562 91.645, 145.139 92.757, 151.959 96.213 C 156.611 98.571, 160.876 101.275, 161.436 102.222 C 163.549 105.795, 160.794 106.466, 141.201 107.152 C 120.544 107.876, 114.731 108.821, 111.600 111.962 L 109.500 114.070 111.623 117.785 C 112.790 119.828, 116.491 123.848, 119.847 126.719 L 125.948 131.938 122.724 134.343 C 117.599 138.167, 114.969 139.235, 110.818 139.178 C 101.606 139.051, 94.762 130.544, 89.602 112.809 L 87.184 104.500 79.622 104.681 C 66.846 104.988, 63.132 108.727, 68.449 115.932 C 70.585 118.826, 70.776 119.609, 69.671 120.932 C 68.951 121.794, 66.078 125.200, 63.286 128.500 C 57.061 135.861, 52 143.787, 52 146.177 C 52 148.224, 53.824 148.747, 62.780 149.267 C 66.943 149.509, 69.628 150.199, 70.743 151.314 C 72.982 153.554, 72.683 159.668, 70.041 165.639 C 68.905 168.208, 68.128 170.461, 68.313 170.647 C 68.839 171.173, 81.939 162.224, 87.500 157.539 C 90.250 155.222, 94.480 151.903, 96.900 150.163 C 104.873 144.431, 111.508 146.493, 119.840 157.292 C 123.747 162.357, 124.191 163.565, 125.591 172.967 C 126.425 178.570, 127.583 184.357, 128.164 185.827 L 129.221 188.500 130.652 184.500 C 131.440 182.300, 134.088 169.614, 136.538 156.310 C 141.522 129.237, 143.510 122.500, 146.518 122.500 C 149.928 122.500, 150.909 126.038, 154.600 151.652 C 154.971 154.226, 155.787 155.098, 159.047 156.402 C 164.756 158.686, 169.230 158.456, 171.730 155.750 C 177.705 149.282, 177.333 135.628, 170.095 95.771 L 167.057 79.042 170.014 74.271 C 179.188 59.467, 173.098 40.783, 155.387 29.400 C 146.277 23.545, 133.489 20.612, 125.955 22.650 M 27.643 30.990 C 21.662 32.862, 17.989 38.486, 15.938 48.909 C 14.986 53.750, 14.896 61.622, 15.562 81.884 C 16.044 96.523, 16.452 116.972, 16.469 127.327 L 16.500 146.153 20.800 145.508 C 34.046 143.520, 40.124 139.571, 44.316 130.230 C 48.951 119.903, 50.351 108.396, 50.430 80 C 50.516 48.746, 50.075 47.307, 44.221 59.707 C 41.938 64.543, 38.895 72.631, 37.460 77.681 L 34.851 86.862 37.056 97.181 C 39.405 108.170, 40.959 131.259, 39.232 129.500 C 38.692 128.950, 37.096 125.566, 35.685 121.979 C 32.674 114.325, 30.869 101.669, 31.675 93.861 C 32.025 90.470, 31.569 84.579, 30.495 78.613 C 26.546 56.684, 30.791 45.070, 45.432 37.747 L 50.363 35.280 44.892 33.233 C 38.097 30.690, 31.388 29.818, 27.643 30.990 M 65 35.907 C 62.525 36.233, 59.270 37.334, 57.768 38.353 C 54.251 40.739, 50.326 46.965, 51.774 47.860 C 52.359 48.222, 52.986 50.089, 53.169 52.009 C 53.463 55.113, 54.080 55.783, 58.734 58.053 C 63.634 60.443, 81.723 65.623, 82.472 64.851 C 82.659 64.658, 82.967 57.862, 83.156 49.749 L 83.500 34.999 76.500 35.156 C 72.650 35.243, 67.475 35.581, 65 35.907 M 99.123 41.935 C 95.029 51.452, 97.116 60, 103.532 60 C 111.411 60, 118.659 52.615, 121.325 41.870 C 121.970 39.271, 121.890 39.227, 114.448 38.120 C 101.768 36.234, 101.553 36.288, 99.123 41.935 M 44.872 41.263 C 33.941 46.921, 30.533 55.841, 32.502 73.641 L 33.261 80.500 35.629 73.500 C 39.585 61.801, 43.162 54.382, 51.179 41.250 C 52.270 39.462, 52.716 38, 52.169 38 C 51.622 38, 48.339 39.468, 44.872 41.263 M 86.216 76.465 C 86.483 80.628, 86.881 84.193, 87.101 84.385 C 87.320 84.577, 90.313 85.042, 93.750 85.417 C 97.954 85.876, 100 85.748, 100 85.027 C 100 84.438, 98.179 81.980, 95.954 79.565 C 93.388 76.782, 92.313 74.925, 93.016 74.490 C 94.280 73.709, 102 81.381, 102 83.420 C 102 85.560, 104.164 86.702, 109.250 87.246 C 114.586 87.817, 115.087 87.004, 112.494 81.989 C 110.228 77.606, 100.363 72.490, 88.615 69.603 L 85.730 68.894 86.216 76.465 M 98.500 89.956 C 97.400 90.453, 94.536 90.891, 92.136 90.930 L 87.773 91 88.480 95.750 C 88.869 98.362, 89.408 100.725, 89.679 101 C 89.949 101.275, 96.866 101.500, 105.050 101.500 C 117.431 101.500, 120.201 101.228, 121.548 99.880 C 123.041 98.388, 122.923 97.982, 120.042 94.701 C 118.323 92.743, 115.698 90.902, 114.208 90.611 C 108.179 89.431, 100.383 89.106, 98.500 89.956 M 123.554 94.442 C 124.434 95.785, 125.007 97.912, 124.827 99.167 C 124.262 103.112, 120.689 103.969, 104.750 103.985 C 96.638 103.993, 90 104.220, 90 104.488 C 90 104.756, 91.359 109.220, 93.021 114.406 C 98.353 131.052, 105.665 138.675, 113.848 136.116 C 115.856 135.488, 118.359 134.315, 119.409 133.510 C 121.227 132.116, 121.049 131.789, 115.634 126.586 C 112.508 123.582, 109.262 119.479, 108.422 117.468 C 107.036 114.151, 107.046 113.579, 108.525 111.322 C 109.422 109.953, 111.748 108.167, 113.695 107.354 C 117.770 105.652, 134.996 104.040, 149.372 104.016 C 161.041 103.997, 161.092 103.184, 149.751 97.951 C 143.425 95.033, 130.575 92.105, 123.727 92.022 C 122.077 92.001, 122.065 92.169, 123.554 94.442 M 34.663 104.827 C 34.966 108.307, 35.577 112.357, 36.021 113.827 L 36.828 116.500 36.867 114 C 36.889 112.625, 36.278 108.575, 35.509 105 L 34.112 98.500 34.663 104.827" stroke="none" fill="black" fill-rule="evenodd"/>
</svg>