<svg xmlns="http://www.w3.org/2000/svg" width="200" height="200" viewBox="0 0 200 200" version="1.1">
	<path d="M 163 13.704 C 158.695 14.405, 153.844 16.097, 143.120 20.635 L 132.739 25.027 113.620 24.386 C 92.596 23.680, 88.180 24.295, 83.010 28.645 C 77.954 32.900, 76.573 36.534, 76.606 45.500 C 76.622 49.900, 76.951 54.739, 77.337 56.253 C 77.944 58.632, 77.596 59.275, 74.770 60.999 C 65.557 66.616, 62.640 61.994, 60.470 38.340 C 58.906 21.294, 58.528 19.370, 56.227 16.750 C 52.686 12.717, 46.950 16.018, 38.565 26.915 C 33.240 33.835, 28.026 48.451, 27.283 58.538 C 26.834 64.633, 27.184 66.799, 29.900 74.709 C 33.526 85.269, 35.481 101.523, 34.446 112.500 L 33.785 119.500 28.726 123 C 22.237 127.490, 18.086 132.697, 17.342 137.281 C 16.839 140.381, 17.183 141.337, 19.719 143.873 C 26.664 150.818, 39.856 150.285, 55.851 142.414 C 63.325 138.736, 66.932 136.132, 73.828 129.434 C 80.334 123.117, 82.173 120.773, 81.305 119.905 C 80.437 119.037, 79.398 119.293, 77.079 120.944 C 66.757 128.294, 59.982 118.196, 61.330 97.472 C 62.272 82.999, 66.496 72, 71.113 72 C 73.137 72, 77.081 78.241, 79.012 84.500 C 79.691 86.700, 81.119 89.459, 82.185 90.630 C 87.255 96.201, 88.063 108.011, 85.408 137.700 C 82.264 172.854, 85.445 184.690, 97.947 184.363 C 99.993 184.309, 103.324 183.718, 105.350 183.050 L 109.033 181.834 108.394 174.167 C 107.272 160.721, 110.499 151.276, 117.922 146.274 C 120.542 144.508, 122.699 144, 127.583 144 C 134.942 144, 138.467 145.142, 142.250 148.751 C 148.411 154.628, 143.713 161.013, 130.298 164.995 L 122.755 167.234 127.127 171.136 C 151.309 192.713, 164.765 190.262, 170.449 163.244 C 171.245 159.459, 172.625 146.959, 173.514 135.468 C 175.223 113.403, 176.221 106.324, 178.125 102.766 C 179.096 100.952, 178.992 100.412, 177.502 99.543 C 171.530 96.062, 170.495 94.373, 170.637 88.333 C 170.746 83.693, 172.115 79.125, 177.331 66 C 180.937 56.925, 184.322 46.783, 184.854 43.461 C 186.740 31.684, 183.199 22.861, 174.345 17.272 C 168.894 13.831, 166.616 13.115, 163 13.704 M 158 17.705 C 139.747 24.362, 137.032 26.593, 148.664 25.377 C 153.732 24.848, 155.310 24.185, 158.359 21.309 C 160.361 19.420, 162 17.677, 162 17.437 C 162 16.869, 159.907 17.010, 158 17.705 M 161.666 27.750 C 159.089 33.663, 156.970 39.175, 156.959 40 C 156.947 40.825, 155.829 43.300, 154.474 45.500 C 151.392 50.503, 151.395 51.338, 154.500 53 C 156.687 54.170, 157 55.006, 157 59.669 C 157 66.540, 154.816 69, 148.716 69 C 144.578 69, 144.377 69.148, 142.829 73.323 L 141.227 77.646 145.647 78.828 C 148.078 79.478, 150.334 80.706, 150.660 81.556 C 151.593 83.988, 147.174 87.843, 141.345 89.680 L 136.049 91.350 132.524 101.927 C 130.586 107.744, 129 113.118, 129 113.868 C 129 114.646, 130.722 113.677, 133.003 111.616 C 135.204 109.627, 137.724 108, 138.603 108 C 140.135 108, 143.828 111.439, 148.863 117.554 C 151.175 120.361, 151.188 120.495, 149.488 123.651 C 148.533 125.426, 144.659 130.168, 140.880 134.189 C 137.101 138.210, 134.008 141.556, 134.005 141.625 C 134.002 141.694, 135.238 141.998, 136.750 142.301 C 141.294 143.212, 147 148.942, 147.679 153.276 C 148.220 156.730, 147.919 157.387, 144.152 160.970 C 141.567 163.429, 137.982 165.534, 134.517 166.626 C 131.483 167.583, 129.021 168.621, 129.047 168.933 C 129.148 170.143, 139.805 177.985, 144.669 180.428 C 156.698 186.469, 163.456 181.687, 167.362 164.368 C 168.247 160.445, 169.658 148.520, 170.499 137.868 C 172.225 116.007, 172.780 111.094, 174.129 105.754 C 175.011 102.261, 174.845 101.778, 171.665 98.598 C 165.553 92.486, 166.047 87.446, 175.007 64.482 C 183.728 42.131, 184.740 34.170, 179.865 26.282 C 177.720 22.811, 170.133 17, 167.747 17 C 166.933 17, 164.404 21.471, 161.666 27.750 M 45.825 22.756 C 38.997 30.056, 36.395 34.561, 32.978 45 C 29.113 56.806, 28.832 64.251, 31.960 72 C 35.504 80.778, 37 90.996, 37 106.420 L 37 120.663 32.125 123.822 C 24.624 128.682, 19.818 134.481, 20.192 138.219 C 20.824 144.545, 29.792 147.431, 41.359 145.029 C 49.384 143.363, 61.498 137.032, 68 131.104 L 73.500 126.091 70.173 126.045 C 59.050 125.894, 54.701 102.978, 61.492 80.297 C 63.391 73.953, 67.334 69, 70.485 69 C 73.689 69, 78.340 74.617, 80.974 81.668 C 82.172 84.876, 83.776 88.191, 84.538 89.037 C 89.791 94.862, 90.826 106.660, 88.509 134.286 C 86.397 159.454, 86.714 172.113, 89.578 177.018 C 92.128 181.383, 96.443 182.783, 102.114 181.084 L 106.181 179.866 105.520 174.170 C 103.963 160.759, 109.223 147.530, 117.714 143.500 L 121.928 141.500 121.979 135.500 C 122.008 132.200, 122.638 126.923, 123.379 123.774 C 124.633 118.443, 124.600 118.008, 122.899 117.468 C 120.248 116.627, 114.090 109.292, 109.634 101.669 C 105.801 95.111, 105.720 95.045, 99.959 93.912 C 96.764 93.284, 92.667 91.868, 90.855 90.766 L 87.561 88.762 90.530 86.354 C 92.164 85.030, 99.350 81.045, 106.500 77.500 C 119.258 71.174, 132.076 67, 138.743 67 C 141.865 67, 142.288 66.597, 144.555 61.471 C 145.900 58.431, 147 55.506, 147 54.971 C 147 53.291, 138.492 53.913, 131.355 56.115 C 124.334 58.281, 115.497 62.399, 108.807 66.622 C 106.735 67.930, 104.581 69, 104.020 69 C 101.333 69, 103.784 66.605, 112.250 60.957 C 125.108 52.380, 145 37.792, 145 36.940 C 145 35.858, 140.440 35.092, 130 34.419 L 120.500 33.807 108.618 39.460 C 101.594 42.801, 96.074 44.855, 95.118 44.482 C 93.746 43.947, 93.880 43.540, 96 41.802 C 97.375 40.675, 100.975 38.352, 104 36.640 C 107.716 34.536, 108.932 33.418, 107.750 33.190 C 106.787 33.005, 106 32.146, 106 31.282 C 106 29.952, 107.110 29.790, 113.250 30.223 C 117.834 30.546, 121.557 30.286, 123.374 29.516 L 126.249 28.298 123.874 27.663 C 122.568 27.313, 114.750 27.031, 106.500 27.036 C 89.122 27.045, 84.444 28.373, 81.365 34.171 C 79.468 37.743, 78.929 47.813, 80.197 56 C 80.872 60.361, 80.781 60.573, 77.282 62.867 C 75.295 64.169, 72.025 65.455, 70.015 65.725 C 66.848 66.150, 66.006 65.796, 63.718 63.077 C 60.136 58.820, 59.158 54.803, 57.858 39 C 56.023 16.705, 54.017 13.998, 45.825 22.756 M 157.506 25.994 C 155.891 27.778, 154.406 28.004, 144.095 28.035 C 136.209 28.060, 131.709 28.509, 130.026 29.441 C 127.613 30.776, 127.676 30.826, 132.526 31.444 C 135.262 31.793, 140.095 32.660, 143.268 33.371 C 148.048 34.442, 149.364 34.434, 150.952 33.321 C 153.077 31.832, 154.351 32.921, 153.396 35.410 C 153.061 36.284, 153.210 37, 153.729 37 C 154.670 37, 160.299 24.966, 159.658 24.325 C 159.473 24.140, 158.504 24.890, 157.506 25.994 M 148.594 39.896 C 147.717 40.865, 147 42.440, 147 43.396 C 147 44.741, 147.510 44.976, 149.250 44.433 C 151.633 43.689, 152.959 42.241, 152.985 40.357 C 153.011 38.359, 150.248 38.069, 148.594 39.896 M 135.757 47.779 C 131.499 50.842, 128.124 53.458, 128.259 53.592 C 128.393 53.726, 130.963 53.198, 133.969 52.418 C 136.976 51.638, 141.540 51, 144.111 51 C 147.452 51, 148.959 50.548, 149.393 49.418 C 150.262 47.155, 150.269 47.164, 147.290 46.816 C 145.505 46.608, 144.395 45.768, 144.040 44.355 C 143.535 42.349, 143 42.571, 135.757 47.779 M 148.518 59.201 C 147.563 61.566, 146.545 64.093, 146.257 64.818 C 145.866 65.802, 146.718 66.056, 149.617 65.818 L 153.500 65.500 153.500 60.514 C 153.500 53.763, 150.985 53.101, 148.518 59.201 M 135.164 70.219 C 129.165 71.106, 116.095 75.288, 112.118 77.591 C 109.644 79.023, 109.886 79.077, 116.500 78.561 C 120.350 78.260, 126.756 78.011, 130.737 78.007 L 137.973 78 139.510 74.321 C 140.356 72.298, 140.924 70.369, 140.774 70.035 C 140.623 69.702, 138.099 69.784, 135.164 70.219 M 113 81.670 C 111.075 81.862, 108.052 82.258, 106.282 82.549 L 103.064 83.079 105.231 87.539 L 107.399 92 113.257 92 C 120.790 92, 132.749 90.028, 133.854 88.604 C 134.325 87.997, 135.202 86.037, 135.803 84.250 L 136.896 81 126.698 81.160 C 121.089 81.248, 114.925 81.477, 113 81.670 M 138.975 83.565 C 137.885 86.432, 137.731 88, 138.540 88 C 139.152 88, 147.249 83.984, 147.971 83.323 C 148.860 82.509, 145.499 81.031, 142.725 81.015 C 140.659 81.004, 139.701 81.655, 138.975 83.565 M 95.530 86.413 L 91.560 88.816 97.354 90.501 C 100.541 91.427, 103.359 91.974, 103.617 91.716 C 104.176 91.157, 100.878 83.998, 100.065 84.005 C 99.754 84.008, 97.713 85.092, 95.530 86.413 M 123.500 94.057 C 121.300 94.512, 117.100 94.911, 114.167 94.942 L 108.835 95 111.835 100.196 C 115.466 106.485, 122.651 115, 124.327 115 C 125.310 115, 128.455 106.408, 131.740 94.750 C 132.294 92.786, 130.413 92.628, 123.500 94.057 M 134.485 113.779 C 132.827 115.276, 130.444 117.175, 129.191 118 C 127.376 119.194, 126.616 121.201, 125.461 127.847 C 123.317 140.189, 124.528 142.847, 130.813 139.597 C 133.784 138.060, 142.560 129.139, 145.458 124.709 C 147.548 121.513, 146.993 119.522, 142.534 114.223 C 139.255 110.326, 138.366 110.277, 134.485 113.779" stroke="none" fill="black" fill-rule="evenodd"/>
</svg>