<svg xmlns="http://www.w3.org/2000/svg" width="200" height="200" viewBox="0 0 200 200" version="1.1">
	<path d="M 122 19.347 C 122 23.403, 121.714 28.809, 121.364 31.360 L 120.728 36 109.329 36 C 98.369 36, 97.970 35.926, 98.965 34.066 C 102.241 27.943, 98.703 26.382, 86.173 28.420 C 80.853 29.286, 69.116 30.676, 60.091 31.511 C 35.802 33.756, 26.446 36.736, 18.799 44.664 C 12.723 50.963, 10.655 56.852, 10.188 69.184 C 9.874 77.465, 10.283 82.378, 12.006 91.032 C 13.899 100.535, 14.131 104.004, 13.568 114.348 C 11.735 148.012, 20.157 160.350, 38.590 151.004 C 44.152 148.183, 60.116 136.807, 71.985 127.205 C 74.905 124.843, 78.015 123.058, 78.897 123.240 C 81.479 123.771, 80.404 131.453, 75.399 148.231 C 67.959 173.169, 66.668 180.642, 69.035 185.066 C 71.824 190.276, 83.963 184.581, 90.982 174.770 C 95.080 169.042, 100.848 164.374, 106.500 162.213 C 110.159 160.814, 126.292 158.008, 130.703 158.003 C 133.563 158, 134.131 158.508, 136.004 162.741 C 139.413 170.449, 144.105 177.063, 148.337 180.129 C 156.081 185.739, 165.997 183.038, 169.636 174.329 C 172.861 166.611, 169.927 159.267, 161.992 155.195 C 158.003 153.148, 156.380 152.930, 147.500 153.241 L 137.500 153.591 144.002 147.018 C 148.750 142.217, 151.702 138.016, 154.949 131.439 C 158.151 124.954, 160.424 121.701, 163.070 119.817 C 168.264 116.119, 172.094 110.718, 172.694 106.247 C 173.061 103.506, 172.293 99.777, 169.986 93.114 C 165.982 81.551, 166.216 76.989, 171.231 68.787 C 176.011 60.971, 177.509 53.076, 175.497 46.300 C 172.446 36.029, 161.574 28.902, 125.250 13.363 L 122 11.973 122 19.347 M 124.642 20.750 C 124.301 22.813, 124.017 27.039, 124.011 30.143 C 123.999 36.512, 124.528 37, 131.445 37 C 136.485 37, 145.386 38.553, 149.178 40.095 C 157.871 43.628, 149.575 49.146, 129.750 53.019 L 124 54.142 124 58.571 C 124 61.007, 124.238 63, 124.529 63 C 124.819 63, 127.833 61.599, 131.226 59.886 C 142.882 54.002, 148 53.050, 148 56.767 C 148 57.621, 145.391 60.929, 142.202 64.118 L 136.405 69.915 142.452 70.208 C 147.832 70.468, 148.535 70.745, 148.816 72.720 C 149.170 75.215, 143.561 79.276, 131.646 85.152 C 122.584 89.621, 122.745 91.429, 132.121 90.488 C 137.844 89.913, 139.155 90.035, 138.798 91.107 C 138.553 91.841, 136.586 92.790, 134.426 93.216 C 124.786 95.120, 125.628 93.978, 126.351 104.168 C 127.157 115.522, 129.560 131.083, 132.115 141.500 C 134.927 152.961, 134.532 152.406, 138.039 149.813 C 142.637 146.414, 148.329 138.521, 153.050 129 C 155.368 124.325, 157.993 120.079, 158.882 119.564 C 159.772 119.049, 162.441 116.796, 164.812 114.558 C 170.892 108.821, 171.291 104.900, 167.003 93.008 C 162.865 81.533, 163.121 76.846, 168.344 68.383 C 172.943 60.933, 174.713 53.143, 173.121 47.358 C 171.689 42.154, 165.694 36.041, 157.594 31.527 C 151.479 28.119, 127.267 17, 125.959 17 C 125.576 17, 124.983 18.688, 124.642 20.750 M 84.500 31.513 C 80.650 32.222, 73.225 33.110, 68 33.488 C 35.573 35.833, 22.954 40.301, 16.803 51.615 C 11.595 61.195, 11.135 77.050, 15.568 94.236 C 16.713 98.674, 16.906 103.313, 16.421 114.736 C 15.183 143.905, 19.887 154.346, 32.549 150.535 C 37.787 148.959, 47.474 142.822, 59.299 133.590 C 77.167 119.639, 79.148 118.548, 81.800 121.200 C 84.222 123.622, 82.990 131.947, 77.356 151.205 C 73.050 165.927, 71.687 172.159, 71.606 177.500 C 71.502 184.342, 71.555 184.494, 73.926 184.231 C 78.112 183.766, 84.689 178.807, 89.036 172.838 C 96.198 163.002, 105.031 158.389, 120.373 156.473 C 126.269 155.736, 127.017 155.089, 124.445 152.954 C 122.083 150.994, 115.228 139.027, 113.409 133.686 C 111.685 128.628, 112.637 125.540, 115.573 126.666 C 118.191 127.671, 117.441 114.210, 114.436 106.273 C 112.124 100.162, 111.996 99.122, 113.135 95.633 C 113.983 93.037, 115.647 90.938, 118.199 89.250 C 121.357 87.160, 122 86.161, 122 83.348 C 122 80.277, 121.778 80.018, 119.609 80.562 C 118.294 80.892, 116.912 80.667, 116.539 80.063 C 115.810 78.883, 119.404 72.365, 121.095 71.802 C 121.656 71.615, 121.811 70.671, 121.440 69.705 C 120.937 68.393, 120.437 68.222, 119.464 69.030 C 118.449 69.872, 117.427 68.609, 114.831 63.305 L 111.500 56.500 102.447 55.494 C 92.995 54.444, 88 52.294, 88 49.274 C 88 48.064, 86.909 48.660, 84.103 51.400 L 80.205 55.205 84.045 59.045 C 93.348 68.348, 91.210 78.818, 78.754 84.949 C 75.236 86.681, 71.040 88.246, 69.429 88.427 C 66.695 88.733, 66.506 89.032, 66.589 92.917 C 66.745 100.168, 69.639 100.412, 76.664 93.768 C 79.917 90.690, 83.330 90.680, 80.799 93.756 C 78.089 97.048, 71.589 101, 68.885 101 C 65.189 101, 64 98.608, 64 91.171 C 64 83.985, 66.949 73.974, 71.857 64.500 C 73.852 60.650, 75.623 57.205, 75.794 56.844 C 75.964 56.483, 73.815 55.697, 71.018 55.097 C 60.738 52.893, 47.972 58.427, 41.759 67.782 C 39.312 71.465, 39.296 71.638, 40.070 86 C 41.323 109.275, 41.213 121.237, 39.750 120.753 C 38.181 120.234, 37.512 112.430, 36.016 77.154 C 34.913 51.148, 35.148 42.645, 36.999 41.501 C 38.357 40.661, 64.483 38.018, 79.747 37.176 C 92.144 36.492, 94.186 36.137, 95.466 34.445 C 99.005 29.764, 96.964 29.218, 84.500 31.513 M 75.500 40.059 C 62.665 40.957, 43.487 42.859, 40.250 43.555 C 38.074 44.022, 38 44.419, 38 55.634 L 38 67.229 44.399 61.243 C 53.474 52.754, 63.325 50.018, 74.067 53.002 C 77.560 53.972, 77.771 53.860, 84.317 47.567 C 91.414 40.744, 92.379 38.911, 88.750 39.145 C 87.513 39.224, 81.550 39.636, 75.500 40.059 M 94.012 40.977 C 93.169 42.553, 93.242 42.844, 94.372 42.411 C 97.352 41.267, 103.882 44.080, 108.167 48.353 C 112.169 52.344, 112.824 52.640, 116.750 52.232 L 121 51.790 121 45.395 L 121 39 108.035 39 C 96.143 39, 94.983 39.164, 94.012 40.977 M 124 44.920 C 124 49.121, 124.386 50.998, 125.250 50.993 C 127.630 50.980, 142.997 47.028, 146.724 45.471 C 149.668 44.241, 150.150 43.709, 148.984 42.980 C 147.074 41.787, 139.318 40.300, 130.750 39.484 L 124 38.841 124 44.920 M 92.250 45.612 C 90.309 46.473, 90.777 49.810, 93.006 51.003 C 95.973 52.591, 108 53.548, 108 52.195 C 108 48.745, 96.254 43.835, 92.250 45.612 M 114 55.340 C 114 56.712, 119.794 65.872, 120.326 65.341 C 120.697 64.970, 121 62.492, 121 59.833 L 121 55 117.500 55 C 115.575 55, 114 55.153, 114 55.340 M 133.750 61.680 C 125.504 65.595, 124 66.671, 124 68.655 C 124 70.656, 124.499 71, 127.406 71 C 130.251 71, 132.022 69.853, 138.156 64.042 C 142.195 60.215, 145.050 57.077, 144.500 57.068 C 143.950 57.059, 139.113 59.135, 133.750 61.680 M 74.738 64.721 C 71.952 70.054, 67 83.421, 67 85.605 C 67 86.766, 71.221 85.657, 76.734 83.049 C 83.616 79.794, 86.990 75.634, 86.996 70.398 C 87 67.006, 83.717 61.502, 80.389 59.323 C 78.385 58.011, 78.101 58.282, 74.738 64.721 M 128.241 75.777 C 125.783 77.831, 124.984 79.299, 124.991 81.750 C 124.996 83.537, 125.292 85, 125.649 85 C 126.577 85, 142.115 76.426, 144.500 74.597 C 146.351 73.178, 145.943 73.063, 139 73.059 C 132.297 73.054, 131.154 73.343, 128.241 75.777 M 119.557 91.582 C 118.491 92.362, 118.041 92.993, 118.559 92.985 C 119.941 92.962, 122.520 91.186, 121.969 90.636 C 121.710 90.376, 120.624 90.802, 119.557 91.582 M 117.750 96.162 C 114.397 97.387, 114.388 97.743, 117.483 106.500 C 121.097 116.723, 120.619 130.893, 116.684 130.206 C 114.376 129.803, 114.495 130.328, 118.571 138.579 C 122.472 146.472, 128.333 154, 130.578 154 C 132.403 154, 132.425 154.248, 129.553 142.500 C 126.867 131.512, 124.433 116.018, 123.388 103.250 C 122.681 94.622, 122.521 94.420, 117.750 96.162 M 142.500 155.694 C 140.300 155.936, 138.112 156.514, 137.637 156.980 C 136.439 158.154, 141.327 168.473, 145.484 173.546 C 152.220 181.766, 159.329 182.806, 164.958 176.395 C 170.534 170.044, 168.377 160.717, 160.582 157.476 C 156.916 155.952, 148.081 155.082, 142.500 155.694" stroke="none" fill="black" fill-rule="evenodd"/>
</svg>