<svg xmlns="http://www.w3.org/2000/svg" width="200" height="200" viewBox="0 0 200 200" version="1.1">
	<path d="M 102.477 19.097 C 89.068 26.545, 74.443 36.055, 66.764 42.320 C 63.609 44.894, 60.797 47, 60.514 47 C 60.231 47, 60 43.386, 60 38.968 C 60 29.855, 58.518 25.339, 54.486 22.168 C 44.810 14.557, 27.267 29.660, 18.982 52.734 C 17.194 57.715, 16.954 59.523, 17.791 61.734 C 19.547 66.375, 19.836 68.634, 21.980 94.500 C 24.443 124.209, 27.022 140.714, 30.597 149.650 L 33.221 156.210 31.015 159.193 C 21.413 172.181, 19.581 175.416, 19.882 178.858 C 20.089 181.243, 24.248 179.362, 40.381 169.588 C 57.084 159.468, 64.720 156.036, 72.307 155.239 C 76.490 154.800, 77.464 155.071, 79.817 157.325 C 81.604 159.037, 82.979 159.631, 83.873 159.079 C 84.914 158.435, 84.395 157.363, 81.612 154.413 C 79.626 152.307, 78 150.015, 78 149.320 C 78 147.676, 91.734 138.026, 99.790 134.011 C 103.439 132.192, 107.218 131.006, 108.790 131.187 C 111.115 131.456, 111.543 132.017, 111.804 135.138 C 112.194 139.814, 108.600 148.675, 102.467 158.160 C 95.594 168.789, 91.292 173.711, 88.210 174.474 C 84.469 175.399, 74.019 180.663, 71.053 183.115 C 69.035 184.785, 68.860 185.299, 70.053 186.054 C 74.465 188.845, 82.004 186.080, 89.543 178.905 C 95.657 173.086, 108.504 172.722, 137.500 177.544 C 160.721 181.405, 170.268 179.958, 179.329 171.201 C 186.266 164.497, 186.210 164.422, 174.172 164.433 C 161.896 164.444, 156.964 162.766, 154.335 157.681 C 152.005 153.176, 153.046 146.727, 158.903 129.383 C 164.960 111.449, 165.380 106.550, 161.250 102.005 C 157.108 97.445, 149.147 96.228, 141.363 98.964 C 138.176 100.084, 135.097 101, 134.519 101 C 133.815 101, 133.695 98.282, 134.155 92.750 C 134.532 88.213, 134.877 82.931, 134.920 81.013 L 135 77.527 138.425 82.612 C 142.731 89.007, 150.096 95.546, 154.703 97.067 C 159.260 98.571, 166.072 97.787, 169.297 95.386 C 177.428 89.334, 176.775 79.472, 167.814 72.980 C 165.250 71.123, 164.340 70, 165.400 70 C 171.346 70, 176.544 63.106, 175.343 56.812 C 173.964 49.584, 167.984 40.453, 161.600 35.826 C 153.996 30.316, 149 33.033, 149 42.677 C 149 48.663, 150.156 48.097, 134.026 50 C 121.901 51.431, 117 51.310, 117 49.582 C 117 48.802, 116.754 47.523, 116.454 46.741 C 116.087 45.785, 118.466 43.652, 123.704 40.238 C 134.589 33.143, 138.234 29.178, 137.823 24.877 C 137.540 21.920, 136.842 21.167, 132.205 18.816 C 129.293 17.340, 124.449 15.825, 121.442 15.449 C 118.434 15.074, 115.728 14.369, 115.428 13.883 C 114.555 12.471, 114.017 12.687, 102.477 19.097 M 115.694 17.876 C 115.546 18.219, 115.593 23.774, 115.798 30.220 L 116.171 41.940 121.929 38.220 C 132.977 31.083, 137.289 26.258, 135.040 23.548 C 132.871 20.935, 116.450 16.120, 115.694 17.876 M 99 24.174 C 74.927 38.150, 59.395 50.217, 58.359 55.750 L 57.750 59 66.785 59 C 75.750 59, 75.858 58.970, 80.666 55.170 C 89.434 48.239, 103.276 31.514, 110.393 19.250 C 111.637 17.106, 109.826 17.888, 99 24.174 M 110.605 24.078 C 106.085 31.761, 93.405 47.381, 86.776 53.431 L 79.579 60 83.539 60.062 C 85.718 60.096, 93.463 60.893, 100.750 61.834 L 114 63.543 114 58.835 C 114 54.287, 113.893 54.116, 110.851 53.813 C 109.119 53.641, 107.206 52.687, 106.601 51.693 C 105.678 50.178, 106.153 49.288, 109.538 46.193 L 113.576 42.500 113.038 31.679 L 112.500 20.857 110.605 24.078 M 40.790 25.918 C 34.881 29.666, 29.110 37.354, 23.964 48.336 L 19.877 57.058 21.415 64.279 C 22.262 68.251, 23.870 82.750, 24.989 96.500 C 27.723 130.087, 29.485 140.098, 35.034 153.560 C 36.243 156.493, 36.066 156.930, 30.806 164.060 C 24.679 172.364, 22.529 176, 23.746 176 C 24.195 176, 30.173 172.558, 37.031 168.350 C 51.119 159.707, 61.841 154.308, 66.744 153.388 C 71.601 152.477, 73.683 148.175, 71.693 143.160 C 64.065 123.923, 69.819 89.946, 83.165 75.423 C 89.309 68.736, 94.607 66.760, 100.441 68.977 L 103.012 69.955 97.611 76.945 C 91.266 85.156, 87.904 91.681, 87.780 96.019 C 87.710 98.506, 88.632 100, 92.346 103.409 C 96.547 107.266, 96.998 108.111, 96.978 112.091 C 96.951 117.604, 94.558 122.928, 87.518 133.149 C 84.483 137.555, 82 141.295, 82 141.461 C 82 141.627, 85.635 139.372, 90.077 136.449 C 97.869 131.323, 105.381 128, 109.178 128 C 110.180 128, 111.956 128.956, 113.125 130.125 C 114.919 131.919, 115.158 133.017, 114.664 137.187 C 113.920 143.467, 108.589 154.576, 101.729 164.136 L 96.379 171.593 107.940 171.658 C 115.588 171.701, 124.732 172.616, 134.958 174.361 C 143.461 175.813, 152.941 177, 156.027 177 C 163.713 177, 171.486 174.498, 175.644 170.686 L 179.119 167.500 172.310 167.372 C 158.798 167.118, 151.717 163.015, 150.490 154.732 C 149.706 149.440, 150.746 144.859, 156.446 128.500 C 161.947 112.707, 162.450 106.285, 158.430 103.123 C 154.157 99.763, 147.849 99.398, 140.029 102.061 L 133.233 104.374 132.051 113.437 C 129.786 130.802, 127.167 138.045, 123.640 136.692 C 120.531 135.499, 117.699 117.246, 115.697 85.512 L 114.500 66.524 109.529 65.813 C 90.303 63.065, 75.100 61.876, 73.072 62.962 C 70.443 64.369, 61.916 64.543, 59.362 63.242 C 58.243 62.672, 56.209 62.644, 54.263 63.172 C 48.512 64.733, 48.563 70.851, 54.433 83.852 C 59.912 95.987, 59.147 103.234, 51.385 112.705 C 46.937 118.134, 34.399 128.365, 33.145 127.589 C 32.633 127.273, 33.720 123.524, 35.561 119.257 C 40.677 107.400, 42.058 100.827, 42.863 84.500 C 43.415 73.333, 44.044 68.670, 45.328 66.250 C 46.276 64.463, 47.406 63, 47.840 63 C 48.274 63, 49.398 61.538, 50.338 59.750 C 51.277 57.962, 53.093 55.071, 54.372 53.325 C 58.848 47.218, 58.511 30.302, 53.814 25.302 C 50.845 22.141, 46.415 22.351, 40.790 25.918 M 151.956 38.615 C 151.409 40.054, 151.242 43.343, 151.584 45.924 L 152.207 50.617 137.353 52.318 C 129.184 53.254, 121.263 54.015, 119.750 54.010 C 117.124 54, 117 54.220, 117 58.883 C 117 65.267, 119.481 66.277, 123.326 61.459 L 125.941 58.180 137.715 62.242 C 147.083 65.474, 151.362 66.402, 158.658 66.784 C 167.580 67.251, 167.900 67.191, 170.530 64.561 C 172.878 62.213, 173.149 61.330, 172.590 57.837 C 171.653 51.979, 168.476 46.381, 162.957 40.861 C 157.249 35.154, 153.559 34.400, 151.956 38.615 M 110.500 49 C 108.733 50.952, 108.753 51, 111.345 51 C 113.333 51, 114 50.498, 114 49 C 114 47.900, 113.620 47, 113.155 47 C 112.690 47, 111.495 47.900, 110.500 49 M 53.500 59 C 53.160 59.550, 53.359 60, 53.941 60 C 54.523 60, 55 59.550, 55 59 C 55 58.450, 54.802 58, 54.559 58 C 54.316 58, 53.840 58.450, 53.500 59 M 125.001 62.997 C 124.112 64.660, 124.406 64.986, 127.284 65.525 C 129.101 65.866, 132.340 66, 134.482 65.823 L 138.375 65.500 132.199 63.295 C 126.162 61.139, 126 61.132, 125.001 62.997 M 117.100 68.250 C 117.155 68.938, 117.560 70.625, 118 72 C 118.736 74.299, 118.809 74.326, 118.900 72.332 C 118.955 71.139, 119.273 69.452, 119.607 68.582 C 120.005 67.544, 119.662 67, 118.607 67 C 117.723 67, 117.045 67.563, 117.100 68.250 M 122.219 69.750 C 121.823 70.713, 121.500 75.775, 121.500 81 C 121.500 91.575, 123.558 97.422, 128.090 99.724 C 130.471 100.933, 130.508 100.879, 131.141 95.224 C 131.494 92.076, 131.832 85.101, 131.891 79.725 C 131.998 70.110, 131.958 69.935, 129.435 68.975 C 125.597 67.516, 123.022 67.792, 122.219 69.750 M 135 69.969 C 135 72.615, 141.305 82.874, 145.624 87.254 C 153.031 94.767, 160.398 96.914, 167.020 93.490 C 170.668 91.603, 172 89.175, 172 84.411 C 172 79.036, 166.410 73.941, 157.887 71.546 C 149.591 69.216, 135 68.210, 135 69.969 M 46.091 79.178 C 45.966 92.456, 44.388 102.989, 41.067 112.715 C 37.799 122.288, 38.478 122.418, 46.649 113.778 C 56.173 103.708, 57.584 97.204, 52.569 86.500 C 51.023 83.200, 48.953 78.025, 47.970 75 L 46.182 69.500 46.091 79.178 M 91.374 71.985 C 85.066 74.533, 76.939 87.759, 73.545 101 C 70.930 111.205, 70.417 126.292, 72.387 135.092 C 73.299 139.166, 74.376 143.024, 74.779 143.665 C 75.716 145.153, 86.734 130.736, 91.040 122.387 C 92.773 119.027, 94.237 114.607, 94.295 112.563 C 94.386 109.355, 93.759 108.259, 89.700 104.533 C 85.751 100.906, 85 99.635, 85 96.576 C 85 91.842, 86.979 87.240, 92.277 79.657 C 98.551 70.676, 98.421 70.992, 95.809 71.063 C 94.539 71.098, 92.543 71.513, 91.374 71.985 M 119.010 94.593 C 119.026 99.496, 121.865 123.277, 123.123 129.051 L 124.311 134.500 125.693 131.166 C 127.084 127.808, 130.003 110.643, 129.971 106 C 129.959 104.194, 129.071 103.065, 126.772 101.932 C 124.894 101.006, 122.648 98.584, 121.294 96.024 C 119.093 91.861, 119 91.803, 119.010 94.593 M 79.650 181.115 C 73.512 184.282, 72.362 186.195, 78.142 183.623 C 81.180 182.271, 87.214 178.008, 86 178.070 C 85.725 178.085, 82.867 179.455, 79.650 181.115" stroke="none" fill="black" fill-rule="evenodd"/>
</svg>