<svg xmlns="http://www.w3.org/2000/svg" width="200" height="200" viewBox="0 0 200 200" version="1.1">
	<path d="M 105.223 12.671 C 103.856 13.221, 100.588 19.143, 98.450 24.945 L 97.141 28.500 97.048 25.500 C 96.934 21.803, 94.591 18.780, 90 16.407 C 86.337 14.514, 85.945 14.498, 53 14.942 C 38.134 15.143, 33.879 16.092, 22.625 21.715 C 17.770 24.142, 16.063 25.463, 16.814 26.214 C 17.565 26.965, 19.721 26.813, 24.155 25.696 C 33.190 23.420, 33.403 23.731, 32.570 37.974 C 31.818 50.834, 29.478 68.324, 28.205 70.598 C 27.497 71.863, 26.977 71.769, 24.687 69.969 C 21.621 67.557, 21.607 67.575, 23.123 71.922 C 23.740 73.694, 25.268 75.532, 26.517 76.007 C 27.861 76.517, 29.891 79.121, 31.483 82.376 C 33.627 86.758, 34.176 89.310, 34.176 94.881 C 34.176 103.433, 32.592 109.068, 25.367 126.218 C 16.528 147.198, 16.840 154, 26.641 154 C 36.315 154, 64.999 138.921, 76.750 127.657 C 83.546 121.143, 81.735 117.779, 72.663 120.063 C 69.371 120.892, 68.292 121.598, 68.699 122.659 C 69.031 123.523, 69.917 123.860, 70.879 123.487 C 71.771 123.142, 73.850 122.606, 75.500 122.295 L 78.500 121.730 75 125.448 C 64.743 136.345, 30.760 153.646, 23.893 151.466 C 20.293 150.324, 21.724 141.750, 27.967 127.053 C 34.645 111.332, 37.001 103.095, 36.994 95.503 C 36.988 88.086, 35.719 83.339, 32.461 78.538 C 30.242 75.268, 30.073 74.412, 31 71.169 C 32.734 65.110, 34.957 48.004, 35.052 40 C 35.195 27.873, 35.063 27.900, 46.750 37.627 C 56.142 45.445, 57 46.450, 57 49.629 C 57 51.538, 57.687 54.427, 58.526 56.050 C 59.921 58.749, 60.499 59, 65.303 59 C 70.719 59, 75 60.971, 75 63.464 C 75 64.206, 71.999 68.343, 68.331 72.657 C 55.119 88.195, 51.510 96.146, 52.186 108.235 C 52.641 116.386, 56.244 126.156, 58.107 124.293 C 58.858 123.542, 58.738 122.388, 57.699 120.365 C 55.062 115.228, 53.870 106.958, 54.948 101.272 C 56.686 92.111, 60.560 85.842, 74.890 69 L 77.868 65.500 81.684 69.904 C 86.967 76.001, 87.109 76.341, 86.185 80.665 C 85.128 85.613, 86.662 91.551, 93.581 109.298 C 96.555 116.926, 99.666 125.782, 100.494 128.978 C 104.871 145.869, 99.689 156.354, 83.146 164.083 C 62.835 173.571, 53.686 179.187, 54.225 181.837 C 55.496 188.093, 95.990 174.816, 113.076 162.541 L 117.794 159.152 120.147 161.659 C 124.192 165.969, 134.230 171.963, 140.855 174.023 C 147.772 176.175, 157.370 176.581, 163.177 174.967 C 173.858 172.001, 182 161.880, 182 151.570 L 182 146.368 166.082 146.434 C 151.419 146.495, 149.940 146.334, 147.332 144.400 C 143.286 141.400, 143.027 135.861, 146.592 128.580 C 149.067 123.526, 152.304 119.028, 170.750 95.014 C 174.188 90.538, 176.972 86.567, 176.937 86.188 C 176.795 84.638, 163.752 74.342, 159.296 72.263 C 153.582 69.598, 150.937 69.461, 146.428 71.601 C 141.322 74.024, 137.618 80.649, 132.035 97.343 C 126.176 114.861, 123.581 119.951, 119.517 121.901 C 116.665 123.270, 116.506 123.199, 112.750 118.901 C 104.859 109.872, 99.093 100.095, 96.404 91.184 C 94.962 86.408, 92.931 81.096, 91.890 79.380 L 89.998 76.261 94.275 75.063 C 96.672 74.392, 103.320 70.380, 109.405 65.933 C 123.918 55.325, 127.025 55.447, 129.452 66.718 C 130.021 69.363, 130.735 70.047, 133.452 70.557 C 143.743 72.488, 171.982 58.638, 178.052 48.683 C 180.506 44.657, 180.491 44.400, 177.634 41.543 C 175.979 39.888, 173.582 38.967, 169.656 38.476 C 164.044 37.775, 164.043 37.775, 161.611 32.462 C 157.532 23.552, 147.122 14, 141.490 14 C 138.210 14, 133.950 17.177, 131.935 21.127 C 129.345 26.204, 127.040 36.807, 127.017 43.750 C 127.008 46.638, 126.587 49, 126.082 49 C 124.324 49, 121.129 42.422, 116.923 30.142 C 114.595 23.346, 111.595 16.483, 110.256 14.892 C 107.764 11.931, 107.431 11.784, 105.223 12.671 M 104.017 18.966 C 101.208 24.473, 97.585 37.613, 93.599 56.750 C 90.850 69.947, 90.483 73, 91.647 73 C 94.197 73, 101.025 68.995, 109.501 62.528 C 123.411 51.915, 128.091 52.676, 132.384 66.250 C 134.607 73.282, 170.481 57.312, 176.117 46.781 C 177.873 43.500, 175.164 41.816, 167.213 41.247 C 161.117 40.811, 160.311 40.525, 160.725 38.942 C 161.931 34.333, 149.631 18.949, 143.513 17.414 C 135.817 15.482, 131.426 23.851, 129.427 44.264 C 129.062 47.984, 128.401 51.252, 127.957 51.527 C 126.311 52.544, 122.189 49.681, 120.210 46.147 C 119.087 44.141, 116.350 37.220, 114.128 30.767 C 108.028 13.049, 107.406 12.323, 104.017 18.966 M 40.500 17.681 C 36.676 18.540, 31.868 20.201, 32.212 20.545 C 32.402 20.735, 35.695 20.056, 39.529 19.036 C 45.520 17.441, 46.279 16.383, 40.500 17.681 M 62 17.616 C 54.514 18.946, 54.792 18.703, 56.667 22.273 C 57.743 24.321, 58.570 28.990, 58.931 35.058 L 59.500 44.616 66 50.672 C 73.233 57.410, 77.198 59.474, 76.298 56.032 C 75.894 54.487, 77.468 52.187, 82.702 46.677 C 91.020 37.920, 94.248 31.870, 93.810 25.859 C 93.543 22.191, 93.013 21.314, 90 19.554 C 87.114 17.868, 84.570 17.480, 75.500 17.340 C 69.450 17.248, 63.375 17.372, 62 17.616 M 44.500 20.692 C 37.845 22.222, 35 23.169, 35 23.854 C 35 24.522, 49.412 36.690, 55.253 40.953 C 57.208 42.380, 57.230 42.272, 56.504 34.953 C 56.097 30.854, 55.093 25.813, 54.273 23.750 C 52.973 20.479, 52.382 20.015, 49.641 20.116 C 47.914 20.180, 45.600 20.439, 44.500 20.692 M 92.603 39.095 C 91.617 40.764, 88.079 45.050, 84.740 48.619 L 78.669 55.109 80.406 60.618 C 81.361 63.649, 83.388 67.522, 84.910 69.225 L 87.677 72.322 88.902 65.911 C 89.576 62.385, 91.256 54.395, 92.635 48.155 C 94.014 41.915, 94.975 36.641, 94.769 36.436 C 94.563 36.230, 93.588 37.427, 92.603 39.095 M 60 51.429 C 60 54.628, 62.430 56.962, 65.049 56.277 C 67.023 55.761, 66.961 55.555, 63.870 52.366 C 62.076 50.515, 60.471 49, 60.304 49 C 60.137 49, 60 50.093, 60 51.429 M 146.332 74.939 C 142.449 77.307, 138.492 85.362, 134.022 100 C 130.411 111.825, 125.803 121.252, 122.630 123.305 C 117.334 126.732, 115.657 126.319, 110.473 120.315 C 102.016 110.519, 97.380 102.652, 93.988 92.339 C 90.418 81.487, 89.499 79.854, 88.583 82.740 C 87.846 85.062, 90.750 94.829, 96.243 108.500 C 104.513 129.081, 106.251 138.185, 103.632 147.193 C 101.234 155.443, 95.714 161.094, 85.175 166.090 C 72.121 172.278, 64.883 176.077, 61 178.777 L 57.500 181.211 62 180.658 C 73.873 179.200, 106.171 165.454, 113.694 158.658 L 117.671 155.065 121.085 158.596 C 136.111 174.133, 160.614 177.968, 172.869 166.701 C 176.142 163.692, 178.952 157.275, 178.978 152.746 L 179 148.991 167.734 149.635 C 140.368 151.198, 134.204 141.864, 148.316 120.236 C 150.734 116.531, 156.881 108.325, 161.976 102 C 174.545 86.399, 174.410 86.789, 168.938 81.968 C 163.602 77.266, 155.565 72.999, 152.054 73.004 C 150.649 73.006, 148.074 73.877, 146.332 74.939" stroke="none" fill="black" fill-rule="evenodd"/>
</svg>