<svg xmlns="http://www.w3.org/2000/svg" width="200" height="200" viewBox="0 0 200 200" version="1.1">
	<path d="M 102.829 10.504 C 102.552 10.781, 99.665 11.477, 96.413 12.050 C 87.721 13.581, 57.725 20.933, 56.122 21.924 C 54.371 23.007, 55.546 25, 57.937 25 C 58.937 25, 60.298 25.655, 60.962 26.454 C 62 27.705, 61.702 27.775, 58.841 26.954 C 52.809 25.224, 39.977 25.828, 35 28.077 C 26.071 32.110, 19.617 40.694, 16.492 52.693 C 14.763 59.332, 14.515 77.416, 16.025 86.724 C 16.789 91.429, 16.665 95.773, 15.518 104.525 C 13.746 118.040, 13.558 132.867, 15.088 138.378 C 16.557 143.668, 20.082 147.001, 24.205 146.997 C 26.017 146.995, 32.675 145.383, 39 143.415 C 49.539 140.135, 51.273 139.873, 59.750 140.279 L 69 140.721 69 134.671 C 69 131.344, 69.717 117.119, 70.593 103.061 C 71.468 89.002, 72.022 70.038, 71.822 60.917 L 71.459 44.334 75.979 45.736 C 78.466 46.507, 82.275 47.247, 84.444 47.380 C 87.836 47.587, 88.494 48.015, 89.141 50.435 C 89.748 52.704, 88.935 55.158, 84.944 63.112 C 79.195 74.569, 75 86.419, 75 91.204 C 75 100.775, 84.419 102.877, 101.293 97.071 L 106.626 95.236 110.083 97.868 L 113.541 100.500 108.331 105.500 C 105.149 108.554, 102.221 110.500, 100.810 110.500 C 94.705 110.500, 75.901 161.500, 78.373 171.352 C 79.481 175.763, 83.161 174.856, 88.195 168.933 C 93.088 163.175, 96.572 161, 100.903 161 C 104.869 161, 108.026 162.446, 116.816 168.288 C 126.466 174.701, 129.318 175.677, 132.441 173.631 C 136.285 171.112, 137.449 163.165, 136.266 147.500 C 135.726 140.350, 135.365 134.393, 135.464 134.261 C 135.563 134.130, 137.122 137.820, 138.927 142.461 C 145.532 159.442, 155.663 173, 161.746 173 C 168.130 173, 171.420 167.674, 171.318 157.500 C 171.199 145.579, 165.738 135.169, 155.843 128.002 L 152.069 125.267 157.784 124.610 C 165.182 123.760, 173.311 119.770, 176.702 115.325 C 180.422 110.448, 181.061 101.999, 178.142 96.279 C 172.200 84.631, 157.475 79.396, 141.969 83.418 C 138.963 84.198, 136.391 84.725, 136.255 84.588 C 136.119 84.452, 139.943 82.862, 144.754 81.055 C 156.557 76.620, 164.078 72.547, 168.077 68.421 C 171.005 65.399, 171.447 64.235, 171.747 58.743 C 171.934 55.309, 171.505 46.945, 170.794 40.155 L 169.500 27.811 166 26.509 C 157.148 23.218, 145.324 17.453, 143.029 15.310 C 138.820 11.380, 132.052 10, 116.985 10 C 109.477 10, 103.107 10.227, 102.829 10.504 M 102.466 13.932 C 95.024 15.716, 95.410 16.880, 103.250 16.292 C 110.510 15.748, 111 15.837, 111 17.697 C 111 19.676, 116.648 25.418, 130.729 37.754 C 134.656 41.194, 138.160 44.928, 138.517 46.052 C 140.071 50.951, 134.656 52.119, 121.868 49.642 L 115.236 48.358 119.123 53.275 C 123.648 59, 124.689 62.192, 123.139 65.594 C 121.758 68.626, 119.108 69.666, 106.722 72.041 C 101.345 73.072, 96.507 74.186, 95.972 74.517 C 93.757 75.886, 95.202 80.008, 99.618 84.920 C 106.400 92.463, 106.749 92.551, 115.060 88.835 C 120.739 86.296, 122.564 85.871, 123.981 86.756 C 125.590 87.761, 125.805 87.359, 126.198 82.623 C 126.510 78.861, 128.642 73.008, 133.732 61.938 C 137.636 53.447, 141.503 44.855, 142.325 42.845 C 144.713 37.002, 146.171 28.429, 145.440 24.529 C 144.613 20.123, 142.486 18.895, 129.776 15.490 C 120.418 12.983, 109.116 12.338, 102.466 13.932 M 75.686 19.311 C 68.638 21.065, 62.788 22.736, 62.686 23.024 C 62.584 23.313, 63.417 24.715, 64.538 26.140 L 66.576 28.731 73.038 24.822 C 76.592 22.672, 81.975 20.208, 85 19.346 C 90.889 17.668, 93.724 15.959, 90.450 16.061 C 89.377 16.094, 82.734 17.557, 75.686 19.311 M 95.165 19.717 C 93.673 20.001, 92.320 21.384, 91.415 23.549 C 89.675 27.713, 89.643 39.386, 91.349 47.500 L 92.611 53.500 86.881 65.500 C 80.097 79.708, 78 85.708, 78 90.913 C 78 97.755, 82.774 99.211, 95.040 96.109 C 99.592 94.958, 103.527 93.806, 103.784 93.549 C 104.041 93.292, 102.778 91.842, 100.977 90.327 C 96.108 86.230, 92 80.074, 92 76.873 C 92 72.813, 94.974 71.304, 107.394 69.065 C 113.306 67.998, 118.786 66.593, 119.572 65.941 C 122.810 63.253, 120.991 58.918, 113.235 50.846 C 110.776 48.286, 109.030 45.760, 109.356 45.232 C 109.720 44.643, 113.333 44.986, 118.724 46.120 C 128.260 48.126, 136 48.549, 136 47.064 C 136 46.550, 132.512 43.062, 128.250 39.314 C 123.987 35.566, 117.435 29.462, 113.689 25.750 C 107.132 19.252, 106.703 19.005, 102.189 19.136 C 99.610 19.211, 96.449 19.472, 95.165 19.717 M 83.699 22.536 C 78.927 24.287, 70 29.112, 70 29.940 C 70 30.433, 75.786 33.603, 86.116 38.769 C 86.455 38.939, 86.964 35.797, 87.247 31.789 C 87.531 27.780, 88.089 23.712, 88.488 22.750 C 89.340 20.696, 88.780 20.671, 83.699 22.536 M 148.133 28.086 C 148.096 35.830, 146.467 40.743, 137.315 60.719 C 130.794 74.951, 127.655 84, 129.238 84 C 131.216 84, 157.966 72.589, 161.888 70.072 C 168.690 65.707, 169.441 63.391, 168.635 49.276 C 167.501 29.409, 168.152 30.825, 157.966 26.093 C 153.121 23.842, 148.933 22, 148.660 22 C 148.386 22, 148.149 24.739, 148.133 28.086 M 42.500 28.625 C 29.824 31.829, 22.426 39.788, 18.915 54 C 17.319 60.458, 17.249 79.044, 18.790 87.052 C 19.600 91.260, 19.521 95.131, 18.461 103.052 C 16.412 118.372, 16.547 135.587, 18.752 140 C 21.149 144.799, 24.558 144.945, 37.827 140.819 C 46.485 138.127, 50.152 137.500, 57.248 137.500 L 65.996 137.500 66.026 134 C 66.042 132.075, 66.705 120.375, 67.500 108 C 68.998 84.676, 69.437 53.280, 68.358 46.750 C 67.742 43.024, 67.708 43, 62.941 43 C 57.109 43, 55.755 44.191, 51.588 52.983 C 48.577 59.337, 48.498 59.875, 48.434 74.500 C 48.397 82.862, 47.955 89.625, 47.434 89.783 C 46.920 89.939, 46.022 86.339, 45.438 81.783 L 44.376 73.500 43.438 79.500 C 42.058 88.328, 42.228 113.630, 43.677 115.078 C 44.579 115.980, 45.018 114.592, 45.556 109.127 C 46.209 102.504, 47.062 100.673, 48.449 102.918 C 49.267 104.241, 47.154 118.109, 45.906 119.613 C 45.327 120.311, 44.233 120.643, 43.475 120.352 C 40.591 119.245, 39.498 112.789, 39.606 97.500 C 39.720 81.339, 40.754 75.041, 46.147 57.684 C 49.051 48.335, 49.744 47.126, 56.631 39.384 L 64.006 31.096 60.253 30.055 C 55.651 28.778, 45.218 27.938, 42.500 28.625 M 69.358 36.041 C 69.711 37.806, 70 39.631, 70 40.096 C 70 41.407, 83.809 45.289, 85.764 44.527 C 87.309 43.926, 87.225 43.627, 85 41.813 C 83.625 40.691, 79.399 38.212, 75.608 36.303 L 68.716 32.832 69.358 36.041 M 62.158 37 L 59.940 40 63.470 40 C 67.052 40, 67.708 39.009, 66.393 35.582 C 65.524 33.317, 64.670 33.602, 62.158 37 M 130.134 86.632 C 128.282 87.440, 127.002 88.336, 127.289 88.623 C 127.576 88.910, 129.541 88.232, 131.656 87.116 C 136.088 84.778, 135.102 84.464, 130.134 86.632 M 143.500 85.731 C 139.094 86.830, 131 90.191, 131 90.921 C 131 91.791, 145.705 101.823, 150.750 104.394 C 154.136 106.121, 155.064 108, 152.531 108 C 151.723 108, 149.266 107.064, 147.071 105.920 C 137.347 100.852, 123.780 99.555, 116.246 102.975 C 111.312 105.214, 107.610 108.905, 104.816 114.369 C 102.841 118.233, 101.554 118.275, 100.789 114.500 C 100.492 113.033, 99.433 114.366, 96.817 119.500 C 87.755 137.283, 77.922 171, 81.797 171 C 82.236 171, 85.115 168.329, 88.196 165.064 C 97.078 155.654, 102.821 155.746, 117.688 165.538 C 132.362 175.202, 133.500 174.523, 133.500 156.096 C 133.500 149.168, 132.871 137.995, 132.102 131.266 C 130.516 117.386, 130.522 117.659, 131.793 117.236 C 132.312 117.063, 134.628 122.451, 136.939 129.211 C 145.219 153.419, 155.434 170, 162.070 170 C 167.951 170, 170.500 160.444, 167.538 149.501 C 164.553 138.475, 156.766 129.839, 146.750 126.448 C 139.012 123.828, 140.479 122, 150.318 122 C 161.322 122, 168.073 119.927, 172.949 115.051 C 177.713 110.287, 178.897 105.082, 176.513 99.377 C 172.697 90.242, 163.788 84.954, 152.500 85.126 C 148.650 85.184, 144.600 85.456, 143.500 85.731 M 115.231 91.658 L 109.963 94.149 112.186 95.949 C 114.361 97.711, 114.523 97.673, 119.743 94.207 C 123.506 91.709, 124.698 90.425, 123.789 89.848 C 121.961 88.689, 121.147 88.861, 115.231 91.658 M 122.390 95.616 C 120.250 97.054, 118.426 98.292, 118.336 98.366 C 118.245 98.440, 122.183 98.500, 127.086 98.500 C 131.989 98.500, 136.001 98.447, 136 98.383 C 135.999 97.951, 127.868 93, 127.161 93 C 126.676 93, 124.529 94.177, 122.390 95.616" stroke="none" fill="black" fill-rule="evenodd"/>
</svg>