<svg xmlns="http://www.w3.org/2000/svg" width="200" height="200" viewBox="0 0 200 200" version="1.1">
	<path d="M 44.476 13.437 C 40.067 15.298, 38.838 19.007, 37.948 33.142 C 37.340 42.787, 36.663 46.741, 35.090 49.824 C 32.511 54.879, 32.024 55.166, 25.367 55.563 C 18.330 55.983, 16 56.767, 16 58.715 C 16 60.080, 17.137 60.208, 24.370 59.652 C 31.819 59.079, 33.023 59.230, 35.298 61.020 C 41.268 65.716, 41.620 80.804, 36.037 92.734 C 31.683 102.040, 30.561 103.113, 25.964 102.378 C 23.903 102.049, 21.496 102.183, 20.615 102.676 C 19.195 103.471, 19.179 103.810, 20.476 105.662 C 22.401 108.411, 25.290 109.081, 28.357 107.490 C 33.824 104.654, 37.653 111.731, 36.703 122.913 C 35.674 135.015, 26.795 158.038, 17.632 172.361 C 13.378 179.012, 13.847 181, 19.672 181 C 28.472 181, 35.469 173.175, 52.982 143.750 C 56.501 137.838, 59.745 133, 60.190 133 C 60.636 133, 61 134.600, 61 136.555 C 61 143.113, 73.347 158.319, 79.705 159.591 C 86.552 160.960, 90.391 152.043, 87.979 140.369 C 85.012 126.009, 76.688 116.105, 64.543 112.484 L 60.587 111.305 68.700 108.176 C 93.248 98.709, 111.487 103.913, 111.287 120.326 C 111.208 126.865, 106.027 137.002, 96.890 148.500 C 82.006 167.228, 75.278 179.741, 79.268 181.273 C 81.673 182.195, 89.805 177.784, 100.556 169.724 C 113.236 160.219, 120.160 152.722, 126.500 141.633 C 135.959 125.088, 137.503 122.657, 138.500 122.732 C 140.248 122.862, 142.062 130.036, 144.571 146.743 C 147.327 165.092, 148.887 169.885, 153.312 173.609 C 156.032 175.897, 157.094 176.161, 162.121 175.798 C 179.284 174.556, 189.436 151.716, 175.284 146.182 C 173.753 145.583, 170.628 144.616, 168.341 144.033 C 165.076 143.200, 162.581 141.270, 156.741 135.063 C 142.583 120.012, 141.984 111.988, 154.577 106.069 C 156.955 104.951, 165.505 102.383, 173.577 100.362 C 187.699 96.827, 188.151 96.635, 185.555 95.275 C 180.848 92.808, 173.838 91.069, 162 89.429 C 155.675 88.553, 149.079 87.167, 147.342 86.348 C 141.383 83.539, 140.737 77.492, 144.944 63.901 L 146.987 57.302 157.375 56.714 C 181.323 55.358, 180.779 48.377, 156 39.081 L 145.500 35.142 144.960 27.715 C 143.813 11.955, 135.590 9.245, 123.114 20.516 C 112.708 29.917, 100.268 55.414, 107.427 52.666 C 108.418 52.286, 109.569 53.966, 111.297 58.313 C 118.137 75.515, 117.554 92.807, 110 96.791 C 108.308 97.683, 105.156 97.955, 100.250 97.632 C 94.578 97.258, 93 97.450, 93 98.511 C 93 99.257, 94.237 100.055, 95.750 100.284 C 97.263 100.513, 94.965 100.768, 90.644 100.850 C 86.324 100.933, 80.034 101.714, 76.666 102.586 C 68.714 104.647, 55 110.929, 55 112.510 C 55 113.238, 57.105 114.022, 60.145 114.425 C 74.143 116.282, 84.414 128.478, 85.604 144.656 C 86.799 160.893, 78.023 160.851, 67.250 144.569 C 65.463 141.868, 64 138.355, 64 136.763 C 64 133.241, 62.389 130, 60.639 130 C 58.451 130, 55.453 133.992, 47.494 147.500 C 36.853 165.562, 29.981 174.347, 24.366 177.065 C 18.389 179.958, 16.948 178.627, 20.303 173.312 C 31.801 155.098, 40.987 127.934, 39.512 116.511 C 38.871 111.549, 35.927 105.476, 33.821 104.774 C 33.146 104.549, 33.681 102.874, 35.203 100.453 C 39.298 93.936, 42.161 84.964, 42.733 76.847 C 43.193 70.321, 42.951 68.529, 41.087 64.680 C 39.885 62.197, 37.783 59.433, 36.416 58.537 C 33.937 56.912, 33.935 56.900, 35.812 54.204 C 38.946 49.701, 40.045 45.018, 40.669 33.500 C 41.626 15.822, 43.782 13.172, 54.473 16.535 L 60 18.274 60 23.669 C 60 33.786, 63.263 37.877, 76.161 43.933 C 82.016 46.682, 90.011 53.513, 89.995 55.753 C 89.992 56.164, 87.178 56.517, 83.743 56.538 C 75.922 56.586, 69.872 59.672, 65.561 65.813 C 62.990 69.474, 62.476 71.245, 62.159 77.525 C 61.850 83.650, 62.172 85.723, 64.029 89.560 C 66.491 94.647, 70.952 97.990, 75.282 97.996 C 79.032 98.001, 84.886 95.461, 85.638 93.502 C 86.583 91.039, 85.221 90.490, 83.047 92.458 C 81.966 93.436, 79.059 94.464, 76.588 94.743 C 72.614 95.191, 71.759 94.912, 69.174 92.328 C 63.064 86.218, 63.050 72.430, 69.146 65.486 C 73.420 60.619, 79.517 58.572, 87.518 59.319 C 91.585 59.699, 94 59.551, 94 58.923 C 94 56.600, 89.858 50.082, 86.517 47.149 C 84.536 45.410, 79.666 42.445, 75.695 40.561 C 65.239 35.599, 63.716 33.634, 63.048 24.248 L 62.500 16.555 58 14.922 C 51.073 12.408, 47.771 12.045, 44.476 13.437 M 130.866 17.988 C 125.498 20.854, 116.746 31.069, 112.513 39.410 L 108.796 46.733 112.308 54.116 C 119.247 68.705, 120.938 86.510, 116.125 94.298 C 113.498 98.548, 108.655 100.997, 102.849 101.010 L 98.500 101.020 103.599 103.394 C 111.236 106.950, 113.500 110.747, 113.500 120 C 113.500 129.576, 111.650 133.449, 99.353 149.616 C 88.387 164.034, 81 175.235, 81 177.445 C 81 179.804, 86.533 176.740, 98.610 167.695 C 114.194 156.023, 118.795 150.627, 128.526 132.616 C 131.166 127.730, 134.351 122.555, 135.603 121.116 C 140.599 115.373, 143.803 122.514, 147.594 147.837 C 150.529 167.450, 152.278 171.478, 158.706 173.435 C 168.237 176.337, 183.524 160.027, 178.483 152.334 C 176.648 149.533, 171.409 147, 167.451 147 C 164.033 147, 148.305 131.407, 145.194 124.934 C 138.929 111.899, 145.413 104.375, 167.500 99.049 C 172.450 97.855, 177.175 96.625, 178 96.316 C 180.255 95.470, 175.335 94.245, 160.558 91.970 C 153.439 90.874, 146.583 89.302, 145.322 88.475 C 138.941 84.295, 138.112 76.795, 142.454 62.558 L 145.064 54 154.282 53.976 C 162.861 53.954, 170.402 52.932, 171.722 51.612 C 173.570 49.764, 166.252 45.693, 151.816 40.539 L 142.661 37.270 142.402 29.469 C 142.005 17.514, 138.426 13.952, 130.866 17.988 M 24.813 105.683 C 25.534 105.972, 26.397 105.936, 26.729 105.604 C 27.061 105.272, 26.471 105.036, 25.417 105.079 C 24.252 105.127, 24.015 105.364, 24.813 105.683" stroke="none" fill="black" fill-rule="evenodd"/>
</svg>