<svg xmlns="http://www.w3.org/2000/svg" width="200" height="200" viewBox="0 0 200 200" version="1.1">
	<path d="M 38.633 11.044 C 31.827 12.757, 28.223 15.009, 26.508 18.624 C 24.495 22.867, 24.933 25.235, 30.122 38.151 C 32.255 43.458, 34 49.135, 34 50.766 C 34 54.688, 30.941 58.406, 26.131 60.331 C 22.616 61.738, 22.091 62.424, 20.890 67.197 C 20.155 70.114, 19.608 76.550, 19.673 81.500 C 19.797 90.831, 21.166 97.155, 28.440 122 C 36.081 148.098, 33.881 161.294, 19.254 177.093 C 12.896 183.959, 12.987 187.319, 19.367 181.265 C 31.735 169.526, 41.978 164.651, 61 161.447 C 76.348 158.862, 78.557 156.455, 77.727 143.217 C 77.426 138.423, 76.020 130.131, 74.604 124.791 L 72.028 115.081 75.879 107.291 C 77.997 103.006, 79.942 98.825, 80.200 98 C 80.459 97.175, 80.979 101.225, 81.356 107 C 83.420 138.593, 94.107 160.893, 102.947 152.053 C 104.018 150.982, 105.546 148.845, 106.343 147.303 C 108.887 142.380, 112.235 130.011, 111.733 127.385 C 111.467 125.990, 111.566 125.220, 111.953 125.674 C 118.553 133.405, 119.807 135.757, 120.477 141.664 L 121.176 147.828 109.901 153.595 C 84.576 166.549, 73.501 176.959, 81.720 180.084 C 87.176 182.158, 103.725 176.715, 116.172 168.753 C 119.206 166.812, 124.920 162.443, 128.870 159.043 L 136.052 152.861 143.276 159.566 C 156.317 171.671, 172.844 181.997, 179.179 181.999 C 182.264 182, 185 179.675, 185 177.051 C 185 173.930, 182.054 167.776, 176.754 159.825 L 171.638 152.150 165.820 151.125 C 162.620 150.561, 159.214 149.641, 158.251 149.081 C 156.721 148.190, 156.816 148.054, 159 148.008 C 162.457 147.936, 169.057 144.746, 171.701 141.869 C 178.352 134.635, 180.597 119.414, 177.575 102.046 C 175.619 90.806, 169.619 72.191, 166.444 67.512 L 164.181 64.178 166.723 61.839 C 170.868 58.024, 172.954 52.290, 172.978 44.644 C 173.015 32.965, 169.259 21.781, 162.844 14.476 C 158.739 9.800, 154.628 9.915, 151.349 14.798 C 150.131 16.612, 148.967 18.599, 148.762 19.214 C 148.500 20, 143.492 19.544, 131.945 17.685 C 98.489 12.297, 84.901 10.864, 63.500 10.464 C 51.731 10.244, 40.800 10.499, 38.633 11.044 M 43.634 13.077 C 26.935 15.361, 25.021 19.533, 32.653 37.014 C 38.951 51.440, 37.665 58.356, 27.881 62.673 C 24.269 64.266, 24.080 64.599, 22.938 71.368 C 20.948 83.166, 22.292 91.871, 29.994 117.052 C 37.007 139.984, 37.393 152.974, 31.411 164.765 C 30.089 167.369, 29.006 169.526, 29.004 169.558 C 29.002 169.590, 32.492 167.881, 36.759 165.760 C 42.386 162.964, 47.951 161.230, 57.009 159.449 C 63.879 158.099, 70.516 156.467, 71.758 155.824 C 76.766 153.228, 76.683 143.958, 71.475 124.206 L 69.024 114.912 73.396 106.206 C 78.050 96.936, 81.986 85.499, 82.021 81.145 C 82.033 79.690, 80.345 74.806, 78.271 70.290 L 74.500 62.080 68.321 62.040 L 62.142 62 61.095 67.250 C 60.519 70.138, 59.123 78.034, 57.992 84.797 C 55.654 98.782, 53.143 106.307, 48.415 113.500 C 42.947 121.817, 41.239 123.631, 40.019 122.415 C 39.234 121.633, 39.486 120.033, 40.921 116.684 C 45.923 105.015, 47.331 94.667, 45.860 80.386 C 45.230 74.273, 45.016 68.071, 45.384 66.605 C 46.190 63.395, 51.358 60.015, 55.500 59.988 C 59.197 59.965, 60.533 59.134, 61.413 56.311 C 61.913 54.708, 61.571 53.841, 60.137 53.074 C 59.060 52.497, 57.181 50.410, 55.960 48.436 C 52.794 43.312, 53.573 34.084, 58.002 24.250 C 59.798 20.262, 61.580 17, 61.962 17 C 62.344 17, 63.196 19.338, 63.856 22.196 C 64.516 25.054, 66.181 31.081, 67.556 35.590 L 70.057 43.789 77.573 39.899 C 81.707 37.760, 86.873 35.724, 89.053 35.375 C 92.180 34.876, 93.654 33.876, 96.031 30.643 C 100.133 25.065, 106.012 21.335, 112.815 19.994 C 115.942 19.378, 118.926 18.760, 119.447 18.621 C 120.454 18.353, 108.167 16.726, 88.500 14.524 C 71.480 12.618, 51.664 11.979, 43.634 13.077 M 155.346 13.820 C 154.770 14.194, 153.736 15.570, 153.046 16.877 C 152.056 18.756, 152.051 19.414, 153.025 20.015 C 154.949 21.205, 153.178 23, 150.081 23 C 148.540 23, 145.125 23.295, 142.493 23.656 C 138.226 24.241, 137.902 24.455, 139.507 25.629 C 141.089 26.786, 141.117 27.018, 139.736 27.548 C 138.872 27.879, 136.935 27.506, 135.432 26.718 C 132.395 25.127, 127.394 26.131, 120.852 29.643 C 117.748 31.310, 117.668 31.469, 119.778 31.795 C 121.031 31.988, 126.361 36.306, 131.622 41.391 C 139.335 48.846, 141.120 51.106, 140.843 53.068 C 139.807 60.410, 120.353 52.578, 114.401 42.422 C 113.081 40.168, 112 37.554, 112 36.612 C 112 35.114, 111.219 34.977, 105.750 35.509 C 95.679 36.488, 95.230 36.676, 94.450 40.227 C 92.261 50.196, 95.050 60.938, 99.864 61.074 C 101.314 61.115, 108.728 61.694, 116.339 62.359 C 129.427 63.504, 130.349 63.466, 133.339 61.645 C 136.366 59.801, 136.761 59.789, 142.664 61.360 C 146.054 62.262, 151.551 63, 154.879 63 C 160.199 63, 161.350 62.631, 164.404 59.950 C 166.315 58.273, 168.420 55.257, 169.083 53.248 C 171.517 45.874, 169.715 31.292, 165.286 22.513 C 162.441 16.874, 157.413 12.476, 155.346 13.820 M 122.269 19.693 C 123.242 19.947, 124.592 19.930, 125.269 19.656 C 125.946 19.382, 125.150 19.175, 123.500 19.195 C 121.850 19.215, 121.296 19.439, 122.269 19.693 M 128.500 21 C 129.600 21.473, 132.075 21.846, 134 21.830 C 137.182 21.803, 137.273 21.728, 135 21 C 133.625 20.560, 131.150 20.186, 129.500 20.170 C 126.953 20.145, 126.802 20.270, 128.500 21 M 110.764 22.996 C 106.535 24.269, 101.241 27.852, 99.057 30.920 L 97.078 33.699 102.289 33.305 C 111.203 32.630, 113.668 32.024, 115.434 30.073 C 116.374 29.035, 119.473 27.157, 122.321 25.901 L 127.500 23.617 124.500 22.927 C 120.369 21.976, 114.044 22.008, 110.764 22.996 M 59.615 27.500 C 57.363 32.657, 56.135 39.207, 56.762 42.725 C 57.268 45.569, 61.498 52, 62.863 52 C 63.281 52, 64.627 50.643, 65.854 48.984 L 68.084 45.968 65.145 36.734 C 63.529 31.655, 62.016 26.600, 61.784 25.500 C 61.447 23.906, 61.007 24.312, 59.615 27.500 M 115 36.550 C 115 39.268, 117.895 43.818, 121.256 46.382 C 124.813 49.095, 134.751 53.975, 136.750 53.990 C 140.258 54.018, 136.061 48.326, 126.627 40.264 C 120.350 34.900, 115 33.191, 115 36.550 M 83.813 39.926 C 77.396 42.435, 72 45.892, 72 47.493 C 72 48.224, 72.962 51.337, 74.139 54.411 L 76.278 60 83.557 60 C 87.561 60, 91.536 60.268, 92.390 60.596 C 93.785 61.132, 93.781 60.712, 92.345 56.498 C 91.226 53.215, 90.894 49.729, 91.239 44.902 C 91.805 36.988, 91.630 36.870, 83.813 39.926 M 67.018 51.966 C 66.124 53.636, 66.419 54.165, 68.983 55.491 C 72.424 57.271, 72.364 57.343, 70.902 53.149 C 69.638 49.521, 68.510 49.178, 67.018 51.966 M 64 58 C 64 58.550, 65.237 58.993, 66.750 58.985 C 68.893 58.973, 69.169 58.755, 68 58 C 66.043 56.736, 64 56.736, 64 58 M 54.157 62.995 C 52.319 63.430, 50.294 64.308, 49.657 64.946 C 48.862 65.744, 48.498 72.107, 48.495 85.303 C 48.491 101.031, 48.182 105.268, 46.789 108.750 C 45.854 111.088, 45.286 113, 45.528 113 C 46.423 113, 50.875 103.234, 52.386 97.957 C 53.588 93.755, 59 64.696, 59 62.439 C 59 61.912, 58.490 61.971, 54.157 62.995 M 82.636 67.669 C 83.936 70.238, 85 73.367, 85 74.624 L 85 76.909 87.414 74.495 C 90.519 71.390, 94.153 70.509, 98.132 71.896 C 99.873 72.503, 105.856 73, 111.425 73 C 124.547 73, 137.398 74.640, 142.719 76.994 C 147.383 79.057, 150.990 83.923, 150.996 88.158 C 150.998 89.619, 152.154 93.039, 153.564 95.757 C 157.643 103.620, 158.682 112.139, 156.755 121.923 C 155.869 126.417, 153.758 133.058, 152.062 136.681 C 148.129 145.087, 148.892 146.523, 156.802 145.593 C 163.311 144.828, 166.923 143.068, 170.356 138.988 C 178.965 128.757, 177.731 102.972, 167.337 75.902 L 164.803 69.303 147.651 67.874 C 131.881 66.560, 130.097 66.581, 125.500 68.133 C 113.912 72.046, 106.038 71.392, 98.553 65.898 C 95.066 63.337, 93.771 63, 87.439 63 L 80.272 63 82.636 67.669 M 136.083 63.359 C 136.313 63.557, 137.850 64.021, 139.500 64.390 C 141.691 64.880, 142.095 64.787, 141 64.046 C 139.650 63.132, 135.080 62.494, 136.083 63.359 M 101.500 64.787 C 104.454 67.565, 114.307 68.767, 120 67.044 L 122.500 66.287 120 65.699 C 115.104 64.547, 100.478 63.826, 101.500 64.787 M 89.559 76.350 C 88.152 77.757, 87 79.717, 87 80.705 C 87 82.473, 98.214 102.116, 102.012 107 L 103.956 109.500 103.978 105.799 C 104.068 90.777, 111.944 80.860, 125.014 79.312 C 130.805 78.626, 138.846 80.926, 143.816 84.691 C 147.823 87.726, 149.115 86.983, 146.351 83.234 C 142.939 78.604, 135.752 76.879, 116 75.948 C 106.375 75.495, 97.064 74.824, 95.309 74.457 C 92.702 73.912, 91.651 74.258, 89.559 76.350 M 118.384 83.913 C 109.244 88.064, 104.900 100.249, 107.921 113.260 C 108.704 116.632, 117.570 129.841, 119.127 129.954 C 119.472 129.979, 119.579 128.088, 119.365 125.750 C 116.937 99.238, 117.077 91.655, 119.939 94.550 C 120.456 95.073, 122.227 99.166, 123.876 103.646 C 126.973 112.064, 133.408 125.315, 136.871 130.410 L 138.849 133.319 139.531 129.410 C 139.906 127.259, 141.992 117.915, 144.166 108.645 C 148.742 89.138, 148.975 90.142, 138.686 85.001 C 131.552 81.436, 124.653 81.066, 118.384 83.913 M 84.651 88.696 C 82.102 104.118, 86.635 134.296, 93.301 146.282 C 95.835 150.838, 99.602 152.227, 101.755 149.397 C 103.862 146.628, 106.509 140.251, 108.036 134.261 C 109.223 129.609, 109.170 128.380, 107.564 123.284 C 106.569 120.128, 103.467 114.161, 100.672 110.023 C 97.876 105.885, 93.269 98.538, 90.434 93.696 L 85.279 84.891 84.651 88.696 M 146.182 112.750 C 140.461 136.638, 140.564 135.480, 143.830 139.136 L 146.614 142.252 149.281 136.310 C 153.583 126.724, 155.321 118.444, 154.700 110.500 C 154.231 104.496, 151.818 96, 150.583 96 C 150.369 96, 148.388 103.537, 146.182 112.750 M 121.554 117.500 C 121.879 124.650, 122.567 131.868, 123.081 133.539 C 124.176 137.099, 135.465 148.674, 136.387 147.182 C 136.733 146.623, 137.301 144.086, 137.649 141.544 C 138.208 137.463, 137.930 136.428, 135.271 132.711 C 132.037 128.188, 127.137 118.873, 123.324 110 L 120.961 104.500 121.554 117.500 M 123.376 144.500 L 123.993 149.500 112.718 155.207 C 94.401 164.479, 82 173.206, 82 176.825 C 82 178.940, 90.597 177.566, 99.960 173.955 C 111.631 169.454, 133 154.362, 133 150.620 C 133 149.963, 130.696 147.192, 127.879 144.462 L 122.759 139.500 123.376 144.500 M 140 144.300 C 140 146.115, 139.458 148.142, 138.796 148.804 C 137.268 150.332, 143.093 156.517, 154.500 165.482 C 169.057 176.922, 182 182.373, 182 177.065 C 182 173.862, 180.146 169.895, 174.906 161.885 C 169.950 154.308, 169.899 154.267, 164.776 153.660 C 161.945 153.325, 157.349 151.932, 154.564 150.565 C 151.779 149.198, 148.375 147.939, 147 147.766 C 145.527 147.581, 144.620 146.897, 144.792 146.101 C 145.102 144.665, 142.266 141, 140.845 141 C 140.380 141, 140 142.485, 140 144.300" stroke="none" fill="black" fill-rule="evenodd"/>
</svg>