<svg xmlns="http://www.w3.org/2000/svg" width="200" height="200" viewBox="0 0 200 200" version="1.1">
	<path d="M 31.995 17.600 C 31.989 25.812, 29.038 44.706, 22.640 77.500 C 19.635 92.900, 16.858 107.656, 16.469 110.291 L 15.761 115.081 21.910 121.485 C 30.678 130.615, 33.515 137.138, 33.445 148 C 33.399 155.184, 32.896 157.712, 30.195 164.326 C 28.438 168.630, 27 173.017, 27 174.076 C 27 177.875, 32.506 176.221, 50.555 167 C 60.244 162.050, 68.758 158, 69.475 158 C 70.192 158, 71.841 157.133, 73.139 156.074 C 75.206 154.388, 75.292 154.068, 73.828 153.497 C 72.909 153.139, 71.251 153.330, 70.145 153.922 C 67.282 155.455, 66.587 152.703, 66.754 140.500 C 66.961 125.394, 72.783 91.140, 76.866 81 C 78.338 77.347, 78.310 89.884, 76.807 108.264 C 75.871 119.703, 75.866 126.245, 76.782 137.314 C 79.433 169.356, 87.974 186.660, 93.409 171 C 95.021 166.355, 95.360 162.079, 95.592 143.500 C 95.849 122.939, 96.625 110.292, 97.572 111.238 C 97.796 111.462, 98.893 119.488, 100.012 129.073 C 104.060 163.779, 106.961 176.106, 112.094 180.426 C 113.777 181.842, 115.576 183, 116.091 183 C 116.607 183, 118.622 181.537, 120.568 179.750 C 125.186 175.507, 125.931 171.941, 126.046 153.500 L 126.140 138.500 128.472 148.500 C 131.666 162.190, 134.539 169.368, 138.509 173.579 C 141.426 176.671, 142.147 176.992, 143.982 176.010 C 145.145 175.387, 146.601 173.668, 147.219 172.189 C 148.763 168.492, 148.686 146.990, 147.077 132.692 C 145.853 121.810, 145.888 120.574, 147.526 116.942 C 150.987 109.268, 151.400 110.839, 153.495 139.659 C 155.572 168.208, 156.908 175.124, 161.241 179.750 C 164.403 183.126, 167.439 182.580, 172.076 177.802 C 176.092 173.664, 176.141 173.524, 175.514 168.052 C 175.165 164.998, 175.370 153.950, 175.970 143.500 C 178.828 93.765, 178.971 89.195, 177.995 78.949 C 176.749 65.866, 174.908 60.272, 170.420 55.924 C 167.168 52.774, 166.430 52.514, 161.192 52.678 C 153.838 52.908, 114.810 51.143, 114.221 50.555 C 113.559 49.892, 117.516 43.793, 120.188 41.359 C 122.336 39.402, 123.969 39.213, 143.252 38.699 L 164.004 38.146 170.236 33.798 C 174.049 31.138, 176.856 28.352, 177.464 26.621 C 180.852 16.988, 159.745 14.299, 65.750 12.386 L 32 11.699 31.995 17.600 M 35 17.790 C 35 24.510, 31.674 45.605, 26.002 74.858 C 17.535 118.523, 17.735 112.867, 24.402 120.067 C 37.380 134.085, 39.811 147.814, 32.501 165.804 C 31.126 169.190, 30 172.194, 30 172.480 C 30 173.865, 33.638 172.370, 48.514 164.873 L 64.639 156.746 64.192 145.903 C 63.674 133.326, 64.963 121.346, 69.040 100.849 C 73.436 78.748, 77.109 70.599, 80.131 76.246 C 80.983 77.836, 81.054 82.304, 80.397 92.958 C 78.228 128.133, 79.946 154.518, 85.270 167.792 C 90.300 180.331, 91.959 174.225, 92.957 139.500 C 93.755 111.746, 94.651 105.593, 97.802 106.200 C 99.962 106.616, 100.535 109.407, 103.409 133.500 C 104.787 145.050, 106.608 157.791, 107.457 161.814 C 109.325 170.673, 112.621 178.641, 114.755 179.460 C 116.959 180.305, 121.851 175.341, 122.526 171.575 C 122.830 169.884, 123.413 147.020, 123.823 120.766 C 124.388 84.590, 124.873 72.727, 125.826 71.774 C 127.806 69.794, 128.749 72.293, 129.664 81.939 C 130.617 92, 130.574 102.722, 129.510 120.142 C 128.587 135.254, 129.824 145.473, 134.169 158.649 C 135.828 163.681, 138.428 169.286, 139.947 171.106 L 142.708 174.413 144.104 171.957 C 145.895 168.805, 145.906 145.847, 144.123 130.994 C 142.949 121.213, 142.996 120.176, 144.794 115.980 C 145.857 113.500, 147.457 110.865, 148.351 110.124 C 152.750 106.473, 154.428 112.164, 155.980 136 C 157.556 160.208, 158.939 169.797, 161.713 175.750 C 163.632 179.867, 166.304 179.956, 169.977 176.024 L 172.757 173.048 173.267 151.274 C 173.547 139.298, 174.353 120.104, 175.057 108.619 C 176.051 92.406, 176.077 85.520, 175.172 77.814 C 173.897 66.939, 170.891 58.569, 167.610 56.751 C 166.411 56.087, 160.536 55.502, 154 55.395 C 147.675 55.291, 135.697 54.891, 127.382 54.504 L 112.265 53.802 111.132 57.050 C 110.510 58.837, 110 60.456, 110 60.649 C 110 60.842, 113.182 61, 117.070 61 C 120.959 61, 127.822 61.666, 132.320 62.479 C 136.819 63.292, 143.034 64.218, 146.130 64.536 L 151.761 65.114 152.378 73.807 C 152.717 78.588, 153.273 84.468, 153.614 86.872 C 154.453 92.791, 152.034 92.070, 150.460 85.933 C 148.291 77.474, 143.547 71.403, 136.095 67.549 C 133.236 66.071, 110.440 63.227, 109.442 64.225 C 109.155 64.511, 108.443 70.090, 107.858 76.623 C 106.766 88.832, 105.793 93, 104.036 93 C 102.524 93, 97.711 85.276, 98.464 84.058 C 99.567 82.273, 100.571 82.860, 102.161 86.218 L 103.685 89.435 104.374 81.468 C 104.753 77.085, 105.327 71.398, 105.650 68.830 L 106.237 64.159 101.951 65.122 C 97.268 66.175, 93.530 65.527, 95.885 64.071 C 98.360 62.542, 95.385 62.090, 78.417 61.419 C 60.846 60.724, 54.509 61.477, 51.948 64.562 C 50.927 65.792, 50.874 69.021, 51.687 80.305 C 52.798 95.727, 52.063 107.462, 49.365 117.386 C 47.180 125.423, 46.410 126.133, 43.509 122.785 C 36.258 114.417, 37.973 85.056, 47.964 46.478 C 52.517 28.899, 55.233 21.500, 57.133 21.500 C 59.148 21.500, 58.608 27.816, 55.471 40.938 C 53.999 47.092, 52.954 52.279, 53.147 52.463 C 53.341 52.648, 55.975 52.345, 59 51.790 C 62.025 51.236, 74.962 50.719, 87.750 50.641 C 100.537 50.563, 111 50.213, 111 49.862 C 111 49.511, 112.575 46.935, 114.500 44.136 C 116.425 41.338, 118 38.812, 118 38.524 C 118 38.236, 115.188 37.997, 111.750 37.992 C 105.069 37.984, 89.997 36.451, 86.884 35.463 C 84.577 34.731, 84.416 32.438, 86.614 31.595 C 87.501 31.254, 103.063 30.507, 121.196 29.934 C 155.846 28.839, 165.541 29.427, 164.343 32.548 C 163.887 33.737, 161.327 33.874, 149.147 33.362 C 136.858 32.846, 133.937 33.007, 131 34.363 C 127.647 35.911, 128.246 35.967, 145.239 35.682 L 162.979 35.386 168.739 31.431 C 172.299 28.988, 174.620 26.639, 174.813 25.285 C 175.081 23.411, 174.356 22.875, 169.813 21.589 C 157.658 18.150, 131.035 16.453, 72.250 15.369 L 35 14.682 35 17.790 M 95.222 33.556 C 95.528 33.861, 101.662 34.573, 108.854 35.137 C 120.264 36.032, 122.217 35.962, 124.187 34.581 C 126.286 33.111, 125.329 33, 110.556 33 C 101.817 33, 94.917 33.250, 95.222 33.556 M 51.079 44.583 C 51.127 45.748, 51.364 45.985, 51.683 45.188 C 51.972 44.466, 51.936 43.603, 51.604 43.271 C 51.272 42.939, 51.036 43.529, 51.079 44.583 M 50.079 48.583 C 50.127 49.748, 50.364 49.985, 50.683 49.188 C 50.972 48.466, 50.936 47.603, 50.604 47.271 C 50.272 46.939, 50.036 47.529, 50.079 48.583 M 49.079 52.583 C 49.127 53.748, 49.364 53.985, 49.683 53.188 C 49.972 52.466, 49.936 51.603, 49.604 51.271 C 49.272 50.939, 49.036 51.529, 49.079 52.583 M 64.500 54.190 C 60.100 54.698, 54.644 55.201, 52.374 55.307 L 48.249 55.500 46.114 66.500 C 44.940 72.550, 43.486 81.246, 42.882 85.825 C 41.481 96.445, 42.102 114.647, 43.979 118 L 45.378 120.500 46.674 116.082 C 49.589 106.145, 50.296 95.191, 48.948 80.826 C 47.483 65.209, 47.901 63.195, 53.207 60.298 C 56.047 58.748, 58.772 58.526, 73 58.689 C 82.075 58.793, 93.325 59.296, 98 59.806 C 102.675 60.316, 106.779 60.455, 107.121 60.116 C 107.462 59.777, 108.020 58.318, 108.359 56.873 C 108.906 54.545, 108.622 54.174, 105.863 53.623 C 101.382 52.726, 73.909 53.103, 64.500 54.190 M 141.094 67.250 C 141.330 67.388, 143.205 69.051, 145.261 70.946 L 149 74.392 149 70.696 C 149 67.026, 148.971 67, 144.833 67 C 142.542 67, 140.859 67.112, 141.094 67.250 M 127 99 C 127 104.133, 127.280 108.054, 127.622 107.711 C 128.331 107.003, 128.193 90.860, 127.472 90.139 C 127.212 89.879, 127 93.867, 127 99" stroke="none" fill="black" fill-rule="evenodd"/>
</svg>