<svg xmlns="http://www.w3.org/2000/svg" width="200" height="200" viewBox="0 0 200 200" version="1.1">
	<path d="M 134.500 22.392 C 128.692 24.220, 126.187 25.745, 120.950 30.644 L 116.276 35.015 113.677 31.087 C 110.811 26.758, 107.271 24.964, 105.890 27.143 C 105.418 27.889, 105.024 31.200, 105.015 34.500 L 105 40.500 89.437 40.750 C 72.318 41.025, 62.802 42.571, 54.315 46.456 L 48.786 48.987 49.463 46.244 C 49.834 44.735, 51.355 41.025, 52.841 38 C 55.378 32.834, 55.784 32.482, 59.521 32.209 C 61.710 32.049, 68.872 33.277, 75.438 34.938 C 82.004 36.599, 87.515 37.818, 87.686 37.647 C 87.857 37.477, 85.537 34.620, 82.532 31.298 C 73.087 20.861, 65.327 19.212, 57.500 25.979 C 56.195 27.107, 52.314 28.085, 46.334 28.791 C 28.628 30.882, 20.560 38.101, 15.368 56.500 C 13.969 61.454, 13.600 68.561, 13.249 97.261 C 12.792 134.552, 13.414 142.537, 17.318 149.496 C 23.973 161.361, 37.545 160.844, 49.020 148.288 C 61.172 134.992, 65.434 118.299, 62.438 95.743 C 59.550 74.004, 62.120 60.785, 70.952 51.953 C 79.074 43.831, 88.073 42.306, 102 46.691 L 107.500 48.422 98.500 49.046 C 88.471 49.740, 83.401 51.753, 77.949 57.205 C 73.384 61.770, 69.130 71.396, 67.342 81.205 C 65.439 91.641, 66.179 116.827, 68.920 134.962 L 70.804 147.424 67.879 151.676 C 59.318 164.119, 57.637 172.990, 62.906 177.912 C 69.370 183.951, 79.790 184.801, 119.500 182.530 C 146.636 180.978, 156.322 180.996, 168.500 182.619 L 172.500 183.152 172.218 174.326 C 171.056 137.983, 160.253 119.751, 139.861 119.717 L 133.223 119.706 131.086 112.353 C 129.911 108.309, 128.607 105, 128.188 105 C 127.260 105, 123.550 80.992, 123.664 75.719 C 123.791 69.840, 130 64.597, 130 70.369 C 130 74.851, 133.021 90.053, 135.148 96.272 C 144.480 123.565, 157.313 127.505, 162.506 104.672 C 163.961 98.278, 163.950 97.436, 162.361 93.276 C 160.851 89.322, 160.794 87.908, 161.879 81.450 C 163.350 72.695, 162.206 69.478, 156.222 65.545 C 151.853 62.673, 137.422 57.089, 127.566 54.456 C 121.186 52.752, 108.400 46.267, 109.415 45.251 C 110.309 44.358, 121.774 48.259, 129.772 52.179 L 138.043 56.232 144.623 54.580 C 157.366 51.379, 166.994 44.858, 168.635 38.317 C 170.070 32.599, 163.367 25.119, 154.386 22.416 C 148.679 20.698, 139.918 20.688, 134.500 22.392 M 63.290 25.520 C 61.613 26.225, 59.986 27.214, 59.674 27.718 C 59.363 28.221, 63.134 29.405, 68.054 30.348 C 72.974 31.291, 77.788 32.346, 78.750 32.692 C 80.050 33.159, 79.857 32.613, 78 30.568 C 73.417 25.524, 67.837 23.608, 63.290 25.520 M 133 25.734 C 130.005 26.783, 126.440 29.405, 122.338 33.574 L 116.176 39.838 112.469 34.255 C 108.223 27.860, 107.109 28.452, 107.773 36.750 C 108.076 40.539, 108.606 42, 109.679 42 C 112.297 42, 126.310 47.126, 132.276 50.266 C 137.804 53.176, 138.279 53.256, 143.332 52.125 C 155.546 49.392, 166 42.079, 166 36.268 C 166 32.846, 159.608 26.798, 154.315 25.213 C 148.816 23.565, 138.470 23.818, 133 25.734 M 41.344 32.041 C 29.213 34.441, 21.808 42.546, 18.080 57.500 C 16.071 65.559, 15.275 87.604, 15.986 115.500 C 16.715 144.154, 17.391 147.627, 23.187 152.504 C 29.517 157.830, 36.053 156.623, 44.817 148.509 C 57.391 136.868, 62.913 118.540, 59.927 98.358 C 58.129 86.207, 58.287 71.775, 60.292 65 C 62.477 57.616, 67.001 50.736, 72.102 47.041 C 75.889 44.298, 76.061 44, 73.860 44 C 69.685 44, 59.773 46.910, 53.413 50.004 C 47.492 52.884, 47.294 53.108, 46.162 58.232 C 43.997 68.026, 42.018 83.440, 41.363 95.594 L 40.712 107.688 44.567 114.737 C 47.865 120.768, 48.230 122.018, 47.089 123.393 C 45.249 125.610, 42.287 125.406, 40.985 122.971 C 40.388 121.856, 39.646 118.593, 39.336 115.721 C 39.026 112.850, 37.195 105.804, 35.267 100.064 C 29.050 81.553, 30.815 66.983, 40.593 56.108 C 43.733 52.616, 45.817 48.947, 47.540 43.883 C 48.893 39.904, 50.675 35.618, 51.500 34.359 C 52.325 33.100, 53 31.830, 53 31.535 C 53 30.776, 46.260 31.069, 41.344 32.041 M 86.168 54.603 C 77.912 58.718, 73.212 66.320, 70.427 80.063 C 68.292 90.601, 68.954 117.209, 71.818 135.942 L 73.720 148.384 70.480 152.942 C 66.705 158.252, 63.553 164.378, 62.640 168.181 C 61.567 172.649, 63.525 175.893, 68.746 178.301 C 73.047 180.284, 75.120 180.493, 90.500 180.497 C 115.636 180.502, 144.172 178.946, 143.596 177.602 C 142.305 174.592, 129.150 134.054, 128.522 131.151 C 128.124 129.309, 127.459 128.184, 127.045 128.651 C 126.631 129.118, 125.545 134.941, 124.631 141.592 C 122.629 156.160, 120.783 163.646, 118.673 165.756 C 116.268 168.160, 114.693 166.161, 111.437 156.570 C 109.862 151.932, 107.988 147.337, 107.273 146.359 C 106.035 144.666, 105.887 144.675, 104.142 146.541 C 101.593 149.267, 98.632 156.863, 95.874 167.750 C 91.581 184.697, 88.071 177.220, 89.258 153.654 C 89.562 147.608, 90.572 141.005, 91.754 137.332 L 93.739 131.165 91.619 130.596 C 90.454 130.283, 87.775 130.021, 85.667 130.014 C 83.042 130.004, 81.969 129.606, 82.263 128.750 C 82.561 127.884, 84.541 127.603, 88.714 127.835 L 94.735 128.170 98.744 120.835 C 100.949 116.801, 104.013 111.291, 105.552 108.590 L 108.350 103.680 101.175 104.347 C 92.028 105.197, 91.730 103.662, 100.233 99.500 C 103.604 97.850, 106.393 96.077, 106.431 95.560 C 106.469 95.043, 103.800 93.585, 100.500 92.320 C 93.849 89.771, 89.727 85.957, 90.683 83.237 C 91.777 80.124, 96.362 75.932, 103.651 71.381 L 110.803 66.916 109.382 60.708 C 108.601 57.294, 107.760 53.938, 107.512 53.250 C 107.205 52.395, 104.589 52, 99.228 52 C 92.792 52, 90.460 52.465, 86.168 54.603 M 111 54.405 C 111 55.198, 111.518 58.093, 112.152 60.838 L 113.304 65.829 118.592 63.236 C 123.098 61.026, 123.736 60.375, 122.910 58.832 C 121.089 55.430, 111 51.679, 111 54.405 M 125.500 58 C 125.840 58.550, 126.793 59, 127.618 59 C 128.443 59, 128.840 58.550, 128.500 58 C 128.160 57.450, 127.207 57, 126.382 57 C 125.557 57, 125.160 57.450, 125.500 58 M 39.614 61.658 C 34.075 70.048, 32.944 81.618, 36.404 94.500 C 38.091 100.782, 38.683 99.196, 39.391 86.500 C 39.698 81, 40.659 72.512, 41.528 67.637 C 42.396 62.762, 42.892 58.558, 42.628 58.295 C 42.365 58.032, 41.009 59.545, 39.614 61.658 M 133.975 62.565 C 131.491 69.098, 134.422 87.947, 140.009 101.367 C 143.325 109.333, 149.340 117, 152.273 117 C 154.804 117, 157.636 112.524, 159.529 105.529 C 161.203 99.347, 161.203 98.776, 159.537 93.480 C 158.022 88.662, 157.949 87.070, 158.990 81.551 C 160.429 73.927, 159.879 71.769, 155.682 68.581 C 152.711 66.324, 138.169 60, 135.949 60 C 135.400 60, 134.512 61.154, 133.975 62.565 M 129.015 62.250 C 129.024 62.938, 129.467 64.175, 130 65 C 130.755 66.169, 130.973 65.893, 130.985 63.750 C 130.993 62.237, 130.550 61, 130 61 C 129.450 61, 129.007 61.563, 129.015 62.250 M 119.500 65.668 C 116.750 67.085, 114.400 68.326, 114.278 68.427 C 113.946 68.701, 122.983 103.317, 123.529 103.863 C 124.417 104.750, 123.996 99.494, 122.500 91 C 121.677 86.325, 121.002 79.878, 121.001 76.673 C 121 71.528, 121.352 70.494, 124.007 67.839 C 125.661 66.185, 126.759 64.420, 126.448 63.916 C 125.655 62.633, 125.140 62.763, 119.500 65.668 M 105.441 73.553 C 98.008 77.998, 92.520 83.308, 93.289 85.311 C 93.604 86.133, 96.481 87.751, 99.681 88.907 C 106.891 91.512, 108.092 92.185, 109.433 94.377 C 110.292 95.781, 109.968 96.584, 107.772 98.494 C 105.077 100.837, 105.071 100.871, 107.272 101.183 C 111.115 101.729, 110.546 105.478, 105.202 114.827 C 96.988 129.198, 97.272 128.305, 101.162 127.551 C 112.717 125.313, 114.314 124.665, 118.753 120.412 C 124.121 115.269, 124.280 117.669, 116.726 89.750 L 111.382 70 105.441 73.553 M 128.070 117.250 C 128.032 119.313, 128.450 121, 129 121 C 130.194 121, 130.194 118.279, 129 115.500 C 128.311 113.896, 128.127 114.242, 128.070 117.250 M 42.418 118.332 C 42.738 119.339, 43 120.577, 43 121.082 C 43 121.587, 43.450 122, 44 122 C 45.448 122, 45.230 120.664, 43.418 118.441 C 41.971 116.665, 41.886 116.656, 42.418 118.332 M 122.252 121.059 C 120.043 123.763, 120.040 123.802, 122.087 123.267 C 124.188 122.718, 125.479 120.808, 124.844 119.187 C 124.655 118.703, 123.488 119.546, 122.252 121.059 M 135.358 122.765 C 134.542 123.290, 135.477 128.214, 138.630 140 C 141.058 149.075, 144.257 161.563, 145.739 167.750 L 148.434 179 156.967 179.014 C 161.660 179.021, 166.400 179.269, 167.500 179.565 C 169.446 180.088, 169.482 179.768, 168.855 167.801 C 167.816 147.992, 163.505 135.256, 155.436 128.153 C 149.792 123.184, 139.147 120.328, 135.358 122.765 M 129.711 123.663 C 129.136 124.597, 139.079 157.254, 139.738 156.596 C 140.271 156.063, 131.928 124.781, 130.955 123.663 C 130.554 123.202, 129.994 123.202, 129.711 123.663 M 114 130.109 C 109.875 132.353, 105.918 134.668, 105.208 135.252 C 104.292 136.005, 103.593 135.993, 102.811 135.211 C 102.004 134.404, 102.703 133.518, 105.396 131.929 C 107.425 130.732, 108.954 129.673, 108.793 129.576 C 108.632 129.480, 105.936 129.576, 102.802 129.790 L 97.103 130.179 95.028 136.417 C 92.459 144.136, 90.888 157.260, 91.706 164.166 L 92.321 169.361 95.673 158.743 C 98.825 148.756, 102.699 142, 105.274 142 C 107.836 142, 110.922 146.651, 113.604 154.550 C 115.182 159.197, 116.781 163, 117.157 163 C 118.329 163, 124 132.724, 124 126.466 C 124 125.234, 120.849 126.383, 114 130.109" stroke="none" fill="black" fill-rule="evenodd"/>
</svg>