<svg xmlns="http://www.w3.org/2000/svg" width="200" height="200" viewBox="0 0 200 200" version="1.1">
	<path d="M 82.500 14.655 C 70.437 14.946, 43.021 16.725, 36.166 17.661 C 32.637 18.142, 31.919 18.584, 32.300 20.040 C 32.603 21.196, 32.107 22, 30.896 22.317 C 27.736 23.143, 26.628 27.673, 27.818 34.901 C 28.805 40.894, 28.725 41.498, 26.560 44.401 C 20.898 51.990, 20.730 62.603, 25.935 84 C 31.869 108.392, 29.636 121.156, 17.618 131.531 C 11.247 137.032, 10.967 138.239, 14.367 145.541 C 19.567 156.708, 27.121 158.807, 39.616 152.556 C 47.242 148.740, 56.418 141.356, 75.411 123.750 C 82.383 117.288, 88.517 112, 89.043 112 C 92.065 112, 86.802 126.025, 80.881 133.751 C 68.642 149.719, 77.303 157.201, 99.500 149.835 C 111.077 145.994, 118.716 139.468, 119.934 132.380 L 120.500 129.085 124.603 130.928 C 126.886 131.953, 128.940 133.662, 129.232 134.780 C 131 141.539, 119.901 151.163, 87.500 170.968 C 69.277 182.107, 65.912 186, 74.508 186 C 80.813 186, 98.636 181.627, 107.221 177.974 C 135.325 166.014, 163.075 142.149, 174.630 120 C 177.259 114.961, 177.507 113.579, 177.585 103.500 C 177.637 96.849, 178.323 89.930, 179.320 86 C 183.074 71.212, 180.474 61.470, 171.600 57.071 C 166.936 54.760, 165.994 54.664, 152.100 55.071 C 144.070 55.307, 129.400 55.494, 119.500 55.488 C 101.103 55.475, 97 54.742, 97 51.465 C 97 49.743, 97.629 49.705, 105.342 50.968 C 110.049 51.739, 111.630 51.633, 113.476 50.424 C 115.079 49.373, 121.737 48.478, 135.634 47.443 C 158.544 45.738, 165.914 44.595, 171.123 41.937 C 178.067 38.395, 177.553 33.534, 169.451 26.130 C 163.523 20.711, 156.949 18, 149.739 18 C 147.594 18, 140.435 18.703, 133.828 19.563 C 120.465 21.301, 112.489 20.638, 102.135 16.927 C 94.785 14.292, 95.256 14.347, 82.500 14.655 M 66 17.984 C 60.225 18.408, 53.299 18.810, 50.609 18.877 L 45.718 19 50.240 22.980 C 52.726 25.168, 55.666 28.884, 56.772 31.237 C 58.588 35.103, 61.652 38.200, 76.289 50.970 L 80.078 54.276 82.470 52.029 C 84.837 49.804, 84.908 49.799, 89.453 51.535 C 91.978 52.500, 94.356 52.977, 94.737 52.596 C 96.152 51.181, 93.339 48.790, 88.080 46.938 C 77.009 43.039, 75.154 37.893, 82.250 30.768 C 84.588 28.420, 88.256 25.016, 90.401 23.201 C 92.738 21.226, 93.939 19.539, 93.395 18.995 C 92.035 17.635, 77.877 17.113, 66 17.984 M 96.468 21.144 C 95.711 24.593, 96.925 46.997, 97.870 47.006 C 98.216 47.009, 101.089 47.436, 104.252 47.954 C 108.700 48.682, 110.788 48.569, 113.457 47.453 C 115.500 46.600, 124.992 45.414, 136.705 44.549 C 158.285 42.955, 165.407 41.875, 169.999 39.500 C 174.223 37.316, 173.968 33.968, 169.217 29.217 C 163.044 23.044, 158.833 21.473, 149 21.673 C 107.843 22.514, 108.792 22.542, 102.813 20.292 L 97.126 18.151 96.468 21.144 M 38.592 22.826 C 41.393 23.794, 46.049 26.285, 48.939 28.361 L 54.193 32.135 52.347 28.975 C 49.738 24.511, 43.344 20.992, 37.912 21.033 L 33.500 21.065 38.592 22.826 M 30.841 26.449 C 29.897 28.521, 29.876 30.649, 30.749 35.744 C 31.846 42.149, 31.803 42.446, 29.342 45.370 C 27.946 47.029, 26.366 49.536, 25.833 50.940 C 23.995 55.774, 24.836 66.482, 28.126 80.132 C 30.743 90.990, 31.362 95.659, 31.424 105 C 31.492 115.263, 31.237 117.038, 29.052 121.500 C 27.705 124.250, 23.993 129.076, 20.802 132.225 C 17.611 135.374, 15.004 138.524, 15.010 139.225 C 15.030 141.833, 19.905 150.879, 21.851 151.920 C 25.201 153.713, 32.168 153.137, 37.500 150.626 C 44.942 147.122, 52.793 140.936, 69.929 125.075 C 85.701 110.477, 88.696 108.285, 91.436 109.337 C 93.567 110.155, 93.406 112.654, 90.671 121.212 C 89.100 126.125, 86.656 130.717, 83.171 135.303 C 77.518 142.740, 76.481 147.117, 79.934 148.965 C 87.071 152.784, 110.260 144.638, 115.644 136.420 C 116.749 134.733, 117.090 132.705, 116.724 129.979 C 116.261 126.526, 116.446 126, 118.127 126 C 120.963 126, 127.131 128.775, 129.736 131.222 C 131.187 132.585, 132 134.515, 132 136.597 C 132 143.943, 120.323 154.040, 91.081 171.977 C 74.644 182.060, 71.420 184.579, 76.250 183.566 C 100.434 178.494, 107.424 175.987, 123.105 166.758 C 148.717 151.685, 169.561 129.578, 174.661 112.079 C 175.970 107.589, 176.041 105.760, 175.073 101.434 C 174.062 96.919, 174.182 95.122, 175.952 88.189 C 178.644 77.644, 178.653 68.583, 175.974 64.190 C 172.409 58.342, 168.724 57.438, 150.500 57.944 C 125.649 58.634, 107.950 58.569, 102.750 57.769 C 98.436 57.105, 98 57.220, 98 59.019 C 98 60.640, 98.681 61.001, 101.750 61.007 C 107.376 61.018, 120.544 64.462, 129 68.135 C 134.824 70.665, 137.947 71.405, 142.978 71.446 C 148.969 71.496, 149.551 71.699, 150.732 74.144 C 151.433 75.598, 152.304 78.270, 152.666 80.081 L 153.325 83.374 147.412 79.968 C 141.819 76.744, 140.961 76.555, 131.500 76.455 C 121.480 76.350, 120.914 76.213, 106.615 70.443 C 104.992 69.788, 105.110 70.332, 107.469 74.357 C 109.283 77.452, 110.012 79.817, 109.626 81.355 C 109.078 83.538, 109.662 83.869, 119.271 86.836 C 135.189 91.750, 141.728 92.969, 152.250 92.985 C 161.206 92.999, 162 93.157, 162 94.927 C 162 97.285, 157.550 100.940, 153.756 101.699 C 150.437 102.363, 149.423 103.564, 151.506 104.364 C 152.328 104.679, 153 106.099, 153 107.518 C 153 116.849, 137.852 127.333, 127.015 125.503 C 120.960 124.479, 114.501 119.575, 109.807 112.436 C 105.772 106.298, 105.411 106.023, 100.058 104.992 C 88.071 102.685, 83.630 101.389, 83.190 100.070 C 82.813 98.939, 84.535 98.794, 92.866 99.253 C 98.440 99.560, 102.986 99.516, 102.970 99.156 C 102.953 98.795, 101.925 94.902, 100.686 90.505 L 98.432 82.509 88.584 79.778 C 83.167 78.275, 78.380 77.265, 77.945 77.534 C 76.613 78.357, 73.199 90.015, 71.513 99.500 C 69.421 111.270, 68.238 114.802, 65.986 116.008 C 63.069 117.569, 62.242 117.264, 57.478 112.873 L 53 108.745 53 98.569 C 53 89.656, 53.318 87.755, 55.559 83.257 C 58.604 77.147, 63.945 74, 71.268 74 C 75.519 74, 76.335 73.570, 81.078 68.827 L 86.251 63.654 82.961 60.968 L 79.671 58.283 76.196 60.642 C 72.147 63.389, 66.850 63.707, 64.488 61.345 C 62.393 59.250, 61.466 56.785, 58.847 46.344 C 57.020 39.059, 56.231 37.499, 52.962 34.715 C 47.604 30.152, 39.034 25.157, 35.272 24.404 C 32.469 23.844, 31.911 24.101, 30.841 26.449 M 86.700 30.080 C 80.603 35.514, 79.595 38.418, 82.800 41.319 C 84.245 42.626, 92.046 46, 93.626 46 C 93.832 46, 94 41.275, 94 35.500 C 94 29.725, 93.640 25, 93.200 25 C 92.759 25, 89.834 27.286, 86.700 30.080 M 62.223 48.938 C 65.232 60.919, 67.777 62.692, 75.310 58.052 L 78.121 56.321 70.310 49.333 C 66.015 45.490, 61.991 42.049, 61.368 41.687 C 60.659 41.274, 60.978 43.983, 62.223 48.938 M 83.653 54.831 C 82.006 56.651, 82.089 56.871, 85.575 59.932 C 87.652 61.756, 89.851 62.887, 90.691 62.565 C 91.501 62.254, 92.802 62, 93.582 62 C 94.486 62, 95 60.930, 95 59.047 C 95 56.575, 94.471 55.941, 91.750 55.155 C 89.963 54.639, 87.797 53.927, 86.937 53.573 C 86.013 53.193, 84.670 53.707, 83.653 54.831 M 93.226 64.839 C 92.253 65.456, 92.431 66.080, 93.976 67.479 C 95.960 69.273, 96 69.257, 96 66.655 C 96 63.889, 95.372 63.477, 93.226 64.839 M 105.560 66.360 C 111.907 70.310, 124.432 74.150, 129.830 73.802 L 134.500 73.500 129.630 71.253 C 122.821 68.111, 112.975 65.184, 106.761 64.453 L 101.500 63.834 105.560 66.360 M 84.247 69.521 C 79.831 73.301, 78.967 75, 81.462 75 C 82.266 75, 86.316 76.077, 90.462 77.394 C 97.815 79.729, 98 79.739, 98 77.819 C 98 76.737, 95.861 73.609, 93.247 70.869 L 88.494 65.886 84.247 69.521 M 99.356 70.032 C 99.873 72.616, 104.887 78.439, 105.808 77.524 C 106.227 77.107, 99.966 67, 99.289 67 C 98.993 67, 99.023 68.364, 99.356 70.032 M 144.222 73.842 C 143.300 74.427, 143.684 74.991, 145.601 75.864 C 148.718 77.284, 149.809 76.680, 148.020 74.524 C 146.585 72.796, 146.028 72.696, 144.222 73.842 M 62.365 78.919 C 57.688 81.771, 55.485 88.409, 55.564 99.413 C 55.628 108.295, 55.640 108.336, 59.026 111.163 C 65.129 116.258, 65.696 115.506, 69.020 97.892 C 70.188 91.706, 71.967 84.475, 72.975 81.823 L 74.808 77 70.154 77.004 C 67.337 77.006, 64.262 77.762, 62.365 78.919 M 101 79.448 C 101 80.581, 106.866 83.546, 107.542 82.755 C 107.662 82.615, 106.239 81.508, 104.380 80.296 C 101.952 78.713, 101 78.474, 101 79.448 M 101.997 84.643 C 101.995 85.114, 102.953 88.737, 104.126 92.694 L 106.258 99.888 111.630 100.560 C 114.585 100.929, 124.539 101.041, 133.751 100.808 C 148.136 100.445, 151.135 100.088, 155 98.277 L 159.500 96.169 152.360 96.084 C 142.683 95.970, 131.678 93.757, 117.423 89.059 C 110.865 86.897, 104.712 84.827, 103.750 84.458 C 102.787 84.088, 101.999 84.172, 101.997 84.643 M 112.250 104.221 C 115.209 104.915, 117 105.880, 117 106.779 C 117 107.887, 116.187 108.070, 113.500 107.566 C 111.575 107.205, 110.002 107.267, 110.005 107.705 C 110.008 108.142, 111.695 110.717, 113.755 113.427 C 120.542 122.357, 129.872 125.177, 138.621 120.942 C 144.027 118.325, 150 111.792, 150 108.497 C 150 105.396, 147.965 105.261, 141.010 107.904 C 137.969 109.060, 135.764 109.427, 135.400 108.838 C 134.635 107.600, 134.874 107.387, 139.046 105.577 C 142.390 104.126, 142.147 104.077, 131.397 104.039 C 125.290 104.018, 117.415 103.799, 113.897 103.553 L 107.500 103.106 112.250 104.221" stroke="none" fill="black" fill-rule="evenodd"/>
</svg>