<svg xmlns="http://www.w3.org/2000/svg" width="200" height="200" viewBox="0 0 200 200" version="1.1">
	<path d="M 39.329 12.458 C 37.585 13.216, 35.669 14.749, 35.073 15.864 C 34.476 16.979, 33.555 23.197, 33.027 29.681 C 32.498 36.166, 31.316 44.942, 30.399 49.184 C 28.746 56.838, 28.712 56.892, 25.903 56.331 C 22.280 55.606, 17.711 56.724, 18.576 58.123 C 18.938 58.709, 20.278 58.989, 21.553 58.745 C 27.631 57.583, 27.705 61.621, 22.004 83.627 C 15.442 108.957, 15.355 119.066, 21.639 126.022 C 26.308 131.191, 30.332 132.372, 41.158 131.755 C 46.021 131.478, 50 131.415, 50 131.614 C 50 131.814, 44.912 138.845, 38.694 147.239 C 21.336 170.668, 18.855 175.174, 22.144 177.295 C 23.454 178.141, 26.399 176.804, 36.644 170.717 C 43.715 166.516, 51.382 162.417, 53.682 161.608 C 57.704 160.193, 58.137 160.252, 65.032 163.149 C 73.868 166.861, 80.512 167.371, 82.650 164.500 C 84.610 161.868, 83.904 157.605, 79.375 144.717 C 73.841 128.971, 72 121.248, 72 113.786 C 72 106.258, 73.346 102.102, 77.303 97.410 C 78.736 95.710, 80.907 91.210, 82.127 87.410 C 83.348 83.609, 84.422 80.384, 84.514 80.243 C 84.606 80.101, 90.333 82.688, 97.240 85.993 C 104.148 89.297, 110.324 92, 110.965 92 C 114.069 92, 123 117.366, 123 126.184 C 123 130.629, 122.726 131.118, 118.356 134.454 C 112.971 138.566, 110.227 138.838, 102.761 136.001 C 95.644 133.296, 95.387 133.370, 95.830 138.011 C 96.562 145.686, 102.564 147.647, 110.807 142.903 C 112.626 141.856, 115.179 141, 116.480 141 C 119.223 141, 125 136.504, 125 134.368 C 125 133.569, 128.506 129.446, 132.792 125.207 C 137.077 120.968, 142.747 115.108, 145.393 112.185 C 148.038 109.261, 150.417 107.084, 150.680 107.347 C 150.942 107.609, 150.691 114.095, 150.122 121.759 C 148.887 138.379, 146.604 145.683, 140.941 151.130 C 136.714 155.197, 129.120 157.606, 123.434 156.683 C 120.759 156.249, 119.720 156.561, 118.622 158.129 C 116.687 160.892, 117.663 163.675, 122.063 167.945 C 130.009 175.657, 144.568 180.263, 153.912 178.021 C 163.879 175.630, 170.427 168.402, 173.431 156.475 C 176.191 145.512, 181.247 90.188, 181.379 69.500 C 181.492 51.781, 180.097 37.796, 178.094 36.558 C 177.723 36.329, 175.332 37.440, 172.782 39.028 C 162.050 45.707, 147.956 49.716, 139.605 48.464 C 129.320 46.921, 122.656 39.601, 125.020 32.440 C 126.547 27.812, 132.541 23.470, 139.574 21.896 C 145.052 20.670, 147.158 18.051, 142.750 17.947 C 141.512 17.917, 132.285 17.310, 122.245 16.597 C 107.552 15.554, 103.614 14.961, 102.066 13.560 C 100.387 12.040, 99.696 11.980, 96.634 13.088 C 93.746 14.132, 89.449 14.057, 72.313 12.661 C 47.686 10.655, 43.533 10.629, 39.329 12.458 M 38.956 15.835 C 36.946 17.462, 36.596 18.972, 35.855 29.222 C 35.136 39.165, 34.387 43.828, 31.270 57.750 C 30.993 58.987, 30.369 60, 29.883 60 C 29.398 60, 29 61.775, 29 63.945 C 29 66.115, 26.975 75.790, 24.500 85.446 C 17.723 111.886, 18.375 122.514, 27.062 127.173 C 31.278 129.434, 43.995 129.643, 51.750 127.579 C 54.638 126.810, 57 126.411, 57 126.692 C 57 126.972, 51.203 134.919, 44.117 144.351 C 30.341 162.689, 23.676 172.589, 24.185 173.954 C 24.358 174.419, 30.120 171.452, 36.990 167.360 C 43.859 163.268, 51.494 159.333, 53.957 158.615 C 58.066 157.417, 58.849 157.498, 63.467 159.602 C 70.128 162.636, 77.295 164.485, 79.346 163.698 C 82.006 162.677, 81.350 158.957, 75.396 141.324 C 67.172 116.966, 66.935 106.478, 74.390 96.711 C 77.233 92.988, 78.395 90.315, 81.549 80.244 C 81.788 79.479, 77.653 76.837, 70.988 73.494 C 64.963 70.472, 59.801 68, 59.517 68 C 59.232 68, 59 70.205, 59 72.901 C 59 79.442, 55.606 98.911, 53.055 107 C 50.035 116.579, 46.995 121.436, 43.788 121.810 C 40.161 122.233, 38.292 119.127, 36.259 109.295 L 34.628 101.407 38.886 95.768 C 45.200 87.405, 47 81.796, 47 70.489 C 47 61.776, 47.158 61, 48.933 61 C 50.007 61, 52.483 59.027, 54.506 56.558 L 58.146 52.116 55.823 48.969 C 52.871 44.971, 52.896 37.800, 55.889 30 C 57.049 26.975, 57.999 23.578, 57.999 22.450 C 58 19.933, 59.809 18, 62.163 18 C 63.133 18, 66.893 20.775, 70.519 24.166 L 77.111 30.333 83.528 23.972 C 87.057 20.474, 89.792 17.458, 89.604 17.271 C 88.956 16.622, 56.475 14.025, 48.861 14.012 C 42.928 14.003, 40.715 14.410, 38.956 15.835 M 86.794 24.782 L 78.685 32.729 85.059 41.503 L 91.434 50.276 94.689 39.888 C 98.274 28.445, 100.546 19.190, 99.911 18.618 C 99.685 18.415, 98.466 17.930, 97.201 17.541 C 95.264 16.945, 93.631 18.081, 86.794 24.782 M 100.122 30.175 C 98.264 36.954, 96.046 45.002, 95.193 48.059 L 93.642 53.618 99.162 62.559 C 102.198 67.477, 107 75.809, 109.834 81.077 L 114.986 90.653 120.069 91.827 C 122.865 92.472, 128.582 93, 132.773 93 L 140.394 93 132.188 89.032 C 123.787 84.969, 114.943 77.723, 112.413 72.831 C 110.584 69.295, 110.611 63.654, 112.473 60.053 C 117.323 50.673, 138.652 50.776, 153.619 60.252 L 157.737 62.859 155.731 68.680 C 153.980 73.756, 153.627 78.337, 152.964 104.500 C 152.180 135.457, 151.778 138.539, 147.401 147.188 C 143.292 155.308, 136.856 158.966, 126.400 159.123 C 122.673 159.179, 120 159.656, 120 160.265 C 120 163.063, 125.629 168.202, 132.311 171.504 C 145.369 177.958, 155.750 177.302, 163.519 169.534 C 170.050 163.003, 171.466 157.132, 175.078 121.622 C 178.784 85.183, 179.768 60.953, 178.036 48.750 L 176.796 40.016 170.648 43.427 C 152.201 53.659, 131.358 53.475, 124.250 43.015 C 119.687 36.300, 122.278 27.333, 130.137 22.647 L 134.126 20.268 124.813 19.613 C 119.691 19.253, 112.800 18.708, 109.500 18.403 L 103.500 17.849 100.122 30.175 M 61 22.873 C 61 23.903, 60.097 26.787, 58.993 29.282 C 56.253 35.478, 55.441 42.236, 56.989 45.974 C 57.679 47.638, 58.822 49, 59.530 49 C 60.238 49, 64.065 45.321, 68.034 40.824 L 75.250 32.648 69.225 26.824 C 62.882 20.693, 61 19.789, 61 22.873 M 69.996 42.646 C 66.423 46.749, 63.385 50.426, 63.245 50.817 C 63.105 51.207, 65.355 52.351, 68.245 53.358 C 80.098 57.487, 84.882 62.257, 85.087 70.151 C 85.145 72.374, 86.020 70.108, 87.692 63.409 L 90.209 53.317 84.092 44.710 C 80.728 39.976, 77.641 35.896, 77.233 35.644 C 76.826 35.392, 73.569 38.543, 69.996 42.646 M 58.616 55.872 C 57.052 57.600, 56.979 58.300, 58.053 61.270 C 59.137 64.267, 60.658 65.366, 70.542 70.285 C 81.052 75.517, 81.831 75.754, 82.323 73.871 C 83.253 70.315, 81.800 64.997, 79.112 62.123 C 77.676 60.586, 73.931 58.368, 70.791 57.193 C 61.665 53.781, 60.612 53.667, 58.616 55.872 M 123.500 55.929 C 118.678 57.092, 116.131 58.846, 114.401 62.192 C 109.933 70.831, 119.966 81.422, 140.437 89.676 L 148.413 92.892 145.457 94.114 C 143.831 94.787, 138.958 95.536, 134.630 95.780 L 126.759 96.223 137.010 100.696 C 150.321 106.505, 150.293 106.527, 150.658 89.948 C 150.897 79.114, 151.792 71.505, 153.539 65.444 C 154.033 63.730, 153.222 62.943, 148.645 60.702 C 138.872 55.917, 130.295 54.289, 123.500 55.929 M 90.117 65.729 C 88.953 70.689, 88 75.385, 88 76.164 C 88 76.943, 90.138 78.814, 92.750 80.321 C 98.372 83.566, 110.168 89.167, 110.554 88.775 C 110.922 88.401, 100.620 69.900, 95.982 62.605 L 92.235 56.710 90.117 65.729 M 54 62 C 54 62.550, 54.477 63, 55.059 63 C 55.641 63, 55.840 62.550, 55.500 62 C 55.160 61.450, 54.684 61, 54.441 61 C 54.198 61, 54 61.450, 54 62 M 49.499 73.251 C 49.499 81.154, 49.118 83.301, 46.885 88 C 45.447 91.025, 42.860 95.249, 41.136 97.388 C 39.411 99.526, 38 102.244, 38 103.427 C 38 107.027, 41.005 117.411, 42.475 118.892 C 43.653 120.080, 44.164 119.787, 45.950 116.892 C 50.354 109.758, 54.810 91.240, 55.676 76.471 L 56.265 66.442 53.585 65.221 C 52.112 64.549, 50.590 64.001, 50.203 64.001 C 49.816 64.002, 49.500 68.164, 49.499 73.251 M 117.508 96.731 C 120.918 104.919, 125.029 117.739, 125.583 121.912 C 125.954 124.710, 126.611 127, 127.043 127 C 127.475 127, 131.918 122.643, 136.915 117.319 L 146.001 107.638 133.751 102.234 C 116.091 94.445, 116.633 94.629, 117.508 96.731 M 98.892 139.798 C 100.464 142.736, 101.618 143.243, 105.024 142.495 C 108.748 141.677, 108.846 140.435, 105.250 139.649 C 103.737 139.319, 101.436 138.746, 100.137 138.378 C 97.987 137.768, 97.874 137.897, 98.892 139.798" stroke="none" fill="black" fill-rule="evenodd"/>
</svg>