<svg xmlns="http://www.w3.org/2000/svg" width="200" height="200" viewBox="0 0 200 200" version="1.1">
	<path d="M 31.334 13.575 C 29.013 15.896, 28.822 16.659, 29.395 21.325 C 31.245 36.396, 31.276 44.615, 29.497 48.365 C 27.700 52.152, 22.015 56.244, 16.750 57.540 C 13.461 58.349, 13.397 58.864, 16.029 63.325 C 19.177 68.660, 20.805 78.781, 21.939 100.064 C 23.321 126.016, 24.979 135.379, 30.012 145.658 L 34.006 153.816 27.464 163.658 C 20.841 173.623, 19.281 177.028, 20.465 178.943 C 21.675 180.901, 23.537 180.029, 36.540 171.419 C 57.485 157.551, 68.390 152.909, 75.450 154.859 C 79.904 156.089, 81.066 154.626, 77.723 151.997 C 67.892 144.263, 67.626 115.292, 77.137 88.237 C 81.302 76.390, 82.251 75.130, 81.458 82.500 C 81.103 85.800, 80.405 88.650, 79.906 88.833 C 77.325 89.783, 79.804 91.935, 86.750 94.776 C 107.634 103.317, 113.125 110.721, 104.771 119.075 C 102.691 121.155, 101.191 121.878, 99.842 121.450 C 97.163 120.600, 95 122.687, 95 126.122 C 95 129.483, 95.223 129.555, 98.664 127.300 C 101.175 125.655, 101.323 125.679, 103.275 128.050 C 108.729 134.676, 113.025 149.738, 111.610 157.271 C 109.454 168.746, 95.586 173.468, 75.500 169.567 C 71.650 168.819, 68.162 168.412, 67.750 168.663 C 65.859 169.811, 67.486 170.879, 73.383 172.360 C 84.309 175.105, 105.447 175.922, 146.658 175.193 L 185.817 174.500 184.487 170.637 C 182.705 165.459, 178.814 161.596, 172.750 158.988 C 168.774 157.277, 164.764 156.685, 153.378 156.125 C 144.439 155.686, 138.567 154.967, 137.820 154.220 C 135.916 152.316, 139.002 147.057, 146.905 138.737 C 153.711 131.572, 154.069 131.350, 161.690 129.573 C 170.810 127.447, 173 126.462, 173 124.484 C 173 122.899, 172.922 122.875, 158.500 119.970 C 146.779 117.609, 140.097 114.592, 138.003 110.717 C 136.600 108.120, 136.673 107.620, 139.099 103.217 C 140.529 100.623, 144.512 96.103, 147.950 93.174 L 154.200 87.848 161.985 95.424 C 166.267 99.591, 170.407 103, 171.185 103 C 175.310 103, 175.886 98.486, 173.482 85 C 171.031 71.246, 170.102 55.890, 171.181 46.964 C 172.246 38.160, 171.849 36.880, 166.121 30.649 C 162.612 26.833, 159.618 25.761, 156.471 27.195 C 150.672 29.837, 147.422 39.717, 142.470 69.750 C 140.503 81.679, 138.696 91.637, 138.454 91.879 C 138.212 92.121, 138.093 79.085, 138.189 62.909 C 138.378 31.010, 137.455 21.463, 133.630 15.768 C 130.466 11.057, 127.132 10.983, 122.119 15.511 C 119.909 17.509, 116.546 21.483, 114.647 24.344 C 111.435 29.183, 110.791 29.631, 105.416 30.758 L 99.637 31.971 83.569 25.103 C 62.332 16.027, 46.615 11, 39.473 11 C 34.829 11, 33.484 11.425, 31.334 13.575 M 35 14.303 C 32.184 15.734, 31.986 18.266, 33.483 33.611 C 33.919 38.071, 33.966 43.368, 33.588 45.382 C 32.734 49.934, 27.984 55.465, 22.595 58.182 C 20.343 59.317, 18.382 60.346, 18.238 60.468 C 18.094 60.591, 18.842 62.673, 19.901 65.095 C 22.446 70.916, 23.722 80.514, 25 103.425 C 26.455 129.529, 29.415 142.355, 35.878 150.571 L 37.818 153.038 30.409 164.203 C 26.334 170.344, 23 175.750, 23 176.215 C 23 177.055, 25.434 175.586, 42.193 164.631 C 53.187 157.444, 62.912 152.877, 68.580 152.238 C 71.011 151.964, 73 151.658, 73 151.558 C 73 151.458, 72.082 149.475, 70.959 147.152 C 64.630 134.052, 66.720 107.221, 75.929 83.341 C 79.296 74.608, 81.005 72.404, 83.625 73.410 C 84.977 73.928, 85.171 74.988, 84.700 79.271 C 84.383 82.147, 83.815 85.962, 83.437 87.750 C 82.956 90.025, 83.118 91, 83.978 91 C 85.885 91, 101.729 98.641, 104.752 101.020 C 112.079 106.783, 113.039 113.738, 107.373 120.009 L 103.745 124.025 106.316 127.762 C 114.202 139.226, 116.821 154.524, 112.383 163.198 C 110.904 166.088, 105.998 170.224, 101.970 171.976 C 100.165 172.761, 106.476 172.909, 125.412 172.525 C 139.664 172.236, 158.226 172, 166.662 172 C 175.371 172, 182 171.601, 182 171.077 C 182 168.982, 176.266 163.563, 172.101 161.720 C 168.734 160.231, 164.099 159.550, 153.267 158.954 C 136.474 158.030, 133.379 156.856, 134.391 151.795 C 135.179 147.857, 140.371 140.858, 147.671 133.895 C 152.956 128.855, 154.168 128.195, 160.259 127.045 C 163.967 126.346, 167 125.468, 167 125.096 C 167 124.723, 162.838 123.640, 157.750 122.689 C 131.044 117.697, 127.629 106.260, 147.868 89.589 L 154.500 84.126 162.353 92.063 C 166.671 96.428, 170.671 100, 171.239 100 C 172.478 100, 171.865 92.010, 169.475 77 C 168.238 69.235, 167.932 62.765, 168.301 52.162 L 168.798 37.825 164.571 33.412 C 162.245 30.986, 159.794 29, 159.124 29 C 156.699 29, 153.238 34.129, 151.106 40.882 C 149.910 44.674, 147.395 56.940, 145.519 68.139 C 141.185 94.013, 141.028 94.732, 139.413 96.072 C 135.716 99.140, 135.501 97.367, 135.459 63.415 C 135.418 30.011, 134.762 22.599, 131.378 17.250 C 130.595 16.013, 129.126 15, 128.114 15 C 125.855 15, 118.251 22.983, 115.016 28.750 C 112.861 32.591, 112.264 33, 108.816 33 C 106.717 33, 105 33.395, 105 33.879 C 105 35.382, 110.820 37.253, 114.029 36.782 C 116.535 36.415, 116.958 36.619, 116.379 37.917 C 115.612 39.636, 115.622 40.249, 116.578 50.151 C 117.502 59.718, 113.980 68.936, 108.626 70.960 C 102.283 73.358, 101.147 65.476, 106.060 53.167 C 107.744 48.950, 109.779 44.487, 110.583 43.250 C 111.936 41.169, 111.890 41, 109.969 41 C 108.826 41, 102.279 42.341, 95.419 43.981 C 85.218 46.419, 81.850 47.706, 76.921 51.054 C 68.632 56.682, 64.380 58.316, 59.889 57.598 C 56.614 57.075, 55.868 57.369, 53.587 60.079 C 50.291 63.997, 50.334 65.189, 54.143 75.221 C 56.665 81.865, 57.301 85.080, 57.364 91.500 C 57.434 98.663, 57.090 100.209, 54.071 106.277 C 50.026 114.407, 40.050 125.767, 38.045 124.528 C 33.760 121.880, 45.045 29.127, 51.007 17.987 C 51.897 16.323, 51.552 15.965, 48.263 15.137 C 40.754 13.246, 37.483 13.040, 35 14.303 M 56.460 19.292 C 57.483 24.018, 57.454 26.330, 56.369 26.701 C 55.733 26.918, 54.938 25.482, 54.550 23.413 C 54.154 21.306, 53.487 20.115, 52.984 20.620 C 49.715 23.905, 39.914 94.555, 40.045 113.890 L 40.090 120.500 44.425 115.664 C 50.527 108.857, 54.289 100.811, 54.790 93.497 C 55.129 88.549, 54.561 85.580, 51.555 76.597 C 47.517 64.527, 47.640 62.072, 52.543 56.955 C 54.974 54.417, 54.998 54.247, 53.518 50.051 C 51.818 45.233, 51.513 40, 52.933 40 C 53.922 40, 54.429 41.360, 55.541 47 C 56.644 52.595, 57.529 53.129, 62.319 51.089 C 64.618 50.110, 69.650 48.282, 73.500 47.029 C 79.661 45.023, 95.875 35.537, 95.966 33.885 C 96.001 33.249, 74.612 24.062, 62.741 19.615 L 55.983 17.083 56.460 19.292 M 94.884 38.571 L 89.500 42.054 93.364 41.394 C 95.489 41.031, 99.314 40.196, 101.864 39.538 L 106.500 38.342 103.384 36.715 C 100.327 35.118, 100.168 35.152, 94.884 38.571 M 109.695 51.750 C 105.534 61.033, 104.315 69, 107.056 69 C 107.519 69, 109.159 67.348, 110.699 65.328 C 113.106 62.172, 113.550 60.555, 113.856 53.828 C 114.066 49.196, 113.816 46, 113.242 46 C 112.709 46, 111.113 48.587, 109.695 51.750 M 66 52.541 C 61.894 54.307, 61.134 54.917, 63 54.948 C 64.375 54.971, 67.300 53.881, 69.500 52.526 C 74.490 49.453, 73.165 49.458, 66 52.541" stroke="none" fill="black" fill-rule="evenodd"/>
</svg>