<svg xmlns="http://www.w3.org/2000/svg" width="200" height="200" viewBox="0 0 200 200" version="1.1">
	<path d="M 46 17.288 C 41.160 18.840, 32.909 27.374, 29.716 34.129 C 26.454 41.031, 24.606 52, 25.778 57.500 C 26.437 60.591, 26.097 63.432, 24.282 70 C 15.624 101.329, 18.570 119.510, 34.115 130.678 C 38.626 133.919, 38.998 134.506, 38.979 138.344 C 38.948 144.370, 35.076 154.445, 27.577 168.009 C 16.714 187.658, 19.137 188.146, 37.463 170 C 44.684 162.850, 50.940 157, 51.366 157 C 51.791 157, 54.129 158.369, 56.561 160.042 C 61.907 163.720, 70.845 167.977, 73.250 167.990 C 76.023 168.006, 79 164.324, 79 160.878 C 79 159.161, 77.621 151.624, 75.937 144.128 C 71.641 125.019, 71.251 118.942, 73.805 110.950 C 74.939 107.403, 76.843 100.225, 78.036 95 C 80.788 82.952, 83.956 75.170, 85.202 77.397 C 86.825 80.297, 88.202 102.375, 87.541 114.901 C 86.894 127.153, 86.845 127.353, 83.442 131.506 C 73.922 143.123, 77.533 148.128, 94.339 146.608 C 98.278 146.252, 107.800 145.713, 115.500 145.410 C 131.199 144.793, 135.243 145.858, 137.822 151.288 C 139.140 154.065, 139.080 154.649, 136.331 165.709 C 135.664 168.395, 141.375 179.006, 146.041 183.750 C 152.207 190.020, 156.197 187.306, 159.888 174.331 C 167.537 147.445, 168.969 143.990, 174.476 139.155 C 177.216 136.750, 179.012 136, 182.035 136 C 184.893 136, 186 135.581, 186 134.500 C 186 133.365, 184.774 133, 180.968 133 C 173.292 133, 169.281 130.889, 166.951 125.622 C 165.092 121.419, 165.011 119.415, 165.475 88.886 L 165.965 56.595 169.359 50.048 C 171.226 46.446, 173.513 41.160, 174.440 38.301 C 178.265 26.509, 174.328 21.143, 167.377 28.674 C 162.491 33.968, 148.651 62.635, 139.942 85.500 C 131.550 107.534, 125.481 120.203, 121.041 124.956 C 118.199 127.998, 117.745 128.174, 116.345 126.774 C 113.845 124.274, 112.560 111.866, 113.590 100.174 L 114.500 89.848 119.795 88.063 C 129.268 84.868, 136.023 77.471, 133.369 73.197 C 131.430 70.074, 126.725 68.595, 118 68.367 C 113.325 68.244, 107.608 67.464, 105.295 66.632 C 98.153 64.065, 78.909 60.102, 70.500 59.469 C 65.017 59.055, 60.862 59.309, 57.292 60.275 C 53.909 61.191, 51.743 61.343, 51.110 60.710 C 49.471 59.071, 46.783 60.740, 47.487 62.960 C 47.873 64.174, 47.338 65.997, 46.091 67.715 C 42.929 72.073, 42.051 78.207, 42.024 96.114 C 42.011 105.251, 41.545 115.124, 40.990 118.053 C 39.821 124.217, 40.980 126.655, 43.553 123.446 C 48.636 117.106, 53.347 108.683, 55.245 102.542 C 58.113 93.259, 58.122 79.206, 55.264 70.366 L 53.282 64.232 57.007 63.116 C 62.137 61.579, 70.107 61.719, 80.619 63.531 C 89.617 65.081, 107.928 69.806, 109.187 70.902 C 109.564 71.231, 109.004 74.064, 107.942 77.199 C 105.832 83.426, 106.389 87.067, 109.725 88.853 C 111.370 89.733, 111.478 90.735, 110.839 99.164 C 110 110.224, 111.313 124.303, 113.493 127.629 C 114.400 129.014, 116.027 130, 117.404 130 C 123.192 130, 130.711 117.233, 141.553 89 C 154.810 54.475, 168.028 28, 172.006 28 C 175.104 28, 171.351 41.606, 165.499 51.591 L 162.971 55.905 162.736 89.702 C 162.509 122.275, 162.576 123.645, 164.588 127.500 C 165.779 129.780, 168.253 132.392, 170.341 133.573 L 174.005 135.646 171.460 138.038 C 167.566 141.696, 163.384 151.210, 159.609 165 C 155.511 179.969, 154.693 182.180, 152.613 183.906 C 151.244 185.042, 150.595 184.778, 148.042 182.045 C 146.405 180.293, 143.627 176.344, 141.869 173.270 C 138.854 168.002, 138.737 167.431, 139.835 163.326 C 141.921 155.527, 141.376 150.222, 138.158 147.004 C 133.947 142.793, 128.354 141.656, 115.500 142.399 C 83.480 144.249, 82.287 144.273, 81.547 143.076 C 80.311 141.076, 81.740 137.735, 86.057 132.533 L 90.179 127.566 89.762 104.033 C 89.344 80.403, 88.553 74.810, 85.459 73.623 C 82.008 72.299, 79.287 78.041, 74.938 95.829 C 73.233 102.798, 71.139 110.666, 70.284 113.313 C 68.352 119.290, 68.887 125.191, 73.061 143.959 C 76.572 159.748, 76.630 164.339, 73.327 164.809 C 70.778 165.172, 64.833 162.299, 56.632 156.742 L 50.764 152.765 38.323 165.133 L 25.882 177.500 32.845 163.856 C 43.165 143.636, 44.472 134.512, 37.712 129.883 C 32.386 126.235, 27.928 121.701, 26.028 118 C 20.963 108.132, 20.997 93.698, 26.131 74.314 C 30.214 58.901, 30.525 57, 28.968 57 C 26.665 57, 28.526 43.610, 31.802 36.609 C 36.479 26.614, 44.696 19, 50.805 19 C 56.912 19, 58.116 29.298, 53.508 42.115 C 52.048 46.177, 50.774 50.119, 50.677 50.875 C 50.223 54.409, 69.597 57.256, 78.906 55.023 C 91.255 52.060, 93.458 44.520, 84.684 35.250 L 81.608 32 108.554 32.112 C 133.675 32.217, 135.026 32.311, 128.500 33.512 C 124.650 34.220, 118.463 35.115, 114.750 35.501 C 111.037 35.887, 108 36.660, 108 37.218 C 108 40.024, 117.522 60.270, 120.415 63.617 C 123.421 67.095, 123.906 67.323, 125.496 66.003 C 128.146 63.804, 127.063 51.002, 123.584 43.402 C 122.147 40.264, 121.090 37.615, 121.236 37.516 C 121.381 37.417, 125.325 36.783, 130 36.108 C 134.675 35.432, 140.188 34.440, 142.250 33.901 C 146.105 32.896, 147.222 30.683, 144.418 29.607 C 141.980 28.671, 77.187 28.889, 76.602 29.834 C 76.319 30.293, 78.128 32.656, 80.624 35.084 C 85.875 40.195, 88.335 44.368, 87.553 46.834 C 86.510 50.118, 81.009 52.330, 72.687 52.812 C 65.215 53.245, 53.985 51.661, 54.013 50.178 C 54.020 49.805, 55.145 45.995, 56.513 41.712 C 59.787 31.460, 59.876 23.092, 56.750 19.593 C 54.007 16.524, 50.635 15.800, 46 17.288 M 112.979 39.013 C 111.909 39.674, 112.369 41.574, 115.244 48.365 C 117.228 53.052, 119.966 58.528, 121.329 60.534 C 123.544 63.793, 123.875 63.970, 124.439 62.193 C 125.284 59.529, 122.510 46.554, 120.283 42.759 C 118.314 39.405, 115.052 37.732, 112.979 39.013 M 48.754 68.253 C 45.871 72.652, 45.056 78.876, 44.773 98.616 L 44.500 117.732 46.961 114.116 C 54.962 102.358, 57.124 82.094, 51.776 68.985 L 50.432 65.692 48.754 68.253 M 111.136 75.905 C 108.655 81.672, 108.455 84.303, 110.376 85.897 C 111.510 86.838, 111.951 85.693, 112.892 79.369 C 113.519 75.151, 113.862 71.528, 113.653 71.319 C 113.443 71.110, 112.311 73.174, 111.136 75.905 M 116.673 73.166 C 116.339 74.496, 115.766 78.138, 115.399 81.260 L 114.732 86.937 117.989 86.003 C 123.947 84.294, 131 78.844, 131 75.948 C 131 73.270, 128.579 71.915, 122.709 71.309 C 117.592 70.781, 117.245 70.888, 116.673 73.166" stroke="none" fill="black" fill-rule="evenodd"/>
</svg>