<svg xmlns="http://www.w3.org/2000/svg" width="200" height="200" viewBox="0 0 200 200" version="1.1">
	<path d="M 26 16.577 C 26 17.618, 27.343 18, 31 18 C 33.750 18, 36 18.190, 36 18.423 C 36 18.656, 34.588 20.259, 32.861 21.985 L 29.723 25.124 30.454 35.312 C 30.856 40.915, 31.356 49.096, 31.566 53.491 C 31.801 58.442, 32.396 61.632, 33.128 61.876 C 34.024 62.175, 34.139 57.828, 33.606 43.834 C 32.933 26.171, 32.987 25.321, 34.911 23.581 C 37.319 21.402, 44.016 20.540, 49.436 21.712 C 54.189 22.740, 54.476 23.537, 55.988 39.924 C 57.300 54.142, 59.460 62.210, 62.955 65.952 L 65.619 68.804 62.192 71.539 C 57.595 75.206, 54.197 82.963, 53.434 91.530 C 52.243 104.903, 57.541 120.398, 64.529 123.978 C 66.163 124.815, 67.725 125.653, 68 125.840 C 68.570 126.227, 65.603 128.730, 55.198 136.639 C 40.282 147.979, 27.822 153.581, 23.117 151.063 C 17.559 148.088, 18.675 128.112, 24.406 128.015 C 26.141 127.986, 32.012 122.877, 33.404 120.185 C 37.369 112.518, 35.803 98.607, 28.845 79.699 C 26.634 73.691, 25.040 67.955, 25.302 66.952 C 25.814 64.994, 23.243 63.357, 21.848 64.752 C 21.398 65.202, 23.262 72.079, 25.991 80.035 C 34.356 104.425, 35.006 115.194, 28.504 121.696 C 26.680 123.520, 23.824 125.285, 22.158 125.618 C 18.441 126.362, 17.964 127.488, 17.275 137.142 C 16.346 150.148, 18.556 154, 26.946 154 C 33.267 154, 42.956 149.117, 56.063 139.326 C 74.228 125.757, 81.136 118.216, 71.895 122.044 C 66.037 124.470, 60.473 118.846, 57.544 107.540 C 54.195 94.613, 56.396 81.369, 62.987 74.778 C 66.589 71.175, 67.069 71, 73.323 71 C 82.597 71, 83.972 68.146, 74.840 67.854 C 63.777 67.499, 60.401 61.161, 58.445 37.077 C 58.069 32.445, 57.396 27.382, 56.950 25.827 C 56.258 23.414, 56.425 23, 58.087 23 C 59.885 23, 77.231 26.467, 81.256 27.631 C 82.771 28.069, 82.981 29.261, 82.787 36.319 C 82.664 40.819, 82.935 54.400, 83.389 66.500 C 83.998 82.725, 83.901 89.681, 83.017 93 C 82.359 95.475, 81.748 103.350, 81.660 110.500 C 81.510 122.715, 81.274 124.153, 77.758 134.309 C 75.700 140.255, 70.363 152.783, 65.899 162.151 C 56.735 181.381, 56.604 183.296, 64.746 178.982 C 88.222 166.541, 105.677 137.994, 111.176 103.042 C 111.872 98.619, 112.752 95, 113.132 95 C 114.611 95, 119.459 101.789, 122.056 107.500 C 123.558 110.800, 126.894 120.475, 129.471 129 C 132.047 137.525, 135.403 147.713, 136.929 151.641 C 140.145 159.924, 147.696 171.725, 152.210 175.523 C 155.092 177.948, 155.822 178.105, 161.420 177.499 C 170.825 176.481, 175.067 175.087, 178.158 171.996 C 181.739 168.415, 181.743 165.560, 178.174 159.946 C 174.094 153.527, 165.952 146.336, 148 133.294 C 143.451 129.990, 141.695 127.760, 137.846 120.399 C 132.231 109.661, 129.686 102.388, 130.462 99.296 C 131.253 96.145, 134.784 96.277, 149.029 99.991 C 155.338 101.636, 163.425 103.265, 167 103.610 L 173.500 104.239 173.624 93.370 C 173.701 86.588, 174.735 76.930, 176.374 67.689 C 181.617 38.119, 179.245 27.495, 165.338 18.261 C 160.377 14.967, 159.565 14.726, 156.863 15.746 C 154.013 16.822, 89.453 16.721, 42.750 15.568 C 28.739 15.222, 26 15.387, 26 16.577 M 158.140 19.332 C 156.100 21.790, 146.566 26.407, 139 28.601 C 131.107 30.891, 130.112 32.013, 134.881 33.249 C 139.970 34.568, 147.325 40.310, 150.471 45.422 C 153.290 50.001, 153.500 51.008, 153.500 59.922 C 153.500 77.123, 149.434 85.460, 139.776 88.060 C 131.781 90.213, 119.168 86.541, 111.561 79.845 C 98.748 68.566, 100.067 54.346, 115.286 39.705 L 122.500 32.765 117 33.530 C 109.714 34.544, 111.013 34.677, 98.150 31.590 C 91.908 30.092, 86.508 29.158, 86.150 29.515 C 85.266 30.396, 85.369 45.719, 86.409 68 C 87.073 82.237, 86.968 87.883, 85.956 92.500 C 85.233 95.800, 84.603 104.125, 84.556 111 C 84.477 122.684, 84.232 124.194, 80.801 134.139 C 78.782 139.990, 73.769 151.915, 69.661 160.639 C 65.554 169.363, 62.337 176.650, 62.513 176.834 C 62.690 177.017, 65.431 175.506, 68.605 173.476 C 88.861 160.519, 103.299 134.396, 108.738 100.865 C 109.707 94.891, 110.849 90.002, 111.276 90.001 C 111.703 90.001, 114.110 92.057, 116.625 94.572 C 122.558 100.506, 126.622 109.470, 132.457 129.500 C 137.808 147.866, 144.830 163.266, 151.094 170.375 L 155.391 175.251 162.192 174.619 C 175.915 173.343, 180.333 169.488, 176.414 162.211 C 173.948 157.631, 161.845 146.582, 150.101 138.191 C 141.193 131.825, 140.449 131.005, 135.840 122.487 C 133.166 117.544, 130.027 110.421, 128.864 106.657 C 126.754 99.831, 126.754 99.807, 128.723 97.157 C 131.501 93.420, 135.075 93.375, 148.329 96.912 C 154.585 98.582, 162.245 100.246, 165.352 100.612 L 171 101.275 171 92.267 C 171 87.313, 171.917 77.977, 173.038 71.520 C 176.588 51.076, 177.092 45.190, 175.883 38.247 C 174.612 30.954, 170.870 25.236, 164.471 20.812 C 159.857 17.622, 159.607 17.564, 158.140 19.332 M 69.094 22.164 L 83.688 25.158 86.767 22.079 L 89.846 19 72.173 19.085 L 54.500 19.170 69.094 22.164 M 98 20.449 C 110.770 25.413, 117.170 27.242, 123.406 27.708 C 130.243 28.219, 130.799 28.085, 138.750 24.015 C 143.287 21.691, 147 19.613, 147 19.395 C 147 19.178, 135.188 19.020, 120.750 19.044 C 97.534 19.083, 94.904 19.245, 98 20.449 M 88.558 23.935 C 86.862 25.810, 86.928 25.903, 90.653 26.903 C 103.372 30.314, 110.168 31.464, 115.558 31.116 L 121.500 30.732 115.500 29.455 C 112.200 28.753, 106.262 26.789, 102.305 25.089 C 93.953 21.503, 90.985 21.254, 88.558 23.935 M 120.976 38.323 C 104.469 51.326, 100.994 64.529, 111.171 75.570 C 117.196 82.106, 124.602 85.370, 133.572 85.442 C 143.263 85.519, 145.674 83.781, 148.853 74.425 C 154.819 56.862, 150.223 42.914, 136.500 36.943 C 128.428 33.431, 127.028 33.556, 120.976 38.323" stroke="none" fill="black" fill-rule="evenodd"/>
</svg>