<svg xmlns="http://www.w3.org/2000/svg" width="200" height="200" viewBox="0 0 200 200" version="1.1">
	<path d="M 65.705 15.481 C 54.252 16.911, 28.699 20.991, 28.208 21.468 C 28.047 21.624, 29.336 22.947, 31.073 24.408 L 34.231 27.065 30.962 36.783 C 26.974 48.638, 26.175 60.977, 27.854 84.783 C 28.464 93.427, 29.250 107.588, 29.602 116.250 C 29.954 124.912, 30.638 132, 31.121 132 C 32.514 132, 32.144 103.863, 30.457 81.400 C 29.279 65.725, 29.164 59.039, 29.970 53.179 C 31.103 44.947, 35.629 30, 36.989 30 C 37.443 30, 39.733 32.362, 42.079 35.250 C 44.424 38.138, 50.260 44.550, 55.047 49.500 C 64.249 59.016, 66.014 62.310, 65.978 69.899 C 65.947 76.372, 62.945 82.251, 56.412 88.629 C 53.318 91.649, 50.948 94.237, 51.144 94.380 C 51.340 94.523, 54.057 95.864, 57.182 97.360 C 73.784 105.308, 75.049 121.342, 60.317 137.092 C 48.953 149.241, 32.557 154.597, 23.626 149.078 C 20.658 147.244, 17.071 141.745, 15.584 136.750 C 14.865 134.336, 13 134.545, 13 137.040 C 13 140.278, 16.570 146.415, 20.420 149.795 C 29.824 158.053, 47.300 153.875, 61.064 140.079 C 69.170 131.955, 72.313 125.764, 72.826 116.913 C 73.395 107.079, 69.184 100.192, 59.630 95.337 C 57.909 94.462, 56.382 93.647, 56.237 93.526 C 56.092 93.406, 57.554 91.632, 59.486 89.584 C 66.248 82.414, 68.500 77.334, 68.500 69.250 C 68.500 65.263, 68.732 62.112, 69.015 62.250 C 69.298 62.388, 72.111 64.068, 75.265 65.984 C 80.534 69.184, 82.300 71, 80.144 71 C 79.673 71, 77.238 72.565, 74.733 74.478 C 69.967 78.117, 64 88.185, 64 92.589 C 64 94.523, 64.775 95.017, 69.250 95.934 C 80.699 98.281, 98.328 100.132, 114.627 100.699 L 131.755 101.295 132.809 104.728 C 133.738 107.757, 133.667 108.086, 132.201 107.524 C 131.287 107.173, 126.148 107.882, 120.781 109.099 C 111.269 111.255, 110.890 111.267, 105.761 109.556 C 102.868 108.590, 97.532 107.564, 93.904 107.277 C 87.641 106.780, 87.137 106.906, 83.937 109.765 C 80.778 112.587, 80.577 113.148, 80.730 118.683 C 80.898 124.752, 82.127 129.017, 90.906 153.996 C 96.494 169.896, 97.220 175.586, 94.032 178.471 C 92.264 180.071, 91.303 180.139, 84.616 179.145 C 80.520 178.536, 74.881 177.135, 72.084 176.033 C 69.288 174.931, 67.007 174.360, 67.015 174.765 C 67.107 179.151, 76.721 181.842, 99 183.714 C 112.481 184.847, 117.981 185.687, 119.274 186.811 C 120.633 187.993, 121.322 188.078, 122.224 187.176 C 122.958 186.442, 126.984 185.993, 132.950 185.983 C 154.517 185.944, 170.207 182.947, 175.250 177.904 C 178.905 174.249, 178.442 171.080, 173.526 166.102 L 170.171 162.704 165.004 166.497 C 159.338 170.656, 152.908 173.286, 150.585 172.394 C 148.062 171.426, 146.695 165.219, 147.285 157.413 C 147.931 148.869, 146.543 145.486, 143.436 148.038 C 141.111 149.946, 133.704 161.306, 126.912 173.381 C 123.935 178.671, 121.022 183, 120.438 183 C 118.703 183, 108.752 170.506, 105.250 163.929 C 101.412 156.721, 101.147 153.112, 104.250 150.336 C 107.790 147.170, 111.371 146.179, 129 143.491 C 150.711 140.181, 157.048 138.047, 163.078 132.017 C 168.450 126.646, 169.834 122.523, 167.677 118.323 C 165.994 115.045, 160.981 99.465, 161.041 97.698 C 161.064 97.039, 163.313 95.454, 166.039 94.175 C 175.033 89.957, 180 83.146, 180 75.032 L 180 71 171.957 71 C 167.533 71, 157.746 71.676, 150.207 72.502 L 136.500 74.003 130.520 71.561 C 119.796 67.182, 121.440 66.376, 142.639 65.622 C 158.187 65.069, 164 63.572, 164 60.119 C 164 57.762, 160.964 55.487, 151.442 50.710 C 147.561 48.762, 143.812 46.479, 143.112 45.636 C 142.013 44.311, 142.569 43.890, 147.205 42.543 C 150.156 41.685, 159.042 40.424, 166.952 39.741 C 175.359 39.016, 181.484 38.048, 181.696 37.412 C 182.393 35.322, 162.049 26.926, 150.388 24.491 C 136.970 21.689, 127.894 24.226, 122.704 32.230 C 119.405 37.318, 118.575 42.800, 119.290 54.785 L 119.855 64.251 109.169 63.811 C 103.293 63.569, 97.652 62.905, 96.635 62.335 C 94.971 61.404, 95.309 60.859, 100.009 56.900 C 110.164 48.347, 108.789 44.072, 94.890 40.989 L 89.279 39.744 97.023 35.869 C 111.281 28.732, 116.822 20.553, 110.297 16.273 C 108.039 14.791, 105.040 14.470, 92.047 14.317 C 83.496 14.216, 71.642 14.740, 65.705 15.481 M 78.152 16.988 C 59.517 18.636, 28.364 23.641, 34.904 23.937 C 37.607 24.059, 58.504 44.959, 62.795 51.833 C 64.657 54.815, 68.305 58.035, 74.500 62.162 L 83.500 68.159 89.500 67.511 C 96.068 66.802, 98.379 65.572, 95.101 64.532 C 91.271 63.317, 92.517 59.655, 98.500 54.544 C 101.525 51.960, 104 49.182, 104 48.372 C 104 46.291, 98.353 44.182, 88.821 42.703 C 80.109 41.351, 77.786 39.616, 83.197 38.502 C 88.596 37.391, 102.218 30.411, 106.250 26.691 C 110.603 22.673, 111.040 19.795, 107.538 18.199 C 104.076 16.622, 89.218 16.009, 78.152 16.988 M 131.405 27.904 C 125.077 30.777, 122.688 35.503, 122.179 46.149 C 121.948 50.968, 122.070 56.979, 122.449 59.507 L 123.138 64.102 136.819 63.480 C 152.275 62.776, 161.290 61.369, 160.748 59.745 C 160.548 59.145, 156.361 56.499, 151.442 53.865 C 138.287 46.821, 136.467 43.631, 143.904 40.655 C 148.232 38.923, 160.918 37, 168.013 37 C 170.691 37, 173.125 36.606, 173.423 36.125 C 174.077 35.066, 157.593 28.671, 150.201 27.115 C 142.549 25.505, 136.090 25.776, 131.405 27.904 M 117.750 67.662 C 118.438 67.940, 119.563 67.940, 120.250 67.662 C 120.938 67.385, 120.375 67.158, 119 67.158 C 117.625 67.158, 117.063 67.385, 117.750 67.662 M 92.500 69.943 C 90.821 70.617, 91.203 70.939, 94.880 71.947 C 101.799 73.843, 109.979 74.988, 116.656 74.994 C 122.229 74.999, 122.765 74.819, 122.312 73.086 C 121.930 71.625, 120.337 70.916, 115.574 70.086 C 108.417 68.840, 95.449 68.760, 92.500 69.943 M 78.392 75.250 C 73.562 78.498, 68.657 85.178, 67.475 90.119 C 66.929 92.402, 67.212 92.807, 69.672 93.278 C 71.225 93.574, 72.768 93.375, 73.102 92.835 C 73.881 91.574, 98.918 84.696, 113.086 81.849 C 119.089 80.643, 124 79.284, 124 78.828 C 124 78.373, 121.558 78, 118.572 78 C 110.631 78, 98.822 76.175, 92.347 73.947 C 84.861 71.372, 84.047 71.448, 78.392 75.250 M 125.271 73.329 C 125.483 73.973, 126.684 74.650, 127.939 74.834 C 130.706 75.239, 129.891 73.466, 126.958 72.699 C 125.638 72.354, 125.026 72.582, 125.271 73.329 M 149.214 75.243 C 142.449 76.030, 141.132 76.455, 142.044 77.553 C 142.658 78.292, 144.811 79.424, 146.830 80.067 C 151.313 81.496, 156.437 86.183, 158.106 90.381 C 158.787 92.097, 159.430 93.625, 159.534 93.778 C 159.950 94.391, 165.722 91.736, 169.254 89.305 C 173.525 86.367, 176.459 81.994, 177.344 77.250 L 177.950 74 167.725 74.139 C 162.101 74.216, 153.771 74.713, 149.214 75.243 M 127.500 78 C 127.116 78.621, 129.009 79, 132.500 79 C 135.991 79, 137.884 78.621, 137.500 78 C 137.160 77.450, 134.910 77, 132.500 77 C 130.090 77, 127.840 77.450, 127.500 78 M 131.703 81.698 C 128.710 82.036, 128.011 82.484, 128.405 83.813 C 128.680 84.741, 129.211 86.782, 129.586 88.348 C 130.191 90.882, 130.595 91.131, 133.239 90.602 C 139.727 89.305, 144.658 85.258, 142.446 83.046 C 141.140 81.740, 136.496 81.157, 131.703 81.698 M 112.500 84.637 C 109.200 85.415, 100.875 87.503, 94 89.276 L 81.500 92.500 99.500 92.804 C 109.400 92.971, 119.882 92.824, 122.793 92.476 C 128.520 91.794, 128.423 92.018, 125.891 85.250 C 124.895 82.588, 121.790 82.446, 112.500 84.637 M 146 84.365 C 146 87.134, 141.836 90.894, 136.987 92.504 C 131.788 94.231, 131.455 94.591, 132.919 96.903 C 133.615 98.002, 135.369 98.160, 141.038 97.633 C 148.476 96.942, 157 95.144, 157 94.267 C 157 92.370, 152.029 85.549, 149.810 84.402 C 146.443 82.660, 146 82.656, 146 84.365 M 106.500 95.937 L 91.500 96.500 100 97.244 C 114.096 98.478, 130.236 98.210, 129.756 96.750 C 129.272 95.278, 126.568 95.183, 106.500 95.937 M 144.351 99.775 L 134.202 101.253 138.018 110.377 C 140.118 115.395, 141.535 119.802, 141.168 120.172 C 140.800 120.542, 133.750 123.128, 125.500 125.919 C 110.245 131.080, 104 132.159, 104 129.636 C 104 128.202, 106.079 126.665, 120.129 117.704 C 128.124 112.605, 131.240 110, 129.341 110 C 128.914 110, 124.803 110.959, 120.206 112.132 L 111.848 114.264 104.510 112.132 C 95.700 109.572, 87.805 109.338, 85.573 111.570 C 81.431 115.712, 82.402 121.856, 90.906 145.322 C 98.314 165.764, 99.938 173.413, 97.786 177.726 L 96.281 180.744 102.287 181.372 C 105.591 181.717, 109.801 182, 111.643 182 L 114.992 182 110.150 175.992 C 96.469 159.014, 96.061 148.782, 108.894 144.544 C 111.427 143.708, 119.575 142.122, 127 141.021 C 148.625 137.814, 155.175 135.805, 160.845 130.637 C 166.354 125.617, 166.420 124.290, 161.855 110.535 C 158.746 101.170, 157.290 98.037, 156.097 98.148 C 155.219 98.229, 149.933 98.961, 144.351 99.775 M 130.948 113 C 128.994 114.925, 123.456 118.913, 118.642 121.861 C 113.828 124.810, 110.058 127.391, 110.264 127.597 C 110.899 128.232, 138 118.876, 138 118.022 C 138 117.580, 137.213 115.482, 136.250 113.359 L 134.500 109.500 130.948 113 M 140.192 156.750 C 136.393 162.376, 125 181.747, 125 182.579 C 125 183.371, 145.488 182.986, 153.716 182.040 C 164.569 180.792, 169.407 179.414, 172.612 176.657 C 175.468 174.200, 175.382 172.300, 172.233 168.296 L 170.500 166.092 164.704 170.009 C 155.326 176.347, 148.350 176.626, 145.877 170.763 C 145.013 168.715, 144.572 164.427, 144.694 159.250 C 144.801 154.713, 144.705 151, 144.481 151 C 144.258 151, 142.327 153.588, 140.192 156.750" stroke="none" fill="black" fill-rule="evenodd"/>
</svg>