<svg xmlns="http://www.w3.org/2000/svg" width="200" height="200" viewBox="0 0 200 200" version="1.1">
	<path d="M 37.013 10.448 C 35.644 11.205, 34.182 11.612, 33.763 11.353 C 33.343 11.094, 32.997 13.271, 32.994 16.191 C 32.985 24.569, 30.334 40.046, 25.748 58.492 L 21.520 75.500 21.510 98 L 21.500 120.500 24.175 125 C 31.174 136.773, 33.338 153.570, 29.549 166.713 C 26.290 178.015, 27.593 178.215, 47.943 169.524 C 55.213 166.420, 62.380 164, 64.304 164 C 66.631 164, 68.536 163.192, 70.251 161.476 C 74.824 156.903, 75.426 152.035, 75.465 119.334 C 75.484 102.743, 75.788 88.880, 76.140 88.527 C 76.492 88.175, 78.794 89.306, 81.256 91.041 L 85.732 94.196 86.454 113.153 C 86.851 123.579, 86.852 141.462, 86.457 152.893 C 85.651 176.183, 86.286 180.532, 90.655 181.628 C 94.389 182.565, 97.504 180.405, 105.909 171.052 C 125.361 149.404, 128.120 147, 133.507 147 C 135.639 147, 136.479 147.829, 138.132 151.565 C 140.781 157.553, 140.788 161.277, 138.163 168.225 C 135.427 175.468, 135.373 180.373, 138 183 C 140.510 185.510, 142.082 185.509, 147.012 182.994 C 158.751 177.005, 170.538 159.601, 174.619 142.230 C 176.602 133.794, 176.024 117.586, 173.507 111 C 172.560 108.525, 171.722 104.475, 171.643 102 C 171.505 97.668, 171.321 97.411, 166.694 95.117 C 162.417 92.996, 160.134 92.678, 145.944 92.225 L 130 91.716 130 86.833 C 130 82.446, 130.275 81.846, 132.705 80.922 C 134.923 80.079, 137.397 80.553, 146.440 83.557 C 165.280 89.816, 178 89.360, 178 82.427 C 178 74.567, 164.663 61.104, 149.397 53.556 L 142.831 50.309 155.166 48.056 C 174.124 44.592, 178.305 43.584, 178.707 42.380 C 178.962 41.614, 174.344 41.108, 163.788 40.745 C 145.725 40.125, 137.248 37.985, 131.543 32.605 C 128.234 29.485, 128 28.858, 128 23.132 C 128 18.500, 127.652 17, 126.579 17 C 124.522 17, 123.662 22.351, 124.844 27.794 C 126.210 34.077, 127.137 49, 126.162 49 C 125.324 49, 104.750 41.084, 104.226 40.559 C 104.051 40.384, 106.824 38.160, 110.389 35.617 C 117.926 30.239, 121 26.366, 121 22.251 C 121 14.085, 106.383 10.843, 70.453 11.041 C 57.657 11.111, 49.410 10.755, 48.142 10.076 C 45.392 8.604, 40.019 8.784, 37.013 10.448 M 44.688 14.855 C 43.165 15.456, 43.445 15.842, 46.438 17.269 C 50.263 19.093, 50.569 18.932, 48.965 15.934 C 47.852 13.855, 47.470 13.758, 44.688 14.855 M 52.437 16.650 C 52.825 18.217, 53.447 19.804, 53.821 20.175 C 54.542 20.893, 72.712 28.457, 89.790 35.150 L 100.080 39.183 106.539 34.975 C 113.234 30.613, 119 24.896, 119 22.620 C 119 20.342, 115.637 18.145, 109.471 16.395 C 104.798 15.069, 97.874 14.603, 77.616 14.250 L 51.733 13.800 52.437 16.650 M 35.522 21.750 C 34.251 33.506, 32.692 41.908, 28.923 57.315 C 24.168 76.753, 22.635 90.677, 23.505 106.500 C 24.078 116.912, 24.537 119.228, 26.969 124 C 33.841 137.480, 35.859 153.038, 32.444 166.216 C 31.588 169.519, 31.135 172.468, 31.437 172.771 C 31.739 173.073, 38.492 170.548, 46.443 167.160 C 55.210 163.425, 62.319 161, 64.506 161 C 67.834 161, 68.282 160.633, 70.306 156.250 C 72.401 151.715, 72.515 150.003, 72.820 118.457 L 73.141 85.414 63.745 77.314 L 54.349 69.215 55.674 74.325 C 58.601 85.606, 55.842 98.929, 49.115 106 C 44.934 110.395, 43.087 110.894, 40.789 108.250 C 37.008 103.899, 37.932 95.006, 44.082 76.553 C 46.271 69.982, 47.809 63.943, 47.498 63.133 C 46.696 61.045, 48.796 60.035, 54 60.004 C 56.475 59.990, 60.133 59.708, 62.130 59.378 L 65.759 58.777 61.922 55.311 C 56.525 50.434, 54.697 45.202, 51.465 25.374 C 51.017 22.621, 50.123 21.876, 43.969 19.124 C 40.126 17.406, 36.794 16, 36.563 16 C 36.333 16, 35.864 18.587, 35.522 21.750 M 54.357 26.632 C 54.669 28.209, 55.453 32.425, 56.100 36 C 58.976 51.901, 64.948 58.011, 77.588 57.986 C 87.029 57.968, 88.794 57.324, 90.940 53.118 L 92.789 49.493 90.144 49.497 C 85.820 49.502, 86.201 47.691, 91.196 44.500 C 93.778 42.850, 95.910 41.275, 95.932 41 C 95.963 40.623, 61.011 26.271, 54.850 24.132 C 54.182 23.900, 53.999 24.826, 54.357 26.632 M 129 41.958 C 129 48.969, 129.012 49, 131.750 49.018 C 136.860 49.053, 159.003 44.620, 157.737 43.816 C 157.057 43.384, 154.990 43.024, 153.144 43.015 C 148.054 42.992, 138.014 40.150, 133.250 37.384 L 129 34.916 129 41.958 M 96.980 44.161 C 94.734 45.419, 94.275 45.953, 95.685 45.666 C 98.189 45.156, 99.645 47.530, 97.562 48.724 C 96.817 49.151, 95.175 51.257, 93.914 53.404 L 91.621 57.308 96.560 56.699 C 99.277 56.364, 107.350 55.774, 114.500 55.387 C 121.650 55.001, 126.825 54.476, 126 54.222 C 125.175 53.967, 123.825 52.967, 123 51.998 C 122.175 51.030, 119.025 49.327, 116 48.215 C 112.975 47.102, 108.241 45.296, 105.480 44.201 C 100.497 42.225, 100.435 42.225, 96.980 44.161 M 139 54.865 C 150.180 60.875, 151.698 64.886, 144.220 68.660 C 141.866 69.848, 137.704 71.128, 134.970 71.504 C 130.117 72.172, 130 72.268, 130 75.594 C 130 79.327, 130.214 79.491, 133.083 77.956 C 134.592 77.148, 137.471 77.697, 145.767 80.373 C 159.029 84.651, 167.545 86.238, 171.500 85.168 C 177.671 83.498, 175.652 77.773, 165.487 68.118 C 157.543 60.571, 144.659 53.347, 137.500 52.424 L 133.500 51.909 139 54.865 M 130 58.535 C 130 59.807, 130.385 59.870, 132.250 58.900 C 135.559 57.178, 135.598 57, 132.667 57 C 130.936 57, 130 57.539, 130 58.535 M 101.178 59.048 C 96.050 59.468, 91.673 59.994, 91.450 60.216 C 90.474 61.192, 89.039 75.308, 89.032 84 L 89.025 93.500 96.262 97.639 C 102.490 101.201, 112.457 106, 113.627 106 C 113.832 106, 114 104.659, 114 103.019 C 114 99.524, 116.667 98.424, 123.060 99.281 C 126.701 99.770, 127 99.627, 127 97.405 C 127 95.044, 126.835 95, 118.065 95 C 108.409 95, 104 93.918, 104 91.548 C 104 89.421, 107.847 87.157, 117.831 83.410 C 126.344 80.214, 126.506 80.091, 126.810 76.578 C 127.102 73.213, 126.945 73, 124.171 73 C 122.549 73, 120.215 72.185, 118.984 71.188 C 115.803 68.612, 117.105 65.612, 122.546 62.978 C 124.996 61.792, 127 60.187, 127 59.411 C 127 57.818, 117.788 57.688, 101.178 59.048 M 134.250 61.030 C 130.435 62.725, 130 63.272, 130 66.370 L 130 69.823 136.078 68.405 C 146.320 66.015, 148.424 63.818, 143.535 60.615 C 140.491 58.620, 139.581 58.661, 134.250 61.030 M 81.062 64.372 C 78.709 69.232, 75.629 82.590, 76.526 84.042 C 76.843 84.555, 79.036 86.305, 81.400 87.931 L 85.699 90.889 86.349 79.194 C 86.707 72.762, 87.284 65.813, 87.631 63.750 C 88.222 60.235, 88.103 60, 85.720 60 C 83.708 60, 82.737 60.911, 81.062 64.372 M 68.500 61.650 C 66.850 61.843, 62.579 62.273, 59.009 62.606 L 52.519 63.211 59.025 69.355 C 62.603 72.735, 67.437 77, 69.766 78.834 C 73.936 82.118, 74 82.133, 74 79.812 C 74 77.552, 76.925 66.390, 78.471 62.750 C 79.110 61.245, 78.674 61.021, 75.357 61.150 C 73.236 61.232, 70.150 61.457, 68.500 61.650 M 123.230 65.823 C 119.664 67.523, 119.474 68.891, 122.641 70.063 C 125.478 71.112, 127.221 69.744, 126.830 66.773 C 126.505 64.300, 126.452 64.287, 123.230 65.823 M 48.594 71.500 C 46.465 76.505, 42.348 91.113, 41.483 96.728 C 40.685 101.906, 41.689 107, 43.507 107 C 45.792 107, 50.700 100.084, 52.520 94.299 C 54.535 87.891, 54.180 76.623, 51.785 71 L 50.295 67.500 48.594 71.500 M 117.045 86.548 C 112.395 88.452, 108.143 90.457, 107.595 91.005 C 106.935 91.665, 110.032 92, 116.800 92 L 127 92 127 87.500 C 127 85.025, 126.662 83.020, 126.250 83.043 C 125.838 83.067, 121.695 84.644, 117.045 86.548 M 130.006 97.631 C 130.011 99.768, 130.776 100.935, 133.006 102.203 C 137.555 104.792, 136.439 109.299, 130.750 111.317 C 129.461 111.774, 128.991 113.065, 128.965 116.219 C 128.911 122.851, 126.325 135.855, 124.509 138.627 C 123.426 140.280, 122.135 141.017, 120.687 140.811 C 117.574 140.368, 115.212 132.523, 114.266 119.493 L 113.500 108.939 106 105.663 C 101.875 103.861, 96.596 101.175, 94.270 99.693 C 91.943 98.212, 89.820 97, 89.550 97 C 89.155 97, 88.659 139.131, 88.719 167.648 C 88.755 184.724, 91.406 183.687, 114.460 157.573 C 122.013 149.018, 128.875 144, 133.021 144 C 136.132 144, 139.308 147.099, 141.450 152.226 C 143.632 157.447, 143.528 161.611, 141.048 168.372 C 138.375 175.658, 138.596 181.371, 141.568 181.796 C 142.706 181.958, 145.844 180.608, 148.540 178.796 C 158.173 172.321, 167.960 157.124, 171.569 143.037 C 173.800 134.330, 173.160 117.723, 170.290 109.866 C 169.159 106.767, 168.458 103.054, 168.733 101.614 C 169.580 97.184, 164.392 95.738, 145.750 95.208 L 130 94.761 130.006 97.631 M 117 104.481 C 117 106.322, 117.645 107.096, 119.500 107.481 C 120.875 107.766, 123.125 108.234, 124.500 108.519 C 126.791 108.995, 127 108.744, 127 105.519 L 127 102 122 102 C 117.344 102, 117 102.170, 117 104.481 M 130 105.917 C 130 107.145, 130.646 108, 131.573 108 C 132.505 108, 133.015 107.320, 132.823 106.333 C 132.337 103.824, 130 103.480, 130 105.917 M 117.246 119.743 C 117.826 130.276, 119.674 138.275, 121.395 137.702 C 121.978 137.507, 123.018 135.408, 123.704 133.037 C 125.254 127.684, 126.963 112.721, 126.122 111.878 C 125.780 111.536, 123.521 110.957, 121.103 110.592 L 116.705 109.929 117.246 119.743" stroke="none" fill="black" fill-rule="evenodd"/>
</svg>