<svg xmlns="http://www.w3.org/2000/svg" width="200" height="200" viewBox="0 0 200 200" version="1.1">
	<path d="M 30.564 13.897 C 30.220 14.453, 30.016 18.641, 30.110 23.204 C 30.254 30.222, 29.555 34.272, 25.569 49.490 C 22.977 59.385, 20.423 69.735, 19.893 72.490 C 17.464 85.110, 20.096 121.334, 23.599 123.500 C 27.973 126.204, 30.365 128.630, 31.621 131.636 C 34.935 139.568, 32.224 151.619, 22.982 170.036 C 18.905 178.160, 18.243 180.156, 19.468 180.626 C 21.247 181.309, 27.329 176.362, 37.975 165.575 C 42.086 161.409, 45.823 158, 46.280 158 C 46.736 158, 50.117 159.814, 53.794 162.031 C 66.948 169.965, 72 169.472, 72 160.256 C 72 157.817, 71.023 150.350, 69.829 143.661 C 66.808 126.737, 66.839 110.671, 69.909 102.500 C 71.149 99.200, 73.053 93.170, 74.141 89.101 C 76.527 80.169, 80.505 72, 82.468 72 C 86.308 72, 94.685 74.430, 96.150 75.968 C 97.134 77.003, 100.141 77.976, 103.608 78.384 C 113.832 79.585, 113.641 79.447, 116.966 88.068 C 121.288 99.275, 121.022 102.900, 115.732 104.912 C 111.612 106.478, 98.322 103.321, 89.220 98.614 C 87.511 97.730, 85.894 97.363, 85.625 97.798 C 85.356 98.232, 86.447 101.268, 88.050 104.544 C 92.278 113.191, 94.102 121.286, 94.121 131.500 C 94.151 147.496, 88.366 160.064, 75.682 171.557 L 69.500 177.159 72.306 179.579 C 75.403 182.252, 81.484 182.854, 85.316 180.868 C 95.658 175.507, 108.270 158.443, 122.110 131.088 L 128.985 117.500 129.006 132 C 129.049 162.219, 136.160 179.268, 150.728 184.075 C 157.918 186.448, 171.337 183.234, 181.787 176.635 C 187.976 172.728, 186.001 171.244, 179.497 174.915 C 148.822 192.227, 132.084 177.688, 131.818 133.500 C 131.772 125.800, 132.071 116.462, 132.483 112.750 C 133.408 104.423, 131.523 103.455, 128.597 110.754 C 127.551 113.364, 123.622 121.679, 119.866 129.231 C 104.006 161.120, 89.261 179.400, 79.399 179.400 C 73.223 179.400, 73.454 177.822, 80.717 170.411 C 91.971 158.927, 97 146.893, 97 131.450 C 97 123.148, 94.433 110.673, 91.597 105.187 L 90.082 102.258 98.291 105.116 C 108.872 108.799, 115.785 108.950, 119.694 105.584 C 122.103 103.511, 122.480 102.484, 122.358 98.330 C 122.280 95.669, 121.042 90.603, 119.608 87.073 C 118.174 83.543, 117 80.555, 117 80.433 C 117 80.311, 118.687 80.602, 120.750 81.081 C 122.813 81.560, 126.855 81.963, 129.734 81.976 C 134.672 81.999, 155.783 85.922, 162.652 88.094 L 165.804 89.090 164.217 93.128 C 162.980 96.279, 162.855 98.003, 163.648 100.974 C 164.585 104.487, 164.367 105.274, 160.823 111.141 C 152.946 124.184, 150.788 134.428, 154.562 140.855 C 155.986 143.279, 158.488 145.070, 164 147.611 C 179.737 154.865, 180.446 155.317, 181.457 158.750 C 182.668 162.864, 184 162.943, 184 158.901 C 184 154.830, 179.961 151.078, 172.909 148.598 C 159.769 143.977, 155 140, 155 133.664 C 155 129.323, 158.327 120.775, 163.123 112.796 C 167.487 105.535, 167.737 104.754, 166.742 101.510 C 165.932 98.871, 166.001 97.028, 167.025 93.924 C 167.955 91.106, 168.066 89.329, 167.381 88.242 C 166.167 86.318, 160.782 84.378, 152.330 82.821 C 145.392 81.542, 144.381 80.574, 149.016 79.647 C 158.016 77.847, 171.243 68.840, 176.074 61.223 C 181.929 51.991, 179.401 43.300, 169.444 38.429 C 163.789 35.662, 163.700 35.652, 162.110 37.595 C 157.770 42.897, 151.627 44.435, 146.200 41.578 C 143.268 40.035, 137.140 33.815, 129.607 24.739 C 124.136 18.146, 121.773 16.589, 118.490 17.413 C 114.704 18.363, 111.027 31.619, 111.008 44.391 L 111 49.282 106.933 44.661 C 102.035 39.097, 96.900 37.275, 90.613 38.870 L 86.544 39.903 79.022 32.609 C 60.827 14.965, 48.833 12.159, 48.833 25.548 C 48.833 28.136, 49.316 33.009, 49.907 36.377 C 50.497 39.745, 51.239 44.646, 51.554 47.269 C 51.897 50.117, 53.038 53.095, 54.387 54.663 C 57.571 58.366, 61.157 57.443, 74.557 49.474 L 85.500 42.967 90.825 48.728 L 96.150 54.489 93.825 55.981 C 92.546 56.801, 88.895 59.926, 85.711 62.926 L 79.922 68.379 67.711 66.055 C 60.995 64.777, 54.790 63.367, 53.922 62.922 C 53.041 62.471, 51.782 59.546, 51.073 56.307 C 49.012 46.880, 42.267 27.004, 38.753 20 C 36.451 15.411, 34.860 13.410, 33.341 13.193 C 32.157 13.024, 30.908 13.341, 30.564 13.897 M 32.992 23.527 C 32.986 29.560, 32.010 35.271, 28.983 47 C 26.782 55.525, 24.245 65.650, 23.344 69.500 C 21.329 78.114, 21.132 96.805, 22.917 110 C 24.198 119.472, 24.216 119.513, 29.002 124 C 38.582 132.981, 38.297 144.061, 27.926 165.890 L 22.989 176.279 34.483 165.145 L 45.977 154.010 51.239 157.366 C 58.756 162.161, 64.603 165, 66.960 165 C 68.756 165, 68.999 164.371, 68.990 159.750 C 68.984 156.863, 68.070 149.325, 66.959 143 C 63.996 126.133, 64.181 111.211, 67.470 101.793 C 68.871 97.782, 70.885 91.274, 71.947 87.331 C 73.008 83.388, 74.836 78.282, 76.008 75.984 C 77.180 73.686, 77.901 71.567, 77.609 71.275 C 77.146 70.812, 55.852 66.153, 53.691 66.042 C 53.246 66.019, 53.103 66.358, 53.374 66.795 C 53.644 67.233, 54.399 72.333, 55.051 78.129 C 55.980 86.387, 55.969 90.255, 54.999 96.004 C 53.895 102.548, 53.278 103.858, 49.276 108.136 C 44.301 113.455, 41.629 114.767, 39.452 112.960 C 36.588 110.583, 38.061 95.649, 43.144 75.523 C 44.252 71.136, 45.170 66.636, 45.184 65.523 C 45.198 64.410, 45.871 61.595, 46.681 59.267 C 48.064 55.287, 47.993 54.479, 45.491 45.767 C 42.658 35.901, 36.798 20.977, 34.430 17.596 C 33.139 15.753, 32.999 16.328, 32.992 23.527 M 51.878 22.368 C 50.923 24.464, 51.016 26.672, 52.342 33.423 C 53.254 38.063, 54 43.591, 54 45.707 C 54 50.381, 56.330 54, 59.339 54 C 60.563 54, 66.686 50.990, 72.946 47.311 L 84.327 40.622 77.414 34.306 C 68.444 26.112, 60.824 21.008, 56.517 20.309 C 53.510 19.821, 52.919 20.084, 51.878 22.368 M 116.535 25.250 C 115.301 29.507, 112.758 48.138, 113.344 48.632 C 113.430 48.704, 118 48.302, 123.500 47.739 C 129.123 47.162, 137.753 47.035, 143.216 47.448 L 152.932 48.182 155.966 52.762 C 159.944 58.768, 159.971 62.914, 156.056 66.609 C 151.144 71.245, 146.316 72.666, 125.500 75.602 L 120.500 76.307 126.500 77.610 C 138.470 80.209, 146.622 78.879, 159.285 72.261 C 167.277 68.085, 174.497 60.581, 176.041 54.848 C 177.525 49.336, 175.020 44.331, 169.176 41.134 L 164.851 38.768 162.176 41.262 C 156.558 46.497, 151.507 47.337, 145.210 44.083 C 141.365 42.095, 137.474 38.262, 127.613 26.750 C 120.415 18.347, 118.606 18.102, 116.535 25.250 M 90.341 41.710 C 89.548 42.254, 90.664 44.197, 93.875 47.858 L 98.569 53.209 102.784 51.946 C 105.103 51.252, 107 50.168, 107 49.538 C 107 48.908, 105.464 46.903, 103.586 45.083 C 101.064 42.639, 99.038 41.661, 95.836 41.343 C 93.451 41.107, 90.978 41.272, 90.341 41.710 M 119.500 50.655 C 118.400 50.888, 116.487 51.294, 115.250 51.558 C 113.835 51.860, 113 52.774, 113 54.019 C 113 56.375, 111.172 56.617, 109.600 54.468 C 108.663 53.186, 107.912 53.129, 104.990 54.117 C 103.071 54.766, 101.332 55.435, 101.127 55.605 C 100.922 55.774, 103.397 59.816, 106.627 64.587 L 112.500 73.261 123.500 72.668 C 135.861 72, 148.650 69.097, 153.060 65.958 C 158.775 61.888, 155.694 51.871, 148.355 50.659 C 144.178 49.969, 122.758 49.966, 119.500 50.655 M 91.756 60.989 C 85.544 65.437, 83.002 68.726, 85.207 69.461 C 88.904 70.693, 108.255 74.079, 108.753 73.580 C 109.316 73.018, 104.387 65.399, 99.767 59.690 L 97.493 56.880 91.756 60.989 M 45.150 79.226 C 40.822 98.492, 39.515 111, 41.830 111 C 42.210 111, 44.395 109.180, 46.687 106.956 C 51.363 102.418, 53.048 97.090, 52.935 87.201 C 52.843 79.111, 50.698 65.719, 49.429 65.303 C 48.792 65.095, 47.056 70.745, 45.150 79.226" stroke="none" fill="black" fill-rule="evenodd"/>
</svg>