<svg xmlns="http://www.w3.org/2000/svg" width="200" height="200" viewBox="0 0 200 200" version="1.1">
	<path d="M 81.925 28.295 C 76.146 33.943, 73.232 38.806, 72.336 44.301 C 71.811 47.519, 70.606 48.482, 49.607 62.452 L 46.674 64.403 47.283 59.255 C 47.619 56.424, 48.627 52.688, 49.525 50.952 C 51.188 47.736, 52.513 47.493, 57.351 49.517 C 58.812 50.128, 59.128 49.902, 58.847 48.445 C 58.369 45.960, 47.456 42.056, 39 41.344 C 33.287 40.863, 32.076 41.085, 29 43.172 C 22.636 47.490, 21.984 51.396, 22.540 81.933 C 23.079 111.519, 22.757 110.252, 30.713 114.103 C 36.263 116.790, 41.351 116.336, 55.500 111.893 C 61.022 110.159, 68.187 108.649, 71.500 108.522 L 77.500 108.291 79.285 101.396 C 82.146 90.343, 81.733 76.070, 78.131 61.520 C 76.500 54.932, 75.385 49.186, 75.654 48.751 C 75.922 48.317, 78.365 46.835, 81.082 45.458 L 86.023 42.955 85.761 82.703 L 85.500 122.452 78.242 124.139 C 71.120 125.794, 59.174 127.244, 41.700 128.575 C 34.322 129.137, 32.951 129.508, 33.212 130.872 C 33.697 133.400, 45.361 134.293, 72.235 133.859 C 74.289 133.826, 77.395 134.631, 79.137 135.649 C 91.148 142.667, 87.720 168.317, 73.800 175.589 C 70.215 177.462, 64.972 177.373, 59.922 175.352 C 56.483 173.976, 53.355 173.798, 40.982 174.274 C 32.831 174.587, 25.242 175.335, 24.118 175.937 C 21.686 177.238, 22.271 179.496, 25.319 180.575 C 26.813 181.103, 173.408 182.941, 176.694 182.472 C 176.801 182.457, 177.442 180.376, 178.118 177.849 C 180.367 169.440, 175.629 164, 166.057 164 C 157.792 164, 137.443 169.489, 123.709 175.423 L 119.917 177.061 117.345 171.442 C 114.330 164.857, 112.029 156.711, 112.012 152.566 C 112.005 150.952, 112.932 147.707, 114.070 145.355 C 118.266 136.687, 131.703 133.290, 157.250 134.438 C 169.657 134.995, 172 134.874, 172 133.676 C 172 130.634, 168.798 123.398, 166.296 120.787 C 160.292 114.520, 152.673 114.722, 135.046 121.614 C 128.746 124.078, 122.445 125.960, 121.045 125.797 C 118.648 125.517, 118.506 125.181, 118.605 120 C 118.686 115.761, 119.577 112.780, 122.491 107 C 129.832 92.436, 136.041 85, 140.859 85 C 143.234 85, 147.059 88.620, 153.151 96.631 C 161.823 108.035, 169.046 111.164, 178.433 107.579 C 185.734 104.790, 185.893 103.878, 180.224 97.282 C 170.603 86.086, 163.574 74.064, 157.074 57.691 C 150.371 40.807, 147.009 36, 141.904 36 C 136.828 36, 133.151 38.935, 130.004 45.500 C 127.124 51.506, 125.200 59.264, 120.602 83.392 C 117.942 97.349, 115.893 101.478, 114.041 96.608 C 112.595 92.804, 112.794 81.362, 114.512 69.500 C 116.436 56.223, 116.433 43.738, 114.506 40.011 C 111.255 33.725, 105.079 32.455, 95 36 C 91.975 37.064, 89.181 37.949, 88.792 37.967 C 88.403 37.985, 87.953 34.590, 87.792 30.423 L 87.500 22.846 81.925 28.295 M 81.574 32.094 C 78.237 36.060, 74.364 43.697, 75.244 44.577 C 75.585 44.919, 78.145 43.957, 80.932 42.440 C 85.605 39.897, 85.995 39.402, 85.930 36.091 C 85.891 34.116, 85.528 31.657, 85.123 30.626 C 84.460 28.938, 84.108 29.083, 81.574 32.094 M 94.250 39.122 L 89 41.140 89 82.490 L 89 123.839 84.250 125.348 C 77.128 127.610, 69.878 128.921, 60.496 129.642 C 47.526 130.639, 51.282 132.267, 64.859 131.533 C 75.803 130.942, 76.735 131.042, 80.425 133.202 C 86.226 136.598, 89 142.511, 89 151.479 C 89 155.420, 88.312 160.662, 87.472 163.128 C 85.687 168.367, 80.950 174.450, 76.580 177.115 C 73.508 178.988, 73.555 178.993, 95.767 178.996 L 118.034 179 115.655 174.250 C 107.856 158.676, 107.684 146.287, 115.167 139.299 C 121.637 133.258, 136.810 130.481, 157.081 131.626 L 168.946 132.297 168.095 129.330 C 164.705 117.512, 156.826 116.332, 135.289 124.416 C 128.573 126.937, 122.161 129, 121.039 129 C 119.918 129, 118.044 128.044, 116.875 126.875 C 112.991 122.991, 115.430 112.772, 123.469 99.259 C 130.977 86.637, 137.102 81.211, 142.319 82.561 C 145.443 83.369, 147.806 85.564, 154.189 93.589 C 162.239 103.709, 165.237 106, 170.428 106 C 174.358 106, 181 104.362, 181 103.393 C 181 103.167, 178.128 99.218, 174.618 94.617 C 165.908 83.202, 161.032 74.576, 155.016 59.941 C 152.210 53.115, 148.789 45.610, 147.415 43.264 C 145.227 39.531, 144.479 39, 141.410 39 C 134.445 39, 130.635 46.463, 126.434 68.338 C 121.325 94.943, 120.689 97.401, 118.310 99.781 C 115.302 102.789, 112.487 101.415, 111.049 96.238 C 109.535 90.787, 109.750 84.634, 112.079 66.622 C 114.323 49.276, 114.072 43.633, 110.877 39.570 C 109.205 37.446, 108.044 37.009, 104.177 37.052 C 101.605 37.081, 97.138 38.012, 94.250 39.122 M 29.659 46.054 C 25.388 49.413, 24.856 53.805, 25.350 81.612 C 25.853 109.944, 25.817 109.794, 32.759 112.085 C 37.398 113.616, 43.940 112.754, 55.307 109.112 C 60.427 107.472, 67.065 105.989, 70.058 105.815 L 75.500 105.500 76.835 100.500 C 77.569 97.750, 78.224 90.550, 78.290 84.500 C 78.391 75.348, 77.924 71.610, 75.509 62.250 C 73.912 56.063, 72.321 51, 71.972 51 C 71.624 51, 66.123 54.561, 59.750 58.914 C 53.376 63.266, 47.837 66.529, 47.442 66.164 C 46.517 65.310, 47.691 84.545, 48.805 88.500 L 49.651 91.500 50.314 87.500 C 50.679 85.300, 50.983 82, 50.989 80.167 C 50.996 77.942, 51.416 76.976, 52.250 77.261 C 53.699 77.757, 53.387 90.347, 51.854 93.250 C 50.407 95.990, 48.254 95.310, 47.112 91.750 C 42.855 78.483, 43.172 55.245, 47.706 48.326 C 49.076 46.235, 48.966 46.084, 45.321 45.072 C 39.051 43.331, 32.607 43.735, 29.659 46.054 M 149.500 169.405 C 144.550 170.729, 136.675 173.316, 132 175.156 L 123.500 178.500 148.996 179.162 C 167.896 179.652, 174.682 179.523, 175.230 178.662 C 176.453 176.740, 176.094 171.510, 174.598 169.466 C 172.369 166.417, 160.781 166.389, 149.500 169.405 M 31 177.849 C 31 178.783, 46.750 180.034, 57 179.914 C 63.324 179.840, 63.419 179.800, 60.500 178.464 C 57.139 176.925, 31 176.380, 31 177.849" stroke="none" fill="black" fill-rule="evenodd"/>
</svg>