<svg xmlns="http://www.w3.org/2000/svg" width="200" height="200" viewBox="0 0 200 200" version="1.1">
	<path d="M 36.939 10.167 C 36.905 10.350, 36.713 13.594, 36.513 17.376 C 36.312 21.158, 35.699 24.701, 35.152 25.248 C 34.604 25.796, 34.362 26.779, 34.613 27.434 C 35.212 28.994, 31.629 44.436, 28.392 54.250 C 26.690 59.411, 25.326 62, 24.311 62 C 23.241 62, 23.009 62.522, 23.532 63.750 C 25.603 68.609, 25.125 76.772, 21.995 90 C 16.913 111.480, 17.891 121.344, 25.835 128.731 C 29.372 132.020, 36.615 135.630, 42.627 137.102 C 45.307 137.758, 47.636 138.403, 47.803 138.534 C 47.970 138.665, 44.180 143.654, 39.381 149.620 C 28.419 163.246, 21 174.551, 21 177.628 C 21 183.066, 27.606 179.633, 42.676 166.364 L 48.509 161.227 51.840 164.007 C 58.487 169.557, 69.321 170.437, 76.486 166.009 C 88.274 158.723, 88.485 143.785, 76.984 130.719 L 73.062 126.263 79.942 105.881 C 89.604 77.261, 91.009 65.819, 86.055 56.108 C 84.177 52.427, 77.551 45.684, 74.965 44.822 C 74.212 44.571, 73.970 43.857, 74.402 43.159 C 75.734 41.003, 102.142 20.970, 102.974 21.484 C 104.431 22.385, 105.208 47.098, 104.064 56.143 C 102.661 67.228, 101.341 70.920, 98.377 72.047 C 95.347 73.199, 94.936 77.472, 97.948 76.517 C 99.414 76.051, 100.267 76.616, 101.398 78.804 C 105.210 86.174, 114.855 114.663, 121.476 138.108 C 127.075 157.937, 152.888 183.627, 170.030 186.431 C 175.399 187.309, 181.800 183.655, 184.799 178 C 187.113 173.638, 187.166 173.039, 186.512 158.500 C 185.852 143.834, 184.861 135.528, 183.625 134.291 C 182.894 133.561, 179.791 135.101, 175.102 138.521 C 170.758 141.690, 164.497 141.759, 157.100 138.719 L 151.700 136.500 145.442 120.500 C 133.794 90.718, 133.691 80.183, 145 75.174 C 147.507 74.064, 151.966 73.606, 160.714 73.562 C 175.728 73.486, 176.257 73.142, 176.826 63.080 C 178.007 42.168, 161.949 25.051, 139.501 23.294 C 134.143 22.875, 131.913 22.216, 130 20.487 C 128.625 19.245, 126.069 17.507, 124.321 16.625 C 120.915 14.908, 104.051 11.855, 102.669 12.706 C 102.212 12.988, 102.071 14.182, 102.357 15.359 C 102.775 17.086, 101.679 18.371, 96.693 22 C 85.710 29.994, 70.660 42.214, 64.246 48.346 C 60.806 51.635, 57.724 54.058, 57.398 53.731 C 57.071 53.404, 57.973 47.102, 59.402 39.727 C 63.389 19.147, 62.675 12, 56.631 12 C 54.306 12, 47.305 15.633, 42.802 19.176 L 39.103 22.086 39.302 16.399 C 39.434 12.598, 39.085 10.566, 38.250 10.272 C 37.563 10.031, 36.973 9.983, 36.939 10.167 M 49.500 17.973 C 46.750 19.598, 42.948 22.243, 41.050 23.851 L 37.600 26.775 40.721 33.637 C 48.142 49.956, 51.076 66.852, 49.175 82.319 C 48.225 90.050, 44.255 105.963, 41.458 113.250 C 40.555 115.603, 42.479 115.514, 49.349 112.885 C 54.616 110.869, 55.039 110.436, 58.371 103.635 C 60.294 99.711, 62.259 94.250, 62.738 91.500 C 64.106 83.647, 62.924 80.374, 56.485 74.187 C 51.337 69.241, 50.837 68.393, 51.317 65.436 C 51.609 63.635, 52.648 60.940, 53.627 59.447 C 54.761 57.715, 55.302 55.295, 55.119 52.764 C 54.961 50.581, 56.065 42.312, 57.572 34.388 C 61.353 14.507, 60.006 11.766, 49.500 17.973 M 106.500 39.633 C 106.500 61.828, 106.348 63.871, 104.331 68.790 L 102.162 74.080 105.099 80.558 C 108.799 88.718, 116.593 111.538, 121.473 128.500 C 126.886 147.315, 132.982 157.315, 146.885 170.187 C 159.378 181.753, 171.098 186.243, 177.810 182.033 C 183.495 178.467, 184.357 174.743, 183.607 157 C 183.247 148.475, 182.686 140.491, 182.361 139.258 L 181.771 137.015 178.911 139.422 C 172.495 144.820, 164.089 145.235, 154.654 140.619 L 149.279 137.990 143.733 123.708 C 135.280 101.941, 133.713 96.087, 134.170 87.989 C 134.624 79.954, 136.486 76.753, 142.557 73.569 C 145.810 71.862, 148.721 71.443, 159.193 71.172 C 174.319 70.780, 174.524 70.644, 174.446 61.064 C 174.383 53.172, 170.458 43.726, 164.504 37.136 C 160.338 32.525, 150.714 27.470, 144.189 26.467 L 139.879 25.804 144.404 32.414 C 149.693 40.139, 152 47.063, 152 55.214 C 152 66.115, 147.547 71.712, 141.025 69.010 C 137.130 67.397, 133.681 63.293, 129.860 55.723 L 126.842 49.744 129.478 43.869 C 132.677 36.742, 133.012 29.521, 130.353 25.021 C 127.956 20.962, 120.147 17.188, 112.500 16.392 L 106.500 15.767 106.500 39.633 M 134.412 33.355 C 134.350 38.376, 133.679 41.941, 132.155 45.348 L 129.987 50.196 133.160 56.149 C 136.590 62.584, 141.023 67, 144.054 67 C 149.500 67, 151.177 53.617, 147.080 42.847 C 144.819 36.906, 139.131 28.671, 136.218 27.123 C 134.672 26.301, 134.491 26.927, 134.412 33.355 M 36.084 37 C 35.425 39.475, 34.004 44.795, 32.926 48.822 C 31.848 52.849, 30.239 57.799, 29.349 59.822 C 28.359 62.073, 27.647 66.797, 27.514 72 C 27.382 77.173, 26.275 84.553, 24.686 90.855 C 20.021 109.357, 20.149 116.467, 25.284 124.099 C 28.180 128.404, 38.343 133.662, 46.750 135.205 C 50.188 135.837, 52.996 136.611, 52.991 136.927 C 52.986 137.242, 50.689 140.179, 47.886 143.454 C 35.168 158.313, 23.054 175.387, 24.326 176.659 C 25.121 177.455, 30.234 173.668, 39.699 165.272 C 47.527 158.329, 50 156.818, 50 158.980 C 50 159.519, 52.362 161.340, 55.250 163.028 C 59.876 165.731, 61.242 166.055, 66.739 165.751 C 84.075 164.794, 88.350 147.297, 74.856 132.532 L 69.880 127.088 76.881 106.294 C 80.731 94.857, 84.419 82.676, 85.076 79.225 C 87.652 65.690, 84.275 53.805, 76.486 48.991 L 72.954 46.809 69.014 50.369 C 66.846 52.327, 63.339 55.024, 61.219 56.362 C 52.850 61.645, 51.888 67.029, 58.366 72.336 C 63.626 76.647, 66 81.283, 66 87.245 C 66 92.445, 63.246 100.984, 59.298 108.024 C 56.801 112.477, 55.790 113.292, 49.895 115.608 C 38.312 120.158, 37.066 118.086, 41.918 102.342 C 43.586 96.929, 45.468 89.125, 46.101 85 C 48.281 70.793, 45.590 51.146, 39.636 37.782 L 37.282 32.500 36.084 37" stroke="none" fill="black" fill-rule="evenodd"/>
</svg>