<svg xmlns="http://www.w3.org/2000/svg" width="200" height="200" viewBox="0 0 200 200" version="1.1">
	<path d="M 44.500 24.399 C 34.138 27.676, 27.452 34.276, 23.806 44.827 C 21.568 51.302, 21.499 52.555, 21.479 87 C 21.468 106.525, 21.079 125.088, 20.614 128.250 C 20.005 132.398, 20.089 134, 20.916 134 C 21.547 134, 22.310 133.213, 22.613 132.250 C 22.915 131.287, 24.303 127.684, 25.697 124.242 C 34.205 103.235, 52.507 97.761, 67.916 111.614 C 73.724 116.837, 77 123.022, 77 128.769 C 77 134.369, 75.332 137.632, 71.146 140.219 C 68.041 142.138, 66.165 142.394, 54.868 142.444 C 45.831 142.484, 41.722 142.877, 40.808 143.792 C 38.444 146.156, 42.030 147.077, 53 146.923 C 67.125 146.725, 66.444 146.598, 69.923 150.077 C 72.469 152.623, 73 153.949, 73 157.765 C 73 165.271, 67.642 171.313, 57.166 175.622 C 51.897 177.789, 50.116 177.954, 31.750 177.976 C 15.145 177.996, 12 178.232, 12 179.455 C 12 181.465, 17.504 182.355, 29.500 182.284 C 133.951 181.664, 158.217 181.289, 164.500 180.200 C 178.189 177.828, 182 176.843, 182 175.679 C 182 174.822, 177.560 174.499, 165.750 174.495 C 147.487 174.490, 141.025 173.269, 130.035 167.748 C 122.883 164.155, 120.312 160.876, 121.363 156.689 C 122.652 151.555, 136.391 146.864, 154.902 145.238 L 163.304 144.500 164.691 140.500 C 167.110 133.523, 169.214 118.914, 168.493 114.102 C 168.120 111.614, 166.906 107.150, 165.795 104.182 C 163.220 97.300, 163.892 95.754, 172.159 89.540 C 181.279 82.684, 180.852 81.730, 170.145 85.037 C 162.388 87.433, 160.620 87.477, 158.471 85.328 C 157.204 84.061, 156.952 82.669, 157.429 79.578 C 158.260 74.195, 167.340 55.843, 174.946 44.174 C 178.289 39.045, 180.754 34.411, 180.423 33.876 C 179.471 32.334, 178.254 33.680, 154.336 62.732 C 141.904 77.833, 131.242 89.923, 130.582 89.670 C 127.176 88.363, 84.485 81.011, 80.250 81.003 C 78.457 80.999, 78.705 83.673, 80.563 84.386 C 81.427 84.717, 81.809 85.500, 81.417 86.134 C 80.005 88.419, 55 85.475, 55 83.024 C 55 81.106, 78 78.078, 92.962 78.026 C 99.860 78.002, 100.586 78.202, 102.547 80.661 C 105.037 83.785, 107.305 83.064, 106.395 79.439 C 105.613 76.323, 107.220 76.277, 120.436 79.037 C 130.284 81.094, 134 80.960, 134 78.548 C 134 75.490, 129.485 74.185, 117.720 73.840 C 111.326 73.653, 105.640 73.044, 105.085 72.488 C 103.737 71.136, 101.399 57.267, 102.358 56.309 C 103.353 55.314, 142.707 55.278, 146.250 56.269 C 149.987 57.314, 149.706 59.305, 145.500 61.570 C 142.340 63.272, 140.709 66, 142.852 66 C 144.255 66, 150.231 61.631, 151.401 59.750 C 152.921 57.307, 151.137 54.792, 147.153 53.760 C 145.402 53.306, 134.503 51.426, 122.933 49.582 C 111.362 47.738, 101.706 46.040, 101.475 45.808 C 101.244 45.577, 101.497 43.783, 102.039 41.821 L 103.023 38.255 115.762 37.587 C 122.768 37.219, 134.238 36.877, 141.250 36.827 C 151.325 36.755, 154 36.449, 154 35.368 C 154 34.496, 152.842 34, 150.809 34 C 147.783 34, 147.718 33.923, 149.559 32.519 C 152.140 30.550, 150.888 29.760, 140.516 26.821 C 134.781 25.196, 129.797 24.543, 123 24.525 C 114.710 24.503, 112.952 24.814, 109.201 26.962 C 106.836 28.316, 104.020 30.850, 102.943 32.592 L 100.984 35.761 89.507 36.478 L 78.029 37.195 71.765 32.207 C 68.319 29.464, 64.643 26.270, 63.595 25.110 C 62.009 23.353, 60.587 23.011, 55.095 23.067 C 51.468 23.104, 46.700 23.703, 44.500 24.399 M 49.217 26.113 C 31.508 29.062, 23.979 41.520, 23.640 68.440 C 23.537 76.547, 24.285 118.995, 24.530 118.999 C 24.547 119, 26.272 116.637, 28.364 113.750 C 32.997 107.356, 38.209 103.471, 44.363 101.825 C 54.673 99.068, 67.830 105.209, 75.490 116.354 C 79.229 121.794, 79.500 122.658, 79.500 129.166 C 79.500 136.033, 79.436 136.204, 75.449 139.922 C 73.221 142, 70.746 143.921, 69.949 144.190 C 68.871 144.554, 69.459 145.744, 72.250 148.842 C 75.242 152.164, 76 153.801, 76 156.938 C 76 164.388, 72.572 169.643, 64.181 175.054 L 59.862 177.839 65.374 178.528 C 74.563 179.676, 150.129 179.422, 153.500 178.231 L 156.500 177.172 152.910 177.086 C 147.608 176.959, 134.903 173.491, 129.256 170.630 C 122.973 167.446, 118 161.885, 118 158.043 C 118 154.184, 124.121 148.958, 131.286 146.699 C 136.734 144.982, 154.306 142.017, 159.101 142.006 C 161.513 142, 161.839 141.440, 163.601 134.250 C 166.252 123.431, 166.049 111.094, 163.112 104.538 C 160.475 98.651, 160.873 96.281, 165.231 91.923 L 168.463 88.690 164.835 89.371 C 160.136 90.253, 156.374 88.512, 155.103 84.867 C 153.756 81.001, 155.844 73.255, 160.997 63.006 C 163.211 58.603, 164.846 55, 164.630 55 C 164.414 55, 157.547 63.159, 149.369 73.131 C 141.191 83.104, 131.688 94.603, 128.250 98.687 C 124.812 102.770, 122 106.304, 122 106.540 C 122 106.777, 124.538 110.239, 127.640 114.235 C 136.746 125.963, 139.030 132.853, 135.015 136.486 C 130.342 140.716, 113.769 135.182, 97.570 123.984 C 93.556 121.208, 86.328 114.817, 81.509 109.782 C 72.122 99.973, 71.647 98.408, 77.577 96.820 C 80.755 95.968, 97.599 94.506, 116.345 93.455 C 122.860 93.090, 127.810 92.420, 127.345 91.967 C 126.448 91.094, 91.531 85, 87.422 85 C 85.965 85, 85 85.582, 85 86.460 C 85 89.205, 78.036 90.346, 68.309 89.196 C 52.091 87.279, 46.175 82.935, 55.250 79.607 C 60.314 77.750, 71.185 76.322, 87.279 75.400 C 93.757 75.028, 98.860 74.527, 98.618 74.285 C 97.816 73.483, 76.651 68.932, 66.756 67.434 C 56.358 65.860, 51.770 66.237, 52.674 68.592 C 53.496 70.735, 49.624 70.341, 46.861 68 L 44.500 66 46.849 64.009 C 50.180 61.187, 57.243 59.311, 74.216 56.740 C 82.347 55.508, 88.999 54.170, 89 53.766 C 89 53.362, 87.716 51.595, 86.148 49.839 L 83.295 46.647 69.078 46.193 C 59.280 45.880, 54.509 46.091, 53.730 46.870 C 51.489 49.111, 50.333 48.008, 50.333 43.624 L 50.333 39.248 62.181 38.374 L 74.029 37.500 66.500 31.250 C 58.587 24.681, 58.312 24.599, 49.217 26.113 M 111.331 28.937 C 109.038 29.978, 106.640 31.805, 106.002 32.996 L 104.843 35.163 124.671 34.464 C 149.244 33.599, 151.585 32.602, 137.509 29.002 C 127.461 26.432, 116.905 26.406, 111.331 28.937 M 84.174 39.854 L 81.848 40.508 84.174 42.623 C 85.778 44.082, 88.407 44.926, 92.644 45.343 L 98.787 45.947 99.193 42.474 L 99.598 39 93.049 39.100 C 89.447 39.155, 85.453 39.494, 84.174 39.854 M 63.660 41.063 C 58.798 41.494, 54.561 42.106, 54.243 42.423 C 53.926 42.740, 58.129 43.005, 63.583 43.011 C 69.038 43.017, 75.300 43.310, 77.500 43.661 L 81.500 44.301 79.595 42.150 C 77.551 39.843, 77.473 39.838, 63.660 41.063 M 89.033 48.693 C 89.118 50.757, 93.055 54, 95.477 54 C 97.784 54, 98.091 53.639, 97.816 51.250 C 97.533 48.789, 97.053 48.468, 93.250 48.193 C 90.912 48.023, 89.015 48.248, 89.033 48.693 M 101 50.892 C 101 52.835, 101.529 52.994, 107.750 52.930 C 117.617 52.827, 120.047 51.486, 111.982 50.594 C 108.417 50.200, 104.487 49.631, 103.250 49.330 C 101.455 48.894, 101 49.210, 101 50.892 M 76.324 59.045 C 69.627 60.080, 61.752 61.540, 58.824 62.288 L 53.500 63.649 62.500 64.296 C 67.450 64.651, 77.343 66.275, 84.484 67.904 C 91.626 69.532, 97.560 70.773, 97.672 70.662 C 98.391 69.943, 91.211 57.468, 90 57.332 C 89.175 57.239, 83.021 58.010, 76.324 59.045 M 95 57.364 C 95 57.564, 96.370 60.602, 98.044 64.114 C 99.717 67.626, 100.864 69.375, 100.591 68 C 100.319 66.625, 99.792 63.587, 99.420 61.250 C 98.904 58.004, 98.302 57, 96.872 57 C 95.842 57, 95 57.164, 95 57.364 M 127.813 77.683 C 128.534 77.972, 129.397 77.936, 129.729 77.604 C 130.061 77.272, 129.471 77.036, 128.417 77.079 C 127.252 77.127, 127.015 77.364, 127.813 77.683 M 115.500 96.104 C 89.509 98.043, 79.225 98.976, 77.798 99.524 C 75.578 100.376, 91.243 116.555, 99.937 122.388 C 110.794 129.672, 121.427 134.331, 128.336 134.831 L 134.298 135.262 133.733 131.043 C 133.127 126.532, 128.905 119.478, 122.108 111.625 L 117.957 106.829 121.809 102.164 C 125.385 97.833, 127.540 94.807, 126.809 95.141 C 126.639 95.219, 121.550 95.652, 115.500 96.104" stroke="none" fill="black" fill-rule="evenodd"/>
</svg>