<svg xmlns="http://www.w3.org/2000/svg" width="200" height="200" viewBox="0 0 200 200" version="1.1">
	<path d="M 38.465 12.068 C 37.592 13.755, 37.070 15.668, 37.303 16.318 C 37.537 16.968, 35.753 23.125, 33.339 30 C 27.601 46.339, 23.697 60.732, 24.337 63.181 C 24.618 64.257, 23.780 67.264, 22.474 69.864 C 15.695 83.361, 16.899 93.833, 27.719 115.500 C 35.668 131.417, 38.142 138.437, 38.242 145.362 C 38.367 154.028, 36.788 157.829, 28.932 167.768 C 21.862 176.713, 20.952 178.661, 23.403 179.601 C 25.074 180.242, 29.833 177.910, 44.192 169.411 C 59.025 160.633, 68.029 156.228, 74.677 154.496 C 80.254 153.043, 80.432 153.063, 84.801 155.624 L 89.249 158.230 87.538 155.334 C 86.597 153.741, 84.525 151.690, 82.934 150.777 C 76.456 147.059, 73.148 136.501, 74.907 125.160 C 75.488 121.416, 77.031 114.786, 78.336 110.427 C 79.641 106.067, 82.434 96.650, 84.543 89.500 C 86.651 82.350, 88.421 76.409, 88.475 76.297 C 88.529 76.185, 90.806 76.748, 93.536 77.547 L 98.500 79 98.500 83.987 C 98.500 90.386, 100.403 91.016, 100.805 84.750 C 100.972 82.138, 101.334 80, 101.608 80 C 101.882 80, 106.175 81.218, 111.149 82.707 L 120.192 85.414 114.959 87.193 C 108.538 89.375, 102.405 93.805, 103.831 95.231 C 104.497 95.897, 106.011 95.331, 108.370 93.531 C 114.187 89.094, 124.927 86.790, 131.500 88.568 C 133.387 89.079, 144.004 102.712, 143.996 104.614 C 143.994 105.101, 141.857 106.369, 139.246 107.432 C 132.122 110.331, 121.623 116.844, 114.371 122.864 C 109.194 127.161, 107.121 129.793, 103.955 136.090 C 95.635 152.637, 92.836 166.915, 96.517 174.033 C 101.411 183.498, 119.551 181.413, 136.167 169.475 C 140.958 166.033, 143 165.239, 143 166.816 C 143 168.828, 155.258 180.227, 159.384 182.052 C 172.731 187.956, 179.332 173.915, 180.566 137 C 180.851 128.475, 181.323 119.138, 181.614 116.250 C 182.138 111.060, 182.183 111, 185.513 111 C 187.366 111, 189.178 110.522, 189.539 109.937 C 191.455 106.837, 181.710 102.056, 157 93.973 L 142.500 89.231 151.500 89.693 C 159.500 90.103, 160.997 89.896, 164.977 87.827 C 167.440 86.547, 170.248 84.116, 171.217 82.425 C 173.714 78.070, 174.828 68.186, 173.932 58.353 C 173.303 51.451, 172.614 49.073, 170.111 45.173 C 165.942 38.676, 164 32.741, 164 26.497 C 164 23.308, 163.470 20.805, 162.650 20.125 C 161.763 19.388, 149.174 18.667, 125.900 18.019 C 88.573 16.979, 48.044 15.191, 44.237 14.416 C 42.391 14.040, 42.088 13.498, 42.595 11.478 C 43.517 7.805, 40.442 8.244, 38.465 12.068 M 40.150 19.111 C 36.914 27.644, 29.069 51.381, 28.033 55.771 C 27.099 59.732, 27.074 61.385, 27.933 62.419 C 28.820 63.488, 28.264 65.270, 25.442 70.404 C 21.191 78.138, 20.068 85.837, 21.983 94.132 C 22.664 97.084, 26.726 106.925, 31.010 116 C 39.791 134.602, 40.989 138.203, 40.989 146 C 40.989 155.417, 38.887 160.025, 29.166 171.920 C 27.332 174.164, 26.221 176, 26.696 176 C 27.172 176, 33.397 172.558, 40.530 168.350 C 54.970 159.833, 70.131 152.324, 74.751 151.400 L 77.784 150.793 74.892 145.295 C 72.377 140.514, 72 138.715, 72 131.508 C 72 123.097, 74.502 111.315, 79.009 98.500 C 80.170 95.200, 82.166 88.636, 83.444 83.912 L 85.769 75.324 72.013 71.318 L 58.257 67.311 60.616 71.906 C 61.914 74.433, 63.424 79.724, 63.972 83.664 C 64.937 90.605, 64.861 91.093, 61.515 99.392 C 59.616 104.103, 57.097 109.879, 55.917 112.229 C 50.760 122.495, 46.002 125.765, 43.975 120.435 C 41.753 114.591, 43.744 91.226, 48.124 71.750 L 50.316 62 55.158 62 C 57.821 62, 60 61.847, 60 61.660 C 60 61.473, 58.675 58.660, 57.055 55.410 C 49.825 40.905, 50.291 23.131, 58 19.279 C 60.464 18.048, 60.448 18.029, 56.897 18.015 C 54.915 18.007, 50.540 17.712, 47.175 17.361 C 41.372 16.754, 41.010 16.844, 40.150 19.111 M 70.912 20.014 C 76.182 22.290, 86.980 30.904, 96.012 40.039 L 105.524 49.659 111.512 47.690 C 115.561 46.359, 119.605 43.933, 124 40.201 C 136.572 29.522, 147.245 23.990, 151.196 26.105 C 152.748 26.936, 153.082 27.840, 152.644 30.030 L 152.075 32.877 156.451 31.255 C 160.083 29.908, 160.908 29.112, 161.306 26.566 C 161.570 24.880, 161.386 23.074, 160.897 22.554 C 160.407 22.033, 146.448 21.282, 129.807 20.882 C 113.197 20.482, 92.607 19.889, 84.053 19.563 C 72.855 19.138, 69.175 19.264, 70.912 20.014 M 57.206 23.465 C 53.130 28.647, 53.956 42.545, 58.975 53.223 C 62.340 60.382, 63.501 61.064, 69.877 59.621 C 74.749 58.518, 75.458 58.002, 77.443 54.112 L 79.633 49.820 82.711 52.410 C 86.422 55.533, 86.434 55.533, 95.094 52.903 L 101.998 50.806 100.006 48.008 C 98.910 46.469, 94.534 41.961, 90.282 37.989 C 73.713 22.517, 61.999 17.372, 57.206 23.465 M 142.399 30.589 C 136.742 33.578, 126.634 40.967, 127.296 41.629 C 127.774 42.107, 147.033 35.191, 148.179 34.129 C 148.553 33.783, 149.164 32.263, 149.538 30.750 C 150.414 27.200, 148.878 27.165, 142.399 30.589 M 156.257 35.766 C 152.449 38.220, 152.010 38.910, 151.972 42.500 C 151.836 55.498, 145.921 72.784, 140.222 76.842 C 135.095 80.493, 130.224 79.370, 128.011 74.027 C 124.996 66.748, 129.845 55.872, 141.036 44.809 L 148.816 37.118 140.658 40.179 C 136.171 41.863, 129.640 44.194, 126.143 45.359 C 121.005 47.071, 119.019 48.394, 115.782 52.260 L 111.777 57.044 114.139 59.982 C 115.437 61.598, 120.325 67.847, 125 73.869 C 129.675 79.891, 134.400 85.086, 135.500 85.413 C 136.600 85.740, 142.900 86.266, 149.500 86.582 C 160.530 87.110, 161.768 86.986, 164.810 85.056 C 170.131 81.681, 171.492 77.300, 171.375 63.923 L 171.275 52.346 167.198 45.586 C 164.955 41.868, 162.833 37.516, 162.481 35.913 C 162.129 34.311, 161.539 33.007, 161.171 33.016 C 160.802 33.025, 158.591 34.262, 156.257 35.766 M 141.748 47.803 C 137.955 51.739, 133.906 57.152, 132.508 60.155 C 128.432 68.910, 129.485 76, 134.861 76 C 140.108 76, 144.896 68.149, 147.507 55.263 C 148.406 50.826, 148.997 45.756, 148.821 43.997 L 148.500 40.797 141.748 47.803 M 110.267 51.025 C 108.780 51.623, 108.238 52.456, 108.644 53.516 C 109.172 54.892, 109.578 54.805, 111.628 52.880 C 114.988 49.723, 114.650 49.262, 110.267 51.025 M 95.500 55.494 C 89.714 57.391, 88.512 58.154, 88.571 59.894 C 88.611 61.052, 88.723 64.607, 88.821 67.793 L 89 73.585 93.661 74.832 C 98.906 76.235, 99.066 76.139, 101.349 70.231 C 102.257 67.883, 104.124 64.179, 105.500 62.001 C 108.487 57.268, 108.531 56.791, 106.171 54.655 C 103.965 52.659, 104.209 52.639, 95.500 55.494 M 79.636 55.506 C 79.288 56.413, 79.639 57, 80.531 57 C 82.149 57, 82.517 55.437, 81.105 54.565 C 80.612 54.260, 79.952 54.684, 79.636 55.506 M 79.250 60.119 C 77.463 60.635, 76 61.502, 76 62.045 C 76 62.588, 74.439 63.777, 72.531 64.687 C 69.541 66.113, 68.522 66.163, 65.147 65.048 C 62.993 64.338, 60.673 63.942, 59.991 64.170 C 58.867 64.544, 82.693 72, 85.014 72 C 86.085 72, 86.379 63.151, 85.393 60.582 C 84.717 58.819, 83.951 58.761, 79.250 60.119 M 108.209 62.707 C 105.338 66.739, 101.725 76.141, 102.704 77.035 C 103.719 77.963, 129.035 85.298, 129.527 84.807 C 129.893 84.440, 120.711 72.251, 113.907 64.070 L 110.314 59.751 108.209 62.707 M 50.575 73.150 C 46.300 92.716, 44.302 120.724, 47.250 119.756 C 49.398 119.051, 52.659 113.363, 57.526 101.833 C 61.748 91.831, 62.155 90.200, 61.573 85.607 C 60.577 77.738, 58.232 71.596, 55.064 68.561 L 52.181 65.799 50.575 73.150 M 142.845 97.584 C 147.593 104.050, 147.827 104.216, 152.478 104.401 C 156.461 104.559, 157.718 105.120, 160.122 107.811 C 162.489 110.459, 163 111.930, 163 116.089 C 163 125.116, 155.436 143.793, 146.740 156.234 L 142.732 161.968 147.017 167.522 C 154.264 176.915, 161.511 181.841, 166.312 180.637 C 173.673 178.789, 176.998 163.409, 178.609 123.750 L 179.208 109 182.104 109 C 189.816 109, 183.416 105.812, 159.359 97.672 C 135.766 89.688, 137.052 89.695, 142.845 97.584 M 151.917 110.366 L 153.998 113.732 145.175 122.616 C 135.356 132.502, 130.825 139.619, 128.453 148.879 C 126.012 158.407, 127.763 164, 133.187 164 C 139.597 164, 151.370 146.918, 157.429 128.824 C 162.021 115.114, 160.344 107, 152.918 107 L 149.837 107 151.917 110.366 M 134.298 113.014 C 120.710 119.968, 110.894 128.286, 106.870 136.257 C 91.483 166.738, 95.414 182.691, 116.695 176.130 C 120.438 174.976, 125.975 172.596, 129 170.840 L 134.500 167.648 131.295 166.807 C 126.716 165.606, 125 162.593, 125 155.753 C 125 144.346, 132.039 131.041, 144.304 119.263 L 150.620 113.199 148.727 110.599 C 147.685 109.170, 146.217 108, 145.465 108 C 144.712 108, 139.687 110.256, 134.298 113.014" stroke="none" fill="black" fill-rule="evenodd"/>
</svg>