<svg xmlns="http://www.w3.org/2000/svg" width="200" height="200" viewBox="0 0 200 200" version="1.1">
	<path d="M 50.749 12.413 C 43.476 14.370, 41.664 16.490, 42.345 22.250 C 42.653 24.863, 42.814 26.995, 42.703 26.989 C 42.591 26.983, 40.291 26.308, 37.591 25.489 C 26.677 22.178, 20.713 24.570, 22.953 31.358 C 23.586 33.274, 25.436 36.683, 27.066 38.932 L 30.029 43.023 28.010 46.981 C 22.562 57.660, 21.812 69.784, 25.012 95.440 C 28.292 121.737, 27.331 134.284, 21.001 147.812 C 19.331 151.380, 18.127 154.460, 18.324 154.658 C 18.522 154.855, 24.717 152.266, 32.092 148.905 C 50.840 140.359, 67.501 134.908, 75.205 134.799 C 80.518 134.724, 81.608 135.032, 83.266 137.080 C 86.512 141.089, 84.239 149.236, 76.033 163 C 72.321 169.227, 69 178.299, 69 182.213 C 69 183.230, 69.756 184.353, 70.680 184.707 C 73.133 185.649, 77.688 180.078, 93.562 156.728 C 108.264 135.102, 115.773 125, 117.148 125 C 118.696 125, 118.043 128.743, 114.410 140.692 C 109.741 156.050, 108.922 161.292, 110.220 167.500 C 112.956 180.586, 128.086 184.330, 150.208 177.394 C 170.483 171.038, 185.758 159.047, 176.681 156.612 C 175.481 156.291, 173.488 156.021, 172.250 156.014 C 170.146 156.001, 170 155.573, 170 149.420 C 170 145.802, 169.493 138.545, 168.874 133.295 C 167.616 122.625, 168.555 114.022, 172.056 104.152 C 173.716 99.474, 173.947 97.121, 173.401 90.500 C 173.037 86.100, 172.094 81.227, 171.304 79.671 C 169.326 75.776, 162.905 73.058, 155.500 72.982 L 149.500 72.920 152.500 71.335 C 154.150 70.463, 156.287 69.061, 157.250 68.220 C 159.758 66.028, 159.490 60.809, 156.738 58.223 C 153.791 55.455, 146.513 52.266, 141.208 51.417 C 138.061 50.914, 137 50.288, 137 48.933 C 137 47.557, 138.021 46.988, 141.250 46.563 C 146.154 45.918, 171.242 44, 174.783 44 C 176.244 44, 177.007 43.516, 176.753 42.750 C 176.472 41.900, 172.689 41.295, 164.920 40.860 C 144.028 39.689, 136.880 36.769, 136 29.045 C 135.725 26.631, 134.954 24.476, 134.287 24.257 C 132.486 23.665, 131.631 28.503, 132.896 32.132 C 134.575 36.949, 134.314 43.666, 132.418 44.393 C 130.362 45.182, 118.690 45.158, 108.227 44.344 L 99.954 43.700 103.768 41.992 C 108.920 39.686, 113.002 34.675, 112.991 30.673 C 112.980 27.125, 108.462 18.627, 104.856 15.374 C 102.867 13.579, 100.398 13.072, 89 12.121 C 71.700 10.677, 56.779 10.791, 50.749 12.413 M 51 15.141 C 46.576 16.355, 44.007 19.273, 44.745 22.246 C 45.478 25.199, 48.850 30, 50.191 30 C 50.771 30, 57.329 32.925, 64.763 36.500 C 77.291 42.524, 78.774 43, 85.035 43 C 93.189 43, 103.654 39.977, 107.346 36.555 C 110.584 33.554, 110.810 29.440, 108.023 24.210 C 103.993 16.648, 103.329 16.282, 91.489 15.091 C 78.466 13.780, 55.857 13.808, 51 15.141 M 25.667 27.667 C 24.360 28.973, 25.053 30.852, 29.045 36.830 L 33.091 42.888 30.665 47.694 C 25.319 58.286, 24.822 71.304, 28.544 103.331 C 30.599 121.019, 29.982 131.206, 26.171 142.491 C 25.058 145.785, 24.268 148.601, 24.415 148.748 C 24.562 148.895, 30.941 146.334, 38.591 143.057 C 64.119 132.121, 78.827 129.364, 84.694 134.416 C 87.136 136.517, 87.480 137.490, 87.349 141.905 C 87.190 147.262, 83.434 156.512, 77.929 165.104 C 75.154 169.435, 71.390 179.723, 72.261 180.595 C 73.061 181.394, 77.074 176.057, 91.404 155.133 C 112.920 123.718, 116.513 119.521, 119.655 122.128 C 121.748 123.866, 121.049 128.474, 116.409 143.529 C 108.950 167.727, 111.939 176.619, 127.916 177.762 C 135.973 178.338, 146.875 176.187, 157.206 171.983 C 165.832 168.473, 174.863 163.085, 176.167 160.672 C 177.072 158.995, 176.723 158.866, 171.940 159.120 L 166.726 159.397 166.869 149.949 C 166.947 144.752, 166.626 136.895, 166.156 132.490 C 165.136 122.949, 166.178 112.979, 169.118 104.145 C 170.849 98.945, 171.157 96.254, 170.705 90.281 C 170.391 86.134, 169.454 81.815, 168.576 80.476 C 166.311 77.018, 160.923 75.839, 149 76.190 L 138.500 76.500 138.184 79.250 C 137.889 81.809, 138.123 82, 141.547 82 C 145.161 82, 145.216 82.058, 144.597 85.250 C 144.250 87.037, 143.987 88.950, 144.012 89.500 C 144.037 90.050, 144.157 92.063, 144.279 93.973 C 144.464 96.879, 144.051 97.664, 141.750 98.778 C 139.142 100.040, 139 100.467, 139 107.055 C 139 113.752, 139.087 114, 141.441 114 C 144.409 114, 145.583 115.593, 144.010 117.487 C 141.908 120.021, 139.932 129.321, 139.094 140.628 C 138.640 146.749, 137.952 152.269, 137.565 152.895 C 135.555 156.148, 135.063 151.569, 135.659 135.129 L 136.302 117.367 122.901 119.153 C 107.771 121.170, 93.324 121.495, 87.741 119.945 C 83.139 118.667, 80.646 115.258, 81.583 111.523 C 81.955 110.045, 84.738 106.156, 87.770 102.882 C 93.323 96.884, 110.876 83, 112.907 83 C 114.312 83, 114.331 85.677, 112.931 86.542 C 111.232 87.593, 99.863 102.196, 100.358 102.692 C 100.605 102.938, 102.762 102.148, 105.153 100.936 C 109.196 98.887, 132.886 85.186, 133.999 84.253 C 134.274 84.023, 133.041 82.532, 131.259 80.940 C 128.670 78.627, 127.416 78.167, 125.010 78.648 C 122.698 79.110, 122 78.890, 122 77.698 C 122 76.845, 122.665 76.001, 123.478 75.823 C 124.291 75.645, 120.026 72.159, 114 68.075 C 103.400 60.892, 102.980 60.708, 101.093 62.416 C 97.599 65.578, 96.187 70.057, 96.736 76.234 C 97.162 81.034, 96.964 82.077, 95.522 82.630 C 92.870 83.648, 91.967 81.129, 92.609 74.500 C 93.257 67.803, 90.894 59.587, 87.750 57.611 C 82.988 54.617, 77.005 64.783, 70.653 86.666 L 68.282 94.832 71.806 101.931 C 79.957 118.353, 73.670 124.579, 61.451 112.185 C 54.970 105.612, 51.599 98.130, 51.153 89.329 C 50.830 82.952, 51.106 81.576, 53.645 76.906 C 56.215 72.179, 64.736 64, 67.090 64 C 70.354 64, 64.917 54.115, 54.654 41.389 C 46.775 31.619, 46.279 31.206, 39.929 29.139 C 33.455 27.032, 26.971 26.362, 25.667 27.667 M 58.421 41.903 C 65.789 51.028, 69.526 57.167, 70.468 61.690 C 71.060 64.532, 70.800 65.052, 68.080 66.459 C 52.734 74.394, 49.134 89.988, 59.176 105.026 C 63.018 110.779, 68.992 116, 71.732 116 C 74.145 116, 73.003 110.114, 69.142 102.652 L 65.284 95.196 68.694 83.848 C 76.210 58.835, 83.446 49.446, 90.088 56.088 C 91.236 57.236, 92.848 59.785, 93.669 61.751 L 95.164 65.328 97.487 62.414 C 98.764 60.812, 99.611 59.179, 99.368 58.786 C 98.400 57.220, 79.237 47, 77.268 47 C 74.058 47, 72.073 45.973, 72.605 44.588 C 72.907 43.799, 69.432 41.623, 63.154 38.670 C 57.693 36.102, 52.958 34, 52.633 34 C 52.308 34, 54.912 37.556, 58.421 41.903 M 137 41.029 L 137 44.272 141.640 43.636 C 144.191 43.286, 147.454 42.976, 148.890 42.946 C 150.727 42.908, 149.872 42.354, 146 41.073 C 142.975 40.072, 139.713 38.923, 138.750 38.519 C 137.292 37.909, 137 38.328, 137 41.029 M 85.500 46.791 C 86.050 47.286, 90.067 49.823, 94.426 52.430 L 102.352 57.171 106.006 55.117 C 111.259 52.164, 120.440 50, 127.710 50 C 132.124 50, 134 49.622, 134 48.732 C 134 47.788, 131.372 47.468, 123.750 47.482 C 118.112 47.492, 106.975 47.138, 99 46.696 C 90.407 46.219, 84.907 46.258, 85.500 46.791 M 115 54.355 C 112.525 55.048, 109.247 56.284, 107.716 57.103 L 104.933 58.591 115.028 65.546 C 129.420 75.460, 129.294 75.394, 132.354 74.626 L 135.069 73.944 134.785 63.722 L 134.500 53.500 127 53.298 C 122.875 53.187, 117.475 53.663, 115 54.355 M 137.375 57.718 C 137.719 60.227, 138 64.748, 138 67.765 L 138 73.250 141.187 72.613 C 146.526 71.545, 154.759 67.318, 155.994 65.011 C 156.951 63.222, 156.833 62.466, 155.330 60.772 C 153.136 58.300, 147.097 55.481, 141.113 54.137 L 136.750 53.156 137.375 57.718 M 132 77.378 C 132 77.585, 132.675 78.315, 133.500 79 C 134.729 80.020, 135 79.951, 135 78.622 C 135 77.730, 134.325 77, 133.500 77 C 132.675 77, 132 77.170, 132 77.378 M 140.543 84.931 C 140.226 85.443, 140.425 86.144, 140.984 86.490 C 141.543 86.835, 142 86.416, 142 85.559 C 142 83.802, 141.400 83.544, 140.543 84.931 M 123.500 93.631 C 110.255 101.544, 101.607 106, 99.497 106 C 95.985 106, 96.784 102.109, 101.755 95.006 L 103.500 92.512 100.500 94.811 C 94.586 99.342, 86.174 108.165, 84.950 111.120 C 83.882 113.698, 83.945 114.374, 85.385 115.816 C 87.899 118.333, 105.117 118.623, 122.231 116.435 L 136 114.675 136 107.338 C 136 101.363, 135.711 100, 134.443 100 C 133.034 100, 133.034 99.789, 134.443 97.777 C 136.008 95.544, 136.651 86.974, 135.250 87.030 C 134.838 87.046, 129.550 90.016, 123.500 93.631 M 140.071 94.415 C 139.325 95.313, 139.012 96.345, 139.374 96.707 C 140.308 97.641, 142.306 95.417, 141.826 93.978 C 141.550 93.150, 141.008 93.285, 140.071 94.415 M 139 119 C 139 120.100, 139.173 121, 139.383 121 C 139.594 121, 140.002 120.100, 140.290 119 C 140.577 117.900, 140.405 117, 139.906 117 C 139.408 117, 139 117.900, 139 119" stroke="none" fill="black" fill-rule="evenodd"/>
</svg>