<svg xmlns="http://www.w3.org/2000/svg" width="200" height="200" viewBox="0 0 200 200" version="1.1">
	<path d="M 33.667 10.667 C 33.300 11.033, 33 14.124, 33 17.536 C 33 25.597, 30.566 39.412, 27.882 46.586 C 25.655 52.538, 20.191 59.487, 16.922 60.525 C 15.865 60.860, 15 61.768, 15 62.543 C 15 63.663, 15.561 63.739, 17.750 62.914 C 26.966 59.440, 33.259 45.544, 35.544 23.618 L 36.261 16.735 42.881 17.360 C 46.521 17.704, 50.942 17.989, 52.705 17.993 L 55.909 18 53.535 20.374 C 50.065 23.844, 46.152 32.117, 43.853 40.846 C 41.448 49.979, 40.342 71.244, 41.745 81.398 C 42.549 87.220, 42.399 89.249, 40.784 94.398 C 38.237 102.516, 37.301 113.453, 38.979 115.475 C 41.106 118.038, 44.567 117.257, 47.898 113.463 C 54.580 105.853, 59.272 92.581, 60.503 77.811 C 61.174 69.745, 61.092 69.218, 58.724 66.466 L 56.241 63.579 66.871 59.976 C 79.003 55.863, 79.418 55.981, 80.620 63.885 C 81.949 72.623, 76.953 100.514, 73.077 106 C 64.989 117.445, 65.599 124.892, 77.025 154.204 C 80.947 164.263, 78.111 165.203, 63.264 158.763 L 55.500 155.396 42.500 164.028 C 26.901 174.386, 20.089 178.423, 19.390 177.723 C 18.549 176.883, 29.832 164.341, 41.852 152.753 C 47.983 146.843, 53 141.824, 53 141.601 C 53 141.377, 49.807 140.225, 45.903 139.039 C 39.951 137.231, 37.875 135.966, 33.028 131.192 C 24.419 122.713, 22.603 117.288, 22.586 100 C 22.576 89.899, 23.130 83.820, 24.787 75.855 C 27.397 63.301, 27.344 64, 25.676 64 C 24.158 64, 21.562 76.062, 19.849 91.076 C 16.796 117.847, 25.767 135.300, 46.184 142.309 C 47.478 142.753, 44.674 146.097, 34.082 156.742 C 20.077 170.816, 14.285 178.034, 15.464 179.942 C 17.330 182.960, 23.558 180.023, 43.221 166.851 C 49.667 162.533, 55.300 159, 55.739 159 C 56.179 159, 59.679 160.314, 63.519 161.920 C 73.839 166.236, 77.323 166.677, 79.993 164.007 C 82.607 161.393, 82.455 160.525, 76.890 146.179 C 68.977 125.783, 68.398 118.271, 74.081 109.692 C 79.829 101.014, 85.146 73.180, 83.031 62.844 C 82.430 59.905, 81.839 56.912, 81.719 56.193 C 81.485 54.798, 111.683 40.686, 113.069 41.542 C 115.250 42.890, 117.490 53.001, 117.490 61.500 C 117.490 72.711, 115.252 79.687, 109.735 85.671 C 106.402 89.288, 105.132 90, 102.019 90 C 94.719 90, 85.932 91.296, 86.274 92.323 C 86.463 92.890, 90.672 94.349, 95.628 95.564 C 109.097 98.868, 116.373 103.008, 119.595 109.200 C 121.634 113.120, 121.328 117.492, 118.567 123.875 C 116.850 127.845, 116.017 131.908, 115.736 137.684 C 115.070 151.383, 111.649 155.971, 97.973 161.500 C 96.613 162.050, 95.368 163.423, 95.206 164.552 C 94.878 166.850, 97.604 169.905, 109.389 180.441 L 117.152 187.381 122.826 186.196 C 134.048 183.853, 141.333 175.502, 144.714 161.104 C 146.149 154.994, 146.484 149.373, 146.417 132.500 C 146.371 120.950, 146.005 108.627, 145.602 105.116 C 144.875 98.769, 144.884 98.737, 147.185 99.452 C 148.458 99.848, 153.182 100.412, 157.683 100.707 C 164.655 101.164, 166.507 100.933, 170.204 99.143 C 177.578 95.574, 180.341 87.246, 175.988 81.712 C 171.599 76.132, 162.487 77.441, 152.361 85.105 L 146.099 89.845 145.300 85.172 C 144.860 82.603, 144.540 75.775, 144.588 70 C 144.659 61.554, 145.129 58.332, 146.992 53.531 C 151.067 43.027, 161.534 34.869, 177.750 29.559 C 183.630 27.633, 184.306 26.544, 180.250 25.528 C 178.737 25.149, 173.554 23.006, 168.731 20.766 C 161.467 17.391, 160.064 16.375, 160.550 14.841 C 161.421 12.099, 158.582 11.496, 154.320 13.519 C 149.537 15.788, 116.051 16.579, 69.681 15.517 L 36.861 14.766 35.955 12.383 C 34.986 9.834, 34.708 9.625, 33.667 10.667 M 139 18.205 C 132.675 18.710, 112.331 18.891, 93.792 18.606 L 60.083 18.088 61.136 20.400 C 62.719 23.873, 59.930 33.546, 53.552 46.703 L 48.121 57.907 52.811 55.053 C 62.515 49.146, 71.199 47.604, 76.512 50.844 L 79.524 52.681 95.265 45.696 C 108.002 40.044, 110.791 38.453, 109.880 37.356 C 109.154 36.481, 106.551 36, 102.544 36 C 95.810 36, 85 34.160, 85 33.014 C 85 31.929, 94.812 29, 98.445 29 C 100.214 29, 103.661 30.013, 106.104 31.250 C 113.421 34.955, 120.444 33.588, 136.839 25.269 C 144.175 21.546, 150.389 18.163, 150.648 17.750 C 150.906 17.337, 150.979 17.064, 150.809 17.143 C 150.639 17.221, 145.325 17.699, 139 18.205 M 155.827 20.921 C 152.232 23.749, 140.440 29.452, 134 31.476 C 130.975 32.428, 125.508 34.555, 121.851 36.204 L 115.202 39.203 117.032 43.351 C 123.754 58.586, 120.722 79.471, 110.409 88.977 C 106.950 92.165, 105.262 93.007, 102.272 93.033 C 98.571 93.066, 98.610 93.105, 104.334 95.074 C 121.823 101.090, 127.419 111.199, 121.071 125.305 C 119.945 127.806, 118.985 132.779, 118.694 137.622 C 117.890 151.013, 113.030 158.532, 102.605 162.513 C 100.072 163.480, 98 164.738, 98 165.307 C 98 167.580, 116.878 184, 119.492 184 C 123.877 184, 129.794 181.247, 133.619 177.427 C 138.432 172.622, 141.304 165.690, 142.932 154.950 C 144.318 145.803, 143.641 94.177, 141.947 79.874 C 140.112 64.375, 142.800 52.090, 150.025 42.969 C 153.658 38.381, 163.461 31.754, 170.196 29.333 C 174.433 27.809, 176.573 26, 174.138 26 C 173.482 26, 163.577 21.601, 158.919 19.240 C 158.600 19.079, 157.208 19.835, 155.827 20.921 M 53.012 25.641 C 48.466 32.811, 42.831 52.993, 44.216 57.148 C 44.440 57.821, 46.915 53.900, 49.716 48.436 C 55.026 38.074, 59 27.331, 59 23.335 C 59 19.526, 56.209 20.601, 53.012 25.641 M 94.083 32.365 C 94.313 32.565, 96.975 33.026, 100 33.388 C 103.833 33.847, 105.045 33.741, 104 33.039 C 102.654 32.134, 93.076 31.483, 94.083 32.365 M 58.472 55.393 C 54.637 57.259, 50.600 59.481, 49.500 60.332 C 47.602 61.799, 47.679 61.853, 51 61.387 C 55.501 60.756, 63.862 58.398, 70.787 55.807 C 74.682 54.350, 75.849 53.518, 74.870 52.899 C 71.916 51.027, 65.409 52.017, 58.472 55.393 M 44.901 63.620 C 44.030 64.669, 43.872 68.433, 44.327 77.284 C 44.860 87.640, 44.654 90.631, 42.978 96.932 C 40.917 104.675, 40.364 113.489, 41.879 114.425 C 43.207 115.246, 47.921 110.091, 50.492 105.008 C 54.180 97.717, 56.960 87.371, 57.653 78.359 C 58.259 70.475, 58.153 69.792, 55.975 67.474 C 54.697 66.113, 53.167 64.997, 52.576 64.994 C 51.984 64.990, 50.286 64.354, 48.801 63.580 C 46.469 62.363, 45.939 62.368, 44.901 63.620 M 160.176 83.142 C 157.798 84.319, 153.344 87.574, 150.278 90.376 L 144.704 95.471 149.102 96.816 C 155.651 98.819, 165.826 98.721, 169.829 96.617 C 173.934 94.459, 176.414 89.220, 175.041 85.609 C 173.147 80.627, 167.239 79.646, 160.176 83.142" stroke="none" fill="black" fill-rule="evenodd"/>
</svg>