<svg xmlns="http://www.w3.org/2000/svg" width="200" height="200" viewBox="0 0 200 200" version="1.1">
	<path d="M 32.396 13.930 C 28.600 15.775, 28.205 16.354, 27.146 21.629 C 26.516 24.767, 26 29.876, 26 32.983 C 26 44.997, 23.319 53.587, 17.157 61.315 C 9.756 70.597, 10.893 81.661, 21.903 107.482 C 30.910 128.605, 32.353 133.596, 32.317 143.500 C 32.276 154.531, 29.443 161.688, 22.279 168.852 C 18.582 172.549, 17.190 174.590, 17.890 175.290 C 18.590 175.990, 19.325 175.984, 20.208 175.271 C 20.918 174.697, 27.350 172.637, 34.500 170.693 C 57.361 164.479, 67.941 159.387, 71.406 152.931 C 74.001 148.096, 72.945 144.563, 67.285 139.139 L 62.733 134.778 66.864 115.139 C 71.686 92.208, 72.804 85.138, 73.170 75.250 L 73.438 68 76.719 68 L 80 68 80 84.451 C 80 93.499, 79.494 103.286, 78.876 106.201 C 77.424 113.042, 73.774 120.255, 68.664 126.382 C 65.542 130.126, 65.071 131.112, 66.643 130.613 C 84.645 124.900, 102.119 123.264, 105.480 126.978 C 110.726 132.774, 101.750 147.947, 78.108 173.247 C 73.099 178.607, 69 183.370, 69 183.830 C 69 185.611, 70.326 185.818, 73.352 184.509 C 75.083 183.761, 79.650 181.956, 83.500 180.498 C 94.485 176.339, 104.527 169.468, 116.473 157.934 C 122.538 152.079, 128.554 146.736, 129.843 146.060 C 135.778 142.945, 141.745 149.143, 151.927 168.996 C 155.878 176.698, 159.488 183, 159.950 183 C 163.272 183, 174.647 178.371, 177.517 175.851 C 184.707 169.538, 180.851 163.411, 162 151.192 C 150.181 143.531, 144 138.473, 144 136.464 C 144 132.476, 163.914 129.761, 180.500 131.488 C 186.761 132.140, 194.016 130.453, 194.777 128.169 C 195.059 127.324, 192.083 127, 184.032 127 L 172.898 127 171.199 123.250 C 169.773 120.101, 169.572 117.174, 169.951 105 C 170.802 77.665, 170.604 71.772, 168.718 68.280 C 166.466 64.109, 163.596 62.645, 157.924 62.774 L 153.333 62.879 155.667 58.270 C 158.460 52.753, 158.532 50.762, 156.131 45.500 C 152.467 37.472, 140.607 28.854, 126.580 24.027 C 121.859 22.403, 121.078 22.354, 120.580 23.653 C 120.265 24.473, 120.411 25.900, 120.904 26.822 C 122.106 29.070, 124.406 40.928, 123.764 41.569 C 123.383 41.950, 101.787 32.707, 100.222 31.493 C 100.070 31.375, 102.024 28.965, 104.565 26.139 L 109.185 21 92.430 21 L 75.675 21 63.088 16.904 C 47.524 11.841, 38.497 10.966, 32.396 13.930 M 40.909 17.044 C 44.922 18.865, 64.350 21.222, 63 19.724 C 61.882 18.483, 45.837 15.001, 41.333 15.022 L 36.500 15.044 40.909 17.044 M 29.655 24.132 C 29.379 26.534, 28.716 33.054, 28.181 38.620 C 27.117 49.701, 24.840 56.141, 20.063 61.581 C 16.849 65.241, 15.014 70.487, 15.006 76.040 C 14.996 81.956, 17.764 90.718, 25.020 107.747 C 33.343 127.277, 35 133.274, 35 143.857 C 35 152.739, 32.835 160.125, 28.513 165.982 C 27.144 167.838, 26.158 169.492, 26.323 169.657 C 26.739 170.072, 43.255 165.554, 50.293 163.099 C 58.144 160.360, 65.780 156.095, 68.092 153.156 C 71.320 149.052, 70.553 146.121, 64.850 140.767 L 59.700 135.932 63.885 116.216 C 67.915 97.231, 70.940 78.059, 70.980 71.238 L 71 67.976 66.750 68.612 C 64.412 68.961, 60.025 70.204, 57 71.374 L 51.500 73.500 50.731 89.500 C 50.309 98.300, 49.409 107.295, 48.731 109.490 C 47.239 114.326, 43.613 116.475, 38.974 115.273 C 34.762 114.182, 35.626 112.426, 40.187 112.810 C 46.338 113.328, 47.257 110.812, 47.719 92.174 C 48.084 77.460, 48.006 76.623, 46.447 78.500 C 43.849 81.629, 42 86.606, 42 90.468 C 42 93.074, 41.570 94, 40.361 94 C 36.301 94, 41.937 76.710, 46.855 74.078 C 47.860 73.540, 49.483 70.360, 50.548 66.842 C 52.389 60.760, 57.133 53.344, 61.412 49.857 C 63.498 48.157, 63.497 48.154, 60.500 46.990 C 58.850 46.350, 54.896 46.007, 51.713 46.229 C 46.761 46.575, 46.020 46.407, 46.569 45.066 C 51.077 34.074, 50.931 28.115, 46.046 23.750 C 44.292 22.183, 41.792 20.995, 40.234 20.989 C 38.730 20.983, 35.848 20.705, 33.829 20.371 L 30.158 19.764 29.655 24.132 M 50.692 24.653 C 52.438 27.318, 52.894 33.653, 51.731 39.108 L 50.962 42.717 56.108 43.326 C 58.938 43.662, 62.231 44.577, 63.427 45.360 C 65.269 46.567, 65.974 46.577, 68.050 45.428 C 71.509 43.514, 79.581 41.233, 85.748 40.428 C 90.333 39.829, 91.267 39.304, 93.142 36.270 C 95.720 32.099, 96.180 32.496, 82.500 27.098 C 73.336 23.483, 71.523 23.116, 60.815 22.711 L 49.131 22.270 50.692 24.653 M 84.083 24.395 C 84.313 24.612, 87.352 25.984, 90.838 27.445 C 97.535 30.250, 98.835 30.045, 101.090 25.832 C 102.007 24.118, 101.480 24, 92.869 24 C 87.807 24, 83.854 24.178, 84.083 24.395 M 124 26.301 C 124 29.839, 128.333 44.531, 130.069 46.879 C 132.182 49.737, 132.278 50.341, 131.129 53.519 C 130.144 56.243, 130.112 58.724, 130.984 64.757 C 132.541 75.537, 132.192 75.045, 137.082 73.360 C 142.627 71.449, 146.631 72.386, 148.517 76.034 C 150.209 79.304, 150.468 90.340, 148.998 96.500 C 148.473 98.700, 147.576 105.328, 147.005 111.229 C 145.838 123.287, 144.771 127, 142.474 127 C 141.607 127, 140.250 125.450, 139.458 123.555 C 138.105 120.317, 134.609 103.761, 131.763 87.117 L 130.500 79.734 124.892 84.307 C 119.340 88.833, 119.278 88.943, 118.765 95.189 C 118.040 104.017, 114.901 109.970, 109.135 113.455 C 106.586 114.996, 103.150 116.311, 101.500 116.378 C 94.932 116.645, 98.111 108.724, 110.148 94.830 C 114.124 90.240, 115.085 88.476, 114.620 86.623 C 113.720 83.036, 106.487 76.375, 100.325 73.461 C 94.333 70.626, 84.473 68.193, 83.385 69.281 C 83.011 69.655, 82.613 78.183, 82.500 88.231 C 82.283 107.577, 81.452 111.987, 76.515 120 C 75.330 121.925, 74.075 123.985, 73.727 124.578 C 73.342 125.234, 76.505 124.910, 81.797 123.750 C 87.425 122.517, 93.100 121.968, 97.858 122.197 C 104.447 122.513, 105.466 122.840, 107.608 125.331 C 113.679 132.389, 107.854 143.935, 85.502 169.150 C 80.212 175.117, 76.373 180, 76.972 180 C 79.345 180, 90.877 174.525, 97.439 170.282 C 101.255 167.815, 109.355 160.989, 115.439 155.115 C 128.237 142.757, 131.502 140.915, 136.440 143.270 C 142.076 145.957, 150.467 158.149, 157.560 173.955 C 159.052 177.280, 160.591 180, 160.980 180 C 163.353 180, 173.780 175.616, 175.702 173.810 C 181.032 168.803, 177.139 163.860, 158.612 152.109 C 147.273 144.917, 141 139.371, 141 136.538 C 141 134.576, 145.566 131.216, 149.866 130.014 C 151.865 129.455, 157.213 128.707, 161.750 128.351 C 166.287 127.996, 170 127.601, 170 127.475 C 170 127.348, 169.356 125.702, 168.568 123.817 C 166.723 119.401, 166.512 113.537, 167.407 91.500 C 168.071 75.175, 167.969 73.175, 166.319 70.011 C 163.496 64.597, 160.288 64.006, 151.244 67.236 C 147.094 68.718, 143.272 69.668, 142.752 69.347 C 142.232 69.025, 144.112 66.745, 146.929 64.281 C 155.436 56.839, 156.870 51.847, 152.589 44.588 C 149.527 39.396, 142.371 33.965, 132.707 29.500 C 125.492 26.167, 124 25.618, 124 26.301 M 95.976 36.750 L 93.806 39.500 103.153 40.021 C 108.294 40.308, 112.623 40.485, 112.773 40.415 C 113.085 40.269, 99.199 34, 98.564 34 C 98.334 34, 97.169 35.237, 95.976 36.750 M 80.500 44.100 C 74.819 45.378, 67.837 48.086, 68.253 48.852 C 70.343 52.700, 72.343 58.206, 72.755 61.250 C 73.238 64.812, 73.448 65, 76.943 65 C 80.546 65, 80.649 64.891, 81.952 59.750 C 82.683 56.862, 84.343 52.082, 85.641 49.126 C 86.938 46.170, 88 43.582, 88 43.376 C 88 42.805, 84.950 43.100, 80.500 44.100 M 90.805 45.250 C 88.367 49.099, 85.100 57.525, 84.436 61.672 L 83.802 65.638 89.651 66.919 C 98.623 68.885, 107.122 73.354, 112.187 78.769 C 114.668 81.421, 116.909 84.226, 117.168 85.003 C 117.508 86.025, 119.352 85.070, 123.819 81.561 C 127.219 78.890, 130 76.296, 130 75.795 C 130 73.430, 127.647 60.420, 127.109 59.812 C 126.774 59.434, 124.025 59.982, 121 61.030 C 115.057 63.088, 105.977 63.593, 103.052 62.028 C 98.451 59.565, 100.119 54.775, 108.067 47.630 L 113.216 43 102.723 43 C 92.930 43, 92.135 43.150, 90.805 45.250 M 113.297 46.860 C 107.481 51.456, 102.778 56.835, 103.274 58.321 C 104.315 61.446, 115.617 60.824, 122.946 57.239 C 126.601 55.451, 126.832 54.625, 125.455 48.268 C 125.063 46.460, 120.586 43, 118.639 43 C 118.387 43, 115.982 44.737, 113.297 46.860 M 61.788 53.175 C 58.324 56.452, 53 65.624, 53 68.313 C 53 69.431, 53.997 69.348, 58.250 67.879 C 61.138 66.881, 65.025 66.051, 66.889 66.033 L 70.279 66 69.675 60.901 C 69.342 58.096, 68.223 54.462, 67.186 52.825 L 65.302 49.849 61.788 53.175 M 136.222 76.503 C 133.569 77.655, 133.042 78.363, 133.461 80.214 C 133.745 81.471, 134.908 88.125, 136.044 95 C 138.598 110.444, 140.954 121.222, 142.028 122.371 C 142.475 122.849, 143.082 121.274, 143.376 118.871 C 145.553 101.061, 146.126 96.633, 147.116 90 C 148.061 83.667, 147.992 81.916, 146.669 78.750 C 145.379 75.662, 144.608 75.007, 142.301 75.039 C 140.760 75.061, 138.025 75.719, 136.222 76.503 M 109.865 99.356 C 103.749 106.739, 100.215 112.549, 101.226 113.560 C 101.578 113.911, 104.113 112.975, 106.861 111.479 C 110.921 109.270, 112.256 107.832, 113.987 103.810 C 115.158 101.087, 115.978 97.440, 115.808 95.706 L 115.500 92.554 109.865 99.356" stroke="none" fill="black" fill-rule="evenodd"/>
</svg>