<svg xmlns="http://www.w3.org/2000/svg" width="200" height="200" viewBox="0 0 200 200" version="1.1">
	<path d="M 55.716 9.112 C 44.886 10.656, 35.884 16.386, 31.843 24.308 C 27.239 33.332, 26.701 36.147, 25.974 55 C 25.326 71.815, 25.007 74.183, 22.467 81 C 20.232 86.998, 19.666 90.202, 19.641 97 C 19.605 107.150, 21.707 114.739, 29.088 131.098 C 36.071 146.574, 37.677 153.399, 36.048 160.676 C 34.934 165.652, 33.956 167.118, 27.396 173.635 C 23.328 177.677, 20 181.411, 20 181.933 C 20 184.824, 22.763 183.345, 29.243 176.984 C 39.399 167.014, 43.782 165.094, 62.314 162.499 C 68.261 161.667, 74.438 160.308, 76.039 159.480 C 82.185 156.302, 81.632 147.706, 74.178 130.520 L 69.255 119.173 72.828 112.837 C 77.338 104.837, 81.969 91.646, 81.987 86.750 C 81.999 83.205, 83.181 81.866, 84.464 83.942 C 84.785 84.460, 87.174 85.173, 89.773 85.526 C 97.531 86.580, 97.617 86.652, 100.381 94.437 C 101.821 98.495, 103 102.112, 103 102.475 C 103 103.568, 98.744 101.963, 94.658 99.328 C 92.545 97.965, 90.651 97.015, 90.449 97.218 C 90.247 97.420, 90.010 112.641, 89.923 131.042 C 89.787 159.565, 90.010 165.385, 91.433 170.500 C 94.534 181.649, 98.958 185.414, 108.085 184.673 C 113.329 184.247, 122.560 180.523, 128.251 176.537 C 131.131 174.520, 131.737 174.595, 132.521 177.066 C 133.540 180.277, 139.002 186, 141.047 186 C 142.059 186, 143.556 185.045, 144.373 183.878 C 145.690 181.998, 146.227 181.884, 149.079 182.878 C 160.322 186.797, 167.865 179.596, 172.711 160.318 C 174.035 155.052, 174.414 149.288, 174.374 135 C 174.329 118.860, 174.037 115.543, 172.090 109 C 170.862 104.875, 169.841 100.495, 169.822 99.266 C 169.782 96.742, 166.255 94.286, 158.547 91.417 L 153.594 89.573 161.830 88.295 C 171.095 86.858, 175.249 85.075, 177.562 81.546 C 179.376 78.777, 178.576 76.452, 174.191 71.750 C 169.350 66.560, 168.249 69.242, 173 74.653 C 174.650 76.532, 176 78.754, 176 79.591 C 176 82.102, 167.843 84.928, 157.495 86.001 L 147.757 87.010 129.628 81.111 C 119.658 77.867, 108.645 74.418, 105.157 73.448 C 98.930 71.716, 98.824 71.630, 99.407 68.717 C 99.733 67.085, 100 62.823, 100 59.247 L 100 52.743 108.149 53.215 C 117.611 53.763, 119 54.855, 119 61.748 C 119 71.440, 123.294 79.975, 127.382 78.407 C 129.610 77.552, 132 72.820, 132 69.262 C 132 64.968, 127.910 57.748, 124.203 55.500 C 120.921 53.509, 120.908 53.471, 121.473 47.320 L 122.041 41.141 113.758 34.673 C 103.152 26.391, 96.737 23.143, 94.558 24.952 C 92.511 26.650, 92.592 30.734, 94.879 41.200 L 96.758 49.798 93.754 50.399 C 87.023 51.745, 86.836 51.591, 81.224 40.061 C 74.601 26.455, 69.214 20, 64.483 20 C 60.486 20, 57.719 23.283, 55.861 30.229 C 54.278 36.150, 55.575 39.293, 63.316 48.287 C 66.555 52.050, 69.046 55.264, 68.852 55.428 C 67.686 56.420, 52.034 61, 49.812 61 C 45.722 61, 42 62.752, 42 64.678 C 42 65.628, 43.332 67.779, 44.960 69.459 L 47.920 72.513 45.867 80.507 C 42.236 94.638, 39.016 111.370, 39.008 116.143 C 38.999 121.305, 40.799 122.984, 43.337 120.181 C 48.452 114.528, 57.909 85.694, 58.736 73.228 C 59.198 66.259, 59.538 65.027, 60.892 65.409 C 61.777 65.658, 65.200 66.374, 68.500 67 C 78.062 68.813, 77.776 68.605, 79.038 74.681 C 81.131 84.766, 77.508 99.472, 69.610 112.948 L 66.008 119.094 70.442 128.797 C 75.820 140.565, 78.510 149.833, 77.599 153.461 C 76.720 156.964, 72.944 158.436, 61.021 159.923 C 55.808 160.573, 48.495 162.127, 44.771 163.376 C 41.047 164.625, 38 165.563, 38 165.460 C 38 165.357, 38.425 163.031, 38.945 160.292 C 40.300 153.143, 38.308 145.043, 31.248 129 C 23.605 111.631, 22.483 107.427, 22.578 96.500 C 22.643 88.951, 23.123 86.372, 25.559 80.500 C 28.263 73.980, 28.444 72.722, 28.195 62.163 C 27.521 33.524, 33.945 18.671, 49.329 13.304 C 57.433 10.477, 71.805 10.940, 85.500 14.469 C 91.550 16.028, 99.280 17.348, 102.677 17.402 C 110.554 17.527, 112.896 19.186, 119.753 29.497 C 127.101 40.548, 129.644 43, 133.752 43 C 136.478 43, 138.034 42.066, 141.815 38.163 C 144.392 35.502, 148.188 30.450, 150.250 26.936 C 152.312 23.421, 154 21.081, 154 21.735 C 154 22.390, 154.905 25.344, 156.011 28.300 C 157.463 32.181, 159.966 35.638, 165.011 40.734 C 170.420 46.196, 171.995 48.438, 171.976 50.646 C 171.940 54.965, 168.011 63.648, 162.131 72.400 C 158.557 77.721, 157.183 80.583, 157.871 81.271 C 159.173 82.573, 170.212 65.712, 173.090 58.027 C 176.079 50.043, 175.231 47.379, 167.048 39.049 C 159.855 31.726, 157.573 27.162, 156.157 17.268 L 155.484 12.563 150.041 21.836 C 141.166 36.958, 136.052 41.892, 131.436 39.789 C 130.300 39.271, 126.531 34.576, 123.060 29.355 C 114.870 17.036, 111.287 14.543, 101.577 14.404 C 97.685 14.348, 93.367 13.835, 91.983 13.264 C 84.278 10.088, 64.639 7.839, 55.716 9.112 M 62.247 23.250 C 60.030 26.028, 58.002 31.061, 58.035 33.700 C 58.082 37.367, 59.318 39.438, 66.424 47.756 L 72.347 54.689 78.113 53.237 L 83.879 51.784 81.394 46.142 C 77.531 37.372, 71.344 27.467, 67.940 24.603 C 64.445 21.663, 63.663 21.476, 62.247 23.250 M 96 29.677 C 96 31.149, 96.779 36.272, 97.730 41.061 L 99.460 49.770 106.980 50.306 C 111.116 50.601, 115.513 51.155, 116.750 51.538 C 118.877 52.195, 119 51.959, 119 47.203 C 119 42.218, 118.941 42.126, 112.624 37.098 C 106.515 32.237, 98.331 27.037, 96.750 27.012 C 96.338 27.005, 96 28.204, 96 29.677 M 89.750 53.689 C 87.616 54.247, 87.604 53.837, 89.909 59.123 C 90.959 61.530, 92.555 65.293, 93.456 67.484 C 94.698 70.506, 95.307 71.121, 95.981 70.031 C 97.340 67.831, 98.257 59.445, 97.509 56.040 C 96.959 53.535, 96.371 53.020, 94.171 53.116 C 92.702 53.180, 90.713 53.438, 89.750 53.689 M 78 55.874 C 74.959 56.745, 74.934 57.369, 77.732 62.642 C 79.655 66.266, 80.567 66.937, 85.019 68.005 C 87.818 68.676, 90.276 69.058, 90.481 68.853 C 90.685 68.648, 89.637 65.560, 88.151 61.990 C 85.279 55.090, 83.813 54.207, 78 55.874 M 121.557 62.750 C 122.318 68.997, 124.705 76, 126.073 76 C 128.709 76, 129.928 67.670, 127.875 63.684 C 126.408 60.835, 122.896 57, 121.754 57 C 121.246 57, 121.161 59.500, 121.557 62.750 M 64.750 59.771 C 62.138 60.640, 60 61.636, 60 61.985 C 60 62.333, 63.600 63.304, 68 64.143 C 72.400 64.981, 76 65.458, 76 65.202 C 76 63.800, 71.660 58.015, 70.668 58.096 C 70.026 58.148, 67.362 58.902, 64.750 59.771 M 44.991 65.267 C 44.986 65.945, 46.357 67.630, 48.037 69.012 L 51.092 71.523 47.063 87.869 C 44.847 96.860, 42.798 107.205, 42.511 110.858 L 41.988 117.500 44.612 112 C 51.797 96.942, 58.529 69.961, 56.070 66.078 C 54.895 64.224, 45.004 63.500, 44.991 65.267 M 81.591 73.250 C 82.890 81.058, 82.939 81.153, 85.283 80.426 C 88.667 79.376, 93 76.031, 93 74.471 C 93 73.657, 90.845 72.437, 87.818 71.539 C 80.960 69.502, 80.967 69.500, 81.591 73.250 M 96.758 74.576 C 96.429 74.904, 96.890 77.144, 97.783 79.552 C 99.711 84.755, 99.230 84.609, 119 85.977 C 137.379 87.249, 138.434 87.205, 133.500 85.378 C 130.379 84.223, 108.692 77.366, 98.928 74.448 C 98.063 74.189, 97.086 74.247, 96.758 74.576 M 90.609 80.880 C 88.980 82.679, 89.049 82.781, 92.204 83.261 C 96.166 83.864, 96.367 83.732, 95.524 81.075 C 94.705 78.495, 92.834 78.421, 90.609 80.880 M 101.063 87.671 C 101.097 88.127, 102.335 91.847, 103.813 95.939 C 106.156 102.425, 106.884 103.482, 109.500 104.189 C 116.074 105.966, 133.846 101.797, 147.700 95.227 L 153.900 92.287 149.700 90.897 C 147.390 90.133, 145.199 89.606, 144.831 89.727 C 143.656 90.112, 106.611 88.039, 103.750 87.428 C 102.237 87.105, 101.028 87.214, 101.063 87.671 M 142.598 106.142 L 129.697 118.785 131.348 122.913 C 133.264 127.701, 133.459 131.141, 131.901 132.699 C 130.280 134.320, 131.214 136.359, 140.088 150.582 L 148.148 163.500 147.602 171.286 C 147.068 178.917, 147.108 179.090, 149.594 180.036 C 160.217 184.075, 166.990 176.047, 170.716 155 C 171.818 148.780, 172.084 142.342, 171.708 131 C 171.162 114.552, 169.501 105.917, 165.913 100.877 C 164.786 99.295, 164.232 97.986, 164.682 97.970 C 165.857 97.926, 162.531 96.093, 158.741 94.695 L 155.500 93.500 142.598 106.142 M 141.083 101.101 C 133.670 104.389, 121.995 107, 114.705 107 C 108.525 107, 107.858 107.187, 108.460 108.750 C 108.831 109.713, 110.523 114.473, 112.220 119.328 L 115.305 128.156 118.185 125.277 C 121.012 122.450, 121.036 122.331, 119.532 118.731 C 118.689 116.714, 118 113.925, 118 112.532 C 118 108.925, 121.454 109.204, 125.099 113.106 L 128 116.212 135.863 109.123 C 143.123 102.579, 146.789 98.897, 145.872 99.071 C 145.668 99.109, 143.512 100.023, 141.083 101.101 M 92.618 128.865 C 91.708 164.549, 93.093 174.781, 99.514 179.832 C 103.980 183.345, 110.225 182.782, 119.634 178.016 C 123.960 175.824, 128.073 173.654, 128.774 173.192 C 129.756 172.545, 129.278 170.654, 126.687 164.926 C 124.839 160.842, 121.375 152.218, 118.989 145.762 C 115.962 137.572, 114.082 133.844, 112.772 133.428 C 111.305 132.962, 111.145 132.531, 112.040 131.452 C 113.627 129.540, 105.320 106.010, 103.047 105.978 C 102.196 105.966, 99.654 105.118, 97.399 104.093 L 93.297 102.231 92.618 128.865 M 121.067 114.500 C 121.069 115.600, 121.650 117.543, 122.357 118.818 C 123.461 120.807, 123.815 120.928, 124.860 119.668 C 125.847 118.480, 125.602 117.661, 123.570 115.351 C 121.348 112.824, 121.064 112.727, 121.067 114.500 M 125.399 122.403 C 125.103 123.175, 125.897 125.762, 127.163 128.153 C 129.447 132.465, 129.469 132.477, 129.810 129.643 C 130.429 124.499, 126.849 118.624, 125.399 122.403 M 118.951 128.553 C 116.928 130.705, 116.783 131.251, 118.026 132.037 C 119.647 133.063, 126 133.355, 126 132.404 C 126 131.385, 122.602 126, 121.959 126 C 121.623 126, 120.269 127.149, 118.951 128.553 M 118.519 136.866 C 118.874 137.765, 120.872 143, 122.960 148.500 C 128.120 162.094, 131.719 170, 132.745 170 C 133.215 170, 134.049 169.551, 134.599 169.001 C 135.263 168.337, 136.902 169.340, 139.501 172.001 C 141.649 174.201, 143.709 176, 144.079 176 C 144.449 176, 144.962 173.473, 145.218 170.384 C 145.679 164.822, 145.607 164.644, 137.879 152.134 C 127.663 135.595, 128.283 136.265, 122.687 135.710 C 118.531 135.297, 117.963 135.454, 118.519 136.866 M 134 173.050 C 134 176.504, 140.032 183.716, 141.937 182.539 C 143.830 181.369, 143.077 179.481, 139.208 175.703 C 135.303 171.890, 134 171.226, 134 173.050" stroke="none" fill="black" fill-rule="evenodd"/>
</svg>