<svg xmlns="http://www.w3.org/2000/svg" width="200" height="200" viewBox="0 0 200 200" version="1.1">
	<path d="M 33 13.369 C 33 19.454, 30.017 34.011, 25.516 49.888 C 20.564 67.359, 18.987 77.064, 19.028 89.822 C 19.055 98.174, 19.171 98.613, 22.126 101.500 C 33.512 112.626, 35.121 136.673, 26.466 166.373 C 25.044 171.253, 24.093 175.799, 24.352 176.475 C 24.677 177.322, 27.725 176.273, 34.162 173.097 C 39.298 170.564, 47.550 166.701, 52.500 164.514 C 57.450 162.327, 63.213 158.991, 65.307 157.101 C 71.611 151.410, 72.180 149.049, 73.033 125 C 73.774 104.111, 75.021 95.008, 79.063 81 L 80.361 76.500 81.200 82 C 83.247 95.424, 79.690 137.644, 75.474 149.963 C 74.070 154.068, 72.405 160.432, 71.775 164.106 C 70.770 169.966, 70.839 171.106, 72.338 173.393 C 73.277 174.827, 74.598 175.998, 75.273 175.996 C 77.887 175.988, 83.095 171.842, 87.434 166.313 C 93.499 158.586, 97.261 151.316, 101.077 139.950 L 104.249 130.500 104.374 107.500 C 104.481 87.991, 104.763 83.917, 106.236 80.662 C 108.202 76.314, 109.804 76.290, 112 80.574 C 113.893 84.267, 113.952 102.842, 112.099 111.500 C 111.392 114.800, 108.805 123.689, 106.350 131.254 C 100.273 149.982, 101.441 151.529, 112.469 139.353 C 127.608 122.638, 137.080 121.805, 141.533 136.799 C 142.382 139.659, 143.483 142, 143.980 142 C 145.653 142, 146.021 140.184, 144.925 137.334 C 144.326 135.775, 143.416 132.025, 142.903 129 C 141.786 122.404, 141.754 86.957, 142.859 78.500 L 143.642 72.500 144.466 76.431 C 144.919 78.592, 145.010 85.894, 144.667 92.656 C 143.625 113.211, 146.418 140.415, 151.142 155.737 C 156.554 173.288, 164.235 182.029, 174.200 181.978 C 178.304 181.957, 186.194 179.162, 187.254 177.354 C 188.104 175.904, 186.312 150.763, 185.022 146.028 C 184.122 142.724, 182.298 140.114, 178.035 136.028 C 169.502 127.850, 169.506 127.875, 169.471 77.500 C 169.445 39.257, 169.281 35.125, 167.636 31.309 C 165.439 26.210, 162.300 23.997, 157.285 24.010 C 153.440 24.020, 145.061 27.396, 140.080 30.943 C 137.359 32.881, 137.289 32.880, 130.968 30.913 C 120.952 27.796, 107.388 25.764, 101.619 26.516 C 98.804 26.884, 94.155 28.487, 91.290 30.078 L 86.080 32.972 77.290 29.883 C 67.910 26.586, 45.237 16.426, 38.322 12.420 C 36.024 11.089, 33.886 10, 33.572 10 C 33.257 10, 33 11.516, 33 13.369 M 35.649 16.750 C 35.382 17.712, 34.858 21.183, 34.483 24.463 C 34.109 27.743, 31.809 37.418, 29.373 45.963 C 23.806 65.491, 22 75.724, 22 87.749 C 22 96.964, 22.090 97.339, 25.149 100.822 C 35.696 112.835, 37.654 135.149, 30.500 161.822 C 29.125 166.949, 28 171.531, 28 172.003 C 28 172.881, 43.559 166.022, 57 159.219 C 66.909 154.204, 68.820 150.925, 70.116 136.719 C 70.629 131.099, 70.782 122.900, 70.455 118.500 C 69.968 111.924, 70.407 107.783, 72.924 95.235 C 76.318 78.312, 78.122 73, 80.474 73 C 83.690 73, 84.215 77.848, 83.669 102.500 C 83.059 130.040, 82.150 137.643, 77.826 151.362 C 74.590 161.627, 73.551 171.965, 75.681 172.708 C 79.271 173.961, 91.388 157.758, 96.402 145 C 101.183 132.837, 101.970 127.123, 101.304 109.419 C 100.489 87.740, 102.726 76.174, 108.061 74.481 C 113.323 72.810, 116.464 80.422, 116.322 94.500 C 116.194 107.139, 112.291 125.048, 106.212 140.891 C 105.916 141.661, 109.010 138.911, 113.087 134.779 C 121.786 125.965, 127.710 122.529, 132.788 123.353 C 134.691 123.662, 136.980 124.578, 137.874 125.388 C 139.371 126.744, 139.473 125.460, 139.165 109.244 C 138.700 84.838, 141.013 63, 144.063 63 C 146.493 63, 147.061 68.573, 147.443 96.220 C 147.949 132.766, 150.301 148.785, 157.469 164.500 C 161.826 174.053, 167.308 179, 173.535 179 C 176.026 179, 179.625 178.348, 181.532 177.551 C 184.658 176.245, 185 175.713, 185 172.157 C 185 165.629, 182.987 148.100, 181.906 145.206 C 181.349 143.718, 178.488 140.250, 175.546 137.500 C 166.728 129.256, 165.471 120.237, 166.476 72.426 C 167.208 37.602, 166.820 32.820, 162.947 28.947 C 159.287 25.287, 151.718 26.764, 141.923 33.050 L 137.321 36.003 131.522 34.008 C 116.302 28.771, 101.054 27.872, 93.468 31.764 L 89.600 33.749 95.050 35.007 C 98.048 35.700, 109.275 36.584, 120 36.973 C 135.269 37.526, 140.476 38.072, 144 39.490 C 146.475 40.486, 148.868 41.624, 149.319 42.019 C 150.417 42.982, 126.811 64.564, 122.166 66.844 C 120.150 67.834, 117.725 68.469, 116.778 68.254 C 114.960 67.842, 113.015 62.437, 113.006 57.770 C 112.997 53.356, 110.113 47.373, 107.399 46.136 C 106.028 45.511, 102.475 45, 99.505 45 C 93.363 45, 78.894 49.218, 76.934 51.580 C 75.176 53.698, 69.276 56.602, 65 57.453 C 57.821 58.882, 58.329 57.813, 57.711 72.773 C 56.575 100.308, 50.207 122.002, 44.320 118.397 C 42.397 117.219, 38.737 106.692, 39.214 103.710 C 39.773 100.216, 41.440 101.991, 42.500 107.208 C 43.091 110.118, 44.065 113.357, 44.663 114.404 C 45.702 116.220, 45.828 116.192, 47.395 113.800 C 50.457 109.128, 54.049 90.397, 54.693 75.750 C 55.025 68.188, 54.987 62, 54.609 62 C 54.230 62, 52.120 62.919, 49.919 64.041 L 45.917 66.083 47.852 62.291 C 48.916 60.206, 50.727 57.650, 51.875 56.612 C 53.679 54.980, 54.190 54.912, 55.637 56.112 C 57.190 57.400, 57.270 56.741, 56.740 47 C 56.142 36.021, 53.201 24.242, 50.497 21.997 C 49.239 20.953, 48.764 21.322, 47.514 24.311 C 45.216 29.812, 43.725 54.253, 44.498 73.750 C 45.124 89.540, 45.039 91, 43.494 91 C 41.938 91, 41.841 88.609, 42.242 60.250 C 42.593 35.441, 42.991 28.543, 44.302 24.547 C 45.195 21.822, 45.831 19.515, 45.713 19.420 C 45.115 18.932, 37.013 15, 36.607 15 C 36.347 15, 35.916 15.787, 35.649 16.750 M 56.405 27.731 C 58.150 32.678, 60 44.417, 60 50.549 C 60 53.889, 60.355 55.068, 61.250 54.698 C 75.183 48.948, 76.913 47.782, 80.861 41.486 L 84.772 35.248 80.869 34.079 C 77.724 33.137, 61.771 26.831, 56.258 24.351 C 55.311 23.925, 55.346 24.729, 56.405 27.731 M 84.145 41.199 C 81.881 44.637, 81.324 46.090, 82.432 45.665 C 89.272 43.040, 95.957 41.828, 101.611 42.188 C 106.933 42.527, 108.449 43.056, 110.945 45.447 C 113.836 48.217, 114.827 51.208, 116.517 62.250 C 116.832 64.313, 117.443 66, 117.874 66 C 119.689 66, 128.107 59.508, 136.500 51.636 L 145.500 43.194 142.500 41.940 C 140.691 41.184, 131.761 40.405, 120 39.977 C 109.275 39.588, 98.700 38.804, 96.500 38.235 C 87.178 35.825, 87.779 35.681, 84.145 41.199" stroke="none" fill="black" fill-rule="evenodd"/>
</svg>