<svg xmlns="http://www.w3.org/2000/svg" width="200" height="200" viewBox="0 0 200 200" version="1.1">
	<path d="M 30 6.331 C 30 6.631, 30.721 9.941, 31.603 13.688 C 32.707 18.383, 33.057 23.219, 32.728 29.248 C 32.226 38.462, 30.962 41.722, 20.476 60.837 C 16.245 68.551, 15.960 73.606, 19.375 80.352 L 21.750 85.043 19.255 91.221 C 17.202 96.303, 16.843 98.559, 17.232 103.949 C 17.807 111.933, 20.483 117.515, 28.999 128.500 C 32.409 132.900, 36.055 138.170, 37.100 140.210 C 42.233 150.234, 37.127 160.691, 21.303 172.559 C 17.011 175.779, 13.087 178.755, 12.583 179.173 C 12.069 179.600, 12.404 180.218, 13.344 180.579 C 15.540 181.421, 20.936 179.621, 48 169.018 C 60.375 164.170, 73.794 159.229, 77.819 158.039 L 85.139 155.874 81.111 151.505 C 69.095 138.469, 69.773 117.161, 83.291 83.002 L 87.447 72.500 88.195 80.500 C 88.625 85.099, 90.762 94.452, 93.222 102.500 C 97.041 114.998, 97.500 117.573, 97.500 126.500 C 97.500 136.225, 97.385 136.734, 93.307 145 C 90.965 149.748, 86.585 156.369, 83.384 160 C 72.427 172.431, 69.432 179.317, 74.437 180.573 C 79.750 181.907, 96.782 170.038, 106.856 157.982 C 113.583 149.930, 117.538 142.092, 118.991 133.931 C 120.702 124.319, 124.942 107.986, 126.484 105.067 L 127.840 102.500 129.143 105.500 C 130.116 107.738, 130.454 116.031, 130.474 138.164 L 130.500 167.827 133.539 172.151 C 135.530 174.985, 138.522 177.469, 142.220 179.360 C 156.595 186.712, 178.985 180.003, 185.134 166.500 C 188.690 158.694, 186.586 148.879, 179.314 139.345 L 176.551 135.722 175.357 143.442 C 174.106 151.533, 172.117 155, 168.727 155 C 165.574 155, 159.513 148.033, 156.984 141.500 C 152.029 128.704, 154.771 104.001, 161.647 99.496 C 165.098 97.235, 169.525 87.275, 171.646 77 C 173.856 66.298, 174.163 39.078, 172.162 31.300 C 170.672 25.507, 168.944 23.566, 165.096 23.362 C 163.668 23.286, 159.516 22.666, 155.870 21.984 C 146.612 20.252, 138.850 21.751, 127.480 27.466 C 117.724 32.370, 114.658 32.831, 106.500 30.623 C 102.536 29.550, 36.259 8.078, 31.250 6.244 C 30.563 5.992, 30 6.031, 30 6.331 M 34.389 13.195 C 35.197 17.234, 35.217 17.248, 38.426 16.028 C 39.913 15.463, 42.316 15, 43.765 15 C 47.565 15, 45.465 13.464, 39.129 11.609 L 33.757 10.036 34.389 13.195 M 42.500 17.713 C 41.400 17.978, 40.170 18.503, 39.767 18.880 C 39.364 19.257, 40.121 24.726, 41.449 31.033 C 43.533 40.931, 46 58.534, 46 63.503 C 46 64.723, 46.780 64.463, 49.409 62.365 C 52.661 59.770, 52.794 59.409, 52.294 54.557 C 51.962 51.340, 52.547 45.652, 53.884 39.095 C 56.662 25.476, 56.611 22.520, 53.545 19.455 C 51.137 17.046, 47.594 16.488, 42.500 17.713 M 58.326 21.925 C 59.165 25.071, 58.939 28.013, 57.187 36.735 C 55.051 47.366, 54.330 57, 55.669 57 C 56.037 57, 58.769 55.628, 61.739 53.952 C 71.196 48.615, 89.091 41.819, 102.291 38.551 L 115.082 35.385 107.432 33.582 C 103.225 32.590, 90.506 28.678, 79.168 24.889 C 67.830 21.100, 58.267 18, 57.916 18 C 57.565 18, 57.749 19.766, 58.326 21.925 M 35.738 29.250 C 35.071 38.029, 32.745 44.408, 25.858 56.341 C 19.281 67.736, 18.518 73.045, 22.415 80.297 L 24.993 85.093 22.847 89.297 C 19.821 95.222, 19.195 105.604, 21.500 111.639 C 22.473 114.187, 26.595 120.687, 30.660 126.083 C 38.990 137.141, 41.956 142.896, 41.956 148 C 41.956 155.046, 36.103 164.256, 26.677 172.041 C 23.830 174.393, 22.175 176.078, 23 175.785 C 23.825 175.493, 33.725 171.650, 45 167.246 C 56.275 162.842, 68.425 158.207, 72 156.946 C 75.575 155.684, 78.646 154.547, 78.824 154.419 C 79.002 154.291, 77.815 152.347, 76.186 150.098 C 69.275 140.558, 68.184 122.316, 73.390 103.367 C 76.653 91.488, 87.141 64.778, 88.750 64.246 C 89.649 63.949, 90 65.382, 90 69.344 C 90 78.824, 91.933 89.345, 96.121 102.656 C 101.072 118.393, 102.036 127.925, 99.544 136.497 C 97.036 145.125, 92.783 152.961, 86.705 160.151 C 76.226 172.549, 73.040 178, 76.273 178 C 79.534 178, 91.292 169.646, 99.494 161.500 C 111.108 149.966, 114.022 144.500, 117.460 127.797 C 121.210 109.582, 124.675 100, 127.512 100 C 132.228 100, 134.186 114.442, 133.776 146.206 L 133.500 167.620 136.223 171.208 C 143.578 180.898, 162.206 182.442, 174.624 174.391 C 183.990 168.318, 186.449 158.689, 181.364 148 L 178.748 142.500 177.467 147.971 C 176.142 153.633, 172.535 158.004, 169.194 157.996 C 163.724 157.984, 156.308 149.136, 153.273 139 C 149.142 125.206, 152.387 104.655, 159.864 97.252 C 164.666 92.498, 167.639 84.692, 169.648 71.570 C 172.393 53.633, 170.122 23.952, 166.191 26.382 C 165.722 26.672, 162.900 26.259, 159.920 25.466 C 150.010 22.829, 139.258 24.223, 129.224 29.448 L 124.500 31.907 135.670 31.953 L 146.841 32 147.656 38.750 C 149.130 50.957, 148.647 68.104, 146.728 71.679 C 143.083 78.472, 137.511 76.497, 129.941 65.731 C 127.145 61.754, 122.752 54.142, 120.179 48.816 C 117.605 43.490, 115.275 39.109, 115 39.081 C 114.725 39.053, 110.450 42.242, 105.500 46.167 C 94.924 54.553, 87.573 58.261, 82.244 57.896 C 80.185 57.755, 75.446 58.663, 71.713 59.914 C 67.094 61.461, 63.264 62.076, 59.726 61.837 C 54.806 61.506, 54.298 61.706, 50.264 65.572 C 46.247 69.420, 46 69.980, 46 75.212 C 46 80.398, 46.259 81.001, 49.889 84.281 C 52.029 86.214, 54.729 88.096, 55.889 88.465 C 57.050 88.833, 58 89.528, 58 90.008 C 58 92.190, 55.809 91.736, 51.127 88.586 L 46.058 85.174 45.588 88.337 C 43.115 104.990, 42.049 113.383, 42.366 113.700 C 42.575 113.908, 45.357 110.450, 48.551 106.015 C 53.667 98.910, 56.118 96.761, 56.164 99.340 C 56.195 101.045, 40.780 121, 39.433 121 C 37.610 121, 37.625 120.674, 40.080 107.500 C 42.874 92.504, 43.588 62.246, 41.501 47.263 C 40.099 37.196, 37.117 22, 36.544 22 C 36.404 22, 36.041 25.262, 35.738 29.250 M 118.417 36.355 C 117.234 39.438, 129.568 62.359, 136.111 69.238 C 143.749 77.267, 146.517 71.863, 145.618 50.680 C 145.295 43.078, 144.772 36.441, 144.456 35.930 C 144.140 35.418, 138.269 35, 131.410 35 C 121.838 35, 118.816 35.315, 118.417 36.355 M 103.500 40.727 C 90.045 44.060, 58.440 57.285, 59.568 59.110 C 60.223 60.170, 65.042 59.264, 72 56.773 C 75.025 55.691, 79.381 54.868, 81.680 54.945 C 83.980 55.022, 87.561 54.374, 89.640 53.506 C 93.190 52.023, 108 41.512, 108 40.476 C 108 39.927, 106.362 40.018, 103.500 40.727" stroke="none" fill="black" fill-rule="evenodd"/>
</svg>