<svg xmlns="http://www.w3.org/2000/svg" width="200" height="200" viewBox="0 0 200 200" version="1.1">
	<path d="M 124.975 19.565 C 124.439 20.976, 123.996 22.438, 123.991 22.815 C 123.986 23.192, 118.729 23.641, 112.309 23.812 C 105.668 23.990, 99.283 24.691, 97.496 25.437 C 92.253 27.628, 87.215 32.818, 80.546 42.898 C 71.349 56.800, 67.180 60.159, 61.708 58.079 L 59.153 57.108 60.586 51.804 C 61.374 48.887, 62.060 42.900, 62.110 38.500 C 62.264 24.887, 57.995 18, 49.400 18 C 37.935 18, 29.563 36.358, 31.800 56.593 L 32.584 63.685 29.380 62.702 C 25.426 61.488, 23 62.318, 23 64.883 C 23 65.954, 25.061 72.102, 27.581 78.546 C 38.400 106.216, 36.674 117.952, 20.750 124.993 L 16 127.094 16 132.604 C 16 144.839, 20.035 152.020, 26.886 151.978 C 31.473 151.950, 35.903 149.908, 49.064 141.759 C 63.482 132.830, 71.330 129.001, 75.221 128.996 C 77.025 128.994, 79.982 128.089, 81.794 126.984 C 83.605 125.880, 87.205 124.869, 89.794 124.738 C 94.365 124.507, 94.509 124.587, 94.798 127.539 C 95.254 132.195, 88.418 144.682, 77.105 159.860 C 68.178 171.838, 66.125 176, 69.147 176 C 71.181 176, 78.208 171.703, 93.456 161.136 C 102.232 155.055, 109.560 150.227, 109.741 150.408 C 109.922 150.588, 109.615 152.708, 109.059 155.118 C 106.754 165.116, 108.387 173.587, 113.630 178.830 C 116.721 181.921, 117.477 182.206, 121.408 181.763 C 123.803 181.493, 126.894 180.424, 128.276 179.386 C 134.332 174.842, 138.914 164.217, 138.967 154.594 L 139 148.688 143.859 153.756 C 154.974 165.348, 172.450 168.600, 178.984 160.293 C 181.537 157.048, 181.663 149.788, 179.248 145.121 C 177.595 141.925, 176.899 141.592, 166.419 138.984 C 154.367 135.985, 148.651 133.554, 149.266 131.691 C 149.482 131.036, 155.804 128.644, 163.315 126.375 C 170.825 124.106, 178.129 121.490, 179.546 120.562 C 184.706 117.181, 180.597 113.083, 168.565 109.611 C 160.949 107.413, 160.715 107.405, 155.654 109.153 C 148.086 111.769, 143.278 111.427, 132.430 107.500 C 126.562 105.376, 120.744 103.957, 117.631 103.890 L 112.500 103.780 120 101.819 C 135.025 97.890, 149.376 99.247, 155.707 105.195 L 157.942 107.294 159.940 104.897 C 162.902 101.346, 167.739 89.256, 169.989 79.782 C 175.658 55.914, 174.165 35.883, 166.180 28.661 C 161.540 24.466, 151.935 24.841, 144.855 29.494 C 141.303 31.828, 141.167 31.842, 139.514 30.016 C 138.581 28.985, 136.284 27.414, 134.409 26.524 C 132.467 25.602, 131 24.162, 131 23.176 C 131 21.108, 128.285 17, 126.919 17 C 126.386 17, 125.512 18.154, 124.975 19.565 M 46.445 20.937 C 42.989 22.373, 38.317 28.533, 36.418 34.159 C 34.433 40.039, 33.927 53.492, 35.323 63.261 L 36.147 69.022 31.323 66.452 C 24.944 63.052, 24.785 64.186, 29.876 76.812 C 35.055 89.659, 37 97.333, 37 104.926 C 37 115.401, 32.490 122.555, 23.119 126.944 L 18.350 129.178 18.783 134.839 C 19.021 137.953, 20.067 142.470, 21.108 144.877 L 23 149.254 27.817 148.792 C 31.711 148.417, 36.014 146.314, 50.298 137.802 C 67.191 127.736, 67.881 127.202, 66.094 125.585 C 62.801 122.605, 58.966 112.416, 57.769 103.465 C 55.746 88.351, 59.490 74.894, 66.664 71.489 C 69.781 70.010, 70.278 70.036, 74.250 71.893 C 82.406 75.706, 82.599 76.098, 82.546 88.715 C 82.503 99.092, 82.671 100.101, 84.783 102.215 C 88.077 105.512, 96.182 105.052, 114 100.557 C 133.667 95.596, 143.316 95.381, 152.048 99.709 L 158.134 102.725 159.580 100.518 C 161.992 96.837, 166.674 83.012, 168.560 74 C 170.750 63.537, 171.082 44.145, 169.164 38.725 C 167.237 33.279, 163.408 29.167, 159.599 28.453 C 155.513 27.686, 149.096 29.350, 145.633 32.074 C 143.402 33.829, 143.174 34.456, 144.123 36.230 C 144.767 37.433, 145 40.350, 144.673 43.111 C 144.282 46.413, 144.587 48.870, 145.654 51.008 C 147.659 55.028, 146.815 59.502, 142.985 65.135 C 140.280 69.115, 140.169 69.588, 141.735 70.500 C 145.436 72.655, 150 77.911, 150 80.018 C 150 81.248, 148.325 83.910, 146.236 86 C 137.995 94.240, 107.980 99.511, 111.993 92.013 C 112.579 90.917, 116.618 88.740, 121.506 86.883 C 129.835 83.719, 130 83.591, 130 80.302 L 130 76.949 127.050 78.474 C 125.427 79.313, 122.085 80, 119.622 80 C 115.977 80, 114.760 79.511, 113.073 77.365 C 111.933 75.916, 111 73.891, 111 72.865 C 111 70.228, 113.794 70.537, 114.180 73.217 C 114.356 74.436, 115.705 76.107, 117.178 76.931 C 119.613 78.293, 120.295 78.248, 124.678 76.438 C 128.836 74.720, 129.542 74.013, 129.807 71.308 C 130.046 68.867, 129.658 68.026, 128.057 67.518 C 125.350 66.659, 125.296 64.003, 128 64.710 C 129.751 65.168, 130 64.741, 130 61.273 L 130 57.312 122.085 57.210 C 114.409 57.110, 103.124 54.225, 96.179 50.586 C 93.714 49.294, 93.888 49.186, 101.061 47.551 C 105.153 46.619, 113.338 45.341, 119.250 44.711 C 129.596 43.608, 130 43.476, 130 41.177 C 130 39.863, 128.893 37.473, 127.540 35.865 C 126.187 34.257, 124.776 31.322, 124.405 29.343 L 123.730 25.745 112.216 26.454 C 105.883 26.844, 99.694 27.546, 98.462 28.014 C 94.216 29.629, 88.751 35.437, 81.971 45.543 C 78.231 51.118, 73.691 56.924, 71.882 58.446 C 68.977 60.890, 67.969 61.162, 63.261 60.772 C 60.329 60.529, 57.511 59.911, 56.999 59.399 C 56.424 58.824, 56.688 56.177, 57.687 52.484 C 59.897 44.316, 59.949 30.450, 57.785 26.427 C 56.876 24.737, 55.537 22.861, 54.810 22.258 C 52.831 20.615, 48.765 19.973, 46.445 20.937 M 127.079 22.583 C 127.127 23.748, 127.364 23.985, 127.683 23.188 C 127.972 22.466, 127.936 21.603, 127.604 21.271 C 127.272 20.939, 127.036 21.529, 127.079 22.583 M 127 28.809 C 127 29.804, 127.712 31.491, 128.582 32.559 C 130.029 34.335, 130.114 34.344, 129.582 32.668 C 129.262 31.661, 129 29.973, 129 28.918 C 129 27.863, 128.550 27, 128 27 C 127.450 27, 127 27.814, 127 28.809 M 132.015 31.250 C 132.042 35.165, 133.394 36.389, 136.123 34.968 C 139.526 33.195, 139.516 33.244, 136.892 31.058 C 133.727 28.423, 131.997 28.491, 132.015 31.250 M 136.250 37.355 C 133.456 38.265, 133 38.875, 133 41.707 C 133 43.834, 133.487 45, 134.375 45 C 135.131 45, 137.183 45.287, 138.935 45.637 L 142.121 46.274 141.810 41.465 C 141.468 36.162, 140.993 35.810, 136.250 37.355 M 111.279 48.412 C 107.308 49.070, 103.808 49.858, 103.502 50.165 C 102.858 50.808, 112.535 53.622, 118.702 54.585 C 121.014 54.945, 124.501 54.941, 126.452 54.575 C 129.703 53.965, 130 53.620, 130 50.455 L 130 47 124.250 47.108 C 121.088 47.167, 115.251 47.754, 111.279 48.412 M 133 49.958 L 133 53.051 136.115 51.441 C 139.343 49.771, 139.107 48.710, 135.250 47.545 C 133.255 46.942, 133 47.216, 133 49.958 M 137.250 53.681 C 133.086 56.100, 133 56.258, 133 61.508 C 133 65.979, 133.329 66.970, 134.991 67.497 C 137.649 68.341, 138.517 67.680, 141.555 62.496 C 144.130 58.103, 144.659 51.910, 142.500 51.433 C 141.950 51.311, 139.588 52.323, 137.250 53.681 M 134.655 73.829 C 133.576 75.021, 133 77.411, 133 80.692 L 133 85.726 123.750 89.089 C 113.032 92.986, 114.573 94.176, 126.837 91.473 C 141.214 88.305, 149.247 82.829, 146.352 78.172 C 145.086 76.136, 139.159 72, 137.507 72 C 136.849 72, 135.565 72.823, 134.655 73.829 M 66.342 74.473 C 61.395 77.938, 58.606 94.245, 60.881 106.394 C 62.312 114.030, 66.180 122.417, 69.178 124.381 C 72.956 126.856, 82.238 123.497, 90.538 116.651 C 94.146 113.675, 99.664 109.813, 102.799 108.069 C 105.935 106.325, 107.600 105.129, 106.500 105.411 C 100.360 106.986, 91.819 107.749, 88.556 107.013 C 80.855 105.276, 78.374 99.671, 79.385 86.294 L 80.005 78.087 75.665 75.544 C 70.653 72.606, 69.239 72.444, 66.342 74.473 M 111.842 107.358 C 106.530 108.825, 98.160 113.657, 92.416 118.573 L 88.500 121.925 93.250 121.962 L 98 122 98 125.963 C 98 133.747, 91.601 145.698, 78.269 162.813 C 74.707 167.385, 71.977 171.310, 72.202 171.535 C 72.680 172.014, 77.843 168.626, 99.146 153.851 C 107.751 147.883, 115.030 143, 115.320 143 C 115.611 143, 114.926 145.588, 113.799 148.750 C 111.208 156.017, 110.359 166.528, 111.969 171.407 C 115.551 182.261, 126.758 181.397, 132.350 169.835 C 137.041 160.137, 137.825 148.203, 134.508 137 C 133.775 134.525, 132.950 130.562, 132.675 128.194 C 132.256 124.580, 132.440 123.938, 133.820 124.204 C 135.024 124.436, 136.016 127.067, 137.517 134.017 C 139.745 144.328, 143.354 150.880, 149.306 155.420 C 158.308 162.286, 170.347 164.187, 175.694 159.586 C 178.009 157.595, 178.484 156.410, 178.410 152.819 C 178.256 145.416, 177.316 144.610, 165.369 141.629 C 152.969 138.536, 146.642 135.458, 146.189 132.298 C 145.741 129.172, 148.706 127.613, 162.653 123.638 C 169.337 121.733, 175.802 119.641, 177.020 118.989 C 179.007 117.926, 179.077 117.648, 177.703 116.274 C 176.861 115.432, 172.661 113.731, 168.369 112.493 C 161.103 110.397, 160.288 110.346, 156.533 111.751 C 149.686 114.312, 140.627 113.758, 131.500 110.220 C 121.378 106.297, 117.651 105.754, 111.842 107.358" stroke="none" fill="black" fill-rule="evenodd"/>
</svg>