<svg xmlns="http://www.w3.org/2000/svg" width="200" height="200" viewBox="0 0 200 200" version="1.1">
	<path d="M 68.802 19.127 C 66.768 19.703, 63.956 21.238, 62.552 22.539 C 59.649 25.230, 59.257 29.438, 61.108 38.067 C 63.342 48.485, 59.288 51.088, 39.500 51.940 C 28.942 52.395, 26.500 52.778, 26.500 53.980 C 26.500 55.008, 29.550 56.280, 36.500 58.149 C 57.304 63.743, 64.362 67.673, 63.803 73.350 C 63.573 75.693, 62.340 77.308, 58.665 80.079 C 54.413 83.285, 52.948 83.791, 46.498 84.279 C 37.775 84.938, 31.426 87.516, 27.743 91.893 C 19.396 101.813, 24.384 116.024, 36.200 115.991 C 40.547 115.978, 48.543 111.305, 53.596 105.823 L 57.651 101.423 59.440 105.749 C 60.630 108.626, 63.585 112.155, 68.264 116.287 C 82.238 128.627, 84.300 130.705, 83.639 131.776 C 82.802 133.130, 76.892 134.282, 56.520 137.060 C 47.731 138.259, 39.968 139.459, 39.270 139.727 C 35.683 141.103, 39.493 141.759, 54.250 142.306 C 82.487 143.353, 91.343 148.046, 86.240 159.257 C 85.178 161.591, 83.820 164.691, 83.223 166.147 C 82.429 168.081, 80.705 169.293, 76.818 170.647 C 72.155 172.272, 68.215 172.500, 44.837 172.500 C 30.172 172.500, 17.845 172.827, 17.444 173.226 C 16.327 174.338, 19.112 177.148, 22.901 178.731 C 25.696 179.900, 35.859 180.156, 79.901 180.168 C 112.498 180.177, 135.263 180.581, 138 181.199 C 145.539 182.900, 160.826 182.587, 166.719 180.610 C 180.671 175.931, 182.040 164.448, 168.624 164.642 C 161.995 164.738, 157.720 166.110, 146.554 171.726 C 135.844 177.113, 128.488 178.274, 122.643 175.501 C 117.015 172.830, 114.603 168.702, 114.183 161.022 C 113.880 155.473, 114.176 153.991, 116.163 151.092 C 120.320 145.029, 123.331 143.489, 130.824 143.593 C 135.543 143.660, 139.312 144.437, 143.683 146.246 L 149.867 148.806 155.904 144.413 C 163.311 139.023, 165.793 135.660, 163.978 133.473 C 162.918 132.196, 159.626 131.996, 143.110 132.205 C 121.235 132.482, 121.631 132.576, 111.143 124.681 C 97.099 114.110, 89.065 93.580, 90.388 71.644 C 92.047 44.148, 92.173 38.288, 91.188 34.718 L 90.147 30.947 98.323 38.186 C 102.820 42.167, 106.409 46.117, 106.298 46.962 C 106.187 47.808, 105.625 52.645, 105.048 57.711 C 101.333 90.358, 108.898 113.918, 124.447 118.126 C 129.232 119.421, 137.795 118.796, 143.750 116.717 C 147.500 115.409, 148.500 115.408, 152.250 116.709 C 158.147 118.756, 166.750 118.026, 170.812 115.134 C 172.561 113.889, 175.215 110.783, 176.709 108.234 C 179.011 104.306, 179.478 102.219, 179.771 94.549 C 180.048 87.291, 179.759 84.810, 178.308 82.011 C 175.842 77.251, 171.916 75.935, 168.248 78.638 C 165.873 80.388, 159.778 89.167, 158.707 92.380 C 158.252 93.745, 142.613 90.859, 137.618 88.489 C 129.264 84.525, 133.151 79.929, 154.500 68.526 C 167.894 61.373, 172.841 58.075, 173.556 55.823 C 174.538 52.731, 172.290 51.114, 171.144 54.087 C 170.191 56.557, 166.877 58.713, 149.648 68.075 C 137.107 74.889, 131 80.119, 131 84.046 C 131 89.399, 137.097 92.647, 151.605 95.023 C 160.428 96.468, 160.566 96.426, 162.356 91.738 C 164.688 85.631, 169.725 79.819, 172.358 80.196 C 179.907 81.277, 178.820 104.490, 170.886 111.654 C 166.185 115.898, 156.615 116.540, 150.091 113.049 C 149.005 112.467, 146.387 112.855, 142.468 114.179 C 133.572 117.184, 124.395 116.472, 119.306 112.381 C 114.861 108.807, 111.381 102.989, 109.327 95.696 C 107.145 87.943, 106.592 64.385, 108.337 53.500 L 109.780 44.500 105.640 41.017 C 98.519 35.026, 89.874 26.623, 87.709 23.587 L 85.631 20.673 96.566 21.303 C 106.941 21.900, 128.537 24.502, 132.205 25.597 C 133.580 26.008, 133.725 26.593, 132.955 28.618 C 131.659 32.027, 131.751 39.954, 133.134 44.101 C 134.705 48.808, 139.743 53.861, 143.584 54.582 C 147.432 55.304, 154.269 52.539, 160.144 47.886 C 165.962 43.278, 163.519 41.854, 157.578 46.389 C 148.121 53.607, 140.778 53.406, 136.909 45.822 C 134.059 40.236, 134.108 31.697, 137.013 27.769 C 138.654 25.549, 138.916 24.566, 138.016 24.010 C 137.345 23.595, 129.530 22.238, 120.648 20.993 C 102.619 18.466, 74.689 17.461, 68.802 19.127 M 68 22.405 C 62.860 24.244, 61.898 27.031, 63.503 35.436 C 65.334 45.034, 64.112 48.564, 57.841 51.784 C 54.517 53.491, 50.830 54.338, 44.978 54.739 L 36.775 55.301 44.946 57.660 C 68.835 64.557, 73.594 73.993, 58.174 83.889 C 54.408 86.305, 52.212 87, 48.344 87 C 36.805 87, 27.943 92.459, 26.435 100.495 C 24.578 110.395, 33.252 115.973, 42.871 111.066 C 46.613 109.157, 58 97.774, 58 95.943 C 58 95.424, 58.675 95, 59.500 95 C 60.586 95, 61 96.117, 61 99.050 C 61 101.277, 61.632 104.321, 62.403 105.813 C 63.845 108.601, 70.990 115.569, 79.327 122.317 C 91.311 132.019, 88.801 136.009, 69.453 138.005 C 64.675 138.498, 60.585 139.082, 60.364 139.302 C 60.144 139.523, 63.305 139.986, 67.389 140.331 C 76.460 141.098, 85.263 144.248, 87.977 147.698 C 90.618 151.055, 90.627 157.460, 87.996 161.774 C 86.898 163.575, 86 165.634, 86 166.350 C 86 168.575, 81.458 172.052, 76.370 173.723 C 72.400 175.026, 66.878 175.307, 46.500 175.240 C 29.386 175.184, 22.280 175.464, 23.971 176.129 C 26.443 177.099, 116.622 178.352, 118.104 177.436 C 118.526 177.175, 117.750 175.841, 116.380 174.471 C 110.937 169.028, 109.422 159.071, 112.880 151.459 C 117.854 140.508, 130.530 137.599, 145.449 143.985 C 149.496 145.717, 149.504 145.716, 153.500 142.966 C 155.700 141.451, 158.591 139.040, 159.924 137.606 L 162.349 135 159.424 134.933 C 157.816 134.896, 149.450 134.924, 140.833 134.994 C 132.216 135.064, 123.382 134.641, 121.202 134.054 C 116.863 132.886, 105.416 124.024, 100.707 118.188 C 96.805 113.352, 91.455 102.024, 89.520 94.500 C 86.998 84.698, 86.632 73.706, 88.354 59.500 C 90.165 44.552, 89.511 36.047, 85.840 26.804 L 83.535 21 77.517 21.076 C 74.208 21.118, 69.925 21.716, 68 22.405 M 162 168.139 C 160.075 168.666, 154.036 171.212, 148.580 173.798 L 138.659 178.500 143.080 179.176 C 157.789 181.425, 175 176.999, 175 170.967 C 175 167.318, 169.427 166.105, 162 168.139" stroke="none" fill="black" fill-rule="evenodd"/>
</svg>