<svg xmlns="http://www.w3.org/2000/svg" width="200" height="200" viewBox="0 0 200 200" version="1.1">
	<path d="M 67.926 21.832 C 65.470 23.389, 62.287 26.059, 60.852 27.764 L 58.243 30.865 50.583 28.432 C 37.530 24.287, 29.636 25.417, 23.250 32.345 C 15.192 41.086, 14.017 49.443, 14.008 98.072 C 13.999 141.523, 14.126 142.453, 21.143 150.425 C 28.483 158.763, 36.860 158.858, 45.709 150.701 C 48.191 148.413, 51.507 144.291, 53.077 141.541 L 55.933 136.541 55.321 150.066 C 54.645 165.041, 55.693 171, 59.005 171 C 61.505 171, 63.743 167.976, 73.806 151 C 81.224 138.485, 82.482 136.842, 82.990 139 C 83.482 141.085, 84.249 141.550, 87.616 141.799 C 90.850 142.039, 93.755 141.044, 102.219 136.799 L 112.784 131.500 90.491 153.500 C 78.229 165.600, 67.883 176.558, 67.499 177.851 C 65.539 184.455, 70.468 182.758, 93.999 168.728 C 117.675 154.611, 128 149.788, 128 152.845 C 128 154.603, 120.054 165.839, 112.686 174.500 C 101.394 187.772, 102.132 188.115, 119.372 177.607 C 131.901 169.969, 151.742 159, 153.028 159 C 153.430 159, 155.331 160.912, 157.253 163.250 C 167.475 175.682, 175 181.097, 175 176.020 C 175 174.931, 172.388 168.909, 169.196 162.637 L 163.391 151.235 165.348 148.868 C 169.119 144.303, 173.948 132.184, 178.995 114.616 L 184.087 96.889 178.597 77.695 C 175.577 67.138, 171.928 53.803, 170.488 48.063 C 169.049 42.323, 167.434 36.811, 166.900 35.813 C 165.237 32.706, 155.930 28.020, 151.400 28.009 C 145.093 27.995, 137.776 34.087, 127.104 48.240 C 124.723 51.396, 122.426 53.763, 121.998 53.499 C 121.571 53.235, 120.915 51.777, 120.540 50.259 C 118.839 43.374, 107.950 30.778, 102.519 29.415 C 100.697 28.958, 99.298 29.322, 97.842 30.631 C 96.003 32.285, 95.828 33.276, 96.324 39.250 L 96.884 46 93.513 46 C 88.814 46, 87.315 44.034, 86.483 36.780 C 85.177 25.385, 81.075 19, 75.061 19 C 73.593 19, 70.382 20.274, 67.926 21.832 M 69.500 23.877 C 65.526 26.354, 60.232 32.165, 61.519 32.638 C 62.079 32.844, 66.277 35.191, 70.848 37.853 C 83.237 45.069, 85.480 43.999, 82.926 32.090 C 80.906 22.673, 76.125 19.748, 69.500 23.877 M 29.293 30.750 C 23.341 34.030, 20.223 39.925, 17.920 52.252 C 17.144 56.402, 16.780 71.857, 16.833 98.279 L 16.914 138.058 20.100 144.036 C 25.494 154.157, 32.583 156.553, 41.117 151.141 C 57.401 140.813, 62.970 107.174, 53.102 78.745 L 51.104 72.989 57.105 65.529 C 60.406 61.426, 65.462 55.579, 68.340 52.535 C 71.219 49.491, 73.107 47, 72.537 47.001 C 69.907 47.003, 58.896 53.173, 53.488 57.676 C 45.056 64.696, 42.255 69.164, 40.485 78.413 C 37.467 94.188, 39.169 110.051, 45.044 120.898 C 48.839 127.904, 47.428 129.943, 42.995 123.862 C 33.621 111.006, 30.096 96.966, 33.039 84.208 C 33.584 81.847, 35.538 76.672, 37.382 72.708 C 39.226 68.743, 42.222 61.529, 44.040 56.675 C 45.857 51.821, 49.311 44.659, 51.715 40.760 C 56.596 32.844, 56.625 32.941, 48.568 30.496 C 41.851 28.458, 33.246 28.571, 29.293 30.750 M 147.500 31.565 C 145.850 32.419, 142.764 34.779, 140.641 36.809 C 136.114 41.140, 125.988 53.534, 126.027 54.697 C 126.042 55.138, 129.530 57.153, 133.777 59.174 C 148.794 66.317, 158 73.885, 158 79.084 C 158 84.035, 153.279 85.388, 138.500 84.673 C 131.900 84.354, 125.493 83.796, 124.261 83.433 C 119.019 81.887, 123.945 81.258, 137.739 81.713 C 149.576 82.103, 152.873 81.915, 154.382 80.766 C 156.185 79.394, 156.191 79.221, 154.518 76.668 C 153.558 75.202, 150.609 72.415, 147.965 70.475 C 142.944 66.788, 126.430 58, 124.526 58 C 123.920 58, 121.209 60.250, 118.500 63 C 112.438 69.155, 109.548 69.556, 107.449 64.532 C 105.039 58.764, 105.387 58.057, 110.055 59.242 C 112.931 59.972, 114.821 59.947, 116.555 59.157 C 121.750 56.790, 119.208 55.137, 103.291 50.531 L 101.082 49.891 103.420 56.696 C 107.270 67.903, 113.088 81.831, 114.334 82.821 C 114.975 83.332, 120.900 84.491, 127.500 85.399 C 149.417 88.413, 152.830 89.937, 154.901 97.639 C 155.472 99.762, 156.415 110.675, 156.996 121.889 C 157.823 137.865, 158.419 142.900, 159.747 145.149 C 160.680 146.728, 161.905 147.872, 162.471 147.691 C 165.564 146.706, 171.819 130.817, 178.044 108.132 L 181.163 96.763 175.640 77.132 C 172.603 66.334, 168.851 52.778, 167.302 47.006 L 164.486 36.512 159.037 33.256 C 152.859 29.564, 151.695 29.394, 147.500 31.565 M 99.235 39.036 C 99.512 42.905, 99.937 46.271, 100.181 46.514 C 100.999 47.332, 117.486 51.847, 117.953 51.381 C 118.206 51.127, 117.308 48.879, 115.957 46.384 C 112.832 40.616, 103.828 32, 100.925 32 C 98.827 32, 98.753 32.306, 99.235 39.036 M 54.155 41.750 C 50.621 47.814, 48.634 51.922, 45.951 58.715 C 45.294 60.379, 46.623 59.674, 51.288 55.886 C 57.953 50.473, 65.192 46.366, 71.290 44.539 L 75.081 43.403 67.738 39.201 C 63.699 36.891, 59.876 35, 59.241 35 C 58.607 35, 56.318 38.038, 54.155 41.750 M 80.984 51.547 C 79.789 55.169, 72.188 65.522, 71.345 64.678 C 71.079 64.413, 70.555 62.047, 70.179 59.421 L 69.496 54.647 61.866 64.009 L 54.236 73.372 56.072 78.710 C 57.082 81.646, 58.438 86.737, 59.085 90.024 C 60.544 97.445, 61.807 97.620, 67.944 91.250 C 74.958 83.969, 83.832 65.350, 85.551 54.306 C 86.036 51.186, 85.782 50.281, 84.138 49.283 C 82.329 48.185, 82.021 48.407, 80.984 51.547 M 88.619 52.814 C 86.451 69.161, 73.285 93.203, 63.564 98.569 C 61.913 99.480, 61.516 101.251, 60.875 110.569 C 60.461 116.581, 59.655 126.900, 59.085 133.500 C 57.788 148.504, 57.701 166.697, 58.924 167.453 C 60.130 168.199, 61.945 165.566, 73.022 147 C 81.889 132.137, 93.745 114.174, 98.043 109.090 C 99.251 107.661, 100.439 107.050, 100.962 107.590 C 101.478 108.123, 99.186 112.436, 95.430 118 C 88.526 128.226, 84.275 137.675, 85.864 139.264 C 87.293 140.693, 92.977 138.570, 106.224 131.662 C 115.480 126.835, 118.206 125.806, 119.174 126.774 C 120.142 127.742, 115.149 133.139, 95.451 152.418 C 81.730 165.848, 70.796 177.129, 71.154 177.488 C 72.006 178.340, 76.437 176.029, 94 165.570 C 111.866 154.930, 121.388 150.129, 126.146 149.361 C 129.253 148.859, 129.892 149.084, 130.462 150.880 C 131.328 153.608, 127.637 160.389, 120.464 169.251 C 117.459 172.964, 115 176.222, 115 176.490 C 115 176.759, 117.879 175.216, 121.399 173.062 C 124.918 170.908, 132.456 166.640, 138.149 163.579 C 143.842 160.517, 149.134 157.601, 149.909 157.098 C 151.025 156.376, 149.930 154.444, 144.664 147.842 C 139.766 141.702, 135.463 134.353, 128.361 120 C 123.054 109.275, 118.626 100.386, 118.520 100.247 C 118.415 100.108, 115.667 100.964, 112.414 102.149 C 104.145 105.162, 87.248 105.428, 84.110 102.595 C 82.950 101.547, 82 99.702, 82 98.495 C 82 95.293, 87.145 88.708, 93.212 84.145 C 98.473 80.189, 98.527 80.174, 103.779 81.222 C 106.682 81.802, 109.272 82.062, 109.534 81.799 C 109.797 81.537, 107.745 75.612, 104.975 68.632 C 102.205 61.652, 99.669 54.596, 99.340 52.950 C 98.632 49.408, 98.649 49.421, 93.387 48.551 L 89.275 47.871 88.619 52.814 M 75.653 51.059 C 73.814 52.505, 73 54.085, 73 56.207 L 73 59.270 74.851 56.885 C 77.299 53.731, 79.268 49.935, 78.734 49.400 C 78.498 49.165, 77.112 49.911, 75.653 51.059 M 109.638 63.500 C 110.267 65.139, 111.014 65.316, 113.418 64.393 C 116.019 63.395, 115.211 62, 112.031 62 C 109.803 62, 109.206 62.374, 109.638 63.500 M 35.625 85.125 C 34.842 89.038, 34.983 100.735, 35.850 103.801 C 36.207 105.067, 36.500 100.679, 36.500 94.051 C 36.500 87.423, 36.444 82, 36.375 82 C 36.306 82, 35.969 83.406, 35.625 85.125 M 91.552 89.269 C 85.052 95.487, 83.598 98.637, 86.250 100.752 C 89.490 103.335, 101.109 102.725, 111.621 99.418 C 117.681 97.512, 117.756 97.147, 113.642 89.540 C 111.690 85.930, 110.969 85.469, 105.500 84.333 C 102.200 83.648, 99.186 83.068, 98.802 83.044 C 98.419 83.020, 95.156 85.821, 91.552 89.269 M 116 87.466 C 116 87.722, 116.758 89.522, 117.685 91.466 C 119.388 95.037, 120.903 96.046, 121.115 93.750 C 121.179 93.063, 121.291 91.943, 121.365 91.261 C 121.439 90.580, 121.950 89.999, 122.500 89.972 C 124.203 89.885, 124.237 93.989, 122.555 96.556 C 121.007 98.919, 121.271 99.624, 130.959 119.016 C 137.918 132.945, 142.869 141.448, 147.231 146.963 C 150.679 151.323, 153.725 154.912, 154 154.940 C 154.275 154.967, 155.711 153.980, 157.191 152.745 L 159.883 150.500 152.974 138.500 C 149.174 131.900, 146.051 125.938, 146.033 125.250 C 145.966 122.689, 148.818 124.130, 151.513 128.018 C 153.044 130.228, 154.398 131.916, 154.522 131.768 C 154.645 131.621, 154.372 124.443, 153.914 115.817 C 152.982 98.239, 151.704 93.618, 147.298 91.889 C 142.315 89.934, 116 86.215, 116 87.466 M 157.651 155.833 C 156.082 157.567, 156.377 158.109, 163.096 165.833 C 167.003 170.325, 170.609 174, 171.109 174 C 171.609 174, 169.760 169.500, 167 164 C 164.240 158.500, 161.381 154, 160.646 154 C 159.911 154, 158.564 154.825, 157.651 155.833" stroke="none" fill="black" fill-rule="evenodd"/>
</svg>