<svg xmlns="http://www.w3.org/2000/svg" width="200" height="200" viewBox="0 0 200 200" version="1.1">
	<path d="M 128.419 13.897 C 124.895 15.498, 124.008 15.568, 121.919 14.411 C 118.145 12.320, 112.763 12.753, 107.457 15.574 C 102.983 17.953, 102 18.096, 94.465 17.469 L 86.313 16.790 85.636 27.939 C 84.965 38.987, 84.913 39.170, 79.830 48.294 C 71.903 62.523, 68.206 64.415, 62.044 57.397 C 56.280 50.832, 55.634 39.660, 60.345 27.997 L 62.704 22.157 60.102 20.234 C 48.826 11.897, 40.604 13.622, 34.389 25.629 C 31.513 31.184, 29.010 40.220, 24.502 61.324 C 23.258 67.147, 22.477 69.013, 21.447 68.618 C 18.515 67.493, 18.995 70.229, 22.331 73.665 C 27.592 79.081, 31.128 86.305, 31.707 92.821 C 32.310 99.606, 29.838 107.845, 24 118.500 C 18.204 129.080, 15.690 137.404, 16.282 144.063 C 16.830 150.225, 21.219 160, 23.439 160 C 24.211 160, 27.916 157.898, 31.672 155.330 C 69.743 129.291, 75.981 126.124, 80.429 130.571 C 83.963 134.105, 81.146 150.102, 73.612 169.288 L 70.161 178.076 73.830 180.324 C 79.746 183.946, 82.819 185, 87.470 185 C 95.060 185, 100.189 178.918, 103.676 165.781 C 105.088 160.463, 105.382 152.906, 105.593 116.500 C 105.852 71.885, 106.258 61.376, 108.173 49.785 C 109.118 44.060, 109.777 42.583, 112.135 40.904 L 114.963 38.890 117.034 42.195 C 119.296 45.805, 119.284 46.231, 116.487 62 C 114.420 73.655, 114.891 77.544, 119.934 90.473 C 124.133 101.235, 126.933 111.399, 129.466 125.073 L 131.055 133.647 125.424 143.573 C 112.261 166.780, 111.930 168.799, 122 164.454 C 133.723 159.395, 144.207 162.002, 151.450 171.778 C 156.272 178.286, 157.837 179.791, 162.872 182.757 C 168.118 185.848, 174.315 186.150, 178.343 183.511 C 185.133 179.062, 189.246 162.740, 187.141 148.591 C 185.724 139.061, 183.918 134.647, 180.526 132.425 C 178.002 130.772, 177.766 130.781, 175.193 132.640 C 173.712 133.710, 171.150 137.355, 169.500 140.741 C 167.850 144.127, 166.235 146.920, 165.911 146.948 C 164.558 147.067, 163 141.545, 163 136.634 C 163 128.946, 165.033 123.201, 173.987 105.588 C 182.170 89.490, 182.902 87.302, 180.800 85.200 C 178.360 82.760, 169.220 84.780, 158.952 90.029 C 154.749 92.178, 145 95.260, 145 94.440 C 145 94.232, 150.287 90.064, 156.750 85.178 C 175.778 70.793, 180.451 64.307, 174.565 60.451 C 172.234 58.923, 171.843 59.029, 165.343 62.949 C 147.097 73.954, 143.325 69.932, 144.636 40.870 C 145.292 26.337, 145.358 26, 147.547 26 C 150.097 26, 151 27.704, 151 32.517 C 151 43.352, 159.076 49.567, 174 50.217 L 180.500 50.500 180.804 45.205 C 181.184 38.581, 178.826 34.398, 172.258 30.048 C 167.511 26.903, 155.931 22.793, 148.250 21.525 C 145.467 21.066, 144 20.310, 144 19.335 C 144 18.516, 142.685 16.531, 141.077 14.923 C 137.639 11.485, 134.322 11.217, 128.419 13.897 M 114 15.795 C 108.608 16.602, 109.749 18, 115.800 18 C 119.210 18, 122 17.819, 122 17.598 C 122 16.717, 116.349 15.443, 114 15.795 M 128.500 16.757 L 125.500 18.434 132.865 19.268 C 136.916 19.728, 140.476 19.858, 140.776 19.558 C 141.076 19.258, 140.504 18.110, 139.506 17.006 C 137.285 14.552, 132.633 14.447, 128.500 16.757 M 41.615 20.088 C 36.627 24.011, 33.347 32.757, 28.972 53.796 C 27.329 61.696, 25.553 68.967, 25.025 69.954 C 24.304 71.300, 24.555 72.193, 26.031 73.528 C 28.903 76.127, 33.791 86.424, 34.548 91.469 C 35.526 97.994, 33.561 105.259, 27.462 117.662 C 20.440 131.942, 19 136.116, 19 142.190 C 19 146.803, 22.381 157, 23.910 157 C 24.275 157, 32.382 151.598, 41.924 144.995 C 67.906 127.018, 76.876 123.421, 82.259 128.823 C 84.215 130.785, 84.487 132.053, 84.398 138.798 C 84.313 145.274, 83.533 148.711, 79.586 160.013 C 73.001 178.865, 73.098 177.163, 78.455 179.766 C 87.321 184.073, 93.640 182.413, 97.663 174.721 C 101.911 166.599, 102.251 162.447, 103.014 109.500 C 103.480 77.178, 104.195 56, 104.965 51.673 C 105.633 47.919, 106.027 44.706, 105.840 44.534 C 105.315 44.050, 80.396 58.336, 77.911 60.545 C 71.319 66.404, 65.250 91.473, 69.558 95.048 C 70.854 96.124, 71.886 95.968, 75.679 94.125 C 78.189 92.906, 80.380 92.047, 80.549 92.216 C 81.086 92.753, 78.036 106.270, 75.951 112.593 C 70.404 129.413, 62.184 125.562, 56.994 103.712 C 54.669 93.921, 53.012 78.867, 53.740 74.146 C 54.146 71.517, 55.231 70.175, 58.764 67.934 C 61.243 66.362, 63.765 64.912, 64.367 64.711 C 64.970 64.510, 63.813 62.897, 61.797 61.126 C 54.478 54.700, 52.554 41.999, 56.945 29.097 C 58.703 23.931, 58.871 22.524, 57.812 21.811 C 51.293 17.419, 45.757 16.830, 41.615 20.088 M 88 27 C 88 30.850, 88.135 34, 88.301 34 C 88.466 34, 91.193 30.850, 94.360 27 L 100.118 20 94.059 20 L 88 20 88 27 M 99.574 25.202 C 92.274 32.740, 88.031 39.292, 85.906 46.312 C 84.892 49.658, 84.172 52.505, 84.304 52.637 C 84.436 52.770, 89.666 50.027, 95.924 46.542 C 102.668 42.788, 107.952 39.139, 108.893 37.588 C 110.098 35.601, 111.207 35.013, 113.491 35.150 C 115.302 35.258, 119.686 33.730, 124.500 31.313 C 128.900 29.103, 134.733 26.457, 137.462 25.431 L 142.424 23.566 138.962 22.846 C 137.058 22.449, 130.775 21.858, 125 21.533 C 119.225 21.207, 112.299 20.705, 109.608 20.417 C 104.772 19.899, 104.658 19.954, 99.574 25.202 M 153.589 31.336 C 153.957 34.726, 154.978 38.747, 155.857 40.271 C 158.148 44.242, 164.427 46.945, 172.057 47.246 L 178.500 47.500 178.388 43.776 C 178.173 36.615, 170.842 30.526, 157.710 26.603 L 152.920 25.172 153.589 31.336 M 129.038 32.059 C 123.284 34.826, 118.441 37.225, 118.276 37.390 C 118.111 37.556, 118.920 39.825, 120.073 42.433 L 122.171 47.174 120.085 57.535 C 117.456 70.602, 117.463 75.600, 120.122 82.775 C 126.309 99.467, 129.083 108.797, 131.410 120.732 L 133.983 133.926 126.017 148.155 C 121.636 155.981, 118.179 162.512, 118.335 162.669 C 118.491 162.825, 120.960 162.063, 123.820 160.976 C 130.347 158.496, 137.272 158.486, 142.697 160.950 C 147.045 162.923, 155.548 171, 156.527 174.086 C 157.525 177.228, 166.982 182.500, 171.622 182.500 C 176.769 182.500, 179.058 180.573, 182.101 173.679 C 184.013 169.347, 184.396 166.702, 184.444 157.500 C 184.523 141.936, 181.393 132.761, 176.628 134.589 C 175.039 135.199, 168 148.470, 168 150.855 C 168 154.200, 163.849 150.275, 161.538 144.746 C 157.944 136.144, 160.779 124.971, 172.042 103.350 C 175.869 96.003, 179 89.261, 179 88.366 C 179 85.739, 171.762 87.162, 161.500 91.807 C 150.949 96.582, 143.208 98.608, 141.613 97.013 C 139.862 95.262, 141.913 93.061, 153.082 84.706 C 169.707 72.269, 176.538 64.687, 173.057 62.535 C 172.538 62.214, 169.726 63.445, 166.807 65.269 C 159.582 69.784, 156.522 71, 152.387 71 C 143.390 71, 142 67.458, 142 44.532 C 142 31.165, 141.703 27.003, 140.750 27.014 C 140.063 27.022, 134.792 29.293, 129.038 32.059 M 64.705 67.538 C 61.518 69.442, 58.489 71, 57.974 71 C 53.644 71, 58.181 104.594, 64.070 116.137 C 66.467 120.836, 69.313 121.230, 71.420 117.155 C 72.696 114.687, 77 99.862, 77 97.935 C 77 97.556, 75.020 97.469, 72.601 97.742 C 68.674 98.184, 68.014 97.952, 66.460 95.579 C 64.083 91.952, 64.975 83.040, 68.796 72.243 C 70.401 67.709, 71.440 64.017, 71.107 64.038 C 70.773 64.058, 67.892 65.633, 64.705 67.538" stroke="none" fill="black" fill-rule="evenodd"/>
</svg>