<svg xmlns="http://www.w3.org/2000/svg" width="200" height="200" viewBox="0 0 200 200" version="1.1">
	<path d="M 138.954 15.348 C 138.704 15.581, 122.377 16.354, 102.670 17.065 C 73.267 18.127, 66.696 18.126, 66.036 17.059 C 65.382 16.001, 62.086 15.972, 48.366 16.903 C 26.163 18.410, 23 18.883, 23 20.695 C 23 21.942, 25.694 22.112, 41.001 21.831 C 52.748 21.615, 58.851 21.847, 58.566 22.500 C 58.326 23.050, 57.609 25.091, 56.971 27.035 C 55.972 30.083, 54.671 31.154, 47.501 34.825 C 36.994 40.205, 30.819 45.627, 27.520 52.369 C 23.416 60.757, 24.102 71.972, 29.161 79.185 C 33.599 85.514, 33.797 96.860, 29.948 124.473 C 28.876 132.158, 28 141.710, 28 145.700 C 28 152.286, 28.225 153.101, 30.440 154.552 C 32.685 156.023, 33.167 156.015, 36.482 154.442 C 38.463 153.501, 43.328 149.724, 47.292 146.047 C 51.958 141.719, 56.968 138.220, 61.500 136.124 C 70.879 131.784, 75 127.755, 75 122.924 C 75 119.805, 73.939 118.012, 68.089 111.242 C 59.758 101.601, 58 98.403, 58 92.888 C 58 87.107, 61.490 81.540, 69.958 73.812 L 76.939 67.440 75.219 64.827 C 74.274 63.389, 71.206 59.525, 68.403 56.239 C 62.575 49.407, 59.376 43.340, 58.426 37.318 L 57.766 33.136 66.133 30.644 C 70.735 29.274, 75.854 27.881, 77.509 27.550 L 80.519 26.947 80.167 31.370 C 79.925 34.412, 80.507 37.309, 82.030 40.647 C 83.969 44.897, 84.251 47.239, 84.294 59.500 C 84.349 75.355, 83.127 81.838, 77.539 95.338 C 72.126 108.415, 72.841 113.513, 81.976 126.965 L 86.095 133.030 81.652 144.765 C 71.614 171.274, 72.058 182.056, 83.184 181.976 C 89.442 181.931, 102.146 175.525, 117.254 164.796 C 120.968 162.158, 124.526 160, 125.159 160 C 125.793 160, 127.894 158.793, 129.828 157.317 L 133.345 154.635 134.866 157.067 C 137.750 161.679, 146.513 169.556, 151.500 172.018 C 155.506 173.996, 158.037 174.488, 164.231 174.493 C 171.591 174.500, 172.114 174.347, 175.147 171.314 C 177.748 168.713, 178.332 167.336, 178.325 163.814 C 178.314 157.877, 174.784 151.211, 171.238 150.427 C 161.019 148.170, 155 145.066, 155 142.054 C 155 139.058, 158.012 136.187, 168.529 129.158 C 183.887 118.893, 182.516 116.802, 162.366 119.757 C 151.910 121.290, 149.353 121.359, 143.866 120.256 C 134.286 118.330, 127.444 115.886, 129.104 114.983 C 129.872 114.566, 137.571 112.834, 146.213 111.134 C 154.856 109.434, 164.531 107.139, 167.713 106.034 C 173.880 103.893, 179 99.334, 179 95.984 C 179 93.566, 178.225 93.486, 175.826 95.657 C 169.380 101.491, 118.041 101.470, 112.202 95.631 C 111.019 94.447, 111.306 93.869, 114.157 91.700 C 120.733 86.699, 126.347 85.314, 143.145 84.549 C 158.051 83.870, 165.398 82.935, 166.794 81.539 C 167.943 80.391, 165.404 77.619, 162.423 76.769 C 155.750 74.864, 137.638 73.038, 125.250 73.020 C 117.959 73.009, 112 72.590, 112 72.089 C 112 70.357, 117.989 66.148, 123.234 64.194 C 131.123 61.255, 142.031 59.091, 156.242 57.645 C 163.251 56.932, 169.296 56.038, 169.676 55.658 C 171.572 53.761, 166.479 52.936, 144.423 51.567 C 121.800 50.163, 113.009 48.772, 112.653 46.540 C 112.377 44.808, 119.169 41.034, 127.033 38.549 C 139.764 34.528, 151.579 32.655, 164.735 32.575 C 173.181 32.523, 177.113 32.133, 177.429 31.315 C 178.170 29.398, 168.466 28.708, 156.973 29.859 C 151.250 30.433, 146.365 30.699, 146.117 30.451 C 145.870 30.203, 146.576 30, 147.687 30 C 150.383 30, 155 25.611, 155 23.048 C 155 21.212, 155.620 21, 161 21 C 165.667 21, 167 20.667, 167 19.500 C 167 18.333, 165.667 18, 161 18 C 156.733 18, 155.072 17.639, 155.250 16.750 C 155.430 15.851, 153.240 15.419, 147.454 15.213 C 143.028 15.055, 139.203 15.116, 138.954 15.348 M 111.750 19.662 C 112.438 19.940, 113.563 19.940, 114.250 19.662 C 114.938 19.385, 114.375 19.158, 113 19.158 C 111.625 19.158, 111.063 19.385, 111.750 19.662 M 74.716 20.747 L 62.932 21.064 60.970 24.282 C 57.927 29.272, 58.330 30.148, 62.926 28.526 C 69.175 26.321, 85.631 22.883, 96.500 21.512 L 106.500 20.250 96.500 20.340 C 91 20.389, 81.197 20.573, 74.716 20.747 M 121.177 22.054 C 114.949 22.472, 109.647 23.019, 109.396 23.271 C 108.634 24.033, 135.333 28.001, 141.113 27.985 C 147.549 27.968, 151.383 26.263, 151.820 23.225 C 152.132 21.046, 151.936 21.003, 142.320 21.147 C 136.919 21.228, 127.404 21.636, 121.177 22.054 M 87.500 25.724 C 86.400 25.994, 84.938 26.672, 84.250 27.230 C 82.377 28.751, 82.783 35.926, 85.022 40.859 C 86.697 44.550, 86.998 47.386, 86.985 59.359 C 86.969 75.325, 85.772 81.928, 80.478 95.257 C 75.162 108.642, 75.776 113.179, 84.617 125.826 L 89.259 132.466 87.491 136.983 C 78.804 159.173, 75.598 172.513, 77.912 176.836 C 80.692 182.029, 92.752 178.039, 110.780 165.962 L 118.910 160.515 116.419 157.915 C 112.168 153.478, 109.829 145.622, 109.249 133.827 C 108.482 118.237, 111.019 110, 116.587 110 C 120.715 110, 126.302 120.177, 128.510 131.718 C 130.614 142.715, 132.864 149, 134.697 149 C 135.746 149, 136.066 149.641, 135.705 151.022 C 135.092 153.364, 140.950 161.335, 146.262 165.387 C 156.870 173.477, 171.625 174.508, 174.870 167.385 C 176.405 164.016, 176.270 162.189, 174.135 157.500 C 172.417 153.725, 171.910 153.396, 165.128 151.661 C 153.157 148.597, 149.356 143.522, 154.071 136.900 C 155.211 135.300, 160.392 131.224, 165.585 127.842 C 170.777 124.460, 174.837 121.504, 174.606 121.273 C 174.375 121.042, 168.709 121.630, 162.013 122.580 C 150.467 124.217, 149.419 124.217, 141.670 122.569 C 131.537 120.414, 125 117.644, 125 115.505 C 125 113.149, 129.952 111.450, 145.438 108.494 C 159.604 105.790, 171.544 102.546, 172.394 101.172 C 172.657 100.746, 169.639 100.965, 165.686 101.659 C 149.851 104.439, 117.602 102.590, 111.434 98.549 C 105.720 94.804, 110.005 89.022, 121.700 84.699 C 127.522 82.547, 130.793 82.102, 144.441 81.602 C 153.208 81.281, 160.783 80.617, 161.274 80.126 C 163.408 77.992, 129.186 74.587, 116.437 75.665 L 109 76.293 109 73.723 C 109 67.357, 119.169 61.254, 135.340 57.917 C 140.378 56.877, 145.850 56.007, 147.500 55.983 C 149.652 55.951, 150.076 55.703, 149 55.103 C 148.175 54.642, 141.425 53.991, 134 53.656 C 119.156 52.985, 113.895 51.895, 110.862 48.862 C 109.065 47.065, 109.004 46.624, 110.282 44.677 C 113.062 40.441, 125.287 35.296, 140 32.170 L 144.500 31.214 140.398 31.107 C 138.142 31.048, 128.242 29.652, 118.398 28.005 C 101.756 25.221, 92.367 24.527, 87.500 25.724 M 47.500 37.782 C 37.560 43.009, 30.574 50.218, 28.484 57.406 C 27.378 61.212, 27.067 64.457, 27.537 67.287 C 28.217 71.386, 30.550 76.990, 31.995 78 C 35.804 80.662, 36.237 100.738, 32.976 123.500 C 30.473 140.968, 30.029 150.414, 31.635 152.029 C 33.331 153.734, 37.873 151.025, 45.769 143.598 C 50.129 139.498, 55.142 136.010, 60 133.699 C 68.445 129.681, 70.162 128.460, 71.867 125.259 C 73.442 122.303, 71.947 119.434, 64.462 111.046 C 57.998 103.802, 55.054 98.157, 55.022 92.946 C 54.988 87.414, 59.440 79.753, 66.561 73.092 C 70.102 69.779, 73 66.687, 73 66.221 C 73 65.755, 71.613 64.052, 69.917 62.437 C 65.052 57.802, 57.142 45.321, 56.475 41.228 C 55.247 33.686, 55.272 33.695, 47.500 37.782 M 113.481 116.391 C 111.584 120.931, 111.515 138.591, 113.368 145.546 C 115.115 152.109, 116.524 154.642, 119.514 156.601 C 121.852 158.133, 122.142 158.060, 126.229 154.908 C 128.578 153.096, 130.660 151.503, 130.856 151.368 C 131.052 151.232, 130.484 149.182, 129.595 146.811 C 128.705 144.440, 127.092 138.302, 126.010 133.172 C 123.875 123.043, 119.546 113.718, 116.731 113.183 C 115.498 112.948, 114.514 113.919, 113.481 116.391" stroke="none" fill="black" fill-rule="evenodd"/>
</svg>