<svg xmlns="http://www.w3.org/2000/svg" width="200" height="200" viewBox="0 0 200 200" version="1.1">
	<path d="M 120.500 16.595 C 113.900 17.345, 100.226 19.115, 90.113 20.528 C 72.586 22.978, 71.407 23.025, 64.915 21.549 C 55.627 19.436, 46.514 19.584, 41.346 21.930 C 36.218 24.258, 32.593 30.085, 31.077 38.434 C 29.893 44.956, 29.630 76.481, 30.641 90.721 L 31.282 99.749 34.296 96.315 C 38.821 91.162, 44.315 88.750, 51.528 88.750 C 62.022 88.750, 71.241 94.515, 69.503 99.990 C 67.482 106.359, 42.504 113.851, 28.223 112.371 C 21.487 111.673, 14 113.364, 14 115.584 C 14 116.868, 15.446 116.996, 23.750 116.450 C 33.472 115.811, 33.513 115.818, 38.161 118.940 C 40.725 120.662, 46.935 126.768, 51.962 132.510 C 63.390 145.563, 67.877 149.252, 76.588 152.755 C 81.872 154.880, 83.500 156.001, 83.500 157.513 C 83.500 161.511, 70.410 166.715, 39.499 175.005 C 21.765 179.761, 19 180.788, 19 182.621 C 19 184.364, 40.856 184.556, 52.637 182.918 C 59.734 181.931, 64.784 180.715, 92.500 173.322 C 103.740 170.324, 117.505 169.329, 125.294 170.953 C 132.982 172.555, 145.284 178.843, 151.589 184.394 L 156.678 188.874 160.089 186.835 C 171.547 179.986, 174.770 171.673, 169.263 163.179 C 167.757 160.857, 161.345 154.761, 155.013 149.633 C 142.785 139.729, 140.356 136.700, 141.378 132.629 C 142.238 129.203, 153.499 123.717, 166 120.633 C 175.331 118.332, 175.538 118.216, 177.653 114.131 C 180.165 109.276, 179.796 106.684, 176.368 105.122 C 172.713 103.457, 170.084 103.674, 147.838 107.478 C 125.913 111.227, 115.372 111.938, 109.659 110.053 C 107.668 109.395, 105.627 109.112, 105.124 109.424 C 104.620 109.735, 103.244 109.204, 102.065 108.245 L 99.922 106.500 108.138 96.630 L 116.355 86.760 122.808 87.421 C 126.357 87.785, 136.290 89.403, 144.881 91.016 L 160.500 93.950 162.197 91.725 C 164.374 88.872, 168.303 76.876, 170.625 66 C 173.174 54.057, 173.218 32.814, 170.702 28.207 C 166.886 21.217, 160.386 21.496, 150.501 29.073 C 146.925 31.813, 144 33.690, 144 33.243 C 144 32.175, 138.524 28.968, 135.157 28.064 C 132.831 27.440, 133.435 27.067, 140 25.072 C 144.125 23.818, 148.738 22.152, 150.250 21.370 C 153.262 19.813, 153.920 16.567, 151.418 15.607 C 148.871 14.630, 133.462 15.122, 120.500 16.595 M 127.500 18.649 C 125.850 18.842, 120.225 19.477, 115 20.061 C 102.966 21.406, 85.263 23.855, 82 24.625 L 79.500 25.215 82 26.189 C 83.375 26.725, 87.049 26.884, 90.165 26.542 C 93.281 26.200, 102.868 25.916, 111.469 25.912 C 125.073 25.905, 128.206 25.586, 135.542 23.460 C 140.180 22.116, 145.443 20.374, 147.237 19.590 C 150.334 18.236, 149.990 18.167, 140.500 18.231 C 135 18.269, 129.150 18.457, 127.500 18.649 M 41.182 25.030 C 39.164 26.261, 37.009 28.904, 35.682 31.777 C 33.634 36.209, 33.480 38.210, 33.179 64.250 C 33.003 79.513, 33.159 92, 33.525 92 C 33.891 92, 35.386 91.169, 36.846 90.153 C 48.261 82.209, 69.894 86.370, 72.444 97 C 74.052 103.704, 65.156 109.629, 48.083 113.225 L 37.812 115.388 40.656 117.373 C 42.220 118.465, 46.183 122.315, 49.462 125.929 C 60.474 138.067, 71.977 149, 73.746 149.010 C 74.711 149.015, 77.819 150.099, 80.654 151.419 C 86.080 153.946, 87.815 156.608, 86.110 159.794 C 83.805 164.102, 67.116 170.621, 40.500 177.611 L 29.500 180.500 38.326 180.790 C 49.103 181.144, 59.835 179.355, 79.500 173.925 C 105.066 166.865, 113.862 165.840, 126.290 168.473 C 134.365 170.184, 143.185 174.486, 151.090 180.569 C 154.257 183.006, 157.251 185, 157.744 185 C 159.678 185, 167.339 177.433, 168.698 174.180 C 171.099 168.433, 167.752 163.499, 153.694 152.060 C 136.659 138.198, 134.906 134.633, 141.869 128.009 C 146.030 124.052, 154.490 120.494, 166.826 117.516 C 173.486 115.908, 174.302 115.435, 175.790 112.314 C 177.216 109.324, 177.238 108.763, 175.963 107.956 C 173.450 106.367, 167.170 106.905, 146.167 110.510 C 134.984 112.429, 123.396 114, 120.417 114 L 115 114 115 118.962 C 115 125.941, 111.665 134.044, 106.369 139.935 C 98.243 148.973, 90.598 148.950, 84.019 139.868 C 82.350 137.563, 80.467 133.952, 79.835 131.842 C 78.704 128.069, 78.809 127.804, 86.311 115.392 C 93.911 102.819, 93.931 102.767, 92.365 99.738 C 88.259 91.800, 91.632 85.570, 100.822 84.117 C 103.693 83.663, 106.369 82.974, 106.771 82.585 C 107.172 82.195, 111.364 76.392, 116.086 69.688 L 124.673 57.500 119.586 56.668 C 116.789 56.211, 104.994 56.032, 93.375 56.272 C 72.332 56.705, 72.226 56.718, 65.875 59.736 L 59.500 62.765 65 65.218 C 69.988 67.442, 73.705 68.597, 86.750 71.976 C 89.309 72.639, 91 73.659, 91 74.539 C 91 76.331, 80.209 76.523, 66.660 74.971 C 55.751 73.721, 51.995 71.991, 52.012 68.224 C 52.030 64.491, 58.675 57.450, 63.100 56.478 C 64.961 56.069, 72.562 53.368, 79.992 50.474 C 95.423 44.465, 112.608 38.966, 128.385 34.989 C 138.984 32.318, 139.183 32.217, 135.886 31.173 C 129.528 29.159, 125.206 28.815, 119.852 29.898 C 106.829 32.531, 95.984 33.112, 89.735 31.511 C 85.565 30.442, 81.753 30.175, 77.265 30.634 C 70.838 31.293, 70.818 31.304, 73.900 32.600 C 80.958 35.568, 74.589 41, 64.051 41 C 54.163 41, 53.497 35.655, 62.418 27.904 L 66.337 24.500 63.418 23.868 C 61.813 23.521, 56.900 23.185, 52.500 23.122 C 46.092 23.030, 43.840 23.410, 41.182 25.030 M 67.441 27.468 C 65.526 28.917, 65.527 28.937, 67.500 28.957 C 68.600 28.969, 71.300 28.673, 73.500 28.301 C 77.137 27.686, 77.273 27.559, 75 26.912 C 71.043 25.784, 69.519 25.897, 67.441 27.468 M 157.547 27.527 C 151.373 30.799, 146.249 35.857, 145.599 39.322 C 144.888 43.112, 139.808 48.711, 134.474 51.584 C 132.556 52.617, 131.125 53.876, 131.294 54.383 C 131.463 54.890, 133.691 55.835, 136.245 56.483 C 147.147 59.252, 146.770 62.213, 134.066 73.598 C 128.450 78.631, 122.908 82.752, 121.316 83.081 C 118.867 83.586, 119.152 83.763, 123.500 84.438 C 126.250 84.866, 135.459 86.499, 143.965 88.069 C 155.784 90.249, 159.614 90.637, 160.210 89.711 C 162.318 86.440, 165.463 76.351, 167.603 66 C 170.604 51.477, 170.894 35.296, 168.248 30 C 166.199 25.898, 162.316 25, 157.547 27.527 M 97 29 L 91.500 29.674 97 29.763 C 100.025 29.812, 104.525 29.491, 107 29.051 L 111.500 28.250 107 28.288 C 104.525 28.309, 100.025 28.629, 97 29 M 60.069 34.331 C 59.481 34.919, 59 35.985, 59 36.700 C 59 38.340, 67.658 38.475, 71.685 36.897 C 74.280 35.880, 74.344 35.735, 72.500 35.039 C 68.863 33.667, 61.171 33.229, 60.069 34.331 M 140.482 35.028 C 139.373 36.824, 133.592 38.793, 132.331 37.805 C 130.719 36.542, 87.763 49.206, 81.334 52.839 C 80.691 53.203, 89.784 53.515, 101.541 53.533 C 121.136 53.563, 122.795 53.431, 121.458 51.954 C 119.863 50.191, 119.464 46, 120.892 46 C 121.382 46, 122.066 47.125, 122.411 48.500 C 122.922 50.536, 123.652 51, 126.342 51 C 129.202 51, 130.476 50.033, 135.823 43.805 C 139.220 39.848, 142 36.023, 142 35.305 C 142 33.738, 141.353 33.620, 140.482 35.028 M 138.872 44.750 C 137.629 46.336, 137.664 46.371, 139.250 45.128 C 140.916 43.821, 141.445 43, 140.622 43 C 140.415 43, 139.627 43.788, 138.872 44.750 M 119.500 69.433 C 115.100 75.685, 111.500 81.408, 111.500 82.150 C 111.500 82.893, 112.400 83.500, 113.500 83.500 C 114.851 83.500, 118.488 79.766, 124.702 72 C 129.763 65.675, 134.684 60.338, 135.638 60.141 C 137.258 59.805, 137.253 59.971, 135.557 62.641 C 134.558 64.213, 132.761 66.625, 131.564 68 C 127.907 72.199, 123.858 78, 124.584 78 C 124.962 78, 129.046 74.572, 133.661 70.383 C 139.998 64.630, 141.792 62.455, 140.995 61.494 C 139.901 60.176, 132.472 57.975, 129.307 58.033 C 128.157 58.054, 124.590 62.201, 119.500 69.433 M 55.483 66.019 C 54.560 67.039, 54.092 68.340, 54.444 68.910 C 55.405 70.465, 61.552 71.836, 70.500 72.492 L 78.500 73.078 71.282 70.656 C 67.311 69.324, 62.510 67.319, 60.613 66.199 C 57.256 64.218, 57.117 64.214, 55.483 66.019 M 101.500 86.740 C 94.028 88.130, 91.850 91.195, 94.215 96.992 L 95.567 100.304 99.920 93.622 C 102.315 89.947, 104.100 86.812, 103.887 86.654 C 103.674 86.497, 102.600 86.536, 101.500 86.740 M 103.811 92.750 C 94.884 106.192, 95.227 108.077, 104.551 96.812 C 113.639 85.831, 113.543 86, 110.703 86 C 108.838 86, 107.281 87.524, 103.811 92.750 M 93.515 108.719 L 91.759 111.500 94.074 109.278 C 95.347 108.056, 96.137 106.804, 95.830 106.497 C 95.522 106.189, 94.481 107.189, 93.515 108.719 M 96.384 111.169 C 94.505 113.285, 94.507 113.288, 97 112.010 C 100.256 110.342, 100.294 110.300, 99.200 109.624 C 98.687 109.307, 97.420 110.002, 96.384 111.169 M 99.325 114.003 C 98.129 114.485, 95.300 116.048, 93.038 117.476 C 90.776 118.904, 88.535 119.831, 88.058 119.536 C 87.581 119.241, 85.969 121.084, 84.476 123.631 C 82.004 127.850, 81.865 128.607, 82.921 132.131 C 84.511 137.437, 90.881 144, 94.441 144 C 98.742 144, 102.820 140.999, 106.991 134.765 C 110.976 128.809, 113.432 120.569, 112.422 116.545 C 111.610 113.312, 104.476 111.927, 99.325 114.003" stroke="none" fill="black" fill-rule="evenodd"/>
</svg>