<svg xmlns="http://www.w3.org/2000/svg" width="200" height="200" viewBox="0 0 200 200" version="1.1">
	<path d="M 119.607 9.582 C 118.648 12.081, 118.897 28.172, 120.130 43.310 C 121.160 55.956, 121.095 57.733, 119.398 63.337 C 117.921 68.215, 116.362 70.691, 111.858 75.307 C 105.712 81.608, 99.611 92.132, 98.434 98.462 C 98.029 100.641, 96.809 103.144, 95.722 104.024 C 93.079 106.164, 94.183 109.526, 98.215 111.611 L 101.288 113.200 100.649 109.205 C 99.873 104.356, 100.506 103.998, 109.832 104.006 C 121.051 104.015, 126.258 106.342, 122.800 109.800 C 121.874 110.726, 121.871 111.271, 122.787 112.187 C 123.702 113.102, 124.508 112.872, 126.312 111.177 L 128.651 108.980 129.848 115.478 C 130.507 119.053, 131.299 123.247, 131.610 124.798 L 132.174 127.619 123.837 127.591 C 118.908 127.575, 114.567 128.083, 113.218 128.834 C 111.027 130.054, 110.962 130.453, 111.596 138.842 C 112.174 146.506, 112.001 148.078, 110.185 151.637 C 106.152 159.543, 93.713 168.641, 72.171 179.442 C 62.757 184.162, 62.776 184.122, 80.364 162.500 C 89.100 151.760, 93.148 144.863, 93.726 139.737 C 94.387 133.872, 91.976 130.977, 85.855 130.287 L 81.290 129.773 80.596 111.579 C 79.338 78.577, 76.738 69, 69.038 69 C 65.187 69, 61.041 72.657, 55.654 80.805 C 50.890 88.011, 40.606 107.939, 41.296 108.629 C 41.527 108.860, 45.875 108.331, 50.959 107.454 C 70.562 104.071, 75.472 109.415, 65.385 123.157 C 55.015 137.284, 34.103 148.720, 23.742 145.931 C 19.940 144.907, 19.879 144.821, 21.452 142.689 C 24.954 137.944, 28.252 129.534, 30.063 120.731 C 32.583 108.481, 33.537 85.016, 31.962 74 C 28.307 48.418, 30.747 34.697, 40.471 26.160 C 50.880 17.021, 58.969 29.606, 56.073 50.433 C 55.481 54.683, 54.706 59.323, 54.349 60.745 C 53.783 63.002, 53.941 63.226, 55.600 62.515 C 56.645 62.067, 61.325 60.629, 66 59.319 C 70.675 58.009, 76.778 56.280, 79.563 55.476 C 85.660 53.717, 92.710 48.881, 97.057 43.475 L 100.254 39.500 99.776 42.500 C 99.513 44.150, 98.499 50.529, 97.522 56.675 C 94.102 78.190, 97.837 78.344, 114.301 57.366 C 119.294 51.005, 120.179 49, 117.995 49 C 117.625 49, 114.372 52.712, 110.766 57.250 C 107.160 61.788, 103.038 66.591, 101.605 67.924 L 99 70.349 99 66.828 C 99 63.927, 104.406 31.704, 106.563 21.750 C 106.993 19.765, 106.765 19, 105.743 19 C 104.863 19, 103.688 21.303, 102.634 25.092 C 99.328 36.983, 92.722 46.507, 85.016 50.492 C 82.472 51.807, 60.997 57.972, 58.882 57.994 C 58.542 57.997, 58.482 52.938, 58.750 46.750 C 59.296 34.099, 58.260 28.650, 54.447 24.119 C 47.950 16.398, 37.586 20.906, 31.564 34.073 C 30.162 37.138, 28.562 42.037, 28.008 44.960 C 26.569 52.546, 26.715 66.315, 28.250 67.851 C 30.310 69.911, 29.892 108.214, 27.686 119.500 C 25.758 129.363, 20.982 140.404, 17.938 142.033 C 15.205 143.496, 15.509 144.533, 19.368 146.918 C 28.967 152.851, 47.313 145.876, 62.410 130.554 C 72.395 120.421, 75.771 110.817, 70.898 106.408 C 68.403 104.149, 56.110 103.247, 49.241 104.817 L 44.983 105.791 50.535 95.105 C 53.588 89.228, 57.755 82.228, 59.793 79.549 C 72.362 63.033, 76.509 70.693, 77.895 112.979 L 78.500 131.458 83.470 132.289 C 90.282 133.428, 91.317 134.494, 90.724 139.754 C 90.167 144.701, 84.800 153.295, 75.119 164.747 C 61.625 180.706, 59.327 185, 64.278 185 C 69.504 185, 96.313 170.121, 104.742 162.542 C 107.722 159.862, 111.033 155.588, 112.585 152.415 C 114.862 147.761, 115.188 146.056, 114.728 141.213 C 114.430 138.071, 113.873 134.719, 113.491 133.764 C 112.507 131.304, 116.525 130, 125.087 130 C 133.143 130, 131.936 128.436, 137.437 146 C 141.606 159.312, 145.842 167.325, 150.068 169.895 C 153.568 172.023, 168.095 173.272, 174.872 172.027 C 184.056 170.340, 182.331 166.871, 165.307 152.792 C 153.960 143.408, 143.115 132.520, 144.141 131.542 C 144.339 131.354, 148.909 131.637, 154.297 132.171 C 165.505 133.281, 176.137 132.091, 179.118 129.393 C 181.685 127.070, 181.480 122.880, 178.512 117.024 C 177.144 114.324, 174.824 108.601, 173.358 104.307 C 168.448 89.934, 170.073 72.823, 178.008 55.323 C 179.653 51.693, 181 48.561, 181 48.362 C 181 48.163, 178.957 48, 176.460 48 C 168.206 48, 162.029 43.296, 153.189 30.278 C 142.944 15.192, 137.532 14.160, 129.767 25.810 C 128.277 28.047, 128.173 27.871, 126.522 20.310 C 124.251 9.912, 121.260 5.273, 119.607 9.582 M 122.010 24.250 C 122.020 33.369, 123.482 54.412, 124.546 60.752 L 125.091 64.004 128.296 62.374 C 130.058 61.477, 133.685 58.313, 136.356 55.343 C 139.027 52.372, 142.555 49.247, 144.197 48.398 C 146.930 46.985, 147.343 47, 149.091 48.582 C 150.267 49.647, 151 51.635, 151 53.761 C 151 55.982, 151.890 58.269, 153.500 60.182 C 158.096 65.644, 156.829 73.754, 148.969 89.179 C 145.546 95.897, 145.129 97.372, 146.123 99.230 C 149.282 105.132, 151.031 117.245, 148.913 118.554 C 146.993 119.741, 145.933 117.489, 144.152 108.445 L 142.411 99.595 140.205 104.287 C 136.485 112.201, 138.107 127.033, 142.843 128.404 C 143.755 128.668, 149.467 129.186, 155.538 129.557 C 167.781 130.303, 177.421 128.951, 178.421 126.346 C 178.748 125.494, 177.198 120.761, 174.976 115.829 C 169.538 103.751, 168 97.280, 168 86.478 C 168 76.512, 170.213 66.289, 174.441 56.729 L 176.975 51 174.684 51 C 173.424 51, 170.055 49.835, 167.198 48.411 C 161.761 45.702, 156.962 40.621, 148.644 28.763 C 146.045 25.058, 143.036 21.555, 141.959 20.978 C 138.493 19.123, 134.943 22.127, 130.071 31.037 C 126.733 37.141, 126.876 37.314, 124.461 24.250 C 123.521 19.163, 122.583 15, 122.376 15 C 122.169 15, 122.005 19.163, 122.010 24.250 M 141.637 53.860 L 137.868 57.719 143.184 57.231 C 146.108 56.963, 148.616 56.648, 148.757 56.531 C 149.531 55.893, 147.565 50, 146.578 50 C 145.933 50, 143.710 51.737, 141.637 53.860 M 136.424 61.418 C 134.733 62.154, 131.668 65.046, 129.614 67.845 L 125.879 72.932 127.471 84.716 C 129.554 100.137, 129.354 99.721, 133.150 96.527 C 135.384 94.647, 137.194 93.970, 139.398 94.190 L 142.500 94.500 144.688 84 C 145.891 78.225, 147.272 70.463, 147.757 66.750 L 148.638 60 144.069 60.039 C 141.556 60.061, 138.116 60.681, 136.424 61.418 M 149.632 72.686 C 148.651 78.487, 147.631 83.968, 147.365 84.867 C 147.100 85.765, 147.809 84.832, 148.942 82.794 C 152.895 75.683, 154.687 64.160, 152.089 62.555 C 151.719 62.326, 150.614 66.886, 149.632 72.686 M 121.372 70.094 C 120.752 70.867, 119.918 72.625, 119.518 74 L 118.791 76.500 120.993 74.375 C 122.204 73.206, 123.038 71.448, 122.847 70.469 C 122.556 68.975, 122.319 68.914, 121.372 70.094 M 111.017 80.074 C 106.249 86.078, 101.002 96.325, 101.001 99.635 C 101 101.641, 101.378 101.739, 107.265 101.267 C 111.341 100.940, 115.761 101.335, 119.914 102.399 C 123.425 103.299, 126.516 103.817, 126.783 103.550 C 127.050 103.284, 126.450 96.981, 125.451 89.543 C 123.780 77.110, 123.502 76.141, 121.988 77.511 C 119.627 79.647, 117.064 79.347, 116.130 76.824 C 115.384 74.805, 115.014 75.040, 111.017 80.074 M 133.365 100.096 L 130.269 103.193 131.624 110.346 C 134.610 126.115, 135.138 128, 136.571 128 C 138.323 128, 138.335 128.340, 136.382 122.608 C 134.220 116.262, 134.937 108.502, 138.279 102.059 L 140.904 97 138.683 97 C 137.461 97, 135.068 98.393, 133.365 100.096 M 136 131.270 C 136 131.419, 136.922 134.906, 138.048 139.020 C 142.269 154.436, 147.066 164.720, 151.296 167.422 C 153.910 169.092, 169.425 170.518, 174.538 169.559 C 176.649 169.163, 177.971 168.394, 177.747 167.693 C 177.537 167.037, 172.895 162.774, 167.433 158.220 C 155.559 148.322, 144.441 137.542, 142.197 133.750 C 141.177 132.028, 139.715 131, 138.284 131 C 137.028 131, 136 131.122, 136 131.270" stroke="none" fill="black" fill-rule="evenodd"/>
</svg>