<svg xmlns="http://www.w3.org/2000/svg" width="200" height="200" viewBox="0 0 200 200" version="1.1">
	<path d="M 35 11.172 C 26.357 13.620, 25.045 18.966, 30.030 31.416 C 35.938 46.171, 33.954 51.418, 20.769 55.900 C 15.313 57.755, 14.158 59.657, 18.712 59.290 C 23.250 58.924, 32.047 53.970, 34.081 50.635 C 36.903 46.006, 36.459 40.656, 32.347 29.759 C 26.330 13.815, 28.453 12.372, 56.500 13.345 C 74.025 13.953, 79.818 14.651, 112.852 20.135 C 129.570 22.909, 131.991 23.534, 130.439 24.669 C 126.321 27.680, 102.382 36.370, 98.029 36.434 C 94.308 36.489, 93.353 36.914, 92.327 38.971 C 91.607 40.416, 91.479 41.678, 92.019 42.012 C 92.527 42.326, 89.124 44.477, 84.457 46.791 C 76.676 50.650, 75.328 50.999, 68.235 50.985 C 63.946 50.977, 59.386 50.400, 58 49.690 C 54.059 47.671, 54.549 40.588, 59.326 30.528 C 63.091 22.600, 63.091 22.599, 61.190 20.050 C 56.064 13.177, 51.050 18.719, 48.078 34.541 C 45.403 48.784, 39.979 120.312, 41.462 121.795 C 42.300 122.633, 46.674 121.045, 49.371 118.923 C 52.706 116.299, 56.307 109.263, 58.032 102 C 59.550 95.611, 59.656 74.746, 58.206 67.635 L 57.215 62.769 65.505 58.885 C 74.610 54.618, 76.720 54.287, 80.928 56.463 C 84.375 58.246, 85 59.730, 85 66.139 C 85 73.385, 83.072 80.168, 80.848 80.750 C 78.828 81.278, 78.435 82.533, 79.989 83.493 C 80.602 83.872, 80.417 84.961, 79.503 86.356 C 78.691 87.594, 77.070 91.283, 75.899 94.553 C 73.146 102.245, 72.964 117.937, 75.440 134 C 77.696 148.630, 77.170 156.634, 73.599 162.030 C 72.154 164.214, 70.475 166, 69.868 166 C 69.261 166, 67.226 164.650, 65.347 163 C 58.956 157.389, 48.274 159.365, 34.325 168.738 C 25.937 174.374, 25.144 174.777, 27.078 172.422 C 27.946 171.365, 32.576 165.452, 37.367 159.283 L 46.078 148.066 42.188 144.551 C 32.671 135.953, 25.068 113.776, 23.397 89.744 C 22.816 81.394, 23.900 69.030, 25.601 64.598 C 25.999 63.560, 25.674 63, 24.674 63 C 22.722 63, 22.160 64.833, 21.003 74.972 C 18.274 98.898, 26.967 132.700, 39.164 145.595 L 42.092 148.690 34.754 158.095 C 20.021 176.977, 18.630 179.030, 19.788 180.188 C 20.584 180.984, 24.186 179.061, 32.918 173.178 C 46.929 163.737, 53.985 161.080, 60.142 162.924 C 62.742 163.703, 64.485 165.036, 65.520 167.038 C 66.362 168.667, 67.640 170, 68.359 170 C 70.998 170, 77.021 162.668, 78.515 157.637 C 80.433 151.178, 80.394 149.177, 78 131.500 C 75.624 113.954, 75.528 107.627, 77.511 99.219 C 78.941 93.151, 82.162 85.626, 83.736 84.673 C 84.156 84.418, 87.183 84.634, 90.462 85.152 C 101.593 86.911, 109 91.675, 109 97.076 C 109 101.339, 103.256 108.790, 93.500 117.182 C 88.550 121.440, 84.500 125.503, 84.500 126.212 C 84.500 128.174, 88.723 127.366, 98.480 123.536 L 107.213 120.107 106.562 122.804 C 105.194 128.471, 104.777 145.731, 105.882 150.887 C 109.470 167.617, 121.962 179.327, 139.190 182.112 C 149.604 183.795, 167.321 180.866, 171.769 176.727 C 178.463 170.498, 183.774 156.649, 182.564 148.580 C 181.336 140.391, 175.898 135.056, 170.230 136.478 C 165.413 137.687, 159.023 145.055, 154.117 155.056 L 149.370 164.732 144.245 157.860 C 137.785 149.200, 132.908 139.359, 132.270 133.704 C 131.108 123.390, 137.411 119.199, 159.665 115.489 C 176.378 112.703, 177.862 112.323, 180.250 110.227 C 183.301 107.548, 182.350 104.251, 176.850 98.435 L 171.701 92.990 166.229 99.037 C 159.878 106.055, 154.762 109, 148.922 109 C 145.451 109, 144.145 108.381, 141.012 105.247 C 135.932 100.167, 134.965 94.770, 138.008 88.484 C 142.067 80.099, 153.998 76.050, 169.068 77.942 C 173.135 78.453, 176.637 78.697, 176.850 78.484 C 177.672 77.661, 177.072 70.004, 176.034 68.063 C 174.612 65.406, 170.126 63.126, 165.877 62.901 C 164.020 62.802, 156.851 63.065, 149.946 63.485 C 138.703 64.169, 137.209 64.066, 135.643 62.501 C 133.416 60.273, 134.110 56.771, 138.518 47.988 C 141.097 42.849, 142.849 40.787, 146.830 38.207 C 159.923 29.723, 160.176 23.177, 147.488 21.176 C 144.194 20.657, 140.118 20.444, 138.429 20.704 C 136.739 20.963, 124.364 19.332, 110.929 17.080 C 70.647 10.328, 45.020 8.334, 35 11.172 M 54.623 22.250 C 52.616 25.422, 50.235 36.829, 48.521 51.487 C 46.931 65.080, 43.625 117.958, 44.322 118.655 C 45.411 119.744, 50.953 113.538, 52.869 109.084 C 56.800 99.945, 57.977 80.135, 55.364 67.072 C 54.776 64.130, 54.708 64.100, 51.932 65.535 C 47.981 67.578, 47.824 67.471, 48.586 63.250 C 49.904 55.951, 52.472 53.981, 55.337 58.070 C 56.786 60.140, 56.788 60.139, 62.643 57.118 C 67.983 54.363, 68.235 54.091, 65.500 54.043 C 60.213 53.948, 55.031 51.977, 53.358 49.424 C 51.082 45.950, 52.174 39.291, 56.525 30.118 C 59.224 24.428, 59.766 22.423, 58.891 21.368 C 57.294 19.444, 56.263 19.657, 54.623 22.250 M 120.290 32.663 L 102.079 41.235 103.929 44.868 C 109.114 55.046, 110.608 69.506, 107.148 76.016 C 106.130 77.932, 103.852 80.486, 102.086 81.692 L 98.876 83.884 102.188 85.556 C 115.933 92.495, 114.511 102.617, 97.758 117.071 C 93.978 120.332, 91.154 123, 91.481 123 C 91.808 123, 96.175 121.417, 101.186 119.482 C 106.197 117.546, 110.527 116.193, 110.808 116.475 C 111.090 116.757, 110.792 118.749, 110.147 120.903 C 104.453 139.909, 108.261 159.554, 119.659 169.971 C 127.513 177.149, 133.987 179.387, 147 179.422 C 164.733 179.469, 170.856 176.503, 176.555 165.102 C 181.407 155.398, 180.612 143.156, 174.905 139.678 C 172.415 138.160, 168.401 139.686, 164.607 143.592 C 160.985 147.323, 154.145 159.691, 151.996 166.398 L 150.748 170.295 147.402 166.398 C 142.274 160.425, 135.198 149.674, 132.466 143.707 C 129.024 136.189, 128.439 130.360, 130.696 126.071 C 134.803 118.266, 142.099 115.267, 165.894 111.605 C 180.300 109.388, 181.900 107.557, 175.521 100.592 L 172.041 96.794 167.041 102.265 C 156.083 114.254, 143.700 114.956, 136.250 104.010 C 133.577 100.082, 133.170 91.505, 135.449 87.099 C 139.861 78.567, 149.634 74.628, 165.072 75.159 C 175.679 75.523, 175.872 75.423, 174.006 70.517 C 172.145 65.621, 167.395 64.612, 152.940 66.044 C 135.661 67.755, 132 66.546, 132 59.126 C 132 53.427, 139.064 39.536, 142.995 37.502 C 147.192 35.332, 154 29.094, 154 27.419 C 154 25.215, 150.504 23.997, 144.316 24.045 C 139.143 24.085, 136.487 25.038, 120.290 32.663 M 88.254 47.796 C 79.063 52.488, 79.025 52.523, 81.779 53.742 C 87.696 56.361, 89.524 64.687, 86.596 75.684 C 85.031 81.562, 85.379 82, 91.614 82 C 102.549 82, 108.511 73.022, 106.059 60.249 C 104.636 52.836, 100.776 43.569, 99 43.302 C 98.175 43.178, 93.339 45.200, 88.254 47.796 M 52 60.441 C 52 61.298, 52.450 62, 53 62 C 53.550 62, 54 61.577, 54 61.059 C 54 60.541, 53.550 59.840, 53 59.500 C 52.450 59.160, 52 59.584, 52 60.441" stroke="none" fill="black" fill-rule="evenodd"/>
</svg>