<svg xmlns="http://www.w3.org/2000/svg" width="200" height="200" viewBox="0 0 200 200" version="1.1">
	<path d="M 31.345 13.542 C 31.020 14.391, 31.042 17.258, 31.394 19.914 C 31.888 23.633, 31.242 27.975, 28.588 38.781 C 26.693 46.502, 24.188 58.597, 23.022 65.659 C 21.856 72.722, 19.781 84.489, 18.410 91.808 L 15.919 105.116 20.612 110.308 C 26.202 116.492, 30.577 125.342, 32.090 133.527 C 34.439 146.237, 30.523 163.021, 23.407 170.736 C 18.318 176.254, 13.591 184.629, 15.056 185.535 C 16.613 186.497, 20.457 182.574, 25.741 174.631 C 32.957 163.786, 40.305 161.810, 57.813 166.007 C 69.235 168.745, 72.361 168.628, 74.927 165.365 C 78.449 160.888, 77.208 146.981, 72.875 142.363 C 70.647 139.989, 70.504 139.112, 70.561 128.166 C 70.628 115.363, 72.263 105.980, 77.046 90.943 C 80.653 79.606, 83.596 74.196, 85.254 75.854 C 86.079 76.679, 86.085 80.073, 85.275 88.737 C 84.501 97.007, 84.474 105.400, 85.181 117 C 86.630 140.738, 85.900 152.639, 82.581 159.424 C 79.767 165.176, 77.267 167.355, 71.882 168.751 C 65.865 170.310, 67.133 172.431, 75.214 174.322 C 87.070 177.097, 99.518 177.723, 136.500 177.403 L 171.500 177.099 175.750 172.453 C 180.750 166.987, 181.318 163.452, 177.435 161.975 C 176.024 161.439, 170.737 160.998, 165.685 160.996 C 158.187 160.993, 155.882 160.616, 153.134 158.940 C 149.844 156.935, 149.777 156.758, 150.184 151.194 C 150.447 147.599, 151.799 142.905, 153.852 138.460 L 157.103 131.420 154.561 125.960 C 150.402 117.026, 151.250 108.677, 157.074 101.201 C 158.058 99.937, 161.932 96.414, 165.682 93.371 C 169.432 90.329, 173.063 87.115, 173.750 86.229 C 177.182 81.806, 173.255 78.258, 161.829 75.458 L 154.951 73.772 149.954 78.446 C 147.206 81.017, 143.407 83.768, 141.511 84.560 C 136.782 86.536, 128.332 86.334, 123.478 84.129 C 111.761 78.806, 105.510 64.423, 111.250 55.990 C 115.733 49.403, 117.840 48.573, 130.279 48.497 C 140.161 48.436, 142.169 48.118, 147.107 45.835 C 154.966 42.200, 158.500 37.364, 158.500 30.246 C 158.500 25.399, 158.160 24.532, 155.234 21.918 C 148.635 16.022, 136.249 19.054, 123.460 29.697 L 117.443 34.704 107.626 35.218 C 98.933 35.673, 97.034 36.129, 91.036 39.207 L 84.262 42.682 72.967 30.747 C 60.963 18.061, 56.251 14.717, 53.548 16.960 C 51.397 18.745, 51.600 22.410, 54.563 35.274 C 55.973 41.396, 57.060 48.676, 56.978 51.452 C 56.896 54.228, 56.868 57.001, 56.915 57.613 C 57.131 60.433, 73.187 55.383, 79.628 50.470 C 81.409 49.111, 83.321 48, 83.877 48 C 84.720 48, 111.476 80.688, 118.684 90.523 C 120.200 92.591, 121.188 93.183, 121.920 92.463 C 122.656 91.738, 122.026 90.274, 119.833 87.613 L 116.691 83.802 121.095 86.128 C 124.570 87.963, 127.083 88.454, 133 88.457 C 141.545 88.461, 144.700 87.161, 151.607 80.795 L 155.985 76.759 160.660 77.936 C 167.837 79.743, 172 81.746, 172 83.391 C 172 84.211, 169.413 86.874, 166.250 89.308 C 149.762 101.996, 145.286 113.839, 152.002 127.004 L 154.175 131.263 150.900 138.368 C 147.314 146.148, 146.077 154.407, 147.969 157.942 C 150.128 161.977, 156.444 163.954, 167.250 163.978 C 178.510 164.003, 179.118 164.651, 173.608 170.747 L 170.217 174.500 129.358 174.460 C 99.744 174.431, 86.629 174.056, 81.700 173.098 L 74.900 171.777 78.985 168.281 C 88.029 160.540, 89.854 150.823, 88.027 120.151 C 87.045 103.665, 87.059 97.482, 88.099 88.385 L 89.390 77.090 95.197 80.186 C 102.637 84.151, 108.649 90.609, 109.595 95.653 C 110.007 97.851, 109.714 103.328, 108.907 108.493 C 107.559 117.120, 107.293 154.152, 108.538 159.750 C 109.152 162.512, 111.565 162.682, 112.967 160.063 C 114.138 157.874, 117.833 143.128, 123.978 116.124 C 126.278 106.017, 128.397 97.129, 128.687 96.374 C 128.996 95.569, 128.565 95, 127.646 95 C 125.796 95, 125.738 95.204, 119.064 125 C 116.293 137.375, 113.389 149.525, 112.611 152 L 111.198 156.500 111.079 148.500 C 111.013 144.100, 110.563 137.759, 110.078 134.409 C 109.222 128.489, 109.609 122.835, 111.975 106.709 C 114.118 92.098, 110.064 85.154, 94.500 76.777 C 87.527 73.024, 71.828 67.496, 58.250 64.013 C 55.870 63.403, 54 62.325, 54 61.564 C 54 59.267, 45.950 35.984, 42.226 27.511 C 36.332 14.099, 32.848 9.626, 31.345 13.542 M 34.467 20.753 C 34.748 22.641, 33.469 30.193, 31.418 38.753 C 29.475 46.864, 26.546 61.375, 24.910 71 C 23.273 80.625, 21.249 91.963, 20.412 96.197 L 18.890 103.893 23.611 109.690 C 32.974 121.185, 36.813 134.245, 35.002 148.440 C 34.506 152.323, 33.423 157.412, 32.595 159.750 C 31.766 162.087, 31.181 163.993, 31.294 163.985 C 31.407 163.977, 33.300 163.321, 35.500 162.529 C 41.275 160.448, 46.727 160.673, 58.994 163.499 C 64.961 164.873, 70.558 165.723, 71.430 165.388 C 73.649 164.537, 74.346 160.901, 73.740 153.345 C 73.364 148.665, 72.642 146.248, 71.143 144.652 C 70.001 143.437, 68.516 140.055, 67.842 137.137 C 65.443 126.742, 70.929 95.935, 77.929 80.497 L 80.912 73.917 78.206 72.882 C 71.485 70.311, 56.468 66.417, 56.167 67.167 C 55.984 67.624, 56.321 70.271, 56.917 73.048 C 57.513 75.826, 58 81.616, 58 85.914 C 58 92.301, 57.622 94.211, 55.933 96.359 C 54.796 97.804, 52.722 101.801, 51.324 105.242 C 45.648 119.210, 41.864 125.269, 39.406 124.326 C 36.605 123.251, 38.125 109.299, 44.125 81 C 47.172 66.632, 48.305 63.146, 50.365 61.808 C 51.827 60.858, 43.977 37.656, 38.360 26.329 C 35.297 20.152, 34.128 18.477, 34.467 20.753 M 55 21.866 C 55 23.442, 56.125 29.715, 57.500 35.806 C 58.875 41.897, 60 48.708, 60 50.940 C 60 55.566, 60.342 55.682, 67.614 53.522 C 72.406 52.099, 82.014 46.506, 81.987 45.156 C 81.965 44.039, 65.507 26.265, 61.039 22.533 C 55.917 18.253, 55 18.152, 55 21.866 M 142.438 21.928 C 137.810 23.050, 129.851 27.668, 124.385 32.401 C 119.581 36.562, 119.324 36.650, 108.888 37.708 C 98.785 38.733, 91.922 40.826, 87.807 44.137 C 86.266 45.377, 86.854 46.406, 94.307 55.523 C 98.813 61.035, 103.741 67.110, 105.259 69.023 L 108.018 72.500 106.887 69.180 C 105.134 64.035, 106.314 57.416, 109.742 53.175 C 114.948 46.733, 117.810 45.680, 130.375 45.585 C 140.142 45.510, 142.110 45.195, 146.499 43 C 161.183 35.655, 157.819 18.197, 142.438 21.928 M 49.369 65.788 C 49.637 66.221, 48.084 75.334, 45.917 86.038 C 43.751 96.742, 41.735 108.875, 41.438 113 L 40.897 120.500 42.897 117 C 43.997 115.075, 46.345 109.900, 48.115 105.500 C 49.885 101.100, 52.129 96.722, 53.102 95.771 C 55.852 93.084, 56.347 86.395, 54.563 76.055 C 52.771 65.670, 52.517 65, 50.382 65 C 49.557 65, 49.101 65.355, 49.369 65.788" stroke="none" fill="black" fill-rule="evenodd"/>
</svg>