<svg xmlns="http://www.w3.org/2000/svg" width="200" height="200" viewBox="0 0 200 200" version="1.1">
	<path d="M 141.258 15.750 C 138.022 18.913, 132.461 24.810, 128.900 28.856 L 122.426 36.212 115.607 34.106 C 106.459 31.280, 99.288 31.332, 94.952 34.253 C 90.147 37.491, 88.139 41.605, 86.977 50.593 C 85.615 61.121, 86.964 96.160, 88.755 96.754 C 89.743 97.081, 89.955 91.895, 89.755 72.335 C 89.473 44.910, 89.937 41.913, 95.143 37.533 C 99.074 34.225, 107.198 34.094, 116.615 37.185 L 123.272 39.371 126.781 35.435 C 140.102 20.497, 146.279 14, 147.163 14 C 148.237 14, 140.971 28.025, 135.506 36.500 C 132.457 41.228, 131.856 41.627, 124.461 43.830 C 111.221 47.774, 106.885 54.041, 110.932 63.384 C 112.151 66.198, 113.375 69.028, 113.651 69.673 C 113.928 70.318, 113.213 71.787, 112.062 72.938 C 107.781 77.219, 105.920 92.284, 108.411 102.500 C 109.613 107.430, 109.569 107.623, 105.268 116.325 L 100.905 125.149 94.203 124.540 C 90.516 124.206, 85.566 123.691, 83.202 123.397 L 78.904 122.863 81.453 120.858 C 84.095 118.780, 88.294 112.171, 89.464 108.250 C 90.756 103.918, 87.325 105.860, 85.571 110.453 C 83.759 115.197, 78.057 121.002, 75.215 120.996 C 66.957 120.978, 58.971 104.723, 59.024 88.040 C 59.045 81.303, 60.142 73.524, 61.224 72.443 C 61.443 72.224, 65.645 70.884, 70.561 69.466 C 79.608 66.856, 82.765 65.047, 81.592 63.148 C 81.237 62.574, 77.171 60.953, 72.557 59.546 C 63.133 56.671, 58.358 52.652, 59.595 48.636 C 60.866 44.511, 62.872 41.464, 66.862 37.601 L 70.889 33.703 68.873 29.752 C 65.721 23.573, 59.270 17.141, 55.518 16.437 C 49.020 15.218, 43.030 20.523, 37.381 32.500 C 33.850 39.987, 29 55.676, 29 59.612 C 29 61.068, 28.415 62, 27.500 62 C 25.564 62, 25.509 61.596, 28.978 72.844 C 37.910 101.810, 36.174 120.155, 23.896 126.545 C 21.950 127.558, 20.875 129.384, 19.646 133.766 C 17.141 142.693, 17.444 148.535, 20.575 151.666 C 22.809 153.900, 23.787 154.179, 27.980 153.776 C 36.868 152.922, 55.094 142.684, 69.533 130.435 L 75.846 125.080 81.673 126.034 C 84.878 126.559, 90.088 126.991, 93.250 126.994 C 96.451 126.997, 99 127.448, 99 128.010 C 99 129.434, 80.517 166.291, 76.273 173.329 C 73.758 177.501, 72.452 178.852, 71.679 178.079 C 69.863 176.263, 69 176.862, 69 179.941 C 69 183.201, 70.445 184.658, 72.294 183.261 C 72.957 182.760, 75.525 181.778, 78 181.078 C 84.639 179.200, 96.776 170.687, 111.857 157.330 C 119.203 150.824, 126.895 144.059, 128.950 142.298 L 132.686 139.095 139.593 149.246 C 148.058 161.686, 162.403 176.976, 167.962 179.483 C 172.873 181.697, 176.435 180.568, 178.123 176.262 C 179.461 172.847, 178.633 155.474, 176.804 148.596 L 175.500 143.691 164.500 140.793 C 153.159 137.805, 135 129.823, 135 127.827 C 135 126.699, 160.311 127.265, 171.098 128.634 L 175.696 129.217 177.348 125.088 C 178.257 122.818, 179 120.147, 179 119.154 C 179 115.803, 174.835 113.194, 167.500 111.948 C 157.319 110.219, 154.182 108.679, 152.464 104.568 C 150.616 100.146, 150.631 98.517, 152.596 89.879 C 153.647 85.255, 154.755 82.672, 155.846 82.301 C 167.681 78.272, 174.591 72.842, 173.123 68.723 C 170.422 61.147, 150.284 61.093, 137.250 68.628 C 134.912 69.979, 133 70.766, 133 70.376 C 133 69.348, 141.668 55.541, 146.912 48.218 C 149.385 44.762, 152.330 41.751, 153.455 41.525 C 154.580 41.299, 160 40.593, 165.500 39.957 C 171 39.320, 175.848 38.587, 176.273 38.327 C 177.496 37.578, 172.986 30.330, 170.452 28.974 C 166.602 26.914, 161.604 28.595, 155.789 33.909 C 151.713 37.633, 149.468 38.898, 146 39.424 C 143.525 39.800, 140.263 40.344, 138.752 40.633 L 136.004 41.158 140.653 33.329 C 153.702 11.355, 153.978 3.318, 141.258 15.750 M 47.471 22.160 C 41.334 27.548, 35.442 41.538, 32.021 58.845 C 30.229 67.909, 30.228 68.350, 32.003 73.509 C 37.452 89.346, 38.809 109.123, 35.032 117.660 C 32.627 123.097, 29.723 126.554, 25.879 128.554 C 24.027 129.518, 22.927 131.233, 22.129 134.402 C 20.650 140.274, 20.687 148.287, 22.200 149.800 C 25.476 153.076, 36.735 149.746, 49.500 141.725 C 60.882 134.573, 74.906 123, 72.190 123 C 70.007 123, 63.837 116.613, 61.429 111.859 C 58.239 105.564, 56.033 96.015, 56.015 88.417 C 55.997 81.209, 57.816 71.367, 59.386 70.170 C 59.999 69.704, 64.438 68.286, 69.250 67.019 C 74.063 65.752, 78 64.586, 78 64.428 C 78 64.270, 74.763 63.118, 70.807 61.870 C 61.447 58.916, 57 55.122, 57 50.092 C 57 46.222, 60.824 39.159, 64.849 35.595 C 67.718 33.055, 67.593 32.186, 63.537 26.481 C 57.696 18.265, 53.264 17.073, 47.471 22.160 M 159.417 34.547 L 155.500 38.095 163.500 37.458 C 167.900 37.108, 171.882 36.457, 172.350 36.011 C 173.750 34.675, 169.215 31, 166.167 31 C 164.324 31, 161.964 32.240, 159.417 34.547 M 139.613 43.054 C 136.926 43.505, 134.399 44.239, 133.997 44.687 C 132.442 46.421, 118 69.142, 118 69.854 C 118 70.742, 124.314 77, 125.210 77 C 125.548 77, 127.954 73.287, 130.556 68.750 C 133.158 64.213, 138.116 56.337, 141.573 51.250 C 148.315 41.329, 148.376 41.586, 139.613 43.054 M 123.009 46.961 C 116.842 49.089, 112 53.716, 112 57.482 C 112 59.984, 114.913 67.016, 115.935 66.980 C 116.463 66.962, 125.933 52.467, 128.782 47.317 C 130.315 44.546, 130.051 44.530, 123.009 46.961 M 145.224 67.923 C 134.690 71.809, 127.439 78.295, 123.095 87.717 L 120.689 92.934 122.842 100.217 C 124.026 104.223, 125.283 110.287, 125.634 113.694 C 126.139 118.585, 126.823 120.407, 128.887 122.355 C 131.471 124.795, 131.740 124.827, 152.789 125.158 C 176.033 125.523, 175.953 125.542, 175.985 119.725 C 176.003 116.467, 174.683 115.816, 164.500 114.061 C 156.133 112.619, 151.702 110.108, 149.917 105.799 C 148.185 101.618, 148.430 93.768, 150.517 86.591 C 152.003 81.479, 152.614 80.651, 155.848 79.375 C 169.442 74.008, 172.736 71.308, 169.563 68.133 C 166.983 65.552, 152.003 65.422, 145.224 67.923 M 114.965 73.542 C 113.585 75.205, 113.962 76.877, 117.764 85.977 L 119.222 89.466 121.533 84.983 L 123.844 80.500 120.172 76.515 C 118.152 74.324, 116.452 72.400, 116.393 72.241 C 116.333 72.082, 115.691 72.667, 114.965 73.542 M 110.130 91 C 110.168 95.125, 110.520 99.625, 110.911 101 L 111.623 103.500 112.858 101.229 C 113.827 99.448, 113.837 97.617, 112.906 92.729 C 111.089 83.188, 110.052 82.542, 110.130 91 M 115.031 89.500 C 115.031 90.600, 115.467 92.175, 116 93 C 116.803 94.242, 116.969 94.156, 116.969 92.500 C 116.969 91.400, 116.533 89.825, 116 89 C 115.197 87.758, 115.031 87.844, 115.031 89.500 M 117.573 97.883 C 116.979 98.843, 120.187 108.872, 122.003 111.731 C 122.931 113.193, 123.021 112.979, 122.521 110.500 C 121.552 105.696, 118.982 97, 118.531 97 C 118.304 97, 117.873 97.397, 117.573 97.883 M 114.028 105.105 C 113 107.305, 113.120 108.316, 114.799 111.605 C 116.919 115.758, 120.644 119.690, 121.576 118.757 C 121.886 118.447, 121.154 116.262, 119.950 113.902 C 118.745 111.541, 117.194 108.010, 116.502 106.055 L 115.244 102.500 114.028 105.105 M 107.224 118.500 L 104.019 125 115.518 125 C 126.697 125, 126.983 124.945, 125.790 123.036 C 124.978 121.735, 123.863 121.247, 122.488 121.592 C 119.957 122.228, 115.554 118.971, 113.454 114.912 C 112.626 113.310, 111.607 112, 111.189 112 C 110.771 112, 108.987 114.925, 107.224 118.500 M 91.814 149.379 C 85.790 161.413, 79.762 173, 78.419 175.129 C 77.075 177.258, 76.221 179, 76.521 179 C 76.821 179, 79.211 177.913, 81.831 176.585 C 89.008 172.949, 100.790 163.785, 117.854 148.568 C 126.299 141.037, 133.337 135.016, 133.493 135.188 C 133.650 135.359, 136.938 140.225, 140.800 146 C 155.078 167.347, 170.037 181.363, 174.151 177.249 C 175.754 175.646, 176.967 168.851, 176.427 164.500 C 176.154 162.300, 175.442 157.294, 174.845 153.375 L 173.760 146.251 162.630 143.093 C 150.451 139.638, 139.035 134.653, 133.322 130.297 C 129.727 127.555, 129.391 127.500, 116.210 127.500 L 102.766 127.500 91.814 149.379" stroke="none" fill="black" fill-rule="evenodd"/>
</svg>