<svg xmlns="http://www.w3.org/2000/svg" width="200" height="200" viewBox="0 0 200 200" version="1.1">
	<path d="M 88 11.045 C 80.575 11.525, 66.016 12.873, 55.646 14.041 C 45.276 15.209, 35.765 15.907, 34.510 15.592 C 33.130 15.245, 31.755 15.591, 31.028 16.466 C 29.399 18.429, 30.749 20.299, 33.312 19.629 C 35.213 19.132, 42.666 22.667, 41.717 23.616 C 41.504 23.829, 39.230 23.372, 36.664 22.599 C 34.097 21.827, 31.777 21.551, 31.508 21.986 C 31.239 22.422, 30.340 26.007, 29.510 29.954 C 27.542 39.310, 27.596 53.099, 29.666 69.388 C 32.433 91.162, 29.758 104.402, 17.438 129.899 C 13.878 137.268, 11.085 143.384, 11.232 143.489 C 11.379 143.593, 14.425 144.513, 18 145.533 C 27.565 148.260, 41.262 148.168, 46.500 145.342 C 58.879 138.662, 62.979 125.501, 62.993 92.402 L 63 75.304 67.073 73.467 C 72.350 71.087, 74.002 68.594, 73.990 63.027 C 73.974 55.574, 68.127 45.243, 57.631 34.123 L 53.500 29.746 56.500 30.462 C 70.063 33.699, 89.814 37.987, 91.191 37.993 C 93.947 38.005, 94.054 39.345, 91.919 47.050 C 89.925 54.244, 89.923 54.420, 91.778 56.937 C 92.818 58.347, 96.430 61.075, 99.807 63 C 103.184 64.925, 105.959 66.738, 105.973 67.029 C 105.988 67.319, 102.737 68.393, 98.750 69.414 C 83.331 73.363, 76.447 78.181, 79.076 83.183 C 79.745 84.457, 81.577 86.978, 83.147 88.785 C 87.332 93.603, 86.864 95.621, 80.555 99.962 C 77.256 102.232, 75.990 103.972, 74.675 108.042 C 72.310 115.367, 72.528 118.619, 75.592 121.683 C 78.139 124.230, 78.372 124.266, 89.092 123.757 C 95.091 123.473, 100 123.409, 100 123.614 C 100 123.820, 96.287 126.384, 91.750 129.312 C 82.651 135.184, 79.276 139.355, 75.528 149.357 C 71.603 159.829, 68.749 171.149, 69.775 172.175 C 70.367 172.767, 74.077 169.761, 79.726 164.112 C 88.758 155.080, 93.362 152.384, 95.092 155.115 C 95.575 155.877, 96.638 158.771, 97.454 161.546 C 100.144 170.697, 105.263 173.331, 114.232 170.179 L 119.795 168.224 120.352 171.012 C 121.891 178.704, 139.366 182.943, 157.500 180.022 C 172.854 177.549, 183.788 171.945, 187.330 164.734 C 189.494 160.330, 188.974 156.715, 185.426 151.487 C 183.121 148.090, 183.077 147.752, 184.562 144.880 C 187.817 138.586, 183.780 132.645, 169.844 123.222 C 161.044 117.271, 156.937 113.328, 157.638 111.502 C 158.406 109.500, 164.941 107.195, 174.644 105.503 C 179.384 104.676, 183.653 104, 184.131 104 C 184.609 104, 185 103.362, 185 102.582 C 185 101.721, 182.383 100.292, 178.344 98.948 C 169.890 96.135, 159 91.215, 159 90.209 C 159 89.785, 157.660 88.933, 156.022 88.314 C 154.384 87.696, 152.487 85.968, 151.806 84.473 C 150.670 81.981, 150.806 81.567, 153.440 79.466 C 155.020 78.206, 158.691 76.427, 161.597 75.513 C 165.333 74.338, 166.722 73.440, 166.341 72.447 C 165.821 71.092, 158.490 71.104, 147.250 72.477 C 145.463 72.696, 144 72.742, 144 72.579 C 144 72.417, 146.588 70.650, 149.750 68.653 C 156.485 64.399, 158.710 62.540, 161.759 58.615 C 165.872 53.321, 164.629 48.831, 156.687 40.302 L 153.709 37.104 155.895 32.022 C 157.954 27.236, 157.995 25, 156.023 25 C 154.552 25, 151 31.602, 151 34.334 C 151 35.763, 150.236 38.535, 149.302 40.493 L 147.604 44.054 141.552 43.444 C 138.223 43.108, 128.525 41.756, 120 40.440 C 94.713 36.536, 97 37.239, 97 33.369 C 97 29.459, 96.734 29.573, 101.346 31.500 C 107.946 34.258, 120.037 32.961, 129.924 28.435 C 139.953 23.843, 142.587 19.180, 137.439 15.131 C 132.336 11.117, 112.402 9.469, 88 11.045 M 90 13.613 C 77.867 14.460, 42.549 18.161, 41.721 18.672 C 40.109 19.669, 47.419 24.945, 52.500 26.453 C 55.250 27.269, 64.700 29.533, 73.500 31.484 C 82.300 33.435, 90.545 35.266, 91.822 35.553 C 94.079 36.060, 94.137 35.898, 93.890 29.848 C 93.621 23.253, 94.959 21.187, 97.013 25.024 C 99.744 30.127, 111.896 31.511, 123.232 28.010 C 131.077 25.587, 136.394 22.166, 136.812 19.273 C 137.328 15.701, 129.350 13.933, 111 13.551 C 102.475 13.374, 93.025 13.402, 90 13.613 M 32.169 30.750 C 29.984 42.265, 29.829 48.563, 31.411 61.500 C 32.286 68.650, 33.228 76.529, 33.503 79.008 C 34.832 90.954, 29.549 111.651, 20.344 130.568 C 17.686 136.030, 15.383 140.763, 15.228 141.083 C 14.665 142.243, 23.677 144.253, 31.707 144.759 C 39.120 145.227, 40.427 145.024, 45.207 142.665 C 51.378 139.621, 54.320 135.741, 57.225 126.814 C 58.969 121.456, 59.372 116.892, 59.890 96.655 L 60.500 72.810 64.259 71.520 C 69.066 69.870, 70.652 68.521, 71.430 65.422 C 72.996 59.185, 65.247 45.502, 53.817 34.319 C 48.427 29.046, 46.598 27.908, 41.356 26.569 C 37.976 25.706, 34.772 25, 34.236 25 C 33.699 25, 32.769 27.587, 32.169 30.750 M 96.542 40.357 C 96.370 40.986, 95.424 44.336, 94.440 47.803 L 92.651 54.106 95.076 56.501 C 96.409 57.819, 101.550 60.903, 106.500 63.355 C 111.744 65.953, 114.874 68.016, 114 68.299 C 113.175 68.565, 107.612 70.029, 101.638 71.551 C 90.127 74.484, 83.270 77.433, 81.628 80.156 C 80.853 81.440, 81.361 82.647, 83.881 85.517 C 90.243 92.763, 89.810 97.213, 82.258 102.211 C 78.204 104.893, 76 109.660, 76 115.744 C 76 120.806, 77.613 121.323, 91.703 120.781 L 104.377 120.292 107.696 116.396 C 109.521 114.253, 113.248 109.295, 115.979 105.377 L 120.944 98.254 116.385 97.740 C 110.863 97.118, 109.541 95.967, 110.402 92.534 C 110.987 90.204, 116.224 86.189, 127.402 79.500 C 128.322 78.950, 129.706 76.084, 130.478 73.131 C 132.530 65.283, 136.485 57.789, 141.545 52.161 C 143.995 49.436, 146 46.935, 146 46.603 C 146 46.271, 144.222 46, 142.048 46 C 137.454 46, 112.552 42.504, 103.238 40.552 C 98.528 39.565, 96.773 39.513, 96.542 40.357 M 151.573 41.769 C 151.187 42.986, 151.172 44.469, 151.540 45.065 C 151.908 45.661, 151.292 47.127, 150.170 48.324 C 149.048 49.521, 145.874 55.335, 143.116 61.244 L 138.102 71.988 142.301 69.872 C 149.743 66.122, 158.651 59.205, 160.225 55.954 C 162.229 51.816, 161.612 49.870, 156.509 44.233 C 152.515 39.822, 152.236 39.682, 151.573 41.769 M 139.618 59.002 C 136.851 63.182, 132.971 72.199, 133.040 74.287 C 133.062 74.954, 133.812 74.150, 134.707 72.500 C 137.089 68.109, 143.007 55, 142.608 55 C 142.420 55, 141.074 56.801, 139.618 59.002 M 139.309 75.719 C 136.456 76.076, 135.628 77.024, 131.497 84.664 C 128.956 89.364, 127.112 93.445, 127.400 93.733 C 127.688 94.021, 131.578 93.688, 136.046 92.993 C 145.654 91.498, 150.479 88.433, 149.099 84.698 C 148.011 81.753, 148.681 79.939, 151.850 77.255 L 154.500 75.010 148.500 75.165 C 145.200 75.250, 141.064 75.500, 139.309 75.719 M 124 84.674 C 116.718 88.969, 111.772 93.172, 112.796 94.196 C 113.305 94.705, 115.824 94.981, 118.393 94.810 C 122.996 94.505, 123.117 94.407, 126.523 88.250 C 128.425 84.813, 129.648 82.004, 129.240 82.009 C 128.833 82.015, 126.475 83.213, 124 84.674 M 150.692 93.043 C 148.048 93.487, 145.348 94.251, 144.692 94.740 C 137.049 100.439, 121.425 113.854, 118.637 117.111 L 115.073 121.275 120.787 123.987 C 127.692 127.264, 134.253 134.127, 137.718 141.696 L 140.257 147.241 134.129 152.701 C 130.139 156.254, 128 158.927, 128 160.357 C 128 161.566, 126.650 163.740, 124.999 165.188 C 121.101 168.609, 122.025 171.565, 128.044 174.933 C 131.690 176.973, 134.098 177.433, 142.947 177.776 C 169.286 178.797, 190.901 167.409, 184.878 155.684 C 184.261 154.483, 182.630 152.292, 181.254 150.816 L 178.752 148.131 180.876 145.431 C 185.329 139.770, 183.176 136.039, 170.173 126.878 C 156.116 116.976, 153.191 113.396, 155.800 109.289 C 156.997 107.405, 164.973 104.240, 170.500 103.455 C 173.250 103.065, 175.897 102.514, 176.383 102.231 C 176.869 101.949, 173.638 100.254, 169.204 98.465 C 164.770 96.677, 160.110 94.490, 158.849 93.607 C 157.587 92.723, 156.318 92.053, 156.027 92.118 C 155.737 92.182, 153.337 92.599, 150.692 93.043 M 131 96.278 C 124.515 97.252, 124.492 97.267, 121.096 102.778 C 119.223 105.816, 115.827 110.596, 113.549 113.401 C 107.645 120.670, 107.501 121, 110.225 121 C 111.775 121, 113.176 119.971, 114.363 117.962 C 115.350 116.292, 120.959 110.834, 126.829 105.833 C 140.038 94.579, 139.618 94.966, 138.450 95.151 C 137.928 95.233, 134.575 95.741, 131 96.278 M 102.525 125.172 C 100.906 126.452, 96.188 129.750, 92.041 132.500 C 83.295 138.299, 80.751 142.148, 76.007 156.762 C 74.353 161.856, 73 166.186, 73 166.384 C 73 166.582, 75.991 163.853, 79.647 160.321 C 91.067 149.288, 95.529 148.446, 98.579 156.748 C 102.439 167.257, 102.831 167.919, 105.601 168.615 C 107.307 169.043, 110.370 168.609, 113.750 167.460 C 118.078 165.989, 119.779 164.728, 122.215 161.187 C 125.190 156.863, 125.235 156.627, 124.060 151.376 C 123.397 148.417, 121.607 143.634, 120.082 140.748 C 112.812 126.993, 111.495 124.483, 111.427 124.260 C 111.387 124.129, 110.030 123.756, 108.411 123.432 C 106.230 122.996, 104.706 123.447, 102.525 125.172 M 115.017 125.750 C 115.026 126.162, 117.065 129.875, 119.549 134 C 123.631 140.781, 127 149.228, 127 152.682 C 127 154.736, 128.156 154.238, 132.902 150.135 L 137.304 146.330 134.502 141.182 C 132.961 138.350, 130.080 134.407, 128.100 132.419 C 123.242 127.541, 114.963 123.321, 115.017 125.750" stroke="none" fill="black" fill-rule="evenodd"/>
</svg>