<svg xmlns="http://www.w3.org/2000/svg" width="200" height="200" viewBox="0 0 200 200" version="1.1">
	<path d="M 88.564 18.250 C 88.303 19.488, 87.566 23.875, 86.926 28 C 84.492 43.684, 79.160 58.374, 74.791 61.434 C 71.740 63.571, 70.655 63.422, 67.028 60.370 C 59.722 54.222, 53.732 34.045, 55.854 22.731 C 56.902 17.146, 56.383 16.590, 50.976 17.504 C 37.787 19.732, 25.758 44.120, 25.577 69 C 25.504 78.941, 25.619 79.552, 27.732 80.479 C 30.654 81.761, 32.032 85.806, 32.679 95 C 33.331 104.261, 31.730 111.576, 24.973 130.220 C 18.388 148.387, 18.484 152.633, 25.548 155.585 C 32.187 158.358, 34.359 157.629, 50.923 147.067 C 68.921 135.590, 74 131.333, 74 127.725 C 74 126.324, 71.993 122.494, 69.446 119.034 C 63.825 111.398, 59.312 102.635, 56.903 94.678 C 55.103 88.735, 55.106 88.565, 57.041 85.433 C 60.454 79.911, 67.620 74, 70.901 74 C 77.620 74, 84.199 84.004, 90 103.041 L 93.189 113.508 82.574 129.413 C 67.100 152.597, 67.112 154.878, 82.669 148.028 C 94.909 142.639, 102.549 141.709, 108.718 144.856 C 112.490 146.780, 117.027 151.612, 116.981 153.654 C 116.970 154.119, 113.933 156.260, 110.231 158.410 C 84.627 173.286, 74.970 183, 85.787 183 C 90.693 183, 97.298 181.031, 113.334 174.789 L 126.169 169.793 129.477 173.405 C 137.799 182.491, 155.349 183.964, 169.464 176.763 C 177.758 172.532, 182 167.951, 182 163.224 C 182 158.036, 171.684 154.044, 158.198 154.016 L 150.896 154 156.698 149.170 C 166.854 140.714, 173 132.212, 173 126.617 C 173 123.199, 168.787 118.532, 163.958 116.600 C 161.731 115.709, 156.694 114.524, 152.765 113.967 C 148.835 113.409, 145.465 112.798, 145.275 112.609 C 144.555 111.888, 146.907 103.676, 148.033 102.980 C 148.682 102.579, 151.572 101.973, 154.455 101.634 C 165.873 100.292, 173.110 95.862, 175.001 89.057 C 177.116 81.443, 175.359 68.847, 170.054 53.593 C 168.924 50.345, 168 47.316, 168 46.864 C 168 46.411, 169.770 45.138, 171.934 44.034 C 179.246 40.304, 181.269 33.930, 176.365 30.073 C 170.704 25.620, 154.824 28.258, 140.173 36.086 C 136.143 38.238, 132.318 40.004, 131.673 40.008 C 131.028 40.013, 126.817 36.128, 122.316 31.376 C 116.932 25.692, 113.623 22.931, 112.645 23.306 C 110.763 24.028, 109.519 33.309, 110.462 39.598 C 111.049 43.511, 110.840 44.501, 109.077 46.143 C 106.487 48.556, 106.473 49.568, 109 51.732 C 110.315 52.858, 110.989 54.653, 110.968 56.972 C 110.938 60.369, 110.877 60.425, 109.351 58.500 C 106.059 54.349, 95.979 32.175, 93.785 24.258 C 91.532 16.131, 89.503 13.796, 88.564 18.250 M 46.790 22.256 C 40.098 26.308, 34.816 35.357, 30.978 49.349 C 27.122 63.402, 26.257 79.691, 29.510 76.992 C 31.114 75.660, 33.435 81.204, 35.134 90.423 C 37.112 101.160, 35.337 109.729, 25.591 136.500 C 21.033 149.017, 22.654 154, 31.282 154 C 34.370 154, 37.595 152.420, 47.809 145.904 C 65.214 134.802, 71 130.331, 71 127.984 C 71 126.911, 68.276 122.076, 64.947 117.239 C 60.667 111.022, 57.899 105.552, 55.499 98.571 C 51.583 87.176, 51.622 86.973, 59.461 78.254 C 69.901 66.643, 78.554 69.276, 86.526 86.487 C 88.822 91.444, 91.934 99.645, 93.441 104.710 L 96.182 113.920 85.091 130.542 C 78.991 139.684, 74 147.527, 74 147.972 C 74 148.416, 77.567 147.237, 81.928 145.352 C 100.533 137.308, 110.419 138.636, 118.250 150.229 C 119.763 152.469, 120.976 154.571, 120.946 154.900 C 120.916 155.230, 114.852 159.055, 107.469 163.399 C 100.087 167.744, 91.674 173.499, 88.774 176.188 L 83.500 181.076 87 180.423 C 92.696 179.359, 104.744 175.358, 116.444 170.645 L 127.388 166.236 130.104 169.985 C 133.234 174.306, 139.577 177.706, 146.199 178.614 C 159.932 180.496, 182.589 168.991, 178.408 162.259 C 176.174 158.663, 171.879 157.611, 157.130 157.048 L 142.760 156.500 147.425 153.155 C 159.798 144.286, 170 132.455, 170 126.979 C 170 121.715, 162.429 117.612, 150.455 116.385 C 144.737 115.799, 143.970 115.933, 143.381 117.614 C 134.025 144.328, 122.494 155.153, 116.890 142.484 C 114.436 136.937, 113.333 124.371, 112.457 92 L 111.794 67.500 107.970 61.500 C 102.806 53.397, 97.280 42.221, 93.508 32.255 L 90.388 24.010 89.093 31.755 C 86.205 49.017, 79.817 63.224, 74.291 64.674 C 70.070 65.781, 67.813 65.130, 64.336 61.802 C 58.078 55.813, 53 40.578, 53 27.790 C 53 19.036, 52.640 18.715, 46.790 22.256 M 113.009 34.375 L 113 43.250 116.250 42.561 C 118.037 42.181, 120.963 41.616, 122.750 41.305 C 124.537 40.993, 125.979 40.460, 125.954 40.119 C 125.928 39.779, 123.007 36.350, 119.462 32.500 L 113.017 25.500 113.009 34.375 M 158.720 31.516 C 151.928 33.221, 138 39.460, 138 40.797 C 138 41.307, 140.550 42.236, 143.667 42.862 C 150.937 44.322, 164 44.367, 164 42.933 C 164 42.329, 164.848 42.134, 165.950 42.484 C 168.481 43.288, 173.529 40.649, 175.648 37.414 C 177.222 35.012, 177.208 34.764, 175.393 32.948 C 172.791 30.347, 165.777 29.744, 158.720 31.516 M 120.144 44.573 C 117.198 45.365, 114.445 46.225, 114.028 46.483 C 112.715 47.294, 114.143 51.913, 115.860 52.412 C 124.997 55.068, 144.044 55.827, 153.052 53.895 C 156.186 53.223, 159.436 51.668, 161.351 49.925 L 164.500 47.059 156.910 47.029 C 152.692 47.013, 145.846 46.111, 141.500 45 C 132.407 42.674, 127.561 42.577, 120.144 44.573 M 162.748 52.523 C 158.966 55.800, 154.134 57.066, 143 57.698 C 134.714 58.169, 123.647 57.195, 116.250 55.346 C 114.122 54.814, 114 55.080, 114 60.264 C 114 65.490, 114.213 65.941, 118.560 69.949 C 122.798 73.855, 128.384 77, 131.084 77 C 131.716 77, 130.605 75.199, 128.616 72.997 C 124.764 68.733, 123.857 65, 126.673 65 C 128.609 65, 145 73.090, 145 74.046 C 145 74.397, 143.425 75.533, 141.500 76.570 C 139.575 77.607, 138.007 78.690, 138.015 78.977 C 138.049 80.128, 139.649 81.576, 142.500 83.036 C 146.103 84.880, 148.385 90.724, 147.669 96.278 L 147.183 100.056 150.841 99.458 C 163.113 97.452, 165.343 96.712, 168.869 93.479 L 172.500 90.149 172.479 80.325 C 172.462 72.528, 171.879 68.539, 169.653 61 C 168.111 55.775, 166.545 51.194, 166.174 50.820 C 165.803 50.445, 164.262 51.212, 162.748 52.523 M 131.155 72.043 C 134.330 75.994, 136.262 76.753, 138.896 75.086 C 140.306 74.193, 137.943 72.521, 130.737 69.315 L 127.975 68.086 131.155 72.043 M 114.827 80.847 C 115.030 86.706, 115.490 91.790, 115.848 92.145 C 116.207 92.500, 120.298 93.737, 124.940 94.895 C 134.046 97.166, 142.485 97.642, 143.535 95.943 C 144.515 94.357, 143.327 90.851, 140.715 87.624 C 138.434 84.806, 138.329 84.781, 135.444 86.387 C 133.825 87.288, 131.734 88.566, 130.798 89.227 C 129.862 89.888, 128.777 90.110, 128.387 89.721 C 127.368 88.701, 130.647 85.389, 134.088 83.963 C 137.934 82.371, 136.461 80.418, 130.692 79.460 C 125.588 78.612, 122.070 76.879, 117.742 73.078 L 114.457 70.194 114.827 80.847 M 115.331 98.582 C 115.687 100.737, 115.983 105.243, 115.989 108.595 L 116 114.690 120.045 110.843 C 125.111 106.023, 130.221 103.392, 138.070 101.561 C 141.443 100.774, 144.343 99.988, 144.513 99.815 C 144.683 99.642, 141.600 99.453, 137.661 99.395 C 131.480 99.304, 122.074 97.501, 116.374 95.313 C 114.904 94.749, 114.768 95.175, 115.331 98.582 M 137.024 104.603 C 131.096 106.196, 124.190 109.856, 121.920 112.606 C 120.592 114.216, 120.956 114.285, 127.500 113.671 C 131.350 113.310, 136.134 113.011, 138.131 113.007 C 141.592 113, 141.815 112.791, 142.881 108.557 C 143.497 106.114, 144 103.864, 144 103.557 C 144 102.804, 143.366 102.899, 137.024 104.603 M 125 116.656 C 123.625 116.867, 120.975 117.288, 119.112 117.591 L 115.724 118.142 116.391 126.134 C 117.305 137.092, 119.803 144.401, 122.780 144.823 C 126.947 145.415, 133.282 136.458, 138.497 122.605 L 140.983 116 134.241 116.136 C 130.534 116.211, 126.375 116.445, 125 116.656" stroke="none" fill="black" fill-rule="evenodd"/>
</svg>