<svg xmlns="http://www.w3.org/2000/svg" width="200" height="200" viewBox="0 0 200 200" version="1.1">
	<path d="M 96.917 16.415 C 96.688 16.644, 81.729 16.956, 63.675 17.110 C 38.993 17.320, 30.435 17.705, 29.175 18.663 C 27.610 19.853, 27.610 19.938, 29.173 19.968 C 30.094 19.986, 32.275 21.202, 34.021 22.671 L 37.195 25.342 34.348 26.793 C 24.472 31.823, 21.866 40.067, 26.017 53.145 C 28.529 61.057, 30.472 64.663, 31.409 63.148 C 31.790 62.531, 30.954 58.843, 29.551 54.953 C 26.586 46.732, 26.244 39.088, 28.660 34.999 C 30.359 32.122, 36.598 28, 39.253 28 C 41.736 28, 55.278 43.088, 59 50 C 62.410 56.333, 62.498 56.782, 62.440 67.500 C 62.377 79.224, 62.869 77.343, 53.409 102.031 C 51.147 107.936, 52.002 111.457, 56.043 112.865 C 59.691 114.137, 63.590 113.482, 81.243 108.635 C 91.555 105.803, 94.607 105.318, 97.243 106.092 C 100.604 107.079, 107.192 106.454, 110.227 104.861 C 111.383 104.254, 113.203 104.497, 115.727 105.596 L 119.500 107.237 116.500 108.125 C 114.850 108.613, 106.075 109.709, 97 110.561 C 87.925 111.412, 78.548 112.343, 76.162 112.629 L 71.823 113.149 81.495 119.825 C 86.815 123.496, 91.783 126.934, 92.536 127.465 C 94.328 128.728, 95.714 127.314, 94.183 125.783 C 92.375 123.975, 92.773 119.515, 94.916 117.576 C 97.527 115.214, 107.077 112.412, 115.264 111.607 C 121.884 110.956, 122.048 110.996, 123.014 113.536 C 124.605 117.722, 124.229 122.808, 122.250 123.861 C 121.288 124.373, 113.123 127.766, 104.106 131.401 C 95.090 135.036, 87.117 138.796, 86.388 139.755 C 80.426 147.608, 95.829 165.936, 102.070 158.416 C 102.793 157.545, 103.385 154.620, 103.385 151.916 L 103.385 147 106.942 146.991 C 108.899 146.987, 112.930 146.691, 115.901 146.334 L 121.302 145.686 120.759 154.376 C 119.522 174.213, 109.146 183.136, 92.632 178.565 C 68.683 171.936, 58.176 146.847, 71.993 129.281 C 73.221 127.720, 73.692 126.292, 73.155 125.755 C 72.617 125.217, 68.303 127.938, 62.505 132.471 C 49.401 142.714, 42.082 147.599, 34.575 151.112 C 22.642 156.696, 22.247 154.509, 29.484 123 C 33.686 104.711, 34.605 90.867, 32.108 83.500 C 29.648 76.242, 23.611 69.945, 17.689 68.458 C 13.675 67.451, 14.349 69.625, 18.750 71.882 C 32.450 78.908, 34.056 92.299, 25.484 128.037 C 21.599 144.230, 21.076 151.933, 23.681 154.538 C 27.759 158.616, 38.129 154.190, 56.340 140.598 C 61.203 136.969, 65.312 134, 65.473 134 C 65.634 134, 65.103 135.912, 64.293 138.250 C 62.209 144.259, 62.949 154.252, 65.931 160.381 C 72.801 174.502, 92.472 185.311, 105.223 181.971 C 114.312 179.590, 117.406 176.258, 122.840 163 C 123.840 160.559, 123.866 160.554, 123.932 162.761 C 124.051 166.738, 128.045 173.787, 132.512 177.904 C 137.853 182.827, 146.058 185.509, 153.194 184.663 C 171.927 182.445, 186 164.919, 186 143.810 C 186 138.376, 184.842 130.964, 181.403 114.398 C 179.674 106.063, 174.521 94.802, 170.169 89.845 L 167.093 86.342 168.557 81.477 C 173.130 66.281, 172.086 29, 167.087 29 C 163.873 29, 162.403 37.846, 161.402 63.212 L 160.703 80.925 157.915 78.940 C 152.781 75.284, 142.602 71.101, 130.500 67.675 C 123.900 65.806, 118.725 63.882, 119 63.399 C 119.275 62.916, 123.325 59.331, 128 55.432 C 138.431 46.733, 148 36.510, 148 34.065 C 148 28.712, 139.071 28.806, 122.941 34.329 L 112.587 37.873 100.544 33.850 C 93.920 31.636, 88.311 29.638, 88.079 29.409 C 87.848 29.180, 88.638 27.950, 89.834 26.677 C 91.690 24.701, 93.072 24.342, 99.254 24.228 C 108.351 24.059, 134.321 22.269, 147.500 20.901 C 157.714 19.841, 160.737 18.709, 157.992 16.974 C 156.567 16.073, 97.799 15.535, 96.917 16.415 M 59.643 19.973 C 36.406 20.486, 35.839 20.548, 37.817 22.336 C 39.526 23.882, 41.880 24.216, 52.674 24.445 C 61.276 24.627, 68.600 25.419, 74.912 26.849 L 84.324 28.982 87.827 24.890 C 90.987 21.197, 91.680 20.848, 94.915 21.315 C 96.887 21.600, 105.925 21.260, 115 20.559 L 131.500 19.284 107.500 19.365 C 94.300 19.409, 72.764 19.683, 59.643 19.973 M 50.751 34.441 C 67.900 52.803, 69.967 67.906, 59.053 95.108 C 54.249 107.083, 53.986 109.707, 57.500 110.589 C 58.875 110.934, 61.237 110.935, 62.750 110.590 C 67.425 109.525, 89.480 103.667, 89.850 103.392 C 90.043 103.249, 88.804 101.394, 87.096 99.269 C 78.046 88.007, 75.572 58.405, 81.965 37.865 C 83.313 33.534, 83.507 31.755, 82.665 31.451 C 77.942 29.744, 64.622 27.725, 55.011 27.258 L 43.522 26.700 50.751 34.441 M 137.065 33.089 C 134.626 33.567, 129.095 35.136, 124.773 36.576 C 118.315 38.726, 117.121 39.441, 118.070 40.584 C 118.969 41.668, 118.860 42.116, 117.578 42.608 C 115.548 43.387, 106.843 41.064, 107.543 39.930 C 108.042 39.123, 90.356 33, 87.527 33 C 85.042 33, 82.191 45.836, 81.418 60.500 C 80.510 77.710, 83.536 90.986, 90.061 98.417 L 93.127 101.909 103.313 101.346 C 112.821 100.821, 113.867 100.548, 119 97.242 C 122.025 95.294, 127.013 91.538, 130.085 88.894 L 135.670 84.088 140.085 88.624 C 146.102 94.807, 148.978 96.180, 154.230 95.379 C 160.002 94.498, 161 93.481, 161 88.482 C 161 84.478, 160.700 84.016, 156.247 81.158 C 148.772 76.362, 140.897 73.240, 127.071 69.593 L 114.264 66.215 111.382 68.571 C 108.575 70.867, 104.300 71.941, 105.464 70.059 C 105.784 69.541, 110.648 65.560, 116.273 61.213 C 136.491 45.588, 146.263 35.853, 144.536 33.059 C 143.800 31.867, 143.286 31.869, 137.065 33.089 M 165.644 38.687 C 164.351 48.556, 163.641 84.340, 164.752 83.654 C 167.905 81.704, 170.279 37.878, 167.387 34.987 C 166.570 34.170, 166.107 35.153, 165.644 38.687 M 131.375 91.407 C 129.244 93.229, 124.838 96.582, 121.584 98.860 C 118.331 101.137, 116.159 103, 116.757 103 C 117.356 103, 119.163 104.108, 120.772 105.462 C 124.565 108.653, 130.021 107.982, 134.935 103.717 C 136.824 102.078, 140.043 99.987, 142.090 99.071 L 145.810 97.406 140.530 92.750 L 135.249 88.095 131.375 91.407 M 164.407 92.513 C 164.040 93.976, 164.307 95.665, 165.046 96.555 C 166.007 97.714, 166.034 98.366, 165.158 99.242 C 164.521 99.879, 164 102.833, 164 105.807 C 164 110.313, 164.262 111.113, 165.572 110.611 C 167.561 109.848, 171 111.635, 171 113.432 C 171 114.180, 169.369 116.225, 167.375 117.975 L 163.751 121.158 164.479 142.079 C 165.300 165.640, 165.977 163.832, 157.048 161.917 C 151.011 160.622, 149 158.225, 149 152.324 C 149 148.288, 148.828 148.046, 145.250 147.053 C 143.188 146.480, 137.959 146.009, 133.631 146.006 L 125.761 146 126.168 155.294 C 126.522 163.394, 126.969 165.290, 129.643 170.044 C 131.776 173.836, 134.181 176.415, 137.528 178.500 C 141.854 181.195, 143.165 181.498, 150.422 181.481 C 159.978 181.458, 165.831 178.923, 172.699 171.834 C 179.143 165.183, 182.305 157.309, 182.825 146.618 C 183.242 138.041, 182.743 134.272, 178.472 113.789 C 177.001 106.732, 173.430 98.704, 169.337 93.250 C 166.406 89.345, 165.246 89.171, 164.407 92.513 M 153 98.953 C 147.250 99.643, 141.890 101.659, 138.500 104.409 C 136.569 105.974, 136.604 106.009, 139.500 105.411 C 144.858 104.304, 154.421 101.926, 157.750 100.873 C 160.857 99.890, 162.361 97.840, 159.750 98.147 C 159.063 98.228, 156.025 98.591, 153 98.953 M 153 105.041 C 149.975 106.051, 148.101 106.905, 148.837 106.939 C 149.696 106.978, 149.076 108.492, 147.099 111.180 C 145.409 113.478, 144.133 115.467, 144.265 115.598 C 144.396 115.729, 148.103 114.801, 152.502 113.536 L 160.500 111.234 160.807 107.117 C 161.161 102.389, 161.041 102.357, 153 105.041 M 125.393 111.582 C 125.727 112.452, 126.007 113.464, 126.015 113.832 C 126.036 114.726, 127.965 111.707, 127.985 110.750 C 127.993 110.338, 127.277 110, 126.393 110 C 125.338 110, 124.995 110.544, 125.393 111.582 M 129.965 113.250 C 127.828 116.711, 126.468 120.802, 127.208 121.541 C 127.454 121.788, 130.410 120.987, 133.775 119.761 C 138.767 117.943, 140.285 116.838, 142.011 113.766 L 144.128 110 138.049 110 C 132.269 110, 131.872 110.160, 129.965 113.250 M 164 115.155 C 164 117.247, 164.059 117.257, 166 115.500 C 167.100 114.505, 168 113.535, 168 113.345 C 168 113.155, 167.100 113, 166 113 C 164.619 113, 164 113.667, 164 115.155 M 83.171 114.729 L 79.843 115.138 84.625 118.538 L 89.407 121.938 90.613 119.069 C 91.276 117.492, 92.647 115.719, 93.660 115.131 C 95.148 114.265, 94.640 114.086, 91 114.190 C 88.525 114.262, 85.002 114.504, 83.171 114.729 M 154.500 115.603 C 144.273 118.597, 141.219 120.056, 140.654 122.216 C 140.347 123.388, 140.326 124.719, 140.607 125.174 C 141.673 126.898, 147.591 125.885, 154.170 122.852 C 160.278 120.037, 161 119.402, 161 116.852 C 161 113.608, 161.190 113.644, 154.500 115.603 M 132.250 123.172 C 127.285 125.033, 126.991 125.340, 126.842 128.820 C 126.756 130.844, 126.755 133.175, 126.842 134 C 126.928 134.825, 127.051 137.124, 127.115 139.110 L 127.232 142.720 136.784 143.290 C 148.840 144.009, 151.357 145.527, 151.805 152.345 C 152.133 157.350, 153.004 158.227, 158.909 159.496 L 162.317 160.229 161.718 142.007 C 161.388 131.985, 160.945 123.611, 160.732 123.399 C 160.520 123.187, 157.963 124.163, 155.050 125.568 C 148.547 128.706, 140.922 129.817, 139.305 127.864 C 138.685 127.114, 138.025 125.308, 137.838 123.852 L 137.500 121.204 132.250 123.172 M 105 133.925 C 87.462 141.105, 86.918 141.553, 88.432 147.583 C 89.213 150.695, 94.453 156.624, 97.015 157.294 C 99.827 158.029, 101.369 154.711, 100.651 149.468 C 100.089 145.371, 100.169 145.216, 103.160 144.618 C 104.860 144.278, 108.106 143.995, 110.375 143.989 C 112.644 143.983, 116.162 143.703, 118.193 143.367 C 121.746 142.780, 121.918 142.562, 122.718 137.628 C 123.571 132.371, 123.271 126.933, 122.137 127.085 C 121.786 127.132, 114.075 130.210, 105 133.925" stroke="none" fill="black" fill-rule="evenodd"/>
</svg>