<svg xmlns="http://www.w3.org/2000/svg" width="200" height="200" viewBox="0 0 200 200" version="1.1">
	<path d="M 131 6.780 C 131 10.051, 130.553 15.083, 130.007 17.963 C 127.077 33.411, 119.958 35.591, 103.917 25.950 C 99.387 23.228, 95.250 21, 94.724 21 C 93.759 21, 94.123 24.026, 95.475 27.242 C 96.161 28.872, 95.935 28.888, 91.978 27.492 C 83.211 24.399, 76.820 26.639, 72.808 34.211 C 70.826 37.951, 70.515 40.100, 70.383 51 C 70.240 62.804, 70.116 63.517, 68.167 63.813 C 62.680 64.644, 58.767 58.274, 52.125 37.691 C 49.851 30.647, 47.348 23.639, 46.561 22.119 C 43.274 15.762, 39.467 15.716, 35.510 21.984 C 33.053 25.877, 26.854 42.644, 25.522 49 C 25.119 50.925, 24.120 53.942, 23.302 55.705 C 21.954 58.610, 22.008 59.778, 23.875 68.205 C 25.008 73.317, 26.476 80.425, 27.138 84 C 28.789 92.919, 28.781 114.211, 27.124 121 C 24.712 130.882, 19.352 140.666, 12.835 147.083 C 5.673 154.135, 5.653 154.129, 23.874 150.453 C 38.341 147.534, 48.723 143.218, 53.002 138.345 C 57.740 132.948, 58.473 128.455, 57.053 113.500 C 56.375 106.350, 55.587 94.425, 55.303 87 L 54.786 73.500 59.295 77.862 C 64.623 83.017, 68.298 89.412, 70.620 97.575 C 72.010 102.463, 72.383 109.669, 72.749 138.753 L 73.192 174.006 75.698 175.977 C 78.928 178.518, 84.502 179.548, 87.536 178.166 C 88.846 177.569, 90.785 175.374, 91.844 173.290 C 96.137 164.838, 96.517 159.811, 96.199 115.695 L 95.897 73.890 99.699 74.574 C 105.410 75.602, 108.824 78.005, 111.021 82.544 C 113.900 88.490, 113.522 95.749, 109.507 111.659 C 107.585 119.271, 106.010 126.795, 106.007 128.378 C 106.003 129.961, 107.411 133.722, 109.135 136.735 C 112.013 141.766, 112.221 142.730, 111.679 148.531 C 111.004 155.760, 106.155 169.375, 98.370 185.897 C 95.416 192.165, 93 197.453, 93 197.647 C 93 197.841, 93.638 198, 94.417 198 C 95.196 198, 98.894 194.063, 102.633 189.250 C 111.671 177.618, 123.670 165.822, 129.174 163.158 C 136.579 159.573, 139.484 160.160, 150.371 167.439 C 161.843 175.109, 165.971 176.117, 175.427 173.557 C 178.870 172.625, 183.402 170.828, 185.498 169.563 L 189.308 167.263 183.904 165.522 C 169.076 160.743, 159 153.877, 159 148.551 C 159 146.286, 163.185 141.935, 171.393 135.666 C 177.296 131.158, 175.227 130.008, 161.128 129.960 L 149.500 129.920 155.500 126.890 C 170.025 119.554, 171.083 114.349, 159.414 107.638 C 155.886 105.609, 153 103.559, 153 103.083 C 153 101.587, 160.706 99.051, 172.057 96.811 C 183.580 94.538, 186.198 92.602, 179.250 91.491 C 171.215 90.208, 161.987 88.021, 158.560 86.590 C 150.823 83.357, 152.732 79.558, 167.730 68.349 C 173.928 63.717, 179 59.568, 179 59.130 C 179 57.469, 177.775 57.256, 174.320 58.317 C 171.099 59.305, 170.569 59.186, 168.876 57.095 C 166.548 54.220, 166.480 49.380, 168.594 37.071 C 169.805 30.025, 169.909 27.513, 169.027 26.644 C 167.603 25.241, 166.376 26.758, 161.198 36.319 L 157.505 43.138 156.344 33.256 C 154.528 17.798, 151.337 12.504, 147.429 18.468 C 146.539 19.826, 143.802 27.803, 141.346 36.195 C 138.890 44.587, 136.683 51.651, 136.440 51.893 C 134.975 53.358, 134.498 48.298, 134.027 26.275 C 133.633 7.856, 133.185 1.558, 132.250 1.248 C 131.344 0.947, 131 2.468, 131 6.780 M 149.227 20.590 C 148.668 21.641, 146.114 29.700, 143.551 38.500 C 138.506 55.821, 137.079 58.508, 134.365 55.794 C 133.150 54.579, 132.443 50.716, 131.615 40.765 L 130.500 27.371 128.193 30.163 C 124.683 34.410, 119.394 35.624, 113.268 33.589 C 110.530 32.680, 106.184 30.600, 103.610 28.968 C 101.036 27.336, 98.700 26, 98.417 26 C 97.493 26, 103.721 34.440, 106.535 37 C 109.765 39.939, 115 47.811, 115 49.728 C 115 50.463, 117.534 54.681, 120.631 59.101 C 124.489 64.606, 125.939 67.461, 125.234 68.166 C 124.530 68.870, 122.857 67.207, 119.923 62.887 C 117.567 59.418, 115.475 57.076, 115.272 57.683 C 114.330 60.511, 134.552 86, 137.737 86 C 139.785 86, 141 81.507, 141 73.935 C 141 68.172, 141.277 67, 142.641 67 C 144.075 67, 144.215 68.072, 143.751 75.507 C 143.166 84.883, 141.343 89, 137.776 89 C 134.824 89, 125.924 79.636, 118.636 68.863 C 112.829 60.279, 112.777 60.234, 110.146 61.607 C 108.691 62.366, 104.961 62.990, 101.857 62.994 C 95.196 63.001, 95.418 63.347, 93.788 50.440 C 92.890 43.333, 92.889 40.538, 93.785 38.572 C 94.430 37.157, 95.382 36, 95.902 36 C 97.863 36, 102.955 41.245, 107.619 48.071 C 110.277 51.961, 112.611 54.666, 112.806 54.081 C 113.001 53.496, 110.244 48.833, 106.678 43.719 C 101.098 35.715, 99.425 34.043, 94.661 31.710 C 87.143 28.029, 81.774 28.072, 78.004 31.842 C 73.937 35.909, 72.701 41.673, 73.211 54.202 L 73.646 64.904 70.842 66.065 C 62.379 69.571, 57.072 62.551, 49.147 37.370 C 44.961 24.071, 42.308 19.073, 40.143 20.412 C 38.246 21.584, 34.516 29.766, 31.213 40 C 25.494 57.715, 24.850 60.721, 25.906 64.769 C 35.034 99.787, 32.652 127.398, 19.030 144.476 C 17.286 146.663, 16.279 148.593, 16.794 148.765 C 18.709 149.403, 36.441 144.945, 41.868 142.460 C 55.305 136.308, 56.551 132.137, 53.509 103.500 C 52.691 95.800, 52.017 84.872, 52.011 79.215 C 52.001 69.557, 52.112 68.989, 53.829 69.909 C 58.314 72.309, 65.921 80.375, 68.808 85.790 C 74.848 97.123, 75.432 101.777, 75.468 138.828 L 75.500 172.157 78.225 174.144 C 79.966 175.413, 82.132 176.017, 84.225 175.815 C 86.992 175.549, 87.841 174.802, 89.699 171 C 93.592 163.031, 94.275 152.662, 93.520 113 C 93.138 92.925, 93.141 75.252, 93.527 73.726 C 94.173 71.172, 94.516 71, 97.864 71.560 C 104.828 72.725, 107.919 74.144, 110.908 77.548 C 116.891 84.362, 117.261 93.451, 112.300 111.746 C 108.341 126.350, 108.216 130.217, 111.545 135.248 C 113.055 137.529, 114.500 141.255, 114.756 143.528 C 115.309 148.438, 112.348 160.545, 108.159 170.500 C 106.539 174.350, 104.456 179.300, 103.530 181.500 L 101.846 185.500 106.616 180 C 122.387 161.813, 133.163 155.535, 142.157 159.292 C 144.087 160.099, 148.445 162.804, 151.842 165.305 C 155.238 167.805, 159.653 170.390, 161.652 171.050 C 165.910 172.455, 173.996 171.804, 179 169.654 C 182.081 168.329, 182.261 168.066, 180.500 167.453 C 173.520 165.020, 161.823 158.578, 159.609 155.947 C 154.207 149.527, 155.270 145.220, 164 138.154 C 167.025 135.706, 169.665 133.275, 169.866 132.752 C 170.214 131.850, 167.469 131.946, 144.750 133.633 C 138.337 134.109, 137 133.955, 137 132.738 C 137 131.841, 139.437 130.392, 143.250 129.021 C 151.968 125.887, 162.902 120.052, 164.040 117.926 C 165.539 115.124, 164.446 113.769, 157.237 109.495 C 151.798 106.270, 150.500 105.021, 150.500 103.013 C 150.500 99.929, 153.368 98.442, 165 95.497 C 173.499 93.345, 173.499 93.345, 169.500 92.623 C 158.490 90.638, 151 86.347, 151 82.025 C 151 79.311, 157.906 71.895, 165.194 66.783 C 168.387 64.543, 171 62.432, 171 62.092 C 171 61.752, 169.988 61.030, 168.750 60.487 C 164.414 58.585, 163.453 51.408, 165.603 37 C 166.023 34.184, 165.089 35.357, 160.825 43 L 155.526 52.500 154.790 45 C 153.464 31.489, 152.048 21.908, 151.137 20.280 C 150.341 18.857, 150.129 18.892, 149.227 20.590 M 96.341 47 C 97.271 59.793, 97.376 60, 102.926 60 C 105.506 60, 108.373 59.438, 109.297 58.750 C 110.818 57.618, 110.515 56.840, 106.083 50.500 C 103.391 46.650, 99.959 42.375, 98.455 41 L 95.722 38.500 96.341 47" stroke="none" fill="black" fill-rule="evenodd"/>
</svg>