<svg xmlns="http://www.w3.org/2000/svg" width="200" height="200" viewBox="0 0 200 200" version="1.1">
	<path d="M 102.007 21.990 C 98.737 26.582, 98.359 31.248, 100.906 35.565 L 103.060 39.215 99.280 36.222 C 91.070 29.720, 81.588 26.544, 77.276 28.852 C 76.170 29.444, 75.004 31.232, 74.685 32.825 C 73.453 38.984, 60.379 41.595, 35.826 40.588 C 24.913 40.140, 19.947 40.277, 19.476 41.039 C 19.104 41.641, 19.010 42.343, 19.267 42.600 C 20.598 43.932, 46.493 48, 53.636 48 C 65.807 48, 67.417 50.590, 61.307 60.333 C 55.521 69.558, 34.615 88.049, 20.939 96.036 C 17.097 98.280, 14.215 100.539, 14.536 101.058 C 15.431 102.506, 16.709 102.209, 20.856 99.591 C 29.678 94.022, 46.698 90.885, 57.320 92.870 C 67.758 94.821, 71.964 98.172, 68.617 101.871 C 65.583 105.223, 60.051 107.254, 46.573 109.962 C 39.464 111.391, 33.498 113.005, 33.317 113.550 C 33.106 114.181, 39.798 114.534, 51.743 114.523 C 69.512 114.506, 70.813 114.636, 76.450 117.002 C 83.910 120.134, 86.655 124.071, 85.318 129.723 C 83.940 135.552, 80.549 136.195, 48.286 136.745 C 27.326 137.103, 20.818 137.514, 19.969 138.538 C 18.309 140.537, 21.924 142.419, 33.363 145.510 L 43.226 148.175 51.159 144.549 C 60.354 140.346, 67.014 138.857, 71.222 140.064 C 77.619 141.898, 79.105 144.731, 82.427 161.427 C 86.310 180.937, 89.783 185.500, 100.750 185.500 L 107 185.500 107.344 175.500 C 107.935 158.345, 113.473 149.989, 126.608 146.433 C 132.194 144.921, 135.833 144.771, 153.502 145.320 L 173.936 145.956 175.468 140.796 C 177.399 134.292, 177.395 132.008, 175.443 129.223 C 173.021 125.764, 167.238 126.350, 151.400 131.660 C 138.592 135.954, 136.688 136.327, 127.166 136.410 C 117.543 136.494, 116.703 136.342, 114.970 134.207 C 112.589 131.273, 111.443 123.910, 112.933 121.125 C 115.507 116.315, 119.071 115.548, 141.500 114.978 C 153.050 114.684, 163.291 114.069, 164.259 113.611 C 168.051 111.817, 167.291 104.383, 162.909 100.417 C 161.859 99.467, 161 98.231, 161 97.671 C 161 97.110, 162.035 97.624, 163.301 98.813 L 165.601 100.974 170.206 96.237 C 177.077 89.169, 180 84.308, 180 79.949 C 180 74.533, 176.156 71.706, 163.683 67.950 C 145.977 62.617, 138.683 59.921, 132.084 56.268 C 126.412 53.128, 125.866 52.571, 127.379 51.465 C 129.618 49.828, 134.526 49.222, 151.500 48.488 C 172.922 47.561, 180 45.527, 180 40.299 C 180 38.173, 169.697 28.125, 165 25.672 L 161.500 23.843 156.404 28.776 C 145.578 39.256, 126.834 43.812, 112.300 39.496 L 107.236 37.993 108.695 33.758 C 110.304 29.089, 109.909 25.316, 107.411 21.504 C 105.304 18.289, 104.597 18.352, 102.007 21.990 M 103.161 25.547 C 101.603 28.966, 101.698 32.206, 103.425 34.559 C 104.800 36.431, 104.889 36.400, 105.925 33.685 C 107.138 30.508, 107.243 28.510, 106.370 25.250 C 105.583 22.313, 104.592 22.404, 103.161 25.547 M 159.437 30.066 C 155.378 34.303, 148.358 38.620, 141.419 41.147 C 133.620 43.987, 115.514 44.353, 109.772 41.787 C 104.590 39.471, 104.343 40.962, 109.143 45.587 C 114.635 50.880, 137 77.594, 137 78.861 C 137 79.437, 135.596 79.666, 133.750 79.391 C 129.399 78.745, 127.533 80.125, 111.546 95.808 C 98.270 108.833, 94.379 111.389, 91.487 108.989 C 89.478 107.322, 89.489 101, 91.500 101 C 92.500 101, 93 102, 93 104 C 93 106.067, 93.491 107, 94.580 107 C 95.448 107, 102.536 100.766, 110.330 93.146 C 118.123 85.527, 125.963 78.540, 127.750 77.621 C 129.537 76.701, 131 75.704, 131 75.405 C 131 74.468, 112.404 52.718, 107.686 48.136 C 103.572 44.141, 103.107 43.930, 102.186 45.636 C 101.633 46.661, 97.076 52.225, 92.059 58 C 73.574 79.277, 72.620 83.944, 86.250 86.412 C 90.995 87.271, 91.140 89, 86.468 89 C 81.859 89, 76.441 86.693, 75.080 84.150 C 72.202 78.772, 74.557 74.301, 89.380 57 C 95.741 49.575, 100.958 42.975, 100.973 42.334 C 101.006 40.905, 94.905 36.002, 89.515 33.126 C 84.403 30.399, 78 30.224, 78 32.813 C 78 35.765, 72.894 39.725, 67 41.345 C 63.975 42.176, 57.082 43.157, 51.682 43.526 C 46.282 43.895, 42.092 44.425, 42.371 44.705 C 42.650 44.984, 46.920 45.158, 51.860 45.091 C 61.701 44.959, 65.227 46.007, 66.839 49.545 C 68.234 52.607, 67.017 56.654, 62.885 62.696 C 59.174 68.122, 46.115 81.172, 38.862 86.703 C 36.212 88.724, 34.183 90.516, 34.352 90.686 C 34.522 90.855, 38.027 90.567, 42.141 90.046 C 50.301 89.011, 60.741 90.029, 66.456 92.417 C 70.627 94.160, 73.414 98.121, 72.498 101.006 C 71.655 103.661, 64.840 108.657, 60.871 109.528 C 59.213 109.892, 58.041 110.374, 58.266 110.599 C 58.491 110.824, 62.154 111.449, 66.408 111.988 C 75.353 113.122, 81.928 115.740, 85.493 119.587 C 87.433 121.680, 88 123.360, 88 127.011 C 88 133.189, 85.281 136.772, 79.944 137.625 L 76.033 138.250 78.426 141.094 C 81.360 144.582, 83.386 150.711, 85.501 162.500 C 88.261 177.890, 92.055 183.006, 100.700 182.995 L 104.500 182.991 104.663 174.976 C 104.894 163.635, 107.341 156.583, 113.019 150.894 C 120.537 143.362, 124.386 142.500, 150.500 142.500 L 172.500 142.500 173.435 137.655 C 175.306 127.964, 172.172 127.543, 150.630 134.591 C 133.887 140.069, 123.662 141.288, 116.714 138.635 C 112.188 136.907, 110.837 134.718, 109.527 127 C 108.700 122.125, 111.482 117.164, 116.500 114.569 C 120.076 112.719, 122.565 112.471, 140 112.223 C 150.725 112.070, 160.512 111.724, 161.750 111.454 C 165.173 110.705, 164.579 106.911, 160.166 101.340 C 153.666 93.134, 154.234 93.202, 145.357 99.574 C 135.523 106.633, 128.950 110, 125.002 110 C 116.307 110, 123.007 97.507, 134.633 92.042 C 143.879 87.696, 152.738 88.337, 161.095 93.955 L 165.500 96.917 169.772 92.729 C 172.122 90.425, 174.979 86.609, 176.122 84.247 C 178.091 80.181, 178.112 79.820, 176.522 77.394 C 174.482 74.280, 171.861 73.146, 155.917 68.475 C 143.604 64.868, 129.809 58.886, 125 55.069 C 122.966 53.454, 122.704 52.750, 123.592 51.292 C 125.717 47.806, 129.779 46.908, 147.744 45.951 C 168.599 44.841, 173.281 44.255, 175.705 42.450 C 177.342 41.231, 177.368 40.875, 176 38.421 C 175.175 36.941, 171.761 33.776, 168.414 31.389 L 162.327 27.049 159.437 30.066 M 137.028 94.072 C 134.569 95.188, 131.081 97.226, 129.277 98.602 C 125.975 101.121, 122.380 106.713, 123.404 107.737 C 124.947 109.281, 142.653 99.508, 148.472 93.900 C 150.421 92.023, 150.391 92, 145.972 92.022 C 143.512 92.034, 139.488 92.957, 137.028 94.072 M 26 140.388 C 26 140.602, 29.995 141.763, 34.877 142.970 L 43.754 145.163 48.627 142.628 L 53.500 140.093 39.750 140.047 C 32.188 140.021, 26 140.175, 26 140.388" stroke="none" fill="black" fill-rule="evenodd"/>
</svg>