<svg xmlns="http://www.w3.org/2000/svg" width="200" height="200" viewBox="0 0 200 200" version="1.1">
	<path d="M 29.619 14.034 C 20.256 16.838, 19.020 24.771, 25.695 39.218 L 28.337 44.936 25.568 47.705 C 15.764 57.509, 14.987 73.219, 22.542 108.868 C 25.676 123.656, 26.362 125.722, 28.731 127.500 C 36.718 133.497, 38.206 137.821, 35.569 147.363 C 33.578 154.566, 30.874 159.527, 22.869 170.669 C 12.985 184.425, 15.088 184.563, 30.901 171.192 C 37.280 165.798, 43.019 161.073, 43.654 160.693 C 44.289 160.312, 48.638 161.838, 53.319 164.084 C 66.723 170.516, 73.165 170.197, 75.737 162.974 C 77.268 158.674, 76.716 152.973, 72.914 133.820 C 71.311 125.745, 70 116.876, 70 114.110 C 70 105.942, 79.843 81, 83.067 81 C 85.296 81, 86.343 87.427, 86.773 103.750 C 87.096 116.027, 86.906 121, 86.113 121 C 84.460 121, 84.715 138.670, 86.531 150 C 91.579 181.495, 100.813 194.347, 107.889 179.728 C 110.507 174.321, 113.964 160.958, 114.138 155.578 C 114.210 153.335, 113.921 147.627, 113.496 142.894 C 112.531 132.152, 113.336 127.481, 116.509 125.402 C 124.020 120.481, 139 135.714, 139 148.273 C 139 152.325, 138.508 153.646, 136.100 156.054 C 134.505 157.649, 131.130 159.508, 128.600 160.185 C 126.065 160.863, 124 162.010, 124 162.741 C 124 166.979, 134.049 182.457, 138.191 184.599 C 148.551 189.956, 154.981 181.535, 166.053 148.113 C 169.991 136.226, 173.704 125.600, 174.306 124.500 C 175.703 121.943, 175.441 119.946, 171.907 106.182 C 170.308 99.958, 169 92.727, 169 90.114 C 169 83.657, 171.366 76.175, 174.990 71.172 C 178.727 66.014, 178.754 65, 175.155 65 C 170.032 65, 168.158 61.135, 165.462 45 C 163.168 31.280, 161.013 25.081, 157.217 21.284 C 154.344 18.411, 153.280 18, 148.717 18.001 C 142.646 18.002, 133.444 21.929, 125.500 27.909 C 117.429 33.985, 116.560 34.286, 110.703 33.030 C 107.860 32.420, 96.751 29.044, 86.017 25.528 C 49.718 13.637, 38.549 11.361, 29.619 14.034 M 28.345 17.451 C 26.610 18.206, 24.879 19.807, 24.497 21.010 C 23.363 24.582, 24.859 31.262, 28.487 38.833 L 31.893 45.940 29.008 47.994 C 24.452 51.238, 21.065 59.301, 20.376 68.541 C 19.688 77.769, 20.753 86.496, 25.184 107.940 L 28.374 123.379 33.239 127.947 C 42.358 136.510, 41.585 147.238, 30.613 164.390 C 28.626 167.497, 27 170.268, 27 170.549 C 27 170.830, 30.487 168.071, 34.750 164.420 C 39.013 160.768, 43.014 157.576, 43.642 157.325 C 44.270 157.074, 48.475 158.725, 52.985 160.993 C 57.528 163.276, 63.329 165.370, 65.987 165.685 C 70.382 166.205, 70.936 166.028, 72.534 163.589 C 74.699 160.284, 74.166 152.947, 70.515 135.802 C 66.444 116.689, 66.296 111.881, 69.483 102.500 C 77.609 78.588, 84.489 71.932, 88.229 84.366 C 90.021 90.327, 89.967 123.131, 88.161 125.307 C 87.157 126.516, 86.989 128.870, 87.488 134.710 C 89.624 159.673, 96.744 183.777, 101.698 182.818 C 104.205 182.333, 107.493 174.841, 109.944 164.029 C 111.837 155.680, 112 153.450, 111.077 148.458 C 108.772 135.987, 110.331 125.499, 114.850 123.080 C 118.371 121.196, 123.383 121.857, 128.054 124.822 C 139.184 131.888, 145.293 147.484, 140.047 155.442 C 137.905 158.692, 131.481 162.987, 128.750 162.995 C 126.539 163.001, 126.553 163.199, 129.137 168.290 C 137.628 185.019, 144.658 187.503, 151.783 176.292 C 155.764 170.029, 158.536 163.013, 164.941 142.986 C 167.840 133.919, 170.826 125.312, 171.576 123.859 C 172.788 121.510, 172.592 119.909, 169.797 109.359 C 165.382 92.694, 165.346 83.755, 169.656 75.058 L 172.813 68.689 169.530 65.593 C 166.089 62.348, 165.659 60.927, 161.476 39 C 159.644 29.399, 156.671 23.174, 152.996 21.244 C 148.105 18.675, 138.609 21.908, 127.279 29.997 L 122.059 33.725 129.456 37.381 C 137.773 41.491, 142 45.750, 142 50.020 C 142 53.768, 138.769 56, 133.343 56 C 125.144 56, 120.117 52.602, 116.559 44.656 L 114.390 39.811 108.695 45.963 C 105.563 49.346, 103 52.429, 103 52.813 C 103 53.198, 108.357 58.460, 114.904 64.506 C 127.907 76.515, 130 79.942, 130 89.228 C 130 97.491, 124.933 104, 118.500 104 C 111.815 104, 107.096 96.490, 108.592 88.235 C 109.440 83.560, 111.979 77, 112.942 77 C 114.606 77, 114.592 78.292, 112.876 83.260 C 110.738 89.447, 110.560 93.573, 112.284 96.980 C 115.136 102.616, 122.607 102.594, 125.530 96.941 C 127.279 93.560, 127.365 84.775, 125.694 80.318 C 124.983 78.424, 119.666 72.644, 112.559 66.040 L 100.618 54.945 95.342 60.156 L 90.066 65.367 99.283 70.275 C 104.352 72.974, 109.148 75.806, 109.940 76.568 C 112.752 79.271, 109.927 79.295, 105.249 76.607 C 94.798 70.603, 87.523 67.622, 82.806 67.410 C 79.363 67.256, 76.690 66.321, 73.333 64.097 C 69.482 61.547, 67.655 61, 62.978 61 C 57.197 61, 51 62.549, 51 63.994 C 51 64.433, 52.631 68.226, 54.624 72.423 C 58.080 79.701, 58.228 80.442, 57.809 88.427 C 57.413 95.962, 56.900 97.734, 52.678 106.149 C 44.081 123.288, 43.016 125, 40.953 125 C 38.593 125, 38.550 124.617, 40.564 121.543 C 41.906 119.494, 41.977 117.809, 41.064 109.618 C 39.555 96.087, 39.719 79.250, 41.416 73.614 C 42.194 71.027, 43.994 67.385, 45.416 65.522 C 46.837 63.658, 48 61.656, 48 61.073 C 48 59.819, 55.782 54, 57.459 54 C 58.096 54, 59.428 53.407, 60.419 52.683 C 62.106 51.449, 61.877 50.766, 56.810 41.933 C 50.394 30.747, 47 23.049, 47 19.681 C 47 17.988, 46.306 17.047, 44.750 16.630 C 40.801 15.572, 31.607 16.032, 28.345 17.451 M 49.626 20.750 C 51.356 27.922, 64.725 51.319, 66.667 50.574 C 67.320 50.324, 72.434 48.667, 78.032 46.892 C 87.699 43.828, 88.109 43.587, 86.206 42.083 C 85.104 41.212, 79.988 37.044, 74.838 32.819 C 63.939 23.881, 54.595 18, 51.290 18 C 49.256 18, 49.046 18.347, 49.626 20.750 M 68.500 24.167 C 70.150 25.449, 75.970 30.227, 81.434 34.785 C 86.898 39.343, 91.848 42.889, 92.434 42.665 C 93.020 42.441, 97.924 41.003, 103.331 39.469 L 113.163 36.681 104.831 34.307 C 100.249 33.002, 90.200 29.858, 82.500 27.320 C 74.800 24.782, 67.825 22.510, 67 22.271 C 66.175 22.032, 66.850 22.885, 68.500 24.167 M 118.667 36.667 C 116.195 39.139, 119.811 47.325, 125.107 51.246 C 129.460 54.469, 140 53.555, 140 49.954 C 140 47.650, 133.962 42.576, 127.549 39.491 C 119.655 35.695, 119.643 35.691, 118.667 36.667 M 100.219 43.139 C 96.764 44.212, 94.190 45.499, 94.499 45.998 C 94.808 46.498, 96.355 47.828, 97.936 48.955 L 100.812 51.002 104.999 46.001 C 109.618 40.485, 109.325 40.309, 100.219 43.139 M 88.500 46.518 C 87.950 46.717, 82.874 48.280, 77.219 49.992 L 66.938 53.105 68.974 55.964 C 70.453 58.041, 73.092 59.523, 78.624 61.383 C 87.284 64.294, 87.457 64.251, 93.999 57.536 L 98.497 52.917 94.499 49.496 C 90.402 45.991, 90.217 45.899, 88.500 46.518 M 58.134 56.632 C 56.282 57.440, 54.932 58.213, 55.134 58.350 C 55.335 58.487, 58.107 58.422, 61.294 58.204 C 66.132 57.875, 66.895 57.578, 65.921 56.405 C 64.483 54.672, 62.493 54.730, 58.134 56.632 M 45.516 70.607 C 42.529 76.902, 41.632 86.867, 42.873 99.947 C 43.493 106.474, 44 112.586, 44 113.530 C 44 116.667, 46.498 113.397, 50.315 105.264 C 54.533 96.274, 56.344 88.187, 55.412 82.500 C 54.685 78.062, 49.466 67, 48.100 67 C 47.620 67, 46.458 68.623, 45.516 70.607" stroke="none" fill="black" fill-rule="evenodd"/>
</svg>