<svg xmlns="http://www.w3.org/2000/svg" width="200" height="200" viewBox="0 0 200 200" version="1.1">
	<path d="M 46 13.728 C 46 14.208, 46.476 15.076, 47.058 15.658 C 47.802 16.402, 46.534 18.922, 42.783 24.150 C 35.481 34.327, 26.173 50.839, 23.344 58.633 C 20.572 66.271, 20.216 75.435, 22.561 78.783 C 23.419 80.009, 25.444 81.695, 27.061 82.531 C 28.677 83.367, 30 84.854, 30 85.836 C 30 86.818, 31.795 92.769, 33.989 99.060 C 36.839 107.231, 37.982 112.143, 37.989 116.250 C 37.999 121.538, 38.181 122.001, 40.250 122.017 C 41.487 122.026, 53.750 122.691, 67.500 123.495 C 81.250 124.299, 96.438 124.967, 101.250 124.979 L 110 125 110 128.365 C 110 130.255, 109.092 132.885, 107.927 134.365 C 106.139 136.639, 105.104 137, 100.378 137 C 97.285 137, 93.537 137.705, 91.769 138.620 C 87.582 140.785, 80.307 139.993, 62.977 135.486 C 32.888 127.662, 27.948 126.632, 25.171 127.605 C 23.627 128.146, 22.373 129.420, 22.199 130.626 C 21.855 133.015, 28.101 141.639, 29.889 141.241 C 30.529 141.099, 34.528 140.610, 38.776 140.154 C 46.871 139.286, 52.779 140.024, 54.038 142.062 C 55.128 143.825, 53.448 148.775, 49.821 154.488 C 43.835 163.915, 40.045 171.499, 40.023 174.095 C 39.955 181.789, 51.410 182.515, 75.500 176.343 C 87.833 173.183, 91.478 172.616, 96 173.151 C 115.773 175.492, 142.906 172.589, 154.767 166.865 C 162.451 163.156, 162.945 157.543, 155.902 153.950 C 151.497 151.703, 138.149 148.574, 128.426 147.509 C 122.733 146.886, 121.942 147.070, 115.830 150.430 C 102.986 157.489, 86.055 161.566, 79.750 159.117 C 74.998 157.272, 76.925 152.440, 84.814 146.416 C 88.481 143.616, 90.159 143, 94.124 143 C 96.783 143, 100.656 142.349, 102.730 141.554 C 105.576 140.463, 113.239 140.006, 134 139.691 C 162.522 139.259, 166.530 138.730, 170.660 134.850 C 173.918 131.789, 173.602 128.095, 169.568 122.100 L 166.135 117 169.491 117 C 173.620 117, 177.968 112.971, 181.623 105.757 C 185.540 98.026, 183.001 97.503, 178.792 105.174 C 176.721 108.948, 174.078 112.219, 172.223 113.302 C 169.395 114.954, 168.862 114.980, 166.192 113.599 C 159.854 110.322, 152.777 95.036, 145.114 68.074 C 142.547 59.040, 139.896 51.465, 139.223 51.241 C 137.494 50.665, 137.655 53.827, 140.395 74.283 C 142.431 89.474, 143.161 92.645, 145.403 96.033 C 146.847 98.215, 147.790 100, 147.499 100 C 147.208 100, 143.647 97.359, 139.586 94.132 C 135.524 90.905, 126.716 84.324, 120.011 79.508 C 109.677 72.085, 107.612 70.961, 106.450 72.126 C 105.478 73.100, 103.057 73.404, 98.121 73.171 C 91.307 72.849, 91.109 72.763, 88.651 69.049 L 86.141 65.256 89.320 62.266 C 91.069 60.621, 95.425 57.328, 99 54.948 C 111.807 46.421, 121.943 34.918, 127.666 22.418 C 130.591 16.029, 131.997 15.699, 139.781 19.578 C 149.428 24.385, 156.730 35.098, 166.995 59.500 C 172.076 71.579, 176.042 78.751, 179.369 81.877 C 183.464 85.724, 184.535 83.335, 180.646 79.030 C 177.143 75.153, 174.970 70.942, 166.433 51.500 C 156.900 29.789, 149.321 20.134, 138.681 16.154 C 129.661 12.779, 128.739 13.047, 125.778 19.908 C 119.935 33.451, 111.427 43.303, 97.479 52.680 C 92.517 56.015, 87.849 59.477, 87.106 60.372 C 86.363 61.267, 85.425 62, 85.022 62 C 84.619 62, 82.435 59.356, 80.169 56.125 L 76.048 50.250 81.774 48.702 C 84.923 47.851, 89.075 46.861, 91 46.503 C 96.896 45.404, 98 44.920, 98 43.433 C 98 42.484, 96.902 41.998, 94.750 41.994 C 89.988 41.986, 83.974 40.096, 83.324 38.403 C 83.014 37.593, 83.317 34.940, 83.998 32.506 C 85.747 26.259, 84.750 23.524, 79.628 20.522 C 73.482 16.920, 46 11.368, 46 13.728 M 52 16.771 C 52 17.029, 57.028 24.048, 63.173 32.370 C 69.318 40.691, 74.380 47.570, 74.423 47.656 C 74.623 48.059, 86.997 44.478, 86.978 44.021 C 86.966 43.735, 85.504 42.825, 83.728 42 C 80.703 40.594, 80.520 40.218, 80.816 36 C 81.629 24.401, 81.691 24.749, 78.468 22.853 C 74.054 20.258, 52 15.190, 52 16.771 M 43.300 28.750 C 33.582 42.840, 30.685 49.862, 33.350 52.868 C 34.602 54.279, 34.611 55.382, 33.420 61 C 32.662 64.575, 32.032 70.711, 32.021 74.636 L 32 81.773 36.350 82.425 C 41.451 83.190, 55.626 81.621, 66.110 79.131 L 73.500 77.377 68 74.583 C 52.665 66.794, 51.898 58.002, 65.964 51.251 L 71.839 48.431 61.346 34.216 C 55.575 26.397, 50.512 20, 50.095 20 C 49.677 20, 46.620 23.938, 43.300 28.750 M 66.769 54.055 C 59.698 57.705, 57.315 60.848, 59.092 64.183 C 59.771 65.457, 61.041 67.092, 61.913 67.815 C 63.844 69.416, 78.059 76.276, 78.505 75.823 C 78.680 75.646, 79.744 73.075, 80.869 70.110 L 82.914 64.720 78.207 57.865 C 75.618 54.095, 73.275 51.029, 73 51.053 C 72.725 51.077, 69.921 52.427, 66.769 54.055 M 27.007 56.484 C 22.695 66.544, 22.254 74.269, 25.766 78.250 C 28.312 81.136, 28.999 80.292, 29.021 74.250 C 29.032 71.088, 29.654 65.575, 30.403 62.001 C 31.543 56.554, 31.546 55.190, 30.419 53.581 C 29.167 51.794, 28.931 51.995, 27.007 56.484 M 83.145 71.015 C 81.646 75.315, 81.592 75.181, 84.673 74.816 C 88.048 74.417, 88.442 73.137, 86.121 70.116 L 84.289 67.732 83.145 71.015 M 143.457 76 C 143.717 77.925, 144.231 81.975, 144.598 85 C 145.036 88.612, 146.421 92.394, 148.633 96.020 C 150.485 99.056, 152 102.009, 152 102.583 C 152 103.156, 153.273 104.845, 154.829 106.336 L 157.657 109.046 154.197 102.075 C 152.294 98.242, 148.993 90.019, 146.860 83.802 C 144.728 77.586, 143.196 74.075, 143.457 76 M 95.953 75.868 L 93.406 76.500 95.534 80.266 C 97.529 83.798, 97.757 83.922, 99.202 82.266 C 102.286 78.731, 103.103 76.254, 101.400 75.600 C 99.695 74.946, 99.667 74.947, 95.953 75.868 M 105.360 78.257 C 100.154 86.146, 100.102 88, 105.090 88 C 109.330 88, 110.043 90.706, 106.588 93.678 L 103.840 96.042 105.719 99.271 C 107.160 101.746, 109.279 103.170, 114.799 105.371 C 124.633 109.292, 124.493 111.612, 114.250 114.500 C 111.877 115.169, 111.629 116.013, 112.666 119.887 C 113.297 122.245, 113.423 122.267, 122.902 121.715 C 140.502 120.689, 150.077 116.051, 149.944 108.615 C 149.899 106.083, 148.915 104.733, 144.694 101.407 C 134.213 93.148, 109.259 75, 108.392 75.007 C 107.902 75.011, 106.537 76.473, 105.360 78.257 M 72 80.642 C 61.676 83.079, 53.972 84.241, 45.250 84.678 C 36.740 85.104, 33 85.657, 33 86.489 C 33 87.148, 34.620 92.370, 36.600 98.094 C 38.580 103.817, 40.442 111.088, 40.739 114.250 L 41.278 120 49.761 120 C 57.235 120, 58.095 119.819, 56.984 118.481 C 54.286 115.230, 59.747 111.840, 84.303 101.520 C 94.544 97.216, 97.963 95.347, 97.553 94.278 C 97.249 93.485, 97 92.198, 97 91.418 C 97 90.550, 95.970 90, 94.345 90 C 91.726 90, 91.715 89.972, 93.559 87.935 C 95.389 85.913, 95.379 85.778, 93.075 81.435 C 91.371 78.222, 90.140 77.030, 88.611 77.110 C 87.450 77.171, 79.975 78.760, 72 80.642 M 101.660 91.557 C 101.989 92.414, 102.912 92.864, 103.711 92.557 C 104.510 92.251, 105.378 92, 105.641 92 C 105.903 92, 105.840 91.550, 105.500 91 C 104.443 89.290, 100.983 89.792, 101.660 91.557 M 81 105.918 C 71.375 110.102, 62.423 114.282, 61.106 115.207 L 58.712 116.890 61.510 117.592 C 68.752 119.409, 104.201 115.843, 107.344 112.981 C 108.605 111.833, 104.673 103.872, 101.380 100.906 L 98.500 98.311 81 105.918 M 109.581 108.363 C 109.935 109.538, 110.580 110.883, 111.014 111.351 C 111.882 112.289, 118 111.248, 118 110.163 C 118 109.790, 115.961 108.751, 113.468 107.855 C 108.964 106.235, 108.940 106.238, 109.581 108.363 M 152.091 112.626 C 149.653 119.366, 139.355 123.525, 122.250 124.678 C 113.348 125.278, 113 125.391, 113 127.683 C 113 128.993, 112.332 131.663, 111.515 133.618 L 110.030 137.171 136.265 136.808 C 158.066 136.507, 163.134 136.163, 166.250 134.774 C 169.359 133.388, 170 132.597, 170 130.150 C 170 126.639, 163.166 117.075, 157.272 112.339 L 153.338 109.177 152.091 112.626 M 99.500 118.033 C 95.650 119.025, 89.575 119.880, 86 119.934 C 81.411 120.002, 79.941 120.316, 81 121 C 81.825 121.533, 88.688 121.976, 96.250 121.985 C 110.637 122.001, 111.037 121.867, 109.393 117.582 C 108.673 115.707, 108.499 115.715, 99.500 118.033 M 25 131.284 C 25 132.143, 26.116 134.172, 27.479 135.793 C 29.783 138.530, 30.261 138.681, 34.229 137.913 C 36.578 137.459, 41.342 137.068, 44.816 137.044 C 58.483 136.949, 60.392 142.068, 51.918 156.090 C 39.363 176.868, 39.674 179.061, 54.977 177.639 C 58.702 177.293, 67.094 175.610, 73.625 173.899 C 85.146 170.881, 86.201 170.783, 109 170.610 C 134.340 170.418, 143.894 169.112, 153 164.598 C 159.364 161.443, 159.600 158.595, 153.715 155.992 C 148.741 153.792, 138.610 151.493, 129.258 150.444 C 123.388 149.785, 122.615 149.955, 116.258 153.295 C 97.424 163.192, 76.862 165.441, 74.457 157.866 C 73.612 155.201, 76.791 149.261, 80.631 146.332 C 82.473 144.927, 83.773 143.441, 83.518 143.030 C 83.264 142.618, 80.681 142.002, 77.778 141.659 C 74.875 141.317, 63.950 138.745, 53.500 135.946 C 31.235 129.980, 25 128.960, 25 131.284" stroke="none" fill="black" fill-rule="evenodd"/>
</svg>