<svg xmlns="http://www.w3.org/2000/svg" width="200" height="200" viewBox="0 0 200 200" version="1.1">
	<path d="M 46.457 15.750 C 31.809 32.864, 25.891 47.300, 25.913 65.859 C 25.926 76.975, 26.929 82.679, 31.215 96.017 L 34.273 105.535 30.584 111.301 C 20.697 126.757, 15.802 141.058, 17.948 148.220 C 21.590 160.377, 42.675 157.744, 66.928 142.103 C 69.343 140.545, 69.341 140.563, 66.498 145.414 C 62.675 151.937, 62.394 159.279, 65.861 162.087 C 68.517 164.239, 74.872 164.645, 78.316 162.882 C 79.517 162.267, 82.125 160.211, 84.112 158.313 L 87.724 154.863 88.428 160.167 C 88.815 163.084, 90.339 167.693, 91.816 170.408 C 96.934 179.822, 106.043 184, 121.452 184 C 146.456 184, 170.623 168.623, 160.899 158.899 C 156.751 154.751, 151.095 153.201, 136 152.076 C 120.654 150.932, 116.125 150.127, 115.899 148.500 C 115.823 147.950, 119.527 146.034, 124.130 144.242 C 128.734 142.450, 134.718 139.939, 137.429 138.663 L 142.358 136.342 137.429 132.997 C 129.188 127.403, 126.548 124.997, 128.673 125.017 C 132.013 125.049, 143.423 127.786, 149.053 129.905 L 154.605 131.996 156.912 141.562 L 159.218 151.129 166.943 159.064 C 173.409 165.706, 175.188 167, 177.859 167 C 180.330 167, 181.261 166.444, 181.987 164.534 C 184.677 157.459, 173.942 141.507, 160.518 132.633 L 156.536 130 160.902 130 C 167.306 130, 172.482 128.135, 177.138 124.150 C 182.077 119.922, 184.011 115.715, 183.969 109.282 C 183.937 104.230, 180.110 93.263, 178.581 93.840 C 177.046 94.418, 176.055 91.545, 173.551 79.250 C 172.221 72.721, 170.829 66.168, 170.458 64.689 C 169.803 62.079, 169.911 62, 174.142 61.996 C 179.075 61.992, 184.025 59.417, 186.571 55.531 C 190.557 49.449, 185.587 35.471, 176.033 25.889 C 169.592 19.430, 165.770 17.199, 159.767 16.395 C 153.631 15.573, 149.400 18.672, 145.313 26.978 C 142.860 31.964, 141.478 33.639, 139.313 34.249 C 133.355 35.928, 113.986 38.922, 102.811 39.891 C 88.839 41.103, 85.279 42.637, 72.466 52.971 C 67.673 56.837, 63.144 60, 62.401 60 C 58.724 60, 55.713 45.702, 54.434 22.170 C 54.040 14.926, 53.384 9, 52.976 9 C 52.568 9, 49.634 12.037, 46.457 15.750 M 44.856 22.058 C 26.879 45.761, 23.938 66.298, 34.182 96.581 L 37.302 105.805 33.284 112.167 C 20.793 131.946, 16.943 147.045, 23.262 151.471 C 26.836 153.975, 35.821 153.409, 44.854 150.113 C 53.965 146.787, 62.995 141.706, 74.824 133.246 L 83.149 127.293 83.324 114.342 C 83.498 101.517, 83.537 101.315, 87.294 93.717 C 89.381 89.496, 91.089 85.696, 91.089 85.272 C 91.091 84.429, 79.901 81.943, 78.898 82.563 C 78.559 82.773, 77.970 86.444, 77.590 90.722 C 76.676 101.028, 73.511 116.056, 71.115 121.472 C 69.047 126.148, 66.015 128.457, 63.140 127.545 C 58.331 126.018, 53.894 111.104, 53.863 96.365 C 53.838 84.186, 55.832 77.233, 60.532 73.106 C 64.538 69.589, 68.067 69.166, 73.716 71.526 L 77.367 73.051 86.434 67.528 C 91.420 64.490, 96.130 61.598, 96.900 61.100 C 98.053 60.356, 97.904 59.695, 96.053 57.348 C 94.097 54.869, 93.889 53.762, 94.446 48.807 L 95.086 43.115 92.265 43.924 C 87.155 45.390, 81.612 48.797, 73.523 55.444 C 62.315 64.656, 58.667 64.304, 55.491 53.704 C 54.634 50.842, 53.466 42.650, 52.896 35.500 C 52.326 28.350, 51.553 20.726, 51.180 18.558 L 50.500 14.615 44.856 22.058 M 152.030 21.750 C 150.379 23.262, 148.333 26.206, 147.483 28.292 L 145.938 32.083 148.792 30.608 C 152.649 28.613, 154.280 26.464, 154.400 23.217 C 154.543 19.345, 156.438 19.847, 156.822 23.859 C 157.206 27.876, 154.750 30.907, 149.019 33.491 C 145.148 35.237, 145.148 35.237, 144.456 42.627 C 143.632 51.416, 144.514 64.876, 147.035 82 C 149.738 100.353, 155.128 124.985, 156.810 126.667 C 160.312 130.169, 175.880 124.138, 179.143 118.016 C 182.424 111.859, 180.742 97.989, 176.517 96.368 C 174.502 95.595, 172.483 89.279, 169.973 75.895 C 168.776 69.512, 167.479 63.774, 167.090 63.145 C 166.700 62.515, 162.584 61.048, 157.941 59.884 C 153.298 58.719, 149.324 57.605, 149.108 57.408 C 148.338 56.703, 153.556 53.009, 156.500 52.176 C 160.584 51.020, 164.636 52.575, 166.717 56.098 C 168.233 58.664, 168.991 59, 173.265 59 C 178.531 59, 183.399 57.010, 184.379 54.455 C 188.902 42.669, 171.426 19, 158.200 19 C 156.138 19, 153.983 19.960, 152.030 21.750 M 134 38.098 C 129.875 39.131, 120.116 40.748, 112.314 41.690 C 96.680 43.579, 97.025 43.369, 97.029 51 C 97.033 59.014, 99.572 59.068, 114.562 51.371 C 123.795 46.631, 127.554 45.154, 128.355 45.955 C 129.148 46.748, 129.152 47.536, 128.370 48.778 C 126.826 51.230, 112.236 58.870, 107.614 59.646 C 105.409 60.017, 98.060 63.728, 90.630 68.224 L 77.534 76.148 74.233 74.574 C 62.704 69.076, 56.432 77.036, 56.562 97 C 56.652 110.755, 60.689 125, 64.497 125 C 68.181 125, 71.960 112.921, 74.569 92.802 C 75.518 85.486, 76.402 79.364, 76.534 79.197 C 76.665 79.030, 80.875 79.680, 85.888 80.641 L 95.004 82.389 98.252 79.313 C 107.823 70.248, 126.240 63.969, 129.993 68.491 C 131.809 70.680, 126.840 74.934, 118.351 78.459 C 114.583 80.023, 110.022 82.181, 108.216 83.254 L 104.932 85.205 109.488 88.094 C 114.786 91.454, 115.998 94.006, 116.006 101.815 C 116.011 107.464, 117.197 113.237, 118.894 115.882 C 120.178 117.882, 126.245 116.506, 129.971 113.371 C 132.697 111.077, 133 110.246, 133 105.068 C 133 99.337, 135.344 90.836, 138.431 85.372 C 139.991 82.611, 140.040 82.926, 139.707 93.500 C 139.452 101.574, 138.877 105.469, 137.546 108.143 C 135.752 111.746, 135.758 111.832, 138.116 116.054 C 140.758 120.784, 143.573 123.154, 149.385 125.543 L 153.270 127.140 152.630 124.820 C 150.619 117.520, 144.771 87.140, 143.370 76.707 C 142.469 69.993, 141.735 58.088, 141.739 50.250 C 141.744 42.412, 141.692 36.049, 141.624 36.110 C 141.556 36.170, 138.125 37.065, 134 38.098 M 156.750 54.689 C 155.787 54.941, 155 55.488, 155 55.905 C 155 56.677, 164.221 59.112, 164.832 58.501 C 165.016 58.317, 164.229 57.229, 163.083 56.083 C 161.013 54.013, 160.103 53.813, 156.750 54.689 M 118 70.935 C 111.865 72.808, 98.112 81.290, 98.031 83.250 C 97.966 84.813, 102.187 83.906, 105.771 81.588 C 107.822 80.261, 112.957 77.757, 117.181 76.023 C 126.404 72.238, 128.976 69.956, 123.872 70.086 C 122.018 70.133, 119.375 70.515, 118 70.935 M 91.938 90.750 C 86.530 99.260, 84.540 110.427, 86.006 124.028 L 86.494 128.557 94.306 126.294 C 98.602 125.050, 106.174 123.511, 111.132 122.876 C 120.901 121.623, 121.490 120.453, 113.490 118.195 C 100.442 114.513, 91.432 98.621, 97.308 89.653 C 99.467 86.357, 99.435 86, 96.978 86 C 95.656 86, 93.911 87.645, 91.938 90.750 M 99.614 91.401 C 97.598 95.649, 97.584 98.069, 99.548 102.768 C 101.956 108.532, 107.600 113.593, 113.664 115.426 C 115.802 116.072, 115.811 116.022, 114.414 111.381 C 113.636 108.797, 113 103.907, 113 100.515 C 113 94.041, 111.761 91.929, 106.316 89.125 C 102.778 87.303, 101.324 87.797, 99.614 91.401 M 136.150 99.168 C 136.067 100.636, 135.741 102.661, 135.424 103.668 C 134.881 105.400, 134.911 105.403, 135.988 103.724 C 136.615 102.748, 136.942 100.723, 136.714 99.224 L 136.300 96.500 136.150 99.168 M 130.079 116.726 C 128.223 117.977, 125.608 119, 124.269 119 C 122.772 119, 121.993 119.479, 122.248 120.243 C 122.572 121.217, 139.153 124.517, 139.549 123.687 C 139.598 123.584, 138.246 121.464, 136.545 118.976 L 133.453 114.452 130.079 116.726 M 104.922 126.552 C 100.754 127.307, 93.554 129.108, 88.922 130.556 C 81.497 132.877, 79.890 133.827, 75.343 138.587 C 66.356 147.995, 63.447 157.281, 68.459 160.565 C 71.849 162.786, 76.287 161.639, 81.091 157.299 C 86.369 152.530, 88.443 148.764, 90.483 140.241 C 91.438 136.249, 92.624 132.733, 93.117 132.428 C 95.195 131.143, 95.153 135.761, 93.020 143.144 C 89.034 156.937, 91.471 169.444, 99.309 175.422 C 105.034 179.789, 110.619 181.300, 121 181.293 C 131.751 181.285, 140.427 179.337, 148.920 175.023 C 160.894 168.942, 163.219 162.572, 155.096 158.103 C 151.344 156.039, 148.716 155.568, 137.354 154.921 C 118.453 153.846, 112 152.322, 112 148.935 C 112 146.377, 114.775 144.702, 126.139 140.398 C 131.589 138.334, 135.925 136.332, 135.774 135.949 C 135.623 135.567, 132.614 132.946, 129.086 130.127 C 123.188 125.412, 122.264 125.007, 117.586 125.090 C 114.789 125.139, 109.090 125.797, 104.922 126.552 M 158.376 136.750 C 158.657 137.713, 159.623 141.100, 160.523 144.279 C 161.777 148.710, 163.460 151.463, 167.740 156.086 C 174.270 163.139, 178.703 165.937, 179.609 163.576 C 181.448 158.784, 172.811 144.968, 163.875 138.408 C 158.617 134.548, 157.648 134.256, 158.376 136.750" stroke="none" fill="black" fill-rule="evenodd"/>
</svg>