<svg xmlns="http://www.w3.org/2000/svg" width="200" height="200" viewBox="0 0 200 200" version="1.1">
	<path d="M 88.627 14.250 C 86.568 17.515, 86.294 18.779, 83.582 37.500 C 80.843 56.412, 78.841 64.159, 75.945 67.055 C 73.003 69.997, 70.483 69.430, 65.568 64.720 C 61.133 60.470, 61.109 60.410, 62.163 56.254 C 63.581 50.670, 61.960 41.648, 58.030 33.251 C 48.922 13.787, 36.172 11.321, 31.876 28.192 C 31.057 31.404, 30.519 39.082, 30.512 47.636 L 30.500 61.771 26.677 61.824 C 18.576 61.936, 18.174 65.455, 24.529 80.623 C 29.938 93.534, 32.015 101.092, 31.956 107.644 C 31.898 114.105, 30.278 118.308, 24.495 127.007 C 11.958 145.866, 12.064 156.342, 24.776 154.628 C 35.773 153.145, 63.737 135.719, 70.451 126.166 L 73.436 121.918 67.297 116.450 C 59.370 109.388, 57.565 104.985, 58.205 94.267 C 58.732 85.432, 61.112 79.767, 66.033 75.626 C 72.077 70.540, 78.257 72.963, 81.943 81.863 C 83.174 84.834, 83.062 85.189, 79.728 88.880 C 74.476 94.692, 73.634 100.094, 75.103 118.546 C 76.145 131.640, 76.088 134.851, 74.664 143.284 C 73.763 148.614, 71.927 155.681, 70.583 158.988 C 69.239 162.294, 68.312 165, 68.522 165 C 68.731 165, 78.937 162.362, 91.202 159.137 C 103.466 155.912, 115.638 152.960, 118.250 152.576 C 123.697 151.775, 123.763 151.914, 121.489 159.409 C 119.260 166.758, 119.605 173.609, 122.521 179.873 C 124.925 185.037, 125.145 185.221, 128.198 184.610 C 137.570 182.736, 152.381 173.346, 165.184 161.162 C 178.085 148.886, 182.968 141.076, 179.989 137.487 C 178.402 135.575, 175.236 135.604, 169.397 137.586 C 163.582 139.561, 162.682 138.626, 163.444 131.401 C 164.219 124.055, 166.338 118.699, 172.531 108.433 C 180.923 94.521, 179.918 92, 165.978 92 L 159.086 92 163.756 82.341 C 167.387 74.831, 168.513 71.306, 168.819 66.498 C 169.187 60.727, 169.030 60.169, 166.472 58.156 C 162.896 55.344, 154.622 55.299, 139.129 58.010 C 127.538 60.038, 115.478 60.591, 113.279 59.194 C 112.046 58.410, 109 50.802, 109 48.505 C 109 46.650, 113.938 46.068, 142.602 44.541 C 168.909 43.139, 173.853 42.296, 176.833 38.703 C 178.598 36.574, 177.615 33.841, 173.707 30.009 C 171.108 27.461, 162.087 21.053, 156.378 17.699 C 155.719 17.312, 153.693 19.396, 151.468 22.747 C 149.384 25.885, 144.697 31.501, 141.051 35.226 C 135.222 41.184, 133.977 42, 130.712 42 C 124.827 42, 123.983 40.767, 117.760 23.076 C 116.517 19.544, 114.990 16.486, 114.366 16.282 C 112.213 15.577, 110.020 19.143, 107.360 27.674 L 104.691 36.235 102.463 30.307 C 98.307 19.254, 93.775 12, 91.023 12 C 90.486 12, 89.408 13.012, 88.627 14.250 M 90.095 16.823 C 89.542 17.856, 87.940 26.756, 86.535 36.601 C 83.762 56.032, 82.100 62.908, 79.087 67.421 L 77.136 70.341 80.404 74.159 C 82.202 76.259, 84.255 79.744, 84.968 81.903 C 86.243 85.767, 86.206 85.887, 82.628 89.571 C 77.258 95.101, 76.567 98.888, 77.717 116.500 C 78.821 133.402, 78.045 144.468, 75.091 153.957 C 73.985 157.508, 73.179 160.512, 73.299 160.632 C 73.419 160.752, 82.963 158.412, 94.509 155.432 C 116.453 149.767, 124.321 148.788, 125.395 151.588 C 125.731 152.461, 125.286 155.649, 124.407 158.672 C 123.528 161.695, 122.827 166.476, 122.849 169.297 C 122.894 175.163, 125.575 182, 127.829 182 C 130.690 182, 145.484 174.093, 152.308 168.918 C 164.850 159.405, 178 144.895, 178 140.570 C 178 138.383, 174.182 138.563, 167.876 141.049 C 161.425 143.592, 161.028 143.125, 161.039 133 C 161.049 124.080, 163.061 118.540, 170.981 105.625 C 174.731 99.510, 176.005 96.605, 175.263 95.863 C 174.611 95.211, 170.334 94.939, 164.102 95.153 C 158.545 95.344, 154.115 95.275, 154.258 95 C 160.306 83.396, 166.003 70.552, 166.485 67.431 C 166.980 64.236, 166.692 62.841, 165.145 60.931 C 163.413 58.792, 162.416 58.513, 156.838 58.611 C 149.758 58.735, 130.374 62.178, 133.500 62.756 C 134.600 62.959, 137.923 63.803, 140.885 64.630 L 146.270 66.134 145.759 75.094 C 145.108 86.517, 141.080 95.595, 134.827 99.733 C 127.182 104.792, 114.317 103.428, 108.441 96.935 C 107.478 95.871, 106.375 95, 105.990 95 C 105.604 95, 104.500 98.655, 103.534 103.123 L 101.779 111.246 112.623 122.123 C 118.586 128.105, 123.785 133, 124.176 133 C 124.567 133, 123.304 129.528, 121.371 125.285 C 116.807 115.271, 115.997 109.211, 118.876 106.610 C 120.604 105.048, 121.970 104.817, 126.734 105.282 C 133.649 105.956, 144.372 110.178, 144.823 112.405 C 145.455 115.523, 140.080 124.965, 133.876 131.634 C 130.413 135.356, 126.886 138.459, 126.040 138.528 C 125.193 138.597, 122.760 139.233, 120.633 139.943 C 118.507 140.652, 115.082 141.006, 113.022 140.730 C 104.295 139.559, 99.925 133.150, 99.228 120.500 C 98.792 112.573, 98.746 112.457, 94.214 107.783 L 89.640 103.066 93.348 85.783 C 95.388 76.277, 98.542 62.355, 100.356 54.844 L 103.655 41.188 100.010 31.844 C 94.016 16.481, 91.952 13.353, 90.095 16.823 M 38.149 21.070 C 34.618 24.860, 33.500 31.532, 33.500 48.815 L 33.500 65.130 30.206 64.511 C 25.436 63.616, 23 64.670, 23 67.631 C 23 69.004, 25.055 74.936, 27.568 80.814 C 37.520 104.099, 37.339 112.390, 26.516 128.995 C 20.134 138.785, 17.701 144.501, 18.170 148.605 C 18.486 151.374, 18.718 151.499, 23.500 151.466 C 32.245 151.408, 53.061 139.778, 64.862 128.358 L 70.224 123.170 64.271 117.335 C 59.807 112.961, 57.870 110.152, 56.534 106.116 C 52.908 95.168, 56.666 79.543, 64.413 73.362 L 67.653 70.777 62.792 65.786 C 58.841 61.731, 58.077 60.393, 58.715 58.648 C 60.213 54.549, 59.388 43.690, 57.140 37.895 C 54.218 30.365, 49.328 23.171, 45.576 20.883 C 41.658 18.494, 40.523 18.522, 38.149 21.070 M 110.047 28.512 C 106.644 39.136, 106.030 45.586, 108.513 44.634 C 109.344 44.314, 112.944 43.754, 116.513 43.388 C 120.081 43.023, 123 42.618, 123 42.488 C 123 42.358, 121.915 40.283, 120.588 37.876 C 119.262 35.469, 117.218 30.238, 116.046 26.250 C 114.874 22.262, 113.730 19, 113.505 19 C 113.279 19, 111.723 23.280, 110.047 28.512 M 152.347 26.263 C 150.254 29.143, 146.293 33.901, 143.545 36.836 L 138.547 42.172 150.523 41.518 C 162.870 40.844, 171.485 39.581, 173.857 38.098 C 176.290 36.577, 174.035 33.021, 167.661 28.329 C 164.273 25.834, 160.296 23.171, 158.825 22.410 C 156.215 21.060, 156.059 21.153, 152.347 26.263 M 105.126 49 C 105.106 49.825, 105.708 51.850, 106.464 53.500 C 107.219 55.150, 107.854 55.825, 107.874 55 C 107.894 54.175, 107.292 52.150, 106.536 50.500 C 105.781 48.850, 105.146 48.175, 105.126 49 M 99.644 70.200 C 97.614 79.165, 95.186 90.214, 94.248 94.752 L 92.543 103.005 95.740 106.201 C 97.498 107.959, 99.084 109.196, 99.266 108.949 C 99.447 108.702, 100.529 104.549, 101.670 99.720 C 103.569 91.685, 103.621 90.582, 102.273 86.720 C 100.287 81.028, 101.135 72.568, 104.409 65.418 C 106.986 59.788, 106.996 59.683, 105.176 56.810 L 103.335 53.901 99.644 70.200 M 106.965 66.199 C 104.471 71.884, 103.109 83.509, 104.745 85.145 C 105.396 85.796, 106.525 83.892, 108.052 79.567 C 109.327 75.955, 110.701 73, 111.105 73 C 111.509 73, 114.349 75.813, 117.415 79.250 L 122.989 85.500 120.994 80.239 C 118.443 73.510, 118.396 67.604, 120.873 65.127 C 122.704 63.296, 122.631 63.241, 117.623 62.709 C 114.805 62.410, 111.778 61.880, 110.895 61.531 C 109.677 61.050, 108.730 62.175, 106.965 66.199 M 123.549 66.341 C 120.749 68.388, 121.919 76.108, 126.511 85.894 C 132.116 97.837, 130.149 98.218, 120.589 87.040 C 116.336 82.068, 112.529 78, 112.128 78 C 111.727 78, 110.393 80.796, 109.163 84.213 C 106.967 90.318, 106.960 90.470, 108.802 92.963 C 113.729 99.630, 125.387 102.294, 132.207 98.311 C 138.632 94.559, 143 84.663, 143 73.857 L 143 68.077 137.818 66.539 C 131.438 64.644, 125.973 64.568, 123.549 66.341 M 121.246 108.154 C 119.022 110.378, 119.916 115.292, 124.181 124.265 L 128.361 133.062 132.727 128.781 C 137.271 124.325, 142.632 114.832, 141.573 113.117 C 140.762 111.806, 131.524 108.409, 126.496 107.573 C 123.832 107.130, 122.076 107.324, 121.246 108.154 M 102 121.162 C 102 127.616, 105.267 134.882, 109 136.732 C 112.242 138.338, 119.184 138.349, 121.175 136.750 C 122.521 135.670, 121.326 134.160, 112.366 125.624 L 102 115.748 102 121.162" stroke="none" fill="black" fill-rule="evenodd"/>
</svg>