<svg xmlns="http://www.w3.org/2000/svg" width="200" height="200" viewBox="0 0 200 200" version="1.1">
	<path d="M 140.948 10.875 C 135.033 13.190, 125.406 19.765, 116.284 27.720 C 112.278 31.214, 109 33.494, 109 32.787 C 109 32.079, 109.682 27.938, 110.515 23.584 C 113.651 7.198, 109.352 7.852, 94.649 26 C 88.786 33.236, 87.065 35.013, 86 34.931 C 85.725 34.910, 83.582 32.203, 81.238 28.917 C 73.924 18.661, 64.560 14.591, 57.125 18.435 C 52.468 20.844, 46.923 27.886, 42.862 36.553 C 40.738 41.086, 39 45.346, 39 46.020 C 39 46.982, 38.681 46.980, 37.512 46.010 C 36.311 45.013, 35.910 45.070, 35.436 46.307 C 34.851 47.830, 37.340 52.592, 39.719 54.500 C 41.967 56.303, 46 67.849, 46 72.480 C 46 78.971, 43.664 81.007, 36.250 80.976 C 30.836 80.954, 26.450 80.255, 21.250 78.587 C 19.587 78.053, 19 78.262, 19 79.386 C 19 81.765, 25.352 83.161, 38.750 83.725 C 48.870 84.152, 51 84.508, 51 85.776 C 51 87.085, 51.281 87.056, 52.917 85.575 C 54.446 84.191, 55.255 84.066, 56.917 84.955 C 58.063 85.569, 59 86.258, 59 86.488 C 59 86.717, 55.209 91.618, 50.575 97.378 C 45.941 103.138, 41.649 108.787, 41.037 109.931 C 40.093 111.694, 39.319 111.915, 35.962 111.378 C 30.574 110.516, 30.778 111.886, 37.339 120.607 C 54.068 142.845, 50.507 151.624, 24.286 152.781 C 18.079 153.055, 13 153.618, 13 154.032 C 13 157.463, 35.230 155.964, 42.978 152.011 C 48.202 149.346, 50 146.495, 50 140.879 C 50 135.870, 46.450 127.941, 41.161 121.135 C 36.939 115.703, 36.371 114.545, 38.293 115.282 C 39.499 115.745, 42.091 113.040, 48.433 104.702 C 61.012 88.162, 60.669 88.509, 62.854 90.132 C 63.867 90.884, 67.577 93.697, 71.098 96.383 C 79.682 102.930, 83.081 104.249, 90.312 103.838 C 101.176 103.221, 100.590 107.481, 87.866 121.608 C 78.205 132.334, 76.182 135.908, 77.781 139.420 C 79.206 142.545, 83.024 143.316, 94.778 142.851 L 103.661 142.500 89.081 150.384 C 58.205 167.079, 43.601 173, 33.295 173 C 28.334 173, 27.455 172.655, 24.250 169.450 C 19.936 165.136, 17.648 166.240, 21.476 170.790 C 29.154 179.913, 42.400 177.388, 75 160.587 C 85.725 155.059, 99.102 148.278, 104.728 145.518 C 114.123 140.909, 117.109 138.240, 112.390 138.673 C 111.350 138.769, 105.550 139.321, 99.500 139.901 C 89.562 140.853, 82.022 140.356, 80.301 138.634 C 78.879 137.212, 81.658 132.726, 89.058 124.500 C 97.029 115.639, 101 109.641, 101 106.463 C 101 105.574, 99.665 103.511, 98.034 101.880 C 95.107 98.953, 95.025 98.935, 91.871 100.566 C 86.631 103.276, 81.159 101.111, 69.224 91.606 L 62.947 86.608 64.954 84.601 C 69.243 80.312, 96.083 81.533, 103.140 86.338 C 108.750 90.157, 110.398 93.349, 110.845 101.264 C 111.161 106.863, 111.773 109.147, 113.596 111.537 C 120.627 120.755, 122.347 132.485, 117.997 141.547 C 114.865 148.072, 105.877 156.919, 93.274 165.882 C 82.403 173.613, 77.713 178.272, 78.209 180.848 C 78.581 182.777, 84.637 187, 87.030 187 C 88.064 187, 90.476 184.374, 93.002 180.497 C 99.014 171.269, 107.770 163.443, 114.227 161.525 C 123.231 158.851, 129.580 161.237, 145.688 173.348 C 158.085 182.670, 162.659 185, 168.559 185 C 174.263 185, 179.080 182.812, 182.862 178.504 C 185.450 175.557, 185.861 174.075, 186.986 163.633 C 188.617 148.491, 187.795 141.641, 183.878 137.724 C 180.451 134.297, 177.641 134.444, 168.756 138.511 C 158.088 143.395, 155.455 141.561, 156.541 130 C 157.043 124.655, 157.829 122.523, 160.964 118 C 167.213 108.986, 171 100.712, 171 96.075 C 171 92.224, 170.719 91.780, 167.400 90.394 C 164.117 89.022, 162.853 89.071, 153.058 90.945 C 147.150 92.075, 140.415 93, 138.091 93 C 134.109 93, 133.885 92.848, 134.184 90.350 L 134.500 87.700 147 87.498 C 161.784 87.259, 168.558 85.503, 172.425 80.907 C 175.567 77.173, 175.657 75.104, 172.832 71.514 C 166.603 63.595, 152.313 64.436, 139.141 73.497 L 134.248 76.862 133.038 71.181 C 132.372 68.057, 131.579 60.213, 131.276 53.750 C 130.742 42.350, 130.787 42, 132.799 42 C 133.940 42, 138.530 45.150, 143 49 C 151.101 55.977, 153.524 57.076, 155.800 54.800 C 157.102 53.498, 157.307 44.877, 156.185 38.562 C 155.801 36.396, 155.896 31.660, 156.397 28.037 C 157.526 19.865, 156.585 14.494, 153.479 11.388 C 150.636 8.545, 147.255 8.407, 140.948 10.875 M 138.485 15.008 C 132.998 17.894, 121.349 26.599, 112.129 34.702 L 107.759 38.543 107.717 47.524 C 107.660 59.605, 109.715 65.699, 115.590 70.870 L 120.032 74.781 113.766 75.929 C 110.320 76.561, 102.747 77.348, 96.939 77.679 C 84.800 78.369, 79.705 77.223, 77.672 73.343 L 76.365 70.849 72.805 75.193 L 69.246 79.537 80.873 79.551 C 103.935 79.578, 113.916 86.381, 113.978 102.115 C 113.993 106.046, 114.559 108.446, 115.863 110.115 C 120.893 116.557, 122.455 121.252, 122.478 130 C 122.496 136.997, 122.073 139.368, 120.082 143.413 C 116.814 150.052, 107.645 159.053, 95.092 167.945 C 79.689 178.854, 78.361 180.664, 84.032 183.013 C 85.700 183.704, 87.190 184.096, 87.345 183.885 C 87.499 183.673, 89.681 180.569, 92.195 176.986 C 104.637 159.249, 117.247 154.075, 131.500 160.857 C 134.800 162.427, 141.775 166.966, 147 170.944 C 164.448 184.228, 170.394 185.635, 178.776 178.460 C 182.458 175.308, 182.746 174.645, 183.842 166.809 C 185.930 151.863, 185.091 140.950, 181.687 138.786 C 179.580 137.446, 176.973 137.939, 170 141 C 156.870 146.763, 153.548 144.618, 154.156 130.768 C 154.500 122.918, 154.737 122.180, 158.846 116.178 C 164.138 108.445, 169.279 97.686, 168.820 95.302 C 168.162 91.886, 163.800 91.496, 152.229 93.821 C 139.354 96.407, 134.694 96.551, 132.571 94.429 C 130.727 92.584, 130.634 91.349, 132.036 87.326 L 133.072 84.353 143.799 84.795 C 156.362 85.313, 166.052 83.368, 169.882 79.559 C 173.163 76.296, 172.183 72.789, 167.349 70.495 C 159.522 66.781, 146.110 70.389, 136.938 78.675 C 134.743 80.658, 132.748 82.081, 132.505 81.838 C 131.508 80.841, 128 56.029, 128 49.973 C 128 42.578, 129.771 39, 133.432 39 C 134.879 39, 138.510 41.474, 143.087 45.578 C 154.671 55.965, 153.743 56.866, 153.766 35.217 C 153.788 13.880, 153.287 12, 147.578 12 C 145.722 12, 141.630 13.353, 138.485 15.008 M 99.550 24.201 C 95.397 29.261, 92 33.712, 92 34.092 C 92 34.472, 93.118 35.064, 94.485 35.407 C 97.780 36.234, 98.659 39.970, 96.554 44.203 C 95.062 47.202, 95.401 47.020, 100.292 42.197 C 105.537 37.025, 105.701 36.691, 106.918 28.697 C 107.604 24.189, 108.409 19.262, 108.708 17.750 C 109.635 13.050, 107.418 14.611, 99.550 24.201 M 58.214 21.099 C 52.359 24.030, 45.203 34.887, 41.945 45.780 C 40.777 49.685, 40.859 50.404, 42.871 53.984 C 48.430 63.875, 50.400 74.556, 47.443 78.777 C 45.943 80.919, 45.991 81, 48.752 81 C 50.328 81, 52.321 80.438, 53.181 79.750 C 56.292 77.263, 85.200 37.739, 84.355 37.128 C 83.879 36.782, 81.559 33.906, 79.201 30.736 C 74.799 24.817, 69.412 20.569, 65 19.537 C 63.434 19.171, 60.898 19.754, 58.214 21.099 M 73.047 58.590 C 64.137 70.465, 56.994 80.301, 57.174 80.449 C 57.353 80.596, 59.192 80.505, 61.259 80.248 C 64.406 79.855, 66.056 78.617, 71.396 72.640 C 81.066 61.817, 94.993 42.772, 94.997 40.367 C 95 38.511, 92.810 37.078, 89.873 37.014 C 89.529 37.006, 81.957 46.716, 73.047 58.590 M 92.250 54.319 C 81.881 64.900, 80 67.298, 80 69.935 C 80 74.492, 83.025 75.315, 97.500 74.697 C 104.100 74.415, 110.312 73.860, 111.304 73.464 C 113.016 72.781, 113.005 72.634, 111.102 70.609 C 107.570 66.849, 105.705 60.813, 105.093 51.159 L 104.500 41.818 92.250 54.319" stroke="none" fill="black" fill-rule="evenodd"/>
</svg>