<svg xmlns="http://www.w3.org/2000/svg" width="200" height="200" viewBox="0 0 200 200" version="1.1">
	<path d="M 130.548 20.456 C 127.228 29.561, 121.547 36.456, 115.996 38.119 C 112.796 39.078, 111.293 38.986, 107.313 37.585 C 99.357 34.786, 99 34.715, 99 35.932 C 99 37.857, 107.165 40.955, 112.300 40.978 C 114.939 40.990, 118.360 40.348, 119.901 39.551 C 123.849 37.510, 128.887 31.481, 131.601 25.550 L 133.912 20.500 133.706 37.891 L 133.500 55.281 129 56.625 C 126.525 57.365, 124.247 57.976, 123.937 57.985 C 123.628 57.993, 121.856 55.300, 120 52 C 116.824 46.353, 114 44.210, 114 47.446 C 114 49.210, 119.713 58.855, 124.414 65.028 L 127.863 69.556 124.109 78.028 C 120.759 85.590, 119.527 87.217, 112.651 93.170 C 99.573 104.493, 85.297 112.964, 79.250 112.987 C 76.764 112.997, 76 112.570, 76 111.171 C 76 108.018, 82.138 99.868, 92.199 89.661 C 99.969 81.779, 102.241 78.795, 103.623 74.661 C 106.184 66.994, 106.031 60.589, 103.220 57.779 C 98.448 53.008, 85.871 55.876, 73.920 64.462 L 69.136 67.899 71.879 63.700 C 75.181 58.643, 76.561 55.386, 82.548 38.500 C 90.201 16.919, 93.494 13.989, 101.103 21.988 C 104.832 25.907, 107.114 25.950, 105.033 22.061 C 103.469 19.139, 97.641 15, 95.090 15 C 89.246 15, 86.245 19.612, 79.469 39 C 71.344 62.248, 66.195 69.986, 58.841 69.996 L 56.181 70 57.641 64.750 C 59.654 57.510, 60.512 40.506, 59.121 35.401 C 57.570 29.707, 54.075 24.844, 49.922 22.601 C 44.752 19.809, 39.932 21.015, 34.482 26.466 C 28.307 32.640, 25.844 40.952, 26.078 54.824 C 26.188 61.368, 25.840 65.560, 25.126 66.274 C 23.477 67.923, 23.744 75.349, 25.952 89.228 C 30.989 120.902, 28.920 134.921, 17.806 144.434 C 13.292 148.297, 13.283 148.207, 18.500 151.223 C 21.761 153.109, 32.834 152.549, 39.432 150.166 C 55.647 144.309, 71.683 129.719, 73.470 119.198 C 74.092 115.532, 74.139 115.500, 78.927 115.496 C 82.538 115.492, 85.524 114.568, 90.762 111.832 C 96.709 108.725, 97.693 108.457, 97.275 110.058 C 96.762 112.019, 98.242 112.943, 104.644 114.658 L 107.788 115.500 105.451 120.750 L 103.113 126 95.807 126.002 C 87.916 126.003, 81.752 128.177, 81.198 131.153 C 81.029 132.062, 82.243 134.346, 83.895 136.227 L 86.899 139.649 84.351 147.575 C 81.016 157.952, 80.118 170.394, 82.388 174.784 C 86.119 181.998, 93.541 182.817, 116.960 178.603 C 138.212 174.777, 144.520 175.320, 150.706 181.506 L 154.007 184.807 156.036 182.227 C 157.152 180.809, 159.621 176.465, 161.522 172.574 C 173.374 148.324, 168.350 126.744, 148.217 115.427 L 143.051 112.523 148.775 110.979 C 153.755 109.637, 155.280 109.614, 160.500 110.808 C 173.919 113.876, 185.287 108.146, 182.150 99.895 C 179.728 93.525, 163.556 83.799, 152.354 81.976 C 149.188 81.461, 144.551 79.775, 142.049 78.230 L 137.500 75.421 137.209 66.576 L 136.918 57.731 140.951 58.376 C 143.170 58.731, 149.026 60.180, 153.965 61.597 C 161.657 63.804, 163.449 64.007, 166.456 63.015 C 172.552 61.003, 176.172 53.170, 177.572 38.965 L 178.272 31.864 173.192 37.182 C 169.344 41.211, 167.832 42.220, 166.951 41.344 C 166.312 40.709, 165.240 34.830, 164.568 28.280 C 163.241 15.331, 162.817 14, 160.019 14 C 156.947 14, 151.583 21.364, 144.247 35.651 L 137.314 49.152 136.662 37.826 C 136.303 31.597, 136.007 23.462, 136.005 19.750 C 135.998 10.538, 134.075 10.787, 130.548 20.456 M 156.078 20.721 C 152.592 24.950, 137.526 53.860, 138.369 54.702 C 138.672 55.006, 140.626 55.589, 142.710 55.998 C 144.795 56.407, 150.387 57.794, 155.139 59.082 C 162.238 61.006, 164.235 61.214, 166.348 60.251 C 169.673 58.736, 172.953 52.241, 173.704 45.682 C 174.289 40.579, 174.267 40.527, 172.320 42.250 C 169.559 44.693, 165.339 44.503, 163.931 41.871 C 162.994 40.120, 161.175 25.598, 161.036 18.750 C 160.980 16.040, 159.428 16.657, 156.078 20.721 M 40.393 24.978 C 36.962 26.365, 32.339 32.796, 30.421 38.850 C 28.576 44.674, 27.961 61.176, 29.418 65.750 C 29.958 67.444, 29.740 68, 28.536 68 C 25.865 68, 25.798 70.211, 28.062 83.619 C 29.258 90.703, 30.464 102.874, 30.742 110.664 C 31.368 128.238, 29.550 135.821, 22.898 143.378 C 20.619 145.968, 19.024 148.357, 19.355 148.688 C 19.685 149.019, 22.150 149.500, 24.833 149.758 C 34.886 150.724, 49.357 144.275, 60.478 133.872 C 74.812 120.463, 74.401 109.673, 59.398 105.502 C 56.154 104.601, 52.876 103.659, 52.112 103.410 C 49.994 102.719, 51.363 92.821, 54.450 86.512 C 55.864 83.622, 58.776 79.264, 60.920 76.828 L 64.820 72.398 59.495 72.449 C 56.567 72.477, 53.898 72.229, 53.565 71.897 C 53.232 71.565, 53.866 67.515, 54.973 62.897 C 57.197 53.621, 57.614 40.750, 55.891 34.547 C 53.690 26.620, 46.823 22.380, 40.393 24.978 M 88.734 59.432 C 77.414 63.471, 62.342 76.514, 57.457 86.498 C 55.936 89.607, 54.485 94.300, 54.233 96.929 L 53.774 101.708 58.137 102.406 C 63.251 103.223, 70.464 107.183, 71.467 109.723 C 72.032 111.157, 72.615 110.631, 74.487 107 C 77.249 101.638, 84.911 92.588, 93.112 85 C 97.765 80.694, 99.484 78.257, 101.028 73.775 C 103.405 66.873, 103.518 63.185, 101.443 60.223 C 99.616 57.614, 94.688 57.307, 88.734 59.432 M 129.299 59.106 C 127.539 59.615, 125.887 60.375, 125.627 60.794 C 125.042 61.741, 128.661 66.672, 129.400 65.934 C 130.007 65.326, 133.170 57.951, 132.763 58.090 C 132.619 58.140, 131.060 58.597, 129.299 59.106 M 132.217 66.424 C 131.349 68.329, 131.421 69.105, 132.556 70.047 C 133.769 71.054, 134 70.667, 134 67.622 C 134 63.359, 133.704 63.160, 132.217 66.424 M 128.578 74.849 C 126.458 78.949, 126.588 79.729, 128.914 76.861 C 131.215 74.022, 131.366 74.148, 133.283 80.500 L 134.792 85.500 134.896 80.924 C 134.978 77.294, 134.499 75.878, 132.578 74.073 L 130.156 71.798 128.578 74.849 M 138 85.991 L 138 92.915 144.848 94.955 C 154.483 97.824, 158.540 100.773, 158.357 104.776 C 158.222 107.748, 158.444 107.944, 162.671 108.578 C 171.513 109.904, 180 107.162, 180 102.980 C 180 97.121, 165.106 87.459, 151.762 84.662 C 148.110 83.896, 143.520 82.324, 141.561 81.169 L 138 79.067 138 85.991 M 126.041 84.276 C 122.379 88.437, 114.627 104.588, 115.565 106.105 C 115.869 106.597, 117.554 107.007, 119.309 107.016 C 121.064 107.024, 125.200 107.683, 128.500 108.480 C 135.815 110.246, 139.360 110.331, 146.046 108.897 L 151.190 107.794 148.345 106.057 C 144.913 103.962, 135.002 94.520, 134.995 93.340 C 134.990 92.346, 130.465 81.091, 129.894 80.650 C 129.677 80.483, 127.943 82.115, 126.041 84.276 M 113.872 95.674 C 113.118 96.594, 109.863 99.294, 106.640 101.674 L 100.780 106 106.390 106 C 109.475 106, 112 105.831, 112 105.624 C 112 105.418, 113.119 102.718, 114.487 99.624 C 116.914 94.138, 116.630 92.311, 113.872 95.674 M 145 100.113 C 150.027 104.469, 153.995 106.405, 155.273 105.127 C 156.918 103.482, 154.465 101.318, 148.371 99.038 C 141.232 96.367, 140.825 96.496, 145 100.113 M 100.531 109.949 C 99.830 111.084, 106.340 112.467, 108.492 111.641 C 109.322 111.323, 110 110.599, 110 110.031 C 110 108.736, 101.328 108.661, 100.531 109.949 M 112.660 110.444 C 112.148 111.777, 113.240 111.991, 120.281 111.937 C 129.178 111.868, 128.523 110.768, 118.878 109.580 C 114.281 109.014, 113.148 109.172, 112.660 110.444 M 135.500 113.580 C 134.950 113.730, 130.900 114.162, 126.500 114.540 L 118.500 115.228 129.500 118.928 C 145.104 124.177, 148.083 125.990, 145.739 128.814 C 144.804 129.941, 141.596 130.063, 128.312 129.477 C 113.291 128.814, 111.977 128.895, 111.353 130.523 C 110.874 131.771, 111.487 132.879, 113.448 134.308 C 117.772 137.457, 128.604 150.626, 130.915 155.542 C 135.338 164.953, 132.785 172, 124.950 172 C 119.895 172, 116.196 170.126, 112.146 165.514 C 106.168 158.705, 104.203 150.239, 106.088 139.413 L 107.270 132.629 104.479 130.229 C 101.894 128.005, 101.167 127.880, 94.594 128.528 C 83.374 129.636, 81.844 131.144, 87.084 135.929 L 90.167 138.746 87.611 146.837 C 82.597 162.710, 82.401 172.474, 87.022 176.218 C 90.510 179.044, 95.637 179.399, 106.411 177.563 C 129.967 173.549, 134.703 172.981, 139.500 173.596 C 144.488 174.236, 151.303 177.063, 152.491 178.986 C 153.778 181.068, 154.984 179.811, 158.472 172.750 C 169.563 150.296, 166.506 130.948, 150.129 119.933 C 144.740 116.309, 137.316 113.085, 135.500 113.580 M 108.964 119.583 C 106.610 125.077, 106.540 126, 108.483 126 C 109.299 126, 111.099 123.765, 112.483 121.033 C 115.518 115.044, 115.522 115, 112.964 115 C 111.499 115, 110.379 116.283, 108.964 119.583 M 115.050 121.901 L 113.060 125.802 125.280 126.505 C 143.725 127.566, 144.296 127.116, 130.685 122.236 C 124.187 119.906, 118.459 118, 117.956 118 C 117.452 118, 116.145 119.755, 115.050 121.901 M 107.500 129 C 107.840 129.550, 108.316 130, 108.559 130 C 108.802 130, 109 129.550, 109 129 C 109 128.450, 108.523 128, 107.941 128 C 107.359 128, 107.160 128.450, 107.500 129 M 109.675 135.716 C 108.203 138.099, 107.777 148.902, 108.961 153.838 C 111.291 163.552, 122.008 172.207, 127.841 169.085 C 131.473 167.141, 131.562 163.585, 128.152 156.658 C 124.705 149.655, 110.801 133.896, 109.675 135.716" stroke="none" fill="black" fill-rule="evenodd"/>
</svg>