<svg xmlns="http://www.w3.org/2000/svg" width="200" height="200" viewBox="0 0 200 200" version="1.1">
	<path d="M 34.421 14.500 C 31.791 22.410, 17.545 102.372, 18.379 104.545 C 18.633 105.206, 20.478 106.055, 22.480 106.430 C 27.148 107.306, 33.531 113.058, 35.115 117.816 C 38.208 127.107, 35.308 142.628, 26.475 164.061 C 24.014 170.033, 22 175.837, 22 176.959 C 22 180.143, 24.729 179.413, 29.847 174.860 C 36.428 169.005, 44.947 165.308, 58.441 162.450 C 72.478 159.477, 75.984 158.108, 78.832 154.486 C 81.225 151.444, 81.766 144.158, 80.045 138.156 L 79.089 134.825 83.806 135.473 C 88.371 136.101, 102.737 134.806, 106.278 133.447 C 109.965 132.032, 113.106 144.420, 114.531 166 C 114.876 171.225, 115.613 177.300, 116.168 179.500 C 117.341 184.144, 120.538 188, 123.214 188 C 126.290 188, 132.146 184.444, 138.344 178.811 L 144.188 173.500 142.094 168.213 C 138.059 158.026, 139.858 149.251, 147.504 141.825 C 152.038 137.420, 157.899 134.408, 169.500 130.518 C 174.450 128.858, 178.391 127.050, 178.258 126.500 C 178.122 125.936, 172.676 125.282, 165.758 125 C 154.987 124.561, 152.748 124.153, 147.303 121.637 C 143.894 120.063, 140.348 117.937, 139.421 116.913 C 137.871 115.200, 137.864 114.857, 139.333 112.615 C 141.126 109.879, 149.132 105.867, 162.500 101.005 C 184.884 92.866, 186.475 88.296, 168.253 84.484 L 161.611 83.094 155.692 87.047 C 145.966 93.541, 145.890 92.821, 154.813 78.784 C 164.927 62.876, 166.918 57.673, 163.411 56.327 C 161.283 55.511, 152.181 59.990, 143.083 66.331 C 136.411 70.980, 135.497 72.023, 133.990 76.699 C 130.289 88.184, 123.024 93.236, 109.345 93.839 C 90.655 94.661, 77.060 85.190, 77.016 71.315 C 76.998 65.561, 77.912 62.575, 81.655 56.163 L 84.186 51.826 86.600 54.094 C 87.928 55.341, 91.539 61.298, 94.625 67.331 C 103.919 85.501, 110.231 90.454, 119.034 86.485 C 121.183 85.516, 123.658 83.930, 124.536 82.961 C 127.167 80.053, 124.472 79.740, 120.429 82.483 C 111.989 88.211, 106.843 84.863, 98.093 67.951 C 95.119 62.203, 91.775 56.190, 90.660 54.588 L 88.634 51.677 91.942 52.338 C 93.761 52.702, 97.452 53, 100.144 53 C 104.869 53, 105.016 53.087, 104.409 55.507 C 104.024 57.042, 104.374 58.922, 105.312 60.353 C 107.555 63.777, 116.652 69.348, 118.710 68.558 C 120.053 68.043, 119.469 67.354, 115.957 65.307 C 107.813 60.562, 105.438 57.467, 108.250 55.267 C 108.946 54.723, 125.416 53.790, 145.398 53.163 C 165.142 52.544, 181.486 51.847, 181.718 51.615 C 182.776 50.557, 177.703 43.010, 172.854 38.428 C 166.259 32.198, 157.166 27.040, 146 23.197 C 141.325 21.588, 135.305 19.264, 132.622 18.032 C 122.749 13.500, 114.569 12.833, 73.127 13.179 C 48.721 13.383, 34.632 13.864, 34.421 14.500 M 63 16.241 C 48.975 16.752, 37.224 17.470, 36.887 17.835 C 35.620 19.209, 21 96.968, 21 102.331 C 21 102.614, 22.614 103.377, 24.586 104.028 C 26.558 104.679, 29.779 106.623, 31.743 108.347 C 36.962 112.929, 38.952 118.078, 38.978 127.062 C 39.009 137.716, 36.663 146.179, 27.135 169.785 C 25.210 174.553, 25.174 174.977, 26.762 174.127 C 27.730 173.609, 29.417 172.196, 30.511 170.986 C 34.634 166.427, 44.810 162.473, 61.446 158.965 C 75.654 155.969, 78.479 153.772, 78.285 145.869 C 78.114 138.891, 76.610 135, 74.084 135 C 72.257 135, 69.904 133.019, 71.691 132.985 C 72.136 132.976, 73.091 132.594, 73.814 132.136 C 74.848 131.480, 74.438 129.761, 71.884 124.049 C 68.821 117.198, 68.708 116.536, 69.854 112.147 C 73.169 99.454, 83.589 94.881, 97.414 100.054 C 107.237 103.729, 117 114.808, 117 122.281 C 117 123.814, 115.702 126.409, 113.919 128.440 L 110.837 131.949 112.884 137.418 C 114.941 142.919, 116.279 151.847, 117.538 168.500 C 118.380 179.630, 120.310 185, 123.469 185 C 126.100 185, 131.985 181.260, 137.121 176.325 L 140.742 172.846 138.871 166.834 C 135.519 156.065, 136.892 149.468, 144.132 141.546 C 148.390 136.887, 153.902 133.460, 164 129.192 C 166.206 128.260, 165.884 128.127, 161.273 128.068 C 155.234 127.989, 144.190 124.145, 139.309 120.422 C 136.862 118.556, 136 117.118, 136 114.904 C 136 109.229, 140.798 106.199, 162.979 97.866 C 168.743 95.701, 174.556 93.210, 175.898 92.331 L 178.338 90.733 175.919 89.478 C 174.588 88.789, 170.924 87.694, 167.776 87.047 C 162.201 85.900, 161.939 85.946, 157.776 88.794 C 143.021 98.888, 140.993 95.632, 151.620 78.914 C 159.077 67.182, 162.659 60.326, 161.788 59.455 C 160.931 58.598, 152.548 63.103, 144.638 68.670 C 138.648 72.887, 137.564 74.144, 136.103 78.569 C 133.228 87.280, 127.412 92.909, 118.581 95.532 C 107.748 98.749, 92.382 96.180, 83.792 89.716 C 81.210 87.773, 78.372 84.298, 76.670 80.993 C 74.238 76.273, 73.903 74.649, 74.288 69.455 C 74.535 66.130, 75.483 61.967, 76.394 60.205 C 77.306 58.442, 77.899 57, 77.714 57 C 77.528 57, 75.513 57.900, 73.236 59 C 70.959 60.100, 68.261 61, 67.241 61 C 66.189 61, 64.064 62.875, 62.334 65.328 C 59.429 69.450, 59.258 70.249, 58.748 82.078 C 58.122 96.604, 55.561 106.153, 50.851 111.517 C 44.218 119.072, 38.022 113.482, 38.006 99.926 C 37.997 92.618, 40.926 77.435, 44.745 65 C 49.897 48.222, 54.662 30.094, 55.477 24.171 C 56.184 19.028, 57.176 17.373, 58.909 18.444 C 59.437 18.770, 59.242 21.418, 58.445 24.753 C 56.515 32.828, 56.595 47.946, 58.593 52.942 C 60.912 58.736, 63.335 59.052, 68.358 54.219 C 73.162 49.596, 75.945 48, 79.197 48 C 80.653 48, 81.896 47.157, 82.513 45.750 C 83.500 43.500, 83.501 43.500, 104.961 43.870 L 126.423 44.239 120.553 38.874 C 114.448 33.295, 110.872 27.206, 111.743 23.874 C 112.432 21.239, 115.536 19.688, 121.500 18.996 L 126.500 18.417 119.500 17.268 C 108.926 15.532, 91.254 15.211, 63 16.241 M 119.699 22.072 C 114.396 22.951, 113.417 24.178, 114.990 27.975 C 116.447 31.493, 129.746 44.244, 131.406 43.713 C 133.433 43.065, 139 32.634, 138.968 29.544 C 138.917 24.614, 136.965 23.037, 129.872 22.197 C 126.367 21.782, 121.790 21.725, 119.699 22.072 M 141.576 27.447 C 142.330 30.452, 140.493 36.329, 137.340 40.998 L 134.978 44.497 138.211 45.334 C 141.205 46.110, 141.298 46.255, 139.472 47.290 C 138.387 47.905, 133.900 48.955, 129.500 49.622 C 122.510 50.682, 124.779 50.764, 147.469 50.273 C 161.751 49.963, 174.477 49.432, 175.748 49.092 L 178.059 48.474 174.971 44.275 C 171.193 39.137, 160.624 31.968, 150.942 27.976 C 141.998 24.288, 140.766 24.218, 141.576 27.447 M 51.247 52.901 C 50.021 57.080, 47.872 64.321, 46.472 68.990 C 41.580 85.306, 39.681 102.399, 42.063 108.665 C 44.320 114.603, 47.655 113.554, 51.318 105.755 C 54.594 98.779, 56.111 90.927, 56.527 78.795 C 56.828 70.046, 57.193 68.306, 59.450 64.896 L 62.030 60.998 59.024 58.249 C 57.071 56.462, 55.574 53.715, 54.748 50.401 L 53.477 45.302 51.247 52.901 M 85 46.893 C 85 48.348, 87.799 49.020, 98.434 50.119 C 107.309 51.037, 109.367 50.932, 115.828 49.237 L 123.157 47.315 111.828 46.662 C 95.960 45.748, 85 45.842, 85 46.893 M 76.500 51.486 C 73.276 52.999, 69 56.410, 69 57.469 C 69 57.826, 71.700 56.678, 75 54.919 C 78.300 53.160, 81 51.334, 81 50.861 C 81 49.693, 80.036 49.827, 76.500 51.486 M 82.619 101.012 C 77.014 102.734, 72 109.501, 72 115.347 C 72 117.125, 75.917 127.470, 77.435 129.703 C 77.511 129.815, 80.615 128.803, 84.332 127.453 C 92.741 124.401, 100.235 124.236, 104.774 127.004 C 108.847 129.487, 109.513 129.487, 112 127 C 116.162 122.838, 114.093 116.106, 106.502 109.109 C 99.192 102.370, 89.214 98.988, 82.619 101.012 M 86 129.644 C 77.678 132.508, 78.795 133.271, 90.500 132.720 C 96.550 132.434, 102.351 131.859, 103.390 131.440 C 105.218 130.704, 105.219 130.634, 103.449 129.339 C 101.001 127.549, 91.612 127.713, 86 129.644" stroke="none" fill="black" fill-rule="evenodd"/>
</svg>