<svg xmlns="http://www.w3.org/2000/svg" width="200" height="200" viewBox="0 0 200 200" version="1.1">
	<path d="M 40.149 20.790 C 37.694 24.238, 34.746 32.962, 32.474 43.500 C 31.526 47.900, 30.063 52.285, 29.224 53.245 C 27.907 54.752, 27.822 57.278, 28.599 71.745 C 29.888 95.709, 29.563 112.261, 27.647 120.250 C 24.481 133.457, 17.988 142.949, 7.858 149.182 C 5.186 150.826, 3 152.426, 3 152.738 C 3 153.724, 29.802 152.004, 37.555 150.521 C 50.720 148.002, 59.438 142.982, 63.095 135.814 C 66.732 128.684, 66.641 123.075, 62.618 106.639 C 60.628 98.508, 59 90.149, 59 88.063 C 59 80.860, 64.612 77.018, 75.152 77.006 C 79.473 77, 79.883 77.224, 80.902 80.149 C 82.988 86.134, 82.145 92.052, 77.149 106.500 C 71.034 124.183, 70.518 126.912, 72.431 131.489 C 74.663 136.830, 80.633 139.155, 92.893 139.457 C 110.423 139.889, 112.649 140.070, 110.500 140.887 C 109.400 141.306, 103.100 141.760, 96.500 141.897 C 89.900 142.035, 84.164 142.472, 83.754 142.870 C 83.343 143.267, 82.531 146.272, 81.948 149.546 C 80.446 157.986, 80.306 158.334, 76.472 163.157 C 72.941 167.599, 71.774 173, 74.345 173 C 76.386 173, 78.912 169.740, 80.870 164.582 C 83.002 158.966, 89.418 153.791, 101.498 147.944 C 109.812 143.920, 114.002 143.017, 113.998 145.250 C 113.997 145.938, 111.733 152.572, 108.968 159.993 C 100.367 183.073, 98.453 191, 101.480 191 C 103.172 191, 104.761 188.129, 114.205 168 C 117.947 160.025, 121.886 151.700, 122.959 149.500 L 124.909 145.500 124.341 152.500 C 123.618 161.416, 125.121 167.082, 129.096 170.427 C 132.650 173.418, 134.891 173.620, 139.619 171.377 C 147.573 167.602, 150.038 157.804, 144.500 151.975 C 141.310 148.617, 136.265 145.708, 131.750 144.623 C 130.238 144.259, 129 143.292, 129 142.473 C 129 141.260, 130.568 141.014, 137.490 141.143 L 145.979 141.302 149.094 146.820 C 155.778 158.664, 168.899 168.417, 177.323 167.804 C 181.037 167.534, 181.535 167.198, 181.814 164.776 C 182.234 161.130, 175.456 153.894, 164.775 146.587 C 157.014 141.277, 156.847 141.081, 159.627 140.514 C 171.953 138, 177.172 135.038, 178.992 129.524 C 179.957 126.599, 179.814 125.369, 178.045 121.369 C 176.899 118.779, 174.460 114.823, 172.624 112.580 C 170.788 110.336, 168.976 107.517, 168.597 106.316 C 168.218 105.115, 165.678 101.075, 162.954 97.338 C 160.229 93.600, 158.010 89.858, 158.022 89.021 C 158.063 86.149, 162.023 78.738, 170.130 66.361 L 178.249 53.967 177.805 45.512 C 177.361 37.045, 175.639 33, 172.480 33 C 166.673 33, 153.456 54.604, 137.522 90.137 L 131.407 103.774 129.750 100.887 C 128.839 99.299, 128.553 98, 129.115 98 C 129.676 98, 129.265 96.763, 128.199 95.250 C 123.882 89.121, 123.676 82.203, 127.596 75.001 C 130.291 70.049, 130.366 70, 135.225 70 C 144.038 70, 146.951 66.477, 144.599 58.663 C 140.715 45.759, 122 28.385, 122 37.684 C 122 41.517, 125.981 49.419, 127.265 48.135 C 127.950 47.450, 127.618 45.724, 126.240 42.811 C 125.118 40.440, 124.388 38.305, 124.617 38.067 C 125.443 37.207, 130.598 41.797, 135.240 47.525 L 139.979 53.375 125.418 58.093 C 117.409 60.687, 110.610 63.057, 110.309 63.358 C 110.008 63.659, 113.760 65.122, 118.647 66.610 L 127.532 69.315 124.685 74.907 C 122.300 79.592, 121.902 81.432, 122.232 86.236 C 122.584 91.369, 122.461 91.828, 121.063 90.606 C 116.303 86.449, 107.962 84.395, 102.174 85.953 C 97.269 87.274, 94.585 90.118, 95.506 93.020 C 96.638 96.586, 102.380 98.285, 114.500 98.638 L 125.500 98.960 127.706 103.054 L 129.912 107.149 127.956 112.111 C 126.880 114.841, 126 117.229, 126 117.418 C 126 117.608, 123.938 118.282, 121.417 118.917 C 117.287 119.957, 116.313 119.832, 111.562 117.657 L 106.290 115.243 97.097 119.665 C 87.922 124.078, 85.726 126.126, 87.868 128.268 C 88.714 129.114, 92.248 128.799, 101.751 127.032 C 123.747 122.941, 123.385 122.848, 119.947 131.717 L 117.642 137.660 104.571 137.301 C 86.598 136.806, 81.876 136.211, 78.211 133.982 C 72.439 130.472, 72.754 126.591, 80.562 105 C 85.050 92.589, 85.767 82.928, 82.633 77.113 L 80.807 73.726 74.038 74.294 C 65.823 74.982, 60.713 76.982, 58.488 80.378 C 55.438 85.033, 55.613 89.711, 59.405 104.909 C 61.382 112.834, 63 121.510, 63 124.191 C 63 129.699, 60.958 135.344, 57.702 138.834 C 52.516 144.394, 39.582 148.380, 22.962 149.540 L 12.500 150.270 17.648 144.802 C 29.971 131.716, 34.162 113.796, 31.850 84.083 C 30.232 63.291, 30.222 55.107, 31.813 54.119 C 32.535 53.671, 34.229 48.425, 35.577 42.462 C 38.324 30.307, 42.138 21, 44.372 21 C 46.880 21, 49.464 25.326, 55.948 40.379 C 63.038 56.839, 67.443 63, 72.123 63 C 76.060 63, 79.445 59.486, 82.990 51.720 C 85.732 45.713, 85.768 45.431, 84.040 43.500 C 81.566 40.736, 80 37.501, 80 35.155 C 80 32.359, 85.189 28.337, 91.297 26.398 C 97.950 24.286, 125.651 23.324, 135.525 24.863 C 150.377 27.177, 158.576 31.028, 156.444 34.687 C 155.556 36.211, 148.015 40.723, 143.717 42.303 C 142.874 42.613, 142.817 43.090, 143.533 43.858 C 144.280 44.659, 146.266 44.161, 150.709 42.060 C 164.944 35.328, 162.026 27.965, 143.271 23.295 C 134.380 21.081, 102.223 20.814, 94 22.886 C 78.956 26.676, 74.793 32.110, 79.622 41.654 L 82.419 47.182 79.541 52.678 C 77.958 55.701, 75.594 58.875, 74.287 59.731 C 72.040 61.204, 71.746 61.131, 68.888 58.394 C 65.803 55.440, 63.512 51.054, 55.961 33.640 C 49.276 18.223, 44.653 14.466, 40.149 20.790 M 168.790 38.750 C 162.448 45.498, 151.677 65.242, 139.528 92.386 L 132.866 107.272 134.058 112.244 L 135.251 117.215 139.376 116.543 C 141.644 116.174, 146.841 115.491, 150.924 115.027 C 166.556 113.248, 167.130 118.470, 152.127 125.968 C 143.786 130.136, 142.018 128.599, 149.465 123.655 C 158.134 117.899, 157.079 117.108, 143.432 119.138 C 136.117 120.226, 135.722 120.421, 134.391 123.606 C 133.626 125.437, 133 127.166, 133 127.448 C 133 128.493, 141.007 132, 143.393 132 C 144.940 132, 146.090 132.708, 146.466 133.892 C 147.811 138.130, 156.514 138.968, 167.421 135.911 C 172.051 134.613, 177 130.028, 177 127.037 C 177 124.231, 173.684 117.849, 170.111 113.778 C 168.529 111.975, 166.497 108.735, 165.596 106.577 C 164.695 104.420, 162.462 100.820, 160.634 98.577 C 158.806 96.335, 156.780 93.497, 156.131 92.271 C 153.950 88.148, 156.711 81.682, 167.894 64.725 C 174.938 54.043, 175 53.890, 174.986 47.225 C 174.963 35.600, 173.557 33.678, 168.790 38.750 M 127.037 60.311 L 117.573 63.440 123.446 65.228 C 126.675 66.211, 129.394 66.900, 129.488 66.758 C 129.582 66.616, 131.593 64.362, 133.957 61.750 C 136.321 59.138, 137.860 57.041, 137.377 57.091 C 136.895 57.140, 132.242 58.590, 127.037 60.311 M 137.111 62.172 L 132.721 67.129 137.009 66.814 C 142.178 66.435, 143.753 64.518, 142.426 60.217 L 141.500 57.215 137.111 62.172 M 100.696 89.180 C 98.933 89.823, 98.008 90.803, 98.204 91.821 C 98.661 94.194, 105.334 95.836, 114.872 95.923 C 124.515 96.012, 124.674 95.009, 115.721 90.548 C 110.390 87.892, 105.461 87.443, 100.696 89.180 M 129.638 114.500 C 129.288 115.414, 129.637 116, 130.531 116 C 131.339 116, 132 115.325, 132 114.500 C 132 113.675, 131.598 113, 131.107 113 C 130.616 113, 129.955 113.675, 129.638 114.500 M 158 118.059 C 158 118.641, 158.450 118.840, 159 118.500 C 159.550 118.160, 160 117.684, 160 117.441 C 160 117.198, 159.550 117, 159 117 C 158.450 117, 158 117.477, 158 118.059 M 99.095 121.651 C 95.022 123.506, 91.909 125.242, 92.177 125.510 C 92.746 126.079, 109.893 123.069, 111.774 122.070 C 112.617 121.623, 111.939 120.866, 109.774 119.836 C 106.617 118.335, 106.236 118.400, 99.095 121.651 M 128.250 122.031 C 125.620 123.088, 125.337 124.532, 127.590 125.396 C 129.627 126.178, 130.627 125.534, 131.286 123.016 C 131.865 120.799, 131.561 120.700, 128.250 122.031 M 122.857 131.591 C 121.744 134.108, 121.062 136.395, 121.341 136.674 C 122.443 137.777, 125.758 135.826, 126.848 133.434 C 128.413 130, 128.295 128.327, 126.440 127.615 C 125.302 127.179, 124.333 128.254, 122.857 131.591 M 131.667 131.667 C 130.411 132.922, 131 134, 132.941 134 C 135.456 134, 136.448 132.386, 134.412 131.605 C 132.460 130.856, 132.478 130.855, 131.667 131.667 M 135.320 136.348 C 128.560 138.211, 129.160 139, 137.333 139 C 141.550 139, 145 138.622, 145 138.161 C 145 137.464, 140.358 134.781, 139.703 135.098 C 139.591 135.152, 137.619 135.715, 135.320 136.348 M 119 141.383 C 119 141.594, 119.900 142.002, 121 142.290 C 122.100 142.577, 123 142.405, 123 141.906 C 123 141.408, 122.100 141, 121 141 C 119.900 141, 119 141.173, 119 141.383 M 151.186 145.167 C 155.108 152.229, 162.652 159.670, 169.213 162.949 C 180.615 168.646, 182.493 165.636, 173.117 156.693 C 167.105 150.959, 152.554 141, 150.186 141 C 149.261 141, 149.557 142.233, 151.186 145.167 M 90.250 144.737 C 85.971 145.037, 85 145.442, 85 146.927 C 85 147.930, 84.697 150.263, 84.328 152.111 L 83.655 155.473 86.078 153.743 C 87.410 152.791, 91.650 150.216, 95.500 148.019 C 103.254 143.596, 103.587 143.804, 90.250 144.737 M 111.523 161.250 C 104.552 180.502, 104.195 181.737, 107.106 176.500 C 110.078 171.154, 121 147.133, 121 145.942 C 121 145.424, 120.191 145, 119.203 145 C 117.789 145, 116.153 148.463, 111.523 161.250 M 127.607 148.582 C 126.394 151.743, 127.017 162.235, 128.619 165.610 C 130.529 169.635, 133.747 170.762, 138.138 168.943 C 141.396 167.593, 144.990 162.750, 144.996 159.700 C 145.004 155.909, 141.980 152.169, 136.831 149.603 C 130.821 146.608, 128.464 146.347, 127.607 148.582" stroke="none" fill="black" fill-rule="evenodd"/>
</svg>