<svg xmlns="http://www.w3.org/2000/svg" width="200" height="200" viewBox="0 0 200 200" version="1.1">
	<path d="M 136.015 19.596 C 131.348 20.890, 124.247 22.500, 120.235 23.174 C 115.991 23.887, 113.104 24.839, 113.333 25.450 C 115.401 30.975, 115.933 30.641, 103.970 31.326 L 92.903 31.959 89.883 28.519 C 88.222 26.628, 84.472 23.910, 81.548 22.480 C 70.745 17.194, 58.638 18.171, 43.296 25.564 C 38.234 28.004, 32.787 30, 31.192 30 C 21.046 30, 14.373 50.343, 13.312 84.504 C 12.404 113.710, 15.546 137.182, 21.584 146.306 C 23.871 149.762, 24.513 150.128, 27.817 149.860 C 30.327 149.656, 33.162 150.427, 36.717 152.280 C 40.229 154.111, 43.465 155, 46.622 155 C 50.794 155, 51.730 154.558, 55.131 150.983 C 62.535 143.200, 64.805 129.998, 65.920 88.246 C 66.335 72.706, 66.997 59.669, 67.392 59.275 C 67.786 58.881, 68.559 59.220, 69.110 60.029 C 70.138 61.540, 69.946 69.611, 67.838 113.500 C 66.673 137.761, 67.173 162.048, 68.962 168.134 C 72.327 179.583, 79.292 179.786, 88.961 168.716 C 90.779 166.635, 92.505 165.172, 92.797 165.464 C 93.089 165.756, 94.348 170.030, 95.595 174.963 C 98.801 187.646, 98.537 187.367, 104.506 184.369 C 114.624 179.287, 122.672 168.770, 126.598 155.500 L 128.373 149.500 129.827 157 C 130.626 161.125, 131.404 164.649, 131.555 164.831 C 133.102 166.701, 139.368 157.716, 148.011 141.232 C 154.151 129.522, 153.295 133.576, 142.299 168.275 C 138.678 179.701, 135.975 189.309, 136.293 189.626 C 136.610 189.943, 140.015 189.672, 143.859 189.024 C 156.564 186.881, 166.326 178.634, 171.074 166.034 C 175.308 154.797, 176.372 146.590, 176.392 125 C 176.416 100.133, 175.185 42.851, 174.614 42.281 C 174.388 42.055, 170.488 46.512, 165.948 52.185 C 161.407 57.858, 157.103 63.143, 156.382 63.929 C 155.264 65.147, 154.256 64.587, 149.546 60.132 C 142.882 53.829, 138.469 51.841, 130.747 51.664 C 125.133 51.535, 124.924 51.435, 125.206 49.015 C 125.493 46.560, 125.738 46.486, 135.500 45.925 C 146.344 45.302, 149.555 44.593, 152.250 42.227 C 156.752 38.274, 151.937 34.576, 139.852 32.705 C 136.084 32.122, 133 31.320, 133 30.923 C 133 29.910, 143.960 20, 145.081 20 C 145.586 20, 146 19.325, 146 18.500 C 146 16.722, 146.628 16.653, 136.015 19.596 M 53.617 23.987 C 50.381 25.020, 47.320 26.280, 46.814 26.786 C 46.254 27.346, 46.766 29.183, 48.122 31.482 L 50.350 35.258 57.925 34.618 C 81.753 32.603, 86.333 32.067, 87.206 31.194 C 88.490 29.910, 82.648 25.493, 77.056 23.520 C 71.273 21.479, 60.814 21.688, 53.617 23.987 M 125.579 24.872 C 121.222 25.782, 117.517 26.970, 117.345 27.513 C 116.663 29.667, 118.752 30.839, 123.746 31.104 C 128.789 31.371, 129.114 31.227, 132.569 27.191 C 136.557 22.531, 136.645 22.561, 125.579 24.872 M 39.500 30.474 C 37.300 31.829, 34.038 32.952, 32.250 32.969 C 22.558 33.062, 17.203 50.710, 16.294 85.557 C 15.513 115.483, 18.557 138.149, 24.329 145.388 C 26.309 147.871, 26.814 148.042, 29.104 146.999 C 31.314 145.991, 32.181 146.183, 35.450 148.402 C 49.020 157.610, 57.166 151.101, 60.983 128 C 61.574 124.425, 62.481 106.923, 62.999 89.108 L 63.940 56.715 59.220 51.544 C 56.624 48.700, 53.375 44.717, 52 42.693 C 50.526 40.523, 48.679 39.011, 47.500 39.006 C 45.552 38.999, 45.509 39.549, 45.842 60.249 C 46.181 81.305, 44.850 101.543, 42.884 105.216 C 42.323 106.264, 41.333 106.942, 40.682 106.722 C 39.079 106.181, 39.150 72.701, 40.791 56 C 41.466 49.125, 42.217 41.191, 42.460 38.369 C 42.703 35.547, 43.198 32.059, 43.560 30.619 C 43.921 29.178, 44.056 28.002, 43.858 28.005 C 43.661 28.008, 41.700 29.119, 39.500 30.474 M 96.550 34.936 C 97.770 36.138, 112.664 41, 115.128 41 C 117.095 41, 117.365 39.965, 116.370 36.250 C 115.795 34.105, 115.295 34, 105.683 34 C 99.410 34, 95.959 34.354, 96.550 34.936 M 119.480 37.748 C 120.116 41.135, 121.379 42.943, 123.141 42.985 C 123.705 42.998, 127 35.736, 127 34.480 C 127 34.216, 125.150 34, 122.889 34 L 118.777 34 119.480 37.748 M 68 36.539 C 61.125 37.251, 54.659 37.871, 53.631 37.917 C 51.955 37.991, 52.047 38.385, 54.533 41.750 C 57.946 46.369, 64.166 53, 65.086 53 C 65.461 53, 66.001 52.102, 66.288 51.005 C 66.805 49.028, 69.600 47.266, 70.612 48.279 C 70.901 48.568, 71.446 50.986, 71.822 53.652 C 72.490 58.389, 72.620 58.541, 77.503 60.269 C 81.010 61.511, 84.309 61.900, 88.567 61.574 C 94.565 61.115, 113.332 55.725, 115.750 53.767 C 117.611 52.260, 117.400 44, 115.500 44 C 114.675 44, 109.950 42.698, 105 41.106 C 98.021 38.861, 96 38.525, 96 39.606 C 96 42.013, 93.153 41.127, 90.842 38 C 88.269 34.520, 87.785 34.489, 68 36.539 M 128.745 38.409 C 127.785 40.422, 127 42.278, 127 42.534 C 127 43.511, 143.449 42.946, 147.134 41.842 C 154.857 39.528, 150.190 36.535, 136.995 35.340 L 130.489 34.751 128.745 38.409 M 119.829 49 C 119.260 54.967, 121.136 54.433, 122.462 48.250 C 123.001 45.738, 122.824 45, 121.684 45 C 120.695 45, 120.085 46.314, 119.829 49 M 157.626 66.946 L 143.163 84.892 148.470 85.994 C 151.388 86.600, 154.523 87.920, 155.436 88.929 C 158.617 92.444, 154.154 94.708, 139.500 97.012 C 135.650 97.617, 132.228 98.424, 131.896 98.806 C 127.796 103.517, 114.896 121.229, 115.283 121.617 C 117.109 123.442, 136.696 114.355, 149.112 105.924 C 152.290 103.766, 155.402 102, 156.028 102 C 158.993 102, 155.279 105.262, 142.431 113.940 L 128.456 123.379 128.783 130.440 C 129.304 141.681, 132.979 160.263, 134.441 159.049 C 135.108 158.495, 138.975 151.981, 143.034 144.572 C 152.164 127.909, 153.473 126.082, 155.113 127.717 C 156.073 128.674, 156.061 130.164, 155.056 134.717 C 153.792 140.436, 143.551 174.457, 140.571 182.835 L 139.028 187.171 143.264 186.486 C 158.009 184.102, 167.223 173.721, 171.655 154.500 C 173.297 147.381, 173.455 142.975, 173.093 114.500 C 172.869 96.900, 172.644 74.963, 172.593 65.750 C 172.542 56.537, 172.407 49, 172.294 49 C 172.181 49, 165.580 57.076, 157.626 66.946 M 68.079 54.583 C 68.127 55.748, 68.364 55.985, 68.683 55.188 C 68.972 54.466, 68.936 53.603, 68.604 53.271 C 68.272 52.939, 68.036 53.529, 68.079 54.583 M 125.250 54.603 C 123.658 55.321, 123.574 67.890, 125.103 76.668 C 126.493 84.655, 127.689 84.748, 135 77.441 C 138.025 74.418, 143.061 70.655, 146.192 69.081 L 151.884 66.218 148.192 62.511 C 146.161 60.472, 142.755 57.910, 140.622 56.817 C 136.767 54.841, 127.638 53.526, 125.250 54.603 M 116.563 60.716 C 115.498 63.305, 110.410 70.968, 105.256 77.744 C 90.400 97.275, 87.349 105.585, 88.275 124 C 89.144 141.287, 90.616 141.763, 91.289 124.973 C 92.049 106.034, 94.665 96.310, 100.755 89.799 C 102.144 88.313, 104.521 86.825, 106.037 86.492 C 109.187 85.800, 115.387 88.076, 118.616 91.109 L 120.759 93.122 123.329 89.839 C 124.751 88.022, 125.469 86.290, 124.936 85.961 C 123.458 85.047, 121 70.653, 121 62.912 C 121 54.574, 119.413 53.788, 116.563 60.716 M 106.649 60.192 C 93.106 65.025, 85.319 65.568, 74.391 62.443 C 72.055 61.776, 72.174 59.747, 70.358 131.069 C 69.285 173.162, 72.777 181.697, 85.606 168.345 C 93.291 160.347, 93.342 159.917, 88.597 143 C 86.951 137.133, 85.713 129.676, 85.357 123.500 C 84.349 105.968, 88.456 94.802, 102.460 77 C 109.237 68.384, 115.732 58.228, 114.849 57.628 C 114.657 57.497, 110.967 58.651, 106.649 60.192 M 42.202 75.500 C 42.084 78.800, 41.781 85.325, 41.527 90 C 41.095 97.964, 41.129 98.153, 42.064 93 C 42.613 89.975, 42.916 83.450, 42.739 78.500 C 42.505 71.994, 42.356 71.163, 42.202 75.500 M 146 72.132 C 141.260 75.008, 133 81.973, 133 83.093 C 133 83.592, 134.693 84, 136.763 84 C 140.145 84, 140.981 83.425, 145.013 78.322 C 152.270 69.139, 152.414 68.239, 146 72.132 M 126.531 90.224 L 122.862 94.500 127.125 94.817 C 131.005 95.105, 131.677 94.791, 134.601 91.317 C 136.368 89.218, 137.743 87.447, 137.657 87.383 C 137.571 87.318, 135.858 86.969, 133.851 86.606 C 130.461 85.994, 129.940 86.251, 126.531 90.224 M 138.188 90.960 C 135.544 94.535, 135.498 94.909, 137.750 94.477 C 149.720 92.180, 152.129 91.600, 152.555 90.911 C 153.135 89.972, 146.655 88.014, 142.938 88.006 C 141.255 88.002, 139.626 89.015, 138.188 90.960 M 102.503 92.297 C 97.973 96.827, 95.192 106.409, 93.897 121.948 C 92.426 139.589, 95.469 168.584, 100.058 180.652 L 100.971 183.055 104.760 181.122 C 109.395 178.758, 117.124 170.658, 119.770 165.392 C 124.349 156.279, 125.501 150.904, 125.468 138.801 C 125.451 132.367, 125.194 126.861, 124.898 126.564 C 124.601 126.268, 121.466 127.585, 117.930 129.490 C 114.393 131.396, 110.698 132.965, 109.719 132.977 C 107.067 133.011, 106.505 130.261, 108.366 126.358 C 109.560 123.854, 109.740 122.383, 109.017 121.031 C 107.194 117.626, 110.666 107.730, 116.909 98.535 C 118.812 95.732, 118.828 95.468, 117.213 93.683 C 114.957 91.190, 110.625 89, 107.950 89 C 106.767 89, 104.316 90.484, 102.503 92.297 M 116.612 104.250 C 114.694 107.688, 112.647 111.767, 112.063 113.315 C 110.789 116.688, 110.669 120.297, 111.845 119.833 C 112.309 119.650, 116.355 114.662, 120.835 108.750 L 128.980 98 124.539 98 C 120.130 98, 120.073 98.045, 116.612 104.250 M 114.750 124.716 C 112.235 125.097, 109.174 128.508, 110.320 129.653 C 110.847 130.180, 121 125.266, 121 124.483 C 121 123.971, 119.237 124.037, 114.750 124.716" stroke="none" fill="black" fill-rule="evenodd"/>
</svg>