<svg xmlns="http://www.w3.org/2000/svg" width="200" height="200" viewBox="0 0 200 200" version="1.1">
	<path d="M 121.500 24.559 C 105.550 28.634, 91.569 31.762, 90.431 31.510 C 89.293 31.259, 85.552 31.505, 82.116 32.059 C 73.684 33.417, 66.147 31.938, 55.527 26.842 C 48.437 23.440, 46.435 22.883, 43.366 23.459 C 36.928 24.667, 27.595 35.460, 13.190 58.355 C 10.818 62.126, 9.019 65.353, 9.193 65.526 C 9.367 65.700, 13.107 64.981, 17.504 63.929 C 28.623 61.268, 38.336 61.336, 41.094 64.094 C 44.052 67.052, 43.085 70.957, 35.916 85.004 C 32.662 91.381, 30 97.273, 30 98.099 C 30 100.442, 32.126 102, 35.321 102 L 38.243 102 33.759 107.250 C 25.930 116.419, 24 119.866, 24 124.685 C 24 130.327, 26.283 132.684, 36.398 137.483 C 40.590 139.473, 44.748 142.212, 45.638 143.570 C 48.243 147.546, 45.374 153.392, 36.240 162.721 C 32.050 166.999, 27.811 171.625, 26.818 173 C 24.632 176.028, 24.443 180.849, 26.480 181.631 C 31.448 183.537, 61.755 160.569, 87.550 135.348 L 96.599 126.500 91.908 137 C 84.131 154.408, 82.465 161.065, 85.200 163.800 C 87.203 165.803, 89.101 165.238, 101.335 159 C 107.807 155.700, 114.179 153, 115.495 153 C 119.327 153, 121 156.503, 121 164.527 C 121 170.688, 121.393 172.227, 124.020 176.371 C 131.852 188.720, 138.046 189.143, 141.530 177.565 C 143.080 172.415, 144.598 158.542, 145.567 140.655 C 145.920 134.140, 146.581 129.190, 147.036 129.655 C 147.881 130.518, 152.088 146.776, 155.984 164.231 L 158.155 173.961 162.328 171.866 C 171.502 167.260, 176.914 160.765, 176.978 154.285 C 177.017 150.403, 174.098 143.329, 168.354 133.380 C 161.715 121.880, 160.662 117.054, 164.014 113.485 C 166.214 111.143, 171.467 108.788, 177.250 107.550 C 180.593 106.835, 180.971 104, 177.723 104 C 174.298 104, 171.296 101.425, 169.944 97.330 C 168.330 92.441, 169.245 82.446, 173.081 63.035 C 176.805 44.196, 176.841 34.396, 173.202 30.759 C 169.830 27.389, 163.151 27.798, 154.435 31.909 C 148.695 34.617, 145.820 35.297, 137.750 35.856 C 132.387 36.228, 128 36.275, 128 35.959 C 128 35.644, 133.470 32.950, 140.155 29.972 C 152.928 24.283, 160.482 19.589, 159.479 17.966 C 158.203 15.901, 149.423 17.426, 121.500 24.559 M 122.500 27.160 C 107.650 31.011, 93.305 34.212, 90.623 34.274 L 85.746 34.386 88.320 36.443 C 90.590 38.257, 92.024 38.462, 100.447 38.181 C 109.686 37.873, 110 37.786, 110 35.538 C 110 32.384, 112.356 31.712, 118.554 33.099 C 123.696 34.250, 123.920 34.199, 134.634 29.425 C 148.027 23.457, 154.277 19.998, 151.500 20.091 C 150.400 20.128, 137.350 23.309, 122.500 27.160 M 40.461 27.861 C 38.789 28.880, 35.523 31.871, 33.202 34.508 C 27.327 41.182, 14.667 60.389, 15.877 60.792 C 16.425 60.975, 19.460 60.647, 22.621 60.062 C 39.897 56.869, 47.756 61.058, 44.770 71.870 C 44.220 73.862, 41.347 80.323, 38.385 86.229 C 33.188 96.592, 32.063 100, 33.841 100 C 34.304 100, 36.882 99.338, 39.570 98.529 C 46.882 96.328, 47.493 98.101, 41.293 103.525 C 34.856 109.156, 27.375 119.016, 26.493 123.031 C 25.492 127.591, 27.893 130.318, 36.511 134.409 C 46.292 139.052, 49 141.729, 49 146.759 C 49 151.869, 44.877 158.250, 35.601 167.496 C 28.442 174.631, 25.757 179, 28.528 179 C 30.916 179, 47.160 167.396, 60.997 155.806 C 76.170 143.097, 98.621 121.182, 101.520 116.250 C 102.571 114.462, 104.009 113, 104.716 113 C 105.422 113, 106 113.156, 106 113.347 C 106 113.537, 102.688 120.625, 98.641 129.097 C 90.057 147.064, 87 154.927, 87 159.038 C 87 163.106, 88.645 162.881, 98.200 157.508 C 105.965 153.141, 113.613 150, 116.479 150 C 117.254 150, 119.151 151.086, 120.694 152.412 C 123.313 154.664, 123.509 155.366, 123.636 162.955 C 123.763 170.497, 124.031 171.473, 127.343 176.461 C 136.217 189.827, 140.018 183.054, 142.050 150.254 C 143.229 131.225, 144.320 124, 146.015 124 C 148.809 124, 151.489 131.708, 156.578 154.376 C 158.415 162.557, 160.081 169.414, 160.281 169.614 C 161.184 170.517, 170.208 163.706, 171.998 160.771 C 175.818 154.506, 174.739 150.781, 162.504 128 C 160.584 124.425, 159.010 120.072, 159.006 118.327 C 158.998 114.318, 162.596 109.937, 167.835 107.574 L 171.796 105.788 169.492 102.393 C 165.109 95.935, 165.294 88.663, 170.522 61.743 C 173.452 46.662, 173.750 36.515, 171.363 33.108 C 169.981 31.135, 169.086 30.844, 165.613 31.242 C 163.351 31.501, 159.151 32.727, 156.281 33.966 L 151.062 36.220 152.531 39.060 C 155.903 45.580, 152.864 47.974, 144.356 45.501 L 138.799 43.886 126.452 53.193 C 119.661 58.312, 114.476 62.872, 114.929 63.326 C 115.717 64.117, 126.627 65.378, 143.250 66.601 C 147.512 66.914, 151 67.562, 151 68.040 C 151 68.518, 149.875 70.034, 148.500 71.409 C 147.017 72.892, 146.004 75.046, 146.010 76.705 C 146.022 80.134, 149.618 88.027, 154.411 95.144 C 156.385 98.075, 158 101.042, 158 101.737 C 158 103.745, 155.044 103.216, 150.112 100.325 C 145.894 97.854, 144.802 97.669, 135.704 97.894 C 125.937 98.135, 125.818 98.169, 120.680 102.077 C 112.532 108.273, 106.148 110.348, 94.982 110.430 C 86.147 110.495, 84.980 110.261, 78.694 107.169 C 73.136 104.434, 71.230 103.954, 68.051 104.491 C 65.921 104.851, 63.371 106.038, 62.384 107.128 C 60.643 109.051, 60.686 109.200, 63.795 112.106 C 65.558 113.753, 67 115.518, 67 116.028 C 67 118.469, 61.703 120.178, 52.417 120.732 L 42.716 121.311 49.608 114.965 C 53.399 111.475, 56.879 107.918, 57.342 107.060 C 57.805 106.202, 60.280 104.100, 62.842 102.388 C 66.562 99.902, 67.429 98.795, 67.146 96.888 C 66.951 95.575, 66.745 91.350, 66.688 87.500 C 66.600 81.502, 67.032 79.633, 69.709 74.445 C 71.427 71.114, 74.956 65.782, 77.551 62.596 L 82.270 56.803 87.783 57.492 L 93.297 58.181 92.629 52.504 C 91.716 44.730, 89.518 40.627, 86.674 41.390 C 85.478 41.710, 78.084 41.979, 70.242 41.986 C 56.623 41.999, 56.035 42.083, 57.138 43.849 C 57.773 44.866, 58.007 46.834, 57.659 48.223 C 56.768 51.774, 53.568 55.469, 52.144 54.589 C 51.294 54.064, 51.528 53.144, 52.982 51.295 C 55.244 48.421, 55.651 44.398, 53.750 43.723 C 53.063 43.480, 50.377 44.342, 47.783 45.640 C 42.632 48.218, 41 48.541, 41 46.984 C 41 46.425, 42.576 45.216, 44.501 44.298 C 46.603 43.296, 47.902 42.003, 47.751 41.064 C 47.562 39.884, 48.727 39.350, 52.500 38.891 C 55.250 38.556, 59.730 37.469, 62.457 36.476 L 67.413 34.671 63.946 33.471 C 62.039 32.811, 57.684 30.860, 54.268 29.135 C 47.100 25.517, 44.672 25.293, 40.461 27.861 M 113 36 C 113 36.550, 114.152 37, 115.559 37 C 117.010 37, 117.851 36.567, 117.500 36 C 117.160 35.450, 116.009 35, 114.941 35 C 113.873 35, 113 35.450, 113 36 M 69.559 37.072 C 67.392 37.609, 65.404 38.262, 65.143 38.524 C 64.881 38.786, 69.557 39, 75.533 39 C 83.803 39, 86.122 38.722, 85.235 37.835 C 83.694 36.294, 74.509 35.847, 69.559 37.072 M 138 38.907 C 134.999 39.459, 134.814 39.639, 136.704 40.169 C 137.948 40.519, 139.689 40.195, 140.704 39.426 C 141.692 38.677, 142.275 38.109, 142 38.163 C 141.725 38.218, 139.925 38.553, 138 38.907 M 145.750 39.589 C 144.238 40.400, 143 41.443, 143 41.907 C 143 42.642, 147.624 44, 150.125 44 C 151.402 44, 151.194 41.636, 149.750 39.749 C 148.630 38.285, 148.213 38.269, 145.750 39.589 M 120.311 39.913 C 117.458 40.260, 114.799 40.868, 114.403 41.263 C 114.008 41.659, 113.193 41.602, 112.592 41.136 C 111.991 40.670, 107.300 40.506, 102.166 40.771 C 93.218 41.233, 92.859 41.340, 93.463 43.376 C 93.810 44.544, 94.574 48.513, 95.160 52.195 L 96.225 58.891 103.203 60.478 L 110.180 62.065 122.340 52.888 C 129.028 47.841, 134.628 43.393, 134.784 43.005 C 135.047 42.349, 127.008 38.826, 125.967 39.141 C 125.710 39.218, 123.165 39.566, 120.311 39.913 M 78.877 65.250 C 72.711 73.014, 68.987 81.464, 69.071 87.500 C 69.202 96.915, 69.413 96.904, 81.006 86.909 C 92.313 77.160, 92.813 76.280, 92.942 65.875 C 92.997 61.478, 92.846 61.219, 89.875 60.625 C 84.172 59.484, 83.097 59.936, 78.877 65.250 M 95.455 67.515 C 95.072 70.582, 95.016 73.349, 95.331 73.664 C 95.646 73.979, 98.439 72.071, 101.539 69.423 C 107.666 64.188, 107.629 64.041, 99.826 62.611 L 96.152 61.938 95.455 67.515 M 102.984 71.695 L 95 78.217 95.006 84.359 C 95.009 87.736, 95.491 92.228, 96.078 94.340 C 96.978 97.582, 97.484 98.098, 99.322 97.650 C 100.520 97.359, 111.445 96.559, 123.600 95.873 C 145.535 94.634, 145.727 94.641, 149.350 96.779 C 151.357 97.963, 153 98.731, 153 98.486 C 153 98.240, 151.458 95.629, 149.574 92.683 C 147.689 89.737, 145.380 84.980, 144.442 82.112 C 142.903 77.407, 142.882 76.527, 144.231 73.094 L 145.725 69.290 133.613 68.632 C 126.951 68.270, 119.130 67.343, 116.234 66.573 L 110.968 65.173 102.984 71.695 M 81.778 89.779 C 76.431 94.455, 72.329 98.724, 72.664 99.265 C 73.238 100.195, 80.989 99.781, 90.300 98.323 C 93.957 97.751, 94.073 97.612, 93.403 94.614 C 93.020 92.901, 92.435 89.200, 92.103 86.388 L 91.500 81.277 81.778 89.779 M 105 99.913 C 101.196 100.319, 100.065 100.731, 101.332 101.250 C 103.981 102.335, 108.904 102.043, 113.500 100.528 L 117.500 99.210 114 99.268 C 112.075 99.300, 108.025 99.590, 105 99.913 M 84.500 101.674 C 82.850 101.880, 80.375 102.303, 79 102.614 C 76.592 103.160, 76.646 103.257, 80.500 105.271 C 86.437 108.375, 99.669 108.806, 107 106.135 L 112.500 104.132 108 104.631 C 104.669 105, 102.471 104.593, 99.539 103.065 C 95.777 101.104, 91.923 100.748, 84.500 101.674 M 53.946 114.629 L 50.500 118.259 56.224 117.704 C 63.987 116.952, 64.829 116.249, 61.358 113.410 C 59.786 112.124, 58.251 111.056, 57.946 111.036 C 57.642 111.016, 55.842 112.633, 53.946 114.629" stroke="none" fill="black" fill-rule="evenodd"/>
</svg>