<svg xmlns="http://www.w3.org/2000/svg" width="200" height="200" viewBox="0 0 200 200" version="1.1">
	<path d="M 144.500 20.717 C 138.297 21.580, 119.004 26.166, 105.323 30.030 L 91.145 34.034 64.544 34.155 C 49.914 34.222, 37.656 33.989, 37.305 33.638 C 35.958 32.291, 33.048 33.094, 31.557 35.223 C 29.253 38.512, 29.626 39.161, 33.414 38.450 C 38.196 37.553, 39.444 40.154, 39.436 51 C 39.425 67.603, 31.348 82.859, 16.964 93.448 C 8.023 100.030, 10.813 100.465, 23.306 94.437 C 36.552 88.046, 43.126 86.315, 49.211 87.618 L 53.500 88.536 53.459 93.518 C 53.365 105.030, 38.495 123.722, 28.826 124.482 C 25.229 124.765, 23.889 126.554, 26.695 127.328 C 40.004 130.996, 55.238 126.157, 70.611 113.376 C 74.892 109.817, 84.493 100.615, 91.947 92.928 C 99.401 85.240, 106.074 78.961, 106.775 78.975 C 109.867 79.035, 110.850 88.035, 108.911 98.526 C 106.623 110.899, 99.660 119.778, 87.046 126.407 C 76.158 132.128, 59.219 137.797, 49.154 139.088 C 33.269 141.125, 34.038 143.526, 51.063 145.047 C 88.029 148.348, 98.792 154.676, 87.773 166.631 C 85.448 169.153, 81.701 172.485, 79.447 174.036 C 75.454 176.784, 75.157 176.832, 67.924 175.901 C 58.353 174.669, 36.447 174.340, 32.250 175.365 C 27.627 176.494, 27.882 179.453, 32.750 181.159 C 35.488 182.119, 41.221 182.366, 54 182.074 C 77.736 181.532, 92.295 181.515, 127 181.990 C 152.636 182.340, 157.548 182.160, 164.500 180.610 C 173.084 178.697, 182 175.285, 182 173.912 C 182 170.904, 168.433 170.086, 151.500 172.072 C 139.706 173.456, 121.184 173.533, 117.905 172.212 C 114.055 170.662, 112 168.195, 112 165.125 C 112 161.757, 115.925 153.732, 119.958 148.855 L 122.972 145.210 138.736 144.790 C 155.916 144.332, 160 143.307, 160 139.454 C 160 136.407, 156.187 134.148, 148.185 132.451 C 139.461 130.603, 131.678 130.636, 122.353 132.562 C 118.194 133.421, 114.576 133.910, 114.314 133.648 C 113.423 132.756, 116.017 129.089, 119.320 126.570 C 123.785 123.164, 131.616 121.360, 150 119.502 C 166.717 117.813, 174.848 115.957, 179.243 112.827 C 186.436 107.705, 186.756 99.107, 180.247 85.858 C 174.140 73.425, 174.945 73.803, 168.834 80.504 C 161.260 88.810, 152.580 95, 148.507 95 C 144.380 95, 143.602 92.670, 145.564 86.179 C 148.591 76.163, 159.325 66.550, 171.526 62.927 C 175.679 61.695, 179.312 60.304, 179.601 59.836 C 180.891 57.749, 176.313 57.983, 168.735 60.392 C 154.394 64.950, 139.074 63.128, 137.454 56.672 C 135.287 48.038, 149.695 41.138, 167.564 42.252 L 175.708 42.760 178.393 38.630 C 183.552 30.693, 182.980 26.727, 176.598 26.187 C 169.926 25.621, 159.121 29.873, 129.576 44.687 C 111.602 53.701, 108.901 54.799, 110.419 52.483 C 111.801 50.375, 111.920 49.537, 110.968 48.643 C 110.053 47.785, 109.641 47.795, 109.313 48.685 C 108.153 51.834, 102.693 58.107, 99.819 59.594 C 95.732 61.707, 87.716 61.649, 82.500 59.467 C 80.300 58.547, 75.236 55.768, 71.247 53.292 C 60.350 46.527, 58.844 48.178, 65.138 59.985 L 68.062 65.469 63.781 68.963 C 61.426 70.884, 56.762 75.054, 53.415 78.228 C 49.500 81.941, 46.469 84.008, 44.915 84.021 C 43.587 84.033, 38.808 85.292, 34.295 86.819 L 26.090 89.596 29.401 85.548 C 34.158 79.731, 38.590 71.401, 40.528 64.636 C 42.397 58.111, 42.692 44.951, 41.065 40.671 C 40.283 38.614, 40.332 37.833, 41.261 37.548 C 44.080 36.681, 63.176 36.163, 72.232 36.707 L 81.964 37.292 76.982 39.600 C 68.922 43.334, 71.124 46.784, 80.737 45.481 C 86.789 44.661, 102.643 42.122, 106.250 41.395 C 107.763 41.090, 109 40.202, 109 39.421 C 109 38.347, 110.526 37.995, 115.250 37.980 C 133.410 37.923, 155.564 31.648, 159.655 25.403 C 162.772 20.647, 157.258 18.942, 144.500 20.717 M 136.690 25.048 C 125.043 27.558, 105.139 32.623, 102 33.876 C 98.042 35.455, 123.065 35.186, 132.239 33.550 C 142.646 31.695, 151.855 28.520, 155.500 25.532 L 158.500 23.072 152 23.110 C 148.425 23.132, 141.536 24.003, 136.690 25.048 M 171.500 29.418 C 160.272 32.219, 137.290 43.168, 92.065 67.261 C 78.626 74.420, 64.794 81.605, 61.328 83.228 C 55.844 85.794, 55.153 86.417, 56.012 88.023 C 59.813 95.125, 51.329 112.532, 39.262 122.391 L 34.500 126.281 39.826 125.596 C 53.764 123.803, 64.433 116.676, 86.500 94.417 C 95.850 84.985, 104.565 76.936, 105.868 76.530 C 107.595 75.990, 108.777 76.332, 110.239 77.794 C 111.936 79.491, 112.247 81.152, 112.275 88.649 C 112.349 109.005, 104.235 121.319, 84.699 130.496 C 75.848 134.654, 59.196 140.501, 54 141.276 C 50.213 141.840, 53.205 142.613, 64 143.859 C 86.579 146.464, 96.880 152.374, 94.610 161.419 C 93.821 164.561, 87.481 171.734, 82.484 175.137 C 80.575 176.437, 79.011 177.725, 79.008 178 C 79.001 178.723, 114.020 179.523, 138.500 179.359 C 156.404 179.239, 160.668 178.907, 167.419 177.107 C 171.774 175.946, 175.562 174.771, 175.836 174.498 C 177.408 172.925, 173.224 172.895, 157.280 174.364 C 136.960 176.236, 123.148 176.447, 117.814 174.965 C 113.382 173.734, 108.996 168.857, 109.010 165.173 C 109.024 161.407, 112.973 153.423, 117.876 147.250 L 122.047 142 137.273 141.955 C 147.746 141.924, 153.437 141.492, 155.500 140.571 L 158.500 139.232 153.500 136.866 C 149.027 134.749, 147.129 134.503, 135.500 134.529 C 124.934 134.552, 121.423 134.944, 116.750 136.624 L 111 138.690 111 135.795 C 111 131.793, 113.393 127.548, 117.249 124.712 C 123.286 120.270, 129.428 118.709, 147.500 117.025 C 169.615 114.964, 177.120 112.799, 180.608 107.475 C 183.117 103.646, 182.041 95.725, 177.798 86.789 L 174.236 79.289 166.596 86.566 C 152.290 100.193, 141.958 101.814, 142.022 90.421 C 142.054 84.714, 145.170 78.722, 151.623 71.957 L 157.304 66 152.518 66 C 137.408 66, 129.649 56.116, 137.999 47.502 C 143.457 41.870, 150.505 39.705, 163.743 39.594 L 174.987 39.500 177.160 35.405 C 178.355 33.152, 179.047 30.565, 178.698 29.655 C 177.970 27.758, 178.131 27.763, 171.500 29.418 M 83.711 39.682 C 79.977 41.097, 77.107 42.440, 77.332 42.665 C 77.748 43.081, 94.782 40.717, 103 39.103 C 107.391 38.240, 107.327 38.216, 100.332 38.110 C 96.389 38.049, 92.564 37.799, 91.832 37.554 C 91.099 37.309, 87.445 38.266, 83.711 39.682 M 65 53.623 C 65 53.966, 66.463 56.912, 68.250 60.171 L 71.500 66.095 67 69.775 C 59.864 75.611, 51.397 83.958, 52.591 83.980 C 53.784 84.002, 86.283 67.613, 89.473 65.381 C 91.379 64.046, 91.362 63.999, 88.973 63.976 C 85.520 63.943, 76.338 60.017, 70.796 56.203 C 66.100 52.973, 65 52.483, 65 53.623 M 34.542 177.906 C 31.775 178.988, 41.030 179.999, 53 179.921 C 66.310 179.835, 68.721 178.493, 57.053 177.664 C 45.292 176.830, 37.069 176.918, 34.542 177.906" stroke="none" fill="black" fill-rule="evenodd"/>
</svg>