<svg xmlns="http://www.w3.org/2000/svg" width="200" height="200" viewBox="0 0 200 200" version="1.1">
	<path d="M 164.500 13.775 C 163.950 14.174, 163.500 15.850, 163.500 17.500 C 163.500 20.062, 162.842 20.823, 159 22.709 C 152.646 25.828, 141.064 26.985, 115.026 27.099 C 87.909 27.218, 81.654 27.800, 81.187 30.249 C 80.931 31.591, 83.024 33.006, 90.177 36.332 C 95.305 38.715, 100.100 41.394, 100.833 42.285 C 104.475 46.711, 99.322 49.865, 76 57.487 C 68.025 60.093, 60.799 62.594, 59.943 63.044 C 58.568 63.768, 58.393 62.261, 58.443 50.182 C 58.507 34.924, 56.986 28.707, 52.287 25.011 C 47.500 21.246, 40.105 23.309, 35.354 29.735 C 25.801 42.656, 22.444 61.140, 25.930 81.613 C 32.668 121.170, 29.761 145.457, 17.540 151.727 C 15.350 152.851, 14.345 153.941, 14.809 154.692 C 16.167 156.889, 43.009 150.568, 52.222 145.881 C 57.600 143.146, 62.826 138.261, 65.059 133.885 C 68.848 126.457, 66.828 112.681, 59.893 98.647 C 56.361 91.501, 56.069 85.453, 59.073 81.635 C 61.746 78.236, 65.510 78.211, 72.094 81.548 C 77.710 84.393, 90.829 96.449, 95.717 103.255 L 98.907 107.697 94.158 107.241 C 90.105 106.852, 88.948 107.173, 86.261 109.434 C 79.788 114.880, 76.406 132.063, 78.058 151.110 C 79.907 172.430, 85.384 185, 92.824 185 C 96.159 185, 101.514 181.107, 102.514 177.956 C 103.082 176.168, 104.097 176, 114.359 176 C 120.532 176, 130.964 176.716, 137.542 177.591 C 155.114 179.928, 162.684 179.876, 167.516 177.386 C 175.952 173.038, 179.018 160.849, 177.098 139.295 C 176.067 127.714, 175.663 126.042, 172.731 121.202 C 170.954 118.270, 167.337 113.537, 164.694 110.685 C 160.447 106.103, 159.958 105.122, 160.489 102.250 C 160.820 100.463, 161.408 98.995, 161.795 98.990 C 162.949 98.973, 178.277 85.915, 187.968 76.694 L 196.992 68.105 184.996 59.874 C 178.398 55.347, 173 51.096, 173 50.429 C 173 49.276, 178.481 25.515, 179.629 21.692 C 180.085 20.171, 179.169 20.389, 173.836 23.070 C 158.132 30.965, 153.033 36.349, 156.397 41.484 C 157.297 42.856, 160.388 45.833, 163.266 48.098 C 166.145 50.364, 168.629 52.557, 168.788 52.972 C 168.946 53.386, 166.773 63.575, 163.959 75.613 C 159.658 94.015, 158.458 97.824, 156.422 99.538 C 153.734 101.799, 153.455 103.155, 155.126 105.831 C 156.005 107.238, 155.559 110.582, 153.093 121.067 C 148.772 139.443, 143.905 157.002, 143.136 156.992 C 142.786 156.988, 141.463 155.169, 140.196 152.950 C 138.841 150.577, 136.445 148.226, 134.378 147.240 C 131.107 145.681, 130.547 145.679, 126.291 147.209 C 120.981 149.118, 120.540 149.617, 135.242 137.099 C 147.085 127.016, 149.978 123.578, 148.156 121.756 C 147.300 120.900, 145.822 120.991, 142.257 122.118 C 139.487 122.994, 136.456 123.325, 135 122.911 C 133.625 122.520, 129.350 122.153, 125.500 122.096 L 118.500 121.993 116.787 113.166 C 115.844 108.311, 113.091 98.412, 110.668 91.169 L 106.262 78 115 73 C 119.805 70.250, 124.189 68, 124.740 68 C 125.866 68, 127.638 81.423, 128.501 96.487 C 129.076 106.518, 130.203 109.876, 132.026 106.992 C 132.545 106.171, 132.976 96.396, 132.985 85.269 L 133 65.038 135.379 64.441 C 141.192 62.982, 143.142 64.150, 149.243 72.750 C 155.162 81.092, 158 83.004, 158 78.649 C 158 72.475, 154.098 66.112, 149.024 64.010 C 147.496 63.377, 143.908 59.941, 141.050 56.375 C 138.192 52.808, 134.821 49.420, 133.559 48.845 C 131.676 47.987, 131.155 46.759, 130.658 42.004 C 129.967 35.391, 128.267 31, 126.399 31 C 124.279 31, 123.583 33.222, 125.307 34.482 C 127.799 36.305, 129.155 46.835, 127.267 49.715 C 126.444 50.972, 125.535 54.925, 125.248 58.500 C 124.961 62.075, 124.431 65, 124.071 65 C 123.711 65, 119.448 67.275, 114.598 70.056 C 109.748 72.837, 105.520 74.853, 105.203 74.536 C 104.885 74.219, 103.182 70.256, 101.418 65.730 C 98.339 57.828, 98.168 57.608, 97.144 60.214 C 94.601 66.682, 92.899 74.216, 93.188 77.720 C 93.486 81.330, 93.657 81.497, 97 81.427 C 98.925 81.387, 101.243 81.019, 102.152 80.608 C 103.482 80.007, 104.226 80.989, 105.970 85.649 C 108.908 93.502, 112.556 106.258, 114.368 115.012 L 115.865 122.243 112.932 124.710 C 108.362 128.556, 109.435 136, 114.560 136 C 117.310 136, 119 132.972, 119 128.042 C 119 124.205, 120.749 123.759, 130.641 125.075 C 136.774 125.892, 139.867 125.893, 142.195 125.082 L 145.373 123.974 142.937 126.593 C 141.596 128.033, 134.187 134.518, 126.470 141.005 C 118.754 147.491, 110.490 154.914, 108.107 157.500 C 104.178 161.762, 103.919 162.348, 105.335 163.764 C 106.751 165.180, 107.512 164.750, 113.481 159.166 C 117.102 155.779, 121.833 152.106, 123.993 151.004 C 130.946 147.456, 134.481 148.551, 138.564 155.518 C 141.848 161.122, 144.498 161.445, 146.567 156.493 C 147.373 154.565, 150.306 143.652, 153.085 132.243 C 155.864 120.835, 158.344 110.870, 158.595 110.100 C 159.244 108.113, 162.981 111.820, 168.561 119.987 C 172.724 126.079, 173.131 127.252, 174.129 136.030 C 175.614 149.079, 174.838 162.317, 172.245 168.178 C 168.328 177.035, 163.560 178.056, 140.014 175.082 C 130.946 173.937, 118.728 173, 112.862 173 L 102.198 173 100.176 176.426 C 99.064 178.311, 96.995 180.613, 95.577 181.541 C 93.237 183.075, 92.783 183.088, 90.643 181.686 C 84.713 177.800, 80.604 161.578, 80.591 142 C 80.583 130.945, 80.976 127.224, 82.757 121.456 C 86.028 110.863, 89.091 108.700, 98.250 110.518 C 101.608 111.184, 102 111.047, 102 109.207 C 102 103.134, 80.628 81.796, 70.166 77.425 C 63.264 74.541, 57.989 76.389, 55.394 82.599 C 53.146 87.979, 53.740 92.168, 58.056 101.377 C 62.645 111.170, 65.259 121.816, 64.348 127 C 62.192 139.266, 52.412 145.304, 24.808 151.408 C 23.404 151.719, 23.526 151.161, 25.519 148.141 C 30.170 141.095, 31.238 136.352, 31.748 120.494 C 32.148 108.026, 31.830 102.867, 29.865 89.994 C 25.971 64.486, 27.166 50.032, 34.273 36.657 C 37.889 29.852, 42.407 26, 46.772 26 C 53.455 26, 56.614 35.193, 55.671 51.896 C 55.341 57.728, 54.757 64.524, 54.371 66.998 L 53.670 71.497 57.170 68.423 C 59.781 66.131, 65.168 63.878, 78.357 59.561 C 96.812 53.520, 101.467 51.204, 103.915 46.843 C 106.154 42.853, 103.551 39.826, 93.800 35.081 C 89.109 32.798, 86.220 30.879, 87.050 30.597 C 87.847 30.325, 101.325 29.914, 117 29.685 C 133.440 29.444, 148.066 28.756, 151.564 28.060 C 159.281 26.523, 165.198 23.222, 166.409 19.778 C 167.462 16.785, 166.129 12.595, 164.500 13.775 M 169.433 28.491 C 162.485 32.406, 158 36.278, 158 38.360 C 158 40.160, 167.899 49.200, 169.343 48.719 C 170.206 48.431, 176.242 25.943, 175.628 25.303 C 175.524 25.194, 172.736 26.629, 169.433 28.491 M 132.040 56.250 C 131.997 62.478, 132.585 62.898, 138.875 61.135 C 141.205 60.481, 141.164 60.376, 136.664 55.484 L 132.079 50.500 132.040 56.250 M 128 58.333 C 128 60.900, 128.455 63, 129.012 63 C 129.638 63, 129.775 61.379, 129.373 58.750 C 128.481 52.926, 128 52.780, 128 58.333 M 171.485 56.250 C 171.126 57.243, 167.721 71.418, 162.603 93.233 C 162.284 94.592, 162.562 94.770, 163.891 94.058 C 165.581 93.154, 177.754 82.612, 187.781 73.368 L 193.063 68.500 183.116 61.750 C 177.645 58.038, 172.892 55, 172.553 55 C 172.214 55, 171.734 55.563, 171.485 56.250 M 97.189 69.183 C 95.006 76.356, 94.891 78.021, 96.539 78.653 C 97.413 78.989, 99.222 78.764, 100.559 78.155 L 102.990 77.048 100.911 71.774 C 99.768 68.873, 98.690 66.357, 98.516 66.183 C 98.342 66.009, 97.745 67.359, 97.189 69.183 M 129.300 71 C 129.300 74.025, 129.487 75.263, 129.716 73.750 C 129.945 72.237, 129.945 69.763, 129.716 68.250 C 129.487 66.737, 129.300 67.975, 129.300 71 M 149.866 68.500 C 151.440 71.689, 153.933 74.610, 153.968 73.306 C 153.986 72.649, 152.848 70.849, 151.440 69.306 C 149.753 67.457, 149.216 67.182, 149.866 68.500 M 114.250 127.141 C 112.768 128.634, 112.592 132.630, 113.971 133.482 C 115.063 134.157, 116.357 130.029, 115.839 127.520 C 115.567 126.206, 115.254 126.131, 114.250 127.141" stroke="none" fill="black" fill-rule="evenodd"/>
</svg>