<svg xmlns="http://www.w3.org/2000/svg" width="200" height="200" viewBox="0 0 200 200" version="1.1">
	<path d="M 42.907 25.844 C 34.669 31.069, 25.954 43.214, 21.989 55 C 16.783 70.472, 22.919 79.101, 38.146 77.720 C 41.366 77.429, 44 77.380, 44 77.613 C 44 77.846, 41.806 82.416, 39.125 87.768 C 22.184 121.588, 16.252 143.131, 22.314 148.826 C 25.829 152.128, 31.800 151.652, 45.257 147 C 58.824 142.309, 62.654 141.960, 63.924 145.301 C 64.405 146.566, 64.567 148.816, 64.283 150.301 C 63.894 152.333, 64.166 153, 65.383 153 C 67.897 153, 67.604 144.604, 65 142 C 62.236 139.236, 59.332 139.472, 47.542 143.417 C 33.040 148.270, 29.408 149.140, 26.603 148.437 C 18.273 146.346, 22.694 128.258, 40.619 91.091 C 45.237 81.516, 48.887 73.553, 48.730 73.396 C 48.572 73.239, 46.656 73.525, 44.472 74.031 C 42.287 74.538, 37.878 74.963, 34.673 74.976 C 29.550 74.997, 28.493 74.647, 25.923 72.077 C 22.257 68.411, 22.012 62.727, 25.156 54.288 C 30.236 40.653, 42.912 26, 49.627 26 C 54.077 26, 55.353 29.846, 54.702 41.290 C 54.383 46.906, 53.307 54.650, 52.311 58.500 C 50.768 64.465, 50.150 65.549, 48.136 65.835 C 45.787 66.167, 45.793 66.191, 49.058 69.560 C 52.028 72.624, 52.230 73.200, 51.159 75.549 C 48.740 80.860, 47.977 86.793, 49.062 91.855 C 51.480 103.128, 65.043 112.030, 70.542 105.954 C 74.540 101.536, 71.185 92.008, 61.297 79.701 C 55.878 72.956, 55.848 72.881, 57.532 70.310 L 59.230 67.719 71.365 68.313 C 85.040 68.983, 88 69.587, 88 71.712 C 88 72.526, 88.750 74.461, 89.667 76.013 C 91.181 78.577, 91.221 80.411, 90.105 96.156 C 86.625 145.218, 76.142 173.227, 61.790 171.806 C 57.747 171.406, 57.006 173.623, 60.898 174.478 C 65.368 175.459, 72.229 172.047, 75.858 167.037 C 80.295 160.913, 84.489 149.968, 87.396 136.934 C 90.297 123.925, 92.965 103.041, 93.070 92.506 C 93.182 81.353, 93.166 81.360, 103.244 87.860 C 110.489 92.533, 111.885 93.843, 111.391 95.500 C 111.063 96.600, 110.433 100.650, 109.991 104.500 C 109.549 108.350, 108.855 112.850, 108.449 114.500 C 107.507 118.328, 102.010 129.174, 98.060 135 C 96.382 137.475, 95.007 139.838, 95.004 140.250 C 95.002 140.662, 96.328 141, 97.951 141 C 103.668 141, 111.329 143.238, 113.688 145.597 C 116.565 148.474, 116.249 150.231, 110.835 161.447 C 108.726 165.818, 107 169.901, 107 170.519 C 107 171.145, 103.834 172.135, 99.875 172.748 C 92.164 173.941, 89.823 175.223, 91.782 177.182 C 93.981 179.381, 118.915 180.296, 143 179.062 C 173.146 177.516, 182 175.913, 182 172.001 C 182 169.514, 179.892 168.060, 173.354 166.037 L 167.654 164.273 170.173 162.622 C 177.523 157.806, 176.204 144.330, 167.225 132.513 C 157.765 120.063, 151.819 126.492, 157.070 143.491 C 158.209 147.177, 158.968 150.365, 158.758 150.575 C 157.960 151.373, 142.332 141.749, 138.750 138.253 C 132.193 131.855, 133.635 130.136, 151.204 123.395 C 162.557 119.039, 168 114.891, 168 110.596 C 168 109.128, 170.225 103.331, 172.945 97.714 C 179.064 85.075, 181 77.639, 181 66.765 C 181 59.340, 180.629 57.578, 177.931 52.178 C 176.243 48.800, 173.744 45.157, 172.378 44.082 C 169.920 42.149, 169.916 42.116, 171.946 41.029 C 177.502 38.055, 172.913 35.143, 156.232 31.056 C 129.008 24.387, 119.418 22.727, 110.733 23.183 C 96.537 23.928, 88.557 28.729, 67.319 49.304 C 61.076 55.352, 55.771 60.104, 55.530 59.863 C 55.289 59.623, 55.731 55.843, 56.511 51.463 C 59.781 33.112, 57.205 23, 49.262 23 C 48.233 23, 45.374 24.280, 42.907 25.844 M 106 26.098 C 99.546 27.358, 90.365 32.149, 84 37.578 C 73.052 46.916, 54.935 65, 56.528 65 C 57.422 65, 59.504 63.650, 61.154 62 C 62.804 60.350, 65.132 59.001, 66.327 59.003 C 68.750 59.007, 85.433 61.772, 88.406 62.663 C 90.213 63.204, 90.277 62.775, 89.652 54.367 C 89.290 49.490, 88.717 44.263, 88.380 42.750 L 87.767 40 106.383 40 C 116.623 40, 125 39.770, 125 39.488 C 125 39.206, 122.909 35.831, 120.353 31.988 C 115.286 24.368, 115.148 24.311, 106 26.098 M 120.693 27.376 C 121.053 27.994, 123.087 31.087, 125.211 34.250 L 129.075 40 144.787 39.894 L 160.500 39.789 154 37.775 C 150.425 36.667, 144.234 34.232, 140.243 32.363 C 132.406 28.695, 119.550 25.415, 120.693 27.376 M 148.500 32.914 C 155.965 35.818, 164.090 38.269, 167.500 38.644 C 173.717 39.329, 169.739 37.427, 158.854 34.511 C 149.872 32.105, 144.154 31.222, 148.500 32.914 M 147.135 42.962 L 130.769 43.500 132.635 45.727 C 134.185 47.579, 135.683 48.001, 141.500 48.227 C 146.744 48.432, 148.500 48.855, 148.500 49.917 C 148.500 51.281, 146.606 52.140, 140.753 53.431 C 138.302 53.971, 138.139 54.250, 139.244 56.018 C 140.302 57.713, 141.588 58, 148.118 58 C 159.729 58, 161.382 61.670, 152.106 66.854 C 148.186 69.045, 147.990 69.353, 149.277 71.291 C 150.326 72.870, 152.874 73.796, 159.818 75.121 C 169.843 77.033, 171.356 77.615, 170.385 79.187 C 169.960 79.873, 166.976 79.994, 161.743 79.538 L 153.750 78.841 155.745 81.670 C 158.899 86.147, 162 92.734, 162 94.960 C 162 98.436, 158.545 97.408, 141.122 88.752 C 126.550 81.513, 123.933 80.530, 119.721 80.715 C 115.531 80.898, 114.811 80.632, 114.045 78.618 C 113.197 76.389, 108.747 74.626, 97.250 71.963 C 94.084 71.230, 94 71.296, 94 74.538 C 94 78.459, 98.025 82.129, 109.748 88.900 L 116.996 93.086 115.090 95.793 C 113.856 97.545, 112.947 101.123, 112.513 105.937 C 111.728 114.640, 108.568 123.645, 103.541 131.503 C 101.567 134.589, 100.214 137.538, 100.535 138.057 C 100.856 138.576, 102.554 139.010, 104.309 139.022 C 108.511 139.051, 115.559 142.308, 116.919 144.849 C 118.940 148.624, 118.005 153.398, 113.477 162.436 C 111.015 167.351, 109 171.916, 109 172.579 C 109 174.139, 106.749 174.973, 102.168 175.110 L 98.500 175.219 103 176.181 C 108.487 177.355, 153.032 176.506, 165 175 C 169.675 174.411, 175.075 173.420, 177 172.796 L 180.500 171.663 176.576 169.922 C 172.653 168.182, 162.788 166.070, 149.384 164.099 C 140.248 162.755, 136.296 161.304, 137.766 159.834 C 138.556 159.044, 141.965 159.298, 150.072 160.751 C 162.210 162.926, 166.460 162.540, 170.065 158.935 C 172.454 156.546, 172.633 150.212, 170.489 143.928 C 168.634 138.488, 162.092 129.641, 159.565 129.155 C 157.874 128.829, 157.752 129.333, 158.236 134.664 C 158.528 137.891, 159.931 143.876, 161.353 147.964 C 162.774 152.051, 163.773 155.561, 163.571 155.762 C 162.962 156.371, 148.875 148.984, 143 144.976 C 136.658 140.648, 133.511 137.426, 132.560 134.288 C 131.090 129.437, 133.935 127.413, 153.398 119.466 C 157.192 117.916, 161.467 115.547, 162.898 114.200 C 164.329 112.853, 164.718 112.307, 163.762 112.988 C 162.329 114.008, 161.913 113.938, 161.395 112.588 C 160.754 110.917, 165.279 103, 166.875 103 C 168.015 103, 174.365 88.961, 176.600 81.500 C 177.651 77.994, 178.417 72.175, 178.444 67.500 C 178.484 60.702, 178.069 58.639, 175.682 53.770 C 172.999 48.299, 166.688 41.762, 164.522 42.212 C 163.960 42.329, 156.136 42.667, 147.135 42.962 M 91.322 44.398 C 91.617 45.166, 92.164 48.891, 92.537 52.674 L 93.214 59.553 98.857 56.770 C 105.165 53.660, 122.434 49, 127.654 49 L 131.051 49 129.500 46 L 127.949 43 109.367 43 C 93.866 43, 90.875 43.232, 91.322 44.398 M 126.500 51.707 C 114.984 53.270, 93.995 60.435, 94.002 62.801 C 94.003 63.185, 103.708 65.181, 115.568 67.236 C 135.443 70.679, 137.404 70.858, 140.604 69.521 L 144.075 68.071 141.405 64.035 L 138.734 60 129.058 60 C 118.940 60, 115.118 58.740, 116.255 55.778 C 116.643 54.767, 119.400 53.886, 124.606 53.112 C 128.880 52.476, 132.592 51.741, 132.855 51.478 C 133.363 50.971, 131.403 51.041, 126.500 51.707 M 124 55.911 L 119.500 56.521 122.875 57.261 C 124.731 57.667, 128.655 58, 131.594 58 C 135.933 58, 136.829 57.718, 136.362 56.500 C 135.756 54.922, 132.451 54.764, 124 55.911 M 144.119 63.477 L 146.170 66.954 150.017 64.991 C 152.133 63.912, 154.111 62.630, 154.412 62.142 C 154.978 61.227, 149.570 60.030, 144.784 60.011 L 142.067 60 144.119 63.477 M 63.360 63.155 C 61.755 64.928, 61.919 65.001, 67.595 65.020 C 70.843 65.031, 76.605 65.488, 80.400 66.037 C 86.635 66.938, 89.114 66.780, 87.893 65.560 C 87.651 65.317, 82.407 64.262, 76.241 63.214 C 65.345 61.363, 64.983 61.361, 63.360 63.155 M 94.255 67.264 C 94.701 68.604, 113.319 74.157, 119.308 74.736 C 124.577 75.245, 131.605 74.274, 130.523 73.186 C 129.352 72.007, 93.906 66.219, 94.255 67.264 M 51.991 69.489 C 53.240 70.994, 55 70.673, 55 68.941 C 55 68.423, 54.045 68, 52.878 68 C 51.111 68, 50.962 68.250, 51.991 69.489 M 143.813 71.683 C 144.534 71.972, 145.397 71.936, 145.729 71.604 C 146.061 71.272, 145.471 71.036, 144.417 71.079 C 143.252 71.127, 143.015 71.364, 143.813 71.683 M 137.269 74.693 C 138.242 74.947, 139.592 74.930, 140.269 74.656 C 140.946 74.382, 140.150 74.175, 138.500 74.195 C 136.850 74.215, 136.296 74.439, 137.269 74.693 M 52.897 78.690 C 50.855 83.911, 50.679 88.871, 52.380 93.324 C 54.691 99.376, 59.778 104.026, 64.829 104.704 C 68.567 105.205, 68.952 105.039, 69.546 102.674 C 70.398 99.278, 66.509 90.809, 60.526 83.034 C 54.769 75.552, 54.242 75.252, 52.897 78.690 M 127.169 77.637 C 126.433 77.960, 133.088 81.751, 142.071 86.125 C 150.998 90.473, 158.504 93.829, 158.751 93.583 C 159.410 92.923, 153.978 83.268, 151.355 80.438 C 149.451 78.384, 148.165 78, 143.187 78 C 139.938 78, 135.304 77.787, 132.890 77.527 C 130.475 77.266, 127.901 77.316, 127.169 77.637" stroke="none" fill="black" fill-rule="evenodd"/>
</svg>