<svg xmlns="http://www.w3.org/2000/svg" width="200" height="200" viewBox="0 0 200 200" version="1.1">
	<path d="M 53.675 18.658 C 53.313 19.020, 53.528 19.931, 54.151 20.682 C 54.775 21.434, 55.108 22.211, 54.893 22.410 C 54.677 22.609, 49.716 22.364, 43.868 21.866 C 33.409 20.974, 28 21.677, 28 23.928 C 28 24.465, 29.800 28.323, 32 32.500 C 37.769 43.455, 37.471 50.264, 30.740 61.248 C 28.249 65.314, 27.484 65.909, 25.416 65.389 C 23.508 64.911, 23.003 65.174, 23.014 66.642 C 23.039 70.158, 24.195 72.862, 25.463 72.376 C 26.975 71.796, 31.337 84.959, 33.098 95.412 C 34.389 103.078, 33.787 116.444, 31.890 122.249 C 30.922 125.211, 29.539 126.634, 25.302 129.025 C 19.687 132.193, 16.010 136.870, 16.004 140.850 C 16.002 142.178, 17.433 144.633, 19.297 146.497 C 31.159 158.359, 56.860 149.778, 68.132 130.191 C 70.200 126.598, 70.986 126.054, 74.487 125.795 C 77.077 125.604, 78.583 124.972, 78.766 124 C 78.922 123.175, 75.644 118.454, 71.481 113.510 C 62.002 102.251, 58.714 95.796, 58.714 88.446 C 58.714 80.207, 62.572 74.538, 71.312 69.930 C 78.700 66.036, 82.585 62.756, 81.635 61.218 C 81.300 60.677, 78.433 59.912, 75.263 59.519 C 66.652 58.452, 63.180 56.675, 61.405 52.426 C 59.611 48.134, 60.615 41.636, 64.137 34.731 L 66.281 30.529 71.752 36.514 C 74.761 39.806, 79.957 45.831, 83.299 49.901 L 89.376 57.302 87.602 61.901 C 81.310 78.210, 79.878 83.148, 81.034 84.542 C 82.686 86.532, 85.162 85.081, 92.720 77.695 L 98.941 71.617 101.647 77.558 C 103.502 81.629, 104.487 85.721, 104.776 90.555 C 105.165 97.038, 104.985 97.865, 102.556 100.752 C 101.102 102.479, 99.059 104.164, 98.017 104.495 C 95.692 105.233, 87.376 118.012, 85.802 123.268 C 84.294 128.301, 85.579 131.850, 89.803 134.317 C 92.571 135.934, 95.534 136.297, 108.423 136.597 C 124.182 136.965, 128.599 137.791, 129.665 140.570 C 131.013 144.082, 143.868 139.090, 146.479 134.040 C 152.084 123.201, 139.275 103.113, 124.164 99.044 L 119.915 97.900 125.910 91.357 C 138.815 77.274, 137.150 69.226, 120.936 67.306 C 115.907 66.710, 111.142 63.198, 112.463 61.060 C 115.920 55.467, 139.921 52.421, 147.139 56.659 C 154.293 60.860, 155.677 71.098, 152.394 95.542 C 151.243 104.112, 150.957 111.231, 151.383 120.670 C 152.072 135.949, 150.853 141.475, 145.382 147.866 C 141.321 152.612, 137.125 154.680, 127.724 156.573 C 117.447 158.642, 116 159.414, 116 162.829 C 116 166.119, 119.217 170.880, 127.447 179.769 C 133.100 185.875, 133.320 186, 138.426 186 C 152.911 186, 165.511 176.941, 170.841 162.696 C 174.569 152.732, 175.993 142.809, 176.970 120 C 177.499 107.625, 178.455 88.725, 179.094 78 C 180.005 62.694, 179.989 57.223, 179.018 52.563 C 177.417 44.883, 173.820 40.996, 168.327 41.010 C 164.524 41.019, 154.828 44.852, 153.606 46.828 C 152.270 48.991, 154.837 48.810, 159.577 46.409 C 165.925 43.192, 171.499 43.423, 174.169 47.014 C 176.978 50.792, 177.426 58.213, 176.183 80.385 C 175.563 91.448, 174.603 110.175, 174.049 122 C 172.563 153.702, 169.669 164.491, 160.077 174.083 C 154.232 179.928, 149.372 182.184, 139.873 183.463 L 135.246 184.086 128.195 176.433 C 121.078 168.709, 117.495 163.106, 118.824 161.777 C 119.222 161.379, 123.087 160.376, 127.414 159.548 C 142.451 156.671, 149.411 151.041, 153.150 138.732 C 154.762 133.424, 155.062 130.654, 154.505 126.208 C 153.457 117.831, 153.770 108.190, 155.584 93.070 C 158.959 64.937, 155.868 55.105, 142.660 51.958 C 139.560 51.219, 139.552 51.203, 142.250 51.102 C 143.839 51.043, 145 50.431, 145 49.652 C 145 48.581, 142.982 48.402, 135.169 48.778 C 128.746 49.087, 124.586 48.849, 123.169 48.090 C 118.407 45.542, 121.876 37.415, 131.942 27.538 C 136.458 23.107, 138.259 20, 136.312 20 C 135.934 20, 132.981 22.077, 129.750 24.615 L 123.876 29.230 113.368 28.514 C 104.879 27.936, 102.763 27.481, 102.358 26.149 C 100.679 20.635, 98.343 19.717, 96.855 23.987 C 95.980 26.496, 95.309 27.052, 93.625 26.662 C 92.456 26.392, 85.047 25.601, 77.161 24.905 C 63.885 23.734, 62.559 23.431, 59.273 20.820 C 55.569 17.876, 54.767 17.566, 53.675 18.658 M 31 24.466 C 31 24.722, 32.591 27.825, 34.535 31.362 C 40.777 42.718, 40.090 52.218, 32.175 64 L 28.480 69.500 31.264 77.392 C 37.128 94.009, 38.360 111.854, 34.433 123.283 C 33.135 127.059, 31.997 128.471, 29.028 129.986 C 18.786 135.211, 16.341 140.585, 22.029 145.371 C 33.011 154.612, 54.887 146.325, 65.682 128.836 C 68.926 123.581, 69.621 123, 72.668 123 L 76.051 123 68.991 114.750 C 65.107 110.213, 60.542 103.704, 58.846 100.287 C 56.142 94.839, 55.813 93.284, 56.172 87.643 C 56.781 78.077, 60.470 72.591, 69.491 67.837 C 73.314 65.822, 76.584 63.749, 76.757 63.230 C 76.929 62.712, 74.774 62.015, 71.967 61.682 C 65.955 60.970, 60.810 58.074, 59.172 54.478 C 57.291 50.351, 57.838 43.009, 60.510 36.509 L 62.973 30.518 60.651 28.197 C 58.729 26.275, 56.709 25.718, 48.915 24.965 C 38.513 23.959, 31 23.749, 31 24.466 M 71.385 32.084 C 74.042 35.063, 79.428 41.245, 83.355 45.821 L 90.494 54.142 92.684 42.821 C 93.888 36.595, 94.902 31.002, 94.937 30.394 C 94.975 29.721, 91.764 29.018, 86.750 28.601 C 82.213 28.223, 75.812 27.634, 72.527 27.291 L 66.555 26.669 71.385 32.084 M 97.722 31.283 C 97.451 31.989, 96.231 38.258, 95.011 45.214 L 92.793 57.862 95.591 61.681 C 97.130 63.781, 98.714 65.889, 99.110 66.365 C 99.506 66.841, 101.614 65.798, 103.793 64.046 L 107.755 60.862 105.938 56.080 C 104.939 53.449, 103.397 47.518, 102.512 42.899 C 100.078 30.196, 100.026 30, 99.088 30 C 98.607 30, 97.992 30.578, 97.722 31.283 M 103 30.322 C 103 33.994, 108.081 55.370, 109.605 58.109 C 109.792 58.445, 112.495 57.432, 115.613 55.859 C 118.731 54.287, 122.906 52.959, 124.891 52.910 L 128.500 52.820 125 51.825 C 117.543 49.705, 116.076 44.907, 120.512 37.148 C 121.880 34.754, 123 32.664, 123 32.502 C 123 32.340, 119.287 31.904, 114.750 31.532 C 110.213 31.161, 105.713 30.634, 104.750 30.361 C 103.787 30.088, 103 30.071, 103 30.322 M 88.992 66.235 C 85.596 74.121, 82.949 82.190, 83.878 81.824 C 84.330 81.646, 87.561 78.897, 91.059 75.715 L 97.417 69.931 95.543 66.450 C 92.311 60.449, 91.495 60.422, 88.992 66.235 M 104.613 67.035 L 101.157 70.069 104.208 76.785 C 109.656 88.775, 108.950 100.173, 102.484 104.626 C 95.690 109.303, 88 121.088, 88 126.823 C 88 132.414, 90.885 133.348, 110.066 133.962 C 125.653 134.462, 127.059 134.666, 130.012 136.850 C 133.135 139.160, 133.264 139.171, 137.596 137.516 C 143.025 135.443, 145.007 132.762, 144.978 127.527 C 144.934 119.483, 137.826 109.236, 128.631 103.962 C 122.508 100.450, 120.691 100.309, 117.869 103.131 C 115.925 105.075, 115.782 106.043, 116.243 114.131 L 116.749 123 110.374 123 C 105.280 123, 103.588 122.588, 101.949 120.949 C 98.275 117.275, 100.505 113.712, 117.662 95.841 C 135.890 76.853, 136.516 72.273, 121.169 70.175 C 116.529 69.540, 114.241 68.647, 112.169 66.662 C 110.641 65.198, 109.093 64, 108.730 64 C 108.367 64, 106.514 65.366, 104.613 67.035 M 109.239 108.750 C 101.552 118.002, 101.540 119.856, 109.163 120.715 L 113.500 121.204 113.500 112.606 C 113.500 107.878, 113.429 104.007, 113.343 104.004 C 113.257 104.002, 111.410 106.138, 109.239 108.750" stroke="none" fill="black" fill-rule="evenodd"/>
</svg>