<svg xmlns="http://www.w3.org/2000/svg" width="200" height="200" viewBox="0 0 200 200" version="1.1">
	<path d="M 87.537 13.250 C 85.550 14.987, 84.628 17.273, 83.493 23.277 C 82.685 27.555, 81.364 32.329, 80.559 33.886 C 77.681 39.451, 68.137 40.926, 56.637 37.583 C 51.329 36.040, 49.973 36.032, 38.833 37.481 C 23.790 39.438, 19.877 41.258, 24.914 43.954 C 30.407 46.894, 88.044 47.777, 99.302 45.093 C 101.393 44.595, 102.968 44.498, 102.802 44.877 C 102.636 45.256, 101.628 47.608, 100.562 50.103 L 98.624 54.640 89.918 56.912 C 80.439 59.385, 79.958 59.308, 73.309 54.270 C 68.117 50.337, 60.263 47.780, 55.727 48.546 C 50.414 49.444, 44.800 55.154, 42.370 62.130 C 39.660 69.913, 39.701 92.061, 42.441 100.423 C 44.873 107.842, 49.621 114.183, 53.761 115.540 L 56.934 116.580 46.401 129.455 C 29.812 149.735, 27.049 154.317, 29.438 157.584 C 30.617 159.197, 31.281 159.255, 36.124 158.170 C 39.081 157.508, 49.150 153.862, 58.500 150.069 L 75.500 143.173 78.750 146.572 C 83.494 151.533, 83.206 155.187, 77.654 160.507 C 72.329 165.609, 61.868 170.141, 41.978 175.963 C 24.421 181.102, 21 182.468, 21 184.342 C 21 186.603, 23.679 187.233, 35.504 187.751 L 46.508 188.233 53.004 184.679 C 65.139 178.040, 73.855 175.754, 89 175.238 C 103.081 174.758, 105.967 175.111, 139.500 181.423 C 146.650 182.768, 156.372 184.180, 161.105 184.560 L 169.710 185.251 173.855 179.463 C 177.156 174.853, 178 172.810, 178 169.426 C 178 161.550, 170.764 158.008, 150.500 155.963 C 137.413 154.643, 132 153.380, 132 151.649 C 132 148.627, 143.001 141.047, 159.247 132.873 L 167.500 128.721 164.349 127.226 C 162.616 126.404, 160.644 124.554, 159.967 123.116 C 157.879 118.683, 157.714 107.308, 159.459 88.045 C 161.566 64.796, 160.477 54.676, 155.352 49.861 C 152.189 46.890, 152.363 46.364, 156.750 45.621 C 162.446 44.656, 168.643 41.474, 170.579 38.519 C 172.255 35.961, 172.240 35.796, 170.128 33.685 C 168.241 31.800, 166.949 31.524, 160.720 31.678 C 154.646 31.828, 142.358 34.587, 134.921 37.470 C 133.875 37.876, 131.587 36.382, 128.139 33.041 C 125.278 30.269, 122.528 28, 122.029 28 C 121.530 28, 117.607 25.464, 113.311 22.365 C 105.227 16.532, 94.762 11.002, 91.806 11.001 C 90.874 11, 88.953 12.012, 87.537 13.250 M 88.160 15.750 C 87.660 16.712, 86.718 20.610, 86.068 24.410 C 84.720 32.287, 83.300 35.463, 79.563 38.955 C 76.037 42.248, 66.782 42.897, 57.115 40.528 C 51.223 39.084, 48.836 38.991, 41.336 39.911 C 36.476 40.507, 31.848 40.996, 31.050 40.997 C 29.964 40.999, 29.887 41.287, 30.740 42.140 C 32.470 43.870, 81.101 44.568, 92.500 43.027 C 97.450 42.358, 102.285 41.825, 103.245 41.843 C 104.205 41.861, 106.340 39.912, 107.991 37.513 C 109.642 35.114, 112.383 32.063, 114.083 30.732 L 117.174 28.313 111.837 24.464 C 104.610 19.252, 94.383 14, 91.463 14 C 90.147 14, 88.661 14.787, 88.160 15.750 M 113.699 34.912 C 106.925 42.409, 106.967 42.553, 116.293 43.856 C 120.807 44.486, 127.382 45.002, 130.905 45.001 C 137.195 45, 137.278 44.965, 135.543 43.047 C 134.310 41.685, 132.972 41.256, 131.117 41.627 C 128.792 42.092, 128.298 41.714, 127.176 38.609 C 125.776 34.739, 121.750 31, 118.982 31 C 118.020 31, 115.643 32.760, 113.699 34.912 M 155.500 34.589 C 146.197 36.732, 137 39.406, 137 39.968 C 137 40.344, 138.109 41.694, 139.465 42.967 C 141.638 45.009, 142.572 45.208, 147.341 44.648 C 158.606 43.324, 171.165 37.832, 168.659 35.326 C 167.837 34.504, 158.211 33.964, 155.500 34.589 M 105.200 47.028 C 104.485 48.186, 103.511 50.155, 103.037 51.404 L 102.173 53.675 111.837 51.366 C 117.151 50.096, 122.625 49.030, 124 48.998 C 128.505 48.892, 123.959 47.314, 117.225 46.647 C 113.773 46.305, 109.948 45.777, 108.725 45.474 C 107.153 45.085, 106.118 45.541, 105.200 47.028 M 143.075 49.860 C 141.045 53.652, 120.181 60.073, 105.036 61.565 C 98.460 62.213, 98.056 62.402, 97.050 65.286 C 96.468 66.957, 96.128 68.462, 96.297 68.630 C 96.465 68.798, 100.854 69.400, 106.051 69.968 C 118.217 71.297, 124.584 72.794, 126.163 74.696 C 127.846 76.724, 125.469 78.491, 119.729 79.478 L 115.500 80.206 119.500 82.029 C 121.700 83.031, 124.737 83.885, 126.250 83.926 C 127.837 83.969, 129 84.563, 129 85.333 C 129 86.066, 130.826 88.133, 133.057 89.926 C 136.248 92.490, 137.049 93.754, 136.807 95.843 C 136.320 100.054, 132.089 100.870, 110 101.014 C 86 101.170, 81.073 102.449, 100.500 103.480 C 127.076 104.891, 137.302 107.444, 135.473 112.210 C 134.360 115.110, 111.140 123.473, 109.302 121.636 C 108.092 120.425, 110.406 119.179, 117 117.491 C 124.447 115.585, 133 112.113, 133 110.996 C 133 108.948, 109.888 106.052, 93.250 106.016 C 86.948 106.002, 86 106.234, 86 107.788 C 86 108.771, 88.250 111.791, 91 114.500 C 93.750 117.209, 96 119.928, 96 120.543 C 96 121.893, 102.810 126.866, 109 130.037 C 111.496 131.316, 116.243 132.600, 119.658 132.921 L 125.816 133.500 119.158 138.780 C 104.830 150.143, 95.157 152.710, 88.546 146.906 C 83.659 142.615, 82 136.416, 82 122.441 C 82 113.562, 81.680 110.979, 80.454 109.962 C 79.604 109.257, 79.140 108.077, 79.423 107.340 C 79.820 106.305, 78.464 106, 73.469 106 C 67.394 106, 65.131 104.931, 68.483 103.645 C 69.299 103.332, 69.728 102.456, 69.438 101.698 C 68.673 99.705, 70.880 98.246, 78.604 95.641 L 85.439 93.335 87.285 87.067 C 88.300 83.619, 88.921 80.588, 88.665 80.332 C 88.409 80.076, 85.182 79.235, 81.493 78.463 C 70.441 76.151, 64.898 71.526, 66.332 65.813 C 66.846 63.767, 68.011 62.973, 72.236 61.788 L 77.500 60.311 71.130 56.178 C 61.031 49.626, 55.156 49.434, 49.463 55.471 C 44.061 61.198, 41.320 75.205, 42.994 88.523 C 44.231 98.353, 46.525 104.968, 50.278 109.521 C 52.650 112.399, 53.814 113, 57.014 113 C 59.141 113, 61.159 113.448, 61.497 113.995 C 61.835 114.542, 57.588 120.363, 52.059 126.929 C 41.320 139.684, 31 153.555, 31 155.233 C 31 157.280, 39.372 154.856, 57.769 147.485 L 76.417 140.012 79.735 143.228 C 81.560 144.996, 83.555 148.120, 84.169 150.170 C 87.568 161.516, 74.024 170.093, 36.250 180.514 C 30.612 182.069, 26 183.654, 26 184.035 C 26 184.416, 30.272 184.951, 35.494 185.224 L 44.988 185.721 54.435 180.982 C 68.458 173.949, 75.377 172.482, 94 172.590 C 107.200 172.667, 111.800 173.147, 125 175.827 C 143.546 179.593, 158.952 181.986, 164.702 181.994 C 168.525 181.999, 169.167 181.617, 171.815 177.750 C 177.278 169.775, 177.118 166.112, 171.177 163.105 C 166.555 160.766, 164.561 160.366, 148.162 158.488 C 133.283 156.784, 129 155.234, 129 151.552 C 129 147.637, 139.594 139.736, 155.719 131.623 L 160.938 128.998 158.536 125.458 C 154.940 120.159, 154.539 113.319, 156.500 90.712 C 158.419 68.593, 158.097 60.070, 155.122 54.239 C 152.205 48.522, 145.161 45.961, 143.075 49.860 M 136 49.648 C 120.723 51.942, 100 56.875, 100 58.216 C 100 61.075, 136.511 53.219, 138.548 49.922 C 138.862 49.415, 138.979 49.061, 138.809 49.136 C 138.639 49.211, 137.375 49.441, 136 49.648 M 75 63.890 C 68.467 65.901, 67.314 68.528, 71.513 71.831 C 74.341 74.056, 88.228 77.595, 89.951 76.530 C 92.613 74.885, 90.468 72.993, 82.793 70.221 C 70.251 65.691, 71.120 63.026, 83.839 67.013 C 87.326 68.106, 90.769 69, 91.491 69 C 92.512 69, 95 64.286, 95 62.351 C 95 61.274, 79.663 62.454, 75 63.890 M 97.083 72.380 C 97.313 72.590, 100.330 73.894, 103.789 75.280 C 109.885 77.722, 113.303 77.944, 120.868 76.389 C 124.744 75.593, 122.852 75.014, 111.385 73.488 C 100.271 72.009, 96.343 71.704, 97.083 72.380 M 93 75.893 C 93 77.166, 95.648 78.013, 99.332 77.919 L 102.500 77.838 99.500 76.464 C 96.024 74.872, 93 74.607, 93 75.893 M 90.983 84.235 C 90.377 86.581, 89.652 89.287, 89.373 90.250 C 88.722 92.492, 88.415 92.522, 102.357 88.997 C 108.878 87.349, 115.065 86, 116.107 86 C 119.442 86, 118.140 84.304, 113.250 82.281 C 110.038 80.952, 105.842 80.259, 100.293 80.143 L 92.085 79.970 90.983 84.235 M 100.250 92.312 C 92.519 94.273, 88 95.896, 88 96.710 C 88 98.428, 87.648 98.505, 102.500 93.545 C 117.844 88.421, 117.131 88.030, 100.250 92.312 M 111.236 93.530 L 98.972 97.760 108.488 98.474 C 121.354 99.438, 134 97.950, 134 95.471 C 134 93.577, 127.732 88.967, 125.406 89.150 C 124.358 89.232, 117.981 91.203, 111.236 93.530 M 79 98.500 L 75.500 99.848 78.668 99.924 C 82.355 100.012, 85 99.164, 85 97.893 C 85 96.696, 83.215 96.877, 79 98.500 M 84.528 119.834 C 84.162 122.001, 84.351 127.292, 84.949 131.591 C 86.506 142.783, 89.549 146.912, 96.282 146.968 C 100.917 147.007, 105.293 145.240, 112.647 140.359 L 118.275 136.623 114.833 135.432 C 106.836 132.663, 102.159 129.665, 88.347 118.453 L 85.194 115.893 84.528 119.834" stroke="none" fill="black" fill-rule="evenodd"/>
</svg>