<svg xmlns="http://www.w3.org/2000/svg" width="200" height="200" viewBox="0 0 200 200" version="1.1">
	<path d="M 116.500 21.176 L 78.500 27.155 67 24.908 C 53.965 22.362, 40.335 21.932, 34.664 23.888 C 29.169 25.784, 24.612 30.188, 21.880 36.243 C 19.627 41.237, 19.515 42.476, 19.639 61 C 19.761 79.039, 19.752 89.216, 19.567 143 L 19.500 162.500 22.631 169.109 C 25.788 175.771, 29.810 179.837, 35.315 181.930 C 37.774 182.865, 38.578 182.631, 41.811 180.044 C 46.776 176.070, 52.903 173.509, 62.500 171.397 C 77.661 168.061, 118.751 169.488, 139.755 174.080 C 142.096 174.592, 146.198 176.583, 148.872 178.504 C 159.875 186.408, 167.207 183.291, 170.985 169.104 C 173.116 161.100, 173.786 138.910, 172.869 106.683 C 172.037 77.421, 172.126 73.607, 173.980 59.183 C 176.399 40.370, 176.511 33.158, 174.461 28.253 C 172.594 23.785, 171.524 23.035, 166.985 23.015 C 162.561 22.996, 157.336 25.755, 148.807 32.612 C 145.031 35.649, 141.842 37.553, 141.489 36.983 C 140.287 35.038, 132.499 31.720, 127.521 31.031 C 123.577 30.486, 123.036 30.214, 125 29.765 C 151.120 23.786, 159 21.056, 159 17.984 C 159 16.397, 156.931 14.839, 155.168 15.098 C 154.801 15.152, 137.400 17.887, 116.500 21.176 M 122.500 23.054 C 106 25.693, 91.600 28.086, 90.500 28.372 C 86.071 29.525, 117.091 27.959, 125 26.630 C 135.791 24.817, 149.639 21.268, 152.948 19.468 C 156.343 17.621, 156.858 17.561, 122.500 23.054 M 35.854 26.570 C 23.165 30.476, 19.700 44.083, 22.247 80 C 23.133 92.497, 23.297 103.205, 22.751 113 C 21.236 140.222, 21.406 156.941, 23.261 163.063 C 25.472 170.359, 28.682 174.978, 33.369 177.607 L 37.179 179.744 42.049 176.467 C 52.381 169.514, 66.233 166.660, 89.500 166.689 C 106.691 166.710, 118.812 167.734, 135.860 170.605 C 143.621 171.912, 145.983 172.764, 149.687 175.591 C 160.607 183.926, 165.768 180.853, 169.149 164 C 170.515 157.195, 170.711 101.342, 169.423 86 C 168.996 80.905, 169.468 73.048, 170.897 61.500 C 174.047 36.040, 173.525 26.936, 168.830 25.446 C 166.079 24.573, 155.744 29.880, 149.530 35.357 C 144.822 39.506, 144.624 39.879, 145.780 42.416 C 146.451 43.889, 146.993 47.210, 146.984 49.797 C 146.961 56.193, 143.687 61.681, 137.676 65.397 C 133.608 67.912, 131.596 68.432, 124.497 68.805 C 117.287 69.183, 115.807 69.576, 113.885 71.622 L 111.651 74 113.677 76.250 C 116.921 79.854, 117.152 80.641, 117.671 89.842 C 118.215 99.490, 116.832 111.892, 114.384 119.315 C 112.123 126.172, 106.337 132, 101.790 132 C 91.076 132, 85.704 115.814, 91.075 99.718 C 93.740 91.732, 96.739 86.619, 102.542 80.165 C 105.126 77.291, 106.970 74.364, 106.678 73.602 C 105.789 71.287, 84.754 56.034, 83.500 56.796 C 82.863 57.183, 78.217 60.174, 73.178 63.443 L 64.014 69.387 66.878 70.591 C 71.129 72.378, 74.854 77.937, 76.161 84.447 C 78.200 94.601, 74.004 113.311, 64.992 134.250 C 62.921 139.063, 61.430 143, 61.680 143 C 61.929 143, 63.566 141.931, 65.317 140.624 C 67.068 139.317, 70.241 137.689, 72.369 137.007 C 79.884 134.597, 86.185 136.575, 105.339 147.355 C 109.651 149.782, 114.695 152.013, 116.549 152.314 C 121.557 153.127, 126.765 151.291, 131.208 147.147 L 135.163 143.458 138.082 119.979 C 142.370 85.493, 143.223 81.824, 146.250 84.850 C 147.163 85.762, 147.543 91.954, 147.660 107.800 C 147.747 119.735, 148.285 132.605, 148.855 136.400 C 149.895 143.322, 149.144 150.993, 147.043 154.919 C 145.720 157.391, 140.222 161.965, 137.186 163.120 C 131.112 165.429, 120.883 165.887, 99.862 164.791 C 84.013 163.965, 76.114 163.959, 70.359 164.767 C 63.407 165.743, 62.025 165.660, 58.379 164.049 C 56.113 163.047, 53.937 161.707, 53.545 161.073 C 53.153 160.438, 51.986 160.187, 50.952 160.515 C 49.408 161.005, 49.083 160.610, 49.137 158.306 C 49.173 156.763, 48.145 152.800, 46.853 149.500 C 44.568 143.662, 44.517 142.852, 44.949 119.500 C 45.870 69.676, 45.717 65.409, 42.699 56.824 C 39.224 46.940, 39.197 42.712, 42.586 39.323 C 44.932 36.978, 45.708 36.786, 50.962 37.263 C 57.175 37.826, 69.142 42.964, 78.868 49.244 L 84.235 52.710 91.266 48.640 C 96.902 45.377, 99.298 44.563, 103.340 44.535 C 107.972 44.503, 108.572 44.777, 110.692 47.898 C 112.548 50.630, 113 52.639, 113 58.148 C 113 63.064, 113.363 65, 114.286 65 C 114.993 65, 121.109 59.358, 127.878 52.463 C 141.528 38.557, 141.540 38.517, 133.187 35.327 C 128.570 33.564, 119.402 33, 111.594 34 C 107.639 34.506, 105.054 32.544, 108.695 31.798 C 109.688 31.595, 106 31.612, 100.500 31.837 C 95 32.062, 90.275 32.573, 90 32.974 C 89.725 33.375, 80.725 33.983, 70 34.327 C 59.275 34.670, 48.138 35.250, 45.250 35.615 C 40.912 36.163, 40 36.012, 40 34.746 C 40 33.140, 43.973 32.203, 60.763 29.851 C 65.308 29.214, 68.844 28.511, 68.622 28.288 C 67.776 27.443, 50.281 25.010, 45.500 25.073 C 42.750 25.110, 38.409 25.783, 35.854 26.570 M 76.269 30.693 C 77.242 30.947, 78.592 30.930, 79.269 30.656 C 79.946 30.382, 79.150 30.175, 77.500 30.195 C 75.850 30.215, 75.296 30.439, 76.269 30.693 M 45.792 40.410 C 42.360 42.111, 42.326 47.520, 45.686 57.305 L 48.500 65.500 48.037 87 C 47.119 129.607, 47.375 142.001, 49.302 148.285 C 50.285 151.491, 51.516 153.799, 52.063 153.461 C 54.946 151.679, 67.635 122.073, 71.136 108.960 C 74.184 97.544, 74.350 83.942, 71.500 79.105 C 68.620 74.214, 65.196 72.047, 59.236 71.342 C 53.521 70.665, 52.423 69.382, 56.750 68.438 C 61.805 67.334, 64.544 65.960, 73.279 60.147 L 81.957 54.372 74.228 49.731 C 60.590 41.541, 50.309 38.171, 45.792 40.410 M 130.206 53.731 L 118.912 65.500 124.157 65.809 C 137.205 66.579, 146.899 56.766, 143.941 45.782 C 143.381 43.702, 142.603 41.991, 142.211 41.981 C 141.820 41.970, 136.418 47.257, 130.206 53.731 M 94.039 50.250 C 90.667 52.038, 88.041 53.941, 88.204 54.479 C 88.367 55.018, 91.425 57.670, 95 60.373 C 98.575 63.076, 103.344 66.796, 105.598 68.640 C 109.575 71.893, 109.747 71.937, 111.392 70.120 C 112.892 68.462, 112.909 68.179, 111.543 67.655 C 110.335 67.191, 110 65.370, 110 59.254 C 110 46.228, 105.943 43.939, 94.039 50.250 M 104.588 81.808 C 95.878 91.901, 90.093 107.332, 91.582 116.500 C 93.516 128.405, 101.665 132.869, 107.824 125.397 C 112.685 119.500, 114.423 111.616, 114.464 95.274 C 114.499 81.401, 114.438 80.986, 112 78.582 L 109.500 76.117 104.588 81.808 M 144.182 94.365 C 144.082 94.841, 142.611 106.316, 140.914 119.865 C 137.841 144.404, 137.816 144.513, 134.664 147.838 C 128.237 154.617, 119.927 156.677, 111.376 153.610 C 109.244 152.846, 103.356 149.759, 98.290 146.751 C 83.502 137.970, 76.336 137.031, 67.200 142.680 C 62.229 145.753, 53.663 155.477, 54.277 157.349 C 54.484 157.982, 56.156 159.517, 57.991 160.761 C 60.983 162.788, 62.011 162.943, 67.914 162.261 C 75.055 161.436, 79.906 161.414, 111 162.069 C 133.438 162.541, 136.229 162.027, 142.179 156.328 C 145.438 153.207, 147.539 145.345, 146.497 140.173 C 146.090 138.153, 145.443 126.825, 145.060 115 C 144.677 103.175, 144.282 93.889, 144.182 94.365" stroke="none" fill="black" fill-rule="evenodd"/>
</svg>