<svg xmlns="http://www.w3.org/2000/svg" width="200" height="200" viewBox="0 0 200 200" version="1.1">
	<path d="M 39 11.974 C 31.604 12.932, 27 15.386, 27 18.371 C 27 19.646, 28.871 23.572, 31.158 27.095 C 34.106 31.636, 35.454 34.896, 35.789 38.295 C 36.246 42.914, 36.097 43.250, 31.747 47.418 C 29.262 49.798, 24.591 52.984, 21.365 54.496 C 18.139 56.009, 15.355 57.373, 15.178 57.528 C 15.001 57.683, 15.550 59.855, 16.399 62.353 C 18.833 69.524, 21.630 84.533, 25.465 111 C 28.673 133.142, 32.254 153.755, 33.488 157.193 C 33.747 157.912, 31.775 161.122, 29.107 164.327 C 23.128 171.509, 21.547 174.377, 22.376 176.539 C 23.342 179.054, 26.219 178.018, 47.500 167.492 C 68.116 157.295, 76.199 154.440, 81.584 155.450 C 85.767 156.235, 85.836 155.461, 82.029 150.428 C 80.394 148.268, 78.032 143.575, 76.779 140 C 74.825 134.428, 74.500 131.502, 74.500 119.500 C 74.500 104.035, 75.809 97.377, 80.979 86.543 C 83.721 80.798, 91.236 71, 92.900 71 C 93.301 71, 94.364 72.539, 95.261 74.421 L 96.892 77.842 94.069 78.826 C 90.835 79.953, 86.794 84.953, 85.153 89.857 C 81.363 101.182, 81.831 122.766, 86.171 136.817 C 88.433 144.141, 94.107 151, 97.905 151 C 100.831 151, 108.281 143.922, 110.475 139.056 L 112.272 135.070 116.790 139.046 C 119.274 141.233, 122.700 143.394, 124.403 143.848 C 136.491 147.070, 143.948 129.342, 142.733 100.273 C 142.140 86.087, 140.355 78.754, 136.478 74.570 C 134.304 72.225, 133.411 71.922, 130.221 72.447 C 127.400 72.911, 124.080 72.204, 116.500 69.523 C 107.394 66.303, 106.931 66.022, 111.320 66.379 C 115.019 66.679, 119.900 65.625, 132.310 61.845 C 141.204 59.136, 148.861 56.539, 149.327 56.073 C 151.128 54.272, 147.936 54.107, 139.883 55.584 C 129.756 57.441, 104.951 58.549, 95.693 57.558 C 89.217 56.864, 84.924 54.658, 86.686 52.930 C 87.134 52.491, 95.627 48.727, 105.560 44.566 L 123.620 37.001 131.560 38.005 C 158.901 41.462, 164.391 51.720, 150.907 74.155 L 145.928 82.439 148.825 88.969 C 157.383 108.264, 156.284 128.586, 145.525 150 C 141.769 157.474, 134.180 168.027, 132.769 167.736 C 132.136 167.606, 131.447 168.287, 131.236 169.250 C 130.968 170.477, 131.473 171, 132.929 171 C 137.766 171, 151.174 147.662, 154.995 132.590 C 158.724 117.882, 157.402 101.155, 151.487 88.203 L 149.068 82.906 153.993 74.317 C 166.817 51.951, 161.262 39.657, 136.601 35.823 L 129.097 34.657 140.799 29.493 C 147.234 26.653, 154.447 23.328, 156.827 22.105 C 159.206 20.882, 162.072 20.020, 163.195 20.191 C 165.944 20.607, 172.488 31.591, 175.295 40.500 C 177.267 46.759, 177.467 49.246, 177.191 64 C 176.650 92.831, 176.593 107.918, 176.937 130.500 C 177.208 148.250, 176.958 153.808, 175.646 159.271 C 171.395 176.964, 163.504 182.652, 147.250 179.738 C 143.927 179.142, 143 179.279, 143 180.363 C 143 183.446, 158.288 183.977, 164.500 181.110 C 169.652 178.732, 172.290 175.799, 175.391 168.997 C 179.464 160.067, 180.074 152.547, 180.044 111.645 C 180.029 90.665, 180.114 67.875, 180.234 61 C 180.421 50.350, 180.110 47.390, 178.136 41 C 175.202 31.506, 170.905 23.374, 166.338 18.672 C 162.440 14.658, 162.230 14.582, 158.742 15.908 C 157.222 16.486, 147.099 16.147, 130.927 14.977 C 80.524 11.331, 51.331 10.378, 39 11.974 M 39 14.625 C 33.779 15.292, 30 17.045, 30 18.802 C 30 19.659, 31.868 23.228, 34.152 26.733 C 42.798 40.004, 39.367 48.876, 22.348 57.258 L 18.196 59.303 19.584 63.239 C 21.559 68.837, 24.446 84.806, 28.490 112.500 C 32.097 137.202, 34.377 150.103, 36.129 155.715 C 37.067 158.721, 36.805 159.322, 32.087 164.992 C 27.057 171.035, 24.439 175, 25.477 175 C 25.777 175, 33.238 171.388, 42.055 166.973 C 58.808 158.584, 71.844 153.011, 74.776 152.985 C 78.650 152.950, 78.996 151.609, 76.454 146.469 C 66.260 125.854, 71.171 90.261, 86.572 73.132 C 93.455 65.476, 92.053 63.975, 76.029 61.842 C 67.537 60.711, 66.829 60.767, 61.191 63.006 L 55.271 65.358 57.348 69.929 C 60.628 77.146, 60.322 89.992, 56.600 101.347 C 53.373 111.193, 42.379 130.500, 40 130.500 C 39.175 130.500, 38.593 129.995, 38.708 129.377 C 40.351 120.490, 40.992 113.619, 41.028 104.500 C 41.098 86.636, 42.475 74.912, 45.146 69.419 C 48.929 61.639, 49.274 61.194, 51.951 60.645 C 63.698 58.233, 63.351 58.442, 60.431 55.522 C 55.209 50.300, 49 33.300, 49 24.224 C 49 18.209, 50.384 16, 54.154 16 C 58.332 16, 67.127 25.034, 76.800 39.262 C 80.815 45.168, 84.395 50, 84.755 50 C 85.115 50, 92.180 47.188, 100.455 43.750 L 115.500 37.500 105.500 36.684 C 93.655 35.718, 90.622 34.541, 90.184 30.742 C 89.885 28.152, 90.016 28.056, 92.529 29.011 C 95.936 30.306, 108.996 28.264, 129.319 23.257 C 139.395 20.775, 143.628 19.348, 142.367 18.858 C 137.106 16.812, 49.849 13.239, 39 14.625 M 52.627 18.707 C 51.495 19.838, 51.994 29.389, 53.475 34.955 C 56.627 46.798, 63.729 57.522, 67.058 55.464 C 67.688 55.075, 68.843 53.226, 69.624 51.357 L 71.044 47.958 74.641 50.402 C 78.342 52.917, 81.543 52.858, 80.559 50.293 C 79.474 47.466, 67.637 30.813, 63.222 25.902 C 58.712 20.886, 53.790 17.543, 52.627 18.707 M 139.500 23.586 C 123.098 27.882, 103.422 31.964, 98.374 32.118 C 89.713 32.383, 100.480 33.763, 112.129 33.882 L 123.757 34 138.551 27.494 C 158.759 18.607, 158.776 18.538, 139.500 23.586 M 71.200 54.051 C 69.916 56.107, 70.335 56.318, 73.347 55.133 C 74.892 54.525, 74.967 54.217, 73.806 53.254 C 72.721 52.354, 72.151 52.528, 71.200 54.051 M 75.132 57.360 C 72.884 58.629, 73.046 58.730, 78.297 59.347 C 81.340 59.705, 84.543 60.271, 85.415 60.606 C 86.287 60.940, 87 60.705, 87 60.082 C 87 58.961, 83.962 57.477, 79.706 56.520 C 78.493 56.247, 76.434 56.625, 75.132 57.360 M 90.638 61.223 C 92.301 63.913, 116.156 64.356, 123.198 61.828 C 126.511 60.638, 124.988 60.500, 108.543 60.500 C 98.449 60.500, 90.392 60.825, 90.638 61.223 M 49.146 67.541 C 47.982 69.021, 46.546 71.867, 45.955 73.866 C 45.035 76.977, 42.797 120.951, 43.515 121.802 C 44.127 122.526, 51.008 108.835, 53.468 102 C 58.068 89.214, 57.907 74.980, 53.078 67.618 L 51.262 64.851 49.146 67.541 M 97.750 68.080 C 95.424 69.435, 95.492 69.807, 99.112 75.515 L 102.223 80.422 103.644 77.711 C 105.313 74.524, 107.605 74.180, 108.495 76.983 C 108.841 78.073, 109.488 82.911, 109.932 87.733 C 110.377 92.555, 111.340 97.943, 112.073 99.706 C 113.174 102.357, 113.183 104.694, 112.124 113.179 C 110.682 124.739, 110.394 125.572, 108.411 123.926 C 107.324 123.024, 106.996 119.624, 106.984 109.128 L 106.969 95.500 103.167 88.500 C 100.172 82.985, 98.825 81.436, 96.817 81.196 C 93.431 80.793, 89.548 85.420, 87.500 92.297 C 81.555 112.261, 88.212 148, 97.875 148 C 100.720 148, 105.638 142.660, 109.089 135.824 L 112.079 129.901 117.289 135.383 C 123.220 141.622, 126.782 143.028, 130.494 140.596 C 136.521 136.647, 139.964 123.712, 139.968 105 C 139.971 91.868, 138.302 81.916, 135.338 77.393 C 133.921 75.230, 133.160 74.935, 130.358 75.461 C 127.905 75.921, 123.538 74.908, 113.460 71.541 C 105.985 69.043, 99.787 67.014, 99.685 67.030 C 99.583 67.047, 98.713 67.519, 97.750 68.080 M 104.668 82.160 C 104.358 83.348, 104.737 85.485, 105.512 86.910 C 106.891 89.446, 106.921 89.401, 106.960 84.750 C 107.001 79.853, 105.666 78.344, 104.668 82.160" stroke="none" fill="black" fill-rule="evenodd"/>
</svg>