<svg xmlns="http://www.w3.org/2000/svg" width="200" height="200" viewBox="0 0 200 200" version="1.1">
	<path d="M 113.656 15.183 C 112.843 16.457, 110.484 22.900, 108.413 29.500 C 106.343 36.100, 104.571 41.619, 104.477 41.764 C 104.383 41.909, 100.603 40.109, 96.078 37.764 L 87.850 33.500 88.241 25.336 L 88.632 17.172 84.566 16.598 C 75.541 15.324, 49.644 13.974, 46.190 14.598 C 40.301 15.660, 38.736 16.814, 39.431 19.582 C 39.946 21.633, 39.676 22, 37.654 22 C 36.343 22, 34.084 22.933, 32.635 24.073 C 27.834 27.849, 29.698 34.640, 38.501 45.449 C 40.976 48.486, 43 51.150, 43 51.367 C 43 51.585, 40.862 52.300, 38.250 52.957 C 31.407 54.678, 24.637 58.651, 22.562 62.165 C 20.142 66.261, 20.811 70.309, 25.871 82.198 C 32.906 98.725, 34.210 107.244, 31.477 118.833 C 30.656 122.316, 30.279 125.643, 30.640 126.226 C 31.738 128.003, 33.879 122.663, 35.022 115.295 C 36.527 105.599, 34.954 97.133, 28.945 82.574 C 23.764 70.020, 23.039 65.817, 25.458 62.364 C 27.141 59.961, 34.314 56.664, 41.513 54.985 C 44.256 54.345, 47.102 53.636, 47.837 53.409 C 48.694 53.144, 46.955 50.577, 42.984 46.248 C 31.037 33.223, 29.766 25.886, 39.193 24.356 C 42.202 23.868, 43.421 24.502, 50.552 30.259 C 65.857 42.616, 69.205 50.849, 62.276 59.084 C 59.113 62.843, 60.197 64.378, 65.034 62.990 C 69.226 61.788, 74 61.698, 74 62.821 C 74 63.273, 71.252 67.886, 67.893 73.071 C 53.643 95.070, 51.836 104.603, 60.350 112.855 C 62.172 114.620, 65.876 116.923, 68.581 117.971 L 73.500 119.877 65.435 127.752 C 47.562 145.203, 25.276 156.133, 19.449 150.306 C 17.442 148.299, 17.919 140.316, 20.479 133.060 C 21.437 130.345, 21.681 128.281, 21.112 127.712 C 19.813 126.413, 18.294 129.610, 16.467 137.487 C 12.737 153.569, 20.407 158.996, 36.471 151.642 C 49.127 145.848, 71.027 128.715, 74.594 121.819 C 76.271 118.576, 75.208 116, 72.193 116 C 69.015 116, 61.745 111.630, 59.906 108.613 C 55.776 101.841, 58.273 93.211, 69.340 76.007 C 74.502 67.983, 76.021 64.806, 75.795 62.507 C 75.512 59.627, 75.299 59.500, 70.737 59.500 C 66.835 59.500, 66.111 59.229, 66.729 58 C 67.144 57.175, 67.487 53.788, 67.491 50.473 C 67.499 45.093, 67.104 43.905, 63.809 39.419 C 61.779 36.655, 57.604 32.392, 54.532 29.947 C 50.921 27.073, 49.484 25.386, 50.468 25.178 C 52.613 24.723, 65.918 28.240, 76.140 31.963 L 84.781 35.110 85.449 49.305 C 85.816 57.112, 86.533 71.150, 87.043 80.500 C 88.206 101.862, 87.067 110.718, 81.427 124.156 C 80.122 127.267, 79.081 131.317, 79.114 133.156 C 79.148 134.995, 76.660 145.656, 73.587 156.846 C 70.514 168.036, 68 177.373, 68 177.596 C 68 177.818, 67.373 178, 66.607 178 C 64.808 178, 64 180.196, 64 185.082 C 64 190.318, 66.513 190.358, 68.075 185.146 C 69.225 181.307, 69.262 181.284, 77.365 179.574 C 93.521 176.163, 110.112 165.596, 114.927 155.651 C 117.558 150.216, 117.544 147.544, 114.873 144.873 C 113.042 143.042, 111.965 142.824, 107.123 143.307 C 101.868 143.831, 101.672 143.776, 104.129 142.465 C 105.576 141.694, 108.896 140.583, 111.509 139.998 C 122.355 137.567, 132.507 144.234, 143.487 161 C 152.498 174.758, 156.106 179.146, 159.613 180.612 C 165.602 183.114, 169.765 179.511, 175.745 166.651 C 178.486 160.756, 178.528 160, 176.116 160 C 172.487 160, 158.419 151.941, 149.500 144.753 L 140.500 137.500 150.025 136.820 C 161.822 135.978, 169.745 133.194, 173.940 128.416 C 180.383 121.077, 176.740 115.715, 163.843 113.556 C 160.406 112.981, 160.107 112.630, 158.876 107.722 C 158.155 104.850, 157.601 98.675, 157.645 94 C 157.740 83.821, 161.166 72.611, 168.883 57.233 C 175.225 44.595, 175.929 41.212, 172.817 38.325 C 171.543 37.143, 169.375 36.023, 168 35.838 C 165.682 35.525, 165.458 35.007, 164.920 28.745 C 164.473 23.550, 163.798 21.414, 161.995 19.495 C 156.886 14.057, 150.231 16.871, 129.405 33.278 C 121.880 39.206, 115.571 43.905, 115.386 43.719 C 115.201 43.534, 115.704 38.459, 116.505 32.441 C 118.342 18.637, 118.352 15.537, 116.567 14.056 C 115.416 13.100, 114.843 13.322, 113.656 15.183 M 43.750 17.625 C 41.851 18.191, 41.453 19.544, 42.918 20.450 C 43.424 20.762, 47.811 21.704, 52.668 22.544 C 57.526 23.384, 66.667 25.825, 72.983 27.969 C 79.299 30.113, 84.541 31.784, 84.633 31.684 C 84.725 31.583, 84.957 28.800, 85.150 25.500 L 85.500 19.500 79 18.843 C 69.104 17.844, 45.725 17.035, 43.750 17.625 M 111.053 30 C 109.282 35.775, 107.627 41.249, 107.376 42.165 C 106.991 43.568, 110.773 47.561, 111.653 46.681 C 112.248 46.085, 115.093 21.784, 114.696 20.680 C 114.464 20.031, 112.824 24.225, 111.053 30 M 149.136 22.261 C 146.736 23.490, 138.726 29.330, 131.336 35.239 C 123.945 41.149, 117.022 46.453, 115.949 47.027 C 113.426 48.377, 113.508 48.830, 117.023 52.941 L 119.965 56.382 122.297 54.191 C 124.638 51.992, 127 51.298, 127 52.809 C 127 53.254, 124.777 55.925, 122.061 58.743 C 118.239 62.708, 116.655 65.377, 115.061 70.539 C 113.008 77.184, 112.458 84.373, 113.659 88.859 C 114.205 90.901, 114.720 90.297, 117.493 84.359 C 119.254 80.586, 121.599 76.701, 122.704 75.725 C 124.542 74.101, 124.827 74.086, 126.046 75.556 C 127.135 76.868, 127.158 78.451, 126.171 84.207 C 125.100 90.455, 120.252 108.940, 119.447 109.847 C 119.278 110.038, 118.132 108.238, 116.901 105.847 L 114.663 101.500 113.736 105 C 113.227 106.925, 112.972 111.734, 113.171 115.687 C 113.586 123.948, 115.919 127.519, 121.595 128.584 C 127.267 129.648, 127.369 128.184, 122.030 122.342 C 117.082 116.928, 115.764 114, 118.275 114 C 120.204 114, 134.342 128.637, 133.590 129.854 C 132.234 132.048, 138.718 134, 147.361 134 C 157.521 134, 166.961 131.370, 171.127 127.378 C 176.744 121.997, 173.974 117.699, 163.959 116.258 C 158.729 115.505, 158.441 115.305, 157.100 111.486 C 156.331 109.294, 155.495 102.964, 155.243 97.419 C 154.657 84.499, 156.665 76.843, 165.599 57.938 C 169.321 50.063, 172.009 43.090, 171.825 41.789 C 171.564 39.952, 170.609 39.328, 166.983 38.626 L 162.467 37.752 162.463 32.126 C 162.461 29.032, 161.851 25.038, 161.108 23.250 C 159.989 20.558, 159.220 20.002, 156.629 20.014 C 154.908 20.022, 151.536 21.033, 149.136 22.261 M 88.362 52.250 C 89.475 77.579, 90.290 92.043, 90.590 91.743 C 91.067 91.267, 103 46.925, 103 45.631 C 103 44.531, 90.328 37, 88.477 37 C 88.045 37, 87.994 43.862, 88.362 52.250 M 105.506 48.250 C 104.946 49.873, 93.478 92.534, 87.585 114.917 C 85.063 124.496, 83.193 132.526, 83.429 132.762 C 83.665 132.999, 92.210 132.864, 102.417 132.463 C 120.372 131.759, 120.873 131.682, 117.809 130.117 C 116.067 129.228, 113.766 127.304, 112.694 125.841 C 110.036 122.214, 109.355 111.421, 111.269 103.250 C 112.551 97.773, 112.552 96.227, 111.277 90.750 C 109.672 83.861, 110.150 75.662, 112.552 68.852 C 114.338 63.789, 114.370 64.090, 112.113 64.681 C 108.681 65.578, 108.927 63.208, 112.494 61.004 C 114.422 59.812, 116 58.031, 116 57.046 C 116 55.481, 107.972 47, 106.491 47 C 106.186 47, 105.743 47.563, 105.506 48.250 M 120.205 85.107 C 116.067 93.939, 115.535 96.464, 117.046 100.111 C 118.641 103.962, 119.074 103.189, 121.954 91.338 C 124.931 79.085, 124.218 76.543, 120.205 85.107 M 127.750 131.662 C 128.438 131.940, 129.563 131.940, 130.250 131.662 C 130.938 131.385, 130.375 131.158, 129 131.158 C 127.625 131.158, 127.063 131.385, 127.750 131.662 M 103 135.167 C 93.925 135.644, 85.533 135.873, 84.352 135.676 C 82.352 135.341, 81.812 136.764, 76.545 156.268 C 73.433 167.792, 71.103 177.436, 71.367 177.701 C 72.350 178.684, 87.953 174.053, 94.082 170.959 C 102.424 166.747, 112.592 156.693, 113.522 151.735 C 114.430 146.895, 113.653 146, 108.546 146 C 105.510 146, 101.918 147.152, 96.566 149.842 C 87.391 154.453, 85.617 153.409, 92.434 147.410 C 99.807 140.922, 106.244 137.830, 113.611 137.239 C 126.256 136.224, 133.574 141.679, 148.043 162.906 C 152.694 169.730, 157.758 176.245, 159.296 177.386 C 161.870 179.295, 162.306 179.340, 164.796 177.956 C 167.253 176.591, 173.989 165.907, 173.911 163.500 C 173.893 162.950, 170.419 160.824, 166.189 158.776 C 158.213 154.912, 150.540 149.536, 140.848 141.020 C 137.090 137.718, 133.738 135.718, 130.848 135.051 C 126.040 133.943, 126.301 133.942, 103 135.167" stroke="none" fill="black" fill-rule="evenodd"/>
</svg>