<svg xmlns="http://www.w3.org/2000/svg" width="200" height="200" viewBox="0 0 200 200" version="1.1">
	<path d="M 144.500 15.685 C 137.668 16.355, 93.210 22.891, 78.749 25.352 C 65.047 27.684, 64.979 27.685, 59.749 25.788 C 46.960 21.150, 42.465 20.001, 37.161 20.016 C 26.631 20.047, 20.385 26.008, 17.343 38.927 C 15.444 46.995, 15.713 70.811, 18 97 C 20.416 124.667, 20.523 139.875, 18.377 150.683 C 15.702 164.159, 18.067 171.863, 26.211 176.207 C 32.753 179.697, 48.262 179.341, 70.740 175.186 C 80.221 173.434, 91.153 172, 95.032 172 C 98.911 172, 105.553 171.276, 109.792 170.391 C 127.449 166.705, 142.868 171.416, 150.011 182.679 L 152.812 187.096 158.227 181.798 C 168.014 172.223, 173.006 158.305, 175.110 134.728 C 176.029 124.427, 176.010 113.422, 175.022 85 C 174.058 57.276, 174.027 46.286, 174.892 39.292 C 175.518 34.227, 176.275 29.448, 176.573 28.671 C 176.871 27.894, 176.527 27.040, 175.807 26.774 C 175.054 26.495, 169.865 31.324, 163.557 38.176 L 152.614 50.062 150.736 45.028 C 149.578 41.925, 147.601 39.035, 145.584 37.496 C 141.874 34.666, 133.537 31.567, 126.944 30.567 C 115.993 28.906, 116.070 28.778, 129.500 26.326 C 150.437 22.505, 159.283 19.721, 158.787 17.110 C 158.465 15.417, 152.897 14.862, 144.500 15.685 M 143.500 18.661 C 132.154 20.026, 101.242 24.527, 90 26.451 C 79.478 28.251, 77.603 28.787, 81.500 28.879 C 89.389 29.067, 107.173 27.197, 123.500 24.462 C 145.075 20.849, 159.086 16.785, 143.500 18.661 M 31.684 23.449 C 26.565 25.275, 24.570 27.248, 22.143 32.889 C 17.668 43.291, 17.321 56.971, 20.594 94 C 22.912 120.243, 23.373 136.615, 22.029 145 C 21.368 149.125, 20.616 155.200, 20.359 158.500 C 19.110 174.531, 30.311 178.865, 60.509 174.035 C 77.869 171.258, 79.993 170.545, 73.535 169.660 C 61.801 168.052, 61.938 168.154, 52.065 153.542 C 43.484 140.842, 41.625 137, 44.063 137 C 44.647 137, 48.026 138.012, 51.572 139.250 C 57.479 141.312, 58.244 141.373, 60.709 139.990 C 65.987 137.027, 67.464 132.744, 67.852 119.280 C 68.046 112.558, 67.721 103.467, 67.130 99.077 C 66.261 92.619, 66.328 90.321, 67.483 87.047 C 68.269 84.821, 68.761 83, 68.578 83 C 67.067 83, 59.323 86.988, 54 90.509 C 37.036 101.727, 24.916 99.634, 37.397 87.641 C 44.180 81.124, 58.221 71.022, 71.247 63.288 L 80.995 57.500 77.247 55.824 C 75.186 54.902, 72.825 54.123, 72 54.092 C 71.175 54.060, 67.465 56.702, 63.755 59.963 C 53.963 68.568, 50.222 71.255, 49.043 70.527 C 47.374 69.495, 47.749 68.453, 52.365 61.281 C 54.765 57.552, 57.460 53.069, 58.354 51.320 L 59.979 48.141 52.812 44.166 L 45.646 40.192 49.573 39.101 C 56.406 37.204, 60.738 37.670, 62.593 40.502 C 63.495 41.878, 64.009 43.859, 63.735 44.904 C 63.355 46.359, 64.158 47.218, 67.162 48.573 C 70.663 50.152, 71.249 50.179, 72.597 48.832 C 73.945 47.484, 75.145 47.517, 83.719 49.141 L 93.330 50.960 102.415 47.596 C 117.174 42.131, 126.322 41.995, 129.107 47.200 C 130.100 49.056, 130.807 49.179, 136.998 48.569 L 143.798 47.899 144.522 53.157 L 145.245 58.416 147.122 56.097 C 148.211 54.752, 149 52.207, 149 50.037 C 149 42.351, 142.148 36.643, 129.569 33.848 C 120.435 31.819, 78.657 32.101, 58.596 34.327 C 46.921 35.622, 42.400 35.796, 41.596 34.979 C 39.914 33.270, 43.314 31.282, 49.327 30.457 C 58.442 29.206, 58.939 28.611, 52.894 26.179 C 48.381 24.363, 38.326 21.886, 36.114 22.044 C 35.776 22.068, 33.783 22.700, 31.684 23.449 M 162.039 43.698 C 155.042 51.297, 150.461 57.286, 148.208 61.780 L 144.839 68.500 147.376 79.500 C 151.205 96.106, 152.502 111.125, 151.071 122.296 C 148.488 142.462, 140.628 155.947, 126.384 164.651 C 124.169 166.004, 124.525 166.177, 133.155 167.943 C 139.906 169.325, 147.198 173.911, 151.007 179.168 L 153.776 182.991 157.155 179.245 C 171.208 163.671, 174.615 141.192, 172.123 80.500 C 171.388 62.611, 171.298 48.889, 171.874 42.500 C 172.369 37, 172.713 32.463, 172.637 32.418 C 172.562 32.372, 167.792 37.448, 162.039 43.698 M 54 41.474 C 54 42.293, 60.159 45.175, 60.716 44.617 C 62.093 43.240, 59.811 41, 57.031 41 C 55.364 41, 54 41.213, 54 41.474 M 110.067 47.826 L 104.634 49.530 107.350 51.310 C 109.931 53.001, 110.487 53.006, 118.533 51.408 C 127.205 49.686, 128.455 48.849, 125.066 47.035 C 122.285 45.547, 116.333 45.861, 110.067 47.826 M 60.222 53.312 C 59.057 55.615, 57.099 59.022, 55.870 60.883 C 53.837 63.960, 53.810 64.165, 55.568 63.153 C 56.630 62.541, 59.953 59.840, 62.952 57.150 L 68.404 52.260 65.371 50.692 L 62.338 49.124 60.222 53.312 M 74.485 51.024 C 74.240 51.421, 76.392 52.642, 79.269 53.736 C 83.251 55.251, 85.038 55.481, 86.754 54.700 C 87.994 54.136, 88.806 53.473, 88.559 53.226 C 87.651 52.317, 74.917 50.325, 74.485 51.024 M 133.250 51.723 C 130.450 52.071, 130 52.516, 130 54.938 C 130 56.484, 129.320 59.676, 128.488 62.033 C 127.140 65.856, 127.140 66.497, 128.488 67.987 C 130.041 69.703, 130.522 72, 129.329 72 C 128.960 72, 127.835 71.255, 126.829 70.345 C 125.791 69.406, 125 69.176, 125 69.814 C 125 70.432, 124.375 70.697, 123.611 70.404 C 122.846 70.111, 122.393 69.112, 122.603 68.185 C 122.860 67.054, 120.609 64.609, 115.759 60.750 C 107.321 54.035, 103.743 53.348, 99.469 57.622 C 97.005 60.086, 96.447 60.206, 90.174 59.618 L 83.500 58.993 73.239 65.247 C 53.811 77.086, 33.477 92.810, 35.273 94.606 C 36.661 95.994, 45.754 92.653, 52.135 88.410 C 55.816 85.963, 61.230 82.994, 64.164 81.812 C 67.099 80.630, 70.230 78.769, 71.122 77.676 C 72.235 76.312, 73.334 75.915, 74.622 76.412 C 75.655 76.810, 81.675 77.247, 88 77.382 C 100.336 77.647, 106.940 79.434, 114.469 84.544 C 116.460 85.895, 118.406 86.968, 118.794 86.928 C 119.182 86.888, 124.563 81.157, 130.750 74.191 L 142 61.527 142 56.264 C 142 50.448, 142.295 50.601, 133.250 51.723 M 118.002 54.215 L 113.505 55.216 118.502 59.587 C 121.251 61.992, 123.820 63.968, 124.211 63.979 C 124.759 63.995, 128 54.877, 128 53.318 C 128 52.720, 122.506 53.213, 118.002 54.215 M 91 55.539 C 88.559 56.973, 88.604 57.001, 92.922 56.754 C 95.374 56.613, 97.528 55.943, 97.756 55.250 C 98.322 53.527, 94.119 53.707, 91 55.539 M 131.500 77.205 C 122.824 86.930, 121.500 88.883, 121.500 91.957 C 121.500 95.268, 121.263 95.533, 117.890 96 C 115.080 96.389, 113.118 97.775, 109.039 102.250 C 104.147 107.618, 101.169 109.351, 100.875 107 C 100.806 106.450, 100.693 102.963, 100.623 99.250 C 100.529 94.222, 99.926 91.534, 98.261 88.714 C 95.149 83.444, 97.157 83.036, 104.485 87.449 C 111.732 91.812, 113.884 92.522, 115.351 91.030 C 116.999 89.354, 112.507 85.730, 105.299 82.920 C 100.924 81.214, 96.781 80.553, 88.428 80.227 L 77.357 79.795 75.561 114.648 C 74.574 133.816, 73.966 150.625, 74.211 152 C 74.635 154.380, 74.736 154.322, 76.329 150.780 C 77.249 148.733, 79.839 140.408, 82.083 132.280 C 84.328 124.151, 86.519 116.375, 86.951 115 L 87.738 112.500 89.011 115.500 C 95.576 130.970, 99.264 137, 102.159 137 C 102.796 137, 106.116 134.075, 109.536 130.500 C 113.109 126.765, 116.600 124, 117.742 124 C 121.514 124, 124.800 127.718, 125.958 133.295 C 127.215 139.351, 130.499 145.316, 132.280 144.778 C 134.409 144.136, 137.968 135.673, 139.520 127.561 C 142.321 112.921, 143.891 78.953, 142.192 69.748 L 141.500 65.996 131.500 77.205 M 71.477 84.500 C 69.876 87.784, 69.613 89.932, 70.008 96.500 C 70.272 100.900, 70.480 110.350, 70.469 117.500 C 70.453 128.614, 70.141 131.177, 68.318 135.166 C 67.146 137.732, 65.030 140.589, 63.616 141.516 C 60.586 143.502, 55.095 143.696, 50.916 141.965 C 49.277 141.286, 47.745 140.922, 47.511 141.155 C 47.278 141.389, 50.650 146.780, 55.004 153.137 L 62.920 164.694 71.210 166.501 C 81.472 168.740, 90.034 168.882, 105.500 167.072 C 119.894 165.387, 126.696 162.466, 134.414 154.654 C 146.037 142.891, 150.852 123.248, 148.059 98.986 C 146.439 84.912, 145 83.903, 145 96.839 C 145 127.360, 137.784 152.095, 130.250 147.399 C 127.715 145.819, 124.202 139.175, 123.440 134.519 C 122.711 130.067, 120.534 127.002, 118.095 126.996 C 117.218 126.993, 113.996 129.693, 110.935 132.996 C 106.453 137.832, 104.771 139, 102.289 139 C 98.510 139, 93.778 134.020, 90.501 126.594 L 88.291 121.587 87.223 125.044 C 86.635 126.945, 84.933 132.775, 83.441 138 C 79.604 151.436, 76.471 158.237, 74.311 157.821 C 71.250 157.232, 70.977 151.241, 72.587 120 C 73.452 103.225, 73.995 87.475, 73.793 85 L 73.427 80.500 71.477 84.500 M 102.841 97.223 L 103.182 104.450 107.774 99.589 L 112.367 94.728 107.934 92.409 C 105.495 91.134, 103.275 90.069, 103 90.043 C 102.725 90.017, 102.653 93.248, 102.841 97.223" stroke="none" fill="black" fill-rule="evenodd"/>
</svg>