<svg xmlns="http://www.w3.org/2000/svg" width="200" height="200" viewBox="0 0 200 200" version="1.1">
	<path d="M 56.401 9.428 C 52.924 10.941, 49.577 15.796, 48.497 20.892 L 47.779 24.284 38.996 23.660 C 32.150 23.174, 29.961 23.342, 29.065 24.421 C 28.205 25.458, 28.203 25.901, 29.060 26.187 C 29.844 26.448, 29.237 29.863, 27.135 37.034 C 22.982 51.194, 21.632 59.954, 22.281 68.527 C 22.950 77.374, 26.411 84.733, 31.735 88.633 C 33.806 90.149, 35.867 91.691, 36.315 92.060 C 36.763 92.428, 34.619 97.178, 31.551 102.615 C 22.549 118.564, 19.606 126.953, 19.548 136.830 C 19.501 145.059, 19.541 145.196, 22.889 148.190 C 25.992 150.964, 26.760 151.185, 31.985 150.807 C 42.884 150.019, 55.438 141.170, 63.469 128.616 L 67.160 122.847 63.194 118.841 C 57.904 113.499, 54.045 106.175, 53.328 100.119 C 52.551 93.559, 55.609 86.888, 60.445 84.593 C 65.128 82.371, 66.735 82.581, 69.996 85.842 C 76.865 92.711, 76.623 106.222, 69.111 135.243 C 63.220 157.999, 62.480 166.798, 66.073 171.365 C 69.760 176.052, 75.394 174.503, 90.971 164.518 C 100.402 158.474, 105.480 156, 108.460 156 C 111.465 156, 111.376 155.603, 111.445 169.281 C 111.500 179.963, 112.112 181.929, 115.405 181.985 C 117.534 182.021, 124.045 173.457, 131.403 160.942 C 149.688 129.840, 155.013 122, 157.856 122 C 159.598 122, 160.310 128.700, 159.586 138.291 L 158.903 147.338 153.485 153.189 C 141.928 165.673, 144.297 176.764, 158.737 177.774 C 163.619 178.115, 165.338 177.736, 169.982 175.296 C 184.109 167.870, 189.405 148.533, 183.892 124.500 C 182.108 116.722, 181.873 112.921, 182.164 96.500 C 183.147 40.956, 182.529 34.785, 175.227 27.128 C 170.256 21.916, 164.855 20.302, 157.166 21.732 C 148.568 23.331, 144 25.499, 144 27.980 C 144 29.126, 143.333 30.319, 142.519 30.631 C 141.704 30.944, 134.951 30.693, 127.511 30.073 C 115.085 29.038, 113.600 28.697, 109.243 25.882 C 104.622 22.896, 104.274 22.833, 95.688 23.402 C 84.927 24.116, 82.715 23.185, 76.914 15.503 C 73.901 11.512, 71.802 9.762, 69.143 9.023 C 64.261 7.667, 60.145 7.798, 56.401 9.428 M 57.308 12.010 C 54.470 13.153, 52.053 16.896, 51.348 21.240 L 50.788 24.692 61.644 25.360 C 67.615 25.728, 75.875 26.287, 80 26.602 L 87.500 27.176 83.316 25.016 C 81.015 23.828, 77.285 20.462, 75.027 17.535 C 72.768 14.607, 69.926 11.946, 68.710 11.620 C 65.572 10.778, 59.882 10.973, 57.308 12.010 M 152.599 25.524 C 147.887 26.818, 146.048 28.239, 146.015 30.613 C 146.007 31.225, 149.306 32.259, 153.346 32.911 C 157.386 33.562, 161.661 34.775, 162.846 35.604 C 165.522 37.479, 165.638 41.441, 163.137 45.542 C 162.117 47.215, 160.955 51.040, 160.554 54.042 C 159.571 61.408, 154.831 75.284, 153.114 75.823 C 150.590 76.614, 152.161 61.512, 155.321 54.609 C 160.155 44.052, 158.129 39.349, 149.122 40.214 C 144.725 40.637, 129 47.065, 129 48.440 C 129 48.736, 131.458 53.371, 134.462 58.739 C 139.181 67.172, 140.548 68.828, 144.507 70.913 C 153.099 75.436, 159.930 87.285, 160.778 99.136 C 161.188 104.876, 161 106.063, 159.596 106.602 C 156.689 107.717, 154.143 104.097, 146.023 87.302 C 136.243 67.072, 135 66.432, 135 81.622 C 135 87.464, 134.307 97.026, 133.460 102.872 C 131.883 113.764, 125.565 141.477, 124.132 143.789 C 123.575 144.689, 121.740 142.935, 118.054 137.979 C 112.759 130.858, 107.665 126.642, 103 125.520 C 100.870 125.008, 100.130 125.528, 98 129.038 C 94.966 134.038, 92.678 135.522, 91.042 133.551 C 89.502 131.695, 92.010 126.695, 95.690 124.283 C 97.248 123.263, 99.724 119.551, 101.700 115.274 C 103.548 111.273, 105.497 108, 106.030 108 C 107.514 108, 107.220 109.537, 104.500 116 C 103.125 119.267, 102 122.122, 102 122.345 C 102 122.568, 103.248 123, 104.774 123.305 C 108.292 124.008, 114.082 128.592, 118.796 134.406 C 121.158 137.318, 122.692 138.494, 123.109 137.713 C 124.324 135.436, 128.983 114.438, 130.487 104.458 C 131.313 98.981, 131.991 89.213, 131.994 82.750 C 132 71.857, 131.861 71, 130.094 71 C 128.544 71, 128.065 71.982, 127.532 76.250 C 125.955 88.877, 122.678 107.578, 121.891 108.433 C 119.919 110.579, 119.901 107.448, 121.818 95.811 C 124.733 78.115, 125.300 73, 124.344 73.004 C 123.025 73.010, 116.925 76.882, 112.250 80.680 C 109.913 82.580, 103.887 89.279, 98.861 95.567 C 93.834 101.855, 89.361 107, 88.920 107 C 86.313 107, 87.872 104.032, 95.235 94.976 C 99.781 89.385, 106.341 81.140, 109.812 76.655 C 121.633 61.384, 125.081 59.066, 127.150 65 C 127.725 66.650, 128.827 68, 129.598 68 C 131.324 68, 131.329 68.183, 129.461 62.890 C 127.932 58.556, 123.534 53, 121.632 53 C 121.085 53, 116.107 55.667, 110.569 58.927 C 97.607 66.556, 93.551 68.425, 91.591 67.673 C 89.199 66.755, 89.687 62.156, 92.773 56.530 C 95.200 52.106, 96.105 51.365, 101 49.790 C 104.840 48.554, 109.038 48.092, 114.912 48.260 C 124.118 48.523, 125.290 47.814, 122.122 43.901 C 120.208 41.538, 119.909 41.500, 103.339 41.500 C 87.674 41.500, 86.167 41.664, 81.717 43.855 C 76.186 46.579, 73 51.661, 73 57.760 C 73 62.500, 71.598 64, 67.168 64 C 60.207 64, 52.225 51.369, 49.142 35.474 C 47.583 27.434, 47.368 27.006, 44.890 27.003 C 43.454 27.001, 40.277 26.726, 37.831 26.390 L 33.383 25.781 30.702 34.640 C 26.423 48.785, 25.030 55.980, 25.020 64 C 25.003 78.244, 28.008 83.729, 39.578 90.577 C 41.269 91.577, 41.109 92.111, 37.332 98.091 C 23.673 119.719, 18.461 138.774, 24.337 145.605 C 27.487 149.268, 33.569 149.209, 41.540 145.438 C 47.966 142.398, 58.322 132.704, 61.436 126.816 L 63.372 123.154 59.571 118.947 C 49.074 107.328, 47.632 92.270, 56.245 84.226 C 61.295 79.510, 69.051 79.707, 72.939 84.650 C 74.075 86.094, 75.678 89.545, 76.502 92.319 C 79.313 101.783, 78.236 111.928, 72.006 134.694 C 67.214 152.205, 65.691 162.298, 67.081 167.330 C 67.960 170.513, 68.491 171, 71.087 171 C 74.529 171, 79.660 168.566, 89.274 162.373 C 111.022 148.363, 115.460 149.605, 114.280 169.374 C 113.888 175.954, 114.048 179, 114.786 179 C 116.799 179, 122.711 170.560, 133.001 153 C 138.641 143.375, 144.613 133.475, 146.271 131 C 149.951 125.508, 156.028 118.994, 157.453 119.015 C 161.687 119.077, 163.232 125.199, 162.363 138.476 L 161.710 148.452 156.491 153.976 C 150.212 160.621, 149 162.787, 149 167.362 C 149 172.353, 152.631 175, 159.478 175 C 169.405 175, 178.234 167.685, 181.474 156.774 C 183.651 149.443, 183.429 134.906, 180.972 123.873 C 179.103 115.483, 178.965 111.884, 179.222 78.133 C 179.472 45.161, 179.322 40.992, 177.723 36.411 C 173.884 25.417, 165.781 21.905, 152.599 25.524 M 95.250 25.715 C 89.360 26.461, 91.862 27.836, 99.750 28.188 C 108.533 28.580, 108.871 28.529, 106.336 27.199 C 103.774 25.856, 99.091 25.229, 95.250 25.715 M 51.349 32.296 C 52.167 39.208, 55.496 48.813, 58.972 54.294 C 63.903 62.070, 70 64.339, 70 58.397 C 70 50.091, 75.947 42.300, 84.193 39.804 C 86.976 38.961, 93.719 38.535, 103.250 38.599 C 111.362 38.654, 118 38.400, 118 38.036 C 118 37.672, 116.681 36.111, 115.069 34.566 L 112.138 31.758 86.319 29.927 C 72.119 28.920, 58.307 27.910, 55.627 27.683 L 50.753 27.270 51.349 32.296 M 119.252 35.214 C 121.681 38.327, 122.132 38.491, 127.835 38.331 C 131.233 38.236, 135.513 37.376, 137.661 36.356 L 141.468 34.550 137.484 33.905 C 135.293 33.550, 129.717 32.960, 125.094 32.594 L 116.687 31.927 119.252 35.214 M 143.206 35.509 C 141.772 37.898, 137.097 40.089, 131.491 41.002 C 124.840 42.084, 124.279 42.426, 125.918 44.401 C 126.947 45.641, 128.344 45.263, 135.618 41.773 C 148.744 35.475, 157.457 35.653, 159.905 42.271 L 160.702 44.426 161.920 42.149 C 163.642 38.932, 161.977 37.326, 155.673 36.121 C 146.792 34.424, 143.942 34.285, 143.206 35.509 M 105.259 51.515 C 101.827 52.261, 98.518 53.180, 97.906 53.558 C 96.252 54.580, 91.894 64.451, 92.940 64.807 C 94.110 65.205, 102.393 60.991, 111.134 55.551 C 117.213 51.769, 117.776 51.173, 115.776 50.637 C 112.911 49.870, 112.783 49.880, 105.259 51.515 M 125 50.826 C 125 51.280, 126.166 52.742, 127.591 54.076 L 130.181 56.500 128.341 53.256 C 126.596 50.182, 125 49.021, 125 50.826 M 132.007 61.101 C 131.988 62.802, 134.317 68, 135.098 68 C 135.594 68, 135.997 67.662, 135.993 67.250 C 135.986 66.355, 132.016 60.232, 132.007 61.101 M 119.127 69.478 C 116.857 71.940, 115 74.142, 115 74.369 C 115 74.597, 117.246 73.594, 119.992 72.141 C 123.710 70.174, 124.985 68.926, 124.992 67.250 C 125.004 63.978, 123.762 64.450, 119.127 69.478 M 148.707 86.750 C 152.336 94.313, 156.137 101.388, 157.153 102.472 C 158.990 104.434, 159 104.434, 159 102.432 C 159 98.643, 155.935 88.651, 153.271 83.756 C 150.720 79.070, 144.935 73, 143.020 73 C 142.519 73, 145.078 79.188, 148.707 86.750" stroke="none" fill="black" fill-rule="evenodd"/>
</svg>