<svg xmlns="http://www.w3.org/2000/svg" width="200" height="200" viewBox="0 0 200 200" version="1.1">
	<path d="M 136.039 20.919 C 129.024 23.554, 128.367 23.634, 125.050 22.247 C 117.888 19.255, 101.906 22.627, 81.216 31.495 L 68.931 36.760 65.816 32.130 C 60.425 24.119, 59.051 23, 54.606 23 C 50.880 23, 49.963 23.611, 42.974 30.750 L 35.387 38.500 28.176 59.500 C 24.210 71.050, 20.973 81.930, 20.982 83.677 C 20.995 85.935, 21.796 87.487, 23.750 89.038 C 26.378 91.124, 27.218 91.202, 42.664 90.791 L 58.828 90.361 48.342 101.431 C 36.692 113.728, 29.755 123.291, 30.204 126.432 C 31.008 132.053, 42.437 127.321, 62.136 113.211 C 72.539 105.761, 72.798 105.479, 73.928 100.432 C 78.636 79.394, 102.365 52, 115.881 52 C 123.561 52, 126.158 56.432, 126.719 70.500 L 127.118 80.500 123.645 74.207 C 117.474 63.027, 113.579 58.892, 107.908 57.499 C 104.293 56.611, 99.337 60.990, 96.374 67.689 C 92.922 75.494, 87.349 106, 89.375 106 C 89.709 106, 92.022 104.443, 94.514 102.541 C 99.701 98.582, 103.969 97.511, 111.471 98.285 C 131.594 100.362, 145.847 124.922, 131.241 132.353 C 124.882 135.587, 124.457 135.471, 121.144 129.602 C 114.755 118.280, 109.153 113.991, 100.782 114.010 C 95.084 114.023, 88.387 117.270, 74.208 126.894 C 62.583 134.786, 62.436 134.850, 53.500 135.969 C 41.781 137.438, 40 137.840, 40 139.019 C 40 139.601, 44.574 140.007, 51.250 140.017 C 69.951 140.046, 81.847 143.763, 87.172 151.241 C 89.930 155.115, 90.186 163.372, 87.728 169.166 L 86.172 172.833 58.336 172.901 C 29.750 172.971, 23.500 173.527, 23.500 176 C 23.500 179.219, 34.387 179.695, 123.619 180.380 L 174.738 180.773 176.305 177.487 C 179.178 171.462, 179.434 167.434, 177.094 165.094 C 174.388 162.388, 171.478 162.459, 160.500 165.499 C 132.004 173.389, 123.845 174.418, 118.122 170.844 C 114.693 168.703, 112.866 163.653, 113.200 157.244 L 113.500 151.500 118.546 148.796 C 121.321 147.308, 127.846 144.913, 133.046 143.473 C 153.401 137.835, 155.728 136.999, 158.345 134.382 C 163.396 129.331, 161.172 121.815, 150.648 108.365 L 145.098 101.271 159.799 97.066 C 175.990 92.434, 179.790 90.657, 178.035 88.542 C 177.430 87.813, 174.830 86.902, 172.257 86.516 C 165.092 85.441, 157.673 82.312, 154.542 79.044 C 151.143 75.496, 150.141 68.547, 152.169 62.598 C 153.655 58.240, 154.161 57.853, 162.135 54.976 C 173.593 50.841, 176.088 45.023, 169.107 38.715 C 166.965 36.781, 162.578 33.532, 159.357 31.496 C 152.622 27.239, 146 21.191, 146 19.297 C 146 17.484, 144.560 17.719, 136.039 20.919 M 137.552 23.406 L 131.770 25.500 131.603 30.030 C 131.363 36.576, 127.504 41.165, 118.626 45.462 C 110.481 49.405, 100 51.258, 100 48.755 C 100 47.697, 101.603 47.114, 105.667 46.695 C 112.841 45.955, 123.181 40.941, 126.495 36.595 C 128.995 33.318, 129.975 27, 127.984 27 C 126.734 27, 99.751 37.188, 93.812 39.902 C 91.441 40.986, 86.575 43.078, 83 44.550 C 77.031 47.009, 67.019 51.773, 66.124 52.579 C 65.918 52.765, 67.155 54.101, 68.874 55.548 C 74.922 60.636, 71.810 65.809, 61.044 68.567 C 55.941 69.875, 53.883 69.982, 50.923 69.095 C 44.241 67.093, 45.179 62.652, 53.526 56.768 C 55.941 55.066, 57.712 53.342, 57.461 52.937 C 57.211 52.532, 54.755 51.661, 52.003 51.001 C 49.251 50.341, 47.001 49.508, 47.002 49.150 C 47.004 48.793, 51.273 46.250, 56.491 43.500 C 61.709 40.750, 65.983 38.164, 65.989 37.752 C 66.010 36.366, 58.794 26.960, 56.954 25.975 C 54.052 24.422, 50.317 26.464, 44.051 33.029 C 38.516 38.827, 38.114 39.635, 31.499 58.222 C 27.741 68.784, 24.462 79.548, 24.212 82.142 L 23.759 86.858 28.048 88.013 C 31.246 88.874, 36.112 88.892, 47.188 88.084 C 55.357 87.488, 62.989 87, 64.147 87 C 65.745 87, 63.099 90.249, 53.169 100.476 C 41.626 112.366, 33 122.955, 33 125.237 C 33 128.188, 44.095 122.553, 59.762 111.645 C 68.918 105.270, 70.133 104.069, 71.029 100.500 C 74.392 87.112, 81.903 74.284, 93 62.979 C 108.969 46.709, 121.624 44.439, 127.332 56.821 C 129.124 60.708, 129.480 63.277, 129.431 72 C 129.338 88.866, 127.504 92.206, 123.922 82.034 C 120.018 70.949, 111.569 60, 106.917 60 C 104.014 60, 100.372 64.390, 97.986 70.768 C 96.099 75.810, 91.549 98.883, 92.295 99.628 C 92.468 99.801, 94.610 98.943, 97.055 97.721 C 110.320 91.093, 130.210 98.746, 137.443 113.261 C 143.242 124.899, 138.422 134.641, 125.500 137.396 C 122.657 138.002, 122.344 137.733, 119.514 132.268 C 115.421 124.360, 109.614 118.242, 105.029 117.008 C 98.357 115.211, 89.924 119.005, 70.967 132.330 L 63.433 137.625 69.313 138.742 C 77.373 140.274, 85.473 144.443, 88.758 148.750 C 91.192 151.941, 91.500 153.199, 91.500 159.955 C 91.500 165.268, 90.930 168.828, 89.613 171.750 L 87.726 175.935 67.113 175.316 C 55.776 174.976, 44.250 175.090, 41.500 175.570 C 36.785 176.393, 37.126 176.479, 47.500 177.094 C 53.550 177.452, 84.285 177.803, 115.801 177.873 L 173.102 178 174.607 174.398 C 178.487 165.111, 174.510 164.221, 154.480 169.892 C 134.927 175.428, 128.222 176.493, 122.126 175.030 C 113.797 173.032, 110 167.387, 110 157.003 C 110 151.739, 110.283 150.937, 112.750 149.199 C 118.346 145.256, 124.320 142.876, 137.247 139.439 C 155.459 134.597, 157.424 133.551, 157.791 128.500 C 158.135 123.773, 153.854 115.953, 145.927 106.829 C 143.217 103.710, 141.001 100.785, 141.002 100.329 C 141.002 99.873, 147.988 97.527, 156.526 95.115 C 165.063 92.703, 172.255 90.397, 172.506 89.990 C 172.758 89.583, 171.106 88.953, 168.835 88.590 C 154.560 86.307, 146.393 77.380, 148.467 66.325 C 149.881 58.784, 151.958 55.168, 155.294 54.435 C 162.536 52.845, 171 47.833, 171 45.136 C 171 43.483, 165.447 38.685, 157.304 33.304 C 152.797 30.325, 147.809 26.408, 146.222 24.600 L 143.335 21.311 137.552 23.406 M 107 25.427 C 99.194 27.162, 94.971 28.606, 82.603 33.766 C 72.794 37.858, 71.889 38.446, 73.544 39.656 C 76.152 41.563, 83.086 41.320, 88.167 39.144 C 90.550 38.124, 99.250 34.704, 107.500 31.544 C 115.750 28.385, 122.927 25.395, 123.450 24.900 C 124.820 23.602, 113.592 23.962, 107 25.427 M 61.965 43.596 C 58.469 45.464, 55.233 47.367, 54.774 47.826 C 54.315 48.285, 55.785 49.269, 58.041 50.013 C 61.987 51.316, 62.410 51.234, 69.225 47.865 L 76.307 44.362 72.314 42.281 L 68.321 40.199 61.965 43.596 M 56 58.360 C 49.652 63.030, 48.217 64.892, 50.064 66.061 C 53.412 68.179, 64.393 66.146, 68.062 62.727 L 70.292 60.650 67.130 57.825 C 63.098 54.223, 61.521 54.298, 56 58.360" stroke="none" fill="black" fill-rule="evenodd"/>
</svg>