<svg xmlns="http://www.w3.org/2000/svg" width="200" height="200" viewBox="0 0 200 200" version="1.1">
	<path d="M 31.500 12.897 C 26.550 13.247, 21.938 13.890, 21.250 14.326 C 17.788 16.521, 21.380 19.719, 29.750 21.895 C 32.087 22.503, 35.807 23.469, 38.015 24.042 L 42.029 25.085 34.607 34.131 C 26.815 43.627, 21.663 52.333, 20.668 57.685 C 20.342 59.437, 20.734 63.397, 21.538 66.484 C 24.727 78.729, 22.911 88.320, 13.948 106.578 C 11.226 112.120, 9 116.867, 9 117.126 C 9 117.385, 12.721 117.620, 17.268 117.649 C 35.024 117.761, 41.897 125.524, 37.532 140.537 C 35.721 146.766, 29.762 159.131, 23.099 170.484 C 18.966 177.526, 18.166 180.367, 19.998 181.499 C 21.331 182.323, 27 178.911, 27 177.284 C 27 175.678, 25.767 175.633, 24.217 177.183 C 21.358 180.042, 22.596 176.818, 27.744 168 C 34.677 156.125, 39.466 145.189, 40.961 137.818 C 43.860 123.528, 35.482 115, 18.545 115 L 12.975 115 16.519 107.961 C 21.680 97.713, 26 84.088, 26 78.058 C 26 75.227, 25.263 69.976, 24.362 66.389 C 23.028 61.079, 22.940 59.143, 23.889 55.976 C 25.300 51.266, 33.123 39.511, 39.845 32 L 44.768 26.500 42.697 34 C 40.881 40.577, 40.604 44.638, 40.449 67 C 40.318 86.041, 39.833 95.033, 38.536 102.500 C 36.440 114.575, 37.229 118.337, 41.750 117.816 C 45.555 117.379, 51.110 108.876, 54.697 98 C 57.050 90.864, 57.500 87.815, 57.500 79 C 57.500 70.945, 57.099 67.766, 55.776 65.350 L 54.052 62.199 64.476 58.010 C 70.209 55.705, 75.418 54.141, 76.052 54.532 C 79.710 56.793, 80.954 67.526, 78.974 79.729 C 77.854 86.631, 72.562 105.128, 68.983 114.654 L 66.670 120.808 71.498 130.341 C 74.950 137.160, 76.453 141.412, 76.773 145.274 C 77.734 156.860, 72.008 160.825, 50.228 163.659 C 40.467 164.928, 37 165.742, 37 166.762 C 37 167.852, 38.214 168.009, 42.750 167.503 C 72.368 164.203, 79.503 160.203, 79.497 146.900 C 79.494 141.024, 78.965 139.234, 74.663 130.568 L 69.831 120.835 74.876 105.668 C 83.132 80.850, 84.977 63.710, 80.255 55.707 L 78.274 52.350 85.887 49.534 C 90.074 47.984, 94.003 46.530, 94.617 46.302 C 96.017 45.783, 98.008 53.427, 97.976 59.193 C 97.937 66.003, 96.265 71.711, 90.949 83.178 C 86.173 93.481, 85.208 97.269, 86.765 99.600 C 87.937 101.356, 91.649 103, 94.440 103 L 97.011 103 96.756 137.750 C 96.510 171.168, 96.580 172.672, 98.587 177 C 101.164 182.555, 103.222 184.326, 106.972 184.220 C 110.808 184.111, 113.415 182.627, 119.076 177.332 L 123.775 172.937 123.266 156.218 C 122.413 128.247, 125.362 103.226, 129.708 101.558 C 132.102 100.640, 135.766 103.685, 140.359 110.410 L 144.280 116.150 141.912 120.825 C 136.835 130.851, 138.407 146.329, 146.055 161.615 C 154.944 179.381, 168.749 189.037, 177.027 183.281 C 184.017 178.420, 187 169.622, 187 153.863 C 187 137.999, 185.407 135.080, 175.910 133.548 C 171.004 132.757, 168.398 129.623, 166.287 121.975 C 164.685 116.170, 164.529 111.375, 164.777 75.630 C 165.093 30.170, 164.630 25.978, 158.674 20.405 C 154.730 16.713, 154.709 16.711, 110.500 14.573 C 72.018 12.711, 42.881 12.093, 31.500 12.897 M 28 15.880 L 23.500 16.613 26.480 17.869 C 28.119 18.560, 33.222 20.003, 37.821 21.075 L 46.182 23.024 49.168 20.512 C 52.947 17.333, 54.347 17.355, 56.927 20.635 C 60.575 25.272, 59.392 37.544, 54.155 49.382 C 52.970 52.062, 52 54.397, 52 54.571 C 52 54.745, 53.996 54.005, 56.435 52.926 C 62.191 50.380, 69.501 49.040, 72.808 49.924 C 74.669 50.422, 78.048 49.618, 84.464 47.151 C 89.434 45.240, 93.678 43.533, 93.896 43.359 C 94.114 43.184, 93.095 41.232, 91.632 39.020 C 89.855 36.335, 88.229 34.995, 86.736 34.985 C 85.506 34.976, 83.825 34.518, 83 33.966 C 81.702 33.097, 81.761 32.763, 83.441 31.481 C 85.664 29.785, 88.599 29.542, 89.488 30.980 C 90.164 32.074, 92.597 31.895, 124.354 28.409 C 136.374 27.090, 146.619 26.264, 147.120 26.574 C 149.151 27.830, 146.620 28.768, 138.037 29.941 C 133.072 30.619, 128.719 31.646, 128.363 32.222 C 127.926 32.929, 129.173 33.051, 132.195 32.598 C 141.645 31.181, 144.664 35.616, 139.461 43.273 L 136.921 47.010 138.459 54.456 C 141.304 68.231, 140.606 80.070, 136.828 82.092 C 127.192 87.249, 115.685 60.232, 120.285 43.250 C 122.022 36.836, 122.342 36.887, 108.500 41.397 C 101.394 43.713, 98.600 45.067, 98.846 46.078 C 102.187 59.823, 101.232 67.068, 93.956 83.196 C 91.230 89.237, 89 95.255, 89 96.571 C 89 99.045, 90.250 99.655, 96.500 100.226 L 99.500 100.500 99.129 133.010 C 98.731 167.927, 99.370 174.994, 103.344 179.613 C 106.263 183.007, 109.491 182.162, 116.017 176.295 L 121 171.815 121.035 146.157 C 121.081 112.562, 122.810 102.313, 128.991 99.005 C 132.911 96.907, 138.835 101.961, 145.231 112.861 L 147.789 117.222 145.472 120.636 C 142.066 125.656, 140.786 132.901, 141.983 140.391 C 144.028 153.195, 149.427 164.809, 157.515 173.805 C 162.476 179.323, 167.207 182, 172 182 C 179.447 182, 184.390 170.701, 184.421 153.608 C 184.445 140.155, 183.376 137.962, 175.997 136.328 C 172.133 135.472, 169.714 134.232, 167.853 132.154 C 162.150 125.787, 160.210 105.271, 161.833 68.500 C 162.421 55.173, 162.493 42.079, 162.004 37.366 C 161.135 28.997, 158.327 21.723, 155.555 20.659 C 148.697 18.028, 39.850 13.950, 28 15.880 M 50.602 22.888 C 44.998 29.080, 42.578 44.635, 43.221 70.345 C 43.621 86.342, 43.397 90.984, 41.863 98.500 C 39.876 108.235, 39.498 114.572, 40.855 115.410 C 43.279 116.909, 50.598 103.631, 53.461 92.540 C 55.416 84.967, 55.462 72.043, 53.551 67.468 C 52.434 64.796, 51.517 64, 49.551 64 C 44.662 64, 47.077 62.252, 58.500 57.521 C 64.825 54.902, 70 52.538, 70 52.268 C 70 51.103, 61.923 53.444, 55.135 56.577 C 51.084 58.446, 47.359 59.722, 46.856 59.411 C 46.353 59.100, 47.267 56.518, 48.887 53.673 C 53.347 45.841, 56 36.912, 56 29.732 C 56 21.598, 54.029 19.100, 50.602 22.888 M 113 32.546 C 107.225 33.242, 100.124 33.854, 97.220 33.906 L 91.940 34 94.220 37.992 C 95.474 40.188, 96.892 41.988, 97.372 41.992 C 98.343 42.001, 119.219 35.391, 122.750 33.957 C 124.796 33.126, 126.030 30.808, 124.250 31.140 C 123.838 31.216, 118.775 31.849, 113 32.546 M 128.500 35.869 C 125.985 36.398, 125.224 37.309, 123.794 41.500 C 120.507 51.131, 122.062 64.123, 127.660 73.805 C 130.496 78.711, 134.327 81.074, 136.277 79.122 C 138.035 77.363, 137.687 64.126, 135.626 54.345 L 133.907 46.190 137.075 41.696 C 138.817 39.224, 139.937 36.706, 139.562 36.101 C 138.840 34.932, 133.479 34.820, 128.500 35.869" stroke="none" fill="black" fill-rule="evenodd"/>
</svg>