<svg xmlns="http://www.w3.org/2000/svg" width="200" height="200" viewBox="0 0 200 200" version="1.1">
	<path d="M 76.555 16.185 C 76.271 17.458, 75.544 22.325, 74.939 27 C 73.551 37.718, 70.691 44.591, 66.777 46.615 C 64.314 47.889, 62.451 47.962, 55.171 47.069 C 44.255 45.730, 34.791 45.825, 29.009 47.330 C 23.912 48.658, 22.623 51.193, 26.099 53.053 C 29.159 54.691, 42.909 55.328, 52.241 54.265 C 60.803 53.289, 62 53.769, 62 58.180 C 62 68.051, 45.828 90.698, 29.813 103.253 C 14.162 115.523, 13.497 117.879, 26.146 116.247 C 41.423 114.276, 45.506 118.985, 41.574 134.040 C 40.790 137.043, 38.994 141.975, 37.584 145 C 33.971 152.748, 33.989 161.231, 37.628 166.594 C 39.074 168.724, 40.987 171.062, 41.878 171.789 C 50.640 178.927, 65.619 178.712, 74.740 171.316 C 76.809 169.639, 78.792 169.542, 100.740 170.047 C 120.576 170.504, 125.200 170.893, 128.737 172.401 C 133.454 174.411, 138.641 179.723, 139.594 183.518 C 140.286 186.277, 141.604 186.507, 147.500 184.896 C 153.189 183.342, 157.933 179.406, 160.145 174.404 C 162.461 169.170, 162.737 162.401, 161.592 139 C 160.577 118.282, 160.567 118.319, 170.551 106.500 C 183.225 91.497, 185.533 85.728, 180.686 81.175 C 177.882 78.540, 168.232 76.565, 162.193 77.389 C 158.913 77.837, 156.496 77.392, 152.056 75.524 C 138.709 69.906, 126 60.497, 126 56.232 C 126 54.726, 127.011 53.822, 129.680 52.941 C 134.579 51.324, 149.227 52.386, 156.749 54.902 C 173.896 60.640, 184.054 57.799, 181.142 48.080 C 179.689 43.229, 172.564 36.549, 167.098 34.911 C 159.999 32.784, 153.223 36.267, 148.455 44.493 C 147.542 46.069, 145.486 46.357, 132.115 46.787 C 115.412 47.323, 107.415 46.221, 104.481 42.979 C 101.904 40.132, 103.970 36.077, 111.343 29.509 L 117.407 24.108 110.954 21.055 C 99.519 15.645, 91.347 17.315, 89.156 25.509 C 88.448 28.156, 88.262 27.974, 84.958 21.390 C 82.442 16.378, 80.896 14.414, 79.285 14.185 C 77.653 13.953, 76.935 14.479, 76.555 16.185 M 78.994 17.750 C 78.966 21.354, 75.803 38.242, 74.640 41 C 72.445 46.204, 67.824 50.175, 63.832 50.288 L 60.474 50.383 62.737 52.646 C 64.093 54.002, 65 56.125, 65 57.944 C 65 68.549, 48.296 92.333, 31.987 104.949 C 20.660 113.712, 20.680 113.500, 31.169 113.500 C 39.750 113.500, 40.279 113.628, 42.540 116.254 C 43.844 117.769, 45.205 120.578, 45.565 122.497 C 46.369 126.782, 43.931 138.091, 40.657 145.257 C 37.323 152.558, 36.703 156.183, 37.979 160.923 C 39.526 166.665, 44.805 171.597, 51.486 173.539 C 58.829 175.674, 64.757 174.701, 71.321 170.284 L 76.466 166.821 99.983 167.263 C 124.309 167.720, 128.163 168.287, 134.094 172.284 C 137.170 174.357, 141.304 179.411, 142.253 182.260 C 142.909 184.227, 151.032 181.168, 154.584 177.616 C 159.442 172.758, 160.537 165.848, 159.129 148.948 C 157.746 132.352, 157.705 123.601, 158.988 118.984 C 159.525 117.050, 163.010 111.723, 166.732 107.145 C 177.160 94.321, 180 89.887, 180 86.429 C 180 82.019, 176.655 80.694, 164.598 80.326 C 155.410 80.046, 154.104 79.738, 146.519 76.066 C 127.378 66.802, 117.926 55.232, 126.228 51.230 C 128.147 50.306, 127.535 50.125, 122.299 50.068 C 108.916 49.922, 101 46.506, 101 40.878 C 101 36.748, 103.147 33.003, 108.062 28.563 C 112.834 24.252, 112.657 23.921, 104.230 21.414 C 97.337 19.364, 93.932 20.409, 92.306 25.075 C 90.396 30.556, 90.792 34.340, 94.179 42.994 L 97.358 51.115 101.080 50.487 C 109.276 49.102, 115.289 54.794, 128.145 76.107 C 132.190 82.814, 137.679 90.704, 140.341 93.640 L 145.183 98.980 142.644 99.945 C 136.415 102.313, 134.925 109.594, 134.948 137.545 L 134.965 158.590 132.108 160.277 C 124.427 164.814, 101.892 167.114, 85.425 165.042 C 74.277 163.639, 64.836 160.590, 65.586 158.635 C 65.953 157.681, 67.806 157.958, 73.238 159.780 C 86.482 164.222, 115.512 163.892, 127.813 159.159 L 132.126 157.500 132.385 134 C 132.659 109.197, 133.266 105.127, 137.414 100.305 L 139.735 97.606 135.973 92.846 C 133.903 90.228, 128.900 82.622, 124.855 75.944 C 120.810 69.266, 115.992 62.035, 114.150 59.875 C 108.609 53.381, 102.755 51.382, 98.336 54.477 C 96.304 55.901, 96.141 55.727, 93.863 49.727 L 91.500 43.500 90.922 55.500 C 90.110 72.342, 87.578 77.553, 76.965 84.222 C 70.088 88.544, 66.394 92.850, 64.895 98.295 C 63.929 101.803, 64.101 104.571, 65.934 115 C 67.142 121.875, 68.378 128.970, 68.680 130.768 C 69.484 135.553, 68.067 147, 66.670 147 C 65.852 147, 65.488 143.771, 65.460 136.250 C 65.436 129.792, 64.698 122.139, 63.610 117.083 C 59.374 97.385, 62.036 90.220, 77.112 80.733 C 81.214 78.151, 83.307 75.997, 84.892 72.723 C 87.784 66.750, 89.071 54.495, 88.081 42.365 C 87.413 34.186, 86.664 31.175, 83.695 24.750 C 80.471 17.773, 79.011 15.599, 78.994 17.750 M 156.041 39.619 C 154.329 41.060, 152.282 43.487, 151.493 45.013 C 150.531 46.874, 148.814 48.118, 146.279 48.790 L 142.500 49.793 146.593 49.897 C 148.845 49.953, 153.345 50.930, 156.593 52.066 C 164.796 54.934, 176.103 55.786, 177.861 53.668 C 179.874 51.242, 178.384 46.778, 174.206 42.719 C 167.709 36.407, 161.182 35.293, 156.041 39.619 M 29.554 49.902 C 27.751 50.608, 27.788 50.712, 30.054 51.318 C 33.273 52.180, 47.062 52.164, 54 51.291 L 59.500 50.598 55.500 49.857 C 50.286 48.890, 32.058 48.922, 29.554 49.902" stroke="none" fill="black" fill-rule="evenodd"/>
</svg>