<svg xmlns="http://www.w3.org/2000/svg" width="200" height="200" viewBox="0 0 200 200" version="1.1">
	<path d="M 35.498 9.250 C 35.257 9.938, 34.120 16.125, 32.971 23 C 28.441 50.118, 24.894 62.987, 22.498 60.998 C 21.533 60.197, 21.097 60.725, 20.663 63.224 C 17.060 83.948, 21.105 118.201, 29.056 134.299 C 30.740 137.709, 33.924 142.350, 36.130 144.610 L 40.142 148.720 29.013 163.438 C 14.339 182.844, 14.776 185.069, 31 173.548 C 47.054 162.149, 55.296 158.843, 61.354 161.375 C 63.876 162.428, 65.102 163.780, 65.998 166.495 C 66.668 168.524, 67.599 169.801, 68.066 169.334 C 69.640 167.760, 71.943 150.650, 73.496 129 C 74.344 117.175, 75.706 102.231, 76.524 95.792 C 77.948 84.568, 80.636 70.030, 81.434 69.233 C 82.030 68.636, 87.265 71.608, 89.749 73.953 C 100.913 84.491, 98.962 111.319, 84.467 146.589 C 82.639 151.038, 78.709 157.913, 75.735 161.867 C 66.619 173.985, 63.893 181.196, 67.943 182.482 C 73.970 184.395, 96.949 164.831, 107.892 148.470 C 111.811 142.610, 113.386 138.797, 116.589 127.407 L 120.500 113.500 121.105 138.500 C 121.739 164.697, 122.821 171.718, 126.774 175.295 C 131.087 179.199, 148.176 184.950, 155.568 184.985 C 165.052 185.031, 175.056 178.783, 179.461 170.063 C 185.691 157.730, 184.976 140.036, 178.177 138.330 C 176.056 137.797, 174.742 138.732, 169.099 144.787 C 161.849 152.566, 158.953 154.456, 155.578 153.609 C 150.259 152.274, 148.831 143.624, 148.113 108.373 L 147.500 78.245 154.771 76.532 C 163.364 74.508, 173.587 69.640, 175.072 66.866 C 176.899 63.452, 175.764 60.629, 171.782 58.683 C 166.496 56.100, 155.837 39.413, 152.100 27.871 C 150.064 21.582, 148.697 20.993, 135.741 20.815 C 124.423 20.659, 124.110 20.594, 121.497 17.825 C 120.027 16.268, 117.731 14.720, 116.393 14.384 C 113.444 13.644, 108.923 15.388, 106.154 18.336 C 104.170 20.448, 103.700 20.488, 89.806 19.740 C 81.938 19.317, 67.175 18.190, 57 17.235 L 38.500 15.500 38.190 11.750 C 37.888 8.109, 36.388 6.716, 35.498 9.250 M 109.861 18.967 L 107.500 20.933 114.500 20.933 L 121.500 20.933 119.139 18.967 C 117.841 17.885, 115.753 17, 114.500 17 C 113.247 17, 111.159 17.885, 109.861 18.967 M 36.593 19.178 C 36.373 19.905, 35.230 25.900, 34.054 32.500 C 30.961 49.850, 28.120 59.704, 25.213 63.158 C 22.987 65.805, 22.632 67.317, 22.217 75.950 C 20.723 106.967, 30.127 139.894, 42.426 146.709 C 44.210 147.698, 43.801 148.495, 36.926 157.440 C 32.842 162.755, 28.201 168.933, 26.613 171.170 L 23.726 175.237 31.684 169.661 C 46.844 159.038, 57.391 155.722, 64 159.500 C 65.375 160.286, 66.784 160.945, 67.131 160.965 C 67.880 161.007, 69.478 145.811, 71.543 119 C 73.482 93.826, 77.277 68.390, 79.413 66.254 C 79.711 65.955, 81.982 66.485, 84.459 67.431 C 93.892 71.034, 100 82.138, 100 95.685 C 100 115.114, 89.367 147.624, 77.695 163.878 C 71.322 172.754, 68.235 178.568, 69.320 179.654 C 71.111 181.444, 88.485 167.852, 97.099 157.923 C 107.914 145.457, 109.859 141.740, 114.592 124.500 C 118.097 111.734, 119.663 108, 121.513 108 C 122.331 108, 123.073 108.112, 123.163 108.250 C 123.252 108.388, 123.628 121.100, 123.998 136.500 C 124.868 172.730, 124.852 172.683, 138.101 177.918 C 147.368 181.581, 156.583 182.747, 162.841 181.051 C 168.553 179.502, 175.210 173.264, 177.952 166.889 C 181.909 157.692, 181.617 141, 177.500 141 C 176.760 141, 174.018 143.501, 171.406 146.558 C 166.412 152.404, 159.742 157, 156.251 157 C 153.586 157, 149.373 151.989, 148.028 147.219 C 146.257 140.934, 145.024 121.085, 145.084 99.795 C 145.115 88.633, 144.856 78.764, 144.507 77.864 C 143.984 76.512, 145.228 75.929, 151.687 74.500 C 161.221 72.391, 171.442 67.911, 172.888 65.209 C 174.724 61.779, 171.800 60.481, 162.587 60.635 C 153.629 60.786, 143.244 63.661, 130.216 69.598 C 126.078 71.483, 122.526 72.859, 122.322 72.655 C 122.118 72.451, 122.685 69.633, 123.581 66.392 C 126.361 56.344, 126.723 32.356, 124.157 28.242 C 123.577 27.313, 120.460 28.570, 112.217 33.058 L 101.062 39.131 101.679 48.516 C 102.191 56.318, 102.013 58.331, 100.625 60.450 C 98.041 64.393, 92.100 63.937, 80.235 58.887 L 70.572 54.775 63.682 58.182 L 56.791 61.589 56.928 75.545 C 57.124 95.498, 53.883 112.303, 48.792 117.722 C 45.720 120.991, 41.751 120.681, 38.589 116.923 C 34.054 111.534, 36.072 109.810, 40.766 115.064 C 42.589 117.104, 44.057 117.915, 45.159 117.492 C 47.050 116.767, 50.454 109.407, 51.905 102.905 C 53.729 94.734, 55.141 76.547, 54.473 69.815 C 53.827 63.298, 53.752 63.156, 51.523 64.171 C 49.449 65.116, 48.974 66.829, 46.412 82.607 C 44.446 94.711, 43.194 100, 42.294 100 C 41.582 100, 41 99.579, 41 99.065 C 41 96.405, 48.552 54.115, 51.849 38.308 L 55.644 20.116 52.072 19.609 C 40.614 17.983, 36.985 17.882, 36.593 19.178 M 58.578 23.157 C 58.277 24.996, 57.124 31.766, 56.016 38.203 C 53.334 53.776, 53.283 53.205, 57.177 51.262 C 59.789 49.959, 61.254 49.867, 65.427 50.747 L 70.500 51.816 83.360 45.158 C 90.434 41.496, 96.448 37.825, 96.726 37 C 97.004 36.175, 98.466 32.771, 99.976 29.436 L 102.721 23.372 83.111 22.121 C 72.325 21.434, 62.516 20.633, 61.313 20.343 C 59.461 19.896, 59.041 20.327, 58.578 23.157 M 103.006 29.151 C 101.384 32.582, 100.228 35.561, 100.438 35.771 C 100.648 35.981, 105.565 33.548, 111.364 30.364 C 117.163 27.179, 121.816 24.505, 121.704 24.422 C 121.592 24.338, 118.003 23.964, 113.728 23.591 L 105.956 22.913 103.006 29.151 M 133.607 24.582 C 132.294 28.003, 133.101 33.496, 135.523 37.630 C 138.893 43.380, 148.356 49.745, 159.248 53.587 L 163.190 54.978 160.558 50.739 C 156.858 44.780, 149 28.898, 149 27.379 C 149 23.487, 135.003 20.943, 133.607 24.582 M 127.390 24.616 C 126.591 24.945, 126.657 26.675, 127.624 30.787 C 129.356 38.146, 129.337 52.706, 127.585 61 C 126.830 64.575, 126.323 67.621, 126.458 67.768 C 126.593 67.916, 129.860 66.694, 133.718 65.052 C 140.514 62.160, 152.971 58.432, 157.928 57.806 C 159.805 57.570, 158.215 56.436, 150.928 52.817 C 136.121 45.463, 129.433 37.599, 130.164 28.403 C 130.500 24.187, 130.019 23.531, 127.390 24.616 M 85.763 46.860 C 79.857 49.962, 75.020 52.775, 75.013 53.111 C 74.998 53.807, 88.326 59.542, 92.237 60.523 C 93.654 60.879, 95.756 60.666, 96.907 60.050 C 98.714 59.082, 98.998 58.014, 98.986 52.215 C 98.972 45.293, 98.242 40.917, 97.133 41.110 C 96.785 41.171, 91.668 43.758, 85.763 46.860 M 56.223 54.557 C 53.945 56.152, 53.182 59, 55.033 59 C 56.332 59, 66 54.137, 66 53.483 C 66 52.300, 58.225 53.154, 56.223 54.557" stroke="none" fill="black" fill-rule="evenodd"/>
</svg>