<svg xmlns="http://www.w3.org/2000/svg" width="200" height="200" viewBox="0 0 200 200" version="1.1">
	<path d="M 111.100 15.750 C 103.477 20.248, 81.867 36.392, 69.777 46.620 C 64.979 50.679, 60.607 54, 60.062 54 C 56.806 54, 56.020 43.784, 58.638 35.480 C 60.715 28.890, 59.838 23.684, 56.003 19.850 C 54.436 18.282, 52.082 17, 50.773 17 C 48.072 17, 40.576 21.526, 37.342 25.109 C 28.963 34.394, 19 53.833, 19 60.896 C 19 63.729, 20.728 66.409, 23.054 67.185 C 23.732 67.411, 23.182 69.463, 21.602 72.609 C 18.581 78.626, 16 88.018, 16 93 C 16 99.534, 18.965 108.337, 26.259 123.461 C 33.364 138.193, 33.474 138.544, 33.487 146.461 C 33.502 155.704, 31.267 161.569, 24.145 170.973 C 19.723 176.812, 18.877 180.001, 21.750 179.999 C 22.712 179.998, 31.510 176.186, 41.299 171.527 C 63.735 160.851, 72.103 157.794, 77.909 158.151 C 82.780 158.450, 84.434 156.838, 81.092 155.049 C 79.053 153.958, 74.953 147.702, 73.163 142.951 L 72.202 140.402 82.351 140.403 C 89.115 140.404, 94.430 139.824, 98.284 138.664 C 101.466 137.707, 104.512 137.198, 105.053 137.533 C 106.731 138.570, 110.670 147.249, 111.845 152.500 C 112.461 155.250, 113.675 161.744, 114.544 166.931 C 115.413 172.118, 116.724 177.796, 117.457 179.550 C 119.057 183.382, 122.524 186.003, 125.973 185.991 C 128.538 185.981, 136.633 181.666, 140.771 178.101 C 142.991 176.189, 143.005 176.053, 141.400 172.041 C 139.015 166.082, 139.873 158.166, 143.406 153.534 C 147.986 147.530, 159.323 141.703, 171.779 138.953 C 181.581 136.789, 184 135.900, 184 134.461 C 184 133.658, 183.887 132.986, 183.750 132.970 C 183.613 132.953, 175.596 132.338, 165.936 131.604 C 156.276 130.870, 147.389 129.743, 146.186 129.100 C 141.463 126.572, 143.985 122.636, 157.960 110.730 C 169.350 101.027, 171.682 98.221, 170.632 95.484 C 170.035 93.927, 169.039 93.792, 162.227 94.347 C 157.977 94.693, 153.375 95.233, 152 95.547 C 149.749 96.060, 148.986 95.290, 144.339 87.809 C 138.659 78.663, 135.302 70.261, 136.295 67.673 C 137.394 64.810, 141.588 65.785, 152.531 71.447 L 163.058 76.894 168.899 71.178 C 175.075 65.134, 176.687 61.406, 175.487 55.941 C 173.107 45.104, 149.492 35.959, 134.579 40.100 C 129.070 41.629, 125 45.956, 125 50.284 C 125 53.684, 124.943 53.728, 119.750 54.352 C 110.741 55.434, 109.821 55.280, 110.180 52.750 C 110.424 51.037, 114.184 48.292, 125.941 41.245 C 142.417 31.369, 145.677 28.888, 147.135 25.110 C 149.052 20.141, 143.634 17.478, 129.330 16.357 C 122.521 15.824, 121.078 15.407, 120.673 13.859 C 119.975 11.187, 118.259 11.526, 111.100 15.750 M 104 23.697 C 96.392 29.005, 82.086 40.154, 64.169 54.740 C 61.874 56.607, 63.592 57.505, 69.356 57.451 C 79.120 57.360, 93.469 48.547, 99.191 39.129 C 100.404 37.133, 104.232 32.223, 107.698 28.218 C 111.164 24.213, 114 20.050, 114 18.968 C 114 17.886, 113.888 17.016, 113.750 17.035 C 113.612 17.054, 109.225 20.052, 104 23.697 M 116.726 22.118 C 115.395 24.717, 111 43.322, 111 46.356 C 111 47.342, 137.110 31.565, 141.093 28.172 C 143.242 26.342, 145 24.248, 145 23.520 C 145 21.369, 139.172 19.877, 128.479 19.288 L 118.457 18.736 116.726 22.118 M 46.500 21.162 C 37.195 26.286, 22.098 50.398, 22.027 60.250 C 21.998 64.327, 23.374 64.949, 28.293 63.079 C 30.556 62.218, 30.427 62.663, 26.332 69.829 C 21.122 78.947, 18.991 85.537, 19.024 92.432 C 19.063 100.442, 20.664 105.560, 27.633 119.957 C 35.335 135.868, 37.436 143.073, 36.493 150.341 C 35.642 156.894, 32.029 164.956, 26.893 171.757 L 22.876 177.079 26.188 175.627 C 28.010 174.829, 37.150 170.549, 46.500 166.116 C 55.850 161.684, 66.493 157.281, 70.151 156.332 L 76.803 154.608 74.522 151.554 C 73.267 149.874, 71.643 146.700, 70.912 144.500 C 70.181 142.300, 69.238 140.018, 68.817 139.428 C 68.395 138.838, 68.200 131.413, 68.382 122.928 C 68.667 109.718, 69.096 106.234, 71.370 98.693 C 75.957 83.475, 81.715 73.853, 87.740 71.335 C 89.652 70.536, 91.008 69.675, 90.755 69.421 C 89.617 68.283, 74.135 66, 67.556 66 L 60.287 66 59.598 75.131 C 57.906 97.538, 51.626 117, 46.087 117 C 39.012 117, 38.650 100.712, 45.231 78.500 C 46.372 74.650, 47.424 70.600, 47.569 69.500 C 47.714 68.400, 47.871 67.206, 47.917 66.847 C 47.962 66.488, 50.187 64.098, 52.861 61.535 L 57.722 56.877 55.861 53.227 C 53.510 48.616, 53.497 42.795, 55.820 35.331 C 59.137 24.672, 54.083 16.987, 46.500 21.162 M 108.257 31.360 C 106.603 33.244, 103.570 37.315, 101.519 40.405 C 97.022 47.180, 90.561 52.878, 83.061 56.680 C 78.186 59.152, 76.374 59.503, 68.373 59.526 C 62.158 59.543, 58.720 59.988, 57.598 60.918 C 56.693 61.670, 56.177 62.510, 56.452 62.785 C 56.727 63.060, 57.711 62.658, 58.638 61.893 C 59.948 60.811, 60.419 60.779, 60.746 61.750 C 61.018 62.557, 63.215 63, 66.952 63 C 78.262 63, 90.987 65.991, 103.658 71.628 C 105.430 72.416, 106.634 57.468, 104.961 55.453 C 103.908 54.184, 104.036 53.442, 105.700 51.192 C 107.359 48.949, 112.342 29.219, 111.503 28.216 C 111.373 28.060, 109.912 29.475, 108.257 31.360 M 133.500 43.319 C 129.006 45.378, 127.736 47.436, 128.168 51.961 C 128.634 56.852, 128.323 57, 117.554 57 L 109.272 57 108.636 61.640 C 107.409 70.593, 107.748 72.720, 110.514 73.414 C 112.488 73.910, 112.995 74.631, 112.874 76.773 C 112.790 78.273, 113.981 81.698, 115.521 84.384 C 120.726 93.463, 118.745 106.585, 112.286 105.810 C 108.285 105.331, 106.134 101.410, 104.847 92.250 C 104.210 87.713, 103.336 84, 102.906 84 C 101.212 84, 86.311 96.016, 83.206 99.887 C 77.471 107.035, 75.021 113.571, 75.010 121.750 C 75.004 125.737, 75.188 129, 75.417 129 C 75.646 129, 78.634 126.084, 82.056 122.520 C 92.073 112.089, 101.599 108.629, 108.580 112.885 C 114.919 116.751, 115.479 125.106, 109.830 131.540 L 106.759 135.038 109.222 138.769 C 112.536 143.792, 114.613 150.525, 116.541 162.500 C 120.021 184.123, 122.884 186.844, 134.263 179.350 L 139.806 175.700 138.403 171.725 C 132.975 156.340, 143.723 143.598, 167.416 137.330 C 173.566 135.702, 174.009 135.430, 171.416 134.868 C 169.812 134.521, 165.800 134.181, 162.500 134.113 C 153.610 133.929, 144.972 132.285, 142.862 130.375 C 138.348 126.290, 141.637 121.020, 156.553 108.434 C 170.607 96.576, 170.986 95.601, 161 97.011 C 157.975 97.438, 153.880 98.098, 151.900 98.477 L 148.299 99.166 143.114 91.083 C 137.420 82.206, 134.450 75.917, 133.459 70.634 C 132.942 67.880, 133.252 66.748, 135 65 C 137.936 62.064, 141.957 62.864, 153.054 68.588 C 157.759 71.014, 162.055 73, 162.601 73 C 163.876 73, 170.420 66.171, 171.882 63.316 C 175.287 56.664, 170.103 49.080, 159.365 45.003 C 151.994 42.205, 137.929 41.289, 133.500 43.319 M 53.724 67.841 C 51.562 69.133, 50.387 71.268, 48.414 77.491 C 42.939 94.758, 41.466 114.643, 45.723 113.810 C 49.441 113.082, 54.112 98.624, 55.987 82.041 C 56.580 76.794, 57.248 71.037, 57.470 69.250 C 57.924 65.603, 57.645 65.499, 53.724 67.841 M 94 71.423 C 95.375 72.251, 97.175 72.931, 98 72.934 C 99.333 72.939, 99.333 72.845, 98 72.091 C 97.175 71.624, 95.375 70.944, 94 70.579 L 91.500 69.917 94 71.423 M 86.052 75.609 C 82.263 78.798, 75.773 92.101, 73.554 101.229 C 69.875 116.355, 69.405 136, 72.722 136 C 73.847 136, 73.979 135.294, 73.329 132.750 C 72.873 130.963, 72.516 125.675, 72.536 121 C 72.568 113.660, 72.959 111.757, 75.403 107.054 C 79.111 99.916, 87.729 90.952, 96.750 84.846 C 105.531 78.903, 106.506 76.019, 99.750 75.968 C 97.412 75.951, 94.626 75.276, 93.559 74.468 C 90.856 72.424, 89.614 72.613, 86.052 75.609 M 108.095 80.931 C 106.999 81.617, 106.827 83.421, 107.312 89.159 C 108.018 97.517, 109.516 102.600, 111.497 103.360 C 115.181 104.774, 117.190 95.360, 114.616 88.742 C 112.300 82.786, 109.840 79.840, 108.095 80.931 M 94.466 115.876 C 90.206 117.811, 81.998 125.296, 78.154 130.750 C 75.544 134.454, 75.710 134.521, 82.409 132.489 C 88.340 130.690, 97.921 130.551, 101.565 132.212 C 104.025 133.332, 104.478 133.146, 107.612 129.726 C 110.136 126.972, 111 125.121, 111 122.469 C 111 114.876, 103.368 111.832, 94.466 115.876 M 87.458 134.022 C 85.234 134.464, 81.859 135.539, 79.958 136.413 C 76.548 137.979, 76.626 137.996, 85.500 137.608 C 90.450 137.392, 95.850 136.653, 97.500 135.967 L 100.500 134.719 98 133.959 C 94.843 133, 92.536 133.013, 87.458 134.022" stroke="none" fill="black" fill-rule="evenodd"/>
</svg>