<svg xmlns="http://www.w3.org/2000/svg" width="200" height="200" viewBox="0 0 200 200" version="1.1">
	<path d="M 118.810 11.524 C 118.522 11.812, 110.009 12.510, 99.893 13.076 C 89.777 13.642, 78.575 14.673, 75 15.366 C 69.615 16.411, 67.728 16.389, 64 15.240 C 61.525 14.477, 56.279 13.813, 52.342 13.764 C 31.933 13.511, 20 31.109, 20 61.457 C 20 71.131, 21.948 84.718, 24.311 91.530 C 25.471 94.874, 25.479 97.076, 24.361 105.500 C 22.451 119.902, 22.538 142.073, 24.540 150.874 C 27.421 163.544, 35.807 172.506, 47.033 174.914 C 54.035 176.415, 69.540 176.253, 88.500 174.480 C 97.300 173.657, 114.018 173.017, 125.650 173.057 C 148.159 173.136, 152.579 172.528, 159.772 168.363 C 166.116 164.690, 169.476 159.032, 169.429 152.098 C 169.337 138.558, 156.232 126.858, 136.154 122.391 C 124.446 119.786, 102.980 120.872, 87.929 124.830 C 81.566 126.503, 74.459 128.633, 72.138 129.562 C 69.816 130.490, 67.679 131.012, 67.388 130.721 C 67.097 130.430, 81.258 125.464, 98.857 119.686 L 130.856 109.180 135.178 111.340 C 141.037 114.268, 157.684 114.424, 166.193 111.631 C 177.294 107.987, 186 100.232, 186 93.987 C 186 90.010, 182.809 86.598, 176.556 83.890 C 173.521 82.576, 171.227 81.050, 171.460 80.500 C 174.473 73.367, 176.180 65.172, 175.823 59.554 C 175.299 51.325, 172.039 46.509, 162.866 40.411 C 159.111 37.915, 155.780 35.453, 155.463 34.941 C 154.678 33.670, 159.028 29.794, 164.491 26.896 C 166.971 25.580, 169 24.207, 169 23.845 C 169 23.134, 154.788 17, 153.141 17 C 152.592 17, 151.381 16.238, 150.449 15.306 C 149.487 14.345, 146.970 13.536, 144.627 13.437 C 142.357 13.340, 137.350 12.762, 133.500 12.151 C 125.950 10.952, 119.650 10.683, 118.810 11.524 M 116 14.453 C 116 14.702, 118.138 15.851, 120.750 17.004 C 123.362 18.158, 126.910 20.467, 128.633 22.134 L 131.766 25.165 136.883 21.489 C 139.697 19.467, 142 17.471, 142 17.053 C 142 15.962, 129.185 14, 122.057 14 C 118.726 14, 116 14.204, 116 14.453 M 44 17.537 C 34.492 20.489, 28.308 28.446, 24.829 42.205 C 22.027 53.285, 22.616 75.578, 26.013 87 C 28.105 94.037, 28.173 95.179, 27.105 105.500 C 24.373 131.922, 24.730 143.530, 28.638 155.382 C 30.973 162.460, 37.991 169.361, 44.932 171.402 C 51.932 173.461, 68.917 173.478, 91.500 171.447 C 101.328 170.563, 116.937 169.999, 128.500 170.110 C 146.852 170.286, 148.959 170.124, 154.066 168.148 C 168.901 162.407, 171.288 148.330, 159.403 136.671 C 146.432 123.946, 119.837 119.973, 92 126.603 C 83.566 128.611, 70 133.005, 70 133.728 C 70 134.362, 95.464 133.218, 101.250 132.324 C 104.160 131.874, 105 132.077, 105 133.230 C 105 135.109, 98.117 135.927, 76.751 136.587 C 68.089 136.855, 60.946 137.291, 60.876 137.557 C 60.807 137.822, 61.029 139.782, 61.370 141.911 C 63.513 155.311, 87.692 157.747, 110.974 146.909 C 119.398 142.988, 123.746 139.601, 125.749 135.401 C 127.620 131.476, 129 130.997, 129 134.272 C 129 140.464, 114.680 150.038, 99.287 154.136 C 89.259 156.807, 75.195 157.028, 69.514 154.605 C 61.362 151.128, 58.036 145.859, 57.946 136.282 C 57.891 130.505, 57.887 130.497, 53.196 127.500 C 49.799 125.330, 48.414 123.757, 48.190 121.813 C 47.794 118.389, 50.515 116.518, 58.536 114.697 C 64.308 113.387, 64.603 113.160, 67.690 107.672 L 70.880 102 67.940 102 C 65.993 102, 65 101.493, 65 100.500 C 65 99.675, 64.767 99, 64.483 99 C 62.143 99, 43.910 94.483, 41.750 93.368 C 38.617 91.751, 38.176 89.577, 40.750 88.444 C 41.712 88.021, 50.825 87.498, 61 87.281 C 71.175 87.065, 80.175 86.628, 81 86.309 C 81.825 85.991, 76.217 84.671, 68.537 83.375 C 52.472 80.663, 45.856 78.879, 41.188 75.998 C 38.385 74.268, 37.925 73.459, 38.188 70.727 L 38.500 67.500 51.614 67.222 L 64.727 66.944 65.299 60.722 C 65.613 57.300, 65.562 54.228, 65.185 53.896 C 64.808 53.563, 57.121 52.761, 48.102 52.113 C 39.083 51.465, 31.299 50.684, 30.803 50.378 C 30.302 50.068, 30.422 49.197, 31.074 48.411 C 31.997 47.298, 35.816 47, 49.141 47 L 66.038 47 65.383 44.250 C 63.769 37.474, 58.372 32.374, 50.070 29.783 C 47.848 29.090, 45.819 27.972, 45.561 27.298 C 44.841 25.421, 49.301 22.454, 55.966 20.376 C 59.276 19.344, 61.987 18.224, 61.991 17.886 C 62.001 17.223, 54.060 15.956, 50.610 16.070 C 49.450 16.108, 46.475 16.768, 44 17.537 M 81 17.131 C 77.975 17.625, 75.050 18.178, 74.500 18.361 C 73.950 18.544, 76.859 20.391, 80.964 22.467 L 88.428 26.241 89.950 23.949 C 90.787 22.688, 93.479 20.384, 95.932 18.828 L 100.392 16 93.446 16.117 C 89.626 16.181, 84.025 16.638, 81 17.131 M 102.420 18.404 C 96.849 20.992, 90.979 25.602, 91.043 27.339 C 91.097 28.808, 104.423 38, 106.498 38 C 108.563 38, 119.427 33.025, 124.859 29.592 L 129.218 26.837 126.425 23.921 C 123.698 21.075, 116.600 17.873, 110.420 16.702 C 108.322 16.304, 105.769 16.847, 102.420 18.404 M 140.504 23.996 L 134.571 29.991 134.389 37.996 L 134.206 46 142.103 46 C 146.599 46, 150 46.422, 150 46.981 C 150 48.159, 147.637 48.699, 138.936 49.509 L 132.372 50.119 129.271 57.310 L 126.171 64.500 137.520 65.650 C 150.112 66.927, 151.714 67.435, 149.926 69.589 C 149.038 70.659, 145.878 71, 136.846 71 C 123.190 71, 123.893 70.482, 123.657 80.715 L 123.500 87.500 135.500 88.091 C 148.472 88.729, 152.253 89.736, 154.010 93.018 C 154.990 94.850, 154.677 95.569, 151.653 98.420 C 149.735 100.229, 145.203 103, 141.583 104.577 C 137.962 106.155, 135 107.736, 135 108.093 C 135 108.731, 140.559 110.368, 146.591 111.506 C 151.527 112.437, 162.926 110.166, 170.294 106.783 C 186.525 99.330, 186.980 88.794, 171.242 84.831 C 167.806 83.966, 167.035 83.393, 167.584 82.117 C 171.410 73.232, 172.998 67.226, 172.984 61.705 C 172.960 52.938, 170.382 48.834, 160.721 42.188 C 154.656 38.016, 153 36.354, 153 34.438 C 153 31.723, 155.159 29.200, 159.862 26.423 C 161.588 25.403, 163 24.320, 163 24.015 C 163 23.382, 149.032 17.957, 147.469 17.983 C 146.901 17.992, 143.767 20.698, 140.504 23.996 M 58 22.595 C 53.875 23.994, 50.148 25.481, 49.718 25.901 C 49.288 26.321, 50.780 27.217, 53.033 27.892 C 58.132 29.419, 66.599 37.380, 67.506 41.500 C 68.801 47.378, 68.720 47.310, 73.659 46.633 C 76.200 46.285, 85.261 46, 93.795 46 C 109.248 46, 109.303 45.992, 107.499 43.999 C 106.037 42.384, 104.612 42.045, 100.094 42.237 C 90.365 42.651, 85.304 38.692, 86.166 31.341 C 86.476 28.708, 85.913 28.191, 78.500 24.284 C 74.100 21.966, 69.375 20.065, 68 20.060 C 66.625 20.055, 62.125 21.196, 58 22.595 M 119.304 35.355 C 113.697 38.185, 109.084 40.807, 109.054 41.182 C 109.025 41.557, 110.384 42.850, 112.076 44.054 L 115.152 46.245 118.665 42.872 C 122.002 39.669, 130.571 29.882, 129.843 30.105 C 129.654 30.163, 124.912 32.526, 119.304 35.355 M 89.015 33.250 C 89.036 36.342, 90.063 37.693, 93.335 38.937 C 96.565 40.165, 101.005 40.347, 100.988 39.250 C 100.976 38.480, 90.638 31, 89.586 31 C 89.264 31, 89.007 32.013, 89.015 33.250 M 125.114 39.750 L 120.062 45.500 125.142 45.806 C 127.935 45.974, 130.424 45.909, 130.672 45.661 C 131.733 44.600, 132.234 34, 131.223 34 C 130.641 34, 127.892 36.587, 125.114 39.750 M 60.500 50 C 63.279 51.194, 66 51.194, 66 50 C 66 49.450, 64.313 49.032, 62.250 49.070 C 59.242 49.127, 58.896 49.311, 60.500 50 M 69 50 C 69 50.550, 69.115 51, 69.256 51 C 71.502 51, 96.918 54.291, 100.826 55.087 C 105.457 56.032, 106.402 55.946, 108.076 54.432 C 109.134 53.474, 110.001 52.422, 110.001 52.095 C 110.002 51.768, 105.615 51.500, 100.251 51.500 C 92.984 51.500, 90.564 51.182, 90.750 50.250 C 90.938 49.311, 88.267 49, 80 49 C 73.333 49, 69 49.394, 69 50 M 119.783 50.738 C 114.709 51.057, 113.816 51.450, 111.834 54.233 C 110.295 56.395, 109.980 57.493, 110.819 57.773 C 113.601 58.700, 115.021 61.093, 113.963 63.069 C 113.007 64.856, 113.299 65, 117.892 65 L 122.853 65 125.332 59.586 C 129.181 51.178, 129.437 49.969, 127.317 50.189 C 126.318 50.293, 122.927 50.540, 119.783 50.738 M 68.621 55.750 C 68.338 56.712, 67.984 59.750, 67.835 62.500 L 67.563 67.500 77.531 67.798 C 89.902 68.168, 97.210 66.279, 101.282 61.657 L 104.063 58.500 100.499 57.759 C 96.442 56.915, 73.445 54, 70.847 54 C 69.905 54, 68.903 54.788, 68.621 55.750 M 104.937 61.567 C 103.684 62.901, 102.940 64.273, 103.283 64.616 C 104.120 65.453, 108.063 64.406, 110.337 62.743 C 112.080 61.468, 112.047 61.343, 109.695 60.271 C 107.555 59.296, 106.904 59.473, 104.937 61.567 M 110.269 67.693 C 111.242 67.947, 112.592 67.930, 113.269 67.656 C 113.946 67.382, 113.150 67.175, 111.500 67.195 C 109.850 67.215, 109.296 67.439, 110.269 67.693 M 117.250 68.689 C 118.213 68.941, 119.787 68.941, 120.750 68.689 C 121.713 68.438, 120.925 68.232, 119 68.232 C 117.075 68.232, 116.287 68.438, 117.250 68.689 M 127.762 68.707 C 129.006 68.946, 130.806 68.937, 131.762 68.687 C 132.718 68.437, 131.700 68.241, 129.500 68.252 C 127.300 68.263, 126.518 68.468, 127.762 68.707 M 40.247 71.241 C 41.430 74.791, 51.222 77.866, 71 80.897 C 82.612 82.676, 83.631 82.695, 85.343 81.167 C 86.356 80.263, 87.583 78.780, 88.069 77.872 C 88.850 76.413, 88.520 76.322, 85.226 77.087 C 75.902 79.253, 68.906 77.755, 66.209 73.015 L 64.500 70.013 52.167 70.006 C 42.791 70.002, 39.933 70.298, 40.247 71.241 M 68 70.977 C 68 71.369, 68.894 72.499, 69.988 73.489 C 71.670 75.011, 73.167 75.203, 79.738 74.736 C 86.864 74.230, 94.870 72.175, 92.500 71.460 C 90.187 70.762, 68 70.325, 68 70.977 M 101.550 71.800 C 102.073 72.240, 104.750 74.339, 107.500 76.465 C 110.250 78.591, 114.138 81.875, 116.141 83.762 L 119.781 87.192 120.463 80.846 C 120.837 77.356, 121.367 73.713, 121.639 72.750 C 122.089 71.161, 121.144 71, 111.367 71 C 105.445 71, 101.027 71.360, 101.550 71.800 M 95 74.663 C 93.328 75.142, 88.491 81.217, 88.749 82.513 C 89.039 83.969, 102.274 86.883, 108.872 86.942 C 116.440 87.011, 116.284 86.555, 106.101 78.845 C 100.022 74.243, 98.483 73.663, 95 74.663 M 85.750 86.662 C 86.438 86.940, 87.563 86.940, 88.250 86.662 C 88.938 86.385, 88.375 86.158, 87 86.158 C 85.625 86.158, 85.063 86.385, 85.750 86.662 M 57.500 89.727 C 47.221 90.009, 43.171 90.523, 44.107 91.427 C 44.718 92.017, 73.104 98.241, 73.397 97.848 C 77.840 91.895, 79 90.198, 79 89.656 C 79 89.295, 76.638 89.096, 73.750 89.212 C 70.862 89.329, 63.550 89.561, 57.500 89.727 M 80.319 92.826 L 77.683 96.282 81.447 95.576 C 87.285 94.481, 98.677 90.674, 97 90.379 C 96.175 90.234, 92.678 89.948, 89.228 89.742 C 83.078 89.376, 82.905 89.436, 80.319 92.826 M 102 90.836 C 102 92.173, 93.637 95.495, 85 97.590 C 80.875 98.590, 76.546 100.240, 75.381 101.256 C 73.296 103.073, 67.386 113, 68.390 113 C 68.672 113, 75.338 112.084, 83.202 110.964 C 113.327 106.675, 123.053 102.030, 119.610 93.573 C 118.373 90.534, 118.270 90.497, 110.180 90.210 C 105.674 90.050, 102 90.331, 102 90.836 M 124 92.132 C 124 94.928, 127.468 102.208, 129.808 104.327 C 131.428 105.792, 132.185 105.649, 139.422 102.503 C 148.511 98.552, 152.539 95.354, 150.906 93.386 C 149.738 91.979, 146.069 91.394, 132.750 90.490 C 124.181 89.908, 124 89.942, 124 92.132 M 121.180 102.083 C 118.139 106.952, 103.396 111.230, 78.561 114.448 C 71.652 115.343, 66.286 116.523, 65.825 117.248 C 64.387 119.511, 61.784 128.117, 62.362 128.696 C 62.673 129.007, 65.307 128.304, 68.214 127.133 C 71.121 125.962, 85.425 121.131, 100 116.397 C 114.575 111.663, 126.828 107.591, 127.229 107.349 C 127.949 106.913, 123.976 100.036, 122.991 100.012 C 122.710 100.006, 121.896 100.937, 121.180 102.083 M 55.376 118.086 C 53.657 118.584, 51.712 119.642, 51.053 120.437 C 50.070 121.621, 50.617 122.434, 54.086 124.948 C 56.415 126.634, 58.433 127.898, 58.572 127.757 C 58.710 127.616, 59.720 125.138, 60.816 122.250 L 62.808 117 60.654 117.090 C 59.469 117.140, 57.094 117.588, 55.376 118.086 M 61.813 133.683 C 62.534 133.972, 63.397 133.936, 63.729 133.604 C 64.061 133.272, 63.471 133.036, 62.417 133.079 C 61.252 133.127, 61.015 133.364, 61.813 133.683" stroke="none" fill="black" fill-rule="evenodd"/>
</svg>