<svg xmlns="http://www.w3.org/2000/svg" width="200" height="200" viewBox="0 0 200 200" version="1.1">
	<path d="M 110.079 28.148 C 111.153 30.154, 111.040 30.258, 108.364 29.726 C 106.789 29.413, 100.952 28.591, 95.394 27.899 L 85.288 26.641 80.856 29.239 C 73.339 33.644, 64.874 35.939, 53.808 36.573 C 37.103 37.529, 35.317 39.127, 38.432 50.329 C 40.056 56.172, 52.589 84.637, 53.881 85.419 C 54.222 85.625, 57.394 84.040, 60.931 81.897 C 64.468 79.753, 67.731 78, 68.181 78 C 68.632 78, 69 80.645, 69 83.879 L 69 89.758 64.461 88.789 C 60.815 88.012, 59.447 88.132, 57.508 89.403 C 55.084 90.991, 53.265 96.642, 54.304 99.351 C 54.723 100.442, 52.385 100.822, 42.660 101.242 C 35.121 101.568, 29.098 102.350, 26.827 103.299 C 16.985 107.411, 21.839 114.097, 36.805 117.041 C 42.842 118.229, 62.344 117.890, 69.500 116.472 C 71.561 116.064, 72.030 116.169, 71 116.806 C 70.175 117.316, 66.911 118.022, 63.748 118.375 C 54.128 119.450, 48 122.751, 48 126.858 C 48 129.316, 54.222 134.720, 65.871 142.380 C 79.976 151.655, 82.191 153.646, 79.944 155.034 C 77.167 156.751, 67.645 157.240, 50.925 156.526 C 36.441 155.907, 34 156.012, 34 157.259 C 34 158.404, 36.353 158.864, 44.999 159.411 C 57.205 160.184, 63.972 161.832, 69.088 165.281 C 73.912 168.531, 73.719 171.752, 68.526 174.666 C 61.939 178.360, 52.435 179.512, 29.707 179.370 C 14.644 179.275, 9.016 179.551, 9.285 180.370 C 9.984 182.493, 24.528 183.033, 96.500 183.608 C 168.132 184.181, 168.513 184.173, 171.119 182.122 C 176.743 177.696, 175.254 169.696, 165.418 151.500 C 155.521 133.191, 153.629 128.357, 153.181 120.229 L 152.779 112.958 157.202 108.535 C 160.604 105.133, 163.058 103.714, 167.838 102.385 C 171.256 101.435, 173.883 100.172, 173.675 99.579 C 173.238 98.330, 173.076 98.335, 158.425 100.017 C 146.625 101.371, 140.548 100.870, 139.625 98.464 C 138.828 96.388, 140.106 93.443, 146.952 81.583 C 150.241 75.885, 154.268 67.859, 155.901 63.748 C 157.535 59.637, 160.238 54.118, 161.908 51.483 C 168.113 41.699, 168.357 35.883, 162.661 33.503 C 160.864 32.752, 152.893 31.633, 144.947 31.016 C 137.001 30.399, 126.154 29.018, 120.843 27.947 C 108.574 25.473, 108.647 25.472, 110.079 28.148 M 79.371 33.037 C 71.111 37.197, 64.851 38.743, 53 39.547 C 40.448 40.400, 40 40.552, 40 43.959 C 40 47.747, 43.826 58.277, 50.023 71.549 L 54.966 82.134 59.233 79.479 C 61.580 78.018, 64.737 76.315, 66.250 75.693 C 68.519 74.759, 69 73.942, 69 71.021 C 69 68.564, 68.388 67.099, 67 66.232 C 63.995 64.356, 64.530 61.257, 68.250 58.989 C 72.776 56.229, 73.178 56.428, 72.817 61.250 L 72.500 65.500 77.500 66.162 C 85.718 67.251, 98 67.119, 98 65.941 C 98 65.359, 98.550 65.222, 99.222 65.637 C 101.290 66.915, 122.480 64.650, 123.472 63.045 C 123.700 62.676, 123.125 60.224, 122.193 57.597 C 120.542 52.940, 120.412 52.833, 117 53.333 C 115.075 53.615, 109.900 54.377, 105.500 55.025 C 95.967 56.430, 86.363 55.791, 84.178 53.607 C 81.931 51.360, 83.430 50.521, 87.028 52.012 C 90.361 53.392, 107.714 52.785, 112.161 51.132 C 114.196 50.376, 113.754 50.095, 108.750 48.972 C 105.250 48.187, 103 47.157, 103 46.341 C 103 44.559, 104.305 44.652, 111.948 46.976 C 115.495 48.054, 118.510 48.824, 118.648 48.686 C 118.786 48.548, 117.459 45.102, 115.699 41.028 C 112.044 32.566, 112.728 32.931, 96.500 30.775 L 86.500 29.446 79.371 33.037 M 118.500 31.651 C 131.880 35.511, 137 38.515, 137 42.504 C 137 45.041, 133.834 47.719, 128.159 49.985 C 125.187 51.171, 125.021 51.427, 126.659 52.296 C 133.064 55.696, 134.985 61.139, 130.500 63.182 C 129.125 63.808, 128 64.659, 128 65.071 C 128 65.484, 129.187 70.249, 130.638 75.661 C 132.089 81.072, 134.035 90, 134.963 95.500 C 136.468 104.418, 136.926 105.634, 139.197 106.743 C 140.598 107.427, 142.349 108.715, 143.088 109.606 C 144.251 111.008, 143.992 111.618, 141.154 114.154 L 137.876 117.082 137.441 128.892 C 137.201 135.387, 136.562 143.038, 136.020 145.893 C 135.306 149.661, 135.359 151.602, 136.216 152.974 C 136.920 154.102, 142.569 156.766, 150.241 159.589 C 157.306 162.188, 162.729 164.647, 162.293 165.053 C 161.857 165.460, 154.975 169.207, 147 173.381 L 132.500 180.969 150.727 180.984 L 168.954 181 170.570 178.533 C 172.799 175.132, 171.767 169.925, 167.061 160.825 C 164.978 156.796, 160.950 149.017, 158.112 143.538 C 148.158 124.321, 147.363 114.436, 155.124 106.388 L 158.125 103.276 149.668 103.388 C 142.653 103.481, 140.851 103.175, 139.105 101.595 C 135.826 98.627, 136.475 94.441, 141.603 85.500 C 147.627 74.996, 152.904 64.524, 154.613 59.679 C 155.370 57.534, 157.593 53.139, 159.554 49.911 C 161.515 46.684, 163.374 42.469, 163.686 40.545 C 164.193 37.423, 163.961 36.936, 161.527 36.010 C 160.028 35.440, 153.108 34.505, 146.150 33.933 C 139.193 33.360, 129.342 32.241, 124.261 31.446 C 113.126 29.703, 111.901 29.747, 118.500 31.651 M 116 34.260 C 116 34.934, 121.719 48.052, 122.240 48.573 C 122.982 49.316, 132.629 45.152, 134.003 43.496 C 135.531 41.655, 133.099 39.548, 126.751 37.213 C 121.270 35.196, 116 33.749, 116 34.260 M 124.353 55.477 C 124.713 56.417, 125.280 58.269, 125.613 59.593 C 126.305 62.350, 126.905 62.521, 129.420 60.682 C 131.111 59.446, 131.118 59.261, 129.533 57.676 C 128.604 56.747, 126.911 55.488, 125.770 54.877 C 123.996 53.927, 123.791 54.014, 124.353 55.477 M 68.583 61.866 C 68.152 62.563, 68.070 63.403, 68.400 63.733 C 69.295 64.628, 70.271 63.312, 69.787 61.862 C 69.449 60.846, 69.213 60.846, 68.583 61.866 M 121.780 66.554 C 121.475 66.858, 116.788 67.670, 111.363 68.358 L 101.500 69.608 104.521 72.554 C 106.182 74.174, 109.651 76.939, 112.228 78.699 C 120.178 84.127, 126.302 95, 121.408 95 C 119.019 95, 115.514 91.889, 109.371 84.318 C 100.711 73.643, 98.880 72.804, 96.958 78.627 C 96.300 80.622, 93.677 84.406, 91.130 87.034 C 86.092 92.235, 80.096 94.619, 74.916 93.482 C 72.343 92.916, 72.002 93.115, 72.020 95.171 C 72.046 98.252, 73.939 111.272, 74.432 111.766 C 74.645 111.978, 78.122 110.705, 82.160 108.936 L 89.500 105.720 111.595 105.254 L 133.689 104.788 132.306 96.144 C 129.823 80.625, 125.592 66, 123.586 66 C 122.897 66, 122.084 66.249, 121.780 66.554 M 72 70.500 C 72 72.676, 72.347 73.080, 73.750 72.538 C 74.713 72.166, 77.716 71.440, 80.424 70.924 C 87.228 69.628, 87.333 69, 80.748 69 C 77.677 69, 74.452 68.727, 73.582 68.393 C 72.379 67.931, 72 68.436, 72 70.500 M 94.500 70 C 92.592 70.820, 92.603 70.863, 94.750 70.930 C 95.987 70.968, 97 70.550, 97 70 C 97 69.450, 96.888 69.032, 96.750 69.070 C 96.612 69.109, 95.600 69.527, 94.500 70 M 76.707 74.612 L 71.914 76.086 72.207 83.293 L 72.500 90.500 76.303 90.814 C 83.752 91.428, 90.658 86.186, 94.722 76.834 C 95.677 74.636, 95.613 74.066, 94.358 73.584 C 91.606 72.528, 81.591 73.111, 76.707 74.612 M 110.059 80.500 C 110.032 82.010, 118.713 91.594, 119.451 90.870 C 119.804 90.524, 117.839 87.824, 115.085 84.870 C 112.330 81.917, 110.068 79.950, 110.059 80.500 M 57.985 92.518 C 57.145 93.530, 56.922 95.695, 57.316 99.018 L 57.906 104 47.002 104 C 35.150 104, 26.794 105.339, 24.976 107.529 C 23.438 109.382, 28.494 112.509, 35.448 114.007 C 42.012 115.421, 59.152 115.375, 65.908 113.926 L 71.204 112.790 70.580 107.145 C 68.842 91.422, 69.103 92.271, 65.796 91.609 C 61.090 90.668, 59.353 90.870, 57.985 92.518 M 101.500 107.936 C 91.501 108.514, 88.537 109.078, 83.721 111.315 C 80.543 112.792, 77.281 114, 76.471 114 C 73.754 114, 74.810 117.909, 77.750 118.731 C 82.348 120.017, 114.918 119.600, 121.500 118.171 C 133.299 115.610, 134 115.231, 134 111.422 C 134 108.050, 133.936 108, 129.647 108 C 127.252 108, 122.640 107.829, 119.397 107.621 C 116.154 107.412, 108.100 107.554, 101.500 107.936 M 137 111 C 137 113.214, 137.752 113.461, 140 111.985 C 141.333 111.109, 141.333 110.891, 140 110.015 C 137.752 108.539, 137 108.786, 137 111 M 124.500 120.209 C 118.334 121.725, 112.603 122.213, 99.500 122.338 C 90.150 122.427, 81.263 122.154, 79.750 121.731 C 76.753 120.893, 76.467 121.468, 77.946 125.359 C 78.892 127.847, 78.894 127.847, 84.196 126.400 C 92.063 124.253, 105.154 124.216, 108.384 126.332 C 111.740 128.531, 112.761 132.588, 110.800 135.931 L 109.292 138.500 120.896 144.108 L 132.500 149.715 133.191 146.108 C 133.571 144.123, 134.202 136.988, 134.593 130.250 C 135.186 120.042, 135.071 118.020, 133.902 118.121 C 133.131 118.187, 128.900 119.127, 124.500 120.209 M 62 121.365 C 54.777 122.716, 51 124.424, 51 126.339 C 51 128.508, 57.035 133.481, 69.179 141.317 C 75.602 145.462, 81.635 150.040, 82.586 151.491 C 84.242 154.018, 84.231 154.213, 82.344 156.100 C 81.113 157.331, 77.583 158.580, 72.937 159.427 C 68.847 160.173, 66.255 160.832, 67.179 160.892 C 69.783 161.060, 76 167.455, 76 169.967 C 76 173.224, 70.866 177.490, 64.795 179.279 C 59.724 180.773, 60.856 180.842, 91.616 180.919 L 123.732 181 126.872 171.096 C 132.107 154.583, 132.231 155.694, 124.844 153.007 C 121.355 151.738, 117.825 150.036, 117 149.224 C 115.675 147.921, 115.966 147.815, 119.500 148.312 C 123.149 148.825, 122.808 148.521, 115.604 144.851 L 107.707 140.828 103.906 142.542 C 101.240 143.745, 98.469 144.121, 94.625 143.802 C 85.990 143.086, 80.055 137.626, 75.390 126.108 C 72.782 119.669, 72.191 119.460, 62 121.365 M 91 127.898 L 87.500 128.648 96.500 132.902 C 106.134 137.455, 108.241 137.440, 108.801 132.814 C 108.966 131.447, 108.420 129.764, 107.588 129.073 C 105.763 127.559, 95.856 126.857, 91 127.898 M 80 129.820 C 80 131.998, 87.459 139.010, 91.361 140.500 C 94.955 141.873, 96.432 141.961, 99.951 141.013 C 102.289 140.384, 104.027 139.693, 103.813 139.479 C 103.352 139.019, 80.958 129, 80.389 129 C 80.175 129, 80 129.369, 80 129.820 M 130.696 168.213 C 128.714 174.380, 127.270 179.603, 127.486 179.820 C 127.703 180.036, 134.191 176.910, 141.906 172.872 C 149.620 168.835, 155.610 165.221, 155.216 164.842 C 154.494 164.146, 136.016 157.020, 134.899 157.007 C 134.569 157.003, 132.677 162.046, 130.696 168.213" stroke="none" fill="black" fill-rule="evenodd"/>
</svg>