<svg xmlns="http://www.w3.org/2000/svg" width="200" height="200" viewBox="0 0 200 200" version="1.1">
	<path d="M 155.633 21.553 C 147.818 23.105, 138.949 25.832, 137.567 27.106 C 135.310 29.187, 138.505 28.998, 147.028 26.546 C 152.075 25.094, 159.130 23.633, 162.705 23.299 C 168.722 22.737, 169.179 22.833, 168.840 24.595 C 167.997 28.970, 148.251 35.874, 131.808 37.542 L 125.116 38.221 124.450 43.556 C 123.599 50.368, 125.961 55.695, 131 58.330 C 134.124 59.963, 136.314 60.102, 151.380 59.621 C 178.018 58.770, 180.284 61.178, 171.481 80.984 C 169.644 85.118, 167.871 90.540, 167.542 93.033 C 166.188 103.275, 159.871 107.940, 147.302 107.978 C 142.339 107.993, 137.631 107.219, 132.142 105.485 C 124.350 103.024, 115 97.697, 114.240 95.287 C 113.554 93.110, 119.047 92.697, 128.363 94.225 L 137.500 95.724 139.741 93.112 C 142.729 89.628, 149 77.226, 149 74.800 C 149 71.521, 146.994 68.896, 143.317 67.359 C 140.414 66.146, 136.393 66.011, 120.446 66.590 C 103.296 67.214, 100.808 67.104, 98.549 65.624 C 95.166 63.408, 95.298 60.525, 99.108 53.352 C 102.102 47.716, 102.197 47.159, 101.688 38.250 L 101.160 29 112.080 29 C 121.345 29, 123 28.762, 123 27.427 C 123 26.071, 121.354 25.887, 111.053 26.094 C 102.101 26.273, 98.691 25.989, 97.449 24.958 C 96.029 23.780, 95.342 23.843, 92.646 25.404 C 86.661 28.870, 33.532 32.309, 27.750 29.604 C 26.414 28.980, 26 29.230, 26 30.666 C 26 31.798, 27.432 33.316, 29.602 34.485 C 33.825 36.759, 40.406 43.937, 43.103 49.210 C 45.578 54.050, 45.505 59.640, 42.909 64 C 41.763 65.925, 36.393 71.775, 30.975 77 C 20.382 87.216, 17.060 92.587, 17.022 99.554 C 16.997 104.242, 21.443 114, 23.605 114 C 28.007 114, 60.881 100.695, 72.346 94.274 C 75.561 92.473, 78.290 91, 78.410 91 C 79.227 91, 77.485 104.027, 76.378 106.198 C 72.473 113.855, 58.041 119.968, 34.643 123.873 C 27.164 125.121, 24.500 125.951, 24.500 127.033 C 24.500 128.132, 26.049 128.574, 30.680 128.796 L 36.860 129.092 35.560 132.296 C 32.369 140.161, 37.936 145.500, 59.330 155.094 C 71.868 160.717, 78.554 165.459, 77.555 168.022 C 76.438 170.884, 72.913 172.065, 56.714 175.001 C 32.339 179.418, 25.700 181.846, 29.463 184.969 C 32.399 187.406, 57.156 186.128, 79.337 182.395 C 86.455 181.197, 88.596 180.420, 90.337 178.402 C 95.184 172.785, 104.389 173.296, 131.500 180.690 C 154.363 186.926, 161 186.846, 161 180.338 C 161 175.800, 150.531 158.621, 147.103 157.533 C 144.239 156.624, 139 151.193, 139 149.133 C 139 145.300, 145.392 140.683, 161.500 132.882 C 177.384 125.189, 182.437 121.890, 181.749 119.661 C 181.064 117.440, 174.364 115.027, 166.561 114.191 C 159.052 113.387, 158.481 113.474, 153.474 116.185 C 137.906 124.617, 112.569 125.227, 100.769 117.454 C 98.716 116.102, 96.753 113.863, 96.405 112.479 C 95.607 109.300, 97.563 104.489, 100.635 102.072 C 101.936 101.049, 103 100.036, 103 99.820 C 103 99.605, 100.626 99.429, 97.724 99.429 C 94.311 99.429, 91.045 98.692, 88.474 97.342 C 84.586 95.300, 84.507 95.151, 84.821 90.429 C 84.997 87.775, 85.513 84.905, 85.967 84.052 C 87.506 81.156, 88.331 50.913, 87.040 44.695 C 85.902 39.210, 85.969 38.729, 88.465 34.470 C 90.740 30.587, 91.525 30, 94.435 30 C 98.568 30, 99 30.996, 99 40.525 C 99 46.216, 98.522 48.696, 96.891 51.461 C 94.101 56.188, 92.929 61.682, 94.069 64.681 C 95.901 69.501, 100.383 70.279, 121.701 69.480 C 138.698 68.842, 141.277 68.952, 143.490 70.402 C 146.855 72.606, 146.714 75.896, 142.958 82.860 C 137.947 92.151, 136.951 93.008, 132.398 91.952 C 127.079 90.718, 115.301 90.768, 112.934 92.035 C 106.610 95.420, 117.966 104.490, 134.141 108.972 C 144.546 111.855, 153.261 111.671, 159.766 108.429 C 165.951 105.347, 168.473 101.638, 170.319 92.912 C 171.065 89.385, 172.650 84.601, 173.842 82.280 C 177.333 75.485, 179.023 67.666, 177.889 63.560 C 176.167 57.324, 170.371 55.815, 153.164 57.125 C 133.294 58.637, 128.157 56.687, 127.254 47.289 C 126.674 41.260, 127.482 40.568, 136.077 39.726 C 153.492 38.021, 172 29.810, 172 23.788 C 172 21.809, 168.296 19.939, 164.685 20.094 C 163.483 20.146, 159.410 20.802, 155.633 21.553 M 65 32.063 C 54.275 33.052, 42.929 33.893, 39.787 33.931 L 34.075 34 38.696 38.750 C 43.861 44.059, 47.987 51.957, 47.968 56.500 C 47.945 62.329, 44.233 68.041, 34.389 77.397 C 29.122 82.404, 23.730 88.340, 22.406 90.588 C 19.502 95.521, 19.245 101.985, 21.754 107 C 23.232 109.954, 23.956 110.452, 26.400 110.189 C 30.784 109.718, 55.791 99.709, 67.112 93.894 L 77.133 88.746 76.500 84.623 C 74.885 74.093, 74.851 74.001, 72.639 73.985 C 68.078 73.952, 67.760 72.989, 68.141 60.374 C 68.468 49.564, 68.769 47.962, 71.500 42.500 C 75.034 35.432, 78.748 32.737, 82.085 34.821 C 84.431 36.286, 84.292 36.341, 85.865 33.316 C 87.313 30.529, 87.293 29.969, 85.750 30.132 C 85.063 30.204, 75.725 31.073, 65 32.063 M 76.055 39.658 C 72.210 44.546, 69.272 58.662, 70.457 66.560 C 71.049 70.511, 71.432 71.079, 73.320 70.810 C 75.224 70.539, 75.594 69.647, 76.243 63.771 C 76.652 60.071, 78.281 53.015, 79.864 48.093 C 81.911 41.729, 82.433 38.833, 81.671 38.071 C 79.948 36.348, 78.289 36.817, 76.055 39.658 M 81.614 51.278 C 80.039 57.153, 78.018 68.042, 78.006 70.724 C 78.003 71.398, 79.294 72.618, 80.875 73.436 L 83.751 74.923 84.364 71.211 C 85.291 65.609, 85.121 46.193, 84.141 45.587 C 83.668 45.295, 82.531 47.856, 81.614 51.278 M 78.470 79.659 C 78.869 82.321, 79.416 84.859, 79.686 85.299 C 80.570 86.735, 82.772 84.004, 83.227 80.908 C 83.602 78.352, 83.210 77.643, 80.708 76.349 L 77.745 74.817 78.470 79.659 M 83 99.533 C 83 104.078, 92.876 119.591, 102.108 129.547 C 110.151 138.222, 111.425 140.338, 110.096 142.821 C 108.628 145.565, 102.955 147.734, 85.087 152.387 C 71.049 156.043, 69.174 156.758, 71.206 157.684 C 72.497 158.272, 75.005 159.974, 76.777 161.466 C 83.844 167.412, 79.344 173.954, 66.788 175.986 C 56.148 177.708, 41.101 180.795, 36.500 182.201 C 32.507 183.421, 32.505 183.424, 35.498 183.802 C 39.448 184.301, 61.782 182.326, 75 180.309 C 83.812 178.964, 86.025 178.250, 88.768 175.868 C 90.566 174.306, 93.200 172.737, 94.622 172.380 C 100.216 170.976, 113.700 172.915, 130.500 177.538 C 139.850 180.111, 149.750 182.281, 152.500 182.358 C 157.136 182.490, 157.520 182.318, 157.780 180 C 158.096 177.176, 151.933 166.075, 148 162.386 C 146.625 161.096, 143.312 158.015, 140.637 155.539 C 136.435 151.649, 135.860 150.661, 136.411 148.269 C 137.383 144.042, 144.955 137.717, 154.708 132.985 C 174.124 123.566, 177.535 121.842, 178.357 121.031 C 179.760 119.648, 175.941 118.237, 167.685 117.089 C 160.095 116.033, 159.797 116.074, 154.160 118.919 C 143.927 124.085, 137.703 125.441, 124.500 125.380 C 108.177 125.304, 98.804 122.017, 94.595 114.891 C 92.613 111.536, 92.592 109.307, 94.506 105.636 C 96.415 101.975, 96.421 102, 93.711 102 C 92.453 102, 89.658 101.100, 87.500 100 C 82.801 97.604, 83 97.625, 83 99.533 M 81.582 107.041 C 81.299 107.843, 79.933 113.450, 78.546 119.500 C 77.160 125.550, 74.714 135.450, 73.111 141.500 C 71.508 147.550, 70.322 152.632, 70.475 152.794 C 71.030 153.377, 99.604 145.814, 103.750 143.986 C 106.088 142.956, 108 141.598, 108 140.970 C 108 140.341, 105.382 137.053, 102.183 133.663 C 93.906 124.892, 89.732 119.432, 85.658 112.041 C 83.438 108.012, 81.904 106.131, 81.582 107.041 M 75.605 111.884 C 71.639 116.267, 58.712 121.663, 44 125.078 C 38.585 126.335, 37.433 126.844, 39.854 126.909 L 43.207 127 40.104 130.535 C 36.253 134.920, 36.210 136.943, 39.883 140.875 C 42.637 143.823, 65.505 155.828, 66.490 154.843 C 67.212 154.121, 78.130 110.797, 77.699 110.365 C 77.491 110.158, 76.549 110.841, 75.605 111.884" stroke="none" fill="black" fill-rule="evenodd"/>
</svg>