<svg xmlns="http://www.w3.org/2000/svg" width="200" height="200" viewBox="0 0 200 200" version="1.1">
	<path d="M 29.993 14.508 C 28.984 15.724, 29.057 17.143, 30.371 21.824 C 33.268 32.152, 32.022 41.123, 26.038 53 C 23.018 58.994, 20.513 73.968, 19.428 92.500 C 18.161 114.160, 24.540 130.854, 36.134 136.220 C 41.759 138.823, 44.006 139.282, 43.950 137.817 C 43.922 137.093, 41.179 135.210, 37.854 133.634 C 33.189 131.422, 31.136 129.709, 28.864 126.134 C 23.776 118.126, 22.495 112.123, 22.542 96.500 C 22.600 77.431, 25.084 61.808, 29.653 51.773 C 35.490 38.954, 36.145 31.021, 32.423 18.250 C 31.863 16.332, 32.144 16, 34.328 16 C 35.737 16, 40.261 17.537, 44.383 19.415 C 51.292 22.563, 51.952 23.130, 52.840 26.665 C 53.370 28.774, 54.043 35.587, 54.335 41.804 C 54.743 50.483, 55.315 53.869, 56.797 56.381 C 58.366 59.039, 58.498 59.966, 57.503 61.326 C 56.087 63.263, 54.337 63.510, 53.783 61.850 C 53.155 59.965, 47.694 62.293, 47.435 64.557 C 47.313 65.626, 46.223 70.100, 45.012 74.500 C 43.410 80.320, 42.664 86.488, 42.273 97.138 C 41.691 112.990, 42.209 118.066, 44.658 120.515 C 46.098 121.955, 46.401 121.947, 48.076 120.431 C 50.410 118.319, 53.305 109.551, 56.350 95.371 C 58.242 86.559, 58.564 83.130, 57.894 78.895 C 57.429 75.953, 57.320 71.849, 57.652 69.773 L 58.256 66 71.641 66 L 85.027 66 83.412 69.750 C 72.213 95.748, 68.685 125.256, 73.855 149.681 C 75.040 155.280, 76.307 160.636, 76.670 161.583 C 77.192 162.942, 76.646 162.799, 74.078 160.902 C 71.304 158.853, 69.698 158.502, 63.163 158.516 C 56.944 158.529, 54.399 159.045, 49.659 161.252 C 44.300 163.748, 35.648 169.356, 27.106 175.869 L 23.712 178.457 25.493 174.978 C 26.472 173.065, 29.237 168.081, 31.637 163.902 C 36.030 156.251, 36.805 154, 35.043 154 C 33.942 154, 22.255 174.332, 21.349 177.823 C 20.261 182.018, 22.383 182.280, 27.587 178.595 C 47.938 164.181, 54.198 161.062, 62.849 161.024 C 69.161 160.996, 74.349 163.201, 77.272 167.154 C 79.273 169.861, 82 170.998, 82 169.126 C 82 168.645, 81.293 166.282, 80.428 163.876 C 74.868 148.400, 72.771 125.195, 75.389 108.142 C 77.547 94.088, 84.495 71.048, 87.051 69.468 C 88.020 68.870, 93.150 75.492, 95.988 81.007 C 98.994 86.848, 101.930 96.864, 102.625 103.646 L 103.282 110.058 100.576 109.029 C 99.088 108.463, 95.701 108, 93.050 108 C 88.136 108, 78 110.714, 78 112.030 C 78 112.429, 80.813 113.816, 84.250 115.112 C 90.072 117.306, 97.978 117.984, 104.438 116.842 C 105.826 116.597, 107.011 117.616, 108.612 120.433 C 111.760 125.968, 113.731 134.561, 117 157 C 118.563 167.725, 120.665 178.975, 121.671 182 C 123.305 186.914, 123.766 187.463, 126 187.157 C 130.456 186.547, 136.141 182.618, 138.511 178.511 C 142.274 171.990, 143.033 167.540, 143.941 146.696 C 144.765 127.775, 144.930 126.638, 147.652 121.206 C 151.275 113.974, 155.457 111.246, 160.256 112.982 C 162.040 113.628, 169.073 114.414, 175.884 114.729 C 186.236 115.209, 188.191 115.073, 187.802 113.901 C 187.014 111.527, 175.267 108.826, 164.750 108.600 C 156.693 108.427, 154.523 108.035, 152.250 106.341 C 146.727 102.224, 143.024 92.035, 143.039 81 L 143.046 75.500 147.500 80.167 C 151.684 84.552, 151.888 85.022, 150.873 87.935 C 149.003 93.300, 151.468 97.909, 155.401 96.399 C 157.561 95.571, 158.042 92.036, 156.498 88.340 C 155.104 85.004, 155.113 84.983, 160.103 79.992 C 162.854 77.241, 168.436 72.742, 172.508 69.995 L 179.910 65 189.955 65 C 198.620 65, 200 64.773, 200 63.351 C 200 61.841, 197.600 61.763, 171.500 62.422 L 143 63.141 143 53.262 L 143 43.383 152.250 42.369 C 167.718 40.675, 173.554 36.131, 171.040 27.740 C 168.969 20.828, 159.163 12.091, 157.833 15.973 C 157.470 17.033, 97.982 15.748, 66.500 14 C 40.358 12.549, 31.517 12.672, 29.993 14.508 M 51.438 18.113 C 55.733 21.602, 97.081 41.906, 98.659 41.301 C 101.342 40.271, 99.905 39, 96.059 39 C 92.018 39, 90.033 37.567, 91.728 35.872 C 92.253 35.347, 99.166 34.090, 107.091 33.079 C 119.868 31.447, 123.252 30.574, 136.971 25.369 L 152.442 19.500 140.471 19.289 C 123.023 18.983, 69.060 17.052, 58 16.339 L 48.500 15.727 51.438 18.113 M 145.500 25.121 C 135.852 28.753, 133.660 29.864, 137 29.432 C 149.135 27.861, 162.528 22.628, 159.315 20.713 C 158.867 20.445, 152.650 22.429, 145.500 25.121 M 162 21.845 C 162 26.843, 152.988 30.009, 129.003 33.433 C 123.776 34.180, 117.380 35.714, 114.788 36.843 L 110.077 38.896 113.371 46.010 C 116.395 52.537, 117.278 53.530, 124.083 58.059 C 130.055 62.033, 132.328 62.995, 135.750 62.997 L 140 63 140 51.636 L 140 40.273 149.250 39.761 C 167.215 38.766, 172.556 33.885, 166.277 24.200 C 163.336 19.665, 162 18.929, 162 21.845 M 56.729 37.250 C 57.399 52.448, 58.558 56.605, 62.023 56.238 C 69.119 55.486, 72.941 55.871, 77.216 57.766 C 81.049 59.466, 82.594 59.675, 85.466 58.882 C 88.983 57.911, 89.906 56.678, 88 55.500 C 85.834 54.161, 87.071 50.145, 90.605 47.042 C 92.588 45.301, 94.050 43.730, 93.855 43.551 C 93.301 43.042, 57.073 25, 56.605 25 C 56.376 25, 56.432 30.512, 56.729 37.250 M 103.762 36.707 C 105.006 36.946, 106.806 36.937, 107.762 36.687 C 108.718 36.437, 107.700 36.241, 105.500 36.252 C 103.300 36.263, 102.518 36.468, 103.762 36.707 M 102.518 42.363 C 100.469 43.862, 99.888 43.267, 108.587 48.580 C 112.142 50.751, 112.499 49.899, 110.049 45.097 C 107.836 40.759, 105.748 40.001, 102.518 42.363 M 93.470 48.161 C 88.400 52.612, 88.912 54.264, 96.808 58.955 C 102.803 62.517, 104.359 63, 109.827 63 L 116.038 63 115.381 60.250 C 114.212 55.361, 113.191 54.321, 105.001 49.681 L 96.940 45.114 93.470 48.161 M 64.554 58.902 C 62.751 59.608, 62.788 59.712, 65.054 60.318 C 66.399 60.678, 69.750 60.945, 72.500 60.910 L 77.500 60.848 74 59.500 C 70.025 57.969, 67.368 57.801, 64.554 58.902 M 118.180 60.250 C 118.442 62.093, 119.224 62.554, 122.500 62.800 L 126.500 63.099 122.803 60.550 C 118.276 57.428, 117.775 57.395, 118.180 60.250 M 90.574 60.668 C 89.728 62.873, 90.261 63.194, 94.154 62.818 L 97.500 62.495 94.347 60.772 C 91.465 59.197, 91.142 59.188, 90.574 60.668 M 85.500 62 C 85.160 62.550, 85.359 63, 85.941 63 C 86.523 63, 87 62.550, 87 62 C 87 61.450, 86.802 61, 86.559 61 C 86.316 61, 85.840 61.450, 85.500 62 M 60.813 62.683 C 61.534 62.972, 62.397 62.936, 62.729 62.604 C 63.061 62.272, 62.471 62.036, 61.417 62.079 C 60.252 62.127, 60.015 62.364, 60.813 62.683 M 49.467 68.424 C 46.874 74.630, 44.899 89.276, 44.828 102.829 C 44.730 121.667, 46.714 122.786, 50.931 106.271 C 54.422 92.597, 55.583 83.916, 55.212 74.250 C 54.889 65.817, 54.683 65, 52.878 65 C 51.569 65, 50.413 66.160, 49.467 68.424 M 143.250 65.662 C 140.574 66.742, 142.252 70.692, 147.918 76.653 L 153.767 82.805 158.633 77.857 C 161.310 75.136, 165.863 71.280, 168.750 69.289 C 171.637 67.297, 174 65.517, 174 65.334 C 174 64.795, 144.622 65.109, 143.250 65.662 M 92.855 71.250 C 95.011 74.138, 97.675 78.300, 98.775 80.500 C 101.319 85.589, 105 97.477, 105 100.605 C 105 104.223, 106.466 103.508, 109.832 98.250 C 113.957 91.805, 115.111 88.432, 115.156 82.691 C 115.198 77.171, 112.565 72.606, 106.948 68.461 C 104.117 66.373, 102.500 66, 96.273 66 L 88.935 66 92.855 71.250 M 112.167 69.750 C 114.132 71.813, 116.280 74.400, 116.939 75.500 C 118.053 77.358, 118.098 77.323, 117.582 75 C 117.277 73.625, 117.021 71.037, 117.014 69.250 C 117 66.101, 116.869 66, 112.797 66 L 108.594 66 112.167 69.750 M 120.212 73.250 C 121.950 88.432, 118.595 104.207, 112.210 110.874 L 108.500 114.747 111.240 120.124 C 114.936 127.375, 116.466 133.954, 119.930 157.501 C 121.548 168.500, 123.463 179.166, 124.186 181.203 L 125.500 184.905 129.595 183.071 C 133.850 181.165, 137.303 176.717, 139.132 170.785 C 139.690 168.978, 140.543 158.725, 141.029 148 C 142.060 125.228, 143.342 119.658, 148.805 114.195 L 152.500 110.500 148.865 106.865 C 143.867 101.867, 141.067 93.829, 140.310 82.308 L 139.690 72.880 135.492 69.440 C 131.752 66.375, 130.645 66, 125.338 66 L 119.382 66 120.212 73.250 M 136 66.465 C 136 66.720, 136.900 67.411, 138 68 C 139.596 68.854, 140 68.760, 140 67.535 C 140 66.667, 139.131 66, 138 66 C 136.900 66, 136 66.209, 136 66.465 M 153 91.441 C 153 92.848, 153.450 94, 154 94 C 154.550 94, 155 93.127, 155 92.059 C 155 90.991, 154.550 89.840, 154 89.500 C 153.433 89.149, 153 89.990, 153 91.441 M 115.596 93.730 C 115.201 94.956, 112.438 99.361, 109.455 103.518 C 104.923 109.835, 104.306 111.180, 105.695 111.713 C 108.137 112.650, 113.385 106.085, 115.456 99.502 C 116.402 96.492, 116.982 93.461, 116.745 92.765 C 116.495 92.032, 116.012 92.437, 115.596 93.730 M 91.500 110.739 C 90.400 110.925, 88.375 111.353, 87 111.688 C 84.669 112.257, 84.771 112.385, 88.500 113.573 C 90.700 114.273, 94.300 114.874, 96.500 114.908 C 100.641 114.972, 103.931 113.693, 102.270 112.667 C 100.620 111.647, 93.577 110.386, 91.500 110.739 M 167.750 111.662 C 168.438 111.940, 169.563 111.940, 170.250 111.662 C 170.938 111.385, 170.375 111.158, 169 111.158 C 167.625 111.158, 167.063 111.385, 167.750 111.662" stroke="none" fill="black" fill-rule="evenodd"/>
</svg>