<svg xmlns="http://www.w3.org/2000/svg" width="200" height="200" viewBox="0 0 200 200" version="1.1">
	<path d="M 69.500 20.098 C 42.507 22.906, 27.710 31.514, 18.957 49.500 C 16.816 53.900, 14.364 61.021, 13.508 65.324 C 11.475 75.549, 11.454 100.093, 13.466 114.424 C 14.310 120.432, 15.003 128.082, 15.006 131.424 C 15.013 139.672, 16.526 144.513, 20.428 148.770 C 23.375 151.986, 24.340 152.397, 29.885 152.798 C 35.317 153.191, 36.844 152.859, 42.567 150.042 C 54.829 144.005, 65.084 130.339, 68.572 115.387 C 70.451 107.331, 70.681 92.623, 69.039 85.518 C 68.150 81.671, 68.181 78.482, 69.174 71.518 L 70.460 62.500 71.152 68 C 71.533 71.025, 71.582 99.119, 71.261 130.432 L 70.677 187.364 78.588 179.386 C 91.295 166.573, 101.198 161.631, 120.345 158.550 C 140.057 155.378, 143.544 152.135, 147.054 133.717 C 148.118 128.134, 149.508 121.992, 150.143 120.068 C 151.216 116.816, 151.354 116.725, 152.112 118.773 C 154.907 126.330, 153.842 154.750, 150.125 171.750 L 148.322 180 151.911 179.990 C 156.837 179.977, 164.990 175.985, 168.451 171.893 C 178.822 159.628, 181.247 137.761, 178.065 85.214 C 176.524 59.758, 177.044 39.653, 179.412 33.124 C 181.332 27.835, 181.324 28, 179.634 28 C 178.836 28, 177.110 31.224, 175.484 35.750 C 158.086 84.183, 140.402 115.270, 126.390 122.053 C 122.677 123.851, 121.402 124.049, 119.404 123.138 C 113.994 120.673, 114.514 112.337, 120.262 109.364 C 122.094 108.417, 125.638 107.822, 129.154 107.872 C 132.471 107.918, 135 107.518, 135 106.946 C 135 105.807, 134 105.410, 129 104.563 C 127.075 104.237, 124.825 103.517, 124 102.962 C 121.787 101.473, 126.576 97.876, 135.385 94.410 C 139.298 92.870, 142.664 91.497, 142.864 91.358 C 144.335 90.337, 133.850 78.528, 128.027 74.648 C 124.951 72.597, 126.889 72.533, 133.282 74.473 C 140.668 76.714, 150.047 78.205, 152.649 77.552 C 154.126 77.181, 155 76.226, 155 74.984 C 155 72.194, 148.234 64.996, 145.634 65.020 C 144.460 65.031, 139.450 66.077, 134.500 67.344 L 125.500 69.648 118.022 67.612 L 110.543 65.575 114.909 64.312 C 117.309 63.616, 127.139 61.225, 136.751 58.998 C 146.364 56.770, 155.130 54.466, 156.231 53.876 C 157.963 52.949, 158.041 52.613, 156.810 51.381 C 155.775 50.347, 151.304 49.772, 140.443 49.277 C 128.620 48.739, 126.510 48.445, 130.335 47.869 C 137.103 46.851, 149.629 40.746, 150.485 38.048 C 151.768 34.006, 147.268 30.980, 135.692 28.099 L 128.500 26.308 135.500 25.158 C 139.350 24.525, 146.100 23.430, 150.500 22.725 C 154.981 22.006, 158.280 21.015, 158 20.471 C 157.327 19.163, 152.540 19.413, 140 21.408 C 117.016 25.066, 86.740 24.566, 80.285 20.422 C 79.067 19.640, 77.942 19.060, 77.785 19.133 C 77.628 19.206, 73.900 19.641, 69.500 20.098 M 67.054 23.122 C 37.651 26.529, 21.937 39.500, 16.320 65 C 14.119 74.992, 14.145 101.509, 16.370 116.424 C 17.267 122.432, 18 130.053, 18 133.358 C 18 145.729, 24.506 152.240, 34.606 149.976 C 48.534 146.855, 60.434 133.998, 65.591 116.500 C 67.717 109.285, 68.038 91.939, 66.183 84.500 C 65.114 80.213, 65.214 77.879, 66.883 68.135 C 68.915 56.271, 70.057 53.657, 72.250 55.850 C 73.217 56.816, 73.562 70.917, 73.773 118.034 L 74.045 178.970 81.773 172.486 C 93.920 162.294, 103.561 158.338, 124.398 154.996 C 132.949 153.625, 137.951 151.131, 140.332 147.051 C 141.340 145.325, 143.244 138.499, 144.564 131.882 C 145.883 125.265, 147.537 118.652, 148.239 117.188 C 149.867 113.790, 152.533 113.259, 154.019 116.036 C 157.278 122.126, 156.974 152.487, 153.487 169.061 C 152.669 172.950, 152 176.326, 152 176.565 C 152 177.780, 156.972 176.700, 160.453 174.728 C 169.657 169.515, 174.366 158.545, 176.219 138 C 177.129 127.900, 177.022 119.356, 175.657 93.500 C 174.728 75.900, 173.956 58.575, 173.940 55 L 173.912 48.500 169.507 59.329 C 152.270 101.703, 134.602 126.200, 121.276 126.200 C 113.166 126.200, 110.112 116.359, 116.104 109.535 C 117.811 107.591, 119.851 106, 120.639 106 C 121.776 106, 121.843 105.575, 120.964 103.933 C 119.182 100.603, 122.103 97.490, 131.009 93.232 L 139.010 89.407 136.032 85.359 C 126.775 72.771, 113.900 71.895, 104.705 83.226 C 101.252 87.481, 96 96.986, 96 98.981 C 96 99.557, 98.096 102.602, 100.658 105.747 C 107.708 114.403, 110.296 120.941, 110.258 130 C 110.241 134.125, 109.571 139.300, 108.769 141.500 C 107.572 144.785, 106.787 145.553, 104.374 145.797 C 100.077 146.232, 94.936 142.368, 92 136.499 C 89.833 132.166, 89.500 130.167, 89.500 121.500 C 89.500 116, 90.125 108.953, 90.888 105.841 C 92.198 100.499, 92.156 99.989, 90.138 96.723 C 86.171 90.304, 87.944 85.100, 95.650 80.547 L 98.744 78.720 96.028 74.610 C 92.247 68.886, 91.839 67.304, 93.670 65.473 C 94.790 64.353, 96.902 63.938, 100.877 64.058 C 104.592 64.170, 110.062 63.199, 117 61.197 C 122.775 59.530, 132.900 56.892, 139.500 55.333 L 151.500 52.500 126.101 52.233 C 112.131 52.085, 100.512 52.154, 100.281 52.386 C 100.050 52.617, 100.828 54.703, 102.011 57.022 C 103.532 60.003, 103.850 61.550, 103.098 62.302 C 102.512 62.888, 101.910 63.172, 101.760 62.933 C 101.610 62.695, 99.812 59.024, 97.765 54.776 C 89.322 37.257, 79 31.809, 67.759 38.938 C 59.563 44.135, 49.606 59.107, 44.029 74.616 L 41.830 80.731 44.553 86.116 C 47.872 92.676, 53.975 101.862, 59.273 108.268 C 63.872 113.828, 63.634 114.508, 55.721 118.452 C 46.576 123.009, 40.967 121.680, 36.939 114 C 35.093 110.481, 35.303 97.006, 37.346 87.946 C 38.892 81.089, 38.909 79.992, 37.525 76.070 C 35.366 69.952, 35.558 57.570, 37.890 52.435 C 43.241 40.653, 57.928 31.493, 77.074 27.996 C 86.767 26.225, 86.988 26.022, 81.500 23.918 C 78.750 22.864, 76.050 22.060, 75.500 22.131 C 74.950 22.201, 71.149 22.648, 67.054 23.122 M 83.500 29.591 C 50.955 34.646, 34.677 49.677, 39.032 70.654 L 40.224 76.398 42.493 70.822 C 50.946 50.045, 63.161 35.374, 73.644 33.407 C 81.447 31.943, 89.630 36.373, 95.419 45.196 L 98.500 49.891 105.500 49.829 C 109.350 49.794, 115.425 49.474, 119 49.116 C 125.034 48.513, 125.249 48.411, 122 47.697 C 120.075 47.274, 115.575 44.691, 112 41.957 C 107.914 38.833, 102.994 36.174, 98.750 34.797 C 95.037 33.592, 92 32.069, 92 31.411 C 92 30.754, 94.138 29.771, 96.750 29.226 L 101.500 28.236 97 28.215 C 94.525 28.203, 88.450 28.823, 83.500 29.591 M 108 29.917 L 99.500 31.646 104 33.706 C 106.475 34.839, 110.958 37.629, 113.962 39.907 C 121.680 45.757, 125.263 46.647, 132.559 44.526 C 139.561 42.490, 148 38.360, 148 36.968 C 148 35.056, 141.863 32.260, 134.209 30.686 C 122.143 28.204, 117.141 28.058, 108 29.917 M 95 67.941 C 95 69.643, 96.490 69.846, 98.452 68.411 C 100.290 67.068, 100.253 67, 97.691 67 C 96.211 67, 95 67.423, 95 67.941 M 100.681 70.266 L 97.862 72.522 100.240 74.756 L 102.619 76.990 111.059 74.108 C 115.847 72.473, 118.851 70.984, 118 70.667 C 109.482 67.498, 104.290 67.378, 100.681 70.266 M 137.250 69.262 C 134.912 69.824, 133 70.588, 133 70.959 C 133 71.761, 146.514 75.031, 149.750 75.013 C 152.724 74.996, 152.588 73.937, 149.195 70.687 C 146.210 67.827, 144.209 67.589, 137.250 69.262 M 98.500 82.163 C 96.300 83.304, 93.713 84.929, 92.750 85.774 C 90.726 87.550, 90.456 92.156, 92.211 94.966 C 93.320 96.743, 93.679 96.427, 96.495 91.202 C 98.185 88.066, 100.392 84.263, 101.399 82.750 C 103.561 79.503, 103.610 79.513, 98.500 82.163 M 38.990 94.062 C 36.404 110.691, 40.326 120.399, 48.807 118.363 C 52.339 117.515, 59 114.159, 58.998 113.230 C 58.997 112.828, 56.296 108.900, 52.996 104.500 C 49.695 100.100, 45.759 94.139, 44.247 91.252 C 42.736 88.366, 41.218 86.004, 40.872 86.002 C 40.527 86.001, 39.680 89.628, 38.990 94.062 M 93.175 108.484 C 91.701 115.820, 91.670 127.271, 93.109 132.453 C 94.507 137.489, 100.119 143.266, 103.183 142.823 C 104.863 142.581, 105.758 141.379, 106.775 138 C 109.680 128.346, 106.397 116.504, 98.200 107.067 L 94.350 102.634 93.175 108.484" stroke="none" fill="black" fill-rule="evenodd"/>
</svg>