<svg xmlns="http://www.w3.org/2000/svg" width="200" height="200" viewBox="0 0 200 200" version="1.1">
	<path d="M 138.070 23.509 C 134.349 31.068, 130.815 33.556, 125.114 32.631 C 121.792 32.092, 111.247 28.210, 101.261 23.851 C 93.436 20.434, 85.716 21.798, 78.873 27.807 C 76.958 29.488, 74.066 31.177, 72.446 31.560 C 70.826 31.943, 67.376 33.148, 64.779 34.239 L 60.058 36.221 55.588 32.287 C 48.605 26.139, 39.578 24.417, 29.788 27.363 C 13.583 32.240, 4.175 49.083, 6.780 68.552 C 7.376 73.004, 9.086 79.988, 10.581 84.073 C 13.201 91.230, 13.303 92.265, 13.400 112.500 C 13.511 135.808, 14.306 139.555, 20.187 144.504 C 25.887 149.300, 33.452 147.581, 49.740 137.788 L 59.980 131.632 60.740 126.566 C 61.278 122.978, 61.679 128.212, 62.114 144.500 C 62.581 162, 63.132 168.769, 64.419 172.805 C 66.308 178.731, 69.002 182, 71.997 182 C 74.452 182, 81.585 175.703, 83.647 171.715 L 85.165 168.780 92.832 169.474 C 97.050 169.855, 108.510 171.705, 118.300 173.584 C 136.900 177.154, 147.019 177.781, 156.201 175.934 C 165.304 174.103, 178 169.709, 178 168.389 C 178 164.366, 174.440 151.413, 171.371 144.265 C 166.873 133.793, 166.395 130.096, 168.496 122.002 C 170.764 113.266, 173.470 106.865, 184.246 84.742 C 190.043 72.840, 193.034 65.634, 192.429 65.029 C 191.824 64.424, 187.207 67.316, 179.798 72.941 C 173.376 77.817, 167.665 82.089, 167.108 82.433 C 166.551 82.777, 167.641 80.763, 169.530 77.956 C 178.678 64.362, 175.804 57.218, 160.500 55.507 C 149.910 54.323, 149.061 53.468, 153.369 48.327 C 162.036 37.985, 163.152 32.521, 157.837 26.467 C 155.060 23.304, 144.624 17, 142.166 17 C 141.676 17, 139.833 19.929, 138.070 23.509 M 141.112 23.566 C 139.250 28.716, 134.387 33.804, 130.098 35.089 C 126.903 36.046, 125.372 35.851, 119.178 33.697 L 111.974 31.191 115.857 35.846 C 117.993 38.406, 121.881 43.818, 124.498 47.872 L 129.255 55.245 128.592 63.412 C 127.319 79.108, 124.109 87, 118.997 87 C 116.544 87, 115.686 86.304, 113.955 82.911 C 111.349 77.803, 110.422 67.405, 111.879 59.621 C 112.832 54.531, 112.734 53.190, 111.148 49.621 C 110.141 47.355, 108.143 44.112, 106.709 42.416 C 103.306 38.390, 95.444 34.156, 94.018 35.582 C 93.444 36.156, 92.318 39.748, 91.518 43.563 C 90.358 49.086, 90.303 51.172, 91.249 53.797 C 92.230 56.524, 92.139 57.932, 90.718 61.931 C 88.288 68.773, 88.423 77.168, 91 79.500 C 92.100 80.495, 93 81.878, 93 82.572 C 93 83.266, 93.542 84.014, 94.203 84.234 C 95.133 84.544, 95.107 85.884, 94.092 90.118 C 92.099 98.424, 92.395 98.886, 101.500 101.705 C 109.721 104.251, 110.310 104.330, 118.048 103.926 C 121.034 103.771, 123.515 104.292, 125.273 105.443 C 128.798 107.753, 132.690 115.984, 133.898 123.684 C 135.457 133.627, 132.334 150.763, 127.945 156.342 C 121.258 164.844, 111 151.949, 111 135.042 C 111 126.250, 113.853 120.532, 119.812 117.381 L 124.019 115.156 117.991 111.494 L 111.962 107.832 107.614 110.380 C 103.421 112.838, 93.808 122.462, 92.161 125.852 C 91.720 126.758, 91.902 133.800, 92.564 141.500 C 93.461 151.926, 93.479 155.688, 92.634 156.235 C 90.439 157.657, 85.241 156.977, 82.635 154.927 C 80.379 153.153, 80 152.090, 80 147.543 C 80 143.306, 80.846 140.541, 84.186 133.868 C 87.343 127.560, 88.313 124.521, 88.130 121.502 C 87.997 119.301, 87.518 108.725, 87.065 98 C 86.292 79.685, 85.685 74.920, 84.143 75.057 C 83.789 75.088, 81.802 77.343, 79.726 80.068 C 71.741 90.550, 63.949 93.529, 59.649 87.744 C 57.965 85.478, 57.605 83.519, 57.629 76.744 C 57.645 72.210, 58.267 64.498, 59.012 59.607 C 60.357 50.762, 60.352 50.704, 58.056 48.844 C 53.471 45.132, 51.228 45.360, 46.478 50.021 C 44.081 52.374, 40.703 56.956, 38.973 60.203 L 35.826 66.106 36.177 81.803 C 36.487 95.664, 36.786 97.986, 38.734 101.652 C 41.654 107.147, 42.387 119.248, 39.831 119.773 C 38.485 120.049, 37.856 118.607, 36.575 112.308 C 35.703 108.013, 34.091 100.220, 32.994 94.990 C 31.897 89.759, 31 83.168, 31 80.343 C 31 73.155, 35.543 52.475, 37.993 48.511 C 40.154 45.015, 45.251 42.024, 49.151 41.964 C 50.443 41.944, 52.767 40.892, 54.315 39.625 L 57.130 37.321 53.651 34.266 C 48.990 30.175, 44.059 28.700, 36.623 29.173 C 12.750 30.693, 2.587 56.250, 14.043 85.955 C 16.934 93.452, 16.951 93.620, 16.076 106.008 C 14.469 128.774, 17.327 141.977, 24.257 143.799 C 26.076 144.277, 29.252 144.263, 31.489 143.767 C 36.044 142.757, 46.520 137.312, 53.114 132.526 L 57.590 129.278 59.337 117.594 C 61.171 105.328, 62.571 100.236, 63.778 101.446 C 64.175 101.844, 64.520 115.294, 64.544 131.335 C 64.588 160.808, 65.426 170.055, 68.607 176.208 C 69.402 177.743, 70.878 179, 71.889 179 C 74.037 179, 78.221 175.077, 81.793 169.712 C 84.162 166.155, 84.565 165.955, 88.408 166.421 C 90.658 166.694, 95.403 167.194, 98.952 167.531 C 102.501 167.869, 111.908 169.462, 119.858 171.073 C 141.022 175.359, 153.298 174.945, 170.320 169.371 L 175.141 167.793 174.478 163.646 C 173.860 159.779, 171.306 151.912, 165.989 137.500 C 163.996 132.098, 163.888 130.884, 164.900 125.318 C 166.321 117.506, 172.815 101.314, 181.371 84.250 C 185.025 76.963, 187.755 71, 187.439 71 C 186.847 71, 159.927 91.392, 149.823 99.494 C 140.084 107.303, 142.557 102.829, 154.846 90.404 C 174.989 70.039, 177.326 60.100, 162.332 58.569 C 159.125 58.241, 154.700 57.417, 152.500 56.737 C 146.621 54.919, 146.708 52.363, 152.923 44.313 C 160.960 33.902, 159.676 28.416, 147.791 22.394 C 145.192 21.077, 142.917 20, 142.734 20 C 142.551 20, 141.821 21.605, 141.112 23.566 M 85.500 26.569 C 80.496 29.164, 80.652 29.684, 86.643 30.388 C 92.123 31.032, 92.542 30.920, 95.429 28.032 L 98.462 25 93.481 25.006 C 90.741 25.010, 87.150 25.713, 85.500 26.569 M 97.750 29.392 C 95.285 31.263, 95.496 31.702, 99.944 33.971 C 105.448 36.780, 110.850 42.570, 113.698 48.714 C 115.778 53.204, 115.968 54.455, 115.062 57.714 C 112.875 65.590, 114.081 78.993, 117.383 83.508 C 118.572 85.135, 119.026 85.223, 120.389 84.092 C 122.749 82.134, 124.966 73.670, 125.653 64 L 126.257 55.500 120.124 46.338 C 113.412 36.313, 105.001 27.982, 101.642 28.032 C 100.464 28.049, 98.713 28.661, 97.750 29.392 M 76.475 34.667 C 74.382 36.760, 68 49.792, 68 51.972 C 68 52.812, 69.577 54.758, 71.504 56.296 L 75.007 59.091 79.270 56.296 C 81.615 54.758, 84.401 53.016, 85.462 52.425 C 87.179 51.469, 88.956 45.068, 90.300 35 C 90.619 32.610, 78.816 32.327, 76.475 34.667 M 67.583 36.061 C 64.879 37.091, 62.311 38.289, 61.875 38.725 C 60.898 39.702, 63.235 49.257, 64.548 49.652 C 65.309 49.882, 73.244 34.909, 72.661 34.344 C 72.572 34.258, 70.288 35.031, 67.583 36.061 M 55.130 42.343 C 54.263 43.387, 54.598 43.952, 56.637 44.880 C 59.765 46.306, 60.100 46.099, 59.344 43.206 C 58.694 40.721, 56.799 40.333, 55.130 42.343 M 43.743 46.084 C 42.777 46.647, 41.034 48.996, 39.870 51.304 C 38.706 53.612, 37.958 55.275, 38.207 55 C 38.455 54.725, 40.593 52.362, 42.957 49.750 C 47.122 45.147, 47.374 43.969, 43.743 46.084 M 62.444 56.444 C 62.068 58.451, 61.985 60.318, 62.260 60.593 C 62.535 60.868, 63.068 59.451, 63.444 57.444 C 63.821 55.438, 63.904 53.571, 63.629 53.296 C 63.354 53.021, 62.821 54.438, 62.444 56.444 M 81.750 57.937 C 79.138 59.597, 77.017 61.303, 77.038 61.728 C 77.058 62.153, 78.583 64.262, 80.426 66.415 L 83.778 70.331 85.441 67.113 C 86.469 65.127, 86.990 62.178, 86.803 59.407 L 86.500 54.918 81.750 57.937 M 65.138 61.667 C 64.512 64.783, 64.150 67.483, 64.333 67.667 C 64.517 67.850, 66.429 66.470, 68.583 64.599 L 72.500 61.198 70.076 58.599 C 68.742 57.170, 67.342 56, 66.964 56 C 66.586 56, 65.764 58.550, 65.138 61.667 M 61.158 64 C 61.158 65.375, 61.385 65.938, 61.662 65.250 C 61.940 64.563, 61.940 63.438, 61.662 62.750 C 61.385 62.063, 61.158 62.625, 61.158 64 M 66.785 69.750 C 61.261 74.528, 60.126 76.038, 60.069 78.685 C 59.991 82.301, 61.596 87.132, 63.206 88.128 C 65.273 89.405, 69.872 86.829, 74.767 81.653 C 82.393 73.589, 82.550 73.003, 78.384 68.136 C 76.437 65.861, 74.526 64, 74.138 64 C 73.749 64, 70.440 66.588, 66.785 69.750 M 60.158 72 C 60.158 73.375, 60.385 73.938, 60.662 73.250 C 60.940 72.563, 60.940 71.438, 60.662 70.750 C 60.385 70.063, 60.158 70.625, 60.158 72 M 89 86.933 C 89 92.422, 90.448 94.494, 91.308 90.234 C 91.612 88.730, 92.122 86.824, 92.442 85.998 C 92.785 85.113, 92.197 83.980, 91.012 83.239 C 89.098 82.044, 89 82.224, 89 86.933 M 90.038 103.500 C 90.025 106.250, 90.298 111.504, 90.645 115.176 L 91.275 121.852 96.888 116.091 C 99.974 112.923, 103.792 109.435, 105.372 108.339 L 108.243 106.347 100.088 104.025 C 95.603 102.748, 91.512 100.982, 90.997 100.102 C 90.325 98.952, 90.054 99.912, 90.038 103.500 M 116 106.417 C 116 106.872, 127.969 115, 128.640 115 C 130.105 115, 125.424 108.754, 123.033 107.517 C 120.327 106.118, 116 105.441, 116 106.417 M 121 119.752 C 116.356 122.072, 113.800 127.417, 113.800 134.809 C 113.800 141.899, 115.293 147.655, 118.283 152.092 C 122.736 158.700, 126.013 157.056, 129.188 146.618 C 131.429 139.253, 132.213 126.082, 130.728 120.750 C 129.802 117.424, 126.365 117.072, 121 119.752 M 85.837 136.521 C 82.055 145.083, 81.495 148.581, 83.435 151.541 C 84.541 153.230, 85.967 154, 87.985 154 L 90.925 154 90.356 147.250 C 90.043 143.537, 89.493 138.260, 89.133 135.521 L 88.479 130.542 85.837 136.521" stroke="none" fill="black" fill-rule="evenodd"/>
</svg>