<svg xmlns="http://www.w3.org/2000/svg" width="200" height="200" viewBox="0 0 200 200" version="1.1">
	<path d="M 50.230 14.478 C 42.888 16.555, 39.508 18.474, 34.991 23.128 C 26.740 31.630, 24.231 47.623, 27.407 71.458 C 29.230 85.147, 29.447 93, 28 93 C 27.450 93, 27 93.675, 27 94.500 C 27 96.441, 28.446 96.411, 30.429 94.429 C 32.434 92.423, 32.427 87.469, 30.397 72.960 C 29.369 65.612, 28.935 57.174, 29.186 49.441 C 29.534 38.741, 29.891 36.744, 32.353 31.712 C 37.602 20.982, 47.623 15.988, 63.855 16.014 C 68.610 16.021, 73.547 16.308, 74.826 16.650 C 76.933 17.214, 76.667 17.539, 72.007 20.087 C 58.559 27.441, 42.513 41.203, 43.194 44.797 C 43.654 47.223, 47.842 47.410, 52.969 45.232 L 57.350 43.372 65.132 46.736 C 69.411 48.586, 76.870 50.838, 81.707 51.740 C 91.991 53.658, 91.188 53.347, 90.498 55.145 C 90.165 56.013, 87.107 57.083, 82.724 57.866 C 78.751 58.576, 71 60.649, 65.500 62.471 C 60 64.294, 53.716 66.097, 51.535 66.478 C 49.354 66.859, 46.398 67.777, 44.967 68.517 C 42.548 69.768, 42.355 70.376, 42.229 77.136 C 42.155 81.136, 42.571 84.983, 43.153 85.684 C 43.930 86.621, 43.557 87.738, 41.748 89.887 C 40.394 91.497, 38.982 94.713, 38.611 97.032 C 37.480 104.104, 36.865 104.637, 29.095 105.289 C 14.788 106.488, 14.337 109.609, 27.369 117.235 L 33.239 120.670 33.369 136.187 L 33.500 151.704 37.008 158.602 C 39.722 163.939, 41.612 166.233, 45.357 168.741 C 53.609 174.264, 58.099 175.102, 84.500 176.038 C 97.700 176.506, 111.425 177.186, 115 177.550 C 123.532 178.418, 134.771 181.332, 140.130 184.067 L 144.423 186.256 147.324 182.878 C 153.520 175.665, 163.841 161.259, 166.314 156.373 C 173.950 141.287, 171.289 133.688, 157.212 130.375 C 154.070 129.636, 146.912 129.024, 141.305 129.016 C 131.172 129, 131.101 128.983, 129.805 126.250 C 129.087 124.737, 127.047 122.825, 125.272 122 C 123.496 121.175, 122.034 120.268, 122.022 119.985 C 122.010 119.701, 124.159 118.703, 126.797 117.766 C 130.983 116.279, 138.071 112.029, 145.825 106.357 C 148.017 104.754, 148.320 104.758, 151.136 106.421 C 153.045 107.549, 155.041 107.956, 156.664 107.548 C 158.062 107.197, 162.647 107.574, 166.853 108.386 C 180.115 110.946, 183.382 111.172, 185.434 109.672 C 188.295 107.580, 186.854 105.512, 178.991 100.426 C 172.948 96.516, 169.704 95.058, 161.204 92.428 C 160.321 92.155, 161.261 90.033, 164.148 85.783 C 173.798 71.572, 177.332 56.034, 172.441 49.324 C 170.743 46.994, 164.707 43.069, 160.839 41.780 C 160.346 41.615, 160.859 38.815, 161.980 35.557 C 164.139 29.282, 163.895 26, 161.271 26 C 160.393 26, 156.131 28.078, 151.799 30.618 L 143.922 35.236 131.211 30.169 C 124.220 27.382, 114.675 23.858, 110 22.337 C 104.349 20.499, 100.587 18.613, 98.777 16.709 C 96.165 13.963, 95.719 13.856, 87.777 14.074 C 83.225 14.199, 74.100 14.005, 67.500 13.644 C 58.283 13.140, 54.278 13.333, 50.230 14.478 M 77.377 20.405 C 69.524 24.062, 58.189 31.866, 51.518 38.209 C 45.045 44.363, 45.647 45.552, 53.483 42.094 C 57.443 40.347, 57.502 40.353, 63.657 43.144 C 71.718 46.799, 83.375 50, 88.623 50 C 94.199 50, 94.967 47.865, 91.010 43.358 C 89.354 41.473, 88 39.551, 88 39.088 C 88 37.547, 90.778 35.910, 94.389 35.324 C 97.436 34.830, 98.045 34.279, 98.556 31.555 C 98.885 29.801, 99.007 26.847, 98.827 24.991 C 98.509 21.710, 98.304 21.566, 91.500 19.831 C 82.742 17.597, 83.471 17.568, 77.377 20.405 M 101.693 28.682 C 101.371 31.807, 101.334 34.732, 101.612 35.182 C 101.891 35.632, 103.701 36, 105.636 36 C 107.571 36, 115.186 36.920, 122.559 38.045 C 132.561 39.571, 136.476 39.816, 137.982 39.010 C 139.092 38.416, 140 37.696, 140 37.410 C 140 36.312, 105.963 23, 103.156 23 C 102.674 23, 102.016 25.557, 101.693 28.682 M 153.288 32.855 L 147.077 36.639 151.565 38.819 C 154.034 40.019, 156.260 41, 156.513 41 C 157.072 41, 159.835 34.506, 160.637 31.308 C 161.409 28.234, 160.591 28.406, 153.288 32.855 M 91.583 38.866 C 91.037 39.750, 94.709 43.658, 95.382 42.911 C 95.585 42.685, 96.063 41.487, 96.443 40.250 C 97.033 38.331, 96.766 38, 94.626 38 C 93.247 38, 91.877 38.390, 91.583 38.866 M 99.002 40.493 C 97.456 44.561, 97.760 45.693, 101.022 48.016 C 103.477 49.764, 104.840 50.040, 108.272 49.488 C 112.853 48.751, 131.270 42.937, 130.731 42.398 C 130.332 41.998, 113.728 39.413, 105.752 38.509 C 100.206 37.880, 99.970 37.949, 99.002 40.493 M 141.546 39.926 C 140.969 40.859, 151.759 43.574, 152.621 42.713 C 153.190 42.143, 145.501 39, 143.539 39 C 142.757 39, 141.860 39.417, 141.546 39.926 M 127.500 46.598 C 123.100 48.443, 116.907 50.473, 113.738 51.109 C 106.037 52.654, 107.574 54.499, 117.251 55.326 C 127.596 56.210, 134.435 58.502, 138.321 62.387 L 141.626 65.692 156.243 66.403 L 170.860 67.114 171.549 62.524 C 171.927 60, 171.952 56.508, 171.603 54.765 C 170.865 51.076, 167.346 46.930, 165.540 47.623 C 164.854 47.886, 158.079 46.954, 150.484 45.551 C 142.889 44.148, 136.410 43.055, 136.087 43.121 C 135.764 43.188, 131.900 44.752, 127.500 46.598 M 96 49.500 C 96 50.367, 96.595 50.709, 97.500 50.362 C 98.325 50.045, 99 49.657, 99 49.500 C 99 49.343, 98.325 48.955, 97.500 48.638 C 96.595 48.291, 96 48.633, 96 49.500 M 93.638 54.500 C 92.997 56.173, 94.969 56.396, 101.230 55.361 C 106.350 54.515, 104.950 53, 99.048 53 C 95.674 53, 94.040 53.453, 93.638 54.500 M 94.512 58.876 C 92.869 59.228, 91.383 60.249, 91.211 61.145 C 90.942 62.538, 92.506 62.880, 102.002 63.500 C 108.110 63.899, 113.385 63.948, 113.724 63.609 C 114.064 63.270, 113.286 61.869, 111.996 60.496 C 109.963 58.332, 108.844 58.016, 103.576 58.118 C 100.234 58.183, 96.155 58.524, 94.512 58.876 M 115.702 60.804 C 117.844 64.537, 119.257 64.969, 129.372 64.986 C 136.125 64.998, 137.074 64.794, 136.045 63.555 C 134.432 61.611, 126.796 59.191, 119.715 58.379 L 113.930 57.716 115.702 60.804 M 77.500 62.052 C 73.650 63.092, 72.019 63.730, 73.875 63.471 C 75.731 63.212, 79.669 63, 82.625 63 C 86.736 63, 88 62.647, 88 61.500 C 88 59.606, 86.217 59.700, 77.500 62.052 M 65.760 67.085 C 58.607 67.842, 50.229 71.202, 48.493 74.011 C 47.617 75.429, 75.328 83.487, 78.720 82.801 C 79.538 82.635, 81.017 80.362, 82.007 77.750 L 83.807 73 81.403 73 C 77.903 73, 78.445 70.449, 82.172 69.380 C 83.916 68.879, 85.529 67.914, 85.755 67.235 C 86.230 65.810, 78.369 65.751, 65.760 67.085 M 89 67 C 89 68.148, 98.987 68.148, 103.500 67 C 105.615 66.462, 103.917 66.202, 97.750 66.118 C 92.504 66.047, 89 66.401, 89 67 M 112.500 70.532 C 109.200 71.283, 101.953 72.209, 96.395 72.591 L 86.290 73.286 84.671 78.350 C 83.414 82.279, 83.326 83.588, 84.276 84.192 C 86.748 85.762, 103.341 85.047, 110.245 83.073 C 120.721 80.077, 127.325 79.517, 130.935 81.318 L 134.004 82.849 136.502 78.587 C 137.876 76.242, 139 73.126, 139 71.662 L 139 69 128.750 69.084 C 123.112 69.130, 115.800 69.782, 112.500 70.532 M 141.655 72.754 C 141.301 74.969, 139.422 79.144, 137.479 82.031 C 135.536 84.918, 134.071 87.359, 134.223 87.455 C 134.376 87.552, 138.325 88.182, 143 88.857 C 147.675 89.531, 152.700 90.334, 154.167 90.642 C 156.471 91.125, 157.320 90.540, 160.393 86.351 C 165.033 80.026, 169.634 71.300, 168.778 70.445 C 168.408 70.074, 162.299 69.536, 155.202 69.248 L 142.300 68.725 141.655 72.754 M 46.029 70.961 C 45.220 71.473, 44.818 72.152, 45.136 72.470 C 45.455 72.788, 46.284 72.362, 46.980 71.524 C 48.423 69.786, 48.146 69.622, 46.029 70.961 M 44.684 79.101 C 44.382 80.256, 44.616 82.257, 45.203 83.547 C 46.234 85.810, 46.736 85.903, 59.386 86.196 C 75.320 86.565, 78.781 85.849, 69.907 84.018 C 66.383 83.292, 59.522 81.415, 54.660 79.848 C 49.798 78.282, 45.688 77, 45.526 77 C 45.365 77, 44.986 77.945, 44.684 79.101 M 117.500 83.939 C 113.337 84.975, 115.905 85.877, 124 86.223 C 129.234 86.446, 130.500 86.208, 130.500 85 C 130.500 83.290, 122.674 82.651, 117.500 83.939 M 53.750 88.662 C 54.438 88.940, 55.563 88.940, 56.250 88.662 C 56.938 88.385, 56.375 88.158, 55 88.158 C 53.625 88.158, 53.063 88.385, 53.750 88.662 M 46 90.014 C 44.945 90.706, 45.538 90.807, 48 90.355 C 52.313 89.564, 53.126 88.995, 49.917 89.015 C 48.587 89.024, 46.825 89.473, 46 90.014 M 62.500 90.612 C 48.064 92.833, 43 94.061, 43 95.339 C 43 95.997, 44.076 98.119, 45.391 100.055 C 47.630 103.350, 48.060 103.544, 52.141 103.105 C 54.539 102.847, 55.687 102.455, 54.693 102.234 C 51.823 101.595, 53.148 98.761, 57.443 96.352 C 59.602 95.141, 64.434 93.355, 68.182 92.383 C 72.414 91.285, 74.523 90.315, 73.748 89.823 C 73.062 89.387, 72.275 89.075, 72 89.129 C 71.725 89.183, 67.450 89.850, 62.500 90.612 M 106.630 90.521 C 106.258 91.492, 106.076 92.372, 106.226 92.477 C 106.377 92.583, 110.346 93.456, 115.046 94.419 C 122.548 95.956, 124.623 96.015, 132.046 94.905 L 140.500 93.641 134.500 91.707 C 130.865 90.535, 124.324 89.572, 117.904 89.264 C 108.422 88.809, 107.236 88.941, 106.630 90.521 M 82.750 91.781 C 81.237 91.974, 80 92.553, 80 93.066 C 80 94.114, 81.333 94.125, 84.990 93.108 C 88.077 92.248, 86.481 91.303, 82.750 91.781 M 148 94.331 C 151 96.473, 151.706 96.632, 152.940 95.439 C 154.795 93.647, 154.422 93.372, 149 92.530 L 144.500 91.831 148 94.331 M 68 95.344 C 63.875 96.575, 59.600 98.145, 58.500 98.834 C 56.737 99.939, 56.915 100.014, 60 99.473 C 61.925 99.135, 66.124 98.215, 69.331 97.429 C 72.538 96.643, 75.302 96, 75.474 96 C 75.646 96, 76.045 95.325, 76.362 94.500 C 77.078 92.633, 77.097 92.631, 68 95.344 M 87.673 96.093 C 81.773 100.001, 80.849 101.387, 84.625 100.663 C 86.206 100.360, 93.013 99.570, 99.750 98.908 C 106.487 98.246, 112 97.408, 112 97.046 C 112 96.471, 95.986 93, 93.335 93 C 92.789 93, 90.241 94.392, 87.673 96.093 M 155.758 96.670 C 154.217 98.212, 154.212 98.551, 155.697 101.064 C 157.072 103.392, 158.479 104.015, 165.403 105.360 C 176.230 107.464, 184 108.403, 184 107.609 C 184 106.346, 170.431 98.277, 165.572 96.650 C 159.388 94.580, 157.846 94.583, 155.758 96.670 M 137 96.959 C 132.095 97.678, 132.755 98.335, 140 99.949 C 146.840 101.472, 147.139 101.398, 145.818 98.500 C 144.637 95.907, 144.431 95.871, 137 96.959 M 79.128 97.900 C 78.374 98.378, 77.961 99.382, 78.211 100.132 C 78.527 101.081, 79.030 100.813, 79.868 99.247 C 81.197 96.763, 81.127 96.634, 79.128 97.900 M 40.482 101.056 C 39.670 103.616, 40.218 104.262, 42.840 103.831 C 44.808 103.507, 44.811 103.450, 43 101.230 L 41.147 98.960 40.482 101.056 M 68.500 100.554 L 63.500 101.870 68.921 101.685 C 72.229 101.572, 74.503 101.013, 74.755 100.250 C 75.231 98.804, 75.129 98.809, 68.500 100.554 M 100.500 101.558 C 90.050 102.824, 81.162 103.891, 80.750 103.930 C 79.312 104.065, 80.013 107.702, 81.787 109.307 C 86.273 113.367, 100.922 117.075, 113.500 117.335 C 120.602 117.481, 122.230 117.148, 128 114.367 C 136.580 110.232, 144.851 104.252, 142.939 103.566 C 139.914 102.481, 122.938 99.006, 121.261 99.128 C 120.292 99.199, 110.950 100.292, 100.500 101.558 M 151.500 102 C 151.840 102.550, 152.568 103, 153.118 103 C 153.668 103, 153.840 102.550, 153.500 102 C 153.160 101.450, 152.432 101, 151.882 101 C 151.332 101, 151.160 101.450, 151.500 102 M 59.269 102.693 C 60.242 102.947, 61.592 102.930, 62.269 102.656 C 62.946 102.382, 62.150 102.175, 60.500 102.195 C 58.850 102.215, 58.296 102.439, 59.269 102.693 M 71.500 104.578 C 70.950 104.730, 66.071 105.158, 60.659 105.528 L 50.818 106.200 53.260 108.850 C 54.604 110.308, 56.686 113.587, 57.887 116.138 C 59.786 120.173, 67.303 127.171, 68.371 125.899 C 69.033 125.110, 73.146 105.941, 72.827 105.130 C 72.647 104.673, 72.050 104.425, 71.500 104.578 M 74.204 113.283 C 71.016 127.159, 71.094 127.743, 76.250 128.509 C 79.516 128.995, 82.583 128.447, 89.500 126.141 C 94.450 124.492, 101.354 122.561, 104.842 121.852 L 111.184 120.562 100.983 118.762 C 85.305 115.995, 78.799 112.636, 77.146 106.453 C 76.526 104.136, 76.052 105.237, 74.204 113.283 M 42.870 106.791 C 39.284 107.103, 39.225 107.180, 38.050 113.150 C 37.396 116.475, 37.005 119.293, 37.181 119.414 C 42.292 122.925, 65.657 134.962, 66.633 134.587 C 69.119 133.633, 68.235 129.175, 65.250 127.611 C 61.354 125.571, 56.357 120.107, 54.629 116 C 53.819 114.075, 51.659 111.144, 49.828 109.488 C 47.178 107.089, 45.760 106.540, 42.870 106.791 M 30.500 107.664 C 23.373 108.529, 20.980 109.159, 21.518 110.030 C 22.180 111.099, 34.117 118.231, 34.512 117.792 C 34.656 117.631, 35.092 115.138, 35.481 112.250 C 36.034 108.140, 35.896 107.033, 34.844 107.150 C 34.105 107.232, 32.150 107.464, 30.500 107.664 M 36 135.318 C 36 154.200, 39.800 163.339, 49.741 168.361 C 57.241 172.151, 63.903 173.027, 92.624 173.999 C 120.892 174.956, 128.430 176.029, 138.700 180.554 L 143.899 182.845 149.313 176.173 C 161.025 161.737, 166.614 152.097, 167.649 144.546 C 168.195 140.564, 167.955 139.801, 165.332 137.178 C 161.554 133.400, 155.028 132, 141.195 132 L 130.488 132 128.092 137.224 C 124.349 145.383, 111.447 157.659, 101.259 162.753 C 96.727 165.020, 91.070 167.167, 88.688 167.524 C 75.859 169.448, 68.254 161.016, 67.705 144.259 C 67.561 139.887, 67.107 138.015, 66.189 138.009 C 65.468 138.004, 58.843 134.625, 51.468 130.500 C 44.092 126.375, 37.595 123, 37.029 123 C 36.379 123, 36 127.544, 36 135.318 M 107.023 124.096 C 104.560 124.579, 99.170 125.975, 95.044 127.200 C 87.655 129.394, 87.595 129.438, 91.022 130.182 C 95.777 131.215, 126.920 129.939, 127.698 128.680 C 128.040 128.126, 127.098 126.621, 125.604 125.336 C 123.399 123.439, 121.818 123.021, 117.194 123.110 C 114.062 123.170, 109.485 123.614, 107.023 124.096 M 71 131.406 C 71 132.339, 71.702 132.629, 73.085 132.268 C 74.669 131.853, 74.849 131.520, 73.835 130.877 C 71.891 129.645, 71 129.811, 71 131.406 M 74.831 134.433 L 69.739 136.367 70.266 144.056 C 71.638 164.073, 81.292 169.596, 99.327 160.683 C 107.792 156.499, 119.159 146.544, 123.891 139.170 C 125.601 136.505, 127 133.914, 127 133.412 C 127 132.888, 116.982 132.500, 103.461 132.500 C 82.614 132.500, 79.340 132.721, 74.831 134.433" stroke="none" fill="black" fill-rule="evenodd"/>
</svg>