<svg xmlns="http://www.w3.org/2000/svg" width="200" height="200" viewBox="0 0 200 200" version="1.1">
	<path d="M 29.384 18.250 C 29.320 21.688, 27.421 32.650, 25.163 42.611 C 17.133 78.045, 16.271 87.364, 20.456 93.531 C 26.350 102.215, 28.947 114.152, 28.980 132.699 C 28.999 143.290, 26.948 163.339, 25.062 171 C 22.318 182.147, 22.628 182.316, 31.343 174.424 C 39.089 167.409, 46.402 162.945, 56.546 159.042 C 76.261 151.457, 79.307 147.841, 80.588 130.500 C 80.872 126.650, 81.336 121.987, 81.619 120.138 L 82.133 116.776 84.330 118.840 C 87.701 122.008, 92.756 123.754, 106.185 126.390 C 124.522 129.990, 135.581 134.876, 147.963 144.846 L 150.425 146.830 146.963 147.338 C 121.883 151.018, 112.821 153.496, 108.012 157.989 C 104.189 161.560, 104.212 164.033, 108.109 168.471 C 113.997 175.178, 137.369 183.854, 150.765 184.306 L 156.500 184.500 160.736 176 C 167.377 162.675, 170.101 153.752, 170.722 143.285 C 171.228 134.756, 171.072 133.667, 168.624 128.664 C 164.224 119.670, 155.801 115.145, 141.579 114.135 L 132.645 113.500 138.573 111.106 C 147.230 107.609, 163.222 99.346, 167.924 95.940 C 170.499 94.075, 172 92.200, 172 90.851 C 172 88.847, 171.645 88.753, 166.250 89.323 C 163.088 89.657, 155.491 91.521, 149.369 93.463 C 138.814 96.813, 138.032 96.922, 134.233 95.582 C 128.659 93.616, 124 91.112, 124 90.083 C 124 88.394, 132.247 85.965, 151.252 82.056 C 179.407 76.265, 183 74.968, 183 70.593 C 183 68.213, 179.660 65.850, 172.949 63.482 C 168.865 62.041, 168.690 62.075, 162.552 65.508 C 159.118 67.429, 155.972 69, 155.563 69 C 155.153 69, 157.206 65.963, 160.126 62.250 C 170.475 49.091, 175.222 42.442, 177.596 37.783 C 182.541 28.081, 179.624 23.181, 169.606 24.359 C 163.524 25.073, 149.965 29.362, 145.500 31.982 C 137.506 36.674, 133.933 35.510, 123.975 24.967 C 116.849 17.421, 116.224 17, 112.166 17 C 108.396 17, 107.245 17.600, 102.602 21.992 L 97.323 26.985 83.911 23.519 C 68.897 19.640, 33.978 12, 31.262 12 C 29.780 12, 29.482 12.992, 29.384 18.250 M 32.242 19.444 C 32.135 21.889, 29.738 34.376, 26.914 47.194 C 23.834 61.173, 21.572 74.133, 21.262 79.579 C 20.778 88.081, 20.908 88.907, 23.305 92.579 C 31.856 105.677, 34.256 134.438, 29.225 163.524 L 27.492 173.548 33.734 168.823 C 42.567 162.137, 47.064 159.681, 58.904 155.077 C 70.686 150.495, 72.549 149.155, 75.115 143.425 C 77.663 137.732, 80.116 116, 78.211 116 C 77.776 116, 74.176 118.961, 70.211 122.581 L 63 129.162 63 114.235 C 63 106.025, 62.701 95.097, 62.336 89.951 L 61.672 80.594 59.422 89.047 C 53.695 110.561, 47.862 119.862, 43.088 115.088 C 40.193 112.193, 39.010 106.646, 39.017 96 C 39.027 81.105, 42.136 72.237, 48.428 69.153 C 50.895 67.944, 51.666 68.061, 55.989 70.304 L 60.802 72.802 61.283 69.651 C 61.547 67.918, 61.610 66.332, 61.424 66.126 C 61.238 65.920, 55.858 66.315, 49.470 67.003 C 40.466 67.973, 37.590 67.986, 36.677 67.060 C 34.745 65.099, 38.093 63.454, 50.052 60.487 C 60.164 57.978, 61 57.589, 61 55.386 C 61 54.073, 60.482 53.112, 59.848 53.250 C 58.229 53.602, 54.212 47.479, 52.861 42.599 C 50.985 35.828, 51.337 24.390, 53.494 22.007 C 54.499 20.896, 55.136 19.843, 54.911 19.667 C 54.500 19.347, 33.973 14.971, 32.967 14.990 C 32.675 14.996, 32.348 17, 32.242 19.444 M 108.218 20.671 C 104.223 22.631, 100.180 27.806, 102.179 28.402 C 136.510 38.637, 148.090 47.852, 136.850 55.994 C 132.202 59.361, 131 59.676, 131 57.526 C 131 56.715, 132.350 55.353, 134 54.500 C 135.650 53.647, 137 52.566, 137 52.099 C 137 49.652, 120.962 50.172, 100.500 53.284 L 92.500 54.500 92 61.897 C 91.209 73.594, 87.111 74.013, 78.804 63.246 C 74.835 58.101, 74.469 57.875, 71.069 58.476 C 64.933 59.560, 63.822 60.095, 64.428 61.672 C 64.742 62.492, 65 65.513, 65 68.384 L 65 73.605 70.750 72.887 C 79.764 71.761, 95.670 71.888, 100.583 73.125 C 105.289 74.310, 109 77.859, 109 81.175 C 109 86.318, 100.876 96.439, 87.177 108.364 C 82.941 112.051, 82.886 112.177, 84.481 114.611 C 87.210 118.777, 91.735 120.734, 103.875 123.002 C 118.761 125.784, 128.806 129.115, 137.132 134.033 C 144.796 138.559, 156.228 147.822, 155.535 148.943 C 155.275 149.363, 151.336 150.015, 146.781 150.392 C 136.753 151.221, 120.737 154.383, 115.400 156.588 C 107.101 160.017, 106.070 163.099, 111.599 167.953 C 117.929 173.511, 135.967 180.105, 148.817 181.559 L 154.829 182.239 158.822 173.869 C 172.458 145.283, 171.639 127.880, 156.301 120.348 C 150.694 117.595, 149.990 117.500, 135.251 117.500 C 123.519 117.500, 120.001 117.204, 120.001 116.219 C 120 115.514, 120.787 114.689, 121.750 114.386 C 135.416 110.078, 160.545 98.364, 166.573 93.491 L 169.500 91.125 162.584 92.682 C 158.781 93.538, 151.931 95.502, 147.362 97.047 C 138.136 100.165, 135.874 99.987, 126.875 95.433 C 115.224 89.538, 121.009 85.210, 147.500 80.007 C 176.401 74.330, 184.002 71.677, 179.014 69.008 C 177.851 68.385, 175.067 67.229, 172.828 66.439 C 168.835 65.030, 168.647 65.069, 163.019 68.488 C 156.318 72.559, 152.750 73.308, 152.219 70.756 C 151.814 68.812, 153.238 66.639, 163.714 53.212 C 174.837 38.955, 179.173 30.573, 176.701 28.101 C 174.011 25.411, 158.486 28.607, 147.720 34.068 C 141.636 37.154, 135.587 37.852, 131.684 35.918 C 130.483 35.322, 126.350 31.526, 122.500 27.482 C 118.650 23.438, 114.600 19.889, 113.500 19.595 C 112.400 19.301, 110.023 19.785, 108.218 20.671 M 57.203 21.750 C 59.710 24.649, 60.999 29.847, 62.589 43.468 C 63.422 50.601, 64.216 56.549, 64.354 56.687 C 65.025 57.359, 72 55.613, 72 54.774 C 72 54.243, 71.045 52.467, 69.877 50.827 C 68.444 48.814, 68.083 47.517, 68.767 46.833 C 69.451 46.149, 70.770 47.258, 72.827 50.248 L 75.874 54.677 82.028 53.686 L 88.181 52.695 87.520 48.285 C 87.097 45.465, 87.279 43.369, 88.025 42.470 C 89.784 40.350, 96.074 29.741, 95.759 29.425 C 95.312 28.979, 58.355 20, 56.963 20 C 56.024 20, 56.087 20.460, 57.203 21.750 M 54.627 26.261 C 53.651 29.904, 53.911 35.220, 55.333 40.703 C 56.542 45.363, 59.728 51.669, 60.453 50.837 C 60.901 50.323, 59.241 37.228, 57.903 30.721 C 56.585 24.312, 55.533 22.880, 54.627 26.261 M 95.863 35.252 C 90.912 43.227, 89.843 46.009, 90.529 49.132 C 91.099 51.729, 91.531 52.048, 93.842 51.582 C 103.322 49.670, 121.547 47.912, 129.095 48.181 C 133.995 48.357, 138.004 48.195, 138.002 47.823 C 137.998 46.598, 132.887 43.092, 127.143 40.373 C 120.741 37.343, 102.404 30.999, 100.054 31.002 C 99.199 31.003, 97.313 32.915, 95.863 35.252 M 82.750 56.226 C 80.138 56.771, 78 57.515, 78 57.880 C 78 59.092, 86.662 68, 87.841 68 C 88.601 68, 89 65.761, 89 61.500 C 89 57.925, 88.662 55.053, 88.250 55.118 C 87.838 55.183, 85.362 55.682, 82.750 56.226 M 53 62.500 C 49.786 63.431, 49.214 63.829, 51 63.891 C 54.997 64.030, 61 62.817, 61 61.869 C 61 60.715, 58.474 60.914, 53 62.500 M 46.703 73.942 C 43.291 77.996, 41.585 85.764, 41.640 97 C 41.694 108.216, 43.855 115.196, 46.573 112.939 C 49.807 110.256, 54.920 96.831, 58.330 82.072 C 59.839 75.539, 59.555 74.835, 54.316 72.128 C 50.939 70.384, 49.385 70.754, 46.703 73.942 M 69.250 75.732 L 65 76.115 65 99.057 C 65 111.676, 65.280 122, 65.622 122 C 67.025 122, 79 111.550, 79 110.325 C 79 109.596, 79.802 109, 80.782 109 C 83.190 109, 99.020 94.195, 102.939 88.278 C 109.604 78.216, 105.328 74.909, 86 75.176 C 79.125 75.271, 71.588 75.522, 69.250 75.732" stroke="none" fill="black" fill-rule="evenodd"/>
</svg>