<svg xmlns="http://www.w3.org/2000/svg" width="200" height="200" viewBox="0 0 200 200" version="1.1">
	<path d="M 50.723 9.890 C 33.342 15.638, 20.890 35.365, 20.613 57.593 C 20.538 63.617, 20.928 67.203, 21.768 68.217 C 22.808 69.472, 22.667 70.611, 20.989 74.525 C 14.929 88.664, 15.931 100.691, 25.009 122.767 C 32.182 140.209, 33.859 147.768, 32.174 155.066 C 30.463 162.479, 26.444 168.733, 21.902 171.050 C 17.865 173.110, 15 177.311, 15 181.171 C 15 183.119, 15.889 182.567, 21.250 177.296 C 28.347 170.316, 28.727 170.197, 52.500 167.503 C 67.944 165.753, 72.083 164.693, 75.734 161.552 C 81.020 157.006, 78.037 147.242, 68.556 138.054 C 66.600 136.158, 65 134.068, 65 133.409 C 65 128.979, 69.549 118.360, 73.094 114.514 C 85.129 101.457, 104.632 111.894, 102.725 130.371 C 101.830 139.048, 97.911 145.269, 85.541 157.651 C 69.306 173.900, 63.635 183, 69.741 183 C 73.565 183, 97.192 166.898, 111.500 154.540 C 114.800 151.690, 117.950 149.096, 118.500 148.776 C 119.128 148.411, 119.500 150.882, 119.500 155.421 C 119.500 161.642, 119.885 163.229, 122.269 166.831 C 126.051 172.545, 132.061 176.657, 140.280 179.154 C 146.021 180.897, 148.998 181.175, 158.006 180.803 C 167.703 180.404, 169.518 180.020, 175.411 177.118 C 184.022 172.879, 187.254 168.708, 187.781 161.152 C 188.214 154.966, 186.272 149.248, 181.669 143.151 L 179.141 139.803 177 144.001 C 173.901 150.074, 167.212 157, 164.444 157 C 159.294 157, 156.038 150.536, 150.909 130.139 C 148.749 121.547, 146.757 113.811, 146.483 112.947 C 146.072 111.652, 148.401 110.897, 159.714 108.657 C 172.800 106.067, 178 104.160, 178 101.952 C 178 99.975, 172.766 99.063, 149.900 97.055 C 137.131 95.934, 126.535 94.869, 126.354 94.688 C 126.173 94.507, 132.657 91.521, 140.763 88.054 C 160.068 79.795, 168 75.428, 168 73.058 C 168 70.380, 166.148 70, 153.109 70 C 144.948 70, 140.831 69.597, 139.569 68.674 C 137.857 67.422, 137.928 67.151, 140.837 63.838 C 145.871 58.105, 150.924 55.330, 161.500 52.493 C 175.684 48.686, 178.566 47.386, 177 45.500 C 175.996 44.290, 172.891 44, 160.959 44 C 152.822 44, 145.452 43.727, 144.582 43.393 C 140.282 41.743, 145.084 37.301, 158.987 30.068 C 163.394 27.775, 167 25.699, 167 25.456 C 167 25.212, 165.132 23.660, 162.850 22.006 C 159.495 19.576, 157.697 19, 153.464 19 C 149.013 19, 147.349 19.595, 142.364 22.971 C 139.139 25.155, 132.900 30.153, 128.500 34.078 C 118.656 42.860, 113.262 46.643, 107.885 48.540 C 100.577 51.119, 96.549 50.483, 88.239 45.438 C 83.067 42.298, 80.402 41.198, 79.691 41.909 C 78.395 43.205, 82.084 46.290, 90.195 50.693 C 100.662 56.376, 106.802 62.899, 105.511 66.964 C 105.157 68.081, 101.964 71.066, 98.415 73.598 C 91.444 78.572, 90 80.440, 90 84.484 C 90 88.213, 92.192 91.896, 97.170 96.534 C 104.244 103.125, 105.814 104.233, 107.024 103.485 C 107.752 103.035, 105.625 100.447, 101.228 96.435 C 92.929 88.860, 90.992 85.187, 93.379 81.545 C 94.268 80.188, 97.630 77.289, 100.850 75.102 C 110.334 68.661, 110.864 64.794, 103.343 56.918 L 99.922 53.336 105.470 52.094 C 112.073 50.616, 118.674 46.334, 131.051 35.500 C 146.874 21.649, 151.737 19.358, 158.502 22.568 C 160.426 23.481, 161.995 24.514, 161.989 24.864 C 161.983 25.214, 158.617 27.265, 154.508 29.422 C 144.691 34.577, 140 38.494, 140 41.538 C 140 45.361, 143.357 46.438, 157 46.992 L 169.500 47.500 159.623 50.202 C 149.328 53.018, 143.958 56.006, 138.960 61.699 C 135.396 65.757, 135.122 69.431, 138.250 71.207 C 139.577 71.961, 145.627 72.693, 153 72.992 L 165.500 73.500 156 78.103 C 150.775 80.635, 139.636 85.546, 131.247 89.017 C 122.858 92.488, 116.159 95.493, 116.361 95.694 C 117.186 96.519, 129.544 98.076, 146.500 99.492 C 170.828 101.523, 174.050 101.995, 171.500 103.149 C 170.400 103.647, 164.100 105.117, 157.500 106.415 C 147.344 108.414, 145.329 108.563, 144.390 107.388 C 142.757 105.347, 140.327 105.695, 138.557 108.223 C 136.084 111.753, 136.574 112.943, 140.255 112.346 L 143.511 111.818 147.165 126.659 C 149.174 134.821, 151.831 144.200, 153.069 147.500 C 155.692 154.494, 160.650 160, 164.323 160 C 167.542 160, 172.246 156.040, 176.458 149.786 L 179.762 144.880 181.827 148.220 C 186.321 155.491, 186.373 163.714, 181.961 169.322 C 179.157 172.887, 170.749 176.704, 162.691 178.071 C 144.779 181.109, 124.628 172.194, 122.385 160.239 C 121.479 155.407, 122.529 146.812, 124.488 143.022 C 125.399 141.261, 125.880 139.129, 125.556 138.286 C 125.109 137.120, 124.424 137.561, 122.702 140.126 C 117.337 148.118, 72.634 181.967, 70.397 179.731 C 69.493 178.827, 78.990 167.782, 89.083 158 C 96.963 150.362, 99.531 147.128, 102.183 141.500 C 109.080 126.862, 104.923 112.353, 92.338 107.140 C 89.546 105.984, 89.281 105.312, 86.637 92.714 C 79.912 60.675, 77.036 52.145, 70.979 46.262 C 69.145 44.481, 66.150 42.744, 64.322 42.401 C 62.495 42.058, 61 41.475, 61 41.105 C 61 39.892, 71.343 30.349, 79 24.495 L 86.500 18.762 87.072 25.285 C 87.388 28.885, 88.421 32.993, 89.377 34.452 C 94.926 42.921, 108.416 43.237, 115.297 35.059 C 116.784 33.292, 118 30.791, 118 29.500 C 118 23.889, 109.404 18.268, 96.639 15.534 C 93.263 14.811, 86.900 12.985, 82.500 11.478 C 71.771 7.801, 58.971 7.162, 50.723 9.890 M 50.879 12.611 C 35.800 17.826, 24.629 35.435, 23.283 56.111 C 22.787 63.721, 22.945 64.942, 24.641 66.611 C 26.532 68.472, 26.518 68.602, 23.641 75.491 C 21.437 80.767, 20.612 84.568, 20.277 90.991 C 19.765 100.805, 21.543 107.753, 29.388 126.578 C 36.752 144.250, 37.358 152.990, 31.954 163.589 C 29.778 167.859, 29.641 168.340, 30.806 167.620 C 31.249 167.346, 38.112 166.416, 46.056 165.554 C 64.564 163.545, 70.273 162.360, 73.439 159.869 C 77.909 156.353, 76.386 151.494, 67.400 140.600 L 61.901 133.934 63.430 127.968 C 65.502 119.880, 68.177 114.930, 72.552 111.088 C 76.800 107.359, 79.903 106, 84.172 106 C 86.665 106, 87.090 105.684, 86.524 104.250 C 86.145 103.287, 84.287 95.075, 82.395 86 C 75.648 53.644, 71.157 45, 61.092 45 C 58.602 45, 57.666 45.731, 55.653 49.250 C 49.778 59.521, 49.121 70.503, 53.440 86.252 C 58.797 105.784, 56.283 112.384, 41.230 118.317 C 34.672 120.902, 33.823 120.668, 35.468 116.731 C 37.093 112.842, 42.015 88.145, 48.967 49 C 54.637 17.075, 54.606 17.206, 56.159 18.759 C 57.177 19.777, 56.548 27.052, 54.342 39.750 C 53.543 44.348, 55.772 43.952, 59.500 38.834 C 62.878 34.196, 75.127 23.367, 81.672 19.232 C 84.051 17.729, 85.997 16.245, 85.998 15.933 C 85.999 15.621, 83.412 14.527, 80.250 13.503 C 72.367 10.950, 57.027 10.484, 50.879 12.611 M 89.583 20.411 C 88.585 25.731, 90.471 32.122, 93.962 35.250 C 98.731 39.523, 108.072 38.928, 112.960 34.040 C 117.900 29.100, 113.455 23.344, 102.183 20.085 C 90.043 16.575, 90.304 16.568, 89.583 20.411 M 43.339 94.391 C 41.050 106.001, 39.334 115.659, 39.525 115.852 C 40.284 116.624, 49.336 111.388, 51.084 109.166 C 54.374 104.984, 54.329 101.246, 50.818 86.870 L 47.500 73.282 43.339 94.391" stroke="none" fill="black" fill-rule="evenodd"/>
</svg>