<svg xmlns="http://www.w3.org/2000/svg" width="200" height="200" viewBox="0 0 200 200" version="1.1">
	<path d="M 46.479 22.871 C 35.745 27.747, 19.058 54.477, 18.767 67.261 C 18.665 71.725, 18.995 72.552, 21.806 74.884 C 29.224 81.038, 30.072 96.897, 24.486 125 C 19.479 150.188, 19.899 155, 27.105 155 C 32.453 155, 44.563 147.800, 60.261 135.285 C 64.593 131.832, 67.156 130.363, 67.392 131.198 C 67.596 131.914, 68.256 136.775, 68.859 142 C 71.542 165.249, 78.843 179.845, 90.419 185.103 C 95.604 187.457, 106.646 187.591, 114.061 185.389 C 117.044 184.503, 123.068 181.977, 127.448 179.775 L 135.411 175.771 151.456 175.543 C 169.567 175.286, 173.868 174.332, 178.703 169.497 C 181.533 166.667, 182 165.508, 182 161.310 C 182 158.621, 181.291 153.738, 180.426 150.460 C 175.129 130.412, 174.744 128.234, 174.772 118.500 C 174.789 112.370, 175.393 106.623, 176.332 103.649 C 177.514 99.910, 177.610 98.238, 176.753 96.356 C 175.932 94.556, 175.950 90.944, 176.820 82.596 C 179.214 59.632, 178.005 49.812, 172.141 44.595 C 170.716 43.327, 169.992 41.487, 169.976 39.095 C 169.903 28.456, 166.129 22, 159.981 22 C 156.359 22, 146.211 27.568, 143.251 31.179 C 142.141 32.533, 140.773 32.387, 131.014 29.874 C 108.681 24.122, 94.148 24.073, 83.783 29.714 C 77.633 33.062, 74.696 36.997, 69.890 48.327 C 65.848 57.858, 62.444 62.011, 58.694 61.985 C 53.924 61.951, 53.615 60.964, 55.377 51.364 C 58.323 35.314, 57.155 23.425, 52.455 21.621 C 50.484 20.865, 51.244 20.706, 46.479 22.871 M 46.461 25.861 C 38.992 30.415, 26.819 48.124, 23.007 59.980 C 20.557 67.598, 20.880 71.894, 23.963 72.701 C 25.015 72.976, 26.858 75.450, 28.168 78.345 C 30.248 82.943, 30.497 84.960, 30.469 97 C 30.443 108.283, 29.903 113.066, 27.185 126.125 C 23.649 143.112, 23.004 150.766, 25.005 152.003 C 28.558 154.199, 39.953 147.755, 59.410 132.545 C 64.719 128.395, 69.226 125, 69.427 125 C 69.628 125, 70.100 128.713, 70.476 133.250 C 74.471 181.437, 92.667 195.179, 127.787 176.530 L 134.435 173 148.668 173 C 165.068 173, 171.847 171.841, 176.029 168.322 C 178.619 166.143, 178.999 165.160, 178.994 160.661 C 178.991 157.822, 177.606 150.550, 175.916 144.500 C 172.192 131.169, 170.962 112.817, 173.232 104.452 C 174.141 101.102, 174.315 98.296, 173.749 96.112 C 173.214 94.046, 173.482 87.170, 174.468 77.653 C 176.365 59.358, 175.352 51.027, 170.768 47.223 C 169.677 46.317, 169.206 47.726, 168.239 54.805 C 164.875 79.433, 149.416 121.223, 140.014 131.106 C 135.992 135.334, 133.179 135.986, 130.766 133.250 C 125.947 127.787, 128.381 119.537, 137.154 111.599 C 143.971 105.429, 143.699 105, 132.977 105 C 129.205 105, 125.823 104.523, 125.463 103.940 C 125.103 103.357, 124.789 99.783, 124.765 95.997 L 124.722 89.113 118.611 87.727 C 111.557 86.127, 110.830 86.549, 108.743 93.469 C 107.342 98.113, 107.344 120.129, 108.746 127.050 C 109.421 130.384, 109.296 132.655, 108.279 135.550 C 102.544 151.872, 106.174 160.163, 118.346 158.548 C 125.301 157.626, 133.563 153.490, 138.688 148.365 C 142.140 144.912, 143 143.350, 143 140.526 C 143 138.058, 143.450 137, 144.500 137 C 146.527 137, 146.441 141.268, 144.323 145.731 C 142.214 150.177, 132.699 157.275, 125.759 159.580 C 107.558 165.626, 98.901 156.347, 104.866 137.184 C 106.363 132.373, 106.551 130.135, 105.819 125.845 C 105.317 122.905, 104.869 115.100, 104.824 108.500 C 104.746 97.174, 105.208 94.389, 108.403 86.930 C 108.934 85.691, 108 85.113, 103.961 84.180 C 101.149 83.531, 98.372 83, 97.791 83 C 96.046 83, 97.543 107.326, 99.854 116.544 L 101.871 124.588 98.436 131.414 C 94.277 139.678, 93.884 146.064, 97.124 152.757 C 102.228 163.301, 121.859 170.212, 140.172 167.912 C 158.356 165.629, 163.458 157.085, 153.876 144.962 C 149.929 139.969, 149.414 137.510, 152.756 139.618 C 155.457 141.322, 160.882 149.854, 161.559 153.462 C 163.486 163.736, 151.794 171, 133.331 171 C 118.724 171, 107.621 167.379, 99.624 160.008 C 91.158 152.204, 89.863 142.158, 95.805 130.387 L 98.784 124.486 96.846 115.993 C 95.780 111.322, 94.643 101.615, 94.319 94.423 L 93.730 81.346 87.437 79.670 C 83.977 78.747, 80.437 77.721, 79.573 77.389 C 78.401 76.940, 78 77.423, 78 79.281 C 78 86.964, 66.058 117.273, 62.492 118.641 C 57.807 120.439, 58.429 115.549, 66.229 89.292 L 71.340 72.085 75.420 72.510 C 77.664 72.744, 83.224 73.186, 87.775 73.493 L 96.049 74.051 97.885 69.768 C 98.895 67.412, 100.963 64.009, 102.481 62.205 C 105.145 59.039, 105.179 58.856, 103.460 56.956 C 101.424 54.706, 101.351 54.834, 106 52.490 C 111.607 49.664, 116.645 45.272, 117.981 42.045 C 119.022 39.532, 118.935 38.260, 117.434 34.088 L 115.649 29.122 109.230 28.434 C 95.592 26.974, 83.395 30.712, 78.143 37.961 C 76.652 40.019, 74.141 45.032, 72.563 49.102 C 67.851 61.251, 65.135 64.082, 58.100 64.179 C 50.109 64.289, 50.078 64.236, 52.155 53.735 C 54.269 43.045, 54.729 29.231, 53.073 26.137 C 51.673 23.521, 50.387 23.467, 46.461 25.861 M 156.716 25.487 C 152.493 26.939, 147.487 30.815, 140.111 38.344 L 134.722 43.844 142.111 41.867 C 147.500 40.425, 151.900 39.972, 158.367 40.195 L 167.233 40.500 166.726 34.912 C 165.889 25.682, 163.283 23.229, 156.716 25.487 M 119.524 31.820 C 121.266 36.098, 121.605 38.750, 120.797 41.789 C 119.786 45.590, 113.412 52.173, 108.952 54.020 C 107.265 54.719, 106.271 55.671, 106.741 56.141 C 107.210 56.610, 109.369 56.066, 111.546 54.931 C 116.872 52.155, 126.600 52.589, 130.938 55.796 C 133.139 57.423, 135.322 58, 139.278 58 C 149.120 58, 161.144 63.121, 161.794 67.590 C 162.565 72.889, 153.440 75.860, 133.804 76.704 L 120.109 77.292 116.959 80.543 L 113.808 83.793 118.953 84.897 C 125.904 86.387, 126.785 86.314, 129.727 84 C 134.937 79.902, 146.524 82.314, 145.807 87.347 C 145.524 89.330, 144.831 89.523, 137.032 89.794 C 131.809 89.975, 128.270 90.550, 127.797 91.294 C 126.821 92.830, 126.799 99.148, 127.765 100.619 C 128.169 101.234, 132.100 102.067, 136.500 102.469 C 144.028 103.157, 147 104.172, 147 106.056 C 147 106.502, 144.347 108.952, 141.104 111.499 C 133.774 117.258, 130.416 123.074, 131.398 128.309 C 131.905 131.011, 132.595 132, 133.973 132 C 142.467 132, 161.801 82.482, 166.457 48.803 L 167.107 44.106 162.855 42.961 C 157.384 41.488, 147.419 42.901, 134.911 46.923 L 125.752 49.868 128.610 46.684 C 130.182 44.933, 133.224 41.621, 135.369 39.325 L 139.270 35.150 135.385 34.113 C 133.248 33.542, 128.651 32.415, 125.170 31.608 C 119.297 30.246, 118.889 30.261, 119.524 31.820 M 114.750 56.576 C 112.138 57.393, 110 58.559, 110 59.168 C 110 59.778, 111.810 62.240, 114.022 64.640 C 116.235 67.040, 118.557 70.128, 119.183 71.502 C 120.288 73.927, 120.618 74, 130.411 73.992 C 146.515 73.980, 158.500 71.431, 158.500 68.018 C 158.500 64.466, 140.596 58.724, 135.029 60.491 C 133.599 60.945, 132.021 60.354, 129.905 58.573 C 128.223 57.158, 126.094 55.994, 125.173 55.986 C 124.253 55.979, 122.600 55.775, 121.500 55.533 C 120.400 55.291, 117.362 55.760, 114.750 56.576 M 104.489 64.254 C 102.984 66.140, 101.155 69.105, 100.425 70.842 L 99.097 74 108.048 74 C 112.972 74, 117 73.654, 117 73.232 C 117 72.586, 110.670 64.425, 108.026 61.662 C 107.586 61.202, 105.994 62.368, 104.489 64.254 M 70.097 85.750 C 65.822 99.691, 62.993 110.219, 63.047 111.980 C 63.222 117.702, 75 85.820, 75 79.623 C 75 73.382, 73.198 75.633, 70.097 85.750 M 89.960 77.523 C 94.605 78.971, 95.653 78.866, 94.541 77.067 C 94.179 76.480, 91.996 76.030, 89.691 76.067 L 85.500 76.134 89.960 77.523 M 98 78.368 C 98 79.190, 100.451 80.424, 104.140 81.459 L 110.280 83.182 113.371 80.091 L 116.462 77 107.231 77 C 100.087 77, 98 77.309, 98 78.368 M 132.500 85.383 L 129.500 86.699 134.687 87.435 C 137.619 87.851, 140.609 87.759, 141.565 87.224 C 145.137 85.224, 136.745 83.520, 132.500 85.383" stroke="none" fill="black" fill-rule="evenodd"/>
</svg>