<svg xmlns="http://www.w3.org/2000/svg" width="200" height="200" viewBox="0 0 200 200" version="1.1">
	<path d="M 68 12.713 C 52.087 13.706, 31.535 16.065, 30.592 17.008 C 28.728 18.872, 32.043 19.968, 39.596 19.985 C 43.499 19.993, 50.814 20.293, 55.851 20.650 L 65.008 21.300 62.333 24.900 C 60.861 26.880, 59.593 28.604, 59.514 28.731 C 59.436 28.858, 55.351 27.593, 50.436 25.921 C 40.023 22.378, 29.827 21.069, 27.524 22.980 C 23.434 26.375, 27.326 33.929, 40.140 47.466 L 47.945 55.712 39.691 57.892 C 24.323 61.952, 17.531 66.386, 19.899 70.812 C 20.433 71.808, 22.713 74.846, 24.967 77.562 C 32.817 87.020, 35.893 96.701, 34.525 107.646 C 33.898 112.665, 33.328 113.728, 29.308 117.387 C 22.230 123.829, 19.732 128.916, 19.209 137.954 C 18.533 149.631, 22.414 155.299, 31.004 155.181 C 37.116 155.096, 44.219 150.582, 53.373 140.963 C 60.155 133.836, 62.258 132.220, 65.419 131.707 C 70.678 130.853, 73.312 128.308, 72.602 124.762 C 72.296 123.231, 69.792 118.235, 67.038 113.658 C 64.284 109.082, 61.349 103.405, 60.515 101.043 C 56.430 89.463, 61.479 76.429, 72.182 70.923 C 74.207 69.881, 76.162 68.547, 76.526 67.957 C 77.978 65.609, 75.757 62.152, 69.572 57.134 C 61.503 50.587, 59 46.699, 59 40.714 C 59 35.293, 59.748 33, 61.516 33 C 62.232 33, 68.923 35.614, 76.385 38.808 L 89.952 44.616 86.407 45.898 C 80.837 47.912, 78.791 52.111, 79.534 60 C 79.871 63.575, 80.354 91.126, 80.606 121.224 L 81.065 175.948 84.336 178.443 C 90.028 182.784, 94.041 184.023, 97.586 182.532 C 102.053 180.654, 103.716 176.224, 108.031 154.720 C 112.351 133.185, 116.380 123.100, 122.538 118.403 L 125.982 115.777 129.469 118.839 C 134.163 122.960, 139.343 123.881, 143.872 121.399 C 149.406 118.367, 151.500 114.737, 151.500 108.177 C 151.500 100.744, 148.489 94.665, 140.665 86.301 L 134.626 79.846 137.063 75.316 C 140.854 68.269, 146.889 61.842, 149.380 62.198 C 153.635 62.805, 154.199 67.730, 154.449 106.500 C 154.719 148.444, 154.381 150.712, 146.529 159.661 C 144.038 162.500, 142 165.519, 142 166.371 C 142 169.021, 146.630 172.390, 157.951 177.976 C 170.561 184.197, 170.335 184.241, 175.163 174.677 C 181.566 161.994, 182.761 147.989, 180.517 111.940 L 178.809 84.500 181.405 76.824 C 184.978 66.256, 185.001 57.343, 181.467 53.143 C 178.177 49.233, 174.877 48.239, 161.259 47.056 C 144.642 45.613, 144 45.005, 144 30.715 C 144 16.844, 141.654 12.031, 136.530 15.389 C 133.527 17.356, 128.042 28.198, 122.940 42.250 C 120.594 48.713, 118.356 54, 117.967 54 C 117.578 54, 113.939 52.454, 109.880 50.565 L 102.500 47.130 107.230 47.065 C 113.723 46.976, 119.746 44.391, 121.538 40.926 C 123.387 37.352, 123.413 29.690, 121.598 23.659 C 120.580 20.276, 120.511 18.981, 121.348 18.930 C 121.982 18.891, 121.600 18.477, 120.500 18.010 C 119.400 17.543, 108.150 17.410, 95.500 17.714 L 72.500 18.268 75.437 15.134 L 78.374 12 75.937 12.185 C 74.597 12.287, 71.025 12.524, 68 12.713 M 50.500 17 C 46.686 17.523, 48.273 17.723, 57.191 17.843 C 64.083 17.936, 69.136 17.590, 69.500 17 C 70.193 15.878, 58.678 15.878, 50.500 17 M 136.015 19.979 C 134.848 21.618, 132.610 25.788, 131.042 29.247 C 127.509 37.039, 120.857 56, 121.656 56 C 121.980 56, 121.801 56.563, 121.259 57.250 C 120.717 57.938, 119.992 64.125, 119.649 71 C 118.765 88.737, 114.565 112.276, 110.818 120.499 C 107.823 127.074, 105.800 120.516, 108.043 111.500 C 108.590 109.300, 109.468 102.325, 109.994 96 C 110.520 89.675, 112.249 79.212, 113.836 72.750 C 115.424 66.287, 116.516 59.920, 116.264 58.601 C 115.891 56.648, 113.840 55.336, 105.228 51.543 C 93.323 46.299, 88.802 46.107, 84.259 50.650 C 82 52.909, 81.882 53.551, 82.483 60.285 C 82.837 64.253, 83.436 91.781, 83.813 121.458 L 84.500 175.416 89.168 178.301 C 98.048 183.790, 100.087 180.683, 105.497 153.423 C 110.223 129.612, 114.244 120.819, 123.162 114.795 L 127.166 112.091 130.928 116.045 C 135.773 121.138, 140.326 121.468, 145.234 117.082 C 148.218 114.416, 148.499 113.661, 148.490 108.332 C 148.476 100.678, 146.237 96.308, 137.752 87.376 L 130.954 80.220 134.727 73.874 C 136.802 70.383, 140.368 65.575, 142.651 63.188 C 147.874 57.728, 151.333 57.673, 154.451 63 C 156.522 66.538, 156.944 76.999, 157.394 136 C 157.472 146.161, 155.544 152.176, 149.760 159.817 C 147.079 163.360, 145.100 166.818, 145.363 167.503 C 146.024 169.227, 167.798 180.243, 169.035 179.478 C 170.861 178.350, 174.991 169.136, 176.524 162.769 C 178.803 153.306, 179.415 135.406, 178.088 117 C 176.121 89.714, 176.251 83.512, 178.959 75.508 C 182.010 66.488, 182.229 58.019, 179.489 54.978 C 176.606 51.778, 173.844 50.996, 161.649 49.926 C 143.470 48.330, 141.009 46.052, 140.986 30.800 C 140.972 21.175, 140.357 17, 138.951 17 C 138.503 17, 137.182 18.341, 136.015 19.979 M 76.793 20.743 C 69.151 21.080, 69.055 21.118, 65.549 25.214 C 63.604 27.486, 62.216 29.550, 62.466 29.799 C 62.715 30.048, 69.800 33.213, 78.210 36.831 C 93.003 43.196, 93.815 43.421, 103.174 43.769 C 114.779 44.201, 118.390 42.869, 119.839 37.623 C 120.814 34.089, 120.602 31.307, 118.816 24.250 L 117.740 20 101.120 20.201 C 91.979 20.312, 81.032 20.556, 76.793 20.743 M 28.680 25.708 C 27.372 27.825, 32.822 35.714, 42.745 46.070 C 49.343 52.955, 52.705 57.149, 51.852 57.431 C 51.108 57.676, 47.090 58.782, 42.921 59.889 C 32.698 62.602, 24.440 65.765, 22.977 67.527 C 21.995 68.711, 22.799 70.319, 27.333 76.240 C 36.196 87.812, 38.788 96.381, 37.077 108.459 C 36.152 114.995, 35.907 115.439, 30.637 120.136 C 24.191 125.881, 21.536 131.734, 21.534 140.199 C 21.533 146.617, 23.866 150.845, 28.274 152.416 C 33.911 154.424, 43.906 148.059, 54.667 135.608 C 59.701 129.785, 60.802 128.998, 63.940 128.985 C 71.653 128.952, 71.662 126.900, 64.005 114 C 58.569 104.842, 56 97.780, 56 91.997 C 56 83.273, 62.345 72.905, 70.107 68.945 C 72.248 67.853, 74 66.338, 74 65.579 C 74 64.820, 71.188 61.908, 67.750 59.108 C 58.950 51.941, 56.500 48.013, 56.500 41.075 C 56.500 38.009, 56.848 34.551, 57.273 33.390 C 57.978 31.465, 57.321 31.039, 49.773 28.524 C 41.014 25.607, 29.678 24.093, 28.680 25.708 M 114.680 82.250 C 112.105 96.832, 111.759 100, 112.739 100 C 113.242 100, 114.162 96.513, 114.782 92.250 C 117.678 72.348, 117.610 65.660, 114.680 82.250" stroke="none" fill="black" fill-rule="evenodd"/>
</svg>