<svg xmlns="http://www.w3.org/2000/svg" width="200" height="200" viewBox="0 0 200 200" version="1.1">
	<path d="M 112.181 13.219 C 111.531 13.869, 111 14.686, 111 15.036 C 111 15.386, 106.017 24.409, 99.926 35.086 C 93.788 45.847, 89.137 53.083, 89.490 51.321 C 90.299 47.287, 88.550 37.688, 86.162 33.058 C 82.329 25.629, 72.371 22.729, 63.468 26.449 L 60 27.898 60 24.671 C 60 16.786, 52.849 14.418, 45.400 19.838 C 38.954 24.528, 29.298 35.575, 24.541 43.701 C 16.475 57.479, 16.295 66.453, 24.044 68.374 C 26.887 69.078, 29.250 68.667, 36.284 66.243 L 45 63.238 45 66.909 C 45 71.719, 42.545 81.010, 39.911 86.175 C 38.756 88.438, 35.595 93.337, 32.887 97.061 C 25.957 106.588, 23.790 111.999, 23.426 120.677 C 23.106 128.311, 23.359 128.835, 27.754 129.632 C 35.403 131.019, 48.113 141.685, 49.468 147.854 C 51.370 156.515, 42.411 165.884, 23.379 175.137 C 16.571 178.447, 11 181.571, 11 182.078 C 11 183.357, 22.121 183.234, 27.807 181.892 C 35.877 179.987, 50.142 172.428, 58.763 165.489 C 68.888 157.340, 79.916 144.803, 93.611 125.872 C 109.125 104.427, 108.086 105.520, 114.735 103.654 C 120.656 101.993, 125 101.526, 125 102.550 C 125 105.110, 119.163 112.065, 104.350 127.153 C 87.780 144.031, 84.180 149, 88.525 149 C 93.752 149, 123.962 130.734, 131.500 123.015 C 138.244 116.110, 150.830 105.497, 151.491 106.158 C 152.234 106.900, 144.855 117.344, 136.114 127.922 C 127.078 138.857, 112.746 152.872, 105.807 157.557 C 100.475 161.158, 85.525 173.697, 81.557 177.898 C 79.365 180.217, 78.902 181.302, 79.745 182.145 C 80.588 182.988, 85.487 181.066, 98.920 174.620 C 134.390 157.601, 148.103 154.534, 152 162.747 C 153.173 165.220, 155.240 166.708, 161.490 169.581 C 171.054 173.979, 176.406 174.990, 177.332 172.576 C 177.723 171.557, 175.209 165.608, 170.732 156.960 C 163.707 143.390, 163.500 142.783, 163.500 135.745 C 163.500 129.700, 163.897 127.943, 165.898 125.137 C 168.525 121.454, 177.737 116.558, 184.045 115.492 L 187.879 114.845 180.190 107.172 C 174.209 101.205, 171.255 97.166, 166.897 89 C 157.403 71.207, 152.645 70.170, 130.634 81.096 C 126.308 83.243, 122.556 85, 122.295 85 C 122.035 85, 123.057 83.537, 124.566 81.750 C 129.473 75.937, 130.954 71.312, 130.978 61.725 C 131 53.091, 131.044 52.933, 133.750 51.863 C 136.579 50.744, 172.222 51.381, 175.418 52.607 C 176.704 53.100, 177 52.439, 177 49.075 C 177 43.109, 174.803 38.575, 171.186 37.077 C 168.775 36.079, 165.910 36.048, 157.678 36.935 C 146.895 38.096, 141.666 37.559, 134.469 34.552 C 129.887 32.637, 122 25.186, 122 22.772 C 122 21.687, 120.056 18.828, 117.681 16.419 C 114.360 13.050, 113.089 12.311, 112.181 13.219 M 112.259 19.250 C 110.442 21.555, 88.306 61.412, 84.629 69 C 82.631 73.125, 78.980 80.100, 76.516 84.500 C 74.053 88.900, 72.029 93.443, 72.019 94.595 C 71.966 100.471, 81.711 102.118, 89.505 97.550 C 98.689 92.167, 106.183 80.424, 110.029 65.386 C 112.717 54.875, 112.645 54, 109.082 54 C 100.868 54, 101 50.540, 109.597 40.423 C 113.226 36.154, 116.900 31.181, 117.762 29.372 C 119.277 26.195, 119.236 25.947, 116.529 22.042 C 113.344 17.445, 113.567 17.591, 112.259 19.250 M 49.002 20.768 C 44.207 23.129, 35.070 32.621, 29.436 41.096 C 21.845 52.515, 19.058 62.143, 22.514 65.012 C 24.696 66.823, 31.789 65.604, 39.974 62.011 C 43.748 60.355, 47.097 59, 47.418 59 C 48.324 59, 48.091 65.841, 46.940 73 C 45.607 81.294, 42.495 88.074, 35.402 98.139 C 28.747 107.582, 25.992 114.224, 26.020 120.761 L 26.040 125.500 32.785 128.667 C 40.231 132.163, 48.267 138.682, 50.534 143.065 C 52.410 146.694, 52.418 154.290, 50.550 157.904 C 48.104 162.634, 38.609 170.468, 29.329 175.414 C 20.742 179.990, 20.622 180.102, 24.961 179.514 C 30.541 178.757, 39.366 175.229, 46.622 170.855 C 61.089 162.132, 74.644 147.820, 94.151 120.669 C 103.278 107.965, 107.095 103.440, 109.552 102.414 C 114.509 100.343, 122.176 98.827, 124.609 99.438 C 131.269 101.109, 126.940 108.177, 106.653 128.750 C 97.840 137.688, 90.953 145, 91.348 145 C 92.582 145, 101.812 140.098, 112.277 133.884 C 118.724 130.056, 125.552 124.847, 131.323 119.355 C 143.717 107.561, 149.879 102.839, 152.403 103.204 C 156.936 103.858, 153.509 110.790, 140.905 126.465 C 131.301 138.408, 116.666 152.781, 106 160.744 C 100.775 164.644, 94.025 170.135, 91 172.945 L 85.500 178.055 95.575 173.106 C 120.094 161.063, 134.415 156, 143.960 156 C 150.131 156, 152.482 157.098, 154.448 160.899 C 155.474 162.883, 158.218 164.831, 163.562 167.369 C 175.836 173.198, 176.073 172.872, 169.118 159.750 C 159.342 141.307, 157.917 132.256, 163.470 123.866 C 165.661 120.555, 173.386 115.827, 180.104 113.686 C 181.343 113.291, 180.431 111.808, 176.104 107.174 C 172.863 103.704, 168.181 96.878, 165 90.984 C 161.975 85.379, 158.427 79.940, 157.115 78.897 C 154.240 76.610, 148.823 76.445, 143.083 78.471 C 139.085 79.881, 124.090 87.267, 115.319 92.147 C 113.020 93.426, 110.818 94.151, 110.426 93.760 C 110.034 93.368, 112.834 89.999, 116.648 86.273 C 126.140 77.002, 128.477 71.950, 128.237 61.224 C 128.014 51.236, 129.153 49.579, 136.989 48.501 C 142.093 47.800, 168.801 48.661, 172.250 49.639 C 174.856 50.378, 174.659 43.659, 171.997 40.997 C 170.116 39.116, 169.117 39.031, 155.747 39.610 C 142.723 40.175, 141.015 40.043, 135.853 38.080 C 132.747 36.900, 128.206 34.173, 125.762 32.022 L 121.318 28.110 119.742 31.305 C 118.875 33.062, 115.124 38.100, 111.408 42.500 L 104.650 50.500 109.825 50.802 C 114.707 51.087, 115 51.257, 114.993 53.802 C 114.980 58.942, 110.907 73.484, 107.492 80.583 C 100.962 94.160, 90.096 103, 79.939 103 C 76.700 103, 74.446 102.352, 72.582 100.886 C 71.104 99.723, 69.754 98.936, 69.583 99.136 C 68.243 100.700, 66.779 104.920, 65.550 110.764 C 62.777 123.946, 57.527 134.857, 55.101 132.480 C 53.738 131.145, 55.580 124.285, 60.466 112.500 C 63.607 104.923, 64.278 101.998, 64.708 94 C 65.329 82.439, 63.157 68.647, 59.228 59.197 C 56.902 53.603, 56.031 52.506, 53.374 51.817 C 49.356 50.776, 47.641 48.657, 48.248 45.482 C 48.514 44.091, 48.342 42.711, 47.866 42.417 C 47.390 42.123, 47 41.459, 47 40.941 C 47 39.095, 51.565 40.112, 55.500 42.833 C 58.952 45.221, 59.520 46.141, 59.645 49.550 C 59.725 51.723, 61.156 57.325, 62.825 62 C 65.747 70.186, 67.874 81.573, 68.115 90.322 L 68.230 94.500 68.927 90.936 C 69.311 88.975, 71.213 85.291, 73.154 82.749 C 83.299 69.463, 88.598 52.650, 86.218 41.302 C 83.825 29.894, 77.023 25.398, 66.699 28.399 C 63.620 29.294, 60.827 30.470, 60.492 31.013 C 60.156 31.556, 59.320 32, 58.633 32 C 57.804 32, 57.385 30.347, 57.385 27.084 C 57.385 22.257, 55.856 18.978, 53.628 19.023 C 53.007 19.035, 50.926 19.820, 49.002 20.768 M 50.766 45.221 C 50.067 47.118, 50.972 49, 52.583 49 C 54.338 49, 54.339 48.030, 52.586 45.721 C 51.601 44.421, 51.109 44.286, 50.766 45.221" stroke="none" fill="black" fill-rule="evenodd"/>
</svg>