<svg xmlns="http://www.w3.org/2000/svg" width="200" height="200" viewBox="0 0 200 200" version="1.1">
	<path d="M 144.664 12.990 C 139.735 17.318, 134.369 28.198, 127.890 47 C 122.237 63.405, 122.188 63.498, 119.352 63.217 C 117.783 63.062, 115.213 62.424, 113.641 61.801 L 110.781 60.667 111.468 49.083 C 111.845 42.712, 112.809 32.377, 113.609 26.115 C 115.059 14.771, 114.784 11.761, 112.633 15.434 C 109.797 20.276, 103.545 25.949, 98.789 27.995 C 95.045 29.606, 91.431 30.256, 85.646 30.358 C 79.872 30.461, 77.540 30.879, 77.209 31.871 C 76.837 32.990, 78.571 33.163, 86.626 32.812 C 97.263 32.348, 102.555 30.481, 108.378 25.140 L 111.255 22.500 110.665 26 C 110.341 27.925, 109.818 33.550, 109.503 38.500 C 109.189 43.450, 108.686 50.308, 108.387 53.740 L 107.843 59.980 96.671 63.440 C 82.273 67.899, 76.074 69.408, 75.308 68.641 C 74.969 68.303, 76.111 64.946, 77.846 61.183 C 83.599 48.701, 81.402 39.964, 70.647 32.557 C 66.588 29.762, 64.782 27.717, 63.573 24.552 C 61.955 20.315, 58.894 16.785, 55.948 15.756 C 50.644 13.905, 42.981 22.871, 38.592 36.063 C 31.886 56.221, 33.006 74.237, 41.447 82 C 43.965 84.316, 44.785 84.478, 52.583 84.203 C 59.036 83.975, 61 84.213, 61 85.225 C 61 87.773, 54.613 94.241, 39.942 106.548 C 25.217 118.902, 21.612 122.563, 22.601 124.163 C 23.953 126.351, 31.330 123.926, 51.637 114.618 C 57.178 112.078, 62.050 110, 62.464 110 C 64.066 110, 61.674 115.730, 58.080 120.500 C 56.008 123.250, 47.886 132.172, 40.032 140.326 C 29.466 151.296, 26.044 155.444, 26.876 156.276 C 28.423 157.823, 33.536 155.218, 51.098 143.937 C 65.284 134.825, 65.438 134.756, 68.954 135.984 C 74.881 138.054, 81.719 142.907, 82.972 145.933 C 86.072 153.417, 76.167 160.855, 49 171.445 C 28.014 179.626, 21.781 182.372, 21.632 183.500 C 21.445 184.914, 31.463 186.070, 38 185.389 C 46.991 184.452, 55.387 182.273, 73.939 176.063 C 83.598 172.830, 94.875 169.681, 99 169.066 C 111.535 167.197, 120.764 169.970, 128.453 177.915 C 131.802 181.376, 133.024 181.999, 136.453 181.992 C 146.792 181.973, 163.593 177.681, 168.529 173.798 C 176.562 167.480, 171.315 158.998, 156.181 153.840 C 150.894 152.038, 147.255 151.556, 138.738 151.531 C 129.754 151.505, 128.267 151.289, 129.738 150.224 C 130.707 149.523, 135.440 145.048, 140.255 140.279 C 150.164 130.467, 153.895 124.260, 152.166 120.464 C 151.134 118.199, 151.206 118.128, 153.605 119.040 C 161.141 121.905, 167 118.547, 167 111.364 C 167 104.021, 164.141 97.985, 157.519 91.348 L 151.381 85.196 154.604 82.624 C 156.377 81.210, 158.977 77.678, 160.383 74.776 C 165.031 65.182, 166.163 58.748, 166.732 38.685 L 167.265 19.869 163.883 16.349 C 156.954 9.140, 150.362 7.988, 144.664 12.990 M 150 12.704 C 146.825 13.859, 142.673 18.769, 139.394 25.247 C 135.471 32.995, 125.682 61.023, 126.589 61.908 C 126.922 62.234, 128.493 60.952, 130.079 59.059 C 132.790 55.826, 136.042 47.594, 137.510 40.250 C 138.162 36.984, 139.725 35.922, 140.454 38.250 C 140.669 38.938, 141.135 48.167, 141.491 58.759 L 142.136 78.019 131.974 77.353 C 121.880 76.692, 120.076 77.136, 120.015 80.298 C 119.976 82.353, 126.204 83.672, 131.242 82.676 C 134.913 81.950, 138 82.013, 142.301 82.901 C 148.205 84.121, 148.305 84.103, 151.884 81.219 C 160.298 74.436, 164 60.667, 164 36.159 L 164 20.233 159.997 16.616 C 157.796 14.627, 155.582 13, 155.079 13 C 154.575 13, 153.564 12.811, 152.832 12.579 C 152.099 12.348, 150.825 12.404, 150 12.704 M 50.598 20.102 C 44.476 24.917, 38.127 42.537, 37.303 57 C 36.659 68.297, 37.863 73.636, 42.158 78.527 L 45.231 82.028 52.917 81.387 C 59.432 80.843, 60.867 81.010, 62.335 82.478 C 65.738 85.881, 62.454 90.760, 49.023 102.257 C 29.238 119.191, 26.923 121.256, 27.298 121.631 C 27.771 122.105, 38.061 117.874, 51.815 111.550 C 61.829 106.946, 62.188 106.861, 64.122 108.610 C 67.905 112.034, 64.291 118.564, 50.669 132.916 C 35.569 148.828, 32.431 152.322, 34 151.478 C 34.825 151.035, 42.082 146.471, 50.126 141.336 C 58.170 136.201, 65.305 132, 65.983 132 C 68.887 132, 80.052 138.295, 82.899 141.538 C 87.866 147.194, 87.304 151.124, 80.601 157.616 C 74.327 163.693, 64.770 168.607, 44.034 176.418 C 36.282 179.339, 29.652 182.014, 29.303 182.364 C 28.170 183.497, 37.627 183.038, 45.179 181.593 C 49.224 180.819, 61.751 177.127, 73.017 173.389 C 93.463 166.604, 93.521 166.591, 105 166.546 C 115.820 166.503, 116.804 166.669, 121.648 169.353 C 124.480 170.923, 128.424 173.874, 130.413 175.911 L 134.030 179.615 141.265 178.847 C 156.087 177.276, 166.392 173.588, 169.378 168.786 C 170.199 167.466, 169.969 166.432, 168.378 164.286 C 163.332 157.482, 149.615 153.407, 134.619 154.259 C 129.604 154.544, 124.713 155.100, 123.750 155.496 C 122.553 155.987, 122 155.751, 122 154.751 C 122 153.946, 126.358 149.511, 131.684 144.894 C 141.505 136.382, 150 126.233, 150 123.012 C 150 119.541, 147.123 118.499, 137.596 118.520 C 132.593 118.531, 125.013 118.907, 120.750 119.355 L 113 120.171 112.994 124.835 C 112.987 131.333, 111.277 136.814, 108.343 139.748 C 106.198 141.893, 105.179 142.176, 101.024 141.776 C 95.963 141.290, 88.418 137.827, 81.250 132.701 C 76.062 128.990, 75.531 126.456, 80.135 127.377 C 84.535 128.257, 90.510 126.414, 94.289 123.011 C 97.252 120.343, 97.375 119.994, 95.882 118.478 C 94.715 117.294, 94.398 115.652, 94.742 112.594 C 95.310 107.554, 93.143 102.727, 87.290 96 C 77.242 84.450, 77.512 80.656, 88.500 79.011 C 92.285 78.444, 92.092 78.348, 84.899 77.234 C 72.321 75.285, 65.215 71.166, 61.246 63.521 C 58.628 58.479, 58.466 47.550, 60.867 38.054 C 62.928 29.906, 62.934 29.638, 61.144 25.592 C 59.105 20.984, 56.519 18, 54.563 18 C 53.852 18, 52.067 18.946, 50.598 20.102 M 64.495 34.250 C 63.066 38.293, 62.046 45.387, 62.024 51.434 C 61.996 59.486, 64.499 65.795, 68.990 68.993 C 72.475 71.474, 72.942 71.494, 72.325 69.133 C 72.056 68.107, 73.277 64.414, 75.037 60.927 C 80.484 50.137, 79.104 41.985, 70.814 35.980 C 66.279 32.695, 65.154 32.387, 64.495 34.250 M 137.118 52.079 C 136.898 55.016, 131.052 62.657, 127.605 64.514 C 125.469 65.664, 123.983 67.327, 123.659 68.929 C 123.374 70.343, 122.835 72.287, 122.463 73.250 C 121.850 74.834, 122.605 75, 130.393 75 L 139 75 138.882 65.750 C 138.780 57.772, 137.459 47.533, 137.118 52.079 M 93.500 67.028 C 86.900 69.128, 80.150 71.154, 78.500 71.531 L 75.500 72.215 78 73.237 C 79.375 73.798, 86.688 74.482, 94.250 74.757 L 108 75.256 108 69.128 C 108 64.837, 107.625 63.031, 106.750 63.105 C 106.063 63.162, 100.100 64.928, 93.500 67.028 M 111 69.393 L 111 75 114.902 75 C 118.380 75, 118.924 74.657, 119.902 71.851 C 121.561 67.092, 121.287 66.310, 117.750 65.716 C 115.963 65.416, 113.713 64.859, 112.750 64.478 C 111.209 63.869, 111 64.456, 111 69.393 M 115.500 78 C 113.592 78.820, 113.603 78.863, 115.750 78.930 C 116.987 78.968, 118 78.550, 118 78 C 118 77.450, 117.888 77.032, 117.750 77.070 C 117.612 77.109, 116.600 77.527, 115.500 78 M 87.413 81.943 C 80.810 83.521, 80.941 84.292, 89.540 94.500 C 95.842 101.982, 98.319 107.477, 97.733 112.676 C 96.952 119.605, 99.840 118.404, 104.799 109.736 C 109.178 102.084, 111.093 96, 109.125 96 C 108.392 96, 108 93.389, 108 88.500 L 108 81 99.250 81.102 C 94.438 81.159, 89.111 81.537, 87.413 81.943 M 111 85.508 C 111 89.723, 111.127 89.938, 112.943 88.804 C 115.424 87.254, 116.572 82.979, 114.808 81.860 C 111.964 80.057, 111 80.981, 111 85.508 M 118.667 84.667 C 117.452 85.881, 117.976 86.947, 119.500 86.362 C 120.325 86.045, 121 85.384, 121 84.893 C 121 83.845, 119.622 83.711, 118.667 84.667 M 136.250 85.689 C 137.213 85.941, 138.787 85.941, 139.750 85.689 C 140.713 85.438, 139.925 85.232, 138 85.232 C 136.075 85.232, 135.287 85.438, 136.250 85.689 M 122.877 87.784 C 121.615 88.341, 124.065 91.130, 133.877 100.306 C 147.062 112.637, 156.762 118.845, 160.830 117.554 C 165.943 115.931, 165.247 105.513, 159.485 97.408 C 155.653 92.018, 148.471 86.716, 146.046 87.485 C 143.578 88.269, 137.149 88.347, 130.500 87.675 C 127.200 87.342, 123.769 87.391, 122.877 87.784 M 114.609 95.020 C 113.545 97.678, 113 102.107, 113 108.087 L 113 117.134 123.750 116.317 C 129.662 115.868, 137.425 115.610, 141 115.745 L 147.500 115.990 142.660 111.840 C 139.998 109.558, 135.982 105.729, 133.734 103.331 C 128.495 97.742, 119.765 91, 117.766 91 C 116.891 91, 115.517 92.749, 114.609 95.020 M 106.297 112.520 L 103.095 118 106.547 118 L 110 118 110 112.500 C 110 109.475, 109.888 107.009, 109.750 107.020 C 109.612 107.031, 108.059 109.506, 106.297 112.520 M 98.199 123.342 C 94.778 126.943, 88.898 129.991, 85.290 130.032 C 82.576 130.063, 82.554 130.106, 84.500 131.613 C 89.764 135.690, 98.224 139.102, 102.328 138.804 C 105.987 138.537, 106.705 138.070, 108.171 135 C 109.090 133.075, 109.990 129.045, 110.171 126.045 L 110.500 120.590 105.699 120.545 C 101.692 120.507, 100.452 120.970, 98.199 123.342" stroke="none" fill="black" fill-rule="evenodd"/>
</svg>