<svg xmlns="http://www.w3.org/2000/svg" width="200" height="200" viewBox="0 0 200 200" version="1.1">
	<path d="M 92.542 17.466 C 88.110 18.655, 84 21.816, 84 24.034 C 84 24.481, 85.184 26.253, 86.630 27.972 C 89.451 31.324, 96.450 35.252, 104.454 37.975 L 109.408 39.660 104.454 40.890 C 96.044 42.979, 89.097 46.616, 87.999 49.503 C 86.163 54.333, 90.024 58.917, 102.558 66.786 C 105.339 68.533, 108.669 71.084, 109.957 72.455 C 111.985 74.613, 112.083 75.031, 110.685 75.567 C 109.643 75.967, 106.129 74.069, 100.785 70.220 C 82.316 56.920, 66.496 47.724, 57.393 44.999 L 53.285 43.769 56.682 38.134 C 62.557 28.389, 60.100 25.338, 48.464 27.927 C 45.694 28.543, 40.429 29.216, 36.763 29.422 C 24.921 30.087, 18.134 35.861, 14.339 48.500 C 12.006 56.270, 12.009 80.529, 14.345 107.855 C 16.246 130.082, 16.415 141.850, 14.963 150.798 C 14.401 154.261, 14.225 157.555, 14.573 158.118 C 14.922 158.682, 18.408 156.034, 22.360 152.202 C 27.621 147.100, 32.005 144.013, 38.926 140.537 C 44.102 137.938, 49.655 134.841, 51.266 133.655 C 55.405 130.610, 58.641 124.545, 60.070 117.154 C 61.634 109.069, 60.688 86.997, 58.071 70.500 C 56.263 59.108, 56.254 58.377, 57.894 56.063 C 63.150 48.649, 64.117 53.213, 64.978 89.500 C 65.568 114.394, 66.026 121.239, 67.305 124.250 C 68.181 126.313, 69.596 128, 70.449 128 C 71.302 128, 72 128.161, 72 128.359 C 72 128.556, 70.174 133.619, 67.943 139.609 C 62.648 153.822, 58 170.391, 58 175.051 C 58 179.522, 59.993 181.609, 62.818 180.097 C 65.819 178.491, 73.627 169.421, 80.333 159.750 C 83.670 154.938, 86.652 151, 86.959 151 C 87.267 151, 88.318 154.557, 89.295 158.905 C 90.272 163.253, 92.083 168.316, 93.318 170.155 C 96.521 174.924, 99.635 174.965, 107.127 170.341 C 112.294 167.151, 114.329 166.490, 119.959 166.172 C 128.194 165.707, 133.861 167.899, 144.902 175.820 L 152.471 181.251 159.303 180.678 C 167.489 179.992, 171.880 177.703, 174.255 172.884 C 176.914 167.490, 175.263 161.398, 165.808 141.720 C 154.275 117.720, 154.023 111.142, 164.500 107.555 C 169.797 105.742, 169.555 103.989, 163.806 102.529 C 158.327 101.138, 155.902 99.418, 156.655 97.456 C 156.951 96.687, 160.861 93.631, 165.346 90.666 C 169.831 87.701, 174.342 84.330, 175.371 83.175 C 179.510 78.530, 174.532 75.599, 159.664 73.926 L 148.982 72.724 152.970 69.791 C 164.128 61.585, 181.252 31.790, 177.128 27.756 C 174.687 25.369, 166.118 36.036, 148.616 63.250 C 144.213 70.095, 142.486 72, 140.681 72 C 137.840 72, 133.626 67.745, 131.553 62.782 C 128.912 56.459, 129.302 55.735, 136.750 53.153 C 145.151 50.240, 150 46.721, 150 43.538 C 150 40.133, 145.482 36.790, 135.016 32.452 C 130.014 30.379, 125.718 28.354, 125.470 27.951 C 125.221 27.549, 126.476 26.946, 128.259 26.613 C 132.820 25.759, 159.067 24.033, 167.750 24.015 C 173.521 24.003, 175 23.694, 175 22.500 C 175 21.675, 174.662 20.991, 174.250 20.980 C 173.838 20.969, 170.350 20.500, 166.500 19.937 C 139.769 16.028, 102.535 14.784, 92.542 17.466 M 102.500 18.576 C 84.627 21.052, 82.680 24.702, 95.747 31.236 C 99.461 33.093, 105.549 35.484, 109.276 36.551 C 118.438 39.173, 117.912 40.827, 107.184 43.134 C 98.218 45.063, 90.704 48.583, 90.223 51.080 C 89.736 53.612, 93.714 57.750, 101.854 63.178 C 106.059 65.983, 110.513 69.193, 111.750 70.313 C 114.114 72.452, 114.699 75.901, 112.989 77.611 C 112.307 78.293, 114.112 80.334, 118.529 83.873 L 125.082 89.124 128.090 85.904 C 131.985 81.734, 131.593 79.034, 126.750 76.668 C 124.688 75.660, 123 74.422, 123 73.918 C 123 73.413, 125.778 73, 129.174 73 L 135.349 73 133.223 70.738 C 130.850 68.211, 127.537 61.102, 126.565 56.448 C 125.948 53.491, 126.078 53.358, 130.746 52.162 C 137.506 50.429, 145.919 46.373, 146.638 44.501 C 147.649 41.866, 144.285 39.340, 133.958 34.982 C 128.534 32.694, 123.574 30.192, 122.936 29.423 C 119.681 25.501, 125.558 23.589, 145 22.245 L 156.500 21.451 144.500 20.227 C 131.229 18.874, 107.176 17.928, 102.500 18.576 M 49.500 30.586 C 46.200 31.293, 41.475 31.903, 39 31.941 C 27.967 32.112, 21.885 36.341, 18.061 46.500 C 14.794 55.177, 14.318 71.218, 16.532 98 C 17.510 109.825, 18.340 126.764, 18.377 135.643 L 18.444 151.786 23.367 147.360 C 26.075 144.926, 33.214 140.415, 39.233 137.336 C 56.778 128.362, 58.688 124.184, 57.643 97.078 C 57.291 87.960, 56.173 75.438, 55.159 69.251 L 53.315 58.001 55.735 54.440 C 57.066 52.481, 59.074 50.538, 60.197 50.123 C 61.901 49.493, 61.432 49.107, 57.369 47.796 C 54.136 46.752, 52.094 46.552, 51.292 47.199 C 49.140 48.938, 40.136 68.324, 38.546 74.644 C 36.454 82.960, 36.501 83.573, 40.500 99.859 C 45.117 118.664, 45.039 122.915, 40.132 119.850 C 36.695 117.704, 33.650 105.085, 33.411 92 C 33.295 85.675, 32.676 76.728, 32.035 72.118 C 29.546 54.231, 34.081 44.275, 45.203 43.207 C 50.895 42.660, 51.382 42.263, 55.454 34.858 C 58.532 29.261, 57.877 28.791, 49.500 30.586 M 167.846 39.692 C 161.728 47.838, 151.837 62.699, 148.981 68.035 L 147.769 70.301 150.795 68.146 C 154.143 65.762, 159.977 58.978, 164.801 51.860 C 168.907 45.800, 175.226 33.177, 174.797 31.890 C 174.612 31.336, 171.484 34.847, 167.846 39.692 M 39.942 47.472 C 35.250 50.024, 33.106 58.691, 34.469 69.601 L 35.194 75.400 37.586 68.559 C 38.901 64.797, 41.783 58.373, 43.989 54.283 C 46.195 50.193, 48 46.656, 48 46.423 C 48 45.447, 42.302 46.188, 39.942 47.472 M 65.719 55.250 C 66.823 58.411, 67.409 67.313, 68.005 90 C 68.776 119.379, 69.268 125, 71.066 125 C 71.524 125, 73.096 123.429, 74.560 121.510 C 76.025 119.590, 77.587 118.245, 78.032 118.520 C 78.477 118.795, 77.016 123.628, 74.785 129.260 C 67.993 146.407, 61.854 166.168, 61.352 172.500 L 60.877 178.500 67.189 171.862 C 70.660 168.211, 76.650 160.462, 80.500 154.643 C 84.350 148.823, 87.806 144.048, 88.179 144.031 C 88.553 144.014, 89.364 146.588, 89.981 149.750 C 91.776 158.936, 94.893 168.750, 96.539 170.396 C 98.298 172.155, 99.361 171.841, 106.775 167.377 C 112.676 163.823, 118.829 162.445, 125.061 163.281 C 130.343 163.990, 140.273 168.782, 146.973 173.855 C 151.753 177.475, 153.083 177.993, 157.473 177.944 C 164.157 177.869, 168.865 176.104, 171.360 172.738 C 173.238 170.206, 173.309 169.507, 172.222 164.321 C 171.569 161.211, 167.402 151.157, 162.961 141.979 C 153.928 123.313, 152.390 117.015, 155.427 111.141 C 156.345 109.366, 158.207 107.407, 159.566 106.788 L 162.035 105.663 158.268 103.554 C 150.950 99.459, 152.728 95.714, 166.180 86.882 C 170.518 84.034, 173.906 81.208, 173.707 80.602 C 172.999 78.437, 165.325 76.863, 154.599 76.683 L 143.699 76.500 139.530 83.310 C 135.398 90.061, 135.371 90.168, 136.382 95.743 C 137.152 99.991, 137.107 101.464, 136.200 101.767 C 135.328 102.057, 135 106.912, 135 119.534 C 135 144.128, 132.977 151.600, 128.022 145.301 C 126.099 142.856, 121.847 130.557, 120.391 123.229 C 119.378 118.128, 118.410 118.578, 117.051 124.785 C 115.356 132.526, 110.900 146, 110.034 146 C 108.236 146, 108.348 144.328, 110.587 137.745 C 111.914 133.843, 112.989 130.391, 112.976 130.075 C 112.963 129.759, 111.109 132.798, 108.856 136.830 C 106.042 141.864, 104.436 143.836, 103.728 143.128 C 103.020 142.420, 104.641 138.625, 108.904 131.012 C 114.211 121.535, 115.067 119.316, 114.806 115.714 C 114.551 112.197, 114.122 111.446, 112.214 111.176 C 110.957 110.997, 107.948 112.012, 105.527 113.431 C 102.746 115.061, 100.887 115.627, 100.480 114.968 C 99.711 113.723, 115.914 96.829, 117.147 97.591 C 117.616 97.881, 118.035 99.104, 118.077 100.309 C 118.119 101.514, 118.694 104.293, 119.355 106.485 L 120.556 110.471 124.665 103.344 L 128.773 96.218 126.772 94.216 L 124.770 92.214 120.135 94.347 C 116.442 96.045, 113.566 96.481, 105.985 96.489 C 97.266 96.499, 95.918 96.229, 89.880 93.259 C 85.766 91.236, 81.450 88.041, 78.395 84.759 L 73.500 79.500 81 78.881 C 85.125 78.540, 91.650 78.196, 95.500 78.115 C 99.350 78.035, 103.032 77.631, 103.683 77.217 C 104.433 76.740, 100.957 73.684, 94.183 68.863 C 84.413 61.910, 66.534 51, 64.909 51 C 64.538 51, 64.902 52.913, 65.719 55.250 M 132.989 77.979 C 134.472 80.750, 133.341 84.299, 129.937 87.560 C 127.718 89.686, 127.296 90.652, 128.141 91.670 C 128.748 92.401, 129.579 93, 129.987 93 C 130.682 93, 140 77.665, 140 76.523 C 140 76.235, 138.184 76, 135.965 76 C 132.253 76, 132.015 76.159, 132.989 77.979 M 103 80.051 C 100.525 80.491, 94.024 80.885, 88.554 80.926 L 78.608 81 81.893 84.390 C 83.700 86.254, 87.501 89.066, 90.339 90.640 C 95.053 93.252, 96.367 93.500, 105.500 93.500 C 112.388 93.500, 116.572 93.017, 118.946 91.949 L 122.392 90.398 115.249 84.699 C 111.321 81.564, 107.970 79.056, 107.803 79.125 C 107.637 79.194, 105.475 79.611, 103 80.051 M 36.610 100.425 C 36.928 103.684, 38.001 108.859, 38.994 111.925 C 41.764 120.473, 41.382 114.080, 38.492 103.500 C 36.080 94.673, 36.044 94.614, 36.610 100.425 M 129.824 100 C 128.957 101.375, 126.646 105.287, 124.688 108.694 L 121.128 114.888 123.992 125.804 C 125.567 131.807, 127.606 138.470, 128.523 140.610 C 130.009 144.078, 130.277 144.278, 130.986 142.457 C 132.159 139.448, 133.184 105.084, 132.223 101 L 131.399 97.500 129.824 100 M 112.562 104.936 L 109.626 108 112.113 108 C 113.481 108, 115.140 108.540, 115.800 109.200 C 116.733 110.133, 116.978 109.967, 116.900 108.450 C 116.845 107.377, 116.507 105.459, 116.149 104.186 L 115.497 101.871 112.562 104.936" stroke="none" fill="black" fill-rule="evenodd"/>
</svg>