<svg xmlns="http://www.w3.org/2000/svg" width="200" height="200" viewBox="0 0 200 200" version="1.1">
	<path d="M 38.008 17.169 C 27.538 22.603, 25.952 31.700, 31.089 56.860 C 32.140 62.008, 33 66.846, 33 67.610 C 33 69.703, 30.708 69.291, 26.510 66.443 C 20.906 62.640, 18.894 64.032, 23.160 68.760 C 28.178 74.322, 30.655 78.788, 32.598 85.777 C 35.129 94.883, 33.711 101.027, 24.865 119.279 C 15.398 138.813, 14.692 145.392, 20.998 155.336 L 23.972 160.026 32.736 154.177 C 37.556 150.960, 46.505 145.336, 52.621 141.678 C 58.738 138.020, 65.427 133.163, 67.486 130.883 C 70.891 127.115, 71.186 126.339, 70.734 122.335 C 70.141 117.070, 65.964 110.490, 56.637 100.126 C 52.986 96.070, 50 92.326, 50 91.806 C 50 89.187, 61.450 74.662, 65.750 71.827 C 72.071 67.658, 75.745 70.926, 78.158 82.864 C 79.920 91.575, 79.804 130.588, 77.986 141 C 76.047 152.105, 76.190 166.748, 78.275 170.662 C 82.971 179.474, 88.703 179.968, 111.384 173.517 C 120.081 171.044, 130.586 168.749, 134.822 168.397 L 142.500 167.759 147.842 173.906 C 153.389 180.289, 159.118 184, 163.425 184 C 166.875 184, 172.344 178.925, 175.022 173.238 C 176.250 170.632, 178.181 164.225, 179.313 159 C 181.448 149.149, 181.475 147.874, 180.709 94 C 180.604 86.575, 180.911 71.725, 181.393 61 C 182.631 33.417, 180.527 25.274, 171.335 22.071 C 167.427 20.710, 166.748 20.804, 156.867 24.071 C 146.841 27.387, 145.990 27.499, 131 27.485 C 105.746 27.460, 90.468 26.122, 83.500 23.327 C 72.124 18.763, 60.602 15.895, 51.500 15.363 C 43.432 14.892, 42.035 15.078, 38.008 17.169 M 43.017 18.750 C 43.043 19.935, 55 26.068, 55 24.896 C 55 22.540, 49.126 18, 46.077 18 C 44.385 18, 43.007 18.337, 43.017 18.750 M 56.827 23.167 C 59.063 27.888, 60.338 29.109, 67.927 33.801 C 72.642 36.717, 76.950 38.986, 77.500 38.844 C 78.050 38.702, 79.044 36.992, 79.709 35.043 C 80.374 33.094, 82.053 30.517, 83.440 29.315 L 85.961 27.129 80.731 25.177 C 74.081 22.695, 62.566 19.317, 57.900 18.480 L 54.300 17.834 56.827 23.167 M 35.241 22.250 C 30.402 27.415, 29.766 36.128, 33.049 52.239 C 34.176 57.769, 34.963 64.365, 34.799 66.897 C 34.526 71.100, 34.277 71.498, 31.939 71.475 L 29.377 71.450 32.239 77 C 38.685 89.499, 37.716 98.679, 27.756 119.440 C 21.482 132.519, 20.489 135.349, 20.165 141.080 C 19.868 146.337, 20.223 148.518, 21.917 151.837 C 23.085 154.127, 24.277 156, 24.565 156 C 24.854 156, 28.332 153.830, 32.295 151.178 C 36.258 148.525, 44.515 143.350, 50.645 139.677 C 56.774 136.004, 63.244 131.640, 65.022 129.979 C 67.931 127.262, 68.206 126.522, 67.765 122.609 C 67.189 117.495, 64.204 112.889, 53.635 100.810 L 46.032 92.120 50.965 84.745 C 56.680 76.199, 64.616 68.385, 68.594 67.387 C 81.122 64.243, 85.915 95.104, 80.335 142.984 C 77.884 164.020, 79.610 172.970, 86.487 174.869 C 90.518 175.982, 95.957 174.983, 115 169.630 C 126.689 166.345, 127.175 166.112, 122.500 166.036 C 116.295 165.937, 110.252 163.276, 106.733 159.095 C 100.911 152.176, 99.805 140.915, 102.500 116 C 104.915 93.671, 104.569 85.978, 100.575 73.238 C 98.691 67.230, 96.855 60.781, 96.494 58.907 C 95.957 56.116, 94.576 54.623, 88.855 50.648 C 85.013 47.980, 81.672 45.994, 81.430 46.236 C 81.004 46.663, 82.508 55.827, 83.546 59.130 C 84.230 61.307, 77.515 64, 71.403 64 C 67.734 64, 66.295 63.449, 64.017 61.171 C 60.605 57.759, 59.332 53.558, 57.859 40.849 C 57.244 35.541, 56.461 30.781, 56.120 30.271 C 55.428 29.236, 39.193 20, 38.066 20 C 37.672 20, 36.400 21.012, 35.241 22.250 M 157.536 26.552 C 153.706 27.914, 147.716 29.556, 144.225 30.199 L 137.877 31.368 143.189 32.723 C 150.017 34.464, 155.142 37.882, 158.127 42.683 C 160.106 45.866, 160.485 47.745, 160.407 54 C 160.310 61.824, 156.794 73.609, 154.905 72.441 C 154.386 72.121, 152.894 69.753, 151.588 67.179 C 145.277 54.741, 134.342 43.978, 128.054 44.015 C 122.559 44.048, 122.871 45.520, 129.390 50.306 C 138.398 56.920, 156.042 75.638, 159.507 82.256 L 162.389 87.761 159.592 96.877 C 158.054 101.891, 156.504 109.257, 156.148 113.247 C 155.792 117.236, 155.078 120.421, 154.563 120.323 C 154.048 120.226, 152.808 118.063, 151.808 115.517 C 147.531 104.630, 134.152 87.667, 120.185 75.423 C 111.526 67.832, 110 66.933, 110 69.418 C 110 70.198, 109.727 71.548, 109.393 72.418 C 108.922 73.646, 109.464 74, 111.820 74 C 113.888 74, 115.499 74.819, 116.877 76.570 C 121.134 81.982, 120.711 91.943, 114.996 120.857 C 111.945 136.292, 111.258 144, 112.933 144 C 113.446 144, 115.525 141.975, 117.554 139.500 C 119.582 137.025, 121.637 135, 122.120 135 C 124.090 135, 122.734 137.765, 118.529 142.325 C 115.265 145.864, 113.469 147.063, 111.790 146.825 C 108.231 146.320, 108.390 139.950, 112.470 119.429 C 119.301 85.082, 118.219 74.472, 108.163 77.198 C 105.555 77.905, 104.981 78.474, 105.539 79.801 C 107.158 83.656, 107.147 97.932, 105.514 113.504 C 103.214 135.442, 103.689 148.965, 106.963 154.750 C 111.222 162.275, 121.543 164.888, 135.674 162.020 C 138.328 161.482, 142.646 160.778, 145.269 160.456 C 152.042 159.626, 155.504 156.426, 155.364 151.122 C 155.194 144.605, 150.482 136.425, 141.857 127.671 C 135.128 120.842, 133.723 119.853, 131.534 120.402 C 129.638 120.878, 129 120.648, 129 119.488 C 129 117.203, 131.758 116.543, 134.817 118.096 C 136.293 118.845, 140.682 122.639, 144.571 126.527 C 157.209 139.162, 161.595 152.559, 155.191 158.962 C 152.400 161.754, 149.420 162.659, 136 164.792 L 130.500 165.666 137.873 165.786 C 144.374 165.891, 145.429 166.177, 146.801 168.203 C 149.991 172.912, 157.663 179.877, 160.424 180.570 C 161.995 180.965, 164.455 180.874, 165.890 180.370 C 169.480 179.107, 174.474 168.799, 176.727 158 C 178.512 149.441, 178.555 146.705, 177.721 94 C 177.638 88.775, 177.950 74.150, 178.415 61.500 C 179.356 35.868, 178.820 31.666, 173.996 26.842 C 170.428 23.275, 166.923 23.213, 157.536 26.552 M 87.256 30.029 C 84.582 31.104, 81.009 36.620, 81.004 39.682 C 81.001 41.256, 83.021 43.288, 88.250 46.975 L 95.500 52.087 96.202 47.293 C 96.655 44.197, 97.668 41.880, 99.063 40.750 C 102.165 38.235, 109.426 38.536, 115.319 41.424 C 119.899 43.668, 120.332 43.709, 124.049 42.249 C 127.631 40.842, 128.347 40.861, 132.576 42.476 C 138.297 44.661, 146.200 52.529, 151.212 61.031 L 154.925 67.328 156.067 64.414 C 156.696 62.811, 157.440 58.799, 157.722 55.498 C 158.628 44.882, 154.200 38.868, 143.068 35.596 C 136.866 33.773, 117.556 33.448, 107 34.989 C 101.120 35.847, 100.357 35.754, 99 34.008 C 97.798 32.462, 90.966 28.797, 89.782 29.063 C 89.627 29.098, 88.490 29.533, 87.256 30.029 M 100.500 30.536 C 103.641 31.975, 111.389 32.240, 116.500 31.085 C 118.818 30.561, 117.703 30.247, 111.599 29.704 C 107.254 29.317, 102.304 29.037, 100.599 29.081 L 97.500 29.162 100.500 30.536 M 60.437 39.164 C 62.120 56.486, 64.408 61, 71.507 61 C 73.907 61, 76.969 60.582, 78.312 60.071 C 80.642 59.186, 80.710 58.919, 79.785 54.321 C 79.251 51.670, 78.518 48.018, 78.157 46.206 C 77.595 43.389, 76.214 42.111, 68.612 37.371 L 59.725 31.829 60.437 39.164 M 101.356 42.463 C 99.175 43.990, 97.519 50.582, 98.604 53.411 C 98.936 54.275, 101.453 56.630, 104.199 58.646 C 108.217 61.596, 109.364 62.036, 110.080 60.905 C 110.569 60.132, 110.976 59.024, 110.985 58.441 C 110.993 57.859, 112.531 54.840, 114.402 51.732 C 118.243 45.354, 118.143 45.106, 110.715 42.609 C 104.839 40.633, 103.988 40.620, 101.356 42.463 M 118.702 49.777 C 116.663 52.029, 111.733 62.723, 112.171 63.943 C 112.352 64.448, 116.350 68.380, 121.056 72.680 C 132.839 83.450, 142.658 94.448, 148 102.862 C 150.475 106.760, 152.725 109.955, 153 109.962 C 153.462 109.974, 157.586 94.746, 158.680 88.983 C 159.353 85.444, 152.718 75.840, 142.435 65.463 C 134.868 57.827, 122.830 48, 121.045 48 C 120.641 48, 119.586 48.800, 118.702 49.777 M 101.180 66.250 C 102.309 70.237, 103.457 74.287, 103.733 75.250 C 104.628 78.379, 105.657 77.113, 106.963 71.275 L 108.244 65.550 104.455 62.275 C 102.372 60.474, 100.320 59, 99.897 59 C 99.474 59, 100.051 62.263, 101.180 66.250" stroke="none" fill="black" fill-rule="evenodd"/>
</svg>