<svg xmlns="http://www.w3.org/2000/svg" width="200" height="200" viewBox="0 0 200 200" version="1.1">
	<path d="M 85 14.701 C 85 15.179, 85.900 18.130, 87 21.260 C 89.478 28.309, 89.498 30.164, 87.129 33.089 C 84.959 35.769, 80.792 36, 60.474 34.566 C 50.130 33.835, 48.002 33.948, 45.254 35.369 C 40.932 37.603, 39.735 40.246, 40.280 46.352 C 40.532 49.183, 40.272 56.781, 39.702 63.237 C 37.825 84.499, 41.156 103.391, 47.987 110.222 C 54.297 116.532, 60.590 115.150, 71.421 105.073 C 78.400 98.581, 82.728 96.956, 81.010 101.473 C 80.493 102.833, 80.343 106.865, 80.676 110.432 C 81.271 116.810, 81.225 116.975, 77.870 120.330 C 72.781 125.419, 64.544 126.578, 44.676 125.002 C 26.254 123.540, 22.500 123.775, 22.500 126.390 C 22.500 127.429, 24.089 129.566, 26.031 131.138 L 29.563 133.996 39.531 131.436 C 52.897 128.005, 65.469 128.210, 69.421 131.924 C 75.782 137.904, 70.257 150.997, 57 161.359 C 50.747 166.247, 47.409 168.119, 33.892 174.322 C 23.604 179.043, 22.143 180.262, 24.036 182.544 C 28.702 188.166, 76.070 174.682, 85.079 165.167 C 85.947 164.250, 87.891 160.506, 89.400 156.846 C 92.353 149.684, 97.804 142.514, 101.089 141.472 C 104.284 140.458, 108.749 144.223, 117.519 155.326 C 128.211 168.860, 135.558 175.969, 142.233 179.238 C 149.438 182.766, 152.341 182.897, 159.550 180.020 C 178.203 172.575, 182.146 164.473, 170.353 157.824 C 164.745 154.663, 150.364 150.816, 137.067 148.919 C 128.674 147.722, 128.607 147.689, 122.567 141.791 L 116.500 135.866 118.861 133.933 C 121.556 131.726, 121.220 131.749, 154 131.577 C 170.962 131.489, 178.404 131.086, 180.750 130.129 C 182.537 129.401, 184 128.605, 184 128.362 C 184 126.539, 179.470 119.742, 176.541 117.170 C 169.516 111.002, 162.105 111.482, 142.277 119.389 C 125.397 126.121, 120.483 126.637, 115.994 122.148 C 114.348 120.502, 112.443 116.893, 111.490 113.615 L 109.839 107.935 107.847 110.467 C 105.520 113.426, 104.045 113.592, 99.758 111.375 C 96.115 109.491, 86 100.183, 86 98.714 C 86 97.132, 101.571 98.591, 110 100.963 C 138.058 108.857, 144.123 109.521, 149.791 105.322 C 157.775 99.409, 159.318 92.546, 158.833 65.115 C 158.482 45.261, 158.370 44.289, 155.801 38.776 C 152.166 30.973, 148.525 28.722, 140.500 29.318 C 133.738 29.820, 125.866 32.995, 118.044 38.376 C 115.147 40.369, 112.187 42, 111.467 42 C 108.391 42, 108.875 32.133, 112.441 22.124 C 114.328 16.829, 114.453 13.682, 112.755 14.248 C 112.070 14.477, 110.693 17.552, 109.694 21.082 C 108.695 24.612, 106.775 30.650, 105.428 34.500 L 102.978 41.500 92.739 41.600 C 81.200 41.713, 75.934 42.877, 70.607 46.492 C 67.459 48.628, 67.086 48.708, 67.970 47.056 C 69.358 44.462, 69.274 41.742, 67.821 42.226 C 65.629 42.957, 62 58.228, 62 66.722 C 62 70.926, 63.987 82.525, 65.967 89.876 C 67.005 93.732, 67.318 94.008, 70.789 94.118 C 72.830 94.183, 75.850 94.546, 77.500 94.923 L 80.500 95.610 78.033 96.441 C 76.676 96.899, 73.076 99.611, 70.033 102.468 C 62.367 109.667, 60.132 111, 55.730 111 C 46.077 111, 41.024 94.604, 42.479 68 C 43.275 53.447, 43.285 52.957, 42.921 45.589 C 42.568 38.447, 44.714 36.978, 55.361 37.071 C 59.837 37.110, 67.100 37.474, 71.500 37.880 C 86.036 39.219, 91.170 36.872, 91.163 28.889 C 91.158 23.905, 88.128 14.876, 86.250 14.250 C 85.562 14.021, 85 14.224, 85 14.701 M 130.871 34.424 C 127.775 35.710, 123.546 37.916, 121.474 39.324 L 117.705 41.885 123.102 42.193 C 131.887 42.693, 130.008 44.663, 115.173 50.505 C 107.843 53.392, 101.486 56.147, 101.045 56.627 C 100.214 57.533, 93 76.738, 93 78.045 C 93 79.131, 95.271 79.899, 107.613 82.992 C 119.871 86.063, 126 88.563, 126 90.491 C 126 93.351, 122.686 94.341, 111.198 94.915 L 99.500 95.500 110.500 98.392 C 116.550 99.982, 124.425 102.094, 128 103.084 C 136.355 105.399, 144.343 105.501, 148.001 103.340 C 153.681 99.985, 155.264 95.169, 156.152 78.555 C 157.467 53.923, 155.090 38.576, 149.249 33.981 C 145.764 31.240, 138.088 31.424, 130.871 34.424 M 81.326 45.044 C 75.797 46.138, 71.642 48.369, 69.088 51.615 C 62.652 59.797, 72.967 61.384, 93.672 55.398 C 98.513 53.999, 98.946 53.606, 100.422 49.273 C 101.290 46.727, 102 44.499, 102 44.322 C 102 43.666, 85.355 44.248, 81.326 45.044 M 103.661 48.250 C 102.922 50.038, 102.622 51.626, 102.996 51.779 C 103.783 52.103, 120 46.030, 120 45.412 C 120 45.186, 116.626 45, 112.503 45 L 105.006 45 103.661 48.250 M 90.500 59.113 C 80.569 61.880, 72.933 62.417, 68.696 60.646 L 65 59.102 65 65.986 C 65 71.876, 66.771 83.361, 68.582 89.215 C 69.090 90.855, 75.486 92.847, 76.616 91.717 C 76.904 91.429, 76.263 89.463, 75.192 87.347 C 72.474 81.979, 71.663 77.498, 72.969 75.059 C 74.438 72.312, 80.703 72.298, 86.054 75.028 L 90.029 77.055 91.101 74.278 C 95.493 62.900, 97.010 58.559, 96.773 58.041 C 96.623 57.711, 93.800 58.194, 90.500 59.113 M 75.333 76.575 C 73.929 80.233, 79.617 92, 82.788 92 C 84.077 92, 85.144 90.476, 86.462 86.750 C 87.483 83.862, 88.495 81.003, 88.710 80.395 C 89.119 79.245, 80.323 75, 77.533 75 C 76.655 75, 75.665 75.709, 75.333 76.575 M 89.735 85.884 C 86.935 93.767, 86.171 93.381, 103.252 92.714 C 111.641 92.387, 119.575 91.723, 120.882 91.239 C 122.982 90.463, 122.458 90.109, 116.379 88.204 C 112.596 87.019, 106.131 85.346, 102.014 84.488 C 97.897 83.630, 94.094 82.494, 93.564 81.964 C 91.964 80.364, 91.542 80.797, 89.735 85.884 M 83.583 102.644 C 83.283 103.426, 83.309 106.666, 83.642 109.845 C 84.541 118.447, 80.421 124.870, 72.953 126.510 C 71.329 126.867, 70 127.396, 70 127.685 C 70 127.975, 71.125 129.548, 72.500 131.182 C 81.652 142.059, 64.970 163.900, 39.047 174.980 C 25.645 180.708, 25.178 181.225, 34 180.581 C 46.558 179.664, 67.020 173.175, 78.420 166.494 C 82.435 164.141, 83.563 162.650, 87.448 154.556 C 92.661 143.693, 97.212 139, 102.532 139 C 106.897 139, 111.914 143.363, 120.346 154.493 C 132.240 170.191, 143.398 179.067, 151.527 179.298 C 153.357 179.350, 158.354 177.640, 163.278 175.277 C 176.289 169.034, 177.908 164.545, 168.821 159.909 C 163.700 157.296, 149.119 153.551, 137.956 151.980 C 128.654 150.671, 124.501 148.511, 118.483 141.849 C 114.506 137.447, 114.071 134.152, 117.103 131.405 C 119.042 129.649, 121.499 129.461, 148.554 129 C 169.569 128.642, 178.245 128.157, 179.109 127.292 C 180.051 126.349, 179.803 125.336, 177.975 122.669 C 171.695 113.503, 164 113.389, 142.831 122.151 C 122.919 130.392, 115.549 129.700, 110.653 119.133 C 108.618 114.740, 108.199 114.382, 106.033 115.183 C 102.589 116.457, 94.334 112.134, 88.690 106.099 C 85.455 102.642, 83.970 101.637, 83.583 102.644 M 25.918 127.389 C 28.535 130.564, 30.748 131.152, 35.256 129.870 C 41.043 128.224, 42.145 127, 37.840 127 C 35.881 127, 32.079 126.701, 29.390 126.335 C 24.846 125.716, 24.600 125.791, 25.918 127.389" stroke="none" fill="black" fill-rule="evenodd"/>
</svg>