<svg xmlns="http://www.w3.org/2000/svg" width="200" height="200" viewBox="0 0 200 200" version="1.1">
	<path d="M 117.703 2.750 C 117.474 3.163, 116.477 7.438, 115.487 12.250 C 114.129 18.855, 113.297 20.996, 112.094 20.983 C 108.631 20.946, 95.645 17.043, 94.879 15.810 C 94.249 14.795, 93.558 15.007, 91.811 16.750 C 90.570 17.988, 90.106 19, 90.778 19 C 92.795 19, 92.204 21.017, 87.034 31.766 C 81.304 43.683, 72.989 56.144, 68.466 59.594 C 60.348 65.786, 56.598 60.313, 55.038 40 C 54.552 33.675, 53.691 27.290, 53.125 25.811 C 51.778 22.291, 48.831 20.734, 45.740 21.909 C 41.408 23.556, 33.995 33.079, 28.978 43.444 C 22.644 56.528, 20.721 64.221, 21.158 74.731 C 21.477 82.420, 21.707 83.169, 24.648 86.110 C 26.481 87.942, 29.686 89.737, 32.319 90.406 L 36.843 91.554 33.347 97.027 C 21.997 114.797, 16.586 131.035, 19.012 140.045 C 24.714 161.221, 57.915 147.557, 58 124 C 58.012 120.854, 57.081 115.827, 55.826 112.253 C 53.679 106.140, 53.669 105.884, 55.362 100.253 C 57.888 91.852, 62.085 82, 63.137 82 C 65.184 82, 66.309 88.270, 66.764 102.205 C 67.586 127.359, 63.807 161.396, 58.441 177.174 C 55.563 185.635, 55.646 185, 57.417 185 C 58.211 185, 59.555 182.911, 60.474 180.250 C 63.325 171.988, 70.690 157.849, 77.535 147.500 C 87.524 132.396, 87.570 132.371, 87.154 142.364 C 86.733 152.481, 88.385 166.910, 90.413 170.832 C 92.242 174.368, 96.672 176.362, 100.596 175.414 C 107.006 173.865, 118.999 166.443, 132.781 155.494 C 132.936 155.371, 132.269 153.889, 131.300 152.200 C 129.614 149.263, 129.617 148.590, 131.363 136.814 C 134.935 112.726, 135.200 109.293, 134.052 101.899 C 132.729 93.368, 130.127 87.884, 124.768 82.333 L 120.746 78.165 123.037 74.833 C 126.478 69.825, 129.204 67, 130.594 67 C 132.867 67, 134.897 76.211, 138.973 105.008 C 141.192 120.687, 143.616 136.709, 144.360 140.613 L 145.713 147.711 139.753 152.536 C 131.417 159.283, 125.880 166.884, 125.254 172.438 C 124.817 176.317, 125.096 177.185, 127.499 179.412 C 130.961 182.620, 134.994 183.374, 145.309 182.744 C 166.080 181.475, 182.919 170.477, 184.727 157 C 185.414 151.880, 184.230 151.860, 178.179 156.889 C 171.656 162.312, 169.288 162.888, 167.953 159.377 C 166.538 155.655, 167.875 147.504, 174.164 121.500 C 180.094 96.982, 181.050 89.251, 178.611 85.530 C 177.700 84.138, 176.177 83.002, 175.227 83.004 C 173.074 83.008, 167.385 86.372, 163.750 89.789 C 160.465 92.877, 160.464 92.870, 163 85.500 C 165.351 78.667, 165.444 75.278, 163.578 64.500 C 162.816 60.100, 161.876 51.460, 161.490 45.300 L 160.788 34.100 171.247 34.692 C 181.921 35.297, 184.589 34.563, 181.386 31.905 C 180.407 31.093, 176.124 30.423, 170.277 30.167 L 160.760 29.751 161.470 19.732 L 162.181 9.714 159.075 10.335 C 153.408 11.468, 145.076 16.078, 139.529 21.148 L 134.053 26.153 128.574 25.015 C 122.232 23.699, 122.366 23.957, 121.426 11.250 C 120.937 4.631, 120.369 2, 119.430 2 C 118.708 2, 117.931 2.337, 117.703 2.750 M 117.370 16.702 C 116.478 21.065, 116.547 21.996, 117.797 22.475 C 119.888 23.278, 119.924 23.134, 119.138 16.996 L 118.434 11.500 117.370 16.702 M 151.384 16.444 C 147.598 18.339, 142.994 21.442, 141.154 23.341 L 137.808 26.793 142.923 27.890 C 145.736 28.493, 150.504 29.277, 153.519 29.631 L 159 30.275 159 21.638 C 159 16.887, 158.835 13, 158.634 13 C 158.433 13, 155.171 14.550, 151.384 16.444 M 94.233 22.250 C 93.042 26.879, 81.901 47.719, 77.527 53.500 C 72.350 60.344, 66.653 65, 63.457 65 C 56.795 65, 53.387 57.111, 52.074 38.652 C 51.089 24.795, 50.102 22.861, 45.288 25.351 C 36.289 30.005, 23.823 56.845, 23.622 72 C 23.459 84.309, 27.542 88.779, 38.032 87.771 C 42.934 87.300, 43.011 87.334, 41.661 89.395 C 29.190 108.434, 23.891 118.942, 21.927 128.525 C 20.441 135.778, 21.262 141.031, 24.460 144.746 C 26.558 147.183, 27.502 147.493, 32.665 147.441 C 39.230 147.374, 43.175 145.671, 48.045 140.801 C 55.157 133.689, 57.130 121.822, 52.852 111.878 C 50.776 107.051, 50.758 106.690, 52.328 101.045 C 56.288 86.802, 60.387 79, 63.912 79 C 68.309 79, 70.476 93.078, 69.614 116.037 C 69.031 131.565, 66.697 156.038, 65.375 160.500 C 65.049 161.600, 67.345 158.450, 70.477 153.500 C 73.609 148.550, 78.833 140.777, 82.086 136.226 L 88 127.952 88 116.138 L 88 104.325 93.627 102.412 C 96.722 101.361, 99.447 99.997, 99.683 99.383 C 99.919 98.769, 98.794 96.948, 97.182 95.336 C 93.843 91.997, 90.050 78.550, 91.920 76.680 C 93.063 75.537, 92.991 75.366, 95.485 85.178 C 96.419 88.851, 97.966 92.564, 98.923 93.430 C 100.561 94.912, 100.767 94.256, 102.436 82.252 C 103.411 75.239, 104.430 68.129, 104.702 66.454 L 105.196 63.407 98.348 64.316 C 84.553 66.147, 81.037 60.762, 89.732 51.119 C 92.379 48.182, 95.879 45.917, 101.500 43.503 C 110.296 39.724, 109.640 40.706, 112.284 27.361 L 112.906 24.222 104.489 22.111 C 94.223 19.536, 94.935 19.527, 94.233 22.250 M 114.126 31.620 C 113.455 35.261, 113.063 38.396, 113.254 38.587 C 113.445 38.779, 115.312 38.410, 117.403 37.768 L 121.205 36.602 120.537 31.570 C 119.902 26.779, 118.816 25.049, 116.423 25.015 C 115.830 25.007, 114.797 27.979, 114.126 31.620 M 123.014 29.162 C 123.043 34.243, 124.013 35.823, 126.667 35.114 C 128.983 34.494, 132.983 29.611, 131.957 28.655 C 131.706 28.420, 129.588 27.913, 127.250 27.526 C 123.259 26.867, 123.001 26.967, 123.014 29.162 M 134.300 31.267 C 132.518 33.281, 132.539 33.295, 136.500 32.661 C 138.700 32.310, 141.362 32.017, 142.417 32.011 C 145.190 31.995, 143.724 30.953, 139.629 30.029 C 136.717 29.372, 135.784 29.589, 134.300 31.267 M 140.810 34.837 C 135.480 35.777, 130.946 36.761, 130.734 37.023 C 130.521 37.286, 129.318 39.211, 128.060 41.301 C 125.543 45.485, 122.708 45.938, 122.180 42.240 C 121.823 39.737, 119.960 39.421, 115.249 41.063 C 112.225 42.117, 111.041 44.266, 111.014 48.750 C 111.003 50.459, 111.574 51, 113.389 51 C 116.678 51, 120.292 54.076, 119.482 56.186 C 118.901 57.699, 111.258 62, 109.150 62 C 108.670 62, 107.514 67.063, 106.580 73.250 C 105.647 79.438, 104.619 86.239, 104.296 88.364 C 103.744 91.991, 103.842 92.185, 105.902 91.531 C 109.937 90.251, 111.006 92.447, 110.937 101.872 C 110.902 106.618, 110.509 114.325, 110.063 119 C 109.292 127.071, 109.365 127.606, 111.513 129.598 C 116.069 133.824, 115.571 142.236, 110.481 147.018 C 108.350 149.020, 107.676 149.173, 105.458 148.163 C 101.728 146.463, 99.896 140.975, 99.155 129.279 L 98.500 118.950 94.138 124.543 L 89.776 130.136 90.246 147.318 C 90.829 168.613, 92.271 173.002, 98.684 172.999 C 101.928 172.998, 112.310 167.428, 120.684 161.196 L 128.868 155.106 127.883 151.538 C 126.880 147.905, 127.127 145.276, 130.564 123 C 133.568 103.536, 130.971 91.839, 121.661 82.907 L 117.068 78.500 121.963 71.840 C 127.433 64.397, 130.116 62.890, 133.095 65.586 C 136.062 68.271, 137.604 75.175, 141.455 103 C 143.395 117.025, 145.826 133.105, 146.856 138.733 L 148.728 148.967 143.386 153.088 C 133.348 160.832, 126.522 170.454, 127.745 175.134 C 129.993 183.728, 157.640 181.300, 172.034 171.245 C 176.674 168.003, 181.928 161.379, 181.984 158.702 C 181.993 158.263, 180.088 159.205, 177.750 160.794 C 172.240 164.541, 169.633 165.132, 166.936 163.243 C 164.875 161.799, 164.776 161.158, 165.291 152.603 C 165.659 146.488, 167.526 136.772, 170.979 123 C 176.672 100.297, 178.338 87.451, 175.719 86.446 C 173.445 85.573, 170.299 87.562, 163.229 94.343 C 155.210 102.034, 153.824 101.125, 158.031 90.932 C 162.665 79.703, 163.117 76.656, 161.358 68.537 C 160.519 64.667, 159.532 55.200, 159.166 47.500 L 158.500 33.500 154.500 33.314 C 152.300 33.211, 146.139 33.897, 140.810 34.837 M 124 38.941 C 124 40.617, 125.774 41.033, 126.364 39.494 C 126.712 38.587, 126.361 38, 125.469 38 C 124.661 38, 124 38.423, 124 38.941 M 100.250 46.958 C 96.813 48.585, 94 50.197, 94 50.540 C 94 51.217, 106.739 50.631, 107.349 49.927 C 107.552 49.692, 108.016 48.263, 108.378 46.750 C 109.231 43.194, 108.148 43.222, 100.250 46.958 M 90.153 54.533 C 88.920 56.100, 88.044 58.309, 88.206 59.441 C 88.476 61.332, 89.140 61.490, 96.324 61.376 C 100.627 61.308, 104.556 60.844, 105.055 60.345 C 105.554 59.846, 106.265 57.924, 106.635 56.073 L 107.308 52.709 100.192 53.218 C 95.781 53.534, 92.946 53.339, 92.735 52.705 C 92.548 52.143, 91.386 52.966, 90.153 54.533 M 109.531 55.732 C 108.655 59.224, 109.258 59.431, 113.656 57.154 C 117.520 55.152, 117.388 54.809, 112.330 53.703 C 110.655 53.337, 110.016 53.800, 109.531 55.732 M 104.655 95.829 C 102.392 98.329, 102.571 99, 105.500 99 C 107.500 99, 108 98.500, 108 96.500 C 108 93.537, 106.925 93.321, 104.655 95.829 M 102.986 103.250 C 102.979 103.938, 102.716 105.625, 102.401 107 L 101.830 109.500 103.893 107 C 106.336 104.039, 106.584 102, 104.500 102 C 103.675 102, 102.994 102.563, 102.986 103.250 M 94.582 104.878 L 90.664 106.608 90.582 115.304 C 90.537 120.087, 90.725 123.975, 91 123.943 C 91.275 123.912, 93.125 121.751, 95.110 119.141 C 97.856 115.530, 98.891 113.032, 99.432 108.697 C 99.824 105.564, 99.774 103.033, 99.322 103.074 C 98.870 103.115, 96.737 103.927, 94.582 104.878 M 104.629 110.801 C 101.776 114.930, 101.760 115.040, 102.183 127.229 C 102.627 140.013, 104.025 145.188, 107.200 145.800 C 109.317 146.208, 112 141.267, 112 136.959 C 112 134.775, 111.151 133.075, 109.212 131.373 L 106.424 128.927 107.241 119.713 C 108.399 106.643, 108.131 105.730, 104.629 110.801" stroke="none" fill="black" fill-rule="evenodd"/>
</svg>