<svg xmlns="http://www.w3.org/2000/svg" width="200" height="200" viewBox="0 0 200 200" version="1.1">
	<path d="M 91.950 15.597 C 90.973 15.895, 89.534 19.293, 88.057 24.785 L 85.715 33.500 69.107 33.603 C 47.319 33.739, 31.514 36.165, 19.857 41.164 L 15.213 43.155 14.803 69.827 C 14.302 102.364, 15.446 134.137, 17.450 143.356 C 21.090 160.108, 28.125 162.828, 38.916 151.657 C 41.345 149.143, 44.588 146.810, 46.124 146.473 C 50.040 145.613, 54.633 139.975, 56.478 133.764 C 59.548 123.425, 60.341 115.195, 60.355 93.500 L 60.368 71.500 62.240 80.500 C 63.464 86.387, 63.895 91.230, 63.488 94.500 C 58.177 137.105, 56.617 161.548, 58.933 165.875 C 62.457 172.459, 68.776 165.171, 82.667 138.500 C 90.773 122.935, 91.929 123.168, 87.620 139.500 C 83.067 156.758, 83.328 160.764, 89.311 165.446 C 91.827 167.415, 92.222 168.178, 91.238 169.162 C 89.534 170.866, 89.682 175.491, 91.489 176.991 C 93.643 178.778, 99.194 177.504, 108 173.201 C 116.967 168.819, 129.937 156.717, 132.067 150.743 L 133.407 146.985 138.213 147.623 C 142.770 148.227, 143.191 148.077, 146.350 144.728 C 153.048 137.626, 155.572 119.312, 154.650 84.500 C 154.126 64.715, 154.214 62.835, 155.520 65.832 C 158.748 73.237, 160.294 84.981, 159.686 97.473 C 159.068 110.171, 157.152 119.757, 150.100 145.417 C 145.161 163.387, 144.755 170.442, 148.416 174.694 C 150.707 177.356, 151.260 177.499, 159.166 177.474 C 163.750 177.460, 169.139 176.879, 171.143 176.182 C 174.383 175.056, 174.851 174.450, 175.377 170.708 C 177.663 154.451, 178.427 134.904, 178.452 92 C 178.480 45.453, 177.910 33.997, 174.865 19.810 L 173.725 14.500 170.612 18.482 C 164.246 26.628, 155.600 35.015, 151.548 36.977 C 146.336 39.500, 140.522 39.561, 135.778 37.142 C 133.774 36.120, 128.126 32.088, 123.227 28.181 C 118.328 24.275, 112.070 19.948, 109.320 18.567 C 104.556 16.174, 95.266 14.585, 91.950 15.597 M 92.579 19.112 C 89.714 27.678, 88.344 34.005, 89.347 34.035 C 89.981 34.054, 94.100 34.720, 98.500 35.515 C 102.900 36.310, 108.158 36.970, 110.185 36.980 C 117.939 37.022, 121.342 40.246, 116.909 43.351 C 115.017 44.676, 114.479 44.586, 111.269 42.408 C 107.252 39.682, 102.433 39.344, 92.426 41.086 C 86.398 42.136, 85.099 43.194, 85.014 47.126 C 85.006 47.471, 90.287 47.800, 96.750 47.858 C 103.213 47.916, 111.190 48.535, 114.478 49.232 C 121.101 50.637, 121.353 50.922, 133.189 70.409 C 140.916 83.132, 139.602 84.992, 128.521 77.015 C 121.613 72.042, 121.592 72.035, 119.516 73.985 C 118.372 75.060, 113.219 77.507, 108.064 79.423 C 99.389 82.649, 95.992 84.465, 97.067 85.305 C 97.305 85.492, 101.775 86.588, 107 87.741 C 128.341 92.453, 142 99.609, 142 106.078 C 142 111.793, 133.789 116.711, 117 121.051 L 112.500 122.214 118.500 125.210 C 126.612 129.260, 131.828 134.434, 133.170 139.761 C 133.957 142.886, 134.851 144.175, 136.520 144.594 C 140.608 145.620, 143.388 144.564, 145.718 141.099 C 150.574 133.875, 152 121.446, 152 86.335 C 152 59.649, 152.417 56.017, 155.168 58.768 C 157.314 60.914, 161.085 73.631, 162.205 82.502 C 164.205 98.338, 162.080 112.393, 152.445 147.063 C 148.260 162.122, 147.663 169.865, 150.451 172.946 C 151.981 174.636, 153.477 174.990, 158.905 174.944 C 162.532 174.913, 167.075 174.350, 169 173.694 C 172.355 172.549, 172.528 172.252, 173.165 166.500 C 173.531 163.200, 174.369 151.262, 175.028 139.972 C 177.046 105.407, 175.295 25.105, 172.460 22.142 C 172.272 21.945, 168.604 25.375, 164.309 29.763 C 154.711 39.570, 151.415 41.416, 143.500 41.416 C 136.261 41.416, 134.216 40.405, 122.446 31.011 C 117.526 27.084, 111.301 22.736, 108.613 21.349 C 102.741 18.319, 93.285 17, 92.579 19.112 M 50.009 37.090 C 39.296 38.120, 27.921 40.602, 21.618 43.283 L 16.736 45.360 17.299 87.430 C 17.854 128.920, 18.563 139.023, 21.559 148.132 C 24.734 157.785, 28.694 158.138, 37.073 149.517 C 40.339 146.157, 43.287 144, 44.614 144 C 50.299 144, 55.041 133.438, 56.963 116.500 C 58.553 102.483, 57.805 62, 55.956 62 C 53.760 62, 43.826 73.609, 40.851 79.650 C 37.800 85.847, 37.500 87.265, 37.500 95.479 C 37.500 105.669, 39.277 110.628, 47.010 122.015 C 49.552 125.758, 50.845 128.555, 50.290 129.110 C 48.131 131.269, 39.828 118.366, 34.880 105.165 C 32.084 97.705, 31.624 95.176, 31.566 86.979 C 31.505 78.179, 31.747 76.955, 34.768 70.820 C 40.837 58.492, 54.873 48.461, 74.500 42.424 C 89.347 37.856, 88.146 35.974, 70.500 36.152 C 63.900 36.218, 54.679 36.640, 50.009 37.090 M 87 38 C 87 39.194, 89.721 39.194, 92.500 38 C 94.104 37.311, 93.758 37.127, 90.750 37.070 C 88.688 37.032, 87 37.450, 87 38 M 73.500 45.530 C 59.666 50.299, 57.801 51.563, 59.845 54.783 C 60.480 55.784, 61.849 55.514, 66.079 53.552 C 69.061 52.169, 73.862 50.507, 76.750 49.859 C 79.638 49.212, 82.006 48.416, 82.014 48.091 C 82.021 47.766, 82.299 46.487, 82.630 45.250 C 83.392 42.408, 82.476 42.436, 73.500 45.530 M 87.503 50.740 C 81.599 51.608, 81.441 55.523, 87.250 57.013 C 111.222 63.165, 113.962 64.187, 123.701 70.607 C 129.013 74.109, 133.481 76.852, 133.631 76.703 C 134.209 76.124, 119.979 54.435, 118.289 53.320 C 114.694 50.948, 96.478 49.421, 87.503 50.740 M 72.449 53.945 C 65.979 56.248, 61 58.825, 61 59.870 C 61 60.320, 62.322 67.217, 63.939 75.198 L 66.878 89.708 64.029 114.104 C 59.358 154.105, 59.028 165, 62.488 165 C 64.569 165, 72.894 151.728, 81.963 133.952 C 86.383 125.288, 90 117.929, 90 117.599 C 90 117.270, 89.281 117, 88.401 117 C 84.494 117, 80.033 113.702, 77.794 109.157 C 75.745 104.997, 75.507 103.114, 75.566 91.500 C 75.624 80.036, 77.938 62.731, 80.613 53.750 C 81.281 51.508, 79.148 51.559, 72.449 53.945 M 50.962 56.407 C 40.010 64.383, 33.941 74.937, 34.066 85.788 L 34.132 91.500 35.583 86.105 C 37.856 77.649, 41.865 71.312, 49.289 64.439 C 54.757 59.376, 56.077 57.590, 55.821 55.598 L 55.500 53.102 50.962 56.407 M 80.519 67.750 C 78.252 79.430, 77.417 99.208, 78.954 104.865 C 81.958 115.926, 90.453 116.780, 104.529 107.437 C 111.857 102.573, 120.307 94.886, 119.307 93.994 C 118.332 93.126, 104.898 89.768, 104.398 90.268 C 104.204 90.462, 106.285 91.427, 109.023 92.411 C 114.404 94.346, 116.216 97.572, 111.250 96.376 C 98.704 93.354, 83.251 88.674, 82.132 87.557 C 79.571 85.002, 81.885 83.703, 87.888 84.327 C 92.862 84.843, 93.752 84.647, 95.714 82.601 C 96.932 81.331, 101.882 78.816, 106.714 77.011 C 120.163 71.987, 120.698 71.083, 112.396 67.412 C 104.289 63.826, 99.365 63.419, 94.539 65.935 C 90.094 68.252, 89 68.459, 89 66.985 C 89 66.427, 90.437 65.097, 92.194 64.028 C 94.440 62.662, 94.959 61.933, 93.944 61.570 C 92.380 61.010, 83.905 59.064, 82.859 59.024 C 82.506 59.011, 81.453 62.938, 80.519 67.750 M 92 88.383 C 92 88.594, 93.111 88.979, 94.470 89.239 C 95.828 89.499, 96.702 89.326, 96.411 88.856 C 95.899 88.027, 92 87.610, 92 88.383 M 113.243 107.891 C 107.500 114.951, 103.545 120.622, 104.256 120.778 C 106.615 121.293, 125.297 116.050, 131.587 113.106 C 137.896 110.154, 140.467 107.381, 139.421 104.656 C 138.697 102.768, 132.700 98.828, 127.500 96.824 L 123.500 95.283 113.243 107.891 M 104.522 110.553 C 101.784 112.446, 98.071 114.481, 96.272 115.075 C 93.009 116.152, 93 116.173, 93 122.856 C 93 127.063, 91.890 133.828, 90.017 141.029 C 86.221 155.629, 86.191 158.378, 89.789 161.827 C 91.323 163.297, 93.402 164.962, 94.409 165.527 C 96.167 166.513, 96.156 166.695, 94.124 170.027 C 91.424 174.457, 91.461 175, 94.463 175 C 104.589 175, 125.696 159.600, 129.607 149.358 L 131.316 144.885 127.836 142.016 C 125.922 140.439, 121.464 135.471, 117.928 130.977 L 111.500 122.805 107.500 123.387 C 105.300 123.707, 101.724 124.274, 99.553 124.647 L 95.605 125.326 101.980 117.413 C 111.941 105.049, 111.755 105.551, 104.522 110.553 M 121.763 131.634 C 125.098 136.267, 131.249 141.857, 130.417 139.500 C 129.568 137.095, 124.246 131.242, 121.599 129.802 C 119.828 128.839, 119.840 128.964, 121.763 131.634" stroke="none" fill="black" fill-rule="evenodd"/>
</svg>