<svg xmlns="http://www.w3.org/2000/svg" width="200" height="200" viewBox="0 0 200 200" version="1.1">
	<path d="M 153.244 25.928 C 150.903 27.017, 147.526 29.023, 145.739 30.385 C 143.953 31.748, 141.256 33.333, 139.746 33.907 C 135.889 35.373, 136.143 39.197, 140.585 46.559 C 148.530 59.726, 148.964 64.872, 142.711 71.739 L 140.673 73.977 139.246 71.941 C 138.163 70.395, 137.500 70.170, 136.489 71.009 C 135.417 71.899, 135.030 70.985, 134.499 66.307 C 131.183 37.098, 127.070 26.800, 118.723 26.800 C 113.712 26.800, 110.341 28.932, 102.509 37.055 C 94.727 45.125, 94.620 44.590, 104.487 46.934 C 107.230 47.586, 110.251 48.822, 111.200 49.681 C 112.722 51.058, 112.763 51.553, 111.543 53.871 C 110.783 55.317, 108.175 58.432, 105.749 60.792 L 101.338 65.085 83.419 56.655 C 63.757 47.406, 57.433 44.993, 52.360 44.802 C 47.584 44.623, 48.120 42.308, 53.250 40.960 C 76.973 34.726, 90.543 30.857, 91.283 30.117 C 93 28.400, 90.433 28.251, 82.500 29.606 C 78.100 30.357, 67.300 31.266, 58.500 31.625 C 41.132 32.333, 30.846 31.235, 24.490 27.995 C 20.299 25.858, 20.545 25.470, 19.107 36.500 C 16.256 58.379, 15.502 71.606, 15.513 99.500 C 15.522 123.676, 15.860 131.285, 17.253 138.696 C 19.301 149.594, 22.105 158.279, 23.500 158.048 C 24.732 157.845, 24.667 157.349, 22.160 147.865 C 18.492 133.994, 17.685 121.697, 18.363 90.005 C 18.746 72.108, 19.684 54.795, 20.747 46 C 22.746 29.464, 21.523 30.674, 33.500 33.382 C 37.467 34.279, 45.482 35.006, 52 35.059 L 63.500 35.153 57.133 37.031 C 51.421 38.716, 50.609 38.752, 49.238 37.380 C 47.228 35.370, 46.036 37.125, 46.015 42.128 C 46.007 44.123, 45.383 47.273, 44.628 49.128 C 43.814 51.130, 42.981 58.700, 42.577 67.764 C 41.830 84.570, 40.023 97.602, 36.877 108.890 L 34.817 116.279 37.700 120.390 C 41.600 125.950, 44.553 126.314, 46.571 121.485 C 49.147 115.319, 50.251 96.324, 49.518 70.750 C 48.839 47.030, 48.841 47, 50.951 47 C 57.653 47, 99.825 66.423, 101.543 70.300 C 102.890 73.342, 109.286 76.641, 116.693 78.113 C 120.162 78.803, 123 79.725, 123 80.163 C 123 81.220, 115.395 85.065, 112.659 85.392 C 111.471 85.534, 109.233 86.179, 107.685 86.825 C 103.589 88.535, 97.097 88.227, 92.419 86.103 C 85.922 83.152, 81.240 77.441, 75.324 65.250 C 71.131 56.607, 69.412 54, 67.908 54 C 64.624 54, 63.967 57.895, 65.604 67.656 C 70.991 99.771, 66.739 126.553, 54.342 138.601 C 50.318 142.513, 41.299 147, 37.462 147 C 36.658 147, 36 147.675, 36 148.500 C 36 150.517, 37.882 150.390, 44.459 147.929 C 56.059 143.589, 64.848 132.182, 68.674 116.500 C 70.974 107.073, 70.953 84.350, 68.632 69.135 C 67.678 62.884, 67.207 57.484, 67.585 57.135 C 67.964 56.786, 68.472 57.054, 68.714 57.730 C 68.956 58.407, 71.123 63.006, 73.529 67.951 C 80.508 82.290, 87.859 88.957, 98.440 90.543 L 103.333 91.277 97.917 92.961 C 80.197 98.468, 77.976 106.448, 93.271 109.653 C 96.697 110.371, 101.188 110.968, 103.250 110.979 C 105.313 110.991, 107 111.243, 107 111.540 C 107 113.182, 102.647 120.200, 99.962 122.884 C 97.396 125.450, 96.375 125.867, 94.173 125.250 C 90.831 124.312, 78.505 124.687, 74.500 125.847 C 71.639 126.676, 71.845 126.823, 78.947 129.015 C 85.358 130.995, 87.096 131.169, 91.447 130.268 C 94.226 129.692, 96.838 129.423, 97.250 129.670 C 97.662 129.916, 98 131.789, 98 133.832 C 98 139.150, 92.632 147.651, 79.828 162.610 C 69.543 174.627, 67.910 177.208, 69.837 178.399 C 71.087 179.172, 78.852 174.806, 94.801 164.363 C 102.667 159.214, 109.231 155, 109.387 155 C 109.544 155, 109.463 159.687, 109.209 165.415 C 108.631 178.410, 109.349 182.527, 112.560 184.631 C 114.897 186.162, 115.231 186.113, 118.893 183.689 C 123.231 180.819, 130.437 170.565, 135.061 160.684 L 138.132 154.121 148.816 161.166 C 161.138 169.293, 168.078 173, 170.967 173 C 174.754 173, 173.363 168.103, 166.991 159 C 156.666 144.252, 151.921 136.287, 151.345 132.737 L 150.787 129.297 156.643 128.704 C 163.657 127.993, 168.889 126.541, 171.546 124.568 C 174.602 122.299, 172.282 119.853, 164.908 117.572 C 161.384 116.482, 158.316 115.460, 158.091 115.302 C 157.866 115.144, 160.283 112.287, 163.464 108.953 L 169.246 102.891 166.893 100.386 C 163.410 96.678, 151.416 91.124, 144 89.785 C 136.753 88.476, 136.037 87.893, 136.015 83.285 C 135.992 78.448, 139.326 76.996, 142.852 80.308 C 149.979 87.003, 157.598 88.762, 163.605 85.099 C 174.910 78.205, 179.332 49.418, 171.533 33.478 C 167.338 24.903, 161.037 22.302, 153.244 25.928 M 152 29.531 C 149.525 30.971, 146.600 32.970, 145.500 33.975 C 144.400 34.979, 142.600 35.975, 141.500 36.188 C 138.675 36.737, 139.168 38.992, 143.810 46.758 C 151.155 59.047, 151.520 65.663, 145.261 73.102 L 142.575 76.294 146.452 79.645 C 156.416 88.258, 164.990 84.995, 170.024 70.672 C 174.942 56.680, 172.633 34.920, 165.612 29.093 C 162.546 26.549, 156.810 26.733, 152 29.531 M 115.216 30.044 C 112.031 31.322, 105.732 36.519, 103.177 39.974 L 101.037 42.869 106.343 44.411 C 116.674 47.415, 117.464 51.463, 109.447 60.321 L 103.894 66.457 114.904 71.937 C 124.426 76.676, 126.291 77.284, 128.707 76.440 C 132.335 75.172, 132.574 72.632, 130.537 56.975 C 128.694 42.807, 126.054 34.404, 122.455 31.250 C 119.671 28.810, 118.695 28.647, 115.216 30.044 M 45.761 60.500 C 45.355 62.700, 45.014 68.100, 45.005 72.500 C 44.985 82.108, 42.772 97.501, 39.861 108.290 C 37.752 116.107, 37.750 116.189, 39.679 118.771 C 43.728 124.195, 44.516 123.070, 46.051 109.667 C 47.224 99.426, 46.957 54.029, 45.761 60.500 M 136 75 C 135.207 75.490, 134.890 76.223, 135.296 76.629 C 135.701 77.035, 136.558 76.842, 137.200 76.200 C 138.711 74.689, 137.868 73.846, 136 75 M 119 85.753 L 112.500 89.216 119.419 88.709 C 125.152 88.290, 126.639 87.805, 128.091 85.880 C 131.818 80.938, 128.136 80.887, 119 85.753 M 131 86.500 C 129.960 87.753, 130.104 88, 131.878 88 C 133.098 88, 134 87.362, 134 86.500 C 134 85.675, 133.605 85, 133.122 85 C 132.640 85, 131.685 85.675, 131 86.500 M 116.750 91.728 C 113.444 92.074, 113 92.439, 112.999 94.810 C 112.994 104.970, 107.856 118.966, 102.136 124.396 C 99.744 126.667, 99.293 127.678, 100.043 129.080 C 103.016 134.636, 98.651 144.302, 86.770 158.470 C 82.221 163.894, 77.418 169.654, 76.094 171.272 L 73.689 174.212 76.594 172.696 C 78.193 171.862, 87.072 166.181, 96.327 160.070 L 113.153 148.961 112.346 158.230 C 110.133 183.666, 113.180 188.623, 123.018 175.592 C 127.407 169.779, 135 155.760, 135 153.469 C 135 152.687, 133.820 151.273, 132.377 150.327 L 129.754 148.609 132.433 146.304 C 137.099 142.290, 140.362 143.657, 139.305 149.184 C 138.859 151.518, 139.847 152.392, 150.658 159.228 C 163.933 167.622, 168.956 170.377, 169.674 169.659 C 170.422 168.911, 168.329 165.395, 160.771 154.704 C 152.804 143.437, 147.993 134.740, 148.015 131.648 C 148.043 127.694, 149.612 126.659, 156.729 125.899 C 160.516 125.494, 165.164 124.518, 167.057 123.729 L 170.500 122.296 162.615 119.783 C 156.241 117.751, 154.107 117.461, 151.472 118.270 C 146.951 119.657, 143.169 118.457, 141.189 115.006 C 140.266 113.398, 137.865 111.341, 135.853 110.434 C 133.841 109.527, 130.464 107.011, 128.348 104.844 C 124.933 101.347, 124.500 100.347, 124.500 95.952 C 124.500 90.529, 125.098 90.855, 116.750 91.728 M 127.667 91.667 C 126.499 92.835, 126.949 98, 128.476 100.953 C 129.695 103.311, 135.497 108, 137.195 108 C 137.448 108, 137.023 105.188, 136.250 101.750 C 135.478 98.313, 134.647 94.487, 134.404 93.250 C 134.071 91.554, 133.269 91, 131.148 91 C 129.600 91, 128.033 91.300, 127.667 91.667 M 137 92.435 C 137 93.531, 139.941 106.688, 140.527 108.213 C 141.151 109.836, 150.472 114, 153.482 114 C 154.997 114, 165 104.310, 165 102.842 C 165 101.224, 155.594 95.957, 149.145 93.964 C 143.331 92.167, 137 91.370, 137 92.435 M 99.436 95.378 C 81.187 101.292, 81.513 106.229, 100.250 107.691 L 108 108.296 108 100.648 C 108 96.442, 107.662 93.020, 107.250 93.045 C 106.838 93.069, 103.321 94.120, 99.436 95.378 M 144.500 115 C 144.840 115.550, 146.104 115.968, 147.309 115.930 C 149.421 115.862, 149.428 115.829, 147.500 115 C 144.748 113.817, 143.769 113.817, 144.500 115 M 85.762 127.707 C 87.006 127.946, 88.806 127.937, 89.762 127.687 C 90.718 127.437, 89.700 127.241, 87.500 127.252 C 85.300 127.263, 84.518 127.468, 85.762 127.707 M 135 148 C 135 148.550, 135.450 149, 136 149 C 136.550 149, 137 148.550, 137 148 C 137 147.450, 136.550 147, 136 147 C 135.450 147, 135 147.450, 135 148" stroke="none" fill="black" fill-rule="evenodd"/>
</svg>