<svg xmlns="http://www.w3.org/2000/svg" width="200" height="200" viewBox="0 0 200 200" version="1.1">
	<path d="M 145 15.585 C 131.365 17.211, 79.045 24.864, 77.254 25.495 C 76.568 25.737, 69.593 24.536, 61.754 22.826 C 44.288 19.017, 29.488 18.415, 24.206 21.299 C 16.788 25.348, 14.862 33.246, 17.516 48.731 C 19.125 58.117, 19.233 63.290, 18.596 100.331 C 17.846 143.928, 18.518 157.887, 22.030 171.618 C 23.046 175.589, 24.813 180.674, 25.958 182.917 L 28.038 186.995 33.391 183.975 C 40.842 179.770, 52.655 175.613, 65.013 172.847 C 74.231 170.784, 77.981 170.508, 96 170.567 C 113.922 170.625, 117.506 170.911, 124.500 172.840 C 133.583 175.344, 143.904 179.927, 148.698 183.583 L 151.946 186.061 156.861 183.570 C 163.005 180.457, 168.383 174.265, 170.986 167.307 C 174.625 157.583, 175.337 149.130, 174.383 127 C 173.898 115.725, 173.527 98.400, 173.559 88.500 C 173.610 73.160, 173.951 69.244, 175.864 62 C 178.559 51.801, 179.820 34.401, 178.099 31.185 C 177.223 29.549, 176.010 29, 173.267 29 C 169.937 29, 168.667 29.954, 159.302 39.491 C 152.519 46.398, 149 49.360, 149 48.162 C 149 44.304, 143.019 37.156, 137.552 34.481 C 133.102 32.305, 124.281 30.269, 118 29.969 C 114.601 29.806, 124.514 26.863, 140 23.437 C 158.511 19.342, 163 17.803, 163 15.551 C 163 13.679, 160.962 13.683, 145 15.585 M 115.214 22.444 C 99.107 24.806, 85.686 26.981, 85.390 27.277 C 84.481 28.186, 99.888 29.288, 105.866 28.742 C 108.965 28.460, 115.325 27.077, 120 25.670 C 124.675 24.263, 133.225 22.012, 139 20.668 C 154.126 17.149, 148.406 17.576, 115.214 22.444 M 26 23.752 C 19.144 27.176, 17.677 34.249, 20.556 50 C 21.879 57.240, 22.011 64.946, 21.445 102 C 20.667 152.922, 21.654 165.664, 27.451 179.538 L 28.926 183.066 34.713 180.163 C 43.347 175.833, 55.075 172.063, 67.981 169.470 C 74.316 168.197, 78.150 167.114, 76.500 167.062 C 71.090 166.893, 54.822 163.052, 49.780 160.752 L 44.841 158.500 44.276 128.500 C 43.180 70.343, 43.294 63.129, 45.408 56.682 C 48.124 48.401, 54.483 41.580, 61.569 39.347 L 67.007 37.633 69.808 40.316 C 73.742 44.085, 77.144 43.744, 87.185 38.578 L 95.779 34.156 78.640 34.328 C 60.543 34.510, 44.430 33.764, 43.362 32.695 C 42.365 31.698, 46.750 30.398, 55.768 29.017 C 60.316 28.320, 64.250 27.404, 64.511 26.982 C 65.236 25.809, 43.358 21.980, 36 21.992 C 31.832 21.999, 28.244 22.630, 26 23.752 M 65.058 30.025 C 57.291 31.662, 58.168 31.842, 74 31.858 C 85.162 31.869, 88.810 31.598, 87.033 30.889 C 83.446 29.457, 70.221 28.937, 65.058 30.025 M 168.959 33.916 C 166.535 35.544, 161.288 40.616, 157.298 45.188 L 150.044 53.500 150.022 60.885 C 149.988 72.113, 148.096 80.891, 145.316 82.713 C 141.711 85.074, 138.181 83.624, 136.073 78.914 L 134.275 74.899 122.080 91.432 C 109.578 108.381, 101.192 118.291, 97.832 120.090 C 96.214 120.956, 94.740 119.927, 87.965 113.207 C 82.052 107.342, 80 104.631, 80 102.688 C 80 99.735, 82.381 98.039, 86.684 97.926 C 88.744 97.871, 87.633 97.199, 82.547 95.423 C 74.463 92.599, 73.364 91.773, 75.425 90.062 C 76.531 89.144, 76.780 87.676, 76.356 84.578 C 75.803 80.546, 75.980 80.173, 80.119 76.630 C 83.106 74.074, 85.247 73.004, 86.973 73.206 C 90.663 73.638, 90.521 76.030, 86.491 81.308 L 82.908 86 88.403 86 C 93.908 86, 114.320 82.480, 116.772 81.108 C 119.048 79.834, 104.235 68.018, 100.349 68.007 C 97.865 67.999, 89.624 61.990, 79.305 52.662 C 71.077 45.225, 69.946 45.103, 64.556 51.069 C 57.286 59.117, 55.257 73.026, 54.800 117.959 L 54.500 147.419 58 149.807 C 61.022 151.868, 62.346 152.129, 67.696 151.717 C 75.511 151.114, 82.650 147.774, 98.889 137.125 C 112.487 128.207, 116.318 127.076, 117.994 131.484 C 119.203 134.665, 117.844 142.129, 113.965 153.604 C 112.334 158.428, 111 162.709, 111 163.118 C 111 163.526, 112.388 163.462, 114.084 162.976 C 130.387 158.300, 140.160 139.265, 141.684 109.218 C 142.505 93.024, 144.123 93.574, 145.693 110.581 C 146.348 117.686, 147.655 129.653, 148.595 137.174 C 150.040 148.725, 150.100 151.344, 148.983 154.041 C 146.419 160.231, 135.547 165.668, 122.069 167.499 L 116.637 168.238 125.636 170.513 C 134.184 172.673, 142.991 176.512, 149.422 180.881 C 152.304 182.838, 152.394 182.840, 156.064 180.967 C 161.831 178.025, 166.781 171.496, 169.290 163.523 C 171.704 155.851, 171.929 146.472, 170.942 94.500 C 170.539 73.304, 170.676 70.833, 172.684 63 C 176.905 46.529, 177.661 32.387, 174.379 31.293 C 173.822 31.107, 171.384 32.288, 168.959 33.916 M 123.420 36.360 C 127.945 40.628, 131.693 48.800, 133.802 59.002 C 134.712 63.401, 135.761 67, 136.133 67 C 136.506 67, 139.157 63.835, 142.024 59.968 C 146.483 53.953, 147.147 52.487, 146.616 49.832 C 144.988 41.688, 138.097 35.989, 127.566 34.077 C 119.399 32.595, 119.417 32.585, 123.420 36.360 M 102.500 35.113 C 100.300 35.615, 93.921 38.317, 88.324 41.117 C 82.727 43.918, 77.664 45.910, 77.074 45.546 C 76.483 45.181, 76.029 45.246, 76.065 45.691 C 76.147 46.714, 89.563 58.329, 95.712 62.701 C 98.264 64.515, 101.357 66, 102.586 66 C 105.508 66, 124.295 81.003, 123 82.302 C 121.618 83.688, 97.270 88.263, 88.718 88.744 C 83.338 89.047, 78.739 89.614, 78.497 90.004 C 78.256 90.395, 84.683 93.093, 92.779 96 C 100.876 98.906, 107.695 101.453, 107.933 101.659 C 108.172 101.865, 107.911 102.489, 107.355 103.045 C 106.673 103.727, 104.252 103.564, 99.922 102.543 C 92.383 100.766, 83.404 100.537, 82.440 102.096 C 82.058 102.714, 85.072 106.386, 89.349 110.513 L 96.935 117.832 100.570 114.166 C 107.422 107.257, 133.001 72.266, 132.978 69.833 C 132.935 65.108, 129.055 50.042, 126.672 45.343 C 121.695 35.529, 114.335 32.414, 102.500 35.113 M 61 42.318 C 54.880 45.515, 52.815 47.631, 49.759 53.834 L 46.500 60.451 46.602 80.975 C 46.658 92.264, 46.883 113.997, 47.102 129.271 L 47.500 157.041 52.500 158.908 C 62.516 162.648, 84.485 165.946, 99.627 165.983 L 106.755 166 109.866 157.250 C 113.437 147.210, 116 137.614, 116 134.290 C 116 130.307, 112.281 131.589, 99.442 139.998 C 78.458 153.743, 68.715 157.073, 59.629 153.603 C 51.307 150.424, 51.568 151.544, 51.851 120.201 C 52.309 69.351, 55.020 54.655, 65.481 46.308 C 68.060 44.250, 68.635 43.265, 67.826 42.291 C 66.465 40.650, 64.176 40.659, 61 42.318 M 142.250 64.018 C 136.660 71.284, 136.106 73.370, 138.526 78.050 C 140.423 81.718, 143.681 81.971, 144.981 78.551 C 146.071 75.684, 148.340 59.474, 147.841 58.119 C 147.653 57.610, 145.137 60.264, 142.250 64.018 M 81.325 79.475 C 79.414 81.386, 78.154 83.440, 78.525 84.040 C 79.300 85.294, 82.097 83.069, 85.176 78.750 C 87.973 74.825, 85.511 75.289, 81.325 79.475 M 142.606 126.216 C 140.060 142.722, 131.189 157.612, 120.342 163.589 C 117.524 165.141, 117.542 165.149, 122.431 164.489 C 136.251 162.623, 147 156.522, 147 150.545 C 147 147.310, 144.021 122.687, 143.575 122.242 C 143.405 122.072, 142.969 123.861, 142.606 126.216" stroke="none" fill="black" fill-rule="evenodd"/>
</svg>