<svg xmlns="http://www.w3.org/2000/svg" width="200" height="200" viewBox="0 0 200 200" version="1.1">
	<path d="M 162.833 13.789 C 162.650 14.223, 159.575 15.374, 156 16.346 C 152.425 17.318, 144.325 20.226, 138 22.807 L 126.500 27.500 113.500 27.358 C 103.803 27.252, 98.490 26.681, 92.590 25.108 C 88.240 23.949, 84.352 23, 83.951 23 C 83.551 23, 81.788 27.163, 80.033 32.250 C 76.213 43.329, 71.015 53.957, 68.704 55.415 C 66.098 57.059, 63.775 53.884, 58.539 41.521 C 53.222 28.968, 50.212 24.545, 45.435 22.268 C 41.221 20.258, 36.211 21.572, 31 26.053 L 27.500 29.064 27.479 63.282 L 27.459 97.500 23.654 115.500 C 21.561 125.400, 18.308 140.165, 16.425 148.312 C 12.674 164.533, 12.381 167.043, 14.250 166.913 C 14.938 166.865, 18.425 163.501, 22 159.438 C 36.673 142.763, 52.215 131.439, 56.950 133.973 C 60.630 135.943, 61.084 141.004, 59.574 163.250 C 58.725 175.741, 58.750 176, 60.770 176 C 63.385 176, 67.125 171.256, 74.567 158.500 L 80.400 148.500 80.498 127 C 80.575 109.949, 80.933 104.498, 82.228 100.655 C 85.562 90.766, 90.201 89.379, 97.484 96.092 C 101.673 99.954, 103.823 103.511, 102.665 104.668 C 102.381 104.952, 99.169 102.413, 95.527 99.025 C 91.885 95.637, 88.364 93.049, 87.703 93.274 C 85.653 93.973, 86.484 100.898, 90.372 115.500 C 96.475 138.425, 96.501 154.961, 90.453 167.040 C 87.974 171.989, 81.108 178.858, 75.999 181.500 C 73.684 182.698, 73.076 183.476, 73.852 184.252 C 76.554 186.954, 93.427 176.521, 103.202 166.104 C 111.718 157.028, 116.745 148.602, 125.027 129.520 C 131.837 113.830, 134.061 109.884, 137.706 107.016 C 140.445 104.862, 145.929 104.357, 148.962 105.980 C 150.627 106.871, 150.071 108.158, 142.802 120.230 C 125.702 148.629, 117.910 168.510, 122.200 172.800 C 124.377 174.977, 127.655 174.056, 132.310 169.958 C 140.287 162.937, 148.733 148.721, 154.540 132.546 L 157.755 123.591 158.451 134.046 C 159.813 154.495, 162.223 164.982, 166.477 168.979 C 170.135 172.415, 173.625 171.103, 176.177 165.334 C 179.157 158.596, 178.453 141.506, 174.771 131.194 C 171.438 121.861, 165.376 111.667, 159.034 104.727 L 154.049 99.273 159.127 98.671 C 166.887 97.752, 172.339 94.050, 175.527 87.535 C 177.951 82.579, 178.162 81.247, 177.783 73.284 C 177.227 61.605, 174.387 54.389, 167.580 47.361 C 164.236 43.909, 161.272 41.804, 159.158 41.382 C 156.565 40.863, 155.958 40.296, 156.198 38.615 C 156.467 36.735, 157.360 36.430, 164.253 35.870 C 181.440 34.474, 183.142 29.461, 170.281 18.125 C 164.412 12.951, 163.429 12.379, 162.833 13.789 M 161.321 25.500 L 158.234 33 163.367 32.994 C 170.102 32.987, 176 31.314, 176 29.410 C 176 27.611, 167.212 18, 165.567 18 C 164.930 18, 163.019 21.375, 161.321 25.500 M 148.586 21.534 C 144.784 22.887, 141.409 24.292, 141.086 24.656 C 140.764 25.021, 141.175 25.088, 142 24.806 C 142.825 24.524, 146.537 23.290, 150.250 22.065 C 153.963 20.839, 157 19.649, 157 19.418 C 157 18.682, 155.648 19.022, 148.586 21.534 M 153.500 23.822 C 150.200 25.170, 142.410 27.289, 136.189 28.531 C 129.967 29.773, 124.605 31.062, 124.272 31.395 C 123.939 31.728, 125.654 32.002, 128.083 32.005 C 130.513 32.007, 137.557 32.300, 143.738 32.657 L 154.976 33.304 157.530 27.528 C 158.935 24.351, 159.953 21.666, 159.792 21.561 C 159.632 21.456, 156.800 22.474, 153.500 23.822 M 34.090 27.050 L 29.880 30.099 30.122 62.300 C 30.396 98.692, 30.522 97.576, 21.614 137.591 L 16.405 160.994 27.952 149.662 C 44.260 133.659, 50.680 129.699, 57.529 131.418 C 62.217 132.594, 63.363 137.475, 62.597 153 C 62.231 160.425, 61.698 168.075, 61.413 170 L 60.895 173.500 63.697 170.317 C 65.239 168.566, 68.975 162.728, 72 157.345 L 77.500 147.557 77.522 127.528 C 77.540 110.900, 77.862 106.430, 79.418 101.200 C 83.478 87.551, 91.376 85.304, 100.630 95.165 C 105.897 100.777, 107.686 106.416, 104.578 107.608 C 102.517 108.399, 99.151 106.399, 93.750 101.172 C 91.138 98.644, 89 97.196, 89 97.955 C 89 98.714, 90.334 104.322, 91.964 110.417 C 99.721 139.419, 99.881 153.894, 92.603 168.254 L 89.179 175.009 92.340 172.794 C 103.067 165.278, 112.734 151.178, 122.156 129.305 C 128.854 113.754, 131.694 108.542, 135.307 105.168 C 138.892 101.819, 144.652 101.310, 150.364 103.837 L 155.021 105.897 149.677 114.199 C 136.179 135.162, 125.341 157.382, 124.286 166.250 C 123.793 170.394, 123.955 171, 125.554 171 C 130.425 171, 142.808 154.008, 149.499 138.143 C 153.117 129.563, 157.998 112.998, 157.999 109.292 C 158 107.933, 155.886 105.020, 152.500 101.715 C 149.475 98.761, 146.999 96.155, 146.998 95.922 C 146.996 95.690, 150.259 95.640, 154.248 95.811 C 168.353 96.416, 175.514 89.366, 175.386 75 C 175.252 59.995, 167.021 45.970, 156.897 43.494 C 154.397 42.882, 154.133 43.254, 150.240 52.886 L 146.186 62.914 151.458 65.889 C 157.934 69.544, 166 78.659, 166 82.323 C 166 83.877, 165.219 85.348, 164.066 85.965 C 161.244 87.475, 160.991 87.295, 161.607 84.213 C 161.984 82.330, 161.570 80.720, 160.332 79.252 C 158.339 76.889, 143.962 71.644, 142.760 72.842 C 142.353 73.248, 138.689 82.154, 134.617 92.634 C 125.693 115.599, 124.507 118, 122.081 118 C 119.438 118, 119.076 116.461, 117.993 100.613 C 116.474 78.368, 115.984 80.477, 123.168 78.332 C 126.561 77.319, 129.515 75.955, 129.733 75.301 C 130.490 73.031, 115.025 70.015, 102.579 70.006 C 96.455 70.001, 94.222 70.394, 92.738 71.737 C 90.913 73.389, 90.752 73.381, 89.442 71.589 C 86.662 67.788, 68.840 71.574, 59.607 77.926 C 54.305 81.574, 51.004 86.596, 49.851 92.769 C 49.042 97.097, 49.191 97.562, 52.939 102.408 C 55.105 105.209, 58.967 109.241, 61.521 111.368 C 64.878 114.165, 65.861 115.539, 65.071 116.329 C 64.281 117.119, 62.182 115.640, 57.489 110.989 C 50.480 104.043, 49.608 104.469, 53.542 112.918 C 55.141 116.354, 55.715 118.685, 55.110 119.290 C 53.735 120.665, 49.115 111.051, 47.544 103.542 C 46.829 100.122, 45.701 96.310, 45.038 95.071 C 43.341 91.900, 43.541 84.350, 45.396 81.518 C 49.371 75.451, 60.933 70.370, 76.279 67.945 C 80.557 67.269, 84.266 66.379, 84.520 65.967 C 84.775 65.555, 84.024 63.047, 82.850 60.395 C 80.148 54.285, 79.948 46.477, 82.401 42.768 C 86.235 36.967, 92.486 34.485, 108 32.601 L 118.500 31.327 110.500 30.571 C 102.906 29.853, 89.469 27.501, 86.539 26.377 C 85.722 26.063, 84.897 26.781, 84.468 28.178 C 82.303 35.236, 76.382 49.130, 73.780 53.258 C 67.674 62.945, 63.619 60.611, 56.356 43.230 C 48.511 24.457, 43.099 20.524, 34.090 27.050 M 103.500 35.698 C 94.956 36.831, 85 41.287, 85 43.978 C 85 45.400, 96.044 42.008, 102.935 38.470 C 109.402 35.149, 109.451 34.908, 103.500 35.698 M 105.500 40.030 C 100 42.732, 92.816 45.671, 89.536 46.561 C 82.073 48.587, 83.115 49.272, 97.126 51.555 L 107.742 53.285 113.926 50.195 C 121.510 46.405, 123.869 46.920, 125.960 52.824 C 126.763 55.092, 128.015 57.175, 128.741 57.454 C 129.478 57.737, 133.523 54.655, 137.879 50.493 C 142.179 46.386, 147.282 42.362, 149.221 41.552 C 151.160 40.742, 152.971 39.220, 153.246 38.169 C 153.685 36.490, 153.014 36.182, 147.726 35.629 C 144.415 35.283, 135.810 35.026, 128.603 35.058 L 115.500 35.117 105.500 40.030 M 141.166 51.250 L 133.371 58.500 138.355 60.247 C 141.097 61.208, 143.444 61.883, 143.572 61.747 C 144.725 60.520, 150.618 44, 149.902 44 C 149.384 44, 145.453 47.263, 141.166 51.250 M 116.104 51.893 C 112.208 53.969, 112.660 54.478, 119.250 55.434 C 124.468 56.190, 124.418 56.228, 123.025 52.565 C 121.881 49.557, 120.703 49.443, 116.104 51.893 M 83.517 54.250 C 83.875 55.487, 85.143 58.525, 86.334 61 C 89.371 67.310, 92.246 67.499, 98.654 61.807 C 101.322 59.438, 103.728 57.073, 104.002 56.551 C 104.276 56.029, 100.225 54.824, 95 53.874 C 82.429 51.587, 82.743 51.577, 83.517 54.250 M 104.353 60.481 L 99.585 64.676 111.842 65.369 C 118.583 65.750, 127.774 66.704, 132.267 67.488 C 140.565 68.937, 141.942 68.630, 141.985 65.321 C 142.001 64.094, 132.762 61, 129.083 61 C 127.922 61, 126.191 60.565, 125.236 60.034 C 124.281 59.502, 120.265 58.441, 116.310 57.676 L 109.121 56.286 104.353 60.481 M 144.345 67.543 C 143.606 69.469, 143.294 69.269, 150.748 71.654 C 156.864 73.611, 156.959 73.612, 155.248 71.720 C 153.665 69.969, 146.906 66, 145.508 66 C 145.194 66, 144.671 66.694, 144.345 67.543 M 126.718 70.275 C 128.488 70.949, 130.730 72.296, 131.701 73.269 C 134.308 75.881, 132.405 78.125, 125.567 80.500 L 119.809 82.500 120.523 96.370 C 121.663 118.509, 121.456 118.542, 130.841 94.707 C 135.344 83.271, 139.135 73.408, 139.264 72.791 C 139.510 71.622, 135.714 70.547, 128.016 69.604 C 123.576 69.060, 123.554 69.072, 126.718 70.275 M 54.500 77.164 C 50.431 79.409, 47.007 83.445, 46.392 86.722 C 45.456 91.713, 46.570 91.760, 48.755 86.822 C 49.812 84.433, 52.134 81.020, 53.915 79.239 C 57.441 75.712, 57.499 75.510, 54.500 77.164 M 161.030 123.500 C 161 149.173, 165.094 168, 170.706 168 C 175.192 168, 176.961 149.394, 173.654 137 C 171.827 130.152, 166.299 118.219, 162.999 114 L 161.044 111.500 161.030 123.500" stroke="none" fill="black" fill-rule="evenodd"/>
</svg>