<svg xmlns="http://www.w3.org/2000/svg" width="200" height="200" viewBox="0 0 200 200" version="1.1">
	<path d="M 130 17.569 C 116.525 20.557, 103.232 23.279, 100.461 23.619 C 94.396 24.362, 60.919 21.493, 52.500 19.509 C 44.650 17.659, 28.835 15.993, 27.298 16.853 C 24.114 18.635, 28.611 20.075, 42.801 21.815 C 51.168 22.842, 58.263 23.930, 58.567 24.233 C 58.870 24.537, 58.401 27.252, 57.524 30.268 L 55.930 35.751 46.715 39.020 C 28.644 45.431, 17.423 52.495, 15.585 58.618 C 14.546 62.080, 16.695 65.946, 23.836 73.464 C 29.695 79.633, 30.757 81.338, 31.890 86.400 C 33.593 94.008, 33.461 105.074, 31.584 112.135 C 30.760 115.234, 28.213 121.984, 25.924 127.135 C 16.775 147.727, 16.227 151.515, 21.965 154.482 C 25.949 156.542, 36 156.555, 36 154.500 C 36 153.339, 34.688 153, 30.191 153 C 19.244 153, 18.661 149.995, 26.352 133.216 C 34.097 116.320, 35.503 110.975, 35.480 98.500 C 35.454 83.656, 34.528 81.119, 25.527 71.225 C 20.551 65.754, 18 62.137, 18 60.552 C 18 55.286, 28.660 48.349, 46.330 42.115 C 51.186 40.402, 55.349 39, 55.580 39 C 55.811 39, 56 40.930, 56 43.288 C 56 49.645, 59.550 55.682, 66.696 61.476 C 75.624 68.715, 75.029 70.384, 59.540 81.523 C 57.241 83.177, 56.582 84.612, 55.936 89.377 C 54.975 96.456, 56.336 105.755, 59.156 111.371 C 60.296 113.642, 63.427 118.052, 66.114 121.171 C 68.801 124.290, 71 127.745, 71 128.848 C 71 131.498, 65.851 135.629, 56.016 140.869 C 48.702 144.766, 46.193 147, 49.131 147 C 51.476 147, 66.523 138.356, 70.185 134.905 C 75.446 129.947, 75.225 127.502, 68.866 120.308 C 60.412 110.745, 57.113 101.252, 58.470 90.392 C 59.138 85.047, 59.254 84.891, 66.522 79.516 C 78.442 70.701, 78.695 68.687, 68.975 60.048 C 65.111 56.614, 61.340 52.611, 60.593 51.152 C 58.706 47.462, 57.790 40.791, 58.930 39.037 C 59.454 38.232, 64.066 36.392, 69.180 34.949 L 78.478 32.325 79.571 34.413 C 80.172 35.561, 81.244 36.369, 81.954 36.209 C 86.961 35.081, 98.918 34.886, 100.815 35.901 C 106.435 38.909, 100.682 48.643, 80.777 69.801 C 65.393 86.155, 67.423 89.318, 87 79.500 C 97.394 74.287, 101.032 73.051, 100.975 74.750 C 100.937 75.878, 95.500 82.681, 85.808 93.723 C 74.389 106.734, 70 113.329, 70 117.478 C 70 122.260, 72.095 123.454, 80.370 123.388 C 88.565 123.323, 95.344 120.724, 103.359 114.575 C 106.031 112.525, 108.056 111.219, 107.859 111.674 C 107.661 112.128, 105.573 115.702, 103.217 119.614 C 100.140 124.725, 96.254 129.090, 89.420 135.114 C 74.581 148.194, 66.565 158.566, 69.014 161.517 C 70.783 163.649, 73.356 163.360, 79.283 160.362 C 86.377 156.774, 94.102 151.443, 104.374 143.047 C 109.465 138.885, 113.916 136.009, 115.247 136.022 C 118.020 136.049, 126 139.578, 126 140.777 C 126 142.473, 121.381 145.905, 110.394 152.372 C 98.822 159.182, 92.997 164.513, 93.004 168.285 C 93.011 172.303, 96.555 176.484, 102.757 179.790 C 127.125 192.778, 145.785 178.510, 147.699 145.426 C 148.042 139.498, 147.783 131.883, 147.069 126.926 C 145.809 118.159, 140.980 102.181, 138.389 98.204 C 136.924 95.954, 137.305 92, 138.987 92 C 140.291 92, 142.640 100.030, 146.007 116 C 152.012 144.480, 156.271 156.708, 161.661 160.948 C 165.439 163.920, 170.661 163.601, 176.249 160.057 C 183.872 155.223, 185.851 148.632, 182.122 140.500 C 180.207 136.325, 172.725 126.101, 161.631 112.500 C 146.971 94.526, 146.121 83.062, 159.028 77.367 C 162.484 75.843, 163.338 74.740, 165.984 68.384 C 169.329 60.348, 169.901 54.560, 167.442 53.616 C 165.267 52.782, 160.058 55.701, 149 63.951 C 137.311 72.672, 128.053 77.481, 124.617 76.619 C 121.397 75.811, 119.581 70.558, 119.535 61.927 C 119.506 56.409, 119.938 54.692, 122.228 51.232 C 127.185 43.741, 135.499 40.136, 156.210 36.500 C 163.750 35.176, 171.288 33.385, 172.960 32.521 C 177.140 30.359, 176.916 27.291, 172.250 22.782 C 167.572 18.262, 158.053 11.977, 156.023 12.069 C 155.185 12.106, 143.475 14.582, 130 17.569 M 132.250 19.736 C 120.563 22.251, 111 24.601, 111 24.957 C 111 25.313, 118.537 26.171, 127.750 26.864 C 136.963 27.556, 144.888 28.506, 145.363 28.974 C 145.837 29.443, 145.881 30.383, 145.461 31.063 C 144.881 32.001, 140.670 32.176, 128.098 31.786 C 118.969 31.503, 108.800 31.594, 105.500 31.989 C 102.200 32.383, 100.218 32.772, 101.095 32.853 C 103.377 33.063, 106 36.280, 106 38.869 C 106 44.162, 99.132 53.865, 82.563 71.982 C 77.793 77.197, 74.325 81.608, 74.855 81.785 C 75.386 81.962, 80.803 79.608, 86.894 76.553 C 98.344 70.811, 102.608 69.815, 103.688 72.631 C 104.598 75.001, 101.845 79.447, 93.864 88.500 C 82.423 101.477, 74.796 111.263, 73.254 114.944 C 71.940 118.081, 71.970 118.505, 73.597 119.694 C 75.964 121.425, 82.462 121.349, 88.627 119.518 C 94.394 117.806, 103.427 111.821, 110.244 105.197 C 118.208 97.458, 117.744 101.099, 108.934 115.490 C 101.879 127.012, 99.823 129.515, 90.740 137.632 C 76.835 150.058, 68.727 160, 72.498 160 C 76.531 160, 91.658 150.242, 105.168 138.927 C 112.012 133.196, 112.700 132.856, 116.323 133.436 C 118.446 133.775, 121.942 134.950, 124.092 136.047 C 127.234 137.650, 128 138.591, 128 140.846 C 128 144.526, 125.697 146.544, 113 153.994 C 96.238 163.829, 93.053 168.144, 98.518 173.609 C 105.803 180.894, 121.128 183.770, 129.500 179.423 C 146.224 170.741, 150.373 130.562, 137.401 102.919 C 134.069 95.818, 133.812 94.720, 134.978 92.542 C 137.571 87.695, 141.095 88.280, 143.356 93.933 C 144.188 96.010, 146.737 106.438, 149.022 117.105 C 155.083 145.406, 158.937 155.947, 164.575 159.641 C 167.680 161.676, 172.705 160.087, 177.517 155.549 C 184.330 149.124, 181.988 142.171, 166.557 123 C 154.024 107.431, 150.277 102.036, 148.503 97.010 C 145.331 88.018, 147.456 81.262, 154.944 76.535 C 157.153 75.141, 159.364 74, 159.857 74 C 161.409 74, 167.692 57.359, 166.566 56.232 C 165.860 55.527, 160.548 58.832, 151 65.916 C 127.821 83.113, 119.844 83.564, 117.149 67.830 C 115.433 57.819, 118.224 49.168, 124.717 44.367 C 131.920 39.042, 139.034 36.656, 157 33.542 C 173.845 30.623, 175.640 29.375, 170.250 24.330 C 165.638 20.013, 157.643 14.995, 155.513 15.081 C 154.406 15.125, 143.938 17.220, 132.250 19.736 M 60.796 29.142 C 59.960 32.089, 59.327 34.572, 59.388 34.660 C 59.540 34.877, 88.413 26.920, 88.770 26.563 C 88.926 26.407, 85.104 25.975, 80.277 25.604 C 75.450 25.232, 69.434 24.671, 66.908 24.356 L 62.316 23.784 60.796 29.142 M 96 28.032 C 94.399 28.524, 96.886 28.836, 102.917 28.900 C 108.096 28.955, 112.146 28.838, 111.917 28.640 C 110.955 27.808, 98.298 27.325, 96 28.032" stroke="none" fill="black" fill-rule="evenodd"/>
</svg>