<svg xmlns="http://www.w3.org/2000/svg" width="200" height="200" viewBox="0 0 200 200" version="1.1">
	<path d="M 103.515 21.977 C 102.134 24.164, 99.557 28.889, 97.787 32.477 C 96.018 36.065, 94.198 39, 93.742 39 C 93.287 39, 90.571 37.260, 87.707 35.133 C 79.872 29.315, 74.159 26.310, 67.363 24.431 C 60.153 22.438, 55.313 23.031, 51.279 26.402 C 49.064 28.253, 46.942 28.822, 40.827 29.207 C 27.174 30.066, 18.508 36.086, 13.774 48 C 11.894 52.732, 11.596 55.385, 11.640 67 C 11.672 75.290, 12.288 83.202, 13.236 87.500 C 14.427 92.899, 14.617 97.244, 14.066 106.500 C 13.228 120.585, 14.238 134.056, 16.569 139.880 C 20.634 150.040, 28.444 150.526, 48 141.834 L 60.500 136.278 61.113 103.889 C 61.878 63.439, 61.753 65.729, 63.154 66.595 C 64.014 67.126, 64.136 77.051, 63.631 105.404 C 62.939 144.292, 63.458 154.856, 66.604 165.898 C 68.440 172.344, 72.643 177, 76.624 177 C 80.823 177, 89.498 167.446, 95 156.762 C 99.439 148.142, 100.996 146.323, 101.004 149.750 C 101.010 152.568, 104.718 157.853, 108.241 160.064 C 114.969 164.286, 126.369 159.941, 137 149.103 C 145.275 140.666, 148.558 133.957, 149.285 124 C 150.020 113.932, 152.120 103, 153.318 103 C 153.935 103, 154.039 108.036, 153.602 116.750 C 152.375 141.239, 148.517 161.675, 144.093 167.130 L 142.170 169.500 139.572 167.063 C 137.683 165.292, 136.673 164.927, 135.874 165.726 C 134.270 167.330, 135.349 168.505, 143.026 173.517 C 151.378 178.969, 153.937 180, 159.115 180 C 168.772 180, 174.419 172.275, 178.154 153.953 C 180.025 144.773, 179.728 103.558, 177.659 85.180 L 176.046 70.859 179.410 64.178 C 189.802 43.544, 187.741 30.924, 173 24.925 C 167.842 22.825, 147.350 23.066, 139 25.323 C 131.130 27.451, 125.997 29.909, 124.591 32.222 C 122.637 35.439, 125.360 36.500, 135.565 36.500 C 143.115 36.500, 145.112 36.803, 145.457 38 C 146.578 41.889, 149.997 57.290, 149.970 58.329 C 149.953 58.973, 149.444 58.600, 148.838 57.500 C 146.210 52.727, 141.623 49, 138.376 49 C 134.286 49, 131.911 51.883, 129.571 59.685 C 128.612 62.883, 127.501 66.595, 127.102 67.934 C 126.402 70.286, 126.113 70.123, 118.513 63.076 C 111 56.110, 110.473 55.807, 106.729 56.310 C 103.124 56.793, 102.854 56.666, 103.362 54.724 C 105.526 46.449, 110.112 20.734, 109.642 19.509 C 108.626 16.862, 106.102 17.879, 103.515 21.977 M 100.781 32.741 C 93.100 47.675, 82 72.293, 82 74.393 C 82 75.567, 84.865 73.493, 90.785 68.034 L 99.569 59.932 103.331 41.346 C 105.400 31.123, 106.917 22.584, 106.703 22.370 C 106.489 22.156, 103.824 26.823, 100.781 32.741 M 55 27.184 C 52.790 28.118, 53.718 28.508, 63 30.544 C 68.775 31.811, 75.750 33.551, 78.500 34.413 C 85.220 36.517, 85.266 36.443, 79.500 32.820 C 70.012 26.858, 60.789 24.736, 55 27.184 M 140.500 27.884 C 131.937 30.131, 128.414 31.522, 127.487 33.021 C 126.970 33.858, 129.538 34.091, 137.053 33.889 L 147.327 33.613 150.695 48.057 C 154.017 62.301, 154.457 66.954, 152.503 67.175 C 151.955 67.237, 150.082 64.861, 148.341 61.894 C 143.940 54.396, 139.449 50.239, 137.214 51.597 C 134.703 53.122, 132.267 58.578, 130.647 66.307 C 129.863 70.050, 128.984 73.349, 128.696 73.637 C 127.728 74.605, 123.693 71.786, 116.860 65.369 C 107.692 56.758, 103.169 56.961, 101.068 66.078 C 99.483 72.954, 99.672 74, 102.494 74 C 104.264 74, 105.850 75.190, 107.959 78.101 C 109.593 80.357, 111.202 83.062, 111.536 84.112 C 112.686 87.737, 117.541 89.203, 128.142 89.128 C 133.564 89.090, 138 89.456, 138 89.943 C 138 91.016, 105.371 102.037, 104.568 101.234 C 103.124 99.791, 104.680 98.907, 114.105 95.818 L 124.210 92.506 119.975 91.783 C 114.164 90.791, 111.641 88.906, 107.540 82.495 C 103.859 76.741, 100.909 75.425, 99.139 78.750 C 98.627 79.713, 97.665 85.652, 97.001 91.950 C 95.125 109.765, 96.974 118, 102.852 118 C 105.734 118, 113.233 113.610, 116.481 110.021 C 118.787 107.473, 117.178 107.320, 111 109.500 C 106.156 111.209, 104 111.397, 104 110.109 C 104 108.807, 111.478 106.028, 116.854 105.332 C 119.409 105.001, 122.259 104.072, 123.187 103.267 C 125.061 101.642, 127 102.320, 127 104.600 C 127 105.414, 128.012 107.454, 129.250 109.131 C 132.443 113.460, 132.262 122.654, 128.847 129.516 C 126.285 134.665, 122.652 136.635, 120.878 133.837 C 119.592 131.809, 119.832 125.052, 121.500 116.338 C 122.325 112.027, 123 108.346, 123 108.157 C 123 107.969, 120.661 109.918, 117.802 112.488 C 102.336 126.393, 93.762 123.293, 93.762 103.796 C 93.762 98.906, 93.599 95.068, 93.399 95.268 C 93.199 95.467, 92.068 101.789, 90.884 109.315 C 89.278 119.535, 88.370 123, 87.299 123 C 86.099 123, 85.901 120.171, 86.090 105.750 C 86.284 90.876, 86.069 88.018, 84.530 85 C 83.549 83.075, 82.571 81.306, 82.358 81.068 C 82.145 80.831, 80.441 82.119, 78.571 83.931 C 73.689 88.663, 72.565 87.134, 75.668 79.980 L 78.251 74.024 74.106 67.762 C 71.826 64.318, 68.821 60.150, 67.429 58.500 L 64.897 55.500 65.699 59.500 C 66.139 61.700, 66.374 81.950, 66.221 104.500 C 65.940 145.811, 66.604 157.762, 69.662 166.450 C 73.482 177.303, 79.187 176.504, 87.536 163.946 C 90.031 160.193, 93.869 153.288, 96.065 148.603 C 98.973 142.397, 100.456 140.238, 101.528 140.649 C 102.428 140.994, 103 142.546, 103 144.639 C 103 152.272, 108.376 159, 114.475 159 C 119.614 159, 129.142 153.581, 135.235 147.192 C 142.722 139.343, 146.047 132.553, 146.522 124.138 C 146.920 117.108, 149.480 102.498, 151.027 98.428 C 152.104 95.597, 154.491 95.232, 155.458 97.750 C 156.662 100.888, 156.031 126.660, 154.455 138.722 C 152.530 153.452, 150.548 161.301, 147.375 166.764 C 146.014 169.109, 145.114 171.376, 145.377 171.800 C 146.521 173.652, 155.315 177.130, 158.980 177.180 C 164.614 177.258, 167.731 174.799, 171.086 167.630 C 175.913 157.315, 177.313 144.606, 176.609 117.500 C 176.281 104.850, 175.368 89.005, 174.581 82.290 L 173.149 70.079 176.092 64.647 C 182.955 51.976, 184.823 40.502, 181.035 34.290 C 177.553 28.579, 172.139 26.619, 159 26.314 C 150.358 26.113, 145.760 26.503, 140.500 27.884 M 37.610 32.055 C 27.100 33.816, 18.631 40.891, 15.777 50.292 C 14.070 55.917, 14.280 79.588, 16.112 88 C 17.211 93.046, 17.332 97.295, 16.652 107 C 15.167 128.194, 17.952 141.816, 24.394 144.874 C 28.090 146.628, 34.493 144.978, 48.304 138.714 L 57.935 134.346 58.401 102.423 C 58.888 69.057, 59.937 57.323, 62.610 55.323 C 63.970 54.305, 63.607 53.728, 59.942 51.073 C 52.812 45.908, 47.019 47.718, 43.435 56.231 C 41.815 60.078, 41.656 63.685, 41.832 92.683 C 41.971 115.638, 41.704 125.065, 40.902 125.561 C 40.283 125.943, 39.418 125.676, 38.980 124.967 C 36.127 120.351, 34.707 83.085, 36.923 71 C 37.478 67.975, 38.662 60.775, 39.554 55 C 40.974 45.804, 42.841 38.764, 45.454 32.750 C 46.312 30.775, 45.616 30.713, 37.610 32.055 M 47.526 34.949 C 46.076 37.753, 43 48.277, 43 50.433 C 43 50.989, 43.657 50.507, 44.460 49.360 C 46.896 45.883, 51.454 44.520, 56.047 45.896 C 60.960 47.368, 69.075 55.163, 75.168 64.262 L 79.695 71.025 86.263 56.762 C 89.875 48.918, 92.701 42.370, 92.543 42.211 C 92.385 42.052, 88.260 40.554, 83.378 38.882 C 72.435 35.135, 58.901 32.050, 53.276 32.022 C 49.599 32.003, 48.853 32.383, 47.526 34.949 M 90.795 71.750 L 84.144 78.500 86.527 83 C 88.313 86.374, 88.946 89.252, 89.055 94.500 L 89.201 101.500 90.613 95.038 C 91.390 91.484, 93.109 85.409, 94.434 81.538 C 96.672 74.995, 98.729 65, 97.837 65 C 97.622 65, 94.453 68.037, 90.795 71.750 M 38.355 94.500 C 38.352 99.450, 38.521 101.601, 38.731 99.280 C 38.940 96.959, 38.943 92.909, 38.736 90.280 C 38.530 87.651, 38.358 89.550, 38.355 94.500 M 124.001 118.250 C 123.337 122.787, 122.956 128.075, 123.153 130 L 123.512 133.500 125.841 129.122 C 128.600 123.938, 129.749 115.267, 128.088 112.164 C 126.102 108.453, 125.247 109.724, 124.001 118.250" stroke="none" fill="black" fill-rule="evenodd"/>
</svg>