<svg xmlns="http://www.w3.org/2000/svg" width="200" height="200" viewBox="0 0 200 200" version="1.1">
	<path d="M 99 13.818 C 99 14.342, 99.649 16.285, 100.443 18.135 C 101.862 21.446, 101.830 21.548, 98.406 24.500 C 96.492 26.150, 89.881 34.221, 83.713 42.436 C 77.546 50.651, 71.256 58.281, 69.735 59.393 L 66.969 61.414 64.941 59.386 C 61.444 55.889, 59.768 47.664, 59.882 34.563 C 59.994 21.685, 58.891 18, 54.927 18 C 45.913 18, 26.961 42.567, 21.510 61.319 C 18.685 71.036, 20.798 75, 28.803 75 C 32.574 75, 32.764 75.157, 33.358 78.750 C 35.266 90.294, 33.412 105.033, 26.963 129.593 C 24.783 137.894, 23 145.911, 23 147.409 C 23 158.316, 31.912 156.242, 58.162 139.225 C 75.635 127.899, 78 127.161, 78 133.036 C 78 136.944, 74.695 145.301, 65.560 164.500 C 58.136 180.100, 57.076 183.874, 59.859 184.791 C 61.329 185.276, 74.956 171.809, 86.970 158 C 91.037 153.325, 94.673 149.370, 95.050 149.211 C 95.426 149.052, 96.027 150.386, 96.385 152.174 C 97.548 157.990, 104.784 171.543, 109.564 176.860 C 120.848 189.410, 134.684 191.916, 150.772 184.322 C 163.226 178.444, 177 153.353, 177 136.544 C 177 126.578, 174.188 120.729, 167.800 117.405 C 163.864 115.357, 154.850 115.672, 148.225 118.087 C 139.004 121.450, 139.339 121.441, 138.711 118.330 C 138.397 116.773, 137.860 114.776, 137.517 113.892 C 136.970 112.477, 138.552 112.219, 150.697 111.750 C 176.847 110.739, 188.871 105.590, 186.562 96.391 C 186.182 94.875, 183 90.679, 179.492 87.067 C 175.984 83.455, 170.714 77.360, 167.781 73.522 C 163.139 67.449, 157.115 62, 155.043 62 C 154.680 62, 153.509 62.638, 152.441 63.417 C 150.751 64.651, 150.456 66.334, 150.164 76.417 C 149.979 82.788, 149.438 88, 148.962 88 C 147.489 88, 135 68.399, 135 66.087 C 135 65.691, 138.037 64.779, 141.750 64.061 C 154.858 61.525, 175.222 56.085, 177.711 54.454 C 180.055 52.918, 180.115 52.687, 178.577 51.151 C 177.179 49.755, 174.473 49.500, 161.058 49.500 L 145.193 49.500 149.596 44.793 C 154.600 39.445, 155.251 35.860, 151.975 31.696 C 148.859 27.734, 140.565 24.348, 120.698 18.926 C 110.689 16.194, 101.713 13.713, 100.750 13.412 C 99.787 13.111, 99 13.294, 99 13.818 M 103.596 18.389 C 103.926 19.248, 104.943 19.566, 106.261 19.221 C 108.314 18.685, 108.321 18.636, 106.446 17.902 C 103.542 16.766, 103.008 16.857, 103.596 18.389 M 46.385 26.182 C 32.174 39.583, 19.320 66.177, 24.533 71.390 C 26.212 73.069, 27.542 73.074, 33.120 71.426 C 34.995 70.872, 35.725 73.572, 36.656 84.507 C 37.473 94.106, 35.671 106.353, 30.433 126.805 C 25.794 144.912, 25.075 150.708, 27.355 151.583 C 28.100 151.868, 30.912 151.260, 33.605 150.231 C 38.225 148.464, 41.665 146.434, 63.477 132.600 C 70.638 128.059, 73.147 126.966, 75.876 127.203 C 77.758 127.366, 79.778 128.267, 80.365 129.204 C 82.303 132.299, 79.392 141.435, 70.459 160.284 C 65.711 170.303, 61.577 179.175, 61.271 180 C 60.329 182.545, 71.677 171.149, 83.624 157.554 C 89.881 150.434, 95 143.989, 95 143.231 C 95 142.473, 95.753 141.999, 96.673 142.177 C 97.900 142.414, 98.404 143.700, 98.563 147 C 99.023 156.559, 106.761 171.099, 115.468 178.763 C 123.885 186.172, 133.535 187.710, 145.382 183.529 C 153.386 180.705, 155.527 178.928, 162.052 169.691 C 169.161 159.629, 173.138 149.328, 173.760 139.373 C 174.364 129.683, 173.848 127.161, 170.427 123.096 C 165.672 117.444, 156.676 117.072, 145.105 122.050 C 138.455 124.911, 139.025 127.415, 146.717 129.136 C 149.747 129.814, 152.900 131.043, 153.724 131.867 C 155.054 133.197, 155.037 133.500, 153.566 134.576 C 152.655 135.242, 149.870 136.092, 147.376 136.466 C 144.311 136.926, 143 137.557, 143.329 138.414 C 144.639 141.829, 146.158 159.580, 145.554 164.416 C 144.753 170.827, 141.934 175, 138.405 175 C 132.140 175, 121.852 160.160, 117.465 144.794 L 115.550 138.089 110.534 137.794 L 105.517 137.500 101.661 130 C 98.156 123.181, 97.841 121.933, 98.200 116.250 C 98.417 112.813, 98.236 110, 97.797 110 C 97.359 110, 97 109.325, 97 108.500 C 97 107.656, 97.894 107, 99.042 107 C 100.165 107, 102.077 106.060, 103.292 104.911 C 104.506 103.763, 107.620 101.739, 110.211 100.414 C 114.244 98.352, 115.078 97.395, 116.010 93.753 C 116.609 91.414, 117.321 88.850, 117.592 88.056 C 117.964 86.971, 117.622 87.033, 116.214 88.306 C 111.964 92.153, 111.813 88.769, 116 83.500 C 117.650 81.424, 119 79.062, 119 78.251 C 119 75.127, 106.665 79.313, 91.317 87.646 L 83.135 92.089 80.532 99.905 C 75.939 113.695, 70.966 119.394, 65.139 117.544 C 60.346 116.023, 56.329 100.781, 57.497 88.548 C 60.116 61.130, 76.950 54.249, 99.367 71.434 C 102.044 73.487, 104.590 74.791, 105.025 74.333 C 105.459 73.875, 107.200 69.545, 108.893 64.711 C 110.586 59.877, 112.433 55.059, 112.998 54.004 C 113.804 52.498, 112.935 49.291, 108.950 39.063 C 106.158 31.901, 103.371 25.729, 102.755 25.348 C 101.286 24.440, 95.074 31.374, 85.872 44.194 C 81.817 49.843, 76.634 56.417, 74.353 58.803 C 70.867 62.451, 69.688 63.091, 66.952 62.821 C 60.399 62.175, 56.829 51.864, 56.624 33 C 56.504 21.897, 56.423 21.489, 54.262 21.182 C 52.681 20.957, 50.369 22.425, 46.385 26.182 M 107.250 21.662 C 106.563 21.940, 106 22.710, 106 23.375 C 106 24.391, 111.424 38.476, 115.058 46.900 L 116.094 49.301 119.634 45.900 C 121.581 44.030, 124.052 41.281, 125.125 39.792 C 127.076 37.084, 127.076 37.084, 124.602 32.202 C 120.180 23.475, 113.226 19.251, 107.250 21.662 M 123.771 25.842 C 125.301 27.955, 127.393 31.545, 128.419 33.820 L 130.284 37.956 123.702 45.311 L 117.120 52.666 121.907 65.583 C 124.539 72.687, 127.908 82.162, 129.392 86.638 L 132.090 94.777 138.531 95.466 C 146.194 96.287, 150.242 98.798, 148.087 101.395 C 147.345 102.289, 144.322 103.723, 141.369 104.581 C 136.146 106.100, 134.297 108.409, 137.363 109.586 C 138.112 109.873, 144.977 109.638, 152.618 109.063 C 174.103 107.447, 183.125 104.440, 183.815 98.667 C 184.064 96.581, 182.712 94.511, 177.315 88.718 C 173.567 84.695, 168.250 78.536, 165.500 75.031 C 162.750 71.526, 159.241 67.731, 157.702 66.598 C 153.794 63.720, 153.034 65.355, 153.015 76.685 C 152.982 96.707, 148.051 95.892, 135.868 73.851 C 133.381 69.351, 131.138 66.394, 130.421 66.669 C 129.271 67.110, 127.378 65.288, 128.167 64.500 C 128.369 64.298, 137.527 62.133, 148.517 59.689 C 159.508 57.245, 170.075 54.515, 172 53.622 C 175.338 52.074, 174.586 52.016, 155.750 52.382 C 144.887 52.593, 136 52.615, 136 52.431 C 136 52.247, 137.926 50.771, 140.281 49.151 C 151.386 41.510, 153.652 36.124, 147.677 31.567 C 144.871 29.427, 124.889 22, 121.936 22 C 121.414 22, 122.240 23.729, 123.771 25.842 M 114.563 57.107 C 114.297 57.873, 112.536 62.663, 110.649 67.750 C 108.762 72.838, 107.282 76.995, 107.359 76.989 C 107.437 76.983, 109.714 76.307, 112.420 75.486 C 116.806 74.155, 117.594 74.159, 119.670 75.520 C 122.857 77.607, 122.759 76.317, 118.895 65.330 C 115.435 55.489, 115.248 55.134, 114.563 57.107 M 73.604 65.041 C 69.446 66.282, 65.488 70.460, 62.875 76.368 C 59.807 83.302, 59.499 101.906, 62.331 109.246 C 66.524 120.114, 72.020 116.413, 77.934 98.739 L 80.690 90.500 91.818 84.500 C 97.938 81.200, 102.957 78.259, 102.973 77.963 C 103.022 76.993, 93.402 70.237, 88.401 67.730 C 82.516 64.779, 77.522 63.872, 73.604 65.041 M 120.649 87.914 C 119.192 92.323, 118 96.186, 118 96.500 C 118 97.046, 128.128 96.046, 128.853 95.428 C 129.320 95.031, 124.960 81.729, 124.026 80.699 C 123.626 80.259, 122.106 83.506, 120.649 87.914 M 122.250 99.185 C 117.297 100.098, 117 100.322, 117 103.156 C 117 105.897, 117.240 106.112, 119.750 105.617 C 121.263 105.319, 124.587 104.790, 127.138 104.441 C 131.572 103.834, 131.744 103.690, 131.066 101.153 C 130.243 98.075, 129.351 97.876, 122.250 99.185 M 133.557 100.250 C 133.937 101.487, 134.393 102.663, 134.570 102.863 C 135.143 103.508, 145 100.826, 145 100.025 C 145 99.108, 139.969 98, 135.808 98 C 133.218 98, 132.948 98.270, 133.557 100.250 M 108.500 104.474 C 104.460 106.962, 105.156 107.519, 110.875 106.375 C 113.042 105.942, 114 105.175, 114 103.875 C 114 101.437, 113.309 101.512, 108.500 104.474 M 122 108 L 117.500 108.700 121.500 108.861 C 123.700 108.949, 127.188 109.301, 129.250 109.642 C 132.304 110.147, 133 109.959, 133 108.631 C 133 106.857, 130.333 106.704, 122 108 M 101.423 112.125 C 99.664 114.971, 100.732 122.013, 103.896 128.440 C 107.060 134.867, 107.205 135, 111.074 135 L 115.024 135 114.428 130.750 C 114.101 128.412, 113.583 125.825, 113.278 125 C 112.972 124.175, 112.672 120.800, 112.611 117.500 L 112.500 111.500 107.339 111.201 C 104.058 111.011, 101.904 111.347, 101.423 112.125 M 116 116.462 L 116 121 126.394 121 L 136.789 121 135.537 116.750 L 134.284 112.500 125.142 112.212 L 116 111.925 116 116.462 M 129.500 125.559 C 137.245 127.306, 138 127.301, 138 125.500 C 138 124.295, 136.573 124.020, 130.750 124.102 L 123.500 124.205 129.500 125.559 M 117 128.918 C 117 134.563, 117.602 135.001, 125.357 134.989 C 136.228 134.972, 139.857 134.170, 139.267 131.914 C 138.950 130.700, 137.509 129.827, 135.140 129.412 C 133.138 129.062, 128.433 128.151, 124.685 127.388 C 120.936 126.624, 117.674 126, 117.435 126 C 117.196 126, 117 127.313, 117 128.918 M 142 132.383 C 142 133.564, 142.943 134, 145.500 134 C 147.425 134, 149 133.550, 149 133 C 149 132.450, 148.438 131.994, 147.750 131.986 C 147.063 131.979, 145.488 131.701, 144.250 131.370 C 142.596 130.926, 142 131.195, 142 132.383 M 124.649 137.720 L 118.797 138.106 119.483 141.803 C 120.556 147.592, 125.744 159.292, 129.832 165.143 C 134.121 171.283, 138.092 173.336, 140.678 170.750 C 142.912 168.517, 143.468 155.898, 141.791 145.500 L 140.500 137.500 135.500 137.417 C 132.750 137.372, 127.867 137.508, 124.649 137.720" stroke="none" fill="black" fill-rule="evenodd"/>
</svg>