<svg xmlns="http://www.w3.org/2000/svg" width="200" height="200" viewBox="0 0 200 200" version="1.1">
	<path d="M 96.624 17.750 C 96.988 19.262, 98.347 22.623, 99.643 25.217 C 100.939 27.811, 102 30.826, 102 31.916 C 102 33.661, 101.307 33.421, 96.212 29.905 C 86.099 22.926, 79.099 24.455, 74 34.755 C 72.064 38.666, 71.049 39.726, 69.500 39.456 C 65.006 38.671, 24.890 36.776, 24.344 37.323 C 22.190 39.476, 26.108 40.929, 43.224 44.325 C 53.350 46.335, 63.294 48.553, 65.320 49.254 L 69.005 50.530 64.253 56.214 C 58.254 63.387, 48.480 71.442, 34.285 80.907 C 22.448 88.801, 19.936 91.738, 22.815 94.316 C 24.730 96.030, 34.136 97.972, 40.934 98.057 C 45.335 98.111, 45.175 98.213, 36.500 100.863 C 20.939 105.617, 19.959 107.123, 28.009 113.911 C 34.047 119.002, 36.167 122.800, 36.167 128.529 C 36.167 136.029, 28.621 149.254, 19.094 158.453 C 14.406 162.979, 14.149 164.129, 17.189 166.961 C 20.198 169.765, 23.981 169.520, 32 166 C 42.269 161.493, 46.785 162.196, 51.528 169.041 C 54.330 173.083, 58.623 184.787, 59.642 191.163 C 60.571 196.972, 62.986 195.830, 65.144 188.561 C 68.152 178.429, 70.980 163.993, 72.308 152 L 73.580 140.500 78.540 140.577 C 87.200 140.712, 101.047 142.268, 101.604 143.168 C 101.899 143.645, 100.834 145.715, 99.239 147.768 C 93.196 155.542, 88.731 163.934, 88.615 167.738 C 88.502 171.430, 88.567 171.498, 92.103 171.399 C 96.361 171.280, 101.996 167.636, 113.220 157.746 L 121 150.890 121.021 159.195 C 121.045 168.816, 122.867 178.622, 125.329 182.379 C 127.570 185.800, 130.966 185.752, 134.510 182.250 C 138.393 178.412, 144.521 165.171, 147.296 154.623 L 149.631 145.746 151.367 150.290 C 154.694 159.002, 163.828 167, 170.451 167 C 180.836 167, 185.624 154.106, 179.074 143.777 C 175.771 138.569, 168.341 132.312, 161.565 129.031 C 159.060 127.819, 156.815 126.510, 156.576 126.123 C 155.686 124.683, 159.471 118.723, 165.657 111.824 C 176.395 99.850, 175.505 96.843, 160.979 96.013 L 152.004 95.500 158.636 92.071 C 166.473 88.020, 177.575 77.744, 178.583 73.610 C 180.653 65.114, 172.562 59.666, 156 58.405 C 151.875 58.091, 146.025 56.896, 143 55.749 C 133.972 52.328, 123.881 47.002, 124.507 45.989 C 124.855 45.425, 135.072 45.135, 149.796 45.271 C 171.976 45.477, 174.837 45.316, 177.801 43.698 C 179.617 42.706, 181.354 41.240, 181.661 40.440 C 182.315 38.737, 179.848 34.676, 176.125 31.328 C 173.057 28.569, 172.853 28.585, 156.500 32.922 C 142.518 36.630, 128.348 37.854, 119.875 36.084 C 112.955 34.640, 105.335 29.959, 103.884 26.262 C 100.780 18.357, 98.875 15, 97.494 15 C 96.329 15, 96.120 15.659, 96.624 17.750 M 79.451 31.483 C 77.645 33.399, 75.624 36.609, 74.961 38.617 L 73.756 42.268 59.628 41.591 C 51.858 41.219, 43.925 40.720, 42 40.482 L 38.500 40.051 42 40.955 C 43.925 41.452, 50 42.844, 55.500 44.049 C 61 45.253, 67.182 46.907, 69.238 47.723 L 72.975 49.207 69.738 53.727 C 64.283 61.343, 51.675 72.386, 37.503 81.961 C 30.077 86.979, 24 91.467, 24 91.934 C 24 92.401, 25.027 93.041, 26.283 93.356 C 29.966 94.281, 46.092 95.983, 51.250 95.992 C 54.568 95.998, 56 96.407, 56 97.351 C 56 98.242, 51.669 99.817, 43.251 101.986 C 30.163 105.357, 26 106.810, 26 108.004 C 26 108.380, 28.186 110.530, 30.857 112.783 C 36.713 117.720, 39 122.178, 38.999 128.651 C 38.998 136.633, 32.273 148.732, 21.765 159.657 C 15.037 166.652, 19.610 168.098, 32.341 163 C 36.462 161.350, 40.883 160.002, 42.167 160.004 C 48.393 160.014, 55.567 168.023, 59.020 178.819 C 60.195 182.494, 61.404 186.175, 61.706 187 C 62.889 190.228, 68.327 165.027, 69.851 149.257 C 70.342 144.173, 71.351 139.282, 72.093 138.388 C 73.483 136.713, 74.127 136.718, 90 138.526 L 95.500 139.153 90.397 136.245 C 77.768 129.045, 73 124.377, 73 119.209 C 73 112.264, 85.387 107.905, 98.962 110.074 C 106.907 111.343, 112.666 114.377, 115.711 118.898 C 119.569 124.625, 118.865 127.170, 110.604 137.369 C 97.687 153.316, 89.151 167.484, 91.216 169.549 C 92.336 170.669, 105.177 161.556, 113.541 153.706 L 123 144.829 123.016 148.164 C 123.058 156.955, 125.138 175.394, 126.439 178.509 C 128.239 182.816, 131.086 183.103, 133.804 179.250 C 138.989 171.900, 144.063 158.593, 146.305 146.471 C 147.344 140.849, 147.352 138.242, 146.344 133 C 145.656 129.425, 145.087 125.375, 145.078 124 L 145.063 121.500 147.429 124.187 C 149.765 126.839, 151.836 135.838, 150.579 137.873 C 150.251 138.403, 151.179 142.067, 152.642 146.013 C 156.255 155.761, 162.763 162.917, 168.729 163.701 C 174.026 164.398, 177.384 162.397, 178.967 157.601 C 181.671 149.407, 174.477 139.008, 161.496 132.344 C 154.619 128.814, 154.008 128.247, 154.004 125.400 C 154 121.977, 157.432 116.682, 165.208 108.117 C 172.701 99.865, 172.214 99.472, 154.725 99.650 C 142.698 99.773, 140 99.544, 140 98.400 C 140 97.630, 140.634 97, 141.409 97 C 142.185 97, 147.361 94.726, 152.912 91.947 C 165.494 85.648, 176 76.292, 176 71.386 C 176 65.719, 169.357 62.257, 156.698 61.328 C 147.882 60.680, 140.768 58.427, 129.289 52.646 C 121.277 48.611, 119.047 46.034, 121.679 43.855 C 122.972 42.784, 127.826 42.568, 144.804 42.824 C 167.466 43.165, 174.715 42.660, 177.617 40.538 C 179.306 39.303, 179.307 39.117, 177.642 36.576 C 174.476 31.745, 172.525 31.557, 160.110 34.883 C 137.205 41.020, 120.422 41.201, 110.085 35.424 C 106.657 33.508, 105.468 33.236, 104.841 34.223 C 103.619 36.149, 103.693 36.296, 108.064 40.547 C 110.299 42.721, 116.693 50.013, 122.273 56.750 C 127.853 63.487, 132.795 69, 133.255 69 C 135.453 69, 139 74.098, 139 77.258 C 139 82.021, 134.580 90.271, 128.910 96.092 C 118.902 106.368, 104.402 110.019, 93.660 104.970 C 87.491 102.070, 80.409 95.765, 81.443 94.093 C 82.020 93.159, 83.200 93.754, 85.865 96.324 C 95.203 105.329, 105.573 106.946, 117.218 101.213 C 131.661 94.103, 140.911 76.832, 132.825 72.074 C 131.354 71.208, 125.451 64.875, 119.708 58 C 109.512 45.795, 104.266 40.231, 103.754 41.079 C 103.614 41.311, 102.212 44.078, 100.639 47.229 C 97.199 54.114, 87.153 63.971, 75 72.384 C 60.171 82.650, 58.734 84.987, 66.319 86.510 C 71.774 87.606, 73 88.100, 73 89.203 C 73 90.709, 64.240 89.387, 61.255 87.431 C 56.808 84.518, 58.479 81.251, 68 74.244 C 90.862 57.418, 97.500 50.740, 100.148 41.901 C 101.258 38.197, 101.164 37.781, 98.632 35.138 C 95.422 31.788, 88.193 28, 85.009 28 C 83.709 28, 81.330 29.491, 79.451 31.483 M 85.500 112.609 C 81.005 113.740, 77.843 115.386, 76.512 117.287 C 74.655 119.937, 76.445 123.577, 81.503 127.435 C 85.730 130.659, 102.170 139, 104.298 139 C 106.723 139, 115 128.142, 115 124.962 C 115 121.180, 110.940 116.594, 105.754 114.516 C 101.499 112.811, 89.270 111.660, 85.500 112.609" stroke="none" fill="black" fill-rule="evenodd"/>
</svg>