<svg xmlns="http://www.w3.org/2000/svg" width="200" height="200" viewBox="0 0 200 200" version="1.1">
	<path d="M 63 13.016 C 58.325 14.105, 51.575 15.393, 48 15.878 C 40.807 16.855, 35.229 18.876, 27.082 23.455 C 19.221 27.873, 19.277 31.494, 27.143 27.426 C 28.816 26.561, 30.293 25.998, 30.423 26.176 C 31.061 27.045, 33 45.444, 33 50.629 L 33 56.531 28.005 58.304 C 22.300 60.331, 19.404 64.384, 20.463 68.858 C 20.807 70.311, 23.808 77.209, 27.133 84.186 C 36.383 103.599, 36.321 111.817, 26.829 124.829 C 21.840 131.668, 18.481 139.143, 17.422 145.763 C 16.949 148.719, 17.295 150.106, 19.070 152.362 C 21.160 155.019, 21.712 155.189, 27.007 154.806 C 36.969 154.085, 63.019 139.540, 77.815 126.438 C 83.911 121.039, 83.627 119.216, 76.968 121.009 C 68.401 123.316, 62.347 119.659, 59.907 110.705 C 58.306 104.829, 59.390 90, 62.042 81.500 C 65.626 70.009, 67.226 67.630, 73.507 64.452 C 80.155 61.089, 80.920 60.146, 78.462 58.348 C 75.536 56.209, 73.322 56.745, 69.567 60.500 C 65.291 64.776, 62.354 65.029, 60.872 61.250 C 59.944 58.885, 60.429 32.238, 61.417 31.249 C 61.573 31.094, 68.936 32.838, 77.779 35.127 L 93.857 39.288 92.380 41.543 C 90.808 43.943, 86.175 46.309, 84.037 45.804 C 83.329 45.637, 82.558 46.019, 82.324 46.653 C 82.080 47.314, 84.066 48.525, 86.980 49.493 C 93.280 51.586, 98 55.424, 98 58.454 C 98 61.583, 95.157 64.926, 86.438 72.050 C 78.445 78.582, 77.108 81.487, 81.579 82.609 C 84.015 83.221, 102.597 81.583, 108 80.280 C 109.514 79.916, 106.556 82.752, 100.500 87.472 C 68.314 112.558, 66.766 116, 87.672 116 C 95.439 116, 96.143 116.159, 95.430 117.750 C 94.998 118.713, 94.459 121.600, 94.232 124.167 C 93.860 128.367, 94.092 129.014, 96.551 130.626 C 99.708 132.694, 104.814 132.864, 124.695 131.562 C 136.293 130.802, 138.199 130.900, 140.445 132.372 C 145.288 135.546, 143.187 143.442, 133.824 157.250 C 131.680 160.413, 129.434 163, 128.834 163 C 128.233 163, 124.763 161.930, 121.121 160.621 C 108.245 155.995, 102 156.293, 102 161.532 C 102 166.961, 114.936 177.405, 126.887 181.623 C 138.401 185.688, 149.948 184.350, 155.094 178.356 C 158.526 174.359, 166.986 158.108, 169.427 150.824 C 178.782 122.911, 161.658 107.503, 131.113 116.350 C 122.382 118.879, 121.744 118.572, 124.919 113.365 C 129.002 106.669, 142.602 102.846, 167.221 101.472 C 174.588 101.061, 180.650 100.245, 181.623 99.534 C 183.182 98.394, 183.160 98.160, 181.321 96.321 C 180.230 95.230, 174.629 92.660, 168.873 90.609 L 158.408 86.881 149.919 90.303 C 135.898 95.955, 125.329 98.126, 122.019 96.033 C 117.878 93.414, 131.330 84.259, 143.500 81.414 C 150.735 79.722, 167.067 79.172, 172.720 80.429 C 175.627 81.076, 176.138 80.822, 177.967 77.823 C 179.081 75.995, 179.994 73.015, 179.996 71.199 C 180.002 66.460, 175.963 65, 162.845 65 L 152.626 65 155.519 61.980 C 157.110 60.320, 164.169 55.126, 171.206 50.439 C 185.249 41.085, 185.455 40.764, 182.119 33.500 C 179.820 28.492, 177.016 25.960, 172.791 25.074 C 167.427 23.950, 161.637 25.603, 148.273 32.071 C 128.388 41.696, 125.807 41.306, 125.165 28.587 C 124.825 21.866, 124.445 20.618, 121.916 17.910 C 120.263 16.141, 118.300 14.996, 117.276 15.203 C 114.762 15.712, 115.064 24.561, 117.917 33.952 C 119.130 37.945, 119.864 41.469, 119.550 41.783 C 119.235 42.098, 114.453 41.287, 108.924 39.982 C 99.689 37.802, 98.923 37.441, 99.526 35.554 C 99.887 34.424, 100.407 31.025, 100.680 28 C 101.645 17.315, 94.811 11.801, 80 11.315 C 74.188 11.125, 68.812 11.663, 63 13.016 M 64.500 15.520 C 61.200 16.263, 57.901 16.900, 57.168 16.936 C 56.197 16.983, 56.400 17.911, 57.918 20.368 C 59.063 22.220, 60 24.480, 60 25.389 C 60 27.538, 61.764 28.218, 78.500 32.516 C 86.200 34.493, 93.238 36.326, 94.141 36.588 C 96.203 37.188, 98 32.457, 98 26.428 C 98 21.083, 94.452 16.498, 89.186 15.035 C 84.154 13.637, 71.775 13.880, 64.500 15.520 M 118.033 20.540 C 117.996 23.933, 120.258 33.355, 122.604 39.581 C 124.099 43.547, 124.330 43.699, 130.821 45.014 C 134.495 45.758, 138.475 46.396, 139.667 46.433 C 142.914 46.533, 143.144 47.223, 141.899 53.104 C 140.240 60.942, 138.435 64, 135.468 64 C 132.318 64, 129.424 60.776, 125 52.339 L 121.500 45.664 109.500 42.899 L 97.500 40.135 93.733 43.787 L 89.966 47.439 93.393 49.197 C 97.475 51.292, 101 55.494, 101 58.267 C 101 61.807, 97.012 66.862, 89.175 73.255 L 81.519 79.500 84.823 79.818 C 86.641 79.993, 92.037 79.635, 96.814 79.022 C 114.095 76.805, 116 76.684, 116 77.811 C 116 78.410, 110.938 82.817, 104.750 87.603 C 87.107 101.250, 77 109.972, 77 111.550 C 77 112.733, 79.121 113, 88.500 113 C 94.825 113, 100 113.393, 100 113.873 C 100 114.353, 99.054 116.885, 97.897 119.500 C 96.243 123.239, 96.020 124.748, 96.851 126.573 C 98.387 129.942, 103.088 130.455, 119.054 128.995 C 139.790 127.099, 146 128.932, 146 136.953 C 146 141.469, 140.734 152.522, 134.712 160.647 L 130.156 166.794 120.328 163.406 C 104.501 157.950, 101.074 158.957, 108.490 166.886 C 116.512 175.462, 133.751 182.824, 142.500 181.410 C 150.886 180.054, 152.818 178.225, 159.890 164.935 C 169.615 146.662, 171.804 134.762, 167.011 126.232 C 160.899 115.359, 142.403 113.826, 121.750 122.481 C 120.294 123.091, 120 122.673, 120 119.993 C 120 118.222, 120.924 115.128, 122.053 113.119 C 127.151 104.049, 138.116 100.719, 170.437 98.424 C 180.477 97.711, 180.386 97.550, 167.396 93.024 L 158.293 89.851 152.396 92.327 C 136.278 99.094, 122.168 101.318, 119.397 97.528 C 117.581 95.045, 117.602 94.882, 120.250 90.979 C 123.197 86.634, 132.702 81.513, 142.583 78.948 C 148.919 77.302, 152.978 76.946, 162.908 77.163 L 175.316 77.434 176.845 74.204 C 179.203 69.226, 177.770 68.552, 164.007 68.167 C 150.520 67.791, 148.532 66.890, 151.429 62.468 C 153.268 59.662, 161.093 53.675, 173.234 45.787 C 180.817 40.860, 181.148 40.489, 180.576 37.564 C 179.835 33.774, 177.078 29.911, 173.904 28.217 C 170.046 26.157, 164.505 27.595, 150 34.420 C 142.575 37.914, 135.193 41.074, 133.596 41.444 C 126.692 43.040, 122 37.483, 122 27.710 C 122 23.719, 121.463 21.577, 120.033 19.861 L 118.067 17.500 118.033 20.540 M 44.676 20.833 L 39.852 22.555 48.668 24.702 C 53.517 25.883, 57.587 26.746, 57.712 26.621 C 57.838 26.496, 57.166 24.842, 56.220 22.946 C 54.159 18.817, 51.625 18.353, 44.676 20.833 M 33.672 25.750 C 33.426 26.163, 33.840 30.550, 34.591 35.500 C 35.342 40.450, 35.967 47.731, 35.978 51.679 L 36 58.858 30.524 60.450 C 25.122 62.020, 23 64.041, 23 67.614 C 23 68.575, 25.528 74.500, 28.617 80.782 C 34.537 92.818, 36.968 100.164, 36.988 106.068 C 37.007 111.821, 34.212 119.587, 30.461 124.206 C 23.994 132.167, 18.938 145.080, 20.438 149.805 C 22.461 156.178, 38.622 150.599, 60.110 136.110 C 65.824 132.257, 71.813 128.029, 73.417 126.713 L 76.334 124.322 71.524 124.249 C 65.739 124.162, 62.435 121.997, 59.173 116.157 C 54.452 107.707, 55.447 90.485, 61.600 74.139 C 63.221 69.831, 63.705 67.402, 62.988 67.163 C 60.838 66.446, 58.213 62.815, 57.578 59.681 C 57.223 57.931, 57.236 50.593, 57.605 43.373 L 58.278 30.247 54.889 29.150 C 44.962 25.936, 34.553 24.268, 33.672 25.750 M 126 47.485 C 126 49.351, 132.541 60.219, 134.198 61.106 C 135.773 61.949, 136.285 61.561, 137.530 58.583 C 138.338 56.648, 139 53.759, 139 52.163 C 139 49.673, 138.540 49.181, 135.750 48.695 C 133.963 48.384, 131.037 47.819, 129.250 47.439 C 127.463 47.060, 126 47.081, 126 47.485 M 72.507 60.989 C 72.157 61.555, 72.558 61.723, 73.448 61.382 C 75.180 60.717, 75.497 60, 74.059 60 C 73.541 60, 72.843 60.445, 72.507 60.989" stroke="none" fill="black" fill-rule="evenodd"/>
</svg>