<svg xmlns="http://www.w3.org/2000/svg" width="200" height="200" viewBox="0 0 200 200" version="1.1">
	<path d="M 31.565 13.895 C 30.891 14.986, 33.307 16, 36.582 16 C 37.912 16, 39 16.384, 39 16.852 C 39 17.321, 36.998 22.484, 34.551 28.325 C 28.284 43.282, 26.301 50.621, 24.504 65.500 C 23.641 72.650, 21.322 84.800, 19.351 92.500 C 14.338 112.088, 14.349 112, 16.852 112 C 19.862 112, 28.070 114.932, 31.127 117.099 C 37.685 121.748, 38.999 133.293, 34.425 146.084 C 32.966 150.163, 28.839 159.184, 25.254 166.132 C 18.911 178.423, 18.314 181, 21.809 181 C 24.534 181, 35.306 172.906, 34.137 171.737 C 33.464 171.064, 31.459 171.961, 28.066 174.451 C 25.280 176.497, 23 177.719, 23 177.168 C 23 176.617, 25.672 171.066, 28.937 164.833 C 39.127 145.380, 42.329 131.500, 38.653 122.718 C 36.641 117.911, 30.152 112.575, 24.454 111.040 C 21.729 110.306, 19.189 109.434, 18.809 109.103 C 18.429 108.771, 19.673 102.650, 21.573 95.500 C 23.472 88.350, 25.907 75.632, 26.983 67.239 C 29.046 51.140, 31.693 41.718, 38.709 25.500 L 42.603 16.500 49.500 16.200 L 56.397 15.900 53.671 18.044 C 45.837 24.207, 41.347 44.375, 40.319 78.016 C 39.692 98.547, 40.860 114.336, 43.467 120.576 C 45.371 125.133, 48.508 125.211, 50.440 120.750 C 51.214 118.962, 54.100 112.550, 56.853 106.500 C 62.749 93.545, 63.987 89.335, 63.994 82.218 C 64.002 75.212, 62.159 71.148, 56.957 66.695 C 54.591 64.670, 52.882 62.785, 53.160 62.507 C 54.020 61.647, 73.258 54, 74.562 54 C 76.697 54, 81.873 60.806, 82.572 64.533 C 83.543 69.708, 82.290 77.286, 79.034 85.935 C 72.994 101.979, 72.074 107.305, 71.135 131.648 C 70.262 154.258, 69.465 157.072, 63.189 159.695 C 60.406 160.857, 57.719 161.069, 52.155 160.565 C 46.342 160.038, 44.890 160.171, 45.233 161.199 C 45.791 162.872, 54.332 164.178, 59.500 163.381 C 65.620 162.436, 68.773 160.364, 71.144 155.729 C 73.061 151.984, 73.394 149.155, 74.063 131 C 74.878 108.848, 76.248 100.561, 81.137 88.190 C 87.177 72.910, 87.123 62.627, 80.966 55.614 L 78.016 52.254 86.258 49.243 L 94.500 46.232 95.776 50.366 C 98.431 58.973, 97.322 79.943, 92.894 104.841 C 91.785 111.078, 90.264 120.856, 89.514 126.569 C 88.162 136.869, 88.101 137.025, 82.182 145.228 C 70.360 161.614, 65.892 171.060, 68.053 175.099 C 73.072 184.478, 104.103 153.783, 109.601 134 C 113.092 121.443, 114.412 117.746, 116.230 115.435 C 118.736 112.249, 119.619 112.362, 121.560 116.117 C 123.992 120.820, 124.493 132.280, 122.615 140.259 C 118.709 156.858, 109.179 167.126, 94.563 170.487 C 88.863 171.798, 88.199 172.790, 90.840 176.050 C 93.976 179.923, 98.343 179.024, 114.846 171.107 C 132.520 162.628, 137.456 161.025, 145.934 161.011 C 156.213 160.994, 165.063 166.772, 169.722 176.544 C 170.629 178.445, 171.762 180, 172.241 180 C 172.721 180, 174.043 177.897, 175.179 175.327 C 178.431 167.977, 177.396 161.863, 170.377 146.933 C 164.685 134.825, 164.532 134.278, 164.530 126 C 164.528 118.749, 164.915 116.765, 167.161 112.500 C 170.993 105.223, 177.399 97.766, 185.759 90.851 C 189.800 87.508, 192.897 84.563, 192.640 84.307 C 192.383 84.050, 188.647 82.941, 184.337 81.842 C 180.027 80.742, 173.681 78.502, 170.235 76.863 C 160.024 72.007, 158.449 67.956, 160.671 52.263 C 162.216 41.343, 161.938 30.598, 159.977 25.438 C 159.145 23.252, 159.285 22.509, 160.728 21.438 C 164.051 18.971, 160.396 17.222, 149.500 16.065 C 125.843 13.552, 32.834 11.841, 31.565 13.895 M 62.879 17.355 C 63.741 18.393, 63.187 20.276, 60.502 25.427 C 56.225 33.633, 55.799 39.526, 59.250 42.759 C 60.487 43.918, 64.430 46.180, 68.011 47.785 L 74.523 50.702 83.761 47.219 C 88.843 45.304, 93 43.431, 93 43.058 C 93 41.590, 86.318 35.628, 83.210 34.322 C 81.400 33.562, 80.147 32.570, 80.426 32.119 C 80.705 31.668, 84.343 31.011, 88.511 30.659 C 92.679 30.306, 106.307 28.027, 118.795 25.593 C 149.761 19.559, 148.528 19.726, 149.899 21.378 C 151.467 23.268, 148.199 25.833, 139.379 29.637 L 132.741 32.500 133.327 44.500 C 134.493 68.375, 140.418 92.274, 147.998 103.684 L 150.113 106.869 146.516 110.851 C 142.507 115.289, 138.539 117.113, 135.413 115.957 C 126.590 112.693, 120.341 89.247, 119.124 54.847 L 118.500 37.194 108.065 41.115 C 102.326 43.272, 97.526 45.141, 97.397 45.269 C 97.269 45.398, 97.834 47.977, 98.653 51.001 C 101.032 59.790, 99.906 80.381, 95.672 105.500 C 93.725 117.050, 91.813 129.200, 91.424 132.500 C 90.843 137.434, 89.967 139.477, 86.496 144 C 77.414 155.835, 70 168.926, 70 173.126 C 70 174.849, 73.686 173.950, 78.054 171.163 C 89.940 163.578, 104.241 143.774, 107.997 129.696 C 110.938 118.670, 113.312 113.497, 116.339 111.513 C 123.749 106.659, 128.995 122.693, 125.497 139.500 C 121.927 156.649, 112.260 168.111, 97.692 172.468 C 95.598 173.095, 93.931 174.033, 93.988 174.554 C 94.237 176.815, 101.063 174.721, 114.782 168.177 C 131.791 160.063, 138.186 157.983, 145.932 158.044 C 155.747 158.121, 163.394 162.245, 169.325 170.658 C 171.887 174.294, 172.557 174.756, 173.312 173.407 C 175.483 169.528, 173.496 159.760, 168.247 148.500 C 162.077 135.268, 160.538 129.546, 161.336 122.810 C 162.420 113.661, 167.026 105.776, 177.463 95.202 C 182.674 89.923, 186.839 85.532, 186.719 85.443 C 186.598 85.355, 183.130 84.274, 179.012 83.041 C 169.342 80.144, 165.307 78.015, 161 73.534 C 157.607 70.003, 157.501 69.658, 157.547 62.196 C 157.572 57.963, 157.979 50.093, 158.450 44.707 C 159.155 36.649, 158.990 33.525, 157.519 27.082 L 155.730 19.251 148.615 18.610 C 136.214 17.493, 97.150 16.035, 79.128 16.017 C 64.627 16.003, 61.941 16.224, 62.879 17.355 M 53.615 22.046 C 50.560 25.676, 47.528 35.025, 45.378 47.442 C 43.254 59.709, 42.350 99.131, 43.943 110.023 C 45.857 123.113, 46.757 123.938, 49.915 115.497 C 51.048 112.471, 53.267 107.408, 54.848 104.247 C 56.428 101.086, 58.422 96.250, 59.278 93.500 C 63.244 80.755, 62.343 75.491, 55.069 68.921 C 52.281 66.402, 50 63.847, 50 63.243 C 50 61.320, 54.643 58.401, 62.435 55.426 C 66.596 53.838, 69.992 52.304, 69.983 52.019 C 69.974 51.734, 67.488 50.427, 64.459 49.116 C 61.430 47.805, 57.789 45.350, 56.368 43.661 C 54.171 41.050, 53.854 39.875, 54.245 35.801 C 54.498 33.167, 56.045 28.309, 57.682 25.006 C 60.657 19.004, 60.657 19, 58.418 19 C 57.149 19, 55.067 20.320, 53.615 22.046 M 120 28.050 C 106.525 30.747, 94.037 32.964, 92.250 32.977 C 90.463 32.990, 89.012 33.337, 89.027 33.750 C 89.067 34.844, 95.876 42, 96.878 42 C 97.556 42, 111.799 36.806, 120.126 33.522 C 121.588 32.946, 121.804 35.038, 122.259 54.190 C 122.970 84.097, 126.859 103.597, 133.576 110.930 C 136.587 114.217, 136.849 114.305, 139.885 113.048 C 141.627 112.326, 143.902 110.542, 144.942 109.082 C 146.796 106.478, 146.795 106.381, 144.926 103.964 C 137.982 94.983, 130 59.449, 130 37.514 L 130 30.950 137.500 27.532 C 141.625 25.652, 145 23.863, 145 23.557 C 145 23.251, 144.887 23.033, 144.750 23.073 C 144.613 23.113, 133.475 25.352, 120 28.050" stroke="none" fill="black" fill-rule="evenodd"/>
</svg>