<svg xmlns="http://www.w3.org/2000/svg" width="200" height="200" viewBox="0 0 200 200" version="1.1">
	<path d="M 52.500 11.347 C 33.787 14.746, 23.712 26.820, 26.766 42.187 C 27.813 47.454, 27.794 47.526, 24.559 50.500 C 18.387 56.173, 16.626 61.130, 16.206 74 C 15.773 87.306, 17.827 99.269, 23.669 117.458 C 29.057 134.234, 35.356 150.051, 36.488 149.646 C 38.016 149.100, 37.632 147.701, 31.612 131.915 C 15.696 90.177, 14.236 60.002, 27.722 51.512 C 30.633 49.680, 30.855 49.187, 30.209 46 C 28.819 39.137, 29.449 29.699, 31.533 26.182 C 33.316 23.174, 41.142 17, 43.171 17 C 43.627 17, 44.001 19.362, 44.001 22.250 C 44.003 27.383, 47.484 43.537, 50.306 51.500 C 51.668 55.344, 51.615 55.658, 48.946 59.558 C 47.419 61.789, 45.423 64.234, 44.511 64.991 C 41.166 67.767, 39 73.727, 39 80.154 C 39 89.469, 40.998 113.967, 42.106 118.250 C 43.370 123.131, 46.037 123.243, 48.294 118.510 C 51.368 112.063, 56 84.950, 56 73.401 C 56 70.568, 56.281 66.844, 56.625 65.125 C 57.219 62.157, 57.482 62.002, 61.875 62.044 C 64.419 62.068, 69.200 62.657, 72.500 63.354 L 78.500 64.622 78.309 70.561 C 78.204 73.827, 76.043 84.600, 73.507 94.500 C 70.201 107.404, 68.731 115.353, 68.313 122.577 C 67.647 134.103, 68.636 138.377, 73.163 143.533 C 76.031 146.800, 76.067 146.968, 74.427 149.471 C 71.017 154.675, 49.473 167.340, 36.500 171.767 C 23.574 176.178, 20.177 174.658, 26.486 167.287 C 28.949 164.410, 29.671 162.915, 28.845 162.405 C 27.446 161.539, 21.282 168.351, 20.377 171.763 C 19.510 175.030, 21.650 177, 26.063 177 C 33.010 177, 50.935 169.493, 64.612 160.855 C 70.638 157.049, 79 149.030, 79 147.057 C 79 146.514, 77.716 144.591, 76.147 142.785 C 71.212 137.104, 70.594 135.128, 70.740 125.500 C 70.849 118.353, 71.906 112.372, 75.877 96.451 C 78.628 85.424, 81.192 74.037, 81.575 71.146 C 82.055 67.527, 82.664 66.041, 83.532 66.374 C 84.225 66.640, 86.686 67.425, 89 68.118 C 91.315 68.812, 93.410 69.905, 93.657 70.548 C 93.903 71.191, 91.651 79.318, 88.652 88.608 C 81.832 109.732, 80.721 115.126, 80.739 127 C 80.754 136.885, 82.515 145.635, 86.234 154.308 L 88.296 159.116 91.898 155.676 C 101.706 146.310, 104.957 147.463, 124 167.061 C 133.826 177.173, 137.720 180.479, 142.203 182.514 C 154.941 188.298, 167.777 184.771, 182.878 171.339 C 186.881 167.779, 187.195 167.162, 186.533 164.148 C 185.503 159.462, 180.686 154.431, 175.203 152.315 C 171.760 150.986, 167.758 150.500, 160.267 150.500 L 150.034 150.500 160.498 145.251 C 168.302 141.336, 171.088 139.429, 171.458 137.751 C 172.232 134.241, 174.867 109.537, 175.592 99 C 176.330 88.286, 174.924 76.878, 172.073 70.433 C 169.721 65.115, 163.748 58.459, 158.097 54.859 C 155.242 53.040, 154.187 51.879, 155.097 51.554 C 155.869 51.278, 160.179 49.907, 164.676 48.506 C 176.344 44.872, 180.012 43.195, 179.458 41.750 C 179.097 40.810, 174.206 40.500, 159.739 40.500 C 142.153 40.500, 140.199 40.324, 137 38.451 C 132.108 35.588, 131.796 31.456, 135.966 24.748 C 137.677 21.996, 138.932 19.599, 138.755 19.421 C 138.200 18.867, 113.994 14.181, 103 12.501 C 88.827 10.334, 61.513 9.710, 52.500 11.347 M 56.024 13.750 C 56.037 14.162, 57.890 15.850, 60.143 17.500 C 63.986 20.314, 75.841 32.879, 84.212 43.008 C 87.448 46.925, 88.153 47.341, 89.712 46.258 C 104.919 35.694, 122.152 35.301, 129.045 45.361 C 130.281 47.165, 132.898 49.509, 134.860 50.570 C 140.468 53.604, 144.292 59.883, 144.798 66.889 C 145.304 73.880, 143.880 78.825, 140.426 82.069 C 138.456 83.920, 137.540 84.203, 136.205 83.374 C 133.063 81.423, 131.819 77.015, 131.486 66.659 C 131.076 53.917, 130.384 51.096, 127.384 49.956 C 122.848 48.231, 112.308 47.771, 103.666 48.921 C 89.600 50.793, 89.898 49.940, 99.094 62.005 C 105.085 69.864, 108.524 73.384, 112.787 76.018 C 119.128 79.938, 121.189 83.587, 116.379 82.380 L 113.596 81.682 117.496 87.091 C 125.834 98.654, 123.663 97.500, 137.078 97.500 C 144.343 97.500, 148.970 97.889, 148.967 98.500 C 148.964 99.050, 147.798 99.811, 146.376 100.192 C 142.637 101.192, 133 107.222, 133 108.561 C 133 109.188, 134.254 111.455, 135.787 113.600 C 142.526 123.030, 147.117 131.253, 146.515 132.820 C 146.006 134.147, 145.269 133.725, 142.651 130.607 L 139.416 126.753 129.958 131.338 C 124.756 133.860, 118.665 136.211, 116.422 136.562 C 105.611 138.255, 107.900 128.340, 121.507 114.530 C 125.078 110.906, 128 107.686, 128 107.375 C 128 107.063, 127.062 105.492, 125.916 103.883 C 124.020 101.219, 123.374 100.981, 118.728 101.228 L 113.623 101.500 113.504 95.500 C 113.332 86.757, 108.401 76.755, 102.871 73.934 C 100.660 72.806, 98.411 72.030, 97.873 72.209 C 96.255 72.748, 86.098 104.435, 84.381 114.303 C 82.476 125.252, 83.058 135.725, 86.128 145.709 C 87.276 149.444, 88.426 152.849, 88.683 153.276 C 88.940 153.703, 90.486 152.927, 92.120 151.552 C 93.754 150.178, 96.802 148.540, 98.895 147.913 C 105.432 145.955, 110.275 148.965, 124.754 163.989 C 139.533 179.324, 144.740 182.550, 154.500 182.415 C 161.858 182.312, 168.930 179.175, 177.500 172.210 C 184.428 166.580, 185.028 163.726, 180.319 158.811 C 176.125 154.433, 168.765 152.707, 156.129 153.138 C 146.919 153.453, 145.494 153.285, 145.215 151.856 C 144.979 150.647, 148.077 148.590, 156.947 144.068 C 163.576 140.688, 168.999 137.603, 168.998 137.211 C 168.997 136.820, 169.946 127.950, 171.106 117.500 C 175.540 77.565, 171.474 64.055, 152.261 54.886 L 145.628 51.720 158.451 47.610 L 171.274 43.500 156.887 43.500 C 145.330 43.500, 141.565 43.139, 137.748 41.667 C 129.666 38.548, 127.930 33.163, 132.454 25.250 C 133.791 22.913, 134.678 21, 134.426 21 C 134.173 21, 128.462 19.913, 121.734 18.584 C 115.005 17.255, 103.946 15.455, 97.158 14.584 C 84.578 12.969, 55.981 12.390, 56.024 13.750 M 46.533 17.849 C 46.189 19.415, 46.370 23.566, 46.934 27.073 C 47.956 33.418, 53.524 53.612, 54.838 55.738 C 55.326 56.528, 57.126 56.301, 61.014 54.959 C 64.031 53.917, 68.300 53.044, 70.500 53.018 C 72.700 52.992, 77.109 52.156, 80.298 51.161 L 86.096 49.351 78.910 40.925 C 59.141 17.747, 48.259 9.991, 46.533 17.849 M 106.746 41.048 C 102.658 42.052, 93 46.672, 93 47.624 C 93 47.948, 93.720 47.938, 94.599 47.600 C 98.581 46.072, 115.002 44.973, 120.597 45.860 C 123.844 46.374, 126.654 46.650, 126.842 46.472 C 127.030 46.295, 125.455 45.023, 123.342 43.646 C 118.929 40.770, 112.180 39.714, 106.746 41.048 M 80.695 53.700 C 79.702 53.957, 79.029 54.468, 79.200 54.834 C 79.370 55.200, 80.149 57.156, 80.931 59.180 C 82.157 62.358, 83.157 63.154, 88.258 65.014 C 91.507 66.199, 94.425 66.908, 94.743 66.590 C 96.005 65.328, 92.786 57.998, 89.905 55.574 C 86.992 53.122, 84.712 52.659, 80.695 53.700 M 133.588 57.206 C 133.782 59.568, 134.139 65.100, 134.381 69.500 C 134.878 78.541, 135.579 81, 137.658 81 C 140.172 81, 142.244 74.171, 141.808 67.323 C 141.482 62.205, 140.865 60.401, 138.396 57.351 C 134.167 52.125, 133.169 52.095, 133.588 57.206 M 69 57.757 L 65.500 59.351 70.161 60.080 C 72.725 60.481, 75.762 61.107, 76.911 61.472 C 79.398 62.261, 79.564 61.250, 77.443 58.223 C 75.638 55.646, 73.852 55.547, 69 57.757 M 49.034 65.752 C 41.535 69.535, 40.677 74.424, 42.794 101.313 C 43.981 116.395, 44.621 119.429, 46.066 116.847 C 49.273 111.116, 55.784 63.997, 53.368 64.002 C 52.891 64.002, 50.940 64.790, 49.034 65.752 M 97 66.671 C 97 67.834, 97.739 69.070, 98.643 69.417 C 101.291 70.433, 101.563 69.118, 99.194 66.750 L 97 64.556 97 66.671 M 116.248 94.442 C 116.300 97.921, 116.693 98.996, 117.908 98.985 C 121.575 98.949, 121.873 97.520, 119.011 93.682 L 116.179 89.884 116.248 94.442 M 127.931 101.750 C 130.560 106.342, 130.549 106.340, 135.021 103.100 L 139.300 100 133.115 100 C 127.509 100, 127.023 100.164, 127.931 101.750 M 125.226 114.486 C 119.974 119.209, 112 130.137, 112 132.614 C 112 133.462, 113.067 133.995, 114.750 133.988 C 117.621 133.975, 130.145 128.817, 135.749 125.339 L 138.997 123.323 134.673 116.602 L 130.349 109.881 125.226 114.486" stroke="none" fill="black" fill-rule="evenodd"/>
</svg>