<svg xmlns="http://www.w3.org/2000/svg" width="200" height="200" viewBox="0 0 200 200" version="1.1">
	<path d="M 33.994 18.606 C 33.987 27.250, 33.112 30.420, 26.337 46.339 C 19.135 63.261, 16.974 71.934, 17.100 83.410 C 17.155 88.409, 17.492 93.539, 17.850 94.809 C 18.632 97.588, 20.609 97.333, 20.238 94.500 C 20.093 93.400, 19.942 88, 19.901 82.500 C 19.813 70.774, 21.171 65.484, 29.019 46.968 C 35.203 32.379, 36.972 26.310, 36.988 19.633 L 37 14.765 44.750 15.426 C 55.861 16.373, 58.429 16.971, 57.099 18.301 C 56.494 18.906, 55.998 20.997, 55.995 22.950 C 55.993 24.902, 54.879 29.200, 53.519 32.500 C 49.887 41.318, 50.340 47.444, 54.944 51.733 L 57.010 53.658 53.075 56.819 C 50.911 58.558, 48.825 60.998, 48.439 62.241 C 48.053 63.483, 46.965 65.625, 46.022 67 C 42.325 72.387, 41.680 76.388, 41.029 98 C 40.515 115.053, 40.027 120.312, 38.668 123.427 C 37.576 125.929, 37.302 127.702, 37.912 128.312 C 39.099 129.499, 48.599 115.175, 53.486 104.828 C 55.389 100.797, 57.684 94.593, 58.585 91.039 C 60.726 82.597, 59.422 76.022, 54.457 70.221 C 52.556 68, 51 65.891, 51 65.535 C 51 64.300, 59.527 61.230, 64.760 60.581 C 71.091 59.796, 76.984 61.222, 80.734 64.448 C 83.118 66.499, 83.498 67.563, 83.483 72.163 C 83.462 78.633, 79.588 86.843, 71.042 98.528 L 65.324 106.345 67.678 113.923 C 68.973 118.090, 70.925 125.846, 72.016 131.157 C 78.115 160.846, 70.536 171.581, 45.935 168.100 L 37.047 166.842 32.209 170.921 C 29.548 173.164, 27.082 175, 26.727 175 C 26.373 175, 27.343 172.188, 28.882 168.750 C 38.933 146.306, 40.169 131.965, 33.023 120.697 C 30.312 116.422, 20.984 109, 18.322 109 C 15.267 109, 16.402 111.061, 20.617 113.166 C 29.331 117.518, 35 127.117, 35 137.522 C 35 143.579, 31.781 155.147, 27.096 165.922 C 24.843 171.105, 23 176.167, 23 177.172 C 23 180.190, 26.016 179.283, 32.240 174.393 L 38.105 169.785 46.024 170.943 C 58.211 172.725, 66.039 170.913, 71.299 165.091 C 78.106 157.556, 78.577 145.049, 72.874 123.271 C 68.213 105.473, 68.147 107.142, 73.818 99.346 C 80.299 90.435, 85.773 79.694, 86.582 74.304 C 87.078 70.995, 86.736 69.107, 85.059 65.889 L 82.896 61.740 85.198 62.356 C 86.464 62.695, 87.990 62.979, 88.589 62.986 C 89.189 62.994, 90.179 64.098, 90.790 65.439 C 91.722 67.484, 91.434 68.817, 89.009 73.689 C 84.447 82.854, 80.915 96.364, 80.300 107 C 79.804 115.587, 79.949 116.740, 81.815 119 C 83.775 121.375, 84.020 121.424, 86.689 119.976 C 88.235 119.138, 91.221 115.876, 93.325 112.726 C 97.679 106.208, 99.665 105.628, 105.102 109.287 C 113.959 115.246, 111.439 129.514, 97.964 149.698 C 89.629 162.184, 77.344 176.966, 75.285 176.987 C 73.628 177.005, 71.709 180.702, 72.957 181.473 C 73.486 181.800, 74.724 181.641, 75.709 181.120 C 76.694 180.599, 80.200 179.637, 83.500 178.982 C 95.990 176.505, 108.306 167.428, 117.788 153.713 C 120.575 149.681, 126.099 139.884, 130.064 131.942 C 138.489 115.063, 138.782 115.126, 139.593 133.968 C 140.224 148.620, 141.567 156.212, 144.578 162.154 C 149.913 172.682, 159.973 178.295, 169.299 175.946 C 177.975 173.762, 181.894 166.561, 179.281 157.602 C 177.862 152.735, 175.997 150.593, 160.026 135.500 C 153.345 129.186, 147 119.600, 147 115.820 C 147 111.498, 150.223 110.705, 165.416 111.286 C 180.150 111.850, 184 111.045, 184 107.399 C 184 104.928, 178.112 98.258, 170.698 92.330 L 166.896 89.290 167.932 79.192 C 169.031 68.484, 168.613 63.753, 166.404 61.921 C 164.364 60.227, 160.312 64.846, 154.054 76 C 147.601 87.501, 143.232 94, 141.952 94 C 141.413 94, 141 89.649, 141 83.960 C 141 76.060, 141.406 73.124, 142.905 70.186 C 145.691 64.726, 153.116 58.247, 164.840 51.046 C 170.527 47.553, 175.430 44.044, 175.736 43.247 C 177.084 39.733, 173.294 39.609, 150.750 42.430 L 141 43.649 141 34.345 C 141 22.776, 139.281 17.836, 134.459 15.548 C 131.492 14.139, 127.581 14.021, 102.787 14.586 C 76.613 15.183, 67.814 14.869, 41.250 12.390 L 34 11.713 33.994 18.606 M 63.546 20.175 C 65.221 21.646, 69.240 26.707, 72.476 31.422 C 78.002 39.476, 78.484 39.913, 80.429 38.646 C 81.568 37.904, 90.040 32.902, 99.256 27.531 C 117.478 16.910, 117.804 16.847, 119.998 23.494 C 122.116 29.913, 118.834 34.158, 102.065 46.691 C 98.525 49.336, 95.469 52.006, 95.273 52.625 C 94.709 54.407, 102.345 56.981, 106.294 56.340 C 110.669 55.630, 117 57.621, 117 59.707 C 117 61.022, 115.969 61.157, 110.241 60.592 C 105.181 60.094, 103.002 60.278, 101.571 61.324 C 99.820 62.605, 100.365 62.953, 108.080 65.475 C 112.711 66.989, 117.020 68.880, 117.656 69.676 C 119.254 71.679, 121.257 86.335, 120.842 93 C 120.526 98.076, 120.299 98.523, 117.898 98.802 C 114.578 99.188, 107.835 91.991, 100 79.699 C 96.975 74.953, 94.223 71.054, 93.884 71.035 C 92.644 70.965, 86.872 85.409, 84.970 93.342 C 82.859 102.146, 82.322 116.463, 84.063 117.539 C 85.575 118.474, 88.657 115.386, 92.314 109.273 C 95.913 103.255, 97.708 102.776, 104.729 105.964 C 118.801 112.352, 114.954 131.658, 93.971 159.959 C 90.617 164.482, 85.989 170.227, 83.687 172.725 L 79.500 177.268 83 176.551 C 90.219 175.073, 99.108 170.063, 105.641 163.789 C 113.809 155.945, 118.867 148.321, 127.916 130.208 C 131.843 122.347, 135.783 115.637, 136.672 115.295 C 140.393 113.868, 141.720 119.244, 142.940 140.677 C 143.630 152.816, 143.968 154.493, 146.940 160.529 C 152.540 171.906, 162.454 176.607, 171.537 172.194 C 176.967 169.556, 178.696 165.298, 176.958 158.843 C 176.005 155.304, 173.500 152.285, 162.590 141.528 C 144.968 124.154, 140.857 116.289, 146.592 110.924 C 149.105 108.573, 149.654 108.500, 164.754 108.500 C 176.605 108.500, 180.428 108.191, 180.760 107.205 C 181.201 105.898, 174.628 98.913, 167.787 93.418 L 164.073 90.436 165.221 78.236 C 165.852 71.526, 166.022 65.690, 165.598 65.268 C 164.490 64.164, 161.714 67.929, 155.559 78.884 C 148.305 91.796, 144.419 97, 142.029 97 C 138.955 97, 138 93.862, 138 83.762 C 138 75.697, 138.359 73.673, 140.578 69.219 C 143.799 62.755, 150.707 56.485, 162.664 49.173 C 167.765 46.053, 171.510 43.352, 170.986 43.172 C 170.004 42.834, 144.264 45.656, 140.250 46.542 C 138.018 47.034, 138 46.947, 138 35.469 C 138 23.200, 136.646 18.190, 133.224 17.807 C 132.276 17.700, 115.525 17.588, 96 17.557 L 60.500 17.500 63.546 20.175 M 58.459 22.307 C 58.103 23.726, 58.079 25.318, 58.405 25.846 C 58.731 26.374, 57.878 29.212, 56.509 32.153 C 53.125 39.422, 53.109 46.200, 56.468 49.559 L 58.937 52.028 65.718 47.692 C 69.448 45.308, 73.291 42.920, 74.257 42.385 C 75.834 41.512, 75.454 40.593, 70.569 33.452 C 67.573 29.074, 63.769 24.195, 62.114 22.610 L 59.106 19.728 58.459 22.307 M 98.500 31.109 C 89.150 36.615, 81.146 41.470, 80.713 41.897 C 80.280 42.325, 82.434 46.753, 85.500 51.738 C 91.240 61.070, 94.465 63.519, 97.596 60.921 C 99.374 59.445, 99.403 58, 97.655 58 C 95.469 58, 92.813 54.349, 93.170 51.832 C 93.389 50.282, 95.833 47.824, 100.461 44.500 C 115.117 33.972, 120.213 27.209, 116.812 22.799 C 115.616 21.248, 113.993 21.985, 98.500 31.109 M 69.165 48.693 L 61.830 53.326 66.665 55.226 C 71.816 57.250, 87.274 60.194, 86.789 59.059 C 85.915 57.014, 77.459 44.005, 77.020 44.030 C 76.734 44.047, 73.199 46.145, 69.165 48.693 M 55.824 58.183 C 53.996 59.808, 53.159 60.795, 53.964 60.377 C 54.770 59.959, 57.591 59.130, 60.233 58.535 L 65.038 57.453 62.094 56.341 C 59.452 55.344, 58.806 55.534, 55.824 58.183 M 96.667 65.667 C 96.300 66.033, 96 66.909, 96 67.613 C 96 69.517, 109.219 88.910, 113.548 93.356 C 116.871 96.769, 117.413 97.014, 118.267 95.488 C 118.894 94.367, 118.839 90.745, 118.111 85.132 C 116.185 70.301, 116.575 70.905, 106.931 67.837 C 97.134 64.721, 97.529 64.804, 96.667 65.667 M 46.520 71.663 C 44.865 74.947, 44.506 78.453, 44.024 96 C 43.715 107.275, 43.541 116.646, 43.639 116.826 C 43.737 117.005, 45.405 114.305, 47.346 110.826 C 58.271 91.237, 59.510 79.892, 51.660 71.326 L 48.453 67.827 46.520 71.663" stroke="none" fill="black" fill-rule="evenodd"/>
</svg>