<svg xmlns="http://www.w3.org/2000/svg" width="200" height="200" viewBox="0 0 200 200" version="1.1">
	<path d="M 116.667 11.984 C 112.852 16.518, 110.391 24.215, 106.518 43.725 C 104.578 53.501, 102.759 62.511, 102.477 63.746 C 102.030 65.705, 101.441 65.946, 97.891 65.626 C 94.172 65.291, 93.564 64.813, 90.881 60.115 C 87.585 54.343, 82.311 50.038, 73.626 46.029 L 67.752 43.317 71.126 41.245 C 76.005 38.251, 93.532 29.707, 100.289 27.030 C 105.645 24.908, 107.753 22.064, 103.396 22.836 C 100.265 23.392, 45.668 38.998, 45.193 39.474 C 43.675 40.991, 46.496 42.874, 51.179 43.469 C 60.720 44.681, 60.658 44.589, 55.566 50.033 C 53.064 52.708, 50.255 56.494, 49.323 58.448 C 47.691 61.872, 47.429 62.003, 42.065 62.074 C 32.948 62.196, 27.564 63.305, 27.212 65.134 C 26.815 67.201, 30.365 68.478, 41.237 70.180 C 46.698 71.035, 48.437 71.582, 46.365 71.792 C 43.640 72.068, 43.005 72.724, 41.511 76.805 C 40.566 79.387, 36.473 87.633, 32.415 95.130 C 26.171 106.665, 14 132.108, 14 133.624 C 14 134.173, 16.505 133.759, 36.591 129.893 C 62.187 124.967, 73.519 120.158, 76.380 113.008 C 77.271 110.781, 78.002 107.956, 78.005 106.730 C 78.012 103.790, 81.788 97.708, 85.321 94.947 C 87.357 93.356, 87.839 92.439, 87.053 91.653 C 85.076 89.676, 77.282 98.677, 75.930 104.500 C 73.878 113.335, 72.584 115.364, 67.103 118.348 C 59.755 122.347, 21.169 131.503, 19.346 129.680 C 18.591 128.924, 26.794 111.397, 34.639 97 C 38.086 90.675, 41.888 83.138, 43.087 80.250 C 44.967 75.721, 45.644 75, 48.012 75 C 49.522 75, 53.381 76.580, 56.588 78.511 C 59.794 80.442, 64.011 82.516, 65.959 83.121 C 71.174 84.742, 89 85.511, 89 84.116 C 89 83.471, 87.207 82.997, 84.750 82.992 C 77.598 82.980, 67.773 81.019, 62.250 78.503 C 59.362 77.187, 57 75.861, 57 75.555 C 57 75.250, 66.675 75, 78.500 75 C 97.704 75, 100 75.174, 100 76.630 C 100 79.115, 95.098 100.431, 92.328 109.995 C 89.189 120.829, 83.263 133.492, 79.127 138.202 C 77.356 140.220, 73.916 142.630, 71.483 143.560 C 67.374 145.129, 66.704 145.134, 62.091 143.625 C 59.359 142.731, 54.138 142, 50.489 142 C 44.897 142, 43.904 142.256, 44.177 143.626 C 44.390 144.697, 48.247 146.567, 55.500 149.115 C 76.842 156.613, 87 161.558, 87 164.449 C 87 169.632, 70.396 173.854, 41.485 176.023 C 26.244 177.166, 22 178.017, 22 179.927 C 22 180.398, 23.012 181.023, 24.250 181.315 C 29.022 182.444, 72.482 183.032, 92.323 182.236 C 107.844 181.613, 114.974 181.722, 120.323 182.661 C 137.594 185.693, 159.329 183.357, 168.147 177.521 C 175.839 172.431, 173.440 167, 163.499 167 C 157.492 167, 142.403 170.704, 133.500 174.364 L 127.500 176.831 123.630 174.666 C 121.501 173.474, 118.689 171.228, 117.380 169.673 C 110.457 161.450, 118.171 155.135, 146.835 145.559 C 167.010 138.819, 167.514 137.441, 149.726 137.651 C 140.651 137.759, 135.794 138.265, 132.955 139.401 C 123.223 143.295, 119.010 139.816, 119.004 127.877 L 119 121.253 150 120.516 C 173.864 119.948, 181 119.489, 181 118.519 C 181 117.777, 179.228 117.060, 176.680 116.773 C 168.317 115.830, 157.143 108.713, 154.533 102.666 C 151.805 96.344, 155.417 91.624, 167.279 86.011 L 175.058 82.330 166.793 80.064 C 157.980 77.649, 151 74.546, 151 73.043 C 151 72.497, 141.499 72.367, 127.500 72.720 C 107.693 73.219, 104 73.091, 104 71.906 C 104 70.743, 107.672 70.494, 125.250 70.468 C 141.229 70.444, 148.811 69.999, 155.816 68.676 C 168.556 66.269, 174.500 63.976, 174.500 61.469 C 174.500 59.666, 173.835 59.511, 166.599 59.628 C 162.254 59.699, 152.970 60.543, 145.969 61.504 C 135.428 62.952, 131.668 63.066, 124.097 62.171 C 119.069 61.577, 114.493 60.805, 113.929 60.456 C 110.771 58.504, 122.708 52.381, 146 44.006 C 161.740 38.346, 165.429 36.503, 164.387 34.818 C 163.722 33.742, 153.185 34.146, 143.254 35.628 C 139.057 36.255, 138.989 36.217, 137.464 32.381 C 131.729 17.966, 125.420 9, 121.012 9 C 120.003 9, 118.048 10.343, 116.667 11.984 M 117.052 15.898 C 115.959 18.041, 114.140 23.104, 113.012 27.148 C 110.294 36.885, 104.817 66.149, 105.570 66.905 C 106.701 68.040, 139.148 68.168, 147.302 67.070 C 151.811 66.462, 158.875 65.086, 163 64.012 L 170.500 62.059 162 62.563 C 157.325 62.840, 149.545 63.708, 144.712 64.492 C 134.266 66.185, 116.298 65.081, 112.366 62.504 C 105.541 58.032, 113.513 52.971, 147 40.513 L 156.500 36.979 150.500 37.688 C 147.200 38.078, 142.782 38.420, 140.683 38.449 L 136.866 38.500 133.401 30.166 C 126.006 12.380, 121.052 8.057, 117.052 15.898 M 65.013 36.286 L 50.526 40.403 57.013 41.590 L 63.500 42.777 69.500 39.209 C 84.158 30.494, 84.533 30.738, 65.013 36.286 M 58.330 51.250 C 53.306 56.421, 50.393 60.726, 51.302 61.635 C 51.711 62.045, 79.908 63.868, 87.307 63.964 L 90.113 64 88.307 60.860 C 85.749 56.415, 77.965 50.505, 71.465 48.073 C 68.418 46.933, 65.364 46, 64.678 46 C 63.993 46, 61.136 48.362, 58.330 51.250 M 34.048 65.946 C 35.450 66.371, 39.162 67.040, 42.298 67.432 C 47.118 68.034, 48 67.901, 48 66.572 C 48 65.263, 46.621 65.014, 39.750 65.086 C 34.217 65.144, 32.339 65.427, 34.048 65.946 M 50.582 66.352 C 50.920 67.235, 53.149 68.108, 56.099 68.514 C 62.081 69.336, 84.864 68.048, 82.895 66.998 C 82.128 66.589, 74.415 65.943, 65.757 65.563 C 52.075 64.962, 50.088 65.065, 50.582 66.352 M 89 69.536 C 85.425 70.222, 75.787 70.833, 67.583 70.892 C 59.379 70.951, 52.854 71.163, 53.083 71.362 C 53.312 71.561, 64.133 72.019, 77.129 72.380 C 99.928 73.013, 100.775 72.969, 101.262 71.104 C 101.621 69.735, 101.146 69.006, 99.634 68.600 C 97.160 67.936, 97.468 67.909, 89 69.536 M 103.473 76.044 C 103.208 76.473, 102.084 81.251, 100.975 86.662 C 94.750 117.045, 86.679 136.564, 77.418 143.632 C 74.098 146.165, 72.892 146.485, 67.080 146.368 C 63.461 146.295, 58.700 145.948, 56.500 145.597 C 54.152 145.222, 56.837 146.546, 63 148.802 C 77.888 154.252, 82.095 156.267, 86.301 159.959 C 90.763 163.877, 90.943 166.029, 87.079 169.280 C 82.386 173.229, 69.803 176.083, 44.500 178.936 C 38.669 179.594, 48.156 179.870, 79.500 179.956 C 103.150 180.020, 129.475 180.169, 138 180.287 C 154.860 180.519, 161.718 179.192, 167.505 174.578 C 176.711 167.237, 155.011 168.852, 134.394 177.042 L 126.839 180.043 121.170 176.272 C 104.266 165.027, 110.914 154.920, 142.500 143.845 L 153.500 139.988 145 140.401 C 140.325 140.629, 134.827 141.531, 132.782 142.407 C 128.449 144.264, 124.690 144.440, 121.849 142.919 C 118.620 141.191, 116.047 134.271, 116.022 127.250 L 116 121 112.559 121 C 107.604 121, 107.341 119.472, 111.502 114.866 C 114.478 111.572, 115.044 110.308, 114.506 108.154 C 113.596 104.504, 109.502 99.342, 105.425 96.702 C 103.555 95.491, 102.028 94.275, 102.032 94 C 102.048 92.889, 112.690 80.538, 115.286 78.617 C 121.713 73.862, 123.370 81.697, 120.554 103.534 C 119.699 110.162, 118.999 116.241, 118.999 117.043 C 118.998 118.275, 121.818 118.463, 137.249 118.258 C 147.287 118.126, 157.888 117.753, 160.808 117.429 L 166.115 116.842 160.835 113.153 C 150.310 105.800, 148.135 98.177, 154.540 91.088 C 156.487 88.933, 159.942 86.248, 162.218 85.122 C 164.755 83.867, 165.804 82.896, 164.929 82.615 C 157.864 80.341, 151.217 77.592, 149.888 76.394 C 148.568 75.203, 144.261 74.969, 126.116 75.102 C 113.927 75.191, 103.738 75.615, 103.473 76.044 M 111.584 86.170 C 108.513 89.564, 106 92.661, 106 93.052 C 106 93.443, 107.553 94.947, 109.452 96.395 C 111.350 97.844, 113.697 100.372, 114.667 102.014 C 115.638 103.656, 116.719 105, 117.070 105 C 117.960 105, 119.946 84.510, 119.297 82.027 C 119.005 80.912, 118.407 80, 117.967 80 C 117.528 80, 114.655 82.777, 111.584 86.170 M 114.200 116.200 C 112.567 117.833, 112.692 119, 114.500 119 C 115.333 119, 116 118.111, 116 117 C 116 114.669, 115.814 114.586, 114.200 116.200" stroke="none" fill="black" fill-rule="evenodd"/>
</svg>