<svg xmlns="http://www.w3.org/2000/svg" width="200" height="200" viewBox="0 0 200 200" version="1.1">
	<path d="M 110.741 14.593 C 110.353 14.980, 110.297 16.336, 110.616 17.607 C 111.448 20.923, 108.318 24.806, 98.609 32.500 C 88.819 40.259, 86.770 43.198, 89.351 45.780 C 90.809 47.238, 93.140 47.500, 104.652 47.500 L 118.232 47.500 109.366 51.706 C 95.300 58.379, 80.299 63.006, 72.848 62.968 C 62.230 62.915, 60.873 60.658, 60.479 42.385 C 60.224 30.595, 59.924 28.596, 57.846 24.872 C 55.198 20.126, 50.546 17.314, 44.534 16.823 L 40.568 16.500 36.907 27.500 C 34.893 33.550, 31.121 43.413, 28.525 49.417 C 20.338 68.345, 20.424 75.814, 29.036 93.877 L 33.030 102.255 27.586 113.377 C 19.569 129.756, 17.100 142.518, 20.415 150.452 C 24.747 160.819, 37.792 156.819, 60.250 138.239 L 68 131.827 68 153.979 C 68 175.979, 68.535 180, 71.462 180 C 73.786 180, 78.464 173.414, 83.580 162.938 C 88.402 153.064, 90 151.106, 90 155.070 C 90 158.468, 94.053 157.034, 97.082 152.564 C 98.549 150.399, 101.494 144.549, 103.625 139.564 L 107.500 130.500 108.122 144.500 C 108.834 160.541, 111.051 168.224, 116.560 173.750 C 120.694 177.897, 124.254 178.010, 127.897 174.110 C 131.869 169.858, 133.147 164.890, 133.714 151.500 C 134.129 141.668, 133.840 137.741, 132.111 129.767 C 130.819 123.810, 130.042 116.828, 130.107 111.767 C 130.232 102.119, 130.978 104.627, 133 121.500 C 136.429 150.109, 144.323 165.842, 161.946 179.196 L 168.500 184.162 169.162 173.331 C 169.525 167.374, 170.809 155.525, 172.014 147 C 175.992 118.859, 174.085 99.995, 165.910 86.627 L 162.930 81.754 168.349 76.073 C 174.755 69.356, 179 61.508, 179 56.378 C 179 50.998, 173.960 46.808, 157.799 38.753 C 139.876 29.821, 134.632 25.905, 132.833 20.113 C 131.348 15.331, 129 13.403, 129 16.966 C 129 18.139, 131.025 28.403, 133.500 39.774 C 135.975 51.145, 138 62.675, 138 65.396 C 138 68.126, 138.609 71.050, 139.360 71.921 C 140.108 72.790, 141.277 76.419, 141.957 79.987 C 143.080 85.879, 143.034 86.568, 141.453 87.487 C 135.960 90.681, 131.257 95.027, 129.514 98.520 C 126.795 103.970, 126.338 116.211, 128.490 126 C 132.603 144.711, 132.297 161.099, 127.677 169.491 C 122.807 178.337, 115.225 172.833, 112.123 158.201 C 110.633 151.172, 110.761 131.313, 112.355 122.232 C 113.576 115.271, 113.517 114, 111.969 114 C 111.586 114, 109.121 119.287, 106.491 125.750 C 101.020 139.193, 94.535 152.551, 93.027 153.483 C 91.720 154.291, 91.714 150.291, 93.009 142.500 C 93.558 139.200, 94.709 131.775, 95.566 126 C 97.110 115.597, 97.168 115.454, 101.917 110.500 C 108.373 103.764, 110 101.130, 110 97.412 C 110 92.762, 106.719 89.384, 97.894 84.947 C 93.553 82.764, 90 80.588, 90 80.112 C 90 79.102, 97.144 75.974, 105 73.545 C 108.025 72.610, 111.175 71.620, 112 71.345 C 113.139 70.966, 112.779 70.259, 110.500 68.407 C 106.929 65.504, 99.218 63.019, 93.568 62.951 L 89.500 62.902 96 60.408 C 108.724 55.526, 127.060 46.680, 126.699 45.599 C 126.450 44.857, 120.707 44.500, 109.006 44.500 C 96.874 44.500, 91.565 44.156, 91.292 43.354 C 91.078 42.723, 95.380 38.546, 100.852 34.071 C 109.619 26.904, 114 21.645, 114 18.290 C 114 16.718, 111.477 13.856, 110.741 14.593 M 40.680 25.192 C 39.679 28.661, 36.148 38.025, 32.833 46 C 29.518 53.975, 26.308 62.856, 25.700 65.735 C 24.154 73.049, 25.963 81.137, 31.875 93.343 C 36.619 103.138, 36.633 103.197, 34.768 105.568 C 31.820 109.315, 25.321 123.884, 23.581 130.644 C 21.529 138.617, 21.518 147.867, 23.557 150.777 C 28.055 157.199, 44.603 149.297, 63.716 131.602 C 67.044 128.521, 70.098 126, 70.501 126 C 70.905 126, 71.118 136.013, 70.974 148.250 C 70.831 160.488, 70.778 172.032, 70.857 173.905 C 71 177.305, 71.003 177.307, 73.121 175.405 C 74.287 174.357, 78.542 166.750, 82.576 158.500 C 88.947 145.468, 90.112 142.222, 91.455 133.761 C 94.159 116.716, 93.069 104.613, 88.322 98.971 C 81.386 90.728, 72.176 99.206, 64.931 120.500 L 62.209 128.500 59.535 122.759 C 53.928 110.719, 53.957 98.326, 59.621 86.320 C 62.811 79.556, 71.588 70.347, 77.693 67.360 L 81.885 65.308 74.693 65.703 C 66.687 66.143, 63.926 65.161, 60.609 60.694 C 58.811 58.272, 58.445 55.947, 57.932 43.694 C 57.156 25.153, 55.193 21.176, 46 19.516 L 42.500 18.884 40.680 25.192 M 134 28.559 C 134 29.497, 139.252 53.523, 139.523 53.824 C 139.684 54.002, 140.544 51.640, 141.435 48.574 C 142.519 44.846, 143.579 43, 144.635 43 C 145.731 43, 146.006 43.536, 145.535 44.750 C 144.526 47.354, 140.826 63.186, 141.188 63.354 C 146.401 65.785, 149.919 68.295, 154.896 73.136 L 160.993 79.065 163.923 76.899 C 168.669 73.390, 177 60.469, 177 56.617 C 177 53.162, 171.330 48.799, 158.148 42.110 C 150.588 38.274, 142.062 33.560, 139.201 31.635 C 136.341 29.710, 134 28.326, 134 28.559 M 86 66.935 C 66.013 73.037, 54.060 94.609, 59.449 114.853 C 60.232 117.798, 61.063 120.396, 61.294 120.627 C 61.525 120.859, 62.736 118.225, 63.984 114.774 C 70.431 96.948, 80.505 88.890, 88.491 95.171 C 91.664 97.667, 94.946 104.255, 94.978 108.191 C 95.014 112.601, 96.471 112.253, 101.873 106.541 C 105.977 102.201, 107 100.440, 107 97.715 C 107 93.479, 105.147 91.725, 95.152 86.500 C 83.343 80.327, 84.103 77.869, 99.512 72.399 L 107.398 69.600 103.449 67.826 C 99.367 65.993, 90.559 65.543, 86 66.935 M 143.035 70.250 C 143.075 72.780, 145.562 84.895, 146.166 85.499 C 146.974 86.308, 158.046 80.637, 157.699 79.592 C 157.210 78.123, 145.239 68, 143.989 68 C 143.445 68, 143.016 69.013, 143.035 70.250 M 153.500 85.647 C 150.200 87.058, 147.329 88.373, 147.120 88.570 C 146.910 88.767, 147.723 95.149, 148.926 102.753 C 150.128 110.356, 150.975 119.260, 150.806 122.539 C 150.542 127.691, 150.234 128.500, 148.538 128.500 C 146.093 128.500, 142.337 123.029, 137.526 112.459 L 133.904 104.500 134.503 111.500 C 135.403 122.023, 138.677 139.760, 140.921 146.275 C 144.650 157.105, 148.967 163.761, 157.418 171.715 L 165.500 179.322 166.245 171.911 C 166.654 167.835, 167.676 159.526, 168.516 153.447 C 172.564 124.155, 172.390 109.603, 167.844 97.194 C 165.810 91.641, 161 82.964, 160 83.043 C 159.725 83.064, 156.800 84.236, 153.500 85.647 M 138.150 93.006 C 135.868 94.660, 134 96.317, 134 96.689 C 134 97.696, 143.141 118.090, 144.943 121.103 C 148.670 127.336, 149.120 122.491, 146.438 105 C 144.485 92.258, 143.978 90, 143.071 90 C 142.647 90, 140.433 91.353, 138.150 93.006" stroke="none" fill="black" fill-rule="evenodd"/>
</svg>