<svg xmlns="http://www.w3.org/2000/svg" width="200" height="200" viewBox="0 0 200 200" version="1.1">
	<path d="M 138.580 22.267 C 136.966 26.267, 134.159 31.010, 132.302 32.878 C 129.313 35.885, 128.504 36.197, 124.932 35.718 C 122.256 35.359, 119.075 33.734, 115.382 30.840 C 103.801 21.764, 102.643 21, 100.474 21 C 97.261 21, 96.053 22.978, 94.903 30.125 C 94.342 33.603, 93.798 36.515, 93.692 36.595 C 93.586 36.675, 88.484 36.967, 82.354 37.245 L 71.209 37.750 68.113 33.359 C 65.394 29.500, 57.042 23, 54.804 23 C 53.330 23, 53.975 25.345, 56.062 27.566 C 58.271 29.917, 61.348 38.688, 60.195 39.348 C 59.813 39.566, 57.305 40.064, 54.622 40.453 C 51.939 40.842, 49.149 41.389, 48.422 41.668 C 47.605 41.982, 46.528 40.807, 45.601 38.587 C 40.208 25.680, 26.437 27.433, 19.182 41.952 C 14.676 50.970, 13.649 57.415, 14.483 71.465 C 15.436 87.544, 15.440 93.610, 14.508 112.509 C 13.840 126.047, 13.972 129.391, 15.362 134.173 C 17.725 142.302, 21.229 145.010, 29.327 144.967 C 32.722 144.949, 38.437 144.555, 42.027 144.092 C 45.616 143.628, 50.681 143.572, 53.281 143.967 L 58.008 144.684 58.937 141.092 C 59.447 139.116, 60.323 135.700, 60.882 133.500 C 64.330 119.935, 65.470 106.072, 65.485 77.500 C 65.493 61.550, 65.179 47.063, 64.786 45.306 C 64.185 42.615, 64.398 42.009, 66.137 41.457 C 67.272 41.096, 68.719 41.318, 69.351 41.949 C 70.713 43.310, 70.812 64.397, 69.598 95 C 68.916 112.202, 69.042 116.699, 70.381 122.951 L 71.976 130.402 69.324 136.951 C 67.471 141.526, 66.546 145.911, 66.257 151.500 C 65.874 158.885, 66.050 159.816, 68.556 163.614 C 73.390 170.940, 81.689 173.736, 93.165 171.906 C 113.284 168.696, 126.253 154.402, 120.554 141.718 C 118.909 138.055, 115.614 134, 114.284 134 C 113.792 134, 109.425 135.598, 104.580 137.552 C 99.735 139.506, 95.588 140.922, 95.365 140.699 C 95.143 140.476, 97.957 136.965, 101.620 132.897 C 110.498 123.037, 118.194 112.673, 121.407 106.250 C 122.852 103.362, 124.244 101, 124.500 101 C 124.757 101, 124.966 113.058, 124.965 127.795 C 124.963 155.821, 125.989 168.130, 128.815 174 C 132.189 181.009, 137.663 177.905, 143.312 165.779 C 145.686 160.684, 146.863 159.137, 147.992 159.627 C 152.820 161.726, 154.823 161.229, 159.181 156.852 C 169.691 146.296, 179.037 119.755, 178.983 100.619 C 178.958 91.921, 176.602 81.909, 172.980 75.114 L 169.864 69.267 171.432 61.676 C 172.294 57.501, 173 51.625, 173 48.619 C 173 41.790, 170.455 38.426, 161.799 33.812 C 155.801 30.615, 147.129 23.044, 143.421 17.767 L 141.500 15.034 138.580 22.267 M 139.386 27.238 C 136.353 33.584, 132.462 37.595, 128.332 38.631 C 124.063 39.703, 118.831 37.327, 110.500 30.533 C 106.100 26.945, 101.721 24.007, 100.769 24.005 C 98.825 23.999, 97.687 27.344, 97.573 33.395 L 97.500 37.291 103.631 38.558 C 107.004 39.256, 111.144 40.540, 112.832 41.413 C 114.520 42.286, 117.273 43, 118.950 43 C 120.994 43, 122 43.495, 122 44.500 C 122 45.325, 121.551 46, 121.002 46 C 119.608 46, 126.808 55.828, 129.488 57.584 C 131.405 58.840, 132.230 58.830, 135.982 57.506 C 138.346 56.672, 141.816 55.041, 143.693 53.881 C 145.570 52.721, 147.336 52.002, 147.617 52.284 C 147.899 52.566, 149.263 56.057, 150.649 60.041 C 153.608 68.550, 153.247 73.137, 149.421 75.644 C 140.916 81.217, 113.063 68.025, 107.032 55.567 C 104.919 51.201, 104.888 50.819, 106.458 48.424 C 107.370 47.031, 109.103 45.513, 110.308 45.049 C 112.437 44.230, 112.418 44.174, 109.619 43.078 C 105.571 41.493, 97.832 39.835, 97.240 40.426 C 96.688 40.979, 98.741 71.914, 99.622 76.309 C 100.138 78.882, 100.450 79.058, 103.342 78.396 C 108.930 77.118, 125.311 77.708, 132.035 79.429 C 145.843 82.965, 153.262 87.871, 157.422 96.220 C 163.517 108.451, 158.398 123.679, 141.278 144.250 C 137.730 148.512, 134.443 152, 133.973 152 C 131.803 152, 132.198 149.557, 135.394 143.210 C 144.311 125.504, 151 106.272, 151 98.342 C 151 90.114, 146.243 89.144, 134.426 94.962 L 128.303 97.976 127.657 107.738 C 126.738 121.609, 126.862 136.303, 128.036 152.674 C 129.105 167.585, 130.682 174.301, 133.232 174.801 C 135.070 175.161, 139.422 168.331, 143.457 158.750 C 145.021 155.037, 146.446 152, 146.624 152 C 146.803 152, 147.647 153.350, 148.500 155 C 151.957 161.686, 158.818 156.432, 166.007 141.596 C 177.666 117.531, 179.195 91.639, 169.927 75.216 L 166.936 69.917 168.468 62.501 C 169.311 58.422, 170 52.365, 170 49.042 C 170 41.908, 169.156 40.799, 160.007 35.923 C 156.573 34.093, 151.172 30.044, 148.005 26.925 L 142.246 21.255 139.386 27.238 M 61.493 31.500 C 61.849 32.600, 62.390 34.737, 62.695 36.250 C 63.056 38.037, 63.886 39, 65.066 39 C 68.241 39, 68.049 37.383, 64.397 33.387 C 62.135 30.911, 61.081 30.226, 61.493 31.500 M 30.379 33.414 C 23.977 36.247, 18.770 46.024, 17.064 58.414 C 15.973 66.338, 16.187 71.144, 18.145 82.661 C 18.903 87.116, 18.865 91.342, 18.010 97.923 C 16.483 109.675, 16.396 128.367, 17.845 133.565 C 18.468 135.801, 20.116 138.700, 21.508 140.007 C 24.325 142.654, 25.122 142.698, 44.940 141.304 L 56.381 140.500 57.627 135.500 C 62.181 117.236, 64.742 80.945, 63.047 58.714 C 62.409 50.346, 61.575 43.198, 61.193 42.830 C 60.812 42.461, 57.644 42.686, 54.154 43.330 L 47.808 44.500 47.547 52 C 46.887 71.020, 44.835 107.994, 44.191 112.489 C 43.695 115.947, 42.971 117.575, 41.830 117.794 C 39.247 118.292, 38.642 113.394, 38.705 92.500 C 38.762 73.541, 39.872 60.295, 42.435 48 C 43.525 42.770, 43.547 40.914, 42.550 38.500 C 40.286 33.022, 35.646 31.083, 30.379 33.414 M 73.365 40.624 C 72.583 40.945, 72.498 42.239, 73.092 44.795 C 74.267 49.853, 74.185 66.482, 72.929 78 C 71.335 92.619, 71.527 115.326, 73.314 123.648 C 74.822 130.664, 74.805 130.907, 72.411 136.833 C 66.154 152.326, 67.582 163.201, 76.426 167.398 C 91.790 174.689, 119 162.818, 119 148.823 C 119 144.958, 116.688 138.543, 114.896 137.436 C 114.422 137.143, 109.707 138.524, 104.417 140.506 C 89.933 145.931, 87.979 144.631, 96.203 135.040 C 99.116 131.642, 103.685 126.306, 106.356 123.181 C 111.460 117.211, 119 106.280, 119 104.852 C 119 104.390, 115.737 106.106, 111.750 108.664 C 95.008 119.404, 90.262 118.706, 96.496 106.419 C 97.937 103.580, 98.993 99.781, 98.996 97.434 C 98.999 94.041, 98.420 92.855, 95.500 90.269 C 91.476 86.706, 91.154 84.866, 94.080 82.140 L 96.160 80.202 91.882 64.533 C 89.133 54.465, 87.968 48.620, 88.624 48.182 C 89.186 47.807, 89.936 46.712, 90.292 45.750 C 91.469 42.559, 92.803 43.934, 93.509 49.064 C 94.516 56.391, 95.304 54.357, 94.472 46.579 L 93.767 40 84.134 40.079 C 78.835 40.122, 73.989 40.368, 73.365 40.624 M 113.354 46.755 C 112.174 46.951, 110.428 47.975, 109.473 49.030 C 107.972 50.689, 107.908 51.364, 109.004 54.009 C 112.497 62.443, 132.152 74.103, 142.952 74.148 C 150.179 74.178, 151.738 69.439, 147.683 59.769 L 146.118 56.037 140.809 58.509 C 137.889 59.868, 133.832 60.985, 131.793 60.990 C 128.400 60.999, 127.615 60.411, 122.551 54.064 C 116.339 46.278, 116.318 46.261, 113.354 46.755 M 43.191 60.500 C 41.701 71.891, 40.570 110.607, 41.965 102.500 C 42.438 99.750, 42.864 91.237, 42.912 83.582 C 42.961 75.927, 43.484 66.886, 44.075 63.490 C 44.666 60.094, 45.004 55.782, 44.825 53.908 C 44.623 51.788, 44.006 54.278, 43.191 60.500 M 104.739 80.959 C 102.670 81.361, 100.742 81.924, 100.454 82.212 C 100.166 82.500, 100.385 84.708, 100.941 87.118 C 102.835 95.336, 102.262 101.298, 98.978 107.543 C 97.315 110.703, 96.170 113.503, 96.432 113.765 C 97.054 114.388, 106.630 108.972, 115.616 102.916 C 121.975 98.630, 122.853 97.640, 123.866 93.617 C 124.490 91.141, 125 87.345, 125 85.182 C 125 81.578, 124.739 81.198, 121.875 80.625 C 117.955 79.841, 109.672 80.003, 104.739 80.959 M 128 88.107 L 128 95.034 132.767 92.618 C 135.388 91.290, 139.551 89.643, 142.017 88.958 L 146.500 87.714 142 85.705 C 139.525 84.600, 135.363 83.130, 132.750 82.439 L 128 81.181 128 88.107 M 95 85.294 C 95 86.098, 95.718 87.351, 96.596 88.080 C 97.990 89.236, 98.148 89.103, 97.846 87.030 C 97.468 84.436, 95 82.931, 95 85.294 M 153.675 101.142 C 152.927 107.472, 147.822 122.818, 142.529 134.650 L 139.017 142.500 142.398 138.584 C 146.846 133.432, 151.612 125.487, 154.567 118.302 C 157.245 111.788, 157.697 103.341, 155.626 98.500 L 154.342 95.500 153.675 101.142" stroke="none" fill="black" fill-rule="evenodd"/>
</svg>